<svg xmlns="http://www.w3.org/2000/svg" width="300" height="300" viewBox="0 0 300 300">
<path d="M 126.03 133.60 L 126.67 134.32 C 127.32 135.04 128.43 135.10 129.15 134.46 C 129.88 133.81 129.94 132.70 129.29 131.97 L 128.64 131.25 C 128.00 130.53 126.89 130.47 126.16 131.12 C 125.44 131.76 125.38 132.87 126.03 133.60 Z M 126.62 134.37 L 127.30 135.12 C 127.97 135.87 129.13 135.93 129.88 135.26 C 130.63 134.58 130.69 133.43 130.02 132.68 L 129.34 131.93 C 128.67 131.17 127.51 131.11 126.76 131.79 C 126.01 132.46 125.95 133.62 126.62 134.37 Z M 127.27 135.15 L 127.92 135.88 C 128.61 136.64 129.80 136.70 130.56 136.01 C 131.33 135.32 131.39 134.14 130.70 133.37 L 130.04 132.64 C 129.35 131.88 128.17 131.82 127.40 132.51 C 126.64 133.20 126.58 134.38 127.27 135.15 Z M 127.92 135.87 L 128.57 136.60 C 129.26 137.37 130.44 137.44 131.21 136.75 C 131.98 136.06 132.05 134.88 131.36 134.11 L 130.70 133.38 C 130.01 132.61 128.83 132.54 128.06 133.23 C 127.29 133.92 127.23 135.10 127.92 135.87 Z M 128.57 136.57 L 129.26 137.36 C 129.93 138.13 131.10 138.21 131.87 137.54 C 132.65 136.87 132.72 135.69 132.05 134.92 L 131.36 134.14 C 130.69 133.36 129.52 133.29 128.75 133.96 C 127.98 134.63 127.90 135.80 128.57 136.57 Z M 129.26 137.32 L 129.90 138.08 C 130.55 138.85 131.70 138.94 132.47 138.29 C 133.24 137.64 133.34 136.49 132.69 135.72 L 132.05 134.96 C 131.40 134.19 130.25 134.10 129.48 134.75 C 128.71 135.40 128.61 136.55 129.26 137.32 Z M 129.93 138.05 L 130.57 138.81 C 131.21 139.57 132.33 139.66 133.09 139.03 C 133.84 138.39 133.94 137.27 133.30 136.51 L 132.66 135.75 C 132.02 135.00 130.90 134.90 130.15 135.53 C 129.39 136.17 129.29 137.29 129.93 138.05 Z M 130.62 138.80 L 131.29 139.57 C 131.92 140.30 133.02 140.38 133.75 139.74 C 134.47 139.11 134.55 138.01 133.92 137.29 L 133.25 136.52 C 132.62 135.80 131.52 135.72 130.80 136.35 C 130.07 136.98 129.99 138.08 130.62 138.80 Z M 131.36 139.59 L 132.05 140.33 C 132.68 141.01 133.76 141.05 134.45 140.42 C 135.13 139.78 135.17 138.70 134.54 138.02 L 133.85 137.28 C 133.21 136.59 132.14 136.55 131.45 137.19 C 130.76 137.82 130.72 138.90 131.36 139.59 Z M 132.11 140.34 L 132.82 141.05 C 133.46 141.70 134.51 141.70 135.16 141.06 C 135.81 140.41 135.82 139.37 135.17 138.71 L 134.47 138.00 C 133.82 137.35 132.78 137.35 132.12 137.99 C 131.47 138.64 131.47 139.69 132.11 140.34 Z M 132.87 141.04 L 133.59 141.74 C 134.23 142.36 135.25 142.34 135.87 141.70 C 136.50 141.06 136.48 140.04 135.84 139.42 L 135.12 138.72 C 134.48 138.10 133.45 138.11 132.83 138.75 C 132.21 139.40 132.23 140.42 132.87 141.04 Z M 133.62 141.72 L 134.11 142.19 C 134.74 142.79 135.74 142.77 136.35 142.14 C 136.95 141.50 136.93 140.50 136.29 139.90 L 135.81 139.43 C 135.17 138.83 134.17 138.85 133.57 139.48 C 132.96 140.12 132.99 141.12 133.62 141.72 Z"
      fill="black"
      fill-rule="nonzero" /><path d="M 148.49 123.77 L 148.32 124.68 C 148.14 125.66 148.79 126.61 149.78 126.78 C 150.76 126.96 151.71 126.31 151.89 125.33 L 152.05 124.41 C 152.23 123.43 151.58 122.49 150.59 122.31 C 149.61 122.13 148.66 122.78 148.49 123.77 Z M 148.30 124.58 L 148.06 125.57 C 147.83 126.56 148.45 127.56 149.45 127.80 C 150.44 128.03 151.44 127.41 151.68 126.42 L 151.91 125.43 C 152.14 124.43 151.53 123.43 150.53 123.20 C 149.53 122.96 148.53 123.58 148.30 124.58 Z M 148.07 125.43 L 147.77 126.39 C 147.46 127.39 148.01 128.45 149.00 128.76 C 150.00 129.07 151.06 128.51 151.37 127.52 L 151.67 126.55 C 151.98 125.56 151.43 124.50 150.43 124.19 C 149.44 123.88 148.38 124.43 148.07 125.43 Z M 147.79 126.30 L 147.45 127.23 C 147.09 128.21 147.59 129.30 148.57 129.66 C 149.56 130.02 150.65 129.52 151.01 128.54 L 151.35 127.61 C 151.71 126.63 151.20 125.54 150.22 125.18 C 149.24 124.82 148.15 125.32 147.79 126.30 Z M 147.47 127.19 L 147.09 128.15 C 146.70 129.13 147.18 130.23 148.16 130.61 C 149.13 130.99 150.23 130.51 150.61 129.54 L 150.99 128.58 C 151.37 127.60 150.89 126.51 149.92 126.12 C 148.95 125.74 147.85 126.22 147.47 127.19 Z M 147.10 128.14 L 146.71 129.10 C 146.32 130.07 146.79 131.17 147.76 131.56 C 148.73 131.95 149.83 131.48 150.22 130.51 L 150.60 129.55 C 150.99 128.58 150.52 127.48 149.55 127.09 C 148.58 126.71 147.48 127.18 147.10 128.14 Z M 146.72 129.11 L 146.35 130.05 C 145.96 131.01 146.43 132.10 147.39 132.49 C 148.35 132.87 149.45 132.41 149.83 131.44 L 150.21 130.50 C 150.59 129.54 150.12 128.45 149.16 128.06 C 148.20 127.68 147.11 128.15 146.72 129.11 Z M 146.36 130.05 L 145.99 130.96 C 145.61 131.92 146.06 133.00 147.02 133.39 C 147.97 133.77 149.05 133.31 149.44 132.36 L 149.81 131.44 C 150.20 130.49 149.74 129.41 148.79 129.02 C 147.83 128.63 146.75 129.09 146.36 130.05 Z M 146.01 130.95 L 145.64 131.86 C 145.24 132.80 145.69 133.88 146.63 134.27 C 147.57 134.66 148.65 134.22 149.04 133.28 L 149.42 132.37 C 149.81 131.43 149.37 130.35 148.43 129.96 C 147.49 129.57 146.41 130.01 146.01 130.95 Z M 145.66 131.84 L 145.28 132.72 C 144.88 133.64 145.31 134.72 146.24 135.12 C 147.16 135.52 148.24 135.09 148.64 134.17 L 149.02 133.29 C 149.42 132.36 148.99 131.29 148.06 130.89 C 147.14 130.49 146.06 130.91 145.66 131.84 Z M 145.30 132.71 L 144.91 133.62 C 144.50 134.53 144.92 135.60 145.83 136.00 C 146.75 136.41 147.81 135.99 148.22 135.08 L 148.62 134.17 C 149.02 133.26 148.60 132.19 147.69 131.79 C 146.78 131.38 145.71 131.80 145.30 132.71 Z M 144.92 133.62 L 144.50 134.58 C 144.10 135.49 144.51 136.54 145.41 136.94 C 146.32 137.34 147.38 136.93 147.78 136.03 L 148.20 135.07 C 148.60 134.17 148.19 133.11 147.29 132.71 C 146.38 132.31 145.32 132.72 144.92 133.62 Z M 144.52 134.60 L 144.10 135.54 C 143.71 136.44 144.12 137.48 145.01 137.87 C 145.91 138.26 146.95 137.86 147.34 136.96 L 147.76 136.01 C 148.15 135.12 147.74 134.08 146.85 133.69 C 145.95 133.29 144.91 133.70 144.52 134.60 Z M 144.13 135.56 L 143.71 136.51 C 143.33 137.39 143.73 138.41 144.61 138.80 C 145.49 139.18 146.52 138.78 146.90 137.90 L 147.32 136.95 C 147.70 136.07 147.30 135.04 146.42 134.66 C 145.54 134.27 144.51 134.68 144.13 135.56 Z M 143.74 136.52 L 143.34 137.44 C 142.96 138.30 143.35 139.31 144.21 139.69 C 145.08 140.07 146.09 139.68 146.47 138.81 L 146.87 137.89 C 147.25 137.03 146.86 136.02 146.00 135.64 C 145.13 135.26 144.12 135.65 143.74 136.52 Z M 143.37 137.44 L 142.97 138.32 C 142.59 139.17 142.97 140.16 143.82 140.54 C 144.66 140.92 145.66 140.54 146.04 139.70 L 146.44 138.81 C 146.82 137.97 146.44 136.97 145.59 136.59 C 144.74 136.21 143.75 136.59 143.37 137.44 Z M 143.02 138.31 L 142.56 139.29 C 142.17 140.12 142.52 141.09 143.35 141.48 C 144.17 141.87 145.15 141.51 145.53 140.69 L 145.99 139.71 C 146.38 138.88 146.03 137.90 145.20 137.52 C 144.38 137.13 143.40 137.49 143.02 138.31 Z M 142.60 139.29 L 142.19 140.13 C 141.80 140.93 142.13 141.89 142.93 142.28 C 143.72 142.66 144.68 142.33 145.07 141.54 L 145.49 140.69 C 145.88 139.90 145.55 138.94 144.75 138.55 C 143.95 138.16 142.99 138.49 142.60 139.29 Z M 142.22 140.13 L 142.03 140.52 C 141.64 141.30 141.96 142.24 142.74 142.63 C 143.52 143.02 144.46 142.70 144.85 141.92 L 145.04 141.53 C 145.43 140.76 145.11 139.81 144.33 139.42 C 143.55 139.04 142.61 139.36 142.22 140.13 Z"
      fill="black"
      fill-rule="nonzero" /><path d="M 137.00 125.94 L 137.62 126.64 C 138.23 127.32 139.28 127.38 139.96 126.77 C 140.65 126.16 140.71 125.11 140.10 124.42 L 139.48 123.73 C 138.87 123.05 137.82 122.99 137.13 123.60 C 136.45 124.21 136.39 125.26 137.00 125.94 Z M 137.37 126.51 L 137.91 127.33 C 138.46 128.15 139.56 128.37 140.38 127.83 C 141.20 127.28 141.42 126.18 140.88 125.36 L 140.34 124.54 C 139.80 123.73 138.69 123.50 137.87 124.05 C 137.05 124.59 136.83 125.69 137.37 126.51 Z M 137.62 127.00 L 137.99 127.99 C 138.35 128.97 139.44 129.47 140.42 129.11 C 141.40 128.75 141.90 127.66 141.54 126.68 L 141.17 125.69 C 140.81 124.71 139.72 124.21 138.74 124.57 C 137.76 124.93 137.26 126.02 137.62 127.00 Z M 137.85 127.66 L 138.00 128.59 C 138.18 129.65 139.19 130.36 140.25 130.18 C 141.31 130.00 142.02 128.99 141.84 127.93 L 141.68 127.01 C 141.50 125.95 140.50 125.24 139.44 125.42 C 138.38 125.60 137.67 126.60 137.85 127.66 Z M 137.97 128.41 L 138.05 129.42 C 138.13 130.50 139.07 131.31 140.15 131.23 C 141.22 131.15 142.03 130.21 141.95 129.13 L 141.87 128.11 C 141.79 127.03 140.85 126.23 139.77 126.31 C 138.70 126.39 137.89 127.33 137.97 128.41 Z M 138.03 129.32 L 138.06 130.37 C 138.08 131.46 138.98 132.32 140.07 132.29 C 141.16 132.26 142.02 131.36 141.99 130.28 L 141.96 129.23 C 141.94 128.14 141.04 127.28 139.95 127.31 C 138.86 127.34 138.01 128.24 138.03 129.32 Z M 138.05 130.33 L 138.05 131.36 C 138.05 132.45 138.94 133.34 140.03 133.33 C 141.12 133.33 142.01 132.44 142.00 131.35 L 142.00 130.32 C 142.00 129.23 141.11 128.35 140.02 128.35 C 138.93 128.35 138.04 129.24 138.05 130.33 Z M 138.04 131.36 L 138.04 132.39 C 138.04 133.48 138.93 134.37 140.02 134.37 C 141.12 134.37 142.01 133.49 142.01 132.39 L 142.01 131.36 C 142.01 130.26 141.12 129.37 140.03 129.37 C 138.93 129.37 138.04 130.26 138.04 131.36 Z M 138.04 132.38 L 138.04 133.36 C 138.03 134.46 138.92 135.35 140.02 135.36 C 141.11 135.36 142.01 134.47 142.01 133.38 L 142.01 132.40 C 142.02 131.30 141.13 130.41 140.03 130.40 C 138.93 130.40 138.04 131.29 138.04 132.38 Z M 138.03 133.36 L 138.03 134.33 C 138.02 135.43 138.90 136.32 140.00 136.33 C 141.10 136.34 142.00 135.46 142.01 134.36 L 142.01 133.38 C 142.02 132.29 141.14 131.39 140.04 131.38 C 138.94 131.37 138.04 132.26 138.03 133.36 Z M 138.02 134.32 L 138.01 135.28 C 137.99 136.38 138.88 137.28 139.98 137.30 C 141.08 137.31 141.98 136.43 142.00 135.33 L 142.01 134.37 C 142.02 133.27 141.14 132.36 140.04 132.35 C 138.94 132.33 138.04 133.22 138.02 134.32 Z M 138.01 135.26 L 137.98 136.23 C 137.96 137.33 138.84 138.25 139.94 138.27 C 141.04 138.30 141.96 137.42 141.98 136.32 L 142.00 135.35 C 142.02 134.24 141.15 133.33 140.05 133.30 C 138.94 133.28 138.03 134.16 138.01 135.26 Z M 137.98 136.21 L 137.95 137.21 C 137.91 138.32 138.77 139.25 139.88 139.28 C 140.98 139.32 141.91 138.46 141.95 137.35 L 141.98 136.34 C 142.02 135.24 141.16 134.31 140.05 134.27 C 138.95 134.24 138.02 135.10 137.98 136.21 Z M 137.94 137.18 L 137.89 138.22 C 137.83 139.32 138.68 140.27 139.79 140.32 C 140.90 140.38 141.84 139.53 141.90 138.42 L 141.95 137.39 C 142.01 136.28 141.16 135.34 140.05 135.28 C 138.94 135.22 138.00 136.07 137.94 137.18 Z M 137.89 138.18 L 137.82 139.17 C 137.74 140.28 138.57 141.24 139.68 141.32 C 140.79 141.40 141.75 140.57 141.83 139.46 L 141.90 138.46 C 141.98 137.36 141.14 136.40 140.04 136.32 C 138.93 136.24 137.97 137.07 137.89 138.18 Z M 137.82 139.14 L 137.73 140.12 C 137.63 141.23 138.45 142.20 139.55 142.30 C 140.66 142.40 141.63 141.59 141.73 140.48 L 141.82 139.50 C 141.92 138.39 141.11 137.42 140.00 137.32 C 138.90 137.22 137.92 138.03 137.82 139.14 Z M 137.73 140.08 L 137.62 141.08 C 137.50 142.19 138.30 143.18 139.41 143.30 C 140.51 143.42 141.50 142.62 141.62 141.52 L 141.73 140.52 C 141.85 139.42 141.06 138.42 139.95 138.30 C 138.85 138.18 137.85 138.98 137.73 140.08 Z M 137.63 141.05 L 137.50 142.05 C 137.36 143.16 138.14 144.16 139.25 144.30 C 140.35 144.44 141.36 143.66 141.49 142.56 L 141.62 141.55 C 141.76 140.45 140.98 139.44 139.88 139.30 C 138.77 139.16 137.77 139.95 137.63 141.05 Z M 137.50 142.02 L 137.36 143.02 C 137.20 144.12 137.97 145.14 139.07 145.30 C 140.17 145.45 141.19 144.69 141.35 143.59 L 141.49 142.59 C 141.65 141.49 140.88 140.47 139.78 140.31 C 138.68 140.16 137.66 140.92 137.50 142.02 Z M 137.36 142.99 L 137.21 143.97 C 137.04 145.07 137.79 146.11 138.89 146.28 C 139.99 146.45 141.02 145.70 141.19 144.60 L 141.35 143.62 C 141.52 142.52 140.77 141.49 139.67 141.31 C 138.57 141.14 137.54 141.89 137.36 142.99 Z M 137.21 143.94 L 137.04 144.93 C 136.85 146.03 137.59 147.07 138.69 147.26 C 139.78 147.45 140.83 146.72 141.02 145.62 L 141.19 144.63 C 141.38 143.53 140.64 142.49 139.54 142.30 C 138.45 142.11 137.40 142.85 137.21 143.94 Z M 137.05 144.90 L 136.86 145.89 C 136.66 146.98 137.38 148.04 138.47 148.24 C 139.57 148.45 140.62 147.73 140.83 146.63 L 141.01 145.65 C 141.22 144.55 140.50 143.50 139.40 143.29 C 138.31 143.09 137.25 143.81 137.05 144.90 Z M 136.87 145.86 L 136.67 146.84 C 136.44 147.93 137.15 149.00 138.24 149.22 C 139.34 149.44 140.40 148.74 140.62 147.64 L 140.82 146.66 C 141.04 145.57 140.34 144.50 139.25 144.28 C 138.15 144.06 137.09 144.77 136.87 145.86 Z M 136.67 146.81 L 136.46 147.80 C 136.22 148.89 136.91 149.96 138.00 150.20 C 139.09 150.44 140.17 149.75 140.40 148.66 L 140.62 147.67 C 140.86 146.58 140.16 145.51 139.07 145.27 C 137.98 145.03 136.91 145.72 136.67 146.81 Z M 136.46 147.77 L 136.23 148.75 C 135.98 149.84 136.66 150.92 137.75 151.17 C 138.84 151.43 139.92 150.75 140.17 149.66 L 140.40 148.68 C 140.65 147.59 139.97 146.51 138.89 146.26 C 137.80 146.00 136.71 146.68 136.46 147.77 Z M 136.24 148.73 L 136.00 149.70 C 135.74 150.78 136.40 151.88 137.49 152.14 C 138.58 152.41 139.67 151.74 139.94 150.65 L 140.17 149.68 C 140.44 148.60 139.77 147.50 138.68 147.24 C 137.60 146.97 136.50 147.64 136.24 148.73 Z M 136.00 149.68 L 135.76 150.64 C 135.48 151.73 136.14 152.83 137.23 153.10 C 138.31 153.38 139.41 152.72 139.69 151.64 L 139.93 150.67 C 140.21 149.59 139.55 148.49 138.47 148.21 C 137.38 147.94 136.28 148.59 136.00 149.68 Z M 135.76 150.62 L 135.51 151.59 C 135.22 152.68 135.87 153.79 136.95 154.07 C 138.04 154.36 139.15 153.71 139.43 152.62 L 139.69 151.65 C 139.97 150.57 139.32 149.46 138.24 149.18 C 137.16 148.89 136.05 149.54 135.76 150.62 Z M 135.51 151.58 L 135.25 152.54 C 134.95 153.63 135.59 154.74 136.67 155.04 C 137.75 155.33 138.87 154.69 139.16 153.61 L 139.43 152.64 C 139.72 151.56 139.08 150.45 138.00 150.15 C 136.92 149.86 135.81 150.49 135.51 151.58 Z M 135.25 152.52 L 134.98 153.48 C 134.67 154.56 135.30 155.68 136.37 155.99 C 137.45 156.30 138.58 155.67 138.88 154.60 L 139.16 153.64 C 139.46 152.56 138.84 151.43 137.76 151.13 C 136.68 150.82 135.56 151.44 135.25 152.52 Z M 134.99 153.46 L 134.70 154.41 C 134.38 155.48 134.99 156.61 136.06 156.94 C 137.14 157.26 138.27 156.65 138.59 155.57 L 138.88 154.62 C 139.20 153.55 138.59 152.42 137.51 152.09 C 136.44 151.77 135.31 152.38 134.99 153.46 Z M 134.71 154.38 L 134.41 155.32 C 134.07 156.39 134.66 157.53 135.73 157.87 C 136.80 158.21 137.95 157.62 138.28 156.55 L 138.58 155.60 C 138.92 154.53 138.33 153.39 137.26 153.05 C 136.19 152.72 135.05 153.31 134.71 154.38 Z M 134.42 155.29 L 134.11 156.23 C 133.75 157.30 134.33 158.45 135.39 158.80 C 136.46 159.16 137.61 158.58 137.96 157.52 L 138.28 156.58 C 138.63 155.51 138.05 154.36 136.99 154.01 C 135.92 153.65 134.77 154.23 134.42 155.29 Z M 134.11 156.21 L 133.79 157.15 C 133.42 158.22 133.99 159.37 135.05 159.74 C 136.11 160.11 137.27 159.54 137.63 158.48 L 137.96 157.54 C 138.32 156.48 137.76 155.32 136.70 154.95 C 135.63 154.59 134.48 155.15 134.11 156.21 Z M 133.79 157.14 L 133.46 158.09 C 133.08 159.15 133.64 160.31 134.70 160.68 C 135.76 161.06 136.92 160.50 137.30 159.44 L 137.63 158.49 C 138.00 157.43 137.45 156.27 136.39 155.90 C 135.33 155.52 134.16 156.08 133.79 157.14 Z M 133.46 158.08 L 133.12 159.04 C 132.74 160.10 133.29 161.26 134.35 161.64 C 135.41 162.02 136.58 161.46 136.95 160.40 L 137.30 159.45 C 137.67 158.39 137.12 157.22 136.06 156.84 C 135.00 156.47 133.83 157.02 133.46 158.08 Z M 133.12 159.04 L 132.77 159.99 C 132.40 161.05 132.95 162.22 134.01 162.60 C 135.07 162.98 136.24 162.42 136.61 161.36 L 136.96 160.41 C 137.33 159.35 136.78 158.18 135.72 157.80 C 134.66 157.42 133.49 157.98 133.12 159.04 Z M 132.78 159.99 L 132.43 160.94 C 132.05 162.00 132.60 163.17 133.66 163.55 C 134.72 163.93 135.89 163.38 136.27 162.32 L 136.61 161.37 C 136.99 160.31 136.45 159.14 135.39 158.76 C 134.33 158.38 133.16 158.93 132.78 159.99 Z M 132.43 160.93 L 132.09 161.87 C 131.70 162.93 132.25 164.10 133.30 164.49 C 134.36 164.88 135.53 164.33 135.92 163.28 L 136.27 162.34 C 136.65 161.28 136.11 160.10 135.05 159.72 C 133.99 159.33 132.82 159.87 132.43 160.93 Z M 132.10 161.86 L 131.75 162.77 C 131.36 163.82 131.89 165.00 132.94 165.40 C 134.00 165.79 135.18 165.26 135.57 164.20 L 135.92 163.29 C 136.31 162.24 135.78 161.06 134.72 160.66 C 133.67 160.27 132.49 160.80 132.10 161.86 Z M 131.76 162.74 L 131.38 163.71 C 130.97 164.76 131.49 165.95 132.54 166.36 C 133.59 166.77 134.78 166.25 135.19 165.20 L 135.56 164.23 C 135.97 163.18 135.46 161.99 134.41 161.58 C 133.36 161.17 132.17 161.69 131.76 162.74 Z M 131.39 163.69 L 131.01 164.63 C 130.59 165.68 131.09 166.87 132.13 167.29 C 133.18 167.71 134.37 167.21 134.79 166.17 L 135.17 165.22 C 135.60 164.18 135.10 162.99 134.05 162.57 C 133.01 162.14 131.82 162.64 131.39 163.69 Z M 131.02 164.61 L 130.64 165.51 C 130.21 166.55 130.69 167.75 131.73 168.18 C 132.77 168.62 133.97 168.13 134.40 167.09 L 134.78 166.19 C 135.22 165.15 134.73 163.95 133.69 163.52 C 132.65 163.08 131.46 163.57 131.02 164.61 Z M 130.65 165.49 L 130.27 166.37 C 129.83 167.41 130.30 168.60 131.34 169.05 C 132.37 169.50 133.57 169.02 134.02 167.99 L 134.39 167.11 C 134.84 166.07 134.36 164.87 133.33 164.43 C 132.30 163.98 131.10 164.46 130.65 165.49 Z M 130.28 166.36 L 129.86 167.30 C 129.41 168.33 129.88 169.53 130.91 169.99 C 131.94 170.44 133.14 169.97 133.59 168.94 L 134.01 168.00 C 134.46 166.97 133.99 165.77 132.96 165.31 C 131.93 164.86 130.73 165.33 130.28 166.36 Z M 129.87 167.29 L 129.46 168.21 C 129.00 169.23 129.46 170.44 130.49 170.90 C 131.51 171.36 132.72 170.90 133.18 169.87 L 133.59 168.95 C 134.05 167.93 133.59 166.72 132.56 166.26 C 131.54 165.81 130.33 166.26 129.87 167.29 Z M 129.47 168.20 L 129.06 169.08 C 128.60 170.11 129.05 171.31 130.07 171.78 C 131.09 172.24 132.29 171.79 132.76 170.77 L 133.17 169.88 C 133.63 168.86 133.18 167.66 132.16 167.19 C 131.14 166.72 129.94 167.17 129.47 168.20 Z M 129.07 169.07 L 128.67 169.94 C 128.20 170.95 128.64 172.16 129.65 172.63 C 130.67 173.11 131.88 172.67 132.35 171.65 L 132.75 170.79 C 133.22 169.77 132.78 168.56 131.77 168.09 C 130.75 167.62 129.55 168.06 129.07 169.07 Z M 128.69 169.92 L 128.27 170.78 C 127.79 171.79 128.21 173.00 129.22 173.48 C 130.23 173.96 131.44 173.54 131.92 172.53 L 132.33 171.67 C 132.82 170.66 132.39 169.45 131.38 168.97 C 130.38 168.49 129.17 168.91 128.69 169.92 Z M 128.29 170.75 L 127.84 171.65 C 127.34 172.65 127.75 173.86 128.74 174.36 C 129.74 174.86 130.95 174.45 131.45 173.46 L 131.90 172.56 C 132.40 171.56 131.99 170.35 131.00 169.85 C 130.00 169.35 128.79 169.76 128.29 170.75 Z M 127.87 171.62 L 127.38 172.56 C 126.86 173.54 127.24 174.75 128.23 175.27 C 129.21 175.78 130.42 175.40 130.94 174.42 L 131.42 173.49 C 131.94 172.50 131.56 171.29 130.58 170.78 C 129.59 170.26 128.38 170.64 127.87 171.62 Z M 127.40 172.53 L 126.93 173.40 C 126.40 174.37 126.75 175.58 127.72 176.11 C 128.69 176.64 129.91 176.28 130.44 175.31 L 130.91 174.45 C 131.44 173.48 131.09 172.26 130.12 171.73 C 129.15 171.20 127.93 171.56 127.40 172.53 Z M 126.95 173.36 L 126.44 174.25 C 125.90 175.21 126.23 176.43 127.18 176.97 C 128.14 177.52 129.35 177.19 129.90 176.24 L 130.41 175.35 C 130.96 174.39 130.63 173.17 129.68 172.63 C 128.72 172.08 127.50 172.41 126.95 173.36 Z M 126.48 174.21 L 125.95 175.08 C 125.37 176.02 125.67 177.24 126.60 177.81 C 127.54 178.38 128.76 178.09 129.33 177.15 L 129.87 176.28 C 130.44 175.35 130.15 174.12 129.21 173.55 C 128.27 172.98 127.05 173.27 126.48 174.21 Z M 126.00 175.02 L 125.43 175.87 C 124.82 176.77 125.07 178.00 125.98 178.61 C 126.88 179.21 128.11 178.97 128.72 178.06 L 129.28 177.21 C 129.89 176.31 129.65 175.08 128.74 174.47 C 127.83 173.87 126.60 174.11 126.00 175.02 Z M 125.54 175.76 L 124.77 176.75 C 124.11 177.59 124.26 178.82 125.10 179.48 C 125.95 180.14 127.17 180.00 127.84 179.15 L 128.61 178.16 C 129.27 177.32 129.12 176.09 128.28 175.43 C 127.43 174.77 126.21 174.92 125.54 175.76 Z M 125.02 176.55 L 124.32 177.19 C 123.55 177.90 123.50 179.10 124.21 179.87 C 124.92 180.65 126.12 180.70 126.89 179.99 L 127.59 179.35 C 128.36 178.64 128.41 177.43 127.70 176.66 C 126.99 175.89 125.79 175.84 125.02 176.55 Z M 125.16 176.80 L 124.51 176.96 C 123.52 177.21 122.92 178.21 123.17 179.20 C 123.42 180.19 124.42 180.79 125.41 180.54 L 126.05 180.38 C 127.04 180.13 127.64 179.13 127.39 178.14 C 127.15 177.15 126.14 176.55 125.16 176.80 Z M 126.28 177.60 L 125.68 176.92 C 125.05 176.19 123.94 176.11 123.22 176.74 C 122.49 177.38 122.41 178.48 123.04 179.21 L 123.64 179.90 C 124.27 180.63 125.38 180.70 126.11 180.07 C 126.83 179.44 126.91 178.33 126.28 177.60 Z M 125.87 177.39 L 125.63 176.84 C 125.26 176.01 124.28 175.63 123.44 176.00 C 122.61 176.38 122.23 177.36 122.61 178.19 L 122.85 178.74 C 123.22 179.57 124.20 179.95 125.04 179.58 C 125.87 179.20 126.25 178.22 125.87 177.39 Z"
      fill="black"
      fill-rule="nonzero" /><path d="M 136.61 160.17 L 137.68 160.07 C 138.67 159.97 139.40 159.09 139.30 158.10 C 139.21 157.11 138.32 156.38 137.33 156.48 L 136.26 156.58 C 135.27 156.68 134.54 157.56 134.64 158.55 C 134.74 159.54 135.62 160.27 136.61 160.17 Z M 137.60 160.18 L 138.63 160.13 C 139.69 160.08 140.50 159.18 140.44 158.13 C 140.39 157.07 139.50 156.26 138.44 156.32 L 137.41 156.37 C 136.36 156.42 135.55 157.32 135.60 158.37 C 135.65 159.42 136.55 160.23 137.60 160.18 Z M 138.42 160.24 L 139.36 160.29 C 140.47 160.35 141.42 159.51 141.49 158.39 C 141.55 157.28 140.70 156.33 139.59 156.26 L 138.65 156.21 C 137.54 156.15 136.59 157.00 136.52 158.11 C 136.46 159.22 137.31 160.17 138.42 160.24 Z M 138.91 160.30 L 139.84 160.56 C 140.96 160.88 142.12 160.23 142.43 159.11 C 142.75 158.00 142.10 156.84 140.98 156.52 L 140.05 156.26 C 138.93 155.94 137.77 156.59 137.46 157.71 C 137.14 158.82 137.79 159.98 138.91 160.30 Z M 139.26 160.34 L 140.09 160.87 C 141.09 161.51 142.41 161.22 143.04 160.22 C 143.68 159.23 143.39 157.91 142.40 157.27 L 141.56 156.74 C 140.57 156.10 139.25 156.40 138.61 157.39 C 137.98 158.39 138.27 159.71 139.26 160.34 Z M 139.71 160.59 L 140.39 161.28 C 141.23 162.13 142.60 162.14 143.45 161.30 C 144.29 160.46 144.30 159.10 143.46 158.25 L 142.78 157.56 C 141.94 156.71 140.57 156.70 139.73 157.54 C 138.88 158.38 138.87 159.74 139.71 160.59 Z M 140.22 161.10 L 140.81 161.86 C 141.55 162.81 142.92 162.97 143.86 162.23 C 144.80 161.49 144.97 160.13 144.23 159.19 L 143.64 158.43 C 142.90 157.48 141.53 157.32 140.59 158.06 C 139.65 158.80 139.48 160.16 140.22 161.10 Z M 140.72 161.74 L 141.28 162.57 C 141.96 163.56 143.31 163.82 144.30 163.15 C 145.29 162.48 145.55 161.13 144.88 160.13 L 144.32 159.31 C 143.65 158.31 142.30 158.05 141.30 158.73 C 140.31 159.40 140.05 160.75 140.72 161.74 Z M 141.24 162.50 L 141.75 163.33 C 142.39 164.34 143.73 164.66 144.75 164.02 C 145.76 163.39 146.07 162.05 145.44 161.03 L 144.93 160.20 C 144.29 159.18 142.95 158.87 141.93 159.51 C 140.91 160.14 140.60 161.48 141.24 162.50 Z M 141.74 163.30 L 142.17 164.02 C 142.79 165.04 144.12 165.37 145.15 164.76 C 146.18 164.14 146.51 162.80 145.89 161.78 L 145.46 161.06 C 144.84 160.03 143.50 159.70 142.48 160.32 C 141.45 160.94 141.12 162.27 141.74 163.30 Z M 142.16 164.00 L 142.65 164.83 C 143.26 165.86 144.59 166.20 145.62 165.59 C 146.65 164.98 146.99 163.65 146.38 162.62 L 145.90 161.79 C 145.29 160.76 143.96 160.42 142.93 161.03 C 141.90 161.64 141.56 162.97 142.16 164.00 Z M 142.65 164.82 L 143.23 165.80 C 143.83 166.84 145.16 167.18 146.19 166.58 C 147.22 165.98 147.57 164.65 146.96 163.62 L 146.39 162.63 C 145.78 161.60 144.46 161.25 143.43 161.86 C 142.40 162.46 142.05 163.79 142.65 164.82 Z M 143.23 165.80 L 143.78 166.73 C 144.38 167.76 145.70 168.11 146.73 167.51 C 147.76 166.91 148.10 165.59 147.50 164.56 L 146.96 163.63 C 146.36 162.60 145.04 162.25 144.01 162.85 C 142.98 163.45 142.63 164.77 143.23 165.80 Z M 143.79 166.73 L 144.30 167.60 C 144.90 168.62 146.21 168.97 147.23 168.37 C 148.25 167.78 148.60 166.46 148.00 165.44 L 147.49 164.57 C 146.90 163.54 145.58 163.20 144.56 163.80 C 143.54 164.39 143.19 165.71 143.79 166.73 Z M 144.32 167.60 L 144.85 168.51 C 145.44 169.52 146.75 169.86 147.76 169.27 C 148.78 168.67 149.12 167.37 148.52 166.35 L 147.99 165.44 C 147.39 164.43 146.09 164.09 145.07 164.69 C 144.06 165.28 143.72 166.59 144.32 167.60 Z M 144.87 168.51 L 145.40 169.41 C 146.00 170.42 147.29 170.75 148.30 170.15 C 149.30 169.56 149.63 168.26 149.04 167.26 L 148.50 166.35 C 147.91 165.35 146.61 165.02 145.61 165.61 C 144.60 166.21 144.27 167.50 144.87 168.51 Z M 145.42 169.42 L 145.93 170.27 C 146.53 171.27 147.82 171.59 148.82 170.99 C 149.81 170.39 150.13 169.10 149.53 168.11 L 149.02 167.25 C 148.42 166.26 147.13 165.94 146.14 166.53 C 145.15 167.13 144.82 168.42 145.42 169.42 Z M 145.96 170.28 L 146.48 171.11 C 147.08 172.09 148.36 172.39 149.33 171.79 C 150.31 171.19 150.62 169.91 150.02 168.93 L 149.51 168.10 C 148.90 167.12 147.62 166.82 146.65 167.42 C 145.67 168.02 145.36 169.30 145.96 170.28 Z M 146.56 171.12 L 147.23 172.15 C 147.83 173.08 149.08 173.34 150.01 172.74 C 150.94 172.14 151.21 170.89 150.60 169.96 L 149.93 168.93 C 149.33 168.00 148.08 167.73 147.15 168.34 C 146.22 168.94 145.96 170.18 146.56 171.12 Z M 147.37 172.16 L 147.92 172.93 C 148.53 173.78 149.72 173.98 150.57 173.37 C 151.43 172.76 151.62 171.57 151.01 170.72 L 150.46 169.95 C 149.85 169.10 148.66 168.90 147.81 169.51 C 146.96 170.12 146.76 171.31 147.37 172.16 Z M 148.08 172.96 L 148.58 173.56 C 149.21 174.33 150.33 174.44 151.10 173.82 C 151.86 173.19 151.97 172.06 151.35 171.30 L 150.85 170.69 C 150.23 169.93 149.10 169.82 148.33 170.44 C 147.57 171.07 147.46 172.19 148.08 172.96 Z M 148.74 173.60 L 149.43 174.33 C 150.08 175.01 151.15 175.03 151.83 174.39 C 152.51 173.74 152.53 172.66 151.89 171.99 L 151.19 171.26 C 150.54 170.58 149.47 170.56 148.79 171.20 C 148.11 171.85 148.09 172.93 148.74 173.60 Z M 149.55 174.35 L 150.27 175.02 C 150.93 175.63 151.96 175.60 152.57 174.94 C 153.19 174.28 153.15 173.24 152.49 172.63 L 151.77 171.96 C 151.11 171.35 150.08 171.39 149.46 172.05 C 148.85 172.71 148.89 173.74 149.55 174.35 Z M 150.32 175.01 L 150.53 175.20 C 151.18 175.78 152.19 175.73 152.77 175.08 C 153.36 174.42 153.30 173.42 152.65 172.84 L 152.44 172.65 C 151.79 172.06 150.78 172.12 150.20 172.77 C 149.61 173.42 149.67 174.42 150.32 175.01 Z"
      fill="black"
      fill-rule="nonzero" /><path d="M 157.66 118.64 L 158.58 118.39 C 159.55 118.13 160.12 117.13 159.86 116.17 C 159.60 115.20 158.61 114.63 157.64 114.89 L 156.72 115.14 C 155.75 115.40 155.18 116.39 155.44 117.36 C 155.70 118.32 156.69 118.89 157.66 118.64 Z M 158.66 118.32 L 159.62 118.01 C 160.55 117.71 161.06 116.71 160.76 115.78 C 160.45 114.85 159.45 114.34 158.52 114.64 L 157.56 114.96 C 156.63 115.26 156.13 116.26 156.43 117.19 C 156.73 118.12 157.73 118.63 158.66 118.32 Z M 159.75 117.93 L 160.68 117.54 C 161.57 117.17 161.98 116.15 161.61 115.26 C 161.24 114.38 160.22 113.96 159.33 114.33 L 158.40 114.72 C 157.51 115.09 157.09 116.11 157.47 117.00 C 157.84 117.89 158.86 118.30 159.75 117.93 Z M 160.76 117.49 L 161.67 117.05 C 162.53 116.64 162.89 115.60 162.48 114.74 C 162.06 113.88 161.02 113.52 160.16 113.94 L 159.25 114.38 C 158.39 114.79 158.03 115.83 158.45 116.69 C 158.86 117.55 159.90 117.91 160.76 117.49 Z M 161.69 117.04 L 162.59 116.59 C 163.45 116.16 163.79 115.12 163.36 114.27 C 162.94 113.42 161.90 113.07 161.04 113.50 L 160.14 113.95 C 159.29 114.38 158.94 115.42 159.37 116.27 C 159.80 117.12 160.84 117.47 161.69 117.04 Z M 162.55 116.60 L 163.49 116.16 C 164.35 115.75 164.72 114.73 164.31 113.87 C 163.91 113.01 162.88 112.64 162.02 113.04 L 161.08 113.49 C 160.22 113.89 159.85 114.92 160.26 115.78 C 160.67 116.64 161.69 117.01 162.55 116.60 Z M 163.39 116.19 L 164.31 115.82 C 165.18 115.47 165.61 114.47 165.26 113.59 C 164.90 112.72 163.91 112.29 163.03 112.64 L 162.12 113.01 C 161.24 113.37 160.81 114.36 161.17 115.24 C 161.52 116.12 162.52 116.54 163.39 116.19 Z M 164.16 115.87 L 165.13 115.58 C 166.03 115.31 166.54 114.36 166.27 113.45 C 166.00 112.55 165.05 112.04 164.15 112.31 L 163.18 112.60 C 162.28 112.87 161.76 113.82 162.03 114.72 C 162.30 115.63 163.25 116.14 164.16 115.87 Z M 164.76 115.65 L 165.77 115.58 C 166.71 115.51 167.42 114.69 167.36 113.75 C 167.29 112.80 166.47 112.09 165.52 112.16 L 164.52 112.23 C 163.57 112.30 162.86 113.12 162.93 114.07 C 163.00 115.01 163.82 115.72 164.76 115.65 Z M 164.80 115.38 L 165.53 115.79 C 166.37 116.26 167.42 115.96 167.89 115.13 C 168.36 114.29 168.06 113.24 167.23 112.77 L 166.49 112.36 C 165.66 111.89 164.60 112.19 164.13 113.02 C 163.67 113.86 163.96 114.91 164.80 115.38 Z M 164.80 115.04 L 165.16 115.79 C 165.58 116.66 166.63 117.03 167.50 116.61 C 168.38 116.19 168.74 115.14 168.32 114.26 L 167.96 113.52 C 167.54 112.64 166.49 112.28 165.61 112.70 C 164.74 113.12 164.37 114.17 164.80 115.04 Z M 164.99 115.38 L 165.20 116.42 C 165.39 117.39 166.33 118.02 167.30 117.82 C 168.27 117.63 168.89 116.69 168.70 115.72 L 168.49 114.67 C 168.30 113.71 167.35 113.08 166.39 113.27 C 165.42 113.47 164.79 114.41 164.99 115.38 Z M 165.14 116.23 L 165.24 117.37 C 165.34 118.37 166.22 119.11 167.22 119.02 C 168.21 118.93 168.95 118.04 168.86 117.05 L 168.76 115.91 C 168.67 114.91 167.78 114.17 166.79 114.26 C 165.79 114.35 165.05 115.24 165.14 116.23 Z M 165.22 117.29 L 165.26 118.27 C 165.30 119.29 166.16 120.07 167.17 120.03 C 168.18 119.99 168.97 119.13 168.93 118.12 L 168.88 117.13 C 168.84 116.12 167.99 115.33 166.97 115.38 C 165.96 115.42 165.18 116.27 165.22 117.29 Z M 165.24 118.21 L 165.25 119.23 C 165.26 120.25 166.10 121.07 167.12 121.06 C 168.14 121.06 168.96 120.22 168.95 119.20 L 168.94 118.18 C 168.93 117.16 168.10 116.34 167.08 116.35 C 166.06 116.35 165.23 117.19 165.24 118.21 Z M 165.24 119.17 L 165.21 120.19 C 165.19 121.22 166.01 122.07 167.04 122.10 C 168.07 122.12 168.92 121.30 168.94 120.27 L 168.97 119.26 C 168.99 118.23 168.17 117.37 167.14 117.35 C 166.11 117.33 165.26 118.14 165.24 119.17 Z M 165.20 120.13 L 165.15 121.14 C 165.09 122.18 165.88 123.06 166.92 123.12 C 167.96 123.18 168.85 122.38 168.90 121.34 L 168.96 120.33 C 169.01 119.29 168.22 118.41 167.18 118.35 C 166.14 118.30 165.26 119.09 165.20 120.13 Z M 165.14 121.08 L 165.05 122.10 C 164.96 123.14 165.73 124.06 166.77 124.15 C 167.81 124.24 168.73 123.47 168.82 122.43 L 168.91 121.41 C 169.00 120.37 168.23 119.45 167.19 119.36 C 166.15 119.26 165.23 120.03 165.14 121.08 Z M 165.04 122.04 L 164.93 123.02 C 164.80 124.07 165.55 125.01 166.60 125.14 C 167.64 125.26 168.59 124.51 168.71 123.47 L 168.83 122.49 C 168.95 121.44 168.20 120.49 167.16 120.37 C 166.11 120.25 165.16 120.99 165.04 122.04 Z M 164.92 122.98 L 164.78 123.95 C 164.64 125.00 165.37 125.96 166.42 126.11 C 167.47 126.25 168.44 125.52 168.58 124.47 L 168.72 123.51 C 168.86 122.46 168.13 121.49 167.08 121.34 C 166.03 121.20 165.06 121.93 164.92 122.98 Z M 164.77 123.93 L 164.63 124.89 C 164.47 125.95 165.20 126.93 166.26 127.09 C 167.31 127.24 168.29 126.52 168.45 125.46 L 168.59 124.49 C 168.75 123.44 168.02 122.46 166.97 122.30 C 165.91 122.14 164.93 122.87 164.77 123.93 Z M 164.62 124.88 L 164.47 125.86 C 164.30 126.92 165.03 127.91 166.09 128.08 C 167.15 128.24 168.15 127.51 168.31 126.45 L 168.46 125.47 C 168.63 124.41 167.90 123.42 166.84 123.25 C 165.78 123.09 164.78 123.82 164.62 124.88 Z M 164.45 125.85 L 164.30 126.84 C 164.12 127.91 164.85 128.91 165.92 129.08 C 166.99 129.25 167.99 128.53 168.17 127.46 L 168.32 126.47 C 168.50 125.40 167.77 124.39 166.70 124.22 C 165.63 124.05 164.63 124.78 164.45 125.85 Z M 164.28 126.83 L 164.12 127.83 C 163.94 128.91 164.67 129.92 165.74 130.10 C 166.82 130.28 167.83 129.55 168.01 128.47 L 168.18 127.47 C 168.36 126.39 167.63 125.38 166.55 125.20 C 165.48 125.02 164.46 125.75 164.28 126.83 Z M 164.11 127.82 L 163.94 128.80 C 163.76 129.88 164.49 130.91 165.57 131.09 C 166.65 131.27 167.67 130.54 167.85 129.46 L 168.02 128.48 C 168.20 127.40 167.47 126.38 166.39 126.20 C 165.32 126.02 164.29 126.74 164.11 127.82 Z M 163.94 128.80 L 163.77 129.79 C 163.59 130.87 164.32 131.89 165.40 132.08 C 166.48 132.26 167.50 131.54 167.69 130.45 L 167.86 129.47 C 168.04 128.39 167.31 127.36 166.23 127.18 C 165.15 126.99 164.13 127.72 163.94 128.80 Z M 163.77 129.79 L 163.60 130.78 C 163.42 131.86 164.15 132.89 165.23 133.07 C 166.31 133.26 167.34 132.53 167.52 131.44 L 167.69 130.45 C 167.88 129.37 167.15 128.34 166.06 128.16 C 164.98 127.98 163.95 128.70 163.77 129.79 Z M 163.60 130.78 L 163.43 131.78 C 163.25 132.87 163.98 133.89 165.07 134.07 C 166.16 134.26 167.18 133.52 167.36 132.44 L 167.53 131.44 C 167.71 130.35 166.98 129.32 165.89 129.14 C 164.80 128.96 163.78 129.70 163.60 130.78 Z M 163.42 131.78 L 163.26 132.80 C 163.08 133.89 163.82 134.92 164.91 135.10 C 166.00 135.28 167.03 134.54 167.20 133.45 L 167.37 132.43 C 167.55 131.34 166.81 130.31 165.72 130.13 C 164.63 129.96 163.60 130.69 163.42 131.78 Z M 163.25 132.79 L 163.08 133.79 C 162.90 134.88 163.64 135.92 164.73 136.10 C 165.82 136.28 166.86 135.55 167.04 134.45 L 167.21 133.46 C 167.40 132.36 166.66 131.33 165.56 131.14 C 164.47 130.96 163.43 131.70 163.25 132.79 Z M 163.08 133.76 L 162.90 134.72 C 162.71 135.81 163.43 136.86 164.53 137.06 C 165.63 137.26 166.68 136.53 166.88 135.43 L 167.05 134.48 C 167.25 133.38 166.52 132.33 165.42 132.13 C 164.33 131.94 163.28 132.66 163.08 133.76 Z M 162.91 134.67 L 162.70 135.68 C 162.48 136.78 163.18 137.85 164.28 138.07 C 165.38 138.29 166.45 137.59 166.67 136.49 L 166.88 135.48 C 167.10 134.38 166.39 133.31 165.30 133.09 C 164.20 132.87 163.13 133.57 162.91 134.67 Z M 162.70 135.63 L 162.47 136.63 C 162.22 137.72 162.90 138.81 164.00 139.07 C 165.09 139.32 166.18 138.64 166.43 137.54 L 166.67 136.54 C 166.92 135.45 166.24 134.36 165.14 134.10 C 164.05 133.85 162.96 134.53 162.70 135.63 Z M 162.48 136.59 L 162.24 137.52 C 161.96 138.61 162.63 139.72 163.72 139.99 C 164.81 140.27 165.92 139.61 166.20 138.51 L 166.43 137.58 C 166.71 136.49 166.04 135.38 164.95 135.11 C 163.86 134.83 162.75 135.49 162.48 136.59 Z M 162.24 137.49 L 161.99 138.44 C 161.70 139.53 162.34 140.65 163.44 140.95 C 164.53 141.24 165.65 140.59 165.94 139.50 L 166.19 138.54 C 166.49 137.45 165.84 136.33 164.75 136.04 C 163.65 135.75 162.53 136.40 162.24 137.49 Z M 161.99 138.39 L 161.72 139.35 C 161.40 140.44 162.02 141.58 163.11 141.90 C 164.20 142.21 165.34 141.59 165.65 140.50 L 165.93 139.54 C 166.25 138.46 165.63 137.32 164.54 137.00 C 163.45 136.68 162.31 137.31 161.99 138.39 Z M 161.74 139.26 L 161.42 140.18 C 161.05 141.25 161.62 142.42 162.69 142.79 C 163.77 143.16 164.94 142.59 165.31 141.52 L 165.63 140.60 C 166.00 139.52 165.43 138.35 164.35 137.98 C 163.28 137.61 162.11 138.18 161.74 139.26 Z M 161.48 140.03 L 161.07 140.97 C 160.61 142.01 161.09 143.23 162.13 143.68 C 163.18 144.13 164.39 143.66 164.84 142.61 L 165.25 141.67 C 165.71 140.63 165.23 139.42 164.19 138.96 C 163.14 138.51 161.93 138.99 161.48 140.03 Z M 161.21 140.70 L 160.68 141.55 C 160.08 142.51 160.38 143.78 161.34 144.38 C 162.31 144.98 163.57 144.69 164.18 143.72 L 164.70 142.88 C 165.30 141.92 165.01 140.65 164.04 140.05 C 163.08 139.44 161.81 139.74 161.21 140.70 Z M 161.04 141.12 L 160.27 141.82 C 159.44 142.59 159.38 143.89 160.15 144.73 C 160.91 145.56 162.21 145.62 163.05 144.85 L 163.82 144.15 C 164.66 143.38 164.71 142.08 163.94 141.25 C 163.18 140.41 161.88 140.35 161.04 141.12 Z M 161.03 141.39 L 160.10 141.70 C 159.02 142.04 158.43 143.20 158.78 144.27 C 159.13 145.35 160.29 145.94 161.36 145.59 L 162.29 145.29 C 163.37 144.94 163.96 143.78 163.61 142.71 C 163.26 141.63 162.10 141.04 161.03 141.39 Z M 161.63 141.85 L 160.93 141.50 C 159.94 141.00 158.74 141.40 158.24 142.39 C 157.74 143.38 158.14 144.58 159.13 145.08 L 159.83 145.43 C 160.82 145.93 162.02 145.53 162.52 144.54 C 163.02 143.56 162.62 142.35 161.63 141.85 Z M 161.75 142.49 L 161.34 141.60 C 160.90 140.65 159.77 140.24 158.82 140.68 C 157.87 141.12 157.46 142.25 157.90 143.20 L 158.31 144.09 C 158.75 145.04 159.88 145.45 160.83 145.01 C 161.78 144.57 162.19 143.44 161.75 142.49 Z M 161.37 142.05 L 161.14 140.96 C 160.95 139.99 160.01 139.37 159.04 139.57 C 158.08 139.77 157.46 140.71 157.65 141.67 L 157.87 142.76 C 158.07 143.72 159.01 144.34 159.98 144.15 C 160.94 143.95 161.56 143.01 161.37 142.05 Z M 161.09 141.12 L 160.97 140.12 C 160.86 139.18 160.02 138.52 159.09 138.62 C 158.16 138.73 157.49 139.57 157.60 140.50 L 157.71 141.51 C 157.82 142.44 158.66 143.11 159.59 143.00 C 160.52 142.89 161.19 142.05 161.09 141.12 Z M 160.91 140.19 L 160.84 139.18 C 160.78 138.28 159.99 137.61 159.09 137.67 C 158.19 137.74 157.51 138.52 157.58 139.42 L 157.65 140.43 C 157.72 141.33 158.50 142.01 159.40 141.94 C 160.30 141.88 160.98 141.09 160.91 140.19 Z M 160.80 139.22 L 160.74 138.19 C 160.70 137.32 159.95 136.64 159.07 136.69 C 158.19 136.73 157.52 137.48 157.57 138.36 L 157.62 139.39 C 157.67 140.26 158.42 140.94 159.29 140.89 C 160.17 140.84 160.84 140.10 160.80 139.22 Z M 160.73 138.21 L 160.68 137.21 C 160.64 136.34 159.91 135.67 159.04 135.71 C 158.18 135.75 157.50 136.48 157.54 137.35 L 157.59 138.35 C 157.62 139.21 158.36 139.88 159.23 139.85 C 160.09 139.81 160.76 139.07 160.73 138.21 Z M 160.67 137.22 L 160.64 136.43 C 160.61 135.56 159.88 134.89 159.02 134.93 C 158.16 134.96 157.48 135.69 157.52 136.55 L 157.55 137.34 C 157.58 138.20 158.31 138.88 159.17 138.84 C 160.04 138.81 160.71 138.08 160.67 137.22 Z"
      fill="black"
      fill-rule="nonzero" /><path d="M 156.52 125.59 L 157.20 126.33 C 157.87 127.06 159.01 127.11 159.74 126.43 C 160.47 125.76 160.52 124.62 159.85 123.89 L 159.17 123.15 C 158.50 122.42 157.36 122.38 156.63 123.05 C 155.90 123.72 155.85 124.86 156.52 125.59 Z M 157.19 126.34 L 157.87 127.07 C 158.55 127.81 159.69 127.86 160.43 127.18 C 161.17 126.50 161.21 125.35 160.53 124.62 L 159.86 123.88 C 159.18 123.15 158.03 123.10 157.30 123.78 C 156.56 124.45 156.51 125.60 157.19 126.34 Z M 157.86 127.08 L 158.54 127.82 C 159.22 128.56 160.38 128.60 161.12 127.92 C 161.86 127.24 161.90 126.08 161.22 125.34 L 160.54 124.61 C 159.86 123.87 158.71 123.82 157.97 124.50 C 157.22 125.19 157.18 126.34 157.86 127.08 Z M 158.53 127.82 L 158.68 127.98 C 159.37 128.73 160.53 128.77 161.27 128.09 C 162.01 127.40 162.06 126.24 161.38 125.50 L 161.23 125.34 C 160.54 124.59 159.38 124.55 158.64 125.23 C 157.89 125.92 157.85 127.08 158.53 127.82 Z"
      fill="black"
      fill-rule="nonzero" /><path d="M 155.83 137.11 L 156.31 136.27 C 156.81 135.40 156.51 134.29 155.63 133.79 C 154.76 133.29 153.65 133.60 153.16 134.47 L 152.68 135.30 C 152.18 136.17 152.48 137.28 153.35 137.78 C 154.22 138.28 155.33 137.98 155.83 137.11 Z M 156.32 136.40 L 156.86 135.57 C 157.43 134.69 157.19 133.52 156.31 132.95 C 155.43 132.38 154.25 132.63 153.68 133.50 L 153.14 134.34 C 152.57 135.21 152.82 136.39 153.70 136.96 C 154.58 137.53 155.75 137.28 156.32 136.40 Z M 156.81 135.77 L 157.44 134.98 C 158.12 134.14 157.98 132.90 157.14 132.22 C 156.29 131.54 155.06 131.67 154.37 132.52 L 153.74 133.31 C 153.06 134.15 153.20 135.39 154.04 136.07 C 154.89 136.75 156.12 136.62 156.81 135.77 Z M 157.31 135.14 L 157.91 134.53 C 158.67 133.75 158.67 132.51 157.89 131.74 C 157.12 130.98 155.87 130.98 155.11 131.76 L 154.51 132.37 C 153.74 133.14 153.75 134.39 154.52 135.15 C 155.29 135.92 156.54 135.91 157.31 135.14 Z M 157.77 134.59 L 158.49 133.96 C 159.29 133.26 159.37 132.05 158.67 131.25 C 157.98 130.45 156.76 130.37 155.97 131.07 L 155.25 131.70 C 154.45 132.40 154.37 133.61 155.07 134.40 C 155.76 135.20 156.98 135.28 157.77 134.59 Z M 158.39 133.98 L 159.24 133.31 C 160.05 132.67 160.19 131.49 159.55 130.68 C 158.91 129.87 157.73 129.73 156.92 130.37 L 156.07 131.05 C 155.26 131.68 155.12 132.86 155.76 133.67 C 156.40 134.48 157.58 134.62 158.39 133.98 Z M 159.16 133.30 L 160.05 132.65 C 160.86 132.05 161.03 130.91 160.43 130.10 C 159.84 129.29 158.70 129.12 157.89 129.72 L 157.00 130.37 C 156.19 130.97 156.02 132.11 156.62 132.92 C 157.21 133.73 158.36 133.90 159.16 133.30 Z M 160.01 132.64 L 160.80 132.07 C 161.61 131.49 161.79 130.38 161.22 129.58 C 160.65 128.77 159.53 128.59 158.73 129.16 L 157.93 129.73 C 157.13 130.30 156.94 131.42 157.52 132.22 C 158.09 133.02 159.20 133.21 160.01 132.64 Z M 160.77 132.06 L 161.61 131.47 C 162.41 130.92 162.60 129.82 162.05 129.02 C 161.49 128.23 160.40 128.03 159.60 128.58 L 158.76 129.17 C 157.96 129.73 157.77 130.82 158.32 131.62 C 158.88 132.42 159.97 132.61 160.77 132.06 Z M 161.58 131.46 L 162.44 130.87 C 163.23 130.33 163.43 129.26 162.89 128.47 C 162.35 127.68 161.27 127.47 160.48 128.01 L 159.63 128.60 C 158.84 129.14 158.64 130.22 159.18 131.01 C 159.71 131.80 160.79 132.00 161.58 131.46 Z M 162.41 130.86 L 163.26 130.29 C 164.04 129.77 164.25 128.71 163.72 127.93 C 163.20 127.15 162.14 126.94 161.36 127.46 L 160.51 128.03 C 159.73 128.55 159.52 129.61 160.05 130.39 C 160.57 131.17 161.63 131.38 162.41 130.86 Z M 163.23 130.28 L 164.05 129.73 C 164.83 129.22 165.04 128.18 164.53 127.41 C 164.02 126.64 162.98 126.42 162.21 126.93 L 161.38 127.48 C 160.61 127.99 160.40 129.03 160.91 129.80 C 161.42 130.57 162.46 130.79 163.23 130.28 Z M 164.03 129.72 L 164.96 129.12 C 165.73 128.62 165.95 127.60 165.45 126.84 C 164.96 126.07 163.94 125.85 163.17 126.34 L 162.24 126.95 C 161.47 127.44 161.25 128.46 161.74 129.23 C 162.24 129.99 163.26 130.22 164.03 129.72 Z M 164.93 129.11 L 165.79 128.57 C 166.55 128.09 166.78 127.08 166.30 126.32 C 165.82 125.56 164.81 125.33 164.05 125.81 L 163.20 126.35 C 162.44 126.83 162.21 127.84 162.69 128.60 C 163.17 129.36 164.17 129.59 164.93 129.11 Z M 165.77 128.55 L 166.57 128.05 C 167.33 127.59 167.56 126.60 167.09 125.85 C 166.63 125.09 165.64 124.86 164.89 125.33 L 164.08 125.83 C 163.33 126.29 163.09 127.28 163.56 128.03 C 164.03 128.79 165.01 129.02 165.77 128.55 Z M 166.56 128.04 L 167.34 127.56 C 168.08 127.10 168.31 126.13 167.86 125.39 C 167.40 124.64 166.43 124.41 165.68 124.87 L 164.90 125.34 C 164.16 125.80 163.93 126.77 164.38 127.52 C 164.84 128.26 165.81 128.49 166.56 128.04 Z M 167.33 127.55 L 167.39 127.51 C 168.12 127.06 168.36 126.09 167.91 125.36 C 167.45 124.62 166.49 124.39 165.75 124.84 L 165.69 124.88 C 164.96 125.33 164.72 126.29 165.17 127.03 C 165.63 127.77 166.59 128.00 167.33 127.55 Z"
      fill="black"
      fill-rule="nonzero" /><path d="M 174.41 113.61 L 173.22 113.55 C 172.18 113.51 171.31 114.31 171.27 115.34 C 171.22 116.37 172.02 117.24 173.05 117.29 L 174.25 117.34 C 175.28 117.39 176.15 116.59 176.19 115.56 C 176.24 114.52 175.44 113.65 174.41 113.61 Z M 174.58 114.22 L 174.28 113.87 C 173.62 113.07 172.44 112.96 171.64 113.62 C 170.84 114.28 170.73 115.46 171.39 116.26 L 171.69 116.62 C 172.35 117.42 173.53 117.53 174.33 116.87 C 175.13 116.21 175.24 115.02 174.58 114.22 Z M 174.07 116.46 L 174.86 115.76 C 175.62 115.08 175.69 113.90 175.01 113.14 C 174.33 112.37 173.15 112.30 172.38 112.98 L 171.60 113.67 C 170.83 114.36 170.76 115.53 171.45 116.30 C 172.13 117.07 173.31 117.14 174.07 116.46 Z M 174.62 115.91 L 175.49 115.35 C 176.35 114.79 176.59 113.65 176.03 112.80 C 175.48 111.95 174.34 111.71 173.49 112.26 L 172.62 112.83 C 171.77 113.38 171.52 114.52 172.08 115.37 C 172.63 116.23 173.77 116.47 174.62 115.91 Z M 175.41 115.39 L 176.26 114.90 C 177.13 114.39 177.43 113.27 176.92 112.40 C 176.42 111.52 175.30 111.22 174.42 111.73 L 173.58 112.22 C 172.70 112.73 172.40 113.85 172.91 114.72 C 173.42 115.60 174.54 115.89 175.41 115.39 Z M 176.20 114.92 L 177.16 114.41 C 178.04 113.93 178.38 112.83 177.90 111.94 C 177.42 111.05 176.32 110.72 175.43 111.19 L 174.48 111.71 C 173.59 112.18 173.26 113.29 173.73 114.18 C 174.21 115.06 175.32 115.40 176.20 114.92 Z M 177.12 114.42 L 178.02 113.97 C 178.91 113.51 179.27 112.42 178.82 111.52 C 178.36 110.62 177.27 110.27 176.37 110.72 L 175.47 111.18 C 174.57 111.63 174.22 112.73 174.67 113.62 C 175.13 114.52 176.22 114.88 177.12 114.42 Z M 177.96 113.99 L 178.90 113.56 C 179.81 113.13 180.20 112.05 179.77 111.14 C 179.35 110.23 178.27 109.84 177.36 110.26 L 176.43 110.70 C 175.52 111.12 175.12 112.20 175.55 113.11 C 175.97 114.02 177.05 114.42 177.96 113.99 Z M 178.80 113.59 L 179.70 113.23 C 180.63 112.86 181.09 111.80 180.71 110.87 C 180.34 109.94 179.28 109.49 178.35 109.86 L 177.45 110.22 C 176.52 110.60 176.07 111.65 176.44 112.58 C 176.82 113.51 177.87 113.97 178.80 113.59 Z M 179.47 113.33 L 180.57 113.05 C 181.56 112.81 182.15 111.81 181.91 110.83 C 181.66 109.84 180.66 109.24 179.68 109.49 L 178.58 109.77 C 177.60 110.01 177.00 111.01 177.24 111.99 C 177.49 112.98 178.49 113.58 179.47 113.33 Z M 179.76 113.12 L 180.62 113.29 C 181.64 113.49 182.63 112.82 182.83 111.80 C 183.03 110.78 182.36 109.79 181.34 109.59 L 180.49 109.42 C 179.47 109.22 178.48 109.89 178.28 110.91 C 178.08 111.93 178.74 112.92 179.76 113.12 Z M 179.43 112.58 L 179.92 113.24 C 180.55 114.10 181.76 114.28 182.61 113.65 C 183.46 113.02 183.65 111.82 183.02 110.96 L 182.53 110.30 C 181.90 109.44 180.69 109.26 179.84 109.89 C 178.98 110.52 178.80 111.73 179.43 112.58 Z M 179.59 112.61 L 179.86 113.59 C 180.14 114.63 181.21 115.24 182.25 114.96 C 183.28 114.68 183.89 113.61 183.61 112.57 L 183.34 111.59 C 183.06 110.56 181.99 109.95 180.96 110.23 C 179.92 110.51 179.31 111.58 179.59 112.61 Z M 179.79 113.35 L 179.95 114.44 C 180.10 115.51 181.09 116.26 182.16 116.11 C 183.23 115.96 183.98 114.97 183.83 113.90 L 183.68 112.81 C 183.53 111.74 182.54 110.99 181.46 111.14 C 180.39 111.29 179.65 112.28 179.79 113.35 Z M 179.92 114.36 L 180.02 115.36 C 180.13 116.44 181.09 117.24 182.17 117.13 C 183.26 117.03 184.05 116.06 183.95 114.98 L 183.85 113.98 C 183.75 112.90 182.78 112.10 181.70 112.21 C 180.61 112.31 179.82 113.28 179.92 114.36 Z M 180.01 115.30 L 180.07 116.28 C 180.14 117.37 181.08 118.20 182.17 118.13 C 183.27 118.06 184.09 117.12 184.02 116.03 L 183.96 115.04 C 183.89 113.95 182.95 113.12 181.86 113.19 C 180.77 113.26 179.94 114.20 180.01 115.30 Z M 180.06 116.23 L 180.09 117.15 C 180.13 118.24 181.06 119.10 182.15 119.06 C 183.25 119.02 184.11 118.10 184.07 117.00 L 184.03 116.08 C 183.99 114.98 183.07 114.13 181.97 114.17 C 180.88 114.21 180.02 115.13 180.06 116.23 Z M 180.09 117.11 L 180.10 117.92 C 180.12 119.02 181.03 119.90 182.13 119.88 C 183.23 119.86 184.11 118.95 184.09 117.85 L 184.07 117.04 C 184.05 115.94 183.15 115.06 182.05 115.08 C 180.94 115.10 180.07 116.01 180.09 117.11 Z M 180.10 117.90 L 180.10 118.85 C 180.11 119.96 181.01 120.85 182.11 120.84 C 183.22 120.83 184.11 119.93 184.10 118.83 L 184.09 117.88 C 184.08 116.77 183.18 115.88 182.08 115.89 C 180.98 115.90 180.09 116.80 180.10 117.90 Z M 180.10 118.84 L 180.10 120.01 C 180.10 121.12 181.00 122.01 182.11 122.01 C 183.21 122.01 184.10 121.11 184.10 120.01 L 184.10 118.84 C 184.10 117.73 183.20 116.84 182.10 116.84 C 180.99 116.84 180.10 117.74 180.10 118.84 Z M 180.10 120.01 L 180.10 121.12 C 180.10 122.23 181.00 123.13 182.10 123.13 C 183.21 123.13 184.11 122.23 184.11 121.12 L 184.11 120.01 C 184.11 118.90 183.21 118.00 182.10 118.00 C 181.00 118.00 180.10 118.90 180.10 120.01 Z M 180.09 121.12 L 180.09 122.13 C 180.09 123.24 180.99 124.14 182.10 124.14 C 183.22 124.14 184.12 123.24 184.12 122.13 L 184.12 121.12 C 184.12 120.01 183.22 119.11 182.10 119.11 C 180.99 119.11 180.09 120.01 180.09 121.12 Z M 180.08 122.13 L 180.08 123.19 C 180.08 124.31 180.98 125.21 182.10 125.21 C 183.22 125.21 184.13 124.31 184.13 123.19 L 184.13 122.13 C 184.13 121.01 183.22 120.10 182.10 120.10 C 180.98 120.10 180.08 121.01 180.08 122.13 Z M 180.07 123.19 L 180.07 124.25 C 180.07 125.38 180.98 126.29 182.10 126.29 C 183.23 126.29 184.14 125.38 184.14 124.25 L 184.14 123.19 C 184.14 122.06 183.23 121.15 182.10 121.15 C 180.98 121.15 180.07 122.06 180.07 123.19 Z M 180.05 124.25 L 180.05 125.28 C 180.05 126.41 180.97 127.33 182.10 127.33 C 183.23 127.33 184.15 126.41 184.15 125.28 L 184.15 124.25 C 184.15 123.12 183.23 122.21 182.10 122.21 C 180.97 122.21 180.05 123.12 180.05 124.25 Z M 180.04 125.28 L 180.04 126.22 C 180.04 127.36 180.97 128.28 182.10 128.28 C 183.24 128.28 184.16 127.36 184.16 126.22 L 184.16 125.28 C 184.16 124.14 183.24 123.22 182.10 123.22 C 180.97 123.22 180.04 124.14 180.04 125.28 Z M 180.03 126.22 L 180.03 127.41 C 180.03 128.56 180.96 129.48 182.10 129.48 C 183.25 129.48 184.17 128.56 184.17 127.41 L 184.17 126.22 C 184.17 125.08 183.25 124.15 182.10 124.15 C 180.96 124.15 180.03 125.08 180.03 126.22 Z M 180.02 127.41 L 180.02 128.50 C 180.02 129.65 180.96 130.58 182.10 130.58 C 183.25 130.58 184.18 129.65 184.18 128.50 L 184.18 127.41 C 184.18 126.27 183.25 125.34 182.10 125.34 C 180.96 125.34 180.02 126.27 180.02 127.41 Z M 180.02 128.50 L 180.02 129.31 C 180.02 130.46 180.95 131.39 182.10 131.39 C 183.25 131.39 184.19 130.46 184.19 129.31 L 184.19 128.50 C 184.19 127.35 183.25 126.41 182.10 126.41 C 180.95 126.41 180.02 127.35 180.02 128.50 Z M 180.01 129.31 L 180.01 130.16 C 180.01 131.32 180.95 132.25 182.10 132.25 C 183.26 132.25 184.20 131.32 184.20 130.16 L 184.20 129.31 C 184.20 128.15 183.26 127.21 182.10 127.21 C 180.95 127.21 180.01 128.15 180.01 129.31 Z M 180.00 130.15 L 180.00 131.15 C 179.99 132.31 180.93 133.26 182.09 133.26 C 183.25 133.27 184.19 132.33 184.20 131.17 L 184.20 130.17 C 184.21 129.01 183.27 128.06 182.11 128.06 C 180.95 128.05 180.01 128.99 180.00 130.15 Z M 179.99 131.12 L 179.97 132.09 C 179.95 133.25 180.88 134.21 182.05 134.23 C 183.21 134.25 184.17 133.32 184.19 132.16 L 184.21 131.20 C 184.23 130.03 183.30 129.07 182.13 129.05 C 180.97 129.03 180.01 129.96 179.99 131.12 Z M 179.97 132.04 L 179.93 132.95 C 179.88 134.12 180.79 135.11 181.96 135.15 C 183.13 135.20 184.11 134.29 184.16 133.12 L 184.20 132.21 C 184.24 131.04 183.33 130.05 182.17 130.01 C 181.00 129.96 180.01 130.87 179.97 132.04 Z M 179.93 132.89 L 179.85 133.96 C 179.77 135.13 180.65 136.15 181.82 136.23 C 182.99 136.31 184.00 135.43 184.09 134.26 L 184.16 133.19 C 184.25 132.02 183.36 131.00 182.19 130.92 C 181.03 130.84 180.01 131.72 179.93 132.89 Z M 179.85 133.91 L 179.75 134.90 C 179.64 136.07 180.50 137.11 181.67 137.22 C 182.84 137.33 183.88 136.47 183.99 135.30 L 184.09 134.31 C 184.20 133.14 183.34 132.10 182.17 131.99 C 181.00 131.88 179.96 132.74 179.85 133.91 Z M 179.75 134.86 L 179.64 135.87 C 179.51 137.04 180.35 138.10 181.52 138.23 C 182.70 138.36 183.76 137.52 183.89 136.35 L 184.00 135.34 C 184.13 134.16 183.29 133.11 182.11 132.98 C 180.94 132.84 179.88 133.69 179.75 134.86 Z M 179.63 135.84 L 179.51 136.87 C 179.36 138.05 180.20 139.12 181.37 139.27 C 182.55 139.41 183.62 138.58 183.76 137.40 L 183.89 136.37 C 184.04 135.20 183.20 134.12 182.03 133.98 C 180.85 133.83 179.78 134.67 179.63 135.84 Z M 179.50 136.85 L 179.36 137.87 C 179.20 139.05 180.03 140.13 181.21 140.29 C 182.38 140.45 183.47 139.63 183.63 138.45 L 183.77 137.43 C 183.93 136.25 183.10 135.16 181.92 135.00 C 180.75 134.84 179.66 135.67 179.50 136.85 Z M 179.36 137.82 L 179.20 138.85 C 179.01 140.03 179.81 141.14 180.99 141.32 C 182.17 141.51 183.27 140.71 183.46 139.53 L 183.63 138.50 C 183.82 137.32 183.01 136.21 181.84 136.03 C 180.66 135.84 179.55 136.64 179.36 137.82 Z M 179.22 138.74 L 179.01 139.69 C 178.76 140.85 179.51 142.00 180.67 142.25 C 181.84 142.50 182.99 141.76 183.24 140.59 L 183.45 139.65 C 183.70 138.48 182.95 137.33 181.78 137.08 C 180.62 136.83 179.47 137.57 179.22 138.74 Z M 179.05 139.51 L 178.77 140.44 C 178.42 141.59 179.07 142.80 180.21 143.15 C 181.36 143.49 182.57 142.85 182.92 141.70 L 183.20 140.77 C 183.55 139.62 182.90 138.41 181.76 138.07 C 180.61 137.72 179.40 138.36 179.05 139.51 Z M 178.86 140.19 L 178.42 141.17 C 177.94 142.27 178.43 143.55 179.52 144.04 C 180.62 144.53 181.90 144.03 182.39 142.94 L 182.83 141.96 C 183.31 140.86 182.82 139.58 181.73 139.09 C 180.63 138.60 179.35 139.09 178.86 140.19 Z M 178.67 140.76 L 178.10 141.52 C 177.38 142.48 177.58 143.84 178.54 144.56 C 179.50 145.27 180.86 145.08 181.58 144.12 L 182.15 143.35 C 182.86 142.39 182.66 141.03 181.70 140.32 C 180.74 139.60 179.38 139.80 178.67 140.76 Z M 178.84 140.89 L 178.09 141.28 C 177.03 141.83 176.61 143.14 177.16 144.20 C 177.71 145.27 179.02 145.68 180.09 145.13 L 180.84 144.74 C 181.90 144.19 182.32 142.88 181.77 141.82 C 181.21 140.76 179.91 140.34 178.84 140.89 Z M 179.31 141.05 L 178.37 140.95 C 177.18 140.83 176.12 141.70 176.00 142.89 C 175.88 144.08 176.74 145.14 177.93 145.26 L 178.87 145.36 C 180.06 145.48 181.12 144.61 181.25 143.42 C 181.37 142.23 180.50 141.17 179.31 141.05 Z M 179.05 141.15 L 178.06 140.70 C 176.98 140.21 175.71 140.68 175.21 141.76 C 174.72 142.84 175.19 144.12 176.27 144.61 L 177.26 145.06 C 178.34 145.56 179.61 145.08 180.11 144.00 C 180.60 142.92 180.13 141.65 179.05 141.15 Z M 178.28 140.88 L 177.50 140.39 C 176.52 139.77 175.22 140.07 174.61 141.05 C 173.99 142.04 174.29 143.34 175.27 143.95 L 176.05 144.44 C 177.04 145.06 178.33 144.76 178.95 143.77 C 179.57 142.79 179.27 141.49 178.28 140.88 Z M 177.56 140.51 L 176.73 139.93 C 175.81 139.28 174.55 139.50 173.90 140.41 C 173.25 141.33 173.47 142.60 174.39 143.24 L 175.22 143.83 C 176.13 144.48 177.40 144.26 178.05 143.34 C 178.69 142.43 178.48 141.16 177.56 140.51 Z M 176.73 140.02 L 175.88 139.37 C 175.01 138.72 173.78 138.90 173.13 139.77 C 172.48 140.63 172.66 141.86 173.53 142.51 L 174.38 143.15 C 175.25 143.80 176.48 143.63 177.13 142.76 C 177.78 141.89 177.60 140.67 176.73 140.02 Z M 175.86 139.42 L 175.48 139.14 C 174.65 138.50 173.45 138.66 172.81 139.50 C 172.17 140.34 172.33 141.53 173.17 142.17 L 173.54 142.46 C 174.38 143.10 175.58 142.94 176.22 142.10 C 176.86 141.26 176.70 140.06 175.86 139.42 Z"
      fill="black"
      fill-rule="nonzero" /><path d="M 171.28 125.98 L 172.12 126.52 C 172.95 127.06 174.06 126.82 174.60 125.99 C 175.14 125.16 174.90 124.05 174.07 123.51 L 173.22 122.97 C 172.39 122.43 171.28 122.67 170.75 123.51 C 170.21 124.34 170.45 125.45 171.28 125.98 Z M 172.11 126.54 L 172.95 127.08 C 173.79 127.62 174.91 127.38 175.46 126.54 C 176.00 125.70 175.76 124.58 174.92 124.04 L 174.08 123.50 C 173.24 122.96 172.11 123.20 171.57 124.04 C 171.03 124.88 171.27 126.00 172.11 126.54 Z M 172.94 127.10 L 173.78 127.64 C 174.63 128.19 175.76 127.94 176.31 127.09 C 176.86 126.24 176.62 125.11 175.77 124.57 L 174.93 124.02 C 174.08 123.48 172.95 123.72 172.40 124.57 C 171.85 125.42 172.09 126.55 172.94 127.10 Z M 173.77 127.66 L 174.61 128.20 C 175.47 128.75 176.62 128.50 177.17 127.65 C 177.72 126.79 177.47 125.64 176.62 125.09 L 175.78 124.55 C 174.92 124.00 173.78 124.24 173.22 125.10 C 172.67 125.96 172.92 127.10 173.77 127.66 Z M 174.61 128.21 L 175.03 128.48 C 175.90 129.04 177.05 128.79 177.61 127.93 C 178.16 127.07 177.92 125.91 177.05 125.36 L 176.62 125.08 C 175.76 124.52 174.61 124.77 174.05 125.64 C 173.49 126.50 173.74 127.65 174.61 128.21 Z"
      fill="black"
      fill-rule="nonzero" /><path d="M 172.16 135.09 L 172.40 134.10 C 172.62 133.15 172.03 132.21 171.08 131.98 C 170.14 131.76 169.19 132.35 168.96 133.30 L 168.73 134.29 C 168.51 135.23 169.10 136.18 170.05 136.40 C 170.99 136.63 171.94 136.04 172.16 135.09 Z M 172.42 134.35 L 172.77 133.42 C 173.13 132.46 172.64 131.39 171.67 131.03 C 170.71 130.67 169.64 131.16 169.28 132.13 L 168.94 133.05 C 168.58 134.01 169.07 135.08 170.03 135.44 C 170.99 135.80 172.07 135.31 172.42 134.35 Z M 172.60 133.86 L 173.15 133.07 C 173.75 132.20 173.53 131.01 172.66 130.41 C 171.78 129.81 170.59 130.03 169.99 130.90 L 169.45 131.69 C 168.85 132.56 169.07 133.75 169.94 134.35 C 170.81 134.95 172.00 134.73 172.60 133.86 Z M 172.88 133.38 L 173.61 132.69 C 174.38 131.97 174.41 130.76 173.69 129.99 C 172.97 129.22 171.76 129.18 170.99 129.91 L 170.26 130.59 C 169.49 131.31 169.45 132.52 170.17 133.29 C 170.90 134.06 172.11 134.10 172.88 133.38 Z M 173.43 132.81 L 174.22 132.22 C 175.05 131.59 175.22 130.40 174.59 129.57 C 173.96 128.74 172.78 128.57 171.95 129.20 L 171.16 129.79 C 170.33 130.42 170.16 131.60 170.79 132.44 C 171.42 133.27 172.60 133.44 173.43 132.81 Z M 174.12 132.24 L 174.90 131.72 C 175.75 131.14 175.97 129.99 175.40 129.14 C 174.82 128.29 173.67 128.07 172.82 128.64 L 172.04 129.17 C 171.19 129.74 170.97 130.90 171.55 131.75 C 172.12 132.60 173.27 132.82 174.12 132.24 Z M 174.82 131.73 L 175.71 131.17 C 176.56 130.64 176.83 129.52 176.30 128.67 C 175.77 127.82 174.65 127.55 173.79 128.08 L 172.90 128.64 C 172.05 129.17 171.79 130.29 172.32 131.14 C 172.85 131.99 173.97 132.25 174.82 131.73 Z M 175.65 131.17 L 176.55 130.64 C 177.40 130.15 177.68 129.06 177.19 128.21 C 176.70 127.36 175.61 127.07 174.76 127.57 L 173.86 128.09 C 173.01 128.58 172.72 129.67 173.21 130.52 C 173.71 131.37 174.80 131.66 175.65 131.17 Z M 176.50 130.63 L 177.39 130.13 C 178.24 129.66 178.54 128.60 178.07 127.76 C 177.60 126.92 176.54 126.62 175.70 127.08 L 174.80 127.58 C 173.96 128.05 173.66 129.11 174.13 129.95 C 174.60 130.79 175.66 131.10 176.50 130.63 Z M 177.35 130.11 L 178.26 129.63 C 179.09 129.18 179.40 128.15 178.96 127.32 C 178.51 126.49 177.48 126.17 176.65 126.62 L 175.74 127.10 C 174.91 127.55 174.60 128.58 175.04 129.41 C 175.49 130.24 176.52 130.56 177.35 130.11 Z M 178.21 129.62 L 179.10 129.17 C 179.92 128.74 180.25 127.73 179.83 126.91 C 179.41 126.08 178.40 125.76 177.57 126.18 L 176.69 126.63 C 175.86 127.05 175.53 128.06 175.96 128.89 C 176.38 129.71 177.39 130.04 178.21 129.62 Z M 179.07 129.21 L 180.04 128.75 C 180.90 128.34 181.26 127.32 180.85 126.47 C 180.44 125.62 179.42 125.26 178.57 125.66 L 177.60 126.13 C 176.74 126.54 176.38 127.56 176.79 128.41 C 177.20 129.26 178.22 129.62 179.07 129.21 Z M 180.04 128.84 L 180.90 128.46 C 181.81 128.05 182.21 126.99 181.80 126.08 C 181.40 125.18 180.34 124.78 179.43 125.18 L 178.57 125.57 C 177.67 125.98 177.26 127.04 177.67 127.94 C 178.07 128.85 179.14 129.25 180.04 128.84 Z M 180.91 128.52 L 181.33 128.34 C 182.27 127.93 182.69 126.83 182.28 125.89 C 181.87 124.95 180.78 124.53 179.84 124.94 L 179.42 125.12 C 178.48 125.53 178.06 126.62 178.47 127.56 C 178.88 128.50 179.97 128.93 180.91 128.52 Z"
      fill="black"
      fill-rule="nonzero" /><path d="M 166.89 142.82 L 166.47 143.67 C 166.05 144.55 166.42 145.59 167.29 146.02 C 168.16 146.44 169.21 146.07 169.63 145.20 L 170.04 144.35 C 170.46 143.48 170.10 142.43 169.23 142.01 C 168.36 141.59 167.31 141.95 166.89 142.82 Z M 166.53 143.60 L 166.05 144.49 C 165.58 145.33 165.89 146.38 166.73 146.85 C 167.57 147.31 168.62 147.00 169.08 146.16 L 169.57 145.27 C 170.03 144.43 169.73 143.38 168.89 142.92 C 168.05 142.46 167.00 142.76 166.53 143.60 Z M 166.13 144.39 L 165.57 145.23 C 165.05 146.03 165.27 147.09 166.07 147.61 C 166.86 148.13 167.92 147.91 168.45 147.12 L 169.00 146.27 C 169.52 145.47 169.30 144.41 168.51 143.89 C 167.71 143.37 166.65 143.59 166.13 144.39 Z M 165.63 145.16 L 165.03 145.97 C 164.47 146.73 164.63 147.80 165.39 148.37 C 166.14 148.93 167.22 148.77 167.78 148.01 L 168.38 147.19 C 168.94 146.44 168.78 145.36 168.03 144.80 C 167.27 144.24 166.20 144.40 165.63 145.16 Z M 165.07 145.93 L 164.44 146.72 C 163.85 147.46 163.97 148.53 164.71 149.12 C 165.44 149.71 166.52 149.58 167.10 148.85 L 167.74 148.05 C 168.32 147.32 168.20 146.25 167.47 145.66 C 166.73 145.07 165.66 145.19 165.07 145.93 Z M 164.47 146.69 L 163.80 147.49 C 163.19 148.21 163.29 149.28 164.01 149.89 C 164.73 150.49 165.80 150.40 166.41 149.68 L 167.08 148.88 C 167.68 148.16 167.59 147.09 166.86 146.48 C 166.14 145.88 165.07 145.97 164.47 146.69 Z M 163.82 147.46 L 163.16 148.21 C 162.54 148.92 162.62 150.00 163.33 150.62 C 164.04 151.24 165.12 151.17 165.74 150.46 L 166.39 149.71 C 167.01 149.00 166.93 147.92 166.22 147.30 C 165.51 146.68 164.44 146.75 163.82 147.46 Z M 163.17 148.19 L 162.54 148.90 C 161.91 149.60 161.97 150.69 162.68 151.32 C 163.39 151.95 164.47 151.88 165.10 151.18 L 165.73 150.47 C 166.36 149.77 166.30 148.68 165.59 148.05 C 164.88 147.42 163.80 147.49 163.17 148.19 Z M 162.54 148.89 L 161.93 149.57 C 161.29 150.28 161.35 151.37 162.06 152.00 C 162.76 152.64 163.85 152.58 164.49 151.87 L 165.10 151.19 C 165.74 150.48 165.68 149.39 164.97 148.76 C 164.26 148.12 163.17 148.18 162.54 148.89 Z M 161.93 149.55 L 161.24 150.30 C 160.60 151.01 160.64 152.10 161.35 152.75 C 162.06 153.40 163.15 153.35 163.80 152.64 L 164.49 151.89 C 165.13 151.18 165.08 150.09 164.38 149.44 C 163.67 148.79 162.57 148.84 161.93 149.55 Z M 161.25 150.28 L 160.50 151.07 C 159.84 151.77 159.88 152.88 160.58 153.54 C 161.29 154.20 162.40 154.16 163.06 153.46 L 163.80 152.67 C 164.46 151.96 164.42 150.85 163.72 150.19 C 163.01 149.53 161.91 149.57 161.25 150.28 Z M 160.46 151.08 L 159.76 151.87 C 159.11 152.60 159.17 153.72 159.90 154.37 C 160.62 155.02 161.74 154.96 162.39 154.23 L 163.10 153.44 C 163.75 152.71 163.69 151.60 162.96 150.95 C 162.23 150.29 161.11 150.36 160.46 151.08 Z M 159.63 151.99 L 159.03 152.81 C 158.44 153.61 158.62 154.73 159.41 155.32 C 160.21 155.90 161.33 155.73 161.92 154.93 L 162.52 154.11 C 163.10 153.31 162.93 152.19 162.13 151.61 C 161.34 151.02 160.22 151.20 159.63 151.99 Z M 158.80 153.16 L 158.45 153.98 C 158.05 154.91 158.48 155.97 159.40 156.37 C 160.32 156.77 161.39 156.34 161.79 155.42 L 162.14 154.59 C 162.54 153.67 162.11 152.60 161.19 152.20 C 160.27 151.81 159.20 152.23 158.80 153.16 Z M 158.24 154.74 L 158.26 155.67 C 158.28 156.71 159.13 157.53 160.17 157.51 C 161.20 157.49 162.03 156.64 162.01 155.60 L 161.99 154.67 C 161.97 153.63 161.12 152.81 160.08 152.83 C 159.05 152.85 158.22 153.70 158.24 154.74 Z M 158.25 156.19 L 158.53 157.14 C 158.83 158.18 159.92 158.77 160.96 158.47 C 162.00 158.17 162.60 157.07 162.30 156.03 L 162.02 155.09 C 161.71 154.04 160.62 153.45 159.58 153.75 C 158.54 154.06 157.95 155.15 158.25 156.19 Z M 158.45 157.10 L 158.70 158.06 C 158.98 159.14 160.09 159.79 161.18 159.51 C 162.26 159.22 162.91 158.12 162.63 157.03 L 162.38 156.07 C 162.09 154.99 160.98 154.34 159.90 154.62 C 158.81 154.91 158.16 156.02 158.45 157.10 Z M 158.62 157.81 L 158.75 158.76 C 158.90 159.89 159.93 160.68 161.05 160.53 C 162.18 160.38 162.97 159.35 162.82 158.23 L 162.70 157.28 C 162.55 156.15 161.52 155.36 160.39 155.51 C 159.27 155.65 158.48 156.69 158.62 157.81 Z M 158.73 158.60 L 158.79 159.62 C 158.85 160.75 159.81 161.63 160.95 161.57 C 162.08 161.51 162.95 160.54 162.89 159.41 L 162.84 158.39 C 162.78 157.25 161.81 156.38 160.68 156.44 C 159.55 156.50 158.67 157.47 158.73 158.60 Z M 158.78 159.53 L 158.79 160.60 C 158.80 161.74 159.73 162.65 160.87 162.64 C 162.00 162.63 162.92 161.70 162.91 160.56 L 162.90 159.50 C 162.89 158.36 161.96 157.45 160.82 157.46 C 159.69 157.47 158.77 158.40 158.78 159.53 Z M 158.79 160.56 L 158.78 161.60 C 158.77 162.74 159.68 163.67 160.81 163.68 C 161.95 163.70 162.88 162.79 162.90 161.65 L 162.91 160.60 C 162.92 159.47 162.01 158.54 160.87 158.52 C 159.74 158.51 158.81 159.42 158.79 160.56 Z M 158.78 161.56 L 158.75 162.59 C 158.71 163.72 159.61 164.67 160.74 164.71 C 161.88 164.74 162.83 163.85 162.87 162.71 L 162.90 161.69 C 162.93 160.55 162.04 159.60 160.90 159.57 C 159.76 159.53 158.81 160.43 158.78 161.56 Z M 158.75 162.54 L 158.70 163.50 C 158.64 164.64 159.51 165.61 160.65 165.67 C 161.78 165.73 162.75 164.86 162.81 163.72 L 162.86 162.76 C 162.93 161.62 162.05 160.65 160.92 160.59 C 159.78 160.53 158.81 161.40 158.75 162.54 Z M 158.70 163.43 L 158.61 164.46 C 158.51 165.60 159.35 166.60 160.48 166.70 C 161.61 166.80 162.62 165.96 162.72 164.83 L 162.81 163.79 C 162.91 162.66 162.07 161.66 160.94 161.56 C 159.80 161.45 158.80 162.29 158.70 163.43 Z M 158.62 164.38 L 158.49 165.36 C 158.34 166.49 159.13 167.52 160.26 167.67 C 161.39 167.82 162.43 167.02 162.58 165.90 L 162.71 164.91 C 162.86 163.79 162.06 162.75 160.93 162.60 C 159.80 162.45 158.77 163.25 158.62 164.38 Z M 158.50 165.31 L 158.35 166.23 C 158.17 167.35 158.94 168.41 160.07 168.59 C 161.20 168.76 162.25 167.99 162.43 166.87 L 162.57 165.94 C 162.75 164.82 161.98 163.76 160.85 163.59 C 159.73 163.41 158.67 164.18 158.50 165.31 Z M 158.35 166.23 L 158.20 167.21 C 158.02 168.33 158.79 169.39 159.92 169.56 C 161.05 169.74 162.10 168.97 162.28 167.84 L 162.43 166.87 C 162.60 165.74 161.83 164.68 160.71 164.51 C 159.58 164.33 158.53 165.10 158.35 166.23 Z M 158.20 167.21 L 158.05 168.21 C 157.87 169.34 158.65 170.39 159.77 170.56 C 160.90 170.73 161.95 169.96 162.12 168.83 L 162.28 167.84 C 162.45 166.71 161.67 165.66 160.55 165.49 C 159.42 165.32 158.37 166.09 158.20 167.21 Z M 158.05 168.21 L 157.91 169.14 C 157.74 170.26 158.51 171.31 159.63 171.48 C 160.76 171.66 161.81 170.88 161.98 169.76 L 162.12 168.83 C 162.29 167.71 161.52 166.66 160.40 166.48 C 159.27 166.31 158.22 167.09 158.05 168.21 Z M 157.91 169.13 L 157.76 170.06 C 157.59 171.18 158.35 172.24 159.47 172.41 C 160.60 172.59 161.65 171.83 161.83 170.70 L 161.98 169.77 C 162.15 168.65 161.39 167.59 160.27 167.42 C 159.14 167.24 158.09 168.00 157.91 169.13 Z M 157.77 170.03 L 157.59 171.10 C 157.40 172.22 158.15 173.28 159.27 173.48 C 160.39 173.67 161.45 172.91 161.64 171.80 L 161.82 170.73 C 162.01 169.61 161.26 168.54 160.14 168.35 C 159.02 168.16 157.96 168.91 157.77 170.03 Z M 157.59 171.08 L 157.41 172.06 C 157.21 173.17 157.95 174.24 159.06 174.45 C 160.18 174.65 161.25 173.92 161.45 172.80 L 161.63 171.82 C 161.84 170.70 161.10 169.63 159.99 169.43 C 158.87 169.22 157.80 169.96 157.59 171.08 Z M 157.42 172.04 L 157.23 173.03 C 157.01 174.14 157.73 175.22 158.84 175.44 C 159.95 175.65 161.03 174.93 161.25 173.82 L 161.44 172.82 C 161.66 171.71 160.94 170.64 159.83 170.42 C 158.72 170.20 157.64 170.92 157.42 172.04 Z M 157.24 173.01 L 157.03 174.02 C 156.79 175.12 157.50 176.21 158.61 176.44 C 159.71 176.67 160.79 175.96 161.02 174.86 L 161.24 173.84 C 161.47 172.74 160.76 171.66 159.66 171.43 C 158.55 171.19 157.47 171.90 157.24 173.01 Z M 157.04 173.99 L 156.82 174.95 C 156.57 176.05 157.25 177.14 158.35 177.40 C 159.45 177.65 160.54 176.96 160.79 175.86 L 161.01 174.89 C 161.26 173.80 160.58 172.70 159.48 172.45 C 158.38 172.20 157.29 172.89 157.04 173.99 Z M 156.84 174.90 L 156.57 175.96 C 156.29 177.04 156.95 178.15 158.03 178.42 C 159.11 178.70 160.22 178.05 160.49 176.97 L 160.77 175.91 C 161.04 174.83 160.39 173.73 159.31 173.45 C 158.22 173.17 157.12 173.82 156.84 174.90 Z M 156.61 175.91 L 156.33 176.86 C 156.03 177.93 156.64 179.04 157.71 179.34 C 158.77 179.65 159.88 179.03 160.19 177.97 L 160.46 177.02 C 160.76 175.95 160.15 174.84 159.09 174.54 C 158.02 174.23 156.91 174.85 156.61 175.91 Z M 156.36 176.83 L 156.09 177.73 C 155.77 178.77 156.36 179.88 157.40 180.20 C 158.45 180.52 159.56 179.94 159.88 178.89 L 160.15 178.00 C 160.48 176.95 159.89 175.84 158.84 175.52 C 157.79 175.20 156.69 175.79 156.36 176.83 Z M 156.11 177.72 L 156.06 177.88 C 155.73 178.92 156.31 180.02 157.35 180.35 C 158.39 180.67 159.49 180.09 159.82 179.05 L 159.87 178.89 C 160.19 177.85 159.61 176.75 158.57 176.43 C 157.53 176.10 156.43 176.68 156.11 177.72 Z"
      fill="black"
      fill-rule="nonzero" /><path d="M 161.54 159.18 L 162.35 158.66 C 163.27 158.09 163.54 156.88 162.96 155.97 C 162.38 155.06 161.18 154.78 160.27 155.36 L 159.45 155.88 C 158.54 156.46 158.26 157.66 158.84 158.57 C 159.42 159.49 160.63 159.76 161.54 159.18 Z M 162.31 158.69 L 163.17 158.18 C 164.09 157.63 164.40 156.43 163.85 155.50 C 163.30 154.58 162.10 154.27 161.17 154.82 L 160.31 155.33 C 159.39 155.88 159.08 157.08 159.63 158.01 C 160.18 158.94 161.38 159.24 162.31 158.69 Z M 163.08 158.23 L 163.98 157.75 C 164.93 157.25 165.29 156.07 164.79 155.12 C 164.29 154.16 163.11 153.80 162.15 154.30 L 161.26 154.78 C 160.31 155.28 159.94 156.46 160.45 157.41 C 160.95 158.37 162.13 158.73 163.08 158.23 Z M 163.90 157.79 L 164.79 157.37 C 165.77 156.91 166.18 155.75 165.73 154.78 C 165.27 153.80 164.11 153.39 163.14 153.84 L 162.24 154.27 C 161.26 154.72 160.85 155.88 161.31 156.86 C 161.76 157.83 162.92 158.25 163.90 157.79 Z M 164.74 157.38 L 165.67 156.98 C 166.65 156.55 167.10 155.41 166.68 154.43 C 166.25 153.44 165.11 152.99 164.12 153.42 L 163.19 153.82 C 162.21 154.25 161.76 155.40 162.18 156.38 C 162.61 157.36 163.75 157.81 164.74 157.38 Z M 165.63 156.99 L 166.58 156.60 C 167.57 156.19 168.04 155.06 167.63 154.07 C 167.23 153.08 166.10 152.61 165.11 153.02 L 164.16 153.41 C 163.17 153.82 162.70 154.95 163.11 155.94 C 163.51 156.92 164.65 157.40 165.63 156.99 Z M 166.56 156.60 L 167.50 156.23 C 168.49 155.84 168.98 154.72 168.58 153.73 C 168.19 152.73 167.07 152.25 166.08 152.64 L 165.13 153.01 C 164.14 153.40 163.66 154.53 164.05 155.52 C 164.44 156.51 165.56 157.00 166.56 156.60 Z M 167.47 156.24 L 168.39 155.89 C 169.39 155.51 169.89 154.40 169.51 153.40 C 169.13 152.41 168.02 151.91 167.02 152.28 L 166.10 152.63 C 165.11 153.01 164.61 154.13 164.99 155.12 C 165.36 156.12 166.48 156.62 167.47 156.24 Z M 168.37 155.89 L 169.31 155.55 C 170.31 155.19 170.82 154.08 170.46 153.08 C 170.10 152.08 168.99 151.57 167.99 151.93 L 167.05 152.28 C 166.05 152.64 165.54 153.75 165.90 154.75 C 166.26 155.74 167.37 156.26 168.37 155.89 Z M 169.27 155.56 L 170.22 155.24 C 171.23 154.90 171.77 153.80 171.42 152.80 C 171.08 151.79 169.99 151.25 168.98 151.60 L 168.03 151.92 C 167.03 152.26 166.49 153.36 166.83 154.36 C 167.17 155.37 168.27 155.90 169.27 155.56 Z M 170.16 155.26 L 171.09 154.98 C 172.11 154.67 172.68 153.60 172.38 152.58 C 172.07 151.57 171.00 150.99 169.98 151.30 L 169.05 151.58 C 168.03 151.88 167.46 152.96 167.76 153.97 C 168.07 154.99 169.14 155.57 170.16 155.26 Z M 170.99 155.01 L 171.97 154.77 C 173.00 154.52 173.64 153.48 173.38 152.44 C 173.13 151.41 172.09 150.78 171.06 151.03 L 170.08 151.27 C 169.05 151.52 168.42 152.56 168.67 153.59 C 168.92 154.62 169.96 155.26 170.99 155.01 Z M 171.82 154.81 L 172.80 154.65 C 173.85 154.48 174.57 153.49 174.40 152.44 C 174.23 151.39 173.25 150.67 172.19 150.84 L 171.21 150.99 C 170.16 151.16 169.44 152.15 169.61 153.20 C 169.77 154.25 170.76 154.97 171.82 154.81 Z M 172.59 154.68 L 173.62 154.63 C 174.69 154.58 175.52 153.67 175.47 152.61 C 175.42 151.54 174.51 150.71 173.44 150.76 L 172.41 150.81 C 171.34 150.86 170.51 151.76 170.56 152.83 C 170.61 153.90 171.52 154.73 172.59 154.68 Z M 173.25 154.63 L 174.25 154.77 C 175.32 154.93 176.31 154.19 176.46 153.12 C 176.62 152.06 175.88 151.07 174.81 150.91 L 173.81 150.77 C 172.75 150.61 171.76 151.35 171.60 152.42 C 171.45 153.48 172.19 154.47 173.25 154.63 Z M 173.54 154.53 L 174.31 154.99 C 175.25 155.54 176.45 155.23 177.00 154.30 C 177.55 153.36 177.24 152.16 176.31 151.61 L 175.53 151.15 C 174.60 150.60 173.39 150.91 172.84 151.84 C 172.29 152.78 172.60 153.98 173.54 154.53 Z M 173.60 154.28 L 174.06 155.09 C 174.61 156.03 175.81 156.36 176.76 155.81 C 177.70 155.27 178.03 154.06 177.48 153.12 L 177.02 152.32 C 176.48 151.37 175.27 151.05 174.33 151.59 C 173.38 152.13 173.06 153.34 173.60 154.28 Z M 173.85 154.54 L 174.08 155.58 C 174.32 156.65 175.38 157.31 176.44 157.07 C 177.50 156.84 178.17 155.78 177.93 154.72 L 177.70 153.67 C 177.46 152.61 176.40 151.94 175.34 152.18 C 174.28 152.42 173.61 153.47 173.85 154.54 Z M 174.04 155.33 L 174.13 156.31 C 174.23 157.39 175.19 158.19 176.28 158.09 C 177.36 157.99 178.16 157.03 178.06 155.95 L 177.97 154.97 C 177.88 153.88 176.91 153.08 175.83 153.18 C 174.74 153.28 173.94 154.24 174.04 155.33 Z M 174.12 156.19 L 174.16 157.19 C 174.19 158.28 175.10 159.14 176.19 159.10 C 177.28 159.07 178.14 158.16 178.10 157.07 L 178.07 156.06 C 178.04 154.97 177.13 154.12 176.04 154.15 C 174.95 154.19 174.09 155.10 174.12 156.19 Z M 174.15 157.14 L 174.16 158.16 C 174.16 159.25 175.05 160.13 176.14 160.13 C 177.23 160.12 178.11 159.24 178.11 158.15 L 178.10 157.12 C 178.10 156.03 177.21 155.15 176.12 155.16 C 175.03 155.16 174.15 156.05 174.15 157.14 Z M 174.16 158.15 L 174.16 159.10 C 174.16 160.19 175.04 161.08 176.13 161.08 C 177.22 161.08 178.11 160.19 178.11 159.10 L 178.11 158.15 C 178.11 157.06 177.22 156.18 176.13 156.18 C 175.04 156.18 174.16 157.06 174.16 158.15 Z M 174.16 159.10 L 174.16 160.09 C 174.16 161.18 175.04 162.06 176.13 162.06 C 177.22 162.06 178.10 161.18 178.10 160.09 L 178.10 159.10 C 178.10 158.02 177.22 157.13 176.13 157.13 C 175.04 157.13 174.16 158.02 174.16 159.10 Z M 174.16 160.09 L 174.16 161.15 C 174.16 162.24 175.04 163.12 176.13 163.12 C 177.22 163.12 178.10 162.24 178.10 161.15 L 178.10 160.09 C 178.10 159.00 177.22 158.12 176.13 158.12 C 175.04 158.12 174.16 159.00 174.16 160.09 Z M 174.16 161.15 L 174.16 162.16 C 174.16 163.25 175.05 164.13 176.13 164.13 C 177.22 164.13 178.10 163.25 178.10 162.16 L 178.10 161.15 C 178.10 160.06 177.22 159.18 176.13 159.18 C 175.05 159.18 174.16 160.06 174.16 161.15 Z M 174.17 162.16 L 174.17 163.20 C 174.17 164.28 175.05 165.17 176.13 165.17 C 177.22 165.17 178.10 164.28 178.10 163.20 L 178.10 162.16 C 178.10 161.08 177.22 160.20 176.13 160.20 C 175.05 160.20 174.17 161.08 174.17 162.16 Z M 174.17 163.20 L 174.17 164.20 C 174.17 165.28 175.05 166.16 176.13 166.16 C 177.22 166.16 178.10 165.28 178.10 164.20 L 178.10 163.20 C 178.10 162.11 177.22 161.23 176.13 161.23 C 175.05 161.23 174.17 162.11 174.17 163.20 Z M 174.17 164.20 L 174.17 165.23 C 174.17 166.31 175.05 167.19 176.13 167.19 C 177.22 167.19 178.10 166.31 178.10 165.23 L 178.10 164.20 C 178.10 163.11 177.22 162.23 176.13 162.23 C 175.05 162.23 174.17 163.11 174.17 164.20 Z M 174.17 165.22 L 174.17 166.26 C 174.16 167.35 175.04 168.23 176.13 168.23 C 177.21 168.23 178.09 167.36 178.09 166.27 L 178.10 165.23 C 178.10 164.15 177.22 163.27 176.14 163.26 C 175.05 163.26 174.17 164.14 174.17 165.22 Z M 174.17 166.25 L 174.16 167.16 C 174.15 168.25 175.02 169.13 176.10 169.14 C 177.19 169.16 178.07 168.29 178.08 167.20 L 178.09 166.29 C 178.11 165.20 177.24 164.31 176.15 164.30 C 175.07 164.29 174.18 165.16 174.17 166.25 Z M 174.16 167.13 L 174.13 168.12 C 174.11 169.20 174.96 170.10 176.05 170.13 C 177.13 170.16 178.03 169.30 178.06 168.22 L 178.08 167.23 C 178.11 166.15 177.25 165.25 176.17 165.22 C 175.09 165.19 174.19 166.05 174.16 167.13 Z M 174.14 168.10 L 174.10 169.09 C 174.06 170.17 174.91 171.08 175.99 171.12 C 177.07 171.16 177.98 170.32 178.02 169.23 L 178.05 168.24 C 178.09 167.16 177.25 166.25 176.17 166.21 C 175.09 166.17 174.18 167.02 174.14 168.10 Z M 174.11 169.08 L 174.07 169.97 C 174.03 171.04 174.86 171.95 175.94 172.00 C 177.02 172.04 177.93 171.20 177.98 170.13 L 178.01 169.24 C 178.06 168.16 177.22 167.25 176.14 167.21 C 175.06 167.17 174.15 168.00 174.11 169.08 Z M 174.07 169.96 L 174.04 170.87 C 173.99 171.94 174.82 172.85 175.90 172.90 C 176.97 172.95 177.89 172.11 177.93 171.04 L 177.97 170.13 C 178.02 169.05 177.18 168.14 176.11 168.10 C 175.03 168.05 174.12 168.88 174.07 169.96 Z M 174.04 170.86 L 173.98 172.02 C 173.93 173.10 174.76 174.01 175.84 174.06 C 176.91 174.11 177.82 173.28 177.87 172.21 L 177.93 171.05 C 177.98 169.97 177.15 169.06 176.08 169.01 C 175.00 168.96 174.09 169.79 174.04 170.86 Z M 173.99 172.02 L 173.94 172.96 C 173.89 174.03 174.71 174.94 175.78 175.00 C 176.85 175.05 177.77 174.23 177.82 173.15 L 177.87 172.21 C 177.92 171.14 177.10 170.23 176.03 170.18 C 174.96 170.12 174.04 170.95 173.99 172.02 Z M 173.95 172.96 L 173.90 173.95 C 173.84 175.02 174.67 175.93 175.73 175.98 C 176.80 176.04 177.71 175.21 177.76 174.15 L 177.81 173.15 C 177.87 172.09 177.04 171.18 175.98 171.12 C 174.91 171.07 174.00 171.89 173.95 172.96 Z M 173.90 173.96 L 173.85 175.00 C 173.80 176.07 174.63 176.97 175.69 177.02 C 176.75 177.07 177.66 176.25 177.71 175.19 L 177.76 174.14 C 177.81 173.08 176.99 172.17 175.92 172.12 C 174.86 172.07 173.95 172.89 173.90 173.96 Z M 173.86 175.01 L 173.82 176.06 C 173.77 177.12 174.60 178.02 175.66 178.06 C 176.72 178.11 177.61 177.28 177.66 176.22 L 177.70 175.18 C 177.75 174.12 176.92 173.22 175.86 173.17 C 174.80 173.13 173.91 173.95 173.86 175.01 Z M 173.83 176.08 L 173.80 177.14 C 173.76 178.19 174.59 179.07 175.64 179.11 C 176.69 179.14 177.58 178.31 177.61 177.26 L 177.64 176.21 C 177.68 175.15 176.85 174.27 175.80 174.24 C 174.75 174.20 173.87 175.03 173.83 176.08 Z M 173.83 177.16 L 173.81 178.22 C 173.79 179.25 174.61 180.11 175.64 180.13 C 176.68 180.15 177.53 179.33 177.55 178.30 L 177.58 177.24 C 177.60 176.20 176.78 175.35 175.74 175.32 C 174.71 175.30 173.85 176.12 173.83 177.16 Z M 173.85 178.24 L 173.84 179.22 C 173.83 180.23 174.64 181.06 175.65 181.07 C 176.66 181.08 177.49 180.27 177.50 179.26 L 177.51 178.28 C 177.52 177.27 176.71 176.44 175.70 176.43 C 174.69 176.42 173.86 177.23 173.85 178.24 Z M 173.89 179.24 L 173.89 180.18 C 173.88 181.16 174.68 181.96 175.66 181.96 C 176.65 181.97 177.45 181.17 177.45 180.19 L 177.45 179.25 C 177.46 178.26 176.66 177.46 175.68 177.46 C 174.69 177.46 173.89 178.25 173.89 179.24 Z M 173.92 180.18 L 173.92 180.63 C 173.92 181.59 174.70 182.38 175.67 182.38 C 176.63 182.38 177.42 181.59 177.42 180.63 L 177.42 180.18 C 177.42 179.22 176.63 178.44 175.67 178.44 C 174.70 178.44 173.92 179.22 173.92 180.18 Z"
      fill="black"
      fill-rule="nonzero" /><path d="M 159.96 169.01 L 160.95 169.20 C 161.96 169.39 162.94 168.73 163.13 167.72 C 163.33 166.71 162.67 165.73 161.65 165.53 L 160.67 165.34 C 159.65 165.15 158.68 165.81 158.48 166.82 C 158.29 167.83 158.95 168.81 159.96 169.01 Z M 161.09 169.34 L 162.08 169.45 C 163.17 169.56 164.15 168.77 164.27 167.68 C 164.38 166.59 163.59 165.61 162.50 165.49 L 161.51 165.39 C 160.42 165.27 159.44 166.06 159.32 167.15 C 159.21 168.25 160.00 169.23 161.09 169.34 Z M 162.41 169.54 L 163.37 169.48 C 164.52 169.42 165.39 168.44 165.32 167.30 C 165.26 166.16 164.28 165.28 163.14 165.35 L 162.17 165.40 C 161.03 165.47 160.16 166.45 160.22 167.59 C 160.29 168.73 161.27 169.60 162.41 169.54 Z M 163.69 169.46 L 164.66 169.26 C 165.78 169.02 166.51 167.91 166.27 166.78 C 166.03 165.65 164.92 164.93 163.79 165.17 L 162.82 165.37 C 161.69 165.61 160.97 166.72 161.21 167.85 C 161.45 168.98 162.56 169.70 163.69 169.46 Z M 164.82 169.21 L 165.81 168.91 C 166.91 168.58 167.54 167.42 167.21 166.32 C 166.88 165.22 165.72 164.59 164.62 164.92 L 163.63 165.22 C 162.52 165.54 161.90 166.70 162.23 167.81 C 162.55 168.91 163.71 169.54 164.82 169.21 Z M 165.86 168.88 L 166.79 168.57 C 167.87 168.22 168.46 167.05 168.11 165.96 C 167.75 164.88 166.58 164.29 165.50 164.65 L 164.57 164.95 C 163.48 165.31 162.89 166.48 163.25 167.56 C 163.61 168.65 164.78 169.24 165.86 168.88 Z M 166.82 168.54 L 167.78 168.20 C 168.84 167.82 169.40 166.66 169.02 165.59 C 168.65 164.53 167.48 163.97 166.41 164.34 L 165.46 164.68 C 164.40 165.06 163.84 166.23 164.21 167.29 C 164.59 168.36 165.76 168.91 166.82 168.54 Z M 167.81 168.16 L 168.77 167.80 C 169.81 167.40 170.34 166.24 169.94 165.19 C 169.54 164.15 168.38 163.62 167.33 164.02 L 166.38 164.38 C 165.33 164.78 164.81 165.95 165.21 166.99 C 165.60 168.03 166.77 168.56 167.81 168.16 Z M 168.80 167.75 L 169.74 167.36 C 170.76 166.95 171.24 165.79 170.83 164.78 C 170.42 163.76 169.26 163.28 168.24 163.69 L 167.30 164.07 C 166.29 164.49 165.80 165.64 166.21 166.66 C 166.63 167.67 167.79 168.16 168.80 167.75 Z M 169.76 167.30 L 170.68 166.91 C 171.66 166.48 172.11 165.34 171.68 164.36 C 171.26 163.38 170.11 162.93 169.13 163.35 L 168.22 163.75 C 167.24 164.17 166.79 165.32 167.21 166.30 C 167.64 167.28 168.78 167.73 169.76 167.30 Z M 170.69 166.85 L 171.57 166.45 C 172.52 166.01 172.94 164.89 172.50 163.94 C 172.07 162.99 170.95 162.57 170.00 163.01 L 169.11 163.41 C 168.16 163.85 167.75 164.97 168.18 165.92 C 168.62 166.87 169.74 167.29 170.69 166.85 Z M 171.58 166.39 L 172.45 165.97 C 173.37 165.53 173.76 164.43 173.32 163.51 C 172.88 162.59 171.78 162.21 170.86 162.65 L 169.99 163.06 C 169.07 163.50 168.68 164.60 169.12 165.52 C 169.56 166.44 170.66 166.83 171.58 166.39 Z M 172.44 165.92 L 173.36 165.47 C 174.25 165.04 174.62 163.97 174.19 163.08 C 173.75 162.19 172.68 161.82 171.79 162.25 L 170.88 162.70 C 169.99 163.13 169.62 164.20 170.05 165.09 C 170.48 165.98 171.55 166.35 172.44 165.92 Z M 173.33 165.43 L 174.21 165.01 C 175.08 164.60 175.44 163.55 175.03 162.69 C 174.61 161.82 173.57 161.45 172.70 161.87 L 171.82 162.29 C 170.95 162.71 170.59 163.75 171.00 164.62 C 171.42 165.49 172.46 165.85 173.33 165.43 Z M 174.18 164.98 L 175.07 164.56 C 175.92 164.15 176.29 163.14 175.88 162.29 C 175.48 161.44 174.47 161.08 173.62 161.48 L 172.73 161.90 C 171.88 162.30 171.51 163.32 171.92 164.17 C 172.32 165.02 173.33 165.38 174.18 164.98 Z M 175.05 164.52 L 175.99 164.08 C 176.82 163.69 177.17 162.70 176.78 161.87 C 176.39 161.04 175.40 160.68 174.57 161.08 L 173.64 161.51 C 172.81 161.90 172.45 162.90 172.84 163.73 C 173.23 164.56 174.22 164.91 175.05 164.52 Z M 175.97 164.05 L 176.65 163.74 C 177.46 163.35 177.81 162.38 177.43 161.57 C 177.05 160.76 176.08 160.41 175.26 160.79 L 174.59 161.10 C 173.77 161.49 173.42 162.46 173.80 163.27 C 174.19 164.09 175.16 164.44 175.97 164.05 Z"
      fill="black"
      fill-rule="nonzero" /><path d="M 159.48 185.58 L 160.30 185.01 C 161.14 184.42 161.35 183.27 160.77 182.42 C 160.18 181.58 159.03 181.37 158.18 181.95 L 157.36 182.52 C 156.52 183.10 156.31 184.26 156.89 185.11 C 157.48 185.95 158.63 186.16 159.48 185.58 Z M 160.29 185.19 L 161.14 184.67 C 162.09 184.09 162.38 182.86 161.81 181.91 C 161.23 180.97 159.99 180.67 159.04 181.25 L 158.19 181.77 C 157.25 182.35 156.95 183.58 157.53 184.53 C 158.11 185.47 159.34 185.77 160.29 185.19 Z M 161.00 184.86 L 161.86 184.45 C 162.91 183.95 163.35 182.69 162.85 181.64 C 162.35 180.59 161.09 180.15 160.04 180.65 L 159.18 181.06 C 158.14 181.56 157.69 182.82 158.19 183.87 C 158.69 184.92 159.95 185.36 161.00 184.86 Z M 161.69 184.54 L 162.61 184.20 C 163.71 183.79 164.27 182.57 163.86 181.46 C 163.45 180.36 162.22 179.80 161.12 180.21 L 160.20 180.56 C 159.10 180.97 158.54 182.19 158.95 183.29 C 159.36 184.40 160.59 184.96 161.69 184.54 Z M 162.53 184.23 L 163.52 183.90 C 164.64 183.54 165.25 182.34 164.88 181.22 C 164.51 180.10 163.31 179.49 162.20 179.86 L 161.20 180.19 C 160.08 180.55 159.48 181.76 159.84 182.87 C 160.21 183.99 161.41 184.60 162.53 184.23 Z M 163.50 183.91 L 164.31 183.65 C 165.43 183.29 166.05 182.10 165.69 180.98 C 165.33 179.86 164.14 179.24 163.02 179.60 L 162.21 179.86 C 161.10 180.21 160.48 181.41 160.84 182.53 C 161.19 183.64 162.39 184.26 163.50 183.91 Z M 164.30 183.65 L 165.21 183.36 C 166.33 183.02 166.95 181.83 166.60 180.71 C 166.25 179.59 165.07 178.97 163.95 179.32 L 163.04 179.60 C 161.92 179.95 161.29 181.14 161.64 182.25 C 161.99 183.37 163.18 184.00 164.30 183.65 Z M 165.19 183.36 L 166.24 183.05 C 167.35 182.71 167.99 181.53 167.65 180.41 C 167.31 179.30 166.13 178.66 165.01 179.00 L 163.97 179.32 C 162.85 179.66 162.22 180.83 162.56 181.95 C 162.89 183.07 164.07 183.70 165.19 183.36 Z M 166.22 183.04 L 167.25 182.74 C 168.36 182.42 169.00 181.25 168.67 180.13 C 168.35 179.02 167.18 178.38 166.06 178.70 L 165.03 179.00 C 163.92 179.33 163.28 180.50 163.60 181.62 C 163.93 182.73 165.10 183.37 166.22 183.04 Z M 167.23 182.74 L 168.10 182.49 C 169.21 182.17 169.86 181.01 169.54 179.90 C 169.22 178.79 168.06 178.14 166.95 178.46 L 166.08 178.71 C 164.97 179.03 164.32 180.19 164.64 181.30 C 164.96 182.41 166.12 183.05 167.23 182.74 Z M 168.09 182.47 L 169.02 182.21 C 170.13 181.90 170.77 180.75 170.46 179.65 C 170.15 178.55 169.00 177.90 167.90 178.21 L 166.96 178.47 C 165.86 178.78 165.22 179.93 165.53 181.04 C 165.84 182.14 166.98 182.78 168.09 182.47 Z M 169.01 182.20 L 169.99 181.93 C 171.09 181.62 171.73 180.49 171.43 179.39 C 171.12 178.29 169.99 177.65 168.89 177.95 L 167.91 178.22 C 166.81 178.53 166.17 179.66 166.47 180.76 C 166.78 181.86 167.91 182.50 169.01 182.20 Z M 169.98 181.91 L 171.00 181.63 C 172.09 181.34 172.73 180.21 172.44 179.12 C 172.14 178.03 171.01 177.39 169.92 177.69 L 168.90 177.97 C 167.81 178.26 167.17 179.39 167.47 180.48 C 167.77 181.57 168.89 182.21 169.98 181.91 Z M 170.99 181.62 L 172.04 181.34 C 173.12 181.04 173.76 179.93 173.47 178.84 C 173.17 177.76 172.06 177.12 170.98 177.42 L 169.93 177.70 C 168.85 177.99 168.21 179.11 168.50 180.19 C 168.79 181.27 169.91 181.91 170.99 181.62 Z M 172.03 181.31 L 173.00 181.05 C 174.07 180.76 174.71 179.66 174.42 178.59 C 174.13 177.52 173.03 176.89 171.96 177.18 L 170.99 177.44 C 169.92 177.73 169.28 178.83 169.57 179.90 C 169.86 180.97 170.96 181.60 172.03 181.31 Z M 172.99 181.01 L 173.95 180.76 C 175.00 180.48 175.62 179.40 175.34 178.35 C 175.06 177.30 173.98 176.68 172.93 176.96 L 171.97 177.21 C 170.93 177.49 170.30 178.57 170.58 179.62 C 170.86 180.67 171.94 181.29 172.99 181.01 Z M 173.93 180.72 L 174.90 180.46 C 175.92 180.19 176.54 179.14 176.26 178.11 C 175.99 177.08 174.94 176.47 173.91 176.74 L 172.95 177.00 C 171.92 177.27 171.31 178.33 171.58 179.35 C 171.85 180.38 172.91 180.99 173.93 180.72 Z M 174.88 180.42 L 175.85 180.17 C 176.86 179.90 177.46 178.87 177.19 177.87 C 176.93 176.86 175.90 176.26 174.89 176.53 L 173.92 176.78 C 172.92 177.05 172.32 178.08 172.58 179.08 C 172.85 180.09 173.88 180.69 174.88 180.42 Z M 175.84 180.13 L 176.82 179.87 C 177.80 179.61 178.39 178.60 178.13 177.62 C 177.87 176.64 176.86 176.05 175.88 176.31 L 174.90 176.57 C 173.92 176.83 173.33 177.83 173.59 178.82 C 173.85 179.80 174.86 180.39 175.84 180.13 Z M 176.80 179.83 L 177.78 179.57 C 178.74 179.32 179.31 178.34 179.06 177.38 C 178.81 176.42 177.83 175.84 176.87 176.09 L 175.89 176.35 C 174.93 176.60 174.35 177.59 174.61 178.55 C 174.86 179.51 175.84 180.08 176.80 179.83 Z M 177.77 179.54 L 178.30 179.40 C 179.24 179.16 179.80 178.19 179.56 177.25 C 179.31 176.30 178.34 175.74 177.40 175.99 L 176.87 176.13 C 175.93 176.37 175.37 177.34 175.61 178.28 C 175.86 179.23 176.83 179.79 177.77 179.54 Z"
      fill="black"
      fill-rule="nonzero" /></svg>