<svg xmlns="http://www.w3.org/2000/svg" width="300" height="300" viewBox="0 0 300 300">
<path d="M 133.66 123.56 L 133.97 124.50 C 134.26 125.35 135.19 125.81 136.04 125.52 C 136.89 125.23 137.35 124.31 137.06 123.45 L 136.74 122.51 C 136.46 121.66 135.53 121.20 134.68 121.49 C 133.83 121.78 133.37 122.71 133.66 123.56 Z M 133.94 124.42 L 134.21 125.38 C 134.45 126.26 135.36 126.76 136.23 126.52 C 137.11 126.27 137.62 125.36 137.37 124.49 L 137.10 123.53 C 136.85 122.66 135.95 122.15 135.07 122.40 C 134.20 122.64 133.69 123.55 133.94 124.42 Z M 134.16 125.23 L 134.33 126.19 C 134.49 127.09 135.35 127.69 136.25 127.53 C 137.15 127.36 137.75 126.50 137.59 125.60 L 137.42 124.64 C 137.25 123.74 136.39 123.15 135.50 123.31 C 134.60 123.47 134.00 124.33 134.16 125.23 Z M 134.30 126.03 L 134.38 126.97 C 134.45 127.88 135.25 128.57 136.17 128.50 C 137.08 128.42 137.77 127.62 137.69 126.71 L 137.62 125.77 C 137.55 124.85 136.75 124.17 135.83 124.24 C 134.91 124.31 134.23 125.11 134.30 126.03 Z M 134.36 126.87 L 134.39 127.90 C 134.41 128.82 135.17 129.55 136.09 129.53 C 137.01 129.51 137.75 128.75 137.73 127.82 L 137.71 126.80 C 137.69 125.88 136.92 125.15 136.00 125.17 C 135.08 125.19 134.34 125.95 134.36 126.87 Z M 134.38 127.86 L 134.38 128.92 C 134.38 129.85 135.13 130.60 136.06 130.60 C 136.99 130.60 137.74 129.85 137.74 128.92 L 137.74 127.86 C 137.73 126.93 136.98 126.18 136.05 126.18 C 135.13 126.18 134.38 126.93 134.38 127.86 Z M 134.37 128.92 L 134.37 129.94 C 134.37 130.88 135.12 131.63 136.05 131.64 C 136.99 131.64 137.74 130.88 137.74 129.95 L 137.75 128.92 C 137.75 127.99 136.99 127.24 136.06 127.23 C 135.13 127.23 134.37 127.99 134.37 128.92 Z M 134.36 129.93 L 134.35 130.96 C 134.34 131.90 135.10 132.66 136.03 132.67 C 136.97 132.68 137.74 131.93 137.75 130.99 L 137.75 129.96 C 137.76 129.02 137.01 128.26 136.07 128.25 C 135.13 128.24 134.37 129.00 134.36 129.93 Z M 134.34 130.94 L 134.32 131.90 C 134.30 132.85 135.05 133.63 135.99 133.64 C 136.94 133.66 137.72 132.91 137.74 131.97 L 137.75 131.01 C 137.77 130.07 137.02 129.29 136.08 129.27 C 135.14 129.25 134.36 130.00 134.34 130.94 Z M 134.31 131.86 L 134.27 132.94 C 134.22 133.89 134.96 134.69 135.90 134.73 C 136.85 134.77 137.65 134.04 137.69 133.09 L 137.74 132.01 C 137.79 131.07 137.05 130.26 136.10 130.22 C 135.16 130.18 134.36 130.91 134.31 131.86 Z M 134.26 132.87 L 134.18 133.83 C 134.10 134.78 134.80 135.62 135.75 135.70 C 136.70 135.78 137.54 135.08 137.62 134.13 L 137.70 133.16 C 137.78 132.21 137.08 131.38 136.13 131.30 C 135.18 131.22 134.34 131.92 134.26 132.87 Z M 134.18 133.76 L 134.06 134.66 C 133.94 135.61 134.61 136.47 135.56 136.60 C 136.51 136.72 137.38 136.05 137.50 135.10 L 137.62 134.20 C 137.74 133.25 137.07 132.38 136.12 132.26 C 135.17 132.14 134.30 132.81 134.18 133.76 Z M 134.06 134.60 L 133.91 135.50 C 133.76 136.45 134.40 137.35 135.35 137.51 C 136.30 137.66 137.20 137.02 137.35 136.07 L 137.50 135.16 C 137.66 134.21 137.01 133.32 136.06 133.16 C 135.12 133.00 134.22 133.65 134.06 134.60 Z M 133.91 135.47 L 133.72 136.49 C 133.54 137.44 134.17 138.36 135.13 138.53 C 136.08 138.71 136.99 138.08 137.17 137.12 L 137.36 136.10 C 137.53 135.15 136.90 134.24 135.95 134.06 C 135.00 133.89 134.08 134.52 133.91 135.47 Z M 133.71 136.48 L 133.52 137.49 C 133.34 138.45 133.97 139.38 134.93 139.56 C 135.88 139.74 136.81 139.11 136.99 138.15 L 137.18 137.13 C 137.36 136.18 136.73 135.25 135.77 135.07 C 134.81 134.89 133.89 135.52 133.71 136.48 Z M 133.51 137.49 L 133.32 138.46 C 133.14 139.42 133.77 140.35 134.74 140.54 C 135.70 140.72 136.63 140.09 136.82 139.12 L 137.00 138.15 C 137.18 137.19 136.55 136.26 135.58 136.07 C 134.62 135.89 133.69 136.52 133.51 137.49 Z M 133.31 138.45 L 133.11 139.46 C 132.92 140.43 133.56 141.37 134.53 141.56 C 135.50 141.75 136.44 141.12 136.63 140.14 L 136.83 139.13 C 137.02 138.16 136.38 137.22 135.41 137.03 C 134.44 136.84 133.50 137.48 133.31 138.45 Z M 133.10 139.45 L 132.90 140.45 C 132.70 141.43 133.34 142.38 134.31 142.58 C 135.29 142.78 136.24 142.14 136.44 141.16 L 136.64 140.16 C 136.84 139.18 136.21 138.23 135.23 138.03 C 134.25 137.83 133.30 138.47 133.10 139.45 Z M 132.89 140.43 L 132.67 141.46 C 132.46 142.45 133.09 143.42 134.08 143.63 C 135.06 143.83 136.03 143.20 136.24 142.22 L 136.45 141.19 C 136.66 140.20 136.03 139.23 135.05 139.02 C 134.06 138.82 133.09 139.45 132.89 140.43 Z M 132.65 141.45 L 132.44 142.44 C 132.22 143.44 132.85 144.42 133.85 144.64 C 134.85 144.85 135.83 144.22 136.04 143.22 L 136.26 142.23 C 136.47 141.23 135.84 140.25 134.84 140.04 C 133.84 139.82 132.86 140.46 132.65 141.45 Z M 132.41 142.46 L 132.22 143.40 C 132.01 144.41 132.66 145.40 133.67 145.61 C 134.68 145.82 135.66 145.17 135.87 144.16 L 136.07 143.21 C 136.28 142.20 135.63 141.21 134.62 141.00 C 133.61 140.80 132.62 141.45 132.41 142.46 Z M 132.18 143.44 L 131.99 144.47 C 131.81 145.50 132.49 146.49 133.52 146.67 C 134.55 146.86 135.54 146.17 135.73 145.14 L 135.91 144.11 C 136.10 143.08 135.41 142.10 134.38 141.91 C 133.35 141.73 132.36 142.41 132.18 143.44 Z M 131.92 144.63 L 131.82 145.72 C 131.73 146.79 132.51 147.74 133.58 147.83 C 134.65 147.93 135.60 147.14 135.70 146.07 L 135.80 144.98 C 135.89 143.91 135.11 142.97 134.04 142.87 C 132.97 142.77 132.02 143.56 131.92 144.63 Z M 131.79 146.26 L 131.95 147.11 C 132.15 148.20 133.20 148.92 134.28 148.71 C 135.37 148.51 136.09 147.47 135.89 146.38 L 135.73 145.53 C 135.53 144.44 134.48 143.73 133.39 143.93 C 132.31 144.13 131.59 145.18 131.79 146.26 Z M 132.60 148.31 L 133.16 148.78 C 134.02 149.51 135.32 149.40 136.04 148.54 C 136.77 147.67 136.66 146.38 135.80 145.65 L 135.24 145.18 C 134.37 144.45 133.08 144.56 132.35 145.42 C 131.62 146.29 131.73 147.58 132.60 148.31 Z M 134.28 149.29 L 135.24 149.38 C 136.38 149.48 137.40 148.65 137.51 147.50 C 137.61 146.36 136.77 145.34 135.63 145.24 L 134.67 145.15 C 133.53 145.04 132.51 145.88 132.41 147.02 C 132.30 148.16 133.14 149.18 134.28 149.29 Z M 135.74 149.39 L 136.91 149.22 C 138.06 149.05 138.85 147.98 138.68 146.83 C 138.51 145.68 137.45 144.89 136.30 145.05 L 135.13 145.23 C 133.98 145.39 133.19 146.46 133.35 147.61 C 133.52 148.76 134.59 149.56 135.74 149.39 Z M 137.09 149.19 L 138.02 148.97 C 139.16 148.70 139.86 147.56 139.59 146.43 C 139.32 145.29 138.18 144.59 137.04 144.86 L 136.11 145.08 C 134.98 145.35 134.27 146.49 134.54 147.62 C 134.81 148.76 135.95 149.46 137.09 149.19 Z M 138.10 148.96 L 139.08 148.69 C 140.21 148.37 140.87 147.20 140.55 146.07 C 140.24 144.94 139.07 144.28 137.94 144.60 L 136.96 144.87 C 135.83 145.19 135.17 146.36 135.49 147.49 C 135.80 148.62 136.97 149.28 138.10 148.96 Z M 139.14 148.68 L 140.13 148.37 C 141.25 148.03 141.88 146.83 141.54 145.71 C 141.19 144.58 140.00 143.95 138.88 144.30 L 137.88 144.60 C 136.76 144.95 136.13 146.14 136.47 147.27 C 136.82 148.39 138.01 149.02 139.14 148.68 Z M 140.16 148.37 L 141.14 148.05 C 142.26 147.69 142.88 146.49 142.51 145.36 C 142.15 144.24 140.95 143.62 139.82 143.99 L 138.84 144.30 C 137.72 144.66 137.11 145.87 137.47 146.99 C 137.83 148.12 139.03 148.73 140.16 148.37 Z M 141.15 148.05 L 142.14 147.73 C 143.26 147.36 143.87 146.15 143.50 145.02 C 143.13 143.90 141.92 143.29 140.80 143.66 L 139.81 143.98 C 138.69 144.35 138.08 145.57 138.45 146.69 C 138.82 147.81 140.03 148.42 141.15 148.05 Z M 142.14 147.73 L 143.08 147.42 C 144.21 147.05 144.82 145.84 144.45 144.71 C 144.08 143.59 142.86 142.98 141.74 143.35 L 140.80 143.66 C 139.67 144.03 139.06 145.24 139.43 146.36 C 139.80 147.49 141.01 148.10 142.14 147.73 Z M 143.07 147.43 L 143.99 147.14 C 145.12 146.77 145.74 145.56 145.38 144.43 C 145.02 143.30 143.81 142.68 142.68 143.04 L 141.75 143.34 C 140.62 143.70 140.00 144.91 140.36 146.04 C 140.73 147.17 141.94 147.79 143.07 147.43 Z M 143.96 147.15 L 144.91 146.86 C 146.04 146.51 146.69 145.31 146.34 144.17 C 145.99 143.03 144.79 142.39 143.65 142.74 L 142.70 143.03 C 141.57 143.38 140.93 144.58 141.27 145.72 C 141.62 146.85 142.82 147.49 143.96 147.15 Z M 144.87 146.87 L 145.84 146.59 C 146.99 146.27 147.65 145.07 147.32 143.93 C 147.00 142.78 145.80 142.12 144.66 142.45 L 143.69 142.73 C 142.54 143.05 141.88 144.25 142.21 145.39 C 142.53 146.54 143.73 147.20 144.87 146.87 Z M 145.81 146.60 L 146.78 146.34 C 147.93 146.03 148.61 144.85 148.30 143.70 C 147.99 142.55 146.81 141.87 145.66 142.18 L 144.69 142.44 C 143.54 142.75 142.86 143.93 143.17 145.08 C 143.48 146.23 144.66 146.91 145.81 146.60 Z M 146.75 146.35 L 147.70 146.11 C 148.85 145.82 149.55 144.65 149.26 143.49 C 148.97 142.34 147.80 141.64 146.64 141.93 L 145.69 142.17 C 144.54 142.46 143.84 143.63 144.13 144.79 C 144.42 145.94 145.59 146.64 146.75 146.35 Z M 147.66 146.12 L 148.67 145.89 C 149.83 145.61 150.55 144.45 150.28 143.29 C 150.01 142.13 148.84 141.41 147.68 141.68 L 146.68 141.92 C 145.52 142.19 144.80 143.35 145.07 144.51 C 145.34 145.67 146.50 146.39 147.66 146.12 Z M 148.63 145.90 L 149.60 145.69 C 150.77 145.44 151.51 144.29 151.27 143.13 C 151.02 141.96 149.87 141.21 148.70 141.46 L 147.73 141.67 C 146.56 141.92 145.81 143.07 146.06 144.23 C 146.31 145.40 147.46 146.15 148.63 145.90 Z M 149.55 145.70 L 150.51 145.52 C 151.68 145.30 152.46 144.17 152.24 143.00 C 152.02 141.82 150.89 141.05 149.71 141.27 L 148.76 141.45 C 147.58 141.67 146.81 142.80 147.03 143.97 C 147.25 145.15 148.38 145.92 149.55 145.70 Z M 150.45 145.53 L 151.40 145.38 C 152.58 145.19 153.38 144.08 153.19 142.90 C 153.01 141.72 151.90 140.92 150.72 141.11 L 149.77 141.26 C 148.59 141.45 147.79 142.56 147.98 143.74 C 148.17 144.92 149.28 145.72 150.45 145.53 Z M 151.36 145.38 L 152.33 145.25 C 153.51 145.08 154.33 143.99 154.16 142.81 C 154.00 141.62 152.90 140.80 151.72 140.97 L 150.76 141.10 C 149.57 141.27 148.75 142.36 148.92 143.55 C 149.09 144.73 150.18 145.55 151.36 145.38 Z M 152.32 145.25 L 153.33 145.11 C 154.51 144.95 155.34 143.86 155.18 142.68 C 155.01 141.49 153.92 140.66 152.74 140.83 L 151.73 140.97 C 150.55 141.13 149.72 142.22 149.88 143.40 C 150.04 144.58 151.13 145.41 152.32 145.25 Z M 153.34 145.11 L 154.38 144.96 C 155.56 144.79 156.38 143.69 156.21 142.51 C 156.04 141.33 154.94 140.51 153.76 140.68 L 152.72 140.83 C 151.54 141.00 150.72 142.10 150.89 143.28 C 151.06 144.46 152.16 145.28 153.34 145.11 Z M 154.40 144.96 L 155.42 144.80 C 156.60 144.62 157.41 143.51 157.23 142.33 C 157.05 141.15 155.94 140.34 154.76 140.52 L 153.74 140.68 C 152.55 140.86 151.75 141.97 151.93 143.15 C 152.11 144.33 153.22 145.14 154.40 144.96 Z M 155.44 144.80 L 156.45 144.63 C 157.63 144.44 158.43 143.33 158.24 142.15 C 158.05 140.97 156.94 140.17 155.76 140.36 L 154.75 140.53 C 153.57 140.72 152.76 141.83 152.95 143.01 C 153.15 144.19 154.26 144.99 155.44 144.80 Z M 156.46 144.63 L 157.39 144.48 C 158.57 144.28 159.37 143.17 159.17 141.99 C 158.98 140.81 157.86 140.01 156.69 140.21 L 155.75 140.36 C 154.57 140.56 153.77 141.67 153.97 142.85 C 154.16 144.03 155.28 144.83 156.46 144.63 Z M 157.41 144.47 L 158.49 144.29 C 159.67 144.08 160.46 142.97 160.25 141.79 C 160.05 140.61 158.93 139.82 157.76 140.03 L 156.67 140.21 C 155.50 140.42 154.71 141.53 154.91 142.71 C 155.11 143.89 156.23 144.68 157.41 144.47 Z M 158.53 144.27 L 159.47 144.09 C 160.64 143.87 161.41 142.74 161.18 141.57 C 160.96 140.40 159.83 139.63 158.66 139.86 L 157.72 140.04 C 156.55 140.26 155.78 141.39 156.01 142.56 C 156.23 143.73 157.36 144.50 158.53 144.27 Z M 159.55 144.07 L 160.42 143.87 C 161.57 143.60 162.29 142.44 162.02 141.29 C 161.75 140.13 160.60 139.41 159.44 139.68 L 158.58 139.88 C 157.42 140.15 156.70 141.31 156.97 142.46 C 157.24 143.62 158.40 144.34 159.55 144.07 Z M 160.52 143.83 L 161.41 143.58 C 162.54 143.25 163.20 142.07 162.88 140.93 C 162.56 139.80 161.37 139.14 160.24 139.46 L 159.34 139.72 C 158.21 140.04 157.55 141.22 157.87 142.36 C 158.20 143.50 159.38 144.15 160.52 143.83 Z M 161.49 143.54 L 162.50 143.20 C 163.62 142.83 164.22 141.63 163.85 140.52 C 163.49 139.40 162.28 138.80 161.17 139.17 L 160.15 139.50 C 159.04 139.87 158.43 141.07 158.80 142.19 C 159.17 143.30 160.38 143.91 161.49 143.54 Z M 162.55 143.17 L 163.45 142.85 C 164.55 142.45 165.12 141.24 164.73 140.15 C 164.33 139.05 163.12 138.48 162.02 138.87 L 161.12 139.20 C 160.02 139.59 159.45 140.80 159.85 141.90 C 160.24 143.00 161.45 143.57 162.55 143.17 Z M 163.47 142.82 L 164.39 142.48 C 165.47 142.08 166.02 140.87 165.62 139.79 C 165.21 138.70 164.01 138.15 162.92 138.56 L 162.01 138.90 C 160.92 139.30 160.37 140.51 160.78 141.59 C 161.18 142.68 162.39 143.23 163.47 142.82 Z M 164.39 142.46 L 165.37 142.09 C 166.44 141.68 166.98 140.48 166.57 139.41 C 166.16 138.34 164.96 137.80 163.89 138.21 L 162.92 138.58 C 161.84 138.99 161.31 140.19 161.71 141.26 C 162.12 142.33 163.32 142.87 164.39 142.46 Z M 165.37 142.07 L 166.25 141.73 C 167.32 141.32 167.85 140.13 167.44 139.07 C 167.03 138.01 165.84 137.48 164.78 137.88 L 163.89 138.22 C 162.83 138.63 162.30 139.82 162.71 140.89 C 163.11 141.95 164.30 142.48 165.37 142.07 Z"
      fill="black"
      fill-rule="nonzero" /><path d="M 164.93 114.49 L 164.71 115.35 C 164.47 116.26 165.02 117.18 165.93 117.42 C 166.83 117.65 167.76 117.10 167.99 116.20 L 168.21 115.33 C 168.44 114.42 167.90 113.50 166.99 113.27 C 166.08 113.03 165.16 113.58 164.93 114.49 Z M 164.54 115.39 L 164.33 116.38 C 164.12 117.37 164.76 118.35 165.75 118.57 C 166.75 118.78 167.73 118.14 167.94 117.14 L 168.15 116.16 C 168.37 115.16 167.73 114.18 166.73 113.97 C 165.74 113.76 164.75 114.39 164.54 115.39 Z M 164.20 116.46 L 164.04 117.48 C 163.87 118.55 164.60 119.55 165.67 119.72 C 166.74 119.89 167.75 119.16 167.92 118.09 L 168.08 117.07 C 168.25 115.99 167.51 114.99 166.44 114.82 C 165.37 114.65 164.37 115.38 164.20 116.46 Z M 163.99 117.55 L 163.88 118.48 C 163.74 119.58 164.53 120.57 165.63 120.71 C 166.73 120.84 167.73 120.05 167.86 118.95 L 167.97 118.02 C 168.10 116.92 167.31 115.92 166.21 115.79 C 165.11 115.66 164.12 116.45 163.99 117.55 Z M 163.87 118.52 L 163.77 119.54 C 163.67 120.64 164.47 121.62 165.58 121.73 C 166.68 121.83 167.66 121.03 167.77 119.92 L 167.86 118.91 C 167.97 117.80 167.16 116.82 166.06 116.72 C 164.96 116.61 163.98 117.42 163.87 118.52 Z M 163.77 119.57 L 163.68 120.64 C 163.59 121.74 164.42 122.71 165.52 122.80 C 166.63 122.89 167.60 122.06 167.68 120.96 L 167.77 119.89 C 167.86 118.79 167.03 117.82 165.93 117.73 C 164.82 117.64 163.86 118.47 163.77 119.57 Z M 163.68 120.66 L 163.61 121.74 C 163.53 122.85 164.37 123.81 165.47 123.88 C 166.58 123.96 167.54 123.12 167.61 122.01 L 167.69 120.93 C 167.76 119.83 166.93 118.87 165.82 118.79 C 164.71 118.72 163.76 119.55 163.68 120.66 Z M 163.61 121.76 L 163.54 122.82 C 163.48 123.93 164.32 124.88 165.43 124.94 C 166.54 125.01 167.49 124.16 167.55 123.06 L 167.61 121.99 C 167.68 120.89 166.83 119.94 165.73 119.87 C 164.62 119.81 163.67 120.65 163.61 121.76 Z M 163.55 122.84 L 163.49 123.84 C 163.44 124.95 164.29 125.89 165.39 125.95 C 166.50 126.01 167.44 125.16 167.50 124.05 L 167.55 123.04 C 167.61 121.94 166.76 120.99 165.65 120.94 C 164.55 120.88 163.60 121.73 163.55 122.84 Z M 163.49 123.85 L 163.45 124.77 C 163.40 125.87 164.25 126.81 165.36 126.86 C 166.46 126.92 167.40 126.06 167.45 124.96 L 167.50 124.04 C 167.55 122.94 166.70 122.00 165.59 121.94 C 164.48 121.89 163.55 122.75 163.49 123.85 Z M 163.46 124.77 L 163.41 125.84 C 163.36 126.94 164.22 127.88 165.32 127.92 C 166.42 127.97 167.35 127.12 167.40 126.02 L 167.45 124.95 C 167.50 123.85 166.64 122.92 165.54 122.87 C 164.44 122.82 163.51 123.67 163.46 124.77 Z M 163.43 125.85 L 163.39 126.82 C 163.34 127.91 164.19 128.83 165.28 128.88 C 166.37 128.93 167.29 128.08 167.34 126.99 L 167.38 126.02 C 167.43 124.93 166.58 124.00 165.49 123.96 C 164.40 123.91 163.48 124.76 163.43 125.85 Z M 163.41 126.82 L 163.37 127.73 C 163.32 128.81 164.16 129.73 165.24 129.77 C 166.32 129.82 167.23 128.98 167.28 127.90 L 167.32 126.99 C 167.36 125.91 166.53 125.00 165.45 124.95 C 164.37 124.90 163.46 125.74 163.41 126.82 Z M 163.39 127.73 L 163.35 128.73 C 163.30 129.80 164.13 130.70 165.20 130.75 C 166.26 130.79 167.17 129.97 167.21 128.90 L 167.26 127.90 C 167.30 126.83 166.48 125.93 165.41 125.88 C 164.34 125.84 163.44 126.67 163.39 127.73 Z M 163.37 128.73 L 163.33 129.74 C 163.28 130.79 164.10 131.68 165.15 131.73 C 166.21 131.77 167.10 130.96 167.15 129.90 L 167.19 128.90 C 167.24 127.84 166.42 126.95 165.36 126.90 C 164.31 126.86 163.42 127.68 163.37 128.73 Z M 163.36 129.74 L 163.31 130.75 C 163.27 131.79 164.08 132.67 165.12 132.71 C 166.16 132.76 167.03 131.95 167.08 130.91 L 167.12 129.90 C 167.16 128.86 166.35 127.98 165.32 127.94 C 164.28 127.89 163.40 128.70 163.36 129.74 Z M 163.35 130.76 L 163.31 131.75 C 163.27 132.77 164.06 133.63 165.08 133.67 C 166.10 133.71 166.96 132.92 167.00 131.90 L 167.04 130.90 C 167.08 129.88 166.29 129.02 165.27 128.98 C 164.25 128.94 163.39 129.74 163.35 130.76 Z M 163.34 131.75 L 163.30 132.69 C 163.26 133.69 164.04 134.54 165.04 134.58 C 166.05 134.62 166.89 133.84 166.93 132.84 L 166.97 131.90 C 167.01 130.90 166.23 130.05 165.23 130.01 C 164.23 129.97 163.38 130.75 163.34 131.75 Z M 163.34 132.69 L 163.30 133.65 C 163.26 134.63 164.02 135.46 165.00 135.50 C 165.98 135.55 166.81 134.78 166.85 133.80 L 166.90 132.84 C 166.94 131.86 166.18 131.03 165.19 130.99 C 164.21 130.94 163.38 131.71 163.34 132.69 Z M 163.33 133.64 L 163.28 134.72 C 163.24 135.68 163.98 136.50 164.94 136.55 C 165.91 136.59 166.72 135.85 166.77 134.89 L 166.82 133.81 C 166.86 132.85 166.12 132.03 165.16 131.98 C 164.20 131.94 163.38 132.68 163.33 133.64 Z M 163.32 134.72 L 163.27 135.71 C 163.22 136.65 163.95 137.46 164.89 137.50 C 165.83 137.55 166.64 136.82 166.68 135.88 L 166.73 134.89 C 166.78 133.95 166.05 133.14 165.11 133.10 C 164.17 133.05 163.36 133.78 163.32 134.72 Z M 163.30 135.72 L 163.25 136.75 C 163.21 137.68 163.92 138.46 164.85 138.50 C 165.77 138.55 166.56 137.83 166.60 136.91 L 166.65 135.87 C 166.69 134.95 165.98 134.16 165.06 134.12 C 164.13 134.08 163.35 134.79 163.30 135.72 Z M 163.29 136.76 L 163.25 137.75 C 163.21 138.66 163.92 139.42 164.82 139.46 C 165.73 139.49 166.49 138.79 166.53 137.88 L 166.57 136.90 C 166.61 135.99 165.90 135.23 164.99 135.19 C 164.09 135.15 163.32 135.86 163.29 136.76 Z M 163.20 137.77 L 163.17 138.87 C 163.15 139.80 163.89 140.58 164.82 140.60 C 165.75 140.62 166.53 139.88 166.55 138.95 L 166.58 137.86 C 166.60 136.92 165.86 136.15 164.93 136.12 C 164.00 136.10 163.22 136.84 163.20 137.77 Z M 163.03 138.89 L 163.03 139.85 C 163.02 140.85 163.83 141.68 164.84 141.69 C 165.85 141.69 166.67 140.88 166.68 139.87 L 166.69 138.92 C 166.70 137.91 165.88 137.09 164.87 137.08 C 163.87 137.07 163.04 137.89 163.03 138.89 Z M 162.92 139.86 L 162.92 140.29 C 162.92 141.36 163.79 142.22 164.85 142.23 C 165.92 142.23 166.78 141.36 166.78 140.30 L 166.78 139.86 C 166.78 138.79 165.92 137.93 164.86 137.93 C 163.79 137.93 162.92 138.79 162.92 139.86 Z"
      fill="black"
      fill-rule="nonzero" /><path d="M 147.70 114.03 L 147.75 114.97 C 147.79 115.96 148.63 116.73 149.62 116.69 C 150.61 116.64 151.38 115.81 151.34 114.82 L 151.29 113.88 C 151.25 112.89 150.41 112.12 149.42 112.16 C 148.43 112.21 147.66 113.04 147.70 114.03 Z M 147.67 114.96 L 147.71 115.96 C 147.74 116.99 148.61 117.80 149.64 117.76 C 150.67 117.73 151.48 116.86 151.44 115.83 L 151.41 114.83 C 151.37 113.80 150.51 112.99 149.48 113.03 C 148.45 113.06 147.64 113.93 147.67 114.96 Z M 147.65 115.94 L 147.67 116.98 C 147.69 118.04 148.57 118.89 149.63 118.87 C 150.70 118.84 151.54 117.97 151.52 116.90 L 151.50 115.86 C 151.48 114.80 150.60 113.95 149.54 113.98 C 148.47 114.00 147.63 114.87 147.65 115.94 Z M 147.65 116.96 L 147.66 117.98 C 147.67 119.05 148.55 119.91 149.62 119.91 C 150.69 119.90 151.56 119.02 151.55 117.95 L 151.54 116.93 C 151.53 115.85 150.65 114.99 149.58 115.00 C 148.51 115.01 147.64 115.89 147.65 116.96 Z M 147.66 117.97 L 147.66 118.99 C 147.67 120.06 148.54 120.93 149.61 120.93 C 150.68 120.92 151.55 120.05 151.55 118.98 L 151.55 117.96 C 151.55 116.88 150.67 116.02 149.60 116.02 C 148.53 116.02 147.66 116.89 147.66 117.97 Z M 147.66 118.98 L 147.66 120.00 C 147.66 121.07 148.53 121.95 149.61 121.95 C 150.68 121.94 151.55 121.07 151.55 120.00 L 151.55 118.98 C 151.55 117.91 150.68 117.04 149.61 117.04 C 148.53 117.04 147.66 117.91 147.66 118.98 Z M 147.66 120.00 L 147.66 121.02 C 147.66 122.10 148.53 122.97 149.61 122.97 C 150.68 122.97 151.55 122.10 151.55 121.02 L 151.55 120.00 C 151.55 118.93 150.68 118.06 149.61 118.06 C 148.53 118.06 147.66 118.93 147.66 120.00 Z M 147.66 121.02 L 147.66 121.96 C 147.66 123.03 148.53 123.90 149.61 123.90 C 150.68 123.90 151.55 123.03 151.55 121.96 L 151.55 121.02 C 151.55 119.95 150.68 119.08 149.61 119.08 C 148.53 119.08 147.66 119.95 147.66 121.02 Z M 147.66 121.96 L 147.66 122.94 C 147.66 124.01 148.53 124.88 149.61 124.88 C 150.68 124.88 151.55 124.01 151.55 122.94 L 151.55 121.96 C 151.55 120.89 150.68 120.02 149.61 120.02 C 148.53 120.02 147.66 120.89 147.66 121.96 Z M 147.66 122.94 L 147.66 123.94 C 147.66 125.02 148.53 125.89 149.61 125.89 C 150.68 125.89 151.55 125.02 151.55 123.94 L 151.55 122.94 C 151.55 121.86 150.68 120.99 149.61 120.99 C 148.53 120.99 147.66 121.86 147.66 122.94 Z M 147.66 123.94 L 147.66 124.94 C 147.66 126.02 148.53 126.89 149.61 126.89 C 150.68 126.89 151.55 126.02 151.55 124.94 L 151.55 123.94 C 151.55 122.87 150.68 122.00 149.61 122.00 C 148.53 122.00 147.66 122.87 147.66 123.94 Z M 147.67 124.94 L 147.67 125.94 C 147.67 127.01 148.54 127.88 149.61 127.88 C 150.68 127.88 151.55 127.01 151.55 125.94 L 151.55 124.94 C 151.55 123.87 150.68 123.00 149.61 123.00 C 148.54 123.00 147.67 123.87 147.67 124.94 Z M 147.67 125.94 L 147.67 126.95 C 147.67 128.02 148.54 128.89 149.61 128.89 C 150.68 128.89 151.54 128.02 151.54 126.95 L 151.54 125.94 C 151.54 124.87 150.68 124.00 149.61 124.00 C 148.54 124.00 147.67 124.87 147.67 125.94 Z M 147.67 126.95 L 147.67 127.94 C 147.67 129.00 148.54 129.87 149.61 129.87 C 150.67 129.87 151.54 129.00 151.54 127.94 L 151.54 126.95 C 151.54 125.89 150.67 125.02 149.61 125.02 C 148.54 125.02 147.67 125.89 147.67 126.95 Z M 147.68 127.94 L 147.68 128.94 C 147.68 130.01 148.54 130.87 149.61 130.87 C 150.67 130.87 151.53 130.01 151.53 128.94 L 151.53 127.94 C 151.53 126.87 150.67 126.01 149.61 126.01 C 148.54 126.01 147.68 126.87 147.68 127.94 Z M 147.69 128.94 L 147.69 129.95 C 147.69 131.01 148.55 131.87 149.61 131.87 C 150.67 131.87 151.53 131.01 151.53 129.95 L 151.53 128.94 C 151.53 127.88 150.67 127.02 149.61 127.02 C 148.55 127.02 147.69 127.88 147.69 128.94 Z M 147.70 129.95 L 147.70 130.95 C 147.70 132.01 148.55 132.87 149.61 132.87 C 150.66 132.87 151.52 132.01 151.52 130.95 L 151.52 129.95 C 151.52 128.90 150.66 128.04 149.61 128.04 C 148.55 128.04 147.70 128.90 147.70 129.95 Z M 147.71 130.95 L 147.71 131.96 C 147.71 133.00 148.56 133.85 149.61 133.85 C 150.66 133.85 151.51 133.00 151.51 131.96 L 151.51 130.95 C 151.51 129.91 150.66 129.06 149.61 129.06 C 148.56 129.06 147.71 129.91 147.71 130.95 Z M 147.72 131.96 L 147.72 132.97 C 147.72 134.01 148.57 134.85 149.61 134.85 C 150.65 134.85 151.49 134.01 151.49 132.97 L 151.49 131.96 C 151.49 130.91 150.65 130.07 149.61 130.07 C 148.57 130.07 147.72 130.91 147.72 131.96 Z M 147.74 132.97 L 147.74 133.97 C 147.74 135.01 148.57 135.84 149.61 135.84 C 150.64 135.84 151.48 135.01 151.48 133.97 L 151.48 132.97 C 151.48 131.94 150.64 131.10 149.61 131.10 C 148.57 131.10 147.74 131.94 147.74 132.97 Z M 147.75 133.97 L 147.75 134.95 C 147.75 135.97 148.58 136.80 149.61 136.80 C 150.63 136.80 151.46 135.97 151.46 134.95 L 151.46 133.97 C 151.46 132.95 150.63 132.12 149.61 132.12 C 148.58 132.12 147.75 132.95 147.75 133.97 Z M 147.77 134.95 L 147.77 135.89 C 147.77 136.90 148.59 137.72 149.61 137.72 C 150.62 137.72 151.44 136.90 151.44 135.89 L 151.44 134.95 C 151.44 133.94 150.62 133.11 149.61 133.11 C 148.59 133.11 147.77 133.94 147.77 134.95 Z M 147.79 135.89 L 147.79 136.89 C 147.79 137.89 148.61 138.70 149.61 138.70 C 150.61 138.70 151.42 137.89 151.42 136.89 L 151.42 135.89 C 151.42 134.89 150.61 134.07 149.61 134.07 C 148.61 134.07 147.79 134.89 147.79 135.89 Z M 147.82 136.89 L 147.82 137.94 C 147.82 138.92 148.62 139.72 149.61 139.72 C 150.59 139.72 151.40 138.92 151.40 137.94 L 151.40 136.89 C 151.40 135.90 150.59 135.10 149.61 135.10 C 148.62 135.10 147.82 135.90 147.82 136.89 Z M 147.84 137.94 L 147.84 138.94 C 147.84 139.92 148.63 140.71 149.61 140.71 C 150.58 140.71 151.37 139.92 151.37 138.94 L 151.37 137.94 C 151.37 136.96 150.58 136.17 149.61 136.17 C 148.63 136.17 147.84 136.96 147.84 137.94 Z M 147.87 138.94 L 147.87 139.97 C 147.87 140.93 148.65 141.71 149.61 141.71 C 150.57 141.71 151.35 140.93 151.35 139.97 L 151.35 138.94 C 151.35 137.98 150.57 137.20 149.61 137.20 C 148.65 137.20 147.87 137.98 147.87 138.94 Z M 147.89 139.97 L 147.89 140.96 C 147.89 141.90 148.66 142.67 149.61 142.67 C 150.55 142.67 151.32 141.90 151.32 140.96 L 151.32 139.97 C 151.32 139.03 150.55 138.26 149.61 138.26 C 148.66 138.26 147.89 139.03 147.89 139.97 Z M 147.92 140.96 L 147.92 142.04 C 147.92 142.97 148.68 143.73 149.61 143.73 C 150.54 143.73 151.29 142.97 151.29 142.04 L 151.29 140.96 C 151.29 140.03 150.54 139.27 149.61 139.27 C 148.68 139.27 147.92 140.03 147.92 140.96 Z M 147.97 142.04 L 147.97 143.01 C 147.97 143.92 148.70 144.65 149.61 144.65 C 150.51 144.65 151.25 143.92 151.25 143.01 L 151.25 142.04 C 151.25 141.14 150.51 140.40 149.61 140.40 C 148.70 140.40 147.97 141.14 147.97 142.04 Z M 148.00 143.01 L 148.00 143.69 C 148.00 144.58 148.72 145.29 149.61 145.29 C 150.49 145.29 151.21 144.58 151.21 143.69 L 151.21 143.01 C 151.21 142.13 150.49 141.41 149.61 141.41 C 148.72 141.41 148.00 142.13 148.00 143.01 Z"
      fill="black"
      fill-rule="nonzero" /><path d="M 140.35 125.11 L 141.25 124.69 C 142.09 124.31 142.45 123.32 142.07 122.49 C 141.68 121.66 140.70 121.29 139.86 121.68 L 138.96 122.09 C 138.12 122.48 137.76 123.46 138.14 124.30 C 138.53 125.13 139.51 125.49 140.35 125.11 Z M 141.26 124.71 L 142.17 124.29 C 143.01 123.90 143.38 122.91 142.99 122.06 C 142.61 121.22 141.61 120.85 140.76 121.24 L 139.86 121.66 C 139.01 122.05 138.64 123.04 139.03 123.89 C 139.42 124.73 140.42 125.10 141.26 124.71 Z M 142.18 124.31 L 143.09 123.89 C 143.94 123.50 144.31 122.49 143.92 121.64 C 143.53 120.78 142.52 120.41 141.66 120.80 L 140.76 121.22 C 139.90 121.61 139.53 122.62 139.92 123.48 C 140.32 124.33 141.33 124.70 142.18 124.31 Z M 143.10 123.91 L 144.00 123.49 C 144.87 123.09 145.24 122.07 144.85 121.21 C 144.45 120.35 143.43 119.97 142.56 120.37 L 141.66 120.78 C 140.79 121.18 140.41 122.20 140.81 123.07 C 141.21 123.93 142.23 124.31 143.10 123.91 Z M 144.01 123.50 L 144.45 123.30 C 145.32 122.90 145.70 121.87 145.30 121.00 C 144.90 120.13 143.87 119.75 143.00 120.15 L 142.56 120.35 C 141.69 120.75 141.31 121.78 141.71 122.65 C 142.11 123.53 143.14 123.91 144.01 123.50 Z"
      fill="black"
      fill-rule="nonzero" /><path d="M 140.59 129.33 L 141.54 128.95 C 142.44 128.59 142.88 127.56 142.52 126.66 C 142.16 125.75 141.13 125.31 140.23 125.68 L 139.28 126.06 C 138.38 126.42 137.94 127.44 138.30 128.35 C 138.66 129.25 139.69 129.69 140.59 129.33 Z M 141.54 128.96 L 142.47 128.59 C 143.38 128.22 143.82 127.19 143.45 126.28 C 143.09 125.37 142.05 124.93 141.15 125.30 L 140.22 125.67 C 139.31 126.03 138.87 127.07 139.24 127.97 C 139.60 128.88 140.63 129.32 141.54 128.96 Z M 142.47 128.58 L 143.40 128.20 C 144.30 127.84 144.73 126.81 144.37 125.91 C 144.00 125.00 142.98 124.57 142.07 124.93 L 141.15 125.31 C 140.24 125.67 139.81 126.70 140.17 127.60 C 140.54 128.50 141.57 128.94 142.47 128.58 Z M 143.38 128.15 L 144.31 127.77 C 145.18 127.42 145.60 126.42 145.25 125.54 C 144.89 124.67 143.89 124.25 143.01 124.60 L 142.09 124.98 C 141.21 125.34 140.79 126.34 141.15 127.21 C 141.51 128.09 142.51 128.51 143.38 128.15 Z M 144.29 127.71 L 145.01 127.42 C 145.85 127.07 146.26 126.11 145.91 125.27 C 145.57 124.43 144.61 124.02 143.76 124.37 L 143.04 124.66 C 142.19 125.01 141.79 125.97 142.14 126.81 C 142.48 127.66 143.44 128.06 144.29 127.71 Z"
      fill="black"
      fill-rule="nonzero" /><path d="M 139.12 137.77 L 139.70 137.00 C 140.29 136.19 140.13 135.06 139.32 134.46 C 138.52 133.87 137.38 134.03 136.79 134.84 L 136.21 135.62 C 135.62 136.42 135.78 137.55 136.59 138.15 C 137.39 138.75 138.53 138.58 139.12 137.77 Z M 139.65 137.07 L 140.28 136.29 C 140.92 135.51 140.80 134.37 140.02 133.74 C 139.24 133.10 138.10 133.22 137.46 134.00 L 136.83 134.77 C 136.20 135.55 136.32 136.69 137.09 137.33 C 137.87 137.96 139.02 137.84 139.65 137.07 Z M 140.19 136.41 L 140.90 135.67 C 141.59 134.94 141.57 133.79 140.85 133.09 C 140.12 132.39 138.97 132.42 138.27 133.14 L 137.56 133.88 C 136.86 134.61 136.89 135.76 137.61 136.46 C 138.34 137.15 139.49 137.13 140.19 136.41 Z M 140.79 135.77 L 141.55 135.10 C 142.30 134.43 142.37 133.28 141.71 132.53 C 141.04 131.78 139.89 131.71 139.14 132.37 L 138.38 133.04 C 137.63 133.71 137.56 134.85 138.22 135.61 C 138.89 136.36 140.04 136.43 140.79 135.77 Z M 141.46 135.16 L 142.26 134.54 C 143.04 133.92 143.18 132.78 142.57 131.99 C 141.95 131.20 140.81 131.07 140.02 131.68 L 139.22 132.31 C 138.44 132.93 138.30 134.07 138.92 134.85 C 139.53 135.64 140.67 135.78 141.46 135.16 Z M 142.18 134.58 L 142.98 134.01 C 143.79 133.43 143.98 132.31 143.41 131.50 C 142.83 130.69 141.71 130.50 140.90 131.08 L 140.10 131.64 C 139.29 132.22 139.10 133.34 139.67 134.15 C 140.25 134.96 141.37 135.15 142.18 134.58 Z M 142.90 134.02 L 143.71 133.50 C 144.53 132.97 144.76 131.88 144.23 131.06 C 143.71 130.24 142.62 130.01 141.80 130.54 L 140.99 131.06 C 140.17 131.59 139.93 132.68 140.46 133.50 C 140.99 134.31 142.08 134.55 142.90 134.02 Z M 143.62 133.49 L 144.48 132.98 C 145.30 132.50 145.57 131.45 145.08 130.64 C 144.60 129.83 143.56 129.56 142.74 130.04 L 141.88 130.54 C 141.07 131.03 140.80 132.07 141.28 132.89 C 141.76 133.70 142.81 133.97 143.62 133.49 Z M 144.43 132.96 L 145.28 132.48 C 146.09 132.03 146.37 131.01 145.92 130.21 C 145.47 129.41 144.45 129.13 143.65 129.58 L 142.80 130.06 C 141.99 130.51 141.71 131.52 142.16 132.33 C 142.61 133.13 143.63 133.41 144.43 132.96 Z M 145.26 132.46 L 146.10 132.00 C 146.89 131.56 147.18 130.56 146.75 129.77 C 146.31 128.98 145.32 128.69 144.52 129.13 L 143.68 129.60 C 142.88 130.03 142.60 131.03 143.03 131.82 C 143.47 132.61 144.46 132.90 145.26 132.46 Z M 146.08 131.98 L 146.99 131.49 C 147.77 131.06 148.06 130.08 147.63 129.30 C 147.21 128.52 146.23 128.23 145.45 128.65 L 144.54 129.15 C 143.76 129.57 143.47 130.55 143.90 131.33 C 144.32 132.11 145.30 132.40 146.08 131.98 Z M 146.97 131.47 L 147.90 130.97 C 148.67 130.55 148.95 129.58 148.54 128.81 C 148.12 128.04 147.15 127.76 146.38 128.17 L 145.46 128.67 C 144.69 129.09 144.40 130.06 144.82 130.83 C 145.24 131.60 146.20 131.88 146.97 131.47 Z"
      fill="black"
      fill-rule="nonzero" /><path d="M 144.37 120.05 L 144.33 118.64 C 144.30 117.71 143.53 116.98 142.60 117.01 C 141.67 117.03 140.94 117.81 140.96 118.74 L 141.01 120.15 C 141.03 121.08 141.81 121.81 142.74 121.79 C 143.67 121.76 144.40 120.98 144.37 120.05 Z M 144.43 118.62 L 144.40 117.71 C 144.36 116.73 143.53 115.96 142.54 116.00 C 141.56 116.03 140.79 116.86 140.83 117.85 L 140.86 118.76 C 140.90 119.74 141.73 120.51 142.72 120.47 C 143.70 120.44 144.47 119.61 144.43 118.62 Z M 140.87 117.12 L 140.85 117.18 C 140.48 118.14 140.97 119.22 141.93 119.58 C 142.90 119.95 143.97 119.46 144.34 118.50 L 144.36 118.44 C 144.72 117.48 144.24 116.40 143.27 116.03 C 142.31 115.67 141.23 116.16 140.87 117.12 Z M 140.69 117.82 L 140.68 118.72 C 140.67 119.77 141.51 120.63 142.57 120.64 C 143.62 120.65 144.48 119.80 144.49 118.75 L 144.50 117.85 C 144.51 116.80 143.66 115.94 142.61 115.93 C 141.56 115.92 140.70 116.77 140.69 117.82 Z M 140.67 118.73 L 140.67 120.04 C 140.66 121.10 141.52 121.96 142.58 121.96 C 143.64 121.96 144.50 121.10 144.50 120.04 L 144.50 118.74 C 144.50 117.68 143.65 116.82 142.59 116.82 C 141.53 116.82 140.67 117.67 140.67 118.73 Z M 140.66 120.04 L 140.66 121.19 C 140.66 122.25 141.52 123.11 142.58 123.11 C 143.65 123.11 144.51 122.25 144.51 121.19 L 144.51 120.04 C 144.51 118.98 143.65 118.12 142.58 118.12 C 141.52 118.12 140.66 118.98 140.66 120.04 Z M 140.65 121.19 L 140.65 122.18 C 140.65 123.24 141.52 124.11 142.58 124.11 C 143.65 124.11 144.51 123.24 144.51 122.18 L 144.51 121.19 C 144.51 120.12 143.65 119.26 142.58 119.26 C 141.52 119.26 140.65 120.12 140.65 121.19 Z M 140.65 122.18 L 140.65 123.15 C 140.65 124.22 141.52 125.08 142.58 125.08 C 143.65 125.08 144.51 124.22 144.51 123.15 L 144.51 122.18 C 144.51 121.11 143.65 120.25 142.58 120.25 C 141.52 120.25 140.65 121.11 140.65 122.18 Z M 140.65 123.15 L 140.65 124.14 C 140.65 125.20 141.52 126.07 142.58 126.07 C 143.65 126.07 144.51 125.20 144.51 124.14 L 144.51 123.15 C 144.51 122.09 143.65 121.23 142.58 121.23 C 141.52 121.23 140.65 122.09 140.65 123.15 Z M 140.65 124.14 L 140.65 125.09 C 140.65 126.16 141.52 127.02 142.58 127.02 C 143.65 127.02 144.51 126.16 144.51 125.09 L 144.51 124.14 C 144.51 123.07 143.65 122.21 142.58 122.21 C 141.52 122.21 140.65 123.07 140.65 124.14 Z M 140.65 125.09 L 140.65 126.09 C 140.65 127.16 141.52 128.02 142.58 128.02 C 143.65 128.02 144.51 127.16 144.51 126.09 L 144.51 125.09 C 144.51 124.03 143.65 123.16 142.58 123.16 C 141.52 123.16 140.65 124.03 140.65 125.09 Z M 140.65 126.09 L 140.65 127.12 C 140.65 128.19 141.52 129.05 142.58 129.05 C 143.65 129.05 144.51 128.19 144.51 127.12 L 144.51 126.09 C 144.51 125.03 143.65 124.16 142.58 124.16 C 141.52 124.16 140.65 125.03 140.65 126.09 Z M 140.66 127.12 L 140.66 128.15 C 140.66 129.21 141.52 130.08 142.58 130.08 C 143.65 130.08 144.51 129.21 144.51 128.15 L 144.51 127.12 C 144.51 126.06 143.65 125.19 142.58 125.19 C 141.52 125.19 140.66 126.06 140.66 127.12 Z M 140.66 128.15 L 140.66 129.15 C 140.66 130.21 141.52 131.07 142.58 131.07 C 143.64 131.07 144.50 130.21 144.50 129.15 L 144.50 128.15 C 144.50 127.09 143.64 126.23 142.58 126.23 C 141.52 126.23 140.66 127.09 140.66 128.15 Z M 140.67 129.15 L 140.67 130.15 C 140.67 131.21 141.53 132.06 142.58 132.06 C 143.64 132.06 144.50 131.21 144.50 130.15 L 144.50 129.15 C 144.50 128.09 143.64 127.23 142.58 127.23 C 141.53 127.23 140.67 128.09 140.67 129.15 Z M 140.68 130.15 L 140.68 131.15 C 140.68 132.21 141.53 133.06 142.58 133.06 C 143.63 133.06 144.49 132.21 144.49 131.15 L 144.49 130.15 C 144.49 129.10 143.63 128.24 142.58 128.24 C 141.53 128.24 140.68 129.10 140.68 130.15 Z M 140.68 131.15 L 140.68 132.16 C 140.68 133.21 141.53 134.06 142.58 134.06 C 143.63 134.06 144.48 133.21 144.48 132.16 L 144.48 131.15 C 144.48 130.10 143.63 129.26 142.58 129.26 C 141.53 129.26 140.68 130.10 140.68 131.15 Z M 140.70 132.16 L 140.70 133.19 C 140.70 134.23 141.54 135.07 142.58 135.07 C 143.62 135.07 144.46 134.23 144.46 133.19 L 144.46 132.16 C 144.46 131.12 143.62 130.28 142.58 130.28 C 141.54 130.28 140.70 131.12 140.70 132.16 Z M 140.72 133.19 L 140.72 134.20 C 140.72 135.23 141.55 136.06 142.58 136.06 C 143.61 136.06 144.44 135.23 144.44 134.20 L 144.44 133.19 C 144.44 132.16 143.61 131.33 142.58 131.33 C 141.55 131.33 140.72 132.16 140.72 133.19 Z M 140.74 134.20 L 140.74 135.18 C 140.74 136.20 141.57 137.02 142.58 137.02 C 143.60 137.02 144.42 136.20 144.42 135.18 L 144.42 134.20 C 144.42 133.18 143.60 132.36 142.58 132.36 C 141.57 132.36 140.74 133.18 140.74 134.20 Z M 140.77 135.18 L 140.77 136.17 C 140.77 137.18 141.58 137.99 142.58 137.99 C 143.59 137.99 144.40 137.18 144.40 136.17 L 144.40 135.18 C 144.40 134.18 143.59 133.37 142.58 133.37 C 141.58 133.37 140.77 134.18 140.77 135.18 Z M 140.80 136.17 L 140.80 137.23 C 140.80 138.22 141.60 139.01 142.58 139.01 C 143.57 139.01 144.36 138.22 144.36 137.23 L 144.36 136.17 C 144.36 135.19 143.57 134.39 142.58 134.39 C 141.60 134.39 140.80 135.19 140.80 136.17 Z M 140.84 137.23 L 140.84 138.24 C 140.84 139.20 141.62 139.97 142.58 139.97 C 143.54 139.97 144.32 139.20 144.32 138.24 L 144.32 137.23 C 144.32 136.27 143.54 135.50 142.58 135.50 C 141.62 135.50 140.84 136.27 140.84 137.23 Z M 140.89 138.24 L 140.89 139.18 C 140.89 140.11 141.65 140.87 142.58 140.87 C 143.52 140.87 144.28 140.11 144.28 139.18 L 144.28 138.24 C 144.28 137.30 143.52 136.54 142.58 136.54 C 141.65 136.54 140.89 137.30 140.89 138.24 Z M 140.93 139.18 L 140.93 140.20 C 140.93 141.12 141.67 141.86 142.58 141.86 C 143.49 141.86 144.23 141.12 144.23 140.20 L 144.23 139.18 C 144.23 138.26 143.49 137.52 142.58 137.52 C 141.67 137.52 140.93 138.26 140.93 139.18 Z M 140.96 140.20 L 140.96 141.20 C 140.96 142.09 141.69 142.82 142.58 142.82 C 143.48 142.82 144.20 142.09 144.20 141.20 L 144.20 140.20 C 144.20 139.31 143.48 138.59 142.58 138.59 C 141.69 138.59 140.96 139.31 140.96 140.20 Z M 141.00 141.20 L 141.00 142.15 C 141.00 143.03 141.71 143.74 142.58 143.74 C 143.46 143.74 144.17 143.03 144.17 142.15 L 144.17 141.20 C 144.17 140.32 143.46 139.62 142.58 139.62 C 141.71 139.62 141.00 140.32 141.00 141.20 Z"
      fill="black"
      fill-rule="nonzero" /><path d="M 152.98 123.80 L 153.87 123.53 C 154.82 123.24 155.35 122.23 155.06 121.28 C 154.77 120.33 153.76 119.80 152.81 120.09 L 151.92 120.37 C 150.97 120.66 150.44 121.66 150.73 122.61 C 151.02 123.56 152.03 124.10 152.98 123.80 Z M 153.98 123.51 L 154.93 123.16 C 155.87 122.80 156.34 121.75 155.99 120.81 C 155.63 119.87 154.58 119.40 153.64 119.75 L 152.70 120.11 C 151.76 120.46 151.28 121.51 151.63 122.45 C 151.99 123.39 153.04 123.87 153.98 123.51 Z M 155.08 123.10 L 156.01 122.66 C 156.92 122.21 157.30 121.12 156.86 120.21 C 156.41 119.30 155.32 118.92 154.41 119.36 L 153.48 119.81 C 152.57 120.25 152.19 121.34 152.64 122.25 C 153.08 123.16 154.17 123.54 155.08 123.10 Z M 156.10 122.60 L 156.97 122.10 C 157.85 121.61 158.16 120.50 157.67 119.62 C 157.18 118.75 156.07 118.43 155.19 118.93 L 154.32 119.42 C 153.44 119.91 153.13 121.02 153.62 121.90 C 154.11 122.78 155.22 123.09 156.10 122.60 Z M 156.99 122.07 L 157.88 121.55 C 158.74 121.05 159.03 119.94 158.53 119.09 C 158.02 118.23 156.92 117.94 156.06 118.44 L 155.17 118.96 C 154.31 119.46 154.02 120.57 154.53 121.43 C 155.03 122.28 156.13 122.57 156.99 122.07 Z M 157.85 121.54 L 158.74 121.03 C 159.59 120.55 159.89 119.47 159.41 118.61 C 158.93 117.76 157.84 117.46 156.99 117.94 L 156.09 118.45 C 155.24 118.94 154.94 120.02 155.43 120.87 C 155.91 121.72 156.99 122.02 157.85 121.54 Z M 158.66 121.02 L 159.57 120.54 C 160.42 120.10 160.74 119.06 160.30 118.22 C 159.86 117.37 158.82 117.04 157.98 117.48 L 157.07 117.96 C 156.22 118.40 155.90 119.44 156.34 120.29 C 156.78 121.13 157.82 121.46 158.66 121.02 Z M 159.50 120.50 L 160.37 120.08 C 161.19 119.68 161.54 118.68 161.13 117.86 C 160.73 117.04 159.74 116.70 158.92 117.10 L 158.05 117.52 C 157.23 117.93 156.88 118.92 157.29 119.74 C 157.69 120.56 158.68 120.90 159.50 120.50 Z M 160.34 120.04 L 160.72 119.86 C 161.52 119.48 161.86 118.52 161.48 117.71 C 161.10 116.91 160.14 116.57 159.33 116.95 L 158.95 117.14 C 158.15 117.52 157.81 118.48 158.19 119.28 C 158.57 120.09 159.53 120.43 160.34 120.04 Z"
      fill="black"
      fill-rule="nonzero" /><path d="M 153.63 128.64 L 154.45 128.21 C 155.29 127.76 155.61 126.72 155.17 125.88 C 154.72 125.05 153.68 124.73 152.85 125.17 L 152.02 125.61 C 151.18 126.05 150.86 127.09 151.31 127.93 C 151.75 128.77 152.79 129.09 153.63 128.64 Z M 154.47 128.26 L 155.37 127.79 C 156.24 127.34 156.57 126.26 156.12 125.40 C 155.67 124.53 154.59 124.19 153.73 124.65 L 152.83 125.12 C 151.96 125.57 151.63 126.64 152.08 127.51 C 152.53 128.38 153.60 128.71 154.47 128.26 Z M 155.37 127.83 L 156.28 127.36 C 157.17 126.91 157.52 125.82 157.07 124.93 C 156.61 124.04 155.52 123.69 154.63 124.14 L 153.73 124.61 C 152.84 125.06 152.48 126.15 152.94 127.04 C 153.39 127.93 154.48 128.28 155.37 127.83 Z M 156.26 127.37 L 157.16 126.93 C 158.05 126.49 158.42 125.40 157.98 124.51 C 157.54 123.61 156.45 123.25 155.56 123.69 L 154.66 124.13 C 153.76 124.58 153.39 125.66 153.84 126.56 C 154.28 127.45 155.36 127.82 156.26 127.37 Z M 157.12 126.93 L 158.04 126.50 C 158.94 126.08 159.33 125.01 158.91 124.12 C 158.49 123.22 157.43 122.83 156.53 123.25 L 155.60 123.68 C 154.70 124.10 154.31 125.17 154.73 126.07 C 155.15 126.96 156.22 127.35 157.12 126.93 Z M 157.98 126.51 L 158.93 126.11 C 159.83 125.73 160.26 124.69 159.87 123.78 C 159.49 122.87 158.45 122.45 157.54 122.83 L 156.59 123.24 C 155.69 123.62 155.26 124.66 155.65 125.57 C 156.03 126.47 157.07 126.90 157.98 126.51 Z M 158.86 126.13 L 159.80 125.78 C 160.72 125.44 161.19 124.42 160.84 123.50 C 160.50 122.58 159.48 122.12 158.56 122.46 L 157.61 122.81 C 156.70 123.16 156.23 124.18 156.57 125.09 C 156.92 126.01 157.94 126.48 158.86 126.13 Z M 159.76 125.79 L 160.67 125.48 C 161.60 125.16 162.09 124.16 161.78 123.23 C 161.46 122.31 160.46 121.82 159.53 122.13 L 158.61 122.45 C 157.69 122.76 157.19 123.77 157.51 124.69 C 157.83 125.62 158.83 126.11 159.76 125.79 Z M 160.66 125.48 L 160.96 125.38 C 161.89 125.07 162.39 124.07 162.08 123.15 C 161.77 122.22 160.77 121.72 159.85 122.03 L 159.55 122.13 C 158.62 122.44 158.12 123.44 158.43 124.36 C 158.73 125.29 159.73 125.79 160.66 125.48 Z"
      fill="black"
      fill-rule="nonzero" /><path d="M 152.82 136.65 L 153.75 136.38 C 154.68 136.12 155.21 135.15 154.95 134.23 C 154.68 133.30 153.72 132.77 152.80 133.03 L 151.86 133.30 C 150.94 133.56 150.40 134.52 150.67 135.45 C 150.93 136.37 151.89 136.91 152.82 136.65 Z M 153.89 136.38 L 154.83 136.03 C 155.75 135.69 156.22 134.66 155.88 133.74 C 155.54 132.82 154.51 132.35 153.59 132.69 L 152.65 133.03 C 151.73 133.38 151.26 134.40 151.60 135.33 C 151.94 136.25 152.97 136.72 153.89 136.38 Z M 155.06 135.96 L 155.91 135.51 C 156.80 135.04 157.14 133.95 156.67 133.06 C 156.20 132.18 155.11 131.84 154.22 132.30 L 153.37 132.76 C 152.48 133.22 152.14 134.32 152.61 135.20 C 153.08 136.09 154.17 136.43 155.06 135.96 Z M 156.08 135.40 L 156.85 134.88 C 157.68 134.32 157.90 133.20 157.34 132.37 C 156.78 131.54 155.65 131.32 154.82 131.89 L 154.05 132.41 C 153.23 132.97 153.01 134.09 153.57 134.92 C 154.13 135.75 155.26 135.97 156.08 135.40 Z M 156.92 134.81 L 157.74 134.19 C 158.53 133.59 158.69 132.47 158.09 131.68 C 157.49 130.89 156.36 130.73 155.57 131.33 L 154.75 131.95 C 153.96 132.55 153.81 133.68 154.41 134.47 C 155.01 135.26 156.13 135.41 156.92 134.81 Z M 157.75 134.16 L 158.61 133.49 C 159.38 132.89 159.52 131.77 158.91 131.00 C 158.31 130.23 157.19 130.09 156.42 130.69 L 155.56 131.36 C 154.79 131.97 154.65 133.08 155.26 133.86 C 155.86 134.63 156.98 134.77 157.75 134.16 Z M 158.59 133.49 L 159.36 132.89 C 160.13 132.30 160.27 131.19 159.68 130.42 C 159.09 129.65 157.98 129.51 157.21 130.10 L 156.44 130.70 C 155.67 131.29 155.53 132.40 156.12 133.17 C 156.71 133.94 157.82 134.08 158.59 133.49 Z M 159.34 132.88 L 160.15 132.26 C 160.91 131.68 161.06 130.59 160.47 129.82 C 159.89 129.06 158.80 128.92 158.04 129.50 L 157.23 130.11 C 156.47 130.70 156.32 131.79 156.90 132.55 C 157.49 133.32 158.58 133.46 159.34 132.88 Z M 160.13 132.25 L 160.95 131.63 C 161.70 131.06 161.85 129.98 161.27 129.22 C 160.70 128.46 159.62 128.32 158.86 128.89 L 158.05 129.51 C 157.29 130.09 157.15 131.17 157.72 131.92 C 158.30 132.68 159.38 132.83 160.13 132.25 Z M 160.94 131.62 L 161.74 131.01 C 162.49 130.44 162.64 129.37 162.07 128.62 C 161.49 127.87 160.43 127.72 159.68 128.29 L 158.87 128.91 C 158.12 129.48 157.98 130.55 158.55 131.30 C 159.12 132.04 160.19 132.19 160.94 131.62 Z M 161.75 131.01 L 162.57 130.38 C 163.32 129.80 163.46 128.73 162.89 127.98 C 162.32 127.23 161.25 127.09 160.50 127.66 L 159.67 128.29 C 158.92 128.87 158.78 129.94 159.35 130.69 C 159.93 131.44 161.00 131.58 161.75 131.01 Z M 162.58 130.39 L 163.38 129.78 C 164.13 129.20 164.27 128.12 163.69 127.36 C 163.12 126.61 162.03 126.46 161.28 127.04 L 160.48 127.65 C 159.73 128.23 159.59 129.31 160.17 130.07 C 160.75 130.83 161.83 130.97 162.58 130.39 Z M 163.39 129.79 L 164.16 129.20 C 164.92 128.61 165.07 127.52 164.48 126.76 C 163.89 125.99 162.80 125.85 162.04 126.44 L 161.26 127.03 C 160.50 127.62 160.36 128.71 160.94 129.48 C 161.53 130.24 162.63 130.38 163.39 129.79 Z M 164.17 129.21 L 164.60 128.88 C 165.37 128.29 165.52 127.18 164.92 126.41 C 164.33 125.64 163.23 125.50 162.46 126.09 L 162.03 126.43 C 161.26 127.02 161.11 128.12 161.70 128.89 C 162.30 129.66 163.40 129.80 164.17 129.21 Z"
      fill="black"
      fill-rule="nonzero" /><path d="M 155.19 116.61 L 155.19 117.64 C 155.19 118.53 155.91 119.26 156.81 119.26 C 157.71 119.26 158.43 118.53 158.43 117.64 L 158.43 116.61 C 158.43 115.71 157.71 114.98 156.81 114.98 C 155.91 114.98 155.19 115.71 155.19 116.61 Z M 155.14 117.64 L 155.14 118.66 C 155.14 119.58 155.89 120.33 156.81 120.33 C 157.73 120.33 158.48 119.58 158.48 118.66 L 158.48 117.64 C 158.48 116.72 157.73 115.97 156.81 115.97 C 155.89 115.97 155.14 116.72 155.14 117.64 Z M 155.10 118.66 L 155.10 119.66 C 155.10 120.60 155.86 121.37 156.81 121.37 C 157.76 121.37 158.52 120.60 158.52 119.66 L 158.52 118.66 C 158.52 117.71 157.76 116.95 156.81 116.95 C 155.86 116.95 155.10 117.71 155.10 118.66 Z M 155.05 119.66 L 155.05 120.63 C 155.05 121.60 155.84 122.39 156.81 122.39 C 157.78 122.39 158.57 121.60 158.57 120.63 L 158.57 119.66 C 158.57 118.69 157.78 117.90 156.81 117.90 C 155.84 117.90 155.05 118.69 155.05 119.66 Z M 155.02 120.63 L 155.02 121.68 C 155.02 122.67 155.82 123.47 156.81 123.47 C 157.80 123.47 158.60 122.67 158.60 121.68 L 158.60 120.63 C 158.60 119.64 157.80 118.84 156.81 118.84 C 155.82 118.84 155.02 119.64 155.02 120.63 Z M 155.02 121.68 L 155.02 122.75 C 155.02 123.74 155.82 124.55 156.81 124.55 C 157.80 124.55 158.60 123.74 158.60 122.75 L 158.60 121.68 C 158.60 120.69 157.80 119.89 156.81 119.89 C 155.82 119.89 155.02 120.69 155.02 121.68 Z M 155.02 122.75 L 155.02 123.73 C 155.02 124.72 155.82 125.52 156.81 125.52 C 157.80 125.52 158.60 124.72 158.60 123.73 L 158.60 122.75 C 158.60 121.76 157.80 120.96 156.81 120.96 C 155.82 120.96 155.02 121.76 155.02 122.75 Z M 155.02 123.73 L 155.02 124.61 C 155.02 125.60 155.82 126.40 156.81 126.40 C 157.80 126.40 158.60 125.60 158.60 124.61 L 158.60 123.73 C 158.60 122.74 157.80 121.94 156.81 121.94 C 155.82 121.94 155.02 122.74 155.02 123.73 Z M 155.03 124.61 L 155.03 125.69 C 155.03 126.68 155.83 127.47 156.81 127.47 C 157.80 127.47 158.59 126.67 158.59 125.69 L 158.59 124.61 C 158.59 123.62 157.79 122.83 156.81 122.83 C 155.82 122.83 155.03 123.63 155.03 124.61 Z M 155.04 125.70 L 155.05 126.65 C 155.06 127.63 155.86 128.42 156.83 128.41 C 157.81 128.40 158.59 127.60 158.59 126.63 L 158.58 125.68 C 158.57 124.70 157.77 123.92 156.80 123.92 C 155.82 123.93 155.04 124.73 155.04 125.70 Z M 155.07 126.68 L 155.09 127.62 C 155.11 128.59 155.91 129.36 156.87 129.34 C 157.84 129.32 158.61 128.52 158.59 127.55 L 158.57 126.61 C 158.55 125.64 157.75 124.87 156.78 124.89 C 155.82 124.91 155.05 125.71 155.07 126.68 Z M 155.10 127.64 L 155.13 128.63 C 155.15 129.59 155.95 130.35 156.91 130.32 C 157.87 130.29 158.63 129.49 158.60 128.54 L 158.58 127.54 C 158.55 126.58 157.75 125.82 156.79 125.85 C 155.83 125.88 155.07 126.68 155.10 127.64 Z M 155.14 128.62 L 155.16 129.64 C 155.19 130.59 155.97 131.34 156.93 131.32 C 157.88 131.30 158.63 130.51 158.61 129.56 L 158.59 128.55 C 158.57 127.59 157.78 126.84 156.83 126.86 C 155.88 126.88 155.12 127.67 155.14 128.62 Z M 155.18 129.62 L 155.19 130.60 C 155.20 131.54 155.97 132.29 156.91 132.29 C 157.85 132.28 158.61 131.51 158.60 130.57 L 158.59 129.58 C 158.58 128.64 157.81 127.89 156.87 127.90 C 155.93 127.91 155.18 128.68 155.18 129.62 Z M 155.22 130.59 L 155.22 131.60 C 155.22 132.52 155.98 133.27 156.90 133.27 C 157.83 133.27 158.58 132.52 158.58 131.59 L 158.58 130.58 C 158.57 129.65 157.82 128.90 156.89 128.90 C 155.97 128.91 155.22 129.66 155.22 130.59 Z M 155.24 131.59 L 155.25 132.49 C 155.25 133.41 155.99 134.15 156.90 134.15 C 157.81 134.15 158.55 133.41 158.55 132.49 L 158.55 131.59 C 158.55 130.68 157.81 129.94 156.90 129.94 C 155.99 129.94 155.24 130.68 155.24 131.59 Z M 155.27 132.50 L 155.27 133.39 C 155.27 134.29 156.01 135.02 156.91 135.01 C 157.81 135.01 158.54 134.28 158.54 133.37 L 158.53 132.49 C 158.53 131.58 157.79 130.86 156.89 130.86 C 155.99 130.86 155.26 131.60 155.27 132.50 Z M 155.29 133.40 L 155.30 134.45 C 155.32 135.34 156.05 136.06 156.94 136.05 C 157.83 136.03 158.54 135.30 158.53 134.41 L 158.51 133.36 C 158.50 132.47 157.77 131.76 156.88 131.77 C 155.99 131.78 155.28 132.51 155.29 133.40 Z M 155.32 134.47 L 155.35 135.57 C 155.36 136.45 156.09 137.15 156.97 137.13 C 157.85 137.12 158.55 136.39 158.53 135.51 L 158.51 134.40 C 158.49 133.52 157.76 132.82 156.88 132.84 C 156.00 132.86 155.31 133.59 155.32 134.47 Z M 155.36 135.58 L 155.38 136.46 C 155.40 137.33 156.13 138.03 157.00 138.00 C 157.88 137.98 158.57 137.25 158.54 136.38 L 158.52 135.50 C 158.50 134.63 157.77 133.93 156.90 133.96 C 156.02 133.98 155.33 134.71 155.36 135.58 Z M 155.38 136.46 L 155.41 137.43 C 155.43 138.30 156.16 138.99 157.03 138.96 C 157.91 138.94 158.59 138.21 158.57 137.34 L 158.54 136.38 C 158.52 135.50 157.79 134.82 156.92 134.84 C 156.04 134.86 155.36 135.59 155.38 136.46 Z M 155.41 137.43 L 155.44 138.46 C 155.47 139.33 156.20 140.01 157.07 139.99 C 157.94 139.96 158.62 139.23 158.60 138.36 L 158.56 137.34 C 158.54 136.46 157.81 135.78 156.94 135.81 C 156.07 135.83 155.39 136.56 155.41 137.43 Z M 155.45 138.46 L 155.48 139.53 C 155.51 140.40 156.23 141.08 157.10 141.05 C 157.97 141.03 158.65 140.30 158.63 139.43 L 158.59 138.36 C 158.56 137.49 157.84 136.81 156.97 136.84 C 156.10 136.86 155.42 137.59 155.45 138.46 Z M 155.48 139.53 L 155.52 140.63 C 155.55 141.49 156.27 142.17 157.14 142.15 C 158.00 142.12 158.68 141.39 158.66 140.53 L 158.62 139.43 C 158.59 138.56 157.87 137.88 157.00 137.91 C 156.14 137.94 155.46 138.66 155.48 139.53 Z M 155.52 140.63 L 155.53 140.91 C 155.56 141.78 156.28 142.46 157.15 142.43 C 158.01 142.40 158.69 141.68 158.66 140.81 L 158.65 140.53 C 158.63 139.66 157.90 138.98 157.04 139.01 C 156.17 139.04 155.49 139.76 155.52 140.63 Z"
      fill="black"
      fill-rule="nonzero" /><path d="M 133.90 159.17 L 134.80 159.01 C 135.76 158.84 136.40 157.92 136.23 156.96 C 136.06 156.00 135.14 155.36 134.18 155.53 L 133.28 155.69 C 132.32 155.86 131.68 156.77 131.85 157.73 C 132.02 158.70 132.94 159.34 133.90 159.17 Z M 134.82 159.09 L 135.76 158.92 C 136.77 158.73 137.44 157.77 137.25 156.76 C 137.07 155.75 136.10 155.08 135.09 155.27 L 134.15 155.44 C 133.14 155.63 132.48 156.60 132.66 157.60 C 132.85 158.61 133.82 159.28 134.82 159.09 Z M 135.80 159.00 L 136.83 158.80 C 137.88 158.59 138.56 157.57 138.36 156.52 C 138.15 155.47 137.13 154.78 136.08 154.99 L 135.05 155.19 C 134.00 155.40 133.31 156.42 133.52 157.47 C 133.73 158.52 134.75 159.21 135.80 159.00 Z M 136.87 158.86 L 137.90 158.65 C 138.99 158.42 139.69 157.35 139.46 156.26 C 139.23 155.17 138.16 154.47 137.07 154.70 L 136.04 154.92 C 134.95 155.15 134.25 156.22 134.48 157.31 C 134.71 158.40 135.78 159.09 136.87 158.86 Z M 137.93 158.67 L 138.87 158.46 C 139.97 158.22 140.67 157.13 140.42 156.03 C 140.18 154.92 139.09 154.23 137.99 154.47 L 137.04 154.68 C 135.94 154.92 135.25 156.01 135.49 157.12 C 135.73 158.22 136.82 158.92 137.93 158.67 Z M 138.88 158.47 L 139.87 158.24 C 140.97 158.00 141.67 156.90 141.42 155.79 C 141.17 154.69 140.07 153.99 138.97 154.24 L 137.98 154.47 C 136.87 154.72 136.18 155.81 136.43 156.92 C 136.68 158.02 137.77 158.72 138.88 158.47 Z M 139.87 158.25 L 140.88 158.02 C 141.98 157.77 142.68 156.67 142.43 155.57 C 142.18 154.46 141.08 153.76 139.97 154.01 L 138.96 154.24 C 137.86 154.49 137.16 155.59 137.41 156.70 C 137.66 157.80 138.76 158.50 139.87 158.25 Z M 140.87 158.03 L 141.87 157.81 C 142.98 157.56 143.68 156.46 143.44 155.35 C 143.19 154.24 142.09 153.54 140.98 153.78 L 139.98 154.00 C 138.87 154.25 138.17 155.35 138.41 156.46 C 138.66 157.57 139.76 158.28 140.87 158.03 Z M 141.85 157.82 L 142.83 157.61 C 143.94 157.37 144.66 156.28 144.42 155.16 C 144.18 154.05 143.09 153.33 141.97 153.57 L 140.99 153.78 C 139.88 154.01 139.17 155.11 139.40 156.23 C 139.64 157.34 140.74 158.05 141.85 157.82 Z M 142.80 157.62 L 143.76 157.43 C 144.87 157.20 145.60 156.11 145.38 154.99 C 145.15 153.87 144.06 153.15 142.94 153.37 L 141.99 153.56 C 140.87 153.79 140.15 154.88 140.37 156.00 C 140.60 157.12 141.68 157.84 142.80 157.62 Z M 143.73 157.43 L 144.68 157.25 C 145.80 157.04 146.54 155.96 146.33 154.84 C 146.12 153.72 145.04 152.98 143.92 153.19 L 142.97 153.37 C 141.84 153.58 141.11 154.66 141.32 155.78 C 141.53 156.90 142.61 157.64 143.73 157.43 Z M 144.66 157.25 L 145.64 157.08 C 146.76 156.88 147.51 155.81 147.31 154.68 C 147.11 153.56 146.04 152.81 144.92 153.01 L 143.94 153.19 C 142.81 153.39 142.06 154.46 142.26 155.58 C 142.46 156.71 143.54 157.45 144.66 157.25 Z M 145.62 157.08 L 146.67 156.91 C 147.79 156.72 148.55 155.65 148.36 154.53 C 148.17 153.40 147.10 152.64 145.98 152.83 L 144.93 153.01 C 143.81 153.20 143.05 154.26 143.24 155.39 C 143.43 156.52 144.50 157.27 145.62 157.08 Z M 146.65 156.91 L 147.67 156.74 C 148.79 156.56 149.56 155.50 149.37 154.37 C 149.19 153.25 148.13 152.48 147.00 152.67 L 145.99 152.83 C 144.86 153.01 144.10 154.08 144.28 155.20 C 144.47 156.33 145.53 157.09 146.65 156.91 Z M 147.66 156.74 L 148.70 156.58 C 149.83 156.40 150.59 155.34 150.41 154.21 C 150.24 153.09 149.18 152.32 148.05 152.50 L 147.01 152.67 C 145.89 152.85 145.12 153.90 145.30 155.03 C 145.48 156.15 146.54 156.92 147.66 156.74 Z M 148.70 156.57 L 149.74 156.41 C 150.86 156.23 151.63 155.18 151.45 154.06 C 151.28 152.93 150.22 152.16 149.10 152.34 L 148.06 152.50 C 146.94 152.68 146.17 153.73 146.34 154.86 C 146.52 155.98 147.57 156.75 148.70 156.57 Z M 149.74 156.41 L 150.74 156.25 C 151.86 156.08 152.63 155.03 152.45 153.90 C 152.28 152.78 151.23 152.01 150.10 152.19 L 149.10 152.34 C 147.98 152.52 147.21 153.57 147.39 154.69 C 147.56 155.81 148.61 156.58 149.74 156.41 Z M 150.74 156.25 L 151.65 156.11 C 152.77 155.93 153.54 154.88 153.37 153.76 C 153.19 152.64 152.14 151.87 151.02 152.05 L 150.10 152.19 C 148.98 152.36 148.21 153.41 148.39 154.54 C 148.56 155.66 149.61 156.42 150.74 156.25 Z M 151.65 156.10 L 152.73 155.93 C 153.84 155.75 154.61 154.71 154.43 153.59 C 154.25 152.47 153.21 151.71 152.09 151.89 L 151.02 152.06 C 149.90 152.23 149.14 153.28 149.32 154.39 C 149.49 155.51 150.54 156.27 151.65 156.10 Z M 152.73 155.91 L 153.75 155.74 C 154.85 155.57 155.61 154.53 155.43 153.43 C 155.25 152.32 154.22 151.57 153.11 151.75 L 152.09 151.91 C 150.99 152.09 150.24 153.12 150.41 154.23 C 150.59 155.33 151.63 156.08 152.73 155.91 Z M 153.74 155.72 L 154.62 155.58 C 155.71 155.40 156.45 154.38 156.28 153.29 C 156.10 152.20 155.08 151.46 153.99 151.63 L 153.12 151.77 C 152.03 151.95 151.29 152.97 151.46 154.06 C 151.63 155.15 152.66 155.89 153.74 155.72 Z M 154.60 155.56 L 155.48 155.42 C 156.56 155.26 157.30 154.25 157.13 153.18 C 156.97 152.10 155.96 151.36 154.88 151.52 L 154.01 151.66 C 152.93 151.82 152.19 152.83 152.36 153.90 C 152.52 154.98 153.53 155.72 154.60 155.56 Z M 155.47 155.41 L 156.42 155.27 C 157.48 155.11 158.22 154.11 158.06 153.05 C 157.91 151.98 156.91 151.24 155.84 151.40 L 154.89 151.54 C 153.83 151.70 153.09 152.69 153.25 153.76 C 153.40 154.83 154.40 155.57 155.47 155.41 Z M 156.42 155.25 L 157.44 155.10 C 158.50 154.94 159.23 153.95 159.07 152.89 C 158.91 151.83 157.92 151.10 156.86 151.26 L 155.84 151.41 C 154.78 151.57 154.05 152.56 154.21 153.62 C 154.37 154.68 155.36 155.41 156.42 155.25 Z M 157.45 155.09 L 158.50 154.92 C 159.56 154.75 160.27 153.76 160.11 152.71 C 159.94 151.65 158.95 150.93 157.89 151.10 L 156.84 151.27 C 155.79 151.44 155.07 152.43 155.24 153.48 C 155.41 154.54 156.40 155.26 157.45 155.09 Z M 158.53 154.92 L 159.55 154.75 C 160.60 154.56 161.31 153.56 161.13 152.50 C 160.95 151.45 159.94 150.74 158.89 150.92 L 157.87 151.10 C 156.81 151.28 156.10 152.28 156.28 153.34 C 156.47 154.40 157.47 155.11 158.53 154.92 Z M 159.57 154.76 L 160.57 154.58 C 161.64 154.38 162.34 153.36 162.15 152.29 C 161.95 151.23 160.93 150.52 159.86 150.72 L 158.86 150.91 C 157.80 151.10 157.09 152.13 157.29 153.19 C 157.49 154.26 158.51 154.96 159.57 154.76 Z M 160.60 154.59 L 161.54 154.41 C 162.62 154.20 163.32 153.16 163.10 152.08 C 162.89 151.01 161.85 150.31 160.78 150.52 L 159.84 150.70 C 158.76 150.92 158.06 151.96 158.27 153.03 C 158.49 154.11 159.53 154.81 160.60 154.59 Z M 161.57 154.41 L 162.60 154.19 C 163.68 153.96 164.36 152.91 164.13 151.83 C 163.91 150.76 162.85 150.07 161.78 150.30 L 160.75 150.52 C 159.67 150.75 158.99 151.81 159.22 152.88 C 159.44 153.95 160.50 154.64 161.57 154.41 Z M 162.63 154.17 L 163.59 153.95 C 164.65 153.70 165.32 152.65 165.07 151.58 C 164.83 150.52 163.77 149.86 162.71 150.10 L 161.75 150.32 C 160.69 150.57 160.03 151.62 160.27 152.69 C 160.51 153.75 161.57 154.41 162.63 154.17 Z M 163.60 153.92 L 164.36 153.74 C 165.41 153.49 166.06 152.44 165.81 151.39 C 165.56 150.34 164.50 149.70 163.45 149.95 L 162.70 150.13 C 161.65 150.38 161.00 151.43 161.25 152.48 C 161.50 153.53 162.55 154.17 163.60 153.92 Z"
      fill="black"
      fill-rule="nonzero" /><path d="M 135.19 168.88 L 135.80 169.66 C 136.37 170.40 137.43 170.54 138.17 169.96 C 138.90 169.39 139.04 168.33 138.47 167.59 L 137.86 166.81 C 137.29 166.07 136.22 165.94 135.49 166.51 C 134.75 167.08 134.62 168.14 135.19 168.88 Z M 135.86 169.68 L 136.50 170.45 C 137.08 171.15 138.12 171.25 138.82 170.67 C 139.52 170.09 139.62 169.06 139.04 168.36 L 138.40 167.58 C 137.82 166.88 136.79 166.78 136.08 167.36 C 135.38 167.94 135.28 168.98 135.86 169.68 Z M 136.59 170.50 L 137.27 171.23 C 137.87 171.88 138.89 171.92 139.54 171.31 C 140.20 170.71 140.23 169.69 139.63 169.04 L 138.95 168.31 C 138.34 167.66 137.33 167.62 136.67 168.22 C 136.02 168.83 135.99 169.85 136.59 170.50 Z M 137.39 171.31 L 138.13 171.98 C 138.78 172.57 139.78 172.51 140.37 171.86 C 140.96 171.21 140.90 170.21 140.25 169.63 L 139.51 168.96 C 138.86 168.37 137.86 168.42 137.27 169.07 C 136.69 169.72 136.74 170.72 137.39 171.31 Z M 138.31 172.10 L 139.23 172.73 C 139.94 173.22 140.92 173.03 141.41 172.32 C 141.90 171.60 141.72 170.62 141.00 170.14 L 140.08 169.51 C 139.36 169.02 138.39 169.20 137.90 169.92 C 137.41 170.63 137.59 171.61 138.31 172.10 Z M 139.71 172.95 L 140.60 173.19 C 141.44 173.42 142.31 172.92 142.53 172.08 C 142.76 171.24 142.26 170.37 141.42 170.15 L 140.52 169.91 C 139.68 169.69 138.82 170.19 138.59 171.03 C 138.37 171.87 138.87 172.73 139.71 172.95 Z M 142.28 172.67 L 142.71 172.13 C 143.27 171.42 143.15 170.40 142.44 169.85 C 141.74 169.30 140.72 169.42 140.17 170.12 L 139.74 170.67 C 139.18 171.37 139.30 172.39 140.01 172.95 C 140.71 173.50 141.73 173.38 142.28 172.67 Z M 143.14 171.29 L 143.25 170.22 C 143.34 169.28 142.65 168.45 141.71 168.36 C 140.76 168.27 139.93 168.96 139.84 169.90 L 139.74 170.96 C 139.65 171.90 140.34 172.74 141.28 172.83 C 142.22 172.92 143.05 172.23 143.14 171.29 Z M 143.34 170.07 L 143.34 168.94 C 143.35 167.95 142.55 167.15 141.56 167.14 C 140.57 167.13 139.76 167.93 139.75 168.92 L 139.75 170.05 C 139.74 171.04 140.54 171.85 141.53 171.86 C 142.52 171.86 143.33 171.06 143.34 170.07 Z M 143.38 169.07 L 143.46 168.07 C 143.53 167.06 142.77 166.17 141.76 166.10 C 140.75 166.02 139.87 166.78 139.79 167.79 L 139.71 168.80 C 139.64 169.81 140.40 170.69 141.41 170.77 C 142.42 170.84 143.31 170.08 143.38 169.07 Z M 143.41 168.47 L 143.68 167.58 C 143.98 166.60 143.42 165.56 142.44 165.26 C 141.45 164.96 140.41 165.51 140.11 166.50 L 139.84 167.39 C 139.54 168.37 140.10 169.42 141.08 169.72 C 142.07 170.01 143.11 169.46 143.41 168.47 Z M 143.43 168.12 L 143.98 167.34 C 144.57 166.50 144.37 165.33 143.53 164.73 C 142.68 164.13 141.51 164.33 140.91 165.18 L 140.36 165.96 C 139.77 166.80 139.97 167.97 140.81 168.57 C 141.66 169.17 142.83 168.97 143.43 168.12 Z M 143.68 167.67 L 144.47 166.98 C 145.25 166.30 145.32 165.11 144.64 164.33 C 143.96 163.56 142.77 163.48 141.99 164.16 L 141.21 164.85 C 140.43 165.54 140.35 166.72 141.04 167.50 C 141.72 168.28 142.90 168.36 143.68 167.67 Z M 144.28 167.13 L 145.10 166.57 C 145.96 165.99 146.18 164.83 145.60 163.97 C 145.03 163.12 143.86 162.89 143.00 163.47 L 142.18 164.02 C 141.33 164.60 141.10 165.76 141.68 166.62 C 142.26 167.48 143.42 167.70 144.28 167.13 Z M 144.98 166.64 L 145.86 166.14 C 146.75 165.62 147.06 164.48 146.55 163.59 C 146.04 162.69 144.90 162.38 144.00 162.89 L 143.12 163.40 C 142.23 163.91 141.92 165.05 142.43 165.95 C 142.94 166.84 144.08 167.15 144.98 166.64 Z M 145.77 166.18 L 146.67 165.72 C 147.59 165.25 147.96 164.14 147.49 163.22 C 147.03 162.30 145.91 161.93 144.99 162.40 L 144.09 162.85 C 143.18 163.32 142.81 164.44 143.27 165.35 C 143.74 166.27 144.85 166.64 145.77 166.18 Z M 146.60 165.75 L 147.52 165.33 C 148.45 164.90 148.86 163.81 148.44 162.87 C 148.01 161.94 146.91 161.53 145.98 161.95 L 145.07 162.37 C 144.13 162.80 143.72 163.89 144.15 164.83 C 144.57 165.76 145.67 166.17 146.60 165.75 Z M 147.46 165.35 L 148.37 164.97 C 149.31 164.57 149.76 163.49 149.37 162.55 C 148.98 161.61 147.90 161.17 146.95 161.56 L 146.04 161.94 C 145.10 162.33 144.66 163.41 145.05 164.35 C 145.44 165.29 146.52 165.74 147.46 165.35 Z M 148.33 164.97 L 149.19 164.64 C 150.13 164.27 150.60 163.20 150.23 162.26 C 149.86 161.31 148.79 160.85 147.85 161.22 L 146.99 161.55 C 146.05 161.92 145.58 162.99 145.95 163.93 C 146.32 164.88 147.39 165.34 148.33 164.97 Z M 149.15 164.64 L 150.02 164.32 C 150.97 163.97 151.45 162.92 151.10 161.97 C 150.75 161.03 149.70 160.54 148.76 160.89 L 147.89 161.21 C 146.94 161.56 146.46 162.61 146.80 163.56 C 147.15 164.50 148.20 164.99 149.15 164.64 Z M 149.97 164.33 L 150.98 163.99 C 151.93 163.66 152.44 162.63 152.11 161.68 C 151.79 160.73 150.76 160.22 149.81 160.55 L 148.80 160.89 C 147.85 161.21 147.35 162.24 147.67 163.19 C 147.99 164.14 149.02 164.65 149.97 164.33 Z M 150.93 163.99 L 151.95 163.68 C 152.90 163.38 153.43 162.37 153.13 161.41 C 152.84 160.46 151.82 159.93 150.87 160.22 L 149.86 160.54 C 148.90 160.84 148.37 161.85 148.67 162.80 C 148.96 163.76 149.98 164.29 150.93 163.99 Z M 151.91 163.68 L 152.88 163.40 C 153.84 163.12 154.39 162.12 154.11 161.17 C 153.83 160.21 152.83 159.66 151.88 159.94 L 150.91 160.22 C 149.95 160.50 149.40 161.50 149.68 162.45 C 149.96 163.41 150.95 163.95 151.91 163.68 Z M 152.85 163.40 L 153.85 163.13 C 154.81 162.87 155.38 161.89 155.12 160.93 C 154.86 159.98 153.88 159.41 152.92 159.67 L 151.91 159.94 C 150.96 160.19 150.39 161.18 150.65 162.13 C 150.91 163.09 151.89 163.66 152.85 163.40 Z M 153.81 163.13 L 154.79 162.89 C 155.75 162.66 156.34 161.69 156.10 160.73 C 155.87 159.77 154.90 159.19 153.94 159.42 L 152.96 159.66 C 152.00 159.90 151.42 160.86 151.65 161.82 C 151.89 162.78 152.85 163.37 153.81 163.13 Z M 154.73 162.90 L 155.81 162.68 C 156.77 162.48 157.39 161.54 157.19 160.58 C 156.99 159.62 156.06 159.00 155.09 159.19 L 154.01 159.42 C 153.05 159.61 152.43 160.55 152.63 161.51 C 152.82 162.48 153.76 163.10 154.73 162.90 Z M 155.62 162.69 L 156.75 162.58 C 157.72 162.49 158.43 161.63 158.33 160.66 C 158.24 159.69 157.38 158.98 156.41 159.07 L 155.28 159.18 C 154.31 159.27 153.60 160.13 153.69 161.10 C 153.79 162.08 154.65 162.79 155.62 162.69 Z M 156.17 162.53 L 156.94 162.71 C 157.88 162.93 158.82 162.35 159.04 161.41 C 159.27 160.47 158.68 159.53 157.74 159.30 L 156.98 159.12 C 156.04 158.90 155.10 159.48 154.87 160.42 C 154.65 161.36 155.23 162.31 156.17 162.53 Z M 155.85 161.91 L 156.24 162.55 C 156.74 163.38 157.81 163.64 158.64 163.14 C 159.46 162.64 159.72 161.56 159.22 160.74 L 158.83 160.10 C 158.33 159.28 157.26 159.02 156.43 159.52 C 155.61 160.02 155.35 161.09 155.85 161.91 Z M 155.99 161.55 L 155.94 162.58 C 155.89 163.54 156.62 164.36 157.58 164.41 C 158.54 164.47 159.36 163.73 159.41 162.77 L 159.47 161.74 C 159.52 160.78 158.78 159.96 157.82 159.91 C 156.86 159.86 156.04 160.60 155.99 161.55 Z M 156.02 162.13 L 155.69 163.13 C 155.39 164.05 155.89 165.03 156.80 165.33 C 157.71 165.63 158.70 165.14 159.00 164.22 L 159.33 163.22 C 159.63 162.31 159.13 161.32 158.22 161.02 C 157.31 160.72 156.32 161.22 156.02 162.13 Z M 155.78 162.90 L 155.35 163.77 C 154.92 164.64 155.27 165.68 156.13 166.11 C 157.00 166.54 158.04 166.19 158.47 165.33 L 158.90 164.46 C 159.33 163.59 158.98 162.55 158.12 162.12 C 157.26 161.69 156.21 162.04 155.78 162.90 Z M 155.42 163.65 L 154.88 164.53 C 154.39 165.35 154.65 166.43 155.48 166.93 C 156.30 167.42 157.37 167.16 157.87 166.33 L 158.40 165.45 C 158.90 164.63 158.64 163.56 157.81 163.06 C 156.99 162.56 155.92 162.82 155.42 163.65 Z M 154.92 164.46 L 154.36 165.31 C 153.82 166.12 154.04 167.20 154.84 167.73 C 155.65 168.27 156.73 168.05 157.26 167.25 L 157.83 166.40 C 158.36 165.60 158.15 164.51 157.35 163.98 C 156.54 163.45 155.46 163.66 154.92 164.46 Z M 154.38 165.28 L 153.81 166.09 C 153.26 166.88 153.45 167.97 154.24 168.52 C 155.03 169.07 156.12 168.88 156.67 168.10 L 157.24 167.28 C 157.79 166.50 157.60 165.41 156.82 164.85 C 156.03 164.30 154.94 164.49 154.38 165.28 Z M 153.84 166.06 L 153.24 166.87 C 152.67 167.65 152.84 168.74 153.61 169.31 C 154.39 169.88 155.48 169.71 156.05 168.94 L 156.65 168.12 C 157.22 167.35 157.05 166.26 156.27 165.69 C 155.50 165.12 154.41 165.28 153.84 166.06 Z M 153.26 166.85 L 152.64 167.65 C 152.06 168.42 152.21 169.51 152.97 170.10 C 153.74 170.68 154.83 170.53 155.42 169.77 L 156.03 168.96 C 156.62 168.20 156.47 167.10 155.70 166.52 C 154.94 165.93 153.84 166.08 153.26 166.85 Z M 152.66 167.63 L 152.04 168.41 C 151.45 169.16 151.57 170.26 152.33 170.86 C 153.08 171.46 154.18 171.33 154.78 170.57 L 155.40 169.79 C 156.00 169.04 155.87 167.94 155.11 167.34 C 154.36 166.74 153.26 166.87 152.66 167.63 Z M 152.06 168.38 L 151.43 169.16 C 150.82 169.90 150.93 171.00 151.67 171.61 C 152.42 172.22 153.51 172.11 154.13 171.37 L 154.76 170.60 C 155.37 169.85 155.26 168.75 154.52 168.14 C 153.77 167.53 152.68 167.64 152.06 168.38 Z M 151.45 169.13 L 150.80 169.90 C 150.18 170.63 150.27 171.73 151.00 172.36 C 151.73 172.98 152.83 172.89 153.46 172.16 L 154.11 171.39 C 154.73 170.66 154.64 169.56 153.91 168.94 C 153.17 168.31 152.07 168.40 151.45 169.13 Z M 150.82 169.87 L 150.15 170.64 C 149.51 171.36 149.58 172.46 150.30 173.10 C 151.03 173.74 152.13 173.67 152.76 172.94 L 153.44 172.18 C 154.07 171.46 154.00 170.35 153.28 169.72 C 152.56 169.08 151.46 169.15 150.82 169.87 Z M 150.16 170.62 L 149.48 171.37 C 148.83 172.08 148.88 173.19 149.59 173.84 C 150.31 174.49 151.41 174.43 152.06 173.72 L 152.75 172.97 C 153.40 172.25 153.35 171.15 152.63 170.50 C 151.92 169.85 150.81 169.90 150.16 170.62 Z M 149.49 171.34 L 148.82 172.07 C 148.15 172.77 148.19 173.88 148.89 174.54 C 149.60 175.21 150.70 175.17 151.37 174.47 L 152.05 173.74 C 152.71 173.04 152.68 171.93 151.97 171.27 C 151.27 170.60 150.16 170.64 149.49 171.34 Z M 148.83 172.04 L 148.15 172.75 C 147.47 173.44 147.48 174.55 148.18 175.23 C 148.87 175.91 149.99 175.89 150.66 175.20 L 151.35 174.49 C 152.03 173.80 152.01 172.68 151.32 172.01 C 150.62 171.33 149.51 171.35 148.83 172.04 Z M 148.17 172.71 L 147.45 173.42 C 146.76 174.10 146.75 175.22 147.43 175.91 C 148.11 176.61 149.23 176.62 149.93 175.93 L 150.64 175.23 C 151.34 174.55 151.34 173.43 150.66 172.74 C 149.98 172.04 148.86 172.03 148.17 172.71 Z M 147.49 173.37 L 146.76 174.04 C 146.04 174.71 146.00 175.83 146.66 176.55 C 147.33 177.27 148.45 177.31 149.17 176.65 L 149.89 175.98 C 150.61 175.31 150.66 174.19 149.99 173.47 C 149.33 172.75 148.21 172.71 147.49 173.37 Z M 146.81 173.99 L 146.05 174.64 C 145.30 175.28 145.22 176.40 145.85 177.15 C 146.49 177.90 147.62 177.98 148.36 177.35 L 149.12 176.70 C 149.87 176.06 149.96 174.93 149.32 174.19 C 148.68 173.44 147.55 173.35 146.81 173.99 Z M 146.10 174.59 L 145.31 175.21 C 144.53 175.82 144.40 176.95 145.01 177.72 C 145.62 178.50 146.75 178.63 147.52 178.02 L 148.31 177.40 C 149.09 176.79 149.22 175.66 148.61 174.89 C 148.00 174.11 146.88 173.98 146.10 174.59 Z M 145.37 175.16 L 144.55 175.74 C 143.75 176.32 143.56 177.44 144.14 178.25 C 144.71 179.05 145.83 179.24 146.64 178.66 L 147.46 178.08 C 148.27 177.50 148.45 176.38 147.88 175.57 C 147.30 174.77 146.18 174.58 145.37 175.16 Z M 144.64 175.68 L 143.75 176.24 C 142.91 176.76 142.65 177.88 143.18 178.72 C 143.71 179.56 144.82 179.82 145.67 179.29 L 146.55 178.73 C 147.40 178.20 147.65 177.09 147.12 176.24 C 146.59 175.40 145.48 175.15 144.64 175.68 Z M 143.89 176.13 L 142.77 176.69 C 141.86 177.15 141.50 178.24 141.95 179.14 C 142.41 180.05 143.50 180.41 144.40 179.96 L 145.53 179.39 C 146.43 178.94 146.79 177.84 146.34 176.94 C 145.89 176.04 144.79 175.68 143.89 176.13 Z M 143.26 176.49 L 142.67 176.60 C 141.66 176.78 140.99 177.74 141.16 178.76 C 141.34 179.77 142.31 180.44 143.32 180.26 L 143.91 180.16 C 144.92 179.98 145.59 179.01 145.41 178.00 C 145.24 176.99 144.27 176.31 143.26 176.49 Z M 144.63 179.36 L 144.93 178.82 C 145.45 177.92 145.14 176.77 144.23 176.26 C 143.33 175.75 142.19 176.06 141.67 176.96 L 141.36 177.50 C 140.85 178.40 141.16 179.55 142.06 180.06 C 142.97 180.58 144.11 180.26 144.63 179.36 Z M 144.57 179.29 L 145.55 178.40 C 146.32 177.70 146.38 176.51 145.68 175.74 C 144.98 174.97 143.79 174.91 143.02 175.61 L 142.04 176.50 C 141.27 177.19 141.21 178.38 141.91 179.16 C 142.61 179.93 143.80 179.98 144.57 179.29 Z M 145.42 178.51 L 146.13 177.97 C 146.97 177.34 147.13 176.16 146.51 175.33 C 145.88 174.50 144.70 174.33 143.87 174.96 L 143.15 175.50 C 142.32 176.12 142.15 177.30 142.78 178.14 C 143.41 178.97 144.59 179.13 145.42 178.51 Z M 146.06 178.02 L 146.88 177.46 C 147.74 176.87 147.96 175.70 147.37 174.84 C 146.79 173.99 145.61 173.76 144.76 174.35 L 143.94 174.91 C 143.08 175.49 142.86 176.66 143.45 177.52 C 144.03 178.38 145.20 178.60 146.06 178.02 Z M 146.82 177.50 L 147.72 176.93 C 148.59 176.38 148.86 175.22 148.31 174.34 C 147.75 173.46 146.59 173.20 145.71 173.75 L 144.82 174.31 C 143.94 174.87 143.67 176.03 144.23 176.91 C 144.78 177.79 145.94 178.05 146.82 177.50 Z M 147.66 176.96 L 148.60 176.41 C 149.50 175.89 149.80 174.74 149.27 173.84 C 148.75 172.95 147.60 172.65 146.71 173.17 L 145.77 173.72 C 144.87 174.25 144.57 175.40 145.10 176.29 C 145.62 177.18 146.77 177.48 147.66 176.96 Z M 148.56 176.43 L 149.48 175.92 C 150.39 175.42 150.72 174.28 150.22 173.38 C 149.72 172.47 148.59 172.14 147.68 172.64 L 146.75 173.15 C 145.85 173.65 145.52 174.79 146.02 175.69 C 146.51 176.60 147.65 176.93 148.56 176.43 Z M 149.44 175.93 L 150.36 175.45 C 151.27 174.98 151.63 173.86 151.16 172.95 C 150.69 172.04 149.56 171.68 148.65 172.15 L 147.73 172.63 C 146.82 173.10 146.46 174.22 146.93 175.13 C 147.40 176.04 148.52 176.40 149.44 175.93 Z M 150.31 175.47 L 151.18 175.05 C 152.10 174.60 152.49 173.50 152.05 172.58 C 151.61 171.66 150.50 171.27 149.58 171.72 L 148.71 172.14 C 147.79 172.58 147.40 173.68 147.84 174.60 C 148.28 175.52 149.39 175.91 150.31 175.47 Z M 151.11 175.06 L 152.00 174.67 C 152.93 174.27 153.35 173.19 152.95 172.27 C 152.55 171.34 151.48 170.92 150.55 171.32 L 149.66 171.71 C 148.73 172.11 148.31 173.18 148.71 174.11 C 149.11 175.03 150.18 175.46 151.11 175.06 Z M 151.88 174.66 L 152.89 174.29 C 153.81 173.96 154.29 172.95 153.96 172.03 C 153.63 171.11 152.61 170.63 151.70 170.96 L 150.68 171.33 C 149.76 171.66 149.28 172.67 149.61 173.59 C 149.94 174.51 150.96 174.99 151.88 174.66 Z M 152.76 174.25 L 153.63 173.99 C 154.53 173.74 155.04 172.81 154.79 171.91 C 154.53 171.02 153.60 170.50 152.70 170.76 L 151.83 171.01 C 150.94 171.27 150.42 172.20 150.68 173.09 C 150.93 173.99 151.87 174.50 152.76 174.25 Z M 153.58 173.95 L 153.90 173.86 C 154.76 173.64 155.28 172.75 155.06 171.88 C 154.83 171.02 153.94 170.50 153.08 170.72 L 152.76 170.81 C 151.89 171.03 151.37 171.92 151.60 172.79 C 151.82 173.65 152.71 174.17 153.58 173.95 Z"
      fill="black"
      fill-rule="nonzero" /><path d="M 138.77 180.92 L 139.50 181.68 C 140.18 182.38 141.29 182.39 141.98 181.72 C 142.68 181.04 142.69 179.93 142.02 179.23 L 141.29 178.48 C 140.61 177.78 139.50 177.77 138.80 178.44 C 138.11 179.12 138.09 180.23 138.77 180.92 Z M 139.49 181.71 L 140.21 182.44 C 140.90 183.14 142.03 183.15 142.73 182.46 C 143.43 181.77 143.44 180.64 142.75 179.94 L 142.03 179.21 C 141.34 178.51 140.21 178.50 139.51 179.19 C 138.81 179.88 138.80 181.01 139.49 181.71 Z M 140.21 182.48 L 140.91 183.17 C 141.62 183.87 142.77 183.87 143.47 183.16 C 144.17 182.44 144.16 181.30 143.45 180.60 L 142.75 179.91 C 142.04 179.20 140.90 179.21 140.20 179.92 C 139.49 180.63 139.50 181.78 140.21 182.48 Z M 140.93 183.22 L 141.62 183.87 C 142.36 184.56 143.52 184.53 144.21 183.79 C 144.90 183.06 144.87 181.90 144.13 181.21 L 143.44 180.55 C 142.70 179.86 141.54 179.89 140.85 180.63 C 140.16 181.37 140.19 182.52 140.93 183.22 Z M 141.69 183.92 L 142.51 184.63 C 143.28 185.28 144.42 185.20 145.08 184.44 C 145.74 183.67 145.65 182.52 144.89 181.87 L 144.07 181.16 C 143.30 180.50 142.15 180.59 141.50 181.35 C 140.84 182.11 140.93 183.26 141.69 183.92 Z M 142.63 184.67 L 143.41 185.25 C 144.20 185.84 145.31 185.68 145.90 184.89 C 146.49 184.11 146.33 182.99 145.54 182.40 L 144.77 181.82 C 143.98 181.23 142.86 181.39 142.28 182.18 C 141.69 182.97 141.85 184.09 142.63 184.67 Z M 143.57 185.31 L 144.36 185.80 C 145.18 186.30 146.25 186.04 146.75 185.23 C 147.26 184.41 147.00 183.34 146.18 182.83 L 145.39 182.35 C 144.57 181.84 143.50 182.10 143.00 182.92 C 142.49 183.73 142.75 184.81 143.57 185.31 Z M 144.54 185.83 L 145.45 186.27 C 146.28 186.68 147.29 186.33 147.69 185.49 C 148.10 184.65 147.75 183.65 146.91 183.24 L 146.00 182.80 C 145.17 182.40 144.16 182.75 143.76 183.58 C 143.35 184.42 143.70 185.42 144.54 185.83 Z M 145.57 186.25 L 146.48 186.62 C 147.31 186.96 148.25 186.56 148.59 185.73 C 148.92 184.91 148.52 183.97 147.70 183.63 L 146.79 183.26 C 145.96 182.92 145.02 183.32 144.68 184.15 C 144.35 184.97 144.75 185.92 145.57 186.25 Z M 146.52 186.59 L 146.66 186.65 C 147.47 186.97 148.38 186.56 148.70 185.75 C 149.01 184.94 148.61 184.03 147.80 183.71 L 147.66 183.66 C 146.85 183.34 145.94 183.74 145.62 184.55 C 145.30 185.37 145.71 186.28 146.52 186.59 Z"
      fill="black"
      fill-rule="nonzero" /><path d="M 153.70 172.82 L 153.23 173.62 C 152.68 174.55 152.99 175.74 153.92 176.29 C 154.84 176.84 156.04 176.53 156.59 175.60 L 157.06 174.80 C 157.61 173.88 157.30 172.68 156.37 172.13 C 155.44 171.58 154.25 171.89 153.70 172.82 Z M 153.21 173.62 L 152.70 174.50 C 152.15 175.43 152.47 176.64 153.41 177.18 C 154.34 177.73 155.54 177.42 156.09 176.48 L 156.60 175.60 C 157.15 174.66 156.84 173.46 155.90 172.91 C 154.96 172.37 153.76 172.68 153.21 173.62 Z M 152.69 174.50 L 152.19 175.37 C 151.64 176.31 151.97 177.52 152.91 178.06 C 153.86 178.61 155.06 178.28 155.61 177.34 L 156.11 176.47 C 156.65 175.53 156.32 174.32 155.38 173.78 C 154.44 173.23 153.23 173.56 152.69 174.50 Z M 152.19 175.37 L 151.70 176.21 C 151.15 177.16 151.48 178.37 152.42 178.91 C 153.36 179.46 154.57 179.13 155.12 178.19 L 155.61 177.34 C 156.15 176.40 155.83 175.19 154.88 174.65 C 153.94 174.10 152.73 174.42 152.19 175.37 Z M 151.71 176.19 L 151.18 177.09 C 150.63 178.02 150.94 179.23 151.87 179.79 C 152.81 180.34 154.02 180.04 154.57 179.10 L 155.10 178.21 C 155.66 177.27 155.35 176.06 154.41 175.51 C 153.48 174.95 152.27 175.26 151.71 176.19 Z M 151.21 177.05 L 150.65 177.95 C 150.08 178.87 150.36 180.08 151.28 180.65 C 152.20 181.23 153.41 180.95 153.99 180.03 L 154.55 179.13 C 155.12 178.21 154.84 177.00 153.92 176.43 C 153.00 175.85 151.79 176.13 151.21 177.05 Z M 150.70 177.91 L 150.13 178.77 C 149.54 179.67 149.78 180.87 150.68 181.47 C 151.57 182.06 152.78 181.81 153.37 180.92 L 153.94 180.06 C 154.53 179.16 154.29 177.96 153.39 177.37 C 152.50 176.77 151.29 177.02 150.70 177.91 Z M 150.18 178.75 L 149.61 179.57 C 149.00 180.44 149.21 181.63 150.08 182.24 C 150.95 182.84 152.14 182.63 152.75 181.76 L 153.32 180.94 C 153.93 180.08 153.71 178.88 152.85 178.28 C 151.98 177.67 150.79 177.88 150.18 178.75 Z M 149.66 179.55 L 149.09 180.32 C 148.48 181.16 148.66 182.34 149.50 182.96 C 150.34 183.57 151.51 183.39 152.13 182.55 L 152.70 181.78 C 153.31 180.94 153.13 179.77 152.29 179.15 C 151.45 178.53 150.27 178.71 149.66 179.55 Z M 149.15 180.30 L 148.51 181.13 C 147.89 181.93 148.03 183.10 148.84 183.72 C 149.65 184.35 150.81 184.20 151.44 183.39 L 152.07 182.57 C 152.70 181.76 152.55 180.60 151.75 179.97 C 150.94 179.35 149.77 179.50 149.15 180.30 Z M 148.58 181.10 L 147.95 181.86 C 147.31 182.64 147.42 183.78 148.19 184.42 C 148.96 185.06 150.11 184.95 150.75 184.18 L 151.37 183.42 C 152.01 182.64 151.90 181.50 151.13 180.86 C 150.36 180.22 149.21 180.33 148.58 181.10 Z M 148.01 181.84 L 147.37 182.57 C 146.72 183.31 146.79 184.43 147.53 185.08 C 148.26 185.73 149.39 185.66 150.04 184.93 L 150.68 184.20 C 151.33 183.46 151.26 182.34 150.52 181.69 C 149.79 181.04 148.66 181.11 148.01 181.84 Z M 147.43 182.55 L 146.75 183.28 C 146.09 183.98 146.12 185.08 146.82 185.75 C 147.52 186.41 148.63 186.38 149.29 185.67 L 149.97 184.95 C 150.64 184.25 150.60 183.14 149.90 182.48 C 149.20 181.82 148.10 181.85 147.43 182.55 Z M 146.81 183.26 L 146.10 183.96 C 145.42 184.63 145.42 185.71 146.08 186.39 C 146.75 187.06 147.84 187.07 148.51 186.40 L 149.22 185.70 C 149.90 185.03 149.90 183.94 149.24 183.27 C 148.57 182.60 147.48 182.59 146.81 183.26 Z M 146.16 183.94 L 145.43 184.61 C 144.75 185.24 144.70 186.31 145.33 187.00 C 145.96 187.68 147.03 187.73 147.71 187.10 L 148.45 186.42 C 149.13 185.79 149.18 184.73 148.55 184.04 C 147.92 183.36 146.85 183.31 146.16 183.94 Z M 145.50 184.60 L 144.75 185.24 C 144.05 185.83 143.97 186.87 144.56 187.57 C 145.16 188.26 146.20 188.35 146.89 187.75 L 147.65 187.11 C 148.34 186.52 148.42 185.48 147.83 184.78 C 147.24 184.09 146.19 184.00 145.50 184.60 Z M 144.81 185.23 L 144.02 185.86 C 143.33 186.42 143.22 187.44 143.78 188.14 C 144.33 188.83 145.35 188.95 146.05 188.39 L 146.83 187.76 C 147.53 187.20 147.64 186.18 147.08 185.48 C 146.52 184.79 145.50 184.67 144.81 185.23 Z M 144.07 185.86 L 143.28 186.47 C 142.58 187.00 142.45 188.00 142.99 188.70 C 143.52 189.40 144.52 189.53 145.22 188.99 L 146.01 188.39 C 146.70 187.85 146.84 186.85 146.30 186.15 C 145.76 185.46 144.76 185.33 144.07 185.86 Z M 143.30 186.47 L 142.51 187.06 C 141.81 187.59 141.67 188.58 142.19 189.27 C 142.71 189.97 143.70 190.11 144.40 189.59 L 145.20 188.99 C 145.89 188.47 146.03 187.48 145.51 186.78 C 144.99 186.09 144.00 185.95 143.30 186.47 Z M 142.52 187.06 L 141.70 187.67 C 141.01 188.18 140.86 189.16 141.37 189.86 C 141.89 190.56 142.87 190.71 143.57 190.19 L 144.39 189.59 C 145.08 189.07 145.23 188.09 144.72 187.39 C 144.20 186.70 143.22 186.55 142.52 187.06 Z M 141.71 187.67 L 141.39 187.91 C 140.69 188.42 140.54 189.40 141.05 190.09 C 141.57 190.79 142.54 190.94 143.24 190.43 L 143.56 190.19 C 144.26 189.68 144.41 188.70 143.90 188.00 C 143.39 187.31 142.41 187.16 141.71 187.67 Z"
      fill="black"
      fill-rule="nonzero" /><path d="M 128.88 194.15 L 129.90 193.97 C 130.88 193.80 131.53 192.86 131.36 191.89 C 131.18 190.91 130.25 190.26 129.28 190.44 L 128.26 190.62 C 127.28 190.79 126.63 191.72 126.80 192.70 C 126.97 193.67 127.91 194.32 128.88 194.15 Z M 129.95 194.12 L 130.94 193.93 C 132.00 193.74 132.70 192.72 132.50 191.66 C 132.30 190.60 131.29 189.91 130.23 190.10 L 129.24 190.29 C 128.18 190.48 127.48 191.50 127.68 192.56 C 127.87 193.61 128.89 194.31 129.95 194.12 Z M 131.00 194.08 L 131.95 193.88 C 133.08 193.65 133.82 192.54 133.59 191.41 C 133.35 190.27 132.24 189.54 131.11 189.77 L 130.17 189.96 C 129.03 190.19 128.30 191.30 128.53 192.44 C 128.76 193.57 129.87 194.31 131.00 194.08 Z M 132.02 193.96 L 133.02 193.72 C 134.20 193.45 134.93 192.27 134.65 191.09 C 134.38 189.92 133.20 189.19 132.03 189.46 L 131.03 189.70 C 129.85 189.97 129.12 191.15 129.40 192.32 C 129.67 193.50 130.85 194.23 132.02 193.96 Z M 133.08 193.72 L 134.03 193.47 C 135.21 193.16 135.91 191.96 135.60 190.79 C 135.30 189.62 134.10 188.91 132.92 189.22 L 131.97 189.47 C 130.80 189.77 130.09 190.97 130.40 192.15 C 130.70 193.32 131.90 194.03 133.08 193.72 Z M 134.05 193.47 L 134.98 193.22 C 136.15 192.90 136.85 191.70 136.54 190.53 C 136.22 189.35 135.02 188.66 133.84 188.97 L 132.91 189.22 C 131.74 189.53 131.04 190.74 131.35 191.91 C 131.67 193.09 132.87 193.78 134.05 193.47 Z M 134.97 193.22 L 135.91 192.98 C 137.08 192.67 137.79 191.47 137.48 190.30 C 137.18 189.12 135.98 188.42 134.80 188.72 L 133.86 188.97 C 132.68 189.27 131.98 190.47 132.28 191.65 C 132.59 192.82 133.79 193.53 134.97 193.22 Z M 135.89 192.98 L 136.87 192.73 C 138.05 192.43 138.76 191.24 138.47 190.06 C 138.17 188.88 136.97 188.17 135.80 188.47 L 134.81 188.72 C 133.64 189.02 132.92 190.21 133.22 191.39 C 133.52 192.57 134.71 193.28 135.89 192.98 Z M 136.87 192.74 L 137.85 192.49 C 139.03 192.20 139.74 191.00 139.45 189.82 C 139.16 188.65 137.96 187.93 136.78 188.22 L 135.80 188.47 C 134.63 188.76 133.91 189.95 134.20 191.13 C 134.49 192.31 135.69 193.03 136.87 192.74 Z M 137.84 192.49 L 138.81 192.25 C 139.99 191.96 140.71 190.77 140.41 189.59 C 140.12 188.41 138.93 187.69 137.75 187.98 L 136.79 188.22 C 135.61 188.51 134.89 189.70 135.18 190.88 C 135.47 192.06 136.66 192.78 137.84 192.49 Z M 138.81 192.26 L 139.79 192.01 C 140.97 191.72 141.69 190.53 141.40 189.35 C 141.11 188.17 139.92 187.45 138.74 187.74 L 137.75 187.98 C 136.57 188.27 135.85 189.46 136.14 190.64 C 136.43 191.83 137.62 192.55 138.81 192.26 Z M 139.79 192.02 L 140.77 191.77 C 141.95 191.48 142.67 190.29 142.38 189.11 C 142.09 187.93 140.89 187.21 139.71 187.50 L 138.74 187.74 C 137.55 188.03 136.83 189.22 137.12 190.40 C 137.41 191.58 138.61 192.31 139.79 192.02 Z M 140.76 191.78 L 141.73 191.54 C 142.91 191.25 143.63 190.06 143.34 188.87 C 143.05 187.69 141.85 186.97 140.67 187.26 L 139.71 187.50 C 138.53 187.79 137.81 188.98 138.10 190.16 C 138.39 191.34 139.58 192.07 140.76 191.78 Z M 141.72 191.54 L 142.69 191.30 C 143.88 191.02 144.60 189.82 144.31 188.64 C 144.03 187.46 142.83 186.73 141.65 187.02 L 140.68 187.26 C 139.49 187.55 138.77 188.74 139.06 189.92 C 139.35 191.11 140.54 191.83 141.72 191.54 Z M 142.69 191.31 L 143.66 191.07 C 144.85 190.79 145.58 189.60 145.29 188.41 C 145.01 187.23 143.82 186.50 142.63 186.78 L 141.66 187.02 C 140.47 187.30 139.74 188.49 140.03 189.68 C 140.31 190.86 141.50 191.59 142.69 191.31 Z M 143.65 191.08 L 144.60 190.85 C 145.78 190.57 146.52 189.38 146.24 188.20 C 145.96 187.01 144.77 186.28 143.58 186.56 L 142.64 186.78 C 141.46 187.06 140.72 188.25 141.00 189.44 C 141.28 190.62 142.47 191.36 143.65 191.08 Z M 144.59 190.85 L 145.56 190.63 C 146.75 190.35 147.49 189.17 147.21 187.98 C 146.94 186.79 145.75 186.06 144.56 186.33 L 143.59 186.56 C 142.40 186.83 141.67 188.02 141.94 189.21 C 142.22 190.39 143.40 191.13 144.59 190.85 Z M 145.56 190.63 L 146.56 190.40 C 147.75 190.12 148.49 188.94 148.22 187.76 C 147.95 186.57 146.76 185.83 145.58 186.10 L 144.57 186.33 C 143.38 186.60 142.64 187.79 142.91 188.97 C 143.19 190.16 144.37 190.90 145.56 190.63 Z M 146.56 190.40 L 147.54 190.18 C 148.72 189.91 149.47 188.72 149.20 187.54 C 148.93 186.35 147.75 185.61 146.56 185.88 L 145.58 186.10 C 144.40 186.37 143.65 187.55 143.92 188.74 C 144.19 189.92 145.37 190.67 146.56 190.40 Z M 147.53 190.17 L 148.52 189.95 C 149.70 189.68 150.45 188.50 150.18 187.32 C 149.91 186.13 148.73 185.39 147.55 185.66 L 146.56 185.88 C 145.38 186.15 144.63 187.33 144.90 188.51 C 145.17 189.70 146.35 190.44 147.53 190.17 Z M 148.52 189.95 L 149.50 189.73 C 150.69 189.46 151.43 188.28 151.16 187.10 C 150.89 185.91 149.72 185.17 148.53 185.43 L 147.55 185.66 C 146.36 185.92 145.62 187.10 145.88 188.29 C 146.15 189.48 147.33 190.22 148.52 189.95 Z M 149.50 189.73 L 150.47 189.51 C 151.66 189.24 152.40 188.06 152.13 186.87 C 151.86 185.69 150.68 184.95 149.50 185.22 L 148.53 185.44 C 147.34 185.71 146.60 186.88 146.87 188.07 C 147.14 189.25 148.32 190.00 149.50 189.73 Z M 150.47 189.50 L 151.47 189.27 C 152.65 189.00 153.39 187.83 153.12 186.64 C 152.85 185.46 151.68 184.72 150.49 184.99 L 149.50 185.22 C 148.31 185.49 147.57 186.67 147.84 187.85 C 148.11 189.03 149.29 189.77 150.47 189.50 Z M 151.47 189.27 L 152.44 189.05 C 153.62 188.78 154.36 187.61 154.09 186.43 C 153.83 185.25 152.65 184.51 151.47 184.78 L 150.50 185.00 C 149.32 185.26 148.58 186.44 148.85 187.62 C 149.11 188.80 150.29 189.54 151.47 189.27 Z M 152.42 189.05 L 153.39 188.83 C 154.56 188.58 155.31 187.41 155.05 186.23 C 154.79 185.06 153.63 184.31 152.45 184.57 L 151.49 184.78 C 150.31 185.04 149.56 186.20 149.82 187.38 C 150.08 188.56 151.25 189.31 152.42 189.05 Z M 153.36 188.83 L 154.33 188.63 C 155.51 188.38 156.26 187.23 156.02 186.05 C 155.77 184.88 154.62 184.12 153.44 184.37 L 152.47 184.57 C 151.29 184.82 150.54 185.97 150.79 187.15 C 151.03 188.33 152.19 189.08 153.36 188.83 Z M 154.32 188.63 L 155.30 188.43 C 156.47 188.19 157.23 187.05 156.99 185.87 C 156.76 184.70 155.61 183.94 154.44 184.17 L 153.46 184.37 C 152.28 184.61 151.52 185.75 151.76 186.93 C 152.00 188.10 153.14 188.86 154.32 188.63 Z M 155.29 188.42 L 156.27 188.22 C 157.45 187.99 158.20 186.85 157.97 185.68 C 157.73 184.51 156.59 183.75 155.42 183.98 L 154.44 184.18 C 153.27 184.42 152.51 185.56 152.75 186.73 C 152.98 187.90 154.12 188.66 155.29 188.42 Z M 156.29 188.21 L 157.27 188.01 C 158.43 187.77 159.18 186.63 158.94 185.47 C 158.70 184.30 157.56 183.55 156.39 183.79 L 155.41 184.00 C 154.25 184.24 153.50 185.38 153.74 186.54 C 153.98 187.71 155.12 188.45 156.29 188.21 Z M 157.28 188.00 L 158.28 187.78 C 159.43 187.53 160.17 186.39 159.92 185.23 C 159.67 184.08 158.53 183.34 157.37 183.59 L 156.38 183.81 C 155.22 184.06 154.49 185.20 154.74 186.36 C 154.99 187.51 156.13 188.25 157.28 188.00 Z M 158.28 187.77 L 159.26 187.55 C 160.41 187.30 161.14 186.16 160.88 185.01 C 160.63 183.86 159.49 183.14 158.34 183.39 L 157.36 183.61 C 156.22 183.86 155.49 185.00 155.74 186.15 C 156.00 187.29 157.13 188.02 158.28 187.77 Z M 159.25 187.54 L 160.22 187.33 C 161.36 187.08 162.08 185.95 161.83 184.81 C 161.59 183.67 160.46 182.94 159.32 183.19 L 158.35 183.40 C 157.21 183.65 156.49 184.78 156.74 185.92 C 156.98 187.06 158.11 187.79 159.25 187.54 Z M 160.19 187.32 L 161.19 187.11 C 162.33 186.88 163.06 185.76 162.82 184.63 C 162.59 183.49 161.48 182.76 160.34 182.99 L 159.34 183.20 C 158.20 183.44 157.47 184.55 157.71 185.69 C 157.94 186.82 159.05 187.55 160.19 187.32 Z M 161.17 187.10 L 162.16 186.90 C 163.29 186.68 164.03 185.58 163.80 184.45 C 163.57 183.32 162.48 182.58 161.35 182.81 L 160.36 183.01 C 159.23 183.23 158.49 184.33 158.72 185.46 C 158.95 186.59 160.04 187.33 161.17 187.10 Z M 162.17 186.88 L 163.12 186.69 C 164.24 186.46 164.97 185.37 164.74 184.25 C 164.51 183.13 163.42 182.41 162.30 182.63 L 161.34 182.83 C 160.22 183.05 159.50 184.15 159.73 185.27 C 159.95 186.39 161.05 187.11 162.17 186.88 Z M 163.15 186.67 L 164.07 186.47 C 165.18 186.23 165.88 185.14 165.64 184.03 C 165.40 182.92 164.31 182.21 163.20 182.45 L 162.28 182.65 C 161.17 182.89 160.47 183.99 160.71 185.10 C 160.95 186.20 162.04 186.91 163.15 186.67 Z M 164.09 186.45 L 165.02 186.24 C 166.11 185.99 166.80 184.90 166.55 183.80 C 166.30 182.70 165.21 182.02 164.12 182.26 L 163.18 182.48 C 162.09 182.72 161.40 183.82 161.65 184.91 C 161.90 186.01 162.99 186.70 164.09 186.45 Z M 165.01 186.22 L 166.01 185.99 C 167.10 185.75 167.79 184.67 167.54 183.58 C 167.30 182.49 166.22 181.81 165.13 182.05 L 164.12 182.28 C 163.04 182.52 162.35 183.61 162.60 184.69 C 162.84 185.78 163.92 186.46 165.01 186.22 Z M 165.99 185.98 L 167.01 185.76 C 168.09 185.53 168.78 184.47 168.55 183.39 C 168.32 182.31 167.25 181.62 166.17 181.85 L 165.15 182.07 C 164.07 182.30 163.38 183.36 163.61 184.44 C 163.85 185.52 164.91 186.21 165.99 185.98 Z M 166.98 185.75 L 167.99 185.55 C 169.06 185.33 169.76 184.29 169.54 183.21 C 169.33 182.14 168.28 181.44 167.21 181.66 L 166.20 181.86 C 165.13 182.08 164.43 183.12 164.65 184.20 C 164.86 185.27 165.91 185.97 166.98 185.75 Z M 167.96 185.54 L 168.98 185.34 C 170.04 185.14 170.75 184.12 170.55 183.05 C 170.34 181.98 169.32 181.28 168.25 181.48 L 167.23 181.67 C 166.17 181.87 165.47 182.90 165.67 183.97 C 165.87 185.03 166.89 185.74 167.96 185.54 Z M 168.94 185.33 L 169.91 185.17 C 170.97 184.99 171.68 183.98 171.50 182.92 C 171.32 181.86 170.31 181.15 169.25 181.33 L 168.29 181.50 C 167.23 181.68 166.52 182.68 166.70 183.74 C 166.88 184.80 167.88 185.51 168.94 185.33 Z M 169.85 185.15 L 170.93 184.99 C 171.98 184.84 172.70 183.87 172.55 182.82 C 172.40 181.78 171.43 181.05 170.39 181.20 L 169.31 181.35 C 168.26 181.50 167.53 182.47 167.68 183.52 C 167.83 184.57 168.80 185.30 169.85 185.15 Z M 170.85 184.96 L 171.84 184.85 C 172.87 184.74 173.62 183.82 173.51 182.79 C 173.40 181.76 172.48 181.02 171.45 181.13 L 170.46 181.23 C 169.43 181.34 168.69 182.26 168.80 183.29 C 168.91 184.32 169.83 185.06 170.85 184.96 Z M 171.79 184.81 L 172.68 184.73 C 173.68 184.65 174.43 183.77 174.35 182.77 C 174.27 181.77 173.39 181.02 172.39 181.10 L 171.50 181.17 C 170.50 181.25 169.75 182.13 169.83 183.14 C 169.91 184.14 170.79 184.89 171.79 184.81 Z"
      fill="black"
      fill-rule="nonzero" /></svg>