<svg xmlns="http://www.w3.org/2000/svg" width="300" height="300" viewBox="0 0 300 300">
<path d="M 137.30 118.12 L 137.43 118.92 C 137.59 119.85 138.47 120.49 139.40 120.33 C 140.33 120.18 140.97 119.29 140.81 118.36 L 140.68 117.56 C 140.53 116.63 139.64 116.00 138.71 116.15 C 137.78 116.30 137.14 117.19 137.30 118.12 Z M 137.43 119.27 L 137.76 120.16 C 138.11 121.09 139.15 121.56 140.08 121.22 C 141.01 120.87 141.49 119.83 141.14 118.90 L 140.81 118.01 C 140.46 117.08 139.43 116.61 138.49 116.95 C 137.56 117.30 137.09 118.34 137.43 119.27 Z M 137.89 120.58 L 138.56 121.58 C 139.14 122.45 140.31 122.68 141.18 122.09 C 142.04 121.51 142.27 120.34 141.69 119.48 L 141.01 118.48 C 140.43 117.61 139.26 117.38 138.40 117.97 C 137.54 118.55 137.31 119.72 137.89 120.58 Z M 138.69 121.81 L 139.30 122.49 C 140.01 123.28 141.22 123.35 142.01 122.64 C 142.80 121.94 142.87 120.72 142.16 119.93 L 141.56 119.25 C 140.85 118.46 139.64 118.39 138.85 119.10 C 138.06 119.81 137.99 121.02 138.69 121.81 Z M 139.38 122.57 L 140.10 123.29 C 140.85 124.03 142.06 124.03 142.81 123.28 C 143.56 122.53 143.56 121.32 142.81 120.57 L 142.08 119.85 C 141.33 119.11 140.12 119.11 139.38 119.86 C 138.63 120.61 138.63 121.82 139.38 122.57 Z M 140.16 123.33 L 140.94 124.06 C 141.71 124.77 142.92 124.73 143.64 123.95 C 144.36 123.18 144.31 121.97 143.53 121.25 L 142.75 120.53 C 141.98 119.81 140.77 119.86 140.05 120.63 C 139.33 121.40 139.38 122.61 140.16 123.33 Z M 140.98 124.08 L 141.77 124.78 C 142.55 125.48 143.76 125.40 144.46 124.61 C 145.15 123.82 145.08 122.62 144.29 121.92 L 143.50 121.22 C 142.71 120.53 141.50 120.60 140.81 121.39 C 140.11 122.18 140.19 123.39 140.98 124.08 Z M 141.79 124.80 L 142.53 125.43 C 143.33 126.11 144.53 126.02 145.21 125.22 C 145.90 124.42 145.80 123.22 145.00 122.54 L 144.26 121.90 C 143.46 121.22 142.26 121.32 141.58 122.12 C 140.90 122.91 140.99 124.11 141.79 124.80 Z M 142.56 125.44 L 143.49 126.22 C 144.29 126.88 145.49 126.78 146.16 125.97 C 146.83 125.17 146.72 123.98 145.91 123.31 L 144.98 122.53 C 144.18 121.86 142.98 121.97 142.31 122.77 C 141.64 123.58 141.75 124.77 142.56 125.44 Z M 143.52 126.22 L 144.30 126.86 C 145.11 127.51 146.30 127.39 146.95 126.58 C 147.60 125.77 147.48 124.59 146.67 123.93 L 145.88 123.30 C 145.08 122.64 143.89 122.77 143.24 123.58 C 142.59 124.39 142.71 125.57 143.52 126.22 Z M 144.33 126.86 L 145.01 127.40 C 145.82 128.04 146.99 127.90 147.63 127.09 C 148.27 126.27 148.13 125.10 147.32 124.46 L 146.64 123.93 C 145.83 123.29 144.66 123.43 144.02 124.24 C 143.38 125.05 143.52 126.22 144.33 126.86 Z M 145.02 127.40 L 145.33 127.64 C 146.15 128.27 147.32 128.13 147.95 127.32 C 148.58 126.51 148.43 125.34 147.62 124.71 L 147.31 124.46 C 146.50 123.83 145.33 123.97 144.69 124.78 C 144.06 125.60 144.21 126.76 145.02 127.40 Z"
      fill="black"
      fill-rule="nonzero" /><path d="M 157.89 112.44 L 158.35 113.28 C 158.82 114.15 159.90 114.46 160.76 113.99 C 161.63 113.53 161.95 112.44 161.48 111.58 L 161.02 110.74 C 160.55 109.88 159.47 109.56 158.60 110.03 C 157.74 110.50 157.42 111.58 157.89 112.44 Z M 158.09 112.82 L 158.30 113.78 C 158.51 114.79 159.50 115.43 160.50 115.22 C 161.51 115.01 162.15 114.02 161.94 113.01 L 161.73 112.04 C 161.52 111.04 160.53 110.40 159.53 110.61 C 158.52 110.82 157.88 111.81 158.09 112.82 Z M 158.23 113.06 L 158.07 113.97 C 157.88 115.01 158.57 116.01 159.61 116.20 C 160.65 116.39 161.65 115.70 161.84 114.66 L 162.00 113.74 C 162.19 112.70 161.50 111.70 160.46 111.51 C 159.42 111.33 158.42 112.02 158.23 113.06 Z M 158.17 113.58 L 157.80 114.49 C 157.39 115.47 157.86 116.60 158.84 117.00 C 159.83 117.41 160.95 116.94 161.36 115.96 L 161.73 115.05 C 162.14 114.06 161.67 112.94 160.69 112.53 C 159.70 112.13 158.57 112.60 158.17 113.58 Z M 157.88 114.31 L 157.37 115.25 C 156.87 116.19 157.23 117.36 158.17 117.86 C 159.11 118.36 160.27 118.01 160.78 117.07 L 161.28 116.13 C 161.78 115.19 161.43 114.02 160.49 113.52 C 159.55 113.02 158.38 113.37 157.88 114.31 Z M 157.42 115.17 L 156.88 116.08 C 156.33 116.99 156.62 118.17 157.53 118.72 C 158.45 119.27 159.63 118.98 160.18 118.07 L 160.73 117.16 C 161.28 116.24 160.98 115.06 160.07 114.51 C 159.16 113.96 157.97 114.25 157.42 115.17 Z M 156.91 116.03 L 156.36 116.88 C 155.79 117.78 156.05 118.97 156.94 119.54 C 157.84 120.12 159.03 119.86 159.61 118.96 L 160.15 118.11 C 160.72 117.22 160.46 116.02 159.57 115.45 C 158.67 114.88 157.48 115.14 156.91 116.03 Z M 156.39 116.84 L 155.84 117.66 C 155.24 118.54 155.47 119.73 156.35 120.33 C 157.23 120.92 158.43 120.69 159.02 119.82 L 159.58 119.00 C 160.17 118.12 159.94 116.92 159.06 116.33 C 158.18 115.73 156.99 115.96 156.39 116.84 Z M 155.87 117.63 L 155.29 118.43 C 154.68 119.30 154.88 120.50 155.75 121.11 C 156.61 121.72 157.81 121.52 158.42 120.66 L 159.00 119.85 C 159.61 118.98 159.40 117.79 158.54 117.17 C 157.68 116.56 156.48 116.76 155.87 117.63 Z M 155.32 118.41 L 154.72 119.23 C 154.09 120.08 154.28 121.27 155.13 121.90 C 155.98 122.52 157.17 122.34 157.80 121.49 L 158.40 120.68 C 159.02 119.83 158.84 118.63 157.99 118.00 C 157.14 117.38 155.94 117.56 155.32 118.41 Z M 154.75 119.21 L 154.13 120.02 C 153.50 120.85 153.66 122.05 154.50 122.68 C 155.33 123.31 156.52 123.15 157.16 122.32 L 157.77 121.51 C 158.41 120.67 158.24 119.48 157.41 118.84 C 156.57 118.21 155.38 118.37 154.75 119.21 Z M 154.16 120.00 L 153.55 120.78 C 152.90 121.60 153.04 122.79 153.87 123.43 C 154.69 124.08 155.87 123.94 156.52 123.11 L 157.13 122.33 C 157.78 121.51 157.63 120.32 156.81 119.68 C 155.99 119.03 154.80 119.18 154.16 120.00 Z M 153.58 120.76 L 152.93 121.56 C 152.28 122.36 152.40 123.54 153.20 124.20 C 154.00 124.85 155.18 124.73 155.83 123.93 L 156.48 123.13 C 157.14 122.33 157.02 121.15 156.22 120.50 C 155.41 119.84 154.23 119.96 153.58 120.76 Z M 152.97 121.55 L 152.31 122.33 C 151.65 123.11 151.75 124.28 152.52 124.93 C 153.30 125.59 154.47 125.50 155.13 124.72 L 155.79 123.94 C 156.45 123.16 156.35 122.00 155.58 121.34 C 154.80 120.68 153.63 120.77 152.97 121.55 Z M 152.35 122.34 L 151.72 123.06 C 151.06 123.81 151.14 124.96 151.90 125.61 C 152.65 126.27 153.80 126.20 154.45 125.44 L 155.08 124.72 C 155.74 123.97 155.66 122.82 154.91 122.16 C 154.16 121.50 153.01 121.58 152.35 122.34 Z M 151.76 123.07 L 151.10 123.82 C 150.45 124.55 150.51 125.68 151.25 126.33 C 151.98 126.98 153.10 126.91 153.75 126.17 L 154.42 125.43 C 155.07 124.69 155.00 123.57 154.27 122.92 C 153.53 122.27 152.41 122.34 151.76 123.07 Z M 151.15 123.83 L 150.48 124.57 C 149.83 125.28 149.88 126.37 150.59 127.01 C 151.29 127.65 152.38 127.60 153.02 126.90 L 153.70 126.16 C 154.34 125.46 154.29 124.37 153.59 123.72 C 152.88 123.08 151.79 123.13 151.15 123.83 Z M 150.55 124.57 L 149.87 125.26 C 149.23 125.92 149.24 126.99 149.90 127.63 C 150.56 128.28 151.63 128.26 152.27 127.60 L 152.95 126.91 C 153.60 126.24 153.58 125.18 152.92 124.54 C 152.26 123.89 151.20 123.90 150.55 124.57 Z M 149.95 125.24 L 149.22 125.93 C 148.57 126.55 148.54 127.58 149.15 128.24 C 149.77 128.89 150.80 128.93 151.46 128.31 L 152.19 127.62 C 152.85 127.00 152.88 125.97 152.26 125.31 C 151.64 124.66 150.61 124.63 149.95 125.24 Z M 149.28 125.93 L 148.54 126.60 C 147.88 127.18 147.83 128.19 148.41 128.84 C 149.00 129.50 150.01 129.56 150.66 128.97 L 151.40 128.31 C 152.06 127.72 152.11 126.71 151.53 126.06 C 150.94 125.40 149.93 125.35 149.28 125.93 Z M 148.56 126.61 L 148.46 126.70 C 147.81 127.27 147.75 128.26 148.32 128.91 C 148.90 129.56 149.89 129.62 150.54 129.05 L 150.64 128.96 C 151.29 128.38 151.35 127.39 150.78 126.74 C 150.20 126.09 149.21 126.03 148.56 126.61 Z"
      fill="black"
      fill-rule="nonzero" /><path d="M 131.18 138.63 L 132.03 138.35 C 132.94 138.05 133.43 137.08 133.14 136.17 C 132.84 135.26 131.87 134.76 130.96 135.05 L 130.11 135.33 C 129.20 135.63 128.70 136.60 128.99 137.51 C 129.29 138.42 130.27 138.92 131.18 138.63 Z M 132.11 138.47 L 133.07 138.14 C 134.05 137.79 134.56 136.72 134.22 135.74 C 133.88 134.76 132.80 134.25 131.82 134.59 L 130.87 134.93 C 129.89 135.27 129.37 136.35 129.72 137.32 C 130.06 138.30 131.13 138.82 132.11 138.47 Z M 133.16 138.22 L 134.15 137.84 C 135.18 137.45 135.69 136.29 135.29 135.27 C 134.90 134.24 133.75 133.73 132.72 134.13 L 131.73 134.51 C 130.70 134.91 130.19 136.06 130.59 137.08 C 130.99 138.11 132.14 138.62 133.16 138.22 Z M 134.20 137.87 L 135.14 137.49 C 136.18 137.06 136.68 135.88 136.25 134.84 C 135.83 133.80 134.64 133.30 133.60 133.72 L 132.67 134.10 C 131.63 134.53 131.13 135.71 131.55 136.75 C 131.98 137.79 133.16 138.29 134.20 137.87 Z M 135.15 137.49 L 136.11 137.09 C 137.15 136.66 137.64 135.46 137.21 134.42 C 136.78 133.38 135.59 132.89 134.55 133.32 L 133.59 133.72 C 132.55 134.15 132.05 135.35 132.49 136.39 C 132.92 137.43 134.11 137.92 135.15 137.49 Z M 136.11 137.10 L 137.02 136.72 C 138.07 136.29 138.57 135.09 138.13 134.05 C 137.70 133.00 136.51 132.51 135.46 132.94 L 134.55 133.31 C 133.50 133.74 133.01 134.94 133.44 135.99 C 133.87 137.03 135.07 137.53 136.11 137.10 Z M 137.00 136.73 L 138.02 136.33 C 139.07 135.91 139.58 134.72 139.16 133.66 C 138.74 132.61 137.55 132.10 136.50 132.52 L 135.48 132.92 C 134.43 133.34 133.92 134.54 134.34 135.59 C 134.76 136.64 135.95 137.15 137.00 136.73 Z M 137.99 136.34 L 138.89 136.00 C 139.95 135.60 140.48 134.41 140.08 133.35 C 139.68 132.29 138.50 131.76 137.44 132.16 L 136.53 132.50 C 135.47 132.90 134.94 134.09 135.34 135.15 C 135.74 136.21 136.93 136.74 137.99 136.34 Z M 138.86 136.01 L 139.74 135.69 C 140.80 135.31 141.35 134.13 140.97 133.07 C 140.58 132.00 139.40 131.45 138.34 131.83 L 137.46 132.15 C 136.40 132.54 135.85 133.71 136.23 134.78 C 136.62 135.85 137.79 136.40 138.86 136.01 Z M 139.72 135.70 L 140.65 135.38 C 141.72 135.00 142.28 133.83 141.90 132.76 C 141.52 131.68 140.35 131.12 139.28 131.50 L 138.35 131.83 C 137.28 132.20 136.72 133.38 137.10 134.45 C 137.48 135.52 138.65 136.08 139.72 135.70 Z M 140.64 135.38 L 141.60 135.04 C 142.67 134.67 143.23 133.50 142.86 132.43 C 142.49 131.36 141.31 130.79 140.24 131.16 L 139.29 131.50 C 138.21 131.87 137.65 133.04 138.02 134.11 C 138.40 135.19 139.57 135.75 140.64 135.38 Z M 141.60 135.04 L 142.54 134.71 C 143.61 134.34 144.17 133.16 143.80 132.09 C 143.42 131.02 142.25 130.46 141.18 130.83 L 140.24 131.16 C 139.17 131.54 138.60 132.71 138.98 133.79 C 139.36 134.86 140.53 135.42 141.60 135.04 Z M 142.55 134.71 L 143.48 134.38 C 144.55 134.00 145.11 132.82 144.73 131.75 C 144.35 130.68 143.17 130.12 142.11 130.50 L 141.17 130.84 C 140.10 131.22 139.54 132.39 139.92 133.46 C 140.30 134.53 141.48 135.09 142.55 134.71 Z M 143.49 134.38 L 144.45 134.03 C 145.51 133.65 146.07 132.47 145.69 131.41 C 145.30 130.34 144.13 129.78 143.06 130.16 L 142.10 130.51 C 141.03 130.89 140.48 132.07 140.86 133.13 C 141.24 134.20 142.42 134.76 143.49 134.38 Z M 144.45 134.03 L 145.38 133.69 C 146.45 133.31 147.00 132.13 146.62 131.07 C 146.24 130.00 145.06 129.45 143.99 129.83 L 143.06 130.17 C 141.99 130.55 141.44 131.73 141.82 132.79 C 142.20 133.86 143.38 134.41 144.45 134.03 Z M 145.38 133.69 L 146.32 133.36 C 147.39 132.98 147.94 131.80 147.56 130.73 C 147.18 129.67 146.00 129.11 144.94 129.49 L 144.00 129.83 C 142.93 130.21 142.37 131.39 142.75 132.45 C 143.14 133.52 144.31 134.08 145.38 133.69 Z M 146.31 133.36 L 147.26 133.03 C 148.33 132.65 148.89 131.48 148.52 130.41 C 148.14 129.34 146.97 128.78 145.90 129.16 L 144.95 129.49 C 143.88 129.86 143.32 131.04 143.69 132.10 C 144.07 133.17 145.24 133.74 146.31 133.36 Z M 147.24 133.03 L 148.18 132.71 C 149.25 132.35 149.82 131.18 149.46 130.11 C 149.09 129.04 147.93 128.47 146.86 128.83 L 145.92 129.15 C 144.85 129.52 144.28 130.68 144.64 131.75 C 145.01 132.82 146.17 133.39 147.24 133.03 Z M 148.17 132.71 L 149.11 132.39 C 150.18 132.04 150.76 130.88 150.40 129.81 C 150.04 128.74 148.88 128.16 147.81 128.52 L 146.87 128.84 C 145.80 129.19 145.22 130.35 145.58 131.42 C 145.94 132.49 147.10 133.07 148.17 132.71 Z M 149.11 132.39 L 150.07 132.06 C 151.14 131.70 151.71 130.55 151.35 129.48 C 150.99 128.42 149.84 127.85 148.77 128.20 L 147.81 128.53 C 146.75 128.89 146.17 130.04 146.53 131.11 C 146.89 132.17 148.05 132.74 149.11 132.39 Z M 150.08 132.05 L 151.04 131.72 C 152.10 131.35 152.66 130.20 152.30 129.14 C 151.93 128.08 150.78 127.52 149.72 127.89 L 148.76 128.22 C 147.70 128.58 147.14 129.74 147.50 130.80 C 147.87 131.85 149.02 132.42 150.08 132.05 Z M 151.05 131.70 L 152.01 131.37 C 153.06 131.00 153.61 129.84 153.24 128.79 C 152.87 127.74 151.72 127.19 150.67 127.56 L 149.71 127.90 C 148.66 128.27 148.11 129.42 148.48 130.47 C 148.85 131.52 150.00 132.08 151.05 131.70 Z M 152.01 131.36 L 152.95 131.02 C 153.99 130.65 154.54 129.51 154.17 128.46 C 153.80 127.42 152.65 126.87 151.61 127.24 L 150.67 127.57 C 149.63 127.94 149.08 129.09 149.45 130.13 C 149.82 131.18 150.96 131.73 152.01 131.36 Z M 152.93 131.02 L 153.89 130.68 C 154.93 130.32 155.48 129.18 155.12 128.14 C 154.75 127.10 153.62 126.55 152.58 126.92 L 151.62 127.25 C 150.58 127.61 150.03 128.75 150.39 129.79 C 150.75 130.83 151.89 131.38 152.93 131.02 Z M 153.87 130.68 L 154.83 130.35 C 155.86 130.00 156.42 128.88 156.07 127.84 C 155.72 126.80 154.59 126.25 153.56 126.60 L 152.60 126.92 C 151.56 127.27 151.01 128.40 151.36 129.43 C 151.71 130.47 152.83 131.03 153.87 130.68 Z M 154.81 130.34 L 155.73 130.04 C 156.76 129.70 157.32 128.59 156.98 127.56 C 156.64 126.53 155.53 125.97 154.50 126.30 L 153.58 126.61 C 152.55 126.95 151.99 128.06 152.32 129.09 C 152.66 130.12 153.78 130.68 154.81 130.34 Z M 155.71 130.03 L 156.59 129.75 C 157.62 129.42 158.18 128.32 157.85 127.29 C 157.52 126.27 156.42 125.70 155.40 126.03 L 154.52 126.31 C 153.49 126.64 152.93 127.74 153.26 128.77 C 153.59 129.80 154.68 130.36 155.71 130.03 Z M 156.58 129.73 L 157.49 129.44 C 158.51 129.12 159.08 128.03 158.75 127.01 C 158.43 125.99 157.34 125.43 156.32 125.75 L 155.41 126.04 C 154.39 126.37 153.83 127.46 154.15 128.48 C 154.47 129.49 155.56 130.06 156.58 129.73 Z M 157.49 129.43 L 158.51 129.10 C 159.52 128.78 160.08 127.70 159.76 126.69 C 159.44 125.68 158.36 125.12 157.35 125.44 L 156.32 125.77 C 155.31 126.09 154.76 127.17 155.08 128.18 C 155.40 129.19 156.48 129.75 157.49 129.43 Z M 158.51 129.09 L 159.44 128.79 C 160.44 128.47 160.99 127.39 160.67 126.39 C 160.35 125.39 159.28 124.84 158.27 125.16 L 157.35 125.46 C 156.34 125.78 155.79 126.85 156.12 127.85 C 156.44 128.86 157.51 129.41 158.51 129.09 Z M 159.41 128.78 L 160.37 128.49 C 161.37 128.18 161.93 127.12 161.62 126.12 C 161.32 125.12 160.26 124.56 159.26 124.87 L 158.30 125.16 C 157.30 125.47 156.74 126.53 157.05 127.53 C 157.35 128.53 158.41 129.09 159.41 128.78 Z M 160.31 128.49 L 161.31 128.22 C 162.31 127.94 162.90 126.91 162.62 125.91 C 162.35 124.90 161.31 124.32 160.31 124.59 L 159.31 124.87 C 158.31 125.14 157.72 126.18 158.00 127.18 C 158.28 128.18 159.31 128.77 160.31 128.49 Z M 161.22 128.23 L 162.21 128.01 C 163.22 127.78 163.85 126.78 163.63 125.78 C 163.40 124.77 162.41 124.13 161.40 124.36 L 160.40 124.58 C 159.40 124.81 158.76 125.80 158.99 126.81 C 159.21 127.82 160.21 128.45 161.22 128.23 Z M 162.08 128.01 L 163.11 127.86 C 164.12 127.71 164.81 126.77 164.66 125.76 C 164.51 124.75 163.57 124.05 162.56 124.20 L 161.53 124.35 C 160.52 124.51 159.83 125.45 159.98 126.46 C 160.13 127.47 161.07 128.16 162.08 128.01 Z M 162.98 127.84 L 163.98 127.76 C 164.98 127.68 165.73 126.80 165.64 125.79 C 165.56 124.79 164.68 124.05 163.68 124.13 L 162.68 124.21 C 161.68 124.30 160.93 125.18 161.02 126.18 C 161.10 127.18 161.98 127.93 162.98 127.84 Z M 163.90 127.74 L 164.88 127.70 C 165.87 127.66 166.64 126.82 166.60 125.83 C 166.56 124.84 165.72 124.07 164.73 124.11 L 163.76 124.15 C 162.77 124.19 162.00 125.03 162.04 126.02 C 162.08 127.01 162.91 127.78 163.90 127.74 Z M 164.85 127.68 L 165.47 127.66 C 166.45 127.64 167.22 126.83 167.20 125.85 C 167.17 124.87 166.36 124.10 165.38 124.12 L 164.76 124.14 C 163.79 124.16 163.01 124.97 163.04 125.95 C 163.06 126.93 163.87 127.70 164.85 127.68 Z"
      fill="black"
      fill-rule="nonzero" /><path d="M 146.90 132.65 L 146.72 133.60 C 146.53 134.57 147.16 135.51 148.13 135.70 C 149.10 135.88 150.04 135.25 150.23 134.28 L 150.42 133.33 C 150.60 132.36 149.97 131.42 149.00 131.23 C 148.03 131.05 147.09 131.68 146.90 132.65 Z M 146.72 133.54 L 146.50 134.50 C 146.28 135.47 146.89 136.44 147.86 136.66 C 148.83 136.88 149.80 136.27 150.02 135.30 L 150.24 134.34 C 150.46 133.37 149.85 132.40 148.87 132.18 C 147.90 131.96 146.94 132.57 146.72 133.54 Z M 146.51 134.40 L 146.22 135.39 C 145.94 136.35 146.50 137.36 147.47 137.64 C 148.43 137.92 149.44 137.36 149.72 136.40 L 150.00 135.41 C 150.28 134.44 149.73 133.43 148.76 133.15 C 147.80 132.88 146.79 133.43 146.51 134.40 Z M 146.26 135.26 L 145.90 136.23 C 145.55 137.17 146.04 138.22 146.98 138.57 C 147.93 138.92 148.98 138.44 149.33 137.49 L 149.68 136.52 C 150.03 135.58 149.55 134.53 148.60 134.18 C 147.66 133.83 146.61 134.31 146.26 135.26 Z M 145.94 136.13 L 145.53 137.08 C 145.13 138.01 145.56 139.08 146.48 139.48 C 147.40 139.88 148.48 139.45 148.88 138.53 L 149.29 137.58 C 149.69 136.66 149.26 135.58 148.34 135.19 C 147.41 134.79 146.34 135.21 145.94 136.13 Z M 145.56 137.03 L 145.13 137.93 C 144.70 138.84 145.09 139.92 146.00 140.35 C 146.90 140.78 147.99 140.40 148.42 139.49 L 148.84 138.59 C 149.27 137.68 148.89 136.60 147.98 136.17 C 147.08 135.74 145.99 136.12 145.56 137.03 Z M 145.15 137.90 L 144.70 138.80 C 144.26 139.70 144.62 140.78 145.51 141.23 C 146.41 141.68 147.50 141.32 147.95 140.42 L 148.40 139.52 C 148.84 138.63 148.48 137.54 147.58 137.09 C 146.69 136.64 145.60 137.01 145.15 137.90 Z M 144.72 138.78 L 144.24 139.70 C 143.78 140.59 144.13 141.68 145.02 142.14 C 145.90 142.60 146.99 142.25 147.45 141.37 L 147.93 140.44 C 148.39 139.55 148.04 138.46 147.16 138.00 C 146.27 137.54 145.18 137.89 144.72 138.78 Z M 144.25 139.68 L 143.82 140.49 C 143.35 141.37 143.68 142.47 144.56 142.94 C 145.44 143.41 146.53 143.08 147.00 142.20 L 147.44 141.39 C 147.91 140.51 147.58 139.41 146.70 138.94 C 145.82 138.47 144.73 138.80 144.25 139.68 Z M 143.83 140.48 L 143.36 141.33 C 142.88 142.21 143.19 143.31 144.07 143.79 C 144.94 144.27 146.04 143.95 146.52 143.08 L 146.99 142.22 C 147.47 141.35 147.16 140.25 146.28 139.77 C 145.41 139.28 144.31 139.60 143.83 140.48 Z M 143.36 141.32 L 142.87 142.19 C 142.39 143.06 142.70 144.17 143.57 144.65 C 144.44 145.14 145.54 144.83 146.02 143.96 L 146.51 143.09 C 147.00 142.22 146.69 141.12 145.82 140.63 C 144.95 140.14 143.85 140.45 143.36 141.32 Z M 142.88 142.18 L 142.41 143.01 C 141.92 143.88 142.22 144.98 143.09 145.47 C 143.95 145.97 145.06 145.66 145.55 144.80 L 146.02 143.97 C 146.51 143.11 146.21 142.00 145.34 141.51 C 144.48 141.01 143.37 141.32 142.88 142.18 Z M 142.42 142.99 L 141.94 143.81 C 141.44 144.67 141.73 145.77 142.59 146.28 C 143.45 146.78 144.56 146.49 145.06 145.63 L 145.54 144.81 C 146.04 143.95 145.75 142.85 144.89 142.34 C 144.03 141.84 142.92 142.13 142.42 142.99 Z M 141.96 143.78 L 141.39 144.71 C 140.87 145.56 141.14 146.67 141.99 147.19 C 142.84 147.71 143.95 147.44 144.47 146.59 L 145.04 145.66 C 145.56 144.81 145.29 143.70 144.44 143.18 C 143.59 142.66 142.48 142.93 141.96 143.78 Z M 141.41 144.68 L 140.93 145.43 C 140.40 146.27 140.64 147.39 141.48 147.92 C 142.33 148.46 143.44 148.21 143.98 147.37 L 144.45 146.62 C 144.99 145.78 144.74 144.66 143.90 144.13 C 143.06 143.59 141.94 143.84 141.41 144.68 Z M 140.95 145.41 L 140.42 146.21 C 139.87 147.04 140.10 148.16 140.93 148.71 C 141.76 149.26 142.88 149.03 143.43 148.20 L 143.96 147.40 C 144.51 146.56 144.28 145.44 143.45 144.89 C 142.62 144.35 141.50 144.57 140.95 145.41 Z M 140.43 146.18 L 139.84 147.05 C 139.27 147.87 139.48 148.99 140.30 149.56 C 141.12 150.13 142.25 149.92 142.81 149.10 L 143.41 148.23 C 143.98 147.41 143.77 146.28 142.95 145.72 C 142.12 145.15 141.00 145.36 140.43 146.18 Z M 139.86 147.02 L 139.20 147.93 C 138.62 148.74 138.80 149.87 139.61 150.45 C 140.42 151.03 141.55 150.85 142.13 150.04 L 142.79 149.13 C 143.37 148.32 143.19 147.19 142.38 146.61 C 141.57 146.03 140.45 146.21 139.86 147.02 Z M 139.22 147.91 L 138.52 148.85 C 137.93 149.65 138.09 150.78 138.89 151.37 C 139.69 151.97 140.82 151.80 141.41 151.00 L 142.12 150.06 C 142.71 149.26 142.54 148.13 141.74 147.54 C 140.95 146.94 139.82 147.11 139.22 147.91 Z M 138.50 148.88 L 137.86 149.78 C 137.29 150.59 137.47 151.71 138.28 152.29 C 139.10 152.87 140.22 152.68 140.80 151.87 L 141.43 150.97 C 142.01 150.16 141.82 149.04 141.01 148.46 C 140.20 147.88 139.08 148.07 138.50 148.88 Z M 137.78 149.91 L 137.32 150.69 C 136.81 151.54 137.09 152.65 137.94 153.15 C 138.80 153.66 139.90 153.38 140.41 152.53 L 140.87 151.74 C 141.38 150.89 141.10 149.79 140.25 149.28 C 139.39 148.77 138.29 149.05 137.78 149.91 Z M 137.10 151.20 L 136.93 151.95 C 136.70 152.93 137.31 153.90 138.28 154.12 C 139.25 154.35 140.22 153.74 140.45 152.77 L 140.62 152.02 C 140.85 151.04 140.24 150.07 139.27 149.85 C 138.30 149.62 137.33 150.23 137.10 151.20 Z M 137.26 153.56 L 137.82 154.22 C 138.48 155.01 139.65 155.11 140.44 154.45 C 141.23 153.79 141.33 152.62 140.67 151.83 L 140.11 151.16 C 139.45 150.38 138.28 150.27 137.49 150.93 C 136.70 151.60 136.60 152.77 137.26 153.56 Z M 137.88 154.38 L 138.54 155.06 C 139.29 155.81 140.51 155.82 141.27 155.07 C 142.02 154.32 142.03 153.10 141.28 152.34 L 140.62 151.67 C 139.87 150.91 138.65 150.91 137.89 151.66 C 137.13 152.40 137.13 153.62 137.88 154.38 Z M 138.09 154.41 L 138.44 155.32 C 138.84 156.32 139.97 156.82 140.98 156.43 C 141.98 156.04 142.48 154.90 142.09 153.90 L 141.74 152.99 C 141.34 151.98 140.21 151.49 139.20 151.88 C 138.20 152.27 137.70 153.40 138.09 154.41 Z M 138.33 154.94 L 138.51 155.98 C 138.70 157.05 139.72 157.76 140.78 157.58 C 141.85 157.39 142.57 156.37 142.38 155.30 L 142.20 154.27 C 142.01 153.20 141.00 152.49 139.93 152.67 C 138.86 152.86 138.15 153.88 138.33 154.94 Z M 138.48 155.81 L 138.56 156.72 C 138.66 157.81 139.62 158.61 140.70 158.51 C 141.78 158.42 142.59 157.46 142.49 156.38 L 142.41 155.47 C 142.31 154.38 141.36 153.58 140.27 153.68 C 139.19 153.77 138.39 154.73 138.48 155.81 Z M 138.55 156.63 L 138.59 157.64 C 138.64 158.73 139.56 159.58 140.65 159.53 C 141.74 159.49 142.59 158.57 142.54 157.48 L 142.50 156.47 C 142.46 155.38 141.54 154.53 140.45 154.58 C 139.36 154.62 138.51 155.54 138.55 156.63 Z M 138.59 157.59 L 138.61 158.67 C 138.62 159.77 139.53 160.64 140.62 160.62 C 141.71 160.60 142.59 159.70 142.57 158.61 L 142.55 157.53 C 142.53 156.43 141.63 155.56 140.54 155.58 C 139.44 155.60 138.57 156.50 138.59 157.59 Z M 138.60 158.65 L 138.61 159.65 C 138.61 160.75 139.51 161.63 140.61 161.62 C 141.70 161.62 142.59 160.72 142.58 159.62 L 142.57 158.63 C 142.56 157.53 141.67 156.65 140.57 156.65 C 139.48 156.66 138.59 157.56 138.60 158.65 Z M 138.60 159.64 L 138.60 160.67 C 138.60 161.77 139.49 162.66 140.59 162.66 C 141.69 162.66 142.59 161.77 142.59 160.67 L 142.58 159.64 C 142.58 158.54 141.69 157.65 140.59 157.65 C 139.49 157.65 138.60 158.54 138.60 159.64 Z M 138.60 160.66 L 138.59 161.67 C 138.58 162.77 139.47 163.67 140.58 163.67 C 141.68 163.68 142.58 162.79 142.58 161.69 L 142.59 160.68 C 142.60 159.58 141.71 158.68 140.61 158.67 C 139.50 158.67 138.60 159.56 138.60 160.66 Z M 138.59 161.65 L 138.57 162.69 C 138.56 163.79 139.44 164.70 140.54 164.72 C 141.65 164.73 142.56 163.85 142.57 162.75 L 142.59 161.71 C 142.60 160.60 141.72 159.69 140.62 159.68 C 139.51 159.66 138.60 160.54 138.59 161.65 Z M 138.57 162.66 L 138.54 163.67 C 138.51 164.78 139.38 165.70 140.48 165.73 C 141.59 165.77 142.51 164.90 142.55 163.79 L 142.58 162.78 C 142.61 161.67 141.74 160.75 140.63 160.72 C 139.53 160.68 138.60 161.55 138.57 162.66 Z M 138.54 163.62 L 138.49 164.57 C 138.43 165.67 139.28 166.62 140.38 166.68 C 141.49 166.74 142.43 165.89 142.49 164.79 L 142.55 163.84 C 142.61 162.73 141.76 161.79 140.65 161.73 C 139.55 161.67 138.60 162.51 138.54 163.62 Z M 138.49 164.51 L 138.41 165.47 C 138.32 166.57 139.14 167.55 140.24 167.64 C 141.35 167.73 142.32 166.91 142.41 165.81 L 142.49 164.84 C 142.59 163.74 141.76 162.77 140.66 162.67 C 139.55 162.58 138.58 163.40 138.49 164.51 Z M 138.41 165.42 L 138.30 166.41 C 138.18 167.52 138.98 168.51 140.08 168.63 C 141.19 168.75 142.18 167.96 142.30 166.85 L 142.41 165.86 C 142.53 164.75 141.73 163.76 140.63 163.64 C 139.53 163.52 138.53 164.31 138.41 165.42 Z M 138.30 166.37 L 138.17 167.37 C 138.03 168.48 138.81 169.49 139.91 169.63 C 141.01 169.77 142.02 169.00 142.17 167.90 L 142.30 166.89 C 142.44 165.79 141.67 164.78 140.56 164.64 C 139.46 164.49 138.45 165.27 138.30 166.37 Z M 138.18 167.34 L 138.03 168.34 C 137.87 169.44 138.63 170.46 139.73 170.63 C 140.83 170.79 141.85 170.03 142.01 168.93 L 142.16 167.93 C 142.33 166.83 141.57 165.80 140.46 165.64 C 139.36 165.48 138.34 166.24 138.18 167.34 Z M 138.03 168.31 L 137.87 169.30 C 137.70 170.40 138.45 171.44 139.54 171.61 C 140.64 171.79 141.68 171.04 141.85 169.94 L 142.01 168.95 C 142.19 167.85 141.44 166.82 140.34 166.64 C 139.24 166.47 138.21 167.22 138.03 168.31 Z M 137.88 169.29 L 137.71 170.27 C 137.53 171.37 138.27 172.41 139.37 172.59 C 140.47 172.77 141.50 172.03 141.69 170.93 L 141.85 169.95 C 142.03 168.86 141.29 167.82 140.19 167.64 C 139.10 167.45 138.06 168.19 137.88 169.29 Z M 137.72 170.27 L 137.55 171.26 C 137.37 172.36 138.11 173.39 139.21 173.58 C 140.30 173.76 141.34 173.02 141.52 171.92 L 141.69 170.93 C 141.87 169.84 141.13 168.80 140.03 168.62 C 138.93 168.43 137.90 169.18 137.72 170.27 Z M 137.55 171.26 L 137.39 172.25 C 137.21 173.35 137.95 174.38 139.04 174.57 C 140.14 174.75 141.17 174.01 141.35 172.91 L 141.52 171.92 C 141.70 170.83 140.96 169.79 139.86 169.61 C 138.77 169.43 137.73 170.17 137.55 171.26 Z M 137.39 172.25 L 137.23 173.23 C 137.04 174.32 137.78 175.36 138.87 175.54 C 139.97 175.72 141.00 174.99 141.19 173.89 L 141.35 172.92 C 141.54 171.82 140.80 170.79 139.71 170.60 C 138.61 170.42 137.58 171.16 137.39 172.25 Z M 137.23 173.22 L 137.07 174.14 C 136.88 175.23 137.61 176.26 138.70 176.45 C 139.79 176.64 140.83 175.92 141.02 174.82 L 141.18 173.91 C 141.37 172.82 140.64 171.78 139.55 171.59 C 138.46 171.40 137.42 172.13 137.23 173.22 Z M 137.08 174.12 L 136.91 175.07 C 136.71 176.16 137.43 177.20 138.52 177.40 C 139.60 177.59 140.65 176.87 140.84 175.79 L 141.01 174.84 C 141.21 173.75 140.49 172.71 139.40 172.51 C 138.32 172.31 137.28 173.04 137.08 174.12 Z M 136.91 175.06 L 136.71 176.11 C 136.51 177.20 137.22 178.24 138.31 178.45 C 139.39 178.65 140.43 177.94 140.64 176.85 L 140.84 175.80 C 141.04 174.71 140.33 173.67 139.24 173.47 C 138.16 173.26 137.12 173.98 136.91 175.06 Z M 136.72 176.11 L 136.53 177.06 C 136.33 178.14 137.03 179.19 138.12 179.39 C 139.20 179.60 140.24 178.89 140.45 177.81 L 140.63 176.86 C 140.84 175.78 140.13 174.73 139.05 174.53 C 137.97 174.32 136.93 175.03 136.72 176.11 Z M 136.54 177.06 L 136.35 178.04 C 136.14 179.12 136.85 180.16 137.93 180.37 C 139.01 180.58 140.05 179.87 140.26 178.80 L 140.45 177.81 C 140.66 176.73 139.95 175.69 138.87 175.48 C 137.79 175.27 136.75 175.98 136.54 177.06 Z M 136.35 178.05 L 136.16 179.06 C 135.95 180.14 136.66 181.18 137.74 181.38 C 138.82 181.59 139.86 180.88 140.06 179.80 L 140.25 178.79 C 140.46 177.71 139.75 176.67 138.68 176.47 C 137.60 176.26 136.56 176.97 136.35 178.05 Z M 136.16 179.07 L 135.97 180.08 C 135.77 181.15 136.48 182.19 137.56 182.39 C 138.64 182.59 139.67 181.88 139.87 180.80 L 140.06 179.79 C 140.26 178.72 139.55 177.68 138.47 177.48 C 137.39 177.28 136.36 177.99 136.16 179.07 Z M 135.98 180.10 L 135.76 181.40 C 135.57 182.47 136.29 183.49 137.36 183.68 C 138.43 183.86 139.45 183.14 139.64 182.07 L 139.86 180.77 C 140.05 179.70 139.33 178.68 138.26 178.50 C 137.19 178.31 136.17 179.03 135.98 180.10 Z M 135.78 181.48 L 135.63 182.54 C 135.49 183.60 136.23 184.57 137.29 184.72 C 138.36 184.86 139.33 184.12 139.48 183.06 L 139.62 182.00 C 139.76 180.94 139.02 179.96 137.96 179.82 C 136.90 179.67 135.92 180.42 135.78 181.48 Z M 135.66 182.87 L 135.68 183.40 C 135.72 184.45 136.60 185.27 137.65 185.23 C 138.69 185.19 139.51 184.31 139.47 183.26 L 139.45 182.73 C 139.41 181.68 138.53 180.86 137.48 180.90 C 136.44 180.94 135.62 181.82 135.66 182.87 Z M 138.98 184.41 L 139.42 183.84 C 140.02 183.06 139.87 181.95 139.10 181.36 C 138.32 180.76 137.21 180.91 136.61 181.68 L 136.17 182.25 C 135.58 183.03 135.72 184.14 136.50 184.74 C 137.27 185.33 138.38 185.19 138.98 184.41 Z M 139.46 183.49 L 139.77 182.88 C 140.17 182.08 139.86 181.11 139.06 180.70 C 138.26 180.30 137.29 180.62 136.89 181.41 L 136.57 182.03 C 136.17 182.83 136.49 183.80 137.29 184.20 C 138.08 184.61 139.06 184.29 139.46 183.49 Z"
      fill="black"
      fill-rule="nonzero" /><path d="M 144.35 152.04 L 143.29 151.59 C 142.34 151.19 141.25 151.64 140.86 152.58 C 140.46 153.53 140.90 154.61 141.85 155.01 L 142.92 155.46 C 143.86 155.85 144.95 155.41 145.35 154.47 C 145.74 153.52 145.30 152.44 144.35 152.04 Z M 143.70 151.80 L 143.00 151.27 C 142.18 150.65 141.00 150.81 140.37 151.64 C 139.75 152.47 139.91 153.65 140.74 154.28 L 141.43 154.80 C 142.26 155.43 143.44 155.26 144.07 154.43 C 144.69 153.60 144.53 152.42 143.70 151.80 Z M 143.77 152.82 L 143.78 152.13 C 143.81 151.08 142.98 150.21 141.93 150.19 C 140.88 150.16 140.01 150.99 139.99 152.04 L 139.98 152.73 C 139.95 153.78 140.78 154.65 141.83 154.67 C 142.88 154.70 143.75 153.87 143.77 152.82 Z M 143.34 153.30 L 144.05 152.47 C 144.72 151.66 144.62 150.46 143.81 149.79 C 143.01 149.12 141.81 149.22 141.14 150.02 L 140.43 150.86 C 139.76 151.66 139.86 152.86 140.67 153.54 C 141.47 154.21 142.67 154.11 143.34 153.30 Z M 143.81 152.70 L 144.61 152.03 C 145.41 151.36 145.52 150.16 144.85 149.36 C 144.18 148.56 142.98 148.45 142.18 149.12 L 141.38 149.79 C 140.57 150.46 140.47 151.66 141.14 152.46 C 141.81 153.26 143.00 153.37 143.81 152.70 Z M 144.52 152.10 L 145.33 151.50 C 146.17 150.88 146.35 149.70 145.73 148.86 C 145.11 148.02 143.92 147.84 143.08 148.46 L 142.27 149.05 C 141.43 149.67 141.25 150.86 141.87 151.70 C 142.49 152.54 143.67 152.72 144.52 152.10 Z M 145.27 151.53 L 146.12 150.95 C 146.98 150.36 147.20 149.19 146.61 148.33 C 146.02 147.47 144.85 147.25 143.99 147.84 L 143.14 148.42 C 142.28 149.01 142.06 150.19 142.65 151.05 C 143.24 151.90 144.41 152.12 145.27 151.53 Z M 146.09 150.97 L 146.90 150.43 C 147.77 149.86 148.01 148.70 147.44 147.83 C 146.87 146.96 145.71 146.72 144.84 147.29 L 144.03 147.82 C 143.16 148.39 142.91 149.56 143.48 150.43 C 144.05 151.29 145.22 151.54 146.09 150.97 Z M 146.88 150.44 L 147.66 149.95 C 148.53 149.39 148.79 148.23 148.23 147.36 C 147.67 146.48 146.51 146.22 145.63 146.78 L 144.86 147.27 C 143.99 147.83 143.73 148.99 144.29 149.87 C 144.85 150.74 146.01 151.00 146.88 150.44 Z M 147.64 149.96 L 148.47 149.44 C 149.35 148.89 149.61 147.73 149.06 146.85 C 148.51 145.97 147.35 145.71 146.48 146.26 L 145.65 146.78 C 144.77 147.33 144.50 148.48 145.05 149.36 C 145.61 150.24 146.76 150.51 147.64 149.96 Z M 148.47 149.44 L 149.42 148.84 C 150.30 148.29 150.57 147.14 150.02 146.26 C 149.47 145.38 148.31 145.11 147.43 145.66 L 146.48 146.26 C 145.60 146.80 145.33 147.96 145.88 148.84 C 146.43 149.72 147.59 149.99 148.47 149.44 Z M 149.42 148.84 L 150.21 148.35 C 151.08 147.80 151.35 146.64 150.80 145.77 C 150.25 144.89 149.09 144.62 148.22 145.17 L 147.43 145.66 C 146.55 146.21 146.29 147.37 146.84 148.25 C 147.39 149.12 148.54 149.39 149.42 148.84 Z M 150.20 148.35 L 151.04 147.83 C 151.91 147.29 152.18 146.13 151.64 145.25 C 151.09 144.37 149.93 144.10 149.05 144.65 L 148.22 145.17 C 147.34 145.72 147.07 146.87 147.62 147.75 C 148.17 148.63 149.32 148.90 150.20 148.35 Z M 151.02 147.84 L 151.90 147.30 C 152.78 146.76 153.06 145.60 152.52 144.72 C 151.98 143.84 150.82 143.56 149.94 144.11 L 149.06 144.65 C 148.18 145.19 147.91 146.34 148.45 147.22 C 148.99 148.10 150.14 148.38 151.02 147.84 Z M 151.89 147.31 L 152.78 146.77 C 153.67 146.24 153.96 145.09 153.42 144.20 C 152.89 143.31 151.74 143.03 150.86 143.56 L 149.96 144.10 C 149.07 144.63 148.79 145.78 149.32 146.67 C 149.85 147.55 151.00 147.84 151.89 147.31 Z M 152.76 146.78 L 153.65 146.26 C 154.54 145.74 154.85 144.60 154.33 143.71 C 153.81 142.81 152.66 142.51 151.77 143.03 L 150.88 143.55 C 149.99 144.06 149.68 145.21 150.20 146.10 C 150.72 147.00 151.87 147.30 152.76 146.78 Z M 153.61 146.28 L 154.60 145.74 C 155.50 145.24 155.83 144.10 155.33 143.20 C 154.83 142.30 153.70 141.97 152.79 142.47 L 151.81 143.01 C 150.90 143.51 150.58 144.64 151.07 145.55 C 151.57 146.45 152.71 146.78 153.61 146.28 Z M 154.55 145.76 L 155.51 145.27 C 156.42 144.80 156.78 143.68 156.31 142.76 C 155.84 141.84 154.72 141.48 153.80 141.95 L 152.85 142.44 C 151.93 142.91 151.57 144.04 152.04 144.95 C 152.51 145.87 153.63 146.23 154.55 145.76 Z M 155.44 145.30 L 156.34 144.88 C 157.27 144.44 157.67 143.34 157.24 142.40 C 156.80 141.47 155.69 141.07 154.76 141.51 L 153.87 141.93 C 152.94 142.36 152.53 143.47 152.97 144.40 C 153.40 145.33 154.51 145.73 155.44 145.30 Z M 156.26 144.91 L 157.09 144.57 C 158.03 144.18 158.49 143.09 158.09 142.14 C 157.70 141.19 156.62 140.74 155.67 141.13 L 154.84 141.48 C 153.89 141.87 153.44 142.95 153.83 143.90 C 154.22 144.85 155.31 145.30 156.26 144.91 Z M 156.96 144.61 L 157.96 144.28 C 158.94 143.96 159.46 142.91 159.14 141.94 C 158.82 140.96 157.77 140.43 156.80 140.76 L 155.79 141.09 C 154.82 141.41 154.29 142.46 154.61 143.43 C 154.94 144.41 155.99 144.94 156.96 144.61 Z M 157.68 144.36 L 158.72 144.19 C 159.73 144.03 160.42 143.07 160.26 142.06 C 160.09 141.04 159.14 140.35 158.12 140.51 L 157.08 140.68 C 156.07 140.84 155.38 141.80 155.54 142.82 C 155.70 143.83 156.66 144.52 157.68 144.36 Z M 158.03 144.18 L 158.82 144.35 C 159.83 144.56 160.82 143.91 161.03 142.90 C 161.25 141.89 160.60 140.90 159.59 140.69 L 158.80 140.52 C 157.79 140.31 156.80 140.95 156.59 141.97 C 156.37 142.98 157.02 143.97 158.03 144.18 Z M 157.79 143.77 L 158.35 144.41 C 159.05 145.19 160.24 145.26 161.02 144.57 C 161.80 143.87 161.87 142.68 161.18 141.90 L 160.62 141.26 C 159.92 140.48 158.73 140.41 157.95 141.10 C 157.17 141.80 157.10 142.99 157.79 143.77 Z M 157.93 143.71 L 158.23 144.72 C 158.54 145.73 159.61 146.31 160.62 146.00 C 161.64 145.70 162.21 144.63 161.91 143.61 L 161.60 142.60 C 161.30 141.59 160.23 141.01 159.21 141.32 C 158.20 141.62 157.62 142.69 157.93 143.71 Z M 158.15 144.42 L 158.27 145.34 C 158.41 146.40 159.39 147.15 160.45 147.01 C 161.51 146.86 162.26 145.89 162.12 144.83 L 162.00 143.91 C 161.85 142.84 160.88 142.10 159.81 142.24 C 158.75 142.38 158.01 143.36 158.15 144.42 Z M 158.24 145.21 L 158.30 146.12 C 158.38 147.20 159.31 148.01 160.39 147.94 C 161.46 147.87 162.28 146.94 162.21 145.86 L 162.14 144.95 C 162.07 143.87 161.14 143.06 160.06 143.13 C 158.99 143.20 158.17 144.14 158.24 145.21 Z M 158.29 146.05 L 158.32 147.11 C 158.35 148.19 159.26 149.05 160.35 149.01 C 161.43 148.98 162.29 148.08 162.25 146.99 L 162.22 145.93 C 162.19 144.85 161.28 143.99 160.20 144.02 C 159.11 144.06 158.26 144.96 158.29 146.05 Z M 158.31 147.07 L 158.32 148.22 C 158.34 149.31 159.23 150.18 160.33 150.17 C 161.42 150.16 162.29 149.26 162.28 148.17 L 162.26 147.02 C 162.25 145.93 161.35 145.06 160.26 145.07 C 159.17 145.09 158.30 145.98 158.31 147.07 Z M 158.31 148.21 L 158.32 149.21 C 158.33 150.31 159.22 151.20 160.32 151.19 C 161.42 151.18 162.30 150.29 162.30 149.19 L 162.29 148.18 C 162.28 147.08 161.39 146.20 160.29 146.21 C 159.19 146.21 158.31 147.11 158.31 148.21 Z M 158.31 149.21 L 158.31 150.26 C 158.32 151.36 159.22 152.25 160.32 152.25 C 161.42 152.25 162.31 151.35 162.31 150.25 L 162.30 149.19 C 162.30 148.09 161.40 147.20 160.30 147.20 C 159.20 147.21 158.31 148.11 158.31 149.21 Z M 158.31 150.26 L 158.31 151.30 C 158.31 152.40 159.21 153.30 160.32 153.30 C 161.42 153.30 162.32 152.40 162.32 151.29 L 162.32 150.25 C 162.32 149.14 161.42 148.25 160.31 148.25 C 159.20 148.25 158.30 149.15 158.31 150.26 Z M 158.30 151.29 L 158.30 152.26 C 158.30 153.38 159.20 154.28 160.31 154.28 C 161.43 154.28 162.33 153.37 162.33 152.26 L 162.33 151.29 C 162.33 150.18 161.43 149.28 160.31 149.28 C 159.20 149.28 158.30 150.18 158.30 151.29 Z M 158.29 152.26 L 158.29 153.37 C 158.29 154.48 159.20 155.39 160.31 155.39 C 161.43 155.39 162.34 154.48 162.34 153.37 L 162.34 152.26 C 162.34 151.14 161.43 150.24 160.31 150.24 C 159.20 150.24 158.29 151.14 158.29 152.26 Z M 158.28 153.37 L 158.28 154.42 C 158.28 155.54 159.19 156.45 160.31 156.45 C 161.43 156.45 162.34 155.54 162.34 154.42 L 162.34 153.37 C 162.34 152.25 161.43 151.34 160.31 151.34 C 159.19 151.34 158.28 152.25 158.28 153.37 Z M 158.28 154.42 L 158.28 155.28 C 158.28 156.40 159.19 157.31 160.31 157.31 C 161.44 157.31 162.35 156.40 162.35 155.28 L 162.35 154.42 C 162.35 153.30 161.44 152.38 160.31 152.38 C 159.19 152.38 158.28 153.30 158.28 154.42 Z M 158.27 155.28 L 158.27 156.20 C 158.27 157.32 159.19 158.24 160.31 158.24 C 161.44 158.24 162.36 157.32 162.36 156.20 L 162.36 155.28 C 162.36 154.15 161.44 153.23 160.31 153.23 C 159.19 153.23 158.27 154.15 158.27 155.28 Z M 158.27 156.20 L 158.27 157.19 C 158.27 158.32 159.18 159.24 160.31 159.24 C 161.44 159.24 162.36 158.32 162.36 157.19 L 162.36 156.20 C 162.36 155.06 161.44 154.15 160.31 154.15 C 159.18 154.15 158.27 155.06 158.27 156.20 Z M 158.26 157.19 L 158.26 158.19 C 158.26 159.32 159.18 160.24 160.31 160.24 C 161.45 160.24 162.37 159.32 162.37 158.19 L 162.37 157.19 C 162.37 156.06 161.45 155.14 160.31 155.14 C 159.18 155.14 158.26 156.06 158.26 157.19 Z M 158.26 158.18 L 158.25 159.16 C 158.24 160.30 159.16 161.22 160.30 161.23 C 161.44 161.23 162.36 160.32 162.37 159.18 L 162.37 158.20 C 162.38 157.06 161.46 156.14 160.32 156.13 C 159.19 156.13 158.26 157.04 158.26 158.18 Z M 158.25 159.13 L 158.23 160.15 C 158.20 161.29 159.11 162.23 160.25 162.26 C 161.39 162.28 162.33 161.38 162.35 160.24 L 162.37 159.21 C 162.39 158.07 161.49 157.13 160.35 157.11 C 159.21 157.08 158.27 157.99 158.25 159.13 Z M 158.22 160.11 L 158.18 161.09 C 158.13 162.23 159.02 163.20 160.16 163.24 C 161.30 163.29 162.26 162.41 162.31 161.27 L 162.35 160.28 C 162.40 159.14 161.51 158.18 160.38 158.13 C 159.24 158.08 158.27 158.97 158.22 160.11 Z M 158.18 161.07 L 158.13 162.06 C 158.06 163.20 158.94 164.18 160.08 164.24 C 161.22 164.30 162.19 163.43 162.26 162.29 L 162.31 161.29 C 162.37 160.15 161.50 159.18 160.36 159.12 C 159.22 159.05 158.24 159.93 158.18 161.07 Z M 158.13 162.07 L 158.07 163.09 C 158.01 164.23 158.88 165.21 160.03 165.27 C 161.17 165.33 162.14 164.45 162.20 163.31 L 162.26 162.29 C 162.32 161.15 161.44 160.17 160.30 160.11 C 159.16 160.05 158.19 160.92 158.13 162.07 Z M 158.07 163.11 L 158.02 164.10 C 157.98 165.24 158.86 166.21 160.00 166.26 C 161.15 166.31 162.11 165.42 162.16 164.28 L 162.21 163.29 C 162.26 162.15 161.37 161.18 160.23 161.13 C 159.08 161.08 158.12 161.97 158.07 163.11 Z M 158.02 164.12 L 157.99 165.12 C 157.95 166.26 158.84 167.22 159.99 167.26 C 161.13 167.30 162.09 166.41 162.13 165.26 L 162.17 164.26 C 162.21 163.12 161.31 162.16 160.17 162.12 C 159.02 162.08 158.06 162.98 158.02 164.12 Z M 157.99 165.13 L 157.96 166.14 C 157.92 167.28 158.82 168.24 159.97 168.27 C 161.11 168.31 162.07 167.41 162.10 166.26 L 162.13 165.26 C 162.17 164.11 161.27 163.15 160.12 163.12 C 158.98 163.08 158.02 163.98 157.99 165.13 Z M 157.95 166.14 L 157.93 167.12 C 157.89 168.27 158.79 169.22 159.94 169.26 C 161.08 169.29 162.04 168.39 162.07 167.25 L 162.10 166.26 C 162.14 165.12 161.24 164.16 160.09 164.13 C 158.95 164.09 157.99 164.99 157.95 166.14 Z M 157.93 167.12 L 157.89 168.11 C 157.85 169.25 158.75 170.21 159.90 170.25 C 161.04 170.29 162.00 169.39 162.04 168.25 L 162.07 167.25 C 162.11 166.11 161.21 165.15 160.07 165.11 C 158.92 165.07 157.96 165.97 157.93 167.12 Z M 157.89 168.10 L 157.85 169.11 C 157.81 170.26 158.70 171.22 159.85 171.27 C 160.99 171.31 161.96 170.42 162.00 169.28 L 162.04 168.26 C 162.09 167.11 161.19 166.15 160.05 166.10 C 158.90 166.06 157.94 166.95 157.89 168.10 Z M 157.85 169.10 L 157.81 170.11 C 157.75 171.25 158.64 172.22 159.78 172.28 C 160.93 172.33 161.90 171.45 161.95 170.30 L 162.00 169.29 C 162.05 168.15 161.17 167.17 160.02 167.12 C 158.88 167.07 157.91 167.95 157.85 169.10 Z M 157.81 170.10 L 157.76 171.11 C 157.70 172.25 158.58 173.23 159.72 173.29 C 160.87 173.35 161.84 172.47 161.90 171.32 L 161.95 170.31 C 162.01 169.17 161.13 168.19 159.99 168.13 C 158.84 168.07 157.87 168.95 157.81 170.10 Z M 157.76 171.11 L 157.71 172.10 C 157.65 173.25 158.53 174.22 159.67 174.28 C 160.82 174.34 161.79 173.46 161.85 172.31 L 161.90 171.32 C 161.96 170.18 161.08 169.20 159.93 169.15 C 158.79 169.09 157.81 169.97 157.76 171.11 Z M 157.71 172.12 L 157.66 173.14 C 157.61 174.29 158.49 175.26 159.64 175.31 C 160.78 175.36 161.75 174.47 161.80 173.33 L 161.85 172.30 C 161.90 171.16 161.01 170.19 159.87 170.14 C 158.73 170.09 157.76 170.97 157.71 172.12 Z M 157.66 173.16 L 157.62 174.17 C 157.58 175.31 158.47 176.27 159.61 176.32 C 160.75 176.36 161.71 175.47 161.76 174.33 L 161.80 173.32 C 161.84 172.18 160.95 171.21 159.81 171.17 C 158.67 171.12 157.71 172.01 157.66 173.16 Z M 157.63 174.17 L 157.59 175.13 C 157.55 176.27 158.44 177.23 159.58 177.27 C 160.72 177.31 161.68 176.42 161.72 175.28 L 161.76 174.32 C 161.80 173.18 160.91 172.23 159.77 172.18 C 158.63 172.14 157.67 173.03 157.63 174.17 Z M 157.60 175.13 L 157.56 176.14 C 157.51 177.28 158.40 178.24 159.54 178.29 C 160.67 178.33 161.63 177.44 161.68 176.30 L 161.72 175.29 C 161.76 174.15 160.87 173.19 159.74 173.15 C 158.60 173.10 157.64 173.99 157.60 175.13 Z M 157.56 176.14 L 157.52 177.13 C 157.47 178.27 158.35 179.23 159.49 179.28 C 160.62 179.32 161.58 178.44 161.63 177.31 L 161.67 176.31 C 161.72 175.18 160.84 174.22 159.70 174.17 C 158.57 174.12 157.61 175.00 157.56 176.14 Z M 157.53 177.13 L 157.49 178.08 C 157.44 179.22 158.32 180.17 159.45 180.22 C 160.58 180.27 161.53 179.39 161.58 178.26 L 161.62 177.31 C 161.67 176.18 160.79 175.22 159.66 175.17 C 158.53 175.12 157.57 176.00 157.53 177.13 Z M 157.50 178.12 L 157.47 179.07 C 157.44 180.19 158.33 181.13 159.45 181.16 C 160.58 181.19 161.52 180.30 161.55 179.18 L 161.57 178.23 C 161.60 177.10 160.72 176.16 159.59 176.13 C 158.46 176.10 157.53 176.99 157.50 178.12 Z M 157.48 179.16 L 157.50 180.21 C 157.52 181.33 158.44 182.22 159.56 182.20 C 160.68 182.18 161.57 181.26 161.55 180.14 L 161.54 179.09 C 161.52 177.97 160.59 177.07 159.47 177.09 C 158.35 177.11 157.46 178.04 157.48 179.16 Z M 157.52 180.30 L 157.58 181.24 C 157.65 182.35 158.61 183.19 159.72 183.12 C 160.83 183.05 161.67 182.09 161.60 180.98 L 161.54 180.04 C 161.47 178.93 160.51 178.09 159.40 178.16 C 158.29 178.23 157.45 179.19 157.52 180.30 Z M 157.59 181.29 L 157.68 182.28 C 157.78 183.38 158.75 184.20 159.86 184.10 C 160.96 184.00 161.77 183.02 161.67 181.92 L 161.58 180.93 C 161.48 179.83 160.51 179.01 159.41 179.11 C 158.31 179.21 157.49 180.19 157.59 181.29 Z M 157.70 182.31 L 157.80 183.35 C 157.92 184.45 158.89 185.24 159.99 185.13 C 161.08 185.02 161.88 184.04 161.77 182.95 L 161.66 181.90 C 161.55 180.80 160.57 180.01 159.47 180.12 C 158.38 180.23 157.58 181.21 157.70 182.31 Z M 157.81 183.36 L 157.86 183.80 C 157.97 184.89 158.95 185.67 160.04 185.56 C 161.13 185.44 161.92 184.47 161.80 183.38 L 161.76 182.94 C 161.64 181.85 160.66 181.06 159.57 181.18 C 158.49 181.29 157.70 182.27 157.81 183.36 Z"
      fill="black"
      fill-rule="nonzero" /><path d="M 143.77 161.61 L 142.69 161.20 C 141.80 160.86 140.81 161.30 140.47 162.19 C 140.13 163.07 140.57 164.07 141.46 164.41 L 142.54 164.82 C 143.43 165.16 144.42 164.71 144.76 163.83 C 145.10 162.94 144.65 161.95 143.77 161.61 Z M 143.69 161.84 L 143.36 161.29 C 142.83 160.40 141.67 160.11 140.78 160.64 C 139.89 161.17 139.60 162.32 140.13 163.22 L 140.46 163.76 C 140.99 164.66 142.15 164.95 143.04 164.41 C 143.93 163.88 144.22 162.73 143.69 161.84 Z M 143.16 163.61 L 143.81 162.93 C 144.56 162.15 144.53 160.91 143.75 160.16 C 142.97 159.41 141.73 159.44 140.98 160.22 L 140.33 160.90 C 139.58 161.68 139.61 162.92 140.39 163.66 C 141.17 164.41 142.41 164.39 143.16 163.61 Z M 143.37 163.29 L 144.33 162.74 C 145.28 162.20 145.61 161.00 145.07 160.05 C 144.53 159.10 143.32 158.77 142.38 159.31 L 141.42 159.86 C 140.47 160.40 140.14 161.61 140.68 162.55 C 141.22 163.50 142.43 163.83 143.37 163.29 Z M 144.13 162.85 L 145.02 162.47 C 146.02 162.04 146.49 160.88 146.07 159.88 C 145.64 158.87 144.48 158.40 143.48 158.83 L 142.58 159.21 C 141.58 159.63 141.11 160.79 141.53 161.80 C 141.96 162.81 143.12 163.28 144.13 162.85 Z M 144.92 162.51 L 145.91 162.15 C 146.94 161.77 147.46 160.64 147.09 159.61 C 146.72 158.59 145.58 158.06 144.56 158.43 L 143.57 158.79 C 142.55 159.17 142.02 160.30 142.39 161.33 C 142.76 162.35 143.90 162.88 144.92 162.51 Z M 145.89 162.15 L 146.81 161.83 C 147.84 161.47 148.38 160.34 148.02 159.32 C 147.66 158.29 146.53 157.75 145.51 158.11 L 144.58 158.43 C 143.56 158.79 143.01 159.91 143.37 160.94 C 143.73 161.97 144.86 162.51 145.89 162.15 Z M 146.80 161.82 L 147.75 161.50 C 148.77 161.14 149.32 160.02 148.96 159.00 C 148.61 157.97 147.49 157.43 146.46 157.78 L 145.51 158.11 C 144.49 158.46 143.95 159.58 144.30 160.61 C 144.66 161.63 145.77 162.18 146.80 161.82 Z M 147.74 161.49 L 148.71 161.16 C 149.73 160.81 150.28 159.70 149.93 158.68 C 149.58 157.65 148.47 157.11 147.45 157.45 L 146.48 157.79 C 145.45 158.13 144.91 159.25 145.25 160.27 C 145.60 161.29 146.71 161.84 147.74 161.49 Z M 148.69 161.16 L 149.66 160.83 C 150.68 160.49 151.23 159.39 150.89 158.37 C 150.55 157.35 149.45 156.80 148.43 157.14 L 147.46 157.46 C 146.44 157.80 145.89 158.90 146.23 159.92 C 146.57 160.94 147.67 161.50 148.69 161.16 Z M 149.64 160.82 L 150.60 160.51 C 151.61 160.19 152.17 159.10 151.84 158.08 C 151.51 157.06 150.42 156.51 149.41 156.84 L 148.45 157.14 C 147.43 157.47 146.88 158.56 147.21 159.58 C 147.54 160.60 148.63 161.15 149.64 160.82 Z M 150.57 160.51 L 151.51 160.22 C 152.53 159.90 153.09 158.83 152.78 157.81 C 152.46 156.80 151.39 156.24 150.37 156.55 L 149.43 156.84 C 148.42 157.16 147.86 158.23 148.17 159.24 C 148.48 160.26 149.56 160.82 150.57 160.51 Z M 151.48 160.21 L 152.41 159.93 C 153.42 159.63 154.00 158.58 153.70 157.57 C 153.40 156.56 152.35 155.99 151.34 156.29 L 150.41 156.56 C 149.40 156.86 148.82 157.91 149.12 158.92 C 149.42 159.93 150.47 160.50 151.48 160.21 Z M 152.38 159.91 L 153.32 159.65 C 154.32 159.37 154.90 158.34 154.62 157.34 C 154.34 156.34 153.31 155.76 152.31 156.04 L 151.37 156.30 C 150.37 156.58 149.79 157.62 150.07 158.61 C 150.35 159.61 151.38 160.19 152.38 159.91 Z M 153.30 159.63 L 154.29 159.36 C 155.27 159.10 155.86 158.08 155.59 157.09 C 155.32 156.11 154.31 155.52 153.32 155.79 L 152.33 156.06 C 151.35 156.32 150.76 157.34 151.03 158.33 C 151.30 159.31 152.32 159.90 153.30 159.63 Z M 154.27 159.34 L 155.25 159.08 C 156.23 158.82 156.80 157.82 156.54 156.85 C 156.29 155.87 155.29 155.29 154.31 155.55 L 153.33 155.81 C 152.36 156.07 151.78 157.07 152.04 158.05 C 152.30 159.02 153.30 159.60 154.27 159.34 Z M 155.23 159.05 L 156.22 158.80 C 157.18 158.55 157.75 157.57 157.51 156.61 C 157.26 155.65 156.28 155.08 155.32 155.32 L 154.34 155.58 C 153.38 155.83 152.80 156.80 153.05 157.76 C 153.29 158.72 154.27 159.30 155.23 159.05 Z M 156.18 158.78 L 157.16 158.54 C 158.11 158.32 158.69 157.37 158.47 156.42 C 158.24 155.47 157.29 154.89 156.35 155.11 L 155.36 155.35 C 154.41 155.57 153.83 156.52 154.06 157.47 C 154.28 158.42 155.23 159.00 156.18 158.78 Z M 157.10 158.52 L 158.09 158.32 C 159.02 158.13 159.63 157.22 159.44 156.28 C 159.24 155.34 158.33 154.74 157.40 154.93 L 156.41 155.13 C 155.47 155.32 154.87 156.24 155.06 157.17 C 155.25 158.11 156.16 158.71 157.10 158.52 Z M 158.00 158.29 L 159.02 158.13 C 159.94 157.99 160.57 157.12 160.43 156.20 C 160.28 155.28 159.42 154.65 158.50 154.80 L 157.48 154.96 C 156.56 155.11 155.93 155.97 156.08 156.89 C 156.22 157.81 157.08 158.44 158.00 158.29 Z M 158.96 158.09 L 159.92 157.97 C 160.81 157.86 161.45 157.05 161.35 156.15 C 161.24 155.25 160.42 154.62 159.52 154.72 L 158.56 154.84 C 157.67 154.95 157.03 155.76 157.14 156.66 C 157.25 157.56 158.06 158.20 158.96 158.09 Z M 159.89 157.94 L 160.40 157.88 C 161.27 157.79 161.91 157.00 161.81 156.12 C 161.72 155.25 160.93 154.61 160.05 154.71 L 159.55 154.76 C 158.67 154.85 158.04 155.64 158.13 156.52 C 158.23 157.40 159.01 158.03 159.89 157.94 Z"
      fill="black"
      fill-rule="nonzero" /><path d="M 140.59 171.16 L 140.12 172.21 C 139.69 173.16 140.11 174.28 141.07 174.71 C 142.02 175.14 143.14 174.71 143.56 173.76 L 144.04 172.71 C 144.47 171.76 144.04 170.64 143.09 170.21 C 142.14 169.78 141.02 170.21 140.59 171.16 Z M 140.07 173.81 L 140.32 174.35 C 140.77 175.32 141.93 175.75 142.91 175.30 C 143.89 174.85 144.31 173.69 143.86 172.71 L 143.61 172.17 C 143.16 171.19 142.00 170.77 141.02 171.22 C 140.05 171.67 139.62 172.83 140.07 173.81 Z M 142.14 175.51 L 143.01 175.48 C 144.11 175.46 144.97 174.54 144.94 173.45 C 144.91 172.36 144.00 171.50 142.91 171.53 L 142.04 171.55 C 140.94 171.58 140.08 172.49 140.11 173.58 C 140.14 174.68 141.05 175.54 142.14 175.51 Z M 143.44 175.44 L 144.59 175.15 C 145.66 174.89 146.31 173.81 146.05 172.74 C 145.78 171.67 144.70 171.02 143.64 171.29 L 142.48 171.57 C 141.41 171.83 140.76 172.91 141.02 173.98 C 141.29 175.05 142.37 175.70 143.44 175.44 Z M 144.77 175.11 L 145.76 174.76 C 146.80 174.40 147.35 173.26 146.99 172.22 C 146.63 171.17 145.49 170.62 144.44 170.99 L 143.45 171.33 C 142.41 171.70 141.86 172.84 142.23 173.88 C 142.59 174.92 143.73 175.47 144.77 175.11 Z M 145.87 174.71 L 146.79 174.33 C 147.80 173.91 148.28 172.74 147.86 171.72 C 147.43 170.70 146.26 170.23 145.25 170.65 L 144.33 171.03 C 143.32 171.46 142.84 172.63 143.26 173.64 C 143.69 174.66 144.86 175.14 145.87 174.71 Z M 146.84 174.30 L 147.74 173.90 C 148.74 173.44 149.18 172.26 148.73 171.26 C 148.27 170.26 147.09 169.81 146.09 170.27 L 145.19 170.68 C 144.19 171.14 143.75 172.32 144.21 173.32 C 144.66 174.32 145.84 174.76 146.84 174.30 Z M 147.75 173.88 L 148.54 173.52 C 149.53 173.05 149.96 171.87 149.50 170.88 C 149.04 169.88 147.86 169.45 146.86 169.92 L 146.07 170.28 C 145.08 170.75 144.65 171.93 145.11 172.92 C 145.58 173.92 146.76 174.35 147.75 173.88 Z M 148.55 173.50 L 149.42 173.08 C 150.40 172.61 150.82 171.43 150.34 170.45 C 149.87 169.47 148.69 169.05 147.71 169.52 L 146.85 169.93 C 145.86 170.41 145.45 171.59 145.92 172.57 C 146.39 173.55 147.57 173.97 148.55 173.50 Z M 149.44 173.06 L 150.43 172.57 C 151.41 172.09 151.80 170.91 151.32 169.93 C 150.83 168.96 149.65 168.56 148.68 169.05 L 147.69 169.54 C 146.71 170.03 146.32 171.21 146.80 172.18 C 147.29 173.15 148.47 173.55 149.44 173.06 Z M 150.45 172.55 L 151.38 172.07 C 152.34 171.58 152.72 170.40 152.23 169.44 C 151.73 168.48 150.55 168.10 149.59 168.59 L 148.66 169.07 C 147.70 169.56 147.32 170.74 147.82 171.70 C 148.31 172.66 149.49 173.04 150.45 172.55 Z M 151.39 172.05 L 152.30 171.57 C 153.25 171.07 153.62 169.90 153.12 168.95 C 152.62 168.00 151.44 167.63 150.49 168.13 L 149.58 168.61 C 148.63 169.11 148.27 170.28 148.77 171.23 C 149.26 172.18 150.44 172.55 151.39 172.05 Z M 152.30 171.56 L 153.23 171.06 C 154.17 170.56 154.53 169.39 154.03 168.45 C 153.53 167.51 152.36 167.15 151.42 167.65 L 150.49 168.15 C 149.55 168.65 149.19 169.82 149.69 170.76 C 150.19 171.70 151.36 172.06 152.30 171.56 Z M 153.23 171.05 L 154.13 170.57 C 155.06 170.07 155.41 168.91 154.91 167.98 C 154.41 167.04 153.25 166.69 152.32 167.19 L 151.42 167.67 C 150.49 168.17 150.14 169.33 150.64 170.26 C 151.13 171.20 152.30 171.55 153.23 171.05 Z M 154.12 170.55 L 154.97 170.10 C 155.89 169.60 156.24 168.45 155.74 167.52 C 155.24 166.60 154.09 166.25 153.17 166.75 L 152.32 167.21 C 151.40 167.70 151.05 168.86 151.55 169.78 C 152.04 170.70 153.20 171.05 154.12 170.55 Z M 154.94 170.05 L 155.97 169.50 C 156.87 169.02 157.20 167.90 156.72 167.00 C 156.24 166.10 155.11 165.76 154.21 166.24 L 153.19 166.79 C 152.29 167.28 151.95 168.40 152.44 169.30 C 152.92 170.20 154.04 170.54 154.94 170.05 Z M 155.92 169.44 L 156.75 169.00 C 157.61 168.54 157.94 167.47 157.48 166.60 C 157.02 165.74 155.95 165.41 155.09 165.87 L 154.26 166.31 C 153.40 166.77 153.07 167.84 153.53 168.71 C 153.99 169.57 155.06 169.90 155.92 169.44 Z M 156.69 168.94 L 157.46 168.54 C 158.30 168.11 158.62 167.09 158.19 166.26 C 157.77 165.43 156.74 165.10 155.91 165.53 L 155.14 165.93 C 154.31 166.36 153.98 167.38 154.41 168.21 C 154.84 169.04 155.86 169.37 156.69 168.94 Z M 157.42 168.51 L 158.30 168.07 C 159.12 167.67 159.45 166.68 159.04 165.87 C 158.64 165.06 157.66 164.72 156.84 165.13 L 155.96 165.57 C 155.15 165.97 154.82 166.95 155.22 167.77 C 155.62 168.58 156.61 168.91 157.42 168.51 Z M 158.28 168.05 L 159.18 167.61 C 159.98 167.22 160.32 166.26 159.93 165.46 C 159.54 164.66 158.58 164.32 157.78 164.71 L 156.87 165.15 C 156.07 165.54 155.74 166.50 156.13 167.30 C 156.51 168.10 157.47 168.43 158.28 168.05 Z M 159.17 167.59 L 159.57 167.40 C 160.36 167.02 160.69 166.07 160.31 165.28 C 159.94 164.49 158.99 164.16 158.20 164.54 L 157.80 164.73 C 157.01 165.11 156.67 166.06 157.05 166.85 C 157.43 167.64 158.38 167.97 159.17 167.59 Z"
      fill="black"
      fill-rule="nonzero" /><path d="M 140.00 187.08 L 140.90 186.91 C 141.90 186.72 142.55 185.76 142.35 184.76 C 142.16 183.77 141.20 183.12 140.21 183.31 L 139.30 183.49 C 138.31 183.68 137.66 184.64 137.85 185.63 C 138.04 186.62 139.00 187.27 140.00 187.08 Z M 140.93 186.98 L 141.87 186.79 C 142.90 186.58 143.57 185.57 143.36 184.54 C 143.15 183.51 142.14 182.84 141.11 183.05 L 140.18 183.24 C 139.14 183.45 138.48 184.46 138.69 185.49 C 138.90 186.52 139.90 187.19 140.93 186.98 Z M 141.92 186.85 L 142.92 186.63 C 143.98 186.39 144.66 185.34 144.42 184.27 C 144.18 183.20 143.13 182.53 142.06 182.76 L 141.06 182.99 C 139.99 183.22 139.32 184.28 139.56 185.35 C 139.80 186.42 140.85 187.09 141.92 186.85 Z M 142.98 186.69 L 144.04 186.43 C 145.14 186.15 145.81 185.04 145.54 183.95 C 145.27 182.85 144.16 182.17 143.06 182.45 L 142.00 182.71 C 140.90 182.98 140.23 184.09 140.50 185.19 C 140.77 186.29 141.88 186.96 142.98 186.69 Z M 144.09 186.44 L 145.03 186.19 C 146.14 185.89 146.80 184.75 146.50 183.64 C 146.20 182.54 145.06 181.88 143.96 182.18 L 143.01 182.43 C 141.90 182.73 141.25 183.87 141.55 184.97 C 141.84 186.08 142.98 186.74 144.09 186.44 Z M 145.06 186.17 L 146.04 185.89 C 147.14 185.58 147.78 184.44 147.47 183.34 C 147.15 182.24 146.01 181.60 144.91 181.91 L 143.93 182.19 C 142.83 182.50 142.19 183.65 142.50 184.75 C 142.82 185.85 143.96 186.48 145.06 186.17 Z M 146.06 185.88 L 147.05 185.58 C 148.14 185.26 148.76 184.11 148.44 183.02 C 148.12 181.93 146.97 181.31 145.88 181.64 L 144.89 181.93 C 143.80 182.25 143.18 183.40 143.50 184.49 C 143.83 185.58 144.97 186.20 146.06 185.88 Z M 147.07 185.57 L 148.03 185.27 C 149.11 184.94 149.72 183.80 149.39 182.71 C 149.06 181.63 147.91 181.02 146.83 181.35 L 145.87 181.65 C 144.78 181.98 144.17 183.13 144.51 184.21 C 144.84 185.29 145.99 185.90 147.07 185.57 Z M 148.05 185.26 L 149.01 184.95 C 150.08 184.61 150.67 183.47 150.33 182.39 C 149.99 181.32 148.85 180.73 147.78 181.07 L 146.82 181.37 C 145.74 181.71 145.15 182.86 145.49 183.93 C 145.83 185.00 146.97 185.60 148.05 185.26 Z M 149.01 184.91 L 150.06 184.57 C 151.11 184.23 151.68 183.10 151.34 182.05 C 150.99 180.99 149.86 180.42 148.81 180.76 L 147.77 181.10 C 146.72 181.45 146.14 182.58 146.49 183.63 C 146.83 184.68 147.96 185.26 149.01 184.91 Z M 150.06 184.52 L 151.00 184.21 C 152.02 183.86 152.58 182.75 152.23 181.73 C 151.89 180.71 150.78 180.15 149.75 180.50 L 148.81 180.81 C 147.78 181.16 147.23 182.27 147.58 183.29 C 147.92 184.32 149.03 184.87 150.06 184.52 Z M 150.99 184.16 L 151.87 183.86 C 152.87 183.52 153.40 182.44 153.06 181.44 C 152.72 180.44 151.64 179.91 150.64 180.25 L 149.76 180.54 C 148.76 180.88 148.23 181.97 148.57 182.97 C 148.91 183.97 149.99 184.50 150.99 184.16 Z M 151.85 183.82 L 152.76 183.51 C 153.74 183.18 154.26 182.12 153.93 181.15 C 153.60 180.17 152.54 179.65 151.57 179.98 L 150.66 180.29 C 149.69 180.62 149.16 181.68 149.49 182.65 C 149.82 183.62 150.88 184.15 151.85 183.82 Z M 152.74 183.46 L 153.71 183.14 C 154.66 182.82 155.17 181.80 154.86 180.85 C 154.54 179.90 153.52 179.39 152.57 179.70 L 151.59 180.03 C 150.64 180.34 150.13 181.37 150.45 182.32 C 150.76 183.27 151.79 183.78 152.74 183.46 Z M 153.68 183.09 L 154.63 182.79 C 155.55 182.49 156.06 181.49 155.76 180.57 C 155.46 179.65 154.46 179.14 153.54 179.44 L 152.60 179.75 C 151.67 180.05 151.17 181.04 151.47 181.96 C 151.77 182.89 152.76 183.39 153.68 183.09 Z M 154.60 182.74 L 155.52 182.45 C 156.42 182.17 156.92 181.21 156.64 180.31 C 156.35 179.41 155.40 178.91 154.50 179.19 L 153.57 179.49 C 152.67 179.77 152.17 180.73 152.46 181.63 C 152.74 182.53 153.70 183.03 154.60 182.74 Z M 155.49 182.41 L 156.47 182.11 C 157.35 181.85 157.85 180.92 157.58 180.04 C 157.31 179.16 156.38 178.67 155.51 178.93 L 154.53 179.23 C 153.65 179.50 153.15 180.43 153.42 181.31 C 153.69 182.18 154.61 182.68 155.49 182.41 Z M 156.45 182.08 L 157.40 181.80 C 158.25 181.55 158.75 180.64 158.49 179.78 C 158.24 178.93 157.33 178.43 156.47 178.69 L 155.53 178.97 C 154.67 179.22 154.18 180.12 154.43 180.98 C 154.69 181.84 155.59 182.33 156.45 182.08 Z M 157.38 181.77 L 158.01 181.59 C 158.85 181.34 159.33 180.46 159.09 179.62 C 158.84 178.77 157.96 178.29 157.12 178.54 L 156.49 178.72 C 155.65 178.96 155.16 179.85 155.41 180.69 C 155.66 181.53 156.54 182.02 157.38 181.77 Z"
      fill="black"
      fill-rule="nonzero" /></svg>