<svg xmlns="http://www.w3.org/2000/svg" width="300" height="300" viewBox="0 0 300 300">
<path d="M 125.08 132.42 L 126.02 131.65 C 126.79 131.01 126.90 129.86 126.26 129.08 C 125.62 128.30 124.47 128.19 123.69 128.83 L 122.76 129.60 C 121.98 130.24 121.87 131.39 122.51 132.17 C 123.16 132.95 124.31 133.06 125.08 132.42 Z M 125.66 131.94 L 126.43 131.58 C 127.37 131.13 127.77 130.01 127.33 129.07 C 126.88 128.13 125.76 127.73 124.82 128.17 L 124.05 128.54 C 123.11 128.98 122.71 130.10 123.15 131.04 C 123.60 131.98 124.72 132.38 125.66 131.94 Z M 124.36 131.32 L 124.83 131.73 C 125.63 132.43 126.84 132.35 127.54 131.55 C 128.24 130.75 128.16 129.53 127.36 128.84 L 126.89 128.43 C 126.09 127.73 124.88 127.81 124.18 128.61 C 123.48 129.41 123.56 130.63 124.36 131.32 Z M 124.17 130.55 L 124.32 131.60 C 124.46 132.66 125.44 133.40 126.51 133.26 C 127.57 133.11 128.31 132.13 128.16 131.07 L 128.02 130.02 C 127.87 128.95 126.89 128.21 125.83 128.36 C 124.76 128.51 124.02 129.49 124.17 130.55 Z M 124.29 131.20 L 124.22 132.25 C 124.15 133.33 124.96 134.26 126.04 134.33 C 127.11 134.40 128.04 133.59 128.11 132.52 L 128.19 131.46 C 128.26 130.39 127.45 129.46 126.37 129.39 C 125.30 129.31 124.37 130.13 124.29 131.20 Z M 124.25 132.01 L 124.08 132.89 C 123.88 133.95 124.57 134.98 125.63 135.18 C 126.69 135.38 127.71 134.69 127.92 133.63 L 128.09 132.75 C 128.29 131.70 127.60 130.67 126.54 130.47 C 125.48 130.26 124.45 130.96 124.25 132.01 Z M 124.12 132.72 L 123.84 133.69 C 123.54 134.72 124.13 135.81 125.17 136.11 C 126.20 136.41 127.29 135.82 127.59 134.78 L 127.87 133.81 C 128.17 132.77 127.58 131.69 126.55 131.39 C 125.51 131.09 124.43 131.68 124.12 132.72 Z M 123.88 133.57 L 123.49 134.64 C 123.12 135.66 123.64 136.78 124.66 137.14 C 125.67 137.51 126.79 136.99 127.16 135.98 L 127.55 134.90 C 127.92 133.89 127.39 132.77 126.38 132.40 C 125.37 132.03 124.25 132.56 123.88 133.57 Z M 123.52 134.58 L 123.18 135.41 C 122.78 136.40 123.26 137.54 124.26 137.94 C 125.26 138.34 126.39 137.86 126.80 136.86 L 127.13 136.04 C 127.53 135.04 127.05 133.91 126.05 133.50 C 125.06 133.10 123.92 133.58 123.52 134.58 Z M 123.21 135.37 L 122.82 136.26 C 122.40 137.24 122.85 138.39 123.84 138.81 C 124.83 139.23 125.97 138.78 126.39 137.79 L 126.78 136.90 C 127.20 135.92 126.75 134.77 125.76 134.35 C 124.77 133.93 123.63 134.38 123.21 135.37 Z M 122.84 136.22 L 122.42 137.16 C 121.98 138.13 122.41 139.28 123.38 139.72 C 124.36 140.17 125.51 139.74 125.95 138.76 L 126.37 137.83 C 126.82 136.85 126.39 135.70 125.41 135.26 C 124.44 134.82 123.29 135.25 122.84 136.22 Z M 122.44 137.12 L 121.98 138.08 C 121.52 139.04 121.93 140.20 122.89 140.66 C 123.85 141.12 125.01 140.71 125.47 139.75 L 125.93 138.80 C 126.39 137.83 125.98 136.68 125.02 136.21 C 124.06 135.75 122.90 136.16 122.44 137.12 Z M 122.00 138.04 L 121.52 139.00 C 121.04 139.95 121.42 141.11 122.37 141.59 C 123.32 142.07 124.48 141.69 124.96 140.74 L 125.45 139.79 C 125.93 138.83 125.55 137.67 124.60 137.19 C 123.65 136.71 122.48 137.09 122.00 138.04 Z M 121.55 138.96 L 121.03 139.92 C 120.53 140.86 120.88 142.02 121.82 142.52 C 122.75 143.02 123.92 142.67 124.42 141.74 L 124.93 140.78 C 125.43 139.84 125.08 138.68 124.15 138.18 C 123.21 137.68 122.05 138.03 121.55 138.96 Z M 121.07 139.89 L 120.54 140.82 C 120.03 141.74 120.35 142.90 121.26 143.42 C 122.18 143.93 123.34 143.61 123.86 142.70 L 124.38 141.77 C 124.90 140.85 124.58 139.69 123.66 139.17 C 122.75 138.66 121.59 138.98 121.07 139.89 Z M 120.58 140.80 L 120.06 141.68 C 119.52 142.57 119.82 143.73 120.71 144.26 C 121.61 144.80 122.77 144.50 123.30 143.61 L 123.82 142.72 C 124.35 141.83 124.06 140.67 123.16 140.14 C 122.27 139.61 121.11 139.90 120.58 140.80 Z M 120.09 141.65 L 119.58 142.48 C 119.03 143.35 119.30 144.50 120.18 145.05 C 121.05 145.59 122.21 145.33 122.75 144.45 L 123.26 143.63 C 123.81 142.75 123.54 141.60 122.66 141.06 C 121.79 140.51 120.64 140.78 120.09 141.65 Z M 119.61 142.45 L 119.13 143.20 C 118.57 144.06 118.81 145.20 119.67 145.76 C 120.52 146.32 121.67 146.08 122.23 145.22 L 122.72 144.47 C 123.27 143.62 123.03 142.47 122.18 141.91 C 121.32 141.35 120.17 141.60 119.61 142.45 Z M 119.18 143.17 L 118.55 144.08 C 117.98 144.91 118.18 146.05 119.01 146.62 C 119.84 147.19 120.98 146.99 121.55 146.16 L 122.18 145.25 C 122.75 144.42 122.55 143.28 121.72 142.71 C 120.89 142.14 119.75 142.34 119.18 143.17 Z M 118.63 144.04 L 118.00 144.86 C 117.40 145.64 117.56 146.76 118.34 147.36 C 119.13 147.96 120.25 147.81 120.85 147.02 L 121.47 146.20 C 122.07 145.42 121.92 144.30 121.13 143.70 C 120.35 143.10 119.23 143.25 118.63 144.04 Z M 118.11 144.79 L 117.51 145.48 C 116.87 146.21 116.95 147.31 117.68 147.94 C 118.41 148.58 119.51 148.50 120.14 147.77 L 120.74 147.09 C 121.38 146.36 121.30 145.25 120.57 144.62 C 119.84 143.99 118.74 144.06 118.11 144.79 Z M 117.63 145.41 L 116.97 146.06 C 116.30 146.72 116.28 147.80 116.94 148.47 C 117.60 149.14 118.68 149.15 119.36 148.50 L 120.02 147.85 C 120.69 147.19 120.70 146.11 120.05 145.43 C 119.39 144.76 118.31 144.75 117.63 145.41 Z M 117.09 146.00 L 116.32 146.64 C 115.62 147.23 115.53 148.28 116.12 148.99 C 116.71 149.69 117.76 149.79 118.46 149.20 L 119.23 148.55 C 119.94 147.96 120.03 146.91 119.44 146.21 C 118.85 145.50 117.80 145.41 117.09 146.00 Z M 116.42 146.63 L 115.63 147.22 C 114.91 147.76 114.77 148.78 115.31 149.49 C 115.85 150.21 116.87 150.35 117.58 149.81 L 118.37 149.22 C 119.08 148.68 119.23 147.66 118.69 146.94 C 118.15 146.23 117.13 146.09 116.42 146.63 Z M 115.66 147.23 L 115.40 147.42 C 114.69 147.94 114.54 148.94 115.06 149.65 C 115.58 150.36 116.57 150.51 117.28 149.99 L 117.55 149.80 C 118.26 149.28 118.41 148.28 117.89 147.57 C 117.37 146.86 116.37 146.71 115.66 147.23 Z"
      fill="black"
      fill-rule="nonzero" /><path d="M 131.11 113.29 L 131.11 114.10 C 131.11 115.05 131.87 115.82 132.82 115.82 C 133.77 115.82 134.54 115.05 134.54 114.10 L 134.54 113.29 C 134.54 112.34 133.77 111.57 132.82 111.57 C 131.87 111.57 131.11 112.34 131.11 113.29 Z M 130.95 114.10 L 130.95 115.09 C 130.95 116.12 131.79 116.96 132.82 116.96 C 133.86 116.96 134.70 116.12 134.70 115.09 L 134.70 114.10 C 134.70 113.07 133.86 112.23 132.82 112.23 C 131.79 112.23 130.95 113.07 130.95 114.10 Z M 130.80 115.09 L 130.80 116.26 C 130.80 117.37 131.71 118.28 132.82 118.28 C 133.94 118.28 134.84 117.37 134.84 116.26 L 134.84 115.09 C 134.84 113.97 133.94 113.07 132.82 113.07 C 131.71 113.07 130.80 113.97 130.80 115.09 Z M 130.73 116.26 L 130.73 117.20 C 130.73 118.36 131.67 119.29 132.82 119.29 C 133.98 119.29 134.91 118.36 134.91 117.20 L 134.91 116.26 C 134.91 115.10 133.98 114.17 132.82 114.17 C 131.67 114.17 130.73 115.10 130.73 116.26 Z M 130.72 117.20 L 130.72 118.24 C 130.72 119.40 131.66 120.34 132.82 120.34 C 133.99 120.34 134.93 119.40 134.93 118.24 L 134.93 117.20 C 134.93 116.04 133.99 115.10 132.82 115.10 C 131.66 115.10 130.72 116.04 130.72 117.20 Z M 130.70 118.24 L 130.70 119.29 C 130.70 120.46 131.65 121.41 132.82 121.41 C 133.99 121.41 134.94 120.46 134.94 119.29 L 134.94 118.24 C 134.94 117.07 133.99 116.12 132.82 116.12 C 131.65 116.12 130.70 117.07 130.70 118.24 Z M 130.69 119.29 L 130.69 120.31 C 130.69 121.49 131.64 122.44 132.82 122.44 C 134.00 122.44 134.96 121.49 134.96 120.31 L 134.96 119.29 C 134.96 118.11 134.00 117.16 132.82 117.16 C 131.64 117.16 130.69 118.11 130.69 119.29 Z M 130.68 120.31 L 130.68 121.38 C 130.68 122.56 131.64 123.52 132.82 123.52 C 134.01 123.52 134.97 122.56 134.97 121.38 L 134.97 120.31 C 134.97 119.12 134.01 118.16 132.82 118.16 C 131.64 118.16 130.68 119.12 130.68 120.31 Z M 130.67 121.38 L 130.67 122.40 C 130.67 123.59 131.63 124.56 132.82 124.56 C 134.01 124.56 134.97 123.60 134.97 122.41 L 134.97 121.38 C 134.97 120.19 134.01 119.23 132.83 119.23 C 131.64 119.23 130.67 120.19 130.67 121.38 Z M 130.67 122.40 L 130.66 123.34 C 130.66 124.53 131.62 125.50 132.81 125.50 C 134.00 125.51 134.96 124.55 134.97 123.36 L 134.97 122.42 C 134.98 121.23 134.02 120.26 132.83 120.25 C 131.64 120.25 130.67 121.21 130.67 122.40 Z M 130.66 123.33 L 130.65 124.26 C 130.64 125.45 131.59 126.43 132.79 126.44 C 133.98 126.45 134.95 125.49 134.96 124.30 L 134.97 123.37 C 134.98 122.18 134.03 121.21 132.84 121.19 C 131.65 121.18 130.67 122.14 130.66 123.33 Z M 130.65 124.25 L 130.64 125.15 C 130.62 126.34 131.57 127.32 132.76 127.34 C 133.95 127.36 134.93 126.41 134.95 125.22 L 134.96 124.32 C 134.98 123.13 134.03 122.14 132.84 122.13 C 131.65 122.11 130.67 123.06 130.65 124.25 Z M 130.63 125.14 L 130.61 126.10 C 130.59 127.29 131.53 128.28 132.73 128.31 C 133.92 128.33 134.91 127.38 134.93 126.19 L 134.95 125.23 C 134.98 124.03 134.03 123.04 132.84 123.02 C 131.64 123.00 130.66 123.94 130.63 125.14 Z M 130.61 126.09 L 130.58 127.13 C 130.55 128.32 131.50 129.32 132.69 129.35 C 133.89 129.38 134.88 128.43 134.91 127.24 L 134.94 126.20 C 134.97 125.00 134.02 124.01 132.83 123.98 C 131.63 123.95 130.64 124.90 130.61 126.09 Z M 130.58 127.12 L 130.55 128.22 C 130.52 129.41 131.46 130.41 132.65 130.44 C 133.85 130.48 134.85 129.53 134.88 128.34 L 134.91 127.25 C 134.95 126.05 134.00 125.05 132.81 125.02 C 131.61 124.98 130.61 125.93 130.58 127.12 Z M 130.55 128.21 L 130.52 129.14 C 130.48 130.33 131.42 131.33 132.62 131.37 C 133.82 131.41 134.82 130.47 134.86 129.27 L 134.88 128.34 C 134.92 127.15 133.98 126.15 132.78 126.11 C 131.58 126.07 130.58 127.01 130.55 128.21 Z M 130.52 129.13 L 130.49 130.10 C 130.45 131.30 131.39 132.31 132.59 132.34 C 133.78 132.38 134.79 131.44 134.83 130.24 L 134.86 129.27 C 134.90 128.07 133.96 127.07 132.76 127.03 C 131.56 126.99 130.56 127.93 130.52 129.13 Z M 130.48 130.10 L 130.45 131.11 C 130.41 132.31 131.35 133.31 132.55 133.35 C 133.75 133.39 134.75 132.45 134.79 131.25 L 134.83 130.25 C 134.87 129.05 133.93 128.04 132.73 128.00 C 131.53 127.96 130.52 128.90 130.48 130.10 Z M 130.45 131.11 L 130.41 132.15 C 130.37 133.35 131.31 134.35 132.51 134.40 C 133.71 134.44 134.72 133.50 134.76 132.30 L 134.80 131.26 C 134.84 130.05 133.90 129.05 132.70 129.01 C 131.50 128.97 130.49 129.91 130.45 131.11 Z M 130.41 132.15 L 130.37 133.21 C 130.33 134.41 131.27 135.42 132.48 135.46 C 133.68 135.50 134.69 134.56 134.73 133.36 L 134.76 132.30 C 134.80 131.09 133.86 130.09 132.66 130.05 C 131.46 130.00 130.45 130.94 130.41 132.15 Z M 130.37 133.21 L 130.34 134.17 C 130.30 135.38 131.24 136.39 132.44 136.43 C 133.64 136.47 134.65 135.53 134.69 134.32 L 134.73 133.36 C 134.77 132.16 133.83 131.15 132.63 131.11 C 131.42 131.06 130.41 132.01 130.37 133.21 Z M 130.34 134.17 L 130.31 135.16 C 130.26 136.36 131.21 137.37 132.41 137.41 C 133.61 137.45 134.62 136.51 134.66 135.31 L 134.69 134.32 C 134.74 133.12 133.79 132.11 132.59 132.07 C 131.39 132.03 130.38 132.97 130.34 134.17 Z M 130.31 135.16 L 130.27 136.15 C 130.23 137.36 131.17 138.36 132.37 138.40 C 133.58 138.45 134.58 137.50 134.63 136.30 L 134.66 135.31 C 134.70 134.10 133.76 133.10 132.56 133.05 C 131.36 133.01 130.35 133.95 130.31 135.16 Z M 130.27 136.15 L 130.24 137.16 C 130.20 138.37 131.14 139.37 132.34 139.41 C 133.54 139.46 134.55 138.51 134.59 137.31 L 134.63 136.30 C 134.67 135.10 133.73 134.09 132.52 134.05 C 131.32 134.01 130.31 134.95 130.27 136.15 Z M 130.24 137.16 L 130.20 138.19 C 130.16 139.39 131.10 140.40 132.31 140.44 C 133.51 140.48 134.52 139.54 134.56 138.33 L 134.59 137.31 C 134.63 136.11 133.69 135.10 132.49 135.06 C 131.29 135.02 130.28 135.96 130.24 137.16 Z M 130.20 138.19 L 130.17 139.20 C 130.13 140.40 131.07 141.41 132.27 141.45 C 133.48 141.49 134.48 140.55 134.52 139.35 L 134.56 138.33 C 134.60 137.13 133.65 136.12 132.45 136.08 C 131.25 136.04 130.24 136.98 130.20 138.19 Z M 130.17 139.20 L 130.14 140.19 C 130.10 141.40 131.04 142.40 132.24 142.44 C 133.44 142.48 134.45 141.54 134.49 140.34 L 134.52 139.35 C 134.56 138.15 133.62 137.14 132.42 137.10 C 131.22 137.06 130.21 138.00 130.17 139.20 Z M 130.14 140.19 L 130.10 141.19 C 130.06 142.39 131.00 143.40 132.21 143.44 C 133.41 143.48 134.41 142.54 134.45 141.34 L 134.49 140.34 C 134.53 139.14 133.59 138.13 132.39 138.09 C 131.18 138.05 130.18 138.99 130.14 140.19 Z M 130.10 141.19 L 130.07 142.19 C 130.03 143.40 130.97 144.40 132.17 144.44 C 133.37 144.49 134.38 143.55 134.42 142.34 L 134.45 141.34 C 134.50 140.14 133.56 139.13 132.35 139.09 C 131.15 139.05 130.15 139.99 130.10 141.19 Z M 130.07 142.19 L 130.03 143.20 C 129.99 144.40 130.93 145.41 132.13 145.45 C 133.33 145.49 134.34 144.55 134.38 143.35 L 134.42 142.35 C 134.46 141.15 133.52 140.14 132.32 140.09 C 131.12 140.05 130.11 140.99 130.07 142.19 Z M 130.03 143.19 L 130.00 144.19 C 129.95 145.40 130.89 146.41 132.09 146.45 C 133.29 146.50 134.30 145.56 134.34 144.36 L 134.38 143.36 C 134.43 142.15 133.49 141.14 132.29 141.10 C 131.09 141.05 130.08 141.99 130.03 143.19 Z M 130.00 144.19 L 129.96 145.20 C 129.91 146.40 130.84 147.41 132.04 147.46 C 133.24 147.50 134.26 146.57 134.30 145.37 L 134.34 144.36 C 134.39 143.16 133.46 142.15 132.26 142.10 C 131.06 142.05 130.05 142.99 130.00 144.19 Z M 129.96 145.19 L 129.91 146.20 C 129.86 147.40 130.79 148.42 131.99 148.47 C 133.19 148.52 134.21 147.59 134.26 146.39 L 134.30 145.38 C 134.35 144.18 133.42 143.16 132.22 143.11 C 131.02 143.06 130.01 143.99 129.96 145.19 Z M 129.92 146.19 L 129.87 147.20 C 129.81 148.40 130.74 149.42 131.94 149.47 C 133.14 149.53 134.15 148.60 134.21 147.40 L 134.26 146.40 C 134.31 145.20 133.39 144.18 132.19 144.13 C 130.99 144.07 129.97 145.00 129.92 146.19 Z M 129.87 147.19 L 129.82 148.19 C 129.76 149.39 130.68 150.41 131.88 150.47 C 133.08 150.53 134.10 149.61 134.16 148.41 L 134.21 147.41 C 134.27 146.21 133.35 145.19 132.15 145.13 C 130.95 145.07 129.93 145.99 129.87 147.19 Z M 129.82 148.18 L 129.77 149.17 C 129.70 150.37 130.62 151.39 131.82 151.46 C 133.01 151.52 134.03 150.61 134.10 149.41 L 134.16 148.42 C 134.22 147.22 133.30 146.20 132.11 146.13 C 130.91 146.07 129.89 146.99 129.82 148.18 Z M 129.77 149.16 L 129.71 150.15 C 129.64 151.34 130.55 152.37 131.75 152.44 C 132.94 152.51 133.97 151.60 134.04 150.41 L 134.10 149.42 C 134.17 148.23 133.26 147.20 132.06 147.13 C 130.87 147.06 129.84 147.97 129.77 149.16 Z M 129.71 150.14 L 129.65 151.14 C 129.57 152.33 130.47 153.36 131.67 153.44 C 132.86 153.52 133.89 152.61 133.97 151.42 L 134.04 150.42 C 134.11 149.23 133.21 148.20 132.02 148.12 C 130.82 148.04 129.79 148.94 129.71 150.14 Z M 129.65 151.12 L 129.58 152.13 C 129.49 153.33 130.39 154.36 131.58 154.45 C 132.78 154.53 133.81 153.63 133.90 152.44 L 133.97 151.43 C 134.05 150.24 133.16 149.20 131.96 149.12 C 130.77 149.03 129.74 149.93 129.65 151.12 Z M 129.58 152.12 L 129.51 153.13 C 129.42 154.32 130.31 155.35 131.50 155.45 C 132.69 155.54 133.73 154.64 133.82 153.45 L 133.89 152.45 C 133.98 151.26 133.09 150.22 131.90 150.13 C 130.71 150.04 129.67 150.93 129.58 152.12 Z M 129.51 153.12 L 129.43 154.11 C 129.34 155.30 130.22 156.34 131.41 156.44 C 132.60 156.53 133.64 155.65 133.73 154.46 L 133.81 153.46 C 133.91 152.27 133.02 151.23 131.83 151.14 C 130.65 151.04 129.60 151.93 129.51 153.12 Z M 129.43 154.11 L 129.35 155.09 C 129.25 156.28 130.14 157.32 131.32 157.42 C 132.51 157.52 133.55 156.64 133.65 155.45 L 133.73 154.46 C 133.83 153.28 132.95 152.23 131.76 152.14 C 130.57 152.04 129.53 152.92 129.43 154.11 Z M 129.35 155.09 L 129.27 156.07 C 129.17 157.26 130.05 158.30 131.23 158.40 C 132.42 158.50 133.46 157.62 133.56 156.44 L 133.65 155.46 C 133.75 154.27 132.87 153.23 131.68 153.13 C 130.50 153.03 129.45 153.90 129.35 155.09 Z M 129.27 156.07 L 129.19 157.06 C 129.09 158.24 129.96 159.29 131.15 159.39 C 132.33 159.49 133.37 158.61 133.47 157.43 L 133.56 156.44 C 133.66 155.26 132.79 154.21 131.60 154.11 C 130.42 154.01 129.38 154.89 129.27 156.07 Z M 129.19 157.06 L 129.11 158.05 C 129.00 159.23 129.88 160.27 131.06 160.37 C 132.24 160.48 133.28 159.60 133.38 158.42 L 133.47 157.43 C 133.57 156.25 132.70 155.21 131.52 155.11 C 130.34 155.00 129.30 155.88 129.19 157.06 Z M 129.11 158.04 L 129.02 159.03 C 128.92 160.21 129.79 161.25 130.97 161.36 C 132.15 161.46 133.19 160.59 133.29 159.41 L 133.38 158.42 C 133.48 157.24 132.61 156.20 131.43 156.10 C 130.26 156.00 129.22 156.87 129.11 158.04 Z M 129.03 159.03 L 128.94 160.03 C 128.83 161.20 129.70 162.24 130.88 162.35 C 132.05 162.45 133.09 161.59 133.20 160.41 L 133.29 159.42 C 133.39 158.24 132.52 157.20 131.35 157.09 C 130.17 156.99 129.13 157.86 129.03 159.03 Z M 128.94 160.03 L 128.85 161.03 C 128.74 162.20 129.61 163.24 130.78 163.35 C 131.96 163.45 132.99 162.59 133.10 161.41 L 133.19 160.41 C 133.30 159.24 132.43 158.20 131.26 158.09 C 130.09 157.99 129.05 158.85 128.94 160.03 Z M 128.86 161.03 L 128.76 162.04 C 128.66 163.21 129.52 164.25 130.69 164.36 C 131.86 164.46 132.90 163.60 133.00 162.43 L 133.10 161.42 C 133.20 160.25 132.34 159.21 131.17 159.10 C 130.00 158.99 128.96 159.86 128.86 161.03 Z M 128.77 162.04 L 128.67 163.06 C 128.57 164.23 129.42 165.26 130.59 165.37 C 131.76 165.48 132.79 164.62 132.90 163.45 L 133.00 162.43 C 133.11 161.27 132.25 160.23 131.08 160.12 C 129.91 160.01 128.88 160.87 128.77 162.04 Z M 128.68 163.05 L 128.58 164.07 C 128.47 165.24 129.32 166.27 130.49 166.38 C 131.65 166.49 132.68 165.64 132.79 164.48 L 132.89 163.46 C 133.00 162.30 132.15 161.26 130.99 161.15 C 129.83 161.04 128.79 161.89 128.68 163.05 Z M 128.59 164.07 L 128.49 165.07 C 128.38 166.23 129.22 167.26 130.38 167.38 C 131.54 167.50 132.57 166.65 132.69 165.49 L 132.79 164.49 C 132.90 163.33 132.06 162.29 130.90 162.18 C 129.74 162.06 128.71 162.91 128.59 164.07 Z M 128.50 165.06 L 128.40 166.05 C 128.27 167.20 129.11 168.23 130.26 168.36 C 131.42 168.48 132.45 167.64 132.57 166.49 L 132.68 165.51 C 132.80 164.35 131.96 163.32 130.81 163.20 C 129.66 163.07 128.62 163.91 128.50 165.06 Z M 128.40 166.03 L 128.30 166.98 C 128.17 168.13 128.99 169.17 130.14 169.30 C 131.29 169.43 132.32 168.60 132.46 167.45 L 132.56 166.50 C 132.69 165.36 131.87 164.32 130.72 164.19 C 129.57 164.06 128.54 164.88 128.40 166.03 Z M 128.31 166.96 L 128.18 168.01 C 128.03 169.16 128.84 170.20 129.99 170.34 C 131.13 170.48 132.17 169.67 132.31 168.53 L 132.44 167.48 C 132.59 166.33 131.78 165.29 130.63 165.15 C 129.49 165.01 128.45 165.82 128.31 166.96 Z M 128.19 167.99 L 128.05 169.03 C 127.89 170.16 128.69 171.21 129.82 171.36 C 130.96 171.52 132.01 170.72 132.16 169.59 L 132.30 168.55 C 132.45 167.42 131.66 166.37 130.52 166.22 C 129.39 166.06 128.34 166.86 128.19 167.99 Z M 128.06 169.01 L 127.92 169.99 C 127.76 171.12 128.54 172.17 129.67 172.33 C 130.80 172.49 131.84 171.71 132.01 170.58 L 132.15 169.60 C 132.31 168.47 131.53 167.43 130.40 167.26 C 129.27 167.10 128.22 167.88 128.06 169.01 Z M 127.93 169.98 L 127.79 170.92 C 127.62 172.04 128.40 173.09 129.52 173.26 C 130.64 173.43 131.69 172.65 131.85 171.53 L 131.99 170.59 C 132.16 169.47 131.39 168.42 130.27 168.25 C 129.14 168.09 128.10 168.86 127.93 169.98 Z M 127.80 170.92 L 127.66 171.85 C 127.49 172.97 128.26 174.01 129.38 174.18 C 130.49 174.35 131.54 173.58 131.70 172.46 L 131.84 171.53 C 132.01 170.41 131.24 169.37 130.13 169.20 C 129.01 169.04 127.97 169.80 127.80 170.92 Z M 127.67 171.86 L 127.53 172.85 C 127.37 173.96 128.14 174.99 129.25 175.16 C 130.36 175.32 131.39 174.55 131.55 173.44 L 131.69 172.45 C 131.86 171.34 131.09 170.31 129.97 170.14 C 128.86 169.98 127.83 170.75 127.67 171.86 Z M 127.54 172.88 L 127.41 173.86 C 127.26 174.96 128.04 175.98 129.14 176.13 C 130.25 176.27 131.26 175.50 131.41 174.39 L 131.54 173.41 C 131.69 172.30 130.91 171.29 129.81 171.14 C 128.70 170.99 127.68 171.77 127.54 172.88 Z M 127.41 173.90 L 127.30 174.89 C 127.17 175.99 127.97 176.98 129.07 177.11 C 130.17 177.23 131.17 176.44 131.29 175.34 L 131.40 174.35 C 131.53 173.25 130.74 172.25 129.64 172.13 C 128.53 172.00 127.54 172.79 127.41 173.90 Z M 127.31 174.94 L 127.22 175.94 C 127.12 177.04 127.93 178.01 129.03 178.11 C 130.13 178.20 131.10 177.39 131.19 176.30 L 131.28 175.29 C 131.38 174.19 130.57 173.22 129.47 173.13 C 128.37 173.03 127.41 173.84 127.31 174.94 Z M 127.23 175.99 L 127.17 176.96 C 127.10 178.05 127.93 178.99 129.02 179.06 C 130.11 179.13 131.05 178.30 131.12 177.21 L 131.18 176.24 C 131.25 175.15 130.42 174.21 129.33 174.14 C 128.24 174.07 127.30 174.90 127.23 175.99 Z M 127.18 177.00 L 127.14 177.99 C 127.09 179.07 127.93 179.99 129.01 180.04 C 130.09 180.09 131.01 179.25 131.06 178.17 L 131.11 177.17 C 131.15 176.09 130.32 175.17 129.23 175.13 C 128.15 175.08 127.23 175.92 127.18 177.00 Z M 127.16 178.02 L 127.12 179.03 C 127.09 180.10 127.93 181.00 129.00 181.03 C 130.08 181.07 130.98 180.23 131.01 179.15 L 131.04 178.14 C 131.08 177.07 130.24 176.17 129.16 176.14 C 128.09 176.10 127.19 176.94 127.16 178.02 Z M 127.14 179.04 L 127.12 180.06 C 127.09 181.13 127.93 182.01 128.99 182.04 C 130.06 182.06 130.94 181.22 130.97 180.16 L 130.99 179.14 C 131.02 178.08 130.18 177.19 129.12 177.17 C 128.05 177.14 127.17 177.98 127.14 179.04 Z M 127.13 180.07 L 127.12 180.40 C 127.09 181.46 127.93 182.34 128.99 182.36 C 130.04 182.39 130.92 181.55 130.95 180.49 L 130.95 180.16 C 130.98 179.10 130.14 178.22 129.09 178.20 C 128.03 178.17 127.15 179.01 127.13 180.07 Z"
      fill="black"
      fill-rule="nonzero" /><path d="M 136.73 131.96 L 136.37 132.88 C 136.02 133.81 136.48 134.86 137.42 135.22 C 138.35 135.58 139.40 135.11 139.76 134.17 L 140.11 133.25 C 140.47 132.32 140.00 131.27 139.06 130.91 C 138.13 130.56 137.08 131.02 136.73 131.96 Z M 136.10 133.27 L 135.97 134.25 C 135.82 135.34 136.59 136.33 137.67 136.48 C 138.76 136.62 139.76 135.86 139.90 134.77 L 140.03 133.79 C 140.18 132.70 139.41 131.70 138.32 131.56 C 137.24 131.41 136.24 132.18 136.10 133.27 Z M 135.90 134.98 L 136.11 135.91 C 136.38 137.04 137.50 137.74 138.63 137.48 C 139.75 137.22 140.45 136.09 140.19 134.97 L 139.97 134.04 C 139.71 132.91 138.59 132.21 137.46 132.47 C 136.34 132.73 135.64 133.86 135.90 134.98 Z M 136.25 136.36 L 136.70 137.28 C 137.21 138.33 138.47 138.77 139.52 138.26 C 140.57 137.75 141.01 136.49 140.50 135.44 L 140.05 134.52 C 139.54 133.47 138.28 133.03 137.23 133.54 C 136.18 134.05 135.74 135.31 136.25 136.36 Z M 136.82 137.50 L 137.37 138.36 C 138.00 139.34 139.30 139.63 140.28 139.01 C 141.27 138.38 141.55 137.08 140.93 136.09 L 140.38 135.23 C 139.75 134.25 138.45 133.96 137.46 134.58 C 136.48 135.21 136.19 136.51 136.82 137.50 Z M 137.47 138.48 L 138.06 139.27 C 138.76 140.20 140.07 140.39 140.99 139.70 C 141.92 139.01 142.11 137.69 141.42 136.77 L 140.83 135.97 C 140.14 135.05 138.82 134.86 137.90 135.55 C 136.97 136.24 136.78 137.55 137.47 138.48 Z M 138.17 139.36 L 138.81 140.11 C 139.55 140.98 140.85 141.09 141.72 140.35 C 142.59 139.61 142.69 138.30 141.96 137.44 L 141.32 136.68 C 140.58 135.81 139.27 135.71 138.40 136.45 C 137.54 137.19 137.43 138.49 138.17 139.36 Z M 138.89 140.14 L 139.55 140.87 C 140.31 141.69 141.59 141.75 142.42 140.99 C 143.24 140.23 143.30 138.95 142.54 138.12 L 141.88 137.40 C 141.12 136.58 139.84 136.52 139.01 137.28 C 138.18 138.03 138.13 139.32 138.89 140.14 Z M 139.63 140.88 L 140.33 141.59 C 141.09 142.38 142.34 142.39 143.13 141.63 C 143.91 140.87 143.92 139.61 143.16 138.83 L 142.46 138.11 C 141.70 137.33 140.44 137.32 139.66 138.08 C 138.88 138.84 138.86 140.09 139.63 140.88 Z M 140.42 141.62 L 141.17 142.32 C 141.95 143.05 143.17 143.01 143.90 142.24 C 144.62 141.46 144.59 140.24 143.81 139.51 L 143.06 138.81 C 142.29 138.08 141.07 138.12 140.34 138.89 C 139.61 139.67 139.65 140.89 140.42 141.62 Z M 141.30 142.34 L 142.09 143.00 C 142.87 143.65 144.05 143.55 144.70 142.76 C 145.36 141.97 145.25 140.80 144.46 140.14 L 143.68 139.49 C 142.89 138.83 141.72 138.94 141.06 139.73 C 140.41 140.52 140.51 141.69 141.30 142.34 Z M 142.22 142.99 L 143.02 143.59 C 143.80 144.17 144.91 144.01 145.50 143.22 C 146.08 142.44 145.92 141.33 145.14 140.75 L 144.33 140.15 C 143.55 139.56 142.44 139.73 141.86 140.51 C 141.27 141.30 141.43 142.41 142.22 142.99 Z M 143.12 143.54 L 143.93 144.11 C 144.69 144.64 145.73 144.45 146.26 143.69 C 146.79 142.93 146.61 141.89 145.85 141.36 L 145.04 140.79 C 144.28 140.26 143.23 140.45 142.70 141.21 C 142.17 141.97 142.36 143.01 143.12 143.54 Z M 143.97 144.07 L 144.13 144.18 C 144.87 144.69 145.88 144.50 146.39 143.76 C 146.89 143.02 146.70 142.01 145.97 141.51 L 145.81 141.40 C 145.07 140.89 144.06 141.08 143.55 141.81 C 143.05 142.55 143.23 143.56 143.97 144.07 Z"
      fill="black"
      fill-rule="nonzero" /><path d="M 153.86 127.14 L 154.62 126.49 C 155.42 125.81 155.52 124.61 154.84 123.81 C 154.16 123.00 152.96 122.91 152.16 123.59 L 151.40 124.23 C 150.59 124.91 150.50 126.11 151.18 126.92 C 151.86 127.72 153.06 127.82 153.86 127.14 Z M 154.56 126.55 L 155.35 125.94 C 156.19 125.30 156.34 124.09 155.69 123.26 C 155.05 122.42 153.85 122.27 153.01 122.91 L 152.22 123.53 C 151.39 124.17 151.23 125.37 151.88 126.21 C 152.52 127.04 153.72 127.20 154.56 126.55 Z M 155.21 126.05 L 156.05 125.51 C 156.94 124.94 157.20 123.76 156.63 122.86 C 156.06 121.97 154.88 121.71 153.98 122.28 L 153.15 122.81 C 152.26 123.38 151.99 124.57 152.56 125.46 C 153.13 126.35 154.32 126.62 155.21 126.05 Z M 155.87 125.61 L 156.74 125.18 C 157.69 124.70 158.08 123.55 157.60 122.60 C 157.13 121.65 155.97 121.27 155.03 121.74 L 154.16 122.18 C 153.21 122.65 152.82 123.81 153.30 124.75 C 153.77 125.70 154.93 126.09 155.87 125.61 Z M 156.63 125.22 L 157.56 124.83 C 158.53 124.42 158.99 123.30 158.58 122.32 C 158.16 121.35 157.04 120.89 156.07 121.31 L 155.14 121.70 C 154.16 122.11 153.71 123.23 154.12 124.21 C 154.53 125.18 155.66 125.64 156.63 125.22 Z M 157.52 124.84 L 158.46 124.47 C 159.44 124.08 159.92 122.97 159.52 121.99 C 159.13 121.01 158.02 120.53 157.04 120.92 L 156.10 121.29 C 155.12 121.69 154.65 122.80 155.04 123.78 C 155.43 124.76 156.54 125.23 157.52 124.84 Z M 158.46 124.46 L 159.36 124.10 C 160.34 123.71 160.82 122.60 160.42 121.62 C 160.03 120.64 158.92 120.17 157.94 120.56 L 157.04 120.93 C 156.06 121.32 155.59 122.43 155.98 123.40 C 156.37 124.38 157.48 124.86 158.46 124.46 Z M 159.36 124.10 L 160.30 123.72 C 161.28 123.33 161.75 122.22 161.36 121.24 C 160.96 120.27 159.85 119.80 158.88 120.19 L 157.94 120.57 C 156.97 120.96 156.50 122.07 156.89 123.04 C 157.28 124.02 158.39 124.49 159.36 124.10 Z M 160.30 123.72 L 161.26 123.33 C 162.23 122.94 162.70 121.83 162.31 120.86 C 161.92 119.89 160.82 119.42 159.84 119.81 L 158.88 120.19 C 157.91 120.58 157.44 121.69 157.83 122.66 C 158.22 123.63 159.32 124.11 160.30 123.72 Z M 161.25 123.33 L 162.19 122.95 C 163.16 122.56 163.63 121.46 163.24 120.49 C 162.86 119.52 161.76 119.05 160.78 119.44 L 159.85 119.81 C 158.88 120.20 158.41 121.30 158.79 122.27 C 159.18 123.24 160.28 123.71 161.25 123.33 Z M 162.20 122.94 L 163.13 122.56 C 164.10 122.17 164.56 121.07 164.17 120.11 C 163.78 119.14 162.68 118.68 161.72 119.07 L 160.78 119.45 C 159.82 119.84 159.35 120.94 159.74 121.90 C 160.13 122.87 161.23 123.33 162.20 122.94 Z M 163.15 122.54 L 164.06 122.16 C 165.02 121.76 165.47 120.66 165.07 119.71 C 164.67 118.75 163.57 118.30 162.61 118.70 L 161.70 119.08 C 160.74 119.48 160.29 120.58 160.69 121.54 C 161.09 122.50 162.19 122.95 163.15 122.54 Z M 164.09 122.14 L 165.04 121.72 C 165.98 121.30 166.41 120.20 165.99 119.26 C 165.57 118.32 164.47 117.89 163.53 118.31 L 162.58 118.72 C 161.64 119.14 161.21 120.24 161.63 121.19 C 162.05 122.13 163.15 122.56 164.09 122.14 Z M 165.06 121.70 L 165.99 121.27 C 166.92 120.84 167.32 119.73 166.89 118.80 C 166.46 117.87 165.35 117.47 164.42 117.90 L 163.50 118.33 C 162.57 118.76 162.17 119.87 162.60 120.80 C 163.03 121.72 164.13 122.13 165.06 121.70 Z M 165.99 121.25 L 166.87 120.84 C 167.79 120.40 168.18 119.30 167.74 118.38 C 167.31 117.46 166.21 117.07 165.29 117.51 L 164.42 117.92 C 163.50 118.35 163.10 119.45 163.54 120.37 C 163.97 121.29 165.07 121.69 165.99 121.25 Z M 166.85 120.84 L 167.77 120.41 C 168.69 119.98 169.09 118.89 168.66 117.97 C 168.23 117.05 167.14 116.66 166.22 117.08 L 165.31 117.51 C 164.39 117.94 163.99 119.03 164.41 119.94 C 164.84 120.86 165.93 121.26 166.85 120.84 Z M 167.73 120.42 L 168.65 120.02 C 169.58 119.62 170.00 118.54 169.60 117.61 C 169.19 116.68 168.12 116.26 167.19 116.66 L 166.26 117.07 C 165.34 117.47 164.91 118.55 165.32 119.48 C 165.72 120.40 166.80 120.83 167.73 120.42 Z M 168.58 120.05 L 169.47 119.70 C 170.41 119.34 170.88 118.28 170.51 117.34 C 170.15 116.40 169.09 115.93 168.15 116.29 L 167.26 116.64 C 166.32 117.00 165.85 118.06 166.22 119.00 C 166.58 119.94 167.64 120.41 168.58 120.05 Z M 169.29 119.79 L 170.41 119.49 C 171.39 119.23 171.98 118.21 171.72 117.22 C 171.45 116.23 170.44 115.64 169.45 115.91 L 168.33 116.21 C 167.34 116.47 166.75 117.49 167.02 118.48 C 167.28 119.47 168.30 120.05 169.29 119.79 Z M 169.44 119.55 L 170.17 119.74 C 171.19 120.01 172.24 119.40 172.50 118.38 C 172.77 117.36 172.16 116.31 171.14 116.04 L 170.41 115.85 C 169.39 115.58 168.35 116.19 168.08 117.21 C 167.81 118.23 168.42 119.28 169.44 119.55 Z M 168.72 118.22 L 168.86 119.05 C 169.04 120.12 170.05 120.84 171.12 120.66 C 172.19 120.48 172.91 119.47 172.73 118.40 L 172.59 117.57 C 172.41 116.50 171.40 115.78 170.33 115.96 C 169.26 116.13 168.54 117.15 168.72 118.22 Z M 168.85 118.24 L 168.57 119.34 C 168.30 120.41 168.96 121.50 170.03 121.77 C 171.11 122.04 172.20 121.38 172.47 120.31 L 172.74 119.21 C 173.01 118.13 172.36 117.04 171.28 116.77 C 170.20 116.50 169.11 117.16 168.85 118.24 Z M 168.65 119.00 L 168.29 119.82 C 167.84 120.85 168.30 122.06 169.33 122.51 C 170.36 122.97 171.57 122.50 172.02 121.47 L 172.39 120.65 C 172.84 119.62 172.37 118.41 171.34 117.96 C 170.31 117.50 169.11 117.97 168.65 119.00 Z M 168.36 119.65 L 167.87 120.53 C 167.31 121.52 167.67 122.77 168.66 123.33 C 169.66 123.88 170.91 123.52 171.46 122.53 L 171.95 121.65 C 172.51 120.65 172.15 119.40 171.16 118.85 C 170.16 118.30 168.91 118.65 168.36 119.65 Z M 167.90 120.44 L 167.33 121.36 C 166.73 122.34 167.03 123.61 168.00 124.21 C 168.98 124.82 170.25 124.52 170.86 123.54 L 171.43 122.62 C 172.03 121.65 171.73 120.37 170.75 119.77 C 169.78 119.17 168.50 119.47 167.90 120.44 Z M 167.34 121.33 L 166.81 122.16 C 166.19 123.13 166.47 124.42 167.44 125.04 C 168.41 125.66 169.70 125.37 170.32 124.40 L 170.85 123.57 C 171.47 122.61 171.18 121.32 170.22 120.70 C 169.25 120.08 167.96 120.36 167.34 121.33 Z M 166.81 122.15 L 166.25 123.01 C 165.62 123.98 165.90 125.27 166.87 125.90 C 167.84 126.53 169.13 126.25 169.76 125.28 L 170.32 124.42 C 170.94 123.45 170.66 122.15 169.70 121.53 C 168.73 120.90 167.44 121.18 166.81 122.15 Z M 166.24 123.01 L 165.69 123.87 C 165.07 124.84 165.35 126.14 166.32 126.76 C 167.29 127.39 168.59 127.11 169.21 126.14 L 169.76 125.28 C 170.39 124.31 170.11 123.01 169.14 122.39 C 168.17 121.76 166.87 122.04 166.24 123.01 Z M 165.68 123.88 L 165.14 124.73 C 164.52 125.71 164.81 127.01 165.79 127.63 C 166.77 128.25 168.07 127.95 168.69 126.98 L 169.22 126.13 C 169.84 125.15 169.55 123.85 168.57 123.23 C 167.60 122.61 166.30 122.90 165.68 123.88 Z M 165.12 124.76 L 164.61 125.60 C 164.00 126.59 164.31 127.88 165.30 128.49 C 166.29 129.09 167.58 128.78 168.19 127.79 L 168.70 126.95 C 169.31 125.96 169.00 124.67 168.01 124.06 C 167.02 123.46 165.73 123.77 165.12 124.76 Z M 164.58 125.63 L 164.09 126.47 C 163.51 127.48 163.85 128.76 164.85 129.35 C 165.85 129.93 167.14 129.59 167.72 128.59 L 168.21 127.75 C 168.80 126.75 168.46 125.47 167.46 124.88 C 166.46 124.30 165.17 124.63 164.58 125.63 Z M 164.07 126.51 L 163.58 127.40 C 163.01 128.42 163.38 129.69 164.39 130.26 C 165.41 130.82 166.68 130.46 167.25 129.44 L 167.74 128.55 C 168.31 127.54 167.94 126.26 166.93 125.70 C 165.91 125.13 164.64 125.50 164.07 126.51 Z M 163.56 127.43 L 163.12 128.27 C 162.57 129.29 162.96 130.56 163.98 131.10 C 165.00 131.65 166.27 131.26 166.82 130.24 L 167.26 129.41 C 167.81 128.39 167.42 127.12 166.40 126.57 C 165.38 126.03 164.11 126.41 163.56 127.43 Z M 163.11 128.29 L 162.65 129.18 C 162.12 130.20 162.52 131.47 163.54 132.00 C 164.57 132.53 165.83 132.13 166.37 131.11 L 166.83 130.22 C 167.36 129.19 166.96 127.93 165.93 127.40 C 164.91 126.86 163.64 127.26 163.11 128.29 Z M 162.64 129.20 L 162.18 130.11 C 161.66 131.14 162.07 132.40 163.10 132.92 C 164.13 133.45 165.38 133.03 165.91 132.00 L 166.37 131.09 C 166.89 130.06 166.48 128.80 165.45 128.28 C 164.42 127.76 163.17 128.17 162.64 129.20 Z M 162.17 130.13 L 161.71 131.06 C 161.20 132.09 161.62 133.34 162.65 133.85 C 163.69 134.37 164.94 133.94 165.45 132.91 L 165.91 131.99 C 166.42 130.96 166.00 129.70 164.97 129.19 C 163.94 128.68 162.69 129.10 162.17 130.13 Z M 161.72 131.08 L 161.26 132.03 C 160.76 133.06 161.19 134.30 162.21 134.80 C 163.24 135.30 164.48 134.87 164.98 133.84 L 165.44 132.89 C 165.94 131.86 165.52 130.62 164.49 130.12 C 163.46 129.62 162.22 130.05 161.72 131.08 Z M 161.27 132.07 L 160.83 133.00 C 160.35 134.02 160.80 135.24 161.82 135.72 C 162.84 136.19 164.06 135.75 164.54 134.73 L 164.97 133.80 C 165.45 132.78 165.01 131.57 163.99 131.09 C 162.96 130.61 161.75 131.05 161.27 132.07 Z M 160.84 133.05 L 160.44 133.94 C 159.99 134.96 160.45 136.15 161.47 136.61 C 162.49 137.06 163.68 136.60 164.13 135.58 L 164.53 134.68 C 164.98 133.66 164.52 132.47 163.50 132.02 C 162.48 131.57 161.29 132.03 160.84 133.05 Z M 160.45 134.01 L 160.09 134.89 C 159.68 135.90 160.16 137.06 161.18 137.48 C 162.20 137.89 163.36 137.40 163.77 136.39 L 164.13 135.51 C 164.54 134.49 164.05 133.33 163.04 132.92 C 162.02 132.51 160.86 132.99 160.45 134.01 Z M 160.12 134.98 L 159.76 135.97 C 159.40 136.97 159.92 138.07 160.92 138.44 C 161.92 138.80 163.03 138.28 163.39 137.28 L 163.75 136.29 C 164.11 135.29 163.59 134.18 162.59 133.82 C 161.58 133.46 160.48 133.98 160.12 134.98 Z M 159.82 136.06 L 159.52 137.00 C 159.21 137.97 159.74 139.01 160.71 139.32 C 161.68 139.63 162.72 139.10 163.03 138.13 L 163.33 137.18 C 163.64 136.21 163.11 135.18 162.14 134.86 C 161.17 134.55 160.13 135.09 159.82 136.06 Z M 159.59 137.06 L 159.31 137.98 C 159.04 138.91 159.57 139.89 160.50 140.17 C 161.43 140.45 162.41 139.92 162.69 138.98 L 162.96 138.06 C 163.24 137.13 162.71 136.15 161.78 135.88 C 160.84 135.60 159.86 136.13 159.59 137.06 Z M 159.36 138.00 L 159.33 138.09 C 159.06 139.00 159.58 139.95 160.49 140.22 C 161.40 140.48 162.35 139.96 162.62 139.05 L 162.65 138.96 C 162.91 138.06 162.39 137.10 161.48 136.84 C 160.57 136.57 159.62 137.09 159.36 138.00 Z"
      fill="black"
      fill-rule="nonzero" /><path d="M 149.46 146.81 L 148.54 146.44 C 147.69 146.09 146.73 146.50 146.38 147.35 C 146.04 148.19 146.44 149.16 147.29 149.50 L 148.21 149.88 C 149.06 150.23 150.03 149.82 150.37 148.97 C 150.72 148.12 150.31 147.16 149.46 146.81 Z M 148.44 146.35 L 147.49 146.04 C 146.59 145.76 145.63 146.25 145.34 147.14 C 145.06 148.04 145.55 148.99 146.44 149.28 L 147.39 149.59 C 148.29 149.88 149.24 149.39 149.53 148.49 C 149.82 147.60 149.33 146.64 148.44 146.35 Z M 147.25 145.91 L 145.99 145.71 C 145.02 145.55 144.11 146.20 143.95 147.17 C 143.79 148.14 144.45 149.05 145.41 149.21 L 146.68 149.41 C 147.64 149.57 148.55 148.92 148.71 147.95 C 148.87 146.98 148.22 146.07 147.25 145.91 Z M 145.84 145.58 L 145.35 145.54 C 144.31 145.47 143.41 146.25 143.34 147.29 C 143.26 148.32 144.04 149.23 145.08 149.30 L 145.57 149.34 C 146.60 149.41 147.51 148.63 147.58 147.59 C 147.66 146.55 146.87 145.65 145.84 145.58 Z M 145.31 149.43 L 146.32 149.39 C 147.43 149.34 148.29 148.39 148.24 147.28 C 148.19 146.17 147.25 145.31 146.13 145.36 L 145.13 145.41 C 144.01 145.46 143.15 146.40 143.20 147.51 C 143.26 148.63 144.20 149.49 145.31 149.43 Z M 146.67 149.44 L 147.75 149.21 C 148.89 148.97 149.62 147.85 149.37 146.71 C 149.13 145.57 148.01 144.84 146.87 145.08 L 145.79 145.31 C 144.65 145.55 143.92 146.67 144.16 147.81 C 144.40 148.96 145.52 149.68 146.67 149.44 Z M 148.11 149.13 L 149.02 148.77 C 150.12 148.32 150.65 147.08 150.21 145.98 C 149.77 144.88 148.52 144.35 147.42 144.79 L 146.51 145.16 C 145.41 145.60 144.88 146.85 145.32 147.94 C 145.76 149.04 147.01 149.57 148.11 149.13 Z M 149.17 148.71 L 150.07 148.27 C 151.14 147.74 151.58 146.46 151.06 145.39 C 150.53 144.32 149.25 143.88 148.18 144.41 L 147.28 144.85 C 146.21 145.37 145.77 146.66 146.29 147.72 C 146.81 148.79 148.10 149.23 149.17 148.71 Z M 150.10 148.25 L 150.92 147.83 C 151.98 147.29 152.40 146.00 151.87 144.94 C 151.33 143.88 150.03 143.46 148.97 144.00 L 148.15 144.42 C 147.09 144.96 146.67 146.25 147.21 147.31 C 147.75 148.37 149.04 148.79 150.10 148.25 Z M 150.93 147.83 L 151.84 147.36 C 152.90 146.82 153.32 145.52 152.77 144.47 C 152.23 143.41 150.93 142.99 149.88 143.53 L 148.96 144.00 C 147.91 144.54 147.49 145.84 148.03 146.90 C 148.58 147.96 149.87 148.37 150.93 147.83 Z M 151.84 147.37 L 152.81 146.87 C 153.87 146.33 154.29 145.03 153.75 143.97 C 153.21 142.92 151.92 142.49 150.86 143.03 L 149.88 143.53 C 148.82 144.07 148.40 145.37 148.94 146.43 C 149.48 147.49 150.78 147.91 151.84 147.37 Z M 152.80 146.87 L 153.70 146.42 C 154.77 145.89 155.19 144.59 154.66 143.53 C 154.12 142.47 152.83 142.04 151.77 142.58 L 150.87 143.03 C 149.81 143.56 149.38 144.86 149.91 145.92 C 150.45 146.98 151.74 147.41 152.80 146.87 Z M 153.70 146.42 L 154.62 145.96 C 155.68 145.43 156.11 144.14 155.58 143.07 C 155.05 142.01 153.76 141.58 152.69 142.11 L 151.77 142.58 C 150.71 143.11 150.28 144.40 150.81 145.46 C 151.35 146.52 152.64 146.95 153.70 146.42 Z M 154.62 145.96 L 155.51 145.51 C 156.57 144.98 157.00 143.69 156.47 142.63 C 155.94 141.56 154.65 141.14 153.59 141.67 L 152.69 142.12 C 151.63 142.65 151.21 143.94 151.74 145.00 C 152.27 146.06 153.56 146.49 154.62 145.96 Z M 155.52 145.50 L 156.43 145.04 C 157.49 144.51 157.91 143.22 157.38 142.16 C 156.84 141.10 155.55 140.68 154.49 141.21 L 153.58 141.67 C 152.53 142.21 152.10 143.50 152.64 144.56 C 153.17 145.61 154.46 146.04 155.52 145.50 Z M 156.44 145.03 L 157.37 144.55 C 158.42 144.01 158.83 142.72 158.29 141.67 C 157.75 140.62 156.46 140.21 155.41 140.75 L 154.49 141.22 C 153.44 141.76 153.02 143.05 153.56 144.10 C 154.10 145.15 155.39 145.57 156.44 145.03 Z M 157.37 144.54 L 158.21 144.10 C 159.25 143.56 159.66 142.28 159.12 141.23 C 158.58 140.19 157.29 139.78 156.25 140.33 L 155.41 140.76 C 154.36 141.30 153.96 142.59 154.50 143.63 C 155.04 144.68 156.33 145.08 157.37 144.54 Z M 158.21 144.10 L 159.05 143.66 C 160.09 143.11 160.50 141.83 159.95 140.79 C 159.41 139.76 158.13 139.35 157.09 139.89 L 156.25 140.33 C 155.21 140.88 154.81 142.16 155.35 143.20 C 155.89 144.23 157.17 144.64 158.21 144.10 Z M 159.05 143.65 L 159.93 143.19 C 160.97 142.65 161.37 141.38 160.84 140.34 C 160.30 139.31 159.02 138.90 157.98 139.44 L 157.10 139.90 C 156.06 140.44 155.66 141.71 156.20 142.75 C 156.73 143.79 158.01 144.19 159.05 143.65 Z M 159.92 143.19 L 160.81 142.73 C 161.85 142.20 162.26 140.93 161.73 139.89 C 161.19 138.86 159.92 138.45 158.89 138.98 L 157.99 139.44 C 156.96 139.97 156.55 141.24 157.08 142.28 C 157.62 143.32 158.89 143.72 159.92 143.19 Z M 160.80 142.73 L 161.70 142.28 C 162.73 141.75 163.14 140.49 162.62 139.45 C 162.09 138.42 160.83 138.00 159.79 138.53 L 158.90 138.98 C 157.86 139.51 157.45 140.77 157.98 141.81 C 158.50 142.84 159.77 143.26 160.80 142.73 Z M 161.69 142.27 L 162.58 141.82 C 163.61 141.30 164.03 140.04 163.51 139.01 C 162.98 137.97 161.73 137.56 160.69 138.08 L 159.80 138.54 C 158.77 139.06 158.36 140.32 158.88 141.35 C 159.40 142.38 160.66 142.79 161.69 142.27 Z M 162.58 141.81 L 163.46 141.36 C 164.49 140.84 164.90 139.58 164.38 138.56 C 163.85 137.53 162.60 137.12 161.57 137.65 L 160.69 138.09 C 159.67 138.61 159.26 139.87 159.78 140.90 C 160.30 141.92 161.56 142.33 162.58 141.81 Z M 163.47 141.35 L 164.21 140.97 C 165.23 140.45 165.63 139.19 165.11 138.17 C 164.58 137.15 163.33 136.75 162.31 137.28 L 161.57 137.66 C 160.55 138.18 160.15 139.43 160.67 140.45 C 161.20 141.47 162.45 141.87 163.47 141.35 Z M 164.20 140.96 L 165.03 140.54 C 166.05 140.02 166.46 138.77 165.94 137.76 C 165.42 136.74 164.17 136.33 163.15 136.85 L 162.32 137.28 C 161.30 137.80 160.90 139.04 161.42 140.06 C 161.94 141.08 163.18 141.48 164.20 140.96 Z M 165.02 140.54 L 166.05 140.02 C 167.06 139.51 167.48 138.27 166.97 137.26 C 166.46 136.24 165.22 135.83 164.20 136.34 L 163.17 136.85 C 162.15 137.36 161.74 138.60 162.25 139.62 C 162.76 140.64 164.00 141.05 165.02 140.54 Z M 166.03 140.02 L 166.95 139.57 C 167.97 139.07 168.39 137.84 167.89 136.82 C 167.39 135.80 166.15 135.38 165.14 135.89 L 164.22 136.34 C 163.20 136.84 162.78 138.07 163.28 139.09 C 163.78 140.10 165.01 140.52 166.03 140.02 Z M 166.94 139.57 L 167.83 139.14 C 168.85 138.64 169.28 137.42 168.79 136.40 C 168.29 135.38 167.07 134.96 166.05 135.45 L 165.15 135.88 C 164.13 136.38 163.71 137.60 164.20 138.62 C 164.69 139.64 165.92 140.06 166.94 139.57 Z M 167.82 139.14 L 168.76 138.69 C 169.78 138.21 170.22 136.99 169.74 135.97 C 169.25 134.95 168.03 134.51 167.01 135.00 L 166.07 135.45 C 165.05 135.93 164.61 137.15 165.10 138.17 C 165.58 139.19 166.80 139.62 167.82 139.14 Z M 168.74 138.69 L 169.70 138.25 C 170.72 137.78 171.17 136.57 170.69 135.55 C 170.22 134.53 169.01 134.08 167.99 134.55 L 167.03 134.99 C 166.01 135.47 165.57 136.68 166.04 137.70 C 166.51 138.72 167.72 139.17 168.74 138.69 Z M 169.67 138.26 L 170.59 137.85 C 171.61 137.40 172.07 136.20 171.62 135.17 C 171.16 134.14 169.96 133.68 168.93 134.14 L 168.02 134.55 C 166.99 135.00 166.53 136.20 166.99 137.23 C 167.44 138.25 168.64 138.72 169.67 138.26 Z M 170.53 137.86 L 171.62 137.41 C 172.65 136.99 173.14 135.81 172.72 134.77 C 172.29 133.74 171.11 133.25 170.08 133.68 L 168.99 134.13 C 167.96 134.55 167.47 135.74 167.89 136.77 C 168.32 137.80 169.50 138.29 170.53 137.86 Z M 171.46 137.44 L 172.60 137.07 C 173.65 136.74 174.22 135.62 173.89 134.57 C 173.55 133.53 172.43 132.95 171.39 133.29 L 170.24 133.65 C 169.20 133.99 168.62 135.11 168.96 136.15 C 169.29 137.20 170.41 137.77 171.46 137.44 Z M 172.09 137.12 L 172.88 137.09 C 173.95 137.03 174.78 136.12 174.73 135.05 C 174.68 133.98 173.77 133.15 172.69 133.20 L 171.90 133.24 C 170.83 133.29 170.00 134.20 170.05 135.27 C 170.10 136.35 171.01 137.17 172.09 137.12 Z M 171.52 136.54 L 171.95 136.94 C 172.73 137.64 173.92 137.58 174.62 136.81 C 175.33 136.03 175.27 134.84 174.49 134.13 L 174.06 133.74 C 173.28 133.04 172.08 133.10 171.38 133.87 C 170.68 134.65 170.74 135.84 171.52 136.54 Z M 171.42 135.71 L 171.50 136.58 C 171.60 137.57 172.48 138.31 173.47 138.21 C 174.47 138.12 175.20 137.23 175.11 136.24 L 175.02 135.37 C 174.93 134.37 174.05 133.64 173.05 133.73 C 172.06 133.83 171.33 134.71 171.42 135.71 Z M 171.61 136.19 L 171.46 137.34 C 171.34 138.27 172.00 139.13 172.94 139.25 C 173.88 139.37 174.74 138.71 174.86 137.77 L 175.00 136.63 C 175.12 135.69 174.46 134.83 173.52 134.71 C 172.58 134.59 171.73 135.25 171.61 136.19 Z M 171.53 137.28 L 171.47 137.65 C 171.32 138.55 171.92 139.40 172.82 139.55 C 173.71 139.71 174.56 139.10 174.72 138.21 L 174.78 137.83 C 174.93 136.93 174.33 136.08 173.44 135.93 C 172.54 135.78 171.69 136.38 171.53 137.28 Z"
      fill="black"
      fill-rule="nonzero" /><path d="M 155.81 112.95 L 155.78 113.88 C 155.75 114.80 156.47 115.57 157.39 115.60 C 158.30 115.63 159.07 114.91 159.10 113.99 L 159.13 113.06 C 159.16 112.14 158.44 111.37 157.53 111.34 C 156.61 111.31 155.84 112.03 155.81 112.95 Z M 155.62 113.89 L 155.59 114.85 C 155.56 115.86 156.35 116.70 157.36 116.73 C 158.37 116.76 159.21 115.97 159.24 114.96 L 159.26 113.99 C 159.29 112.98 158.50 112.14 157.49 112.12 C 156.49 112.09 155.65 112.88 155.62 113.89 Z M 155.43 114.86 L 155.41 115.91 C 155.38 117.00 156.25 117.91 157.35 117.93 C 158.44 117.95 159.35 117.09 159.37 115.99 L 159.40 114.95 C 159.42 113.86 158.55 112.95 157.46 112.92 C 156.36 112.90 155.46 113.77 155.43 114.86 Z M 155.29 115.92 L 155.27 116.95 C 155.26 118.11 156.19 119.06 157.35 119.08 C 158.51 119.09 159.46 118.17 159.48 117.01 L 159.49 115.98 C 159.51 114.82 158.58 113.86 157.42 113.85 C 156.26 113.83 155.30 114.76 155.29 115.92 Z M 155.23 116.96 L 155.22 117.96 C 155.21 119.14 156.17 120.11 157.35 120.12 C 158.54 120.13 159.51 119.17 159.52 117.99 L 159.52 116.99 C 159.53 115.81 158.58 114.84 157.39 114.83 C 156.21 114.82 155.24 115.77 155.23 116.96 Z M 155.21 117.96 L 155.21 118.99 C 155.20 120.18 156.17 121.15 157.36 121.15 C 158.55 121.16 159.52 120.19 159.52 119.00 L 159.53 117.98 C 159.53 116.79 158.57 115.82 157.38 115.81 C 156.18 115.81 155.22 116.77 155.21 117.96 Z M 155.20 118.99 L 155.20 120.01 C 155.20 121.21 156.16 122.18 157.36 122.18 C 158.56 122.18 159.53 121.21 159.53 120.02 L 159.53 119.00 C 159.53 117.80 158.57 116.83 157.37 116.83 C 156.17 116.83 155.20 117.80 155.20 118.99 Z M 155.19 120.01 L 155.19 121.02 C 155.19 122.22 156.16 123.20 157.36 123.20 C 158.57 123.20 159.54 122.22 159.54 121.02 L 159.54 120.01 C 159.54 118.81 158.57 117.84 157.36 117.84 C 156.16 117.84 155.19 118.81 155.19 120.01 Z M 155.18 121.02 L 155.18 122.05 C 155.18 123.25 156.16 124.23 157.36 124.23 C 158.57 124.23 159.55 123.25 159.55 122.05 L 159.55 121.02 C 159.55 119.81 158.57 118.84 157.36 118.84 C 156.16 118.84 155.18 119.81 155.18 121.02 Z M 155.18 122.05 L 155.18 123.03 C 155.18 124.24 156.16 125.22 157.36 125.22 C 158.57 125.22 159.55 124.24 159.55 123.03 L 159.55 122.05 C 159.55 120.84 158.57 119.86 157.36 119.86 C 156.16 119.86 155.18 120.84 155.18 122.05 Z M 155.17 123.03 L 155.17 124.01 C 155.17 125.22 156.15 126.20 157.36 126.20 C 158.58 126.20 159.56 125.22 159.56 124.01 L 159.56 123.03 C 159.56 121.82 158.58 120.84 157.36 120.84 C 156.15 120.84 155.17 121.82 155.17 123.03 Z M 155.17 124.01 L 155.17 124.97 C 155.17 126.18 156.15 127.17 157.36 127.17 C 158.58 127.17 159.56 126.18 159.56 124.97 L 159.56 124.01 C 159.56 122.80 158.58 121.81 157.36 121.81 C 156.15 121.81 155.17 122.79 155.17 124.01 Z M 155.17 124.96 L 155.16 125.91 C 155.16 127.13 156.14 128.11 157.35 128.12 C 158.57 128.12 159.55 127.14 159.56 125.93 L 159.56 124.98 C 159.57 123.77 158.59 122.78 157.37 122.77 C 156.16 122.77 155.17 123.75 155.17 124.96 Z M 155.16 125.89 L 155.15 126.88 C 155.13 128.09 156.10 129.09 157.32 129.11 C 158.53 129.13 159.53 128.16 159.54 126.94 L 159.56 125.95 C 159.58 124.74 158.61 123.74 157.39 123.72 C 156.18 123.71 155.18 124.68 155.16 125.89 Z M 155.15 126.84 L 155.12 127.88 C 155.08 129.09 156.03 130.10 157.25 130.14 C 158.46 130.18 159.47 129.23 159.51 128.01 L 159.54 126.98 C 159.58 125.77 158.63 124.75 157.41 124.71 C 156.20 124.68 155.19 125.63 155.15 126.84 Z M 155.12 127.83 L 155.06 128.87 C 155.00 130.08 155.93 131.12 157.14 131.18 C 158.36 131.24 159.39 130.31 159.45 129.10 L 159.51 128.06 C 159.57 126.85 158.64 125.81 157.43 125.75 C 156.22 125.68 155.18 126.62 155.12 127.83 Z M 155.07 128.82 L 155.00 129.76 C 154.91 130.97 155.81 132.03 157.02 132.12 C 158.24 132.21 159.29 131.30 159.38 130.09 L 159.45 129.15 C 159.54 127.94 158.63 126.88 157.42 126.79 C 156.21 126.70 155.16 127.61 155.07 128.82 Z M 155.00 129.72 L 154.91 130.69 C 154.80 131.90 155.69 132.97 156.90 133.08 C 158.10 133.20 159.18 132.31 159.29 131.10 L 159.38 130.13 C 159.49 128.92 158.60 127.85 157.39 127.73 C 156.18 127.62 155.11 128.51 155.00 129.72 Z M 154.91 130.66 L 154.81 131.66 C 154.68 132.87 155.55 133.95 156.76 134.08 C 157.96 134.21 159.05 133.34 159.18 132.13 L 159.29 131.13 C 159.41 129.92 158.54 128.84 157.33 128.71 C 156.13 128.58 155.04 129.45 154.91 130.66 Z M 154.81 131.64 L 154.68 132.67 C 154.54 133.87 155.40 134.97 156.61 135.11 C 157.81 135.26 158.91 134.40 159.05 133.19 L 159.17 132.16 C 159.32 130.95 158.46 129.86 157.25 129.71 C 156.05 129.57 154.95 130.43 154.81 131.64 Z M 154.69 132.65 L 154.55 133.68 C 154.40 134.88 155.25 135.99 156.45 136.14 C 157.66 136.30 158.76 135.45 158.92 134.24 L 159.05 133.21 C 159.20 132.01 158.35 130.90 157.15 130.75 C 155.95 130.59 154.84 131.44 154.69 132.65 Z M 154.56 133.66 L 154.43 134.62 C 154.26 135.82 155.10 136.93 156.31 137.09 C 157.51 137.26 158.62 136.42 158.78 135.21 L 158.91 134.26 C 159.08 133.06 158.24 131.95 157.03 131.78 C 155.83 131.62 154.72 132.46 154.56 133.66 Z M 154.43 134.60 L 154.29 135.57 C 154.11 136.78 154.95 137.89 156.15 138.06 C 157.35 138.24 158.47 137.40 158.64 136.20 L 158.78 135.23 C 158.95 134.03 158.12 132.91 156.92 132.74 C 155.71 132.57 154.60 133.40 154.43 134.60 Z M 154.29 135.56 L 154.14 136.55 C 153.96 137.75 154.79 138.87 155.99 139.05 C 157.19 139.23 158.31 138.40 158.49 137.20 L 158.64 136.21 C 158.82 135.01 157.99 133.89 156.79 133.71 C 155.59 133.53 154.47 134.36 154.29 135.56 Z M 154.14 136.53 L 153.99 137.54 C 153.80 138.74 154.62 139.86 155.82 140.05 C 157.01 140.24 158.14 139.42 158.33 138.22 L 158.49 137.22 C 158.68 136.02 157.86 134.89 156.66 134.70 C 155.46 134.52 154.33 135.33 154.14 136.53 Z M 153.99 137.52 L 153.82 138.54 C 153.63 139.74 154.44 140.87 155.63 141.07 C 156.83 141.26 157.96 140.45 158.16 139.25 L 158.33 138.23 C 158.52 137.04 157.71 135.91 156.51 135.71 C 155.32 135.51 154.18 136.33 153.99 137.52 Z M 153.82 138.53 L 153.65 139.53 C 153.45 140.72 154.25 141.86 155.45 142.06 C 156.65 142.27 157.78 141.46 157.99 140.27 L 158.16 139.27 C 158.36 138.07 157.56 136.93 156.36 136.73 C 155.16 136.53 154.03 137.33 153.82 138.53 Z M 153.66 139.51 L 153.48 140.49 C 153.27 141.69 154.07 142.83 155.26 143.04 C 156.46 143.25 157.60 142.45 157.81 141.26 L 157.98 140.28 C 158.20 139.08 157.40 137.94 156.20 137.73 C 155.01 137.52 153.87 138.32 153.66 139.51 Z M 153.49 140.48 L 153.30 141.46 C 153.08 142.66 153.87 143.80 155.07 144.02 C 156.26 144.24 157.41 143.45 157.63 142.26 L 157.81 141.27 C 158.03 140.08 157.24 138.94 156.04 138.72 C 154.85 138.50 153.71 139.29 153.49 140.48 Z M 153.31 141.45 L 153.12 142.43 C 152.89 143.63 153.67 144.78 154.86 145.01 C 156.05 145.23 157.20 144.45 157.43 143.26 L 157.62 142.28 C 157.85 141.08 157.07 139.93 155.88 139.70 C 154.69 139.48 153.54 140.26 153.31 141.45 Z M 153.12 142.42 L 152.92 143.40 C 152.69 144.59 153.46 145.75 154.65 145.99 C 155.84 146.22 157.00 145.45 157.23 144.26 L 157.43 143.28 C 157.67 142.09 156.90 140.93 155.71 140.69 C 154.52 140.46 153.36 141.23 153.12 142.42 Z M 152.93 143.39 L 152.72 144.37 C 152.48 145.55 153.24 146.72 154.43 146.96 C 155.61 147.21 156.78 146.45 157.02 145.26 L 157.23 144.28 C 157.48 143.09 156.71 141.93 155.53 141.68 C 154.34 141.44 153.18 142.20 152.93 143.39 Z M 152.73 144.35 L 152.52 145.32 C 152.26 146.51 153.01 147.68 154.19 147.94 C 155.38 148.19 156.55 147.44 156.81 146.26 L 157.02 145.28 C 157.28 144.10 156.53 142.93 155.34 142.67 C 154.16 142.41 152.99 143.16 152.73 144.35 Z M 152.52 145.30 L 152.30 146.28 C 152.03 147.46 152.77 148.64 153.95 148.91 C 155.14 149.18 156.31 148.44 156.58 147.25 L 156.80 146.28 C 157.07 145.10 156.33 143.92 155.15 143.65 C 153.97 143.38 152.79 144.12 152.52 145.30 Z M 152.30 146.26 L 152.07 147.23 C 151.79 148.41 152.52 149.59 153.70 149.87 C 154.88 150.15 156.07 149.42 156.35 148.24 L 156.58 147.27 C 156.86 146.09 156.13 144.91 154.95 144.63 C 153.77 144.35 152.58 145.08 152.30 146.26 Z M 152.08 147.21 L 151.84 148.18 C 151.55 149.36 152.27 150.55 153.45 150.83 C 154.63 151.12 155.82 150.40 156.10 149.23 L 156.34 148.26 C 156.63 147.08 155.91 145.89 154.73 145.60 C 153.56 145.31 152.37 146.03 152.08 147.21 Z M 151.85 148.16 L 151.60 149.13 C 151.30 150.30 152.01 151.50 153.19 151.80 C 154.36 152.10 155.56 151.38 155.85 150.21 L 156.10 149.24 C 156.40 148.07 155.69 146.87 154.51 146.58 C 153.34 146.28 152.14 146.99 151.85 148.16 Z M 151.60 149.11 L 151.35 150.09 C 151.04 151.26 151.75 152.46 152.92 152.76 C 154.09 153.07 155.29 152.37 155.60 151.20 L 155.85 150.23 C 156.16 149.05 155.46 147.85 154.28 147.55 C 153.11 147.24 151.91 147.94 151.60 149.11 Z M 151.35 150.07 L 151.09 151.05 C 150.78 152.22 151.47 153.42 152.64 153.74 C 153.81 154.05 155.02 153.36 155.33 152.19 L 155.59 151.21 C 155.91 150.04 155.21 148.84 154.04 148.52 C 152.87 148.21 151.67 148.90 151.35 150.07 Z M 151.10 151.04 L 150.83 152.02 C 150.50 153.18 151.19 154.39 152.36 154.71 C 153.53 155.04 154.73 154.35 155.06 153.18 L 155.33 152.20 C 155.65 151.03 154.96 149.82 153.79 149.50 C 152.63 149.18 151.42 149.87 151.10 151.04 Z M 150.83 152.00 L 150.55 152.98 C 150.22 154.15 150.90 155.36 152.07 155.69 C 153.23 156.02 154.44 155.34 154.77 154.18 L 155.05 153.20 C 155.38 152.03 154.70 150.82 153.54 150.49 C 152.37 150.16 151.16 150.84 150.83 152.00 Z M 150.56 152.96 L 150.28 153.93 C 149.94 155.10 150.60 156.31 151.77 156.65 C 152.93 156.99 154.15 156.32 154.48 155.16 L 154.77 154.19 C 155.11 153.03 154.44 151.81 153.28 151.47 C 152.12 151.13 150.90 151.80 150.56 152.96 Z M 150.28 153.91 L 149.99 154.87 C 149.64 156.02 150.30 157.25 151.46 157.60 C 152.62 157.95 153.84 157.29 154.19 156.13 L 154.48 155.18 C 154.83 154.02 154.17 152.80 153.01 152.45 C 151.86 152.10 150.63 152.75 150.28 153.91 Z M 150.00 154.84 L 149.71 155.77 C 149.35 156.93 149.99 158.16 151.14 158.52 C 152.30 158.88 153.53 158.24 153.89 157.08 L 154.18 156.16 C 154.55 155.00 153.90 153.77 152.75 153.41 C 151.59 153.05 150.36 153.69 150.00 154.84 Z M 149.72 155.75 L 149.40 156.71 C 149.03 157.86 149.65 159.09 150.80 159.47 C 151.95 159.85 153.19 159.22 153.57 158.07 L 153.88 157.11 C 154.26 155.96 153.63 154.72 152.48 154.35 C 151.33 153.97 150.10 154.60 149.72 155.75 Z M 149.41 156.68 L 149.08 157.66 C 148.69 158.80 149.30 160.05 150.44 160.44 C 151.58 160.83 152.83 160.22 153.22 159.08 L 153.56 158.10 C 153.95 156.96 153.34 155.71 152.20 155.32 C 151.05 154.93 149.81 155.54 149.41 156.68 Z M 149.09 157.63 L 148.75 158.58 C 148.34 159.71 148.94 160.97 150.08 161.37 C 151.21 161.78 152.47 161.19 152.87 160.05 L 153.21 159.10 C 153.62 157.97 153.03 156.71 151.89 156.31 C 150.75 155.90 149.50 156.49 149.09 157.63 Z M 148.76 158.55 L 148.42 159.48 C 148.00 160.61 148.58 161.87 149.71 162.29 C 150.85 162.71 152.10 162.13 152.52 160.99 L 152.86 160.07 C 153.28 158.94 152.71 157.68 151.57 157.26 C 150.44 156.84 149.18 157.42 148.76 158.55 Z M 148.43 159.46 L 148.08 160.37 C 147.65 161.50 148.22 162.76 149.35 163.19 C 150.48 163.62 151.74 163.05 152.17 161.92 L 152.52 161.01 C 152.94 159.88 152.38 158.62 151.25 158.19 C 150.12 157.76 148.86 158.33 148.43 159.46 Z M 148.09 160.35 L 147.74 161.27 C 147.30 162.39 147.86 163.66 148.99 164.09 C 150.11 164.53 151.38 163.97 151.81 162.84 L 152.17 161.93 C 152.60 160.81 152.04 159.54 150.92 159.10 C 149.79 158.67 148.52 159.23 148.09 160.35 Z M 147.74 161.26 L 147.37 162.19 C 146.93 163.31 147.49 164.58 148.61 165.02 C 149.73 165.46 151.00 164.91 151.44 163.79 L 151.81 162.85 C 152.25 161.73 151.70 160.46 150.57 160.02 C 149.45 159.58 148.18 160.13 147.74 161.26 Z M 147.38 162.18 L 147.01 163.11 C 146.56 164.23 147.11 165.50 148.23 165.95 C 149.35 166.40 150.62 165.85 151.07 164.73 L 151.44 163.80 C 151.88 162.67 151.34 161.40 150.21 160.96 C 149.09 160.51 147.82 161.06 147.38 162.18 Z M 147.01 163.10 L 146.64 164.03 C 146.19 165.15 146.73 166.42 147.85 166.87 C 148.96 167.32 150.24 166.78 150.69 165.67 L 151.06 164.74 C 151.51 163.62 150.97 162.35 149.85 161.90 C 148.74 161.45 147.47 161.99 147.01 163.10 Z M 146.65 164.02 L 146.27 164.94 C 145.81 166.06 146.34 167.33 147.46 167.79 C 148.57 168.25 149.84 167.71 150.30 166.60 L 150.68 165.68 C 151.14 164.56 150.61 163.29 149.49 162.83 C 148.38 162.37 147.10 162.91 146.65 164.02 Z M 146.27 164.93 L 145.89 165.85 C 145.42 166.96 145.95 168.24 147.06 168.70 C 148.17 169.17 149.44 168.64 149.91 167.53 L 150.29 166.61 C 150.76 165.50 150.24 164.22 149.13 163.76 C 148.01 163.29 146.74 163.82 146.27 164.93 Z M 145.90 165.84 L 145.49 166.78 C 145.02 167.88 145.54 169.16 146.64 169.63 C 147.75 170.11 149.03 169.59 149.50 168.49 L 149.90 167.55 C 150.37 166.44 149.86 165.16 148.75 164.69 C 147.65 164.22 146.37 164.73 145.90 165.84 Z M 145.50 166.76 L 145.10 167.69 C 144.62 168.79 145.12 170.07 146.22 170.55 C 147.32 171.03 148.60 170.53 149.09 169.43 L 149.49 168.50 C 149.97 167.40 149.47 166.12 148.37 165.64 C 147.27 165.16 145.98 165.66 145.50 166.76 Z M 145.11 167.67 L 144.70 168.58 C 144.21 169.68 144.70 170.96 145.79 171.45 C 146.89 171.94 148.18 171.45 148.67 170.36 L 149.08 169.45 C 149.57 168.35 149.08 167.07 147.98 166.57 C 146.89 166.08 145.60 166.57 145.11 167.67 Z M 144.71 168.56 L 144.30 169.45 C 143.80 170.54 144.27 171.83 145.36 172.34 C 146.45 172.84 147.74 172.36 148.24 171.27 L 148.66 170.38 C 149.16 169.29 148.68 168.00 147.59 167.50 C 146.50 167.00 145.21 167.47 144.71 168.56 Z M 144.31 169.43 L 143.88 170.33 C 143.37 171.41 143.83 172.71 144.91 173.22 C 145.99 173.74 147.29 173.28 147.80 172.20 L 148.23 171.30 C 148.74 170.21 148.28 168.92 147.20 168.40 C 146.12 167.89 144.83 168.35 144.31 169.43 Z M 143.90 170.30 L 143.44 171.24 C 142.91 172.31 143.35 173.61 144.42 174.14 C 145.50 174.67 146.80 174.23 147.33 173.15 L 147.79 172.22 C 148.32 171.15 147.87 169.85 146.80 169.32 C 145.73 168.79 144.43 169.23 143.90 170.30 Z M 143.46 171.21 L 143.00 172.11 C 142.45 173.17 142.87 174.48 143.93 175.02 C 145.00 175.57 146.30 175.15 146.84 174.08 L 147.31 173.18 C 147.85 172.12 147.43 170.82 146.37 170.27 C 145.31 169.72 144.00 170.14 143.46 171.21 Z M 143.02 172.08 L 142.55 172.95 C 141.99 174.00 142.38 175.31 143.44 175.87 C 144.49 176.43 145.80 176.04 146.36 174.99 L 146.82 174.12 C 147.39 173.06 146.99 171.76 145.94 171.19 C 144.89 170.63 143.58 171.03 143.02 172.08 Z M 142.57 172.91 L 142.11 173.74 C 141.52 174.78 141.89 176.10 142.93 176.68 C 143.97 177.26 145.29 176.89 145.87 175.85 L 146.34 175.02 C 146.92 173.98 146.55 172.67 145.51 172.08 C 144.47 171.50 143.16 171.87 142.57 172.91 Z M 142.13 173.70 L 141.64 174.54 C 141.03 175.57 141.37 176.89 142.40 177.49 C 143.42 178.10 144.74 177.76 145.35 176.73 L 145.84 175.89 C 146.45 174.87 146.11 173.55 145.08 172.94 C 144.06 172.34 142.74 172.68 142.13 173.70 Z M 141.67 174.50 L 141.16 175.32 C 140.53 176.32 140.83 177.65 141.83 178.28 C 142.84 178.91 144.16 178.61 144.79 177.60 L 145.31 176.78 C 145.94 175.78 145.64 174.45 144.63 173.82 C 143.63 173.19 142.31 173.49 141.67 174.50 Z M 141.20 175.27 L 140.65 176.08 C 139.99 177.06 140.25 178.39 141.23 179.05 C 142.21 179.72 143.54 179.46 144.20 178.48 L 144.75 177.66 C 145.41 176.68 145.15 175.35 144.17 174.69 C 143.19 174.03 141.86 174.29 141.20 175.27 Z M 140.69 176.03 L 140.09 176.86 C 139.40 177.82 139.61 179.15 140.57 179.84 C 141.52 180.53 142.86 180.32 143.55 179.37 L 144.15 178.53 C 144.84 177.58 144.63 176.24 143.67 175.55 C 142.72 174.86 141.39 175.08 140.69 176.03 Z M 140.14 176.82 L 139.49 177.65 C 138.77 178.58 138.94 179.92 139.87 180.63 C 140.80 181.35 142.13 181.18 142.85 180.25 L 143.50 179.41 C 144.22 178.49 144.05 177.15 143.12 176.43 C 142.19 175.72 140.86 175.89 140.14 176.82 Z M 139.54 177.60 L 138.86 178.43 C 138.12 179.33 138.24 180.66 139.14 181.40 C 140.04 182.15 141.37 182.02 142.11 181.13 L 142.80 180.30 C 143.54 179.40 143.42 178.07 142.52 177.33 C 141.62 176.58 140.29 176.71 139.54 177.60 Z M 138.93 178.36 L 138.23 179.14 C 137.45 180.00 137.51 181.33 138.37 182.11 C 139.23 182.89 140.56 182.82 141.34 181.96 L 142.04 181.19 C 142.82 180.33 142.76 179.00 141.90 178.22 C 141.04 177.44 139.71 177.51 138.93 178.36 Z M 138.33 179.05 L 137.64 179.71 C 136.81 180.52 136.79 181.84 137.59 182.67 C 138.40 183.50 139.72 183.52 140.55 182.72 L 141.24 182.05 C 142.07 181.25 142.09 179.93 141.29 179.10 C 140.49 178.27 139.16 178.25 138.33 179.05 Z M 137.85 179.56 L 137.05 180.17 C 136.14 180.85 135.95 182.15 136.64 183.06 C 137.32 183.98 138.62 184.16 139.53 183.47 L 140.34 182.87 C 141.25 182.18 141.43 180.89 140.75 179.98 C 140.06 179.06 138.77 178.88 137.85 179.56 Z M 137.66 179.91 L 136.64 180.25 C 135.59 180.60 135.02 181.74 135.37 182.79 C 135.72 183.84 136.85 184.42 137.91 184.07 L 138.92 183.73 C 139.98 183.38 140.55 182.24 140.20 181.19 C 139.85 180.14 138.71 179.56 137.66 179.91 Z M 138.09 180.41 L 137.39 180.09 C 136.42 179.64 135.28 180.06 134.83 181.02 C 134.38 181.99 134.80 183.13 135.76 183.58 L 136.46 183.90 C 137.43 184.35 138.57 183.93 139.02 182.97 C 139.47 182.01 139.05 180.86 138.09 180.41 Z M 138.26 181.13 L 137.92 180.33 C 137.53 179.40 136.46 178.96 135.53 179.35 C 134.60 179.74 134.17 180.81 134.56 181.74 L 134.89 182.54 C 135.28 183.47 136.35 183.91 137.28 183.52 C 138.21 183.13 138.65 182.06 138.26 181.13 Z M 137.94 180.83 L 137.81 179.77 C 137.70 178.83 136.84 178.16 135.91 178.28 C 134.97 178.39 134.30 179.24 134.41 180.18 L 134.54 181.24 C 134.65 182.18 135.51 182.84 136.45 182.73 C 137.38 182.62 138.05 181.76 137.94 180.83 Z M 137.73 179.92 L 137.69 178.85 C 137.66 177.95 136.91 177.25 136.02 177.28 C 135.12 177.31 134.42 178.07 134.45 178.96 L 134.49 180.03 C 134.52 180.93 135.27 181.63 136.17 181.60 C 137.06 181.56 137.76 180.81 137.73 179.92 Z M 137.66 178.91 L 137.66 177.91 C 137.66 177.04 136.95 176.33 136.08 176.33 C 135.20 176.33 134.49 177.03 134.49 177.91 L 134.49 178.90 C 134.49 179.78 135.20 180.49 136.07 180.49 C 136.95 180.49 137.66 179.78 137.66 178.91 Z M 137.64 177.99 L 137.69 177.02 C 137.74 176.15 137.07 175.42 136.21 175.37 C 135.34 175.32 134.60 175.99 134.56 176.85 L 134.51 177.83 C 134.46 178.69 135.13 179.43 135.99 179.48 C 136.86 179.52 137.60 178.86 137.64 177.99 Z M 137.68 177.10 L 137.78 176.12 C 137.87 175.27 137.25 174.50 136.39 174.41 C 135.53 174.32 134.76 174.94 134.67 175.80 L 134.57 176.77 C 134.48 177.63 135.10 178.40 135.96 178.49 C 136.82 178.58 137.59 177.96 137.68 177.10 Z M 137.77 176.17 L 137.91 175.17 C 138.03 174.31 137.43 173.53 136.57 173.41 C 135.72 173.30 134.93 173.89 134.82 174.75 L 134.68 175.75 C 134.56 176.61 135.16 177.39 136.02 177.51 C 136.87 177.62 137.66 177.03 137.77 176.17 Z M 137.91 175.18 L 137.98 174.70 C 138.10 173.85 137.51 173.06 136.66 172.94 C 135.80 172.81 135.01 173.40 134.89 174.26 L 134.82 174.73 C 134.70 175.59 135.29 176.38 136.14 176.50 C 136.99 176.63 137.78 176.04 137.91 175.18 Z"
      fill="black"
      fill-rule="nonzero" /><path d="M 156.63 147.82 L 156.54 148.88 C 156.46 149.87 157.20 150.74 158.19 150.82 C 159.18 150.90 160.04 150.16 160.12 149.17 L 160.21 148.11 C 160.29 147.12 159.55 146.25 158.56 146.17 C 157.57 146.09 156.71 146.83 156.63 147.82 Z M 156.35 148.97 L 156.32 149.98 C 156.29 151.08 157.15 151.99 158.25 152.02 C 159.34 152.05 160.25 151.19 160.28 150.10 L 160.31 149.08 C 160.35 147.99 159.48 147.08 158.39 147.05 C 157.30 147.01 156.38 147.88 156.35 148.97 Z M 156.15 150.24 L 156.23 151.15 C 156.34 152.34 157.40 153.22 158.59 153.10 C 159.78 152.99 160.65 151.94 160.54 150.75 L 160.46 149.84 C 160.35 148.65 159.29 147.77 158.10 147.88 C 156.91 147.99 156.04 149.05 156.15 150.24 Z M 156.25 151.68 L 156.55 152.58 C 156.96 153.76 158.25 154.40 159.43 153.99 C 160.61 153.59 161.24 152.30 160.84 151.12 L 160.53 150.22 C 160.13 149.03 158.84 148.40 157.65 148.81 C 156.47 149.21 155.84 150.50 156.25 151.68 Z M 156.81 153.12 L 157.36 153.94 C 158.06 154.98 159.48 155.26 160.52 154.55 C 161.56 153.85 161.84 152.43 161.13 151.39 L 160.59 150.57 C 159.88 149.53 158.47 149.26 157.42 149.96 C 156.38 150.66 156.10 152.08 156.81 153.12 Z M 157.55 154.21 L 158.25 154.97 C 159.10 155.90 160.55 155.97 161.48 155.11 C 162.42 154.26 162.48 152.81 161.63 151.88 L 160.94 151.12 C 160.08 150.18 158.63 150.12 157.70 150.97 C 156.77 151.83 156.70 153.28 157.55 154.21 Z M 158.34 155.07 L 159.05 155.77 C 159.96 156.65 161.42 156.63 162.30 155.72 C 163.19 154.81 163.17 153.36 162.26 152.48 L 161.54 151.78 C 160.63 150.89 159.18 150.91 158.29 151.82 C 157.41 152.73 157.43 154.18 158.34 155.07 Z M 159.10 155.82 L 159.87 156.52 C 160.81 157.37 162.26 157.31 163.12 156.37 C 163.97 155.43 163.91 153.98 162.97 153.12 L 162.21 152.42 C 161.27 151.57 159.82 151.63 158.96 152.57 C 158.10 153.51 158.17 154.96 159.10 155.82 Z M 159.90 156.55 L 160.67 157.22 C 161.62 158.05 163.08 157.96 163.91 157.00 C 164.75 156.04 164.65 154.59 163.70 153.75 L 162.93 153.09 C 161.98 152.25 160.52 152.35 159.69 153.30 C 158.85 154.26 158.95 155.71 159.90 156.55 Z M 160.69 157.24 L 161.49 157.92 C 162.46 158.74 163.91 158.62 164.74 157.65 C 165.56 156.68 165.44 155.22 164.47 154.40 L 163.67 153.73 C 162.70 152.91 161.24 153.03 160.42 154.00 C 159.60 154.97 159.72 156.42 160.69 157.24 Z M 161.50 157.93 L 162.25 158.55 C 163.22 159.36 164.67 159.23 165.49 158.26 C 166.30 157.28 166.17 155.83 165.20 155.01 L 164.45 154.39 C 163.48 153.58 162.03 153.71 161.21 154.68 C 160.40 155.66 160.53 157.11 161.50 157.93 Z M 162.23 158.53 L 162.95 159.15 C 163.92 159.97 165.37 159.86 166.20 158.89 C 167.02 157.92 166.90 156.47 165.94 155.65 L 165.21 155.03 C 164.25 154.20 162.79 154.32 161.97 155.29 C 161.14 156.25 161.26 157.71 162.23 158.53 Z M 162.92 159.12 L 163.64 159.76 C 164.59 160.60 166.04 160.51 166.89 159.56 C 167.73 158.61 167.64 157.15 166.69 156.31 L 165.97 155.67 C 165.02 154.83 163.56 154.92 162.72 155.87 C 161.88 156.82 161.97 158.28 162.92 159.12 Z M 163.61 159.73 L 164.36 160.42 C 165.30 161.28 166.76 161.21 167.61 160.27 C 168.47 159.33 168.40 157.88 167.47 157.02 L 166.72 156.33 C 165.78 155.48 164.32 155.54 163.46 156.48 C 162.61 157.42 162.67 158.88 163.61 159.73 Z M 164.34 160.40 L 165.09 161.10 C 166.02 161.97 167.48 161.92 168.34 160.99 C 169.21 160.06 169.16 158.61 168.24 157.74 L 167.48 157.04 C 166.56 156.17 165.10 156.22 164.23 157.15 C 163.37 158.07 163.41 159.53 164.34 160.40 Z M 165.08 161.08 L 165.78 161.75 C 166.70 162.63 168.15 162.60 169.03 161.68 C 169.91 160.76 169.87 159.31 168.95 158.43 L 168.25 157.76 C 167.33 156.89 165.88 156.92 165.00 157.84 C 164.13 158.75 164.16 160.21 165.08 161.08 Z M 165.77 161.73 L 166.49 162.44 C 167.40 163.32 168.85 163.30 169.73 162.40 C 170.61 161.49 170.59 160.04 169.69 159.16 L 168.97 158.46 C 168.06 157.57 166.61 157.59 165.73 158.50 C 164.85 159.40 164.87 160.85 165.77 161.73 Z M 166.48 162.41 L 167.21 163.14 C 168.10 164.03 169.54 164.03 170.43 163.14 C 171.32 162.25 171.32 160.81 170.43 159.91 L 169.71 159.19 C 168.81 158.29 167.37 158.29 166.48 159.19 C 165.59 160.08 165.59 161.52 166.48 162.41 Z M 167.19 163.11 L 167.88 163.82 C 168.75 164.72 170.19 164.74 171.09 163.87 C 171.99 163.00 172.02 161.56 171.14 160.66 L 170.45 159.94 C 169.58 159.04 168.14 159.02 167.24 159.90 C 166.33 160.77 166.31 162.21 167.19 163.11 Z M 167.86 163.79 L 168.55 164.52 C 169.40 165.42 170.84 165.47 171.75 164.61 C 172.66 163.75 172.70 162.32 171.84 161.41 L 171.16 160.69 C 170.30 159.78 168.87 159.73 167.96 160.59 C 167.05 161.45 167.01 162.88 167.86 163.79 Z M 168.53 164.48 L 169.21 165.23 C 170.05 166.14 171.48 166.21 172.39 165.36 C 173.31 164.52 173.37 163.10 172.53 162.18 L 171.85 161.44 C 171.01 160.52 169.59 160.46 168.67 161.30 C 167.75 162.14 167.69 163.57 168.53 164.48 Z M 169.20 165.19 L 169.87 165.95 C 170.69 166.87 172.11 166.95 173.03 166.13 C 173.96 165.31 174.04 163.89 173.22 162.96 L 172.55 162.21 C 171.72 161.29 170.30 161.20 169.38 162.03 C 168.45 162.85 168.37 164.27 169.20 165.19 Z M 169.86 165.92 L 170.51 166.67 C 171.32 167.59 172.72 167.69 173.65 166.89 C 174.58 166.08 174.68 164.67 173.87 163.74 L 173.22 162.99 C 172.42 162.07 171.01 161.97 170.08 162.77 C 169.15 163.58 169.05 164.99 169.86 165.92 Z M 170.51 166.64 L 171.16 167.40 C 171.95 168.33 173.35 168.44 174.28 167.65 C 175.21 166.86 175.32 165.46 174.52 164.53 L 173.87 163.77 C 173.08 162.84 171.69 162.73 170.76 163.52 C 169.83 164.31 169.72 165.71 170.51 166.64 Z M 171.16 167.38 L 171.81 168.15 C 172.59 169.08 173.98 169.20 174.91 168.41 C 175.83 167.63 175.95 166.25 175.17 165.32 L 174.52 164.55 C 173.74 163.62 172.35 163.50 171.43 164.29 C 170.50 165.07 170.38 166.45 171.16 167.38 Z M 171.82 168.13 L 172.47 168.91 C 173.24 169.83 174.61 169.95 175.54 169.18 C 176.46 168.40 176.58 167.03 175.81 166.11 L 175.16 165.34 C 174.39 164.41 173.01 164.29 172.09 165.07 C 171.17 165.84 171.05 167.21 171.82 168.13 Z M 172.48 168.89 L 173.12 169.66 C 173.89 170.58 175.25 170.70 176.16 169.93 C 177.08 169.17 177.20 167.81 176.44 166.89 L 175.79 166.12 C 175.03 165.21 173.67 165.09 172.75 165.85 C 171.84 166.61 171.72 167.98 172.48 168.89 Z M 173.14 169.64 L 173.78 170.41 C 174.53 171.32 175.88 171.44 176.79 170.69 C 177.69 169.94 177.82 168.59 177.06 167.68 L 176.42 166.91 C 175.67 166.00 174.32 165.88 173.41 166.63 C 172.51 167.39 172.38 168.73 173.14 169.64 Z M 173.79 170.39 L 174.42 171.16 C 175.17 172.06 176.50 172.19 177.40 171.45 C 178.30 170.70 178.43 169.37 177.69 168.47 L 177.05 167.70 C 176.31 166.80 174.97 166.67 174.07 167.41 C 173.17 168.16 173.04 169.49 173.79 170.39 Z M 174.43 171.14 L 175.08 171.92 C 175.81 172.82 177.13 172.95 178.02 172.22 C 178.92 171.49 179.05 170.17 178.31 169.27 L 177.67 168.49 C 176.94 167.60 175.62 167.46 174.73 168.20 C 173.83 168.93 173.70 170.25 174.43 171.14 Z M 175.09 171.90 L 175.73 172.69 C 176.45 173.57 177.75 173.71 178.64 172.99 C 179.52 172.27 179.66 170.97 178.94 170.09 L 178.30 169.30 C 177.58 168.41 176.28 168.28 175.39 168.99 C 174.51 169.71 174.37 171.01 175.09 171.90 Z M 175.75 172.66 L 176.38 173.44 C 177.08 174.32 178.36 174.46 179.24 173.75 C 180.11 173.04 180.25 171.76 179.55 170.89 L 178.92 170.11 C 178.21 169.23 176.93 169.10 176.06 169.80 C 175.18 170.51 175.04 171.79 175.75 172.66 Z M 176.39 173.42 L 177.01 174.18 C 177.70 175.05 178.96 175.19 179.82 174.49 C 180.69 173.80 180.83 172.54 180.14 171.67 L 179.53 170.91 C 178.84 170.05 177.57 169.91 176.71 170.60 C 175.84 171.29 175.70 172.55 176.39 173.42 Z M 177.03 174.16 L 177.66 174.95 C 178.34 175.80 179.58 175.94 180.43 175.26 C 181.29 174.58 181.43 173.34 180.75 172.49 L 180.12 171.70 C 179.44 170.84 178.19 170.70 177.34 171.38 C 176.49 172.06 176.35 173.30 177.03 174.16 Z M 177.69 174.93 L 178.31 175.71 C 178.98 176.55 180.20 176.68 181.04 176.02 C 181.87 175.35 182.01 174.13 181.34 173.29 L 180.72 172.51 C 180.05 171.67 178.83 171.54 177.99 172.20 C 177.16 172.87 177.02 174.09 177.69 174.93 Z M 178.34 175.70 L 178.96 176.47 C 179.62 177.29 180.82 177.41 181.64 176.75 C 182.46 176.09 182.59 174.89 181.93 174.08 L 181.31 173.31 C 180.65 172.49 179.45 172.36 178.63 173.02 C 177.81 173.68 177.68 174.88 178.34 175.70 Z M 179.00 176.46 L 179.65 177.24 C 180.30 178.04 181.48 178.15 182.28 177.50 C 183.07 176.84 183.19 175.67 182.53 174.87 L 181.89 174.09 C 181.23 173.29 180.06 173.17 179.26 173.83 C 178.46 174.48 178.35 175.66 179.00 176.46 Z M 179.70 177.23 L 180.37 178.03 C 181.02 178.80 182.17 178.89 182.94 178.25 C 183.71 177.60 183.81 176.45 183.16 175.68 L 182.49 174.88 C 181.84 174.11 180.69 174.01 179.92 174.66 C 179.15 175.31 179.05 176.46 179.70 177.23 Z M 180.42 178.01 L 181.08 178.77 C 181.72 179.51 182.84 179.59 183.58 178.95 C 184.32 178.31 184.40 177.19 183.76 176.45 L 183.10 175.69 C 182.46 174.95 181.34 174.87 180.60 175.51 C 179.86 176.15 179.78 177.27 180.42 178.01 Z M 181.13 178.76 L 181.76 179.47 C 182.40 180.18 183.49 180.23 184.20 179.60 C 184.91 178.96 184.97 177.87 184.34 177.16 L 183.70 176.46 C 183.07 175.75 181.97 175.69 181.27 176.32 C 180.56 176.96 180.50 178.05 181.13 178.76 Z M 181.83 179.47 L 182.52 180.20 C 183.16 180.87 184.23 180.90 184.90 180.26 C 185.57 179.62 185.60 178.55 184.96 177.88 L 184.27 177.15 C 183.63 176.48 182.56 176.45 181.89 177.09 C 181.21 177.73 181.19 178.80 181.83 179.47 Z M 182.60 180.23 L 183.31 180.90 C 183.97 181.53 185.01 181.50 185.64 180.84 C 186.26 180.18 186.24 179.14 185.58 178.51 L 184.87 177.84 C 184.21 177.22 183.17 177.24 182.54 177.90 C 181.92 178.56 181.94 179.60 182.60 180.23 Z M 183.39 180.94 L 184.13 181.57 C 184.81 182.15 185.83 182.07 186.41 181.39 C 186.99 180.71 186.91 179.69 186.23 179.11 L 185.49 178.48 C 184.82 177.90 183.80 177.98 183.22 178.66 C 182.63 179.34 182.71 180.36 183.39 180.94 Z M 184.18 181.59 L 184.94 182.19 C 185.63 182.75 186.64 182.63 187.19 181.94 C 187.74 181.25 187.63 180.24 186.94 179.69 L 186.18 179.09 C 185.49 178.54 184.48 178.65 183.93 179.34 C 183.38 180.03 183.49 181.04 184.18 181.59 Z M 184.97 182.20 L 185.79 182.83 C 186.48 183.37 187.48 183.24 188.02 182.54 C 188.55 181.85 188.42 180.85 187.73 180.31 L 186.91 179.68 C 186.21 179.15 185.22 179.28 184.68 179.98 C 184.15 180.67 184.28 181.67 184.97 182.20 Z M 185.80 182.83 L 186.46 183.33 C 187.15 183.85 188.14 183.72 188.67 183.02 C 189.20 182.33 189.06 181.34 188.37 180.81 L 187.71 180.31 C 187.02 179.79 186.03 179.92 185.50 180.62 C 184.97 181.31 185.11 182.30 185.80 182.83 Z"
      fill="black"
      fill-rule="nonzero" /></svg>