<svg xmlns="http://www.w3.org/2000/svg" width="300" height="300" viewBox="0 0 300 300">
<path d="M 138.69 123.81 L 137.34 124.12 C 136.40 124.33 135.81 125.27 136.03 126.20 C 136.24 127.14 137.18 127.73 138.11 127.52 L 139.47 127.21 C 140.41 126.99 140.99 126.06 140.78 125.12 C 140.56 124.18 139.63 123.59 138.69 123.81 Z M 137.33 123.96 L 136.37 124.17 C 135.34 124.39 134.69 125.40 134.91 126.42 C 135.13 127.45 136.14 128.10 137.17 127.88 L 138.13 127.67 C 139.15 127.45 139.80 126.44 139.58 125.42 C 139.36 124.39 138.35 123.74 137.33 123.96 Z M 136.77 124.00 L 136.61 124.00 C 135.49 124.00 134.58 124.90 134.58 126.01 C 134.57 127.13 135.47 128.04 136.59 128.04 L 136.76 128.04 C 137.88 128.05 138.78 127.15 138.79 126.03 C 138.79 124.91 137.89 124.01 136.77 124.00 Z M 137.25 127.99 L 138.03 127.73 C 139.12 127.37 139.70 126.20 139.34 125.11 C 138.98 124.02 137.81 123.43 136.72 123.80 L 135.94 124.05 C 134.86 124.41 134.27 125.59 134.63 126.68 C 134.99 127.76 136.17 128.35 137.25 127.99 Z M 138.01 127.75 L 139.38 127.31 C 140.48 126.96 141.08 125.78 140.73 124.68 C 140.37 123.59 139.20 122.98 138.10 123.34 L 136.73 123.78 C 135.64 124.13 135.03 125.31 135.39 126.40 C 135.74 127.50 136.92 128.10 138.01 127.75 Z M 139.41 127.31 L 140.38 126.98 C 141.48 126.61 142.07 125.42 141.70 124.33 C 141.33 123.23 140.14 122.64 139.05 123.01 L 138.07 123.34 C 136.98 123.71 136.39 124.90 136.76 125.99 C 137.13 127.09 138.31 127.68 139.41 127.31 Z M 140.40 126.97 L 141.38 126.64 C 142.47 126.26 143.05 125.07 142.67 123.97 C 142.29 122.88 141.10 122.30 140.01 122.68 L 139.03 123.02 C 137.94 123.40 137.36 124.59 137.74 125.68 C 138.11 126.77 139.31 127.35 140.40 126.97 Z M 141.39 126.63 L 142.34 126.30 C 143.44 125.91 144.01 124.72 143.63 123.63 C 143.24 122.54 142.05 121.96 140.96 122.35 L 140.00 122.68 C 138.91 123.06 138.34 124.26 138.72 125.35 C 139.10 126.44 140.30 127.02 141.39 126.63 Z M 142.35 126.30 L 143.24 125.98 C 144.33 125.60 144.90 124.40 144.52 123.31 C 144.13 122.22 142.94 121.65 141.84 122.03 L 140.95 122.35 C 139.86 122.73 139.29 123.93 139.68 125.02 C 140.06 126.11 141.26 126.68 142.35 126.30 Z M 143.23 125.98 L 144.27 125.62 C 145.37 125.24 145.94 124.04 145.56 122.95 C 145.18 121.86 143.98 121.29 142.89 121.67 L 141.85 122.03 C 140.76 122.41 140.18 123.61 140.57 124.70 C 140.95 125.79 142.14 126.36 143.23 125.98 Z M 144.26 125.62 L 145.18 125.30 C 146.27 124.93 146.85 123.74 146.48 122.65 C 146.11 121.56 144.92 120.98 143.83 121.35 L 142.91 121.67 C 141.81 122.04 141.23 123.23 141.61 124.32 C 141.98 125.41 143.17 125.99 144.26 125.62 Z M 145.17 125.30 L 146.04 125.01 C 147.13 124.64 147.72 123.46 147.35 122.37 C 146.98 121.28 145.80 120.69 144.71 121.06 L 143.84 121.35 C 142.75 121.72 142.16 122.90 142.53 123.99 C 142.90 125.08 144.08 125.67 145.17 125.30 Z M 146.02 125.01 L 146.96 124.70 C 148.05 124.35 148.65 123.17 148.29 122.08 C 147.94 120.99 146.76 120.40 145.67 120.75 L 144.73 121.06 C 143.64 121.41 143.04 122.59 143.40 123.68 C 143.75 124.77 144.93 125.37 146.02 125.01 Z M 146.94 124.70 L 147.90 124.40 C 148.99 124.06 149.60 122.89 149.25 121.80 C 148.91 120.71 147.74 120.10 146.65 120.45 L 145.69 120.75 C 144.60 121.09 144.00 122.26 144.34 123.35 C 144.68 124.44 145.85 125.05 146.94 124.70 Z M 147.88 124.40 L 148.84 124.11 C 149.93 123.78 150.55 122.62 150.22 121.53 C 149.88 120.44 148.73 119.82 147.64 120.15 L 146.67 120.45 C 145.58 120.78 144.96 121.93 145.30 123.03 C 145.63 124.12 146.78 124.74 147.88 124.40 Z M 148.81 124.11 L 149.78 123.83 C 150.87 123.52 151.50 122.37 151.18 121.28 C 150.86 120.18 149.72 119.55 148.62 119.87 L 147.66 120.15 C 146.57 120.47 145.94 121.61 146.26 122.71 C 146.57 123.80 147.72 124.43 148.81 124.11 Z M 149.75 123.83 L 150.71 123.57 C 151.81 123.26 152.45 122.13 152.14 121.03 C 151.84 119.94 150.70 119.30 149.61 119.60 L 148.65 119.87 C 147.55 120.18 146.91 121.31 147.22 122.40 C 147.52 123.50 148.66 124.14 149.75 123.83 Z M 150.69 123.56 L 151.65 123.31 C 152.74 123.02 153.39 121.90 153.10 120.80 C 152.81 119.71 151.68 119.06 150.59 119.35 L 149.63 119.61 C 148.54 119.90 147.89 121.02 148.18 122.11 C 148.47 123.21 149.60 123.86 150.69 123.56 Z M 151.63 123.30 L 152.59 123.06 C 153.68 122.77 154.33 121.66 154.05 120.57 C 153.77 119.48 152.66 118.83 151.57 119.11 L 150.61 119.36 C 149.52 119.64 148.86 120.75 149.15 121.84 C 149.43 122.93 150.54 123.58 151.63 123.30 Z M 152.58 123.05 L 153.56 122.79 C 154.64 122.52 155.30 121.41 155.02 120.33 C 154.74 119.25 153.64 118.59 152.55 118.87 L 151.57 119.12 C 150.49 119.40 149.84 120.50 150.11 121.58 C 150.39 122.67 151.49 123.32 152.58 123.05 Z M 153.56 122.78 L 154.53 122.53 C 155.61 122.25 156.26 121.15 155.98 120.08 C 155.70 119.00 154.61 118.35 153.53 118.63 L 152.55 118.88 C 151.48 119.16 150.83 120.26 151.11 121.33 C 151.38 122.41 152.48 123.06 153.56 122.78 Z M 154.53 122.51 L 155.51 122.26 C 156.57 121.98 157.22 120.90 156.94 119.83 C 156.67 118.76 155.58 118.12 154.51 118.40 L 153.53 118.65 C 152.47 118.92 151.82 120.01 152.10 121.08 C 152.37 122.15 153.46 122.79 154.53 122.51 Z M 155.49 122.24 L 156.46 122.00 C 157.52 121.74 158.16 120.66 157.89 119.60 C 157.63 118.54 156.55 117.90 155.49 118.17 L 154.53 118.41 C 153.47 118.68 152.83 119.75 153.09 120.81 C 153.36 121.87 154.43 122.51 155.49 122.24 Z M 156.43 121.99 L 157.42 121.75 C 158.47 121.50 159.12 120.44 158.87 119.39 C 158.62 118.34 157.56 117.69 156.51 117.94 L 155.52 118.18 C 154.47 118.43 153.82 119.49 154.07 120.54 C 154.32 121.59 155.38 122.24 156.43 121.99 Z M 157.38 121.74 L 158.35 121.52 C 159.40 121.30 160.06 120.27 159.83 119.22 C 159.60 118.18 158.57 117.52 157.53 117.75 L 156.56 117.96 C 155.51 118.19 154.85 119.22 155.08 120.26 C 155.31 121.30 156.34 121.96 157.38 121.74 Z M 158.30 121.51 L 159.26 121.32 C 160.30 121.13 160.98 120.12 160.78 119.09 C 160.58 118.05 159.58 117.38 158.54 117.58 L 157.58 117.76 C 156.55 117.96 155.87 118.96 156.07 120.00 C 156.27 121.03 157.27 121.71 158.30 121.51 Z M 159.21 121.31 L 160.21 121.14 C 161.24 120.97 161.93 120.00 161.76 118.98 C 161.59 117.95 160.62 117.26 159.60 117.43 L 158.60 117.59 C 157.57 117.76 156.88 118.73 157.05 119.76 C 157.22 120.78 158.19 121.48 159.21 121.31 Z M 160.18 121.12 L 161.17 120.97 C 162.18 120.81 162.88 119.87 162.72 118.85 C 162.57 117.84 161.62 117.15 160.61 117.30 L 159.63 117.45 C 158.61 117.60 157.92 118.55 158.07 119.56 C 158.23 120.58 159.17 121.27 160.18 121.12 Z M 161.17 120.94 L 162.11 120.79 C 163.11 120.64 163.79 119.71 163.64 118.71 C 163.48 117.71 162.55 117.03 161.55 117.18 L 160.61 117.33 C 159.61 117.48 158.93 118.42 159.08 119.41 C 159.24 120.41 160.17 121.09 161.17 120.94 Z M 162.10 120.76 L 163.05 120.62 C 164.04 120.47 164.71 119.55 164.56 118.57 C 164.41 117.59 163.50 116.92 162.51 117.07 L 161.56 117.21 C 160.58 117.36 159.91 118.28 160.06 119.26 C 160.21 120.24 161.12 120.91 162.10 120.76 Z M 163.01 120.59 L 164.07 120.46 C 165.04 120.33 165.72 119.45 165.60 118.48 C 165.47 117.51 164.59 116.83 163.62 116.95 L 162.56 117.09 C 161.59 117.22 160.91 118.10 161.03 119.07 C 161.16 120.04 162.04 120.72 163.01 120.59 Z M 164.02 120.44 L 164.99 120.34 C 165.94 120.24 166.64 119.39 166.54 118.43 C 166.44 117.48 165.59 116.78 164.63 116.88 L 163.67 116.98 C 162.71 117.07 162.02 117.93 162.11 118.88 C 162.21 119.84 163.06 120.54 164.02 120.44 Z M 164.95 120.32 L 165.98 120.23 C 166.92 120.15 167.62 119.32 167.54 118.38 C 167.46 117.43 166.63 116.73 165.69 116.81 L 164.66 116.90 C 163.72 116.98 163.02 117.81 163.10 118.75 C 163.18 119.70 164.01 120.40 164.95 120.32 Z M 165.95 120.21 L 166.96 120.14 C 167.90 120.08 168.60 119.26 168.53 118.33 C 168.47 117.39 167.65 116.69 166.72 116.76 L 165.71 116.83 C 164.78 116.90 164.07 117.71 164.14 118.64 C 164.21 119.58 165.02 120.28 165.95 120.21 Z M 166.94 120.12 L 167.99 120.06 C 168.91 120.00 169.61 119.21 169.56 118.29 C 169.51 117.37 168.72 116.67 167.80 116.72 L 166.74 116.78 C 165.82 116.84 165.12 117.63 165.17 118.55 C 165.23 119.47 166.02 120.17 166.94 120.12 Z M 167.97 120.02 L 168.96 119.97 C 169.86 119.93 170.56 119.17 170.52 118.26 C 170.48 117.36 169.71 116.66 168.81 116.71 L 167.82 116.75 C 166.91 116.80 166.22 117.56 166.26 118.47 C 166.30 119.37 167.07 120.07 167.97 120.02 Z M 168.95 119.94 L 169.85 119.90 C 170.74 119.87 171.42 119.12 171.39 118.24 C 171.35 117.35 170.60 116.67 169.72 116.70 L 168.82 116.74 C 167.94 116.78 167.25 117.52 167.29 118.41 C 167.32 119.29 168.07 119.98 168.95 119.94 Z"
      fill="black"
      fill-rule="nonzero" /><path d="M 146.64 113.74 L 146.80 114.67 C 146.94 115.58 147.80 116.19 148.71 116.05 C 149.61 115.90 150.23 115.04 150.08 114.13 L 149.93 113.20 C 149.78 112.29 148.92 111.68 148.01 111.83 C 147.11 111.97 146.49 112.83 146.64 113.74 Z M 146.62 114.63 L 146.74 115.64 C 146.87 116.64 147.79 117.36 148.79 117.23 C 149.80 117.11 150.51 116.19 150.38 115.18 L 150.26 114.18 C 150.13 113.17 149.22 112.46 148.21 112.58 C 147.21 112.71 146.49 113.63 146.62 114.63 Z M 146.62 115.54 L 146.68 116.50 C 146.75 117.57 147.68 118.39 148.76 118.31 C 149.83 118.24 150.64 117.31 150.57 116.24 L 150.51 115.28 C 150.44 114.21 149.51 113.39 148.43 113.47 C 147.36 113.54 146.55 114.47 146.62 115.54 Z M 146.65 116.42 L 146.67 117.38 C 146.70 118.47 147.61 119.34 148.70 119.31 C 149.80 119.28 150.66 118.37 150.63 117.28 L 150.61 116.32 C 150.58 115.22 149.67 114.36 148.58 114.39 C 147.48 114.42 146.62 115.33 146.65 116.42 Z M 146.67 117.34 L 146.68 118.39 C 146.69 119.49 147.58 120.37 148.67 120.36 C 149.77 120.36 150.65 119.46 150.64 118.37 L 150.63 117.32 C 150.63 116.22 149.73 115.34 148.64 115.35 C 147.55 115.35 146.67 116.25 146.67 117.34 Z M 146.68 118.38 L 146.68 119.45 C 146.68 120.54 147.57 121.43 148.66 121.43 C 149.75 121.43 150.64 120.54 150.64 119.45 L 150.64 118.38 C 150.64 117.29 149.75 116.40 148.66 116.40 C 147.57 116.40 146.68 117.29 146.68 118.38 Z M 146.68 119.45 L 146.68 120.48 C 146.68 121.57 147.57 122.45 148.66 122.45 C 149.75 122.45 150.64 121.57 150.64 120.48 L 150.64 119.45 C 150.64 118.35 149.75 117.47 148.66 117.47 C 147.57 117.47 146.68 118.35 146.68 119.45 Z M 146.69 120.48 L 146.69 121.50 C 146.69 122.59 147.57 123.47 148.66 123.47 C 149.75 123.47 150.63 122.59 150.63 121.50 L 150.63 120.48 C 150.63 119.39 149.75 118.50 148.66 118.50 C 147.57 118.50 146.69 119.39 146.69 120.48 Z M 146.69 121.50 L 146.69 122.46 C 146.69 123.55 147.57 124.43 148.66 124.43 C 149.75 124.43 150.63 123.55 150.63 122.46 L 150.63 121.50 C 150.63 120.41 149.75 119.53 148.66 119.53 C 147.57 119.53 146.69 120.41 146.69 121.50 Z M 146.70 122.46 L 146.70 123.52 C 146.70 124.61 147.58 125.49 148.66 125.49 C 149.74 125.49 150.62 124.61 150.62 123.52 L 150.62 122.46 C 150.62 121.37 149.74 120.50 148.66 120.50 C 147.58 120.50 146.70 121.37 146.70 122.46 Z M 146.71 123.52 L 146.71 124.50 C 146.71 125.58 147.58 126.45 148.66 126.45 C 149.74 126.45 150.61 125.58 150.61 124.50 L 150.61 123.52 C 150.61 122.45 149.74 121.57 148.66 121.57 C 147.58 121.57 146.71 122.45 146.71 123.52 Z M 146.72 124.50 L 146.72 125.44 C 146.72 126.51 147.59 127.38 148.66 127.38 C 149.73 127.38 150.60 126.51 150.60 125.44 L 150.60 124.50 C 150.60 123.43 149.73 122.56 148.66 122.56 C 147.59 122.56 146.72 123.43 146.72 124.50 Z M 146.73 125.44 L 146.73 126.41 C 146.73 127.47 147.59 128.34 148.65 128.34 C 149.72 128.34 150.59 127.48 150.59 126.41 L 150.59 125.44 C 150.59 124.38 149.73 123.51 148.66 123.51 C 147.60 123.51 146.73 124.37 146.73 125.44 Z M 146.74 126.39 L 146.73 127.40 C 146.71 128.46 147.56 129.33 148.63 129.34 C 149.69 129.35 150.56 128.50 150.57 127.44 L 150.58 126.43 C 150.59 125.37 149.74 124.50 148.68 124.49 C 147.62 124.48 146.75 125.33 146.74 126.39 Z M 146.73 127.36 L 146.71 128.39 C 146.68 129.44 147.51 130.32 148.56 130.35 C 149.62 130.38 150.50 129.55 150.53 128.49 L 150.56 127.47 C 150.59 126.42 149.76 125.54 148.70 125.51 C 147.64 125.48 146.76 126.31 146.73 127.36 Z M 146.72 128.35 L 146.67 129.34 C 146.62 130.39 147.43 131.28 148.48 131.33 C 149.53 131.39 150.42 130.58 150.47 129.53 L 150.52 128.53 C 150.57 127.48 149.76 126.59 148.71 126.54 C 147.66 126.49 146.77 127.30 146.72 128.35 Z M 146.68 129.31 L 146.62 130.31 C 146.55 131.36 147.34 132.26 148.38 132.32 C 149.42 132.39 150.32 131.60 150.39 130.56 L 150.46 129.56 C 150.52 128.51 149.73 127.61 148.69 127.55 C 147.65 127.48 146.75 128.27 146.68 129.31 Z M 146.63 130.29 L 146.55 131.29 C 146.47 132.32 147.24 133.23 148.28 133.31 C 149.32 133.39 150.22 132.62 150.30 131.58 L 150.38 130.58 C 150.46 129.55 149.69 128.64 148.65 128.56 C 147.62 128.48 146.71 129.26 146.63 130.29 Z M 146.56 131.27 L 146.48 132.26 C 146.39 133.29 147.14 134.19 148.17 134.28 C 149.20 134.38 150.11 133.62 150.20 132.59 L 150.29 131.60 C 150.38 130.57 149.62 129.67 148.59 129.57 C 147.56 129.48 146.66 130.24 146.56 131.27 Z M 146.49 132.24 L 146.39 133.23 C 146.29 134.26 147.04 135.16 148.06 135.26 C 149.08 135.37 149.99 134.62 150.09 133.60 L 150.19 132.60 C 150.29 131.58 149.54 130.67 148.52 130.57 C 147.50 130.47 146.59 131.22 146.49 132.24 Z M 146.41 133.22 L 146.30 134.23 C 146.19 135.25 146.93 136.15 147.94 136.26 C 148.95 136.37 149.86 135.63 149.97 134.62 L 150.08 133.61 C 150.18 132.60 149.45 131.69 148.44 131.58 C 147.42 131.47 146.51 132.21 146.41 133.22 Z M 146.32 134.22 L 146.20 135.24 C 146.09 136.24 146.81 137.15 147.82 137.26 C 148.82 137.37 149.73 136.65 149.84 135.64 L 149.95 134.63 C 150.06 133.63 149.34 132.72 148.34 132.61 C 147.33 132.50 146.43 133.22 146.32 134.22 Z M 146.22 135.23 L 146.11 136.23 C 146.00 137.23 146.71 138.12 147.70 138.24 C 148.69 138.35 149.59 137.64 149.70 136.65 L 149.82 135.65 C 149.93 134.65 149.22 133.76 148.23 133.64 C 147.23 133.53 146.34 134.24 146.22 135.23 Z M 146.13 136.23 L 146.02 137.18 C 145.90 138.16 146.61 139.05 147.59 139.16 C 148.57 139.28 149.46 138.58 149.57 137.59 L 149.68 136.65 C 149.80 135.67 149.09 134.78 148.11 134.66 C 147.13 134.55 146.24 135.25 146.13 136.23 Z M 146.04 137.18 L 145.93 138.07 C 145.82 139.04 146.51 139.93 147.48 140.04 C 148.46 140.15 149.34 139.46 149.45 138.49 L 149.56 137.59 C 149.67 136.62 148.98 135.74 148.00 135.63 C 147.03 135.51 146.15 136.21 146.04 137.18 Z M 145.95 138.07 L 145.83 139.03 C 145.71 139.99 146.40 140.87 147.36 140.99 C 148.33 141.10 149.20 140.42 149.32 139.45 L 149.44 138.49 C 149.55 137.53 148.87 136.65 147.90 136.53 C 146.94 136.42 146.06 137.10 145.95 138.07 Z M 145.85 139.02 L 145.70 140.17 C 145.58 141.12 146.25 142.00 147.21 142.12 C 148.16 142.24 149.03 141.57 149.16 140.61 L 149.30 139.46 C 149.42 138.51 148.75 137.64 147.79 137.51 C 146.84 137.39 145.97 138.07 145.85 139.02 Z M 145.72 140.16 L 145.56 141.37 C 145.43 142.32 146.10 143.19 147.04 143.31 C 147.99 143.44 148.86 142.77 148.98 141.83 L 149.14 140.62 C 149.27 139.67 148.60 138.80 147.65 138.68 C 146.71 138.55 145.84 139.22 145.72 140.16 Z M 145.57 141.37 L 145.41 142.53 C 145.29 143.47 145.95 144.33 146.88 144.46 C 147.82 144.59 148.68 143.93 148.81 142.99 L 148.97 141.83 C 149.09 140.89 148.43 140.03 147.50 139.90 C 146.56 139.78 145.70 140.43 145.57 141.37 Z M 145.43 142.53 L 145.31 143.38 C 145.19 144.31 145.84 145.17 146.77 145.29 C 147.70 145.42 148.55 144.77 148.68 143.84 L 148.80 142.99 C 148.92 142.06 148.27 141.20 147.34 141.08 C 146.41 140.95 145.55 141.60 145.43 142.53 Z M 145.34 143.38 L 145.30 143.62 C 145.18 144.53 145.82 145.38 146.74 145.51 C 147.65 145.63 148.50 144.99 148.62 144.08 L 148.66 143.84 C 148.78 142.92 148.14 142.08 147.23 141.95 C 146.31 141.82 145.46 142.46 145.34 143.38 Z M 148.58 144.07 L 148.70 143.20 C 148.82 142.31 148.19 141.49 147.30 141.37 C 146.41 141.25 145.59 141.87 145.47 142.77 L 145.35 143.63 C 145.23 144.52 145.85 145.34 146.74 145.46 C 147.64 145.58 148.46 144.96 148.58 144.07 Z M 148.65 143.20 L 148.80 142.10 C 148.91 141.24 148.31 140.44 147.44 140.32 C 146.58 140.21 145.78 140.81 145.66 141.68 L 145.51 142.77 C 145.40 143.64 146.00 144.44 146.87 144.55 C 147.73 144.67 148.53 144.06 148.65 143.20 Z"
      fill="black"
      fill-rule="nonzero" /><path d="M 155.43 109.73 L 155.59 110.58 C 155.78 111.51 156.67 112.11 157.59 111.93 C 158.51 111.74 159.12 110.85 158.93 109.93 L 158.77 109.08 C 158.58 108.15 157.69 107.55 156.77 107.73 C 155.85 107.91 155.24 108.81 155.43 109.73 Z M 155.49 110.56 L 155.65 111.49 C 155.82 112.47 156.75 113.13 157.73 112.97 C 158.71 112.80 159.37 111.87 159.20 110.89 L 159.04 109.95 C 158.87 108.97 157.94 108.31 156.96 108.48 C 155.98 108.65 155.32 109.58 155.49 110.56 Z M 155.54 111.44 L 155.69 112.54 C 155.82 113.58 156.78 114.31 157.82 114.17 C 158.86 114.04 159.59 113.08 159.45 112.04 L 159.31 110.94 C 159.17 109.90 158.22 109.17 157.18 109.31 C 156.14 109.45 155.40 110.40 155.54 111.44 Z M 155.62 112.48 L 155.71 113.48 C 155.81 114.55 156.77 115.35 157.85 115.24 C 158.93 115.14 159.72 114.18 159.62 113.10 L 159.52 112.10 C 159.42 111.03 158.46 110.24 157.38 110.34 C 156.30 110.44 155.51 111.40 155.62 112.48 Z M 155.69 113.43 L 155.76 114.41 C 155.84 115.50 156.79 116.32 157.88 116.24 C 158.97 116.16 159.79 115.21 159.71 114.12 L 159.64 113.14 C 159.56 112.05 158.61 111.24 157.52 111.32 C 156.43 111.40 155.61 112.34 155.69 113.43 Z M 155.76 114.38 L 155.82 115.41 C 155.88 116.50 156.82 117.33 157.91 117.27 C 159.00 117.20 159.84 116.27 159.77 115.18 L 159.71 114.15 C 159.65 113.06 158.71 112.22 157.62 112.29 C 156.53 112.35 155.70 113.29 155.76 114.38 Z M 155.82 115.39 L 155.87 116.43 C 155.92 117.52 156.85 118.37 157.94 118.31 C 159.03 118.26 159.87 117.34 159.82 116.24 L 159.77 115.20 C 159.72 114.11 158.80 113.26 157.70 113.31 C 156.61 113.37 155.77 114.29 155.82 115.39 Z M 155.86 116.41 L 155.90 117.43 C 155.94 118.52 156.86 119.38 157.96 119.34 C 159.05 119.30 159.90 118.38 159.86 117.28 L 159.83 116.26 C 159.79 115.17 158.87 114.32 157.77 114.36 C 156.68 114.40 155.82 115.31 155.86 116.41 Z M 155.90 117.41 L 155.93 118.54 C 155.96 119.64 156.87 120.50 157.96 120.48 C 159.06 120.45 159.92 119.54 159.89 118.44 L 159.86 117.30 C 159.84 116.21 158.93 115.34 157.83 115.37 C 156.74 115.40 155.87 116.31 155.90 117.41 Z M 155.93 118.52 L 155.95 119.60 C 155.96 120.69 156.86 121.57 157.96 121.55 C 159.05 121.54 159.93 120.63 159.91 119.54 L 159.89 118.46 C 159.88 117.37 158.98 116.49 157.88 116.51 C 156.79 116.53 155.91 117.43 155.93 118.52 Z M 155.95 119.58 L 155.95 120.55 C 155.96 121.64 156.85 122.52 157.95 122.52 C 159.04 122.51 159.92 121.62 159.92 120.52 L 159.91 119.56 C 159.90 118.46 159.01 117.58 157.92 117.59 C 156.82 117.59 155.94 118.49 155.95 119.58 Z M 155.95 120.54 L 155.95 121.39 C 155.96 122.48 156.84 123.37 157.94 123.37 C 159.03 123.37 159.92 122.48 159.92 121.38 L 159.92 120.53 C 159.92 119.44 159.03 118.55 157.93 118.55 C 156.84 118.55 155.95 119.44 155.95 120.54 Z M 155.96 121.39 L 155.96 122.46 C 155.96 123.55 156.84 124.44 157.94 124.44 C 159.03 124.44 159.92 123.55 159.92 122.46 L 159.92 121.39 C 159.92 120.29 159.03 119.40 157.94 119.40 C 156.84 119.40 155.96 120.29 155.96 121.39 Z M 155.96 122.46 L 155.96 123.42 C 155.96 124.51 156.84 125.40 157.94 125.40 C 159.03 125.40 159.91 124.51 159.91 123.42 L 159.91 122.46 C 159.91 121.36 159.03 120.48 157.94 120.48 C 156.84 120.48 155.96 121.36 155.96 122.46 Z M 155.96 123.42 L 155.96 124.35 C 155.96 125.44 156.85 126.32 157.94 126.32 C 159.03 126.32 159.91 125.44 159.91 124.35 L 159.91 123.42 C 159.91 122.33 159.03 121.44 157.94 121.44 C 156.85 121.44 155.96 122.33 155.96 123.42 Z M 155.97 124.35 L 155.97 125.34 C 155.97 126.43 156.85 127.31 157.94 127.31 C 159.02 127.31 159.91 126.43 159.91 125.34 L 159.91 124.35 C 159.91 123.26 159.02 122.38 157.94 122.38 C 156.85 122.38 155.97 123.26 155.97 124.35 Z M 155.97 125.34 L 155.97 126.35 C 155.97 127.44 156.85 128.32 157.94 128.32 C 159.02 128.32 159.90 127.44 159.90 126.35 L 159.90 125.34 C 159.90 124.26 159.02 123.38 157.94 123.38 C 156.85 123.38 155.97 124.26 155.97 125.34 Z M 155.98 126.35 L 155.97 127.33 C 155.97 128.41 156.85 129.29 157.93 129.29 C 159.01 129.29 159.89 128.42 159.89 127.34 L 159.90 126.36 C 159.90 125.27 159.02 124.39 157.94 124.39 C 156.86 124.39 155.98 125.26 155.98 126.35 Z M 155.98 127.30 L 155.96 128.31 C 155.95 129.39 156.81 130.28 157.89 130.29 C 158.96 130.31 159.85 129.45 159.87 128.37 L 159.89 127.36 C 159.90 126.28 159.04 125.39 157.97 125.38 C 156.89 125.36 156.00 126.22 155.98 127.30 Z M 155.97 128.26 L 155.93 129.28 C 155.89 130.35 156.73 131.25 157.80 131.30 C 158.87 131.34 159.78 130.50 159.82 129.43 L 159.86 128.42 C 159.90 127.34 159.07 126.44 157.99 126.40 C 156.92 126.35 156.02 127.19 155.97 128.26 Z M 155.95 129.23 L 155.88 130.24 C 155.82 131.31 156.62 132.22 157.69 132.29 C 158.75 132.36 159.67 131.55 159.74 130.49 L 159.81 129.48 C 159.87 128.41 159.07 127.49 158.00 127.43 C 156.94 127.36 156.02 128.17 155.95 129.23 Z M 155.90 130.20 L 155.81 131.19 C 155.72 132.24 156.50 133.17 157.56 133.27 C 158.61 133.36 159.55 132.58 159.64 131.52 L 159.73 130.53 C 159.82 129.48 159.04 128.54 157.98 128.45 C 156.92 128.36 155.99 129.14 155.90 130.20 Z M 155.83 131.14 L 155.72 132.15 C 155.60 133.20 156.36 134.14 157.40 134.26 C 158.44 134.38 159.39 133.62 159.50 132.58 L 159.62 131.57 C 159.73 130.52 158.98 129.58 157.94 129.46 C 156.89 129.35 155.95 130.10 155.83 131.14 Z M 155.74 132.13 L 155.62 133.10 C 155.49 134.13 156.22 135.07 157.25 135.20 C 158.28 135.34 159.22 134.61 159.36 133.57 L 159.48 132.61 C 159.61 131.57 158.88 130.63 157.85 130.50 C 156.82 130.37 155.88 131.10 155.74 132.13 Z M 155.64 133.09 L 155.52 133.99 C 155.39 135.01 156.10 135.95 157.12 136.08 C 158.14 136.22 159.08 135.50 159.21 134.48 L 159.33 133.58 C 159.47 132.56 158.75 131.62 157.73 131.49 C 156.71 131.35 155.78 132.07 155.64 133.09 Z M 155.55 133.98 L 155.40 134.97 C 155.26 135.97 155.96 136.90 156.97 137.05 C 157.98 137.19 158.91 136.49 159.05 135.48 L 159.19 134.50 C 159.33 133.49 158.63 132.56 157.63 132.41 C 156.62 132.27 155.69 132.97 155.55 133.98 Z M 155.43 134.94 L 155.27 135.98 C 155.11 136.97 155.79 137.90 156.78 138.06 C 157.78 138.21 158.71 137.53 158.86 136.54 L 159.03 135.51 C 159.18 134.51 158.50 133.58 157.51 133.43 C 156.52 133.27 155.59 133.95 155.43 134.94 Z M 155.29 135.96 L 155.13 136.92 C 154.97 137.90 155.63 138.83 156.61 138.99 C 157.59 139.16 158.52 138.50 158.68 137.52 L 158.84 136.56 C 159.01 135.58 158.34 134.65 157.36 134.49 C 156.38 134.32 155.46 134.98 155.29 135.96 Z M 155.15 136.91 L 154.97 137.92 C 154.80 138.89 155.45 139.82 156.41 139.99 C 157.38 140.16 158.31 139.51 158.48 138.54 L 158.66 137.53 C 158.83 136.56 158.18 135.64 157.22 135.46 C 156.25 135.29 155.32 135.94 155.15 136.91 Z M 154.99 137.91 L 154.80 138.93 C 154.63 139.89 155.26 140.81 156.21 140.98 C 157.17 141.16 158.09 140.53 158.27 139.57 L 158.46 138.56 C 158.63 137.60 158.00 136.68 157.05 136.50 C 156.09 136.32 155.17 136.96 154.99 137.91 Z M 154.84 138.92 L 154.63 139.98 C 154.44 140.92 155.05 141.83 155.99 142.02 C 156.93 142.20 157.84 141.59 158.03 140.65 L 158.24 139.59 C 158.42 138.65 157.81 137.74 156.87 137.55 C 155.93 137.37 155.02 137.98 154.84 138.92 Z M 154.67 139.97 L 154.46 140.96 C 154.27 141.87 154.85 142.77 155.76 142.97 C 156.68 143.16 157.58 142.58 157.77 141.66 L 157.98 140.67 C 158.18 139.75 157.59 138.86 156.68 138.66 C 155.76 138.47 154.86 139.05 154.67 139.97 Z M 154.51 140.94 L 154.30 141.84 C 154.09 142.73 154.64 143.62 155.53 143.82 C 156.42 144.03 157.31 143.48 157.51 142.59 L 157.72 141.69 C 157.93 140.80 157.38 139.91 156.49 139.70 C 155.60 139.49 154.71 140.05 154.51 140.94 Z M 154.34 141.80 L 154.08 142.80 C 153.85 143.66 154.36 144.55 155.22 144.78 C 156.09 145.01 156.97 144.49 157.20 143.63 L 157.47 142.63 C 157.70 141.77 157.19 140.88 156.32 140.65 C 155.46 140.42 154.57 140.93 154.34 141.80 Z M 154.12 142.76 L 153.83 143.69 C 153.58 144.53 154.06 145.42 154.90 145.67 C 155.74 145.92 156.63 145.45 156.88 144.61 L 157.16 143.67 C 157.42 142.83 156.94 141.94 156.10 141.69 C 155.26 141.44 154.37 141.92 154.12 142.76 Z M 153.86 143.68 L 153.70 144.17 C 153.44 145.00 153.90 145.88 154.73 146.14 C 155.56 146.40 156.44 145.94 156.70 145.12 L 156.86 144.62 C 157.12 143.79 156.66 142.91 155.83 142.65 C 155.00 142.39 154.12 142.85 153.86 143.68 Z"
      fill="black"
      fill-rule="nonzero" /><path d="M 131.39 146.73 L 130.06 146.81 C 129.13 146.88 128.42 147.69 128.48 148.62 C 128.54 149.56 129.35 150.27 130.29 150.21 L 131.61 150.12 C 132.55 150.06 133.26 149.25 133.20 148.31 C 133.14 147.37 132.33 146.66 131.39 146.73 Z M 130.07 146.68 L 128.96 146.74 C 127.95 146.80 127.18 147.67 127.24 148.69 C 127.30 149.70 128.17 150.47 129.18 150.41 L 130.29 150.34 C 131.30 150.28 132.07 149.41 132.01 148.40 C 131.95 147.39 131.08 146.62 130.07 146.68 Z M 129.00 146.61 L 128.35 146.63 C 127.26 146.67 126.41 147.58 126.45 148.67 C 126.49 149.76 127.40 150.61 128.49 150.57 L 129.15 150.55 C 130.23 150.51 131.08 149.59 131.04 148.51 C 131.01 147.42 130.09 146.57 129.00 146.61 Z M 129.31 150.47 L 129.47 150.39 C 130.50 149.90 130.94 148.67 130.45 147.64 C 129.96 146.61 128.73 146.17 127.70 146.66 L 127.53 146.73 C 126.50 147.22 126.06 148.46 126.55 149.49 C 127.04 150.52 128.28 150.96 129.31 150.47 Z M 128.96 150.60 L 130.22 150.37 C 131.37 150.16 132.13 149.06 131.93 147.92 C 131.72 146.77 130.62 146.00 129.47 146.21 L 128.20 146.44 C 127.06 146.65 126.29 147.75 126.50 148.90 C 126.71 150.05 127.81 150.81 128.96 150.60 Z M 130.26 150.39 L 131.31 150.19 C 132.47 149.96 133.22 148.83 132.99 147.67 C 132.76 146.51 131.64 145.76 130.48 145.99 L 129.43 146.19 C 128.27 146.42 127.52 147.55 127.75 148.71 C 127.97 149.87 129.10 150.62 130.26 150.39 Z M 131.34 150.19 L 132.35 149.97 C 133.51 149.73 134.25 148.58 134.00 147.42 C 133.75 146.26 132.61 145.52 131.45 145.77 L 130.44 145.98 C 129.28 146.23 128.54 147.37 128.79 148.54 C 129.04 149.70 130.18 150.44 131.34 150.19 Z M 132.37 149.97 L 133.37 149.75 C 134.53 149.49 135.26 148.33 135.00 147.17 C 134.74 146.01 133.59 145.28 132.43 145.54 L 131.42 145.77 C 130.26 146.03 129.53 147.18 129.79 148.34 C 130.05 149.51 131.21 150.24 132.37 149.97 Z M 133.39 149.75 L 134.36 149.52 C 135.52 149.25 136.24 148.09 135.97 146.93 C 135.70 145.77 134.53 145.04 133.37 145.32 L 132.41 145.54 C 131.25 145.81 130.52 146.98 130.80 148.14 C 131.07 149.30 132.23 150.02 133.39 149.75 Z M 134.38 149.52 L 135.43 149.27 C 136.59 148.98 137.30 147.81 137.02 146.65 C 136.73 145.49 135.56 144.78 134.40 145.06 L 133.35 145.32 C 132.19 145.60 131.48 146.77 131.76 147.93 C 132.04 149.10 133.22 149.81 134.38 149.52 Z M 135.44 149.27 L 136.38 149.03 C 137.54 148.74 138.25 147.56 137.95 146.40 C 137.66 145.24 136.48 144.53 135.32 144.83 L 134.38 145.06 C 133.22 145.35 132.52 146.53 132.81 147.69 C 133.10 148.85 134.28 149.56 135.44 149.27 Z M 136.38 149.04 L 137.28 148.81 C 138.45 148.52 139.16 147.34 138.86 146.18 C 138.57 145.01 137.40 144.31 136.23 144.60 L 135.33 144.82 C 134.16 145.11 133.45 146.29 133.74 147.45 C 134.04 148.62 135.21 149.33 136.38 149.04 Z M 137.27 148.81 L 138.22 148.58 C 139.39 148.30 140.11 147.13 139.82 145.96 C 139.54 144.79 138.37 144.08 137.20 144.36 L 136.25 144.59 C 135.08 144.87 134.36 146.05 134.65 147.22 C 134.93 148.38 136.10 149.10 137.27 148.81 Z M 138.22 148.59 L 139.20 148.35 C 140.37 148.07 141.09 146.90 140.81 145.73 C 140.53 144.56 139.35 143.84 138.18 144.12 L 137.20 144.36 C 136.04 144.64 135.32 145.81 135.60 146.98 C 135.88 148.15 137.05 148.87 138.22 148.59 Z M 139.20 148.35 L 140.19 148.12 C 141.35 147.83 142.07 146.65 141.79 145.49 C 141.50 144.32 140.33 143.60 139.16 143.88 L 138.18 144.12 C 137.01 144.40 136.29 145.58 136.57 146.75 C 136.86 147.92 138.03 148.64 139.20 148.35 Z M 140.20 148.12 L 141.14 147.88 C 142.31 147.59 143.02 146.41 142.73 145.24 C 142.44 144.07 141.26 143.36 140.09 143.65 L 139.15 143.88 C 137.98 144.17 137.26 145.35 137.55 146.52 C 137.84 147.69 139.03 148.41 140.20 148.12 Z M 141.15 147.88 L 142.12 147.64 C 143.29 147.35 144.00 146.16 143.71 144.99 C 143.41 143.82 142.22 143.11 141.05 143.40 L 140.08 143.64 C 138.91 143.94 138.20 145.13 138.50 146.30 C 138.79 147.47 139.98 148.18 141.15 147.88 Z M 142.12 147.64 L 143.12 147.39 C 144.29 147.10 145.00 145.91 144.71 144.73 C 144.41 143.56 143.22 142.85 142.05 143.15 L 141.05 143.40 C 139.88 143.69 139.17 144.88 139.46 146.05 C 139.76 147.23 140.95 147.94 142.12 147.64 Z M 143.12 147.39 L 144.08 147.15 C 145.25 146.86 145.97 145.67 145.67 144.49 C 145.38 143.32 144.19 142.61 143.01 142.90 L 142.05 143.14 C 140.88 143.44 140.16 144.63 140.46 145.80 C 140.75 146.98 141.95 147.69 143.12 147.39 Z M 144.09 147.15 L 145.06 146.90 C 146.24 146.61 146.95 145.41 146.65 144.24 C 146.35 143.07 145.16 142.36 143.99 142.66 L 143.01 142.90 C 141.83 143.20 141.12 144.39 141.42 145.57 C 141.72 146.74 142.91 147.45 144.09 147.15 Z M 145.08 146.90 L 146.05 146.65 C 147.22 146.34 147.92 145.15 147.62 143.97 C 147.31 142.80 146.12 142.10 144.95 142.41 L 143.97 142.66 C 142.80 142.96 142.10 144.16 142.40 145.33 C 142.71 146.50 143.91 147.20 145.08 146.90 Z M 146.07 146.64 L 147.04 146.38 C 148.21 146.06 148.90 144.86 148.58 143.69 C 148.26 142.53 147.06 141.83 145.90 142.15 L 144.93 142.41 C 143.76 142.73 143.07 143.93 143.38 145.10 C 143.70 146.27 144.90 146.96 146.07 146.64 Z M 147.05 146.37 L 148.01 146.11 C 149.17 145.78 149.85 144.58 149.53 143.41 C 149.21 142.25 148.00 141.57 146.84 141.89 L 145.88 142.16 C 144.72 142.48 144.04 143.68 144.36 144.85 C 144.68 146.01 145.89 146.69 147.05 146.37 Z M 148.01 146.10 L 148.96 145.84 C 150.13 145.52 150.81 144.31 150.49 143.15 C 150.17 141.99 148.96 141.31 147.80 141.63 L 146.84 141.89 C 145.68 142.22 145.00 143.42 145.32 144.58 C 145.64 145.74 146.84 146.43 148.01 146.10 Z M 148.95 145.84 L 149.90 145.58 C 151.06 145.27 151.75 144.08 151.44 142.91 C 151.13 141.75 149.93 141.06 148.77 141.37 L 147.82 141.63 C 146.65 141.94 145.96 143.14 146.28 144.30 C 146.59 145.46 147.78 146.15 148.95 145.84 Z M 149.88 145.58 L 150.83 145.34 C 152.00 145.04 152.70 143.85 152.39 142.69 C 152.09 141.52 150.91 140.82 149.74 141.12 L 148.79 141.37 C 147.63 141.67 146.93 142.86 147.23 144.02 C 147.53 145.19 148.72 145.89 149.88 145.58 Z M 150.82 145.34 L 151.80 145.09 C 152.96 144.79 153.66 143.61 153.37 142.45 C 153.07 141.29 151.89 140.58 150.73 140.88 L 149.75 141.13 C 148.59 141.42 147.89 142.60 148.18 143.77 C 148.48 144.93 149.66 145.63 150.82 145.34 Z M 151.79 145.09 L 152.79 144.84 C 153.95 144.54 154.66 143.36 154.36 142.20 C 154.07 141.04 152.89 140.34 151.73 140.63 L 150.73 140.88 C 149.57 141.17 148.87 142.35 149.16 143.51 C 149.45 144.68 150.63 145.38 151.79 145.09 Z M 152.79 144.83 L 153.74 144.59 C 154.90 144.29 155.60 143.12 155.31 141.96 C 155.01 140.80 153.84 140.10 152.68 140.40 L 151.73 140.64 C 150.57 140.93 149.87 142.11 150.16 143.26 C 150.46 144.42 151.63 145.12 152.79 144.83 Z M 153.75 144.58 L 154.71 144.33 C 155.86 144.03 156.56 142.86 156.26 141.71 C 155.96 140.56 154.79 139.86 153.64 140.16 L 152.67 140.40 C 151.52 140.70 150.83 141.88 151.12 143.03 C 151.42 144.18 152.59 144.87 153.75 144.58 Z M 154.72 144.32 L 155.69 144.07 C 156.84 143.77 157.53 142.59 157.23 141.45 C 156.93 140.30 155.76 139.61 154.61 139.91 L 153.63 140.17 C 152.48 140.47 151.80 141.64 152.10 142.79 C 152.40 143.93 153.57 144.62 154.72 144.32 Z M 155.70 144.06 L 156.68 143.79 C 157.82 143.49 158.50 142.32 158.20 141.18 C 157.89 140.04 156.72 139.36 155.58 139.66 L 154.60 139.92 C 153.46 140.23 152.78 141.40 153.08 142.54 C 153.39 143.68 154.56 144.36 155.70 144.06 Z M 156.69 143.78 L 157.64 143.52 C 158.78 143.22 159.45 142.05 159.14 140.91 C 158.84 139.78 157.67 139.11 156.53 139.41 L 155.57 139.67 C 154.44 139.98 153.77 141.15 154.07 142.29 C 154.38 143.42 155.55 144.09 156.69 143.78 Z M 157.64 143.52 L 158.61 143.25 C 159.74 142.94 160.41 141.78 160.10 140.65 C 159.79 139.52 158.63 138.85 157.50 139.16 L 156.53 139.42 C 155.40 139.73 154.73 140.90 155.04 142.03 C 155.35 143.16 156.51 143.82 157.64 143.52 Z M 158.60 143.24 L 159.58 142.98 C 160.70 142.68 161.37 141.52 161.06 140.39 C 160.76 139.27 159.60 138.60 158.47 138.91 L 157.50 139.17 C 156.38 139.47 155.71 140.63 156.01 141.76 C 156.32 142.88 157.48 143.55 158.60 143.24 Z M 159.56 142.98 L 160.53 142.72 C 161.65 142.42 162.32 141.27 162.02 140.15 C 161.73 139.02 160.57 138.36 159.45 138.65 L 158.48 138.91 C 157.36 139.21 156.69 140.36 156.99 141.48 C 157.29 142.61 158.44 143.27 159.56 142.98 Z M 160.52 142.71 L 161.48 142.46 C 162.60 142.17 163.27 141.03 162.98 139.91 C 162.69 138.79 161.54 138.12 160.43 138.41 L 159.47 138.66 C 158.35 138.95 157.67 140.09 157.96 141.21 C 158.25 142.33 159.40 143.00 160.52 142.71 Z M 161.46 142.46 L 162.43 142.21 C 163.54 141.93 164.22 140.80 163.94 139.68 C 163.65 138.57 162.52 137.89 161.41 138.17 L 160.44 138.42 C 159.32 138.70 158.65 139.83 158.93 140.95 C 159.21 142.06 160.35 142.74 161.46 142.46 Z M 162.41 142.21 L 163.39 141.97 C 164.50 141.69 165.18 140.57 164.91 139.45 C 164.63 138.34 163.51 137.66 162.39 137.94 L 161.42 138.18 C 160.31 138.45 159.63 139.58 159.90 140.69 C 160.18 141.80 161.30 142.48 162.41 142.21 Z M 163.38 141.96 L 164.37 141.72 C 165.48 141.45 166.16 140.33 165.89 139.23 C 165.62 138.12 164.51 137.44 163.40 137.71 L 162.41 137.95 C 161.30 138.21 160.62 139.33 160.89 140.44 C 161.16 141.55 162.27 142.23 163.38 141.96 Z M 164.36 141.71 L 165.36 141.47 C 166.46 141.21 167.14 140.10 166.88 139.00 C 166.62 137.90 165.51 137.21 164.41 137.48 L 163.41 137.72 C 162.31 137.98 161.63 139.08 161.89 140.19 C 162.15 141.29 163.26 141.97 164.36 141.71 Z M 165.35 141.46 L 166.34 141.23 C 167.44 140.97 168.12 139.87 167.86 138.78 C 167.60 137.68 166.51 137.00 165.41 137.26 L 164.42 137.49 C 163.32 137.74 162.64 138.84 162.90 139.94 C 163.16 141.03 164.25 141.72 165.35 141.46 Z M 166.33 141.22 L 167.28 141.00 C 168.37 140.75 169.05 139.66 168.80 138.57 C 168.55 137.48 167.47 136.80 166.38 137.05 L 165.42 137.27 C 164.33 137.52 163.65 138.61 163.90 139.70 C 164.15 140.79 165.24 141.47 166.33 141.22 Z M 167.27 140.99 L 168.26 140.76 C 169.35 140.52 170.03 139.44 169.78 138.36 C 169.54 137.27 168.46 136.59 167.38 136.84 L 166.39 137.06 C 165.30 137.30 164.62 138.38 164.87 139.46 C 165.11 140.55 166.19 141.23 167.27 140.99 Z M 168.25 140.75 L 169.27 140.53 C 170.35 140.29 171.03 139.23 170.80 138.15 C 170.56 137.07 169.50 136.39 168.42 136.62 L 167.40 136.85 C 166.32 137.08 165.64 138.15 165.87 139.23 C 166.11 140.30 167.17 140.99 168.25 140.75 Z M 169.26 140.51 L 170.20 140.31 C 171.27 140.09 171.96 139.04 171.73 137.97 C 171.50 136.89 170.45 136.21 169.38 136.44 L 168.43 136.64 C 167.36 136.86 166.68 137.92 166.91 138.99 C 167.13 140.06 168.18 140.74 169.26 140.51 Z M 170.19 140.30 L 171.10 140.12 C 172.16 139.90 172.85 138.86 172.63 137.79 C 172.41 136.73 171.37 136.05 170.31 136.26 L 169.40 136.45 C 168.33 136.67 167.65 137.71 167.87 138.77 C 168.08 139.83 169.12 140.52 170.19 140.30 Z M 171.08 140.10 L 172.03 139.91 C 173.09 139.71 173.78 138.68 173.57 137.63 C 173.36 136.57 172.34 135.88 171.28 136.09 L 170.33 136.28 C 169.27 136.48 168.58 137.51 168.79 138.56 C 169.00 139.62 170.02 140.31 171.08 140.10 Z M 172.01 139.90 L 172.99 139.72 C 174.03 139.53 174.73 138.52 174.53 137.47 C 174.34 136.42 173.33 135.73 172.29 135.92 L 171.31 136.10 C 170.26 136.30 169.56 137.30 169.76 138.35 C 169.95 139.40 170.96 140.09 172.01 139.90 Z M 172.96 139.71 L 173.97 139.53 C 175.01 139.35 175.71 138.36 175.53 137.32 C 175.35 136.28 174.36 135.58 173.32 135.76 L 172.31 135.94 C 171.27 136.12 170.57 137.11 170.75 138.15 C 170.93 139.19 171.92 139.89 172.96 139.71 Z M 173.94 139.52 L 174.95 139.36 C 175.98 139.20 176.69 138.23 176.53 137.20 C 176.37 136.16 175.40 135.46 174.36 135.62 L 173.36 135.77 C 172.32 135.93 171.61 136.90 171.77 137.94 C 171.94 138.97 172.91 139.68 173.94 139.52 Z M 174.89 139.36 L 175.90 139.23 C 176.93 139.10 177.66 138.16 177.53 137.13 C 177.40 136.10 176.47 135.37 175.44 135.50 L 174.42 135.62 C 173.39 135.75 172.66 136.69 172.79 137.72 C 172.92 138.75 173.86 139.48 174.89 139.36 Z M 175.80 139.22 L 176.79 139.15 C 177.81 139.08 178.58 138.18 178.51 137.16 C 178.44 136.13 177.55 135.36 176.52 135.44 L 175.53 135.51 C 174.51 135.58 173.74 136.47 173.81 137.50 C 173.89 138.52 174.78 139.29 175.80 139.22 Z M 176.63 139.12 L 177.69 139.14 C 178.69 139.15 179.52 138.34 179.54 137.33 C 179.55 136.32 178.74 135.49 177.74 135.48 L 176.68 135.46 C 175.67 135.45 174.84 136.26 174.83 137.27 C 174.81 138.28 175.62 139.11 176.63 139.12 Z M 177.55 139.08 L 178.50 139.17 C 179.48 139.26 180.35 138.53 180.44 137.55 C 180.52 136.57 179.80 135.71 178.82 135.62 L 177.87 135.53 C 176.89 135.44 176.02 136.17 175.94 137.15 C 175.85 138.13 176.57 138.99 177.55 139.08 Z M 178.46 139.13 L 178.86 139.18 C 179.82 139.29 180.69 138.60 180.80 137.65 C 180.91 136.69 180.23 135.82 179.27 135.70 L 178.87 135.66 C 177.91 135.54 177.04 136.23 176.92 137.19 C 176.81 138.15 177.50 139.02 178.46 139.13 Z"
      fill="black"
      fill-rule="nonzero" /><path d="M 140.98 156.15 L 140.91 157.05 C 140.83 157.99 141.53 158.82 142.47 158.90 C 143.42 158.98 144.24 158.28 144.32 157.33 L 144.40 156.44 C 144.47 155.49 143.77 154.67 142.83 154.59 C 141.89 154.51 141.06 155.21 140.98 156.15 Z M 140.80 157.08 L 140.74 158.08 C 140.67 159.09 141.44 159.95 142.44 160.01 C 143.44 160.08 144.31 159.31 144.37 158.31 L 144.43 157.31 C 144.49 156.30 143.73 155.44 142.73 155.38 C 141.73 155.31 140.86 156.08 140.80 157.08 Z M 140.65 158.13 L 140.61 159.20 C 140.58 160.25 141.40 161.13 142.45 161.17 C 143.50 161.20 144.38 160.38 144.42 159.33 L 144.45 158.26 C 144.49 157.21 143.67 156.33 142.62 156.29 C 141.57 156.26 140.69 157.08 140.65 158.13 Z M 140.58 159.23 L 140.57 160.25 C 140.55 161.31 141.40 162.19 142.47 162.21 C 143.54 162.23 144.42 161.37 144.43 160.31 L 144.45 159.29 C 144.46 158.23 143.61 157.35 142.54 157.33 C 141.48 157.31 140.60 158.17 140.58 159.23 Z M 140.57 160.26 L 140.56 161.30 C 140.56 162.37 141.42 163.24 142.48 163.25 C 143.55 163.25 144.42 162.39 144.43 161.33 L 144.43 160.29 C 144.44 159.22 143.58 158.35 142.51 158.34 C 141.44 158.34 140.57 159.20 140.57 160.26 Z M 140.56 161.31 L 140.56 162.29 C 140.56 163.36 141.42 164.22 142.49 164.22 C 143.56 164.23 144.42 163.36 144.42 162.30 L 144.42 161.32 C 144.43 160.25 143.56 159.38 142.50 159.38 C 141.43 159.38 140.56 160.25 140.56 161.31 Z M 140.57 162.29 L 140.57 163.39 C 140.56 164.45 141.42 165.32 142.49 165.32 C 143.55 165.32 144.41 164.46 144.42 163.40 L 144.42 162.30 C 144.42 161.23 143.56 160.37 142.50 160.37 C 141.43 160.37 140.57 161.23 140.57 162.29 Z M 140.58 163.36 L 140.56 164.31 C 140.54 165.37 141.38 166.24 142.44 166.26 C 143.49 166.28 144.37 165.44 144.39 164.38 L 144.40 163.43 C 144.42 162.37 143.58 161.50 142.53 161.48 C 141.47 161.46 140.60 162.30 140.58 163.36 Z M 140.57 164.25 L 140.52 165.18 C 140.47 166.22 141.27 167.12 142.32 167.18 C 143.37 167.23 144.26 166.43 144.32 165.38 L 144.37 164.45 C 144.43 163.40 143.62 162.51 142.58 162.45 C 141.53 162.39 140.63 163.20 140.57 164.25 Z M 140.54 165.11 L 140.45 166.10 C 140.36 167.13 141.12 168.05 142.16 168.15 C 143.20 168.24 144.12 167.48 144.21 166.44 L 144.30 165.45 C 144.40 164.41 143.63 163.49 142.59 163.40 C 141.56 163.30 140.64 164.07 140.54 165.11 Z M 140.47 166.06 L 140.36 167.07 C 140.24 168.10 140.98 169.02 142.01 169.14 C 143.04 169.25 143.97 168.51 144.08 167.48 L 144.20 166.48 C 144.31 165.45 143.57 164.52 142.54 164.41 C 141.51 164.29 140.58 165.03 140.47 166.06 Z M 140.37 167.06 L 140.26 168.05 C 140.14 169.07 140.87 169.99 141.89 170.11 C 142.91 170.23 143.83 169.50 143.95 168.48 L 144.07 167.49 C 144.19 166.47 143.45 165.55 142.43 165.43 C 141.41 165.31 140.49 166.04 140.37 167.06 Z M 140.27 168.04 L 140.15 169.04 C 140.03 170.05 140.75 170.96 141.76 171.09 C 142.77 171.21 143.69 170.49 143.81 169.48 L 143.93 168.49 C 144.05 167.48 143.34 166.56 142.33 166.44 C 141.32 166.31 140.40 167.03 140.27 168.04 Z M 140.18 169.02 L 140.04 170.02 C 139.91 171.02 140.62 171.93 141.62 172.06 C 142.62 172.19 143.53 171.49 143.66 170.49 L 143.79 169.49 C 143.92 168.50 143.22 167.58 142.22 167.45 C 141.22 167.32 140.31 168.02 140.18 169.02 Z M 140.07 170.01 L 139.93 171.00 C 139.79 171.99 140.48 172.90 141.47 173.04 C 142.45 173.18 143.36 172.49 143.50 171.50 L 143.64 170.50 C 143.78 169.52 143.09 168.61 142.10 168.47 C 141.11 168.33 140.20 169.02 140.07 170.01 Z M 139.95 171.01 L 139.81 171.99 C 139.67 172.97 140.36 173.87 141.33 174.00 C 142.31 174.14 143.21 173.46 143.35 172.48 L 143.48 171.50 C 143.62 170.52 142.94 169.62 141.96 169.48 C 140.98 169.35 140.08 170.03 139.95 171.01 Z M 139.83 172.01 L 139.71 172.93 C 139.58 173.89 140.26 174.78 141.22 174.91 C 142.19 175.04 143.08 174.36 143.20 173.39 L 143.33 172.47 C 143.45 171.50 142.78 170.62 141.81 170.49 C 140.84 170.36 139.96 171.04 139.83 172.01 Z M 139.73 172.93 L 139.60 173.90 C 139.47 174.85 140.14 175.73 141.10 175.86 C 142.05 175.98 142.93 175.31 143.05 174.36 L 143.18 173.39 C 143.31 172.43 142.64 171.56 141.69 171.43 C 140.73 171.30 139.85 171.97 139.73 172.93 Z M 139.62 173.88 L 139.47 174.95 C 139.33 175.89 139.99 176.76 140.93 176.90 C 141.87 177.03 142.74 176.38 142.88 175.44 L 143.03 174.37 C 143.17 173.43 142.51 172.56 141.57 172.42 C 140.63 172.29 139.76 172.94 139.62 173.88 Z M 139.49 174.93 L 139.34 175.90 C 139.20 176.83 139.84 177.70 140.77 177.84 C 141.70 177.98 142.56 177.35 142.71 176.42 L 142.86 175.45 C 143.00 174.52 142.36 173.65 141.43 173.51 C 140.50 173.37 139.63 174.00 139.49 174.93 Z M 139.36 175.90 L 139.20 176.92 C 139.06 177.84 139.69 178.70 140.61 178.84 C 141.53 178.98 142.39 178.35 142.53 177.43 L 142.69 176.41 C 142.83 175.49 142.20 174.63 141.28 174.49 C 140.36 174.35 139.50 174.98 139.36 175.90 Z M 139.22 176.94 L 139.08 177.95 C 138.95 178.86 139.58 179.70 140.49 179.83 C 141.40 179.96 142.24 179.33 142.37 178.42 L 142.52 177.41 C 142.65 176.50 142.01 175.66 141.10 175.53 C 140.19 175.40 139.35 176.03 139.22 176.94 Z M 139.09 177.99 L 138.97 179.03 C 138.86 179.94 139.50 180.75 140.40 180.86 C 141.31 180.97 142.12 180.33 142.23 179.43 L 142.36 178.38 C 142.47 177.48 141.82 176.66 140.92 176.55 C 140.02 176.44 139.20 177.09 139.09 177.99 Z M 138.99 179.08 L 138.89 180.09 C 138.81 180.98 139.47 181.77 140.36 181.85 C 141.25 181.93 142.04 181.28 142.12 180.39 L 142.21 179.38 C 142.29 178.49 141.64 177.70 140.75 177.62 C 139.86 177.54 139.07 178.19 138.99 179.08 Z M 138.92 180.12 L 138.85 181.07 C 138.79 181.95 139.45 182.71 140.33 182.77 C 141.20 182.84 141.97 182.17 142.03 181.30 L 142.10 180.35 C 142.16 179.47 141.50 178.71 140.62 178.65 C 139.74 178.59 138.98 179.25 138.92 180.12 Z M 138.87 181.08 L 138.85 181.40 C 138.79 182.27 139.45 183.02 140.32 183.07 C 141.18 183.13 141.93 182.47 141.99 181.60 L 142.01 181.29 C 142.07 180.42 141.41 179.67 140.54 179.61 C 139.67 179.55 138.92 180.21 138.87 181.08 Z"
      fill="black"
      fill-rule="nonzero" /><path d="M 146.70 155.77 L 145.76 155.09 C 144.94 154.49 143.80 154.67 143.21 155.49 C 142.61 156.31 142.79 157.45 143.61 158.04 L 144.55 158.73 C 145.36 159.32 146.51 159.14 147.10 158.32 C 147.69 157.50 147.51 156.36 146.70 155.77 Z M 146.38 155.88 L 146.13 155.26 C 145.75 154.32 144.69 153.87 143.75 154.25 C 142.81 154.62 142.36 155.69 142.74 156.63 L 142.99 157.25 C 143.37 158.19 144.43 158.64 145.37 158.26 C 146.31 157.88 146.76 156.82 146.38 155.88 Z M 145.63 157.33 L 146.20 156.83 C 146.97 156.18 147.05 155.02 146.39 154.26 C 145.74 153.49 144.58 153.40 143.82 154.06 L 143.24 154.56 C 142.48 155.21 142.39 156.37 143.05 157.13 C 143.71 157.90 144.86 157.99 145.63 157.33 Z M 145.73 157.13 L 146.90 156.62 C 147.83 156.22 148.26 155.15 147.86 154.22 C 147.46 153.29 146.38 152.86 145.46 153.26 L 144.28 153.77 C 143.36 154.17 142.93 155.24 143.33 156.17 C 143.73 157.10 144.81 157.53 145.73 157.13 Z M 146.79 156.67 L 147.68 156.35 C 148.63 156.02 149.13 154.97 148.79 154.02 C 148.46 153.07 147.42 152.57 146.47 152.91 L 145.57 153.22 C 144.62 153.55 144.12 154.60 144.46 155.55 C 144.79 156.50 145.83 157.00 146.79 156.67 Z M 147.64 156.36 L 148.58 156.05 C 149.54 155.74 150.07 154.71 149.75 153.76 C 149.44 152.80 148.41 152.27 147.46 152.59 L 146.51 152.89 C 145.55 153.21 145.03 154.23 145.34 155.19 C 145.65 156.15 146.68 156.67 147.64 156.36 Z M 148.56 156.06 L 149.55 155.75 C 150.51 155.46 151.05 154.44 150.76 153.48 C 150.46 152.52 149.44 151.98 148.48 152.27 L 147.49 152.58 C 146.52 152.87 145.98 153.89 146.28 154.85 C 146.57 155.82 147.59 156.36 148.56 156.06 Z M 149.53 155.76 L 150.53 155.47 C 151.49 155.18 152.04 154.17 151.76 153.21 C 151.48 152.24 150.46 151.69 149.50 151.98 L 148.50 152.27 C 147.54 152.55 146.99 153.56 147.27 154.53 C 147.55 155.49 148.57 156.04 149.53 155.76 Z M 150.51 155.47 L 151.56 155.17 C 152.52 154.90 153.08 153.89 152.81 152.93 C 152.54 151.96 151.53 151.40 150.57 151.67 L 149.52 151.97 C 148.55 152.24 147.99 153.25 148.27 154.22 C 148.54 155.18 149.54 155.74 150.51 155.47 Z M 151.55 155.18 L 152.54 154.90 C 153.51 154.63 154.08 153.63 153.81 152.66 C 153.54 151.70 152.54 151.13 151.57 151.40 L 150.58 151.67 C 149.61 151.94 149.04 152.94 149.31 153.91 C 149.58 154.88 150.58 155.44 151.55 155.18 Z M 152.54 154.90 L 153.46 154.65 C 154.43 154.38 155.00 153.38 154.73 152.41 C 154.47 151.45 153.47 150.88 152.50 151.14 L 151.57 151.39 C 150.61 151.66 150.04 152.66 150.30 153.63 C 150.57 154.60 151.57 155.17 152.54 154.90 Z M 153.47 154.65 L 154.37 154.40 C 155.34 154.13 155.90 153.12 155.63 152.16 C 155.36 151.19 154.36 150.62 153.39 150.89 L 152.49 151.14 C 151.52 151.41 150.96 152.42 151.23 153.38 C 151.50 154.35 152.50 154.92 153.47 154.65 Z M 154.39 154.39 L 155.34 154.12 C 156.30 153.84 156.86 152.83 156.58 151.86 C 156.30 150.90 155.29 150.34 154.32 150.62 L 153.37 150.90 C 152.41 151.18 151.85 152.19 152.13 153.15 C 152.41 154.12 153.42 154.67 154.39 154.39 Z M 155.36 154.11 L 156.29 153.83 C 157.26 153.54 157.80 152.52 157.51 151.56 C 157.22 150.59 156.20 150.05 155.24 150.34 L 154.30 150.63 C 153.34 150.92 152.80 151.93 153.09 152.90 C 153.38 153.86 154.40 154.40 155.36 154.11 Z M 156.31 153.82 L 157.27 153.52 C 158.23 153.22 158.76 152.20 158.46 151.24 C 158.16 150.28 157.14 149.75 156.18 150.05 L 155.22 150.35 C 154.26 150.65 153.73 151.67 154.03 152.63 C 154.33 153.59 155.35 154.12 156.31 153.82 Z M 157.27 153.52 L 158.22 153.23 C 159.18 152.92 159.71 151.90 159.41 150.94 C 159.11 149.98 158.09 149.45 157.13 149.75 L 156.18 150.05 C 155.22 150.35 154.68 151.37 154.99 152.33 C 155.29 153.29 156.31 153.82 157.27 153.52 Z M 158.20 153.23 L 159.18 152.94 C 160.15 152.65 160.69 151.63 160.40 150.66 C 160.11 149.70 159.09 149.15 158.13 149.45 L 157.15 149.74 C 156.18 150.03 155.64 151.05 155.93 152.01 C 156.22 152.98 157.24 153.52 158.20 153.23 Z M 159.14 152.95 L 160.11 152.68 C 161.08 152.41 161.65 151.41 161.38 150.44 C 161.11 149.47 160.10 148.90 159.13 149.17 L 158.17 149.43 C 157.20 149.70 156.63 150.71 156.90 151.68 C 157.17 152.65 158.17 153.22 159.14 152.95 Z M 160.00 152.73 L 161.15 152.48 C 162.14 152.27 162.78 151.29 162.57 150.29 C 162.35 149.30 161.37 148.66 160.38 148.88 L 159.23 149.12 C 158.24 149.34 157.60 150.32 157.82 151.31 C 158.03 152.31 159.01 152.94 160.00 152.73 Z M 160.78 152.56 L 161.73 152.55 C 162.77 152.54 163.60 151.69 163.59 150.65 C 163.58 149.61 162.74 148.78 161.70 148.79 L 160.75 148.80 C 159.71 148.81 158.88 149.66 158.89 150.70 C 158.90 151.73 159.74 152.57 160.78 152.56 Z M 160.73 152.31 L 161.38 152.70 C 162.29 153.25 163.47 152.96 164.01 152.05 C 164.56 151.14 164.26 149.97 163.36 149.42 L 162.70 149.03 C 161.80 148.48 160.62 148.78 160.07 149.68 C 159.53 150.59 159.82 151.77 160.73 152.31 Z M 160.55 151.77 L 160.88 152.63 C 161.28 153.63 162.41 154.13 163.41 153.73 C 164.42 153.34 164.91 152.21 164.52 151.20 L 164.19 150.35 C 163.80 149.35 162.66 148.85 161.66 149.24 C 160.65 149.64 160.16 150.77 160.55 151.77 Z M 160.73 152.14 L 160.86 153.26 C 160.98 154.35 161.97 155.13 163.06 155.00 C 164.15 154.88 164.93 153.89 164.81 152.80 L 164.68 151.69 C 164.55 150.59 163.56 149.81 162.47 149.94 C 161.38 150.07 160.60 151.05 160.73 152.14 Z M 160.82 153.14 L 160.88 154.16 C 160.94 155.27 161.89 156.12 163.00 156.06 C 164.11 155.99 164.96 155.04 164.90 153.93 L 164.84 152.91 C 164.78 151.80 163.83 150.95 162.72 151.02 C 161.61 151.08 160.76 152.03 160.82 153.14 Z M 160.87 154.12 L 160.90 155.12 C 160.94 156.24 161.88 157.11 163.00 157.07 C 164.11 157.03 164.99 156.10 164.95 154.98 L 164.91 153.97 C 164.87 152.86 163.93 151.98 162.82 152.02 C 161.70 152.07 160.83 153.00 160.87 154.12 Z M 160.90 155.10 L 160.92 156.08 C 160.94 157.20 161.87 158.09 162.99 158.07 C 164.11 158.04 165.00 157.11 164.98 155.99 L 164.95 155.01 C 164.93 153.89 164.00 153.00 162.88 153.02 C 161.76 153.05 160.87 153.97 160.90 155.10 Z M 160.91 156.06 L 160.92 157.04 C 160.93 158.16 161.85 159.06 162.98 159.05 C 164.10 159.04 165.00 158.12 164.99 157.00 L 164.98 156.02 C 164.97 154.89 164.05 153.99 162.92 154.00 C 161.80 154.01 160.90 154.93 160.91 156.06 Z M 160.92 157.02 L 160.92 158.02 C 160.93 159.14 161.84 160.05 162.97 160.05 C 164.09 160.04 165.00 159.13 165.00 158.00 L 164.99 157.01 C 164.99 155.89 164.07 154.98 162.95 154.98 C 161.82 154.98 160.92 155.90 160.92 157.02 Z M 160.92 158.01 L 160.92 159.00 C 160.92 160.13 161.83 161.04 162.96 161.04 C 164.09 161.04 165.00 160.12 165.00 159.00 L 165.00 158.01 C 165.00 156.88 164.08 155.97 162.96 155.97 C 161.83 155.97 160.92 156.88 160.92 158.01 Z M 160.92 159.00 L 160.92 159.94 C 160.92 161.07 161.83 161.98 162.96 161.98 C 164.09 161.98 165.00 161.07 165.00 159.94 L 165.00 159.00 C 165.00 157.87 164.09 156.96 162.96 156.96 C 161.83 156.96 160.92 157.87 160.92 159.00 Z M 160.92 159.94 L 160.92 160.95 C 160.92 162.08 161.83 162.99 162.96 162.99 C 164.09 162.99 165.00 162.08 165.00 160.95 L 165.00 159.94 C 165.00 158.81 164.09 157.90 162.96 157.90 C 161.83 157.90 160.92 158.81 160.92 159.94 Z M 160.92 160.95 L 160.92 162.04 C 160.92 163.16 161.83 164.08 162.96 164.08 C 164.09 164.08 165.00 163.16 165.00 162.04 L 165.00 160.95 C 165.00 159.82 164.09 158.91 162.96 158.91 C 161.83 158.91 160.92 159.82 160.92 160.95 Z M 160.92 162.04 L 160.92 163.07 C 160.92 164.19 161.83 165.11 162.96 165.11 C 164.09 165.11 165.00 164.19 165.00 163.07 L 165.00 162.04 C 165.00 160.91 164.09 159.99 162.96 159.99 C 161.83 159.99 160.92 160.91 160.92 162.04 Z M 160.92 163.07 L 160.92 164.11 C 160.92 165.23 161.83 166.15 162.96 166.15 C 164.09 166.15 165.00 165.23 165.00 164.11 L 165.00 163.07 C 165.00 161.94 164.09 161.03 162.96 161.03 C 161.83 161.03 160.92 161.94 160.92 163.07 Z M 160.92 164.11 L 160.92 165.10 C 160.92 166.22 161.83 167.14 162.96 167.14 C 164.09 167.14 165.00 166.22 165.00 165.10 L 165.00 164.11 C 165.00 162.98 164.09 162.06 162.96 162.06 C 161.83 162.06 160.92 162.98 160.92 164.11 Z M 160.92 165.10 L 160.92 166.10 C 160.92 167.23 161.83 168.14 162.96 168.14 C 164.09 168.14 165.00 167.23 165.00 166.10 L 165.00 165.10 C 165.00 163.97 164.09 163.06 162.96 163.06 C 161.83 163.06 160.92 163.97 160.92 165.10 Z M 160.92 166.10 L 160.92 167.16 C 160.92 168.28 161.83 169.19 162.96 169.19 C 164.09 169.19 165.00 168.28 165.00 167.16 L 165.00 166.10 C 165.00 164.97 164.09 164.06 162.96 164.06 C 161.83 164.06 160.92 164.97 160.92 166.10 Z M 160.92 167.16 L 160.92 168.07 C 160.92 169.20 161.83 170.11 162.96 170.11 C 164.08 170.11 165.00 169.20 165.00 168.07 L 165.00 167.16 C 165.00 166.03 164.08 165.12 162.96 165.12 C 161.83 165.12 160.92 166.03 160.92 167.16 Z M 160.92 168.07 L 160.92 169.04 C 160.92 170.16 161.83 171.07 162.96 171.07 C 164.08 171.07 164.99 170.16 164.99 169.04 L 164.99 168.07 C 164.99 166.95 164.08 166.04 162.96 166.04 C 161.83 166.04 160.92 166.95 160.92 168.07 Z M 160.93 169.04 L 160.93 170.04 C 160.93 171.16 161.84 172.07 162.96 172.07 C 164.08 172.07 164.99 171.16 164.99 170.04 L 164.99 169.04 C 164.99 167.92 164.08 167.01 162.96 167.01 C 161.84 167.01 160.93 167.92 160.93 169.04 Z M 160.93 170.04 L 160.93 171.04 C 160.93 172.16 161.84 173.07 162.96 173.07 C 164.08 173.07 164.99 172.16 164.99 171.04 L 164.99 170.04 C 164.99 168.92 164.08 168.01 162.96 168.01 C 161.84 168.01 160.93 168.92 160.93 170.04 Z M 160.93 171.04 L 160.93 172.04 C 160.93 173.16 161.84 174.07 162.96 174.07 C 164.08 174.07 164.98 173.16 164.98 172.04 L 164.98 171.04 C 164.98 169.92 164.08 169.01 162.96 169.01 C 161.84 169.01 160.93 169.92 160.93 171.04 Z M 160.94 172.04 L 160.94 173.04 C 160.94 174.15 161.84 175.06 162.96 175.06 C 164.08 175.06 164.98 174.15 164.98 173.04 L 164.98 172.04 C 164.98 170.93 164.08 170.02 162.96 170.02 C 161.84 170.02 160.94 170.93 160.94 172.04 Z M 160.94 173.04 L 160.94 174.03 C 160.94 175.15 161.85 176.05 162.96 176.05 C 164.07 176.05 164.97 175.15 164.97 174.03 L 164.97 173.04 C 164.97 171.92 164.07 171.02 162.96 171.02 C 161.85 171.02 160.94 171.92 160.94 173.04 Z M 160.95 174.03 L 160.95 175.04 C 160.95 176.15 161.85 177.05 162.96 177.05 C 164.07 177.05 164.97 176.15 164.97 175.04 L 164.97 174.03 C 164.97 172.92 164.07 172.03 162.96 172.03 C 161.85 172.03 160.95 172.92 160.95 174.03 Z M 160.96 175.03 L 160.96 175.99 C 160.96 177.09 161.85 177.99 162.95 177.99 C 164.06 177.99 164.95 177.10 164.96 176.00 L 164.96 175.04 C 164.96 173.94 164.07 173.04 162.96 173.04 C 161.86 173.04 160.96 173.93 160.96 175.03 Z M 160.97 175.96 L 160.96 176.98 C 160.94 178.07 161.82 178.97 162.91 178.99 C 164.01 179.01 164.91 178.13 164.93 177.03 L 164.94 176.02 C 164.96 174.93 164.08 174.03 162.99 174.01 C 161.89 173.99 160.99 174.87 160.97 175.96 Z M 160.97 176.94 L 160.94 177.93 C 160.90 179.02 161.75 179.93 162.84 179.97 C 163.92 180.01 164.84 179.16 164.88 178.07 L 164.91 177.07 C 164.95 175.99 164.10 175.08 163.01 175.04 C 161.92 175.00 161.01 175.85 160.97 176.94 Z M 160.96 177.90 L 160.91 178.89 C 160.85 179.97 161.68 180.89 162.76 180.94 C 163.84 180.99 164.76 180.16 164.81 179.09 L 164.86 178.10 C 164.91 177.02 164.08 176.10 163.00 176.05 C 161.93 176.00 161.01 176.83 160.96 177.90 Z M 160.92 178.89 L 160.87 179.92 C 160.81 180.99 161.64 181.90 162.70 181.96 C 163.77 182.01 164.69 181.19 164.74 180.12 L 164.79 179.09 C 164.85 178.02 164.03 177.11 162.96 177.05 C 161.89 177.00 160.98 177.82 160.92 178.89 Z M 160.89 179.93 L 160.85 180.94 C 160.80 181.99 161.61 182.89 162.67 182.94 C 163.73 182.99 164.62 182.17 164.67 181.11 L 164.72 180.11 C 164.77 179.05 163.95 178.16 162.89 178.11 C 161.84 178.06 160.94 178.88 160.89 179.93 Z M 160.88 180.95 L 160.84 181.95 C 160.80 182.99 161.61 183.86 162.64 183.90 C 163.68 183.94 164.55 183.14 164.60 182.10 L 164.64 181.10 C 164.68 180.06 163.87 179.19 162.83 179.15 C 161.80 179.11 160.92 179.92 160.88 180.95 Z M 160.88 181.96 L 160.85 182.96 C 160.81 183.98 161.60 184.83 162.62 184.87 C 163.63 184.90 164.48 184.11 164.52 183.10 L 164.56 182.09 C 164.59 181.08 163.80 180.22 162.79 180.19 C 161.77 180.15 160.92 180.94 160.88 181.96 Z M 160.87 182.96 L 160.86 183.24 C 160.82 184.24 161.61 185.08 162.61 185.12 C 163.61 185.15 164.45 184.37 164.49 183.37 L 164.50 183.09 C 164.53 182.09 163.75 181.25 162.75 181.22 C 161.75 181.18 160.91 181.96 160.87 182.96 Z"
      fill="black"
      fill-rule="nonzero" /><path d="M 145.65 164.37 L 144.34 164.69 C 143.30 164.94 142.67 165.98 142.92 167.02 C 143.17 168.06 144.21 168.69 145.25 168.44 L 146.56 168.13 C 147.59 167.88 148.23 166.83 147.98 165.80 C 147.73 164.76 146.69 164.12 145.65 164.37 Z M 144.30 164.62 L 143.88 164.72 C 142.80 164.99 142.15 166.08 142.42 167.16 C 142.69 168.24 143.78 168.89 144.86 168.62 L 145.28 168.52 C 146.36 168.25 147.01 167.15 146.74 166.08 C 146.47 165.00 145.38 164.35 144.30 164.62 Z M 144.85 168.66 L 145.68 168.46 C 146.78 168.20 147.46 167.10 147.19 166.00 C 146.93 164.90 145.83 164.22 144.73 164.48 L 143.89 164.68 C 142.79 164.94 142.11 166.05 142.38 167.15 C 142.64 168.25 143.75 168.93 144.85 168.66 Z M 145.72 168.45 L 146.96 168.13 C 148.05 167.84 148.71 166.73 148.43 165.64 C 148.14 164.54 147.03 163.89 145.93 164.17 L 144.69 164.49 C 143.60 164.78 142.94 165.89 143.23 166.99 C 143.51 168.08 144.62 168.73 145.72 168.45 Z M 147.00 168.10 L 147.95 167.83 C 149.03 167.53 149.66 166.41 149.35 165.33 C 149.05 164.25 147.93 163.62 146.85 163.93 L 145.90 164.20 C 144.82 164.50 144.19 165.62 144.50 166.70 C 144.80 167.78 145.92 168.41 147.00 168.10 Z M 147.97 167.81 L 148.93 167.52 C 149.99 167.21 150.60 166.10 150.29 165.03 C 149.97 163.97 148.86 163.36 147.79 163.67 L 146.83 163.96 C 145.77 164.27 145.16 165.38 145.47 166.45 C 145.79 167.51 146.90 168.12 147.97 167.81 Z M 148.92 167.50 L 149.84 167.23 C 150.89 166.92 151.49 165.82 151.18 164.76 C 150.87 163.71 149.77 163.11 148.72 163.42 L 147.80 163.69 C 146.75 164.01 146.15 165.11 146.46 166.16 C 146.77 167.21 147.87 167.81 148.92 167.50 Z M 149.84 167.21 L 150.74 166.94 C 151.78 166.63 152.37 165.54 152.07 164.50 C 151.76 163.46 150.67 162.87 149.63 163.18 L 148.72 163.45 C 147.68 163.75 147.09 164.84 147.40 165.88 C 147.71 166.92 148.80 167.51 149.84 167.21 Z M 150.75 166.91 L 151.73 166.61 C 152.76 166.30 153.33 165.22 153.02 164.20 C 152.71 163.17 151.63 162.60 150.61 162.91 L 149.62 163.21 C 148.60 163.52 148.02 164.60 148.33 165.62 C 148.64 166.64 149.73 167.22 150.75 166.91 Z M 151.74 166.58 L 152.76 166.26 C 153.76 165.95 154.32 164.87 154.00 163.87 C 153.69 162.86 152.61 162.30 151.61 162.62 L 150.59 162.94 C 149.59 163.25 149.03 164.33 149.35 165.33 C 149.66 166.34 150.74 166.90 151.74 166.58 Z M 152.76 166.23 L 153.70 165.93 C 154.69 165.61 155.23 164.54 154.91 163.55 C 154.58 162.56 153.52 162.02 152.53 162.35 L 151.60 162.65 C 150.61 162.97 150.07 164.04 150.39 165.02 C 150.71 166.01 151.78 166.55 152.76 166.23 Z M 153.70 165.90 L 154.66 165.58 C 155.64 165.25 156.16 164.21 155.84 163.23 C 155.52 162.26 154.47 161.73 153.50 162.06 L 152.53 162.38 C 151.56 162.70 151.03 163.75 151.35 164.72 C 151.68 165.69 152.73 166.22 153.70 165.90 Z M 154.66 165.55 L 155.63 165.23 C 156.58 164.91 157.10 163.87 156.78 162.92 C 156.46 161.96 155.43 161.45 154.48 161.76 L 153.51 162.09 C 152.55 162.40 152.03 163.44 152.35 164.39 C 152.67 165.35 153.70 165.87 154.66 165.55 Z M 155.61 165.20 L 156.60 164.87 C 157.54 164.56 158.05 163.55 157.74 162.61 C 157.43 161.67 156.42 161.16 155.48 161.47 L 154.49 161.79 C 153.55 162.10 153.04 163.12 153.35 164.06 C 153.66 165.00 154.67 165.51 155.61 165.20 Z M 156.58 164.84 L 157.61 164.50 C 158.53 164.21 159.04 163.22 158.74 162.30 C 158.44 161.37 157.46 160.87 156.53 161.17 L 155.50 161.50 C 154.58 161.80 154.07 162.79 154.37 163.71 C 154.67 164.63 155.66 165.13 156.58 164.84 Z M 157.57 164.47 L 158.53 164.18 C 159.43 163.90 159.93 162.94 159.66 162.04 C 159.38 161.14 158.42 160.63 157.52 160.91 L 156.57 161.20 C 155.67 161.48 155.16 162.43 155.44 163.34 C 155.72 164.24 156.67 164.74 157.57 164.47 Z M 158.47 164.14 L 159.34 163.90 C 160.22 163.65 160.74 162.74 160.49 161.85 C 160.24 160.97 159.32 160.45 158.44 160.70 L 157.57 160.94 C 156.69 161.19 156.17 162.11 156.42 162.99 C 156.67 163.88 157.59 164.39 158.47 164.14 Z M 159.26 163.88 L 160.29 163.64 C 161.16 163.44 161.71 162.56 161.50 161.69 C 161.29 160.81 160.42 160.27 159.54 160.47 L 158.51 160.72 C 157.64 160.92 157.10 161.80 157.30 162.67 C 157.51 163.55 158.38 164.09 159.26 163.88 Z M 160.21 163.63 L 161.16 163.45 C 162.02 163.29 162.59 162.45 162.43 161.59 C 162.27 160.72 161.44 160.15 160.57 160.31 L 159.62 160.49 C 158.76 160.65 158.19 161.49 158.35 162.35 C 158.51 163.22 159.34 163.79 160.21 163.63 Z M 161.12 163.43 L 161.61 163.35 C 162.47 163.21 163.04 162.40 162.90 161.54 C 162.76 160.68 161.95 160.11 161.09 160.25 L 160.61 160.33 C 159.75 160.47 159.17 161.28 159.31 162.14 C 159.46 163.00 160.27 163.57 161.12 163.43 Z"
      fill="black"
      fill-rule="nonzero" /><path d="M 144.06 186.46 L 144.89 185.99 C 145.85 185.44 146.19 184.22 145.64 183.25 C 145.09 182.29 143.87 181.95 142.90 182.50 L 142.07 182.97 C 141.11 183.52 140.77 184.75 141.32 185.71 C 141.87 186.67 143.09 187.01 144.06 186.46 Z M 144.89 186.03 L 145.75 185.55 C 146.73 185.00 147.08 183.76 146.53 182.77 C 145.98 181.79 144.74 181.43 143.75 181.98 L 142.90 182.46 C 141.91 183.01 141.56 184.26 142.11 185.24 C 142.66 186.23 143.91 186.58 144.89 186.03 Z M 145.74 185.59 L 146.64 185.10 C 147.65 184.56 148.03 183.30 147.48 182.29 C 146.94 181.28 145.67 180.90 144.67 181.45 L 143.76 181.94 C 142.75 182.49 142.38 183.75 142.92 184.76 C 143.47 185.77 144.73 186.14 145.74 185.59 Z M 146.62 185.14 L 147.53 184.67 C 148.56 184.13 148.96 182.87 148.43 181.84 C 147.89 180.81 146.62 180.40 145.59 180.94 L 144.69 181.41 C 143.66 181.95 143.25 183.22 143.79 184.25 C 144.33 185.28 145.59 185.68 146.62 185.14 Z M 147.51 184.69 L 148.41 184.24 C 149.45 183.71 149.87 182.45 149.35 181.40 C 148.83 180.36 147.56 179.94 146.52 180.47 L 145.62 180.92 C 144.58 181.44 144.16 182.71 144.68 183.75 C 145.20 184.79 146.47 185.21 147.51 184.69 Z M 148.39 184.24 L 149.31 183.79 C 150.36 183.28 150.79 182.02 150.28 180.97 C 149.76 179.93 148.50 179.50 147.46 180.01 L 146.54 180.46 C 145.49 180.97 145.06 182.23 145.57 183.28 C 146.09 184.32 147.35 184.76 148.39 184.24 Z M 149.30 183.80 L 150.20 183.37 C 151.24 182.86 151.68 181.60 151.18 180.55 C 150.67 179.51 149.41 179.07 148.36 179.57 L 147.47 180.00 C 146.42 180.51 145.98 181.77 146.49 182.82 C 146.99 183.87 148.25 184.30 149.30 183.80 Z M 150.19 183.37 L 151.08 182.94 C 152.13 182.44 152.58 181.18 152.08 180.13 C 151.58 179.09 150.32 178.64 149.27 179.14 L 148.37 179.57 C 147.33 180.07 146.88 181.33 147.38 182.37 C 147.88 183.42 149.14 183.87 150.19 183.37 Z M 151.07 182.94 L 151.95 182.52 C 153.00 182.03 153.45 180.78 152.96 179.74 C 152.47 178.69 151.22 178.24 150.18 178.73 L 149.29 179.14 C 148.24 179.63 147.79 180.88 148.28 181.93 C 148.77 182.98 150.02 183.43 151.07 182.94 Z M 151.92 182.53 L 152.81 182.12 C 153.86 181.65 154.33 180.42 153.86 179.37 C 153.39 178.32 152.15 177.85 151.10 178.32 L 150.21 178.72 C 149.16 179.20 148.69 180.43 149.16 181.48 C 149.64 182.53 150.87 183.00 151.92 182.53 Z M 152.77 182.13 L 153.72 181.73 C 154.77 181.28 155.26 180.06 154.81 179.00 C 154.36 177.95 153.14 177.46 152.09 177.91 L 151.14 178.32 C 150.09 178.76 149.60 179.98 150.05 181.04 C 150.50 182.09 151.72 182.58 152.77 182.13 Z M 153.68 181.73 L 154.55 181.38 C 155.61 180.95 156.12 179.75 155.69 178.69 C 155.26 177.64 154.06 177.13 153.00 177.55 L 152.13 177.91 C 151.07 178.34 150.56 179.54 150.99 180.59 C 151.42 181.65 152.62 182.16 153.68 181.73 Z M 154.51 181.37 L 155.44 181.02 C 156.50 180.61 157.02 179.43 156.62 178.37 C 156.21 177.32 155.03 176.79 153.98 177.20 L 153.04 177.56 C 151.99 177.96 151.46 179.15 151.87 180.20 C 152.28 181.25 153.46 181.78 154.51 181.37 Z M 155.40 181.01 L 156.37 180.66 C 157.42 180.28 157.96 179.12 157.58 178.07 C 157.20 177.01 156.03 176.47 154.98 176.85 L 154.02 177.20 C 152.97 177.58 152.42 178.75 152.80 179.80 C 153.19 180.85 154.35 181.39 155.40 181.01 Z M 156.32 180.66 L 157.30 180.33 C 158.35 179.97 158.91 178.83 158.55 177.78 C 158.20 176.73 157.05 176.17 156.00 176.52 L 155.03 176.85 C 153.98 177.21 153.41 178.35 153.77 179.40 C 154.13 180.45 155.27 181.02 156.32 180.66 Z M 157.24 180.31 L 158.26 179.99 C 159.31 179.67 159.89 178.56 159.56 177.52 C 159.24 176.47 158.13 175.89 157.09 176.22 L 156.06 176.54 C 155.02 176.86 154.44 177.97 154.76 179.01 C 155.09 180.06 156.20 180.64 157.24 180.31 Z M 158.20 179.96 L 159.21 179.68 C 160.23 179.39 160.83 178.33 160.54 177.30 C 160.25 176.28 159.19 175.68 158.16 175.96 L 157.15 176.25 C 156.13 176.54 155.53 177.60 155.82 178.63 C 156.11 179.65 157.17 180.25 158.20 179.96 Z M 159.14 179.64 L 160.10 179.41 C 161.10 179.16 161.72 178.14 161.47 177.13 C 161.22 176.13 160.20 175.51 159.19 175.76 L 158.23 176.00 C 157.23 176.25 156.61 177.27 156.86 178.27 C 157.11 179.28 158.13 179.89 159.14 179.64 Z M 160.02 179.37 L 160.91 179.18 C 161.90 178.98 162.53 178.01 162.32 177.02 C 162.12 176.04 161.15 175.40 160.16 175.61 L 159.27 175.80 C 158.28 176.01 157.65 176.97 157.86 177.96 C 158.07 178.95 159.03 179.58 160.02 179.37 Z M 160.82 179.14 L 161.87 178.97 C 162.83 178.82 163.48 177.91 163.33 176.95 C 163.18 175.99 162.27 175.33 161.31 175.49 L 160.26 175.66 C 159.30 175.81 158.64 176.71 158.80 177.68 C 158.95 178.64 159.86 179.29 160.82 179.14 Z M 161.77 178.91 L 162.75 178.80 C 163.68 178.70 164.35 177.87 164.25 176.94 C 164.15 176.02 163.32 175.34 162.39 175.44 L 161.41 175.55 C 160.48 175.65 159.81 176.48 159.91 177.41 C 160.01 178.34 160.84 179.01 161.77 178.91 Z M 162.69 178.73 L 163.62 178.66 C 164.51 178.60 165.17 177.82 165.11 176.93 C 165.04 176.05 164.27 175.38 163.38 175.44 L 162.45 175.51 C 161.56 175.58 160.90 176.35 160.96 177.24 C 161.03 178.13 161.80 178.80 162.69 178.73 Z"
      fill="black"
      fill-rule="nonzero" /></svg>