<svg xmlns="http://www.w3.org/2000/svg" width="300" height="300" viewBox="0 0 300 300">
<path d="M 132.43 125.50 L 132.36 126.47 C 132.30 127.48 133.07 128.35 134.08 128.41 C 135.09 128.47 135.96 127.70 136.02 126.69 L 136.08 125.72 C 136.14 124.71 135.37 123.84 134.37 123.78 C 133.36 123.72 132.49 124.49 132.43 125.50 Z M 132.35 126.42 L 132.27 127.41 C 132.18 128.42 132.93 129.32 133.95 129.41 C 134.97 129.49 135.86 128.74 135.95 127.72 L 136.03 126.74 C 136.12 125.72 135.37 124.83 134.35 124.74 C 133.33 124.65 132.44 125.41 132.35 126.42 Z M 132.26 127.32 L 132.12 128.33 C 131.99 129.35 132.71 130.29 133.73 130.42 C 134.75 130.56 135.69 129.84 135.83 128.81 L 135.96 127.81 C 136.09 126.79 135.37 125.85 134.35 125.71 C 133.33 125.58 132.39 126.30 132.26 127.32 Z M 132.13 128.21 L 131.93 129.22 C 131.73 130.24 132.40 131.23 133.42 131.43 C 134.44 131.62 135.42 130.96 135.62 129.94 L 135.82 128.93 C 136.02 127.91 135.35 126.92 134.34 126.73 C 133.32 126.53 132.33 127.19 132.13 128.21 Z M 131.95 129.12 L 131.70 130.12 C 131.44 131.13 132.05 132.15 133.06 132.41 C 134.07 132.66 135.10 132.05 135.35 131.04 L 135.60 130.04 C 135.86 129.03 135.25 128.01 134.24 127.75 C 133.23 127.50 132.21 128.11 131.95 129.12 Z M 131.72 130.05 L 131.43 131.03 C 131.14 132.03 131.72 133.08 132.72 133.37 C 133.72 133.66 134.76 133.08 135.05 132.08 L 135.33 131.10 C 135.62 130.10 135.05 129.06 134.05 128.77 C 133.05 128.48 132.01 129.06 131.72 130.05 Z M 131.44 131.00 L 131.16 131.92 C 130.85 132.92 131.41 133.97 132.40 134.28 C 133.40 134.58 134.45 134.03 134.76 133.03 L 135.04 132.11 C 135.35 131.12 134.79 130.06 133.80 129.76 C 132.80 129.45 131.75 130.01 131.44 131.00 Z M 131.16 131.92 L 130.84 132.93 C 130.53 133.92 131.09 134.98 132.08 135.29 C 133.08 135.60 134.13 135.04 134.44 134.05 L 134.76 133.04 C 135.07 132.04 134.51 130.99 133.52 130.68 C 132.52 130.37 131.47 130.92 131.16 131.92 Z M 130.84 132.93 L 130.55 133.88 C 130.24 134.87 130.80 135.93 131.79 136.23 C 132.79 136.54 133.84 135.99 134.15 134.99 L 134.44 134.05 C 134.75 133.05 134.19 131.99 133.20 131.69 C 132.21 131.38 131.15 131.94 130.84 132.93 Z M 130.55 133.87 L 130.27 134.77 C 129.96 135.76 130.52 136.82 131.51 137.13 C 132.51 137.44 133.56 136.88 133.87 135.89 L 134.15 134.99 C 134.46 134.00 133.91 132.94 132.91 132.63 C 131.92 132.32 130.86 132.88 130.55 133.87 Z M 130.27 134.76 L 129.98 135.69 C 129.66 136.69 130.21 137.75 131.20 138.06 C 132.20 138.38 133.26 137.83 133.57 136.84 L 133.87 135.90 C 134.19 134.91 133.64 133.85 132.64 133.53 C 131.65 133.21 130.59 133.76 130.27 134.76 Z M 129.98 135.68 L 129.67 136.63 C 129.34 137.62 129.89 138.69 130.88 139.01 C 131.87 139.34 132.94 138.80 133.26 137.80 L 133.57 136.85 C 133.89 135.86 133.35 134.79 132.36 134.47 C 131.37 134.14 130.30 134.69 129.98 135.68 Z M 129.67 136.61 L 129.35 137.57 C 129.02 138.56 129.55 139.63 130.54 139.96 C 131.53 140.30 132.60 139.77 132.93 138.78 L 133.26 137.82 C 133.59 136.83 133.06 135.76 132.07 135.43 C 131.08 135.09 130.01 135.62 129.67 136.61 Z M 129.36 137.55 L 129.03 138.48 C 128.69 139.47 129.21 140.55 130.19 140.89 C 131.18 141.24 132.26 140.71 132.60 139.73 L 132.93 138.80 C 133.27 137.81 132.75 136.73 131.77 136.39 C 130.78 136.04 129.70 136.56 129.36 137.55 Z M 129.04 138.46 L 128.70 139.40 C 128.34 140.39 128.85 141.47 129.83 141.83 C 130.82 142.18 131.90 141.67 132.26 140.69 L 132.60 139.75 C 132.95 138.76 132.44 137.68 131.46 137.32 C 130.48 136.97 129.39 137.48 129.04 138.46 Z M 128.70 139.38 L 128.36 140.30 C 127.99 141.28 128.49 142.38 129.47 142.74 C 130.45 143.11 131.54 142.61 131.91 141.63 L 132.25 140.71 C 132.62 139.73 132.12 138.64 131.14 138.27 C 130.16 137.90 129.07 138.40 128.70 139.38 Z M 128.36 140.28 L 128.03 141.15 C 127.65 142.13 128.13 143.23 129.11 143.61 C 130.09 143.98 131.19 143.50 131.57 142.52 L 131.90 141.65 C 132.28 140.67 131.79 139.58 130.82 139.20 C 129.84 138.82 128.74 139.31 128.36 140.28 Z M 128.03 141.13 L 127.66 142.06 C 127.27 143.04 127.74 144.14 128.72 144.53 C 129.69 144.92 130.80 144.45 131.19 143.47 L 131.56 142.54 C 131.95 141.57 131.47 140.46 130.50 140.07 C 129.53 139.68 128.42 140.16 128.03 141.13 Z M 127.67 142.04 L 127.25 143.05 C 126.85 144.02 127.31 145.14 128.28 145.54 C 129.25 145.94 130.36 145.47 130.77 144.50 L 131.18 143.49 C 131.58 142.52 131.12 141.41 130.15 141.01 C 129.18 140.61 128.07 141.07 127.67 142.04 Z M 127.25 143.04 L 126.88 143.93 C 126.47 144.89 126.92 146.01 127.89 146.42 C 128.86 146.83 129.98 146.37 130.39 145.41 L 130.76 144.52 C 131.17 143.55 130.72 142.43 129.75 142.02 C 128.78 141.62 127.66 142.07 127.25 143.04 Z M 126.88 143.92 L 126.48 144.85 C 126.07 145.81 126.52 146.93 127.48 147.35 C 128.45 147.76 129.57 147.31 129.99 146.35 L 130.38 145.42 C 130.80 144.45 130.35 143.33 129.38 142.91 C 128.42 142.50 127.30 142.95 126.88 143.92 Z M 126.48 144.84 L 126.08 145.78 C 125.66 146.75 126.10 147.87 127.07 148.29 C 128.03 148.71 129.16 148.26 129.58 147.30 L 129.98 146.35 C 130.40 145.39 129.96 144.26 128.99 143.85 C 128.03 143.43 126.90 143.87 126.48 144.84 Z M 126.08 145.77 L 125.68 146.69 C 125.25 147.66 125.70 148.79 126.66 149.21 C 127.63 149.63 128.75 149.19 129.17 148.22 L 129.58 147.30 C 130.00 146.34 129.56 145.21 128.59 144.79 C 127.62 144.37 126.50 144.81 126.08 145.77 Z M 125.67 146.69 L 125.14 147.92 C 124.72 148.89 125.16 150.01 126.13 150.44 C 127.09 150.86 128.22 150.42 128.64 149.45 L 129.17 148.22 C 129.60 147.25 129.15 146.13 128.19 145.71 C 127.22 145.29 126.10 145.73 125.67 146.69 Z M 125.12 147.97 L 124.73 148.92 C 124.33 149.90 124.80 151.01 125.78 151.41 C 126.76 151.81 127.87 151.34 128.27 150.36 L 128.66 149.40 C 129.05 148.43 128.58 147.32 127.61 146.92 C 126.63 146.52 125.52 146.99 125.12 147.97 Z M 124.63 149.25 L 124.53 149.74 C 124.32 150.77 124.98 151.78 126.01 151.99 C 127.04 152.21 128.05 151.55 128.26 150.52 L 128.37 150.03 C 128.58 149.00 127.92 147.99 126.89 147.78 C 125.86 147.56 124.85 148.22 124.63 149.25 Z M 127.63 151.58 L 128.22 151.08 C 129.03 150.40 129.13 149.20 128.45 148.40 C 127.77 147.59 126.57 147.49 125.77 148.17 L 125.17 148.68 C 124.37 149.35 124.27 150.55 124.94 151.36 C 125.62 152.16 126.82 152.26 127.63 151.58 Z M 128.37 150.93 L 129.17 150.09 C 129.89 149.33 129.86 148.13 129.10 147.41 C 128.34 146.69 127.14 146.72 126.42 147.48 L 125.62 148.32 C 124.90 149.08 124.93 150.28 125.69 151.00 C 126.45 151.72 127.65 151.69 128.37 150.93 Z M 129.11 150.15 L 129.81 149.47 C 130.57 148.75 130.60 147.55 129.87 146.79 C 129.15 146.04 127.95 146.01 127.19 146.74 L 126.48 147.42 C 125.73 148.14 125.70 149.34 126.43 150.10 C 127.15 150.85 128.35 150.88 129.11 150.15 Z M 129.74 149.54 L 130.53 148.86 C 131.32 148.17 131.41 146.98 130.73 146.18 C 130.05 145.39 128.85 145.30 128.06 145.99 L 127.26 146.67 C 126.47 147.35 126.38 148.55 127.07 149.34 C 127.75 150.13 128.95 150.22 129.74 149.54 Z M 130.44 148.93 L 131.27 148.30 C 132.10 147.66 132.26 146.47 131.63 145.64 C 130.99 144.81 129.80 144.65 128.97 145.28 L 128.14 145.91 C 127.31 146.55 127.15 147.74 127.79 148.57 C 128.42 149.40 129.61 149.56 130.44 148.93 Z M 131.16 148.38 L 132.02 147.82 C 132.89 147.25 133.14 146.07 132.57 145.20 C 132.00 144.32 130.82 144.07 129.95 144.64 L 129.09 145.20 C 128.21 145.77 127.96 146.94 128.53 147.82 C 129.10 148.70 130.28 148.95 131.16 148.38 Z M 131.83 147.93 L 132.69 147.50 C 133.63 147.03 134.01 145.89 133.53 144.95 C 133.06 144.01 131.92 143.63 130.98 144.10 L 130.13 144.53 C 129.19 145.00 128.81 146.15 129.28 147.08 C 129.75 148.02 130.90 148.40 131.83 147.93 Z M 132.28 147.66 L 133.35 147.40 C 134.37 147.15 135.00 146.12 134.75 145.09 C 134.50 144.07 133.47 143.44 132.45 143.69 L 131.38 143.95 C 130.36 144.20 129.73 145.23 129.98 146.25 C 130.23 147.28 131.26 147.91 132.28 147.66 Z M 132.28 147.36 L 133.10 147.64 C 134.11 147.98 135.20 147.45 135.54 146.45 C 135.88 145.44 135.35 144.35 134.34 144.01 L 133.52 143.73 C 132.51 143.39 131.42 143.92 131.08 144.92 C 130.74 145.93 131.27 147.02 132.28 147.36 Z M 132.01 146.71 L 132.39 147.43 C 132.87 148.38 134.03 148.75 134.98 148.27 C 135.92 147.78 136.30 146.62 135.81 145.67 L 135.44 144.95 C 134.95 144.00 133.79 143.63 132.84 144.11 C 131.90 144.60 131.53 145.76 132.01 146.71 Z M 132.18 146.78 L 132.30 147.79 C 132.43 148.85 133.39 149.61 134.45 149.48 C 135.51 149.35 136.27 148.39 136.14 147.33 L 136.02 146.32 C 135.89 145.26 134.93 144.51 133.87 144.64 C 132.81 144.76 132.05 145.73 132.18 146.78 Z M 132.28 147.46 L 132.23 148.59 C 132.17 149.66 133.00 150.57 134.07 150.62 C 135.14 150.68 136.05 149.85 136.10 148.78 L 136.16 147.66 C 136.21 146.59 135.39 145.68 134.32 145.62 C 133.25 145.57 132.34 146.39 132.28 147.46 Z M 132.24 148.38 L 132.09 149.34 C 131.92 150.40 132.64 151.40 133.70 151.57 C 134.76 151.74 135.76 151.02 135.93 149.96 L 136.08 149.00 C 136.25 147.94 135.53 146.94 134.47 146.77 C 133.41 146.60 132.42 147.32 132.24 148.38 Z M 132.12 149.16 L 131.87 150.12 C 131.61 151.16 132.23 152.23 133.27 152.50 C 134.31 152.76 135.38 152.14 135.65 151.10 L 135.89 150.14 C 136.16 149.10 135.54 148.03 134.50 147.76 C 133.45 147.50 132.39 148.12 132.12 149.16 Z M 131.92 149.96 L 131.58 150.93 C 131.22 151.95 131.76 153.06 132.78 153.42 C 133.79 153.77 134.91 153.24 135.26 152.22 L 135.60 151.25 C 135.96 150.24 135.42 149.12 134.41 148.77 C 133.39 148.41 132.28 148.95 131.92 149.96 Z M 131.63 150.80 L 131.25 151.69 C 130.82 152.68 131.28 153.83 132.27 154.26 C 133.26 154.68 134.41 154.22 134.84 153.23 L 135.22 152.35 C 135.64 151.36 135.19 150.21 134.19 149.78 C 133.20 149.36 132.05 149.81 131.63 150.80 Z M 131.29 151.60 L 130.85 152.47 C 130.38 153.44 130.78 154.61 131.75 155.09 C 132.71 155.57 133.89 155.17 134.36 154.20 L 134.80 153.32 C 135.27 152.36 134.87 151.18 133.90 150.71 C 132.94 150.23 131.76 150.63 131.29 151.60 Z M 130.89 152.41 L 130.40 153.30 C 129.89 154.26 130.25 155.44 131.20 155.96 C 132.15 156.47 133.34 156.11 133.85 155.16 L 134.33 154.26 C 134.85 153.31 134.49 152.12 133.54 151.61 C 132.59 151.10 131.40 151.45 130.89 152.41 Z M 130.42 153.26 L 129.90 154.18 C 129.37 155.12 129.69 156.32 130.63 156.85 C 131.57 157.39 132.77 157.06 133.31 156.12 L 133.83 155.20 C 134.37 154.26 134.04 153.06 133.10 152.53 C 132.16 151.99 130.96 152.32 130.42 153.26 Z M 129.91 154.15 L 129.38 155.06 C 128.83 155.99 129.14 157.20 130.08 157.75 C 131.01 158.30 132.21 157.99 132.76 157.05 L 133.30 156.15 C 133.85 155.21 133.54 154.01 132.60 153.46 C 131.67 152.91 130.46 153.22 129.91 154.15 Z M 129.38 155.04 L 128.85 155.94 C 128.29 156.87 128.59 158.08 129.52 158.64 C 130.46 159.20 131.67 158.90 132.23 157.96 L 132.76 157.07 C 133.32 156.13 133.02 154.92 132.08 154.37 C 131.15 153.81 129.94 154.11 129.38 155.04 Z M 128.84 155.93 L 128.33 156.78 C 127.77 157.71 128.07 158.93 129.00 159.49 C 129.94 160.05 131.15 159.75 131.72 158.82 L 132.23 157.97 C 132.79 157.04 132.49 155.82 131.56 155.26 C 130.62 154.69 129.41 154.99 128.84 155.93 Z M 128.33 156.78 L 127.84 157.58 C 127.27 158.52 127.58 159.74 128.51 160.30 C 129.45 160.87 130.67 160.57 131.24 159.63 L 131.72 158.82 C 132.29 157.88 131.98 156.67 131.05 156.10 C 130.11 155.54 128.89 155.84 128.33 156.78 Z M 127.83 157.59 L 127.27 158.53 C 126.71 159.47 127.02 160.69 127.97 161.25 C 128.91 161.81 130.13 161.50 130.69 160.56 L 131.25 159.62 C 131.81 158.68 131.50 157.46 130.55 156.90 C 129.61 156.33 128.39 156.65 127.83 157.59 Z M 127.26 158.53 L 126.79 159.34 C 126.23 160.29 126.55 161.51 127.50 162.07 C 128.44 162.63 129.67 162.31 130.22 161.36 L 130.70 160.55 C 131.26 159.60 130.94 158.38 129.99 157.82 C 129.04 157.26 127.82 157.58 127.26 158.53 Z M 126.78 159.33 L 126.30 160.14 C 125.74 161.10 126.06 162.32 127.01 162.88 C 127.96 163.45 129.18 163.13 129.75 162.18 L 130.23 161.37 C 130.79 160.42 130.47 159.19 129.52 158.63 C 128.57 158.07 127.35 158.38 126.78 159.33 Z M 126.30 160.13 L 125.78 161.00 C 125.22 161.95 125.53 163.19 126.48 163.75 C 127.43 164.32 128.66 164.01 129.23 163.06 L 129.75 162.19 C 130.32 161.24 130.00 160.01 129.05 159.44 C 128.10 158.87 126.87 159.18 126.30 160.13 Z M 125.77 161.01 L 125.27 161.86 C 124.70 162.81 125.02 164.05 125.98 164.62 C 126.93 165.18 128.17 164.87 128.74 163.91 L 129.24 163.06 C 129.81 162.10 129.49 160.86 128.53 160.30 C 127.57 159.73 126.34 160.05 125.77 161.01 Z M 125.25 161.87 L 124.79 162.68 C 124.23 163.64 124.56 164.88 125.52 165.44 C 126.49 166.00 127.73 165.67 128.29 164.70 L 128.75 163.89 C 129.31 162.93 128.98 161.69 128.01 161.13 C 127.05 160.57 125.81 160.90 125.25 161.87 Z M 124.78 162.68 L 124.28 163.54 C 123.72 164.51 124.06 165.75 125.03 166.31 C 126.00 166.87 127.24 166.54 127.79 165.57 L 128.29 164.70 C 128.85 163.73 128.52 162.49 127.55 161.93 C 126.58 161.37 125.34 161.71 124.78 162.68 Z M 124.28 163.53 L 123.77 164.40 C 123.21 165.37 123.54 166.61 124.51 167.18 C 125.47 167.74 126.72 167.42 127.29 166.45 L 127.79 165.58 C 128.36 164.61 128.03 163.37 127.06 162.80 C 126.09 162.23 124.85 162.56 124.28 163.53 Z M 123.78 164.38 L 123.29 165.20 C 122.72 166.17 123.03 167.42 124.00 167.99 C 124.97 168.57 126.22 168.25 126.80 167.28 L 127.28 166.47 C 127.86 165.50 127.54 164.25 126.57 163.67 C 125.61 163.09 124.35 163.41 123.78 164.38 Z M 123.30 165.18 L 122.76 166.06 C 122.17 167.02 122.48 168.28 123.45 168.87 C 124.41 169.46 125.67 169.15 126.26 168.18 L 126.79 167.30 C 127.38 166.34 127.07 165.08 126.11 164.49 C 125.14 163.91 123.88 164.21 123.30 165.18 Z M 122.77 166.04 L 122.20 166.95 C 121.60 167.91 121.89 169.17 122.85 169.77 C 123.82 170.37 125.08 170.08 125.68 169.12 L 126.25 168.21 C 126.85 167.25 126.55 165.98 125.59 165.38 C 124.63 164.78 123.37 165.08 122.77 166.04 Z M 122.21 166.92 L 121.49 168.04 C 120.88 168.99 121.16 170.26 122.11 170.88 C 123.06 171.49 124.34 171.21 124.95 170.26 L 125.67 169.14 C 126.28 168.19 126.01 166.92 125.05 166.31 C 124.10 165.69 122.83 165.97 122.21 166.92 Z M 121.50 168.02 L 120.91 168.93 C 120.29 169.88 120.56 171.15 121.51 171.77 C 122.46 172.40 123.73 172.13 124.35 171.18 L 124.94 170.27 C 125.57 169.32 125.30 168.05 124.35 167.43 C 123.40 166.80 122.12 167.07 121.50 168.02 Z M 120.89 168.96 L 120.62 169.40 C 120.01 170.36 120.31 171.63 121.27 172.23 C 122.24 172.83 123.51 172.54 124.11 171.57 L 124.38 171.14 C 124.98 170.18 124.68 168.91 123.72 168.31 C 122.75 167.71 121.49 168.00 120.89 168.96 Z M 123.95 171.77 L 124.37 171.25 C 125.08 170.38 124.95 169.09 124.07 168.38 C 123.19 167.67 121.91 167.80 121.20 168.68 L 120.77 169.20 C 120.06 170.08 120.20 171.36 121.07 172.07 C 121.95 172.78 123.24 172.65 123.95 171.77 Z M 124.36 171.23 L 125.16 170.23 C 125.85 169.36 125.71 168.09 124.84 167.39 C 123.97 166.70 122.70 166.84 122.01 167.71 L 121.21 168.71 C 120.51 169.58 120.65 170.84 121.52 171.54 C 122.39 172.24 123.66 172.10 124.36 171.23 Z M 125.09 170.27 L 125.75 169.50 C 126.46 168.67 126.37 167.41 125.54 166.70 C 124.71 165.98 123.46 166.07 122.74 166.90 L 122.08 167.67 C 121.36 168.50 121.45 169.75 122.28 170.47 C 123.11 171.19 124.37 171.10 125.09 170.27 Z M 125.69 169.52 L 126.35 168.80 C 127.08 168.00 127.03 166.76 126.23 166.03 C 125.43 165.30 124.20 165.36 123.47 166.15 L 122.80 166.88 C 122.07 167.68 122.12 168.92 122.92 169.65 C 123.72 170.38 124.96 170.32 125.69 169.52 Z M 126.30 168.81 L 127.00 168.08 C 127.73 167.31 127.71 166.09 126.94 165.36 C 126.17 164.62 124.96 164.65 124.22 165.41 L 123.52 166.14 C 122.78 166.91 122.81 168.13 123.58 168.86 C 124.34 169.60 125.56 169.57 126.30 168.81 Z M 126.94 168.09 L 127.65 167.38 C 128.39 166.65 128.39 165.45 127.65 164.71 C 126.92 163.97 125.72 163.97 124.98 164.70 L 124.27 165.41 C 123.53 166.14 123.53 167.34 124.27 168.08 C 125.01 168.82 126.20 168.82 126.94 168.09 Z M 127.59 167.39 L 128.31 166.71 C 129.05 166.01 129.08 164.83 128.38 164.09 C 127.67 163.34 126.50 163.31 125.75 164.02 L 125.04 164.69 C 124.29 165.40 124.26 166.58 124.97 167.32 C 125.67 168.07 126.85 168.10 127.59 167.39 Z M 128.26 166.73 L 129.00 166.07 C 129.75 165.39 129.81 164.22 129.13 163.47 C 128.45 162.71 127.29 162.65 126.53 163.33 L 125.80 164.00 C 125.04 164.68 124.98 165.84 125.66 166.60 C 126.34 167.35 127.51 167.41 128.26 166.73 Z M 128.96 166.09 L 129.73 165.42 C 130.49 164.76 130.58 163.61 129.91 162.84 C 129.25 162.08 128.10 162.00 127.33 162.66 L 126.57 163.32 C 125.80 163.98 125.72 165.13 126.38 165.90 C 127.04 166.66 128.20 166.75 128.96 166.09 Z M 129.71 165.45 L 130.46 164.82 C 131.24 164.17 131.34 163.01 130.69 162.23 C 130.04 161.46 128.88 161.35 128.10 162.00 L 127.35 162.63 C 126.58 163.28 126.47 164.44 127.12 165.22 C 127.77 165.99 128.93 166.10 129.71 165.45 Z M 130.46 164.84 L 131.24 164.19 C 132.03 163.54 132.14 162.37 131.49 161.58 C 130.83 160.80 129.66 160.69 128.87 161.34 L 128.10 161.98 C 127.31 162.64 127.20 163.81 127.85 164.59 C 128.51 165.38 129.68 165.49 130.46 164.84 Z M 131.26 164.20 L 131.97 163.61 C 132.76 162.94 132.87 161.76 132.21 160.97 C 131.55 160.18 130.37 160.07 129.57 160.73 L 128.86 161.33 C 128.07 161.99 127.96 163.17 128.62 163.97 C 129.29 164.76 130.46 164.86 131.26 164.20 Z M 131.99 163.61 L 132.66 163.03 C 133.46 162.36 133.56 161.18 132.88 160.38 C 132.21 159.59 131.03 159.49 130.23 160.16 L 129.56 160.73 C 128.76 161.41 128.67 162.59 129.34 163.38 C 130.01 164.18 131.19 164.28 131.99 163.61 Z M 132.67 163.03 L 133.47 162.36 C 134.26 161.68 134.36 160.49 133.68 159.70 C 133.00 158.91 131.81 158.81 131.02 159.49 L 130.23 160.16 C 129.43 160.84 129.34 162.03 130.01 162.82 C 130.69 163.61 131.88 163.71 132.67 163.03 Z M 133.47 162.37 L 134.33 161.64 C 135.12 160.96 135.22 159.76 134.54 158.97 C 133.86 158.17 132.66 158.07 131.87 158.75 L 131.01 159.48 C 130.21 160.16 130.12 161.35 130.80 162.15 C 131.48 162.95 132.67 163.05 133.47 162.37 Z M 134.33 161.65 L 135.08 161.02 C 135.89 160.33 135.99 159.13 135.31 158.32 C 134.62 157.52 133.42 157.42 132.61 158.10 L 131.86 158.74 C 131.05 159.42 130.95 160.63 131.64 161.43 C 132.32 162.24 133.53 162.34 134.33 161.65 Z M 135.09 161.03 L 135.89 160.36 C 136.71 159.67 136.81 158.46 136.12 157.64 C 135.44 156.83 134.22 156.72 133.40 157.41 L 132.60 158.08 C 131.79 158.77 131.68 159.99 132.37 160.80 C 133.06 161.62 134.28 161.72 135.09 161.03 Z M 135.89 160.38 L 136.70 159.71 C 137.52 159.03 137.64 157.80 136.95 156.97 C 136.26 156.14 135.03 156.03 134.20 156.72 L 133.40 157.39 C 132.57 158.07 132.46 159.30 133.15 160.13 C 133.84 160.96 135.07 161.07 135.89 160.38 Z M 136.69 159.74 L 137.46 159.12 C 138.30 158.43 138.42 157.19 137.74 156.35 C 137.05 155.51 135.81 155.38 134.97 156.07 L 134.21 156.69 C 133.37 157.38 133.24 158.62 133.93 159.46 C 134.61 160.30 135.85 160.43 136.69 159.74 Z M 137.43 159.15 L 138.33 158.45 C 139.19 157.78 139.34 156.54 138.67 155.67 C 137.99 154.81 136.75 154.66 135.89 155.33 L 134.99 156.04 C 134.13 156.71 133.98 157.95 134.65 158.81 C 135.33 159.68 136.57 159.83 137.43 159.15 Z M 138.26 158.51 L 139.11 157.90 C 140.00 157.27 140.21 156.03 139.57 155.13 C 138.93 154.24 137.69 154.04 136.80 154.68 L 135.95 155.28 C 135.06 155.92 134.86 157.16 135.50 158.05 C 136.13 158.94 137.37 159.15 138.26 158.51 Z M 138.99 157.98 L 139.74 157.52 C 140.67 156.95 140.97 155.73 140.39 154.79 C 139.82 153.86 138.59 153.56 137.66 154.14 L 136.91 154.60 C 135.98 155.17 135.69 156.40 136.26 157.33 C 136.84 158.27 138.06 158.56 138.99 157.98 Z M 139.56 157.63 L 140.47 157.20 C 141.46 156.72 141.88 155.52 141.40 154.53 C 140.92 153.54 139.73 153.12 138.74 153.60 L 137.83 154.03 C 136.84 154.51 136.42 155.70 136.90 156.70 C 137.38 157.69 138.57 158.11 139.56 157.63 Z M 140.07 157.36 L 141.04 157.13 C 142.13 156.87 142.80 155.78 142.54 154.70 C 142.28 153.61 141.19 152.94 140.11 153.20 L 139.14 153.43 C 138.05 153.69 137.38 154.78 137.64 155.86 C 137.90 156.95 138.98 157.62 140.07 157.36 Z M 139.91 157.10 L 140.66 157.36 C 141.73 157.73 142.89 157.16 143.26 156.10 C 143.63 155.03 143.07 153.87 142.00 153.50 L 141.24 153.24 C 140.18 152.87 139.01 153.43 138.64 154.50 C 138.28 155.56 138.84 156.73 139.91 157.10 Z M 139.62 156.56 L 140.15 157.36 C 140.78 158.31 142.05 158.56 143.00 157.94 C 143.94 157.31 144.20 156.04 143.57 155.09 L 143.04 154.30 C 142.42 153.35 141.14 153.09 140.20 153.72 C 139.25 154.34 139.00 155.62 139.62 156.56 Z M 139.95 156.99 L 140.36 158.00 C 140.78 159.06 141.97 159.57 143.03 159.15 C 144.08 158.73 144.59 157.54 144.17 156.48 L 143.77 155.47 C 143.35 154.41 142.16 153.90 141.10 154.32 C 140.05 154.74 139.53 155.93 139.95 156.99 Z M 140.34 157.95 L 140.68 158.90 C 141.07 159.96 142.25 160.51 143.32 160.12 C 144.38 159.73 144.93 158.55 144.54 157.48 L 144.19 156.53 C 143.80 155.47 142.62 154.92 141.56 155.31 C 140.49 155.70 139.95 156.88 140.34 157.95 Z M 140.69 158.91 L 141.05 159.85 C 141.44 160.91 142.62 161.45 143.68 161.05 C 144.74 160.66 145.28 159.48 144.89 158.42 L 144.53 157.47 C 144.14 156.41 142.96 155.87 141.90 156.27 C 140.84 156.67 140.30 157.85 140.69 158.91 Z M 141.10 159.91 L 141.48 160.84 C 141.91 161.87 143.09 162.36 144.12 161.94 C 145.16 161.51 145.65 160.33 145.22 159.30 L 144.83 158.36 C 144.41 157.33 143.23 156.84 142.20 157.27 C 141.16 157.69 140.67 158.87 141.10 159.91 Z M 141.59 160.94 L 142.03 161.82 C 142.51 162.79 143.68 163.19 144.66 162.71 C 145.63 162.23 146.03 161.05 145.55 160.08 L 145.11 159.20 C 144.63 158.23 143.45 157.83 142.48 158.31 C 141.51 158.79 141.11 159.97 141.59 160.94 Z M 142.17 161.93 L 142.68 162.77 C 143.22 163.66 144.39 163.95 145.28 163.40 C 146.17 162.86 146.46 161.70 145.91 160.80 L 145.40 159.97 C 144.86 159.07 143.70 158.79 142.80 159.33 C 141.91 159.88 141.63 161.04 142.17 161.93 Z M 142.82 162.84 L 143.39 163.64 C 143.97 164.45 145.10 164.64 145.92 164.06 C 146.73 163.48 146.92 162.35 146.34 161.54 L 145.77 160.74 C 145.19 159.92 144.06 159.73 143.24 160.31 C 142.43 160.89 142.24 162.02 142.82 162.84 Z M 143.50 163.64 L 144.12 164.45 C 144.70 165.21 145.79 165.35 146.55 164.77 C 147.30 164.19 147.44 163.10 146.86 162.34 L 146.24 161.53 C 145.65 160.78 144.57 160.64 143.81 161.22 C 143.06 161.80 142.92 162.88 143.50 163.64 Z M 144.18 164.43 L 144.40 164.71 C 144.97 165.43 146.02 165.56 146.74 164.99 C 147.47 164.42 147.59 163.37 147.02 162.65 L 146.81 162.37 C 146.24 161.64 145.19 161.51 144.46 162.08 C 143.73 162.65 143.61 163.70 144.18 164.43 Z"
      fill="black"
      fill-rule="nonzero" /><path d="M 121.06 182.24 L 122.05 182.48 C 122.99 182.70 123.92 182.12 124.14 181.19 C 124.36 180.25 123.78 179.32 122.85 179.10 L 121.85 178.86 C 120.92 178.64 119.98 179.22 119.76 180.15 C 119.54 181.09 120.12 182.02 121.06 182.24 Z M 121.97 182.51 L 122.93 182.78 C 123.88 183.05 124.87 182.49 125.14 181.53 C 125.40 180.58 124.84 179.59 123.89 179.32 L 122.93 179.06 C 121.98 178.79 120.99 179.35 120.72 180.31 C 120.46 181.26 121.02 182.25 121.97 182.51 Z M 122.77 182.75 L 123.71 183.10 C 124.65 183.45 125.70 182.98 126.05 182.04 C 126.40 181.10 125.92 180.05 124.98 179.70 L 124.04 179.35 C 123.10 179.00 122.06 179.48 121.71 180.42 C 121.36 181.36 121.83 182.40 122.77 182.75 Z M 123.58 183.01 L 124.48 183.44 C 125.37 183.86 126.43 183.48 126.85 182.59 C 127.27 181.70 126.89 180.64 126.01 180.22 L 125.10 179.79 C 124.22 179.37 123.16 179.75 122.74 180.64 C 122.31 181.53 122.69 182.59 123.58 183.01 Z M 124.49 183.36 L 125.37 183.80 C 126.22 184.22 127.25 183.87 127.66 183.02 C 128.08 182.17 127.74 181.14 126.89 180.73 L 126.00 180.29 C 125.15 179.87 124.13 180.22 123.71 181.07 C 123.29 181.92 123.64 182.95 124.49 183.36 Z M 125.44 183.76 L 126.34 184.18 C 127.17 184.56 128.15 184.20 128.54 183.37 C 128.92 182.54 128.55 181.56 127.73 181.18 L 126.82 180.76 C 125.99 180.38 125.01 180.74 124.63 181.57 C 124.25 182.40 124.61 183.38 125.44 183.76 Z M 126.39 184.14 L 127.15 184.48 C 127.96 184.83 128.90 184.47 129.26 183.67 C 129.61 182.86 129.25 181.92 128.45 181.56 L 127.68 181.22 C 126.88 180.87 125.93 181.23 125.58 182.04 C 125.22 182.84 125.58 183.78 126.39 184.14 Z"
      fill="black"
      fill-rule="nonzero" /><path d="M 129.33 174.97 L 129.40 175.99 C 129.45 176.98 130.30 177.73 131.29 177.67 C 132.28 177.61 133.04 176.76 132.98 175.78 L 132.91 174.76 C 132.86 173.77 132.01 173.02 131.02 173.08 C 130.03 173.14 129.27 173.98 129.33 174.97 Z M 129.39 176.27 L 129.60 177.23 C 129.81 178.22 130.78 178.85 131.77 178.64 C 132.76 178.43 133.40 177.45 133.18 176.46 L 132.98 175.50 C 132.77 174.51 131.79 173.88 130.80 174.09 C 129.81 174.30 129.18 175.28 129.39 176.27 Z M 129.76 177.75 L 130.23 178.58 C 130.73 179.48 131.86 179.80 132.76 179.30 C 133.66 178.80 133.98 177.66 133.48 176.76 L 133.02 175.94 C 132.51 175.04 131.38 174.72 130.48 175.22 C 129.58 175.72 129.26 176.86 129.76 177.75 Z M 130.53 179.00 L 131.23 179.69 C 131.96 180.42 133.15 180.42 133.88 179.69 C 134.60 178.96 134.60 177.77 133.87 177.05 L 133.17 176.35 C 132.44 175.62 131.26 175.62 130.53 176.35 C 129.80 177.08 129.80 178.27 130.53 179.00 Z M 131.47 179.89 L 132.31 180.49 C 133.15 181.09 134.32 180.90 134.92 180.06 C 135.52 179.23 135.32 178.06 134.49 177.46 L 133.64 176.85 C 132.80 176.25 131.64 176.45 131.04 177.28 C 130.44 178.12 130.63 179.29 131.47 179.89 Z M 132.47 180.57 L 133.32 181.06 C 134.20 181.58 135.33 181.28 135.84 180.40 C 136.35 179.51 136.05 178.39 135.17 177.87 L 134.33 177.38 C 133.45 176.87 132.32 177.17 131.81 178.05 C 131.29 178.93 131.59 180.06 132.47 180.57 Z M 133.48 181.11 L 134.39 181.53 C 135.29 181.95 136.37 181.56 136.79 180.65 C 137.21 179.75 136.82 178.67 135.91 178.25 L 135.01 177.83 C 134.10 177.41 133.03 177.80 132.60 178.70 C 132.18 179.61 132.58 180.69 133.48 181.11 Z M 134.56 181.56 L 135.52 181.90 C 136.44 182.22 137.45 181.74 137.78 180.81 C 138.10 179.89 137.62 178.88 136.69 178.56 L 135.74 178.22 C 134.82 177.90 133.80 178.38 133.48 179.30 C 133.16 180.22 133.64 181.24 134.56 181.56 Z M 135.67 181.89 L 136.62 182.14 C 137.54 182.38 138.48 181.82 138.72 180.90 C 138.96 179.98 138.41 179.05 137.49 178.81 L 136.54 178.56 C 135.62 178.32 134.68 178.87 134.44 179.79 C 134.20 180.71 134.76 181.65 135.67 181.89 Z M 136.72 182.10 L 137.71 182.30 C 138.61 182.49 139.49 181.91 139.67 181.01 C 139.86 180.11 139.28 179.23 138.38 179.05 L 137.39 178.84 C 136.49 178.66 135.61 179.24 135.43 180.14 C 135.24 181.03 135.82 181.91 136.72 182.10 Z M 137.75 182.26 L 138.61 182.41 C 139.48 182.58 140.32 182.00 140.48 181.12 C 140.64 180.25 140.06 179.41 139.19 179.25 L 138.33 179.10 C 137.46 178.93 136.62 179.51 136.46 180.38 C 136.30 181.26 136.88 182.10 137.75 182.26 Z"
      fill="black"
      fill-rule="nonzero" /><path d="M 138.10 168.60 L 138.50 169.48 C 138.92 170.39 140.00 170.79 140.90 170.37 C 141.81 169.95 142.21 168.87 141.79 167.96 L 141.38 167.08 C 140.97 166.18 139.89 165.78 138.98 166.20 C 138.07 166.62 137.68 167.70 138.10 168.60 Z M 138.53 169.63 L 139.01 170.50 C 139.51 171.39 140.64 171.71 141.54 171.21 C 142.43 170.71 142.75 169.58 142.25 168.68 L 141.76 167.81 C 141.26 166.92 140.13 166.60 139.24 167.10 C 138.34 167.60 138.03 168.73 138.53 169.63 Z M 139.13 170.73 L 139.73 171.53 C 140.36 172.36 141.55 172.52 142.38 171.90 C 143.21 171.27 143.37 170.08 142.74 169.25 L 142.14 168.45 C 141.51 167.62 140.32 167.46 139.49 168.08 C 138.66 168.71 138.50 169.90 139.13 170.73 Z M 139.90 171.71 L 140.57 172.39 C 141.30 173.13 142.48 173.14 143.22 172.41 C 143.96 171.68 143.97 170.50 143.25 169.76 L 142.58 169.08 C 141.85 168.34 140.66 168.33 139.92 169.05 C 139.18 169.78 139.17 170.97 139.90 171.71 Z M 140.70 172.46 L 141.47 173.13 C 142.24 173.79 143.40 173.71 144.07 172.94 C 144.73 172.18 144.65 171.01 143.88 170.35 L 143.11 169.68 C 142.34 169.02 141.18 169.10 140.52 169.87 C 139.85 170.63 139.93 171.80 140.70 172.46 Z M 141.56 173.16 L 142.39 173.81 C 143.17 174.43 144.31 174.29 144.92 173.51 C 145.54 172.72 145.40 171.59 144.62 170.97 L 143.79 170.32 C 143.01 169.70 141.87 169.84 141.26 170.62 C 140.64 171.41 140.78 172.54 141.56 173.16 Z M 142.45 173.80 L 143.25 174.39 C 144.02 174.97 145.12 174.81 145.71 174.04 C 146.29 173.26 146.13 172.16 145.35 171.58 L 144.56 170.98 C 143.78 170.40 142.68 170.56 142.10 171.34 C 141.52 172.12 141.68 173.22 142.45 173.80 Z M 143.30 174.36 L 144.11 174.95 C 144.87 175.50 145.93 175.33 146.48 174.57 C 147.03 173.81 146.87 172.75 146.11 172.19 L 145.30 171.61 C 144.54 171.06 143.47 171.23 142.92 171.99 C 142.37 172.75 142.54 173.81 143.30 174.36 Z M 144.16 174.91 L 144.98 175.49 C 145.71 176.02 146.74 175.84 147.27 175.11 C 147.79 174.37 147.62 173.34 146.88 172.82 L 146.06 172.23 C 145.32 171.71 144.30 171.88 143.77 172.62 C 143.24 173.36 143.42 174.38 144.16 174.91 Z M 145.01 175.46 L 145.47 175.78 C 146.19 176.29 147.18 176.12 147.69 175.40 C 148.20 174.68 148.03 173.69 147.31 173.18 L 146.85 172.85 C 146.13 172.34 145.13 172.51 144.62 173.23 C 144.11 173.95 144.29 174.95 145.01 175.46 Z"
      fill="black"
      fill-rule="nonzero" /><path d="M 149.07 133.16 L 148.00 133.80 C 147.15 134.31 146.88 135.40 147.38 136.24 C 147.89 137.09 148.98 137.36 149.82 136.86 L 150.90 136.22 C 151.74 135.71 152.01 134.62 151.51 133.78 C 151.00 132.93 149.91 132.66 149.07 133.16 Z M 147.05 135.21 L 147.04 135.36 C 146.97 136.39 147.75 137.28 148.78 137.34 C 149.80 137.41 150.69 136.63 150.76 135.61 L 150.77 135.45 C 150.83 134.42 150.06 133.54 149.03 133.47 C 148.00 133.40 147.12 134.18 147.05 135.21 Z M 149.44 137.31 L 150.20 137.08 C 151.21 136.78 151.78 135.72 151.48 134.71 C 151.18 133.71 150.12 133.13 149.11 133.43 L 148.35 133.66 C 147.35 133.96 146.77 135.02 147.07 136.03 C 147.37 137.04 148.44 137.61 149.44 137.31 Z M 150.34 137.05 L 151.68 136.54 C 152.67 136.16 153.17 135.05 152.79 134.06 C 152.41 133.07 151.30 132.57 150.31 132.95 L 148.97 133.46 C 147.98 133.84 147.48 134.95 147.86 135.94 C 148.24 136.93 149.35 137.43 150.34 137.05 Z M 151.74 136.53 L 152.63 136.16 C 153.61 135.75 154.08 134.62 153.67 133.64 C 153.26 132.65 152.13 132.19 151.14 132.60 L 150.26 132.96 C 149.27 133.37 148.81 134.50 149.22 135.49 C 149.62 136.47 150.75 136.94 151.74 136.53 Z M 152.65 136.15 L 153.51 135.78 C 154.49 135.36 154.95 134.22 154.53 133.24 C 154.10 132.26 152.97 131.81 151.99 132.23 L 151.12 132.60 C 150.14 133.02 149.69 134.16 150.11 135.14 C 150.53 136.12 151.67 136.57 152.65 136.15 Z M 153.52 135.78 L 154.45 135.37 C 155.43 134.94 155.87 133.80 155.45 132.83 C 155.02 131.85 153.88 131.40 152.90 131.83 L 151.98 132.24 C 151.00 132.66 150.55 133.80 150.98 134.78 C 151.41 135.76 152.55 136.20 153.52 135.78 Z M 154.46 135.37 L 155.42 134.94 C 156.40 134.51 156.84 133.37 156.41 132.40 C 155.98 131.42 154.84 130.98 153.86 131.41 L 152.90 131.83 C 151.92 132.26 151.48 133.40 151.91 134.38 C 152.34 135.36 153.48 135.80 154.46 135.37 Z M 155.42 134.94 L 156.40 134.51 C 157.37 134.08 157.82 132.94 157.39 131.97 C 156.96 130.99 155.81 130.55 154.84 130.98 L 153.86 131.41 C 152.88 131.84 152.44 132.98 152.87 133.96 C 153.30 134.93 154.44 135.38 155.42 134.94 Z M 156.39 134.51 L 157.38 134.08 C 158.35 133.65 158.80 132.51 158.37 131.54 C 157.94 130.56 156.80 130.12 155.83 130.54 L 154.84 130.98 C 153.86 131.40 153.42 132.54 153.85 133.52 C 154.28 134.50 155.42 134.94 156.39 134.51 Z M 157.37 134.08 L 158.37 133.64 C 159.35 133.22 159.80 132.09 159.37 131.11 C 158.95 130.13 157.81 129.69 156.84 130.11 L 155.83 130.55 C 154.86 130.97 154.41 132.11 154.83 133.08 C 155.26 134.06 156.39 134.50 157.37 134.08 Z M 158.36 133.64 L 159.33 133.22 C 160.31 132.80 160.75 131.67 160.33 130.70 C 159.91 129.73 158.79 129.28 157.81 129.70 L 156.84 130.12 C 155.87 130.54 155.42 131.67 155.84 132.64 C 156.26 133.61 157.39 134.06 158.36 133.64 Z M 159.33 133.21 L 160.25 132.81 C 161.22 132.40 161.67 131.27 161.25 130.31 C 160.83 129.34 159.71 128.89 158.74 129.31 L 157.82 129.71 C 156.85 130.12 156.40 131.25 156.82 132.22 C 157.24 133.18 158.36 133.63 159.33 133.21 Z M 160.25 132.81 L 161.13 132.43 C 162.09 132.01 162.53 130.89 162.12 129.93 C 161.70 128.97 160.58 128.52 159.62 128.94 L 158.74 129.32 C 157.78 129.73 157.34 130.85 157.75 131.82 C 158.17 132.78 159.29 133.22 160.25 132.81 Z M 161.13 132.42 L 161.95 132.06 C 162.90 131.64 163.34 130.53 162.92 129.57 C 162.51 128.61 161.39 128.17 160.43 128.59 L 159.62 128.95 C 158.66 129.37 158.22 130.48 158.64 131.44 C 159.06 132.40 160.17 132.83 161.13 132.42 Z M 161.95 132.04 L 162.94 131.59 C 163.89 131.17 164.31 130.07 163.89 129.12 C 163.47 128.18 162.36 127.75 161.42 128.17 L 160.43 128.62 C 159.48 129.04 159.06 130.14 159.48 131.09 C 159.90 132.03 161.01 132.46 161.95 132.04 Z M 162.94 131.56 L 163.88 131.13 C 164.81 130.71 165.22 129.62 164.79 128.69 C 164.37 127.77 163.28 127.36 162.35 127.78 L 161.41 128.21 C 160.49 128.63 160.08 129.72 160.50 130.65 C 160.93 131.58 162.02 131.98 162.94 131.56 Z M 163.88 131.10 L 164.75 130.69 C 165.65 130.27 166.04 129.19 165.62 128.29 C 165.20 127.38 164.12 126.99 163.22 127.41 L 162.35 127.82 C 161.45 128.24 161.06 129.32 161.48 130.22 C 161.90 131.13 162.98 131.52 163.88 131.10 Z M 164.74 130.66 L 165.56 130.27 C 166.45 129.85 166.83 128.79 166.41 127.91 C 165.99 127.02 164.94 126.64 164.05 127.06 L 163.23 127.45 C 162.34 127.86 161.96 128.92 162.38 129.81 C 162.79 130.70 163.85 131.08 164.74 130.66 Z M 165.55 130.24 L 166.45 129.82 C 167.32 129.41 167.70 128.37 167.28 127.50 C 166.87 126.62 165.83 126.25 164.96 126.66 L 164.06 127.09 C 163.19 127.50 162.82 128.54 163.23 129.41 C 163.64 130.28 164.68 130.66 165.55 130.24 Z M 166.43 129.80 L 167.33 129.38 C 168.19 128.97 168.56 127.95 168.16 127.09 C 167.76 126.23 166.74 125.86 165.88 126.26 L 164.98 126.69 C 164.12 127.09 163.75 128.11 164.15 128.97 C 164.55 129.83 165.57 130.20 166.43 129.80 Z M 167.31 129.36 L 168.22 128.94 C 169.07 128.55 169.44 127.55 169.05 126.70 C 168.66 125.85 167.66 125.48 166.81 125.87 L 165.90 126.28 C 165.06 126.67 164.68 127.67 165.07 128.52 C 165.46 129.37 166.46 129.74 167.31 129.36 Z M 168.19 128.92 L 169.10 128.52 C 169.94 128.15 170.32 127.17 169.95 126.33 C 169.57 125.49 168.59 125.11 167.75 125.48 L 166.84 125.88 C 166.01 126.26 165.63 127.24 166.00 128.08 C 166.37 128.91 167.35 129.29 168.19 128.92 Z M 169.07 128.51 L 169.98 128.12 C 170.81 127.76 171.20 126.80 170.84 125.97 C 170.49 125.13 169.52 124.75 168.69 125.11 L 167.78 125.50 C 166.95 125.85 166.56 126.81 166.92 127.65 C 167.28 128.48 168.24 128.86 169.07 128.51 Z M 169.96 128.10 L 170.89 127.71 C 171.71 127.37 172.10 126.42 171.75 125.60 C 171.41 124.77 170.46 124.39 169.64 124.73 L 168.71 125.12 C 167.89 125.47 167.50 126.41 167.85 127.24 C 168.19 128.06 169.14 128.45 169.96 128.10 Z M 170.88 127.69 L 171.81 127.30 C 172.63 126.97 173.01 126.03 172.67 125.22 C 172.34 124.41 171.40 124.02 170.59 124.36 L 169.65 124.75 C 168.84 125.09 168.45 126.02 168.79 126.83 C 169.13 127.65 170.06 128.03 170.88 127.69 Z M 171.81 127.29 L 171.91 127.25 C 172.72 126.92 173.10 125.99 172.77 125.18 C 172.43 124.38 171.51 123.99 170.70 124.33 L 170.60 124.37 C 169.79 124.71 169.40 125.63 169.74 126.44 C 170.07 127.25 171.00 127.63 171.81 127.29 Z"
      fill="black"
      fill-rule="nonzero" /><path d="M 148.17 144.82 L 148.17 145.89 C 148.17 146.89 148.98 147.70 149.98 147.70 C 150.98 147.70 151.80 146.89 151.80 145.89 L 151.80 144.82 C 151.80 143.82 150.99 143.01 149.98 143.01 C 148.98 143.01 148.17 143.82 148.17 144.82 Z M 148.17 145.88 L 148.17 146.92 C 148.17 147.92 148.98 148.73 149.98 148.73 C 150.98 148.73 151.79 147.92 151.79 146.92 L 151.79 145.89 C 151.79 144.89 150.99 144.08 149.99 144.08 C 148.99 144.07 148.17 144.88 148.17 145.88 Z M 148.17 146.91 L 148.17 147.88 C 148.16 148.88 148.97 149.70 149.96 149.70 C 150.96 149.71 151.77 148.90 151.78 147.90 L 151.79 146.93 C 151.79 145.93 150.99 145.12 149.99 145.11 C 148.99 145.11 148.18 145.91 148.17 146.91 Z M 148.17 147.87 L 148.16 148.83 C 148.15 149.83 148.95 150.64 149.94 150.66 C 150.94 150.67 151.75 149.87 151.76 148.88 L 151.78 147.92 C 151.79 146.92 150.99 146.11 150.00 146.09 C 149.00 146.08 148.18 146.88 148.17 147.87 Z M 148.16 148.81 L 148.14 149.84 C 148.12 150.83 148.91 151.66 149.90 151.68 C 150.89 151.70 151.71 150.91 151.74 149.92 L 151.76 148.89 C 151.78 147.90 151.00 147.08 150.00 147.06 C 149.01 147.03 148.19 147.82 148.16 148.81 Z M 148.15 149.82 L 148.11 150.78 C 148.08 151.77 148.86 152.60 149.85 152.63 C 150.84 152.67 151.67 151.89 151.70 150.90 L 151.73 149.94 C 151.76 148.95 150.99 148.12 150.00 148.09 C 149.01 148.06 148.18 148.83 148.15 149.82 Z M 148.12 150.78 L 148.08 151.75 C 148.05 152.74 148.82 153.57 149.81 153.60 C 150.80 153.64 151.63 152.86 151.67 151.87 L 151.70 150.90 C 151.74 149.91 150.96 149.08 149.97 149.05 C 148.98 149.01 148.15 149.79 148.12 150.78 Z M 148.08 151.75 L 148.05 152.76 C 148.02 153.75 148.80 154.58 149.79 154.61 C 150.79 154.64 151.61 153.85 151.64 152.86 L 151.67 151.86 C 151.70 150.87 150.92 150.04 149.93 150.01 C 148.94 149.98 148.11 150.76 148.08 151.75 Z M 148.04 152.79 L 148.03 153.80 C 148.02 154.80 148.81 155.61 149.81 155.63 C 150.81 155.64 151.62 154.84 151.64 153.85 L 151.65 152.83 C 151.66 151.84 150.87 151.02 149.87 151.01 C 148.87 150.99 148.05 151.79 148.04 152.79 Z M 148.01 153.86 L 148.03 154.91 C 148.05 155.92 148.89 156.72 149.89 156.70 C 150.90 156.67 151.70 155.84 151.68 154.83 L 151.66 153.78 C 151.64 152.78 150.80 151.98 149.79 152.00 C 148.79 152.02 147.99 152.85 148.01 153.86 Z M 148.01 155.20 L 148.19 156.19 C 148.37 157.21 149.34 157.89 150.36 157.70 C 151.38 157.52 152.06 156.55 151.88 155.53 L 151.70 154.54 C 151.52 153.52 150.54 152.84 149.52 153.02 C 148.51 153.21 147.83 154.18 148.01 155.20 Z M 148.46 156.99 L 148.99 157.73 C 149.61 158.60 150.83 158.80 151.70 158.17 C 152.57 157.55 152.77 156.34 152.14 155.47 L 151.61 154.72 C 150.98 153.85 149.77 153.66 148.90 154.28 C 148.03 154.91 147.83 156.12 148.46 156.99 Z M 149.76 158.42 L 150.58 158.78 C 151.58 159.22 152.75 158.76 153.20 157.76 C 153.64 156.75 153.18 155.58 152.18 155.14 L 151.36 154.78 C 150.36 154.34 149.19 154.79 148.75 155.80 C 148.30 156.80 148.76 157.98 149.76 158.42 Z M 151.08 158.95 L 152.10 159.10 C 153.20 159.26 154.23 158.50 154.39 157.40 C 154.55 156.30 153.79 155.28 152.69 155.11 L 151.67 154.96 C 150.57 154.80 149.55 155.56 149.39 156.66 C 149.22 157.76 149.98 158.79 151.08 158.95 Z M 152.41 159.14 L 153.47 159.14 C 154.59 159.13 155.50 158.22 155.50 157.09 C 155.49 155.97 154.57 155.06 153.45 155.06 L 152.39 155.07 C 151.26 155.07 150.35 155.99 150.36 157.11 C 150.36 158.24 151.28 159.15 152.41 159.14 Z M 153.72 159.14 L 154.79 159.00 C 155.91 158.86 156.71 157.83 156.56 156.70 C 156.42 155.58 155.39 154.78 154.26 154.93 L 153.20 155.06 C 152.07 155.21 151.28 156.24 151.42 157.36 C 151.56 158.49 152.59 159.28 153.72 159.14 Z M 155.04 158.96 L 155.99 158.71 C 157.09 158.43 157.75 157.31 157.47 156.21 C 157.19 155.11 156.06 154.44 154.96 154.73 L 154.01 154.97 C 152.91 155.25 152.25 156.37 152.53 157.48 C 152.81 158.58 153.94 159.24 155.04 158.96 Z M 156.14 158.67 L 157.03 158.37 C 158.11 158.00 158.68 156.83 158.31 155.75 C 157.94 154.67 156.77 154.10 155.70 154.47 L 154.81 154.77 C 153.73 155.14 153.16 156.31 153.53 157.39 C 153.89 158.46 155.07 159.04 156.14 158.67 Z M 157.07 158.35 L 157.99 158.01 C 159.06 157.62 159.61 156.44 159.22 155.37 C 158.83 154.30 157.64 153.75 156.58 154.14 L 155.65 154.48 C 154.59 154.87 154.04 156.06 154.43 157.13 C 154.82 158.19 156.00 158.74 157.07 158.35 Z M 158.02 158.00 L 158.96 157.64 C 160.02 157.24 160.56 156.05 160.15 154.99 C 159.75 153.92 158.56 153.39 157.50 153.79 L 156.55 154.15 C 155.49 154.56 154.96 155.75 155.36 156.81 C 155.76 157.87 156.95 158.41 158.02 158.00 Z M 158.98 157.63 L 159.93 157.26 C 160.99 156.84 161.51 155.65 161.09 154.59 C 160.67 153.54 159.48 153.02 158.42 153.43 L 157.47 153.81 C 156.42 154.22 155.90 155.42 156.31 156.47 C 156.73 157.53 157.92 158.05 158.98 157.63 Z M 159.94 157.24 L 160.88 156.87 C 161.93 156.44 162.44 155.25 162.01 154.20 C 161.59 153.15 160.40 152.64 159.35 153.07 L 158.41 153.45 C 157.36 153.87 156.85 155.06 157.28 156.11 C 157.70 157.16 158.89 157.67 159.94 157.24 Z M 160.88 156.85 L 161.80 156.48 C 162.84 156.06 163.34 154.87 162.92 153.83 C 162.50 152.79 161.31 152.29 160.27 152.71 L 159.35 153.08 C 158.31 153.50 157.81 154.69 158.23 155.73 C 158.65 156.77 159.84 157.28 160.88 156.85 Z M 161.78 156.47 L 162.69 156.11 C 163.73 155.69 164.23 154.51 163.81 153.48 C 163.40 152.44 162.22 151.94 161.19 152.36 L 160.28 152.72 C 159.24 153.14 158.74 154.31 159.16 155.35 C 159.57 156.38 160.75 156.89 161.78 156.47 Z M 162.70 156.08 L 163.61 155.70 C 164.63 155.28 165.12 154.12 164.70 153.10 C 164.28 152.08 163.11 151.59 162.09 152.01 L 161.18 152.39 C 160.16 152.80 159.68 153.97 160.09 154.99 C 160.51 156.01 161.68 156.50 162.70 156.08 Z M 163.65 155.66 L 164.58 155.25 C 165.57 154.81 166.02 153.65 165.58 152.65 C 165.15 151.66 163.98 151.20 162.99 151.64 L 162.06 152.06 C 161.06 152.49 160.61 153.66 161.05 154.65 C 161.49 155.65 162.65 156.10 163.65 155.66 Z M 164.62 155.20 L 165.52 154.77 C 166.49 154.31 166.90 153.15 166.44 152.18 C 165.97 151.21 164.82 150.80 163.85 151.26 L 162.95 151.69 C 161.98 152.16 161.57 153.32 162.03 154.28 C 162.49 155.25 163.65 155.66 164.62 155.20 Z M 165.56 154.72 L 166.46 154.25 C 167.40 153.77 167.77 152.62 167.29 151.68 C 166.81 150.74 165.66 150.37 164.72 150.85 L 163.81 151.31 C 162.87 151.80 162.50 152.95 162.98 153.89 C 163.46 154.83 164.62 155.20 165.56 154.72 Z M 166.50 154.19 L 167.39 153.70 C 168.29 153.20 168.62 152.06 168.12 151.15 C 167.62 150.25 166.48 149.92 165.57 150.42 L 164.68 150.91 C 163.78 151.41 163.45 152.55 163.95 153.46 C 164.45 154.37 165.59 154.69 166.50 154.19 Z M 167.42 153.61 L 168.29 153.09 C 169.15 152.57 169.42 151.45 168.90 150.59 C 168.38 149.73 167.26 149.46 166.40 149.98 L 165.54 150.50 C 164.68 151.02 164.40 152.14 164.92 153.00 C 165.45 153.86 166.56 154.13 167.42 153.61 Z M 168.31 153.00 L 169.12 152.46 C 169.93 151.93 170.15 150.85 169.62 150.04 C 169.09 149.23 168.01 149.01 167.20 149.54 L 166.39 150.07 C 165.58 150.60 165.35 151.69 165.88 152.49 C 166.41 153.30 167.50 153.53 168.31 153.00 Z M 169.12 152.39 L 169.93 151.83 C 170.70 151.30 170.89 150.25 170.36 149.48 C 169.83 148.71 168.77 148.52 168.01 149.05 L 167.20 149.61 C 166.43 150.14 166.24 151.20 166.77 151.96 C 167.30 152.73 168.35 152.92 169.12 152.39 Z M 169.92 151.77 L 170.73 151.19 C 171.47 150.66 171.64 149.64 171.11 148.91 C 170.59 148.17 169.57 148.00 168.83 148.53 L 168.02 149.11 C 167.28 149.63 167.11 150.66 167.64 151.39 C 168.16 152.13 169.18 152.30 169.92 151.77 Z M 170.72 151.15 L 171.38 150.66 C 172.09 150.15 172.25 149.15 171.74 148.44 C 171.22 147.73 170.23 147.57 169.52 148.09 L 168.85 148.57 C 168.14 149.08 167.98 150.08 168.49 150.79 C 169.01 151.50 170.00 151.66 170.72 151.15 Z"
      fill="black"
      fill-rule="nonzero" /><path d="M 170.39 135.82 L 170.34 136.74 C 170.28 137.71 171.02 138.54 171.99 138.60 C 172.96 138.65 173.79 137.91 173.85 136.95 L 173.90 136.03 C 173.96 135.06 173.22 134.23 172.25 134.17 C 171.28 134.11 170.45 134.85 170.39 135.82 Z M 170.29 136.73 L 170.23 137.69 C 170.16 138.68 170.92 139.54 171.91 139.61 C 172.90 139.67 173.76 138.92 173.83 137.93 L 173.89 136.96 C 173.96 135.97 173.20 135.11 172.21 135.05 C 171.22 134.98 170.36 135.73 170.29 136.73 Z M 170.18 137.66 L 170.10 138.71 C 170.02 139.73 170.78 140.62 171.80 140.70 C 172.82 140.78 173.71 140.02 173.79 139.00 L 173.87 137.95 C 173.95 136.94 173.19 136.04 172.18 135.96 C 171.16 135.88 170.27 136.64 170.18 137.66 Z M 170.07 138.68 L 169.98 139.64 C 169.88 140.68 170.64 141.60 171.68 141.69 C 172.72 141.79 173.64 141.03 173.73 139.99 L 173.82 139.03 C 173.92 138.00 173.16 137.08 172.12 136.98 C 171.09 136.88 170.17 137.64 170.07 138.68 Z M 169.97 139.62 L 169.88 140.51 C 169.77 141.55 170.52 142.48 171.56 142.59 C 172.60 142.70 173.54 141.95 173.65 140.90 L 173.74 140.02 C 173.85 138.98 173.10 138.04 172.06 137.93 C 171.02 137.82 170.08 138.58 169.97 139.62 Z M 169.88 140.49 L 169.77 141.45 C 169.65 142.49 170.39 143.43 171.43 143.55 C 172.47 143.67 173.41 142.92 173.53 141.88 L 173.64 140.92 C 173.76 139.88 173.02 138.94 171.98 138.82 C 170.94 138.70 170.00 139.45 169.88 140.49 Z M 169.77 141.43 L 169.64 142.47 C 169.51 143.51 170.25 144.45 171.29 144.58 C 172.33 144.71 173.27 143.98 173.40 142.94 L 173.53 141.90 C 173.66 140.86 172.92 139.92 171.88 139.79 C 170.85 139.66 169.90 140.39 169.77 141.43 Z M 169.64 142.46 L 169.50 143.57 C 169.36 144.61 170.09 145.56 171.13 145.70 C 172.16 145.83 173.11 145.10 173.25 144.07 L 173.40 142.95 C 173.54 141.91 172.81 140.96 171.77 140.83 C 170.73 140.69 169.78 141.42 169.64 142.46 Z M 169.50 143.56 L 169.36 144.59 C 169.22 145.63 169.94 146.58 170.97 146.72 C 172.01 146.87 172.96 146.14 173.10 145.11 L 173.25 144.08 C 173.39 143.04 172.67 142.09 171.63 141.95 C 170.60 141.80 169.64 142.53 169.50 143.56 Z M 169.37 144.58 L 169.22 145.57 C 169.08 146.60 169.79 147.56 170.82 147.70 C 171.85 147.85 172.81 147.14 172.95 146.11 L 173.10 145.12 C 173.24 144.09 172.53 143.13 171.50 142.99 C 170.47 142.84 169.51 143.55 169.37 144.58 Z M 169.23 145.57 L 169.08 146.58 C 168.93 147.60 169.64 148.56 170.67 148.71 C 171.69 148.86 172.65 148.15 172.80 147.12 L 172.95 146.11 C 173.10 145.09 172.39 144.13 171.36 143.98 C 170.34 143.83 169.38 144.54 169.23 145.57 Z M 169.09 146.57 L 168.94 147.59 C 168.79 148.61 169.49 149.56 170.51 149.71 C 171.53 149.87 172.48 149.16 172.64 148.14 L 172.79 147.13 C 172.94 146.11 172.24 145.16 171.22 145.00 C 170.20 144.85 169.25 145.55 169.09 146.57 Z M 168.95 147.58 L 168.79 148.59 C 168.64 149.60 169.34 150.55 170.35 150.71 C 171.37 150.87 172.32 150.17 172.47 149.15 L 172.63 148.15 C 172.78 147.13 172.09 146.18 171.07 146.03 C 170.05 145.87 169.10 146.57 168.95 147.58 Z M 168.80 148.59 L 168.65 149.56 C 168.49 150.57 169.19 151.52 170.20 151.68 C 171.21 151.83 172.16 151.14 172.32 150.13 L 172.47 149.15 C 172.62 148.14 171.93 147.20 170.92 147.04 C 169.91 146.88 168.96 147.57 168.80 148.59 Z M 168.67 149.56 L 168.51 150.58 C 168.35 151.58 169.03 152.52 170.04 152.68 C 171.04 152.84 171.98 152.15 172.14 151.15 L 172.30 150.13 C 172.46 149.13 171.77 148.19 170.77 148.03 C 169.77 147.87 168.83 148.55 168.67 149.56 Z M 168.54 150.58 L 168.37 151.63 C 168.21 152.62 168.88 153.55 169.87 153.70 C 170.85 153.86 171.78 153.19 171.94 152.21 L 172.11 151.15 C 172.26 150.16 171.59 149.24 170.61 149.08 C 169.62 148.92 168.70 149.59 168.54 150.58 Z M 168.41 151.64 L 168.25 152.63 C 168.09 153.60 168.75 154.50 169.71 154.66 C 170.67 154.81 171.58 154.16 171.73 153.20 L 171.89 152.20 C 172.05 151.24 171.40 150.33 170.44 150.18 C 169.47 150.02 168.57 150.68 168.41 151.64 Z M 168.29 152.64 L 168.14 153.59 C 167.98 154.53 168.62 155.41 169.56 155.57 C 170.49 155.72 171.38 155.09 171.53 154.15 L 171.69 153.20 C 171.84 152.26 171.21 151.37 170.27 151.22 C 169.33 151.06 168.45 151.70 168.29 152.64 Z M 168.18 153.60 L 168.02 154.52 C 167.87 155.44 168.49 156.30 169.41 156.45 C 170.32 156.60 171.19 155.99 171.34 155.07 L 171.49 154.14 C 171.64 153.23 171.02 152.36 170.11 152.21 C 169.19 152.06 168.33 152.68 168.18 153.60 Z M 168.06 154.53 L 167.97 155.07 C 167.82 155.97 168.42 156.82 169.32 156.97 C 170.22 157.12 171.07 156.51 171.22 155.61 L 171.31 155.06 C 171.46 154.17 170.85 153.32 169.95 153.17 C 169.05 153.02 168.21 153.63 168.06 154.53 Z"
      fill="black"
      fill-rule="nonzero" /><path d="M 156.62 121.73 L 156.74 122.66 C 156.85 123.59 157.70 124.26 158.63 124.14 C 159.57 124.03 160.23 123.18 160.12 122.25 L 160.00 121.31 C 159.89 120.38 159.04 119.71 158.10 119.83 C 157.17 119.94 156.51 120.79 156.62 121.73 Z M 156.57 122.66 L 156.68 123.66 C 156.79 124.68 157.71 125.42 158.74 125.31 C 159.76 125.20 160.50 124.28 160.39 123.26 L 160.28 122.25 C 160.17 121.23 159.25 120.49 158.23 120.60 C 157.20 120.71 156.46 121.63 156.57 122.66 Z M 156.56 123.63 L 156.65 124.65 C 156.74 125.74 157.70 126.55 158.79 126.45 C 159.88 126.36 160.69 125.40 160.60 124.31 L 160.51 123.29 C 160.41 122.20 159.45 121.39 158.36 121.49 C 157.27 121.58 156.47 122.54 156.56 123.63 Z M 156.61 124.61 L 156.68 125.62 C 156.75 126.73 157.71 127.57 158.83 127.50 C 159.94 127.42 160.78 126.46 160.70 125.35 L 160.64 124.34 C 160.56 123.23 159.60 122.39 158.49 122.47 C 157.38 122.54 156.53 123.50 156.61 124.61 Z M 156.67 125.59 L 156.73 126.61 C 156.78 127.72 157.73 128.58 158.85 128.52 C 159.96 128.46 160.82 127.51 160.76 126.40 L 160.71 125.38 C 160.65 124.27 159.70 123.41 158.59 123.47 C 157.47 123.53 156.62 124.47 156.67 125.59 Z M 156.73 126.57 L 156.76 127.58 C 156.80 128.69 157.73 129.56 158.84 129.53 C 159.96 129.49 160.83 128.56 160.79 127.44 L 160.76 126.44 C 160.72 125.32 159.79 124.45 158.68 124.49 C 157.56 124.52 156.69 125.46 156.73 126.57 Z M 156.76 127.54 L 156.78 128.53 C 156.80 129.64 157.72 130.53 158.83 130.51 C 159.94 130.49 160.83 129.57 160.81 128.46 L 160.79 127.48 C 160.77 126.36 159.85 125.48 158.74 125.50 C 157.63 125.52 156.74 126.43 156.76 127.54 Z M 156.78 128.52 L 156.79 129.51 C 156.81 130.62 157.72 131.51 158.83 131.50 C 159.94 131.49 160.83 130.57 160.82 129.46 L 160.80 128.47 C 160.79 127.36 159.88 126.47 158.77 126.48 C 157.66 126.50 156.77 127.41 156.78 128.52 Z M 156.80 129.52 L 156.81 130.48 C 156.83 131.59 157.75 132.47 158.85 132.45 C 159.96 132.43 160.84 131.52 160.83 130.41 L 160.81 129.45 C 160.79 128.35 159.88 127.46 158.77 127.48 C 157.66 127.50 156.78 128.41 156.80 129.52 Z M 156.82 130.49 L 156.84 131.47 C 156.86 132.57 157.78 133.45 158.88 133.43 C 159.99 133.40 160.86 132.49 160.84 131.38 L 160.82 130.40 C 160.80 129.30 159.89 128.42 158.78 128.44 C 157.67 128.47 156.80 129.38 156.82 130.49 Z M 156.84 131.46 L 156.86 132.50 C 156.88 133.60 157.80 134.48 158.90 134.46 C 160.00 134.43 160.88 133.52 160.86 132.42 L 160.84 131.39 C 160.82 130.29 159.91 129.41 158.80 129.43 C 157.70 129.45 156.82 130.36 156.84 131.46 Z M 156.87 132.49 L 156.88 133.50 C 156.90 134.60 157.80 135.48 158.90 135.47 C 160.00 135.45 160.88 134.55 160.87 133.45 L 160.85 132.43 C 160.84 131.33 159.93 130.45 158.83 130.47 C 157.73 130.48 156.85 131.39 156.87 132.49 Z M 156.89 133.49 L 156.89 134.47 C 156.90 135.56 157.80 136.45 158.89 136.44 C 159.99 136.43 160.88 135.54 160.87 134.44 L 160.86 133.46 C 160.85 132.37 159.96 131.48 158.86 131.49 C 157.76 131.50 156.88 132.39 156.89 133.49 Z M 156.90 134.46 L 156.90 135.46 C 156.90 136.56 157.79 137.44 158.89 137.44 C 159.98 137.44 160.87 136.55 160.87 135.45 L 160.86 134.45 C 160.86 133.35 159.97 132.46 158.87 132.47 C 157.78 132.47 156.89 133.36 156.90 134.46 Z M 156.90 135.46 L 156.90 136.49 C 156.90 137.58 157.79 138.47 158.88 138.47 C 159.98 138.47 160.87 137.58 160.86 136.48 L 160.86 135.45 C 160.86 134.36 159.98 133.47 158.88 133.47 C 157.79 133.47 156.90 134.36 156.90 135.46 Z M 156.91 136.48 L 156.91 137.48 C 156.91 138.57 157.79 139.46 158.88 139.46 C 159.98 139.46 160.86 138.57 160.86 137.48 L 160.86 136.48 C 160.86 135.39 159.98 134.51 158.88 134.51 C 157.79 134.51 156.91 135.39 156.91 136.48 Z M 156.91 137.48 L 156.91 138.47 C 156.91 139.56 157.79 140.44 158.88 140.44 C 159.97 140.44 160.86 139.56 160.86 138.47 L 160.86 137.48 C 160.86 136.39 159.97 135.50 158.88 135.50 C 157.79 135.50 156.91 136.39 156.91 137.48 Z M 156.91 138.47 L 156.91 139.47 C 156.91 140.56 157.79 141.44 158.88 141.44 C 159.97 141.44 160.86 140.56 160.86 139.47 L 160.86 138.47 C 160.86 137.38 159.97 136.50 158.88 136.50 C 157.79 136.50 156.91 137.38 156.91 138.47 Z M 156.92 139.47 L 156.92 140.49 C 156.92 141.58 157.80 142.46 158.88 142.46 C 159.97 142.46 160.85 141.58 160.85 140.49 L 160.85 139.47 C 160.85 138.39 159.97 137.51 158.88 137.51 C 157.80 137.51 156.92 138.39 156.92 139.47 Z M 156.92 140.49 L 156.92 141.50 C 156.92 142.58 157.80 143.46 158.88 143.46 C 159.97 143.46 160.85 142.58 160.85 141.50 L 160.85 140.49 C 160.85 139.40 159.97 138.52 158.88 138.52 C 157.80 138.52 156.92 139.40 156.92 140.49 Z M 156.92 141.50 L 156.92 142.50 C 156.92 143.58 157.80 144.46 158.88 144.46 C 159.97 144.46 160.85 143.58 160.85 142.50 L 160.85 141.50 C 160.85 140.41 159.97 139.53 158.88 139.53 C 157.80 139.53 156.92 140.41 156.92 141.50 Z M 156.92 142.50 L 156.92 143.50 C 156.92 144.58 157.80 145.46 158.88 145.46 C 159.97 145.46 160.85 144.58 160.85 143.50 L 160.85 142.50 C 160.85 141.41 159.97 140.53 158.88 140.53 C 157.80 140.53 156.92 141.41 156.92 142.50 Z M 156.92 143.50 L 156.92 144.50 C 156.92 145.58 157.80 146.46 158.88 146.46 C 159.97 146.46 160.85 145.58 160.85 144.50 L 160.85 143.50 C 160.85 142.41 159.97 141.54 158.88 141.54 C 157.80 141.54 156.92 142.41 156.92 143.50 Z M 156.92 144.50 L 156.92 145.51 C 156.92 146.59 157.80 147.47 158.88 147.47 C 159.97 147.47 160.84 146.59 160.84 145.51 L 160.84 144.50 C 160.84 143.42 159.97 142.54 158.88 142.54 C 157.80 142.54 156.92 143.42 156.92 144.50 Z M 156.92 145.51 L 156.92 146.52 C 156.92 147.60 157.80 148.48 158.88 148.48 C 159.97 148.48 160.84 147.60 160.84 146.52 L 160.84 145.51 C 160.84 144.43 159.97 143.55 158.88 143.55 C 157.80 143.55 156.92 144.43 156.92 145.51 Z M 156.93 146.52 L 156.93 147.52 C 156.93 148.60 157.80 149.48 158.88 149.48 C 159.96 149.48 160.84 148.60 160.84 147.52 L 160.84 146.52 C 160.84 145.44 159.96 144.56 158.88 144.56 C 157.80 144.56 156.93 145.44 156.93 146.52 Z M 156.93 147.52 L 156.93 148.51 C 156.93 149.59 157.80 150.46 158.88 150.46 C 159.96 150.46 160.84 149.59 160.84 148.51 L 160.84 147.52 C 160.84 146.44 159.96 145.56 158.88 145.56 C 157.80 145.56 156.93 146.44 156.93 147.52 Z M 156.93 148.51 L 156.93 149.51 C 156.93 150.59 157.80 151.46 158.88 151.46 C 159.96 151.46 160.84 150.59 160.84 149.51 L 160.84 148.51 C 160.84 147.43 159.96 146.55 158.88 146.55 C 157.80 146.55 156.93 147.43 156.93 148.51 Z M 156.93 149.51 L 156.93 150.51 C 156.93 151.59 157.80 152.47 158.88 152.47 C 159.96 152.47 160.84 151.60 160.84 150.52 L 160.84 149.51 C 160.84 148.43 159.97 147.55 158.89 147.55 C 157.81 147.55 156.93 148.43 156.93 149.51 Z M 156.93 150.51 L 156.92 151.50 C 156.92 152.59 157.79 153.46 158.87 153.47 C 159.95 153.47 160.83 152.60 160.84 151.52 L 160.84 150.52 C 160.84 149.44 159.97 148.56 158.89 148.56 C 157.81 148.55 156.93 149.43 156.93 150.51 Z M 156.92 151.50 L 156.91 152.49 C 156.91 153.57 157.78 154.45 158.86 154.46 C 159.94 154.47 160.82 153.60 160.83 152.52 L 160.84 151.53 C 160.85 150.44 159.98 149.56 158.89 149.55 C 157.81 149.54 156.93 150.41 156.92 151.50 Z M 156.91 152.47 L 156.90 153.51 C 156.88 154.59 157.75 155.48 158.83 155.49 C 159.91 155.51 160.80 154.64 160.82 153.56 L 160.83 152.53 C 160.85 151.44 159.98 150.56 158.90 150.54 C 157.82 150.53 156.93 151.39 156.91 152.47 Z M 156.90 153.49 L 156.88 154.53 C 156.85 155.61 157.71 156.51 158.80 156.53 C 159.88 156.55 160.78 155.69 160.80 154.61 L 160.82 153.57 C 160.84 152.49 159.98 151.59 158.90 151.57 C 157.81 151.55 156.92 152.41 156.90 153.49 Z M 156.87 154.51 L 156.85 155.50 C 156.81 156.59 157.67 157.49 158.75 157.52 C 159.84 157.55 160.74 156.70 160.77 155.62 L 160.80 154.62 C 160.83 153.54 159.98 152.64 158.89 152.60 C 157.81 152.57 156.91 153.43 156.87 154.51 Z M 156.84 155.48 L 156.81 156.43 C 156.76 157.52 157.61 158.43 158.69 158.48 C 159.78 158.52 160.69 157.67 160.74 156.59 L 160.77 155.64 C 160.82 154.55 159.97 153.64 158.89 153.59 C 157.80 153.55 156.89 154.40 156.84 155.48 Z M 156.80 156.40 L 156.75 157.48 C 156.69 158.56 157.52 159.49 158.61 159.55 C 159.69 159.61 160.62 158.78 160.68 157.69 L 160.74 156.62 C 160.80 155.53 159.96 154.60 158.88 154.54 C 157.79 154.49 156.86 155.32 156.80 156.40 Z M 156.74 157.45 L 156.68 158.42 C 156.60 159.51 157.43 160.45 158.51 160.52 C 159.60 160.60 160.54 159.77 160.61 158.69 L 160.68 157.72 C 160.75 156.63 159.93 155.69 158.85 155.62 C 157.76 155.54 156.82 156.36 156.74 157.45 Z M 156.68 158.41 L 156.61 159.32 C 156.52 160.41 157.34 161.36 158.43 161.44 C 159.52 161.53 160.47 160.71 160.55 159.62 L 160.62 158.70 C 160.70 157.61 159.88 156.66 158.79 156.58 C 157.71 156.50 156.76 157.32 156.68 158.41 Z M 156.60 159.32 L 156.53 160.27 C 156.45 161.36 157.26 162.31 158.35 162.40 C 159.44 162.48 160.39 161.66 160.48 160.57 L 160.55 159.62 C 160.64 158.53 159.82 157.58 158.73 157.50 C 157.64 157.41 156.69 158.23 156.60 159.32 Z M 156.53 160.27 L 156.45 161.29 C 156.36 162.39 157.18 163.34 158.27 163.43 C 159.36 163.51 160.32 162.70 160.40 161.60 L 160.48 160.57 C 160.57 159.48 159.75 158.53 158.66 158.44 C 157.57 158.36 156.61 159.17 156.53 160.27 Z M 156.44 161.29 L 156.36 162.27 C 156.28 163.37 157.10 164.33 158.19 164.41 C 159.29 164.50 160.25 163.68 160.33 162.58 L 160.41 161.60 C 160.49 160.51 159.67 159.55 158.58 159.46 C 157.48 159.38 156.52 160.20 156.44 161.29 Z M 156.35 162.28 L 156.28 163.28 C 156.20 164.38 157.03 165.34 158.13 165.42 C 159.23 165.50 160.19 164.67 160.27 163.57 L 160.34 162.57 C 160.42 161.47 159.60 160.51 158.49 160.43 C 157.39 160.35 156.43 161.18 156.35 162.28 Z M 156.27 163.30 L 156.21 164.33 C 156.14 165.44 156.98 166.39 158.09 166.46 C 159.20 166.53 160.15 165.69 160.22 164.58 L 160.28 163.55 C 160.35 162.44 159.51 161.48 158.40 161.42 C 157.29 161.35 156.34 162.19 156.27 163.30 Z M 156.19 164.37 L 156.15 165.40 C 156.10 166.52 156.96 167.46 158.08 167.51 C 159.19 167.56 160.14 166.70 160.19 165.58 L 160.23 164.54 C 160.28 163.43 159.42 162.48 158.30 162.43 C 157.19 162.38 156.24 163.25 156.19 164.37 Z M 156.12 165.44 L 156.10 166.47 C 156.07 167.59 156.97 168.53 158.09 168.56 C 159.22 168.58 160.16 167.69 160.18 166.56 L 160.21 165.54 C 160.24 164.41 159.34 163.48 158.21 163.45 C 157.09 163.42 156.15 164.32 156.12 165.44 Z M 156.08 166.50 L 156.07 167.49 C 156.06 168.63 156.97 169.56 158.12 169.57 C 159.26 169.58 160.19 168.66 160.20 167.52 L 160.21 166.53 C 160.22 165.39 159.30 164.46 158.16 164.45 C 157.02 164.44 156.09 165.36 156.08 166.50 Z M 156.04 167.50 L 156.04 168.47 C 156.04 169.63 156.98 170.57 158.13 170.57 C 159.29 170.57 160.22 169.63 160.22 168.48 L 160.22 167.51 C 160.23 166.35 159.29 165.41 158.14 165.41 C 156.98 165.41 156.04 166.35 156.04 167.50 Z M 156.03 168.48 L 156.03 169.51 C 156.03 170.67 156.98 171.61 158.14 171.61 C 159.31 171.60 160.25 170.66 160.24 169.49 L 160.24 168.47 C 160.24 167.31 159.29 166.37 158.13 166.37 C 156.96 166.37 156.02 167.32 156.03 168.48 Z M 156.02 169.54 L 156.04 170.54 C 156.06 171.71 157.02 172.64 158.19 172.62 C 159.36 172.59 160.29 171.63 160.27 170.46 L 160.25 169.46 C 160.23 168.29 159.27 167.36 158.10 167.38 C 156.93 167.40 156.00 168.37 156.02 169.54 Z M 156.03 170.60 L 156.08 171.58 C 156.13 172.75 157.13 173.66 158.30 173.60 C 159.48 173.54 160.38 172.55 160.33 171.37 L 160.28 170.40 C 160.22 169.22 159.23 168.32 158.05 168.37 C 156.88 168.43 155.97 169.43 156.03 170.60 Z M 156.08 171.67 L 156.17 172.70 C 156.28 173.87 157.32 174.74 158.49 174.63 C 159.66 174.52 160.53 173.48 160.42 172.31 L 160.33 171.28 C 160.22 170.11 159.18 169.24 158.01 169.35 C 156.83 169.46 155.97 170.50 156.08 171.67 Z M 156.18 172.78 L 156.31 173.77 C 156.46 174.94 157.53 175.76 158.70 175.61 C 159.87 175.45 160.70 174.38 160.54 173.21 L 160.41 172.23 C 160.26 171.06 159.19 170.23 158.02 170.39 C 156.85 170.54 156.02 171.61 156.18 172.78 Z M 156.31 173.83 L 156.47 174.82 C 156.67 175.98 157.77 176.77 158.93 176.58 C 160.10 176.39 160.89 175.29 160.70 174.12 L 160.53 173.14 C 160.34 171.98 159.24 171.19 158.08 171.38 C 156.91 171.57 156.12 172.67 156.31 173.83 Z M 156.50 174.97 L 156.74 175.96 C 157.02 177.11 158.17 177.82 159.32 177.55 C 160.47 177.27 161.18 176.11 160.90 174.97 L 160.67 173.97 C 160.39 172.82 159.23 172.11 158.09 172.39 C 156.94 172.67 156.23 173.82 156.50 174.97 Z M 156.90 176.39 L 157.31 177.25 C 157.82 178.31 159.10 178.76 160.16 178.25 C 161.23 177.74 161.67 176.46 161.16 175.39 L 160.75 174.54 C 160.24 173.47 158.96 173.03 157.90 173.54 C 156.83 174.05 156.38 175.33 156.90 176.39 Z M 157.72 177.83 L 158.39 178.50 C 159.23 179.34 160.58 179.34 161.41 178.51 C 162.25 177.67 162.25 176.32 161.42 175.48 L 160.75 174.81 C 159.91 173.98 158.56 173.98 157.73 174.81 C 156.89 175.64 156.89 176.99 157.72 177.83 Z M 158.84 178.84 L 159.72 179.34 C 160.74 179.93 162.04 179.58 162.63 178.56 C 163.22 177.54 162.87 176.24 161.85 175.65 L 160.97 175.15 C 159.95 174.56 158.65 174.91 158.06 175.93 C 157.47 176.95 157.82 178.25 158.84 178.84 Z M 160.02 179.49 L 160.94 179.84 C 162.04 180.26 163.27 179.71 163.69 178.61 C 164.11 177.51 163.56 176.28 162.46 175.86 L 161.54 175.51 C 160.44 175.09 159.21 175.64 158.79 176.74 C 158.37 177.84 158.93 179.07 160.02 179.49 Z M 161.17 179.92 L 162.10 180.16 C 163.24 180.45 164.41 179.76 164.70 178.62 C 164.99 177.47 164.30 176.31 163.16 176.01 L 162.23 175.78 C 161.09 175.48 159.92 176.17 159.63 177.32 C 159.33 178.46 160.03 179.63 161.17 179.92 Z M 162.31 180.22 L 163.35 180.37 C 164.52 180.55 165.62 179.74 165.80 178.57 C 165.98 177.39 165.17 176.29 163.99 176.11 L 162.95 175.96 C 161.78 175.78 160.68 176.59 160.50 177.76 C 160.32 178.94 161.13 180.04 162.31 180.22 Z M 163.51 180.40 L 164.53 180.48 C 165.72 180.57 166.76 179.67 166.85 178.48 C 166.94 177.29 166.05 176.25 164.85 176.16 L 163.83 176.09 C 162.64 176.00 161.60 176.89 161.51 178.08 C 161.42 179.27 162.32 180.31 163.51 180.40 Z M 164.63 180.48 L 165.66 180.51 C 166.85 180.55 167.85 179.61 167.89 178.42 C 167.92 177.22 166.98 176.23 165.79 176.19 L 164.76 176.16 C 163.56 176.12 162.57 177.06 162.53 178.26 C 162.49 179.45 163.43 180.45 164.63 180.48 Z M 165.72 180.51 L 166.73 180.52 C 167.92 180.52 168.89 179.55 168.89 178.36 C 168.90 177.16 167.93 176.19 166.74 176.19 L 165.73 176.19 C 164.53 176.19 163.56 177.15 163.56 178.35 C 163.56 179.54 164.53 180.51 165.72 180.51 Z M 166.77 180.51 L 167.80 180.50 C 169.00 180.48 169.95 179.49 169.93 178.30 C 169.90 177.10 168.92 176.15 167.73 176.17 L 166.69 176.19 C 165.50 176.21 164.55 177.20 164.57 178.39 C 164.59 179.59 165.58 180.54 166.77 180.51 Z M 167.87 180.49 L 168.88 180.45 C 170.07 180.39 170.99 179.38 170.94 178.18 C 170.88 176.99 169.87 176.07 168.68 176.13 L 167.66 176.18 C 166.47 176.23 165.55 177.25 165.61 178.44 C 165.66 179.63 166.68 180.55 167.87 180.49 Z M 169.01 180.43 L 169.93 180.33 C 171.11 180.20 171.97 179.14 171.84 177.95 C 171.71 176.77 170.64 175.91 169.46 176.04 L 168.54 176.14 C 167.36 176.27 166.50 177.34 166.63 178.52 C 166.76 179.71 167.83 180.56 169.01 180.43 Z M 170.09 180.31 L 171.06 180.13 C 172.23 179.91 173.00 178.78 172.78 177.61 C 172.56 176.44 171.43 175.66 170.26 175.89 L 169.29 176.07 C 168.12 176.29 167.35 177.42 167.57 178.59 C 167.79 179.76 168.92 180.53 170.09 180.31 Z M 171.18 180.09 L 172.16 179.85 C 173.31 179.56 174.01 178.39 173.72 177.23 C 173.43 176.08 172.26 175.38 171.11 175.67 L 170.13 175.92 C 168.98 176.21 168.28 177.38 168.57 178.53 C 168.86 179.68 170.03 180.38 171.18 180.09 Z M 172.24 179.82 L 173.20 179.54 C 174.34 179.21 174.99 178.01 174.66 176.87 C 174.32 175.73 173.13 175.08 171.99 175.41 L 171.03 175.70 C 169.89 176.03 169.24 177.23 169.57 178.37 C 169.91 179.50 171.10 180.16 172.24 179.82 Z M 173.26 179.52 L 174.21 179.21 C 175.34 178.85 175.95 177.64 175.59 176.51 C 175.22 175.38 174.02 174.76 172.89 175.13 L 171.94 175.44 C 170.81 175.80 170.19 177.01 170.55 178.14 C 170.92 179.26 172.13 179.88 173.26 179.52 Z M 174.25 179.19 L 175.19 178.87 C 176.31 178.48 176.90 177.26 176.51 176.14 C 176.12 175.03 174.90 174.43 173.79 174.82 L 172.85 175.15 C 171.73 175.53 171.14 176.75 171.52 177.87 C 171.91 178.99 173.13 179.58 174.25 179.19 Z M 175.23 178.85 L 176.14 178.51 C 177.25 178.10 177.82 176.87 177.40 175.76 C 176.99 174.65 175.76 174.09 174.66 174.50 L 173.74 174.84 C 172.64 175.25 172.07 176.48 172.48 177.59 C 172.89 178.70 174.12 179.26 175.23 178.85 Z M 176.21 178.48 L 177.15 178.09 C 178.24 177.65 178.77 176.40 178.32 175.31 C 177.87 174.22 176.63 173.70 175.54 174.14 L 174.59 174.53 C 173.50 174.98 172.98 176.22 173.42 177.31 C 173.87 178.40 175.12 178.93 176.21 178.48 Z M 177.23 178.06 L 178.15 177.64 C 179.22 177.16 179.70 175.89 179.21 174.82 C 178.72 173.75 177.46 173.27 176.39 173.76 L 175.47 174.18 C 174.39 174.66 173.92 175.93 174.40 177.00 C 174.89 178.07 176.15 178.55 177.23 178.06 Z M 178.19 177.62 L 179.11 177.18 C 180.17 176.67 180.61 175.40 180.10 174.34 C 179.59 173.28 178.32 172.83 177.26 173.34 L 176.34 173.78 C 175.28 174.29 174.84 175.56 175.35 176.62 C 175.86 177.68 177.13 178.13 178.19 177.62 Z M 179.12 177.17 L 180.00 176.74 C 181.06 176.23 181.50 174.95 180.98 173.90 C 180.47 172.84 179.19 172.40 178.14 172.92 L 177.25 173.35 C 176.19 173.86 175.76 175.14 176.27 176.19 C 176.79 177.25 178.06 177.69 179.12 177.17 Z M 179.97 176.76 L 180.91 176.33 C 181.98 175.83 182.44 174.56 181.94 173.49 C 181.44 172.42 180.17 171.96 179.10 172.46 L 178.17 172.89 C 177.10 173.39 176.64 174.66 177.13 175.73 C 177.63 176.80 178.91 177.26 179.97 176.76 Z M 180.81 176.39 L 181.72 176.02 C 182.82 175.58 183.35 174.32 182.91 173.22 C 182.46 172.12 181.21 171.59 180.11 172.03 L 179.20 172.39 C 178.10 172.84 177.57 174.09 178.01 175.20 C 178.46 176.30 179.71 176.83 180.81 176.39 Z M 181.56 176.11 L 182.54 175.80 C 183.69 175.45 184.33 174.23 183.97 173.08 C 183.62 171.93 182.40 171.29 181.25 171.64 L 180.27 171.95 C 179.12 172.30 178.48 173.52 178.83 174.67 C 179.19 175.82 180.41 176.46 181.56 176.11 Z M 182.63 175.81 L 183.59 175.48 C 184.74 175.07 185.35 173.80 184.94 172.65 C 184.53 171.49 183.26 170.89 182.11 171.29 L 181.15 171.63 C 180.00 172.04 179.39 173.31 179.80 174.46 C 180.21 175.62 181.48 176.22 182.63 175.81 Z M 184.29 175.13 L 184.97 174.56 C 185.93 173.77 186.07 172.34 185.27 171.38 C 184.47 170.42 183.05 170.28 182.09 171.08 L 181.41 171.64 C 180.44 172.44 180.31 173.87 181.11 174.83 C 181.90 175.79 183.33 175.92 184.29 175.13 Z M 185.67 173.63 L 186.01 172.75 C 186.46 171.57 185.86 170.24 184.68 169.79 C 183.49 169.35 182.17 169.94 181.72 171.13 L 181.38 172.01 C 180.93 173.19 181.53 174.52 182.72 174.97 C 183.90 175.42 185.23 174.82 185.67 173.63 Z M 186.16 172.29 L 186.32 171.24 C 186.51 169.97 185.65 168.79 184.38 168.59 C 183.11 168.39 181.93 169.26 181.73 170.53 L 181.57 171.59 C 181.38 172.85 182.24 174.04 183.51 174.23 C 184.78 174.43 185.96 173.56 186.16 172.29 Z M 186.34 171.18 L 186.46 170.24 C 186.63 168.96 185.72 167.79 184.45 167.63 C 183.17 167.47 182.00 168.37 181.83 169.65 L 181.71 170.58 C 181.55 171.86 182.45 173.03 183.73 173.20 C 185.01 173.36 186.18 172.46 186.34 171.18 Z M 186.47 170.20 L 186.58 169.19 C 186.72 167.90 185.79 166.75 184.51 166.61 C 183.22 166.47 182.07 167.40 181.93 168.69 L 181.82 169.69 C 181.68 170.98 182.61 172.13 183.90 172.27 C 185.18 172.41 186.33 171.48 186.47 170.20 Z M 186.59 169.10 L 186.67 168.06 C 186.76 166.77 185.78 165.65 184.49 165.56 C 183.20 165.47 182.08 166.45 181.99 167.74 L 181.92 168.78 C 181.83 170.07 182.80 171.19 184.09 171.28 C 185.38 171.37 186.50 170.39 186.59 169.10 Z M 186.67 167.97 L 186.70 166.97 C 186.74 165.68 185.72 164.60 184.43 164.56 C 183.13 164.52 182.05 165.54 182.01 166.84 L 181.98 167.83 C 181.94 169.13 182.96 170.21 184.26 170.25 C 185.55 170.28 186.63 169.26 186.67 167.97 Z M 186.70 166.90 L 186.70 165.88 C 186.70 164.59 185.64 163.54 184.35 163.54 C 183.05 163.55 182.00 164.60 182.01 165.90 L 182.01 166.91 C 182.01 168.21 183.07 169.26 184.36 169.25 C 185.66 169.25 186.71 168.19 186.70 166.90 Z M 186.70 165.81 L 186.67 164.81 C 186.62 163.51 185.54 162.49 184.24 162.54 C 182.95 162.58 181.93 163.67 181.97 164.96 L 182.01 165.97 C 182.05 167.26 183.14 168.28 184.43 168.24 C 185.73 168.19 186.74 167.11 186.70 165.81 Z M 186.65 164.74 L 186.59 163.71 C 186.51 162.42 185.40 161.44 184.11 161.52 C 182.83 161.60 181.85 162.71 181.93 164.00 L 181.99 165.03 C 182.07 166.31 183.18 167.29 184.46 167.21 C 185.75 167.13 186.73 166.03 186.65 164.74 Z M 186.56 163.67 L 186.48 162.68 C 186.38 161.41 185.26 160.46 183.99 160.56 C 182.72 160.66 181.77 161.78 181.87 163.05 L 181.95 164.04 C 182.06 165.31 183.17 166.26 184.44 166.15 C 185.71 166.05 186.66 164.94 186.56 163.67 Z M 186.45 162.67 L 186.37 161.71 C 186.26 160.45 185.16 159.52 183.90 159.63 C 182.65 159.73 181.72 160.84 181.82 162.09 L 181.90 163.05 C 182.01 164.31 183.11 165.24 184.37 165.14 C 185.62 165.03 186.56 163.93 186.45 162.67 Z M 186.32 161.73 L 186.24 160.75 C 186.15 159.53 185.08 158.61 183.85 158.70 C 182.63 158.79 181.71 159.86 181.80 161.09 L 181.88 162.07 C 181.97 163.29 183.04 164.21 184.26 164.12 C 185.49 164.03 186.41 162.96 186.32 161.73 Z M 186.16 160.78 L 186.10 159.78 C 186.02 158.60 184.99 157.71 183.81 157.79 C 182.63 157.86 181.73 158.89 181.81 160.07 L 181.88 161.06 C 181.96 162.25 182.98 163.14 184.17 163.06 C 185.35 162.98 186.24 161.96 186.16 160.78 Z M 186.02 159.80 L 185.96 158.79 C 185.89 157.65 184.90 156.78 183.76 156.86 C 182.62 156.93 181.75 157.91 181.83 159.05 L 181.89 160.06 C 181.96 161.20 182.94 162.06 184.08 161.99 C 185.23 161.92 186.09 160.94 186.02 159.80 Z M 185.89 158.80 L 185.83 157.84 C 185.76 156.74 184.82 155.90 183.72 155.97 C 182.61 156.03 181.78 156.98 181.84 158.08 L 181.90 159.04 C 181.96 160.14 182.91 160.98 184.01 160.92 C 185.11 160.85 185.95 159.90 185.89 158.80 Z M 185.76 157.86 L 185.71 156.85 C 185.65 155.79 184.74 154.97 183.68 155.03 C 182.61 155.09 181.80 156.00 181.85 157.06 L 181.91 158.07 C 181.97 159.13 182.88 159.95 183.94 159.89 C 185.00 159.83 185.82 158.92 185.76 157.86 Z M 185.64 156.87 L 185.59 155.83 C 185.54 154.80 184.67 154.01 183.65 154.05 C 182.62 154.10 181.83 154.97 181.87 156.00 L 181.92 157.04 C 181.97 158.07 182.84 158.86 183.87 158.82 C 184.89 158.77 185.69 157.90 185.64 156.87 Z M 185.53 155.85 L 185.49 154.86 C 185.45 153.87 184.62 153.10 183.63 153.14 C 182.64 153.17 181.86 154.01 181.90 155.00 L 181.94 155.98 C 181.97 156.97 182.81 157.74 183.80 157.71 C 184.79 157.67 185.56 156.84 185.53 155.85 Z M 185.43 154.88 L 185.40 153.88 C 185.37 152.92 184.57 152.17 183.61 152.20 C 182.66 152.23 181.90 153.03 181.93 153.98 L 181.96 154.98 C 181.99 155.94 182.79 156.69 183.75 156.66 C 184.70 156.63 185.46 155.83 185.43 154.88 Z M 185.34 153.89 L 185.31 152.88 C 185.29 151.96 184.52 151.23 183.60 151.25 C 182.67 151.27 181.94 152.04 181.97 152.97 L 181.99 153.98 C 182.02 154.90 182.79 155.63 183.71 155.60 C 184.63 155.58 185.36 154.81 185.34 153.89 Z M 185.26 152.88 L 185.24 152.19 C 185.22 151.30 184.48 150.59 183.58 150.61 C 182.69 150.63 181.98 151.38 182.00 152.27 L 182.02 152.96 C 182.04 153.86 182.78 154.56 183.68 154.54 C 184.57 154.52 185.28 153.78 185.26 152.88 Z"
      fill="black"
      fill-rule="nonzero" /></svg>