<svg xmlns="http://www.w3.org/2000/svg" width="300" height="300" viewBox="0 0 300 300">
<path d="M 157.01 129.15 L 157.20 128.16 C 157.38 127.26 156.80 126.39 155.90 126.21 C 155.00 126.03 154.13 126.62 153.95 127.52 L 153.75 128.50 C 153.58 129.40 154.16 130.27 155.06 130.45 C 155.96 130.63 156.83 130.04 157.01 129.15 Z M 157.23 128.11 L 157.39 127.12 C 157.53 126.21 156.92 125.35 156.00 125.20 C 155.09 125.05 154.23 125.67 154.09 126.58 L 153.93 127.57 C 153.78 128.48 154.40 129.34 155.31 129.49 C 156.22 129.64 157.08 129.02 157.23 128.11 Z M 157.43 127.00 L 157.52 125.99 C 157.60 125.06 156.91 124.23 155.97 124.15 C 155.04 124.07 154.21 124.76 154.13 125.70 L 154.04 126.70 C 153.96 127.64 154.65 128.47 155.59 128.55 C 156.52 128.63 157.35 127.94 157.43 127.00 Z M 157.58 125.69 L 157.49 124.70 C 157.41 123.73 156.56 123.02 155.59 123.10 C 154.62 123.18 153.90 124.04 153.98 125.01 L 154.07 126.00 C 154.15 126.96 155.01 127.68 155.98 127.60 C 156.94 127.51 157.66 126.66 157.58 125.69 Z M 157.41 124.12 L 157.02 123.24 C 156.61 122.32 155.54 121.91 154.62 122.31 C 153.70 122.72 153.28 123.80 153.69 124.72 L 154.07 125.59 C 154.48 126.51 155.55 126.93 156.47 126.52 C 157.40 126.11 157.81 125.04 157.41 124.12 Z M 156.68 122.68 L 156.00 121.99 C 155.29 121.25 154.11 121.24 153.38 121.95 C 152.64 122.67 152.63 123.85 153.34 124.58 L 154.02 125.28 C 154.74 126.01 155.92 126.03 156.65 125.31 C 157.38 124.59 157.40 123.42 156.68 122.68 Z M 155.65 121.69 L 154.77 121.15 C 153.89 120.61 152.74 120.88 152.20 121.76 C 151.66 122.64 151.93 123.80 152.81 124.34 L 153.69 124.88 C 154.57 125.42 155.73 125.14 156.27 124.26 C 156.81 123.38 156.53 122.23 155.65 121.69 Z M 154.45 120.98 L 153.51 120.63 C 152.54 120.26 151.45 120.76 151.09 121.73 C 150.72 122.70 151.21 123.78 152.19 124.15 L 153.13 124.50 C 154.10 124.87 155.19 124.38 155.55 123.40 C 155.92 122.43 155.43 121.35 154.45 120.98 Z M 153.21 120.54 L 152.23 120.35 C 151.21 120.15 150.22 120.82 150.02 121.84 C 149.82 122.86 150.49 123.85 151.51 124.04 L 152.49 124.24 C 153.51 124.43 154.50 123.77 154.70 122.75 C 154.89 121.73 154.23 120.74 153.21 120.54 Z M 151.96 120.32 L 150.96 120.27 C 149.92 120.22 149.04 121.02 148.99 122.06 C 148.94 123.10 149.74 123.98 150.78 124.03 L 151.78 124.08 C 152.82 124.13 153.70 123.33 153.75 122.29 C 153.80 121.25 153.00 120.37 151.96 120.32 Z M 150.66 120.29 L 149.67 120.40 C 148.64 120.51 147.90 121.44 148.01 122.47 C 148.12 123.50 149.05 124.24 150.08 124.12 L 151.08 124.01 C 152.10 123.90 152.85 122.97 152.73 121.94 C 152.62 120.91 151.69 120.17 150.66 120.29 Z M 149.22 120.51 L 148.30 120.86 C 147.33 121.22 146.84 122.29 147.20 123.26 C 147.56 124.22 148.64 124.71 149.60 124.35 L 150.52 124.01 C 151.49 123.65 151.98 122.57 151.62 121.61 C 151.26 120.64 150.18 120.15 149.22 120.51 Z M 147.79 121.16 L 147.04 121.76 C 146.24 122.40 146.11 123.57 146.75 124.37 C 147.39 125.17 148.56 125.30 149.36 124.65 L 150.11 124.05 C 150.91 123.41 151.04 122.24 150.40 121.44 C 149.76 120.64 148.59 120.51 147.79 121.16 Z M 146.71 122.11 L 146.11 122.91 C 145.51 123.74 145.68 124.90 146.51 125.50 C 147.33 126.11 148.49 125.93 149.10 125.11 L 149.69 124.30 C 150.30 123.48 150.12 122.32 149.30 121.71 C 148.47 121.11 147.31 121.28 146.71 122.11 Z M 145.94 123.21 L 145.49 124.14 C 145.05 125.06 145.44 126.17 146.36 126.61 C 147.29 127.05 148.39 126.66 148.83 125.74 L 149.27 124.81 C 149.72 123.89 149.33 122.78 148.40 122.34 C 147.48 121.90 146.38 122.29 145.94 123.21 Z M 145.39 124.41 L 145.11 125.33 C 144.82 126.31 145.37 127.34 146.35 127.63 C 147.33 127.93 148.36 127.38 148.65 126.40 L 148.93 125.47 C 149.23 124.50 148.67 123.46 147.69 123.17 C 146.72 122.88 145.69 123.43 145.39 124.41 Z M 145.06 125.55 L 144.90 126.53 C 144.72 127.53 145.40 128.49 146.41 128.66 C 147.41 128.83 148.37 128.15 148.54 127.15 L 148.71 126.18 C 148.88 125.17 148.20 124.22 147.19 124.04 C 146.19 123.87 145.23 124.55 145.06 125.55 Z M 144.88 126.68 L 144.79 127.72 C 144.70 128.74 145.45 129.63 146.47 129.72 C 147.49 129.81 148.38 129.05 148.47 128.04 L 148.56 126.99 C 148.65 125.98 147.89 125.08 146.87 125.00 C 145.86 124.91 144.96 125.66 144.88 126.68 Z M 144.78 127.81 L 144.74 128.82 C 144.70 129.84 145.49 130.70 146.51 130.74 C 147.53 130.78 148.39 129.99 148.43 128.97 L 148.47 127.95 C 148.51 126.93 147.72 126.07 146.70 126.03 C 145.68 125.99 144.82 126.79 144.78 127.81 Z M 144.74 128.86 L 144.73 129.89 C 144.71 130.91 145.52 131.75 146.54 131.76 C 147.56 131.78 148.40 130.97 148.42 129.95 L 148.43 128.92 C 148.45 127.90 147.64 127.06 146.62 127.05 C 145.60 127.03 144.76 127.84 144.74 128.86 Z M 144.73 129.91 L 144.73 130.89 C 144.72 131.91 145.54 132.73 146.56 132.74 C 147.58 132.74 148.41 131.92 148.41 130.90 L 148.41 129.92 C 148.42 128.91 147.59 128.08 146.58 128.08 C 145.56 128.07 144.73 128.90 144.73 129.91 Z M 144.73 130.90 L 144.73 131.95 C 144.73 132.97 145.56 133.79 146.57 133.79 C 147.59 133.79 148.41 132.96 148.41 131.95 L 148.41 130.89 C 148.41 129.87 147.58 129.05 146.56 129.05 C 145.55 129.06 144.73 129.88 144.73 130.90 Z M 144.73 131.99 L 144.75 132.96 C 144.77 133.98 145.61 134.79 146.63 134.76 C 147.65 134.74 148.45 133.90 148.43 132.88 L 148.41 131.91 C 148.39 130.89 147.55 130.09 146.53 130.11 C 145.51 130.13 144.71 130.97 144.73 131.99 Z M 144.76 133.05 L 144.82 133.99 C 144.89 135.00 145.77 135.77 146.78 135.70 C 147.79 135.63 148.56 134.76 148.49 133.74 L 148.43 132.80 C 148.36 131.79 147.48 131.02 146.47 131.09 C 145.45 131.16 144.69 132.03 144.76 133.05 Z M 144.83 134.09 L 144.95 135.07 C 145.07 136.08 145.99 136.80 147.00 136.67 C 148.01 136.55 148.72 135.63 148.60 134.62 L 148.48 133.64 C 148.36 132.63 147.44 131.92 146.43 132.04 C 145.42 132.16 144.71 133.08 144.83 134.09 Z M 144.96 135.15 L 145.13 136.15 C 145.29 137.15 146.24 137.83 147.24 137.66 C 148.24 137.50 148.92 136.55 148.76 135.55 L 148.59 134.55 C 148.42 133.54 147.48 132.87 146.47 133.03 C 145.47 133.20 144.79 134.14 144.96 135.15 Z M 145.14 136.21 L 145.33 137.18 C 145.53 138.17 146.49 138.82 147.49 138.63 C 148.49 138.43 149.13 137.46 148.94 136.46 L 148.75 135.49 C 148.55 134.50 147.58 133.85 146.58 134.05 C 145.59 134.24 144.94 135.21 145.14 136.21 Z M 145.34 137.23 L 145.56 138.21 C 145.79 139.20 146.78 139.81 147.77 139.59 C 148.76 139.36 149.38 138.37 149.15 137.38 L 148.93 136.41 C 148.70 135.42 147.71 134.80 146.72 135.03 C 145.73 135.26 145.11 136.24 145.34 137.23 Z M 145.58 138.26 L 145.84 139.24 C 146.09 140.22 147.10 140.81 148.08 140.55 C 149.07 140.29 149.65 139.29 149.39 138.30 L 149.13 137.33 C 148.88 136.34 147.87 135.76 146.89 136.02 C 145.91 136.28 145.32 137.28 145.58 138.26 Z M 145.85 139.29 L 146.13 140.24 C 146.42 141.21 147.44 141.77 148.42 141.48 C 149.39 141.19 149.94 140.17 149.66 139.20 L 149.38 138.25 C 149.09 137.28 148.07 136.72 147.09 137.01 C 146.12 137.30 145.56 138.32 145.85 139.29 Z M 146.14 140.27 L 146.45 141.23 C 146.75 142.20 147.78 142.73 148.74 142.43 C 149.71 142.13 150.25 141.10 149.95 140.13 L 149.64 139.17 C 149.34 138.20 148.31 137.67 147.35 137.97 C 146.38 138.27 145.84 139.30 146.14 140.27 Z M 146.45 141.23 L 146.76 142.19 C 147.06 143.16 148.09 143.69 149.05 143.38 C 150.02 143.08 150.55 142.05 150.24 141.08 L 149.94 140.13 C 149.63 139.16 148.60 138.63 147.64 138.93 C 146.68 139.24 146.14 140.27 146.45 141.23 Z M 146.76 142.19 L 147.06 143.14 C 147.37 144.10 148.39 144.63 149.36 144.33 C 150.32 144.02 150.85 142.99 150.54 142.03 L 150.24 141.08 C 149.94 140.12 148.91 139.59 147.95 139.90 C 146.98 140.20 146.45 141.23 146.76 142.19 Z M 147.07 143.15 L 147.38 144.11 C 147.69 145.07 148.72 145.59 149.68 145.28 C 150.64 144.96 151.16 143.93 150.85 142.97 L 150.54 142.02 C 150.22 141.06 149.19 140.54 148.23 140.85 C 147.28 141.17 146.76 142.20 147.07 143.15 Z M 147.39 144.14 L 147.72 145.08 C 148.05 146.03 149.08 146.53 150.03 146.20 C 150.98 145.88 151.49 144.84 151.16 143.89 L 150.84 142.95 C 150.51 142.00 149.47 141.49 148.52 141.82 C 147.57 142.15 147.07 143.19 147.39 144.14 Z M 147.73 145.10 L 148.07 146.04 C 148.41 146.98 149.46 147.47 150.40 147.12 C 151.34 146.78 151.83 145.74 151.49 144.80 L 151.15 143.86 C 150.80 142.92 149.76 142.43 148.82 142.78 C 147.88 143.12 147.39 144.16 147.73 145.10 Z M 148.08 146.05 L 148.43 147.00 C 148.79 147.93 149.83 148.41 150.77 148.06 C 151.71 147.71 152.18 146.66 151.83 145.72 L 151.48 144.78 C 151.12 143.84 150.08 143.37 149.14 143.72 C 148.20 144.07 147.73 145.12 148.08 146.05 Z M 148.44 147.00 L 148.81 147.95 C 149.16 148.89 150.21 149.36 151.14 149.00 C 152.07 148.65 152.54 147.60 152.18 146.67 L 151.82 145.72 C 151.47 144.78 150.42 144.31 149.49 144.67 C 148.56 145.03 148.09 146.07 148.44 147.00 Z M 148.82 147.96 L 149.18 148.91 C 149.54 149.84 150.58 150.30 151.51 149.94 C 152.44 149.58 152.90 148.54 152.54 147.61 L 152.17 146.66 C 151.81 145.74 150.77 145.28 149.85 145.63 C 148.92 145.99 148.46 147.03 148.82 147.96 Z M 149.20 148.92 L 149.57 149.84 C 149.94 150.76 150.98 151.21 151.89 150.84 C 152.81 150.47 153.26 149.43 152.89 148.52 L 152.52 147.60 C 152.16 146.68 151.12 146.23 150.20 146.60 C 149.28 146.97 148.84 148.01 149.20 148.92 Z M 149.59 149.87 L 149.99 150.81 C 150.37 151.72 151.41 152.15 152.32 151.76 C 153.22 151.38 153.65 150.34 153.27 149.43 L 152.87 148.49 C 152.49 147.59 151.45 147.16 150.54 147.54 C 149.63 147.92 149.21 148.97 149.59 149.87 Z M 150.01 150.85 L 150.42 151.77 C 150.82 152.67 151.87 153.07 152.77 152.67 C 153.66 152.26 154.06 151.21 153.66 150.32 L 153.25 149.40 C 152.85 148.50 151.79 148.10 150.90 148.50 C 150.00 148.91 149.60 149.96 150.01 150.85 Z M 150.44 151.81 L 150.84 152.67 C 151.27 153.55 152.33 153.93 153.21 153.50 C 154.10 153.08 154.47 152.02 154.05 151.14 L 153.64 150.28 C 153.22 149.39 152.16 149.02 151.28 149.44 C 150.39 149.86 150.01 150.92 150.44 151.81 Z M 150.86 152.70 L 151.25 153.47 C 151.69 154.35 152.76 154.70 153.63 154.26 C 154.51 153.82 154.86 152.75 154.42 151.87 L 154.04 151.10 C 153.60 150.23 152.53 149.87 151.65 150.31 C 150.77 150.75 150.42 151.82 150.86 152.70 Z M 151.26 153.50 L 151.72 154.37 C 152.18 155.23 153.25 155.57 154.12 155.11 C 154.99 154.65 155.32 153.57 154.86 152.71 L 154.41 151.84 C 153.95 150.97 152.87 150.64 152.01 151.10 C 151.14 151.56 150.81 152.63 151.26 153.50 Z M 151.73 154.39 L 152.27 155.39 C 152.75 156.25 153.83 156.56 154.69 156.09 C 155.55 155.62 155.87 154.54 155.40 153.68 L 154.85 152.68 C 154.38 151.82 153.30 151.50 152.44 151.98 C 151.58 152.45 151.26 153.53 151.73 154.39 Z M 152.27 155.40 L 152.74 156.25 C 153.22 157.11 154.30 157.42 155.17 156.95 C 156.03 156.47 156.34 155.38 155.87 154.52 L 155.40 153.67 C 154.92 152.81 153.84 152.49 152.97 152.97 C 152.11 153.45 151.80 154.53 152.27 155.40 Z M 152.73 156.24 L 153.23 157.16 C 153.71 158.03 154.80 158.35 155.67 157.88 C 156.53 157.40 156.85 156.31 156.38 155.44 L 155.88 154.52 C 155.40 153.65 154.31 153.33 153.45 153.81 C 152.58 154.28 152.26 155.37 152.73 156.24 Z M 153.21 157.15 L 153.70 158.07 C 154.17 158.95 155.26 159.28 156.14 158.82 C 157.02 158.35 157.36 157.26 156.89 156.38 L 156.40 155.45 C 155.93 154.57 154.84 154.24 153.96 154.71 C 153.08 155.17 152.74 156.27 153.21 157.15 Z M 153.67 158.04 L 154.11 158.90 C 154.56 159.80 155.65 160.16 156.54 159.71 C 157.44 159.26 157.80 158.17 157.35 157.27 L 156.91 156.41 C 156.46 155.51 155.37 155.15 154.48 155.60 C 153.58 156.05 153.22 157.14 153.67 158.04 Z M 154.06 158.82 L 154.53 159.88 C 154.93 160.80 156.01 161.22 156.93 160.81 C 157.85 160.40 158.27 159.32 157.86 158.40 L 157.40 157.35 C 156.99 156.43 155.91 156.01 154.99 156.42 C 154.07 156.83 153.65 157.90 154.06 158.82 Z M 154.45 159.71 L 154.75 160.63 C 155.07 161.59 156.11 162.11 157.07 161.80 C 158.03 161.48 158.56 160.44 158.24 159.48 L 157.94 158.57 C 157.62 157.60 156.58 157.08 155.62 157.40 C 154.66 157.72 154.13 158.75 154.45 159.71 Z M 154.69 160.41 L 154.85 161.27 C 155.05 162.27 156.01 162.93 157.01 162.73 C 158.01 162.54 158.67 161.57 158.47 160.57 L 158.31 159.70 C 158.11 158.70 157.15 158.05 156.15 158.24 C 155.15 158.44 154.49 159.40 154.69 160.41 Z M 154.80 161.03 L 154.86 162.03 C 154.92 163.05 155.80 163.84 156.83 163.78 C 157.86 163.72 158.64 162.84 158.58 161.81 L 158.52 160.81 C 158.47 159.79 157.58 159.00 156.56 159.06 C 155.53 159.12 154.74 160.00 154.80 161.03 Z M 154.84 161.73 L 154.74 162.73 C 154.63 163.77 155.39 164.70 156.43 164.80 C 157.48 164.91 158.40 164.15 158.51 163.11 L 158.61 162.11 C 158.71 161.06 157.95 160.14 156.91 160.03 C 155.87 159.93 154.94 160.69 154.84 161.73 Z M 154.79 162.35 L 154.49 163.30 C 154.18 164.31 154.75 165.39 155.76 165.70 C 156.78 166.01 157.85 165.45 158.17 164.43 L 158.46 163.49 C 158.77 162.47 158.20 161.40 157.19 161.08 C 156.18 160.77 155.10 161.34 154.79 162.35 Z M 154.64 162.90 L 154.15 163.76 C 153.61 164.69 153.93 165.88 154.87 166.41 C 155.80 166.95 156.99 166.63 157.52 165.69 L 158.02 164.83 C 158.55 163.90 158.23 162.71 157.30 162.18 C 156.37 161.64 155.18 161.96 154.64 162.90 Z M 154.32 163.47 L 153.68 164.24 C 152.99 165.08 153.11 166.32 153.94 167.01 C 154.78 167.71 156.02 167.59 156.71 166.75 L 157.35 165.98 C 158.04 165.14 157.93 163.90 157.09 163.21 C 156.25 162.52 155.01 162.63 154.32 163.47 Z M 153.82 164.06 L 153.09 164.76 C 152.30 165.52 152.28 166.78 153.04 167.57 C 153.80 168.37 155.06 168.39 155.85 167.63 L 156.58 166.93 C 157.37 166.17 157.39 164.91 156.63 164.12 C 155.87 163.33 154.61 163.30 153.82 164.06 Z M 153.21 164.63 L 152.43 165.26 C 151.57 165.96 151.43 167.22 152.13 168.08 C 152.82 168.94 154.08 169.08 154.95 168.39 L 155.73 167.76 C 156.59 167.06 156.73 165.80 156.03 164.94 C 155.34 164.08 154.08 163.94 153.21 164.63 Z M 152.55 165.15 L 151.73 165.72 C 150.80 166.35 150.57 167.61 151.20 168.53 C 151.83 169.45 153.09 169.69 154.01 169.06 L 154.83 168.49 C 155.75 167.86 155.99 166.61 155.36 165.68 C 154.73 164.76 153.47 164.52 152.55 165.15 Z M 151.85 165.62 L 150.97 166.13 C 149.99 166.69 149.66 167.93 150.22 168.91 C 150.78 169.89 152.02 170.22 153.00 169.66 L 153.88 169.15 C 154.86 168.59 155.19 167.35 154.63 166.37 C 154.07 165.40 152.83 165.06 151.85 165.62 Z M 151.12 166.03 L 150.23 166.44 C 149.20 166.92 148.75 168.13 149.22 169.16 C 149.70 170.19 150.92 170.64 151.95 170.17 L 152.84 169.76 C 153.87 169.29 154.32 168.07 153.85 167.04 C 153.37 166.01 152.15 165.56 151.12 166.03 Z M 150.44 166.35 L 149.50 166.66 C 148.42 167.02 147.83 168.19 148.19 169.27 C 148.55 170.35 149.72 170.94 150.80 170.58 L 151.74 170.26 C 152.82 169.90 153.40 168.74 153.05 167.66 C 152.69 166.57 151.52 165.99 150.44 166.35 Z M 149.78 166.58 L 148.81 166.76 C 147.68 166.96 146.93 168.04 147.14 169.16 C 147.34 170.28 148.41 171.03 149.54 170.83 L 150.51 170.65 C 151.64 170.45 152.38 169.38 152.18 168.25 C 151.98 167.13 150.91 166.38 149.78 166.58 Z M 149.15 166.72 L 148.14 166.73 C 147.00 166.74 146.08 167.68 146.09 168.82 C 146.10 169.97 147.04 170.89 148.18 170.87 L 149.19 170.86 C 150.33 170.85 151.25 169.92 151.24 168.77 C 151.23 167.63 150.30 166.71 149.15 166.72 Z M 148.53 166.77 L 147.53 166.59 C 146.41 166.39 145.33 167.13 145.13 168.26 C 144.93 169.39 145.68 170.46 146.80 170.66 L 147.80 170.84 C 148.92 171.04 150.00 170.30 150.20 169.17 C 150.40 168.04 149.65 166.97 148.53 166.77 Z M 148.02 166.74 L 147.13 166.34 C 146.09 165.87 144.86 166.33 144.39 167.37 C 143.92 168.41 144.39 169.64 145.43 170.11 L 146.32 170.51 C 147.36 170.98 148.58 170.52 149.05 169.48 C 149.52 168.44 149.06 167.21 148.02 166.74 Z M 147.66 166.69 L 146.94 166.04 C 146.09 165.27 144.78 165.34 144.02 166.19 C 143.25 167.04 143.32 168.34 144.17 169.11 L 144.90 169.76 C 145.74 170.53 147.05 170.46 147.82 169.61 C 148.58 168.76 148.51 167.45 147.66 166.69 Z M 147.23 166.37 L 146.64 165.54 C 145.97 164.62 144.68 164.41 143.76 165.07 C 142.83 165.74 142.62 167.03 143.29 167.95 L 143.88 168.78 C 144.54 169.70 145.84 169.91 146.76 169.25 C 147.69 168.58 147.90 167.29 147.23 166.37 Z M 146.75 165.71 L 146.24 164.84 C 145.67 163.86 144.40 163.52 143.42 164.10 C 142.44 164.67 142.10 165.93 142.67 166.92 L 143.18 167.79 C 143.75 168.77 145.02 169.10 146.00 168.53 C 146.98 167.96 147.32 166.69 146.75 165.71 Z M 146.32 165.00 L 145.89 164.09 C 145.40 163.06 144.17 162.62 143.14 163.11 C 142.11 163.60 141.68 164.83 142.16 165.86 L 142.59 166.76 C 143.08 167.79 144.31 168.23 145.34 167.75 C 146.37 167.26 146.81 166.03 146.32 165.00 Z M 145.98 164.31 L 145.66 163.37 C 145.29 162.29 144.12 161.71 143.04 162.08 C 141.96 162.44 141.39 163.62 141.75 164.69 L 142.07 165.64 C 142.44 166.72 143.61 167.29 144.69 166.93 C 145.77 166.56 146.35 165.39 145.98 164.31 Z M 145.73 163.60 L 145.52 162.63 C 145.29 161.52 144.19 160.80 143.08 161.04 C 141.96 161.27 141.25 162.37 141.48 163.48 L 141.68 164.45 C 141.92 165.57 143.02 166.29 144.13 166.05 C 145.25 165.82 145.96 164.72 145.73 163.60 Z M 145.56 162.81 L 145.44 161.82 C 145.30 160.68 144.27 159.87 143.14 160.01 C 142.00 160.15 141.19 161.18 141.33 162.31 L 141.45 163.31 C 141.58 164.44 142.62 165.25 143.75 165.11 C 144.89 164.98 145.69 163.94 145.56 162.81 Z M 145.45 161.92 L 145.39 160.94 C 145.31 159.79 144.32 158.93 143.18 159.01 C 142.03 159.08 141.17 160.07 141.25 161.22 L 141.31 162.20 C 141.39 163.35 142.38 164.21 143.52 164.13 C 144.67 164.06 145.53 163.07 145.45 161.92 Z M 145.40 161.01 L 145.36 160.00 C 145.32 158.85 144.36 157.95 143.21 157.99 C 142.06 158.03 141.16 158.99 141.20 160.14 L 141.24 161.15 C 141.27 162.30 142.24 163.20 143.39 163.16 C 144.54 163.12 145.44 162.16 145.40 161.01 Z M 145.37 160.05 L 145.36 159.05 C 145.35 157.89 144.40 156.97 143.25 156.98 C 142.10 156.99 141.17 157.94 141.18 159.09 L 141.19 160.09 C 141.21 161.24 142.15 162.17 143.30 162.16 C 144.46 162.14 145.38 161.20 145.37 160.05 Z M 145.36 159.18 L 145.42 158.18 C 145.48 157.03 144.59 156.04 143.44 155.98 C 142.28 155.92 141.30 156.81 141.23 157.96 L 141.18 158.96 C 141.12 160.11 142.00 161.10 143.16 161.16 C 144.31 161.22 145.30 160.33 145.36 159.18 Z M 145.39 158.45 L 145.57 157.49 C 145.78 156.35 145.02 155.26 143.88 155.05 C 142.74 154.84 141.65 155.59 141.44 156.73 L 141.26 157.69 C 141.05 158.83 141.80 159.93 142.94 160.14 C 144.08 160.35 145.18 159.59 145.39 158.45 Z M 145.49 157.80 L 145.77 156.99 C 146.15 155.89 145.57 154.69 144.48 154.31 C 143.38 153.93 142.18 154.51 141.80 155.61 L 141.52 156.42 C 141.14 157.52 141.72 158.72 142.81 159.10 C 143.91 159.48 145.10 158.90 145.49 157.80 Z M 145.68 157.21 L 146.11 156.32 C 146.61 155.27 146.17 154.01 145.12 153.51 C 144.08 153.01 142.82 153.45 142.32 154.50 L 141.89 155.39 C 141.39 156.43 141.83 157.69 142.88 158.19 C 143.92 158.70 145.18 158.25 145.68 157.21 Z M 146.04 156.44 L 146.62 155.43 C 147.19 154.42 146.84 153.13 145.83 152.56 C 144.82 151.99 143.53 152.34 142.96 153.35 L 142.38 154.37 C 141.81 155.38 142.17 156.66 143.18 157.23 C 144.19 157.81 145.47 157.45 146.04 156.44 Z M 146.59 155.48 L 147.05 154.71 C 147.66 153.72 147.34 152.42 146.35 151.82 C 145.36 151.22 144.07 151.53 143.46 152.53 L 142.99 153.30 C 142.39 154.29 142.71 155.58 143.70 156.19 C 144.69 156.79 145.98 156.47 146.59 155.48 Z M 147.04 154.74 L 147.56 153.90 C 148.18 152.92 147.88 151.62 146.90 151.01 C 145.92 150.39 144.62 150.68 144.01 151.67 L 143.48 152.50 C 142.86 153.48 143.16 154.78 144.14 155.40 C 145.12 156.01 146.42 155.72 147.04 154.74 Z M 147.55 153.92 L 148.11 153.05 C 148.74 152.08 148.46 150.78 147.48 150.15 C 146.51 149.52 145.21 149.80 144.58 150.78 L 144.02 151.65 C 143.39 152.62 143.67 153.92 144.64 154.55 C 145.62 155.18 146.92 154.90 147.55 153.92 Z M 148.09 153.07 L 148.67 152.19 C 149.31 151.23 149.05 149.93 148.08 149.29 C 147.12 148.65 145.82 148.92 145.18 149.88 L 144.60 150.76 C 143.96 151.72 144.22 153.03 145.19 153.66 C 146.15 154.30 147.45 154.04 148.09 153.07 Z M 148.66 152.21 L 149.25 151.33 C 149.90 150.37 149.65 149.07 148.69 148.42 C 147.74 147.78 146.44 148.03 145.79 148.98 L 145.19 149.87 C 144.55 150.82 144.80 152.12 145.75 152.77 C 146.71 153.42 148.01 153.17 148.66 152.21 Z M 149.23 151.33 L 149.86 150.42 C 150.51 149.48 150.27 148.19 149.33 147.54 C 148.39 146.89 147.09 147.13 146.44 148.07 L 145.82 148.98 C 145.17 149.92 145.40 151.21 146.34 151.86 C 147.29 152.51 148.58 152.28 149.23 151.33 Z M 149.82 150.42 L 150.42 149.57 C 151.07 148.65 150.85 147.37 149.93 146.72 C 149.00 146.07 147.73 146.29 147.08 147.22 L 146.48 148.07 C 145.83 148.99 146.05 150.27 146.97 150.92 C 147.90 151.57 149.17 151.35 149.82 150.42 Z M 150.39 149.57 L 150.95 148.78 C 151.60 147.87 151.39 146.61 150.48 145.97 C 149.57 145.32 148.32 145.53 147.67 146.44 L 147.11 147.22 C 146.46 148.13 146.67 149.39 147.58 150.04 C 148.48 150.68 149.74 150.47 150.39 149.57 Z M 150.92 148.77 L 151.44 148.06 C 152.08 147.17 151.88 145.92 150.99 145.28 C 150.09 144.64 148.85 144.84 148.21 145.73 L 147.70 146.45 C 147.05 147.34 147.26 148.58 148.15 149.22 C 149.04 149.86 150.28 149.66 150.92 148.77 Z M 151.40 148.04 L 152.03 147.17 C 152.67 146.29 152.47 145.07 151.60 144.44 C 150.73 143.81 149.51 144.01 148.88 144.88 L 148.24 145.75 C 147.61 146.62 147.81 147.84 148.68 148.48 C 149.55 149.11 150.77 148.91 151.40 148.04 Z M 151.99 147.14 L 152.57 146.35 C 153.19 145.50 153.00 144.31 152.15 143.69 C 151.30 143.08 150.11 143.26 149.50 144.11 L 148.92 144.91 C 148.30 145.76 148.49 146.94 149.34 147.56 C 150.19 148.18 151.38 147.99 151.99 147.14 Z M 152.53 146.32 L 153.07 145.57 C 153.67 144.74 153.49 143.59 152.66 142.99 C 151.84 142.39 150.68 142.57 150.08 143.39 L 149.54 144.14 C 148.94 144.97 149.12 146.12 149.95 146.72 C 150.77 147.32 151.93 147.14 152.53 146.32 Z M 153.04 145.54 L 153.61 144.76 C 154.20 143.95 154.02 142.82 153.21 142.23 C 152.40 141.65 151.27 141.83 150.69 142.63 L 150.11 143.42 C 149.53 144.23 149.71 145.36 150.51 145.94 C 151.32 146.53 152.45 146.35 153.04 145.54 Z M 153.59 144.74 L 154.17 143.92 C 154.75 143.13 154.57 142.02 153.78 141.44 C 152.98 140.87 151.87 141.05 151.30 141.84 L 150.71 142.65 C 150.13 143.45 150.31 144.56 151.11 145.13 C 151.90 145.71 153.01 145.53 153.59 144.74 Z M 154.15 143.90 L 154.75 143.08 C 155.31 142.29 155.13 141.20 154.35 140.64 C 153.57 140.07 152.48 140.25 151.91 141.04 L 151.32 141.86 C 150.75 142.64 150.93 143.74 151.72 144.30 C 152.50 144.86 153.59 144.68 154.15 143.90 Z M 154.73 143.06 L 155.30 142.26 C 155.85 141.48 155.67 140.41 154.90 139.86 C 154.13 139.31 153.06 139.48 152.50 140.26 L 151.93 141.06 C 151.38 141.83 151.56 142.90 152.33 143.45 C 153.10 144.01 154.18 143.83 154.73 143.06 Z M 155.28 142.24 L 155.86 141.42 C 156.40 140.66 156.22 139.61 155.46 139.07 C 154.70 138.52 153.65 138.70 153.10 139.46 L 152.52 140.27 C 151.98 141.03 152.16 142.09 152.92 142.63 C 153.68 143.17 154.74 143.00 155.28 142.24 Z M 155.84 141.41 L 156.43 140.58 C 156.96 139.83 156.79 138.79 156.04 138.26 C 155.29 137.72 154.25 137.90 153.72 138.65 L 153.13 139.48 C 152.59 140.23 152.77 141.27 153.52 141.80 C 154.26 142.33 155.30 142.16 155.84 141.41 Z M 156.41 140.57 L 156.99 139.74 C 157.52 139.01 157.35 137.98 156.61 137.46 C 155.88 136.93 154.85 137.10 154.33 137.84 L 153.74 138.66 C 153.21 139.40 153.38 140.42 154.12 140.95 C 154.86 141.47 155.88 141.30 156.41 140.57 Z M 156.97 139.74 L 157.56 138.91 C 158.09 138.19 157.92 137.18 157.20 136.66 C 156.47 136.13 155.46 136.30 154.94 137.02 L 154.35 137.84 C 153.83 138.57 153.99 139.58 154.71 140.10 C 155.44 140.62 156.45 140.46 156.97 139.74 Z M 157.54 138.91 L 158.12 138.12 C 158.64 137.41 158.48 136.41 157.77 135.89 C 157.06 135.37 156.06 135.53 155.54 136.24 L 154.96 137.03 C 154.44 137.74 154.60 138.74 155.31 139.26 C 156.02 139.78 157.02 139.62 157.54 138.91 Z M 158.10 138.13 L 158.72 137.29 C 159.25 136.59 159.10 135.60 158.40 135.08 C 157.70 134.55 156.71 134.70 156.19 135.40 L 155.56 136.23 C 155.04 136.93 155.18 137.92 155.88 138.44 C 156.58 138.97 157.57 138.83 158.10 138.13 Z M 158.71 137.30 L 159.31 136.51 C 159.83 135.82 159.70 134.83 159.01 134.31 C 158.32 133.78 157.33 133.91 156.80 134.60 L 156.20 135.39 C 155.68 136.08 155.81 137.07 156.50 137.59 C 157.19 138.12 158.18 137.99 158.71 137.30 Z M 159.30 136.51 L 159.89 135.75 C 160.42 135.06 160.29 134.07 159.60 133.55 C 158.92 133.02 157.93 133.15 157.40 133.83 L 156.81 134.60 C 156.28 135.29 156.41 136.27 157.10 136.80 C 157.79 137.33 158.77 137.20 159.30 136.51 Z M 159.89 135.74 L 160.50 134.95 C 161.03 134.26 160.90 133.28 160.21 132.75 C 159.53 132.23 158.54 132.35 158.02 133.04 L 157.41 133.84 C 156.88 134.52 157.01 135.50 157.69 136.03 C 158.38 136.56 159.36 136.43 159.89 135.74 Z M 160.50 134.94 L 161.10 134.16 C 161.63 133.47 161.50 132.49 160.82 131.96 C 160.13 131.44 159.15 131.57 158.62 132.25 L 158.02 133.04 C 157.49 133.73 157.62 134.71 158.31 135.23 C 158.99 135.76 159.97 135.63 160.50 134.94 Z M 161.10 134.15 L 161.27 133.94 C 161.79 133.26 161.66 132.28 160.98 131.75 C 160.29 131.23 159.31 131.36 158.79 132.04 L 158.63 132.25 C 158.10 132.94 158.23 133.92 158.91 134.44 C 159.60 134.97 160.58 134.84 161.10 134.15 Z"
      fill="black"
      fill-rule="nonzero" /></svg>