<svg xmlns="http://www.w3.org/2000/svg" width="300" height="300" viewBox="0 0 300 300">
<path d="M 138.96 134.77 L 138.89 135.68 C 138.82 136.64 139.54 137.47 140.50 137.54 C 141.45 137.61 142.28 136.89 142.35 135.94 L 142.42 135.02 C 142.49 134.06 141.77 133.23 140.81 133.17 C 139.86 133.10 139.03 133.81 138.96 134.77 Z M 138.84 135.71 L 138.78 136.71 C 138.73 137.69 139.48 138.54 140.46 138.59 C 141.45 138.65 142.29 137.89 142.35 136.91 L 142.40 135.91 C 142.46 134.93 141.71 134.08 140.72 134.03 C 139.74 133.97 138.90 134.73 138.84 135.71 Z M 138.74 136.75 L 138.71 137.79 C 138.67 138.80 139.46 139.64 140.47 139.67 C 141.48 139.71 142.32 138.92 142.35 137.91 L 142.39 136.87 C 142.42 135.86 141.63 135.02 140.62 134.99 C 139.62 134.95 138.77 135.74 138.74 136.75 Z M 138.69 137.82 L 138.68 138.78 C 138.66 139.79 139.47 140.63 140.49 140.64 C 141.50 140.66 142.34 139.85 142.36 138.83 L 142.37 137.88 C 142.38 136.86 141.57 136.02 140.56 136.01 C 139.54 135.99 138.71 136.80 138.69 137.82 Z M 138.68 138.79 L 138.67 139.82 C 138.67 140.83 139.48 141.66 140.50 141.66 C 141.51 141.67 142.34 140.85 142.35 139.84 L 142.35 138.81 C 142.36 137.80 141.54 136.97 140.53 136.97 C 139.51 136.96 138.68 137.78 138.68 138.79 Z M 138.67 139.82 L 138.67 140.88 C 138.67 141.89 139.49 142.71 140.51 142.71 C 141.52 142.72 142.34 141.89 142.35 140.88 L 142.35 139.83 C 142.35 138.81 141.53 137.99 140.51 137.99 C 139.50 137.99 138.67 138.81 138.67 139.82 Z M 138.67 140.88 L 138.67 141.95 C 138.67 142.97 139.50 143.79 140.51 143.79 C 141.52 143.79 142.34 142.97 142.34 141.95 L 142.34 140.88 C 142.34 139.86 141.52 139.04 140.51 139.04 C 139.50 139.04 138.67 139.86 138.67 140.88 Z M 138.68 141.95 L 138.68 143.00 C 138.68 144.01 139.50 144.83 140.51 144.83 C 141.52 144.83 142.34 144.01 142.34 143.00 L 142.34 141.95 C 142.34 140.94 141.52 140.12 140.51 140.12 C 139.50 140.12 138.68 140.94 138.68 141.95 Z M 138.68 143.00 L 138.68 143.97 C 138.68 144.97 139.50 145.79 140.51 145.79 C 141.52 145.79 142.33 144.97 142.33 143.97 L 142.33 143.00 C 142.33 141.99 141.52 141.17 140.51 141.17 C 139.50 141.17 138.68 141.99 138.68 143.00 Z M 138.69 143.97 L 138.69 144.91 C 138.69 145.92 139.50 146.73 140.51 146.73 C 141.51 146.73 142.33 145.92 142.33 144.91 L 142.33 143.97 C 142.33 142.96 141.51 142.15 140.51 142.15 C 139.50 142.15 138.69 142.96 138.69 143.97 Z M 138.69 144.91 L 138.69 145.90 C 138.69 146.90 139.51 147.71 140.51 147.71 C 141.51 147.71 142.32 146.90 142.32 145.90 L 142.32 144.91 C 142.32 143.91 141.51 143.09 140.51 143.09 C 139.51 143.09 138.69 143.91 138.69 144.91 Z M 138.69 145.90 L 138.69 146.87 C 138.69 147.87 139.51 148.68 140.51 148.68 C 141.51 148.68 142.32 147.87 142.32 146.87 L 142.32 145.90 C 142.32 144.89 141.51 144.08 140.51 144.08 C 139.51 144.08 138.69 144.89 138.69 145.90 Z M 138.70 146.87 L 138.70 147.84 C 138.70 148.84 139.51 149.66 140.51 149.66 C 141.51 149.66 142.32 148.84 142.32 147.84 L 142.32 146.87 C 142.32 145.87 141.51 145.06 140.51 145.06 C 139.51 145.06 138.70 145.87 138.70 146.87 Z M 138.70 147.84 L 138.69 148.84 C 138.69 149.84 139.50 150.65 140.50 150.66 C 141.50 150.66 142.32 149.85 142.32 148.85 L 142.32 147.85 C 142.32 146.85 141.51 146.03 140.51 146.03 C 139.51 146.03 138.70 146.84 138.70 147.84 Z M 138.69 148.83 L 138.69 149.87 C 138.68 150.87 139.49 151.68 140.49 151.69 C 141.49 151.70 142.31 150.89 142.31 149.89 L 142.32 148.85 C 142.33 147.85 141.52 147.04 140.52 147.03 C 139.52 147.02 138.70 147.83 138.69 148.83 Z M 138.69 149.85 L 138.67 150.90 C 138.66 151.90 139.46 152.73 140.46 152.74 C 141.47 152.75 142.29 151.95 142.30 150.95 L 142.31 149.90 C 142.33 148.90 141.53 148.08 140.52 148.06 C 139.52 148.05 138.70 148.85 138.69 149.85 Z M 138.67 150.89 L 138.65 151.93 C 138.63 152.93 139.43 153.76 140.43 153.78 C 141.43 153.80 142.26 153.01 142.28 152.00 L 142.30 150.96 C 142.32 149.96 141.53 149.13 140.52 149.11 C 139.52 149.09 138.69 149.89 138.67 150.89 Z M 138.65 151.93 L 138.63 152.89 C 138.60 153.90 139.40 154.73 140.40 154.75 C 141.41 154.78 142.24 153.98 142.26 152.98 L 142.28 152.01 C 142.31 151.00 141.51 150.17 140.51 150.15 C 139.50 150.13 138.67 150.92 138.65 151.93 Z M 138.61 152.91 L 138.60 153.89 C 138.58 154.91 139.39 155.74 140.40 155.75 C 141.41 155.77 142.24 154.96 142.26 153.95 L 142.28 152.96 C 142.29 151.95 141.48 151.12 140.47 151.10 C 139.46 151.09 138.63 151.89 138.61 152.91 Z M 138.56 153.97 L 138.58 154.98 C 138.61 156.02 139.47 156.83 140.50 156.81 C 141.53 156.78 142.35 155.92 142.32 154.89 L 142.30 153.88 C 142.27 152.84 141.41 152.03 140.38 152.05 C 139.35 152.08 138.53 152.94 138.56 153.97 Z M 138.55 155.20 L 138.68 156.14 C 138.82 157.19 139.80 157.93 140.85 157.78 C 141.90 157.64 142.63 156.67 142.49 155.62 L 142.36 154.67 C 142.21 153.62 141.24 152.89 140.19 153.03 C 139.14 153.18 138.40 154.15 138.55 155.20 Z M 138.75 156.56 L 139.12 157.56 C 139.50 158.57 140.62 159.08 141.63 158.71 C 142.65 158.33 143.16 157.21 142.79 156.19 L 142.42 155.20 C 142.04 154.19 140.92 153.67 139.90 154.05 C 138.89 154.42 138.37 155.55 138.75 156.56 Z M 139.58 158.29 L 140.23 158.92 C 141.01 159.68 142.26 159.66 143.02 158.88 C 143.78 158.10 143.76 156.85 142.98 156.09 L 142.33 155.46 C 141.55 154.70 140.30 154.72 139.54 155.50 C 138.78 156.28 138.80 157.53 139.58 158.29 Z M 141.39 159.47 L 142.30 159.57 C 143.38 159.69 144.36 158.91 144.48 157.82 C 144.60 156.74 143.81 155.76 142.73 155.64 L 141.82 155.54 C 140.73 155.42 139.76 156.21 139.64 157.29 C 139.52 158.38 140.30 159.35 141.39 159.47 Z M 143.01 159.52 L 144.04 159.25 C 145.10 158.97 145.73 157.89 145.45 156.84 C 145.18 155.78 144.10 155.15 143.04 155.42 L 142.01 155.69 C 140.95 155.97 140.32 157.05 140.60 158.11 C 140.88 159.16 141.96 159.80 143.01 159.52 Z M 144.37 159.13 L 145.26 158.72 C 146.24 158.26 146.68 157.09 146.22 156.10 C 145.76 155.11 144.59 154.68 143.60 155.14 L 142.72 155.55 C 141.73 156.00 141.29 157.17 141.75 158.16 C 142.21 159.15 143.38 159.58 144.37 159.13 Z M 145.57 158.53 L 146.38 157.95 C 147.27 157.32 147.47 156.09 146.84 155.21 C 146.22 154.32 144.99 154.12 144.10 154.75 L 143.29 155.33 C 142.41 155.96 142.20 157.18 142.83 158.07 C 143.46 158.95 144.68 159.16 145.57 158.53 Z M 146.68 157.69 L 147.31 157.00 C 148.05 156.21 148.01 154.97 147.22 154.23 C 146.43 153.49 145.19 153.53 144.45 154.32 L 143.81 155.01 C 143.07 155.80 143.12 157.04 143.91 157.78 C 144.70 158.52 145.94 158.48 146.68 157.69 Z M 147.50 156.77 L 148.03 155.99 C 148.64 155.10 148.41 153.88 147.52 153.27 C 146.62 152.66 145.40 152.89 144.79 153.78 L 144.26 154.56 C 143.66 155.45 143.89 156.67 144.78 157.28 C 145.67 157.89 146.89 157.66 147.50 156.77 Z M 148.14 155.82 L 148.65 154.88 C 149.16 153.92 148.80 152.73 147.85 152.22 C 146.89 151.71 145.70 152.06 145.19 153.02 L 144.69 153.96 C 144.17 154.91 144.53 156.10 145.48 156.62 C 146.44 157.13 147.63 156.77 148.14 155.82 Z M 148.71 154.76 L 149.13 153.82 C 149.58 152.83 149.14 151.67 148.15 151.22 C 147.17 150.77 146.00 151.21 145.55 152.20 L 145.13 153.14 C 144.68 154.13 145.12 155.29 146.11 155.74 C 147.10 156.18 148.26 155.75 148.71 154.76 Z M 149.17 153.75 L 149.53 152.85 C 149.94 151.84 149.45 150.69 148.45 150.28 C 147.44 149.88 146.29 150.36 145.88 151.37 L 145.52 152.27 C 145.11 153.28 145.60 154.43 146.61 154.83 C 147.61 155.24 148.76 154.76 149.17 153.75 Z M 149.56 152.80 L 149.91 151.85 C 150.29 150.82 149.77 149.69 148.75 149.31 C 147.73 148.92 146.59 149.45 146.21 150.47 L 145.85 151.42 C 145.47 152.44 145.99 153.58 147.02 153.96 C 148.04 154.34 149.18 153.82 149.56 152.80 Z M 149.93 151.81 L 150.27 150.83 C 150.63 149.79 150.09 148.66 149.05 148.30 C 148.02 147.94 146.89 148.49 146.53 149.53 L 146.19 150.51 C 145.83 151.54 146.38 152.67 147.41 153.03 C 148.45 153.39 149.58 152.84 149.93 151.81 Z M 150.29 150.79 L 150.62 149.78 C 150.96 148.74 150.39 147.61 149.35 147.27 C 148.30 146.93 147.18 147.50 146.84 148.55 L 146.51 149.56 C 146.17 150.60 146.74 151.72 147.79 152.07 C 148.83 152.41 149.95 151.84 150.29 150.79 Z M 150.64 149.75 L 150.95 148.72 C 151.27 147.67 150.68 146.55 149.63 146.23 C 148.58 145.91 147.47 146.50 147.14 147.55 L 146.83 148.58 C 146.51 149.63 147.10 150.75 148.15 151.07 C 149.20 151.39 150.31 150.80 150.64 149.75 Z M 150.96 148.69 L 151.24 147.71 C 151.55 146.65 150.94 145.55 149.88 145.24 C 148.82 144.94 147.71 145.55 147.41 146.61 L 147.13 147.59 C 146.83 148.64 147.44 149.75 148.50 150.05 C 149.56 150.36 150.66 149.75 150.96 148.69 Z M 151.26 147.67 L 151.50 146.77 C 151.78 145.71 151.15 144.61 150.08 144.33 C 149.02 144.04 147.92 144.68 147.64 145.74 L 147.40 146.64 C 147.11 147.71 147.75 148.81 148.81 149.09 C 149.88 149.37 150.97 148.74 151.26 147.67 Z M 151.52 146.72 L 151.75 145.73 C 152.01 144.65 151.35 143.57 150.27 143.32 C 149.19 143.06 148.11 143.72 147.86 144.80 L 147.62 145.79 C 147.36 146.87 148.03 147.95 149.10 148.21 C 150.18 148.46 151.26 147.80 151.52 146.72 Z M 151.77 145.66 L 151.98 144.67 C 152.20 143.58 151.50 142.52 150.41 142.30 C 149.32 142.08 148.26 142.78 148.04 143.87 L 147.84 144.86 C 147.61 145.95 148.32 147.01 149.40 147.23 C 150.49 147.45 151.55 146.75 151.77 145.66 Z M 151.99 144.62 L 152.15 143.73 C 152.34 142.63 151.61 141.58 150.51 141.39 C 149.42 141.20 148.37 141.93 148.18 143.03 L 148.02 143.92 C 147.83 145.02 148.56 146.06 149.66 146.26 C 150.76 146.45 151.80 145.72 151.99 144.62 Z M 152.16 143.71 L 152.32 142.73 C 152.50 141.63 151.76 140.59 150.66 140.41 C 149.55 140.22 148.51 140.97 148.33 142.07 L 148.17 143.05 C 147.99 144.15 148.73 145.19 149.83 145.37 C 150.94 145.55 151.98 144.81 152.16 143.71 Z M 152.33 142.70 L 152.47 141.71 C 152.64 140.60 151.87 139.58 150.77 139.41 C 149.66 139.25 148.63 140.01 148.47 141.12 L 148.33 142.11 C 148.16 143.21 148.93 144.24 150.03 144.40 C 151.13 144.57 152.16 143.80 152.33 142.70 Z M 152.48 141.65 L 152.59 140.70 C 152.72 139.59 151.93 138.58 150.82 138.45 C 149.71 138.32 148.71 139.12 148.58 140.23 L 148.46 141.18 C 148.33 142.29 149.13 143.29 150.24 143.42 C 151.35 143.55 152.35 142.76 152.48 141.65 Z M 152.59 140.67 L 152.69 139.70 C 152.80 138.59 152.00 137.60 150.89 137.49 C 149.78 137.37 148.79 138.18 148.67 139.29 L 148.58 140.26 C 148.46 141.37 149.27 142.36 150.38 142.47 C 151.49 142.58 152.48 141.78 152.59 140.67 Z M 152.68 139.73 L 152.81 138.65 C 152.94 137.54 152.15 136.54 151.05 136.41 C 149.94 136.28 148.94 137.07 148.81 138.18 L 148.68 139.26 C 148.55 140.36 149.34 141.37 150.45 141.49 C 151.55 141.62 152.55 140.83 152.68 139.73 Z M 152.80 138.71 L 152.99 137.47 C 153.15 136.37 152.40 135.35 151.30 135.18 C 150.20 135.01 149.18 135.77 149.01 136.87 L 148.82 138.11 C 148.66 139.21 149.41 140.23 150.51 140.40 C 151.61 140.56 152.63 139.81 152.80 138.71 Z M 152.96 137.59 L 153.15 136.74 C 153.38 135.66 152.70 134.59 151.61 134.35 C 150.53 134.11 149.46 134.80 149.22 135.88 L 149.04 136.74 C 148.80 137.82 149.49 138.89 150.57 139.13 C 151.65 139.36 152.72 138.68 152.96 137.59 Z M 149.65 137.60 L 149.79 137.77 C 150.50 138.62 151.77 138.73 152.62 138.02 C 153.47 137.31 153.58 136.05 152.87 135.20 L 152.72 135.03 C 152.01 134.18 150.75 134.06 149.90 134.77 C 149.05 135.48 148.94 136.75 149.65 137.60 Z M 149.33 136.56 L 149.38 137.84 C 149.42 138.95 150.35 139.81 151.46 139.77 C 152.57 139.72 153.43 138.79 153.39 137.68 L 153.34 136.41 C 153.29 135.30 152.36 134.44 151.25 134.48 C 150.14 134.52 149.28 135.46 149.33 136.56 Z M 149.37 137.79 L 149.38 138.78 C 149.40 139.89 150.31 140.78 151.42 140.76 C 152.53 140.75 153.42 139.84 153.40 138.73 L 153.39 137.74 C 153.38 136.63 152.47 135.74 151.36 135.75 C 150.25 135.77 149.36 136.68 149.37 137.79 Z M 149.38 138.77 L 149.39 139.78 C 149.40 140.90 150.31 141.79 151.42 141.78 C 152.54 141.76 153.43 140.85 153.42 139.74 L 153.41 138.73 C 153.40 137.62 152.48 136.73 151.37 136.74 C 150.26 136.75 149.37 137.66 149.38 138.77 Z M 149.39 139.80 L 149.41 140.80 C 149.43 141.92 150.35 142.80 151.46 142.78 C 152.58 142.76 153.46 141.84 153.44 140.72 L 153.42 139.72 C 153.40 138.61 152.48 137.72 151.36 137.74 C 150.25 137.77 149.36 138.69 149.39 139.80 Z M 149.40 140.82 L 149.43 141.81 C 149.47 142.93 150.40 143.81 151.51 143.77 C 152.63 143.74 153.51 142.81 153.47 141.69 L 153.45 140.70 C 153.41 139.58 152.48 138.71 151.36 138.74 C 150.25 138.77 149.37 139.71 149.40 140.82 Z M 149.43 141.81 L 149.46 142.82 C 149.49 143.93 150.42 144.82 151.54 144.79 C 152.65 144.75 153.54 143.82 153.51 142.71 L 153.48 141.70 C 153.45 140.58 152.52 139.70 151.40 139.73 C 150.28 139.76 149.40 140.69 149.43 141.81 Z M 149.45 142.79 L 149.47 143.81 C 149.48 144.93 150.41 145.83 151.53 145.81 C 152.65 145.79 153.55 144.87 153.53 143.75 L 153.51 142.73 C 153.49 141.61 152.57 140.71 151.45 140.73 C 150.33 140.75 149.43 141.67 149.45 142.79 Z M 149.46 143.81 L 149.47 144.82 C 149.49 145.94 150.41 146.84 151.54 146.83 C 152.66 146.81 153.56 145.89 153.55 144.76 L 153.53 143.75 C 153.52 142.63 152.59 141.73 151.47 141.74 C 150.34 141.76 149.44 142.68 149.46 143.81 Z M 149.47 144.85 L 149.49 145.81 C 149.53 146.94 150.47 147.83 151.60 147.80 C 152.72 147.77 153.61 146.83 153.58 145.70 L 153.55 144.73 C 153.52 143.61 152.58 142.72 151.45 142.75 C 150.33 142.78 149.44 143.72 149.47 144.85 Z M 149.49 145.87 L 149.54 146.81 C 149.61 147.94 150.57 148.81 151.70 148.75 C 152.83 148.68 153.70 147.72 153.64 146.59 L 153.58 145.64 C 153.52 144.52 152.55 143.65 151.43 143.71 C 150.30 143.77 149.43 144.74 149.49 145.87 Z M 149.55 146.85 L 149.62 147.86 C 149.70 148.99 150.69 149.84 151.81 149.75 C 152.94 149.67 153.79 148.69 153.71 147.56 L 153.63 146.55 C 153.55 145.42 152.57 144.57 151.44 144.66 C 150.31 144.74 149.46 145.72 149.55 146.85 Z M 149.62 147.87 L 149.70 148.86 C 149.78 149.98 150.77 150.83 151.90 150.74 C 153.03 150.66 153.87 149.67 153.79 148.54 L 153.71 147.55 C 153.62 146.42 152.64 145.58 151.51 145.66 C 150.38 145.75 149.53 146.74 149.62 147.87 Z M 149.70 148.87 L 149.78 149.85 C 149.87 150.98 150.86 151.82 151.99 151.72 C 153.12 151.63 153.96 150.64 153.87 149.51 L 153.78 148.53 C 153.69 147.40 152.70 146.56 151.57 146.65 C 150.44 146.75 149.60 147.74 149.70 148.87 Z M 149.78 149.89 L 149.89 150.92 C 150.00 152.05 151.01 152.87 152.13 152.75 C 153.26 152.64 154.08 151.63 153.97 150.51 L 153.86 149.47 C 153.75 148.35 152.74 147.53 151.62 147.64 C 150.49 147.75 149.67 148.76 149.78 149.89 Z M 149.89 150.98 L 150.03 152.02 C 150.18 153.14 151.21 153.93 152.33 153.78 C 153.46 153.63 154.25 152.60 154.10 151.48 L 153.96 150.44 C 153.81 149.32 152.78 148.53 151.66 148.68 C 150.53 148.83 149.75 149.86 149.89 150.98 Z M 150.05 152.11 L 150.23 153.16 C 150.43 154.27 151.50 155.02 152.62 154.81 C 153.73 154.61 154.47 153.55 154.27 152.43 L 154.08 151.39 C 153.88 150.27 152.82 149.53 151.70 149.73 C 150.59 149.93 149.85 151.00 150.05 152.11 Z M 150.26 153.27 L 150.49 154.24 C 150.75 155.35 151.85 156.03 152.95 155.77 C 154.05 155.51 154.74 154.41 154.48 153.30 L 154.25 152.33 C 153.99 151.22 152.89 150.54 151.78 150.80 C 150.68 151.06 150.00 152.16 150.26 153.27 Z M 150.52 154.36 L 150.78 155.26 C 151.11 156.34 152.25 156.96 153.33 156.64 C 154.42 156.31 155.04 155.17 154.72 154.09 L 154.45 153.19 C 154.13 152.10 152.98 151.48 151.90 151.81 C 150.81 152.13 150.19 153.27 150.52 154.36 Z M 150.84 155.41 L 151.21 156.39 C 151.62 157.44 152.81 157.97 153.87 157.56 C 154.92 157.15 155.45 155.97 155.04 154.91 L 154.66 153.93 C 154.26 152.88 153.07 152.35 152.01 152.76 C 150.95 153.17 150.43 154.35 150.84 155.41 Z M 151.34 156.66 L 151.82 157.51 C 152.38 158.50 153.63 158.85 154.62 158.29 C 155.61 157.73 155.95 156.48 155.40 155.50 L 154.91 154.64 C 154.35 153.65 153.10 153.30 152.12 153.86 C 151.13 154.42 150.78 155.67 151.34 156.66 Z M 152.10 157.90 L 152.75 158.59 C 153.52 159.42 154.81 159.47 155.65 158.70 C 156.48 157.93 156.53 156.64 155.76 155.80 L 155.12 155.11 C 154.35 154.28 153.05 154.23 152.22 155.00 C 151.39 155.77 151.34 157.07 152.10 157.90 Z M 153.18 158.95 L 154.03 159.47 C 155.00 160.06 156.26 159.76 156.85 158.79 C 157.45 157.82 157.14 156.56 156.17 155.96 L 155.32 155.44 C 154.36 154.85 153.09 155.16 152.50 156.13 C 151.91 157.09 152.21 158.36 153.18 158.95 Z M 154.49 159.68 L 155.45 159.98 C 156.54 160.32 157.69 159.71 158.03 158.62 C 158.36 157.53 157.75 156.38 156.67 156.04 L 155.71 155.75 C 154.62 155.41 153.47 156.02 153.13 157.11 C 152.80 158.19 153.40 159.35 154.49 159.68 Z M 155.92 160.08 L 156.92 160.14 C 158.06 160.22 159.04 159.36 159.12 158.22 C 159.20 157.08 158.34 156.09 157.20 156.02 L 156.20 155.95 C 155.06 155.87 154.07 156.73 154.00 157.87 C 153.92 159.01 154.78 160.00 155.92 160.08 Z M 157.37 160.13 L 158.36 159.98 C 159.49 159.81 160.27 158.75 160.10 157.61 C 159.92 156.48 158.86 155.70 157.73 155.87 L 156.74 156.03 C 155.61 156.20 154.83 157.26 155.00 158.40 C 155.18 159.53 156.24 160.31 157.37 160.13 Z M 158.78 159.88 L 159.70 159.54 C 160.78 159.13 161.33 157.93 160.92 156.85 C 160.52 155.77 159.31 155.22 158.23 155.63 L 157.31 155.97 C 156.23 156.38 155.68 157.58 156.09 158.66 C 156.50 159.74 157.70 160.29 158.78 159.88 Z M 160.05 159.37 L 160.89 158.87 C 161.88 158.27 162.20 156.98 161.60 155.99 C 161.01 155.00 159.72 154.68 158.73 155.28 L 157.89 155.79 C 156.90 156.39 156.58 157.67 157.17 158.66 C 157.77 159.65 159.06 159.97 160.05 159.37 Z M 161.13 158.71 L 161.92 158.07 C 162.82 157.34 162.96 156.02 162.24 155.12 C 161.51 154.22 160.19 154.07 159.29 154.80 L 158.50 155.44 C 157.59 156.16 157.45 157.48 158.18 158.39 C 158.90 159.29 160.22 159.43 161.13 158.71 Z M 162.06 157.95 L 162.78 157.25 C 163.62 156.45 163.64 155.12 162.84 154.28 C 162.04 153.45 160.71 153.42 159.87 154.23 L 159.15 154.92 C 158.31 155.73 158.29 157.05 159.09 157.89 C 159.90 158.72 161.22 158.75 162.06 157.95 Z M 162.88 157.15 L 163.56 156.40 C 164.34 155.55 164.27 154.22 163.41 153.44 C 162.56 152.66 161.23 152.73 160.45 153.58 L 159.77 154.33 C 158.99 155.19 159.06 156.51 159.92 157.29 C 160.77 158.07 162.10 158.01 162.88 157.15 Z M 163.64 156.31 L 164.26 155.54 C 164.99 154.63 164.84 153.31 163.94 152.59 C 163.04 151.86 161.72 152.00 160.99 152.91 L 160.37 153.68 C 159.64 154.58 159.79 155.90 160.69 156.63 C 161.59 157.35 162.91 157.21 163.64 156.31 Z M 164.34 155.43 L 164.91 154.62 C 165.57 153.68 165.35 152.37 164.40 151.70 C 163.45 151.04 162.15 151.26 161.48 152.21 L 160.91 153.01 C 160.25 153.96 160.47 155.27 161.42 155.93 C 162.36 156.60 163.67 156.37 164.34 155.43 Z M 164.98 154.50 L 165.51 153.64 C 166.11 152.66 165.79 151.37 164.81 150.77 C 163.82 150.16 162.53 150.48 161.93 151.47 L 161.40 152.33 C 160.80 153.32 161.12 154.60 162.10 155.20 C 163.09 155.81 164.38 155.49 164.98 154.50 Z M 165.57 153.53 L 166.02 152.68 C 166.56 151.66 166.17 150.39 165.15 149.85 C 164.13 149.31 162.86 149.70 162.32 150.72 L 161.87 151.58 C 161.33 152.60 161.72 153.86 162.74 154.40 C 163.76 154.94 165.02 154.55 165.57 153.53 Z M 166.07 152.57 L 166.48 151.66 C 166.97 150.61 166.51 149.37 165.46 148.89 C 164.41 148.41 163.17 148.87 162.69 149.92 L 162.27 150.83 C 161.79 151.88 162.25 153.12 163.30 153.60 C 164.35 154.08 165.59 153.62 166.07 152.57 Z M 166.53 151.54 L 166.91 150.58 C 167.32 149.50 166.79 148.30 165.72 147.88 C 164.64 147.46 163.43 148.00 163.02 149.07 L 162.64 150.04 C 162.23 151.11 162.76 152.32 163.83 152.73 C 164.91 153.15 166.11 152.62 166.53 151.54 Z M 166.94 150.45 L 167.26 149.47 C 167.60 148.37 167.00 147.20 165.90 146.86 C 164.81 146.51 163.64 147.11 163.29 148.21 L 162.98 149.19 C 162.63 150.29 163.24 151.46 164.33 151.81 C 165.43 152.15 166.60 151.55 166.94 150.45 Z M 167.28 149.36 L 167.54 148.38 C 167.83 147.27 167.16 146.14 166.05 145.85 C 164.95 145.56 163.81 146.22 163.52 147.33 L 163.27 148.31 C 162.98 149.42 163.64 150.56 164.75 150.85 C 165.86 151.13 166.99 150.47 167.28 149.36 Z M 167.55 148.30 L 167.76 147.36 C 168.00 146.24 167.29 145.14 166.17 144.90 C 165.06 144.66 163.95 145.36 163.71 146.48 L 163.51 147.42 C 163.27 148.54 163.98 149.64 165.09 149.88 C 166.21 150.12 167.31 149.41 167.55 148.30 Z M 167.77 147.27 L 167.95 146.23 C 168.14 145.11 167.39 144.04 166.26 143.85 C 165.14 143.66 164.07 144.41 163.88 145.54 L 163.70 146.57 C 163.51 147.69 164.26 148.76 165.38 148.95 C 166.51 149.15 167.58 148.39 167.77 147.27 Z M 167.96 146.13 L 168.08 145.18 C 168.21 144.05 167.41 143.02 166.28 142.88 C 165.14 142.74 164.12 143.55 163.98 144.68 L 163.86 145.64 C 163.73 146.77 164.53 147.80 165.66 147.93 C 166.79 148.07 167.82 147.26 167.96 146.13 Z M 168.08 145.09 L 168.16 144.13 C 168.25 143.00 167.40 142.00 166.26 141.92 C 165.13 141.83 164.13 142.68 164.05 143.81 L 163.97 144.77 C 163.88 145.91 164.73 146.90 165.87 146.99 C 167.00 147.07 168.00 146.22 168.08 145.09 Z M 168.16 144.06 L 168.21 143.07 C 168.26 141.93 167.37 140.97 166.24 140.92 C 165.10 140.87 164.14 141.75 164.08 142.89 L 164.04 143.88 C 163.99 145.02 164.87 145.98 166.01 146.03 C 167.15 146.08 168.11 145.20 168.16 144.06 Z M 168.21 143.02 L 168.23 142.01 C 168.25 140.87 167.35 139.92 166.21 139.90 C 165.07 139.87 164.13 140.78 164.10 141.92 L 164.08 142.93 C 164.06 144.07 164.96 145.02 166.10 145.04 C 167.24 145.06 168.18 144.16 168.21 143.02 Z M 168.23 141.98 L 168.24 140.98 C 168.25 139.84 167.34 138.91 166.20 138.90 C 165.06 138.89 164.13 139.80 164.11 140.94 L 164.10 141.94 C 164.09 143.08 165.01 144.01 166.15 144.02 C 167.28 144.04 168.22 143.12 168.23 141.98 Z M 168.24 140.99 L 168.25 139.98 C 168.27 138.84 167.36 137.90 166.22 137.89 C 165.08 137.87 164.14 138.79 164.13 139.93 L 164.11 140.94 C 164.10 142.08 165.01 143.01 166.15 143.02 C 167.29 143.04 168.23 142.13 168.24 140.99 Z M 168.25 140.00 L 168.27 139.01 C 168.30 137.87 167.40 136.93 166.27 136.90 C 165.13 136.87 164.18 137.77 164.16 138.91 L 164.13 139.90 C 164.10 141.04 165.00 141.98 166.14 142.01 C 167.28 142.04 168.22 141.14 168.25 140.00 Z M 168.27 139.02 L 168.30 138.03 C 168.33 136.90 167.44 135.95 166.31 135.92 C 165.18 135.88 164.23 136.77 164.19 137.91 L 164.16 138.90 C 164.13 140.03 165.02 140.98 166.15 141.01 C 167.28 141.05 168.23 140.16 168.27 139.02 Z M 168.29 138.02 L 168.32 137.01 C 168.34 135.88 167.45 134.94 166.32 134.92 C 165.19 134.89 164.25 135.78 164.22 136.92 L 164.20 137.92 C 164.17 139.05 165.07 139.99 166.20 140.02 C 167.33 140.05 168.27 139.15 168.29 138.02 Z M 168.33 136.99 L 168.34 136.01 C 168.35 134.87 167.44 133.94 166.30 133.93 C 165.17 133.92 164.24 134.83 164.22 135.96 L 164.21 136.94 C 164.20 138.08 165.11 139.01 166.25 139.02 C 167.38 139.03 168.31 138.12 168.33 136.99 Z M 168.35 135.99 L 168.36 134.98 C 168.36 133.83 167.44 132.90 166.29 132.90 C 165.14 132.89 164.21 133.82 164.21 134.96 L 164.21 135.98 C 164.20 137.12 165.13 138.05 166.27 138.06 C 167.42 138.06 168.35 137.14 168.35 135.99 Z M 168.37 134.97 L 168.37 134.33 C 168.37 133.18 167.44 132.24 166.28 132.24 C 165.13 132.24 164.20 133.17 164.20 134.33 L 164.19 134.97 C 164.19 136.12 165.13 137.06 166.28 137.06 C 167.44 137.06 168.37 136.12 168.37 134.97 Z"
      fill="black"
      fill-rule="nonzero" /><path d="M 163.52 134.41 L 163.52 135.38 C 163.52 136.44 164.37 137.29 165.43 137.29 C 166.48 137.29 167.33 136.44 167.33 135.38 L 167.33 134.41 C 167.33 133.35 166.48 132.50 165.43 132.50 C 164.37 132.50 163.52 133.35 163.52 134.41 Z M 163.50 135.38 L 163.50 136.39 C 163.50 137.45 164.36 138.32 165.43 138.32 C 166.49 138.32 167.35 137.45 167.35 136.39 L 167.35 135.38 C 167.35 134.32 166.49 133.46 165.43 133.46 C 164.36 133.46 163.50 134.32 163.50 135.38 Z M 163.49 136.39 L 163.49 137.35 C 163.49 138.43 164.35 139.29 165.43 139.29 C 166.50 139.29 167.37 138.43 167.37 137.35 L 167.37 136.39 C 167.37 135.32 166.50 134.45 165.43 134.45 C 164.35 134.45 163.49 135.32 163.49 136.39 Z M 163.47 137.35 L 163.47 138.33 C 163.47 139.41 164.35 140.28 165.43 140.28 C 166.50 140.28 167.38 139.41 167.38 138.33 L 167.38 137.35 C 167.38 136.28 166.50 135.40 165.43 135.40 C 164.35 135.40 163.47 136.28 163.47 137.35 Z M 163.46 138.33 L 163.46 139.40 C 163.46 140.48 164.34 141.36 165.43 141.36 C 166.51 141.36 167.39 140.48 167.39 139.40 L 167.39 138.33 C 167.39 137.25 166.51 136.37 165.43 136.37 C 164.34 136.37 163.46 137.25 163.46 138.33 Z M 163.46 139.40 L 163.46 140.40 C 163.46 141.49 164.34 142.37 165.43 142.37 C 166.51 142.37 167.39 141.49 167.39 140.40 L 167.39 139.40 C 167.39 138.31 166.51 137.43 165.43 137.43 C 164.34 137.43 163.46 138.31 163.46 139.40 Z M 163.45 140.40 L 163.45 141.42 C 163.45 142.51 164.34 143.40 165.43 143.40 C 166.52 143.40 167.40 142.51 167.40 141.42 L 167.40 140.40 C 167.40 139.31 166.52 138.43 165.43 138.43 C 164.34 138.43 163.45 139.31 163.45 140.40 Z M 163.45 141.42 L 163.45 142.42 C 163.45 143.51 164.33 144.40 165.43 144.40 C 166.52 144.40 167.41 143.51 167.41 142.42 L 167.41 141.42 C 167.41 140.33 166.52 139.44 165.43 139.44 C 164.33 139.44 163.45 140.33 163.45 141.42 Z M 163.44 142.42 L 163.44 143.44 C 163.44 144.53 164.33 145.42 165.43 145.42 C 166.52 145.42 167.41 144.53 167.41 143.44 L 167.41 142.42 C 167.41 141.32 166.52 140.43 165.43 140.43 C 164.33 140.43 163.44 141.32 163.44 142.42 Z M 163.44 143.44 L 163.44 144.42 C 163.44 145.52 164.33 146.41 165.43 146.41 C 166.52 146.41 167.42 145.52 167.42 144.42 L 167.42 143.44 C 167.42 142.34 166.52 141.45 165.43 141.45 C 164.33 141.45 163.44 142.34 163.44 143.44 Z M 163.43 144.42 L 163.43 145.41 C 163.43 146.51 164.32 147.40 165.43 147.40 C 166.53 147.40 167.42 146.51 167.42 145.41 L 167.42 144.42 C 167.42 143.32 166.53 142.43 165.43 142.43 C 164.32 142.43 163.43 143.32 163.43 144.42 Z M 163.43 145.41 L 163.43 146.38 C 163.43 147.49 164.32 148.38 165.43 148.38 C 166.53 148.38 167.42 147.49 167.42 146.38 L 167.42 145.41 C 167.42 144.30 166.53 143.41 165.43 143.41 C 164.32 143.41 163.43 144.30 163.43 145.41 Z M 163.43 146.38 L 163.43 147.40 C 163.43 148.50 164.32 149.40 165.43 149.40 C 166.53 149.40 167.42 148.50 167.42 147.40 L 167.42 146.38 C 167.42 145.28 166.53 144.38 165.43 144.38 C 164.32 144.38 163.43 145.28 163.43 146.38 Z M 163.42 147.40 L 163.42 148.41 C 163.42 149.51 164.32 150.41 165.43 150.41 C 166.53 150.41 167.43 149.51 167.43 148.41 L 167.43 147.40 C 167.43 146.29 166.53 145.40 165.43 145.40 C 164.32 145.40 163.42 146.29 163.42 147.40 Z M 163.42 148.41 L 163.42 149.43 C 163.42 150.53 164.32 151.43 165.43 151.43 C 166.53 151.43 167.43 150.53 167.43 149.43 L 167.43 148.41 C 167.43 147.30 166.53 146.40 165.43 146.40 C 164.32 146.40 163.42 147.30 163.42 148.41 Z M 163.42 149.43 L 163.42 150.42 C 163.42 151.53 164.32 152.42 165.43 152.42 C 166.53 152.42 167.43 151.53 167.43 150.42 L 167.43 149.43 C 167.43 148.32 166.53 147.42 165.43 147.42 C 164.32 147.42 163.42 148.32 163.42 149.43 Z M 163.42 150.42 L 163.42 151.41 C 163.42 152.52 164.32 153.42 165.43 153.42 C 166.53 153.42 167.43 152.52 167.43 151.41 L 167.43 150.42 C 167.43 149.31 166.53 148.42 165.43 148.42 C 164.32 148.42 163.42 149.31 163.42 150.42 Z M 163.42 151.41 L 163.42 152.43 C 163.42 153.54 164.32 154.44 165.43 154.44 C 166.53 154.44 167.43 153.54 167.43 152.43 L 167.43 151.41 C 167.43 150.30 166.53 149.41 165.43 149.41 C 164.32 149.41 163.42 150.30 163.42 151.41 Z M 163.42 152.43 L 163.42 153.43 C 163.42 154.54 164.32 155.44 165.43 155.44 C 166.54 155.44 167.43 154.54 167.43 153.43 L 167.43 152.43 C 167.43 151.33 166.54 150.43 165.43 150.43 C 164.32 150.43 163.42 151.33 163.42 152.43 Z M 163.41 153.43 L 163.41 154.43 C 163.41 155.54 164.31 156.44 165.42 156.45 C 166.54 156.45 167.44 155.55 167.44 154.44 L 167.44 153.43 C 167.44 152.32 166.54 151.42 165.43 151.42 C 164.32 151.41 163.42 152.31 163.41 153.43 Z M 163.41 154.42 L 163.40 155.42 C 163.39 156.53 164.29 157.43 165.40 157.45 C 166.51 157.46 167.42 156.56 167.43 155.45 L 167.44 154.45 C 167.45 153.34 166.56 152.43 165.44 152.42 C 164.33 152.41 163.42 153.30 163.41 154.42 Z M 163.41 155.36 L 163.37 156.33 C 163.33 157.45 164.20 158.38 165.31 158.42 C 166.42 158.45 167.35 157.59 167.39 156.48 L 167.43 155.50 C 167.47 154.39 166.60 153.46 165.49 153.42 C 164.38 153.38 163.44 154.25 163.41 155.36 Z M 163.38 156.24 L 163.29 157.23 C 163.20 158.34 164.02 159.31 165.13 159.41 C 166.24 159.50 167.21 158.68 167.30 157.57 L 167.39 156.57 C 167.48 155.47 166.66 154.49 165.55 154.40 C 164.44 154.31 163.47 155.13 163.38 156.24 Z M 163.31 157.07 L 163.15 158.06 C 162.97 159.16 163.71 160.19 164.81 160.37 C 165.90 160.56 166.94 159.81 167.12 158.72 L 167.29 157.73 C 167.47 156.63 166.73 155.59 165.63 155.41 C 164.53 155.23 163.49 155.97 163.31 157.07 Z M 163.18 157.88 L 162.94 158.84 C 162.66 159.92 163.31 161.01 164.38 161.29 C 165.46 161.57 166.56 160.92 166.84 159.85 L 167.09 158.89 C 167.36 157.81 166.72 156.71 165.64 156.44 C 164.56 156.16 163.46 156.80 163.18 157.88 Z M 162.95 158.79 L 162.67 159.76 C 162.37 160.83 162.99 161.95 164.07 162.25 C 165.14 162.55 166.25 161.93 166.55 160.86 L 166.83 159.89 C 167.13 158.82 166.51 157.70 165.44 157.40 C 164.37 157.10 163.25 157.72 162.95 158.79 Z M 162.65 159.85 L 162.44 160.76 C 162.18 161.84 162.86 162.93 163.94 163.18 C 165.02 163.44 166.11 162.76 166.36 161.68 L 166.58 160.77 C 166.83 159.69 166.16 158.60 165.08 158.35 C 163.99 158.09 162.91 158.77 162.65 159.85 Z M 162.42 160.85 L 162.24 161.80 C 162.04 162.90 162.76 163.95 163.86 164.15 C 164.95 164.35 166.01 163.63 166.21 162.53 L 166.38 161.58 C 166.59 160.49 165.86 159.44 164.77 159.24 C 163.67 159.03 162.62 159.76 162.42 160.85 Z M 162.24 161.84 L 162.06 162.93 C 161.87 164.03 162.62 165.06 163.72 165.25 C 164.82 165.43 165.85 164.68 166.04 163.58 L 166.22 162.50 C 166.40 161.40 165.65 160.36 164.55 160.18 C 163.46 160.00 162.42 160.74 162.24 161.84 Z M 162.06 162.93 L 161.89 163.89 C 161.71 164.99 162.46 166.03 163.56 166.21 C 164.65 166.40 165.69 165.65 165.88 164.55 L 166.04 163.59 C 166.22 162.49 165.48 161.45 164.38 161.26 C 163.28 161.08 162.24 161.83 162.06 162.93 Z M 161.89 163.88 L 161.72 164.90 C 161.53 166.00 162.27 167.04 163.37 167.23 C 164.47 167.42 165.51 166.68 165.70 165.58 L 165.88 164.56 C 166.06 163.46 165.33 162.42 164.23 162.23 C 163.13 162.04 162.08 162.78 161.89 163.88 Z M 161.72 164.88 L 161.54 165.88 C 161.34 166.98 162.07 168.03 163.17 168.23 C 164.27 168.42 165.32 167.69 165.52 166.60 L 165.70 165.60 C 165.90 164.50 165.17 163.45 164.07 163.25 C 162.97 163.05 161.92 163.78 161.72 164.88 Z M 161.54 165.84 L 161.34 166.89 C 161.12 167.99 161.83 169.06 162.93 169.27 C 164.03 169.49 165.09 168.78 165.31 167.68 L 165.52 166.63 C 165.74 165.53 165.02 164.47 163.93 164.25 C 162.83 164.03 161.76 164.75 161.54 165.84 Z M 161.35 166.82 L 161.11 167.81 C 160.85 168.90 161.52 169.99 162.61 170.25 C 163.70 170.51 164.80 169.84 165.06 168.75 L 165.30 167.76 C 165.56 166.67 164.89 165.57 163.80 165.31 C 162.71 165.05 161.61 165.73 161.35 166.82 Z M 161.15 167.67 L 160.88 168.52 C 160.54 169.59 161.13 170.74 162.20 171.08 C 163.27 171.41 164.42 170.82 164.76 169.75 L 165.03 168.89 C 165.36 167.82 164.77 166.68 163.70 166.34 C 162.63 166.00 161.49 166.59 161.15 167.67 Z M 160.95 168.30 L 160.54 169.22 C 160.08 170.25 160.54 171.46 161.57 171.92 C 162.60 172.38 163.81 171.92 164.27 170.89 L 164.68 169.97 C 165.14 168.94 164.68 167.73 163.65 167.27 C 162.62 166.81 161.41 167.27 160.95 168.30 Z M 160.71 168.89 L 160.16 169.70 C 159.51 170.64 159.75 171.91 160.69 172.55 C 161.62 173.20 162.90 172.96 163.54 172.03 L 164.10 171.22 C 164.74 170.28 164.50 169.00 163.57 168.36 C 162.63 167.72 161.36 167.96 160.71 168.89 Z M 160.45 169.36 L 159.73 170.02 C 158.90 170.80 158.85 172.10 159.62 172.93 C 160.39 173.76 161.69 173.81 162.52 173.04 L 163.24 172.37 C 164.08 171.60 164.13 170.30 163.36 169.47 C 162.58 168.63 161.28 168.58 160.45 169.36 Z M 160.02 169.80 L 159.17 170.34 C 158.22 170.95 157.93 172.22 158.54 173.18 C 159.15 174.13 160.42 174.41 161.38 173.81 L 162.23 173.27 C 163.19 172.66 163.47 171.39 162.86 170.43 C 162.25 169.47 160.98 169.19 160.02 169.80 Z M 159.40 170.22 L 158.55 170.62 C 157.53 171.10 157.09 172.32 157.57 173.35 C 158.05 174.37 159.28 174.81 160.30 174.33 L 161.15 173.93 C 162.18 173.44 162.61 172.22 162.13 171.20 C 161.65 170.17 160.43 169.73 159.40 170.22 Z M 158.79 170.52 L 157.92 170.81 C 156.84 171.16 156.25 172.32 156.60 173.39 C 156.95 174.47 158.11 175.06 159.18 174.71 L 160.06 174.42 C 161.14 174.07 161.72 172.92 161.38 171.84 C 161.03 170.76 159.87 170.17 158.79 170.52 Z M 158.18 170.74 L 157.08 170.94 C 155.97 171.14 155.23 172.21 155.43 173.32 C 155.64 174.44 156.70 175.18 157.82 174.97 L 158.92 174.78 C 160.03 174.57 160.77 173.51 160.57 172.39 C 160.36 171.28 159.30 170.54 158.18 170.74 Z M 157.26 170.92 L 156.29 171.01 C 155.16 171.11 154.34 172.11 154.44 173.24 C 154.55 174.37 155.55 175.20 156.68 175.09 L 157.64 175.00 C 158.77 174.89 159.60 173.89 159.49 172.77 C 159.39 171.64 158.39 170.81 157.26 170.92 Z M 156.36 171.00 L 155.33 171.06 C 154.20 171.13 153.34 172.10 153.41 173.23 C 153.48 174.37 154.45 175.23 155.58 175.16 L 156.61 175.10 C 157.74 175.03 158.60 174.06 158.53 172.93 C 158.46 171.80 157.49 170.93 156.36 171.00 Z M 155.35 171.06 L 154.31 171.11 C 153.18 171.17 152.31 172.13 152.36 173.26 C 152.42 174.40 153.38 175.27 154.52 175.21 L 155.56 175.16 C 156.69 175.11 157.56 174.14 157.51 173.01 C 157.45 171.88 156.49 171.00 155.35 171.06 Z M 154.30 171.11 L 153.30 171.17 C 152.16 171.23 151.30 172.20 151.36 173.34 C 151.43 174.47 152.40 175.34 153.54 175.27 L 154.53 175.22 C 155.67 175.15 156.53 174.18 156.47 173.04 C 156.40 171.91 155.43 171.04 154.30 171.11 Z M 153.24 171.17 L 152.18 171.26 C 151.05 171.36 150.21 172.35 150.30 173.49 C 150.40 174.62 151.39 175.46 152.53 175.36 L 153.59 175.27 C 154.73 175.18 155.57 174.18 155.47 173.05 C 155.37 171.91 154.38 171.07 153.24 171.17 Z M 152.15 171.26 L 151.20 171.35 C 150.07 171.46 149.24 172.47 149.35 173.61 C 149.46 174.74 150.47 175.57 151.60 175.46 L 152.55 175.36 C 153.69 175.25 154.52 174.24 154.40 173.11 C 154.29 171.98 153.29 171.15 152.15 171.26 Z M 151.24 171.35 L 150.30 171.42 C 149.16 171.51 148.31 172.50 148.40 173.63 C 148.48 174.77 149.48 175.62 150.61 175.53 L 151.56 175.46 C 152.70 175.37 153.55 174.38 153.46 173.25 C 153.37 172.11 152.38 171.26 151.24 171.35 Z M 150.38 171.41 L 149.38 171.45 C 148.24 171.49 147.35 172.45 147.39 173.59 C 147.43 174.73 148.39 175.62 149.53 175.58 L 150.53 175.54 C 151.67 175.50 152.56 174.54 152.52 173.40 C 152.48 172.26 151.52 171.37 150.38 171.41 Z M 149.43 171.45 L 148.41 171.46 C 147.26 171.47 146.35 172.41 146.37 173.55 C 146.38 174.69 147.32 175.61 148.46 175.59 L 149.48 175.58 C 150.62 175.57 151.53 174.63 151.52 173.49 C 151.50 172.35 150.57 171.43 149.43 171.45 Z M 148.43 171.46 L 147.43 171.46 C 146.29 171.46 145.37 172.39 145.37 173.53 C 145.37 174.67 146.30 175.60 147.44 175.60 L 148.44 175.60 C 149.58 175.59 150.50 174.67 150.50 173.52 C 150.50 172.38 149.57 171.46 148.43 171.46 Z M 147.45 171.46 L 146.41 171.45 C 145.27 171.45 144.34 172.37 144.33 173.51 C 144.33 174.66 145.25 175.59 146.39 175.59 L 147.43 175.60 C 148.57 175.60 149.50 174.68 149.51 173.54 C 149.51 172.40 148.59 171.47 147.45 171.46 Z M 146.46 171.45 L 145.50 171.43 C 144.35 171.39 143.40 172.29 143.36 173.43 C 143.33 174.57 144.23 175.53 145.37 175.56 L 146.34 175.59 C 147.48 175.63 148.44 174.73 148.47 173.59 C 148.50 172.44 147.61 171.49 146.46 171.45 Z M 145.59 171.43 L 144.62 171.36 C 143.48 171.27 142.48 172.12 142.39 173.26 C 142.31 174.40 143.16 175.40 144.30 175.48 L 145.28 175.56 C 146.42 175.64 147.41 174.79 147.50 173.65 C 147.58 172.51 146.73 171.52 145.59 171.43 Z M 144.70 171.36 L 143.70 171.25 C 142.56 171.11 141.54 171.93 141.40 173.06 C 141.27 174.20 142.08 175.23 143.22 175.36 L 144.22 175.48 C 145.35 175.61 146.38 174.80 146.51 173.66 C 146.65 172.52 145.83 171.50 144.70 171.36 Z M 143.74 171.25 L 142.74 171.12 C 141.61 170.97 140.57 171.76 140.42 172.89 C 140.27 174.03 141.06 175.07 142.19 175.22 L 143.18 175.35 C 144.32 175.51 145.36 174.71 145.51 173.58 C 145.66 172.45 144.87 171.40 143.74 171.25 Z M 142.74 171.14 L 141.74 171.00 C 140.62 170.85 139.58 171.64 139.43 172.76 C 139.28 173.89 140.07 174.92 141.19 175.07 L 142.20 175.20 C 143.32 175.35 144.35 174.56 144.50 173.44 C 144.65 172.32 143.86 171.29 142.74 171.14 Z M 141.73 171.03 L 140.75 170.90 C 139.64 170.76 138.63 171.54 138.48 172.64 C 138.34 173.75 139.11 174.76 140.22 174.91 L 141.20 175.04 C 142.31 175.18 143.32 174.40 143.47 173.30 C 143.61 172.19 142.83 171.18 141.73 171.03 Z M 140.74 170.93 L 140.39 170.88 C 139.30 170.74 138.30 171.51 138.16 172.60 C 138.01 173.69 138.78 174.69 139.87 174.84 L 140.22 174.88 C 141.32 175.03 142.32 174.26 142.46 173.16 C 142.60 172.07 141.83 171.07 140.74 170.93 Z"
      fill="black"
      fill-rule="nonzero" /></svg>