<svg xmlns="http://www.w3.org/2000/svg" width="300" height="300" viewBox="0 0 300 300">
<path d="M 139.23 129.82 L 139.14 130.87 C 139.07 131.79 139.75 132.59 140.66 132.66 C 141.58 132.74 142.38 132.06 142.45 131.14 L 142.54 130.09 C 142.61 129.18 141.93 128.38 141.02 128.30 C 140.11 128.23 139.31 128.91 139.23 129.82 Z M 139.04 130.87 L 138.96 131.91 C 138.89 132.88 139.61 133.72 140.58 133.80 C 141.55 133.87 142.40 133.15 142.47 132.18 L 142.55 131.14 C 142.63 130.18 141.90 129.33 140.93 129.25 C 139.97 129.18 139.12 129.90 139.04 130.87 Z M 138.86 131.91 L 138.79 132.91 C 138.72 133.94 139.50 134.83 140.52 134.90 C 141.55 134.97 142.44 134.19 142.51 133.17 L 142.57 132.17 C 142.65 131.14 141.87 130.26 140.85 130.19 C 139.82 130.11 138.93 130.89 138.86 131.91 Z M 138.69 132.93 L 138.64 133.87 C 138.58 134.95 139.41 135.88 140.49 135.94 C 141.57 136.00 142.50 135.17 142.56 134.09 L 142.61 133.15 C 142.67 132.06 141.84 131.14 140.76 131.08 C 139.67 131.02 138.75 131.85 138.69 132.93 Z M 138.57 133.92 L 138.54 134.94 C 138.50 136.07 139.38 137.00 140.50 137.04 C 141.62 137.07 142.56 136.19 142.60 135.07 L 142.63 134.04 C 142.66 132.92 141.78 131.98 140.66 131.95 C 139.54 131.91 138.60 132.79 138.57 133.92 Z M 138.52 135.00 L 138.51 136.01 C 138.51 137.14 139.42 138.06 140.55 138.07 C 141.68 138.07 142.61 137.16 142.61 136.03 L 142.62 135.02 C 142.62 133.88 141.71 132.96 140.57 132.96 C 139.44 132.95 138.52 133.87 138.52 135.00 Z M 138.51 136.04 L 138.52 137.00 C 138.53 138.14 139.46 139.04 140.60 139.03 C 141.73 139.01 142.64 138.08 142.63 136.95 L 142.62 135.99 C 142.60 134.86 141.67 133.95 140.54 133.96 C 139.40 133.98 138.49 134.91 138.51 136.04 Z M 138.52 137.00 L 138.53 137.96 C 138.55 139.09 139.48 140.00 140.62 139.98 C 141.75 139.97 142.66 139.03 142.65 137.90 L 142.63 136.95 C 142.61 135.81 141.68 134.90 140.54 134.92 C 139.41 134.93 138.50 135.87 138.52 137.00 Z M 138.52 137.94 L 138.53 138.91 C 138.54 140.05 139.47 140.97 140.61 140.96 C 141.75 140.95 142.67 140.02 142.66 138.88 L 142.65 137.91 C 142.64 136.77 141.71 135.86 140.57 135.86 C 139.43 135.87 138.52 136.80 138.52 137.94 Z M 138.53 138.90 L 138.53 139.91 C 138.53 141.05 139.46 141.97 140.60 141.97 C 141.75 141.97 142.67 141.04 142.66 139.90 L 142.66 138.89 C 142.66 137.75 141.73 136.83 140.59 136.83 C 139.45 136.83 138.52 137.76 138.53 138.90 Z M 138.53 139.90 L 138.53 140.94 C 138.53 142.09 139.45 143.01 140.60 143.01 C 141.74 143.01 142.67 142.08 142.67 140.94 L 142.67 139.90 C 142.67 138.76 141.74 137.83 140.60 137.83 C 139.45 137.83 138.53 138.76 138.53 139.90 Z M 138.52 140.94 L 138.52 141.93 C 138.52 143.08 139.45 144.00 140.60 144.00 C 141.74 144.00 142.67 143.08 142.67 141.93 L 142.67 140.94 C 142.67 139.79 141.74 138.87 140.60 138.87 C 139.45 138.87 138.52 139.79 138.52 140.94 Z M 138.52 141.93 L 138.52 142.93 C 138.52 144.08 139.45 145.01 140.60 145.01 C 141.75 145.01 142.68 144.08 142.68 142.93 L 142.68 141.93 C 142.68 140.78 141.75 139.85 140.60 139.85 C 139.45 139.85 138.52 140.78 138.52 141.93 Z M 138.52 142.93 L 138.52 143.94 C 138.52 145.09 139.45 146.02 140.60 146.02 C 141.75 146.02 142.68 145.09 142.68 143.94 L 142.68 142.93 C 142.68 141.78 141.75 140.85 140.60 140.85 C 139.45 140.85 138.52 141.78 138.52 142.93 Z M 138.52 143.94 L 138.52 144.95 C 138.52 146.10 139.45 147.03 140.60 147.03 C 141.75 147.03 142.68 146.10 142.68 144.95 L 142.68 143.94 C 142.68 142.79 141.75 141.86 140.60 141.86 C 139.45 141.86 138.52 142.79 138.52 143.94 Z M 138.51 144.95 L 138.51 145.97 C 138.51 147.12 139.45 148.05 140.60 148.05 C 141.75 148.05 142.68 147.12 142.68 145.97 L 142.68 144.95 C 142.68 143.80 141.75 142.87 140.60 142.87 C 139.45 142.87 138.51 143.80 138.51 144.95 Z M 138.51 145.97 L 138.51 146.97 C 138.51 148.12 139.45 149.05 140.60 149.05 C 141.75 149.05 142.68 148.12 142.68 146.97 L 142.68 145.97 C 142.68 144.82 141.75 143.88 140.60 143.88 C 139.45 143.88 138.51 144.82 138.51 145.97 Z M 138.51 146.97 L 138.51 147.95 C 138.51 149.11 139.45 150.04 140.60 150.04 C 141.75 150.04 142.68 149.11 142.68 147.95 L 142.68 146.97 C 142.68 145.82 141.75 144.88 140.60 144.88 C 139.45 144.88 138.51 145.82 138.51 146.97 Z M 138.51 147.95 L 138.51 148.96 C 138.51 150.11 139.44 151.04 140.60 151.04 C 141.75 151.04 142.69 150.11 142.69 148.96 L 142.69 147.95 C 142.69 146.80 141.75 145.87 140.60 145.87 C 139.44 145.87 138.51 146.80 138.51 147.95 Z M 138.51 148.96 L 138.51 149.96 C 138.51 151.12 139.44 152.05 140.60 152.05 C 141.75 152.05 142.69 151.12 142.69 149.96 L 142.69 148.96 C 142.69 147.80 141.75 146.87 140.60 146.87 C 139.44 146.87 138.51 147.80 138.51 148.96 Z M 138.51 149.96 L 138.51 150.96 C 138.51 152.11 139.44 153.04 140.60 153.04 C 141.75 153.04 142.69 152.11 142.69 150.96 L 142.69 149.96 C 142.69 148.81 141.75 147.87 140.60 147.87 C 139.44 147.87 138.51 148.81 138.51 149.96 Z M 138.51 150.96 L 138.51 151.95 C 138.51 153.10 139.44 154.04 140.60 154.04 C 141.75 154.04 142.69 153.10 142.69 151.95 L 142.69 150.96 C 142.69 149.80 141.75 148.87 140.60 148.87 C 139.44 148.87 138.51 149.80 138.51 150.96 Z M 138.51 151.95 L 138.51 152.96 C 138.51 154.12 139.44 155.05 140.60 155.05 C 141.75 155.05 142.69 154.12 142.69 152.97 L 142.69 151.95 C 142.69 150.80 141.75 149.86 140.60 149.86 C 139.45 149.86 138.51 150.79 138.51 151.95 Z M 138.51 152.96 L 138.50 153.96 C 138.50 155.11 139.43 156.05 140.59 156.05 C 141.74 156.06 142.68 155.13 142.68 153.97 L 142.69 152.97 C 142.69 151.82 141.76 150.88 140.61 150.87 C 139.45 150.87 138.51 151.80 138.51 152.96 Z M 138.50 153.95 L 138.50 154.93 C 138.48 156.08 139.41 157.02 140.56 157.03 C 141.72 157.05 142.66 156.12 142.67 154.97 L 142.68 153.99 C 142.69 152.83 141.77 151.89 140.61 151.88 C 139.46 151.87 138.52 152.79 138.50 153.95 Z M 138.50 154.91 L 138.48 155.94 C 138.46 157.09 139.37 158.05 140.53 158.07 C 141.68 158.09 142.63 157.17 142.65 156.02 L 142.67 154.98 C 142.69 153.83 141.78 152.88 140.62 152.86 C 139.47 152.84 138.52 153.75 138.50 154.91 Z M 138.48 155.92 L 138.45 156.92 C 138.41 158.07 139.32 159.04 140.47 159.07 C 141.63 159.10 142.59 158.20 142.62 157.04 L 142.65 156.04 C 142.69 154.89 141.78 153.93 140.63 153.89 C 139.47 153.86 138.51 154.76 138.48 155.92 Z M 138.45 156.89 L 138.41 157.86 C 138.36 159.01 139.26 159.98 140.41 160.03 C 141.56 160.08 142.53 159.19 142.58 158.04 L 142.62 157.07 C 142.67 155.92 141.77 154.94 140.62 154.90 C 139.47 154.85 138.50 155.74 138.45 156.89 Z M 138.41 157.83 L 138.36 158.77 C 138.29 159.92 139.17 160.91 140.32 160.97 C 141.47 161.04 142.46 160.16 142.52 159.01 L 142.58 158.07 C 142.64 156.92 141.76 155.93 140.61 155.86 C 139.46 155.80 138.48 156.68 138.41 157.83 Z M 138.36 158.74 L 138.29 159.70 C 138.21 160.85 139.07 161.85 140.22 161.93 C 141.37 162.02 142.36 161.16 142.45 160.01 L 142.52 159.04 C 142.60 157.89 141.74 156.89 140.59 156.81 C 139.45 156.73 138.45 157.59 138.36 158.74 Z M 138.30 159.67 L 138.20 160.74 C 138.10 161.88 138.95 162.89 140.09 163.00 C 141.24 163.10 142.25 162.25 142.35 161.11 L 142.44 160.04 C 142.55 158.89 141.70 157.88 140.55 157.78 C 139.41 157.68 138.40 158.53 138.30 159.67 Z M 138.21 160.72 L 138.11 161.70 C 138.00 162.84 138.83 163.86 139.97 163.98 C 141.12 164.09 142.13 163.25 142.25 162.11 L 142.34 161.13 C 142.46 159.98 141.62 158.97 140.48 158.85 C 139.34 158.74 138.32 159.57 138.21 160.72 Z M 138.12 161.69 L 138.01 162.71 C 137.89 163.85 138.71 164.87 139.85 164.99 C 140.99 165.11 142.01 164.29 142.13 163.15 L 142.24 162.13 C 142.36 160.99 141.54 159.97 140.40 159.85 C 139.26 159.72 138.24 160.55 138.12 161.69 Z M 138.02 162.70 L 137.90 163.72 C 137.77 164.85 138.59 165.87 139.72 166.00 C 140.86 166.13 141.88 165.31 142.01 164.18 L 142.12 163.16 C 142.25 162.03 141.44 161.00 140.30 160.88 C 139.17 160.75 138.14 161.56 138.02 162.70 Z M 137.91 163.70 L 137.78 164.79 C 137.64 165.91 138.45 166.94 139.58 167.08 C 140.71 167.21 141.73 166.41 141.87 165.28 L 142.00 164.20 C 142.14 163.07 141.33 162.04 140.20 161.90 C 139.07 161.77 138.05 162.57 137.91 163.70 Z M 137.80 164.77 L 137.64 166.04 C 137.49 167.15 138.28 168.18 139.39 168.32 C 140.51 168.47 141.53 167.68 141.68 166.57 L 141.84 165.30 C 141.99 164.18 141.20 163.16 140.09 163.01 C 138.97 162.87 137.95 163.65 137.80 164.77 Z M 137.67 166.13 L 137.65 166.39 C 137.56 167.48 138.37 168.45 139.47 168.54 C 140.56 168.64 141.53 167.82 141.62 166.73 L 141.64 166.47 C 141.74 165.37 140.92 164.41 139.83 164.32 C 138.73 164.22 137.77 165.04 137.67 166.13 Z M 141.49 166.89 L 141.62 166.13 C 141.81 165.11 141.13 164.13 140.11 163.94 C 139.09 163.76 138.11 164.44 137.93 165.46 L 137.79 166.22 C 137.60 167.24 138.28 168.22 139.30 168.41 C 140.32 168.59 141.30 167.91 141.49 166.89 Z M 141.46 166.09 L 141.68 164.79 C 141.84 163.86 141.22 162.98 140.29 162.81 C 139.36 162.65 138.48 163.28 138.32 164.21 L 138.09 165.50 C 137.93 166.43 138.55 167.32 139.48 167.48 C 140.41 167.64 141.30 167.02 141.46 166.09 Z M 141.59 164.77 L 141.62 164.62 C 141.77 163.74 141.18 162.91 140.30 162.75 C 139.42 162.60 138.59 163.19 138.43 164.07 L 138.41 164.22 C 138.26 165.10 138.85 165.94 139.73 166.09 C 140.60 166.24 141.44 165.65 141.59 164.77 Z"
      fill="black"
      fill-rule="nonzero" /><path d="M 145.92 132.13 L 145.21 131.09 C 144.64 130.25 143.48 130.03 142.64 130.60 C 141.79 131.18 141.57 132.33 142.15 133.18 L 142.86 134.21 C 143.43 135.06 144.58 135.28 145.43 134.70 C 146.28 134.13 146.49 132.97 145.92 132.13 Z M 142.42 130.62 L 142.38 130.66 C 141.54 131.35 141.43 132.60 142.12 133.43 C 142.82 134.27 144.06 134.38 144.89 133.68 L 144.94 133.65 C 145.78 132.95 145.89 131.71 145.19 130.87 C 144.50 130.04 143.26 129.92 142.42 130.62 Z M 141.84 133.10 L 142.24 133.89 C 142.76 134.88 143.98 135.27 144.97 134.75 C 145.96 134.24 146.35 133.02 145.84 132.02 L 145.43 131.24 C 144.92 130.25 143.70 129.86 142.70 130.37 C 141.71 130.89 141.32 132.11 141.84 133.10 Z M 142.22 133.88 L 142.81 135.04 C 143.32 136.05 144.55 136.46 145.55 135.95 C 146.56 135.44 146.96 134.21 146.45 133.20 L 145.86 132.03 C 145.35 131.02 144.12 130.62 143.12 131.13 C 142.11 131.64 141.71 132.87 142.22 133.88 Z M 142.76 134.99 L 143.23 135.98 C 143.71 137.01 144.93 137.46 145.96 136.98 C 146.99 136.50 147.44 135.27 146.96 134.24 L 146.50 133.25 C 146.02 132.22 144.79 131.77 143.76 132.25 C 142.73 132.74 142.28 133.96 142.76 134.99 Z M 143.20 135.94 L 143.61 136.89 C 144.07 137.93 145.29 138.41 146.33 137.95 C 147.38 137.50 147.86 136.28 147.40 135.23 L 146.99 134.29 C 146.53 133.24 145.31 132.76 144.27 133.22 C 143.22 133.68 142.74 134.89 143.20 135.94 Z M 143.60 136.86 L 143.98 137.77 C 144.42 138.83 145.64 139.32 146.69 138.88 C 147.75 138.43 148.24 137.22 147.80 136.16 L 147.42 135.26 C 146.97 134.20 145.76 133.71 144.70 134.15 C 143.65 134.59 143.15 135.81 143.60 136.86 Z M 143.97 137.77 L 144.36 138.69 C 144.80 139.75 146.02 140.25 147.08 139.81 C 148.13 139.36 148.63 138.15 148.19 137.09 L 147.81 136.17 C 147.36 135.11 146.15 134.61 145.09 135.05 C 144.03 135.49 143.53 136.71 143.97 137.77 Z M 144.36 138.70 L 144.76 139.65 C 145.21 140.71 146.43 141.21 147.49 140.76 C 148.55 140.31 149.04 139.08 148.59 138.02 L 148.19 137.07 C 147.74 136.02 146.52 135.52 145.46 135.97 C 144.40 136.42 143.91 137.65 144.36 138.70 Z M 144.76 139.67 L 145.14 140.53 C 145.59 141.58 146.82 142.07 147.87 141.61 C 148.93 141.16 149.42 139.93 148.96 138.87 L 148.59 138.01 C 148.14 136.96 146.91 136.47 145.85 136.93 C 144.80 137.38 144.31 138.61 144.76 139.67 Z M 145.13 140.53 L 145.52 141.42 C 145.98 142.48 147.21 142.97 148.27 142.51 C 149.32 142.05 149.81 140.82 149.35 139.76 L 148.96 138.87 C 148.51 137.81 147.28 137.33 146.22 137.78 C 145.16 138.24 144.68 139.47 145.13 140.53 Z M 145.52 141.42 L 145.91 142.34 C 146.37 143.40 147.60 143.89 148.66 143.43 C 149.72 142.97 150.21 141.74 149.75 140.68 L 149.35 139.77 C 148.90 138.71 147.67 138.22 146.61 138.68 C 145.55 139.13 145.06 140.36 145.52 141.42 Z M 145.91 142.33 L 146.30 143.25 C 146.75 144.31 147.98 144.80 149.04 144.35 C 150.11 143.90 150.60 142.67 150.15 141.61 L 149.75 140.69 C 149.30 139.63 148.07 139.14 147.01 139.59 C 145.95 140.04 145.46 141.27 145.91 142.33 Z M 146.30 143.24 L 146.68 144.16 C 147.13 145.22 148.36 145.72 149.43 145.27 C 150.49 144.82 150.99 143.59 150.54 142.53 L 150.15 141.61 C 149.70 140.55 148.47 140.05 147.41 140.50 C 146.34 140.95 145.85 142.18 146.30 143.24 Z M 146.68 144.16 L 147.08 145.09 C 147.53 146.16 148.76 146.65 149.82 146.20 C 150.89 145.75 151.38 144.52 150.93 143.46 L 150.54 142.53 C 150.08 141.46 148.86 140.97 147.79 141.42 C 146.73 141.87 146.23 143.10 146.68 144.16 Z M 147.08 145.10 L 147.48 146.02 C 147.94 147.08 149.17 147.57 150.23 147.11 C 151.29 146.66 151.78 145.42 151.32 144.36 L 150.93 143.44 C 150.47 142.38 149.24 141.89 148.18 142.35 C 147.11 142.81 146.62 144.04 147.08 145.10 Z M 147.48 146.04 L 147.89 146.95 C 148.35 148.01 149.59 148.49 150.65 148.03 C 151.71 147.56 152.19 146.32 151.72 145.26 L 151.32 144.35 C 150.85 143.29 149.62 142.81 148.56 143.27 C 147.50 143.74 147.02 144.98 147.48 146.04 Z M 147.89 146.97 L 148.30 147.89 C 148.78 148.94 150.02 149.42 151.08 148.94 C 152.14 148.46 152.61 147.22 152.13 146.16 L 151.72 145.25 C 151.24 144.19 150.00 143.72 148.94 144.20 C 147.89 144.67 147.42 145.91 147.89 146.97 Z M 148.31 147.90 L 148.73 148.82 C 149.21 149.87 150.46 150.33 151.52 149.85 C 152.57 149.36 153.03 148.12 152.55 147.06 L 152.13 146.15 C 151.64 145.09 150.39 144.63 149.34 145.12 C 148.29 145.60 147.83 146.85 148.31 147.90 Z M 148.73 148.83 L 149.15 149.73 C 149.64 150.78 150.90 151.23 151.95 150.74 C 153.00 150.25 153.45 149.00 152.96 147.95 L 152.54 147.05 C 152.05 146.00 150.80 145.54 149.75 146.03 C 148.70 146.53 148.24 147.78 148.73 148.83 Z M 149.16 149.74 L 149.54 150.55 C 150.04 151.60 151.29 152.05 152.34 151.56 C 153.39 151.06 153.84 149.81 153.35 148.76 L 152.96 147.94 C 152.46 146.89 151.21 146.44 150.16 146.94 C 149.11 147.43 148.66 148.69 149.16 149.74 Z M 149.55 150.58 L 149.98 151.45 C 150.49 152.49 151.75 152.92 152.79 152.41 C 153.83 151.91 154.27 150.65 153.76 149.60 L 153.34 148.73 C 152.83 147.69 151.57 147.26 150.52 147.77 C 149.48 148.28 149.04 149.53 149.55 150.58 Z M 149.99 151.48 L 150.50 152.48 C 151.03 153.51 152.30 153.92 153.33 153.40 C 154.37 152.87 154.78 151.60 154.25 150.56 L 153.74 149.57 C 153.21 148.53 151.95 148.12 150.91 148.65 C 149.88 149.18 149.47 150.45 149.99 151.48 Z M 150.52 152.51 L 150.96 153.33 C 151.50 154.36 152.77 154.75 153.80 154.21 C 154.83 153.66 155.22 152.39 154.68 151.36 L 154.24 150.54 C 153.69 149.51 152.42 149.12 151.39 149.66 C 150.36 150.21 149.97 151.48 150.52 152.51 Z M 150.97 153.36 L 151.45 154.25 C 152.01 155.27 153.29 155.65 154.31 155.09 C 155.33 154.53 155.71 153.26 155.15 152.23 L 154.67 151.34 C 154.11 150.32 152.83 149.94 151.81 150.50 C 150.79 151.05 150.41 152.33 150.97 153.36 Z M 151.46 154.27 L 151.97 155.18 C 152.54 156.19 153.82 156.56 154.84 155.99 C 155.85 155.42 156.22 154.14 155.65 153.12 L 155.14 152.21 C 154.57 151.20 153.29 150.83 152.27 151.40 C 151.26 151.97 150.89 153.25 151.46 154.27 Z M 151.98 155.20 L 152.49 156.09 C 153.07 157.10 154.36 157.44 155.37 156.86 C 156.38 156.28 156.73 154.99 156.15 153.98 L 155.64 153.10 C 155.05 152.09 153.76 151.74 152.76 152.32 C 151.75 152.90 151.40 154.19 151.98 155.20 Z M 152.51 156.12 L 153.05 157.02 C 153.65 158.01 154.94 158.34 155.94 157.74 C 156.94 157.14 157.26 155.84 156.66 154.84 L 156.13 153.95 C 155.53 152.95 154.23 152.62 153.23 153.22 C 152.23 153.82 151.91 155.12 152.51 156.12 Z M 153.08 157.06 L 153.61 157.90 C 154.23 158.88 155.54 159.17 156.52 158.54 C 157.50 157.92 157.79 156.61 157.17 155.63 L 156.64 154.79 C 156.01 153.81 154.71 153.52 153.72 154.15 C 152.74 154.77 152.45 156.08 153.08 157.06 Z M 153.64 157.95 L 154.19 158.76 C 154.85 159.72 156.16 159.97 157.13 159.31 C 158.09 158.65 158.34 157.34 157.68 156.38 L 157.13 155.57 C 156.47 154.61 155.16 154.36 154.20 155.02 C 153.23 155.68 152.99 156.99 153.64 157.95 Z M 154.23 158.82 L 154.81 159.61 C 155.50 160.55 156.83 160.75 157.77 160.06 C 158.71 159.37 158.91 158.04 158.22 157.10 L 157.64 156.32 C 156.95 155.38 155.62 155.17 154.68 155.86 C 153.74 156.56 153.54 157.88 154.23 158.82 Z M 154.86 159.67 L 155.48 160.45 C 156.20 161.36 157.53 161.52 158.44 160.80 C 159.36 160.07 159.52 158.74 158.79 157.83 L 158.17 157.04 C 157.45 156.13 156.12 155.97 155.20 156.70 C 154.29 157.42 154.13 158.75 154.86 159.67 Z M 155.52 160.51 L 156.17 161.28 C 156.93 162.17 158.27 162.27 159.16 161.52 C 160.05 160.76 160.16 159.43 159.40 158.54 L 158.75 157.77 C 157.99 156.88 156.65 156.77 155.76 157.53 C 154.87 158.28 154.76 159.62 155.52 160.51 Z M 156.23 161.34 L 156.91 162.08 C 157.70 162.94 159.04 163.00 159.90 162.20 C 160.76 161.41 160.82 160.07 160.03 159.21 L 159.35 158.47 C 158.55 157.61 157.21 157.56 156.35 158.35 C 155.49 159.14 155.44 160.48 156.23 161.34 Z M 156.97 162.15 L 157.71 162.89 C 158.54 163.72 159.88 163.71 160.71 162.88 C 161.54 162.05 161.54 160.71 160.71 159.88 L 159.97 159.14 C 159.13 158.31 157.79 158.32 156.96 159.15 C 156.14 159.98 156.14 161.32 156.97 162.15 Z M 157.77 162.96 L 158.52 163.65 C 159.39 164.45 160.74 164.39 161.54 163.52 C 162.33 162.65 162.28 161.30 161.41 160.51 L 160.65 159.81 C 159.78 159.02 158.43 159.07 157.64 159.94 C 156.84 160.81 156.90 162.16 157.77 162.96 Z M 158.57 163.71 L 159.31 164.34 C 160.21 165.11 161.57 165.01 162.34 164.11 C 163.11 163.21 163.00 161.85 162.10 161.08 L 161.36 160.45 C 160.46 159.68 159.11 159.79 158.34 160.69 C 157.57 161.59 157.67 162.94 158.57 163.71 Z M 159.35 164.40 L 160.19 165.07 C 161.12 165.81 162.48 165.67 163.22 164.74 C 163.97 163.81 163.82 162.45 162.90 161.70 L 162.06 161.03 C 161.13 160.28 159.77 160.43 159.02 161.36 C 158.28 162.29 158.42 163.65 159.35 164.40 Z M 160.34 165.20 L 161.26 165.82 C 162.27 166.48 163.62 166.21 164.29 165.20 C 164.95 164.20 164.68 162.84 163.67 162.18 L 162.75 161.57 C 161.74 160.90 160.39 161.18 159.72 162.18 C 159.06 163.19 159.33 164.54 160.34 165.20 Z M 162.30 166.20 L 162.95 166.25 C 164.16 166.34 165.22 165.43 165.32 164.22 C 165.41 163.00 164.50 161.94 163.29 161.85 L 162.64 161.80 C 161.42 161.70 160.36 162.61 160.27 163.83 C 160.17 165.04 161.08 166.10 162.30 166.20 Z M 165.18 164.88 L 165.50 164.08 C 165.96 162.95 165.41 161.65 164.27 161.19 C 163.13 160.73 161.84 161.28 161.38 162.42 L 161.06 163.22 C 160.60 164.35 161.15 165.65 162.29 166.11 C 163.42 166.57 164.72 166.02 165.18 164.88 Z M 165.65 163.43 L 165.75 162.29 C 165.85 161.07 164.93 160.00 163.71 159.90 C 162.49 159.80 161.41 160.71 161.32 161.93 L 161.22 163.07 C 161.12 164.29 162.03 165.37 163.26 165.47 C 164.48 165.57 165.55 164.66 165.65 163.43 Z M 165.75 162.22 L 165.80 161.23 C 165.86 160.01 164.91 158.97 163.68 158.91 C 162.46 158.85 161.41 159.80 161.36 161.02 L 161.31 162.01 C 161.25 163.23 162.20 164.28 163.42 164.33 C 164.65 164.39 165.69 163.45 165.75 162.22 Z M 165.80 161.22 L 165.84 160.20 C 165.89 158.97 164.93 157.94 163.71 157.89 C 162.48 157.84 161.44 158.80 161.40 160.02 L 161.35 161.04 C 161.31 162.27 162.26 163.30 163.49 163.35 C 164.72 163.40 165.75 162.44 165.80 161.22 Z M 165.84 160.20 L 165.88 159.20 C 165.93 157.98 164.97 156.94 163.74 156.90 C 162.51 156.85 161.48 157.81 161.43 159.03 L 161.40 160.03 C 161.35 161.25 162.31 162.29 163.53 162.33 C 164.76 162.38 165.79 161.42 165.84 160.20 Z M 165.88 159.19 L 165.91 158.19 C 165.95 156.96 164.99 155.93 163.77 155.89 C 162.54 155.85 161.51 156.81 161.47 158.04 L 161.43 159.04 C 161.39 160.27 162.35 161.30 163.58 161.34 C 164.81 161.38 165.84 160.42 165.88 159.19 Z M 165.91 158.17 L 165.94 157.18 C 165.96 155.95 164.99 154.93 163.77 154.90 C 162.54 154.87 161.52 155.84 161.49 157.07 L 161.47 158.06 C 161.44 159.29 162.41 160.31 163.64 160.34 C 164.86 160.37 165.88 159.40 165.91 158.17 Z M 165.93 157.15 L 165.94 156.20 C 165.96 154.98 164.97 153.97 163.75 153.96 C 162.52 153.95 161.52 154.93 161.51 156.15 L 161.50 157.10 C 161.48 158.32 162.46 159.33 163.69 159.34 C 164.91 159.35 165.92 158.37 165.93 157.15 Z M 165.94 156.18 L 165.94 155.18 C 165.94 153.96 164.96 152.96 163.73 152.96 C 162.51 152.95 161.52 153.94 161.52 155.16 L 161.51 156.17 C 161.51 157.39 162.50 158.38 163.72 158.39 C 164.94 158.39 165.93 157.41 165.94 156.18 Z M 165.93 155.17 L 165.93 154.12 C 165.93 152.90 164.95 151.91 163.73 151.91 C 162.51 151.91 161.52 152.90 161.52 154.12 L 161.52 155.17 C 161.52 156.39 162.51 157.37 163.73 157.37 C 164.94 157.37 165.93 156.39 165.93 155.17 Z M 165.92 154.12 L 165.92 153.10 C 165.92 151.89 164.94 150.91 163.73 150.91 C 162.52 150.91 161.53 151.89 161.53 153.10 L 161.53 154.12 C 161.53 155.33 162.52 156.31 163.73 156.31 C 164.94 156.31 165.92 155.33 165.92 154.12 Z M 165.91 153.10 L 165.91 152.07 C 165.91 150.87 164.93 149.89 163.73 149.89 C 162.52 149.89 161.54 150.87 161.54 152.07 L 161.54 153.10 C 161.54 154.31 162.52 155.29 163.73 155.29 C 164.93 155.29 165.91 154.31 165.91 153.10 Z M 165.90 152.07 L 165.90 151.10 C 165.90 149.90 164.93 148.93 163.73 148.93 C 162.53 148.93 161.55 149.90 161.55 151.10 L 161.55 152.07 C 161.55 153.27 162.53 154.25 163.73 154.25 C 164.93 154.25 165.90 153.27 165.90 152.07 Z M 165.89 151.10 L 165.89 150.03 C 165.89 148.83 164.92 147.87 163.73 147.87 C 162.54 147.87 161.57 148.83 161.57 150.03 L 161.57 151.10 C 161.57 152.29 162.54 153.26 163.73 153.26 C 164.92 153.26 165.89 152.29 165.89 151.10 Z M 165.87 150.03 L 165.87 149.06 C 165.87 147.88 164.91 146.92 163.73 146.92 C 162.55 146.92 161.59 147.88 161.59 149.06 L 161.59 150.03 C 161.59 151.21 162.55 152.16 163.73 152.16 C 164.91 152.16 165.87 151.21 165.87 150.03 Z M 165.84 149.06 L 165.84 148.12 C 165.84 146.95 164.90 146.00 163.73 146.00 C 162.56 146.00 161.61 146.95 161.61 148.12 L 161.61 149.06 C 161.61 150.23 162.56 151.18 163.73 151.18 C 164.90 151.18 165.84 150.23 165.84 149.06 Z M 165.83 148.11 L 165.82 147.13 C 165.82 145.97 164.88 145.03 163.72 145.03 C 162.56 145.03 161.62 145.98 161.63 147.14 L 161.63 148.12 C 161.63 149.28 162.57 150.22 163.73 150.22 C 164.89 150.21 165.83 149.27 165.83 148.11 Z M 165.81 147.11 L 165.80 146.10 C 165.79 144.95 164.85 144.02 163.70 144.03 C 162.55 144.04 161.62 144.99 161.63 146.14 L 161.64 147.15 C 161.65 148.30 162.59 149.23 163.75 149.21 C 164.90 149.20 165.82 148.26 165.81 147.11 Z M 165.78 146.07 L 165.76 145.07 C 165.73 143.93 164.79 143.03 163.65 143.05 C 162.51 143.08 161.60 144.02 161.63 145.16 L 161.65 146.16 C 161.68 147.30 162.62 148.21 163.76 148.18 C 164.90 148.16 165.81 147.21 165.78 146.07 Z M 165.74 145.05 L 165.70 144.05 C 165.67 142.92 164.72 142.03 163.59 142.07 C 162.46 142.11 161.58 143.06 161.61 144.19 L 161.65 145.19 C 161.69 146.32 162.64 147.20 163.77 147.16 C 164.89 147.12 165.78 146.17 165.74 145.05 Z M 165.68 144.03 L 165.64 143.02 C 165.59 141.90 164.64 141.04 163.52 141.09 C 162.40 141.14 161.54 142.08 161.59 143.20 L 161.64 144.21 C 161.69 145.33 162.63 146.19 163.75 146.14 C 164.87 146.09 165.73 145.14 165.68 144.03 Z M 165.62 143.00 L 165.56 142.02 C 165.50 140.92 164.56 140.07 163.45 140.13 C 162.35 140.19 161.50 141.14 161.56 142.24 L 161.61 143.22 C 161.67 144.33 162.62 145.17 163.72 145.11 C 164.83 145.05 165.68 144.11 165.62 143.00 Z M 165.54 142.02 L 165.48 141.02 C 165.42 139.93 164.48 139.09 163.38 139.16 C 162.29 139.22 161.45 140.16 161.52 141.26 L 161.58 142.25 C 161.64 143.35 162.58 144.18 163.68 144.11 C 164.77 144.05 165.61 143.11 165.54 142.02 Z M 165.46 141.02 L 165.40 139.99 C 165.33 138.91 164.40 138.09 163.32 138.15 C 162.23 138.22 161.41 139.15 161.48 140.24 L 161.54 141.26 C 161.61 142.34 162.54 143.17 163.62 143.10 C 164.71 143.03 165.53 142.10 165.46 141.02 Z M 165.37 139.99 L 165.31 138.99 C 165.25 137.92 164.33 137.10 163.26 137.17 C 162.19 137.24 161.37 138.16 161.44 139.23 L 161.50 140.23 C 161.57 141.30 162.49 142.12 163.56 142.05 C 164.63 141.99 165.44 141.06 165.37 139.99 Z M 165.29 138.99 L 165.22 137.98 C 165.16 136.92 164.25 136.12 163.19 136.19 C 162.14 136.25 161.34 137.16 161.40 138.22 L 161.46 139.23 C 161.53 140.28 162.44 141.09 163.49 141.02 C 164.55 140.95 165.35 140.04 165.29 138.99 Z M 165.20 137.98 L 165.14 137.00 C 165.07 135.96 164.17 135.17 163.13 135.23 C 162.09 135.30 161.30 136.20 161.36 137.24 L 161.43 138.22 C 161.49 139.26 162.39 140.05 163.43 139.98 C 164.47 139.92 165.26 139.02 165.20 137.98 Z M 165.11 137.00 L 165.05 136.04 C 164.98 135.01 164.09 134.23 163.06 134.30 C 162.04 134.37 161.26 135.26 161.33 136.28 L 161.39 137.24 C 161.46 138.27 162.35 139.05 163.37 138.98 C 164.40 138.91 165.18 138.02 165.11 137.00 Z M 165.03 136.04 L 164.96 135.07 C 164.89 134.05 164.01 133.28 163.00 133.35 C 161.98 133.42 161.21 134.30 161.28 135.32 L 161.35 136.29 C 161.42 137.30 162.30 138.07 163.31 138.00 C 164.33 137.93 165.10 137.05 165.03 136.04 Z M 164.94 135.07 L 164.86 134.00 C 164.80 133.00 163.93 132.24 162.92 132.31 C 161.92 132.38 161.16 133.25 161.23 134.25 L 161.30 135.32 C 161.37 136.32 162.24 137.08 163.25 137.01 C 164.25 136.94 165.01 136.07 164.94 135.07 Z M 164.85 134.00 L 164.78 133.05 C 164.71 132.06 163.85 131.31 162.85 131.38 C 161.86 131.45 161.11 132.31 161.18 133.30 L 161.25 134.25 C 161.32 135.25 162.18 136.00 163.17 135.93 C 164.17 135.86 164.91 134.99 164.85 134.00 Z M 164.76 133.04 L 164.68 132.03 C 164.61 131.04 163.75 130.31 162.77 130.38 C 161.78 130.46 161.05 131.32 161.12 132.30 L 161.20 133.31 C 161.28 134.30 162.14 135.03 163.12 134.96 C 164.10 134.88 164.84 134.02 164.76 133.04 Z M 164.66 132.01 L 164.57 130.98 C 164.48 130.01 163.62 129.29 162.65 129.38 C 161.68 129.47 160.96 130.32 161.05 131.30 L 161.14 132.32 C 161.23 133.29 162.09 134.01 163.06 133.92 C 164.03 133.84 164.75 132.98 164.66 132.01 Z M 164.55 130.94 L 164.43 129.92 C 164.32 128.97 163.46 128.28 162.50 128.38 C 161.54 128.49 160.85 129.36 160.96 130.31 L 161.08 131.33 C 161.18 132.29 162.05 132.98 163.01 132.87 C 163.96 132.77 164.65 131.90 164.55 130.94 Z M 164.40 129.88 L 164.25 128.85 C 164.12 127.91 163.25 127.26 162.31 127.39 C 161.37 127.52 160.72 128.39 160.85 129.33 L 161.00 130.36 C 161.13 131.30 162.00 131.95 162.94 131.82 C 163.88 131.69 164.53 130.82 164.40 129.88 Z M 164.21 128.81 L 164.05 127.84 C 163.89 126.93 163.03 126.31 162.11 126.46 C 161.19 126.61 160.58 127.48 160.73 128.40 L 160.89 129.37 C 161.04 130.28 161.91 130.90 162.83 130.75 C 163.74 130.60 164.36 129.73 164.21 128.81 Z M 164.01 127.83 L 163.84 126.89 C 163.68 125.99 162.82 125.40 161.92 125.56 C 161.03 125.72 160.43 126.58 160.60 127.47 L 160.77 128.41 C 160.93 129.31 161.79 129.90 162.68 129.74 C 163.58 129.58 164.17 128.72 164.01 127.83 Z M 163.82 126.88 L 163.81 126.83 C 163.65 125.95 162.80 125.36 161.91 125.52 C 161.03 125.69 160.44 126.54 160.61 127.42 L 160.62 127.47 C 160.78 128.36 161.63 128.94 162.51 128.78 C 163.40 128.62 163.98 127.77 163.82 126.88 Z"
      fill="black"
      fill-rule="nonzero" /></svg>