<svg xmlns="http://www.w3.org/2000/svg" width="300" height="300" viewBox="0 0 300 300">
<path d="M 162.20 134.94 L 162.04 133.96 C 161.87 132.87 160.84 132.12 159.75 132.30 C 158.66 132.47 157.92 133.50 158.09 134.59 L 158.25 135.57 C 158.42 136.66 159.45 137.40 160.54 137.23 C 161.63 137.06 162.37 136.03 162.20 134.94 Z M 162.05 133.97 L 161.90 132.98 C 161.74 131.89 160.71 131.13 159.62 131.30 C 158.52 131.47 157.77 132.49 157.93 133.58 L 158.08 134.57 C 158.25 135.67 159.27 136.42 160.37 136.26 C 161.46 136.09 162.22 135.07 162.05 133.97 Z M 161.91 133.01 L 161.77 132.01 C 161.62 130.91 160.61 130.14 159.51 130.29 C 158.41 130.44 157.64 131.45 157.79 132.56 L 157.93 133.56 C 158.08 134.66 159.09 135.43 160.19 135.28 C 161.29 135.13 162.06 134.11 161.91 133.01 Z M 161.77 131.97 L 161.62 130.98 C 161.45 129.88 160.42 129.13 159.32 129.30 C 158.22 129.47 157.47 130.50 157.64 131.60 L 157.79 132.59 C 157.96 133.69 158.99 134.44 160.09 134.27 C 161.19 134.10 161.94 133.07 161.77 131.97 Z M 161.58 130.80 L 161.34 129.85 C 161.08 128.77 159.99 128.11 158.91 128.38 C 157.83 128.64 157.17 129.73 157.44 130.81 L 157.67 131.77 C 157.94 132.85 159.03 133.51 160.11 133.24 C 161.19 132.97 161.85 131.88 161.58 130.80 Z M 161.25 129.55 L 160.87 128.66 C 160.44 127.64 159.26 127.15 158.24 127.59 C 157.21 128.02 156.73 129.20 157.16 130.23 L 157.53 131.11 C 157.97 132.14 159.15 132.62 160.17 132.19 C 161.20 131.76 161.68 130.57 161.25 129.55 Z M 160.73 128.37 L 160.20 127.52 C 159.60 126.58 158.36 126.29 157.41 126.89 C 156.47 127.48 156.18 128.73 156.78 129.67 L 157.31 130.52 C 157.90 131.46 159.15 131.75 160.09 131.15 C 161.04 130.56 161.32 129.31 160.73 128.37 Z M 160.05 127.31 L 159.41 126.53 C 158.69 125.67 157.42 125.54 156.55 126.25 C 155.69 126.97 155.57 128.24 156.28 129.11 L 156.92 129.89 C 157.63 130.75 158.91 130.87 159.77 130.16 C 160.64 129.45 160.76 128.17 160.05 127.31 Z M 159.29 126.38 L 158.59 125.68 C 157.80 124.88 156.51 124.88 155.71 125.67 C 154.91 126.46 154.91 127.75 155.70 128.55 L 156.40 129.25 C 157.19 130.05 158.48 130.06 159.28 129.26 C 160.08 128.47 160.08 127.18 159.29 126.38 Z M 158.48 125.56 L 157.71 124.89 C 156.85 124.16 155.55 124.25 154.82 125.11 C 154.08 125.97 154.18 127.27 155.03 128.01 L 155.81 128.67 C 156.67 129.41 157.96 129.31 158.70 128.45 C 159.44 127.59 159.34 126.30 158.48 125.56 Z M 157.58 124.78 L 156.74 124.17 C 155.82 123.50 154.53 123.70 153.86 124.62 C 153.19 125.55 153.39 126.84 154.32 127.51 L 155.16 128.12 C 156.08 128.79 157.37 128.58 158.04 127.66 C 158.71 126.74 158.51 125.45 157.58 124.78 Z M 156.61 124.07 L 155.73 123.53 C 154.75 122.93 153.47 123.24 152.88 124.22 C 152.28 125.20 152.59 126.47 153.57 127.07 L 154.45 127.61 C 155.43 128.20 156.70 127.89 157.30 126.92 C 157.89 125.94 157.59 124.66 156.61 124.07 Z M 155.60 123.45 L 154.73 123.00 C 153.71 122.48 152.46 122.88 151.93 123.90 C 151.41 124.92 151.81 126.17 152.83 126.70 L 153.69 127.15 C 154.71 127.67 155.97 127.27 156.49 126.25 C 157.02 125.23 156.62 123.98 155.60 123.45 Z M 154.61 122.94 L 153.68 122.54 C 152.63 122.08 151.40 122.57 150.94 123.63 C 150.49 124.69 150.97 125.91 152.03 126.37 L 152.95 126.77 C 154.01 127.22 155.24 126.74 155.69 125.68 C 156.15 124.62 155.66 123.39 154.61 122.94 Z M 153.51 122.47 L 152.57 122.16 C 151.47 121.80 150.29 122.39 149.93 123.49 C 149.57 124.59 150.16 125.77 151.26 126.13 L 152.20 126.44 C 153.30 126.80 154.48 126.20 154.84 125.11 C 155.21 124.01 154.61 122.83 153.51 122.47 Z M 152.34 122.09 L 151.40 121.89 C 150.26 121.66 149.15 122.39 148.92 123.53 C 148.68 124.66 149.42 125.77 150.55 126.01 L 151.49 126.20 C 152.63 126.43 153.74 125.70 153.97 124.57 C 154.20 123.43 153.47 122.32 152.34 122.09 Z M 151.17 121.84 L 150.19 121.75 C 149.02 121.64 147.99 122.49 147.88 123.66 C 147.77 124.82 148.62 125.86 149.79 125.97 L 150.77 126.06 C 151.94 126.17 152.97 125.32 153.08 124.15 C 153.19 122.98 152.34 121.95 151.17 121.84 Z M 150.04 121.71 L 149.03 121.68 C 147.84 121.66 146.85 122.60 146.83 123.78 C 146.80 124.97 147.74 125.96 148.93 125.98 L 149.94 126.01 C 151.13 126.04 152.11 125.10 152.14 123.91 C 152.17 122.72 151.23 121.73 150.04 121.71 Z M 148.93 121.66 L 147.92 121.69 C 146.72 121.71 145.78 122.71 145.80 123.91 C 145.83 125.11 146.83 126.06 148.02 126.03 L 149.03 126.00 C 150.23 125.98 151.17 124.98 151.15 123.78 C 151.12 122.58 150.12 121.64 148.93 121.66 Z M 147.71 121.69 L 146.72 121.82 C 145.52 121.96 144.67 123.05 144.82 124.24 C 144.97 125.44 146.05 126.29 147.25 126.14 L 148.24 126.02 C 149.43 125.87 150.28 124.79 150.14 123.59 C 149.99 122.40 148.90 121.55 147.71 121.69 Z M 146.35 121.89 L 145.41 122.17 C 144.26 122.52 143.60 123.73 143.95 124.89 C 144.30 126.05 145.51 126.70 146.67 126.35 L 147.61 126.07 C 148.77 125.72 149.42 124.51 149.08 123.35 C 148.73 122.19 147.51 121.54 146.35 121.89 Z M 145.07 122.30 L 144.18 122.74 C 143.10 123.28 142.65 124.59 143.19 125.67 C 143.72 126.76 145.04 127.20 146.12 126.66 L 147.01 126.22 C 148.10 125.69 148.54 124.37 148.00 123.29 C 147.47 122.21 146.15 121.76 145.07 122.30 Z M 143.97 122.86 L 143.12 123.41 C 142.10 124.06 141.81 125.41 142.46 126.43 C 143.11 127.45 144.47 127.74 145.49 127.09 L 146.33 126.55 C 147.35 125.89 147.65 124.54 146.99 123.52 C 146.34 122.50 144.98 122.21 143.97 122.86 Z M 142.98 123.50 L 142.20 124.08 C 141.23 124.81 141.04 126.19 141.77 127.15 C 142.50 128.12 143.87 128.32 144.84 127.59 L 145.62 127.00 C 146.59 126.27 146.78 124.90 146.05 123.93 C 145.33 122.96 143.95 122.77 142.98 123.50 Z M 142.08 124.18 L 141.31 124.84 C 140.40 125.64 140.30 127.03 141.10 127.94 C 141.89 128.86 143.28 128.96 144.19 128.16 L 144.96 127.49 C 145.88 126.70 145.97 125.31 145.18 124.40 C 144.38 123.48 143.00 123.38 142.08 124.18 Z M 141.20 124.94 L 140.48 125.67 C 139.62 126.52 139.61 127.92 140.47 128.78 C 141.33 129.64 142.72 129.64 143.58 128.78 L 144.31 128.06 C 145.17 127.20 145.17 125.81 144.31 124.95 C 143.45 124.09 142.06 124.09 141.20 124.94 Z M 140.37 125.77 L 139.70 126.54 C 138.90 127.45 138.99 128.84 139.91 129.64 C 140.82 130.45 142.21 130.35 143.01 129.44 L 143.68 128.68 C 144.48 127.76 144.39 126.37 143.48 125.57 C 142.57 124.77 141.18 124.86 140.37 125.77 Z M 139.60 126.66 L 139.01 127.44 C 138.28 128.41 138.47 129.80 139.45 130.53 C 140.42 131.26 141.80 131.06 142.53 130.09 L 143.12 129.31 C 143.85 128.34 143.65 126.96 142.68 126.23 C 141.71 125.50 140.33 125.69 139.60 126.66 Z M 138.89 127.63 L 138.35 128.52 C 137.72 129.56 138.05 130.91 139.09 131.54 C 140.13 132.18 141.49 131.84 142.12 130.80 L 142.66 129.91 C 143.29 128.87 142.95 127.51 141.91 126.88 C 140.87 126.25 139.52 126.59 138.89 127.63 Z M 138.23 128.73 L 137.82 129.61 C 137.31 130.72 137.79 132.03 138.90 132.54 C 140.00 133.05 141.31 132.57 141.82 131.47 L 142.23 130.59 C 142.74 129.48 142.26 128.17 141.16 127.66 C 140.05 127.15 138.74 127.63 138.23 128.73 Z M 137.74 129.80 L 137.42 130.71 C 137.01 131.85 137.61 133.12 138.76 133.53 C 139.90 133.93 141.17 133.34 141.58 132.19 L 141.90 131.28 C 142.31 130.13 141.71 128.87 140.56 128.46 C 139.42 128.05 138.15 128.65 137.74 129.80 Z M 137.37 130.88 L 137.11 131.84 C 136.80 133.02 137.50 134.23 138.67 134.54 C 139.85 134.85 141.06 134.15 141.37 132.98 L 141.63 132.02 C 141.95 130.84 141.25 129.63 140.07 129.31 C 138.89 129.00 137.68 129.70 137.37 130.88 Z M 137.07 132.00 L 136.89 133.00 C 136.66 134.19 137.45 135.35 138.65 135.57 C 139.85 135.80 141.00 135.01 141.22 133.81 L 141.41 132.82 C 141.64 131.62 140.85 130.46 139.65 130.24 C 138.45 130.01 137.30 130.80 137.07 132.00 Z M 136.87 133.10 L 136.73 134.10 C 136.57 135.31 137.41 136.42 138.62 136.59 C 139.83 136.75 140.94 135.91 141.10 134.70 L 141.24 133.70 C 141.41 132.50 140.56 131.38 139.36 131.22 C 138.15 131.05 137.04 131.90 136.87 133.10 Z M 136.73 134.14 L 136.61 135.14 C 136.47 136.35 137.33 137.45 138.54 137.59 C 139.75 137.73 140.85 136.87 140.99 135.66 L 141.11 134.66 C 141.25 133.45 140.39 132.35 139.18 132.21 C 137.97 132.07 136.87 132.93 136.73 134.14 Z M 136.61 135.14 L 136.49 136.16 C 136.35 137.37 137.21 138.47 138.42 138.61 C 139.63 138.75 140.73 137.89 140.87 136.68 L 140.99 135.66 C 141.13 134.45 140.27 133.35 139.06 133.21 C 137.85 133.07 136.75 133.93 136.61 135.14 Z M 136.49 136.17 L 136.38 137.15 C 136.24 138.36 137.11 139.45 138.32 139.59 C 139.53 139.73 140.62 138.86 140.76 137.65 L 140.87 136.67 C 141.01 135.46 140.14 134.36 138.93 134.23 C 137.72 134.09 136.63 134.96 136.49 136.17 Z M 136.37 137.18 L 136.27 138.16 C 136.15 139.37 137.03 140.46 138.25 140.58 C 139.46 140.70 140.55 139.82 140.67 138.60 L 140.77 137.62 C 140.89 136.41 140.01 135.32 138.79 135.20 C 137.58 135.08 136.49 135.96 136.37 137.18 Z M 136.26 138.19 L 136.18 139.18 C 136.07 140.40 136.97 141.48 138.19 141.58 C 139.41 141.69 140.49 140.78 140.59 139.56 L 140.68 138.57 C 140.78 137.35 139.88 136.28 138.66 136.17 C 137.44 136.07 136.37 136.97 136.26 138.19 Z M 136.17 139.19 L 136.09 140.19 C 135.99 141.41 136.90 142.49 138.12 142.59 C 139.35 142.69 140.42 141.77 140.52 140.55 L 140.60 139.55 C 140.70 138.33 139.79 137.26 138.56 137.16 C 137.34 137.06 136.27 137.97 136.17 139.19 Z M 136.09 140.19 L 136.00 141.18 C 135.90 142.41 136.82 143.48 138.04 143.58 C 139.27 143.68 140.34 142.77 140.44 141.55 L 140.52 140.55 C 140.62 139.33 139.71 138.25 138.48 138.15 C 137.26 138.05 136.19 138.97 136.09 140.19 Z M 136.00 141.19 L 135.92 142.19 C 135.82 143.41 136.74 144.49 137.96 144.59 C 139.19 144.69 140.26 143.77 140.36 142.55 L 140.44 141.54 C 140.54 140.32 139.63 139.24 138.40 139.15 C 137.18 139.05 136.10 139.96 136.00 141.19 Z M 135.92 142.19 L 135.84 143.17 C 135.74 144.40 136.66 145.48 137.89 145.57 C 139.12 145.67 140.19 144.75 140.29 143.52 L 140.36 142.54 C 140.46 141.32 139.54 140.24 138.32 140.14 C 137.09 140.05 136.02 140.96 135.92 142.19 Z M 135.84 143.17 L 135.76 144.16 C 135.65 145.39 136.57 146.47 137.80 146.57 C 139.03 146.67 140.11 145.76 140.21 144.53 L 140.29 143.53 C 140.39 142.30 139.48 141.23 138.25 141.12 C 137.02 141.02 135.94 141.94 135.84 143.17 Z M 135.75 144.14 L 135.66 145.15 C 135.55 146.38 136.45 147.47 137.68 147.58 C 138.91 147.70 140.00 146.79 140.12 145.56 L 140.21 144.55 C 140.32 143.32 139.42 142.23 138.19 142.12 C 136.96 142.01 135.87 142.91 135.75 144.14 Z M 135.66 145.13 L 135.56 146.14 C 135.44 147.37 136.33 148.46 137.56 148.59 C 138.79 148.71 139.89 147.81 140.01 146.58 L 140.12 145.58 C 140.24 144.35 139.34 143.25 138.11 143.13 C 136.88 143.00 135.78 143.90 135.66 145.13 Z M 135.56 146.13 L 135.46 147.12 C 135.33 148.36 136.23 149.45 137.46 149.58 C 138.69 149.70 139.79 148.81 139.92 147.57 L 140.02 146.58 C 140.14 145.35 139.24 144.25 138.01 144.13 C 136.78 144.01 135.68 144.90 135.56 146.13 Z M 135.45 147.14 L 135.36 148.14 C 135.25 149.37 136.16 150.46 137.39 150.58 C 138.62 150.69 139.72 149.78 139.83 148.55 L 139.92 147.55 C 140.03 146.32 139.13 145.23 137.89 145.12 C 136.66 145.00 135.57 145.91 135.45 147.14 Z M 135.36 148.18 L 135.29 149.17 C 135.20 150.41 136.13 151.48 137.37 151.57 C 138.61 151.66 139.68 150.72 139.77 149.49 L 139.83 148.50 C 139.92 147.26 138.99 146.19 137.75 146.10 C 136.52 146.02 135.44 146.95 135.36 148.18 Z M 135.28 149.24 L 135.24 150.24 C 135.19 151.48 136.16 152.52 137.40 152.57 C 138.64 152.62 139.68 151.66 139.73 150.42 L 139.77 149.42 C 139.82 148.18 138.85 147.14 137.62 147.09 C 136.38 147.04 135.33 148.00 135.28 149.24 Z M 135.24 150.29 L 135.23 151.30 C 135.21 152.54 136.20 153.56 137.44 153.58 C 138.68 153.60 139.70 152.61 139.72 151.37 L 139.73 150.36 C 139.75 149.12 138.76 148.10 137.52 148.08 C 136.28 148.06 135.26 149.05 135.24 150.29 Z M 135.23 151.33 L 135.22 152.33 C 135.22 153.58 136.22 154.58 137.46 154.59 C 138.70 154.59 139.71 153.59 139.72 152.35 L 139.72 151.34 C 139.72 150.10 138.72 149.09 137.48 149.09 C 136.24 149.08 135.23 150.09 135.23 151.33 Z M 135.22 152.35 L 135.23 153.38 C 135.24 154.62 136.25 155.62 137.49 155.62 C 138.73 155.61 139.73 154.60 139.72 153.36 L 139.72 152.33 C 139.71 151.09 138.70 150.09 137.46 150.09 C 136.22 150.10 135.22 151.11 135.22 152.35 Z M 135.23 153.50 L 135.29 154.49 C 135.36 155.73 136.42 156.67 137.66 156.60 C 138.90 156.53 139.85 155.47 139.78 154.23 L 139.72 153.24 C 139.65 152.00 138.59 151.06 137.35 151.13 C 136.11 151.20 135.16 152.26 135.23 153.50 Z M 135.32 154.75 L 135.49 155.71 C 135.70 156.94 136.87 157.76 138.09 157.54 C 139.32 157.33 140.13 156.16 139.92 154.94 L 139.75 153.97 C 139.53 152.75 138.37 151.93 137.14 152.14 C 135.92 152.36 135.10 153.52 135.32 154.75 Z M 135.56 156.05 L 135.88 157.00 C 136.28 158.18 137.56 158.82 138.74 158.42 C 139.93 158.02 140.56 156.74 140.17 155.55 L 139.85 154.60 C 139.45 153.42 138.17 152.78 136.98 153.18 C 135.80 153.58 135.16 154.86 135.56 156.05 Z M 135.99 157.29 L 136.43 158.18 C 137.00 159.31 138.36 159.76 139.49 159.20 C 140.61 158.63 141.07 157.27 140.50 156.14 L 140.06 155.25 C 139.49 154.13 138.13 153.68 137.00 154.24 C 135.88 154.80 135.42 156.17 135.99 157.29 Z M 136.56 158.42 L 137.12 159.26 C 137.81 160.32 139.23 160.60 140.28 159.91 C 141.34 159.21 141.63 157.79 140.93 156.74 L 140.37 155.90 C 139.68 154.85 138.26 154.56 137.21 155.26 C 136.15 155.95 135.87 157.37 136.56 158.42 Z M 137.22 159.41 L 137.83 160.19 C 138.61 161.19 140.05 161.37 141.05 160.59 C 142.04 159.81 142.22 158.37 141.44 157.38 L 140.83 156.59 C 140.05 155.60 138.61 155.42 137.61 156.20 C 136.62 156.98 136.44 158.42 137.22 159.41 Z M 137.90 160.28 L 138.55 161.03 C 139.37 161.99 140.82 162.10 141.78 161.28 C 142.74 160.46 142.85 159.01 142.02 158.05 L 141.37 157.29 C 140.55 156.33 139.10 156.22 138.14 157.05 C 137.18 157.87 137.07 159.32 137.90 160.28 Z M 138.69 161.19 L 139.40 161.88 C 140.31 162.76 141.77 162.74 142.65 161.83 C 143.53 160.92 143.51 159.47 142.60 158.59 L 141.88 157.89 C 140.97 157.01 139.52 157.04 138.64 157.95 C 137.76 158.86 137.78 160.31 138.69 161.19 Z M 139.68 162.11 L 140.50 162.69 C 141.53 163.41 142.97 163.16 143.69 162.12 C 144.42 161.08 144.17 159.65 143.13 158.92 L 142.32 158.35 C 141.28 157.63 139.85 157.88 139.12 158.92 C 138.39 159.95 138.64 161.39 139.68 162.11 Z M 140.83 162.88 L 141.74 163.31 C 142.88 163.86 144.25 163.37 144.80 162.22 C 145.34 161.07 144.85 159.70 143.71 159.16 L 142.80 158.73 C 141.65 158.18 140.28 158.67 139.74 159.82 C 139.19 160.97 139.68 162.34 140.83 162.88 Z M 142.08 163.44 L 143.02 163.71 C 144.24 164.07 145.51 163.36 145.87 162.14 C 146.22 160.92 145.51 159.65 144.29 159.30 L 143.36 159.03 C 142.14 158.68 140.86 159.38 140.51 160.60 C 140.16 161.82 140.86 163.09 142.08 163.44 Z M 143.36 163.78 L 144.29 163.91 C 145.55 164.08 146.70 163.19 146.87 161.93 C 147.04 160.67 146.15 159.52 144.89 159.35 L 143.96 159.23 C 142.70 159.06 141.55 159.94 141.38 161.20 C 141.21 162.46 142.10 163.62 143.36 163.78 Z M 144.49 163.93 L 145.55 163.97 C 146.82 164.03 147.89 163.04 147.94 161.78 C 148.00 160.51 147.01 159.43 145.75 159.38 L 144.69 159.33 C 143.42 159.28 142.35 160.26 142.30 161.53 C 142.24 162.80 143.22 163.87 144.49 163.93 Z M 145.62 163.97 L 146.64 163.99 C 147.91 164.00 148.95 162.98 148.96 161.71 C 148.98 160.44 147.96 159.40 146.69 159.39 L 145.67 159.38 C 144.40 159.36 143.36 160.38 143.35 161.65 C 143.33 162.92 144.35 163.96 145.62 163.97 Z M 146.72 163.98 L 147.75 163.96 C 149.02 163.93 150.03 162.87 149.99 161.60 C 149.96 160.33 148.91 159.33 147.64 159.36 L 146.60 159.39 C 145.33 159.42 144.33 160.48 144.36 161.75 C 144.40 163.01 145.45 164.02 146.72 163.98 Z M 147.91 163.95 L 148.90 163.86 C 150.17 163.74 151.10 162.61 150.98 161.35 C 150.86 160.09 149.74 159.16 148.47 159.28 L 147.48 159.37 C 146.21 159.49 145.29 160.61 145.41 161.88 C 145.53 163.14 146.65 164.07 147.91 163.95 Z M 149.21 163.81 L 150.23 163.57 C 151.46 163.28 152.23 162.04 151.94 160.81 C 151.65 159.57 150.42 158.80 149.18 159.09 L 148.17 159.33 C 146.93 159.62 146.16 160.85 146.45 162.09 C 146.74 163.33 147.97 164.09 149.21 163.81 Z M 150.61 163.44 L 151.51 163.06 C 152.67 162.56 153.22 161.21 152.72 160.04 C 152.22 158.87 150.87 158.33 149.70 158.83 L 148.80 159.21 C 147.63 159.71 147.09 161.07 147.59 162.23 C 148.09 163.40 149.44 163.94 150.61 163.44 Z M 151.74 162.94 L 152.55 162.48 C 153.65 161.85 154.04 160.44 153.40 159.34 C 152.77 158.24 151.37 157.86 150.27 158.49 L 149.46 158.95 C 148.36 159.58 147.98 160.98 148.61 162.09 C 149.24 163.19 150.64 163.57 151.74 162.94 Z M 152.57 162.46 L 153.38 161.99 C 154.47 161.35 154.84 159.94 154.19 158.84 C 153.55 157.75 152.14 157.39 151.05 158.03 L 150.24 158.50 C 149.15 159.15 148.79 160.55 149.43 161.65 C 150.07 162.74 151.48 163.11 152.57 162.46 Z M 153.21 162.08 L 154.15 161.62 C 155.29 161.07 155.77 159.70 155.21 158.56 C 154.66 157.41 153.29 156.94 152.15 157.49 L 151.21 157.94 C 150.07 158.50 149.59 159.87 150.15 161.01 C 150.70 162.15 152.07 162.63 153.21 162.08 Z M 153.88 161.73 L 154.92 161.38 C 156.12 160.97 156.77 159.67 156.36 158.47 C 155.96 157.27 154.66 156.63 153.46 157.03 L 152.42 157.38 C 151.22 157.79 150.57 159.09 150.98 160.29 C 151.38 161.49 152.68 162.13 153.88 161.73 Z M 154.58 161.46 L 155.63 161.28 C 156.88 161.07 157.72 159.89 157.51 158.64 C 157.29 157.39 156.11 156.55 154.86 156.77 L 153.81 156.95 C 152.56 157.16 151.72 158.34 151.93 159.59 C 152.14 160.84 153.33 161.68 154.58 161.46 Z M 154.97 161.30 L 155.88 161.41 C 157.13 161.56 158.27 160.66 158.43 159.41 C 158.58 158.15 157.68 157.01 156.42 156.86 L 155.52 156.75 C 154.26 156.60 153.12 157.50 152.97 158.75 C 152.82 160.01 153.72 161.15 154.97 161.30 Z M 154.56 160.78 L 155.14 161.34 C 156.05 162.22 157.50 162.20 158.38 161.29 C 159.26 160.39 159.24 158.94 158.33 158.06 L 157.75 157.49 C 156.84 156.61 155.39 156.63 154.51 157.54 C 153.63 158.45 153.65 159.90 154.56 160.78 Z M 154.50 160.22 L 154.73 161.18 C 155.01 162.41 156.24 163.17 157.48 162.89 C 158.71 162.60 159.48 161.37 159.19 160.14 L 158.97 159.18 C 158.68 157.95 157.45 157.18 156.22 157.47 C 154.99 157.76 154.22 158.99 154.50 160.22 Z M 154.67 160.72 L 154.70 161.80 C 154.73 163.07 155.79 164.06 157.05 164.03 C 158.32 163.99 159.31 162.94 159.28 161.67 L 159.25 160.59 C 159.21 159.33 158.16 158.33 156.89 158.37 C 155.63 158.40 154.63 159.46 154.67 160.72 Z M 154.70 161.72 L 154.69 162.75 C 154.68 164.02 155.70 165.05 156.97 165.06 C 158.23 165.07 159.26 164.05 159.27 162.79 L 159.28 161.76 C 159.29 160.49 158.27 159.46 157.01 159.45 C 155.74 159.44 154.71 160.46 154.70 161.72 Z M 154.69 162.65 L 154.64 163.62 C 154.58 164.89 155.55 165.96 156.81 166.03 C 158.08 166.09 159.15 165.12 159.22 163.86 L 159.27 162.89 C 159.33 161.62 158.36 160.55 157.10 160.48 C 155.84 160.42 154.76 161.39 154.69 162.65 Z M 154.66 163.44 L 154.53 164.40 C 154.37 165.65 155.25 166.81 156.50 166.97 C 157.75 167.14 158.90 166.26 159.07 165.01 L 159.20 164.04 C 159.37 162.79 158.49 161.64 157.23 161.47 C 155.98 161.30 154.83 162.18 154.66 163.44 Z M 154.57 164.22 L 154.36 165.18 C 154.09 166.42 154.88 167.64 156.11 167.90 C 157.35 168.17 158.57 167.38 158.83 166.15 L 159.04 165.18 C 159.31 163.95 158.52 162.73 157.28 162.47 C 156.05 162.20 154.83 162.99 154.57 164.22 Z M 154.39 165.06 L 154.12 166.04 C 153.79 167.26 154.50 168.52 155.72 168.85 C 156.93 169.19 158.19 168.48 158.53 167.26 L 158.80 166.27 C 159.13 165.06 158.42 163.80 157.20 163.46 C 155.99 163.13 154.73 163.84 154.39 165.06 Z M 154.15 165.96 L 153.84 166.92 C 153.46 168.12 154.12 169.40 155.32 169.79 C 156.52 170.17 157.80 169.51 158.18 168.31 L 158.49 167.35 C 158.88 166.15 158.22 164.87 157.02 164.48 C 155.82 164.10 154.54 164.76 154.15 165.96 Z M 153.88 166.84 L 153.54 167.77 C 153.11 168.95 153.72 170.25 154.89 170.68 C 156.07 171.11 157.37 170.51 157.80 169.33 L 158.15 168.39 C 158.58 167.22 157.97 165.91 156.79 165.48 C 155.62 165.05 154.31 165.66 153.88 166.84 Z M 153.59 167.68 L 153.20 168.61 C 152.72 169.76 153.26 171.08 154.41 171.56 C 155.56 172.04 156.89 171.50 157.37 170.35 L 157.75 169.42 C 158.24 168.27 157.69 166.95 156.54 166.47 C 155.39 165.99 154.07 166.53 153.59 167.68 Z M 153.26 168.51 L 152.84 169.39 C 152.31 170.50 152.78 171.84 153.89 172.38 C 155.01 172.91 156.35 172.44 156.88 171.33 L 157.31 170.45 C 157.84 169.33 157.37 167.99 156.25 167.46 C 155.14 166.92 153.80 167.39 153.26 168.51 Z M 152.92 169.30 L 152.45 170.15 C 151.86 171.23 152.26 172.57 153.33 173.16 C 154.41 173.75 155.75 173.35 156.34 172.28 L 156.81 171.42 C 157.39 170.35 157.00 169.00 155.92 168.41 C 154.85 167.83 153.50 168.22 152.92 169.30 Z M 152.53 170.07 L 152.00 170.94 C 151.37 171.97 151.69 173.32 152.72 173.95 C 153.75 174.58 155.10 174.26 155.73 173.23 L 156.26 172.36 C 156.89 171.33 156.57 169.98 155.54 169.35 C 154.51 168.72 153.16 169.04 152.53 170.07 Z M 152.08 170.88 L 151.52 171.71 C 150.85 172.69 151.11 174.03 152.09 174.69 C 153.07 175.36 154.41 175.10 155.07 174.12 L 155.64 173.29 C 156.31 172.31 156.05 170.97 155.07 170.31 C 154.09 169.64 152.75 169.90 152.08 170.88 Z M 151.62 171.69 L 151.04 172.48 C 150.36 173.41 150.57 174.71 151.49 175.39 C 152.42 176.07 153.73 175.86 154.40 174.93 L 154.98 174.14 C 155.66 173.21 155.45 171.91 154.52 171.23 C 153.59 170.56 152.29 170.76 151.62 171.69 Z M 151.13 172.50 L 150.52 173.30 C 149.85 174.18 150.02 175.44 150.90 176.11 C 151.78 176.77 153.03 176.60 153.70 175.72 L 154.31 174.92 C 154.98 174.04 154.81 172.78 153.93 172.12 C 153.05 171.45 151.80 171.62 151.13 172.50 Z M 150.59 173.34 L 149.96 174.15 C 149.31 174.99 149.46 176.19 150.30 176.84 C 151.14 177.49 152.34 177.34 152.99 176.50 L 153.62 175.69 C 154.27 174.85 154.12 173.65 153.29 173.00 C 152.45 172.35 151.24 172.50 150.59 173.34 Z M 150.00 174.17 L 149.92 174.28 C 149.28 175.10 149.43 176.27 150.24 176.91 C 151.06 177.55 152.23 177.40 152.87 176.58 L 152.95 176.48 C 153.59 175.66 153.45 174.48 152.63 173.85 C 151.81 173.21 150.64 173.36 150.00 174.17 Z"
      fill="black"
      fill-rule="nonzero" /></svg>