<svg xmlns="http://www.w3.org/2000/svg" width="300" height="300" viewBox="0 0 300 300">
<path d="M 149.51 118.06 L 149.82 119.06 C 150.10 119.95 151.04 120.45 151.94 120.18 C 152.83 119.90 153.33 118.96 153.05 118.07 L 152.74 117.06 C 152.46 116.17 151.52 115.67 150.63 115.94 C 149.74 116.22 149.24 117.16 149.51 118.06 Z M 149.67 119.07 L 149.95 120.05 C 150.23 121.03 151.25 121.59 152.23 121.31 C 153.20 121.03 153.77 120.01 153.48 119.04 L 153.20 118.06 C 152.92 117.08 151.90 116.52 150.93 116.80 C 149.95 117.08 149.39 118.10 149.67 119.07 Z M 149.79 120.01 L 150.01 120.94 C 150.27 122.00 151.34 122.66 152.41 122.40 C 153.47 122.15 154.13 121.07 153.87 120.01 L 153.65 119.08 C 153.39 118.02 152.32 117.36 151.25 117.62 C 150.19 117.87 149.53 118.94 149.79 120.01 Z M 149.88 120.79 L 150.04 121.78 C 150.21 122.92 151.28 123.69 152.42 123.52 C 153.55 123.34 154.33 122.28 154.15 121.14 L 154.00 120.15 C 153.82 119.02 152.76 118.24 151.62 118.41 C 150.48 118.59 149.71 119.66 149.88 120.79 Z M 149.99 121.59 L 150.05 122.56 C 150.12 123.73 151.12 124.61 152.28 124.54 C 153.45 124.47 154.33 123.47 154.26 122.31 L 154.20 121.33 C 154.13 120.17 153.13 119.28 151.97 119.35 C 150.80 119.42 149.92 120.42 149.99 121.59 Z M 150.03 122.45 L 150.04 123.44 C 150.05 124.61 151.01 125.55 152.18 125.54 C 153.35 125.53 154.29 124.58 154.29 123.40 L 154.28 122.42 C 154.27 121.25 153.31 120.30 152.14 120.31 C 150.97 120.32 150.02 121.28 150.03 122.45 Z M 150.03 123.42 L 150.03 124.35 C 150.03 125.52 150.99 126.48 152.16 126.48 C 153.34 126.48 154.30 125.52 154.30 124.35 L 154.30 123.42 C 154.30 122.24 153.34 121.29 152.16 121.29 C 150.99 121.29 150.03 122.24 150.03 123.42 Z M 150.02 124.35 L 150.02 125.35 C 150.02 126.53 150.98 127.49 152.16 127.49 C 153.35 127.49 154.30 126.53 154.30 125.35 L 154.30 124.35 C 154.30 123.16 153.35 122.21 152.16 122.21 C 150.98 122.21 150.02 123.16 150.02 124.35 Z M 150.01 125.35 L 150.01 126.42 C 150.01 127.61 150.97 128.57 152.16 128.57 C 153.35 128.57 154.31 127.61 154.31 126.42 L 154.31 125.35 C 154.31 124.16 153.35 123.20 152.16 123.20 C 150.97 123.20 150.01 124.16 150.01 125.35 Z M 150.00 126.42 L 150.00 127.36 C 150.00 128.55 150.97 129.52 152.16 129.52 C 153.35 129.52 154.32 128.55 154.32 127.36 L 154.32 126.42 C 154.32 125.23 153.36 124.27 152.16 124.27 C 150.97 124.27 150.01 125.23 150.00 126.42 Z M 150.00 127.35 L 150.00 128.32 C 149.99 129.52 150.96 130.49 152.15 130.50 C 153.34 130.50 154.32 129.54 154.32 128.34 L 154.33 127.37 C 154.33 126.17 153.37 125.20 152.17 125.20 C 150.98 125.19 150.00 126.16 150.00 127.35 Z M 149.99 128.31 L 149.98 129.34 C 149.97 130.53 150.93 131.52 152.13 131.53 C 153.32 131.54 154.30 130.58 154.32 129.38 L 154.33 128.36 C 154.34 127.16 153.38 126.18 152.18 126.17 C 150.98 126.15 150.00 127.11 149.99 128.31 Z M 149.98 129.32 L 149.96 130.37 C 149.93 131.57 150.89 132.57 152.09 132.59 C 153.28 132.61 154.28 131.66 154.30 130.46 L 154.32 129.40 C 154.34 128.20 153.39 127.21 152.19 127.19 C 150.99 127.17 150.00 128.12 149.98 129.32 Z M 149.95 130.35 L 149.93 131.29 C 149.89 132.49 150.84 133.49 152.04 133.53 C 153.24 133.56 154.24 132.62 154.28 131.42 L 154.30 130.48 C 154.34 129.28 153.39 128.28 152.19 128.24 C 150.99 128.21 149.99 129.15 149.95 130.35 Z M 149.92 131.27 L 149.89 132.25 C 149.84 133.45 150.78 134.46 151.98 134.50 C 153.19 134.55 154.20 133.61 154.24 132.41 L 154.28 131.43 C 154.32 130.23 153.38 129.22 152.18 129.18 C 150.98 129.13 149.97 130.07 149.92 131.27 Z M 149.88 132.23 L 149.84 133.24 C 149.79 134.45 150.72 135.47 151.92 135.52 C 153.13 135.57 154.15 134.64 154.20 133.43 L 154.24 132.42 C 154.30 131.22 153.36 130.20 152.16 130.15 C 150.96 130.09 149.94 131.03 149.88 132.23 Z M 149.84 133.23 L 149.78 134.28 C 149.72 135.48 150.65 136.51 151.85 136.57 C 153.06 136.63 154.09 135.70 154.15 134.50 L 154.20 133.45 C 154.26 132.24 153.34 131.22 152.13 131.16 C 150.93 131.09 149.90 132.02 149.84 133.23 Z M 149.78 134.26 L 149.72 135.27 C 149.65 136.48 150.58 137.51 151.78 137.58 C 152.99 137.65 154.03 136.73 154.09 135.52 L 154.15 134.51 C 154.22 133.30 153.30 132.27 152.09 132.20 C 150.88 132.13 149.85 133.06 149.78 134.26 Z M 149.72 135.26 L 149.66 136.22 C 149.59 137.43 150.51 138.47 151.71 138.55 C 152.92 138.62 153.96 137.70 154.04 136.49 L 154.10 135.53 C 154.17 134.32 153.25 133.28 152.04 133.21 C 150.84 133.13 149.80 134.05 149.72 135.26 Z M 149.66 136.22 L 149.59 137.20 C 149.52 138.41 150.43 139.46 151.64 139.54 C 152.85 139.61 153.89 138.70 153.97 137.49 L 154.04 136.50 C 154.12 135.29 153.20 134.25 151.99 134.17 C 150.78 134.09 149.74 135.01 149.66 136.22 Z M 149.59 137.19 L 149.52 138.20 C 149.44 139.41 150.35 140.46 151.56 140.54 C 152.77 140.63 153.82 139.71 153.91 138.50 L 153.98 137.50 C 154.06 136.29 153.15 135.24 151.94 135.15 C 150.73 135.07 149.68 135.98 149.59 137.19 Z M 149.52 138.19 L 149.45 139.22 C 149.36 140.43 150.27 141.48 151.48 141.57 C 152.70 141.66 153.75 140.75 153.84 139.54 L 153.91 138.51 C 154.00 137.30 153.08 136.25 151.87 136.16 C 150.66 136.07 149.61 136.98 149.52 138.19 Z M 149.44 139.21 L 149.37 140.25 C 149.28 141.46 150.19 142.52 151.40 142.61 C 152.61 142.70 153.67 141.79 153.76 140.58 L 153.84 139.54 C 153.93 138.33 153.02 137.27 151.80 137.18 C 150.59 137.09 149.53 138.00 149.44 139.21 Z M 149.37 140.24 L 149.29 141.25 C 149.20 142.46 150.11 143.52 151.32 143.62 C 152.53 143.71 153.59 142.80 153.69 141.59 L 153.76 140.58 C 153.86 139.37 152.95 138.31 151.73 138.21 C 150.52 138.12 149.46 139.03 149.37 140.24 Z M 149.29 141.25 L 149.21 142.26 C 149.11 143.47 150.02 144.53 151.24 144.63 C 152.45 144.72 153.51 143.82 153.61 142.60 L 153.69 141.59 C 153.78 140.37 152.88 139.31 151.66 139.22 C 150.44 139.12 149.38 140.03 149.29 141.25 Z M 149.20 142.25 L 149.12 143.26 C 149.02 144.47 149.93 145.54 151.15 145.64 C 152.37 145.74 153.43 144.83 153.53 143.61 L 153.61 142.61 C 153.71 141.39 152.80 140.32 151.59 140.22 C 150.37 140.13 149.30 141.03 149.20 142.25 Z M 149.12 143.25 L 149.04 144.25 C 148.94 145.47 149.84 146.54 151.06 146.64 C 152.28 146.74 153.35 145.83 153.45 144.61 L 153.53 143.62 C 153.63 142.40 152.73 141.33 151.51 141.23 C 150.29 141.13 149.22 142.03 149.12 143.25 Z M 149.04 144.24 L 148.95 145.22 C 148.85 146.44 149.75 147.51 150.97 147.62 C 152.19 147.72 153.26 146.82 153.37 145.60 L 153.45 144.62 C 153.56 143.40 152.65 142.33 151.43 142.22 C 150.21 142.12 149.14 143.02 149.04 144.24 Z M 148.95 145.21 L 148.86 146.23 C 148.75 147.45 149.65 148.53 150.87 148.64 C 152.10 148.74 153.17 147.84 153.28 146.62 L 153.37 145.61 C 153.48 144.39 152.58 143.31 151.36 143.20 C 150.14 143.09 149.06 143.99 148.95 145.21 Z M 148.86 146.22 L 148.76 147.25 C 148.65 148.47 149.55 149.56 150.77 149.67 C 151.99 149.78 153.07 148.88 153.19 147.66 L 153.28 146.63 C 153.39 145.41 152.50 144.33 151.27 144.21 C 150.05 144.10 148.97 145.00 148.86 146.22 Z M 148.76 147.25 L 148.67 148.25 C 148.55 149.47 149.45 150.56 150.67 150.67 C 151.89 150.79 152.98 149.89 153.09 148.67 L 153.19 147.67 C 153.30 146.44 152.41 145.36 151.19 145.24 C 149.96 145.13 148.88 146.02 148.76 147.25 Z M 148.67 148.24 L 148.57 149.22 C 148.45 150.44 149.35 151.53 150.57 151.65 C 151.79 151.77 152.88 150.87 153.00 149.65 L 153.09 148.67 C 153.21 147.45 152.32 146.36 151.10 146.25 C 149.87 146.13 148.79 147.02 148.67 148.24 Z M 148.57 149.22 L 148.48 150.18 C 148.36 151.40 149.25 152.49 150.47 152.61 C 151.69 152.73 152.78 151.84 152.90 150.61 L 153.00 149.66 C 153.12 148.43 152.23 147.34 151.00 147.22 C 149.78 147.10 148.69 148.00 148.57 149.22 Z M 148.48 150.17 L 148.38 151.17 C 148.25 152.39 149.15 153.48 150.37 153.60 C 151.59 153.72 152.68 152.83 152.81 151.61 L 152.91 150.62 C 153.03 149.39 152.14 148.30 150.91 148.18 C 149.69 148.06 148.60 148.95 148.48 150.17 Z M 148.38 151.16 L 148.27 152.18 C 148.15 153.40 149.04 154.50 150.26 154.62 C 151.49 154.74 152.58 153.85 152.70 152.63 L 152.81 151.61 C 152.93 150.39 152.04 149.29 150.82 149.17 C 149.59 149.05 148.50 149.94 148.38 151.16 Z M 148.27 152.18 L 148.17 153.18 C 148.04 154.40 148.93 155.49 150.16 155.62 C 151.38 155.75 152.48 154.85 152.60 153.63 L 152.70 152.63 C 152.83 151.41 151.94 150.31 150.72 150.19 C 149.49 150.06 148.40 150.95 148.27 152.18 Z M 148.17 153.17 L 148.07 154.15 C 147.94 155.38 148.83 156.47 150.05 156.60 C 151.28 156.73 152.37 155.84 152.50 154.62 L 152.60 153.64 C 152.73 152.41 151.84 151.31 150.62 151.19 C 149.39 151.06 148.30 151.95 148.17 153.17 Z M 148.06 154.15 L 147.96 155.11 C 147.83 156.34 148.72 157.43 149.94 157.57 C 151.17 157.70 152.27 156.81 152.40 155.59 L 152.50 154.62 C 152.63 153.40 151.75 152.30 150.52 152.17 C 149.30 152.04 148.20 152.92 148.06 154.15 Z M 147.96 155.10 L 147.85 156.13 C 147.71 157.35 148.60 158.46 149.82 158.59 C 151.05 158.73 152.15 157.84 152.28 156.62 L 152.40 155.59 C 152.53 154.37 151.65 153.27 150.42 153.13 C 149.20 153.00 148.10 153.88 147.96 155.10 Z M 147.85 156.12 L 147.74 157.13 C 147.60 158.35 148.48 159.46 149.70 159.60 C 150.93 159.74 152.03 158.86 152.17 157.63 L 152.28 156.62 C 152.42 155.40 151.54 154.30 150.32 154.16 C 149.09 154.02 147.99 154.90 147.85 156.12 Z M 147.74 157.13 L 147.62 158.11 C 147.48 159.33 148.36 160.44 149.58 160.58 C 150.81 160.72 151.91 159.85 152.05 158.62 L 152.17 157.64 C 152.31 156.41 151.43 155.31 150.21 155.17 C 148.99 155.03 147.88 155.90 147.74 157.13 Z M 147.63 158.11 L 147.51 159.07 C 147.37 160.29 148.24 161.40 149.46 161.54 C 150.69 161.69 151.79 160.81 151.94 159.59 L 152.05 158.63 C 152.20 157.41 151.32 156.30 150.10 156.15 C 148.88 156.01 147.77 156.88 147.63 158.11 Z M 147.51 159.07 L 147.39 160.08 C 147.25 161.30 148.12 162.41 149.34 162.55 C 150.56 162.70 151.67 161.83 151.82 160.61 L 151.94 159.59 C 152.08 158.37 151.21 157.26 149.99 157.12 C 148.77 156.97 147.66 157.84 147.51 159.07 Z M 147.39 160.08 L 147.27 161.09 C 147.13 162.31 148.00 163.41 149.22 163.56 C 150.44 163.71 151.55 162.83 151.70 161.61 L 151.82 160.60 C 151.96 159.38 151.09 158.28 149.87 158.13 C 148.65 157.99 147.54 158.86 147.39 160.08 Z M 147.27 161.09 L 147.16 162.08 C 147.02 163.30 147.89 164.40 149.12 164.54 C 150.34 164.69 151.44 163.81 151.58 162.59 L 151.70 161.60 C 151.84 160.38 150.96 159.28 149.74 159.14 C 148.52 159.00 147.41 159.87 147.27 161.09 Z M 147.16 162.09 L 147.06 163.06 C 146.92 164.28 147.81 165.38 149.03 165.51 C 150.25 165.64 151.35 164.76 151.48 163.54 L 151.58 162.57 C 151.71 161.35 150.83 160.25 149.61 160.12 C 148.39 159.99 147.29 160.87 147.16 162.09 Z M 147.06 163.08 L 146.96 164.02 C 146.84 165.24 147.73 166.33 148.96 166.45 C 150.18 166.57 151.26 165.67 151.38 164.45 L 151.48 163.51 C 151.60 162.29 150.71 161.21 149.48 161.09 C 148.26 160.96 147.18 161.86 147.06 163.08 Z M 146.97 164.03 L 146.88 164.99 C 146.77 166.21 147.67 167.29 148.89 167.40 C 150.11 167.51 151.18 166.61 151.29 165.39 L 151.38 164.44 C 151.49 163.22 150.59 162.14 149.37 162.03 C 148.16 161.92 147.08 162.81 146.97 164.03 Z M 146.88 165.00 L 146.79 166.00 C 146.69 167.22 147.59 168.29 148.81 168.40 C 150.02 168.51 151.10 167.60 151.20 166.39 L 151.29 165.38 C 151.40 164.16 150.50 163.09 149.28 162.98 C 148.06 162.88 146.99 163.78 146.88 165.00 Z M 146.80 166.00 L 146.71 167.08 C 146.60 168.30 147.50 169.37 148.72 169.47 C 149.93 169.58 151.00 168.68 151.11 167.46 L 151.20 166.39 C 151.30 165.17 150.40 164.10 149.19 164.00 C 147.97 163.89 146.90 164.79 146.80 166.00 Z M 146.71 167.08 L 146.63 168.05 C 146.52 169.27 147.42 170.33 148.63 170.44 C 149.84 170.55 150.91 169.65 151.02 168.44 L 151.10 167.46 C 151.21 166.25 150.31 165.18 149.10 165.08 C 147.89 164.97 146.82 165.87 146.71 167.08 Z M 146.63 168.06 L 146.55 169.08 C 146.45 170.29 147.34 171.35 148.55 171.45 C 149.76 171.55 150.82 170.66 150.92 169.45 L 151.01 168.43 C 151.11 167.22 150.21 166.16 149.01 166.06 C 147.80 165.96 146.74 166.85 146.63 168.06 Z M 146.55 169.09 L 146.47 170.12 C 146.38 171.33 147.28 172.38 148.49 172.47 C 149.69 172.57 150.75 171.66 150.84 170.46 L 150.92 169.43 C 151.01 168.23 150.11 167.17 148.90 167.08 C 147.70 166.99 146.65 167.89 146.55 169.09 Z M 146.48 170.15 L 146.41 171.15 C 146.33 172.35 147.24 173.39 148.45 173.47 C 149.65 173.55 150.69 172.64 150.77 171.44 L 150.83 170.43 C 150.91 169.23 150.00 168.19 148.80 168.11 C 147.60 168.03 146.56 168.94 146.48 170.15 Z M 146.42 171.19 L 146.37 172.32 C 146.32 173.52 147.24 174.53 148.44 174.59 C 149.64 174.64 150.65 173.71 150.71 172.52 L 150.76 171.39 C 150.81 170.19 149.89 169.18 148.69 169.12 C 147.49 169.07 146.48 170.00 146.42 171.19 Z M 146.39 172.43 L 146.40 173.67 C 146.40 174.86 147.37 175.82 148.55 175.81 C 149.74 175.81 150.69 174.84 150.69 173.66 L 150.68 172.41 C 150.68 171.22 149.72 170.27 148.53 170.27 C 147.35 170.28 146.39 171.24 146.39 172.43 Z M 146.45 173.96 L 146.58 174.83 C 146.74 175.98 147.80 176.79 148.96 176.63 C 150.11 176.46 150.92 175.40 150.76 174.24 L 150.63 173.37 C 150.47 172.22 149.41 171.41 148.25 171.58 C 147.10 171.74 146.29 172.80 146.45 173.96 Z M 147.20 175.96 L 147.56 176.32 C 148.34 177.13 149.63 177.15 150.44 176.37 C 151.25 175.58 151.27 174.29 150.49 173.48 L 150.13 173.11 C 149.35 172.31 148.05 172.29 147.25 173.07 C 146.44 173.85 146.42 175.15 147.20 175.96 Z M 150.05 176.47 L 150.82 175.97 C 151.68 175.40 151.92 174.24 151.36 173.38 C 150.79 172.51 149.63 172.27 148.77 172.84 L 148.00 173.34 C 147.14 173.90 146.89 175.06 147.46 175.93 C 148.02 176.79 149.18 177.03 150.05 176.47 Z M 151.00 175.58 L 151.48 175.10 C 152.13 174.43 152.12 173.36 151.45 172.71 C 150.78 172.05 149.71 172.07 149.06 172.73 L 148.58 173.22 C 147.93 173.88 147.94 174.95 148.61 175.61 C 149.28 176.26 150.35 176.25 151.00 175.58 Z"
      fill="black"
      fill-rule="nonzero" /><path d="M 153.80 143.63 L 153.25 142.79 C 152.70 141.93 151.55 141.69 150.69 142.25 C 149.83 142.81 149.59 143.95 150.15 144.81 L 150.70 145.65 C 151.26 146.51 152.41 146.75 153.26 146.19 C 154.12 145.64 154.36 144.49 153.80 143.63 Z M 153.37 142.96 L 152.92 142.07 C 152.46 141.15 151.34 140.78 150.42 141.25 C 149.50 141.71 149.13 142.83 149.59 143.75 L 150.04 144.64 C 150.50 145.56 151.62 145.93 152.54 145.47 C 153.46 145.00 153.83 143.88 153.37 142.96 Z M 153.07 142.44 L 152.84 141.55 C 152.57 140.55 151.55 139.95 150.55 140.21 C 149.55 140.47 148.95 141.50 149.21 142.50 L 149.44 143.39 C 149.70 144.39 150.73 144.99 151.73 144.73 C 152.73 144.47 153.33 143.44 153.07 142.44 Z M 152.90 141.97 L 152.88 141.06 C 152.85 140.02 151.99 139.20 150.95 139.23 C 149.91 139.26 149.09 140.12 149.12 141.16 L 149.14 142.07 C 149.17 143.11 150.04 143.93 151.07 143.90 C 152.11 143.88 152.93 143.01 152.90 141.97 Z M 152.86 141.39 L 153.02 140.34 C 153.18 139.31 152.47 138.35 151.44 138.19 C 150.41 138.04 149.45 138.75 149.29 139.78 L 149.13 140.83 C 148.98 141.86 149.69 142.82 150.72 142.97 C 151.75 143.13 152.71 142.42 152.86 141.39 Z M 152.98 140.55 L 153.25 139.55 C 153.52 138.54 152.93 137.50 151.92 137.23 C 150.92 136.96 149.88 137.55 149.61 138.56 L 149.33 139.57 C 149.06 140.57 149.66 141.61 150.66 141.88 C 151.67 142.15 152.71 141.56 152.98 140.55 Z M 153.22 139.67 L 153.53 138.75 C 153.87 137.76 153.34 136.69 152.36 136.35 C 151.37 136.01 150.29 136.54 149.95 137.53 L 149.64 138.44 C 149.30 139.43 149.83 140.51 150.81 140.84 C 151.80 141.18 152.88 140.66 153.22 139.67 Z M 153.51 138.84 L 153.88 137.88 C 154.27 136.91 153.79 135.81 152.81 135.42 C 151.84 135.04 150.74 135.52 150.35 136.49 L 149.98 137.44 C 149.59 138.42 150.07 139.52 151.05 139.90 C 152.02 140.29 153.12 139.81 153.51 138.84 Z M 153.86 137.95 L 154.28 137.00 C 154.70 136.04 154.27 134.92 153.31 134.50 C 152.35 134.07 151.23 134.51 150.80 135.47 L 150.38 136.42 C 149.96 137.38 150.39 138.50 151.35 138.92 C 152.31 139.35 153.43 138.91 153.86 137.95 Z M 154.25 137.07 L 154.71 136.13 C 155.17 135.18 154.78 134.04 153.84 133.58 C 152.90 133.12 151.76 133.51 151.29 134.45 L 150.83 135.40 C 150.37 136.34 150.76 137.48 151.70 137.94 C 152.65 138.41 153.79 138.02 154.25 137.07 Z M 154.68 136.20 L 155.20 135.25 C 155.71 134.32 155.37 133.16 154.44 132.66 C 153.52 132.15 152.36 132.49 151.85 133.42 L 151.33 134.37 C 150.82 135.30 151.16 136.46 152.09 136.96 C 153.01 137.47 154.17 137.13 154.68 136.20 Z M 155.16 135.33 L 155.69 134.47 C 156.24 133.56 155.96 132.38 155.06 131.83 C 154.16 131.28 152.98 131.56 152.42 132.46 L 151.89 133.33 C 151.34 134.23 151.62 135.41 152.52 135.97 C 153.43 136.52 154.61 136.24 155.16 135.33 Z M 155.64 134.56 L 156.17 133.79 C 156.78 132.91 156.56 131.71 155.68 131.11 C 154.81 130.51 153.61 130.73 153.00 131.60 L 152.47 132.37 C 151.87 133.25 152.09 134.44 152.96 135.05 C 153.84 135.65 155.04 135.43 155.64 134.56 Z M 156.10 133.90 L 156.72 133.13 C 157.38 132.29 157.25 131.08 156.41 130.41 C 155.58 129.74 154.36 129.88 153.70 130.71 L 153.08 131.49 C 152.41 132.32 152.55 133.54 153.38 134.21 C 154.22 134.87 155.43 134.74 156.10 133.90 Z M 156.59 133.29 L 157.32 132.55 C 158.07 131.79 158.07 130.55 157.30 129.80 C 156.54 129.04 155.31 129.05 154.55 129.82 L 153.82 130.55 C 153.07 131.32 153.07 132.55 153.84 133.30 C 154.60 134.06 155.84 134.05 156.59 133.29 Z M 157.12 132.75 L 157.85 132.19 C 158.72 131.54 158.89 130.31 158.24 129.44 C 157.58 128.58 156.35 128.41 155.49 129.06 L 154.75 129.62 C 153.89 130.27 153.72 131.50 154.37 132.36 C 155.02 133.23 156.25 133.40 157.12 132.75 Z M 157.58 132.38 L 158.45 131.93 C 159.41 131.43 159.79 130.24 159.30 129.27 C 158.80 128.31 157.61 127.92 156.64 128.42 L 155.77 128.87 C 154.80 129.37 154.42 130.56 154.92 131.53 C 155.42 132.50 156.61 132.88 157.58 132.38 Z M 158.13 132.07 L 159.08 131.78 C 160.13 131.45 160.71 130.34 160.39 129.29 C 160.06 128.24 158.95 127.66 157.90 127.99 L 156.95 128.28 C 155.90 128.61 155.32 129.72 155.65 130.77 C 155.97 131.82 157.08 132.40 158.13 132.07 Z M 158.80 131.86 L 159.78 131.71 C 160.87 131.54 161.62 130.52 161.45 129.42 C 161.28 128.33 160.26 127.58 159.17 127.75 L 158.18 127.91 C 157.09 128.08 156.34 129.10 156.51 130.19 C 156.68 131.28 157.70 132.03 158.80 131.86 Z M 159.57 131.74 L 160.57 131.70 C 161.68 131.64 162.54 130.70 162.49 129.59 C 162.44 128.47 161.49 127.62 160.38 127.67 L 159.38 127.72 C 158.27 127.77 157.41 128.71 157.46 129.83 C 157.51 130.94 158.46 131.80 159.57 131.74 Z M 160.45 131.72 L 161.45 131.73 C 162.58 131.74 163.50 130.84 163.51 129.72 C 163.52 128.59 162.62 127.67 161.50 127.66 L 160.50 127.65 C 159.38 127.64 158.45 128.54 158.44 129.66 C 158.43 130.78 159.33 131.70 160.45 131.72 Z M 161.34 131.74 L 162.33 131.80 C 163.46 131.88 164.44 131.02 164.51 129.90 C 164.59 128.77 163.73 127.79 162.61 127.72 L 161.61 127.65 C 160.48 127.58 159.51 128.43 159.43 129.56 C 159.36 130.68 160.21 131.66 161.34 131.74 Z M 162.01 131.76 L 162.98 131.98 C 164.08 132.24 165.19 131.55 165.44 130.44 C 165.69 129.34 165.00 128.24 163.90 127.98 L 162.93 127.76 C 161.83 127.50 160.72 128.19 160.47 129.30 C 160.22 130.40 160.90 131.51 162.01 131.76 Z M 162.53 131.83 L 163.40 132.26 C 164.42 132.76 165.66 132.34 166.16 131.32 C 166.66 130.29 166.24 129.06 165.21 128.56 L 164.35 128.13 C 163.32 127.63 162.09 128.05 161.59 129.08 C 161.09 130.10 161.51 131.33 162.53 131.83 Z M 163.06 132.06 L 163.87 132.67 C 164.78 133.36 166.08 133.18 166.77 132.27 C 167.46 131.35 167.28 130.05 166.36 129.36 L 165.56 128.75 C 164.64 128.06 163.34 128.25 162.65 129.16 C 161.96 130.07 162.14 131.37 163.06 132.06 Z M 163.62 132.46 L 164.33 133.20 C 165.13 134.03 166.44 134.05 167.27 133.26 C 168.10 132.46 168.12 131.14 167.33 130.31 L 166.61 129.57 C 165.82 128.75 164.50 128.72 163.67 129.52 C 162.84 130.32 162.82 131.64 163.62 132.46 Z M 164.14 132.98 L 164.73 133.80 C 165.41 134.73 166.71 134.94 167.65 134.26 C 168.58 133.58 168.79 132.28 168.11 131.34 L 167.51 130.53 C 166.84 129.60 165.53 129.39 164.60 130.07 C 163.67 130.75 163.46 132.05 164.14 132.98 Z M 164.59 133.59 L 165.07 134.45 C 165.63 135.46 166.90 135.82 167.91 135.26 C 168.92 134.70 169.29 133.43 168.72 132.42 L 168.25 131.56 C 167.69 130.55 166.41 130.18 165.41 130.74 C 164.40 131.31 164.03 132.58 164.59 133.59 Z M 164.96 134.23 L 165.35 135.16 C 165.79 136.22 167.01 136.73 168.08 136.29 C 169.15 135.85 169.65 134.62 169.21 133.56 L 168.83 132.63 C 168.39 131.56 167.16 131.06 166.10 131.50 C 165.03 131.94 164.52 133.17 164.96 134.23 Z M 165.28 134.98 L 165.58 135.93 C 165.93 137.03 167.10 137.65 168.20 137.30 C 169.31 136.96 169.92 135.78 169.57 134.68 L 169.28 133.73 C 168.93 132.63 167.76 132.01 166.65 132.36 C 165.55 132.71 164.94 133.88 165.28 134.98 Z M 165.55 135.84 L 165.81 136.80 C 166.10 137.92 167.24 138.59 168.36 138.30 C 169.48 138.00 170.15 136.86 169.85 135.74 L 169.60 134.77 C 169.31 133.66 168.16 132.99 167.05 133.28 C 165.93 133.57 165.26 134.72 165.55 135.84 Z M 165.79 136.74 L 166.02 137.72 C 166.28 138.85 167.40 139.55 168.53 139.29 C 169.65 139.03 170.36 137.91 170.10 136.78 L 169.87 135.80 C 169.61 134.68 168.49 133.97 167.36 134.23 C 166.23 134.49 165.53 135.62 165.79 136.74 Z M 166.00 137.65 L 166.19 138.63 C 166.42 139.77 167.51 140.51 168.65 140.29 C 169.78 140.07 170.52 138.97 170.30 137.83 L 170.11 136.85 C 169.89 135.72 168.79 134.98 167.66 135.20 C 166.52 135.42 165.78 136.52 166.00 137.65 Z M 166.18 138.54 L 166.33 139.52 C 166.50 140.67 167.56 141.46 168.70 141.28 C 169.85 141.11 170.64 140.05 170.46 138.90 L 170.32 137.92 C 170.15 136.78 169.08 135.99 167.94 136.16 C 166.80 136.33 166.01 137.40 166.18 138.54 Z M 166.31 139.42 L 166.41 140.41 C 166.52 141.56 167.54 142.41 168.69 142.29 C 169.84 142.18 170.69 141.16 170.58 140.01 L 170.48 139.01 C 170.37 137.86 169.34 137.02 168.19 137.13 C 167.04 137.24 166.20 138.27 166.31 139.42 Z M 166.40 140.31 L 166.45 141.29 C 166.50 142.45 167.48 143.34 168.64 143.29 C 169.79 143.23 170.68 142.25 170.63 141.10 L 170.58 140.11 C 170.53 138.96 169.55 138.06 168.39 138.12 C 167.24 138.17 166.35 139.15 166.40 140.31 Z M 166.44 141.23 L 166.46 142.23 C 166.48 143.39 167.43 144.31 168.58 144.30 C 169.74 144.28 170.66 143.33 170.65 142.17 L 170.63 141.17 C 170.62 140.01 169.66 139.08 168.51 139.10 C 167.35 139.12 166.43 140.07 166.44 141.23 Z M 166.46 142.20 L 166.46 143.22 C 166.46 144.38 167.40 145.31 168.56 145.31 C 169.71 145.31 170.65 144.37 170.65 143.21 L 170.65 142.20 C 170.65 141.04 169.71 140.10 168.55 140.11 C 167.39 140.11 166.46 141.05 166.46 142.20 Z M 166.46 143.20 L 166.45 144.21 C 166.44 145.36 167.38 146.31 168.53 146.32 C 169.69 146.32 170.64 145.39 170.64 144.23 L 170.65 143.23 C 170.66 142.07 169.72 141.13 168.57 141.12 C 167.41 141.11 166.47 142.05 166.46 143.20 Z M 166.45 144.15 L 166.42 145.15 C 166.38 146.30 167.29 147.27 168.45 147.31 C 169.60 147.35 170.57 146.44 170.61 145.29 L 170.64 144.29 C 170.68 143.13 169.77 142.16 168.62 142.13 C 167.46 142.09 166.49 142.99 166.45 144.15 Z M 166.43 145.05 L 166.34 146.04 C 166.25 147.20 167.11 148.21 168.26 148.30 C 169.42 148.40 170.43 147.54 170.52 146.38 L 170.60 145.39 C 170.70 144.23 169.84 143.22 168.69 143.13 C 167.53 143.03 166.52 143.89 166.43 145.05 Z M 166.36 145.90 L 166.21 146.89 C 166.04 148.03 166.82 149.10 167.97 149.27 C 169.12 149.45 170.18 148.66 170.36 147.51 L 170.51 146.53 C 170.68 145.38 169.89 144.31 168.75 144.14 C 167.60 143.96 166.53 144.75 166.36 145.90 Z M 166.25 146.70 L 166.01 147.67 C 165.74 148.80 166.43 149.93 167.55 150.21 C 168.68 150.48 169.81 149.79 170.09 148.66 L 170.32 147.70 C 170.60 146.57 169.91 145.44 168.78 145.16 C 167.65 144.89 166.52 145.58 166.25 146.70 Z M 166.07 147.47 L 165.75 148.38 C 165.37 149.47 165.94 150.67 167.03 151.06 C 168.13 151.44 169.32 150.87 169.71 149.77 L 170.03 148.86 C 170.41 147.77 169.84 146.57 168.74 146.19 C 167.65 145.80 166.45 146.38 166.07 147.47 Z M 165.82 148.21 L 165.40 149.13 C 164.93 150.18 165.40 151.43 166.45 151.90 C 167.51 152.38 168.75 151.91 169.23 150.85 L 169.64 149.94 C 170.12 148.88 169.65 147.64 168.59 147.16 C 167.53 146.69 166.29 147.16 165.82 148.21 Z M 165.46 149.01 L 164.98 149.93 C 164.44 150.95 164.83 152.22 165.85 152.76 C 166.88 153.30 168.15 152.91 168.69 151.89 L 169.17 150.97 C 169.71 149.95 169.32 148.68 168.30 148.14 C 167.27 147.59 166.00 147.99 165.46 149.01 Z M 165.03 149.84 L 164.51 150.72 C 163.92 151.72 164.25 153.00 165.25 153.59 C 166.24 154.18 167.53 153.85 168.12 152.85 L 168.64 151.97 C 169.23 150.98 168.90 149.69 167.90 149.10 C 166.90 148.51 165.62 148.84 165.03 149.84 Z M 164.56 150.63 L 164.01 151.47 C 163.37 152.43 163.63 153.73 164.60 154.37 C 165.56 155.01 166.87 154.75 167.50 153.78 L 168.06 152.95 C 168.70 151.98 168.44 150.68 167.47 150.04 C 166.50 149.40 165.20 149.66 164.56 150.63 Z M 164.10 151.34 L 163.48 152.14 C 162.77 153.06 162.94 154.37 163.86 155.08 C 164.77 155.79 166.09 155.62 166.80 154.71 L 167.41 153.91 C 168.12 152.99 167.95 151.68 167.04 150.97 C 166.12 150.26 164.81 150.43 164.10 151.34 Z M 163.64 151.96 L 162.94 152.67 C 162.13 153.50 162.15 154.83 162.97 155.63 C 163.80 156.44 165.13 156.43 165.94 155.60 L 166.64 154.89 C 167.45 154.06 167.43 152.74 166.60 151.93 C 165.78 151.12 164.45 151.13 163.64 151.96 Z M 163.17 152.47 L 162.41 153.05 C 161.49 153.75 161.31 155.07 162.01 155.99 C 162.72 156.91 164.03 157.08 164.95 156.38 L 165.71 155.80 C 166.63 155.10 166.80 153.79 166.10 152.87 C 165.40 151.95 164.09 151.77 163.17 152.47 Z M 162.65 152.90 L 161.83 153.36 C 160.82 153.93 160.47 155.21 161.04 156.21 C 161.61 157.22 162.88 157.57 163.89 157.00 L 164.71 156.54 C 165.71 155.97 166.07 154.70 165.50 153.69 C 164.93 152.69 163.66 152.33 162.65 152.90 Z M 162.09 153.24 L 161.15 153.62 C 160.08 154.04 159.55 155.25 159.97 156.32 C 160.40 157.39 161.61 157.92 162.68 157.50 L 163.62 157.12 C 164.70 156.70 165.22 155.49 164.80 154.42 C 164.37 153.34 163.16 152.82 162.09 153.24 Z M 161.41 153.53 L 160.41 153.78 C 159.29 154.06 158.61 155.19 158.89 156.31 C 159.17 157.42 160.30 158.10 161.42 157.83 L 162.42 157.58 C 163.53 157.30 164.21 156.17 163.94 155.05 C 163.66 153.94 162.53 153.26 161.41 153.53 Z M 160.62 153.74 L 159.61 153.88 C 158.48 154.05 157.68 155.10 157.85 156.24 C 158.01 157.38 159.06 158.17 160.20 158.01 L 161.21 157.87 C 162.34 157.71 163.14 156.65 162.98 155.51 C 162.81 154.37 161.76 153.58 160.62 153.74 Z M 159.77 153.87 L 158.76 153.93 C 157.61 154.01 156.74 155.00 156.82 156.15 C 156.90 157.30 157.89 158.17 159.04 158.09 L 160.04 158.03 C 161.19 157.95 162.06 156.96 161.99 155.81 C 161.91 154.66 160.92 153.79 159.77 153.87 Z M 158.92 153.93 L 157.88 153.92 C 156.72 153.91 155.78 154.84 155.77 155.99 C 155.77 157.14 156.69 158.08 157.85 158.09 L 158.88 158.10 C 160.04 158.11 160.98 157.18 160.99 156.03 C 161.00 154.88 160.07 153.94 158.92 153.93 Z M 158.11 153.93 L 157.11 153.81 C 155.97 153.67 154.93 154.49 154.79 155.63 C 154.65 156.78 155.47 157.82 156.61 157.96 L 157.61 158.08 C 158.76 158.22 159.80 157.40 159.94 156.26 C 160.07 155.11 159.26 154.07 158.11 153.93 Z M 157.48 153.89 L 156.59 153.61 C 155.49 153.26 154.31 153.88 153.97 154.99 C 153.63 156.09 154.24 157.26 155.35 157.61 L 156.24 157.88 C 157.34 158.23 158.52 157.61 158.86 156.51 C 159.20 155.40 158.59 154.23 157.48 153.89 Z M 157.03 153.80 L 156.19 153.31 C 155.20 152.72 153.91 153.05 153.32 154.05 C 152.74 155.05 153.07 156.33 154.07 156.92 L 154.91 157.41 C 155.91 158.00 157.19 157.67 157.78 156.67 C 158.36 155.67 158.03 154.39 157.03 153.80 Z M 156.56 153.58 L 155.81 152.89 C 154.96 152.10 153.64 152.15 152.85 153.00 C 152.07 153.85 152.12 155.17 152.96 155.96 L 153.71 156.65 C 154.55 157.44 155.88 157.39 156.67 156.54 C 157.45 155.69 157.40 154.36 156.56 153.58 Z M 156.05 153.15 L 155.49 152.42 C 154.79 151.50 153.48 151.33 152.56 152.03 C 151.64 152.73 151.46 154.05 152.16 154.97 L 152.72 155.70 C 153.43 156.62 154.74 156.79 155.66 156.09 C 156.58 155.39 156.76 154.07 156.05 153.15 Z M 155.67 152.70 L 155.22 151.86 C 154.67 150.84 153.40 150.46 152.38 151.00 C 151.37 151.55 150.98 152.82 151.53 153.84 L 151.98 154.68 C 152.53 155.70 153.80 156.09 154.82 155.54 C 155.84 154.99 156.22 153.72 155.67 152.70 Z M 155.35 152.16 L 154.99 151.12 C 154.61 150.03 153.42 149.45 152.33 149.82 C 151.24 150.20 150.66 151.39 151.04 152.49 L 151.40 153.53 C 151.77 154.62 152.97 155.20 154.06 154.83 C 155.15 154.45 155.73 153.26 155.35 152.16 Z M 155.05 151.36 L 154.85 150.46 C 154.61 149.34 153.50 148.62 152.38 148.86 C 151.26 149.11 150.54 150.21 150.79 151.34 L 150.98 152.24 C 151.22 153.36 152.33 154.08 153.45 153.84 C 154.58 153.59 155.29 152.49 155.05 151.36 Z M 154.85 150.60 L 154.71 149.64 C 154.55 148.51 153.50 147.74 152.38 147.90 C 151.26 148.07 150.48 149.11 150.64 150.23 L 150.79 151.20 C 150.95 152.32 152.00 153.10 153.12 152.93 C 154.24 152.77 155.02 151.72 154.85 150.60 Z M 154.70 149.72 L 154.58 148.69 C 154.46 147.57 153.46 146.77 152.35 146.89 C 151.23 147.01 150.43 148.01 150.55 149.13 L 150.66 150.15 C 150.78 151.27 151.78 152.07 152.90 151.95 C 154.01 151.83 154.82 150.83 154.70 149.72 Z M 154.56 148.73 L 154.47 147.66 C 154.37 146.56 153.40 145.75 152.29 145.85 C 151.19 145.94 150.38 146.92 150.48 148.02 L 150.57 149.08 C 150.67 150.19 151.64 151.00 152.74 150.90 C 153.85 150.80 154.66 149.83 154.56 148.73 Z M 154.45 147.67 L 154.43 147.41 C 154.34 146.31 153.38 145.50 152.28 145.59 C 151.19 145.69 150.38 146.65 150.47 147.74 L 150.49 148.01 C 150.58 149.10 151.54 149.92 152.64 149.82 C 153.73 149.73 154.54 148.77 154.45 147.67 Z"
      fill="black"
      fill-rule="nonzero" /></svg>