<svg xmlns="http://www.w3.org/2000/svg" width="300" height="300" viewBox="0 0 300 300">
<path d="M 133.75 142.58 L 134.32 143.30 C 134.91 144.05 136.00 144.18 136.76 143.58 C 137.51 142.99 137.63 141.90 137.04 141.15 L 136.47 140.43 C 135.88 139.68 134.79 139.55 134.03 140.14 C 133.28 140.74 133.15 141.83 133.75 142.58 Z M 134.14 143.22 L 134.69 144.07 C 135.24 144.92 136.38 145.16 137.23 144.61 C 138.07 144.06 138.32 142.92 137.76 142.07 L 137.21 141.23 C 136.66 140.38 135.53 140.14 134.68 140.69 C 133.83 141.24 133.59 142.37 134.14 143.22 Z M 134.52 143.90 L 134.95 144.79 C 135.40 145.74 136.54 146.13 137.49 145.68 C 138.43 145.22 138.83 144.08 138.37 143.14 L 137.94 142.24 C 137.49 141.30 136.35 140.90 135.40 141.36 C 134.46 141.81 134.06 142.95 134.52 143.90 Z M 134.85 144.65 L 135.18 145.52 C 135.56 146.52 136.68 147.02 137.68 146.65 C 138.67 146.27 139.18 145.15 138.80 144.15 L 138.47 143.28 C 138.09 142.28 136.97 141.78 135.98 142.16 C 134.98 142.54 134.47 143.65 134.85 144.65 Z M 135.14 145.44 L 135.46 146.42 C 135.79 147.44 136.88 148.00 137.90 147.67 C 138.92 147.34 139.48 146.24 139.15 145.22 L 138.84 144.24 C 138.51 143.22 137.41 142.66 136.39 142.99 C 135.37 143.32 134.81 144.42 135.14 145.44 Z M 135.43 146.36 L 135.74 147.41 C 136.04 148.45 137.12 149.05 138.15 148.75 C 139.19 148.45 139.78 147.37 139.49 146.33 L 139.18 145.28 C 138.88 144.24 137.80 143.65 136.77 143.94 C 135.73 144.24 135.14 145.32 135.43 146.36 Z M 135.72 147.38 L 136.00 148.40 C 136.28 149.45 137.35 150.07 138.39 149.78 C 139.44 149.50 140.06 148.43 139.78 147.39 L 139.50 146.37 C 139.22 145.32 138.15 144.70 137.10 144.98 C 136.06 145.26 135.44 146.34 135.72 147.38 Z M 135.98 148.38 L 136.24 149.39 C 136.51 150.44 137.58 151.08 138.63 150.81 C 139.68 150.54 140.32 149.47 140.05 148.42 L 139.79 147.41 C 139.52 146.36 138.45 145.72 137.40 145.99 C 136.35 146.26 135.72 147.33 135.98 148.38 Z M 136.23 149.37 L 136.47 150.35 C 136.73 151.41 137.79 152.05 138.85 151.80 C 139.91 151.54 140.55 150.47 140.30 149.41 L 140.06 148.44 C 139.80 147.38 138.73 146.73 137.68 146.99 C 136.62 147.25 135.97 148.32 136.23 149.37 Z M 136.46 150.33 L 136.67 151.23 C 136.92 152.29 137.98 152.95 139.04 152.70 C 140.11 152.46 140.77 151.39 140.52 150.33 L 140.31 149.43 C 140.06 148.37 138.99 147.71 137.93 147.96 C 136.87 148.21 136.21 149.27 136.46 150.33 Z M 136.66 151.21 L 136.90 152.29 C 137.14 153.36 138.20 154.03 139.27 153.79 C 140.33 153.55 141.01 152.49 140.77 151.42 L 140.53 150.35 C 140.29 149.28 139.23 148.61 138.16 148.85 C 137.09 149.09 136.42 150.15 136.66 151.21 Z M 136.90 152.27 L 137.10 153.22 C 137.33 154.29 138.38 154.97 139.45 154.74 C 140.52 154.51 141.21 153.46 140.98 152.39 L 140.77 151.44 C 140.54 150.37 139.49 149.69 138.42 149.92 C 137.35 150.15 136.67 151.20 136.90 152.27 Z M 137.10 153.22 L 137.29 154.11 C 137.52 155.18 138.57 155.87 139.64 155.64 C 140.71 155.41 141.40 154.36 141.17 153.29 L 140.98 152.39 C 140.75 151.32 139.70 150.64 138.62 150.86 C 137.55 151.09 136.87 152.15 137.10 153.22 Z M 137.29 154.12 L 137.50 155.10 C 137.73 156.17 138.79 156.85 139.86 156.62 C 140.93 156.39 141.61 155.33 141.38 154.26 L 141.17 153.28 C 140.93 152.21 139.88 151.53 138.81 151.76 C 137.74 151.99 137.06 153.05 137.29 154.12 Z M 137.50 155.09 L 137.71 156.07 C 137.93 157.14 138.99 157.83 140.06 157.60 C 141.13 157.37 141.82 156.32 141.59 155.25 L 141.38 154.27 C 141.16 153.20 140.10 152.51 139.03 152.74 C 137.96 152.97 137.27 154.02 137.50 155.09 Z M 137.70 156.04 L 137.89 157.02 C 138.10 158.10 139.15 158.80 140.23 158.59 C 141.30 158.38 142.00 157.33 141.79 156.26 L 141.60 155.28 C 141.39 154.20 140.34 153.50 139.26 153.71 C 138.19 153.92 137.49 154.97 137.70 156.04 Z M 137.89 157.00 L 138.07 157.97 C 138.26 159.05 139.30 159.77 140.38 159.57 C 141.46 159.37 142.17 158.34 141.98 157.26 L 141.80 156.28 C 141.60 155.20 140.56 154.49 139.48 154.68 C 138.40 154.88 137.69 155.92 137.89 157.00 Z M 138.06 157.97 L 138.24 158.93 C 138.43 160.02 139.47 160.73 140.55 160.54 C 141.63 160.34 142.35 159.31 142.15 158.23 L 141.98 157.26 C 141.78 156.18 140.75 155.46 139.67 155.66 C 138.59 155.85 137.87 156.89 138.06 157.97 Z M 138.24 158.94 L 138.41 159.88 C 138.61 160.96 139.65 161.68 140.73 161.48 C 141.81 161.28 142.53 160.24 142.33 159.16 L 142.15 158.22 C 141.95 157.14 140.91 156.42 139.83 156.62 C 138.75 156.82 138.04 157.86 138.24 158.94 Z M 138.41 159.89 L 138.60 160.91 C 138.81 161.99 139.85 162.70 140.94 162.49 C 142.02 162.29 142.73 161.24 142.52 160.16 L 142.33 159.15 C 142.12 158.06 141.08 157.35 140.00 157.56 C 138.91 157.77 138.20 158.81 138.41 159.89 Z M 138.60 160.92 L 138.80 161.90 C 139.01 162.98 140.06 163.68 141.14 163.47 C 142.22 163.26 142.92 162.21 142.71 161.13 L 142.52 160.15 C 142.31 159.07 141.26 158.37 140.18 158.58 C 139.10 158.79 138.39 159.84 138.60 160.92 Z M 138.80 161.93 L 139.01 162.90 C 139.24 163.98 140.30 164.66 141.38 164.43 C 142.46 164.20 143.14 163.14 142.91 162.06 L 142.71 161.09 C 142.48 160.02 141.41 159.33 140.34 159.56 C 139.26 159.79 138.57 160.85 138.80 161.93 Z M 139.03 162.97 L 139.27 163.96 C 139.54 165.03 140.63 165.68 141.70 165.41 C 142.77 165.15 143.42 164.06 143.15 162.99 L 142.90 162.00 C 142.63 160.93 141.55 160.28 140.48 160.55 C 139.41 160.81 138.76 161.90 139.03 162.97 Z M 139.30 164.08 L 139.64 165.17 C 139.97 166.22 141.10 166.81 142.15 166.48 C 143.21 166.15 143.80 165.02 143.46 163.96 L 143.12 162.88 C 142.79 161.82 141.67 161.24 140.61 161.57 C 139.56 161.90 138.97 163.02 139.30 164.08 Z M 139.69 165.36 L 140.14 166.41 C 140.59 167.44 141.78 167.91 142.80 167.47 C 143.83 167.03 144.30 165.84 143.86 164.81 L 143.41 163.77 C 142.97 162.74 141.78 162.27 140.75 162.71 C 139.73 163.15 139.25 164.34 139.69 165.36 Z M 140.38 166.86 L 140.86 167.48 C 141.55 168.38 142.83 168.55 143.73 167.86 C 144.63 167.17 144.80 165.88 144.11 164.99 L 143.63 164.36 C 142.94 163.47 141.65 163.30 140.75 163.99 C 139.86 164.68 139.69 165.96 140.38 166.86 Z M 142.86 168.27 L 143.43 168.17 C 144.55 167.96 145.29 166.87 145.08 165.75 C 144.87 164.62 143.79 163.88 142.66 164.09 L 142.10 164.20 C 140.97 164.41 140.23 165.49 140.44 166.62 C 140.65 167.74 141.74 168.48 142.86 168.27 Z M 144.82 167.24 L 145.42 166.28 C 146.03 165.30 145.73 164.01 144.75 163.40 C 143.77 162.78 142.48 163.08 141.87 164.06 L 141.27 165.02 C 140.66 166.00 140.96 167.29 141.94 167.90 C 142.92 168.51 144.21 168.22 144.82 167.24 Z M 145.56 166.04 L 145.98 165.11 C 146.46 164.06 146.00 162.81 144.94 162.33 C 143.88 161.84 142.64 162.31 142.15 163.37 L 141.73 164.30 C 141.25 165.35 141.71 166.60 142.77 167.08 C 143.83 167.57 145.08 167.10 145.56 166.04 Z M 146.01 165.06 L 146.38 164.17 C 146.83 163.10 146.33 161.86 145.25 161.41 C 144.18 160.96 142.94 161.47 142.49 162.54 L 142.12 163.43 C 141.67 164.50 142.18 165.74 143.25 166.19 C 144.33 166.64 145.56 166.13 146.01 165.06 Z M 146.40 164.14 L 146.78 163.17 C 147.21 162.09 146.68 160.86 145.59 160.43 C 144.51 160.00 143.28 160.53 142.85 161.62 L 142.47 162.58 C 142.04 163.67 142.57 164.90 143.66 165.32 C 144.75 165.75 145.97 165.22 146.40 164.14 Z M 146.80 163.14 L 147.18 162.13 C 147.59 161.03 147.04 159.81 145.95 159.40 C 144.85 158.99 143.63 159.54 143.22 160.63 L 142.84 161.65 C 142.42 162.74 142.98 163.96 144.07 164.38 C 145.17 164.79 146.39 164.24 146.80 163.14 Z M 147.19 162.10 L 147.56 161.11 C 147.95 160.00 147.38 158.79 146.28 158.39 C 145.18 157.99 143.97 158.56 143.57 159.66 L 143.21 160.66 C 142.81 161.76 143.38 162.98 144.48 163.38 C 145.58 163.77 146.80 163.20 147.19 162.10 Z M 147.56 161.08 L 147.91 160.10 C 148.29 159.00 147.71 157.79 146.60 157.40 C 145.50 157.01 144.29 157.60 143.90 158.70 L 143.56 159.68 C 143.17 160.79 143.75 162.00 144.86 162.39 C 145.97 162.77 147.18 162.19 147.56 161.08 Z M 147.91 160.09 L 148.24 159.13 C 148.62 158.02 148.02 156.82 146.91 156.44 C 145.80 156.06 144.60 156.65 144.22 157.76 L 143.89 158.72 C 143.52 159.83 144.11 161.04 145.22 161.41 C 146.33 161.79 147.53 161.20 147.91 160.09 Z M 148.24 159.12 L 148.55 158.21 C 148.92 157.10 148.32 155.89 147.21 155.52 C 146.10 155.15 144.89 155.75 144.52 156.86 L 144.22 157.77 C 143.84 158.89 144.44 160.09 145.56 160.46 C 146.67 160.83 147.87 160.23 148.24 159.12 Z M 148.55 158.20 L 148.87 157.22 C 149.24 156.11 148.64 154.91 147.52 154.54 C 146.41 154.18 145.21 154.78 144.84 155.89 L 144.52 156.87 C 144.15 157.98 144.76 159.18 145.87 159.55 C 146.98 159.92 148.18 159.31 148.55 158.20 Z M 148.88 157.21 L 149.20 156.21 C 149.56 155.09 148.95 153.89 147.84 153.53 C 146.72 153.17 145.52 153.78 145.16 154.90 L 144.84 155.91 C 144.48 157.02 145.09 158.22 146.20 158.58 C 147.32 158.94 148.52 158.33 148.88 157.21 Z M 149.21 156.18 L 149.49 155.27 C 149.84 154.15 149.22 152.96 148.10 152.62 C 146.98 152.27 145.79 152.89 145.44 154.01 L 145.16 154.92 C 144.81 156.04 145.43 157.23 146.55 157.58 C 147.67 157.93 148.86 157.30 149.21 156.18 Z M 149.50 155.23 L 149.76 154.33 C 150.09 153.21 149.45 152.03 148.32 151.71 C 147.20 151.38 146.02 152.02 145.69 153.15 L 145.43 154.05 C 145.10 155.17 145.75 156.35 146.87 156.68 C 148.00 157.00 149.18 156.36 149.50 155.23 Z M 149.77 154.28 L 150.04 153.29 C 150.34 152.16 149.67 151.00 148.54 150.70 C 147.41 150.40 146.25 151.07 145.95 152.20 L 145.68 153.20 C 145.38 154.33 146.06 155.49 147.19 155.79 C 148.31 156.09 149.47 155.41 149.77 154.28 Z M 150.04 153.26 L 150.27 152.32 C 150.56 151.19 149.87 150.05 148.74 149.76 C 147.61 149.48 146.46 150.17 146.18 151.30 L 145.95 152.24 C 145.66 153.37 146.35 154.51 147.48 154.79 C 148.61 155.08 149.76 154.39 150.04 153.26 Z M 150.27 152.32 L 150.50 151.37 C 150.78 150.24 150.10 149.10 148.97 148.82 C 147.84 148.54 146.70 149.23 146.42 150.36 L 146.18 151.31 C 145.91 152.43 146.59 153.57 147.72 153.85 C 148.85 154.13 149.99 153.45 150.27 152.32 Z M 150.50 151.37 L 150.73 150.40 C 151.01 149.28 150.32 148.14 149.20 147.87 C 148.07 147.59 146.94 148.28 146.66 149.40 L 146.43 150.37 C 146.15 151.49 146.84 152.63 147.96 152.90 C 149.09 153.18 150.22 152.49 150.50 151.37 Z M 150.73 150.38 L 150.96 149.40 C 151.23 148.27 150.53 147.15 149.41 146.89 C 148.28 146.62 147.16 147.32 146.89 148.44 L 146.66 149.42 C 146.40 150.55 147.10 151.67 148.22 151.94 C 149.34 152.20 150.47 151.50 150.73 150.38 Z M 150.96 149.39 L 151.19 148.41 C 151.45 147.29 150.75 146.17 149.63 145.91 C 148.51 145.65 147.39 146.35 147.13 147.47 L 146.90 148.45 C 146.64 149.57 147.34 150.69 148.46 150.95 C 149.58 151.21 150.70 150.51 150.96 149.39 Z M 151.17 148.46 L 151.42 147.49 C 151.71 146.38 151.04 145.25 149.93 144.96 C 148.82 144.67 147.69 145.33 147.40 146.44 L 147.15 147.42 C 146.86 148.53 147.52 149.66 148.63 149.95 C 149.74 150.24 150.88 149.57 151.17 148.46 Z M 151.38 147.60 L 151.67 146.70 C 152.02 145.61 151.42 144.44 150.33 144.09 C 149.24 143.75 148.07 144.35 147.73 145.44 L 147.44 146.33 C 147.09 147.42 147.69 148.59 148.78 148.94 C 149.87 149.29 151.03 148.69 151.38 147.60 Z M 151.61 146.86 L 151.98 145.96 C 152.42 144.91 151.92 143.70 150.86 143.26 C 149.81 142.82 148.60 143.32 148.16 144.38 L 147.79 145.28 C 147.35 146.33 147.85 147.54 148.91 147.98 C 149.96 148.41 151.17 147.91 151.61 146.86 Z M 151.90 146.11 L 152.38 145.17 C 152.90 144.17 152.51 142.92 151.50 142.40 C 150.49 141.88 149.25 142.28 148.73 143.29 L 148.24 144.23 C 147.72 145.23 148.12 146.47 149.13 147.00 C 150.14 147.52 151.38 147.12 151.90 146.11 Z M 152.29 145.25 L 152.76 144.46 C 153.33 143.50 153.01 142.27 152.05 141.70 C 151.09 141.14 149.85 141.45 149.29 142.41 L 148.82 143.21 C 148.26 144.16 148.57 145.40 149.53 145.97 C 150.49 146.53 151.73 146.21 152.29 145.25 Z M 152.67 144.47 L 153.21 143.62 C 153.78 142.71 153.51 141.51 152.60 140.94 C 151.69 140.36 150.48 140.64 149.91 141.55 L 149.38 142.40 C 148.80 143.31 149.08 144.51 149.99 145.09 C 150.90 145.66 152.10 145.38 152.67 144.47 Z M 153.14 143.61 L 153.71 142.72 C 154.28 141.85 154.03 140.69 153.16 140.12 C 152.29 139.56 151.12 139.80 150.56 140.67 L 149.98 141.56 C 149.42 142.43 149.66 143.60 150.53 144.16 C 151.41 144.73 152.57 144.48 153.14 143.61 Z M 153.67 142.70 L 153.98 142.23 C 154.53 141.38 154.30 140.25 153.45 139.69 C 152.61 139.14 151.47 139.37 150.92 140.22 L 150.60 140.69 C 150.05 141.54 150.29 142.67 151.13 143.23 C 151.98 143.78 153.11 143.55 153.67 142.70 Z"
      fill="black"
      fill-rule="nonzero" /><path d="M 158.24 130.28 L 158.04 131.26 C 157.85 132.20 158.45 133.11 159.39 133.30 C 160.33 133.49 161.24 132.89 161.44 131.95 L 161.64 130.97 C 161.83 130.03 161.22 129.12 160.28 128.93 C 159.35 128.74 158.43 129.34 158.24 130.28 Z M 157.97 131.24 L 157.77 132.22 C 157.57 133.20 158.20 134.15 159.18 134.35 C 160.16 134.55 161.11 133.92 161.31 132.94 L 161.51 131.97 C 161.71 130.99 161.08 130.03 160.10 129.83 C 159.12 129.63 158.17 130.27 157.97 131.24 Z M 157.72 132.21 L 157.63 132.62 C 157.43 133.63 158.08 134.61 159.08 134.81 C 160.09 135.02 161.07 134.37 161.28 133.36 L 161.36 132.96 C 161.57 131.95 160.92 130.97 159.91 130.76 C 158.90 130.56 157.92 131.21 157.72 132.21 Z"
      fill="black"
      fill-rule="nonzero" /><path d="M 156.78 146.16 L 157.17 147.06 C 157.64 148.13 158.89 148.61 159.95 148.14 C 161.02 147.68 161.50 146.43 161.03 145.37 L 160.63 144.46 C 160.17 143.40 158.92 142.91 157.86 143.38 C 156.79 143.85 156.31 145.09 156.78 146.16 Z M 157.09 146.91 L 157.42 147.85 C 157.80 148.96 159.01 149.55 160.12 149.16 C 161.23 148.78 161.82 147.57 161.43 146.46 L 161.11 145.52 C 160.73 144.41 159.52 143.82 158.41 144.21 C 157.30 144.59 156.71 145.80 157.09 146.91 Z M 157.32 147.54 L 157.50 148.50 C 157.72 149.66 158.83 150.43 159.99 150.21 C 161.15 150.00 161.92 148.88 161.71 147.72 L 161.53 146.77 C 161.32 145.60 160.20 144.84 159.04 145.05 C 157.88 145.27 157.11 146.38 157.32 147.54 Z M 157.46 148.18 L 157.49 149.04 C 157.53 150.22 158.52 151.15 159.70 151.11 C 160.88 151.08 161.81 150.09 161.77 148.90 L 161.75 148.04 C 161.71 146.86 160.72 145.93 159.53 145.97 C 158.35 146.00 157.42 146.99 157.46 148.18 Z M 157.49 148.87 L 157.45 149.84 C 157.39 151.02 158.30 152.03 159.48 152.09 C 160.66 152.14 161.66 151.23 161.72 150.05 L 161.77 149.08 C 161.83 147.90 160.92 146.89 159.74 146.83 C 158.56 146.78 157.55 147.69 157.49 148.87 Z M 157.45 149.78 L 157.37 150.91 C 157.27 152.09 158.16 153.12 159.33 153.21 C 160.51 153.30 161.54 152.42 161.63 151.24 L 161.72 150.11 C 161.81 148.93 160.93 147.91 159.75 147.82 C 158.57 147.73 157.54 148.61 157.45 149.78 Z M 157.37 150.92 L 157.30 151.90 C 157.21 153.07 158.10 154.10 159.27 154.18 C 160.45 154.26 161.47 153.38 161.55 152.20 L 161.62 151.23 C 161.71 150.05 160.82 149.03 159.65 148.95 C 158.47 148.86 157.45 149.75 157.37 150.92 Z M 157.30 151.92 L 157.25 152.86 C 157.18 154.03 158.07 155.04 159.24 155.11 C 160.41 155.18 161.42 154.29 161.49 153.12 L 161.55 152.18 C 161.62 151.01 160.73 150.00 159.56 149.93 C 158.38 149.86 157.38 150.75 157.30 151.92 Z M 157.25 152.88 L 157.20 153.88 C 157.14 155.05 158.04 156.04 159.21 156.10 C 160.38 156.16 161.37 155.27 161.43 154.10 L 161.49 153.10 C 161.55 151.93 160.65 150.93 159.48 150.87 C 158.31 150.81 157.31 151.71 157.25 152.88 Z M 157.21 153.90 L 157.16 154.94 C 157.11 156.10 158.02 157.09 159.18 157.14 C 160.35 157.19 161.33 156.28 161.38 155.12 L 161.43 154.08 C 161.48 152.91 160.57 151.93 159.41 151.88 C 158.24 151.83 157.26 152.73 157.21 153.90 Z M 157.17 154.95 L 157.13 156.02 C 157.09 157.18 158.00 158.15 159.16 158.20 C 160.32 158.24 161.30 157.33 161.34 156.17 L 161.38 155.10 C 161.42 153.94 160.51 152.96 159.35 152.92 C 158.18 152.88 157.21 153.79 157.17 154.95 Z M 157.14 156.04 L 157.11 157.12 C 157.08 158.27 158.00 159.23 159.15 159.26 C 160.31 159.29 161.27 158.38 161.30 157.23 L 161.33 156.15 C 161.36 154.99 160.45 154.03 159.29 154.00 C 158.13 153.97 157.17 154.88 157.14 156.04 Z M 157.13 157.13 L 157.12 158.21 C 157.10 159.36 158.01 160.30 159.15 160.32 C 160.30 160.34 161.24 159.43 161.26 158.29 L 161.28 157.21 C 161.30 156.06 160.39 155.12 159.24 155.10 C 158.10 155.08 157.15 155.99 157.13 157.13 Z M 157.14 158.23 L 157.13 159.28 C 157.12 160.41 158.02 161.34 159.16 161.35 C 160.29 161.36 161.21 160.45 161.22 159.32 L 161.24 158.27 C 161.25 157.14 160.34 156.21 159.21 156.20 C 158.08 156.19 157.15 157.10 157.14 158.23 Z M 157.16 159.29 L 157.15 160.30 C 157.14 161.41 158.04 162.32 159.16 162.33 C 160.28 162.33 161.19 161.43 161.19 160.32 L 161.20 159.31 C 161.21 158.20 160.31 157.29 159.19 157.28 C 158.07 157.27 157.16 158.17 157.16 159.29 Z M 157.18 160.30 L 157.17 161.25 C 157.17 162.35 158.06 163.24 159.17 163.25 C 160.27 163.25 161.16 162.36 161.17 161.25 L 161.17 160.31 C 161.17 159.21 160.28 158.31 159.18 158.31 C 158.07 158.31 157.18 159.20 157.18 160.30 Z M 157.20 161.25 L 157.20 162.17 C 157.20 163.26 158.08 164.14 159.17 164.14 C 160.26 164.14 161.14 163.26 161.14 162.17 L 161.14 161.25 C 161.14 160.16 160.26 159.28 159.17 159.28 C 158.08 159.28 157.20 160.16 157.20 161.25 Z M 157.26 162.18 L 157.26 163.34 C 157.26 164.39 158.12 165.25 159.17 165.25 C 160.23 165.24 161.08 164.39 161.08 163.33 L 161.08 162.17 C 161.08 161.12 160.22 160.26 159.17 160.26 C 158.11 160.26 157.26 161.12 157.26 162.18 Z M 157.34 163.35 L 157.34 164.33 C 157.35 165.34 158.18 166.16 159.19 166.15 C 160.20 166.14 161.02 165.32 161.01 164.30 L 161.00 163.32 C 161.00 162.31 160.17 161.49 159.16 161.50 C 158.15 161.51 157.33 162.33 157.34 163.35 Z M 157.42 164.36 L 157.44 165.22 C 157.46 166.19 158.26 166.95 159.23 166.93 C 160.20 166.91 160.97 166.11 160.95 165.14 L 160.93 164.28 C 160.91 163.31 160.11 162.54 159.14 162.56 C 158.17 162.58 157.40 163.39 157.42 164.36 Z M 157.51 165.26 L 157.56 166.25 C 157.60 167.18 158.39 167.90 159.32 167.86 C 160.25 167.82 160.97 167.03 160.93 166.10 L 160.88 165.10 C 160.84 164.17 160.05 163.45 159.12 163.49 C 158.19 163.54 157.47 164.33 157.51 165.26 Z M 157.61 166.29 L 157.68 167.28 C 157.74 168.18 158.52 168.85 159.42 168.79 C 160.33 168.73 161.00 167.95 160.94 167.05 L 160.87 166.06 C 160.81 165.16 160.03 164.48 159.13 164.54 C 158.23 164.61 157.55 165.39 157.61 166.29 Z M 157.72 167.29 L 157.78 167.97 C 157.85 168.85 158.62 169.50 159.50 169.43 C 160.37 169.36 161.02 168.59 160.95 167.71 L 160.90 167.03 C 160.83 166.16 160.06 165.50 159.18 165.57 C 158.30 165.65 157.65 166.41 157.72 167.29 Z"
      fill="black"
      fill-rule="nonzero" /></svg>