<svg xmlns="http://www.w3.org/2000/svg" width="300" height="300" viewBox="0 0 300 300">
<path d="M 144.98 123.59 L 145.84 123.98 C 146.87 124.44 148.08 123.98 148.54 122.95 C 149.01 121.92 148.55 120.71 147.52 120.25 L 146.66 119.86 C 145.63 119.40 144.42 119.85 143.95 120.88 C 143.49 121.91 143.95 123.13 144.98 123.59 Z M 145.71 123.92 L 146.58 124.39 C 147.58 124.92 148.82 124.55 149.36 123.55 C 149.89 122.56 149.52 121.31 148.52 120.78 L 147.65 120.31 C 146.65 119.77 145.41 120.14 144.87 121.14 C 144.33 122.14 144.71 123.38 145.71 123.92 Z M 146.38 124.26 L 147.23 124.86 C 148.16 125.51 149.44 125.28 150.09 124.35 C 150.74 123.43 150.51 122.15 149.58 121.50 L 148.72 120.90 C 147.79 120.25 146.52 120.48 145.87 121.41 C 145.22 122.34 145.45 123.62 146.38 124.26 Z M 147.08 124.73 L 147.83 125.37 C 148.68 126.11 149.97 126.01 150.70 125.16 C 151.44 124.30 151.34 123.01 150.49 122.28 L 149.74 121.63 C 148.88 120.90 147.60 121.00 146.86 121.85 C 146.13 122.71 146.23 123.99 147.08 124.73 Z M 147.77 125.29 L 148.51 125.99 C 149.32 126.76 150.60 126.73 151.36 125.92 C 152.13 125.12 152.10 123.84 151.29 123.07 L 150.55 122.36 C 149.74 121.60 148.47 121.63 147.70 122.43 C 146.93 123.24 146.96 124.52 147.77 125.29 Z M 148.50 125.95 L 149.22 126.66 C 150.00 127.43 151.26 127.42 152.04 126.64 C 152.81 125.86 152.80 124.59 152.02 123.82 L 151.30 123.11 C 150.52 122.34 149.26 122.35 148.48 123.13 C 147.71 123.92 147.72 125.18 148.50 125.95 Z M 149.26 126.65 L 150.02 127.38 C 150.80 128.13 152.04 128.11 152.79 127.33 C 153.54 126.55 153.52 125.31 152.74 124.56 L 151.98 123.83 C 151.20 123.08 149.96 123.10 149.21 123.88 C 148.46 124.66 148.48 125.90 149.26 126.65 Z M 150.10 127.38 L 150.83 128.05 C 151.61 128.76 152.82 128.70 153.52 127.92 C 154.23 127.14 154.17 125.93 153.39 125.23 L 152.66 124.56 C 151.88 123.85 150.67 123.91 149.97 124.69 C 149.26 125.47 149.32 126.68 150.10 127.38 Z M 150.92 128.05 L 151.65 128.66 C 152.43 129.32 153.60 129.22 154.25 128.44 C 154.91 127.66 154.81 126.49 154.03 125.83 L 153.30 125.22 C 152.52 124.57 151.35 124.67 150.70 125.45 C 150.04 126.23 150.14 127.40 150.92 128.05 Z M 151.74 128.67 L 152.52 129.27 C 153.30 129.88 154.43 129.74 155.04 128.96 C 155.64 128.17 155.50 127.05 154.72 126.44 L 153.94 125.83 C 153.16 125.23 152.03 125.37 151.42 126.15 C 150.81 126.93 150.96 128.06 151.74 128.67 Z M 152.59 129.26 L 153.40 129.85 C 154.17 130.42 155.26 130.25 155.83 129.48 C 156.39 128.70 156.23 127.62 155.46 127.05 L 154.65 126.46 C 153.87 125.89 152.79 126.06 152.22 126.83 C 151.65 127.60 151.82 128.69 152.59 129.26 Z M 153.45 129.82 L 154.11 130.30 C 154.87 130.84 155.92 130.66 156.46 129.91 C 157.01 129.15 156.83 128.10 156.08 127.56 L 155.41 127.08 C 154.65 126.54 153.60 126.71 153.06 127.47 C 152.52 128.22 152.69 129.28 153.45 129.82 Z"
      fill="black"
      fill-rule="nonzero" /><path d="M 128.77 136.77 L 127.95 137.69 C 127.31 138.42 127.38 139.53 128.11 140.18 C 128.84 140.82 129.95 140.75 130.59 140.02 L 131.41 139.09 C 132.05 138.36 131.98 137.25 131.25 136.61 C 130.52 135.97 129.41 136.04 128.77 136.77 Z M 127.56 137.96 L 127.17 138.70 C 126.68 139.65 127.05 140.82 128.00 141.31 C 128.94 141.80 130.11 141.43 130.60 140.49 L 130.99 139.75 C 131.48 138.80 131.11 137.63 130.16 137.14 C 129.22 136.65 128.05 137.02 127.56 137.96 Z M 127.46 141.08 L 127.84 141.45 C 128.66 142.24 129.96 142.22 130.75 141.40 C 131.55 140.58 131.52 139.28 130.70 138.49 L 130.32 138.11 C 129.50 137.32 128.20 137.34 127.41 138.16 C 126.62 138.98 126.64 140.29 127.46 141.08 Z M 129.13 142.08 L 130.15 142.15 C 131.32 142.23 132.33 141.35 132.41 140.18 C 132.49 139.01 131.60 138.00 130.44 137.92 L 129.41 137.85 C 128.25 137.77 127.24 138.66 127.16 139.83 C 127.08 140.99 127.96 142.00 129.13 142.08 Z M 130.48 142.19 L 131.71 142.08 C 132.89 141.98 133.77 140.93 133.67 139.74 C 133.57 138.55 132.52 137.68 131.33 137.78 L 130.11 137.88 C 128.92 137.99 128.04 139.03 128.14 140.22 C 128.25 141.41 129.29 142.29 130.48 142.19 Z M 131.83 142.09 L 132.83 141.95 C 134.02 141.78 134.85 140.68 134.68 139.48 C 134.51 138.29 133.41 137.46 132.22 137.63 L 131.22 137.77 C 130.02 137.94 129.19 139.04 129.36 140.23 C 129.53 141.43 130.63 142.26 131.83 142.09 Z M 132.88 141.95 L 133.89 141.78 C 135.09 141.58 135.90 140.46 135.70 139.26 C 135.50 138.07 134.37 137.26 133.18 137.46 L 132.17 137.63 C 130.97 137.82 130.16 138.95 130.36 140.15 C 130.56 141.34 131.69 142.15 132.88 141.95 Z M 133.92 141.79 L 134.89 141.62 C 136.09 141.41 136.89 140.27 136.68 139.07 C 136.47 137.87 135.33 137.07 134.13 137.28 L 133.16 137.45 C 131.96 137.66 131.16 138.80 131.37 140.00 C 131.58 141.20 132.72 142.00 133.92 141.79 Z M 134.88 141.63 L 135.93 141.45 C 137.14 141.24 137.95 140.10 137.74 138.90 C 137.53 137.69 136.39 136.88 135.19 137.09 L 134.14 137.27 C 132.93 137.48 132.12 138.62 132.33 139.82 C 132.53 141.03 133.68 141.83 134.88 141.63 Z M 135.92 141.46 L 136.91 141.30 C 138.12 141.10 138.94 139.96 138.74 138.75 C 138.54 137.54 137.40 136.72 136.19 136.92 L 135.20 137.08 C 133.99 137.28 133.17 138.42 133.37 139.63 C 133.57 140.84 134.71 141.66 135.92 141.46 Z M 136.91 141.30 L 137.82 141.15 C 139.03 140.95 139.85 139.81 139.65 138.59 C 139.45 137.38 138.31 136.56 137.09 136.76 L 136.19 136.91 C 134.98 137.11 134.16 138.26 134.36 139.47 C 134.56 140.68 135.70 141.50 136.91 141.30 Z M 137.85 141.15 L 138.83 140.98 C 140.04 140.76 140.85 139.61 140.63 138.39 C 140.42 137.18 139.26 136.37 138.05 136.59 L 137.07 136.76 C 135.85 136.98 135.05 138.14 135.26 139.35 C 135.48 140.56 136.63 141.37 137.85 141.15 Z M 138.84 140.98 L 139.82 140.80 C 141.04 140.58 141.84 139.41 141.62 138.20 C 141.39 136.99 140.23 136.18 139.01 136.41 L 138.04 136.58 C 136.82 136.81 136.02 137.97 136.24 139.19 C 136.46 140.40 137.63 141.20 138.84 140.98 Z M 139.81 140.81 L 140.78 140.64 C 142.00 140.42 142.81 139.26 142.60 138.04 C 142.39 136.83 141.23 136.01 140.01 136.23 L 139.03 136.40 C 137.81 136.61 137.00 137.77 137.21 138.99 C 137.43 140.21 138.59 141.02 139.81 140.81 Z M 140.76 140.64 L 141.75 140.48 C 142.97 140.28 143.79 139.12 143.59 137.90 C 143.39 136.68 142.23 135.85 141.01 136.06 L 140.03 136.22 C 138.80 136.42 137.98 137.58 138.18 138.80 C 138.39 140.02 139.54 140.85 140.76 140.64 Z M 141.75 140.48 L 142.75 140.31 C 143.97 140.11 144.79 138.95 144.59 137.73 C 144.38 136.50 143.22 135.68 142.00 135.89 L 141.00 136.05 C 139.78 136.26 138.96 137.42 139.16 138.64 C 139.37 139.86 140.53 140.69 141.75 140.48 Z M 142.77 140.31 L 143.74 140.14 C 144.96 139.92 145.78 138.75 145.56 137.53 C 145.34 136.31 144.18 135.50 142.95 135.71 L 141.98 135.89 C 140.76 136.11 139.94 137.27 140.16 138.49 C 140.38 139.72 141.55 140.53 142.77 140.31 Z M 143.74 140.14 L 144.73 139.96 C 145.95 139.75 146.77 138.58 146.55 137.36 C 146.33 136.13 145.16 135.32 143.94 135.54 L 142.95 135.71 C 141.73 135.93 140.92 137.10 141.13 138.32 C 141.35 139.54 142.52 140.36 143.74 140.14 Z M 144.70 139.97 L 145.69 139.81 C 146.92 139.60 147.75 138.44 147.55 137.22 C 147.34 135.99 146.18 135.16 144.96 135.37 L 143.97 135.53 C 142.74 135.73 141.91 136.89 142.12 138.12 C 142.32 139.34 143.48 140.17 144.70 139.97 Z M 145.66 139.81 L 146.64 139.67 C 147.87 139.48 148.72 138.34 148.54 137.11 C 148.36 135.88 147.21 135.03 145.98 135.21 L 144.99 135.36 C 143.76 135.54 142.92 136.69 143.10 137.92 C 143.28 139.15 144.43 140.00 145.66 139.81 Z M 146.63 139.67 L 147.62 139.53 C 148.85 139.35 149.71 138.22 149.54 136.98 C 149.36 135.75 148.22 134.90 146.99 135.07 L 146.00 135.21 C 144.77 135.38 143.91 136.52 144.08 137.75 C 144.26 138.98 145.40 139.84 146.63 139.67 Z M 147.62 139.53 L 148.60 139.39 C 149.83 139.22 150.69 138.08 150.52 136.85 C 150.34 135.61 149.20 134.76 147.97 134.93 L 146.99 135.07 C 145.76 135.24 144.90 136.38 145.08 137.61 C 145.25 138.84 146.39 139.70 147.62 139.53 Z M 148.60 139.39 L 149.59 139.25 C 150.82 139.08 151.68 137.94 151.50 136.70 C 151.33 135.47 150.19 134.62 148.95 134.79 L 147.97 134.93 C 146.74 135.11 145.88 136.25 146.06 137.48 C 146.23 138.71 147.37 139.56 148.60 139.39 Z M 149.58 139.25 L 150.59 139.11 C 151.82 138.94 152.68 137.80 152.51 136.57 C 152.34 135.34 151.20 134.48 149.97 134.65 L 148.96 134.79 C 147.73 134.96 146.87 136.10 147.04 137.33 C 147.21 138.56 148.35 139.42 149.58 139.25 Z M 150.58 139.11 L 151.58 138.97 C 152.81 138.81 153.68 137.67 153.51 136.44 C 153.34 135.21 152.20 134.34 150.97 134.51 L 149.97 134.65 C 148.74 134.82 147.88 135.95 148.05 137.18 C 148.21 138.42 149.35 139.28 150.58 139.11 Z M 151.58 138.97 L 152.58 138.84 C 153.81 138.67 154.67 137.54 154.51 136.31 C 154.34 135.08 153.21 134.21 151.98 134.38 L 150.98 134.51 C 149.74 134.68 148.88 135.81 149.05 137.04 C 149.21 138.28 150.35 139.14 151.58 138.97 Z M 152.58 138.84 L 153.56 138.70 C 154.79 138.53 155.66 137.40 155.49 136.17 C 155.32 134.94 154.18 134.08 152.95 134.25 L 151.97 134.38 C 150.74 134.55 149.88 135.68 150.05 136.91 C 150.22 138.14 151.35 139.01 152.58 138.84 Z M 153.57 138.70 L 154.58 138.56 C 155.81 138.38 156.67 137.25 156.50 136.02 C 156.32 134.79 155.19 133.93 153.96 134.11 L 152.95 134.25 C 151.72 134.42 150.86 135.56 151.03 136.79 C 151.21 138.02 152.34 138.87 153.57 138.70 Z M 154.58 138.56 L 155.56 138.42 C 156.79 138.25 157.64 137.11 157.47 135.88 C 157.30 134.65 156.16 133.80 154.93 133.97 L 153.96 134.11 C 152.73 134.28 151.88 135.42 152.05 136.64 C 152.22 137.87 153.36 138.73 154.58 138.56 Z M 155.54 138.42 L 156.53 138.29 C 157.76 138.12 158.62 136.99 158.45 135.76 C 158.29 134.53 157.16 133.67 155.93 133.84 L 154.95 133.97 C 153.72 134.14 152.86 135.27 153.02 136.49 C 153.19 137.72 154.32 138.58 155.54 138.42 Z M 156.51 138.28 L 157.51 138.16 C 158.73 138.01 159.60 136.89 159.45 135.66 C 159.30 134.43 158.18 133.56 156.95 133.72 L 155.95 133.84 C 154.73 133.99 153.86 135.11 154.01 136.34 C 154.16 137.57 155.28 138.44 156.51 138.28 Z M 157.47 138.16 L 158.43 138.05 C 159.66 137.92 160.54 136.81 160.41 135.59 C 160.27 134.36 159.17 133.48 157.94 133.61 L 156.98 133.72 C 155.76 133.85 154.87 134.96 155.01 136.18 C 155.14 137.41 156.25 138.29 157.47 138.16 Z M 158.40 138.05 L 159.22 137.97 C 160.44 137.85 161.34 136.76 161.22 135.54 C 161.10 134.31 160.01 133.42 158.79 133.53 L 157.97 133.61 C 156.75 133.73 155.85 134.82 155.97 136.05 C 156.09 137.27 157.18 138.17 158.40 138.05 Z M 159.22 137.97 L 160.19 137.87 C 161.41 137.76 162.31 136.67 162.19 135.45 C 162.07 134.22 160.98 133.33 159.76 133.45 L 158.79 133.54 C 157.57 133.66 156.67 134.74 156.79 135.97 C 156.91 137.19 157.99 138.09 159.22 137.97 Z M 160.20 137.87 L 161.41 137.74 C 162.63 137.61 163.51 136.52 163.39 135.30 C 163.26 134.08 162.17 133.20 160.95 133.33 L 159.74 133.45 C 158.52 133.58 157.64 134.67 157.77 135.89 C 157.89 137.11 158.99 138.00 160.20 137.87 Z M 161.42 137.74 L 162.36 137.63 C 163.58 137.49 164.45 136.40 164.32 135.18 C 164.18 133.97 163.08 133.09 161.87 133.23 L 160.93 133.33 C 159.71 133.47 158.84 134.56 158.97 135.78 C 159.11 137.00 160.21 137.87 161.42 137.74 Z M 162.37 137.63 L 163.40 137.51 C 164.61 137.36 165.48 136.27 165.34 135.05 C 165.19 133.84 164.09 132.97 162.88 133.11 L 161.86 133.23 C 160.64 133.37 159.77 134.47 159.92 135.69 C 160.06 136.90 161.16 137.77 162.37 137.63 Z M 163.41 137.50 L 164.46 137.37 C 165.67 137.23 166.53 136.12 166.39 134.91 C 166.24 133.70 165.14 132.84 163.92 132.99 L 162.87 133.12 C 161.66 133.26 160.80 134.37 160.95 135.58 C 161.09 136.79 162.19 137.65 163.41 137.50 Z M 164.47 137.37 L 165.49 137.24 C 166.70 137.08 167.56 135.98 167.40 134.77 C 167.25 133.56 166.14 132.71 164.93 132.86 L 163.91 132.99 C 162.70 133.15 161.85 134.25 162.00 135.46 C 162.16 136.67 163.26 137.52 164.47 137.37 Z M 165.51 137.23 L 166.50 137.10 C 167.70 136.93 168.55 135.82 168.38 134.62 C 168.22 133.41 167.11 132.57 165.90 132.73 L 164.92 132.87 C 163.71 133.03 162.87 134.14 163.03 135.35 C 163.20 136.55 164.31 137.39 165.51 137.23 Z M 166.54 137.07 L 167.74 136.89 C 168.93 136.70 169.74 135.58 169.56 134.39 C 169.37 133.19 168.25 132.38 167.06 132.57 L 165.86 132.76 C 164.67 132.94 163.85 134.06 164.04 135.25 C 164.23 136.45 165.35 137.26 166.54 137.07 Z M 167.85 136.84 L 168.78 136.64 C 169.94 136.39 170.69 135.24 170.44 134.08 C 170.19 132.91 169.04 132.17 167.88 132.41 L 166.95 132.61 C 165.78 132.86 165.03 134.01 165.28 135.18 C 165.53 136.34 166.68 137.09 167.85 136.84 Z M 168.97 136.56 L 169.73 136.32 C 170.86 135.97 171.48 134.77 171.12 133.64 C 170.77 132.52 169.57 131.90 168.44 132.25 L 167.68 132.49 C 166.56 132.85 165.93 134.05 166.29 135.17 C 166.65 136.30 167.85 136.92 168.97 136.56 Z M 169.99 136.19 L 170.90 135.76 C 171.95 135.27 172.40 134.01 171.90 132.96 C 171.41 131.90 170.15 131.45 169.10 131.95 L 168.19 132.38 C 167.14 132.88 166.69 134.14 167.18 135.19 C 167.68 136.24 168.94 136.69 169.99 136.19 Z M 171.08 135.63 L 171.92 135.12 C 172.90 134.52 173.21 133.24 172.62 132.27 C 172.02 131.29 170.75 130.98 169.77 131.57 L 168.92 132.08 C 167.94 132.68 167.63 133.96 168.23 134.93 C 168.82 135.91 170.10 136.22 171.08 135.63 Z M 171.96 135.06 L 172.23 134.89 C 173.18 134.27 173.45 133.00 172.83 132.05 C 172.21 131.10 170.94 130.83 169.99 131.45 L 169.73 131.62 C 168.78 132.24 168.51 133.51 169.12 134.46 C 169.74 135.41 171.01 135.68 171.96 135.06 Z"
      fill="black"
      fill-rule="nonzero" /><path d="M 138.13 157.50 L 139.16 157.50 C 140.29 157.50 141.22 156.58 141.21 155.44 C 141.21 154.31 140.29 153.39 139.16 153.39 L 138.13 153.39 C 136.99 153.39 136.07 154.31 136.07 155.45 C 136.07 156.58 137.00 157.50 138.13 157.50 Z M 139.17 157.53 L 140.18 157.52 C 141.33 157.52 142.26 156.58 142.25 155.43 C 142.25 154.28 141.31 153.35 140.16 153.36 L 139.15 153.36 C 138.00 153.37 137.07 154.31 137.08 155.46 C 137.08 156.60 138.02 157.53 139.17 157.53 Z M 140.20 157.54 L 141.20 157.53 C 142.36 157.52 143.29 156.56 143.27 155.40 C 143.26 154.24 142.30 153.31 141.14 153.32 L 140.15 153.34 C 138.98 153.35 138.05 154.31 138.07 155.47 C 138.08 156.63 139.04 157.56 140.20 157.54 Z M 141.23 157.55 L 142.19 157.53 C 143.37 157.50 144.29 156.52 144.26 155.34 C 144.23 154.17 143.25 153.24 142.08 153.27 L 141.11 153.30 C 139.94 153.33 139.01 154.31 139.04 155.48 C 139.07 156.66 140.05 157.59 141.23 157.55 Z M 142.23 157.54 L 143.26 157.49 C 144.44 157.44 145.35 156.44 145.30 155.26 C 145.24 154.07 144.24 153.16 143.06 153.21 L 142.04 153.26 C 140.85 153.32 139.94 154.32 140.00 155.50 C 140.05 156.68 141.05 157.60 142.23 157.54 Z M 143.30 157.49 L 144.30 157.43 C 145.48 157.35 146.37 156.32 146.30 155.14 C 146.22 153.96 145.19 153.07 144.01 153.15 L 143.01 153.21 C 141.83 153.29 140.94 154.32 141.02 155.50 C 141.10 156.68 142.12 157.57 143.30 157.49 Z M 144.34 157.43 L 145.32 157.34 C 146.50 157.24 147.38 156.20 147.27 155.01 C 147.17 153.83 146.13 152.96 144.95 153.06 L 143.97 153.15 C 142.79 153.25 141.91 154.29 142.02 155.47 C 142.12 156.65 143.16 157.53 144.34 157.43 Z M 145.36 157.34 L 146.33 157.24 C 147.51 157.11 148.37 156.06 148.25 154.88 C 148.12 153.70 147.07 152.84 145.89 152.96 L 144.91 153.06 C 143.73 153.19 142.88 154.24 143.00 155.42 C 143.12 156.60 144.18 157.46 145.36 157.34 Z M 146.36 157.23 L 147.33 157.12 C 148.51 156.98 149.36 155.92 149.22 154.74 C 149.08 153.56 148.01 152.71 146.83 152.85 L 145.86 152.97 C 144.68 153.10 143.84 154.17 143.98 155.35 C 144.11 156.53 145.18 157.37 146.36 157.23 Z M 147.35 157.12 L 148.34 156.99 C 149.52 156.84 150.35 155.77 150.20 154.59 C 150.05 153.41 148.98 152.58 147.80 152.73 L 146.81 152.85 C 145.64 153.00 144.80 154.08 144.95 155.26 C 145.10 156.43 146.18 157.27 147.35 157.12 Z M 148.36 156.99 L 149.36 156.85 C 150.54 156.70 151.37 155.62 151.21 154.44 C 151.05 153.27 149.97 152.44 148.80 152.60 L 147.79 152.73 C 146.61 152.89 145.79 153.97 145.94 155.15 C 146.10 156.32 147.18 157.15 148.36 156.99 Z M 149.37 156.85 L 150.38 156.71 C 151.55 156.55 152.37 155.47 152.21 154.30 C 152.05 153.12 150.96 152.30 149.79 152.46 L 148.79 152.60 C 147.62 152.76 146.80 153.85 146.96 155.02 C 147.12 156.19 148.20 157.01 149.37 156.85 Z M 150.38 156.70 L 151.38 156.56 C 152.55 156.39 153.36 155.31 153.19 154.15 C 153.03 152.98 151.95 152.17 150.78 152.33 L 149.78 152.48 C 148.62 152.64 147.81 153.72 147.97 154.89 C 148.14 156.05 149.22 156.86 150.38 156.70 Z M 151.39 156.54 L 152.39 156.39 C 153.55 156.22 154.35 155.14 154.17 153.98 C 154.00 152.83 152.92 152.03 151.76 152.20 L 150.77 152.35 C 149.61 152.52 148.81 153.60 148.98 154.76 C 149.16 155.92 150.24 156.72 151.39 156.54 Z M 152.41 156.38 L 153.39 156.22 C 154.54 156.03 155.32 154.95 155.14 153.80 C 154.95 152.65 153.87 151.87 152.72 152.06 L 151.74 152.22 C 150.59 152.40 149.81 153.48 150.00 154.63 C 150.18 155.78 151.26 156.56 152.41 156.38 Z M 153.42 156.19 L 154.39 156.02 C 155.53 155.82 156.28 154.74 156.08 153.60 C 155.88 152.47 154.79 151.71 153.66 151.91 L 152.69 152.08 C 151.56 152.28 150.80 153.37 151.00 154.50 C 151.20 155.64 152.29 156.40 153.42 156.19 Z M 154.42 155.99 L 155.38 155.81 C 156.50 155.59 157.23 154.50 157.01 153.38 C 156.79 152.26 155.70 151.53 154.58 151.75 L 153.63 151.94 C 152.51 152.16 151.78 153.24 152.00 154.36 C 152.22 155.48 153.30 156.21 154.42 155.99 Z M 155.41 155.78 L 156.37 155.57 C 157.48 155.34 158.18 154.25 157.95 153.15 C 157.71 152.05 156.63 151.34 155.53 151.58 L 154.56 151.78 C 153.45 152.02 152.75 153.10 152.98 154.20 C 153.22 155.31 154.30 156.01 155.41 155.78 Z M 156.39 155.54 L 157.40 155.32 C 158.49 155.07 159.17 153.99 158.93 152.90 C 158.68 151.81 157.60 151.13 156.51 151.38 L 155.51 151.60 C 154.42 151.85 153.74 152.93 153.98 154.02 C 154.23 155.11 155.31 155.79 156.39 155.54 Z M 157.41 155.29 L 158.41 155.05 C 159.48 154.80 160.15 153.73 159.89 152.66 C 159.64 151.58 158.57 150.92 157.50 151.17 L 156.50 151.41 C 155.43 151.66 154.77 152.73 155.02 153.80 C 155.27 154.87 156.34 155.54 157.41 155.29 Z M 158.42 155.02 L 159.43 154.78 C 160.48 154.52 161.13 153.46 160.87 152.40 C 160.62 151.35 159.55 150.70 158.50 150.96 L 157.49 151.20 C 156.44 151.46 155.79 152.52 156.04 153.58 C 156.30 154.63 157.36 155.28 158.42 155.02 Z M 159.43 154.75 L 160.42 154.50 C 161.46 154.24 162.09 153.19 161.83 152.15 C 161.57 151.11 160.52 150.48 159.48 150.74 L 158.49 150.99 C 157.45 151.25 156.82 152.30 157.08 153.34 C 157.34 154.38 158.39 155.01 159.43 154.75 Z M 160.43 154.47 L 161.37 154.23 C 162.39 153.96 163.00 152.92 162.74 151.90 C 162.47 150.88 161.43 150.26 160.41 150.53 L 159.48 150.77 C 158.45 151.03 157.84 152.08 158.10 153.10 C 158.37 154.12 159.41 154.73 160.43 154.47 Z M 161.38 154.18 L 162.40 153.90 C 163.40 153.63 163.99 152.61 163.72 151.61 C 163.45 150.62 162.42 150.03 161.43 150.30 L 160.40 150.58 C 159.41 150.84 158.82 151.87 159.09 152.86 C 159.36 153.86 160.38 154.45 161.38 154.18 Z M 162.41 153.83 L 163.39 153.55 C 164.35 153.27 164.90 152.28 164.63 151.33 C 164.35 150.37 163.36 149.82 162.41 150.09 L 161.42 150.37 C 160.47 150.64 159.92 151.64 160.19 152.59 C 160.46 153.55 161.46 154.10 162.41 153.83 Z M 163.39 153.47 L 164.27 153.20 C 165.18 152.93 165.70 151.98 165.43 151.07 C 165.16 150.16 164.20 149.64 163.29 149.91 L 162.41 150.17 C 161.50 150.44 160.98 151.40 161.25 152.31 C 161.52 153.22 162.48 153.74 163.39 153.47 Z M 164.26 153.15 L 164.58 153.05 C 165.46 152.79 165.96 151.86 165.70 150.98 C 165.43 150.10 164.50 149.60 163.62 149.87 L 163.30 149.96 C 162.42 150.23 161.92 151.16 162.19 152.04 C 162.45 152.92 163.38 153.41 164.26 153.15 Z"
      fill="black"
      fill-rule="nonzero" /></svg>