<svg xmlns="http://www.w3.org/2000/svg" width="300" height="300" viewBox="0 0 300 300">
<path d="M 133.50 123.82 L 134.22 124.52 C 134.90 125.20 136.01 125.19 136.68 124.50 C 137.36 123.81 137.35 122.71 136.66 122.03 L 135.94 121.33 C 135.25 120.65 134.15 120.66 133.47 121.35 C 132.80 122.04 132.81 123.14 133.50 123.82 Z M 133.83 124.18 L 134.30 125.02 C 134.80 125.91 135.92 126.22 136.81 125.72 C 137.70 125.23 138.01 124.10 137.52 123.22 L 137.04 122.38 C 136.55 121.49 135.42 121.17 134.53 121.67 C 133.65 122.17 133.33 123.29 133.83 124.18 Z M 134.00 124.18 L 134.03 125.08 C 134.06 126.14 134.94 126.96 136.00 126.93 C 137.05 126.90 137.88 126.02 137.84 124.96 L 137.82 124.06 C 137.78 123.00 136.90 122.18 135.85 122.21 C 134.79 122.24 133.97 123.12 134.00 124.18 Z M 134.08 124.52 L 133.82 125.46 C 133.54 126.49 134.15 127.55 135.18 127.83 C 136.21 128.10 137.26 127.49 137.54 126.47 L 137.80 125.52 C 138.07 124.50 137.46 123.44 136.44 123.16 C 135.41 122.88 134.35 123.49 134.08 124.52 Z M 133.90 125.24 L 133.50 126.23 C 133.10 127.22 133.57 128.34 134.56 128.74 C 135.54 129.14 136.66 128.66 137.06 127.68 L 137.46 126.69 C 137.86 125.70 137.39 124.58 136.40 124.18 C 135.42 123.78 134.30 124.26 133.90 125.24 Z M 133.53 126.16 L 133.10 127.12 C 132.66 128.08 133.09 129.22 134.05 129.66 C 135.02 130.10 136.16 129.67 136.60 128.70 L 137.03 127.75 C 137.47 126.78 137.04 125.65 136.07 125.21 C 135.11 124.77 133.97 125.20 133.53 126.16 Z M 133.11 127.11 L 132.70 128.01 C 132.25 128.97 132.67 130.10 133.63 130.55 C 134.59 130.99 135.73 130.57 136.17 129.61 L 136.59 128.71 C 137.03 127.75 136.61 126.61 135.65 126.17 C 134.69 125.73 133.55 126.15 133.11 127.11 Z M 132.71 128.00 L 132.29 128.90 C 131.85 129.85 132.26 130.99 133.22 131.43 C 134.17 131.87 135.30 131.46 135.75 130.51 L 136.16 129.61 C 136.61 128.66 136.19 127.52 135.24 127.08 C 134.28 126.64 133.15 127.05 132.71 128.00 Z M 132.30 128.90 L 131.88 129.80 C 131.44 130.75 131.84 131.88 132.79 132.32 C 133.74 132.76 134.87 132.35 135.32 131.41 L 135.74 130.51 C 136.18 129.56 135.77 128.43 134.82 127.98 C 133.87 127.54 132.74 127.95 132.30 128.90 Z M 131.89 129.80 L 131.48 130.66 C 131.04 131.61 131.44 132.73 132.39 133.18 C 133.34 133.62 134.46 133.21 134.90 132.27 L 135.31 131.40 C 135.75 130.46 135.34 129.33 134.40 128.89 C 133.45 128.45 132.33 128.85 131.89 129.80 Z M 131.49 130.67 L 131.06 131.58 C 130.62 132.52 131.03 133.64 131.97 134.08 C 132.91 134.52 134.03 134.12 134.47 133.17 L 134.90 132.27 C 135.34 131.32 134.93 130.20 133.99 129.76 C 133.05 129.32 131.93 129.73 131.49 130.67 Z M 131.07 131.58 L 130.63 132.52 C 130.19 133.46 130.59 134.58 131.53 135.02 C 132.47 135.46 133.59 135.05 134.03 134.11 L 134.47 133.17 C 134.90 132.23 134.50 131.11 133.56 130.68 C 132.62 130.24 131.51 130.64 131.07 131.58 Z M 130.63 132.53 L 130.21 133.44 C 129.77 134.37 130.18 135.49 131.11 135.92 C 132.05 136.36 133.16 135.95 133.60 135.02 L 134.02 134.11 C 134.46 133.17 134.05 132.06 133.12 131.62 C 132.18 131.19 131.07 131.59 130.63 132.53 Z M 130.21 133.44 L 129.80 134.33 C 129.36 135.27 129.77 136.38 130.70 136.81 C 131.64 137.24 132.75 136.84 133.18 135.90 L 133.59 135.01 C 134.03 134.08 133.62 132.97 132.69 132.54 C 131.75 132.10 130.64 132.51 130.21 133.44 Z M 129.80 134.33 L 129.38 135.24 C 128.94 136.17 129.35 137.28 130.28 137.71 C 131.21 138.15 132.32 137.74 132.76 136.81 L 133.18 135.90 C 133.61 134.97 133.21 133.86 132.27 133.43 C 131.34 133.00 130.23 133.40 129.80 134.33 Z M 129.38 135.24 L 128.95 136.17 C 128.52 137.10 128.92 138.20 129.85 138.63 C 130.78 139.07 131.89 138.67 132.32 137.74 L 132.75 136.81 C 133.18 135.88 132.78 134.77 131.85 134.34 C 130.92 133.91 129.82 134.31 129.38 135.24 Z M 128.96 136.16 L 128.53 137.08 C 128.09 138.00 128.49 139.11 129.42 139.54 C 130.35 139.98 131.45 139.58 131.89 138.65 L 132.31 137.74 C 132.75 136.81 132.35 135.71 131.42 135.27 C 130.50 134.84 129.39 135.24 128.96 136.16 Z M 128.53 137.07 L 128.11 137.97 C 127.67 138.90 128.07 140.00 128.99 140.44 C 129.92 140.87 131.02 140.48 131.46 139.55 L 131.88 138.65 C 132.32 137.73 131.92 136.63 131.00 136.19 C 130.07 135.75 128.97 136.15 128.53 137.07 Z M 128.12 137.97 L 127.68 138.88 C 127.24 139.80 127.64 140.90 128.56 141.34 C 129.48 141.78 130.58 141.39 131.02 140.46 L 131.45 139.56 C 131.89 138.64 131.50 137.53 130.58 137.10 C 129.66 136.66 128.55 137.05 128.12 137.97 Z M 127.69 138.87 L 127.25 139.78 C 126.81 140.70 127.20 141.80 128.12 142.24 C 129.03 142.68 130.13 142.29 130.58 141.38 L 131.01 140.47 C 131.45 139.55 131.07 138.45 130.15 138.01 C 129.23 137.57 128.13 137.95 127.69 138.87 Z M 127.26 139.77 L 126.82 140.68 C 126.38 141.59 126.76 142.69 127.67 143.14 C 128.58 143.58 129.68 143.20 130.13 142.29 L 130.57 141.38 C 131.01 140.47 130.63 139.37 129.72 138.92 C 128.81 138.48 127.70 138.86 127.26 139.77 Z M 126.83 140.67 L 126.38 141.58 C 125.93 142.49 126.31 143.59 127.22 144.04 C 128.13 144.49 129.23 144.11 129.67 143.20 L 130.12 142.29 C 130.57 141.38 130.19 140.28 129.28 139.84 C 128.37 139.39 127.27 139.76 126.83 140.67 Z M 126.39 141.58 L 125.94 142.48 C 125.49 143.39 125.86 144.48 126.77 144.93 C 127.67 145.38 128.77 145.01 129.22 144.11 L 129.67 143.21 C 130.12 142.30 129.75 141.20 128.84 140.75 C 127.93 140.30 126.84 140.67 126.39 141.58 Z M 125.95 142.48 L 125.50 143.37 C 125.05 144.27 125.42 145.37 126.32 145.82 C 127.22 146.27 128.32 145.90 128.77 145.00 L 129.21 144.11 C 129.66 143.21 129.30 142.11 128.40 141.66 C 127.49 141.21 126.40 141.58 125.95 142.48 Z M 125.51 143.37 L 125.07 144.25 C 124.62 145.14 124.98 146.24 125.88 146.69 C 126.78 147.14 127.87 146.78 128.32 145.88 L 128.76 145.00 C 129.21 144.10 128.85 143.00 127.95 142.55 C 127.05 142.10 125.96 142.47 125.51 143.37 Z M 125.07 144.25 L 124.61 145.17 C 124.16 146.07 124.52 147.16 125.42 147.61 C 126.32 148.06 127.41 147.69 127.86 146.80 L 128.32 145.87 C 128.77 144.98 128.41 143.89 127.51 143.44 C 126.61 142.99 125.52 143.35 125.07 144.25 Z M 124.62 145.17 L 124.16 146.08 C 123.71 146.97 124.07 148.06 124.96 148.51 C 125.86 148.96 126.94 148.60 127.39 147.71 L 127.85 146.80 C 128.30 145.91 127.94 144.82 127.05 144.37 C 126.15 143.92 125.06 144.28 124.62 145.17 Z M 124.17 146.08 L 123.72 146.96 C 123.27 147.85 123.62 148.94 124.51 149.39 C 125.40 149.84 126.49 149.48 126.94 148.59 L 127.39 147.71 C 127.84 146.82 127.48 145.73 126.59 145.28 C 125.70 144.83 124.62 145.19 124.17 146.08 Z M 123.73 146.96 L 123.29 147.81 C 122.84 148.70 123.19 149.78 124.07 150.23 C 124.96 150.69 126.04 150.34 126.49 149.45 L 126.93 148.60 C 127.38 147.71 127.03 146.63 126.15 146.17 C 125.26 145.72 124.18 146.07 123.73 146.96 Z M 123.30 147.81 L 122.82 148.74 C 122.36 149.62 122.70 150.70 123.58 151.16 C 124.46 151.61 125.54 151.27 126.00 150.39 L 126.48 149.46 C 126.94 148.58 126.60 147.50 125.72 147.04 C 124.84 146.58 123.76 146.93 123.30 147.81 Z M 122.83 148.74 L 122.36 149.63 C 121.90 150.50 122.24 151.58 123.11 152.04 C 123.98 152.50 125.06 152.16 125.52 151.29 L 125.99 150.40 C 126.44 149.52 126.11 148.45 125.24 147.99 C 124.36 147.53 123.29 147.86 122.83 148.74 Z M 122.37 149.63 L 121.92 150.48 C 121.46 151.34 121.79 152.42 122.65 152.88 C 123.52 153.34 124.59 153.01 125.05 152.14 L 125.51 151.29 C 125.97 150.42 125.64 149.35 124.77 148.89 C 123.90 148.43 122.83 148.76 122.37 149.63 Z M 121.93 150.48 L 121.46 151.36 C 121.00 152.22 121.32 153.29 122.18 153.75 C 123.04 154.21 124.11 153.88 124.57 153.02 L 125.04 152.14 C 125.50 151.28 125.18 150.21 124.32 149.75 C 123.46 149.29 122.39 149.62 121.93 150.48 Z M 121.47 151.36 L 120.99 152.25 C 120.53 153.10 120.85 154.17 121.70 154.63 C 122.55 155.09 123.62 154.77 124.08 153.91 L 124.56 153.02 C 125.02 152.17 124.70 151.11 123.85 150.65 C 122.99 150.19 121.93 150.50 121.47 151.36 Z M 121.01 152.25 L 120.54 153.11 C 120.08 153.95 120.39 155.01 121.23 155.47 C 122.07 155.93 123.13 155.62 123.59 154.78 L 124.06 153.92 C 124.52 153.07 124.21 152.01 123.37 151.55 C 122.52 151.09 121.47 151.40 121.01 152.25 Z M 120.55 153.11 L 119.98 154.15 C 119.52 154.98 119.82 156.03 120.65 156.49 C 121.49 156.95 122.54 156.65 123.00 155.82 L 123.57 154.78 C 124.04 153.95 123.73 152.89 122.90 152.43 C 122.07 151.97 121.02 152.27 120.55 153.11 Z M 119.96 154.22 L 119.49 155.17 C 119.06 156.01 119.41 157.04 120.25 157.46 C 121.09 157.88 122.12 157.54 122.54 156.70 L 123.02 155.75 C 123.44 154.90 123.10 153.88 122.25 153.45 C 121.41 153.03 120.38 153.37 119.96 154.22 Z M 119.77 157.06 L 119.92 157.23 C 120.54 157.91 121.60 157.97 122.29 157.35 C 122.98 156.73 123.03 155.66 122.41 154.98 L 122.26 154.81 C 121.64 154.12 120.58 154.07 119.89 154.69 C 119.20 155.31 119.15 156.37 119.77 157.06 Z M 122.21 157.36 L 123.05 156.65 C 123.75 156.08 123.84 155.05 123.27 154.36 C 122.69 153.66 121.66 153.57 120.97 154.14 L 120.12 154.85 C 119.43 155.42 119.34 156.45 119.91 157.14 C 120.49 157.84 121.51 157.93 122.21 157.36 Z M 123.11 156.55 L 123.93 155.77 C 124.57 155.17 124.60 154.16 123.99 153.52 C 123.39 152.89 122.38 152.86 121.74 153.46 L 120.92 154.24 C 120.28 154.85 120.25 155.86 120.86 156.49 C 121.46 157.13 122.47 157.16 123.11 156.55 Z M 123.95 155.73 L 124.65 155.03 C 125.27 154.42 125.27 153.42 124.66 152.81 C 124.04 152.19 123.04 152.19 122.43 152.80 L 121.73 153.50 C 121.11 154.12 121.11 155.11 121.72 155.73 C 122.34 156.35 123.33 156.35 123.95 155.73 Z M 124.68 155.00 L 125.37 154.27 C 125.96 153.64 125.94 152.65 125.31 152.05 C 124.68 151.46 123.69 151.48 123.09 152.11 L 122.40 152.84 C 121.81 153.47 121.83 154.46 122.46 155.06 C 123.09 155.65 124.08 155.63 124.68 155.00 Z M 125.40 154.23 L 126.06 153.49 C 126.63 152.84 126.58 151.86 125.93 151.28 C 125.29 150.71 124.30 150.76 123.72 151.41 L 123.06 152.15 C 122.49 152.79 122.54 153.78 123.19 154.36 C 123.83 154.93 124.82 154.88 125.40 154.23 Z M 126.09 153.46 L 126.74 152.68 C 127.29 152.02 127.21 151.04 126.55 150.48 C 125.89 149.93 124.90 150.01 124.34 150.67 L 123.69 151.44 C 123.14 152.10 123.22 153.09 123.88 153.64 C 124.54 154.20 125.53 154.12 126.09 153.46 Z M 126.76 152.65 L 127.39 151.85 C 127.93 151.18 127.82 150.19 127.14 149.66 C 126.47 149.12 125.48 149.24 124.95 149.91 L 124.32 150.71 C 123.78 151.38 123.89 152.36 124.57 152.90 C 125.24 153.44 126.23 153.32 126.76 152.65 Z M 127.42 151.82 L 128.02 151.01 C 128.54 150.32 128.40 149.34 127.71 148.83 C 127.02 148.31 126.04 148.45 125.53 149.14 L 124.92 149.95 C 124.40 150.64 124.54 151.61 125.23 152.13 C 125.93 152.65 126.90 152.51 127.42 151.82 Z M 128.05 150.98 L 128.62 150.18 C 129.12 149.48 128.95 148.50 128.25 148.00 C 127.55 147.50 126.57 147.67 126.07 148.37 L 125.50 149.17 C 125.00 149.87 125.17 150.85 125.87 151.35 C 126.57 151.85 127.55 151.68 128.05 150.98 Z M 128.63 150.16 L 129.21 149.32 C 129.70 148.61 129.51 147.63 128.80 147.15 C 128.09 146.66 127.12 146.84 126.63 147.55 L 126.06 148.39 C 125.57 149.11 125.75 150.08 126.46 150.56 C 127.17 151.05 128.15 150.87 128.63 150.16 Z M 129.22 149.30 L 129.77 148.48 C 130.25 147.76 130.05 146.79 129.34 146.31 C 128.62 145.83 127.65 146.02 127.17 146.74 L 126.62 147.57 C 126.14 148.29 126.33 149.26 127.05 149.74 C 127.77 150.22 128.74 150.02 129.22 149.30 Z M 129.78 148.47 L 130.33 147.64 C 130.80 146.92 130.60 145.94 129.88 145.47 C 129.15 144.99 128.18 145.19 127.71 145.92 L 127.16 146.75 C 126.69 147.47 126.89 148.44 127.61 148.92 C 128.33 149.39 129.30 149.19 129.78 148.47 Z M 130.34 147.63 L 130.88 146.79 C 131.35 146.06 131.14 145.08 130.41 144.61 C 129.68 144.14 128.70 144.35 128.23 145.09 L 127.69 145.93 C 127.22 146.66 127.43 147.63 128.16 148.10 C 128.90 148.57 129.87 148.36 130.34 147.63 Z M 130.92 146.76 L 131.43 145.91 C 131.88 145.16 131.64 144.18 130.89 143.73 C 130.14 143.27 129.16 143.52 128.71 144.27 L 128.20 145.12 C 127.74 145.87 127.98 146.85 128.74 147.30 C 129.49 147.75 130.46 147.51 130.92 146.76 Z M 131.48 145.88 L 131.97 145.01 C 132.41 144.23 132.13 143.24 131.35 142.80 C 130.57 142.36 129.59 142.64 129.15 143.42 L 128.66 144.29 C 128.22 145.07 128.49 146.06 129.27 146.50 C 130.05 146.94 131.04 146.66 131.48 145.88 Z M 132.01 145.04 L 132.50 144.17 C 132.96 143.37 132.68 142.35 131.88 141.90 C 131.08 141.44 130.06 141.72 129.61 142.52 L 129.11 143.39 C 128.66 144.19 128.94 145.21 129.74 145.66 C 130.54 146.12 131.55 145.84 132.01 145.04 Z M 132.53 144.40 L 133.20 143.45 C 133.78 142.64 133.60 141.51 132.78 140.93 C 131.97 140.35 130.84 140.53 130.26 141.35 L 129.58 142.29 C 129.00 143.11 129.19 144.24 130.00 144.82 C 130.81 145.40 131.94 145.21 132.53 144.40 Z M 130.84 144.21 L 131.23 144.41 C 132.23 144.90 133.44 144.49 133.93 143.49 C 134.43 142.49 134.02 141.28 133.02 140.78 L 132.62 140.59 C 131.62 140.09 130.41 140.51 129.92 141.51 C 129.42 142.51 129.84 143.72 130.84 144.21 Z M 130.03 142.86 L 130.13 143.66 C 130.27 144.82 131.33 145.64 132.49 145.49 C 133.65 145.34 134.47 144.29 134.32 143.13 L 134.22 142.33 C 134.07 141.17 133.02 140.35 131.86 140.50 C 130.70 140.64 129.88 141.70 130.03 142.86 Z M 130.09 143.41 L 130.10 144.55 C 130.11 145.72 131.07 146.67 132.25 146.66 C 133.42 146.65 134.37 145.69 134.36 144.52 L 134.35 143.38 C 134.34 142.20 133.38 141.25 132.21 141.26 C 131.03 141.27 130.08 142.23 130.09 143.41 Z M 130.09 144.43 L 130.03 145.67 C 129.98 146.85 130.89 147.85 132.07 147.91 C 133.26 147.96 134.26 147.05 134.32 145.87 L 134.37 144.63 C 134.43 143.45 133.51 142.44 132.33 142.39 C 131.15 142.33 130.14 143.25 130.09 144.43 Z M 130.03 145.59 L 129.94 146.67 C 129.84 147.85 130.73 148.89 131.91 148.99 C 133.10 149.08 134.14 148.20 134.23 147.02 L 134.32 145.94 C 134.42 144.75 133.53 143.72 132.35 143.62 C 131.16 143.52 130.12 144.41 130.03 145.59 Z M 129.94 146.62 L 129.83 147.64 C 129.71 148.82 130.57 149.88 131.76 150.01 C 132.94 150.13 134.00 149.27 134.13 148.08 L 134.23 147.07 C 134.36 145.88 133.50 144.82 132.31 144.70 C 131.13 144.57 130.06 145.43 129.94 146.62 Z M 129.83 147.60 L 129.72 148.54 C 129.58 149.72 130.43 150.80 131.61 150.94 C 132.80 151.08 133.87 150.24 134.01 149.05 L 134.13 148.12 C 134.27 146.93 133.42 145.86 132.24 145.71 C 131.05 145.57 129.98 146.42 129.83 147.60 Z M 129.72 148.52 L 129.59 149.53 C 129.44 150.72 130.28 151.80 131.47 151.95 C 132.66 152.10 133.74 151.26 133.89 150.07 L 134.02 149.07 C 134.17 147.88 133.33 146.80 132.14 146.65 C 130.96 146.50 129.87 147.34 129.72 148.52 Z M 129.59 149.53 L 129.47 150.52 C 129.31 151.71 130.15 152.79 131.34 152.95 C 132.52 153.10 133.61 152.26 133.76 151.07 L 133.89 150.08 C 134.04 148.89 133.20 147.81 132.02 147.65 C 130.83 147.50 129.75 148.34 129.59 149.53 Z M 129.47 150.53 L 129.35 151.43 C 129.20 152.62 130.04 153.70 131.23 153.86 C 132.41 154.01 133.50 153.17 133.65 151.98 L 133.76 151.07 C 133.91 149.88 133.07 148.80 131.89 148.65 C 130.70 148.50 129.62 149.34 129.47 150.53 Z M 129.35 151.44 L 129.23 152.40 C 129.08 153.59 129.93 154.67 131.11 154.82 C 132.30 154.96 133.38 154.12 133.53 152.93 L 133.65 151.97 C 133.79 150.79 132.95 149.70 131.76 149.56 C 130.58 149.41 129.50 150.26 129.35 151.44 Z M 129.23 152.41 L 129.11 153.42 C 128.97 154.61 129.82 155.68 131.01 155.82 C 132.20 155.96 133.27 155.12 133.41 153.93 L 133.53 152.92 C 133.67 151.73 132.82 150.66 131.63 150.52 C 130.45 150.38 129.37 151.23 129.23 152.41 Z M 129.11 153.43 L 129.00 154.40 C 128.87 155.59 129.72 156.66 130.91 156.80 C 132.10 156.93 133.17 156.07 133.31 154.88 L 133.41 153.91 C 133.55 152.73 132.69 151.65 131.50 151.52 C 130.31 151.39 129.24 152.24 129.11 153.43 Z M 129.00 154.42 L 128.90 155.38 C 128.77 156.57 129.64 157.64 130.82 157.76 C 132.01 157.89 133.08 157.03 133.21 155.84 L 133.31 154.87 C 133.43 153.68 132.57 152.61 131.38 152.49 C 130.19 152.36 129.12 153.23 129.00 154.42 Z M 128.89 155.40 L 128.79 156.44 C 128.68 157.64 129.55 158.70 130.74 158.81 C 131.93 158.93 132.99 158.06 133.11 156.86 L 133.21 155.82 C 133.32 154.63 132.45 153.57 131.26 153.45 C 130.07 153.34 129.01 154.21 128.89 155.40 Z M 128.79 156.46 L 128.71 157.42 C 128.60 158.61 129.48 159.67 130.67 159.77 C 131.86 159.88 132.91 159.00 133.02 157.81 L 133.11 156.85 C 133.21 155.66 132.34 154.60 131.14 154.50 C 129.95 154.39 128.90 155.27 128.79 156.46 Z M 128.70 157.43 L 128.62 158.41 C 128.52 159.60 129.40 160.65 130.59 160.75 C 131.79 160.85 132.84 159.97 132.94 158.78 L 133.02 157.80 C 133.12 156.61 132.24 155.56 131.05 155.46 C 129.86 155.35 128.81 156.24 128.70 157.43 Z M 128.62 158.41 L 128.53 159.43 C 128.43 160.63 129.31 161.68 130.51 161.78 C 131.70 161.88 132.75 161.00 132.85 159.80 L 132.94 158.78 C 133.04 157.58 132.16 156.54 130.96 156.43 C 129.77 156.33 128.72 157.22 128.62 158.41 Z M 128.53 159.43 L 128.44 160.45 C 128.34 161.65 129.22 162.70 130.41 162.80 C 131.60 162.91 132.66 162.02 132.76 160.83 L 132.85 159.81 C 132.95 158.62 132.07 157.57 130.88 157.46 C 129.69 157.36 128.64 158.24 128.53 159.43 Z M 128.44 160.45 L 128.36 161.40 C 128.25 162.59 129.13 163.65 130.32 163.75 C 131.51 163.86 132.57 162.98 132.67 161.79 L 132.76 160.84 C 132.87 159.64 131.99 158.59 130.80 158.48 C 129.60 158.38 128.55 159.26 128.44 160.45 Z M 128.36 161.40 L 128.27 162.39 C 128.16 163.58 129.04 164.63 130.24 164.74 C 131.43 164.84 132.48 163.96 132.59 162.77 L 132.67 161.79 C 132.78 160.59 131.90 159.54 130.71 159.44 C 129.52 159.33 128.46 160.21 128.36 161.40 Z M 128.27 162.40 L 128.18 163.42 C 128.08 164.61 128.97 165.66 130.16 165.76 C 131.35 165.86 132.40 164.98 132.50 163.79 L 132.59 162.76 C 132.69 161.57 131.80 160.52 130.61 160.42 C 129.42 160.32 128.37 161.20 128.27 162.40 Z M 128.18 163.44 L 128.10 164.47 C 128.01 165.66 128.90 166.70 130.09 166.80 C 131.29 166.89 132.33 166.00 132.42 164.81 L 132.50 163.77 C 132.60 162.58 131.70 161.54 130.51 161.44 C 129.32 161.35 128.27 162.24 128.18 163.44 Z M 128.10 164.48 L 128.03 165.46 C 127.95 166.66 128.84 167.69 130.04 167.78 C 131.23 167.86 132.27 166.96 132.35 165.77 L 132.42 164.79 C 132.51 163.60 131.61 162.56 130.42 162.48 C 129.22 162.39 128.19 163.29 128.10 164.48 Z M 128.03 165.47 L 127.96 166.47 C 127.88 167.67 128.79 168.70 129.98 168.78 C 131.18 168.86 132.21 167.95 132.29 166.76 L 132.35 165.76 C 132.43 164.57 131.53 163.53 130.34 163.46 C 129.14 163.38 128.11 164.28 128.03 165.47 Z M 127.96 166.48 L 127.90 167.49 C 127.82 168.68 128.73 169.71 129.92 169.79 C 131.12 169.87 132.15 168.96 132.22 167.77 L 132.29 166.75 C 132.36 165.56 131.46 164.53 130.26 164.46 C 129.07 164.38 128.04 165.29 127.96 166.48 Z M 127.90 167.49 L 127.84 168.50 C 127.76 169.70 128.67 170.72 129.86 170.80 C 131.06 170.87 132.08 169.97 132.16 168.77 L 132.22 167.76 C 132.30 166.57 131.39 165.54 130.20 165.47 C 129.00 165.39 127.98 166.30 127.90 167.49 Z M 127.84 168.50 L 127.77 169.52 C 127.70 170.71 128.61 171.74 129.80 171.82 C 130.99 171.89 132.02 170.99 132.09 169.79 L 132.16 168.77 C 132.23 167.58 131.33 166.55 130.13 166.48 C 128.94 166.40 127.91 167.31 127.84 168.50 Z M 127.78 169.52 L 127.71 170.53 C 127.64 171.72 128.54 172.75 129.73 172.83 C 130.92 172.90 131.95 172.00 132.03 170.81 L 132.09 169.80 C 132.17 168.60 131.26 167.58 130.07 167.50 C 128.88 167.42 127.85 168.33 127.78 169.52 Z M 127.71 170.53 L 127.65 171.53 C 127.57 172.72 128.48 173.74 129.67 173.82 C 130.86 173.90 131.88 172.99 131.96 171.80 L 132.02 170.81 C 132.10 169.62 131.20 168.59 130.01 168.51 C 128.82 168.44 127.79 169.34 127.71 170.53 Z M 127.65 171.53 L 127.59 172.51 C 127.51 173.70 128.41 174.72 129.60 174.80 C 130.79 174.88 131.82 173.98 131.89 172.79 L 131.96 171.81 C 132.03 170.62 131.13 169.59 129.94 169.51 C 128.76 169.44 127.73 170.34 127.65 171.53 Z M 127.59 172.51 L 127.53 173.50 C 127.45 174.69 128.35 175.71 129.54 175.79 C 130.72 175.87 131.75 174.97 131.83 173.78 L 131.89 172.79 C 131.97 171.60 131.07 170.57 129.88 170.50 C 128.69 170.42 127.67 171.32 127.59 172.51 Z M 127.53 173.50 L 127.46 174.52 C 127.39 175.70 128.29 176.73 129.47 176.80 C 130.66 176.88 131.68 175.98 131.76 174.80 L 131.82 173.78 C 131.90 172.59 131.00 171.57 129.81 171.49 C 128.63 171.41 127.61 172.31 127.53 173.50 Z M 127.47 174.52 L 127.40 175.53 C 127.33 176.71 128.23 177.73 129.41 177.80 C 130.59 177.88 131.62 176.98 131.69 175.80 L 131.75 174.79 C 131.83 173.61 130.93 172.59 129.75 172.51 C 128.56 172.44 127.54 173.34 127.47 174.52 Z M 127.41 175.53 L 127.35 176.52 C 127.27 177.70 128.17 178.71 129.35 178.79 C 130.54 178.86 131.55 177.96 131.63 176.78 L 131.69 175.79 C 131.76 174.61 130.86 173.59 129.68 173.52 C 128.50 173.45 127.48 174.35 127.41 175.53 Z M 127.35 176.52 L 127.29 177.51 C 127.22 178.68 128.12 179.70 129.30 179.77 C 130.48 179.84 131.49 178.94 131.56 177.76 L 131.62 176.77 C 131.69 175.59 130.79 174.58 129.61 174.51 C 128.43 174.44 127.42 175.34 127.35 176.52 Z M 127.30 177.51 L 127.24 178.56 C 127.17 179.73 128.07 180.74 129.25 180.81 C 130.43 180.87 131.43 179.97 131.50 178.80 L 131.56 177.75 C 131.62 176.58 130.72 175.57 129.55 175.50 C 128.37 175.44 127.36 176.34 127.30 177.51 Z M 127.25 178.57 L 127.19 179.58 C 127.13 180.75 128.03 181.75 129.21 181.81 C 130.38 181.87 131.38 180.97 131.44 179.80 L 131.49 178.79 C 131.55 177.62 130.65 176.62 129.48 176.56 C 128.31 176.50 127.31 177.40 127.25 178.57 Z M 127.20 179.59 L 127.16 180.55 C 127.10 181.72 128.00 182.71 129.17 182.77 C 130.34 182.82 131.33 181.92 131.38 180.76 L 131.43 179.79 C 131.49 178.62 130.58 177.63 129.42 177.57 C 128.25 177.52 127.26 178.42 127.20 179.59 Z M 127.17 180.57 L 127.12 181.57 C 127.07 182.73 127.98 183.72 129.14 183.76 C 130.30 183.81 131.28 182.91 131.33 181.75 L 131.37 180.74 C 131.42 179.58 130.52 178.60 129.36 178.55 C 128.20 178.50 127.21 179.40 127.17 180.57 Z M 127.14 181.59 L 127.10 182.63 C 127.06 183.79 127.96 184.76 129.12 184.80 C 130.27 184.84 131.24 183.93 131.28 182.78 L 131.32 181.73 C 131.36 180.58 130.46 179.61 129.30 179.57 C 128.15 179.53 127.18 180.43 127.14 181.59 Z M 127.11 182.65 L 127.09 183.62 C 127.06 184.76 127.96 185.72 129.11 185.75 C 130.26 185.78 131.21 184.87 131.24 183.73 L 131.27 182.76 C 131.30 181.61 130.39 180.66 129.25 180.63 C 128.10 180.59 127.14 181.50 127.11 182.65 Z M 127.10 183.64 L 127.09 184.60 C 127.07 185.73 127.98 186.67 129.12 186.69 C 130.26 186.71 131.19 185.80 131.21 184.66 L 131.23 183.70 C 131.25 182.56 130.34 181.63 129.20 181.61 C 128.06 181.59 127.12 182.50 127.10 183.64 Z M 127.11 184.71 L 127.15 185.70 C 127.20 186.83 128.15 187.70 129.27 187.66 C 130.40 187.61 131.27 186.66 131.23 185.54 L 131.19 184.55 C 131.14 183.42 130.19 182.55 129.07 182.59 C 127.94 182.64 127.07 183.58 127.11 184.71 Z M 127.22 186.02 L 127.41 186.98 C 127.63 188.07 128.69 188.78 129.78 188.56 C 130.87 188.34 131.58 187.28 131.36 186.19 L 131.16 185.22 C 130.95 184.13 129.88 183.42 128.79 183.64 C 127.70 183.86 127.00 184.93 127.22 186.02 Z M 127.55 187.35 L 127.92 188.22 C 128.34 189.23 129.51 189.71 130.52 189.28 C 131.53 188.86 132.00 187.69 131.58 186.68 L 131.21 185.82 C 130.79 184.80 129.63 184.33 128.62 184.75 C 127.60 185.18 127.13 186.34 127.55 187.35 Z M 128.06 188.43 L 128.56 189.29 C 129.10 190.23 130.29 190.55 131.22 190.01 C 132.16 189.47 132.48 188.28 131.94 187.34 L 131.44 186.48 C 130.90 185.54 129.71 185.22 128.77 185.76 C 127.84 186.30 127.52 187.49 128.06 188.43 Z M 128.65 189.37 L 129.22 190.25 C 129.80 191.13 130.99 191.38 131.88 190.80 C 132.76 190.22 133.01 189.03 132.43 188.14 L 131.85 187.26 C 131.27 186.38 130.08 186.13 129.20 186.71 C 128.31 187.30 128.06 188.49 128.65 189.37 Z M 129.25 190.26 L 129.35 190.41 C 129.94 191.28 131.12 191.51 131.99 190.92 C 132.86 190.34 133.09 189.16 132.50 188.29 L 132.40 188.13 C 131.81 187.26 130.63 187.04 129.76 187.62 C 128.89 188.21 128.67 189.39 129.25 190.26 Z"
      fill="black"
      fill-rule="nonzero" /><path d="M 146.48 131.02 L 147.43 130.92 C 148.49 130.81 149.26 129.87 149.15 128.81 C 149.04 127.76 148.09 126.99 147.04 127.09 L 146.09 127.19 C 145.03 127.30 144.26 128.25 144.37 129.30 C 144.48 130.36 145.42 131.13 146.48 131.02 Z M 147.51 130.95 L 148.48 130.81 C 149.55 130.66 150.30 129.67 150.14 128.60 C 149.99 127.53 149.00 126.78 147.93 126.93 L 146.96 127.07 C 145.89 127.22 145.14 128.21 145.30 129.28 C 145.45 130.35 146.44 131.10 147.51 130.95 Z M 148.63 130.81 L 149.65 130.59 C 150.72 130.36 151.41 129.31 151.17 128.23 C 150.94 127.16 149.89 126.48 148.81 126.71 L 147.79 126.93 C 146.72 127.16 146.03 128.22 146.26 129.29 C 146.50 130.36 147.55 131.04 148.63 130.81 Z M 149.80 130.57 L 150.65 130.32 C 151.71 130.01 152.32 128.89 152.00 127.83 C 151.69 126.77 150.57 126.16 149.51 126.48 L 148.66 126.73 C 147.60 127.04 146.99 128.16 147.31 129.22 C 147.62 130.28 148.74 130.89 149.80 130.57 Z M 150.75 130.29 L 151.62 129.98 C 152.67 129.62 153.22 128.47 152.85 127.42 C 152.48 126.38 151.33 125.83 150.29 126.20 L 149.41 126.51 C 148.37 126.87 147.82 128.02 148.19 129.07 C 148.55 130.11 149.70 130.66 150.75 130.29 Z M 151.67 129.96 L 152.63 129.60 C 153.66 129.20 154.18 128.04 153.78 127.01 C 153.38 125.97 152.22 125.45 151.19 125.85 L 150.24 126.22 C 149.20 126.61 148.68 127.77 149.08 128.81 C 149.48 129.84 150.64 130.36 151.67 129.96 Z M 152.65 129.59 L 153.69 129.18 C 154.72 128.77 155.23 127.60 154.82 126.57 C 154.41 125.54 153.25 125.04 152.21 125.44 L 151.17 125.86 C 150.14 126.27 149.63 127.43 150.04 128.46 C 150.45 129.50 151.62 130.00 152.65 129.59 Z M 153.69 129.18 L 154.64 128.80 C 155.67 128.40 156.18 127.23 155.77 126.20 C 155.36 125.17 154.20 124.66 153.17 125.07 L 152.22 125.44 C 151.19 125.85 150.68 127.02 151.09 128.05 C 151.49 129.08 152.66 129.58 153.69 129.18 Z M 154.63 128.80 L 155.56 128.44 C 156.60 128.04 157.11 126.88 156.70 125.84 C 156.30 124.81 155.14 124.30 154.11 124.71 L 153.18 125.07 C 152.15 125.47 151.64 126.63 152.04 127.66 C 152.44 128.69 153.60 129.20 154.63 128.80 Z M 155.56 128.44 L 156.52 128.07 C 157.55 127.67 158.06 126.51 157.66 125.48 C 157.27 124.45 156.11 123.94 155.08 124.34 L 154.12 124.71 C 153.09 125.10 152.57 126.26 152.97 127.29 C 153.37 128.32 154.53 128.84 155.56 128.44 Z M 156.51 128.07 L 157.47 127.70 C 158.50 127.31 159.01 126.16 158.62 125.13 C 158.23 124.10 157.08 123.58 156.05 123.97 L 155.09 124.34 C 154.06 124.73 153.54 125.88 153.93 126.91 C 154.32 127.94 155.48 128.46 156.51 128.07 Z M 157.46 127.70 L 158.39 127.35 C 159.42 126.96 159.95 125.81 159.56 124.78 C 159.17 123.75 158.02 123.23 156.99 123.62 L 156.06 123.97 C 155.03 124.36 154.50 125.51 154.89 126.54 C 155.28 127.57 156.43 128.09 157.46 127.70 Z M 158.38 127.35 L 159.35 126.99 C 160.38 126.61 160.90 125.47 160.52 124.44 C 160.14 123.41 159.00 122.88 157.97 123.26 L 157.00 123.62 C 155.98 124.00 155.45 125.14 155.83 126.17 C 156.21 127.20 157.35 127.73 158.38 127.35 Z M 159.33 126.98 L 160.36 126.61 C 161.38 126.24 161.91 125.11 161.54 124.09 C 161.17 123.06 160.04 122.53 159.02 122.90 L 157.99 123.28 C 156.97 123.65 156.44 124.77 156.81 125.80 C 157.18 126.82 158.31 127.35 159.33 126.98 Z M 160.33 126.59 L 161.28 126.25 C 162.30 125.90 162.83 124.79 162.47 123.77 C 162.11 122.76 161.00 122.23 159.99 122.59 L 159.04 122.92 C 158.03 123.28 157.50 124.39 157.85 125.40 C 158.21 126.41 159.32 126.95 160.33 126.59 Z M 161.26 126.24 L 162.15 125.93 C 163.15 125.58 163.69 124.49 163.34 123.49 C 163.00 122.49 161.90 121.95 160.90 122.30 L 160.01 122.60 C 159.01 122.95 158.48 124.04 158.82 125.04 C 159.17 126.05 160.26 126.58 161.26 126.24 Z M 162.13 125.91 L 162.99 125.62 C 163.98 125.29 164.52 124.21 164.18 123.22 C 163.85 122.23 162.78 121.70 161.78 122.03 L 160.92 122.32 C 159.93 122.65 159.40 123.73 159.73 124.72 C 160.06 125.71 161.14 126.24 162.13 125.91 Z M 162.96 125.60 L 163.97 125.27 C 164.95 124.95 165.48 123.90 165.16 122.92 C 164.84 121.94 163.79 121.41 162.81 121.73 L 161.81 122.05 C 160.83 122.37 160.30 123.42 160.62 124.40 C 160.93 125.38 161.99 125.92 162.96 125.60 Z M 163.92 125.24 L 164.89 124.95 C 165.85 124.66 166.40 123.64 166.10 122.67 C 165.81 121.71 164.79 121.16 163.82 121.46 L 162.86 121.75 C 161.89 122.05 161.35 123.07 161.65 124.03 C 161.94 124.99 162.96 125.54 163.92 125.24 Z M 164.82 124.93 L 165.75 124.68 C 166.70 124.42 167.26 123.44 167.01 122.49 C 166.75 121.53 165.77 120.97 164.81 121.23 L 163.89 121.48 C 162.94 121.74 162.37 122.72 162.63 123.67 C 162.89 124.62 163.87 125.19 164.82 124.93 Z M 165.66 124.68 L 166.64 124.47 C 167.60 124.26 168.20 123.31 167.99 122.35 C 167.78 121.40 166.83 120.80 165.87 121.01 L 164.90 121.22 C 163.94 121.43 163.34 122.38 163.55 123.34 C 163.76 124.29 164.71 124.89 165.66 124.68 Z M 166.56 124.51 L 167.55 124.34 C 168.53 124.17 169.19 123.25 169.02 122.27 C 168.85 121.29 167.93 120.63 166.95 120.80 L 165.96 120.97 C 164.98 121.13 164.32 122.06 164.49 123.04 C 164.65 124.02 165.58 124.67 166.56 124.51 Z M 167.50 124.39 L 168.46 124.26 C 169.47 124.12 170.17 123.19 170.03 122.19 C 169.90 121.18 168.97 120.48 167.97 120.62 L 167.00 120.75 C 165.99 120.89 165.29 121.81 165.43 122.82 C 165.57 123.82 166.49 124.53 167.50 124.39 Z M 168.45 124.28 L 168.79 124.24 C 169.81 124.11 170.53 123.18 170.40 122.16 C 170.27 121.14 169.34 120.42 168.32 120.55 L 167.98 120.59 C 166.96 120.72 166.24 121.65 166.37 122.67 C 166.50 123.69 167.43 124.41 168.45 124.28 Z"
      fill="black"
      fill-rule="nonzero" /><path d="M 153.70 127.64 L 153.40 128.55 C 153.11 129.43 153.59 130.38 154.47 130.67 C 155.35 130.95 156.29 130.47 156.58 129.59 L 156.88 128.67 C 157.17 127.80 156.69 126.85 155.81 126.56 C 154.93 126.28 153.99 126.76 153.70 127.64 Z M 153.35 128.51 L 153.03 129.45 C 152.72 130.35 153.20 131.34 154.10 131.65 C 155.01 131.96 155.99 131.48 156.30 130.58 L 156.63 129.64 C 156.94 128.73 156.46 127.75 155.55 127.44 C 154.65 127.13 153.66 127.61 153.35 128.51 Z M 153.00 129.39 L 152.63 130.36 C 152.28 131.28 152.75 132.31 153.67 132.66 C 154.59 133.00 155.62 132.54 155.97 131.62 L 156.34 130.64 C 156.69 129.72 156.22 128.69 155.30 128.34 C 154.37 128.00 153.34 128.46 153.00 129.39 Z M 152.63 130.30 L 152.24 131.24 C 151.86 132.16 152.30 133.22 153.22 133.60 C 154.14 133.98 155.20 133.54 155.58 132.62 L 155.97 131.67 C 156.35 130.75 155.91 129.70 154.99 129.32 C 154.07 128.94 153.01 129.38 152.63 130.30 Z M 152.27 131.21 L 151.86 132.15 C 151.46 133.05 151.88 134.11 152.78 134.50 C 153.69 134.90 154.74 134.49 155.14 133.59 L 155.55 132.65 C 155.95 131.75 155.53 130.69 154.63 130.29 C 153.72 129.90 152.67 130.31 152.27 131.21 Z M 151.88 132.13 L 151.49 133.00 C 151.08 133.89 151.48 134.95 152.37 135.35 C 153.26 135.76 154.31 135.37 154.72 134.47 L 155.12 133.60 C 155.52 132.71 155.13 131.66 154.24 131.25 C 153.34 130.84 152.29 131.24 151.88 132.13 Z M 151.50 132.99 L 151.05 133.96 C 150.64 134.85 151.02 135.90 151.91 136.31 C 152.79 136.72 153.85 136.34 154.26 135.45 L 154.71 134.48 C 155.12 133.60 154.73 132.55 153.85 132.13 C 152.96 131.72 151.91 132.11 151.50 132.99 Z M 151.05 133.96 L 150.64 134.83 C 150.23 135.71 150.62 136.77 151.50 137.18 C 152.39 137.59 153.44 137.21 153.85 136.32 L 154.26 135.45 C 154.67 134.57 154.29 133.52 153.40 133.10 C 152.51 132.69 151.46 133.07 151.05 133.96 Z M 150.64 134.84 L 150.24 135.72 C 149.83 136.61 150.23 137.66 151.12 138.06 C 152.01 138.47 153.06 138.07 153.46 137.18 L 153.86 136.31 C 154.27 135.42 153.87 134.37 152.98 133.96 C 152.09 133.56 151.04 133.95 150.64 134.84 Z M 150.23 135.74 L 149.82 136.65 C 149.43 137.55 149.84 138.60 150.73 138.99 C 151.63 139.39 152.68 138.98 153.07 138.08 L 153.48 137.17 C 153.87 136.27 153.46 135.22 152.57 134.83 C 151.67 134.43 150.62 134.84 150.23 135.74 Z M 149.81 136.66 L 149.41 137.58 C 149.02 138.49 149.44 139.53 150.34 139.93 C 151.24 140.32 152.29 139.90 152.68 139.00 L 153.08 138.08 C 153.47 137.17 153.06 136.13 152.16 135.73 C 151.25 135.34 150.21 135.76 149.81 136.66 Z M 149.41 137.58 L 149.01 138.49 C 148.62 139.40 149.03 140.45 149.94 140.84 C 150.84 141.23 151.89 140.82 152.29 139.92 L 152.68 139.00 C 153.08 138.10 152.66 137.05 151.76 136.65 C 150.85 136.26 149.80 136.68 149.41 137.58 Z M 149.01 138.48 L 148.61 139.40 C 148.21 140.30 148.62 141.36 149.52 141.76 C 150.43 142.16 151.48 141.75 151.88 140.85 L 152.29 139.93 C 152.69 139.02 152.28 137.97 151.37 137.57 C 150.47 137.17 149.41 137.57 149.01 138.48 Z M 148.61 139.38 L 148.22 140.25 C 147.81 141.15 148.21 142.21 149.11 142.62 C 150.02 143.03 151.08 142.63 151.49 141.73 L 151.88 140.86 C 152.29 139.96 151.89 138.89 150.98 138.48 C 150.08 138.08 149.02 138.48 148.61 139.38 Z M 148.21 140.24 L 147.80 141.14 C 147.40 142.05 147.80 143.12 148.71 143.53 C 149.62 143.94 150.69 143.53 151.10 142.62 L 151.50 141.73 C 151.91 140.82 151.50 139.75 150.60 139.34 C 149.69 138.93 148.62 139.34 148.21 140.24 Z M 147.79 141.16 L 147.37 142.13 C 146.97 143.05 147.39 144.11 148.31 144.51 C 149.23 144.91 150.29 144.49 150.69 143.57 L 151.11 142.60 C 151.51 141.69 151.09 140.62 150.17 140.22 C 149.25 139.82 148.19 140.24 147.79 141.16 Z M 147.35 142.16 L 147.00 143.01 C 146.62 143.94 147.06 145.00 147.99 145.38 C 148.92 145.76 149.98 145.32 150.36 144.39 L 150.71 143.54 C 151.09 142.61 150.65 141.55 149.72 141.17 C 148.79 140.79 147.73 141.23 147.35 142.16 Z M 146.98 143.05 L 146.62 143.98 C 146.26 144.92 146.74 145.98 147.68 146.33 C 148.62 146.69 149.67 146.22 150.03 145.28 L 150.39 144.35 C 150.74 143.41 150.27 142.35 149.33 142.00 C 148.39 141.64 147.34 142.11 146.98 143.05 Z M 146.60 144.04 L 146.25 145.05 C 145.93 146.00 146.44 147.04 147.39 147.37 C 148.35 147.69 149.39 147.18 149.71 146.23 L 150.06 145.22 C 150.38 144.27 149.87 143.23 148.92 142.90 C 147.96 142.57 146.92 143.08 146.60 144.04 Z M 146.21 145.11 L 145.90 146.15 C 145.61 147.13 146.17 148.16 147.15 148.45 C 148.13 148.74 149.16 148.18 149.45 147.20 L 149.76 146.16 C 150.05 145.18 149.49 144.15 148.51 143.86 C 147.53 143.57 146.50 144.13 146.21 145.11 Z M 145.83 146.25 L 145.59 147.29 C 145.35 148.31 145.98 149.32 146.99 149.56 C 148.01 149.80 149.03 149.17 149.27 148.16 L 149.52 147.11 C 149.76 146.10 149.13 145.08 148.11 144.84 C 147.09 144.60 146.07 145.23 145.83 146.25 Z M 145.50 147.45 L 145.36 148.44 C 145.21 149.50 145.95 150.49 147.01 150.64 C 148.07 150.79 149.06 150.06 149.21 148.99 L 149.35 148.00 C 149.51 146.94 148.77 145.95 147.71 145.80 C 146.64 145.65 145.66 146.38 145.50 147.45 Z M 145.29 148.73 L 145.30 149.61 C 145.30 150.71 146.20 151.59 147.30 151.59 C 148.41 151.58 149.29 150.68 149.29 149.58 L 149.28 148.70 C 149.27 147.60 148.37 146.71 147.27 146.72 C 146.17 146.73 145.28 147.63 145.29 148.73 Z M 145.34 150.20 L 145.64 151.19 C 145.98 152.27 147.12 152.87 148.20 152.54 C 149.28 152.21 149.89 151.06 149.55 149.98 L 149.25 148.99 C 148.91 147.91 147.77 147.30 146.69 147.64 C 145.61 147.97 145.00 149.12 145.34 150.20 Z M 145.78 151.63 L 146.26 152.46 C 146.84 153.46 148.12 153.80 149.12 153.22 C 150.13 152.64 150.47 151.36 149.89 150.36 L 149.41 149.53 C 148.83 148.53 147.55 148.19 146.55 148.77 C 145.55 149.35 145.20 150.63 145.78 151.63 Z M 146.12 152.28 L 146.48 153.09 C 146.97 154.16 148.23 154.65 149.31 154.16 C 150.39 153.68 150.87 152.41 150.38 151.33 L 150.02 150.53 C 149.54 149.45 148.27 148.97 147.20 149.46 C 146.12 149.94 145.64 151.21 146.12 152.28 Z M 146.32 152.64 L 146.50 153.52 C 146.74 154.69 147.88 155.44 149.05 155.20 C 150.21 154.97 150.96 153.83 150.73 152.66 L 150.55 151.78 C 150.31 150.61 149.17 149.86 148.00 150.10 C 146.84 150.34 146.09 151.48 146.32 152.64 Z M 146.46 153.26 L 146.55 154.33 C 146.64 155.51 147.67 156.40 148.86 156.31 C 150.05 156.22 150.94 155.18 150.85 154.00 L 150.77 152.93 C 150.67 151.74 149.64 150.85 148.45 150.94 C 147.26 151.03 146.37 152.07 146.46 153.26 Z M 146.54 154.22 L 146.57 155.27 C 146.60 156.46 147.60 157.40 148.79 157.37 C 149.98 157.33 150.92 156.34 150.88 155.15 L 150.85 154.10 C 150.82 152.91 149.83 151.97 148.64 152.00 C 147.44 152.04 146.51 153.03 146.54 154.22 Z M 146.57 155.23 L 146.58 156.18 C 146.59 157.37 147.56 158.33 148.76 158.32 C 149.95 158.30 150.91 157.33 150.89 156.14 L 150.89 155.19 C 150.87 153.99 149.90 153.04 148.70 153.05 C 147.51 153.06 146.56 154.04 146.57 155.23 Z M 146.58 156.14 L 146.57 157.15 C 146.56 158.35 147.52 159.32 148.71 159.33 C 149.91 159.34 150.88 158.38 150.89 157.19 L 150.89 156.17 C 150.90 154.98 149.94 154.01 148.75 154.00 C 147.56 153.99 146.59 154.95 146.58 156.14 Z M 146.57 157.11 L 146.54 158.16 C 146.51 159.35 147.45 160.34 148.64 160.38 C 149.83 160.41 150.83 159.47 150.86 158.28 L 150.89 157.23 C 150.92 156.04 149.98 155.04 148.79 155.01 C 147.59 154.98 146.60 155.92 146.57 157.11 Z M 146.54 158.11 L 146.49 159.17 C 146.43 160.36 147.35 161.37 148.54 161.43 C 149.73 161.49 150.74 160.58 150.80 159.39 L 150.86 158.33 C 150.92 157.14 150.00 156.12 148.81 156.06 C 147.62 156.00 146.61 156.92 146.54 158.11 Z M 146.50 159.11 L 146.41 160.19 C 146.32 161.37 147.20 162.41 148.39 162.51 C 149.58 162.60 150.62 161.71 150.71 160.52 L 150.80 159.45 C 150.89 158.26 150.00 157.22 148.82 157.13 C 147.63 157.03 146.59 157.92 146.50 159.11 Z M 146.42 160.13 L 146.31 161.17 C 146.19 162.35 147.05 163.41 148.23 163.53 C 149.42 163.66 150.48 162.80 150.60 161.61 L 150.71 160.58 C 150.83 159.39 149.97 158.33 148.78 158.21 C 147.60 158.09 146.54 158.95 146.42 160.13 Z M 146.32 161.13 L 146.20 162.10 C 146.05 163.28 146.89 164.36 148.07 164.50 C 149.25 164.65 150.33 163.81 150.47 162.63 L 150.59 161.65 C 150.74 160.47 149.90 159.40 148.72 159.25 C 147.54 159.11 146.46 159.95 146.32 161.13 Z M 146.20 162.07 L 146.08 162.97 C 145.92 164.14 146.74 165.23 147.92 165.39 C 149.09 165.56 150.18 164.73 150.34 163.56 L 150.47 162.66 C 150.63 161.48 149.81 160.40 148.63 160.24 C 147.45 160.07 146.37 160.90 146.20 162.07 Z M 146.09 162.94 L 145.92 164.01 C 145.75 165.19 146.55 166.28 147.73 166.46 C 148.90 166.64 150.00 165.83 150.17 164.66 L 150.34 163.58 C 150.51 162.41 149.71 161.32 148.53 161.14 C 147.36 160.96 146.26 161.77 146.09 162.94 Z M 145.93 163.99 L 145.77 164.96 C 145.58 166.13 146.37 167.24 147.54 167.43 C 148.71 167.63 149.81 166.83 150.01 165.66 L 150.17 164.69 C 150.36 163.52 149.57 162.41 148.40 162.22 C 147.23 162.02 146.12 162.82 145.93 163.99 Z M 145.77 164.94 L 145.62 165.84 C 145.41 167.01 146.19 168.12 147.36 168.33 C 148.53 168.53 149.64 167.75 149.84 166.59 L 150.00 165.68 C 150.21 164.52 149.43 163.40 148.26 163.20 C 147.09 163.00 145.98 163.78 145.77 164.94 Z M 145.62 165.84 L 145.44 166.81 C 145.24 167.97 146.01 169.09 147.18 169.30 C 148.34 169.51 149.46 168.73 149.66 167.57 L 149.84 166.59 C 150.05 165.43 149.27 164.31 148.11 164.11 C 146.94 163.90 145.83 164.67 145.62 165.84 Z M 145.45 166.81 L 145.27 167.79 C 145.06 168.96 145.83 170.07 147.00 170.28 C 148.16 170.49 149.28 169.71 149.49 168.55 L 149.66 167.57 C 149.87 166.40 149.10 165.29 147.93 165.08 C 146.77 164.87 145.66 165.64 145.45 166.81 Z M 145.27 167.79 L 145.09 168.78 C 144.89 169.94 145.66 171.05 146.82 171.26 C 147.99 171.47 149.10 170.69 149.31 169.53 L 149.48 168.55 C 149.69 167.38 148.92 166.27 147.75 166.06 C 146.59 165.85 145.48 166.63 145.27 167.79 Z M 145.10 168.78 L 144.92 169.76 C 144.72 170.92 145.50 172.03 146.66 172.24 C 147.82 172.44 148.93 171.67 149.14 170.50 L 149.31 169.53 C 149.51 168.36 148.74 167.25 147.57 167.05 C 146.41 166.84 145.30 167.62 145.10 168.78 Z M 144.92 169.77 L 144.75 170.75 C 144.55 171.92 145.33 173.02 146.49 173.22 C 147.65 173.43 148.76 172.65 148.96 171.48 L 149.13 170.50 C 149.34 169.33 148.56 168.23 147.40 168.03 C 146.23 167.82 145.13 168.60 144.92 169.77 Z M 144.76 170.76 L 144.59 171.72 C 144.39 172.88 145.17 173.99 146.33 174.19 C 147.49 174.39 148.59 173.61 148.79 172.45 L 148.96 171.48 C 149.16 170.32 148.38 169.22 147.22 169.02 C 146.06 168.82 144.96 169.60 144.76 170.76 Z M 144.59 171.73 L 144.43 172.67 C 144.24 173.83 145.02 174.93 146.17 175.13 C 147.33 175.32 148.43 174.54 148.63 173.39 L 148.79 172.44 C 148.99 171.28 148.21 170.18 147.05 169.99 C 145.89 169.79 144.79 170.57 144.59 171.73 Z M 144.44 172.68 L 144.27 173.69 C 144.08 174.85 144.86 175.94 146.02 176.13 C 147.17 176.32 148.26 175.54 148.46 174.38 L 148.62 173.38 C 148.81 172.22 148.03 171.13 146.88 170.94 C 145.72 170.75 144.63 171.53 144.44 172.68 Z M 144.28 173.70 L 144.12 174.72 C 143.93 175.87 144.72 176.95 145.87 177.14 C 147.02 177.32 148.10 176.54 148.29 175.38 L 148.45 174.37 C 148.63 173.22 147.85 172.14 146.70 171.95 C 145.55 171.77 144.46 172.55 144.28 173.70 Z M 144.12 174.73 L 143.97 175.71 C 143.80 176.86 144.59 177.93 145.74 178.11 C 146.89 178.28 147.96 177.49 148.13 176.35 L 148.28 175.37 C 148.46 174.22 147.67 173.14 146.52 172.97 C 145.37 172.79 144.30 173.58 144.12 174.73 Z M 143.98 175.74 L 143.84 176.75 C 143.68 177.89 144.48 178.95 145.62 179.11 C 146.77 179.27 147.83 178.47 147.99 177.33 L 148.13 176.32 C 148.29 175.17 147.49 174.11 146.34 173.95 C 145.20 173.79 144.14 174.59 143.98 175.74 Z M 143.84 176.79 L 143.72 177.79 C 143.58 178.94 144.39 179.98 145.54 180.12 C 146.69 180.26 147.73 179.44 147.86 178.29 L 147.99 177.29 C 148.13 176.14 147.31 175.10 146.16 174.96 C 145.02 174.82 143.98 175.64 143.84 176.79 Z M 143.73 177.87 L 143.62 179.13 C 143.52 180.26 144.37 181.27 145.50 181.37 C 146.64 181.46 147.64 180.62 147.74 179.48 L 147.85 178.22 C 147.95 177.08 147.11 176.08 145.97 175.98 C 144.83 175.89 143.83 176.73 143.73 177.87 Z M 143.65 179.33 L 143.66 180.35 C 143.68 181.47 144.60 182.37 145.72 182.35 C 146.84 182.34 147.74 181.42 147.72 180.30 L 147.71 179.28 C 147.70 178.16 146.78 177.26 145.66 177.28 C 144.54 177.29 143.64 178.21 143.65 179.33 Z M 143.98 181.29 L 144.24 181.75 C 144.77 182.70 145.97 183.03 146.92 182.50 C 147.87 181.97 148.20 180.76 147.67 179.82 L 147.41 179.36 C 146.87 178.41 145.67 178.08 144.73 178.61 C 143.78 179.14 143.44 180.34 143.98 181.29 Z M 146.99 182.29 L 147.72 181.78 C 148.55 181.21 148.75 180.07 148.18 179.24 C 147.60 178.42 146.47 178.21 145.64 178.78 L 144.91 179.29 C 144.09 179.86 143.88 181.00 144.45 181.83 C 145.03 182.65 146.17 182.86 146.99 182.29 Z M 147.91 181.41 L 148.37 180.91 C 148.99 180.23 148.95 179.17 148.27 178.55 C 147.59 177.92 146.53 177.97 145.91 178.65 L 145.45 179.16 C 144.82 179.84 144.87 180.89 145.55 181.52 C 146.23 182.14 147.29 182.09 147.91 181.41 Z"
      fill="black"
      fill-rule="nonzero" /><path d="M 153.08 150.16 L 153.04 149.16 C 153.00 148.23 152.22 147.51 151.29 147.54 C 150.36 147.58 149.64 148.36 149.68 149.29 L 149.71 150.29 C 149.75 151.22 150.53 151.94 151.46 151.91 C 152.39 151.87 153.11 151.09 153.08 150.16 Z M 153.11 149.15 L 153.06 148.15 C 153.02 147.18 152.20 146.43 151.24 146.47 C 150.27 146.52 149.52 147.33 149.56 148.30 L 149.61 149.30 C 149.65 150.27 150.47 151.02 151.43 150.97 C 152.40 150.93 153.15 150.11 153.11 149.15 Z M 153.15 148.13 L 153.09 147.11 C 153.04 146.10 152.18 145.32 151.17 145.37 C 150.15 145.42 149.37 146.29 149.43 147.30 L 149.48 148.32 C 149.53 149.33 150.39 150.11 151.41 150.06 C 152.42 150.01 153.20 149.14 153.15 148.13 Z M 153.20 147.27 L 153.24 146.27 C 153.27 145.20 152.43 144.30 151.36 144.26 C 150.29 144.23 149.39 145.07 149.35 146.14 L 149.32 147.14 C 149.28 148.21 150.12 149.11 151.19 149.15 C 152.27 149.19 153.17 148.35 153.20 147.27 Z M 153.24 146.84 L 153.54 145.94 C 153.88 144.86 153.30 143.71 152.22 143.36 C 151.14 143.01 149.99 143.59 149.64 144.67 L 149.35 145.57 C 149.00 146.65 149.59 147.81 150.66 148.15 C 151.74 148.50 152.89 147.92 153.24 146.84 Z M 153.21 146.63 L 153.82 145.88 C 154.56 144.98 154.42 143.66 153.53 142.93 C 152.63 142.20 151.31 142.33 150.58 143.23 L 149.97 143.98 C 149.23 144.87 149.37 146.19 150.26 146.92 C 151.16 147.66 152.48 147.52 153.21 146.63 Z M 153.41 146.26 L 154.25 145.67 C 155.20 145.00 155.42 143.70 154.75 142.75 C 154.09 141.80 152.78 141.58 151.83 142.25 L 150.99 142.84 C 150.05 143.51 149.82 144.81 150.49 145.76 C 151.16 146.71 152.47 146.93 153.41 146.26 Z M 153.88 145.88 L 154.80 145.48 C 155.86 145.01 156.35 143.78 155.88 142.71 C 155.42 141.65 154.18 141.17 153.12 141.64 L 152.20 142.04 C 151.14 142.50 150.66 143.74 151.12 144.80 C 151.59 145.86 152.82 146.34 153.88 145.88 Z M 154.56 145.57 L 155.52 145.28 C 156.63 144.95 157.26 143.78 156.93 142.67 C 156.60 141.56 155.43 140.93 154.32 141.26 L 153.36 141.55 C 152.25 141.87 151.62 143.04 151.95 144.15 C 152.28 145.26 153.45 145.90 154.56 145.57 Z M 155.44 145.30 L 156.40 145.06 C 157.52 144.77 158.20 143.62 157.91 142.50 C 157.62 141.38 156.48 140.71 155.36 140.99 L 154.40 141.24 C 153.28 141.53 152.60 142.67 152.89 143.79 C 153.18 144.91 154.32 145.59 155.44 145.30 Z M 156.44 145.04 L 157.38 144.78 C 158.49 144.47 159.14 143.31 158.83 142.20 C 158.52 141.09 157.37 140.44 156.26 140.75 L 155.32 141.01 C 154.20 141.32 153.55 142.47 153.86 143.59 C 154.17 144.70 155.33 145.35 156.44 145.04 Z M 157.45 144.75 L 158.42 144.44 C 159.52 144.10 160.12 142.93 159.78 141.83 C 159.43 140.73 158.26 140.12 157.16 140.47 L 156.19 140.78 C 155.10 141.12 154.49 142.29 154.83 143.39 C 155.18 144.49 156.35 145.10 157.45 144.75 Z M 158.49 144.41 L 159.41 144.08 C 160.49 143.70 161.05 142.51 160.67 141.43 C 160.29 140.35 159.10 139.79 158.02 140.17 L 157.10 140.50 C 156.02 140.89 155.45 142.07 155.84 143.15 C 156.22 144.23 157.41 144.79 158.49 144.41 Z M 159.46 144.05 L 160.39 143.69 C 161.46 143.28 161.98 142.08 161.57 141.02 C 161.16 139.96 159.97 139.43 158.91 139.84 L 157.97 140.20 C 156.91 140.62 156.38 141.81 156.79 142.87 C 157.20 143.93 158.40 144.46 159.46 144.05 Z M 160.43 143.66 L 161.38 143.27 C 162.42 142.84 162.92 141.65 162.50 140.60 C 162.07 139.55 160.87 139.05 159.82 139.48 L 158.87 139.87 C 157.83 140.30 157.32 141.50 157.75 142.54 C 158.18 143.59 159.38 144.09 160.43 143.66 Z M 161.40 143.25 L 162.34 142.84 C 163.38 142.40 163.85 141.21 163.41 140.17 C 162.97 139.14 161.78 138.66 160.74 139.10 L 159.80 139.51 C 158.77 139.95 158.29 141.14 158.73 142.18 C 159.17 143.21 160.37 143.69 161.40 143.25 Z M 162.35 142.82 L 163.27 142.41 C 164.29 141.97 164.76 140.78 164.31 139.77 C 163.87 138.75 162.68 138.28 161.67 138.73 L 160.74 139.13 C 159.72 139.57 159.26 140.76 159.70 141.78 C 160.14 142.80 161.33 143.26 162.35 142.82 Z M 163.26 142.40 L 164.15 142.01 C 165.16 141.57 165.63 140.40 165.19 139.39 C 164.75 138.38 163.58 137.92 162.57 138.36 L 161.68 138.74 C 160.67 139.18 160.21 140.35 160.64 141.36 C 161.08 142.37 162.25 142.83 163.26 142.40 Z M 164.12 142.00 L 165.08 141.60 C 166.08 141.19 166.56 140.04 166.15 139.03 C 165.73 138.03 164.58 137.55 163.57 137.96 L 162.61 138.36 C 161.60 138.78 161.13 139.93 161.54 140.94 C 161.96 141.94 163.11 142.42 164.12 142.00 Z M 164.98 141.62 L 165.91 141.29 C 166.93 140.93 167.46 139.82 167.10 138.80 C 166.74 137.78 165.62 137.25 164.61 137.61 L 163.67 137.94 C 162.66 138.31 162.13 139.42 162.49 140.44 C 162.85 141.45 163.96 141.98 164.98 141.62 Z M 165.71 141.34 L 166.68 141.10 C 167.72 140.85 168.36 139.81 168.11 138.77 C 167.86 137.73 166.81 137.09 165.77 137.34 L 164.81 137.57 C 163.77 137.82 163.13 138.87 163.38 139.91 C 163.63 140.95 164.67 141.59 165.71 141.34 Z M 166.18 141.16 L 167.18 141.18 C 168.26 141.21 169.14 140.35 169.17 139.28 C 169.19 138.21 168.33 137.32 167.26 137.30 L 166.26 137.28 C 165.19 137.25 164.30 138.11 164.28 139.18 C 164.26 140.26 165.11 141.14 166.18 141.16 Z M 166.03 140.80 L 166.72 141.33 C 167.58 141.98 168.81 141.82 169.47 140.96 C 170.13 140.10 169.96 138.86 169.10 138.21 L 168.41 137.68 C 167.55 137.02 166.32 137.19 165.66 138.05 C 165.00 138.91 165.17 140.14 166.03 140.80 Z M 166.05 140.47 L 166.32 141.18 C 166.71 142.20 167.86 142.71 168.88 142.32 C 169.91 141.93 170.42 140.78 170.03 139.76 L 169.76 139.06 C 169.37 138.03 168.23 137.52 167.20 137.91 C 166.18 138.30 165.66 139.45 166.05 140.47 Z M 166.19 140.78 L 166.35 141.75 C 166.52 142.84 167.54 143.59 168.64 143.42 C 169.73 143.25 170.48 142.22 170.31 141.13 L 170.16 140.16 C 169.99 139.06 168.96 138.31 167.87 138.49 C 166.77 138.66 166.02 139.68 166.19 140.78 Z M 166.30 141.56 L 166.38 142.77 C 166.45 143.89 167.41 144.74 168.53 144.67 C 169.65 144.60 170.50 143.64 170.43 142.52 L 170.35 141.31 C 170.28 140.19 169.32 139.34 168.20 139.41 C 167.08 139.48 166.23 140.45 166.30 141.56 Z M 166.36 142.70 L 166.39 143.81 C 166.42 144.94 167.36 145.83 168.49 145.80 C 169.62 145.76 170.51 144.82 170.48 143.69 L 170.45 142.59 C 170.42 141.46 169.48 140.57 168.34 140.60 C 167.21 140.63 166.32 141.57 166.36 142.70 Z M 166.37 143.78 L 166.39 144.83 C 166.41 145.97 167.34 146.88 168.48 146.86 C 169.62 146.84 170.53 145.90 170.51 144.76 L 170.50 143.72 C 170.48 142.58 169.54 141.67 168.40 141.69 C 167.26 141.70 166.35 142.64 166.37 143.78 Z M 166.37 144.81 L 166.38 145.87 C 166.39 147.02 167.33 147.94 168.48 147.93 C 169.63 147.92 170.55 146.98 170.54 145.83 L 170.53 144.78 C 170.52 143.63 169.58 142.71 168.43 142.72 C 167.29 142.73 166.36 143.67 166.37 144.81 Z M 166.37 145.86 L 166.37 146.87 C 166.37 148.03 167.32 148.96 168.47 148.96 C 169.63 148.96 170.56 148.01 170.56 146.86 L 170.55 145.84 C 170.55 144.69 169.61 143.75 168.45 143.76 C 167.30 143.76 166.36 144.70 166.37 145.86 Z M 166.36 146.87 L 166.36 147.79 C 166.36 148.96 167.30 149.90 168.47 149.90 C 169.63 149.90 170.57 148.95 170.57 147.79 L 170.57 146.86 C 170.57 145.70 169.63 144.76 168.46 144.76 C 167.30 144.76 166.35 145.70 166.36 146.87 Z M 166.34 147.79 L 166.34 148.97 C 166.34 150.14 167.29 151.09 168.46 151.09 C 169.64 151.09 170.58 150.14 170.58 148.97 L 170.58 147.79 C 170.58 146.62 169.64 145.67 168.46 145.67 C 167.29 145.67 166.34 146.62 166.34 147.79 Z M 166.34 148.97 L 166.34 149.95 C 166.34 151.13 167.29 152.08 168.46 152.08 C 169.64 152.08 170.59 151.13 170.59 149.95 L 170.59 148.97 C 170.59 147.79 169.64 146.84 168.46 146.84 C 167.29 146.84 166.34 147.79 166.34 148.97 Z M 166.33 149.95 L 166.33 150.76 C 166.33 151.94 167.29 152.89 168.46 152.89 C 169.64 152.89 170.60 151.94 170.60 150.76 L 170.60 149.95 C 170.60 148.77 169.64 147.82 168.46 147.82 C 167.29 147.82 166.33 148.77 166.33 149.95 Z M 166.32 150.76 L 166.32 151.74 C 166.32 152.92 167.28 153.88 168.46 153.88 C 169.65 153.88 170.61 152.92 170.61 151.74 L 170.61 150.76 C 170.61 149.58 169.65 148.62 168.46 148.62 C 167.28 148.62 166.32 149.58 166.32 150.76 Z M 166.32 151.74 L 166.32 152.74 C 166.32 153.93 167.28 154.89 168.46 154.89 C 169.65 154.89 170.61 153.93 170.61 152.74 L 170.61 151.74 C 170.61 150.55 169.65 149.59 168.46 149.59 C 167.28 149.59 166.32 150.55 166.32 151.74 Z M 166.31 152.74 L 166.31 153.73 C 166.31 154.92 167.27 155.89 168.46 155.89 C 169.65 155.89 170.62 154.92 170.62 153.73 L 170.62 152.75 C 170.62 151.55 169.66 150.59 168.47 150.59 C 167.27 150.59 166.31 151.55 166.31 152.74 Z M 166.30 153.72 L 166.29 154.72 C 166.29 155.91 167.25 156.89 168.44 156.89 C 169.64 156.90 170.61 155.94 170.62 154.75 L 170.63 153.74 C 170.63 152.55 169.67 151.57 168.48 151.57 C 167.28 151.56 166.31 152.52 166.30 153.72 Z M 166.29 154.69 L 166.27 155.69 C 166.25 156.89 167.20 157.88 168.40 157.90 C 169.59 157.92 170.58 156.97 170.61 155.77 L 170.63 154.77 C 170.65 153.58 169.70 152.59 168.50 152.56 C 167.30 152.54 166.31 153.49 166.29 154.69 Z M 166.27 155.67 L 166.24 156.64 C 166.20 157.84 167.14 158.85 168.34 158.88 C 169.54 158.92 170.54 157.97 170.58 156.77 L 170.61 155.80 C 170.65 154.60 169.70 153.60 168.50 153.56 C 167.30 153.52 166.30 154.47 166.27 155.67 Z M 166.23 156.65 L 166.21 157.67 C 166.17 158.88 167.12 159.88 168.32 159.91 C 169.52 159.94 170.52 159.00 170.55 157.79 L 170.58 156.77 C 170.62 155.57 169.67 154.57 168.47 154.54 C 167.27 154.50 166.27 155.45 166.23 156.65 Z M 166.20 157.70 L 166.19 158.70 C 166.17 159.90 167.13 160.89 168.33 160.91 C 169.53 160.93 170.52 159.97 170.54 158.77 L 170.56 157.77 C 170.58 156.57 169.62 155.58 168.42 155.56 C 167.21 155.54 166.22 156.50 166.20 157.70 Z M 166.19 158.72 L 166.18 159.72 C 166.17 160.92 167.14 161.91 168.35 161.91 C 169.55 161.92 170.53 160.95 170.54 159.75 L 170.54 158.74 C 170.55 157.54 169.58 156.56 168.38 156.55 C 167.17 156.55 166.19 157.51 166.19 158.72 Z M 166.18 159.73 L 166.18 160.75 C 166.18 161.95 167.15 162.93 168.35 162.93 C 169.56 162.93 170.54 161.95 170.54 160.75 L 170.54 159.74 C 170.54 158.53 169.56 157.56 168.36 157.55 C 167.16 157.55 166.18 158.53 166.18 159.73 Z M 166.18 160.75 L 166.18 161.75 C 166.18 162.96 167.15 163.94 168.36 163.94 C 169.56 163.94 170.54 162.96 170.54 161.75 L 170.54 160.75 C 170.54 159.54 169.56 158.57 168.36 158.57 C 167.15 158.57 166.18 159.54 166.18 160.75 Z M 166.18 161.75 L 166.18 162.75 C 166.18 163.96 167.15 164.93 168.36 164.93 C 169.56 164.93 170.54 163.96 170.54 162.75 L 170.54 161.75 C 170.54 160.55 169.56 159.57 168.36 159.57 C 167.15 159.57 166.18 160.55 166.18 161.75 Z M 166.18 162.75 L 166.18 163.75 C 166.18 164.95 167.15 165.93 168.36 165.93 C 169.56 165.93 170.54 164.95 170.54 163.75 L 170.54 162.75 C 170.54 161.55 169.56 160.57 168.36 160.57 C 167.15 160.57 166.18 161.55 166.18 162.75 Z M 166.18 163.75 L 166.18 164.74 C 166.18 165.95 167.15 166.92 168.36 166.92 C 169.56 166.92 170.54 165.95 170.54 164.74 L 170.54 163.75 C 170.54 162.55 169.56 161.57 168.36 161.57 C 167.15 161.57 166.18 162.55 166.18 163.75 Z M 166.18 164.74 L 166.18 165.75 C 166.18 166.95 167.15 167.92 168.36 167.92 C 169.56 167.92 170.54 166.95 170.54 165.75 L 170.54 164.74 C 170.54 163.54 169.56 162.57 168.36 162.57 C 167.15 162.57 166.18 163.54 166.18 164.74 Z M 166.18 165.75 L 166.18 166.75 C 166.18 167.95 167.15 168.93 168.36 168.93 C 169.56 168.93 170.54 167.95 170.54 166.75 L 170.54 165.75 C 170.54 164.54 169.56 163.57 168.36 163.57 C 167.15 163.57 166.18 164.54 166.18 165.75 Z M 166.18 166.75 L 166.18 167.76 C 166.18 168.96 167.16 169.94 168.36 169.94 C 169.56 169.94 170.53 168.96 170.53 167.76 L 170.53 166.75 C 170.53 165.55 169.56 164.58 168.36 164.58 C 167.16 164.58 166.18 165.55 166.18 166.75 Z M 166.19 167.76 L 166.19 168.77 C 166.19 169.96 167.16 170.93 168.36 170.93 C 169.55 170.93 170.52 169.96 170.52 168.77 L 170.52 167.76 C 170.52 166.57 169.55 165.60 168.36 165.60 C 167.16 165.60 166.19 166.57 166.19 167.76 Z M 166.20 168.77 L 166.20 169.76 C 166.20 170.95 167.17 171.91 168.36 171.91 C 169.55 171.91 170.51 170.95 170.51 169.76 L 170.51 168.77 C 170.51 167.57 169.55 166.61 168.36 166.61 C 167.17 166.61 166.20 167.57 166.20 168.77 Z M 166.21 169.76 L 166.21 170.78 C 166.21 171.97 167.17 172.93 168.36 172.93 C 169.54 172.93 170.50 171.97 170.50 170.78 L 170.50 169.76 C 170.50 168.57 169.54 167.61 168.36 167.61 C 167.17 167.61 166.21 168.57 166.21 169.76 Z M 166.22 170.78 L 166.22 171.77 C 166.22 172.95 167.18 173.91 168.36 173.91 C 169.54 173.91 170.49 172.95 170.49 171.77 L 170.49 170.78 C 170.49 169.60 169.54 168.65 168.36 168.65 C 167.18 168.65 166.22 169.60 166.22 170.78 Z M 166.23 171.77 L 166.23 172.71 C 166.23 173.89 167.18 174.84 168.36 174.84 C 169.53 174.84 170.48 173.89 170.48 172.71 L 170.48 171.77 C 170.48 170.60 169.53 169.65 168.36 169.65 C 167.18 169.65 166.23 170.60 166.23 171.77 Z M 166.25 172.71 L 166.25 173.66 C 166.25 174.82 167.19 175.77 168.36 175.77 C 169.52 175.77 170.46 174.82 170.46 173.66 L 170.46 172.71 C 170.46 171.55 169.52 170.61 168.36 170.61 C 167.19 170.61 166.25 171.55 166.25 172.71 Z M 166.27 173.66 L 166.27 174.72 C 166.27 175.87 167.21 176.80 168.36 176.80 C 169.51 176.80 170.44 175.87 170.44 174.72 L 170.44 173.66 C 170.44 172.51 169.51 171.58 168.36 171.58 C 167.21 171.58 166.27 172.51 166.27 173.66 Z M 166.29 174.73 L 166.30 175.73 C 166.30 176.87 167.23 177.79 168.37 177.79 C 169.51 177.78 170.43 176.85 170.42 175.71 L 170.42 174.71 C 170.42 173.57 169.49 172.65 168.35 172.66 C 167.21 172.66 166.29 173.59 166.29 174.73 Z M 166.32 175.81 L 166.37 176.83 C 166.41 177.96 167.36 178.83 168.49 178.79 C 169.61 178.74 170.49 177.79 170.44 176.66 L 170.40 175.64 C 170.35 174.51 169.40 173.64 168.28 173.68 C 167.15 173.73 166.28 174.68 166.32 175.81 Z M 166.40 177.00 L 166.53 178.01 C 166.67 179.11 167.67 179.90 168.78 179.76 C 169.89 179.62 170.67 178.61 170.53 177.51 L 170.41 176.50 C 170.27 175.39 169.26 174.61 168.15 174.75 C 167.05 174.88 166.26 175.89 166.40 177.00 Z M 166.62 178.31 L 166.89 179.27 C 167.20 180.32 168.30 180.93 169.35 180.63 C 170.41 180.33 171.02 179.23 170.72 178.17 L 170.44 177.21 C 170.14 176.15 169.04 175.54 167.98 175.85 C 166.93 176.15 166.32 177.25 166.62 178.31 Z M 167.09 179.63 L 167.57 180.52 C 168.07 181.47 169.25 181.82 170.19 181.32 C 171.14 180.81 171.50 179.64 170.99 178.69 L 170.52 177.80 C 170.01 176.86 168.84 176.50 167.89 177.01 C 166.95 177.51 166.59 178.69 167.09 179.63 Z M 167.78 180.74 L 168.37 181.52 C 169.00 182.35 170.18 182.51 171.01 181.89 C 171.83 181.26 172.00 180.08 171.37 179.25 L 170.78 178.47 C 170.15 177.64 168.97 177.48 168.14 178.11 C 167.32 178.73 167.15 179.91 167.78 180.74 Z M 168.48 181.58 L 168.86 182.03 C 169.52 182.80 170.67 182.89 171.44 182.23 C 172.21 181.57 172.30 180.41 171.65 179.64 L 171.26 179.19 C 170.60 178.42 169.45 178.33 168.68 178.99 C 167.91 179.65 167.82 180.81 168.48 181.58 Z"
      fill="black"
      fill-rule="nonzero" /><path d="M 150.79 163.50 L 151.81 163.53 C 152.87 163.56 153.75 162.73 153.78 161.67 C 153.80 160.62 152.97 159.74 151.92 159.71 L 150.89 159.68 C 149.84 159.66 148.96 160.49 148.93 161.54 C 148.90 162.60 149.73 163.48 150.79 163.50 Z M 151.92 163.61 L 152.92 163.58 C 154.01 163.55 154.88 162.64 154.85 161.54 C 154.82 160.45 153.91 159.58 152.81 159.61 L 151.81 159.64 C 150.72 159.66 149.85 160.58 149.88 161.67 C 149.91 162.77 150.82 163.63 151.92 163.61 Z M 153.15 163.63 L 154.11 163.49 C 155.24 163.34 156.02 162.30 155.86 161.17 C 155.71 160.05 154.67 159.27 153.54 159.42 L 152.58 159.56 C 151.46 159.72 150.67 160.76 150.83 161.88 C 150.99 163.00 152.03 163.79 153.15 163.63 Z M 154.43 163.46 L 155.38 163.17 C 156.48 162.84 157.11 161.67 156.77 160.57 C 156.44 159.47 155.28 158.84 154.17 159.18 L 153.22 159.46 C 152.12 159.80 151.50 160.96 151.83 162.06 C 152.16 163.17 153.33 163.79 154.43 163.46 Z M 155.58 163.10 L 156.50 162.71 C 157.56 162.27 158.06 161.05 157.62 159.99 C 157.18 158.92 155.96 158.42 154.89 158.87 L 153.97 159.25 C 152.91 159.69 152.41 160.91 152.85 161.98 C 153.30 163.04 154.52 163.54 155.58 163.10 Z M 156.55 162.69 L 157.46 162.28 C 158.50 161.81 158.97 160.58 158.50 159.53 C 158.03 158.48 156.80 158.01 155.75 158.48 L 154.84 158.89 C 153.80 159.36 153.33 160.59 153.80 161.64 C 154.27 162.69 155.50 163.16 156.55 162.69 Z M 157.43 162.28 L 158.34 161.89 C 159.39 161.43 159.87 160.21 159.41 159.16 C 158.96 158.11 157.74 157.63 156.69 158.09 L 155.78 158.48 C 154.73 158.94 154.25 160.16 154.70 161.21 C 155.16 162.26 156.38 162.74 157.43 162.28 Z M 158.30 161.89 L 159.24 161.50 C 160.29 161.07 160.79 159.86 160.35 158.81 C 159.91 157.76 158.71 157.26 157.66 157.69 L 156.72 158.08 C 155.67 158.52 155.17 159.73 155.61 160.78 C 156.04 161.83 157.25 162.33 158.30 161.89 Z M 159.20 161.50 L 160.11 161.14 C 161.16 160.72 161.67 159.53 161.26 158.48 C 160.84 157.43 159.65 156.92 158.60 157.34 L 157.69 157.70 C 156.64 158.11 156.13 159.30 156.54 160.35 C 156.96 161.40 158.15 161.92 159.20 161.50 Z M 160.06 161.13 L 160.97 160.79 C 162.02 160.40 162.55 159.24 162.16 158.19 C 161.76 157.14 160.60 156.61 159.55 157.00 L 158.65 157.34 C 157.60 157.74 157.07 158.90 157.46 159.95 C 157.85 160.99 159.02 161.53 160.06 161.13 Z M 160.92 160.78 L 161.88 160.45 C 162.92 160.09 163.47 158.95 163.11 157.91 C 162.75 156.87 161.61 156.32 160.57 156.68 L 159.61 157.01 C 158.56 157.38 158.01 158.51 158.38 159.55 C 158.74 160.60 159.88 161.15 160.92 160.78 Z M 161.83 160.43 L 162.80 160.12 C 163.84 159.79 164.41 158.68 164.08 157.65 C 163.75 156.62 162.64 156.05 161.61 156.38 L 160.63 156.69 C 159.59 157.02 159.02 158.13 159.36 159.16 C 159.69 160.20 160.79 160.77 161.83 160.43 Z M 162.75 160.09 L 163.71 159.81 C 164.72 159.51 165.31 158.44 165.00 157.42 C 164.70 156.40 163.63 155.82 162.61 156.12 L 161.66 156.41 C 160.64 156.71 160.06 157.78 160.36 158.80 C 160.66 159.81 161.73 160.40 162.75 160.09 Z M 163.66 159.78 L 164.64 159.51 C 165.64 159.24 166.23 158.20 165.95 157.20 C 165.68 156.20 164.65 155.62 163.65 155.89 L 162.67 156.16 C 161.67 156.43 161.08 157.46 161.35 158.46 C 161.62 159.46 162.66 160.05 163.66 159.78 Z M 164.59 159.47 L 165.56 159.23 C 166.54 158.98 167.14 157.99 166.89 157.01 C 166.65 156.03 165.65 155.44 164.67 155.68 L 163.70 155.92 C 162.72 156.17 162.12 157.16 162.37 158.14 C 162.61 159.12 163.61 159.72 164.59 159.47 Z M 165.50 159.19 L 166.51 158.96 C 167.47 158.75 168.07 157.80 167.86 156.84 C 167.64 155.89 166.69 155.28 165.74 155.50 L 164.73 155.72 C 163.77 155.94 163.17 156.88 163.38 157.84 C 163.60 158.80 164.55 159.40 165.50 159.19 Z M 166.46 158.91 L 167.44 158.71 C 168.37 158.53 168.98 157.63 168.79 156.70 C 168.61 155.77 167.70 155.17 166.78 155.35 L 165.79 155.55 C 164.86 155.73 164.26 156.64 164.44 157.56 C 164.63 158.49 165.53 159.10 166.46 158.91 Z M 167.41 158.66 L 168.37 158.48 C 169.27 158.32 169.86 157.46 169.70 156.56 C 169.53 155.67 168.67 155.07 167.78 155.24 L 166.81 155.41 C 165.92 155.58 165.33 156.43 165.49 157.33 C 165.65 158.23 166.51 158.82 167.41 158.66 Z M 168.35 158.43 L 168.92 158.33 C 169.79 158.18 170.37 157.35 170.22 156.48 C 170.06 155.61 169.23 155.03 168.37 155.18 L 167.80 155.29 C 166.93 155.44 166.35 156.27 166.50 157.14 C 166.65 158.00 167.48 158.58 168.35 158.43 Z"
      fill="black"
      fill-rule="nonzero" /><path d="M 149.33 185.71 L 150.27 185.35 C 151.24 184.98 151.73 183.89 151.36 182.91 C 150.98 181.94 149.89 181.45 148.92 181.83 L 147.99 182.18 C 147.01 182.55 146.52 183.65 146.90 184.62 C 147.27 185.59 148.36 186.08 149.33 185.71 Z M 150.28 185.42 L 151.21 185.07 C 152.23 184.69 152.74 183.57 152.36 182.56 C 151.99 181.54 150.86 181.03 149.85 181.41 L 148.91 181.76 C 147.90 182.13 147.38 183.26 147.76 184.27 C 148.14 185.28 149.27 185.80 150.28 185.42 Z M 151.21 185.15 L 152.15 184.81 C 153.20 184.44 153.75 183.28 153.38 182.23 C 153.01 181.17 151.85 180.62 150.80 181.00 L 149.85 181.33 C 148.80 181.71 148.25 182.86 148.62 183.92 C 149.00 184.97 150.15 185.52 151.21 185.15 Z M 152.12 184.87 L 153.06 184.56 C 154.14 184.21 154.73 183.04 154.37 181.95 C 154.02 180.86 152.85 180.27 151.76 180.63 L 150.83 180.94 C 149.74 181.30 149.15 182.47 149.51 183.55 C 149.86 184.64 151.03 185.23 152.12 184.87 Z M 153.01 184.58 L 153.95 184.30 C 155.05 183.97 155.67 182.81 155.33 181.71 C 155.00 180.61 153.84 179.99 152.74 180.33 L 151.81 180.61 C 150.71 180.94 150.09 182.10 150.42 183.20 C 150.76 184.30 151.91 184.92 153.01 184.58 Z M 153.91 184.30 L 154.88 184.02 C 155.97 183.71 156.61 182.56 156.29 181.47 C 155.98 180.37 154.84 179.74 153.74 180.05 L 152.78 180.33 C 151.68 180.64 151.05 181.78 151.36 182.88 C 151.68 183.98 152.82 184.61 153.91 184.30 Z M 154.86 184.01 L 155.85 183.74 C 156.94 183.43 157.58 182.30 157.28 181.21 C 156.98 180.12 155.85 179.48 154.76 179.78 L 153.76 180.06 C 152.67 180.36 152.03 181.49 152.33 182.58 C 152.64 183.68 153.76 184.32 154.86 184.01 Z M 155.84 183.72 L 156.85 183.44 C 157.93 183.15 158.57 182.03 158.27 180.95 C 157.97 179.86 156.86 179.23 155.78 179.53 L 154.77 179.80 C 153.69 180.10 153.05 181.22 153.35 182.30 C 153.64 183.38 154.76 184.02 155.84 183.72 Z M 156.85 183.42 L 157.85 183.14 C 158.91 182.85 159.54 181.74 159.25 180.68 C 158.95 179.61 157.85 178.98 156.78 179.27 L 155.78 179.55 C 154.71 179.84 154.09 180.95 154.38 182.02 C 154.67 183.08 155.78 183.71 156.85 183.42 Z M 157.85 183.12 L 158.79 182.85 C 159.84 182.56 160.46 181.47 160.16 180.41 C 159.87 179.36 158.78 178.74 157.72 179.04 L 156.78 179.30 C 155.73 179.60 155.11 180.69 155.41 181.74 C 155.70 182.79 156.79 183.41 157.85 183.12 Z M 158.80 182.82 L 159.76 182.54 C 160.80 182.24 161.39 181.16 161.09 180.13 C 160.80 179.09 159.72 178.50 158.68 178.80 L 157.72 179.07 C 156.68 179.37 156.09 180.45 156.39 181.48 C 156.68 182.52 157.76 183.11 158.80 182.82 Z M 159.77 182.48 L 160.76 182.18 C 161.76 181.87 162.32 180.82 162.02 179.82 C 161.71 178.82 160.66 178.25 159.66 178.56 L 158.67 178.85 C 157.67 179.16 157.11 180.22 157.41 181.22 C 157.72 182.22 158.77 182.78 159.77 182.48 Z M 160.76 182.11 L 161.64 181.83 C 162.60 181.52 163.13 180.49 162.82 179.53 C 162.52 178.57 161.49 178.04 160.52 178.35 L 159.65 178.63 C 158.69 178.93 158.16 179.96 158.47 180.92 C 158.77 181.88 159.80 182.42 160.76 182.11 Z M 161.63 181.77 L 162.41 181.52 C 163.34 181.22 163.85 180.21 163.54 179.28 C 163.24 178.35 162.23 177.84 161.30 178.15 L 160.53 178.40 C 159.60 178.71 159.09 179.71 159.39 180.64 C 159.70 181.57 160.70 182.08 161.63 181.77 Z M 162.42 181.48 L 163.30 181.17 C 164.20 180.86 164.69 179.88 164.38 178.97 C 164.07 178.07 163.08 177.58 162.18 177.89 L 161.29 178.19 C 160.39 178.50 159.90 179.49 160.21 180.40 C 160.52 181.30 161.51 181.79 162.42 181.48 Z M 163.31 181.13 L 164.44 180.72 C 165.32 180.40 165.78 179.43 165.46 178.55 C 165.14 177.67 164.17 177.21 163.29 177.53 L 162.16 177.94 C 161.28 178.26 160.82 179.23 161.14 180.11 C 161.46 180.99 162.43 181.45 163.31 181.13 Z M 164.45 180.69 L 165.28 180.38 C 166.14 180.05 166.58 179.09 166.26 178.23 C 165.93 177.36 164.97 176.93 164.11 177.25 L 163.28 177.56 C 162.41 177.89 161.98 178.85 162.30 179.71 C 162.63 180.57 163.59 181.01 164.45 180.69 Z M 165.29 180.36 L 166.15 180.03 C 167.00 179.70 167.43 178.74 167.11 177.89 C 166.78 177.04 165.82 176.61 164.97 176.94 L 164.10 177.27 C 163.25 177.59 162.82 178.55 163.15 179.40 C 163.48 180.26 164.43 180.68 165.29 180.36 Z M 166.15 180.01 L 167.09 179.65 C 167.94 179.32 168.36 178.37 168.03 177.53 C 167.70 176.68 166.75 176.26 165.91 176.59 L 164.97 176.95 C 164.12 177.28 163.70 178.23 164.03 179.07 C 164.36 179.92 165.31 180.34 166.15 180.01 Z M 167.09 179.64 L 168.08 179.25 C 168.92 178.92 169.33 177.98 169.01 177.14 C 168.68 176.30 167.74 175.89 166.90 176.22 L 165.91 176.60 C 165.07 176.93 164.66 177.87 164.98 178.71 C 165.31 179.55 166.25 179.96 167.09 179.64 Z M 168.08 179.24 L 169.10 178.84 C 169.93 178.51 170.34 177.58 170.02 176.75 C 169.70 175.92 168.76 175.50 167.93 175.83 L 166.90 176.23 C 166.07 176.55 165.66 177.49 165.99 178.32 C 166.31 179.15 167.25 179.56 168.08 179.24 Z M 169.10 178.83 L 169.62 178.62 C 170.45 178.30 170.85 177.37 170.53 176.55 C 170.21 175.72 169.28 175.31 168.45 175.64 L 167.93 175.84 C 167.11 176.16 166.70 177.09 167.02 177.92 C 167.34 178.74 168.27 179.15 169.10 178.83 Z"
      fill="black"
      fill-rule="nonzero" /></svg>