<svg xmlns="http://www.w3.org/2000/svg" width="300" height="300" viewBox="0 0 300 300">
<path d="M 143.93 104.69 L 144.57 105.48 C 145.17 106.21 146.24 106.32 146.97 105.73 C 147.70 105.13 147.80 104.06 147.21 103.33 L 146.56 102.54 C 145.97 101.81 144.90 101.70 144.17 102.30 C 143.44 102.89 143.33 103.96 143.93 104.69 Z M 144.38 105.41 L 144.92 106.23 C 145.47 107.06 146.60 107.29 147.43 106.74 C 148.27 106.19 148.50 105.07 147.95 104.23 L 147.40 103.41 C 146.85 102.57 145.73 102.34 144.89 102.90 C 144.06 103.45 143.83 104.57 144.38 105.41 Z M 144.69 105.94 L 145.01 106.73 C 145.40 107.69 146.50 108.16 147.46 107.76 C 148.43 107.37 148.89 106.27 148.50 105.31 L 148.18 104.52 C 147.79 103.56 146.69 103.09 145.73 103.48 C 144.76 103.88 144.30 104.98 144.69 105.94 Z M 144.88 106.37 L 145.05 107.27 C 145.25 108.31 146.24 108.99 147.28 108.79 C 148.31 108.60 148.99 107.60 148.80 106.57 L 148.63 105.67 C 148.43 104.63 147.44 103.95 146.40 104.15 C 145.37 104.34 144.69 105.34 144.88 106.37 Z M 145.02 107.06 L 145.11 108.27 C 145.19 109.32 146.11 110.11 147.16 110.03 C 148.21 109.95 149.00 109.03 148.92 107.98 L 148.83 106.77 C 148.75 105.72 147.83 104.93 146.78 105.01 C 145.73 105.09 144.94 106.01 145.02 107.06 Z M 145.10 108.20 L 145.14 109.15 C 145.18 110.21 146.07 111.03 147.13 110.99 C 148.19 110.95 149.01 110.06 148.97 109.00 L 148.93 108.04 C 148.89 106.99 148.00 106.16 146.94 106.21 C 145.88 106.25 145.06 107.14 145.10 108.20 Z M 145.14 109.12 L 145.16 110.16 C 145.19 111.21 146.06 112.05 147.12 112.03 C 148.18 112.00 149.02 111.13 148.99 110.07 L 148.97 109.03 C 148.95 107.97 148.07 107.13 147.01 107.16 C 145.95 107.18 145.11 108.06 145.14 109.12 Z M 145.16 110.13 L 145.17 111.18 C 145.18 112.24 146.04 113.10 147.10 113.09 C 148.16 113.08 149.01 112.21 149.01 111.15 L 149.00 110.10 C 148.99 109.04 148.12 108.18 147.06 108.19 C 146.00 108.20 145.15 109.07 145.16 110.13 Z M 145.17 111.15 L 145.16 112.15 C 145.14 113.22 146.00 114.08 147.06 114.09 C 148.12 114.11 148.99 113.25 149.00 112.19 L 149.01 111.19 C 149.02 110.13 148.17 109.26 147.11 109.25 C 146.05 109.24 145.18 110.09 145.17 111.15 Z M 145.16 112.10 L 145.11 113.19 C 145.07 114.25 145.89 115.15 146.95 115.19 C 148.01 115.23 148.91 114.41 148.95 113.35 L 149.00 112.25 C 149.04 111.19 148.21 110.30 147.15 110.25 C 146.09 110.21 145.20 111.04 145.16 112.10 Z M 145.12 113.08 L 145.02 114.13 C 144.91 115.19 145.69 116.13 146.74 116.23 C 147.80 116.33 148.74 115.56 148.84 114.50 L 148.94 113.46 C 149.05 112.40 148.27 111.46 147.22 111.36 C 146.16 111.25 145.22 112.03 145.12 113.08 Z M 145.04 114.00 L 144.89 114.86 C 144.71 115.90 145.41 116.90 146.46 117.07 C 147.51 117.25 148.50 116.55 148.68 115.50 L 148.82 114.64 C 149.00 113.59 148.30 112.60 147.25 112.42 C 146.21 112.25 145.21 112.95 145.04 114.00 Z M 144.91 114.75 L 144.71 115.65 C 144.47 116.68 145.11 117.71 146.15 117.95 C 147.18 118.18 148.21 117.54 148.45 116.51 L 148.65 115.61 C 148.89 114.57 148.25 113.54 147.21 113.31 C 146.18 113.07 145.15 113.72 144.91 114.75 Z M 144.73 115.57 L 144.46 116.53 C 144.18 117.55 144.78 118.61 145.81 118.89 C 146.83 119.17 147.88 118.57 148.16 117.54 L 148.43 116.58 C 148.71 115.56 148.11 114.51 147.08 114.23 C 146.06 113.95 145.01 114.55 144.73 115.57 Z M 144.49 116.46 L 144.18 117.43 C 143.86 118.44 144.42 119.51 145.42 119.83 C 146.43 120.15 147.51 119.60 147.83 118.59 L 148.14 117.62 C 148.46 116.61 147.90 115.53 146.89 115.21 C 145.89 114.89 144.81 115.45 144.49 116.46 Z M 144.21 117.36 L 143.86 118.31 C 143.51 119.30 144.02 120.40 145.02 120.76 C 146.01 121.11 147.11 120.60 147.47 119.60 L 147.81 118.65 C 148.16 117.66 147.65 116.56 146.65 116.21 C 145.66 115.85 144.56 116.37 144.21 117.36 Z M 143.89 118.25 L 143.52 119.18 C 143.13 120.16 143.61 121.27 144.58 121.66 C 145.56 122.05 146.67 121.57 147.07 120.59 L 147.44 119.66 C 147.83 118.69 147.35 117.57 146.37 117.18 C 145.39 116.79 144.28 117.27 143.89 118.25 Z M 143.56 119.11 L 143.14 120.04 C 142.72 121.00 143.15 122.12 144.11 122.55 C 145.07 122.98 146.19 122.54 146.62 121.58 L 147.03 120.66 C 147.46 119.70 147.03 118.57 146.07 118.15 C 145.11 117.72 143.98 118.15 143.56 119.11 Z M 143.18 119.96 L 142.74 120.86 C 142.27 121.79 142.65 122.93 143.59 123.40 C 144.52 123.87 145.66 123.49 146.13 122.55 L 146.58 121.66 C 147.05 120.72 146.67 119.58 145.73 119.11 C 144.79 118.65 143.65 119.02 143.18 119.96 Z M 142.79 120.78 L 142.31 121.63 C 141.80 122.54 142.12 123.70 143.03 124.21 C 143.94 124.72 145.09 124.39 145.60 123.48 L 146.08 122.63 C 146.59 121.72 146.27 120.57 145.36 120.06 C 144.45 119.55 143.30 119.87 142.79 120.78 Z M 142.36 121.56 L 141.83 122.41 C 141.28 123.29 141.55 124.45 142.43 125.00 C 143.31 125.55 144.48 125.28 145.02 124.40 L 145.55 123.55 C 146.10 122.67 145.83 121.51 144.95 120.96 C 144.07 120.41 142.91 120.68 142.36 121.56 Z M 141.88 122.36 L 141.32 123.19 C 140.74 124.04 140.96 125.21 141.82 125.79 C 142.67 126.36 143.84 126.14 144.42 125.28 L 144.98 124.45 C 145.56 123.60 145.33 122.43 144.48 121.85 C 143.62 121.28 142.46 121.50 141.88 122.36 Z M 141.36 123.15 L 140.84 123.87 C 140.23 124.70 140.42 125.86 141.26 126.47 C 142.09 127.07 143.26 126.88 143.86 126.04 L 144.38 125.32 C 144.98 124.49 144.79 123.33 143.96 122.72 C 143.12 122.12 141.96 122.31 141.36 123.15 Z M 140.90 123.80 L 140.28 124.58 C 139.64 125.38 139.78 126.55 140.58 127.18 C 141.38 127.82 142.55 127.69 143.18 126.88 L 143.80 126.11 C 144.43 125.31 144.30 124.14 143.50 123.50 C 142.70 122.87 141.53 123.00 140.90 123.80 Z M 140.35 124.51 L 139.63 125.33 C 138.96 126.09 139.03 127.26 139.79 127.93 C 140.56 128.60 141.72 128.53 142.40 127.77 L 143.11 126.95 C 143.79 126.19 143.71 125.02 142.95 124.35 C 142.19 123.68 141.02 123.75 140.35 124.51 Z M 139.68 125.28 L 139.03 125.96 C 138.34 126.70 138.36 127.86 139.10 128.56 C 139.83 129.26 140.99 129.23 141.69 128.50 L 142.34 127.81 C 143.04 127.08 143.01 125.92 142.28 125.22 C 141.54 124.52 140.38 124.55 139.68 125.28 Z M 139.08 125.93 L 138.36 126.64 C 137.64 127.35 137.63 128.51 138.34 129.23 C 139.05 129.95 140.20 129.95 140.92 129.25 L 141.65 128.53 C 142.37 127.82 142.37 126.67 141.67 125.95 C 140.96 125.23 139.80 125.22 139.08 125.93 Z M 138.41 126.60 L 137.64 127.31 C 136.90 127.99 136.85 129.14 137.53 129.88 C 138.21 130.62 139.36 130.67 140.10 129.99 L 140.87 129.28 C 141.61 128.60 141.66 127.45 140.98 126.71 C 140.30 125.97 139.15 125.92 138.41 126.60 Z M 137.70 127.27 L 136.88 127.96 C 136.12 128.60 136.02 129.74 136.67 130.51 C 137.31 131.27 138.46 131.37 139.22 130.72 L 140.04 130.04 C 140.80 129.39 140.90 128.25 140.25 127.48 C 139.61 126.72 138.46 126.62 137.70 127.27 Z M 136.97 127.91 L 136.11 128.56 C 135.31 129.16 135.16 130.28 135.76 131.08 C 136.35 131.87 137.48 132.02 138.27 131.43 L 139.13 130.77 C 139.92 130.17 140.08 129.05 139.48 128.26 C 138.89 127.47 137.76 127.31 136.97 127.91 Z M 136.21 128.51 L 135.37 129.07 C 134.55 129.61 134.33 130.71 134.87 131.52 C 135.41 132.34 136.51 132.57 137.32 132.03 L 138.16 131.47 C 138.98 130.93 139.21 129.83 138.67 129.02 C 138.13 128.20 137.03 127.97 136.21 128.51 Z M 135.50 129.01 L 134.70 129.46 C 133.85 129.92 133.55 130.99 134.02 131.84 C 134.48 132.68 135.55 132.99 136.40 132.52 L 137.20 132.08 C 138.04 131.61 138.35 130.55 137.88 129.70 C 137.41 128.85 136.35 128.55 135.50 129.01 Z M 134.93 129.38 L 133.86 129.79 C 132.97 130.14 132.53 131.14 132.88 132.02 C 133.22 132.91 134.22 133.35 135.10 133.01 L 136.17 132.60 C 137.06 132.25 137.50 131.26 137.16 130.37 C 136.81 129.48 135.82 129.04 134.93 129.38 Z M 134.45 129.72 L 133.54 129.74 C 132.61 129.76 131.88 130.53 131.90 131.46 C 131.92 132.39 132.69 133.12 133.62 133.10 L 134.52 133.08 C 135.45 133.06 136.18 132.29 136.16 131.36 C 136.14 130.44 135.37 129.70 134.45 129.72 Z M 134.86 130.40 L 134.41 129.84 C 133.84 129.13 132.81 129.02 132.11 129.59 C 131.40 130.15 131.29 131.18 131.86 131.89 L 132.30 132.45 C 132.87 133.15 133.90 133.26 134.60 132.70 C 135.31 132.13 135.42 131.10 134.86 130.40 Z M 134.73 130.77 L 134.67 129.75 C 134.61 128.87 133.85 128.20 132.97 128.25 C 132.09 128.31 131.42 129.07 131.47 129.95 L 131.54 130.96 C 131.59 131.85 132.35 132.52 133.23 132.46 C 134.12 132.41 134.79 131.65 134.73 130.77 Z M 134.64 129.94 L 134.68 129.30 C 134.73 128.44 134.07 127.69 133.20 127.64 C 132.34 127.59 131.59 128.25 131.54 129.11 L 131.50 129.75 C 131.45 130.62 132.11 131.37 132.97 131.42 C 133.84 131.47 134.59 130.81 134.64 129.94 Z"
      fill="black"
      fill-rule="nonzero" /><path d="M 145.77 123.72 L 146.61 123.48 C 147.62 123.19 148.20 122.15 147.91 121.14 C 147.62 120.14 146.58 119.55 145.57 119.84 L 144.72 120.08 C 143.72 120.37 143.14 121.42 143.43 122.43 C 143.71 123.43 144.76 124.01 145.77 123.72 Z M 146.69 123.57 L 147.60 123.28 C 148.66 122.96 149.24 121.84 148.92 120.78 C 148.59 119.73 147.47 119.14 146.42 119.47 L 145.50 119.75 C 144.45 120.08 143.86 121.20 144.19 122.25 C 144.51 123.31 145.63 123.90 146.69 123.57 Z M 147.70 123.36 L 148.76 122.99 C 149.85 122.61 150.43 121.41 150.05 120.31 C 149.66 119.22 148.47 118.64 147.37 119.02 L 146.32 119.39 C 145.22 119.78 144.64 120.98 145.03 122.07 C 145.41 123.17 146.61 123.74 147.70 123.36 Z M 148.84 123.02 L 149.79 122.66 C 150.90 122.23 151.45 120.98 151.02 119.87 C 150.59 118.75 149.34 118.20 148.23 118.63 L 147.29 118.99 C 146.17 119.42 145.62 120.67 146.05 121.79 C 146.48 122.90 147.73 123.45 148.84 123.02 Z M 149.82 122.65 L 150.78 122.26 C 151.89 121.81 152.42 120.55 151.97 119.44 C 151.52 118.33 150.26 117.80 149.15 118.25 L 148.19 118.64 C 147.09 119.09 146.55 120.35 147.00 121.46 C 147.45 122.57 148.72 123.10 149.82 122.65 Z M 150.80 122.25 L 151.77 121.85 C 152.87 121.39 153.39 120.12 152.93 119.02 C 152.47 117.92 151.20 117.40 150.10 117.86 L 149.14 118.26 C 148.03 118.72 147.51 119.98 147.97 121.09 C 148.43 122.19 149.70 122.71 150.80 122.25 Z M 151.77 121.84 L 152.69 121.46 C 153.79 120.99 154.30 119.73 153.84 118.63 C 153.38 117.53 152.11 117.01 151.01 117.48 L 150.10 117.86 C 149.00 118.32 148.48 119.59 148.94 120.69 C 149.41 121.79 150.67 122.30 151.77 121.84 Z M 152.68 121.45 L 153.67 121.04 C 154.76 120.58 155.28 119.32 154.82 118.23 C 154.37 117.13 153.11 116.61 152.01 117.07 L 151.02 117.48 C 149.93 117.94 149.41 119.20 149.87 120.29 C 150.32 121.39 151.58 121.91 152.68 121.45 Z M 153.64 121.02 L 154.62 120.62 C 155.70 120.18 156.22 118.94 155.78 117.85 C 155.34 116.76 154.09 116.24 153.01 116.69 L 152.04 117.09 C 150.95 117.53 150.43 118.77 150.87 119.86 C 151.32 120.94 152.56 121.46 153.64 121.02 Z M 154.61 120.59 L 155.43 120.26 C 156.50 119.82 157.01 118.59 156.57 117.52 C 156.13 116.45 154.91 115.94 153.84 116.38 L 153.02 116.72 C 151.94 117.16 151.43 118.38 151.87 119.45 C 152.32 120.52 153.54 121.03 154.61 120.59 Z M 155.45 120.22 L 156.31 119.85 C 157.36 119.40 157.84 118.18 157.39 117.13 C 156.93 116.08 155.71 115.60 154.66 116.05 L 153.81 116.42 C 152.76 116.87 152.28 118.09 152.73 119.14 C 153.19 120.19 154.40 120.67 155.45 120.22 Z M 156.33 119.82 L 157.24 119.40 C 158.27 118.94 158.73 117.72 158.26 116.69 C 157.79 115.66 156.58 115.20 155.54 115.67 L 154.64 116.08 C 153.60 116.55 153.15 117.77 153.62 118.80 C 154.09 119.83 155.30 120.29 156.33 119.82 Z M 157.26 119.38 L 158.17 118.95 C 159.19 118.47 159.63 117.26 159.15 116.24 C 158.68 115.22 157.46 114.79 156.45 115.26 L 155.53 115.69 C 154.51 116.17 154.07 117.38 154.55 118.40 C 155.03 119.42 156.24 119.86 157.26 119.38 Z M 158.18 118.93 L 159.06 118.51 C 160.07 118.03 160.50 116.83 160.02 115.82 C 159.54 114.81 158.34 114.38 157.33 114.86 L 156.44 115.28 C 155.43 115.76 155.01 116.97 155.48 117.97 C 155.96 118.98 157.17 119.41 158.18 118.93 Z M 159.06 118.49 L 159.97 118.06 C 160.97 117.58 161.39 116.38 160.91 115.39 C 160.44 114.39 159.24 113.96 158.24 114.44 L 157.33 114.88 C 156.33 115.35 155.91 116.55 156.39 117.55 C 156.87 118.55 158.06 118.97 159.06 118.49 Z M 159.97 118.05 L 160.88 117.61 C 161.87 117.13 162.29 115.94 161.82 114.95 C 161.34 113.96 160.15 113.54 159.16 114.02 L 158.24 114.46 C 157.25 114.93 156.83 116.12 157.31 117.11 C 157.79 118.10 158.97 118.52 159.97 118.05 Z M 160.88 117.59 L 161.79 117.15 C 162.77 116.68 163.19 115.50 162.71 114.52 C 162.24 113.54 161.06 113.12 160.08 113.59 L 159.17 114.03 C 158.19 114.50 157.77 115.68 158.24 116.67 C 158.71 117.65 159.89 118.06 160.88 117.59 Z M 161.78 117.13 L 162.68 116.70 C 163.65 116.23 164.06 115.07 163.59 114.09 C 163.12 113.12 161.95 112.71 160.98 113.18 L 160.09 113.61 C 159.11 114.08 158.70 115.25 159.17 116.22 C 159.64 117.19 160.81 117.60 161.78 117.13 Z M 162.67 116.68 L 163.53 116.27 C 164.49 115.80 164.89 114.65 164.42 113.69 C 163.96 112.73 162.81 112.33 161.85 112.79 L 160.99 113.20 C 160.03 113.67 159.63 114.82 160.09 115.78 C 160.56 116.74 161.71 117.14 162.67 116.68 Z M 163.51 116.24 L 164.38 115.82 C 165.32 115.36 165.72 114.23 165.26 113.28 C 164.81 112.34 163.67 111.94 162.73 112.40 L 161.86 112.82 C 160.92 113.28 160.52 114.41 160.98 115.35 C 161.43 116.30 162.57 116.69 163.51 116.24 Z M 164.36 115.79 L 165.33 115.32 C 166.26 114.88 166.65 113.77 166.20 112.84 C 165.76 111.91 164.65 111.52 163.72 111.96 L 162.75 112.43 C 161.82 112.87 161.43 113.99 161.88 114.91 C 162.32 115.84 163.43 116.23 164.36 115.79 Z M 165.30 115.30 L 166.16 114.89 C 167.08 114.46 167.47 113.37 167.04 112.46 C 166.61 111.54 165.52 111.15 164.60 111.58 L 163.74 111.99 C 162.83 112.42 162.44 113.51 162.87 114.42 C 163.30 115.34 164.39 115.73 165.30 115.30 Z M 166.12 114.88 L 167.05 114.47 C 167.96 114.06 168.37 112.99 167.96 112.08 C 167.55 111.18 166.48 110.77 165.58 111.18 L 164.65 111.59 C 163.74 112.00 163.33 113.07 163.74 113.98 C 164.15 114.88 165.21 115.29 166.12 114.88 Z M 166.98 114.47 L 167.94 114.08 C 168.85 113.71 169.28 112.67 168.91 111.76 C 168.54 110.85 167.51 110.42 166.60 110.79 L 165.64 111.18 C 164.73 111.55 164.30 112.58 164.67 113.49 C 165.04 114.40 166.07 114.84 166.98 114.47 Z M 167.83 114.09 L 168.81 113.75 C 169.72 113.44 170.21 112.44 169.90 111.53 C 169.58 110.62 168.59 110.13 167.68 110.45 L 166.70 110.78 C 165.79 111.09 165.30 112.09 165.61 113.00 C 165.93 113.91 166.92 114.40 167.83 114.09 Z M 168.69 113.75 L 169.67 113.49 C 170.59 113.24 171.13 112.30 170.88 111.39 C 170.64 110.48 169.70 109.93 168.79 110.18 L 167.80 110.45 C 166.89 110.69 166.35 111.63 166.59 112.54 C 166.84 113.45 167.77 114.00 168.69 113.75 Z M 169.58 113.47 L 170.54 113.26 C 171.44 113.07 172.01 112.18 171.82 111.28 C 171.63 110.38 170.74 109.80 169.84 109.99 L 168.88 110.20 C 167.98 110.39 167.40 111.28 167.59 112.18 C 167.79 113.09 168.68 113.66 169.58 113.47 Z M 170.49 113.24 L 171.24 113.10 C 172.12 112.93 172.71 112.07 172.54 111.18 C 172.37 110.29 171.51 109.71 170.63 109.88 L 169.88 110.02 C 168.99 110.19 168.41 111.05 168.58 111.93 C 168.75 112.82 169.60 113.40 170.49 113.24 Z"
      fill="black"
      fill-rule="nonzero" /><path d="M 144.93 137.32 L 145.81 136.83 C 146.74 136.33 147.08 135.17 146.57 134.24 C 146.07 133.32 144.91 132.98 143.98 133.48 L 143.10 133.97 C 142.17 134.47 141.83 135.63 142.34 136.56 C 142.84 137.48 144.00 137.82 144.93 137.32 Z M 145.82 136.85 L 146.70 136.37 C 147.64 135.86 147.98 134.69 147.47 133.75 C 146.96 132.81 145.79 132.47 144.85 132.98 L 143.97 133.46 C 143.04 133.97 142.69 135.15 143.20 136.08 C 143.71 137.02 144.89 137.36 145.82 136.85 Z M 146.71 136.39 L 147.60 135.91 C 148.54 135.39 148.89 134.21 148.38 133.26 C 147.86 132.31 146.67 131.96 145.73 132.48 L 144.85 132.96 C 143.90 133.48 143.55 134.66 144.07 135.61 C 144.58 136.55 145.77 136.90 146.71 136.39 Z M 147.60 135.93 L 148.48 135.45 C 149.44 134.93 149.80 133.73 149.28 132.78 C 148.76 131.82 147.56 131.46 146.60 131.98 L 145.72 132.46 C 144.76 132.98 144.41 134.18 144.93 135.14 C 145.45 136.09 146.64 136.45 147.60 135.93 Z M 148.49 135.47 L 149.37 135.00 C 150.34 134.47 150.70 133.26 150.17 132.30 C 149.65 131.33 148.44 130.96 147.47 131.49 L 146.59 131.96 C 145.62 132.48 145.26 133.69 145.79 134.66 C 146.31 135.63 147.52 136.00 148.49 135.47 Z M 149.37 135.02 L 150.25 134.55 C 151.23 134.02 151.60 132.80 151.07 131.82 C 150.54 130.84 149.32 130.47 148.34 131.00 L 147.47 131.47 C 146.49 131.99 146.12 133.21 146.64 134.20 C 147.17 135.18 148.39 135.55 149.37 135.02 Z M 150.25 134.57 L 151.16 134.08 C 152.15 133.55 152.53 132.32 152.00 131.33 C 151.47 130.34 150.24 129.97 149.25 130.49 L 148.34 130.98 C 147.35 131.51 146.97 132.74 147.50 133.73 C 148.03 134.72 149.26 135.10 150.25 134.57 Z M 151.16 134.09 L 152.14 133.57 C 153.13 133.04 153.52 131.81 152.99 130.82 C 152.47 129.83 151.24 129.45 150.24 129.97 L 149.26 130.49 C 148.26 131.01 147.88 132.24 148.41 133.24 C 148.93 134.23 150.16 134.61 151.16 134.09 Z M 152.13 133.56 L 153.09 133.06 C 154.08 132.54 154.46 131.32 153.94 130.33 C 153.43 129.34 152.20 128.95 151.21 129.47 L 150.25 129.97 C 149.26 130.49 148.88 131.72 149.40 132.71 C 149.92 133.70 151.14 134.08 152.13 133.56 Z M 153.08 133.06 L 153.99 132.59 C 154.98 132.07 155.37 130.85 154.85 129.86 C 154.34 128.87 153.12 128.49 152.13 129.00 L 151.22 129.48 C 150.23 129.99 149.84 131.21 150.36 132.20 C 150.87 133.19 152.09 133.57 153.08 133.06 Z M 153.98 132.58 L 154.83 132.14 C 155.82 131.63 156.21 130.42 155.70 129.43 C 155.19 128.44 153.98 128.06 152.99 128.57 L 152.14 129.01 C 151.15 129.52 150.76 130.73 151.27 131.72 C 151.78 132.70 153.00 133.09 153.98 132.58 Z M 154.83 132.14 L 155.60 131.74 C 156.59 131.23 156.97 130.03 156.47 129.04 C 155.96 128.06 154.76 127.67 153.77 128.17 L 153.00 128.57 C 152.01 129.08 151.62 130.29 152.13 131.27 C 152.64 132.25 153.84 132.64 154.83 132.14 Z M 155.59 131.72 L 156.53 131.24 C 157.50 130.75 157.89 129.55 157.39 128.58 C 156.90 127.60 155.70 127.21 154.73 127.71 L 153.79 128.19 C 152.81 128.69 152.42 129.88 152.92 130.86 C 153.42 131.83 154.61 132.22 155.59 131.72 Z M 156.49 131.21 L 157.44 130.73 C 158.40 130.25 158.79 129.09 158.31 128.13 C 157.83 127.18 156.67 126.79 155.71 127.27 L 154.76 127.75 C 153.81 128.23 153.42 129.39 153.90 130.34 C 154.38 131.30 155.54 131.69 156.49 131.21 Z M 157.39 130.69 L 158.20 130.30 C 159.13 129.85 159.52 128.73 159.07 127.80 C 158.62 126.86 157.50 126.47 156.57 126.92 L 155.76 127.31 C 154.83 127.76 154.44 128.88 154.89 129.81 C 155.34 130.75 156.46 131.14 157.39 130.69 Z M 158.14 130.27 L 158.93 129.91 C 159.85 129.49 160.25 128.41 159.84 127.50 C 159.42 126.58 158.35 126.18 157.43 126.59 L 156.63 126.96 C 155.72 127.37 155.31 128.45 155.73 129.36 C 156.14 130.28 157.22 130.68 158.14 130.27 Z M 158.88 129.88 L 159.78 129.49 C 160.68 129.11 161.10 128.06 160.71 127.17 C 160.33 126.27 159.29 125.85 158.39 126.23 L 157.49 126.62 C 156.59 127.01 156.17 128.05 156.55 128.95 C 156.94 129.85 157.98 130.26 158.88 129.88 Z M 159.75 129.46 L 160.68 129.08 C 161.57 128.71 161.99 127.70 161.62 126.81 C 161.26 125.93 160.24 125.51 159.36 125.88 L 158.42 126.26 C 157.54 126.63 157.12 127.64 157.48 128.53 C 157.85 129.41 158.86 129.83 159.75 129.46 Z M 160.66 129.05 L 161.33 128.77 C 162.20 128.42 162.61 127.43 162.26 126.56 C 161.91 125.69 160.92 125.28 160.05 125.63 L 159.38 125.90 C 158.51 126.26 158.10 127.25 158.45 128.12 C 158.80 128.98 159.79 129.40 160.66 129.05 Z"
      fill="black"
      fill-rule="nonzero" /><path d="M 143.98 133.31 L 143.86 134.22 C 143.73 135.28 144.48 136.26 145.55 136.39 C 146.61 136.53 147.58 135.77 147.72 134.71 L 147.83 133.80 C 147.97 132.74 147.22 131.77 146.15 131.63 C 145.09 131.50 144.12 132.25 143.98 133.31 Z M 143.85 134.26 L 143.74 135.27 C 143.62 136.34 144.40 137.30 145.47 137.42 C 146.54 137.53 147.51 136.76 147.62 135.69 L 147.73 134.68 C 147.85 133.60 147.07 132.64 146.00 132.52 C 144.93 132.41 143.97 133.18 143.85 134.26 Z M 143.72 135.31 L 143.64 136.33 C 143.55 137.41 144.35 138.36 145.43 138.45 C 146.52 138.54 147.47 137.74 147.56 136.65 L 147.64 135.64 C 147.73 134.56 146.93 133.61 145.84 133.52 C 144.76 133.43 143.81 134.23 143.72 135.31 Z M 143.63 136.36 L 143.56 137.35 C 143.49 138.44 144.32 139.38 145.41 139.45 C 146.50 139.52 147.43 138.69 147.50 137.60 L 147.57 136.62 C 147.64 135.53 146.81 134.59 145.72 134.52 C 144.64 134.45 143.70 135.28 143.63 136.36 Z M 143.55 137.37 L 143.50 138.40 C 143.44 139.50 144.28 140.43 145.37 140.49 C 146.47 140.55 147.40 139.71 147.46 138.61 L 147.51 137.58 C 147.57 136.49 146.73 135.55 145.64 135.50 C 144.54 135.44 143.61 136.28 143.55 137.37 Z M 143.49 138.42 L 143.44 139.45 C 143.39 140.55 144.25 141.48 145.35 141.53 C 146.44 141.58 147.38 140.73 147.42 139.63 L 147.47 138.60 C 147.52 137.50 146.67 136.57 145.57 136.52 C 144.47 136.47 143.54 137.32 143.49 138.42 Z M 143.44 139.46 L 143.40 140.46 C 143.36 141.56 144.22 142.49 145.32 142.53 C 146.42 142.58 147.35 141.72 147.39 140.62 L 147.43 139.62 C 147.47 138.52 146.61 137.59 145.51 137.55 C 144.41 137.50 143.48 138.36 143.44 139.46 Z M 143.40 140.46 L 143.36 141.45 C 143.32 142.55 144.18 143.48 145.28 143.52 C 146.38 143.56 147.31 142.71 147.35 141.60 L 147.39 140.62 C 147.43 139.52 146.57 138.59 145.47 138.54 C 144.37 138.50 143.44 139.36 143.40 140.46 Z M 143.36 141.43 L 143.32 142.44 C 143.26 143.54 144.11 144.47 145.21 144.52 C 146.32 144.57 147.25 143.72 147.30 142.62 L 147.35 141.62 C 147.40 140.52 146.55 139.58 145.45 139.53 C 144.35 139.48 143.41 140.33 143.36 141.43 Z M 143.32 142.41 L 143.26 143.40 C 143.19 144.50 144.03 145.44 145.13 145.50 C 146.23 145.57 147.17 144.73 147.24 143.63 L 147.30 142.65 C 147.36 141.55 146.53 140.60 145.43 140.54 C 144.33 140.47 143.38 141.31 143.32 142.41 Z M 143.27 143.37 L 143.19 144.38 C 143.11 145.47 143.94 146.42 145.04 146.50 C 146.13 146.58 147.08 145.76 147.16 144.66 L 147.23 143.66 C 147.31 142.56 146.49 141.61 145.39 141.53 C 144.30 141.45 143.34 142.28 143.27 143.37 Z M 143.20 144.36 L 143.12 145.36 C 143.03 146.46 143.84 147.41 144.93 147.50 C 146.02 147.59 146.98 146.78 147.07 145.69 L 147.16 144.68 C 147.25 143.59 146.43 142.63 145.34 142.54 C 144.25 142.45 143.29 143.26 143.20 144.36 Z M 143.12 145.34 L 143.03 146.33 C 142.93 147.42 143.73 148.38 144.82 148.48 C 145.91 148.58 146.87 147.78 146.97 146.70 L 147.07 145.71 C 147.17 144.62 146.37 143.66 145.28 143.55 C 144.19 143.45 143.22 144.25 143.12 145.34 Z M 143.04 146.30 L 142.94 147.27 C 142.83 148.35 143.61 149.32 144.69 149.43 C 145.78 149.55 146.75 148.76 146.86 147.68 L 146.96 146.72 C 147.08 145.64 146.29 144.67 145.21 144.55 C 144.13 144.44 143.16 145.22 143.04 146.30 Z M 142.96 147.23 L 142.83 148.20 C 142.70 149.28 143.46 150.26 144.53 150.39 C 145.61 150.53 146.59 149.77 146.72 148.69 L 146.85 147.72 C 146.98 146.64 146.22 145.66 145.15 145.53 C 144.07 145.39 143.09 146.16 142.96 147.23 Z M 142.85 148.16 L 142.70 149.18 C 142.54 150.25 143.27 151.24 144.33 151.40 C 145.40 151.56 146.39 150.83 146.55 149.76 L 146.71 148.74 C 146.87 147.68 146.13 146.68 145.07 146.52 C 144.00 146.36 143.01 147.10 142.85 148.16 Z M 142.72 149.14 L 142.55 150.09 C 142.37 151.15 143.07 152.15 144.13 152.33 C 145.18 152.52 146.18 151.81 146.36 150.76 L 146.53 149.81 C 146.71 148.75 146.01 147.75 144.96 147.57 C 143.90 147.38 142.90 148.09 142.72 149.14 Z M 142.57 150.07 L 142.39 151.02 C 142.19 152.06 142.87 153.07 143.91 153.27 C 144.95 153.47 145.96 152.78 146.16 151.74 L 146.34 150.79 C 146.54 149.75 145.86 148.74 144.82 148.54 C 143.78 148.34 142.77 149.02 142.57 150.07 Z M 142.41 151.00 L 142.21 152.00 C 142.00 153.03 142.67 154.03 143.70 154.24 C 144.73 154.45 145.73 153.78 145.94 152.75 L 146.14 151.76 C 146.35 150.73 145.68 149.73 144.65 149.52 C 143.62 149.31 142.62 149.98 142.41 151.00 Z M 142.23 151.99 L 142.02 153.01 C 141.80 154.03 142.46 155.02 143.48 155.24 C 144.49 155.45 145.49 154.80 145.71 153.78 L 145.92 152.76 C 146.13 151.74 145.48 150.74 144.46 150.53 C 143.44 150.32 142.44 150.97 142.23 151.99 Z M 142.03 153.01 L 141.90 153.64 C 141.68 154.66 142.33 155.65 143.34 155.86 C 144.35 156.08 145.34 155.43 145.56 154.42 L 145.69 153.78 C 145.91 152.77 145.26 151.78 144.25 151.56 C 143.24 151.35 142.24 151.99 142.03 153.01 Z"
      fill="black"
      fill-rule="nonzero" /><path d="M 129.37 155.23 L 128.24 155.75 C 127.39 156.15 127.03 157.16 127.43 158.01 C 127.82 158.85 128.83 159.22 129.68 158.82 L 130.81 158.29 C 131.65 157.89 132.02 156.89 131.62 156.04 C 131.22 155.19 130.22 154.83 129.37 155.23 Z M 127.42 156.23 L 127.17 156.59 C 126.59 157.44 126.81 158.60 127.66 159.18 C 128.51 159.77 129.67 159.55 130.25 158.70 L 130.50 158.34 C 131.08 157.49 130.87 156.33 130.02 155.75 C 129.17 155.16 128.00 155.38 127.42 156.23 Z M 128.43 159.65 L 129.35 159.78 C 130.46 159.93 131.48 159.16 131.64 158.06 C 131.79 156.95 131.03 155.93 129.92 155.77 L 129.00 155.64 C 127.89 155.49 126.87 156.25 126.71 157.36 C 126.56 158.47 127.33 159.49 128.43 159.65 Z M 129.59 159.90 L 130.74 159.93 C 131.91 159.96 132.89 159.03 132.92 157.85 C 132.94 156.68 132.01 155.70 130.84 155.67 L 129.69 155.65 C 128.51 155.62 127.53 156.55 127.51 157.73 C 127.48 158.90 128.41 159.88 129.59 159.90 Z M 130.80 159.98 L 131.74 159.98 C 132.94 159.97 133.91 158.99 133.91 157.78 C 133.90 156.58 132.92 155.61 131.71 155.62 L 130.77 155.62 C 129.57 155.63 128.60 156.61 128.61 157.81 C 128.61 159.02 129.59 159.99 130.80 159.98 Z M 131.82 160.00 L 132.86 159.95 C 134.07 159.90 135.01 158.87 134.96 157.66 C 134.91 156.44 133.88 155.50 132.67 155.55 L 131.63 155.60 C 130.42 155.65 129.47 156.68 129.53 157.89 C 129.58 159.11 130.61 160.05 131.82 160.00 Z M 132.96 159.96 L 134.05 159.87 C 135.27 159.76 136.17 158.68 136.06 157.45 C 135.95 156.23 134.87 155.33 133.65 155.44 L 132.56 155.54 C 131.34 155.65 130.44 156.73 130.55 157.95 C 130.66 159.17 131.74 160.07 132.96 159.96 Z M 134.14 159.87 L 135.16 159.73 C 136.39 159.57 137.25 158.45 137.08 157.22 C 136.92 156.00 135.80 155.14 134.57 155.30 L 133.55 155.44 C 132.33 155.60 131.47 156.72 131.63 157.95 C 131.79 159.17 132.92 160.03 134.14 159.87 Z M 135.22 159.74 L 136.25 159.57 C 137.47 159.38 138.31 158.22 138.11 157.00 C 137.91 155.77 136.76 154.94 135.53 155.13 L 134.51 155.30 C 133.28 155.49 132.45 156.65 132.65 157.87 C 132.84 159.10 134.00 159.93 135.22 159.74 Z M 136.29 159.58 L 137.25 159.41 C 138.48 159.19 139.30 158.01 139.08 156.78 C 138.86 155.56 137.69 154.74 136.46 154.96 L 135.49 155.13 C 134.26 155.35 133.44 156.52 133.66 157.75 C 133.88 158.98 135.06 159.80 136.29 159.58 Z M 137.28 159.41 L 138.29 159.22 C 139.53 158.99 140.34 157.80 140.10 156.57 C 139.87 155.34 138.68 154.53 137.45 154.76 L 136.44 154.95 C 135.20 155.18 134.39 156.37 134.63 157.60 C 134.86 158.83 136.05 159.65 137.28 159.41 Z M 138.31 159.23 L 139.31 159.03 C 140.55 158.79 141.35 157.59 141.11 156.36 C 140.87 155.12 139.68 154.32 138.44 154.56 L 137.44 154.75 C 136.20 154.99 135.40 156.19 135.64 157.42 C 135.88 158.66 137.07 159.47 138.31 159.23 Z M 139.32 159.03 L 140.22 158.86 C 141.45 158.62 142.26 157.42 142.02 156.18 C 141.78 154.94 140.58 154.13 139.34 154.38 L 138.44 154.55 C 137.20 154.80 136.39 155.99 136.64 157.23 C 136.88 158.47 138.08 159.28 139.32 159.03 Z M 140.20 158.87 L 141.16 158.68 C 142.40 158.45 143.22 157.25 142.98 156.01 C 142.75 154.77 141.55 153.95 140.31 154.19 L 139.35 154.37 C 138.11 154.61 137.29 155.80 137.53 157.04 C 137.77 158.29 138.96 159.10 140.20 158.87 Z M 141.16 158.69 L 142.15 158.50 C 143.39 158.27 144.21 157.07 143.98 155.83 C 143.74 154.58 142.55 153.76 141.30 154.00 L 140.31 154.18 C 139.07 154.42 138.25 155.61 138.48 156.86 C 138.71 158.10 139.91 158.92 141.16 158.69 Z M 142.16 158.50 L 143.14 158.31 C 144.39 158.07 145.20 156.87 144.96 155.62 C 144.72 154.37 143.51 153.56 142.27 153.80 L 141.29 153.99 C 140.04 154.24 139.23 155.44 139.47 156.69 C 139.71 157.93 140.92 158.75 142.16 158.50 Z M 143.17 158.31 L 144.14 158.11 C 145.39 157.85 146.19 156.64 145.93 155.39 C 145.67 154.15 144.46 153.35 143.21 153.60 L 142.24 153.81 C 141.00 154.06 140.20 155.28 140.45 156.52 C 140.71 157.77 141.93 158.57 143.17 158.31 Z M 144.16 158.11 L 145.14 157.90 C 146.38 157.63 147.17 156.41 146.91 155.16 C 146.64 153.92 145.42 153.13 144.17 153.40 L 143.20 153.61 C 141.95 153.87 141.16 155.10 141.43 156.34 C 141.70 157.58 142.92 158.38 144.16 158.11 Z M 145.15 157.90 L 146.11 157.69 C 147.35 157.42 148.14 156.19 147.87 154.95 C 147.60 153.70 146.37 152.92 145.13 153.19 L 144.17 153.40 C 142.92 153.67 142.13 154.90 142.41 156.14 C 142.68 157.38 143.90 158.17 145.15 157.90 Z M 146.11 157.69 L 147.10 157.47 C 148.34 157.20 149.13 155.97 148.85 154.73 C 148.58 153.48 147.35 152.70 146.11 152.97 L 145.12 153.19 C 143.88 153.46 143.09 154.69 143.37 155.93 C 143.64 157.18 144.87 157.96 146.11 157.69 Z M 147.10 157.47 L 148.08 157.26 C 149.33 156.98 150.11 155.75 149.84 154.51 C 149.56 153.26 148.33 152.48 147.09 152.75 L 146.10 152.97 C 144.86 153.24 144.07 154.47 144.35 155.72 C 144.62 156.96 145.85 157.75 147.10 157.47 Z M 148.09 157.26 L 149.06 157.04 C 150.30 156.76 151.08 155.53 150.81 154.29 C 150.53 153.05 149.30 152.26 148.06 152.54 L 147.09 152.75 C 145.84 153.03 145.06 154.26 145.34 155.50 C 145.61 156.75 146.84 157.53 148.09 157.26 Z M 149.07 157.04 L 150.04 156.82 C 151.29 156.53 152.06 155.30 151.78 154.06 C 151.50 152.82 150.27 152.04 149.02 152.32 L 148.05 152.54 C 146.80 152.82 146.03 154.06 146.31 155.30 C 146.59 156.54 147.82 157.32 149.07 157.04 Z M 150.06 156.81 L 151.03 156.58 C 152.27 156.29 153.04 155.05 152.75 153.82 C 152.46 152.58 151.22 151.81 149.98 152.10 L 149.01 152.32 C 147.77 152.61 147.00 153.85 147.29 155.09 C 147.58 156.33 148.82 157.10 150.06 156.81 Z M 151.04 156.58 L 152.01 156.35 C 153.24 156.05 154.01 154.81 153.71 153.57 C 153.41 152.33 152.17 151.57 150.93 151.87 L 149.96 152.10 C 148.73 152.40 147.96 153.64 148.26 154.88 C 148.56 156.11 149.80 156.88 151.04 156.58 Z M 152.01 156.35 L 152.99 156.11 C 154.23 155.81 154.99 154.57 154.69 153.33 C 154.40 152.10 153.15 151.34 151.92 151.63 L 150.93 151.87 C 149.69 152.17 148.93 153.41 149.23 154.65 C 149.53 155.88 150.77 156.64 152.01 156.35 Z M 152.99 156.11 L 153.94 155.88 C 155.18 155.58 155.94 154.34 155.65 153.11 C 155.35 151.87 154.11 151.11 152.88 151.41 L 151.92 151.63 C 150.69 151.93 149.92 153.17 150.22 154.41 C 150.51 155.64 151.75 156.40 152.99 156.11 Z M 153.94 155.88 L 154.90 155.65 C 156.14 155.36 156.90 154.12 156.61 152.89 C 156.32 151.65 155.08 150.89 153.85 151.18 L 152.88 151.41 C 151.65 151.70 150.88 152.94 151.18 154.17 C 151.47 155.40 152.70 156.17 153.94 155.88 Z M 154.90 155.65 L 155.89 155.41 C 157.13 155.12 157.89 153.89 157.60 152.66 C 157.31 151.43 156.08 150.66 154.85 150.95 L 153.85 151.18 C 152.62 151.47 151.86 152.71 152.14 153.94 C 152.43 155.17 153.66 155.93 154.90 155.65 Z M 155.89 155.41 L 156.86 155.18 C 158.09 154.89 158.86 153.67 158.57 152.44 C 158.29 151.21 157.06 150.44 155.83 150.73 L 154.85 150.96 C 153.63 151.24 152.86 152.47 153.15 153.70 C 153.43 154.93 154.66 155.69 155.89 155.41 Z M 156.86 155.17 L 157.84 154.94 C 159.07 154.66 159.83 153.44 159.55 152.21 C 159.26 150.99 158.04 150.23 156.82 150.51 L 155.83 150.74 C 154.61 151.02 153.85 152.24 154.13 153.47 C 154.41 154.69 155.64 155.46 156.86 155.17 Z M 157.84 154.94 L 158.82 154.71 C 160.04 154.43 160.80 153.21 160.51 151.99 C 160.23 150.77 159.01 150.01 157.79 150.29 L 156.82 150.52 C 155.60 150.80 154.84 152.02 155.12 153.24 C 155.41 154.46 156.62 155.22 157.84 154.94 Z M 158.82 154.70 L 159.81 154.47 C 161.02 154.19 161.78 152.97 161.49 151.76 C 161.21 150.55 160.00 149.79 158.78 150.07 L 157.79 150.30 C 156.58 150.59 155.83 151.80 156.11 153.01 C 156.39 154.23 157.60 154.98 158.82 154.70 Z M 159.80 154.46 L 160.78 154.23 C 161.99 153.95 162.74 152.75 162.46 151.54 C 162.18 150.33 160.98 149.58 159.77 149.86 L 158.79 150.08 C 157.58 150.36 156.83 151.57 157.11 152.78 C 157.39 153.99 158.59 154.74 159.80 154.46 Z M 160.77 154.22 L 161.72 154.01 C 162.93 153.74 163.68 152.54 163.41 151.34 C 163.14 150.13 161.95 149.38 160.74 149.65 L 159.78 149.86 C 158.58 150.14 157.82 151.33 158.09 152.54 C 158.37 153.74 159.56 154.50 160.77 154.22 Z M 161.70 154.00 L 162.68 153.79 C 163.88 153.53 164.64 152.35 164.38 151.15 C 164.12 149.95 162.94 149.19 161.74 149.44 L 160.76 149.65 C 159.56 149.91 158.80 151.10 159.06 152.30 C 159.32 153.50 160.50 154.26 161.70 154.00 Z M 162.66 153.78 L 163.65 153.57 C 164.84 153.32 165.61 152.15 165.36 150.96 C 165.11 149.76 163.93 149.00 162.74 149.25 L 161.76 149.45 C 160.56 149.70 159.80 150.88 160.05 152.07 C 160.30 153.27 161.47 154.03 162.66 153.78 Z M 163.66 153.56 L 164.63 153.35 C 165.81 153.10 166.57 151.93 166.31 150.74 C 166.06 149.55 164.89 148.80 163.70 149.05 L 162.73 149.26 C 161.54 149.52 160.79 150.69 161.04 151.87 C 161.30 153.06 162.47 153.82 163.66 153.56 Z M 164.65 153.33 L 165.65 153.10 C 166.82 152.83 167.55 151.66 167.28 150.48 C 167.01 149.31 165.84 148.58 164.67 148.85 L 163.67 149.07 C 162.50 149.35 161.76 150.52 162.04 151.69 C 162.31 152.87 163.48 153.60 164.65 153.33 Z M 165.67 153.08 L 166.64 152.84 C 167.80 152.56 168.52 151.39 168.23 150.23 C 167.95 149.06 166.78 148.35 165.62 148.63 L 164.64 148.87 C 163.48 149.15 162.77 150.32 163.05 151.49 C 163.33 152.65 164.50 153.36 165.67 153.08 Z M 166.64 152.82 L 167.58 152.59 C 168.73 152.31 169.43 151.14 169.15 149.99 C 168.86 148.84 167.70 148.14 166.55 148.42 L 165.62 148.65 C 164.46 148.94 163.76 150.10 164.04 151.25 C 164.33 152.40 165.49 153.11 166.64 152.82 Z M 167.57 152.58 L 168.39 152.38 C 169.54 152.10 170.24 150.94 169.96 149.80 C 169.68 148.66 168.53 147.96 167.39 148.24 L 166.56 148.44 C 165.42 148.72 164.71 149.87 164.99 151.01 C 165.27 152.15 166.42 152.85 167.57 152.58 Z M 168.39 152.36 L 169.32 152.13 C 170.46 151.86 171.15 150.72 170.88 149.58 C 170.60 148.45 169.46 147.75 168.33 148.03 L 167.39 148.25 C 166.26 148.53 165.56 149.67 165.84 150.80 C 166.11 151.94 167.25 152.63 168.39 152.36 Z M 169.32 152.11 L 170.48 151.83 C 171.61 151.56 172.30 150.43 172.02 149.30 C 171.75 148.18 170.62 147.49 169.50 147.76 L 168.33 148.04 C 167.21 148.32 166.52 149.45 166.79 150.57 C 167.06 151.70 168.19 152.39 169.32 152.11 Z M 170.48 151.82 L 171.30 151.62 C 172.41 151.35 173.10 150.22 172.83 149.11 C 172.55 147.99 171.43 147.31 170.31 147.58 L 169.50 147.78 C 168.38 148.05 167.70 149.17 167.97 150.29 C 168.24 151.40 169.36 152.09 170.48 151.82 Z M 171.30 151.61 L 172.21 151.38 C 173.32 151.11 174.00 149.99 173.73 148.89 C 173.46 147.78 172.34 147.10 171.23 147.37 L 170.32 147.59 C 169.21 147.86 168.53 148.98 168.80 150.09 C 169.07 151.20 170.19 151.88 171.30 151.61 Z M 172.21 151.37 L 173.19 151.13 C 174.30 150.86 174.97 149.75 174.70 148.65 C 174.43 147.54 173.32 146.87 172.22 147.14 L 171.23 147.38 C 170.13 147.65 169.45 148.76 169.72 149.86 C 169.99 150.97 171.10 151.64 172.21 151.37 Z M 173.19 151.12 L 174.23 150.87 C 175.33 150.60 176.00 149.49 175.73 148.39 C 175.46 147.30 174.35 146.63 173.26 146.89 L 172.22 147.15 C 171.12 147.42 170.45 148.52 170.72 149.62 C 170.99 150.72 172.10 151.39 173.19 151.12 Z M 174.23 150.85 L 175.30 150.59 C 176.39 150.33 177.05 149.22 176.79 148.13 C 176.52 147.04 175.42 146.38 174.33 146.64 L 173.26 146.91 C 172.17 147.17 171.50 148.27 171.77 149.36 C 172.04 150.45 173.14 151.12 174.23 150.85 Z M 175.29 150.58 L 175.67 150.49 C 176.75 150.23 177.42 149.13 177.15 148.05 C 176.89 146.96 175.79 146.29 174.70 146.56 L 174.33 146.65 C 173.24 146.92 172.58 148.01 172.85 149.10 C 173.11 150.19 174.21 150.85 175.29 150.58 Z"
      fill="black"
      fill-rule="nonzero" /><path d="M 155.25 125.19 L 155.67 123.90 C 155.96 122.97 155.45 121.98 154.52 121.68 C 153.60 121.39 152.61 121.90 152.31 122.83 L 151.90 124.12 C 151.60 125.05 152.11 126.04 153.04 126.33 C 153.97 126.63 154.96 126.12 155.25 125.19 Z M 155.76 124.11 L 156.11 123.29 C 156.53 122.30 156.07 121.17 155.09 120.76 C 154.11 120.34 152.98 120.80 152.56 121.78 L 152.21 122.61 C 151.80 123.59 152.26 124.72 153.24 125.14 C 154.22 125.55 155.35 125.09 155.76 124.11 Z M 153.65 124.49 L 153.87 124.57 C 154.96 124.95 156.14 124.38 156.52 123.30 C 156.90 122.22 156.34 121.04 155.26 120.66 L 155.03 120.58 C 153.95 120.19 152.76 120.76 152.38 121.84 C 152.00 122.92 152.57 124.11 153.65 124.49 Z M 152.39 122.85 L 152.50 123.78 C 152.63 124.98 153.71 125.85 154.91 125.71 C 156.11 125.58 156.97 124.50 156.84 123.30 L 156.74 122.37 C 156.60 121.17 155.52 120.31 154.32 120.44 C 153.12 120.57 152.26 121.65 152.39 122.85 Z M 152.39 123.60 L 152.43 124.92 C 152.46 126.18 153.51 127.17 154.76 127.14 C 156.02 127.10 157.01 126.06 156.98 124.80 L 156.94 123.48 C 156.91 122.22 155.86 121.23 154.61 121.27 C 153.35 121.30 152.36 122.35 152.39 123.60 Z M 152.38 124.88 L 152.39 125.89 C 152.40 127.18 153.45 128.21 154.74 128.19 C 156.02 128.18 157.05 127.13 157.04 125.84 L 157.03 124.84 C 157.02 123.55 155.96 122.52 154.68 122.53 C 153.40 122.55 152.36 123.60 152.38 124.88 Z M 152.38 125.88 L 152.39 126.85 C 152.39 128.14 153.44 129.18 154.73 129.17 C 156.02 129.17 157.05 128.12 157.05 126.83 L 157.04 125.86 C 157.04 124.57 155.99 123.53 154.70 123.54 C 153.42 123.54 152.38 124.59 152.38 125.88 Z M 152.38 126.85 L 152.39 127.85 C 152.39 129.14 153.43 130.18 154.72 130.18 C 156.01 130.18 157.05 129.14 157.05 127.85 L 157.05 126.84 C 157.05 125.55 156.00 124.51 154.72 124.51 C 153.43 124.51 152.38 125.56 152.38 126.85 Z M 152.38 127.85 L 152.38 128.82 C 152.38 130.11 153.43 131.15 154.72 131.15 C 156.01 131.15 157.05 130.11 157.05 128.82 L 157.05 127.85 C 157.05 126.56 156.01 125.51 154.72 125.51 C 153.43 125.51 152.38 126.56 152.38 127.85 Z M 152.38 128.81 L 152.38 129.75 C 152.38 131.04 153.42 132.09 154.71 132.09 C 156.01 132.09 157.05 131.05 157.06 129.75 L 157.06 128.82 C 157.06 127.53 156.01 126.48 154.72 126.48 C 153.43 126.48 152.38 127.52 152.38 128.81 Z M 152.37 129.74 L 152.37 130.73 C 152.36 132.03 153.41 133.08 154.70 133.09 C 155.99 133.10 157.05 132.05 157.05 130.76 L 157.06 129.76 C 157.07 128.47 156.02 127.42 154.73 127.41 C 153.44 127.40 152.38 128.44 152.37 129.74 Z M 152.37 130.72 L 152.35 131.77 C 152.34 133.07 153.38 134.13 154.67 134.15 C 155.97 134.16 157.03 133.12 157.05 131.83 L 157.06 130.77 C 157.07 129.48 156.03 128.41 154.74 128.40 C 153.44 128.39 152.38 129.42 152.37 130.72 Z M 152.35 131.76 L 152.33 132.82 C 152.31 134.11 153.34 135.19 154.64 135.21 C 155.93 135.23 157.01 134.20 157.03 132.90 L 157.05 131.84 C 157.07 130.55 156.04 129.48 154.74 129.45 C 153.45 129.43 152.38 130.46 152.35 131.76 Z M 152.33 132.80 L 152.31 133.76 C 152.27 135.06 153.30 136.14 154.60 136.17 C 155.89 136.21 156.97 135.18 157.01 133.88 L 157.03 132.92 C 157.06 131.62 156.04 130.54 154.74 130.51 C 153.44 130.48 152.36 131.50 152.33 132.80 Z M 152.30 133.75 L 152.27 134.74 C 152.23 136.04 153.26 137.13 154.55 137.17 C 155.85 137.21 156.94 136.18 156.98 134.89 L 157.01 133.89 C 157.05 132.60 156.03 131.51 154.73 131.47 C 153.43 131.43 152.34 132.45 152.30 133.75 Z M 152.27 134.74 L 152.24 135.75 C 152.20 137.05 153.21 138.14 154.51 138.18 C 155.81 138.22 156.90 137.20 156.94 135.91 L 156.98 134.89 C 157.02 133.59 156.00 132.51 154.70 132.46 C 153.41 132.42 152.32 133.44 152.27 134.74 Z M 152.24 135.74 L 152.20 136.77 C 152.16 138.07 153.17 139.16 154.47 139.21 C 155.77 139.25 156.86 138.23 156.91 136.93 L 156.95 135.91 C 156.99 134.61 155.98 133.52 154.68 133.47 C 153.37 133.43 152.28 134.44 152.24 135.74 Z M 152.20 136.77 L 152.16 137.79 C 152.12 139.09 153.13 140.18 154.44 140.23 C 155.74 140.27 156.83 139.26 156.87 137.96 L 156.91 136.94 C 156.96 135.63 155.94 134.54 154.64 134.50 C 153.34 134.45 152.25 135.47 152.20 136.77 Z M 152.16 137.79 L 152.13 138.78 C 152.08 140.08 153.10 141.17 154.40 141.22 C 155.70 141.26 156.79 140.25 156.84 138.94 L 156.88 137.96 C 156.92 136.65 155.90 135.56 154.60 135.52 C 153.30 135.47 152.21 136.49 152.16 137.79 Z M 152.13 138.78 L 152.10 139.77 C 152.05 141.08 153.07 142.16 154.37 142.21 C 155.68 142.25 156.76 141.23 156.81 139.93 L 156.84 138.94 C 156.88 137.64 155.86 136.55 154.56 136.51 C 153.26 136.46 152.17 137.48 152.13 138.78 Z M 152.10 139.78 L 152.07 140.78 C 152.03 142.08 153.05 143.16 154.35 143.20 C 155.65 143.24 156.74 142.22 156.78 140.92 L 156.81 139.92 C 156.85 138.62 155.82 137.54 154.52 137.50 C 153.22 137.46 152.14 138.48 152.10 139.78 Z M 152.07 140.79 L 152.04 141.79 C 152.01 143.09 153.04 144.17 154.34 144.21 C 155.64 144.24 156.72 143.21 156.75 141.91 L 156.78 140.91 C 156.81 139.61 155.78 138.53 154.48 138.49 C 153.18 138.46 152.10 139.49 152.07 140.79 Z M 152.04 141.80 L 152.02 142.82 C 151.99 144.12 153.03 145.20 154.33 145.22 C 155.63 145.25 156.70 144.22 156.73 142.92 L 156.75 141.90 C 156.78 140.60 155.75 139.52 154.44 139.50 C 153.14 139.47 152.07 140.50 152.04 141.80 Z M 152.02 142.83 L 152.01 143.81 C 151.99 145.11 153.03 146.18 154.33 146.20 C 155.63 146.22 156.70 145.18 156.72 143.88 L 156.73 142.90 C 156.75 141.60 155.71 140.53 154.41 140.51 C 153.11 140.49 152.04 141.53 152.02 142.83 Z M 152.01 143.82 L 152.00 144.80 C 151.99 146.10 153.03 147.16 154.33 147.18 C 155.63 147.19 156.69 146.14 156.71 144.84 L 156.72 143.86 C 156.73 142.56 155.68 141.50 154.38 141.49 C 153.08 141.48 152.02 142.52 152.01 143.82 Z M 152.00 144.81 L 151.99 145.80 C 151.99 147.10 153.03 148.16 154.33 148.17 C 155.63 148.18 156.69 147.13 156.70 145.83 L 156.71 144.83 C 156.71 143.53 155.67 142.47 154.37 142.47 C 153.07 142.46 152.01 143.51 152.00 144.81 Z M 151.99 145.81 L 151.99 146.82 C 151.99 148.12 153.04 149.17 154.34 149.18 C 155.64 149.18 156.69 148.13 156.70 146.83 L 156.70 145.82 C 156.70 144.52 155.65 143.46 154.35 143.46 C 153.05 143.46 152.00 144.51 151.99 145.81 Z M 151.99 146.82 L 151.99 147.84 C 151.99 149.14 153.04 150.19 154.34 150.20 C 155.64 150.20 156.70 149.14 156.70 147.85 L 156.70 146.82 C 156.70 145.52 155.65 144.47 154.35 144.47 C 153.05 144.47 151.99 145.52 151.99 146.82 Z M 151.99 147.84 L 151.99 148.87 C 151.99 150.17 153.04 151.22 154.34 151.22 C 155.64 151.22 156.70 150.17 156.70 148.87 L 156.70 147.84 C 156.70 146.54 155.64 145.49 154.34 145.49 C 153.04 145.49 151.99 146.54 151.99 147.84 Z M 151.99 148.87 L 151.99 149.84 C 151.99 151.14 153.05 152.19 154.34 152.19 C 155.64 152.19 156.69 151.14 156.69 149.84 L 156.69 148.87 C 156.69 147.57 155.64 146.52 154.34 146.52 C 153.05 146.52 151.99 147.57 151.99 148.87 Z M 152.00 149.84 L 152.00 150.82 C 152.00 152.12 153.05 153.17 154.34 153.17 C 155.64 153.17 156.69 152.12 156.69 150.82 L 156.69 149.84 C 156.69 148.54 155.64 147.49 154.34 147.49 C 153.05 147.49 152.00 148.54 152.00 149.84 Z M 152.00 150.82 L 152.00 151.82 C 152.00 153.11 153.05 154.16 154.34 154.16 C 155.64 154.16 156.69 153.11 156.69 151.82 L 156.69 150.82 C 156.69 149.53 155.64 148.48 154.34 148.48 C 153.05 148.48 152.00 149.53 152.00 150.82 Z M 152.01 151.82 L 152.01 152.83 C 152.01 154.12 153.05 155.16 154.34 155.16 C 155.63 155.16 156.68 154.12 156.68 152.83 L 156.68 151.82 C 156.68 150.53 155.63 149.48 154.34 149.48 C 153.05 149.48 152.01 150.53 152.01 151.82 Z M 152.01 152.83 L 152.01 153.84 C 152.01 155.13 153.05 156.18 154.34 156.18 C 155.63 156.18 156.68 155.13 156.68 153.84 L 156.68 152.83 C 156.68 151.54 155.63 150.49 154.34 150.49 C 153.05 150.49 152.01 151.54 152.01 152.83 Z M 152.01 153.84 L 152.01 154.87 C 152.01 156.16 153.06 157.20 154.34 157.20 C 155.63 157.20 156.67 156.16 156.67 154.87 L 156.67 153.84 C 156.67 152.56 155.63 151.51 154.34 151.51 C 153.06 151.51 152.01 152.56 152.01 153.84 Z M 152.02 154.87 L 152.02 155.85 C 152.02 157.14 153.06 158.18 154.34 158.18 C 155.63 158.18 156.67 157.14 156.67 155.85 L 156.67 154.87 C 156.67 153.59 155.63 152.55 154.34 152.55 C 153.06 152.55 152.02 153.59 152.02 154.87 Z M 152.02 155.85 L 152.02 156.84 C 152.02 158.13 153.06 159.16 154.34 159.16 C 155.63 159.16 156.66 158.13 156.66 156.84 L 156.66 155.85 C 156.66 154.57 155.63 153.53 154.34 153.53 C 153.06 153.53 152.02 154.57 152.02 155.85 Z M 152.03 156.84 L 152.03 157.84 C 152.03 159.12 153.06 160.16 154.34 160.16 C 155.62 160.16 156.66 159.12 156.66 157.84 L 156.66 156.84 C 156.66 155.56 155.62 154.53 154.34 154.53 C 153.06 154.53 152.03 155.56 152.03 156.84 Z M 152.03 157.84 L 152.03 158.84 C 152.03 160.12 153.07 161.16 154.34 161.16 C 155.62 161.16 156.65 160.12 156.65 158.84 L 156.65 157.84 C 156.65 156.56 155.62 155.53 154.34 155.53 C 153.07 155.53 152.03 156.56 152.03 157.84 Z M 152.04 158.84 L 152.04 159.85 C 152.04 161.13 153.07 162.16 154.34 162.16 C 155.62 162.16 156.65 161.13 156.65 159.85 L 156.65 158.84 C 156.65 157.57 155.62 156.54 154.34 156.54 C 153.07 156.54 152.04 157.57 152.04 158.84 Z M 152.04 159.85 L 152.04 160.87 C 152.04 162.14 153.07 163.17 154.34 163.17 C 155.61 163.17 156.64 162.14 156.64 160.87 L 156.64 159.85 C 156.64 158.58 155.61 157.55 154.34 157.55 C 153.07 157.55 152.04 158.58 152.04 159.85 Z M 152.05 160.87 L 152.05 161.87 C 152.05 163.13 153.08 164.16 154.34 164.16 C 155.61 164.16 156.64 163.13 156.64 161.87 L 156.64 160.87 C 156.64 159.60 155.61 158.57 154.34 158.57 C 153.08 158.57 152.05 159.60 152.05 160.87 Z M 152.06 161.87 L 152.06 162.86 C 152.06 164.12 153.08 165.15 154.34 165.15 C 155.61 165.15 156.63 164.12 156.63 162.86 L 156.63 161.87 C 156.63 160.60 155.61 159.58 154.34 159.58 C 153.08 159.58 152.06 160.60 152.06 161.87 Z M 152.06 162.86 L 152.06 163.86 C 152.06 165.11 153.09 166.13 154.34 166.13 C 155.60 166.13 156.62 165.11 156.62 163.86 L 156.62 162.86 C 156.62 161.60 155.60 160.58 154.34 160.58 C 153.09 160.58 152.06 161.60 152.06 162.86 Z M 152.07 163.86 L 152.07 164.85 C 152.07 166.11 153.09 167.12 154.34 167.12 C 155.60 167.12 156.61 166.11 156.61 164.85 L 156.61 163.86 C 156.61 162.60 155.60 161.59 154.34 161.59 C 153.09 161.59 152.07 162.60 152.07 163.86 Z M 152.08 164.85 L 152.08 165.86 C 152.08 167.11 153.09 168.12 154.34 168.12 C 155.59 168.12 156.60 167.11 156.60 165.86 L 156.60 164.85 C 156.60 163.61 155.59 162.59 154.34 162.59 C 153.09 162.59 152.08 163.61 152.08 164.85 Z M 152.09 165.86 L 152.09 166.86 C 152.09 168.11 153.10 169.11 154.34 169.11 C 155.59 169.11 156.60 168.11 156.60 166.86 L 156.60 165.86 C 156.60 164.61 155.59 163.60 154.34 163.60 C 153.10 163.60 152.09 164.61 152.09 165.86 Z M 152.10 166.86 L 152.10 167.87 C 152.10 169.11 153.10 170.11 154.34 170.11 C 155.58 170.11 156.59 169.11 156.59 167.87 L 156.59 166.86 C 156.59 165.62 155.58 164.62 154.34 164.62 C 153.10 164.62 152.10 165.62 152.10 166.86 Z M 152.11 167.87 L 152.11 168.91 C 152.11 170.14 153.11 171.14 154.34 171.14 C 155.58 171.14 156.58 170.14 156.58 168.91 L 156.58 167.87 C 156.58 166.64 155.58 165.64 154.34 165.64 C 153.11 165.64 152.11 166.64 152.11 167.87 Z M 152.13 168.91 L 152.13 169.95 C 152.13 171.17 153.12 172.16 154.34 172.16 C 155.57 172.16 156.56 171.17 156.56 169.95 L 156.56 168.91 C 156.56 167.68 155.57 166.69 154.34 166.69 C 153.12 166.69 152.13 167.68 152.13 168.91 Z M 152.14 169.95 L 152.14 170.97 C 152.14 172.19 153.13 173.18 154.34 173.18 C 155.56 173.18 156.55 172.19 156.55 170.97 L 156.55 169.95 C 156.55 168.73 155.56 167.74 154.34 167.74 C 153.13 167.74 152.14 168.73 152.14 169.95 Z M 152.15 170.97 L 152.15 171.98 C 152.15 173.19 153.13 174.17 154.34 174.17 C 155.55 174.17 156.53 173.19 156.53 171.98 L 156.53 170.97 C 156.53 169.76 155.55 168.78 154.34 168.78 C 153.13 168.78 152.15 169.76 152.15 170.97 Z M 152.17 171.98 L 152.17 172.97 C 152.17 174.17 153.14 175.14 154.34 175.14 C 155.55 175.14 156.52 174.17 156.52 172.97 L 156.52 171.98 C 156.52 170.78 155.55 169.81 154.34 169.81 C 153.14 169.81 152.17 170.78 152.17 171.98 Z M 152.18 172.97 L 152.18 173.92 C 152.18 175.11 153.15 176.08 154.34 176.08 C 155.54 176.08 156.50 175.11 156.50 173.92 L 156.50 172.97 C 156.50 171.77 155.54 170.81 154.34 170.81 C 153.15 170.81 152.18 171.77 152.18 172.97 Z M 152.20 173.92 L 152.20 174.93 C 152.20 176.12 153.16 177.08 154.34 177.08 C 155.53 177.08 156.49 176.12 156.49 174.93 L 156.49 173.92 C 156.49 172.73 155.53 171.77 154.34 171.77 C 153.16 171.77 152.20 172.73 152.20 173.92 Z M 152.22 174.93 L 152.22 176.03 C 152.22 177.21 153.17 178.16 154.34 178.16 C 155.52 178.16 156.47 177.21 156.47 176.03 L 156.47 174.93 C 156.47 173.76 155.52 172.81 154.34 172.81 C 153.17 172.81 152.22 173.76 152.22 174.93 Z M 152.24 176.03 L 152.24 177.06 C 152.24 178.23 153.18 179.17 154.35 179.17 C 155.51 179.17 156.46 178.22 156.45 177.06 L 156.45 176.03 C 156.45 174.86 155.51 173.92 154.34 173.92 C 153.18 173.92 152.23 174.87 152.24 176.03 Z M 152.26 177.07 L 152.26 178.04 C 152.26 179.19 153.20 180.13 154.35 180.12 C 155.51 180.12 156.44 179.18 156.44 178.03 L 156.43 177.06 C 156.43 175.90 155.49 174.97 154.34 174.97 C 153.18 174.98 152.25 175.91 152.26 177.07 Z M 152.28 178.05 L 152.28 178.96 C 152.29 180.11 153.22 181.03 154.37 181.02 C 155.51 181.01 156.43 180.08 156.42 178.94 L 156.42 178.02 C 156.41 176.88 155.48 175.96 154.34 175.96 C 153.19 175.97 152.27 176.90 152.28 178.05 Z M 152.30 178.97 L 152.31 179.94 C 152.32 181.08 153.25 181.98 154.38 181.97 C 155.52 181.96 156.42 181.04 156.41 179.90 L 156.40 178.93 C 156.39 177.80 155.47 176.89 154.33 176.90 C 153.20 176.91 152.29 177.84 152.30 178.97 Z M 152.33 179.96 L 152.35 181.04 C 152.37 182.16 153.29 183.06 154.41 183.04 C 155.53 183.02 156.43 182.10 156.41 180.98 L 156.39 179.89 C 156.38 178.77 155.45 177.88 154.33 177.89 C 153.21 177.91 152.32 178.83 152.33 179.96 Z M 152.37 181.06 L 152.39 182.06 C 152.42 183.17 153.34 184.05 154.45 184.02 C 155.56 183.99 156.44 183.07 156.41 181.96 L 156.39 180.96 C 156.36 179.85 155.44 178.97 154.33 179.00 C 153.22 179.03 152.34 179.95 152.37 181.06 Z M 152.42 182.08 L 152.45 183.00 C 152.48 184.10 153.40 184.96 154.50 184.92 C 155.60 184.88 156.46 183.96 156.43 182.86 L 156.39 181.94 C 156.36 180.84 155.44 179.98 154.34 180.02 C 153.24 180.06 152.38 180.98 152.42 182.08 Z M 152.47 183.03 L 152.52 184.02 C 152.58 185.11 153.50 185.94 154.58 185.89 C 155.67 185.84 156.51 184.91 156.45 183.83 L 156.40 182.83 C 156.35 181.74 155.42 180.91 154.34 180.96 C 153.25 181.02 152.42 181.94 152.47 183.03 Z M 152.56 184.13 L 152.67 185.13 C 152.78 186.19 153.74 186.96 154.80 186.85 C 155.87 186.73 156.64 185.78 156.52 184.71 L 156.41 183.72 C 156.30 182.65 155.34 181.88 154.28 182.00 C 153.21 182.11 152.44 183.07 152.56 184.13 Z M 152.74 185.37 L 152.96 186.29 C 153.21 187.32 154.24 187.95 155.27 187.70 C 156.29 187.45 156.92 186.42 156.67 185.39 L 156.45 184.47 C 156.20 183.44 155.17 182.82 154.14 183.06 C 153.12 183.31 152.49 184.35 152.74 185.37 Z M 153.10 186.59 L 153.48 187.46 C 153.90 188.41 155.00 188.84 155.95 188.43 C 156.89 188.02 157.33 186.92 156.91 185.97 L 156.53 185.09 C 156.12 184.15 155.02 183.71 154.07 184.13 C 153.12 184.54 152.69 185.64 153.10 186.59 Z M 153.63 187.64 L 154.14 188.50 C 154.65 189.37 155.77 189.66 156.63 189.15 C 157.50 188.63 157.79 187.52 157.28 186.65 L 156.77 185.79 C 156.26 184.92 155.14 184.63 154.27 185.15 C 153.40 185.66 153.12 186.78 153.63 187.64 Z M 154.23 188.57 L 154.81 189.42 C 155.36 190.24 156.46 190.45 157.27 189.91 C 158.09 189.36 158.30 188.26 157.76 187.44 L 157.18 186.59 C 156.63 185.77 155.53 185.56 154.72 186.10 C 153.90 186.65 153.69 187.75 154.23 188.57 Z M 154.84 189.42 L 154.89 189.49 C 155.43 190.28 156.52 190.48 157.32 189.94 C 158.11 189.39 158.31 188.30 157.77 187.51 L 157.72 187.44 C 157.18 186.65 156.09 186.45 155.29 186.99 C 154.50 187.54 154.30 188.63 154.84 189.42 Z"
      fill="black"
      fill-rule="nonzero" /></svg>