<svg xmlns="http://www.w3.org/2000/svg" width="300" height="300" viewBox="0 0 300 300">
<path d="M 124.81 134.93 L 123.64 135.35 C 122.67 135.70 122.16 136.78 122.51 137.75 C 122.86 138.72 123.94 139.23 124.91 138.88 L 126.08 138.46 C 127.05 138.11 127.55 137.03 127.20 136.06 C 126.85 135.09 125.78 134.58 124.81 134.93 Z M 126.14 136.51 L 126.09 136.36 C 125.76 135.32 124.65 134.76 123.62 135.09 C 122.59 135.42 122.02 136.53 122.35 137.56 L 122.41 137.72 C 122.74 138.75 123.84 139.32 124.87 138.98 C 125.91 138.65 126.47 137.55 126.14 136.51 Z M 125.40 138.58 L 126.15 138.03 C 127.04 137.39 127.24 136.14 126.59 135.24 C 125.95 134.35 124.70 134.15 123.80 134.79 L 123.05 135.34 C 122.16 135.98 121.95 137.23 122.60 138.13 C 123.25 139.02 124.50 139.23 125.40 138.58 Z M 126.05 138.11 L 127.15 137.41 C 128.09 136.81 128.36 135.57 127.76 134.63 C 127.17 133.70 125.93 133.42 124.99 134.02 L 123.89 134.72 C 122.96 135.32 122.68 136.56 123.28 137.49 C 123.88 138.43 125.12 138.70 126.05 138.11 Z M 127.10 137.44 L 127.88 136.98 C 128.84 136.41 129.15 135.17 128.58 134.22 C 128.01 133.26 126.78 132.95 125.82 133.52 L 125.04 133.99 C 124.08 134.55 123.77 135.79 124.34 136.75 C 124.91 137.70 126.15 138.01 127.10 137.44 Z M 127.84 137.00 L 128.67 136.53 C 129.63 135.99 129.97 134.76 129.42 133.79 C 128.88 132.82 127.65 132.48 126.68 133.03 L 125.86 133.50 C 124.89 134.04 124.55 135.27 125.10 136.24 C 125.65 137.21 126.88 137.55 127.84 137.00 Z M 128.64 136.55 L 129.55 136.05 C 130.53 135.52 130.89 134.30 130.36 133.32 C 129.83 132.35 128.60 131.99 127.63 132.52 L 126.71 133.02 C 125.73 133.55 125.37 134.77 125.91 135.75 C 126.44 136.72 127.66 137.08 128.64 136.55 Z M 129.53 136.06 L 130.46 135.57 C 131.44 135.05 131.81 133.83 131.29 132.85 C 130.77 131.87 129.55 131.49 128.57 132.02 L 127.64 132.51 C 126.66 133.03 126.29 134.25 126.81 135.23 C 127.33 136.21 128.55 136.58 129.53 136.06 Z M 130.45 135.57 L 131.24 135.16 C 132.22 134.64 132.60 133.42 132.08 132.44 C 131.57 131.46 130.35 131.08 129.37 131.60 L 128.58 132.01 C 127.60 132.53 127.22 133.75 127.74 134.73 C 128.25 135.71 129.47 136.09 130.45 135.57 Z M 131.23 135.16 L 132.09 134.71 C 133.07 134.20 133.45 132.99 132.94 132.00 C 132.42 131.02 131.21 130.64 130.23 131.15 L 129.37 131.60 C 128.39 132.11 128.01 133.32 128.53 134.31 C 129.04 135.29 130.25 135.67 131.23 135.16 Z M 132.08 134.71 L 132.99 134.24 C 133.97 133.73 134.35 132.52 133.84 131.54 C 133.33 130.55 132.12 130.17 131.14 130.68 L 130.23 131.15 C 129.25 131.66 128.87 132.87 129.38 133.86 C 129.89 134.84 131.10 135.22 132.08 134.71 Z M 132.99 134.24 L 133.94 133.74 C 134.92 133.24 135.30 132.03 134.79 131.05 C 134.28 130.07 133.07 129.68 132.09 130.19 L 131.14 130.68 C 130.16 131.19 129.78 132.40 130.29 133.38 C 130.80 134.36 132.00 134.74 132.99 134.24 Z M 133.93 133.74 L 134.91 133.23 C 135.89 132.73 136.28 131.52 135.77 130.54 C 135.26 129.56 134.06 129.18 133.08 129.69 L 132.10 130.19 C 131.12 130.70 130.73 131.91 131.24 132.89 C 131.75 133.87 132.95 134.25 133.93 133.74 Z M 134.91 133.22 L 135.85 132.74 C 136.83 132.23 137.21 131.04 136.70 130.06 C 136.20 129.09 135.00 128.70 134.03 129.21 L 133.08 129.70 C 132.11 130.20 131.73 131.40 132.23 132.37 C 132.73 133.35 133.93 133.73 134.91 133.22 Z M 135.84 132.72 L 136.78 132.24 C 137.75 131.74 138.13 130.55 137.63 129.59 C 137.13 128.62 135.95 128.24 134.98 128.74 L 134.04 129.22 C 133.07 129.72 132.69 130.91 133.19 131.87 C 133.69 132.84 134.87 133.22 135.84 132.72 Z M 136.77 132.22 L 137.69 131.74 C 138.65 131.25 139.03 130.08 138.54 129.13 C 138.05 128.17 136.88 127.79 135.92 128.28 L 134.99 128.76 C 134.04 129.25 133.66 130.42 134.15 131.37 C 134.64 132.33 135.81 132.71 136.77 132.22 Z M 137.68 131.73 L 138.57 131.27 C 139.52 130.79 139.90 129.63 139.42 128.69 C 138.94 127.74 137.78 127.36 136.83 127.84 L 135.93 128.30 C 134.99 128.78 134.61 129.94 135.09 130.89 C 135.57 131.83 136.73 132.21 137.68 131.73 Z M 138.56 131.26 L 139.40 130.84 C 140.34 130.36 140.72 129.22 140.25 128.28 C 139.78 127.34 138.63 126.96 137.69 127.43 L 136.85 127.86 C 135.91 128.33 135.53 129.47 136.00 130.41 C 136.47 131.35 137.62 131.73 138.56 131.26 Z M 139.38 130.82 L 140.22 130.41 C 141.15 129.95 141.53 128.82 141.07 127.89 C 140.61 126.96 139.49 126.57 138.56 127.03 L 137.72 127.45 C 136.78 127.91 136.40 129.03 136.86 129.97 C 137.32 130.90 138.45 131.28 139.38 130.82 Z M 140.18 130.38 L 141.21 129.88 C 142.12 129.45 142.51 128.35 142.07 127.44 C 141.64 126.52 140.54 126.13 139.63 126.57 L 138.60 127.06 C 137.68 127.50 137.29 128.60 137.73 129.51 C 138.17 130.43 139.26 130.81 140.18 130.38 Z M 141.16 129.84 L 142.07 129.42 C 142.95 129.01 143.34 127.96 142.93 127.07 C 142.52 126.18 141.47 125.79 140.58 126.20 L 139.68 126.62 C 138.79 127.03 138.40 128.08 138.81 128.97 C 139.22 129.86 140.27 130.24 141.16 129.84 Z M 142.02 129.37 L 142.85 129.00 C 143.71 128.61 144.10 127.60 143.71 126.74 C 143.33 125.88 142.32 125.50 141.46 125.88 L 140.63 126.25 C 139.77 126.64 139.38 127.65 139.77 128.51 C 140.15 129.37 141.16 129.75 142.02 129.37 Z M 142.82 128.95 L 143.36 128.72 C 144.19 128.35 144.57 127.37 144.20 126.54 C 143.83 125.70 142.86 125.32 142.02 125.69 L 141.48 125.93 C 140.65 126.30 140.27 127.27 140.64 128.11 C 141.01 128.94 141.98 129.32 142.82 128.95 Z"
      fill="black"
      fill-rule="nonzero" /><path d="M 131.29 123.42 L 131.62 124.37 C 131.93 125.28 132.92 125.76 133.82 125.44 C 134.73 125.13 135.21 124.15 134.89 123.24 L 134.57 122.29 C 134.25 121.39 133.27 120.91 132.37 121.22 C 131.46 121.53 130.98 122.52 131.29 123.42 Z M 131.43 124.33 L 131.70 125.29 C 131.99 126.30 133.04 126.89 134.06 126.60 C 135.07 126.31 135.65 125.25 135.36 124.24 L 135.09 123.29 C 134.80 122.28 133.75 121.69 132.74 121.98 C 131.73 122.27 131.14 123.32 131.43 124.33 Z M 131.53 125.11 L 131.70 126.07 C 131.89 127.17 132.94 127.91 134.04 127.72 C 135.15 127.53 135.89 126.48 135.70 125.37 L 135.53 124.42 C 135.34 123.31 134.29 122.57 133.19 122.77 C 132.08 122.96 131.34 124.01 131.53 125.11 Z M 131.63 125.85 L 131.69 126.82 C 131.76 127.96 132.75 128.83 133.89 128.76 C 135.04 128.68 135.90 127.70 135.83 126.55 L 135.77 125.59 C 135.69 124.44 134.71 123.57 133.56 123.65 C 132.42 123.72 131.55 124.71 131.63 125.85 Z M 131.68 126.71 L 131.69 127.75 C 131.71 128.90 132.64 129.82 133.79 129.81 C 134.94 129.80 135.86 128.86 135.85 127.71 L 135.84 126.67 C 135.82 125.52 134.89 124.60 133.74 124.61 C 132.59 124.62 131.67 125.56 131.68 126.71 Z M 131.69 127.73 L 131.69 128.67 C 131.69 129.82 132.62 130.75 133.77 130.75 C 134.92 130.75 135.85 129.82 135.85 128.67 L 135.85 127.73 C 135.85 126.59 134.92 125.66 133.77 125.66 C 132.62 125.66 131.69 126.59 131.69 127.73 Z M 131.69 128.67 L 131.69 129.66 C 131.69 130.81 132.62 131.74 133.77 131.74 C 134.92 131.74 135.85 130.81 135.85 129.66 L 135.85 128.67 C 135.85 127.52 134.92 126.59 133.77 126.59 C 132.62 126.59 131.69 127.52 131.69 128.67 Z M 131.69 129.66 L 131.69 130.71 C 131.69 131.86 132.62 132.79 133.77 132.79 C 134.92 132.79 135.85 131.86 135.85 130.71 L 135.85 129.66 C 135.85 128.51 134.92 127.58 133.77 127.58 C 132.62 127.58 131.69 128.51 131.69 129.66 Z M 131.69 130.71 L 131.69 131.69 C 131.69 132.84 132.62 133.78 133.77 133.78 C 134.92 133.78 135.85 132.84 135.85 131.69 L 135.85 130.71 C 135.85 129.56 134.92 128.63 133.77 128.63 C 132.62 128.63 131.69 129.56 131.69 130.71 Z M 131.68 131.69 L 131.68 132.65 C 131.68 133.80 132.62 134.74 133.77 134.74 C 134.92 134.74 135.86 133.80 135.86 132.65 L 135.86 131.69 C 135.86 130.54 134.92 129.61 133.77 129.61 C 132.62 129.61 131.68 130.54 131.68 131.69 Z M 131.68 132.65 L 131.68 133.65 C 131.68 134.81 132.61 135.75 133.77 135.75 C 134.93 135.75 135.86 134.81 135.86 133.65 L 135.86 132.65 C 135.86 131.49 134.93 130.56 133.77 130.56 C 132.61 130.56 131.68 131.49 131.68 132.65 Z M 131.67 133.65 L 131.67 134.71 C 131.67 135.87 132.61 136.81 133.77 136.81 C 134.93 136.81 135.87 135.87 135.87 134.71 L 135.87 133.65 C 135.87 132.49 134.93 131.55 133.77 131.55 C 132.61 131.55 131.67 132.49 131.67 133.65 Z M 131.67 134.71 L 131.67 135.70 C 131.67 136.87 132.61 137.81 133.77 137.81 C 134.93 137.81 135.87 136.87 135.87 135.70 L 135.87 134.71 C 135.87 133.55 134.93 132.61 133.77 132.61 C 132.61 132.61 131.67 133.55 131.67 134.71 Z M 131.67 135.70 L 131.67 136.68 C 131.67 137.84 132.61 138.78 133.77 138.78 C 134.93 138.78 135.87 137.84 135.87 136.68 L 135.87 135.70 C 135.87 134.54 134.93 133.60 133.77 133.60 C 132.61 133.60 131.67 134.54 131.67 135.70 Z M 131.66 136.68 L 131.66 137.68 C 131.66 138.85 132.61 139.79 133.77 139.79 C 134.93 139.79 135.88 138.85 135.88 137.68 L 135.88 136.68 C 135.88 135.51 134.93 134.57 133.77 134.57 C 132.61 134.57 131.66 135.51 131.66 136.68 Z M 131.66 137.68 L 131.66 138.71 C 131.66 139.87 132.60 140.82 133.77 140.82 C 134.93 140.82 135.88 139.87 135.88 138.71 L 135.88 137.68 C 135.88 136.52 134.93 135.57 133.77 135.57 C 132.60 135.57 131.66 136.52 131.66 137.68 Z M 131.66 138.71 L 131.66 139.74 C 131.66 140.91 132.60 141.85 133.77 141.85 C 134.94 141.85 135.88 140.91 135.88 139.74 L 135.88 138.71 C 135.88 137.54 134.94 136.59 133.77 136.59 C 132.60 136.59 131.66 137.54 131.66 138.71 Z M 131.66 139.74 L 131.66 140.74 C 131.66 141.91 132.60 142.86 133.77 142.86 C 134.94 142.86 135.88 141.91 135.88 140.74 L 135.88 139.74 C 135.88 138.57 134.94 137.63 133.77 137.63 C 132.60 137.63 131.66 138.57 131.66 139.74 Z M 131.65 140.74 L 131.65 141.74 C 131.65 142.91 132.59 143.86 133.76 143.86 C 134.93 143.86 135.88 142.92 135.88 141.75 L 135.88 140.75 C 135.89 139.58 134.94 138.63 133.77 138.63 C 132.61 138.63 131.66 139.57 131.65 140.74 Z M 131.65 141.73 L 131.64 142.73 C 131.64 143.90 132.58 144.85 133.75 144.86 C 134.92 144.87 135.87 143.93 135.88 142.76 L 135.88 141.76 C 135.89 140.59 134.95 139.63 133.78 139.63 C 132.61 139.62 131.66 140.56 131.65 141.73 Z M 131.64 142.72 L 131.63 143.72 C 131.61 144.89 132.55 145.85 133.72 145.86 C 134.89 145.88 135.85 144.94 135.87 143.77 L 135.88 142.77 C 135.89 141.60 134.96 140.64 133.79 140.63 C 132.62 140.61 131.66 141.55 131.64 142.72 Z M 131.63 143.70 L 131.61 144.70 C 131.58 145.87 132.51 146.84 133.68 146.86 C 134.85 146.89 135.82 145.96 135.85 144.79 L 135.87 143.79 C 135.89 142.62 134.96 141.65 133.79 141.62 C 132.62 141.60 131.65 142.53 131.63 143.70 Z M 131.60 144.67 L 131.57 145.67 C 131.53 146.84 132.45 147.82 133.62 147.86 C 134.80 147.90 135.78 146.98 135.81 145.81 L 135.85 144.81 C 135.88 143.64 134.97 142.66 133.79 142.62 C 132.62 142.58 131.64 143.50 131.60 144.67 Z M 131.57 145.65 L 131.53 146.65 C 131.48 147.82 132.39 148.81 133.56 148.86 C 134.73 148.91 135.72 148.00 135.77 146.83 L 135.82 145.83 C 135.87 144.66 134.96 143.67 133.78 143.62 C 132.61 143.57 131.62 144.48 131.57 145.65 Z M 131.52 146.63 L 131.47 147.63 C 131.41 148.80 132.32 149.80 133.49 149.86 C 134.67 149.92 135.67 149.02 135.73 147.84 L 135.78 146.84 C 135.84 145.67 134.93 144.67 133.76 144.61 C 132.58 144.55 131.58 145.45 131.52 146.63 Z M 131.47 147.61 L 131.41 148.61 C 131.35 149.79 132.24 150.79 133.42 150.86 C 134.59 150.93 135.60 150.03 135.67 148.86 L 135.73 147.86 C 135.80 146.68 134.90 145.68 133.72 145.61 C 132.55 145.54 131.54 146.44 131.47 147.61 Z M 131.41 148.60 L 131.35 149.60 C 131.27 150.78 132.16 151.79 133.34 151.87 C 134.52 151.94 135.53 151.05 135.61 149.87 L 135.67 148.87 C 135.75 147.69 134.85 146.68 133.68 146.60 C 132.50 146.53 131.49 147.42 131.41 148.60 Z M 131.34 149.59 L 131.28 150.58 C 131.19 151.76 132.08 152.78 133.26 152.86 C 134.44 152.94 135.46 152.06 135.54 150.88 L 135.61 149.88 C 135.69 148.71 134.80 147.69 133.62 147.60 C 132.45 147.52 131.43 148.41 131.34 149.59 Z M 131.27 150.58 L 131.20 151.57 C 131.12 152.75 132.00 153.78 133.18 153.86 C 134.36 153.95 135.38 153.06 135.47 151.88 L 135.54 150.89 C 135.63 149.71 134.74 148.68 133.56 148.60 C 132.38 148.51 131.36 149.40 131.27 150.58 Z M 131.20 151.57 L 131.12 152.57 C 131.04 153.75 131.92 154.78 133.10 154.86 C 134.28 154.95 135.31 154.07 135.40 152.89 L 135.47 151.89 C 135.56 150.71 134.68 149.68 133.50 149.59 C 132.32 149.50 131.29 150.39 131.20 151.57 Z M 131.12 152.56 L 131.04 153.56 C 130.95 154.74 131.84 155.77 133.02 155.87 C 134.20 155.96 135.23 155.07 135.32 153.89 L 135.40 152.89 C 135.49 151.71 134.61 150.68 133.42 150.59 C 132.24 150.50 131.21 151.38 131.12 152.56 Z M 131.04 153.56 L 130.97 154.56 C 130.87 155.74 131.76 156.77 132.94 156.87 C 134.12 156.96 135.16 156.07 135.25 154.89 L 135.33 153.89 C 135.42 152.71 134.53 151.68 133.35 151.58 C 132.17 151.49 131.13 152.38 131.04 153.56 Z M 130.96 154.56 L 130.88 155.56 C 130.79 156.75 131.68 157.78 132.86 157.87 C 134.05 157.96 135.08 157.08 135.17 155.89 L 135.25 154.89 C 135.34 153.70 134.46 152.67 133.27 152.58 C 132.09 152.49 131.05 153.37 130.96 154.56 Z M 130.88 155.56 L 130.80 156.56 C 130.71 157.75 131.60 158.78 132.79 158.88 C 133.97 158.97 135.01 158.08 135.10 156.89 L 135.18 155.89 C 135.27 154.71 134.38 153.67 133.20 153.58 C 132.01 153.49 130.97 154.37 130.88 155.56 Z M 130.80 156.56 L 130.72 157.55 C 130.63 158.74 131.51 159.78 132.70 159.88 C 133.89 159.97 134.93 159.08 135.02 157.89 L 135.10 156.90 C 135.20 155.71 134.31 154.67 133.12 154.58 C 131.93 154.48 130.89 155.37 130.80 156.56 Z M 130.72 157.55 L 130.64 158.54 C 130.54 159.73 131.43 160.77 132.62 160.87 C 133.81 160.97 134.85 160.08 134.95 158.89 L 135.03 157.90 C 135.12 156.71 134.24 155.67 133.05 155.57 C 131.86 155.47 130.82 156.36 130.72 157.55 Z M 130.64 158.53 L 130.55 159.52 C 130.45 160.72 131.34 161.76 132.53 161.86 C 133.72 161.96 134.77 161.08 134.87 159.89 L 134.95 158.90 C 135.05 157.71 134.17 156.66 132.97 156.56 C 131.78 156.46 130.74 157.34 130.64 158.53 Z M 130.55 159.52 L 130.46 160.51 C 130.36 161.70 131.24 162.76 132.43 162.86 C 133.62 162.97 134.67 162.08 134.78 160.89 L 134.87 159.90 C 134.97 158.71 134.09 157.65 132.90 157.55 C 131.71 157.44 130.65 158.32 130.55 159.52 Z M 130.46 160.50 L 130.37 161.50 C 130.26 162.69 131.14 163.75 132.33 163.86 C 133.53 163.96 134.58 163.09 134.69 161.89 L 134.78 160.90 C 134.89 159.71 134.01 158.65 132.82 158.54 C 131.63 158.43 130.57 159.31 130.46 160.50 Z M 130.37 161.49 L 130.27 162.49 C 130.16 163.68 131.04 164.74 132.23 164.85 C 133.43 164.96 134.49 164.09 134.60 162.89 L 134.69 161.90 C 134.80 160.70 133.93 159.64 132.73 159.53 C 131.54 159.42 130.48 160.30 130.37 161.49 Z M 130.27 162.48 L 130.18 163.48 C 130.06 164.67 130.94 165.74 132.14 165.85 C 133.33 165.96 134.39 165.09 134.51 163.89 L 134.60 162.89 C 134.71 161.70 133.84 160.64 132.64 160.52 C 131.45 160.41 130.39 161.29 130.27 162.48 Z M 130.18 163.48 L 130.08 164.45 C 129.97 165.65 130.84 166.71 132.04 166.83 C 133.24 166.94 134.30 166.07 134.41 164.87 L 134.51 163.89 C 134.62 162.70 133.75 161.63 132.55 161.52 C 131.35 161.40 130.29 162.28 130.18 163.48 Z M 130.08 164.45 L 130.00 165.35 C 129.88 166.54 130.76 167.61 131.95 167.72 C 133.15 167.84 134.21 166.96 134.33 165.76 L 134.41 164.87 C 134.53 163.67 133.65 162.61 132.46 162.50 C 131.26 162.38 130.20 163.26 130.08 164.45 Z M 129.99 165.35 L 129.91 166.27 C 129.79 167.47 130.67 168.53 131.87 168.64 C 133.07 168.76 134.13 167.88 134.24 166.68 L 134.33 165.76 C 134.44 164.56 133.56 163.50 132.37 163.39 C 131.17 163.27 130.11 164.15 129.99 165.35 Z M 129.91 166.27 L 129.82 167.24 C 129.71 168.44 130.59 169.50 131.78 169.61 C 132.98 169.72 134.04 168.84 134.15 167.64 L 134.24 166.68 C 134.35 165.48 133.47 164.42 132.28 164.31 C 131.08 164.20 130.02 165.08 129.91 166.27 Z M 129.82 167.25 L 129.72 168.28 C 129.61 169.48 130.50 170.54 131.70 170.65 C 132.89 170.75 133.95 169.87 134.06 168.67 L 134.15 167.64 C 134.26 166.44 133.38 165.38 132.18 165.27 C 130.98 165.17 129.92 166.05 129.82 167.25 Z M 129.72 168.29 L 129.62 169.40 C 129.52 170.60 130.40 171.66 131.60 171.76 C 132.80 171.87 133.86 170.98 133.96 169.78 L 134.06 168.67 C 134.17 167.47 133.28 166.41 132.08 166.31 C 130.88 166.20 129.83 167.09 129.72 168.29 Z M 129.62 169.41 L 129.53 170.46 C 129.43 171.66 130.32 172.72 131.52 172.82 C 132.72 172.92 133.77 172.03 133.88 170.83 L 133.97 169.78 C 134.07 168.58 133.18 167.52 131.98 167.42 C 130.78 167.32 129.72 168.21 129.62 169.41 Z M 129.53 170.47 L 129.45 171.49 C 129.35 172.69 130.24 173.74 131.44 173.84 C 132.64 173.94 133.69 173.04 133.79 171.85 L 133.88 170.83 C 133.98 169.63 133.08 168.58 131.88 168.48 C 130.68 168.38 129.63 169.27 129.53 170.47 Z M 129.45 171.49 L 129.36 172.54 C 129.27 173.74 130.16 174.79 131.36 174.89 C 132.56 174.98 133.61 174.09 133.71 172.89 L 133.79 171.84 C 133.89 170.64 132.99 169.59 131.79 169.49 C 130.59 169.40 129.54 170.29 129.45 171.49 Z M 129.36 172.55 L 129.28 173.60 C 129.19 174.80 130.09 175.85 131.29 175.94 C 132.49 176.03 133.54 175.13 133.63 173.93 L 133.71 172.88 C 133.80 171.68 132.90 170.63 131.70 170.54 C 130.50 170.45 129.46 171.35 129.36 172.55 Z M 129.28 173.61 L 129.21 174.64 C 129.12 175.84 130.02 176.88 131.22 176.97 C 132.42 177.06 133.47 176.16 133.56 174.96 L 133.63 173.92 C 133.72 172.72 132.82 171.68 131.62 171.59 C 130.41 171.50 129.37 172.40 129.28 173.61 Z M 129.21 174.65 L 129.14 175.63 C 129.05 176.84 129.96 177.88 131.16 177.96 C 132.36 178.04 133.41 177.13 133.49 175.93 L 133.56 174.95 C 133.64 173.74 132.73 172.70 131.53 172.62 C 130.33 172.54 129.29 173.45 129.21 174.65 Z M 129.14 175.65 L 129.08 176.56 C 129.00 177.77 129.92 178.80 131.12 178.88 C 132.32 178.95 133.36 178.04 133.43 176.84 L 133.49 175.92 C 133.57 174.72 132.65 173.68 131.45 173.61 C 130.25 173.53 129.21 174.44 129.14 175.65 Z M 129.07 176.59 L 129.00 177.91 C 128.94 179.12 129.86 180.15 131.07 180.21 C 132.27 180.27 133.30 179.35 133.37 178.14 L 133.44 176.82 C 133.50 175.61 132.58 174.58 131.37 174.52 C 130.17 174.46 129.14 175.38 129.07 176.59 Z M 128.99 177.91 L 128.92 179.17 C 128.86 180.38 129.79 181.42 131.00 181.48 C 132.21 181.55 133.25 180.61 133.31 179.40 L 133.38 178.14 C 133.44 176.93 132.51 175.90 131.30 175.83 C 130.09 175.77 129.05 176.70 128.99 177.91 Z M 128.92 179.04 L 128.83 179.81 C 128.70 181.02 129.57 182.11 130.78 182.25 C 132.00 182.39 133.09 181.51 133.23 180.30 L 133.31 179.54 C 133.45 178.32 132.58 177.23 131.36 177.09 C 130.15 176.96 129.06 177.83 128.92 179.04 Z M 129.32 178.64 L 129.12 178.88 C 128.33 179.83 128.46 181.23 129.41 182.01 C 130.36 182.79 131.76 182.66 132.54 181.72 L 132.74 181.47 C 133.53 180.53 133.40 179.12 132.45 178.34 C 131.50 177.56 130.10 177.69 129.32 178.64 Z M 132.56 178.89 L 132.01 178.22 C 131.23 177.27 129.83 177.12 128.87 177.90 C 127.92 178.68 127.78 180.08 128.55 181.04 L 129.10 181.71 C 129.88 182.66 131.28 182.81 132.24 182.03 C 133.19 181.25 133.33 179.85 132.56 178.89 Z M 132.10 178.34 L 131.41 177.35 C 130.69 176.35 129.30 176.11 128.30 176.82 C 127.29 177.53 127.05 178.92 127.76 179.93 L 128.46 180.92 C 129.17 181.92 130.56 182.16 131.57 181.45 C 132.58 180.74 132.82 179.35 132.10 178.34 Z M 131.29 177.22 L 130.68 176.48 C 129.90 175.54 128.49 175.41 127.55 176.20 C 126.60 176.99 126.48 178.39 127.26 179.34 L 127.87 180.07 C 128.66 181.01 130.07 181.14 131.01 180.35 C 131.95 179.56 132.08 178.16 131.29 177.22 Z M 130.63 176.43 L 129.95 175.67 C 129.13 174.76 127.73 174.68 126.81 175.50 C 125.90 176.32 125.82 177.72 126.64 178.63 L 127.32 179.39 C 128.14 180.30 129.54 180.38 130.45 179.56 C 131.37 178.75 131.44 177.34 130.63 176.43 Z M 129.93 175.67 L 129.22 174.88 C 128.40 173.98 127.01 173.90 126.10 174.72 C 125.20 175.54 125.12 176.94 125.94 177.84 L 126.65 178.63 C 127.47 179.54 128.87 179.61 129.77 178.79 C 130.68 177.97 130.75 176.58 129.93 175.67 Z M 129.23 174.92 L 128.56 174.15 C 127.76 173.24 126.38 173.15 125.47 173.95 C 124.56 174.74 124.47 176.12 125.26 177.03 L 125.93 177.80 C 126.73 178.71 128.11 178.80 129.02 178.01 C 129.93 177.21 130.02 175.83 129.23 174.92 Z M 128.56 174.20 L 127.90 173.42 C 127.13 172.51 125.77 172.40 124.86 173.17 C 123.95 173.94 123.84 175.30 124.61 176.21 L 125.27 176.99 C 126.04 177.90 127.40 178.01 128.30 177.24 C 129.21 176.47 129.32 175.11 128.56 174.20 Z M 127.89 173.47 L 127.27 172.71 C 126.52 171.80 125.19 171.67 124.28 172.41 C 123.37 173.16 123.24 174.50 123.99 175.40 L 124.61 176.16 C 125.35 177.07 126.69 177.20 127.60 176.46 C 128.50 175.71 128.64 174.37 127.89 173.47 Z M 127.25 172.76 L 126.60 171.94 C 125.89 171.04 124.59 170.89 123.69 171.60 C 122.79 172.32 122.63 173.62 123.35 174.52 L 124.00 175.34 C 124.71 176.24 126.02 176.40 126.92 175.68 C 127.82 174.97 127.97 173.66 127.25 172.76 Z M 126.58 172.02 L 125.96 171.20 C 125.29 170.32 124.03 170.14 123.14 170.81 C 122.26 171.48 122.08 172.74 122.75 173.63 L 123.37 174.45 C 124.05 175.33 125.31 175.50 126.19 174.83 C 127.07 174.16 127.25 172.90 126.58 172.02 Z M 125.92 171.28 L 125.37 170.53 C 124.74 169.67 123.53 169.48 122.67 170.10 C 121.81 170.73 121.62 171.94 122.25 172.80 L 122.79 173.55 C 123.42 174.42 124.63 174.60 125.49 173.98 C 126.36 173.35 126.55 172.14 125.92 171.28 Z M 125.33 170.60 L 124.76 169.80 C 124.18 168.97 123.02 168.76 122.18 169.35 C 121.34 169.94 121.14 171.10 121.73 171.94 L 122.29 172.73 C 122.88 173.57 124.04 173.77 124.88 173.18 C 125.71 172.59 125.91 171.44 125.33 170.60 Z M 124.73 169.89 L 124.19 169.07 C 123.65 168.25 122.55 168.03 121.73 168.57 C 120.91 169.11 120.69 170.21 121.23 171.02 L 121.77 171.85 C 122.31 172.66 123.41 172.89 124.23 172.35 C 125.04 171.81 125.27 170.71 124.73 169.89 Z M 124.17 169.18 L 123.66 168.33 C 123.18 167.52 122.14 167.25 121.33 167.74 C 120.52 168.22 120.26 169.26 120.74 170.07 L 121.24 170.92 C 121.73 171.73 122.77 171.99 123.58 171.51 C 124.39 171.03 124.65 169.98 124.17 169.18 Z M 123.65 168.40 L 123.18 167.54 C 122.74 166.74 121.73 166.45 120.93 166.89 C 120.13 167.33 119.84 168.33 120.28 169.13 L 120.75 169.99 C 121.19 170.79 122.20 171.09 123.00 170.65 C 123.80 170.21 124.09 169.20 123.65 168.40 Z M 123.16 167.59 L 122.68 166.68 C 122.26 165.89 121.29 165.58 120.50 166.00 C 119.71 166.41 119.41 167.39 119.82 168.18 L 120.30 169.09 C 120.71 169.88 121.69 170.18 122.48 169.76 C 123.27 169.35 123.57 168.37 123.16 167.59 Z M 122.66 166.69 L 122.49 166.37 C 122.08 165.59 121.12 165.29 120.35 165.69 C 119.57 166.09 119.27 167.05 119.67 167.83 L 119.84 168.16 C 120.25 168.94 121.20 169.24 121.98 168.83 C 122.76 168.43 123.06 167.47 122.66 166.69 Z"
      fill="black"
      fill-rule="nonzero" /><path d="M 121.84 163.36 L 121.32 162.46 C 120.83 161.63 119.76 161.35 118.92 161.83 C 118.09 162.32 117.80 163.39 118.29 164.23 L 118.82 165.13 C 119.30 165.96 120.38 166.24 121.21 165.76 C 122.05 165.27 122.33 164.20 121.84 163.36 Z M 121.75 163.04 L 121.61 162.12 C 121.44 161.04 120.43 160.30 119.35 160.48 C 118.27 160.65 117.54 161.66 117.71 162.73 L 117.85 163.65 C 118.03 164.73 119.04 165.46 120.11 165.29 C 121.19 165.12 121.92 164.11 121.75 163.04 Z M 121.56 163.31 L 121.89 162.60 C 122.38 161.55 121.93 160.31 120.88 159.82 C 119.83 159.33 118.58 159.78 118.09 160.83 L 117.76 161.54 C 117.27 162.59 117.72 163.83 118.77 164.32 C 119.82 164.81 121.07 164.36 121.56 163.31 Z M 121.55 163.13 L 122.21 162.40 C 122.99 161.54 122.92 160.20 122.06 159.43 C 121.19 158.65 119.86 158.71 119.08 159.58 L 118.43 160.30 C 117.65 161.17 117.71 162.50 118.58 163.28 C 119.44 164.06 120.77 163.99 121.55 163.13 Z M 122.03 162.57 L 122.94 161.78 C 123.81 161.02 123.90 159.69 123.14 158.81 C 122.37 157.93 121.04 157.85 120.16 158.61 L 119.26 159.40 C 118.38 160.17 118.29 161.50 119.06 162.38 C 119.83 163.25 121.16 163.34 122.03 162.57 Z M 122.88 161.83 L 123.65 161.21 C 124.55 160.47 124.68 159.15 123.95 158.24 C 123.22 157.34 121.89 157.21 120.99 157.94 L 120.22 158.56 C 119.32 159.30 119.18 160.63 119.92 161.53 C 120.65 162.43 121.98 162.56 122.88 161.83 Z M 123.62 161.22 L 124.42 160.59 C 125.33 159.87 125.49 158.55 124.77 157.64 C 124.05 156.73 122.73 156.57 121.81 157.29 L 121.01 157.92 C 120.10 158.64 119.95 159.96 120.67 160.88 C 121.39 161.79 122.71 161.94 123.62 161.22 Z M 124.40 160.60 L 125.21 159.98 C 126.13 159.27 126.30 157.95 125.59 157.03 C 124.88 156.11 123.57 155.94 122.65 156.65 L 121.84 157.28 C 120.92 157.99 120.75 159.30 121.46 160.22 C 122.16 161.14 123.48 161.31 124.40 160.60 Z M 125.19 159.99 L 125.98 159.39 C 126.91 158.69 127.09 157.38 126.39 156.45 C 125.70 155.53 124.38 155.35 123.46 156.05 L 122.67 156.64 C 121.75 157.34 121.56 158.65 122.26 159.58 C 122.96 160.50 124.27 160.68 125.19 159.99 Z M 125.96 159.39 L 126.81 158.76 C 127.74 158.08 127.93 156.78 127.25 155.85 C 126.57 154.92 125.26 154.73 124.34 155.41 L 123.48 156.04 C 122.56 156.72 122.36 158.03 123.04 158.95 C 123.73 159.88 125.03 160.08 125.96 159.39 Z M 126.78 158.76 L 127.59 158.17 C 128.52 157.51 128.73 156.22 128.07 155.30 C 127.40 154.37 126.11 154.16 125.19 154.82 L 124.37 155.41 C 123.45 156.08 123.23 157.37 123.90 158.29 C 124.56 159.22 125.85 159.43 126.78 158.76 Z M 127.56 158.17 L 128.34 157.62 C 129.27 156.98 129.49 155.71 128.85 154.78 C 128.20 153.86 126.93 153.63 126.01 154.28 L 125.22 154.83 C 124.30 155.47 124.07 156.75 124.72 157.67 C 125.36 158.59 126.64 158.82 127.56 158.17 Z M 128.31 157.62 L 129.10 157.08 C 130.02 156.45 130.26 155.19 129.63 154.27 C 129.00 153.35 127.74 153.12 126.82 153.75 L 126.04 154.29 C 125.12 154.91 124.88 156.17 125.51 157.09 C 126.14 158.01 127.39 158.25 128.31 157.62 Z M 129.08 157.07 L 129.89 156.52 C 130.81 155.90 131.05 154.66 130.43 153.75 C 129.82 152.83 128.58 152.59 127.66 153.21 L 126.85 153.76 C 125.93 154.37 125.69 155.61 126.31 156.53 C 126.92 157.44 128.16 157.68 129.08 157.07 Z M 129.88 156.50 L 130.71 155.94 C 131.62 155.33 131.86 154.11 131.25 153.20 C 130.64 152.30 129.41 152.06 128.51 152.66 L 127.68 153.23 C 126.77 153.83 126.53 155.06 127.14 155.97 C 127.75 156.87 128.98 157.11 129.88 156.50 Z M 130.71 155.92 L 131.56 155.34 C 132.45 154.74 132.68 153.52 132.07 152.63 C 131.47 151.74 130.25 151.51 129.36 152.11 L 128.51 152.69 C 127.62 153.29 127.39 154.51 128.00 155.40 C 128.60 156.29 129.82 156.52 130.71 155.92 Z M 131.56 155.31 L 132.36 154.76 C 133.24 154.15 133.46 152.95 132.85 152.07 C 132.24 151.20 131.04 150.98 130.16 151.58 L 129.36 152.14 C 128.48 152.75 128.27 153.95 128.87 154.83 C 129.48 155.70 130.68 155.92 131.56 155.31 Z M 132.36 154.73 L 133.17 154.15 C 134.03 153.55 134.23 152.36 133.63 151.50 C 133.02 150.65 131.84 150.44 130.98 151.04 L 130.17 151.62 C 129.31 152.22 129.10 153.41 129.71 154.27 C 130.31 155.12 131.50 155.33 132.36 154.73 Z M 133.16 154.12 L 133.99 153.54 C 134.83 152.94 135.02 151.77 134.42 150.92 C 133.82 150.08 132.65 149.88 131.81 150.49 L 130.99 151.07 C 130.14 151.67 129.95 152.84 130.55 153.69 C 131.15 154.53 132.32 154.73 133.16 154.12 Z M 133.98 153.51 L 134.80 152.92 C 135.62 152.32 135.81 151.17 135.21 150.34 C 134.62 149.51 133.46 149.33 132.64 149.92 L 131.82 150.51 C 130.99 151.11 130.80 152.26 131.40 153.09 C 132.00 153.92 133.15 154.11 133.98 153.51 Z M 134.79 152.89 L 135.58 152.31 C 136.40 151.72 136.58 150.58 135.99 149.77 C 135.40 148.96 134.26 148.78 133.45 149.37 L 132.65 149.95 C 131.84 150.54 131.66 151.68 132.25 152.49 C 132.84 153.30 133.97 153.48 134.79 152.89 Z M 135.57 152.28 L 136.38 151.69 C 137.18 151.11 137.35 149.99 136.77 149.19 C 136.18 148.39 135.07 148.22 134.27 148.81 L 133.46 149.40 C 132.66 149.98 132.49 151.10 133.07 151.90 C 133.66 152.69 134.78 152.87 135.57 152.28 Z M 136.37 151.66 L 137.18 151.06 C 137.96 150.49 138.13 149.39 137.55 148.60 C 136.98 147.82 135.88 147.66 135.09 148.23 L 134.28 148.83 C 133.50 149.41 133.33 150.51 133.91 151.29 C 134.49 152.08 135.59 152.24 136.37 151.66 Z M 137.17 151.04 L 137.98 150.43 C 138.75 149.86 138.91 148.78 138.34 148.01 C 137.77 147.24 136.68 147.09 135.92 147.66 L 135.11 148.26 C 134.34 148.83 134.18 149.91 134.75 150.68 C 135.32 151.45 136.40 151.61 137.17 151.04 Z M 137.97 150.40 L 138.78 149.80 C 139.53 149.23 139.68 148.17 139.12 147.42 C 138.55 146.66 137.49 146.51 136.73 147.08 L 135.93 147.68 C 135.18 148.25 135.03 149.31 135.59 150.07 C 136.15 150.82 137.22 150.97 137.97 150.40 Z M 138.77 149.77 L 139.57 149.16 C 140.30 148.61 140.45 147.56 139.89 146.82 C 139.33 146.08 138.28 145.94 137.54 146.50 L 136.75 147.11 C 136.01 147.66 135.87 148.71 136.42 149.45 C 136.98 150.19 138.03 150.33 138.77 149.77 Z M 139.56 149.14 L 140.34 148.53 C 141.06 147.98 141.20 146.95 140.65 146.23 C 140.09 145.51 139.06 145.37 138.34 145.92 L 137.55 146.53 C 136.83 147.08 136.70 148.11 137.25 148.83 C 137.80 149.55 138.84 149.69 139.56 149.14 Z M 140.34 148.51 L 141.13 147.89 C 141.84 147.34 141.96 146.32 141.41 145.62 C 140.86 144.91 139.85 144.78 139.14 145.33 L 138.35 145.95 C 137.64 146.50 137.51 147.52 138.06 148.22 C 138.61 148.93 139.63 149.06 140.34 148.51 Z M 141.13 147.87 L 141.92 147.25 C 142.61 146.70 142.73 145.69 142.18 145.00 C 141.63 144.30 140.63 144.18 139.93 144.73 L 139.14 145.35 C 138.44 145.90 138.32 146.91 138.87 147.61 C 139.42 148.30 140.43 148.42 141.13 147.87 Z M 141.92 147.23 L 142.69 146.61 C 143.38 146.07 143.49 145.06 142.94 144.38 C 142.39 143.69 141.39 143.58 140.71 144.13 L 139.93 144.75 C 139.24 145.30 139.13 146.30 139.68 146.98 C 140.23 147.67 141.23 147.78 141.92 147.23 Z M 142.69 146.60 L 143.46 145.97 C 144.14 145.43 144.25 144.43 143.70 143.75 C 143.15 143.08 142.15 142.97 141.48 143.52 L 140.71 144.14 C 140.03 144.69 139.92 145.69 140.47 146.36 C 141.02 147.04 142.01 147.15 142.69 146.60 Z M 143.46 145.96 L 144.24 145.33 C 144.91 144.78 145.01 143.79 144.46 143.12 C 143.91 142.45 142.92 142.35 142.25 142.90 L 141.47 143.53 C 140.80 144.08 140.71 145.07 141.25 145.74 C 141.80 146.41 142.79 146.51 143.46 145.96 Z M 144.24 145.32 L 145.01 144.69 C 145.68 144.14 145.77 143.15 145.22 142.48 C 144.67 141.81 143.68 141.72 143.01 142.27 L 142.24 142.91 C 141.57 143.46 141.48 144.45 142.03 145.11 C 142.58 145.78 143.57 145.88 144.24 145.32 Z M 145.01 144.68 L 145.78 144.04 C 146.45 143.49 146.54 142.50 145.99 141.84 C 145.43 141.17 144.45 141.08 143.78 141.64 L 143.01 142.28 C 142.35 142.83 142.25 143.81 142.81 144.48 C 143.36 145.14 144.35 145.24 145.01 144.68 Z M 145.78 144.04 L 146.33 143.58 C 147.00 143.03 147.09 142.04 146.54 141.38 C 145.98 140.72 145.00 140.63 144.33 141.18 L 143.78 141.64 C 143.12 142.19 143.03 143.18 143.58 143.84 C 144.13 144.50 145.12 144.59 145.78 144.04 Z"
      fill="black"
      fill-rule="nonzero" /><path d="M 159.80 112.42 L 159.62 113.39 C 159.45 114.29 160.05 115.16 160.95 115.33 C 161.85 115.50 162.72 114.91 162.89 114.00 L 163.08 113.03 C 163.24 112.13 162.65 111.26 161.75 111.09 C 160.84 110.92 159.97 111.51 159.80 112.42 Z M 159.51 113.32 L 159.30 114.29 C 159.09 115.25 159.70 116.21 160.67 116.41 C 161.63 116.62 162.58 116.01 162.79 115.05 L 163.00 114.07 C 163.21 113.11 162.60 112.16 161.64 111.95 C 160.67 111.74 159.72 112.35 159.51 113.32 Z M 159.21 114.16 L 158.94 115.13 C 158.66 116.15 159.25 117.20 160.27 117.48 C 161.28 117.76 162.34 117.17 162.62 116.15 L 162.89 115.18 C 163.17 114.16 162.57 113.11 161.55 112.83 C 160.54 112.55 159.49 113.14 159.21 114.16 Z M 158.91 114.98 L 158.59 115.87 C 158.23 116.90 158.76 118.03 159.79 118.40 C 160.82 118.76 161.96 118.23 162.32 117.20 L 162.64 116.31 C 163.01 115.28 162.47 114.15 161.44 113.78 C 160.41 113.41 159.28 113.95 158.91 114.98 Z M 158.63 115.75 L 158.24 116.64 C 157.81 117.65 158.28 118.82 159.29 119.26 C 160.30 119.69 161.47 119.22 161.91 118.21 L 162.29 117.32 C 162.72 116.31 162.26 115.14 161.25 114.70 C 160.23 114.27 159.06 114.73 158.63 115.75 Z M 158.28 116.55 L 157.83 117.48 C 157.34 118.47 157.76 119.67 158.75 120.15 C 159.74 120.63 160.94 120.22 161.42 119.23 L 161.87 118.30 C 162.35 117.31 161.94 116.11 160.95 115.63 C 159.96 115.15 158.76 115.56 158.28 116.55 Z M 157.85 117.42 L 157.36 118.35 C 156.84 119.33 157.22 120.54 158.20 121.06 C 159.18 121.57 160.39 121.20 160.91 120.22 L 161.40 119.29 C 161.91 118.31 161.54 117.10 160.56 116.58 C 159.58 116.07 158.37 116.44 157.85 117.42 Z M 157.38 118.32 L 156.88 119.22 C 156.34 120.19 156.69 121.41 157.67 121.95 C 158.64 122.48 159.86 122.13 160.39 121.16 L 160.89 120.26 C 161.42 119.29 161.07 118.07 160.10 117.53 C 159.13 116.99 157.91 117.35 157.38 118.32 Z M 156.89 119.19 L 156.38 120.09 C 155.83 121.05 156.16 122.28 157.13 122.83 C 158.09 123.38 159.32 123.04 159.87 122.08 L 160.38 121.19 C 160.93 120.22 160.59 119.00 159.63 118.45 C 158.67 117.90 157.44 118.23 156.89 119.19 Z M 156.39 120.06 L 155.89 120.90 C 155.33 121.86 155.65 123.09 156.60 123.66 C 157.56 124.22 158.79 123.90 159.35 122.95 L 159.85 122.11 C 160.42 121.15 160.10 119.92 159.15 119.35 C 158.19 118.79 156.96 119.10 156.39 120.06 Z M 155.91 120.87 L 155.37 121.75 C 154.79 122.70 155.08 123.93 156.03 124.52 C 156.98 125.10 158.22 124.80 158.80 123.86 L 159.34 122.98 C 159.92 122.03 159.62 120.79 158.68 120.21 C 157.73 119.63 156.49 119.93 155.91 120.87 Z M 155.39 121.72 L 154.84 122.57 C 154.24 123.51 154.52 124.75 155.45 125.35 C 156.39 125.95 157.63 125.68 158.23 124.74 L 158.78 123.89 C 159.38 122.95 159.10 121.71 158.17 121.11 C 157.23 120.51 155.99 120.78 155.39 121.72 Z M 154.85 122.56 L 154.34 123.34 C 153.73 124.27 154.00 125.52 154.93 126.13 C 155.86 126.73 157.10 126.47 157.71 125.54 L 158.22 124.76 C 158.83 123.83 158.57 122.58 157.64 121.97 C 156.70 121.37 155.46 121.63 154.85 122.56 Z M 154.33 123.36 L 153.81 124.17 C 153.21 125.10 153.49 126.34 154.42 126.94 C 155.36 127.54 156.60 127.27 157.20 126.34 L 157.72 125.53 C 158.32 124.59 158.05 123.35 157.11 122.75 C 156.18 122.15 154.93 122.42 154.33 123.36 Z M 153.81 124.18 L 153.27 125.02 C 152.68 125.96 152.96 127.20 153.90 127.80 C 154.83 128.39 156.08 128.11 156.67 127.17 L 157.21 126.33 C 157.80 125.39 157.52 124.15 156.58 123.55 C 155.64 122.96 154.40 123.24 153.81 124.18 Z M 153.28 125.01 L 152.73 125.86 C 152.13 126.79 152.40 128.04 153.33 128.64 C 154.27 129.24 155.51 128.97 156.11 128.04 L 156.66 127.19 C 157.26 126.25 156.99 125.01 156.06 124.41 C 155.13 123.81 153.88 124.08 153.28 125.01 Z M 152.75 125.83 L 152.20 126.66 C 151.58 127.58 151.83 128.83 152.75 129.45 C 153.67 130.07 154.92 129.82 155.53 128.90 L 156.09 128.07 C 156.71 127.15 156.46 125.90 155.54 125.28 C 154.62 124.66 153.37 124.91 152.75 125.83 Z M 152.21 126.64 L 151.65 127.46 C 151.02 128.37 151.25 129.63 152.16 130.25 C 153.08 130.88 154.33 130.65 154.95 129.74 L 155.52 128.92 C 156.15 128.01 155.92 126.75 155.00 126.13 C 154.09 125.50 152.84 125.73 152.21 126.64 Z M 151.65 127.46 L 151.08 128.29 C 150.45 129.21 150.68 130.45 151.60 131.08 C 152.51 131.71 153.76 131.48 154.39 130.56 L 154.96 129.74 C 155.58 128.82 155.35 127.57 154.44 126.95 C 153.52 126.32 152.27 126.55 151.65 127.46 Z M 151.07 128.31 L 150.52 129.13 C 149.90 130.05 150.14 131.29 151.06 131.91 C 151.98 132.53 153.23 132.29 153.84 131.37 L 154.40 130.55 C 155.01 129.63 154.77 128.38 153.85 127.76 C 152.93 127.15 151.69 127.39 151.07 128.31 Z M 150.52 129.13 L 149.96 129.96 C 149.34 130.88 149.58 132.12 150.50 132.74 C 151.42 133.36 152.67 133.12 153.28 132.20 L 153.84 131.37 C 154.46 130.45 154.22 129.20 153.30 128.58 C 152.38 127.97 151.14 128.21 150.52 129.13 Z M 149.97 129.94 L 149.40 130.77 C 148.77 131.68 148.99 132.93 149.90 133.56 C 150.81 134.19 152.06 133.96 152.69 133.05 L 153.27 132.22 C 153.90 131.31 153.67 130.06 152.76 129.43 C 151.85 128.80 150.60 129.03 149.97 129.94 Z M 149.43 130.73 L 148.84 131.54 C 148.19 132.44 148.39 133.69 149.28 134.34 C 150.18 134.99 151.43 134.79 152.08 133.90 L 152.67 133.09 C 153.32 132.19 153.12 130.94 152.22 130.29 C 151.33 129.64 150.08 129.84 149.43 130.73 Z M 148.86 131.51 L 148.26 132.31 C 147.59 133.20 147.77 134.45 148.65 135.12 C 149.53 135.78 150.79 135.61 151.45 134.72 L 152.05 133.93 C 152.72 133.04 152.54 131.79 151.66 131.12 C 150.78 130.46 149.53 130.63 148.86 131.51 Z M 148.27 132.29 L 147.66 133.08 C 146.98 133.96 147.14 135.21 148.02 135.89 C 148.89 136.57 150.15 136.41 150.82 135.53 L 151.44 134.74 C 152.11 133.87 151.95 132.61 151.08 131.94 C 150.21 131.26 148.95 131.42 148.27 132.29 Z M 147.67 133.07 L 147.05 133.86 C 146.37 134.73 146.52 135.99 147.38 136.67 C 148.25 137.35 149.51 137.20 150.19 136.34 L 150.81 135.54 C 151.50 134.68 151.35 133.42 150.48 132.74 C 149.61 132.06 148.35 132.20 147.67 133.07 Z M 147.06 133.85 L 146.44 134.63 C 145.75 135.50 145.89 136.75 146.75 137.44 C 147.61 138.13 148.87 137.99 149.56 137.13 L 150.18 136.35 C 150.87 135.48 150.73 134.23 149.87 133.54 C 149.00 132.85 147.75 132.99 147.06 133.85 Z M 146.45 134.62 L 145.82 135.40 C 145.13 136.25 145.26 137.51 146.12 138.20 C 146.98 138.90 148.23 138.76 148.93 137.91 L 149.55 137.13 C 150.24 136.28 150.11 135.02 149.25 134.33 C 148.39 133.64 147.14 133.77 146.45 134.62 Z M 145.83 135.39 L 145.20 136.15 C 144.51 137.00 144.63 138.26 145.48 138.96 C 146.33 139.66 147.59 139.53 148.28 138.68 L 148.91 137.91 C 149.61 137.06 149.49 135.81 148.64 135.11 C 147.79 134.41 146.53 134.54 145.83 135.39 Z M 145.22 136.14 L 144.58 136.90 C 143.87 137.74 143.98 139.00 144.82 139.70 C 145.66 140.41 146.92 140.30 147.62 139.46 L 148.27 138.70 C 148.97 137.86 148.86 136.60 148.02 135.90 C 147.18 135.19 145.93 135.30 145.22 136.14 Z M 144.60 136.88 L 143.96 137.63 C 143.24 138.45 143.33 139.71 144.16 140.42 C 144.99 141.14 146.24 141.05 146.96 140.22 L 147.60 139.48 C 148.32 138.65 148.23 137.40 147.40 136.68 C 146.57 135.97 145.32 136.06 144.60 136.88 Z M 143.99 137.61 L 143.36 138.31 C 142.63 139.12 142.69 140.37 143.51 141.10 C 144.32 141.83 145.57 141.76 146.30 140.95 L 146.93 140.25 C 147.66 139.43 147.59 138.18 146.78 137.45 C 145.97 136.73 144.72 136.79 143.99 137.61 Z M 143.39 138.29 L 142.70 139.02 C 141.96 139.82 142.00 141.06 142.80 141.81 C 143.59 142.55 144.84 142.50 145.58 141.71 L 146.27 140.97 C 147.01 140.17 146.96 138.93 146.17 138.19 C 145.37 137.45 144.13 137.49 143.39 138.29 Z M 142.73 139.00 L 141.98 139.78 C 141.23 140.55 141.25 141.80 142.03 142.55 C 142.81 143.30 144.05 143.28 144.80 142.50 L 145.55 141.73 C 146.30 140.95 146.28 139.71 145.50 138.95 C 144.72 138.20 143.48 138.22 142.73 139.00 Z M 142.01 139.76 L 141.29 140.48 C 140.53 141.24 140.53 142.48 141.29 143.24 C 142.06 144.00 143.30 144.00 144.06 143.24 L 144.78 142.52 C 145.54 141.75 145.54 140.52 144.77 139.76 C 144.01 138.99 142.77 138.99 142.01 139.76 Z M 141.32 140.46 L 140.58 141.18 C 139.80 141.93 139.78 143.16 140.53 143.93 C 141.28 144.70 142.51 144.72 143.28 143.98 L 144.03 143.26 C 144.80 142.51 144.82 141.28 144.07 140.51 C 143.33 139.73 142.10 139.71 141.32 140.46 Z M 140.62 141.15 L 139.88 141.83 C 139.10 142.55 139.05 143.78 139.77 144.57 C 140.50 145.35 141.72 145.40 142.51 144.68 L 143.24 144.00 C 144.03 143.28 144.08 142.05 143.36 141.26 C 142.63 140.48 141.40 140.43 140.62 141.15 Z M 139.96 141.78 L 139.06 142.54 C 138.25 143.22 138.15 144.43 138.83 145.25 C 139.52 146.06 140.73 146.16 141.54 145.48 L 142.44 144.72 C 143.25 144.04 143.35 142.82 142.67 142.01 C 141.98 141.20 140.77 141.10 139.96 141.78 Z M 139.33 142.40 L 138.46 142.92 C 137.57 143.46 137.29 144.62 137.82 145.51 C 138.36 146.40 139.52 146.68 140.41 146.14 L 141.28 145.62 C 142.17 145.08 142.45 143.92 141.91 143.03 C 141.38 142.14 140.22 141.86 139.33 142.40 Z M 141.09 143.78 L 140.95 143.46 C 140.53 142.54 139.45 142.14 138.53 142.56 C 137.62 142.97 137.21 144.05 137.63 144.97 L 137.78 145.29 C 138.19 146.20 139.27 146.61 140.19 146.19 C 141.11 145.77 141.51 144.69 141.09 143.78 Z M 140.91 144.87 L 141.22 144.10 C 141.58 143.21 141.15 142.19 140.26 141.83 C 139.36 141.46 138.35 141.89 137.98 142.79 L 137.67 143.56 C 137.31 144.45 137.74 145.47 138.63 145.83 C 139.53 146.20 140.54 145.76 140.91 144.87 Z M 141.08 144.20 L 141.62 143.15 C 142.04 142.33 141.72 141.33 140.90 140.91 C 140.09 140.49 139.08 140.81 138.67 141.63 L 138.12 142.69 C 137.71 143.50 138.03 144.50 138.84 144.92 C 139.66 145.34 140.66 145.02 141.08 144.20 Z M 141.54 143.14 L 141.91 142.47 C 142.33 141.69 142.04 140.73 141.26 140.31 C 140.49 139.89 139.52 140.18 139.11 140.95 L 138.74 141.63 C 138.32 142.41 138.61 143.37 139.39 143.79 C 140.16 144.21 141.13 143.92 141.54 143.14 Z"
      fill="black"
      fill-rule="nonzero" /><path d="M 156.01 127.20 L 157.02 127.17 C 158.11 127.14 158.97 126.23 158.94 125.14 C 158.91 124.04 158.00 123.18 156.91 123.22 L 155.90 123.24 C 154.80 123.28 153.94 124.19 153.97 125.28 C 154.01 126.37 154.92 127.23 156.01 127.20 Z M 156.94 127.28 L 157.94 127.29 C 159.10 127.31 160.04 126.38 160.06 125.23 C 160.07 124.07 159.14 123.13 157.99 123.11 L 156.99 123.10 C 155.83 123.09 154.89 124.02 154.87 125.17 C 154.86 126.33 155.79 127.27 156.94 127.28 Z M 157.77 127.39 L 158.73 127.48 C 159.94 127.59 161.01 126.70 161.12 125.49 C 161.23 124.28 160.34 123.21 159.13 123.10 L 158.16 123.02 C 156.95 122.91 155.89 123.80 155.78 125.01 C 155.67 126.21 156.56 127.28 157.77 127.39 Z M 158.49 127.50 L 159.35 127.67 C 160.56 127.91 161.75 127.12 161.99 125.90 C 162.23 124.68 161.44 123.50 160.22 123.26 L 159.37 123.09 C 158.15 122.84 156.97 123.64 156.73 124.85 C 156.48 126.07 157.27 127.25 158.49 127.50 Z M 159.14 127.62 L 160.06 127.89 C 161.25 128.24 162.51 127.57 162.86 126.37 C 163.21 125.18 162.53 123.93 161.34 123.58 L 160.42 123.30 C 159.23 122.95 157.98 123.63 157.63 124.82 C 157.27 126.01 157.95 127.26 159.14 127.62 Z M 159.93 127.85 L 161.00 128.24 C 162.17 128.67 163.46 128.06 163.89 126.90 C 164.31 125.73 163.71 124.43 162.54 124.01 L 161.48 123.62 C 160.31 123.19 159.01 123.79 158.59 124.96 C 158.16 126.13 158.76 127.42 159.93 127.85 Z M 160.93 128.22 L 161.88 128.59 C 163.04 129.05 164.35 128.49 164.81 127.34 C 165.27 126.18 164.71 124.87 163.55 124.41 L 162.60 124.03 C 161.45 123.57 160.14 124.13 159.68 125.29 C 159.22 126.44 159.78 127.76 160.93 128.22 Z M 161.85 128.58 L 162.80 128.98 C 163.95 129.45 165.27 128.91 165.75 127.76 C 166.23 126.61 165.68 125.29 164.53 124.82 L 163.58 124.42 C 162.43 123.94 161.11 124.49 160.63 125.64 C 160.16 126.79 160.70 128.10 161.85 128.58 Z M 162.78 128.97 L 163.76 129.38 C 164.90 129.87 166.22 129.34 166.71 128.19 C 167.20 127.05 166.67 125.73 165.52 125.24 L 164.55 124.82 C 163.41 124.34 162.08 124.87 161.60 126.01 C 161.11 127.16 161.64 128.48 162.78 128.97 Z M 163.74 129.37 L 164.67 129.78 C 165.81 130.28 167.14 129.75 167.63 128.62 C 168.13 127.48 167.61 126.15 166.47 125.65 L 165.54 125.25 C 164.40 124.75 163.07 125.27 162.57 126.41 C 162.08 127.55 162.60 128.88 163.74 129.37 Z M 164.65 129.77 L 165.53 130.16 C 166.66 130.67 167.99 130.16 168.50 129.02 C 169.00 127.89 168.49 126.56 167.36 126.05 L 166.48 125.66 C 165.35 125.16 164.02 125.67 163.51 126.80 C 163.01 127.93 163.52 129.26 164.65 129.77 Z M 165.51 130.13 L 166.50 130.59 C 167.62 131.11 168.95 130.62 169.46 129.50 C 169.98 128.38 169.49 127.05 168.37 126.54 L 167.38 126.08 C 166.26 125.56 164.93 126.05 164.42 127.17 C 163.90 128.29 164.39 129.62 165.51 130.13 Z M 166.47 130.54 L 167.31 130.95 C 168.40 131.49 169.72 131.03 170.26 129.94 C 170.79 128.85 170.34 127.53 169.24 126.99 L 168.40 126.58 C 167.31 126.05 165.99 126.50 165.46 127.60 C 164.92 128.69 165.38 130.01 166.47 130.54 Z M 167.28 130.91 L 168.12 131.34 C 169.19 131.89 170.50 131.47 171.05 130.40 C 171.60 129.33 171.18 128.02 170.11 127.47 L 169.27 127.04 C 168.21 126.49 166.89 126.91 166.35 127.98 C 165.80 129.05 166.22 130.36 167.28 130.91 Z M 168.11 131.30 L 168.93 131.74 C 169.97 132.29 171.27 131.89 171.83 130.84 C 172.39 129.80 171.99 128.50 170.94 127.94 L 170.12 127.51 C 169.07 126.95 167.77 127.35 167.22 128.40 C 166.66 129.45 167.06 130.75 168.11 131.30 Z M 168.92 131.71 L 169.80 132.19 C 170.83 132.75 172.12 132.36 172.68 131.33 C 173.24 130.29 172.86 129.00 171.82 128.44 L 170.95 127.97 C 169.91 127.41 168.62 127.79 168.06 128.82 C 167.50 129.86 167.88 131.15 168.92 131.71 Z M 169.79 132.16 L 170.70 132.67 C 171.72 133.23 173.00 132.86 173.57 131.84 C 174.13 130.82 173.77 129.54 172.75 128.97 L 171.83 128.47 C 170.81 127.90 169.53 128.27 168.96 129.29 C 168.40 130.31 168.77 131.60 169.79 132.16 Z M 170.69 132.64 L 171.60 133.15 C 172.60 133.73 173.88 133.38 174.45 132.37 C 175.02 131.37 174.67 130.09 173.67 129.52 L 172.76 129.00 C 171.75 128.43 170.48 128.78 169.90 129.78 C 169.33 130.79 169.68 132.06 170.69 132.64 Z M 171.59 133.11 L 172.49 133.64 C 173.47 134.22 174.73 133.89 175.31 132.91 C 175.89 131.94 175.56 130.67 174.58 130.10 L 173.67 129.56 C 172.70 128.99 171.43 129.31 170.86 130.29 C 170.28 131.27 170.61 132.53 171.59 133.11 Z M 172.49 133.59 L 173.35 134.11 C 174.30 134.69 175.54 134.39 176.11 133.44 C 176.69 132.49 176.39 131.25 175.44 130.68 L 174.58 130.15 C 173.63 129.58 172.40 129.88 171.82 130.82 C 171.24 131.77 171.54 133.01 172.49 133.59 Z M 173.35 134.06 L 174.17 134.57 C 175.09 135.15 176.30 134.87 176.88 133.95 C 177.45 133.03 177.18 131.82 176.26 131.24 L 175.44 130.73 C 174.52 130.15 173.31 130.43 172.73 131.35 C 172.16 132.27 172.43 133.48 173.35 134.06 Z M 174.17 134.51 L 175.02 135.06 C 175.91 135.63 177.10 135.38 177.67 134.49 C 178.24 133.60 177.99 132.42 177.10 131.84 L 176.25 131.30 C 175.36 130.72 174.18 130.98 173.60 131.87 C 173.03 132.76 173.29 133.94 174.17 134.51 Z M 175.02 134.99 L 175.88 135.57 C 176.73 136.15 177.88 135.92 178.46 135.07 C 179.03 134.22 178.81 133.07 177.96 132.49 L 177.10 131.91 C 176.25 131.34 175.10 131.56 174.52 132.41 C 173.95 133.26 174.17 134.42 175.02 134.99 Z M 175.85 135.48 L 176.63 136.06 C 177.43 136.65 178.56 136.48 179.15 135.68 C 179.74 134.88 179.57 133.75 178.77 133.16 L 177.99 132.58 C 177.19 131.99 176.06 132.16 175.47 132.96 C 174.88 133.76 175.05 134.89 175.85 135.48 Z M 176.57 135.94 L 177.32 136.57 C 178.05 137.20 179.15 137.11 179.78 136.37 C 180.40 135.64 180.31 134.54 179.58 133.92 L 178.83 133.28 C 178.09 132.65 176.99 132.74 176.37 133.48 C 175.74 134.21 175.83 135.31 176.57 135.94 Z M 177.26 136.44 L 177.97 137.15 C 178.63 137.81 179.70 137.80 180.35 137.14 C 181.01 136.49 181.01 135.42 180.35 134.76 L 179.64 134.05 C 178.98 133.39 177.91 133.40 177.25 134.06 C 176.60 134.71 176.60 135.78 177.26 136.44 Z M 177.96 137.05 L 178.61 137.76 C 179.21 138.43 180.24 138.48 180.90 137.87 C 181.57 137.27 181.62 136.24 181.01 135.58 L 180.36 134.86 C 179.76 134.20 178.73 134.15 178.07 134.75 C 177.40 135.36 177.35 136.38 177.96 137.05 Z"
      fill="black"
      fill-rule="nonzero" /><path d="M 151.57 147.73 L 152.43 147.32 C 153.40 146.86 153.81 145.70 153.35 144.73 C 152.89 143.77 151.73 143.36 150.76 143.82 L 149.90 144.23 C 148.93 144.69 148.52 145.85 148.98 146.81 C 149.44 147.78 150.60 148.19 151.57 147.73 Z M 152.46 147.35 L 153.37 146.90 C 154.35 146.43 154.76 145.25 154.29 144.27 C 153.81 143.29 152.63 142.87 151.65 143.35 L 150.74 143.79 C 149.76 144.27 149.34 145.45 149.82 146.43 C 150.29 147.41 151.47 147.82 152.46 147.35 Z M 153.39 146.92 L 154.22 146.51 C 155.21 146.02 155.61 144.83 155.13 143.84 C 154.64 142.85 153.44 142.44 152.45 142.93 L 151.63 143.34 C 150.64 143.82 150.23 145.02 150.72 146.01 C 151.21 147.00 152.40 147.41 153.39 146.92 Z M 154.22 146.52 L 155.05 146.11 C 156.04 145.62 156.45 144.42 155.96 143.43 C 155.47 142.44 154.27 142.03 153.28 142.52 L 152.45 142.92 C 151.46 143.41 151.05 144.61 151.54 145.61 C 152.03 146.60 153.23 147.01 154.22 146.52 Z M 155.03 146.12 L 155.99 145.65 C 156.99 145.17 157.41 143.98 156.93 142.98 C 156.45 141.99 155.25 141.57 154.26 142.05 L 153.30 142.51 C 152.30 142.99 151.88 144.18 152.36 145.18 C 152.84 146.18 154.04 146.59 155.03 146.12 Z M 155.97 145.66 L 156.94 145.21 C 157.94 144.74 158.38 143.55 157.91 142.55 C 157.45 141.55 156.26 141.12 155.26 141.58 L 154.28 142.04 C 153.28 142.50 152.85 143.69 153.32 144.69 C 153.78 145.69 154.97 146.12 155.97 145.66 Z M 156.92 145.21 L 157.80 144.81 C 158.80 144.35 159.25 143.18 158.79 142.18 C 158.34 141.18 157.16 140.73 156.16 141.19 L 155.28 141.58 C 154.28 142.04 153.84 143.21 154.29 144.21 C 154.74 145.21 155.92 145.66 156.92 145.21 Z M 157.78 144.80 L 158.72 144.39 C 159.71 143.95 160.16 142.78 159.72 141.78 C 159.28 140.79 158.11 140.34 157.12 140.78 L 156.18 141.19 C 155.19 141.63 154.74 142.80 155.18 143.80 C 155.62 144.79 156.79 145.24 157.78 144.80 Z M 158.70 144.38 L 159.65 143.97 C 160.64 143.54 161.10 142.38 160.67 141.39 C 160.24 140.39 159.08 139.94 158.09 140.37 L 157.14 140.78 C 156.14 141.21 155.69 142.37 156.12 143.36 C 156.55 144.36 157.70 144.81 158.70 144.38 Z M 159.63 143.96 L 160.57 143.57 C 161.56 143.14 162.02 142.00 161.60 141.01 C 161.18 140.02 160.03 139.56 159.04 139.98 L 158.11 140.38 C 157.11 140.80 156.65 141.94 157.07 142.93 C 157.50 143.92 158.64 144.39 159.63 143.96 Z M 160.54 143.54 L 161.55 143.13 C 162.52 142.72 162.99 141.60 162.58 140.62 C 162.18 139.64 161.06 139.18 160.08 139.58 L 159.07 140.00 C 158.09 140.40 157.63 141.53 158.03 142.51 C 158.44 143.49 159.56 143.95 160.54 143.54 Z M 161.50 143.09 L 162.47 142.70 C 163.42 142.32 163.89 141.24 163.51 140.28 C 163.12 139.32 162.04 138.85 161.08 139.24 L 160.12 139.62 C 159.16 140.00 158.69 141.09 159.08 142.05 C 159.46 143.01 160.55 143.47 161.50 143.09 Z M 162.42 142.66 L 163.32 142.32 C 164.26 141.96 164.73 140.92 164.37 139.98 C 164.02 139.04 162.97 138.57 162.04 138.93 L 161.13 139.28 C 160.19 139.63 159.72 140.68 160.08 141.61 C 160.43 142.55 161.48 143.02 162.42 142.66 Z M 163.27 142.28 L 164.13 141.97 C 165.05 141.65 165.52 140.64 165.20 139.73 C 164.87 138.81 163.86 138.34 162.95 138.66 L 162.09 138.97 C 161.17 139.30 160.70 140.30 161.02 141.22 C 161.35 142.13 162.36 142.61 163.27 142.28 Z M 164.07 141.94 L 165.05 141.62 C 165.95 141.32 166.44 140.36 166.14 139.46 C 165.85 138.57 164.88 138.08 163.99 138.37 L 163.01 138.69 C 162.11 138.99 161.62 139.95 161.92 140.85 C 162.21 141.75 163.18 142.23 164.07 141.94 Z M 165.00 141.59 L 165.96 141.30 C 166.84 141.03 167.33 140.10 167.07 139.23 C 166.80 138.35 165.87 137.85 164.99 138.12 L 164.04 138.40 C 163.16 138.67 162.66 139.60 162.93 140.48 C 163.19 141.36 164.12 141.85 165.00 141.59 Z M 165.92 141.26 L 166.85 140.99 C 167.71 140.75 168.21 139.85 167.97 138.99 C 167.72 138.14 166.82 137.64 165.96 137.88 L 165.03 138.15 C 164.17 138.40 163.68 139.29 163.92 140.15 C 164.17 141.01 165.06 141.51 165.92 141.26 Z M 166.84 140.97 L 167.18 140.87 C 168.02 140.63 168.51 139.76 168.28 138.91 C 168.04 138.07 167.16 137.58 166.32 137.82 L 165.98 137.91 C 165.14 138.15 164.65 139.03 164.88 139.87 C 165.12 140.71 166.00 141.20 166.84 140.97 Z"
      fill="black"
      fill-rule="nonzero" /><path d="M 145.52 161.56 L 145.82 162.38 C 146.17 163.33 147.23 163.81 148.17 163.46 C 149.12 163.11 149.60 162.06 149.25 161.11 L 148.94 160.29 C 148.59 159.34 147.54 158.86 146.59 159.21 C 145.65 159.56 145.17 160.62 145.52 161.56 Z M 145.85 162.40 L 146.19 163.30 C 146.55 164.23 147.60 164.69 148.54 164.33 C 149.47 163.97 149.93 162.92 149.57 161.98 L 149.22 161.09 C 148.86 160.16 147.81 159.70 146.88 160.06 C 145.95 160.42 145.48 161.47 145.85 162.40 Z M 146.22 163.33 L 146.65 164.37 C 147.03 165.28 148.08 165.72 149.00 165.34 C 149.92 164.96 150.35 163.90 149.97 162.99 L 149.54 161.95 C 149.16 161.03 148.11 160.60 147.19 160.98 C 146.27 161.36 145.84 162.41 146.22 163.33 Z M 146.67 164.40 L 147.08 165.31 C 147.47 166.22 148.53 166.63 149.44 166.23 C 150.34 165.83 150.75 164.78 150.35 163.87 L 149.95 162.95 C 149.55 162.05 148.50 161.64 147.59 162.04 C 146.69 162.43 146.27 163.49 146.67 164.40 Z M 147.09 165.33 L 147.51 166.26 C 147.92 167.16 148.98 167.55 149.88 167.15 C 150.78 166.74 151.17 165.68 150.76 164.78 L 150.34 163.85 C 149.93 162.95 148.87 162.56 147.97 162.97 C 147.08 163.38 146.68 164.44 147.09 165.33 Z M 147.52 166.28 L 147.97 167.22 C 148.39 168.11 149.45 168.50 150.34 168.08 C 151.23 167.66 151.61 166.60 151.19 165.71 L 150.75 164.76 C 150.33 163.87 149.27 163.49 148.38 163.91 C 147.49 164.32 147.11 165.39 147.52 166.28 Z M 147.98 167.24 L 148.42 168.15 C 148.84 169.03 149.90 169.41 150.79 168.98 C 151.67 168.56 152.05 167.50 151.62 166.61 L 151.18 165.70 C 150.76 164.81 149.70 164.44 148.81 164.86 C 147.93 165.29 147.55 166.35 147.98 167.24 Z M 148.43 168.17 L 148.90 169.11 C 149.33 169.99 150.40 170.34 151.27 169.91 C 152.15 169.48 152.51 168.42 152.07 167.54 L 151.61 166.60 C 151.17 165.72 150.11 165.36 149.24 165.79 C 148.36 166.23 148.00 167.29 148.43 168.17 Z M 148.93 169.13 L 149.44 170.11 C 149.89 170.97 150.95 171.31 151.81 170.86 C 152.66 170.42 153.00 169.36 152.55 168.50 L 152.04 167.52 C 151.60 166.66 150.54 166.32 149.68 166.77 C 148.82 167.22 148.49 168.27 148.93 169.13 Z M 149.49 170.15 L 149.94 170.96 C 150.41 171.80 151.46 172.10 152.30 171.63 C 153.13 171.16 153.43 170.11 152.96 169.28 L 152.51 168.46 C 152.04 167.63 150.99 167.33 150.15 167.80 C 149.32 168.26 149.02 169.32 149.49 170.15 Z M 150.00 171.02 L 150.51 171.85 C 151.01 172.66 152.06 172.91 152.87 172.41 C 153.67 171.91 153.92 170.86 153.42 170.06 L 152.91 169.22 C 152.41 168.42 151.36 168.17 150.55 168.67 C 149.75 169.16 149.50 170.22 150.00 171.02 Z M 150.63 172.02 L 151.30 172.86 C 151.89 173.60 152.96 173.72 153.70 173.14 C 154.44 172.55 154.56 171.48 153.98 170.74 L 153.30 169.89 C 152.72 169.16 151.65 169.03 150.91 169.62 C 150.17 170.20 150.05 171.28 150.63 172.02 Z M 154.09 172.73 L 154.28 172.43 C 154.79 171.63 154.56 170.56 153.76 170.05 C 152.95 169.54 151.89 169.78 151.38 170.58 L 151.19 170.88 C 150.68 171.68 150.91 172.74 151.71 173.26 C 152.52 173.77 153.58 173.53 154.09 172.73 Z M 154.55 171.18 L 154.35 170.08 C 154.17 169.13 153.25 168.50 152.30 168.68 C 151.35 168.85 150.72 169.77 150.90 170.72 L 151.11 171.83 C 151.28 172.78 152.20 173.40 153.15 173.23 C 154.10 173.05 154.73 172.14 154.55 171.18 Z M 154.34 169.92 L 154.03 168.82 C 153.76 167.88 152.78 167.33 151.84 167.59 C 150.89 167.86 150.34 168.84 150.60 169.79 L 150.91 170.88 C 151.18 171.83 152.16 172.38 153.10 172.11 C 154.05 171.85 154.60 170.86 154.34 169.92 Z M 154.03 168.74 L 153.72 167.80 C 153.41 166.86 152.39 166.34 151.45 166.65 C 150.50 166.96 149.99 167.98 150.30 168.92 L 150.61 169.86 C 150.92 170.81 151.93 171.32 152.88 171.01 C 153.82 170.71 154.34 169.69 154.03 168.74 Z M 153.73 167.79 L 153.43 166.87 C 153.11 165.92 152.08 165.41 151.13 165.72 C 150.18 166.04 149.66 167.07 149.98 168.02 L 150.28 168.94 C 150.60 169.89 151.63 170.40 152.58 170.09 C 153.53 169.77 154.05 168.74 153.73 167.79 Z M 153.46 166.93 L 153.19 165.99 C 152.90 165.02 151.88 164.46 150.91 164.75 C 149.93 165.04 149.38 166.06 149.67 167.03 L 149.94 167.97 C 150.23 168.94 151.25 169.50 152.23 169.21 C 153.20 168.92 153.75 167.90 153.46 166.93 Z M 153.24 166.10 L 153.00 165.09 C 152.77 164.09 151.78 163.46 150.78 163.69 C 149.78 163.92 149.16 164.92 149.39 165.92 L 149.62 166.93 C 149.85 167.93 150.84 168.55 151.84 168.32 C 152.84 168.09 153.47 167.10 153.24 166.10 Z M 153.05 165.21 L 152.90 164.24 C 152.73 163.22 151.77 162.52 150.75 162.68 C 149.73 162.84 149.03 163.80 149.19 164.82 L 149.34 165.79 C 149.50 166.82 150.46 167.52 151.49 167.36 C 152.51 167.19 153.21 166.23 153.05 165.21 Z M 152.93 164.34 L 152.82 163.33 C 152.71 162.29 151.78 161.53 150.74 161.64 C 149.70 161.75 148.95 162.68 149.05 163.72 L 149.16 164.73 C 149.27 165.77 150.20 166.52 151.24 166.42 C 152.28 166.31 153.03 165.38 152.93 164.34 Z M 152.84 163.41 L 152.78 162.39 C 152.72 161.33 151.81 160.53 150.76 160.60 C 149.70 160.66 148.90 161.57 148.97 162.62 L 149.03 163.64 C 149.10 164.70 150.00 165.50 151.06 165.43 C 152.11 165.37 152.91 164.46 152.84 163.41 Z M 152.80 162.53 L 152.81 161.51 C 152.83 160.45 151.98 159.57 150.92 159.56 C 149.86 159.54 148.99 160.39 148.97 161.45 L 148.95 162.47 C 148.94 163.53 149.78 164.41 150.85 164.42 C 151.91 164.44 152.78 163.59 152.80 162.53 Z M 152.77 161.90 L 152.98 160.96 C 153.21 159.92 152.56 158.89 151.52 158.66 C 150.48 158.42 149.45 159.08 149.22 160.12 L 149.01 161.06 C 148.78 162.10 149.43 163.13 150.47 163.36 C 151.51 163.59 152.54 162.94 152.77 161.90 Z M 152.77 161.52 L 153.21 160.76 C 153.75 159.84 153.45 158.66 152.53 158.11 C 151.61 157.57 150.42 157.88 149.88 158.80 L 149.43 159.56 C 148.89 160.48 149.20 161.66 150.12 162.21 C 151.04 162.75 152.22 162.44 152.77 161.52 Z M 152.87 161.19 L 153.56 160.54 C 154.34 159.81 154.38 158.59 153.65 157.81 C 152.92 157.03 151.69 156.99 150.91 157.72 L 150.22 158.37 C 149.44 159.10 149.40 160.32 150.13 161.10 C 150.86 161.88 152.09 161.92 152.87 161.19 Z M 153.25 160.78 L 154.20 160.20 C 155.11 159.65 155.40 158.45 154.84 157.54 C 154.28 156.63 153.09 156.34 152.18 156.90 L 151.23 157.48 C 150.32 158.04 150.03 159.23 150.59 160.14 C 151.14 161.05 152.34 161.34 153.25 160.78 Z M 153.98 160.32 L 154.87 159.91 C 155.85 159.47 156.28 158.33 155.84 157.35 C 155.40 156.38 154.25 155.95 153.28 156.39 L 152.39 156.79 C 151.42 157.23 150.98 158.37 151.42 159.35 C 151.86 160.32 153.01 160.76 153.98 160.32 Z M 154.74 159.97 L 155.67 159.63 C 156.67 159.26 157.19 158.15 156.82 157.14 C 156.45 156.14 155.34 155.63 154.34 155.99 L 153.41 156.33 C 152.41 156.70 151.89 157.81 152.26 158.82 C 152.63 159.82 153.74 160.33 154.74 159.97 Z M 155.57 159.66 L 156.56 159.36 C 157.58 159.04 158.15 157.96 157.84 156.94 C 157.53 155.92 156.44 155.35 155.42 155.66 L 154.44 155.96 C 153.42 156.27 152.84 157.36 153.16 158.38 C 153.47 159.40 154.55 159.97 155.57 159.66 Z M 156.47 159.38 L 157.47 159.12 C 158.51 158.86 159.13 157.80 158.87 156.77 C 158.60 155.74 157.55 155.11 156.51 155.38 L 155.51 155.64 C 154.48 155.90 153.85 156.96 154.12 157.99 C 154.38 159.02 155.44 159.65 156.47 159.38 Z M 157.39 159.14 L 158.40 158.93 C 159.44 158.71 160.11 157.68 159.89 156.64 C 159.67 155.60 158.65 154.93 157.60 155.15 L 156.60 155.36 C 155.55 155.58 154.88 156.61 155.10 157.65 C 155.32 158.69 156.35 159.36 157.39 159.14 Z M 158.32 158.94 L 159.31 158.78 C 160.36 158.60 161.07 157.60 160.90 156.55 C 160.72 155.50 159.73 154.79 158.68 154.97 L 157.68 155.13 C 156.63 155.31 155.92 156.31 156.10 157.36 C 156.27 158.41 157.27 159.12 158.32 158.94 Z M 159.24 158.78 L 160.22 158.66 C 161.28 158.52 162.02 157.55 161.89 156.50 C 161.75 155.44 160.78 154.69 159.73 154.83 L 158.75 154.96 C 157.69 155.10 156.94 156.06 157.08 157.12 C 157.22 158.18 158.19 158.92 159.24 158.78 Z M 160.17 158.66 L 161.14 158.57 C 162.20 158.46 162.98 157.52 162.87 156.46 C 162.77 155.40 161.82 154.62 160.76 154.73 L 159.78 154.83 C 158.72 154.93 157.95 155.88 158.06 156.94 C 158.16 157.99 159.11 158.77 160.17 158.66 Z M 161.10 158.57 L 162.11 158.49 C 163.17 158.41 163.96 157.48 163.88 156.42 C 163.79 155.36 162.87 154.57 161.81 154.65 L 160.81 154.73 C 159.75 154.81 158.95 155.74 159.03 156.80 C 159.12 157.86 160.04 158.65 161.10 158.57 Z M 162.07 158.49 L 163.09 158.42 C 164.15 158.36 164.95 157.45 164.89 156.39 C 164.82 155.33 163.91 154.52 162.85 154.59 L 161.84 154.65 C 160.78 154.72 159.97 155.63 160.04 156.69 C 160.10 157.75 161.02 158.55 162.07 158.49 Z M 163.06 158.42 L 164.07 158.37 C 165.12 158.32 165.94 157.42 165.89 156.36 C 165.84 155.31 164.94 154.49 163.88 154.54 L 162.88 154.59 C 161.82 154.64 161.00 155.54 161.05 156.60 C 161.11 157.66 162.01 158.47 163.06 158.42 Z M 164.05 158.37 L 165.03 158.33 C 166.09 158.28 166.91 157.39 166.86 156.34 C 166.82 155.28 165.93 154.46 164.87 154.51 L 163.89 154.55 C 162.84 154.59 162.02 155.48 162.06 156.54 C 162.11 157.59 163.00 158.41 164.05 158.37 Z M 165.02 158.32 L 166.09 158.28 C 167.14 158.25 167.96 157.36 167.92 156.31 C 167.89 155.26 167.00 154.44 165.95 154.47 L 164.88 154.51 C 163.83 154.55 163.01 155.43 163.05 156.49 C 163.08 157.54 163.97 158.36 165.02 158.32 Z M 166.07 158.28 L 167.10 158.25 C 168.14 158.22 168.97 157.35 168.95 156.31 C 168.92 155.26 168.05 154.43 167.00 154.46 L 165.97 154.48 C 164.92 154.51 164.10 155.38 164.12 156.43 C 164.15 157.47 165.02 158.30 166.07 158.28 Z M 167.06 158.24 L 168.01 158.24 C 169.05 158.23 169.89 157.38 169.89 156.34 C 169.89 155.30 169.04 154.46 167.99 154.46 L 167.04 154.47 C 166.00 154.47 165.16 155.32 165.16 156.36 C 165.16 157.40 166.01 158.25 167.06 158.24 Z M 167.93 158.23 L 168.96 158.27 C 170.00 158.30 170.87 157.50 170.91 156.46 C 170.95 155.42 170.14 154.55 169.10 154.51 L 168.07 154.47 C 167.03 154.43 166.16 155.24 166.12 156.28 C 166.09 157.32 166.89 158.19 167.93 158.23 Z M 168.68 158.23 L 169.69 158.42 C 170.70 158.61 171.68 157.94 171.88 156.93 C 172.07 155.91 171.40 154.93 170.39 154.74 L 169.38 154.55 C 168.37 154.36 167.39 155.02 167.19 156.04 C 167.00 157.05 167.67 158.03 168.68 158.23 Z M 168.92 158.07 L 169.59 158.57 C 170.41 159.19 171.58 159.02 172.20 158.19 C 172.81 157.37 172.64 156.20 171.82 155.58 L 171.15 155.09 C 170.33 154.47 169.16 154.64 168.54 155.47 C 167.93 156.29 168.10 157.46 168.92 158.07 Z M 168.93 157.63 L 169.19 158.46 C 169.50 159.44 170.54 159.99 171.51 159.68 C 172.49 159.38 173.04 158.34 172.73 157.36 L 172.47 156.53 C 172.17 155.55 171.13 155.00 170.15 155.31 C 169.17 155.61 168.63 156.65 168.93 157.63 Z M 169.13 157.70 L 169.01 158.76 C 168.89 159.77 169.62 160.69 170.63 160.81 C 171.64 160.92 172.56 160.20 172.67 159.19 L 172.80 158.13 C 172.91 157.11 172.19 156.20 171.18 156.08 C 170.16 155.96 169.25 156.69 169.13 157.70 Z M 169.15 158.26 L 168.74 159.22 C 168.35 160.16 168.79 161.23 169.73 161.63 C 170.66 162.02 171.74 161.58 172.13 160.64 L 172.53 159.69 C 172.93 158.75 172.49 157.67 171.55 157.28 C 170.62 156.89 169.54 157.33 169.15 158.26 Z M 168.89 158.95 L 168.34 159.81 C 167.80 160.67 168.06 161.80 168.91 162.34 C 169.77 162.88 170.90 162.63 171.44 161.77 L 171.99 160.91 C 172.53 160.06 172.28 158.93 171.42 158.38 C 170.56 157.84 169.43 158.10 168.89 158.95 Z M 168.44 159.68 L 167.82 160.49 C 167.21 161.30 167.36 162.45 168.17 163.06 C 168.97 163.67 170.12 163.52 170.74 162.71 L 171.35 161.90 C 171.97 161.10 171.81 159.95 171.00 159.33 C 170.20 158.72 169.05 158.88 168.44 159.68 Z M 167.86 160.44 L 167.21 161.24 C 166.57 162.03 166.68 163.18 167.47 163.82 C 168.25 164.46 169.40 164.34 170.04 163.56 L 170.70 162.76 C 171.34 161.98 171.22 160.82 170.44 160.18 C 169.65 159.54 168.50 159.66 167.86 160.44 Z M 167.22 161.23 L 166.57 162.00 C 165.92 162.78 166.03 163.93 166.80 164.58 C 167.58 165.23 168.73 165.13 169.38 164.35 L 170.03 163.58 C 170.68 162.80 170.57 161.65 169.80 161.00 C 169.02 160.35 167.87 160.45 167.22 161.23 Z M 166.59 161.99 L 165.97 162.71 C 165.32 163.47 165.41 164.63 166.17 165.28 C 166.94 165.94 168.09 165.85 168.75 165.08 L 169.36 164.37 C 170.02 163.60 169.93 162.45 169.17 161.79 C 168.40 161.13 167.24 161.22 166.59 161.99 Z M 165.99 162.69 L 165.34 163.43 C 164.68 164.19 164.76 165.34 165.52 166.01 C 166.27 166.67 167.43 166.59 168.09 165.83 L 168.74 165.10 C 169.40 164.34 169.32 163.18 168.56 162.52 C 167.80 161.86 166.65 161.93 165.99 162.69 Z M 165.35 163.42 L 164.69 164.18 C 164.02 164.93 164.09 166.08 164.85 166.75 C 165.60 167.42 166.75 167.35 167.42 166.59 L 168.09 165.84 C 168.75 165.08 168.68 163.93 167.93 163.26 C 167.17 162.60 166.02 162.67 165.35 163.42 Z M 164.68 164.18 L 164.02 164.93 C 163.36 165.69 163.43 166.84 164.19 167.51 C 164.94 168.17 166.09 168.10 166.76 167.34 L 167.42 166.59 C 168.09 165.83 168.01 164.68 167.26 164.01 C 166.50 163.35 165.35 163.42 164.68 164.18 Z M 164.02 164.94 L 163.37 165.68 C 162.71 166.44 162.78 167.59 163.54 168.25 C 164.30 168.92 165.45 168.84 166.12 168.08 L 166.76 167.34 C 167.43 166.58 167.35 165.42 166.59 164.76 C 165.83 164.10 164.68 164.18 164.02 164.94 Z M 163.36 165.69 L 162.70 166.45 C 162.04 167.21 162.12 168.36 162.88 169.02 C 163.64 169.68 164.80 169.60 165.46 168.84 L 166.12 168.08 C 166.78 167.32 166.70 166.16 165.94 165.50 C 165.18 164.84 164.02 164.92 163.36 165.69 Z M 162.70 166.45 L 162.04 167.22 C 161.38 167.98 161.46 169.13 162.22 169.79 C 162.98 170.45 164.13 170.37 164.79 169.61 L 165.46 168.84 C 166.12 168.08 166.04 166.93 165.27 166.27 C 164.51 165.61 163.36 165.69 162.70 166.45 Z M 162.04 167.21 L 161.37 167.98 C 160.71 168.74 160.79 169.89 161.55 170.55 C 162.31 171.22 163.47 171.14 164.13 170.37 L 164.79 169.61 C 165.46 168.85 165.38 167.69 164.61 167.03 C 163.85 166.37 162.70 166.45 162.04 167.21 Z M 161.37 167.97 L 160.72 168.71 C 160.06 169.47 160.14 170.63 160.90 171.30 C 161.66 171.96 162.81 171.88 163.48 171.12 L 164.13 170.38 C 164.79 169.62 164.72 168.46 163.96 167.80 C 163.20 167.13 162.04 167.21 161.37 167.97 Z M 160.73 168.70 L 160.04 169.48 C 159.37 170.23 159.44 171.39 160.20 172.07 C 160.96 172.74 162.12 172.67 162.79 171.91 L 163.48 171.13 C 164.15 170.37 164.08 169.21 163.32 168.54 C 162.56 167.87 161.40 167.94 160.73 168.70 Z M 160.05 169.46 L 159.39 170.19 C 158.71 170.95 158.77 172.11 159.53 172.79 C 160.28 173.47 161.45 173.41 162.13 172.66 L 162.79 171.92 C 163.47 171.17 163.41 170.00 162.65 169.32 C 161.89 168.64 160.73 168.70 160.05 169.46 Z M 159.40 170.17 L 158.73 170.90 C 158.04 171.65 158.08 172.82 158.84 173.52 C 159.59 174.21 160.76 174.16 161.45 173.40 L 162.12 172.68 C 162.81 171.92 162.76 170.75 162.01 170.06 C 161.26 169.37 160.09 169.42 159.40 170.17 Z M 158.74 170.88 L 158.05 171.61 C 157.34 172.36 157.38 173.54 158.12 174.24 C 158.87 174.94 160.05 174.91 160.75 174.16 L 161.44 173.43 C 162.15 172.68 162.11 171.50 161.37 170.80 C 160.62 170.09 159.44 170.13 158.74 170.88 Z M 158.05 171.59 L 157.38 172.29 C 156.66 173.03 156.68 174.22 157.42 174.93 C 158.17 175.65 159.35 175.63 160.07 174.89 L 160.75 174.18 C 161.46 173.44 161.44 172.26 160.70 171.54 C 159.95 170.82 158.77 170.84 158.05 171.59 Z M 157.38 172.27 L 156.72 172.94 C 155.99 173.68 156.00 174.87 156.73 175.60 C 157.47 176.33 158.66 176.32 159.39 175.58 L 160.06 174.91 C 160.79 174.17 160.78 172.98 160.04 172.25 C 159.30 171.52 158.11 171.53 157.38 172.27 Z M 156.72 172.92 L 155.99 173.64 C 155.25 174.38 155.25 175.58 155.98 176.32 C 156.72 177.06 157.92 177.07 158.66 176.33 L 159.39 175.61 C 160.13 174.87 160.13 173.67 159.40 172.93 C 158.66 172.19 157.46 172.18 156.72 172.92 Z M 155.99 173.63 L 155.27 174.33 C 154.52 175.07 154.51 176.27 155.24 177.02 C 155.98 177.78 157.19 177.79 157.94 177.05 L 158.66 176.35 C 159.41 175.61 159.42 174.41 158.69 173.66 C 157.95 172.90 156.74 172.89 155.99 173.63 Z M 155.28 174.30 L 154.54 175.01 C 153.77 175.75 153.74 176.96 154.48 177.73 C 155.21 178.50 156.43 178.52 157.20 177.79 L 157.94 177.08 C 158.70 176.35 158.73 175.13 157.99 174.36 C 157.26 173.59 156.04 173.57 155.28 174.30 Z M 154.55 174.97 L 153.81 175.66 C 153.02 176.38 152.98 177.61 153.70 178.40 C 154.43 179.19 155.66 179.23 156.44 178.51 L 157.18 177.83 C 157.97 177.10 158.02 175.87 157.29 175.08 C 156.56 174.30 155.34 174.25 154.55 174.97 Z M 153.83 175.59 L 152.83 176.46 C 152.01 177.17 151.92 178.42 152.64 179.24 C 153.35 180.07 154.60 180.16 155.42 179.44 L 156.42 178.58 C 157.25 177.86 157.33 176.61 156.62 175.79 C 155.91 174.96 154.66 174.88 153.83 175.59 Z M 152.67 176.54 L 152.41 176.80 C 151.63 177.61 151.65 178.89 152.45 179.67 C 153.25 180.45 154.54 180.43 155.32 179.63 L 155.58 179.36 C 156.36 178.56 156.34 177.28 155.54 176.50 C 154.74 175.72 153.46 175.73 152.67 176.54 Z M 154.94 179.97 L 155.54 179.61 C 156.51 179.01 156.82 177.74 156.22 176.77 C 155.63 175.80 154.36 175.50 153.39 176.09 L 152.79 176.46 C 151.82 177.06 151.52 178.32 152.11 179.29 C 152.70 180.26 153.97 180.57 154.94 179.97 Z M 155.57 179.60 L 156.67 178.92 C 157.64 178.31 157.93 177.03 157.32 176.06 C 156.71 175.09 155.43 174.80 154.46 175.41 L 153.37 176.09 C 152.40 176.70 152.10 177.98 152.71 178.95 C 153.32 179.92 154.60 180.21 155.57 179.60 Z M 156.64 178.94 L 157.59 178.36 C 158.57 177.77 158.88 176.49 158.29 175.51 C 157.70 174.53 156.42 174.22 155.44 174.81 L 154.49 175.38 C 153.51 175.98 153.19 177.25 153.79 178.24 C 154.38 179.22 155.66 179.53 156.64 178.94 Z M 157.56 178.38 L 158.45 177.86 C 159.44 177.28 159.77 176.01 159.20 175.02 C 158.62 174.03 157.35 173.70 156.36 174.28 L 155.47 174.80 C 154.48 175.37 154.15 176.64 154.72 177.63 C 155.30 178.62 156.57 178.95 157.56 178.38 Z M 158.42 177.87 L 159.30 177.37 C 160.29 176.81 160.64 175.55 160.08 174.56 C 159.52 173.56 158.26 173.21 157.27 173.77 L 156.39 174.27 C 155.40 174.83 155.05 176.09 155.61 177.08 C 156.17 178.07 157.43 178.42 158.42 177.87 Z M 159.26 177.38 L 160.13 176.91 C 161.13 176.37 161.50 175.12 160.96 174.12 C 160.42 173.12 159.17 172.75 158.17 173.29 L 157.31 173.76 C 156.31 174.30 155.94 175.55 156.48 176.55 C 157.02 177.55 158.26 177.92 159.26 177.38 Z M 160.08 176.91 L 161.03 176.42 C 162.03 175.91 162.42 174.69 161.91 173.69 C 161.40 172.69 160.18 172.30 159.18 172.81 L 158.23 173.29 C 157.23 173.81 156.84 175.03 157.35 176.03 C 157.86 177.02 159.08 177.42 160.08 176.91 Z M 160.98 176.40 L 161.83 175.99 C 162.81 175.50 163.22 174.31 162.74 173.32 C 162.26 172.34 161.06 171.93 160.08 172.41 L 159.23 172.83 C 158.24 173.31 157.84 174.50 158.32 175.49 C 158.80 176.48 159.99 176.88 160.98 176.40 Z M 161.81 175.95 L 162.60 175.57 C 163.57 175.09 163.97 173.92 163.50 172.96 C 163.03 171.99 161.86 171.58 160.89 172.06 L 160.10 172.44 C 159.13 172.92 158.72 174.09 159.20 175.06 C 159.67 176.03 160.84 176.43 161.81 175.95 Z M 162.59 175.54 L 163.42 175.13 C 164.37 174.66 164.77 173.51 164.30 172.56 C 163.83 171.61 162.68 171.21 161.73 171.68 L 160.90 172.09 C 159.95 172.55 159.55 173.70 160.02 174.66 C 160.49 175.61 161.64 176.00 162.59 175.54 Z M 163.39 175.11 L 164.38 174.64 C 165.32 174.19 165.72 173.06 165.27 172.12 C 164.82 171.18 163.69 170.78 162.74 171.23 L 161.76 171.70 C 160.82 172.15 160.42 173.28 160.87 174.22 C 161.32 175.17 162.45 175.56 163.39 175.11 Z M 164.34 174.63 L 165.23 174.22 C 166.16 173.78 166.57 172.67 166.14 171.74 C 165.71 170.81 164.60 170.40 163.66 170.83 L 162.78 171.24 C 161.84 171.68 161.43 172.78 161.87 173.72 C 162.30 174.65 163.41 175.06 164.34 174.63 Z M 165.20 174.20 L 166.10 173.79 C 167.03 173.38 167.44 172.29 167.02 171.36 C 166.61 170.44 165.52 170.02 164.59 170.44 L 163.69 170.85 C 162.76 171.27 162.35 172.35 162.77 173.28 C 163.19 174.21 164.28 174.62 165.20 174.20 Z M 166.07 173.78 L 167.03 173.36 C 167.94 172.96 168.36 171.89 167.96 170.97 C 167.56 170.06 166.49 169.64 165.57 170.04 L 164.62 170.46 C 163.70 170.86 163.28 171.93 163.69 172.84 C 164.09 173.76 165.16 174.18 166.07 173.78 Z M 166.99 173.35 L 167.95 172.94 C 168.86 172.56 169.29 171.51 168.91 170.60 C 168.52 169.69 167.47 169.27 166.56 169.65 L 165.61 170.05 C 164.70 170.44 164.27 171.49 164.65 172.40 C 165.04 173.31 166.09 173.73 166.99 173.35 Z M 167.91 172.92 L 168.89 172.53 C 169.79 172.17 170.23 171.15 169.86 170.25 C 169.50 169.35 168.48 168.92 167.58 169.28 L 166.61 169.67 C 165.71 170.03 165.27 171.05 165.63 171.95 C 165.99 172.85 167.01 173.29 167.91 172.92 Z M 168.84 172.50 L 169.80 172.14 C 170.68 171.81 171.13 170.82 170.79 169.93 C 170.45 169.05 169.46 168.61 168.58 168.94 L 167.63 169.30 C 166.74 169.64 166.30 170.63 166.64 171.51 C 166.97 172.40 167.96 172.84 168.84 172.50 Z M 169.76 172.11 L 170.68 171.77 C 171.54 171.46 171.99 170.50 171.67 169.64 C 171.36 168.77 170.40 168.33 169.54 168.64 L 168.62 168.98 C 167.75 169.29 167.31 170.25 167.62 171.11 C 167.94 171.98 168.90 172.42 169.76 172.11 Z M 170.65 171.73 L 171.56 171.41 C 172.40 171.11 172.84 170.18 172.54 169.34 C 172.24 168.50 171.31 168.06 170.47 168.36 L 169.57 168.68 C 168.72 168.98 168.28 169.91 168.58 170.75 C 168.88 171.59 169.81 172.03 170.65 171.73 Z M 171.55 171.39 L 171.64 171.35 C 172.47 171.06 172.91 170.15 172.61 169.32 C 172.32 168.49 171.41 168.05 170.58 168.35 L 170.48 168.38 C 169.65 168.68 169.22 169.59 169.51 170.42 C 169.80 171.25 170.71 171.68 171.55 171.39 Z"
      fill="black"
      fill-rule="nonzero" /></svg>