<svg xmlns="http://www.w3.org/2000/svg" width="300" height="300" viewBox="0 0 300 300">
<path d="M 139.75 122.43 L 140.11 123.25 C 140.51 124.14 141.55 124.55 142.44 124.16 C 143.33 123.76 143.73 122.72 143.34 121.83 L 142.98 121.01 C 142.59 120.12 141.55 119.72 140.66 120.11 C 139.77 120.50 139.36 121.54 139.75 122.43 Z M 139.92 123.17 L 140.24 124.10 C 140.59 125.09 141.68 125.62 142.68 125.28 C 143.67 124.93 144.20 123.84 143.86 122.84 L 143.53 121.91 C 143.19 120.92 142.10 120.39 141.10 120.73 C 140.10 121.08 139.57 122.17 139.92 123.17 Z M 140.04 123.91 L 140.28 124.98 C 140.52 126.09 141.62 126.79 142.72 126.55 C 143.83 126.30 144.53 125.21 144.29 124.10 L 144.05 123.03 C 143.81 121.92 142.72 121.22 141.61 121.46 C 140.50 121.71 139.80 122.80 140.04 123.91 Z M 140.18 124.81 L 140.30 125.73 C 140.44 126.89 141.50 127.71 142.66 127.57 C 143.82 127.42 144.65 126.36 144.50 125.20 L 144.39 124.28 C 144.24 123.12 143.18 122.30 142.02 122.44 C 140.86 122.59 140.04 123.64 140.18 124.81 Z M 140.28 125.63 L 140.36 126.63 C 140.45 127.81 141.47 128.68 142.64 128.59 C 143.81 128.50 144.68 127.48 144.60 126.31 L 144.52 125.30 C 144.43 124.13 143.41 123.26 142.24 123.35 C 141.07 123.44 140.19 124.46 140.28 125.63 Z M 140.35 126.57 L 140.39 127.62 C 140.45 128.79 141.45 129.70 142.62 129.65 C 143.80 129.60 144.71 128.60 144.65 127.42 L 144.61 126.38 C 144.55 125.20 143.56 124.29 142.38 124.34 C 141.20 124.40 140.29 125.39 140.35 126.57 Z M 140.39 127.58 L 140.41 128.61 C 140.45 129.79 141.43 130.72 142.61 130.69 C 143.79 130.66 144.72 129.68 144.69 128.50 L 144.66 127.46 C 144.63 126.28 143.65 125.35 142.47 125.38 C 141.28 125.41 140.35 126.40 140.39 127.58 Z M 140.41 128.59 L 140.43 129.61 C 140.45 130.80 141.42 131.74 142.61 131.72 C 143.79 131.70 144.73 130.72 144.71 129.54 L 144.70 128.52 C 144.68 127.33 143.70 126.39 142.52 126.41 C 141.33 126.43 140.39 127.41 140.41 128.59 Z M 140.42 129.60 L 140.43 130.58 C 140.44 131.77 141.41 132.72 142.60 132.71 C 143.78 132.70 144.73 131.73 144.72 130.55 L 144.71 129.56 C 144.70 128.37 143.73 127.42 142.55 127.43 C 141.37 127.44 140.41 128.41 140.42 129.60 Z M 140.43 130.57 L 140.44 131.55 C 140.44 132.74 141.40 133.70 142.59 133.69 C 143.77 133.69 144.73 132.72 144.73 131.54 L 144.72 130.56 C 144.72 129.37 143.76 128.41 142.57 128.42 C 141.39 128.42 140.43 129.39 140.43 130.57 Z M 140.43 131.55 L 140.44 132.55 C 140.44 133.74 141.40 134.70 142.58 134.70 C 143.77 134.70 144.73 133.74 144.73 132.55 L 144.73 131.55 C 144.73 130.36 143.77 129.40 142.58 129.40 C 141.40 129.40 140.43 130.36 140.43 131.55 Z M 140.43 132.55 L 140.43 133.49 C 140.43 134.67 141.39 135.64 142.58 135.64 C 143.76 135.64 144.73 134.68 144.73 133.49 L 144.73 132.56 C 144.73 131.37 143.77 130.41 142.58 130.41 C 141.40 130.40 140.44 131.36 140.43 132.55 Z M 140.43 133.47 L 140.43 134.45 C 140.42 135.63 141.37 136.60 142.55 136.61 C 143.74 136.62 144.71 135.67 144.72 134.48 L 144.73 133.51 C 144.74 132.32 143.78 131.35 142.60 131.34 C 141.41 131.33 140.44 132.29 140.43 133.47 Z M 140.43 134.42 L 140.40 135.43 C 140.38 136.61 141.32 137.59 142.50 137.62 C 143.69 137.65 144.67 136.71 144.70 135.52 L 144.72 134.51 C 144.75 133.33 143.81 132.34 142.62 132.32 C 141.44 132.29 140.45 133.23 140.43 134.42 Z M 140.40 135.38 L 140.36 136.43 C 140.31 137.61 141.23 138.61 142.41 138.66 C 143.60 138.71 144.60 137.79 144.65 136.61 L 144.70 135.56 C 144.75 134.38 143.83 133.38 142.64 133.33 C 141.46 133.28 140.45 134.20 140.40 135.38 Z M 140.36 136.37 L 140.30 137.38 C 140.22 138.57 141.11 139.59 142.29 139.67 C 143.48 139.75 144.50 138.85 144.58 137.67 L 144.65 136.66 C 144.73 135.48 143.83 134.45 142.65 134.37 C 141.47 134.29 140.44 135.19 140.36 136.37 Z M 140.30 137.33 L 140.21 138.30 C 140.11 139.48 140.98 140.52 142.16 140.63 C 143.34 140.74 144.38 139.87 144.49 138.69 L 144.58 137.72 C 144.68 136.54 143.81 135.50 142.63 135.39 C 141.45 135.28 140.41 136.15 140.30 137.33 Z M 140.22 138.26 L 140.11 139.24 C 139.98 140.42 140.83 141.48 142.01 141.61 C 143.19 141.74 144.25 140.89 144.38 139.71 L 144.48 138.72 C 144.61 137.55 143.76 136.49 142.58 136.36 C 141.41 136.23 140.35 137.08 140.22 138.26 Z M 140.11 139.21 L 139.99 140.22 C 139.85 141.39 140.68 142.46 141.86 142.61 C 143.03 142.75 144.10 141.92 144.25 140.74 L 144.37 139.74 C 144.52 138.56 143.68 137.49 142.51 137.35 C 141.33 137.20 140.26 138.04 140.11 139.21 Z M 140.00 140.19 L 139.86 141.21 C 139.70 142.39 140.53 143.46 141.70 143.62 C 142.87 143.78 143.95 142.95 144.11 141.78 L 144.24 140.76 C 144.40 139.59 143.58 138.51 142.40 138.35 C 141.23 138.20 140.15 139.02 140.00 140.19 Z M 139.86 141.20 L 139.72 142.22 C 139.55 143.39 140.37 144.47 141.54 144.64 C 142.71 144.80 143.80 143.99 143.96 142.81 L 144.10 141.80 C 144.27 140.62 143.45 139.54 142.28 139.37 C 141.11 139.21 140.03 140.03 139.86 141.20 Z M 139.72 142.21 L 139.57 143.21 C 139.40 144.38 140.21 145.47 141.38 145.64 C 142.55 145.81 143.64 145.00 143.81 143.83 L 143.96 142.83 C 144.13 141.66 143.32 140.57 142.15 140.40 C 140.98 140.23 139.89 141.04 139.72 142.21 Z M 139.58 143.19 L 139.42 144.20 C 139.24 145.36 140.05 146.46 141.21 146.64 C 142.38 146.82 143.47 146.02 143.65 144.85 L 143.81 143.84 C 143.99 142.68 143.19 141.58 142.02 141.40 C 140.85 141.23 139.76 142.03 139.58 143.19 Z M 139.43 144.18 L 139.27 145.17 C 139.08 146.34 139.87 147.44 141.03 147.63 C 142.20 147.82 143.29 147.03 143.48 145.86 L 143.65 144.87 C 143.84 143.70 143.05 142.60 141.88 142.41 C 140.72 142.22 139.62 143.01 139.43 144.18 Z M 139.27 145.15 L 139.10 146.12 C 138.90 147.28 139.67 148.39 140.83 148.60 C 142.00 148.80 143.10 148.02 143.31 146.86 L 143.48 145.89 C 143.68 144.73 142.91 143.62 141.75 143.41 C 140.58 143.21 139.48 143.99 139.27 145.15 Z M 139.11 146.09 L 138.93 147.05 C 138.70 148.20 139.46 149.32 140.62 149.54 C 141.78 149.76 142.89 149.01 143.12 147.85 L 143.30 146.89 C 143.52 145.74 142.76 144.62 141.61 144.40 C 140.45 144.18 139.33 144.94 139.11 146.09 Z M 138.94 147.01 L 138.72 148.04 C 138.48 149.19 139.21 150.32 140.36 150.56 C 141.51 150.81 142.64 150.07 142.89 148.92 L 143.11 147.89 C 143.35 146.74 142.61 145.61 141.46 145.36 C 140.31 145.12 139.18 145.86 138.94 147.01 Z M 138.73 148.00 L 138.50 148.99 C 138.24 150.13 138.95 151.28 140.09 151.54 C 141.24 151.81 142.38 151.09 142.65 149.95 L 142.88 148.96 C 143.14 147.81 142.43 146.67 141.28 146.41 C 140.14 146.14 139.00 146.85 138.73 148.00 Z M 138.51 148.96 L 138.28 149.92 C 137.99 151.05 138.69 152.21 139.82 152.49 C 140.96 152.77 142.11 152.08 142.39 150.94 L 142.63 149.98 C 142.92 148.84 142.22 147.69 141.09 147.41 C 139.95 147.13 138.80 147.82 138.51 148.96 Z M 138.29 149.89 L 138.04 150.83 C 137.74 151.96 138.42 153.12 139.55 153.41 C 140.68 153.71 141.84 153.04 142.14 151.90 L 142.38 150.97 C 142.68 149.84 142.01 148.68 140.87 148.38 C 139.74 148.08 138.58 148.76 138.29 149.89 Z M 138.05 150.81 L 137.79 151.75 C 137.48 152.88 138.14 154.04 139.27 154.35 C 140.40 154.66 141.56 154.00 141.87 152.87 L 142.13 151.92 C 142.44 150.80 141.77 149.63 140.65 149.33 C 139.52 149.02 138.36 149.68 138.05 150.81 Z M 137.80 151.73 L 137.52 152.72 C 137.20 153.84 137.85 155.01 138.97 155.32 C 140.09 155.64 141.26 154.99 141.58 153.87 L 141.86 152.89 C 142.18 151.77 141.53 150.60 140.41 150.28 C 139.29 149.96 138.12 150.61 137.80 151.73 Z M 137.53 152.69 L 137.24 153.66 C 136.91 154.77 137.54 155.94 138.66 156.28 C 139.77 156.61 140.94 155.98 141.28 154.86 L 141.56 153.90 C 141.90 152.79 141.27 151.61 140.15 151.28 C 139.04 150.95 137.87 151.58 137.53 152.69 Z M 137.26 153.63 L 136.96 154.57 C 136.61 155.67 137.22 156.85 138.32 157.20 C 139.43 157.55 140.61 156.94 140.96 155.84 L 141.26 154.90 C 141.61 153.79 141.00 152.61 139.90 152.26 C 138.79 151.91 137.61 152.52 137.26 153.63 Z M 136.98 154.53 L 136.67 155.44 C 136.29 156.54 136.88 157.73 137.97 158.10 C 139.07 158.48 140.26 157.89 140.63 156.80 L 140.94 155.88 C 141.32 154.79 140.73 153.60 139.64 153.22 C 138.54 152.85 137.35 153.43 136.98 154.53 Z M 136.69 155.39 L 136.33 156.37 C 135.93 157.45 136.48 158.65 137.56 159.05 C 138.64 159.45 139.84 158.90 140.24 157.82 L 140.61 156.85 C 141.01 155.76 140.45 154.56 139.37 154.16 C 138.29 153.76 137.09 154.31 136.69 155.39 Z M 136.35 156.32 L 135.98 157.26 C 135.55 158.33 136.07 159.54 137.14 159.97 C 138.21 160.39 139.42 159.87 139.84 158.81 L 140.22 157.87 C 140.65 156.80 140.13 155.59 139.06 155.16 C 137.99 154.74 136.78 155.26 136.35 156.32 Z M 136.00 157.23 L 135.62 158.13 C 135.17 159.19 135.66 160.40 136.72 160.85 C 137.77 161.30 138.99 160.81 139.44 159.75 L 139.82 158.84 C 140.27 157.79 139.78 156.57 138.72 156.12 C 137.67 155.68 136.45 156.17 136.00 157.23 Z M 135.64 158.10 L 135.24 158.99 C 134.78 160.03 135.25 161.26 136.29 161.72 C 137.34 162.18 138.56 161.71 139.02 160.67 L 139.42 159.78 C 139.88 158.74 139.41 157.51 138.37 157.05 C 137.32 156.59 136.10 157.06 135.64 158.10 Z M 135.26 158.96 L 134.82 159.91 C 134.34 160.95 134.79 162.17 135.83 162.65 C 136.86 163.13 138.09 162.68 138.56 161.64 L 139.00 160.69 C 139.48 159.66 139.03 158.44 138.00 157.96 C 136.97 157.48 135.74 157.93 135.26 158.96 Z M 134.85 159.88 L 134.41 160.79 C 133.91 161.81 134.34 163.04 135.36 163.53 C 136.38 164.03 137.61 163.60 138.10 162.58 L 138.54 161.67 C 139.04 160.65 138.61 159.43 137.59 158.93 C 136.57 158.44 135.34 158.86 134.85 159.88 Z M 134.43 160.75 L 133.99 161.61 C 133.48 162.61 133.88 163.85 134.88 164.36 C 135.89 164.88 137.12 164.48 137.64 163.47 L 138.08 162.62 C 138.59 161.61 138.19 160.38 137.19 159.86 C 136.18 159.35 134.95 159.75 134.43 160.75 Z M 134.03 161.56 L 133.56 162.42 C 133.02 163.41 133.38 164.65 134.37 165.19 C 135.35 165.73 136.59 165.37 137.13 164.38 L 137.60 163.52 C 138.14 162.53 137.78 161.29 136.79 160.76 C 135.81 160.22 134.57 160.58 134.03 161.56 Z M 133.62 162.35 L 133.11 163.19 C 132.53 164.14 132.83 165.39 133.78 165.97 C 134.73 166.55 135.98 166.25 136.56 165.29 L 137.07 164.45 C 137.65 163.50 137.35 162.26 136.40 161.68 C 135.44 161.10 134.20 161.40 133.62 162.35 Z M 133.20 163.08 L 132.62 163.90 C 131.98 164.80 132.20 166.05 133.10 166.69 C 134.00 167.33 135.25 167.12 135.89 166.21 L 136.47 165.40 C 137.11 164.50 136.89 163.25 135.99 162.61 C 135.09 161.97 133.84 162.18 133.20 163.08 Z M 132.75 163.77 L 132.01 164.64 C 131.30 165.48 131.40 166.73 132.23 167.44 C 133.07 168.14 134.32 168.04 135.03 167.21 L 135.77 166.34 C 136.48 165.50 136.37 164.25 135.54 163.54 C 134.71 162.84 133.46 162.94 132.75 163.77 Z M 132.26 164.44 L 131.42 165.14 C 130.60 165.84 130.49 167.07 131.19 167.89 C 131.89 168.71 133.12 168.82 133.94 168.12 L 134.78 167.42 C 135.60 166.72 135.70 165.49 135.01 164.67 C 134.31 163.84 133.08 163.74 132.26 164.44 Z M 132.49 164.72 L 131.81 164.79 C 130.75 164.89 129.98 165.83 130.09 166.89 C 130.19 167.94 131.13 168.71 132.19 168.61 L 132.87 168.54 C 133.92 168.44 134.69 167.50 134.59 166.44 C 134.49 165.39 133.55 164.62 132.49 164.72 Z M 133.63 165.79 L 133.34 165.27 C 132.84 164.37 131.70 164.04 130.80 164.54 C 129.90 165.04 129.57 166.18 130.07 167.08 L 130.36 167.61 C 130.86 168.51 132.00 168.83 132.91 168.33 C 133.81 167.83 134.13 166.69 133.63 165.79 Z M 133.49 165.89 L 133.34 165.01 C 133.18 164.03 132.26 163.36 131.28 163.52 C 130.29 163.68 129.63 164.61 129.79 165.59 L 129.93 166.47 C 130.09 167.45 131.02 168.12 132.00 167.96 C 132.98 167.80 133.65 166.87 133.49 165.89 Z M 133.30 165.21 L 133.24 164.08 C 133.19 163.13 132.38 162.39 131.42 162.44 C 130.47 162.48 129.73 163.30 129.78 164.25 L 129.84 165.38 C 129.88 166.34 130.70 167.08 131.65 167.03 C 132.61 166.98 133.34 166.17 133.30 165.21 Z M 133.17 164.15 L 133.16 162.89 C 133.16 161.97 132.41 161.23 131.49 161.24 C 130.57 161.25 129.83 162.00 129.84 162.91 L 129.85 164.18 C 129.85 165.10 130.60 165.84 131.52 165.83 C 132.44 165.82 133.18 165.07 133.17 164.15 Z M 133.12 162.90 L 133.12 162.73 C 133.12 161.83 132.40 161.10 131.50 161.10 C 130.60 161.10 129.88 161.83 129.88 162.73 L 129.88 162.90 C 129.88 163.80 130.60 164.52 131.50 164.52 C 132.40 164.52 133.12 163.80 133.12 162.90 Z"
      fill="black"
      fill-rule="nonzero" /><path d="M 145.45 123.73 L 146.10 122.94 C 146.80 122.09 146.67 120.84 145.83 120.15 C 144.98 119.45 143.74 119.58 143.04 120.42 L 142.39 121.21 C 141.70 122.06 141.82 123.31 142.67 124.00 C 143.51 124.69 144.76 124.57 145.45 123.73 Z M 146.08 122.99 L 146.73 122.25 C 147.46 121.41 147.37 120.15 146.54 119.43 C 145.71 118.70 144.45 118.78 143.72 119.61 L 143.07 120.36 C 142.34 121.19 142.43 122.46 143.26 123.18 C 144.09 123.91 145.35 123.83 146.08 122.99 Z M 146.65 122.35 L 147.34 121.66 C 148.13 120.87 148.13 119.60 147.35 118.82 C 146.57 118.03 145.29 118.03 144.51 118.81 L 143.81 119.51 C 143.02 120.29 143.02 121.56 143.80 122.35 C 144.59 123.13 145.86 123.14 146.65 122.35 Z M 147.22 121.76 L 147.98 121.12 C 148.82 120.40 148.92 119.14 148.20 118.30 C 147.49 117.45 146.22 117.35 145.38 118.07 L 144.63 118.71 C 143.79 119.43 143.68 120.69 144.40 121.53 C 145.12 122.37 146.38 122.48 147.22 121.76 Z M 147.90 121.16 L 148.69 120.55 C 149.55 119.87 149.71 118.62 149.03 117.76 C 148.36 116.89 147.11 116.74 146.24 117.41 L 145.46 118.02 C 144.59 118.70 144.44 119.95 145.11 120.82 C 145.79 121.68 147.04 121.84 147.90 121.16 Z M 148.66 120.55 L 149.45 119.95 C 150.32 119.29 150.49 118.05 149.83 117.18 C 149.16 116.31 147.92 116.14 147.05 116.81 L 146.27 117.41 C 145.40 118.07 145.23 119.31 145.89 120.18 C 146.55 121.05 147.79 121.22 148.66 120.55 Z M 149.43 119.96 L 150.25 119.35 C 151.12 118.70 151.30 117.46 150.64 116.59 C 149.99 115.72 148.76 115.54 147.89 116.19 L 147.07 116.80 C 146.20 117.45 146.02 118.69 146.67 119.56 C 147.33 120.43 148.56 120.61 149.43 119.96 Z M 150.22 119.36 L 151.05 118.76 C 151.93 118.12 152.12 116.89 151.48 116.02 C 150.85 115.14 149.62 114.94 148.74 115.58 L 147.91 116.18 C 147.03 116.82 146.84 118.05 147.48 118.93 C 148.11 119.81 149.34 120.00 150.22 119.36 Z M 150.99 118.80 L 151.82 118.24 C 152.72 117.63 152.96 116.41 152.35 115.52 C 151.74 114.62 150.52 114.38 149.62 114.98 L 148.80 115.54 C 147.90 116.15 147.66 117.37 148.27 118.27 C 148.87 119.17 150.09 119.40 150.99 118.80 Z M 151.70 118.31 L 152.56 117.82 C 153.50 117.28 153.82 116.08 153.27 115.14 C 152.73 114.20 151.53 113.88 150.59 114.42 L 149.74 114.91 C 148.80 115.46 148.48 116.66 149.02 117.59 C 149.57 118.53 150.77 118.85 151.70 118.31 Z M 152.37 117.92 L 153.27 117.52 C 154.27 117.08 154.72 115.92 154.28 114.93 C 153.84 113.93 152.68 113.48 151.69 113.92 L 150.78 114.32 C 149.79 114.76 149.34 115.92 149.78 116.91 C 150.21 117.91 151.37 118.36 152.37 117.92 Z M 153.02 117.62 L 153.99 117.34 C 155.03 117.05 155.64 115.96 155.35 114.91 C 155.05 113.86 153.96 113.25 152.91 113.55 L 151.95 113.82 C 150.90 114.12 150.29 115.21 150.58 116.26 C 150.88 117.30 151.97 117.91 153.02 117.62 Z M 153.66 117.42 L 154.67 117.31 C 155.77 117.20 156.56 116.22 156.44 115.13 C 156.32 114.04 155.35 113.25 154.25 113.36 L 153.24 113.47 C 152.15 113.59 151.36 114.56 151.47 115.66 C 151.59 116.75 152.57 117.54 153.66 117.42 Z M 154.12 117.32 L 155.08 117.48 C 156.17 117.67 157.21 116.94 157.40 115.85 C 157.59 114.75 156.85 113.72 155.76 113.53 L 154.81 113.36 C 153.71 113.17 152.68 113.90 152.49 115.00 C 152.30 116.09 153.03 117.13 154.12 117.32 Z M 154.30 117.19 L 155.05 117.68 C 155.98 118.30 157.24 118.05 157.85 117.11 C 158.47 116.18 158.21 114.93 157.28 114.31 L 156.53 113.82 C 155.60 113.20 154.35 113.46 153.73 114.39 C 153.12 115.32 153.37 116.57 154.30 117.19 Z M 154.58 117.25 L 155.20 118.05 C 155.89 118.93 157.17 119.08 158.05 118.39 C 158.93 117.70 159.08 116.43 158.39 115.55 L 157.76 114.75 C 157.07 113.87 155.80 113.71 154.92 114.41 C 154.04 115.10 153.88 116.37 154.58 117.25 Z M 155.02 117.79 L 155.51 118.67 C 156.06 119.65 157.30 120.00 158.28 119.45 C 159.26 118.90 159.61 117.66 159.06 116.68 L 158.57 115.80 C 158.02 114.82 156.78 114.47 155.80 115.02 C 154.82 115.57 154.47 116.81 155.02 117.79 Z M 155.43 118.54 L 155.82 119.39 C 156.30 120.41 157.52 120.86 158.54 120.38 C 159.57 119.91 160.01 118.69 159.54 117.66 L 159.14 116.81 C 158.67 115.79 157.45 115.34 156.42 115.82 C 155.40 116.29 154.95 117.51 155.43 118.54 Z M 155.76 119.28 L 156.14 120.24 C 156.56 121.30 157.76 121.82 158.82 121.40 C 159.88 120.98 160.40 119.78 159.98 118.72 L 159.60 117.77 C 159.18 116.71 157.98 116.19 156.92 116.61 C 155.86 117.03 155.34 118.23 155.76 119.28 Z M 156.09 120.15 L 156.44 121.19 C 156.81 122.27 157.99 122.86 159.08 122.49 C 160.16 122.12 160.75 120.94 160.38 119.85 L 160.03 118.82 C 159.66 117.73 158.48 117.15 157.39 117.52 C 156.31 117.88 155.72 119.06 156.09 120.15 Z M 156.40 121.11 L 156.69 122.08 C 157.01 123.19 158.18 123.82 159.29 123.50 C 160.39 123.17 161.03 122.01 160.70 120.90 L 160.42 119.93 C 160.09 118.82 158.93 118.19 157.82 118.51 C 156.71 118.84 156.08 120.00 156.40 121.11 Z M 156.66 122.03 L 156.92 123.02 C 157.21 124.15 158.37 124.82 159.49 124.52 C 160.62 124.23 161.29 123.07 161.00 121.95 L 160.73 120.95 C 160.44 119.83 159.28 119.15 158.16 119.45 C 157.03 119.75 156.36 120.90 156.66 122.03 Z M 156.89 122.98 L 157.13 123.96 C 157.40 125.10 158.55 125.80 159.69 125.53 C 160.83 125.25 161.53 124.11 161.26 122.97 L 161.02 121.99 C 160.75 120.85 159.60 120.14 158.46 120.42 C 157.32 120.69 156.62 121.84 156.89 122.98 Z M 157.10 123.92 L 157.31 124.87 C 157.57 126.03 158.71 126.76 159.86 126.50 C 161.01 126.25 161.74 125.11 161.49 123.95 L 161.28 123.00 C 161.03 121.85 159.89 121.12 158.73 121.37 C 157.58 121.63 156.85 122.77 157.10 123.92 Z M 157.29 124.84 L 157.49 125.85 C 157.73 127.02 158.86 127.78 160.03 127.54 C 161.19 127.31 161.95 126.18 161.71 125.01 L 161.51 123.99 C 161.28 122.83 160.14 122.07 158.98 122.30 C 157.81 122.54 157.06 123.67 157.29 124.84 Z M 157.48 125.82 L 157.65 126.77 C 157.86 127.95 158.99 128.73 160.16 128.52 C 161.33 128.30 162.12 127.18 161.90 126.01 L 161.73 125.05 C 161.52 123.87 160.40 123.09 159.22 123.31 C 158.05 123.52 157.27 124.64 157.48 125.82 Z M 157.64 126.74 L 157.80 127.70 C 157.99 128.89 159.11 129.69 160.29 129.49 C 161.47 129.29 162.27 128.18 162.08 126.99 L 161.92 126.03 C 161.72 124.85 160.60 124.05 159.42 124.25 C 158.24 124.44 157.44 125.56 157.64 126.74 Z M 157.78 127.69 L 157.93 128.61 C 158.12 129.80 159.24 130.61 160.43 130.42 C 161.61 130.23 162.42 129.11 162.23 127.92 L 162.09 127.01 C 161.90 125.82 160.78 125.01 159.59 125.20 C 158.40 125.39 157.59 126.50 157.78 127.69 Z M 157.92 128.60 L 158.07 129.56 C 158.25 130.76 159.37 131.58 160.56 131.39 C 161.76 131.21 162.58 130.09 162.39 128.90 L 162.25 127.93 C 162.06 126.74 160.94 125.92 159.75 126.10 C 158.55 126.29 157.74 127.40 157.92 128.60 Z M 158.06 129.55 L 158.21 130.58 C 158.39 131.78 159.51 132.61 160.71 132.43 C 161.91 132.25 162.74 131.13 162.56 129.93 L 162.40 128.91 C 162.23 127.71 161.11 126.88 159.91 127.06 C 158.71 127.24 157.88 128.35 158.06 129.55 Z M 158.20 130.57 L 158.35 131.59 C 158.52 132.80 159.64 133.64 160.84 133.46 C 162.05 133.29 162.89 132.17 162.71 130.97 L 162.57 129.94 C 162.39 128.74 161.28 127.90 160.07 128.07 C 158.86 128.24 158.03 129.36 158.20 130.57 Z M 158.34 131.58 L 158.47 132.51 C 158.63 133.72 159.75 134.56 160.96 134.40 C 162.17 134.23 163.02 133.11 162.85 131.90 L 162.72 130.98 C 162.55 129.77 161.44 128.92 160.23 129.09 C 159.02 129.26 158.17 130.37 158.34 131.58 Z M 158.46 132.50 L 158.59 133.47 C 158.75 134.68 159.87 135.53 161.08 135.37 C 162.30 135.21 163.15 134.09 162.98 132.88 L 162.85 131.91 C 162.69 130.70 161.58 129.85 160.36 130.01 C 159.15 130.17 158.30 131.29 158.46 132.50 Z M 158.59 133.46 L 158.72 134.48 C 158.88 135.69 159.99 136.55 161.21 136.39 C 162.42 136.23 163.28 135.12 163.12 133.90 L 162.99 132.89 C 162.83 131.67 161.72 130.81 160.50 130.97 C 159.28 131.13 158.43 132.25 158.59 133.46 Z M 158.71 134.47 L 158.85 135.53 C 159.01 136.75 160.12 137.61 161.34 137.46 C 162.56 137.30 163.42 136.19 163.26 134.97 L 163.13 133.91 C 162.97 132.69 161.86 131.83 160.64 131.98 C 159.42 132.14 158.56 133.25 158.71 134.47 Z M 158.84 135.53 L 158.97 136.50 C 159.12 137.72 160.23 138.59 161.46 138.44 C 162.68 138.28 163.55 137.17 163.39 135.94 L 163.27 134.97 C 163.12 133.75 162.00 132.88 160.78 133.04 C 159.56 133.19 158.69 134.31 158.84 135.53 Z M 158.95 136.50 L 159.07 137.47 C 159.22 138.70 160.34 139.58 161.57 139.42 C 162.80 139.27 163.68 138.15 163.52 136.92 L 163.40 135.95 C 163.25 134.72 162.13 133.85 160.91 134.00 C 159.68 134.15 158.80 135.27 158.95 136.50 Z M 159.06 137.46 L 159.18 138.46 C 159.33 139.70 160.45 140.58 161.68 140.44 C 162.92 140.29 163.80 139.17 163.66 137.93 L 163.54 136.93 C 163.39 135.70 162.27 134.81 161.03 134.96 C 159.80 135.11 158.91 136.23 159.06 137.46 Z M 159.17 138.45 L 159.28 139.46 C 159.42 140.71 160.54 141.60 161.79 141.46 C 163.03 141.32 163.93 140.20 163.78 138.95 L 163.67 137.94 C 163.53 136.70 162.41 135.80 161.16 135.94 C 159.92 136.09 159.02 137.21 159.17 138.45 Z M 159.27 139.45 L 159.38 140.47 C 159.51 141.72 160.63 142.62 161.88 142.49 C 163.13 142.36 164.04 141.24 163.91 139.98 L 163.80 138.97 C 163.66 137.72 162.54 136.81 161.29 136.94 C 160.04 137.08 159.13 138.20 159.27 139.45 Z M 159.36 140.45 L 159.46 141.46 C 159.59 142.72 160.71 143.64 161.96 143.52 C 163.22 143.40 164.14 142.27 164.02 141.02 L 163.92 140.00 C 163.80 138.74 162.68 137.82 161.42 137.95 C 160.16 138.07 159.24 139.19 159.36 140.45 Z M 159.45 141.45 L 159.54 142.45 C 159.65 143.72 160.77 144.65 162.04 144.54 C 163.30 144.42 164.24 143.31 164.12 142.04 L 164.03 141.03 C 163.92 139.77 162.80 138.83 161.53 138.95 C 160.27 139.06 159.33 140.18 159.45 141.45 Z M 159.53 142.44 L 159.61 143.44 C 159.72 144.71 160.84 145.66 162.11 145.55 C 163.38 145.44 164.33 144.33 164.22 143.05 L 164.13 142.05 C 164.03 140.78 162.91 139.84 161.64 139.94 C 160.37 140.05 159.42 141.17 159.53 142.44 Z M 159.60 143.43 L 159.68 144.42 C 159.78 145.70 160.90 146.66 162.18 146.55 C 163.46 146.45 164.41 145.34 164.31 144.06 L 164.23 143.06 C 164.13 141.79 163.01 140.83 161.73 140.93 C 160.45 141.03 159.50 142.15 159.60 143.43 Z M 159.67 144.42 L 159.74 145.40 C 159.84 146.69 160.96 147.65 162.25 147.55 C 163.53 147.45 164.49 146.33 164.39 145.05 L 164.32 144.06 C 164.22 142.78 163.10 141.82 161.82 141.92 C 160.53 142.01 159.57 143.13 159.67 144.42 Z M 159.73 145.40 L 159.81 146.40 C 159.91 147.69 161.03 148.65 162.32 148.56 C 163.61 148.46 164.58 147.34 164.48 146.05 L 164.41 145.05 C 164.31 143.76 163.18 142.79 161.89 142.89 C 160.60 142.99 159.64 144.11 159.73 145.40 Z M 159.80 146.40 L 159.87 147.41 C 159.97 148.71 161.10 149.68 162.40 149.58 C 163.69 149.49 164.66 148.36 164.57 147.06 L 164.49 146.05 C 164.39 144.75 163.26 143.78 161.97 143.88 C 160.67 143.97 159.70 145.10 159.80 146.40 Z M 159.86 147.41 L 159.94 148.42 C 160.04 149.72 161.17 150.70 162.47 150.60 C 163.77 150.50 164.75 149.37 164.65 148.07 L 164.58 147.06 C 164.48 145.76 163.35 144.79 162.05 144.88 C 160.74 144.98 159.77 146.11 159.86 147.41 Z M 159.93 148.42 L 160.00 149.41 C 160.10 150.72 161.23 151.70 162.54 151.60 C 163.85 151.51 164.83 150.37 164.73 149.07 L 164.66 148.07 C 164.57 146.76 163.43 145.78 162.12 145.88 C 160.82 145.97 159.83 147.11 159.93 148.42 Z M 159.99 149.41 L 160.06 150.39 C 160.15 151.70 161.29 152.69 162.61 152.60 C 163.92 152.50 164.91 151.36 164.81 150.05 L 164.74 149.07 C 164.65 147.76 163.51 146.77 162.20 146.86 C 160.89 146.95 159.90 148.09 159.99 149.41 Z M 160.05 150.38 L 160.12 151.38 C 160.21 152.70 161.35 153.69 162.67 153.60 C 163.99 153.51 164.98 152.37 164.89 151.05 L 164.82 150.06 C 164.73 148.74 163.59 147.74 162.27 147.83 C 160.95 147.92 159.96 149.06 160.05 150.38 Z M 160.11 151.37 L 160.17 152.39 C 160.26 153.72 161.41 154.72 162.73 154.63 C 164.05 154.54 165.06 153.40 164.97 152.08 L 164.90 151.06 C 164.82 149.73 163.67 148.73 162.35 148.81 C 161.02 148.90 160.02 150.05 160.11 151.37 Z M 160.16 152.38 L 160.23 153.39 C 160.31 154.72 161.46 155.73 162.79 155.65 C 164.12 155.56 165.13 154.42 165.04 153.09 L 164.98 152.08 C 164.90 150.75 163.75 149.74 162.42 149.82 C 161.09 149.91 160.08 151.05 160.16 152.38 Z M 160.22 153.38 L 160.27 154.37 C 160.35 155.71 161.50 156.73 162.84 156.65 C 164.17 156.57 165.19 155.42 165.11 154.09 L 165.05 153.10 C 164.98 151.76 163.83 150.74 162.49 150.82 C 161.16 150.90 160.14 152.04 160.22 153.38 Z M 160.26 154.36 L 160.32 155.34 C 160.39 156.68 161.54 157.71 162.88 157.63 C 164.22 157.56 165.25 156.41 165.18 155.07 L 165.12 154.09 C 165.05 152.75 163.90 151.72 162.56 151.80 C 161.22 151.87 160.19 153.02 160.26 154.36 Z M 160.31 155.33 L 160.36 156.33 C 160.43 157.67 161.57 158.71 162.92 158.64 C 164.27 158.57 165.30 157.43 165.24 156.08 L 165.19 155.08 C 165.12 153.73 163.97 152.70 162.62 152.76 C 161.28 152.83 160.24 153.98 160.31 155.33 Z M 160.36 156.32 L 160.40 157.32 C 160.46 158.67 161.61 159.71 162.96 159.65 C 164.31 159.59 165.35 158.45 165.29 157.10 L 165.24 156.09 C 165.18 154.74 164.03 153.70 162.68 153.76 C 161.34 153.82 160.29 154.97 160.36 156.32 Z M 160.40 157.31 L 160.44 158.31 C 160.50 159.66 161.64 160.71 162.99 160.65 C 164.34 160.59 165.39 159.45 165.33 158.10 L 165.29 157.11 C 165.23 155.76 164.09 154.71 162.74 154.77 C 161.39 154.82 160.34 155.96 160.40 157.31 Z M 160.44 158.30 L 160.48 159.29 C 160.53 160.64 161.66 161.69 163.02 161.64 C 164.37 161.59 165.42 160.46 165.37 159.11 L 165.33 158.11 C 165.28 156.76 164.15 155.71 162.79 155.76 C 161.44 155.81 160.39 156.95 160.44 158.30 Z M 160.47 159.28 L 160.51 160.26 C 160.55 161.62 161.69 162.68 163.04 162.63 C 164.39 162.59 165.45 161.45 165.41 160.10 L 165.37 159.11 C 165.33 157.76 164.19 156.70 162.84 156.75 C 161.49 156.79 160.43 157.93 160.47 159.28 Z M 160.50 160.26 L 160.53 161.24 C 160.57 162.59 161.70 163.66 163.06 163.62 C 164.42 163.58 165.48 162.44 165.44 161.09 L 165.41 160.11 C 165.37 158.75 164.24 157.69 162.88 157.73 C 161.53 157.77 160.46 158.90 160.50 160.26 Z M 160.52 161.23 L 160.55 162.22 C 160.59 163.58 161.72 164.65 163.08 164.61 C 164.44 164.58 165.51 163.44 165.47 162.08 L 165.45 161.10 C 165.41 159.74 164.28 158.66 162.92 158.70 C 161.56 158.74 160.49 159.87 160.52 161.23 Z M 160.54 162.21 L 160.57 163.21 C 160.60 164.58 161.73 165.66 163.10 165.62 C 164.46 165.59 165.54 164.46 165.51 163.09 L 165.48 162.09 C 165.45 160.73 164.32 159.65 162.95 159.68 C 161.59 159.71 160.51 160.85 160.54 162.21 Z M 160.56 163.21 L 160.58 164.24 C 160.61 165.60 161.75 166.69 163.12 166.66 C 164.48 166.63 165.57 165.49 165.54 164.13 L 165.51 163.10 C 165.48 161.73 164.35 160.65 162.98 160.68 C 161.61 160.71 160.53 161.84 160.56 163.21 Z M 160.58 164.23 L 160.60 165.25 C 160.63 166.62 161.76 167.71 163.13 167.68 C 164.50 167.65 165.59 166.52 165.56 165.15 L 165.54 164.13 C 165.51 162.76 164.38 161.67 163.01 161.70 C 161.64 161.73 160.55 162.86 160.58 164.23 Z M 160.59 165.25 L 160.61 166.27 C 160.64 167.64 161.77 168.74 163.15 168.71 C 164.52 168.69 165.61 167.55 165.59 166.18 L 165.57 165.15 C 165.54 163.78 164.41 162.69 163.03 162.71 C 161.66 162.74 160.57 163.87 160.59 165.25 Z M 160.61 166.27 L 160.62 167.28 C 160.65 168.66 161.78 169.76 163.16 169.73 C 164.54 169.71 165.63 168.57 165.61 167.20 L 165.59 166.18 C 165.57 164.80 164.44 163.71 163.06 163.73 C 161.68 163.75 160.58 164.89 160.61 166.27 Z M 160.62 167.28 L 160.63 168.26 C 160.65 169.64 161.79 170.75 163.17 170.73 C 164.55 170.71 165.65 169.57 165.63 168.19 L 165.62 167.20 C 165.60 165.82 164.46 164.72 163.08 164.74 C 161.70 164.76 160.60 165.90 160.62 167.28 Z M 160.63 168.26 L 160.64 169.24 C 160.65 170.62 161.79 171.73 163.17 171.72 C 164.56 171.70 165.66 170.57 165.65 169.18 L 165.64 168.20 C 165.62 166.82 164.49 165.71 163.10 165.72 C 161.72 165.74 160.61 166.87 160.63 168.26 Z M 160.63 169.23 L 160.64 170.30 C 160.65 171.68 161.78 172.80 163.17 172.79 C 164.56 172.78 165.67 171.65 165.66 170.26 L 165.65 169.19 C 165.64 167.81 164.51 166.69 163.13 166.70 C 161.74 166.71 160.62 167.85 160.63 169.23 Z M 160.64 170.29 L 160.64 171.28 C 160.65 172.67 161.78 173.79 163.16 173.79 C 164.55 173.78 165.67 172.65 165.67 171.27 L 165.66 170.27 C 165.66 168.88 164.53 167.76 163.14 167.77 C 161.75 167.77 160.63 168.90 160.64 170.29 Z M 160.64 171.28 L 160.64 172.23 C 160.64 173.62 161.77 174.74 163.16 174.74 C 164.55 174.74 165.67 173.61 165.67 172.22 L 165.67 171.27 C 165.67 169.88 164.54 168.76 163.15 168.76 C 161.76 168.76 160.64 169.89 160.64 171.28 Z M 160.64 172.23 L 160.64 173.21 C 160.64 174.60 161.76 175.72 163.16 175.72 C 164.55 175.72 165.68 174.60 165.68 173.21 L 165.68 172.23 C 165.68 170.83 164.55 169.71 163.16 169.71 C 161.76 169.71 160.64 170.84 160.64 172.23 Z M 160.63 173.20 L 160.63 174.23 C 160.63 175.62 161.76 176.75 163.15 176.75 C 164.54 176.76 165.68 175.63 165.68 174.23 L 165.68 173.21 C 165.68 171.81 164.55 170.68 163.16 170.68 C 161.77 170.68 160.63 171.81 160.63 173.20 Z M 160.63 174.22 L 160.62 175.21 C 160.62 176.61 161.74 177.74 163.14 177.75 C 164.53 177.76 165.67 176.63 165.67 175.24 L 165.68 174.24 C 165.69 172.85 164.56 171.71 163.17 171.71 C 161.77 171.70 160.64 172.82 160.63 174.22 Z M 160.62 175.20 L 160.61 176.17 C 160.60 177.56 161.72 178.71 163.11 178.72 C 164.51 178.74 165.65 177.62 165.67 176.22 L 165.68 175.25 C 165.69 173.86 164.57 172.71 163.18 172.70 C 161.78 172.68 160.64 173.80 160.62 175.20 Z M 160.61 176.14 L 160.59 177.19 C 160.55 178.59 161.66 179.75 163.06 179.78 C 164.45 179.81 165.61 178.71 165.64 177.31 L 165.67 176.25 C 165.70 174.86 164.59 173.70 163.20 173.67 C 161.80 173.63 160.64 174.74 160.61 176.14 Z M 160.59 177.14 L 160.54 178.12 C 160.48 179.52 161.56 180.70 162.95 180.77 C 164.35 180.83 165.53 179.75 165.60 178.36 L 165.64 177.37 C 165.71 175.97 164.63 174.79 163.23 174.72 C 161.83 174.66 160.65 175.74 160.59 177.14 Z M 160.55 178.03 L 160.47 178.97 C 160.35 180.36 161.39 181.59 162.78 181.70 C 164.17 181.82 165.40 180.78 165.52 179.39 L 165.59 178.45 C 165.71 177.06 164.67 175.83 163.28 175.71 C 161.89 175.60 160.66 176.63 160.55 178.03 Z M 160.48 178.83 L 160.35 179.79 C 160.15 181.18 161.12 182.46 162.51 182.65 C 163.89 182.84 165.17 181.88 165.37 180.49 L 165.50 179.53 C 165.69 178.14 164.73 176.86 163.34 176.67 C 161.95 176.48 160.67 177.44 160.48 178.83 Z M 160.37 179.64 L 160.17 180.63 C 159.90 182.00 160.79 183.34 162.16 183.61 C 163.53 183.89 164.87 183.00 165.14 181.63 L 165.34 180.64 C 165.62 179.27 164.73 177.93 163.36 177.66 C 161.99 177.38 160.65 178.27 160.37 179.64 Z M 160.20 180.50 L 159.95 181.50 C 159.60 182.86 160.42 184.24 161.78 184.59 C 163.13 184.93 164.51 184.11 164.86 182.76 L 165.12 181.76 C 165.46 180.40 164.64 179.02 163.29 178.67 C 161.93 178.32 160.55 179.14 160.20 180.50 Z M 160.01 181.30 L 159.67 182.28 C 159.21 183.60 159.91 185.04 161.23 185.50 C 162.56 185.96 164.00 185.26 164.46 183.94 L 164.80 182.96 C 165.26 181.64 164.56 180.19 163.23 179.73 C 161.91 179.27 160.47 179.98 160.01 181.30 Z M 159.84 181.88 L 159.38 182.73 C 158.70 183.95 159.15 185.50 160.37 186.17 C 161.60 186.85 163.14 186.40 163.82 185.18 L 164.28 184.33 C 164.96 183.11 164.51 181.56 163.29 180.89 C 162.06 180.21 160.52 180.66 159.84 181.88 Z M 159.94 182.04 L 159.18 182.69 C 158.13 183.61 158.01 185.21 158.93 186.27 C 159.85 187.32 161.45 187.44 162.50 186.52 L 163.26 185.87 C 164.31 184.95 164.43 183.35 163.51 182.29 C 162.59 181.24 160.99 181.12 159.94 182.04 Z M 160.27 182.14 L 159.33 182.37 C 157.97 182.68 157.12 184.05 157.44 185.41 C 157.76 186.77 159.12 187.61 160.48 187.29 L 161.42 187.07 C 162.78 186.75 163.63 185.39 163.31 184.03 C 162.99 182.67 161.63 181.83 160.27 182.14 Z M 160.47 182.39 L 159.55 182.18 C 158.20 181.87 156.85 182.71 156.54 184.05 C 156.23 185.40 157.07 186.75 158.42 187.06 L 159.34 187.27 C 160.69 187.58 162.03 186.74 162.34 185.39 C 162.65 184.04 161.81 182.70 160.47 182.39 Z M 160.25 182.54 L 159.42 182.03 C 158.27 181.33 156.77 181.70 156.08 182.85 C 155.38 184.00 155.74 185.50 156.89 186.19 L 157.72 186.70 C 158.87 187.39 160.37 187.03 161.06 185.88 C 161.76 184.73 161.40 183.23 160.25 182.54 Z M 159.71 182.36 L 158.92 181.66 C 157.95 180.81 156.47 180.90 155.61 181.86 C 154.76 182.83 154.85 184.31 155.82 185.17 L 156.60 185.87 C 157.57 186.72 159.05 186.63 159.91 185.66 C 160.77 184.70 160.68 183.22 159.71 182.36 Z M 159.02 181.89 L 158.36 181.18 C 157.52 180.27 156.10 180.21 155.19 181.05 C 154.27 181.90 154.22 183.32 155.06 184.23 L 155.72 184.94 C 156.56 185.85 157.98 185.91 158.89 185.07 C 159.80 184.22 159.86 182.80 159.02 181.89 Z M 158.40 181.37 L 157.80 180.61 C 157.06 179.68 155.71 179.52 154.78 180.26 C 153.84 181.00 153.69 182.35 154.42 183.29 L 155.02 184.04 C 155.76 184.97 157.11 185.13 158.05 184.39 C 158.98 183.66 159.14 182.30 158.40 181.37 Z M 157.81 180.79 L 157.23 179.93 C 156.58 178.99 155.30 178.75 154.36 179.39 C 153.42 180.04 153.18 181.32 153.83 182.26 L 154.41 183.11 C 155.06 184.05 156.34 184.29 157.28 183.65 C 158.22 183.01 158.46 181.72 157.81 180.79 Z M 157.22 180.07 L 156.67 179.17 C 156.11 178.24 154.89 177.94 153.96 178.51 C 153.03 179.07 152.73 180.29 153.29 181.22 L 153.84 182.12 C 154.40 183.05 155.62 183.35 156.55 182.78 C 157.48 182.22 157.78 181.00 157.22 180.07 Z M 156.65 179.27 L 156.15 178.37 C 155.64 177.45 154.48 177.12 153.56 177.63 C 152.63 178.14 152.30 179.30 152.81 180.22 L 153.32 181.13 C 153.83 182.05 154.99 182.38 155.91 181.87 C 156.83 181.36 157.17 180.19 156.65 179.27 Z M 156.13 178.44 L 155.65 177.53 C 155.18 176.62 154.06 176.27 153.15 176.74 C 152.25 177.21 151.89 178.33 152.37 179.24 L 152.84 180.15 C 153.31 181.06 154.43 181.41 155.34 180.94 C 156.25 180.47 156.60 179.35 156.13 178.44 Z M 155.62 177.59 L 155.19 176.72 C 154.76 175.84 153.68 175.47 152.79 175.91 C 151.90 176.34 151.54 177.42 151.97 178.31 L 152.40 179.17 C 152.84 180.06 153.91 180.43 154.80 179.99 C 155.69 179.56 156.06 178.48 155.62 177.59 Z M 155.16 176.79 L 154.71 175.80 C 154.31 174.93 153.28 174.55 152.41 174.95 C 151.54 175.35 151.15 176.37 151.55 177.25 L 152.00 178.24 C 152.40 179.11 153.43 179.49 154.30 179.09 C 155.18 178.70 155.56 177.67 155.16 176.79 Z M 154.68 175.88 L 154.30 174.98 C 153.95 174.12 152.97 173.71 152.11 174.07 C 151.26 174.42 150.85 175.40 151.20 176.26 L 151.58 177.17 C 151.93 178.02 152.91 178.43 153.77 178.07 C 154.62 177.72 155.03 176.74 154.68 175.88 Z M 154.27 175.05 L 153.95 174.20 C 153.64 173.37 152.70 172.94 151.87 173.26 C 151.03 173.57 150.61 174.50 150.92 175.34 L 151.24 176.19 C 151.55 177.02 152.48 177.45 153.32 177.13 C 154.16 176.82 154.58 175.89 154.27 175.05 Z M 153.93 174.25 L 153.60 173.31 C 153.32 172.48 152.41 172.05 151.58 172.33 C 150.76 172.62 150.32 173.53 150.61 174.36 L 150.94 175.29 C 151.23 176.12 152.13 176.56 152.96 176.27 C 153.79 175.98 154.22 175.07 153.93 174.25 Z M 153.61 173.34 L 153.30 172.39 C 153.02 171.56 152.13 171.11 151.31 171.38 C 150.48 171.65 150.03 172.54 150.30 173.37 L 150.61 174.32 C 150.88 175.15 151.77 175.60 152.60 175.33 C 153.42 175.06 153.88 174.17 153.61 173.34 Z M 153.30 172.42 L 153.01 171.46 C 152.76 170.63 151.88 170.17 151.05 170.42 C 150.22 170.67 149.75 171.55 150.00 172.38 L 150.29 173.33 C 150.55 174.16 151.42 174.63 152.25 174.38 C 153.08 174.13 153.55 173.25 153.30 172.42 Z M 153.01 171.49 L 152.73 170.53 C 152.50 169.70 151.63 169.22 150.80 169.45 C 149.97 169.69 149.48 170.56 149.72 171.39 L 150.00 172.35 C 150.24 173.18 151.11 173.66 151.94 173.43 C 152.77 173.19 153.25 172.32 153.01 171.49 Z M 152.73 170.54 L 152.52 169.79 C 152.29 168.96 151.43 168.47 150.60 168.71 C 149.77 168.94 149.28 169.80 149.51 170.63 L 149.72 171.38 C 149.96 172.21 150.82 172.70 151.65 172.46 C 152.48 172.23 152.97 171.37 152.73 170.54 Z"
      fill="black"
      fill-rule="nonzero" /><path d="M 145.71 133.10 L 146.58 132.79 C 147.64 132.43 148.19 131.28 147.83 130.22 C 147.46 129.17 146.31 128.62 145.26 128.98 L 144.39 129.28 C 143.33 129.65 142.78 130.80 143.14 131.85 C 143.51 132.90 144.66 133.46 145.71 133.10 Z M 146.65 132.81 L 147.59 132.45 C 148.65 132.05 149.19 130.86 148.79 129.80 C 148.38 128.74 147.20 128.21 146.14 128.61 L 145.19 128.97 C 144.13 129.37 143.60 130.55 144.00 131.61 C 144.40 132.68 145.59 133.21 146.65 132.81 Z M 147.67 132.44 L 148.63 132.03 C 149.68 131.58 150.17 130.36 149.73 129.31 C 149.28 128.26 148.06 127.77 147.01 128.22 L 146.05 128.62 C 145.00 129.07 144.51 130.29 144.96 131.34 C 145.41 132.39 146.62 132.88 147.67 132.44 Z M 148.68 131.98 L 149.58 131.56 C 150.61 131.08 151.05 129.87 150.58 128.85 C 150.11 127.82 148.90 127.38 147.87 127.85 L 146.96 128.27 C 145.94 128.74 145.49 129.96 145.97 130.98 C 146.44 132.00 147.65 132.45 148.68 131.98 Z M 149.59 131.49 L 150.52 131.04 C 151.51 130.57 151.92 129.38 151.45 128.39 C 150.97 127.40 149.78 126.99 148.79 127.47 L 147.86 127.91 C 146.87 128.39 146.46 129.58 146.94 130.57 C 147.42 131.56 148.61 131.97 149.59 131.49 Z M 150.52 130.98 L 151.43 130.53 C 152.39 130.05 152.77 128.89 152.30 127.94 C 151.82 126.98 150.66 126.59 149.71 127.07 L 148.79 127.53 C 147.84 128.00 147.45 129.16 147.93 130.12 C 148.40 131.07 149.56 131.46 150.52 130.98 Z M 151.41 130.47 L 152.36 129.99 C 153.28 129.52 153.64 128.40 153.18 127.48 C 152.71 126.56 151.59 126.19 150.66 126.65 L 149.72 127.13 C 148.80 127.60 148.43 128.72 148.90 129.65 C 149.37 130.57 150.49 130.93 151.41 130.47 Z M 152.32 129.93 L 153.18 129.50 C 154.07 129.05 154.43 127.97 153.99 127.08 C 153.54 126.19 152.46 125.83 151.57 126.28 L 150.70 126.71 C 149.82 127.16 149.45 128.24 149.90 129.13 C 150.35 130.02 151.43 130.38 152.32 129.93 Z M 153.12 129.46 L 153.99 129.05 C 154.86 128.63 155.23 127.60 154.82 126.73 C 154.41 125.87 153.37 125.50 152.50 125.91 L 151.63 126.32 C 150.77 126.73 150.40 127.77 150.81 128.63 C 151.22 129.50 152.25 129.87 153.12 129.46 Z M 153.92 129.02 L 154.84 128.62 C 155.70 128.25 156.09 127.26 155.72 126.41 C 155.35 125.55 154.36 125.16 153.50 125.53 L 152.58 125.93 C 151.72 126.30 151.33 127.29 151.70 128.14 C 152.07 129.00 153.06 129.39 153.92 129.02 Z M 154.76 128.61 L 155.68 128.26 C 156.53 127.93 156.95 126.98 156.62 126.13 C 156.30 125.29 155.35 124.86 154.50 125.19 L 153.58 125.54 C 152.74 125.87 152.31 126.82 152.64 127.67 C 152.97 128.51 153.92 128.94 154.76 128.61 Z M 155.61 128.25 L 156.56 127.93 C 157.40 127.64 157.85 126.73 157.57 125.89 C 157.28 125.04 156.37 124.59 155.53 124.88 L 154.58 125.20 C 153.73 125.48 153.28 126.40 153.57 127.24 C 153.85 128.08 154.77 128.53 155.61 128.25 Z M 156.51 127.92 L 157.46 127.63 C 158.30 127.37 158.77 126.48 158.51 125.64 C 158.26 124.81 157.37 124.34 156.53 124.59 L 155.58 124.88 C 154.74 125.14 154.27 126.03 154.53 126.87 C 154.78 127.70 155.67 128.17 156.51 127.92 Z M 157.44 127.62 L 157.92 127.47 C 158.75 127.23 159.22 126.36 158.98 125.52 C 158.73 124.69 157.86 124.22 157.03 124.46 L 156.55 124.60 C 155.72 124.85 155.24 125.72 155.49 126.55 C 155.74 127.39 156.61 127.86 157.44 127.62 Z"
      fill="black"
      fill-rule="nonzero" /><path d="M 143.76 148.16 L 144.44 147.55 C 145.23 146.85 145.31 145.64 144.61 144.85 C 143.90 144.06 142.70 143.99 141.91 144.69 L 141.22 145.30 C 140.43 146.00 140.36 147.21 141.06 148.00 C 141.76 148.79 142.97 148.86 143.76 148.16 Z M 144.43 147.72 L 145.19 147.12 C 146.08 146.43 146.23 145.15 145.54 144.27 C 144.85 143.39 143.58 143.23 142.69 143.92 L 141.92 144.52 C 141.04 145.21 140.88 146.49 141.58 147.37 C 142.27 148.25 143.54 148.41 144.43 147.72 Z M 145.09 147.34 L 146.02 146.75 C 147.03 146.12 147.33 144.79 146.69 143.79 C 146.06 142.78 144.74 142.48 143.74 143.12 L 142.80 143.70 C 141.80 144.33 141.50 145.66 142.13 146.66 C 142.76 147.67 144.08 147.97 145.09 147.34 Z M 145.88 146.89 L 146.67 146.49 C 147.75 145.93 148.18 144.61 147.62 143.53 C 147.07 142.44 145.74 142.01 144.66 142.57 L 143.87 142.97 C 142.79 143.53 142.36 144.85 142.92 145.94 C 143.47 147.02 144.80 147.45 145.88 146.89 Z M 146.57 146.54 L 147.45 146.14 C 148.56 145.64 149.05 144.34 148.55 143.23 C 148.05 142.12 146.75 141.63 145.64 142.13 L 144.76 142.52 C 143.65 143.02 143.16 144.33 143.65 145.43 C 144.15 146.54 145.46 147.04 146.57 146.54 Z M 147.38 146.17 L 148.34 145.77 C 149.46 145.31 150.00 144.02 149.54 142.90 C 149.07 141.77 147.79 141.24 146.66 141.70 L 145.70 142.10 C 144.58 142.56 144.05 143.85 144.51 144.97 C 144.97 146.09 146.26 146.63 147.38 146.17 Z M 148.30 145.79 L 149.31 145.39 C 150.45 144.95 151.01 143.68 150.56 142.54 C 150.12 141.41 148.85 140.85 147.72 141.29 L 146.70 141.69 C 145.57 142.13 145.01 143.40 145.45 144.54 C 145.89 145.67 147.17 146.23 148.30 145.79 Z M 149.29 145.39 L 150.25 145.03 C 151.38 144.60 151.96 143.34 151.53 142.20 C 151.10 141.07 149.83 140.50 148.70 140.93 L 147.74 141.29 C 146.60 141.72 146.03 142.99 146.46 144.12 C 146.89 145.25 148.16 145.82 149.29 145.39 Z M 150.23 145.03 L 151.17 144.68 C 152.30 144.26 152.88 143.01 152.46 141.87 C 152.04 140.74 150.79 140.17 149.66 140.58 L 148.72 140.93 C 147.59 141.35 147.01 142.61 147.43 143.74 C 147.85 144.87 149.10 145.45 150.23 145.03 Z M 151.15 144.67 L 152.10 144.33 C 153.22 143.93 153.81 142.69 153.40 141.56 C 153.00 140.43 151.76 139.84 150.63 140.25 L 149.68 140.59 C 148.55 140.99 147.97 142.24 148.37 143.37 C 148.78 144.49 150.02 145.08 151.15 144.67 Z M 152.07 144.33 L 153.02 144.00 C 154.14 143.61 154.74 142.38 154.35 141.26 C 153.96 140.13 152.73 139.53 151.60 139.92 L 150.65 140.25 C 149.53 140.64 148.93 141.87 149.32 143.00 C 149.71 144.12 150.94 144.72 152.07 144.33 Z M 152.99 144.00 L 153.93 143.68 C 155.06 143.31 155.66 142.10 155.29 140.97 C 154.92 139.85 153.71 139.24 152.58 139.61 L 151.64 139.93 C 150.51 140.30 149.90 141.51 150.27 142.64 C 150.65 143.76 151.86 144.37 152.99 144.00 Z M 153.89 143.67 L 154.89 143.35 C 156.01 143.00 156.63 141.82 156.28 140.70 C 155.93 139.59 154.75 138.97 153.63 139.32 L 152.62 139.63 C 151.51 139.98 150.89 141.17 151.24 142.28 C 151.59 143.39 152.77 144.02 153.89 143.67 Z M 154.84 143.31 L 155.85 143.02 C 156.94 142.70 157.56 141.55 157.24 140.46 C 156.92 139.36 155.77 138.74 154.68 139.06 L 153.68 139.36 C 152.59 139.68 151.96 140.82 152.28 141.92 C 152.61 143.01 153.75 143.63 154.84 143.31 Z M 155.80 142.97 L 156.77 142.70 C 157.84 142.41 158.46 141.30 158.17 140.24 C 157.87 139.17 156.76 138.54 155.70 138.84 L 154.73 139.11 C 153.66 139.40 153.03 140.51 153.33 141.57 C 153.63 142.64 154.73 143.27 155.80 142.97 Z M 156.72 142.66 L 157.65 142.42 C 158.69 142.14 159.31 141.08 159.04 140.04 C 158.77 138.99 157.71 138.37 156.66 138.64 L 155.74 138.88 C 154.70 139.16 154.07 140.22 154.35 141.26 C 154.62 142.31 155.68 142.93 156.72 142.66 Z M 157.61 142.36 L 158.55 142.13 C 159.57 141.88 160.19 140.86 159.94 139.85 C 159.69 138.83 158.67 138.21 157.65 138.46 L 156.71 138.70 C 155.69 138.94 155.07 139.97 155.32 140.98 C 155.57 141.99 156.59 142.61 157.61 142.36 Z M 158.51 142.06 L 159.53 141.83 C 160.51 141.60 161.12 140.63 160.89 139.65 C 160.67 138.68 159.69 138.07 158.72 138.29 L 157.70 138.53 C 156.72 138.75 156.11 139.73 156.34 140.70 C 156.56 141.68 157.53 142.29 158.51 142.06 Z M 159.49 141.75 L 160.45 141.55 C 161.38 141.34 161.98 140.42 161.77 139.49 C 161.57 138.55 160.65 137.96 159.72 138.16 L 158.76 138.37 C 157.82 138.57 157.23 139.49 157.43 140.43 C 157.63 141.36 158.56 141.96 159.49 141.75 Z M 160.42 141.47 L 161.35 141.27 C 162.24 141.09 162.81 140.21 162.62 139.32 C 162.44 138.43 161.56 137.86 160.67 138.05 L 159.75 138.24 C 158.86 138.43 158.28 139.30 158.47 140.19 C 158.66 141.08 159.53 141.65 160.42 141.47 Z M 161.33 141.23 L 161.50 141.19 C 162.36 141.01 162.92 140.17 162.74 139.30 C 162.56 138.44 161.71 137.88 160.85 138.06 L 160.69 138.10 C 159.82 138.27 159.27 139.12 159.44 139.98 C 159.62 140.85 160.47 141.40 161.33 141.23 Z"
      fill="black"
      fill-rule="nonzero" /></svg>