<svg xmlns="http://www.w3.org/2000/svg" width="300" height="300" viewBox="0 0 300 300">
<path d="M 135.93 90.53 L 135.92 91.54 C 135.92 92.49 136.68 93.28 137.64 93.29 C 138.60 93.30 139.38 92.53 139.39 91.57 L 139.40 90.57 C 139.41 89.61 138.64 88.83 137.68 88.82 C 136.73 88.81 135.94 89.58 135.93 90.53 Z M 135.93 91.44 L 135.87 92.43 C 135.80 93.38 136.52 94.21 137.47 94.27 C 138.42 94.34 139.25 93.62 139.31 92.67 L 139.38 91.67 C 139.44 90.72 138.73 89.89 137.77 89.83 C 136.82 89.77 136.00 90.49 135.93 91.44 Z M 135.90 92.24 L 135.72 93.19 C 135.55 94.12 136.16 95.02 137.10 95.20 C 138.03 95.37 138.93 94.75 139.11 93.82 L 139.28 92.86 C 139.46 91.93 138.84 91.03 137.90 90.86 C 136.97 90.68 136.07 91.30 135.90 92.24 Z M 135.78 92.96 L 135.50 93.79 C 135.20 94.69 135.69 95.66 136.59 95.96 C 137.49 96.26 138.47 95.78 138.77 94.88 L 139.04 94.05 C 139.35 93.15 138.86 92.17 137.96 91.87 C 137.06 91.57 136.08 92.06 135.78 92.96 Z M 135.57 93.63 L 135.17 94.52 C 134.78 95.38 135.17 96.40 136.04 96.79 C 136.91 97.17 137.93 96.78 138.31 95.92 L 138.71 95.03 C 139.09 94.16 138.70 93.15 137.84 92.76 C 136.97 92.37 135.95 92.76 135.57 93.63 Z M 135.21 94.44 L 134.70 95.45 C 134.27 96.29 134.60 97.33 135.45 97.76 C 136.29 98.19 137.33 97.85 137.76 97.01 L 138.27 96.00 C 138.70 95.15 138.37 94.12 137.52 93.68 C 136.68 93.25 135.64 93.59 135.21 94.44 Z M 134.71 95.42 L 134.25 96.30 C 133.80 97.14 134.12 98.18 134.96 98.62 C 135.80 99.06 136.84 98.74 137.28 97.91 L 137.75 97.03 C 138.19 96.19 137.87 95.15 137.03 94.71 C 136.19 94.26 135.15 94.58 134.71 95.42 Z M 134.25 96.29 L 133.78 97.17 C 133.33 98.00 133.64 99.05 134.48 99.49 C 135.31 99.94 136.36 99.63 136.80 98.79 L 137.28 97.91 C 137.73 97.08 137.41 96.04 136.58 95.59 C 135.74 95.14 134.70 95.45 134.25 96.29 Z M 133.78 97.16 L 133.29 98.07 C 132.83 98.90 133.14 99.95 133.97 100.40 C 134.81 100.85 135.85 100.55 136.30 99.71 L 136.80 98.80 C 137.25 97.97 136.95 96.93 136.11 96.47 C 135.28 96.02 134.24 96.33 133.78 97.16 Z M 133.30 98.06 L 132.79 98.96 C 132.33 99.79 132.63 100.84 133.46 101.30 C 134.29 101.76 135.34 101.46 135.79 100.63 L 136.30 99.72 C 136.76 98.90 136.46 97.85 135.63 97.39 C 134.80 96.93 133.75 97.23 133.30 98.06 Z M 132.80 98.95 L 132.32 99.81 C 131.85 100.63 132.14 101.68 132.96 102.15 C 133.79 102.61 134.83 102.32 135.30 101.50 L 135.79 100.64 C 136.25 99.82 135.96 98.77 135.14 98.30 C 134.32 97.84 133.27 98.13 132.80 98.95 Z M 132.33 99.79 L 131.80 100.70 C 131.32 101.51 131.60 102.56 132.41 103.04 C 133.23 103.52 134.28 103.24 134.76 102.43 L 135.29 101.52 C 135.77 100.70 135.49 99.65 134.67 99.17 C 133.85 98.70 132.80 98.97 132.33 99.79 Z M 131.81 100.67 L 131.30 101.51 C 130.81 102.32 131.07 103.37 131.88 103.87 C 132.69 104.36 133.74 104.10 134.23 103.29 L 134.75 102.45 C 135.24 101.64 134.98 100.59 134.17 100.09 C 133.36 99.60 132.31 99.86 131.81 100.67 Z M 131.32 101.48 L 130.80 102.29 C 130.29 103.09 130.53 104.15 131.33 104.66 C 132.13 105.17 133.19 104.94 133.70 104.14 L 134.22 103.32 C 134.73 102.52 134.49 101.46 133.69 100.95 C 132.89 100.44 131.83 100.68 131.32 101.48 Z M 130.82 102.26 L 130.27 103.09 C 129.74 103.88 129.95 104.95 130.74 105.47 C 131.53 106.00 132.60 105.79 133.13 105.00 L 133.68 104.17 C 134.21 103.38 133.99 102.31 133.20 101.78 C 132.41 101.26 131.35 101.47 130.82 102.26 Z M 130.26 103.06 L 129.61 104.01 C 129.06 104.80 129.26 105.88 130.05 106.43 C 130.85 106.97 131.93 106.77 132.47 105.98 L 133.13 105.03 C 133.67 104.24 133.47 103.16 132.68 102.61 C 131.89 102.07 130.81 102.27 130.26 103.06 Z M 129.56 104.01 L 128.92 104.97 C 128.37 105.79 128.59 106.89 129.41 107.44 C 130.23 107.99 131.34 107.76 131.88 106.95 L 132.52 105.98 C 133.07 105.17 132.85 104.06 132.03 103.51 C 131.21 102.97 130.10 103.19 129.56 104.01 Z M 128.81 105.04 L 128.32 105.90 C 127.82 106.77 128.12 107.89 129.00 108.39 C 129.87 108.90 130.99 108.60 131.49 107.72 L 131.98 106.87 C 132.49 105.99 132.19 104.87 131.31 104.37 C 130.44 103.87 129.32 104.17 128.81 105.04 Z M 128.13 106.23 L 127.91 106.88 C 127.59 107.87 128.13 108.93 129.11 109.25 C 130.10 109.57 131.16 109.03 131.48 108.05 L 131.69 107.39 C 132.01 106.40 131.48 105.35 130.49 105.02 C 129.51 104.70 128.45 105.24 128.13 106.23 Z M 128.41 108.89 L 128.93 109.36 C 129.72 110.07 130.93 110.01 131.64 109.22 C 132.35 108.43 132.29 107.21 131.50 106.50 L 130.98 106.04 C 130.19 105.33 128.97 105.39 128.27 106.18 C 127.56 106.97 127.62 108.19 128.41 108.89 Z M 130.38 109.89 L 131.51 109.80 C 132.60 109.70 133.40 108.75 133.31 107.67 C 133.22 106.59 132.26 105.78 131.18 105.88 L 130.05 105.97 C 128.97 106.06 128.16 107.02 128.25 108.10 C 128.35 109.18 129.30 109.98 130.38 109.89 Z M 131.75 109.79 L 132.74 109.59 C 133.82 109.36 134.52 108.31 134.29 107.23 C 134.07 106.15 133.02 105.46 131.94 105.68 L 130.95 105.88 C 129.87 106.10 129.17 107.16 129.39 108.24 C 129.62 109.32 130.67 110.01 131.75 109.79 Z M 132.83 109.58 L 133.79 109.33 C 134.86 109.06 135.51 107.97 135.24 106.90 C 134.97 105.83 133.88 105.18 132.81 105.45 L 131.85 105.69 C 130.78 105.96 130.13 107.05 130.40 108.12 C 130.67 109.19 131.76 109.85 132.83 109.58 Z M 133.83 109.33 L 134.79 109.07 C 135.86 108.78 136.49 107.67 136.20 106.60 C 135.90 105.53 134.80 104.89 133.73 105.19 L 132.77 105.45 C 131.70 105.74 131.06 106.85 131.36 107.92 C 131.65 108.99 132.76 109.62 133.83 109.33 Z M 134.81 109.07 L 135.77 108.79 C 136.84 108.49 137.47 107.38 137.16 106.31 C 136.86 105.23 135.75 104.61 134.67 104.91 L 133.71 105.19 C 132.64 105.49 132.01 106.61 132.32 107.68 C 132.62 108.75 133.73 109.37 134.81 109.07 Z M 135.79 108.79 L 136.74 108.51 C 137.81 108.20 138.43 107.08 138.11 106.01 C 137.80 104.94 136.68 104.33 135.61 104.64 L 134.66 104.92 C 133.59 105.23 132.98 106.35 133.29 107.42 C 133.60 108.49 134.72 109.10 135.79 108.79 Z M 136.78 108.50 L 137.71 108.21 C 138.78 107.88 139.37 106.75 139.04 105.69 C 138.71 104.62 137.58 104.03 136.52 104.36 L 135.58 104.65 C 134.52 104.98 133.93 106.11 134.25 107.17 C 134.58 108.23 135.71 108.83 136.78 108.50 Z M 137.78 108.18 L 138.74 107.85 C 139.78 107.48 140.34 106.34 139.97 105.29 C 139.61 104.24 138.46 103.69 137.41 104.05 L 136.46 104.39 C 135.41 104.75 134.86 105.90 135.22 106.94 C 135.59 107.99 136.73 108.55 137.78 108.18 Z M 138.81 107.80 L 139.75 107.43 C 140.77 107.02 141.27 105.86 140.86 104.84 C 140.45 103.82 139.29 103.32 138.27 103.73 L 137.34 104.10 C 136.31 104.51 135.82 105.67 136.22 106.69 C 136.63 107.71 137.79 108.21 138.81 107.80 Z M 139.81 107.38 L 140.74 106.96 C 141.73 106.52 142.18 105.36 141.73 104.36 C 141.29 103.37 140.13 102.92 139.13 103.37 L 138.21 103.78 C 137.21 104.22 136.77 105.39 137.21 106.38 C 137.65 107.37 138.82 107.82 139.81 107.38 Z M 140.80 106.90 L 141.70 106.46 C 142.66 105.98 143.06 104.81 142.58 103.85 C 142.10 102.89 140.93 102.50 139.97 102.98 L 139.07 103.43 C 138.11 103.90 137.72 105.07 138.19 106.03 C 138.67 106.99 139.84 107.38 140.80 106.90 Z M 141.81 106.36 L 142.69 105.84 C 143.59 105.31 143.90 104.14 143.36 103.23 C 142.82 102.32 141.65 102.02 140.74 102.55 L 139.87 103.07 C 138.96 103.61 138.66 104.78 139.19 105.69 C 139.73 106.60 140.90 106.90 141.81 106.36 Z M 142.89 105.66 L 143.63 105.06 C 144.44 104.42 144.57 103.24 143.93 102.43 C 143.28 101.62 142.10 101.49 141.29 102.13 L 140.54 102.73 C 139.73 103.38 139.60 104.56 140.25 105.37 C 140.90 106.18 142.08 106.31 142.89 105.66 Z M 143.90 104.77 L 144.55 103.97 C 145.20 103.18 145.07 102.01 144.28 101.36 C 143.48 100.72 142.31 100.84 141.67 101.63 L 141.02 102.43 C 140.38 103.22 140.50 104.39 141.29 105.04 C 142.09 105.69 143.26 105.56 143.90 104.77 Z M 144.84 103.47 L 145.19 102.56 C 145.55 101.61 145.07 100.53 144.12 100.17 C 143.16 99.80 142.09 100.28 141.72 101.23 L 141.38 102.14 C 141.01 103.10 141.49 104.17 142.45 104.54 C 143.40 104.90 144.47 104.42 144.84 103.47 Z M 145.35 101.82 L 145.30 100.69 C 145.26 99.64 144.38 98.83 143.33 98.87 C 142.29 98.91 141.47 99.80 141.52 100.84 L 141.56 101.98 C 141.61 103.02 142.49 103.83 143.53 103.79 C 144.58 103.75 145.39 102.87 145.35 101.82 Z M 145.25 101.46 L 145.46 100.91 C 145.85 99.89 145.34 98.75 144.32 98.37 C 143.30 97.98 142.16 98.50 141.77 99.51 L 141.56 100.07 C 141.18 101.08 141.69 102.22 142.71 102.61 C 143.73 103.00 144.87 102.48 145.25 101.46 Z M 142.94 102.12 L 143.77 102.42 C 144.83 102.79 145.98 102.25 146.36 101.20 C 146.74 100.14 146.19 98.99 145.14 98.61 L 144.30 98.31 C 143.25 97.93 142.09 98.48 141.71 99.53 C 141.34 100.58 141.88 101.74 142.94 102.12 Z M 143.18 102.10 L 144.10 102.85 C 144.98 103.56 146.27 103.42 146.97 102.54 C 147.68 101.66 147.54 100.38 146.66 99.67 L 145.74 98.92 C 144.86 98.22 143.57 98.36 142.87 99.23 C 142.16 100.11 142.30 101.40 143.18 102.10 Z M 143.82 102.58 L 144.47 103.35 C 145.20 104.21 146.49 104.32 147.35 103.59 C 148.21 102.86 148.32 101.57 147.59 100.70 L 146.95 99.94 C 146.22 99.08 144.92 98.97 144.06 99.70 C 143.20 100.43 143.09 101.72 143.82 102.58 Z M 144.35 103.18 L 144.92 104.02 C 145.56 104.95 146.83 105.18 147.76 104.54 C 148.69 103.90 148.93 102.63 148.29 101.70 L 147.71 100.87 C 147.07 99.94 145.80 99.70 144.87 100.34 C 143.94 100.98 143.71 102.25 144.35 103.18 Z M 144.87 103.92 L 145.41 104.80 C 146.00 105.75 147.25 106.05 148.20 105.47 C 149.16 104.88 149.46 103.63 148.87 102.68 L 148.33 101.80 C 147.75 100.85 146.50 100.55 145.54 101.13 C 144.59 101.72 144.29 102.97 144.87 103.92 Z M 145.40 104.73 L 145.90 105.60 C 146.45 106.56 147.67 106.89 148.63 106.35 C 149.59 105.80 149.92 104.58 149.38 103.62 L 148.88 102.75 C 148.33 101.79 147.11 101.45 146.15 102.00 C 145.19 102.55 144.86 103.77 145.40 104.73 Z M 145.91 105.54 L 146.36 106.38 C 146.87 107.33 148.06 107.69 149.01 107.18 C 149.97 106.67 150.33 105.48 149.82 104.53 L 149.37 103.69 C 148.86 102.73 147.67 102.37 146.71 102.88 C 145.76 103.39 145.40 104.58 145.91 105.54 Z M 146.38 106.33 L 146.79 107.13 C 147.28 108.07 148.44 108.44 149.38 107.95 C 150.32 107.47 150.69 106.31 150.20 105.37 L 149.79 104.57 C 149.31 103.63 148.15 103.26 147.21 103.75 C 146.27 104.23 145.90 105.39 146.38 106.33 Z M 146.83 107.10 L 147.29 107.99 C 147.76 108.91 148.89 109.28 149.81 108.80 C 150.73 108.33 151.09 107.20 150.62 106.28 L 150.16 105.39 C 149.69 104.47 148.56 104.11 147.64 104.58 C 146.72 105.05 146.36 106.18 146.83 107.10 Z M 147.34 107.98 L 147.82 108.92 C 148.29 109.81 149.39 110.16 150.29 109.69 C 151.18 109.23 151.53 108.12 151.06 107.23 L 150.58 106.29 C 150.11 105.40 149.01 105.05 148.11 105.52 C 147.22 105.99 146.87 107.09 147.34 107.98 Z M 147.87 108.91 L 148.30 109.73 C 148.76 110.60 149.84 110.93 150.71 110.47 C 151.58 110.01 151.91 108.93 151.45 108.06 L 151.02 107.24 C 150.56 106.37 149.48 106.04 148.61 106.50 C 147.74 106.96 147.41 108.04 147.87 108.91 Z M 148.34 109.71 L 148.82 110.60 C 149.27 111.45 150.33 111.77 151.18 111.32 C 152.02 110.86 152.34 109.81 151.89 108.96 L 151.41 108.07 C 150.96 107.22 149.90 106.90 149.06 107.35 C 148.21 107.81 147.89 108.86 148.34 109.71 Z M 148.85 110.59 L 149.36 111.52 C 149.80 112.35 150.83 112.66 151.66 112.22 C 152.49 111.77 152.80 110.74 152.35 109.91 L 151.85 108.98 C 151.41 108.15 150.38 107.84 149.55 108.28 C 148.72 108.73 148.41 109.76 148.85 110.59 Z M 149.39 111.51 L 149.75 112.17 C 150.18 112.98 151.19 113.29 152.01 112.85 C 152.82 112.42 153.12 111.40 152.68 110.59 L 152.32 109.93 C 151.89 109.12 150.88 108.81 150.07 109.25 C 149.26 109.68 148.95 110.70 149.39 111.51 Z"
      fill="black"
      fill-rule="nonzero" /><path d="M 129.99 118.68 L 130.50 119.44 C 131.02 120.23 132.08 120.44 132.86 119.92 C 133.65 119.40 133.86 118.34 133.34 117.55 L 132.83 116.79 C 132.31 116.01 131.25 115.80 130.47 116.32 C 129.68 116.84 129.47 117.90 129.99 118.68 Z M 130.32 119.31 L 130.76 120.18 C 131.21 121.06 132.29 121.41 133.17 120.96 C 134.06 120.51 134.41 119.43 133.95 118.55 L 133.51 117.68 C 133.06 116.80 131.98 116.45 131.10 116.90 C 130.22 117.35 129.87 118.43 130.32 119.31 Z M 130.56 119.89 L 130.87 120.95 C 131.16 121.94 132.20 122.51 133.20 122.22 C 134.19 121.93 134.76 120.88 134.47 119.89 L 134.16 118.84 C 133.87 117.84 132.82 117.27 131.83 117.57 C 130.84 117.86 130.27 118.90 130.56 119.89 Z M 130.77 120.66 L 130.89 121.63 C 131.03 122.68 131.99 123.42 133.04 123.29 C 134.09 123.15 134.83 122.19 134.70 121.14 L 134.57 120.17 C 134.44 119.12 133.48 118.38 132.42 118.52 C 131.37 118.65 130.63 119.61 130.77 120.66 Z M 130.87 121.46 L 130.91 122.50 C 130.96 123.56 131.85 124.39 132.91 124.35 C 133.97 124.30 134.80 123.41 134.76 122.35 L 134.72 121.31 C 134.67 120.24 133.78 119.42 132.72 119.46 C 131.65 119.50 130.83 120.40 130.87 121.46 Z M 130.91 122.39 L 130.89 123.42 C 130.87 124.49 131.72 125.37 132.78 125.39 C 133.85 125.41 134.72 124.56 134.74 123.50 L 134.76 122.46 C 134.78 121.40 133.94 120.52 132.87 120.50 C 131.81 120.48 130.93 121.32 130.91 122.39 Z M 130.89 123.33 L 130.82 124.31 C 130.75 125.38 131.56 126.30 132.63 126.37 C 133.69 126.44 134.61 125.63 134.68 124.57 L 134.75 123.58 C 134.82 122.52 134.01 121.60 132.94 121.53 C 131.88 121.46 130.96 122.27 130.89 123.33 Z M 130.83 124.21 L 130.70 125.32 C 130.57 126.38 131.33 127.34 132.39 127.47 C 133.45 127.60 134.41 126.84 134.54 125.78 L 134.67 124.67 C 134.80 123.61 134.05 122.65 132.98 122.52 C 131.92 122.39 130.96 123.15 130.83 124.21 Z M 130.72 125.19 L 130.54 126.10 C 130.34 127.15 131.03 128.16 132.08 128.36 C 133.13 128.56 134.15 127.87 134.35 126.82 L 134.52 125.91 C 134.72 124.86 134.03 123.85 132.98 123.65 C 131.93 123.45 130.92 124.14 130.72 125.19 Z M 130.56 126.01 L 130.35 126.89 C 130.10 127.93 130.74 128.98 131.78 129.23 C 132.82 129.48 133.87 128.83 134.12 127.80 L 134.33 126.91 C 134.58 125.87 133.94 124.83 132.90 124.58 C 131.86 124.33 130.81 124.97 130.56 126.01 Z M 130.36 126.86 L 130.11 127.81 C 129.84 128.85 130.46 129.91 131.50 130.17 C 132.53 130.44 133.59 129.82 133.86 128.79 L 134.11 127.83 C 134.38 126.80 133.75 125.74 132.72 125.47 C 131.69 125.20 130.63 125.82 130.36 126.86 Z M 130.12 127.79 L 129.85 128.77 C 129.56 129.80 130.17 130.87 131.20 131.15 C 132.23 131.44 133.29 130.83 133.58 129.80 L 133.85 128.81 C 134.13 127.78 133.53 126.72 132.50 126.43 C 131.47 126.15 130.40 126.76 130.12 127.79 Z M 129.85 128.75 L 129.58 129.70 C 129.28 130.73 129.88 131.80 130.90 132.10 C 131.93 132.39 133.00 131.80 133.30 130.77 L 133.57 129.82 C 133.87 128.80 133.27 127.73 132.25 127.43 C 131.22 127.13 130.15 127.73 129.85 128.75 Z M 129.59 129.68 L 129.30 130.63 C 128.99 131.66 129.57 132.74 130.59 133.04 C 131.61 133.35 132.69 132.78 133.00 131.75 L 133.29 130.80 C 133.60 129.77 133.02 128.69 132.00 128.39 C 130.98 128.08 129.90 128.65 129.59 129.68 Z M 129.31 130.61 L 129.00 131.57 C 128.68 132.59 129.24 133.68 130.26 134.00 C 131.27 134.32 132.36 133.76 132.68 132.74 L 132.99 131.78 C 133.31 130.76 132.75 129.68 131.74 129.35 C 130.72 129.03 129.63 129.59 129.31 130.61 Z M 129.01 131.55 L 128.70 132.48 C 128.36 133.49 128.91 134.59 129.92 134.93 C 130.93 135.26 132.03 134.72 132.36 133.70 L 132.67 132.77 C 133.01 131.76 132.46 130.66 131.45 130.33 C 130.44 129.99 129.35 130.54 129.01 131.55 Z M 128.70 132.47 L 128.38 133.42 C 128.04 134.43 128.58 135.53 129.59 135.87 C 130.59 136.22 131.69 135.68 132.03 134.67 L 132.36 133.71 C 132.70 132.71 132.16 131.61 131.15 131.27 C 130.14 130.92 129.05 131.46 128.70 132.47 Z M 128.38 133.42 L 128.06 134.39 C 127.71 135.40 128.25 136.49 129.26 136.83 C 130.27 137.18 131.36 136.64 131.70 135.63 L 132.03 134.67 C 132.37 133.66 131.84 132.56 130.83 132.22 C 129.82 131.88 128.73 132.42 128.38 133.42 Z M 128.06 134.39 L 127.73 135.35 C 127.39 136.36 127.93 137.45 128.94 137.79 C 129.95 138.13 131.04 137.59 131.38 136.58 L 131.70 135.62 C 132.04 134.62 131.50 133.53 130.49 133.19 C 129.49 132.85 128.40 133.39 128.06 134.39 Z M 127.74 135.35 L 127.42 136.29 C 127.08 137.29 127.61 138.38 128.61 138.73 C 129.61 139.07 130.70 138.53 131.05 137.53 L 131.37 136.59 C 131.71 135.58 131.18 134.49 130.18 134.15 C 129.17 133.81 128.08 134.34 127.74 135.35 Z M 127.43 136.27 L 127.09 137.22 C 126.74 138.22 127.26 139.31 128.26 139.66 C 129.25 140.01 130.35 139.49 130.70 138.50 L 131.03 137.55 C 131.39 136.56 130.87 135.46 129.87 135.11 C 128.88 134.76 127.78 135.28 127.43 136.27 Z M 127.11 137.19 L 126.76 138.15 C 126.39 139.13 126.89 140.23 127.88 140.60 C 128.86 140.96 129.96 140.46 130.33 139.48 L 130.68 138.52 C 131.05 137.54 130.55 136.44 129.56 136.07 C 128.57 135.71 127.48 136.21 127.11 137.19 Z M 126.77 138.12 L 126.42 139.03 C 126.04 140.01 126.52 141.11 127.50 141.49 C 128.48 141.87 129.58 141.39 129.96 140.41 L 130.31 139.50 C 130.69 138.52 130.21 137.42 129.23 137.04 C 128.25 136.66 127.15 137.15 126.77 138.12 Z M 126.43 139.02 L 126.09 139.88 C 125.70 140.85 126.16 141.95 127.13 142.34 C 128.10 142.73 129.20 142.26 129.59 141.29 L 129.94 140.43 C 130.33 139.46 129.86 138.36 128.90 137.97 C 127.93 137.58 126.83 138.05 126.43 139.02 Z M 126.11 139.85 L 125.73 140.74 C 125.33 141.70 125.78 142.80 126.73 143.20 C 127.69 143.61 128.79 143.16 129.20 142.20 L 129.57 141.32 C 129.97 140.36 129.53 139.26 128.57 138.86 C 127.61 138.45 126.51 138.90 126.11 139.85 Z M 125.76 140.71 L 125.32 141.70 C 124.90 142.64 125.32 143.75 126.26 144.17 C 127.20 144.59 128.31 144.17 128.73 143.22 L 129.17 142.23 C 129.59 141.29 129.17 140.19 128.23 139.76 C 127.28 139.34 126.18 139.77 125.76 140.71 Z M 125.34 141.67 L 124.92 142.57 C 124.48 143.50 124.88 144.61 125.81 145.04 C 126.74 145.48 127.84 145.08 128.28 144.15 L 128.70 143.25 C 129.14 142.33 128.74 141.22 127.81 140.78 C 126.88 140.34 125.78 140.74 125.34 141.67 Z M 124.96 142.51 L 124.48 143.43 C 124.01 144.34 124.37 145.46 125.28 145.92 C 126.18 146.39 127.30 146.04 127.77 145.13 L 128.24 144.21 C 128.71 143.30 128.36 142.19 127.45 141.72 C 126.54 141.25 125.43 141.61 124.96 142.51 Z M 124.55 143.33 L 124.03 144.19 C 123.50 145.06 123.78 146.19 124.65 146.72 C 125.52 147.25 126.65 146.97 127.17 146.10 L 127.70 145.23 C 128.22 144.36 127.95 143.23 127.08 142.71 C 126.21 142.18 125.08 142.46 124.55 143.33 Z M 124.17 144.02 L 123.54 144.82 C 122.92 145.61 123.05 146.75 123.84 147.38 C 124.63 148.00 125.78 147.87 126.40 147.08 L 127.03 146.28 C 127.66 145.49 127.52 144.34 126.73 143.72 C 125.94 143.09 124.79 143.23 124.17 144.02 Z M 123.78 144.60 L 123.02 145.28 C 122.28 145.93 122.21 147.07 122.86 147.81 C 123.52 148.55 124.65 148.62 125.39 147.96 L 126.16 147.29 C 126.90 146.64 126.97 145.50 126.31 144.76 C 125.66 144.02 124.53 143.95 123.78 144.60 Z M 123.24 145.16 L 122.45 145.68 C 121.64 146.21 121.42 147.30 121.95 148.11 C 122.49 148.92 123.58 149.14 124.39 148.61 L 125.17 148.08 C 125.98 147.55 126.20 146.46 125.67 145.65 C 125.14 144.84 124.05 144.62 123.24 145.16 Z M 122.52 145.66 L 122.28 145.81 C 121.46 146.31 121.20 147.37 121.69 148.19 C 122.18 149.00 123.25 149.27 124.06 148.77 L 124.31 148.62 C 125.13 148.13 125.39 147.07 124.90 146.25 C 124.40 145.43 123.34 145.17 122.52 145.66 Z"
      fill="black"
      fill-rule="nonzero" /><path d="M 133.50 121.50 L 133.67 120.56 C 133.86 119.52 133.17 118.52 132.12 118.33 C 131.08 118.14 130.08 118.83 129.89 119.87 L 129.72 120.82 C 129.53 121.86 130.22 122.86 131.26 123.05 C 132.31 123.24 133.31 122.55 133.50 121.50 Z M 133.59 120.79 L 133.90 119.85 C 134.22 118.84 133.66 117.77 132.66 117.45 C 131.66 117.13 130.59 117.68 130.27 118.69 L 129.96 119.64 C 129.64 120.64 130.20 121.71 131.20 122.03 C 132.20 122.35 133.27 121.80 133.59 120.79 Z M 133.73 120.20 L 134.21 119.35 C 134.72 118.44 134.40 117.29 133.49 116.77 C 132.59 116.26 131.43 116.58 130.92 117.49 L 130.44 118.33 C 129.92 119.24 130.24 120.40 131.15 120.91 C 132.06 121.42 133.21 121.11 133.73 120.20 Z M 134.02 119.61 L 134.62 118.87 C 135.27 118.07 135.15 116.89 134.35 116.23 C 133.54 115.57 132.36 115.69 131.70 116.50 L 131.11 117.23 C 130.45 118.03 130.57 119.22 131.37 119.87 C 132.18 120.53 133.36 120.41 134.02 119.61 Z M 134.47 119.02 L 135.21 118.29 C 135.95 117.57 135.96 116.38 135.23 115.65 C 134.51 114.91 133.32 114.90 132.58 115.63 L 131.85 116.35 C 131.11 117.08 131.10 118.26 131.83 119.00 C 132.55 119.73 133.74 119.74 134.47 119.02 Z M 135.10 118.38 L 135.93 117.69 C 136.71 117.02 136.81 115.85 136.15 115.06 C 135.49 114.27 134.31 114.17 133.52 114.84 L 132.70 115.54 C 131.91 116.20 131.81 117.37 132.47 118.16 C 133.14 118.95 134.31 119.05 135.10 118.38 Z M 135.84 117.75 L 136.66 117.13 C 137.48 116.52 137.64 115.35 137.03 114.53 C 136.41 113.71 135.25 113.55 134.43 114.16 L 133.61 114.78 C 132.79 115.39 132.63 116.55 133.24 117.37 C 133.86 118.19 135.02 118.36 135.84 117.75 Z M 136.58 117.18 L 137.42 116.61 C 138.27 116.04 138.49 114.89 137.92 114.04 C 137.35 113.20 136.20 112.97 135.36 113.54 L 134.51 114.11 C 133.66 114.69 133.44 115.83 134.01 116.68 C 134.58 117.53 135.73 117.75 136.58 117.18 Z M 137.34 116.66 L 138.18 116.15 C 139.06 115.62 139.34 114.49 138.81 113.62 C 138.29 112.75 137.15 112.46 136.28 112.99 L 135.44 113.50 C 134.57 114.02 134.29 115.16 134.81 116.03 C 135.34 116.90 136.47 117.18 137.34 116.66 Z M 138.08 116.20 L 138.99 115.73 C 139.89 115.26 140.24 114.15 139.77 113.25 C 139.30 112.35 138.19 112.00 137.29 112.47 L 136.38 112.94 C 135.48 113.41 135.13 114.52 135.60 115.42 C 136.07 116.32 137.18 116.67 138.08 116.20 Z M 138.84 115.80 L 139.79 115.41 C 140.73 115.01 141.17 113.94 140.78 113.00 C 140.39 112.06 139.31 111.61 138.37 112.01 L 137.43 112.40 C 136.49 112.79 136.05 113.87 136.44 114.81 C 136.83 115.75 137.91 116.19 138.84 115.80 Z M 139.60 115.48 L 140.52 115.20 C 141.50 114.92 142.06 113.89 141.77 112.91 C 141.48 111.94 140.45 111.38 139.48 111.66 L 138.56 111.94 C 137.58 112.22 137.02 113.25 137.31 114.23 C 137.60 115.20 138.62 115.76 139.60 115.48 Z M 140.30 115.26 L 141.29 115.10 C 142.30 114.93 142.98 113.98 142.82 112.97 C 142.65 111.96 141.69 111.28 140.68 111.44 L 139.70 111.61 C 138.69 111.77 138.00 112.73 138.17 113.74 C 138.34 114.75 139.29 115.43 140.30 115.26 Z M 140.98 115.14 L 142.00 115.14 C 143.03 115.15 143.87 114.32 143.88 113.29 C 143.89 112.26 143.05 111.41 142.02 111.41 L 141.00 111.40 C 139.97 111.40 139.13 112.23 139.12 113.26 C 139.11 114.29 139.95 115.13 140.98 115.14 Z M 141.46 115.08 L 142.36 115.35 C 143.36 115.66 144.41 115.10 144.71 114.10 C 145.02 113.10 144.46 112.05 143.46 111.75 L 142.56 111.47 C 141.57 111.17 140.51 111.73 140.21 112.73 C 139.91 113.72 140.47 114.78 141.46 115.08 Z M 141.65 114.98 L 142.36 115.60 C 143.14 116.30 144.35 116.22 145.04 115.43 C 145.74 114.64 145.66 113.44 144.87 112.74 L 144.17 112.12 C 143.38 111.43 142.18 111.50 141.48 112.29 C 140.79 113.08 140.86 114.28 141.65 114.98 Z M 141.95 115.14 L 142.46 116.01 C 143.00 116.93 144.17 117.24 145.09 116.71 C 146.01 116.17 146.32 114.99 145.79 114.07 L 145.28 113.20 C 144.74 112.28 143.56 111.97 142.64 112.51 C 141.73 113.04 141.42 114.22 141.95 115.14 Z M 142.31 115.74 L 142.67 116.69 C 143.05 117.70 144.18 118.20 145.18 117.82 C 146.19 117.43 146.69 116.31 146.30 115.30 L 145.94 114.35 C 145.56 113.35 144.43 112.84 143.43 113.23 C 142.43 113.61 141.92 114.73 142.31 115.74 Z M 142.61 116.54 L 142.88 117.49 C 143.17 118.53 144.26 119.13 145.30 118.83 C 146.34 118.53 146.94 117.45 146.64 116.41 L 146.37 115.46 C 146.07 114.42 144.99 113.82 143.95 114.12 C 142.91 114.41 142.31 115.50 142.61 116.54 Z M 142.84 117.38 L 143.06 118.36 C 143.30 119.42 144.35 120.09 145.41 119.85 C 146.47 119.61 147.14 118.56 146.90 117.50 L 146.68 116.52 C 146.44 115.46 145.39 114.79 144.33 115.03 C 143.27 115.26 142.60 116.32 142.84 117.38 Z M 143.04 118.30 L 143.21 119.18 C 143.41 120.25 144.45 120.96 145.52 120.75 C 146.59 120.55 147.29 119.51 147.09 118.44 L 146.92 117.56 C 146.72 116.49 145.68 115.78 144.61 115.99 C 143.54 116.19 142.83 117.23 143.04 118.30 Z M 143.19 119.13 L 143.34 120.04 C 143.52 121.12 144.54 121.86 145.62 121.68 C 146.70 121.50 147.43 120.48 147.25 119.40 L 147.10 118.49 C 146.93 117.41 145.91 116.68 144.83 116.86 C 143.75 117.03 143.01 118.05 143.19 119.13 Z M 143.33 119.99 L 143.48 121.05 C 143.63 122.13 144.63 122.89 145.72 122.74 C 146.80 122.59 147.56 121.59 147.41 120.50 L 147.27 119.45 C 147.12 118.36 146.11 117.60 145.03 117.75 C 143.94 117.90 143.18 118.91 143.33 119.99 Z M 143.46 121.00 L 143.59 122.10 C 143.72 123.19 144.71 123.98 145.80 123.85 C 146.89 123.73 147.68 122.74 147.55 121.64 L 147.42 120.55 C 147.30 119.45 146.31 118.67 145.22 118.80 C 144.12 118.92 143.34 119.91 143.46 121.00 Z M 143.58 122.07 L 143.68 123.08 C 143.79 124.18 144.77 124.98 145.87 124.87 C 146.97 124.76 147.77 123.78 147.66 122.68 L 147.56 121.67 C 147.45 120.57 146.47 119.77 145.37 119.88 C 144.27 119.99 143.47 120.97 143.58 122.07 Z M 143.67 123.06 L 143.76 124.11 C 143.87 125.22 144.84 126.03 145.95 125.93 C 147.06 125.83 147.87 124.85 147.77 123.74 L 147.68 122.70 C 147.57 121.59 146.60 120.78 145.49 120.88 C 144.38 120.98 143.57 121.96 143.67 123.06 Z M 143.75 124.10 L 143.84 125.12 C 143.93 126.23 144.91 127.06 146.02 126.97 C 147.13 126.87 147.96 125.90 147.87 124.78 L 147.78 123.76 C 147.69 122.65 146.71 121.82 145.60 121.91 C 144.49 122.01 143.66 122.98 143.75 124.10 Z M 143.83 125.11 L 143.90 126.05 C 143.99 127.17 144.96 128.01 146.08 127.92 C 147.20 127.84 148.04 126.86 147.95 125.74 L 147.88 124.80 C 147.79 123.68 146.82 122.84 145.70 122.93 C 144.58 123.01 143.74 123.99 143.83 125.11 Z M 143.89 126.04 L 143.97 127.18 C 144.05 128.30 145.02 129.15 146.15 129.07 C 147.27 128.99 148.12 128.02 148.04 126.90 L 147.96 125.76 C 147.88 124.63 146.91 123.78 145.79 123.86 C 144.66 123.94 143.81 124.91 143.89 126.04 Z M 143.96 127.16 L 144.02 128.14 C 144.09 129.27 145.07 130.13 146.19 130.06 C 147.32 129.99 148.18 129.01 148.11 127.89 L 148.05 126.91 C 147.98 125.78 147.01 124.92 145.88 124.99 C 144.75 125.06 143.89 126.04 143.96 127.16 Z M 144.02 128.15 L 144.08 129.02 C 144.15 130.16 145.13 131.01 146.26 130.94 C 147.39 130.86 148.25 129.88 148.17 128.75 L 148.12 127.88 C 148.04 126.75 147.06 125.89 145.93 125.96 C 144.80 126.04 143.94 127.02 144.02 128.15 Z M 144.07 129.05 L 144.15 130.01 C 144.24 131.15 145.23 131.99 146.37 131.90 C 147.50 131.81 148.35 130.82 148.26 129.68 L 148.18 128.72 C 148.09 127.59 147.09 126.74 145.96 126.83 C 144.82 126.92 143.98 127.92 144.07 129.05 Z M 144.14 130.03 L 144.23 131.03 C 144.33 132.17 145.33 133.01 146.47 132.92 C 147.61 132.82 148.45 131.81 148.35 130.67 L 148.26 129.67 C 148.17 128.53 147.16 127.69 146.02 127.79 C 144.89 127.88 144.04 128.89 144.14 130.03 Z M 144.22 131.01 L 144.29 132.02 C 144.38 133.16 145.38 134.02 146.52 133.93 C 147.67 133.85 148.53 132.85 148.44 131.70 L 148.36 130.70 C 148.28 129.55 147.28 128.69 146.13 128.78 C 144.99 128.87 144.13 129.86 144.22 131.01 Z M 144.28 131.98 L 144.34 132.98 C 144.40 134.13 145.39 135.01 146.54 134.94 C 147.69 134.88 148.57 133.89 148.50 132.74 L 148.45 131.75 C 148.38 130.60 147.40 129.71 146.25 129.78 C 145.10 129.84 144.22 130.83 144.28 131.98 Z M 144.33 132.95 L 144.38 133.95 C 144.43 135.10 145.41 136.00 146.56 135.94 C 147.72 135.89 148.61 134.91 148.56 133.76 L 148.51 132.76 C 148.46 131.61 147.48 130.72 146.33 130.77 C 145.17 130.82 144.28 131.80 144.33 132.95 Z M 144.37 133.95 L 144.42 134.95 C 144.47 136.11 145.46 137.00 146.62 136.95 C 147.77 136.89 148.67 135.91 148.61 134.75 L 148.56 133.75 C 148.51 132.60 147.52 131.70 146.37 131.76 C 145.21 131.81 144.32 132.80 144.37 133.95 Z M 144.41 134.97 L 144.47 135.96 C 144.53 137.12 145.52 138.01 146.68 137.95 C 147.84 137.89 148.73 136.89 148.67 135.73 L 148.61 134.74 C 148.55 133.58 147.56 132.69 146.40 132.75 C 145.24 132.81 144.35 133.81 144.41 134.97 Z M 144.46 135.97 L 144.52 136.97 C 144.58 138.13 145.58 139.02 146.74 138.96 C 147.90 138.89 148.80 137.90 148.73 136.74 L 148.67 135.73 C 148.61 134.57 147.62 133.68 146.45 133.74 C 145.29 133.81 144.40 134.80 144.46 135.97 Z M 144.51 136.96 L 144.56 137.96 C 144.62 139.13 145.62 140.03 146.78 139.97 C 147.95 139.91 148.84 138.92 148.79 137.75 L 148.74 136.75 C 148.68 135.58 147.69 134.68 146.52 134.74 C 145.35 134.80 144.46 135.79 144.51 136.96 Z M 144.56 137.95 L 144.60 138.95 C 144.65 140.12 145.64 141.03 146.81 140.98 C 147.98 140.93 148.88 139.94 148.83 138.77 L 148.79 137.77 C 148.74 136.60 147.75 135.69 146.58 135.74 C 145.42 135.79 144.51 136.78 144.56 137.95 Z M 144.60 138.94 L 144.63 139.93 C 144.68 141.10 145.67 142.02 146.84 141.97 C 148.01 141.93 148.92 140.94 148.88 139.77 L 148.84 138.78 C 148.79 137.61 147.81 136.69 146.64 136.74 C 145.47 136.78 144.55 137.77 144.60 138.94 Z M 144.63 139.93 L 144.67 140.93 C 144.71 142.11 145.69 143.03 146.86 142.98 C 148.04 142.94 148.96 141.96 148.92 140.79 L 148.88 139.78 C 148.84 138.60 147.86 137.69 146.68 137.73 C 145.51 137.77 144.59 138.75 144.63 139.93 Z M 144.66 140.92 L 144.69 141.92 C 144.73 143.10 145.71 144.02 146.88 143.99 C 148.06 143.95 148.98 142.97 148.95 141.80 L 148.92 140.80 C 148.89 139.62 147.90 138.69 146.73 138.73 C 145.55 138.76 144.63 139.75 144.66 140.92 Z M 144.69 141.91 L 144.71 142.88 C 144.73 144.06 145.71 144.99 146.89 144.97 C 148.06 144.95 149.00 143.97 148.97 142.79 L 148.95 141.82 C 148.93 140.64 147.95 139.70 146.78 139.73 C 145.60 139.75 144.66 140.73 144.69 141.91 Z M 144.70 142.86 L 144.71 143.78 C 144.73 144.96 145.69 145.90 146.87 145.89 C 148.05 145.88 149.00 144.91 148.99 143.73 L 148.98 142.81 C 148.97 141.64 148.00 140.69 146.82 140.70 C 145.64 140.71 144.69 141.68 144.70 142.86 Z M 144.71 143.76 L 144.72 144.76 C 144.72 145.94 145.68 146.89 146.86 146.89 C 148.04 146.88 149.00 145.92 148.99 144.74 L 148.99 143.75 C 148.99 142.57 148.03 141.61 146.84 141.62 C 145.66 141.62 144.71 142.58 144.71 143.76 Z M 144.71 144.75 L 144.71 145.83 C 144.71 147.01 145.67 147.97 146.85 147.97 C 148.04 147.97 148.99 147.01 148.99 145.83 L 148.99 144.75 C 148.99 143.57 148.04 142.61 146.85 142.61 C 145.67 142.61 144.71 143.57 144.71 144.75 Z M 144.71 145.83 L 144.71 146.79 C 144.71 147.97 145.67 148.93 146.85 148.93 C 148.04 148.93 149.00 147.97 149.00 146.79 L 149.00 145.83 C 149.00 144.64 148.04 143.69 146.85 143.69 C 145.67 143.69 144.71 144.64 144.71 145.83 Z M 144.71 146.79 L 144.71 147.81 C 144.71 148.99 145.67 149.95 146.85 149.95 C 148.04 149.95 149.00 148.99 149.00 147.81 L 149.00 146.79 C 149.00 145.60 148.04 144.64 146.85 144.64 C 145.67 144.64 144.71 145.60 144.71 146.79 Z M 144.71 147.81 L 144.71 148.84 C 144.71 150.02 145.67 150.98 146.85 150.98 C 148.04 150.98 149.00 150.02 149.00 148.84 L 149.00 147.81 C 149.00 146.62 148.04 145.66 146.85 145.66 C 145.67 145.66 144.71 146.62 144.71 147.81 Z M 144.71 148.84 L 144.71 149.90 C 144.71 151.09 145.67 152.05 146.85 152.05 C 148.04 152.05 149.00 151.09 149.00 149.90 L 149.00 148.84 C 149.00 147.66 148.04 146.70 146.85 146.70 C 145.67 146.70 144.71 147.66 144.71 148.84 Z M 144.71 149.86 L 144.69 150.99 C 144.67 152.18 145.61 153.15 146.79 153.18 C 147.98 153.20 148.95 152.26 148.98 151.07 L 149.00 149.94 C 149.02 148.76 148.08 147.78 146.89 147.76 C 145.71 147.74 144.73 148.68 144.71 149.86 Z M 144.70 150.81 L 144.60 151.79 C 144.48 152.96 145.33 154.02 146.51 154.14 C 147.69 154.26 148.74 153.40 148.86 152.23 L 148.96 151.25 C 149.09 150.08 148.23 149.02 147.05 148.90 C 145.88 148.78 144.82 149.64 144.70 150.81 Z M 144.69 151.36 L 144.44 152.15 C 144.08 153.28 144.71 154.48 145.83 154.84 C 146.96 155.20 148.17 154.57 148.52 153.44 L 148.77 152.65 C 149.13 151.53 148.51 150.32 147.38 149.96 C 146.25 149.61 145.05 150.23 144.69 151.36 Z M 144.95 151.31 L 144.28 152.00 C 143.45 152.84 143.47 154.19 144.32 155.02 C 145.16 155.84 146.52 155.82 147.34 154.98 L 148.01 154.29 C 148.84 153.44 148.82 152.09 147.97 151.27 C 147.13 150.44 145.78 150.46 144.95 151.31 Z M 145.50 151.38 L 144.53 151.52 C 143.36 151.70 142.56 152.78 142.73 153.94 C 142.90 155.10 143.99 155.91 145.15 155.74 L 146.12 155.59 C 147.28 155.42 148.09 154.34 147.92 153.18 C 147.74 152.01 146.66 151.21 145.50 151.38 Z M 145.49 151.63 L 144.63 151.35 C 143.52 150.99 142.34 151.60 141.98 152.70 C 141.62 153.81 142.23 154.99 143.33 155.35 L 144.19 155.63 C 145.29 155.99 146.48 155.38 146.84 154.28 C 147.20 153.18 146.59 151.99 145.49 151.63 Z M 145.03 151.59 L 144.19 151.09 C 143.21 150.51 141.96 150.82 141.38 151.80 C 140.79 152.77 141.11 154.03 142.09 154.61 L 142.93 155.11 C 143.90 155.69 145.16 155.38 145.74 154.40 C 146.32 153.43 146.00 152.17 145.03 151.59 Z M 144.36 151.27 L 143.51 150.61 C 142.63 149.93 141.38 150.09 140.70 150.97 C 140.03 151.84 140.19 153.09 141.06 153.77 L 141.91 154.43 C 142.79 155.10 144.04 154.94 144.71 154.07 C 145.39 153.20 145.23 151.95 144.36 151.27 Z M 143.58 150.75 L 142.78 150.03 C 141.98 149.32 140.76 149.38 140.04 150.18 C 139.33 150.97 139.40 152.20 140.19 152.91 L 140.99 153.63 C 141.78 154.34 143.01 154.28 143.72 153.48 C 144.44 152.69 144.37 151.46 143.58 150.75 Z M 142.81 150.15 L 142.08 149.42 C 141.35 148.69 140.17 148.69 139.44 149.42 C 138.71 150.15 138.71 151.33 139.44 152.06 L 140.16 152.79 C 140.89 153.52 142.07 153.52 142.80 152.79 C 143.53 152.06 143.53 150.88 142.81 150.15 Z M 142.09 149.54 L 141.42 148.80 C 140.76 148.06 139.63 148.00 138.89 148.67 C 138.15 149.33 138.09 150.47 138.76 151.20 L 139.42 151.94 C 140.09 152.68 141.22 152.74 141.96 152.08 C 142.69 151.41 142.75 150.28 142.09 149.54 Z M 141.43 148.92 L 140.83 148.17 C 140.23 147.43 139.15 147.32 138.41 147.92 C 137.67 148.51 137.55 149.60 138.15 150.34 L 138.75 151.08 C 139.35 151.82 140.43 151.94 141.17 151.34 C 141.91 150.74 142.03 149.66 141.43 148.92 Z M 140.85 148.30 L 140.25 147.44 C 139.72 146.69 138.68 146.50 137.93 147.03 C 137.18 147.56 136.99 148.60 137.52 149.36 L 138.12 150.21 C 138.65 150.97 139.69 151.15 140.45 150.62 C 141.20 150.09 141.38 149.05 140.85 148.30 Z M 140.30 147.59 L 139.81 146.74 C 139.36 145.96 138.37 145.69 137.59 146.14 C 136.81 146.58 136.54 147.58 136.99 148.36 L 137.48 149.21 C 137.92 149.99 138.92 150.26 139.70 149.81 C 140.48 149.36 140.75 148.37 140.30 147.59 Z M 139.85 146.90 L 139.46 146.02 C 139.10 145.22 138.16 144.86 137.36 145.22 C 136.56 145.57 136.20 146.51 136.55 147.32 L 136.94 148.19 C 137.30 149.00 138.24 149.36 139.05 149.00 C 139.85 148.64 140.21 147.70 139.85 146.90 Z M 139.50 146.17 L 139.18 145.23 C 138.91 144.41 138.02 143.96 137.19 144.24 C 136.37 144.51 135.93 145.40 136.20 146.23 L 136.52 147.17 C 136.79 147.99 137.68 148.44 138.51 148.16 C 139.33 147.89 139.77 146.99 139.50 146.17 Z M 139.21 145.32 L 138.95 144.35 C 138.72 143.52 137.86 143.02 137.03 143.25 C 136.19 143.47 135.70 144.33 135.92 145.16 L 136.18 146.13 C 136.40 146.97 137.26 147.47 138.10 147.24 C 138.93 147.02 139.43 146.16 139.21 145.32 Z M 138.95 144.39 L 138.81 143.81 C 138.60 142.97 137.76 142.46 136.92 142.66 C 136.08 142.87 135.57 143.71 135.77 144.55 L 135.92 145.13 C 136.12 145.97 136.97 146.48 137.80 146.28 C 138.64 146.07 139.16 145.23 138.95 144.39 Z"
      fill="black"
      fill-rule="nonzero" /><path d="M 136.68 122.45 L 137.19 123.29 C 137.70 124.15 138.82 124.42 139.68 123.91 C 140.53 123.39 140.81 122.28 140.29 121.42 L 139.79 120.58 C 139.28 119.73 138.16 119.45 137.30 119.97 C 136.44 120.48 136.17 121.60 136.68 122.45 Z M 137.18 123.39 L 137.74 124.23 C 138.31 125.10 139.48 125.33 140.34 124.76 C 141.20 124.18 141.44 123.02 140.86 122.16 L 140.30 121.31 C 139.73 120.45 138.56 120.22 137.70 120.79 C 136.84 121.37 136.61 122.53 137.18 123.39 Z M 137.82 124.34 L 138.43 125.12 C 139.06 125.93 140.24 126.08 141.05 125.45 C 141.87 124.82 142.01 123.64 141.38 122.83 L 140.78 122.05 C 140.14 121.23 138.97 121.08 138.15 121.72 C 137.34 122.35 137.19 123.53 137.82 124.34 Z M 138.57 125.13 L 139.23 125.89 C 139.87 126.63 140.98 126.71 141.72 126.07 C 142.46 125.43 142.54 124.31 141.90 123.57 L 141.24 122.82 C 140.60 122.08 139.49 122.00 138.75 122.64 C 138.01 123.28 137.93 124.39 138.57 125.13 Z M 139.34 125.84 L 139.95 126.51 C 140.56 127.18 141.60 127.23 142.28 126.62 C 142.95 126.01 143.00 124.97 142.39 124.30 L 141.78 123.63 C 141.17 122.95 140.13 122.90 139.46 123.51 C 138.78 124.12 138.73 125.16 139.34 125.84 Z"
      fill="black"
      fill-rule="nonzero" /><path d="M 135.32 132.40 L 134.46 133.43 C 133.82 134.21 133.92 135.35 134.70 135.99 C 135.47 136.63 136.61 136.53 137.25 135.76 L 138.12 134.72 C 138.76 133.95 138.65 132.80 137.88 132.16 C 137.11 131.52 135.96 131.62 135.32 132.40 Z M 134.35 133.36 L 133.72 134.14 C 133.04 134.97 133.16 136.20 134.00 136.88 C 134.83 137.56 136.06 137.43 136.74 136.60 L 137.37 135.83 C 138.05 134.99 137.92 133.76 137.09 133.08 C 136.25 132.40 135.03 132.53 134.35 133.36 Z M 133.52 134.22 L 133.35 134.47 C 132.72 135.41 132.97 136.69 133.92 137.32 C 134.86 137.96 136.14 137.70 136.77 136.76 L 136.94 136.51 C 137.57 135.57 137.32 134.29 136.37 133.66 C 135.43 133.03 134.15 133.28 133.52 134.22 Z M 136.53 137.12 L 136.99 136.67 C 137.82 135.86 137.84 134.53 137.03 133.70 C 136.23 132.86 134.90 132.85 134.06 133.65 L 133.60 134.11 C 132.77 134.92 132.75 136.25 133.56 137.08 C 134.37 137.91 135.70 137.93 136.53 137.12 Z M 137.02 136.64 L 138.05 135.59 C 138.87 134.77 138.86 133.44 138.03 132.63 C 137.21 131.81 135.88 131.82 135.07 132.64 L 134.04 133.68 C 133.22 134.51 133.23 135.84 134.05 136.65 C 134.88 137.47 136.21 137.46 137.02 136.64 Z M 138.04 135.60 L 138.72 134.91 C 139.54 134.10 139.54 132.77 138.72 131.95 C 137.91 131.14 136.58 131.14 135.76 131.95 L 135.08 132.64 C 134.26 133.45 134.26 134.78 135.08 135.60 C 135.89 136.42 137.22 136.42 138.04 135.60 Z M 138.71 134.91 L 139.38 134.25 C 140.20 133.44 140.21 132.12 139.40 131.30 C 138.59 130.48 137.28 130.48 136.46 131.28 L 135.78 131.95 C 134.96 132.76 134.96 134.08 135.76 134.90 C 136.57 135.71 137.89 135.72 138.71 134.91 Z M 139.37 134.24 L 140.10 133.53 C 140.91 132.73 140.93 131.42 140.13 130.61 C 139.33 129.79 138.02 129.77 137.20 130.57 L 136.47 131.29 C 135.66 132.09 135.64 133.40 136.44 134.21 C 137.24 135.03 138.55 135.04 139.37 134.24 Z M 140.08 133.53 L 140.84 132.80 C 141.65 132.01 141.67 130.70 140.88 129.89 C 140.09 129.07 138.79 129.05 137.97 129.84 L 137.21 130.58 C 136.40 131.37 136.38 132.67 137.17 133.49 C 137.96 134.30 139.26 134.32 140.08 133.53 Z M 140.82 132.80 L 141.59 132.06 C 142.40 131.28 142.43 129.98 141.65 129.17 C 140.86 128.35 139.57 128.33 138.75 129.11 L 137.99 129.84 C 137.17 130.63 137.14 131.92 137.93 132.74 C 138.71 133.55 140.00 133.58 140.82 132.80 Z M 141.57 132.06 L 142.34 131.32 C 143.16 130.55 143.19 129.27 142.42 128.45 C 141.65 127.64 140.37 127.60 139.55 128.37 L 138.77 129.11 C 137.96 129.88 137.93 131.17 138.70 131.98 C 139.47 132.79 140.75 132.83 141.57 132.06 Z M 142.30 131.30 L 143.13 130.53 C 143.93 129.78 143.97 128.53 143.22 127.72 C 142.47 126.92 141.21 126.88 140.41 127.63 L 139.59 128.40 C 138.79 129.14 138.75 130.40 139.50 131.20 C 140.24 132.01 141.50 132.05 142.30 131.30 Z M 143.08 130.50 L 143.86 129.78 C 144.64 129.05 144.69 127.84 143.96 127.05 C 143.24 126.27 142.02 126.22 141.24 126.94 L 140.46 127.67 C 139.68 128.39 139.63 129.61 140.35 130.39 C 141.07 131.17 142.29 131.22 143.08 130.50 Z M 143.81 129.74 L 144.54 129.06 C 145.30 128.37 145.35 127.19 144.66 126.43 C 143.96 125.67 142.78 125.62 142.02 126.31 L 141.29 126.98 C 140.53 127.68 140.48 128.86 141.17 129.62 C 141.87 130.38 143.05 130.43 143.81 129.74 Z M 144.50 129.02 L 145.17 128.40 C 145.91 127.73 145.96 126.59 145.29 125.85 C 144.62 125.12 143.48 125.07 142.74 125.74 L 142.06 126.36 C 141.33 127.03 141.28 128.17 141.95 128.91 C 142.62 129.64 143.76 129.69 144.50 129.02 Z M 145.14 128.36 L 145.81 127.74 C 146.52 127.09 146.57 125.99 145.91 125.28 C 145.26 124.57 144.16 124.52 143.45 125.17 L 142.78 125.78 C 142.07 126.44 142.02 127.54 142.67 128.25 C 143.32 128.96 144.43 129.01 145.14 128.36 Z M 145.78 127.70 L 146.59 126.94 C 147.27 126.31 147.31 125.24 146.68 124.56 C 146.05 123.87 144.98 123.83 144.29 124.46 L 143.48 125.22 C 142.80 125.85 142.75 126.92 143.39 127.61 C 144.02 128.29 145.09 128.33 145.78 127.70 Z M 146.56 126.90 L 147.27 126.24 C 147.93 125.62 147.96 124.58 147.34 123.92 C 146.72 123.26 145.69 123.23 145.03 123.85 L 144.32 124.51 C 143.66 125.13 143.63 126.17 144.24 126.83 C 144.86 127.49 145.90 127.52 146.56 126.90 Z M 147.24 126.20 L 147.89 125.58 C 148.53 124.98 148.56 123.97 147.95 123.33 C 147.35 122.70 146.34 122.67 145.70 123.27 L 145.05 123.89 C 144.42 124.49 144.39 125.50 144.99 126.14 C 145.59 126.77 146.60 126.80 147.24 126.20 Z M 147.87 125.56 L 147.93 125.51 C 148.56 124.92 148.58 123.93 147.99 123.30 C 147.40 122.67 146.41 122.64 145.78 123.24 L 145.72 123.29 C 145.10 123.89 145.07 124.88 145.66 125.50 C 146.26 126.13 147.25 126.16 147.87 125.56 Z"
      fill="black"
      fill-rule="nonzero" /><path d="M 152.14 103.45 L 152.92 103.24 C 153.86 102.98 154.42 102.01 154.16 101.06 C 153.91 100.12 152.93 99.56 151.99 99.82 L 151.22 100.03 C 150.27 100.29 149.72 101.26 149.97 102.20 C 150.23 103.15 151.20 103.70 152.14 103.45 Z M 153.03 103.24 L 153.94 102.94 C 154.89 102.62 155.40 101.60 155.08 100.65 C 154.76 99.70 153.74 99.19 152.79 99.51 L 151.88 99.81 C 150.93 100.13 150.42 101.15 150.74 102.10 C 151.06 103.05 152.08 103.56 153.03 103.24 Z M 154.07 102.93 L 155.20 102.46 C 156.14 102.07 156.59 100.99 156.20 100.05 C 155.81 99.11 154.73 98.66 153.79 99.05 L 152.66 99.52 C 151.72 99.91 151.27 100.99 151.66 101.93 C 152.05 102.87 153.13 103.32 154.07 102.93 Z M 155.28 102.44 L 156.10 102.06 C 157.03 101.62 157.43 100.52 157.00 99.59 C 156.56 98.66 155.46 98.26 154.53 98.69 L 153.71 99.07 C 152.78 99.51 152.37 100.61 152.81 101.54 C 153.24 102.47 154.35 102.87 155.28 102.44 Z M 156.13 102.03 L 157.03 101.59 C 157.94 101.14 158.32 100.03 157.87 99.12 C 157.42 98.20 156.31 97.82 155.40 98.27 L 154.50 98.72 C 153.58 99.17 153.20 100.27 153.65 101.19 C 154.10 102.11 155.21 102.48 156.13 102.03 Z M 157.05 101.57 L 157.98 101.09 C 158.89 100.63 159.25 99.52 158.79 98.62 C 158.33 97.72 157.22 97.36 156.32 97.82 L 155.38 98.29 C 154.47 98.75 154.11 99.86 154.57 100.77 C 155.04 101.67 156.14 102.03 157.05 101.57 Z M 158.00 101.07 L 158.93 100.59 C 159.83 100.12 160.17 99.01 159.70 98.12 C 159.24 97.22 158.13 96.88 157.24 97.35 L 156.30 97.83 C 155.41 98.30 155.06 99.41 155.53 100.30 C 156.00 101.20 157.10 101.54 158.00 101.07 Z M 158.94 100.57 L 159.82 100.10 C 160.71 99.63 161.05 98.52 160.57 97.64 C 160.10 96.75 159.00 96.42 158.11 96.89 L 157.23 97.36 C 156.34 97.84 156.01 98.94 156.48 99.82 C 156.95 100.71 158.05 101.04 158.94 100.57 Z M 159.82 100.06 L 160.83 99.52 C 161.69 99.04 162.01 97.96 161.54 97.09 C 161.07 96.23 159.98 95.91 159.11 96.38 L 158.11 96.93 C 157.25 97.40 156.93 98.48 157.40 99.35 C 157.87 100.22 158.96 100.54 159.82 100.06 Z M 160.81 99.46 L 161.71 98.96 C 162.54 98.50 162.84 97.44 162.37 96.61 C 161.91 95.77 160.85 95.47 160.02 95.94 L 159.13 96.44 C 158.29 96.90 157.99 97.96 158.46 98.79 C 158.92 99.63 159.98 99.93 160.81 99.46 Z M 161.69 98.91 L 162.51 98.44 C 163.31 97.98 163.59 96.96 163.14 96.16 C 162.68 95.35 161.66 95.07 160.85 95.53 L 160.03 95.99 C 159.23 96.45 158.95 97.47 159.41 98.28 C 159.86 99.08 160.89 99.36 161.69 98.91 Z M 162.49 98.39 L 163.27 97.94 C 164.04 97.49 164.31 96.51 163.87 95.73 C 163.42 94.95 162.43 94.69 161.65 95.13 L 160.87 95.58 C 160.10 96.03 159.83 97.02 160.28 97.79 C 160.72 98.57 161.71 98.83 162.49 98.39 Z"
      fill="black"
      fill-rule="nonzero" /><path d="M 149.86 93.69 L 149.86 94.78 C 149.86 95.73 150.63 96.51 151.59 96.51 C 152.55 96.51 153.32 95.73 153.32 94.78 L 153.32 93.69 C 153.32 92.73 152.55 91.95 151.59 91.95 C 150.63 91.95 149.86 92.73 149.86 93.69 Z M 149.81 94.78 L 149.81 95.83 C 149.81 96.82 150.61 97.61 151.59 97.61 C 152.57 97.61 153.37 96.82 153.37 95.83 L 153.37 94.78 C 153.37 93.79 152.57 93.00 151.59 93.00 C 150.61 93.00 149.81 93.79 149.81 94.78 Z M 149.77 95.83 L 149.77 96.82 C 149.77 97.83 150.58 98.65 151.59 98.65 C 152.60 98.65 153.42 97.83 153.42 96.82 L 153.42 95.83 C 153.42 94.82 152.60 94.01 151.59 94.01 C 150.58 94.01 149.77 94.82 149.77 95.83 Z M 149.72 96.82 L 149.72 97.71 C 149.72 98.75 150.56 99.58 151.59 99.58 C 152.62 99.58 153.46 98.75 153.46 97.71 L 153.46 96.82 C 153.46 95.79 152.62 94.95 151.59 94.95 C 150.56 94.95 149.72 95.79 149.72 96.82 Z M 149.70 97.71 L 149.70 98.82 C 149.70 99.87 150.54 100.72 151.59 100.72 C 152.64 100.72 153.49 99.87 153.49 98.82 L 153.49 97.71 C 153.49 96.67 152.64 95.82 151.59 95.82 C 150.54 95.82 149.70 96.67 149.70 97.71 Z M 149.70 98.82 L 149.70 99.78 C 149.70 100.82 150.55 101.67 151.59 101.67 C 152.64 101.67 153.48 100.82 153.48 99.78 L 153.48 98.82 C 153.48 97.78 152.64 96.93 151.59 96.93 C 150.55 96.93 149.70 97.78 149.70 98.82 Z M 149.70 99.78 L 149.70 100.68 C 149.70 101.72 150.55 102.56 151.59 102.56 C 152.63 102.56 153.48 101.72 153.48 100.68 L 153.48 99.78 C 153.48 98.74 152.63 97.89 151.59 97.89 C 150.55 97.89 149.70 98.74 149.70 99.78 Z M 149.71 100.68 L 149.71 101.66 C 149.71 102.70 150.55 103.54 151.59 103.54 C 152.63 103.54 153.47 102.70 153.47 101.66 L 153.47 100.68 C 153.47 99.64 152.63 98.80 151.59 98.80 C 150.55 98.80 149.71 99.64 149.71 100.68 Z M 149.71 101.66 L 149.71 102.68 C 149.71 103.72 150.55 104.56 151.59 104.56 C 152.63 104.56 153.47 103.72 153.47 102.68 L 153.47 101.66 C 153.47 100.62 152.63 99.78 151.59 99.78 C 150.55 99.78 149.71 100.62 149.71 101.66 Z M 149.72 102.68 L 149.72 103.66 C 149.72 104.69 150.56 105.53 151.59 105.53 C 152.63 105.53 153.47 104.69 153.47 103.66 L 153.47 102.68 C 153.47 101.65 152.63 100.81 151.59 100.81 C 150.56 100.81 149.72 101.65 149.72 102.68 Z M 149.72 103.66 L 149.72 104.66 C 149.72 105.69 150.56 106.53 151.59 106.53 C 152.63 106.53 153.47 105.69 153.47 104.66 L 153.47 103.66 C 153.47 102.62 152.63 101.78 151.59 101.78 C 150.56 101.78 149.72 102.62 149.72 103.66 Z M 149.72 104.66 L 149.72 105.69 C 149.72 106.72 150.56 107.56 151.59 107.56 C 152.63 107.56 153.47 106.72 153.47 105.69 L 153.47 104.66 C 153.47 103.62 152.63 102.78 151.59 102.78 C 150.56 102.78 149.72 103.62 149.72 104.66 Z M 149.72 105.69 L 149.72 106.69 C 149.72 107.73 150.56 108.57 151.59 108.57 C 152.63 108.57 153.47 107.73 153.47 106.69 L 153.47 105.69 C 153.47 104.65 152.63 103.81 151.59 103.81 C 150.56 103.81 149.72 104.65 149.72 105.69 Z M 149.72 106.69 L 149.72 107.70 C 149.72 108.73 150.55 109.57 151.59 109.57 C 152.63 109.57 153.47 108.73 153.47 107.70 L 153.47 106.69 C 153.47 105.65 152.63 104.81 151.59 104.81 C 150.55 104.81 149.72 105.65 149.72 106.69 Z M 149.71 107.70 L 149.71 108.70 C 149.71 109.74 150.55 110.58 151.59 110.58 C 152.63 110.58 153.47 109.74 153.47 108.70 L 153.47 107.70 C 153.47 106.66 152.63 105.82 151.59 105.82 C 150.55 105.82 149.71 106.66 149.71 107.70 Z M 149.71 108.70 L 149.71 109.72 C 149.71 110.75 150.55 111.60 151.59 111.60 C 152.63 111.60 153.47 110.75 153.47 109.72 L 153.47 108.70 C 153.47 107.67 152.63 106.82 151.59 106.82 C 150.55 106.82 149.71 107.67 149.71 108.70 Z M 149.71 109.72 L 149.71 110.69 C 149.71 111.74 150.55 112.58 151.59 112.58 C 152.63 112.58 153.48 111.74 153.48 110.69 L 153.48 109.72 C 153.48 108.67 152.63 107.83 151.59 107.83 C 150.55 107.83 149.71 108.67 149.71 109.72 Z M 149.70 110.69 L 149.70 111.71 C 149.70 112.75 150.55 113.60 151.59 113.60 C 152.63 113.60 153.48 112.75 153.48 111.71 L 153.48 110.69 C 153.48 109.65 152.63 108.81 151.59 108.81 C 150.55 108.81 149.70 109.65 149.70 110.69 Z M 149.70 111.71 L 149.70 112.71 C 149.70 113.76 150.54 114.60 151.59 114.60 C 152.64 114.60 153.49 113.76 153.49 112.71 L 153.49 111.71 C 153.49 110.66 152.64 109.81 151.59 109.81 C 150.54 109.81 149.70 110.66 149.70 111.71 Z M 149.69 112.71 L 149.69 113.64 C 149.69 114.68 150.54 115.54 151.59 115.53 C 152.64 115.53 153.49 114.68 153.49 113.63 L 153.49 112.71 C 153.49 111.66 152.64 110.81 151.59 110.81 C 150.54 110.81 149.69 111.66 149.69 112.71 Z M 149.69 113.67 L 149.70 114.55 C 149.72 115.60 150.59 116.44 151.64 116.42 C 152.69 116.41 153.53 115.54 153.51 114.49 L 153.49 113.60 C 153.48 112.55 152.61 111.71 151.56 111.73 C 150.51 111.75 149.67 112.62 149.69 113.67 Z M 149.70 114.64 L 149.77 115.70 C 149.83 116.75 150.74 117.55 151.79 117.49 C 152.84 117.42 153.64 116.52 153.58 115.47 L 153.51 114.40 C 153.44 113.35 152.54 112.55 151.49 112.62 C 150.44 112.68 149.64 113.59 149.70 114.64 Z M 149.77 115.79 L 149.88 116.87 C 149.99 117.92 150.94 118.68 151.99 118.57 C 153.04 118.46 153.80 117.51 153.69 116.46 L 153.58 115.38 C 153.47 114.33 152.52 113.57 151.47 113.68 C 150.42 113.79 149.66 114.73 149.77 115.79 Z M 149.88 116.96 L 150.04 118.01 C 150.20 119.06 151.19 119.78 152.24 119.62 C 153.30 119.46 154.02 118.47 153.86 117.42 L 153.69 116.37 C 153.53 115.32 152.55 114.60 151.49 114.76 C 150.44 114.92 149.72 115.91 149.88 116.96 Z M 150.05 118.15 L 150.29 119.18 C 150.53 120.23 151.58 120.88 152.63 120.64 C 153.67 120.40 154.32 119.35 154.08 118.30 L 153.84 117.27 C 153.60 116.23 152.56 115.57 151.51 115.82 C 150.46 116.06 149.81 117.10 150.05 118.15 Z M 150.35 119.43 L 150.68 120.31 C 151.06 121.33 152.19 121.84 153.21 121.46 C 154.22 121.08 154.74 119.95 154.36 118.93 L 154.02 118.05 C 153.64 117.04 152.51 116.52 151.50 116.90 C 150.48 117.29 149.97 118.42 150.35 119.43 Z M 150.99 120.88 L 151.64 121.67 C 152.33 122.51 153.58 122.63 154.42 121.94 C 155.26 121.24 155.39 120.00 154.69 119.15 L 154.05 118.37 C 153.35 117.52 152.11 117.40 151.26 118.09 C 150.42 118.79 150.30 120.04 150.99 120.88 Z M 152.57 122.31 L 153.46 122.59 C 154.51 122.93 155.63 122.34 155.97 121.29 C 156.30 120.24 155.71 119.12 154.66 118.79 L 153.76 118.51 C 152.71 118.18 151.59 118.76 151.26 119.81 C 150.93 120.86 151.52 121.98 152.57 122.31 Z M 154.42 122.67 L 155.34 122.50 C 156.43 122.31 157.15 121.27 156.96 120.18 C 156.77 119.09 155.72 118.36 154.63 118.55 L 153.71 118.72 C 152.62 118.91 151.89 119.95 152.09 121.04 C 152.28 122.14 153.32 122.86 154.42 122.67 Z M 155.93 122.30 L 156.77 121.86 C 157.76 121.33 158.13 120.11 157.60 119.13 C 157.08 118.15 155.86 117.78 154.88 118.30 L 154.04 118.75 C 153.06 119.28 152.68 120.50 153.21 121.48 C 153.73 122.46 154.95 122.83 155.93 122.30 Z M 157.13 121.62 L 157.91 120.95 C 158.76 120.23 158.87 118.96 158.15 118.12 C 157.43 117.27 156.16 117.16 155.31 117.88 L 154.53 118.54 C 153.68 119.26 153.57 120.53 154.29 121.38 C 155.01 122.23 156.28 122.33 157.13 121.62 Z M 158.07 120.80 L 158.71 120.13 C 159.47 119.32 159.44 118.05 158.64 117.29 C 157.83 116.52 156.56 116.55 155.79 117.36 L 155.16 118.03 C 154.39 118.83 154.42 120.11 155.23 120.87 C 156.03 121.64 157.30 121.60 158.07 120.80 Z M 158.78 120.04 L 159.39 119.32 C 160.10 118.48 160.00 117.21 159.16 116.50 C 158.32 115.78 157.05 115.88 156.34 116.73 L 155.73 117.45 C 155.01 118.29 155.11 119.55 155.95 120.27 C 156.80 120.98 158.06 120.88 158.78 120.04 Z M 159.42 119.26 L 160.09 118.43 C 160.77 117.56 160.63 116.31 159.77 115.63 C 158.90 114.94 157.65 115.09 156.97 115.95 L 156.30 116.78 C 155.62 117.64 155.76 118.90 156.62 119.58 C 157.49 120.27 158.74 120.12 159.42 119.26 Z M 160.10 118.39 L 160.74 117.56 C 161.40 116.69 161.24 115.45 160.37 114.78 C 159.51 114.12 158.26 114.28 157.60 115.15 L 156.96 115.98 C 156.29 116.85 156.45 118.09 157.32 118.76 C 158.19 119.42 159.43 119.26 160.10 118.39 Z M 160.73 117.54 L 161.33 116.75 C 161.99 115.88 161.81 114.65 160.95 114.00 C 160.08 113.34 158.85 113.51 158.20 114.38 L 157.60 115.17 C 156.95 116.03 157.12 117.27 157.98 117.92 C 158.85 118.57 160.08 118.40 160.73 117.54 Z M 161.32 116.73 L 161.94 115.90 C 162.58 115.04 162.40 113.83 161.54 113.18 C 160.68 112.54 159.46 112.72 158.82 113.58 L 158.21 114.40 C 157.56 115.26 157.74 116.48 158.60 117.12 C 159.46 117.76 160.68 117.59 161.32 116.73 Z M 161.93 115.88 L 162.53 115.06 C 163.17 114.21 162.98 113.00 162.13 112.37 C 161.28 111.74 160.07 111.92 159.44 112.78 L 158.83 113.60 C 158.20 114.45 158.38 115.66 159.24 116.29 C 160.09 116.92 161.30 116.74 161.93 115.88 Z M 162.52 115.04 L 163.12 114.21 C 163.74 113.36 163.55 112.18 162.71 111.56 C 161.86 110.94 160.67 111.13 160.06 111.98 L 159.45 112.80 C 158.84 113.65 159.02 114.83 159.87 115.45 C 160.72 116.07 161.90 115.88 162.52 115.04 Z M 163.08 114.17 L 163.70 113.31 C 164.29 112.49 164.10 111.34 163.28 110.74 C 162.45 110.15 161.30 110.34 160.71 111.17 L 160.09 112.02 C 159.50 112.85 159.69 114.00 160.51 114.59 C 161.34 115.18 162.49 114.99 163.08 114.17 Z M 163.64 113.26 L 164.21 112.45 C 164.78 111.66 164.59 110.56 163.79 109.99 C 163.00 109.43 161.90 109.62 161.33 110.41 L 160.76 111.22 C 160.20 112.01 160.39 113.12 161.18 113.68 C 161.98 114.24 163.08 114.06 163.64 113.26 Z M 164.16 112.40 L 164.70 111.63 C 165.24 110.86 165.06 109.81 164.29 109.27 C 163.53 108.74 162.48 108.92 161.94 109.68 L 161.39 110.46 C 160.86 111.22 161.04 112.28 161.80 112.81 C 162.57 113.35 163.62 113.17 164.16 112.40 Z M 164.66 111.59 L 164.87 111.30 C 165.39 110.56 165.21 109.53 164.47 109.02 C 163.73 108.50 162.71 108.68 162.19 109.42 L 161.98 109.71 C 161.46 110.45 161.64 111.47 162.38 111.99 C 163.12 112.51 164.14 112.33 164.66 111.59 Z"
      fill="black"
      fill-rule="nonzero" /><path d="M 154.83 131.50 L 155.77 131.17 C 156.67 130.85 157.15 129.86 156.83 128.95 C 156.52 128.04 155.52 127.56 154.61 127.88 L 153.68 128.21 C 152.77 128.53 152.29 129.52 152.61 130.43 C 152.93 131.34 153.92 131.82 154.83 131.50 Z M 155.85 131.24 L 156.78 130.88 C 157.73 130.52 158.20 129.46 157.84 128.51 C 157.48 127.57 156.42 127.09 155.47 127.45 L 154.53 127.81 C 153.59 128.18 153.12 129.24 153.48 130.18 C 153.84 131.13 154.90 131.60 155.85 131.24 Z M 156.88 130.87 L 157.77 130.48 C 158.71 130.06 159.13 128.96 158.72 128.02 C 158.30 127.07 157.19 126.65 156.25 127.07 L 155.37 127.46 C 154.43 127.88 154.00 128.98 154.42 129.92 C 154.84 130.87 155.94 131.29 156.88 130.87 Z M 157.83 130.41 L 158.71 129.96 C 159.61 129.51 159.97 128.41 159.52 127.51 C 159.07 126.61 157.97 126.25 157.07 126.70 L 156.19 127.14 C 155.29 127.60 154.92 128.70 155.38 129.60 C 155.83 130.50 156.93 130.86 157.83 130.41 Z M 158.73 129.88 L 159.65 129.37 C 160.50 128.91 160.81 127.84 160.35 126.99 C 159.88 126.14 158.81 125.82 157.96 126.29 L 157.05 126.79 C 156.19 127.25 155.88 128.32 156.34 129.17 C 156.81 130.03 157.88 130.34 158.73 129.88 Z M 159.65 129.31 L 160.48 128.83 C 161.30 128.37 161.59 127.33 161.12 126.51 C 160.66 125.69 159.62 125.41 158.80 125.88 L 157.96 126.35 C 157.15 126.82 156.86 127.86 157.33 128.67 C 157.79 129.49 158.83 129.77 159.65 129.31 Z M 160.47 128.78 L 161.35 128.27 C 162.14 127.81 162.40 126.80 161.95 126.01 C 161.49 125.22 160.47 124.96 159.69 125.42 L 158.81 125.93 C 158.02 126.39 157.76 127.40 158.21 128.19 C 158.67 128.97 159.69 129.24 160.47 128.78 Z M 161.33 128.23 L 162.16 127.74 C 162.93 127.29 163.18 126.31 162.73 125.54 C 162.28 124.78 161.30 124.52 160.54 124.97 L 159.70 125.46 C 158.94 125.91 158.69 126.89 159.13 127.66 C 159.58 128.42 160.57 128.68 161.33 128.23 Z"
      fill="black"
      fill-rule="nonzero" /><path d="M 151.74 123.06 L 151.60 124.03 C 151.45 124.99 152.12 125.89 153.09 126.03 C 154.05 126.18 154.95 125.51 155.09 124.54 L 155.23 123.58 C 155.38 122.61 154.71 121.71 153.74 121.57 C 152.78 121.43 151.88 122.10 151.74 123.06 Z M 151.53 124.07 L 151.41 125.06 C 151.29 126.06 152.00 126.97 153.00 127.09 C 154.00 127.21 154.91 126.50 155.04 125.50 L 155.16 124.51 C 155.28 123.50 154.56 122.59 153.56 122.47 C 152.56 122.35 151.65 123.07 151.53 124.07 Z M 151.36 125.14 L 151.28 126.13 C 151.21 127.16 151.98 128.06 153.01 128.13 C 154.04 128.21 154.94 127.44 155.02 126.40 L 155.09 125.42 C 155.17 124.39 154.39 123.49 153.36 123.41 C 152.33 123.34 151.43 124.11 151.36 125.14 Z M 151.26 126.21 L 151.23 127.17 C 151.20 128.21 152.02 129.08 153.06 129.11 C 154.10 129.15 154.97 128.33 155.00 127.29 L 155.03 126.32 C 155.07 125.28 154.25 124.41 153.21 124.38 C 152.17 124.35 151.30 125.17 151.26 126.21 Z M 151.24 127.21 L 151.23 128.24 C 151.22 129.28 152.06 130.13 153.10 130.14 C 154.13 130.14 154.98 129.31 154.99 128.27 L 155.00 127.24 C 155.01 126.20 154.17 125.36 153.13 125.35 C 152.10 125.34 151.25 126.17 151.24 127.21 Z M 151.24 128.25 L 151.24 129.30 C 151.24 130.34 152.07 131.18 153.11 131.18 C 154.14 131.18 154.98 130.34 154.98 129.31 L 154.98 128.26 C 154.99 127.22 154.15 126.38 153.11 126.38 C 152.08 126.38 151.24 127.22 151.24 128.25 Z M 151.25 129.31 L 151.25 130.34 C 151.25 131.37 152.08 132.20 153.11 132.20 C 154.14 132.20 154.97 131.37 154.97 130.34 L 154.97 129.31 C 154.97 128.28 154.14 127.44 153.11 127.44 C 152.08 127.44 151.25 128.28 151.25 129.31 Z M 151.26 130.34 L 151.26 131.35 C 151.26 132.37 152.09 133.20 153.11 133.20 C 154.13 133.20 154.96 132.37 154.96 131.35 L 154.96 130.34 C 154.96 129.32 154.13 128.49 153.11 128.49 C 152.09 128.49 151.26 129.32 151.26 130.34 Z M 151.27 131.35 L 151.27 132.33 C 151.27 133.35 152.09 134.17 153.11 134.17 C 154.13 134.17 154.95 133.35 154.95 132.33 L 154.95 131.35 C 154.95 130.33 154.13 129.51 153.11 129.51 C 152.09 129.51 151.27 130.33 151.27 131.35 Z M 151.28 132.33 L 151.28 133.38 C 151.28 134.39 152.10 135.20 153.11 135.20 C 154.12 135.20 154.94 134.39 154.94 133.38 L 154.94 132.33 C 154.94 131.32 154.12 130.50 153.11 130.50 C 152.10 130.50 151.28 131.32 151.28 132.33 Z M 151.29 133.38 L 151.29 134.32 C 151.29 135.32 152.11 136.13 153.11 136.13 C 154.11 136.13 154.93 135.32 154.93 134.32 L 154.93 133.38 C 154.93 132.37 154.11 131.56 153.11 131.56 C 152.11 131.56 151.29 132.37 151.29 133.38 Z M 151.30 134.31 L 151.30 135.28 C 151.30 136.28 152.11 137.09 153.11 137.09 C 154.11 137.09 154.92 136.28 154.92 135.28 L 154.92 134.32 C 154.92 133.32 154.11 132.51 153.11 132.51 C 152.11 132.51 151.30 133.32 151.30 134.31 Z M 151.30 135.27 L 151.30 136.27 C 151.29 137.27 152.10 138.08 153.09 138.09 C 154.09 138.09 154.90 137.29 154.91 136.29 L 154.92 135.29 C 154.92 134.29 154.12 133.48 153.12 133.47 C 152.12 133.47 151.31 134.27 151.30 135.27 Z M 151.30 136.25 L 151.29 137.22 C 151.27 138.21 152.06 139.03 153.06 139.05 C 154.05 139.07 154.87 138.27 154.89 137.28 L 154.91 136.31 C 154.92 135.31 154.13 134.49 153.13 134.48 C 152.14 134.46 151.32 135.26 151.30 136.25 Z M 151.29 137.20 L 151.26 138.11 C 151.23 139.11 152.02 139.94 153.01 139.97 C 154.01 139.99 154.83 139.21 154.86 138.22 L 154.89 137.30 C 154.92 136.30 154.13 135.47 153.14 135.45 C 152.14 135.42 151.32 136.20 151.29 137.20 Z M 151.26 138.10 L 151.22 139.15 C 151.19 140.14 151.96 140.98 152.96 141.01 C 153.95 141.05 154.79 140.27 154.82 139.28 L 154.86 138.23 C 154.90 137.24 154.12 136.40 153.13 136.37 C 152.13 136.33 151.30 137.11 151.26 138.10 Z M 151.22 139.14 L 151.18 140.15 C 151.14 141.15 151.92 141.99 152.91 142.03 C 153.90 142.07 154.74 141.29 154.78 140.30 L 154.82 139.29 C 154.86 138.29 154.09 137.45 153.10 137.41 C 152.10 137.37 151.26 138.15 151.22 139.14 Z M 151.18 140.15 L 151.14 141.10 C 151.10 142.09 151.88 142.93 152.87 142.97 C 153.87 143.01 154.71 142.24 154.75 141.24 L 154.79 140.30 C 154.83 139.30 154.05 138.46 153.06 138.42 C 152.06 138.38 151.22 139.16 151.18 140.15 Z M 151.14 141.10 L 151.10 142.12 C 151.06 143.12 151.84 143.95 152.84 143.99 C 153.84 144.03 154.68 143.25 154.71 142.25 L 154.75 141.24 C 154.79 140.24 154.01 139.40 153.01 139.36 C 152.01 139.33 151.18 140.10 151.14 141.10 Z M 151.10 142.13 L 151.06 143.19 C 151.03 144.19 151.82 145.02 152.82 145.06 C 153.82 145.09 154.65 144.30 154.68 143.30 L 154.72 142.24 C 154.75 141.24 153.96 140.41 152.96 140.37 C 151.96 140.34 151.13 141.13 151.10 142.13 Z M 151.06 143.20 L 151.03 144.29 C 151.01 145.29 151.80 146.13 152.81 146.15 C 153.81 146.17 154.64 145.38 154.66 144.37 L 154.69 143.29 C 154.71 142.28 153.92 141.45 152.91 141.43 C 151.91 141.41 151.08 142.20 151.06 143.20 Z M 151.02 144.33 L 151.02 145.41 C 151.02 146.42 151.83 147.24 152.84 147.24 C 153.85 147.24 154.67 146.43 154.67 145.42 L 154.67 144.34 C 154.68 143.33 153.86 142.51 152.85 142.51 C 151.84 142.50 151.02 143.32 151.02 144.33 Z M 151.01 145.50 L 151.06 146.53 C 151.10 147.54 151.96 148.33 152.97 148.28 C 153.99 148.24 154.77 147.38 154.73 146.37 L 154.68 145.33 C 154.64 144.32 153.78 143.53 152.77 143.58 C 151.75 143.62 150.97 144.48 151.01 145.50 Z M 151.06 146.68 L 151.18 147.62 C 151.31 148.63 152.23 149.35 153.25 149.22 C 154.26 149.09 154.98 148.16 154.85 147.15 L 154.73 146.21 C 154.60 145.20 153.67 144.48 152.66 144.61 C 151.64 144.74 150.93 145.67 151.06 146.68 Z M 151.22 147.90 L 151.49 148.83 C 151.77 149.82 152.81 150.39 153.80 150.10 C 154.79 149.82 155.36 148.78 155.07 147.79 L 154.80 146.87 C 154.52 145.88 153.48 145.31 152.49 145.59 C 151.50 145.88 150.93 146.91 151.22 147.90 Z M 151.69 149.34 L 152.27 150.25 C 152.84 151.13 154.02 151.38 154.90 150.81 C 155.77 150.24 156.03 149.06 155.46 148.18 L 154.87 147.28 C 154.30 146.40 153.13 146.15 152.25 146.72 C 151.37 147.29 151.12 148.46 151.69 149.34 Z M 152.80 150.83 L 153.54 151.32 C 154.43 151.91 155.63 151.66 156.22 150.77 C 156.81 149.88 156.57 148.67 155.67 148.08 L 154.93 147.60 C 154.04 147.01 152.84 147.25 152.25 148.15 C 151.66 149.04 151.90 150.24 152.80 150.83 Z M 154.45 151.66 L 155.32 151.73 C 156.40 151.82 157.35 151.01 157.44 149.93 C 157.52 148.85 156.72 147.90 155.63 147.81 L 154.76 147.74 C 153.68 147.66 152.73 148.46 152.64 149.55 C 152.56 150.63 153.37 151.58 154.45 151.66 Z M 156.13 151.64 L 157.06 151.31 C 158.10 150.95 158.64 149.83 158.28 148.80 C 157.92 147.76 156.79 147.22 155.76 147.58 L 154.82 147.90 C 153.79 148.26 153.25 149.39 153.61 150.42 C 153.97 151.46 155.10 152.00 156.13 151.64 Z M 157.39 151.17 L 158.28 150.67 C 159.24 150.13 159.57 148.92 159.04 147.97 C 158.50 147.01 157.29 146.68 156.33 147.21 L 155.44 147.72 C 154.48 148.26 154.15 149.47 154.68 150.42 C 155.22 151.37 156.43 151.71 157.39 151.17 Z M 158.37 150.62 L 159.19 150.10 C 160.12 149.51 160.39 148.28 159.80 147.36 C 159.21 146.43 157.98 146.16 157.06 146.75 L 156.24 147.27 C 155.32 147.86 155.04 149.08 155.63 150.01 C 156.22 150.93 157.45 151.21 158.37 150.62 Z M 159.22 150.08 L 160.08 149.51 C 161.00 148.90 161.25 147.67 160.64 146.76 C 160.04 145.84 158.80 145.59 157.89 146.20 L 157.03 146.77 C 156.11 147.37 155.86 148.60 156.47 149.52 C 157.07 150.43 158.31 150.68 159.22 150.08 Z M 160.08 149.51 L 160.93 148.95 C 161.85 148.34 162.10 147.11 161.50 146.20 C 160.89 145.28 159.66 145.03 158.75 145.63 L 157.89 146.19 C 156.98 146.80 156.72 148.03 157.33 148.94 C 157.93 149.86 159.16 150.11 160.08 149.51 Z M 160.91 148.96 L 161.75 148.43 C 162.67 147.84 162.94 146.61 162.35 145.68 C 161.76 144.76 160.53 144.49 159.61 145.08 L 158.77 145.62 C 157.85 146.21 157.58 147.43 158.17 148.36 C 158.76 149.28 159.98 149.55 160.91 148.96 Z M 161.72 148.44 L 162.58 147.92 C 163.51 147.34 163.80 146.12 163.23 145.19 C 162.65 144.25 161.43 143.96 160.50 144.54 L 159.64 145.06 C 158.70 145.64 158.41 146.86 158.99 147.79 C 159.56 148.73 160.78 149.02 161.72 148.44 Z M 162.54 147.94 L 163.42 147.42 C 164.36 146.87 164.68 145.66 164.13 144.71 C 163.58 143.77 162.36 143.45 161.42 144.00 L 160.54 144.51 C 159.59 145.07 159.27 146.28 159.82 147.23 C 160.38 148.17 161.59 148.49 162.54 147.94 Z M 163.37 147.45 L 164.28 146.95 C 165.24 146.42 165.58 145.22 165.06 144.26 C 164.53 143.30 163.32 142.95 162.37 143.48 L 161.46 143.98 C 160.50 144.50 160.15 145.71 160.68 146.67 C 161.21 147.63 162.41 147.97 163.37 147.45 Z M 164.23 146.97 L 165.12 146.51 C 166.09 146.00 166.47 144.81 165.97 143.84 C 165.46 142.87 164.27 142.49 163.30 142.99 L 162.41 143.46 C 161.44 143.96 161.06 145.16 161.57 146.13 C 162.07 147.10 163.26 147.47 164.23 146.97 Z M 165.08 146.52 L 165.94 146.10 C 166.92 145.62 167.33 144.43 166.84 143.45 C 166.36 142.48 165.18 142.07 164.20 142.55 L 163.34 142.98 C 162.36 143.46 161.96 144.64 162.44 145.62 C 162.92 146.60 164.11 147.01 165.08 146.52 Z M 165.90 146.12 L 166.85 145.68 C 167.84 145.22 168.27 144.04 167.81 143.05 C 167.35 142.06 166.17 141.64 165.18 142.10 L 164.24 142.54 C 163.25 143.00 162.82 144.17 163.28 145.16 C 163.74 146.15 164.91 146.58 165.90 146.12 Z M 166.82 145.69 L 167.72 145.29 C 168.72 144.85 169.16 143.68 168.72 142.68 C 168.28 141.68 167.11 141.24 166.11 141.68 L 165.21 142.08 C 164.21 142.53 163.76 143.69 164.21 144.69 C 164.65 145.69 165.82 146.14 166.82 145.69 Z M 167.71 145.30 L 168.61 144.91 C 169.61 144.47 170.07 143.30 169.62 142.29 C 169.18 141.29 168.01 140.84 167.01 141.28 L 166.12 141.67 C 165.11 142.11 164.66 143.28 165.10 144.29 C 165.54 145.29 166.71 145.74 167.71 145.30 Z M 168.64 144.90 L 169.57 144.48 C 170.57 144.02 171.00 142.83 170.54 141.84 C 170.08 140.84 168.90 140.40 167.90 140.86 L 166.98 141.28 C 165.98 141.74 165.54 142.93 166.00 143.92 C 166.46 144.92 167.64 145.36 168.64 144.90 Z M 169.67 144.44 L 170.54 143.98 C 171.52 143.47 171.89 142.26 171.38 141.28 C 170.86 140.30 169.65 139.92 168.67 140.44 L 167.80 140.89 C 166.82 141.41 166.45 142.62 166.96 143.60 C 167.48 144.58 168.69 144.96 169.67 144.44 Z M 170.75 143.89 L 171.63 143.29 C 172.55 142.66 172.79 141.39 172.16 140.47 C 171.52 139.54 170.26 139.30 169.34 139.94 L 168.46 140.54 C 167.53 141.17 167.30 142.43 167.93 143.36 C 168.56 144.28 169.82 144.52 170.75 143.89 Z M 172.11 142.90 L 172.69 142.16 C 173.40 141.26 173.25 139.96 172.36 139.25 C 171.46 138.54 170.15 138.69 169.44 139.58 L 168.86 140.33 C 168.14 141.22 168.30 142.53 169.19 143.24 C 170.09 143.95 171.39 143.80 172.11 142.90 Z M 173.17 141.09 L 173.25 140.23 C 173.37 139.07 172.53 138.03 171.37 137.91 C 170.21 137.79 169.18 138.64 169.06 139.79 L 168.97 140.65 C 168.85 141.81 169.69 142.85 170.85 142.97 C 172.01 143.09 173.05 142.25 173.17 141.09 Z M 173.23 139.52 L 172.99 138.53 C 172.72 137.39 171.57 136.68 170.43 136.96 C 169.28 137.23 168.58 138.38 168.85 139.52 L 169.08 140.50 C 169.36 141.65 170.51 142.36 171.65 142.08 C 172.79 141.81 173.50 140.66 173.23 139.52 Z M 173.00 138.50 L 172.74 137.48 C 172.45 136.33 171.29 135.64 170.14 135.93 C 168.99 136.22 168.30 137.38 168.59 138.53 L 168.85 139.55 C 169.14 140.70 170.30 141.39 171.45 141.10 C 172.59 140.81 173.29 139.65 173.00 138.50 Z M 172.77 137.65 L 172.60 136.66 C 172.41 135.50 171.30 134.72 170.14 134.91 C 168.98 135.11 168.20 136.21 168.39 137.37 L 168.56 138.36 C 168.76 139.52 169.86 140.30 171.02 140.11 C 172.18 139.91 172.96 138.81 172.77 137.65 Z M 172.60 136.73 L 172.46 135.73 C 172.30 134.57 171.23 133.76 170.07 133.92 C 168.91 134.08 168.10 135.15 168.26 136.31 L 168.40 137.31 C 168.56 138.47 169.63 139.28 170.79 139.11 C 171.95 138.95 172.76 137.88 172.60 136.73 Z M 172.41 135.70 L 172.25 134.70 C 172.08 133.57 171.01 132.79 169.88 132.97 C 168.75 133.15 167.97 134.21 168.15 135.34 L 168.31 136.34 C 168.49 137.47 169.55 138.25 170.68 138.07 C 171.81 137.89 172.59 136.83 172.41 135.70 Z M 172.16 134.65 L 171.98 133.67 C 171.77 132.59 170.73 131.88 169.64 132.08 C 168.56 132.29 167.85 133.33 168.06 134.42 L 168.24 135.39 C 168.45 136.48 169.49 137.19 170.58 136.98 C 171.66 136.78 172.37 135.73 172.16 134.65 Z M 171.88 133.64 L 171.66 132.67 C 171.44 131.64 170.42 130.99 169.39 131.21 C 168.37 131.44 167.72 132.46 167.94 133.48 L 168.16 134.45 C 168.38 135.48 169.40 136.13 170.43 135.91 C 171.45 135.68 172.10 134.66 171.88 133.64 Z M 171.56 132.65 L 171.32 131.68 C 171.09 130.71 170.11 130.12 169.14 130.35 C 168.17 130.59 167.58 131.56 167.81 132.53 L 168.05 133.50 C 168.28 134.47 169.26 135.06 170.23 134.83 C 171.20 134.60 171.79 133.62 171.56 132.65 Z M 171.22 131.69 L 170.97 130.71 C 170.74 129.80 169.81 129.26 168.90 129.49 C 167.99 129.72 167.44 130.65 167.67 131.56 L 167.92 132.53 C 168.16 133.44 169.08 133.99 169.99 133.75 C 170.90 133.52 171.45 132.60 171.22 131.69 Z M 170.89 130.73 L 170.79 130.32 C 170.56 129.45 169.68 128.93 168.81 129.16 C 167.94 129.38 167.42 130.27 167.64 131.14 L 167.75 131.54 C 167.97 132.41 168.86 132.93 169.73 132.71 C 170.60 132.48 171.12 131.59 170.89 130.73 Z"
      fill="black"
      fill-rule="nonzero" /><path d="M 126.71 160.22 L 126.93 161.12 C 127.17 162.09 128.15 162.69 129.13 162.45 C 130.10 162.21 130.70 161.23 130.46 160.25 L 130.24 159.36 C 130.01 158.39 129.02 157.79 128.05 158.03 C 127.07 158.27 126.48 159.25 126.71 160.22 Z M 126.86 160.90 L 126.98 161.88 C 127.10 162.89 128.02 163.61 129.03 163.49 C 130.05 163.37 130.77 162.45 130.65 161.44 L 130.53 160.47 C 130.41 159.45 129.49 158.73 128.48 158.85 C 127.46 158.97 126.74 159.89 126.86 160.90 Z M 126.94 161.52 L 126.87 162.59 C 126.79 163.62 127.57 164.52 128.60 164.59 C 129.64 164.67 130.54 163.89 130.61 162.86 L 130.68 161.79 C 130.76 160.76 129.98 159.86 128.95 159.79 C 127.91 159.71 127.02 160.49 126.94 161.52 Z M 126.90 162.30 L 126.69 163.20 C 126.46 164.22 127.10 165.23 128.12 165.46 C 129.13 165.69 130.14 165.06 130.37 164.04 L 130.58 163.14 C 130.81 162.12 130.17 161.11 129.16 160.88 C 128.14 160.65 127.13 161.29 126.90 162.30 Z M 126.73 163.05 L 126.43 164.01 C 126.11 165.01 126.66 166.07 127.66 166.38 C 128.65 166.70 129.71 166.15 130.03 165.15 L 130.33 164.19 C 130.65 163.20 130.10 162.14 129.10 161.82 C 128.11 161.51 127.05 162.06 126.73 163.05 Z M 126.46 163.92 L 126.09 164.90 C 125.72 165.88 126.21 166.96 127.19 167.33 C 128.16 167.70 129.25 167.21 129.62 166.24 L 129.99 165.25 C 130.36 164.28 129.87 163.19 128.90 162.82 C 127.92 162.45 126.83 162.94 126.46 163.92 Z M 126.12 164.83 L 125.71 165.80 C 125.30 166.76 125.76 167.87 126.72 168.27 C 127.68 168.68 128.78 168.23 129.19 167.27 L 129.60 166.30 C 130.00 165.34 129.55 164.23 128.59 163.83 C 127.63 163.42 126.52 163.87 126.12 164.83 Z M 125.73 165.76 L 125.31 166.70 C 124.88 167.64 125.30 168.76 126.24 169.19 C 127.19 169.62 128.30 169.20 128.74 168.25 L 129.16 167.31 C 129.59 166.37 129.18 165.25 128.23 164.82 C 127.28 164.39 126.17 164.81 125.73 165.76 Z M 125.33 166.65 L 124.90 167.55 C 124.44 168.48 124.83 169.61 125.76 170.06 C 126.69 170.51 127.82 170.13 128.27 169.20 L 128.71 168.30 C 129.16 167.36 128.77 166.24 127.84 165.79 C 126.91 165.34 125.79 165.72 125.33 166.65 Z M 124.92 167.52 L 124.47 168.39 C 124.00 169.30 124.36 170.43 125.28 170.90 C 126.19 171.38 127.32 171.02 127.79 170.10 L 128.24 169.23 C 128.72 168.32 128.36 167.19 127.44 166.71 C 126.53 166.24 125.40 166.60 124.92 167.52 Z M 124.50 168.35 L 124.03 169.22 C 123.54 170.12 123.87 171.25 124.77 171.74 C 125.68 172.24 126.81 171.90 127.30 171.00 L 127.77 170.13 C 128.26 169.23 127.93 168.10 127.02 167.61 C 126.12 167.12 124.99 167.45 124.50 168.35 Z M 124.06 169.20 L 123.55 170.09 C 123.04 170.97 123.35 172.10 124.24 172.61 C 125.13 173.11 126.26 172.80 126.76 171.92 L 127.27 171.02 C 127.78 170.14 127.47 169.01 126.58 168.50 C 125.69 168.00 124.56 168.31 124.06 169.20 Z M 123.58 170.07 L 123.06 170.94 C 122.54 171.81 122.83 172.93 123.70 173.45 C 124.58 173.97 125.70 173.68 126.22 172.81 L 126.74 171.94 C 127.25 171.06 126.96 169.94 126.09 169.42 C 125.22 168.90 124.09 169.19 123.58 170.07 Z M 123.09 170.91 L 122.57 171.75 C 122.04 172.61 122.31 173.73 123.17 174.26 C 124.02 174.79 125.15 174.52 125.68 173.66 L 126.19 172.83 C 126.72 171.97 126.45 170.85 125.60 170.32 C 124.74 169.79 123.62 170.06 123.09 170.91 Z M 122.61 171.73 L 122.06 172.58 C 121.52 173.42 121.76 174.54 122.60 175.08 C 123.44 175.62 124.55 175.37 125.10 174.54 L 125.64 173.69 C 126.18 172.85 125.94 171.73 125.10 171.19 C 124.26 170.65 123.15 170.89 122.61 171.73 Z M 122.11 172.54 L 121.53 173.39 C 120.97 174.20 121.17 175.31 121.98 175.87 C 122.79 176.43 123.90 176.23 124.46 175.42 L 125.04 174.57 C 125.60 173.76 125.40 172.65 124.59 172.09 C 123.78 171.53 122.67 171.73 122.11 172.54 Z M 121.60 173.33 L 121.01 174.10 C 120.41 174.87 120.56 175.98 121.32 176.57 C 122.09 177.16 123.20 177.02 123.79 176.25 L 124.38 175.48 C 124.98 174.71 124.83 173.60 124.07 173.01 C 123.30 172.42 122.19 172.56 121.60 173.33 Z M 121.11 174.02 L 120.47 174.74 C 119.83 175.45 119.89 176.54 120.60 177.18 C 121.31 177.82 122.40 177.76 123.04 177.05 L 123.68 176.33 C 124.32 175.62 124.26 174.53 123.55 173.89 C 122.84 173.25 121.75 173.31 121.11 174.02 Z M 120.59 174.66 L 119.86 175.34 C 119.18 175.99 119.14 177.06 119.78 177.74 C 120.43 178.43 121.50 178.46 122.18 177.82 L 122.92 177.13 C 123.60 176.49 123.63 175.41 122.99 174.73 C 122.35 174.05 121.27 174.01 120.59 174.66 Z M 119.96 175.31 L 119.19 175.94 C 118.49 176.53 118.39 177.58 118.98 178.28 C 119.57 178.99 120.62 179.08 121.32 178.49 L 122.09 177.86 C 122.79 177.27 122.88 176.22 122.30 175.52 C 121.71 174.81 120.66 174.72 119.96 175.31 Z M 119.24 175.94 L 118.74 176.34 C 118.03 176.90 117.92 177.93 118.48 178.64 C 119.04 179.34 120.07 179.46 120.77 178.89 L 121.27 178.50 C 121.98 177.93 122.10 176.91 121.53 176.20 C 120.97 175.50 119.94 175.38 119.24 175.94 Z"
      fill="black"
      fill-rule="nonzero" /><path d="M 133.16 164.68 L 132.29 165.34 C 131.43 165.99 131.26 167.23 131.91 168.09 C 132.57 168.95 133.80 169.12 134.66 168.47 L 135.53 167.81 C 136.39 167.16 136.56 165.93 135.91 165.06 C 135.25 164.20 134.02 164.03 133.16 164.68 Z M 131.83 165.79 L 131.33 166.54 C 130.71 167.45 130.95 168.68 131.87 169.30 C 132.78 169.91 134.01 169.67 134.63 168.76 L 135.13 168.02 C 135.74 167.10 135.50 165.87 134.59 165.25 C 133.68 164.64 132.44 164.88 131.83 165.79 Z M 130.98 167.87 L 131.06 168.61 C 131.18 169.71 132.18 170.51 133.28 170.39 C 134.39 170.26 135.18 169.27 135.06 168.17 L 134.98 167.43 C 134.85 166.32 133.86 165.53 132.76 165.65 C 131.65 165.77 130.86 166.76 130.98 167.87 Z M 131.33 169.44 L 131.87 170.32 C 132.45 171.28 133.70 171.58 134.65 171.00 C 135.61 170.42 135.91 169.17 135.33 168.22 L 134.79 167.33 C 134.21 166.38 132.96 166.08 132.01 166.66 C 131.05 167.24 130.75 168.49 131.33 169.44 Z M 132.07 170.61 L 132.81 171.45 C 133.55 172.30 134.83 172.38 135.68 171.64 C 136.52 170.90 136.61 169.61 135.87 168.77 L 135.13 167.93 C 134.39 167.08 133.10 167.00 132.26 167.74 C 131.41 168.48 131.33 169.77 132.07 170.61 Z M 132.89 171.55 L 133.54 172.20 C 134.34 172.99 135.63 172.99 136.42 172.20 C 137.22 171.40 137.22 170.11 136.42 169.31 L 135.78 168.67 C 134.98 167.87 133.69 167.87 132.89 168.67 C 132.10 169.47 132.10 170.76 132.89 171.55 Z M 133.59 172.25 L 134.32 172.93 C 135.15 173.70 136.44 173.65 137.20 172.83 C 137.97 172.00 137.93 170.71 137.10 169.94 L 136.37 169.26 C 135.55 168.49 134.25 168.54 133.49 169.36 C 132.72 170.19 132.77 171.48 133.59 172.25 Z M 134.36 172.97 L 135.15 173.67 C 136.00 174.41 137.29 174.33 138.04 173.49 C 138.78 172.64 138.70 171.35 137.86 170.61 L 137.06 169.91 C 136.22 169.16 134.93 169.24 134.18 170.08 C 133.43 170.93 133.52 172.22 134.36 172.97 Z M 135.19 173.70 L 136.02 174.40 C 136.88 175.13 138.17 175.02 138.90 174.16 C 139.63 173.30 139.52 172.01 138.66 171.28 L 137.82 170.58 C 136.96 169.85 135.67 169.96 134.95 170.82 C 134.22 171.68 134.32 172.97 135.19 173.70 Z M 136.05 174.43 L 136.86 175.09 C 137.74 175.81 139.03 175.67 139.74 174.80 C 140.45 173.92 140.32 172.64 139.45 171.92 L 138.63 171.26 C 137.76 170.54 136.47 170.67 135.76 171.55 C 135.04 172.42 135.17 173.71 136.05 174.43 Z M 136.89 175.11 L 137.70 175.76 C 138.59 176.46 139.87 176.30 140.57 175.42 C 141.27 174.53 141.12 173.24 140.24 172.54 L 139.42 171.90 C 138.54 171.20 137.25 171.35 136.55 172.24 C 135.85 173.13 136.00 174.41 136.89 175.11 Z M 137.72 175.78 L 138.53 176.39 C 139.43 177.08 140.71 176.91 141.40 176.01 C 142.09 175.11 141.92 173.82 141.02 173.14 L 140.21 172.52 C 139.31 171.83 138.03 172.01 137.34 172.90 C 136.65 173.80 136.82 175.09 137.72 175.78 Z M 138.55 176.41 L 139.33 176.99 C 140.25 177.67 141.53 177.47 142.20 176.56 C 142.88 175.65 142.69 174.37 141.77 173.69 L 140.99 173.11 C 140.08 172.44 138.80 172.63 138.12 173.54 C 137.45 174.45 137.64 175.74 138.55 176.41 Z M 139.36 177.01 L 140.14 177.57 C 141.06 178.23 142.34 178.01 143.00 177.09 C 143.66 176.17 143.45 174.88 142.52 174.23 L 141.75 173.67 C 140.83 173.01 139.54 173.23 138.88 174.15 C 138.22 175.07 138.44 176.35 139.36 177.01 Z M 140.17 177.59 L 141.05 178.19 C 141.99 178.83 143.27 178.59 143.91 177.65 C 144.55 176.72 144.30 175.44 143.37 174.80 L 142.49 174.20 C 141.55 173.56 140.27 173.80 139.63 174.74 C 138.99 175.68 139.23 176.95 140.17 177.59 Z M 141.10 178.22 L 141.94 178.76 C 142.89 179.38 144.16 179.10 144.78 178.15 C 145.39 177.19 145.11 175.92 144.16 175.31 L 143.32 174.77 C 142.36 174.15 141.09 174.43 140.48 175.39 C 139.87 176.34 140.14 177.61 141.10 178.22 Z M 141.99 178.80 L 142.81 179.29 C 143.79 179.87 145.05 179.56 145.63 178.59 C 146.22 177.61 145.90 176.35 144.93 175.77 L 144.11 175.27 C 143.13 174.69 141.87 175.01 141.29 175.98 C 140.70 176.95 141.02 178.21 141.99 178.80 Z M 142.87 179.32 L 143.71 179.79 C 144.70 180.34 145.95 179.99 146.50 179.00 C 147.05 178.01 146.70 176.76 145.71 176.20 L 144.87 175.74 C 143.88 175.18 142.63 175.54 142.08 176.53 C 141.52 177.52 141.88 178.77 142.87 179.32 Z M 143.76 179.82 L 144.64 180.28 C 145.65 180.80 146.89 180.41 147.41 179.40 C 147.93 178.40 147.54 177.16 146.54 176.63 L 145.66 176.17 C 144.65 175.65 143.41 176.04 142.89 177.05 C 142.36 178.06 142.75 179.30 143.76 179.82 Z M 144.69 180.30 L 145.59 180.74 C 146.61 181.23 147.84 180.81 148.34 179.79 C 148.83 178.77 148.41 177.54 147.38 177.04 L 146.48 176.61 C 145.46 176.11 144.24 176.54 143.74 177.56 C 143.25 178.58 143.67 179.81 144.69 180.30 Z M 145.64 180.76 L 146.56 181.18 C 147.59 181.64 148.81 181.19 149.27 180.16 C 149.74 179.12 149.29 177.91 148.25 177.44 L 147.34 177.02 C 146.30 176.55 145.09 177.01 144.62 178.04 C 144.15 179.08 144.61 180.29 145.64 180.76 Z M 146.60 181.20 L 147.54 181.59 C 148.58 182.04 149.79 181.55 150.23 180.51 C 150.67 179.47 150.19 178.26 149.15 177.82 L 148.21 177.42 C 147.17 176.98 145.96 177.46 145.52 178.50 C 145.07 179.55 145.56 180.75 146.60 181.20 Z M 147.58 181.61 L 148.53 181.99 C 149.58 182.41 150.78 181.89 151.19 180.84 C 151.61 179.79 151.10 178.60 150.05 178.18 L 149.10 177.80 C 148.05 177.38 146.86 177.90 146.44 178.95 C 146.02 180.00 146.53 181.19 147.58 181.61 Z M 148.58 182.01 L 149.52 182.35 C 150.58 182.74 151.76 182.20 152.15 181.14 C 152.54 180.08 152.00 178.90 150.94 178.51 L 150.00 178.16 C 148.94 177.77 147.76 178.31 147.37 179.37 C 146.98 180.44 147.52 181.61 148.58 182.01 Z M 149.58 182.37 L 150.49 182.68 C 151.56 183.04 152.72 182.46 153.08 181.39 C 153.44 180.32 152.87 179.16 151.80 178.80 L 150.88 178.49 C 149.81 178.13 148.65 178.70 148.29 179.78 C 147.93 180.85 148.50 182.01 149.58 182.37 Z M 150.56 182.70 L 151.58 183.00 C 152.66 183.32 153.80 182.71 154.12 181.62 C 154.45 180.54 153.83 179.40 152.75 179.08 L 151.73 178.78 C 150.65 178.45 149.51 179.07 149.18 180.15 C 148.86 181.24 149.48 182.38 150.56 182.70 Z M 151.64 183.02 L 152.61 183.27 C 153.71 183.56 154.83 182.91 155.11 181.81 C 155.40 180.72 154.74 179.60 153.65 179.31 L 152.68 179.06 C 151.59 178.77 150.47 179.43 150.18 180.52 C 149.89 181.62 150.55 182.73 151.64 183.02 Z M 152.66 183.29 L 153.59 183.50 C 154.69 183.76 155.79 183.08 156.05 181.98 C 156.31 180.88 155.62 179.77 154.52 179.51 L 153.60 179.30 C 152.50 179.04 151.39 179.73 151.14 180.83 C 150.88 181.93 151.56 183.03 152.66 183.29 Z M 153.63 183.52 L 154.63 183.73 C 155.74 183.97 156.83 183.26 157.07 182.15 C 157.31 181.04 156.60 179.95 155.49 179.72 L 154.48 179.50 C 153.37 179.27 152.28 179.97 152.04 181.08 C 151.81 182.19 152.52 183.28 153.63 183.52 Z M 154.68 183.75 L 155.65 183.94 C 156.77 184.15 157.85 183.41 158.07 182.30 C 158.28 181.18 157.54 180.10 156.42 179.88 L 155.45 179.70 C 154.33 179.49 153.25 180.22 153.04 181.34 C 152.82 182.46 153.56 183.54 154.68 183.75 Z M 155.70 183.96 L 156.66 184.11 C 157.79 184.30 158.86 183.53 159.04 182.40 C 159.23 181.27 158.46 180.21 157.33 180.02 L 156.37 179.86 C 155.24 179.68 154.18 180.44 153.99 181.57 C 153.81 182.70 154.57 183.77 155.70 183.96 Z M 156.72 184.14 L 157.72 184.27 C 158.87 184.43 159.92 183.62 160.07 182.48 C 160.22 181.33 159.42 180.28 158.28 180.13 L 157.27 180.00 C 156.13 179.84 155.08 180.65 154.92 181.79 C 154.77 182.94 155.58 183.99 156.72 184.14 Z M 157.81 184.30 L 158.79 184.39 C 159.95 184.50 160.97 183.65 161.08 182.49 C 161.19 181.33 160.34 180.30 159.18 180.19 L 158.20 180.10 C 157.04 179.99 156.01 180.85 155.90 182.01 C 155.79 183.17 156.64 184.19 157.81 184.30 Z M 158.90 184.42 L 159.91 184.46 C 161.09 184.50 162.07 183.58 162.12 182.41 C 162.16 181.23 161.24 180.25 160.07 180.20 L 159.06 180.16 C 157.88 180.12 156.90 181.04 156.85 182.21 C 156.81 183.39 157.73 184.38 158.90 184.42 Z M 160.16 184.47 L 161.15 184.39 C 162.33 184.30 163.21 183.26 163.12 182.08 C 163.03 180.90 161.99 180.02 160.81 180.11 L 159.82 180.19 C 158.64 180.28 157.75 181.32 157.85 182.50 C 157.94 183.68 158.98 184.56 160.16 184.47 Z M 161.58 184.33 L 162.54 184.06 C 163.69 183.73 164.35 182.53 164.02 181.38 C 163.69 180.23 162.49 179.56 161.34 179.89 L 160.38 180.17 C 159.23 180.50 158.57 181.70 158.90 182.85 C 159.23 184.00 160.43 184.66 161.58 184.33 Z M 163.12 183.81 L 163.95 183.27 C 164.97 182.62 165.26 181.27 164.60 180.26 C 163.95 179.24 162.60 178.95 161.59 179.61 L 160.76 180.14 C 159.74 180.80 159.45 182.15 160.11 183.16 C 160.76 184.17 162.11 184.46 163.12 183.81 Z M 164.60 182.66 L 165.12 181.88 C 165.79 180.87 165.52 179.50 164.51 178.83 C 163.50 178.16 162.14 178.43 161.46 179.44 L 160.94 180.22 C 160.27 181.23 160.54 182.59 161.55 183.27 C 162.56 183.94 163.93 183.67 164.60 182.66 Z M 165.47 181.05 L 165.64 180.12 C 165.86 178.91 165.06 177.76 163.85 177.54 C 162.65 177.33 161.49 178.13 161.28 179.33 L 161.11 180.27 C 160.89 181.47 161.69 182.62 162.90 182.84 C 164.10 183.06 165.26 182.26 165.47 181.05 Z M 165.68 179.42 L 165.53 178.35 C 165.36 177.13 164.23 176.27 163.01 176.44 C 161.78 176.61 160.93 177.74 161.09 178.96 L 161.24 180.03 C 161.41 181.25 162.54 182.11 163.76 181.94 C 164.99 181.78 165.84 180.65 165.68 179.42 Z M 165.42 177.87 L 165.08 176.96 C 164.64 175.80 163.35 175.21 162.18 175.65 C 161.02 176.08 160.43 177.38 160.87 178.54 L 161.21 179.45 C 161.64 180.61 162.94 181.20 164.10 180.76 C 165.27 180.33 165.86 179.03 165.42 177.87 Z M 164.96 176.70 L 164.48 175.80 C 163.90 174.71 162.54 174.29 161.44 174.87 C 160.34 175.46 159.93 176.82 160.51 177.92 L 160.99 178.81 C 161.57 179.91 162.93 180.32 164.03 179.74 C 165.13 179.16 165.54 177.79 164.96 176.70 Z M 164.39 175.65 L 163.84 174.78 C 163.17 173.74 161.78 173.43 160.73 174.10 C 159.69 174.77 159.38 176.16 160.05 177.21 L 160.60 178.07 C 161.27 179.12 162.66 179.43 163.71 178.76 C 164.76 178.09 165.06 176.70 164.39 175.65 Z M 163.74 174.72 L 163.13 173.86 C 162.42 172.87 161.05 172.64 160.06 173.34 C 159.07 174.04 158.83 175.42 159.54 176.41 L 160.15 177.27 C 160.86 178.26 162.23 178.49 163.22 177.79 C 164.21 177.08 164.44 175.71 163.74 174.72 Z M 162.98 173.85 L 162.36 173.05 C 161.65 172.14 160.34 171.98 159.43 172.69 C 158.52 173.40 158.35 174.71 159.06 175.62 L 159.68 176.42 C 160.39 177.33 161.71 177.49 162.62 176.78 C 163.53 176.07 163.69 174.76 162.98 173.85 Z M 162.21 173.06 L 161.60 172.34 C 160.89 171.51 159.64 171.41 158.82 172.12 C 157.99 172.83 157.89 174.08 158.60 174.90 L 159.22 175.62 C 159.92 176.45 161.17 176.54 161.99 175.84 C 162.82 175.13 162.92 173.88 162.21 173.06 Z M 161.44 172.34 L 160.74 171.60 C 160.03 170.86 158.86 170.83 158.12 171.54 C 157.38 172.24 157.35 173.41 158.05 174.16 L 158.75 174.90 C 159.46 175.64 160.63 175.67 161.37 174.96 C 162.12 174.26 162.15 173.09 161.44 172.34 Z M 160.59 171.62 L 159.88 170.94 C 159.18 170.28 158.08 170.31 157.42 171.00 C 156.76 171.70 156.79 172.80 157.48 173.46 L 158.20 174.14 C 158.89 174.80 160.00 174.77 160.66 174.08 C 161.32 173.38 161.29 172.28 160.59 171.62 Z M 159.76 170.96 L 159.02 170.32 C 158.34 169.72 157.30 169.79 156.70 170.47 C 156.10 171.16 156.17 172.20 156.86 172.80 L 157.60 173.44 C 158.28 174.04 159.32 173.97 159.92 173.28 C 160.52 172.60 160.45 171.56 159.76 170.96 Z M 158.96 170.32 L 158.19 169.69 C 157.51 169.13 156.50 169.22 155.94 169.90 C 155.38 170.58 155.47 171.59 156.15 172.15 L 156.92 172.79 C 157.60 173.35 158.61 173.25 159.17 172.57 C 159.73 171.89 159.64 170.89 158.96 170.32 Z M 158.16 169.69 L 157.40 169.09 C 156.73 168.54 155.74 168.65 155.19 169.33 C 154.65 170.00 154.75 170.99 155.43 171.54 L 156.18 172.15 C 156.86 172.69 157.85 172.58 158.40 171.91 C 158.94 171.23 158.83 170.24 158.16 169.69 Z"
      fill="black"
      fill-rule="nonzero" /><path d="M 147.21 159.79 L 147.99 160.37 C 148.77 160.96 149.88 160.81 150.47 160.03 C 151.06 159.25 150.90 158.14 150.12 157.55 L 149.35 156.97 C 148.57 156.38 147.46 156.53 146.87 157.31 C 146.28 158.09 146.44 159.20 147.21 159.79 Z M 148.06 160.55 L 148.90 161.07 C 149.78 161.62 150.93 161.36 151.48 160.48 C 152.03 159.61 151.76 158.45 150.89 157.91 L 150.05 157.38 C 149.17 156.83 148.02 157.09 147.47 157.97 C 146.92 158.84 147.19 160.00 148.06 160.55 Z M 149.13 161.28 L 150.06 161.68 C 151.05 162.10 152.19 161.64 152.62 160.65 C 153.04 159.66 152.58 158.52 151.59 158.09 L 150.66 157.70 C 149.67 157.27 148.53 157.73 148.10 158.72 C 147.68 159.71 148.14 160.86 149.13 161.28 Z M 150.32 161.78 L 151.24 162.03 C 152.29 162.30 153.37 161.68 153.64 160.63 C 153.92 159.58 153.29 158.51 152.25 158.23 L 151.32 157.99 C 150.28 157.71 149.20 158.34 148.93 159.39 C 148.65 160.43 149.27 161.51 150.32 161.78 Z M 151.41 162.03 L 152.41 162.21 C 153.46 162.39 154.46 161.69 154.64 160.65 C 154.83 159.60 154.13 158.59 153.08 158.41 L 152.08 158.23 C 151.03 158.04 150.03 158.74 149.85 159.79 C 149.66 160.84 150.36 161.84 151.41 162.03 Z M 152.48 162.18 L 153.52 162.33 C 154.56 162.47 155.52 161.75 155.66 160.71 C 155.81 159.68 155.08 158.72 154.05 158.57 L 153.01 158.43 C 151.97 158.28 151.01 159.01 150.87 160.05 C 150.72 161.08 151.45 162.04 152.48 162.18 Z M 153.54 162.31 L 153.61 162.32 C 154.64 162.46 155.59 161.74 155.72 160.71 C 155.86 159.68 155.13 158.74 154.11 158.60 L 154.03 158.59 C 153.00 158.45 152.06 159.18 151.93 160.21 C 151.79 161.23 152.51 162.18 153.54 162.31 Z"
      fill="black"
      fill-rule="nonzero" /><path d="M 164.39 162.37 L 165.16 162.96 C 165.95 163.58 167.10 163.44 167.72 162.65 C 168.34 161.85 168.20 160.70 167.40 160.08 L 166.64 159.48 C 165.84 158.86 164.70 159.01 164.07 159.80 C 163.45 160.60 163.60 161.74 164.39 162.37 Z M 165.16 163.04 L 165.95 163.63 C 166.79 164.25 167.97 164.07 168.59 163.24 C 169.21 162.40 169.04 161.22 168.20 160.60 L 167.41 160.01 C 166.57 159.39 165.39 159.56 164.77 160.40 C 164.14 161.24 164.32 162.42 165.16 163.04 Z M 165.99 163.73 L 166.85 164.31 C 167.74 164.91 168.95 164.67 169.55 163.78 C 170.15 162.89 169.92 161.68 169.02 161.08 L 168.17 160.50 C 167.27 159.90 166.06 160.13 165.46 161.03 C 164.86 161.92 165.10 163.13 165.99 163.73 Z M 166.93 164.38 L 167.77 164.88 C 168.70 165.44 169.91 165.14 170.47 164.21 C 171.02 163.28 170.72 162.07 169.79 161.52 L 168.95 161.01 C 168.02 160.45 166.81 160.75 166.25 161.68 C 165.70 162.61 166.00 163.82 166.93 164.38 Z M 167.84 164.89 L 168.73 165.38 C 169.66 165.90 170.84 165.57 171.36 164.63 C 171.88 163.70 171.54 162.52 170.61 162.00 L 169.73 161.51 C 168.79 160.99 167.61 161.32 167.09 162.26 C 166.57 163.19 166.91 164.37 167.84 164.89 Z M 168.76 165.37 L 169.64 165.85 C 170.56 166.35 171.72 166.01 172.23 165.08 C 172.73 164.16 172.39 163.00 171.46 162.50 L 170.58 162.02 C 169.65 161.51 168.50 161.86 167.99 162.78 C 167.49 163.71 167.83 164.86 168.76 165.37 Z M 169.65 165.80 L 170.54 166.30 C 171.44 166.80 172.57 166.47 173.07 165.57 C 173.57 164.68 173.25 163.54 172.35 163.04 L 171.46 162.55 C 170.56 162.05 169.42 162.37 168.92 163.27 C 168.42 164.17 168.75 165.30 169.65 165.80 Z M 170.55 166.22 L 171.42 166.73 C 172.28 167.22 173.38 166.93 173.87 166.07 C 174.37 165.21 174.07 164.11 173.21 163.62 L 172.34 163.11 C 171.48 162.62 170.38 162.91 169.89 163.77 C 169.39 164.63 169.69 165.73 170.55 166.22 Z M 171.44 166.65 L 172.29 167.15 C 173.10 167.63 174.16 167.36 174.64 166.54 C 175.12 165.72 174.85 164.67 174.03 164.19 L 173.19 163.69 C 172.37 163.21 171.32 163.48 170.83 164.30 C 170.35 165.12 170.62 166.17 171.44 166.65 Z M 172.31 167.10 L 172.64 167.30 C 173.43 167.77 174.45 167.51 174.92 166.71 C 175.39 165.92 175.13 164.90 174.34 164.43 L 174.01 164.23 C 173.22 163.76 172.19 164.02 171.72 164.82 C 171.25 165.61 171.51 166.63 172.31 167.10 Z"
      fill="black"
      fill-rule="nonzero" /></svg>