<svg xmlns="http://www.w3.org/2000/svg" width="300" height="300" viewBox="0 0 300 300">
<path d="M 128.25 131.28 L 127.29 132.19 C 126.60 132.84 126.57 133.92 127.21 134.61 C 127.86 135.30 128.95 135.33 129.63 134.68 L 130.60 133.77 C 131.29 133.13 131.32 132.04 130.67 131.35 C 130.02 130.67 128.94 130.63 128.25 131.28 Z M 127.16 132.16 L 126.41 132.93 C 125.70 133.65 125.71 134.80 126.43 135.51 C 127.15 136.21 128.30 136.20 129.00 135.48 L 129.76 134.71 C 130.46 133.99 130.45 132.84 129.73 132.14 C 129.02 131.43 127.86 131.45 127.16 132.16 Z M 126.11 133.13 L 125.77 133.62 C 125.18 134.50 125.41 135.70 126.29 136.30 C 127.17 136.90 128.37 136.67 128.97 135.78 L 129.30 135.29 C 129.90 134.41 129.67 133.21 128.79 132.61 C 127.90 132.01 126.71 132.24 126.11 133.13 Z M 126.86 136.63 L 127.21 136.72 C 128.27 137.01 129.36 136.37 129.65 135.31 C 129.93 134.24 129.30 133.15 128.23 132.87 L 127.88 132.77 C 126.82 132.49 125.72 133.13 125.44 134.19 C 125.16 135.26 125.79 136.35 126.86 136.63 Z M 128.43 136.69 L 129.46 136.30 C 130.51 135.91 131.04 134.74 130.64 133.70 C 130.25 132.65 129.09 132.13 128.04 132.52 L 127.01 132.91 C 125.97 133.30 125.44 134.46 125.83 135.50 C 126.22 136.55 127.38 137.08 128.43 136.69 Z M 129.66 136.23 L 130.84 135.65 C 131.85 135.15 132.26 133.92 131.76 132.92 C 131.26 131.91 130.03 131.50 129.03 132.00 L 127.85 132.58 C 126.84 133.08 126.43 134.31 126.93 135.31 C 127.43 136.32 128.65 136.73 129.66 136.23 Z M 130.91 135.61 L 131.80 135.13 C 132.79 134.59 133.16 133.35 132.61 132.36 C 132.07 131.37 130.83 131.00 129.84 131.54 L 128.95 132.03 C 127.96 132.57 127.60 133.81 128.14 134.80 C 128.68 135.79 129.92 136.16 130.91 135.61 Z M 131.83 135.11 L 132.75 134.59 C 133.73 134.03 134.07 132.78 133.51 131.80 C 132.95 130.82 131.70 130.48 130.72 131.04 L 129.81 131.56 C 128.83 132.12 128.49 133.37 129.05 134.35 C 129.61 135.33 130.85 135.67 131.83 135.11 Z M 132.77 134.58 L 133.66 134.05 C 134.64 133.48 134.96 132.23 134.39 131.26 C 133.82 130.29 132.57 129.96 131.60 130.53 L 130.71 131.05 C 129.73 131.62 129.40 132.87 129.97 133.84 C 130.54 134.82 131.79 135.15 132.77 134.58 Z M 133.67 134.05 L 134.49 133.56 C 135.46 132.99 135.78 131.74 135.21 130.76 C 134.64 129.79 133.38 129.47 132.41 130.05 L 131.59 130.53 C 130.62 131.11 130.30 132.36 130.87 133.33 C 131.45 134.30 132.70 134.62 133.67 134.05 Z M 134.49 133.56 L 135.42 133.01 C 136.39 132.44 136.71 131.19 136.14 130.22 C 135.56 129.25 134.31 128.93 133.34 129.50 L 132.42 130.05 C 131.45 130.62 131.12 131.87 131.70 132.84 C 132.27 133.81 133.52 134.13 134.49 133.56 Z M 135.41 133.01 L 136.25 132.51 C 137.22 131.95 137.54 130.70 136.98 129.74 C 136.41 128.77 135.17 128.44 134.20 129.01 L 133.35 129.51 C 132.39 130.07 132.06 131.32 132.63 132.28 C 133.19 133.25 134.44 133.58 135.41 133.01 Z M 136.25 132.50 L 137.04 132.04 C 138.00 131.47 138.32 130.23 137.76 129.27 C 137.19 128.31 135.95 127.99 134.99 128.56 L 134.20 129.02 C 133.24 129.59 132.92 130.83 133.48 131.79 C 134.05 132.75 135.29 133.07 136.25 132.50 Z M 137.05 132.02 L 137.81 131.56 C 138.77 130.99 139.07 129.76 138.50 128.80 C 137.93 127.85 136.70 127.54 135.75 128.11 L 134.98 128.57 C 134.03 129.14 133.72 130.38 134.29 131.33 C 134.86 132.28 136.10 132.59 137.05 132.02 Z M 137.82 131.55 L 138.59 131.08 C 139.54 130.50 139.83 129.27 139.26 128.32 C 138.68 127.38 137.45 127.08 136.50 127.66 L 135.73 128.13 C 134.79 128.71 134.49 129.94 135.07 130.88 C 135.65 131.83 136.88 132.12 137.82 131.55 Z M 138.60 131.06 L 139.46 130.53 C 140.39 129.95 140.68 128.72 140.09 127.78 C 139.51 126.85 138.28 126.56 137.34 127.14 L 136.49 127.68 C 135.56 128.26 135.27 129.49 135.86 130.42 C 136.44 131.36 137.67 131.64 138.60 131.06 Z M 139.47 130.51 L 140.40 129.92 C 141.32 129.33 141.60 128.10 141.01 127.18 C 140.42 126.25 139.19 125.98 138.26 126.57 L 137.33 127.16 C 136.41 127.75 136.13 128.98 136.72 129.90 C 137.31 130.83 138.54 131.10 139.47 130.51 Z M 140.41 129.90 L 141.32 129.31 C 142.24 128.72 142.50 127.49 141.90 126.58 C 141.31 125.66 140.08 125.40 139.16 125.99 L 138.25 126.59 C 137.34 127.18 137.08 128.41 137.67 129.32 C 138.27 130.24 139.49 130.50 140.41 129.90 Z M 141.32 129.29 L 142.18 128.73 C 143.08 128.13 143.33 126.91 142.73 126.01 C 142.14 125.10 140.92 124.86 140.01 125.45 L 139.16 126.02 C 138.26 126.61 138.01 127.83 138.60 128.73 C 139.20 129.64 140.42 129.89 141.32 129.29 Z M 142.17 128.71 L 143.04 128.13 C 143.93 127.53 144.17 126.33 143.57 125.43 C 142.97 124.54 141.77 124.30 140.87 124.90 L 140.01 125.47 C 139.12 126.07 138.88 127.28 139.48 128.17 C 140.08 129.06 141.28 129.30 142.17 128.71 Z M 143.03 128.11 L 143.88 127.54 C 144.76 126.94 144.99 125.75 144.39 124.87 C 143.80 123.99 142.60 123.75 141.72 124.35 L 140.88 124.92 C 140.00 125.52 139.77 126.71 140.36 127.59 C 140.96 128.47 142.15 128.70 143.03 128.11 Z M 143.87 127.52 L 144.68 126.97 C 145.54 126.38 145.77 125.19 145.17 124.32 C 144.58 123.45 143.39 123.23 142.52 123.82 L 141.72 124.37 C 140.85 124.96 140.63 126.15 141.23 127.02 C 141.82 127.89 143.01 128.11 143.87 127.52 Z M 144.67 126.94 L 145.53 126.34 C 146.38 125.75 146.59 124.59 146.00 123.73 C 145.41 122.88 144.24 122.67 143.39 123.26 L 142.53 123.85 C 141.68 124.44 141.47 125.61 142.06 126.47 C 142.65 127.32 143.82 127.53 144.67 126.94 Z M 145.51 126.29 L 146.38 125.68 C 147.21 125.10 147.40 123.96 146.82 123.14 C 146.24 122.31 145.10 122.11 144.28 122.70 L 143.41 123.31 C 142.58 123.89 142.39 125.03 142.97 125.85 C 143.55 126.68 144.69 126.88 145.51 126.29 Z M 146.36 125.62 L 147.14 125.06 C 147.93 124.49 148.11 123.39 147.54 122.60 C 146.97 121.80 145.87 121.62 145.08 122.19 L 144.30 122.75 C 143.51 123.32 143.33 124.43 143.90 125.22 C 144.47 126.01 145.57 126.19 146.36 125.62 Z M 147.12 125.00 L 147.85 124.47 C 148.61 123.91 148.77 122.84 148.21 122.08 C 147.65 121.32 146.58 121.16 145.82 121.72 L 145.10 122.25 C 144.34 122.81 144.17 123.88 144.73 124.64 C 145.29 125.40 146.36 125.56 147.12 125.00 Z M 147.83 124.42 L 148.62 123.83 C 149.36 123.28 149.50 122.23 148.95 121.50 C 148.40 120.77 147.36 120.62 146.62 121.17 L 145.84 121.76 C 145.10 122.32 144.96 123.36 145.51 124.09 C 146.06 124.83 147.10 124.97 147.83 124.42 Z M 148.62 123.80 L 149.41 123.19 C 150.13 122.64 150.26 121.62 149.71 120.90 C 149.17 120.18 148.14 120.05 147.43 120.60 L 146.63 121.20 C 145.92 121.75 145.78 122.78 146.33 123.49 C 146.88 124.21 147.90 124.34 148.62 123.80 Z M 149.40 123.16 L 150.19 122.55 C 150.89 122.01 151.02 121.00 150.48 120.30 C 149.94 119.60 148.93 119.47 148.23 120.01 L 147.44 120.62 C 146.74 121.16 146.61 122.17 147.15 122.87 C 147.69 123.57 148.70 123.70 149.40 123.16 Z M 150.18 122.53 L 150.47 122.31 C 151.16 121.77 151.29 120.78 150.75 120.08 C 150.22 119.39 149.22 119.27 148.53 119.80 L 148.24 120.03 C 147.55 120.56 147.42 121.56 147.96 122.25 C 148.49 122.94 149.49 123.07 150.18 122.53 Z"
      fill="black"
      fill-rule="nonzero" /><path d="M 138.17 110.45 L 138.11 111.53 C 138.07 112.46 138.78 113.25 139.71 113.29 C 140.64 113.34 141.43 112.62 141.48 111.69 L 141.53 110.62 C 141.57 109.69 140.86 108.90 139.93 108.85 C 139.00 108.81 138.21 109.53 138.17 110.45 Z M 137.99 111.52 L 137.93 112.56 C 137.88 113.56 138.65 114.41 139.65 114.46 C 140.65 114.51 141.50 113.75 141.55 112.75 L 141.60 111.71 C 141.65 110.71 140.89 109.86 139.89 109.81 C 138.89 109.75 138.04 110.52 137.99 111.52 Z M 137.81 112.54 L 137.75 113.51 C 137.69 114.58 138.50 115.49 139.57 115.56 C 140.64 115.62 141.55 114.81 141.62 113.74 L 141.67 112.77 C 141.74 111.70 140.92 110.79 139.86 110.72 C 138.79 110.66 137.87 111.47 137.81 112.54 Z M 137.64 113.48 L 137.57 114.42 C 137.49 115.55 138.34 116.53 139.46 116.61 C 140.59 116.69 141.58 115.85 141.66 114.72 L 141.73 113.77 C 141.81 112.65 140.96 111.66 139.83 111.58 C 138.70 111.50 137.72 112.35 137.64 113.48 Z M 137.52 114.37 L 137.42 115.41 C 137.31 116.57 138.16 117.59 139.32 117.70 C 140.47 117.81 141.50 116.96 141.61 115.81 L 141.71 114.77 C 141.82 113.61 140.97 112.59 139.81 112.48 C 138.66 112.37 137.63 113.21 137.52 114.37 Z M 137.42 115.39 L 137.32 116.32 C 137.20 117.48 138.04 118.52 139.19 118.64 C 140.35 118.76 141.39 117.92 141.51 116.76 L 141.61 115.83 C 141.74 114.67 140.90 113.64 139.74 113.51 C 138.58 113.39 137.54 114.23 137.42 115.39 Z M 137.31 116.35 L 137.23 117.26 C 137.12 118.42 137.98 119.45 139.14 119.56 C 140.30 119.66 141.33 118.81 141.44 117.64 L 141.52 116.73 C 141.63 115.57 140.77 114.54 139.61 114.44 C 138.45 114.33 137.42 115.18 137.31 116.35 Z M 137.22 117.29 L 137.15 118.26 C 137.06 119.42 137.93 120.44 139.10 120.53 C 140.26 120.62 141.28 119.74 141.37 118.58 L 141.44 117.61 C 141.53 116.45 140.66 115.43 139.49 115.34 C 138.33 115.25 137.31 116.12 137.22 117.29 Z M 137.15 118.27 L 137.07 119.33 C 136.99 120.50 137.87 121.51 139.03 121.60 C 140.20 121.68 141.21 120.80 141.30 119.63 L 141.37 118.57 C 141.45 117.40 140.58 116.39 139.41 116.30 C 138.24 116.22 137.23 117.10 137.15 118.27 Z M 137.07 119.33 L 137.00 120.26 C 136.92 121.43 137.80 122.45 138.96 122.53 C 140.13 122.62 141.14 121.74 141.23 120.57 L 141.30 119.64 C 141.38 118.47 140.50 117.45 139.34 117.37 C 138.17 117.28 137.15 118.16 137.07 119.33 Z M 137.00 120.26 L 136.93 121.22 C 136.85 122.39 137.73 123.40 138.90 123.48 C 140.06 123.57 141.08 122.69 141.16 121.52 L 141.23 120.57 C 141.31 119.40 140.44 118.39 139.27 118.30 C 138.10 118.22 137.08 119.10 137.00 120.26 Z M 136.93 121.23 L 136.86 122.26 C 136.78 123.42 137.67 124.44 138.83 124.51 C 140.00 124.59 141.02 123.71 141.09 122.54 L 141.16 121.51 C 141.24 120.34 140.36 119.33 139.19 119.25 C 138.02 119.17 137.01 120.06 136.93 121.23 Z M 136.86 122.27 L 136.79 123.37 C 136.72 124.54 137.61 125.54 138.78 125.61 C 139.95 125.68 140.96 124.79 141.03 123.62 L 141.10 122.53 C 141.17 121.36 140.27 120.35 139.10 120.28 C 137.93 120.21 136.93 121.10 136.86 122.27 Z M 136.79 123.38 L 136.74 124.28 C 136.68 125.45 137.58 126.45 138.75 126.51 C 139.92 126.57 140.92 125.67 140.99 124.50 L 141.03 123.60 C 141.09 122.43 140.19 121.43 139.02 121.37 C 137.85 121.31 136.85 122.21 136.79 123.38 Z M 136.74 124.29 L 136.70 125.24 C 136.64 126.41 137.55 127.41 138.72 127.46 C 139.89 127.52 140.89 126.62 140.94 125.44 L 140.99 124.49 C 141.04 123.32 140.14 122.33 138.97 122.27 C 137.79 122.22 136.80 123.12 136.74 124.29 Z M 136.70 125.25 L 136.65 126.25 C 136.60 127.42 137.51 128.42 138.68 128.47 C 139.85 128.52 140.85 127.61 140.90 126.44 L 140.94 125.44 C 140.99 124.27 140.09 123.27 138.91 123.22 C 137.74 123.17 136.75 124.08 136.70 125.25 Z M 136.65 126.25 L 136.61 127.31 C 136.56 128.48 137.47 129.47 138.64 129.52 C 139.81 129.57 140.80 128.66 140.85 127.49 L 140.90 126.44 C 140.95 125.26 140.04 124.27 138.87 124.22 C 137.69 124.17 136.70 125.08 136.65 126.25 Z M 136.61 127.31 L 136.56 128.39 C 136.51 129.56 137.42 130.56 138.59 130.61 C 139.77 130.66 140.76 129.75 140.81 128.57 L 140.85 127.49 C 140.90 126.32 139.99 125.33 138.82 125.28 C 137.65 125.23 136.66 126.14 136.61 127.31 Z M 136.56 128.39 L 136.52 129.31 C 136.47 130.48 137.38 131.48 138.55 131.53 C 139.72 131.58 140.72 130.67 140.77 129.50 L 140.81 128.58 C 140.86 127.40 139.95 126.41 138.78 126.36 C 137.60 126.31 136.61 127.22 136.56 128.39 Z M 136.52 129.31 L 136.48 130.27 C 136.43 131.44 137.34 132.43 138.51 132.48 C 139.68 132.53 140.68 131.62 140.73 130.45 L 140.77 129.49 C 140.82 128.32 139.91 127.33 138.74 127.28 C 137.56 127.23 136.57 128.14 136.52 129.31 Z M 136.48 130.27 L 136.44 131.25 C 136.39 132.43 137.30 133.42 138.47 133.47 C 139.65 133.52 140.64 132.60 140.69 131.43 L 140.73 130.44 C 140.78 129.27 139.86 128.28 138.69 128.23 C 137.52 128.18 136.53 129.10 136.48 130.27 Z M 136.44 131.26 L 136.40 132.28 C 136.35 133.45 137.27 134.44 138.44 134.49 C 139.61 134.53 140.60 133.62 140.65 132.44 L 140.69 131.43 C 140.73 130.25 139.82 129.26 138.64 129.22 C 137.47 129.17 136.48 130.09 136.44 131.26 Z M 136.40 132.28 L 136.36 133.33 C 136.32 134.51 137.24 135.49 138.41 135.53 C 139.59 135.57 140.57 134.66 140.61 133.48 L 140.65 132.43 C 140.69 131.26 139.77 130.27 138.60 130.23 C 137.42 130.19 136.44 131.11 136.40 132.28 Z M 136.36 133.34 L 136.33 134.42 C 136.29 135.59 137.21 136.57 138.39 136.61 C 139.56 136.64 140.54 135.72 140.58 134.55 L 140.61 133.47 C 140.65 132.30 139.73 131.31 138.55 131.28 C 137.38 131.24 136.39 132.17 136.36 133.34 Z M 136.33 134.43 L 136.30 135.39 C 136.27 136.56 137.20 137.54 138.37 137.57 C 139.55 137.60 140.53 136.67 140.56 135.50 L 140.58 134.54 C 140.61 133.36 139.68 132.38 138.51 132.35 C 137.33 132.32 136.36 133.25 136.33 134.43 Z M 136.30 135.39 L 136.28 136.36 C 136.25 137.54 137.18 138.51 138.36 138.54 C 139.53 138.56 140.51 137.63 140.53 136.46 L 140.56 135.49 C 140.58 134.31 139.65 133.34 138.48 133.31 C 137.30 133.29 136.33 134.22 136.30 135.39 Z M 136.28 136.37 L 136.26 137.35 C 136.24 138.52 137.17 139.50 138.35 139.52 C 139.52 139.54 140.49 138.61 140.52 137.43 L 140.53 136.45 C 140.56 135.27 139.62 134.30 138.45 134.28 C 137.27 134.26 136.30 135.19 136.28 136.37 Z M 136.26 137.35 L 136.24 138.35 C 136.22 139.53 137.16 140.50 138.33 140.52 C 139.51 140.54 140.48 139.60 140.50 138.43 L 140.52 137.43 C 140.54 136.25 139.60 135.28 138.43 135.26 C 137.25 135.24 136.28 136.18 136.26 137.35 Z M 136.24 138.35 L 136.22 139.37 C 136.20 140.54 137.14 141.51 138.32 141.53 C 139.49 141.55 140.46 140.62 140.48 139.44 L 140.50 138.43 C 140.52 137.25 139.58 136.28 138.41 136.26 C 137.23 136.24 136.26 137.18 136.24 138.35 Z M 136.22 139.37 L 136.21 140.40 C 136.19 141.57 137.12 142.54 138.30 142.56 C 139.47 142.58 140.44 141.64 140.46 140.47 L 140.48 139.44 C 140.50 138.27 139.56 137.30 138.39 137.28 C 137.21 137.26 136.24 138.19 136.22 139.37 Z M 136.21 140.40 L 136.19 141.44 C 136.17 142.61 137.10 143.58 138.28 143.60 C 139.45 143.62 140.42 142.69 140.44 141.51 L 140.46 140.47 C 140.48 139.30 139.55 138.33 138.37 138.31 C 137.20 138.28 136.23 139.22 136.21 140.40 Z M 136.19 141.43 L 136.17 142.45 C 136.15 143.63 137.08 144.60 138.26 144.62 C 139.43 144.64 140.40 143.71 140.42 142.53 L 140.44 141.51 C 140.47 140.34 139.53 139.37 138.36 139.35 C 137.18 139.32 136.21 140.26 136.19 141.43 Z M 136.17 142.45 L 136.15 143.46 C 136.12 144.64 137.06 145.61 138.23 145.63 C 139.41 145.66 140.38 144.72 140.40 143.55 L 140.42 142.54 C 140.45 141.36 139.52 140.39 138.34 140.37 C 137.17 140.34 136.19 141.27 136.17 142.45 Z M 136.15 143.46 L 136.13 144.47 C 136.10 145.65 137.03 146.62 138.21 146.65 C 139.38 146.67 140.35 145.74 140.38 144.57 L 140.40 143.55 C 140.43 142.38 139.50 141.40 138.32 141.38 C 137.15 141.35 136.17 142.28 136.15 143.46 Z M 136.13 144.47 L 136.10 145.48 C 136.08 146.66 137.01 147.63 138.18 147.66 C 139.36 147.69 140.33 146.76 140.36 145.58 L 140.38 144.57 C 140.41 143.39 139.48 142.42 138.30 142.39 C 137.13 142.37 136.15 143.30 136.13 144.47 Z M 136.10 145.48 L 136.08 146.49 C 136.05 147.66 136.98 148.64 138.15 148.67 C 139.33 148.69 140.30 147.77 140.33 146.59 L 140.36 145.58 C 140.38 144.41 139.46 143.43 138.28 143.41 C 137.11 143.38 136.13 144.31 136.10 145.48 Z M 136.08 146.49 L 136.05 147.48 C 136.02 148.66 136.95 149.63 138.13 149.66 C 139.30 149.69 140.28 148.76 140.31 147.59 L 140.33 146.59 C 140.36 145.42 139.43 144.44 138.26 144.41 C 137.08 144.38 136.11 145.31 136.08 146.49 Z M 136.05 147.48 L 136.03 148.46 C 136.00 149.64 136.93 150.61 138.10 150.64 C 139.28 150.67 140.25 149.75 140.28 148.57 L 140.31 147.59 C 140.34 146.42 139.41 145.44 138.23 145.41 C 137.06 145.38 136.08 146.31 136.05 147.48 Z M 136.03 148.46 L 136.00 149.44 C 135.97 150.61 136.90 151.59 138.08 151.62 C 139.25 151.65 140.23 150.72 140.26 149.55 L 140.28 148.57 C 140.31 147.40 139.39 146.42 138.21 146.39 C 137.04 146.36 136.06 147.29 136.03 148.46 Z M 136.00 149.44 L 135.98 150.48 C 135.94 151.66 136.87 152.63 138.05 152.66 C 139.22 152.70 140.20 151.77 140.23 150.59 L 140.26 149.55 C 140.29 148.38 139.36 147.40 138.19 147.37 C 137.01 147.34 136.03 148.26 136.00 149.44 Z M 135.97 150.48 L 135.95 151.50 C 135.91 152.68 136.84 153.66 138.02 153.69 C 139.20 153.72 140.18 152.79 140.21 151.61 L 140.23 150.59 C 140.26 149.42 139.34 148.44 138.16 148.41 C 136.98 148.38 136.00 149.30 135.97 150.48 Z M 135.94 151.50 L 135.92 152.50 C 135.89 153.68 136.82 154.66 137.99 154.69 C 139.17 154.72 140.15 153.79 140.18 152.61 L 140.21 151.61 C 140.24 150.43 139.31 149.45 138.13 149.42 C 136.95 149.39 135.97 150.32 135.94 151.50 Z M 135.91 152.50 L 135.89 153.49 C 135.86 154.67 136.79 155.65 137.97 155.68 C 139.15 155.71 140.13 154.78 140.16 153.60 L 140.19 152.61 C 140.22 151.43 139.28 150.45 138.10 150.42 C 136.92 150.39 135.94 151.32 135.91 152.50 Z M 135.89 153.49 L 135.86 154.47 C 135.83 155.65 136.77 156.64 137.95 156.66 C 139.13 156.69 140.11 155.76 140.14 154.58 L 140.16 153.60 C 140.19 152.42 139.26 151.44 138.08 151.41 C 136.90 151.38 135.92 152.31 135.89 153.49 Z M 135.86 154.48 L 135.84 155.45 C 135.81 156.63 136.75 157.61 137.93 157.64 C 139.11 157.67 140.09 156.73 140.12 155.55 L 140.14 154.58 C 140.17 153.39 139.23 152.41 138.05 152.38 C 136.87 152.36 135.89 153.29 135.86 154.48 Z M 135.83 155.45 L 135.81 156.43 C 135.79 157.62 136.73 158.60 137.91 158.63 C 139.09 158.65 140.08 157.71 140.10 156.53 L 140.12 155.55 C 140.15 154.36 139.21 153.38 138.03 153.36 C 136.84 153.33 135.86 154.27 135.83 155.45 Z M 135.81 156.44 L 135.79 157.43 C 135.76 158.62 136.71 159.60 137.89 159.62 C 139.08 159.65 140.06 158.70 140.09 157.52 L 140.11 156.52 C 140.13 155.34 139.19 154.36 138.00 154.33 C 136.81 154.31 135.83 155.25 135.81 156.44 Z M 135.78 157.43 L 135.76 158.43 C 135.74 159.61 136.69 160.60 137.87 160.62 C 139.06 160.64 140.05 159.70 140.07 158.51 L 140.09 157.52 C 140.11 156.33 139.17 155.34 137.98 155.32 C 136.79 155.30 135.81 156.24 135.78 157.43 Z M 135.76 158.43 L 135.74 159.42 C 135.72 160.61 136.66 161.60 137.85 161.62 C 139.04 161.65 140.03 160.70 140.05 159.51 L 140.07 158.51 C 140.10 157.32 139.15 156.34 137.96 156.31 C 136.77 156.29 135.78 157.23 135.76 158.43 Z M 135.74 159.42 L 135.72 160.42 C 135.69 161.62 136.64 162.60 137.83 162.63 C 139.02 162.65 140.01 161.71 140.04 160.51 L 140.06 159.51 C 140.08 158.32 139.14 157.33 137.94 157.31 C 136.75 157.28 135.76 158.23 135.74 159.42 Z M 135.71 160.42 L 135.69 161.42 C 135.66 162.62 136.61 163.61 137.80 163.64 C 139.00 163.67 139.99 162.72 140.02 161.52 L 140.04 160.52 C 140.07 159.32 139.12 158.33 137.93 158.30 C 136.73 158.28 135.74 159.22 135.71 160.42 Z M 135.68 161.42 L 135.66 162.42 C 135.63 163.62 136.57 164.62 137.77 164.65 C 138.97 164.68 139.96 163.73 139.99 162.54 L 140.02 161.53 C 140.05 160.33 139.11 159.34 137.91 159.30 C 136.71 159.27 135.72 160.22 135.68 161.42 Z M 135.65 162.42 L 135.62 163.42 C 135.59 164.62 136.53 165.62 137.73 165.66 C 138.93 165.69 139.93 164.75 139.97 163.55 L 140.00 162.54 C 140.03 161.34 139.09 160.34 137.89 160.31 C 136.69 160.27 135.69 161.22 135.65 162.42 Z M 135.62 163.41 L 135.59 164.41 C 135.55 165.62 136.49 166.62 137.69 166.66 C 138.89 166.70 139.90 165.76 139.94 164.56 L 139.97 163.56 C 140.01 162.35 139.07 161.35 137.87 161.31 C 136.67 161.27 135.66 162.21 135.62 163.41 Z M 135.59 164.41 L 135.55 165.41 C 135.50 166.61 136.44 167.62 137.65 167.67 C 138.85 167.71 139.86 166.77 139.90 165.57 L 139.94 164.57 C 139.98 163.36 139.05 162.35 137.84 162.31 C 136.64 162.27 135.63 163.20 135.59 164.41 Z M 135.55 165.40 L 135.51 166.40 C 135.46 167.61 136.40 168.62 137.60 168.67 C 138.80 168.72 139.82 167.78 139.87 166.58 L 139.91 165.58 C 139.95 164.37 139.02 163.36 137.81 163.31 C 136.61 163.26 135.59 164.20 135.55 165.40 Z M 135.50 166.40 L 135.46 167.40 C 135.41 168.60 136.34 169.62 137.55 169.67 C 138.76 169.73 139.77 168.79 139.83 167.58 L 139.87 166.58 C 139.92 165.38 138.98 164.36 137.78 164.31 C 136.57 164.26 135.56 165.19 135.50 166.40 Z M 135.46 167.39 L 135.41 168.39 C 135.36 169.59 136.29 170.62 137.50 170.67 C 138.71 170.73 139.73 169.79 139.78 168.59 L 139.83 167.59 C 139.88 166.38 138.95 165.36 137.74 165.31 C 136.54 165.25 135.51 166.18 135.46 167.39 Z M 135.41 168.38 L 135.36 169.37 C 135.30 170.58 136.24 171.61 137.45 171.67 C 138.65 171.72 139.68 170.79 139.74 169.58 L 139.79 168.59 C 139.84 167.38 138.91 166.36 137.70 166.30 C 136.49 166.24 135.47 167.17 135.41 168.38 Z M 135.36 169.37 L 135.31 170.40 C 135.25 171.61 136.18 172.64 137.39 172.70 C 138.60 172.76 139.63 171.83 139.69 170.62 L 139.74 169.59 C 139.80 168.38 138.87 167.35 137.66 167.29 C 136.45 167.23 135.42 168.16 135.36 169.37 Z M 135.31 170.39 L 135.25 171.42 C 135.19 172.63 136.12 173.66 137.33 173.72 C 138.54 173.79 139.57 172.86 139.64 171.65 L 139.69 170.62 C 139.76 169.41 138.83 168.38 137.61 168.31 C 136.40 168.25 135.37 169.18 135.31 170.39 Z M 135.25 171.41 L 135.19 172.43 C 135.13 173.64 136.06 174.67 137.27 174.74 C 138.48 174.81 139.52 173.88 139.58 172.67 L 139.64 171.65 C 139.71 170.44 138.78 169.40 137.56 169.34 C 136.35 169.27 135.32 170.20 135.25 171.41 Z M 135.19 172.42 L 135.13 173.42 C 135.06 174.64 135.99 175.68 137.21 175.74 C 138.42 175.81 139.46 174.88 139.53 173.67 L 139.59 172.67 C 139.66 171.46 138.73 170.42 137.51 170.35 C 136.30 170.28 135.26 171.21 135.19 172.42 Z M 135.13 173.42 L 135.07 174.40 C 135.00 175.62 135.93 176.66 137.15 176.73 C 138.36 176.80 139.40 175.87 139.48 174.66 L 139.53 173.67 C 139.60 172.46 138.68 171.42 137.46 171.34 C 136.25 171.27 135.20 172.20 135.13 173.42 Z M 135.07 174.40 L 135.01 175.36 C 134.94 176.58 135.87 177.63 137.08 177.70 C 138.30 177.77 139.35 176.84 139.42 175.63 L 139.48 174.66 C 139.55 173.45 138.62 172.40 137.41 172.33 C 136.19 172.25 135.14 173.18 135.07 174.40 Z M 135.01 175.36 L 134.95 176.36 C 134.87 177.57 135.80 178.62 137.02 178.70 C 138.24 178.77 139.28 177.85 139.36 176.63 L 139.42 175.63 C 139.50 174.41 138.57 173.37 137.35 173.29 C 136.13 173.22 135.09 174.14 135.01 175.36 Z M 134.95 176.35 L 134.89 177.40 C 134.81 178.61 135.73 179.66 136.95 179.74 C 138.17 179.81 139.21 178.89 139.29 177.67 L 139.36 176.63 C 139.43 175.42 138.51 174.37 137.29 174.29 C 136.08 174.22 135.03 175.14 134.95 176.35 Z M 134.89 177.39 L 134.83 178.41 C 134.75 179.62 135.67 180.67 136.88 180.75 C 138.10 180.82 139.14 179.90 139.22 178.69 L 139.29 177.67 C 139.36 176.46 138.44 175.42 137.23 175.34 C 136.02 175.26 134.97 176.18 134.89 177.39 Z M 134.83 178.41 L 134.77 179.40 C 134.69 180.61 135.61 181.66 136.82 181.73 C 138.03 181.81 139.07 180.89 139.15 179.68 L 139.22 178.69 C 139.29 177.48 138.38 176.44 137.16 176.36 C 135.95 176.28 134.91 177.20 134.83 178.41 Z M 134.77 179.40 L 134.71 180.38 C 134.63 181.58 135.55 182.62 136.76 182.70 C 137.97 182.78 139.01 181.86 139.08 180.65 L 139.15 179.68 C 139.22 178.47 138.31 177.43 137.10 177.36 C 135.89 177.28 134.85 178.20 134.77 179.40 Z M 134.72 180.38 L 134.66 181.33 C 134.58 182.54 135.50 183.58 136.70 183.65 C 137.91 183.73 138.94 182.81 139.02 181.61 L 139.08 180.65 C 139.16 179.45 138.24 178.41 137.04 178.33 C 135.83 178.26 134.79 179.17 134.72 180.38 Z M 134.67 181.34 L 134.60 182.36 C 134.53 183.56 135.44 184.59 136.64 184.66 C 137.84 184.74 138.88 183.82 138.95 182.62 L 139.01 181.60 C 139.08 180.40 138.17 179.37 136.97 179.30 C 135.77 179.22 134.74 180.14 134.67 181.34 Z M 134.62 182.37 L 134.56 183.40 C 134.49 184.59 135.40 185.61 136.59 185.68 C 137.78 185.75 138.81 184.84 138.87 183.65 L 138.93 182.62 C 139.00 181.42 138.09 180.40 136.90 180.33 C 135.71 180.26 134.69 181.17 134.62 182.37 Z M 134.57 183.41 L 134.52 184.42 C 134.46 185.60 135.36 186.61 136.55 186.67 C 137.73 186.74 138.74 185.83 138.81 184.64 L 138.86 183.64 C 138.92 182.45 138.01 181.44 136.83 181.38 C 135.65 181.32 134.64 182.22 134.57 183.41 Z M 134.53 184.43 L 134.49 185.41 C 134.43 186.59 135.34 187.59 136.52 187.64 C 137.69 187.70 138.69 186.79 138.75 185.61 L 138.79 184.63 C 138.85 183.45 137.94 182.46 136.76 182.40 C 135.59 182.35 134.59 183.26 134.53 184.43 Z M 134.50 185.43 L 134.47 186.39 C 134.42 187.56 135.33 188.54 136.50 188.58 C 137.67 188.63 138.65 187.72 138.69 186.55 L 138.73 185.59 C 138.78 184.43 137.87 183.44 136.70 183.40 C 135.53 183.35 134.55 184.26 134.50 185.43 Z M 134.48 186.41 L 134.45 187.49 C 134.42 188.65 135.34 189.61 136.50 189.65 C 137.65 189.68 138.62 188.76 138.65 187.60 L 138.68 186.53 C 138.71 185.37 137.79 184.40 136.64 184.37 C 135.48 184.34 134.51 185.25 134.48 186.41 Z M 134.47 187.54 L 134.47 188.63 C 134.46 189.78 135.39 190.71 136.54 190.72 C 137.69 190.72 138.62 189.80 138.63 188.65 L 138.63 187.56 C 138.63 186.41 137.71 185.47 136.56 185.47 C 135.41 185.46 134.48 186.39 134.47 187.54 Z M 134.49 188.71 L 134.53 189.71 C 134.57 190.85 135.52 191.74 136.66 191.70 C 137.79 191.65 138.68 190.70 138.64 189.56 L 138.60 188.56 C 138.56 187.43 137.61 186.54 136.47 186.58 C 135.34 186.62 134.45 187.58 134.49 188.71 Z M 134.56 189.85 L 134.65 190.73 C 134.76 191.85 135.77 192.66 136.88 192.55 C 138.00 192.43 138.82 191.43 138.70 190.31 L 138.61 189.43 C 138.49 188.31 137.49 187.49 136.37 187.61 C 135.25 187.73 134.44 188.73 134.56 189.85 Z M 134.74 190.99 L 134.98 191.98 C 135.24 193.05 136.31 193.71 137.38 193.45 C 138.45 193.19 139.11 192.11 138.85 191.05 L 138.61 190.05 C 138.35 188.98 137.28 188.33 136.21 188.58 C 135.14 188.84 134.48 189.92 134.74 190.99 Z M 135.19 192.32 L 135.61 193.21 C 136.06 194.16 137.19 194.57 138.14 194.12 C 139.09 193.68 139.50 192.54 139.05 191.59 L 138.64 190.70 C 138.19 189.75 137.06 189.35 136.11 189.79 C 135.15 190.24 134.75 191.37 135.19 192.32 Z M 135.82 193.39 L 136.25 194.04 C 136.79 194.87 137.91 195.10 138.74 194.56 C 139.57 194.02 139.81 192.90 139.27 192.07 L 138.84 191.42 C 138.30 190.59 137.18 190.35 136.35 190.89 C 135.52 191.44 135.28 192.55 135.82 193.39 Z"
      fill="black"
      fill-rule="nonzero" /><path d="M 136.42 133.45 L 136.09 134.36 C 135.75 135.25 136.21 136.25 137.11 136.58 C 138.00 136.91 138.99 136.45 139.32 135.56 L 139.66 134.64 C 139.99 133.75 139.53 132.76 138.64 132.43 C 137.75 132.10 136.75 132.55 136.42 133.45 Z M 135.96 134.34 L 135.63 135.28 C 135.29 136.24 135.79 137.30 136.75 137.64 C 137.71 137.98 138.77 137.48 139.11 136.52 L 139.45 135.58 C 139.79 134.62 139.29 133.56 138.32 133.22 C 137.36 132.88 136.30 133.38 135.96 134.34 Z M 135.51 135.29 L 135.19 136.26 C 134.85 137.29 135.41 138.40 136.44 138.74 C 137.47 139.07 138.57 138.51 138.91 137.49 L 139.23 136.51 C 139.57 135.48 139.01 134.37 137.98 134.04 C 136.95 133.70 135.85 134.26 135.51 135.29 Z M 135.12 136.30 L 134.83 137.27 C 134.51 138.33 135.11 139.45 136.18 139.77 C 137.24 140.09 138.36 139.49 138.68 138.43 L 138.97 137.45 C 139.29 136.39 138.69 135.27 137.63 134.95 C 136.57 134.63 135.44 135.23 135.12 136.30 Z M 134.82 137.29 L 134.54 138.27 C 134.24 139.34 134.86 140.45 135.93 140.76 C 137.00 141.06 138.11 140.44 138.42 139.37 L 138.69 138.40 C 139.00 137.33 138.38 136.22 137.31 135.91 C 136.24 135.60 135.13 136.22 134.82 137.29 Z M 134.54 138.27 L 134.27 139.22 C 133.97 140.29 134.59 141.41 135.67 141.71 C 136.74 142.01 137.85 141.39 138.16 140.31 L 138.42 139.37 C 138.72 138.29 138.10 137.18 137.03 136.88 C 135.95 136.58 134.84 137.20 134.54 138.27 Z M 134.27 139.21 L 134.00 140.17 C 133.69 141.24 134.31 142.36 135.38 142.67 C 136.45 142.98 137.57 142.36 137.88 141.29 L 138.15 140.32 C 138.46 139.25 137.84 138.13 136.77 137.83 C 135.70 137.52 134.58 138.14 134.27 139.21 Z M 134.00 140.14 L 133.72 141.08 C 133.39 142.15 134.00 143.28 135.06 143.60 C 136.13 143.93 137.26 143.32 137.58 142.26 L 137.87 141.32 C 138.19 140.25 137.59 139.12 136.52 138.80 C 135.46 138.47 134.33 139.07 134.00 140.14 Z M 133.73 141.04 L 133.43 141.97 C 133.08 143.03 133.66 144.17 134.72 144.51 C 135.79 144.86 136.93 144.28 137.27 143.22 L 137.57 142.29 C 137.92 141.23 137.34 140.09 136.28 139.75 C 135.22 139.40 134.08 139.98 133.73 141.04 Z M 133.44 141.93 L 133.12 142.86 C 132.76 143.92 133.32 145.07 134.37 145.43 C 135.43 145.79 136.58 145.23 136.94 144.18 L 137.26 143.25 C 137.62 142.19 137.06 141.04 136.01 140.68 C 134.95 140.32 133.80 140.88 133.44 141.93 Z M 133.13 142.84 L 132.78 143.81 C 132.41 144.86 132.96 146.02 134.01 146.39 C 135.06 146.77 136.21 146.22 136.59 145.17 L 136.93 144.20 C 137.31 143.15 136.76 141.99 135.71 141.62 C 134.66 141.24 133.50 141.79 133.13 142.84 Z M 132.79 143.80 L 132.44 144.74 C 132.06 145.79 132.60 146.95 133.65 147.33 C 134.69 147.71 135.85 147.18 136.23 146.13 L 136.58 145.18 C 136.96 144.14 136.42 142.98 135.38 142.60 C 134.33 142.21 133.17 142.75 132.79 143.80 Z M 132.45 144.73 L 132.11 145.64 C 131.71 146.69 132.24 147.85 133.29 148.24 C 134.33 148.63 135.49 148.11 135.88 147.06 L 136.23 146.14 C 136.62 145.10 136.09 143.94 135.05 143.55 C 134.01 143.16 132.84 143.68 132.45 144.73 Z M 132.12 145.62 L 131.75 146.56 C 131.35 147.60 131.86 148.77 132.90 149.17 C 133.93 149.57 135.10 149.06 135.51 148.03 L 135.87 147.09 C 136.28 146.05 135.76 144.88 134.73 144.48 C 133.69 144.07 132.52 144.58 132.12 145.62 Z M 131.76 146.53 L 131.38 147.47 C 130.96 148.50 131.45 149.68 132.48 150.10 C 133.51 150.52 134.69 150.02 135.11 149.00 L 135.49 148.05 C 135.91 147.02 135.42 145.85 134.39 145.43 C 133.36 145.01 132.18 145.50 131.76 146.53 Z M 131.39 147.44 L 131.01 148.33 C 130.58 149.35 131.05 150.54 132.07 150.97 C 133.09 151.41 134.28 150.94 134.71 149.91 L 135.09 149.02 C 135.53 148.00 135.06 146.82 134.03 146.38 C 133.01 145.95 131.83 146.42 131.39 147.44 Z M 131.03 148.31 L 130.62 149.22 C 130.17 150.23 130.63 151.42 131.64 151.87 C 132.65 152.32 133.84 151.87 134.29 150.85 L 134.70 149.94 C 135.15 148.93 134.69 147.74 133.68 147.29 C 132.66 146.84 131.48 147.29 131.03 148.31 Z M 130.63 149.20 L 130.21 150.13 C 129.74 151.14 130.18 152.33 131.19 152.79 C 132.20 153.25 133.39 152.81 133.85 151.81 L 134.28 150.87 C 134.74 149.87 134.30 148.68 133.29 148.21 C 132.29 147.75 131.10 148.19 130.63 149.20 Z M 130.22 150.11 L 129.79 151.01 C 129.32 152.01 129.75 153.21 130.75 153.68 C 131.75 154.15 132.94 153.73 133.41 152.73 L 133.84 151.83 C 134.31 150.83 133.89 149.63 132.89 149.16 C 131.88 148.68 130.69 149.11 130.22 150.11 Z M 129.80 151.00 L 129.38 151.87 C 128.90 152.87 129.31 154.07 130.31 154.55 C 131.31 155.03 132.50 154.61 132.98 153.61 L 133.41 152.74 C 133.89 151.74 133.47 150.55 132.47 150.07 C 131.48 149.59 130.28 150.00 129.80 151.00 Z M 129.38 151.87 L 128.95 152.76 C 128.46 153.76 128.87 154.95 129.87 155.44 C 130.86 155.92 132.05 155.51 132.54 154.52 L 132.98 153.62 C 133.46 152.63 133.05 151.43 132.06 150.95 C 131.07 150.46 129.87 150.87 129.38 151.87 Z M 128.95 152.76 L 128.50 153.68 C 128.01 154.68 128.42 155.87 129.41 156.36 C 130.40 156.84 131.60 156.43 132.08 155.44 L 132.54 154.52 C 133.02 153.53 132.61 152.33 131.62 151.85 C 130.63 151.36 129.43 151.77 128.95 152.76 Z M 128.50 153.69 L 128.06 154.59 C 127.57 155.58 127.99 156.77 128.98 157.26 C 129.97 157.74 131.16 157.33 131.64 156.34 L 132.08 155.44 C 132.57 154.45 132.16 153.25 131.17 152.77 C 130.18 152.29 128.98 152.70 128.50 153.69 Z M 128.06 154.59 L 127.63 155.46 C 127.15 156.46 127.57 157.65 128.56 158.13 C 129.55 158.61 130.74 158.20 131.22 157.20 L 131.65 156.33 C 132.13 155.34 131.71 154.15 130.72 153.67 C 129.73 153.19 128.54 153.60 128.06 154.59 Z M 127.63 155.47 L 127.20 156.36 C 126.72 157.35 127.14 158.55 128.13 159.02 C 129.12 159.50 130.31 159.09 130.79 158.10 L 131.22 157.20 C 131.70 156.21 131.29 155.02 130.29 154.54 C 129.30 154.06 128.11 154.48 127.63 155.47 Z M 127.20 156.37 L 126.76 157.28 C 126.29 158.27 126.70 159.46 127.69 159.94 C 128.68 160.42 129.87 160.00 130.35 159.01 L 130.79 158.09 C 131.27 157.10 130.85 155.91 129.86 155.44 C 128.87 154.96 127.68 155.38 127.20 156.37 Z M 126.76 157.29 L 126.31 158.22 C 125.84 159.21 126.25 160.40 127.24 160.88 C 128.24 161.35 129.42 160.94 129.90 159.95 L 130.35 159.01 C 130.83 158.02 130.41 156.83 129.42 156.35 C 128.43 155.88 127.24 156.30 126.76 157.29 Z M 126.31 158.22 L 125.89 159.10 C 125.42 160.09 125.84 161.28 126.83 161.75 C 127.82 162.23 129.00 161.81 129.48 160.82 L 129.90 159.94 C 130.37 158.95 129.96 157.77 128.97 157.29 C 127.98 156.82 126.79 157.23 126.31 158.22 Z M 125.89 159.10 L 125.47 159.98 C 125.00 160.97 125.42 162.16 126.41 162.63 C 127.40 163.11 128.58 162.69 129.06 161.70 L 129.48 160.82 C 129.95 159.83 129.54 158.64 128.55 158.17 C 127.56 157.69 126.37 158.11 125.89 159.10 Z M 125.47 159.98 L 125.04 160.88 C 124.57 161.87 124.99 163.05 125.98 163.53 C 126.97 164.00 128.15 163.58 128.63 162.59 L 129.06 161.70 C 129.53 160.71 129.11 159.52 128.12 159.05 C 127.13 158.57 125.95 158.99 125.47 159.98 Z M 125.04 160.88 L 124.61 161.80 C 124.13 162.78 124.55 163.97 125.54 164.44 C 126.53 164.92 127.71 164.50 128.19 163.51 L 128.63 162.59 C 129.10 161.60 128.68 160.42 127.69 159.95 C 126.70 159.47 125.52 159.89 125.04 160.88 Z M 124.61 161.80 L 124.16 162.73 C 123.68 163.72 124.10 164.91 125.09 165.38 C 126.08 165.85 127.26 165.44 127.74 164.45 L 128.19 163.51 C 128.66 162.52 128.24 161.34 127.25 160.86 C 126.26 160.39 125.08 160.81 124.61 161.80 Z M 124.16 162.73 L 123.72 163.64 C 123.25 164.63 123.67 165.81 124.66 166.29 C 125.65 166.76 126.83 166.34 127.30 165.35 L 127.74 164.45 C 128.21 163.46 127.79 162.27 126.80 161.80 C 125.82 161.33 124.63 161.74 124.16 162.73 Z M 123.72 163.64 L 123.29 164.55 C 122.82 165.53 123.23 166.72 124.22 167.19 C 125.21 167.66 126.39 167.25 126.87 166.26 L 127.30 165.35 C 127.78 164.36 127.36 163.18 126.37 162.71 C 125.38 162.23 124.20 162.65 123.72 163.64 Z M 123.29 164.54 L 122.85 165.46 C 122.38 166.44 122.80 167.63 123.78 168.10 C 124.77 168.58 125.96 168.16 126.43 167.17 L 126.87 166.26 C 127.34 165.27 126.92 164.09 125.94 163.61 C 124.95 163.14 123.77 163.56 123.29 164.54 Z M 122.86 165.45 L 122.42 166.36 C 121.94 167.35 122.36 168.53 123.34 169.01 C 124.33 169.48 125.52 169.07 125.99 168.08 L 126.43 167.17 C 126.90 166.19 126.49 165.00 125.50 164.53 C 124.52 164.05 123.33 164.47 122.86 165.45 Z M 122.42 166.36 L 121.99 167.25 C 121.51 168.24 121.92 169.42 122.91 169.90 C 123.89 170.38 125.08 169.97 125.56 168.98 L 125.99 168.09 C 126.47 167.10 126.05 165.91 125.07 165.44 C 124.08 164.96 122.90 165.37 122.42 166.36 Z M 121.99 167.25 L 121.55 168.15 C 121.07 169.14 121.48 170.33 122.46 170.80 C 123.44 171.28 124.63 170.88 125.11 169.89 L 125.55 168.99 C 126.03 168.00 125.62 166.81 124.64 166.34 C 123.66 165.86 122.47 166.26 121.99 167.25 Z M 121.55 168.15 L 121.09 169.08 C 120.61 170.06 121.02 171.25 122.00 171.73 C 122.98 172.21 124.17 171.81 124.65 170.83 L 125.11 169.90 C 125.59 168.91 125.18 167.73 124.20 167.25 C 123.22 166.76 122.03 167.17 121.55 168.15 Z M 121.10 169.08 L 120.65 169.98 C 120.17 170.96 120.57 172.15 121.55 172.63 C 122.52 173.12 123.71 172.72 124.20 171.74 L 124.64 170.83 C 125.13 169.85 124.73 168.67 123.75 168.18 C 122.77 167.70 121.58 168.10 121.10 169.08 Z M 120.65 169.98 L 120.21 170.86 C 119.73 171.84 120.12 173.02 121.10 173.51 C 122.08 174.00 123.26 173.60 123.75 172.63 L 124.19 171.74 C 124.68 170.77 124.28 169.58 123.31 169.09 C 122.33 168.60 121.14 169.00 120.65 169.98 Z M 120.22 170.86 L 119.78 171.72 C 119.29 172.70 119.69 173.88 120.66 174.37 C 121.63 174.86 122.82 174.47 123.31 173.50 L 123.75 172.63 C 124.24 171.66 123.84 170.47 122.87 169.98 C 121.89 169.49 120.71 169.88 120.22 170.86 Z M 119.79 171.72 L 119.34 172.60 C 118.85 173.58 119.24 174.76 120.21 175.25 C 121.18 175.74 122.37 175.36 122.86 174.38 L 123.31 173.50 C 123.80 172.53 123.41 171.34 122.44 170.85 C 121.47 170.36 120.28 170.75 119.79 171.72 Z M 119.35 172.60 L 118.88 173.52 C 118.38 174.49 118.77 175.67 119.74 176.16 C 120.70 176.66 121.89 176.27 122.38 175.31 L 122.85 174.39 C 123.35 173.42 122.96 172.24 121.99 171.74 C 121.03 171.25 119.84 171.63 119.35 172.60 Z M 118.89 173.51 L 118.42 174.41 C 117.93 175.37 118.30 176.56 119.26 177.05 C 120.23 177.55 121.41 177.17 121.91 176.21 L 122.37 175.31 C 122.87 174.35 122.49 173.17 121.53 172.67 C 120.57 172.17 119.38 172.55 118.89 173.51 Z M 118.43 174.40 L 117.97 175.27 C 117.47 176.23 117.84 177.41 118.80 177.92 C 119.75 178.42 120.94 178.05 121.44 177.10 L 121.90 176.22 C 122.40 175.27 122.03 174.08 121.08 173.58 C 120.12 173.08 118.94 173.44 118.43 174.40 Z M 117.99 175.26 L 117.53 176.10 C 117.02 177.05 117.38 178.24 118.33 178.75 C 119.28 179.26 120.46 178.90 120.97 177.95 L 121.43 177.11 C 121.94 176.16 121.58 174.98 120.63 174.46 C 119.68 173.95 118.50 174.31 117.99 175.26 Z M 117.55 176.09 L 117.04 177.01 C 116.52 177.95 116.86 179.13 117.80 179.65 C 118.74 180.17 119.92 179.83 120.44 178.89 L 120.95 177.97 C 121.47 177.03 121.13 175.85 120.19 175.33 C 119.25 174.81 118.07 175.15 117.55 176.09 Z M 117.06 176.99 L 116.55 177.88 C 116.02 178.81 116.34 179.99 117.27 180.52 C 118.20 181.05 119.38 180.73 119.91 179.81 L 120.42 178.91 C 120.95 177.99 120.63 176.80 119.70 176.27 C 118.78 175.74 117.59 176.06 117.06 176.99 Z M 116.58 177.86 L 116.07 178.70 C 115.53 179.62 115.83 180.80 116.74 181.34 C 117.66 181.89 118.84 181.59 119.38 180.67 L 119.88 179.83 C 120.43 178.91 120.13 177.73 119.21 177.19 C 118.30 176.65 117.12 176.95 116.58 177.86 Z M 116.10 178.68 L 115.61 179.47 C 115.05 180.37 115.33 181.55 116.23 182.11 C 117.13 182.66 118.31 182.39 118.87 181.49 L 119.36 180.70 C 119.91 179.80 119.64 178.62 118.74 178.06 C 117.84 177.50 116.66 177.78 116.10 178.68 Z M 115.65 179.43 L 115.10 180.27 C 114.52 181.15 114.76 182.33 115.64 182.91 C 116.52 183.48 117.70 183.24 118.27 182.36 L 118.83 181.52 C 119.40 180.65 119.16 179.47 118.28 178.89 C 117.41 178.31 116.23 178.56 115.65 179.43 Z M 115.17 180.20 L 114.59 180.99 C 113.97 181.83 114.15 183.01 114.99 183.63 C 115.83 184.24 117.00 184.06 117.62 183.22 L 118.20 182.43 C 118.82 181.60 118.64 180.42 117.80 179.80 C 116.96 179.19 115.78 179.37 115.17 180.20 Z M 114.69 180.89 L 114.04 181.65 C 113.37 182.43 113.46 183.60 114.24 184.28 C 115.02 184.95 116.20 184.86 116.87 184.08 L 117.52 183.33 C 118.19 182.54 118.10 181.37 117.32 180.70 C 116.54 180.02 115.36 180.11 114.69 180.89 Z M 114.17 181.53 L 113.37 182.31 C 112.63 183.02 112.61 184.19 113.32 184.92 C 114.03 185.65 115.20 185.67 115.93 184.97 L 116.73 184.19 C 117.47 183.48 117.49 182.32 116.78 181.58 C 116.08 180.85 114.91 180.83 114.17 181.53 Z M 113.53 182.20 L 112.63 182.89 C 111.83 183.51 111.69 184.66 112.30 185.45 C 112.92 186.25 114.06 186.40 114.86 185.78 L 115.76 185.08 C 116.56 184.47 116.71 183.32 116.09 182.52 C 115.48 181.73 114.33 181.58 113.53 182.20 Z M 112.93 182.73 L 112.11 183.15 C 111.23 183.60 110.88 184.68 111.33 185.57 C 111.78 186.46 112.86 186.81 113.75 186.36 L 114.56 185.94 C 115.45 185.49 115.80 184.40 115.35 183.52 C 114.90 182.63 113.81 182.28 112.93 182.73 Z M 113.20 183.01 L 112.55 182.91 C 111.59 182.76 110.69 183.42 110.54 184.38 C 110.39 185.35 111.05 186.24 112.01 186.39 L 112.66 186.49 C 113.62 186.64 114.52 185.98 114.67 185.02 C 114.82 184.06 114.16 183.16 113.20 183.01 Z M 113.87 184.10 L 113.57 183.23 C 113.27 182.35 112.31 181.89 111.43 182.19 C 110.55 182.49 110.08 183.46 110.39 184.34 L 110.69 185.20 C 110.99 186.08 111.95 186.55 112.83 186.25 C 113.71 185.94 114.18 184.98 113.87 184.10 Z M 113.59 183.72 L 113.54 182.58 C 113.50 181.69 112.75 181.00 111.87 181.04 C 110.98 181.07 110.29 181.82 110.33 182.71 L 110.37 183.85 C 110.41 184.74 111.16 185.43 112.05 185.39 C 112.93 185.35 113.62 184.60 113.59 183.72 Z M 113.50 182.66 L 113.51 181.65 C 113.52 180.78 112.82 180.07 111.96 180.07 C 111.09 180.06 110.38 180.76 110.37 181.62 L 110.36 182.63 C 110.35 183.50 111.05 184.21 111.92 184.21 C 112.79 184.22 113.50 183.52 113.50 182.66 Z M 113.51 181.68 L 113.54 180.69 C 113.56 179.83 112.88 179.11 112.02 179.08 C 111.15 179.06 110.43 179.74 110.41 180.60 L 110.38 181.59 C 110.35 182.46 111.03 183.18 111.90 183.20 C 112.76 183.23 113.48 182.55 113.51 181.68 Z M 113.53 180.70 L 113.54 180.40 C 113.57 179.54 112.90 178.81 112.03 178.78 C 111.17 178.75 110.45 179.43 110.42 180.29 L 110.41 180.59 C 110.38 181.45 111.05 182.18 111.92 182.21 C 112.78 182.24 113.50 181.56 113.53 180.70 Z"
      fill="black"
      fill-rule="nonzero" /><path d="M 141.81 132.65 L 140.68 132.22 C 139.75 131.86 138.72 132.33 138.36 133.25 C 138.01 134.18 138.47 135.21 139.39 135.57 L 140.53 136.00 C 141.45 136.36 142.49 135.90 142.84 134.97 C 143.20 134.05 142.74 133.01 141.81 132.65 Z M 139.35 131.98 L 138.88 132.15 C 137.82 132.53 137.28 133.69 137.66 134.75 C 138.04 135.81 139.20 136.36 140.26 135.97 L 140.73 135.81 C 141.78 135.43 142.33 134.26 141.95 133.20 C 141.57 132.15 140.40 131.60 139.35 131.98 Z M 137.54 134.75 L 137.79 135.48 C 138.17 136.60 139.38 137.20 140.50 136.82 C 141.62 136.44 142.23 135.23 141.85 134.11 L 141.60 133.38 C 141.22 132.25 140.01 131.65 138.89 132.03 C 137.76 132.41 137.16 133.62 137.54 134.75 Z M 137.93 135.83 L 138.54 136.95 C 139.12 137.99 140.43 138.37 141.47 137.80 C 142.51 137.23 142.89 135.92 142.32 134.87 L 141.71 133.76 C 141.13 132.71 139.82 132.33 138.78 132.90 C 137.74 133.48 137.36 134.79 137.93 135.83 Z M 138.57 137.00 L 139.11 137.92 C 139.71 138.95 141.04 139.29 142.06 138.69 C 143.09 138.09 143.44 136.76 142.83 135.74 L 142.29 134.82 C 141.69 133.79 140.37 133.44 139.34 134.05 C 138.31 134.65 137.97 135.98 138.57 137.00 Z M 139.11 137.93 L 139.64 138.82 C 140.25 139.84 141.57 140.18 142.60 139.57 C 143.62 138.97 143.96 137.64 143.35 136.61 L 142.83 135.73 C 142.22 134.70 140.90 134.36 139.87 134.97 C 138.84 135.58 138.50 136.90 139.11 137.93 Z M 139.64 138.82 L 140.16 139.69 C 140.77 140.72 142.09 141.06 143.12 140.45 C 144.14 139.84 144.48 138.51 143.87 137.49 L 143.35 136.61 C 142.75 135.59 141.42 135.25 140.39 135.86 C 139.37 136.47 139.03 137.79 139.64 138.82 Z M 140.15 139.69 L 140.65 140.53 C 141.26 141.56 142.58 141.90 143.61 141.30 C 144.64 140.69 144.98 139.37 144.37 138.34 L 143.88 137.49 C 143.27 136.46 141.95 136.12 140.92 136.73 C 139.89 137.33 139.55 138.66 140.15 139.69 Z M 140.65 140.52 L 141.18 141.44 C 141.78 142.47 143.10 142.82 144.13 142.22 C 145.16 141.63 145.51 140.31 144.91 139.28 L 144.38 138.36 C 143.78 137.33 142.46 136.97 141.43 137.57 C 140.40 138.17 140.05 139.49 140.65 140.52 Z M 141.18 141.42 L 141.65 142.25 C 142.23 143.28 143.54 143.64 144.58 143.06 C 145.61 142.48 145.97 141.17 145.39 140.14 L 144.92 139.30 C 144.33 138.27 143.02 137.91 141.99 138.49 C 140.96 139.07 140.60 140.38 141.18 141.42 Z M 141.65 142.23 L 142.11 143.05 C 142.68 144.08 143.98 144.46 145.01 143.89 C 146.04 143.31 146.42 142.01 145.84 140.98 L 145.39 140.16 C 144.82 139.12 143.51 138.75 142.48 139.32 C 141.45 139.90 141.08 141.20 141.65 142.23 Z M 142.11 143.04 L 142.59 143.91 C 143.15 144.94 144.45 145.31 145.48 144.75 C 146.51 144.18 146.88 142.89 146.32 141.86 L 145.84 140.99 C 145.27 139.96 143.98 139.59 142.95 140.15 C 141.92 140.72 141.55 142.01 142.11 143.04 Z M 142.60 143.91 L 143.09 144.79 C 143.65 145.82 144.94 146.19 145.96 145.62 C 146.99 145.06 147.36 143.77 146.80 142.75 L 146.31 141.86 C 145.74 140.84 144.45 140.46 143.43 141.03 C 142.41 141.59 142.03 142.88 142.60 143.91 Z M 143.10 144.80 L 143.60 145.68 C 144.17 146.69 145.45 147.05 146.46 146.48 C 147.48 145.92 147.84 144.63 147.27 143.62 L 146.78 142.74 C 146.21 141.72 144.93 141.36 143.91 141.93 C 142.90 142.50 142.53 143.78 143.10 144.80 Z M 143.62 145.69 L 144.11 146.55 C 144.68 147.56 145.96 147.91 146.97 147.33 C 147.97 146.76 148.32 145.48 147.75 144.48 L 147.25 143.61 C 146.68 142.60 145.40 142.26 144.40 142.83 C 143.39 143.40 143.04 144.68 143.62 145.69 Z M 144.13 146.55 L 144.63 147.42 C 145.20 148.42 146.47 148.76 147.47 148.19 C 148.46 147.61 148.81 146.34 148.23 145.34 L 147.73 144.48 C 147.16 143.48 145.88 143.14 144.89 143.71 C 143.89 144.29 143.55 145.56 144.13 146.55 Z M 144.64 147.42 L 145.14 148.28 C 145.72 149.27 146.98 149.61 147.97 149.04 C 148.95 148.47 149.29 147.20 148.72 146.22 L 148.22 145.35 C 147.64 144.36 146.38 144.02 145.40 144.60 C 144.41 145.17 144.07 146.43 144.64 147.42 Z M 145.17 148.28 L 145.67 149.14 C 146.23 150.12 147.48 150.45 148.46 149.88 C 149.44 149.32 149.77 148.07 149.20 147.09 L 148.70 146.23 C 148.13 145.25 146.88 144.92 145.91 145.48 C 144.93 146.05 144.60 147.30 145.17 148.28 Z M 145.69 149.14 L 146.19 150.00 C 146.76 150.96 147.99 151.28 148.96 150.72 C 149.92 150.16 150.24 148.92 149.68 147.96 L 149.18 147.10 C 148.62 146.14 147.38 145.81 146.42 146.37 C 145.45 146.94 145.13 148.17 145.69 149.14 Z M 146.22 149.99 L 146.73 150.86 C 147.29 151.80 148.51 152.12 149.46 151.56 C 150.41 151.00 150.72 149.78 150.16 148.83 L 149.66 147.96 C 149.09 147.02 147.87 146.70 146.92 147.26 C 145.98 147.82 145.66 149.04 146.22 149.99 Z M 146.76 150.85 L 147.27 151.71 C 147.83 152.64 149.04 152.94 149.97 152.38 C 150.91 151.82 151.21 150.62 150.65 149.68 L 150.13 148.83 C 149.58 147.90 148.37 147.59 147.44 148.15 C 146.50 148.71 146.20 149.92 146.76 150.85 Z M 147.31 151.71 L 147.83 152.56 C 148.39 153.47 149.58 153.76 150.49 153.20 C 151.41 152.64 151.69 151.44 151.13 150.53 L 150.61 149.68 C 150.05 148.77 148.86 148.48 147.95 149.04 C 147.03 149.60 146.75 150.80 147.31 151.71 Z M 147.87 152.56 L 148.37 153.36 C 148.93 154.24 150.11 154.51 151.00 153.95 C 151.89 153.39 152.15 152.21 151.59 151.32 L 151.09 150.52 C 150.53 149.63 149.35 149.37 148.46 149.93 C 147.57 150.49 147.31 151.67 147.87 152.56 Z M 148.43 153.37 L 148.98 154.20 C 149.55 155.05 150.71 155.29 151.56 154.72 C 152.42 154.15 152.65 152.99 152.08 152.13 L 151.54 151.31 C 150.97 150.45 149.81 150.22 148.95 150.79 C 148.09 151.35 147.86 152.51 148.43 153.37 Z M 149.04 154.22 L 149.66 155.09 C 150.24 155.91 151.38 156.11 152.20 155.53 C 153.02 154.95 153.22 153.81 152.64 152.99 L 152.02 152.11 C 151.44 151.29 150.30 151.09 149.48 151.68 C 148.66 152.26 148.46 153.39 149.04 154.22 Z M 149.71 155.11 L 150.31 155.91 C 150.91 156.70 152.03 156.86 152.82 156.27 C 153.61 155.68 153.77 154.55 153.18 153.76 L 152.58 152.96 C 151.99 152.17 150.87 152.01 150.07 152.60 C 149.28 153.20 149.12 154.32 149.71 155.11 Z M 150.36 155.93 L 151.00 156.74 C 151.61 157.50 152.72 157.63 153.48 157.02 C 154.24 156.41 154.37 155.30 153.76 154.54 L 153.13 153.74 C 152.52 152.98 151.41 152.85 150.65 153.45 C 149.89 154.06 149.76 155.17 150.36 155.93 Z M 151.06 156.77 L 151.72 157.53 C 152.34 158.26 153.43 158.34 154.16 157.72 C 154.89 157.10 154.98 156.00 154.36 155.27 L 153.70 154.51 C 153.08 153.78 151.99 153.70 151.26 154.32 C 150.53 154.94 150.44 156.04 151.06 156.77 Z M 151.80 157.57 L 152.51 158.33 C 153.16 159.01 154.24 159.04 154.92 158.39 C 155.60 157.74 155.63 156.66 154.98 155.98 L 154.27 155.23 C 153.62 154.55 152.54 154.52 151.86 155.17 C 151.18 155.81 151.15 156.89 151.80 157.57 Z M 152.62 158.37 L 153.37 159.06 C 154.04 159.69 155.09 159.65 155.71 158.97 C 156.34 158.30 156.30 157.25 155.63 156.63 L 154.88 155.93 C 154.21 155.31 153.16 155.35 152.53 156.02 C 151.91 156.70 151.95 157.75 152.62 158.37 Z M 153.45 159.08 L 154.18 159.69 C 154.86 160.26 155.88 160.18 156.45 159.50 C 157.03 158.82 156.94 157.80 156.26 157.22 L 155.54 156.61 C 154.86 156.04 153.84 156.12 153.26 156.80 C 152.69 157.48 152.77 158.50 153.45 159.08 Z M 154.22 159.68 L 154.47 159.88 C 155.14 160.44 156.14 160.34 156.69 159.66 C 157.25 158.99 157.15 157.99 156.47 157.44 L 156.22 157.23 C 155.55 156.68 154.55 156.78 154.00 157.45 C 153.44 158.13 153.54 159.13 154.22 159.68 Z"
      fill="black"
      fill-rule="nonzero" /><path d="M 154.91 131.03 L 155.85 130.73 C 156.86 130.42 157.42 129.36 157.11 128.35 C 156.80 127.35 155.73 126.79 154.73 127.10 L 153.78 127.39 C 152.78 127.70 152.21 128.77 152.52 129.77 C 152.84 130.78 153.90 131.34 154.91 131.03 Z M 155.88 130.76 L 156.83 130.46 C 157.84 130.13 158.41 129.05 158.08 128.03 C 157.76 127.01 156.68 126.45 155.66 126.77 L 154.71 127.07 C 153.69 127.40 153.13 128.48 153.45 129.50 C 153.77 130.52 154.86 131.08 155.88 130.76 Z M 156.86 130.47 L 157.82 130.15 C 158.84 129.81 159.40 128.71 159.06 127.68 C 158.71 126.65 157.61 126.10 156.58 126.44 L 155.63 126.76 C 154.60 127.10 154.04 128.21 154.39 129.23 C 154.73 130.26 155.83 130.81 156.86 130.47 Z M 157.85 130.16 L 158.77 129.83 C 159.80 129.47 160.34 128.35 159.98 127.32 C 159.62 126.29 158.50 125.75 157.47 126.11 L 156.55 126.44 C 155.52 126.80 154.98 127.92 155.34 128.95 C 155.70 129.98 156.82 130.52 157.85 130.16 Z M 158.79 129.83 L 159.73 129.49 C 160.76 129.11 161.29 127.98 160.91 126.96 C 160.54 125.94 159.41 125.41 158.39 125.78 L 157.45 126.12 C 156.43 126.49 155.90 127.62 156.27 128.65 C 156.64 129.67 157.77 130.20 158.79 129.83 Z M 159.74 129.48 L 160.70 129.13 C 161.72 128.76 162.25 127.62 161.87 126.60 C 161.50 125.58 160.37 125.05 159.34 125.43 L 158.38 125.78 C 157.36 126.16 156.83 127.29 157.21 128.31 C 157.58 129.33 158.72 129.86 159.74 129.48 Z M 160.70 129.13 L 161.60 128.80 C 162.63 128.43 163.15 127.30 162.78 126.28 C 162.41 125.25 161.28 124.73 160.26 125.10 L 159.35 125.43 C 158.33 125.80 157.80 126.93 158.17 127.95 C 158.54 128.98 159.67 129.50 160.70 129.13 Z M 161.59 128.80 L 162.53 128.46 C 163.55 128.10 164.08 126.97 163.72 125.95 C 163.35 124.93 162.23 124.40 161.21 124.76 L 160.27 125.10 C 159.25 125.47 158.71 126.59 159.08 127.61 C 159.45 128.63 160.57 129.17 161.59 128.80 Z M 162.52 128.46 L 163.48 128.13 C 164.50 127.77 165.04 126.65 164.69 125.63 C 164.33 124.61 163.21 124.07 162.19 124.42 L 161.22 124.76 C 160.20 125.12 159.66 126.24 160.02 127.26 C 160.37 128.28 161.49 128.82 162.52 128.46 Z M 163.46 128.12 L 164.37 127.82 C 165.39 127.47 165.94 126.36 165.59 125.34 C 165.24 124.32 164.13 123.77 163.11 124.12 L 162.21 124.43 C 161.19 124.77 160.64 125.88 160.99 126.90 C 161.33 127.92 162.44 128.47 163.46 128.12 Z M 164.35 127.81 L 165.25 127.51 C 166.27 127.18 166.82 126.08 166.49 125.06 C 166.15 124.05 165.05 123.49 164.04 123.83 L 163.13 124.12 C 162.12 124.46 161.56 125.56 161.90 126.57 C 162.23 127.59 163.33 128.15 164.35 127.81 Z M 165.23 127.51 L 166.19 127.20 C 167.20 126.88 167.76 125.79 167.44 124.78 C 167.11 123.76 166.03 123.20 165.01 123.53 L 164.06 123.83 C 163.04 124.16 162.48 125.24 162.81 126.26 C 163.13 127.27 164.22 127.83 165.23 127.51 Z M 166.17 127.19 L 167.20 126.87 C 168.21 126.56 168.78 125.49 168.46 124.48 C 168.15 123.47 167.08 122.90 166.07 123.22 L 165.03 123.54 C 164.02 123.85 163.46 124.92 163.77 125.93 C 164.09 126.94 165.16 127.51 166.17 127.19 Z M 167.18 126.86 L 168.18 126.56 C 169.18 126.25 169.75 125.19 169.44 124.19 C 169.14 123.19 168.08 122.62 167.08 122.93 L 166.08 123.23 C 165.08 123.53 164.51 124.59 164.82 125.59 C 165.12 126.60 166.18 127.16 167.18 126.86 Z M 168.16 126.54 L 169.17 126.25 C 170.16 125.95 170.73 124.90 170.44 123.91 C 170.14 122.91 169.10 122.35 168.10 122.64 L 167.09 122.94 C 166.10 123.24 165.53 124.28 165.83 125.28 C 166.12 126.27 167.17 126.84 168.16 126.54 Z M 169.15 126.23 L 170.14 125.94 C 171.13 125.66 171.70 124.63 171.41 123.64 C 171.13 122.65 170.10 122.09 169.11 122.37 L 168.12 122.66 C 167.13 122.94 166.56 123.97 166.85 124.96 C 167.13 125.95 168.16 126.52 169.15 126.23 Z M 170.12 125.93 L 171.05 125.67 C 172.03 125.40 172.60 124.38 172.33 123.40 C 172.06 122.42 171.04 121.85 170.06 122.12 L 169.13 122.38 C 168.15 122.66 167.58 123.67 167.85 124.65 C 168.13 125.63 169.14 126.20 170.12 125.93 Z M 171.02 125.65 L 172.02 125.38 C 172.99 125.13 173.57 124.14 173.31 123.17 C 173.06 122.20 172.07 121.63 171.10 121.88 L 170.10 122.15 C 169.13 122.40 168.55 123.39 168.81 124.36 C 169.06 125.32 170.05 125.90 171.02 125.65 Z M 171.96 125.35 L 172.99 125.11 C 173.94 124.89 174.53 123.95 174.31 123.00 C 174.09 122.05 173.15 121.46 172.20 121.68 L 171.17 121.92 C 170.22 122.13 169.63 123.08 169.85 124.03 C 170.07 124.97 171.01 125.57 171.96 125.35 Z M 172.89 125.07 L 173.77 124.91 C 174.69 124.75 175.31 123.87 175.15 122.95 C 174.99 122.03 174.11 121.41 173.18 121.57 L 172.30 121.72 C 171.38 121.88 170.76 122.76 170.92 123.69 C 171.08 124.61 171.96 125.23 172.89 125.07 Z M 173.66 124.88 L 174.58 124.77 C 175.49 124.67 176.14 123.86 176.04 122.96 C 175.94 122.05 175.12 121.40 174.22 121.50 L 173.29 121.61 C 172.39 121.71 171.74 122.52 171.84 123.42 C 171.94 124.33 172.75 124.98 173.66 124.88 Z M 174.51 124.75 L 175.51 124.68 C 176.39 124.62 177.07 123.86 177.01 122.97 C 176.95 122.08 176.18 121.41 175.30 121.47 L 174.30 121.53 C 173.41 121.59 172.74 122.36 172.79 123.24 C 172.85 124.13 173.62 124.80 174.51 124.75 Z M 175.47 124.66 L 176.29 124.62 C 177.17 124.58 177.85 123.84 177.81 122.97 C 177.77 122.09 177.03 121.41 176.15 121.45 L 175.33 121.49 C 174.45 121.53 173.78 122.27 173.82 123.14 C 173.85 124.02 174.60 124.70 175.47 124.66 Z"
      fill="black"
      fill-rule="nonzero" /><path d="M 165.47 117.21 L 165.12 115.85 C 164.89 114.94 163.96 114.38 163.05 114.62 C 162.13 114.85 161.58 115.78 161.81 116.70 L 162.16 118.06 C 162.40 118.97 163.33 119.52 164.24 119.29 C 165.16 119.06 165.71 118.13 165.47 117.21 Z M 165.21 115.73 L 164.95 114.89 C 164.65 113.92 163.63 113.38 162.66 113.68 C 161.70 113.98 161.16 115.01 161.46 115.97 L 161.72 116.82 C 162.02 117.78 163.05 118.32 164.01 118.02 C 164.98 117.72 165.51 116.70 165.21 115.73 Z M 161.94 113.97 L 161.85 114.05 C 161.05 114.75 160.96 115.97 161.66 116.77 C 162.35 117.58 163.57 117.66 164.37 116.97 L 164.47 116.88 C 165.27 116.19 165.36 114.97 164.66 114.17 C 163.96 113.36 162.75 113.28 161.94 113.97 Z M 161.14 115.59 L 161.17 116.28 C 161.22 117.37 162.13 118.21 163.22 118.17 C 164.31 118.12 165.15 117.20 165.11 116.12 L 165.08 115.43 C 165.03 114.34 164.12 113.50 163.03 113.54 C 161.94 113.59 161.10 114.50 161.14 115.59 Z M 161.17 116.36 L 161.25 117.44 C 161.34 118.53 162.30 119.34 163.39 119.25 C 164.48 119.16 165.29 118.21 165.20 117.12 L 165.11 116.04 C 165.02 114.95 164.07 114.14 162.98 114.23 C 161.89 114.31 161.08 115.27 161.17 116.36 Z M 161.25 117.45 L 161.36 118.76 C 161.46 119.85 162.42 120.66 163.52 120.56 C 164.61 120.47 165.42 119.50 165.32 118.41 L 165.21 117.11 C 165.11 116.01 164.15 115.20 163.05 115.30 C 161.96 115.39 161.15 116.36 161.25 117.45 Z M 161.35 118.75 L 161.45 119.94 C 161.54 121.03 162.50 121.85 163.60 121.76 C 164.70 121.67 165.52 120.71 165.43 119.61 L 165.33 118.42 C 165.24 117.32 164.28 116.51 163.18 116.60 C 162.08 116.69 161.26 117.65 161.35 118.75 Z M 161.45 119.92 L 161.52 120.94 C 161.60 122.04 162.56 122.87 163.65 122.79 C 164.75 122.71 165.58 121.76 165.50 120.66 L 165.43 119.63 C 165.35 118.53 164.40 117.71 163.30 117.78 C 162.20 117.86 161.37 118.82 161.45 119.92 Z M 161.52 120.92 L 161.59 121.94 C 161.65 123.03 162.60 123.87 163.70 123.80 C 164.79 123.73 165.63 122.79 165.56 121.69 L 165.50 120.68 C 165.43 119.58 164.49 118.75 163.39 118.81 C 162.29 118.88 161.46 119.83 161.52 120.92 Z M 161.59 121.92 L 161.64 122.91 C 161.70 124.00 162.63 124.85 163.73 124.79 C 164.82 124.73 165.67 123.80 165.61 122.70 L 165.56 121.71 C 165.50 120.62 164.57 119.77 163.47 119.83 C 162.38 119.88 161.53 120.82 161.59 121.92 Z M 161.64 122.89 L 161.68 123.85 C 161.73 124.95 162.65 125.80 163.75 125.75 C 164.84 125.71 165.69 124.79 165.65 123.69 L 165.61 122.72 C 165.56 121.63 164.64 120.78 163.54 120.82 C 162.45 120.87 161.60 121.79 161.64 122.89 Z M 161.68 123.83 L 161.72 124.87 C 161.75 125.96 162.66 126.82 163.75 126.79 C 164.85 126.76 165.71 125.84 165.68 124.75 L 165.64 123.71 C 165.61 122.62 164.70 121.76 163.61 121.79 C 162.51 121.82 161.65 122.74 161.68 123.83 Z M 161.72 124.84 L 161.74 125.93 C 161.76 127.02 162.66 127.89 163.75 127.87 C 164.84 127.85 165.71 126.95 165.69 125.86 L 165.67 124.77 C 165.65 123.68 164.75 122.82 163.66 122.84 C 162.57 122.86 161.70 123.76 161.72 124.84 Z M 161.75 125.91 L 161.76 126.93 C 161.77 128.01 162.66 128.88 163.74 128.87 C 164.83 128.86 165.70 127.98 165.69 126.89 L 165.68 125.88 C 165.67 124.79 164.78 123.92 163.70 123.93 C 162.61 123.94 161.74 124.83 161.75 125.91 Z M 161.77 126.92 L 161.78 127.85 C 161.78 128.93 162.66 129.80 163.73 129.79 C 164.81 129.79 165.68 128.91 165.68 127.84 L 165.67 126.91 C 165.67 125.83 164.80 124.96 163.72 124.96 C 162.64 124.97 161.77 125.84 161.77 126.92 Z M 161.79 127.84 L 161.79 128.81 C 161.79 129.88 162.66 130.75 163.73 130.75 C 164.80 130.75 165.66 129.88 165.66 128.81 L 165.66 127.84 C 165.66 126.77 164.80 125.91 163.73 125.91 C 162.66 125.91 161.79 126.77 161.79 127.84 Z M 161.81 128.81 L 161.81 129.87 C 161.81 130.93 162.67 131.78 163.73 131.78 C 164.79 131.78 165.64 130.93 165.64 129.87 L 165.64 128.81 C 165.64 127.75 164.79 126.90 163.73 126.90 C 162.67 126.90 161.81 127.75 161.81 128.81 Z M 161.84 129.87 L 161.84 130.78 C 161.84 131.83 162.68 132.68 163.73 132.68 C 164.77 132.68 165.62 131.83 165.62 130.78 L 165.62 129.87 C 165.62 128.82 164.77 127.97 163.73 127.97 C 162.68 127.97 161.84 128.82 161.84 129.87 Z M 161.86 130.78 L 161.86 131.74 C 161.86 132.78 162.69 133.61 163.73 133.61 C 164.76 133.61 165.60 132.78 165.60 131.74 L 165.60 130.78 C 165.60 129.75 164.76 128.91 163.73 128.91 C 162.69 128.91 161.86 129.75 161.86 130.78 Z M 161.88 131.74 L 161.88 132.74 C 161.88 133.77 162.71 134.59 163.73 134.59 C 164.75 134.59 165.58 133.77 165.58 132.74 L 165.58 131.74 C 165.58 130.72 164.75 129.89 163.73 129.89 C 162.71 129.89 161.88 130.72 161.88 131.74 Z M 161.89 132.74 L 161.89 133.75 C 161.89 134.76 162.72 135.58 163.73 135.58 C 164.74 135.58 165.56 134.76 165.56 133.75 L 165.56 132.74 C 165.56 131.73 164.74 130.91 163.73 130.91 C 162.72 130.91 161.89 131.73 161.89 132.74 Z M 161.91 133.75 L 161.91 134.75 C 161.91 135.76 162.73 136.57 163.73 136.57 C 164.73 136.57 165.54 135.76 165.54 134.75 L 165.54 133.75 C 165.54 132.74 164.73 131.93 163.73 131.93 C 162.73 131.93 161.91 132.74 161.91 133.75 Z M 161.93 134.75 L 161.93 135.74 C 161.93 136.74 162.74 137.54 163.73 137.54 C 164.72 137.54 165.52 136.74 165.52 135.74 L 165.52 134.75 C 165.52 133.76 164.72 132.96 163.73 132.96 C 162.74 132.96 161.93 133.76 161.93 134.75 Z M 161.95 135.74 L 161.95 136.75 C 161.95 137.73 162.75 138.52 163.73 138.52 C 164.71 138.52 165.50 137.73 165.50 136.75 L 165.50 135.74 C 165.50 134.76 164.71 133.97 163.73 133.97 C 162.75 133.97 161.95 134.76 161.95 135.74 Z M 161.98 136.75 L 161.98 137.74 C 161.98 138.71 162.76 139.49 163.73 139.49 C 164.69 139.49 165.47 138.71 165.47 137.74 L 165.47 136.75 C 165.47 135.78 164.69 135.00 163.73 135.00 C 162.76 135.00 161.98 135.78 161.98 136.75 Z M 162.01 137.74 L 162.01 138.72 C 162.01 139.67 162.78 140.44 163.73 140.44 C 164.68 140.44 165.45 139.67 165.45 138.72 L 165.45 137.74 C 165.45 136.79 164.68 136.02 163.73 136.02 C 162.78 136.02 162.01 136.79 162.01 137.74 Z M 162.04 138.72 L 162.04 139.71 C 162.04 140.65 162.79 141.40 163.73 141.40 C 164.66 141.40 165.42 140.65 165.42 139.71 L 165.42 138.72 C 165.42 137.78 164.66 137.03 163.73 137.03 C 162.79 137.03 162.04 137.78 162.04 138.72 Z M 162.07 139.71 L 162.07 140.74 C 162.07 141.66 162.81 142.40 163.73 142.40 C 164.65 142.40 165.39 141.66 165.39 140.74 L 165.39 139.71 C 165.39 138.80 164.64 138.05 163.73 138.05 C 162.81 138.05 162.07 138.80 162.07 139.71 Z M 162.09 140.75 L 162.10 141.77 C 162.11 142.67 162.85 143.40 163.75 143.39 C 164.66 143.38 165.39 142.64 165.38 141.73 L 165.37 140.72 C 165.36 139.82 164.62 139.09 163.71 139.10 C 162.81 139.11 162.08 139.85 162.09 140.75 Z M 162.12 141.81 L 162.16 142.81 C 162.19 143.71 162.95 144.40 163.84 144.37 C 164.74 144.33 165.43 143.58 165.40 142.68 L 165.36 141.69 C 165.32 140.79 164.57 140.09 163.67 140.13 C 162.78 140.16 162.08 140.92 162.12 141.81 Z M 162.18 142.90 L 162.28 143.92 C 162.37 144.80 163.15 145.45 164.03 145.36 C 164.91 145.28 165.56 144.49 165.47 143.61 L 165.37 142.59 C 165.29 141.71 164.50 141.07 163.62 141.15 C 162.74 141.24 162.09 142.02 162.18 142.90 Z M 162.31 144.00 L 162.46 144.98 C 162.59 145.84 163.39 146.44 164.26 146.31 C 165.13 146.18 165.72 145.37 165.59 144.51 L 165.44 143.53 C 165.31 142.67 164.51 142.07 163.64 142.20 C 162.78 142.33 162.18 143.14 162.31 144.00 Z M 162.48 145.01 L 162.55 145.47 C 162.70 146.33 163.51 146.90 164.37 146.76 C 165.22 146.61 165.80 145.80 165.65 144.95 L 165.57 144.48 C 165.43 143.62 164.62 143.05 163.76 143.19 C 162.91 143.34 162.33 144.15 162.48 145.01 Z"
      fill="black"
      fill-rule="nonzero" /><path d="M 151.09 151.68 L 151.97 151.37 C 152.97 151.01 153.49 149.92 153.14 148.92 C 152.79 147.91 151.69 147.39 150.69 147.74 L 149.81 148.05 C 148.81 148.40 148.28 149.50 148.63 150.50 C 148.99 151.50 150.08 152.03 151.09 151.68 Z M 152.00 151.52 L 152.96 151.19 C 154.04 150.82 154.62 149.64 154.25 148.55 C 153.88 147.47 152.70 146.89 151.61 147.26 L 150.66 147.59 C 149.57 147.96 148.99 149.14 149.36 150.23 C 149.74 151.31 150.92 151.89 152.00 151.52 Z M 152.97 151.31 L 153.91 151.00 C 155.06 150.62 155.69 149.38 155.31 148.23 C 154.94 147.08 153.70 146.45 152.54 146.83 L 151.60 147.14 C 150.45 147.52 149.82 148.76 150.20 149.91 C 150.58 151.06 151.82 151.69 152.97 151.31 Z M 153.90 151.05 L 154.80 150.76 C 155.98 150.39 156.63 149.14 156.26 147.96 C 155.89 146.79 154.64 146.13 153.46 146.50 L 152.56 146.79 C 151.38 147.16 150.73 148.41 151.10 149.59 C 151.47 150.76 152.72 151.42 153.90 151.05 Z M 154.77 150.77 L 155.76 150.48 C 156.94 150.12 157.61 148.87 157.25 147.69 C 156.90 146.51 155.65 145.84 154.47 146.20 L 153.48 146.50 C 152.30 146.85 151.63 148.10 151.99 149.28 C 152.35 150.46 153.59 151.13 154.77 150.77 Z M 155.73 150.48 L 156.78 150.18 C 157.96 149.84 158.65 148.60 158.31 147.42 C 157.97 146.23 156.73 145.55 155.54 145.89 L 154.50 146.19 C 153.31 146.53 152.63 147.77 152.97 148.95 C 153.31 150.14 154.54 150.82 155.73 150.48 Z M 156.75 150.19 L 157.75 149.91 C 158.94 149.59 159.64 148.36 159.31 147.17 C 158.99 145.98 157.76 145.28 156.57 145.61 L 155.57 145.88 C 154.38 146.21 153.68 147.44 154.01 148.63 C 154.34 149.82 155.56 150.52 156.75 150.19 Z M 157.73 149.92 L 158.73 149.65 C 159.92 149.34 160.63 148.12 160.32 146.92 C 160.00 145.73 158.78 145.02 157.59 145.34 L 156.59 145.61 C 155.40 145.92 154.69 147.14 155.00 148.33 C 155.32 149.53 156.54 150.23 157.73 149.92 Z M 158.72 149.65 L 159.67 149.41 C 160.87 149.10 161.58 147.88 161.28 146.69 C 160.97 145.50 159.75 144.78 158.56 145.09 L 157.60 145.34 C 156.41 145.65 155.69 146.86 156.00 148.05 C 156.31 149.25 157.52 149.96 158.72 149.65 Z M 159.66 149.41 L 160.62 149.17 C 161.81 148.86 162.54 147.65 162.24 146.46 C 161.93 145.27 160.72 144.55 159.53 144.85 L 158.57 145.09 C 157.38 145.39 156.66 146.60 156.96 147.79 C 157.26 148.99 158.47 149.71 159.66 149.41 Z M 160.61 149.16 L 161.63 148.91 C 162.82 148.62 163.55 147.42 163.25 146.23 C 162.96 145.03 161.76 144.31 160.57 144.60 L 159.55 144.85 C 158.36 145.14 157.63 146.35 157.92 147.54 C 158.21 148.73 159.42 149.46 160.61 149.16 Z M 161.61 148.91 L 162.52 148.69 C 163.71 148.41 164.44 147.22 164.16 146.03 C 163.88 144.84 162.69 144.11 161.50 144.39 L 160.59 144.60 C 159.40 144.89 158.66 146.08 158.95 147.27 C 159.23 148.45 160.42 149.19 161.61 148.91 Z M 162.50 148.68 L 163.43 148.47 C 164.62 148.20 165.36 147.02 165.09 145.83 C 164.81 144.65 163.63 143.91 162.45 144.18 L 161.52 144.39 C 160.34 144.67 159.60 145.85 159.87 147.03 C 160.14 148.21 161.32 148.95 162.50 148.68 Z M 163.41 148.46 L 164.39 148.24 C 165.57 147.98 166.32 146.81 166.05 145.64 C 165.79 144.46 164.63 143.71 163.45 143.97 L 162.47 144.19 C 161.29 144.45 160.55 145.62 160.81 146.80 C 161.07 147.98 162.24 148.72 163.41 148.46 Z M 164.37 148.23 L 165.36 148.02 C 166.53 147.77 167.27 146.62 167.02 145.44 C 166.77 144.27 165.62 143.53 164.45 143.78 L 163.47 143.99 C 162.29 144.24 161.55 145.39 161.80 146.56 C 162.05 147.74 163.20 148.48 164.37 148.23 Z M 165.34 148.01 L 166.33 147.80 C 167.49 147.56 168.24 146.42 168.00 145.26 C 167.76 144.09 166.62 143.34 165.46 143.59 L 164.47 143.79 C 163.30 144.03 162.55 145.17 162.79 146.33 C 163.03 147.50 164.17 148.25 165.34 148.01 Z M 166.31 147.78 L 167.29 147.59 C 168.44 147.36 169.19 146.23 168.96 145.08 C 168.73 143.92 167.60 143.17 166.45 143.41 L 165.47 143.60 C 164.32 143.83 163.57 144.96 163.80 146.11 C 164.03 147.27 165.16 148.02 166.31 147.78 Z M 167.28 147.57 L 168.16 147.40 C 169.31 147.17 170.05 146.06 169.82 144.91 C 169.60 143.77 168.49 143.03 167.34 143.25 L 166.46 143.43 C 165.32 143.65 164.57 144.76 164.80 145.91 C 165.02 147.05 166.13 147.80 167.28 147.57 Z M 168.15 147.37 L 168.99 147.21 C 170.13 146.99 170.87 145.89 170.64 144.76 C 170.42 143.62 169.32 142.88 168.19 143.11 L 167.35 143.27 C 166.22 143.49 165.48 144.59 165.70 145.73 C 165.92 146.86 167.02 147.60 168.15 147.37 Z M 168.99 147.19 L 170.01 146.99 C 171.14 146.77 171.87 145.68 171.65 144.56 C 171.43 143.44 170.34 142.71 169.22 142.93 L 168.19 143.13 C 167.07 143.35 166.34 144.44 166.56 145.56 C 166.78 146.68 167.87 147.41 168.99 147.19 Z M 170.01 146.97 L 171.14 146.75 C 172.25 146.53 172.97 145.45 172.75 144.34 C 172.53 143.23 171.46 142.51 170.35 142.73 L 169.22 142.95 C 168.11 143.17 167.39 144.24 167.61 145.35 C 167.82 146.46 168.90 147.19 170.01 146.97 Z M 171.13 146.73 L 172.07 146.55 C 173.17 146.33 173.88 145.26 173.67 144.16 C 173.45 143.06 172.38 142.34 171.28 142.56 L 170.35 142.74 C 169.25 142.96 168.53 144.03 168.75 145.13 C 168.96 146.23 170.03 146.95 171.13 146.73 Z M 172.06 146.53 L 173.07 146.34 C 174.16 146.12 174.88 145.06 174.66 143.97 C 174.45 142.88 173.39 142.16 172.30 142.38 L 171.29 142.57 C 170.20 142.79 169.48 143.85 169.70 144.94 C 169.91 146.03 170.97 146.75 172.06 146.53 Z M 173.06 146.32 L 174.10 146.12 C 175.19 145.91 175.90 144.86 175.69 143.78 C 175.48 142.69 174.43 141.98 173.35 142.19 L 172.31 142.39 C 171.22 142.60 170.51 143.65 170.72 144.73 C 170.93 145.82 171.98 146.53 173.06 146.32 Z M 174.09 146.11 L 175.11 145.92 C 176.18 145.71 176.89 144.68 176.69 143.60 C 176.49 142.52 175.45 141.81 174.37 142.01 L 173.36 142.20 C 172.28 142.41 171.57 143.45 171.77 144.52 C 171.97 145.60 173.01 146.31 174.09 146.11 Z M 175.09 145.90 L 176.10 145.72 C 177.17 145.52 177.88 144.50 177.68 143.43 C 177.49 142.36 176.47 141.65 175.40 141.85 L 174.39 142.03 C 173.32 142.23 172.61 143.25 172.80 144.32 C 173.00 145.39 174.02 146.09 175.09 145.90 Z M 176.07 145.67 L 177.24 145.47 C 178.29 145.29 178.99 144.30 178.81 143.26 C 178.63 142.22 177.64 141.52 176.60 141.69 L 175.43 141.89 C 174.38 142.07 173.68 143.06 173.86 144.10 C 174.04 145.15 175.03 145.85 176.07 145.67 Z M 177.20 145.40 L 178.19 145.25 C 179.20 145.10 179.89 144.15 179.73 143.15 C 179.58 142.14 178.63 141.45 177.63 141.61 L 176.64 141.76 C 175.63 141.92 174.95 142.86 175.10 143.86 C 175.26 144.87 176.20 145.56 177.20 145.40 Z M 178.15 145.18 L 179.00 145.07 C 179.97 144.93 180.64 144.04 180.51 143.07 C 180.37 142.10 179.48 141.43 178.51 141.56 L 177.67 141.68 C 176.70 141.81 176.02 142.70 176.16 143.67 C 176.29 144.64 177.18 145.32 178.15 145.18 Z M 178.96 145.00 L 179.91 144.89 C 180.85 144.77 181.51 143.93 181.40 142.99 C 181.29 142.06 180.44 141.39 179.50 141.51 L 178.55 141.62 C 177.62 141.74 176.95 142.58 177.07 143.52 C 177.18 144.45 178.03 145.12 178.96 145.00 Z M 179.88 144.84 L 180.87 144.73 C 181.78 144.64 182.43 143.83 182.34 142.92 C 182.24 142.02 181.43 141.36 180.53 141.45 L 179.54 141.56 C 178.63 141.65 177.97 142.46 178.07 143.37 C 178.16 144.28 178.98 144.93 179.88 144.84 Z M 180.85 144.69 L 181.59 144.62 C 182.48 144.54 183.12 143.75 183.04 142.87 C 182.96 141.99 182.17 141.34 181.29 141.42 L 180.55 141.49 C 179.66 141.58 179.02 142.36 179.10 143.25 C 179.19 144.13 179.97 144.78 180.85 144.69 Z"
      fill="black"
      fill-rule="nonzero" /><path d="M 153.10 162.26 L 152.47 163.00 C 151.89 163.68 151.97 164.71 152.66 165.30 C 153.34 165.88 154.37 165.80 154.96 165.11 L 155.59 164.37 C 156.17 163.69 156.09 162.66 155.40 162.08 C 154.72 161.49 153.69 161.57 153.10 162.26 Z M 152.42 162.99 L 151.78 163.76 C 151.19 164.47 151.29 165.53 152.00 166.12 C 152.71 166.71 153.77 166.62 154.36 165.90 L 155.01 165.13 C 155.60 164.41 155.50 163.35 154.78 162.76 C 154.07 162.17 153.01 162.27 152.42 162.99 Z M 151.69 163.75 L 150.94 164.71 C 150.35 165.47 150.48 166.57 151.25 167.17 C 152.01 167.76 153.11 167.63 153.71 166.87 L 154.45 165.91 C 155.05 165.15 154.91 164.05 154.15 163.45 C 153.39 162.85 152.29 162.99 151.69 163.75 Z M 150.74 164.78 L 150.21 165.62 C 149.65 166.50 149.91 167.65 150.79 168.21 C 151.66 168.76 152.82 168.51 153.37 167.63 L 153.91 166.79 C 154.46 165.92 154.20 164.76 153.33 164.20 C 152.46 163.65 151.30 163.91 150.74 164.78 Z M 150.97 168.44 L 151.24 168.56 C 152.24 169.02 153.42 168.57 153.87 167.57 C 154.33 166.57 153.89 165.39 152.89 164.94 L 152.62 164.82 C 151.62 164.36 150.44 164.80 149.98 165.80 C 149.53 166.80 149.97 167.98 150.97 168.44 Z M 153.02 168.58 L 154.06 168.03 C 155.07 167.50 155.46 166.26 154.93 165.25 C 154.41 164.24 153.16 163.85 152.15 164.38 L 151.11 164.92 C 150.10 165.45 149.71 166.70 150.24 167.70 C 150.76 168.71 152.01 169.10 153.02 168.58 Z M 154.09 168.05 L 155.02 167.56 C 156.04 167.02 156.43 165.75 155.89 164.73 C 155.34 163.70 154.08 163.32 153.05 163.86 L 152.12 164.35 C 151.10 164.90 150.71 166.17 151.26 167.19 C 151.80 168.21 153.07 168.60 154.09 168.05 Z M 154.95 167.61 L 155.84 167.18 C 156.89 166.67 157.33 165.41 156.83 164.36 C 156.32 163.32 155.06 162.88 154.01 163.38 L 153.12 163.81 C 152.07 164.32 151.63 165.58 152.14 166.63 C 152.65 167.67 153.91 168.11 154.95 167.61 Z M 155.77 167.22 L 156.73 166.80 C 157.80 166.33 158.29 165.09 157.82 164.02 C 157.36 162.95 156.11 162.46 155.04 162.92 L 154.08 163.34 C 153.01 163.81 152.52 165.06 152.99 166.13 C 153.46 167.20 154.70 167.68 155.77 167.22 Z M 156.66 166.83 L 157.49 166.51 C 158.57 166.08 159.11 164.85 158.68 163.76 C 158.25 162.67 157.02 162.14 155.93 162.57 L 155.11 162.89 C 154.02 163.32 153.48 164.55 153.92 165.64 C 154.35 166.73 155.58 167.26 156.66 166.83 Z M 157.43 166.53 L 158.31 166.21 C 159.41 165.81 159.98 164.60 159.58 163.50 C 159.18 162.40 157.97 161.83 156.87 162.23 L 155.99 162.54 C 154.89 162.94 154.32 164.16 154.71 165.26 C 155.11 166.36 156.33 166.93 157.43 166.53 Z M 158.25 166.23 L 159.25 165.90 C 160.36 165.53 160.96 164.33 160.59 163.22 C 160.23 162.11 159.03 161.51 157.91 161.88 L 156.92 162.21 C 155.81 162.57 155.21 163.77 155.58 164.89 C 155.94 166.00 157.14 166.60 158.25 166.23 Z M 159.20 165.92 L 160.28 165.59 C 161.40 165.24 162.03 164.06 161.68 162.94 C 161.34 161.82 160.15 161.19 159.03 161.53 L 157.96 161.86 C 156.84 162.21 156.21 163.39 156.55 164.51 C 156.90 165.63 158.08 166.26 159.20 165.92 Z M 160.25 165.60 L 161.18 165.33 C 162.30 165.00 162.95 163.82 162.62 162.70 C 162.29 161.57 161.12 160.92 159.99 161.25 L 159.06 161.52 C 157.94 161.85 157.29 163.03 157.62 164.15 C 157.95 165.28 159.12 165.92 160.25 165.60 Z M 161.16 165.33 L 162.14 165.06 C 163.27 164.74 163.93 163.57 163.61 162.44 C 163.29 161.31 162.12 160.65 160.99 160.97 L 160.01 161.25 C 158.88 161.56 158.23 162.73 158.54 163.86 C 158.86 164.99 160.03 165.65 161.16 165.33 Z M 162.12 165.06 L 163.12 164.79 C 164.25 164.49 164.92 163.32 164.62 162.19 C 164.31 161.06 163.14 160.39 162.01 160.70 L 161.01 160.97 C 159.88 161.27 159.21 162.44 159.52 163.57 C 159.82 164.70 160.99 165.37 162.12 165.06 Z M 163.10 164.80 L 164.09 164.54 C 165.22 164.24 165.90 163.08 165.60 161.95 C 165.31 160.82 164.15 160.14 163.02 160.43 L 162.03 160.69 C 160.90 160.99 160.22 162.14 160.51 163.28 C 160.81 164.41 161.97 165.09 163.10 164.80 Z M 164.07 164.54 L 165.03 164.30 C 166.16 164.02 166.85 162.87 166.57 161.73 C 166.29 160.60 165.13 159.90 164.00 160.19 L 163.04 160.43 C 161.90 160.71 161.21 161.86 161.49 163.00 C 161.78 164.14 162.93 164.83 164.07 164.54 Z M 165.00 164.31 L 166.02 164.07 C 167.15 163.79 167.86 162.65 167.59 161.52 C 167.32 160.38 166.18 159.68 165.04 159.95 L 164.02 160.19 C 162.89 160.46 162.18 161.60 162.45 162.74 C 162.72 163.87 163.86 164.58 165.00 164.31 Z M 165.99 164.06 L 166.95 163.85 C 168.09 163.59 168.80 162.46 168.54 161.32 C 168.29 160.19 167.16 159.47 166.02 159.73 L 165.06 159.95 C 163.92 160.20 163.21 161.33 163.47 162.47 C 163.72 163.61 164.85 164.32 165.99 164.06 Z M 166.93 163.85 L 167.87 163.64 C 169.01 163.39 169.73 162.27 169.48 161.13 C 169.23 160.00 168.11 159.28 166.98 159.53 L 166.03 159.73 C 164.90 159.98 164.18 161.10 164.43 162.24 C 164.68 163.37 165.80 164.09 166.93 163.85 Z M 167.87 163.63 L 168.84 163.42 C 169.97 163.18 170.69 162.06 170.45 160.93 C 170.20 159.80 169.08 159.08 167.95 159.32 L 166.98 159.53 C 165.85 159.78 165.13 160.90 165.37 162.03 C 165.62 163.16 166.74 163.88 167.87 163.63 Z M 168.84 163.41 L 169.84 163.20 C 170.97 162.95 171.68 161.83 171.43 160.71 C 171.18 159.58 170.07 158.87 168.94 159.11 L 167.95 159.33 C 166.82 159.58 166.11 160.69 166.35 161.82 C 166.60 162.95 167.72 163.66 168.84 163.41 Z M 169.84 163.18 L 170.86 162.96 C 171.98 162.71 172.69 161.59 172.44 160.47 C 172.19 159.35 171.08 158.65 169.96 158.90 L 168.94 159.13 C 167.82 159.38 167.11 160.49 167.36 161.61 C 167.61 162.73 168.72 163.43 169.84 163.18 Z M 170.87 162.94 L 171.88 162.71 C 172.99 162.46 173.69 161.35 173.43 160.24 C 173.18 159.12 172.07 158.43 170.96 158.68 L 169.95 158.91 C 168.84 159.16 168.14 160.27 168.39 161.39 C 168.65 162.50 169.76 163.20 170.87 162.94 Z M 171.89 162.70 L 172.83 162.48 C 173.94 162.22 174.62 161.11 174.36 160.01 C 174.10 158.90 173.00 158.21 171.89 158.47 L 170.95 158.69 C 169.84 158.95 169.15 160.06 169.41 161.17 C 169.67 162.27 170.78 162.96 171.89 162.70 Z M 172.84 162.46 L 173.85 162.21 C 174.94 161.94 175.61 160.84 175.35 159.75 C 175.08 158.65 173.98 157.98 172.88 158.25 L 171.88 158.50 C 170.78 158.76 170.11 159.87 170.38 160.96 C 170.65 162.05 171.75 162.72 172.84 162.46 Z M 173.89 162.16 L 174.91 161.89 C 175.97 161.60 176.61 160.50 176.32 159.44 C 176.03 158.37 174.93 157.74 173.87 158.02 L 172.85 158.30 C 171.78 158.59 171.15 159.68 171.44 160.75 C 171.72 161.82 172.82 162.45 173.89 162.16 Z M 174.98 161.82 L 175.85 161.54 C 176.88 161.21 177.44 160.11 177.11 159.08 C 176.78 158.05 175.68 157.49 174.66 157.82 L 173.79 158.10 C 172.76 158.43 172.20 159.53 172.53 160.55 C 172.86 161.58 173.96 162.15 174.98 161.82 Z M 175.95 161.45 L 176.81 161.11 C 177.79 160.73 178.27 159.62 177.89 158.64 C 177.50 157.66 176.39 157.18 175.41 157.57 L 174.56 157.90 C 173.58 158.29 173.09 159.40 173.48 160.38 C 173.87 161.36 174.97 161.84 175.95 161.45 Z M 176.89 161.03 L 177.79 160.62 C 178.73 160.19 179.14 159.08 178.71 158.15 C 178.28 157.21 177.17 156.80 176.24 157.23 L 175.33 157.65 C 174.40 158.08 173.99 159.18 174.42 160.12 C 174.85 161.05 175.95 161.46 176.89 161.03 Z M 177.82 160.56 L 178.73 160.11 C 179.63 159.66 180.00 158.57 179.56 157.67 C 179.11 156.77 178.02 156.40 177.12 156.84 L 176.21 157.29 C 175.31 157.74 174.94 158.83 175.38 159.73 C 175.83 160.63 176.92 161.00 177.82 160.56 Z M 178.73 160.08 L 178.92 159.98 C 179.81 159.54 180.17 158.46 179.72 157.57 C 179.27 156.69 178.19 156.33 177.31 156.78 L 177.12 156.87 C 176.23 157.32 175.88 158.40 176.32 159.28 C 176.77 160.17 177.85 160.52 178.73 160.08 Z"
      fill="black"
      fill-rule="nonzero" /><path d="M 164.19 146.17 L 163.81 146.96 C 163.40 147.80 163.75 148.81 164.59 149.22 C 165.44 149.63 166.45 149.27 166.86 148.43 L 167.24 147.64 C 167.64 146.80 167.29 145.79 166.45 145.38 C 165.61 144.97 164.59 145.33 164.19 146.17 Z M 163.65 147.02 L 163.29 147.92 C 162.92 148.85 163.37 149.91 164.30 150.28 C 165.23 150.65 166.29 150.20 166.66 149.26 L 167.02 148.37 C 167.39 147.44 166.93 146.38 166.00 146.01 C 165.07 145.64 164.02 146.09 163.65 147.02 Z M 163.11 148.07 L 162.80 149.18 C 162.51 150.21 163.11 151.27 164.14 151.56 C 165.17 151.85 166.23 151.25 166.52 150.22 L 166.83 149.12 C 167.12 148.09 166.52 147.02 165.50 146.73 C 164.47 146.44 163.40 147.04 163.11 148.07 Z M 162.70 149.32 L 162.53 150.20 C 162.32 151.29 163.03 152.33 164.11 152.54 C 165.19 152.75 166.24 152.05 166.45 150.97 L 166.62 150.08 C 166.83 149.00 166.12 147.95 165.04 147.74 C 163.96 147.53 162.91 148.24 162.70 149.32 Z M 162.51 150.28 L 162.36 151.26 C 162.19 152.36 162.95 153.38 164.04 153.55 C 165.14 153.71 166.16 152.96 166.33 151.86 L 166.47 150.88 C 166.64 149.79 165.89 148.77 164.79 148.60 C 163.69 148.43 162.67 149.19 162.51 150.28 Z M 162.34 151.31 L 162.21 152.35 C 162.07 153.45 162.86 154.46 163.96 154.60 C 165.07 154.74 166.08 153.95 166.21 152.85 L 166.34 151.81 C 166.48 150.71 165.70 149.70 164.59 149.56 C 163.49 149.42 162.48 150.21 162.34 151.31 Z M 162.20 152.38 L 162.08 153.42 C 161.96 154.54 162.77 155.54 163.88 155.66 C 164.99 155.78 165.99 154.98 166.11 153.86 L 166.23 152.82 C 166.35 151.71 165.55 150.70 164.43 150.58 C 163.32 150.46 162.32 151.26 162.20 152.38 Z M 162.07 153.44 L 161.96 154.52 C 161.85 155.63 162.66 156.63 163.78 156.75 C 164.90 156.86 165.90 156.05 166.01 154.93 L 166.12 153.85 C 166.24 152.73 165.42 151.73 164.31 151.62 C 163.19 151.50 162.19 152.32 162.07 153.44 Z M 161.96 154.52 L 161.85 155.61 C 161.74 156.73 162.56 157.73 163.68 157.84 C 164.80 157.95 165.80 157.13 165.91 156.01 L 166.02 154.92 C 166.13 153.80 165.31 152.80 164.19 152.69 C 163.07 152.58 162.07 153.40 161.96 154.52 Z M 161.85 155.62 L 161.75 156.62 C 161.65 157.75 162.47 158.74 163.60 158.85 C 164.72 158.95 165.72 158.13 165.82 157.00 L 165.91 156.00 C 166.02 154.88 165.19 153.88 164.07 153.78 C 162.95 153.67 161.95 154.50 161.85 155.62 Z M 161.75 156.64 L 161.67 157.56 C 161.57 158.68 162.41 159.67 163.53 159.77 C 164.66 159.87 165.65 159.03 165.75 157.91 L 165.82 156.99 C 165.92 155.86 165.09 154.87 163.96 154.78 C 162.84 154.68 161.85 155.51 161.75 156.64 Z M 161.67 157.58 L 161.60 158.54 C 161.51 159.67 162.36 160.65 163.49 160.74 C 164.61 160.82 165.60 159.97 165.68 158.84 L 165.75 157.88 C 165.83 156.75 164.99 155.77 163.86 155.69 C 162.73 155.61 161.75 156.45 161.67 157.58 Z M 161.59 158.58 L 161.53 159.59 C 161.47 160.72 162.33 161.69 163.46 161.75 C 164.59 161.82 165.56 160.96 165.62 159.83 L 165.68 158.81 C 165.75 157.68 164.88 156.72 163.76 156.65 C 162.63 156.58 161.66 157.45 161.59 158.58 Z M 161.53 159.61 L 161.49 160.55 C 161.43 161.68 162.30 162.65 163.43 162.70 C 164.56 162.76 165.52 161.89 165.58 160.76 L 165.62 159.81 C 165.68 158.68 164.81 157.72 163.68 157.66 C 162.55 157.61 161.59 158.48 161.53 159.61 Z M 161.49 160.54 L 161.43 161.51 C 161.37 162.64 162.24 163.61 163.37 163.67 C 164.50 163.73 165.46 162.86 165.53 161.73 L 165.58 160.77 C 165.64 159.64 164.77 158.67 163.64 158.61 C 162.51 158.55 161.55 159.41 161.49 160.54 Z M 161.43 161.49 L 161.37 162.50 C 161.30 163.63 162.16 164.60 163.29 164.67 C 164.42 164.74 165.39 163.88 165.46 162.75 L 165.52 161.75 C 165.59 160.62 164.74 159.64 163.61 159.57 C 162.48 159.51 161.50 160.36 161.43 161.49 Z M 161.37 162.49 L 161.31 163.50 C 161.23 164.63 162.09 165.60 163.22 165.68 C 164.35 165.75 165.32 164.90 165.40 163.77 L 165.46 162.76 C 165.54 161.63 164.68 160.65 163.55 160.58 C 162.42 160.50 161.45 161.36 161.37 162.49 Z M 161.31 163.50 L 161.24 164.51 C 161.16 165.64 162.02 166.61 163.15 166.69 C 164.28 166.76 165.25 165.91 165.33 164.78 L 165.40 163.77 C 165.47 162.64 164.62 161.66 163.49 161.59 C 162.36 161.51 161.38 162.37 161.31 163.50 Z M 161.24 164.51 L 161.18 165.51 C 161.10 166.64 161.96 167.61 163.09 167.68 C 164.22 167.75 165.19 166.90 165.27 165.77 L 165.33 164.77 C 165.40 163.64 164.54 162.67 163.41 162.60 C 162.28 162.53 161.31 163.39 161.24 164.51 Z M 161.18 165.53 L 161.12 166.52 C 161.06 167.64 161.93 168.61 163.06 168.67 C 164.18 168.73 165.15 167.87 165.21 166.74 L 165.27 165.75 C 165.33 164.62 164.46 163.65 163.33 163.59 C 162.20 163.53 161.24 164.40 161.18 165.53 Z M 161.12 166.54 L 161.08 167.54 C 161.03 168.67 161.91 169.63 163.04 169.68 C 164.17 169.72 165.12 168.85 165.17 167.72 L 165.21 166.71 C 165.26 165.58 164.38 164.63 163.25 164.58 C 162.12 164.53 161.17 165.41 161.12 166.54 Z M 161.08 167.57 L 161.05 168.57 C 161.02 169.70 161.90 170.64 163.03 170.67 C 164.16 170.71 165.10 169.82 165.14 168.69 L 165.17 167.69 C 165.20 166.56 164.31 165.62 163.19 165.59 C 162.06 165.55 161.12 166.44 161.08 167.57 Z M 161.05 168.59 L 161.04 169.60 C 161.02 170.73 161.91 171.66 163.04 171.68 C 164.16 171.70 165.09 170.80 165.11 169.67 L 165.13 168.67 C 165.15 167.54 164.26 166.61 163.13 166.59 C 162.01 166.57 161.08 167.47 161.05 168.59 Z M 161.04 169.62 L 161.03 170.63 C 161.02 171.75 161.92 172.67 163.04 172.68 C 164.17 172.69 165.09 171.79 165.10 170.67 L 165.11 169.66 C 165.12 168.53 164.22 167.61 163.10 167.60 C 161.97 167.59 161.05 168.49 161.04 169.62 Z M 161.04 170.62 L 161.02 171.60 C 161.01 172.72 161.91 173.64 163.02 173.66 C 164.14 173.67 165.06 172.78 165.08 171.66 L 165.09 170.68 C 165.11 169.56 164.21 168.64 163.09 168.62 C 161.97 168.61 161.05 169.50 161.04 170.62 Z M 161.03 171.58 L 161.01 172.50 C 160.98 173.61 161.86 174.54 162.98 174.57 C 164.09 174.59 165.02 173.71 165.05 172.60 L 165.07 171.68 C 165.10 170.57 164.22 169.64 163.10 169.61 C 161.99 169.58 161.06 170.46 161.03 171.58 Z M 161.02 172.49 L 160.99 173.46 C 160.96 174.56 161.83 175.49 162.94 175.52 C 164.05 175.56 164.97 174.69 165.01 173.58 L 165.04 172.61 C 165.07 171.50 164.20 170.57 163.09 170.54 C 161.98 170.51 161.05 171.38 161.02 172.49 Z M 161.00 173.47 L 160.98 174.57 C 160.95 175.68 161.83 176.59 162.93 176.61 C 164.04 176.64 164.95 175.76 164.97 174.66 L 165.00 173.56 C 165.02 172.46 164.15 171.54 163.04 171.52 C 161.94 171.49 161.02 172.37 161.00 173.47 Z M 160.99 174.60 L 160.98 175.59 C 160.98 176.69 161.86 177.58 162.96 177.59 C 164.06 177.59 164.95 176.71 164.96 175.61 L 164.96 174.63 C 164.97 173.53 164.08 172.63 162.99 172.63 C 161.89 172.62 160.99 173.51 160.99 174.60 Z M 160.99 175.65 L 161.02 176.68 C 161.05 177.78 161.95 178.64 163.04 178.61 C 164.13 178.59 165.00 177.68 164.97 176.59 L 164.95 175.55 C 164.92 174.46 164.01 173.60 162.92 173.62 C 161.83 173.65 160.97 174.56 160.99 175.65 Z M 161.04 176.78 L 161.11 177.79 C 161.19 178.87 162.13 179.69 163.22 179.61 C 164.30 179.53 165.11 178.58 165.03 177.50 L 164.95 176.49 C 164.87 175.41 163.93 174.60 162.85 174.68 C 161.77 174.76 160.96 175.70 161.04 176.78 Z M 161.15 177.97 L 161.33 179.00 C 161.50 180.06 162.51 180.77 163.56 180.59 C 164.62 180.41 165.34 179.41 165.16 178.35 L 164.99 177.33 C 164.81 176.27 163.81 175.55 162.75 175.73 C 161.69 175.91 160.98 176.91 161.15 177.97 Z M 161.42 179.24 L 161.72 180.21 C 162.03 181.22 163.10 181.78 164.11 181.47 C 165.11 181.16 165.67 180.10 165.36 179.09 L 165.06 178.11 C 164.75 177.11 163.69 176.54 162.68 176.85 C 161.67 177.17 161.11 178.23 161.42 179.24 Z M 161.84 180.38 L 162.20 181.24 C 162.61 182.18 163.70 182.62 164.64 182.21 C 165.58 181.81 166.02 180.72 165.62 179.77 L 165.25 178.92 C 164.85 177.98 163.76 177.54 162.81 177.94 C 161.87 178.35 161.43 179.44 161.84 180.38 Z M 162.25 181.28 L 162.36 181.50 C 162.78 182.42 163.87 182.81 164.78 182.39 C 165.70 181.96 166.10 180.88 165.67 179.96 L 165.57 179.74 C 165.14 178.82 164.05 178.42 163.14 178.85 C 162.22 179.27 161.83 180.36 162.25 181.28 Z"
      fill="black"
      fill-rule="nonzero" /><path d="M 145.88 183.38 L 144.76 183.91 C 143.86 184.34 143.48 185.42 143.91 186.32 C 144.34 187.21 145.42 187.59 146.32 187.16 L 147.44 186.63 C 148.33 186.20 148.71 185.12 148.28 184.22 C 147.85 183.32 146.78 182.94 145.88 183.38 Z M 143.70 184.83 L 143.58 185.16 C 143.19 186.17 143.69 187.31 144.71 187.70 C 145.72 188.09 146.86 187.58 147.25 186.57 L 147.37 186.24 C 147.76 185.23 147.26 184.09 146.24 183.70 C 145.23 183.31 144.09 183.82 143.70 184.83 Z M 145.16 187.93 L 145.84 188.01 C 146.98 188.15 148.02 187.34 148.16 186.20 C 148.30 185.06 147.49 184.02 146.35 183.88 L 145.67 183.79 C 144.53 183.65 143.49 184.47 143.35 185.61 C 143.21 186.75 144.02 187.79 145.16 187.93 Z M 146.20 188.10 L 147.46 188.04 C 148.66 187.98 149.58 186.97 149.52 185.77 C 149.46 184.58 148.44 183.66 147.25 183.72 L 145.99 183.78 C 144.79 183.84 143.87 184.86 143.93 186.05 C 143.99 187.25 145.01 188.16 146.20 188.10 Z M 147.62 188.09 L 148.82 187.94 C 150.03 187.80 150.90 186.69 150.76 185.47 C 150.61 184.26 149.50 183.39 148.29 183.53 L 147.09 183.68 C 145.87 183.82 145.01 184.93 145.15 186.15 C 145.30 187.36 146.40 188.23 147.62 188.09 Z M 148.89 187.95 L 149.87 187.80 C 151.09 187.61 151.93 186.47 151.74 185.25 C 151.56 184.03 150.41 183.19 149.19 183.38 L 148.21 183.53 C 146.99 183.71 146.15 184.85 146.34 186.08 C 146.53 187.30 147.67 188.14 148.89 187.95 Z M 149.91 187.80 L 150.93 187.62 C 152.15 187.42 152.98 186.26 152.77 185.04 C 152.56 183.82 151.40 183.00 150.18 183.20 L 149.16 183.38 C 147.93 183.59 147.11 184.74 147.32 185.96 C 147.53 187.18 148.69 188.01 149.91 187.80 Z M 150.96 187.62 L 151.99 187.44 C 153.21 187.22 154.02 186.05 153.80 184.83 C 153.58 183.61 152.41 182.80 151.19 183.02 L 150.16 183.21 C 148.94 183.43 148.13 184.59 148.35 185.81 C 148.57 187.03 149.74 187.84 150.96 187.62 Z M 152.01 187.44 L 153.00 187.25 C 154.22 187.02 155.03 185.85 154.80 184.63 C 154.57 183.41 153.39 182.60 152.17 182.83 L 151.18 183.02 C 149.96 183.25 149.15 184.42 149.38 185.64 C 149.61 186.86 150.79 187.66 152.01 187.44 Z M 153.01 187.25 L 154.01 187.06 C 155.23 186.83 156.03 185.65 155.80 184.43 C 155.57 183.21 154.39 182.41 153.17 182.64 L 152.17 182.83 C 150.95 183.06 150.14 184.24 150.38 185.46 C 150.61 186.68 151.79 187.48 153.01 187.25 Z M 154.01 187.06 L 155.13 186.85 C 156.35 186.62 157.16 185.44 156.93 184.22 C 156.70 183.00 155.52 182.20 154.30 182.43 L 153.17 182.64 C 151.95 182.87 151.15 184.05 151.38 185.27 C 151.61 186.49 152.78 187.29 154.01 187.06 Z M 155.12 186.85 L 156.08 186.68 C 157.30 186.45 158.11 185.28 157.89 184.05 C 157.66 182.83 156.49 182.02 155.27 182.25 L 154.31 182.42 C 153.08 182.65 152.28 183.82 152.50 185.05 C 152.72 186.27 153.90 187.08 155.12 186.85 Z M 156.07 186.68 L 156.93 186.53 C 158.16 186.31 158.97 185.14 158.76 183.92 C 158.54 182.69 157.37 181.88 156.15 182.09 L 155.28 182.24 C 154.06 182.46 153.24 183.63 153.46 184.85 C 153.67 186.08 154.84 186.89 156.07 186.68 Z M 156.91 186.53 L 157.82 186.38 C 159.05 186.18 159.87 185.02 159.67 183.79 C 159.47 182.56 158.31 181.73 157.08 181.94 L 156.17 182.09 C 154.95 182.29 154.12 183.45 154.32 184.68 C 154.52 185.90 155.68 186.73 156.91 186.53 Z M 157.80 186.38 L 158.78 186.23 C 160.01 186.03 160.84 184.88 160.65 183.65 C 160.46 182.43 159.30 181.59 158.08 181.78 L 157.10 181.93 C 155.87 182.13 155.03 183.28 155.23 184.51 C 155.42 185.74 156.57 186.58 157.80 186.38 Z M 158.77 186.23 L 159.76 186.07 C 160.99 185.89 161.84 184.74 161.65 183.51 C 161.46 182.28 160.31 181.44 159.08 181.63 L 158.08 181.78 C 156.85 181.97 156.01 183.12 156.20 184.35 C 156.39 185.58 157.54 186.42 158.77 186.23 Z M 159.77 186.07 L 160.76 185.92 C 161.99 185.73 162.83 184.57 162.64 183.35 C 162.44 182.12 161.29 181.28 160.06 181.47 L 159.07 181.63 C 157.85 181.82 157.01 182.97 157.20 184.20 C 157.39 185.43 158.54 186.27 159.77 186.07 Z M 160.77 185.91 L 161.74 185.76 C 162.96 185.56 163.80 184.41 163.60 183.18 C 163.40 181.96 162.25 181.12 161.02 181.32 L 160.06 181.48 C 158.83 181.67 158.00 182.83 158.19 184.05 C 158.39 185.28 159.54 186.11 160.77 185.91 Z M 161.74 185.76 L 162.73 185.60 C 163.95 185.40 164.79 184.24 164.59 183.02 C 164.39 181.80 163.24 180.96 162.01 181.16 L 161.02 181.32 C 159.80 181.52 158.96 182.68 159.16 183.90 C 159.36 185.12 160.51 185.96 161.74 185.76 Z M 162.73 185.59 L 163.74 185.43 C 164.96 185.23 165.80 184.08 165.60 182.86 C 165.40 181.64 164.25 180.80 163.03 181.00 L 162.01 181.17 C 160.79 181.36 159.96 182.51 160.16 183.74 C 160.35 184.96 161.50 185.79 162.73 185.59 Z M 163.73 185.43 L 164.71 185.27 C 165.93 185.08 166.77 183.93 166.57 182.71 C 166.38 181.49 165.23 180.66 164.01 180.85 L 163.03 181.00 C 161.81 181.20 160.98 182.35 161.17 183.57 C 161.36 184.79 162.51 185.62 163.73 185.43 Z M 164.71 185.27 L 165.69 185.12 C 166.91 184.92 167.75 183.78 167.55 182.56 C 167.36 181.34 166.22 180.50 165.00 180.70 L 164.01 180.85 C 162.79 181.04 161.96 182.19 162.15 183.41 C 162.34 184.63 163.49 185.46 164.71 185.27 Z M 165.70 185.11 L 166.69 184.95 C 167.91 184.76 168.74 183.61 168.55 182.39 C 168.35 181.17 167.20 180.35 165.99 180.54 L 164.99 180.70 C 163.77 180.90 162.94 182.04 163.14 183.26 C 163.33 184.48 164.48 185.31 165.70 185.11 Z M 166.70 184.95 L 167.70 184.78 C 168.92 184.58 169.74 183.43 169.54 182.22 C 169.34 181.00 168.19 180.18 166.97 180.38 L 165.98 180.55 C 164.76 180.75 163.94 181.89 164.14 183.11 C 164.34 184.33 165.49 185.15 166.70 184.95 Z M 167.71 184.78 L 168.70 184.61 C 169.91 184.40 170.73 183.25 170.52 182.04 C 170.31 180.82 169.16 180.01 167.95 180.22 L 166.96 180.39 C 165.75 180.60 164.94 181.75 165.14 182.96 C 165.35 184.17 166.50 184.98 167.71 184.78 Z M 168.71 184.60 L 169.69 184.43 C 170.90 184.22 171.71 183.07 171.50 181.86 C 171.29 180.65 170.14 179.84 168.93 180.05 L 167.94 180.23 C 166.74 180.44 165.93 181.59 166.14 182.79 C 166.35 184.00 167.50 184.81 168.71 184.60 Z M 169.69 184.42 L 170.67 184.25 C 171.88 184.04 172.69 182.90 172.48 181.69 C 172.27 180.49 171.12 179.68 169.92 179.89 L 168.93 180.06 C 167.73 180.27 166.92 181.41 167.13 182.62 C 167.34 183.82 168.49 184.63 169.69 184.42 Z M 170.66 184.25 L 171.65 184.08 C 172.85 183.88 173.66 182.74 173.45 181.54 C 173.25 180.33 172.11 179.52 170.91 179.73 L 169.93 179.89 C 168.73 180.10 167.92 181.24 168.12 182.44 C 168.32 183.64 169.46 184.45 170.66 184.25 Z M 171.64 184.07 L 172.62 183.91 C 173.82 183.72 174.63 182.58 174.43 181.39 C 174.24 180.19 173.10 179.37 171.91 179.57 L 170.92 179.73 C 169.72 179.93 168.91 181.06 169.11 182.26 C 169.30 183.46 170.44 184.27 171.64 184.07 Z M 172.61 183.91 L 173.60 183.75 C 174.79 183.55 175.60 182.43 175.41 181.23 C 175.22 180.04 174.09 179.22 172.89 179.42 L 171.91 179.58 C 170.71 179.77 169.90 180.90 170.10 182.09 C 170.29 183.29 171.42 184.10 172.61 183.91 Z M 173.60 183.74 L 174.59 183.58 C 175.78 183.38 176.59 182.26 176.39 181.07 C 176.20 179.88 175.07 179.07 173.88 179.26 L 172.89 179.43 C 171.70 179.62 170.89 180.75 171.09 181.94 C 171.28 183.13 172.41 183.93 173.60 183.74 Z M 174.60 183.57 L 175.61 183.40 C 176.79 183.20 177.59 182.07 177.39 180.89 C 177.20 179.70 176.07 178.90 174.89 179.10 L 173.88 179.27 C 172.69 179.47 171.89 180.60 172.09 181.78 C 172.29 182.97 173.41 183.77 174.60 183.57 Z M 175.61 183.38 L 176.62 183.21 C 177.80 183.01 178.59 181.89 178.39 180.71 C 178.19 179.53 177.07 178.74 175.89 178.94 L 174.88 179.12 C 173.70 179.32 172.91 180.44 173.12 181.62 C 173.32 182.79 174.44 183.59 175.61 183.38 Z M 176.63 183.20 L 177.61 183.03 C 178.78 182.83 179.56 181.71 179.36 180.54 C 179.16 179.37 178.05 178.58 176.87 178.79 L 175.89 178.96 C 174.72 179.16 173.93 180.27 174.14 181.44 C 174.34 182.61 175.45 183.40 176.63 183.20 Z M 177.60 183.02 L 178.55 182.85 C 179.71 182.65 180.49 181.55 180.29 180.38 C 180.09 179.22 178.99 178.44 177.82 178.64 L 176.88 178.80 C 175.71 179.00 174.93 180.10 175.13 181.27 C 175.33 182.43 176.44 183.22 177.60 183.02 Z M 178.54 182.84 L 179.50 182.68 C 180.66 182.49 181.44 181.39 181.24 180.23 C 181.05 179.07 179.95 178.29 178.79 178.48 L 177.83 178.65 C 176.67 178.84 175.89 179.94 176.08 181.10 C 176.28 182.26 177.38 183.04 178.54 182.84 Z M 179.50 182.67 L 180.45 182.51 C 181.60 182.31 182.38 181.22 182.18 180.07 C 181.99 178.92 180.90 178.14 179.74 178.33 L 178.79 178.50 C 177.64 178.69 176.86 179.78 177.06 180.94 C 177.25 182.09 178.34 182.86 179.50 182.67 Z M 180.46 182.49 L 181.48 182.32 C 182.62 182.12 183.39 181.03 183.19 179.89 C 182.99 178.74 181.90 177.97 180.76 178.17 L 179.74 178.35 C 178.59 178.55 177.82 179.64 178.02 180.78 C 178.22 181.93 179.31 182.69 180.46 182.49 Z M 181.48 182.30 L 182.46 182.13 C 183.60 181.93 184.35 180.84 184.15 179.70 C 183.95 178.56 182.86 177.81 181.72 178.01 L 180.75 178.19 C 179.61 178.39 178.85 179.48 179.06 180.61 C 179.26 181.75 180.35 182.51 181.48 182.30 Z M 182.46 182.12 L 183.46 181.94 C 184.59 181.73 185.34 180.65 185.14 179.52 C 184.93 178.39 183.85 177.64 182.72 177.84 L 181.72 178.02 C 180.59 178.23 179.84 179.31 180.04 180.44 C 180.25 181.57 181.33 182.32 182.46 182.12 Z M 183.45 181.93 L 184.47 181.74 C 185.59 181.54 186.34 180.47 186.14 179.35 C 185.94 178.22 184.87 177.47 183.74 177.67 L 182.73 177.85 C 181.60 178.05 180.85 179.13 181.05 180.25 C 181.25 181.38 182.33 182.13 183.45 181.93 Z M 184.45 181.73 L 185.44 181.57 C 186.56 181.37 187.31 180.31 187.12 179.19 C 186.92 178.07 185.86 177.32 184.74 177.51 L 183.76 177.68 C 182.64 177.88 181.89 178.94 182.08 180.06 C 182.27 181.18 183.33 181.93 184.45 181.73 Z M 185.41 181.55 L 186.48 181.38 C 187.59 181.21 188.35 180.17 188.18 179.06 C 188.00 177.95 186.96 177.19 185.85 177.36 L 184.78 177.53 C 183.67 177.70 182.91 178.74 183.08 179.85 C 183.25 180.96 184.30 181.72 185.41 181.55 Z M 186.40 181.36 L 187.42 181.24 C 188.52 181.11 189.31 180.12 189.18 179.02 C 189.05 177.92 188.06 177.14 186.96 177.26 L 185.94 177.38 C 184.84 177.51 184.05 178.50 184.18 179.60 C 184.31 180.70 185.30 181.49 186.40 181.36 Z M 187.26 181.21 L 188.19 181.18 C 189.28 181.14 190.12 180.23 190.08 179.14 C 190.04 178.06 189.13 177.21 188.05 177.26 L 187.12 177.29 C 186.04 177.33 185.19 178.24 185.23 179.32 C 185.27 180.41 186.18 181.25 187.26 181.21 Z M 187.94 181.13 L 188.89 181.22 C 189.95 181.31 190.88 180.54 190.98 179.48 C 191.07 178.42 190.30 177.49 189.24 177.39 L 188.29 177.30 C 187.24 177.21 186.30 177.99 186.21 179.04 C 186.11 180.10 186.89 181.03 187.94 181.13 Z M 188.64 181.12 L 189.61 181.35 C 190.62 181.58 191.62 180.96 191.86 179.96 C 192.09 178.95 191.47 177.95 190.46 177.71 L 189.49 177.49 C 188.49 177.25 187.48 177.88 187.25 178.88 C 187.01 179.88 187.64 180.89 188.64 181.12 Z M 189.48 181.25 L 190.42 181.55 C 191.37 181.86 192.39 181.34 192.69 180.39 C 193.00 179.44 192.48 178.42 191.53 178.12 L 190.59 177.81 C 189.65 177.51 188.63 178.03 188.32 178.98 C 188.01 179.92 188.53 180.94 189.48 181.25 Z M 190.40 181.51 L 190.54 181.56 C 191.46 181.87 192.47 181.38 192.79 180.46 C 193.10 179.53 192.61 178.52 191.69 178.21 L 191.55 178.16 C 190.63 177.84 189.62 178.33 189.30 179.26 C 188.98 180.18 189.48 181.19 190.40 181.51 Z"
      fill="black"
      fill-rule="nonzero" /></svg>