<svg xmlns="http://www.w3.org/2000/svg" width="300" height="300" viewBox="0 0 300 300">
<path d="M 133.07 122.82 L 132.82 123.79 C 132.54 124.86 133.19 125.95 134.26 126.22 C 135.33 126.50 136.42 125.85 136.69 124.78 L 136.94 123.82 C 137.22 122.75 136.57 121.66 135.50 121.38 C 134.43 121.11 133.34 121.75 133.07 122.82 Z M 132.82 123.75 L 132.56 124.72 C 132.26 125.78 132.89 126.89 133.96 127.18 C 135.02 127.48 136.13 126.85 136.42 125.78 L 136.69 124.82 C 136.98 123.75 136.35 122.65 135.29 122.35 C 134.22 122.06 133.12 122.69 132.82 123.75 Z M 132.57 124.66 L 132.32 125.48 C 131.99 126.54 132.59 127.66 133.65 127.99 C 134.70 128.31 135.83 127.72 136.15 126.66 L 136.41 125.84 C 136.73 124.78 136.14 123.66 135.08 123.33 C 134.02 123.01 132.90 123.60 132.57 124.66 Z M 132.33 125.45 L 132.05 126.32 C 131.70 127.37 132.28 128.50 133.33 128.85 C 134.38 129.19 135.51 128.62 135.86 127.56 L 136.14 126.69 C 136.49 125.64 135.91 124.51 134.86 124.16 C 133.81 123.82 132.67 124.39 132.33 125.45 Z M 132.04 126.32 L 131.68 127.43 C 131.34 128.49 131.92 129.62 132.97 129.96 C 134.03 130.30 135.16 129.72 135.50 128.67 L 135.86 127.56 C 136.20 126.51 135.63 125.37 134.57 125.03 C 133.52 124.69 132.39 125.27 132.04 126.32 Z M 131.68 127.45 L 131.39 128.35 C 131.06 129.41 131.65 130.53 132.70 130.87 C 133.76 131.20 134.89 130.61 135.22 129.56 L 135.50 128.66 C 135.84 127.60 135.25 126.47 134.20 126.14 C 133.14 125.81 132.01 126.39 131.68 127.45 Z M 131.39 128.35 L 131.10 129.27 C 130.77 130.33 131.36 131.46 132.42 131.79 C 133.48 132.12 134.61 131.53 134.94 130.47 L 135.22 129.55 C 135.55 128.49 134.96 127.37 133.90 127.04 C 132.85 126.71 131.72 127.30 131.39 128.35 Z M 131.10 129.27 L 130.80 130.26 C 130.47 131.31 131.06 132.44 132.12 132.77 C 133.17 133.10 134.30 132.51 134.63 131.45 L 134.94 130.47 C 135.27 129.41 134.68 128.28 133.62 127.95 C 132.56 127.62 131.43 128.21 131.10 129.27 Z M 130.80 130.25 L 130.48 131.26 C 130.14 132.32 130.73 133.45 131.79 133.78 C 132.85 134.12 133.98 133.53 134.31 132.47 L 134.63 131.46 C 134.96 130.40 134.38 129.27 133.32 128.94 C 132.26 128.60 131.13 129.19 130.80 130.25 Z M 130.48 131.25 L 130.16 132.26 C 129.82 133.31 130.40 134.45 131.46 134.78 C 132.52 135.12 133.65 134.54 133.99 133.48 L 134.31 132.48 C 134.65 131.42 134.07 130.29 133.01 129.95 C 131.95 129.61 130.82 130.20 130.48 131.25 Z M 130.16 132.24 L 129.81 133.29 C 129.47 134.34 130.04 135.48 131.10 135.83 C 132.15 136.18 133.29 135.60 133.64 134.55 L 133.98 133.50 C 134.33 132.45 133.76 131.31 132.70 130.96 C 131.65 130.61 130.51 131.18 130.16 132.24 Z M 129.81 133.27 L 129.47 134.27 C 129.12 135.33 129.68 136.48 130.74 136.83 C 131.79 137.19 132.94 136.63 133.30 135.57 L 133.64 134.57 C 134.00 133.51 133.43 132.36 132.38 132.01 C 131.32 131.65 130.17 132.21 129.81 133.27 Z M 129.47 134.26 L 129.15 135.20 C 128.78 136.26 129.34 137.41 130.40 137.78 C 131.45 138.14 132.61 137.58 132.97 136.53 L 133.30 135.59 C 133.67 134.53 133.11 133.38 132.05 133.01 C 130.99 132.64 129.84 133.20 129.47 134.26 Z M 129.14 135.19 L 128.83 136.07 C 128.46 137.13 129.02 138.29 130.08 138.66 C 131.14 139.03 132.30 138.48 132.67 137.42 L 132.98 136.54 C 133.35 135.48 132.79 134.32 131.73 133.95 C 130.67 133.58 129.51 134.13 129.14 135.19 Z M 128.83 136.07 L 128.51 136.98 C 128.14 138.04 128.70 139.20 129.76 139.57 C 130.82 139.94 131.99 139.38 132.36 138.32 L 132.67 137.42 C 133.05 136.36 132.49 135.19 131.42 134.82 C 130.36 134.45 129.20 135.01 128.83 136.07 Z M 128.51 136.98 L 128.15 138.00 C 127.78 139.06 128.34 140.23 129.41 140.60 C 130.47 140.97 131.64 140.41 132.01 139.34 L 132.36 138.32 C 132.73 137.26 132.17 136.09 131.11 135.72 C 130.04 135.35 128.88 135.91 128.51 136.98 Z M 128.15 137.99 L 127.82 138.92 C 127.45 139.98 128.01 141.15 129.07 141.52 C 130.14 141.90 131.31 141.34 131.68 140.28 L 132.01 139.35 C 132.38 138.28 131.82 137.12 130.76 136.74 C 129.69 136.37 128.52 136.93 128.15 137.99 Z M 127.83 138.89 L 127.52 139.73 C 127.13 140.80 127.68 141.97 128.74 142.36 C 129.81 142.75 130.98 142.20 131.37 141.14 L 131.68 140.30 C 132.07 139.23 131.52 138.06 130.45 137.67 C 129.39 137.28 128.22 137.83 127.83 138.89 Z M 127.53 139.69 L 127.16 140.66 C 126.74 141.72 127.27 142.91 128.32 143.32 C 129.38 143.73 130.57 143.21 130.98 142.15 L 131.36 141.18 C 131.77 140.12 131.25 138.94 130.19 138.52 C 129.13 138.11 127.94 138.64 127.53 139.69 Z M 127.18 140.61 L 126.79 141.51 C 126.35 142.55 126.84 143.76 127.89 144.20 C 128.93 144.64 130.14 144.16 130.58 143.11 L 130.96 142.21 C 131.40 141.16 130.91 139.96 129.87 139.51 C 128.82 139.07 127.62 139.56 127.18 140.61 Z M 126.82 141.45 L 126.35 142.47 C 125.88 143.50 126.33 144.72 127.36 145.20 C 128.40 145.67 129.62 145.22 130.09 144.18 L 130.56 143.17 C 131.03 142.13 130.58 140.91 129.54 140.44 C 128.51 139.97 127.29 140.42 126.82 141.45 Z M 126.29 142.60 L 125.93 143.57 C 125.53 144.64 126.07 145.82 127.13 146.22 C 128.20 146.62 129.39 146.08 129.79 145.02 L 130.15 144.05 C 130.55 142.98 130.01 141.80 128.94 141.40 C 127.88 141.00 126.69 141.54 126.29 142.60 Z M 126.85 146.09 L 127.14 146.25 C 128.13 146.81 129.39 146.45 129.94 145.46 C 130.50 144.47 130.14 143.21 129.15 142.66 L 128.86 142.50 C 127.87 141.94 126.62 142.30 126.06 143.29 C 125.51 144.28 125.86 145.54 126.85 146.09 Z M 129.19 146.23 L 130.01 145.74 C 130.99 145.16 131.32 143.90 130.74 142.93 C 130.17 141.95 128.91 141.62 127.93 142.20 L 127.10 142.69 C 126.12 143.26 125.80 144.52 126.38 145.50 C 126.95 146.48 128.21 146.80 129.19 146.23 Z M 130.20 145.61 L 131.26 144.82 C 132.17 144.14 132.35 142.85 131.67 141.95 C 130.99 141.04 129.71 140.86 128.80 141.53 L 127.74 142.33 C 126.83 143.01 126.65 144.29 127.33 145.20 C 128.01 146.11 129.30 146.29 130.20 145.61 Z M 131.31 144.78 L 132.09 144.16 C 132.97 143.45 133.11 142.16 132.41 141.28 C 131.70 140.39 130.41 140.25 129.53 140.96 L 128.75 141.57 C 127.87 142.28 127.72 143.57 128.43 144.46 C 129.14 145.34 130.43 145.48 131.31 144.78 Z M 132.10 144.14 L 132.91 143.49 C 133.78 142.77 133.91 141.48 133.20 140.60 C 132.48 139.73 131.19 139.60 130.31 140.31 L 129.51 140.97 C 128.63 141.69 128.50 142.98 129.22 143.85 C 129.93 144.73 131.23 144.86 132.10 144.14 Z M 132.91 143.48 L 133.70 142.83 C 134.58 142.11 134.70 140.82 133.98 139.94 C 133.26 139.07 131.97 138.95 131.10 139.67 L 130.31 140.32 C 129.43 141.04 129.31 142.33 130.03 143.20 C 130.75 144.08 132.04 144.20 132.91 143.48 Z M 133.70 142.83 L 134.51 142.17 C 135.38 141.45 135.51 140.16 134.79 139.29 C 134.07 138.41 132.78 138.28 131.91 139.00 L 131.10 139.66 C 130.22 140.38 130.10 141.67 130.81 142.55 C 131.53 143.42 132.83 143.55 133.70 142.83 Z M 134.46 142.22 L 135.49 141.42 C 136.39 140.73 136.56 139.44 135.87 138.54 C 135.18 137.64 133.89 137.47 132.99 138.16 L 131.95 138.96 C 131.05 139.65 130.88 140.94 131.57 141.84 C 132.27 142.74 133.56 142.91 134.46 142.22 Z M 135.10 141.67 L 135.73 141.38 C 136.77 140.90 137.22 139.68 136.75 138.64 C 136.27 137.60 135.04 137.15 134.01 137.63 L 133.38 137.92 C 132.34 138.39 131.89 139.62 132.36 140.66 C 132.84 141.69 134.07 142.15 135.10 141.67 Z M 132.88 140.08 L 133.02 140.56 C 133.34 141.66 134.49 142.30 135.59 141.98 C 136.69 141.66 137.32 140.51 137.00 139.41 L 136.86 138.93 C 136.54 137.83 135.39 137.19 134.30 137.51 C 133.20 137.83 132.56 138.98 132.88 140.08 Z M 133.03 139.37 L 132.67 140.54 C 132.33 141.63 132.94 142.79 134.03 143.13 C 135.12 143.47 136.29 142.86 136.63 141.77 L 136.99 140.60 C 137.33 139.51 136.72 138.35 135.63 138.01 C 134.53 137.67 133.37 138.28 133.03 139.37 Z M 132.74 140.34 L 132.39 141.17 C 131.94 142.22 132.42 143.44 133.48 143.89 C 134.53 144.34 135.75 143.85 136.20 142.80 L 136.55 141.97 C 137.00 140.91 136.52 139.70 135.46 139.25 C 134.41 138.80 133.19 139.28 132.74 140.34 Z M 132.42 141.09 L 132.02 141.93 C 131.53 142.96 131.97 144.20 133.00 144.69 C 134.04 145.18 135.27 144.74 135.77 143.71 L 136.16 142.88 C 136.66 141.84 136.22 140.61 135.18 140.11 C 134.15 139.62 132.91 140.06 132.42 141.09 Z M 132.04 141.88 L 131.56 142.83 C 131.05 143.85 131.46 145.10 132.48 145.62 C 133.50 146.13 134.75 145.72 135.27 144.70 L 135.75 143.75 C 136.26 142.73 135.85 141.48 134.83 140.97 C 133.81 140.45 132.56 140.86 132.04 141.88 Z M 131.57 142.81 L 131.05 143.83 C 130.52 144.84 130.92 146.09 131.93 146.62 C 132.95 147.15 134.20 146.75 134.73 145.74 L 135.26 144.72 C 135.78 143.71 135.39 142.45 134.37 141.93 C 133.35 141.40 132.10 141.80 131.57 142.81 Z M 131.05 143.82 L 130.61 144.66 C 130.08 145.68 130.47 146.93 131.49 147.46 C 132.50 147.99 133.75 147.60 134.28 146.59 L 134.73 145.74 C 135.26 144.73 134.87 143.47 133.85 142.94 C 132.84 142.41 131.58 142.80 131.05 143.82 Z M 130.61 144.66 L 130.14 145.56 C 129.61 146.57 130.00 147.82 131.01 148.36 C 132.02 148.89 133.28 148.50 133.81 147.49 L 134.28 146.59 C 134.81 145.58 134.42 144.32 133.41 143.79 C 132.40 143.26 131.15 143.65 130.61 144.66 Z M 130.14 145.55 L 129.66 146.47 C 129.12 147.48 129.51 148.74 130.52 149.27 C 131.53 149.81 132.79 149.42 133.32 148.41 L 133.81 147.49 C 134.34 146.48 133.95 145.22 132.94 144.69 C 131.93 144.16 130.68 144.54 130.14 145.55 Z M 129.66 146.47 L 129.18 147.38 C 128.64 148.39 129.03 149.65 130.04 150.18 C 131.05 150.72 132.30 150.33 132.84 149.32 L 133.32 148.41 C 133.86 147.40 133.47 146.15 132.46 145.61 C 131.45 145.07 130.20 145.46 129.66 146.47 Z M 129.18 147.38 L 128.71 148.25 C 128.18 149.26 128.56 150.52 129.57 151.05 C 130.58 151.59 131.84 151.21 132.37 150.20 L 132.84 149.32 C 133.37 148.31 132.99 147.06 131.98 146.52 C 130.97 145.98 129.72 146.37 129.18 147.38 Z M 128.72 148.25 L 128.19 149.24 C 127.65 150.25 128.03 151.51 129.04 152.04 C 130.05 152.58 131.30 152.20 131.84 151.19 L 132.37 150.20 C 132.91 149.19 132.53 147.93 131.52 147.40 C 130.51 146.86 129.25 147.24 128.72 148.25 Z M 128.19 149.24 L 127.70 150.15 C 127.16 151.16 127.54 152.42 128.55 152.96 C 129.56 153.50 130.81 153.12 131.35 152.11 L 131.84 151.19 C 132.38 150.18 132.00 148.93 130.99 148.39 C 129.98 147.85 128.73 148.23 128.19 149.24 Z M 127.70 150.15 L 127.24 151.00 C 126.71 152.01 127.09 153.27 128.10 153.81 C 129.11 154.35 130.36 153.97 130.90 152.96 L 131.35 152.11 C 131.89 151.10 131.51 149.84 130.50 149.30 C 129.49 148.76 128.24 149.14 127.70 150.15 Z M 127.24 151.00 L 126.82 151.81 C 126.28 152.82 126.66 154.07 127.67 154.61 C 128.68 155.15 129.94 154.77 130.47 153.76 L 130.90 152.95 C 131.44 151.94 131.06 150.69 130.05 150.15 C 129.04 149.61 127.78 149.99 127.24 151.00 Z M 126.81 151.81 L 126.34 152.70 C 125.80 153.72 126.19 154.97 127.20 155.51 C 128.21 156.04 129.47 155.66 130.00 154.65 L 130.48 153.75 C 131.01 152.74 130.63 151.49 129.62 150.95 C 128.60 150.41 127.35 150.80 126.81 151.81 Z M 126.34 152.71 L 125.86 153.62 C 125.33 154.63 125.72 155.88 126.73 156.42 C 127.74 156.95 129.00 156.56 129.53 155.55 L 130.01 154.64 C 130.54 153.63 130.15 152.37 129.14 151.84 C 128.12 151.31 126.87 151.70 126.34 152.71 Z M 125.86 153.62 L 125.40 154.49 C 124.87 155.51 125.27 156.76 126.28 157.29 C 127.30 157.82 128.55 157.43 129.08 156.41 L 129.53 155.54 C 130.06 154.53 129.67 153.27 128.66 152.74 C 127.64 152.21 126.39 152.61 125.86 153.62 Z M 125.40 154.49 L 124.95 155.36 C 124.42 156.37 124.82 157.63 125.84 158.15 C 126.85 158.68 128.11 158.29 128.63 157.27 L 129.08 156.41 C 129.61 155.39 129.21 154.14 128.20 153.61 C 127.18 153.08 125.93 153.48 125.40 154.49 Z M 124.95 155.37 L 124.47 156.30 C 123.94 157.32 124.35 158.57 125.37 159.09 C 126.38 159.62 127.63 159.22 128.16 158.20 L 128.64 157.26 C 129.16 156.24 128.76 154.99 127.74 154.47 C 126.72 153.94 125.47 154.35 124.95 155.37 Z M 124.45 156.33 L 124.02 157.21 C 123.51 158.23 123.93 159.48 124.96 159.99 C 125.98 160.49 127.23 160.08 127.74 159.05 L 128.17 158.17 C 128.68 157.14 128.26 155.90 127.23 155.39 C 126.21 154.88 124.96 155.30 124.45 156.33 Z M 123.99 157.26 L 123.55 158.24 C 123.07 159.28 123.52 160.51 124.57 160.99 C 125.61 161.46 126.84 161.01 127.32 159.97 L 127.76 158.99 C 128.24 157.95 127.78 156.72 126.74 156.24 C 125.70 155.77 124.47 156.22 123.99 157.26 Z M 123.44 158.51 L 123.15 159.52 C 122.82 160.62 123.44 161.77 124.54 162.09 C 125.64 162.42 126.79 161.80 127.12 160.70 L 127.42 159.69 C 127.74 158.59 127.12 157.44 126.02 157.12 C 124.92 156.79 123.77 157.42 123.44 158.51 Z M 124.00 161.83 L 124.37 162.08 C 125.33 162.71 126.61 162.44 127.23 161.49 C 127.86 160.54 127.59 159.26 126.64 158.63 L 126.26 158.38 C 125.31 157.76 124.03 158.02 123.41 158.98 C 122.78 159.93 123.04 161.21 124.00 161.83 Z M 126.36 162.22 L 127.26 161.81 C 128.29 161.34 128.74 160.12 128.27 159.09 C 127.80 158.06 126.59 157.61 125.56 158.08 L 124.66 158.49 C 123.63 158.96 123.17 160.18 123.64 161.21 C 124.11 162.24 125.33 162.69 126.36 162.22 Z M 127.56 161.62 L 128.54 160.95 C 129.46 160.31 129.70 159.05 129.06 158.12 C 128.43 157.20 127.16 156.96 126.24 157.60 L 125.26 158.27 C 124.33 158.90 124.10 160.17 124.73 161.09 C 125.37 162.02 126.63 162.25 127.56 161.62 Z M 128.66 160.84 L 129.41 160.23 C 130.27 159.53 130.41 158.26 129.71 157.39 C 129.01 156.53 127.73 156.39 126.87 157.10 L 126.12 157.70 C 125.25 158.41 125.12 159.68 125.82 160.54 C 126.52 161.41 127.79 161.54 128.66 160.84 Z M 129.46 160.18 L 130.22 159.51 C 131.05 158.78 131.14 157.52 130.41 156.68 C 129.68 155.85 128.42 155.76 127.58 156.49 L 126.82 157.15 C 125.99 157.88 125.90 159.15 126.63 159.98 C 127.36 160.82 128.62 160.90 129.46 160.18 Z M 130.23 159.49 L 131.00 158.80 C 131.82 158.07 131.89 156.81 131.16 155.99 C 130.43 155.17 129.17 155.09 128.34 155.82 L 127.57 156.51 C 126.75 157.24 126.68 158.50 127.41 159.33 C 128.14 160.15 129.40 160.22 130.23 159.49 Z M 130.99 158.80 L 131.68 158.19 C 132.50 157.47 132.58 156.21 131.85 155.39 C 131.12 154.57 129.87 154.49 129.04 155.21 L 128.35 155.82 C 127.53 156.55 127.45 157.81 128.18 158.63 C 128.91 159.45 130.16 159.53 130.99 158.80 Z M 131.69 158.18 L 132.41 157.54 C 133.23 156.81 133.30 155.55 132.57 154.73 C 131.83 153.92 130.58 153.85 129.76 154.58 L 129.04 155.22 C 128.22 155.96 128.15 157.21 128.88 158.03 C 129.61 158.85 130.87 158.92 131.69 158.18 Z M 132.43 157.51 L 133.20 156.80 C 134.00 156.06 134.05 154.81 133.31 154.00 C 132.56 153.20 131.31 153.15 130.50 153.89 L 129.74 154.60 C 128.93 155.35 128.89 156.60 129.63 157.40 C 130.37 158.21 131.63 158.26 132.43 157.51 Z M 133.23 156.77 L 133.97 156.05 C 134.76 155.29 134.78 154.03 134.01 153.25 C 133.25 152.46 132.00 152.44 131.21 153.21 L 130.47 153.93 C 129.68 154.69 129.66 155.94 130.43 156.73 C 131.19 157.52 132.45 157.53 133.23 156.77 Z M 134.00 156.02 L 134.63 155.38 C 135.40 154.60 135.39 153.34 134.61 152.58 C 133.83 151.81 132.57 151.82 131.81 152.60 L 131.18 153.24 C 130.41 154.02 130.42 155.28 131.20 156.04 C 131.98 156.81 133.24 156.80 134.00 156.02 Z M 134.66 155.35 L 135.32 154.66 C 136.07 153.86 136.04 152.61 135.24 151.85 C 134.44 151.10 133.19 151.13 132.43 151.93 L 131.78 152.63 C 131.02 153.42 131.06 154.68 131.86 155.43 C 132.65 156.19 133.91 156.15 134.66 155.35 Z M 135.34 154.64 L 136.03 153.89 C 136.77 153.08 136.71 151.82 135.90 151.08 C 135.09 150.34 133.83 150.40 133.09 151.21 L 132.41 151.96 C 131.67 152.77 131.73 154.02 132.54 154.76 C 133.35 155.50 134.60 155.45 135.34 154.64 Z M 136.05 153.86 L 136.76 153.06 C 137.49 152.23 137.41 150.98 136.59 150.25 C 135.76 149.52 134.50 149.60 133.78 150.43 L 133.07 151.23 C 132.34 152.05 132.42 153.31 133.24 154.04 C 134.07 154.77 135.33 154.69 136.05 153.86 Z M 136.79 153.04 L 137.53 152.17 C 138.24 151.33 138.14 150.07 137.30 149.36 C 136.47 148.64 135.21 148.74 134.49 149.58 L 133.75 150.45 C 133.04 151.29 133.14 152.54 133.98 153.26 C 134.81 153.97 136.07 153.87 136.79 153.04 Z M 137.55 152.16 L 138.33 151.23 C 139.04 150.38 138.93 149.12 138.08 148.40 C 137.23 147.69 135.96 147.81 135.25 148.66 L 134.47 149.59 C 133.76 150.44 133.87 151.70 134.72 152.42 C 135.57 153.13 136.84 153.02 137.55 152.16 Z M 138.33 151.27 L 139.10 150.37 C 139.82 149.52 139.73 148.24 138.87 147.51 C 138.02 146.78 136.74 146.88 136.01 147.73 L 135.24 148.62 C 134.52 149.48 134.61 150.76 135.47 151.49 C 136.32 152.22 137.60 152.12 138.33 151.27 Z M 139.06 150.45 L 139.77 149.68 C 140.54 148.85 140.49 147.55 139.66 146.78 C 138.83 146.01 137.53 146.06 136.76 146.89 L 136.05 147.65 C 135.27 148.49 135.32 149.79 136.15 150.56 C 136.99 151.33 138.29 151.28 139.06 150.45 Z M 139.65 149.84 L 140.27 149.28 C 141.13 148.52 141.20 147.21 140.44 146.35 C 139.68 145.49 138.37 145.41 137.51 146.18 L 136.88 146.73 C 136.03 147.50 135.95 148.81 136.71 149.67 C 137.47 150.52 138.79 150.60 139.65 149.84 Z M 139.79 149.63 L 140.35 149.36 C 141.40 148.86 141.85 147.61 141.35 146.56 C 140.86 145.52 139.60 145.07 138.56 145.56 L 137.99 145.83 C 136.94 146.33 136.50 147.58 136.99 148.63 C 137.49 149.67 138.74 150.12 139.79 149.63 Z M 138.16 149.13 L 138.69 149.54 C 139.61 150.26 140.94 150.09 141.65 149.18 C 142.37 148.26 142.20 146.93 141.28 146.21 L 140.75 145.80 C 139.83 145.08 138.51 145.25 137.79 146.16 C 137.07 147.08 137.24 148.41 138.16 149.13 Z M 137.94 148.40 L 138.21 149.44 C 138.50 150.57 139.65 151.25 140.78 150.96 C 141.91 150.67 142.59 149.52 142.30 148.39 L 142.03 147.35 C 141.74 146.22 140.59 145.54 139.46 145.83 C 138.33 146.12 137.65 147.27 137.94 148.40 Z M 138.17 149.25 L 138.35 150.40 C 138.54 151.55 139.62 152.34 140.78 152.15 C 141.93 151.96 142.71 150.88 142.53 149.72 L 142.34 148.58 C 142.16 147.42 141.07 146.64 139.92 146.83 C 138.76 147.01 137.98 148.10 138.17 149.25 Z M 138.37 150.49 L 138.57 151.50 C 138.81 152.64 139.93 153.38 141.07 153.15 C 142.22 152.91 142.95 151.80 142.72 150.65 L 142.51 149.64 C 142.28 148.49 141.16 147.76 140.01 147.99 C 138.87 148.22 138.13 149.34 138.37 150.49 Z M 138.60 151.61 L 138.84 152.54 C 139.13 153.67 140.29 154.35 141.42 154.05 C 142.55 153.76 143.23 152.61 142.94 151.48 L 142.70 150.55 C 142.40 149.41 141.25 148.73 140.12 149.03 C 138.99 149.32 138.31 150.47 138.60 151.61 Z M 138.87 152.64 L 139.17 153.58 C 139.52 154.69 140.71 155.31 141.82 154.95 C 142.93 154.60 143.55 153.42 143.20 152.30 L 142.90 151.37 C 142.55 150.26 141.36 149.64 140.25 149.99 C 139.14 150.34 138.52 151.53 138.87 152.64 Z M 139.21 153.68 L 139.57 154.62 C 139.98 155.71 141.19 156.26 142.28 155.85 C 143.36 155.44 143.91 154.23 143.51 153.14 L 143.15 152.20 C 142.74 151.11 141.53 150.56 140.44 150.97 C 139.35 151.38 138.80 152.59 139.21 153.68 Z M 139.62 154.72 L 140.01 155.61 C 140.47 156.67 141.71 157.16 142.76 156.69 C 143.82 156.23 144.31 155.00 143.84 153.94 L 143.45 153.05 C 142.99 151.99 141.76 151.50 140.70 151.97 C 139.64 152.43 139.16 153.66 139.62 154.72 Z M 140.09 155.71 L 140.56 156.62 C 141.07 157.63 142.31 158.04 143.32 157.52 C 144.34 157.01 144.74 155.77 144.22 154.75 L 143.76 153.84 C 143.25 152.83 142.01 152.43 140.99 152.94 C 139.98 153.46 139.58 154.70 140.09 155.71 Z M 140.72 156.79 L 141.27 157.62 C 141.88 158.54 143.12 158.79 144.04 158.18 C 144.96 157.57 145.22 156.33 144.60 155.40 L 144.06 154.58 C 143.45 153.66 142.21 153.41 141.28 154.02 C 140.36 154.63 140.11 155.87 140.72 156.79 Z M 141.56 157.85 L 142.24 158.55 C 142.98 159.31 144.20 159.33 144.96 158.59 C 145.72 157.85 145.74 156.63 145.00 155.87 L 144.31 155.17 C 143.57 154.41 142.36 154.39 141.59 155.13 C 140.83 155.87 140.82 157.09 141.56 157.85 Z M 142.55 158.67 L 143.35 159.26 C 144.16 159.85 145.29 159.68 145.88 158.87 C 146.47 158.07 146.30 156.93 145.49 156.34 L 144.69 155.75 C 143.88 155.16 142.75 155.34 142.16 156.14 C 141.57 156.95 141.74 158.08 142.55 158.67 Z M 143.51 159.23 L 144.14 159.63 C 144.93 160.13 145.98 159.90 146.48 159.11 C 146.98 158.32 146.75 157.27 145.96 156.77 L 145.33 156.37 C 144.54 155.87 143.49 156.10 142.99 156.89 C 142.49 157.68 142.72 158.73 143.51 159.23 Z"
      fill="black"
      fill-rule="nonzero" /><path d="M 119.24 173.64 L 119.01 174.69 C 118.80 175.66 119.41 176.61 120.38 176.82 C 121.35 177.03 122.30 176.42 122.51 175.45 L 122.74 174.40 C 122.95 173.43 122.34 172.48 121.37 172.27 C 120.40 172.06 119.45 172.67 119.24 173.64 Z M 118.97 175.45 L 119.15 176.29 C 119.36 177.28 120.33 177.91 121.32 177.70 C 122.31 177.49 122.94 176.51 122.73 175.52 L 122.55 174.69 C 122.34 173.70 121.37 173.07 120.38 173.28 C 119.39 173.49 118.76 174.46 118.97 175.45 Z M 119.90 177.43 L 120.54 177.86 C 121.38 178.43 122.52 178.22 123.10 177.38 C 123.67 176.54 123.45 175.39 122.61 174.82 L 121.97 174.39 C 121.13 173.81 119.99 174.03 119.42 174.87 C 118.85 175.71 119.06 176.86 119.90 177.43 Z M 121.10 178.10 L 122.17 178.39 C 123.14 178.65 124.14 178.08 124.40 177.11 C 124.66 176.13 124.09 175.13 123.12 174.87 L 122.05 174.58 C 121.08 174.32 120.08 174.89 119.82 175.86 C 119.55 176.83 120.13 177.84 121.10 178.10 Z M 122.35 178.40 L 123.38 178.57 C 124.36 178.73 125.29 178.07 125.45 177.09 C 125.61 176.11 124.95 175.19 123.97 175.03 L 122.93 174.86 C 121.95 174.69 121.03 175.36 120.87 176.34 C 120.71 177.32 121.37 178.24 122.35 178.40 Z M 123.44 178.55 L 124.38 178.67 C 125.35 178.80 126.23 178.13 126.36 177.16 C 126.49 176.19 125.81 175.31 124.85 175.18 L 123.91 175.05 C 122.95 174.92 122.06 175.60 121.93 176.57 C 121.80 177.53 122.48 178.42 123.44 178.55 Z M 124.41 178.64 L 125.43 178.76 C 126.37 178.87 127.23 178.20 127.34 177.25 C 127.46 176.30 126.78 175.44 125.83 175.33 L 124.82 175.21 C 123.87 175.10 123.01 175.77 122.90 176.72 C 122.79 177.67 123.46 178.53 124.41 178.64 Z M 125.44 178.73 L 126.50 178.84 C 127.43 178.95 128.27 178.28 128.37 177.35 C 128.47 176.42 127.80 175.59 126.87 175.48 L 125.81 175.37 C 124.89 175.26 124.05 175.93 123.95 176.86 C 123.85 177.79 124.52 178.62 125.44 178.73 Z M 126.51 178.81 L 127.16 178.88 C 128.07 178.98 128.89 178.32 128.99 177.41 C 129.09 176.50 128.42 175.68 127.51 175.58 L 126.87 175.51 C 125.95 175.41 125.14 176.07 125.04 176.99 C 124.94 177.90 125.60 178.72 126.51 178.81 Z"
      fill="black"
      fill-rule="nonzero" /><path d="M 127.44 170.75 L 128.02 171.57 C 128.57 172.35 129.65 172.54 130.43 171.99 C 131.21 171.44 131.40 170.36 130.85 169.57 L 130.27 168.75 C 129.72 167.97 128.64 167.78 127.86 168.33 C 127.07 168.88 126.89 169.96 127.44 170.75 Z M 128.06 171.71 L 128.69 172.47 C 129.32 173.23 130.44 173.34 131.20 172.71 C 131.96 172.08 132.07 170.96 131.44 170.20 L 130.81 169.43 C 130.18 168.67 129.06 168.57 128.30 169.19 C 127.54 169.82 127.43 170.95 128.06 171.71 Z M 128.86 172.65 L 129.58 173.31 C 130.31 173.98 131.44 173.93 132.10 173.20 C 132.77 172.47 132.72 171.34 131.99 170.68 L 131.27 170.02 C 130.54 169.35 129.41 169.40 128.75 170.13 C 128.08 170.86 128.13 171.99 128.86 172.65 Z M 129.73 173.37 L 130.53 173.98 C 131.29 174.56 132.37 174.42 132.96 173.66 C 133.54 172.90 133.40 171.82 132.64 171.24 L 131.84 170.62 C 131.08 170.04 130.00 170.18 129.41 170.94 C 128.83 171.70 128.97 172.79 129.73 173.37 Z M 130.56 173.93 L 131.35 174.54 C 132.08 175.11 133.13 174.97 133.69 174.24 C 134.26 173.51 134.13 172.46 133.40 171.90 L 132.61 171.29 C 131.88 170.72 130.83 170.85 130.26 171.58 C 129.70 172.31 129.83 173.36 130.56 173.93 Z M 131.34 174.48 L 132.12 175.11 C 132.81 175.68 133.83 175.58 134.40 174.88 C 134.97 174.19 134.87 173.17 134.18 172.60 L 133.40 171.96 C 132.71 171.39 131.69 171.50 131.12 172.19 C 130.55 172.88 130.65 173.91 131.34 174.48 Z M 132.13 175.07 L 132.75 175.59 C 133.42 176.15 134.42 176.07 134.98 175.40 C 135.55 174.73 135.46 173.73 134.79 173.16 L 134.17 172.64 C 133.49 172.08 132.50 172.17 131.93 172.84 C 131.37 173.51 131.46 174.51 132.13 175.07 Z"
      fill="black"
      fill-rule="nonzero" /><path d="M 136.17 165.28 L 136.47 166.20 C 136.77 167.12 137.77 167.63 138.70 167.32 C 139.62 167.02 140.13 166.02 139.82 165.09 L 139.52 164.18 C 139.22 163.25 138.22 162.75 137.29 163.05 C 136.37 163.36 135.86 164.36 136.17 165.28 Z M 136.44 166.43 L 136.86 167.35 C 137.29 168.29 138.41 168.70 139.35 168.27 C 140.30 167.83 140.71 166.71 140.28 165.77 L 139.85 164.86 C 139.42 163.91 138.30 163.50 137.36 163.94 C 136.41 164.37 136.00 165.49 136.44 166.43 Z M 136.97 167.68 L 137.55 168.50 C 138.16 169.38 139.38 169.59 140.26 168.97 C 141.14 168.36 141.36 167.14 140.74 166.26 L 140.16 165.44 C 139.54 164.56 138.33 164.34 137.45 164.96 C 136.57 165.58 136.35 166.80 136.97 167.68 Z M 137.72 168.70 L 138.41 169.44 C 139.14 170.23 140.37 170.27 141.15 169.54 C 141.94 168.81 141.98 167.58 141.25 166.80 L 140.57 166.06 C 139.84 165.27 138.61 165.22 137.82 165.95 C 137.03 166.68 136.99 167.91 137.72 168.70 Z M 138.55 169.53 L 139.30 170.22 C 140.08 170.93 141.29 170.87 142.00 170.09 C 142.71 169.30 142.65 168.10 141.87 167.39 L 141.11 166.71 C 140.33 166.00 139.12 166.06 138.42 166.84 C 137.71 167.62 137.77 168.83 138.55 169.53 Z M 139.43 170.25 L 140.25 170.90 C 141.05 171.53 142.21 171.40 142.84 170.60 C 143.48 169.80 143.34 168.64 142.55 168.01 L 141.73 167.36 C 140.93 166.72 139.77 166.86 139.14 167.65 C 138.50 168.45 138.64 169.61 139.43 170.25 Z M 140.38 170.87 L 141.19 171.44 C 141.97 172.00 143.06 171.82 143.62 171.04 C 144.18 170.25 144.00 169.17 143.22 168.61 L 142.41 168.03 C 141.63 167.47 140.54 167.65 139.98 168.44 C 139.42 169.22 139.60 170.31 140.38 170.87 Z M 141.28 171.39 L 141.85 171.78 C 142.61 172.29 143.63 172.10 144.14 171.34 C 144.66 170.59 144.46 169.56 143.71 169.05 L 143.13 168.66 C 142.37 168.15 141.35 168.34 140.84 169.10 C 140.32 169.85 140.52 170.88 141.28 171.39 Z"
      fill="black"
      fill-rule="nonzero" /><path d="M 154.78 123.33 L 155.67 122.98 C 156.56 122.63 156.99 121.63 156.65 120.74 C 156.30 119.85 155.29 119.42 154.40 119.77 L 153.51 120.12 C 152.63 120.47 152.19 121.47 152.54 122.36 C 152.89 123.25 153.89 123.68 154.78 123.33 Z M 155.72 122.95 L 156.64 122.55 C 157.51 122.17 157.90 121.16 157.52 120.29 C 157.14 119.42 156.13 119.02 155.26 119.40 L 154.35 119.80 C 153.48 120.18 153.08 121.19 153.46 122.06 C 153.84 122.93 154.85 123.33 155.72 122.95 Z M 156.73 122.50 L 157.66 122.02 C 158.50 121.59 158.83 120.56 158.40 119.72 C 157.96 118.88 156.93 118.54 156.09 118.98 L 155.16 119.45 C 154.32 119.89 153.99 120.92 154.42 121.76 C 154.86 122.60 155.89 122.93 156.73 122.50 Z M 157.74 121.98 L 158.60 121.48 C 159.42 121.00 159.69 119.95 159.21 119.13 C 158.73 118.31 157.68 118.04 156.87 118.52 L 156.01 119.02 C 155.19 119.50 154.92 120.55 155.39 121.37 C 155.87 122.18 156.92 122.46 157.74 121.98 Z M 158.61 121.48 L 159.49 120.96 C 160.30 120.48 160.58 119.42 160.09 118.61 C 159.61 117.79 158.56 117.52 157.74 118.00 L 156.86 118.52 C 156.04 119.00 155.77 120.05 156.25 120.87 C 156.73 121.69 157.79 121.96 158.61 121.48 Z M 159.42 121.01 L 160.29 120.54 C 161.14 120.10 161.46 119.05 161.01 118.21 C 160.57 117.37 159.52 117.05 158.68 117.49 L 157.81 117.95 C 156.96 118.40 156.64 119.44 157.09 120.29 C 157.53 121.13 158.58 121.45 159.42 121.01 Z M 160.10 120.66 L 161.21 120.25 C 162.12 119.91 162.58 118.90 162.24 117.99 C 161.90 117.08 160.89 116.62 159.98 116.96 L 158.87 117.37 C 157.96 117.71 157.50 118.72 157.84 119.63 C 158.18 120.54 159.19 121.00 160.10 120.66 Z M 160.68 120.41 L 161.58 120.37 C 162.58 120.32 163.35 119.47 163.30 118.48 C 163.26 117.48 162.41 116.71 161.41 116.75 L 160.51 116.80 C 159.51 116.84 158.74 117.69 158.79 118.69 C 158.83 119.69 159.68 120.46 160.68 120.41 Z M 160.25 119.93 L 160.81 120.44 C 161.57 121.12 162.74 121.07 163.42 120.31 C 164.11 119.55 164.05 118.38 163.30 117.69 L 162.74 117.19 C 161.98 116.50 160.81 116.56 160.13 117.32 C 159.44 118.07 159.50 119.24 160.25 119.93 Z M 160.20 119.35 L 160.35 120.34 C 160.51 121.36 161.47 122.06 162.49 121.90 C 163.51 121.75 164.21 120.79 164.06 119.77 L 163.90 118.78 C 163.75 117.76 162.79 117.06 161.77 117.21 C 160.75 117.37 160.05 118.33 160.20 119.35 Z M 160.33 119.83 L 160.20 120.90 C 160.08 121.93 160.81 122.87 161.85 123.00 C 162.88 123.12 163.82 122.39 163.95 121.35 L 164.08 120.28 C 164.20 119.25 163.47 118.31 162.43 118.18 C 161.40 118.06 160.46 118.79 160.33 119.83 Z M 160.26 120.60 L 159.98 121.54 C 159.69 122.54 160.27 123.59 161.27 123.89 C 162.28 124.18 163.32 123.60 163.62 122.60 L 163.89 121.65 C 164.18 120.65 163.61 119.60 162.60 119.31 C 161.60 119.02 160.55 119.60 160.26 120.60 Z M 160.04 121.36 L 159.67 122.30 C 159.27 123.27 159.74 124.37 160.72 124.76 C 161.69 125.15 162.79 124.69 163.18 123.71 L 163.56 122.78 C 163.95 121.81 163.48 120.70 162.51 120.31 C 161.54 119.92 160.43 120.39 160.04 121.36 Z M 159.69 122.23 L 159.34 123.03 C 158.91 123.98 159.34 125.10 160.29 125.53 C 161.25 125.96 162.37 125.53 162.80 124.58 L 163.15 123.78 C 163.58 122.83 163.15 121.70 162.20 121.28 C 161.24 120.85 160.12 121.28 159.69 122.23 Z M 159.35 122.99 L 158.95 123.85 C 158.50 124.80 158.90 125.93 159.85 126.38 C 160.80 126.82 161.93 126.42 162.37 125.47 L 162.78 124.61 C 163.23 123.67 162.83 122.53 161.88 122.09 C 160.93 121.64 159.80 122.04 159.35 122.99 Z M 158.96 123.82 L 158.46 124.82 C 158.00 125.76 158.38 126.90 159.32 127.36 C 160.26 127.83 161.40 127.45 161.86 126.51 L 162.36 125.51 C 162.83 124.57 162.44 123.43 161.50 122.96 C 160.57 122.50 159.43 122.88 158.96 123.82 Z M 158.47 124.80 L 158.02 125.69 C 157.54 126.62 157.91 127.77 158.84 128.25 C 159.77 128.72 160.91 128.36 161.39 127.42 L 161.85 126.53 C 162.33 125.60 161.96 124.45 161.03 123.97 C 160.10 123.50 158.95 123.86 158.47 124.80 Z M 158.02 125.68 L 157.56 126.56 C 157.08 127.48 157.44 128.63 158.37 129.12 C 159.30 129.60 160.44 129.24 160.93 128.31 L 161.39 127.43 C 161.87 126.51 161.51 125.36 160.58 124.87 C 159.65 124.39 158.51 124.75 158.02 125.68 Z M 157.57 126.55 L 157.09 127.46 C 156.60 128.39 156.95 129.54 157.88 130.03 C 158.81 130.51 159.96 130.16 160.44 129.23 L 160.93 128.32 C 161.41 127.39 161.06 126.24 160.13 125.75 C 159.20 125.27 158.06 125.62 157.57 126.55 Z M 157.09 127.46 L 156.60 128.38 C 156.12 129.30 156.47 130.45 157.40 130.94 C 158.32 131.43 159.47 131.08 159.96 130.15 L 160.44 129.23 C 160.93 128.31 160.58 127.16 159.65 126.67 C 158.72 126.18 157.58 126.53 157.09 127.46 Z M 156.60 128.38 L 156.13 129.29 C 155.64 130.21 155.99 131.36 156.92 131.85 C 157.85 132.34 158.99 131.98 159.48 131.05 L 159.96 130.15 C 160.45 129.22 160.09 128.07 159.17 127.59 C 158.24 127.10 157.09 127.45 156.60 128.38 Z M 156.13 129.29 L 155.62 130.26 C 155.13 131.19 155.49 132.33 156.42 132.82 C 157.34 133.30 158.48 132.94 158.97 132.02 L 159.48 131.05 C 159.96 130.12 159.61 128.98 158.68 128.49 C 157.76 128.01 156.61 128.36 156.13 129.29 Z M 155.63 130.26 L 155.15 131.16 C 154.67 132.08 155.02 133.22 155.94 133.70 C 156.86 134.19 158.00 133.84 158.49 132.92 L 158.96 132.02 C 159.45 131.10 159.09 129.96 158.17 129.47 C 157.25 128.99 156.11 129.34 155.63 130.26 Z M 155.17 131.15 L 154.72 131.98 C 154.23 132.90 154.57 134.03 155.49 134.52 C 156.40 135.01 157.54 134.67 158.03 133.76 L 158.48 132.92 C 158.97 132.01 158.62 130.87 157.71 130.38 C 156.79 129.89 155.66 130.23 155.17 131.15 Z M 154.74 131.96 L 154.28 132.79 C 153.78 133.70 154.11 134.84 155.01 135.34 C 155.92 135.84 157.05 135.51 157.55 134.60 L 158.01 133.77 C 158.51 132.87 158.19 131.73 157.28 131.23 C 156.38 130.73 155.24 131.06 154.74 131.96 Z M 154.31 132.77 L 153.78 133.67 C 153.27 134.56 153.57 135.70 154.46 136.21 C 155.34 136.73 156.48 136.43 157.00 135.54 L 157.52 134.63 C 158.04 133.74 157.74 132.61 156.85 132.09 C 155.96 131.58 154.82 131.88 154.31 132.77 Z M 153.82 133.64 L 153.30 134.48 C 152.77 135.35 153.04 136.48 153.91 137.02 C 154.77 137.55 155.91 137.28 156.45 136.41 L 156.96 135.57 C 157.50 134.71 157.23 133.57 156.36 133.04 C 155.49 132.50 154.35 132.77 153.82 133.64 Z M 153.34 134.44 L 152.82 135.24 C 152.27 136.08 152.50 137.22 153.35 137.77 C 154.19 138.33 155.33 138.09 155.88 137.25 L 156.40 136.45 C 156.96 135.61 156.72 134.47 155.88 133.92 C 155.03 133.36 153.90 133.60 153.34 134.44 Z M 152.88 135.19 L 152.28 136.03 C 151.70 136.84 151.89 137.97 152.70 138.55 C 153.51 139.14 154.65 138.95 155.23 138.13 L 155.83 137.30 C 156.41 136.48 156.22 135.35 155.40 134.77 C 154.59 134.19 153.46 134.37 152.88 135.19 Z M 152.35 135.96 L 151.74 136.73 C 151.13 137.50 151.26 138.63 152.03 139.24 C 152.80 139.86 153.93 139.73 154.54 138.96 L 155.15 138.19 C 155.77 137.42 155.64 136.29 154.87 135.68 C 154.09 135.06 152.97 135.19 152.35 135.96 Z M 151.84 136.65 L 151.12 137.44 C 150.46 138.16 150.51 139.28 151.23 139.94 C 151.95 140.59 153.06 140.54 153.72 139.83 L 154.45 139.04 C 155.10 138.32 155.05 137.20 154.34 136.54 C 153.62 135.88 152.50 135.93 151.84 136.65 Z M 151.38 137.25 L 150.58 137.86 C 149.81 138.43 149.66 139.52 150.24 140.28 C 150.81 141.05 151.90 141.20 152.66 140.62 L 153.46 140.02 C 154.23 139.44 154.38 138.35 153.80 137.59 C 153.23 136.83 152.14 136.67 151.38 137.25 Z M 151.59 137.54 L 150.80 137.56 C 149.87 137.58 149.12 138.35 149.14 139.29 C 149.16 140.22 149.93 140.97 150.87 140.95 L 151.65 140.93 C 152.59 140.92 153.33 140.14 153.31 139.21 C 153.30 138.27 152.52 137.53 151.59 137.54 Z M 151.93 138.02 L 151.19 137.36 C 150.51 136.75 149.46 136.81 148.86 137.50 C 148.25 138.18 148.31 139.23 149.00 139.83 L 149.74 140.49 C 150.42 141.10 151.47 141.04 152.07 140.35 C 152.68 139.67 152.62 138.62 151.93 138.02 Z M 151.36 137.58 L 151.05 137.19 C 150.49 136.49 149.46 136.38 148.77 136.95 C 148.07 137.51 147.96 138.53 148.52 139.23 L 148.83 139.62 C 149.39 140.31 150.42 140.42 151.11 139.86 C 151.81 139.30 151.92 138.27 151.36 137.58 Z"
      fill="black"
      fill-rule="nonzero" /><path d="M 150.66 126.32 L 151.20 127.11 C 151.81 127.99 153.01 128.21 153.89 127.60 C 154.77 127.00 154.99 125.80 154.39 124.92 L 153.84 124.13 C 153.24 123.25 152.04 123.03 151.16 123.63 C 150.28 124.23 150.05 125.44 150.66 126.32 Z M 151.21 127.18 L 151.79 127.97 C 152.44 128.85 153.67 129.04 154.54 128.40 C 155.42 127.75 155.61 126.52 154.97 125.64 L 154.38 124.85 C 153.74 123.97 152.51 123.78 151.63 124.43 C 150.75 125.07 150.57 126.30 151.21 127.18 Z M 151.83 128.08 L 152.50 128.90 C 153.21 129.75 154.47 129.87 155.32 129.17 C 156.18 128.46 156.30 127.20 155.59 126.35 L 154.93 125.53 C 154.22 124.68 152.96 124.56 152.11 125.26 C 151.25 125.97 151.13 127.23 151.83 128.08 Z M 152.57 128.99 L 153.14 129.61 C 153.90 130.42 155.17 130.47 155.99 129.71 C 156.81 128.95 156.85 127.68 156.10 126.86 L 155.53 126.25 C 154.77 125.43 153.49 125.39 152.68 126.14 C 151.86 126.90 151.81 128.18 152.57 128.99 Z M 153.20 129.66 L 153.86 130.31 C 154.64 131.09 155.91 131.09 156.70 130.30 C 157.48 129.51 157.47 128.24 156.69 127.46 L 156.03 126.81 C 155.25 126.03 153.98 126.03 153.19 126.82 C 152.41 127.61 152.42 128.88 153.20 129.66 Z M 153.90 130.34 L 154.65 131.05 C 155.46 131.81 156.72 131.77 157.48 130.96 C 158.24 130.16 158.20 128.89 157.40 128.14 L 156.64 127.43 C 155.84 126.67 154.57 126.71 153.82 127.51 C 153.06 128.32 153.10 129.58 153.90 130.34 Z M 154.68 131.06 L 155.55 131.86 C 156.37 132.60 157.63 132.54 158.37 131.73 C 159.11 130.92 159.05 129.66 158.24 128.92 L 157.37 128.12 C 156.56 127.38 155.30 127.44 154.55 128.25 C 153.81 129.06 153.87 130.32 154.68 131.06 Z M 155.57 131.86 L 156.29 132.50 C 157.10 133.23 158.35 133.17 159.08 132.36 C 159.81 131.54 159.75 130.29 158.94 129.56 L 158.22 128.92 C 157.41 128.19 156.16 128.25 155.43 129.06 C 154.69 129.88 154.76 131.13 155.57 131.86 Z M 156.30 132.50 L 157.04 133.15 C 157.85 133.88 159.09 133.80 159.81 132.99 C 160.54 132.18 160.46 130.94 159.65 130.22 L 158.92 129.56 C 158.11 128.84 156.87 128.91 156.14 129.73 C 155.42 130.54 155.49 131.78 156.30 132.50 Z M 157.06 133.15 L 157.83 133.83 C 158.64 134.54 159.87 134.46 160.58 133.65 C 161.29 132.84 161.21 131.61 160.40 130.90 L 159.63 130.22 C 158.83 129.51 157.59 129.59 156.88 130.40 C 156.17 131.21 156.25 132.44 157.06 133.15 Z M 157.85 133.82 L 158.64 134.50 C 159.44 135.20 160.66 135.11 161.36 134.31 C 162.06 133.50 161.97 132.28 161.17 131.58 L 160.38 130.90 C 159.57 130.20 158.35 130.29 157.66 131.10 C 156.96 131.91 157.05 133.13 157.85 133.82 Z M 158.66 134.50 L 159.44 135.17 C 160.25 135.85 161.46 135.75 162.14 134.95 C 162.83 134.14 162.73 132.93 161.92 132.25 L 161.14 131.58 C 160.33 130.90 159.12 131.00 158.44 131.80 C 157.76 132.61 157.85 133.82 158.66 134.50 Z M 159.47 135.17 L 160.24 135.81 C 161.05 136.47 162.25 136.36 162.92 135.55 C 163.58 134.74 163.47 133.55 162.66 132.88 L 161.89 132.24 C 161.09 131.57 159.89 131.69 159.22 132.50 C 158.55 133.30 158.67 134.50 159.47 135.17 Z M 160.29 135.80 L 161.21 136.53 C 162.02 137.17 163.19 137.04 163.83 136.24 C 164.47 135.43 164.34 134.26 163.53 133.62 L 162.61 132.88 C 161.81 132.24 160.64 132.38 160.00 133.18 C 159.35 133.99 159.49 135.16 160.29 135.80 Z M 161.28 136.51 L 162.14 137.17 C 162.93 137.77 164.06 137.62 164.67 136.83 C 165.27 136.03 165.12 134.90 164.33 134.29 L 163.47 133.64 C 162.68 133.03 161.54 133.19 160.94 133.98 C 160.33 134.77 160.48 135.91 161.28 136.51 Z M 162.20 137.14 L 162.99 137.72 C 163.77 138.29 164.86 138.12 165.43 137.34 C 166.01 136.56 165.84 135.47 165.06 134.90 L 164.27 134.32 C 163.49 133.75 162.39 133.92 161.82 134.70 C 161.25 135.48 161.42 136.57 162.20 137.14 Z M 163.05 137.70 L 163.77 138.20 C 164.53 138.74 165.59 138.56 166.13 137.79 C 166.67 137.03 166.48 135.97 165.72 135.43 L 165.00 134.92 C 164.23 134.39 163.18 134.57 162.64 135.34 C 162.10 136.10 162.28 137.16 163.05 137.70 Z M 163.82 138.18 L 164.62 138.72 C 165.37 139.22 166.40 139.02 166.90 138.27 C 167.41 137.52 167.21 136.50 166.46 135.99 L 165.66 135.45 C 164.91 134.95 163.89 135.15 163.38 135.90 C 162.87 136.65 163.07 137.67 163.82 138.18 Z M 164.67 138.71 L 165.57 139.28 C 166.31 139.75 167.31 139.53 167.79 138.78 C 168.26 138.04 168.04 137.04 167.29 136.56 L 166.40 136.00 C 165.65 135.52 164.66 135.74 164.18 136.49 C 163.70 137.24 163.93 138.23 164.67 138.71 Z M 165.61 139.28 L 166.39 139.75 C 167.14 140.20 168.12 139.96 168.57 139.21 C 169.02 138.46 168.78 137.49 168.03 137.04 L 167.25 136.56 C 166.50 136.11 165.53 136.35 165.07 137.10 C 164.62 137.85 164.86 138.82 165.61 139.28 Z M 166.41 139.74 L 166.72 139.92 C 167.46 140.36 168.43 140.11 168.87 139.37 C 169.31 138.62 169.06 137.66 168.31 137.22 L 168.01 137.04 C 167.26 136.60 166.30 136.85 165.86 137.59 C 165.42 138.34 165.67 139.30 166.41 139.74 Z"
      fill="black"
      fill-rule="nonzero" /><path d="M 172.43 124.23 L 173.23 123.58 C 173.99 122.96 174.11 121.84 173.49 121.08 C 172.87 120.32 171.75 120.20 170.99 120.82 L 170.19 121.48 C 169.43 122.10 169.31 123.22 169.93 123.98 C 170.55 124.74 171.67 124.85 172.43 124.23 Z M 173.14 123.58 L 173.94 122.98 C 174.70 122.41 174.86 121.33 174.29 120.57 C 173.72 119.81 172.64 119.65 171.88 120.22 L 171.08 120.82 C 170.32 121.39 170.17 122.47 170.74 123.23 C 171.31 123.99 172.38 124.14 173.14 123.58 Z M 173.79 123.03 L 174.60 122.53 C 175.39 122.05 175.63 121.02 175.15 120.23 C 174.67 119.44 173.64 119.20 172.86 119.68 L 172.04 120.17 C 171.25 120.66 171.01 121.68 171.49 122.47 C 171.97 123.26 173.00 123.51 173.79 123.03 Z M 174.38 122.62 L 175.26 122.24 C 176.10 121.88 176.48 120.91 176.12 120.07 C 175.76 119.24 174.79 118.85 173.96 119.21 L 173.08 119.59 C 172.24 119.95 171.85 120.92 172.21 121.75 C 172.57 122.59 173.54 122.98 174.38 122.62 Z M 175.08 122.30 L 176.06 122.01 C 176.93 121.75 177.42 120.83 177.17 119.96 C 176.91 119.10 175.99 118.60 175.12 118.86 L 174.14 119.15 C 173.27 119.41 172.78 120.32 173.03 121.19 C 173.29 122.06 174.21 122.56 175.08 122.30 Z M 175.95 122.05 L 177.04 121.81 C 177.94 121.61 178.50 120.72 178.30 119.83 C 178.10 118.94 177.22 118.37 176.32 118.57 L 175.23 118.81 C 174.34 119.01 173.77 119.90 173.97 120.79 C 174.17 121.69 175.06 122.25 175.95 122.05 Z M 176.81 121.88 L 177.84 121.81 C 178.77 121.74 179.48 120.92 179.40 119.98 C 179.33 119.05 178.52 118.35 177.58 118.42 L 176.55 118.49 C 175.62 118.56 174.92 119.38 174.99 120.32 C 175.06 121.25 175.87 121.95 176.81 121.88 Z M 177.05 121.72 L 177.74 122.01 C 178.63 122.37 179.64 121.95 180.01 121.06 C 180.38 120.17 179.96 119.16 179.07 118.79 L 178.38 118.50 C 177.49 118.14 176.47 118.56 176.10 119.45 C 175.73 120.34 176.16 121.35 177.05 121.72 Z M 176.68 120.80 L 176.86 121.57 C 177.09 122.52 178.04 123.11 178.99 122.89 C 179.94 122.67 180.53 121.71 180.30 120.76 L 180.12 119.99 C 179.90 119.04 178.95 118.46 178.00 118.68 C 177.05 118.90 176.46 119.85 176.68 120.80 Z M 176.85 120.77 L 176.59 121.90 C 176.37 122.86 176.97 123.82 177.93 124.04 C 178.89 124.25 179.84 123.66 180.06 122.70 L 180.32 121.57 C 180.54 120.61 179.94 119.65 178.98 119.43 C 178.02 119.21 177.07 119.81 176.85 120.77 Z M 176.66 121.64 L 176.31 122.51 C 175.95 123.43 176.39 124.47 177.31 124.84 C 178.23 125.20 179.27 124.76 179.64 123.84 L 179.99 122.96 C 180.35 122.05 179.91 121.00 178.99 120.64 C 178.07 120.27 177.03 120.72 176.66 121.64 Z M 176.36 122.40 L 175.97 123.23 C 175.54 124.12 175.92 125.19 176.81 125.61 C 177.70 126.04 178.77 125.66 179.20 124.77 L 179.59 123.95 C 180.02 123.06 179.64 121.99 178.75 121.56 C 177.86 121.13 176.79 121.51 176.36 122.40 Z M 176.00 123.16 L 175.53 124.05 C 175.07 124.93 175.40 126.01 176.27 126.47 C 177.15 126.93 178.23 126.60 178.69 125.73 L 179.17 124.84 C 179.63 123.96 179.29 122.88 178.42 122.41 C 177.54 121.95 176.46 122.29 176.00 123.16 Z M 175.55 124.01 L 175.01 124.98 C 174.52 125.84 174.83 126.93 175.69 127.42 C 176.56 127.90 177.65 127.59 178.13 126.73 L 178.67 125.76 C 179.16 124.90 178.85 123.81 177.99 123.33 C 177.12 122.84 176.03 123.15 175.55 124.01 Z M 175.02 124.96 L 174.47 125.92 C 173.97 126.77 174.27 127.87 175.12 128.36 C 175.98 128.86 177.08 128.56 177.57 127.71 L 178.12 126.75 C 178.61 125.89 178.32 124.80 177.46 124.30 C 176.61 123.81 175.51 124.10 175.02 124.96 Z M 174.47 125.91 L 173.96 126.79 C 173.46 127.65 173.75 128.74 174.60 129.24 C 175.45 129.74 176.55 129.45 177.05 128.60 L 177.56 127.71 C 178.06 126.86 177.77 125.77 176.92 125.27 C 176.07 124.77 174.97 125.06 174.47 125.91 Z M 173.96 126.79 L 173.43 127.69 C 172.93 128.54 173.22 129.63 174.07 130.13 C 174.91 130.63 176.01 130.35 176.51 129.50 L 177.04 128.60 C 177.54 127.75 177.26 126.66 176.41 126.16 C 175.56 125.66 174.46 125.94 173.96 126.79 Z M 173.44 127.69 L 172.91 128.58 C 172.41 129.42 172.69 130.51 173.54 131.02 C 174.38 131.52 175.47 131.24 175.98 130.39 L 176.50 129.50 C 177.00 128.66 176.73 127.57 175.88 127.06 C 175.03 126.56 173.94 126.84 173.44 127.69 Z M 172.92 128.57 L 172.41 129.42 C 171.91 130.27 172.19 131.36 173.03 131.86 C 173.87 132.36 174.96 132.09 175.46 131.24 L 175.97 130.39 C 176.47 129.55 176.20 128.46 175.35 127.96 C 174.51 127.46 173.42 127.73 172.92 128.57 Z M 172.42 129.42 L 171.95 130.21 C 171.44 131.05 171.72 132.14 172.56 132.64 C 173.40 133.14 174.49 132.87 174.99 132.03 L 175.46 131.24 C 175.96 130.40 175.69 129.32 174.85 128.81 C 174.01 128.31 172.92 128.58 172.42 129.42 Z M 171.96 130.21 L 171.37 131.19 C 170.87 132.02 171.13 133.11 171.97 133.61 C 172.80 134.11 173.89 133.84 174.39 133.01 L 174.98 132.03 C 175.48 131.19 175.21 130.11 174.38 129.61 C 173.54 129.10 172.46 129.37 171.96 130.21 Z M 171.39 131.19 L 170.87 132.04 C 170.36 132.86 170.62 133.93 171.45 134.44 C 172.27 134.94 173.35 134.68 173.85 133.86 L 174.37 133.01 C 174.87 132.19 174.61 131.11 173.79 130.61 C 172.97 130.10 171.89 130.36 171.39 131.19 Z M 170.89 132.02 L 170.40 132.80 C 169.89 133.61 170.13 134.68 170.94 135.19 C 171.75 135.70 172.82 135.46 173.33 134.65 L 173.82 133.87 C 174.33 133.06 174.09 131.99 173.28 131.48 C 172.47 130.97 171.41 131.22 170.89 132.02 Z M 170.43 132.79 L 169.92 133.57 C 169.40 134.36 169.62 135.42 170.41 135.94 C 171.20 136.46 172.27 136.24 172.79 135.45 L 173.30 134.67 C 173.82 133.88 173.60 132.81 172.81 132.29 C 172.02 131.77 170.95 131.99 170.43 132.79 Z M 169.95 133.55 L 169.38 134.39 C 168.85 135.16 169.05 136.22 169.82 136.75 C 170.60 137.28 171.65 137.08 172.19 136.30 L 172.76 135.47 C 173.29 134.69 173.09 133.63 172.31 133.10 C 171.54 132.57 170.48 132.77 169.95 133.55 Z M 169.41 134.37 L 168.81 135.21 C 168.28 135.97 168.46 137.02 169.22 137.56 C 169.98 138.09 171.03 137.91 171.57 137.15 L 172.16 136.32 C 172.69 135.56 172.51 134.51 171.75 133.97 C 170.99 133.43 169.94 133.61 169.41 134.37 Z M 168.84 135.19 L 168.26 135.99 C 167.71 136.74 167.88 137.78 168.62 138.33 C 169.37 138.87 170.41 138.71 170.96 137.96 L 171.54 137.17 C 172.08 136.42 171.92 135.38 171.18 134.83 C 170.43 134.29 169.39 134.45 168.84 135.19 Z M 168.29 135.98 L 167.66 136.81 C 167.11 137.54 167.26 138.57 167.98 139.12 C 168.71 139.67 169.74 139.53 170.29 138.81 L 170.92 137.97 C 171.47 137.25 171.33 136.21 170.60 135.66 C 169.88 135.11 168.84 135.25 168.29 135.98 Z M 167.70 136.80 L 167.08 137.60 C 166.52 138.30 166.65 139.32 167.35 139.88 C 168.05 140.43 169.07 140.31 169.63 139.61 L 170.25 138.81 C 170.81 138.11 170.69 137.09 169.98 136.53 C 169.28 135.98 168.26 136.10 167.70 136.80 Z M 167.12 137.60 L 166.52 138.34 C 165.97 139.02 166.08 140.02 166.76 140.57 C 167.44 141.13 168.44 141.02 169.00 140.34 L 169.59 139.60 C 170.14 138.92 170.04 137.92 169.35 137.37 C 168.67 136.81 167.67 136.92 167.12 137.60 Z M 166.54 138.34 L 166.39 138.53 C 165.84 139.20 165.94 140.19 166.61 140.74 C 167.29 141.29 168.28 141.19 168.82 140.52 L 168.98 140.33 C 169.53 139.66 169.42 138.67 168.75 138.12 C 168.08 137.57 167.09 137.67 166.54 138.34 Z"
      fill="black"
      fill-rule="nonzero" /><path d="M 167.11 126.80 L 167.86 127.44 C 168.67 128.13 169.89 128.03 170.59 127.22 C 171.28 126.40 171.18 125.18 170.36 124.49 L 169.61 123.85 C 168.79 123.16 167.57 123.26 166.88 124.07 C 166.19 124.89 166.29 126.11 167.11 126.80 Z M 167.79 127.45 L 168.54 128.11 C 169.36 128.84 170.61 128.76 171.34 127.95 C 172.07 127.13 171.99 125.88 171.18 125.15 L 170.43 124.49 C 169.61 123.76 168.36 123.83 167.63 124.65 C 166.90 125.47 166.98 126.72 167.79 127.45 Z M 168.46 128.08 L 169.16 128.76 C 169.96 129.54 171.24 129.52 172.01 128.72 C 172.79 127.92 172.77 126.64 171.97 125.87 L 171.26 125.18 C 170.46 124.41 169.19 124.43 168.41 125.23 C 167.64 126.03 167.66 127.30 168.46 128.08 Z M 169.09 128.70 L 169.76 129.41 C 170.53 130.22 171.81 130.26 172.62 129.50 C 173.43 128.73 173.47 127.45 172.70 126.64 L 172.04 125.93 C 171.27 125.11 169.99 125.08 169.18 125.84 C 168.36 126.61 168.33 127.89 169.09 128.70 Z M 169.72 129.36 L 170.41 130.13 C 171.14 130.97 172.42 131.05 173.25 130.31 C 174.09 129.57 174.16 128.30 173.43 127.46 L 172.74 126.69 C 172.01 125.85 170.73 125.78 169.90 126.51 C 169.06 127.25 168.98 128.53 169.72 129.36 Z M 170.39 130.10 L 171.02 130.84 C 171.74 131.69 173.01 131.79 173.85 131.07 C 174.70 130.35 174.80 129.08 174.08 128.24 L 173.45 127.50 C 172.73 126.65 171.46 126.55 170.61 127.27 C 169.77 127.99 169.67 129.25 170.39 130.10 Z M 171.01 130.82 L 171.64 131.58 C 172.35 132.42 173.61 132.54 174.46 131.83 C 175.31 131.13 175.42 129.87 174.72 129.02 L 174.09 128.26 C 173.38 127.42 172.12 127.30 171.27 128.00 C 170.42 128.71 170.31 129.97 171.01 130.82 Z M 171.64 131.56 L 172.29 132.35 C 172.99 133.20 174.24 133.33 175.09 132.63 C 175.94 131.94 176.06 130.69 175.37 129.84 L 174.72 129.04 C 174.02 128.19 172.77 128.06 171.92 128.76 C 171.07 129.45 170.95 130.71 171.64 131.56 Z M 172.29 132.34 L 172.93 133.12 C 173.61 133.97 174.86 134.10 175.71 133.42 C 176.55 132.73 176.69 131.49 176.00 130.64 L 175.37 129.85 C 174.68 129.00 173.44 128.87 172.59 129.56 C 171.74 130.24 171.61 131.49 172.29 132.34 Z M 172.94 133.11 L 173.55 133.87 C 174.23 134.71 175.46 134.85 176.30 134.17 C 177.15 133.49 177.28 132.26 176.60 131.42 L 175.99 130.65 C 175.31 129.81 174.08 129.68 173.24 130.35 C 172.40 131.03 172.26 132.26 172.94 133.11 Z M 173.56 133.85 L 174.19 134.64 C 174.86 135.47 176.08 135.61 176.92 134.94 C 177.75 134.27 177.89 133.05 177.22 132.21 L 176.59 131.43 C 175.92 130.59 174.70 130.46 173.86 131.13 C 173.03 131.80 172.89 133.02 173.56 133.85 Z M 174.21 134.63 L 174.85 135.43 C 175.52 136.26 176.73 136.39 177.56 135.72 C 178.38 135.06 178.51 133.85 177.85 133.02 L 177.20 132.22 C 176.54 131.39 175.33 131.26 174.50 131.93 C 173.67 132.59 173.54 133.80 174.21 134.63 Z M 174.88 135.42 L 175.52 136.21 C 176.18 137.02 177.37 137.15 178.18 136.49 C 179.00 135.83 179.12 134.64 178.46 133.82 L 177.82 133.03 C 177.16 132.22 175.97 132.10 175.16 132.76 C 174.34 133.42 174.22 134.61 174.88 135.42 Z M 175.55 136.20 L 176.19 136.98 C 176.84 137.78 178.02 137.90 178.81 137.24 C 179.61 136.59 179.73 135.42 179.08 134.62 L 178.43 133.83 C 177.78 133.04 176.61 132.92 175.81 133.57 C 175.01 134.23 174.89 135.40 175.55 136.20 Z M 176.22 136.97 L 176.86 137.74 C 177.51 138.52 178.66 138.63 179.44 137.99 C 180.22 137.34 180.33 136.19 179.69 135.41 L 179.04 134.63 C 178.40 133.85 177.24 133.74 176.46 134.39 C 175.68 135.04 175.58 136.19 176.22 136.97 Z M 176.90 137.73 L 177.52 138.48 C 178.16 139.24 179.30 139.34 180.06 138.70 C 180.82 138.06 180.92 136.92 180.28 136.16 L 179.65 135.42 C 179.01 134.66 177.88 134.56 177.12 135.20 C 176.35 135.84 176.26 136.97 176.90 137.73 Z M 177.57 138.47 L 178.27 139.29 C 178.91 140.03 180.02 140.11 180.75 139.47 C 181.49 138.84 181.58 137.73 180.94 136.99 L 180.24 136.17 C 179.60 135.44 178.49 135.35 177.75 135.99 C 177.02 136.62 176.93 137.73 177.57 138.47 Z M 178.33 139.29 L 179.01 140.04 C 179.64 140.74 180.72 140.80 181.43 140.17 C 182.13 139.53 182.19 138.45 181.56 137.75 L 180.88 137.00 C 180.25 136.29 179.17 136.23 178.46 136.87 C 177.76 137.50 177.70 138.58 178.33 139.29 Z M 179.08 140.05 L 179.74 140.73 C 180.37 141.39 181.43 141.41 182.09 140.77 C 182.75 140.13 182.77 139.07 182.13 138.41 L 181.48 137.74 C 180.84 137.07 179.79 137.06 179.13 137.69 C 178.46 138.33 178.45 139.39 179.08 140.05 Z M 179.83 140.76 L 180.57 141.45 C 181.23 142.06 182.26 142.02 182.87 141.36 C 183.48 140.70 183.44 139.67 182.78 139.06 L 182.04 138.38 C 181.38 137.77 180.35 137.80 179.74 138.46 C 179.13 139.12 179.17 140.15 179.83 140.76 Z M 180.66 141.49 L 181.43 142.12 C 182.11 142.68 183.11 142.59 183.68 141.91 C 184.24 141.23 184.14 140.22 183.46 139.66 L 182.69 139.02 C 182.01 138.46 181.01 138.56 180.44 139.24 C 179.88 139.92 179.98 140.93 180.66 141.49 Z M 181.48 142.13 L 182.18 142.67 C 182.86 143.20 183.85 143.08 184.38 142.39 C 184.92 141.70 184.79 140.71 184.10 140.18 L 183.41 139.64 C 182.72 139.11 181.73 139.24 181.20 139.93 C 180.67 140.61 180.79 141.60 181.48 142.13 Z"
      fill="black"
      fill-rule="nonzero" /><path d="M 151.88 152.77 L 152.31 151.85 C 152.72 150.96 152.34 149.90 151.45 149.49 C 150.56 149.07 149.50 149.46 149.09 150.35 L 148.66 151.28 C 148.24 152.17 148.63 153.22 149.52 153.64 C 150.41 154.05 151.47 153.66 151.88 152.77 Z M 152.26 151.90 L 152.72 151.01 C 153.16 150.15 152.82 149.09 151.96 148.65 C 151.09 148.21 150.04 148.55 149.59 149.41 L 149.14 150.30 C 148.69 151.16 149.03 152.22 149.90 152.66 C 150.76 153.10 151.82 152.76 152.26 151.90 Z M 152.62 151.13 L 153.15 150.30 C 153.66 149.49 153.42 148.41 152.60 147.90 C 151.79 147.39 150.72 147.64 150.21 148.45 L 149.68 149.29 C 149.17 150.10 149.42 151.17 150.23 151.68 C 151.04 152.19 152.11 151.95 152.62 151.13 Z M 153.04 150.45 L 153.66 149.66 C 154.25 148.91 154.12 147.82 153.37 147.23 C 152.63 146.64 151.54 146.77 150.95 147.51 L 150.32 148.30 C 149.73 149.05 149.86 150.14 150.61 150.73 C 151.36 151.32 152.44 151.20 153.04 150.45 Z M 153.58 149.75 L 154.24 149.02 C 154.89 148.32 154.84 147.22 154.13 146.58 C 153.43 145.94 152.34 145.99 151.69 146.69 L 151.03 147.42 C 150.38 148.13 150.43 149.22 151.14 149.86 C 151.84 150.51 152.94 150.46 153.58 149.75 Z M 154.21 149.06 L 154.89 148.36 C 155.55 147.67 155.53 146.58 154.84 145.91 C 154.15 145.25 153.06 145.27 152.40 145.96 L 151.72 146.66 C 151.06 147.35 151.08 148.44 151.77 149.10 C 152.46 149.76 153.55 149.74 154.21 149.06 Z M 154.86 148.38 L 155.57 147.67 C 156.24 147.00 156.24 145.90 155.57 145.23 C 154.89 144.56 153.80 144.56 153.13 145.23 L 152.42 145.94 C 151.75 146.61 151.75 147.71 152.42 148.38 C 153.10 149.05 154.19 149.05 154.86 148.38 Z M 155.54 147.70 L 156.27 146.99 C 156.96 146.33 156.98 145.24 156.32 144.55 C 155.66 143.87 154.57 143.84 153.89 144.50 L 153.15 145.21 C 152.47 145.87 152.44 146.96 153.10 147.65 C 153.76 148.33 154.85 148.36 155.54 147.70 Z M 156.24 147.02 L 156.98 146.35 C 157.68 145.71 157.73 144.62 157.09 143.91 C 156.44 143.21 155.35 143.16 154.65 143.81 L 153.92 144.48 C 153.21 145.12 153.17 146.21 153.81 146.91 C 154.45 147.61 155.54 147.66 156.24 147.02 Z M 156.93 146.39 L 157.70 145.73 C 158.43 145.11 158.51 144.02 157.89 143.30 C 157.28 142.58 156.19 142.49 155.47 143.11 L 154.70 143.77 C 153.97 144.39 153.89 145.47 154.51 146.20 C 155.12 146.92 156.21 147.00 156.93 146.39 Z M 157.64 145.79 L 158.55 145.09 C 159.31 144.51 159.46 143.42 158.88 142.66 C 158.29 141.90 157.21 141.76 156.45 142.34 L 155.53 143.04 C 154.77 143.62 154.63 144.71 155.21 145.47 C 155.79 146.23 156.88 146.37 157.64 145.79 Z M 158.34 145.26 L 159.24 144.77 C 160.10 144.31 160.41 143.24 159.95 142.39 C 159.48 141.53 158.41 141.22 157.56 141.68 L 156.66 142.17 C 155.81 142.64 155.49 143.70 155.96 144.56 C 156.42 145.41 157.49 145.73 158.34 145.26 Z M 158.02 144.98 L 158.61 145.11 C 159.58 145.32 160.54 144.71 160.75 143.74 C 160.96 142.77 160.35 141.82 159.38 141.60 L 158.79 141.47 C 157.82 141.26 156.86 141.87 156.65 142.84 C 156.44 143.81 157.05 144.77 158.02 144.98 Z M 157.21 143.72 L 157.39 144.62 C 157.60 145.61 158.56 146.24 159.55 146.04 C 160.53 145.84 161.17 144.88 160.97 143.89 L 160.78 142.99 C 160.58 142.00 159.61 141.37 158.63 141.57 C 157.64 141.77 157.01 142.74 157.21 143.72 Z M 157.34 144.12 L 157.25 145.28 C 157.18 146.30 157.94 147.19 158.96 147.26 C 159.97 147.34 160.86 146.58 160.93 145.56 L 161.02 144.39 C 161.10 143.38 160.33 142.49 159.32 142.42 C 158.30 142.34 157.41 143.10 157.34 144.12 Z M 157.26 145.13 L 157.10 146.12 C 156.94 147.13 157.63 148.08 158.64 148.24 C 159.65 148.41 160.60 147.72 160.77 146.71 L 160.92 145.72 C 161.09 144.70 160.40 143.75 159.39 143.59 C 158.37 143.43 157.42 144.12 157.26 145.13 Z M 157.11 146.03 L 156.91 147.03 C 156.70 148.04 157.34 149.02 158.34 149.23 C 159.35 149.44 160.33 148.80 160.54 147.79 L 160.75 146.79 C 160.96 145.79 160.32 144.80 159.31 144.59 C 158.31 144.38 157.32 145.03 157.11 146.03 Z M 156.92 146.96 L 156.67 147.95 C 156.42 148.95 157.03 149.96 158.03 150.21 C 159.02 150.46 160.03 149.85 160.28 148.85 L 160.53 147.86 C 160.78 146.86 160.17 145.85 159.18 145.61 C 158.18 145.36 157.17 145.96 156.92 146.96 Z M 156.69 147.89 L 156.41 148.87 C 156.12 149.86 156.70 150.89 157.69 151.17 C 158.68 151.45 159.71 150.88 159.99 149.89 L 160.27 148.92 C 160.55 147.93 159.98 146.90 158.99 146.61 C 158.00 146.33 156.97 146.90 156.69 147.89 Z M 156.42 148.83 L 156.13 149.75 C 155.83 150.73 156.38 151.78 157.36 152.08 C 158.34 152.39 159.39 151.84 159.69 150.85 L 159.98 149.93 C 160.28 148.95 159.73 147.91 158.75 147.60 C 157.77 147.30 156.72 147.85 156.42 148.83 Z M 156.14 149.74 L 155.86 150.62 C 155.54 151.60 156.09 152.64 157.07 152.96 C 158.05 153.27 159.09 152.73 159.41 151.75 L 159.69 150.87 C 160.00 149.89 159.46 148.84 158.48 148.53 C 157.50 148.21 156.45 148.76 156.14 149.74 Z M 155.87 150.59 L 155.56 151.51 C 155.23 152.49 155.76 153.54 156.74 153.87 C 157.71 154.19 158.77 153.67 159.09 152.69 L 159.40 151.77 C 159.72 150.79 159.20 149.74 158.22 149.41 C 157.24 149.09 156.19 149.62 155.87 150.59 Z M 155.57 151.47 L 155.21 152.50 C 154.86 153.46 155.36 154.53 156.33 154.88 C 157.29 155.23 158.36 154.72 158.71 153.76 L 159.08 152.73 C 159.42 151.76 158.92 150.70 157.96 150.35 C 156.99 150.00 155.92 150.51 155.57 151.47 Z M 155.22 152.46 L 154.90 153.30 C 154.53 154.26 155.01 155.33 155.96 155.70 C 156.92 156.07 158.00 155.59 158.37 154.64 L 158.69 153.80 C 159.06 152.84 158.58 151.76 157.63 151.39 C 156.67 151.02 155.59 151.50 155.22 152.46 Z M 154.91 153.27 L 154.54 154.19 C 154.16 155.13 154.62 156.22 155.57 156.60 C 156.52 156.98 157.60 156.53 157.98 155.58 L 158.35 154.66 C 158.74 153.71 158.28 152.63 157.33 152.25 C 156.38 151.86 155.30 152.32 154.91 153.27 Z M 154.56 154.16 L 154.15 155.13 C 153.75 156.07 154.19 157.15 155.13 157.55 C 156.08 157.95 157.16 157.51 157.56 156.57 L 157.97 155.60 C 158.37 154.66 157.92 153.57 156.98 153.18 C 156.04 152.78 154.96 153.22 154.56 154.16 Z M 154.16 155.11 L 153.74 156.07 C 153.33 157.01 153.75 158.09 154.69 158.50 C 155.62 158.91 156.71 158.49 157.12 157.56 L 157.54 156.59 C 157.95 155.66 157.53 154.57 156.60 154.16 C 155.66 153.75 154.57 154.17 154.16 155.11 Z M 153.76 156.05 L 153.36 156.92 C 152.94 157.84 153.35 158.93 154.28 159.35 C 155.20 159.77 156.29 159.36 156.71 158.44 L 157.10 157.57 C 157.52 156.65 157.11 155.56 156.19 155.14 C 155.26 154.72 154.18 155.13 153.76 156.05 Z M 153.38 156.91 L 152.97 157.80 C 152.54 158.71 152.94 159.80 153.86 160.22 C 154.77 160.65 155.86 160.25 156.28 159.34 L 156.69 158.45 C 157.12 157.53 156.72 156.45 155.81 156.02 C 154.89 155.60 153.81 155.99 153.38 156.91 Z M 152.99 157.79 L 152.55 158.70 C 152.12 159.61 152.51 160.69 153.41 161.12 C 154.32 161.55 155.40 161.16 155.83 160.26 L 156.27 159.34 C 156.69 158.44 156.31 157.35 155.40 156.93 C 154.50 156.50 153.41 156.88 152.99 157.79 Z M 152.57 158.70 L 152.11 159.65 C 151.68 160.54 152.06 161.62 152.95 162.05 C 153.85 162.49 154.93 162.11 155.36 161.21 L 155.82 160.26 C 156.25 159.36 155.87 158.29 154.97 157.85 C 154.08 157.42 153.00 157.80 152.57 158.70 Z M 152.12 159.65 L 151.69 160.55 C 151.25 161.44 151.63 162.51 152.52 162.94 C 153.41 163.37 154.48 163.00 154.91 162.11 L 155.35 161.21 C 155.78 160.32 155.41 159.25 154.52 158.82 C 153.63 158.38 152.56 158.75 152.12 159.65 Z M 151.70 160.54 L 151.26 161.44 C 150.83 162.32 151.19 163.39 152.07 163.82 C 152.96 164.25 154.02 163.89 154.46 163.01 L 154.90 162.12 C 155.33 161.23 154.97 160.17 154.08 159.73 C 153.20 159.30 152.13 159.66 151.70 160.54 Z M 151.28 161.43 L 150.83 162.33 C 150.39 163.21 150.74 164.27 151.61 164.71 C 152.49 165.14 153.55 164.79 153.99 163.92 L 154.44 163.02 C 154.88 162.14 154.53 161.08 153.65 160.64 C 152.78 160.20 151.72 160.56 151.28 161.43 Z M 150.85 162.32 L 150.38 163.22 C 149.93 164.08 150.27 165.14 151.13 165.59 C 152.00 166.03 153.06 165.70 153.50 164.83 L 153.97 163.93 C 154.41 163.07 154.08 162.01 153.21 161.56 C 152.35 161.12 151.29 161.46 150.85 162.32 Z M 150.40 163.20 L 149.93 164.08 C 149.47 164.93 149.79 165.99 150.64 166.45 C 151.49 166.91 152.55 166.59 153.00 165.74 L 153.48 164.85 C 153.94 164.00 153.62 162.94 152.77 162.49 C 151.92 162.03 150.86 162.35 150.40 163.20 Z M 149.96 164.06 L 149.43 164.99 C 148.96 165.83 149.25 166.88 150.08 167.36 C 150.92 167.83 151.98 167.53 152.45 166.70 L 152.97 165.76 C 153.45 164.93 153.15 163.87 152.32 163.40 C 151.49 162.93 150.43 163.22 149.96 164.06 Z M 149.46 164.96 L 148.90 165.90 C 148.41 166.71 148.68 167.77 149.50 168.26 C 150.31 168.75 151.37 168.48 151.86 167.66 L 152.41 166.73 C 152.90 165.91 152.64 164.86 151.82 164.37 C 151.00 163.88 149.95 164.15 149.46 164.96 Z M 148.93 165.87 L 148.39 166.74 C 147.89 167.54 148.13 168.59 148.93 169.09 C 149.72 169.59 150.78 169.35 151.28 168.56 L 151.82 167.69 C 152.33 166.89 152.09 165.84 151.29 165.34 C 150.49 164.83 149.44 165.07 148.93 165.87 Z M 148.42 166.71 L 147.90 167.50 C 147.39 168.28 147.60 169.33 148.38 169.84 C 149.16 170.36 150.21 170.15 150.73 169.36 L 151.25 168.58 C 151.76 167.80 151.55 166.75 150.77 166.23 C 149.99 165.72 148.94 165.93 148.42 166.71 Z M 147.94 167.47 L 147.41 168.22 C 146.88 168.98 147.07 170.03 147.83 170.56 C 148.59 171.09 149.64 170.91 150.17 170.14 L 150.70 169.39 C 151.23 168.63 151.04 167.58 150.28 167.05 C 149.52 166.52 148.47 166.71 147.94 167.47 Z M 147.48 168.16 L 146.81 169.03 C 146.24 169.75 146.37 170.80 147.09 171.36 C 147.82 171.92 148.86 171.79 149.42 171.07 L 150.10 170.20 C 150.66 169.48 150.54 168.44 149.81 167.87 C 149.09 167.31 148.05 167.44 147.48 168.16 Z M 146.98 168.88 L 146.32 169.52 C 145.67 170.14 145.65 171.18 146.28 171.83 C 146.91 172.47 147.94 172.49 148.59 171.87 L 149.25 171.22 C 149.90 170.60 149.91 169.57 149.29 168.92 C 148.66 168.27 147.63 168.25 146.98 168.88 Z M 146.61 169.32 L 145.84 169.79 C 145.09 170.26 144.85 171.25 145.31 172.00 C 145.78 172.76 146.77 173.00 147.52 172.53 L 148.29 172.06 C 149.05 171.60 149.29 170.61 148.82 169.85 C 148.36 169.09 147.37 168.86 146.61 169.32 Z M 146.12 169.67 L 145.20 170.02 C 144.38 170.33 143.97 171.25 144.28 172.07 C 144.59 172.90 145.51 173.31 146.33 173.00 L 147.25 172.65 C 148.07 172.34 148.48 171.42 148.17 170.60 C 147.86 169.78 146.94 169.36 146.12 169.67 Z M 145.35 169.99 L 144.35 170.26 C 143.51 170.49 143.02 171.36 143.25 172.20 C 143.48 173.04 144.35 173.54 145.19 173.30 L 146.18 173.03 C 147.02 172.80 147.52 171.93 147.28 171.09 C 147.05 170.25 146.19 169.76 145.35 169.99 Z M 144.38 170.26 L 144.20 170.31 C 143.36 170.52 142.85 171.38 143.06 172.22 C 143.28 173.06 144.13 173.56 144.97 173.35 L 145.16 173.30 C 145.99 173.09 146.50 172.24 146.29 171.40 C 146.08 170.56 145.22 170.05 144.38 170.26 Z"
      fill="black"
      fill-rule="nonzero" /><path d="M 148.62 156.19 L 149.50 156.43 C 150.54 156.71 151.60 156.09 151.88 155.06 C 152.16 154.02 151.55 152.96 150.51 152.68 L 149.63 152.44 C 148.59 152.16 147.53 152.77 147.25 153.81 C 146.97 154.84 147.58 155.91 148.62 156.19 Z M 149.31 156.41 L 150.22 156.76 C 151.25 157.14 152.39 156.62 152.78 155.59 C 153.17 154.57 152.65 153.42 151.62 153.04 L 150.71 152.69 C 149.68 152.31 148.53 152.83 148.15 153.85 C 147.76 154.88 148.28 156.03 149.31 156.41 Z M 149.92 156.66 L 150.87 157.20 C 151.85 157.75 153.09 157.40 153.64 156.43 C 154.19 155.45 153.84 154.22 152.87 153.67 L 151.92 153.13 C 150.94 152.58 149.71 152.92 149.16 153.90 C 148.60 154.88 148.95 156.11 149.92 156.66 Z M 150.64 157.07 L 151.37 157.61 C 152.27 158.29 153.56 158.11 154.23 157.20 C 154.91 156.30 154.73 155.02 153.82 154.34 L 153.10 153.79 C 152.19 153.12 150.91 153.30 150.23 154.20 C 149.55 155.11 149.74 156.39 150.64 157.07 Z M 151.26 157.52 L 152.01 158.17 C 152.86 158.91 154.15 158.82 154.89 157.97 C 155.63 157.11 155.54 155.82 154.69 155.08 L 153.94 154.43 C 153.08 153.69 151.79 153.78 151.05 154.64 C 150.31 155.49 150.40 156.78 151.26 157.52 Z M 151.94 158.11 L 152.70 158.83 C 153.52 159.61 154.82 159.57 155.59 158.75 C 156.37 157.93 156.33 156.64 155.51 155.86 L 154.75 155.14 C 153.93 154.37 152.64 154.40 151.86 155.22 C 151.09 156.04 151.12 157.34 151.94 158.11 Z M 152.67 158.79 L 153.42 159.54 C 154.22 160.34 155.51 160.33 156.31 159.53 C 157.10 158.73 157.10 157.44 156.30 156.65 L 155.55 155.90 C 154.75 155.10 153.46 155.11 152.66 155.90 C 151.86 156.70 151.87 158.00 152.67 158.79 Z M 153.40 159.52 L 154.18 160.30 C 154.96 161.11 156.25 161.12 157.05 160.33 C 157.86 159.55 157.87 158.26 157.08 157.46 L 156.31 156.67 C 155.53 155.87 154.24 155.85 153.43 156.64 C 152.63 157.43 152.62 158.71 153.40 159.52 Z M 154.18 160.29 L 154.91 161.04 C 155.68 161.85 156.96 161.87 157.77 161.09 C 158.57 160.32 158.59 159.04 157.82 158.23 L 157.08 157.48 C 156.31 156.67 155.03 156.65 154.22 157.43 C 153.42 158.20 153.40 159.48 154.18 160.29 Z M 154.92 161.03 L 155.59 161.73 C 156.36 162.53 157.63 162.56 158.43 161.79 C 159.23 161.02 159.25 159.74 158.48 158.95 L 157.81 158.24 C 157.04 157.45 155.77 157.42 154.97 158.19 C 154.17 158.96 154.15 160.23 154.92 161.03 Z M 155.61 161.73 L 156.22 162.36 C 156.99 163.15 158.25 163.16 159.04 162.40 C 159.83 161.63 159.85 160.37 159.08 159.58 L 158.47 158.95 C 157.70 158.16 156.44 158.14 155.65 158.91 C 154.86 159.68 154.84 160.94 155.61 161.73 Z M 156.26 162.36 L 157.05 163.15 C 157.82 163.91 159.06 163.91 159.83 163.14 C 160.60 162.38 160.60 161.13 159.83 160.37 L 159.04 159.58 C 158.27 158.81 157.03 158.81 156.26 159.58 C 155.49 160.35 155.49 161.59 156.26 162.36 Z M 157.10 163.13 L 157.78 163.79 C 158.54 164.53 159.75 164.51 160.49 163.75 C 161.23 162.99 161.21 161.77 160.45 161.04 L 159.78 160.38 C 159.02 159.64 157.80 159.66 157.06 160.42 C 156.33 161.18 156.34 162.39 157.10 163.13 Z M 157.80 163.76 L 158.47 164.41 C 159.21 165.13 160.40 165.12 161.13 164.38 C 161.85 163.63 161.84 162.44 161.09 161.72 L 160.43 161.07 C 159.68 160.35 158.50 160.36 157.77 161.10 C 157.05 161.84 157.06 163.03 157.80 163.76 Z M 158.49 164.37 L 159.20 165.07 C 159.92 165.79 161.09 165.78 161.80 165.06 C 162.52 164.34 162.51 163.17 161.79 162.46 L 161.08 161.76 C 160.36 161.04 159.19 161.05 158.48 161.77 C 157.76 162.49 157.77 163.66 158.49 164.37 Z M 159.23 165.06 L 159.93 165.75 C 160.64 166.45 161.79 166.44 162.49 165.72 C 163.19 165.01 163.18 163.87 162.46 163.17 L 161.76 162.47 C 161.05 161.77 159.90 161.79 159.20 162.50 C 158.50 163.21 158.51 164.36 159.23 165.06 Z M 159.97 165.75 L 160.63 166.38 C 161.35 167.05 162.47 167.02 163.15 166.31 C 163.83 165.60 163.80 164.47 163.08 163.80 L 162.42 163.17 C 161.71 162.49 160.58 162.52 159.91 163.23 C 159.23 163.94 159.26 165.07 159.97 165.75 Z M 160.69 166.39 L 161.46 167.08 C 162.18 167.72 163.28 167.66 163.93 166.94 C 164.58 166.22 164.52 165.12 163.80 164.47 L 163.03 163.78 C 162.31 163.14 161.20 163.20 160.55 163.92 C 159.91 164.64 159.97 165.74 160.69 166.39 Z M 161.51 167.09 L 162.30 167.76 C 163.02 168.37 164.11 168.28 164.73 167.55 C 165.35 166.83 165.25 165.74 164.53 165.12 L 163.74 164.46 C 163.01 163.84 161.92 163.93 161.31 164.66 C 160.69 165.39 160.78 166.48 161.51 167.09 Z M 162.34 167.77 L 163.10 168.38 C 163.84 168.97 164.91 168.86 165.50 168.12 C 166.09 167.39 165.98 166.32 165.24 165.72 L 164.48 165.11 C 163.75 164.52 162.67 164.63 162.08 165.37 C 161.49 166.10 161.61 167.17 162.34 167.77 Z M 163.15 168.39 L 163.97 169.02 C 164.70 169.59 165.76 169.45 166.33 168.71 C 166.90 167.97 166.76 166.91 166.02 166.34 L 165.20 165.72 C 164.46 165.15 163.40 165.29 162.84 166.03 C 162.27 166.76 162.41 167.82 163.15 168.39 Z M 164.01 169.03 L 164.85 169.64 C 165.60 170.18 166.64 170.01 167.18 169.27 C 167.72 168.52 167.56 167.48 166.81 166.94 L 165.97 166.33 C 165.22 165.79 164.18 165.96 163.64 166.70 C 163.10 167.45 163.27 168.49 164.01 169.03 Z M 164.91 169.66 L 165.78 170.24 C 166.53 170.74 167.56 170.54 168.06 169.78 C 168.57 169.03 168.37 168.01 167.61 167.50 L 166.75 166.92 C 165.99 166.41 164.97 166.62 164.46 167.37 C 163.96 168.13 164.16 169.15 164.91 169.66 Z M 165.84 170.24 L 166.69 170.78 C 167.45 171.25 168.45 171.02 168.92 170.26 C 169.40 169.50 169.17 168.50 168.41 168.02 L 167.55 167.49 C 166.79 167.02 165.79 167.25 165.32 168.01 C 164.84 168.77 165.08 169.77 165.84 170.24 Z M 166.73 170.77 L 167.58 171.27 C 168.33 171.72 169.31 171.47 169.76 170.71 C 170.21 169.95 169.96 168.97 169.20 168.52 L 168.36 168.02 C 167.60 167.57 166.62 167.83 166.17 168.58 C 165.72 169.34 165.97 170.32 166.73 170.77 Z M 167.60 171.26 L 168.14 171.57 C 168.89 172.01 169.86 171.76 170.29 171.00 C 170.73 170.25 170.47 169.28 169.72 168.85 L 169.18 168.53 C 168.43 168.10 167.46 168.35 167.03 169.11 C 166.59 169.86 166.84 170.82 167.60 171.26 Z"
      fill="black"
      fill-rule="nonzero" /><path d="M 169.61 146.41 L 168.69 147.22 C 167.99 147.84 167.93 148.92 168.55 149.62 C 169.17 150.32 170.24 150.38 170.94 149.76 L 171.86 148.95 C 172.56 148.33 172.62 147.26 172.00 146.55 C 171.38 145.85 170.31 145.79 169.61 146.41 Z M 168.43 149.63 L 168.56 149.80 C 169.19 150.56 170.32 150.68 171.09 150.05 C 171.85 149.42 171.97 148.29 171.34 147.52 L 171.20 147.36 C 170.57 146.59 169.44 146.48 168.68 147.10 C 167.91 147.73 167.80 148.86 168.43 149.63 Z M 170.68 150.34 L 171.69 149.90 C 172.61 149.49 173.03 148.41 172.63 147.49 C 172.23 146.56 171.15 146.14 170.22 146.54 L 169.22 146.98 C 168.29 147.39 167.87 148.47 168.27 149.39 C 168.68 150.32 169.76 150.74 170.68 150.34 Z M 171.90 149.79 L 172.85 149.21 C 173.72 148.69 174.00 147.57 173.48 146.70 C 172.96 145.84 171.84 145.56 170.97 146.08 L 170.01 146.65 C 169.15 147.17 168.87 148.30 169.39 149.16 C 169.91 150.03 171.03 150.31 171.90 149.79 Z M 173.00 149.11 L 173.79 148.53 C 174.60 147.93 174.77 146.79 174.16 145.97 C 173.56 145.16 172.42 144.99 171.61 145.60 L 170.82 146.18 C 170.01 146.78 169.84 147.92 170.44 148.73 C 171.04 149.54 172.19 149.71 173.00 149.11 Z M 173.87 148.46 L 174.67 147.80 C 175.44 147.15 175.54 146.00 174.90 145.23 C 174.25 144.45 173.10 144.35 172.32 144.99 L 171.53 145.66 C 170.75 146.31 170.65 147.46 171.30 148.23 C 171.94 149.01 173.09 149.11 173.87 148.46 Z M 174.70 147.76 L 175.46 147.10 C 176.21 146.43 176.28 145.28 175.62 144.53 C 174.95 143.77 173.80 143.70 173.05 144.36 L 172.29 145.03 C 171.54 145.69 171.46 146.85 172.13 147.60 C 172.79 148.36 173.94 148.43 174.70 147.76 Z M 175.46 147.08 L 176.23 146.40 C 176.97 145.73 177.03 144.58 176.36 143.83 C 175.69 143.09 174.55 143.03 173.80 143.70 L 173.04 144.38 C 172.29 145.05 172.23 146.20 172.90 146.94 C 173.57 147.69 174.72 147.75 175.46 147.08 Z M 176.22 146.39 L 176.95 145.73 C 177.70 145.07 177.76 143.92 177.09 143.18 C 176.42 142.44 175.28 142.38 174.54 143.04 L 173.80 143.70 C 173.06 144.37 173.00 145.51 173.67 146.26 C 174.33 147.00 175.48 147.06 176.22 146.39 Z M 176.94 145.75 L 177.74 145.05 C 178.49 144.39 178.56 143.25 177.91 142.50 C 177.25 141.75 176.11 141.67 175.36 142.33 L 174.56 143.03 C 173.81 143.69 173.73 144.83 174.39 145.58 C 175.04 146.33 176.18 146.41 176.94 145.75 Z M 177.69 145.09 L 178.45 144.48 C 179.22 143.85 179.34 142.71 178.71 141.93 C 178.08 141.15 176.94 141.04 176.16 141.67 L 175.41 142.28 C 174.63 142.91 174.51 144.05 175.14 144.83 C 175.77 145.61 176.91 145.72 177.69 145.09 Z M 178.35 144.57 L 179.20 143.98 C 180.03 143.40 180.23 142.26 179.66 141.43 C 179.08 140.60 177.94 140.40 177.11 140.98 L 176.26 141.57 C 175.43 142.15 175.23 143.29 175.81 144.12 C 176.38 144.95 177.52 145.15 178.35 144.57 Z M 178.76 144.26 L 179.67 143.95 C 180.66 143.62 181.19 142.55 180.85 141.57 C 180.52 140.58 179.45 140.05 178.47 140.39 L 177.55 140.69 C 176.57 141.03 176.04 142.10 176.37 143.08 C 176.70 144.07 177.77 144.60 178.76 144.26 Z M 177.63 143.48 L 178.10 143.99 C 178.82 144.78 180.05 144.84 180.84 144.12 C 181.64 143.39 181.69 142.16 180.97 141.37 L 180.50 140.86 C 179.78 140.07 178.55 140.01 177.76 140.73 C 176.97 141.46 176.91 142.69 177.63 143.48 Z M 177.57 142.93 L 177.70 143.94 C 177.84 145.02 178.83 145.79 179.91 145.65 C 181.00 145.51 181.76 144.52 181.63 143.44 L 181.50 142.43 C 181.36 141.35 180.37 140.58 179.28 140.72 C 178.20 140.86 177.43 141.85 177.57 142.93 Z M 177.67 143.59 L 177.61 144.74 C 177.56 145.84 178.41 146.78 179.52 146.83 C 180.62 146.88 181.56 146.03 181.61 144.92 L 181.66 143.78 C 181.71 142.68 180.86 141.74 179.76 141.69 C 178.65 141.64 177.72 142.49 177.67 143.59 Z M 177.62 144.53 L 177.47 145.52 C 177.30 146.62 178.05 147.65 179.15 147.82 C 180.25 147.98 181.28 147.23 181.45 146.13 L 181.60 145.13 C 181.77 144.04 181.01 143.01 179.91 142.84 C 178.82 142.67 177.79 143.43 177.62 144.53 Z M 177.49 145.38 L 177.27 146.33 C 177.02 147.42 177.70 148.50 178.78 148.75 C 179.87 149.00 180.95 148.32 181.20 147.24 L 181.42 146.28 C 181.67 145.20 180.99 144.12 179.91 143.87 C 178.83 143.62 177.74 144.29 177.49 145.38 Z M 177.29 146.26 L 177.03 147.20 C 176.74 148.28 177.38 149.39 178.46 149.68 C 179.54 149.97 180.64 149.33 180.93 148.25 L 181.19 147.31 C 181.47 146.23 180.84 145.13 179.76 144.84 C 178.68 144.55 177.58 145.18 177.29 146.26 Z M 177.04 147.16 L 176.77 148.12 C 176.45 149.19 177.07 150.31 178.14 150.62 C 179.21 150.94 180.33 150.32 180.64 149.25 L 180.92 148.29 C 181.23 147.22 180.62 146.10 179.55 145.79 C 178.48 145.48 177.36 146.09 177.04 147.16 Z M 176.78 148.07 L 176.47 149.04 C 176.13 150.10 176.71 151.24 177.78 151.58 C 178.84 151.92 179.98 151.34 180.32 150.27 L 180.63 149.30 C 180.97 148.24 180.38 147.10 179.32 146.76 C 178.26 146.42 177.12 147.01 176.78 148.07 Z M 176.49 148.98 L 176.16 149.91 C 175.79 150.97 176.34 152.12 177.39 152.49 C 178.44 152.86 179.60 152.31 179.97 151.26 L 180.30 150.33 C 180.67 149.28 180.12 148.12 179.07 147.75 C 178.02 147.38 176.86 147.93 176.49 148.98 Z M 176.18 149.86 L 175.82 150.79 C 175.42 151.84 175.94 153.01 176.98 153.41 C 178.03 153.81 179.20 153.28 179.60 152.24 L 179.95 151.31 C 180.35 150.27 179.83 149.10 178.79 148.70 C 177.75 148.30 176.58 148.82 176.18 149.86 Z M 175.83 150.76 L 175.45 151.70 C 175.03 152.74 175.53 153.91 176.56 154.33 C 177.60 154.75 178.78 154.26 179.20 153.22 L 179.58 152.28 C 180.00 151.24 179.50 150.06 178.47 149.64 C 177.43 149.22 176.25 149.72 175.83 150.76 Z M 175.46 151.68 L 175.09 152.56 C 174.66 153.59 175.14 154.77 176.17 155.21 C 177.20 155.64 178.38 155.16 178.81 154.13 L 179.19 153.25 C 179.62 152.22 179.14 151.03 178.11 150.60 C 177.08 150.17 175.90 150.65 175.46 151.68 Z M 175.10 152.53 L 174.70 153.44 C 174.26 154.47 174.72 155.66 175.75 156.10 C 176.77 156.55 177.96 156.09 178.41 155.06 L 178.80 154.15 C 179.25 153.13 178.78 151.94 177.76 151.49 C 176.74 151.05 175.55 151.51 175.10 152.53 Z M 174.72 153.42 L 174.29 154.37 C 173.83 155.39 174.28 156.58 175.29 157.04 C 176.31 157.50 177.50 157.05 177.96 156.04 L 178.39 155.09 C 178.85 154.07 178.40 152.87 177.39 152.41 C 176.37 151.96 175.18 152.41 174.72 153.42 Z M 174.30 154.35 L 173.92 155.16 C 173.45 156.17 173.88 157.37 174.89 157.84 C 175.90 158.32 177.10 157.88 177.57 156.87 L 177.95 156.06 C 178.42 155.05 177.99 153.85 176.98 153.38 C 175.97 152.90 174.77 153.34 174.30 154.35 Z M 173.93 155.14 L 173.52 155.98 C 173.04 156.98 173.45 158.18 174.45 158.67 C 175.46 159.16 176.66 158.74 177.15 157.74 L 177.56 156.90 C 178.04 155.90 177.63 154.69 176.63 154.21 C 175.62 153.72 174.42 154.13 173.93 155.14 Z M 173.54 155.94 L 173.08 156.85 C 172.57 157.84 172.97 159.05 173.96 159.56 C 174.95 160.06 176.16 159.67 176.66 158.68 L 177.13 157.77 C 177.63 156.78 177.24 155.57 176.25 155.06 C 175.26 154.56 174.05 154.95 173.54 155.94 Z M 173.10 156.82 L 172.56 157.82 C 172.04 158.80 172.41 160.02 173.39 160.54 C 174.36 161.07 175.58 160.70 176.11 159.72 L 176.64 158.72 C 177.17 157.74 176.80 156.52 175.82 155.99 C 174.84 155.47 173.62 155.84 173.10 156.82 Z M 172.58 157.79 L 172.11 158.64 C 171.57 159.61 171.91 160.83 172.88 161.37 C 173.85 161.91 175.07 161.57 175.61 160.60 L 176.09 159.75 C 176.63 158.78 176.28 157.56 175.31 157.02 C 174.35 156.47 173.12 156.82 172.58 157.79 Z M 172.12 158.62 L 171.62 159.48 C 171.07 160.44 171.40 161.67 172.36 162.22 C 173.32 162.78 174.54 162.45 175.10 161.49 L 175.60 160.62 C 176.15 159.66 175.82 158.43 174.86 157.88 C 173.90 157.33 172.68 157.66 172.12 158.62 Z M 171.64 159.46 L 171.11 160.35 C 170.55 161.30 170.86 162.53 171.81 163.09 C 172.76 163.66 173.99 163.35 174.55 162.40 L 175.08 161.51 C 175.65 160.56 175.33 159.33 174.38 158.77 C 173.43 158.20 172.20 158.51 171.64 159.46 Z M 171.13 160.33 L 170.59 161.20 C 170.01 162.14 170.31 163.38 171.25 163.95 C 172.19 164.53 173.42 164.24 174.00 163.29 L 174.54 162.42 C 175.12 161.48 174.82 160.25 173.88 159.67 C 172.94 159.09 171.71 159.38 171.13 160.33 Z M 170.61 161.18 L 170.07 162.02 C 169.48 162.95 169.76 164.18 170.69 164.78 C 171.62 165.37 172.85 165.09 173.45 164.16 L 173.98 163.32 C 174.57 162.39 174.30 161.15 173.37 160.56 C 172.44 159.97 171.20 160.24 170.61 161.18 Z M 170.10 161.98 L 169.48 162.91 C 168.87 163.83 169.12 165.07 170.04 165.68 C 170.95 166.29 172.19 166.04 172.80 165.12 L 173.42 164.20 C 174.03 163.28 173.78 162.04 172.87 161.43 C 171.95 160.82 170.71 161.07 170.10 161.98 Z M 169.51 162.87 L 168.88 163.77 C 168.25 164.67 168.47 165.91 169.37 166.54 C 170.27 167.17 171.51 166.96 172.14 166.06 L 172.77 165.16 C 173.40 164.26 173.19 163.02 172.29 162.39 C 171.39 161.76 170.15 161.97 169.51 162.87 Z M 168.91 163.74 L 168.33 164.53 C 167.68 165.41 167.87 166.65 168.75 167.30 C 169.63 167.95 170.88 167.77 171.53 166.88 L 172.11 166.09 C 172.76 165.21 172.57 163.97 171.69 163.32 C 170.81 162.67 169.57 162.85 168.91 163.74 Z M 168.36 164.50 L 167.83 165.19 C 167.16 166.06 167.33 167.30 168.19 167.97 C 169.06 168.63 170.30 168.47 170.97 167.60 L 171.50 166.91 C 172.16 166.04 172.00 164.80 171.13 164.13 C 170.26 163.47 169.02 163.63 168.36 164.50 Z M 167.85 165.18 L 167.24 165.95 C 166.56 166.81 166.71 168.05 167.56 168.72 C 168.41 169.40 169.65 169.25 170.33 168.40 L 170.94 167.62 C 171.62 166.77 171.47 165.53 170.62 164.85 C 169.77 164.18 168.53 164.32 167.85 165.18 Z M 167.28 165.92 L 166.65 166.67 C 165.95 167.50 166.06 168.74 166.89 169.43 C 167.72 170.13 168.95 170.02 169.65 169.19 L 170.28 168.44 C 170.98 167.61 170.87 166.37 170.04 165.68 C 169.21 164.98 167.98 165.09 167.28 165.92 Z M 166.73 166.60 L 166.08 167.29 C 165.35 168.07 165.39 169.30 166.17 170.04 C 166.96 170.77 168.19 170.73 168.92 169.95 L 169.57 169.26 C 170.30 168.48 170.26 167.25 169.48 166.51 C 168.69 165.78 167.46 165.82 166.73 166.60 Z M 166.18 167.21 L 165.48 167.87 C 164.70 168.59 164.66 169.82 165.39 170.60 C 166.12 171.38 167.34 171.42 168.12 170.69 L 168.82 170.03 C 169.60 169.30 169.64 168.08 168.91 167.30 C 168.19 166.52 166.96 166.48 166.18 167.21 Z M 165.61 167.77 L 164.82 168.40 C 163.98 169.05 163.84 170.26 164.50 171.09 C 165.16 171.93 166.37 172.07 167.20 171.41 L 167.99 170.78 C 168.82 170.13 168.97 168.92 168.31 168.09 C 167.65 167.25 166.44 167.11 165.61 167.77 Z M 165.00 168.28 L 164.09 168.85 C 163.20 169.40 162.92 170.58 163.48 171.47 C 164.03 172.37 165.20 172.64 166.10 172.09 L 167.01 171.52 C 167.91 170.97 168.18 169.80 167.63 168.90 C 167.07 168.01 165.90 167.73 165.00 168.28 Z M 164.43 168.71 L 163.38 169.11 C 162.41 169.48 161.93 170.56 162.29 171.53 C 162.66 172.50 163.75 172.99 164.72 172.62 L 165.76 172.22 C 166.73 171.86 167.22 170.77 166.85 169.80 C 166.48 168.83 165.40 168.34 164.43 168.71 Z M 164.36 169.05 L 163.58 168.92 C 162.57 168.75 161.62 169.42 161.45 170.42 C 161.28 171.43 161.96 172.38 162.96 172.55 L 163.74 172.68 C 164.75 172.85 165.70 172.17 165.87 171.17 C 166.04 170.17 165.36 169.22 164.36 169.05 Z M 164.92 170.06 L 164.66 169.41 C 164.29 168.49 163.24 168.05 162.33 168.42 C 161.41 168.80 160.98 169.84 161.35 170.75 L 161.61 171.41 C 161.99 172.32 163.03 172.76 163.94 172.39 C 164.86 172.02 165.30 170.97 164.92 170.06 Z M 164.72 170.08 L 164.72 169.08 C 164.72 168.13 163.96 167.37 163.01 167.36 C 162.06 167.36 161.29 168.13 161.29 169.07 L 161.29 170.08 C 161.29 171.02 162.05 171.79 163.00 171.79 C 163.95 171.80 164.71 171.03 164.72 170.08 Z M 164.63 169.26 L 164.77 168.07 C 164.87 167.17 164.22 166.36 163.32 166.26 C 162.43 166.15 161.62 166.80 161.51 167.70 L 161.38 168.89 C 161.28 169.79 161.92 170.60 162.82 170.70 C 163.72 170.81 164.53 170.16 164.63 169.26 Z M 164.72 168.09 L 164.74 167.97 C 164.85 167.10 164.24 166.30 163.36 166.19 C 162.49 166.07 161.69 166.69 161.57 167.56 L 161.56 167.68 C 161.44 168.55 162.06 169.35 162.93 169.46 C 163.81 169.58 164.61 168.96 164.72 168.09 Z"
      fill="black"
      fill-rule="nonzero" /><path d="M 167.67 157.05 L 168.38 156.30 C 169.05 155.58 169.02 154.45 168.30 153.78 C 167.58 153.11 166.45 153.14 165.78 153.86 L 165.07 154.61 C 164.40 155.33 164.44 156.46 165.15 157.13 C 165.87 157.80 167.00 157.77 167.67 157.05 Z M 167.82 156.90 L 168.68 156.55 C 169.69 156.13 170.17 154.99 169.76 153.98 C 169.34 152.98 168.20 152.50 167.19 152.91 L 166.33 153.26 C 165.33 153.67 164.85 154.82 165.26 155.82 C 165.67 156.83 166.82 157.31 167.82 156.90 Z M 167.44 156.73 L 168.23 156.93 C 169.34 157.20 170.46 156.52 170.73 155.41 C 171.01 154.31 170.33 153.19 169.22 152.91 L 168.43 152.72 C 167.32 152.45 166.20 153.13 165.93 154.24 C 165.66 155.34 166.34 156.46 167.44 156.73 Z M 167.70 156.73 L 168.57 157.22 C 169.57 157.79 170.83 157.44 171.40 156.44 C 171.97 155.45 171.62 154.18 170.62 153.61 L 169.75 153.12 C 168.76 152.55 167.49 152.90 166.92 153.89 C 166.36 154.89 166.70 156.16 167.70 156.73 Z M 168.37 157.09 L 169.30 157.77 C 170.22 158.45 171.52 158.24 172.20 157.32 C 172.88 156.39 172.67 155.09 171.75 154.41 L 170.82 153.74 C 169.89 153.06 168.59 153.26 167.92 154.19 C 167.24 155.12 167.44 156.42 168.37 157.09 Z M 169.22 157.71 L 170.06 158.38 C 170.96 159.10 172.26 158.95 172.98 158.05 C 173.69 157.16 173.55 155.85 172.65 155.13 L 171.82 154.47 C 170.92 153.75 169.61 153.90 168.90 154.79 C 168.18 155.69 168.33 157.00 169.22 157.71 Z M 170.02 158.35 L 170.81 159.01 C 171.69 159.75 173.00 159.63 173.74 158.75 C 174.48 157.87 174.36 156.56 173.48 155.83 L 172.69 155.16 C 171.81 154.43 170.50 154.54 169.76 155.42 C 169.03 156.30 169.14 157.61 170.02 158.35 Z M 170.78 158.98 L 171.52 159.63 C 172.38 160.38 173.70 160.29 174.45 159.43 C 175.20 158.57 175.11 157.25 174.25 156.50 L 173.51 155.86 C 172.65 155.10 171.34 155.19 170.58 156.05 C 169.83 156.92 169.92 158.23 170.78 158.98 Z M 171.49 159.60 L 172.22 160.26 C 173.07 161.04 174.38 160.98 175.15 160.13 C 175.92 159.28 175.86 157.97 175.02 157.20 L 174.28 156.53 C 173.44 155.76 172.12 155.82 171.35 156.67 C 170.58 157.51 170.64 158.82 171.49 159.60 Z M 172.19 160.22 L 172.91 160.92 C 173.74 161.71 175.05 161.69 175.84 160.87 C 176.63 160.04 176.60 158.73 175.78 157.94 L 175.05 157.24 C 174.23 156.45 172.92 156.48 172.13 157.30 C 171.34 158.12 171.36 159.43 172.19 160.22 Z M 172.89 160.88 L 173.56 161.55 C 174.35 162.36 175.66 162.37 176.46 161.57 C 177.27 160.77 177.27 159.47 176.48 158.66 L 175.81 157.99 C 175.01 157.18 173.71 157.17 172.90 157.97 C 172.09 158.77 172.09 160.07 172.89 160.88 Z M 173.55 161.53 L 174.22 162.22 C 175.00 163.03 176.30 163.05 177.11 162.27 C 177.92 161.48 177.94 160.19 177.16 159.38 L 176.48 158.69 C 175.70 157.87 174.40 157.85 173.59 158.64 C 172.78 159.42 172.76 160.72 173.55 161.53 Z M 174.22 162.20 L 174.91 162.93 C 175.69 163.74 176.97 163.77 177.78 163.00 C 178.59 162.23 178.62 160.94 177.85 160.13 L 177.16 159.40 C 176.38 158.59 175.10 158.56 174.29 159.33 C 173.48 160.11 173.45 161.39 174.22 162.20 Z M 174.91 162.91 L 175.61 163.65 C 176.37 164.46 177.64 164.50 178.45 163.74 C 179.27 162.99 179.31 161.71 178.55 160.90 L 177.85 160.15 C 177.09 159.34 175.82 159.30 175.01 160.06 C 174.19 160.82 174.15 162.09 174.91 162.91 Z M 175.60 163.62 L 176.27 164.36 C 177.02 165.17 178.28 165.23 179.10 164.48 C 179.91 163.73 179.97 162.47 179.22 161.66 L 178.55 160.92 C 177.81 160.11 176.54 160.05 175.73 160.80 C 174.91 161.55 174.86 162.81 175.60 163.62 Z M 176.28 164.33 L 176.94 165.08 C 177.68 165.89 178.93 165.95 179.74 165.22 C 180.56 164.49 180.62 163.24 179.89 162.42 L 179.22 161.68 C 178.49 160.87 177.24 160.80 176.42 161.53 C 175.61 162.27 175.54 163.52 176.28 164.33 Z M 176.95 165.05 L 177.61 165.80 C 178.33 166.61 179.58 166.69 180.39 165.96 C 181.20 165.24 181.27 164.00 180.55 163.19 L 179.88 162.45 C 179.16 161.63 177.92 161.56 177.11 162.28 C 176.30 163.00 176.23 164.24 176.95 165.05 Z M 177.62 165.78 L 178.28 166.53 C 178.99 167.33 180.22 167.41 181.02 166.70 C 181.83 165.99 181.91 164.76 181.20 163.96 L 180.54 163.21 C 179.83 162.41 178.60 162.33 177.80 163.04 C 176.99 163.75 176.91 164.98 177.62 165.78 Z M 178.29 166.51 L 178.96 167.27 C 179.66 168.07 180.87 168.15 181.67 167.45 C 182.47 166.75 182.55 165.53 181.85 164.74 L 181.19 163.98 C 180.49 163.18 179.27 163.10 178.47 163.80 C 177.67 164.50 177.59 165.71 178.29 166.51 Z M 178.97 167.25 L 179.63 168.01 C 180.32 168.80 181.52 168.88 182.31 168.19 C 183.10 167.50 183.18 166.30 182.50 165.51 L 181.84 164.75 C 181.15 163.96 179.95 163.88 179.15 164.57 C 178.36 165.26 178.28 166.46 178.97 167.25 Z M 179.65 167.99 L 180.30 168.74 C 180.98 169.53 182.17 169.61 182.95 168.93 C 183.73 168.25 183.82 167.06 183.14 166.28 L 182.48 165.53 C 181.80 164.74 180.61 164.66 179.83 165.34 C 179.05 166.02 178.97 167.21 179.65 167.99 Z M 180.32 168.73 L 180.97 169.48 C 181.64 170.26 182.82 170.34 183.59 169.67 C 184.36 169.00 184.44 167.83 183.77 167.06 L 183.12 166.30 C 182.45 165.53 181.28 165.44 180.50 166.11 C 179.73 166.78 179.65 167.95 180.32 168.73 Z M 180.99 169.47 L 181.65 170.23 C 182.31 170.99 183.47 171.07 184.23 170.41 C 184.99 169.75 185.08 168.59 184.41 167.83 L 183.76 167.07 C 183.09 166.31 181.94 166.23 181.18 166.89 C 180.41 167.55 180.33 168.70 180.99 169.47 Z M 181.68 170.21 L 182.34 170.97 C 182.99 171.72 184.13 171.80 184.88 171.14 C 185.63 170.49 185.70 169.35 185.05 168.60 L 184.39 167.84 C 183.73 167.10 182.60 167.02 181.85 167.67 C 181.10 168.33 181.02 169.47 181.68 170.21 Z M 182.37 170.96 L 183.03 171.71 C 183.68 172.44 184.80 172.50 185.53 171.85 C 186.26 171.20 186.33 170.08 185.68 169.35 L 185.02 168.61 C 184.37 167.88 183.25 167.81 182.52 168.46 C 181.79 169.11 181.72 170.23 182.37 170.96 Z M 183.07 171.71 L 183.75 172.44 C 184.40 173.15 185.50 173.20 186.21 172.54 C 186.92 171.89 186.96 170.79 186.31 170.08 L 185.64 169.35 C 184.99 168.64 183.88 168.59 183.18 169.24 C 182.47 169.90 182.42 171.00 183.07 171.71 Z M 183.79 172.44 L 184.47 173.16 C 185.12 173.85 186.20 173.88 186.89 173.23 C 187.58 172.58 187.61 171.49 186.96 170.81 L 186.27 170.08 C 185.62 169.40 184.54 169.37 183.85 170.02 C 183.16 170.67 183.14 171.75 183.79 172.44 Z M 184.50 173.15 L 185.20 173.88 C 185.85 174.54 186.92 174.56 187.58 173.91 C 188.25 173.27 188.27 172.20 187.62 171.53 L 186.92 170.81 C 186.28 170.14 185.21 170.13 184.54 170.77 C 183.87 171.42 183.86 172.49 184.50 173.15 Z M 185.23 173.87 L 185.90 174.54 C 186.54 175.19 187.59 175.20 188.24 174.55 C 188.89 173.91 188.89 172.86 188.25 172.21 L 187.59 171.54 C 186.95 170.89 185.90 170.88 185.25 171.53 C 184.60 172.17 184.59 173.22 185.23 173.87 Z M 185.93 174.54 L 186.64 175.23 C 187.29 175.86 188.32 175.85 188.95 175.20 C 189.58 174.56 189.57 173.53 188.92 172.90 L 188.21 172.21 C 187.57 171.58 186.54 171.59 185.91 172.24 C 185.28 172.88 185.29 173.91 185.93 174.54 Z M 186.69 175.25 L 187.47 175.97 C 188.13 176.57 189.14 176.53 189.74 175.88 C 190.35 175.22 190.30 174.21 189.65 173.61 L 188.87 172.88 C 188.22 172.28 187.20 172.32 186.60 172.98 C 186.00 173.63 186.04 174.64 186.69 175.25 Z M 187.52 175.99 L 188.24 176.61 C 188.90 177.19 189.90 177.12 190.48 176.46 C 191.06 175.79 190.99 174.79 190.33 174.21 L 189.61 173.59 C 188.95 173.01 187.94 173.08 187.37 173.74 C 186.79 174.40 186.86 175.41 187.52 175.99 Z M 188.26 176.62 L 189.03 177.26 C 189.69 177.82 190.69 177.74 191.25 177.07 C 191.81 176.40 191.73 175.40 191.06 174.84 L 190.30 174.20 C 189.63 173.64 188.63 173.73 188.07 174.40 C 187.51 175.06 187.60 176.06 188.26 176.62 Z M 189.04 177.27 L 189.84 177.92 C 190.51 178.47 191.50 178.37 192.05 177.70 C 192.60 177.03 192.51 176.04 191.83 175.49 L 191.04 174.84 C 190.37 174.28 189.38 174.38 188.83 175.05 C 188.27 175.72 188.37 176.72 189.04 177.27 Z M 189.85 177.92 L 190.50 178.45 C 191.17 178.99 192.16 178.89 192.70 178.22 C 193.25 177.55 193.15 176.56 192.48 176.02 L 191.82 175.49 C 191.15 174.94 190.17 175.04 189.62 175.71 C 189.08 176.39 189.18 177.37 189.85 177.92 Z"
      fill="black"
      fill-rule="nonzero" /></svg>