<svg xmlns="http://www.w3.org/2000/svg" width="300" height="300" viewBox="0 0 300 300">
<path d="M 133.10 123.17 L 133.84 123.84 C 134.54 124.47 135.62 124.42 136.26 123.72 C 136.89 123.02 136.84 121.94 136.14 121.30 L 135.40 120.64 C 134.70 120.00 133.62 120.06 132.98 120.76 C 132.35 121.46 132.40 122.54 133.10 123.17 Z M 133.75 123.84 L 134.46 124.54 C 135.16 125.23 136.29 125.22 136.98 124.52 C 137.66 123.81 137.65 122.69 136.95 122.00 L 136.23 121.30 C 135.53 120.62 134.41 120.63 133.72 121.33 C 133.04 122.03 133.05 123.16 133.75 123.84 Z M 134.35 124.47 L 134.99 125.19 C 135.65 125.94 136.79 126.01 137.54 125.35 C 138.29 124.68 138.36 123.54 137.70 122.79 L 137.06 122.08 C 136.40 121.33 135.26 121.26 134.51 121.92 C 133.76 122.58 133.69 123.72 134.35 124.47 Z M 134.90 125.06 L 135.49 125.85 C 136.08 126.65 137.20 126.81 137.99 126.22 C 138.79 125.63 138.96 124.51 138.37 123.72 L 137.78 122.92 C 137.19 122.13 136.07 121.96 135.27 122.55 C 134.48 123.14 134.31 124.26 134.90 125.06 Z M 135.42 125.72 L 135.97 126.60 C 136.49 127.43 137.58 127.68 138.41 127.17 C 139.24 126.65 139.49 125.56 138.98 124.73 L 138.43 123.85 C 137.92 123.02 136.83 122.77 136.00 123.28 C 135.17 123.80 134.91 124.89 135.42 125.72 Z M 135.92 126.51 L 136.37 127.35 C 136.84 128.22 137.91 128.54 138.78 128.07 C 139.64 127.61 139.96 126.53 139.49 125.67 L 139.04 124.82 C 138.57 123.96 137.49 123.64 136.63 124.11 C 135.77 124.57 135.45 125.65 135.92 126.51 Z M 136.32 127.32 L 136.78 128.23 C 137.22 129.12 138.30 129.48 139.19 129.03 C 140.08 128.59 140.44 127.50 140.00 126.62 L 139.54 125.71 C 139.10 124.82 138.02 124.46 137.13 124.90 C 136.24 125.35 135.88 126.43 136.32 127.32 Z M 136.74 128.22 L 137.15 129.05 C 137.59 129.96 138.68 130.34 139.59 129.90 C 140.50 129.46 140.88 128.37 140.44 127.46 L 140.03 126.63 C 139.59 125.72 138.50 125.34 137.59 125.78 C 136.68 126.22 136.30 127.31 136.74 128.22 Z"
      fill="black"
      fill-rule="nonzero" /><path d="M 129.02 138.25 L 129.97 137.97 C 130.98 137.66 131.56 136.60 131.26 135.59 C 130.96 134.57 129.89 133.99 128.88 134.30 L 127.93 134.58 C 126.92 134.88 126.34 135.94 126.64 136.96 C 126.95 137.97 128.01 138.55 129.02 138.25 Z M 129.99 137.94 L 130.95 137.64 C 131.95 137.32 132.50 136.26 132.19 135.26 C 131.87 134.26 130.81 133.71 129.81 134.02 L 128.85 134.32 C 127.86 134.64 127.30 135.70 127.62 136.70 C 127.93 137.70 128.99 138.25 129.99 137.94 Z M 130.99 137.61 L 131.92 137.29 C 132.90 136.95 133.42 135.88 133.08 134.90 C 132.75 133.92 131.68 133.40 130.69 133.73 L 129.77 134.05 C 128.79 134.39 128.27 135.46 128.60 136.44 C 128.94 137.42 130.01 137.94 130.99 137.61 Z M 131.97 137.26 L 132.89 136.91 C 133.86 136.55 134.34 135.47 133.98 134.50 C 133.61 133.53 132.53 133.05 131.56 133.41 L 130.64 133.76 C 129.68 134.13 129.19 135.21 129.56 136.17 C 129.92 137.14 131.00 137.63 131.97 137.26 Z M 132.94 136.89 L 133.90 136.49 C 134.85 136.10 135.31 135.01 134.92 134.05 C 134.52 133.10 133.43 132.65 132.48 133.04 L 131.51 133.44 C 130.56 133.83 130.11 134.92 130.50 135.87 C 130.89 136.83 131.99 137.28 132.94 136.89 Z M 133.94 136.47 L 134.83 136.08 C 135.77 135.66 136.20 134.56 135.78 133.62 C 135.36 132.68 134.27 132.25 133.32 132.67 L 132.44 133.06 C 131.50 133.48 131.07 134.58 131.49 135.52 C 131.90 136.46 133.00 136.88 133.94 136.47 Z M 134.86 136.06 L 135.76 135.64 C 136.69 135.20 137.10 134.10 136.67 133.17 C 136.24 132.24 135.13 131.84 134.20 132.27 L 133.30 132.69 C 132.37 133.12 131.96 134.22 132.39 135.15 C 132.83 136.08 133.93 136.49 134.86 136.06 Z M 135.78 135.62 L 136.71 135.17 C 137.63 134.73 138.02 133.63 137.58 132.71 C 137.13 131.79 136.03 131.40 135.11 131.84 L 134.18 132.29 C 133.26 132.73 132.88 133.83 133.32 134.75 C 133.76 135.67 134.86 136.06 135.78 135.62 Z M 136.73 135.16 L 137.54 134.75 C 138.45 134.30 138.83 133.20 138.38 132.29 C 137.93 131.38 136.82 131.00 135.91 131.45 L 135.10 131.86 C 134.19 132.31 133.81 133.41 134.26 134.32 C 134.71 135.23 135.82 135.61 136.73 135.16 Z M 137.56 134.73 L 138.39 134.31 C 139.29 133.85 139.65 132.74 139.19 131.84 C 138.73 130.94 137.63 130.59 136.73 131.05 L 135.89 131.47 C 134.99 131.93 134.64 133.04 135.10 133.94 C 135.56 134.84 136.66 135.19 137.56 134.73 Z M 138.42 134.29 L 139.33 133.80 C 140.21 133.33 140.55 132.22 140.08 131.33 C 139.60 130.45 138.50 130.11 137.61 130.58 L 136.70 131.07 C 135.81 131.54 135.48 132.65 135.95 133.54 C 136.43 134.43 137.53 134.76 138.42 134.29 Z M 139.35 133.78 L 140.33 133.23 C 141.21 132.75 141.52 131.64 141.03 130.76 C 140.55 129.89 139.44 129.57 138.56 130.06 L 137.58 130.61 C 136.71 131.10 136.39 132.20 136.88 133.08 C 137.37 133.95 138.47 134.27 139.35 133.78 Z M 140.35 133.22 L 141.20 132.73 C 142.07 132.23 142.37 131.12 141.87 130.25 C 141.37 129.38 140.26 129.09 139.39 129.59 L 138.54 130.07 C 137.67 130.57 137.38 131.68 137.88 132.55 C 138.38 133.42 139.49 133.72 140.35 133.22 Z M 141.22 132.72 L 142.11 132.20 C 142.97 131.69 143.26 130.58 142.75 129.71 C 142.24 128.85 141.12 128.56 140.26 129.07 L 139.37 129.59 C 138.51 130.10 138.22 131.22 138.73 132.08 C 139.24 132.95 140.35 133.23 141.22 132.72 Z M 142.12 132.19 L 143.01 131.66 C 143.87 131.14 144.15 130.02 143.63 129.16 C 143.11 128.30 142.00 128.02 141.14 128.54 L 140.24 129.08 C 139.38 129.60 139.11 130.71 139.62 131.57 C 140.14 132.43 141.26 132.71 142.12 132.19 Z M 143.03 131.65 L 143.88 131.12 C 144.74 130.60 145.01 129.47 144.48 128.62 C 143.95 127.76 142.83 127.49 141.98 128.02 L 141.12 128.55 C 140.26 129.07 140.00 130.20 140.52 131.05 C 141.05 131.91 142.17 132.18 143.03 131.65 Z M 143.91 131.12 L 144.85 130.52 C 145.70 129.98 145.95 128.85 145.41 128.00 C 144.88 127.15 143.75 126.89 142.89 127.43 L 141.95 128.03 C 141.10 128.57 140.85 129.70 141.39 130.55 C 141.93 131.40 143.05 131.66 143.91 131.12 Z M 144.88 130.53 L 146.00 129.81 C 146.86 129.25 147.11 128.10 146.55 127.24 C 145.99 126.38 144.84 126.13 143.98 126.69 L 142.86 127.42 C 142.00 127.98 141.76 129.13 142.31 129.99 C 142.87 130.85 144.02 131.09 144.88 130.53 Z M 145.97 129.88 L 146.64 129.47 C 147.54 128.93 147.83 127.76 147.29 126.86 C 146.75 125.97 145.58 125.68 144.68 126.22 L 144.01 126.62 C 143.11 127.16 142.82 128.33 143.37 129.23 C 143.91 130.13 145.07 130.42 145.97 129.88 Z M 143.82 128.46 L 143.87 128.63 C 144.21 129.65 145.31 130.20 146.33 129.86 C 147.35 129.52 147.90 128.42 147.56 127.40 L 147.51 127.23 C 147.17 126.21 146.07 125.66 145.05 126.00 C 144.03 126.34 143.48 127.44 143.82 128.46 Z M 144.15 126.79 L 143.39 127.76 C 142.71 128.63 142.86 129.88 143.73 130.56 C 144.60 131.24 145.85 131.08 146.53 130.21 L 147.29 129.24 C 147.97 128.37 147.81 127.12 146.94 126.44 C 146.08 125.77 144.82 125.92 144.15 126.79 Z M 143.32 127.81 L 142.73 128.62 C 142.08 129.53 142.29 130.79 143.19 131.44 C 144.10 132.09 145.36 131.89 146.01 130.98 L 146.60 130.17 C 147.25 129.26 147.04 128.00 146.14 127.35 C 145.23 126.70 143.97 126.91 143.32 127.81 Z M 142.66 128.73 L 142.13 129.58 C 141.53 130.53 141.82 131.77 142.77 132.37 C 143.72 132.96 144.97 132.67 145.56 131.72 L 146.09 130.88 C 146.68 129.93 146.39 128.68 145.45 128.08 C 144.50 127.49 143.25 127.78 142.66 128.73 Z M 142.06 129.67 L 141.58 130.54 C 141.04 131.53 141.40 132.76 142.38 133.30 C 143.36 133.84 144.60 133.48 145.14 132.50 L 145.62 131.63 C 146.16 130.65 145.80 129.41 144.82 128.87 C 143.84 128.33 142.61 128.69 142.06 129.67 Z M 141.55 130.61 L 141.09 131.51 C 140.59 132.51 140.99 133.73 142.00 134.24 C 143.00 134.74 144.22 134.34 144.73 133.33 L 145.18 132.44 C 145.68 131.43 145.28 130.21 144.28 129.71 C 143.27 129.20 142.05 129.61 141.55 130.61 Z M 141.07 131.54 L 140.64 132.45 C 140.16 133.46 140.59 134.68 141.60 135.16 C 142.62 135.65 143.83 135.22 144.32 134.20 L 144.75 133.30 C 145.23 132.28 144.80 131.07 143.79 130.58 C 142.77 130.10 141.56 130.53 141.07 131.54 Z M 140.63 132.46 L 140.23 133.30 C 139.75 134.32 140.19 135.54 141.21 136.02 C 142.23 136.50 143.45 136.06 143.93 135.04 L 144.33 134.20 C 144.81 133.17 144.37 131.96 143.35 131.48 C 142.33 130.99 141.11 131.43 140.63 132.46 Z M 140.23 133.27 L 139.79 134.17 C 139.30 135.19 139.72 136.42 140.75 136.92 C 141.77 137.41 143.00 136.99 143.50 135.96 L 143.93 135.07 C 144.43 134.04 144.00 132.81 142.98 132.32 C 141.96 131.82 140.73 132.25 140.23 133.27 Z M 139.81 134.12 L 139.33 135.05 C 138.80 136.06 139.20 137.31 140.22 137.84 C 141.24 138.36 142.49 137.96 143.01 136.94 L 143.49 136.01 C 144.01 134.99 143.61 133.75 142.59 133.22 C 141.58 132.70 140.33 133.10 139.81 134.12 Z M 139.34 135.00 L 138.89 135.84 C 138.34 136.85 138.72 138.11 139.72 138.66 C 140.73 139.21 141.99 138.83 142.54 137.82 L 142.99 136.98 C 143.54 135.98 143.17 134.71 142.16 134.17 C 141.15 133.62 139.89 134.00 139.34 135.00 Z M 138.90 135.81 L 138.40 136.70 C 137.84 137.70 138.19 138.97 139.19 139.53 C 140.20 140.10 141.47 139.74 142.03 138.74 L 142.53 137.85 C 143.09 136.85 142.74 135.58 141.73 135.02 C 140.73 134.45 139.46 134.81 138.90 135.81 Z M 138.41 136.67 L 137.89 137.57 C 137.31 138.57 137.64 139.85 138.64 140.43 C 139.64 141.01 140.91 140.67 141.49 139.67 L 142.02 138.77 C 142.60 137.77 142.26 136.50 141.26 135.92 C 140.27 135.34 138.99 135.67 138.41 136.67 Z M 137.90 137.54 L 137.38 138.41 C 136.78 139.40 137.10 140.68 138.09 141.28 C 139.08 141.87 140.36 141.56 140.96 140.57 L 141.48 139.70 C 142.07 138.71 141.76 137.43 140.77 136.83 C 139.78 136.24 138.49 136.56 137.90 137.54 Z M 137.39 138.39 L 136.87 139.22 C 136.26 140.21 136.57 141.50 137.55 142.10 C 138.53 142.71 139.82 142.41 140.43 141.43 L 140.95 140.59 C 141.55 139.61 141.25 138.32 140.27 137.71 C 139.29 137.10 138.00 137.41 137.39 138.39 Z M 136.88 139.21 L 136.35 140.05 C 135.74 141.03 136.03 142.32 137.01 142.93 C 137.98 143.55 139.28 143.26 139.89 142.28 L 140.42 141.44 C 141.03 140.46 140.74 139.17 139.76 138.56 C 138.79 137.94 137.50 138.23 136.88 139.21 Z M 136.35 140.05 L 135.81 140.91 C 135.19 141.88 135.48 143.17 136.46 143.79 C 137.44 144.41 138.73 144.12 139.35 143.14 L 139.89 142.28 C 140.51 141.31 140.22 140.01 139.24 139.40 C 138.26 138.78 136.97 139.07 136.35 140.05 Z M 135.81 140.91 L 135.26 141.79 C 134.64 142.76 134.93 144.05 135.91 144.67 C 136.89 145.29 138.18 144.99 138.80 144.01 L 139.35 143.14 C 139.96 142.16 139.67 140.87 138.69 140.25 C 137.71 139.64 136.42 139.93 135.81 140.91 Z M 135.25 141.79 L 134.70 142.67 C 134.09 143.65 134.38 144.94 135.36 145.56 C 136.34 146.17 137.63 145.87 138.25 144.89 L 138.80 144.01 C 139.41 143.03 139.12 141.74 138.14 141.13 C 137.16 140.51 135.87 140.81 135.25 141.79 Z M 134.70 142.67 L 134.16 143.53 C 133.55 144.51 133.84 145.80 134.82 146.42 C 135.80 147.03 137.09 146.74 137.70 145.76 L 138.24 144.90 C 138.86 143.92 138.56 142.63 137.59 142.01 C 136.61 141.40 135.32 141.69 134.70 142.67 Z M 134.16 143.53 L 133.65 144.33 C 133.03 145.31 133.32 146.60 134.30 147.22 C 135.28 147.84 136.57 147.55 137.19 146.57 L 137.70 145.77 C 138.32 144.79 138.03 143.50 137.05 142.88 C 136.08 142.26 134.78 142.55 134.16 143.53 Z M 133.67 144.31 L 133.09 145.21 C 132.46 146.18 132.73 147.47 133.70 148.10 C 134.67 148.73 135.97 148.45 136.60 147.48 L 137.18 146.59 C 137.80 145.62 137.53 144.32 136.56 143.70 C 135.59 143.07 134.29 143.34 133.67 144.31 Z M 133.11 145.18 L 132.54 146.02 C 131.90 146.98 132.16 148.27 133.12 148.92 C 134.07 149.56 135.37 149.30 136.02 148.35 L 136.58 147.51 C 137.22 146.55 136.96 145.25 136.01 144.61 C 135.05 143.97 133.75 144.22 133.11 145.18 Z M 132.56 145.99 L 132.04 146.74 C 131.39 147.69 131.62 148.99 132.57 149.65 C 133.52 150.30 134.82 150.07 135.48 149.12 L 136.00 148.37 C 136.65 147.43 136.42 146.12 135.47 145.47 C 134.52 144.81 133.22 145.04 132.56 145.99 Z M 132.06 146.72 L 131.49 147.51 C 130.82 148.45 131.04 149.76 131.98 150.43 C 132.92 151.09 134.22 150.88 134.89 149.94 L 135.46 149.14 C 136.13 148.20 135.91 146.90 134.97 146.23 C 134.03 145.56 132.73 145.78 132.06 146.72 Z M 131.50 147.50 L 130.92 148.31 C 130.24 149.25 130.45 150.55 131.38 151.23 C 132.32 151.90 133.62 151.69 134.29 150.76 L 134.88 149.95 C 135.56 149.02 135.35 147.71 134.42 147.04 C 133.48 146.36 132.18 146.57 131.50 147.50 Z M 130.92 148.31 L 130.33 149.12 C 129.66 150.05 129.86 151.35 130.79 152.03 C 131.72 152.70 133.02 152.50 133.70 151.57 L 134.29 150.76 C 134.97 149.83 134.76 148.53 133.83 147.85 C 132.90 147.18 131.60 147.38 130.92 148.31 Z M 130.34 149.12 L 129.75 149.92 C 129.07 150.84 129.28 152.14 130.20 152.82 C 131.13 153.50 132.43 153.30 133.11 152.37 L 133.70 151.57 C 134.37 150.65 134.17 149.34 133.25 148.67 C 132.32 147.99 131.02 148.19 130.34 149.12 Z M 129.76 149.91 L 129.17 150.71 C 128.48 151.63 128.67 152.93 129.59 153.62 C 130.52 154.30 131.82 154.11 132.50 153.19 L 133.10 152.38 C 133.78 151.46 133.59 150.16 132.67 149.48 C 131.75 148.79 130.45 148.99 129.76 149.91 Z M 129.18 150.70 L 128.60 151.46 C 127.91 152.37 128.09 153.67 129.00 154.36 C 129.91 155.05 131.21 154.88 131.90 153.97 L 132.48 153.21 C 133.18 152.29 133.00 150.99 132.09 150.30 C 131.18 149.61 129.88 149.78 129.18 150.70 Z M 128.62 151.44 L 128.03 152.20 C 127.33 153.10 127.49 154.40 128.39 155.10 C 129.29 155.80 130.59 155.64 131.29 154.74 L 131.88 153.99 C 132.59 153.09 132.43 151.79 131.53 151.08 C 130.63 150.38 129.33 150.54 128.62 151.44 Z M 128.05 152.18 L 127.39 153.00 C 126.68 153.89 126.82 155.19 127.71 155.90 C 128.60 156.61 129.90 156.47 130.61 155.58 L 131.27 154.76 C 131.99 153.87 131.84 152.57 130.95 151.86 C 130.07 151.15 128.77 151.29 128.05 152.18 Z M 127.41 152.98 L 126.78 153.75 C 126.06 154.63 126.19 155.92 127.07 156.65 C 127.94 157.37 129.24 157.24 129.96 156.36 L 130.59 155.60 C 131.32 154.72 131.19 153.42 130.31 152.70 C 129.43 151.98 128.13 152.10 127.41 152.98 Z M 126.81 153.73 L 126.17 154.48 C 125.43 155.35 125.54 156.64 126.40 157.38 C 127.27 158.11 128.57 158.00 129.30 157.14 L 129.94 156.38 C 130.67 155.52 130.57 154.22 129.70 153.49 C 128.84 152.75 127.54 152.86 126.81 153.73 Z M 126.20 154.45 L 125.52 155.22 C 124.77 156.06 124.85 157.36 125.69 158.11 C 126.54 158.86 127.83 158.78 128.58 157.94 L 129.26 157.17 C 130.02 156.32 129.94 155.03 129.09 154.28 C 128.25 153.53 126.95 153.61 126.20 154.45 Z M 125.57 155.17 L 124.86 155.92 C 124.09 156.74 124.12 158.03 124.94 158.81 C 125.76 159.58 127.05 159.55 127.83 158.73 L 128.54 157.98 C 129.31 157.16 129.27 155.87 128.46 155.09 C 127.64 154.32 126.34 154.36 125.57 155.17 Z M 124.93 155.87 L 124.20 156.59 C 123.40 157.37 123.38 158.65 124.17 159.45 C 124.95 160.26 126.23 160.27 127.03 159.49 L 127.76 158.78 C 128.56 157.99 128.58 156.71 127.80 155.91 C 127.01 155.11 125.73 155.09 124.93 155.87 Z M 124.26 156.55 L 123.52 157.23 C 122.70 157.98 122.65 159.25 123.39 160.07 C 124.14 160.89 125.41 160.94 126.23 160.19 L 126.97 159.52 C 127.79 158.77 127.85 157.50 127.10 156.68 C 126.35 155.86 125.08 155.80 124.26 156.55 Z M 123.57 157.21 L 122.82 157.87 C 121.99 158.59 121.91 159.85 122.64 160.68 C 123.36 161.50 124.62 161.59 125.44 160.86 L 126.19 160.21 C 127.02 159.48 127.10 158.23 126.38 157.40 C 125.65 156.57 124.39 156.49 123.57 157.21 Z M 122.84 157.87 L 122.35 158.30 C 121.52 159.01 121.43 160.26 122.14 161.08 C 122.85 161.91 124.10 162.00 124.92 161.29 L 125.42 160.86 C 126.25 160.15 126.34 158.90 125.63 158.08 C 124.92 157.25 123.67 157.16 122.84 157.87 Z"
      fill="black"
      fill-rule="nonzero" /><path d="M 140.75 146.26 L 140.40 144.95 C 140.15 143.97 139.15 143.39 138.17 143.65 C 137.20 143.91 136.62 144.91 136.88 145.88 L 137.23 147.19 C 137.48 148.17 138.48 148.75 139.46 148.49 C 140.43 148.23 141.01 147.23 140.75 146.26 Z M 140.43 144.64 L 140.11 143.90 C 139.68 142.91 138.53 142.46 137.54 142.89 C 136.55 143.32 136.10 144.47 136.53 145.46 L 136.85 146.19 C 137.28 147.18 138.43 147.63 139.42 147.20 C 140.41 146.78 140.86 145.63 140.43 144.64 Z M 136.82 143.29 L 136.58 143.55 C 135.81 144.38 135.87 145.68 136.70 146.44 C 137.53 147.21 138.82 147.15 139.59 146.32 L 139.83 146.06 C 140.59 145.23 140.54 143.94 139.71 143.17 C 138.88 142.41 137.58 142.46 136.82 143.29 Z M 136.03 144.55 L 135.86 145.48 C 135.65 146.61 136.39 147.70 137.53 147.91 C 138.66 148.12 139.75 147.37 139.96 146.24 L 140.13 145.32 C 140.34 144.19 139.60 143.10 138.47 142.89 C 137.33 142.67 136.24 143.42 136.03 144.55 Z M 135.82 145.62 L 135.68 146.83 C 135.55 147.99 136.38 149.03 137.54 149.16 C 138.69 149.29 139.73 148.46 139.86 147.31 L 140.00 146.10 C 140.13 144.94 139.30 143.90 138.15 143.77 C 136.99 143.64 135.95 144.47 135.82 145.62 Z M 135.67 146.87 L 135.55 148.08 C 135.45 149.24 136.30 150.27 137.46 150.38 C 138.63 150.49 139.66 149.63 139.77 148.47 L 139.88 147.27 C 139.99 146.10 139.13 145.07 137.97 144.96 C 136.81 144.86 135.78 145.71 135.67 146.87 Z M 135.55 148.08 L 135.46 149.11 C 135.35 150.28 136.21 151.31 137.37 151.41 C 138.54 151.52 139.57 150.66 139.68 149.49 L 139.77 148.46 C 139.88 147.30 139.02 146.27 137.85 146.16 C 136.69 146.06 135.66 146.91 135.55 148.08 Z M 135.46 149.11 L 135.37 150.01 C 135.27 151.18 136.12 152.21 137.29 152.32 C 138.46 152.42 139.49 151.56 139.59 150.40 L 139.68 149.50 C 139.78 148.33 138.93 147.30 137.76 147.19 C 136.59 147.08 135.56 147.94 135.46 149.11 Z M 135.37 150.00 L 135.29 150.90 C 135.17 152.06 136.03 153.10 137.19 153.21 C 138.36 153.33 139.39 152.47 139.51 151.31 L 139.59 150.41 C 139.71 149.24 138.85 148.21 137.69 148.09 C 136.52 147.98 135.49 148.83 135.37 150.00 Z M 135.29 150.89 L 135.19 151.86 C 135.07 153.02 135.92 154.06 137.08 154.18 C 138.25 154.30 139.29 153.45 139.41 152.29 L 139.51 151.32 C 139.62 150.15 138.78 149.11 137.61 148.99 C 136.45 148.88 135.40 149.72 135.29 150.89 Z M 135.19 151.85 L 135.08 152.91 C 134.96 154.08 135.81 155.12 136.97 155.24 C 138.14 155.36 139.18 154.51 139.30 153.35 L 139.41 152.29 C 139.53 151.12 138.68 150.08 137.52 149.96 C 136.35 149.84 135.31 150.69 135.19 151.85 Z M 135.08 152.92 L 134.98 153.87 C 134.86 155.03 135.71 156.07 136.87 156.19 C 138.04 156.31 139.08 155.47 139.20 154.30 L 139.30 153.35 C 139.42 152.18 138.57 151.14 137.40 151.02 C 136.24 150.90 135.20 151.75 135.08 152.92 Z M 134.98 153.87 L 134.88 154.85 C 134.77 156.01 135.61 157.05 136.78 157.17 C 137.94 157.29 138.98 156.44 139.10 155.27 L 139.20 154.30 C 139.32 153.13 138.47 152.09 137.30 151.98 C 136.14 151.86 135.10 152.71 134.98 153.87 Z M 134.88 154.85 L 134.78 155.88 C 134.67 157.04 135.52 158.08 136.68 158.19 C 137.84 158.31 138.88 157.46 139.00 156.30 L 139.10 155.27 C 139.22 154.11 138.37 153.07 137.20 152.95 C 136.04 152.84 135.00 153.69 134.88 154.85 Z M 134.78 155.88 L 134.68 156.92 C 134.57 158.08 135.42 159.12 136.58 159.23 C 137.75 159.34 138.78 158.49 138.90 157.33 L 139.00 156.29 C 139.11 155.13 138.26 154.09 137.09 153.98 C 135.93 153.87 134.90 154.72 134.78 155.88 Z M 134.68 156.92 L 134.59 157.88 C 134.48 159.05 135.33 160.08 136.50 160.19 C 137.66 160.30 138.69 159.45 138.80 158.29 L 138.89 157.32 C 139.00 156.16 138.15 155.13 136.99 155.02 C 135.83 154.91 134.80 155.76 134.68 156.92 Z M 134.59 157.89 L 134.50 158.87 C 134.39 160.03 135.24 161.06 136.40 161.17 C 137.56 161.29 138.60 160.43 138.71 159.27 L 138.80 158.29 C 138.91 157.12 138.06 156.09 136.90 155.98 C 135.74 155.87 134.70 156.72 134.59 157.89 Z M 134.50 158.87 L 134.40 159.88 C 134.29 161.04 135.14 162.07 136.30 162.18 C 137.46 162.30 138.50 161.45 138.61 160.28 L 138.70 159.27 C 138.82 158.11 137.97 157.08 136.81 156.97 C 135.64 156.86 134.61 157.71 134.50 158.87 Z M 134.41 159.88 L 134.31 160.90 C 134.19 162.06 135.04 163.10 136.20 163.21 C 137.36 163.32 138.39 162.48 138.50 161.32 L 138.61 160.29 C 138.72 159.13 137.87 158.10 136.71 157.98 C 135.55 157.87 134.52 158.72 134.41 159.88 Z M 134.31 160.90 L 134.21 161.86 C 134.10 163.02 134.94 164.05 136.10 164.17 C 137.25 164.28 138.29 163.44 138.40 162.28 L 138.50 161.32 C 138.62 160.16 137.77 159.13 136.62 159.02 C 135.46 158.90 134.43 159.74 134.31 160.90 Z M 134.22 161.86 L 134.12 162.84 C 134.00 164.00 134.84 165.03 135.99 165.15 C 137.15 165.26 138.18 164.42 138.30 163.27 L 138.40 162.29 C 138.52 161.13 137.68 160.10 136.52 159.98 C 135.37 159.86 134.34 160.70 134.22 161.86 Z M 134.12 162.84 L 134.02 163.84 C 133.90 165.00 134.74 166.02 135.89 166.14 C 137.04 166.26 138.07 165.42 138.19 164.27 L 138.29 163.27 C 138.41 162.12 137.57 161.09 136.42 160.97 C 135.27 160.85 134.24 161.69 134.12 162.84 Z M 134.02 163.85 L 133.92 164.87 C 133.80 166.01 134.64 167.04 135.79 167.16 C 136.93 167.27 137.96 166.44 138.08 165.29 L 138.18 164.27 C 138.30 163.12 137.46 162.10 136.32 161.98 C 135.17 161.86 134.14 162.70 134.02 163.85 Z M 133.93 164.87 L 133.82 165.87 C 133.71 167.02 134.54 168.04 135.69 168.16 C 136.83 168.27 137.86 167.44 137.97 166.29 L 138.07 165.29 C 138.19 164.14 137.35 163.12 136.21 163.01 C 135.06 162.89 134.04 163.72 133.93 164.87 Z M 133.83 165.88 L 133.73 166.87 C 133.62 168.01 134.45 169.03 135.59 169.14 C 136.74 169.26 137.75 168.42 137.87 167.28 L 137.96 166.29 C 138.08 165.15 137.24 164.13 136.10 164.02 C 134.96 163.90 133.94 164.74 133.83 165.88 Z M 133.74 166.87 L 133.64 167.87 C 133.53 169.01 134.36 170.02 135.50 170.14 C 136.64 170.25 137.65 169.42 137.76 168.28 L 137.86 167.28 C 137.97 166.14 137.14 165.13 136.00 165.02 C 134.86 164.90 133.85 165.74 133.74 166.87 Z M 133.65 167.87 L 133.55 168.87 C 133.44 170.01 134.27 171.02 135.40 171.13 C 136.54 171.24 137.55 170.41 137.66 169.28 L 137.76 168.28 C 137.87 167.14 137.04 166.13 135.90 166.02 C 134.77 165.91 133.76 166.74 133.65 167.87 Z M 133.55 168.87 L 133.46 169.87 C 133.34 171.00 134.17 172.01 135.30 172.12 C 136.43 172.23 137.44 171.40 137.55 170.27 L 137.65 169.28 C 137.76 168.15 136.94 167.14 135.81 167.03 C 134.67 166.91 133.67 167.74 133.55 168.87 Z M 133.47 169.87 L 133.36 170.88 C 133.25 172.01 134.07 173.01 135.20 173.12 C 136.32 173.24 137.33 172.42 137.44 171.29 L 137.54 170.28 C 137.66 169.15 136.83 168.15 135.71 168.03 C 134.58 167.92 133.58 168.74 133.47 169.87 Z M 133.38 170.88 L 133.27 171.89 C 133.16 173.01 133.98 174.01 135.10 174.12 C 136.21 174.24 137.21 173.42 137.33 172.30 L 137.43 171.29 C 137.54 170.17 136.72 169.17 135.61 169.06 C 134.49 168.95 133.49 169.76 133.38 170.88 Z M 133.29 171.90 L 133.19 172.90 C 133.08 174.01 133.89 175.00 135.00 175.11 C 136.11 175.22 137.10 174.41 137.21 173.29 L 137.31 172.30 C 137.42 171.19 136.61 170.20 135.50 170.09 C 134.39 169.98 133.40 170.79 133.29 171.90 Z M 133.20 172.90 L 133.11 173.89 C 133.00 174.99 133.81 175.97 134.92 176.08 C 136.02 176.18 137.00 175.37 137.11 174.27 L 137.20 173.29 C 137.30 172.18 136.50 171.20 135.39 171.10 C 134.29 170.99 133.31 171.80 133.20 172.90 Z M 133.12 173.90 L 133.03 174.88 C 132.94 175.97 133.75 176.94 134.84 177.04 C 135.94 177.14 136.91 176.33 137.01 175.23 L 137.09 174.25 C 137.19 173.16 136.38 172.19 135.28 172.09 C 134.19 171.99 133.22 172.80 133.12 173.90 Z M 133.05 174.89 L 132.97 175.93 C 132.88 177.01 133.69 177.97 134.77 178.06 C 135.86 178.15 136.82 177.34 136.91 176.25 L 136.99 175.22 C 137.08 174.13 136.27 173.17 135.18 173.08 C 134.09 173.00 133.14 173.81 133.05 174.89 Z M 132.98 175.94 L 132.91 176.95 C 132.82 178.02 133.63 178.97 134.71 179.05 C 135.79 179.13 136.73 178.32 136.81 177.24 L 136.89 176.23 C 136.97 175.16 136.16 174.21 135.08 174.13 C 134.00 174.05 133.06 174.86 132.98 175.94 Z M 132.92 176.96 L 132.85 177.94 C 132.78 179.01 133.58 179.94 134.65 180.01 C 135.72 180.09 136.65 179.28 136.73 178.22 L 136.80 177.23 C 136.87 176.16 136.07 175.23 135.00 175.16 C 133.93 175.08 133.00 175.89 132.92 176.96 Z M 132.87 177.94 L 132.80 178.90 C 132.73 179.96 133.53 180.88 134.59 180.95 C 135.65 181.03 136.57 180.23 136.64 179.17 L 136.71 178.21 C 136.78 177.15 135.98 176.23 134.92 176.16 C 133.86 176.09 132.94 176.88 132.87 177.94 Z M 132.83 178.91 L 132.76 179.93 C 132.69 180.98 133.48 181.88 134.53 181.95 C 135.57 182.02 136.48 181.23 136.55 180.19 L 136.61 179.16 C 136.68 178.12 135.89 177.21 134.85 177.14 C 133.80 177.07 132.90 177.87 132.83 178.91 Z M 132.79 179.97 L 132.75 180.97 C 132.70 182.00 133.49 182.87 134.51 182.92 C 135.54 182.97 136.41 182.18 136.46 181.15 L 136.51 180.15 C 136.56 179.12 135.77 178.25 134.74 178.20 C 133.72 178.15 132.84 178.94 132.79 179.97 Z M 132.78 181.05 L 132.77 182.03 C 132.76 183.04 133.57 183.87 134.58 183.88 C 135.59 183.89 136.41 183.08 136.42 182.07 L 136.43 181.08 C 136.44 180.07 135.63 179.25 134.62 179.24 C 133.61 179.23 132.79 180.04 132.78 181.05 Z M 132.81 182.14 L 132.85 183.12 C 132.90 184.11 133.75 184.87 134.73 184.82 C 135.72 184.77 136.48 183.93 136.43 182.94 L 136.39 181.96 C 136.34 180.97 135.49 180.21 134.51 180.26 C 133.52 180.31 132.76 181.15 132.81 182.14 Z M 132.90 183.24 L 133.02 184.23 C 133.13 185.20 134.01 185.88 134.98 185.77 C 135.94 185.65 136.63 184.77 136.51 183.80 L 136.39 182.82 C 136.28 181.85 135.40 181.16 134.43 181.28 C 133.46 181.40 132.78 182.28 132.90 183.24 Z M 133.06 184.32 L 133.23 185.31 C 133.40 186.25 134.30 186.88 135.25 186.71 C 136.19 186.54 136.82 185.64 136.65 184.70 L 136.47 183.71 C 136.31 182.77 135.40 182.14 134.46 182.31 C 133.52 182.48 132.89 183.38 133.06 184.32 Z M 133.27 185.36 L 133.48 186.34 C 133.68 187.26 134.58 187.85 135.51 187.65 C 136.43 187.45 137.02 186.55 136.82 185.62 L 136.61 184.64 C 136.41 183.72 135.51 183.13 134.58 183.33 C 133.66 183.53 133.07 184.43 133.27 185.36 Z M 133.50 186.35 L 133.64 186.97 C 133.85 187.88 134.75 188.45 135.66 188.24 C 136.57 188.03 137.14 187.13 136.93 186.22 L 136.79 185.61 C 136.59 184.70 135.68 184.13 134.78 184.34 C 133.87 184.54 133.30 185.45 133.50 186.35 Z"
      fill="black"
      fill-rule="nonzero" /><path d="M 149.76 137.17 L 148.97 137.82 C 148.24 138.41 148.13 139.48 148.73 140.21 C 149.32 140.94 150.40 141.05 151.13 140.46 L 151.92 139.82 C 152.65 139.22 152.76 138.15 152.16 137.42 C 151.57 136.69 150.49 136.58 149.76 137.17 Z M 148.96 137.83 L 148.18 138.47 C 147.46 139.07 147.36 140.15 147.96 140.87 C 148.57 141.60 149.64 141.70 150.36 141.09 L 151.14 140.45 C 151.86 139.85 151.96 138.77 151.36 138.05 C 150.76 137.33 149.68 137.23 148.96 137.83 Z M 148.16 138.50 L 147.41 139.14 C 146.70 139.76 146.63 140.84 147.24 141.55 C 147.86 142.26 148.94 142.33 149.65 141.72 L 150.39 141.07 C 151.10 140.45 151.18 139.38 150.56 138.67 C 149.94 137.96 148.87 137.88 148.16 138.50 Z M 147.37 139.18 L 146.61 139.88 C 145.92 140.53 145.88 141.60 146.53 142.29 C 147.17 142.98 148.25 143.02 148.94 142.38 L 149.69 141.68 C 150.38 141.04 150.42 139.96 149.78 139.27 C 149.14 138.58 148.06 138.54 147.37 139.18 Z M 146.57 139.93 L 145.84 140.65 C 145.18 141.32 145.18 142.40 145.84 143.06 C 146.51 143.73 147.59 143.73 148.25 143.06 L 148.98 142.34 C 149.65 141.67 149.65 140.59 148.98 139.93 C 148.31 139.26 147.23 139.26 146.57 139.93 Z M 145.81 140.68 L 145.15 141.38 C 144.50 142.06 144.53 143.14 145.22 143.79 C 145.90 144.44 146.98 144.41 147.63 143.73 L 148.29 143.03 C 148.93 142.35 148.91 141.27 148.22 140.62 C 147.54 139.97 146.46 140.00 145.81 140.68 Z M 145.13 141.40 L 144.48 142.11 C 143.84 142.80 143.88 143.88 144.58 144.52 C 145.27 145.16 146.35 145.11 146.99 144.42 L 147.65 143.71 C 148.28 143.01 148.24 141.93 147.54 141.30 C 146.85 140.66 145.77 140.70 145.13 141.40 Z M 144.45 142.14 L 143.81 142.87 C 143.18 143.57 143.25 144.65 143.96 145.28 C 144.67 145.90 145.75 145.83 146.37 145.13 L 147.01 144.40 C 147.64 143.69 147.57 142.61 146.86 141.98 C 146.16 141.36 145.08 141.43 144.45 142.14 Z M 143.77 142.90 L 143.12 143.69 C 142.51 144.41 142.61 145.49 143.34 146.10 C 144.07 146.70 145.15 146.60 145.75 145.88 L 146.41 145.09 C 147.01 144.36 146.91 143.28 146.18 142.68 C 145.46 142.07 144.38 142.17 143.77 142.90 Z M 143.08 143.71 L 142.47 144.49 C 141.88 145.24 142.01 146.33 142.76 146.92 C 143.51 147.51 144.59 147.38 145.18 146.63 L 145.80 145.85 C 146.39 145.10 146.25 144.01 145.50 143.42 C 144.75 142.83 143.67 142.96 143.08 143.71 Z M 142.43 144.50 L 141.81 145.32 C 141.23 146.09 141.38 147.19 142.15 147.78 C 142.93 148.36 144.02 148.20 144.61 147.43 L 145.22 146.61 C 145.81 145.84 145.65 144.74 144.88 144.16 C 144.11 143.58 143.01 143.73 142.43 144.50 Z M 141.77 145.33 L 141.18 146.15 C 140.60 146.95 140.78 148.06 141.57 148.63 C 142.37 149.21 143.48 149.03 144.05 148.24 L 144.65 147.42 C 145.22 146.63 145.05 145.51 144.25 144.94 C 143.46 144.36 142.35 144.54 141.77 145.33 Z M 141.11 146.18 L 140.52 147.07 C 139.96 147.90 140.18 149.03 141.01 149.59 C 141.84 150.14 142.97 149.92 143.53 149.09 L 144.12 148.21 C 144.68 147.37 144.46 146.25 143.63 145.69 C 142.79 145.13 141.67 145.35 141.11 146.18 Z M 140.38 147.20 L 139.93 148.04 C 139.44 148.94 139.79 150.07 140.69 150.56 C 141.60 151.05 142.73 150.70 143.21 149.80 L 143.66 148.96 C 144.15 148.05 143.81 146.92 142.90 146.44 C 142.00 145.95 140.87 146.29 140.38 147.20 Z M 139.73 148.35 L 139.44 149.29 C 139.12 150.31 139.69 151.39 140.71 151.70 C 141.72 152.02 142.80 151.45 143.12 150.43 L 143.41 149.49 C 143.73 148.47 143.16 147.39 142.14 147.08 C 141.13 146.76 140.05 147.33 139.73 148.35 Z M 139.26 149.88 L 139.27 150.86 C 139.28 151.98 140.19 152.87 141.31 152.86 C 142.43 152.85 143.32 151.94 143.31 150.82 L 143.30 149.84 C 143.29 148.72 142.37 147.83 141.26 147.84 C 140.14 147.85 139.25 148.77 139.26 149.88 Z M 139.39 151.75 L 139.78 152.56 C 140.28 153.61 141.54 154.05 142.58 153.56 C 143.63 153.06 144.07 151.80 143.57 150.75 L 143.18 149.94 C 142.69 148.89 141.43 148.45 140.38 148.95 C 139.34 149.45 138.89 150.70 139.39 151.75 Z M 140.19 153.20 L 140.88 153.87 C 141.73 154.69 143.09 154.67 143.91 153.83 C 144.73 152.98 144.71 151.62 143.87 150.80 L 143.17 150.12 C 142.32 149.30 140.97 149.32 140.14 150.17 C 139.32 151.01 139.34 152.37 140.19 153.20 Z M 141.17 154.13 L 142.07 154.74 C 143.06 155.40 144.41 155.14 145.07 154.14 C 145.74 153.15 145.47 151.81 144.48 151.14 L 143.58 150.54 C 142.58 149.87 141.24 150.14 140.57 151.13 C 139.91 152.12 140.18 153.47 141.17 154.13 Z M 142.22 154.84 L 143.06 155.31 C 144.11 155.89 145.43 155.52 146.02 154.47 C 146.60 153.42 146.23 152.09 145.18 151.51 L 144.33 151.04 C 143.28 150.45 141.96 150.83 141.38 151.88 C 140.79 152.93 141.17 154.25 142.22 154.84 Z M 143.16 155.36 L 144.07 155.81 C 145.15 156.34 146.45 155.90 146.98 154.82 C 147.51 153.74 147.07 152.44 145.99 151.91 L 145.08 151.46 C 144.00 150.92 142.70 151.37 142.17 152.45 C 141.63 153.52 142.08 154.83 143.16 155.36 Z M 144.15 155.85 L 145.09 156.26 C 146.19 156.75 147.47 156.25 147.96 155.15 C 148.44 154.05 147.95 152.77 146.85 152.28 L 145.91 151.87 C 144.81 151.38 143.52 151.88 143.04 152.98 C 142.55 154.08 143.05 155.36 144.15 155.85 Z M 145.17 156.29 L 146.04 156.63 C 147.15 157.08 148.41 156.53 148.86 155.42 C 149.30 154.30 148.75 153.04 147.64 152.60 L 146.77 152.25 C 145.66 151.81 144.39 152.36 143.95 153.47 C 143.51 154.58 144.05 155.85 145.17 156.29 Z M 146.11 156.65 L 147.03 156.98 C 148.15 157.38 149.39 156.79 149.79 155.67 C 150.19 154.55 149.60 153.31 148.48 152.91 L 147.57 152.58 C 146.44 152.18 145.21 152.77 144.81 153.89 C 144.40 155.01 144.99 156.25 146.11 156.65 Z M 147.09 156.99 L 148.09 157.31 C 149.22 157.68 150.43 157.06 150.80 155.93 C 151.16 154.80 150.54 153.59 149.42 153.23 L 148.42 152.90 C 147.29 152.54 146.08 153.16 145.71 154.28 C 145.35 155.41 145.97 156.62 147.09 156.99 Z M 148.14 157.30 L 149.08 157.58 C 150.20 157.92 151.39 157.28 151.73 156.16 C 152.06 155.04 151.43 153.85 150.30 153.52 L 149.37 153.24 C 148.24 152.90 147.06 153.54 146.72 154.66 C 146.38 155.78 147.02 156.97 148.14 157.30 Z M 149.12 157.55 L 150.04 157.82 C 151.15 158.14 152.30 157.50 152.62 156.39 C 152.94 155.28 152.30 154.13 151.19 153.81 L 150.27 153.55 C 149.16 153.23 148.01 153.87 147.69 154.98 C 147.37 156.08 148.01 157.24 149.12 157.55 Z M 150.07 157.78 L 151.04 158.05 C 152.13 158.36 153.26 157.72 153.56 156.63 C 153.86 155.55 153.22 154.42 152.14 154.12 L 151.16 153.85 C 150.08 153.55 148.95 154.18 148.65 155.27 C 148.35 156.35 148.98 157.48 150.07 157.78 Z M 151.06 158.01 L 152.07 158.29 C 153.14 158.58 154.24 157.95 154.53 156.89 C 154.82 155.82 154.19 154.72 153.13 154.43 L 152.12 154.16 C 151.05 153.87 149.95 154.50 149.66 155.56 C 149.37 156.62 150.00 157.72 151.06 158.01 Z M 152.09 158.25 L 152.88 158.47 C 153.93 158.75 155.00 158.14 155.29 157.09 C 155.57 156.05 154.95 154.97 153.91 154.69 L 153.11 154.47 C 152.07 154.19 150.99 154.80 150.71 155.85 C 150.42 156.89 151.04 157.97 152.09 158.25 Z"
      fill="black"
      fill-rule="nonzero" /><path d="M 157.80 129.10 L 156.83 129.85 C 155.99 130.52 155.84 131.73 156.50 132.58 C 157.16 133.42 158.38 133.57 159.22 132.91 L 160.19 132.15 C 161.03 131.49 161.18 130.27 160.52 129.43 C 159.86 128.59 158.64 128.44 157.80 129.10 Z M 156.60 132.71 L 156.71 132.83 C 157.44 133.61 158.68 133.66 159.46 132.92 C 160.25 132.19 160.29 130.96 159.56 130.17 L 159.45 130.05 C 158.72 129.27 157.48 129.22 156.70 129.96 C 155.91 130.69 155.87 131.92 156.60 132.71 Z M 158.84 133.31 L 159.65 133.00 C 160.65 132.61 161.15 131.48 160.76 130.48 C 160.37 129.47 159.24 128.98 158.24 129.37 L 157.43 129.68 C 156.42 130.08 155.93 131.20 156.32 132.21 C 156.71 133.21 157.84 133.71 158.84 133.31 Z M 159.74 132.96 L 161.00 132.39 C 161.98 131.95 162.42 130.80 161.98 129.82 C 161.54 128.84 160.39 128.40 159.41 128.84 L 158.15 129.41 C 157.17 129.85 156.73 131.00 157.17 131.98 C 157.61 132.96 158.76 133.40 159.74 132.96 Z M 161.02 132.38 L 161.85 131.99 C 162.82 131.54 163.24 130.38 162.79 129.41 C 162.34 128.44 161.18 128.02 160.21 128.47 L 159.38 128.86 C 158.41 129.31 157.99 130.47 158.44 131.44 C 158.90 132.41 160.05 132.83 161.02 132.38 Z M 161.86 131.98 L 162.70 131.58 C 163.67 131.13 164.08 129.97 163.62 129.01 C 163.17 128.04 162.02 127.63 161.05 128.09 L 160.21 128.48 C 159.24 128.94 158.83 130.09 159.28 131.06 C 159.74 132.02 160.89 132.44 161.86 131.98 Z M 162.70 131.57 L 163.60 131.14 C 164.56 130.69 164.97 129.54 164.52 128.58 C 164.06 127.62 162.92 127.21 161.96 127.67 L 161.05 128.10 C 160.09 128.55 159.68 129.70 160.14 130.66 C 160.59 131.62 161.74 132.03 162.70 131.57 Z M 163.60 131.14 L 164.56 130.68 C 165.52 130.23 165.93 129.09 165.48 128.13 C 165.02 127.17 163.88 126.76 162.93 127.22 L 161.96 127.67 C 161.01 128.13 160.60 129.27 161.05 130.22 C 161.50 131.18 162.64 131.59 163.60 131.14 Z M 164.56 130.67 L 165.58 130.19 C 166.53 129.75 166.94 128.61 166.49 127.66 C 166.04 126.70 164.91 126.30 163.95 126.74 L 162.93 127.22 C 161.98 127.67 161.57 128.81 162.02 129.76 C 162.47 130.71 163.60 131.12 164.56 130.67 Z M 165.56 130.18 L 166.51 129.74 C 167.46 129.30 167.87 128.17 167.43 127.23 C 166.99 126.28 165.86 125.87 164.91 126.31 L 163.96 126.75 C 163.02 127.20 162.61 128.32 163.05 129.27 C 163.49 130.22 164.62 130.63 165.56 130.18 Z M 166.50 129.73 L 167.46 129.28 C 168.40 128.85 168.81 127.73 168.38 126.79 C 167.94 125.86 166.83 125.45 165.89 125.88 L 164.93 126.33 C 163.99 126.76 163.58 127.87 164.02 128.81 C 164.45 129.75 165.56 130.16 166.50 129.73 Z M 167.45 129.26 L 168.40 128.83 C 169.33 128.40 169.74 127.30 169.31 126.37 C 168.88 125.44 167.78 125.03 166.85 125.46 L 165.90 125.90 C 164.97 126.33 164.57 127.43 164.99 128.36 C 165.42 129.28 166.52 129.69 167.45 129.26 Z M 168.39 128.81 L 169.30 128.39 C 170.22 127.97 170.62 126.88 170.20 125.96 C 169.78 125.04 168.69 124.64 167.77 125.06 L 166.86 125.48 C 165.94 125.90 165.54 126.99 165.96 127.91 C 166.38 128.83 167.47 129.23 168.39 128.81 Z M 169.29 128.37 L 170.13 127.99 C 171.04 127.57 171.44 126.49 171.03 125.58 C 170.61 124.68 169.53 124.28 168.63 124.69 L 167.78 125.08 C 166.87 125.50 166.47 126.57 166.89 127.48 C 167.31 128.39 168.38 128.79 169.29 128.37 Z M 170.12 127.96 L 171.07 127.52 C 171.97 127.11 172.36 126.06 171.95 125.16 C 171.54 124.27 170.48 123.87 169.59 124.28 L 168.64 124.72 C 167.74 125.13 167.35 126.19 167.76 127.08 C 168.17 127.98 169.23 128.37 170.12 127.96 Z M 171.05 127.49 L 172.05 127.03 C 172.92 126.64 173.31 125.61 172.91 124.73 C 172.52 123.86 171.48 123.47 170.61 123.87 L 169.61 124.32 C 168.74 124.72 168.35 125.75 168.75 126.62 C 169.15 127.50 170.18 127.88 171.05 127.49 Z M 172.01 126.99 L 172.85 126.62 C 173.70 126.25 174.09 125.25 173.71 124.40 C 173.34 123.55 172.34 123.16 171.49 123.54 L 170.65 123.91 C 169.80 124.28 169.41 125.28 169.78 126.13 C 170.16 126.98 171.16 127.37 172.01 126.99 Z M 172.79 126.59 L 173.59 126.27 C 174.42 125.92 174.82 124.96 174.47 124.13 C 174.13 123.29 173.17 122.90 172.34 123.24 L 171.54 123.57 C 170.71 123.91 170.31 124.87 170.66 125.71 C 171.00 126.54 171.96 126.94 172.79 126.59 Z M 173.53 126.25 L 174.46 125.90 C 175.28 125.59 175.70 124.66 175.38 123.83 C 175.07 123.00 174.14 122.59 173.31 122.90 L 172.39 123.25 C 171.56 123.57 171.15 124.50 171.46 125.32 C 171.78 126.15 172.70 126.57 173.53 126.25 Z M 174.42 125.90 L 175.37 125.56 C 176.19 125.26 176.62 124.35 176.33 123.53 C 176.03 122.70 175.12 122.27 174.30 122.57 L 173.35 122.91 C 172.52 123.20 172.09 124.11 172.39 124.94 C 172.69 125.76 173.60 126.19 174.42 125.90 Z M 175.35 125.55 L 176.08 125.29 C 176.90 125.01 177.33 124.11 177.05 123.29 C 176.76 122.47 175.86 122.04 175.04 122.32 L 174.31 122.58 C 173.49 122.86 173.06 123.76 173.34 124.58 C 173.63 125.40 174.53 125.84 175.35 125.55 Z"
      fill="black"
      fill-rule="nonzero" /><path d="M 167.60 119.39 L 166.77 119.87 C 165.85 120.39 165.53 121.56 166.05 122.48 C 166.58 123.40 167.75 123.72 168.67 123.20 L 169.50 122.72 C 170.42 122.20 170.74 121.03 170.22 120.11 C 169.69 119.19 168.52 118.87 167.60 119.39 Z M 166.40 120.14 L 165.69 120.80 C 164.92 121.53 164.89 122.75 165.61 123.52 C 166.34 124.29 167.55 124.32 168.32 123.60 L 169.03 122.93 C 169.80 122.20 169.84 120.99 169.11 120.22 C 168.39 119.45 167.17 119.41 166.40 120.14 Z M 165.27 121.38 L 164.86 122.26 C 164.41 123.22 164.82 124.36 165.77 124.81 C 166.73 125.27 167.88 124.86 168.33 123.90 L 168.74 123.02 C 169.20 122.06 168.79 120.92 167.83 120.47 C 166.87 120.01 165.73 120.42 165.27 121.38 Z M 164.71 122.71 L 164.53 123.64 C 164.32 124.68 165.00 125.69 166.04 125.89 C 167.08 126.10 168.09 125.42 168.29 124.38 L 168.47 123.45 C 168.68 122.41 168.00 121.40 166.96 121.20 C 165.93 120.99 164.92 121.67 164.71 122.71 Z M 164.50 123.84 L 164.41 124.89 C 164.32 125.94 165.10 126.87 166.15 126.96 C 167.20 127.05 168.13 126.27 168.22 125.22 L 168.32 124.18 C 168.41 123.13 167.63 122.20 166.58 122.10 C 165.52 122.01 164.60 122.79 164.50 123.84 Z M 164.41 124.97 L 164.36 126.03 C 164.32 127.08 165.13 127.97 166.19 128.02 C 167.24 128.07 168.14 127.25 168.18 126.19 L 168.23 125.14 C 168.27 124.08 167.46 123.19 166.40 123.14 C 165.35 123.10 164.45 123.92 164.41 124.97 Z M 164.37 126.03 L 164.33 127.09 C 164.28 128.13 165.10 129.02 166.15 129.07 C 167.20 129.11 168.08 128.30 168.13 127.25 L 168.17 126.19 C 168.22 125.14 167.40 124.26 166.35 124.21 C 165.30 124.17 164.42 124.98 164.37 126.03 Z M 164.34 127.07 L 164.29 128.07 C 164.24 129.11 165.04 129.99 166.08 130.05 C 167.12 130.10 168.01 129.30 168.06 128.26 L 168.11 127.26 C 168.16 126.22 167.36 125.33 166.32 125.28 C 165.28 125.23 164.40 126.03 164.34 127.07 Z M 164.31 128.07 L 164.26 129.03 C 164.21 130.06 165.00 130.94 166.03 130.99 C 167.06 131.05 167.94 130.25 167.99 129.22 L 168.04 128.26 C 168.10 127.23 167.30 126.35 166.27 126.30 C 165.24 126.24 164.36 127.04 164.31 128.07 Z M 164.28 129.05 L 164.23 130.02 C 164.19 131.04 164.98 131.91 166.00 131.95 C 167.03 132.00 167.89 131.20 167.94 130.18 L 167.98 129.21 C 168.02 128.19 167.23 127.32 166.21 127.28 C 165.19 127.23 164.32 128.03 164.28 129.05 Z M 164.25 130.03 L 164.21 131.03 C 164.18 132.04 164.97 132.90 165.98 132.93 C 167.00 132.97 167.85 132.18 167.89 131.16 L 167.92 130.17 C 167.96 129.15 167.17 128.30 166.15 128.27 C 165.14 128.23 164.29 129.02 164.25 130.03 Z M 164.23 131.03 L 164.19 132.04 C 164.16 133.05 164.94 133.89 165.95 133.93 C 166.96 133.96 167.80 133.17 167.84 132.17 L 167.87 131.16 C 167.91 130.15 167.12 129.31 166.11 129.27 C 165.11 129.24 164.26 130.03 164.23 131.03 Z M 164.20 132.03 L 164.17 133.02 C 164.13 134.02 164.90 134.86 165.90 134.90 C 166.90 134.94 167.74 134.16 167.78 133.17 L 167.82 132.17 C 167.86 131.18 167.08 130.33 166.09 130.29 C 165.09 130.25 164.24 131.03 164.20 132.03 Z M 164.18 133.01 L 164.14 133.90 C 164.09 134.89 164.85 135.73 165.85 135.78 C 166.84 135.83 167.68 135.07 167.73 134.07 L 167.77 133.18 C 167.82 132.19 167.05 131.35 166.06 131.30 C 165.07 131.25 164.23 132.02 164.18 133.01 Z M 164.16 133.89 L 164.10 134.83 C 164.05 135.82 164.80 136.66 165.78 136.71 C 166.76 136.77 167.60 136.02 167.65 135.04 L 167.71 134.09 C 167.76 133.11 167.01 132.27 166.03 132.21 C 165.05 132.16 164.21 132.91 164.16 133.89 Z M 164.12 134.82 L 164.05 135.87 C 163.99 136.84 164.73 137.68 165.70 137.75 C 166.67 137.81 167.51 137.07 167.57 136.10 L 167.64 135.05 C 167.70 134.08 166.96 133.24 165.99 133.18 C 165.02 133.11 164.18 133.85 164.12 134.82 Z M 164.07 135.86 L 163.99 136.93 C 163.93 137.89 164.65 138.73 165.62 138.79 C 166.58 138.86 167.41 138.14 167.48 137.17 L 167.55 136.11 C 167.62 135.14 166.89 134.31 165.93 134.24 C 164.97 134.18 164.13 134.90 164.07 135.86 Z M 164.01 136.93 L 163.94 137.83 C 163.87 138.78 164.59 139.61 165.55 139.68 C 166.50 139.75 167.33 139.03 167.40 138.08 L 167.46 137.18 C 167.53 136.22 166.82 135.39 165.86 135.32 C 164.91 135.26 164.08 135.97 164.01 136.93 Z M 163.96 137.83 L 163.89 138.79 C 163.82 139.74 164.53 140.56 165.47 140.63 C 166.42 140.70 167.24 139.99 167.31 139.05 L 167.38 138.08 C 167.45 137.13 166.74 136.31 165.80 136.24 C 164.85 136.17 164.03 136.88 163.96 137.83 Z M 163.90 138.79 L 163.83 139.81 C 163.75 140.75 164.46 141.56 165.39 141.63 C 166.33 141.71 167.15 141.00 167.22 140.07 L 167.30 139.05 C 167.37 138.11 166.66 137.29 165.73 137.22 C 164.79 137.15 163.97 137.85 163.90 138.79 Z M 163.84 139.81 L 163.76 140.86 C 163.69 141.79 164.39 142.60 165.31 142.67 C 166.24 142.74 167.05 142.05 167.13 141.12 L 167.21 140.07 C 167.28 139.14 166.58 138.33 165.65 138.25 C 164.72 138.18 163.91 138.88 163.84 139.81 Z M 163.77 140.86 L 163.69 141.94 C 163.62 142.86 164.31 143.66 165.23 143.73 C 166.15 143.80 166.96 143.11 167.03 142.19 L 167.11 141.12 C 167.18 140.20 166.49 139.39 165.57 139.32 C 164.65 139.25 163.85 139.94 163.77 140.86 Z M 163.70 141.94 L 163.68 142.25 C 163.61 143.17 164.29 143.97 165.21 144.04 C 166.13 144.11 166.92 143.42 166.99 142.51 L 167.02 142.19 C 167.09 141.27 166.40 140.48 165.49 140.41 C 164.57 140.34 163.77 141.02 163.70 141.94 Z"
      fill="black"
      fill-rule="nonzero" /><path d="M 153.09 148.61 L 154.15 148.50 C 155.10 148.41 155.78 147.57 155.68 146.62 C 155.59 145.68 154.75 144.99 153.80 145.09 L 152.74 145.20 C 151.80 145.30 151.11 146.14 151.21 147.08 C 151.30 148.02 152.15 148.71 153.09 148.61 Z M 154.20 148.67 L 155.22 148.55 C 156.26 148.43 157.00 147.49 156.88 146.45 C 156.75 145.42 155.81 144.67 154.78 144.80 L 153.75 144.92 C 152.72 145.04 151.98 145.98 152.10 147.02 C 152.22 148.06 153.16 148.80 154.20 148.67 Z M 155.32 148.72 L 156.26 148.57 C 157.38 148.39 158.15 147.33 157.98 146.21 C 157.80 145.08 156.74 144.31 155.62 144.49 L 154.68 144.64 C 153.55 144.81 152.78 145.87 152.96 147.00 C 153.14 148.12 154.19 148.89 155.32 148.72 Z M 156.44 148.65 L 157.43 148.42 C 158.60 148.14 159.33 146.96 159.05 145.79 C 158.77 144.62 157.59 143.89 156.42 144.17 L 155.43 144.40 C 154.26 144.68 153.53 145.86 153.81 147.03 C 154.09 148.21 155.27 148.93 156.44 148.65 Z M 157.66 148.38 L 158.59 148.05 C 159.74 147.65 160.34 146.38 159.94 145.23 C 159.53 144.08 158.27 143.48 157.12 143.88 L 156.19 144.21 C 155.04 144.61 154.43 145.88 154.84 147.03 C 155.25 148.18 156.51 148.79 157.66 148.38 Z M 158.73 147.99 L 159.60 147.62 C 160.71 147.13 161.23 145.83 160.74 144.71 C 160.25 143.59 158.95 143.08 157.84 143.57 L 156.97 143.94 C 155.85 144.43 155.34 145.73 155.83 146.85 C 156.31 147.97 157.61 148.48 158.73 147.99 Z M 159.63 147.60 L 160.52 147.19 C 161.62 146.69 162.11 145.39 161.61 144.28 C 161.11 143.17 159.80 142.68 158.69 143.18 L 157.81 143.59 C 156.70 144.09 156.21 145.39 156.71 146.50 C 157.21 147.61 158.52 148.10 159.63 147.60 Z M 160.51 147.19 L 161.44 146.77 C 162.55 146.27 163.04 144.96 162.54 143.86 C 162.04 142.75 160.73 142.26 159.63 142.76 L 158.70 143.19 C 157.59 143.69 157.10 144.99 157.60 146.10 C 158.10 147.20 159.41 147.69 160.51 147.19 Z M 161.42 146.77 L 162.34 146.37 C 163.44 145.88 163.94 144.58 163.45 143.47 C 162.96 142.37 161.67 141.87 160.56 142.36 L 159.65 142.76 C 158.54 143.25 158.04 144.55 158.53 145.65 C 159.02 146.76 160.31 147.26 161.42 146.77 Z M 162.31 146.37 L 163.23 145.97 C 164.34 145.50 164.85 144.21 164.37 143.10 C 163.90 142.00 162.61 141.49 161.50 141.96 L 160.59 142.36 C 159.48 142.83 158.97 144.12 159.44 145.22 C 159.92 146.33 161.20 146.84 162.31 146.37 Z M 163.21 145.97 L 164.14 145.58 C 165.25 145.12 165.77 143.84 165.31 142.73 C 164.84 141.63 163.57 141.11 162.46 141.57 L 161.53 141.96 C 160.42 142.43 159.90 143.70 160.36 144.81 C 160.83 145.92 162.10 146.44 163.21 145.97 Z M 164.12 145.58 L 165.04 145.20 C 166.14 144.75 166.67 143.48 166.22 142.38 C 165.77 141.27 164.50 140.74 163.40 141.20 L 162.48 141.57 C 161.37 142.03 160.85 143.29 161.30 144.40 C 161.75 145.50 163.02 146.03 164.12 145.58 Z M 165.02 145.20 L 165.95 144.82 C 167.05 144.38 167.59 143.12 167.14 142.02 C 166.70 140.92 165.44 140.38 164.34 140.83 L 163.41 141.20 C 162.31 141.65 161.78 142.90 162.22 144.01 C 162.67 145.11 163.92 145.64 165.02 145.20 Z M 165.94 144.81 L 166.87 144.44 C 167.97 144.00 168.50 142.76 168.06 141.66 C 167.63 140.56 166.38 140.02 165.28 140.46 L 164.35 140.84 C 163.25 141.28 162.72 142.52 163.16 143.62 C 163.60 144.72 164.84 145.25 165.94 144.81 Z M 166.87 144.43 L 167.78 144.06 C 168.87 143.63 169.41 142.39 168.97 141.30 C 168.53 140.21 167.30 139.67 166.20 140.11 L 165.29 140.47 C 164.19 140.91 163.66 142.15 164.10 143.24 C 164.53 144.33 165.77 144.87 166.87 144.43 Z M 167.78 144.05 L 168.72 143.67 C 169.80 143.24 170.32 142.01 169.89 140.92 C 169.45 139.84 168.22 139.31 167.14 139.75 L 166.20 140.12 C 165.12 140.56 164.59 141.79 165.03 142.88 C 165.47 143.96 166.70 144.49 167.78 144.05 Z M 168.72 143.66 L 169.67 143.27 C 170.74 142.83 171.25 141.60 170.81 140.53 C 170.37 139.45 169.15 138.94 168.07 139.38 L 167.13 139.77 C 166.05 140.21 165.54 141.43 165.98 142.51 C 166.42 143.58 167.65 144.10 168.72 143.66 Z M 169.67 143.25 L 170.61 142.85 C 171.68 142.41 172.18 141.19 171.73 140.13 C 171.29 139.06 170.07 138.56 169.00 139.01 L 168.06 139.40 C 167.00 139.84 166.50 141.07 166.95 142.13 C 167.39 143.19 168.61 143.69 169.67 143.25 Z M 170.61 142.83 L 171.53 142.45 C 172.58 142.00 173.08 140.79 172.63 139.74 C 172.19 138.69 170.98 138.20 169.92 138.64 L 169.01 139.03 C 167.95 139.47 167.46 140.68 167.91 141.73 C 168.35 142.79 169.56 143.28 170.61 142.83 Z M 171.52 142.43 L 172.45 142.04 C 173.50 141.60 173.98 140.39 173.54 139.35 C 173.10 138.31 171.90 137.82 170.86 138.26 L 169.93 138.66 C 168.89 139.10 168.40 140.30 168.84 141.34 C 169.28 142.38 170.48 142.87 171.52 142.43 Z M 172.44 142.02 L 173.37 141.63 C 174.41 141.20 174.89 140.01 174.46 138.98 C 174.03 137.95 172.84 137.46 171.81 137.89 L 170.88 138.28 C 169.84 138.71 169.36 139.90 169.79 140.93 C 170.22 141.96 171.41 142.45 172.44 142.02 Z M 173.35 141.61 L 174.24 141.25 C 175.27 140.83 175.75 139.66 175.33 138.63 C 174.91 137.61 173.74 137.12 172.72 137.54 L 171.83 137.91 C 170.81 138.33 170.32 139.50 170.74 140.52 C 171.16 141.54 172.33 142.03 173.35 141.61 Z M 174.22 141.23 L 175.08 140.89 C 176.10 140.48 176.59 139.33 176.19 138.31 C 175.78 137.30 174.63 136.80 173.61 137.21 L 172.75 137.56 C 171.73 137.96 171.24 139.11 171.64 140.13 C 172.05 141.14 173.20 141.64 174.22 141.23 Z M 175.05 140.87 L 175.97 140.52 C 176.98 140.13 177.49 139.00 177.10 137.99 C 176.71 136.98 175.58 136.48 174.57 136.87 L 173.65 137.22 C 172.64 137.61 172.13 138.74 172.52 139.75 C 172.91 140.76 174.04 141.26 175.05 140.87 Z M 175.94 140.51 L 176.92 140.14 C 177.93 139.77 178.44 138.66 178.07 137.66 C 177.70 136.66 176.59 136.15 175.58 136.52 L 174.60 136.88 C 173.60 137.25 173.09 138.36 173.46 139.36 C 173.83 140.37 174.94 140.88 175.94 140.51 Z M 176.88 140.14 L 177.81 139.82 C 178.81 139.48 179.34 138.39 178.99 137.39 C 178.65 136.39 177.56 135.86 176.56 136.20 L 175.63 136.52 C 174.63 136.86 174.10 137.95 174.45 138.95 C 174.79 139.95 175.88 140.48 176.88 140.14 Z M 177.71 139.83 L 178.70 139.55 C 179.70 139.26 180.28 138.20 179.99 137.20 C 179.70 136.19 178.65 135.61 177.64 135.90 L 176.66 136.19 C 175.65 136.48 175.07 137.53 175.36 138.54 C 175.65 139.54 176.71 140.12 177.71 139.83 Z M 178.53 139.57 L 179.53 139.37 C 180.54 139.17 181.21 138.18 181.00 137.17 C 180.80 136.15 179.82 135.49 178.80 135.69 L 177.81 135.88 C 176.79 136.08 176.13 137.07 176.33 138.09 C 176.53 139.11 177.52 139.77 178.53 139.57 Z M 179.29 139.37 L 180.31 139.30 C 181.33 139.23 182.10 138.35 182.03 137.33 C 181.96 136.32 181.08 135.55 180.06 135.62 L 179.04 135.68 C 178.02 135.75 177.25 136.64 177.32 137.65 C 177.39 138.67 178.27 139.44 179.29 139.37 Z M 180.11 139.27 L 181.10 139.31 C 182.10 139.35 182.95 138.58 182.99 137.58 C 183.03 136.58 182.26 135.74 181.26 135.69 L 180.26 135.65 C 179.27 135.61 178.42 136.38 178.38 137.38 C 178.34 138.38 179.11 139.23 180.11 139.27 Z M 181.00 139.26 L 181.97 139.37 C 182.94 139.47 183.81 138.76 183.92 137.79 C 184.02 136.81 183.31 135.94 182.34 135.84 L 181.36 135.74 C 180.39 135.64 179.52 136.34 179.42 137.32 C 179.32 138.29 180.02 139.16 181.00 139.26 Z M 181.95 139.34 L 182.09 139.36 C 183.05 139.47 183.92 138.79 184.04 137.83 C 184.15 136.87 183.46 136.00 182.50 135.88 L 182.36 135.87 C 181.40 135.75 180.53 136.44 180.42 137.40 C 180.30 138.36 180.99 139.23 181.95 139.34 Z"
      fill="black"
      fill-rule="nonzero" /><path d="M 153.09 158.59 L 152.27 159.57 C 151.61 160.36 151.71 161.54 152.51 162.21 C 153.30 162.87 154.48 162.76 155.14 161.97 L 155.96 160.99 C 156.62 160.20 156.52 159.02 155.72 158.36 C 154.93 157.69 153.75 157.80 153.09 158.59 Z M 151.78 160.56 L 151.73 161.01 C 151.61 162.07 152.38 163.03 153.45 163.15 C 154.51 163.26 155.47 162.49 155.58 161.43 L 155.63 160.98 C 155.75 159.92 154.98 158.96 153.92 158.84 C 152.85 158.73 151.90 159.50 151.78 160.56 Z M 154.10 163.14 L 154.78 162.98 C 155.84 162.74 156.50 161.68 156.26 160.62 C 156.02 159.56 154.96 158.90 153.90 159.14 L 153.22 159.30 C 152.16 159.54 151.49 160.60 151.74 161.66 C 151.98 162.72 153.04 163.38 154.10 163.14 Z M 155.05 162.90 L 156.13 162.49 C 157.15 162.10 157.66 160.96 157.27 159.94 C 156.88 158.92 155.74 158.42 154.72 158.81 L 153.64 159.22 C 152.62 159.61 152.11 160.75 152.50 161.77 C 152.89 162.79 154.03 163.29 155.05 162.90 Z M 156.17 162.47 L 157.22 162.05 C 158.23 161.64 158.72 160.49 158.31 159.48 C 157.90 158.47 156.75 157.98 155.74 158.39 L 154.69 158.82 C 153.68 159.23 153.19 160.38 153.60 161.39 C 154.01 162.40 155.16 162.88 156.17 162.47 Z M 157.20 162.06 L 158.01 161.74 C 159.02 161.35 159.52 160.20 159.13 159.19 C 158.73 158.18 157.59 157.67 156.58 158.07 L 155.77 158.38 C 154.75 158.78 154.25 159.92 154.64 160.93 C 155.04 161.95 156.18 162.45 157.20 162.06 Z M 157.98 161.75 L 158.86 161.42 C 159.88 161.04 160.39 159.91 160.01 158.89 C 159.63 157.87 158.50 157.35 157.48 157.73 L 156.61 158.06 C 155.59 158.44 155.07 159.57 155.45 160.59 C 155.83 161.61 156.96 162.13 157.98 161.75 Z M 158.83 161.43 L 159.84 161.07 C 160.86 160.70 161.39 159.57 161.03 158.55 C 160.66 157.53 159.53 157.00 158.51 157.37 L 157.50 157.73 C 156.48 158.09 155.95 159.22 156.32 160.24 C 156.69 161.26 157.81 161.79 158.83 161.43 Z M 159.82 161.07 L 160.90 160.69 C 161.93 160.33 162.47 159.21 162.11 158.19 C 161.75 157.16 160.63 156.63 159.60 156.98 L 158.53 157.36 C 157.50 157.72 156.96 158.84 157.32 159.87 C 157.68 160.89 158.80 161.43 159.82 161.07 Z M 160.89 160.69 L 161.76 160.39 C 162.79 160.04 163.33 158.92 162.98 157.90 C 162.62 156.87 161.50 156.33 160.48 156.68 L 159.61 156.98 C 158.59 157.34 158.05 158.46 158.40 159.48 C 158.75 160.50 159.87 161.04 160.89 160.69 Z M 161.76 160.39 L 162.70 160.06 C 163.72 159.71 164.26 158.60 163.91 157.58 C 163.56 156.56 162.44 156.01 161.42 156.36 L 160.49 156.69 C 159.46 157.04 158.92 158.15 159.27 159.17 C 159.62 160.19 160.74 160.74 161.76 160.39 Z M 162.69 160.06 L 163.67 159.73 C 164.69 159.38 165.23 158.27 164.88 157.25 C 164.53 156.23 163.42 155.68 162.40 156.03 L 161.43 156.37 C 160.41 156.72 159.86 157.83 160.21 158.85 C 160.56 159.87 161.67 160.41 162.69 160.06 Z M 163.67 159.72 L 164.66 159.38 C 165.68 159.03 166.22 157.93 165.87 156.91 C 165.53 155.89 164.42 155.35 163.40 155.70 L 162.41 156.04 C 161.39 156.38 160.84 157.49 161.19 158.51 C 161.54 159.53 162.65 160.07 163.67 159.72 Z M 164.66 159.38 L 165.65 159.04 C 166.66 158.69 167.20 157.59 166.85 156.57 C 166.51 155.55 165.40 155.01 164.38 155.36 L 163.40 155.70 C 162.38 156.05 161.84 157.15 162.19 158.17 C 162.54 159.19 163.65 159.73 164.66 159.38 Z M 165.65 159.04 L 166.60 158.71 C 167.61 158.36 168.15 157.25 167.80 156.24 C 167.45 155.23 166.35 154.69 165.33 155.04 L 164.38 155.37 C 163.37 155.72 162.83 156.82 163.18 157.83 C 163.53 158.85 164.63 159.39 165.65 159.04 Z M 166.60 158.69 L 167.70 158.31 C 168.71 157.96 169.24 156.86 168.89 155.86 C 168.54 154.85 167.44 154.32 166.44 154.67 L 165.33 155.06 C 164.33 155.40 163.80 156.50 164.15 157.51 C 164.50 158.51 165.59 159.04 166.60 158.69 Z M 167.70 158.28 L 168.75 157.91 C 169.74 157.56 170.26 156.48 169.91 155.49 C 169.56 154.50 168.48 153.99 167.49 154.33 L 166.44 154.70 C 165.46 155.05 164.94 156.13 165.28 157.12 C 165.63 158.10 166.71 158.62 167.70 158.28 Z M 168.75 157.87 L 169.70 157.53 C 170.67 157.19 171.17 156.12 170.83 155.16 C 170.48 154.19 169.42 153.68 168.45 154.03 L 167.50 154.37 C 166.53 154.71 166.02 155.78 166.37 156.75 C 166.72 157.71 167.78 158.22 168.75 157.87 Z M 169.70 157.50 L 170.55 157.19 C 171.50 156.84 171.99 155.79 171.65 154.85 C 171.30 153.90 170.25 153.41 169.30 153.75 L 168.45 154.06 C 167.50 154.41 167.01 155.46 167.35 156.41 C 167.70 157.35 168.75 157.84 169.70 157.50 Z M 170.55 157.15 L 171.32 156.87 C 172.25 156.52 172.72 155.49 172.37 154.56 C 172.03 153.63 171.00 153.16 170.07 153.50 L 169.30 153.79 C 168.37 154.13 167.90 155.17 168.25 156.10 C 168.59 157.03 169.62 157.50 170.55 157.15 Z M 171.33 156.82 L 172.36 156.43 C 173.26 156.07 173.71 155.06 173.36 154.15 C 173.01 153.25 171.99 152.80 171.09 153.15 L 170.06 153.55 C 169.15 153.90 168.70 154.92 169.05 155.82 C 169.40 156.73 170.42 157.17 171.33 156.82 Z M 172.39 156.36 L 173.30 155.98 C 174.17 155.61 174.57 154.61 174.21 153.74 C 173.84 152.87 172.84 152.46 171.96 152.83 L 171.06 153.21 C 170.18 153.58 169.78 154.58 170.14 155.45 C 170.51 156.32 171.52 156.73 172.39 156.36 Z M 173.35 155.91 L 174.16 155.52 C 174.99 155.12 175.34 154.13 174.94 153.30 C 174.55 152.47 173.55 152.12 172.72 152.51 L 171.91 152.90 C 171.08 153.30 170.73 154.29 171.13 155.12 C 171.53 155.95 172.52 156.30 173.35 155.91 Z M 174.23 155.44 L 175.09 154.97 C 175.88 154.54 176.16 153.55 175.73 152.76 C 175.30 151.97 174.31 151.68 173.52 152.11 L 172.66 152.59 C 171.87 153.02 171.58 154.01 172.01 154.80 C 172.45 155.59 173.44 155.88 174.23 155.44 Z M 175.13 154.91 L 175.99 154.40 C 176.75 153.94 176.99 152.95 176.53 152.19 C 176.07 151.44 175.09 151.19 174.33 151.65 L 173.47 152.17 C 172.71 152.63 172.47 153.62 172.93 154.37 C 173.39 155.13 174.38 155.37 175.13 154.91 Z M 176.00 154.36 L 176.69 153.93 C 177.43 153.46 177.65 152.49 177.19 151.75 C 176.72 151.01 175.74 150.79 175.00 151.25 L 174.31 151.69 C 173.57 152.15 173.35 153.13 173.82 153.87 C 174.29 154.61 175.26 154.83 176.00 154.36 Z"
      fill="black"
      fill-rule="nonzero" /><path d="M 165.60 146.77 L 165.00 147.60 C 164.40 148.44 164.59 149.62 165.43 150.22 C 166.27 150.82 167.45 150.63 168.05 149.79 L 168.65 148.95 C 169.25 148.11 169.06 146.94 168.22 146.33 C 167.37 145.73 166.20 145.92 165.60 146.77 Z M 164.88 147.70 L 164.37 148.55 C 163.82 149.46 164.11 150.64 165.02 151.19 C 165.92 151.73 167.10 151.44 167.65 150.54 L 168.17 149.69 C 168.71 148.78 168.42 147.60 167.52 147.05 C 166.61 146.50 165.43 146.79 164.88 147.70 Z M 164.20 148.82 L 163.85 149.68 C 163.46 150.68 163.94 151.82 164.95 152.22 C 165.95 152.61 167.08 152.13 167.48 151.12 L 167.82 150.27 C 168.22 149.27 167.73 148.13 166.73 147.73 C 165.73 147.33 164.59 147.82 164.20 148.82 Z M 163.74 150.03 L 163.57 150.92 C 163.36 151.98 164.06 153.01 165.13 153.22 C 166.20 153.42 167.23 152.72 167.43 151.65 L 167.60 150.77 C 167.81 149.70 167.11 148.67 166.04 148.47 C 164.97 148.26 163.94 148.96 163.74 150.03 Z M 163.54 151.11 L 163.44 152.15 C 163.34 153.23 164.14 154.19 165.23 154.29 C 166.31 154.39 167.27 153.59 167.37 152.50 L 167.46 151.46 C 167.56 150.38 166.76 149.42 165.68 149.32 C 164.59 149.22 163.63 150.02 163.54 151.11 Z M 163.44 152.18 L 163.36 153.21 C 163.27 154.30 164.09 155.25 165.18 155.33 C 166.26 155.42 167.21 154.60 167.30 153.51 L 167.37 152.48 C 167.46 151.39 166.64 150.44 165.56 150.36 C 164.47 150.27 163.52 151.09 163.44 152.18 Z M 163.36 153.19 L 163.28 154.15 C 163.18 155.24 163.99 156.19 165.07 156.29 C 166.16 156.38 167.12 155.58 167.21 154.49 L 167.30 153.53 C 167.39 152.45 166.58 151.49 165.50 151.40 C 164.41 151.30 163.45 152.11 163.36 153.19 Z M 163.28 154.13 L 163.18 155.15 C 163.08 156.24 163.87 157.21 164.96 157.31 C 166.05 157.41 167.01 156.61 167.11 155.53 L 167.21 154.51 C 167.31 153.42 166.52 152.46 165.43 152.35 C 164.34 152.25 163.38 153.05 163.28 154.13 Z M 163.18 155.14 L 163.08 156.19 C 162.97 157.27 163.76 158.24 164.84 158.35 C 165.93 158.46 166.90 157.67 167.01 156.58 L 167.11 155.54 C 167.22 154.45 166.43 153.48 165.35 153.37 C 164.26 153.26 163.29 154.06 163.18 155.14 Z M 163.08 156.17 L 162.96 157.23 C 162.85 158.31 163.63 159.29 164.72 159.41 C 165.80 159.52 166.78 158.74 166.89 157.65 L 167.01 156.59 C 167.12 155.51 166.34 154.54 165.25 154.42 C 164.17 154.30 163.19 155.09 163.08 156.17 Z M 162.97 157.22 L 162.84 158.32 C 162.72 159.40 163.50 160.38 164.58 160.50 C 165.67 160.62 166.64 159.84 166.77 158.76 L 166.89 157.66 C 167.01 156.58 166.24 155.60 165.15 155.48 C 164.07 155.35 163.09 156.13 162.97 157.22 Z M 162.84 158.31 L 162.72 159.32 C 162.60 160.41 163.37 161.39 164.46 161.51 C 165.54 161.64 166.52 160.87 166.65 159.78 L 166.77 158.77 C 166.89 157.68 166.12 156.70 165.03 156.58 C 163.95 156.45 162.97 157.23 162.84 158.31 Z M 162.72 159.32 L 162.62 160.24 C 162.49 161.32 163.27 162.31 164.35 162.43 C 165.43 162.56 166.41 161.78 166.54 160.70 L 166.65 159.78 C 166.77 158.70 166.00 157.72 164.91 157.59 C 163.83 157.47 162.85 158.24 162.72 159.32 Z M 162.62 160.25 L 162.52 161.20 C 162.39 162.28 163.17 163.25 164.25 163.37 C 165.34 163.49 166.31 162.72 166.43 161.63 L 166.53 160.69 C 166.66 159.61 165.88 158.63 164.80 158.51 C 163.71 158.39 162.74 159.17 162.62 160.25 Z M 162.52 161.22 L 162.42 162.19 C 162.31 163.27 163.10 164.23 164.17 164.34 C 165.25 164.45 166.21 163.67 166.32 162.59 L 166.42 161.62 C 166.53 160.54 165.75 159.58 164.67 159.47 C 163.60 159.36 162.63 160.14 162.52 161.22 Z M 162.44 162.20 L 162.34 163.17 C 162.24 164.24 163.02 165.19 164.09 165.29 C 165.15 165.40 166.11 164.62 166.21 163.55 L 166.31 162.58 C 166.41 161.52 165.63 160.57 164.56 160.46 C 163.50 160.36 162.54 161.14 162.44 162.20 Z M 162.36 163.17 L 162.26 164.12 C 162.15 165.18 162.93 166.13 163.99 166.23 C 165.05 166.34 165.99 165.57 166.10 164.51 L 166.20 163.55 C 166.30 162.49 165.53 161.55 164.47 161.44 C 163.41 161.33 162.47 162.11 162.36 163.17 Z M 162.27 164.12 L 162.17 165.12 C 162.07 166.17 162.83 167.11 163.89 167.22 C 164.94 167.33 165.88 166.56 165.99 165.51 L 166.09 164.51 C 166.19 163.46 165.43 162.52 164.37 162.41 C 163.32 162.30 162.38 163.07 162.27 164.12 Z M 162.18 165.13 L 162.08 166.16 C 161.98 167.21 162.75 168.14 163.80 168.24 C 164.84 168.34 165.77 167.57 165.88 166.53 L 165.97 165.50 C 166.08 164.45 165.31 163.52 164.26 163.42 C 163.21 163.32 162.28 164.09 162.18 165.13 Z M 162.10 166.19 L 162.01 167.20 C 161.93 168.23 162.70 169.15 163.73 169.23 C 164.77 169.32 165.69 168.55 165.77 167.51 L 165.86 166.50 C 165.95 165.47 165.18 164.55 164.14 164.46 C 163.10 164.38 162.19 165.15 162.10 166.19 Z M 162.04 167.23 L 161.97 168.21 C 161.90 169.24 162.68 170.12 163.70 170.19 C 164.72 170.26 165.61 169.49 165.68 168.47 L 165.75 167.48 C 165.82 166.46 165.04 165.57 164.02 165.50 C 163.00 165.43 162.11 166.21 162.04 167.23 Z M 162.01 168.25 L 161.96 169.24 C 161.91 170.25 162.68 171.10 163.69 171.15 C 164.69 171.20 165.55 170.43 165.60 169.42 L 165.65 168.43 C 165.70 167.42 164.92 166.57 163.92 166.52 C 162.91 166.47 162.06 167.24 162.01 168.25 Z M 161.99 169.28 L 161.96 170.27 C 161.93 171.26 162.71 172.08 163.70 172.11 C 164.68 172.14 165.51 171.37 165.54 170.38 L 165.57 169.38 C 165.59 168.40 164.82 167.57 163.83 167.54 C 162.84 167.51 162.02 168.29 161.99 169.28 Z M 162.00 170.30 L 161.98 171.27 C 161.97 172.24 162.74 173.04 163.71 173.05 C 164.68 173.07 165.47 172.29 165.49 171.33 L 165.50 170.35 C 165.51 169.38 164.74 168.59 163.77 168.57 C 162.81 168.56 162.01 169.33 162.00 170.30 Z M 162.02 171.29 L 162.01 172.30 C 162.01 173.25 162.77 174.02 163.72 174.03 C 164.67 174.03 165.44 173.27 165.44 172.32 L 165.45 171.31 C 165.46 170.36 164.69 169.59 163.74 169.59 C 162.80 169.58 162.02 170.34 162.02 171.29 Z M 162.05 172.31 L 162.05 173.34 C 162.05 174.27 162.80 175.02 163.73 175.02 C 164.65 175.02 165.41 174.27 165.41 173.34 L 165.41 172.31 C 165.41 171.39 164.66 170.63 163.73 170.63 C 162.80 170.63 162.05 171.38 162.05 172.31 Z M 162.07 173.34 L 162.07 173.53 C 162.07 174.44 162.81 175.19 163.73 175.19 C 164.64 175.19 165.38 174.44 165.38 173.53 L 165.38 173.34 C 165.38 172.43 164.64 171.68 163.73 171.68 C 162.81 171.68 162.07 172.43 162.07 173.34 Z"
      fill="black"
      fill-rule="nonzero" /><path d="M 152.55 177.97 L 151.29 178.36 C 150.30 178.67 149.74 179.73 150.05 180.73 C 150.36 181.73 151.42 182.29 152.42 181.97 L 153.67 181.58 C 154.67 181.27 155.23 180.21 154.92 179.22 C 154.61 178.22 153.55 177.66 152.55 177.97 Z M 151.23 178.28 L 150.29 178.59 C 149.25 178.93 148.68 180.06 149.02 181.10 C 149.37 182.15 150.49 182.71 151.54 182.37 L 152.48 182.06 C 153.52 181.72 154.09 180.59 153.75 179.55 C 153.40 178.50 152.28 177.93 151.23 178.28 Z M 149.93 178.65 L 149.64 178.80 C 148.63 179.35 148.25 180.61 148.80 181.62 C 149.34 182.63 150.60 183.01 151.61 182.46 L 151.90 182.31 C 152.91 181.77 153.29 180.51 152.75 179.49 C 152.20 178.48 150.94 178.10 149.93 178.65 Z M 151.04 182.72 L 152.02 182.53 C 153.18 182.30 153.93 181.18 153.70 180.02 C 153.47 178.87 152.35 178.12 151.20 178.35 L 150.21 178.55 C 149.06 178.77 148.31 179.89 148.54 181.05 C 148.77 182.20 149.89 182.95 151.04 182.72 Z M 152.21 182.50 L 153.31 182.18 C 154.45 181.85 155.10 180.65 154.77 179.52 C 154.44 178.38 153.25 177.72 152.11 178.06 L 151.01 178.38 C 149.87 178.71 149.22 179.90 149.55 181.04 C 149.88 182.18 151.07 182.83 152.21 182.50 Z M 153.39 182.16 L 154.36 181.83 C 155.49 181.46 156.10 180.24 155.72 179.11 C 155.35 177.98 154.13 177.37 153.00 177.75 L 152.03 178.08 C 150.90 178.45 150.29 179.67 150.67 180.80 C 151.05 181.93 152.27 182.54 153.39 182.16 Z M 154.39 181.83 L 155.34 181.50 C 156.46 181.11 157.06 179.88 156.66 178.76 C 156.27 177.63 155.05 177.04 153.92 177.43 L 152.98 177.76 C 151.85 178.15 151.26 179.38 151.65 180.50 C 152.04 181.62 153.27 182.22 154.39 181.83 Z M 155.32 181.50 L 156.32 181.17 C 157.44 180.78 158.05 179.56 157.66 178.43 C 157.28 177.30 156.06 176.70 154.93 177.08 L 153.94 177.42 C 152.81 177.81 152.21 179.03 152.59 180.16 C 152.97 181.28 154.20 181.89 155.32 181.50 Z M 156.29 181.18 L 157.22 180.88 C 158.35 180.51 158.97 179.30 158.60 178.16 C 158.24 177.03 157.02 176.41 155.89 176.77 L 154.96 177.07 C 153.83 177.44 153.21 178.65 153.57 179.79 C 153.94 180.92 155.15 181.54 156.29 181.18 Z M 157.19 180.88 L 158.10 180.60 C 159.23 180.25 159.87 179.05 159.52 177.91 C 159.17 176.77 157.96 176.13 156.83 176.49 L 155.92 176.77 C 154.78 177.12 154.14 178.32 154.49 179.46 C 154.84 180.60 156.05 181.24 157.19 180.88 Z M 158.08 180.61 L 159.03 180.32 C 160.17 179.98 160.81 178.78 160.47 177.64 C 160.13 176.50 158.93 175.85 157.79 176.20 L 156.84 176.48 C 155.70 176.82 155.06 178.02 155.40 179.16 C 155.74 180.30 156.94 180.95 158.08 180.61 Z M 159.02 180.33 L 160.00 180.03 C 161.14 179.69 161.79 178.49 161.45 177.35 C 161.11 176.21 159.91 175.56 158.77 175.90 L 157.79 176.20 C 156.65 176.54 156.00 177.74 156.34 178.88 C 156.68 180.02 157.88 180.67 159.02 180.33 Z M 160.00 180.03 L 160.93 179.76 C 162.07 179.42 162.72 178.22 162.38 177.08 C 162.04 175.94 160.84 175.29 159.70 175.63 L 158.77 175.90 C 157.63 176.24 156.99 177.44 157.33 178.58 C 157.66 179.72 158.86 180.37 160.00 180.03 Z M 160.91 179.76 L 161.88 179.48 C 163.02 179.15 163.68 177.96 163.35 176.82 C 163.02 175.67 161.83 175.02 160.69 175.35 L 159.72 175.62 C 158.58 175.95 157.92 177.15 158.25 178.29 C 158.58 179.43 159.77 180.09 160.91 179.76 Z M 161.84 179.49 L 162.83 179.22 C 163.97 178.91 164.65 177.73 164.34 176.59 C 164.03 175.44 162.86 174.76 161.71 175.07 L 160.73 175.34 C 159.58 175.65 158.90 176.83 159.21 177.97 C 159.52 179.12 160.70 179.80 161.84 179.49 Z M 162.79 179.23 L 163.76 178.98 C 164.91 178.70 165.61 177.53 165.32 176.38 C 165.03 175.23 163.87 174.53 162.72 174.82 L 161.75 175.07 C 160.60 175.36 159.90 176.52 160.19 177.67 C 160.48 178.82 161.64 179.52 162.79 179.23 Z M 163.75 178.98 L 164.73 178.74 C 165.87 178.46 166.58 177.30 166.30 176.16 C 166.02 175.01 164.86 174.30 163.71 174.59 L 162.73 174.82 C 161.58 175.11 160.88 176.26 161.16 177.41 C 161.44 178.56 162.60 179.26 163.75 178.98 Z M 164.73 178.74 L 165.72 178.49 C 166.86 178.21 167.56 177.05 167.27 175.91 C 166.99 174.76 165.83 174.06 164.69 174.35 L 163.70 174.59 C 162.56 174.88 161.86 176.03 162.15 177.18 C 162.43 178.32 163.59 179.02 164.73 178.74 Z M 165.72 178.49 L 166.69 178.24 C 167.84 177.95 168.53 176.79 168.24 175.65 C 167.95 174.51 166.79 173.82 165.65 174.11 L 164.68 174.36 C 163.54 174.64 162.85 175.80 163.14 176.94 C 163.42 178.08 164.58 178.77 165.72 178.49 Z M 166.68 178.24 L 167.64 178.00 C 168.78 177.72 169.47 176.56 169.19 175.42 C 168.91 174.29 167.75 173.59 166.62 173.87 L 165.66 174.11 C 164.52 174.40 163.83 175.55 164.11 176.69 C 164.39 177.83 165.55 178.52 166.68 178.24 Z M 167.61 178.00 L 168.58 177.77 C 169.72 177.50 170.43 176.36 170.16 175.22 C 169.89 174.08 168.75 173.38 167.61 173.65 L 166.64 173.88 C 165.50 174.14 164.80 175.28 165.07 176.42 C 165.33 177.56 166.48 178.27 167.61 178.00 Z M 168.56 177.77 L 169.53 177.55 C 170.67 177.29 171.39 176.16 171.13 175.03 C 170.88 173.89 169.75 173.17 168.61 173.43 L 167.63 173.65 C 166.50 173.90 165.78 175.03 166.04 176.17 C 166.29 177.31 167.42 178.02 168.56 177.77 Z M 169.52 177.54 L 170.50 177.33 C 171.64 177.08 172.35 175.96 172.11 174.83 C 171.86 173.69 170.74 172.97 169.60 173.22 L 168.62 173.43 C 167.49 173.68 166.77 174.80 167.02 175.94 C 167.26 177.07 168.38 177.79 169.52 177.54 Z M 170.49 177.32 L 171.47 177.11 C 172.60 176.87 173.32 175.76 173.08 174.63 C 172.84 173.50 171.72 172.77 170.59 173.02 L 169.61 173.23 C 168.48 173.47 167.76 174.58 168.00 175.71 C 168.25 176.84 169.36 177.57 170.49 177.32 Z M 171.45 177.10 L 172.43 176.90 C 173.56 176.67 174.28 175.57 174.05 174.44 C 173.82 173.31 172.71 172.59 171.59 172.82 L 170.61 173.03 C 169.48 173.26 168.76 174.36 168.99 175.49 C 169.22 176.61 170.33 177.34 171.45 177.10 Z M 172.41 176.89 L 173.39 176.70 C 174.52 176.48 175.25 175.39 175.03 174.27 C 174.81 173.15 173.72 172.42 172.60 172.64 L 171.61 172.83 C 170.49 173.05 169.76 174.14 169.98 175.26 C 170.20 176.38 171.29 177.11 172.41 176.89 Z M 173.37 176.69 L 174.35 176.51 C 175.47 176.30 176.21 175.23 176.00 174.12 C 175.80 173.00 174.73 172.26 173.61 172.47 L 172.62 172.65 C 171.51 172.85 170.77 173.92 170.97 175.04 C 171.18 176.16 172.25 176.90 173.37 176.69 Z M 174.33 176.50 L 175.30 176.33 C 176.41 176.14 177.16 175.09 176.97 173.98 C 176.78 172.87 175.72 172.12 174.61 172.31 L 173.64 172.48 C 172.53 172.67 171.78 173.72 171.97 174.83 C 172.16 175.94 173.22 176.69 174.33 176.50 Z M 175.28 176.32 L 176.17 176.17 C 177.28 175.99 178.03 174.96 177.85 173.85 C 177.67 172.75 176.63 172.00 175.53 172.18 L 174.64 172.32 C 173.54 172.50 172.79 173.54 172.96 174.64 C 173.14 175.74 174.18 176.49 175.28 176.32 Z M 176.16 176.16 L 177.12 176.01 C 178.21 175.84 178.96 174.82 178.79 173.72 C 178.63 172.63 177.60 171.88 176.51 172.05 L 175.55 172.20 C 174.46 172.37 173.71 173.39 173.87 174.48 C 174.04 175.57 175.06 176.32 176.16 176.16 Z M 177.11 175.99 L 178.21 175.82 C 179.30 175.66 180.04 174.65 179.88 173.57 C 179.72 172.49 178.71 171.74 177.63 171.90 L 176.52 172.07 C 175.44 172.23 174.69 173.24 174.85 174.32 C 175.02 175.40 176.02 176.15 177.11 175.99 Z M 178.21 175.80 L 179.15 175.67 C 180.22 175.51 180.96 174.51 180.80 173.44 C 180.65 172.37 179.65 171.63 178.58 171.78 L 177.64 171.92 C 176.56 172.08 175.82 173.08 175.98 174.15 C 176.14 175.22 177.13 175.96 178.21 175.80 Z M 179.13 175.65 L 180.14 175.50 C 181.20 175.35 181.94 174.37 181.79 173.31 C 181.64 172.25 180.66 171.51 179.60 171.66 L 178.59 171.80 C 177.53 171.95 176.79 172.93 176.94 173.99 C 177.09 175.06 178.07 175.79 179.13 175.65 Z M 180.12 175.48 L 181.14 175.35 C 182.19 175.22 182.94 174.26 182.80 173.21 C 182.67 172.16 181.70 171.41 180.65 171.55 L 179.63 171.68 C 178.58 171.82 177.83 172.78 177.97 173.83 C 178.11 174.88 179.07 175.62 180.12 175.48 Z M 181.10 175.33 L 182.10 175.23 C 183.14 175.11 183.89 174.18 183.78 173.14 C 183.66 172.09 182.73 171.34 181.69 171.46 L 180.69 171.57 C 179.65 171.68 178.90 172.62 179.01 173.66 C 179.13 174.70 180.06 175.45 181.10 175.33 Z M 182.04 175.20 L 183.14 175.11 C 184.16 175.03 184.93 174.13 184.84 173.11 C 184.76 172.08 183.87 171.32 182.84 171.40 L 181.75 171.49 C 180.72 171.57 179.96 172.47 180.04 173.49 C 180.12 174.51 181.02 175.28 182.04 175.20 Z M 183.08 175.06 L 184.07 175.02 C 185.07 174.97 185.84 174.12 185.80 173.12 C 185.75 172.12 184.90 171.35 183.90 171.40 L 182.90 171.45 C 181.91 171.49 181.13 172.34 181.18 173.34 C 181.23 174.34 182.08 175.11 183.08 175.06 Z M 184.03 174.97 L 184.96 174.95 C 185.93 174.92 186.70 174.12 186.68 173.14 C 186.65 172.17 185.84 171.40 184.87 171.42 L 183.95 171.45 C 182.97 171.47 182.20 172.28 182.23 173.25 C 182.25 174.22 183.06 174.99 184.03 174.97 Z M 184.93 174.94 L 185.92 174.93 C 186.89 174.92 187.67 174.12 187.66 173.15 C 187.65 172.19 186.85 171.41 185.89 171.42 L 184.89 171.43 C 183.93 171.44 183.15 172.24 183.16 173.20 C 183.17 174.17 183.97 174.95 184.93 174.94 Z M 185.91 174.98 L 186.91 174.98 C 187.91 174.97 188.72 174.16 188.71 173.16 C 188.71 172.16 187.89 171.36 186.90 171.36 L 185.90 171.37 C 184.90 171.37 184.09 172.18 184.10 173.18 C 184.10 174.18 184.92 174.98 185.91 174.98 Z M 186.91 175.04 L 187.89 175.04 C 188.92 175.04 189.76 174.20 189.76 173.17 C 189.76 172.13 188.92 171.29 187.89 171.29 L 186.90 171.29 C 185.87 171.30 185.03 172.14 185.03 173.17 C 185.03 174.21 185.87 175.04 186.91 175.04 Z M 187.89 175.08 L 187.98 175.08 C 189.04 175.08 189.90 174.22 189.90 173.17 C 189.90 172.11 189.04 171.26 187.98 171.26 L 187.89 171.26 C 186.83 171.26 185.97 172.11 185.97 173.17 C 185.97 174.22 186.83 175.08 187.89 175.08 Z"
      fill="black"
      fill-rule="nonzero" /></svg>