<svg xmlns="http://www.w3.org/2000/svg" width="300" height="300" viewBox="0 0 300 300">
<path d="M 131.36 121.43 L 132.23 120.95 C 133.12 120.46 133.44 119.33 132.95 118.44 C 132.46 117.55 131.33 117.23 130.44 117.72 L 129.57 118.21 C 128.68 118.70 128.36 119.82 128.85 120.72 C 129.34 121.61 130.47 121.93 131.36 121.43 Z M 132.24 120.95 L 133.11 120.46 C 134.00 119.96 134.32 118.84 133.82 117.95 C 133.32 117.06 132.20 116.74 131.31 117.24 L 130.44 117.73 C 129.55 118.22 129.23 119.35 129.73 120.24 C 130.22 121.13 131.35 121.44 132.24 120.95 Z M 133.12 120.45 L 133.99 119.96 C 134.87 119.46 135.18 118.33 134.68 117.45 C 134.18 116.56 133.05 116.25 132.16 116.75 L 131.30 117.25 C 130.41 117.75 130.10 118.88 130.60 119.76 C 131.11 120.65 132.23 120.96 133.12 120.45 Z M 134.00 119.95 L 134.81 119.48 C 135.69 118.97 135.99 117.84 135.48 116.96 C 134.96 116.08 133.83 115.78 132.95 116.29 L 132.15 116.76 C 131.27 117.28 130.97 118.41 131.48 119.29 C 131.99 120.17 133.12 120.46 134.00 119.95 Z M 134.83 119.47 L 135.68 118.96 C 136.55 118.43 136.83 117.30 136.30 116.43 C 135.77 115.55 134.64 115.27 133.77 115.80 L 132.93 116.31 C 132.06 116.84 131.78 117.97 132.30 118.84 C 132.83 119.71 133.96 119.99 134.83 119.47 Z M 135.70 118.94 L 136.61 118.37 C 137.47 117.83 137.73 116.69 137.19 115.83 C 136.65 114.96 135.51 114.71 134.65 115.25 L 133.74 115.82 C 132.88 116.36 132.62 117.50 133.16 118.36 C 133.70 119.22 134.84 119.48 135.70 118.94 Z M 136.64 118.35 L 137.48 117.80 C 138.33 117.25 138.57 116.11 138.01 115.25 C 137.45 114.40 136.31 114.16 135.46 114.72 L 134.62 115.27 C 133.77 115.82 133.53 116.96 134.09 117.82 C 134.64 118.67 135.79 118.91 136.64 118.35 Z M 137.49 117.80 L 138.34 117.23 C 139.19 116.67 139.42 115.52 138.86 114.68 C 138.29 113.83 137.15 113.60 136.30 114.16 L 135.45 114.73 C 134.60 115.29 134.37 116.43 134.93 117.28 C 135.50 118.13 136.64 118.36 137.49 117.80 Z M 138.34 117.23 L 139.19 116.66 C 140.04 116.10 140.27 114.96 139.71 114.11 C 139.15 113.26 138.00 113.03 137.15 113.59 L 136.30 114.16 C 135.45 114.72 135.22 115.87 135.79 116.71 C 136.35 117.56 137.49 117.79 138.34 117.23 Z M 139.18 116.67 L 139.99 116.14 C 140.84 115.59 141.08 114.45 140.53 113.59 C 139.97 112.74 138.83 112.50 137.98 113.06 L 137.17 113.59 C 136.31 114.14 136.07 115.28 136.63 116.13 C 137.19 116.99 138.33 117.23 139.18 116.67 Z M 139.94 116.18 L 141.04 115.52 C 141.91 114.99 142.20 113.86 141.67 112.99 C 141.15 112.11 140.02 111.83 139.14 112.35 L 138.04 113.02 C 137.16 113.54 136.88 114.68 137.40 115.55 C 137.93 116.42 139.06 116.71 139.94 116.18 Z M 140.75 115.67 L 141.58 115.35 C 142.54 114.99 143.02 113.92 142.66 112.97 C 142.30 112.01 141.23 111.53 140.27 111.89 L 139.44 112.20 C 138.48 112.57 138.00 113.63 138.36 114.59 C 138.72 115.54 139.79 116.03 140.75 115.67 Z M 140.04 115.25 L 140.54 115.52 C 141.44 116.02 142.57 115.68 143.06 114.78 C 143.55 113.88 143.22 112.76 142.32 112.27 L 141.81 111.99 C 140.91 111.50 139.79 111.83 139.30 112.73 C 138.81 113.63 139.14 114.76 140.04 115.25 Z M 139.57 113.98 L 139.62 114.96 C 139.66 115.99 140.53 116.78 141.56 116.74 C 142.58 116.69 143.38 115.83 143.33 114.80 L 143.29 113.81 C 143.24 112.79 142.37 111.99 141.35 112.04 C 140.32 112.08 139.53 112.95 139.57 113.98 Z M 139.67 114.43 L 139.42 115.43 C 139.16 116.43 139.77 117.44 140.77 117.69 C 141.76 117.94 142.78 117.34 143.03 116.34 L 143.28 115.34 C 143.53 114.34 142.93 113.33 141.93 113.08 C 140.93 112.82 139.92 113.43 139.67 114.43 Z M 139.49 115.19 L 139.17 116.00 C 138.78 116.95 139.24 118.04 140.20 118.42 C 141.16 118.81 142.24 118.35 142.63 117.39 L 142.95 116.58 C 143.34 115.63 142.87 114.54 141.92 114.16 C 140.96 113.77 139.88 114.24 139.49 115.19 Z M 139.22 115.87 L 138.77 116.78 C 138.31 117.71 138.69 118.83 139.61 119.29 C 140.54 119.75 141.66 119.37 142.12 118.44 L 142.57 117.52 C 143.03 116.60 142.65 115.48 141.72 115.02 C 140.80 114.56 139.68 114.94 139.22 115.87 Z M 138.80 116.72 L 138.23 117.76 C 137.73 118.67 138.06 119.80 138.97 120.30 C 139.88 120.80 141.01 120.46 141.51 119.56 L 142.08 118.51 C 142.58 117.61 142.25 116.47 141.34 115.97 C 140.43 115.48 139.30 115.81 138.80 116.72 Z M 138.24 117.73 L 137.77 118.55 C 137.26 119.45 137.58 120.60 138.48 121.11 C 139.38 121.62 140.52 121.31 141.03 120.41 L 141.50 119.58 C 142.01 118.68 141.70 117.54 140.80 117.03 C 139.89 116.52 138.75 116.83 138.24 117.73 Z M 137.77 118.54 L 137.27 119.42 C 136.75 120.33 137.06 121.47 137.96 121.99 C 138.86 122.51 140.01 122.20 140.53 121.30 L 141.03 120.42 C 141.55 119.51 141.24 118.37 140.34 117.85 C 139.44 117.33 138.29 117.64 137.77 118.54 Z M 137.26 119.42 L 136.74 120.33 C 136.22 121.23 136.53 122.38 137.44 122.90 C 138.34 123.42 139.49 123.11 140.01 122.21 L 140.53 121.30 C 141.05 120.40 140.74 119.24 139.84 118.73 C 138.93 118.21 137.78 118.52 137.26 119.42 Z M 136.73 120.33 L 136.22 121.23 C 135.70 122.14 136.02 123.29 136.93 123.81 C 137.84 124.32 138.99 124.01 139.51 123.10 L 140.02 122.20 C 140.54 121.30 140.22 120.14 139.31 119.62 C 138.41 119.11 137.25 119.42 136.73 120.33 Z M 136.21 121.24 L 135.73 122.09 C 135.22 123.01 135.55 124.16 136.46 124.67 C 137.37 125.18 138.53 124.86 139.04 123.94 L 139.52 123.09 C 140.03 122.18 139.70 121.02 138.79 120.51 C 137.88 120.00 136.72 120.32 136.21 121.24 Z M 135.71 122.12 L 135.15 123.17 C 134.65 124.09 135.00 125.24 135.93 125.74 C 136.85 126.24 138.00 125.89 138.50 124.97 L 139.06 123.92 C 139.56 122.99 139.21 121.84 138.29 121.34 C 137.36 120.85 136.21 121.19 135.71 122.12 Z M 135.12 123.22 L 134.66 124.16 C 134.19 125.10 134.58 126.24 135.52 126.71 C 136.46 127.17 137.60 126.79 138.06 125.85 L 138.53 124.91 C 138.99 123.97 138.61 122.83 137.67 122.36 C 136.73 121.90 135.59 122.28 135.12 123.22 Z M 134.62 124.24 L 134.25 125.08 C 133.83 126.04 134.28 127.16 135.24 127.58 C 136.20 128.00 137.32 127.56 137.74 126.59 L 138.10 125.76 C 138.52 124.80 138.08 123.68 137.12 123.26 C 136.16 122.84 135.03 123.28 134.62 124.24 Z M 134.20 125.21 L 133.90 126.07 C 133.56 127.06 134.08 128.15 135.07 128.49 C 136.07 128.84 137.15 128.31 137.50 127.32 L 137.80 126.46 C 138.14 125.47 137.62 124.38 136.62 124.04 C 135.63 123.69 134.54 124.22 134.20 125.21 Z M 133.82 126.36 L 133.63 127.45 C 133.45 128.49 134.14 129.47 135.18 129.66 C 136.21 129.84 137.20 129.15 137.38 128.11 L 137.57 127.03 C 137.76 125.99 137.07 125.00 136.03 124.82 C 134.99 124.64 134.01 125.33 133.82 126.36 Z M 133.66 128.24 L 133.86 129.03 C 134.11 130.06 135.14 130.68 136.16 130.43 C 137.18 130.17 137.81 129.14 137.55 128.12 L 137.36 127.32 C 137.10 126.30 136.07 125.68 135.05 125.93 C 134.03 126.18 133.41 127.22 133.66 128.24 Z M 134.68 130.19 L 135.42 130.66 C 136.31 131.23 137.49 130.96 138.06 130.07 C 138.62 129.18 138.36 128.00 137.47 127.43 L 136.73 126.96 C 135.84 126.40 134.66 126.66 134.09 127.55 C 133.52 128.44 133.79 129.63 134.68 130.19 Z M 136.13 130.95 L 137.20 131.12 C 138.25 131.29 139.24 130.58 139.41 129.53 C 139.58 128.49 138.87 127.50 137.82 127.32 L 136.76 127.15 C 135.71 126.98 134.72 127.69 134.55 128.74 C 134.37 129.78 135.08 130.77 136.13 130.95 Z M 137.40 131.16 L 138.40 131.21 C 139.47 131.27 140.39 130.45 140.45 129.39 C 140.50 128.32 139.69 127.40 138.62 127.34 L 137.62 127.29 C 136.55 127.23 135.64 128.05 135.58 129.12 C 135.52 130.18 136.34 131.10 137.40 131.16 Z M 138.44 131.23 L 139.44 131.27 C 140.51 131.31 141.42 130.47 141.46 129.39 C 141.50 128.31 140.66 127.41 139.58 127.37 L 138.58 127.33 C 137.51 127.29 136.60 128.13 136.56 129.21 C 136.52 130.28 137.36 131.19 138.44 131.23 Z M 139.37 131.28 L 140.38 131.35 C 141.46 131.43 142.40 130.61 142.48 129.53 C 142.56 128.45 141.75 127.51 140.66 127.43 L 139.65 127.36 C 138.57 127.28 137.63 128.09 137.55 129.17 C 137.47 130.26 138.29 131.20 139.37 131.28 Z M 140.21 131.34 L 141.20 131.50 C 142.28 131.67 143.30 130.94 143.47 129.86 C 143.64 128.78 142.91 127.76 141.83 127.59 L 140.83 127.43 C 139.75 127.26 138.74 128.00 138.57 129.08 C 138.39 130.16 139.13 131.17 140.21 131.34 Z M 140.91 131.45 L 141.84 131.75 C 142.89 132.08 144.02 131.51 144.35 130.46 C 144.69 129.41 144.11 128.28 143.06 127.95 L 142.12 127.65 C 141.07 127.31 139.95 127.89 139.61 128.94 C 139.28 129.99 139.86 131.11 140.91 131.45 Z M 141.44 131.59 L 142.30 132.08 C 143.26 132.64 144.49 132.31 145.05 131.35 C 145.61 130.39 145.28 129.16 144.31 128.60 L 143.46 128.10 C 142.50 127.55 141.26 127.88 140.71 128.84 C 140.15 129.80 140.48 131.03 141.44 131.59 Z M 141.91 131.82 L 142.63 132.50 C 143.45 133.27 144.74 133.23 145.51 132.41 C 146.27 131.59 146.23 130.31 145.42 129.54 L 144.70 128.86 C 143.88 128.09 142.60 128.13 141.83 128.95 C 141.06 129.77 141.10 131.05 141.91 131.82 Z M 142.35 132.19 L 142.89 132.96 C 143.54 133.89 144.81 134.11 145.74 133.47 C 146.66 132.82 146.89 131.54 146.24 130.62 L 145.70 129.85 C 145.06 128.92 143.78 128.69 142.85 129.34 C 141.93 129.99 141.70 131.26 142.35 132.19 Z M 142.69 132.65 L 143.13 133.59 C 143.60 134.63 144.83 135.08 145.86 134.60 C 146.89 134.12 147.35 132.90 146.87 131.87 L 146.44 130.93 C 145.96 129.89 144.74 129.44 143.70 129.92 C 142.67 130.39 142.22 131.62 142.69 132.65 Z M 143.01 133.32 L 143.29 134.25 C 143.61 135.35 144.77 135.98 145.86 135.66 C 146.96 135.33 147.59 134.18 147.26 133.08 L 146.99 132.14 C 146.66 131.04 145.51 130.42 144.41 130.74 C 143.31 131.07 142.69 132.22 143.01 133.32 Z M 143.22 134.06 L 143.41 135.01 C 143.62 136.15 144.72 136.89 145.85 136.67 C 146.98 136.46 147.73 135.36 147.51 134.23 L 147.33 133.28 C 147.11 132.14 146.02 131.40 144.88 131.62 C 143.75 131.83 143.01 132.93 143.22 134.06 Z M 143.37 134.87 L 143.50 135.91 C 143.63 137.06 144.68 137.88 145.84 137.74 C 146.99 137.60 147.81 136.55 147.67 135.40 L 147.55 134.37 C 147.41 133.22 146.36 132.40 145.21 132.53 C 144.05 132.67 143.23 133.72 143.37 134.87 Z M 143.47 135.80 L 143.54 136.83 C 143.63 138.00 144.64 138.88 145.80 138.79 C 146.97 138.71 147.85 137.70 147.77 136.53 L 147.69 135.51 C 147.61 134.34 146.60 133.46 145.43 133.54 C 144.27 133.62 143.39 134.64 143.47 135.80 Z M 143.53 136.74 L 143.55 137.72 C 143.59 138.89 144.56 139.82 145.74 139.79 C 146.91 139.76 147.84 138.78 147.81 137.61 L 147.78 136.63 C 147.75 135.45 146.77 134.52 145.60 134.56 C 144.42 134.59 143.50 135.57 143.53 136.74 Z M 143.54 137.61 L 143.52 138.61 C 143.49 139.79 144.42 140.77 145.60 140.80 C 146.78 140.83 147.76 139.90 147.79 138.72 L 147.82 137.72 C 147.85 136.53 146.91 135.55 145.73 135.53 C 144.55 135.50 143.57 136.43 143.54 137.61 Z M 143.52 138.48 L 143.43 139.50 C 143.33 140.68 144.20 141.72 145.38 141.82 C 146.56 141.93 147.61 141.05 147.71 139.87 L 147.80 138.85 C 147.90 137.67 147.02 136.63 145.84 136.53 C 144.66 136.42 143.62 137.30 143.52 138.48 Z M 143.44 139.35 L 143.27 140.38 C 143.09 141.56 143.89 142.66 145.07 142.85 C 146.24 143.04 147.35 142.23 147.53 141.06 L 147.70 140.02 C 147.88 138.85 147.08 137.74 145.91 137.55 C 144.73 137.37 143.63 138.17 143.44 139.35 Z M 143.29 140.25 L 143.07 141.27 C 142.80 142.43 143.54 143.59 144.70 143.85 C 145.87 144.11 147.02 143.38 147.28 142.22 L 147.51 141.19 C 147.77 140.03 147.04 138.87 145.88 138.61 C 144.71 138.35 143.56 139.08 143.29 140.25 Z M 143.09 141.17 L 142.82 142.13 C 142.50 143.29 143.18 144.48 144.33 144.80 C 145.49 145.11 146.68 144.44 147.00 143.28 L 147.26 142.32 C 147.58 141.16 146.90 139.97 145.75 139.65 C 144.60 139.34 143.40 140.01 143.09 141.17 Z M 142.84 142.06 L 142.56 142.93 C 142.20 144.07 142.84 145.29 143.98 145.65 C 145.13 146.01 146.35 145.38 146.71 144.23 L 146.98 143.36 C 147.34 142.22 146.70 141.00 145.56 140.64 C 144.42 140.28 143.20 140.91 142.84 142.06 Z M 142.59 142.85 L 142.23 143.84 C 141.83 144.97 142.41 146.22 143.55 146.62 C 144.68 147.03 145.92 146.44 146.33 145.31 L 146.68 144.31 C 147.09 143.18 146.50 141.94 145.37 141.53 C 144.24 141.13 142.99 141.72 142.59 142.85 Z M 142.28 143.70 L 141.90 144.57 C 141.41 145.67 141.91 146.96 143.02 147.44 C 144.12 147.93 145.40 147.43 145.89 146.33 L 146.27 145.45 C 146.76 144.35 146.26 143.06 145.16 142.58 C 144.05 142.10 142.77 142.60 142.28 143.70 Z M 141.98 144.40 L 141.51 145.25 C 140.94 146.31 141.33 147.64 142.38 148.22 C 143.44 148.79 144.77 148.40 145.34 147.35 L 145.81 146.50 C 146.39 145.44 146.00 144.11 144.94 143.53 C 143.88 142.96 142.56 143.35 141.98 144.40 Z M 141.59 145.13 L 141.05 145.96 C 140.40 146.98 140.70 148.33 141.72 148.98 C 142.74 149.63 144.09 149.33 144.74 148.31 L 145.27 147.47 C 145.92 146.46 145.62 145.11 144.60 144.46 C 143.59 143.81 142.24 144.11 141.59 145.13 Z M 141.12 145.86 L 140.52 146.70 C 139.82 147.68 140.04 149.04 141.02 149.75 C 142.00 150.45 143.37 150.23 144.07 149.25 L 144.67 148.41 C 145.37 147.43 145.15 146.07 144.17 145.36 C 143.19 144.66 141.82 144.88 141.12 145.86 Z M 140.60 146.59 L 139.95 147.39 C 139.19 148.33 139.34 149.71 140.28 150.47 C 141.22 151.23 142.59 151.08 143.35 150.14 L 144.00 149.35 C 144.76 148.41 144.61 147.03 143.67 146.27 C 142.73 145.51 141.36 145.66 140.60 146.59 Z M 140.07 147.25 L 139.36 148.00 C 138.52 148.87 138.56 150.26 139.43 151.09 C 140.30 151.93 141.69 151.90 142.52 151.02 L 143.24 150.28 C 144.07 149.40 144.04 148.02 143.17 147.18 C 142.29 146.35 140.91 146.38 140.07 147.25 Z M 139.55 147.83 L 138.81 148.44 C 137.88 149.21 137.74 150.59 138.52 151.52 C 139.29 152.45 140.67 152.58 141.60 151.81 L 142.34 151.20 C 143.27 150.43 143.40 149.05 142.63 148.12 C 141.86 147.19 140.48 147.06 139.55 147.83 Z M 139.08 148.25 L 138.21 148.77 C 137.17 149.39 136.84 150.73 137.46 151.77 C 138.08 152.80 139.42 153.14 140.46 152.52 L 141.32 152.00 C 142.36 151.38 142.70 150.04 142.08 149.00 C 141.46 147.97 140.11 147.63 139.08 148.25 Z M 138.68 148.56 L 137.74 148.86 C 136.59 149.22 135.95 150.44 136.30 151.59 C 136.66 152.74 137.88 153.38 139.03 153.02 L 139.98 152.73 C 141.13 152.37 141.77 151.15 141.41 150.00 C 141.06 148.85 139.83 148.21 138.68 148.56 Z M 138.60 148.78 L 137.67 148.69 C 136.48 148.57 135.42 149.44 135.30 150.63 C 135.17 151.82 136.04 152.88 137.23 153.00 L 138.17 153.10 C 139.36 153.22 140.42 152.35 140.54 151.16 C 140.66 149.97 139.79 148.90 138.60 148.78 Z M 138.54 149.01 L 137.70 148.51 C 136.68 147.90 135.37 148.23 134.77 149.25 C 134.17 150.26 134.50 151.57 135.51 152.17 L 136.36 152.68 C 137.37 153.28 138.68 152.95 139.28 151.94 C 139.89 150.93 139.56 149.62 138.54 149.01 Z M 138.17 148.97 L 137.50 148.20 C 136.74 147.33 135.42 147.25 134.56 148.01 C 133.69 148.77 133.61 150.08 134.36 150.95 L 135.03 151.71 C 135.79 152.58 137.11 152.67 137.98 151.91 C 138.84 151.15 138.93 149.83 138.17 148.97 Z M 137.72 148.69 L 137.29 147.82 C 136.80 146.83 135.60 146.43 134.61 146.92 C 133.63 147.41 133.22 148.61 133.71 149.59 L 134.15 150.46 C 134.64 151.45 135.83 151.85 136.82 151.36 C 137.81 150.87 138.21 149.67 137.72 148.69 Z M 137.30 148.21 L 137.04 147.24 C 136.76 146.24 135.74 145.66 134.74 145.93 C 133.75 146.20 133.16 147.22 133.43 148.22 L 133.70 149.20 C 133.97 150.19 135.00 150.78 135.99 150.51 C 136.99 150.24 137.57 149.21 137.30 148.21 Z M 136.98 147.46 L 136.83 146.49 C 136.68 145.53 135.78 144.87 134.81 145.02 C 133.85 145.17 133.19 146.07 133.34 147.03 L 133.49 148.00 C 133.64 148.96 134.54 149.63 135.50 149.48 C 136.47 149.33 137.13 148.42 136.98 147.46 Z M 136.78 146.61 L 136.69 145.61 C 136.61 144.68 135.78 143.99 134.84 144.07 C 133.90 144.16 133.21 144.98 133.30 145.92 L 133.39 146.92 C 133.47 147.85 134.30 148.54 135.24 148.46 C 136.17 148.37 136.87 147.55 136.78 146.61 Z M 136.64 145.69 L 136.59 144.65 C 136.55 143.74 135.77 143.04 134.87 143.09 C 133.96 143.13 133.25 143.90 133.30 144.81 L 133.35 145.85 C 133.39 146.76 134.17 147.46 135.07 147.41 C 135.98 147.37 136.68 146.60 136.64 145.69 Z M 136.55 144.70 L 136.53 143.71 C 136.51 142.82 135.77 142.11 134.89 142.13 C 134.00 142.15 133.29 142.89 133.31 143.78 L 133.33 144.77 C 133.35 145.66 134.09 146.36 134.98 146.34 C 135.87 146.32 136.57 145.59 136.55 144.70 Z M 136.51 143.73 L 136.50 142.73 C 136.50 141.85 135.78 141.14 134.90 141.15 C 134.02 141.16 133.32 141.87 133.33 142.75 L 133.33 143.76 C 133.34 144.63 134.06 145.34 134.93 145.33 C 135.81 145.33 136.52 144.61 136.51 143.73 Z M 136.49 142.74 L 136.48 141.89 C 136.48 141.02 135.78 140.32 134.91 140.32 C 134.05 140.32 133.34 141.02 133.34 141.89 L 133.34 142.74 C 133.34 143.61 134.05 144.31 134.92 144.31 C 135.78 144.31 136.49 143.61 136.49 142.74 Z"
      fill="black"
      fill-rule="nonzero" /><path d="M 131.12 122.22 L 131.22 120.91 C 131.29 119.98 130.60 119.16 129.66 119.09 C 128.73 119.02 127.92 119.71 127.84 120.64 L 127.74 121.95 C 127.66 122.88 128.36 123.70 129.29 123.77 C 130.22 123.85 131.04 123.15 131.12 122.22 Z M 131.30 121.40 L 131.41 121.09 C 131.75 120.11 131.23 119.04 130.26 118.70 C 129.28 118.36 128.21 118.88 127.87 119.85 L 127.76 120.16 C 127.42 121.14 127.94 122.21 128.91 122.55 C 129.89 122.89 130.96 122.37 131.30 121.40 Z M 127.62 120.67 L 127.72 121.67 C 127.83 122.78 128.82 123.59 129.94 123.48 C 131.05 123.37 131.86 122.38 131.75 121.27 L 131.65 120.27 C 131.54 119.16 130.55 118.35 129.44 118.46 C 128.32 118.57 127.51 119.56 127.62 120.67 Z M 127.62 121.56 L 127.67 122.72 C 127.72 123.89 128.71 124.80 129.88 124.75 C 131.05 124.70 131.96 123.71 131.91 122.54 L 131.86 121.37 C 131.81 120.20 130.82 119.30 129.65 119.35 C 128.48 119.40 127.57 120.39 127.62 121.56 Z M 127.63 122.66 L 127.64 123.63 C 127.66 124.82 128.64 125.77 129.83 125.75 C 131.02 125.73 131.97 124.75 131.96 123.56 L 131.94 122.60 C 131.93 121.41 130.95 120.45 129.75 120.47 C 128.56 120.49 127.61 121.47 127.63 122.66 Z M 127.63 123.60 L 127.64 124.64 C 127.64 125.83 128.61 126.80 129.81 126.80 C 131.00 126.80 131.97 125.83 131.97 124.63 L 131.97 123.59 C 131.96 122.39 130.99 121.43 129.80 121.43 C 128.60 121.43 127.63 122.40 127.63 123.60 Z M 127.63 124.63 L 127.63 125.53 C 127.63 126.73 128.60 127.70 129.80 127.70 C 131.00 127.70 131.97 126.73 131.97 125.53 L 131.97 124.63 C 131.97 123.44 131.00 122.46 129.80 122.46 C 128.60 122.46 127.63 123.44 127.63 124.63 Z M 127.63 125.53 L 127.63 126.52 C 127.63 127.73 128.60 128.70 129.80 128.70 C 131.00 128.70 131.98 127.73 131.98 126.52 L 131.98 125.53 C 131.98 124.33 131.00 123.36 129.80 123.36 C 128.60 123.36 127.63 124.33 127.63 125.53 Z M 127.62 126.52 L 127.62 127.61 C 127.62 128.81 128.60 129.79 129.80 129.79 C 131.00 129.79 131.98 128.81 131.98 127.61 L 131.98 126.52 C 131.98 125.32 131.00 124.35 129.80 124.35 C 128.60 124.35 127.62 125.32 127.62 126.52 Z M 127.62 127.61 L 127.62 128.58 C 127.62 129.79 128.60 130.76 129.80 130.76 C 131.01 130.76 131.98 129.79 131.98 128.58 L 131.98 127.61 C 131.98 126.41 131.01 125.43 129.80 125.43 C 128.60 125.43 127.62 126.41 127.62 127.61 Z M 127.62 128.58 L 127.62 129.54 C 127.62 130.74 128.60 131.72 129.80 131.72 C 131.01 131.72 131.98 130.74 131.98 129.54 L 131.98 128.58 C 131.98 127.38 131.01 126.40 129.80 126.40 C 128.60 126.40 127.62 127.38 127.62 128.58 Z M 127.62 129.54 L 127.62 130.54 C 127.62 131.74 128.60 132.72 129.80 132.72 C 131.01 132.72 131.98 131.74 131.98 130.54 L 131.98 129.54 C 131.98 128.33 131.01 127.35 129.80 127.35 C 128.60 127.35 127.62 128.33 127.62 129.54 Z M 127.62 130.54 L 127.62 131.59 C 127.62 132.80 128.60 133.78 129.80 133.78 C 131.01 133.78 131.98 132.80 131.98 131.59 L 131.98 130.54 C 131.98 129.33 131.01 128.36 129.80 128.36 C 128.60 128.36 127.62 129.33 127.62 130.54 Z M 127.62 131.59 L 127.62 132.61 C 127.62 133.82 128.60 134.80 129.80 134.80 C 131.01 134.80 131.99 133.82 131.99 132.61 L 131.99 131.59 C 131.99 130.39 131.01 129.41 129.80 129.41 C 128.60 129.41 127.62 130.39 127.62 131.59 Z M 127.62 132.61 L 127.62 133.56 C 127.62 134.77 128.60 135.75 129.80 135.75 C 131.01 135.75 131.99 134.77 131.99 133.56 L 131.99 132.61 C 131.99 131.41 131.01 130.43 129.80 130.43 C 128.60 130.43 127.62 131.41 127.62 132.61 Z M 127.62 133.56 L 127.62 134.55 C 127.62 135.75 128.60 136.73 129.80 136.73 C 131.01 136.73 131.99 135.75 131.99 134.55 L 131.99 133.56 C 131.99 132.36 131.01 131.38 129.80 131.38 C 128.60 131.38 127.62 132.36 127.62 133.56 Z M 127.62 134.55 L 127.62 135.56 C 127.62 136.77 128.59 137.74 129.80 137.74 C 131.01 137.74 131.99 136.77 131.99 135.56 L 131.99 134.55 C 131.99 133.34 131.01 132.36 129.80 132.36 C 128.59 132.36 127.62 133.34 127.62 134.55 Z M 127.62 135.56 L 127.62 136.60 C 127.62 137.81 128.59 138.79 129.80 138.79 C 131.01 138.79 131.99 137.81 131.99 136.60 L 131.99 135.56 C 131.99 134.35 131.01 133.37 129.80 133.37 C 128.59 133.37 127.62 134.35 127.62 135.56 Z M 127.62 136.60 L 127.62 137.63 C 127.62 138.84 128.59 139.82 129.80 139.82 C 131.01 139.82 131.99 138.84 131.99 137.63 L 131.99 136.60 C 131.99 135.39 131.01 134.41 129.80 134.41 C 128.59 134.41 127.62 135.39 127.62 136.60 Z M 127.62 137.63 L 127.62 138.60 C 127.62 139.80 128.59 140.78 129.80 140.78 C 131.01 140.78 131.99 139.80 131.99 138.60 L 131.99 137.63 C 131.99 136.43 131.01 135.45 129.80 135.45 C 128.60 135.45 127.62 136.43 127.62 137.63 Z M 127.62 138.59 L 127.62 139.58 C 127.61 140.78 128.59 141.76 129.80 141.76 C 131.01 141.76 131.98 140.79 131.99 139.58 L 131.99 138.60 C 131.99 137.39 131.01 136.41 129.80 136.41 C 128.60 136.41 127.62 137.39 127.62 138.59 Z M 127.62 139.57 L 127.61 140.57 C 127.61 141.78 128.59 142.76 129.79 142.76 C 131.00 142.76 131.98 141.79 131.98 140.58 L 131.99 139.58 C 131.99 138.38 131.01 137.40 129.81 137.39 C 128.60 137.39 127.62 138.37 127.62 139.57 Z M 127.61 140.57 L 127.61 141.58 C 127.61 142.79 128.58 143.77 129.79 143.78 C 130.99 143.78 131.97 142.81 131.98 141.60 L 131.98 140.59 C 131.99 139.38 131.01 138.40 129.81 138.39 C 128.60 138.39 127.62 139.36 127.61 140.57 Z M 127.61 141.58 L 127.61 142.61 C 127.60 143.82 128.57 144.80 129.78 144.81 C 130.98 144.81 131.96 143.84 131.97 142.64 L 131.98 141.60 C 131.99 140.40 131.01 139.42 129.81 139.41 C 128.60 139.40 127.62 140.37 127.61 141.58 Z M 127.61 142.60 L 127.60 143.61 C 127.59 144.82 128.56 145.80 129.76 145.81 C 130.97 145.82 131.95 144.85 131.96 143.65 L 131.97 142.64 C 131.98 141.44 131.01 140.45 129.81 140.44 C 128.60 140.43 127.62 141.40 127.61 142.60 Z M 127.60 143.61 L 127.59 144.58 C 127.57 145.78 128.54 146.77 129.74 146.78 C 130.95 146.80 131.94 145.83 131.95 144.63 L 131.96 143.66 C 131.97 142.45 131.01 141.46 129.81 141.45 C 128.60 141.44 127.61 142.40 127.60 143.61 Z M 127.59 144.57 L 127.58 145.56 C 127.56 146.76 128.52 147.75 129.72 147.77 C 130.92 147.79 131.91 146.82 131.93 145.62 L 131.95 144.64 C 131.96 143.43 131.00 142.44 129.80 142.43 C 128.60 142.41 127.61 143.37 127.59 144.57 Z M 127.58 145.55 L 127.56 146.54 C 127.54 147.75 128.49 148.74 129.69 148.76 C 130.89 148.78 131.89 147.83 131.91 146.63 L 131.93 145.63 C 131.95 144.43 131.00 143.44 129.80 143.41 C 128.59 143.39 127.60 144.35 127.58 145.55 Z M 127.56 146.53 L 127.54 147.54 C 127.51 148.74 128.46 149.74 129.66 149.77 C 130.86 149.80 131.86 148.85 131.88 147.65 L 131.91 146.64 C 131.94 145.44 130.99 144.44 129.79 144.41 C 128.59 144.38 127.59 145.33 127.56 146.53 Z M 127.54 147.53 L 127.51 148.55 C 127.48 149.75 128.42 150.75 129.62 150.79 C 130.82 150.82 131.82 149.88 131.85 148.68 L 131.88 147.66 C 131.92 146.46 130.97 145.46 129.77 145.42 C 128.57 145.39 127.58 146.33 127.54 147.53 Z M 127.51 148.54 L 127.48 149.57 C 127.44 150.76 128.38 151.77 129.57 151.81 C 130.77 151.85 131.77 150.91 131.81 149.71 L 131.85 148.69 C 131.89 147.49 130.95 146.49 129.76 146.45 C 128.56 146.41 127.56 147.34 127.51 148.54 Z M 127.48 149.55 L 127.44 150.52 C 127.40 151.71 128.33 152.72 129.52 152.77 C 130.72 152.81 131.72 151.88 131.77 150.69 L 131.81 149.73 C 131.86 148.53 130.93 147.52 129.73 147.48 C 128.54 147.43 127.53 148.36 127.48 149.55 Z M 127.45 150.51 L 127.41 151.48 C 127.35 152.67 128.28 153.68 129.47 153.74 C 130.66 153.79 131.67 152.86 131.73 151.67 L 131.77 150.70 C 131.82 149.50 130.90 148.49 129.70 148.44 C 128.51 148.39 127.50 149.31 127.45 150.51 Z M 127.41 151.47 L 127.36 152.46 C 127.31 153.65 128.23 154.66 129.42 154.72 C 130.61 154.77 131.62 153.85 131.68 152.66 L 131.72 151.68 C 131.78 150.49 130.86 149.48 129.67 149.42 C 128.48 149.36 127.47 150.28 127.41 151.47 Z M 127.37 152.45 L 127.32 153.45 C 127.26 154.64 128.17 155.65 129.36 155.71 C 130.55 155.77 131.56 154.86 131.62 153.67 L 131.67 152.67 C 131.73 151.48 130.82 150.47 129.63 150.41 C 128.44 150.35 127.43 151.26 127.37 152.45 Z M 127.32 153.45 L 127.27 154.46 C 127.21 155.65 128.12 156.66 129.31 156.72 C 130.49 156.78 131.50 155.87 131.57 154.68 L 131.62 153.67 C 131.68 152.48 130.77 151.47 129.58 151.41 C 128.39 151.35 127.38 152.26 127.32 153.45 Z M 127.27 154.46 L 127.22 155.49 C 127.15 156.67 128.07 157.69 129.25 157.75 C 130.44 157.81 131.45 156.90 131.51 155.71 L 131.56 154.68 C 131.62 153.50 130.71 152.49 129.53 152.43 C 128.34 152.36 127.33 153.27 127.27 154.46 Z M 127.22 155.49 L 127.17 156.52 C 127.10 157.71 128.01 158.71 129.20 158.78 C 130.38 158.84 131.39 157.93 131.45 156.75 L 131.51 155.71 C 131.57 154.53 130.66 153.52 129.47 153.46 C 128.29 153.40 127.28 154.31 127.22 155.49 Z M 127.17 156.52 L 127.12 157.52 C 127.06 158.70 127.97 159.70 129.15 159.76 C 130.33 159.83 131.33 158.92 131.39 157.74 L 131.44 156.74 C 131.51 155.56 130.60 154.56 129.42 154.50 C 128.24 154.44 127.23 155.34 127.17 156.52 Z M 127.13 157.52 L 127.08 158.53 C 127.02 159.70 127.92 160.70 129.10 160.76 C 130.27 160.82 131.27 159.92 131.33 158.74 L 131.38 157.74 C 131.44 156.56 130.54 155.56 129.37 155.50 C 128.19 155.44 127.19 156.35 127.13 157.52 Z M 127.09 158.53 L 127.04 159.54 C 126.98 160.70 127.88 161.70 129.05 161.76 C 130.21 161.82 131.21 160.92 131.27 159.75 L 131.32 158.74 C 131.38 157.57 130.48 156.58 129.32 156.52 C 128.15 156.46 127.15 157.36 127.09 158.53 Z M 127.05 159.53 L 126.99 160.54 C 126.93 161.71 127.83 162.70 128.99 162.76 C 130.16 162.82 131.15 161.93 131.21 160.76 L 131.26 159.75 C 131.32 158.59 130.43 157.60 129.26 157.54 C 128.10 157.48 127.11 158.37 127.05 159.53 Z M 127.00 160.54 L 126.95 161.55 C 126.89 162.70 127.78 163.69 128.94 163.76 C 130.09 163.82 131.08 162.93 131.15 161.77 L 131.20 160.77 C 131.26 159.61 130.37 158.62 129.21 158.56 C 128.05 158.49 127.07 159.38 127.00 160.54 Z M 126.96 161.54 L 126.90 162.54 C 126.84 163.69 127.72 164.68 128.88 164.74 C 130.03 164.80 131.02 163.92 131.08 162.77 L 131.14 161.77 C 131.20 160.62 130.32 159.63 129.16 159.57 C 128.01 159.51 127.02 160.39 126.96 161.54 Z M 126.91 162.53 L 126.86 163.51 C 126.79 164.66 127.67 165.64 128.82 165.71 C 129.97 165.78 130.95 164.90 131.02 163.75 L 131.07 162.77 C 131.14 161.62 130.26 160.64 129.11 160.57 C 127.96 160.51 126.98 161.38 126.91 162.53 Z M 126.87 163.51 L 126.80 164.55 C 126.74 165.69 127.61 166.68 128.75 166.74 C 129.89 166.81 130.87 165.94 130.94 164.80 L 131.01 163.76 C 131.08 162.61 130.21 161.63 129.06 161.56 C 127.92 161.49 126.94 162.36 126.87 163.51 Z M 126.81 164.54 L 126.75 165.58 C 126.68 166.72 127.54 167.70 128.68 167.77 C 129.82 167.84 130.80 166.98 130.87 165.84 L 130.93 164.81 C 131.01 163.67 130.14 162.69 129.00 162.62 C 127.87 162.54 126.89 163.41 126.81 164.54 Z M 126.76 165.57 L 126.69 166.59 C 126.62 167.72 127.47 168.70 128.60 168.77 C 129.74 168.85 130.72 167.99 130.79 166.86 L 130.86 165.85 C 130.93 164.72 130.08 163.74 128.94 163.66 C 127.81 163.59 126.83 164.44 126.76 165.57 Z M 126.70 166.58 L 126.63 167.58 C 126.55 168.70 127.40 169.68 128.53 169.76 C 129.66 169.84 130.63 168.99 130.71 167.86 L 130.78 166.87 C 130.86 165.74 130.01 164.76 128.88 164.68 C 127.76 164.61 126.78 165.46 126.70 166.58 Z M 126.64 167.57 L 126.57 168.55 C 126.49 169.67 127.34 170.64 128.46 170.72 C 129.58 170.80 130.55 169.96 130.63 168.84 L 130.70 167.86 C 130.78 166.74 129.94 165.77 128.82 165.69 C 127.70 165.61 126.72 166.45 126.64 167.57 Z M 126.58 168.55 L 126.51 169.50 C 126.43 170.62 127.27 171.59 128.38 171.67 C 129.50 171.76 130.47 170.92 130.55 169.80 L 130.62 168.84 C 130.71 167.73 129.87 166.75 128.75 166.67 C 127.64 166.59 126.66 167.43 126.58 168.55 Z M 126.52 169.50 L 126.45 170.47 C 126.36 171.58 127.20 172.55 128.31 172.63 C 129.42 172.72 130.39 171.88 130.47 170.77 L 130.54 169.80 C 130.63 168.69 129.79 167.72 128.68 167.64 C 127.57 167.56 126.60 168.39 126.52 169.50 Z M 126.46 170.47 L 126.38 171.51 C 126.29 172.62 127.12 173.59 128.22 173.67 C 129.33 173.76 130.30 172.93 130.38 171.82 L 130.46 170.78 C 130.55 169.67 129.72 168.70 128.61 168.62 C 127.51 168.53 126.54 169.36 126.46 170.47 Z M 126.38 171.51 L 126.30 172.54 C 126.21 173.64 127.04 174.60 128.14 174.69 C 129.24 174.78 130.21 173.95 130.29 172.85 L 130.37 171.83 C 130.46 170.72 129.64 169.76 128.54 169.67 C 127.43 169.58 126.47 170.41 126.38 171.51 Z M 126.31 172.53 L 126.23 173.53 C 126.14 174.63 126.95 175.60 128.05 175.69 C 129.15 175.78 130.11 174.96 130.20 173.86 L 130.29 172.86 C 130.38 171.76 129.56 170.80 128.46 170.70 C 127.36 170.61 126.40 171.43 126.31 172.53 Z M 126.23 173.53 L 126.15 174.51 C 126.05 175.60 126.87 176.57 127.96 176.66 C 129.05 176.76 130.02 175.94 130.11 174.85 L 130.20 173.87 C 130.29 172.78 129.48 171.81 128.38 171.72 C 127.29 171.62 126.33 172.43 126.23 173.53 Z M 126.16 174.50 L 126.07 175.46 C 125.97 176.55 126.78 177.51 127.87 177.61 C 128.95 177.71 129.92 176.90 130.02 175.81 L 130.10 174.86 C 130.20 173.77 129.40 172.81 128.31 172.71 C 127.22 172.61 126.25 173.41 126.16 174.50 Z M 126.08 175.45 L 125.98 176.43 C 125.88 177.52 126.68 178.48 127.76 178.59 C 128.85 178.69 129.81 177.89 129.91 176.81 L 130.01 175.82 C 130.11 174.74 129.32 173.78 128.23 173.67 C 127.15 173.57 126.18 174.36 126.08 175.45 Z M 125.99 176.42 L 125.88 177.49 C 125.77 178.57 126.56 179.54 127.64 179.65 C 128.72 179.76 129.68 178.97 129.79 177.89 L 129.90 176.82 C 130.01 175.74 129.23 174.78 128.15 174.67 C 127.07 174.55 126.10 175.34 125.99 176.42 Z M 125.90 177.48 L 125.78 178.51 C 125.67 179.58 126.44 180.55 127.51 180.66 C 128.59 180.78 129.55 180.01 129.67 178.93 L 129.78 177.91 C 129.90 176.83 129.13 175.87 128.05 175.75 C 126.98 175.63 126.01 176.41 125.90 177.48 Z M 125.79 178.50 L 125.68 179.47 C 125.56 180.54 126.32 181.51 127.39 181.63 C 128.45 181.76 129.42 180.99 129.54 179.93 L 129.66 178.95 C 129.78 177.88 129.02 176.91 127.95 176.79 C 126.89 176.66 125.92 177.43 125.79 178.50 Z M 125.69 179.46 L 125.58 180.39 C 125.44 181.45 126.20 182.42 127.26 182.55 C 128.32 182.68 129.28 181.93 129.42 180.87 L 129.53 179.94 C 129.66 178.88 128.91 177.91 127.85 177.78 C 126.79 177.65 125.82 178.40 125.69 179.46 Z M 125.59 180.37 L 125.46 181.33 C 125.32 182.39 126.06 183.35 127.11 183.49 C 128.17 183.63 129.14 182.89 129.28 181.84 L 129.40 180.88 C 129.54 179.83 128.80 178.86 127.75 178.72 C 126.70 178.58 125.73 179.32 125.59 180.37 Z M 125.48 181.32 L 125.33 182.34 C 125.18 183.39 125.91 184.35 126.95 184.50 C 128.00 184.65 128.96 183.93 129.11 182.88 L 129.26 181.86 C 129.41 180.81 128.68 179.84 127.64 179.69 C 126.59 179.54 125.63 180.27 125.48 181.32 Z M 125.35 182.33 L 125.20 183.30 C 125.04 184.34 125.75 185.30 126.79 185.46 C 127.82 185.62 128.79 184.91 128.95 183.87 L 129.10 182.90 C 129.25 181.86 128.54 180.90 127.51 180.74 C 126.47 180.58 125.51 181.29 125.35 182.33 Z M 125.22 183.29 L 125.06 184.24 C 124.90 185.27 125.60 186.23 126.62 186.40 C 127.65 186.56 128.61 185.86 128.78 184.84 L 128.93 183.88 C 129.09 182.86 128.40 181.89 127.37 181.73 C 126.34 181.57 125.38 182.26 125.22 183.29 Z M 125.08 184.24 L 124.92 185.19 C 124.76 186.21 125.44 187.17 126.46 187.34 C 127.48 187.50 128.44 186.82 128.60 185.80 L 128.76 184.84 C 128.93 183.83 128.24 182.87 127.22 182.70 C 126.21 182.53 125.25 183.22 125.08 184.24 Z M 124.94 185.19 L 124.78 186.17 C 124.61 187.18 125.29 188.13 126.29 188.30 C 127.30 188.47 128.26 187.79 128.42 186.78 L 128.59 185.80 C 128.76 184.79 128.08 183.84 127.07 183.67 C 126.06 183.50 125.11 184.18 124.94 185.19 Z M 124.79 186.17 L 124.62 187.16 C 124.45 188.16 125.13 189.10 126.13 189.27 C 127.13 189.44 128.07 188.77 128.24 187.77 L 128.41 186.78 C 128.58 185.78 127.90 184.83 126.91 184.67 C 125.91 184.50 124.96 185.17 124.79 186.17 Z M 124.64 187.16 L 124.47 188.15 C 124.30 189.15 124.97 190.09 125.96 190.25 C 126.95 190.42 127.89 189.76 128.06 188.76 L 128.23 187.77 C 128.40 186.78 127.73 185.84 126.74 185.67 C 125.75 185.50 124.81 186.17 124.64 187.16 Z M 124.48 188.16 L 124.41 188.58 C 124.24 189.57 124.90 190.50 125.89 190.67 C 126.87 190.84 127.81 190.17 127.97 189.19 L 128.05 188.76 C 128.21 187.78 127.55 186.84 126.57 186.68 C 125.58 186.51 124.65 187.17 124.48 188.16 Z"
      fill="black"
      fill-rule="nonzero" /><path d="M 149.41 121.45 L 149.63 122.40 C 149.84 123.35 150.79 123.94 151.74 123.72 C 152.69 123.50 153.28 122.56 153.06 121.61 L 152.84 120.66 C 152.63 119.71 151.68 119.12 150.73 119.34 C 149.78 119.56 149.19 120.50 149.41 121.45 Z M 149.64 122.44 L 149.89 123.41 C 150.14 124.35 151.10 124.92 152.03 124.67 C 152.97 124.43 153.54 123.47 153.29 122.53 L 153.04 121.56 C 152.80 120.62 151.84 120.06 150.90 120.30 C 149.96 120.55 149.40 121.50 149.64 122.44 Z M 149.93 123.49 L 150.23 124.46 C 150.51 125.38 151.50 125.90 152.42 125.61 C 153.34 125.32 153.85 124.34 153.57 123.42 L 153.26 122.45 C 152.98 121.53 152.00 121.02 151.07 121.30 C 150.15 121.59 149.64 122.57 149.93 123.49 Z M 150.27 124.53 L 150.61 125.47 C 150.93 126.37 151.93 126.83 152.83 126.51 C 153.73 126.18 154.19 125.19 153.87 124.29 L 153.53 123.35 C 153.20 122.45 152.21 121.98 151.31 122.31 C 150.40 122.64 149.94 123.63 150.27 124.53 Z M 150.64 125.50 L 151.00 126.44 C 151.34 127.33 152.34 127.77 153.22 127.42 C 154.10 127.08 154.54 126.09 154.20 125.20 L 153.84 124.26 C 153.50 123.38 152.50 122.94 151.62 123.28 C 150.73 123.62 150.29 124.61 150.64 125.50 Z M 151.02 126.44 L 151.38 127.37 C 151.72 128.25 152.70 128.68 153.58 128.34 C 154.45 128.00 154.89 127.02 154.55 126.15 L 154.18 125.21 C 153.85 124.33 152.86 123.90 151.99 124.24 C 151.11 124.58 150.68 125.56 151.02 126.44 Z M 151.40 127.38 L 151.77 128.30 C 152.11 129.16 153.09 129.58 153.95 129.24 C 154.81 128.90 155.23 127.92 154.89 127.06 L 154.52 126.14 C 154.18 125.28 153.21 124.86 152.34 125.20 C 151.48 125.54 151.06 126.52 151.40 127.38 Z M 151.81 128.36 L 152.22 129.27 C 152.60 130.11 153.58 130.48 154.42 130.11 C 155.25 129.73 155.63 128.75 155.25 127.91 L 154.84 127.00 C 154.47 126.16 153.49 125.79 152.65 126.16 C 151.81 126.54 151.44 127.52 151.81 128.36 Z M 152.30 129.38 L 152.87 130.42 C 153.31 131.21 154.31 131.50 155.10 131.06 C 155.90 130.63 156.18 129.63 155.75 128.83 L 155.17 127.80 C 154.74 127.00 153.74 126.72 152.94 127.15 C 152.15 127.59 151.86 128.59 152.30 129.38 Z M 153.05 130.65 L 153.71 131.45 C 154.27 132.15 155.29 132.25 155.98 131.69 C 156.68 131.13 156.78 130.11 156.22 129.41 L 155.57 128.61 C 155.00 127.91 153.98 127.81 153.29 128.37 C 152.60 128.93 152.49 129.95 153.05 130.65 Z M 155.02 132.03 L 155.51 132.01 C 156.39 131.98 157.08 131.24 157.05 130.35 C 157.02 129.47 156.27 128.78 155.39 128.82 L 154.90 128.84 C 154.02 128.87 153.33 129.61 153.37 130.49 C 153.40 131.38 154.14 132.06 155.02 132.03 Z M 156.99 130.82 L 157.21 129.97 C 157.44 129.12 156.93 128.25 156.08 128.03 C 155.23 127.80 154.37 128.31 154.14 129.16 L 153.92 130.01 C 153.69 130.86 154.20 131.73 155.05 131.95 C 155.89 132.17 156.76 131.67 156.99 130.82 Z M 157.26 129.58 L 157.27 128.37 C 157.27 127.50 156.57 126.78 155.70 126.78 C 154.83 126.77 154.11 127.47 154.11 128.34 L 154.10 129.55 C 154.09 130.42 154.79 131.14 155.66 131.14 C 156.54 131.15 157.25 130.45 157.26 129.58 Z M 157.25 128.11 L 157.09 127.04 C 156.95 126.18 156.14 125.58 155.28 125.72 C 154.41 125.85 153.82 126.66 153.95 127.52 L 154.12 128.60 C 154.25 129.46 155.06 130.06 155.93 129.92 C 156.79 129.79 157.39 128.98 157.25 128.11 Z M 157.05 126.81 L 156.77 125.88 C 156.51 125.03 155.61 124.56 154.77 124.82 C 153.92 125.07 153.45 125.97 153.70 126.81 L 153.99 127.75 C 154.25 128.60 155.14 129.07 155.99 128.81 C 156.83 128.55 157.31 127.66 157.05 126.81 Z M 156.74 125.74 L 156.39 124.86 C 156.05 124.03 155.11 123.62 154.28 123.96 C 153.44 124.29 153.04 125.24 153.37 126.07 L 153.73 126.95 C 154.06 127.78 155.01 128.19 155.84 127.85 C 156.67 127.52 157.07 126.57 156.74 125.74 Z M 156.41 124.82 L 156.04 123.93 C 155.68 123.08 154.71 122.68 153.86 123.04 C 153.02 123.39 152.62 124.36 152.97 125.21 L 153.35 126.11 C 153.70 126.95 154.68 127.35 155.52 127.00 C 156.37 126.64 156.77 125.67 156.41 124.82 Z M 156.11 123.97 L 155.75 123.02 C 155.42 122.13 154.43 121.68 153.55 122.01 C 152.66 122.34 152.21 123.33 152.54 124.22 L 152.90 125.17 C 153.23 126.05 154.22 126.50 155.10 126.17 C 155.99 125.84 156.44 124.85 156.11 123.97 Z M 155.85 123.14 L 155.57 122.15 C 155.31 121.21 154.33 120.66 153.39 120.93 C 152.46 121.19 151.91 122.16 152.17 123.10 L 152.45 124.09 C 152.71 125.03 153.69 125.58 154.62 125.32 C 155.56 125.05 156.11 124.08 155.85 123.14 Z M 155.69 122.46 L 155.59 121.46 C 155.50 120.45 154.61 119.72 153.61 119.81 C 152.60 119.91 151.87 120.80 151.96 121.80 L 152.06 122.80 C 152.15 123.80 153.04 124.54 154.04 124.44 C 155.05 124.35 155.78 123.46 155.69 122.46 Z M 155.60 122.11 L 155.85 121.18 C 156.11 120.17 155.51 119.14 154.51 118.88 C 153.50 118.61 152.47 119.21 152.20 120.21 L 151.96 121.14 C 151.69 122.15 152.29 123.18 153.29 123.45 C 154.30 123.72 155.33 123.12 155.60 122.11 Z M 155.49 121.93 L 156.04 121.28 C 156.72 120.47 156.61 119.26 155.80 118.58 C 155.00 117.90 153.79 118.00 153.11 118.81 L 152.56 119.46 C 151.88 120.27 151.98 121.48 152.79 122.16 C 153.60 122.84 154.81 122.74 155.49 121.93 Z M 155.66 121.62 L 156.45 121.07 C 157.32 120.47 157.54 119.28 156.94 118.41 C 156.33 117.54 155.14 117.33 154.28 117.93 L 153.48 118.47 C 152.62 119.08 152.40 120.27 153.00 121.13 C 153.60 122.00 154.79 122.22 155.66 121.62 Z M 156.23 121.20 L 157.19 120.71 C 158.13 120.23 158.50 119.08 158.03 118.14 C 157.55 117.21 156.40 116.83 155.46 117.31 L 154.50 117.80 C 153.56 118.28 153.19 119.42 153.66 120.36 C 154.14 121.30 155.29 121.67 156.23 121.20 Z M 157.09 120.75 L 158.06 120.32 C 159.02 119.90 159.46 118.78 159.04 117.82 C 158.62 116.86 157.50 116.42 156.54 116.84 L 155.57 117.27 C 154.61 117.69 154.17 118.81 154.59 119.77 C 155.01 120.73 156.13 121.17 157.09 120.75 Z M 158.02 120.33 L 158.90 119.97 C 159.86 119.57 160.32 118.47 159.93 117.50 C 159.53 116.54 158.43 116.08 157.46 116.48 L 156.58 116.84 C 155.62 117.23 155.16 118.34 155.56 119.30 C 155.95 120.26 157.06 120.72 158.02 120.33 Z M 158.87 119.96 L 159.78 119.60 C 160.74 119.22 161.21 118.13 160.83 117.17 C 160.45 116.21 159.37 115.74 158.40 116.12 L 157.49 116.48 C 156.53 116.86 156.06 117.95 156.44 118.91 C 156.82 119.87 157.91 120.34 158.87 119.96 Z M 159.76 119.59 L 160.71 119.23 C 161.67 118.86 162.15 117.78 161.78 116.82 C 161.41 115.87 160.34 115.39 159.38 115.76 L 158.43 116.13 C 157.47 116.50 156.99 117.57 157.36 118.53 C 157.73 119.49 158.80 119.96 159.76 119.59 Z M 160.70 119.21 L 161.70 118.83 C 162.65 118.47 163.13 117.41 162.77 116.46 C 162.41 115.51 161.34 115.03 160.39 115.39 L 159.39 115.77 C 158.44 116.13 157.96 117.20 158.33 118.15 C 158.69 119.10 159.75 119.58 160.70 119.21 Z M 161.70 118.82 L 162.65 118.46 C 163.60 118.10 164.07 117.05 163.71 116.10 C 163.36 115.15 162.30 114.68 161.35 115.04 L 160.40 115.40 C 159.45 115.76 158.98 116.82 159.34 117.76 C 159.69 118.71 160.75 119.18 161.70 118.82 Z M 162.65 118.45 L 163.62 118.09 C 164.56 117.73 165.03 116.68 164.68 115.74 C 164.32 114.80 163.27 114.32 162.33 114.68 L 161.36 115.04 C 160.42 115.40 159.94 116.45 160.30 117.39 C 160.65 118.33 161.71 118.81 162.65 118.45 Z M 163.61 118.08 L 164.57 117.72 C 165.51 117.37 165.98 116.33 165.63 115.39 C 165.28 114.45 164.24 113.97 163.30 114.33 L 162.34 114.68 C 161.40 115.03 160.93 116.08 161.28 117.02 C 161.63 117.95 162.67 118.43 163.61 118.08 Z M 164.56 117.72 L 165.48 117.38 C 166.42 117.03 166.90 116.00 166.55 115.06 C 166.21 114.13 165.17 113.65 164.24 113.99 L 163.31 114.33 C 162.38 114.67 161.90 115.71 162.24 116.65 C 162.59 117.58 163.62 118.06 164.56 117.72 Z M 165.46 117.37 L 166.38 117.04 C 167.32 116.71 167.80 115.68 167.47 114.75 C 167.13 113.81 166.11 113.33 165.17 113.66 L 164.25 113.99 C 163.32 114.33 162.83 115.36 163.17 116.29 C 163.50 117.22 164.53 117.71 165.46 117.37 Z M 166.36 117.05 L 167.43 116.68 C 168.37 116.36 168.86 115.34 168.54 114.40 C 168.22 113.47 167.21 112.97 166.27 113.29 L 165.20 113.66 C 164.26 113.98 163.77 115.00 164.09 115.93 C 164.41 116.87 165.42 117.37 166.36 117.05 Z M 167.40 116.68 L 168.33 116.38 C 169.27 116.08 169.78 115.07 169.48 114.14 C 169.18 113.20 168.17 112.69 167.24 112.99 L 166.30 113.29 C 165.37 113.59 164.85 114.60 165.16 115.53 C 165.46 116.47 166.46 116.98 167.40 116.68 Z M 168.30 116.38 L 169.13 116.13 C 170.07 115.85 170.60 114.85 170.31 113.92 C 170.03 112.98 169.04 112.45 168.10 112.73 L 167.27 112.98 C 166.33 113.27 165.80 114.26 166.09 115.20 C 166.37 116.14 167.36 116.67 168.30 116.38 Z M 169.09 116.14 L 170.06 115.87 C 171.01 115.61 171.56 114.63 171.30 113.68 C 171.03 112.74 170.05 112.19 169.11 112.45 L 168.13 112.72 C 167.19 112.99 166.64 113.97 166.90 114.91 C 167.17 115.86 168.15 116.41 169.09 116.14 Z M 169.98 115.90 L 170.94 115.68 C 171.90 115.47 172.50 114.51 172.28 113.55 C 172.07 112.59 171.11 111.99 170.15 112.20 L 169.19 112.42 C 168.23 112.64 167.63 113.59 167.85 114.55 C 168.06 115.51 169.02 116.12 169.98 115.90 Z M 170.78 115.73 L 171.79 115.59 C 172.77 115.46 173.47 114.56 173.34 113.57 C 173.21 112.59 172.30 111.90 171.32 112.03 L 170.31 112.16 C 169.32 112.29 168.63 113.20 168.76 114.18 C 168.89 115.17 169.80 115.86 170.78 115.73 Z M 171.49 115.63 L 172.54 115.67 C 173.54 115.71 174.39 114.92 174.42 113.91 C 174.46 112.90 173.67 112.06 172.66 112.02 L 171.62 111.99 C 170.61 111.95 169.76 112.74 169.73 113.75 C 169.69 114.75 170.48 115.60 171.49 115.63 Z M 171.77 115.51 L 172.55 115.90 C 173.47 116.35 174.59 115.98 175.04 115.06 C 175.50 114.13 175.12 113.02 174.20 112.56 L 173.43 112.18 C 172.51 111.72 171.39 112.10 170.93 113.02 C 170.48 113.94 170.85 115.06 171.77 115.51 Z M 171.64 114.98 L 172.00 115.83 C 172.41 116.79 173.53 117.23 174.49 116.82 C 175.45 116.40 175.89 115.29 175.48 114.33 L 175.11 113.48 C 174.70 112.52 173.59 112.08 172.63 112.49 C 171.67 112.90 171.22 114.02 171.64 114.98 Z M 171.83 115.25 L 171.92 116.31 C 172.02 117.37 172.95 118.15 174.00 118.06 C 175.06 117.96 175.84 117.03 175.75 115.97 L 175.65 114.91 C 175.56 113.85 174.63 113.07 173.57 113.16 C 172.51 113.26 171.73 114.19 171.83 115.25 Z M 171.90 116.17 L 171.91 117.15 C 171.92 118.22 172.80 119.08 173.87 119.07 C 174.94 119.06 175.79 118.18 175.78 117.11 L 175.77 116.12 C 175.76 115.05 174.88 114.20 173.81 114.21 C 172.74 114.22 171.89 115.10 171.90 116.17 Z M 171.91 117.00 L 171.84 118.01 C 171.77 119.08 172.58 120.00 173.65 120.07 C 174.72 120.14 175.64 119.34 175.72 118.27 L 175.78 117.26 C 175.85 116.19 175.05 115.27 173.98 115.20 C 172.91 115.12 171.98 115.93 171.91 117.00 Z M 171.86 117.81 L 171.69 118.79 C 171.51 119.85 172.23 120.86 173.29 121.03 C 174.35 121.21 175.35 120.50 175.53 119.44 L 175.70 118.46 C 175.88 117.40 175.16 116.40 174.10 116.22 C 173.04 116.04 172.04 116.75 171.86 117.81 Z M 171.72 118.65 L 171.48 119.62 C 171.22 120.67 171.85 121.73 172.90 121.99 C 173.95 122.25 175.01 121.61 175.27 120.56 L 175.51 119.59 C 175.77 118.54 175.13 117.48 174.08 117.22 C 173.04 116.96 171.98 117.60 171.72 118.65 Z M 171.49 119.54 L 171.21 120.49 C 170.91 121.52 171.50 122.61 172.54 122.92 C 173.57 123.23 174.66 122.63 174.97 121.60 L 175.25 120.65 C 175.55 119.61 174.96 118.52 173.93 118.22 C 172.89 117.91 171.80 118.50 171.49 119.54 Z M 171.22 120.44 L 170.93 121.36 C 170.60 122.39 171.17 123.49 172.20 123.82 C 173.23 124.15 174.33 123.59 174.66 122.56 L 174.96 121.64 C 175.29 120.61 174.72 119.51 173.69 119.17 C 172.66 118.84 171.55 119.41 171.22 120.44 Z M 170.93 121.34 L 170.61 122.32 C 170.27 123.35 170.83 124.46 171.86 124.80 C 172.89 125.14 174.00 124.58 174.34 123.55 L 174.66 122.57 C 175.00 121.54 174.44 120.43 173.41 120.10 C 172.38 119.76 171.27 120.31 170.93 121.34 Z M 170.61 122.32 L 170.31 123.23 C 169.98 124.26 170.54 125.37 171.57 125.71 C 172.60 126.05 173.70 125.48 174.04 124.45 L 174.34 123.54 C 174.68 122.51 174.12 121.41 173.09 121.07 C 172.06 120.73 170.95 121.29 170.61 122.32 Z M 170.31 123.23 L 170.01 124.16 C 169.67 125.19 170.23 126.30 171.26 126.64 C 172.29 126.97 173.39 126.42 173.73 125.39 L 174.04 124.46 C 174.38 123.43 173.82 122.32 172.79 121.98 C 171.76 121.64 170.65 122.20 170.31 123.23 Z M 170.02 124.14 L 169.68 125.13 C 169.33 126.16 169.88 127.27 170.90 127.62 C 171.93 127.97 173.04 127.42 173.39 126.39 L 173.73 125.40 C 174.08 124.38 173.53 123.27 172.50 122.92 C 171.48 122.57 170.36 123.12 170.02 124.14 Z M 169.69 125.10 L 169.34 126.10 C 168.97 127.11 169.50 128.23 170.52 128.60 C 171.54 128.96 172.66 128.43 173.02 127.41 L 173.38 126.42 C 173.74 125.40 173.21 124.28 172.20 123.92 C 171.18 123.55 170.06 124.08 169.69 125.10 Z M 169.36 126.06 L 168.99 127.02 C 168.60 128.02 169.11 129.15 170.11 129.54 C 171.12 129.92 172.25 129.42 172.63 128.41 L 173.00 127.45 C 173.39 126.45 172.88 125.32 171.88 124.93 C 170.87 124.55 169.74 125.05 169.36 126.06 Z M 169.02 126.96 L 168.63 127.89 C 168.21 128.88 168.68 130.02 169.66 130.44 C 170.65 130.85 171.79 130.39 172.21 129.40 L 172.60 128.47 C 173.02 127.48 172.55 126.34 171.57 125.93 C 170.58 125.51 169.44 125.97 169.02 126.96 Z M 168.67 127.81 L 168.26 128.68 C 167.80 129.64 168.21 130.80 169.17 131.26 C 170.13 131.72 171.29 131.31 171.75 130.35 L 172.16 129.48 C 172.62 128.52 172.21 127.36 171.25 126.90 C 170.29 126.44 169.13 126.85 168.67 127.81 Z M 168.35 128.57 L 167.83 129.49 C 167.31 130.40 167.63 131.57 168.54 132.09 C 169.46 132.61 170.62 132.29 171.14 131.37 L 171.66 130.46 C 172.18 129.54 171.86 128.38 170.95 127.86 C 170.03 127.34 168.87 127.66 168.35 128.57 Z M 167.93 129.39 L 167.38 130.22 C 166.81 131.07 167.04 132.23 167.90 132.80 C 168.75 133.37 169.91 133.14 170.48 132.29 L 171.03 131.46 C 171.61 130.61 171.38 129.45 170.52 128.88 C 169.66 128.31 168.51 128.54 167.93 129.39 Z M 167.47 130.18 L 166.91 130.94 C 166.31 131.75 166.49 132.89 167.30 133.48 C 168.11 134.08 169.25 133.90 169.84 133.09 L 170.40 132.33 C 170.99 131.52 170.82 130.38 170.01 129.79 C 169.20 129.19 168.06 129.37 167.47 130.18 Z"
      fill="black"
      fill-rule="nonzero" /><path d="M 158.53 129.34 L 159.45 129.33 C 160.41 129.31 161.19 128.52 161.18 127.56 C 161.16 126.59 160.37 125.82 159.41 125.83 L 158.49 125.84 C 157.52 125.85 156.75 126.64 156.76 127.61 C 156.77 128.58 157.56 129.35 158.53 129.34 Z M 159.57 129.40 L 160.56 129.32 C 161.56 129.24 162.31 128.37 162.24 127.36 C 162.16 126.36 161.28 125.61 160.28 125.68 L 159.29 125.76 C 158.28 125.84 157.53 126.71 157.61 127.72 C 157.69 128.72 158.56 129.47 159.57 129.40 Z M 160.75 129.35 L 161.80 129.17 C 162.82 128.98 163.50 128.01 163.32 126.98 C 163.14 125.96 162.16 125.28 161.14 125.46 L 160.09 125.65 C 159.06 125.83 158.38 126.81 158.57 127.83 C 158.75 128.86 159.73 129.54 160.75 129.35 Z M 161.95 129.13 L 162.91 128.88 C 163.92 128.61 164.52 127.59 164.25 126.58 C 163.99 125.58 162.96 124.98 161.96 125.24 L 160.99 125.50 C 159.99 125.76 159.39 126.79 159.65 127.79 C 159.92 128.79 160.94 129.39 161.95 129.13 Z M 162.97 128.81 L 163.96 128.51 C 164.93 128.21 165.47 127.19 165.18 126.22 C 164.88 125.26 163.86 124.71 162.89 125.01 L 161.90 125.31 C 160.94 125.60 160.39 126.63 160.69 127.59 C 160.98 128.56 162.00 129.11 162.97 128.81 Z M 163.97 128.45 L 164.92 128.15 C 165.86 127.85 166.37 126.84 166.07 125.91 C 165.77 124.97 164.77 124.45 163.83 124.76 L 162.88 125.06 C 161.94 125.36 161.43 126.37 161.73 127.31 C 162.03 128.24 163.04 128.76 163.97 128.45 Z M 164.90 128.10 L 165.93 127.77 C 166.84 127.48 167.34 126.51 167.06 125.60 C 166.77 124.69 165.80 124.19 164.89 124.48 L 163.85 124.81 C 162.94 125.10 162.44 126.07 162.73 126.98 C 163.02 127.88 163.99 128.39 164.90 128.10 Z M 165.89 127.71 L 166.83 127.42 C 167.71 127.16 168.21 126.23 167.94 125.35 C 167.67 124.48 166.75 123.98 165.87 124.25 L 164.93 124.54 C 164.05 124.80 163.56 125.73 163.82 126.61 C 164.09 127.48 165.02 127.98 165.89 127.71 Z M 166.80 127.36 L 167.58 127.14 C 168.42 126.89 168.90 126.00 168.65 125.16 C 168.40 124.31 167.52 123.83 166.67 124.08 L 165.90 124.31 C 165.06 124.56 164.58 125.45 164.82 126.29 C 165.07 127.13 165.96 127.61 166.80 127.36 Z"
      fill="black"
      fill-rule="nonzero" /><path d="M 157.34 139.44 L 158.25 139.11 C 159.20 138.75 159.69 137.70 159.34 136.75 C 158.98 135.80 157.93 135.31 156.98 135.66 L 156.06 136.00 C 155.11 136.36 154.63 137.41 154.98 138.36 C 155.33 139.31 156.39 139.80 157.34 139.44 Z M 158.41 139.13 L 159.33 138.71 C 160.29 138.27 160.71 137.14 160.27 136.17 C 159.84 135.21 158.70 134.79 157.74 135.23 L 156.82 135.65 C 155.86 136.08 155.44 137.22 155.87 138.18 C 156.31 139.14 157.45 139.56 158.41 139.13 Z M 159.54 138.64 L 160.37 138.14 C 161.29 137.58 161.59 136.38 161.03 135.46 C 160.48 134.54 159.28 134.24 158.36 134.80 L 157.53 135.30 C 156.60 135.85 156.31 137.05 156.86 137.97 C 157.42 138.90 158.62 139.19 159.54 138.64 Z M 160.49 138.03 L 161.30 137.45 C 162.16 136.83 162.36 135.63 161.74 134.76 C 161.12 133.90 159.91 133.70 159.05 134.32 L 158.24 134.90 C 157.37 135.52 157.18 136.72 157.80 137.59 C 158.42 138.46 159.62 138.65 160.49 138.03 Z M 161.32 137.39 L 162.15 136.76 C 162.98 136.13 163.15 134.94 162.51 134.11 C 161.88 133.28 160.70 133.11 159.87 133.75 L 159.03 134.38 C 158.20 135.01 158.03 136.20 158.67 137.03 C 159.30 137.86 160.48 138.02 161.32 137.39 Z M 162.12 136.74 L 162.92 136.14 C 163.74 135.52 163.90 134.36 163.29 133.55 C 162.68 132.73 161.52 132.56 160.70 133.17 L 159.90 133.77 C 159.08 134.38 158.91 135.54 159.53 136.36 C 160.14 137.18 161.30 137.35 162.12 136.74 Z M 162.87 136.12 L 163.68 135.53 C 164.50 134.95 164.68 133.82 164.10 133.01 C 163.51 132.20 162.38 132.01 161.57 132.60 L 160.75 133.18 C 159.94 133.77 159.76 134.90 160.34 135.71 C 160.92 136.52 162.06 136.71 162.87 136.12 Z M 163.63 135.53 L 164.45 134.96 C 165.26 134.41 165.46 133.31 164.91 132.50 C 164.36 131.69 163.25 131.49 162.45 132.04 L 161.63 132.60 C 160.82 133.16 160.61 134.26 161.17 135.07 C 161.72 135.87 162.82 136.08 163.63 135.53 Z M 164.38 134.95 L 165.25 134.39 C 166.05 133.88 166.28 132.81 165.77 132.01 C 165.25 131.21 164.18 130.98 163.38 131.49 L 162.51 132.05 C 161.71 132.57 161.48 133.64 162.00 134.44 C 162.51 135.24 163.58 135.47 164.38 134.95 Z M 165.19 134.37 L 166.04 133.85 C 166.83 133.37 167.07 132.34 166.59 131.55 C 166.11 130.76 165.08 130.51 164.29 131.00 L 163.44 131.52 C 162.66 132.00 162.41 133.03 162.89 133.82 C 163.37 134.60 164.40 134.85 165.19 134.37 Z M 166.00 133.82 L 166.84 133.32 C 167.61 132.86 167.86 131.86 167.40 131.09 C 166.94 130.32 165.94 130.06 165.17 130.52 L 164.33 131.03 C 163.56 131.49 163.31 132.49 163.77 133.26 C 164.23 134.03 165.23 134.28 166.00 133.82 Z M 166.82 133.29 L 167.69 132.78 C 168.45 132.33 168.70 131.35 168.25 130.59 C 167.80 129.83 166.82 129.58 166.06 130.03 L 165.19 130.55 C 164.44 131.00 164.19 131.98 164.63 132.73 C 165.08 133.49 166.06 133.74 166.82 133.29 Z M 167.68 132.76 L 168.52 132.26 C 169.27 131.82 169.52 130.85 169.08 130.10 C 168.64 129.35 167.67 129.10 166.92 129.55 L 166.07 130.05 C 165.32 130.49 165.08 131.46 165.52 132.21 C 165.96 132.96 166.93 133.21 167.68 132.76 Z M 168.52 132.25 L 168.69 132.15 C 169.43 131.71 169.68 130.75 169.24 130.01 C 168.80 129.26 167.84 129.02 167.10 129.46 L 166.93 129.56 C 166.18 130.00 165.94 130.96 166.37 131.70 C 166.81 132.44 167.77 132.69 168.52 132.25 Z"
      fill="black"
      fill-rule="nonzero" /><path d="M 153.47 130.25 L 154.18 130.96 C 154.81 131.60 155.84 131.61 156.48 130.97 C 157.12 130.34 157.12 129.31 156.49 128.67 L 155.79 127.96 C 155.15 127.32 154.12 127.32 153.48 127.95 C 152.84 128.58 152.84 129.62 153.47 130.25 Z M 154.18 130.96 L 154.88 131.67 C 155.52 132.31 156.55 132.31 157.19 131.68 C 157.82 131.05 157.83 130.02 157.19 129.38 L 156.49 128.67 C 155.86 128.03 154.83 128.03 154.19 128.66 C 153.55 129.29 153.55 130.33 154.18 130.96 Z M 154.88 131.67 L 155.08 131.87 C 155.72 132.51 156.75 132.51 157.38 131.88 C 158.02 131.25 158.02 130.22 157.39 129.58 L 157.19 129.38 C 156.56 128.74 155.53 128.74 154.89 129.37 C 154.26 130.00 154.25 131.03 154.88 131.67 Z"
      fill="black"
      fill-rule="nonzero" /><path d="M 150.25 146.50 L 150.04 147.38 C 149.81 148.27 150.36 149.18 151.25 149.41 C 152.15 149.63 153.06 149.08 153.28 148.19 L 153.50 147.31 C 153.72 146.42 153.18 145.51 152.28 145.28 C 151.39 145.06 150.48 145.61 150.25 146.50 Z M 149.94 147.42 L 149.74 148.38 C 149.54 149.32 150.15 150.25 151.09 150.46 C 152.04 150.66 152.97 150.05 153.17 149.10 L 153.37 148.15 C 153.57 147.20 152.97 146.27 152.02 146.07 C 151.07 145.87 150.14 146.47 149.94 147.42 Z M 149.64 148.47 L 149.48 149.57 C 149.33 150.57 150.02 151.51 151.02 151.66 C 152.02 151.81 152.96 151.12 153.11 150.12 L 153.27 149.01 C 153.42 148.01 152.73 147.07 151.73 146.92 C 150.73 146.77 149.79 147.46 149.64 148.47 Z M 149.42 149.66 L 149.33 150.64 C 149.23 151.67 149.98 152.59 151.02 152.69 C 152.05 152.79 152.96 152.03 153.06 151.00 L 153.16 150.02 C 153.26 148.99 152.50 148.08 151.47 147.98 C 150.44 147.88 149.52 148.63 149.42 149.66 Z M 149.32 150.70 L 149.26 151.74 C 149.19 152.77 149.97 153.66 151.00 153.73 C 152.04 153.80 152.93 153.02 153.00 151.99 L 153.07 150.95 C 153.14 149.91 152.35 149.02 151.32 148.95 C 150.29 148.88 149.39 149.67 149.32 150.70 Z M 149.25 151.77 L 149.21 152.80 C 149.16 153.83 149.96 154.71 150.99 154.76 C 152.03 154.81 152.90 154.01 152.95 152.97 L 153.00 151.95 C 153.05 150.91 152.25 150.04 151.21 149.99 C 150.18 149.94 149.30 150.74 149.25 151.77 Z M 149.21 152.83 L 149.17 153.81 C 149.14 154.84 149.95 155.71 150.99 155.74 C 152.02 155.78 152.89 154.96 152.92 153.93 L 152.95 152.95 C 152.99 151.91 152.18 151.05 151.14 151.01 C 150.11 150.98 149.24 151.79 149.21 152.83 Z M 149.18 153.83 L 149.16 154.94 C 149.14 155.98 149.96 156.83 150.99 156.85 C 152.02 156.87 152.87 156.05 152.89 155.02 L 152.92 153.90 C 152.94 152.87 152.12 152.02 151.08 152.00 C 150.05 151.98 149.20 152.80 149.18 153.83 Z M 149.16 154.97 L 149.16 155.90 C 149.15 156.93 149.98 157.77 151.01 157.77 C 152.03 157.78 152.87 156.95 152.88 155.92 L 152.89 154.99 C 152.89 153.97 152.07 153.13 151.04 153.12 C 150.01 153.11 149.17 153.94 149.16 154.97 Z M 149.17 155.91 L 149.17 156.83 C 149.17 157.85 150.00 158.68 151.02 158.68 C 152.04 158.68 152.87 157.85 152.87 156.83 L 152.87 155.91 C 152.87 154.89 152.04 154.06 151.02 154.06 C 150.00 154.06 149.17 154.89 149.17 155.91 Z M 149.18 156.83 L 149.18 157.82 C 149.18 158.84 150.00 159.66 151.02 159.66 C 152.04 159.66 152.86 158.84 152.86 157.82 L 152.86 156.83 C 152.86 155.81 152.04 154.99 151.02 154.99 C 150.00 154.99 149.18 155.81 149.18 156.83 Z M 149.19 157.82 L 149.19 158.83 C 149.19 159.85 150.01 160.67 151.02 160.67 C 152.03 160.67 152.85 159.85 152.85 158.83 L 152.85 157.82 C 152.85 156.81 152.03 155.99 151.02 155.99 C 150.01 155.99 149.19 156.81 149.19 157.82 Z M 149.20 158.83 L 149.20 159.82 C 149.20 160.83 150.01 161.64 151.02 161.64 C 152.02 161.64 152.84 160.83 152.84 159.82 L 152.84 158.83 C 152.84 157.83 152.02 157.01 151.02 157.01 C 150.01 157.01 149.20 157.83 149.20 158.83 Z M 149.21 159.82 L 149.21 160.83 C 149.21 161.83 150.02 162.64 151.02 162.64 C 152.02 162.64 152.83 161.83 152.83 160.83 L 152.83 159.82 C 152.83 158.82 152.02 158.01 151.02 158.01 C 150.02 158.01 149.21 158.82 149.21 159.82 Z M 149.22 160.83 L 149.22 161.84 C 149.22 162.83 150.03 163.64 151.02 163.64 C 152.01 163.64 152.82 162.83 152.82 161.84 L 152.82 160.83 C 152.82 159.84 152.01 159.03 151.02 159.03 C 150.03 159.03 149.22 159.84 149.22 160.83 Z M 149.23 161.84 L 149.23 162.84 C 149.23 163.83 150.03 164.63 151.02 164.63 C 152.00 164.63 152.80 163.83 152.80 162.84 L 152.80 161.84 C 152.80 160.85 152.00 160.05 151.02 160.05 C 150.03 160.05 149.23 160.85 149.23 161.84 Z M 149.25 162.84 L 149.25 163.84 C 149.25 164.81 150.04 165.61 151.02 165.61 C 152.00 165.61 152.79 164.81 152.79 163.84 L 152.79 162.84 C 152.79 161.87 152.00 161.07 151.02 161.07 C 150.04 161.07 149.25 161.87 149.25 162.84 Z M 149.27 163.84 L 149.27 164.75 C 149.27 165.72 150.05 166.50 151.02 166.50 C 151.99 166.50 152.77 165.72 152.77 164.75 L 152.77 163.84 C 152.77 162.87 151.99 162.08 151.02 162.08 C 150.05 162.08 149.27 162.87 149.27 163.84 Z M 149.28 164.75 L 149.28 165.73 C 149.28 166.70 150.06 167.47 151.02 167.47 C 151.98 167.47 152.76 166.70 152.76 165.73 L 152.76 164.75 C 152.76 163.79 151.98 163.01 151.02 163.01 C 150.06 163.01 149.28 163.79 149.28 164.75 Z M 149.29 165.73 L 149.29 166.81 C 149.29 167.77 150.07 168.54 151.02 168.54 C 151.97 168.54 152.74 167.77 152.74 166.81 L 152.74 165.73 C 152.74 164.78 151.97 164.01 151.02 164.01 C 150.07 164.01 149.29 164.78 149.29 165.73 Z M 149.31 166.82 L 149.31 167.76 C 149.31 168.71 150.08 169.47 151.02 169.47 C 151.97 169.47 152.73 168.70 152.73 167.76 L 152.73 166.81 C 152.73 165.86 151.96 165.10 151.02 165.10 C 150.07 165.10 149.31 165.87 149.31 166.82 Z M 149.32 167.77 L 149.33 168.79 C 149.34 169.73 150.10 170.49 151.04 170.48 C 151.98 170.47 152.73 169.71 152.73 168.77 L 152.72 167.75 C 152.71 166.81 151.95 166.06 151.01 166.06 C 150.07 166.07 149.31 166.84 149.32 167.77 Z M 149.34 168.81 L 149.36 169.85 C 149.38 170.78 150.15 171.52 151.08 171.51 C 152.01 171.49 152.75 170.72 152.73 169.79 L 152.72 168.75 C 152.70 167.82 151.93 167.08 151.00 167.09 C 150.07 167.11 149.32 167.88 149.34 168.81 Z M 149.37 169.88 L 149.41 170.91 C 149.44 171.84 150.22 172.56 151.14 172.53 C 152.06 172.50 152.79 171.72 152.75 170.80 L 152.72 169.76 C 152.69 168.84 151.91 168.12 150.99 168.15 C 150.07 168.18 149.34 168.95 149.37 169.88 Z M 149.43 170.95 L 149.49 171.97 C 149.54 172.88 150.32 173.58 151.23 173.53 C 152.14 173.48 152.84 172.70 152.79 171.79 L 152.73 170.77 C 152.68 169.86 151.90 169.16 150.99 169.21 C 150.08 169.26 149.38 170.03 149.43 170.95 Z M 149.51 172.00 L 149.58 172.98 C 149.64 173.88 150.42 174.56 151.32 174.50 C 152.22 174.43 152.90 173.65 152.83 172.76 L 152.76 171.77 C 152.70 170.87 151.92 170.19 151.02 170.26 C 150.13 170.32 149.45 171.10 149.51 172.00 Z M 149.61 173.00 L 149.68 173.96 C 149.75 174.85 150.53 175.51 151.41 175.44 C 152.29 175.37 152.95 174.59 152.88 173.71 L 152.81 172.74 C 152.74 171.86 151.96 171.20 151.08 171.27 C 150.20 171.34 149.54 172.11 149.61 173.00 Z M 149.70 173.97 L 149.72 174.22 C 149.79 175.10 150.56 175.75 151.43 175.68 C 152.31 175.61 152.96 174.84 152.89 173.96 L 152.87 173.71 C 152.80 172.83 152.03 172.18 151.15 172.25 C 150.28 172.32 149.63 173.09 149.70 173.97 Z"
      fill="black"
      fill-rule="nonzero" /><path d="M 150.01 156.52 L 150.68 155.87 C 151.39 155.17 151.40 154.03 150.70 153.32 C 150.00 152.61 148.86 152.60 148.15 153.30 L 147.48 153.96 C 146.78 154.65 146.77 155.80 147.46 156.50 C 148.16 157.21 149.30 157.22 150.01 156.52 Z M 150.66 155.96 L 151.41 155.29 C 152.17 154.60 152.23 153.43 151.54 152.66 C 150.85 151.90 149.67 151.84 148.91 152.53 L 148.17 153.20 C 147.40 153.89 147.35 155.07 148.04 155.83 C 148.73 156.59 149.90 156.65 150.66 155.96 Z M 151.34 155.40 L 152.14 154.77 C 152.97 154.11 153.10 152.92 152.45 152.09 C 151.80 151.27 150.60 151.13 149.78 151.78 L 148.97 152.42 C 148.15 153.07 148.01 154.27 148.67 155.09 C 149.32 155.92 150.52 156.06 151.34 155.40 Z M 152.06 154.84 L 152.85 154.28 C 153.71 153.67 153.92 152.48 153.31 151.62 C 152.70 150.76 151.51 150.55 150.65 151.16 L 149.86 151.72 C 149.00 152.32 148.79 153.52 149.40 154.38 C 150.01 155.24 151.20 155.44 152.06 154.84 Z M 152.78 154.31 L 153.64 153.75 C 154.51 153.18 154.76 152.01 154.19 151.13 C 153.62 150.26 152.45 150.01 151.58 150.58 L 150.72 151.13 C 149.84 151.70 149.59 152.87 150.16 153.75 C 150.73 154.63 151.90 154.88 152.78 154.31 Z M 153.58 153.77 L 154.47 153.22 C 155.36 152.69 155.65 151.54 155.11 150.65 C 154.57 149.76 153.42 149.48 152.54 150.01 L 151.64 150.56 C 150.75 151.09 150.47 152.24 151.00 153.13 C 151.54 154.02 152.69 154.30 153.58 153.77 Z M 154.42 153.24 L 155.35 152.71 C 156.24 152.21 156.56 151.07 156.05 150.18 C 155.55 149.29 154.42 148.97 153.52 149.48 L 152.59 150.00 C 151.70 150.51 151.38 151.64 151.89 152.53 C 152.39 153.43 153.53 153.74 154.42 153.24 Z M 155.30 152.72 L 156.20 152.24 C 157.10 151.76 157.44 150.64 156.97 149.75 C 156.49 148.85 155.37 148.51 154.47 148.99 L 153.57 149.47 C 152.67 149.95 152.33 151.06 152.81 151.96 C 153.29 152.86 154.40 153.20 155.30 152.72 Z M 156.16 152.24 L 157.01 151.82 C 157.91 151.36 158.27 150.27 157.81 149.36 C 157.36 148.46 156.26 148.10 155.36 148.56 L 154.52 148.98 C 153.62 149.44 153.26 150.53 153.71 151.43 C 154.16 152.33 155.26 152.70 156.16 152.24 Z M 156.96 151.82 L 157.90 151.38 C 158.80 150.95 159.18 149.87 158.76 148.96 C 158.33 148.06 157.24 147.68 156.34 148.11 L 155.41 148.55 C 154.50 148.98 154.12 150.06 154.55 150.96 C 154.98 151.87 156.06 152.25 156.96 151.82 Z M 157.86 151.38 L 158.75 150.98 C 159.66 150.58 160.06 149.51 159.65 148.60 C 159.25 147.70 158.18 147.29 157.28 147.70 L 156.38 148.10 C 155.47 148.51 155.07 149.57 155.48 150.48 C 155.88 151.39 156.95 151.79 157.86 151.38 Z M 158.73 150.98 L 159.59 150.60 C 160.50 150.20 160.91 149.14 160.51 148.24 C 160.11 147.34 159.05 146.93 158.15 147.33 L 157.29 147.70 C 156.39 148.10 155.98 149.16 156.37 150.06 C 156.77 150.97 157.83 151.38 158.73 150.98 Z M 159.59 150.59 L 160.49 150.19 C 161.39 149.80 161.80 148.74 161.40 147.84 C 161.00 146.94 159.95 146.54 159.05 146.93 L 158.15 147.33 C 157.25 147.73 156.84 148.78 157.24 149.68 C 157.64 150.58 158.69 150.99 159.59 150.59 Z M 160.46 150.20 L 161.40 149.80 C 162.31 149.42 162.73 148.38 162.35 147.48 C 161.97 146.58 160.93 146.15 160.03 146.53 L 159.08 146.93 C 158.18 147.31 157.76 148.35 158.14 149.25 C 158.52 150.16 159.56 150.58 160.46 150.20 Z M 161.35 149.82 L 162.29 149.45 C 163.20 149.10 163.65 148.08 163.30 147.17 C 162.95 146.26 161.92 145.80 161.01 146.16 L 160.08 146.52 C 159.17 146.87 158.71 147.89 159.07 148.81 C 159.42 149.72 160.44 150.17 161.35 149.82 Z M 162.25 149.46 L 163.20 149.11 C 164.11 148.78 164.58 147.77 164.25 146.86 C 163.92 145.94 162.90 145.47 161.99 145.81 L 161.05 146.15 C 160.13 146.48 159.66 147.50 160.00 148.41 C 160.33 149.32 161.34 149.79 162.25 149.46 Z M 163.19 149.11 L 164.14 148.77 C 165.05 148.45 165.52 147.44 165.20 146.53 C 164.87 145.61 163.86 145.14 162.95 145.47 L 162.00 145.81 C 161.09 146.14 160.61 147.14 160.94 148.05 C 161.27 148.97 162.27 149.44 163.19 149.11 Z M 164.14 148.77 L 165.08 148.43 C 165.99 148.10 166.46 147.10 166.13 146.19 C 165.80 145.28 164.80 144.81 163.89 145.13 L 162.95 145.47 C 162.04 145.80 161.57 146.80 161.90 147.71 C 162.22 148.62 163.23 149.09 164.14 148.77 Z M 165.08 148.42 L 165.95 148.11 C 166.86 147.78 167.33 146.77 167.00 145.87 C 166.67 144.96 165.67 144.49 164.76 144.82 L 163.89 145.14 C 162.98 145.47 162.51 146.47 162.84 147.38 C 163.17 148.29 164.17 148.75 165.08 148.42 Z M 165.93 148.11 L 166.74 147.83 C 167.65 147.51 168.13 146.51 167.82 145.60 C 167.50 144.69 166.50 144.22 165.59 144.53 L 164.78 144.82 C 163.87 145.14 163.39 146.13 163.71 147.04 C 164.03 147.95 165.02 148.43 165.93 148.11 Z M 166.68 147.85 L 167.69 147.54 C 168.61 147.26 169.13 146.28 168.85 145.36 C 168.57 144.44 167.59 143.93 166.67 144.21 L 165.66 144.51 C 164.74 144.79 164.22 145.77 164.50 146.69 C 164.78 147.61 165.76 148.13 166.68 147.85 Z M 167.62 147.55 L 168.66 147.28 C 169.59 147.04 170.14 146.09 169.90 145.16 C 169.66 144.23 168.71 143.68 167.78 143.92 L 166.74 144.19 C 165.81 144.43 165.26 145.38 165.50 146.31 C 165.74 147.24 166.69 147.80 167.62 147.55 Z M 168.61 147.29 L 169.56 147.07 C 170.49 146.85 171.07 145.92 170.85 144.99 C 170.64 144.06 169.71 143.48 168.78 143.70 L 167.83 143.92 C 166.90 144.13 166.32 145.06 166.54 145.99 C 166.75 146.92 167.68 147.50 168.61 147.29 Z M 169.52 147.07 L 170.53 146.86 C 171.46 146.67 172.06 145.76 171.87 144.83 C 171.68 143.89 170.77 143.30 169.84 143.49 L 168.82 143.70 C 167.89 143.89 167.29 144.80 167.48 145.73 C 167.68 146.66 168.58 147.26 169.52 147.07 Z M 170.49 146.86 L 171.52 146.67 C 172.45 146.51 173.07 145.62 172.90 144.69 C 172.74 143.76 171.85 143.14 170.92 143.30 L 169.89 143.49 C 168.96 143.65 168.34 144.54 168.50 145.47 C 168.67 146.40 169.56 147.02 170.49 146.86 Z M 171.46 146.67 L 172.45 146.53 C 173.38 146.40 174.03 145.54 173.90 144.61 C 173.76 143.68 172.90 143.03 171.97 143.16 L 170.98 143.30 C 170.05 143.44 169.40 144.30 169.53 145.23 C 169.67 146.16 170.53 146.81 171.46 146.67 Z M 172.35 146.55 L 173.54 146.45 C 174.48 146.38 175.18 145.56 175.11 144.62 C 175.03 143.68 174.21 142.98 173.27 143.05 L 172.08 143.15 C 171.14 143.22 170.44 144.04 170.51 144.98 C 170.58 145.92 171.41 146.62 172.35 146.55 Z M 173.34 146.48 L 174.36 146.52 C 175.31 146.55 176.11 145.81 176.15 144.86 C 176.18 143.90 175.44 143.10 174.49 143.07 L 173.47 143.03 C 172.52 142.99 171.72 143.74 171.68 144.69 C 171.65 145.64 172.39 146.44 173.34 146.48 Z M 174.03 146.49 L 174.87 146.68 C 175.80 146.90 176.74 146.31 176.96 145.37 C 177.17 144.43 176.59 143.50 175.65 143.28 L 174.81 143.09 C 173.87 142.87 172.94 143.46 172.72 144.40 C 172.51 145.34 173.09 146.28 174.03 146.49 Z M 174.34 146.50 L 175.10 146.95 C 175.94 147.46 177.02 147.19 177.53 146.35 C 178.03 145.52 177.76 144.43 176.93 143.93 L 176.17 143.47 C 175.33 142.97 174.25 143.24 173.74 144.07 C 173.24 144.91 173.51 145.99 174.34 146.50 Z M 174.60 146.53 L 175.19 147.29 C 175.79 148.08 176.91 148.22 177.70 147.62 C 178.48 147.01 178.62 145.89 178.02 145.11 L 177.43 144.35 C 176.83 143.56 175.70 143.42 174.92 144.02 C 174.14 144.63 173.99 145.75 174.60 146.53 Z M 174.94 146.93 L 175.36 147.89 C 175.77 148.81 176.84 149.22 177.75 148.82 C 178.67 148.42 179.09 147.35 178.68 146.43 L 178.26 145.47 C 177.86 144.55 176.79 144.14 175.87 144.54 C 174.95 144.94 174.54 146.01 174.94 146.93 Z M 175.27 147.71 L 175.53 148.54 C 175.84 149.51 176.87 150.04 177.84 149.74 C 178.80 149.44 179.34 148.40 179.04 147.44 L 178.78 146.61 C 178.47 145.64 177.44 145.10 176.47 145.41 C 175.50 145.71 174.97 146.74 175.27 147.71 Z M 175.47 148.42 L 175.70 149.36 C 175.93 150.36 176.94 150.97 177.94 150.74 C 178.94 150.50 179.55 149.50 179.32 148.50 L 179.09 147.56 C 178.86 146.56 177.86 145.94 176.86 146.18 C 175.86 146.41 175.24 147.42 175.47 148.42 Z M 175.65 149.25 L 175.84 150.32 C 176.01 151.34 176.99 152.03 178.01 151.85 C 179.03 151.68 179.72 150.71 179.55 149.68 L 179.36 148.61 C 179.19 147.58 178.21 146.90 177.19 147.07 C 176.16 147.25 175.48 148.22 175.65 149.25 Z M 175.80 150.23 L 175.93 151.28 C 176.06 152.32 177.01 153.06 178.05 152.94 C 179.09 152.81 179.84 151.86 179.71 150.82 L 179.58 149.77 C 179.46 148.72 178.51 147.98 177.46 148.11 C 176.42 148.24 175.67 149.19 175.80 150.23 Z M 175.90 151.22 L 175.99 152.20 C 176.08 153.26 177.02 154.04 178.08 153.94 C 179.14 153.85 179.92 152.91 179.83 151.85 L 179.74 150.88 C 179.65 149.81 178.71 149.03 177.65 149.13 C 176.59 149.22 175.80 150.16 175.90 151.22 Z M 175.96 152.16 L 176.03 153.17 C 176.10 154.25 177.03 155.06 178.11 154.99 C 179.18 154.92 179.99 153.99 179.92 152.91 L 179.85 151.89 C 179.78 150.82 178.85 150.00 177.78 150.08 C 176.70 150.15 175.89 151.08 175.96 152.16 Z M 176.00 153.14 L 176.05 154.17 C 176.11 155.26 177.04 156.10 178.13 156.04 C 179.22 155.99 180.06 155.06 180.00 153.97 L 179.95 152.94 C 179.89 151.85 178.96 151.02 177.88 151.07 C 176.79 151.13 175.95 152.05 176.00 153.14 Z M 176.03 154.15 L 176.07 155.15 C 176.11 156.26 177.04 157.12 178.14 157.08 C 179.24 157.03 180.10 156.11 180.06 155.00 L 180.02 154.00 C 179.98 152.89 179.06 152.03 177.95 152.07 C 176.85 152.12 175.99 153.04 176.03 154.15 Z M 176.05 155.13 L 176.07 156.17 C 176.10 157.29 177.03 158.17 178.14 158.14 C 179.26 158.11 180.14 157.18 180.11 156.07 L 180.08 155.03 C 180.05 153.91 179.13 153.03 178.01 153.06 C 176.90 153.09 176.02 154.02 176.05 155.13 Z M 176.06 156.15 L 176.08 157.16 C 176.09 158.28 177.02 159.18 178.14 159.16 C 179.26 159.15 180.15 158.22 180.14 157.10 L 180.12 156.09 C 180.10 154.97 179.18 154.07 178.06 154.09 C 176.94 154.11 176.05 155.03 176.06 156.15 Z M 176.07 157.14 L 176.07 158.12 C 176.08 159.25 176.99 160.16 178.12 160.15 C 179.25 160.15 180.16 159.23 180.15 158.10 L 180.15 157.12 C 180.14 156.00 179.22 155.09 178.10 155.09 C 176.97 155.10 176.06 156.01 176.07 157.14 Z M 176.06 158.10 L 176.06 159.08 C 176.05 160.21 176.96 161.13 178.10 161.13 C 179.23 161.14 180.15 160.23 180.16 159.09 L 180.16 158.12 C 180.17 156.99 179.25 156.07 178.12 156.06 C 176.99 156.06 176.06 156.97 176.06 158.10 Z M 176.05 159.06 L 176.04 160.04 C 176.02 161.18 176.94 162.11 178.07 162.12 C 179.21 162.14 180.15 161.22 180.16 160.08 L 180.17 159.11 C 180.18 157.97 179.27 157.04 178.13 157.02 C 176.99 157.01 176.06 157.92 176.05 159.06 Z M 176.03 160.02 L 176.01 161.01 C 175.98 162.16 176.89 163.10 178.04 163.12 C 179.18 163.15 180.12 162.24 180.15 161.10 L 180.17 160.10 C 180.19 158.96 179.28 158.01 178.14 157.99 C 176.99 157.97 176.05 158.88 176.03 160.02 Z M 176.00 160.98 L 175.96 161.98 C 175.92 163.13 176.82 164.10 177.96 164.14 C 179.11 164.18 180.08 163.28 180.12 162.13 L 180.15 161.13 C 180.20 159.98 179.30 159.02 178.15 158.98 C 177.00 158.93 176.04 159.83 176.00 160.98 Z M 175.96 161.93 L 175.89 162.94 C 175.82 164.09 176.70 165.08 177.85 165.15 C 179.00 165.22 179.99 164.35 180.06 163.19 L 180.12 162.19 C 180.20 161.04 179.32 160.05 178.17 159.97 C 177.02 159.90 176.03 160.78 175.96 161.93 Z M 175.89 162.87 L 175.80 163.86 C 175.68 165.01 176.53 166.04 177.68 166.15 C 178.84 166.26 179.86 165.41 179.97 164.26 L 180.07 163.27 C 180.18 162.11 179.33 161.09 178.18 160.98 C 177.03 160.87 176.00 161.71 175.89 162.87 Z M 175.80 163.77 L 175.67 164.72 C 175.51 165.87 176.32 166.93 177.47 167.09 C 178.62 167.25 179.68 166.44 179.84 165.29 L 179.97 164.34 C 180.12 163.19 179.32 162.13 178.17 161.97 C 177.01 161.82 175.95 162.62 175.80 163.77 Z M 175.67 164.65 L 175.51 165.60 C 175.31 166.75 176.08 167.84 177.23 168.04 C 178.38 168.24 179.47 167.47 179.67 166.32 L 179.83 165.36 C 180.03 164.21 179.26 163.12 178.11 162.92 C 176.96 162.73 175.87 163.50 175.67 164.65 Z M 175.51 165.54 L 175.32 166.52 C 175.08 167.66 175.82 168.78 176.97 169.01 C 178.12 169.24 179.23 168.50 179.47 167.36 L 179.67 166.38 C 179.90 165.23 179.16 164.11 178.01 163.88 C 176.87 163.65 175.75 164.39 175.51 165.54 Z M 175.32 166.47 L 175.09 167.49 C 174.83 168.64 175.55 169.77 176.69 170.03 C 177.83 170.29 178.97 169.57 179.23 168.43 L 179.46 167.41 C 179.72 166.26 179.00 165.12 177.86 164.86 C 176.72 164.61 175.58 165.32 175.32 166.47 Z M 175.09 167.46 L 174.84 168.49 C 174.56 169.63 175.26 170.78 176.41 171.06 C 177.55 171.34 178.70 170.63 178.98 169.49 L 179.23 168.46 C 179.51 167.32 178.80 166.17 177.66 165.89 C 176.52 165.61 175.37 166.32 175.09 167.46 Z M 174.84 168.46 L 174.58 169.49 C 174.29 170.63 174.98 171.79 176.12 172.08 C 177.26 172.37 178.42 171.68 178.72 170.54 L 178.98 169.51 C 179.27 168.37 178.58 167.21 177.44 166.92 C 176.29 166.63 175.13 167.32 174.84 168.46 Z M 174.58 169.46 L 174.31 170.48 C 174.01 171.62 174.69 172.79 175.82 173.10 C 176.96 173.40 178.14 172.73 178.44 171.59 L 178.71 170.57 C 179.02 169.43 178.34 168.26 177.20 167.95 C 176.06 167.65 174.89 168.32 174.58 169.46 Z M 174.32 170.45 L 174.04 171.42 C 173.72 172.56 174.39 173.74 175.52 174.06 C 176.66 174.38 177.84 173.72 178.16 172.58 L 178.43 171.61 C 178.76 170.48 178.09 169.30 176.96 168.98 C 175.82 168.66 174.64 169.32 174.32 170.45 Z M 174.05 171.39 L 173.79 172.26 C 173.45 173.39 174.09 174.59 175.22 174.93 C 176.36 175.27 177.55 174.63 177.89 173.49 L 178.15 172.62 C 178.50 171.49 177.85 170.29 176.72 169.95 C 175.59 169.61 174.39 170.25 174.05 171.39 Z M 173.81 172.19 L 173.44 173.27 C 173.06 174.39 173.66 175.60 174.78 175.98 C 175.90 176.37 177.12 175.77 177.50 174.65 L 177.87 173.57 C 178.25 172.45 177.65 171.23 176.53 170.85 C 175.41 170.47 174.19 171.07 173.81 172.19 Z M 173.52 173.08 L 173.11 173.99 C 172.62 175.07 173.10 176.34 174.18 176.82 C 175.26 177.31 176.53 176.83 177.02 175.75 L 177.43 174.83 C 177.91 173.76 177.43 172.49 176.35 172.00 C 175.27 171.52 174.01 172.00 173.52 173.08 Z M 173.30 173.66 L 172.83 174.34 C 172.16 175.31 172.41 176.64 173.39 177.31 C 174.36 177.98 175.69 177.73 176.36 176.76 L 176.83 176.08 C 177.50 175.11 177.25 173.77 176.27 173.10 C 175.30 172.44 173.97 172.68 173.30 173.66 Z M 173.18 173.95 L 172.41 174.64 C 171.53 175.42 171.44 176.77 172.23 177.65 C 173.01 178.53 174.36 178.61 175.24 177.83 L 176.01 177.14 C 176.89 176.36 176.98 175.01 176.19 174.13 C 175.41 173.25 174.07 173.17 173.18 173.95 Z M 173.16 174.22 L 172.27 174.51 C 171.16 174.87 170.55 176.07 170.91 177.18 C 171.28 178.30 172.48 178.90 173.59 178.54 L 174.48 178.25 C 175.60 177.89 176.20 176.69 175.84 175.57 C 175.48 174.46 174.28 173.85 173.16 174.22 Z M 173.72 174.62 L 172.90 174.28 C 171.85 173.84 170.64 174.34 170.20 175.40 C 169.77 176.45 170.27 177.66 171.32 178.10 L 172.14 178.43 C 173.20 178.87 174.40 178.37 174.84 177.31 C 175.28 176.26 174.77 175.05 173.72 174.62 Z M 173.57 174.88 L 172.88 174.10 C 172.16 173.30 170.92 173.23 170.11 173.95 C 169.30 174.67 169.24 175.91 169.96 176.72 L 170.65 177.50 C 171.38 178.30 172.62 178.37 173.42 177.65 C 174.23 176.92 174.30 175.68 173.57 174.88 Z M 173.00 174.45 L 172.50 173.63 C 171.97 172.75 170.83 172.48 169.96 173.01 C 169.08 173.54 168.81 174.68 169.34 175.55 L 169.84 176.37 C 170.37 177.25 171.51 177.52 172.38 176.99 C 173.25 176.46 173.53 175.32 173.00 174.45 Z M 172.50 173.86 L 172.10 172.99 C 171.70 172.11 170.66 171.73 169.79 172.13 C 168.91 172.54 168.53 173.57 168.93 174.44 L 169.34 175.32 C 169.74 176.19 170.77 176.57 171.65 176.17 C 172.52 175.77 172.90 174.73 172.50 173.86 Z M 172.06 173.13 L 171.68 172.13 C 171.36 171.28 170.41 170.85 169.56 171.17 C 168.70 171.49 168.27 172.44 168.59 173.29 L 168.97 174.30 C 169.29 175.15 170.24 175.58 171.10 175.26 C 171.95 174.94 172.38 173.99 172.06 173.13 Z M 171.68 172.18 L 171.39 171.32 C 171.09 170.46 170.17 170.01 169.31 170.30 C 168.46 170.59 168.00 171.52 168.30 172.38 L 168.59 173.24 C 168.89 174.10 169.82 174.55 170.67 174.26 C 171.52 173.97 171.98 173.04 171.68 172.18 Z M 171.44 171.32 L 171.12 170.36 C 170.83 169.48 169.88 169.01 169.00 169.29 C 168.12 169.58 167.64 170.53 167.93 171.41 L 168.25 172.37 C 168.54 173.25 169.49 173.73 170.37 173.44 C 171.25 173.15 171.73 172.20 171.44 171.32 Z M 171.17 170.36 L 170.84 169.35 C 170.55 168.44 169.58 167.95 168.67 168.24 C 167.77 168.53 167.27 169.50 167.56 170.40 L 167.89 171.42 C 168.18 172.32 169.15 172.82 170.05 172.53 C 170.96 172.24 171.46 171.27 171.17 170.36 Z M 170.87 169.34 L 170.71 168.83 C 170.41 167.90 169.43 167.39 168.50 167.69 C 167.58 167.98 167.07 168.97 167.36 169.90 L 167.53 170.41 C 167.82 171.33 168.81 171.84 169.74 171.55 C 170.66 171.25 171.17 170.27 170.87 169.34 Z"
      fill="black"
      fill-rule="nonzero" /><path d="M 163.46 121.69 L 163.51 120.37 C 163.55 119.41 162.80 118.60 161.84 118.56 C 160.88 118.53 160.07 119.28 160.04 120.24 L 159.99 121.56 C 159.95 122.52 160.70 123.32 161.66 123.36 C 162.62 123.40 163.43 122.65 163.46 121.69 Z M 163.64 120.41 L 163.69 119.63 C 163.75 118.59 162.97 117.71 161.94 117.64 C 160.90 117.58 160.02 118.37 159.95 119.40 L 159.91 120.19 C 159.84 121.22 160.63 122.11 161.66 122.17 C 162.69 122.23 163.58 121.45 163.64 120.41 Z M 159.89 119.82 L 159.95 120.19 C 160.12 121.26 161.12 121.98 162.18 121.82 C 163.25 121.65 163.98 120.65 163.81 119.58 L 163.75 119.21 C 163.59 118.14 162.59 117.41 161.52 117.58 C 160.45 117.75 159.72 118.75 159.89 119.82 Z M 159.91 119.99 L 159.98 121.29 C 160.04 122.38 160.97 123.22 162.06 123.16 C 163.15 123.10 163.98 122.17 163.93 121.08 L 163.86 119.78 C 163.80 118.69 162.86 117.85 161.77 117.91 C 160.68 117.97 159.85 118.90 159.91 119.99 Z M 159.97 121.31 L 160.03 122.32 C 160.10 123.41 161.04 124.24 162.13 124.17 C 163.23 124.11 164.06 123.17 163.99 122.07 L 163.93 121.07 C 163.86 119.97 162.92 119.14 161.83 119.21 C 160.74 119.27 159.91 120.21 159.97 121.31 Z M 160.03 122.33 L 160.10 123.34 C 160.18 124.43 161.12 125.26 162.22 125.18 C 163.31 125.11 164.14 124.16 164.06 123.07 L 163.99 122.06 C 163.92 120.97 162.97 120.14 161.88 120.21 C 160.78 120.29 159.96 121.24 160.03 122.33 Z M 160.10 123.35 L 160.17 124.35 C 160.25 125.44 161.21 126.27 162.30 126.19 C 163.40 126.10 164.22 125.15 164.14 124.06 L 164.06 123.06 C 163.98 121.96 163.03 121.14 161.94 121.22 C 160.84 121.30 160.02 122.26 160.10 123.35 Z M 160.17 124.35 L 160.24 125.33 C 160.32 126.43 161.28 127.25 162.37 127.17 C 163.47 127.09 164.29 126.14 164.21 125.04 L 164.14 124.06 C 164.06 122.96 163.10 122.14 162.01 122.22 C 160.91 122.30 160.09 123.25 160.17 124.35 Z M 160.24 125.31 L 160.30 126.29 C 160.37 127.39 161.31 128.22 162.41 128.16 C 163.51 128.09 164.34 127.14 164.28 126.05 L 164.21 125.06 C 164.15 123.97 163.20 123.13 162.11 123.20 C 161.01 123.27 160.17 124.21 160.24 125.31 Z M 160.30 126.26 L 160.34 127.20 C 160.39 128.30 161.32 129.15 162.42 129.10 C 163.52 129.05 164.37 128.12 164.32 127.02 L 164.28 126.08 C 164.23 124.98 163.30 124.13 162.20 124.18 C 161.10 124.23 160.25 125.16 160.30 126.26 Z M 160.34 127.18 L 160.38 128.20 C 160.42 129.30 161.34 130.16 162.44 130.12 C 163.54 130.08 164.40 129.16 164.36 128.06 L 164.32 127.04 C 164.28 125.94 163.36 125.08 162.26 125.12 C 161.16 125.16 160.30 126.08 160.34 127.18 Z M 160.38 128.19 L 160.41 129.22 C 160.45 130.32 161.37 131.18 162.47 131.15 C 163.57 131.11 164.43 130.19 164.39 129.09 L 164.36 128.06 C 164.32 126.96 163.40 126.10 162.30 126.14 C 161.20 126.17 160.34 127.09 160.38 128.19 Z M 160.41 129.22 L 160.44 130.18 C 160.47 131.28 161.39 132.15 162.49 132.11 C 163.59 132.08 164.46 131.16 164.42 130.06 L 164.39 129.09 C 164.36 127.99 163.44 127.13 162.34 127.16 C 161.24 127.20 160.38 128.12 160.41 129.22 Z M 160.44 130.17 L 160.47 131.18 C 160.49 132.28 161.41 133.15 162.51 133.12 C 163.61 133.09 164.48 132.18 164.45 131.08 L 164.42 130.07 C 164.39 128.97 163.48 128.10 162.38 128.13 C 161.28 128.16 160.41 129.07 160.44 130.17 Z M 160.47 131.17 L 160.49 132.21 C 160.51 133.31 161.42 134.19 162.52 134.17 C 163.62 134.15 164.49 133.24 164.47 132.14 L 164.45 131.09 C 164.43 129.99 163.52 129.12 162.42 129.14 C 161.32 129.16 160.44 130.07 160.47 131.17 Z M 160.49 132.20 L 160.50 133.17 C 160.51 134.27 161.41 135.15 162.51 135.14 C 163.61 135.13 164.49 134.23 164.48 133.13 L 164.47 132.15 C 164.46 131.05 163.56 130.17 162.46 130.18 C 161.36 130.19 160.47 131.10 160.49 132.20 Z M 160.50 133.16 L 160.50 134.15 C 160.51 135.25 161.40 136.14 162.50 136.13 C 163.60 136.13 164.49 135.23 164.48 134.13 L 164.48 133.14 C 164.47 132.04 163.58 131.15 162.48 131.16 C 161.38 131.16 160.49 132.06 160.50 133.16 Z M 160.50 134.15 L 160.51 135.16 C 160.51 136.26 161.40 137.15 162.50 137.15 C 163.60 137.15 164.48 136.26 164.48 135.16 L 164.48 134.14 C 164.48 133.04 163.59 132.15 162.49 132.15 C 161.39 132.16 160.50 133.05 160.50 134.15 Z M 160.51 135.16 L 160.51 136.17 C 160.51 137.27 161.40 138.16 162.49 138.16 C 163.59 138.16 164.48 137.27 164.48 136.17 L 164.48 135.16 C 164.48 134.06 163.59 133.17 162.49 133.17 C 161.40 133.17 160.51 134.06 160.51 135.16 Z M 160.51 136.17 L 160.51 137.16 C 160.51 138.26 161.40 139.15 162.49 139.15 C 163.59 139.15 164.48 138.26 164.48 137.16 L 164.48 136.17 C 164.48 135.07 163.59 134.18 162.49 134.18 C 161.40 134.18 160.51 135.07 160.51 136.17 Z M 160.51 137.16 L 160.51 138.16 C 160.51 139.26 161.40 140.15 162.49 140.15 C 163.59 140.15 164.48 139.26 164.48 138.16 L 164.48 137.16 C 164.48 136.07 163.59 135.18 162.49 135.18 C 161.40 135.18 160.51 136.07 160.51 137.16 Z M 160.51 138.16 L 160.51 139.17 C 160.51 140.27 161.40 141.16 162.49 141.16 C 163.59 141.16 164.48 140.27 164.48 139.17 L 164.48 138.16 C 164.48 137.07 163.59 136.18 162.49 136.18 C 161.40 136.18 160.51 137.07 160.51 138.16 Z M 160.51 139.17 L 160.51 140.18 C 160.51 141.27 161.40 142.16 162.49 142.16 C 163.59 142.16 164.48 141.27 164.48 140.18 L 164.48 139.17 C 164.48 138.08 163.59 137.19 162.49 137.19 C 161.40 137.19 160.51 138.08 160.51 139.17 Z M 160.52 140.18 L 160.52 141.18 C 160.52 142.27 161.40 143.16 162.49 143.16 C 163.59 143.16 164.47 142.27 164.47 141.18 L 164.47 140.18 C 164.47 139.08 163.59 138.20 162.49 138.20 C 161.40 138.20 160.52 139.08 160.52 140.18 Z M 160.52 141.18 L 160.52 142.18 C 160.52 143.27 161.40 144.15 162.49 144.15 C 163.59 144.15 164.47 143.27 164.47 142.18 L 164.47 141.18 C 164.47 140.09 163.59 139.20 162.49 139.20 C 161.40 139.20 160.52 140.09 160.52 141.18 Z M 160.52 142.18 L 160.52 143.18 C 160.52 144.27 161.41 145.15 162.49 145.15 C 163.58 145.15 164.47 144.27 164.47 143.18 L 164.47 142.18 C 164.47 141.09 163.58 140.21 162.49 140.21 C 161.41 140.21 160.52 141.09 160.52 142.18 Z M 160.53 143.18 L 160.53 144.19 C 160.53 145.28 161.41 146.16 162.49 146.16 C 163.58 146.16 164.46 145.28 164.46 144.19 L 164.46 143.18 C 164.46 142.09 163.58 141.21 162.49 141.21 C 161.41 141.21 160.53 142.09 160.53 143.18 Z M 160.53 144.19 L 160.53 145.20 C 160.53 146.29 161.41 147.17 162.49 147.17 C 163.58 147.17 164.46 146.29 164.46 145.20 L 164.46 144.19 C 164.46 143.11 163.58 142.23 162.49 142.23 C 161.41 142.23 160.53 143.11 160.53 144.19 Z M 160.54 145.20 L 160.54 146.20 C 160.54 147.28 161.41 148.16 162.49 148.16 C 163.58 148.16 164.45 147.28 164.45 146.20 L 164.45 145.20 C 164.45 144.12 163.58 143.24 162.49 143.24 C 161.41 143.24 160.54 144.12 160.54 145.20 Z M 160.54 146.20 L 160.54 147.18 C 160.54 148.26 161.42 149.14 162.49 149.14 C 163.57 149.14 164.45 148.26 164.45 147.18 L 164.45 146.20 C 164.45 145.12 163.57 144.25 162.49 144.25 C 161.42 144.25 160.54 145.12 160.54 146.20 Z M 160.55 147.18 L 160.55 148.22 C 160.54 149.29 161.42 150.16 162.49 150.16 C 163.57 150.17 164.44 149.29 164.44 148.22 L 164.44 147.19 C 164.44 146.11 163.57 145.24 162.50 145.24 C 161.42 145.24 160.55 146.11 160.55 147.18 Z M 160.55 148.21 L 160.55 149.23 C 160.54 150.30 161.40 151.17 162.48 151.18 C 163.55 151.18 164.42 150.32 164.43 149.25 L 164.44 148.23 C 164.44 147.15 163.58 146.28 162.50 146.27 C 161.43 146.27 160.56 147.13 160.55 148.21 Z M 160.55 149.20 L 160.54 150.18 C 160.52 151.25 161.37 152.13 162.44 152.15 C 163.50 152.17 164.39 151.32 164.41 150.25 L 164.42 149.27 C 164.44 148.20 163.59 147.32 162.52 147.30 C 161.45 147.28 160.57 148.13 160.55 149.20 Z M 160.54 150.14 L 160.51 151.09 C 160.47 152.15 161.30 153.05 162.36 153.09 C 163.42 153.13 164.32 152.30 164.36 151.24 L 164.40 150.29 C 164.44 149.23 163.61 148.33 162.55 148.29 C 161.48 148.25 160.59 149.08 160.54 150.14 Z M 160.52 151.04 L 160.46 151.98 C 160.39 153.04 161.19 153.95 162.24 154.02 C 163.30 154.09 164.22 153.29 164.29 152.23 L 164.35 151.29 C 164.42 150.23 163.62 149.32 162.56 149.25 C 161.50 149.18 160.59 149.98 160.52 151.04 Z M 160.47 151.94 L 160.38 152.91 C 160.29 153.96 161.06 154.89 162.11 154.98 C 163.16 155.08 164.09 154.30 164.19 153.25 L 164.28 152.28 C 164.37 151.23 163.59 150.30 162.54 150.20 C 161.49 150.11 160.56 150.88 160.47 151.94 Z M 160.39 152.88 L 160.28 153.95 C 160.17 155.00 160.93 155.93 161.97 156.04 C 163.02 156.15 163.95 155.40 164.06 154.35 L 164.18 153.28 C 164.29 152.23 163.53 151.30 162.48 151.19 C 161.44 151.08 160.50 151.84 160.39 152.88 Z M 160.29 153.94 L 160.19 154.86 C 160.07 155.89 160.82 156.83 161.86 156.95 C 162.90 157.06 163.83 156.32 163.95 155.28 L 164.05 154.36 C 164.17 153.32 163.42 152.39 162.38 152.27 C 161.34 152.15 160.41 152.90 160.29 153.94 Z M 160.20 154.85 L 160.09 155.81 C 159.97 156.85 160.71 157.78 161.74 157.90 C 162.78 158.02 163.71 157.28 163.83 156.24 L 163.94 155.28 C 164.06 154.25 163.32 153.32 162.28 153.20 C 161.25 153.08 160.32 153.82 160.20 154.85 Z M 160.10 155.81 L 159.98 156.83 C 159.86 157.85 160.60 158.78 161.62 158.90 C 162.65 159.02 163.58 158.29 163.70 157.26 L 163.81 156.25 C 163.93 155.22 163.20 154.29 162.17 154.17 C 161.15 154.05 160.22 154.79 160.10 155.81 Z M 159.99 156.83 L 159.87 157.88 C 159.75 158.90 160.48 159.82 161.50 159.94 C 162.52 160.06 163.44 159.33 163.56 158.31 L 163.68 157.26 C 163.80 156.24 163.08 155.32 162.06 155.20 C 161.04 155.08 160.11 155.81 159.99 156.83 Z M 159.88 157.88 L 159.80 158.55 C 159.68 159.56 160.41 160.48 161.42 160.60 C 162.43 160.72 163.35 159.99 163.47 158.98 L 163.55 158.31 C 163.67 157.30 162.95 156.38 161.93 156.26 C 160.92 156.14 160.00 156.86 159.88 157.88 Z"
      fill="black"
      fill-rule="nonzero" /><path d="M 155.41 165.94 L 156.11 165.21 C 156.83 164.46 156.81 163.27 156.06 162.55 C 155.31 161.83 154.12 161.85 153.40 162.60 L 152.70 163.32 C 151.98 164.07 152.00 165.26 152.75 165.99 C 153.50 166.71 154.69 166.69 155.41 165.94 Z M 156.11 165.27 L 156.82 164.57 C 157.58 163.82 157.58 162.60 156.83 161.84 C 156.08 161.09 154.86 161.08 154.11 161.83 L 153.40 162.54 C 152.64 163.29 152.64 164.51 153.39 165.26 C 154.14 166.02 155.36 166.02 156.11 165.27 Z M 156.79 164.66 L 157.53 163.99 C 158.33 163.26 158.39 162.01 157.66 161.21 C 156.93 160.40 155.68 160.34 154.87 161.07 L 154.14 161.74 C 153.33 162.48 153.27 163.72 154.01 164.53 C 154.74 165.33 155.98 165.39 156.79 164.66 Z M 157.44 164.08 L 158.21 163.47 C 159.06 162.78 159.20 161.53 158.51 160.67 C 157.83 159.82 156.58 159.68 155.72 160.37 L 154.96 160.98 C 154.10 161.67 153.96 162.92 154.65 163.78 C 155.34 164.63 156.59 164.77 157.44 164.08 Z M 158.11 163.54 L 158.92 162.96 C 159.81 162.33 160.02 161.09 159.39 160.20 C 158.76 159.30 157.52 159.09 156.63 159.73 L 155.82 160.30 C 154.92 160.94 154.71 162.17 155.35 163.07 C 155.98 163.96 157.22 164.17 158.11 163.54 Z M 158.84 163.01 L 159.70 162.46 C 160.62 161.87 160.89 160.65 160.30 159.73 C 159.72 158.81 158.50 158.54 157.58 159.13 L 156.71 159.68 C 155.79 160.26 155.52 161.49 156.11 162.41 C 156.69 163.33 157.91 163.60 158.84 163.01 Z M 159.63 162.49 L 160.45 162.01 C 161.39 161.46 161.71 160.25 161.16 159.32 C 160.61 158.38 159.40 158.06 158.47 158.61 L 157.64 159.10 C 156.71 159.65 156.39 160.85 156.94 161.79 C 157.49 162.72 158.69 163.04 159.63 162.49 Z M 160.40 162.02 L 161.27 161.55 C 162.21 161.03 162.56 159.84 162.04 158.89 C 161.52 157.95 160.33 157.60 159.38 158.12 L 158.52 158.60 C 157.57 159.12 157.23 160.31 157.75 161.25 C 158.27 162.20 159.46 162.54 160.40 162.02 Z M 161.22 161.56 L 162.14 161.08 C 163.09 160.59 163.46 159.41 162.96 158.46 C 162.46 157.51 161.29 157.14 160.34 157.64 L 159.43 158.11 C 158.48 158.61 158.11 159.78 158.60 160.73 C 159.10 161.68 160.27 162.05 161.22 161.56 Z M 162.10 161.08 L 163.01 160.63 C 163.96 160.15 164.35 158.99 163.87 158.04 C 163.40 157.09 162.24 156.70 161.29 157.18 L 160.37 157.64 C 159.42 158.11 159.04 159.27 159.51 160.22 C 159.99 161.17 161.15 161.56 162.10 161.08 Z M 162.98 160.62 L 163.87 160.19 C 164.82 159.73 165.22 158.59 164.76 157.64 C 164.30 156.69 163.16 156.29 162.21 156.75 L 161.32 157.18 C 160.37 157.64 159.97 158.79 160.43 159.73 C 160.89 160.68 162.03 161.08 162.98 160.62 Z M 163.84 160.18 L 164.75 159.76 C 165.70 159.32 166.11 158.19 165.67 157.25 C 165.23 156.30 164.10 155.89 163.16 156.33 L 162.25 156.76 C 161.30 157.20 160.89 158.32 161.33 159.27 C 161.77 160.21 162.89 160.62 163.84 160.18 Z M 164.71 159.75 L 165.64 159.34 C 166.58 158.92 167.00 157.82 166.59 156.88 C 166.17 155.94 165.06 155.51 164.12 155.93 L 163.20 156.34 C 162.26 156.76 161.83 157.86 162.25 158.80 C 162.67 159.74 163.77 160.17 164.71 159.75 Z M 165.59 159.33 L 166.51 158.95 C 167.44 158.56 167.89 157.48 167.49 156.54 C 167.10 155.60 166.02 155.16 165.08 155.55 L 164.17 155.94 C 163.23 156.33 162.79 157.41 163.18 158.35 C 163.58 159.29 164.66 159.73 165.59 159.33 Z M 166.46 158.94 L 167.37 158.57 C 168.30 158.20 168.76 157.15 168.39 156.22 C 168.02 155.29 166.97 154.84 166.04 155.21 L 165.12 155.57 C 164.19 155.94 163.74 156.99 164.11 157.92 C 164.48 158.85 165.53 159.30 166.46 158.94 Z M 167.34 158.55 L 168.27 158.20 C 169.19 157.85 169.65 156.82 169.30 155.90 C 168.95 154.98 167.92 154.52 167.00 154.87 L 166.07 155.23 C 165.15 155.57 164.69 156.60 165.04 157.52 C 165.39 158.44 166.42 158.90 167.34 158.55 Z M 168.24 158.18 L 169.20 157.82 C 170.11 157.49 170.57 156.48 170.23 155.58 C 169.90 154.67 168.89 154.21 167.99 154.54 L 167.03 154.90 C 166.12 155.23 165.66 156.24 165.99 157.14 C 166.33 158.05 167.33 158.51 168.24 158.18 Z M 169.18 157.80 L 170.14 157.45 C 171.04 157.13 171.50 156.14 171.17 155.25 C 170.85 154.35 169.86 153.89 168.97 154.22 L 168.01 154.57 C 167.11 154.89 166.65 155.88 166.98 156.77 C 167.30 157.66 168.29 158.12 169.18 157.80 Z M 170.12 157.43 L 171.09 157.09 C 171.97 156.77 172.43 155.80 172.12 154.92 C 171.81 154.04 170.84 153.58 169.96 153.89 L 168.99 154.24 C 168.11 154.55 167.64 155.52 167.96 156.40 C 168.27 157.28 169.24 157.74 170.12 157.43 Z M 171.07 157.07 L 172.03 156.74 C 172.90 156.44 173.37 155.49 173.07 154.61 C 172.77 153.74 171.82 153.28 170.94 153.58 L 169.98 153.91 C 169.11 154.21 168.64 155.16 168.94 156.03 C 169.25 156.90 170.20 157.37 171.07 157.07 Z M 172.00 156.72 L 172.93 156.42 C 173.79 156.14 174.26 155.21 173.98 154.34 C 173.70 153.48 172.77 153.01 171.90 153.29 L 170.98 153.59 C 170.11 153.87 169.64 154.80 169.92 155.67 C 170.20 156.53 171.13 157.00 172.00 156.72 Z M 172.88 156.41 L 173.87 156.11 C 174.73 155.86 175.22 154.95 174.96 154.09 C 174.70 153.23 173.80 152.74 172.94 153.00 L 171.95 153.30 C 171.09 153.56 170.60 154.46 170.86 155.32 C 171.11 156.18 172.02 156.67 172.88 156.41 Z M 173.82 156.11 L 174.81 155.84 C 175.67 155.62 176.18 154.74 175.95 153.88 C 175.72 153.03 174.84 152.52 173.99 152.74 L 172.99 153.01 C 172.14 153.24 171.63 154.11 171.86 154.97 C 172.08 155.83 172.96 156.34 173.82 156.11 Z M 174.77 155.83 L 175.70 155.61 C 176.55 155.41 177.07 154.55 176.87 153.70 C 176.67 152.85 175.81 152.33 174.96 152.53 L 174.03 152.75 C 173.18 152.96 172.65 153.81 172.86 154.66 C 173.06 155.51 173.92 156.04 174.77 155.83 Z M 175.68 155.60 L 176.30 155.46 C 177.15 155.26 177.68 154.42 177.48 153.58 C 177.29 152.74 176.45 152.21 175.61 152.40 L 174.98 152.54 C 174.14 152.74 173.61 153.58 173.80 154.42 C 173.99 155.26 174.83 155.79 175.68 155.60 Z"
      fill="black"
      fill-rule="nonzero" /><path d="M 167.70 153.29 L 168.49 153.75 C 169.38 154.27 170.53 153.97 171.05 153.07 C 171.58 152.17 171.27 151.02 170.38 150.50 L 169.59 150.04 C 168.69 149.52 167.54 149.82 167.02 150.72 C 166.50 151.61 166.80 152.77 167.70 153.29 Z M 168.43 153.77 L 169.28 154.29 C 170.19 154.84 171.37 154.56 171.93 153.65 C 172.48 152.74 172.19 151.55 171.29 151.00 L 170.44 150.48 C 169.53 149.92 168.34 150.21 167.79 151.12 C 167.23 152.03 167.52 153.22 168.43 153.77 Z M 169.21 154.29 L 170.10 154.88 C 171.01 155.47 172.23 155.21 172.83 154.30 C 173.42 153.39 173.16 152.17 172.25 151.58 L 171.36 150.99 C 170.45 150.40 169.23 150.66 168.63 151.57 C 168.04 152.48 168.30 153.70 169.21 154.29 Z M 170.05 154.87 L 170.87 155.42 C 171.78 156.04 173.01 155.81 173.63 154.90 C 174.25 154.00 174.02 152.76 173.11 152.14 L 172.30 151.58 C 171.39 150.97 170.15 151.20 169.53 152.11 C 168.92 153.01 169.15 154.25 170.05 154.87 Z M 170.86 155.42 L 171.71 156.01 C 172.61 156.63 173.85 156.41 174.48 155.50 C 175.10 154.60 174.88 153.36 173.97 152.73 L 173.12 152.15 C 172.22 151.52 170.98 151.75 170.35 152.65 C 169.73 153.55 169.95 154.79 170.86 155.42 Z M 171.71 156.01 L 172.55 156.59 C 173.46 157.21 174.70 156.98 175.32 156.07 C 175.94 155.16 175.71 153.92 174.80 153.30 L 173.97 152.73 C 173.06 152.10 171.82 152.34 171.20 153.24 C 170.57 154.15 170.80 155.39 171.71 156.01 Z M 172.58 156.60 L 173.47 157.19 C 174.39 157.80 175.62 157.55 176.23 156.63 C 176.83 155.71 176.58 154.48 175.67 153.88 L 174.77 153.28 C 173.85 152.68 172.62 152.93 172.02 153.85 C 171.41 154.76 171.66 156.00 172.58 156.60 Z M 173.52 157.21 L 174.38 157.74 C 175.30 158.32 176.52 158.04 177.10 157.12 C 177.68 156.20 177.40 154.98 176.47 154.40 L 175.62 153.86 C 174.70 153.28 173.48 153.56 172.90 154.49 C 172.32 155.41 172.60 156.63 173.52 157.21 Z M 174.42 157.75 L 175.22 158.23 C 176.14 158.78 177.34 158.48 177.90 157.56 C 178.46 156.63 178.16 155.43 177.23 154.87 L 176.43 154.39 C 175.51 153.84 174.30 154.14 173.75 155.06 C 173.19 155.99 173.49 157.19 174.42 157.75 Z M 175.26 158.21 L 176.13 158.72 C 177.05 159.25 178.23 158.94 178.76 158.02 C 179.29 157.10 178.98 155.92 178.06 155.39 L 177.19 154.89 C 176.27 154.35 175.09 154.67 174.56 155.59 C 174.03 156.51 174.34 157.68 175.26 158.21 Z M 176.22 158.70 L 177.10 159.17 C 178.01 159.66 179.14 159.32 179.62 158.41 C 180.11 157.50 179.77 156.36 178.86 155.88 L 177.98 155.41 C 177.07 154.92 175.93 155.27 175.45 156.18 C 174.96 157.09 175.31 158.22 176.22 158.70 Z M 177.23 159.17 L 178.13 159.57 C 179.03 159.98 180.10 159.58 180.51 158.67 C 180.92 157.76 180.52 156.69 179.61 156.28 L 178.72 155.88 C 177.81 155.47 176.74 155.88 176.33 156.78 C 175.92 157.69 176.33 158.76 177.23 159.17 Z M 178.29 159.55 L 179.24 159.89 C 180.13 160.21 181.12 159.74 181.44 158.84 C 181.76 157.95 181.29 156.96 180.39 156.64 L 179.45 156.30 C 178.55 155.98 177.56 156.45 177.24 157.35 C 176.92 158.25 177.39 159.23 178.29 159.55 Z M 179.34 159.83 L 180.28 160.12 C 181.15 160.38 182.06 159.89 182.32 159.03 C 182.59 158.16 182.10 157.25 181.24 156.99 L 180.29 156.70 C 179.43 156.44 178.51 156.92 178.25 157.79 C 177.99 158.65 178.47 159.57 179.34 159.83 Z"
      fill="black"
      fill-rule="nonzero" /></svg>