<svg xmlns="http://www.w3.org/2000/svg" width="300" height="300" viewBox="0 0 300 300">
<path d="M 135.01 119.57 L 135.14 120.58 C 135.25 121.52 136.11 122.19 137.05 122.08 C 137.99 121.96 138.66 121.10 138.55 120.16 L 138.43 119.15 C 138.31 118.21 137.45 117.54 136.51 117.65 C 135.57 117.77 134.90 118.62 135.01 119.57 Z M 135.11 120.41 L 135.14 121.41 C 135.16 122.36 135.96 123.12 136.91 123.09 C 137.87 123.07 138.62 122.27 138.60 121.32 L 138.57 120.32 C 138.55 119.37 137.75 118.61 136.80 118.64 C 135.84 118.66 135.09 119.46 135.11 120.41 Z M 135.16 121.07 L 135.00 122.00 C 134.84 122.94 135.48 123.84 136.42 124.00 C 137.36 124.16 138.26 123.52 138.42 122.58 L 138.58 121.65 C 138.74 120.71 138.10 119.81 137.16 119.65 C 136.22 119.49 135.32 120.13 135.16 121.07 Z M 135.13 121.63 L 134.78 122.47 C 134.41 123.34 134.83 124.35 135.70 124.71 C 136.58 125.08 137.58 124.66 137.95 123.79 L 138.29 122.95 C 138.66 122.07 138.24 121.07 137.37 120.71 C 136.49 120.34 135.49 120.76 135.13 121.63 Z M 134.92 122.26 L 134.39 123.14 C 133.92 123.93 134.17 124.97 134.97 125.45 C 135.77 125.92 136.80 125.66 137.28 124.87 L 137.81 123.99 C 138.28 123.20 138.03 122.16 137.23 121.68 C 136.43 121.20 135.40 121.46 134.92 122.26 Z M 134.48 123.05 L 133.85 123.95 C 133.33 124.70 133.51 125.73 134.26 126.26 C 135.01 126.78 136.04 126.60 136.57 125.85 L 137.19 124.95 C 137.72 124.20 137.53 123.17 136.79 122.64 C 136.04 122.12 135.00 122.30 134.48 123.05 Z M 133.89 123.93 L 133.30 124.74 C 132.76 125.47 132.92 126.50 133.65 127.03 C 134.38 127.57 135.40 127.41 135.94 126.68 L 136.53 125.87 C 137.06 125.14 136.91 124.12 136.18 123.58 C 135.45 123.05 134.43 123.20 133.89 123.93 Z M 133.32 124.73 L 132.69 125.56 C 132.15 126.28 132.30 127.30 133.01 127.84 C 133.73 128.38 134.75 128.23 135.29 127.52 L 135.91 126.69 C 136.45 125.97 136.31 124.95 135.59 124.41 C 134.88 123.87 133.86 124.02 133.32 124.73 Z M 132.71 125.56 L 132.10 126.36 C 131.55 127.06 131.69 128.08 132.39 128.62 C 133.10 129.16 134.12 129.03 134.66 128.32 L 135.27 127.52 C 135.82 126.82 135.68 125.80 134.98 125.26 C 134.27 124.71 133.25 124.85 132.71 125.56 Z M 132.11 126.35 L 131.47 127.17 C 130.93 127.87 131.05 128.88 131.75 129.42 C 132.45 129.97 133.46 129.84 134.00 129.14 L 134.64 128.33 C 135.19 127.63 135.06 126.62 134.36 126.07 C 133.67 125.53 132.66 125.65 132.11 126.35 Z M 131.50 127.16 L 130.83 127.99 C 130.28 128.68 130.39 129.68 131.08 130.23 C 131.76 130.78 132.76 130.67 133.31 129.98 L 133.98 129.15 C 134.53 128.47 134.42 127.47 133.74 126.92 C 133.05 126.36 132.05 126.47 131.50 127.16 Z M 130.87 127.96 L 130.27 128.67 C 129.70 129.33 129.79 130.33 130.45 130.89 C 131.11 131.46 132.11 131.38 132.68 130.71 L 133.28 130.01 C 133.84 129.35 133.76 128.35 133.10 127.78 C 132.43 127.22 131.44 127.30 130.87 127.96 Z M 130.32 128.62 L 129.68 129.31 C 129.09 129.95 129.12 130.94 129.76 131.53 C 130.39 132.12 131.39 132.09 131.98 131.45 L 132.62 130.76 C 133.21 130.13 133.18 129.13 132.54 128.54 C 131.91 127.95 130.92 127.99 130.32 128.62 Z M 129.73 129.27 L 129.02 129.97 C 128.40 130.58 128.40 131.57 129.00 132.18 C 129.61 132.80 130.60 132.81 131.22 132.20 L 131.93 131.50 C 132.54 130.89 132.55 129.90 131.94 129.28 C 131.34 128.67 130.35 128.66 129.73 129.27 Z M 129.04 129.95 L 128.44 130.52 C 127.82 131.11 127.79 132.10 128.38 132.73 C 128.97 133.35 129.96 133.38 130.59 132.79 L 131.19 132.22 C 131.82 131.63 131.84 130.64 131.25 130.01 C 130.66 129.39 129.67 129.36 129.04 129.95 Z"
      fill="black"
      fill-rule="nonzero" /><path d="M 137.15 127.44 L 138.09 127.11 C 139.06 126.76 139.57 125.69 139.22 124.72 C 138.88 123.75 137.81 123.25 136.84 123.59 L 135.90 123.93 C 134.93 124.28 134.42 125.34 134.77 126.31 C 135.11 127.28 136.18 127.79 137.15 127.44 Z M 138.09 127.10 L 139.03 126.77 C 140.00 126.42 140.51 125.35 140.16 124.39 C 139.81 123.42 138.75 122.91 137.78 123.26 L 136.84 123.60 C 135.87 123.94 135.37 125.01 135.71 125.98 C 136.06 126.94 137.12 127.45 138.09 127.10 Z M 139.03 126.75 L 139.92 126.44 C 140.88 126.09 141.38 125.03 141.04 124.07 C 140.70 123.11 139.64 122.61 138.68 122.95 L 137.78 123.27 C 136.82 123.62 136.32 124.67 136.67 125.64 C 137.01 126.60 138.07 127.10 139.03 126.75 Z M 139.90 126.42 L 140.84 126.09 C 141.79 125.76 142.29 124.72 141.96 123.77 C 141.63 122.82 140.59 122.31 139.64 122.64 L 138.70 122.97 C 137.75 123.30 137.24 124.34 137.57 125.29 C 137.91 126.25 138.95 126.75 139.90 126.42 Z M 140.80 126.08 L 141.78 125.76 C 142.73 125.45 143.25 124.43 142.94 123.48 C 142.62 122.53 141.60 122.02 140.66 122.33 L 139.67 122.65 C 138.73 122.96 138.21 123.98 138.52 124.93 C 138.83 125.88 139.85 126.39 140.80 126.08 Z M 141.74 125.76 L 142.69 125.48 C 143.64 125.19 144.18 124.19 143.89 123.24 C 143.61 122.29 142.60 121.75 141.65 122.04 L 140.70 122.32 C 139.75 122.61 139.21 123.61 139.50 124.56 C 139.79 125.51 140.79 126.05 141.74 125.76 Z M 142.62 125.49 L 143.61 125.24 C 144.57 124.99 145.15 124.01 144.90 123.05 C 144.66 122.09 143.68 121.52 142.72 121.76 L 141.73 122.02 C 140.77 122.27 140.19 123.24 140.44 124.20 C 140.68 125.16 141.66 125.74 142.62 125.49 Z M 143.49 125.27 L 144.56 125.08 C 145.54 124.90 146.18 123.96 146.00 122.98 C 145.83 122.00 144.89 121.36 143.91 121.53 L 142.84 121.73 C 141.86 121.91 141.22 122.85 141.39 123.83 C 141.57 124.80 142.51 125.45 143.49 125.27 Z M 144.28 125.13 L 145.34 125.11 C 146.35 125.09 147.14 124.25 147.12 123.24 C 147.10 122.23 146.26 121.43 145.25 121.46 L 144.19 121.48 C 143.18 121.50 142.38 122.34 142.41 123.35 C 142.43 124.36 143.27 125.16 144.28 125.13 Z M 144.60 125.01 L 145.36 125.32 C 146.32 125.71 147.41 125.24 147.79 124.29 C 148.18 123.33 147.71 122.24 146.76 121.86 L 145.99 121.55 C 145.04 121.17 143.95 121.63 143.56 122.59 C 143.18 123.54 143.64 124.63 144.60 125.01 Z M 144.36 124.41 L 144.72 125.15 C 145.17 126.10 146.30 126.49 147.24 126.04 C 148.18 125.59 148.57 124.46 148.12 123.52 L 147.76 122.77 C 147.31 121.83 146.18 121.44 145.24 121.89 C 144.30 122.34 143.91 123.47 144.36 124.41 Z M 144.52 124.27 L 144.49 125.34 C 144.45 126.39 145.27 127.27 146.31 127.30 C 147.36 127.34 148.24 126.52 148.27 125.48 L 148.31 124.41 C 148.35 123.36 147.53 122.48 146.49 122.44 C 145.44 122.41 144.56 123.23 144.52 124.27 Z M 144.55 124.92 L 144.28 125.92 C 144.00 126.93 144.60 127.97 145.62 128.25 C 146.63 128.52 147.67 127.92 147.94 126.91 L 148.21 125.90 C 148.49 124.89 147.89 123.85 146.88 123.58 C 145.86 123.30 144.82 123.90 144.55 124.92 Z M 144.34 125.72 L 143.98 126.65 C 143.59 127.63 144.07 128.73 145.05 129.12 C 146.03 129.50 147.13 129.02 147.51 128.04 L 147.88 127.11 C 148.26 126.13 147.78 125.03 146.80 124.64 C 145.83 124.26 144.73 124.74 144.34 125.72 Z M 144.01 126.57 L 143.59 127.50 C 143.16 128.45 143.59 129.58 144.54 130.01 C 145.49 130.44 146.62 130.02 147.05 129.06 L 147.47 128.13 C 147.90 127.17 147.48 126.05 146.52 125.62 C 145.57 125.19 144.45 125.61 144.01 126.57 Z M 143.61 127.48 L 143.20 128.36 C 142.76 129.31 143.17 130.43 144.12 130.87 C 145.06 131.31 146.19 130.90 146.63 129.95 L 147.04 129.08 C 147.48 128.13 147.07 127.01 146.12 126.57 C 145.17 126.13 144.05 126.54 143.61 127.48 Z M 143.21 128.38 L 142.82 129.22 C 142.39 130.16 142.81 131.28 143.75 131.71 C 144.69 132.14 145.80 131.72 146.23 130.78 L 146.62 129.94 C 147.05 128.99 146.64 127.88 145.69 127.45 C 144.75 127.02 143.64 127.44 143.21 128.38 Z M 142.84 129.23 L 142.42 130.14 C 142.00 131.07 142.41 132.17 143.34 132.60 C 144.27 133.03 145.38 132.61 145.80 131.68 L 146.22 130.77 C 146.64 129.84 146.23 128.74 145.30 128.31 C 144.37 127.89 143.27 128.30 142.84 129.23 Z M 142.45 130.14 L 141.99 131.13 C 141.56 132.05 141.96 133.14 142.88 133.57 C 143.80 134.00 144.89 133.60 145.32 132.68 L 145.78 131.68 C 146.21 130.76 145.81 129.67 144.89 129.24 C 143.97 128.82 142.87 129.22 142.45 130.14 Z M 142.01 131.13 L 141.58 132.03 C 141.15 132.94 141.54 134.02 142.45 134.45 C 143.36 134.88 144.44 134.49 144.87 133.58 L 145.29 132.68 C 145.72 131.77 145.33 130.69 144.43 130.26 C 143.52 129.83 142.44 130.22 142.01 131.13 Z M 141.61 132.03 L 141.15 132.98 C 140.73 133.87 141.11 134.94 142.00 135.37 C 142.89 135.80 143.96 135.42 144.39 134.53 L 144.84 133.58 C 145.27 132.69 144.89 131.61 144.00 131.19 C 143.11 130.76 142.03 131.14 141.61 132.03 Z M 141.18 132.98 L 140.73 133.91 C 140.30 134.79 140.67 135.85 141.55 136.28 C 142.43 136.70 143.49 136.33 143.92 135.45 L 144.37 134.52 C 144.79 133.64 144.42 132.58 143.54 132.16 C 142.66 131.73 141.60 132.10 141.18 132.98 Z M 140.75 133.92 L 140.34 134.77 C 139.91 135.64 140.27 136.69 141.14 137.11 C 142.01 137.53 143.05 137.17 143.48 136.31 L 143.89 135.45 C 144.32 134.58 143.96 133.54 143.09 133.11 C 142.22 132.69 141.18 133.05 140.75 133.92 Z M 140.38 134.78 L 139.86 135.82 C 139.44 136.66 139.78 137.69 140.63 138.11 C 141.47 138.53 142.50 138.19 142.92 137.34 L 143.44 136.30 C 143.86 135.46 143.51 134.43 142.67 134.01 C 141.82 133.59 140.80 133.93 140.38 134.78 Z M 139.92 135.83 L 139.48 136.69 C 139.06 137.50 139.39 138.49 140.20 138.91 C 141.01 139.32 142.00 139.00 142.42 138.19 L 142.86 137.33 C 143.27 136.52 142.95 135.52 142.14 135.11 C 141.33 134.69 140.33 135.02 139.92 135.83 Z M 139.54 136.70 L 139.19 137.37 C 138.78 138.15 139.08 139.11 139.86 139.52 C 140.64 139.93 141.60 139.62 142.01 138.84 L 142.36 138.17 C 142.76 137.40 142.46 136.44 141.68 136.03 C 140.90 135.62 139.94 135.93 139.54 136.70 Z"
      fill="black"
      fill-rule="nonzero" /><path d="M 124.45 149.92 L 125.20 150.60 C 125.91 151.26 127.02 151.21 127.67 150.50 C 128.33 149.79 128.28 148.68 127.57 148.02 L 126.82 147.34 C 126.11 146.69 125.00 146.73 124.35 147.44 C 123.69 148.16 123.74 149.27 124.45 149.92 Z M 125.20 150.60 L 125.93 151.28 C 126.64 151.93 127.75 151.89 128.40 151.18 C 129.06 150.47 129.01 149.36 128.30 148.71 L 127.57 148.03 C 126.86 147.37 125.75 147.42 125.10 148.13 C 124.44 148.84 124.49 149.94 125.20 150.60 Z M 125.93 151.27 L 126.65 151.94 C 127.36 152.60 128.46 152.56 129.12 151.86 C 129.78 151.15 129.74 150.04 129.03 149.39 L 128.31 148.71 C 127.60 148.06 126.50 148.10 125.84 148.80 C 125.18 149.51 125.22 150.62 125.93 151.27 Z M 126.65 151.93 L 127.34 152.59 C 128.04 153.25 129.15 153.22 129.81 152.52 C 130.47 151.82 130.44 150.72 129.74 150.06 L 129.04 149.40 C 128.34 148.74 127.24 148.77 126.58 149.47 C 125.92 150.17 125.95 151.27 126.65 151.93 Z M 127.33 152.56 L 128.03 153.25 C 128.71 153.92 129.81 153.91 130.48 153.22 C 131.15 152.54 131.14 151.44 130.45 150.77 L 129.75 150.09 C 129.07 149.42 127.97 149.43 127.30 150.11 C 126.63 150.80 126.64 151.89 127.33 152.56 Z M 128.00 153.21 L 128.72 153.96 C 129.38 154.65 130.48 154.67 131.16 154.01 C 131.85 153.34 131.87 152.25 131.21 151.57 L 130.48 150.81 C 129.82 150.13 128.73 150.11 128.04 150.77 C 127.36 151.43 127.34 152.52 128.00 153.21 Z M 128.69 153.92 L 129.38 154.67 C 130.02 155.38 131.10 155.43 131.81 154.79 C 132.51 154.16 132.56 153.07 131.92 152.37 L 131.24 151.61 C 130.60 150.91 129.51 150.86 128.81 151.49 C 128.11 152.13 128.06 153.21 128.69 153.92 Z M 129.36 154.63 L 130.04 155.42 C 130.65 156.13 131.73 156.22 132.44 155.60 C 133.15 154.99 133.24 153.91 132.62 153.20 L 131.95 152.41 C 131.33 151.70 130.26 151.62 129.54 152.23 C 128.83 152.84 128.75 153.92 129.36 154.63 Z M 130.01 155.37 L 130.64 156.15 C 131.23 156.88 132.29 156.99 133.02 156.41 C 133.75 155.82 133.86 154.75 133.28 154.03 L 132.65 153.25 C 132.06 152.52 131.00 152.41 130.27 152.99 C 129.54 153.58 129.43 154.64 130.01 155.37 Z M 130.60 156.08 L 131.30 157.04 C 131.84 157.79 132.89 157.95 133.64 157.41 C 134.39 156.86 134.56 155.81 134.01 155.06 L 133.32 154.10 C 132.77 153.35 131.72 153.18 130.97 153.73 C 130.22 154.27 130.05 155.32 130.60 156.08 Z M 131.22 156.89 L 131.74 157.76 C 132.20 158.55 133.22 158.82 134.01 158.35 C 134.80 157.88 135.07 156.86 134.60 156.07 L 134.09 155.20 C 133.62 154.41 132.60 154.15 131.81 154.62 C 131.02 155.09 130.76 156.10 131.22 156.89 Z M 134.13 155.58 L 133.93 155.43 C 133.19 154.90 132.16 155.07 131.63 155.81 C 131.10 156.55 131.27 157.58 132.01 158.11 L 132.21 158.26 C 132.95 158.79 133.98 158.62 134.51 157.88 C 135.04 157.14 134.87 156.11 134.13 155.58 Z M 134.31 155.84 L 133.60 154.81 C 133.08 154.07 132.06 153.88 131.32 154.40 C 130.57 154.92 130.39 155.94 130.91 156.68 L 131.62 157.71 C 132.14 158.45 133.16 158.64 133.90 158.12 C 134.65 157.60 134.83 156.58 134.31 155.84 Z M 133.67 154.90 L 133.14 154.02 C 132.67 153.24 131.66 152.98 130.88 153.45 C 130.10 153.92 129.85 154.93 130.31 155.71 L 130.84 156.59 C 131.31 157.37 132.32 157.63 133.10 157.16 C 133.88 156.69 134.13 155.68 133.67 154.90 Z M 133.19 154.09 L 132.72 153.19 C 132.29 152.38 131.29 152.07 130.48 152.50 C 129.67 152.93 129.36 153.93 129.78 154.75 L 130.26 155.64 C 130.68 156.45 131.69 156.76 132.50 156.33 C 133.31 155.90 133.62 154.90 133.19 154.09 Z M 132.78 153.27 L 132.35 152.35 C 131.96 151.50 130.97 151.14 130.13 151.52 C 129.28 151.91 128.92 152.91 129.30 153.75 L 129.73 154.67 C 130.12 155.51 131.11 155.88 131.96 155.49 C 132.80 155.10 133.16 154.11 132.78 153.27 Z M 132.42 152.43 L 132.09 151.56 C 131.75 150.68 130.76 150.24 129.88 150.58 C 128.99 150.91 128.56 151.90 128.89 152.79 L 129.23 153.66 C 129.57 154.54 130.56 154.98 131.44 154.64 C 132.32 154.30 132.76 153.31 132.42 152.43 Z M 132.18 151.68 L 131.91 150.74 C 131.64 149.81 130.67 149.27 129.73 149.54 C 128.80 149.81 128.26 150.79 128.53 151.72 L 128.80 152.66 C 129.07 153.59 130.04 154.13 130.98 153.86 C 131.91 153.59 132.45 152.62 132.18 151.68 Z M 131.99 150.90 L 131.80 149.84 C 131.62 148.86 130.67 148.21 129.69 148.39 C 128.71 148.58 128.07 149.52 128.25 150.50 L 128.44 151.56 C 128.63 152.54 129.57 153.19 130.55 153.01 C 131.53 152.83 132.18 151.88 131.99 150.90 Z M 131.85 149.99 L 131.76 148.99 C 131.66 147.98 130.76 147.24 129.75 147.34 C 128.74 147.44 128.00 148.33 128.10 149.35 L 128.19 150.35 C 128.29 151.36 129.19 152.10 130.20 152.00 C 131.21 151.90 131.95 151.00 131.85 149.99 Z M 131.78 149.15 L 131.77 148.11 C 131.76 147.09 130.92 146.26 129.90 146.27 C 128.88 146.28 128.05 147.12 128.06 148.14 L 128.07 149.18 C 128.08 150.21 128.92 151.03 129.94 151.02 C 130.97 151.01 131.79 150.18 131.78 149.15 Z M 131.78 148.33 L 131.89 147.33 C 132.00 146.31 131.26 145.38 130.23 145.27 C 129.20 145.16 128.28 145.90 128.17 146.93 L 128.06 147.92 C 127.94 148.95 128.69 149.88 129.71 149.99 C 130.74 150.10 131.66 149.36 131.78 148.33 Z M 131.83 147.68 L 132.11 146.76 C 132.42 145.76 131.85 144.71 130.86 144.40 C 129.86 144.10 128.81 144.66 128.50 145.66 L 128.22 146.58 C 127.92 147.58 128.48 148.63 129.47 148.93 C 130.47 149.24 131.53 148.68 131.83 147.68 Z M 131.89 147.25 L 132.44 146.41 C 133.01 145.54 132.77 144.36 131.89 143.79 C 131.01 143.22 129.84 143.46 129.27 144.34 L 128.72 145.17 C 128.15 146.05 128.39 147.22 129.27 147.79 C 130.14 148.37 131.32 148.12 131.89 147.25 Z M 132.12 146.79 L 132.84 146.14 C 133.63 145.44 133.69 144.24 132.99 143.46 C 132.29 142.68 131.09 142.61 130.31 143.31 L 129.58 143.96 C 128.80 144.66 128.74 145.86 129.44 146.64 C 130.14 147.42 131.34 147.49 132.12 146.79 Z M 132.62 146.32 L 133.42 145.79 C 134.30 145.22 134.55 144.04 133.97 143.16 C 133.40 142.28 132.22 142.03 131.34 142.61 L 130.54 143.13 C 129.66 143.71 129.41 144.89 129.99 145.77 C 130.56 146.64 131.74 146.89 132.62 146.32 Z M 133.31 145.86 L 134.09 145.43 C 135.01 144.92 135.34 143.76 134.82 142.84 C 134.31 141.92 133.15 141.59 132.24 142.10 L 131.46 142.54 C 130.54 143.05 130.21 144.21 130.72 145.13 C 131.23 146.04 132.39 146.37 133.31 145.86 Z M 134.01 145.47 L 134.88 145.04 C 135.82 144.57 136.21 143.43 135.74 142.49 C 135.28 141.55 134.14 141.16 133.19 141.63 L 132.32 142.06 C 131.38 142.53 130.99 143.67 131.46 144.61 C 131.92 145.55 133.06 145.94 134.01 145.47 Z M 134.82 145.07 L 135.83 144.61 C 136.79 144.18 137.21 143.05 136.78 142.09 C 136.35 141.14 135.22 140.71 134.26 141.14 L 133.25 141.60 C 132.30 142.03 131.87 143.16 132.30 144.12 C 132.74 145.07 133.86 145.50 134.82 145.07 Z M 135.79 144.63 L 136.75 144.22 C 137.71 143.81 138.16 142.69 137.75 141.72 C 137.34 140.76 136.22 140.31 135.25 140.72 L 134.30 141.13 C 133.33 141.54 132.88 142.66 133.30 143.62 C 133.71 144.59 134.83 145.04 135.79 144.63 Z M 136.73 144.22 L 137.67 143.83 C 138.64 143.43 139.10 142.32 138.70 141.35 C 138.30 140.38 137.19 139.92 136.22 140.32 L 135.28 140.71 C 134.31 141.11 133.84 142.23 134.25 143.20 C 134.65 144.17 135.76 144.63 136.73 144.22 Z M 137.66 143.84 L 138.63 143.45 C 139.60 143.05 140.07 141.95 139.67 140.98 C 139.28 140.00 138.17 139.53 137.20 139.93 L 136.23 140.32 C 135.26 140.71 134.79 141.82 135.19 142.79 C 135.58 143.76 136.69 144.23 137.66 143.84 Z M 138.61 143.45 L 139.56 143.07 C 140.53 142.69 141.01 141.58 140.62 140.61 C 140.24 139.64 139.13 139.16 138.16 139.55 L 137.21 139.93 C 136.24 140.31 135.77 141.41 136.15 142.39 C 136.54 143.36 137.64 143.83 138.61 143.45 Z M 139.55 143.07 L 140.43 142.73 C 141.40 142.35 141.89 141.25 141.51 140.28 C 141.13 139.31 140.03 138.82 139.05 139.20 L 138.17 139.55 C 137.20 139.93 136.72 141.02 137.10 142.00 C 137.48 142.97 138.57 143.45 139.55 143.07 Z M 140.41 142.73 L 141.50 142.32 C 142.48 141.95 142.97 140.86 142.60 139.88 C 142.23 138.90 141.13 138.41 140.16 138.79 L 139.07 139.20 C 138.09 139.57 137.60 140.66 137.98 141.64 C 138.35 142.62 139.44 143.11 140.41 142.73 Z M 141.48 142.33 L 142.41 141.99 C 143.39 141.63 143.90 140.54 143.54 139.56 C 143.18 138.58 142.10 138.08 141.12 138.44 L 140.18 138.78 C 139.20 139.14 138.70 140.22 139.06 141.20 C 139.41 142.18 140.50 142.68 141.48 142.33 Z M 142.38 141.99 L 143.21 141.71 C 144.20 141.37 144.72 140.30 144.38 139.31 C 144.04 138.33 142.97 137.80 141.99 138.14 L 141.15 138.43 C 140.17 138.77 139.64 139.84 139.98 140.83 C 140.32 141.81 141.40 142.33 142.38 141.99 Z M 143.18 141.72 L 144.07 141.43 C 145.06 141.11 145.61 140.05 145.29 139.06 C 144.97 138.07 143.91 137.53 142.92 137.84 L 142.03 138.13 C 141.04 138.45 140.49 139.51 140.81 140.50 C 141.12 141.49 142.18 142.04 143.18 141.72 Z M 144.02 141.44 L 144.97 141.17 C 145.97 140.88 146.54 139.84 146.26 138.84 C 145.97 137.84 144.93 137.27 143.93 137.56 L 142.98 137.83 C 141.98 138.12 141.41 139.16 141.69 140.16 C 141.98 141.15 143.02 141.73 144.02 141.44 Z M 144.90 141.18 L 145.88 140.94 C 146.89 140.69 147.50 139.68 147.26 138.67 C 147.01 137.67 145.99 137.05 144.99 137.30 L 144.00 137.54 C 143.00 137.79 142.38 138.81 142.63 139.81 C 142.88 140.82 143.89 141.43 144.90 141.18 Z M 145.80 140.96 L 146.78 140.76 C 147.80 140.56 148.45 139.57 148.25 138.56 C 148.05 137.54 147.06 136.88 146.05 137.09 L 145.07 137.28 C 144.05 137.49 143.40 138.47 143.60 139.49 C 143.80 140.50 144.79 141.16 145.80 140.96 Z M 146.69 140.78 L 147.69 140.63 C 148.71 140.48 149.42 139.53 149.27 138.51 C 149.12 137.48 148.17 136.77 147.14 136.92 L 146.14 137.07 C 145.12 137.22 144.41 138.17 144.56 139.19 C 144.71 140.22 145.66 140.93 146.69 140.78 Z M 147.56 140.65 L 148.55 140.57 C 149.58 140.49 150.36 139.59 150.28 138.56 C 150.20 137.52 149.29 136.75 148.26 136.83 L 147.27 136.91 C 146.24 136.99 145.46 137.89 145.54 138.92 C 145.62 139.96 146.53 140.73 147.56 140.65 Z M 148.35 140.59 L 149.45 140.62 C 150.50 140.65 151.37 139.83 151.40 138.79 C 151.43 137.75 150.61 136.88 149.57 136.85 L 148.46 136.81 C 147.42 136.78 146.55 137.60 146.52 138.64 C 146.49 139.68 147.31 140.56 148.35 140.59 Z M 149.05 140.58 L 149.98 140.82 C 151.00 141.07 152.04 140.45 152.29 139.42 C 152.54 138.40 151.92 137.37 150.90 137.11 L 149.97 136.88 C 148.95 136.63 147.91 137.25 147.66 138.28 C 147.41 139.30 148.03 140.33 149.05 140.58 Z M 149.24 140.47 L 149.91 141.00 C 150.74 141.66 151.95 141.52 152.61 140.69 C 153.28 139.86 153.14 138.65 152.30 137.99 L 151.64 137.46 C 150.80 136.80 149.59 136.94 148.93 137.77 C 148.27 138.60 148.41 139.81 149.24 140.47 Z M 149.31 140.24 L 149.68 141.12 C 150.10 142.11 151.23 142.58 152.22 142.17 C 153.21 141.76 153.68 140.62 153.27 139.63 L 152.90 138.75 C 152.49 137.76 151.35 137.29 150.36 137.70 C 149.37 138.12 148.90 139.25 149.31 140.24 Z M 149.54 140.67 L 149.70 141.73 C 149.87 142.80 150.87 143.53 151.94 143.37 C 153.01 143.20 153.74 142.20 153.57 141.13 L 153.41 140.08 C 153.25 139.01 152.25 138.27 151.18 138.44 C 150.11 138.60 149.37 139.60 149.54 140.67 Z M 149.67 141.58 L 149.74 142.55 C 149.82 143.64 150.77 144.46 151.86 144.38 C 152.94 144.29 153.76 143.35 153.68 142.26 L 153.61 141.29 C 153.52 140.20 152.58 139.38 151.49 139.46 C 150.40 139.55 149.59 140.49 149.67 141.58 Z M 149.73 142.47 L 149.76 143.50 C 149.80 144.60 150.72 145.46 151.81 145.42 C 152.91 145.38 153.77 144.46 153.73 143.37 L 153.69 142.34 C 153.66 141.24 152.74 140.39 151.64 140.42 C 150.55 140.46 149.69 141.38 149.73 142.47 Z M 149.75 143.45 L 149.75 144.45 C 149.76 145.56 150.66 146.45 151.76 146.44 C 152.86 146.43 153.75 145.53 153.75 144.43 L 153.74 143.42 C 153.74 142.32 152.84 141.43 151.73 141.44 C 150.63 141.45 149.74 142.34 149.75 143.45 Z M 149.75 144.39 L 149.72 145.33 C 149.69 146.44 150.56 147.36 151.67 147.39 C 152.77 147.42 153.70 146.55 153.73 145.45 L 153.75 144.50 C 153.79 143.39 152.91 142.47 151.81 142.44 C 150.70 142.41 149.78 143.28 149.75 144.39 Z M 149.72 145.22 L 149.64 146.20 C 149.54 147.30 150.36 148.28 151.46 148.37 C 152.57 148.47 153.54 147.65 153.64 146.55 L 153.73 145.56 C 153.82 144.46 153.00 143.48 151.90 143.39 C 150.79 143.29 149.82 144.11 149.72 145.22 Z M 149.65 146.05 L 149.48 147.11 C 149.30 148.21 150.05 149.24 151.14 149.42 C 152.24 149.60 153.28 148.85 153.46 147.75 L 153.63 146.69 C 153.81 145.59 153.06 144.56 151.96 144.38 C 150.86 144.20 149.83 144.95 149.65 146.05 Z M 149.50 146.99 L 149.28 147.94 C 149.04 149.02 149.72 150.11 150.81 150.35 C 151.89 150.60 152.98 149.92 153.22 148.83 L 153.44 147.88 C 153.68 146.79 153.00 145.71 151.91 145.46 C 150.82 145.22 149.74 145.90 149.50 146.99 Z M 149.30 147.86 L 149.03 148.85 C 148.74 149.93 149.38 151.04 150.46 151.33 C 151.54 151.62 152.65 150.98 152.94 149.90 L 153.21 148.91 C 153.49 147.83 152.86 146.72 151.78 146.43 C 150.70 146.14 149.59 146.78 149.30 147.86 Z M 149.05 148.79 L 148.75 149.77 C 148.43 150.85 149.03 151.98 150.10 152.30 C 151.17 152.62 152.30 152.01 152.63 150.94 L 152.92 149.96 C 153.25 148.89 152.64 147.76 151.57 147.44 C 150.50 147.11 149.37 147.72 149.05 148.79 Z M 148.76 149.72 L 148.45 150.65 C 148.10 151.72 148.68 152.86 149.74 153.22 C 150.81 153.57 151.95 152.99 152.31 151.93 L 152.61 151.00 C 152.97 149.93 152.39 148.79 151.33 148.43 C 150.26 148.08 149.11 148.66 148.76 149.72 Z M 148.47 150.59 L 148.09 151.65 C 147.70 152.70 148.25 153.87 149.30 154.25 C 150.35 154.64 151.52 154.09 151.90 153.04 L 152.29 151.99 C 152.67 150.93 152.13 149.77 151.08 149.38 C 150.02 149.00 148.86 149.54 148.47 150.59 Z M 148.12 151.58 L 147.74 152.49 C 147.32 153.53 147.82 154.71 148.86 155.14 C 149.89 155.56 151.08 155.06 151.50 154.02 L 151.88 153.11 C 152.30 152.07 151.80 150.89 150.76 150.46 C 149.72 150.04 148.54 150.54 148.12 151.58 Z M 147.77 152.43 L 147.40 153.24 C 146.95 154.27 147.40 155.47 148.43 155.93 C 149.45 156.39 150.65 155.93 151.11 154.91 L 151.47 154.09 C 151.93 153.07 151.48 151.86 150.45 151.41 C 149.43 150.95 148.23 151.40 147.77 152.43 Z M 147.43 153.19 L 147.00 154.07 C 146.51 155.08 146.93 156.29 147.94 156.78 C 148.95 157.27 150.16 156.85 150.65 155.84 L 151.08 154.96 C 151.57 153.95 151.15 152.74 150.14 152.25 C 149.14 151.76 147.92 152.18 147.43 153.19 Z M 147.04 154.01 L 146.58 154.88 C 146.05 155.87 146.43 157.09 147.41 157.62 C 148.40 158.14 149.63 157.77 150.15 156.78 L 150.62 155.91 C 151.14 154.92 150.76 153.69 149.78 153.17 C 148.79 152.64 147.56 153.02 147.04 154.01 Z M 146.61 154.82 L 146.11 155.70 C 145.55 156.66 145.88 157.90 146.85 158.46 C 147.81 159.02 149.05 158.69 149.61 157.72 L 150.11 156.84 C 150.67 155.87 150.34 154.64 149.37 154.08 C 148.41 153.52 147.17 153.85 146.61 154.82 Z M 146.16 155.64 L 145.62 156.49 C 145.02 157.43 145.31 158.67 146.24 159.26 C 147.18 159.86 148.43 159.57 149.02 158.64 L 149.56 157.78 C 150.15 156.84 149.87 155.60 148.93 155.01 C 147.99 154.42 146.75 154.70 146.16 155.64 Z M 145.70 156.39 L 145.11 157.21 C 144.46 158.11 144.66 159.36 145.56 160.00 C 146.45 160.65 147.70 160.45 148.35 159.55 L 148.94 158.73 C 149.58 157.84 149.38 156.59 148.49 155.94 C 147.59 155.30 146.34 155.50 145.70 156.39 Z M 145.25 157.07 L 144.58 157.82 C 143.86 158.64 143.93 159.88 144.74 160.61 C 145.56 161.34 146.81 161.26 147.53 160.45 L 148.20 159.70 C 148.93 158.88 148.85 157.63 148.04 156.91 C 147.22 156.18 145.98 156.25 145.25 157.07 Z M 144.79 157.68 L 144.03 158.34 C 143.22 159.04 143.14 160.26 143.84 161.07 C 144.54 161.87 145.76 161.96 146.57 161.25 L 147.33 160.59 C 148.13 159.89 148.22 158.67 147.51 157.86 C 146.81 157.06 145.59 156.98 144.79 157.68 Z M 144.18 158.28 L 143.40 158.86 C 142.57 159.48 142.39 160.65 143.00 161.49 C 143.62 162.32 144.79 162.50 145.63 161.88 L 146.41 161.31 C 147.24 160.69 147.42 159.52 146.81 158.68 C 146.19 157.85 145.02 157.67 144.18 158.28 Z M 143.45 158.87 L 143.32 158.96 C 142.49 159.54 142.29 160.70 142.88 161.53 C 143.47 162.36 144.62 162.56 145.45 161.97 L 145.58 161.88 C 146.41 161.29 146.61 160.14 146.02 159.31 C 145.43 158.48 144.28 158.28 143.45 158.87 Z"
      fill="black"
      fill-rule="nonzero" /><path d="M 132.36 156.04 L 133.28 155.80 C 134.29 155.53 134.89 154.50 134.62 153.49 C 134.36 152.48 133.32 151.87 132.31 152.14 L 131.39 152.38 C 130.38 152.65 129.78 153.68 130.05 154.69 C 130.31 155.70 131.35 156.31 132.36 156.04 Z M 133.32 155.81 L 134.29 155.53 C 135.31 155.24 135.90 154.18 135.61 153.17 C 135.32 152.15 134.26 151.56 133.24 151.85 L 132.27 152.13 C 131.26 152.42 130.67 153.48 130.96 154.49 C 131.24 155.51 132.30 156.10 133.32 155.81 Z M 134.35 155.52 L 135.32 155.21 C 136.33 154.89 136.89 153.81 136.57 152.80 C 136.25 151.79 135.17 151.23 134.16 151.55 L 133.19 151.86 C 132.18 152.18 131.62 153.26 131.94 154.27 C 132.26 155.28 133.34 155.84 134.35 155.52 Z M 135.36 155.19 L 136.32 154.86 C 137.32 154.52 137.85 153.43 137.51 152.43 C 137.16 151.43 136.08 150.90 135.08 151.24 L 134.12 151.58 C 133.12 151.92 132.59 153.01 132.93 154.01 C 133.28 155.00 134.36 155.54 135.36 155.19 Z M 136.35 154.84 L 137.29 154.49 C 138.28 154.14 138.79 153.05 138.43 152.06 C 138.08 151.08 136.99 150.57 136.00 150.93 L 135.06 151.27 C 134.07 151.62 133.56 152.71 133.92 153.70 C 134.27 154.68 135.36 155.19 136.35 154.84 Z M 137.31 154.46 L 138.24 154.11 C 139.21 153.75 139.70 152.67 139.33 151.70 C 138.97 150.74 137.89 150.25 136.93 150.61 L 135.99 150.96 C 135.03 151.32 134.54 152.40 134.90 153.37 C 135.26 154.33 136.34 154.82 137.31 154.46 Z M 138.26 154.05 L 139.17 153.69 C 140.10 153.32 140.56 152.26 140.19 151.32 C 139.81 150.39 138.75 149.93 137.82 150.30 L 136.91 150.66 C 135.98 151.04 135.52 152.10 135.89 153.03 C 136.26 153.97 137.32 154.42 138.26 154.05 Z M 139.19 153.63 L 140.11 153.23 C 141.01 152.85 141.43 151.80 141.04 150.90 C 140.66 150.00 139.61 149.59 138.71 149.97 L 137.79 150.37 C 136.89 150.75 136.47 151.80 136.86 152.70 C 137.25 153.60 138.29 154.02 139.19 153.63 Z M 140.14 153.18 L 140.99 152.79 C 141.86 152.38 142.23 151.35 141.83 150.48 C 141.43 149.61 140.40 149.23 139.53 149.64 L 138.68 150.03 C 137.81 150.43 137.44 151.46 137.84 152.33 C 138.24 153.20 139.27 153.58 140.14 153.18 Z M 141.02 152.73 L 141.92 152.28 C 142.76 151.85 143.10 150.83 142.67 149.99 C 142.25 149.15 141.23 148.81 140.39 149.24 L 139.49 149.69 C 138.65 150.12 138.31 151.14 138.74 151.98 C 139.16 152.82 140.18 153.16 141.02 152.73 Z M 141.97 152.22 L 142.91 151.69 C 143.71 151.24 144.00 150.22 143.55 149.42 C 143.10 148.61 142.08 148.32 141.27 148.78 L 140.34 149.30 C 139.53 149.75 139.24 150.77 139.70 151.57 C 140.15 152.38 141.16 152.67 141.97 152.22 Z M 142.95 151.63 L 143.78 151.12 C 144.55 150.64 144.79 149.63 144.32 148.86 C 143.84 148.09 142.83 147.85 142.06 148.32 L 141.23 148.84 C 140.45 149.31 140.21 150.33 140.69 151.10 C 141.17 151.87 142.18 152.11 142.95 151.63 Z M 143.81 151.08 L 144.64 150.53 C 145.39 150.03 145.60 149.03 145.10 148.28 C 144.61 147.54 143.60 147.33 142.86 147.82 L 142.03 148.37 C 141.28 148.86 141.07 149.87 141.57 150.61 C 142.06 151.36 143.06 151.57 143.81 151.08 Z M 144.65 150.49 L 145.49 149.92 C 146.22 149.42 146.40 148.42 145.91 147.70 C 145.41 146.97 144.41 146.78 143.68 147.28 L 142.85 147.86 C 142.12 148.36 141.93 149.35 142.43 150.08 C 142.93 150.81 143.93 150.99 144.65 150.49 Z M 145.49 149.89 L 146.15 149.43 C 146.86 148.94 147.04 147.95 146.54 147.24 C 146.04 146.53 145.06 146.35 144.34 146.85 L 143.69 147.31 C 142.97 147.80 142.80 148.79 143.30 149.50 C 143.79 150.22 144.78 150.39 145.49 149.89 Z"
      fill="black"
      fill-rule="nonzero" /><path d="M 142.51 145.39 L 142.03 144.14 C 141.71 143.29 140.76 142.86 139.91 143.19 C 139.06 143.51 138.63 144.46 138.95 145.31 L 139.43 146.57 C 139.76 147.42 140.71 147.84 141.56 147.52 C 142.41 147.19 142.84 146.24 142.51 145.39 Z M 142.04 143.98 L 141.64 143.15 C 141.23 142.29 140.20 141.93 139.35 142.34 C 138.49 142.76 138.13 143.78 138.54 144.64 L 138.94 145.47 C 139.36 146.33 140.38 146.69 141.24 146.27 C 142.10 145.86 142.45 144.83 142.04 143.98 Z M 139.90 142.12 L 139.64 142.15 C 138.66 142.26 137.96 143.14 138.07 144.12 C 138.18 145.09 139.05 145.80 140.03 145.69 L 140.29 145.66 C 141.26 145.55 141.97 144.67 141.86 143.70 C 141.75 142.72 140.87 142.02 139.90 142.12 Z M 138.03 143.76 L 137.94 144.74 C 137.85 145.74 138.59 146.62 139.58 146.71 C 140.58 146.80 141.46 146.07 141.55 145.07 L 141.64 144.08 C 141.73 143.09 141.00 142.20 140.00 142.12 C 139.00 142.03 138.12 142.76 138.03 143.76 Z M 137.91 144.90 L 137.91 146.17 C 137.90 147.18 138.72 148.00 139.73 148.01 C 140.74 148.01 141.57 147.20 141.57 146.19 L 141.58 144.92 C 141.59 143.91 140.77 143.08 139.76 143.07 C 138.75 143.07 137.92 143.88 137.91 144.90 Z M 137.90 146.18 L 137.90 147.20 C 137.90 148.22 138.72 149.04 139.74 149.04 C 140.76 149.04 141.58 148.22 141.58 147.20 L 141.58 146.18 C 141.58 145.16 140.76 144.33 139.74 144.33 C 138.72 144.33 137.90 145.16 137.90 146.18 Z M 137.90 147.20 L 137.90 148.18 C 137.90 149.20 138.72 150.02 139.74 150.02 C 140.76 150.02 141.58 149.20 141.58 148.18 L 141.58 147.20 C 141.58 146.18 140.76 145.36 139.74 145.36 C 138.72 145.36 137.90 146.18 137.90 147.20 Z M 137.89 148.18 L 137.89 149.17 C 137.89 150.19 138.72 151.02 139.74 151.02 C 140.76 151.02 141.59 150.19 141.59 149.17 L 141.59 148.18 C 141.59 147.16 140.76 146.33 139.74 146.33 C 138.72 146.33 137.89 147.16 137.89 148.18 Z M 137.89 149.17 L 137.89 150.18 C 137.89 151.20 138.72 152.03 139.74 152.03 C 140.76 152.03 141.59 151.20 141.59 150.18 L 141.59 149.17 C 141.59 148.15 140.76 147.32 139.74 147.32 C 138.72 147.32 137.89 148.15 137.89 149.17 Z M 137.89 150.18 L 137.89 151.16 C 137.89 152.18 138.72 153.01 139.74 153.01 C 140.76 153.01 141.59 152.18 141.59 151.16 L 141.59 150.18 C 141.59 149.16 140.76 148.33 139.74 148.33 C 138.72 148.33 137.89 149.16 137.89 150.18 Z M 137.90 151.16 L 137.90 152.16 C 137.90 153.18 138.72 154.01 139.74 154.01 C 140.76 154.01 141.58 153.18 141.58 152.16 L 141.58 151.16 C 141.58 150.14 140.76 149.32 139.74 149.32 C 138.72 149.32 137.90 150.14 137.90 151.16 Z M 137.90 152.16 L 137.90 153.15 C 137.90 154.17 138.72 154.99 139.74 154.99 C 140.76 154.99 141.58 154.17 141.58 153.15 L 141.58 152.16 C 141.58 151.15 140.76 150.32 139.74 150.32 C 138.72 150.32 137.90 151.15 137.90 152.16 Z M 137.91 153.15 L 137.91 154.15 C 137.91 155.16 138.73 155.98 139.74 155.98 C 140.75 155.98 141.57 155.16 141.57 154.15 L 141.57 153.15 C 141.57 152.14 140.75 151.32 139.74 151.32 C 138.73 151.32 137.91 152.14 137.91 153.15 Z M 137.92 154.15 L 137.92 155.15 C 137.91 156.15 138.72 156.97 139.73 156.97 C 140.73 156.98 141.55 156.17 141.55 155.16 L 141.56 154.16 C 141.56 153.16 140.75 152.34 139.75 152.34 C 138.74 152.33 137.93 153.14 137.92 154.15 Z M 137.94 155.12 L 137.92 156.13 C 137.90 157.12 138.69 157.94 139.68 157.96 C 140.68 157.97 141.50 157.19 141.51 156.19 L 141.53 155.19 C 141.55 154.20 140.76 153.38 139.77 153.36 C 138.78 153.34 137.96 154.13 137.94 155.12 Z M 137.96 156.08 L 137.91 157.09 C 137.87 158.07 138.62 158.89 139.60 158.93 C 140.57 158.97 141.39 158.22 141.44 157.24 L 141.48 156.23 C 141.52 155.26 140.77 154.44 139.79 154.40 C 138.82 154.36 138.00 155.11 137.96 156.08 Z M 137.97 157.06 L 137.90 158.05 C 137.84 159.00 138.56 159.81 139.50 159.87 C 140.44 159.93 141.26 159.21 141.32 158.27 L 141.38 157.28 C 141.44 156.33 140.72 155.52 139.78 155.46 C 138.84 155.40 138.03 156.12 137.97 157.06 Z M 137.95 158.04 L 137.90 158.72 C 137.84 159.64 138.53 160.43 139.44 160.50 C 140.36 160.57 141.15 159.88 141.22 158.96 L 141.27 158.28 C 141.33 157.37 140.65 156.57 139.73 156.50 C 138.81 156.44 138.02 157.13 137.95 158.04 Z"
      fill="black"
      fill-rule="nonzero" /><path d="M 133.58 161.80 L 134.60 161.90 C 135.65 162.00 136.58 161.23 136.68 160.18 C 136.79 159.13 136.02 158.20 134.97 158.09 L 133.96 158.00 C 132.91 157.89 131.97 158.66 131.87 159.71 C 131.77 160.76 132.53 161.69 133.58 161.80 Z M 134.69 161.92 L 135.69 161.97 C 136.75 162.02 137.66 161.19 137.71 160.13 C 137.75 159.07 136.93 158.17 135.87 158.12 L 134.87 158.07 C 133.81 158.02 132.91 158.84 132.86 159.91 C 132.81 160.97 133.63 161.87 134.69 161.92 Z M 135.90 161.97 L 136.86 161.92 C 137.93 161.85 138.74 160.93 138.68 159.86 C 138.61 158.80 137.69 157.98 136.63 158.05 L 135.66 158.11 C 134.59 158.17 133.78 159.09 133.85 160.16 C 133.91 161.23 134.83 162.04 135.90 161.97 Z M 137.10 161.87 L 138.05 161.69 C 139.09 161.49 139.78 160.48 139.58 159.44 C 139.38 158.40 138.37 157.71 137.33 157.91 L 136.38 158.09 C 135.34 158.29 134.66 159.30 134.85 160.34 C 135.05 161.39 136.06 162.07 137.10 161.87 Z M 138.19 161.63 L 139.18 161.35 C 140.19 161.08 140.79 160.03 140.51 159.02 C 140.23 158.02 139.18 157.42 138.18 157.70 L 137.18 157.98 C 136.18 158.25 135.58 159.30 135.86 160.31 C 136.14 161.31 137.18 161.91 138.19 161.63 Z M 139.23 161.31 L 140.18 161.01 C 141.17 160.71 141.72 159.67 141.42 158.69 C 141.12 157.71 140.08 157.15 139.09 157.46 L 138.14 157.75 C 137.15 158.05 136.60 159.09 136.90 160.07 C 137.20 161.06 138.24 161.61 139.23 161.31 Z M 140.19 160.97 L 141.16 160.66 C 142.12 160.35 142.64 159.33 142.34 158.37 C 142.03 157.41 141.00 156.88 140.05 157.19 L 139.08 157.50 C 138.12 157.81 137.60 158.83 137.90 159.79 C 138.21 160.75 139.24 161.28 140.19 160.97 Z M 141.18 160.61 L 142.14 160.28 C 143.07 159.96 143.56 158.95 143.25 158.02 C 142.93 157.09 141.92 156.60 140.99 156.91 L 140.03 157.24 C 139.10 157.56 138.60 158.57 138.92 159.50 C 139.24 160.43 140.25 160.93 141.18 160.61 Z M 142.17 160.22 L 143.13 159.86 C 144.03 159.53 144.49 158.53 144.15 157.63 C 143.82 156.74 142.82 156.28 141.93 156.62 L 140.96 156.98 C 140.06 157.31 139.61 158.31 139.94 159.20 C 140.28 160.10 141.27 160.55 142.17 160.22 Z M 143.16 159.79 L 144.09 159.41 C 144.94 159.06 145.36 158.09 145.01 157.23 C 144.66 156.38 143.69 155.96 142.83 156.31 L 141.90 156.69 C 141.05 157.03 140.63 158.01 140.98 158.87 C 141.33 159.72 142.30 160.13 143.16 159.79 Z M 144.09 159.34 L 144.98 158.96 C 145.80 158.62 146.18 157.67 145.83 156.85 C 145.48 156.03 144.54 155.65 143.72 156.00 L 142.83 156.38 C 142.01 156.73 141.63 157.67 141.98 158.49 C 142.33 159.31 143.27 159.69 144.09 159.34 Z M 144.97 158.93 L 145.10 158.87 C 145.90 158.53 146.27 157.60 145.92 156.80 C 145.58 156.00 144.65 155.64 143.85 155.98 L 143.72 156.03 C 142.93 156.38 142.56 157.31 142.90 158.11 C 143.25 158.90 144.17 159.27 144.97 158.93 Z"
      fill="black"
      fill-rule="nonzero" /><path d="M 124.91 167.19 L 125.12 168.14 C 125.33 169.11 126.28 169.73 127.26 169.52 C 128.23 169.31 128.85 168.35 128.64 167.38 L 128.43 166.44 C 128.22 165.46 127.27 164.85 126.29 165.06 C 125.32 165.26 124.70 166.22 124.91 167.19 Z M 125.09 167.98 L 125.21 168.96 C 125.33 169.95 126.23 170.66 127.21 170.54 C 128.20 170.42 128.91 169.52 128.79 168.53 L 128.67 167.54 C 128.55 166.55 127.65 165.85 126.66 165.97 C 125.67 166.09 124.97 166.99 125.09 167.98 Z M 125.19 168.68 L 125.16 169.70 C 125.12 170.69 125.90 171.53 126.90 171.57 C 127.89 171.60 128.73 170.82 128.77 169.83 L 128.80 168.81 C 128.84 167.81 128.06 166.98 127.06 166.94 C 126.06 166.91 125.23 167.68 125.19 168.68 Z M 125.18 169.44 L 125.01 170.42 C 124.83 171.40 125.48 172.34 126.46 172.52 C 127.45 172.69 128.38 172.04 128.56 171.06 L 128.74 170.08 C 128.92 169.10 128.26 168.16 127.28 167.98 C 126.30 167.81 125.36 168.46 125.18 169.44 Z M 125.04 170.26 L 124.78 171.25 C 124.51 172.21 125.08 173.20 126.04 173.47 C 127.00 173.73 127.99 173.16 128.26 172.20 L 128.52 171.21 C 128.79 170.25 128.22 169.26 127.26 169.00 C 126.30 168.74 125.31 169.30 125.04 170.26 Z M 124.81 171.15 L 124.48 172.12 C 124.17 173.06 124.68 174.09 125.62 174.40 C 126.56 174.72 127.58 174.21 127.90 173.27 L 128.22 172.30 C 128.54 171.35 128.03 170.33 127.09 170.02 C 126.14 169.70 125.12 170.21 124.81 171.15 Z M 124.51 172.05 L 124.15 173.02 C 123.79 173.94 124.26 174.98 125.18 175.33 C 126.11 175.69 127.14 175.22 127.50 174.30 L 127.87 173.33 C 128.22 172.41 127.76 171.37 126.83 171.02 C 125.91 170.66 124.87 171.13 124.51 172.05 Z M 124.18 172.96 L 123.80 173.86 C 123.41 174.77 123.84 175.82 124.75 176.20 C 125.66 176.58 126.70 176.16 127.09 175.25 L 127.47 174.35 C 127.85 173.44 127.43 172.40 126.52 172.01 C 125.61 171.63 124.56 172.05 124.18 172.96 Z M 123.82 173.83 L 123.42 174.72 C 123.01 175.62 123.41 176.67 124.31 177.07 C 125.20 177.48 126.25 177.08 126.66 176.18 L 127.06 175.28 C 127.47 174.39 127.07 173.34 126.17 172.94 C 125.28 172.53 124.23 172.93 123.82 173.83 Z M 123.46 174.68 L 123.01 175.59 C 122.58 176.46 122.94 177.52 123.82 177.95 C 124.69 178.37 125.74 178.01 126.17 177.14 L 126.62 176.23 C 127.05 175.36 126.69 174.30 125.81 173.87 C 124.94 173.44 123.88 173.80 123.46 174.68 Z M 123.08 175.49 L 122.59 176.33 C 122.11 177.17 122.39 178.24 123.22 178.72 C 124.06 179.20 125.13 178.92 125.61 178.09 L 126.10 177.24 C 126.59 176.41 126.30 175.34 125.47 174.85 C 124.63 174.37 123.57 174.65 123.08 175.49 Z M 122.71 176.19 L 122.11 177.00 C 121.55 177.77 121.71 178.85 122.48 179.41 C 123.25 179.98 124.33 179.81 124.89 179.04 L 125.49 178.23 C 126.06 177.46 125.89 176.38 125.12 175.82 C 124.35 175.25 123.27 175.42 122.71 176.19 Z M 122.22 176.90 L 121.57 177.65 C 120.95 178.36 121.02 179.43 121.73 180.05 C 122.44 180.67 123.51 180.60 124.13 179.89 L 124.78 179.14 C 125.40 178.43 125.33 177.36 124.62 176.74 C 123.92 176.12 122.84 176.19 122.22 176.90 Z M 121.62 177.62 L 121.28 177.99 C 120.64 178.67 120.68 179.74 121.36 180.37 C 122.04 181.00 123.11 180.96 123.74 180.28 L 124.08 179.91 C 124.72 179.23 124.68 178.17 124.00 177.54 C 123.31 176.90 122.25 176.94 121.62 177.62 Z"
      fill="black"
      fill-rule="nonzero" /><path d="M 130.07 169.49 L 129.77 170.49 C 129.47 171.49 130.03 172.54 131.03 172.84 C 132.02 173.14 133.07 172.57 133.37 171.58 L 133.68 170.57 C 133.98 169.58 133.41 168.53 132.42 168.23 C 131.42 167.93 130.37 168.49 130.07 169.49 Z M 129.69 170.98 L 129.66 171.92 C 129.63 172.96 130.45 173.83 131.48 173.86 C 132.52 173.89 133.39 173.08 133.42 172.04 L 133.45 171.09 C 133.48 170.06 132.67 169.19 131.63 169.16 C 130.59 169.12 129.73 169.94 129.69 170.98 Z M 129.89 172.86 L 130.31 173.66 C 130.80 174.57 131.94 174.91 132.85 174.43 C 133.76 173.94 134.11 172.81 133.62 171.90 L 133.19 171.10 C 132.71 170.19 131.57 169.84 130.66 170.33 C 129.75 170.81 129.40 171.95 129.89 172.86 Z M 130.68 174.12 L 131.42 174.83 C 132.17 175.54 133.34 175.52 134.05 174.77 C 134.76 174.03 134.74 172.85 134.00 172.14 L 133.25 171.43 C 132.51 170.72 131.33 170.75 130.62 171.49 C 129.91 172.23 129.94 173.41 130.68 174.12 Z M 131.55 174.92 L 132.36 175.57 C 133.15 176.21 134.31 176.09 134.95 175.29 C 135.59 174.50 135.46 173.34 134.67 172.70 L 133.87 172.05 C 133.08 171.42 131.92 171.54 131.28 172.33 C 130.64 173.12 130.76 174.28 131.55 174.92 Z M 132.38 175.55 L 133.15 176.17 C 133.93 176.80 135.07 176.68 135.70 175.90 C 136.33 175.12 136.21 173.98 135.43 173.35 L 134.66 172.73 C 133.88 172.10 132.73 172.22 132.10 173.00 C 131.47 173.78 131.60 174.92 132.38 175.55 Z M 133.16 176.14 L 133.93 176.78 C 134.69 177.41 135.82 177.30 136.44 176.53 C 137.07 175.77 136.96 174.65 136.20 174.02 L 135.42 173.38 C 134.66 172.76 133.54 172.87 132.91 173.63 C 132.29 174.39 132.40 175.51 133.16 176.14 Z M 133.94 176.74 L 134.70 177.38 C 135.44 178.01 136.55 177.91 137.17 177.17 C 137.80 176.43 137.70 175.32 136.96 174.70 L 136.19 174.06 C 135.45 173.44 134.35 173.53 133.72 174.27 C 133.10 175.02 133.20 176.12 133.94 176.74 Z M 134.73 177.36 L 135.50 178.01 C 136.23 178.62 137.31 178.52 137.92 177.79 C 138.53 177.06 138.44 175.97 137.71 175.36 L 136.93 174.72 C 136.20 174.11 135.12 174.21 134.51 174.94 C 133.90 175.67 134.00 176.75 134.73 177.36 Z M 135.54 178.00 L 136.32 178.63 C 137.05 179.22 138.11 179.10 138.70 178.38 C 139.28 177.65 139.17 176.59 138.44 176.00 L 137.66 175.37 C 136.94 174.79 135.87 174.90 135.29 175.63 C 134.70 176.35 134.82 177.41 135.54 178.00 Z M 136.38 178.62 L 137.17 179.23 C 137.89 179.79 138.92 179.66 139.48 178.94 C 140.04 178.22 139.90 177.18 139.18 176.63 L 138.39 176.01 C 137.67 175.46 136.64 175.59 136.08 176.31 C 135.52 177.03 135.66 178.07 136.38 178.62 Z M 137.21 179.21 L 138.00 179.81 C 138.71 180.34 139.71 180.20 140.25 179.50 C 140.78 178.79 140.64 177.78 139.94 177.25 L 139.14 176.65 C 138.44 176.12 137.43 176.26 136.90 176.96 C 136.36 177.67 136.50 178.68 137.21 179.21 Z"
      fill="black"
      fill-rule="nonzero" /><path d="M 138.48 171.17 L 139.03 171.96 C 139.61 172.76 140.73 172.95 141.53 172.38 C 142.34 171.80 142.53 170.68 141.95 169.88 L 141.40 169.09 C 140.82 168.29 139.70 168.10 138.90 168.67 C 138.09 169.25 137.90 170.37 138.48 171.17 Z M 139.01 171.98 L 139.58 172.79 C 140.17 173.61 141.31 173.80 142.13 173.21 C 142.95 172.62 143.14 171.48 142.56 170.66 L 141.98 169.85 C 141.39 169.03 140.25 168.84 139.43 169.43 C 138.61 170.02 138.42 171.16 139.01 171.98 Z M 139.56 172.81 L 140.17 173.66 C 140.77 174.49 141.93 174.68 142.77 174.08 C 143.60 173.48 143.79 172.32 143.19 171.49 L 142.58 170.64 C 141.98 169.81 140.82 169.62 139.98 170.22 C 139.15 170.82 138.96 171.98 139.56 172.81 Z M 140.19 173.66 L 140.79 174.47 C 141.39 175.29 142.54 175.47 143.36 174.87 C 144.19 174.27 144.36 173.12 143.76 172.30 L 143.17 171.48 C 142.57 170.66 141.41 170.48 140.59 171.08 C 139.77 171.68 139.59 172.84 140.19 173.66 Z M 140.85 174.47 L 141.47 175.28 C 142.07 176.07 143.19 176.22 143.98 175.62 C 144.76 175.02 144.91 173.90 144.32 173.11 L 143.70 172.30 C 143.10 171.52 141.98 171.36 141.19 171.96 C 140.41 172.56 140.25 173.68 140.85 174.47 Z M 141.55 175.29 L 142.17 176.05 C 142.78 176.79 143.87 176.90 144.61 176.30 C 145.35 175.69 145.46 174.60 144.86 173.86 L 144.23 173.10 C 143.63 172.36 142.54 172.25 141.80 172.86 C 141.06 173.46 140.95 174.55 141.55 175.29 Z M 142.26 176.11 L 142.97 176.89 C 143.61 177.58 144.69 177.62 145.38 176.98 C 146.08 176.34 146.12 175.26 145.48 174.57 L 144.77 173.80 C 144.13 173.11 143.05 173.06 142.36 173.70 C 141.67 174.34 141.62 175.42 142.26 176.11 Z M 143.04 176.97 L 143.75 177.65 C 144.43 178.31 145.52 178.29 146.17 177.60 C 146.83 176.92 146.81 175.83 146.13 175.18 L 145.42 174.49 C 144.73 173.83 143.65 173.86 142.99 174.54 C 142.33 175.22 142.35 176.31 143.04 176.97 Z M 143.78 177.70 L 144.37 178.23 C 145.08 178.87 146.17 178.82 146.81 178.11 C 147.46 177.40 147.40 176.31 146.69 175.67 L 146.10 175.13 C 145.39 174.49 144.30 174.54 143.65 175.25 C 143.01 175.96 143.07 177.05 143.78 177.70 Z"
      fill="black"
      fill-rule="nonzero" /><path d="M 146.31 167.52 L 146.84 168.44 C 147.34 169.31 148.46 169.61 149.33 169.10 C 150.20 168.60 150.50 167.49 150.00 166.62 L 149.47 165.70 C 148.97 164.83 147.85 164.53 146.98 165.03 C 146.11 165.53 145.81 166.65 146.31 167.52 Z M 146.79 168.48 L 147.31 169.36 C 147.83 170.26 148.99 170.57 149.89 170.04 C 150.79 169.52 151.09 168.36 150.57 167.46 L 150.05 166.58 C 149.52 165.68 148.37 165.37 147.47 165.90 C 146.57 166.42 146.26 167.58 146.79 168.48 Z M 147.26 169.41 L 147.75 170.24 C 148.30 171.16 149.50 171.47 150.43 170.91 C 151.36 170.36 151.66 169.16 151.10 168.23 L 150.61 167.41 C 150.06 166.48 148.86 166.18 147.93 166.74 C 147.01 167.29 146.71 168.49 147.26 169.41 Z M 147.76 170.28 L 148.28 171.10 C 148.85 172.02 150.07 172.30 150.99 171.73 C 151.91 171.15 152.19 169.94 151.61 169.02 L 151.10 168.19 C 150.52 167.27 149.30 166.99 148.38 167.57 C 147.46 168.14 147.18 169.36 147.76 170.28 Z M 148.37 171.11 L 148.91 171.92 C 149.49 172.79 150.67 173.02 151.54 172.44 C 152.41 171.85 152.64 170.68 152.06 169.81 L 151.52 169.00 C 150.93 168.13 149.76 167.90 148.89 168.49 C 148.02 169.07 147.79 170.25 148.37 171.11 Z M 149.03 171.90 L 149.61 172.72 C 150.18 173.52 151.30 173.71 152.10 173.13 C 152.91 172.56 153.09 171.44 152.52 170.64 L 151.94 169.82 C 151.36 169.02 150.25 168.83 149.44 169.41 C 148.64 169.98 148.45 171.10 149.03 171.90 Z M 149.69 172.70 L 150.25 173.45 C 150.81 174.21 151.88 174.37 152.64 173.81 C 153.40 173.25 153.56 172.18 153.00 171.42 L 152.44 170.66 C 151.88 169.90 150.81 169.74 150.05 170.30 C 149.29 170.87 149.13 171.94 149.69 172.70 Z M 150.29 173.43 L 150.88 174.22 C 151.44 174.96 152.48 175.11 153.22 174.55 C 153.95 174.00 154.10 172.96 153.55 172.22 L 152.95 171.43 C 152.40 170.70 151.36 170.55 150.62 171.10 C 149.89 171.65 149.74 172.70 150.29 173.43 Z M 150.92 174.21 L 151.55 175.04 C 152.09 175.75 153.11 175.90 153.83 175.35 C 154.55 174.81 154.69 173.79 154.14 173.07 L 153.51 172.24 C 152.97 171.52 151.95 171.38 151.23 171.92 C 150.51 172.47 150.37 173.49 150.92 174.21 Z M 151.57 175.02 L 152.03 175.63 C 152.57 176.33 153.57 176.47 154.27 175.93 C 154.98 175.40 155.11 174.40 154.58 173.69 L 154.12 173.09 C 153.58 172.38 152.58 172.25 151.88 172.78 C 151.17 173.31 151.04 174.32 151.57 175.02 Z"
      fill="black"
      fill-rule="nonzero" /><path d="M 157.40 112.95 L 157.93 113.79 C 158.43 114.56 159.45 114.78 160.23 114.29 C 161.00 113.79 161.22 112.76 160.73 111.99 L 160.19 111.16 C 159.70 110.38 158.67 110.16 157.90 110.65 C 157.13 111.15 156.90 112.18 157.40 112.95 Z M 157.89 113.86 L 158.45 114.69 C 158.99 115.49 160.07 115.69 160.86 115.16 C 161.66 114.62 161.87 113.54 161.33 112.74 L 160.77 111.92 C 160.23 111.12 159.15 110.91 158.36 111.45 C 157.56 111.99 157.35 113.07 157.89 113.86 Z M 158.46 114.79 L 159.04 115.57 C 159.63 116.36 160.75 116.52 161.54 115.93 C 162.33 115.34 162.49 114.22 161.90 113.43 L 161.32 112.65 C 160.73 111.86 159.61 111.70 158.82 112.29 C 158.03 112.88 157.87 114.00 158.46 114.79 Z M 159.11 115.66 L 159.74 116.39 C 160.38 117.14 161.51 117.23 162.26 116.59 C 163.01 115.95 163.10 114.82 162.46 114.07 L 161.83 113.34 C 161.19 112.58 160.06 112.49 159.31 113.13 C 158.56 113.77 158.47 114.90 159.11 115.66 Z M 159.84 116.47 L 160.57 117.21 C 161.26 117.91 162.37 117.92 163.07 117.23 C 163.76 116.55 163.77 115.43 163.09 114.74 L 162.36 113.99 C 161.67 113.30 160.56 113.29 159.86 113.97 C 159.16 114.66 159.16 115.77 159.84 116.47 Z M 160.67 117.27 L 161.40 117.92 C 162.12 118.56 163.21 118.49 163.85 117.78 C 164.49 117.06 164.43 115.97 163.71 115.33 L 162.99 114.68 C 162.27 114.04 161.17 114.10 160.53 114.82 C 159.90 115.53 159.96 116.63 160.67 117.27 Z M 161.48 117.93 L 162.25 118.56 C 162.97 119.15 164.04 119.05 164.63 118.32 C 165.23 117.60 165.12 116.53 164.40 115.94 L 163.63 115.31 C 162.91 114.72 161.84 114.82 161.25 115.55 C 160.65 116.27 160.76 117.34 161.48 117.93 Z M 162.30 118.55 L 163.11 119.19 C 163.83 119.75 164.87 119.62 165.43 118.90 C 166.00 118.19 165.87 117.15 165.15 116.59 L 164.34 115.95 C 163.62 115.39 162.58 115.51 162.02 116.23 C 161.46 116.95 161.59 117.99 162.30 118.55 Z M 163.15 119.17 L 163.69 119.58 C 164.40 120.13 165.41 120.00 165.95 119.29 C 166.50 118.58 166.37 117.57 165.66 117.02 L 165.12 116.61 C 164.41 116.06 163.40 116.19 162.85 116.90 C 162.31 117.61 162.44 118.62 163.15 119.17 Z"
      fill="black"
      fill-rule="nonzero" /><path d="M 173.79 104.42 L 173.77 105.47 C 173.74 106.40 174.47 107.17 175.40 107.19 C 176.32 107.22 177.09 106.49 177.12 105.56 L 177.15 104.51 C 177.17 103.59 176.44 102.81 175.52 102.79 C 174.59 102.76 173.82 103.49 173.79 104.42 Z M 173.71 105.43 L 173.66 106.46 C 173.61 107.41 174.35 108.23 175.31 108.27 C 176.27 108.32 177.08 107.58 177.13 106.62 L 177.18 105.60 C 177.22 104.64 176.48 103.83 175.53 103.78 C 174.57 103.74 173.75 104.48 173.71 105.43 Z M 173.61 106.37 L 173.52 107.34 C 173.43 108.33 174.15 109.20 175.14 109.29 C 176.13 109.38 177.00 108.65 177.09 107.67 L 177.18 106.70 C 177.27 105.71 176.55 104.84 175.56 104.75 C 174.57 104.66 173.70 105.39 173.61 106.37 Z M 173.49 107.19 L 173.34 108.11 C 173.17 109.11 173.84 110.06 174.84 110.23 C 175.84 110.40 176.79 109.73 176.96 108.73 L 177.12 107.81 C 177.29 106.81 176.62 105.86 175.61 105.69 C 174.61 105.52 173.66 106.19 173.49 107.19 Z M 173.37 107.92 L 173.12 108.81 C 172.84 109.79 173.41 110.81 174.40 111.09 C 175.38 111.37 176.40 110.80 176.68 109.81 L 176.93 108.92 C 177.21 107.94 176.64 106.91 175.65 106.64 C 174.67 106.36 173.65 106.93 173.37 107.92 Z M 173.18 108.64 L 172.82 109.56 C 172.45 110.51 172.92 111.58 173.87 111.96 C 174.82 112.33 175.89 111.86 176.26 110.91 L 176.62 109.98 C 176.99 109.03 176.52 107.96 175.57 107.59 C 174.62 107.22 173.55 107.69 173.18 108.64 Z M 172.86 109.46 L 172.42 110.43 C 171.99 111.36 172.40 112.45 173.32 112.88 C 174.25 113.31 175.34 112.90 175.77 111.98 L 176.21 111.01 C 176.64 110.08 176.23 108.99 175.31 108.56 C 174.38 108.13 173.29 108.54 172.86 109.46 Z M 172.44 110.39 L 172.04 111.21 C 171.59 112.12 171.96 113.22 172.88 113.67 C 173.79 114.12 174.89 113.75 175.34 112.83 L 175.74 112.02 C 176.19 111.11 175.82 110.00 174.90 109.55 C 173.99 109.11 172.89 109.48 172.44 110.39 Z M 172.06 111.18 L 171.60 112.06 C 171.14 112.96 171.49 114.07 172.40 114.54 C 173.30 115.00 174.41 114.65 174.87 113.74 L 175.32 112.86 C 175.79 111.96 175.43 110.85 174.53 110.39 C 173.63 109.92 172.52 110.28 172.06 111.18 Z M 171.62 112.04 L 171.13 112.95 C 170.65 113.85 170.98 114.96 171.88 115.44 C 172.77 115.92 173.88 115.58 174.36 114.69 L 174.85 113.77 C 175.33 112.88 175.00 111.76 174.10 111.29 C 173.21 110.81 172.10 111.14 171.62 112.04 Z M 171.15 112.93 L 170.63 113.85 C 170.13 114.74 170.45 115.85 171.33 116.35 C 172.21 116.84 173.33 116.53 173.82 115.64 L 174.34 114.72 C 174.84 113.83 174.52 112.72 173.64 112.22 C 172.76 111.73 171.64 112.04 171.15 112.93 Z M 170.64 113.82 L 170.10 114.75 C 169.59 115.62 169.88 116.74 170.75 117.26 C 171.62 117.77 172.75 117.48 173.26 116.61 L 173.80 115.68 C 174.32 114.80 174.02 113.68 173.15 113.17 C 172.28 112.66 171.16 112.95 170.64 113.82 Z M 170.12 114.71 L 169.55 115.62 C 169.02 116.49 169.28 117.62 170.15 118.15 C 171.01 118.69 172.14 118.42 172.68 117.56 L 173.24 116.64 C 173.78 115.78 173.51 114.65 172.65 114.11 C 171.78 113.58 170.65 113.85 170.12 114.71 Z M 169.56 115.58 L 169.00 116.45 C 168.45 117.30 168.69 118.45 169.55 119.00 C 170.40 119.56 171.55 119.32 172.10 118.46 L 172.66 117.60 C 173.22 116.74 172.98 115.60 172.12 115.04 C 171.27 114.48 170.12 114.73 169.56 115.58 Z M 169.02 116.41 L 168.47 117.21 C 167.89 118.05 168.11 119.21 168.96 119.79 C 169.81 120.37 170.96 120.15 171.54 119.30 L 172.09 118.50 C 172.67 117.65 172.45 116.50 171.60 115.92 C 170.75 115.34 169.60 115.56 169.02 116.41 Z M 168.49 117.17 L 167.96 117.90 C 167.36 118.73 167.55 119.90 168.39 120.50 C 169.23 121.10 170.40 120.91 171.00 120.08 L 171.52 119.34 C 172.12 118.51 171.93 117.34 171.10 116.74 C 170.26 116.14 169.09 116.33 168.49 117.17 Z M 167.99 117.85 L 167.34 118.71 C 166.71 119.53 166.86 120.70 167.68 121.33 C 168.51 121.96 169.68 121.80 170.31 120.98 L 170.97 120.12 C 171.60 119.30 171.44 118.13 170.62 117.50 C 169.80 116.87 168.62 117.03 167.99 117.85 Z M 167.37 118.66 L 166.74 119.43 C 166.08 120.23 166.20 121.41 167.00 122.07 C 167.80 122.72 168.98 122.61 169.64 121.81 L 170.27 121.03 C 170.93 120.23 170.81 119.05 170.01 118.40 C 169.21 117.74 168.03 117.86 167.37 118.66 Z M 166.77 119.40 L 166.16 120.11 C 165.48 120.89 165.57 122.07 166.36 122.75 C 167.14 123.42 168.32 123.33 169.00 122.55 L 169.61 121.84 C 170.28 121.06 170.19 119.88 169.41 119.20 C 168.63 118.53 167.44 118.61 166.77 119.40 Z M 166.17 120.09 L 165.91 120.39 C 165.23 121.17 165.31 122.35 166.09 123.03 C 166.86 123.71 168.05 123.63 168.73 122.86 L 168.99 122.56 C 169.67 121.78 169.59 120.60 168.81 119.92 C 168.03 119.24 166.85 119.32 166.17 120.09 Z"
      fill="black"
      fill-rule="nonzero" /><path d="M 153.10 127.09 L 154.01 127.52 C 154.88 127.94 155.93 127.58 156.35 126.70 C 156.77 125.83 156.40 124.78 155.53 124.36 L 154.62 123.93 C 153.75 123.50 152.70 123.87 152.28 124.74 C 151.86 125.62 152.23 126.67 153.10 127.09 Z M 154.14 127.74 L 155.07 128.06 C 156.06 128.41 157.15 127.89 157.50 126.90 C 157.84 125.91 157.32 124.83 156.33 124.48 L 155.40 124.15 C 154.41 123.80 153.32 124.32 152.97 125.31 C 152.63 126.30 153.15 127.39 154.14 127.74 Z M 155.44 128.25 L 156.35 128.37 C 157.44 128.52 158.45 127.75 158.59 126.66 C 158.74 125.56 157.97 124.56 156.88 124.41 L 155.97 124.29 C 154.87 124.15 153.87 124.91 153.72 126.01 C 153.58 127.10 154.35 128.11 155.44 128.25 Z M 156.75 128.41 L 157.71 128.35 C 158.82 128.27 159.67 127.31 159.59 126.20 C 159.52 125.08 158.55 124.24 157.44 124.31 L 156.48 124.37 C 155.37 124.45 154.52 125.41 154.60 126.53 C 154.67 127.64 155.63 128.49 156.75 128.41 Z M 157.97 128.32 L 159.06 128.10 C 160.16 127.88 160.87 126.81 160.65 125.72 C 160.43 124.62 159.37 123.91 158.27 124.13 L 157.18 124.34 C 156.08 124.56 155.37 125.63 155.59 126.73 C 155.81 127.82 156.87 128.53 157.97 128.32 Z M 159.19 128.07 L 160.14 127.81 C 161.22 127.52 161.86 126.41 161.57 125.33 C 161.28 124.25 160.17 123.61 159.09 123.90 L 158.14 124.16 C 157.06 124.45 156.42 125.56 156.71 126.64 C 157.00 127.72 158.11 128.36 159.19 128.07 Z M 160.20 127.80 L 161.19 127.50 C 162.26 127.17 162.86 126.04 162.54 124.97 C 162.22 123.90 161.09 123.30 160.02 123.62 L 159.03 123.92 C 157.96 124.24 157.35 125.37 157.67 126.44 C 158.00 127.51 159.13 128.12 160.20 127.80 Z M 161.22 127.49 L 162.18 127.18 C 163.25 126.83 163.83 125.69 163.49 124.63 C 163.15 123.57 162.01 122.98 160.94 123.32 L 159.98 123.63 C 158.92 123.98 158.33 125.12 158.68 126.18 C 159.02 127.24 160.16 127.83 161.22 127.49 Z M 162.20 127.17 L 163.20 126.84 C 164.26 126.49 164.83 125.34 164.48 124.28 C 164.13 123.22 162.99 122.65 161.93 123.00 L 160.93 123.33 C 159.87 123.68 159.29 124.83 159.64 125.89 C 159.99 126.95 161.14 127.52 162.20 127.17 Z M 163.20 126.83 L 164.16 126.51 C 165.21 126.16 165.79 125.02 165.43 123.96 C 165.08 122.90 163.94 122.33 162.88 122.69 L 161.92 123.01 C 160.87 123.36 160.29 124.50 160.65 125.56 C 161.00 126.61 162.14 127.18 163.20 126.83 Z M 164.15 126.51 L 165.03 126.22 C 166.08 125.87 166.66 124.73 166.31 123.68 C 165.96 122.62 164.82 122.05 163.76 122.40 L 162.89 122.69 C 161.83 123.04 161.26 124.18 161.61 125.23 C 161.96 126.29 163.10 126.86 164.15 126.51 Z M 165.01 126.22 L 165.95 125.91 C 167.00 125.57 167.58 124.44 167.24 123.39 C 166.90 122.34 165.77 121.76 164.71 122.10 L 163.78 122.40 C 162.73 122.74 162.15 123.87 162.49 124.92 C 162.83 125.98 163.96 126.56 165.01 126.22 Z M 165.93 125.91 L 166.89 125.61 C 167.94 125.28 168.52 124.15 168.19 123.10 C 167.86 122.05 166.73 121.47 165.68 121.80 L 164.73 122.10 C 163.68 122.44 163.09 123.56 163.43 124.61 C 163.76 125.66 164.88 126.24 165.93 125.91 Z M 166.88 125.60 L 167.85 125.30 C 168.90 124.97 169.48 123.85 169.15 122.80 C 168.82 121.76 167.70 121.17 166.66 121.50 L 165.69 121.81 C 164.64 122.14 164.06 123.25 164.39 124.30 C 164.72 125.35 165.83 125.93 166.88 125.60 Z M 167.85 125.29 L 168.81 124.98 C 169.85 124.65 170.43 123.54 170.10 122.50 C 169.78 121.46 168.67 120.88 167.62 121.21 L 166.66 121.51 C 165.62 121.84 165.04 122.95 165.37 123.99 C 165.69 125.04 166.81 125.61 167.85 125.29 Z M 168.81 124.97 L 169.75 124.67 C 170.78 124.34 171.36 123.24 171.03 122.21 C 170.70 121.17 169.60 120.60 168.56 120.93 L 167.63 121.22 C 166.59 121.55 166.02 122.65 166.35 123.69 C 166.67 124.72 167.78 125.30 168.81 124.97 Z M 169.75 124.66 L 170.59 124.39 C 171.62 124.07 172.19 122.97 171.86 121.94 C 171.53 120.91 170.43 120.34 169.41 120.67 L 168.57 120.94 C 167.54 121.26 166.97 122.36 167.30 123.39 C 167.62 124.42 168.72 124.99 169.75 124.66 Z M 170.59 124.38 L 171.51 124.09 C 172.53 123.76 173.09 122.67 172.77 121.65 C 172.44 120.63 171.35 120.06 170.33 120.39 L 169.41 120.68 C 168.39 121.01 167.82 122.10 168.15 123.12 C 168.47 124.14 169.56 124.70 170.59 124.38 Z M 171.50 124.08 L 172.57 123.74 C 173.59 123.41 174.15 122.33 173.83 121.32 C 173.51 120.30 172.43 119.74 171.41 120.06 L 170.34 120.40 C 169.32 120.72 168.76 121.81 169.08 122.82 C 169.40 123.84 170.49 124.40 171.50 124.08 Z M 172.57 123.73 L 173.48 123.44 C 174.49 123.12 175.06 122.05 174.74 121.04 C 174.42 120.03 173.35 119.46 172.34 119.78 L 171.42 120.07 C 170.41 120.38 169.85 121.46 170.16 122.47 C 170.48 123.48 171.56 124.05 172.57 123.73 Z M 173.46 123.44 L 174.46 123.14 C 175.47 122.83 176.04 121.76 175.73 120.75 C 175.42 119.75 174.36 119.18 173.35 119.48 L 172.36 119.78 C 171.35 120.09 170.78 121.16 171.08 122.17 C 171.39 123.17 172.46 123.74 173.46 123.44 Z M 174.43 123.14 L 175.43 122.85 C 176.44 122.56 177.02 121.51 176.73 120.50 C 176.44 119.49 175.39 118.91 174.38 119.20 L 173.38 119.48 C 172.37 119.77 171.79 120.82 172.08 121.83 C 172.37 122.84 173.42 123.42 174.43 123.14 Z M 175.38 122.85 L 176.34 122.61 C 177.35 122.35 177.96 121.32 177.70 120.30 C 177.44 119.29 176.41 118.68 175.40 118.94 L 174.44 119.19 C 173.42 119.45 172.82 120.48 173.07 121.49 C 173.33 122.50 174.36 123.11 175.38 122.85 Z M 176.24 122.60 L 177.34 122.37 C 178.35 122.17 179.00 121.18 178.80 120.17 C 178.59 119.17 177.60 118.52 176.60 118.72 L 175.50 118.95 C 174.49 119.16 173.84 120.14 174.04 121.15 C 174.25 122.16 175.24 122.81 176.24 122.60 Z M 177.24 122.35 L 178.19 122.21 C 179.19 122.06 179.87 121.14 179.73 120.14 C 179.58 119.15 178.65 118.46 177.66 118.61 L 176.70 118.75 C 175.71 118.90 175.02 119.82 175.17 120.81 C 175.32 121.81 176.24 122.50 177.24 122.35 Z M 178.13 122.17 L 178.99 122.07 C 179.97 121.97 180.67 121.09 180.56 120.11 C 180.45 119.14 179.57 118.44 178.60 118.54 L 177.73 118.64 C 176.75 118.75 176.05 119.63 176.16 120.61 C 176.27 121.58 177.15 122.28 178.13 122.17 Z"
      fill="black"
      fill-rule="nonzero" /><path d="M 157.18 140.90 L 158.08 141.29 C 159.05 141.71 160.18 141.26 160.60 140.28 C 161.02 139.31 160.57 138.18 159.59 137.76 L 158.70 137.37 C 157.72 136.95 156.59 137.40 156.17 138.38 C 155.75 139.35 156.20 140.48 157.18 140.90 Z M 158.28 141.38 L 159.22 141.66 C 160.24 141.97 161.32 141.39 161.63 140.37 C 161.94 139.35 161.36 138.27 160.34 137.96 L 159.39 137.67 C 158.37 137.36 157.29 137.94 156.98 138.97 C 156.67 139.99 157.25 141.07 158.28 141.38 Z M 159.62 141.75 L 160.62 141.83 C 161.69 141.92 162.63 141.13 162.72 140.06 C 162.81 138.99 162.01 138.04 160.94 137.95 L 159.94 137.87 C 158.87 137.78 157.93 138.58 157.84 139.65 C 157.75 140.72 158.55 141.66 159.62 141.75 Z M 161.03 141.83 L 161.92 141.72 C 162.99 141.58 163.74 140.60 163.61 139.53 C 163.47 138.46 162.49 137.71 161.43 137.84 L 160.53 137.96 C 159.47 138.09 158.71 139.07 158.84 140.14 C 158.98 141.21 159.96 141.97 161.03 141.83 Z M 162.15 141.67 L 163.11 141.43 C 164.16 141.16 164.79 140.10 164.52 139.06 C 164.26 138.01 163.19 137.38 162.15 137.64 L 161.19 137.89 C 160.15 138.15 159.51 139.22 159.78 140.26 C 160.05 141.31 161.11 141.94 162.15 141.67 Z M 163.23 141.39 L 164.25 141.06 C 165.28 140.73 165.84 139.63 165.50 138.60 C 165.17 137.58 164.07 137.02 163.04 137.35 L 162.03 137.68 C 161.00 138.01 160.44 139.12 160.77 140.14 C 161.11 141.17 162.21 141.73 163.23 141.39 Z M 164.30 141.05 L 165.31 140.69 C 166.33 140.33 166.86 139.22 166.50 138.20 C 166.14 137.18 165.03 136.65 164.01 137.01 L 163.00 137.36 C 161.98 137.72 161.45 138.84 161.80 139.86 C 162.16 140.87 163.28 141.41 164.30 141.05 Z M 165.32 140.68 L 166.30 140.33 C 167.32 139.97 167.84 138.85 167.48 137.83 C 167.11 136.82 165.99 136.30 164.98 136.66 L 164.00 137.01 C 162.99 137.38 162.46 138.50 162.82 139.51 C 163.19 140.52 164.31 141.05 165.32 140.68 Z M 166.31 140.32 L 167.28 139.97 C 168.29 139.60 168.80 138.48 168.43 137.47 C 168.06 136.46 166.94 135.94 165.93 136.31 L 164.97 136.67 C 163.96 137.04 163.44 138.16 163.81 139.17 C 164.18 140.18 165.30 140.69 166.31 140.32 Z M 167.29 139.96 L 168.20 139.62 C 169.20 139.24 169.71 138.12 169.33 137.11 C 168.95 136.11 167.83 135.60 166.82 135.98 L 165.92 136.32 C 164.91 136.70 164.40 137.82 164.78 138.83 C 165.16 139.83 166.29 140.34 167.29 139.96 Z M 168.22 139.60 L 169.18 139.22 C 170.17 138.83 170.66 137.71 170.27 136.71 C 169.88 135.72 168.75 135.23 167.76 135.62 L 166.80 136.00 C 165.81 136.39 165.32 137.51 165.71 138.51 C 166.10 139.50 167.23 139.99 168.22 139.60 Z M 169.21 139.18 L 170.18 138.77 C 171.15 138.36 171.60 137.24 171.19 136.27 C 170.79 135.30 169.67 134.84 168.69 135.25 L 167.73 135.66 C 166.76 136.07 166.30 137.19 166.71 138.16 C 167.12 139.13 168.24 139.59 169.21 139.18 Z M 170.22 138.71 L 171.06 138.33 C 172.00 137.90 172.41 136.78 171.97 135.84 C 171.54 134.90 170.43 134.49 169.49 134.93 L 168.65 135.31 C 167.71 135.75 167.30 136.86 167.74 137.80 C 168.17 138.74 169.28 139.15 170.22 138.71 Z M 171.10 138.27 L 171.91 137.86 C 172.82 137.40 173.18 136.29 172.72 135.39 C 172.26 134.48 171.15 134.12 170.25 134.58 L 169.44 134.99 C 168.53 135.45 168.17 136.55 168.63 137.46 C 169.09 138.36 170.20 138.73 171.10 138.27 Z M 171.96 137.79 L 172.80 137.32 C 173.66 136.84 173.98 135.74 173.49 134.87 C 173.01 134.00 171.91 133.69 171.04 134.18 L 170.20 134.64 C 169.33 135.13 169.02 136.23 169.51 137.10 C 169.99 137.97 171.09 138.28 171.96 137.79 Z M 172.83 137.26 L 173.75 136.71 C 174.59 136.20 174.86 135.12 174.36 134.28 C 173.85 133.45 172.77 133.18 171.93 133.68 L 171.01 134.24 C 170.17 134.74 169.90 135.83 170.40 136.66 C 170.91 137.50 171.99 137.77 172.83 137.26 Z M 173.76 136.66 L 174.54 136.18 C 175.35 135.67 175.59 134.60 175.08 133.79 C 174.58 132.98 173.50 132.73 172.69 133.24 L 171.92 133.72 C 171.11 134.23 170.86 135.30 171.37 136.12 C 171.88 136.93 172.95 137.17 173.76 136.66 Z M 174.53 136.15 L 175.38 135.61 C 176.17 135.10 176.40 134.05 175.90 133.25 C 175.39 132.46 174.33 132.23 173.54 132.73 L 172.70 133.27 C 171.90 133.78 171.67 134.83 172.18 135.63 C 172.68 136.42 173.74 136.66 174.53 136.15 Z M 175.37 135.58 L 176.25 135.01 C 177.03 134.51 177.26 133.47 176.75 132.69 C 176.25 131.91 175.21 131.69 174.43 132.19 L 173.55 132.76 C 172.77 133.26 172.54 134.30 173.04 135.08 C 173.55 135.86 174.59 136.09 175.37 135.58 Z M 176.24 134.99 L 176.75 134.67 C 177.52 134.17 177.74 133.14 177.24 132.37 C 176.74 131.60 175.71 131.38 174.94 131.88 L 174.44 132.21 C 173.67 132.71 173.45 133.73 173.95 134.50 C 174.45 135.27 175.47 135.49 176.24 134.99 Z"
      fill="black"
      fill-rule="nonzero" /><path d="M 152.74 152.89 L 152.18 153.94 C 151.71 154.82 152.05 155.92 152.93 156.40 C 153.82 156.87 154.92 156.53 155.39 155.64 L 155.95 154.60 C 156.42 153.72 156.08 152.62 155.20 152.14 C 154.31 151.67 153.21 152.01 152.74 152.89 Z M 151.82 154.60 L 151.74 155.38 C 151.64 156.47 152.44 157.44 153.52 157.54 C 154.61 157.65 155.58 156.85 155.69 155.76 L 155.76 154.98 C 155.87 153.89 155.07 152.92 153.98 152.82 C 152.89 152.71 151.92 153.51 151.82 154.60 Z M 152.81 157.45 L 153.44 157.75 C 154.48 158.24 155.72 157.81 156.22 156.77 C 156.71 155.74 156.28 154.50 155.24 154.00 L 154.61 153.70 C 153.58 153.20 152.34 153.64 151.84 154.67 C 151.34 155.71 151.78 156.95 152.81 157.45 Z M 154.33 157.98 L 155.43 157.98 C 156.59 157.99 157.53 157.05 157.54 155.89 C 157.55 154.73 156.61 153.78 155.45 153.78 L 154.35 153.77 C 153.19 153.76 152.25 154.70 152.24 155.86 C 152.23 157.02 153.17 157.97 154.33 157.98 Z M 155.69 157.98 L 156.78 157.85 C 157.94 157.71 158.77 156.66 158.63 155.50 C 158.50 154.34 157.44 153.51 156.28 153.65 L 155.19 153.78 C 154.03 153.92 153.20 154.97 153.33 156.13 C 153.47 157.29 154.53 158.12 155.69 157.98 Z M 156.89 157.84 L 157.84 157.68 C 159.00 157.48 159.77 156.38 159.58 155.23 C 159.38 154.07 158.28 153.30 157.13 153.49 L 156.17 153.66 C 155.02 153.86 154.24 154.95 154.44 156.11 C 154.64 157.26 155.74 158.04 156.89 157.84 Z M 157.90 157.67 L 158.89 157.47 C 160.04 157.24 160.79 156.12 160.56 154.97 C 160.33 153.82 159.21 153.07 158.06 153.30 L 157.07 153.50 C 155.92 153.74 155.17 154.85 155.40 156.00 C 155.63 157.15 156.75 157.90 157.90 157.67 Z M 158.92 157.46 L 159.93 157.25 C 161.08 157.00 161.81 155.87 161.57 154.72 C 161.32 153.58 160.19 152.85 159.04 153.09 L 158.03 153.31 C 156.88 153.55 156.15 154.68 156.40 155.83 C 156.64 156.98 157.77 157.71 158.92 157.46 Z M 159.94 157.25 L 160.87 157.04 C 162.02 156.80 162.75 155.67 162.50 154.52 C 162.25 153.37 161.12 152.64 159.97 152.89 L 159.04 153.09 C 157.89 153.34 157.16 154.47 157.41 155.62 C 157.66 156.76 158.79 157.49 159.94 157.25 Z M 160.87 157.04 L 161.84 156.84 C 162.99 156.59 163.72 155.46 163.47 154.32 C 163.23 153.17 162.10 152.44 160.96 152.68 L 159.98 152.89 C 158.83 153.14 158.10 154.26 158.35 155.41 C 158.59 156.56 159.72 157.29 160.87 157.04 Z M 161.83 156.84 L 162.84 156.63 C 163.98 156.39 164.72 155.27 164.48 154.12 C 164.24 152.97 163.12 152.23 161.97 152.47 L 160.97 152.68 C 159.82 152.92 159.08 154.04 159.32 155.19 C 159.56 156.34 160.68 157.08 161.83 156.84 Z M 162.82 156.63 L 163.82 156.43 C 164.97 156.20 165.72 155.08 165.49 153.93 C 165.26 152.79 164.14 152.04 162.99 152.27 L 161.99 152.47 C 160.84 152.70 160.10 153.82 160.33 154.97 C 160.55 156.11 161.67 156.86 162.82 156.63 Z M 163.81 156.43 L 164.77 156.24 C 165.92 156.02 166.67 154.91 166.45 153.76 C 166.23 152.62 165.12 151.87 163.97 152.09 L 163.01 152.27 C 161.86 152.49 161.11 153.60 161.33 154.75 C 161.55 155.90 162.66 156.65 163.81 156.43 Z M 164.77 156.24 L 165.75 156.05 C 166.89 155.83 167.64 154.72 167.42 153.58 C 167.20 152.44 166.10 151.69 164.96 151.91 L 163.98 152.09 C 162.83 152.31 162.08 153.42 162.30 154.56 C 162.52 155.70 163.63 156.45 164.77 156.24 Z M 165.76 156.04 L 166.75 155.85 C 167.89 155.62 168.63 154.52 168.41 153.38 C 168.18 152.24 167.08 151.50 165.94 151.72 L 164.95 151.91 C 163.81 152.14 163.07 153.24 163.29 154.38 C 163.51 155.52 164.62 156.26 165.76 156.04 Z M 166.76 155.84 L 167.77 155.63 C 168.90 155.40 169.63 154.29 169.40 153.16 C 169.16 152.02 168.05 151.29 166.92 151.52 L 165.92 151.73 C 164.79 151.96 164.06 153.07 164.29 154.21 C 164.52 155.34 165.63 156.07 166.76 155.84 Z M 167.79 155.61 L 168.78 155.40 C 169.90 155.15 170.62 154.04 170.37 152.91 C 170.12 151.79 169.01 151.08 167.88 151.32 L 166.90 151.54 C 165.77 151.79 165.06 152.90 165.31 154.02 C 165.55 155.15 166.67 155.86 167.79 155.61 Z M 168.81 155.38 L 169.79 155.14 C 170.91 154.88 171.60 153.77 171.33 152.65 C 171.07 151.54 169.96 150.85 168.84 151.11 L 167.86 151.34 C 166.75 151.61 166.06 152.72 166.32 153.83 C 166.58 154.95 167.69 155.64 168.81 155.38 Z M 169.82 155.12 L 170.79 154.88 C 171.89 154.60 172.56 153.48 172.28 152.38 C 172.01 151.28 170.89 150.61 169.79 150.89 L 168.82 151.13 C 167.72 151.41 167.05 152.53 167.33 153.63 C 167.60 154.73 168.72 155.40 169.82 155.12 Z M 170.83 154.85 L 171.77 154.60 C 172.86 154.30 173.50 153.18 173.21 152.09 C 172.91 151.00 171.79 150.36 170.70 150.66 L 169.76 150.91 C 168.67 151.21 168.03 152.33 168.32 153.42 C 168.62 154.51 169.74 155.15 170.83 154.85 Z M 171.81 154.57 L 172.76 154.29 C 173.83 153.97 174.45 152.85 174.13 151.77 C 173.82 150.70 172.69 150.09 171.62 150.40 L 170.67 150.68 C 169.59 151.00 168.98 152.13 169.30 153.20 C 169.61 154.27 170.74 154.88 171.81 154.57 Z M 172.80 154.25 L 173.74 153.95 C 174.79 153.61 175.37 152.48 175.03 151.43 C 174.70 150.38 173.57 149.80 172.51 150.13 L 171.57 150.44 C 170.52 150.78 169.94 151.91 170.28 152.96 C 170.62 154.01 171.75 154.59 172.80 154.25 Z M 173.78 153.92 L 174.71 153.59 C 175.75 153.23 176.29 152.09 175.93 151.06 C 175.57 150.02 174.43 149.48 173.40 149.84 L 172.47 150.17 C 171.43 150.53 170.89 151.67 171.25 152.70 C 171.62 153.74 172.75 154.28 173.78 153.92 Z M 174.76 153.55 L 175.70 153.19 C 176.72 152.81 177.23 151.67 176.84 150.66 C 176.45 149.64 175.32 149.13 174.30 149.52 L 173.36 149.88 C 172.34 150.27 171.83 151.40 172.22 152.42 C 172.61 153.43 173.74 153.94 174.76 153.55 Z M 175.74 153.16 L 176.70 152.76 C 177.70 152.36 178.17 151.22 177.77 150.23 C 177.36 149.23 176.23 148.76 175.23 149.16 L 174.27 149.56 C 173.27 149.96 172.80 151.10 173.20 152.09 C 173.61 153.09 174.74 153.56 175.74 153.16 Z M 176.73 152.73 L 177.70 152.31 C 178.67 151.89 179.12 150.76 178.70 149.78 C 178.28 148.81 177.15 148.36 176.17 148.78 L 175.21 149.20 C 174.23 149.62 173.78 150.75 174.20 151.72 C 174.62 152.70 175.75 153.15 176.73 152.73 Z M 177.72 152.28 L 178.66 151.85 C 179.61 151.42 180.04 150.29 179.60 149.34 C 179.17 148.38 178.05 147.96 177.09 148.39 L 176.15 148.81 C 175.20 149.25 174.77 150.37 175.20 151.33 C 175.64 152.28 176.76 152.71 177.72 152.28 Z M 178.68 151.82 L 179.54 151.41 C 180.48 150.97 180.88 149.85 180.43 148.91 C 179.99 147.97 178.87 147.57 177.94 148.02 L 177.07 148.42 C 176.13 148.87 175.73 149.99 176.18 150.92 C 176.62 151.86 177.74 152.26 178.68 151.82 Z M 179.56 151.36 L 180.50 150.89 C 181.42 150.43 181.78 149.33 181.33 148.41 C 180.87 147.50 179.76 147.13 178.85 147.59 L 177.91 148.06 C 177.00 148.52 176.63 149.63 177.09 150.54 C 177.54 151.45 178.65 151.82 179.56 151.36 Z M 180.54 150.82 L 181.44 150.32 C 182.31 149.85 182.64 148.76 182.16 147.89 C 181.69 147.02 180.60 146.70 179.72 147.17 L 178.82 147.66 C 177.95 148.14 177.63 149.23 178.10 150.10 C 178.57 150.97 179.67 151.29 180.54 150.82 Z M 181.46 150.25 L 182.22 149.81 C 183.04 149.32 183.32 148.26 182.84 147.43 C 182.35 146.60 181.29 146.32 180.46 146.81 L 179.71 147.25 C 178.88 147.73 178.60 148.80 179.08 149.63 C 179.57 150.45 180.63 150.73 181.46 150.25 Z M 182.21 149.77 L 182.32 149.71 C 183.12 149.22 183.39 148.18 182.90 147.37 C 182.42 146.56 181.38 146.30 180.57 146.78 L 180.46 146.84 C 179.65 147.33 179.39 148.37 179.87 149.18 C 180.36 149.99 181.40 150.25 182.21 149.77 Z"
      fill="black"
      fill-rule="nonzero" /><path d="M 164.10 124.71 L 163.85 125.74 C 163.62 126.67 164.20 127.62 165.14 127.85 C 166.08 128.08 167.02 127.50 167.25 126.56 L 167.50 125.53 C 167.73 124.59 167.15 123.65 166.21 123.42 C 165.28 123.19 164.33 123.77 164.10 124.71 Z M 163.72 125.73 L 163.49 126.73 C 163.26 127.74 163.90 128.75 164.91 128.98 C 165.92 129.21 166.93 128.58 167.16 127.56 L 167.38 126.57 C 167.61 125.55 166.98 124.55 165.97 124.32 C 164.96 124.09 163.95 124.72 163.72 125.73 Z M 163.35 126.77 L 163.17 127.70 C 162.96 128.79 163.67 129.84 164.76 130.05 C 165.85 130.26 166.90 129.55 167.12 128.46 L 167.30 127.53 C 167.51 126.44 166.79 125.39 165.70 125.18 C 164.62 124.96 163.56 125.68 163.35 126.77 Z M 163.06 127.81 L 162.94 128.81 C 162.79 129.96 163.60 131.01 164.75 131.16 C 165.90 131.31 166.95 130.49 167.10 129.35 L 167.22 128.35 C 167.37 127.20 166.56 126.15 165.41 126.00 C 164.26 125.85 163.21 126.67 163.06 127.81 Z M 162.89 128.97 L 162.85 129.95 C 162.79 131.12 163.69 132.12 164.86 132.18 C 166.03 132.24 167.03 131.33 167.09 130.16 L 167.14 129.19 C 167.20 128.01 166.29 127.02 165.12 126.96 C 163.95 126.90 162.95 127.80 162.89 128.97 Z M 162.83 130.04 L 162.83 131.01 C 162.82 132.19 163.77 133.15 164.95 133.16 C 166.13 133.16 167.09 132.21 167.09 131.04 L 167.10 130.07 C 167.11 128.89 166.16 127.93 164.98 127.92 C 163.80 127.92 162.84 128.86 162.83 130.04 Z M 162.82 131.02 L 162.82 131.96 C 162.82 133.14 163.78 134.10 164.96 134.10 C 166.14 134.10 167.10 133.14 167.10 131.96 L 167.10 131.02 C 167.10 129.84 166.14 128.88 164.96 128.88 C 163.78 128.88 162.82 129.84 162.82 131.02 Z M 162.81 131.96 L 162.81 132.97 C 162.81 134.16 163.77 135.12 164.96 135.12 C 166.15 135.12 167.11 134.16 167.11 132.97 L 167.11 131.96 C 167.11 130.77 166.15 129.81 164.96 129.81 C 163.77 129.81 162.81 130.77 162.81 131.96 Z M 162.81 132.97 L 162.81 134.02 C 162.81 135.21 163.77 136.18 164.96 136.18 C 166.15 136.18 167.12 135.21 167.12 134.02 L 167.12 132.97 C 167.12 131.78 166.15 130.81 164.96 130.81 C 163.77 130.81 162.81 131.78 162.81 132.97 Z M 162.80 134.02 L 162.80 134.97 C 162.80 136.16 163.77 137.13 164.96 137.13 C 166.16 137.13 167.12 136.16 167.12 134.97 L 167.12 134.02 C 167.12 132.83 166.15 131.86 164.96 131.86 C 163.77 131.86 162.80 132.83 162.80 134.02 Z M 162.79 134.97 L 162.80 135.97 C 162.80 137.17 163.77 138.13 164.97 138.13 C 166.17 138.13 167.14 137.15 167.13 135.96 L 167.13 134.96 C 167.13 133.76 166.15 132.80 164.96 132.80 C 163.76 132.80 162.79 133.78 162.79 134.97 Z M 162.79 135.98 L 162.80 137.02 C 162.81 138.22 163.79 139.19 164.99 139.18 C 166.19 139.17 167.15 138.19 167.15 136.99 L 167.14 135.95 C 167.13 134.75 166.15 133.78 164.95 133.79 C 163.75 133.80 162.78 134.78 162.79 135.98 Z M 162.79 137.03 L 162.80 138.02 C 162.82 139.23 163.81 140.19 165.01 140.18 C 166.21 140.16 167.18 139.17 167.16 137.97 L 167.15 136.98 C 167.14 135.78 166.15 134.81 164.95 134.83 C 163.74 134.84 162.78 135.83 162.79 137.03 Z M 162.80 138.03 L 162.82 138.99 C 162.83 140.20 163.83 141.16 165.03 141.14 C 166.24 141.12 167.20 140.13 167.18 138.92 L 167.17 137.96 C 167.15 136.76 166.15 135.79 164.95 135.81 C 163.74 135.83 162.78 136.83 162.80 138.03 Z M 162.81 139.00 L 162.83 140.00 C 162.85 141.20 163.85 142.17 165.06 142.14 C 166.27 142.12 167.23 141.12 167.20 139.92 L 167.19 138.92 C 167.16 137.71 166.17 136.75 164.96 136.77 C 163.75 136.79 162.79 137.79 162.81 139.00 Z M 162.83 140.00 L 162.85 141.04 C 162.87 142.25 163.87 143.21 165.08 143.18 C 166.29 143.16 167.25 142.16 167.23 140.95 L 167.21 139.91 C 167.18 138.70 166.18 137.74 164.97 137.77 C 163.76 137.79 162.80 138.79 162.83 140.00 Z M 162.84 141.04 L 162.86 142.06 C 162.89 143.27 163.89 144.24 165.10 144.21 C 166.31 144.19 167.28 143.19 167.25 141.97 L 167.23 140.95 C 167.21 139.74 166.21 138.78 164.99 138.80 C 163.78 138.82 162.82 139.82 162.84 141.04 Z M 162.86 142.06 L 162.88 143.04 C 162.90 144.25 163.91 145.21 165.12 145.19 C 166.33 145.17 167.30 144.16 167.27 142.95 L 167.25 141.97 C 167.23 140.76 166.23 139.80 165.02 139.82 C 163.80 139.85 162.84 140.85 162.86 142.06 Z M 162.88 143.04 L 162.90 144.04 C 162.93 145.25 163.93 146.21 165.14 146.19 C 166.36 146.16 167.32 145.16 167.29 143.95 L 167.27 142.95 C 167.25 141.74 166.25 140.77 165.03 140.80 C 163.82 140.82 162.86 141.83 162.88 143.04 Z M 162.90 144.04 L 162.92 145.06 C 162.95 146.27 163.96 147.23 165.17 147.20 C 166.38 147.18 167.35 146.17 167.32 144.96 L 167.30 143.94 C 167.27 142.73 166.26 141.77 165.05 141.80 C 163.83 141.82 162.87 142.83 162.90 144.04 Z M 162.92 145.06 L 162.95 146.08 C 162.98 147.30 163.99 148.26 165.20 148.22 C 166.42 148.19 167.38 147.18 167.34 145.97 L 167.32 144.95 C 167.29 143.74 166.28 142.78 165.06 142.81 C 163.85 142.84 162.89 143.85 162.92 145.06 Z M 162.95 146.09 L 162.98 147.10 C 163.01 148.31 164.03 149.27 165.24 149.23 C 166.46 149.19 167.41 148.18 167.38 146.97 L 167.35 145.96 C 167.31 144.75 166.30 143.79 165.08 143.83 C 163.87 143.86 162.91 144.88 162.95 146.09 Z M 162.98 147.11 L 163.01 148.10 C 163.05 149.31 164.07 150.27 165.28 150.22 C 166.50 150.18 167.45 149.17 167.41 147.95 L 167.38 146.96 C 167.33 145.74 166.32 144.79 165.10 144.83 C 163.89 144.87 162.94 145.89 162.98 147.11 Z M 163.01 148.11 L 163.05 149.10 C 163.09 150.32 164.11 151.26 165.33 151.22 C 166.54 151.18 167.49 150.16 167.44 148.94 L 167.41 147.95 C 167.36 146.73 166.34 145.78 165.13 145.83 C 163.92 145.87 162.97 146.89 163.01 148.11 Z M 163.05 149.10 L 163.08 150.10 C 163.13 151.32 164.15 152.27 165.37 152.22 C 166.58 152.17 167.53 151.15 167.48 149.94 L 167.44 148.94 C 167.40 147.72 166.38 146.78 165.16 146.82 C 163.95 146.87 163.00 147.89 163.05 149.10 Z M 163.08 150.10 L 163.12 151.11 C 163.17 152.33 164.19 153.27 165.41 153.23 C 166.62 153.18 167.57 152.16 167.52 150.94 L 167.48 149.94 C 167.44 148.72 166.41 147.77 165.20 147.82 C 163.99 147.87 163.04 148.89 163.08 150.10 Z M 163.12 151.11 L 163.16 152.09 C 163.21 153.31 164.23 154.25 165.44 154.21 C 166.66 154.16 167.60 153.14 167.56 151.93 L 167.52 150.94 C 167.48 149.73 166.45 148.78 165.24 148.83 C 164.03 148.87 163.08 149.90 163.12 151.11 Z M 163.16 152.09 L 163.20 153.07 C 163.24 154.28 164.26 155.23 165.48 155.19 C 166.69 155.14 167.64 154.12 167.59 152.91 L 167.56 151.93 C 167.51 150.72 166.49 149.77 165.28 149.81 C 164.06 149.86 163.12 150.88 163.16 152.09 Z M 163.20 153.07 L 163.23 154.06 C 163.28 155.27 164.30 156.22 165.51 156.18 C 166.72 156.14 167.67 155.12 167.63 153.90 L 167.59 152.91 C 167.55 151.70 166.53 150.75 165.32 150.79 C 164.10 150.84 163.15 151.86 163.20 153.07 Z M 163.23 154.06 L 163.27 155.07 C 163.31 156.28 164.33 157.23 165.54 157.19 C 166.76 157.14 167.70 156.12 167.66 154.91 L 167.63 153.90 C 167.58 152.69 166.57 151.74 165.35 151.79 C 164.14 151.83 163.19 152.85 163.23 154.06 Z M 163.27 155.07 L 163.31 156.09 C 163.35 157.30 164.37 158.25 165.58 158.21 C 166.79 158.16 167.74 157.15 167.70 155.94 L 167.66 154.91 C 167.62 153.70 166.60 152.75 165.39 152.80 C 164.18 152.84 163.23 153.85 163.27 155.07 Z M 163.31 156.09 L 163.34 157.09 C 163.39 158.30 164.40 159.25 165.61 159.21 C 166.83 159.16 167.77 158.15 167.73 156.94 L 167.69 155.94 C 167.65 154.72 166.64 153.78 165.42 153.82 C 164.21 153.86 163.27 154.88 163.31 156.09 Z M 163.35 157.09 L 163.38 158.08 C 163.42 159.29 164.44 160.23 165.65 160.19 C 166.86 160.15 167.80 159.13 167.76 157.92 L 167.73 156.94 C 167.69 155.73 166.67 154.78 165.46 154.82 C 164.25 154.87 163.30 155.88 163.35 157.09 Z M 163.38 158.08 L 163.42 159.07 C 163.46 160.28 164.48 161.23 165.68 161.18 C 166.89 161.14 167.84 160.13 167.79 158.92 L 167.76 157.92 C 167.72 156.71 166.70 155.77 165.49 155.81 C 164.29 155.85 163.34 156.87 163.38 158.08 Z M 163.42 159.07 L 163.46 160.08 C 163.50 161.29 164.51 162.23 165.72 162.19 C 166.93 162.14 167.87 161.13 167.83 159.92 L 167.79 158.92 C 167.75 157.71 166.74 156.77 165.53 156.81 C 164.32 156.85 163.38 157.87 163.42 159.07 Z M 163.46 160.08 L 163.49 161.09 C 163.54 162.29 164.55 163.24 165.75 163.20 C 166.96 163.15 167.90 162.14 167.86 160.94 L 167.83 159.92 C 167.78 158.72 166.77 157.78 165.57 157.82 C 164.36 157.86 163.42 158.87 163.46 160.08 Z M 163.50 161.09 L 163.53 162.10 C 163.57 163.31 164.59 164.25 165.79 164.21 C 166.99 164.16 167.94 163.15 167.89 161.95 L 167.86 160.94 C 167.82 159.73 166.81 158.79 165.60 158.83 C 164.40 158.87 163.45 159.88 163.50 161.09 Z M 163.54 162.10 L 163.57 163.11 C 163.61 164.31 164.62 165.25 165.83 165.21 C 167.03 165.17 167.97 164.16 167.92 162.96 L 167.89 161.95 C 167.85 160.75 166.84 159.81 165.64 159.85 C 164.44 159.89 163.50 160.90 163.54 162.10 Z M 163.58 163.11 L 163.61 164.11 C 163.66 165.31 164.66 166.25 165.86 166.21 C 167.06 166.17 167.99 165.16 167.95 163.96 L 167.92 162.96 C 167.88 161.76 166.87 160.82 165.67 160.86 C 164.48 160.90 163.54 161.91 163.58 163.11 Z M 163.62 164.11 L 163.66 165.11 C 163.70 166.31 164.70 167.24 165.89 167.20 C 167.08 167.16 168.02 166.16 167.98 164.97 L 167.94 163.97 C 167.91 162.77 166.91 161.84 165.71 161.88 C 164.52 161.92 163.58 162.92 163.62 164.11 Z M 163.66 165.11 L 163.69 166.11 C 163.73 167.30 164.73 168.23 165.92 168.19 C 167.11 168.16 168.04 167.16 168.00 165.97 L 167.97 164.97 C 167.93 163.78 166.94 162.85 165.75 162.89 C 164.56 162.92 163.63 163.92 163.66 165.11 Z M 163.70 166.10 L 163.73 167.09 C 163.76 168.28 164.75 169.21 165.94 169.18 C 167.13 169.14 168.06 168.15 168.02 166.97 L 168.00 165.98 C 167.96 164.79 166.97 163.86 165.79 163.89 C 164.60 163.93 163.67 164.92 163.70 166.10 Z M 163.74 167.09 L 163.76 168.08 C 163.80 169.26 164.78 170.20 165.96 170.16 C 167.14 170.13 168.07 169.15 168.04 167.97 L 168.02 166.97 C 167.99 165.79 167.00 164.86 165.82 164.89 C 164.64 164.92 163.71 165.90 163.74 167.09 Z M 163.77 168.08 L 163.80 169.08 C 163.83 170.25 164.80 171.18 165.98 171.16 C 167.15 171.13 168.08 170.16 168.06 168.98 L 168.03 167.98 C 168.01 166.80 167.03 165.87 165.85 165.90 C 164.68 165.92 163.75 166.90 163.77 168.08 Z M 163.81 169.07 L 163.83 170.07 C 163.85 171.24 164.82 172.17 165.99 172.14 C 167.16 172.12 168.09 171.15 168.07 169.98 L 168.04 168.98 C 168.02 167.82 167.05 166.89 165.88 166.91 C 164.71 166.93 163.78 167.90 163.81 169.07 Z M 163.84 170.07 L 163.86 171.06 C 163.88 172.23 164.84 173.15 166.01 173.13 C 167.17 173.11 168.09 172.15 168.07 170.98 L 168.05 169.99 C 168.03 168.82 167.07 167.90 165.91 167.92 C 164.74 167.94 163.82 168.90 163.84 170.07 Z M 163.87 171.06 L 163.89 172.06 C 163.91 173.21 164.86 174.14 166.02 174.12 C 167.18 174.09 168.10 173.14 168.08 171.98 L 168.06 170.99 C 168.04 169.83 167.09 168.91 165.93 168.93 C 164.77 168.95 163.85 169.90 163.87 171.06 Z M 163.90 172.05 L 163.92 173.06 C 163.94 174.21 164.88 175.13 166.03 175.11 C 167.19 175.09 168.10 174.14 168.08 172.99 L 168.07 171.98 C 168.05 170.83 167.10 169.92 165.95 169.94 C 164.80 169.95 163.88 170.90 163.90 172.05 Z M 163.94 173.06 L 163.95 174.11 C 163.97 175.25 164.91 176.16 166.05 176.14 C 167.19 176.12 168.10 175.18 168.08 174.04 L 168.06 172.99 C 168.05 171.85 167.11 170.94 165.97 170.96 C 164.83 170.98 163.92 171.92 163.94 173.06 Z M 163.98 174.11 L 163.99 175.14 C 164.01 176.27 164.94 177.17 166.07 177.15 C 167.20 177.13 168.09 176.20 168.07 175.08 L 168.06 174.04 C 168.04 172.91 167.11 172.01 165.98 172.03 C 164.86 172.05 163.96 172.98 163.98 174.11 Z M 164.02 175.14 L 164.04 176.16 C 164.06 177.27 164.97 178.16 166.09 178.14 C 167.20 178.12 168.09 177.20 168.07 176.09 L 168.05 175.08 C 168.03 173.96 167.11 173.07 166.00 173.09 C 164.89 173.11 164.00 174.03 164.02 175.14 Z M 164.06 176.16 L 164.08 177.14 C 164.10 178.23 165.00 179.11 166.10 179.09 C 167.20 179.07 168.08 178.16 168.06 177.06 L 168.04 176.09 C 168.02 174.99 167.12 174.11 166.02 174.13 C 164.92 174.15 164.04 175.06 164.06 176.16 Z M 164.10 177.14 L 164.12 178.06 C 164.14 179.15 165.04 180.01 166.12 179.99 C 167.21 179.97 168.07 179.07 168.05 177.99 L 168.04 177.06 C 168.01 175.98 167.12 175.11 166.03 175.13 C 164.95 175.15 164.08 176.05 164.10 177.14 Z M 164.14 178.06 L 164.17 179.19 C 164.19 180.26 165.07 181.12 166.15 181.09 C 167.22 181.07 168.07 180.19 168.05 179.11 L 168.03 177.99 C 168.01 176.91 167.12 176.06 166.05 176.08 C 164.97 176.10 164.12 176.99 164.14 178.06 Z M 164.19 179.19 L 164.21 180.23 C 164.23 181.29 165.11 182.13 166.17 182.11 C 167.23 182.09 168.08 181.21 168.05 180.15 L 168.03 179.11 C 168.01 178.05 167.13 177.21 166.07 177.23 C 165.01 177.25 164.16 178.13 164.19 179.19 Z M 164.23 180.22 L 164.25 181.17 C 164.27 182.22 165.13 183.06 166.19 183.03 C 167.24 183.01 168.07 182.15 168.05 181.09 L 168.03 180.15 C 168.01 179.10 167.14 178.26 166.09 178.28 C 165.04 178.30 164.21 179.17 164.23 180.22 Z M 164.27 181.16 L 164.28 182.05 C 164.30 183.09 165.15 183.92 166.19 183.90 C 167.23 183.89 168.06 183.03 168.05 181.99 L 168.03 181.10 C 168.01 180.06 167.16 179.23 166.12 179.25 C 165.08 179.27 164.25 180.12 164.27 181.16 Z M 164.31 182.04 L 164.32 183.04 C 164.33 184.07 165.17 184.89 166.19 184.88 C 167.22 184.87 168.04 184.03 168.03 183.01 L 168.02 182.00 C 168.01 180.98 167.17 180.16 166.14 180.17 C 165.12 180.18 164.30 181.02 164.31 182.04 Z M 164.36 183.04 L 164.36 184.02 C 164.37 185.02 165.19 185.83 166.20 185.82 C 167.20 185.81 168.01 184.99 168.00 183.99 L 167.99 183.01 C 167.98 182.01 167.16 181.20 166.16 181.21 C 165.15 181.22 164.35 182.04 164.36 183.04 Z M 164.40 184.02 L 164.41 185.04 C 164.42 186.02 165.23 186.81 166.22 186.80 C 167.20 186.79 167.99 185.98 167.98 184.99 L 167.96 183.98 C 167.95 183.00 167.14 182.21 166.16 182.22 C 165.18 182.23 164.39 183.04 164.40 184.02 Z M 164.44 185.05 L 164.46 186.00 C 164.48 186.97 165.28 187.73 166.25 187.72 C 167.21 187.70 167.98 186.90 167.96 185.93 L 167.95 184.98 C 167.93 184.02 167.13 183.25 166.16 183.27 C 165.19 183.28 164.42 184.08 164.44 185.05 Z M 164.48 186.01 L 164.51 187.00 C 164.53 187.96 165.32 188.71 166.28 188.69 C 167.23 188.67 167.99 187.87 167.96 186.92 L 167.94 185.92 C 167.92 184.97 167.12 184.21 166.17 184.24 C 165.22 184.26 164.46 185.05 164.48 186.01 Z M 164.53 187.01 L 164.56 188.04 C 164.58 188.98 165.37 189.72 166.31 189.70 C 167.25 189.67 168.00 188.89 167.97 187.94 L 167.94 186.91 C 167.92 185.97 167.13 185.23 166.19 185.25 C 165.25 185.28 164.51 186.06 164.53 187.01 Z M 164.58 188.04 L 164.60 188.73 C 164.62 189.66 165.40 190.39 166.33 190.37 C 167.26 190.34 168.00 189.56 167.97 188.63 L 167.95 187.94 C 167.92 187.01 167.15 186.28 166.22 186.30 C 165.29 186.33 164.55 187.11 164.58 188.04 Z"
      fill="black"
      fill-rule="nonzero" /></svg>