<svg xmlns="http://www.w3.org/2000/svg" width="300" height="300" viewBox="0 0 300 300">
<path d="M 139.37 136.14 L 138.30 136.90 C 137.48 137.48 137.29 138.61 137.87 139.42 C 138.44 140.24 139.58 140.44 140.39 139.86 L 141.46 139.10 C 142.28 138.52 142.48 137.39 141.90 136.57 C 141.32 135.76 140.19 135.56 139.37 136.14 Z M 138.55 136.69 L 137.87 137.02 C 136.94 137.45 136.54 138.56 136.98 139.49 C 137.42 140.42 138.53 140.82 139.46 140.38 L 140.14 140.06 C 141.07 139.62 141.47 138.51 141.03 137.58 C 140.59 136.65 139.48 136.26 138.55 136.69 Z M 140.56 138.76 L 140.57 138.33 C 140.60 137.29 139.78 136.41 138.74 136.38 C 137.69 136.35 136.82 137.17 136.79 138.22 L 136.77 138.64 C 136.74 139.69 137.56 140.56 138.61 140.59 C 139.65 140.63 140.53 139.80 140.56 138.76 Z M 140.34 139.20 L 140.90 138.21 C 141.41 137.29 141.08 136.13 140.16 135.62 C 139.24 135.11 138.08 135.44 137.56 136.36 L 137.01 137.35 C 136.50 138.27 136.83 139.43 137.75 139.94 C 138.67 140.45 139.83 140.12 140.34 139.20 Z M 140.82 138.34 L 141.48 137.36 C 142.07 136.48 141.83 135.29 140.95 134.71 C 140.07 134.12 138.89 134.36 138.30 135.23 L 137.64 136.22 C 137.05 137.10 137.29 138.29 138.17 138.87 C 139.05 139.46 140.23 139.22 140.82 138.34 Z M 141.44 137.42 L 142.00 136.64 C 142.62 135.78 142.43 134.58 141.57 133.97 C 140.71 133.35 139.52 133.54 138.90 134.40 L 138.34 135.18 C 137.72 136.03 137.91 137.23 138.77 137.85 C 139.63 138.47 140.82 138.27 141.44 137.42 Z M 141.97 136.68 L 142.58 135.88 C 143.22 135.04 143.06 133.84 142.22 133.20 C 141.38 132.56 140.18 132.72 139.54 133.56 L 138.93 134.36 C 138.29 135.20 138.45 136.40 139.29 137.04 C 140.13 137.68 141.33 137.52 141.97 136.68 Z M 142.55 135.91 L 143.21 135.10 C 143.87 134.27 143.74 133.07 142.91 132.41 C 142.09 131.75 140.89 131.88 140.23 132.70 L 139.57 133.52 C 138.91 134.34 139.04 135.54 139.87 136.21 C 140.69 136.87 141.89 136.73 142.55 135.91 Z M 143.18 135.13 L 143.83 134.35 C 144.51 133.54 144.41 132.34 143.60 131.66 C 142.80 130.98 141.59 131.09 140.91 131.89 L 140.26 132.67 C 139.58 133.48 139.68 134.68 140.49 135.36 C 141.30 136.04 142.50 135.94 143.18 135.13 Z M 143.81 134.38 L 144.46 133.63 C 145.16 132.84 145.08 131.63 144.29 130.94 C 143.50 130.25 142.29 130.33 141.60 131.12 L 140.94 131.87 C 140.25 132.66 140.33 133.86 141.12 134.55 C 141.91 135.25 143.11 135.17 143.81 134.38 Z M 144.44 133.65 L 145.11 132.91 C 145.82 132.13 145.76 130.93 144.98 130.22 C 144.21 129.52 143.00 129.57 142.30 130.35 L 141.62 131.09 C 140.92 131.87 140.97 133.07 141.75 133.78 C 142.53 134.49 143.73 134.43 144.44 133.65 Z M 145.09 132.93 L 145.78 132.19 C 146.50 131.43 146.46 130.23 145.69 129.51 C 144.93 128.79 143.73 128.83 143.01 129.60 L 142.32 130.33 C 141.60 131.10 141.64 132.30 142.41 133.01 C 143.17 133.73 144.37 133.69 145.09 132.93 Z M 145.76 132.21 L 146.46 131.48 C 147.19 130.73 147.17 129.53 146.42 128.80 C 145.66 128.07 144.46 128.10 143.74 128.85 L 143.03 129.58 C 142.30 130.33 142.32 131.53 143.08 132.26 C 143.83 132.99 145.03 132.96 145.76 132.21 Z M 146.44 131.50 L 147.17 130.76 C 147.91 130.02 147.91 128.83 147.17 128.09 C 146.43 127.35 145.23 127.35 144.49 128.10 L 143.76 128.83 C 143.02 129.57 143.03 130.77 143.77 131.51 C 144.51 132.24 145.70 132.24 146.44 131.50 Z M 147.15 130.78 L 147.87 130.08 C 148.62 129.35 148.64 128.16 147.91 127.41 C 147.19 126.66 145.99 126.64 145.25 127.37 L 144.52 128.07 C 143.77 128.80 143.75 130.00 144.48 130.74 C 145.20 131.49 146.40 131.51 147.15 130.78 Z M 147.84 130.10 L 148.56 129.43 C 149.32 128.73 149.37 127.53 148.66 126.77 C 147.95 126.01 146.76 125.97 145.99 126.68 L 145.28 127.34 C 144.52 128.05 144.47 129.24 145.18 130.01 C 145.89 130.77 147.08 130.81 147.84 130.10 Z M 148.52 129.47 L 149.26 128.82 C 150.03 128.13 150.11 126.94 149.42 126.16 C 148.73 125.39 147.55 125.31 146.77 126.00 L 146.03 126.65 C 145.26 127.33 145.18 128.52 145.87 129.30 C 146.55 130.08 147.74 130.15 148.52 129.47 Z M 149.20 128.86 L 150.03 128.18 C 150.83 127.52 150.95 126.34 150.29 125.54 C 149.63 124.74 148.45 124.62 147.65 125.28 L 146.82 125.96 C 146.02 126.62 145.90 127.80 146.56 128.60 C 147.22 129.40 148.40 129.52 149.20 128.86 Z M 149.96 128.23 L 150.76 127.63 C 151.59 127.01 151.75 125.83 151.13 125.01 C 150.51 124.18 149.34 124.01 148.51 124.63 L 147.71 125.23 C 146.89 125.85 146.72 127.03 147.34 127.85 C 147.96 128.68 149.14 128.85 149.96 128.23 Z M 150.68 127.68 L 151.45 127.16 C 152.30 126.58 152.53 125.42 151.95 124.57 C 151.37 123.71 150.21 123.49 149.35 124.06 L 148.59 124.58 C 147.73 125.16 147.51 126.32 148.08 127.18 C 148.66 128.03 149.82 128.26 150.68 127.68 Z M 151.34 127.22 L 152.25 126.69 C 153.14 126.17 153.44 125.03 152.92 124.14 C 152.41 123.25 151.26 122.95 150.37 123.47 L 149.46 124.00 C 148.57 124.52 148.27 125.66 148.79 126.55 C 149.31 127.44 150.45 127.74 151.34 127.22 Z M 152.08 126.78 L 152.99 126.37 C 153.92 125.94 154.34 124.84 153.91 123.90 C 153.48 122.96 152.38 122.55 151.44 122.98 L 150.54 123.39 C 149.61 123.81 149.19 124.92 149.62 125.85 C 150.04 126.79 151.15 127.20 152.08 126.78 Z M 152.73 126.46 L 153.66 126.19 C 154.65 125.90 155.22 124.87 154.93 123.89 C 154.64 122.90 153.61 122.33 152.63 122.62 L 151.70 122.88 C 150.71 123.17 150.14 124.20 150.43 125.19 C 150.71 126.17 151.75 126.74 152.73 126.46 Z M 153.16 126.27 L 154.18 126.26 C 155.21 126.25 156.03 125.41 156.03 124.38 C 156.02 123.35 155.18 122.52 154.15 122.53 L 153.13 122.54 C 152.10 122.55 151.27 123.39 151.28 124.42 C 151.29 125.45 152.13 126.27 153.16 126.27 Z M 153.07 125.92 L 153.77 126.42 C 154.61 127.03 155.78 126.84 156.39 126.00 C 156.99 125.16 156.80 123.99 155.96 123.38 L 155.26 122.87 C 154.42 122.27 153.25 122.46 152.64 123.30 C 152.04 124.14 152.23 125.31 153.07 125.92 Z M 153.09 125.54 L 153.40 126.41 C 153.75 127.39 154.83 127.90 155.81 127.55 C 156.80 127.20 157.31 126.12 156.96 125.14 L 156.65 124.27 C 156.30 123.29 155.22 122.78 154.23 123.13 C 153.25 123.48 152.74 124.56 153.09 125.54 Z M 153.29 126.01 L 153.42 127.08 C 153.55 128.12 154.50 128.86 155.55 128.73 C 156.59 128.61 157.33 127.65 157.20 126.61 L 157.07 125.54 C 156.94 124.50 155.99 123.75 154.95 123.88 C 153.90 124.01 153.16 124.96 153.29 126.01 Z M 153.39 126.93 L 153.44 127.97 C 153.49 129.03 154.39 129.85 155.45 129.80 C 156.52 129.75 157.33 128.85 157.28 127.79 L 157.23 126.75 C 157.18 125.69 156.28 124.87 155.22 124.92 C 154.16 124.97 153.34 125.87 153.39 126.93 Z M 153.43 127.91 L 153.44 128.89 C 153.46 129.96 154.34 130.81 155.41 130.79 C 156.48 130.77 157.33 129.89 157.31 128.83 L 157.30 127.85 C 157.28 126.78 156.40 125.93 155.33 125.95 C 154.26 125.96 153.41 126.84 153.43 127.91 Z M 153.43 128.86 L 153.44 129.85 C 153.44 130.92 154.31 131.79 155.38 131.79 C 156.46 131.79 157.33 130.92 157.32 129.84 L 157.32 128.86 C 157.32 127.78 156.45 126.91 155.38 126.91 C 154.30 126.92 153.43 127.79 153.43 128.86 Z M 153.43 129.85 L 153.43 130.80 C 153.43 131.88 154.30 132.76 155.38 132.76 C 156.46 132.76 157.33 131.88 157.33 130.80 L 157.33 129.85 C 157.33 128.77 156.46 127.89 155.38 127.89 C 154.30 127.89 153.43 128.77 153.43 129.85 Z M 153.41 130.80 L 153.41 131.82 C 153.41 132.91 154.29 133.79 155.38 133.79 C 156.47 133.79 157.35 132.91 157.35 131.82 L 157.35 130.80 C 157.35 129.72 156.47 128.84 155.38 128.84 C 154.29 128.84 153.41 129.72 153.41 130.80 Z M 153.41 131.82 L 153.41 132.85 C 153.41 133.94 154.29 134.83 155.38 134.83 C 156.47 134.83 157.35 133.94 157.35 132.85 L 157.35 131.82 C 157.35 130.73 156.47 129.85 155.38 129.85 C 154.29 129.85 153.41 130.73 153.41 131.82 Z M 153.40 132.85 L 153.40 133.83 C 153.40 134.92 154.28 135.81 155.37 135.81 C 156.47 135.81 157.35 134.93 157.36 133.83 L 157.36 132.86 C 157.36 131.76 156.48 130.88 155.38 130.87 C 154.29 130.87 153.40 131.76 153.40 132.85 Z M 153.40 133.81 L 153.39 134.82 C 153.38 135.91 154.26 136.80 155.35 136.81 C 156.44 136.82 157.34 135.95 157.35 134.85 L 157.36 133.85 C 157.37 132.76 156.49 131.86 155.40 131.85 C 154.30 131.84 153.41 132.72 153.40 133.81 Z M 153.39 134.80 L 153.37 135.82 C 153.35 136.91 154.22 137.82 155.31 137.84 C 156.40 137.86 157.30 136.99 157.33 135.90 L 157.35 134.88 C 157.37 133.78 156.50 132.88 155.41 132.86 C 154.32 132.84 153.41 133.70 153.39 134.80 Z M 153.37 135.79 L 153.34 136.76 C 153.30 137.86 154.15 138.77 155.25 138.81 C 156.34 138.85 157.26 137.99 157.29 136.90 L 157.33 135.93 C 157.37 134.84 156.51 133.92 155.42 133.88 C 154.32 133.84 153.41 134.70 153.37 135.79 Z M 153.33 136.74 L 153.28 137.73 C 153.23 138.83 154.08 139.76 155.18 139.81 C 156.27 139.86 157.20 139.02 157.25 137.92 L 157.30 136.92 C 157.35 135.83 156.50 134.90 155.41 134.85 C 154.31 134.79 153.38 135.64 153.33 136.74 Z M 153.28 137.71 L 153.22 138.73 C 153.16 139.83 154.00 140.77 155.10 140.84 C 156.20 140.90 157.14 140.06 157.20 138.96 L 157.26 137.94 C 157.32 136.84 156.48 135.90 155.38 135.83 C 154.28 135.77 153.34 136.61 153.28 137.71 Z M 153.21 138.72 L 153.15 139.72 C 153.08 140.82 153.92 141.77 155.02 141.84 C 156.12 141.91 157.07 141.08 157.15 139.97 L 157.21 138.97 C 157.28 137.87 156.44 136.92 155.34 136.85 C 154.24 136.78 153.28 137.61 153.21 138.72 Z M 153.14 139.71 L 153.08 140.70 C 153.00 141.80 153.84 142.76 154.95 142.84 C 156.05 142.91 157.01 142.07 157.08 140.97 L 157.15 139.98 C 157.23 138.87 156.39 137.91 155.28 137.84 C 154.18 137.77 153.22 138.60 153.14 139.71 Z M 153.07 140.70 L 153.00 141.70 C 152.93 142.81 153.77 143.77 154.88 143.85 C 155.99 143.92 156.95 143.08 157.03 141.97 L 157.09 140.96 C 157.16 139.85 156.32 138.89 155.21 138.82 C 154.10 138.75 153.14 139.59 153.07 140.70 Z M 153.00 141.72 L 152.94 142.73 C 152.87 143.84 153.72 144.80 154.84 144.87 C 155.95 144.93 156.91 144.08 156.97 142.97 L 157.03 141.95 C 157.10 140.84 156.25 139.88 155.13 139.82 C 154.02 139.75 153.06 140.60 153.00 141.72 Z M 152.93 142.75 L 152.88 143.75 C 152.83 144.87 153.69 145.82 154.81 145.87 C 155.93 145.93 156.88 145.06 156.94 143.94 L 156.98 142.94 C 157.04 141.82 156.17 140.87 155.05 140.82 C 153.93 140.77 152.98 141.63 152.93 142.75 Z M 152.87 143.77 L 152.84 144.77 C 152.79 145.89 153.67 146.84 154.80 146.88 C 155.92 146.92 156.87 146.04 156.91 144.92 L 156.94 143.92 C 156.98 142.80 156.11 141.85 154.98 141.81 C 153.86 141.77 152.91 142.65 152.87 143.77 Z M 152.83 144.79 L 152.80 145.79 C 152.77 146.92 153.66 147.86 154.79 147.89 C 155.92 147.92 156.86 147.03 156.89 145.90 L 156.92 144.90 C 156.95 143.77 156.06 142.83 154.93 142.80 C 153.80 142.77 152.86 143.66 152.83 144.79 Z M 152.79 145.81 L 152.77 146.81 C 152.75 147.95 153.66 148.88 154.79 148.90 C 155.92 148.92 156.86 148.02 156.88 146.89 L 156.90 145.88 C 156.92 144.75 156.02 143.81 154.88 143.79 C 153.75 143.77 152.81 144.67 152.79 145.81 Z M 152.77 146.83 L 152.76 147.82 C 152.74 148.96 153.66 149.89 154.79 149.91 C 155.93 149.92 156.86 149.01 156.88 147.87 L 156.89 146.87 C 156.90 145.73 155.99 144.80 154.85 144.79 C 153.71 144.78 152.78 145.69 152.77 146.83 Z M 152.75 147.83 L 152.75 148.83 C 152.74 149.97 153.66 150.90 154.80 150.91 C 155.94 150.91 156.87 149.99 156.88 148.85 L 156.88 147.86 C 156.89 146.72 155.97 145.79 154.83 145.78 C 153.69 145.77 152.76 146.69 152.75 147.83 Z M 152.74 148.84 L 152.74 149.84 C 152.74 150.98 153.66 151.91 154.80 151.91 C 155.95 151.92 156.88 150.99 156.88 149.85 L 156.88 148.85 C 156.88 147.70 155.96 146.78 154.81 146.77 C 153.67 146.77 152.74 147.70 152.74 148.84 Z M 152.73 149.84 L 152.73 150.85 C 152.73 152.00 153.66 152.92 154.81 152.92 C 155.95 152.92 156.88 152.00 156.88 150.85 L 156.88 149.84 C 156.88 148.70 155.95 147.77 154.81 147.77 C 153.66 147.77 152.73 148.70 152.73 149.84 Z M 152.73 150.85 L 152.73 151.88 C 152.73 153.03 153.66 153.96 154.81 153.96 C 155.96 153.96 156.89 153.03 156.89 151.88 L 156.89 150.85 C 156.89 149.70 155.96 148.77 154.81 148.77 C 153.66 148.77 152.73 149.70 152.73 150.85 Z M 152.71 151.88 L 152.71 152.90 C 152.71 154.05 153.65 154.99 154.81 154.99 C 155.97 154.99 156.90 154.05 156.90 152.90 L 156.90 151.88 C 156.90 150.72 155.97 149.78 154.81 149.78 C 153.65 149.78 152.71 150.72 152.71 151.88 Z M 152.70 152.90 L 152.70 153.89 C 152.70 155.05 153.64 155.99 154.81 155.99 C 155.97 155.99 156.92 155.05 156.92 153.89 L 156.92 152.90 C 156.92 151.73 155.97 150.79 154.81 150.79 C 153.64 150.79 152.70 151.73 152.70 152.90 Z M 152.69 153.89 L 152.69 154.87 C 152.69 156.04 153.64 156.99 154.81 156.99 C 155.98 156.99 156.93 156.04 156.93 154.87 L 156.93 153.89 C 156.93 152.72 155.98 151.77 154.81 151.77 C 153.64 151.77 152.69 152.72 152.69 153.89 Z M 152.68 154.88 L 152.68 155.93 C 152.69 157.10 153.64 158.05 154.82 158.05 C 156.00 158.05 156.95 157.09 156.94 155.91 L 156.94 154.86 C 156.93 153.68 155.98 152.73 154.80 152.74 C 153.62 152.74 152.67 153.70 152.68 154.88 Z M 152.67 155.97 L 152.69 156.95 C 152.72 158.14 153.70 159.07 154.88 159.05 C 156.06 159.02 157.00 158.04 156.98 156.86 L 156.95 155.87 C 156.93 154.69 155.95 153.75 154.77 153.78 C 153.58 153.80 152.65 154.78 152.67 155.97 Z M 152.69 157.03 L 152.74 157.97 C 152.81 159.16 153.82 160.06 155.01 160.00 C 156.20 159.93 157.10 158.91 157.04 157.73 L 156.98 156.78 C 156.92 155.60 155.90 154.69 154.71 154.76 C 153.53 154.82 152.62 155.84 152.69 157.03 Z M 152.74 158.08 L 152.85 159.10 C 152.98 160.29 154.05 161.14 155.23 161.01 C 156.42 160.88 157.28 159.82 157.15 158.63 L 157.04 157.61 C 156.91 156.43 155.84 155.57 154.65 155.70 C 153.46 155.83 152.61 156.90 152.74 158.08 Z M 152.86 159.23 L 153.03 160.21 C 153.23 161.40 154.35 162.19 155.54 161.99 C 156.72 161.78 157.51 160.66 157.31 159.48 L 157.14 158.50 C 156.94 157.31 155.81 156.52 154.63 156.72 C 153.45 156.93 152.66 158.05 152.86 159.23 Z M 153.05 160.35 L 153.27 161.31 C 153.55 162.48 154.73 163.20 155.90 162.92 C 157.07 162.64 157.79 161.47 157.52 160.30 L 157.29 159.34 C 157.01 158.17 155.83 157.45 154.66 157.73 C 153.49 158.00 152.77 159.18 153.05 160.35 Z M 153.30 161.45 L 153.60 162.42 C 153.96 163.57 155.18 164.22 156.34 163.87 C 157.49 163.51 158.14 162.29 157.79 161.13 L 157.49 160.16 C 157.13 159.00 155.91 158.36 154.75 158.71 C 153.60 159.07 152.95 160.29 153.30 161.45 Z M 153.64 162.56 L 154.00 163.49 C 154.43 164.62 155.69 165.19 156.83 164.76 C 157.96 164.33 158.53 163.06 158.10 161.93 L 157.75 161.00 C 157.32 159.86 156.05 159.29 154.92 159.72 C 153.78 160.15 153.21 161.42 153.64 162.56 Z M 154.04 163.62 L 154.46 164.53 C 154.96 165.63 156.26 166.12 157.37 165.62 C 158.48 165.12 158.97 163.81 158.47 162.71 L 158.05 161.80 C 157.55 160.69 156.25 160.20 155.14 160.70 C 154.03 161.20 153.54 162.51 154.04 163.62 Z M 154.52 164.66 L 155.01 165.56 C 155.58 166.63 156.92 167.03 157.99 166.45 C 159.06 165.87 159.46 164.53 158.88 163.46 L 158.40 162.57 C 157.82 161.50 156.49 161.10 155.41 161.68 C 154.34 162.26 153.95 163.59 154.52 164.66 Z M 155.10 165.71 L 155.63 166.53 C 156.29 167.55 157.65 167.83 158.67 167.17 C 159.69 166.51 159.98 165.14 159.32 164.12 L 158.79 163.31 C 158.13 162.29 156.76 162.00 155.74 162.66 C 154.72 163.33 154.43 164.69 155.10 165.71 Z M 155.75 166.69 L 156.37 167.48 C 157.13 168.43 158.51 168.59 159.47 167.83 C 160.42 167.08 160.58 165.69 159.82 164.74 L 159.20 163.95 C 158.44 163.00 157.06 162.84 156.10 163.60 C 155.15 164.36 154.99 165.74 155.75 166.69 Z M 156.50 167.63 L 157.19 168.35 C 158.03 169.23 159.42 169.26 160.30 168.42 C 161.18 167.58 161.21 166.18 160.37 165.30 L 159.69 164.58 C 158.85 163.71 157.45 163.67 156.57 164.52 C 155.69 165.36 155.66 166.75 156.50 167.63 Z M 157.31 168.46 L 157.97 169.06 C 158.88 169.87 160.27 169.80 161.08 168.89 C 161.89 167.99 161.82 166.60 160.92 165.79 L 160.25 165.19 C 159.35 164.38 157.96 164.45 157.15 165.35 C 156.33 166.26 156.41 167.65 157.31 168.46 Z M 158.23 169.25 L 158.98 169.75 C 159.99 170.42 161.35 170.15 162.02 169.14 C 162.70 168.14 162.42 166.77 161.42 166.10 L 160.66 165.60 C 159.66 164.92 158.29 165.20 157.62 166.20 C 156.95 167.21 157.22 168.57 158.23 169.25 Z M 159.40 169.96 L 160.44 170.37 C 161.57 170.81 162.84 170.26 163.28 169.14 C 163.72 168.01 163.17 166.74 162.04 166.30 L 161.00 165.89 C 159.87 165.45 158.60 166.00 158.16 167.12 C 157.72 168.25 158.27 169.52 159.40 169.96 Z M 160.79 170.47 L 161.75 170.67 C 162.93 170.92 164.09 170.17 164.34 168.99 C 164.59 167.81 163.84 166.65 162.66 166.40 L 161.69 166.20 C 160.52 165.95 159.36 166.70 159.11 167.88 C 158.86 169.06 159.61 170.22 160.79 170.47 Z M 161.96 170.70 L 162.94 170.81 C 164.13 170.95 165.21 170.09 165.34 168.89 C 165.48 167.70 164.62 166.62 163.42 166.48 L 162.45 166.37 C 161.25 166.24 160.17 167.10 160.04 168.30 C 159.90 169.49 160.76 170.57 161.96 170.70 Z M 163.11 170.82 L 164.15 170.86 C 165.35 170.90 166.36 169.96 166.40 168.76 C 166.44 167.56 165.49 166.55 164.29 166.51 L 163.25 166.48 C 162.05 166.43 161.05 167.38 161.01 168.58 C 160.97 169.78 161.91 170.78 163.11 170.82 Z M 164.33 170.85 L 165.38 170.80 C 166.58 170.74 167.50 169.72 167.44 168.53 C 167.38 167.33 166.36 166.40 165.16 166.46 L 164.11 166.51 C 162.92 166.57 161.99 167.59 162.05 168.79 C 162.11 169.99 163.13 170.91 164.33 170.85 Z M 165.59 170.78 L 166.60 170.63 C 167.78 170.45 168.60 169.34 168.42 168.16 C 168.24 166.98 167.14 166.16 165.95 166.34 L 164.95 166.49 C 163.77 166.67 162.95 167.77 163.13 168.95 C 163.30 170.14 164.41 170.95 165.59 170.78 Z M 166.88 170.56 L 167.92 170.25 C 169.07 169.92 169.72 168.71 169.39 167.57 C 169.05 166.42 167.85 165.77 166.70 166.10 L 165.67 166.41 C 164.52 166.74 163.86 167.95 164.20 169.09 C 164.54 170.24 165.74 170.89 166.88 170.56 Z M 168.22 170.13 L 169.13 169.70 C 170.21 169.20 170.68 167.92 170.18 166.84 C 169.67 165.77 168.39 165.30 167.32 165.80 L 166.40 166.23 C 165.33 166.73 164.86 168.01 165.36 169.09 C 165.87 170.16 167.14 170.63 168.22 170.13 Z M 169.38 169.55 L 170.20 169.03 C 171.19 168.39 171.48 167.07 170.84 166.07 C 170.20 165.08 168.87 164.79 167.88 165.43 L 167.07 165.95 C 166.08 166.59 165.79 167.92 166.43 168.91 C 167.07 169.90 168.39 170.19 169.38 169.55 Z M 170.38 168.88 L 171.11 168.29 C 172.02 167.55 172.16 166.21 171.42 165.29 C 170.68 164.38 169.34 164.24 168.43 164.98 L 167.70 165.58 C 166.79 166.32 166.65 167.66 167.39 168.57 C 168.13 169.48 169.47 169.62 170.38 168.88 Z M 171.24 168.16 L 171.99 167.43 C 172.83 166.62 172.85 165.28 172.04 164.44 C 171.23 163.60 169.89 163.58 169.05 164.39 L 168.30 165.12 C 167.46 165.93 167.44 167.27 168.25 168.11 C 169.06 168.95 170.40 168.97 171.24 168.16 Z M 172.10 167.30 L 172.77 166.53 C 173.54 165.66 173.46 164.33 172.58 163.56 C 171.71 162.79 170.38 162.88 169.61 163.75 L 168.94 164.52 C 168.17 165.40 168.25 166.73 169.13 167.49 C 170.00 168.26 171.33 168.17 172.10 167.30 Z M 172.87 166.40 L 173.46 165.61 C 174.15 164.69 173.96 163.37 173.03 162.68 C 172.11 161.99 170.79 162.18 170.10 163.10 L 169.51 163.89 C 168.82 164.82 169.01 166.13 169.94 166.82 C 170.86 167.51 172.18 167.32 172.87 166.40 Z M 173.54 165.46 L 174.07 164.63 C 174.68 163.65 174.38 162.37 173.40 161.76 C 172.43 161.15 171.14 161.44 170.53 162.42 L 170.01 163.26 C 169.40 164.23 169.70 165.52 170.67 166.12 C 171.65 166.73 172.93 166.44 173.54 165.46 Z M 174.15 164.44 L 174.61 163.51 C 175.12 162.49 174.70 161.25 173.68 160.74 C 172.66 160.24 171.43 160.65 170.92 161.67 L 170.45 162.61 C 169.95 163.62 170.36 164.86 171.38 165.37 C 172.40 165.88 173.64 165.46 174.15 164.44 Z M 174.67 163.30 L 175.01 162.40 C 175.41 161.34 174.87 160.17 173.82 159.78 C 172.76 159.38 171.59 159.92 171.20 160.97 L 170.86 161.88 C 170.46 162.93 171.00 164.10 172.05 164.50 C 173.11 164.89 174.28 164.36 174.67 163.30 Z M 175.05 162.20 L 175.29 161.29 C 175.58 160.22 174.94 159.11 173.86 158.83 C 172.79 158.54 171.69 159.18 171.40 160.25 L 171.16 161.17 C 170.88 162.24 171.51 163.34 172.59 163.63 C 173.66 163.91 174.76 163.27 175.05 162.20 Z M 175.30 161.10 L 175.46 160.15 C 175.64 159.07 174.92 158.05 173.84 157.86 C 172.76 157.68 171.74 158.41 171.56 159.48 L 171.40 160.44 C 171.21 161.52 171.94 162.54 173.02 162.72 C 174.09 162.91 175.12 162.18 175.30 161.10 Z M 175.45 159.99 L 175.54 158.98 C 175.64 157.91 174.85 156.96 173.78 156.87 C 172.71 156.77 171.76 157.56 171.67 158.63 L 171.57 159.64 C 171.48 160.71 172.26 161.66 173.33 161.75 C 174.40 161.85 175.35 161.06 175.45 159.99 Z M 175.51 158.88 L 175.55 157.86 C 175.59 156.80 174.77 155.91 173.72 155.87 C 172.66 155.83 171.77 156.65 171.73 157.70 L 171.69 158.73 C 171.65 159.78 172.47 160.67 173.53 160.71 C 174.58 160.75 175.47 159.93 175.51 158.88 Z M 175.52 157.76 L 175.51 156.73 C 175.50 155.69 174.65 154.86 173.61 154.87 C 172.57 154.88 171.74 155.73 171.75 156.77 L 171.76 157.80 C 171.78 158.84 172.63 159.67 173.66 159.66 C 174.70 159.65 175.53 158.79 175.52 157.76 Z M 175.47 156.58 L 175.38 155.60 C 175.29 154.58 174.39 153.83 173.37 153.93 C 172.36 154.02 171.61 154.92 171.70 155.93 L 171.79 156.92 C 171.88 157.93 172.78 158.68 173.80 158.59 C 174.81 158.50 175.56 157.60 175.47 156.58 Z M 175.30 155.35 L 175.06 154.36 C 174.83 153.39 173.87 152.79 172.90 153.01 C 171.93 153.24 171.33 154.21 171.55 155.18 L 171.79 156.18 C 172.01 157.14 172.98 157.75 173.95 157.52 C 174.92 157.29 175.52 156.32 175.30 155.35 Z M 174.91 154.08 L 174.52 153.18 C 174.14 152.30 173.12 151.89 172.23 152.27 C 171.35 152.65 170.94 153.67 171.32 154.56 L 171.71 155.46 C 172.09 156.34 173.11 156.75 174.00 156.37 C 174.88 155.99 175.29 154.96 174.91 154.08 Z M 174.38 153.02 L 173.89 152.19 C 173.43 151.39 172.40 151.11 171.59 151.58 C 170.79 152.05 170.51 153.08 170.98 153.88 L 171.46 154.72 C 171.93 155.52 172.96 155.79 173.77 155.33 C 174.57 154.86 174.84 153.83 174.38 153.02 Z M 173.81 152.13 L 173.26 151.31 C 172.76 150.56 171.75 150.35 170.99 150.85 C 170.23 151.35 170.03 152.37 170.53 153.12 L 171.07 153.94 C 171.57 154.70 172.59 154.91 173.34 154.41 C 174.10 153.91 174.31 152.89 173.81 152.13 Z M 173.18 151.25 L 172.57 150.44 C 172.04 149.73 171.03 149.58 170.32 150.12 C 169.61 150.65 169.46 151.66 170.00 152.37 L 170.61 153.18 C 171.14 153.90 172.15 154.04 172.86 153.50 C 173.57 152.97 173.72 151.96 173.18 151.25 Z M 172.49 150.37 L 171.84 149.61 C 171.27 148.95 170.26 148.87 169.60 149.44 C 168.93 150.01 168.86 151.02 169.43 151.68 L 170.08 152.44 C 170.65 153.10 171.65 153.18 172.32 152.61 C 172.98 152.04 173.06 151.03 172.49 150.37 Z M 171.78 149.56 L 171.09 148.84 C 170.49 148.21 169.49 148.18 168.86 148.78 C 168.23 149.37 168.20 150.37 168.80 151.00 L 169.49 151.73 C 170.09 152.36 171.08 152.39 171.72 151.79 C 172.35 151.19 172.37 150.20 171.78 149.56 Z M 171.06 148.82 L 170.42 148.17 C 169.81 147.56 168.82 147.55 168.20 148.16 C 167.59 148.77 167.58 149.76 168.19 150.37 L 168.83 151.02 C 169.44 151.64 170.43 151.64 171.05 151.03 C 171.66 150.43 171.67 149.43 171.06 148.82 Z"
      fill="black"
      fill-rule="nonzero" /><path d="M 145.79 119.89 L 145.60 120.89 C 145.43 121.84 146.06 122.76 147.01 122.93 C 147.97 123.11 148.88 122.48 149.06 121.52 L 149.24 120.53 C 149.42 119.57 148.79 118.65 147.83 118.48 C 146.88 118.30 145.96 118.93 145.79 119.89 Z M 145.48 120.90 L 145.32 121.89 C 145.15 122.91 145.85 123.87 146.87 124.04 C 147.89 124.21 148.86 123.51 149.02 122.49 L 149.18 121.51 C 149.35 120.48 148.66 119.52 147.63 119.35 C 146.61 119.19 145.65 119.88 145.48 120.90 Z M 145.22 121.96 L 145.11 122.92 C 144.98 124.00 145.75 124.97 146.82 125.10 C 147.90 125.23 148.88 124.46 149.01 123.38 L 149.12 122.42 C 149.25 121.34 148.48 120.37 147.40 120.24 C 146.33 120.11 145.35 120.88 145.22 121.96 Z M 145.07 123.00 L 144.99 123.97 C 144.90 125.07 145.73 126.03 146.82 126.11 C 147.92 126.20 148.88 125.38 148.97 124.28 L 149.05 123.31 C 149.13 122.21 148.31 121.25 147.21 121.16 C 146.11 121.08 145.15 121.90 145.07 123.00 Z M 144.99 123.99 L 144.91 125.02 C 144.84 126.12 145.67 127.07 146.77 127.15 C 147.87 127.22 148.83 126.39 148.90 125.29 L 148.97 124.26 C 149.05 123.16 148.22 122.20 147.12 122.13 C 146.02 122.05 145.06 122.88 144.99 123.99 Z M 144.92 124.99 L 144.84 125.90 C 144.75 127.00 145.57 127.97 146.68 128.06 C 147.78 128.15 148.74 127.32 148.83 126.22 L 148.90 125.31 C 148.99 124.21 148.17 123.25 147.07 123.16 C 145.97 123.07 145.00 123.89 144.92 124.99 Z M 144.85 125.88 L 144.75 126.88 C 144.65 127.98 145.46 128.95 146.56 129.05 C 147.66 129.15 148.63 128.34 148.73 127.24 L 148.83 126.25 C 148.93 125.15 148.12 124.17 147.02 124.07 C 145.92 123.97 144.95 124.78 144.85 125.88 Z M 144.76 126.86 L 144.65 127.94 C 144.54 129.04 145.34 130.02 146.43 130.13 C 147.53 130.24 148.51 129.44 148.62 128.34 L 148.73 127.26 C 148.84 126.16 148.04 125.18 146.95 125.07 C 145.85 124.96 144.87 125.76 144.76 126.86 Z M 144.65 127.93 L 144.55 128.86 C 144.43 129.95 145.22 130.94 146.32 131.06 C 147.41 131.18 148.40 130.38 148.52 129.29 L 148.62 128.36 C 148.74 127.26 147.95 126.28 146.85 126.16 C 145.75 126.04 144.77 126.83 144.65 127.93 Z M 144.55 128.85 L 144.44 129.81 C 144.32 130.90 145.10 131.89 146.20 132.02 C 147.29 132.14 148.28 131.36 148.40 130.27 L 148.51 129.30 C 148.64 128.21 147.86 127.22 146.76 127.09 C 145.67 126.97 144.68 127.75 144.55 128.85 Z M 144.45 129.80 L 144.32 130.82 C 144.19 131.91 144.97 132.90 146.06 133.03 C 147.15 133.16 148.15 132.38 148.28 131.29 L 148.40 130.28 C 148.53 129.19 147.75 128.19 146.66 128.06 C 145.57 127.93 144.58 128.71 144.45 129.80 Z M 144.33 130.80 L 144.19 131.87 C 144.06 132.96 144.83 133.95 145.92 134.09 C 147.01 134.23 148.00 133.46 148.14 132.37 L 148.27 131.30 C 148.41 130.21 147.64 129.22 146.55 129.08 C 145.46 128.94 144.47 129.72 144.33 130.80 Z M 144.20 131.86 L 144.07 132.80 C 143.93 133.89 144.70 134.89 145.78 135.03 C 146.87 135.17 147.87 134.41 148.01 133.32 L 148.14 132.38 C 148.28 131.29 147.51 130.29 146.43 130.15 C 145.34 130.01 144.34 130.77 144.20 131.86 Z M 144.08 132.79 L 143.94 133.76 C 143.79 134.84 144.55 135.84 145.64 135.99 C 146.73 136.14 147.73 135.38 147.88 134.30 L 148.01 133.33 C 148.16 132.24 147.40 131.24 146.31 131.09 C 145.23 130.95 144.23 131.70 144.08 132.79 Z M 143.95 133.74 L 143.80 134.74 C 143.65 135.82 144.40 136.83 145.48 136.98 C 146.57 137.14 147.57 136.39 147.73 135.30 L 147.87 134.31 C 148.03 133.22 147.28 132.22 146.19 132.06 C 145.11 131.91 144.10 132.66 143.95 133.74 Z M 143.81 134.72 L 143.65 135.75 C 143.49 136.83 144.23 137.84 145.32 138.00 C 146.40 138.16 147.41 137.42 147.57 136.34 L 147.73 135.32 C 147.89 134.23 147.14 133.22 146.06 133.06 C 144.98 132.90 143.97 133.64 143.81 134.72 Z M 143.66 135.73 L 143.49 136.75 C 143.32 137.83 144.06 138.85 145.14 139.02 C 146.22 139.19 147.23 138.46 147.40 137.38 L 147.57 136.35 C 147.74 135.27 147.00 134.26 145.92 134.09 C 144.84 133.91 143.83 134.65 143.66 135.73 Z M 143.50 136.74 L 143.34 137.70 C 143.16 138.78 143.88 139.80 144.96 139.98 C 146.04 140.16 147.06 139.43 147.24 138.35 L 147.40 137.39 C 147.58 136.31 146.85 135.29 145.78 135.11 C 144.70 134.93 143.68 135.66 143.50 136.74 Z M 143.34 137.68 L 143.17 138.66 C 142.98 139.73 143.70 140.76 144.77 140.95 C 145.85 141.14 146.87 140.42 147.06 139.34 L 147.24 138.37 C 147.42 137.29 146.71 136.27 145.63 136.08 C 144.56 135.89 143.53 136.61 143.34 137.68 Z M 143.17 138.64 L 142.99 139.63 C 142.79 140.70 143.50 141.73 144.57 141.93 C 145.64 142.13 146.67 141.42 146.87 140.35 L 147.06 139.36 C 147.26 138.29 146.55 137.26 145.48 137.06 C 144.41 136.86 143.37 137.57 143.17 138.64 Z M 143.00 139.61 L 142.80 140.60 C 142.59 141.67 143.28 142.71 144.35 142.92 C 145.42 143.13 146.46 142.44 146.67 141.37 L 146.87 140.37 C 147.08 139.30 146.38 138.26 145.31 138.05 C 144.24 137.84 143.21 138.54 143.00 139.61 Z M 142.80 140.58 L 142.60 141.58 C 142.37 142.65 143.06 143.69 144.12 143.92 C 145.19 144.14 146.23 143.46 146.46 142.39 L 146.67 141.39 C 146.89 140.32 146.21 139.28 145.14 139.05 C 144.07 138.83 143.03 139.51 142.80 140.58 Z M 142.60 141.56 L 142.39 142.53 C 142.15 143.59 142.82 144.64 143.88 144.88 C 144.95 145.11 146.00 144.44 146.24 143.38 L 146.45 142.41 C 146.69 141.35 146.02 140.30 144.95 140.06 C 143.89 139.83 142.84 140.50 142.60 141.56 Z M 142.39 142.50 L 142.17 143.47 C 141.92 144.53 142.57 145.59 143.63 145.84 C 144.69 146.09 145.75 145.43 146.00 144.37 L 146.23 143.40 C 146.48 142.35 145.82 141.29 144.76 141.04 C 143.70 140.79 142.64 141.45 142.39 142.50 Z M 142.17 143.45 L 141.93 144.42 C 141.67 145.48 142.31 146.54 143.37 146.81 C 144.42 147.07 145.49 146.42 145.75 145.37 L 145.99 144.40 C 146.26 143.34 145.61 142.28 144.56 142.01 C 143.50 141.75 142.43 142.40 142.17 143.45 Z M 141.94 144.40 L 141.69 145.37 C 141.41 146.42 142.04 147.49 143.09 147.77 C 144.14 148.04 145.22 147.41 145.49 146.36 L 145.75 145.39 C 146.02 144.34 145.39 143.27 144.34 142.99 C 143.29 142.72 142.21 143.35 141.94 144.40 Z M 141.69 145.34 L 141.43 146.31 C 141.14 147.36 141.75 148.44 142.80 148.73 C 143.85 149.02 144.93 148.40 145.22 147.36 L 145.48 146.39 C 145.77 145.34 145.16 144.26 144.11 143.97 C 143.06 143.68 141.98 144.30 141.69 145.34 Z M 141.44 146.29 L 141.16 147.25 C 140.86 148.30 141.46 149.39 142.50 149.69 C 143.54 149.99 144.63 149.39 144.93 148.35 L 145.21 147.38 C 145.51 146.34 144.91 145.25 143.87 144.95 C 142.83 144.65 141.74 145.25 141.44 146.29 Z M 141.17 147.23 L 140.87 148.19 C 140.56 149.23 141.14 150.32 142.18 150.64 C 143.22 150.95 144.31 150.37 144.63 149.33 L 144.92 148.37 C 145.24 147.33 144.65 146.24 143.61 145.92 C 142.58 145.61 141.48 146.19 141.17 147.23 Z M 140.88 148.17 L 140.58 149.12 C 140.25 150.16 140.82 151.26 141.85 151.59 C 142.89 151.91 143.99 151.34 144.32 150.31 L 144.62 149.36 C 144.95 148.32 144.38 147.22 143.35 146.89 C 142.31 146.56 141.21 147.14 140.88 148.17 Z M 140.59 149.10 L 140.27 150.05 C 139.93 151.08 140.49 152.19 141.52 152.53 C 142.54 152.87 143.65 152.31 143.99 151.28 L 144.31 150.33 C 144.65 149.31 144.09 148.20 143.06 147.86 C 142.04 147.52 140.93 148.07 140.59 149.10 Z M 140.28 150.03 L 139.96 150.97 C 139.60 151.99 140.15 153.11 141.17 153.46 C 142.19 153.81 143.30 153.27 143.66 152.25 L 143.98 151.31 C 144.34 150.28 143.79 149.17 142.77 148.82 C 141.75 148.46 140.64 149.01 140.28 150.03 Z M 139.97 150.95 L 139.63 151.88 C 139.26 152.90 139.79 154.02 140.81 154.38 C 141.83 154.75 142.95 154.22 143.31 153.20 L 143.65 152.27 C 144.01 151.25 143.48 150.13 142.47 149.77 C 141.45 149.40 140.33 149.93 139.97 150.95 Z M 139.64 151.86 L 139.29 152.79 C 138.92 153.80 139.43 154.92 140.44 155.30 C 141.45 155.68 142.58 155.17 142.95 154.16 L 143.30 153.23 C 143.68 152.22 143.17 151.09 142.15 150.71 C 141.14 150.34 140.02 150.85 139.64 151.86 Z M 139.31 152.77 L 138.95 153.69 C 138.56 154.69 139.06 155.82 140.06 156.21 C 141.07 156.60 142.20 156.10 142.59 155.10 L 142.94 154.18 C 143.33 153.17 142.83 152.04 141.83 151.65 C 140.83 151.26 139.69 151.76 139.31 152.77 Z M 138.96 153.67 L 138.59 154.59 C 138.19 155.59 138.67 156.72 139.67 157.12 C 140.67 157.53 141.80 157.04 142.20 156.04 L 142.57 155.12 C 142.98 154.12 142.49 152.99 141.49 152.59 C 140.50 152.19 139.36 152.67 138.96 153.67 Z M 138.60 154.57 L 138.21 155.49 C 137.80 156.48 138.27 157.62 139.26 158.04 C 140.25 158.45 141.39 157.98 141.81 156.99 L 142.19 156.07 C 142.61 155.07 142.14 153.93 141.15 153.52 C 140.15 153.11 139.01 153.57 138.60 154.57 Z M 138.23 155.47 L 137.82 156.40 C 137.40 157.39 137.85 158.53 138.84 158.96 C 139.82 159.38 140.96 158.93 141.39 157.94 L 141.79 157.01 C 142.22 156.03 141.77 154.88 140.78 154.46 C 139.80 154.03 138.65 154.48 138.23 155.47 Z M 137.84 156.38 L 137.42 157.31 C 136.98 158.29 137.42 159.43 138.40 159.87 C 139.38 160.31 140.53 159.87 140.96 158.89 L 141.38 157.96 C 141.82 156.99 141.38 155.84 140.40 155.40 C 139.42 154.96 138.27 155.40 137.84 156.38 Z M 137.43 157.29 L 137.01 158.21 C 136.56 159.18 136.99 160.33 137.96 160.78 C 138.93 161.23 140.08 160.80 140.53 159.83 L 140.95 158.91 C 141.40 157.94 140.97 156.79 140.00 156.34 C 139.03 155.89 137.88 156.32 137.43 157.29 Z M 137.02 158.19 L 136.59 159.11 C 136.13 160.08 136.54 161.23 137.50 161.69 C 138.47 162.14 139.62 161.73 140.08 160.77 L 140.51 159.85 C 140.97 158.89 140.56 157.73 139.60 157.28 C 138.63 156.82 137.48 157.23 137.02 158.19 Z M 136.60 159.09 L 136.16 160.00 C 135.69 160.96 136.08 162.11 137.04 162.58 C 138.00 163.05 139.15 162.65 139.62 161.69 L 140.06 160.79 C 140.53 159.83 140.14 158.68 139.18 158.21 C 138.22 157.74 137.07 158.14 136.60 159.09 Z M 136.17 159.98 L 135.72 160.86 C 135.24 161.81 135.62 162.97 136.57 163.45 C 137.52 163.93 138.68 163.55 139.16 162.60 L 139.60 161.71 C 140.08 160.77 139.70 159.61 138.76 159.13 C 137.81 158.65 136.65 159.03 136.17 159.98 Z M 135.74 160.84 L 135.29 161.70 C 134.80 162.64 135.16 163.80 136.10 164.29 C 137.04 164.78 138.20 164.42 138.69 163.48 L 139.14 162.62 C 139.63 161.68 139.27 160.52 138.33 160.03 C 137.39 159.54 136.23 159.90 135.74 160.84 Z M 135.31 161.68 L 134.80 162.62 C 134.29 163.54 134.64 164.70 135.56 165.21 C 136.49 165.71 137.65 165.37 138.16 164.45 L 138.67 163.50 C 139.17 162.58 138.83 161.42 137.91 160.91 C 136.98 160.41 135.82 160.75 135.31 161.68 Z M 134.83 162.59 L 134.32 163.48 C 133.80 164.39 134.12 165.55 135.03 166.07 C 135.94 166.59 137.10 166.27 137.62 165.36 L 138.13 164.47 C 138.65 163.56 138.33 162.40 137.42 161.88 C 136.51 161.36 135.35 161.68 134.83 162.59 Z M 134.35 163.45 L 133.85 164.30 C 133.31 165.20 133.60 166.35 134.50 166.89 C 135.39 167.42 136.55 167.13 137.09 166.23 L 137.59 165.39 C 138.12 164.49 137.83 163.33 136.94 162.80 C 136.04 162.27 134.88 162.56 134.35 163.45 Z M 133.87 164.28 L 133.37 165.09 C 132.82 165.97 133.09 167.12 133.97 167.67 C 134.85 168.22 136.01 167.95 136.55 167.07 L 137.06 166.26 C 137.60 165.38 137.33 164.22 136.46 163.68 C 135.58 163.13 134.42 163.40 133.87 164.28 Z M 133.40 165.06 L 132.87 165.88 C 132.31 166.74 132.55 167.90 133.42 168.46 C 134.28 169.02 135.43 168.77 135.99 167.91 L 136.52 167.09 C 137.08 166.23 136.84 165.08 135.98 164.52 C 135.11 163.96 133.96 164.20 133.40 165.06 Z M 132.90 165.86 L 132.31 166.72 C 131.74 167.57 131.96 168.72 132.81 169.29 C 133.66 169.86 134.81 169.64 135.38 168.79 L 135.96 167.93 C 136.54 167.09 136.32 165.93 135.47 165.36 C 134.62 164.79 133.47 165.01 132.90 165.86 Z M 132.34 166.70 L 131.76 167.52 C 131.17 168.36 131.37 169.50 132.21 170.09 C 133.04 170.67 134.19 170.48 134.77 169.64 L 135.35 168.82 C 135.94 167.98 135.74 166.84 134.91 166.25 C 134.08 165.67 132.93 165.87 132.34 166.70 Z M 131.78 167.51 L 131.21 168.30 C 130.61 169.11 130.79 170.26 131.61 170.85 C 132.43 171.45 133.58 171.27 134.17 170.45 L 134.75 169.66 C 135.34 168.84 135.16 167.70 134.34 167.10 C 133.52 166.51 132.38 166.69 131.78 167.51 Z M 131.23 168.28 L 130.65 169.05 C 130.04 169.86 130.21 171.01 131.01 171.61 C 131.82 172.22 132.97 172.05 133.57 171.24 L 134.15 170.47 C 134.76 169.66 134.59 168.52 133.79 167.91 C 132.98 167.31 131.83 167.47 131.23 168.28 Z M 130.63 169.01 L 129.97 169.86 C 129.34 170.68 129.49 171.85 130.31 172.48 C 131.13 173.11 132.30 172.96 132.93 172.14 L 133.59 171.29 C 134.22 170.47 134.07 169.30 133.25 168.67 C 132.43 168.04 131.26 168.19 130.63 169.01 Z M 129.93 169.78 L 129.30 170.57 C 128.63 171.41 128.77 172.63 129.61 173.31 C 130.44 173.98 131.67 173.84 132.34 173.00 L 132.97 172.22 C 133.64 171.38 133.51 170.15 132.67 169.48 C 131.83 168.81 130.61 168.95 129.93 169.78 Z M 129.27 170.49 L 128.67 171.20 C 127.95 172.06 128.07 173.34 128.92 174.05 C 129.78 174.77 131.05 174.66 131.77 173.80 L 132.37 173.09 C 133.09 172.23 132.98 170.95 132.12 170.24 C 131.27 169.52 129.99 169.63 129.27 170.49 Z M 128.68 171.12 L 127.99 171.89 C 127.22 172.74 127.30 174.05 128.15 174.82 C 129.00 175.58 130.32 175.51 131.08 174.66 L 131.77 173.89 C 132.53 173.03 132.46 171.72 131.61 170.96 C 130.75 170.19 129.44 170.26 128.68 171.12 Z M 128.06 171.78 L 127.35 172.49 C 126.53 173.30 126.52 174.63 127.34 175.45 C 128.15 176.27 129.48 176.28 130.30 175.46 L 131.01 174.76 C 131.83 173.94 131.84 172.62 131.02 171.80 C 130.21 170.97 128.88 170.97 128.06 171.78 Z M 127.49 172.35 L 126.77 172.94 C 125.87 173.67 125.74 175.00 126.47 175.90 C 127.21 176.80 128.53 176.93 129.43 176.19 L 130.16 175.60 C 131.05 174.87 131.19 173.54 130.45 172.64 C 129.72 171.74 128.39 171.61 127.49 172.35 Z M 126.96 172.79 L 126.12 173.33 C 125.14 173.96 124.85 175.26 125.48 176.24 C 126.11 177.22 127.41 177.51 128.39 176.88 L 129.24 176.34 C 130.22 175.71 130.50 174.41 129.88 173.43 C 129.25 172.45 127.95 172.16 126.96 172.79 Z M 126.26 173.25 L 125.38 173.71 C 124.36 174.26 123.97 175.54 124.51 176.57 C 125.06 177.60 126.34 177.99 127.37 177.44 L 128.25 176.97 C 129.27 176.42 129.66 175.14 129.12 174.12 C 128.57 173.09 127.29 172.70 126.26 173.25 Z M 125.42 173.69 L 125.15 173.83 C 124.11 174.36 123.69 175.63 124.22 176.67 C 124.74 177.71 126.01 178.13 127.05 177.60 L 127.33 177.46 C 128.37 176.93 128.79 175.66 128.26 174.62 C 127.73 173.58 126.46 173.17 125.42 173.69 Z"
      fill="black"
      fill-rule="nonzero" /><path d="M 132.17 156.54 L 133.10 156.85 C 134.02 157.16 135.01 156.67 135.32 155.75 C 135.63 154.84 135.14 153.84 134.22 153.53 L 133.29 153.22 C 132.38 152.91 131.38 153.40 131.07 154.32 C 130.77 155.24 131.26 156.23 132.17 156.54 Z M 132.99 156.93 L 133.91 157.29 C 134.88 157.66 135.96 157.18 136.33 156.22 C 136.70 155.26 136.22 154.18 135.25 153.81 L 134.33 153.45 C 133.37 153.08 132.29 153.56 131.92 154.52 C 131.55 155.48 132.03 156.56 132.99 156.93 Z M 133.72 157.33 L 134.64 157.77 C 135.62 158.25 136.81 157.83 137.28 156.85 C 137.76 155.86 137.34 154.68 136.36 154.20 L 135.44 153.76 C 134.46 153.29 133.28 153.70 132.80 154.69 C 132.33 155.67 132.74 156.86 133.72 157.33 Z M 134.41 157.73 L 135.27 158.28 C 136.24 158.88 137.51 158.59 138.11 157.62 C 138.71 156.66 138.42 155.39 137.46 154.79 L 136.59 154.24 C 135.63 153.64 134.35 153.93 133.75 154.90 C 133.15 155.86 133.44 157.13 134.41 157.73 Z M 135.10 158.18 L 135.92 158.81 C 136.84 159.51 138.14 159.33 138.84 158.42 C 139.54 157.51 139.36 156.20 138.45 155.50 L 137.63 154.88 C 136.71 154.18 135.41 154.36 134.71 155.27 C 134.02 156.18 134.19 157.49 135.10 158.18 Z M 135.82 158.73 L 136.59 159.39 C 137.46 160.14 138.77 160.05 139.52 159.18 C 140.27 158.31 140.18 157.00 139.31 156.25 L 138.55 155.59 C 137.68 154.83 136.37 154.93 135.61 155.80 C 134.86 156.66 134.96 157.98 135.82 158.73 Z M 136.53 159.34 L 137.23 159.99 C 138.07 160.78 139.38 160.74 140.17 159.90 C 140.95 159.06 140.91 157.75 140.07 156.96 L 139.37 156.30 C 138.54 155.52 137.22 155.56 136.43 156.40 C 135.65 157.23 135.69 158.55 136.53 159.34 Z M 137.19 159.95 L 137.94 160.71 C 138.76 161.51 140.07 161.51 140.88 160.70 C 141.69 159.89 141.69 158.57 140.88 157.76 L 140.12 157.00 C 139.30 156.20 137.99 156.20 137.18 157.01 C 136.37 157.82 136.37 159.14 137.19 159.95 Z M 137.89 160.64 L 138.54 161.34 C 139.32 162.18 140.63 162.23 141.47 161.45 C 142.31 160.67 142.36 159.36 141.58 158.52 L 140.93 157.82 C 140.15 156.98 138.84 156.94 138.00 157.71 C 137.16 158.49 137.11 159.81 137.89 160.64 Z M 138.49 161.28 L 139.10 161.99 C 139.84 162.86 141.15 162.96 142.01 162.21 C 142.88 161.47 142.98 160.17 142.24 159.30 L 141.63 158.59 C 140.89 157.72 139.58 157.62 138.72 158.36 C 137.85 159.10 137.75 160.41 138.49 161.28 Z M 139.06 161.94 L 139.67 162.70 C 140.39 163.58 141.69 163.72 142.57 163.01 C 143.46 162.30 143.60 161.00 142.89 160.11 L 142.28 159.35 C 141.56 158.46 140.26 158.32 139.38 159.04 C 138.49 159.75 138.35 161.05 139.06 161.94 Z M 139.66 162.67 L 140.29 163.48 C 140.99 164.38 142.28 164.54 143.18 163.84 C 144.07 163.14 144.23 161.85 143.54 160.95 L 142.90 160.14 C 142.20 159.25 140.91 159.09 140.02 159.78 C 139.12 160.48 138.96 161.77 139.66 162.67 Z M 140.30 163.47 L 140.91 164.26 C 141.60 165.15 142.88 165.32 143.78 164.63 C 144.67 163.93 144.83 162.65 144.14 161.76 L 143.53 160.97 C 142.84 160.07 141.56 159.91 140.66 160.60 C 139.77 161.29 139.61 162.57 140.30 163.47 Z M 140.92 164.24 L 141.53 165.04 C 142.21 165.93 143.48 166.10 144.37 165.42 C 145.26 164.73 145.43 163.46 144.75 162.57 L 144.14 161.77 C 143.45 160.89 142.18 160.72 141.29 161.40 C 140.40 162.08 140.24 163.35 140.92 164.24 Z M 141.53 165.01 L 142.13 165.82 C 142.80 166.71 144.06 166.89 144.95 166.22 C 145.83 165.56 146.02 164.30 145.35 163.41 L 144.75 162.60 C 144.08 161.71 142.82 161.53 141.93 162.20 C 141.04 162.86 140.86 164.12 141.53 165.01 Z M 142.13 165.78 L 142.72 166.60 C 143.36 167.49 144.61 167.70 145.50 167.05 C 146.39 166.41 146.59 165.17 145.95 164.28 L 145.36 163.45 C 144.72 162.56 143.47 162.36 142.58 163.00 C 141.69 163.64 141.48 164.89 142.13 165.78 Z M 142.71 166.56 L 143.28 167.38 C 143.90 168.28 145.13 168.50 146.02 167.88 C 146.92 167.26 147.14 166.04 146.53 165.14 L 145.96 164.32 C 145.34 163.42 144.11 163.20 143.21 163.82 C 142.32 164.44 142.09 165.66 142.71 166.56 Z M 143.28 167.35 L 143.83 168.17 C 144.43 169.06 145.64 169.30 146.54 168.70 C 147.43 168.11 147.67 166.89 147.07 166.00 L 146.53 165.18 C 145.93 164.28 144.72 164.04 143.82 164.64 C 142.92 165.24 142.68 166.45 143.28 167.35 Z M 143.84 168.13 L 144.39 168.98 C 144.97 169.87 146.16 170.12 147.05 169.54 C 147.94 168.96 148.19 167.77 147.61 166.88 L 147.06 166.03 C 146.48 165.14 145.29 164.89 144.40 165.47 C 143.51 166.05 143.26 167.24 143.84 168.13 Z M 144.41 168.94 L 144.95 169.79 C 145.51 170.67 146.68 170.92 147.56 170.36 C 148.44 169.80 148.69 168.63 148.13 167.75 L 147.59 166.91 C 147.03 166.03 145.86 165.77 144.99 166.34 C 144.11 166.90 143.85 168.07 144.41 168.94 Z M 144.98 169.76 L 145.51 170.60 C 146.05 171.46 147.20 171.72 148.06 171.17 C 148.92 170.63 149.18 169.48 148.64 168.62 L 148.11 167.78 C 147.56 166.92 146.42 166.66 145.55 167.21 C 144.69 167.75 144.43 168.89 144.98 169.76 Z M 145.54 170.57 L 146.08 171.44 C 146.62 172.29 147.73 172.54 148.58 172.01 C 149.43 171.48 149.68 170.36 149.15 169.51 L 148.61 168.64 C 148.07 167.80 146.95 167.54 146.11 168.07 C 145.26 168.61 145.01 169.73 145.54 170.57 Z M 146.12 171.42 L 146.65 172.26 C 147.17 173.09 148.27 173.34 149.09 172.81 C 149.92 172.29 150.17 171.20 149.65 170.37 L 149.11 169.53 C 148.59 168.70 147.50 168.45 146.67 168.98 C 145.84 169.50 145.60 170.59 146.12 171.42 Z M 146.69 172.25 L 147.21 173.05 C 147.72 173.86 148.80 174.09 149.60 173.57 C 150.40 173.06 150.64 171.98 150.12 171.18 L 149.60 170.38 C 149.09 169.57 148.02 169.34 147.21 169.86 C 146.41 170.38 146.17 171.45 146.69 172.25 Z M 147.25 173.05 L 147.78 173.84 C 148.29 174.62 149.34 174.83 150.12 174.32 C 150.90 173.80 151.11 172.75 150.60 171.97 L 150.07 171.18 C 149.56 170.40 148.51 170.19 147.73 170.71 C 146.95 171.22 146.74 172.27 147.25 173.05 Z M 147.83 173.84 L 148.42 174.70 C 148.93 175.45 149.96 175.64 150.71 175.13 C 151.47 174.61 151.66 173.58 151.14 172.83 L 150.55 171.97 C 150.03 171.22 149.00 171.03 148.25 171.55 C 147.50 172.06 147.31 173.09 147.83 173.84 Z M 148.46 174.70 L 149.01 175.49 C 149.53 176.22 150.54 176.39 151.27 175.87 C 152.00 175.36 152.17 174.34 151.66 173.61 L 151.10 172.83 C 150.58 172.10 149.57 171.93 148.84 172.44 C 148.11 172.96 147.94 173.97 148.46 174.70 Z M 149.04 175.49 L 149.61 176.28 C 150.12 177.00 151.12 177.16 151.84 176.64 C 152.56 176.13 152.72 175.13 152.21 174.41 L 151.63 173.62 C 151.12 172.90 150.12 172.73 149.40 173.25 C 148.68 173.77 148.52 174.77 149.04 175.49 Z M 149.62 176.28 L 150.23 177.12 C 150.75 177.82 151.74 177.98 152.45 177.47 C 153.16 176.95 153.31 175.96 152.80 175.25 L 152.19 174.41 C 151.67 173.71 150.68 173.55 149.98 174.06 C 149.27 174.58 149.11 175.57 149.62 176.28 Z M 150.25 177.11 L 150.80 177.87 C 151.32 178.58 152.30 178.73 153.00 178.22 C 153.70 177.71 153.85 176.73 153.34 176.02 L 152.79 175.26 C 152.27 174.56 151.29 174.40 150.59 174.92 C 149.89 175.43 149.74 176.41 150.25 177.11 Z"
      fill="black"
      fill-rule="nonzero" /></svg>