<svg xmlns="http://www.w3.org/2000/svg" width="300" height="300" viewBox="0 0 300 300">
<path d="M 133.45 122.16 L 133.43 123.16 C 133.42 124.13 134.19 124.92 135.16 124.94 C 136.12 124.95 136.92 124.18 136.93 123.22 L 136.95 122.22 C 136.96 121.25 136.19 120.45 135.23 120.44 C 134.26 120.42 133.47 121.19 133.45 122.16 Z M 133.43 122.99 L 133.32 123.98 C 133.21 124.95 133.90 125.82 134.87 125.93 C 135.84 126.04 136.72 125.35 136.83 124.38 L 136.94 123.39 C 137.05 122.42 136.35 121.54 135.38 121.43 C 134.41 121.32 133.54 122.02 133.43 122.99 Z M 133.37 123.68 L 133.10 124.57 C 132.82 125.52 133.36 126.51 134.31 126.78 C 135.25 127.06 136.24 126.52 136.51 125.58 L 136.78 124.68 C 137.06 123.74 136.52 122.75 135.57 122.47 C 134.63 122.19 133.64 122.73 133.37 123.68 Z M 133.18 124.35 L 132.78 125.25 C 132.38 126.15 132.79 127.20 133.68 127.60 C 134.58 128.00 135.64 127.60 136.04 126.70 L 136.43 125.80 C 136.83 124.90 136.43 123.85 135.53 123.45 C 134.63 123.05 133.58 123.45 133.18 124.35 Z M 132.82 125.18 L 132.34 126.13 C 131.90 127.01 132.26 128.08 133.14 128.52 C 134.02 128.96 135.09 128.60 135.53 127.72 L 136.00 126.77 C 136.44 125.89 136.08 124.82 135.20 124.38 C 134.32 123.94 133.25 124.30 132.82 125.18 Z M 132.34 126.14 L 131.92 126.98 C 131.49 127.86 131.85 128.93 132.73 129.36 C 133.61 129.80 134.68 129.43 135.11 128.55 L 135.53 127.71 C 135.96 126.83 135.60 125.77 134.72 125.33 C 133.84 124.89 132.78 125.26 132.34 126.14 Z M 131.93 126.97 L 131.48 127.88 C 131.04 128.75 131.40 129.82 132.28 130.26 C 133.15 130.69 134.22 130.34 134.66 129.46 L 135.11 128.56 C 135.54 127.68 135.19 126.62 134.31 126.18 C 133.43 125.74 132.37 126.10 131.93 126.97 Z M 131.49 127.85 L 131.01 128.79 C 130.56 129.66 130.90 130.73 131.77 131.18 C 132.64 131.63 133.71 131.29 134.16 130.42 L 134.64 129.48 C 135.09 128.61 134.75 127.54 133.88 127.09 C 133.01 126.64 131.94 126.98 131.49 127.85 Z M 131.03 128.76 L 130.54 129.66 C 130.07 130.51 130.39 131.59 131.24 132.06 C 132.10 132.53 133.18 132.21 133.65 131.35 L 134.14 130.45 C 134.61 129.60 134.29 128.52 133.43 128.05 C 132.58 127.58 131.50 127.90 131.03 128.76 Z M 130.56 129.62 L 130.05 130.50 C 129.57 131.35 129.86 132.43 130.70 132.92 C 131.55 133.40 132.63 133.11 133.12 132.27 L 133.63 131.39 C 134.11 130.54 133.82 129.46 132.97 128.97 C 132.13 128.48 131.05 128.78 130.56 129.62 Z M 130.07 130.48 L 129.56 131.33 C 129.05 132.17 129.33 133.26 130.16 133.76 C 131.00 134.26 132.09 133.99 132.59 133.15 L 133.10 132.29 C 133.60 131.46 133.33 130.37 132.49 129.87 C 131.66 129.37 130.57 129.64 130.07 130.48 Z M 129.57 131.31 L 129.05 132.15 C 128.53 132.98 128.79 134.07 129.62 134.58 C 130.44 135.10 131.53 134.84 132.05 134.02 L 132.57 133.17 C 133.09 132.35 132.83 131.26 132.00 130.74 C 131.18 130.23 130.09 130.48 129.57 131.31 Z M 129.08 132.12 L 128.51 133.00 C 127.98 133.81 128.20 134.89 129.01 135.42 C 129.82 135.96 130.91 135.73 131.44 134.92 L 132.01 134.05 C 132.55 133.24 132.32 132.15 131.51 131.62 C 130.70 131.09 129.61 131.31 129.08 132.12 Z M 128.58 132.92 L 127.99 133.72 C 127.42 134.49 127.59 135.58 128.36 136.15 C 129.13 136.72 130.22 136.55 130.79 135.78 L 131.37 134.99 C 131.94 134.22 131.78 133.13 131.01 132.56 C 130.24 131.99 129.15 132.15 128.58 132.92 Z M 128.11 133.61 L 127.47 134.32 C 126.84 135.03 126.90 136.11 127.61 136.75 C 128.32 137.38 129.41 137.32 130.04 136.61 L 130.67 135.90 C 131.31 135.19 131.24 134.10 130.54 133.47 C 129.83 132.83 128.74 132.90 128.11 133.61 Z M 127.63 134.20 L 126.88 134.86 C 126.19 135.48 126.12 136.55 126.74 137.25 C 127.36 137.95 128.43 138.01 129.13 137.39 L 129.88 136.72 C 130.58 136.10 130.64 135.04 130.02 134.34 C 129.40 133.64 128.33 133.58 127.63 134.20 Z M 127.02 134.81 L 126.22 135.40 C 125.49 135.95 125.34 136.98 125.89 137.71 C 126.43 138.44 127.47 138.59 128.20 138.05 L 129.00 137.45 C 129.72 136.90 129.87 135.87 129.33 135.14 C 128.78 134.41 127.75 134.26 127.02 134.81 Z M 126.29 135.40 L 125.66 135.83 C 124.93 136.34 124.75 137.35 125.26 138.08 C 125.77 138.81 126.77 138.99 127.50 138.48 L 128.13 138.05 C 128.86 137.54 129.04 136.54 128.53 135.80 C 128.03 135.07 127.02 134.89 126.29 135.40 Z"
      fill="black"
      fill-rule="nonzero" /><path d="M 140.04 120.66 L 138.75 120.94 C 137.79 121.15 137.19 122.09 137.39 123.05 C 137.60 124.01 138.55 124.62 139.51 124.41 L 140.80 124.13 C 141.76 123.92 142.36 122.97 142.16 122.01 C 141.95 121.06 141.00 120.45 140.04 120.66 Z M 138.58 120.90 L 138.04 121.06 C 137.06 121.37 136.51 122.41 136.82 123.40 C 137.13 124.38 138.17 124.92 139.15 124.62 L 139.69 124.45 C 140.67 124.14 141.21 123.10 140.91 122.12 C 140.60 121.14 139.56 120.59 138.58 120.90 Z M 138.72 124.76 L 139.49 124.71 C 140.55 124.64 141.35 123.72 141.28 122.67 C 141.21 121.61 140.30 120.80 139.24 120.87 L 138.47 120.92 C 137.41 120.99 136.61 121.91 136.68 122.97 C 136.75 124.03 137.66 124.83 138.72 124.76 Z M 139.70 124.72 L 140.90 124.51 C 141.96 124.32 142.67 123.31 142.49 122.24 C 142.30 121.18 141.28 120.46 140.22 120.65 L 139.02 120.86 C 137.96 121.05 137.25 122.06 137.43 123.13 C 137.62 124.20 138.64 124.91 139.70 124.72 Z M 141.01 124.51 L 141.87 124.31 C 142.94 124.06 143.60 122.99 143.35 121.93 C 143.10 120.86 142.03 120.20 140.97 120.45 L 140.11 120.65 C 139.04 120.90 138.38 121.97 138.63 123.03 C 138.88 124.10 139.95 124.76 141.01 124.51 Z M 141.91 124.31 L 142.89 124.06 C 143.96 123.78 144.60 122.70 144.32 121.63 C 144.05 120.57 142.96 119.92 141.90 120.20 L 140.92 120.45 C 139.86 120.72 139.21 121.81 139.49 122.87 C 139.76 123.94 140.85 124.58 141.91 124.31 Z M 142.90 124.07 L 144.04 123.77 C 145.11 123.49 145.75 122.40 145.47 121.33 C 145.19 120.26 144.10 119.61 143.03 119.89 L 141.89 120.19 C 140.82 120.47 140.18 121.56 140.45 122.63 C 140.73 123.70 141.83 124.35 142.90 124.07 Z M 144.03 123.78 L 144.91 123.56 C 145.98 123.29 146.64 122.19 146.36 121.11 C 146.09 120.04 145.00 119.38 143.92 119.66 L 143.04 119.88 C 141.96 120.15 141.31 121.25 141.58 122.33 C 141.85 123.41 142.95 124.06 144.03 123.78 Z M 144.90 123.57 L 145.84 123.33 C 146.92 123.07 147.58 121.97 147.32 120.89 C 147.05 119.81 145.95 119.15 144.87 119.42 L 143.93 119.65 C 142.84 119.92 142.19 121.01 142.45 122.09 C 142.72 123.18 143.82 123.84 144.90 123.57 Z M 145.83 123.34 L 146.83 123.10 C 147.91 122.83 148.58 121.74 148.32 120.66 C 148.05 119.57 146.96 118.90 145.87 119.17 L 144.88 119.41 C 143.79 119.67 143.13 120.77 143.39 121.85 C 143.66 122.94 144.75 123.60 145.83 123.34 Z M 146.82 123.10 L 147.84 122.86 C 148.93 122.60 149.60 121.51 149.34 120.42 C 149.08 119.33 147.99 118.66 146.90 118.92 L 145.88 119.16 C 144.79 119.42 144.12 120.51 144.38 121.60 C 144.64 122.69 145.73 123.36 146.82 123.10 Z M 147.83 122.87 L 148.85 122.63 C 149.95 122.37 150.62 121.28 150.37 120.19 C 150.11 119.10 149.02 118.42 147.93 118.67 L 146.91 118.91 C 145.82 119.17 145.14 120.26 145.39 121.35 C 145.65 122.44 146.74 123.12 147.83 122.87 Z M 148.84 122.63 L 149.89 122.39 C 150.99 122.14 151.67 121.05 151.42 119.96 C 151.17 118.86 150.08 118.18 148.98 118.43 L 147.94 118.67 C 146.84 118.92 146.16 120.01 146.41 121.11 C 146.66 122.20 147.75 122.88 148.84 122.63 Z M 149.88 122.40 L 150.90 122.17 C 152.00 121.92 152.69 120.83 152.44 119.74 C 152.19 118.64 151.11 117.95 150.01 118.20 L 148.99 118.43 C 147.90 118.67 147.21 119.76 147.45 120.86 C 147.70 121.95 148.79 122.64 149.88 122.40 Z M 150.90 122.17 L 151.88 121.95 C 152.97 121.71 153.67 120.62 153.42 119.53 C 153.18 118.43 152.10 117.74 151.00 117.98 L 150.02 118.20 C 148.92 118.44 148.23 119.52 148.47 120.62 C 148.71 121.72 149.80 122.41 150.90 122.17 Z M 151.87 121.95 L 152.81 121.75 C 153.91 121.51 154.60 120.43 154.36 119.33 C 154.12 118.23 153.04 117.53 151.94 117.77 L 151.01 117.98 C 149.91 118.22 149.21 119.30 149.45 120.40 C 149.69 121.50 150.77 122.19 151.87 121.95 Z M 152.81 121.75 L 153.71 121.55 C 154.81 121.32 155.51 120.23 155.27 119.14 C 155.04 118.04 153.95 117.34 152.85 117.58 L 151.95 117.77 C 150.85 118.01 150.15 119.09 150.39 120.19 C 150.62 121.29 151.71 121.99 152.81 121.75 Z M 153.71 121.56 L 154.74 121.33 C 155.84 121.10 156.54 120.01 156.30 118.92 C 156.07 117.82 154.98 117.12 153.89 117.35 L 152.86 117.58 C 151.76 117.81 151.06 118.89 151.29 119.99 C 151.53 121.09 152.61 121.79 153.71 121.56 Z M 154.74 121.33 L 155.71 121.12 C 156.81 120.89 157.51 119.81 157.28 118.71 C 157.04 117.61 155.96 116.91 154.86 117.14 L 153.89 117.35 C 152.79 117.59 152.09 118.67 152.32 119.77 C 152.56 120.87 153.64 121.57 154.74 121.33 Z M 155.72 121.12 L 156.66 120.92 C 157.76 120.68 158.46 119.60 158.22 118.50 C 157.98 117.40 156.90 116.70 155.80 116.94 L 154.86 117.15 C 153.76 117.38 153.06 118.47 153.30 119.57 C 153.53 120.66 154.62 121.36 155.72 121.12 Z M 156.67 120.92 L 157.62 120.71 C 158.71 120.47 159.41 119.39 159.17 118.29 C 158.93 117.19 157.84 116.49 156.75 116.73 L 155.80 116.94 C 154.70 117.18 154.00 118.27 154.24 119.37 C 154.48 120.46 155.57 121.16 156.67 120.92 Z M 157.62 120.71 L 158.60 120.49 C 159.69 120.25 160.38 119.16 160.14 118.06 C 159.90 116.97 158.81 116.28 157.71 116.52 L 156.74 116.74 C 155.64 116.98 154.95 118.07 155.19 119.16 C 155.44 120.26 156.53 120.95 157.62 120.71 Z M 158.61 120.49 L 159.59 120.27 C 160.68 120.02 161.37 118.93 161.12 117.83 C 160.87 116.74 159.78 116.05 158.68 116.30 L 157.70 116.52 C 156.61 116.77 155.92 117.86 156.17 118.96 C 156.42 120.05 157.51 120.74 158.61 120.49 Z M 159.60 120.26 L 160.58 120.04 C 161.67 119.78 162.35 118.68 162.10 117.59 C 161.84 116.50 160.74 115.82 159.65 116.07 L 158.67 116.30 C 157.58 116.56 156.90 117.65 157.15 118.75 C 157.41 119.84 158.51 120.52 159.60 120.26 Z M 160.59 120.03 L 161.57 119.79 C 162.66 119.53 163.34 118.43 163.07 117.34 C 162.80 116.24 161.70 115.57 160.61 115.84 L 159.63 116.08 C 158.54 116.34 157.87 117.44 158.14 118.53 C 158.40 119.63 159.50 120.30 160.59 120.03 Z M 161.59 119.79 L 162.57 119.54 C 163.66 119.26 164.32 118.16 164.05 117.07 C 163.77 115.98 162.66 115.32 161.57 115.59 L 160.59 115.84 C 159.50 116.12 158.84 117.23 159.12 118.32 C 159.40 119.41 160.50 120.07 161.59 119.79 Z M 162.60 119.54 L 163.56 119.28 C 164.65 118.99 165.29 117.88 165.01 116.79 C 164.72 115.70 163.60 115.06 162.52 115.34 L 161.55 115.60 C 160.47 115.89 159.82 117.00 160.11 118.09 C 160.39 119.18 161.51 119.82 162.60 119.54 Z M 163.58 119.27 L 164.53 119.01 C 165.61 118.71 166.25 117.59 165.95 116.51 C 165.65 115.42 164.53 114.79 163.44 115.09 L 162.50 115.35 C 161.41 115.65 160.78 116.77 161.08 117.86 C 161.38 118.94 162.50 119.57 163.58 119.27 Z M 164.55 119.01 L 165.51 118.73 C 166.59 118.42 167.22 117.29 166.90 116.21 C 166.59 115.13 165.46 114.50 164.38 114.82 L 163.42 115.09 C 162.34 115.41 161.72 116.53 162.03 117.61 C 162.34 118.70 163.47 119.32 164.55 119.01 Z M 165.53 118.73 L 166.49 118.44 C 167.57 118.12 168.18 116.98 167.86 115.91 C 167.54 114.83 166.41 114.21 165.33 114.53 L 164.37 114.82 C 163.29 115.14 162.67 116.27 162.99 117.35 C 163.32 118.43 164.45 119.05 165.53 118.73 Z M 166.50 118.44 L 167.45 118.15 C 168.53 117.83 169.14 116.69 168.82 115.61 C 168.49 114.53 167.36 113.92 166.28 114.25 L 165.32 114.53 C 164.24 114.86 163.63 116.00 163.96 117.07 C 164.28 118.15 165.42 118.76 166.50 118.44 Z M 167.45 118.15 L 168.41 117.87 C 169.49 117.54 170.10 116.41 169.78 115.33 C 169.46 114.25 168.32 113.63 167.24 113.96 L 166.28 114.24 C 165.20 114.57 164.59 115.70 164.91 116.78 C 165.23 117.86 166.37 118.48 167.45 118.15 Z M 168.40 117.87 L 169.41 117.57 C 170.49 117.26 171.11 116.12 170.79 115.04 C 170.47 113.96 169.34 113.34 168.26 113.66 L 167.25 113.95 C 166.17 114.27 165.55 115.40 165.87 116.49 C 166.18 117.57 167.32 118.19 168.40 117.87 Z M 169.39 117.58 L 170.36 117.30 C 171.45 116.99 172.08 115.86 171.77 114.78 C 171.46 113.70 170.33 113.07 169.25 113.38 L 168.27 113.65 C 167.19 113.96 166.56 115.09 166.87 116.18 C 167.18 117.26 168.31 117.89 169.39 117.58 Z M 170.35 117.31 L 171.26 117.06 C 172.35 116.76 172.98 115.63 172.68 114.55 C 172.39 113.46 171.26 112.82 170.18 113.12 L 169.26 113.37 C 168.18 113.67 167.54 114.79 167.84 115.88 C 168.14 116.97 169.26 117.61 170.35 117.31 Z M 171.23 117.06 L 172.24 116.80 C 173.34 116.51 173.99 115.40 173.70 114.31 C 173.42 113.22 172.31 112.56 171.22 112.85 L 170.20 113.11 C 169.11 113.40 168.46 114.51 168.74 115.60 C 169.03 116.69 170.14 117.35 171.23 117.06 Z M 172.21 116.81 L 173.16 116.58 C 174.26 116.31 174.93 115.21 174.67 114.11 C 174.40 113.02 173.30 112.34 172.21 112.61 L 171.25 112.84 C 170.16 113.11 169.48 114.21 169.75 115.30 C 170.01 116.40 171.11 117.07 172.21 116.81 Z M 173.13 116.58 L 174.05 116.38 C 175.15 116.14 175.84 115.05 175.60 113.95 C 175.35 112.85 174.26 112.15 173.16 112.40 L 172.24 112.60 C 171.14 112.85 170.45 113.94 170.69 115.04 C 170.94 116.14 172.03 116.83 173.13 116.58 Z M 174.00 116.39 L 174.95 116.20 C 176.06 115.98 176.77 114.90 176.55 113.80 C 176.33 112.70 175.26 111.98 174.16 112.20 L 173.21 112.39 C 172.10 112.61 171.39 113.68 171.61 114.79 C 171.83 115.89 172.90 116.61 174.00 116.39 Z M 174.89 116.21 L 175.90 116.04 C 177.00 115.86 177.75 114.81 177.57 113.70 C 177.39 112.59 176.34 111.84 175.23 112.02 L 174.22 112.19 C 173.11 112.37 172.36 113.42 172.54 114.53 C 172.73 115.64 173.78 116.39 174.89 116.21 Z M 175.80 116.06 L 176.89 115.93 C 178.01 115.80 178.80 114.78 178.67 113.66 C 178.54 112.54 177.52 111.74 176.40 111.88 L 175.32 112.01 C 174.20 112.14 173.40 113.15 173.53 114.27 C 173.67 115.39 174.68 116.19 175.80 116.06 Z M 176.58 115.95 L 177.61 115.99 C 178.74 116.02 179.69 115.13 179.72 114.00 C 179.76 112.86 178.87 111.92 177.74 111.88 L 176.71 111.85 C 175.57 111.82 174.63 112.71 174.59 113.84 C 174.56 114.97 175.45 115.92 176.58 115.95 Z M 176.74 115.78 L 177.48 116.15 C 178.50 116.67 179.75 116.26 180.26 115.24 C 180.78 114.22 180.37 112.98 179.35 112.47 L 178.61 112.09 C 177.59 111.57 176.34 111.98 175.83 113.00 C 175.31 114.02 175.72 115.26 176.74 115.78 Z M 176.49 115.08 L 176.80 115.87 C 177.23 116.93 178.44 117.45 179.51 117.02 C 180.57 116.60 181.09 115.38 180.66 114.32 L 180.35 113.54 C 179.92 112.47 178.71 111.95 177.64 112.38 C 176.58 112.81 176.06 114.02 176.49 115.08 Z M 176.64 115.09 L 176.64 116.15 C 176.63 117.30 177.57 118.24 178.72 118.25 C 179.88 118.25 180.82 117.31 180.82 116.16 L 180.82 115.10 C 180.83 113.94 179.89 113.00 178.74 113.00 C 177.58 113.00 176.64 113.93 176.64 115.09 Z M 176.66 115.80 L 176.47 116.88 C 176.28 118.02 177.05 119.11 178.19 119.31 C 179.34 119.50 180.42 118.73 180.62 117.59 L 180.80 116.51 C 181.00 115.36 180.23 114.27 179.08 114.08 C 177.94 113.88 176.85 114.65 176.66 115.80 Z M 176.51 116.70 L 176.25 117.68 C 175.96 118.80 176.63 119.96 177.75 120.25 C 178.88 120.55 180.03 119.87 180.33 118.75 L 180.58 117.77 C 180.88 116.64 180.20 115.49 179.08 115.19 C 177.95 114.90 176.80 115.57 176.51 116.70 Z M 176.28 117.56 L 175.98 118.52 C 175.62 119.63 176.23 120.81 177.33 121.17 C 178.44 121.53 179.63 120.92 179.99 119.81 L 180.29 118.86 C 180.65 117.75 180.04 116.56 178.94 116.21 C 177.83 115.85 176.64 116.46 176.28 117.56 Z M 176.00 118.45 L 175.66 119.38 C 175.27 120.48 175.83 121.68 176.93 122.08 C 178.02 122.48 179.23 121.91 179.62 120.81 L 179.96 119.88 C 180.36 118.79 179.79 117.58 178.70 117.18 C 177.60 116.79 176.39 117.35 176.00 118.45 Z M 175.68 119.35 L 175.32 120.28 C 174.90 121.37 175.44 122.59 176.53 123.00 C 177.62 123.42 178.84 122.88 179.25 121.79 L 179.61 120.85 C 180.03 119.76 179.48 118.55 178.40 118.13 C 177.31 117.71 176.09 118.26 175.68 119.35 Z M 175.32 120.27 L 174.96 121.19 C 174.54 122.28 175.08 123.50 176.16 123.92 C 177.25 124.34 178.47 123.80 178.89 122.72 L 179.25 121.80 C 179.67 120.72 179.13 119.49 178.05 119.07 C 176.96 118.65 175.74 119.19 175.32 120.27 Z M 174.96 121.21 L 174.62 122.10 C 174.20 123.19 174.75 124.41 175.84 124.82 C 176.92 125.23 178.14 124.69 178.55 123.60 L 178.89 122.70 C 179.31 121.62 178.76 120.40 177.68 119.99 C 176.59 119.57 175.37 120.12 174.96 121.21 Z M 174.61 122.13 L 174.29 123.00 C 173.89 124.09 174.45 125.30 175.54 125.70 C 176.63 126.10 177.84 125.54 178.24 124.45 L 178.56 123.58 C 178.96 122.49 178.40 121.28 177.31 120.88 C 176.22 120.48 175.01 121.04 174.61 122.13 Z M 174.29 123.01 L 173.95 123.95 C 173.55 125.04 174.12 126.25 175.21 126.64 C 176.30 127.04 177.50 126.47 177.90 125.38 L 178.24 124.44 C 178.63 123.35 178.07 122.14 176.98 121.75 C 175.89 121.35 174.69 121.92 174.29 123.01 Z M 173.95 123.95 L 173.58 124.99 C 173.18 126.08 173.75 127.28 174.83 127.67 C 175.92 128.07 177.12 127.51 177.52 126.42 L 177.89 125.38 C 178.29 124.30 177.72 123.09 176.64 122.70 C 175.55 122.31 174.35 122.87 173.95 123.95 Z M 173.59 124.99 L 173.26 125.91 C 172.86 126.99 173.42 128.18 174.50 128.58 C 175.57 128.97 176.77 128.42 177.16 127.34 L 177.50 126.42 C 177.90 125.34 177.34 124.15 176.26 123.75 C 175.18 123.36 173.99 123.91 173.59 124.99 Z M 173.28 125.92 L 172.93 126.88 C 172.54 127.94 173.09 129.12 174.15 129.51 C 175.22 129.90 176.40 129.36 176.79 128.29 L 177.14 127.33 C 177.53 126.26 176.98 125.08 175.92 124.69 C 174.85 124.30 173.67 124.85 173.28 125.92 Z M 172.95 126.89 L 172.60 127.85 C 172.22 128.91 172.76 130.07 173.82 130.46 C 174.87 130.84 176.04 130.29 176.42 129.24 L 176.77 128.27 C 177.15 127.22 176.61 126.05 175.55 125.67 C 174.50 125.29 173.33 125.83 172.95 126.89 Z M 172.62 127.87 L 172.29 128.80 C 171.92 129.85 172.46 131.00 173.51 131.37 C 174.56 131.74 175.71 131.19 176.08 130.14 L 176.41 129.22 C 176.78 128.17 176.23 127.02 175.18 126.65 C 174.14 126.28 172.99 126.83 172.62 127.87 Z M 172.33 128.84 L 171.98 129.86 C 171.63 130.89 172.18 132.00 173.20 132.35 C 174.23 132.70 175.34 132.15 175.69 131.13 L 176.03 130.10 C 176.38 129.08 175.84 127.97 174.81 127.62 C 173.79 127.27 172.68 127.82 172.33 128.84 Z M 172.06 129.91 L 171.74 130.87 C 171.42 131.85 171.96 132.91 172.94 133.23 C 173.92 133.55 174.98 133.01 175.30 132.03 L 175.61 131.07 C 175.93 130.09 175.40 129.04 174.41 128.72 C 173.43 128.40 172.38 128.93 172.06 129.91 Z M 171.82 130.91 L 171.54 131.82 C 171.24 132.75 171.76 133.76 172.70 134.05 C 173.64 134.35 174.64 133.83 174.94 132.89 L 175.22 131.99 C 175.52 131.05 175.00 130.05 174.06 129.75 C 173.12 129.45 172.12 129.97 171.82 130.91 Z M 171.60 131.84 L 171.46 132.30 C 171.18 133.20 171.68 134.16 172.58 134.45 C 173.49 134.73 174.45 134.23 174.73 133.32 L 174.87 132.86 C 175.15 131.96 174.65 131.00 173.75 130.72 C 172.84 130.44 171.88 130.94 171.60 131.84 Z"
      fill="black"
      fill-rule="nonzero" /><path d="M 134.98 139.93 L 135.15 140.91 C 135.32 141.87 136.23 142.52 137.19 142.35 C 138.15 142.18 138.79 141.27 138.63 140.31 L 138.46 139.33 C 138.29 138.37 137.38 137.72 136.42 137.89 C 135.46 138.06 134.82 138.97 134.98 139.93 Z M 135.16 140.93 L 135.34 141.91 C 135.51 142.87 136.43 143.50 137.38 143.33 C 138.34 143.15 138.97 142.24 138.80 141.28 L 138.62 140.30 C 138.45 139.34 137.53 138.71 136.58 138.88 C 135.62 139.06 134.98 139.97 135.16 140.93 Z M 135.35 141.94 L 135.53 142.84 C 135.72 143.79 136.64 144.40 137.59 144.21 C 138.54 144.03 139.15 143.10 138.97 142.16 L 138.79 141.25 C 138.60 140.31 137.68 139.69 136.73 139.88 C 135.78 140.07 135.16 140.99 135.35 141.94 Z M 135.55 142.88 L 135.77 143.83 C 135.98 144.77 136.91 145.36 137.84 145.15 C 138.78 144.94 139.37 144.01 139.16 143.07 L 138.94 142.12 C 138.73 141.18 137.80 140.59 136.87 140.80 C 135.93 141.01 135.34 141.94 135.55 142.88 Z M 135.79 143.87 L 136.05 144.92 C 136.28 145.84 137.22 146.40 138.14 146.17 C 139.06 145.94 139.62 145.01 139.39 144.09 L 139.13 143.04 C 138.90 142.11 137.97 141.55 137.05 141.78 C 136.12 142.01 135.56 142.95 135.79 143.87 Z M 136.07 144.94 L 136.32 145.90 C 136.57 146.82 137.50 147.36 138.42 147.12 C 139.33 146.87 139.88 145.94 139.63 145.02 L 139.38 144.06 C 139.13 143.15 138.20 142.60 137.28 142.85 C 136.37 143.09 135.83 144.03 136.07 144.94 Z M 136.33 145.92 L 136.61 146.92 C 136.86 147.83 137.80 148.36 138.71 148.11 C 139.62 147.85 140.15 146.91 139.90 146.01 L 139.62 145.01 C 139.37 144.10 138.43 143.57 137.52 143.82 C 136.61 144.07 136.08 145.01 136.33 145.92 Z M 136.62 146.93 L 136.90 147.89 C 137.16 148.79 138.10 149.31 139.00 149.05 C 139.91 148.79 140.43 147.85 140.16 146.95 L 139.89 145.99 C 139.63 145.09 138.69 144.57 137.78 144.83 C 136.88 145.09 136.36 146.03 136.62 146.93 Z M 136.92 147.92 L 137.24 148.94 C 137.51 149.83 138.46 150.33 139.35 150.06 C 140.24 149.78 140.74 148.84 140.46 147.95 L 140.14 146.92 C 139.87 146.03 138.92 145.53 138.03 145.81 C 137.14 146.08 136.65 147.03 136.92 147.92 Z M 137.29 149.02 L 137.63 149.93 C 137.94 150.79 138.90 151.23 139.76 150.92 C 140.62 150.60 141.06 149.64 140.75 148.78 L 140.41 147.87 C 140.09 147.01 139.14 146.57 138.27 146.88 C 137.41 147.20 136.97 148.16 137.29 149.02 Z M 137.71 150.07 L 138.15 150.97 C 138.54 151.79 139.52 152.13 140.34 151.73 C 141.15 151.34 141.49 150.36 141.10 149.54 L 140.66 148.64 C 140.27 147.82 139.29 147.48 138.47 147.88 C 137.66 148.27 137.31 149.25 137.71 150.07 Z M 138.29 151.18 L 138.96 152.14 C 139.47 152.87 140.48 153.05 141.21 152.54 C 141.94 152.03 142.12 151.02 141.61 150.29 L 140.95 149.33 C 140.44 148.60 139.43 148.42 138.70 148.93 C 137.96 149.44 137.78 150.45 138.29 151.18 Z M 139.78 152.73 L 140.33 152.91 C 141.17 153.18 142.07 152.73 142.35 151.90 C 142.63 151.06 142.17 150.16 141.34 149.88 L 140.79 149.70 C 139.95 149.42 139.05 149.87 138.77 150.71 C 138.49 151.54 138.95 152.45 139.78 152.73 Z M 142.34 151.88 L 142.59 151.12 C 142.86 150.29 142.40 149.39 141.57 149.12 C 140.74 148.85 139.85 149.31 139.58 150.14 L 139.33 150.90 C 139.06 151.73 139.51 152.63 140.34 152.90 C 141.17 153.17 142.07 152.71 142.34 151.88 Z M 142.65 150.64 L 142.66 149.38 C 142.67 148.51 141.96 147.80 141.09 147.80 C 140.22 147.80 139.52 148.50 139.51 149.37 L 139.51 150.62 C 139.50 151.49 140.20 152.20 141.07 152.20 C 141.94 152.21 142.65 151.51 142.65 150.64 Z M 142.65 149.17 L 142.52 148.17 C 142.40 147.31 141.61 146.70 140.74 146.82 C 139.88 146.94 139.27 147.73 139.39 148.59 L 139.52 149.58 C 139.64 150.45 140.43 151.05 141.30 150.94 C 142.16 150.82 142.77 150.03 142.65 149.17 Z M 142.51 148.04 L 142.29 147.06 C 142.10 146.20 141.25 145.66 140.39 145.85 C 139.53 146.04 138.99 146.89 139.18 147.75 L 139.40 148.73 C 139.59 149.59 140.44 150.13 141.30 149.94 C 142.16 149.75 142.70 148.90 142.51 148.04 Z M 142.28 146.96 L 142.01 146.00 C 141.77 145.15 140.88 144.65 140.02 144.89 C 139.17 145.14 138.67 146.03 138.91 146.89 L 139.19 147.85 C 139.43 148.70 140.32 149.20 141.18 148.95 C 142.03 148.71 142.53 147.82 142.28 146.96 Z M 142.03 145.94 L 141.71 144.95 C 141.43 144.09 140.51 143.61 139.64 143.89 C 138.78 144.16 138.30 145.09 138.58 145.95 L 138.90 146.95 C 139.17 147.81 140.10 148.29 140.96 148.01 C 141.83 147.73 142.30 146.81 142.03 145.94 Z M 141.75 144.92 L 141.44 143.97 C 141.14 143.09 140.18 142.61 139.30 142.90 C 138.41 143.20 137.93 144.16 138.23 145.04 L 138.54 145.99 C 138.83 146.87 139.79 147.35 140.68 147.06 C 141.57 146.76 142.04 145.81 141.75 144.92 Z M 141.48 143.98 L 141.19 143.07 C 140.90 142.16 139.93 141.66 139.01 141.95 C 138.10 142.24 137.60 143.22 137.89 144.13 L 138.18 145.04 C 138.47 145.95 139.44 146.45 140.36 146.16 C 141.27 145.87 141.78 144.89 141.48 143.98 Z M 141.25 143.15 L 141.00 142.22 C 140.75 141.28 139.78 140.72 138.84 140.97 C 137.90 141.22 137.33 142.19 137.59 143.13 L 137.83 144.06 C 138.08 145.00 139.05 145.56 140.00 145.31 C 140.94 145.06 141.50 144.09 141.25 143.15 Z M 141.06 142.37 L 140.88 141.37 C 140.71 140.39 139.79 139.74 138.81 139.91 C 137.84 140.08 137.19 141.01 137.36 141.98 L 137.53 142.98 C 137.70 143.96 138.63 144.61 139.60 144.44 C 140.58 144.27 141.23 143.34 141.06 142.37 Z M 140.92 141.53 L 140.84 140.50 C 140.76 139.50 139.89 138.76 138.89 138.84 C 137.89 138.92 137.15 139.79 137.23 140.79 L 137.31 141.82 C 137.40 142.82 138.27 143.56 139.27 143.48 C 140.26 143.40 141.01 142.52 140.92 141.53 Z M 140.86 140.66 L 140.88 139.62 C 140.89 138.61 140.08 137.78 139.07 137.77 C 138.06 137.76 137.23 138.57 137.22 139.58 L 137.21 140.62 C 137.20 141.63 138.01 142.46 139.02 142.47 C 140.03 142.48 140.85 141.67 140.86 140.66 Z M 140.88 139.86 L 141.01 138.88 C 141.16 137.87 140.46 136.94 139.45 136.79 C 138.44 136.65 137.50 137.35 137.36 138.36 L 137.22 139.34 C 137.07 140.35 137.78 141.28 138.79 141.43 C 139.80 141.57 140.73 140.87 140.88 139.86 Z M 140.90 139.33 L 141.27 138.44 C 141.67 137.49 141.22 136.40 140.27 136.01 C 139.32 135.62 138.23 136.07 137.84 137.01 L 137.47 137.91 C 137.08 138.86 137.52 139.95 138.47 140.34 C 139.42 140.73 140.51 140.28 140.90 139.33 Z M 140.92 139.00 L 141.57 138.31 C 142.27 137.56 142.24 136.38 141.49 135.67 C 140.74 134.97 139.56 135.00 138.85 135.75 L 138.20 136.45 C 137.49 137.20 137.53 138.38 138.28 139.08 C 139.03 139.79 140.21 139.75 140.92 139.00 Z M 141.24 138.59 L 142.06 138.04 C 142.92 137.47 143.16 136.32 142.59 135.46 C 142.02 134.60 140.86 134.36 140.00 134.93 L 139.18 135.48 C 138.32 136.04 138.09 137.20 138.66 138.06 C 139.22 138.92 140.38 139.15 141.24 138.59 Z M 141.94 138.11 L 142.72 137.68 C 143.62 137.18 143.94 136.04 143.43 135.14 C 142.93 134.24 141.79 133.92 140.90 134.43 L 140.12 134.86 C 139.23 135.36 138.91 136.50 139.41 137.40 C 139.91 138.29 141.05 138.61 141.94 138.11 Z M 142.68 137.70 L 143.56 137.23 C 144.47 136.75 144.82 135.62 144.34 134.72 C 143.86 133.81 142.74 133.46 141.83 133.94 L 140.94 134.41 C 140.03 134.89 139.68 136.01 140.16 136.92 C 140.64 137.83 141.77 138.18 142.68 137.70 Z M 143.55 137.23 L 144.56 136.70 C 145.47 136.23 145.82 135.11 145.35 134.20 C 144.87 133.29 143.75 132.94 142.84 133.41 L 141.84 133.94 C 140.93 134.41 140.58 135.54 141.05 136.44 C 141.53 137.35 142.65 137.70 143.55 137.23 Z M 144.57 136.69 L 145.43 136.23 C 146.34 135.75 146.68 134.63 146.20 133.73 C 145.72 132.83 144.60 132.49 143.70 132.97 L 142.84 133.42 C 141.93 133.90 141.59 135.02 142.07 135.92 C 142.55 136.83 143.67 137.17 144.57 136.69 Z M 145.44 136.22 L 146.33 135.74 C 147.23 135.26 147.56 134.14 147.08 133.25 C 146.60 132.35 145.48 132.02 144.59 132.50 L 143.70 132.98 C 142.80 133.46 142.47 134.57 142.95 135.47 C 143.43 136.36 144.54 136.70 145.44 136.22 Z M 146.33 135.73 L 147.23 135.24 C 148.12 134.76 148.45 133.65 147.98 132.77 C 147.50 131.88 146.39 131.54 145.50 132.02 L 144.59 132.51 C 143.70 132.99 143.37 134.10 143.85 134.99 C 144.33 135.88 145.44 136.21 146.33 135.73 Z M 147.22 135.24 L 148.11 134.76 C 148.99 134.29 149.33 133.19 148.85 132.30 C 148.38 131.42 147.28 131.08 146.39 131.55 L 145.51 132.03 C 144.62 132.50 144.29 133.60 144.76 134.49 C 145.23 135.38 146.34 135.71 147.22 135.24 Z M 148.09 134.76 L 149.03 134.27 C 149.91 133.80 150.25 132.71 149.79 131.82 C 149.32 130.94 148.23 130.60 147.35 131.07 L 146.41 131.56 C 145.52 132.02 145.18 133.12 145.65 134.00 C 146.11 134.89 147.21 135.23 148.09 134.76 Z M 149.00 134.27 L 149.92 133.80 C 150.80 133.35 151.16 132.27 150.71 131.38 C 150.26 130.50 149.17 130.15 148.29 130.60 L 147.37 131.07 C 146.49 131.52 146.14 132.60 146.59 133.48 C 147.04 134.36 148.12 134.72 149.00 134.27 Z M 149.88 133.80 L 150.75 133.38 C 151.64 132.95 152.01 131.88 151.58 131.00 C 151.15 130.11 150.08 129.74 149.19 130.17 L 148.33 130.60 C 147.44 131.03 147.07 132.09 147.50 132.98 C 147.93 133.86 149.00 134.23 149.88 133.80 Z M 150.71 133.39 L 151.56 133.00 C 152.45 132.59 152.84 131.54 152.43 130.65 C 152.03 129.77 150.98 129.37 150.09 129.78 L 149.24 130.17 C 148.35 130.57 147.96 131.62 148.36 132.51 C 148.77 133.40 149.82 133.79 150.71 133.39 Z M 151.51 133.01 L 152.45 132.62 C 153.34 132.24 153.76 131.21 153.39 130.31 C 153.01 129.42 151.98 128.99 151.08 129.37 L 150.14 129.77 C 149.25 130.14 148.83 131.17 149.20 132.07 C 149.58 132.97 150.61 133.39 151.51 133.01 Z M 152.39 132.63 L 153.32 132.28 C 154.23 131.93 154.68 130.92 154.34 130.01 C 153.99 129.11 152.98 128.65 152.07 129.00 L 151.14 129.35 C 150.23 129.70 149.78 130.71 150.12 131.62 C 150.47 132.53 151.48 132.98 152.39 132.63 Z M 153.26 132.29 L 154.19 131.98 C 155.11 131.66 155.59 130.67 155.28 129.75 C 154.97 128.84 153.97 128.35 153.06 128.67 L 152.13 128.98 C 151.22 129.30 150.73 130.29 151.04 131.20 C 151.35 132.12 152.35 132.61 153.26 132.29 Z M 154.12 131.99 L 155.02 131.73 C 155.94 131.45 156.47 130.48 156.19 129.56 C 155.92 128.63 154.94 128.11 154.02 128.38 L 153.13 128.65 C 152.20 128.92 151.68 129.89 151.95 130.82 C 152.23 131.74 153.20 132.27 154.12 131.99 Z M 154.91 131.75 L 155.85 131.53 C 156.79 131.31 157.37 130.38 157.15 129.44 C 156.93 128.50 156.00 127.92 155.06 128.14 L 154.12 128.36 C 153.18 128.57 152.60 129.51 152.82 130.45 C 153.04 131.39 153.98 131.97 154.91 131.75 Z M 155.72 131.56 L 156.76 131.40 C 157.71 131.25 158.36 130.36 158.21 129.41 C 158.07 128.46 157.18 127.80 156.22 127.95 L 155.19 128.11 C 154.24 128.26 153.59 129.15 153.73 130.10 C 153.88 131.05 154.77 131.70 155.72 131.56 Z M 156.63 131.42 L 157.69 131.33 C 158.66 131.25 159.37 130.41 159.30 129.45 C 159.22 128.49 158.37 127.77 157.41 127.85 L 156.35 127.93 C 155.39 128.01 154.67 128.85 154.75 129.81 C 154.83 130.78 155.67 131.49 156.63 131.42 Z M 157.57 131.36 L 158.63 131.34 C 159.61 131.33 160.39 130.53 160.38 129.55 C 160.37 128.58 159.57 127.80 158.59 127.81 L 157.53 127.82 C 156.55 127.83 155.77 128.63 155.78 129.61 C 155.80 130.59 156.60 131.37 157.57 131.36 Z M 158.49 131.36 L 159.52 131.43 C 160.51 131.50 161.37 130.75 161.43 129.77 C 161.50 128.78 160.76 127.93 159.77 127.86 L 158.73 127.79 C 157.75 127.72 156.89 128.47 156.82 129.45 C 156.76 130.44 157.50 131.30 158.49 131.36 Z M 159.31 131.43 L 160.24 131.60 C 161.22 131.79 162.17 131.14 162.36 130.15 C 162.54 129.17 161.89 128.22 160.91 128.04 L 159.98 127.86 C 159.00 127.68 158.05 128.33 157.86 129.31 C 157.68 130.30 158.33 131.24 159.31 131.43 Z M 159.81 131.50 L 160.75 131.93 C 161.68 132.35 162.77 131.94 163.19 131.01 C 163.61 130.08 163.20 128.99 162.28 128.57 L 161.33 128.14 C 160.41 127.72 159.31 128.13 158.89 129.06 C 158.47 129.99 158.88 131.08 159.81 131.50 Z M 160.13 131.53 L 160.78 132.23 C 161.49 133.00 162.68 133.05 163.45 132.34 C 164.21 131.63 164.26 130.44 163.55 129.67 L 162.90 128.97 C 162.19 128.20 161.00 128.15 160.23 128.86 C 159.47 129.57 159.42 130.76 160.13 131.53 Z M 160.39 131.70 L 160.75 132.56 C 161.17 133.54 162.30 134.00 163.28 133.59 C 164.26 133.18 164.72 132.04 164.31 131.06 L 163.94 130.20 C 163.53 129.22 162.40 128.76 161.42 129.18 C 160.43 129.59 159.97 130.72 160.39 131.70 Z M 160.61 132.21 L 160.81 133.19 C 161.03 134.25 162.07 134.93 163.13 134.71 C 164.19 134.49 164.87 133.45 164.65 132.39 L 164.45 131.41 C 164.23 130.35 163.19 129.67 162.13 129.89 C 161.07 130.11 160.39 131.15 160.61 132.21 Z M 160.76 132.97 L 160.85 133.97 C 160.95 135.06 161.91 135.86 163.00 135.76 C 164.09 135.66 164.89 134.70 164.80 133.61 L 164.71 132.62 C 164.61 131.53 163.64 130.72 162.55 130.82 C 161.47 130.92 160.66 131.88 160.76 132.97 Z M 160.83 133.86 L 160.86 134.83 C 160.90 135.93 161.82 136.79 162.92 136.76 C 164.02 136.72 164.88 135.80 164.85 134.70 L 164.82 133.72 C 164.78 132.62 163.86 131.76 162.76 131.80 C 161.66 131.83 160.79 132.76 160.83 133.86 Z M 160.86 134.71 L 160.83 135.69 C 160.80 136.80 161.67 137.71 162.77 137.75 C 163.87 137.78 164.79 136.91 164.82 135.81 L 164.85 134.82 C 164.88 133.72 164.01 132.80 162.91 132.77 C 161.81 132.74 160.89 133.61 160.86 134.71 Z M 160.84 135.53 L 160.73 136.52 C 160.61 137.62 161.40 138.61 162.49 138.73 C 163.59 138.85 164.58 138.06 164.70 136.97 L 164.81 135.97 C 164.94 134.88 164.15 133.89 163.05 133.76 C 161.95 133.64 160.97 134.43 160.84 135.53 Z M 160.75 136.38 L 160.57 137.32 C 160.37 138.41 161.08 139.45 162.17 139.66 C 163.25 139.86 164.30 139.14 164.50 138.06 L 164.68 137.11 C 164.88 136.03 164.17 134.98 163.08 134.78 C 162.00 134.58 160.96 135.29 160.75 136.38 Z M 160.60 137.21 L 160.35 138.21 C 160.09 139.29 160.74 140.37 161.81 140.63 C 162.88 140.90 163.97 140.24 164.23 139.17 L 164.48 138.17 C 164.74 137.10 164.09 136.02 163.02 135.75 C 161.94 135.49 160.86 136.14 160.60 137.21 Z M 160.38 138.12 L 160.09 139.10 C 159.77 140.16 160.37 141.27 161.43 141.58 C 162.48 141.90 163.60 141.30 163.91 140.24 L 164.20 139.26 C 164.52 138.21 163.92 137.10 162.86 136.78 C 161.81 136.46 160.69 137.07 160.38 138.12 Z M 160.11 139.02 L 159.79 139.95 C 159.44 140.99 159.99 142.13 161.03 142.48 C 162.07 142.84 163.21 142.29 163.56 141.25 L 163.88 140.32 C 164.24 139.28 163.69 138.14 162.65 137.79 C 161.61 137.43 160.47 137.98 160.11 139.02 Z M 159.82 139.89 L 159.46 140.83 C 159.07 141.85 159.58 143.00 160.61 143.40 C 161.63 143.79 162.78 143.28 163.18 142.25 L 163.54 141.31 C 163.93 140.28 163.42 139.13 162.39 138.74 C 161.37 138.35 160.21 138.86 159.82 139.89 Z M 159.49 140.78 L 159.09 141.72 C 158.67 142.73 159.15 143.89 160.16 144.31 C 161.18 144.74 162.34 144.26 162.76 143.24 L 163.15 142.30 C 163.57 141.29 163.10 140.13 162.08 139.71 C 161.07 139.28 159.91 139.76 159.49 140.78 Z M 159.12 141.68 L 158.72 142.57 C 158.28 143.57 158.73 144.74 159.73 145.18 C 160.73 145.62 161.90 145.17 162.34 144.17 L 162.74 143.28 C 163.18 142.28 162.73 141.11 161.73 140.67 C 160.73 140.23 159.56 140.68 159.12 141.68 Z M 158.74 142.54 L 158.32 143.45 C 157.87 144.44 158.30 145.61 159.28 146.07 C 160.27 146.52 161.44 146.09 161.90 145.11 L 162.32 144.20 C 162.78 143.21 162.35 142.04 161.36 141.58 C 160.37 141.13 159.20 141.56 158.74 142.54 Z M 158.34 143.43 L 157.90 144.35 C 157.43 145.33 157.85 146.51 158.83 146.97 C 159.81 147.44 160.98 147.02 161.45 146.05 L 161.88 145.12 C 162.35 144.14 161.94 142.97 160.96 142.51 C 159.98 142.04 158.81 142.45 158.34 143.43 Z M 157.92 144.35 L 157.48 145.24 C 157.01 146.21 157.42 147.37 158.39 147.85 C 159.36 148.32 160.52 147.91 161.00 146.94 L 161.43 146.05 C 161.90 145.08 161.50 143.92 160.53 143.44 C 159.56 142.97 158.39 143.38 157.92 144.35 Z M 157.51 145.22 L 157.07 146.10 C 156.59 147.06 156.97 148.22 157.93 148.70 C 158.89 149.18 160.05 148.79 160.53 147.84 L 160.97 146.96 C 161.45 146.00 161.07 144.84 160.11 144.36 C 159.15 143.88 157.99 144.26 157.51 145.22 Z M 157.10 146.07 L 156.63 146.96 C 156.13 147.90 156.49 149.06 157.43 149.56 C 158.37 150.05 159.54 149.69 160.03 148.75 L 160.50 147.87 C 161.00 146.93 160.64 145.76 159.70 145.27 C 158.76 144.77 157.60 145.13 157.10 146.07 Z M 156.67 146.91 L 156.16 147.81 C 155.64 148.72 155.97 149.89 156.88 150.41 C 157.80 150.93 158.96 150.61 159.48 149.69 L 159.99 148.80 C 160.51 147.88 160.19 146.71 159.27 146.19 C 158.36 145.67 157.19 146.00 156.67 146.91 Z M 156.22 147.76 L 155.68 148.63 C 155.13 149.52 155.40 150.68 156.29 151.23 C 157.18 151.78 158.34 151.50 158.89 150.62 L 159.43 149.74 C 159.98 148.85 159.70 147.69 158.82 147.14 C 157.93 146.60 156.77 146.87 156.22 147.76 Z M 155.74 148.59 L 155.16 149.44 C 154.59 150.29 154.82 151.45 155.67 152.02 C 156.53 152.60 157.68 152.37 158.25 151.52 L 158.83 150.66 C 159.40 149.81 159.17 148.65 158.32 148.08 C 157.47 147.51 156.31 147.73 155.74 148.59 Z M 155.23 149.40 L 154.64 150.21 C 154.04 151.03 154.22 152.17 155.03 152.77 C 155.85 153.37 157.00 153.19 157.60 152.37 L 158.19 151.56 C 158.79 150.74 158.61 149.60 157.79 149.00 C 156.97 148.40 155.83 148.58 155.23 149.40 Z M 154.71 150.16 L 154.11 150.91 C 153.48 151.68 153.61 152.82 154.38 153.45 C 155.16 154.07 156.30 153.95 156.92 153.17 L 157.52 152.42 C 158.15 151.65 158.02 150.51 157.25 149.88 C 156.47 149.26 155.33 149.38 154.71 150.16 Z M 154.20 150.85 L 153.50 151.63 C 152.84 152.35 152.90 153.47 153.62 154.13 C 154.34 154.79 155.46 154.73 156.12 154.01 L 156.83 153.23 C 157.48 152.50 157.43 151.38 156.70 150.73 C 155.98 150.07 154.86 150.13 154.20 150.85 Z M 153.61 151.59 L 152.89 152.29 C 152.21 152.95 152.19 154.04 152.86 154.72 C 153.52 155.40 154.61 155.41 155.29 154.75 L 156.01 154.05 C 156.69 153.39 156.70 152.30 156.04 151.62 C 155.38 150.94 154.29 150.92 153.61 151.59 Z M 152.97 152.27 L 152.26 152.91 C 151.58 153.53 151.52 154.58 152.14 155.27 C 152.75 155.96 153.81 156.02 154.50 155.40 L 155.21 154.76 C 155.89 154.15 155.95 153.09 155.34 152.40 C 154.72 151.71 153.66 151.66 152.97 152.27 Z M 152.30 152.92 L 152.03 153.16 C 151.35 153.75 151.28 154.79 151.88 155.47 C 152.47 156.15 153.51 156.22 154.19 155.63 L 154.46 155.39 C 155.14 154.79 155.21 153.76 154.61 153.08 C 154.02 152.40 152.98 152.33 152.30 152.92 Z"
      fill="black"
      fill-rule="nonzero" /><path d="M 145.08 147.28 L 146.01 147.02 C 146.99 146.75 147.57 145.73 147.30 144.74 C 147.03 143.76 146.01 143.18 145.03 143.45 L 144.09 143.71 C 143.11 143.98 142.53 145.00 142.80 145.98 C 143.07 146.97 144.09 147.55 145.08 147.28 Z M 146.06 147.04 L 147.00 146.76 C 148.00 146.46 148.57 145.41 148.27 144.41 C 147.97 143.41 146.92 142.85 145.92 143.14 L 144.98 143.43 C 143.98 143.72 143.41 144.78 143.71 145.77 C 144.00 146.77 145.06 147.34 146.06 147.04 Z M 147.08 146.77 L 148.05 146.44 C 149.06 146.10 149.60 145.00 149.25 144.00 C 148.91 142.99 147.81 142.46 146.81 142.80 L 145.84 143.13 C 144.83 143.48 144.29 144.57 144.64 145.58 C 144.98 146.58 146.08 147.12 147.08 146.77 Z M 148.15 146.41 L 149.05 146.05 C 150.04 145.65 150.52 144.53 150.13 143.54 C 149.73 142.55 148.61 142.07 147.62 142.47 L 146.71 142.83 C 145.73 143.23 145.24 144.35 145.64 145.34 C 146.03 146.33 147.16 146.81 148.15 146.41 Z M 149.10 145.97 L 149.98 145.58 C 150.93 145.15 151.35 144.04 150.93 143.10 C 150.51 142.15 149.40 141.73 148.45 142.15 L 147.57 142.55 C 146.62 142.97 146.20 144.08 146.62 145.03 C 147.05 145.97 148.16 146.40 149.10 145.97 Z M 149.99 145.50 L 150.90 145.06 C 151.80 144.63 152.19 143.55 151.76 142.65 C 151.33 141.75 150.25 141.37 149.35 141.80 L 148.44 142.24 C 147.54 142.66 147.16 143.74 147.59 144.64 C 148.02 145.54 149.09 145.92 149.99 145.50 Z M 150.89 144.99 L 151.83 144.53 C 152.69 144.10 153.05 143.06 152.63 142.20 C 152.20 141.34 151.16 140.99 150.30 141.41 L 149.36 141.87 C 148.50 142.30 148.15 143.34 148.57 144.20 C 148.99 145.06 150.03 145.41 150.89 144.99 Z M 151.81 144.48 L 152.71 144.03 C 153.54 143.62 153.89 142.62 153.48 141.78 C 153.07 140.95 152.06 140.61 151.23 141.02 L 150.33 141.46 C 149.49 141.87 149.15 142.88 149.56 143.71 C 149.97 144.54 150.98 144.89 151.81 144.48 Z M 152.69 144.01 L 153.58 143.57 C 154.40 143.17 154.74 142.18 154.34 141.37 C 153.94 140.55 152.95 140.21 152.13 140.61 L 151.24 141.05 C 150.43 141.45 150.09 142.43 150.49 143.25 C 150.89 144.07 151.88 144.41 152.69 144.01 Z M 153.57 143.55 L 154.47 143.11 C 155.28 142.72 155.61 141.74 155.22 140.94 C 154.82 140.13 153.85 139.80 153.05 140.19 L 152.14 140.63 C 151.34 141.02 151.00 142.00 151.40 142.80 C 151.79 143.61 152.76 143.94 153.57 143.55 Z M 154.46 143.09 L 155.37 142.65 C 156.16 142.26 156.50 141.30 156.11 140.51 C 155.72 139.71 154.76 139.38 153.97 139.77 L 153.06 140.21 C 152.26 140.60 151.93 141.56 152.32 142.35 C 152.71 143.15 153.66 143.48 154.46 143.09 Z M 155.36 142.63 L 156.07 142.28 C 156.85 141.90 157.18 140.96 156.80 140.17 C 156.42 139.39 155.47 139.06 154.69 139.44 L 153.98 139.79 C 153.20 140.17 152.87 141.11 153.25 141.90 C 153.63 142.68 154.58 143.01 155.36 142.63 Z"
      fill="black"
      fill-rule="nonzero" /><path d="M 141.97 155.71 L 142.98 155.75 C 143.97 155.78 144.79 155.01 144.83 154.02 C 144.86 153.04 144.09 152.21 143.10 152.18 L 142.09 152.15 C 141.10 152.11 140.28 152.88 140.25 153.87 C 140.21 154.85 140.98 155.68 141.97 155.71 Z M 143.05 155.87 L 144.05 155.86 C 145.10 155.86 145.95 155.01 145.94 153.96 C 145.94 152.90 145.09 152.05 144.04 152.06 L 143.04 152.06 C 141.99 152.06 141.14 152.92 141.14 153.97 C 141.14 155.02 142.00 155.87 143.05 155.87 Z M 144.20 155.94 L 145.15 155.86 C 146.24 155.78 147.05 154.82 146.97 153.73 C 146.88 152.64 145.93 151.82 144.83 151.91 L 143.88 151.98 C 142.79 152.07 141.98 153.02 142.06 154.12 C 142.15 155.21 143.10 156.02 144.20 155.94 Z M 145.32 155.84 L 146.26 155.68 C 147.35 155.50 148.07 154.47 147.89 153.39 C 147.70 152.31 146.68 151.58 145.60 151.77 L 144.66 151.93 C 143.57 152.11 142.85 153.14 143.03 154.22 C 143.22 155.30 144.24 156.03 145.32 155.84 Z M 146.38 155.62 L 147.41 155.38 C 148.46 155.13 149.11 154.08 148.86 153.03 C 148.62 151.98 147.57 151.33 146.52 151.58 L 145.48 151.83 C 144.43 152.07 143.78 153.12 144.03 154.17 C 144.28 155.22 145.33 155.87 146.38 155.62 Z M 147.46 155.33 L 148.38 155.09 C 149.40 154.82 150.01 153.77 149.73 152.75 C 149.46 151.72 148.42 151.11 147.39 151.39 L 146.47 151.63 C 145.45 151.90 144.84 152.95 145.11 153.97 C 145.39 154.99 146.43 155.60 147.46 155.33 Z M 148.39 155.05 L 149.36 154.78 C 150.36 154.50 150.94 153.46 150.66 152.46 C 150.38 151.46 149.35 150.88 148.35 151.16 L 147.38 151.43 C 146.38 151.70 145.80 152.74 146.07 153.74 C 146.35 154.74 147.39 155.33 148.39 155.05 Z M 149.36 154.74 L 150.36 154.45 C 151.34 154.17 151.90 153.15 151.62 152.17 C 151.34 151.20 150.32 150.63 149.34 150.91 L 148.34 151.19 C 147.36 151.47 146.80 152.50 147.08 153.47 C 147.36 154.45 148.38 155.02 149.36 154.74 Z M 150.35 154.41 L 151.35 154.12 C 152.30 153.85 152.85 152.85 152.58 151.89 C 152.30 150.94 151.30 150.39 150.34 150.66 L 149.35 150.95 C 148.39 151.23 147.84 152.23 148.12 153.18 C 148.40 154.14 149.40 154.69 150.35 154.41 Z M 151.33 154.07 L 152.30 153.79 C 153.23 153.52 153.76 152.55 153.49 151.62 C 153.22 150.70 152.25 150.17 151.33 150.44 L 150.36 150.72 C 149.43 150.99 148.90 151.96 149.17 152.88 C 149.44 153.81 150.41 154.34 151.33 154.07 Z M 152.29 153.72 L 153.24 153.44 C 154.13 153.18 154.64 152.25 154.38 151.36 C 154.12 150.47 153.18 149.96 152.29 150.22 L 151.34 150.50 C 150.45 150.76 149.94 151.69 150.20 152.58 C 150.46 153.47 151.40 153.98 152.29 153.72 Z M 153.22 153.38 L 154.14 153.11 C 154.99 152.86 155.48 151.96 155.23 151.11 C 154.98 150.25 154.08 149.76 153.23 150.01 L 152.31 150.28 C 151.46 150.53 150.97 151.43 151.22 152.29 C 151.47 153.14 152.37 153.63 153.22 153.38 Z"
      fill="black"
      fill-rule="nonzero" /><path d="M 146.28 157.75 L 146.94 158.50 C 147.59 159.24 148.71 159.31 149.44 158.66 C 150.18 158.01 150.25 156.89 149.60 156.15 L 148.93 155.40 C 148.29 154.67 147.16 154.60 146.43 155.25 C 145.70 155.90 145.63 157.02 146.28 157.75 Z M 147.05 158.65 L 147.78 159.32 C 148.50 160.00 149.64 159.95 150.31 159.23 C 150.99 158.50 150.95 157.36 150.22 156.69 L 149.49 156.01 C 148.76 155.34 147.63 155.38 146.95 156.11 C 146.28 156.83 146.32 157.97 147.05 158.65 Z M 148.05 159.53 L 148.87 160.05 C 149.72 160.57 150.83 160.31 151.35 159.47 C 151.88 158.63 151.62 157.52 150.78 157.00 L 149.95 156.48 C 149.10 155.95 148.00 156.21 147.47 157.05 C 146.95 157.90 147.20 159.01 148.05 159.53 Z M 149.17 160.15 L 150.09 160.52 C 150.99 160.88 152.01 160.44 152.37 159.54 C 152.73 158.64 152.29 157.62 151.39 157.26 L 150.48 156.89 C 149.58 156.53 148.56 156.97 148.20 157.87 C 147.84 158.77 148.27 159.79 149.17 160.15 Z M 150.26 160.51 L 151.24 160.80 C 152.13 161.07 153.07 160.57 153.34 159.67 C 153.61 158.78 153.11 157.84 152.21 157.57 L 151.23 157.27 C 150.34 157.00 149.40 157.51 149.13 158.40 C 148.86 159.29 149.36 160.24 150.26 160.51 Z M 151.28 160.77 L 151.43 160.82 C 152.31 161.06 153.22 160.55 153.47 159.68 C 153.71 158.80 153.20 157.89 152.33 157.64 L 152.17 157.59 C 151.30 157.35 150.38 157.86 150.14 158.74 C 149.89 159.61 150.40 160.53 151.28 160.77 Z"
      fill="black"
      fill-rule="nonzero" /><path d="M 128.96 167.88 L 129.81 168.04 C 130.87 168.24 131.88 167.54 132.08 166.48 C 132.28 165.43 131.58 164.41 130.52 164.21 L 129.68 164.05 C 128.62 163.85 127.60 164.55 127.41 165.61 C 127.21 166.66 127.90 167.68 128.96 167.88 Z M 130.04 168.14 L 131.03 168.20 C 132.15 168.27 133.11 167.43 133.17 166.31 C 133.24 165.20 132.40 164.24 131.28 164.17 L 130.29 164.11 C 129.18 164.04 128.22 164.89 128.15 166.00 C 128.08 167.11 128.93 168.07 130.04 168.14 Z M 131.34 168.26 L 132.39 168.17 C 133.54 168.06 134.39 167.05 134.28 165.91 C 134.18 164.76 133.17 163.91 132.02 164.02 L 130.97 164.11 C 129.83 164.21 128.98 165.23 129.08 166.37 C 129.19 167.52 130.20 168.36 131.34 168.26 Z M 132.59 168.17 L 133.42 168.02 C 134.56 167.81 135.32 166.71 135.11 165.56 C 134.90 164.41 133.80 163.65 132.65 163.86 L 131.83 164.02 C 130.68 164.23 129.92 165.33 130.13 166.47 C 130.34 167.62 131.44 168.38 132.59 168.17 Z M 133.50 168.01 L 134.43 167.79 C 135.57 167.54 136.29 166.40 136.03 165.26 C 135.77 164.12 134.63 163.41 133.49 163.66 L 132.56 163.88 C 131.42 164.13 130.71 165.27 130.97 166.41 C 131.23 167.55 132.36 168.26 133.50 168.01 Z M 134.48 167.79 L 135.50 167.53 C 136.64 167.25 137.33 166.10 137.05 164.96 C 136.76 163.82 135.61 163.13 134.47 163.41 L 133.45 163.67 C 132.31 163.95 131.62 165.11 131.90 166.25 C 132.19 167.38 133.34 168.08 134.48 167.79 Z M 135.52 167.54 L 136.63 167.25 C 137.77 166.95 138.45 165.79 138.16 164.65 C 137.86 163.51 136.70 162.83 135.56 163.12 L 134.45 163.41 C 133.31 163.71 132.63 164.87 132.92 166.01 C 133.22 167.15 134.38 167.83 135.52 167.54 Z M 136.63 167.25 L 137.70 166.98 C 138.84 166.68 139.53 165.52 139.24 164.38 C 138.94 163.23 137.78 162.55 136.64 162.84 L 135.56 163.12 C 134.42 163.41 133.73 164.58 134.03 165.72 C 134.32 166.86 135.48 167.55 136.63 167.25 Z M 137.69 166.98 L 138.72 166.72 C 139.86 166.43 140.55 165.27 140.26 164.13 C 139.97 162.98 138.81 162.29 137.67 162.58 L 136.64 162.84 C 135.50 163.13 134.81 164.29 135.10 165.43 C 135.39 166.58 136.55 167.27 137.69 166.98 Z M 138.71 166.72 L 139.74 166.47 C 140.88 166.18 141.58 165.02 141.29 163.87 C 141.01 162.73 139.85 162.03 138.70 162.32 L 137.67 162.58 C 136.53 162.86 135.83 164.02 136.12 165.17 C 136.41 166.31 137.57 167.01 138.71 166.72 Z M 139.74 166.47 L 140.74 166.22 C 141.88 165.93 142.58 164.77 142.30 163.63 C 142.01 162.48 140.85 161.78 139.71 162.07 L 138.70 162.32 C 137.56 162.60 136.86 163.76 137.15 164.91 C 137.43 166.05 138.59 166.75 139.74 166.47 Z M 140.74 166.22 L 141.69 165.98 C 142.83 165.70 143.53 164.54 143.25 163.39 C 142.96 162.25 141.80 161.55 140.66 161.83 L 139.71 162.07 C 138.56 162.35 137.86 163.51 138.15 164.66 C 138.43 165.80 139.59 166.50 140.74 166.22 Z M 141.69 165.98 L 142.55 165.77 C 143.70 165.48 144.40 164.32 144.11 163.18 C 143.83 162.03 142.67 161.33 141.52 161.62 L 140.66 161.83 C 139.51 162.12 138.81 163.28 139.10 164.42 C 139.38 165.57 140.54 166.27 141.69 165.98 Z M 142.56 165.77 L 143.70 165.48 C 144.84 165.19 145.54 164.03 145.25 162.89 C 144.97 161.74 143.80 161.05 142.66 161.33 L 141.52 161.62 C 140.37 161.91 139.68 163.07 139.96 164.21 C 140.25 165.36 141.41 166.05 142.56 165.77 Z M 143.71 165.48 L 144.70 165.23 C 145.85 164.93 146.54 163.77 146.25 162.63 C 145.96 161.48 144.79 160.79 143.65 161.08 L 142.65 161.34 C 141.51 161.63 140.82 162.79 141.11 163.93 C 141.40 165.08 142.56 165.77 143.71 165.48 Z M 144.71 165.22 L 145.54 165.01 C 146.69 164.72 147.38 163.55 147.08 162.41 C 146.79 161.26 145.62 160.57 144.48 160.87 L 143.64 161.08 C 142.50 161.38 141.81 162.54 142.10 163.69 C 142.40 164.83 143.56 165.52 144.71 165.22 Z M 145.54 165.01 L 146.40 164.79 C 147.54 164.50 148.23 163.33 147.94 162.19 C 147.65 161.04 146.48 160.35 145.34 160.65 L 144.48 160.87 C 143.34 161.16 142.65 162.33 142.94 163.47 C 143.23 164.61 144.40 165.30 145.54 165.01 Z M 146.39 164.79 L 147.35 164.55 C 148.50 164.26 149.19 163.10 148.90 161.96 C 148.62 160.81 147.46 160.12 146.31 160.40 L 145.35 160.65 C 144.20 160.93 143.51 162.10 143.80 163.24 C 144.09 164.38 145.25 165.08 146.39 164.79 Z M 147.34 164.55 L 148.32 164.31 C 149.47 164.03 150.17 162.87 149.89 161.73 C 149.61 160.58 148.45 159.88 147.31 160.16 L 146.32 160.40 C 145.18 160.68 144.48 161.84 144.76 162.98 C 145.04 164.13 146.19 164.83 147.34 164.55 Z M 148.31 164.31 L 149.27 164.09 C 150.42 163.81 151.12 162.66 150.85 161.52 C 150.58 160.37 149.43 159.66 148.28 159.93 L 147.32 160.16 C 146.17 160.43 145.46 161.58 145.74 162.73 C 146.01 163.88 147.16 164.59 148.31 164.31 Z M 149.27 164.08 L 150.23 163.86 C 151.38 163.59 152.09 162.44 151.82 161.29 C 151.55 160.14 150.40 159.43 149.25 159.70 L 148.29 159.93 C 147.14 160.20 146.43 161.35 146.70 162.50 C 146.97 163.65 148.12 164.36 149.27 164.08 Z M 150.25 163.85 L 151.24 163.61 C 152.38 163.33 153.08 162.17 152.80 161.03 C 152.52 159.89 151.36 159.19 150.22 159.47 L 149.23 159.71 C 148.09 159.99 147.39 161.14 147.67 162.29 C 147.95 163.43 149.11 164.13 150.25 163.85 Z M 151.27 163.60 L 152.25 163.34 C 153.38 163.04 154.07 161.88 153.77 160.74 C 153.47 159.60 152.30 158.92 151.16 159.22 L 150.19 159.48 C 149.05 159.77 148.37 160.94 148.67 162.08 C 148.97 163.22 150.13 163.90 151.27 163.60 Z M 152.27 163.34 L 153.24 163.07 C 154.37 162.76 155.04 161.59 154.73 160.45 C 154.42 159.32 153.25 158.65 152.12 158.96 L 151.14 159.22 C 150.01 159.54 149.34 160.71 149.65 161.84 C 149.96 162.98 151.13 163.65 152.27 163.34 Z M 153.24 163.07 L 154.20 162.81 C 155.34 162.50 156.01 161.33 155.70 160.19 C 155.39 159.06 154.22 158.39 153.08 158.70 L 152.12 158.96 C 150.98 159.27 150.31 160.44 150.62 161.58 C 150.93 162.71 152.10 163.38 153.24 163.07 Z M 154.18 162.82 L 155.15 162.56 C 156.29 162.27 156.98 161.10 156.68 159.96 C 156.39 158.82 155.22 158.14 154.08 158.44 L 153.10 158.69 C 151.96 158.99 151.28 160.15 151.58 161.29 C 151.87 162.43 153.04 163.11 154.18 162.82 Z M 155.13 162.57 L 156.10 162.33 C 157.25 162.04 157.94 160.89 157.66 159.74 C 157.37 158.60 156.22 157.90 155.07 158.19 L 154.10 158.43 C 152.96 158.72 152.26 159.87 152.55 161.02 C 152.83 162.16 153.99 162.85 155.13 162.57 Z M 156.11 162.33 L 157.06 162.09 C 158.21 161.80 158.90 160.64 158.61 159.50 C 158.33 158.36 157.17 157.66 156.03 157.95 L 155.07 158.19 C 153.93 158.48 153.23 159.63 153.52 160.78 C 153.81 161.92 154.96 162.61 156.11 162.33 Z M 157.09 162.08 L 158.05 161.83 C 159.19 161.53 159.87 160.36 159.57 159.22 C 159.27 158.09 158.11 157.40 156.97 157.70 L 156.00 157.96 C 154.87 158.26 154.18 159.42 154.48 160.56 C 154.78 161.70 155.95 162.38 157.09 162.08 Z M 158.07 161.82 L 159.04 161.55 C 160.17 161.24 160.84 160.07 160.53 158.94 C 160.22 157.80 159.05 157.14 157.92 157.45 L 156.95 157.71 C 155.82 158.02 155.15 159.19 155.46 160.33 C 155.77 161.46 156.94 162.13 158.07 161.82 Z M 159.05 161.55 L 160.01 161.28 C 161.14 160.96 161.80 159.79 161.48 158.66 C 161.17 157.53 160.00 156.87 158.87 157.19 L 157.91 157.45 C 156.78 157.77 156.11 158.94 156.43 160.07 C 156.75 161.20 157.92 161.86 159.05 161.55 Z M 160.01 161.27 L 160.98 161.00 C 162.11 160.69 162.77 159.51 162.45 158.39 C 162.14 157.26 160.97 156.60 159.84 156.92 L 158.86 157.19 C 157.74 157.51 157.08 158.68 157.39 159.81 C 157.71 160.93 158.88 161.59 160.01 161.27 Z M 160.99 161.00 L 161.95 160.72 C 163.07 160.41 163.73 159.24 163.41 158.11 C 163.09 156.98 161.92 156.33 160.79 156.65 L 159.83 156.92 C 158.71 157.24 158.05 158.41 158.37 159.54 C 158.69 160.66 159.86 161.32 160.99 161.00 Z M 161.96 160.72 L 162.92 160.44 C 164.04 160.12 164.68 158.95 164.36 157.82 C 164.04 156.70 162.86 156.06 161.74 156.38 L 160.78 156.66 C 159.66 156.98 159.02 158.15 159.34 159.27 C 159.66 160.40 160.84 161.04 161.96 160.72 Z M 162.92 160.44 L 163.90 160.15 C 165.02 159.82 165.66 158.65 165.33 157.53 C 165.00 156.41 163.83 155.77 162.71 156.10 L 161.73 156.38 C 160.62 156.71 159.97 157.89 160.30 159.00 C 160.63 160.12 161.80 160.77 162.92 160.44 Z M 163.89 160.15 L 164.84 159.88 C 165.96 159.56 166.60 158.39 166.28 157.27 C 165.96 156.15 164.79 155.50 163.67 155.82 L 162.72 156.10 C 161.60 156.42 160.95 157.59 161.28 158.71 C 161.60 159.83 162.77 160.47 163.89 160.15 Z M 164.81 159.89 L 165.77 159.63 C 166.89 159.32 167.55 158.17 167.25 157.04 C 166.95 155.92 165.79 155.25 164.67 155.56 L 163.71 155.82 C 162.58 156.12 161.92 157.28 162.22 158.40 C 162.52 159.52 163.68 160.19 164.81 159.89 Z M 165.74 159.63 L 166.71 159.38 C 167.83 159.09 168.51 157.94 168.22 156.82 C 167.93 155.69 166.78 155.01 165.66 155.30 L 164.69 155.55 C 163.56 155.84 162.89 156.99 163.18 158.12 C 163.47 159.24 164.61 159.92 165.74 159.63 Z M 166.72 159.38 L 167.68 159.12 C 168.80 158.83 169.47 157.68 169.17 156.55 C 168.88 155.43 167.73 154.76 166.60 155.06 L 165.64 155.31 C 164.52 155.61 163.85 156.76 164.15 157.88 C 164.44 159.00 165.59 159.67 166.72 159.38 Z M 167.71 159.11 L 168.65 158.85 C 169.77 158.53 170.42 157.37 170.10 156.26 C 169.79 155.14 168.63 154.49 167.51 154.80 L 166.57 155.07 C 165.45 155.38 164.80 156.54 165.12 157.66 C 165.43 158.78 166.59 159.43 167.71 159.11 Z M 168.65 158.85 L 169.62 158.57 C 170.74 158.26 171.39 157.10 171.07 155.98 C 170.75 154.86 169.59 154.21 168.48 154.53 L 167.51 154.80 C 166.39 155.12 165.74 156.28 166.06 157.40 C 166.37 158.51 167.53 159.16 168.65 158.85 Z M 169.59 158.58 L 170.57 158.32 C 171.69 158.02 172.35 156.87 172.05 155.75 C 171.76 154.63 170.61 153.96 169.49 154.26 L 168.51 154.52 C 167.39 154.82 166.72 155.97 167.02 157.09 C 167.32 158.21 168.47 158.88 169.59 158.58 Z M 170.52 158.33 L 171.50 158.09 C 172.62 157.82 173.31 156.69 173.04 155.56 C 172.77 154.43 171.63 153.74 170.51 154.01 L 169.53 154.25 C 168.41 154.52 167.71 155.66 167.99 156.78 C 168.26 157.91 169.40 158.60 170.52 158.33 Z M 171.44 158.10 L 172.43 157.89 C 173.56 157.65 174.28 156.53 174.03 155.40 C 173.79 154.27 172.67 153.55 171.54 153.79 L 170.56 154.00 C 169.43 154.25 168.71 155.37 168.95 156.50 C 169.20 157.63 170.31 158.35 171.44 158.10 Z M 172.35 157.91 L 173.53 157.70 C 174.67 157.50 175.43 156.41 175.23 155.27 C 175.03 154.13 173.94 153.37 172.80 153.57 L 171.62 153.78 C 170.48 153.98 169.72 155.06 169.92 156.20 C 170.12 157.34 171.21 158.11 172.35 157.91 Z M 173.18 157.73 L 174.13 157.72 C 175.29 157.71 176.22 156.77 176.21 155.61 C 176.20 154.45 175.26 153.52 174.10 153.53 L 173.15 153.54 C 171.99 153.54 171.06 154.49 171.07 155.65 C 171.08 156.81 172.03 157.74 173.18 157.73 Z M 172.13 156.27 L 172.28 156.73 C 172.64 157.83 173.81 158.43 174.91 158.07 C 176.00 157.72 176.60 156.54 176.25 155.45 L 176.10 154.98 C 175.74 153.89 174.57 153.29 173.47 153.64 C 172.38 154.00 171.78 155.17 172.13 156.27 Z M 172.58 154.94 L 171.97 155.84 C 171.33 156.77 171.57 158.04 172.50 158.68 C 173.43 159.31 174.70 159.07 175.34 158.14 L 175.95 157.24 C 176.59 156.31 176.35 155.04 175.42 154.40 C 174.48 153.77 173.22 154.01 172.58 154.94 Z M 172.10 155.72 L 171.83 156.06 C 171.13 156.91 171.25 158.18 172.11 158.88 C 172.97 159.58 174.23 159.45 174.93 158.59 L 175.21 158.26 C 175.91 157.40 175.78 156.14 174.92 155.44 C 174.06 154.74 172.80 154.86 172.10 155.72 Z"
      fill="black"
      fill-rule="nonzero" /><path d="M 139.22 174.07 L 138.61 174.83 C 137.95 175.64 138.08 176.82 138.89 177.48 C 139.70 178.13 140.89 178.01 141.54 177.20 L 142.15 176.44 C 142.81 175.63 142.68 174.44 141.87 173.79 C 141.06 173.13 139.88 173.26 139.22 174.07 Z M 138.54 174.80 L 137.92 175.59 C 137.25 176.44 137.40 177.67 138.25 178.33 C 139.09 179.00 140.32 178.86 140.99 178.01 L 141.61 177.22 C 142.28 176.37 142.13 175.14 141.28 174.47 C 140.43 173.81 139.20 173.95 138.54 174.80 Z M 137.84 175.59 L 137.26 176.37 C 136.59 177.26 136.77 178.52 137.66 179.19 C 138.55 179.86 139.81 179.68 140.48 178.79 L 141.07 178.01 C 141.73 177.12 141.55 175.85 140.66 175.19 C 139.77 174.52 138.51 174.70 137.84 175.59 Z M 137.23 176.37 L 136.68 177.11 C 136.02 178.02 136.22 179.30 137.12 179.96 C 138.03 180.63 139.30 180.43 139.97 179.52 L 140.51 178.78 C 141.18 177.87 140.98 176.60 140.07 175.94 C 139.17 175.27 137.89 175.47 137.23 176.37 Z M 136.71 177.08 L 136.09 177.89 C 135.41 178.78 135.58 180.06 136.48 180.74 C 137.37 181.43 138.65 181.25 139.33 180.36 L 139.95 179.55 C 140.63 178.66 140.46 177.38 139.56 176.70 C 138.67 176.02 137.39 176.19 136.71 177.08 Z M 136.14 177.83 L 135.44 178.67 C 134.72 179.54 134.85 180.82 135.71 181.54 C 136.58 182.26 137.86 182.14 138.58 181.27 L 139.28 180.42 C 140.00 179.56 139.88 178.27 139.01 177.56 C 138.14 176.84 136.86 176.96 136.14 177.83 Z M 135.50 178.61 L 134.86 179.33 C 134.11 180.17 134.18 181.45 135.01 182.20 C 135.85 182.95 137.13 182.88 137.88 182.04 L 138.52 181.33 C 139.27 180.49 139.20 179.21 138.37 178.46 C 137.53 177.71 136.25 177.78 135.50 178.61 Z M 134.90 179.29 L 134.20 180.03 C 133.43 180.84 133.47 182.13 134.28 182.90 C 135.09 183.66 136.37 183.63 137.14 182.82 L 137.84 182.08 C 138.61 181.27 138.57 179.98 137.76 179.22 C 136.95 178.45 135.67 178.48 134.90 179.29 Z M 134.23 180.00 L 133.51 180.74 C 132.73 181.53 132.73 182.81 133.53 183.59 C 134.32 184.38 135.60 184.37 136.38 183.58 L 137.11 182.84 C 137.89 182.05 137.89 180.77 137.09 179.99 C 136.30 179.20 135.02 179.21 134.23 180.00 Z M 133.54 180.71 L 132.82 181.42 C 132.02 182.19 132.00 183.47 132.78 184.27 C 133.55 185.06 134.83 185.08 135.63 184.30 L 136.35 183.60 C 137.15 182.83 137.17 181.55 136.39 180.75 C 135.61 179.95 134.34 179.94 133.54 180.71 Z M 132.86 181.40 L 132.06 182.16 C 131.26 182.91 131.21 184.17 131.96 184.97 C 132.71 185.77 133.97 185.82 134.78 185.07 L 135.58 184.32 C 136.38 183.57 136.43 182.31 135.68 181.50 C 134.93 180.70 133.67 180.65 132.86 181.40 Z M 132.12 182.15 L 131.35 182.84 C 130.55 183.55 130.47 184.79 131.19 185.59 C 131.90 186.40 133.14 186.47 133.94 185.75 L 134.71 185.07 C 135.52 184.35 135.59 183.12 134.88 182.32 C 134.16 181.51 132.93 181.44 132.12 182.15 Z M 131.42 182.84 L 130.69 183.45 C 129.89 184.13 129.78 185.33 130.46 186.13 C 131.14 186.94 132.34 187.04 133.14 186.37 L 133.87 185.76 C 134.68 185.08 134.78 183.88 134.11 183.07 C 133.43 182.27 132.23 182.16 131.42 182.84 Z M 130.77 183.45 L 130.03 184.03 C 129.23 184.66 129.09 185.83 129.72 186.64 C 130.35 187.44 131.52 187.58 132.32 186.95 L 133.06 186.37 C 133.87 185.73 134.01 184.57 133.38 183.76 C 132.74 182.96 131.58 182.82 130.77 183.45 Z M 130.13 184.05 L 129.29 184.66 C 128.50 185.23 128.32 186.35 128.90 187.14 C 129.47 187.94 130.59 188.12 131.38 187.54 L 132.22 186.93 C 133.02 186.36 133.20 185.24 132.62 184.45 C 132.04 183.65 130.93 183.47 130.13 184.05 Z M 129.39 184.70 L 128.59 185.24 C 127.82 185.77 127.62 186.82 128.14 187.59 C 128.66 188.36 129.72 188.56 130.49 188.04 L 131.29 187.50 C 132.06 186.97 132.26 185.92 131.74 185.15 C 131.21 184.38 130.16 184.17 129.39 184.70 Z M 128.64 185.29 L 128.25 185.55 C 127.50 186.05 127.29 187.05 127.79 187.80 C 128.28 188.55 129.29 188.75 130.04 188.26 L 130.43 187.99 C 131.18 187.50 131.39 186.49 130.89 185.74 C 130.40 185.00 129.39 184.79 128.64 185.29 Z"
      fill="black"
      fill-rule="nonzero" /><path d="M 153.38 174.42 L 154.21 174.98 C 155.08 175.56 156.25 175.33 156.83 174.46 C 157.41 173.60 157.18 172.43 156.31 171.85 L 155.48 171.30 C 154.62 170.72 153.45 170.95 152.87 171.81 C 152.29 172.68 152.52 173.85 153.38 174.42 Z M 154.18 175.04 L 155.01 175.60 C 155.91 176.20 157.12 175.95 157.72 175.06 C 158.32 174.16 158.08 172.94 157.18 172.34 L 156.35 171.79 C 155.45 171.19 154.24 171.43 153.64 172.33 C 153.04 173.23 153.28 174.44 154.18 175.04 Z M 154.98 175.66 L 155.81 176.21 C 156.74 176.83 158.00 176.58 158.62 175.64 C 159.24 174.71 158.98 173.45 158.05 172.83 L 157.21 172.28 C 156.28 171.66 155.02 171.92 154.40 172.85 C 153.79 173.79 154.04 175.04 154.98 175.66 Z M 155.78 176.28 L 156.62 176.83 C 157.59 177.46 158.89 177.19 159.52 176.22 C 160.16 175.25 159.89 173.95 158.91 173.31 L 158.08 172.77 C 157.11 172.13 155.81 172.40 155.17 173.37 C 154.54 174.35 154.81 175.65 155.78 176.28 Z M 156.61 176.87 L 157.50 177.44 C 158.49 178.08 159.81 177.79 160.45 176.80 C 161.09 175.80 160.80 174.48 159.81 173.84 L 158.92 173.27 C 157.93 172.63 156.61 172.92 155.97 173.91 C 155.33 174.91 155.62 176.23 156.61 176.87 Z M 157.51 177.45 L 158.39 178.01 C 159.39 178.64 160.71 178.34 161.34 177.34 C 161.97 176.34 161.68 175.02 160.68 174.38 L 159.80 173.83 C 158.80 173.20 157.47 173.50 156.84 174.50 C 156.21 175.50 156.51 176.82 157.51 177.45 Z M 158.40 178.01 L 159.24 178.54 C 160.25 179.16 161.57 178.85 162.19 177.85 C 162.82 176.84 162.51 175.52 161.50 174.90 L 160.66 174.38 C 159.66 173.75 158.34 174.06 157.71 175.06 C 157.09 176.07 157.40 177.39 158.40 178.01 Z M 159.26 178.54 L 160.04 179.02 C 161.05 179.64 162.37 179.32 162.98 178.31 C 163.60 177.30 163.28 175.99 162.27 175.37 L 161.49 174.89 C 160.48 174.27 159.16 174.59 158.55 175.60 C 157.93 176.61 158.25 177.93 159.26 178.54 Z M 160.06 179.03 L 161.00 179.59 C 162.01 180.20 163.32 179.87 163.93 178.86 C 164.53 177.85 164.21 176.53 163.19 175.93 L 162.25 175.37 C 161.24 174.76 159.93 175.09 159.33 176.10 C 158.72 177.11 159.05 178.42 160.06 179.03 Z M 161.02 179.59 L 161.86 180.08 C 162.87 180.68 164.17 180.35 164.76 179.34 C 165.36 178.32 165.03 177.02 164.02 176.43 L 163.18 175.93 C 162.17 175.33 160.86 175.67 160.27 176.68 C 159.67 177.69 160.01 178.99 161.02 179.59 Z M 161.86 180.07 L 162.66 180.55 C 163.66 181.14 164.96 180.81 165.55 179.81 C 166.15 178.80 165.82 177.50 164.81 176.91 L 164.01 176.44 C 163.01 175.84 161.71 176.17 161.12 177.18 C 160.52 178.18 160.85 179.48 161.86 180.07 Z M 162.65 180.53 L 163.51 181.05 C 164.50 181.65 165.80 181.33 166.40 180.33 C 167.00 179.34 166.68 178.04 165.68 177.44 L 164.82 176.93 C 163.83 176.33 162.53 176.65 161.93 177.64 C 161.33 178.64 161.65 179.93 162.65 180.53 Z M 163.51 181.03 L 164.36 181.55 C 165.35 182.15 166.63 181.84 167.23 180.85 C 167.84 179.87 167.52 178.58 166.53 177.98 L 165.68 177.46 C 164.69 176.86 163.41 177.17 162.81 178.16 C 162.21 179.15 162.52 180.43 163.51 181.03 Z M 164.37 181.54 L 165.23 182.06 C 166.21 182.66 167.49 182.35 168.08 181.36 C 168.68 180.38 168.37 179.10 167.38 178.51 L 166.53 177.99 C 165.54 177.39 164.26 177.70 163.67 178.69 C 163.07 179.67 163.39 180.95 164.37 181.54 Z M 165.25 182.06 L 166.11 182.57 C 167.09 183.16 168.35 182.84 168.94 181.86 C 169.52 180.88 169.21 179.61 168.23 179.03 L 167.36 178.51 C 166.39 177.93 165.12 178.25 164.53 179.23 C 163.95 180.21 164.27 181.47 165.25 182.06 Z M 166.14 182.57 L 167.00 183.07 C 167.97 183.64 169.23 183.30 169.79 182.33 C 170.36 181.35 170.03 180.10 169.05 179.53 L 168.20 179.03 C 167.22 178.46 165.97 178.80 165.40 179.77 C 164.83 180.75 165.16 182.00 166.14 182.57 Z M 167.03 183.06 L 167.92 183.56 C 168.89 184.11 170.13 183.76 170.67 182.79 C 171.22 181.81 170.87 180.58 169.90 180.03 L 169.01 179.53 C 168.04 178.99 166.81 179.33 166.26 180.31 C 165.71 181.28 166.06 182.52 167.03 183.06 Z M 167.94 183.54 L 168.81 184.03 C 169.77 184.56 170.99 184.21 171.52 183.25 C 172.06 182.28 171.71 181.06 170.74 180.53 L 169.88 180.05 C 168.91 179.51 167.69 179.86 167.16 180.83 C 166.62 181.79 166.97 183.01 167.94 183.54 Z M 168.81 184.00 L 169.62 184.46 C 170.57 184.99 171.78 184.65 172.31 183.71 C 172.85 182.76 172.51 181.55 171.56 181.02 L 170.74 180.56 C 169.79 180.02 168.59 180.36 168.06 181.31 C 167.52 182.26 167.86 183.46 168.81 184.00 Z M 169.64 184.43 L 170.48 184.91 C 171.42 185.43 172.60 185.10 173.13 184.17 C 173.66 183.23 173.33 182.05 172.39 181.52 L 171.55 181.04 C 170.61 180.52 169.43 180.85 168.90 181.78 C 168.37 182.72 168.70 183.90 169.64 184.43 Z M 170.52 184.89 L 171.46 185.41 C 172.39 185.91 173.55 185.57 174.06 184.65 C 174.57 183.72 174.23 182.56 173.30 182.05 L 172.36 181.54 C 171.43 181.03 170.27 181.37 169.76 182.30 C 169.25 183.22 169.59 184.38 170.52 184.89 Z M 171.50 185.40 L 172.37 185.85 C 173.29 186.34 174.43 185.99 174.92 185.06 C 175.40 184.14 175.05 183.00 174.13 182.52 L 173.26 182.06 C 172.34 181.58 171.20 181.93 170.71 182.85 C 170.23 183.77 170.58 184.91 171.50 185.40 Z M 172.40 185.84 L 173.32 186.31 C 174.24 186.78 175.35 186.42 175.82 185.50 C 176.29 184.59 175.93 183.47 175.01 183.00 L 174.10 182.53 C 173.18 182.07 172.06 182.43 171.60 183.34 C 171.13 184.25 171.49 185.37 172.40 185.84 Z M 173.35 186.30 L 174.25 186.74 C 175.16 187.19 176.25 186.82 176.70 185.92 C 177.15 185.01 176.79 183.92 175.88 183.46 L 174.98 183.02 C 174.08 182.57 172.98 182.94 172.53 183.84 C 172.08 184.75 172.45 185.84 173.35 186.30 Z M 174.29 186.71 L 175.26 187.17 C 176.14 187.60 177.21 187.23 177.64 186.34 C 178.06 185.45 177.69 184.39 176.80 183.96 L 175.84 183.50 C 174.95 183.07 173.89 183.44 173.46 184.33 C 173.03 185.22 173.41 186.28 174.29 186.71 Z M 175.31 187.12 L 176.20 187.53 C 177.06 187.93 178.08 187.56 178.47 186.70 C 178.87 185.84 178.50 184.82 177.64 184.43 L 176.75 184.01 C 175.89 183.61 174.87 183.99 174.47 184.85 C 174.08 185.70 174.45 186.72 175.31 187.12 Z M 176.24 187.48 L 176.97 187.81 C 177.80 188.18 178.77 187.82 179.15 186.99 C 179.52 186.17 179.16 185.19 178.33 184.82 L 177.60 184.48 C 176.78 184.11 175.80 184.47 175.43 185.30 C 175.05 186.13 175.42 187.10 176.24 187.48 Z"
      fill="black"
      fill-rule="nonzero" /></svg>