<svg xmlns="http://www.w3.org/2000/svg" width="300" height="300" viewBox="0 0 300 300">
<path d="M 132.59 122.06 L 133.34 122.60 C 134.11 123.15 135.18 122.98 135.73 122.21 C 136.28 121.44 136.11 120.37 135.34 119.81 L 134.59 119.28 C 133.82 118.73 132.75 118.90 132.20 119.67 C 131.65 120.44 131.82 121.51 132.59 122.06 Z M 133.16 122.50 L 133.90 123.18 C 134.62 123.84 135.72 123.79 136.38 123.08 C 137.03 122.36 136.98 121.26 136.27 120.60 L 135.52 119.92 C 134.81 119.26 133.70 119.31 133.05 120.02 C 132.40 120.74 132.44 121.84 133.16 122.50 Z M 133.69 122.99 L 134.31 123.78 C 134.92 124.55 136.03 124.68 136.80 124.07 C 137.57 123.47 137.71 122.35 137.10 121.58 L 136.48 120.79 C 135.87 120.02 134.76 119.89 133.99 120.50 C 133.22 121.10 133.09 122.22 133.69 122.99 Z M 134.20 123.62 L 134.72 124.45 C 135.24 125.29 136.34 125.54 137.17 125.02 C 138.00 124.50 138.25 123.40 137.73 122.57 L 137.21 121.74 C 136.69 120.91 135.59 120.65 134.76 121.17 C 133.93 121.69 133.68 122.79 134.20 123.62 Z M 134.68 124.36 L 135.17 125.27 C 135.64 126.13 136.71 126.45 137.57 125.98 C 138.43 125.51 138.75 124.44 138.28 123.58 L 137.78 122.67 C 137.31 121.81 136.24 121.49 135.38 121.96 C 134.53 122.43 134.21 123.50 134.68 124.36 Z M 135.15 125.21 L 135.61 126.13 C 136.04 127.00 137.09 127.36 137.96 126.93 C 138.83 126.50 139.19 125.44 138.76 124.57 L 138.30 123.65 C 137.87 122.78 136.82 122.42 135.95 122.85 C 135.08 123.28 134.72 124.34 135.15 125.21 Z M 135.60 126.08 L 136.00 126.97 C 136.41 127.85 137.44 128.23 138.32 127.83 C 139.20 127.43 139.58 126.39 139.18 125.51 L 138.77 124.62 C 138.37 123.75 137.33 123.36 136.46 123.76 C 135.58 124.17 135.19 125.20 135.60 126.08 Z M 136.00 126.92 L 136.38 127.82 C 136.75 128.70 137.77 129.11 138.66 128.74 C 139.54 128.36 139.95 127.35 139.57 126.46 L 139.19 125.56 C 138.81 124.68 137.79 124.27 136.91 124.64 C 136.03 125.02 135.62 126.04 136.00 126.92 Z M 136.38 127.78 L 136.75 128.73 C 137.10 129.61 138.10 130.05 138.99 129.70 C 139.87 129.35 140.30 128.34 139.95 127.46 L 139.58 126.51 C 139.23 125.62 138.23 125.19 137.34 125.54 C 136.46 125.89 136.03 126.89 136.38 127.78 Z M 136.75 128.70 L 137.11 129.64 C 137.44 130.52 138.43 130.97 139.31 130.64 C 140.19 130.30 140.64 129.32 140.31 128.44 L 139.95 127.49 C 139.62 126.61 138.64 126.16 137.75 126.50 C 136.87 126.83 136.42 127.81 136.75 128.70 Z M 137.12 129.62 L 137.47 130.58 C 137.79 131.46 138.76 131.91 139.64 131.59 C 140.52 131.27 140.97 130.29 140.65 129.41 L 140.30 128.46 C 139.98 127.58 139.01 127.12 138.13 127.45 C 137.25 127.77 136.79 128.74 137.12 129.62 Z M 137.48 130.57 L 137.83 131.53 C 138.14 132.40 139.11 132.85 139.98 132.54 C 140.85 132.22 141.30 131.26 140.99 130.38 L 140.64 129.42 C 140.32 128.55 139.36 128.10 138.48 128.42 C 137.61 128.73 137.16 129.70 137.48 130.57 Z M 137.84 131.53 L 138.18 132.45 C 138.50 133.31 139.45 133.76 140.32 133.44 C 141.18 133.12 141.63 132.17 141.31 131.30 L 140.97 130.38 C 140.65 129.52 139.70 129.07 138.83 129.39 C 137.97 129.71 137.52 130.67 137.84 131.53 Z M 138.20 132.46 L 138.58 133.46 C 138.91 134.31 139.86 134.74 140.71 134.41 C 141.56 134.09 141.99 133.14 141.66 132.29 L 141.28 131.29 C 140.96 130.44 140.01 130.01 139.16 130.34 C 138.31 130.66 137.88 131.61 138.20 132.46 Z M 138.62 133.47 L 138.99 134.40 C 139.32 135.24 140.26 135.64 141.09 135.31 C 141.93 134.98 142.33 134.04 142.00 133.20 L 141.63 132.27 C 141.30 131.44 140.36 131.03 139.52 131.37 C 138.69 131.70 138.28 132.64 138.62 133.47 Z M 139.02 134.41 L 139.37 135.28 C 139.71 136.10 140.64 136.49 141.46 136.16 C 142.27 135.82 142.66 134.89 142.33 134.07 L 141.97 133.20 C 141.64 132.38 140.71 131.99 139.89 132.33 C 139.07 132.66 138.68 133.59 139.02 134.41 Z M 139.39 135.28 L 139.51 135.57 C 139.85 136.38 140.77 136.76 141.58 136.43 C 142.38 136.10 142.77 135.17 142.43 134.37 L 142.31 134.08 C 141.98 133.27 141.06 132.89 140.25 133.22 C 139.44 133.55 139.06 134.47 139.39 135.28 Z"
      fill="black"
      fill-rule="nonzero" /><path d="M 140.86 120.73 L 141.85 120.69 C 142.82 120.65 143.58 119.83 143.54 118.87 C 143.50 117.90 142.69 117.14 141.72 117.18 L 140.73 117.22 C 139.76 117.26 139.00 118.07 139.04 119.04 C 139.08 120.01 139.89 120.76 140.86 120.73 Z M 141.91 120.69 L 142.90 120.62 C 143.87 120.56 144.61 119.72 144.54 118.74 C 144.47 117.77 143.63 117.04 142.66 117.11 L 141.66 117.17 C 140.69 117.24 139.96 118.08 140.03 119.05 C 140.09 120.03 140.94 120.76 141.91 120.69 Z M 143.00 120.62 L 144.01 120.49 C 144.98 120.37 145.66 119.48 145.54 118.51 C 145.41 117.54 144.53 116.86 143.56 116.98 L 142.55 117.11 C 141.59 117.23 140.90 118.12 141.02 119.09 C 141.15 120.06 142.03 120.74 143.00 120.62 Z M 144.14 120.47 L 145.09 120.28 C 146.05 120.08 146.67 119.14 146.47 118.18 C 146.28 117.22 145.34 116.61 144.38 116.80 L 143.42 117.00 C 142.46 117.20 141.85 118.13 142.04 119.09 C 142.24 120.05 143.18 120.67 144.14 120.47 Z M 145.20 120.25 L 146.16 120.00 C 147.11 119.74 147.67 118.77 147.41 117.82 C 147.16 116.88 146.19 116.32 145.24 116.57 L 144.28 116.83 C 143.33 117.08 142.77 118.05 143.02 119.00 C 143.28 119.95 144.25 120.51 145.20 120.25 Z M 146.22 119.98 L 147.20 119.68 C 148.13 119.39 148.66 118.39 148.37 117.46 C 148.08 116.52 147.09 116.00 146.15 116.29 L 145.18 116.59 C 144.24 116.88 143.72 117.87 144.01 118.81 C 144.29 119.74 145.29 120.27 146.22 119.98 Z M 147.23 119.66 L 148.17 119.35 C 149.10 119.05 149.61 118.05 149.30 117.12 C 148.99 116.19 147.99 115.68 147.06 115.99 L 146.12 116.30 C 145.19 116.60 144.68 117.61 144.99 118.54 C 145.30 119.46 146.30 119.97 147.23 119.66 Z M 148.18 119.34 L 149.12 119.03 C 150.04 118.71 150.54 117.71 150.23 116.79 C 149.91 115.86 148.91 115.37 147.99 115.68 L 147.05 116.00 C 146.13 116.31 145.63 117.31 145.94 118.24 C 146.26 119.16 147.26 119.66 148.18 119.34 Z M 149.12 119.02 L 150.08 118.69 C 151.00 118.38 151.49 117.38 151.17 116.46 C 150.86 115.54 149.86 115.05 148.94 115.36 L 147.99 115.69 C 147.07 116.00 146.57 117.00 146.89 117.92 C 147.20 118.84 148.20 119.33 149.12 119.02 Z M 150.07 118.69 L 151.03 118.37 C 151.94 118.06 152.44 117.06 152.13 116.14 C 151.82 115.23 150.82 114.73 149.90 115.04 L 148.95 115.36 C 148.03 115.67 147.54 116.67 147.85 117.59 C 148.15 118.51 149.15 119.00 150.07 118.69 Z M 151.01 118.37 L 151.94 118.06 C 152.86 117.75 153.36 116.76 153.05 115.85 C 152.75 114.93 151.76 114.43 150.84 114.74 L 149.91 115.05 C 149.00 115.35 148.50 116.34 148.80 117.25 C 149.11 118.17 150.10 118.67 151.01 118.37 Z M 151.93 118.05 L 152.88 117.74 C 153.80 117.44 154.30 116.46 154.00 115.55 C 153.70 114.63 152.71 114.13 151.80 114.43 L 150.85 114.74 C 149.94 115.04 149.44 116.02 149.74 116.94 C 150.04 117.85 151.02 118.35 151.93 118.05 Z M 152.88 117.74 L 153.85 117.42 C 154.76 117.13 155.26 116.15 154.96 115.24 C 154.66 114.33 153.69 113.83 152.77 114.12 L 151.80 114.44 C 150.89 114.73 150.39 115.71 150.69 116.62 C 150.99 117.54 151.97 118.03 152.88 117.74 Z M 153.84 117.42 L 154.81 117.10 C 155.72 116.81 156.22 115.83 155.92 114.93 C 155.63 114.02 154.65 113.52 153.74 113.81 L 152.78 114.13 C 151.87 114.42 151.37 115.40 151.67 116.31 C 151.96 117.21 152.94 117.71 153.84 117.42 Z M 154.81 117.10 L 155.77 116.79 C 156.68 116.49 157.17 115.52 156.88 114.62 C 156.59 113.71 155.62 113.22 154.71 113.51 L 153.75 113.82 C 152.84 114.11 152.35 115.09 152.64 115.99 C 152.93 116.89 153.90 117.39 154.81 117.10 Z M 155.77 116.78 L 156.73 116.47 C 157.63 116.18 158.12 115.22 157.83 114.31 C 157.54 113.41 156.58 112.91 155.68 113.20 L 154.72 113.51 C 153.81 113.80 153.32 114.77 153.61 115.67 C 153.90 116.57 154.86 117.07 155.77 116.78 Z M 156.72 116.47 L 157.66 116.17 C 158.56 115.89 159.06 114.92 158.77 114.02 C 158.48 113.12 157.52 112.63 156.62 112.91 L 155.68 113.21 C 154.78 113.49 154.29 114.45 154.57 115.36 C 154.86 116.26 155.82 116.75 156.72 116.47 Z M 157.64 116.17 L 158.61 115.87 C 159.51 115.59 160.01 114.64 159.73 113.74 C 159.45 112.84 158.50 112.34 157.60 112.61 L 156.64 112.91 C 155.74 113.19 155.23 114.14 155.51 115.04 C 155.79 115.94 156.74 116.45 157.64 116.17 Z M 158.58 115.87 L 159.54 115.59 C 160.44 115.33 160.96 114.39 160.69 113.48 C 160.43 112.58 159.49 112.07 158.59 112.33 L 157.63 112.61 C 156.73 112.88 156.21 113.82 156.47 114.72 C 156.74 115.62 157.68 116.14 158.58 115.87 Z M 159.50 115.60 L 160.45 115.35 C 161.35 115.11 161.89 114.18 161.65 113.27 C 161.41 112.37 160.48 111.83 159.58 112.07 L 158.63 112.33 C 157.72 112.57 157.19 113.49 157.43 114.40 C 157.67 115.30 158.59 115.84 159.50 115.60 Z M 160.39 115.36 L 161.38 115.13 C 162.29 114.92 162.85 114.01 162.64 113.10 C 162.44 112.20 161.53 111.63 160.62 111.84 L 159.64 112.06 C 158.73 112.27 158.16 113.18 158.37 114.09 C 158.58 115.00 159.48 115.56 160.39 115.36 Z M 161.30 115.15 L 162.34 114.96 C 163.26 114.79 163.87 113.90 163.70 112.99 C 163.53 112.07 162.65 111.46 161.73 111.63 L 160.69 111.82 C 159.77 111.99 159.16 112.87 159.33 113.79 C 159.50 114.71 160.39 115.32 161.30 115.15 Z M 162.24 114.98 L 163.25 114.86 C 164.18 114.75 164.85 113.90 164.73 112.97 C 164.62 112.04 163.78 111.37 162.84 111.48 L 161.83 111.60 C 160.90 111.72 160.24 112.56 160.35 113.49 C 160.46 114.43 161.31 115.09 162.24 114.98 Z M 163.09 114.88 L 164.02 114.85 C 164.96 114.83 165.71 114.05 165.69 113.11 C 165.66 112.16 164.88 111.42 163.94 111.44 L 163.01 111.46 C 162.06 111.49 161.32 112.27 161.34 113.21 C 161.36 114.15 162.15 114.90 163.09 114.88 Z M 163.70 114.85 L 164.75 115.03 C 165.69 115.18 166.58 114.55 166.74 113.61 C 166.89 112.67 166.26 111.78 165.32 111.62 L 164.26 111.44 C 163.32 111.29 162.43 111.92 162.28 112.86 C 162.12 113.80 162.76 114.69 163.70 114.85 Z M 164.11 114.82 L 164.91 115.31 C 165.74 115.82 166.82 115.56 167.33 114.73 C 167.84 113.90 167.58 112.82 166.75 112.31 L 165.96 111.82 C 165.13 111.31 164.04 111.57 163.53 112.40 C 163.03 113.23 163.29 114.32 164.11 114.82 Z M 164.26 114.68 L 164.69 115.47 C 165.17 116.34 166.26 116.65 167.13 116.17 C 168.00 115.70 168.32 114.60 167.84 113.73 L 167.41 112.95 C 166.93 112.08 165.84 111.76 164.97 112.24 C 164.10 112.72 163.78 113.81 164.26 114.68 Z M 164.45 114.85 L 164.59 115.82 C 164.73 116.82 165.65 117.52 166.65 117.38 C 167.65 117.24 168.35 116.32 168.21 115.32 L 168.08 114.35 C 167.94 113.35 167.02 112.65 166.02 112.79 C 165.02 112.93 164.32 113.85 164.45 114.85 Z M 164.55 115.43 L 164.47 116.48 C 164.39 117.50 165.15 118.40 166.18 118.47 C 167.20 118.55 168.09 117.79 168.17 116.76 L 168.25 115.71 C 168.33 114.69 167.56 113.80 166.54 113.72 C 165.52 113.64 164.63 114.41 164.55 115.43 Z M 164.49 116.17 L 164.25 117.16 C 164.00 118.17 164.61 119.19 165.62 119.44 C 166.63 119.69 167.65 119.08 167.90 118.07 L 168.14 117.08 C 168.39 116.07 167.78 115.05 166.77 114.80 C 165.76 114.55 164.75 115.16 164.49 116.17 Z M 164.32 116.90 L 163.94 117.81 C 163.55 118.78 164.01 119.89 164.98 120.28 C 165.95 120.68 167.05 120.22 167.45 119.25 L 167.83 118.33 C 168.22 117.36 167.76 116.26 166.79 115.86 C 165.82 115.46 164.72 115.93 164.32 116.90 Z M 164.02 117.63 L 163.55 118.50 C 163.05 119.43 163.40 120.59 164.33 121.08 C 165.26 121.58 166.41 121.23 166.91 120.30 L 167.38 119.43 C 167.87 118.50 167.53 117.35 166.60 116.85 C 165.67 116.35 164.51 116.70 164.02 117.63 Z M 163.60 118.40 L 163.12 119.18 C 162.56 120.08 162.85 121.26 163.75 121.81 C 164.65 122.37 165.83 122.09 166.38 121.19 L 166.86 120.41 C 167.42 119.51 167.13 118.33 166.23 117.77 C 165.33 117.22 164.15 117.50 163.60 118.40 Z M 163.16 119.10 L 162.61 119.92 C 162.01 120.80 162.24 121.99 163.12 122.59 C 163.99 123.19 165.19 122.96 165.79 122.08 L 166.34 121.26 C 166.94 120.38 166.71 119.19 165.83 118.59 C 164.95 117.99 163.76 118.22 163.16 119.10 Z M 162.64 119.86 L 161.99 120.75 C 161.36 121.61 161.54 122.81 162.40 123.44 C 163.26 124.08 164.47 123.89 165.10 123.03 L 165.75 122.14 C 166.38 121.28 166.20 120.07 165.34 119.44 C 164.48 118.81 163.27 119.00 162.64 119.86 Z M 162.01 120.70 L 161.40 121.49 C 160.75 122.34 160.91 123.55 161.75 124.20 C 162.60 124.86 163.82 124.70 164.47 123.86 L 165.08 123.07 C 165.73 122.23 165.57 121.01 164.73 120.36 C 163.88 119.70 162.66 119.86 162.01 120.70 Z M 161.42 121.46 L 160.78 122.27 C 160.11 123.10 160.24 124.32 161.08 124.99 C 161.92 125.66 163.14 125.53 163.81 124.69 L 164.45 123.88 C 165.12 123.05 164.99 121.83 164.15 121.16 C 163.31 120.49 162.09 120.62 161.42 121.46 Z M 160.80 122.24 L 160.15 123.02 C 159.46 123.85 159.58 125.07 160.40 125.76 C 161.23 126.44 162.45 126.33 163.14 125.50 L 163.79 124.72 C 164.47 123.89 164.36 122.67 163.53 121.98 C 162.71 121.30 161.48 121.41 160.80 122.24 Z M 160.17 122.99 L 159.53 123.73 C 158.82 124.55 158.91 125.78 159.73 126.48 C 160.54 127.18 161.77 127.09 162.47 126.28 L 163.11 125.53 C 163.82 124.72 163.73 123.49 162.91 122.79 C 162.10 122.09 160.87 122.18 160.17 122.99 Z M 159.56 123.69 L 158.86 124.47 C 158.13 125.26 158.19 126.49 158.98 127.22 C 159.77 127.94 161.00 127.89 161.73 127.09 L 162.43 126.32 C 163.16 125.53 163.10 124.30 162.31 123.57 C 161.52 122.85 160.29 122.90 159.56 123.69 Z M 158.89 124.44 L 158.22 125.13 C 157.48 125.91 157.51 127.14 158.29 127.88 C 159.06 128.62 160.30 128.59 161.04 127.82 L 161.70 127.12 C 162.44 126.35 162.41 125.11 161.64 124.37 C 160.86 123.63 159.63 123.66 158.89 124.44 Z M 158.23 125.13 L 157.56 125.82 C 156.82 126.59 156.85 127.82 157.62 128.57 C 158.39 129.31 159.62 129.29 160.37 128.51 L 161.03 127.82 C 161.78 127.04 161.75 125.81 160.98 125.07 C 160.20 124.33 158.97 124.35 158.23 125.13 Z M 157.55 125.84 L 156.88 126.56 C 156.14 127.34 156.18 128.57 156.97 129.30 C 157.75 130.03 158.97 129.99 159.70 129.21 L 160.38 128.49 C 161.11 127.71 161.07 126.48 160.29 125.75 C 159.51 125.02 158.28 125.06 157.55 125.84 Z M 156.87 126.58 L 156.18 127.33 C 155.46 128.12 155.52 129.34 156.30 130.06 C 157.09 130.78 158.31 130.72 159.03 129.94 L 159.72 129.19 C 160.43 128.40 160.38 127.18 159.59 126.46 C 158.80 125.74 157.58 125.80 156.87 126.58 Z M 156.17 127.36 L 155.50 128.12 C 154.79 128.91 154.87 130.12 155.66 130.83 C 156.45 131.53 157.67 131.46 158.37 130.67 L 159.04 129.91 C 159.74 129.12 159.67 127.90 158.88 127.20 C 158.09 126.50 156.87 126.57 156.17 127.36 Z M 155.51 128.16 L 154.83 128.94 C 154.16 129.73 154.25 130.92 155.04 131.60 C 155.83 132.28 157.02 132.19 157.69 131.40 L 158.36 130.62 C 159.04 129.83 158.95 128.64 158.16 127.96 C 157.37 127.28 156.18 127.37 155.51 128.16 Z M 154.86 129.00 L 154.23 129.76 C 153.58 130.53 153.68 131.68 154.46 132.33 C 155.23 132.98 156.38 132.88 157.03 132.10 L 157.66 131.34 C 158.31 130.57 158.21 129.42 157.44 128.77 C 156.66 128.12 155.51 128.23 154.86 129.00 Z M 154.26 129.80 L 153.73 130.45 C 153.11 131.20 153.21 132.32 153.97 132.94 C 154.72 133.56 155.84 133.46 156.46 132.70 L 156.99 132.06 C 157.62 131.31 157.51 130.19 156.76 129.57 C 156.00 128.94 154.89 129.05 154.26 129.80 Z"
      fill="black"
      fill-rule="nonzero" /><path d="M 140.15 135.34 L 139.24 136.16 C 138.49 136.83 138.44 137.99 139.11 138.73 C 139.78 139.48 140.94 139.54 141.68 138.86 L 142.59 138.05 C 143.34 137.37 143.39 136.22 142.72 135.47 C 142.04 134.73 140.89 134.67 140.15 135.34 Z M 138.71 136.78 L 138.47 137.36 C 138.07 138.33 138.53 139.44 139.49 139.84 C 140.46 140.24 141.57 139.78 141.97 138.82 L 142.21 138.24 C 142.61 137.27 142.16 136.17 141.19 135.76 C 140.23 135.36 139.12 135.82 138.71 136.78 Z M 139.72 139.96 L 140.37 140.14 C 141.41 140.41 142.47 139.80 142.75 138.77 C 143.02 137.74 142.41 136.68 141.38 136.40 L 140.72 136.22 C 139.69 135.94 138.63 136.56 138.35 137.59 C 138.07 138.62 138.69 139.68 139.72 139.96 Z M 141.18 140.19 L 142.49 139.99 C 143.56 139.82 144.28 138.82 144.11 137.75 C 143.95 136.69 142.95 135.96 141.88 136.13 L 140.57 136.34 C 139.51 136.51 138.78 137.51 138.95 138.57 C 139.12 139.64 140.12 140.36 141.18 140.19 Z M 142.78 139.92 L 143.59 139.67 C 144.62 139.34 145.19 138.24 144.86 137.21 C 144.54 136.18 143.44 135.61 142.41 135.94 L 141.60 136.19 C 140.57 136.52 140.00 137.62 140.32 138.65 C 140.65 139.68 141.75 140.25 142.78 139.92 Z M 143.71 139.62 L 144.57 139.28 C 145.58 138.89 146.07 137.76 145.68 136.76 C 145.29 135.75 144.16 135.26 143.16 135.65 L 142.29 135.99 C 141.29 136.38 140.79 137.51 141.18 138.51 C 141.57 139.51 142.70 140.01 143.71 139.62 Z M 144.65 139.24 L 145.59 138.83 C 146.57 138.39 147.02 137.24 146.58 136.26 C 146.15 135.28 145.00 134.84 144.02 135.27 L 143.08 135.69 C 142.10 136.12 141.66 137.27 142.09 138.25 C 142.52 139.23 143.67 139.67 144.65 139.24 Z M 145.64 138.79 L 146.64 138.31 C 147.61 137.85 148.01 136.69 147.55 135.73 C 147.09 134.77 145.93 134.36 144.97 134.82 L 143.97 135.30 C 143.00 135.77 142.60 136.92 143.06 137.89 C 143.52 138.85 144.68 139.26 145.64 138.79 Z M 146.68 138.29 L 147.64 137.80 C 148.59 137.32 148.97 136.16 148.49 135.21 C 148.01 134.26 146.85 133.88 145.90 134.36 L 144.93 134.85 C 143.98 135.33 143.60 136.49 144.08 137.44 C 144.57 138.39 145.73 138.77 146.68 138.29 Z M 147.66 137.77 L 148.53 137.32 C 149.46 136.83 149.82 135.67 149.33 134.73 C 148.84 133.80 147.68 133.44 146.75 133.93 L 145.88 134.38 C 144.95 134.88 144.58 136.03 145.08 136.97 C 145.57 137.90 146.72 138.26 147.66 137.77 Z M 148.54 137.30 L 149.42 136.82 C 150.34 136.32 150.69 135.17 150.19 134.25 C 149.69 133.33 148.54 132.98 147.62 133.48 L 146.74 133.95 C 145.81 134.45 145.47 135.60 145.97 136.52 C 146.46 137.45 147.61 137.79 148.54 137.30 Z M 149.43 136.80 L 150.32 136.31 C 151.23 135.81 151.56 134.67 151.06 133.75 C 150.56 132.84 149.41 132.51 148.50 133.01 L 147.61 133.50 C 146.70 134.00 146.37 135.14 146.87 136.05 C 147.37 136.97 148.51 137.30 149.43 136.80 Z M 150.32 136.29 L 151.21 135.80 C 152.11 135.29 152.43 134.16 151.93 133.26 C 151.43 132.36 150.29 132.03 149.39 132.53 L 148.50 133.03 C 147.60 133.53 147.28 134.67 147.78 135.57 C 148.28 136.47 149.42 136.79 150.32 136.29 Z M 151.21 135.78 L 152.08 135.28 C 152.97 134.78 153.29 133.65 152.79 132.76 C 152.28 131.87 151.16 131.56 150.27 132.06 L 149.39 132.55 C 148.50 133.06 148.18 134.18 148.69 135.07 C 149.19 135.96 150.32 136.28 151.21 135.78 Z M 152.08 135.26 L 153.02 134.72 C 153.90 134.23 154.20 133.11 153.70 132.23 C 153.20 131.35 152.09 131.05 151.21 131.55 L 150.27 132.08 C 149.39 132.58 149.09 133.70 149.58 134.57 C 150.08 135.45 151.20 135.76 152.08 135.26 Z M 153.01 134.70 L 153.95 134.15 C 154.82 133.66 155.11 132.56 154.62 131.70 C 154.13 130.84 153.03 130.54 152.17 131.03 L 151.22 131.58 C 150.36 132.07 150.06 133.17 150.56 134.03 C 151.05 134.89 152.15 135.19 153.01 134.70 Z M 153.94 134.12 L 154.84 133.61 C 155.68 133.13 155.97 132.05 155.49 131.20 C 155.01 130.36 153.93 130.07 153.08 130.55 L 152.19 131.06 C 151.34 131.55 151.05 132.62 151.53 133.47 C 152.02 134.31 153.09 134.61 153.94 134.12 Z M 154.82 133.58 L 155.65 133.10 C 156.48 132.63 156.77 131.57 156.30 130.75 C 155.83 129.92 154.77 129.63 153.94 130.10 L 153.10 130.58 C 152.28 131.05 151.99 132.11 152.46 132.93 C 152.93 133.76 153.99 134.05 154.82 133.58 Z M 155.63 133.08 L 156.40 132.64 C 157.21 132.18 157.50 131.15 157.04 130.34 C 156.58 129.52 155.55 129.23 154.74 129.69 L 153.97 130.13 C 153.15 130.58 152.86 131.62 153.32 132.43 C 153.78 133.25 154.82 133.54 155.63 133.08 Z M 156.37 132.62 L 157.30 132.11 C 158.11 131.67 158.40 130.66 157.96 129.85 C 157.52 129.05 156.51 128.76 155.71 129.20 L 154.77 129.71 C 153.97 130.15 153.67 131.16 154.11 131.97 C 154.55 132.77 155.56 133.06 156.37 132.62 Z M 157.27 132.09 L 158.17 131.61 C 158.97 131.19 159.27 130.21 158.85 129.41 C 158.43 128.62 157.45 128.31 156.65 128.73 L 155.74 129.21 C 154.95 129.63 154.65 130.62 155.07 131.41 C 155.49 132.21 156.47 132.51 157.27 132.09 Z M 158.14 131.59 L 158.95 131.18 C 159.73 130.78 160.04 129.82 159.64 129.03 C 159.24 128.25 158.28 127.94 157.50 128.34 L 156.69 128.75 C 155.90 129.15 155.59 130.12 155.99 130.90 C 156.39 131.68 157.35 132.00 158.14 131.59 Z M 158.93 131.16 L 159.31 130.97 C 160.08 130.58 160.39 129.64 160.00 128.86 C 159.61 128.09 158.66 127.77 157.89 128.17 L 157.51 128.36 C 156.74 128.75 156.43 129.69 156.82 130.47 C 157.21 131.24 158.16 131.55 158.93 131.16 Z"
      fill="black"
      fill-rule="nonzero" /><path d="M 146.74 139.05 L 146.56 139.84 C 146.35 140.74 146.92 141.64 147.82 141.85 C 148.72 142.05 149.62 141.49 149.82 140.59 L 150.01 139.80 C 150.21 138.89 149.65 138.00 148.75 137.79 C 147.85 137.58 146.95 138.14 146.74 139.05 Z M 146.51 139.75 L 146.26 140.69 C 146.00 141.62 146.55 142.58 147.48 142.83 C 148.41 143.08 149.36 142.53 149.62 141.61 L 149.87 140.67 C 150.12 139.74 149.58 138.79 148.65 138.53 C 147.72 138.28 146.77 138.83 146.51 139.75 Z M 146.22 140.59 L 145.85 141.73 C 145.54 142.67 146.06 143.69 147.00 144.00 C 147.95 144.31 148.97 143.79 149.28 142.85 L 149.65 141.71 C 149.96 140.76 149.44 139.75 148.50 139.44 C 147.55 139.13 146.53 139.64 146.22 140.59 Z M 145.84 141.66 L 145.52 142.55 C 145.18 143.50 145.67 144.55 146.62 144.89 C 147.57 145.24 148.62 144.75 148.96 143.80 L 149.28 142.91 C 149.63 141.96 149.14 140.91 148.19 140.57 C 147.24 140.22 146.19 140.71 145.84 141.66 Z M 145.53 142.52 L 145.16 143.49 C 144.80 144.43 145.28 145.49 146.22 145.85 C 147.17 146.21 148.23 145.74 148.59 144.79 L 148.95 143.82 C 149.31 142.88 148.84 141.82 147.89 141.46 C 146.95 141.10 145.89 141.58 145.53 142.52 Z M 145.17 143.47 L 144.78 144.45 C 144.41 145.40 144.88 146.46 145.82 146.83 C 146.76 147.20 147.82 146.74 148.19 145.79 L 148.58 144.81 C 148.95 143.87 148.49 142.80 147.55 142.43 C 146.60 142.06 145.54 142.53 145.17 143.47 Z M 144.79 144.44 L 144.41 145.38 C 144.03 146.32 144.48 147.39 145.42 147.77 C 146.36 148.15 147.43 147.69 147.81 146.76 L 148.19 145.81 C 148.57 144.87 148.11 143.80 147.17 143.42 C 146.24 143.05 145.17 143.50 144.79 144.44 Z M 144.41 145.37 L 144.01 146.34 C 143.62 147.28 144.06 148.35 145.00 148.74 C 145.93 149.13 147.00 148.69 147.39 147.75 L 147.80 146.77 C 148.19 145.84 147.74 144.77 146.81 144.38 C 145.87 143.99 144.80 144.43 144.41 145.37 Z M 144.02 146.32 L 143.59 147.32 C 143.19 148.24 143.62 149.32 144.55 149.72 C 145.47 150.12 146.55 149.69 146.95 148.76 L 147.38 147.77 C 147.78 146.84 147.35 145.77 146.42 145.37 C 145.50 144.97 144.42 145.39 144.02 146.32 Z M 143.60 147.30 L 143.22 148.15 C 142.81 149.07 143.23 150.15 144.15 150.56 C 145.07 150.97 146.15 150.56 146.56 149.64 L 146.94 148.78 C 147.35 147.86 146.94 146.78 146.02 146.37 C 145.09 145.96 144.01 146.38 143.60 147.30 Z M 143.23 148.14 L 142.86 148.95 C 142.45 149.87 142.86 150.95 143.77 151.36 C 144.69 151.78 145.77 151.37 146.18 150.45 L 146.55 149.64 C 146.97 148.73 146.56 147.65 145.64 147.23 C 144.73 146.82 143.65 147.22 143.23 148.14 Z M 142.87 148.95 L 142.46 149.84 C 142.05 150.76 142.46 151.83 143.37 152.25 C 144.29 152.66 145.36 152.26 145.78 151.34 L 146.18 150.45 C 146.59 149.54 146.19 148.46 145.27 148.05 C 144.36 147.63 143.28 148.04 142.87 148.95 Z M 142.47 149.84 L 142.05 150.75 C 141.63 151.66 142.03 152.74 142.94 153.16 C 143.86 153.58 144.93 153.18 145.35 152.27 L 145.77 151.35 C 146.19 150.44 145.79 149.36 144.88 148.94 C 143.97 148.52 142.89 148.92 142.47 149.84 Z M 142.06 150.73 L 141.63 151.65 C 141.20 152.56 141.59 153.64 142.49 154.07 C 143.40 154.49 144.48 154.11 144.90 153.20 L 145.34 152.28 C 145.77 151.38 145.38 150.30 144.47 149.87 C 143.57 149.44 142.49 149.83 142.06 150.73 Z M 141.64 151.62 L 141.20 152.51 C 140.76 153.41 141.13 154.50 142.02 154.94 C 142.92 155.38 144.01 155.02 144.45 154.12 L 144.89 153.23 C 145.33 152.33 144.97 151.25 144.07 150.80 C 143.17 150.36 142.09 150.73 141.64 151.62 Z M 141.22 152.49 L 140.76 153.37 C 140.30 154.26 140.65 155.35 141.54 155.81 C 142.43 156.27 143.52 155.92 143.98 155.03 L 144.44 154.15 C 144.90 153.26 144.55 152.17 143.66 151.71 C 142.77 151.25 141.67 151.60 141.22 152.49 Z M 140.77 153.34 L 140.30 154.24 C 139.82 155.12 140.16 156.22 141.04 156.69 C 141.93 157.16 143.03 156.83 143.50 155.94 L 143.97 155.05 C 144.44 154.17 144.11 153.07 143.23 152.60 C 142.34 152.13 141.24 152.46 140.77 153.34 Z M 140.30 154.22 L 139.83 155.08 C 139.35 155.96 139.68 157.06 140.56 157.54 C 141.44 158.02 142.54 157.70 143.02 156.82 L 143.49 155.96 C 143.97 155.08 143.65 153.98 142.77 153.50 C 141.89 153.01 140.78 153.34 140.30 154.22 Z M 139.84 155.06 L 139.36 155.93 C 138.87 156.81 139.18 157.92 140.06 158.41 C 140.94 158.89 142.05 158.58 142.54 157.70 L 143.02 156.83 C 143.51 155.96 143.19 154.85 142.31 154.36 C 141.43 153.87 140.33 154.19 139.84 155.06 Z M 139.36 155.92 L 138.86 156.80 C 138.36 157.67 138.67 158.79 139.54 159.28 C 140.42 159.78 141.53 159.47 142.03 158.60 L 142.53 157.72 C 143.03 156.84 142.72 155.73 141.85 155.23 C 140.97 154.73 139.86 155.04 139.36 155.92 Z M 138.86 156.78 L 138.35 157.66 C 137.85 158.53 138.14 159.65 139.02 160.16 C 139.89 160.66 141.01 160.37 141.51 159.49 L 142.02 158.61 C 142.53 157.74 142.23 156.62 141.36 156.12 C 140.49 155.61 139.37 155.91 138.86 156.78 Z M 138.36 157.64 L 137.85 158.50 C 137.33 159.37 137.62 160.49 138.49 161.01 C 139.36 161.53 140.49 161.24 141.00 160.37 L 141.51 159.51 C 142.03 158.64 141.74 157.52 140.87 157.00 C 140.00 156.49 138.87 156.77 138.36 157.64 Z M 137.85 158.48 L 137.33 159.34 C 136.81 160.21 137.09 161.34 137.96 161.86 C 138.82 162.39 139.96 162.11 140.48 161.24 L 141.00 160.39 C 141.53 159.52 141.25 158.39 140.38 157.86 C 139.51 157.33 138.38 157.61 137.85 158.48 Z M 137.34 159.32 L 136.81 160.17 C 136.27 161.04 136.54 162.18 137.41 162.72 C 138.27 163.25 139.41 162.99 139.95 162.12 L 140.48 161.26 C 141.01 160.40 140.75 159.26 139.88 158.72 C 139.01 158.18 137.88 158.45 137.34 159.32 Z M 136.81 160.15 L 136.27 161.01 C 135.72 161.87 135.98 163.02 136.84 163.56 C 137.71 164.11 138.85 163.86 139.40 162.99 L 139.94 162.14 C 140.49 161.27 140.23 160.13 139.37 159.58 C 138.51 159.03 137.36 159.29 136.81 160.15 Z M 136.28 160.99 L 135.73 161.83 C 135.17 162.69 135.41 163.84 136.27 164.40 C 137.13 164.96 138.29 164.72 138.84 163.86 L 139.39 163.01 C 139.95 162.15 139.71 161.00 138.85 160.44 C 137.99 159.88 136.84 160.13 136.28 160.99 Z M 135.74 161.81 L 135.18 162.64 C 134.61 163.50 134.84 164.65 135.70 165.23 C 136.56 165.80 137.71 165.57 138.28 164.71 L 138.84 163.88 C 139.41 163.02 139.18 161.87 138.32 161.29 C 137.46 160.72 136.31 160.95 135.74 161.81 Z M 135.19 162.62 L 134.63 163.43 C 134.05 164.29 134.27 165.45 135.12 166.03 C 135.97 166.61 137.13 166.40 137.72 165.54 L 138.28 164.73 C 138.86 163.88 138.64 162.72 137.79 162.13 C 136.94 161.55 135.77 161.77 135.19 162.62 Z M 134.64 163.41 L 134.06 164.24 C 133.47 165.08 133.67 166.25 134.52 166.85 C 135.36 167.44 136.53 167.24 137.13 166.39 L 137.71 165.57 C 138.30 164.72 138.10 163.55 137.25 162.96 C 136.41 162.36 135.24 162.57 134.64 163.41 Z M 134.07 164.22 L 133.49 165.03 C 132.89 165.87 133.08 167.04 133.92 167.64 C 134.76 168.25 135.93 168.06 136.53 167.22 L 137.12 166.41 C 137.72 165.57 137.53 164.40 136.69 163.79 C 135.85 163.19 134.68 163.38 134.07 164.22 Z M 133.50 165.01 L 132.91 165.81 C 132.30 166.65 132.48 167.82 133.31 168.44 C 134.15 169.05 135.32 168.87 135.94 168.03 L 136.52 167.23 C 137.14 166.40 136.96 165.23 136.12 164.61 C 135.29 164.00 134.11 164.18 133.50 165.01 Z M 132.92 165.80 L 132.30 166.63 C 131.68 167.46 131.85 168.64 132.68 169.26 C 133.52 169.88 134.69 169.70 135.31 168.87 L 135.93 168.05 C 136.55 167.22 136.38 166.04 135.55 165.42 C 134.72 164.80 133.54 164.97 132.92 165.80 Z M 132.31 166.62 L 131.69 167.44 C 131.06 168.27 131.22 169.44 132.05 170.07 C 132.87 170.69 134.05 170.53 134.68 169.71 L 135.30 168.88 C 135.93 168.06 135.76 166.88 134.94 166.26 C 134.11 165.63 132.94 165.79 132.31 166.62 Z M 131.70 167.43 L 131.10 168.20 C 130.47 169.02 130.62 170.19 131.43 170.83 C 132.25 171.46 133.42 171.31 134.06 170.50 L 134.66 169.72 C 135.29 168.91 135.15 167.73 134.33 167.10 C 133.51 166.46 132.34 166.61 131.70 167.43 Z M 131.13 168.18 L 130.51 168.94 C 129.87 169.74 129.99 170.91 130.79 171.56 C 131.60 172.21 132.77 172.08 133.42 171.28 L 134.03 170.52 C 134.68 169.72 134.56 168.54 133.75 167.90 C 132.95 167.25 131.78 167.37 131.13 168.18 Z M 130.58 168.88 L 129.92 169.62 C 129.24 170.39 129.31 171.56 130.08 172.24 C 130.85 172.92 132.03 172.85 132.71 172.08 L 133.36 171.34 C 134.04 170.57 133.97 169.40 133.20 168.72 C 132.43 168.04 131.26 168.11 130.58 168.88 Z M 130.04 169.51 L 129.33 170.19 C 128.59 170.89 128.56 172.06 129.27 172.80 C 129.97 173.54 131.14 173.56 131.88 172.86 L 132.59 172.18 C 133.32 171.48 133.35 170.31 132.65 169.57 C 131.95 168.84 130.78 168.81 130.04 169.51 Z M 129.50 170.07 L 128.58 170.76 C 127.77 171.38 127.62 172.52 128.23 173.33 C 128.84 174.13 129.99 174.29 130.79 173.68 L 131.71 172.98 C 132.51 172.37 132.67 171.22 132.06 170.42 C 131.45 169.61 130.30 169.46 129.50 170.07 Z M 128.99 170.55 L 128.09 170.93 C 127.17 171.31 126.73 172.37 127.12 173.29 C 127.51 174.22 128.57 174.65 129.49 174.27 L 130.38 173.89 C 131.31 173.51 131.74 172.45 131.36 171.52 C 130.97 170.60 129.91 170.17 128.99 170.55 Z M 129.78 171.11 L 129.27 170.77 C 128.45 170.23 127.34 170.45 126.80 171.27 C 126.25 172.09 126.48 173.19 127.29 173.74 L 127.81 174.08 C 128.62 174.62 129.73 174.40 130.27 173.58 C 130.82 172.76 130.59 171.66 129.78 171.11 Z M 129.99 172.05 L 129.88 171.14 C 129.76 170.19 128.90 169.52 127.96 169.64 C 127.01 169.75 126.34 170.61 126.46 171.56 L 126.57 172.47 C 126.69 173.41 127.55 174.08 128.49 173.96 C 129.43 173.85 130.10 172.99 129.99 172.05 Z M 129.81 171.50 L 129.91 170.35 C 130.00 169.45 129.33 168.64 128.43 168.56 C 127.52 168.48 126.72 169.14 126.63 170.05 L 126.53 171.19 C 126.44 172.10 127.11 172.90 128.02 172.99 C 128.92 173.07 129.72 172.40 129.81 171.50 Z M 129.84 170.51 L 130.06 169.39 C 130.23 168.52 129.67 167.68 128.81 167.51 C 127.94 167.34 127.10 167.90 126.93 168.77 L 126.71 169.89 C 126.54 170.75 127.10 171.59 127.96 171.76 C 128.83 171.93 129.67 171.37 129.84 170.51 Z M 130.01 169.51 L 130.28 168.56 C 130.53 167.73 130.05 166.85 129.21 166.61 C 128.38 166.37 127.51 166.85 127.26 167.68 L 126.99 168.64 C 126.74 169.47 127.22 170.34 128.06 170.59 C 128.89 170.83 129.77 170.35 130.01 169.51 Z M 130.25 168.64 L 130.51 167.90 C 130.80 167.08 130.37 166.19 129.55 165.90 C 128.73 165.62 127.84 166.05 127.56 166.86 L 127.30 167.61 C 127.01 168.42 127.44 169.31 128.26 169.60 C 129.07 169.89 129.96 169.46 130.25 168.64 Z"
      fill="black"
      fill-rule="nonzero" /><path d="M 147.13 139.96 L 147.21 140.91 C 147.30 141.86 148.13 142.56 149.08 142.47 C 150.02 142.39 150.72 141.55 150.63 140.61 L 150.55 139.65 C 150.46 138.71 149.63 138.01 148.69 138.10 C 147.74 138.18 147.04 139.02 147.13 139.96 Z M 147.17 140.90 L 147.25 141.88 C 147.32 142.85 148.17 143.57 149.14 143.50 C 150.11 143.42 150.83 142.57 150.75 141.60 L 150.68 140.62 C 150.60 139.66 149.75 138.93 148.79 139.01 C 147.82 139.09 147.09 139.93 147.17 140.90 Z M 147.20 141.85 L 147.27 142.88 C 147.32 143.87 148.18 144.63 149.17 144.57 C 150.16 144.51 150.92 143.66 150.86 142.67 L 150.80 141.64 C 150.74 140.64 149.89 139.89 148.89 139.95 C 147.90 140.00 147.15 140.86 147.20 141.85 Z M 147.24 142.84 L 147.28 143.86 C 147.31 144.87 148.16 145.66 149.16 145.62 C 150.17 145.58 150.96 144.74 150.92 143.73 L 150.88 142.71 C 150.85 141.70 150.00 140.92 149.00 140.95 C 147.99 140.99 147.20 141.83 147.24 142.84 Z M 147.28 143.83 L 147.29 144.86 C 147.31 145.86 148.14 146.66 149.15 146.65 C 150.16 146.63 150.96 145.80 150.94 144.79 L 150.92 143.77 C 150.90 142.76 150.07 141.96 149.07 141.98 C 148.06 141.99 147.26 142.82 147.28 143.83 Z M 147.30 144.84 L 147.31 145.85 C 147.31 146.85 148.13 147.66 149.13 147.65 C 150.14 147.65 150.94 146.83 150.94 145.83 L 150.93 144.81 C 150.93 143.81 150.11 143.00 149.11 143.01 C 148.10 143.02 147.30 143.83 147.30 144.84 Z M 147.32 145.84 L 147.32 146.80 C 147.32 147.80 148.13 148.61 149.13 148.61 C 150.12 148.61 150.93 147.80 150.93 146.80 L 150.93 145.84 C 150.93 144.84 150.12 144.03 149.12 144.03 C 148.12 144.03 147.31 144.84 147.32 145.84 Z M 147.32 146.80 L 147.32 147.88 C 147.32 148.87 148.13 149.68 149.12 149.68 C 150.12 149.68 150.93 148.87 150.93 147.88 L 150.93 146.80 C 150.93 145.81 150.12 145.00 149.12 145.00 C 148.13 145.00 147.32 145.81 147.32 146.80 Z M 147.32 147.88 L 147.32 148.85 C 147.32 149.84 148.13 150.65 149.12 150.65 C 150.12 150.65 150.92 149.84 150.92 148.85 L 150.92 147.88 C 150.92 146.88 150.12 146.07 149.12 146.07 C 148.13 146.07 147.32 146.88 147.32 147.88 Z M 147.33 148.85 L 147.33 149.79 C 147.33 150.79 148.13 151.59 149.12 151.59 C 150.12 151.59 150.92 150.79 150.92 149.79 L 150.92 148.85 C 150.92 147.86 150.12 147.05 149.12 147.05 C 148.13 147.05 147.33 147.86 147.33 148.85 Z M 147.33 149.79 L 147.33 150.76 C 147.33 151.76 148.13 152.56 149.12 152.56 C 150.12 152.56 150.92 151.76 150.92 150.76 L 150.92 149.79 C 150.92 148.80 150.12 147.99 149.12 147.99 C 148.13 147.99 147.33 148.80 147.33 149.79 Z M 147.33 150.76 L 147.33 151.77 C 147.33 152.76 148.13 153.57 149.12 153.57 C 150.12 153.57 150.92 152.76 150.92 151.77 L 150.92 150.76 C 150.92 149.77 150.12 148.97 149.12 148.97 C 148.13 148.97 147.33 149.77 147.33 150.76 Z M 147.32 151.77 L 147.32 152.79 C 147.32 153.78 148.13 154.59 149.12 154.59 C 150.12 154.59 150.92 153.78 150.92 152.79 L 150.92 151.77 C 150.92 150.77 150.12 149.97 149.12 149.97 C 148.13 149.97 147.32 150.77 147.32 151.77 Z M 147.32 152.78 L 147.32 153.76 C 147.32 154.76 148.12 155.56 149.12 155.57 C 150.11 155.57 150.92 154.76 150.92 153.77 L 150.93 152.79 C 150.93 151.80 150.12 150.99 149.13 150.99 C 148.13 150.98 147.32 151.79 147.32 152.78 Z M 147.32 153.75 L 147.31 154.75 C 147.30 155.75 148.10 156.56 149.10 156.57 C 150.09 156.58 150.91 155.78 150.92 154.79 L 150.93 153.78 C 150.93 152.78 150.13 151.97 149.14 151.96 C 148.14 151.95 147.33 152.75 147.32 153.75 Z M 147.31 154.73 L 147.29 155.76 C 147.27 156.76 148.06 157.58 149.06 157.60 C 150.05 157.62 150.88 156.83 150.90 155.83 L 150.92 154.81 C 150.94 153.81 150.15 152.99 149.15 152.97 C 148.15 152.95 147.33 153.74 147.31 154.73 Z M 147.29 155.73 L 147.25 156.74 C 147.22 157.74 148.00 158.58 149.00 158.61 C 149.99 158.65 150.83 157.87 150.86 156.87 L 150.90 155.86 C 150.93 154.86 150.15 154.03 149.16 153.99 C 148.16 153.96 147.32 154.74 147.29 155.73 Z M 147.25 156.72 L 147.20 157.73 C 147.16 158.73 147.93 159.57 148.93 159.62 C 149.93 159.67 150.77 158.90 150.82 157.90 L 150.87 156.89 C 150.91 155.89 150.14 155.04 149.14 155.00 C 148.14 154.95 147.30 155.72 147.25 156.72 Z M 147.20 157.71 L 147.15 158.70 C 147.09 159.70 147.86 160.56 148.86 160.61 C 149.86 160.67 150.71 159.90 150.77 158.90 L 150.82 157.91 C 150.88 156.91 150.11 156.06 149.11 156.00 C 148.11 155.95 147.26 156.71 147.20 157.71 Z M 147.14 158.69 L 147.08 159.72 C 147.02 160.72 147.79 161.59 148.79 161.65 C 149.79 161.71 150.65 160.94 150.71 159.94 L 150.77 158.91 C 150.83 157.91 150.07 157.05 149.07 156.99 C 148.06 156.93 147.20 157.69 147.14 158.69 Z M 147.08 159.72 L 147.02 160.73 C 146.96 161.73 147.72 162.60 148.72 162.66 C 149.73 162.72 150.59 161.96 150.65 160.95 L 150.71 159.94 C 150.77 158.94 150.01 158.08 149.01 158.02 C 148.00 157.95 147.14 158.72 147.08 159.72 Z M 147.01 160.74 L 146.96 161.70 C 146.90 162.70 147.67 163.57 148.67 163.62 C 149.68 163.68 150.54 162.91 150.60 161.91 L 150.65 160.95 C 150.71 159.94 149.94 159.08 148.94 159.02 C 147.93 158.96 147.07 159.73 147.01 160.74 Z M 146.95 161.71 L 146.91 162.68 C 146.86 163.69 147.64 164.54 148.64 164.59 C 149.65 164.64 150.51 163.86 150.55 162.85 L 150.60 161.89 C 150.65 160.88 149.87 160.03 148.87 159.98 C 147.86 159.93 147.00 160.71 146.95 161.71 Z M 146.90 162.70 L 146.87 163.68 C 146.83 164.69 147.62 165.53 148.63 165.57 C 149.64 165.61 150.49 164.82 150.52 163.81 L 150.56 162.83 C 150.59 161.82 149.80 160.97 148.80 160.94 C 147.79 160.90 146.94 161.69 146.90 162.70 Z M 146.87 163.70 L 146.84 164.75 C 146.82 165.76 147.62 166.59 148.64 166.62 C 149.65 166.64 150.48 165.83 150.51 164.82 L 150.53 163.78 C 150.55 162.77 149.75 161.93 148.74 161.91 C 147.72 161.89 146.89 162.69 146.87 163.70 Z M 146.84 164.77 L 146.84 165.77 C 146.83 166.78 147.64 167.61 148.65 167.62 C 149.66 167.63 150.49 166.81 150.50 165.80 L 150.50 164.80 C 150.51 163.79 149.70 162.96 148.69 162.95 C 147.68 162.95 146.85 163.76 146.84 164.77 Z M 146.84 165.81 L 146.85 166.84 C 146.87 167.85 147.69 168.66 148.70 168.64 C 149.71 168.63 150.52 167.80 150.50 166.80 L 150.49 165.77 C 150.48 164.76 149.65 163.95 148.65 163.96 C 147.64 163.97 146.83 164.80 146.84 165.81 Z M 146.86 166.90 L 146.90 167.88 C 146.95 168.89 147.80 169.67 148.80 169.62 C 149.81 169.58 150.59 168.72 150.54 167.72 L 150.50 166.74 C 150.45 165.73 149.60 164.95 148.60 165.00 C 147.59 165.04 146.81 165.89 146.86 166.90 Z M 146.91 168.03 L 147.04 169.08 C 147.17 170.09 148.08 170.80 149.08 170.67 C 150.08 170.55 150.79 169.63 150.67 168.63 L 150.54 167.57 C 150.41 166.57 149.50 165.86 148.50 165.99 C 147.49 166.11 146.78 167.03 146.91 168.03 Z M 147.17 169.62 L 147.55 170.47 C 147.98 171.40 149.07 171.81 150.00 171.39 C 150.94 170.97 151.35 169.87 150.93 168.94 L 150.54 168.09 C 150.12 167.16 149.02 166.75 148.09 167.17 C 147.16 167.59 146.75 168.69 147.17 169.62 Z M 148.18 171.26 L 148.91 171.75 C 149.76 172.33 150.93 172.11 151.51 171.25 C 152.10 170.39 151.87 169.22 151.02 168.64 L 150.29 168.15 C 149.44 167.57 148.27 167.79 147.69 168.65 C 147.10 169.51 147.33 170.67 148.18 171.26 Z M 149.53 172.04 L 150.38 172.24 C 151.40 172.48 152.42 171.85 152.66 170.83 C 152.90 169.81 152.27 168.78 151.25 168.54 L 150.39 168.34 C 149.37 168.11 148.35 168.74 148.11 169.76 C 147.87 170.78 148.51 171.80 149.53 172.04 Z M 150.73 172.31 L 151.77 172.36 C 152.83 172.40 153.72 171.58 153.77 170.52 C 153.81 169.46 152.99 168.57 151.93 168.52 L 150.90 168.48 C 149.84 168.43 148.94 169.25 148.90 170.31 C 148.85 171.37 149.67 172.27 150.73 172.31 Z M 152.02 172.37 L 153.16 172.27 C 154.23 172.17 155.02 171.23 154.92 170.16 C 154.83 169.10 153.88 168.31 152.82 168.40 L 151.68 168.51 C 150.61 168.60 149.82 169.54 149.92 170.61 C 150.01 171.68 150.96 172.47 152.02 172.37 Z M 153.37 172.25 L 154.39 172.05 C 155.45 171.84 156.14 170.82 155.93 169.76 C 155.72 168.70 154.69 168.01 153.64 168.22 L 152.61 168.42 C 151.55 168.63 150.86 169.66 151.07 170.71 C 151.28 171.77 152.31 172.46 153.37 172.25 Z M 154.53 172.02 L 155.52 171.75 C 156.57 171.47 157.18 170.39 156.89 169.35 C 156.61 168.30 155.53 167.69 154.49 167.97 L 153.50 168.25 C 152.45 168.53 151.84 169.61 152.12 170.65 C 152.41 171.70 153.49 172.31 154.53 172.02 Z M 155.61 171.73 L 156.57 171.42 C 157.60 171.08 158.17 169.98 157.83 168.95 C 157.50 167.92 156.39 167.35 155.36 167.69 L 154.40 168.00 C 153.37 168.33 152.81 169.44 153.14 170.47 C 153.47 171.50 154.58 172.06 155.61 171.73 Z M 156.62 171.41 L 157.52 171.09 C 158.54 170.73 159.08 169.61 158.72 168.58 C 158.36 167.56 157.24 167.02 156.22 167.38 L 155.31 167.70 C 154.29 168.06 153.75 169.18 154.11 170.20 C 154.47 171.23 155.59 171.77 156.62 171.41 Z M 157.53 171.09 L 158.54 170.73 C 159.56 170.37 160.10 169.24 159.73 168.22 C 159.37 167.19 158.24 166.66 157.22 167.02 L 156.21 167.38 C 155.18 167.74 154.65 168.87 155.01 169.89 C 155.38 170.92 156.50 171.45 157.53 171.09 Z M 158.54 170.73 L 159.49 170.39 C 160.51 170.03 161.05 168.90 160.69 167.88 C 160.32 166.85 159.20 166.32 158.17 166.68 L 157.22 167.02 C 156.19 167.38 155.66 168.51 156.02 169.53 C 156.39 170.56 157.51 171.10 158.54 170.73 Z M 159.50 170.39 L 160.38 170.07 C 161.40 169.70 161.93 168.58 161.56 167.55 C 161.19 166.53 160.06 166.00 159.04 166.37 L 158.16 166.68 C 157.14 167.05 156.60 168.18 156.97 169.21 C 157.34 170.23 158.47 170.76 159.50 170.39 Z M 160.40 170.07 L 161.31 169.73 C 162.33 169.34 162.84 168.20 162.46 167.19 C 162.07 166.17 160.94 165.65 159.92 166.03 L 159.01 166.38 C 157.99 166.76 157.48 167.90 157.86 168.92 C 158.24 169.93 159.38 170.45 160.40 170.07 Z M 161.33 169.72 L 162.26 169.35 C 163.27 168.95 163.77 167.81 163.37 166.80 C 162.98 165.78 161.83 165.28 160.82 165.68 L 159.89 166.04 C 158.88 166.44 158.38 167.59 158.78 168.60 C 159.17 169.62 160.32 170.11 161.33 169.72 Z M 162.28 169.35 L 163.21 168.97 C 164.22 168.56 164.71 167.41 164.30 166.40 C 163.89 165.39 162.74 164.90 161.73 165.31 L 160.80 165.69 C 159.79 166.09 159.30 167.24 159.71 168.25 C 160.12 169.27 161.27 169.75 162.28 169.35 Z M 163.21 168.97 L 164.13 168.60 C 165.14 168.19 165.62 167.03 165.21 166.02 C 164.80 165.01 163.64 164.53 162.64 164.94 L 161.72 165.31 C 160.71 165.72 160.23 166.88 160.64 167.89 C 161.05 168.90 162.20 169.38 163.21 168.97 Z M 164.13 168.60 L 165.05 168.22 C 166.06 167.81 166.55 166.65 166.13 165.64 C 165.72 164.63 164.57 164.15 163.56 164.56 L 162.63 164.94 C 161.62 165.35 161.14 166.51 161.55 167.52 C 161.97 168.53 163.12 169.01 164.13 168.60 Z M 165.05 168.22 L 165.99 167.83 C 167.00 167.42 167.49 166.27 167.07 165.26 C 166.66 164.25 165.51 163.76 164.50 164.18 L 163.56 164.56 C 162.55 164.98 162.06 166.13 162.48 167.14 C 162.89 168.15 164.04 168.63 165.05 168.22 Z M 165.99 167.83 L 166.93 167.45 C 167.94 167.04 168.42 165.89 168.01 164.88 C 167.60 163.87 166.44 163.38 165.43 163.80 L 164.50 164.18 C 163.49 164.59 163.01 165.74 163.42 166.75 C 163.83 167.76 164.98 168.24 165.99 167.83 Z M 166.92 167.44 L 167.85 167.06 C 168.86 166.65 169.34 165.51 168.93 164.50 C 168.52 163.50 167.38 163.02 166.37 163.42 L 165.44 163.80 C 164.44 164.21 163.95 165.36 164.36 166.36 C 164.77 167.37 165.92 167.85 166.92 167.44 Z M 167.85 167.05 L 168.76 166.68 C 169.76 166.28 170.25 165.14 169.84 164.14 C 169.43 163.14 168.29 162.65 167.29 163.06 L 166.38 163.43 C 165.38 163.84 164.90 164.98 165.30 165.98 C 165.71 166.98 166.85 167.46 167.85 167.05 Z M 168.76 166.68 L 169.70 166.30 C 170.70 165.89 171.18 164.76 170.78 163.76 C 170.38 162.76 169.24 162.28 168.24 162.68 L 167.30 163.06 C 166.30 163.47 165.82 164.61 166.22 165.60 C 166.63 166.60 167.76 167.08 168.76 166.68 Z M 169.71 166.30 L 170.63 165.92 C 171.63 165.51 172.11 164.38 171.70 163.38 C 171.30 162.38 170.16 161.90 169.16 162.31 L 168.24 162.68 C 167.24 163.09 166.76 164.23 167.17 165.22 C 167.57 166.22 168.71 166.70 169.71 166.30 Z M 170.64 165.92 L 171.55 165.54 C 172.54 165.13 173.02 163.99 172.61 163.00 C 172.20 162.00 171.06 161.53 170.06 161.94 L 169.15 162.31 C 168.16 162.72 167.68 163.86 168.09 164.86 C 168.50 165.85 169.64 166.33 170.64 165.92 Z M 171.56 165.54 L 172.48 165.15 C 173.48 164.73 173.94 163.59 173.53 162.60 C 173.11 161.60 171.97 161.14 170.97 161.55 L 170.05 161.94 C 169.06 162.36 168.59 163.50 169.01 164.50 C 169.42 165.49 170.57 165.96 171.56 165.54 Z M 172.50 165.14 L 173.42 164.75 C 174.41 164.32 174.86 163.17 174.44 162.19 C 174.01 161.20 172.86 160.74 171.87 161.17 L 170.96 161.56 C 169.97 161.99 169.51 163.13 169.94 164.12 C 170.36 165.11 171.51 165.57 172.50 165.14 Z M 173.43 164.74 L 174.33 164.34 C 175.31 163.91 175.76 162.76 175.32 161.77 C 174.89 160.79 173.74 160.34 172.75 160.78 L 171.86 161.17 C 170.87 161.61 170.43 162.76 170.86 163.74 C 171.30 164.73 172.45 165.17 173.43 164.74 Z M 174.35 164.33 L 175.23 163.93 C 176.21 163.48 176.64 162.33 176.19 161.35 C 175.74 160.37 174.59 159.94 173.61 160.39 L 172.73 160.79 C 171.75 161.24 171.32 162.39 171.77 163.37 C 172.22 164.35 173.37 164.78 174.35 164.33 Z M 175.26 163.91 L 176.18 163.47 C 177.15 163.01 177.55 161.85 177.09 160.88 C 176.63 159.91 175.46 159.50 174.50 159.97 L 173.58 160.41 C 172.61 160.87 172.20 162.03 172.67 163.00 C 173.13 163.97 174.29 164.38 175.26 163.91 Z M 176.21 163.45 L 177.13 162.98 C 178.09 162.50 178.47 161.33 177.99 160.38 C 177.51 159.42 176.34 159.04 175.38 159.52 L 174.46 159.99 C 173.51 160.47 173.12 161.64 173.61 162.60 C 174.09 163.55 175.26 163.93 176.21 163.45 Z M 177.16 162.96 L 178.07 162.48 C 179.01 161.98 179.37 160.81 178.87 159.87 C 178.37 158.92 177.20 158.56 176.26 159.06 L 175.35 159.54 C 174.41 160.04 174.05 161.21 174.55 162.16 C 175.05 163.10 176.22 163.46 177.16 162.96 Z M 178.09 162.47 L 178.98 161.98 C 179.91 161.47 180.26 160.29 179.74 159.36 C 179.23 158.42 178.06 158.08 177.12 158.60 L 176.24 159.08 C 175.30 159.59 174.96 160.77 175.47 161.70 C 175.99 162.64 177.16 162.98 178.09 162.47 Z M 179.02 161.98 L 179.87 161.48 C 180.81 160.95 181.13 159.76 180.60 158.83 C 180.06 157.90 178.88 157.57 177.94 158.11 L 177.08 158.60 C 176.15 159.13 175.83 160.32 176.36 161.25 C 176.89 162.19 178.08 162.51 179.02 161.98 Z M 180.07 161.45 L 180.87 160.88 C 181.78 160.24 182.00 158.98 181.36 158.07 C 180.71 157.16 179.46 156.94 178.54 157.58 L 177.75 158.15 C 176.83 158.79 176.62 160.05 177.26 160.96 C 177.90 161.87 179.16 162.09 180.07 161.45 Z M 181.39 160.54 L 181.98 159.78 C 182.70 158.85 182.53 157.52 181.60 156.79 C 180.67 156.07 179.33 156.24 178.61 157.17 L 178.03 157.93 C 177.30 158.86 177.47 160.19 178.40 160.92 C 179.33 161.64 180.67 161.47 181.39 160.54 Z M 182.39 159.16 L 182.69 158.25 C 183.07 157.09 182.44 155.84 181.28 155.46 C 180.12 155.09 178.87 155.72 178.49 156.88 L 178.19 157.79 C 177.82 158.95 178.45 160.20 179.61 160.58 C 180.77 160.96 182.01 160.32 182.39 159.16 Z M 182.81 157.86 L 182.94 156.86 C 183.10 155.63 182.24 154.51 181.02 154.35 C 179.79 154.19 178.67 155.05 178.51 156.27 L 178.38 157.27 C 178.22 158.50 179.08 159.62 180.30 159.78 C 181.52 159.94 182.65 159.08 182.81 157.86 Z M 182.96 156.67 L 183.01 155.61 C 183.07 154.38 182.11 153.33 180.88 153.27 C 179.64 153.21 178.59 154.17 178.53 155.41 L 178.49 156.46 C 178.43 157.70 179.38 158.75 180.62 158.80 C 181.86 158.86 182.91 157.91 182.96 156.67 Z M 183.02 155.53 L 183.03 154.53 C 183.04 153.29 182.04 152.28 180.80 152.27 C 179.55 152.26 178.54 153.26 178.53 154.50 L 178.53 155.49 C 178.52 156.74 179.52 157.75 180.76 157.76 C 182.00 157.77 183.01 156.77 183.02 155.53 Z M 182.92 154.51 L 182.92 153.40 C 182.92 152.22 181.96 151.26 180.77 151.26 C 179.59 151.27 178.63 152.23 178.63 153.41 L 178.64 154.52 C 178.64 155.71 179.60 156.66 180.79 156.66 C 181.97 156.66 182.93 155.69 182.92 154.51 Z M 182.71 153.36 L 182.69 152.42 C 182.66 151.35 181.78 150.51 180.71 150.53 C 179.64 150.56 178.80 151.44 178.82 152.51 L 178.85 153.45 C 178.87 154.52 179.76 155.36 180.82 155.34 C 181.89 155.31 182.73 154.43 182.71 153.36 Z M 182.50 152.35 L 182.44 151.45 C 182.38 150.48 181.55 149.75 180.59 149.82 C 179.62 149.88 178.89 150.71 178.96 151.67 L 179.01 152.58 C 179.07 153.54 179.90 154.27 180.87 154.21 C 181.83 154.14 182.56 153.32 182.50 152.35 Z M 182.34 151.39 L 182.25 150.46 C 182.15 149.56 181.34 148.90 180.43 148.99 C 179.53 149.08 178.87 149.89 178.96 150.80 L 179.05 151.72 C 179.15 152.63 179.96 153.29 180.86 153.20 C 181.77 153.11 182.43 152.30 182.34 151.39 Z M 182.21 150.42 L 182.08 149.40 C 181.97 148.52 181.15 147.89 180.26 148.00 C 179.37 148.12 178.75 148.93 178.86 149.82 L 178.99 150.84 C 179.11 151.73 179.92 152.36 180.81 152.24 C 181.70 152.13 182.33 151.31 182.21 150.42 Z M 182.05 149.38 L 181.90 148.33 C 181.77 147.46 180.95 146.85 180.08 146.98 C 179.21 147.11 178.61 147.93 178.73 148.80 L 178.89 149.85 C 179.02 150.72 179.83 151.32 180.70 151.19 C 181.58 151.06 182.18 150.25 182.05 149.38 Z M 181.88 148.32 L 181.73 147.37 C 181.59 146.50 180.78 145.91 179.92 146.05 C 179.05 146.19 178.46 147.00 178.60 147.86 L 178.75 148.81 C 178.89 149.68 179.70 150.27 180.56 150.13 C 181.43 149.99 182.02 149.18 181.88 148.32 Z M 181.72 147.36 L 181.55 146.36 C 181.41 145.51 180.60 144.92 179.74 145.07 C 178.88 145.21 178.30 146.02 178.45 146.88 L 178.61 147.87 C 178.75 148.73 179.56 149.31 180.42 149.17 C 181.28 149.03 181.86 148.22 181.72 147.36 Z M 181.55 146.36 L 181.37 145.34 C 181.23 144.49 180.42 143.91 179.57 144.06 C 178.71 144.20 178.14 145.01 178.28 145.86 L 178.45 146.88 C 178.60 147.74 179.41 148.31 180.26 148.17 C 181.12 148.02 181.69 147.21 181.55 146.36 Z M 181.37 145.34 L 181.28 144.84 C 181.14 143.99 180.33 143.42 179.48 143.57 C 178.63 143.71 178.06 144.52 178.20 145.37 L 178.29 145.86 C 178.43 146.72 179.24 147.29 180.09 147.14 C 180.94 147.00 181.51 146.19 181.37 145.34 Z"
      fill="black"
      fill-rule="nonzero" /></svg>