<svg xmlns="http://www.w3.org/2000/svg" width="300" height="300" viewBox="0 0 300 300">
<path d="M 131.61 121.08 L 131.69 122.09 C 131.76 123.02 132.57 123.72 133.50 123.66 C 134.44 123.59 135.14 122.78 135.07 121.84 L 135.00 120.83 C 134.93 119.90 134.12 119.19 133.18 119.26 C 132.25 119.33 131.55 120.14 131.61 121.08 Z M 131.58 122.09 L 131.65 123.09 C 131.72 124.09 132.58 124.84 133.57 124.77 C 134.56 124.70 135.32 123.84 135.25 122.85 L 135.18 121.84 C 135.11 120.85 134.25 120.10 133.26 120.17 C 132.26 120.23 131.51 121.09 131.58 122.09 Z M 131.54 123.08 L 131.60 124.08 C 131.66 125.13 132.56 125.94 133.62 125.87 C 134.67 125.81 135.48 124.91 135.42 123.85 L 135.36 122.86 C 135.29 121.80 134.39 121.00 133.34 121.06 C 132.28 121.12 131.48 122.03 131.54 123.08 Z M 131.50 124.05 L 131.54 125.03 C 131.59 126.14 132.53 127.00 133.64 126.95 C 134.75 126.90 135.61 125.96 135.56 124.85 L 135.52 123.88 C 135.47 122.77 134.53 121.91 133.42 121.96 C 132.31 122.00 131.45 122.94 131.50 124.05 Z M 131.49 124.99 L 131.52 125.96 C 131.55 127.09 132.49 127.99 133.63 127.96 C 134.76 127.93 135.66 126.99 135.63 125.85 L 135.61 124.89 C 135.58 123.75 134.63 122.85 133.50 122.88 C 132.36 122.91 131.46 123.86 131.49 124.99 Z M 131.51 125.92 L 131.52 126.89 C 131.53 128.03 132.46 128.95 133.60 128.94 C 134.73 128.93 135.65 128.00 135.64 126.86 L 135.64 125.89 C 135.63 124.75 134.70 123.83 133.56 123.84 C 132.42 123.85 131.51 124.78 131.51 125.92 Z M 131.52 126.86 L 131.51 127.88 C 131.50 129.02 132.41 129.95 133.55 129.96 C 134.69 129.97 135.63 129.05 135.64 127.91 L 135.65 126.90 C 135.66 125.76 134.74 124.82 133.60 124.81 C 132.46 124.80 131.53 125.72 131.52 126.86 Z M 131.51 127.85 L 131.49 128.86 C 131.46 130.00 132.37 130.94 133.51 130.97 C 134.65 130.99 135.59 130.09 135.62 128.94 L 135.64 127.94 C 135.66 126.80 134.76 125.85 133.62 125.83 C 132.48 125.80 131.53 126.71 131.51 127.85 Z M 131.48 128.84 L 131.46 129.75 C 131.42 130.89 132.32 131.85 133.46 131.88 C 134.60 131.91 135.55 131.02 135.59 129.88 L 135.62 128.96 C 135.65 127.82 134.75 126.87 133.61 126.83 C 132.47 126.80 131.52 127.70 131.48 128.84 Z M 131.46 129.73 L 131.42 130.70 C 131.37 131.84 132.26 132.80 133.40 132.85 C 134.54 132.89 135.51 132.00 135.55 130.86 L 135.59 129.89 C 135.63 128.75 134.74 127.79 133.60 127.75 C 132.46 127.70 131.50 128.59 131.46 129.73 Z M 131.42 130.68 L 131.37 131.70 C 131.31 132.84 132.19 133.81 133.33 133.87 C 134.47 133.93 135.44 133.05 135.50 131.91 L 135.55 130.88 C 135.61 129.74 134.73 128.77 133.59 128.72 C 132.45 128.66 131.48 129.54 131.42 130.68 Z M 131.37 131.68 L 131.31 132.76 C 131.24 133.90 132.11 134.88 133.25 134.94 C 134.39 135.01 135.37 134.14 135.43 133.00 L 135.50 131.93 C 135.57 130.79 134.70 129.81 133.56 129.74 C 132.42 129.67 131.44 130.54 131.37 131.68 Z M 131.31 132.74 L 131.24 133.76 C 131.16 134.90 132.02 135.88 133.16 135.96 C 134.30 136.04 135.28 135.18 135.36 134.04 L 135.43 133.02 C 135.51 131.88 134.65 130.90 133.51 130.82 C 132.38 130.74 131.39 131.60 131.31 132.74 Z M 131.24 133.74 L 131.17 134.68 C 131.08 135.82 131.93 136.81 133.07 136.90 C 134.21 136.99 135.20 136.14 135.29 135.00 L 135.36 134.06 C 135.45 132.92 134.60 131.93 133.46 131.84 C 132.32 131.75 131.33 132.60 131.24 133.74 Z M 131.17 134.67 L 131.09 135.64 C 130.99 136.78 131.84 137.78 132.97 137.87 C 134.11 137.97 135.11 137.12 135.21 135.99 L 135.29 135.02 C 135.38 133.88 134.54 132.88 133.40 132.78 C 132.26 132.69 131.26 133.53 131.17 134.67 Z M 131.09 135.63 L 131.00 136.63 C 130.90 137.76 131.74 138.77 132.87 138.87 C 134.01 138.97 135.02 138.13 135.12 136.99 L 135.20 136.00 C 135.31 134.86 134.47 133.85 133.33 133.75 C 132.19 133.65 131.19 134.49 131.09 135.63 Z M 131.00 136.62 L 130.90 137.64 C 130.80 138.78 131.64 139.79 132.77 139.89 C 133.91 140.00 134.92 139.16 135.02 138.02 L 135.12 137.00 C 135.22 135.86 134.38 134.86 133.25 134.75 C 132.11 134.65 131.10 135.48 131.00 136.62 Z M 130.90 137.64 L 130.81 138.69 C 130.70 139.82 131.53 140.83 132.67 140.94 C 133.81 141.05 134.81 140.21 134.92 139.08 L 135.02 138.03 C 135.13 136.89 134.29 135.88 133.16 135.78 C 132.02 135.67 131.01 136.50 130.90 137.64 Z M 130.81 138.68 L 130.71 139.71 C 130.60 140.85 131.43 141.86 132.57 141.96 C 133.71 142.07 134.71 141.24 134.82 140.10 L 134.92 139.08 C 135.03 137.94 134.20 136.93 133.06 136.82 C 131.92 136.71 130.91 137.55 130.81 138.68 Z M 130.71 139.71 L 130.61 140.70 C 130.50 141.84 131.34 142.84 132.47 142.95 C 133.61 143.06 134.62 142.23 134.73 141.09 L 134.82 140.10 C 134.93 138.97 134.10 137.96 132.96 137.85 C 131.83 137.74 130.82 138.57 130.71 139.71 Z M 130.61 140.70 L 130.52 141.70 C 130.41 142.83 131.24 143.84 132.37 143.95 C 133.51 144.06 134.52 143.23 134.63 142.10 L 134.73 141.10 C 134.84 139.96 134.01 138.95 132.87 138.84 C 131.73 138.73 130.72 139.56 130.61 140.70 Z M 130.52 141.70 L 130.42 142.70 C 130.31 143.84 131.14 144.85 132.27 144.96 C 133.41 145.07 134.42 144.24 134.53 143.10 L 134.63 142.10 C 134.74 140.96 133.91 139.95 132.77 139.84 C 131.64 139.73 130.63 140.56 130.52 141.70 Z M 130.42 142.70 L 130.32 143.70 C 130.21 144.84 131.04 145.85 132.17 145.96 C 133.31 146.07 134.32 145.24 134.43 144.11 L 134.53 143.10 C 134.64 141.97 133.81 140.96 132.68 140.85 C 131.54 140.73 130.53 141.56 130.42 142.70 Z M 130.32 143.70 L 130.22 144.70 C 130.11 145.83 130.94 146.84 132.07 146.96 C 133.21 147.07 134.22 146.24 134.33 145.11 L 134.43 144.11 C 134.54 142.97 133.72 141.96 132.58 141.85 C 131.45 141.74 130.44 142.56 130.32 143.70 Z M 130.22 144.69 L 130.12 145.68 C 130.01 146.81 130.83 147.83 131.97 147.94 C 133.10 148.06 134.12 147.23 134.23 146.10 L 134.33 145.11 C 134.45 143.98 133.62 142.96 132.49 142.85 C 131.35 142.73 130.34 143.56 130.22 144.69 Z M 130.12 145.68 L 130.02 146.69 C 129.90 147.83 130.73 148.84 131.86 148.96 C 132.99 149.08 134.01 148.25 134.12 147.12 L 134.23 146.10 C 134.35 144.97 133.52 143.95 132.39 143.83 C 131.25 143.72 130.24 144.54 130.12 145.68 Z M 130.02 146.69 L 129.91 147.70 C 129.79 148.84 130.62 149.85 131.75 149.97 C 132.88 150.09 133.90 149.27 134.02 148.13 L 134.12 147.12 C 134.24 145.99 133.42 144.97 132.29 144.85 C 131.15 144.74 130.14 145.56 130.02 146.69 Z M 129.91 147.70 L 129.81 148.70 C 129.68 149.83 130.50 150.85 131.64 150.97 C 132.77 151.09 133.79 150.27 133.91 149.14 L 134.02 148.14 C 134.14 147.01 133.32 145.99 132.18 145.87 C 131.05 145.75 130.04 146.57 129.91 147.70 Z M 129.81 148.69 L 129.70 149.68 C 129.57 150.81 130.39 151.83 131.52 151.95 C 132.66 152.08 133.67 151.26 133.80 150.13 L 133.91 149.14 C 134.03 148.01 133.21 146.99 132.08 146.87 C 130.95 146.74 129.93 147.56 129.81 148.69 Z M 129.70 149.67 L 129.59 150.65 C 129.46 151.78 130.28 152.80 131.41 152.93 C 132.54 153.06 133.56 152.24 133.69 151.11 L 133.80 150.13 C 133.92 149.00 133.11 147.98 131.98 147.85 C 130.85 147.73 129.83 148.54 129.70 149.67 Z M 129.59 150.65 L 129.48 151.62 C 129.35 152.75 130.16 153.78 131.29 153.90 C 132.42 154.03 133.45 153.22 133.58 152.09 L 133.69 151.12 C 133.82 149.99 133.00 148.96 131.87 148.84 C 130.74 148.71 129.72 149.52 129.59 150.65 Z M 129.48 151.62 L 129.37 152.61 C 129.23 153.74 130.04 154.76 131.17 154.89 C 132.30 155.02 133.33 154.21 133.46 153.08 L 133.57 152.10 C 133.71 150.97 132.90 149.94 131.77 149.81 C 130.64 149.68 129.61 150.49 129.48 151.62 Z M 129.37 152.60 L 129.25 153.60 C 129.12 154.73 129.92 155.75 131.05 155.88 C 132.18 156.02 133.20 155.21 133.34 154.08 L 133.46 153.09 C 133.59 151.96 132.78 150.93 131.66 150.80 C 130.53 150.67 129.50 151.47 129.37 152.60 Z M 129.25 153.59 L 129.13 154.59 C 129.00 155.72 129.80 156.74 130.93 156.88 C 132.06 157.01 133.08 156.21 133.22 155.08 L 133.34 154.09 C 133.47 152.96 132.67 151.93 131.54 151.80 C 130.41 151.66 129.39 152.47 129.25 153.59 Z M 129.13 154.59 L 129.01 155.58 C 128.88 156.71 129.68 157.73 130.81 157.87 C 131.94 158.00 132.96 157.20 133.10 156.07 L 133.21 155.08 C 133.35 153.95 132.55 152.93 131.42 152.79 C 130.29 152.66 129.27 153.46 129.13 154.59 Z M 129.02 155.58 L 128.90 156.57 C 128.76 157.70 129.56 158.72 130.69 158.86 C 131.82 158.99 132.84 158.19 132.97 157.06 L 133.09 156.07 C 133.23 154.95 132.43 153.92 131.30 153.79 C 130.17 153.65 129.15 154.46 129.02 155.58 Z M 128.90 156.58 L 128.78 157.57 C 128.65 158.69 129.45 159.71 130.57 159.85 C 131.70 159.98 132.72 159.18 132.85 158.05 L 132.97 157.06 C 133.11 155.94 132.30 154.92 131.18 154.78 C 130.05 154.65 129.03 155.45 128.90 156.58 Z M 128.78 157.57 L 128.66 158.57 C 128.53 159.70 129.34 160.71 130.46 160.85 C 131.59 160.98 132.60 160.17 132.74 159.05 L 132.85 158.05 C 132.99 156.92 132.18 155.91 131.06 155.77 C 129.93 155.64 128.91 156.45 128.78 157.57 Z M 128.67 158.58 L 128.55 159.59 C 128.42 160.71 129.22 161.73 130.35 161.86 C 131.47 161.99 132.49 161.18 132.62 160.06 L 132.73 159.05 C 132.86 157.92 132.06 156.91 130.93 156.78 C 129.81 156.65 128.80 157.45 128.67 158.58 Z M 128.55 159.59 L 128.44 160.59 C 128.31 161.72 129.11 162.73 130.24 162.86 C 131.36 162.99 132.37 162.18 132.50 161.06 L 132.62 160.05 C 132.74 158.93 131.94 157.92 130.82 157.79 C 129.69 157.66 128.68 158.47 128.55 159.59 Z M 128.44 160.59 L 128.32 161.59 C 128.20 162.71 129.00 163.72 130.12 163.85 C 131.24 163.98 132.26 163.17 132.38 162.05 L 132.50 161.06 C 132.63 159.94 131.82 158.92 130.70 158.80 C 129.58 158.67 128.57 159.47 128.44 160.59 Z M 128.33 161.59 L 128.21 162.58 C 128.09 163.70 128.89 164.71 130.01 164.84 C 131.13 164.96 132.14 164.16 132.27 163.04 L 132.38 162.05 C 132.51 160.93 131.71 159.92 130.59 159.79 C 129.47 159.67 128.45 160.47 128.33 161.59 Z M 128.22 162.57 L 128.11 163.55 C 127.98 164.67 128.78 165.68 129.90 165.81 C 131.02 165.93 132.03 165.13 132.16 164.01 L 132.27 163.04 C 132.40 161.92 131.59 160.91 130.48 160.78 C 129.36 160.65 128.35 161.46 128.22 162.57 Z M 128.11 163.54 L 127.99 164.56 C 127.86 165.68 128.66 166.69 129.78 166.82 C 130.89 166.95 131.90 166.15 132.03 165.03 L 132.15 164.02 C 132.28 162.90 131.48 161.89 130.37 161.76 C 129.25 161.63 128.24 162.43 128.11 163.54 Z M 128.00 164.56 L 127.87 165.59 C 127.74 166.70 128.54 167.71 129.65 167.84 C 130.77 167.97 131.77 167.18 131.91 166.06 L 132.03 165.03 C 132.16 163.92 131.36 162.91 130.25 162.78 C 129.14 162.65 128.13 163.44 128.00 164.56 Z M 127.88 165.59 L 127.76 166.60 C 127.63 167.71 128.42 168.71 129.53 168.85 C 130.64 168.98 131.65 168.18 131.78 167.07 L 131.90 166.07 C 132.03 164.96 131.24 163.95 130.13 163.82 C 129.02 163.68 128.01 164.48 127.88 165.59 Z M 127.77 166.60 L 127.65 167.58 C 127.52 168.69 128.31 169.69 129.41 169.82 C 130.52 169.96 131.53 169.17 131.66 168.06 L 131.77 167.07 C 131.91 165.97 131.11 164.96 130.01 164.83 C 128.90 164.70 127.90 165.49 127.77 166.60 Z M 127.66 167.59 L 127.54 168.54 C 127.41 169.65 128.20 170.65 129.30 170.78 C 130.41 170.91 131.41 170.12 131.54 169.01 L 131.65 168.06 C 131.78 166.95 130.99 165.95 129.89 165.82 C 128.79 165.69 127.79 166.48 127.66 167.59 Z M 127.55 168.55 L 127.44 169.51 C 127.31 170.61 128.10 171.61 129.20 171.74 C 130.30 171.86 131.29 171.07 131.42 169.97 L 131.53 169.01 C 131.66 167.91 130.87 166.91 129.77 166.79 C 128.67 166.66 127.68 167.45 127.55 168.55 Z M 127.44 169.52 L 127.33 170.57 C 127.20 171.67 127.99 172.65 129.09 172.78 C 130.18 172.90 131.17 172.11 131.30 171.02 L 131.41 169.97 C 131.54 168.87 130.75 167.88 129.65 167.76 C 128.55 167.64 127.57 168.43 127.44 169.52 Z M 127.33 170.58 L 127.22 171.59 C 127.11 172.68 127.90 173.66 128.99 173.78 C 130.08 173.90 131.06 173.11 131.18 172.02 L 131.29 171.01 C 131.41 169.91 130.62 168.93 129.52 168.82 C 128.43 168.70 127.45 169.49 127.33 170.58 Z M 127.23 171.60 L 127.13 172.58 C 127.02 173.67 127.81 174.64 128.90 174.75 C 129.99 174.86 130.96 174.07 131.07 172.99 L 131.17 172.01 C 131.28 170.92 130.49 169.95 129.40 169.83 C 128.32 169.72 127.34 170.52 127.23 171.60 Z M 127.14 172.59 L 127.05 173.54 C 126.94 174.63 127.74 175.59 128.82 175.69 C 129.91 175.80 130.87 175.00 130.97 173.92 L 131.06 172.97 C 131.17 171.89 130.37 170.93 129.29 170.82 C 128.21 170.72 127.24 171.51 127.14 172.59 Z M 127.06 173.56 L 126.97 174.59 C 126.87 175.67 127.67 176.62 128.75 176.71 C 129.82 176.81 130.78 176.01 130.87 174.93 L 130.96 173.91 C 131.06 172.83 130.26 171.88 129.18 171.78 C 128.11 171.68 127.15 172.48 127.06 173.56 Z M 126.98 174.61 L 126.90 175.66 C 126.81 176.73 127.61 177.67 128.68 177.75 C 129.75 177.84 130.68 177.04 130.77 175.97 L 130.85 174.92 C 130.94 173.85 130.14 172.91 129.07 172.83 C 128.00 172.74 127.07 173.54 126.98 174.61 Z M 126.92 175.69 L 126.85 176.68 C 126.78 177.74 127.58 178.65 128.63 178.73 C 129.69 178.80 130.61 178.00 130.68 176.94 L 130.75 175.95 C 130.82 174.89 130.02 173.98 128.97 173.90 C 127.91 173.83 126.99 174.63 126.92 175.69 Z M 126.87 176.71 L 126.82 177.62 C 126.76 178.67 127.56 179.57 128.61 179.62 C 129.66 179.68 130.55 178.88 130.61 177.83 L 130.66 176.92 C 130.72 175.87 129.92 174.97 128.87 174.92 C 127.83 174.86 126.93 175.66 126.87 176.71 Z M 126.83 177.69 L 126.81 178.87 C 126.78 179.91 127.61 180.77 128.65 180.79 C 129.69 180.82 130.55 179.99 130.57 178.95 L 130.60 177.77 C 130.62 176.73 129.80 175.87 128.76 175.84 C 127.71 175.82 126.85 176.65 126.83 177.69 Z M 126.85 179.31 L 127.05 180.20 C 127.26 181.22 128.26 181.86 129.28 181.64 C 130.29 181.43 130.94 180.43 130.72 179.41 L 130.53 178.52 C 130.31 177.50 129.31 176.85 128.30 177.07 C 127.28 177.29 126.63 178.29 126.85 179.31 Z M 128.14 181.51 L 128.74 181.77 C 129.68 182.18 130.78 181.75 131.18 180.80 C 131.59 179.86 131.16 178.77 130.22 178.36 L 129.62 178.10 C 128.68 177.69 127.59 178.13 127.18 179.07 C 126.77 180.01 127.20 181.10 128.14 181.51 Z M 130.02 181.78 L 130.93 181.49 C 131.87 181.19 132.40 180.18 132.10 179.24 C 131.80 178.29 130.79 177.77 129.84 178.07 L 128.94 178.35 C 127.99 178.65 127.47 179.66 127.77 180.61 C 128.07 181.55 129.08 182.08 130.02 181.78 Z M 131.27 181.24 L 132.24 180.66 C 133.05 180.17 133.31 179.12 132.82 178.31 C 132.34 177.50 131.28 177.24 130.48 177.73 L 129.50 178.31 C 128.69 178.80 128.43 179.85 128.92 180.66 C 129.41 181.47 130.46 181.73 131.27 181.24 Z M 132.43 180.44 L 133.25 179.74 C 133.94 179.14 134.02 178.11 133.42 177.42 C 132.83 176.73 131.79 176.65 131.10 177.24 L 130.29 177.94 C 129.60 178.54 129.52 179.58 130.11 180.26 C 130.70 180.95 131.74 181.03 132.43 180.44 Z M 133.38 179.54 L 134.03 178.81 C 134.61 178.14 134.54 177.13 133.87 176.54 C 133.21 175.96 132.19 176.03 131.61 176.70 L 130.97 177.43 C 130.38 178.10 130.45 179.12 131.12 179.70 C 131.79 180.28 132.80 180.21 133.38 179.54 Z M 134.07 178.71 L 134.47 178.19 C 134.99 177.50 134.86 176.51 134.17 175.98 C 133.48 175.45 132.49 175.59 131.96 176.28 L 131.57 176.80 C 131.04 177.49 131.17 178.48 131.86 179.00 C 132.55 179.53 133.54 179.40 134.07 178.71 Z"
      fill="black"
      fill-rule="nonzero" /><path d="M 140.09 122.36 L 140.93 121.93 C 141.81 121.48 142.15 120.40 141.70 119.52 C 141.25 118.65 140.17 118.30 139.29 118.75 L 138.46 119.18 C 137.58 119.64 137.23 120.71 137.69 121.59 C 138.14 122.47 139.22 122.81 140.09 122.36 Z M 140.96 122.04 L 141.85 121.60 C 142.79 121.13 143.17 119.99 142.70 119.05 C 142.24 118.11 141.10 117.73 140.16 118.20 L 139.26 118.64 C 138.33 119.11 137.94 120.25 138.41 121.19 C 138.88 122.13 140.02 122.51 140.96 122.04 Z M 141.85 121.70 L 142.77 121.26 C 143.76 120.80 144.19 119.61 143.72 118.62 C 143.26 117.63 142.07 117.20 141.08 117.67 L 140.16 118.10 C 139.17 118.57 138.74 119.75 139.21 120.74 C 139.67 121.74 140.86 122.16 141.85 121.70 Z M 142.75 121.30 L 143.60 120.92 C 144.61 120.46 145.06 119.27 144.61 118.26 C 144.15 117.25 142.96 116.79 141.95 117.25 L 141.10 117.63 C 140.09 118.09 139.64 119.28 140.09 120.29 C 140.55 121.30 141.74 121.75 142.75 121.30 Z M 143.58 120.90 L 144.51 120.49 C 145.51 120.04 145.97 118.87 145.52 117.86 C 145.07 116.86 143.89 116.40 142.89 116.85 L 141.96 117.26 C 140.96 117.71 140.51 118.89 140.95 119.89 C 141.40 120.90 142.58 121.35 143.58 120.90 Z M 144.51 120.47 L 145.50 120.03 C 146.49 119.58 146.93 118.41 146.48 117.41 C 146.03 116.42 144.86 115.98 143.87 116.43 L 142.89 116.87 C 141.89 117.32 141.45 118.49 141.90 119.48 C 142.35 120.48 143.52 120.92 144.51 120.47 Z M 145.51 120.00 L 146.46 119.56 C 147.44 119.10 147.87 117.94 147.41 116.96 C 146.95 115.98 145.79 115.55 144.81 116.01 L 143.86 116.45 C 142.88 116.91 142.45 118.07 142.91 119.05 C 143.36 120.03 144.53 120.46 145.51 120.00 Z M 146.47 119.54 L 147.42 119.08 C 148.38 118.62 148.79 117.46 148.33 116.49 C 147.87 115.53 146.71 115.12 145.74 115.58 L 144.80 116.03 C 143.83 116.49 143.42 117.65 143.88 118.62 C 144.35 119.59 145.51 120.00 146.47 119.54 Z M 147.43 119.06 L 148.33 118.62 C 149.29 118.15 149.68 117.00 149.21 116.04 C 148.74 115.09 147.59 114.69 146.63 115.16 L 145.73 115.60 C 144.77 116.07 144.38 117.22 144.85 118.18 C 145.32 119.14 146.47 119.53 147.43 119.06 Z M 148.34 118.60 L 149.17 118.18 C 150.11 117.71 150.49 116.56 150.02 115.62 C 149.55 114.67 148.40 114.29 147.45 114.77 L 146.63 115.18 C 145.68 115.65 145.30 116.80 145.77 117.75 C 146.25 118.69 147.40 119.07 148.34 118.60 Z M 149.18 118.15 L 150.16 117.65 C 151.09 117.17 151.45 116.03 150.97 115.10 C 150.49 114.17 149.35 113.81 148.42 114.29 L 147.44 114.79 C 146.51 115.27 146.15 116.42 146.63 117.34 C 147.11 118.27 148.25 118.63 149.18 118.15 Z M 150.18 117.61 L 151.02 117.15 C 151.93 116.66 152.27 115.53 151.78 114.62 C 151.29 113.72 150.16 113.38 149.25 113.87 L 148.40 114.33 C 147.49 114.82 147.16 115.95 147.65 116.86 C 148.14 117.76 149.27 118.10 150.18 117.61 Z M 151.04 117.12 L 151.84 116.67 C 152.73 116.17 153.04 115.05 152.54 114.16 C 152.05 113.27 150.92 112.96 150.04 113.45 L 149.23 113.90 C 148.35 114.40 148.03 115.53 148.53 116.41 C 149.03 117.30 150.15 117.62 151.04 117.12 Z M 151.84 116.65 L 152.69 116.16 C 153.57 115.66 153.87 114.54 153.37 113.67 C 152.87 112.79 151.75 112.49 150.87 112.99 L 150.03 113.48 C 149.15 113.98 148.85 115.09 149.35 115.97 C 149.85 116.84 150.97 117.15 151.84 116.65 Z M 152.69 116.15 L 153.57 115.64 C 154.44 115.14 154.73 114.03 154.24 113.17 C 153.74 112.30 152.63 112.00 151.76 112.50 L 150.88 113.00 C 150.01 113.50 149.71 114.61 150.21 115.48 C 150.71 116.35 151.82 116.65 152.69 116.15 Z M 153.55 115.64 L 154.43 115.14 C 155.30 114.65 155.60 113.55 155.11 112.68 C 154.62 111.82 153.52 111.51 152.65 112.00 L 151.77 112.50 C 150.91 112.99 150.60 114.09 151.10 114.96 C 151.59 115.83 152.69 116.13 153.55 115.64 Z M 154.42 115.14 L 155.29 114.65 C 156.15 114.17 156.46 113.07 155.98 112.21 C 155.50 111.35 154.41 111.04 153.54 111.52 L 152.67 112.01 C 151.80 112.49 151.49 113.58 151.98 114.45 C 152.46 115.31 153.55 115.62 154.42 115.14 Z M 155.28 114.64 L 156.16 114.16 C 157.02 113.68 157.33 112.60 156.86 111.74 C 156.38 110.87 155.30 110.56 154.44 111.04 L 153.55 111.52 C 152.69 112.00 152.38 113.08 152.85 113.94 C 153.33 114.81 154.41 115.12 155.28 114.64 Z M 156.15 114.15 L 157.03 113.67 C 157.89 113.20 158.21 112.12 157.74 111.26 C 157.27 110.40 156.19 110.09 155.33 110.56 L 154.45 111.04 C 153.59 111.51 153.27 112.59 153.74 113.45 C 154.21 114.31 155.29 114.62 156.15 114.15 Z M 157.02 113.66 L 157.90 113.19 C 158.76 112.72 159.08 111.65 158.62 110.80 C 158.15 109.94 157.08 109.62 156.23 110.08 L 155.34 110.56 C 154.49 111.02 154.17 112.09 154.63 112.95 C 155.09 113.81 156.17 114.13 157.02 113.66 Z M 157.89 113.19 L 158.76 112.72 C 159.62 112.27 159.95 111.20 159.49 110.35 C 159.04 109.49 157.97 109.16 157.12 109.62 L 156.24 110.08 C 155.38 110.54 155.06 111.60 155.51 112.46 C 155.97 113.32 157.03 113.64 157.89 113.19 Z M 158.74 112.73 L 159.64 112.26 C 160.50 111.82 160.84 110.76 160.40 109.90 C 159.95 109.04 158.89 108.71 158.03 109.15 L 157.14 109.61 C 156.28 110.06 155.94 111.12 156.38 111.98 C 156.83 112.84 157.88 113.17 158.74 112.73 Z M 159.61 112.28 L 160.51 111.83 C 161.38 111.41 161.74 110.36 161.31 109.49 C 160.88 108.62 159.83 108.26 158.96 108.69 L 158.06 109.14 C 157.20 109.56 156.84 110.62 157.27 111.48 C 157.70 112.35 158.75 112.71 159.61 112.28 Z M 160.47 111.85 L 161.37 111.44 C 162.25 111.03 162.63 109.99 162.23 109.12 C 161.82 108.24 160.78 107.85 159.90 108.26 L 159.00 108.67 C 158.13 109.08 157.74 110.12 158.15 111.00 C 158.55 111.87 159.59 112.26 160.47 111.85 Z M 161.32 111.46 L 162.26 111.07 C 163.15 110.69 163.57 109.66 163.19 108.77 C 162.82 107.88 161.79 107.46 160.90 107.84 L 159.96 108.23 C 159.07 108.61 158.65 109.64 159.02 110.53 C 159.40 111.42 160.42 111.84 161.32 111.46 Z M 162.21 111.08 L 163.13 110.73 C 164.03 110.37 164.48 109.36 164.13 108.46 C 163.78 107.56 162.76 107.11 161.86 107.46 L 160.94 107.82 C 160.04 108.17 159.59 109.19 159.95 110.09 C 160.30 110.99 161.31 111.44 162.21 111.08 Z M 163.10 110.74 L 163.95 110.43 C 164.86 110.09 165.32 109.09 164.99 108.18 C 164.66 107.27 163.65 106.80 162.74 107.14 L 161.89 107.45 C 160.98 107.78 160.52 108.79 160.85 109.70 C 161.19 110.61 162.19 111.07 163.10 110.74 Z M 163.86 110.46 L 164.74 110.19 C 165.67 109.91 166.19 108.92 165.91 107.99 C 165.62 107.07 164.64 106.55 163.71 106.83 L 162.83 107.10 C 161.90 107.39 161.38 108.37 161.66 109.30 C 161.95 110.23 162.93 110.75 163.86 110.46 Z M 164.59 110.24 L 165.67 110.01 C 166.63 109.81 167.24 108.88 167.04 107.93 C 166.84 106.97 165.91 106.36 164.95 106.56 L 163.87 106.78 C 162.91 106.98 162.30 107.92 162.50 108.87 C 162.70 109.83 163.63 110.44 164.59 110.24 Z M 165.53 110.05 L 166.55 109.92 C 167.52 109.80 168.21 108.91 168.09 107.94 C 167.97 106.96 167.08 106.27 166.10 106.39 L 165.09 106.52 C 164.12 106.64 163.43 107.53 163.55 108.51 C 163.67 109.48 164.56 110.17 165.53 110.05 Z M 166.42 109.95 L 167.46 109.89 C 168.45 109.84 169.21 108.99 169.16 108.00 C 169.10 107.01 168.26 106.26 167.27 106.31 L 166.23 106.37 C 165.24 106.42 164.48 107.26 164.53 108.25 C 164.59 109.24 165.43 110.00 166.42 109.95 Z M 167.29 109.91 L 168.33 109.96 C 169.34 110.00 170.18 109.22 170.22 108.22 C 170.26 107.22 169.48 106.37 168.48 106.33 L 167.44 106.29 C 166.44 106.25 165.59 107.03 165.55 108.03 C 165.51 109.03 166.29 109.87 167.29 109.91 Z M 168.07 109.95 L 169.01 110.12 C 170.01 110.31 170.97 109.66 171.16 108.66 C 171.34 107.67 170.69 106.71 169.69 106.52 L 168.75 106.34 C 167.75 106.15 166.79 106.81 166.61 107.80 C 166.42 108.80 167.07 109.76 168.07 109.95 Z M 168.53 109.98 L 169.46 110.45 C 170.38 110.90 171.49 110.53 171.95 109.61 C 172.40 108.70 172.03 107.58 171.12 107.13 L 170.18 106.66 C 169.26 106.20 168.15 106.58 167.69 107.49 C 167.24 108.41 167.61 109.53 168.53 109.98 Z M 168.92 110.07 L 169.60 110.80 C 170.30 111.55 171.49 111.59 172.25 110.89 C 173.01 110.18 173.05 108.99 172.34 108.23 L 171.66 107.50 C 170.95 106.75 169.76 106.71 169.00 107.42 C 168.25 108.12 168.21 109.31 168.92 110.07 Z M 169.28 110.39 L 169.71 111.22 C 170.20 112.15 171.35 112.52 172.28 112.03 C 173.21 111.55 173.57 110.40 173.09 109.46 L 172.66 108.63 C 172.17 107.70 171.02 107.34 170.09 107.82 C 169.16 108.31 168.79 109.46 169.28 110.39 Z M 169.56 110.93 L 169.87 111.89 C 170.19 112.90 171.28 113.46 172.29 113.14 C 173.31 112.81 173.86 111.73 173.54 110.72 L 173.23 109.76 C 172.91 108.74 171.83 108.18 170.81 108.51 C 169.80 108.83 169.24 109.92 169.56 110.93 Z M 169.79 111.64 L 169.96 112.60 C 170.14 113.66 171.15 114.37 172.21 114.18 C 173.27 114.00 173.98 112.99 173.79 111.93 L 173.62 110.97 C 173.44 109.91 172.43 109.20 171.37 109.39 C 170.31 109.57 169.60 110.58 169.79 111.64 Z M 169.92 112.44 L 170.00 113.40 C 170.10 114.48 171.05 115.28 172.13 115.18 C 173.21 115.09 174.01 114.14 173.92 113.05 L 173.83 112.09 C 173.74 111.01 172.78 110.21 171.70 110.31 C 170.62 110.41 169.82 111.36 169.92 112.44 Z M 169.99 113.33 L 170.04 114.31 C 170.10 115.40 171.03 116.24 172.12 116.18 C 173.21 116.12 174.04 115.19 173.99 114.10 L 173.93 113.12 C 173.88 112.03 172.94 111.20 171.85 111.25 C 170.76 111.31 169.93 112.24 169.99 113.33 Z M 170.03 114.28 L 170.07 115.31 C 170.11 116.41 171.03 117.26 172.13 117.22 C 173.22 117.18 174.08 116.26 174.04 115.16 L 174.00 114.13 C 173.96 113.04 173.03 112.18 171.94 112.22 C 170.84 112.26 169.99 113.18 170.03 114.28 Z M 170.05 115.30 L 170.08 116.30 C 170.12 117.41 171.04 118.27 172.15 118.24 C 173.25 118.20 174.12 117.28 174.08 116.17 L 174.05 115.17 C 174.01 114.07 173.09 113.20 171.99 113.24 C 170.88 113.27 170.02 114.20 170.05 115.30 Z M 170.07 116.29 L 170.09 117.30 C 170.13 118.41 171.05 119.29 172.17 119.26 C 173.28 119.23 174.16 118.30 174.13 117.19 L 174.10 116.18 C 174.07 115.07 173.14 114.19 172.03 114.22 C 170.91 114.25 170.03 115.18 170.07 116.29 Z M 170.07 117.28 L 170.09 118.29 C 170.12 119.41 171.05 120.31 172.17 120.28 C 173.30 120.26 174.19 119.33 174.17 118.20 L 174.15 117.20 C 174.13 116.07 173.20 115.18 172.07 115.20 C 170.94 115.23 170.05 116.16 170.07 117.28 Z M 170.08 118.27 L 170.09 119.28 C 170.10 120.41 171.03 121.32 172.16 121.31 C 173.30 121.30 174.21 120.37 174.20 119.23 L 174.19 118.22 C 174.18 117.09 173.25 116.18 172.11 116.19 C 170.98 116.20 170.07 117.13 170.08 118.27 Z M 170.07 119.26 L 170.08 120.26 C 170.08 121.40 171.01 122.32 172.15 122.32 C 173.30 122.32 174.22 121.39 174.22 120.24 L 174.21 119.25 C 174.21 118.10 173.28 117.18 172.14 117.18 C 170.99 117.19 170.07 118.12 170.07 119.26 Z M 170.06 120.25 L 170.06 121.23 C 170.06 122.38 171.00 123.32 172.15 123.32 C 173.30 123.32 174.23 122.38 174.23 121.23 L 174.23 120.25 C 174.23 119.10 173.30 118.16 172.15 118.16 C 170.99 118.16 170.06 119.10 170.06 120.25 Z M 170.05 121.23 L 170.05 122.21 C 170.05 123.37 170.99 124.30 172.15 124.30 C 173.30 124.30 174.24 123.37 174.24 122.21 L 174.24 121.23 C 174.24 120.07 173.30 119.13 172.15 119.13 C 170.99 119.13 170.05 120.07 170.05 121.23 Z M 170.04 122.21 L 170.04 123.22 C 170.04 124.39 170.98 125.33 172.15 125.33 C 173.31 125.33 174.25 124.39 174.25 123.22 L 174.25 122.21 C 174.25 121.04 173.31 120.10 172.15 120.10 C 170.98 120.10 170.04 121.04 170.04 122.21 Z M 170.03 123.22 L 170.03 124.20 C 170.03 125.37 170.98 126.32 172.15 126.32 C 173.32 126.32 174.26 125.37 174.26 124.20 L 174.26 123.22 C 174.26 122.05 173.32 121.10 172.15 121.10 C 170.98 121.10 170.03 122.05 170.03 123.22 Z M 170.02 124.20 L 170.02 125.17 C 170.02 126.35 170.97 127.30 172.15 127.30 C 173.32 127.30 174.27 126.35 174.27 125.17 L 174.27 124.20 C 174.27 123.03 173.32 122.08 172.15 122.08 C 170.97 122.08 170.02 123.03 170.02 124.20 Z M 170.01 125.17 L 170.01 126.19 C 170.01 127.37 170.97 128.33 172.15 128.33 C 173.33 128.33 174.28 127.37 174.28 126.19 L 174.28 125.17 C 174.28 123.99 173.33 123.04 172.15 123.04 C 170.97 123.04 170.01 123.99 170.01 125.17 Z M 170.00 126.19 L 170.00 127.22 C 170.00 128.40 170.96 129.36 172.15 129.36 C 173.33 129.36 174.29 128.40 174.29 127.22 L 174.29 126.19 C 174.29 125.01 173.33 124.05 172.15 124.05 C 170.96 124.05 170.00 125.01 170.00 126.19 Z M 170.00 127.22 L 170.00 128.16 C 170.00 129.35 170.96 130.31 172.15 130.31 C 173.33 130.31 174.30 129.35 174.30 128.16 L 174.30 127.22 C 174.30 126.03 173.33 125.07 172.15 125.07 C 170.96 125.07 170.00 126.03 170.00 127.22 Z M 169.99 128.16 L 169.99 129.15 C 169.99 130.34 170.96 131.31 172.15 131.31 C 173.34 131.31 174.30 130.34 174.30 129.15 L 174.30 128.16 C 174.30 126.97 173.34 126.01 172.15 126.01 C 170.96 126.01 169.99 126.97 169.99 128.16 Z M 169.98 129.15 L 169.98 130.19 C 169.98 131.39 170.95 132.36 172.15 132.36 C 173.34 132.36 174.31 131.39 174.31 130.19 L 174.31 129.15 C 174.31 127.96 173.34 126.99 172.15 126.99 C 170.95 126.99 169.98 127.96 169.98 129.15 Z M 169.98 130.19 L 169.98 131.21 C 169.98 132.41 170.95 133.38 172.15 133.38 C 173.34 133.38 174.31 132.41 174.31 131.21 L 174.31 130.19 C 174.31 129.00 173.34 128.03 172.15 128.03 C 170.95 128.03 169.98 129.00 169.98 130.19 Z M 169.97 131.21 L 169.97 132.15 C 169.97 133.35 170.95 134.32 172.15 134.32 C 173.35 134.32 174.32 133.35 174.32 132.15 L 174.32 131.21 C 174.32 130.01 173.35 129.04 172.15 129.04 C 170.95 129.04 169.97 130.01 169.97 131.21 Z M 169.97 132.15 L 169.97 133.12 C 169.97 134.32 170.94 135.30 172.15 135.30 C 173.35 135.30 174.32 134.32 174.32 133.12 L 174.32 132.15 C 174.32 130.94 173.35 129.97 172.15 129.97 C 170.94 129.97 169.97 130.94 169.97 132.15 Z M 169.97 133.12 L 169.97 134.14 C 169.97 135.34 170.94 136.32 172.15 136.32 C 173.35 136.32 174.33 135.34 174.33 134.14 L 174.33 133.12 C 174.33 131.92 173.35 130.94 172.15 130.94 C 170.94 130.94 169.97 131.92 169.97 133.12 Z M 169.96 134.14 L 169.96 135.21 C 169.96 136.41 170.94 137.39 172.15 137.39 C 173.35 137.39 174.33 136.41 174.33 135.21 L 174.33 134.14 C 174.33 132.93 173.35 131.95 172.15 131.95 C 170.94 131.95 169.96 132.93 169.96 134.14 Z M 169.96 135.21 L 169.96 136.22 C 169.96 137.43 170.94 138.41 172.15 138.41 C 173.36 138.41 174.34 137.43 174.34 136.22 L 174.34 135.21 C 174.34 134.00 173.36 133.02 172.15 133.02 C 170.94 133.02 169.96 134.00 169.96 135.21 Z M 169.95 136.22 L 169.95 137.20 C 169.95 138.41 170.94 139.39 172.15 139.39 C 173.36 139.39 174.34 138.41 174.34 137.20 L 174.34 136.22 C 174.34 135.01 173.36 134.03 172.15 134.03 C 170.94 134.03 169.95 135.01 169.95 136.22 Z M 169.95 137.20 L 169.95 138.20 C 169.95 139.41 170.93 140.40 172.15 140.40 C 173.36 140.40 174.34 139.41 174.34 138.20 L 174.34 137.20 C 174.34 135.99 173.36 135.00 172.15 135.00 C 170.93 135.00 169.95 135.99 169.95 137.20 Z M 169.95 138.20 L 169.95 139.22 C 169.95 140.43 170.93 141.41 172.15 141.41 C 173.36 141.41 174.35 140.43 174.35 139.22 L 174.35 138.20 C 174.35 136.99 173.36 136.00 172.15 136.00 C 170.93 136.00 169.95 136.99 169.95 138.20 Z M 169.94 139.22 L 169.94 140.23 C 169.94 141.45 170.93 142.44 172.15 142.44 C 173.36 142.44 174.35 141.45 174.35 140.23 L 174.35 139.22 C 174.35 138.00 173.36 137.01 172.15 137.01 C 170.93 137.01 169.94 138.00 169.94 139.22 Z M 169.94 140.23 L 169.94 141.24 C 169.94 142.46 170.93 143.45 172.15 143.45 C 173.37 143.45 174.35 142.46 174.35 141.24 L 174.35 140.23 C 174.35 139.01 173.37 138.03 172.15 138.03 C 170.93 138.03 169.94 139.01 169.94 140.23 Z M 169.94 141.24 L 169.94 142.27 C 169.94 143.49 170.93 144.48 172.15 144.48 C 173.37 144.48 174.36 143.49 174.36 142.27 L 174.36 141.24 C 174.36 140.02 173.37 139.04 172.15 139.04 C 170.93 139.04 169.94 140.02 169.94 141.24 Z M 169.94 142.27 L 169.94 143.28 C 169.94 144.51 170.93 145.50 172.15 145.50 C 173.37 145.50 174.36 144.51 174.36 143.28 L 174.36 142.27 C 174.36 141.05 173.37 140.06 172.15 140.06 C 170.93 140.06 169.94 141.05 169.94 142.27 Z M 169.93 143.28 L 169.93 144.28 C 169.93 145.51 170.92 146.50 172.15 146.50 C 173.37 146.50 174.36 145.51 174.36 144.28 L 174.36 143.28 C 174.36 142.06 173.37 141.07 172.15 141.07 C 170.92 141.07 169.93 142.06 169.93 143.28 Z M 169.93 144.28 L 169.93 145.27 C 169.93 146.50 170.92 147.49 172.15 147.49 C 173.37 147.49 174.36 146.50 174.36 145.27 L 174.36 144.28 C 174.36 143.06 173.37 142.07 172.15 142.07 C 170.92 142.07 169.93 143.06 169.93 144.28 Z M 169.93 145.27 L 169.93 146.26 C 169.93 147.48 170.92 148.47 172.15 148.47 C 173.37 148.47 174.36 147.48 174.36 146.26 L 174.36 145.27 C 174.36 144.05 173.37 143.06 172.15 143.06 C 170.92 143.06 169.93 144.05 169.93 145.27 Z M 169.93 146.26 L 169.93 147.26 C 169.93 148.48 170.92 149.48 172.15 149.48 C 173.37 149.48 174.37 148.48 174.37 147.26 L 174.37 146.26 C 174.37 145.03 173.37 144.04 172.15 144.04 C 170.92 144.04 169.93 145.03 169.93 146.26 Z M 169.93 147.26 L 169.93 148.27 C 169.93 149.50 170.92 150.49 172.15 150.49 C 173.37 150.49 174.37 149.50 174.37 148.27 L 174.37 147.25 C 174.37 146.03 173.37 145.03 172.15 145.03 C 170.92 145.04 169.93 146.03 169.93 147.26 Z M 169.93 148.27 L 169.93 149.28 C 169.93 150.51 170.93 151.50 172.15 151.50 C 173.38 151.50 174.37 150.50 174.37 149.27 L 174.37 148.27 C 174.37 147.04 173.37 146.05 172.14 146.05 C 170.92 146.05 169.92 147.05 169.93 148.27 Z M 169.93 149.28 L 169.93 150.28 C 169.93 151.51 170.93 152.50 172.16 152.49 C 173.39 152.49 174.38 151.49 174.37 150.26 L 174.37 149.27 C 174.37 148.04 173.37 147.05 172.14 147.05 C 170.91 147.06 169.92 148.06 169.93 149.28 Z M 169.93 150.29 L 169.94 151.27 C 169.94 152.50 170.94 153.49 172.17 153.48 C 173.40 153.47 174.39 152.47 174.38 151.24 L 174.38 150.26 C 174.37 149.03 173.37 148.04 172.14 148.05 C 170.91 148.06 169.92 149.06 169.93 150.29 Z M 169.93 151.28 L 169.94 152.27 C 169.96 153.50 170.96 154.49 172.19 154.47 C 173.42 154.46 174.40 153.46 174.39 152.23 L 174.38 151.24 C 174.37 150.01 173.36 149.02 172.14 149.04 C 170.91 149.05 169.92 150.05 169.93 151.28 Z M 169.94 152.28 L 169.96 153.29 C 169.98 154.52 170.99 155.50 172.22 155.49 C 173.44 155.47 174.43 154.46 174.41 153.23 L 174.39 152.22 C 174.37 150.99 173.36 150.01 172.14 150.03 C 170.91 150.04 169.93 151.05 169.94 152.28 Z M 169.96 153.30 L 169.98 154.31 C 170.00 155.53 171.02 156.51 172.25 156.49 C 173.48 156.46 174.45 155.45 174.43 154.22 L 174.41 153.22 C 174.38 151.99 173.37 151.01 172.14 151.04 C 170.91 151.06 169.93 152.08 169.96 153.30 Z M 169.98 154.32 L 170.00 155.31 C 170.03 156.54 171.06 157.51 172.29 157.48 C 173.51 157.45 174.49 156.43 174.45 155.20 L 174.43 154.20 C 174.40 152.98 173.37 152.01 172.15 152.04 C 170.92 152.07 169.95 153.09 169.98 154.32 Z M 170.00 155.33 L 170.03 156.32 C 170.07 157.55 171.10 158.51 172.33 158.47 C 173.56 158.43 174.53 157.41 174.49 156.18 L 174.45 155.19 C 174.41 153.96 173.39 152.99 172.16 153.03 C 170.93 153.07 169.96 154.10 170.00 155.33 Z M 170.04 156.34 L 170.07 157.33 C 170.12 158.56 171.16 159.52 172.39 159.47 C 173.62 159.42 174.57 158.38 174.52 157.16 L 174.49 156.16 C 174.44 154.93 173.40 153.98 172.17 154.02 C 170.94 154.07 169.99 155.11 170.04 156.34 Z M 170.08 157.34 L 170.12 158.34 C 170.18 159.57 171.22 160.52 172.45 160.46 C 173.68 160.41 174.63 159.37 174.57 158.14 L 174.52 157.14 C 174.47 155.91 173.43 154.96 172.20 155.02 C 170.97 155.07 170.02 156.12 170.08 157.34 Z M 170.12 158.36 L 170.17 159.36 C 170.24 160.58 171.29 161.53 172.51 161.46 C 173.74 161.40 174.68 160.35 174.62 159.12 L 174.57 158.12 C 174.50 156.90 173.46 155.95 172.23 156.02 C 171.00 156.08 170.06 157.13 170.12 158.36 Z M 170.18 159.37 L 170.23 160.37 C 170.31 161.59 171.36 162.53 172.58 162.46 C 173.81 162.39 174.75 161.34 174.68 160.11 L 174.62 159.11 C 174.55 157.88 173.50 156.95 172.27 157.02 C 171.04 157.09 170.11 158.14 170.18 159.37 Z M 170.24 160.38 L 170.30 161.38 C 170.38 162.60 171.43 163.53 172.66 163.46 C 173.88 163.38 174.81 162.32 174.74 161.10 L 174.67 160.10 C 174.60 158.87 173.54 157.94 172.32 158.02 C 171.09 158.10 170.16 159.15 170.24 160.38 Z M 170.30 161.39 L 170.37 162.37 C 170.45 163.60 171.51 164.53 172.73 164.44 C 173.96 164.36 174.88 163.30 174.80 162.08 L 174.74 161.09 C 174.65 159.86 173.59 158.94 172.37 159.02 C 171.14 159.10 170.22 160.16 170.30 161.39 Z M 170.37 162.38 L 170.44 163.36 C 170.52 164.59 171.58 165.51 172.81 165.42 C 174.03 165.34 174.96 164.28 174.87 163.05 L 174.80 162.07 C 174.71 160.85 173.65 159.92 172.43 160.01 C 171.20 160.10 170.28 161.16 170.37 162.38 Z M 170.44 163.37 L 170.51 164.35 C 170.60 165.58 171.66 166.50 172.88 166.41 C 174.11 166.32 175.03 165.26 174.94 164.03 L 174.87 163.05 C 174.78 161.82 173.72 160.90 172.49 160.99 C 171.27 161.08 170.35 162.14 170.44 163.37 Z M 170.51 164.36 L 170.58 165.35 C 170.67 166.58 171.74 167.50 172.96 167.41 C 174.18 167.32 175.10 166.25 175.01 165.03 L 174.94 164.03 C 174.85 162.81 173.78 161.89 172.56 161.98 C 171.34 162.07 170.42 163.13 170.51 164.36 Z M 170.58 165.35 L 170.66 166.37 C 170.75 167.59 171.81 168.51 173.03 168.42 C 174.26 168.33 175.17 167.27 175.08 166.04 L 175.01 165.03 C 174.92 163.81 173.86 162.89 172.64 162.98 C 171.41 163.07 170.49 164.13 170.58 165.35 Z M 170.66 166.37 L 170.73 167.39 C 170.82 168.61 171.88 169.53 173.10 169.44 C 174.33 169.35 175.24 168.29 175.16 167.07 L 175.08 166.05 C 174.99 164.82 173.93 163.91 172.71 163.99 C 171.49 164.08 170.57 165.14 170.66 166.37 Z M 170.74 167.38 L 170.81 168.41 C 170.90 169.63 171.96 170.54 173.17 170.46 C 174.39 170.37 175.31 169.31 175.22 168.09 L 175.15 167.07 C 175.07 165.85 174.01 164.94 172.79 165.02 C 171.57 165.11 170.65 166.17 170.74 167.38 Z M 170.82 168.40 L 170.89 169.43 C 170.97 170.64 172.03 171.56 173.24 171.47 C 174.46 171.39 175.37 170.33 175.29 169.12 L 175.22 168.10 C 175.13 166.88 174.08 165.97 172.86 166.05 C 171.65 166.14 170.73 167.19 170.82 168.40 Z M 170.90 169.43 L 170.97 170.43 C 171.05 171.64 172.10 172.56 173.31 172.47 C 174.52 172.39 175.44 171.34 175.35 170.13 L 175.28 169.12 C 175.20 167.91 174.15 167.00 172.94 167.08 C 171.73 167.16 170.81 168.21 170.90 169.43 Z M 170.97 170.43 L 171.04 171.41 C 171.12 172.62 172.17 173.53 173.38 173.44 C 174.59 173.36 175.50 172.31 175.41 171.11 L 175.35 170.13 C 175.26 168.92 174.22 168.01 173.01 168.09 C 171.80 168.18 170.89 169.22 170.97 170.43 Z M 171.05 171.41 L 171.11 172.40 C 171.20 173.60 172.24 174.51 173.45 174.42 C 174.65 174.34 175.56 173.30 175.48 172.09 L 175.41 171.10 C 175.32 169.90 174.28 168.99 173.07 169.08 C 171.87 169.16 170.96 170.20 171.05 171.41 Z M 171.12 172.40 L 171.20 173.48 C 171.28 174.68 172.33 175.58 173.53 175.50 C 174.73 175.41 175.63 174.37 175.54 173.17 L 175.47 172.09 C 175.38 170.89 174.34 169.99 173.14 170.07 C 171.94 170.16 171.04 171.20 171.12 172.40 Z M 171.21 173.48 L 171.28 174.49 C 171.37 175.68 172.41 176.58 173.60 176.49 C 174.80 176.41 175.69 175.37 175.61 174.18 L 175.53 173.17 C 175.45 171.97 174.41 171.07 173.22 171.16 C 172.02 171.25 171.12 172.29 171.21 173.48 Z M 171.29 174.49 L 171.36 175.44 C 171.45 176.63 172.49 177.52 173.67 177.43 C 174.86 177.35 175.76 176.31 175.67 175.12 L 175.60 174.17 C 175.51 172.98 174.47 172.09 173.29 172.18 C 172.10 172.27 171.20 173.30 171.29 174.49 Z M 171.37 175.45 L 171.44 176.36 C 171.53 177.55 172.57 178.43 173.75 178.34 C 174.93 178.25 175.82 177.22 175.73 176.04 L 175.66 175.12 C 175.57 173.93 174.53 173.05 173.35 173.14 C 172.17 173.23 171.28 174.26 171.37 175.45 Z M 171.46 176.37 L 171.54 177.36 C 171.63 178.53 172.66 179.41 173.84 179.31 C 175.01 179.22 175.89 178.19 175.79 177.02 L 175.71 176.03 C 175.62 174.85 174.59 173.98 173.41 174.07 C 172.24 174.17 171.36 175.20 171.46 176.37 Z M 171.56 177.38 L 171.65 178.36 C 171.75 179.52 172.78 180.38 173.94 180.27 C 175.11 180.17 175.96 179.14 175.86 177.98 L 175.77 177.00 C 175.67 175.84 174.64 174.98 173.48 175.08 C 172.31 175.19 171.46 176.21 171.56 177.38 Z M 171.67 178.38 L 171.78 179.38 C 171.90 180.53 172.92 181.37 174.07 181.25 C 175.22 181.13 176.06 180.10 175.94 178.95 L 175.84 177.95 C 175.72 176.80 174.69 175.96 173.54 176.08 C 172.39 176.20 171.55 177.23 171.67 178.38 Z M 171.80 179.42 L 171.93 180.46 C 172.07 181.60 173.10 182.40 174.24 182.27 C 175.37 182.13 176.18 181.09 176.04 179.96 L 175.91 178.91 C 175.78 177.78 174.74 176.97 173.60 177.11 C 172.47 177.25 171.66 178.28 171.80 179.42 Z M 171.96 180.52 L 172.12 181.59 C 172.30 182.70 173.34 183.47 174.46 183.30 C 175.58 183.13 176.35 182.08 176.18 180.96 L 176.01 179.89 C 175.84 178.78 174.79 178.01 173.67 178.18 C 172.55 178.35 171.79 179.40 171.96 180.52 Z M 172.17 181.71 L 172.39 182.71 C 172.63 183.80 173.71 184.50 174.80 184.26 C 175.90 184.02 176.59 182.94 176.35 181.84 L 176.13 180.84 C 175.89 179.74 174.81 179.05 173.72 179.29 C 172.62 179.53 171.93 180.61 172.17 181.71 Z M 172.47 182.93 L 172.77 183.78 C 173.13 184.83 174.27 185.39 175.32 185.03 C 176.36 184.67 176.92 183.53 176.56 182.48 L 176.26 181.62 C 175.90 180.58 174.76 180.02 173.72 180.38 C 172.67 180.74 172.11 181.88 172.47 182.93 Z M 173.05 184.24 L 173.64 185.08 C 174.25 185.97 175.46 186.20 176.35 185.59 C 177.24 184.98 177.47 183.76 176.85 182.87 L 176.27 182.03 C 175.66 181.14 174.45 180.91 173.56 181.52 C 172.67 182.13 172.44 183.35 173.05 184.24 Z M 174.21 185.53 L 175.00 186.05 C 175.85 186.63 177.01 186.40 177.58 185.54 C 178.15 184.69 177.93 183.53 177.07 182.96 L 176.28 182.43 C 175.43 181.86 174.27 182.09 173.70 182.94 C 173.12 183.80 173.35 184.95 174.21 185.53 Z M 175.30 186.14 L 175.78 186.35 C 176.68 186.75 177.74 186.35 178.14 185.45 C 178.54 184.55 178.14 183.49 177.24 183.09 L 176.76 182.87 C 175.86 182.47 174.80 182.87 174.40 183.78 C 174.00 184.68 174.40 185.73 175.30 186.14 Z"
      fill="black"
      fill-rule="nonzero" /><path d="M 142.25 128.41 L 142.80 129.24 C 143.31 130.00 144.34 130.21 145.11 129.71 C 145.87 129.20 146.08 128.17 145.57 127.40 L 145.02 126.57 C 144.51 125.80 143.48 125.59 142.72 126.10 C 141.95 126.61 141.74 127.64 142.25 128.41 Z M 142.83 129.25 L 143.40 130.08 C 143.91 130.83 144.94 131.02 145.69 130.50 C 146.44 129.99 146.63 128.96 146.11 128.21 L 145.55 127.38 C 145.03 126.63 144.00 126.44 143.25 126.96 C 142.50 127.48 142.31 128.50 142.83 129.25 Z M 143.44 130.14 L 144.11 131.03 C 144.66 131.76 145.69 131.90 146.42 131.35 C 147.15 130.80 147.29 129.77 146.75 129.04 L 146.08 128.15 C 145.53 127.42 144.49 127.28 143.76 127.82 C 143.03 128.37 142.89 129.41 143.44 130.14 Z M 144.31 131.29 L 145.03 131.94 C 145.73 132.55 146.79 132.49 147.41 131.80 C 148.03 131.10 147.96 130.04 147.27 129.42 L 146.54 128.78 C 145.85 128.16 144.79 128.22 144.17 128.92 C 143.55 129.61 143.61 130.67 144.31 131.29 Z M 146.48 132.36 L 147.17 132.22 C 148.10 132.04 148.70 131.14 148.52 130.21 C 148.34 129.29 147.44 128.68 146.51 128.86 L 145.82 129.00 C 144.89 129.18 144.29 130.08 144.47 131.01 C 144.65 131.94 145.55 132.54 146.48 132.36 Z M 148.34 131.40 L 148.87 130.47 C 149.34 129.64 149.05 128.59 148.22 128.12 C 147.40 127.65 146.34 127.93 145.87 128.76 L 145.34 129.69 C 144.87 130.52 145.16 131.57 145.99 132.04 C 146.82 132.51 147.87 132.23 148.34 131.40 Z M 149.06 130.02 L 149.30 129.01 C 149.53 128.08 148.95 127.14 148.02 126.92 C 147.09 126.69 146.15 127.27 145.93 128.20 L 145.68 129.21 C 145.46 130.14 146.03 131.08 146.96 131.30 C 147.90 131.53 148.83 130.95 149.06 130.02 Z M 149.33 128.97 L 149.54 127.99 C 149.74 127.04 149.13 126.11 148.18 125.91 C 147.23 125.71 146.30 126.32 146.10 127.26 L 145.90 128.24 C 145.70 129.19 146.30 130.12 147.25 130.32 C 148.20 130.52 149.13 129.91 149.33 128.97 Z M 149.44 128.34 L 149.81 127.50 C 150.20 126.60 149.79 125.56 148.89 125.17 C 148.00 124.78 146.95 125.19 146.56 126.08 L 146.20 126.92 C 145.80 127.81 146.21 128.86 147.11 129.25 C 148.01 129.64 149.05 129.23 149.44 128.34 Z M 149.54 127.95 L 150.16 127.24 C 150.80 126.49 150.71 125.36 149.96 124.72 C 149.21 124.08 148.08 124.16 147.44 124.91 L 146.83 125.63 C 146.19 126.38 146.27 127.51 147.02 128.15 C 147.77 128.79 148.90 128.70 149.54 127.95 Z M 149.89 127.50 L 150.78 126.82 C 151.57 126.22 151.72 125.09 151.11 124.30 C 150.51 123.51 149.38 123.36 148.59 123.97 L 147.71 124.65 C 146.92 125.25 146.77 126.38 147.37 127.17 C 147.97 127.96 149.10 128.11 149.89 127.50 Z M 150.63 126.94 L 151.46 126.43 C 152.31 125.91 152.58 124.79 152.06 123.94 C 151.54 123.09 150.43 122.82 149.58 123.34 L 148.74 123.85 C 147.89 124.37 147.62 125.49 148.14 126.34 C 148.66 127.19 149.78 127.46 150.63 126.94 Z M 151.38 126.48 L 152.29 125.99 C 153.17 125.51 153.50 124.42 153.03 123.54 C 152.56 122.66 151.47 122.33 150.59 122.80 L 149.67 123.29 C 148.79 123.76 148.46 124.86 148.93 125.74 C 149.40 126.62 150.50 126.95 151.38 126.48 Z M 152.22 126.03 L 153.13 125.59 C 154.03 125.16 154.41 124.09 153.99 123.18 C 153.56 122.28 152.48 121.90 151.58 122.33 L 150.66 122.76 C 149.76 123.19 149.38 124.27 149.81 125.17 C 150.24 126.07 151.31 126.45 152.22 126.03 Z M 153.03 125.63 L 154.03 125.23 C 154.95 124.86 155.40 123.81 155.02 122.88 C 154.65 121.96 153.60 121.51 152.68 121.89 L 151.68 122.29 C 150.76 122.66 150.31 123.71 150.68 124.63 C 151.05 125.56 152.10 126.00 153.03 125.63 Z M 153.86 125.27 L 154.81 124.99 C 155.76 124.71 156.30 123.72 156.02 122.77 C 155.74 121.82 154.74 121.28 153.80 121.56 L 152.84 121.84 C 151.90 122.12 151.36 123.12 151.64 124.06 C 151.92 125.01 152.91 125.55 153.86 125.27 Z M 154.60 125.02 L 155.50 124.87 C 156.47 124.70 157.12 123.79 156.95 122.82 C 156.79 121.86 155.87 121.21 154.91 121.37 L 154.00 121.53 C 153.04 121.69 152.39 122.61 152.56 123.58 C 152.72 124.54 153.64 125.19 154.60 125.02 Z M 155.23 124.88 L 156.28 124.87 C 157.26 124.86 158.04 124.06 158.03 123.09 C 158.01 122.11 157.22 121.33 156.24 121.35 L 155.18 121.36 C 154.21 121.37 153.43 122.17 153.44 123.14 C 153.45 124.12 154.25 124.90 155.23 124.88 Z M 155.55 124.71 L 156.37 125.08 C 157.26 125.48 158.30 125.08 158.69 124.20 C 159.09 123.31 158.69 122.27 157.81 121.87 L 156.98 121.50 C 156.10 121.11 155.06 121.50 154.66 122.39 C 154.26 123.28 154.66 124.32 155.55 124.71 Z M 155.51 124.22 L 155.87 124.98 C 156.28 125.85 157.32 126.23 158.19 125.81 C 159.07 125.40 159.44 124.36 159.03 123.49 L 158.67 122.73 C 158.26 121.86 157.21 121.49 156.34 121.90 C 155.47 122.31 155.10 123.35 155.51 124.22 Z M 155.72 124.29 L 155.75 125.34 C 155.79 126.30 156.58 127.05 157.54 127.01 C 158.49 126.98 159.24 126.18 159.21 125.23 L 159.17 124.18 C 159.14 123.23 158.34 122.48 157.39 122.51 C 156.44 122.54 155.69 123.34 155.72 124.29 Z M 155.80 124.96 L 155.60 126.02 C 155.42 126.95 156.03 127.85 156.96 128.02 C 157.89 128.20 158.78 127.59 158.96 126.66 L 159.16 125.61 C 159.34 124.68 158.73 123.78 157.80 123.60 C 156.87 123.43 155.98 124.04 155.80 124.96 Z M 155.67 125.80 L 155.34 126.75 C 155.04 127.64 155.52 128.61 156.41 128.91 C 157.30 129.21 158.27 128.73 158.57 127.84 L 158.89 126.89 C 159.19 126.00 158.72 125.03 157.82 124.73 C 156.93 124.43 155.97 124.90 155.67 125.80 Z M 155.40 126.62 L 155.00 127.55 C 154.62 128.41 155.02 129.40 155.88 129.78 C 156.73 130.15 157.73 129.76 158.11 128.90 L 158.51 127.98 C 158.89 127.12 158.49 126.12 157.63 125.74 C 156.78 125.37 155.78 125.76 155.40 126.62 Z M 155.04 127.46 L 154.58 128.37 C 154.16 129.20 154.49 130.22 155.33 130.64 C 156.16 131.07 157.18 130.73 157.60 129.90 L 158.06 128.99 C 158.48 128.15 158.15 127.14 157.32 126.71 C 156.48 126.29 155.47 126.63 155.04 127.46 Z M 154.62 128.30 L 154.12 129.17 C 153.66 129.98 153.94 131.02 154.75 131.48 C 155.56 131.95 156.59 131.66 157.06 130.85 L 157.56 129.98 C 158.02 129.17 157.74 128.13 156.93 127.67 C 156.12 127.20 155.09 127.48 154.62 128.30 Z M 154.17 129.09 L 153.64 129.90 C 153.13 130.69 153.36 131.73 154.14 132.24 C 154.93 132.75 155.98 132.53 156.49 131.74 L 157.01 130.94 C 157.52 130.15 157.30 129.10 156.51 128.59 C 155.73 128.08 154.68 128.31 154.17 129.09 Z M 153.69 129.82 L 153.13 130.60 C 152.58 131.35 152.75 132.42 153.51 132.97 C 154.26 133.52 155.33 133.35 155.88 132.59 L 156.44 131.82 C 156.99 131.06 156.82 130.00 156.06 129.45 C 155.30 128.90 154.24 129.06 153.69 129.82 Z M 153.17 130.53 L 152.55 131.30 C 151.97 132.04 152.09 133.11 152.82 133.70 C 153.56 134.29 154.63 134.17 155.22 133.43 L 155.84 132.66 C 156.43 131.92 156.30 130.85 155.57 130.26 C 154.83 129.67 153.76 129.79 153.17 130.53 Z M 152.58 131.25 L 151.90 132.05 C 151.29 132.77 151.37 133.85 152.09 134.46 C 152.81 135.08 153.90 134.99 154.51 134.27 L 155.19 133.48 C 155.81 132.76 155.72 131.68 155.00 131.06 C 154.28 130.45 153.20 130.53 152.58 131.25 Z M 151.93 132.00 L 151.25 132.75 C 150.61 133.46 150.67 134.55 151.38 135.19 C 152.09 135.83 153.18 135.77 153.82 135.06 L 154.49 134.32 C 155.13 133.61 155.07 132.52 154.37 131.88 C 153.66 131.24 152.56 131.30 151.93 132.00 Z M 151.29 132.68 L 150.58 133.41 C 149.90 134.10 149.91 135.20 150.60 135.88 C 151.28 136.55 152.39 136.54 153.06 135.86 L 153.78 135.13 C 154.45 134.44 154.44 133.34 153.76 132.66 C 153.07 131.99 151.97 132.00 151.29 132.68 Z M 150.66 133.31 L 149.90 133.98 C 149.17 134.62 149.09 135.73 149.74 136.46 C 150.38 137.20 151.49 137.27 152.22 136.63 L 152.98 135.96 C 153.71 135.32 153.79 134.20 153.14 133.47 C 152.50 132.74 151.39 132.67 150.66 133.31 Z M 150.10 133.78 L 149.05 134.45 C 148.21 134.98 147.96 136.08 148.49 136.92 C 149.02 137.76 150.13 138.01 150.97 137.48 L 152.02 136.82 C 152.86 136.29 153.11 135.18 152.58 134.34 C 152.05 133.51 150.94 133.25 150.10 133.78 Z M 150.26 134.15 L 149.77 134.08 C 148.77 133.94 147.84 134.64 147.71 135.65 C 147.57 136.66 148.27 137.58 149.28 137.72 L 149.76 137.79 C 150.77 137.92 151.69 137.22 151.83 136.21 C 151.97 135.21 151.26 134.28 150.26 134.15 Z M 151.28 136.50 L 151.52 135.80 C 151.86 134.83 151.34 133.77 150.37 133.44 C 149.40 133.11 148.34 133.63 148.01 134.60 L 147.77 135.30 C 147.44 136.27 147.95 137.32 148.92 137.66 C 149.89 137.99 150.95 137.47 151.28 136.50 Z M 151.26 136.31 L 152.01 135.30 C 152.62 134.48 152.45 133.31 151.62 132.70 C 150.80 132.08 149.63 132.26 149.02 133.08 L 148.27 134.09 C 147.66 134.91 147.83 136.08 148.66 136.69 C 149.48 137.31 150.65 137.13 151.26 136.31 Z M 151.79 135.54 L 152.55 134.82 C 153.30 134.12 153.33 132.94 152.63 132.20 C 151.92 131.45 150.75 131.42 150.00 132.12 L 149.24 132.84 C 148.49 133.55 148.46 134.72 149.16 135.47 C 149.87 136.21 151.04 136.25 151.79 135.54 Z M 152.37 134.95 L 153.18 134.35 C 154.00 133.75 154.18 132.60 153.58 131.78 C 152.98 130.96 151.82 130.78 151.00 131.39 L 150.19 131.99 C 149.37 132.59 149.19 133.74 149.79 134.56 C 150.40 135.38 151.55 135.55 152.37 134.95 Z M 153.01 134.44 L 153.89 133.93 C 154.76 133.43 155.05 132.31 154.55 131.44 C 154.04 130.57 152.93 130.28 152.06 130.78 L 151.18 131.29 C 150.31 131.80 150.01 132.92 150.52 133.79 C 151.03 134.66 152.14 134.95 153.01 134.44 Z M 153.69 134.01 L 154.61 133.60 C 155.52 133.20 155.94 132.14 155.54 131.24 C 155.14 130.33 154.08 129.91 153.17 130.31 L 152.25 130.71 C 151.34 131.11 150.93 132.17 151.33 133.08 C 151.72 133.99 152.78 134.40 153.69 134.01 Z M 154.39 133.63 L 155.37 133.35 C 156.30 133.07 156.83 132.10 156.56 131.17 C 156.29 130.25 155.31 129.72 154.39 129.99 L 153.40 130.28 C 152.47 130.55 151.94 131.52 152.21 132.45 C 152.49 133.38 153.46 133.91 154.39 133.63 Z M 155.19 133.32 L 156.15 133.14 C 157.07 132.97 157.67 132.09 157.50 131.18 C 157.33 130.26 156.45 129.66 155.53 129.83 L 154.57 130.01 C 153.65 130.18 153.05 131.06 153.22 131.98 C 153.39 132.89 154.27 133.49 155.19 133.32 Z M 156.06 133.10 L 156.92 132.98 C 157.81 132.86 158.43 132.04 158.31 131.15 C 158.19 130.26 157.37 129.64 156.48 129.76 L 155.63 129.88 C 154.74 130.00 154.11 130.82 154.23 131.70 C 154.35 132.59 155.17 133.22 156.06 133.10 Z"
      fill="black"
      fill-rule="nonzero" /><path d="M 143.58 145.11 L 143.43 146.03 C 143.27 147.00 143.93 147.92 144.90 148.07 C 145.87 148.23 146.79 147.57 146.94 146.60 L 147.09 145.67 C 147.25 144.70 146.59 143.79 145.62 143.63 C 144.65 143.47 143.73 144.13 143.58 145.11 Z M 143.42 146.06 L 143.28 147.06 C 143.14 148.04 143.81 148.94 144.79 149.08 C 145.76 149.22 146.67 148.54 146.81 147.57 L 146.95 146.57 C 147.09 145.60 146.41 144.69 145.44 144.55 C 144.46 144.41 143.56 145.09 143.42 146.06 Z M 143.27 147.11 L 143.16 148.10 C 143.04 149.07 143.74 149.96 144.72 150.08 C 145.69 150.19 146.58 149.49 146.69 148.51 L 146.81 147.52 C 146.93 146.55 146.23 145.66 145.25 145.54 C 144.27 145.43 143.39 146.13 143.27 147.11 Z M 143.15 148.13 L 143.06 149.08 C 142.96 150.06 143.68 150.93 144.65 151.03 C 145.63 151.13 146.51 150.41 146.60 149.44 L 146.70 148.48 C 146.79 147.50 146.08 146.63 145.10 146.53 C 144.12 146.44 143.25 147.15 143.15 148.13 Z M 143.06 149.10 L 142.96 150.12 C 142.87 151.10 143.59 151.97 144.57 152.06 C 145.55 152.15 146.42 151.43 146.51 150.45 L 146.60 149.42 C 146.69 148.44 145.97 147.58 144.99 147.49 C 144.01 147.40 143.15 148.12 143.06 149.10 Z M 142.97 150.13 L 142.87 151.18 C 142.78 152.15 143.50 153.02 144.48 153.11 C 145.46 153.20 146.32 152.48 146.41 151.50 L 146.51 150.45 C 146.60 149.47 145.88 148.60 144.90 148.52 C 143.92 148.43 143.05 149.15 142.97 150.13 Z M 142.87 151.17 L 142.78 152.14 C 142.69 153.12 143.40 153.98 144.38 154.08 C 145.36 154.17 146.22 153.45 146.32 152.48 L 146.41 151.51 C 146.50 150.53 145.79 149.66 144.81 149.57 C 143.83 149.48 142.97 150.19 142.87 151.17 Z M 142.78 152.13 L 142.68 153.12 C 142.58 154.10 143.29 154.97 144.27 155.07 C 145.24 155.17 146.11 154.46 146.21 153.48 L 146.31 152.49 C 146.41 151.51 145.70 150.64 144.73 150.54 C 143.75 150.44 142.88 151.15 142.78 152.13 Z M 142.69 153.11 L 142.57 154.12 C 142.47 155.09 143.17 155.97 144.14 156.07 C 145.11 156.18 145.99 155.48 146.10 154.51 L 146.21 153.50 C 146.32 152.52 145.61 151.65 144.64 151.54 C 143.67 151.43 142.79 152.13 142.69 153.11 Z M 142.58 154.10 L 142.46 155.11 C 142.34 156.08 143.03 156.97 144.00 157.08 C 144.97 157.20 145.85 156.51 145.97 155.54 L 146.09 154.53 C 146.21 153.56 145.52 152.67 144.55 152.56 C 143.58 152.44 142.70 153.13 142.58 154.10 Z M 142.46 155.10 L 142.33 156.10 C 142.20 157.06 142.89 157.95 143.85 158.08 C 144.82 158.20 145.71 157.52 145.83 156.56 L 145.96 155.55 C 146.09 154.59 145.41 153.70 144.44 153.57 C 143.48 153.45 142.59 154.13 142.46 155.10 Z M 142.34 156.09 L 142.20 157.08 C 142.07 158.05 142.74 158.94 143.71 159.07 C 144.67 159.20 145.56 158.53 145.69 157.56 L 145.83 156.57 C 145.96 155.60 145.28 154.71 144.32 154.58 C 143.36 154.45 142.47 155.12 142.34 156.09 Z M 142.21 157.08 L 142.07 158.06 C 141.94 159.02 142.61 159.91 143.57 160.05 C 144.53 160.18 145.41 159.51 145.55 158.55 L 145.68 157.57 C 145.82 156.61 145.15 155.72 144.19 155.59 C 143.23 155.45 142.34 156.12 142.21 157.08 Z M 142.08 158.07 L 141.94 159.08 C 141.80 160.04 142.47 160.92 143.43 161.06 C 144.38 161.19 145.27 160.52 145.40 159.56 L 145.54 158.55 C 145.67 157.59 145.00 156.71 144.05 156.58 C 143.09 156.44 142.21 157.11 142.08 158.07 Z M 141.95 159.09 L 141.81 160.12 C 141.68 161.08 142.35 161.95 143.30 162.08 C 144.25 162.20 145.12 161.53 145.25 160.58 L 145.39 159.55 C 145.52 158.60 144.85 157.73 143.90 157.60 C 142.95 157.48 142.07 158.14 141.95 159.09 Z M 141.82 160.14 L 141.70 161.12 C 141.58 162.07 142.25 162.93 143.19 163.04 C 144.14 163.16 145.00 162.49 145.12 161.55 L 145.24 160.57 C 145.36 159.62 144.69 158.76 143.74 158.64 C 142.80 158.53 141.94 159.20 141.82 160.14 Z M 141.71 161.14 L 141.60 162.07 C 141.50 163.01 142.17 163.86 143.11 163.96 C 144.05 164.07 144.89 163.40 145.00 162.46 L 145.11 161.53 C 145.21 160.59 144.54 159.74 143.60 159.64 C 142.66 159.53 141.82 160.21 141.71 161.14 Z M 141.62 162.11 L 141.52 163.15 C 141.43 164.08 142.11 164.90 143.04 164.99 C 143.97 165.08 144.80 164.40 144.88 163.47 L 144.98 162.43 C 145.07 161.50 144.39 160.67 143.46 160.58 C 142.53 160.50 141.71 161.18 141.62 162.11 Z M 141.54 163.18 L 141.46 164.16 C 141.39 165.07 142.07 165.88 142.99 165.95 C 143.91 166.03 144.71 165.34 144.78 164.43 L 144.86 163.44 C 144.94 162.53 144.25 161.72 143.34 161.65 C 142.42 161.58 141.62 162.26 141.54 163.18 Z M 141.48 164.17 L 141.42 164.97 C 141.36 165.88 142.04 166.67 142.94 166.73 C 143.85 166.80 144.64 166.12 144.70 165.21 L 144.76 164.41 C 144.83 163.51 144.15 162.72 143.24 162.65 C 142.34 162.59 141.55 163.27 141.48 164.17 Z"
      fill="black"
      fill-rule="nonzero" /><path d="M 148.62 147.44 L 148.60 146.42 C 148.58 145.39 147.74 144.58 146.71 144.60 C 145.69 144.61 144.88 145.46 144.89 146.48 L 144.91 147.50 C 144.93 148.53 145.77 149.34 146.80 149.32 C 147.82 149.31 148.64 148.46 148.62 147.44 Z M 148.56 146.80 L 148.75 145.84 C 148.94 144.84 148.28 143.87 147.28 143.68 C 146.27 143.49 145.30 144.14 145.11 145.15 L 144.93 146.10 C 144.74 147.10 145.39 148.07 146.40 148.27 C 147.40 148.46 148.37 147.80 148.56 146.80 Z M 148.50 146.47 L 148.93 145.77 C 149.47 144.91 149.20 143.77 148.33 143.23 C 147.47 142.69 146.33 142.96 145.79 143.83 L 145.36 144.52 C 144.82 145.39 145.09 146.53 145.96 147.07 C 146.82 147.61 147.96 147.34 148.50 146.47 Z M 148.62 146.15 L 149.35 145.47 C 150.09 144.78 150.13 143.61 149.44 142.86 C 148.74 142.12 147.57 142.08 146.83 142.77 L 146.10 143.45 C 145.36 144.15 145.32 145.31 146.01 146.06 C 146.71 146.80 147.87 146.85 148.62 146.15 Z M 149.18 145.61 L 150.10 144.93 C 150.92 144.33 151.10 143.18 150.49 142.36 C 149.89 141.53 148.74 141.36 147.92 141.96 L 147.00 142.64 C 146.17 143.24 146.00 144.39 146.60 145.21 C 147.20 146.03 148.36 146.21 149.18 145.61 Z M 150.04 144.98 L 150.84 144.44 C 151.68 143.87 151.91 142.72 151.34 141.88 C 150.77 141.03 149.62 140.81 148.78 141.38 L 147.98 141.92 C 147.13 142.49 146.91 143.63 147.48 144.48 C 148.05 145.32 149.19 145.54 150.04 144.98 Z M 150.80 144.47 L 151.67 143.91 C 152.53 143.36 152.79 142.22 152.24 141.36 C 151.69 140.50 150.55 140.25 149.69 140.79 L 148.82 141.35 C 147.96 141.90 147.70 143.04 148.25 143.90 C 148.80 144.76 149.94 145.01 150.80 144.47 Z M 151.63 143.94 L 152.52 143.41 C 153.40 142.88 153.69 141.75 153.16 140.87 C 152.64 140.00 151.51 139.71 150.63 140.23 L 149.74 140.77 C 148.86 141.29 148.57 142.42 149.10 143.30 C 149.62 144.17 150.75 144.46 151.63 143.94 Z M 152.46 143.44 L 153.36 142.95 C 154.26 142.46 154.59 141.34 154.10 140.44 C 153.61 139.54 152.48 139.22 151.59 139.71 L 150.69 140.20 C 149.79 140.69 149.47 141.81 149.96 142.71 C 150.45 143.60 151.57 143.93 152.46 143.44 Z M 153.27 143.00 L 154.28 142.52 C 155.20 142.08 155.60 140.98 155.16 140.06 C 154.72 139.13 153.62 138.74 152.69 139.18 L 151.68 139.66 C 150.76 140.09 150.37 141.20 150.80 142.12 C 151.24 143.04 152.35 143.44 153.27 143.00 Z M 154.14 142.58 L 155.06 142.23 C 156.01 141.87 156.50 140.80 156.13 139.84 C 155.77 138.89 154.70 138.41 153.75 138.77 L 152.83 139.12 C 151.87 139.48 151.39 140.55 151.76 141.50 C 152.12 142.46 153.19 142.94 154.14 142.58 Z M 154.89 142.29 L 155.74 142.05 C 156.73 141.78 157.31 140.76 157.04 139.78 C 156.77 138.79 155.75 138.21 154.76 138.48 L 153.91 138.72 C 152.93 138.99 152.35 140.01 152.62 140.99 C 152.89 141.98 153.91 142.56 154.89 142.29 Z M 155.51 142.10 L 156.58 141.95 C 157.60 141.81 158.31 140.88 158.17 139.86 C 158.02 138.85 157.09 138.14 156.07 138.28 L 155.00 138.43 C 153.98 138.57 153.28 139.51 153.42 140.52 C 153.56 141.54 154.49 142.24 155.51 142.10 Z M 156.11 141.96 L 157.05 142.08 C 158.07 142.20 158.99 141.47 159.12 140.45 C 159.24 139.44 158.51 138.51 157.49 138.39 L 156.55 138.27 C 155.53 138.15 154.61 138.88 154.48 139.89 C 154.36 140.91 155.09 141.84 156.11 141.96 Z M 156.19 141.75 L 156.92 142.27 C 157.76 142.86 158.92 142.66 159.52 141.82 C 160.11 140.98 159.91 139.81 159.07 139.22 L 158.35 138.71 C 157.50 138.11 156.34 138.32 155.75 139.16 C 155.15 140.00 155.35 141.16 156.19 141.75 Z M 156.34 141.61 L 156.80 142.49 C 157.28 143.41 158.41 143.76 159.33 143.28 C 160.24 142.80 160.59 141.67 160.11 140.76 L 159.65 139.88 C 159.17 138.96 158.04 138.61 157.13 139.09 C 156.21 139.57 155.86 140.70 156.34 141.61 Z M 156.65 142.11 L 156.91 143.09 C 157.18 144.09 158.21 144.68 159.21 144.41 C 160.21 144.14 160.80 143.12 160.53 142.12 L 160.27 141.14 C 160.00 140.14 158.97 139.55 157.97 139.82 C 156.97 140.09 156.38 141.12 156.65 142.11 Z M 156.87 142.90 L 157.03 143.87 C 157.19 144.89 158.15 145.59 159.17 145.43 C 160.19 145.27 160.89 144.31 160.73 143.28 L 160.57 142.31 C 160.41 141.29 159.45 140.59 158.43 140.75 C 157.40 140.92 156.71 141.88 156.87 142.90 Z M 157.01 143.75 L 157.10 144.77 C 157.20 145.80 158.11 146.56 159.14 146.46 C 160.17 146.37 160.93 145.46 160.84 144.43 L 160.74 143.41 C 160.65 142.38 159.74 141.62 158.71 141.71 C 157.67 141.81 156.91 142.72 157.01 143.75 Z M 157.10 144.70 L 157.15 145.67 C 157.21 146.71 158.09 147.50 159.12 147.44 C 160.16 147.39 160.95 146.50 160.90 145.47 L 160.84 144.49 C 160.79 143.46 159.90 142.67 158.87 142.72 C 157.83 142.78 157.04 143.67 157.10 144.70 Z M 157.15 145.63 L 157.18 146.65 C 157.21 147.68 158.08 148.50 159.11 148.46 C 160.15 148.43 160.96 147.56 160.93 146.53 L 160.90 145.51 C 160.87 144.47 160.00 143.66 158.96 143.69 C 157.93 143.73 157.11 144.59 157.15 145.63 Z M 157.18 146.62 L 157.19 147.63 C 157.21 148.67 158.07 149.50 159.10 149.48 C 160.14 149.46 160.97 148.61 160.95 147.57 L 160.93 146.56 C 160.91 145.52 160.06 144.69 159.02 144.71 C 157.99 144.73 157.16 145.58 157.18 146.62 Z M 157.19 147.62 L 157.20 148.62 C 157.21 149.65 158.05 150.49 159.09 150.48 C 160.13 150.48 160.96 149.63 160.96 148.59 L 160.95 147.59 C 160.94 146.55 160.10 145.72 159.06 145.73 C 158.02 145.73 157.19 146.58 157.19 147.62 Z M 157.20 148.61 L 157.20 149.61 C 157.20 150.65 158.05 151.49 159.08 151.48 C 160.12 151.48 160.96 150.64 160.96 149.60 L 160.96 148.60 C 160.95 147.57 160.11 146.73 159.08 146.73 C 158.04 146.73 157.20 147.57 157.20 148.61 Z M 157.20 149.61 L 157.20 150.61 C 157.20 151.64 158.04 152.48 159.08 152.48 C 160.12 152.48 160.96 151.64 160.96 150.60 L 160.96 149.61 C 160.96 148.57 160.12 147.73 159.08 147.73 C 158.04 147.73 157.20 148.57 157.20 149.61 Z M 157.20 150.60 L 157.20 151.60 C 157.20 152.64 158.04 153.48 159.08 153.48 C 160.12 153.48 160.96 152.64 160.96 151.60 L 160.96 150.60 C 160.96 149.57 160.12 148.73 159.08 148.73 C 158.04 148.73 157.20 149.57 157.20 150.60 Z M 157.20 151.60 L 157.20 152.60 C 157.20 153.64 158.04 154.48 159.08 154.48 C 160.12 154.48 160.96 153.64 160.96 152.60 L 160.96 151.60 C 160.96 150.57 160.12 149.73 159.08 149.73 C 158.04 149.73 157.20 150.57 157.20 151.60 Z M 157.20 152.60 L 157.20 153.60 C 157.20 154.64 158.04 155.48 159.08 155.48 C 160.12 155.48 160.96 154.64 160.96 153.60 L 160.96 152.60 C 160.96 151.57 160.12 150.73 159.08 150.73 C 158.04 150.73 157.20 151.57 157.20 152.60 Z M 157.20 153.60 L 157.20 154.60 C 157.20 155.64 158.04 156.48 159.08 156.48 C 160.12 156.48 160.96 155.64 160.96 154.60 L 160.96 153.60 C 160.96 152.56 160.12 151.72 159.08 151.72 C 158.04 151.72 157.20 152.56 157.20 153.60 Z M 157.21 154.60 L 157.21 155.61 C 157.21 156.64 158.04 157.48 159.08 157.48 C 160.12 157.48 160.96 156.64 160.96 155.61 L 160.96 154.60 C 160.96 153.57 160.12 152.73 159.08 152.73 C 158.04 152.73 157.21 153.57 157.21 154.60 Z M 157.21 155.61 L 157.21 156.62 C 157.21 157.66 158.05 158.50 159.08 158.50 C 160.11 158.50 160.95 157.66 160.95 156.62 L 160.95 155.61 C 160.95 154.57 160.11 153.73 159.08 153.73 C 158.05 153.73 157.21 154.57 157.21 155.61 Z M 157.21 156.62 L 157.21 157.62 C 157.21 158.65 158.05 159.49 159.08 159.49 C 160.11 159.49 160.95 158.65 160.95 157.62 L 160.95 156.62 C 160.95 155.59 160.11 154.75 159.08 154.75 C 158.05 154.75 157.21 155.59 157.21 156.62 Z M 157.21 157.62 L 157.21 158.62 C 157.21 159.65 158.05 160.49 159.08 160.49 C 160.11 160.49 160.95 159.65 160.95 158.62 L 160.95 157.62 C 160.95 156.59 160.11 155.75 159.08 155.75 C 158.05 155.75 157.21 156.59 157.21 157.62 Z M 157.22 158.61 L 157.21 159.63 C 157.21 160.66 158.04 161.50 159.07 161.50 C 160.10 161.51 160.94 160.67 160.94 159.65 L 160.94 158.63 C 160.95 157.60 160.12 156.76 159.09 156.75 C 158.06 156.75 157.22 157.58 157.22 158.61 Z M 157.22 159.60 L 157.20 160.58 C 157.18 161.61 158.00 162.45 159.02 162.47 C 160.05 162.49 160.89 161.68 160.91 160.65 L 160.93 159.67 C 160.95 158.65 160.14 157.80 159.11 157.78 C 158.09 157.76 157.24 158.58 157.22 159.60 Z M 157.21 160.53 L 157.17 161.49 C 157.12 162.50 157.91 163.37 158.92 163.42 C 159.94 163.47 160.81 162.68 160.86 161.66 L 160.90 160.70 C 160.95 159.69 160.16 158.82 159.14 158.77 C 158.12 158.72 157.26 159.51 157.21 160.53 Z M 157.18 161.45 L 157.11 162.43 C 157.05 163.44 157.81 164.31 158.82 164.38 C 159.83 164.45 160.71 163.69 160.78 162.68 L 160.84 161.70 C 160.91 160.69 160.15 159.81 159.14 159.74 C 158.13 159.67 157.25 160.44 157.18 161.45 Z M 157.13 162.42 L 157.06 163.45 C 156.99 164.45 157.75 165.32 158.75 165.39 C 159.75 165.46 160.62 164.71 160.69 163.70 L 160.76 162.68 C 160.83 161.67 160.07 160.81 159.07 160.74 C 158.07 160.67 157.20 161.42 157.13 162.42 Z M 157.08 163.47 L 157.02 164.42 C 156.96 165.41 157.72 166.26 158.71 166.32 C 159.70 166.38 160.55 165.63 160.61 164.64 L 160.67 163.69 C 160.73 162.70 159.97 161.85 158.98 161.79 C 157.99 161.72 157.14 162.48 157.08 163.47 Z M 157.05 164.43 L 156.99 165.45 C 156.94 166.42 157.68 167.26 158.66 167.31 C 159.63 167.37 160.47 166.62 160.52 165.65 L 160.58 164.63 C 160.63 163.66 159.89 162.82 158.91 162.77 C 157.94 162.71 157.11 163.46 157.05 164.43 Z M 157.02 165.45 L 156.97 166.44 C 156.92 167.40 157.65 168.22 158.61 168.27 C 159.57 168.32 160.39 167.59 160.44 166.63 L 160.49 165.64 C 160.55 164.68 159.81 163.86 158.85 163.81 C 157.89 163.76 157.07 164.50 157.02 165.45 Z"
      fill="black"
      fill-rule="nonzero" /><path d="M 147.34 155.51 L 148.30 155.25 C 149.27 154.98 149.85 153.98 149.58 153.00 C 149.31 152.03 148.31 151.45 147.33 151.72 L 146.37 151.98 C 145.40 152.25 144.82 153.26 145.09 154.23 C 145.36 155.20 146.36 155.78 147.34 155.51 Z M 148.32 155.25 L 149.28 154.97 C 150.25 154.70 150.82 153.68 150.54 152.71 C 150.26 151.74 149.25 151.17 148.28 151.45 L 147.32 151.72 C 146.34 152.00 145.78 153.01 146.05 153.99 C 146.33 154.96 147.34 155.52 148.32 155.25 Z M 149.31 154.96 L 150.23 154.68 C 151.20 154.38 151.74 153.36 151.45 152.40 C 151.15 151.43 150.13 150.89 149.17 151.18 L 148.24 151.46 C 147.28 151.76 146.74 152.78 147.03 153.75 C 147.32 154.71 148.35 155.26 149.31 154.96 Z M 150.26 154.66 L 151.16 154.37 C 152.11 154.06 152.63 153.03 152.32 152.08 C 152.02 151.13 150.99 150.61 150.04 150.91 L 149.14 151.20 C 148.19 151.51 147.67 152.54 147.97 153.49 C 148.28 154.44 149.31 154.97 150.26 154.66 Z M 151.15 154.35 L 152.14 154.02 C 153.08 153.72 153.60 152.71 153.29 151.76 C 152.99 150.82 151.97 150.31 151.03 150.61 L 150.04 150.93 C 149.10 151.24 148.59 152.25 148.89 153.20 C 149.20 154.14 150.21 154.65 151.15 154.35 Z M 152.12 154.01 L 153.10 153.70 C 154.03 153.41 154.55 152.41 154.26 151.48 C 153.96 150.54 152.97 150.02 152.03 150.32 L 151.05 150.63 C 150.12 150.92 149.60 151.92 149.90 152.85 C 150.19 153.79 151.19 154.30 152.12 154.01 Z M 153.08 153.68 L 154.04 153.39 C 154.96 153.11 155.48 152.13 155.20 151.20 C 154.92 150.28 153.94 149.76 153.02 150.04 L 152.05 150.34 C 151.13 150.62 150.61 151.60 150.89 152.52 C 151.18 153.44 152.15 153.96 153.08 153.68 Z M 154.02 153.37 L 155.01 153.07 C 155.92 152.80 156.44 151.84 156.17 150.93 C 155.89 150.02 154.94 149.50 154.02 149.77 L 153.04 150.06 C 152.12 150.34 151.61 151.29 151.88 152.21 C 152.15 153.12 153.11 153.64 154.02 153.37 Z M 154.99 153.05 L 155.94 152.78 C 156.84 152.51 157.36 151.57 157.10 150.67 C 156.84 149.77 155.90 149.25 154.99 149.51 L 154.04 149.79 C 153.14 150.05 152.62 151.00 152.88 151.90 C 153.15 152.80 154.09 153.31 154.99 153.05 Z M 155.92 152.75 L 156.95 152.46 C 157.84 152.21 158.36 151.28 158.10 150.40 C 157.85 149.51 156.93 149.00 156.05 149.25 L 155.01 149.54 C 154.13 149.79 153.61 150.71 153.86 151.60 C 154.12 152.48 155.04 153.00 155.92 152.75 Z M 156.93 152.42 L 157.89 152.16 C 158.75 151.92 159.26 151.02 159.02 150.16 C 158.78 149.29 157.89 148.78 157.02 149.02 L 156.07 149.28 C 155.20 149.52 154.69 150.42 154.93 151.29 C 155.17 152.15 156.07 152.66 156.93 152.42 Z M 157.87 152.13 L 158.78 151.88 C 159.63 151.65 160.13 150.77 159.90 149.93 C 159.67 149.08 158.79 148.58 157.95 148.81 L 157.04 149.05 C 156.19 149.28 155.69 150.16 155.92 151.01 C 156.15 151.86 157.02 152.36 157.87 152.13 Z M 158.77 151.86 L 158.83 151.84 C 159.67 151.62 160.16 150.75 159.94 149.92 C 159.71 149.08 158.85 148.58 158.01 148.81 L 157.95 148.83 C 157.11 149.05 156.62 149.92 156.85 150.75 C 157.07 151.59 157.94 152.09 158.77 151.86 Z"
      fill="black"
      fill-rule="nonzero" /><path d="M 145.49 161.12 L 146.45 161.47 C 147.39 161.81 148.42 161.33 148.76 160.39 C 149.10 159.46 148.61 158.43 147.68 158.09 L 146.72 157.74 C 145.78 157.40 144.75 157.89 144.41 158.82 C 144.07 159.75 144.56 160.79 145.49 161.12 Z M 146.71 161.55 L 147.67 161.75 C 148.65 161.94 149.60 161.31 149.80 160.33 C 149.99 159.36 149.36 158.40 148.38 158.21 L 147.42 158.01 C 146.45 157.81 145.49 158.45 145.30 159.42 C 145.10 160.40 145.73 161.35 146.71 161.55 Z M 148.20 161.77 L 149.11 161.69 C 150.10 161.59 150.83 160.71 150.74 159.72 C 150.64 158.73 149.76 158.00 148.77 158.09 L 147.86 158.18 C 146.86 158.27 146.13 159.15 146.23 160.15 C 146.32 161.14 147.20 161.87 148.20 161.77 Z M 149.53 161.59 L 150.47 161.26 C 151.41 160.93 151.90 159.91 151.57 158.97 C 151.24 158.03 150.21 157.54 149.28 157.86 L 148.34 158.19 C 147.41 158.52 146.91 159.55 147.24 160.49 C 147.57 161.42 148.60 161.92 149.53 161.59 Z M 150.63 161.18 L 151.58 160.74 C 152.48 160.32 152.86 159.25 152.44 158.36 C 152.02 157.46 150.96 157.08 150.06 157.50 L 149.11 157.94 C 148.22 158.36 147.83 159.43 148.25 160.32 C 148.67 161.22 149.74 161.60 150.63 161.18 Z M 151.61 160.70 L 152.47 160.27 C 153.35 159.84 153.70 158.77 153.27 157.90 C 152.83 157.02 151.77 156.67 150.89 157.10 L 150.03 157.53 C 149.15 157.97 148.80 159.03 149.24 159.91 C 149.67 160.78 150.74 161.14 151.61 160.70 Z M 152.48 160.25 L 153.39 159.78 C 154.25 159.34 154.59 158.28 154.15 157.42 C 153.71 156.56 152.65 156.22 151.79 156.66 L 150.88 157.13 C 150.02 157.57 149.68 158.63 150.12 159.49 C 150.56 160.35 151.62 160.69 152.48 160.25 Z M 153.39 159.76 L 154.32 159.27 C 155.16 158.83 155.49 157.78 155.05 156.94 C 154.61 156.09 153.56 155.76 152.71 156.21 L 151.79 156.69 C 150.94 157.13 150.61 158.18 151.06 159.02 C 151.50 159.87 152.54 160.20 153.39 159.76 Z M 154.31 159.24 L 155.19 158.77 C 156.02 158.33 156.33 157.31 155.89 156.48 C 155.46 155.65 154.43 155.34 153.60 155.77 L 152.72 156.24 C 151.89 156.68 151.58 157.70 152.02 158.53 C 152.45 159.36 153.48 159.68 154.31 159.24 Z M 155.17 158.73 L 156.06 158.26 C 156.86 157.83 157.17 156.83 156.74 156.02 C 156.31 155.22 155.31 154.91 154.50 155.34 L 153.62 155.81 C 152.81 156.24 152.50 157.25 152.93 158.05 C 153.36 158.86 154.37 159.16 155.17 158.73 Z M 156.04 158.23 L 156.93 157.75 C 157.71 157.33 158.01 156.35 157.59 155.57 C 157.17 154.78 156.19 154.48 155.40 154.90 L 154.51 155.38 C 153.73 155.80 153.43 156.78 153.85 157.57 C 154.28 158.35 155.25 158.65 156.04 158.23 Z M 156.91 157.73 L 157.17 157.59 C 157.94 157.18 158.23 156.21 157.82 155.44 C 157.40 154.67 156.44 154.38 155.67 154.79 L 155.41 154.93 C 154.64 155.34 154.35 156.31 154.76 157.08 C 155.18 157.85 156.14 158.14 156.91 157.73 Z"
      fill="black"
      fill-rule="nonzero" /><path d="M 143.75 170.09 L 144.44 169.52 C 145.16 168.94 145.26 167.88 144.68 167.17 C 144.09 166.45 143.04 166.35 142.32 166.93 L 141.63 167.50 C 140.91 168.09 140.81 169.14 141.39 169.86 C 141.98 170.57 143.03 170.68 143.75 170.09 Z M 144.33 169.64 L 145.16 169.09 C 145.94 168.57 146.15 167.51 145.62 166.73 C 145.10 165.95 144.04 165.74 143.26 166.26 L 142.44 166.81 C 141.66 167.34 141.45 168.39 141.97 169.17 C 142.49 169.96 143.55 170.16 144.33 169.64 Z M 144.97 169.22 L 145.93 168.75 C 146.78 168.33 147.13 167.30 146.72 166.45 C 146.30 165.59 145.26 165.24 144.41 165.66 L 143.45 166.13 C 142.60 166.55 142.24 167.58 142.66 168.43 C 143.08 169.29 144.11 169.64 144.97 169.22 Z M 145.78 168.82 L 146.68 168.48 C 147.58 168.14 148.02 167.14 147.69 166.25 C 147.35 165.36 146.35 164.91 145.46 165.25 L 144.56 165.59 C 143.66 165.93 143.21 166.93 143.55 167.82 C 143.89 168.71 144.89 169.16 145.78 168.82 Z M 146.61 168.50 L 147.59 168.17 C 148.50 167.87 148.98 166.90 148.69 166.00 C 148.39 165.09 147.41 164.60 146.51 164.90 L 145.53 165.23 C 144.63 165.53 144.14 166.50 144.44 167.40 C 144.73 168.31 145.71 168.80 146.61 168.50 Z M 147.56 168.18 L 148.55 167.87 C 149.46 167.59 149.96 166.62 149.68 165.72 C 149.40 164.81 148.44 164.31 147.53 164.59 L 146.54 164.90 C 145.63 165.18 145.13 166.14 145.41 167.05 C 145.69 167.95 146.66 168.46 147.56 168.18 Z M 148.55 167.85 L 149.58 167.53 C 150.47 167.25 150.97 166.29 150.69 165.39 C 150.41 164.50 149.45 164.00 148.55 164.28 L 147.53 164.60 C 146.63 164.89 146.13 165.84 146.42 166.74 C 146.70 167.64 147.66 168.14 148.55 167.85 Z M 149.60 167.50 L 150.60 167.16 C 151.48 166.86 151.95 165.91 151.65 165.04 C 151.36 164.16 150.41 163.69 149.53 163.98 L 148.53 164.32 C 147.65 164.61 147.18 165.56 147.47 166.44 C 147.77 167.32 148.72 167.79 149.60 167.50 Z M 150.63 167.11 L 151.52 166.79 C 152.38 166.48 152.81 165.53 152.50 164.68 C 152.20 163.83 151.25 163.39 150.40 163.70 L 149.50 164.03 C 148.65 164.34 148.21 165.28 148.52 166.13 C 148.83 166.98 149.77 167.42 150.63 167.11 Z M 151.56 166.74 L 152.43 166.39 C 153.26 166.06 153.66 165.12 153.33 164.30 C 153.00 163.47 152.06 163.07 151.24 163.40 L 150.37 163.75 C 149.54 164.08 149.14 165.02 149.47 165.84 C 149.80 166.67 150.74 167.07 151.56 166.74 Z M 152.48 166.35 L 153.41 165.93 C 154.21 165.58 154.57 164.64 154.22 163.84 C 153.86 163.04 152.93 162.68 152.12 163.03 L 151.19 163.44 C 150.39 163.80 150.03 164.74 150.38 165.54 C 150.74 166.34 151.68 166.70 152.48 166.35 Z M 153.44 165.90 L 154.32 165.49 C 155.10 165.11 155.43 164.18 155.06 163.39 C 154.69 162.61 153.75 162.27 152.97 162.65 L 152.09 163.06 C 151.31 163.43 150.97 164.37 151.35 165.16 C 151.72 165.94 152.66 166.27 153.44 165.90 Z M 154.32 165.47 L 154.54 165.37 C 155.32 164.99 155.64 164.06 155.27 163.28 C 154.89 162.50 153.96 162.18 153.18 162.55 L 152.96 162.66 C 152.19 163.03 151.86 163.97 152.24 164.75 C 152.61 165.52 153.55 165.85 154.32 165.47 Z"
      fill="black"
      fill-rule="nonzero" /><path d="M 145.62 167.35 L 145.30 168.34 C 145.03 169.18 145.48 170.08 146.32 170.35 C 147.16 170.63 148.06 170.17 148.33 169.33 L 148.66 168.34 C 148.93 167.50 148.47 166.60 147.63 166.33 C 146.80 166.05 145.90 166.51 145.62 167.35 Z M 145.29 168.33 L 144.97 169.30 C 144.69 170.14 145.14 171.05 145.98 171.33 C 146.83 171.61 147.74 171.16 148.02 170.31 L 148.34 169.35 C 148.62 168.50 148.17 167.59 147.33 167.31 C 146.48 167.03 145.57 167.49 145.29 168.33 Z M 144.96 169.27 L 144.64 170.19 C 144.35 171.03 144.79 171.96 145.63 172.25 C 146.48 172.55 147.40 172.11 147.70 171.26 L 148.02 170.34 C 148.32 169.50 147.87 168.57 147.03 168.28 C 146.18 167.98 145.26 168.43 144.96 169.27 Z M 144.65 170.14 L 144.30 171.07 C 143.97 171.91 144.40 172.85 145.24 173.17 C 146.08 173.49 147.02 173.07 147.34 172.23 L 147.69 171.31 C 148.02 170.46 147.59 169.52 146.75 169.20 C 145.91 168.88 144.97 169.30 144.65 170.14 Z M 144.31 171.01 L 143.92 171.93 C 143.57 172.77 143.96 173.73 144.79 174.08 C 145.63 174.43 146.59 174.04 146.94 173.21 L 147.33 172.28 C 147.68 171.45 147.29 170.49 146.46 170.14 C 145.62 169.79 144.66 170.18 144.31 171.01 Z M 143.94 171.89 L 143.53 172.77 C 143.15 173.60 143.52 174.57 144.34 174.95 C 145.17 175.33 146.14 174.96 146.52 174.14 L 146.93 173.25 C 147.30 172.43 146.94 171.45 146.11 171.07 C 145.29 170.70 144.31 171.06 143.94 171.89 Z M 143.54 172.75 L 143.12 173.62 C 142.73 174.45 143.08 175.43 143.90 175.82 C 144.72 176.21 145.71 175.86 146.10 175.04 L 146.51 174.16 C 146.91 173.34 146.56 172.36 145.73 171.97 C 144.91 171.58 143.93 171.93 143.54 172.75 Z M 143.13 173.61 L 142.70 174.49 C 142.30 175.31 142.64 176.30 143.46 176.70 C 144.28 177.10 145.26 176.76 145.66 175.94 L 146.09 175.05 C 146.49 174.24 146.15 173.25 145.33 172.85 C 144.51 172.45 143.52 172.79 143.13 173.61 Z M 142.70 174.47 L 142.25 175.38 C 141.84 176.20 142.16 177.19 142.98 177.60 C 143.79 178.01 144.79 177.68 145.20 176.87 L 145.65 175.96 C 146.06 175.14 145.74 174.15 144.92 173.74 C 144.11 173.33 143.11 173.66 142.70 174.47 Z M 142.26 175.35 L 141.78 176.26 C 141.35 177.07 141.67 178.07 142.47 178.50 C 143.28 178.92 144.28 178.61 144.71 177.80 L 145.18 176.89 C 145.61 176.09 145.30 175.09 144.49 174.66 C 143.68 174.24 142.68 174.55 142.26 175.35 Z M 141.80 176.23 L 141.31 177.11 C 140.87 177.91 141.16 178.92 141.96 179.36 C 142.76 179.80 143.76 179.51 144.21 178.71 L 144.69 177.83 C 145.13 177.03 144.84 176.03 144.04 175.59 C 143.24 175.14 142.24 175.44 141.80 176.23 Z M 141.32 177.09 L 140.82 177.96 C 140.37 178.75 140.64 179.76 141.43 180.22 C 142.22 180.67 143.24 180.40 143.69 179.61 L 144.19 178.74 C 144.65 177.95 144.37 176.93 143.58 176.48 C 142.79 176.02 141.78 176.30 141.32 177.09 Z M 140.84 177.94 L 140.33 178.79 C 139.86 179.57 140.12 180.59 140.90 181.05 C 141.68 181.52 142.70 181.27 143.17 180.48 L 143.68 179.63 C 144.14 178.85 143.89 177.83 143.11 177.36 C 142.32 176.90 141.31 177.15 140.84 177.94 Z M 140.34 178.76 L 139.79 179.66 C 139.31 180.44 139.54 181.46 140.32 181.94 C 141.09 182.42 142.11 182.18 142.59 181.40 L 143.15 180.51 C 143.63 179.73 143.40 178.71 142.62 178.23 C 141.84 177.75 140.83 177.99 140.34 178.76 Z M 139.81 179.64 L 139.26 180.48 C 138.76 181.25 138.98 182.27 139.74 182.77 C 140.51 183.26 141.53 183.04 142.03 182.28 L 142.58 181.43 C 143.07 180.67 142.85 179.64 142.09 179.15 C 141.32 178.65 140.30 178.87 139.81 179.64 Z M 139.28 180.45 L 138.75 181.23 C 138.24 181.98 138.43 183.01 139.19 183.52 C 139.94 184.03 140.96 183.84 141.48 183.09 L 142.00 182.31 C 142.52 181.56 142.32 180.53 141.57 180.02 C 140.82 179.51 139.79 179.70 139.28 180.45 Z M 138.80 181.18 L 138.03 182.21 C 137.49 182.94 137.64 183.97 138.36 184.51 C 139.09 185.05 140.12 184.90 140.66 184.17 L 141.43 183.14 C 141.97 182.41 141.82 181.38 141.09 180.84 C 140.37 180.30 139.34 180.45 138.80 181.18 Z M 139.02 181.60 L 138.88 181.63 C 138.00 181.81 137.43 182.67 137.61 183.55 C 137.79 184.42 138.65 184.99 139.53 184.81 L 139.67 184.78 C 140.54 184.60 141.11 183.75 140.93 182.87 C 140.75 181.99 139.90 181.42 139.02 181.60 Z M 140.61 183.98 L 140.99 183.28 C 141.41 182.50 141.12 181.53 140.35 181.11 C 139.57 180.69 138.60 180.98 138.17 181.76 L 137.79 182.46 C 137.37 183.24 137.66 184.21 138.44 184.63 C 139.22 185.05 140.19 184.76 140.61 183.98 Z M 140.94 183.33 L 141.56 182.29 C 142.01 181.54 141.77 180.57 141.02 180.12 C 140.27 179.67 139.30 179.91 138.85 180.66 L 138.23 181.71 C 137.78 182.45 138.02 183.43 138.77 183.87 C 139.52 184.32 140.49 184.08 140.94 183.33 Z M 141.53 182.31 L 142.15 181.34 C 142.62 180.61 142.40 179.64 141.67 179.18 C 140.94 178.71 139.97 178.93 139.51 179.66 L 138.89 180.63 C 138.42 181.36 138.64 182.33 139.37 182.80 C 140.10 183.26 141.07 183.04 141.53 182.31 Z M 142.13 181.37 L 142.69 180.52 C 143.17 179.81 142.98 178.84 142.26 178.36 C 141.54 177.88 140.57 178.07 140.09 178.79 L 139.53 179.63 C 139.05 180.35 139.25 181.32 139.96 181.80 C 140.68 182.27 141.65 182.08 142.13 181.37 Z M 142.67 180.55 L 143.24 179.74 C 143.73 179.03 143.56 178.06 142.85 177.57 C 142.15 177.07 141.17 177.25 140.68 177.95 L 140.11 178.76 C 139.62 179.47 139.79 180.44 140.50 180.94 C 141.21 181.43 142.18 181.26 142.67 180.55 Z M 143.22 179.76 L 143.80 178.97 C 144.30 178.27 144.15 177.30 143.45 176.79 C 142.75 176.29 141.77 176.44 141.27 177.14 L 140.69 177.93 C 140.19 178.63 140.34 179.61 141.04 180.11 C 141.74 180.62 142.72 180.46 143.22 179.76 Z M 143.78 178.99 L 144.37 178.20 C 144.89 177.51 144.75 176.53 144.06 176.01 C 143.37 175.50 142.39 175.64 141.87 176.33 L 141.28 177.12 C 140.76 177.81 140.90 178.79 141.60 179.31 C 142.29 179.82 143.27 179.68 143.78 178.99 Z M 144.36 178.22 L 144.97 177.44 C 145.50 176.75 145.37 175.77 144.69 175.24 C 144.01 174.71 143.02 174.84 142.50 175.52 L 141.89 176.31 C 141.36 176.99 141.48 177.97 142.17 178.50 C 142.85 179.03 143.83 178.91 144.36 178.22 Z M 144.95 177.46 L 145.59 176.67 C 146.13 175.99 146.02 175.01 145.35 174.46 C 144.67 173.92 143.69 174.03 143.15 174.71 L 142.51 175.50 C 141.97 176.17 142.08 177.16 142.75 177.70 C 143.43 178.24 144.41 178.13 144.95 177.46 Z M 145.58 176.69 L 146.23 175.91 C 146.78 175.24 146.69 174.25 146.02 173.69 C 145.35 173.14 144.36 173.23 143.81 173.90 L 143.16 174.68 C 142.60 175.35 142.69 176.34 143.36 176.90 C 144.03 177.45 145.02 177.36 145.58 176.69 Z M 146.22 175.94 L 146.89 175.17 C 147.46 174.50 147.39 173.50 146.72 172.93 C 146.05 172.35 145.05 172.43 144.48 173.09 L 143.81 173.87 C 143.24 174.53 143.31 175.53 143.98 176.11 C 144.64 176.68 145.65 176.61 146.22 175.94 Z M 146.88 175.21 L 147.54 174.47 C 148.14 173.81 148.08 172.79 147.42 172.20 C 146.77 171.61 145.75 171.66 145.15 172.32 L 144.49 173.05 C 143.89 173.71 143.95 174.73 144.61 175.33 C 145.26 175.92 146.28 175.87 146.88 175.21 Z M 147.52 174.53 L 148.23 173.79 C 148.86 173.14 148.84 172.11 148.19 171.48 C 147.54 170.86 146.50 170.88 145.88 171.53 L 145.17 172.26 C 144.55 172.91 144.57 173.95 145.22 174.57 C 145.87 175.20 146.90 175.18 147.52 174.53 Z M 148.19 173.89 L 148.95 173.19 C 149.63 172.57 149.68 171.51 149.05 170.82 C 148.42 170.14 147.36 170.10 146.68 170.72 L 145.92 171.42 C 145.24 172.05 145.19 173.11 145.82 173.79 C 146.45 174.48 147.51 174.52 148.19 173.89 Z M 148.83 173.36 L 149.60 172.80 C 150.38 172.24 150.55 171.16 149.99 170.38 C 149.43 169.61 148.35 169.44 147.57 170.00 L 146.80 170.56 C 146.02 171.12 145.85 172.20 146.41 172.98 C 146.98 173.75 148.06 173.92 148.83 173.36 Z M 149.36 173.03 L 150.27 172.60 C 151.17 172.17 151.55 171.10 151.13 170.20 C 150.70 169.30 149.63 168.91 148.73 169.34 L 147.82 169.77 C 146.92 170.20 146.53 171.27 146.96 172.17 C 147.38 173.07 148.46 173.45 149.36 173.03 Z M 149.79 172.85 L 150.78 172.69 C 151.81 172.53 152.52 171.56 152.36 170.53 C 152.21 169.49 151.23 168.78 150.20 168.94 L 149.21 169.09 C 148.17 169.25 147.46 170.22 147.62 171.26 C 147.78 172.29 148.75 173.01 149.79 172.85 Z M 149.86 172.72 L 150.72 173.00 C 151.77 173.34 152.90 172.77 153.24 171.72 C 153.59 170.67 153.02 169.54 151.97 169.20 L 151.11 168.92 C 150.06 168.57 148.93 169.15 148.59 170.19 C 148.24 171.24 148.82 172.37 149.86 172.72 Z M 149.86 172.51 L 150.50 173.18 C 151.28 174.00 152.58 174.03 153.40 173.24 C 154.21 172.46 154.24 171.17 153.46 170.35 L 152.82 169.68 C 152.04 168.86 150.75 168.84 149.93 169.62 C 149.11 170.40 149.08 171.70 149.86 172.51 Z M 150.21 172.81 L 150.75 173.72 C 151.32 174.69 152.59 175.02 153.56 174.44 C 154.54 173.86 154.87 172.60 154.29 171.62 L 153.75 170.72 C 153.18 169.74 151.92 169.42 150.94 169.99 C 149.96 170.57 149.63 171.83 150.21 172.81 Z M 150.68 173.60 L 151.14 174.53 C 151.66 175.54 152.90 175.95 153.91 175.44 C 154.93 174.93 155.34 173.69 154.83 172.67 L 154.36 171.74 C 153.85 170.72 152.61 170.32 151.59 170.83 C 150.57 171.34 150.16 172.58 150.68 173.60 Z M 151.14 174.53 L 151.59 175.42 C 152.11 176.43 153.35 176.84 154.36 176.33 C 155.38 175.82 155.79 174.58 155.28 173.56 L 154.83 172.67 C 154.31 171.65 153.07 171.24 152.06 171.76 C 151.04 172.27 150.63 173.51 151.14 174.53 Z M 151.62 175.45 L 152.09 176.34 C 152.62 177.34 153.86 177.72 154.87 177.19 C 155.87 176.66 156.25 175.41 155.72 174.41 L 155.25 173.52 C 154.72 172.52 153.47 172.14 152.47 172.67 C 151.47 173.20 151.08 174.45 151.62 175.45 Z M 152.13 176.40 L 152.64 177.27 C 153.21 178.25 154.46 178.58 155.44 178.01 C 156.41 177.44 156.75 176.19 156.18 175.21 L 155.67 174.34 C 155.11 173.37 153.85 173.04 152.88 173.60 C 151.90 174.17 151.57 175.42 152.13 176.40 Z M 152.71 177.33 L 153.25 178.18 C 153.86 179.12 155.11 179.39 156.05 178.79 C 156.98 178.19 157.26 176.94 156.65 176.00 L 156.11 175.15 C 155.51 174.21 154.26 173.94 153.32 174.54 C 152.38 175.15 152.11 176.40 152.71 177.33 Z M 153.33 178.24 L 153.91 179.05 C 154.54 179.95 155.79 180.16 156.68 179.52 C 157.58 178.88 157.79 177.64 157.15 176.74 L 156.58 175.93 C 155.94 175.04 154.69 174.83 153.80 175.47 C 152.90 176.11 152.69 177.35 153.33 178.24 Z M 154.01 179.12 L 154.64 179.91 C 155.32 180.75 156.54 180.89 157.38 180.21 C 158.23 179.54 158.36 178.31 157.69 177.47 L 157.05 176.68 C 156.38 175.84 155.15 175.70 154.31 176.38 C 153.47 177.05 153.33 178.28 154.01 179.12 Z M 154.78 179.99 L 155.46 180.71 C 156.18 181.48 157.38 181.51 158.14 180.80 C 158.90 180.08 158.94 178.89 158.23 178.12 L 157.55 177.40 C 156.83 176.63 155.63 176.59 154.87 177.31 C 154.11 178.02 154.07 179.22 154.78 179.99 Z M 155.63 180.81 L 156.37 181.46 C 157.14 182.13 158.30 182.05 158.98 181.28 C 159.65 180.51 159.57 179.34 158.80 178.67 L 158.06 178.03 C 157.29 177.35 156.13 177.43 155.45 178.20 C 154.78 178.97 154.86 180.14 155.63 180.81 Z M 156.51 181.61 L 157.33 182.18 C 158.19 182.77 159.36 182.56 159.95 181.71 C 160.54 180.85 160.33 179.68 159.48 179.09 L 158.66 178.52 C 157.80 177.93 156.63 178.14 156.04 178.99 C 155.45 179.85 155.66 181.02 156.51 181.61 Z M 157.46 182.37 L 158.34 182.85 C 159.29 183.37 160.50 183.02 161.02 182.06 C 161.54 181.10 161.19 179.90 160.23 179.38 L 159.35 178.90 C 158.39 178.37 157.19 178.73 156.67 179.69 C 156.15 180.64 156.50 181.85 157.46 182.37 Z M 158.48 183.00 L 159.40 183.39 C 160.44 183.83 161.64 183.35 162.08 182.31 C 162.53 181.27 162.04 180.06 161.00 179.62 L 160.09 179.23 C 159.05 178.79 157.84 179.27 157.40 180.31 C 156.96 181.35 157.44 182.55 158.48 183.00 Z M 159.53 183.46 L 160.48 183.78 C 161.56 184.15 162.73 183.58 163.10 182.50 C 163.47 181.42 162.90 180.24 161.82 179.87 L 160.87 179.55 C 159.79 179.18 158.61 179.75 158.24 180.83 C 157.87 181.91 158.45 183.09 159.53 183.46 Z M 160.55 183.81 L 161.51 184.10 C 162.61 184.43 163.76 183.80 164.09 182.71 C 164.42 181.62 163.80 180.46 162.70 180.13 L 161.74 179.85 C 160.65 179.52 159.49 180.14 159.16 181.23 C 158.84 182.33 159.46 183.48 160.55 183.81 Z M 161.53 184.10 L 161.63 184.13 C 162.73 184.45 163.87 183.82 164.19 182.72 C 164.51 181.63 163.88 180.48 162.79 180.16 L 162.69 180.13 C 161.59 179.81 160.44 180.44 160.12 181.54 C 159.80 182.63 160.43 183.78 161.53 184.10 Z"
      fill="black"
      fill-rule="nonzero" /><path d="M 128.17 185.24 L 127.04 185.86 C 126.18 186.33 125.87 187.42 126.34 188.29 C 126.82 189.15 127.91 189.46 128.77 188.99 L 129.90 188.37 C 130.76 187.89 131.07 186.80 130.60 185.94 C 130.12 185.07 129.03 184.76 128.17 185.24 Z M 126.46 186.18 L 126.39 186.27 C 125.71 187.07 125.80 188.27 126.60 188.95 C 127.40 189.64 128.60 189.54 129.29 188.74 L 129.36 188.66 C 130.04 187.86 129.94 186.66 129.14 185.97 C 128.34 185.29 127.14 185.38 126.46 186.18 Z M 128.53 189.40 L 129.52 189.04 C 130.57 188.66 131.11 187.50 130.73 186.45 C 130.35 185.40 129.19 184.86 128.14 185.24 L 127.14 185.60 C 126.09 185.99 125.55 187.15 125.94 188.20 C 126.32 189.25 127.48 189.79 128.53 189.40 Z M 129.31 189.20 L 130.40 188.94 C 131.54 188.68 132.24 187.54 131.98 186.41 C 131.71 185.27 130.57 184.57 129.44 184.83 L 128.35 185.09 C 127.22 185.35 126.51 186.49 126.78 187.62 C 127.04 188.76 128.18 189.46 129.31 189.20 Z M 130.18 189.02 L 131.07 188.91 C 132.25 188.77 133.09 187.70 132.95 186.52 C 132.80 185.35 131.74 184.51 130.56 184.65 L 129.67 184.76 C 128.49 184.90 127.65 185.97 127.79 187.14 C 127.93 188.32 129.00 189.16 130.18 189.02 Z M 130.97 188.93 L 131.99 188.86 C 133.18 188.77 134.07 187.74 133.99 186.55 C 133.90 185.36 132.87 184.47 131.68 184.55 L 130.66 184.63 C 129.47 184.71 128.58 185.75 128.66 186.93 C 128.75 188.12 129.78 189.02 130.97 188.93 Z M 131.97 188.87 L 133.13 188.80 C 134.32 188.73 135.23 187.70 135.16 186.50 C 135.09 185.31 134.06 184.40 132.86 184.47 L 131.70 184.54 C 130.51 184.61 129.60 185.64 129.67 186.84 C 129.74 188.03 130.77 188.94 131.97 188.87 Z M 133.15 188.81 L 134.14 188.74 C 135.34 188.66 136.24 187.62 136.16 186.42 C 136.08 185.22 135.04 184.31 133.84 184.39 L 132.85 184.46 C 131.65 184.55 130.74 185.59 130.82 186.79 C 130.91 187.99 131.95 188.89 133.15 188.81 Z M 134.15 188.74 L 135.20 188.66 C 136.40 188.57 137.30 187.52 137.21 186.32 C 137.12 185.12 136.07 184.22 134.86 184.31 L 133.82 184.39 C 132.62 184.48 131.72 185.53 131.81 186.73 C 131.90 187.93 132.95 188.83 134.15 188.74 Z M 135.21 188.67 L 136.25 188.58 C 137.45 188.48 138.35 187.43 138.25 186.22 C 138.15 185.02 137.09 184.12 135.89 184.22 L 134.85 184.31 C 133.65 184.40 132.75 185.46 132.85 186.67 C 132.95 187.87 134.01 188.77 135.21 188.67 Z M 136.26 188.59 L 137.24 188.50 C 138.45 188.40 139.34 187.33 139.23 186.12 C 139.13 184.92 138.06 184.03 136.86 184.13 L 135.88 184.22 C 134.67 184.32 133.78 185.39 133.88 186.59 C 133.99 187.80 135.05 188.69 136.26 188.59 Z M 137.25 188.50 L 138.29 188.41 C 139.50 188.29 140.39 187.22 140.27 186.01 C 140.16 184.81 139.09 183.92 137.88 184.03 L 136.84 184.13 C 135.64 184.24 134.75 185.31 134.86 186.52 C 134.97 187.73 136.05 188.62 137.25 188.50 Z M 138.31 188.41 L 139.38 188.30 C 140.59 188.17 141.47 187.09 141.34 185.88 C 141.22 184.68 140.14 183.80 138.93 183.92 L 137.86 184.03 C 136.65 184.15 135.77 185.23 135.90 186.44 C 136.02 187.65 137.10 188.53 138.31 188.41 Z M 139.40 188.30 L 140.30 188.20 C 141.50 188.06 142.38 186.98 142.24 185.77 C 142.11 184.56 141.02 183.69 139.81 183.82 L 138.92 183.92 C 137.71 184.06 136.84 185.14 136.97 186.35 C 137.10 187.56 138.19 188.43 139.40 188.30 Z M 140.30 188.20 L 141.19 188.10 C 142.40 187.96 143.27 186.88 143.13 185.67 C 143.00 184.46 141.91 183.59 140.71 183.72 L 139.81 183.82 C 138.61 183.96 137.74 185.04 137.87 186.25 C 138.00 187.46 139.09 188.33 140.30 188.20 Z M 141.19 188.10 L 142.17 187.99 C 143.38 187.86 144.25 186.77 144.11 185.56 C 143.98 184.35 142.89 183.48 141.69 183.62 L 140.71 183.72 C 139.50 183.86 138.63 184.95 138.76 186.15 C 138.90 187.36 139.98 188.23 141.19 188.10 Z M 142.19 187.99 L 143.20 187.86 C 144.41 187.72 145.27 186.62 145.12 185.42 C 144.98 184.21 143.88 183.35 142.68 183.50 L 141.66 183.62 C 140.46 183.77 139.60 184.86 139.75 186.07 C 139.89 187.27 140.99 188.13 142.19 187.99 Z M 143.25 187.86 L 144.24 187.72 C 145.44 187.55 146.28 186.43 146.11 185.23 C 145.94 184.03 144.83 183.19 143.62 183.36 L 142.63 183.50 C 141.43 183.67 140.59 184.79 140.76 185.99 C 140.93 187.19 142.05 188.03 143.25 187.86 Z M 144.28 187.71 L 145.26 187.55 C 146.46 187.36 147.28 186.24 147.09 185.04 C 146.90 183.84 145.77 183.02 144.57 183.21 L 143.59 183.37 C 142.39 183.56 141.57 184.69 141.76 185.88 C 141.95 187.08 143.08 187.90 144.28 187.71 Z M 145.28 187.55 L 146.27 187.39 C 147.47 187.19 148.28 186.06 148.08 184.86 C 147.88 183.66 146.75 182.85 145.55 183.05 L 144.56 183.22 C 143.36 183.41 142.55 184.55 142.75 185.74 C 142.95 186.94 144.08 187.75 145.28 187.55 Z M 146.27 187.39 L 147.23 187.23 C 148.43 187.03 149.24 185.90 149.04 184.71 C 148.85 183.51 147.72 182.70 146.52 182.89 L 145.56 183.05 C 144.36 183.25 143.55 184.38 143.75 185.57 C 143.94 186.77 145.07 187.58 146.27 187.39 Z M 147.23 187.23 L 148.20 187.07 C 149.40 186.88 150.21 185.75 150.02 184.55 C 149.83 183.36 148.70 182.54 147.50 182.74 L 146.53 182.89 C 145.33 183.09 144.52 184.21 144.71 185.41 C 144.90 186.61 146.03 187.42 147.23 187.23 Z M 148.20 187.07 L 149.21 186.91 C 150.41 186.72 151.22 185.59 151.03 184.39 C 150.84 183.20 149.71 182.38 148.52 182.57 L 147.51 182.74 C 146.31 182.93 145.49 184.06 145.69 185.25 C 145.88 186.45 147.01 187.26 148.20 187.07 Z M 149.22 186.91 L 150.21 186.75 C 151.41 186.55 152.22 185.42 152.03 184.23 C 151.83 183.03 150.70 182.22 149.51 182.41 L 148.51 182.58 C 147.32 182.77 146.50 183.90 146.70 185.09 C 146.89 186.29 148.02 187.10 149.22 186.91 Z M 150.22 186.74 L 151.21 186.58 C 152.41 186.38 153.22 185.25 153.02 184.06 C 152.83 182.86 151.70 182.05 150.50 182.25 L 149.50 182.41 C 148.31 182.61 147.50 183.74 147.69 184.94 C 147.89 186.13 149.02 186.94 150.22 186.74 Z M 151.22 186.58 L 152.21 186.41 C 153.40 186.21 154.21 185.08 154.01 183.89 C 153.81 182.69 152.68 181.89 151.49 182.09 L 150.50 182.25 C 149.30 182.45 148.49 183.58 148.69 184.78 C 148.89 185.97 150.02 186.78 151.22 186.58 Z M 152.21 186.41 L 153.21 186.24 C 154.40 186.04 155.21 184.91 155.01 183.72 C 154.81 182.52 153.68 181.72 152.48 181.92 L 151.48 182.09 C 150.29 182.29 149.48 183.42 149.69 184.61 C 149.89 185.81 151.02 186.61 152.21 186.41 Z M 153.22 186.24 L 154.21 186.07 C 155.41 185.87 156.21 184.73 156.00 183.54 C 155.80 182.35 154.67 181.54 153.47 181.75 L 152.48 181.92 C 151.28 182.13 150.48 183.26 150.69 184.45 C 150.89 185.65 152.02 186.45 153.22 186.24 Z M 154.23 186.07 L 155.19 185.90 C 156.38 185.68 157.18 184.55 156.97 183.36 C 156.75 182.16 155.62 181.37 154.43 181.58 L 153.46 181.75 C 152.27 181.96 151.47 183.10 151.69 184.29 C 151.90 185.48 153.03 186.28 154.23 186.07 Z M 155.21 185.89 L 156.18 185.71 C 157.37 185.49 158.15 184.35 157.93 183.16 C 157.71 181.97 156.57 181.18 155.38 181.40 L 154.41 181.58 C 153.22 181.81 152.43 182.95 152.65 184.14 C 152.88 185.33 154.02 186.11 155.21 185.89 Z M 156.19 185.71 L 157.18 185.52 C 158.37 185.29 159.14 184.14 158.91 182.95 C 158.68 181.76 157.53 180.99 156.35 181.22 L 155.36 181.41 C 154.18 181.64 153.40 182.79 153.63 183.97 C 153.86 185.16 155.01 185.94 156.19 185.71 Z M 157.19 185.51 L 158.17 185.32 C 159.35 185.08 160.12 183.93 159.89 182.75 C 159.65 181.56 158.50 180.79 157.31 181.03 L 156.34 181.22 C 155.15 181.46 154.38 182.61 154.62 183.80 C 154.85 184.98 156.01 185.75 157.19 185.51 Z M 158.18 185.32 L 159.16 185.12 C 160.35 184.88 161.11 183.72 160.87 182.54 C 160.63 181.36 159.48 180.59 158.30 180.83 L 157.31 181.03 C 156.12 181.27 155.36 182.42 155.60 183.61 C 155.84 184.79 156.99 185.56 158.18 185.32 Z M 159.16 185.11 L 160.15 184.91 C 161.33 184.67 162.10 183.52 161.86 182.34 C 161.62 181.16 160.47 180.39 159.28 180.63 L 158.30 180.83 C 157.12 181.07 156.35 182.22 156.59 183.41 C 156.83 184.59 157.98 185.35 159.16 185.11 Z M 160.14 184.91 L 161.11 184.72 C 162.29 184.49 163.06 183.34 162.82 182.16 C 162.59 180.98 161.44 180.21 160.26 180.44 L 159.29 180.63 C 158.11 180.87 157.34 182.02 157.58 183.20 C 157.81 184.38 158.96 185.15 160.14 184.91 Z M 161.09 184.72 L 162.10 184.53 C 163.28 184.30 164.05 183.16 163.83 181.98 C 163.60 180.80 162.46 180.03 161.28 180.25 L 160.28 180.44 C 159.10 180.67 158.32 181.81 158.55 182.99 C 158.77 184.17 159.91 184.94 161.09 184.72 Z M 162.08 184.53 L 163.06 184.35 C 164.24 184.13 165.03 183.00 164.81 181.82 C 164.59 180.64 163.46 179.86 162.28 180.07 L 161.30 180.25 C 160.12 180.47 159.34 181.60 159.55 182.78 C 159.77 183.96 160.90 184.74 162.08 184.53 Z M 163.05 184.34 L 163.98 184.18 C 165.15 183.97 165.94 182.85 165.73 181.67 C 165.52 180.49 164.40 179.70 163.22 179.91 L 162.29 180.07 C 161.11 180.28 160.33 181.41 160.54 182.59 C 160.75 183.77 161.87 184.55 163.05 184.34 Z M 163.96 184.18 L 164.83 184.03 C 166.01 183.83 166.80 182.71 166.59 181.53 C 166.39 180.35 165.27 179.56 164.09 179.76 L 163.23 179.91 C 162.05 180.12 161.26 181.24 161.46 182.41 C 161.67 183.59 162.79 184.38 163.96 184.18 Z M 164.82 184.03 L 165.82 183.86 C 167.00 183.66 167.79 182.55 167.59 181.37 C 167.40 180.19 166.28 179.40 165.11 179.60 L 164.10 179.77 C 162.93 179.96 162.13 181.08 162.33 182.25 C 162.53 183.43 163.64 184.22 164.82 184.03 Z M 165.82 183.85 L 166.91 183.67 C 168.08 183.48 168.88 182.37 168.68 181.20 C 168.49 180.02 167.38 179.23 166.21 179.42 L 165.11 179.60 C 163.94 179.80 163.14 180.90 163.34 182.08 C 163.53 183.25 164.64 184.05 165.82 183.85 Z M 166.90 183.67 L 167.89 183.51 C 169.06 183.32 169.86 182.22 169.67 181.05 C 169.48 179.88 168.38 179.08 167.21 179.26 L 166.22 179.42 C 165.05 179.61 164.25 180.71 164.44 181.89 C 164.62 183.06 165.73 183.86 166.90 183.67 Z M 167.86 183.51 L 168.91 183.36 C 170.08 183.18 170.89 182.09 170.72 180.92 C 170.54 179.74 169.45 178.94 168.28 179.11 L 167.23 179.27 C 166.06 179.44 165.25 180.53 165.43 181.70 C 165.60 182.88 166.69 183.69 167.86 183.51 Z M 168.87 183.36 L 169.89 183.23 C 171.06 183.07 171.89 182.00 171.74 180.83 C 171.59 179.65 170.51 178.83 169.34 178.98 L 168.32 179.11 C 167.15 179.26 166.32 180.33 166.47 181.51 C 166.62 182.68 167.69 183.51 168.87 183.36 Z M 169.81 183.23 L 170.80 183.14 C 171.97 183.03 172.83 181.99 172.72 180.81 C 172.62 179.64 171.57 178.77 170.40 178.88 L 169.42 178.98 C 168.24 179.08 167.38 180.12 167.49 181.30 C 167.60 182.47 168.64 183.34 169.81 183.23 Z M 170.64 183.12 L 171.78 183.10 C 172.95 183.08 173.88 182.12 173.86 180.95 C 173.84 179.78 172.88 178.85 171.71 178.87 L 170.56 178.90 C 169.39 178.92 168.46 179.88 168.48 181.05 C 168.50 182.21 169.47 183.14 170.64 183.12 Z M 171.58 183.07 L 172.48 183.14 C 173.63 183.23 174.63 182.37 174.72 181.22 C 174.81 180.08 173.96 179.07 172.81 178.98 L 171.91 178.91 C 170.76 178.82 169.76 179.68 169.67 180.83 C 169.58 181.97 170.44 182.98 171.58 183.07 Z M 172.39 183.10 L 172.84 183.16 C 173.96 183.30 174.99 182.50 175.13 181.37 C 175.28 180.25 174.48 179.22 173.35 179.08 L 172.90 179.02 C 171.78 178.88 170.75 179.68 170.60 180.80 C 170.46 181.93 171.26 182.96 172.39 183.10 Z"
      fill="black"
      fill-rule="nonzero" /></svg>