<svg xmlns="http://www.w3.org/2000/svg" width="300" height="300" viewBox="0 0 300 300">
<path d="M 137.51 123.00 L 137.66 121.94 C 137.80 120.99 137.14 120.10 136.19 119.97 C 135.24 119.83 134.36 120.49 134.22 121.44 L 134.06 122.50 C 133.93 123.45 134.58 124.33 135.54 124.47 C 136.49 124.61 137.37 123.95 137.51 123.00 Z M 137.70 122.17 L 137.96 121.21 C 138.23 120.24 137.65 119.24 136.68 118.97 C 135.72 118.71 134.71 119.28 134.45 120.25 L 134.18 121.21 C 133.92 122.18 134.49 123.18 135.46 123.45 C 136.43 123.71 137.43 123.14 137.70 122.17 Z M 137.81 121.74 L 138.29 120.98 C 138.85 120.09 138.58 118.92 137.69 118.36 C 136.80 117.80 135.63 118.07 135.07 118.96 L 134.60 119.72 C 134.04 120.60 134.31 121.78 135.19 122.33 C 136.08 122.89 137.25 122.63 137.81 121.74 Z M 137.77 121.57 L 138.45 121.11 C 139.34 120.50 139.57 119.30 138.97 118.41 C 138.36 117.53 137.16 117.30 136.27 117.90 L 135.59 118.36 C 134.71 118.97 134.48 120.17 135.08 121.06 C 135.68 121.94 136.89 122.17 137.77 121.57 Z M 137.98 121.35 L 138.90 121.04 C 139.91 120.70 140.46 119.60 140.12 118.58 C 139.78 117.56 138.67 117.01 137.66 117.35 L 136.74 117.66 C 135.73 118.00 135.18 119.11 135.52 120.12 C 135.86 121.14 136.96 121.69 137.98 121.35 Z M 138.65 121.11 L 139.78 120.89 C 140.83 120.68 141.52 119.65 141.31 118.60 C 141.10 117.54 140.08 116.85 139.02 117.06 L 137.90 117.28 C 136.84 117.49 136.15 118.52 136.36 119.58 C 136.57 120.63 137.60 121.32 138.65 121.11 Z M 139.70 120.91 L 140.72 120.75 C 141.78 120.58 142.51 119.58 142.34 118.51 C 142.18 117.45 141.18 116.72 140.11 116.89 L 139.10 117.05 C 138.03 117.21 137.30 118.21 137.47 119.28 C 137.64 120.34 138.64 121.07 139.70 120.91 Z M 140.70 120.75 L 141.69 120.61 C 142.76 120.45 143.50 119.46 143.34 118.39 C 143.19 117.32 142.20 116.58 141.13 116.74 L 140.13 116.88 C 139.06 117.04 138.32 118.03 138.48 119.10 C 138.64 120.17 139.63 120.91 140.70 120.75 Z M 141.68 120.61 L 142.70 120.46 C 143.77 120.32 144.52 119.33 144.37 118.26 C 144.22 117.19 143.23 116.44 142.16 116.59 L 141.14 116.73 C 140.07 116.88 139.32 117.87 139.47 118.94 C 139.62 120.01 140.61 120.76 141.68 120.61 Z M 142.70 120.47 L 143.71 120.33 C 144.78 120.18 145.53 119.19 145.38 118.12 C 145.23 117.05 144.25 116.31 143.18 116.45 L 142.17 116.59 C 141.10 116.74 140.35 117.72 140.49 118.79 C 140.64 119.86 141.63 120.61 142.70 120.47 Z M 143.71 120.33 L 144.70 120.19 C 145.77 120.04 146.52 119.06 146.37 117.99 C 146.22 116.92 145.24 116.17 144.16 116.32 L 143.18 116.45 C 142.11 116.60 141.36 117.59 141.50 118.66 C 141.65 119.73 142.64 120.47 143.71 120.33 Z M 144.70 120.19 L 145.76 120.04 C 146.83 119.89 147.57 118.90 147.42 117.83 C 147.27 116.76 146.28 116.02 145.21 116.17 L 144.16 116.32 C 143.09 116.47 142.34 117.46 142.49 118.53 C 142.64 119.60 143.63 120.34 144.70 120.19 Z M 145.76 120.04 L 146.74 119.90 C 147.81 119.75 148.56 118.76 148.40 117.69 C 148.25 116.62 147.26 115.88 146.19 116.03 L 145.21 116.17 C 144.14 116.32 143.40 117.31 143.55 118.38 C 143.70 119.45 144.69 120.19 145.76 120.04 Z M 146.75 119.90 L 147.69 119.77 C 148.76 119.61 149.50 118.62 149.35 117.55 C 149.19 116.48 148.20 115.74 147.13 115.89 L 146.19 116.03 C 145.12 116.18 144.38 117.18 144.53 118.24 C 144.69 119.31 145.68 120.06 146.75 119.90 Z M 147.69 119.77 L 148.63 119.63 C 149.70 119.48 150.44 118.49 150.29 117.42 C 150.13 116.35 149.14 115.61 148.07 115.76 L 147.13 115.89 C 146.06 116.05 145.32 117.04 145.48 118.11 C 145.63 119.18 146.62 119.92 147.69 119.77 Z M 148.63 119.63 L 149.57 119.50 C 150.64 119.34 151.38 118.35 151.23 117.28 C 151.08 116.22 150.09 115.47 149.02 115.62 L 148.07 115.76 C 147.00 115.91 146.26 116.90 146.41 117.97 C 146.57 119.04 147.56 119.78 148.63 119.63 Z M 149.57 119.50 L 150.55 119.36 C 151.62 119.21 152.36 118.22 152.21 117.15 C 152.06 116.08 151.07 115.33 150.00 115.49 L 149.02 115.62 C 147.95 115.78 147.21 116.77 147.36 117.83 C 147.51 118.90 148.50 119.65 149.57 119.50 Z M 150.55 119.36 L 151.57 119.21 C 152.64 119.06 153.39 118.07 153.23 117.00 C 153.08 115.93 152.09 115.19 151.02 115.34 L 150.00 115.49 C 148.93 115.64 148.19 116.63 148.34 117.70 C 148.49 118.77 149.48 119.51 150.55 119.36 Z M 151.58 119.21 L 152.59 119.06 C 153.66 118.91 154.40 117.92 154.25 116.85 C 154.10 115.78 153.11 115.04 152.04 115.20 L 151.02 115.34 C 149.95 115.49 149.21 116.49 149.36 117.55 C 149.52 118.62 150.51 119.36 151.58 119.21 Z M 152.60 119.06 L 153.56 118.92 C 154.63 118.76 155.37 117.77 155.21 116.71 C 155.06 115.64 154.07 114.90 153.01 115.06 L 152.04 115.20 C 150.97 115.35 150.23 116.34 150.39 117.41 C 150.54 118.47 151.53 119.21 152.60 119.06 Z M 153.57 118.91 L 154.56 118.77 C 155.62 118.61 156.36 117.62 156.20 116.56 C 156.05 115.50 155.06 114.77 154.00 114.92 L 153.00 115.07 C 151.94 115.22 151.21 116.21 151.36 117.27 C 151.52 118.33 152.50 119.07 153.57 118.91 Z M 154.56 118.76 L 155.56 118.61 C 156.62 118.46 157.35 117.47 157.20 116.41 C 157.04 115.36 156.06 114.62 155.00 114.78 L 154.00 114.93 C 152.94 115.08 152.21 116.07 152.36 117.12 C 152.52 118.18 153.50 118.92 154.56 118.76 Z M 155.56 118.61 L 156.57 118.46 C 157.62 118.30 158.35 117.32 158.20 116.27 C 158.04 115.21 157.06 114.48 156.01 114.64 L 155.00 114.79 C 153.95 114.94 153.22 115.92 153.37 116.98 C 153.53 118.03 154.51 118.76 155.56 118.61 Z M 156.57 118.45 L 157.57 118.30 C 158.62 118.15 159.35 117.17 159.19 116.12 C 159.04 115.07 158.06 114.34 157.01 114.50 L 156.01 114.64 C 154.95 114.80 154.23 115.78 154.38 116.83 C 154.54 117.88 155.52 118.61 156.57 118.45 Z M 157.57 118.30 L 158.57 118.15 C 159.61 117.99 160.34 117.02 160.18 115.97 C 160.02 114.92 159.05 114.20 158.00 114.35 L 157.01 114.50 C 155.96 114.66 155.24 115.64 155.39 116.68 C 155.55 117.73 156.53 118.45 157.57 118.30 Z M 158.57 118.14 L 159.56 117.99 C 160.60 117.83 161.32 116.86 161.16 115.81 C 161.00 114.77 160.02 114.05 158.98 114.21 L 158.00 114.36 C 156.95 114.52 156.23 115.50 156.39 116.54 C 156.55 117.58 157.53 118.30 158.57 118.14 Z M 159.56 117.98 L 160.55 117.83 C 161.58 117.67 162.30 116.69 162.13 115.65 C 161.97 114.61 160.99 113.90 159.95 114.06 L 158.97 114.22 C 157.93 114.38 157.22 115.36 157.39 116.40 C 157.55 117.44 158.53 118.15 159.56 117.98 Z M 160.56 117.82 L 161.54 117.66 C 162.57 117.49 163.28 116.51 163.11 115.48 C 162.94 114.44 161.96 113.74 160.93 113.91 L 159.94 114.07 C 158.91 114.24 158.21 115.22 158.37 116.25 C 158.54 117.29 159.52 117.99 160.56 117.82 Z M 161.55 117.65 L 162.54 117.48 C 163.57 117.31 164.26 116.33 164.09 115.30 C 163.91 114.27 162.94 113.58 161.91 113.75 L 160.92 113.92 C 159.89 114.10 159.19 115.07 159.37 116.10 C 159.54 117.13 160.52 117.83 161.55 117.65 Z M 162.54 117.47 L 163.53 117.30 C 164.56 117.12 165.24 116.15 165.06 115.12 C 164.89 114.10 163.91 113.42 162.89 113.59 L 161.90 113.76 C 160.88 113.94 160.19 114.92 160.37 115.94 C 160.55 116.96 161.52 117.65 162.54 117.47 Z M 163.53 117.29 L 164.52 117.12 C 165.54 116.94 166.22 115.97 166.04 114.95 C 165.86 113.93 164.89 113.25 163.87 113.43 L 162.89 113.60 C 161.87 113.78 161.19 114.75 161.37 115.77 C 161.54 116.79 162.51 117.47 163.53 117.29 Z M 164.51 117.11 L 165.49 116.94 C 166.50 116.76 167.18 115.80 167.01 114.79 C 166.83 113.77 165.87 113.09 164.85 113.27 L 163.88 113.44 C 162.86 113.62 162.18 114.58 162.36 115.59 C 162.53 116.61 163.50 117.29 164.51 117.11 Z M 165.48 116.93 L 166.49 116.76 C 167.50 116.59 168.18 115.63 168.01 114.62 C 167.83 113.61 166.88 112.94 165.87 113.11 L 164.86 113.28 C 163.85 113.45 163.17 114.41 163.35 115.42 C 163.52 116.42 164.47 117.10 165.48 116.93 Z M 166.48 116.75 L 167.48 116.58 C 168.49 116.41 169.16 115.46 168.99 114.46 C 168.82 113.46 167.87 112.78 166.87 112.95 L 165.87 113.12 C 164.87 113.29 164.19 114.24 164.36 115.24 C 164.53 116.24 165.48 116.92 166.48 116.75 Z M 167.48 116.57 L 168.47 116.41 C 169.46 116.23 170.13 115.29 169.96 114.29 C 169.79 113.29 168.85 112.62 167.85 112.79 L 166.87 112.96 C 165.87 113.13 165.20 114.08 165.37 115.07 C 165.54 116.07 166.49 116.74 167.48 116.57 Z M 168.47 116.39 L 169.44 116.22 C 170.43 116.05 171.09 115.10 170.92 114.11 C 170.74 113.12 169.80 112.46 168.81 112.63 L 167.84 112.80 C 166.85 112.98 166.19 113.92 166.36 114.91 C 166.54 115.91 167.48 116.57 168.47 116.39 Z M 169.45 116.21 L 170.45 116.02 C 171.44 115.84 172.09 114.90 171.91 113.91 C 171.72 112.93 170.78 112.28 169.80 112.46 L 168.79 112.65 C 167.81 112.83 167.16 113.77 167.34 114.76 C 167.52 115.74 168.47 116.39 169.45 116.21 Z M 170.47 116.01 L 171.47 115.82 C 172.44 115.63 173.08 114.68 172.89 113.71 C 172.70 112.73 171.76 112.09 170.78 112.28 L 169.78 112.48 C 168.81 112.67 168.17 113.61 168.36 114.59 C 168.55 115.56 169.49 116.20 170.47 116.01 Z M 171.47 115.80 L 172.45 115.61 C 173.42 115.42 174.05 114.48 173.85 113.51 C 173.66 112.54 172.72 111.91 171.75 112.10 L 170.78 112.30 C 169.81 112.49 169.18 113.43 169.37 114.40 C 169.56 115.37 170.51 116.00 171.47 115.80 Z M 172.45 115.60 L 173.40 115.41 C 174.36 115.22 174.98 114.28 174.79 113.32 C 174.60 112.36 173.67 111.74 172.71 111.93 L 171.76 112.12 C 170.79 112.31 170.17 113.24 170.36 114.20 C 170.55 115.16 171.49 115.79 172.45 115.60 Z M 173.39 115.40 L 174.39 115.20 C 175.35 115.01 175.97 114.09 175.78 113.13 C 175.59 112.18 174.67 111.55 173.71 111.74 L 172.71 111.94 C 171.76 112.13 171.13 113.05 171.32 114.01 C 171.51 114.96 172.44 115.58 173.39 115.40 Z M 174.39 115.19 L 175.38 114.99 C 176.33 114.81 176.95 113.89 176.76 112.94 C 176.58 111.99 175.66 111.37 174.71 111.56 L 173.72 111.75 C 172.77 111.94 172.15 112.86 172.33 113.81 C 172.52 114.76 173.44 115.37 174.39 115.19 Z M 175.39 114.98 L 176.35 114.79 C 177.29 114.60 177.90 113.68 177.71 112.74 C 177.52 111.80 176.61 111.19 175.67 111.38 L 174.70 111.57 C 173.76 111.76 173.15 112.68 173.34 113.62 C 173.53 114.56 174.45 115.17 175.39 114.98 Z M 176.37 114.77 L 177.32 114.57 C 178.25 114.37 178.84 113.45 178.65 112.52 C 178.45 111.59 177.53 111.00 176.60 111.20 L 175.65 111.40 C 174.72 111.60 174.13 112.51 174.32 113.44 C 174.52 114.37 175.44 114.97 176.37 114.77 Z M 177.35 114.55 L 178.30 114.32 C 179.22 114.11 179.79 113.19 179.58 112.27 C 179.36 111.35 178.44 110.78 177.52 110.99 L 176.57 111.22 C 175.65 111.43 175.08 112.35 175.29 113.27 C 175.51 114.19 176.43 114.76 177.35 114.55 Z M 178.35 114.29 L 179.31 114.04 C 180.21 113.80 180.75 112.87 180.51 111.96 C 180.26 111.06 179.34 110.52 178.43 110.76 L 177.48 111.02 C 176.57 111.26 176.03 112.19 176.28 113.10 C 176.52 114.00 177.45 114.54 178.35 114.29 Z M 179.37 114.01 L 180.35 113.70 C 181.23 113.43 181.73 112.48 181.45 111.60 C 181.18 110.71 180.23 110.22 179.35 110.49 L 178.37 110.80 C 177.48 111.07 176.99 112.01 177.26 112.90 C 177.54 113.79 178.48 114.28 179.37 114.01 Z M 180.41 113.67 L 181.32 113.34 C 182.19 113.03 182.64 112.08 182.33 111.21 C 182.02 110.34 181.07 109.89 180.20 110.20 L 179.28 110.53 C 178.42 110.84 177.97 111.79 178.28 112.66 C 178.59 113.53 179.54 113.98 180.41 113.67 Z M 181.37 113.31 L 182.29 112.95 C 183.14 112.62 183.56 111.66 183.23 110.80 C 182.89 109.95 181.93 109.53 181.08 109.87 L 180.16 110.23 C 179.30 110.56 178.88 111.52 179.22 112.38 C 179.55 113.23 180.52 113.65 181.37 113.31 Z M 182.31 112.93 L 183.25 112.54 C 184.09 112.19 184.49 111.23 184.14 110.39 C 183.79 109.55 182.83 109.15 181.99 109.50 L 181.05 109.89 C 180.21 110.23 179.81 111.20 180.16 112.04 C 180.51 112.88 181.47 113.28 182.31 112.93 Z M 183.26 112.53 L 184.21 112.12 C 185.04 111.77 185.43 110.81 185.08 109.97 C 184.72 109.14 183.76 108.75 182.93 109.11 L 181.98 109.51 C 181.15 109.87 180.76 110.83 181.11 111.66 C 181.47 112.49 182.43 112.88 183.26 112.53 Z M 184.21 112.12 L 184.30 112.08 C 185.13 111.73 185.51 110.77 185.16 109.94 C 184.80 109.11 183.84 108.72 183.02 109.08 L 182.93 109.11 C 182.10 109.47 181.71 110.43 182.07 111.26 C 182.42 112.09 183.38 112.47 184.21 112.12 Z"
      fill="black"
      fill-rule="nonzero" /><path d="M 123.30 151.94 L 124.36 151.94 C 125.25 151.94 125.96 151.21 125.96 150.33 C 125.96 149.44 125.24 148.72 124.35 148.72 L 123.29 148.73 C 122.41 148.73 121.69 149.45 121.69 150.34 C 121.69 151.23 122.42 151.94 123.30 151.94 Z M 124.39 152.02 L 125.42 152.00 C 126.35 151.98 127.09 151.21 127.07 150.27 C 127.05 149.34 126.28 148.60 125.35 148.62 L 124.32 148.64 C 123.39 148.66 122.65 149.43 122.67 150.37 C 122.68 151.30 123.46 152.04 124.39 152.02 Z M 125.49 152.08 L 126.48 152.02 C 127.45 151.96 128.20 151.12 128.14 150.15 C 128.08 149.17 127.24 148.43 126.27 148.48 L 125.28 148.54 C 124.31 148.60 123.56 149.44 123.62 150.41 C 123.68 151.39 124.51 152.13 125.49 152.08 Z M 126.60 152.09 L 127.52 151.98 C 128.53 151.85 129.25 150.93 129.13 149.91 C 129.00 148.90 128.08 148.18 127.06 148.30 L 126.15 148.41 C 125.13 148.54 124.41 149.46 124.53 150.48 C 124.66 151.49 125.58 152.22 126.60 152.09 Z M 127.71 151.99 L 128.71 151.76 C 129.74 151.53 130.38 150.52 130.15 149.49 C 129.92 148.47 128.90 147.83 127.88 148.06 L 126.87 148.29 C 125.85 148.52 125.21 149.53 125.44 150.56 C 125.67 151.58 126.69 152.22 127.71 151.99 Z M 128.89 151.72 L 129.82 151.42 C 130.82 151.09 131.37 150.02 131.04 149.02 C 130.71 148.02 129.64 147.47 128.64 147.80 L 127.71 148.10 C 126.71 148.43 126.16 149.50 126.49 150.50 C 126.81 151.50 127.89 152.05 128.89 151.72 Z M 129.91 151.39 L 130.82 151.05 C 131.81 150.67 132.31 149.57 131.93 148.58 C 131.56 147.60 130.46 147.10 129.47 147.47 L 128.55 147.82 C 127.57 148.20 127.07 149.30 127.44 150.29 C 127.82 151.27 128.92 151.77 129.91 151.39 Z M 130.82 151.05 L 131.73 150.71 C 132.72 150.34 133.22 149.23 132.84 148.24 C 132.47 147.25 131.37 146.75 130.38 147.13 L 129.47 147.47 C 128.48 147.84 127.98 148.95 128.35 149.94 C 128.73 150.93 129.83 151.43 130.82 151.05 Z M 131.70 150.73 L 132.63 150.39 C 133.63 150.03 134.15 148.93 133.79 147.94 C 133.43 146.94 132.33 146.42 131.33 146.78 L 130.40 147.11 C 129.40 147.47 128.88 148.57 129.24 149.57 C 129.60 150.57 130.70 151.09 131.70 150.73 Z M 132.61 150.41 L 133.57 150.07 C 134.58 149.72 135.11 148.63 134.76 147.62 C 134.41 146.61 133.31 146.08 132.31 146.43 L 131.35 146.76 C 130.34 147.11 129.81 148.21 130.16 149.22 C 130.51 150.22 131.61 150.75 132.61 150.41 Z M 133.56 150.08 L 134.53 149.75 C 135.55 149.41 136.09 148.31 135.74 147.30 C 135.40 146.29 134.30 145.75 133.29 146.09 L 132.32 146.42 C 131.31 146.77 130.77 147.86 131.11 148.87 C 131.45 149.88 132.55 150.43 133.56 150.08 Z M 134.53 149.76 L 135.45 149.45 C 136.46 149.11 137.01 148.01 136.67 147.00 C 136.33 145.98 135.23 145.44 134.22 145.78 L 133.30 146.09 C 132.28 146.43 131.74 147.52 132.08 148.54 C 132.42 149.55 133.51 150.10 134.53 149.76 Z M 135.44 149.45 L 136.38 149.14 C 137.40 148.81 137.95 147.71 137.62 146.70 C 137.28 145.68 136.19 145.13 135.17 145.46 L 134.23 145.77 C 133.21 146.11 132.66 147.20 133.00 148.22 C 133.33 149.23 134.43 149.79 135.44 149.45 Z M 136.37 149.15 L 137.33 148.84 C 138.35 148.51 138.91 147.42 138.58 146.40 C 138.26 145.38 137.17 144.82 136.15 145.15 L 135.18 145.46 C 134.16 145.78 133.60 146.88 133.93 147.89 C 134.26 148.91 135.35 149.47 136.37 149.15 Z M 137.32 148.84 L 138.28 148.54 C 139.31 148.22 139.88 147.14 139.56 146.12 C 139.24 145.09 138.15 144.52 137.13 144.84 L 136.16 145.14 C 135.14 145.46 134.57 146.55 134.89 147.57 C 135.21 148.59 136.29 149.16 137.32 148.84 Z M 138.27 148.55 L 139.19 148.27 C 140.22 147.96 140.80 146.88 140.49 145.85 C 140.18 144.83 139.10 144.25 138.07 144.56 L 137.15 144.83 C 136.12 145.14 135.54 146.23 135.85 147.25 C 136.16 148.28 137.24 148.86 138.27 148.55 Z M 139.18 148.27 L 140.13 147.99 C 141.16 147.69 141.75 146.61 141.44 145.58 C 141.14 144.55 140.06 143.97 139.03 144.27 L 138.08 144.55 C 137.05 144.86 136.47 145.93 136.77 146.96 C 137.07 147.99 138.15 148.58 139.18 148.27 Z M 140.13 147.99 L 141.10 147.71 C 142.13 147.41 142.72 146.33 142.42 145.30 C 142.12 144.27 141.04 143.68 140.01 143.98 L 139.04 144.27 C 138.01 144.57 137.42 145.65 137.72 146.68 C 138.02 147.70 139.10 148.30 140.13 147.99 Z M 141.10 147.71 L 142.10 147.42 C 143.13 147.12 143.72 146.04 143.42 145.01 C 143.12 143.98 142.04 143.39 141.01 143.69 L 140.02 143.98 C 138.99 144.28 138.40 145.36 138.70 146.39 C 139.00 147.42 140.07 148.01 141.10 147.71 Z M 142.10 147.42 L 143.04 147.14 C 144.07 146.84 144.66 145.77 144.36 144.74 C 144.06 143.71 142.98 143.12 141.95 143.42 L 141.01 143.69 C 139.98 143.99 139.39 145.07 139.69 146.10 C 140.00 147.13 141.07 147.72 142.10 147.42 Z M 143.04 147.14 L 143.99 146.87 C 145.02 146.57 145.61 145.49 145.31 144.46 C 145.01 143.43 143.93 142.84 142.90 143.14 L 141.95 143.42 C 140.92 143.72 140.33 144.80 140.63 145.83 C 140.93 146.85 142.01 147.44 143.04 147.14 Z M 143.99 146.87 L 144.95 146.59 C 145.98 146.29 146.57 145.21 146.28 144.19 C 145.98 143.16 144.90 142.56 143.88 142.86 L 142.91 143.14 C 141.88 143.44 141.29 144.51 141.59 145.54 C 141.88 146.57 142.96 147.16 143.99 146.87 Z M 144.94 146.59 L 145.92 146.31 C 146.95 146.02 147.55 144.95 147.25 143.92 C 146.96 142.89 145.89 142.29 144.86 142.58 L 143.88 142.86 C 142.85 143.15 142.26 144.22 142.55 145.25 C 142.84 146.28 143.91 146.88 144.94 146.59 Z M 145.91 146.31 L 146.88 146.05 C 147.91 145.76 148.51 144.69 148.23 143.66 C 147.94 142.63 146.87 142.03 145.84 142.31 L 144.87 142.58 C 143.84 142.87 143.24 143.93 143.52 144.96 C 143.81 146.00 144.87 146.60 145.91 146.31 Z M 146.86 146.05 L 147.82 145.79 C 148.86 145.51 149.47 144.45 149.19 143.42 C 148.91 142.38 147.85 141.77 146.81 142.05 L 145.86 142.31 C 144.82 142.59 144.21 143.65 144.49 144.68 C 144.77 145.71 145.83 146.33 146.86 146.05 Z M 147.81 145.79 L 148.78 145.54 C 149.81 145.27 150.43 144.21 150.15 143.17 C 149.88 142.14 148.82 141.52 147.79 141.79 L 146.83 142.05 C 145.79 142.32 145.17 143.38 145.45 144.41 C 145.72 145.45 146.78 146.06 147.81 145.79 Z M 148.77 145.54 L 149.74 145.29 C 150.77 145.02 151.39 143.97 151.13 142.93 C 150.86 141.90 149.80 141.27 148.77 141.54 L 147.80 141.79 C 146.76 142.06 146.14 143.12 146.41 144.15 C 146.68 145.18 147.73 145.81 148.77 145.54 Z M 149.73 145.29 L 150.71 145.04 C 151.74 144.78 152.37 143.72 152.10 142.69 C 151.84 141.65 150.79 141.03 149.75 141.29 L 148.78 141.54 C 147.74 141.81 147.12 142.86 147.38 143.89 C 147.64 144.93 148.70 145.55 149.73 145.29 Z M 150.70 145.04 L 151.67 144.80 C 152.70 144.53 153.33 143.48 153.07 142.45 C 152.81 141.42 151.76 140.79 150.72 141.05 L 149.76 141.29 C 148.72 141.55 148.09 142.61 148.36 143.64 C 148.62 144.67 149.67 145.30 150.70 145.04 Z M 151.66 144.79 L 152.62 144.55 C 153.65 144.29 154.28 143.25 154.02 142.21 C 153.76 141.18 152.72 140.55 151.68 140.81 L 150.73 141.05 C 149.69 141.31 149.06 142.36 149.32 143.39 C 149.58 144.43 150.63 145.05 151.66 144.79 Z M 152.62 144.55 L 153.58 144.31 C 154.61 144.05 155.24 143.01 154.99 141.98 C 154.73 140.95 153.69 140.32 152.65 140.57 L 151.69 140.82 C 150.66 141.07 150.03 142.12 150.28 143.15 C 150.54 144.18 151.59 144.81 152.62 144.55 Z M 153.58 144.31 L 154.55 144.07 C 155.58 143.81 156.21 142.77 155.96 141.74 C 155.70 140.71 154.66 140.08 153.63 140.34 L 152.66 140.58 C 151.63 140.83 151.00 141.87 151.25 142.90 C 151.51 143.93 152.55 144.56 153.58 144.31 Z M 154.55 144.06 L 155.53 143.82 C 156.56 143.57 157.19 142.54 156.94 141.51 C 156.69 140.48 155.65 139.85 154.62 140.10 L 153.64 140.34 C 152.61 140.59 151.98 141.63 152.23 142.66 C 152.48 143.68 153.52 144.31 154.55 144.06 Z M 155.53 143.82 L 156.52 143.58 C 157.54 143.33 158.17 142.30 157.92 141.28 C 157.68 140.25 156.64 139.62 155.62 139.87 L 154.63 140.10 C 153.60 140.35 152.97 141.38 153.22 142.41 C 153.47 143.44 154.50 144.07 155.53 143.82 Z M 156.51 143.58 L 157.50 143.34 C 158.52 143.10 159.15 142.07 158.91 141.04 C 158.66 140.02 157.64 139.39 156.61 139.63 L 155.62 139.87 C 154.60 140.11 153.97 141.14 154.21 142.17 C 154.46 143.19 155.49 143.82 156.51 143.58 Z M 157.49 143.34 L 158.48 143.10 C 159.50 142.86 160.13 141.84 159.89 140.82 C 159.65 139.80 158.63 139.17 157.60 139.41 L 156.62 139.64 C 155.60 139.88 154.97 140.90 155.21 141.92 C 155.45 142.94 156.47 143.58 157.49 143.34 Z M 158.47 143.10 L 159.45 142.87 C 160.46 142.63 161.10 141.61 160.86 140.60 C 160.62 139.58 159.60 138.95 158.58 139.18 L 157.61 139.41 C 156.59 139.65 155.96 140.67 156.20 141.69 C 156.44 142.70 157.45 143.34 158.47 143.10 Z M 159.44 142.86 L 160.39 142.64 C 161.41 142.41 162.04 141.40 161.81 140.38 C 161.57 139.37 160.56 138.73 159.54 138.97 L 158.59 139.19 C 157.58 139.42 156.94 140.44 157.18 141.45 C 157.41 142.47 158.42 143.10 159.44 142.86 Z M 160.39 142.64 L 161.38 142.41 C 162.39 142.18 163.03 141.17 162.80 140.16 C 162.57 139.15 161.56 138.52 160.55 138.75 L 159.55 138.97 C 158.54 139.21 157.91 140.21 158.14 141.23 C 158.37 142.24 159.37 142.87 160.39 142.64 Z M 161.38 142.40 L 162.38 142.18 C 163.39 141.95 164.02 140.95 163.79 139.94 C 163.57 138.93 162.57 138.30 161.56 138.53 L 160.55 138.75 C 159.55 138.98 158.91 139.98 159.14 140.99 C 159.37 142.00 160.37 142.63 161.38 142.40 Z M 162.37 142.17 L 163.35 141.95 C 164.35 141.73 164.98 140.74 164.76 139.74 C 164.54 138.73 163.55 138.10 162.54 138.32 L 161.57 138.54 C 160.56 138.76 159.93 139.75 160.15 140.75 C 160.37 141.76 161.37 142.39 162.37 142.17 Z M 163.34 141.95 L 164.29 141.74 C 165.29 141.52 165.92 140.54 165.70 139.54 C 165.49 138.54 164.50 137.90 163.50 138.12 L 162.55 138.33 C 161.55 138.54 160.92 139.53 161.13 140.53 C 161.35 141.53 162.34 142.16 163.34 141.95 Z M 164.28 141.73 L 165.19 141.54 C 166.19 141.33 166.82 140.35 166.61 139.36 C 166.40 138.36 165.42 137.72 164.42 137.93 L 163.51 138.13 C 162.51 138.34 161.88 139.32 162.09 140.31 C 162.30 141.31 163.28 141.95 164.28 141.73 Z M 165.18 141.53 L 166.02 141.36 C 167.01 141.15 167.65 140.18 167.44 139.19 C 167.24 138.20 166.27 137.56 165.27 137.77 L 164.43 137.94 C 163.44 138.15 162.81 139.12 163.01 140.11 C 163.22 141.10 164.19 141.74 165.18 141.53 Z M 166.01 141.35 L 166.89 141.17 C 167.88 140.97 168.52 140.01 168.31 139.02 C 168.11 138.03 167.15 137.40 166.16 137.60 L 165.28 137.78 C 164.30 137.98 163.66 138.94 163.86 139.93 C 164.06 140.91 165.02 141.55 166.01 141.35 Z M 166.88 141.16 L 167.85 140.97 C 168.83 140.77 169.47 139.82 169.27 138.83 C 169.07 137.85 168.12 137.21 167.13 137.41 L 166.17 137.60 C 165.19 137.80 164.55 138.76 164.75 139.74 C 164.94 140.72 165.90 141.36 166.88 141.16 Z M 167.84 140.96 L 168.93 140.75 C 169.91 140.55 170.54 139.60 170.35 138.62 C 170.15 137.64 169.20 137.01 168.22 137.20 L 167.14 137.42 C 166.16 137.61 165.52 138.56 165.72 139.54 C 165.91 140.52 166.86 141.16 167.84 140.96 Z M 168.93 140.74 L 170.06 140.51 C 171.03 140.32 171.67 139.37 171.47 138.40 C 171.28 137.43 170.33 136.79 169.36 136.99 L 168.23 137.21 C 167.25 137.40 166.62 138.35 166.81 139.32 C 167.01 140.30 167.95 140.93 168.93 140.74 Z M 170.06 140.50 L 171.00 140.32 C 171.96 140.13 172.59 139.19 172.40 138.22 C 172.21 137.25 171.27 136.62 170.30 136.81 L 169.36 137.00 C 168.39 137.19 167.76 138.13 167.96 139.10 C 168.15 140.07 169.09 140.70 170.06 140.50 Z M 171.00 140.31 L 171.99 140.11 C 172.95 139.92 173.58 138.98 173.39 138.02 C 173.20 137.05 172.26 136.43 171.29 136.62 L 170.30 136.82 C 169.34 137.01 168.71 137.95 168.90 138.91 C 169.09 139.88 170.03 140.50 171.00 140.31 Z M 171.99 140.11 L 173.02 139.90 C 173.98 139.71 174.60 138.77 174.41 137.81 C 174.22 136.85 173.28 136.23 172.32 136.42 L 171.29 136.63 C 170.33 136.82 169.71 137.76 169.90 138.72 C 170.10 139.68 171.03 140.30 171.99 140.11 Z M 173.02 139.89 L 174.06 139.68 C 175.01 139.48 175.63 138.55 175.43 137.60 C 175.24 136.64 174.31 136.02 173.35 136.22 L 172.32 136.43 C 171.36 136.62 170.74 137.56 170.94 138.51 C 171.13 139.47 172.07 140.08 173.02 139.89 Z M 174.06 139.67 L 175.08 139.46 C 176.03 139.26 176.64 138.33 176.44 137.38 C 176.24 136.43 175.31 135.82 174.36 136.02 L 173.35 136.23 C 172.40 136.43 171.79 137.36 171.98 138.31 C 172.18 139.26 173.11 139.87 174.06 139.67 Z M 175.08 139.45 L 176.05 139.24 C 177.00 139.04 177.60 138.11 177.40 137.17 C 177.20 136.22 176.27 135.62 175.33 135.82 L 174.35 136.03 C 173.41 136.23 172.81 137.16 173.01 138.10 C 173.21 139.05 174.14 139.65 175.08 139.45 Z M 176.07 139.23 L 176.97 139.04 C 177.91 138.83 178.50 137.90 178.30 136.96 C 178.09 136.02 177.16 135.42 176.22 135.63 L 175.32 135.83 C 174.38 136.04 173.78 136.97 173.99 137.91 C 174.20 138.85 175.13 139.44 176.07 139.23 Z M 176.99 139.03 L 178.21 138.75 C 179.15 138.53 179.73 137.59 179.51 136.65 C 179.29 135.71 178.35 135.13 177.41 135.35 L 176.20 135.63 C 175.26 135.85 174.67 136.79 174.89 137.73 C 175.11 138.67 176.05 139.25 176.99 139.03 Z M 178.24 138.76 L 179.28 138.49 C 180.22 138.26 180.79 137.30 180.56 136.36 C 180.32 135.42 179.36 134.85 178.42 135.08 L 177.38 135.34 C 176.44 135.58 175.87 136.54 176.10 137.48 C 176.34 138.42 177.30 138.99 178.24 138.76 Z M 179.31 138.50 L 180.22 138.26 C 181.16 138.00 181.73 137.03 181.47 136.08 C 181.22 135.14 180.25 134.58 179.30 134.83 L 178.39 135.08 C 177.44 135.33 176.88 136.30 177.14 137.25 C 177.39 138.19 178.36 138.75 179.31 138.50 Z M 180.24 138.26 L 181.07 138.03 C 182.02 137.76 182.57 136.77 182.31 135.82 C 182.04 134.88 181.05 134.32 180.10 134.59 L 179.27 134.82 C 178.32 135.09 177.77 136.08 178.04 137.03 C 178.31 137.98 179.30 138.53 180.24 138.26 Z M 181.09 138.04 L 181.65 137.87 C 182.61 137.60 183.16 136.60 182.88 135.65 C 182.61 134.69 181.61 134.14 180.66 134.42 L 180.09 134.58 C 179.13 134.86 178.58 135.86 178.86 136.81 C 179.13 137.76 180.13 138.31 181.09 138.04 Z"
      fill="black"
      fill-rule="nonzero" /><path d="M 153.78 122.61 L 153.48 123.35 C 153.10 124.24 153.52 125.27 154.42 125.65 C 155.31 126.02 156.34 125.60 156.72 124.71 L 157.03 123.97 C 157.40 123.07 156.98 122.04 156.08 121.67 C 155.19 121.29 154.16 121.72 153.78 122.61 Z M 153.44 123.34 L 153.12 124.13 C 152.74 125.04 153.17 126.09 154.08 126.47 C 155.00 126.85 156.04 126.41 156.42 125.50 L 156.75 124.71 C 157.13 123.80 156.69 122.75 155.78 122.37 C 154.87 122.00 153.82 122.43 153.44 123.34 Z M 153.08 124.13 L 152.72 125.02 C 152.34 125.96 152.79 127.02 153.72 127.40 C 154.65 127.77 155.71 127.33 156.09 126.40 L 156.46 125.50 C 156.83 124.57 156.39 123.51 155.46 123.13 C 154.53 122.75 153.46 123.20 153.08 124.13 Z M 152.69 125.02 L 152.27 126.08 C 151.89 127.03 152.35 128.10 153.30 128.48 C 154.25 128.86 155.33 128.40 155.70 127.45 L 156.12 126.40 C 156.50 125.45 156.04 124.37 155.09 123.99 C 154.14 123.61 153.06 124.08 152.69 125.02 Z M 152.24 126.08 L 151.80 127.21 C 151.42 128.17 151.89 129.26 152.86 129.64 C 153.83 130.02 154.91 129.54 155.29 128.58 L 155.73 127.45 C 156.11 126.48 155.64 125.39 154.67 125.02 C 153.70 124.64 152.61 125.11 152.24 126.08 Z M 151.78 127.21 L 151.46 128.05 C 151.08 129.03 151.56 130.12 152.54 130.50 C 153.51 130.87 154.60 130.39 154.98 129.42 L 155.31 128.57 C 155.68 127.60 155.20 126.51 154.23 126.13 C 153.25 125.75 152.16 126.24 151.78 127.21 Z M 151.45 128.06 L 151.11 128.96 C 150.73 129.94 151.22 131.03 152.19 131.41 C 153.17 131.78 154.26 131.29 154.63 130.32 L 154.98 129.41 C 155.36 128.44 154.87 127.34 153.90 126.97 C 152.92 126.60 151.83 127.08 151.45 128.06 Z M 151.11 128.97 L 150.74 129.92 C 150.37 130.89 150.86 131.99 151.83 132.36 C 152.81 132.73 153.90 132.24 154.27 131.27 L 154.63 130.32 C 155.01 129.34 154.52 128.25 153.54 127.88 C 152.57 127.50 151.48 127.99 151.11 128.97 Z M 150.74 129.92 L 150.37 130.90 C 150.00 131.88 150.48 132.97 151.46 133.34 C 152.43 133.71 153.53 133.22 153.90 132.25 L 154.27 131.27 C 154.64 130.29 154.15 129.20 153.18 128.83 C 152.20 128.46 151.11 128.95 150.74 129.92 Z M 150.37 130.90 L 149.99 131.89 C 149.62 132.87 150.11 133.96 151.08 134.33 C 152.06 134.70 153.15 134.21 153.52 133.23 L 153.90 132.25 C 154.27 131.27 153.78 130.18 152.80 129.81 C 151.83 129.44 150.74 129.93 150.37 130.90 Z M 149.99 131.89 L 149.62 132.87 C 149.25 133.84 149.74 134.93 150.71 135.30 C 151.69 135.68 152.78 135.19 153.15 134.21 L 153.52 133.23 C 153.89 132.26 153.40 131.17 152.43 130.80 C 151.45 130.43 150.36 130.92 149.99 131.89 Z M 149.62 132.87 L 149.26 133.81 C 148.89 134.79 149.38 135.88 150.35 136.25 C 151.32 136.62 152.42 136.13 152.79 135.16 L 153.15 134.21 C 153.52 133.24 153.03 132.15 152.06 131.78 C 151.08 131.40 149.99 131.89 149.62 132.87 Z M 149.26 133.81 L 148.90 134.76 C 148.52 135.74 149.01 136.83 149.99 137.20 C 150.96 137.57 152.05 137.08 152.42 136.11 L 152.79 135.16 C 153.16 134.19 152.67 133.10 151.70 132.72 C 150.72 132.35 149.63 132.84 149.26 133.81 Z M 148.90 134.76 L 148.49 135.83 C 148.12 136.80 148.60 137.89 149.57 138.26 C 150.55 138.63 151.64 138.15 152.01 137.18 L 152.42 136.11 C 152.79 135.14 152.31 134.05 151.34 133.68 C 150.36 133.30 149.27 133.79 148.90 134.76 Z M 148.50 135.82 L 148.12 136.81 C 147.74 137.78 148.23 138.86 149.19 139.24 C 150.16 139.61 151.25 139.13 151.62 138.16 L 152.00 137.18 C 152.38 136.21 151.89 135.12 150.93 134.75 C 149.96 134.38 148.87 134.86 148.50 135.82 Z M 148.13 136.81 L 147.77 137.73 C 147.39 138.69 147.87 139.78 148.83 140.15 C 149.80 140.53 150.88 140.05 151.26 139.09 L 151.61 138.16 C 151.99 137.20 151.51 136.12 150.55 135.74 C 149.58 135.37 148.50 135.84 148.13 136.81 Z M 147.77 137.73 L 147.43 138.61 C 147.06 139.57 147.53 140.65 148.49 141.02 C 149.45 141.40 150.53 140.92 150.91 139.97 L 151.25 139.09 C 151.62 138.13 151.15 137.04 150.19 136.67 C 149.23 136.29 148.15 136.77 147.77 137.73 Z M 147.44 138.61 L 147.10 139.46 C 146.73 140.42 147.20 141.50 148.15 141.87 C 149.11 142.25 150.19 141.78 150.56 140.82 L 150.90 139.97 C 151.27 139.01 150.80 137.93 149.85 137.56 C 148.89 137.18 147.81 137.65 147.44 138.61 Z M 147.11 139.46 L 146.77 140.31 C 146.40 141.27 146.87 142.34 147.82 142.72 C 148.77 143.09 149.85 142.63 150.22 141.67 L 150.56 140.82 C 150.93 139.87 150.46 138.79 149.51 138.42 C 148.56 138.04 147.48 138.51 147.11 139.46 Z M 146.78 140.32 L 146.43 141.19 C 146.06 142.14 146.52 143.21 147.47 143.59 C 148.42 143.96 149.50 143.50 149.87 142.55 L 150.22 141.67 C 150.59 140.72 150.13 139.65 149.18 139.27 C 148.23 138.90 147.15 139.37 146.78 140.32 Z M 146.43 141.19 L 146.08 142.08 C 145.71 143.03 146.17 144.10 147.12 144.48 C 148.07 144.86 149.14 144.39 149.52 143.44 L 149.87 142.55 C 150.24 141.60 149.78 140.53 148.83 140.15 C 147.88 139.78 146.81 140.24 146.43 141.19 Z M 146.08 142.08 L 145.72 142.99 C 145.34 143.94 145.81 145.01 146.75 145.39 C 147.70 145.77 148.77 145.30 149.15 144.36 L 149.51 143.44 C 149.89 142.50 149.43 141.43 148.48 141.05 C 147.53 140.67 146.46 141.13 146.08 142.08 Z M 145.72 142.99 L 145.35 143.93 C 144.97 144.87 145.43 145.94 146.38 146.32 C 147.32 146.70 148.39 146.24 148.77 145.29 L 149.15 144.36 C 149.52 143.42 149.06 142.34 148.12 141.97 C 147.18 141.59 146.10 142.05 145.72 142.99 Z M 145.35 143.92 L 144.97 144.88 C 144.59 145.82 145.04 146.89 145.99 147.27 C 146.93 147.65 148.00 147.20 148.38 146.25 L 148.77 145.30 C 149.15 144.36 148.69 143.28 147.75 142.90 C 146.81 142.52 145.74 142.98 145.35 143.92 Z M 144.97 144.87 L 144.58 145.85 C 144.19 146.79 144.64 147.86 145.58 148.25 C 146.52 148.63 147.60 148.18 147.98 147.24 L 148.38 146.26 C 148.76 145.32 148.31 144.25 147.37 143.86 C 146.43 143.48 145.36 143.93 144.97 144.87 Z M 144.58 145.85 L 144.21 146.75 C 143.82 147.68 144.27 148.76 145.21 149.14 C 146.15 149.53 147.22 149.08 147.60 148.14 L 147.97 147.24 C 148.36 146.30 147.91 145.23 146.98 144.85 C 146.04 144.46 144.96 144.91 144.58 145.85 Z M 144.21 146.74 L 143.84 147.63 C 143.46 148.57 143.90 149.64 144.84 150.03 C 145.77 150.41 146.84 149.97 147.23 149.04 L 147.60 148.15 C 147.99 147.21 147.54 146.14 146.61 145.75 C 145.67 145.36 144.60 145.81 144.21 146.74 Z M 143.85 147.63 L 143.47 148.53 C 143.08 149.47 143.52 150.54 144.45 150.93 C 145.39 151.32 146.46 150.88 146.85 149.94 L 147.23 149.04 C 147.62 148.11 147.18 147.03 146.24 146.64 C 145.31 146.25 144.24 146.69 143.85 147.63 Z M 143.47 148.53 L 143.09 149.45 C 142.70 150.38 143.13 151.45 144.07 151.85 C 145.00 152.24 146.07 151.80 146.46 150.87 L 146.85 149.95 C 147.24 149.01 146.80 147.94 145.87 147.55 C 144.94 147.16 143.86 147.60 143.47 148.53 Z M 143.09 149.45 L 142.70 150.38 C 142.30 151.31 142.74 152.38 143.67 152.78 C 144.60 153.17 145.67 152.73 146.06 151.80 L 146.46 150.87 C 146.85 149.94 146.41 148.87 145.48 148.47 C 144.55 148.08 143.48 148.52 143.09 149.45 Z M 142.70 150.38 L 142.30 151.33 C 141.90 152.26 142.34 153.33 143.27 153.72 C 144.20 154.11 145.27 153.68 145.66 152.75 L 146.06 151.80 C 146.45 150.87 146.02 149.80 145.09 149.41 C 144.16 149.02 143.09 149.45 142.70 150.38 Z M 142.30 151.33 L 141.89 152.29 C 141.50 153.22 141.93 154.29 142.86 154.68 C 143.79 155.07 144.86 154.64 145.25 153.71 L 145.66 152.75 C 146.05 151.82 145.62 150.75 144.69 150.36 C 143.76 149.97 142.69 150.40 142.30 151.33 Z M 141.89 152.29 L 141.50 153.21 C 141.11 154.13 141.54 155.20 142.47 155.60 C 143.40 155.99 144.47 155.56 144.86 154.63 L 145.25 153.71 C 145.64 152.79 145.21 151.72 144.28 151.32 C 143.36 150.93 142.29 151.36 141.89 152.29 Z M 141.51 153.21 L 141.12 154.11 C 140.73 155.03 141.16 156.10 142.08 156.50 C 143.01 156.89 144.08 156.46 144.47 155.53 L 144.86 154.63 C 145.25 153.71 144.82 152.64 143.89 152.24 C 142.97 151.85 141.90 152.28 141.51 153.21 Z M 141.13 154.11 L 140.74 155.01 C 140.34 155.94 140.77 157.01 141.70 157.40 C 142.62 157.80 143.69 157.37 144.08 156.44 L 144.47 155.54 C 144.87 154.61 144.44 153.54 143.51 153.15 C 142.59 152.75 141.52 153.18 141.13 154.11 Z M 140.74 155.01 L 140.35 155.93 C 139.95 156.85 140.38 157.92 141.30 158.31 C 142.22 158.71 143.29 158.28 143.69 157.36 L 144.08 156.45 C 144.48 155.52 144.05 154.46 143.13 154.06 C 142.20 153.66 141.14 154.09 140.74 155.01 Z M 140.35 155.92 L 139.95 156.84 C 139.55 157.76 139.98 158.83 140.90 159.23 C 141.82 159.63 142.89 159.21 143.28 158.29 L 143.68 157.36 C 144.08 156.44 143.66 155.38 142.74 154.98 C 141.82 154.58 140.75 155.00 140.35 155.92 Z M 139.96 156.84 L 139.55 157.77 C 139.15 158.68 139.57 159.75 140.49 160.15 C 141.41 160.55 142.48 160.14 142.88 159.22 L 143.28 158.29 C 143.68 157.37 143.26 156.30 142.34 155.90 C 141.43 155.50 140.36 155.92 139.96 156.84 Z M 139.56 157.76 L 139.15 158.69 C 138.74 159.61 139.16 160.68 140.07 161.08 C 140.99 161.48 142.06 161.07 142.46 160.15 L 142.87 159.22 C 143.28 158.31 142.86 157.24 141.95 156.83 C 141.03 156.43 139.96 156.84 139.56 157.76 Z M 139.15 158.68 L 138.73 159.62 C 138.33 160.53 138.74 161.60 139.65 162.01 C 140.56 162.42 141.63 162.01 142.04 161.09 L 142.46 160.16 C 142.86 159.25 142.45 158.18 141.54 157.77 C 140.63 157.36 139.56 157.77 139.15 158.68 Z M 138.74 159.61 L 138.32 160.53 C 137.91 161.44 138.32 162.51 139.23 162.92 C 140.14 163.33 141.21 162.93 141.62 162.02 L 142.04 161.10 C 142.45 160.19 142.04 159.12 141.13 158.71 C 140.22 158.30 139.15 158.70 138.74 159.61 Z M 138.33 160.52 L 137.91 161.43 C 137.49 162.34 137.89 163.42 138.80 163.83 C 139.71 164.25 140.78 163.85 141.20 162.94 L 141.62 162.02 C 142.03 161.12 141.63 160.04 140.73 159.63 C 139.82 159.21 138.75 159.61 138.33 160.52 Z M 137.92 161.43 L 137.49 162.34 C 137.07 163.24 137.46 164.32 138.37 164.74 C 139.27 165.16 140.35 164.77 140.77 163.86 L 141.19 162.95 C 141.61 162.04 141.22 160.97 140.32 160.55 C 139.41 160.13 138.34 160.52 137.92 161.43 Z M 137.50 162.33 L 137.07 163.24 C 136.64 164.14 137.03 165.22 137.93 165.64 C 138.83 166.07 139.91 165.68 140.33 164.78 L 140.76 163.87 C 141.19 162.97 140.80 161.89 139.90 161.47 C 139.00 161.04 137.92 161.43 137.50 162.33 Z M 137.07 163.23 L 136.64 164.14 C 136.21 165.04 136.59 166.11 137.49 166.54 C 138.39 166.97 139.46 166.59 139.89 165.70 L 140.33 164.79 C 140.76 163.89 140.38 162.81 139.48 162.38 C 138.58 161.95 137.50 162.33 137.07 163.23 Z M 136.65 164.13 L 136.21 165.02 C 135.77 165.92 136.14 167.00 137.04 167.44 C 137.94 167.87 139.01 167.50 139.45 166.60 L 139.89 165.71 C 140.32 164.81 139.95 163.73 139.06 163.29 C 138.16 162.86 137.08 163.23 136.65 164.13 Z M 136.21 165.01 L 135.77 165.90 C 135.33 166.79 135.70 167.88 136.59 168.32 C 137.48 168.76 138.56 168.39 139.00 167.50 L 139.44 166.61 C 139.89 165.72 139.52 164.64 138.63 164.20 C 137.74 163.76 136.66 164.12 136.21 165.01 Z M 135.78 165.89 L 135.34 166.77 C 134.89 167.66 135.25 168.74 136.13 169.19 C 137.02 169.64 138.11 169.28 138.55 168.39 L 139.00 167.51 C 139.45 166.63 139.09 165.54 138.20 165.09 C 137.31 164.65 136.23 165.00 135.78 165.89 Z M 135.35 166.76 L 134.88 167.67 C 134.42 168.55 134.77 169.64 135.65 170.09 C 136.54 170.55 137.62 170.20 138.08 169.32 L 138.55 168.40 C 139.00 167.52 138.65 166.43 137.77 165.98 C 136.89 165.52 135.80 165.87 135.35 166.76 Z M 134.88 167.66 L 134.41 168.56 C 133.95 169.44 134.29 170.52 135.16 170.99 C 136.04 171.45 137.13 171.11 137.60 170.23 L 138.07 169.33 C 138.53 168.45 138.19 167.36 137.31 166.90 C 136.43 166.44 135.35 166.78 134.88 167.66 Z M 134.42 168.54 L 133.94 169.43 C 133.47 170.31 133.80 171.40 134.68 171.87 C 135.55 172.34 136.64 172.01 137.11 171.13 L 137.59 170.24 C 138.06 169.37 137.73 168.28 136.85 167.81 C 135.98 167.34 134.89 167.67 134.42 168.54 Z M 133.95 169.42 L 133.47 170.30 C 132.99 171.17 133.31 172.26 134.18 172.74 C 135.06 173.21 136.15 172.89 136.62 172.02 L 137.10 171.14 C 137.58 170.27 137.26 169.18 136.39 168.71 C 135.52 168.23 134.43 168.55 133.95 169.42 Z M 133.48 170.28 L 132.99 171.15 C 132.51 172.02 132.82 173.11 133.69 173.59 C 134.56 174.08 135.65 173.77 136.13 172.90 L 136.62 172.03 C 137.10 171.17 136.79 170.07 135.92 169.59 C 135.05 169.11 133.96 169.42 133.48 170.28 Z M 133.00 171.14 L 132.52 172.00 C 132.03 172.86 132.33 173.95 133.19 174.44 C 134.05 174.93 135.15 174.63 135.64 173.77 L 136.13 172.91 C 136.61 172.05 136.31 170.95 135.45 170.46 C 134.59 169.97 133.49 170.28 133.00 171.14 Z M 132.52 171.98 L 132.03 172.83 C 131.54 173.69 131.83 174.79 132.69 175.29 C 133.55 175.78 134.64 175.49 135.14 174.63 L 135.63 173.78 C 136.13 172.92 135.83 171.82 134.98 171.33 C 134.12 170.83 133.02 171.13 132.52 171.98 Z M 132.04 172.82 L 131.52 173.71 C 131.02 174.56 131.30 175.66 132.16 176.16 C 133.01 176.66 134.11 176.38 134.61 175.52 L 135.13 174.64 C 135.63 173.79 135.35 172.69 134.50 172.19 C 133.64 171.68 132.54 171.97 132.04 172.82 Z M 131.53 173.69 L 130.98 174.60 C 130.47 175.45 130.75 176.56 131.60 177.06 C 132.45 177.57 133.55 177.30 134.06 176.45 L 134.61 175.54 C 135.11 174.69 134.84 173.58 133.99 173.08 C 133.14 172.57 132.04 172.84 131.53 173.69 Z M 130.99 174.59 L 130.45 175.49 C 129.93 176.33 130.20 177.43 131.04 177.95 C 131.89 178.46 132.99 178.20 133.51 177.35 L 134.05 176.46 C 134.57 175.61 134.30 174.51 133.46 174.00 C 132.61 173.48 131.51 173.75 130.99 174.59 Z M 130.46 175.47 L 129.91 176.34 C 129.39 177.18 129.65 178.29 130.49 178.81 C 131.33 179.33 132.43 179.08 132.95 178.24 L 133.50 177.37 C 134.02 176.53 133.76 175.42 132.92 174.90 C 132.08 174.38 130.98 174.63 130.46 175.47 Z M 129.92 176.33 L 129.39 177.17 C 128.86 178.00 129.10 179.11 129.94 179.64 C 130.77 180.17 131.88 179.93 132.41 179.09 L 132.94 178.25 C 133.48 177.42 133.23 176.31 132.40 175.78 C 131.56 175.25 130.46 175.49 129.92 176.33 Z M 129.40 177.15 L 128.88 177.96 C 128.34 178.78 128.57 179.89 129.40 180.43 C 130.23 180.97 131.34 180.74 131.88 179.91 L 132.40 179.11 C 132.94 178.28 132.71 177.17 131.88 176.63 C 131.05 176.09 129.94 176.32 129.40 177.15 Z M 128.89 177.94 L 128.38 178.70 C 127.83 179.52 128.05 180.63 128.87 181.18 C 129.69 181.73 130.80 181.51 131.35 180.69 L 131.86 179.93 C 132.41 179.11 132.19 178.00 131.37 177.45 C 130.55 176.90 129.44 177.12 128.89 177.94 Z M 128.40 178.67 L 127.80 179.54 C 127.23 180.35 127.43 181.46 128.25 182.03 C 129.06 182.59 130.17 182.39 130.73 181.58 L 131.34 180.71 C 131.90 179.90 131.70 178.79 130.89 178.22 C 130.08 177.66 128.96 177.86 128.40 178.67 Z M 127.82 179.50 L 127.19 180.36 C 126.61 181.16 126.78 182.28 127.58 182.86 C 128.37 183.45 129.49 183.27 130.08 182.48 L 130.71 181.61 C 131.29 180.82 131.12 179.70 130.32 179.12 C 129.53 178.53 128.41 178.71 127.82 179.50 Z M 127.23 180.31 L 126.61 181.10 C 126.00 181.88 126.13 183.00 126.91 183.61 C 127.68 184.22 128.81 184.09 129.42 183.31 L 130.04 182.53 C 130.65 181.75 130.51 180.63 129.74 180.02 C 128.97 179.41 127.84 179.54 127.23 180.31 Z M 126.66 181.04 L 126.04 181.76 C 125.40 182.51 125.48 183.64 126.23 184.28 C 126.97 184.92 128.10 184.84 128.75 184.09 L 129.37 183.37 C 130.01 182.63 129.93 181.50 129.18 180.85 C 128.43 180.21 127.31 180.29 126.66 181.04 Z M 126.10 181.69 L 125.47 182.36 C 124.78 183.07 124.81 184.20 125.52 184.88 C 126.23 185.57 127.36 185.54 128.04 184.83 L 128.68 184.16 C 129.36 183.45 129.34 182.32 128.63 181.64 C 127.91 180.96 126.78 180.98 126.10 181.69 Z M 125.54 182.29 L 124.84 182.94 C 124.12 183.61 124.08 184.74 124.75 185.46 C 125.42 186.18 126.54 186.22 127.27 185.55 L 127.97 184.90 C 128.69 184.23 128.73 183.10 128.06 182.38 C 127.39 181.66 126.26 181.62 125.54 182.29 Z M 124.92 182.88 L 124.15 183.52 C 123.40 184.15 123.29 185.27 123.92 186.02 C 124.55 186.78 125.67 186.88 126.42 186.25 L 127.19 185.61 C 127.94 184.99 128.04 183.87 127.42 183.11 C 126.79 182.36 125.67 182.26 124.92 182.88 Z M 124.21 183.48 L 123.42 184.09 C 122.64 184.68 122.49 185.79 123.08 186.56 C 123.68 187.34 124.79 187.49 125.56 186.90 L 126.36 186.29 C 127.14 185.70 127.28 184.59 126.69 183.81 C 126.10 183.04 124.99 182.89 124.21 183.48 Z M 123.46 184.06 L 122.65 184.65 C 121.86 185.21 121.68 186.31 122.25 187.10 C 122.81 187.89 123.92 188.07 124.71 187.51 L 125.52 186.92 C 126.31 186.35 126.49 185.25 125.92 184.46 C 125.35 183.67 124.25 183.49 123.46 184.06 Z M 122.68 184.64 L 121.85 185.21 C 121.06 185.76 120.86 186.86 121.41 187.65 C 121.97 188.45 123.06 188.64 123.86 188.09 L 124.68 187.52 C 125.48 186.96 125.67 185.87 125.12 185.07 C 124.56 184.28 123.47 184.08 122.68 184.64 Z M 121.86 185.21 L 121.78 185.27 C 120.98 185.82 120.78 186.91 121.33 187.70 C 121.88 188.50 122.97 188.69 123.77 188.14 L 123.85 188.09 C 124.65 187.54 124.84 186.45 124.29 185.65 C 123.74 184.86 122.65 184.66 121.86 185.21 Z"
      fill="black"
      fill-rule="nonzero" /><path d="M 145.81 154.56 L 146.31 153.55 C 146.74 152.71 146.39 151.67 145.55 151.25 C 144.70 150.82 143.67 151.16 143.24 152.01 L 142.73 153.02 C 142.31 153.87 142.65 154.90 143.50 155.33 C 144.35 155.75 145.38 155.41 145.81 154.56 Z M 146.30 153.74 L 146.85 152.86 C 147.38 152.02 147.13 150.91 146.29 150.38 C 145.44 149.85 144.33 150.10 143.80 150.95 L 143.25 151.82 C 142.72 152.67 142.97 153.78 143.82 154.31 C 144.66 154.84 145.77 154.59 146.30 153.74 Z M 146.64 153.26 L 147.28 152.65 C 148.03 151.92 148.05 150.73 147.33 149.98 C 146.60 149.23 145.41 149.20 144.66 149.93 L 144.02 150.55 C 143.26 151.27 143.24 152.47 143.97 153.22 C 144.69 153.97 145.89 153.99 146.64 153.26 Z M 146.56 153.16 L 147.29 152.93 C 148.32 152.60 148.89 151.50 148.57 150.47 C 148.24 149.44 147.14 148.86 146.11 149.19 L 145.38 149.42 C 144.35 149.74 143.77 150.84 144.10 151.88 C 144.42 152.91 145.52 153.48 146.56 153.16 Z M 146.38 153.03 L 147.20 153.17 C 148.29 153.34 149.32 152.60 149.50 151.51 C 149.67 150.41 148.93 149.39 147.84 149.21 L 147.02 149.08 C 145.92 148.90 144.90 149.65 144.72 150.74 C 144.55 151.83 145.29 152.86 146.38 153.03 Z M 146.66 153.03 L 147.58 153.46 C 148.59 153.93 149.80 153.49 150.28 152.47 C 150.75 151.46 150.31 150.25 149.30 149.77 L 148.38 149.34 C 147.36 148.87 146.15 149.31 145.68 150.33 C 145.20 151.35 145.64 152.56 146.66 153.03 Z M 147.28 153.33 L 148.27 154.00 C 149.21 154.64 150.50 154.39 151.14 153.44 C 151.78 152.50 151.53 151.21 150.58 150.58 L 149.59 149.91 C 148.65 149.27 147.36 149.51 146.73 150.46 C 146.09 151.40 146.33 152.69 147.28 153.33 Z M 148.11 153.90 L 148.92 154.56 C 149.81 155.29 151.13 155.15 151.85 154.26 C 152.58 153.36 152.44 152.05 151.55 151.32 L 150.74 150.67 C 149.85 149.94 148.53 150.08 147.81 150.97 C 147.08 151.86 147.22 153.18 148.11 153.90 Z M 148.83 154.50 L 149.58 155.16 C 150.44 155.94 151.76 155.86 152.53 155.00 C 153.30 154.14 153.23 152.82 152.37 152.05 L 151.63 151.38 C 150.77 150.61 149.45 150.68 148.68 151.54 C 147.90 152.40 147.97 153.73 148.83 154.50 Z M 149.52 155.12 L 150.26 155.83 C 151.09 156.63 152.42 156.60 153.22 155.77 C 154.03 154.94 154.00 153.61 153.17 152.81 L 152.43 152.10 C 151.59 151.29 150.27 151.32 149.46 152.15 C 148.66 152.99 148.69 154.31 149.52 155.12 Z M 150.22 155.79 L 150.94 156.52 C 151.76 157.35 153.08 157.36 153.91 156.54 C 154.73 155.73 154.74 154.40 153.93 153.58 L 153.21 152.84 C 152.39 152.02 151.06 152.01 150.24 152.82 C 149.41 153.64 149.40 154.97 150.22 155.79 Z M 150.91 156.50 L 151.60 157.23 C 152.40 158.07 153.73 158.11 154.57 157.31 C 155.42 156.51 155.45 155.18 154.65 154.34 L 153.96 153.61 C 153.16 152.76 151.83 152.73 150.99 153.52 C 150.15 154.32 150.11 155.65 150.91 156.50 Z M 151.58 157.20 L 152.26 157.95 C 153.05 158.81 154.38 158.86 155.23 158.08 C 156.09 157.29 156.15 155.96 155.36 155.11 L 154.68 154.36 C 153.89 153.50 152.56 153.44 151.71 154.23 C 150.85 155.02 150.79 156.35 151.58 157.20 Z M 152.24 157.93 L 152.94 158.71 C 153.71 159.58 155.04 159.65 155.91 158.88 C 156.78 158.11 156.85 156.78 156.08 155.91 L 155.38 155.13 C 154.61 154.26 153.28 154.18 152.41 154.96 C 151.54 155.73 151.47 157.06 152.24 157.93 Z M 152.92 158.68 L 153.56 159.44 C 154.32 160.31 155.65 160.41 156.53 159.65 C 157.41 158.89 157.51 157.57 156.75 156.69 L 156.10 155.93 C 155.34 155.06 154.01 154.96 153.13 155.72 C 152.25 156.48 152.16 157.81 152.92 158.68 Z M 153.55 159.41 L 154.17 160.15 C 154.91 161.04 156.24 161.16 157.13 160.41 C 158.02 159.66 158.13 158.34 157.39 157.45 L 156.77 156.71 C 156.02 155.82 154.69 155.70 153.80 156.45 C 152.91 157.20 152.80 158.52 153.55 159.41 Z M 154.15 160.13 L 154.77 160.88 C 155.50 161.78 156.83 161.91 157.73 161.17 C 158.62 160.43 158.75 159.11 158.02 158.21 L 157.40 157.46 C 156.66 156.57 155.34 156.44 154.44 157.18 C 153.55 157.91 153.42 159.24 154.15 160.13 Z M 154.76 160.87 L 155.36 161.61 C 156.09 162.51 157.41 162.65 158.31 161.92 C 159.22 161.19 159.35 159.86 158.62 158.96 L 158.02 158.22 C 157.29 157.32 155.97 157.18 155.07 157.91 C 154.17 158.64 154.03 159.97 154.76 160.87 Z M 155.36 161.60 L 155.97 162.36 C 156.69 163.26 158.02 163.40 158.92 162.67 C 159.82 161.95 159.96 160.62 159.23 159.72 L 158.62 158.97 C 157.90 158.07 156.57 157.92 155.67 158.65 C 154.77 159.38 154.63 160.70 155.36 161.60 Z M 155.97 162.36 L 156.60 163.14 C 157.33 164.04 158.65 164.18 159.55 163.45 C 160.45 162.72 160.59 161.40 159.86 160.50 L 159.23 159.72 C 158.50 158.82 157.18 158.68 156.28 159.41 C 155.38 160.14 155.24 161.46 155.97 162.36 Z M 156.61 163.14 L 157.25 163.94 C 157.99 164.83 159.31 164.96 160.20 164.23 C 161.10 163.50 161.23 162.18 160.50 161.28 L 159.85 160.49 C 159.12 159.59 157.80 159.46 156.90 160.19 C 156.00 160.93 155.87 162.25 156.61 163.14 Z M 157.27 163.95 L 157.94 164.75 C 158.68 165.64 160.00 165.76 160.89 165.02 C 161.77 164.28 161.89 162.96 161.15 162.07 L 160.48 161.27 C 159.74 160.38 158.42 160.26 157.54 161.00 C 156.65 161.74 156.53 163.06 157.27 163.95 Z M 157.95 164.77 L 158.59 165.51 C 159.33 166.39 160.65 166.49 161.53 165.75 C 162.41 165.00 162.52 163.68 161.77 162.80 L 161.14 162.06 C 160.39 161.18 159.07 161.07 158.19 161.82 C 157.31 162.57 157.20 163.89 157.95 164.77 Z M 158.60 165.52 L 159.25 166.26 C 160.00 167.13 161.32 167.22 162.19 166.47 C 163.06 165.71 163.15 164.39 162.40 163.52 L 161.75 162.79 C 161.00 161.92 159.68 161.82 158.81 162.58 C 157.94 163.34 157.85 164.65 158.60 165.52 Z M 159.26 166.27 L 159.92 167.02 C 160.68 167.88 162.00 167.96 162.86 167.20 C 163.72 166.44 163.80 165.12 163.04 164.26 L 162.38 163.51 C 161.62 162.65 160.30 162.57 159.44 163.34 C 158.58 164.10 158.50 165.41 159.26 166.27 Z M 159.94 167.03 L 160.61 167.78 C 161.38 168.63 162.69 168.70 163.54 167.94 C 164.40 167.17 164.47 165.86 163.70 165.00 L 163.02 164.25 C 162.26 163.40 160.95 163.33 160.09 164.09 C 159.24 164.86 159.17 166.17 159.94 167.03 Z M 160.63 167.79 L 161.32 168.54 C 162.09 169.39 163.40 169.45 164.24 168.68 C 165.09 167.91 165.15 166.60 164.38 165.76 L 163.69 165.00 C 162.92 164.15 161.61 164.09 160.76 164.86 C 159.92 165.63 159.86 166.94 160.63 167.79 Z M 161.33 168.55 L 162.00 169.28 C 162.78 170.12 164.08 170.18 164.92 169.40 C 165.76 168.63 165.82 167.32 165.04 166.48 L 164.37 165.75 C 163.59 164.91 162.29 164.86 161.45 165.63 C 160.61 166.40 160.55 167.71 161.33 168.55 Z M 162.01 169.29 L 162.68 170.00 C 163.45 170.83 164.75 170.88 165.59 170.10 C 166.42 169.33 166.47 168.03 165.69 167.19 L 165.03 166.48 C 164.26 165.65 162.95 165.60 162.12 166.37 C 161.29 167.15 161.24 168.45 162.01 169.29 Z M 162.69 170.00 L 163.36 170.72 C 164.14 171.55 165.44 171.59 166.26 170.81 C 167.09 170.04 167.13 168.74 166.36 167.91 L 165.68 167.19 C 164.91 166.36 163.61 166.32 162.78 167.10 C 161.95 167.87 161.91 169.17 162.69 170.00 Z M 163.37 170.72 L 164.06 171.45 C 164.84 172.27 166.13 172.31 166.95 171.53 C 167.78 170.75 167.81 169.46 167.03 168.63 L 166.35 167.91 C 165.57 167.09 164.27 167.05 163.45 167.83 C 162.63 168.60 162.59 169.90 163.37 170.72 Z M 164.07 171.45 L 164.77 172.19 C 165.55 173.00 166.84 173.03 167.66 172.25 C 168.47 171.48 168.50 170.18 167.73 169.37 L 167.02 168.63 C 166.24 167.82 164.95 167.79 164.14 168.56 C 163.32 169.34 163.29 170.64 164.07 171.45 Z M 164.78 172.19 L 165.50 172.93 C 166.28 173.74 167.57 173.77 168.38 172.99 C 169.19 172.21 169.21 170.92 168.43 170.11 L 167.71 169.36 C 166.93 168.55 165.65 168.53 164.84 169.31 C 164.03 170.09 164.00 171.38 164.78 172.19 Z M 165.51 172.93 L 166.21 173.65 C 166.99 174.46 168.27 174.48 169.08 173.70 C 169.88 172.92 169.90 171.63 169.12 170.83 L 168.42 170.11 C 167.64 169.31 166.36 169.29 165.55 170.07 C 164.75 170.85 164.73 172.13 165.51 172.93 Z M 166.23 173.65 L 166.93 174.37 C 167.71 175.16 168.98 175.17 169.78 174.40 C 170.57 173.62 170.58 172.34 169.80 171.55 L 169.10 170.83 C 168.33 170.04 167.05 170.03 166.26 170.80 C 165.46 171.58 165.45 172.86 166.23 173.65 Z M 166.95 174.36 L 167.65 175.08 C 168.43 175.86 169.70 175.87 170.48 175.09 C 171.27 174.32 171.27 173.05 170.50 172.27 L 169.79 171.55 C 169.01 170.77 167.74 170.76 166.96 171.54 C 166.18 172.31 166.17 173.58 166.95 174.36 Z M 167.67 175.08 L 168.39 175.79 C 169.16 176.56 170.42 176.56 171.19 175.79 C 171.97 175.01 171.97 173.76 171.19 172.98 L 170.48 172.27 C 169.70 171.49 168.44 171.50 167.67 172.27 C 166.90 173.05 166.90 174.30 167.67 175.08 Z M 168.41 175.79 L 169.12 176.49 C 169.90 177.26 171.14 177.25 171.91 176.47 C 172.67 175.70 172.66 174.45 171.89 173.69 L 171.17 172.98 C 170.40 172.22 169.15 172.23 168.38 173.00 C 167.62 173.78 167.63 175.03 168.41 175.79 Z M 169.14 176.49 L 169.86 177.19 C 170.63 177.94 171.87 177.92 172.62 177.14 C 173.37 176.37 173.35 175.13 172.58 174.38 L 171.87 173.69 C 171.09 172.93 169.85 172.95 169.10 173.73 C 168.35 174.50 168.37 175.74 169.14 176.49 Z M 169.88 177.19 L 170.61 177.88 C 171.38 178.62 172.61 178.59 173.35 177.82 C 174.09 177.04 174.06 175.81 173.29 175.07 L 172.56 174.38 C 171.78 173.64 170.55 173.67 169.81 174.44 C 169.07 175.22 169.10 176.45 169.88 177.19 Z M 170.63 177.88 L 171.38 178.58 C 172.15 179.31 173.37 179.27 174.10 178.49 C 174.82 177.71 174.78 176.50 174.01 175.77 L 173.26 175.07 C 172.49 174.35 171.27 174.39 170.54 175.16 C 169.82 175.94 169.86 177.16 170.63 177.88 Z M 171.40 178.58 L 172.14 179.26 C 172.92 179.97 174.12 179.92 174.84 179.15 C 175.55 178.37 175.50 177.16 174.72 176.45 L 173.98 175.77 C 173.21 175.06 172.00 175.11 171.29 175.88 C 170.57 176.66 170.62 177.87 171.40 178.58 Z M 172.16 179.26 L 172.90 179.93 C 173.67 180.63 174.87 180.57 175.57 179.79 C 176.27 179.02 176.21 177.82 175.44 177.12 L 174.70 176.45 C 173.93 175.75 172.73 175.81 172.03 176.58 C 171.33 177.36 171.39 178.56 172.16 179.26 Z M 172.92 179.92 L 173.65 180.58 C 174.43 181.27 175.61 181.20 176.30 180.43 C 176.99 179.66 176.93 178.47 176.15 177.78 L 175.42 177.12 C 174.64 176.43 173.46 176.50 172.77 177.27 C 172.08 178.04 172.14 179.23 172.92 179.92 Z M 173.67 180.57 L 174.41 181.23 C 175.18 181.91 176.36 181.83 177.04 181.06 C 177.72 180.29 177.64 179.11 176.87 178.43 L 176.14 177.78 C 175.37 177.10 174.19 177.18 173.51 177.95 C 172.83 178.72 172.90 179.89 173.67 180.57 Z M 174.43 181.22 L 175.18 181.88 C 175.95 182.55 177.11 182.47 177.78 181.70 C 178.45 180.94 178.37 179.77 177.61 179.10 L 176.86 178.44 C 176.09 177.77 174.92 177.85 174.25 178.62 C 173.58 179.38 173.66 180.55 174.43 181.22 Z M 175.20 181.87 L 175.96 182.53 C 176.72 183.19 177.87 183.10 178.53 182.34 C 179.19 181.58 179.11 180.43 178.35 179.77 L 177.59 179.11 C 176.83 178.45 175.68 178.53 175.02 179.29 C 174.36 180.05 174.44 181.21 175.20 181.87 Z M 175.98 182.52 L 176.74 183.17 C 177.50 183.82 178.64 183.73 179.28 182.98 C 179.93 182.22 179.85 181.08 179.09 180.44 L 178.33 179.78 C 177.58 179.13 176.44 179.22 175.79 179.97 C 175.14 180.73 175.22 181.87 175.98 182.52 Z M 176.76 183.16 L 177.52 183.81 C 178.27 184.45 179.40 184.36 180.04 183.61 C 180.68 182.86 180.59 181.73 179.84 181.09 L 179.07 180.45 C 178.32 179.81 177.20 179.90 176.56 180.65 C 175.92 181.40 176.01 182.52 176.76 183.16 Z M 177.54 183.80 L 178.30 184.44 C 179.05 185.07 180.16 184.98 180.79 184.23 C 181.41 183.49 181.32 182.38 180.58 181.75 L 179.82 181.11 C 179.07 180.48 177.96 180.57 177.33 181.31 C 176.70 182.06 176.80 183.17 177.54 183.80 Z M 178.32 184.43 L 179.08 185.06 C 179.82 185.68 180.92 185.58 181.53 184.85 C 182.15 184.11 182.05 183.01 181.31 182.39 L 180.56 181.76 C 179.82 181.14 178.72 181.24 178.10 181.98 C 177.49 182.71 177.58 183.81 178.32 184.43 Z M 179.10 185.06 L 179.89 185.71 C 180.62 186.32 181.71 186.22 182.32 185.48 C 182.92 184.75 182.82 183.66 182.09 183.06 L 181.30 182.40 C 180.56 181.79 179.48 181.90 178.87 182.63 C 178.26 183.36 178.36 184.45 179.10 185.06 Z M 179.91 185.70 L 180.70 186.35 C 181.43 186.95 182.50 186.84 183.10 186.11 C 183.69 185.38 183.59 184.31 182.86 183.71 L 182.07 183.06 C 181.34 182.47 180.27 182.57 179.67 183.30 C 179.07 184.03 179.18 185.11 179.91 185.70 Z M 180.72 186.34 L 181.50 186.97 C 182.22 187.56 183.28 187.45 183.87 186.72 C 184.46 186.00 184.34 184.93 183.62 184.35 L 182.84 183.72 C 182.11 183.13 181.05 183.24 180.46 183.97 C 179.88 184.69 179.99 185.76 180.72 186.34 Z M 181.52 186.97 L 182.29 187.58 C 183.01 188.16 184.06 188.04 184.64 187.32 C 185.21 186.60 185.09 185.55 184.37 184.97 L 183.60 184.35 C 182.88 183.78 181.83 183.90 181.25 184.62 C 180.68 185.34 180.80 186.39 181.52 186.97 Z M 182.31 187.58 L 183.08 188.18 C 183.80 188.74 184.84 188.62 185.40 187.90 C 185.96 187.18 185.84 186.14 185.12 185.58 L 184.35 184.98 C 183.63 184.41 182.60 184.54 182.03 185.26 C 181.47 185.98 181.59 187.01 182.31 187.58 Z M 183.10 188.17 L 183.90 188.79 C 184.61 189.34 185.64 189.21 186.19 188.49 C 186.75 187.78 186.61 186.75 185.90 186.20 L 185.10 185.58 C 184.38 185.03 183.35 185.16 182.80 185.88 C 182.25 186.60 182.38 187.62 183.10 188.17 Z M 183.92 188.79 L 184.74 189.41 C 185.45 189.95 186.47 189.81 187.01 189.09 C 187.55 188.38 187.41 187.36 186.70 186.82 L 185.88 186.20 C 185.16 185.66 184.14 185.80 183.60 186.52 C 183.06 187.23 183.20 188.25 183.92 188.79 Z M 184.76 189.41 L 185.57 190.01 C 186.28 190.54 187.29 190.39 187.82 189.67 C 188.35 188.96 188.20 187.95 187.49 187.42 L 186.68 186.82 C 185.96 186.29 184.95 186.44 184.42 187.15 C 183.89 187.87 184.04 188.88 184.76 189.41 Z M 185.58 190.01 L 186.38 190.59 C 187.10 191.11 188.10 190.95 188.62 190.24 C 189.14 189.52 188.98 188.52 188.27 188.00 L 187.47 187.42 C 186.75 186.90 185.75 187.06 185.23 187.77 C 184.71 188.49 184.87 189.49 185.58 190.01 Z M 186.40 190.59 L 187.19 191.15 C 187.90 191.66 188.89 191.50 189.40 190.78 C 189.91 190.07 189.75 189.08 189.04 188.57 L 188.25 188.00 C 187.53 187.49 186.54 187.66 186.03 188.37 C 185.52 189.08 185.69 190.08 186.40 190.59 Z M 187.20 191.15 L 188.02 191.73 C 188.73 192.23 189.72 192.06 190.22 191.34 C 190.72 190.63 190.55 189.65 189.84 189.14 L 189.02 188.57 C 188.31 188.07 187.32 188.24 186.82 188.95 C 186.32 189.66 186.49 190.65 187.20 191.15 Z M 188.03 191.73 L 188.87 192.30 C 189.58 192.80 190.56 192.62 191.05 191.91 C 191.55 191.19 191.37 190.21 190.66 189.72 L 189.83 189.14 C 189.11 188.65 188.13 188.83 187.64 189.54 C 187.14 190.25 187.32 191.23 188.03 191.73 Z M 188.87 192.31 L 189.70 192.87 C 190.41 193.36 191.39 193.18 191.88 192.46 C 192.37 191.75 192.19 190.77 191.47 190.28 L 190.65 189.72 C 189.93 189.23 188.96 189.41 188.47 190.12 C 187.98 190.84 188.16 191.82 188.87 192.31 Z M 189.70 192.87 L 190.52 193.43 C 191.24 193.91 192.21 193.73 192.70 193.01 C 193.18 192.29 193.00 191.32 192.28 190.84 L 191.46 190.28 C 190.75 189.79 189.78 189.98 189.29 190.70 C 188.80 191.41 188.99 192.38 189.70 192.87 Z M 190.53 193.42 L 191.29 193.94 C 192.01 194.42 192.98 194.24 193.46 193.52 C 193.94 192.81 193.76 191.84 193.04 191.35 L 192.28 190.84 C 191.56 190.35 190.59 190.54 190.11 191.26 C 189.63 191.97 189.81 192.94 190.53 193.42 Z"
      fill="black"
      fill-rule="nonzero" /></svg>