<svg xmlns="http://www.w3.org/2000/svg" width="300" height="300" viewBox="0 0 300 300">
<path d="M 145.31 116.09 L 145.43 117.07 C 145.53 118.00 146.37 118.66 147.30 118.55 C 148.23 118.45 148.90 117.61 148.79 116.68 L 148.68 115.70 C 148.57 114.77 147.73 114.11 146.80 114.21 C 145.87 114.32 145.21 115.16 145.31 116.09 Z M 145.39 117.10 L 145.52 118.10 C 145.65 119.05 146.52 119.72 147.47 119.59 C 148.43 119.47 149.09 118.59 148.97 117.64 L 148.83 116.64 C 148.71 115.69 147.83 115.02 146.88 115.15 C 145.93 115.27 145.26 116.15 145.39 117.10 Z M 145.50 118.16 L 145.66 119.13 C 145.82 120.10 146.73 120.75 147.69 120.59 C 148.66 120.43 149.31 119.52 149.15 118.56 L 148.99 117.58 C 148.83 116.62 147.92 115.97 146.95 116.12 C 145.99 116.28 145.34 117.20 145.50 118.16 Z M 145.66 119.19 L 145.86 120.18 C 146.05 121.14 146.99 121.76 147.95 121.57 C 148.91 121.37 149.54 120.44 149.34 119.48 L 149.15 118.49 C 148.95 117.53 148.02 116.91 147.05 117.10 C 146.09 117.30 145.47 118.23 145.66 119.19 Z M 145.87 120.23 L 146.11 121.23 C 146.33 122.19 147.29 122.78 148.25 122.55 C 149.20 122.33 149.79 121.37 149.57 120.42 L 149.33 119.42 C 149.10 118.46 148.15 117.87 147.19 118.10 C 146.24 118.32 145.65 119.28 145.87 120.23 Z M 146.13 121.29 L 146.40 122.28 C 146.66 123.22 147.63 123.78 148.58 123.52 C 149.52 123.26 150.08 122.29 149.82 121.34 L 149.55 120.36 C 149.29 119.41 148.31 118.86 147.37 119.12 C 146.43 119.37 145.87 120.35 146.13 121.29 Z M 146.42 122.35 L 146.73 123.29 C 147.02 124.22 148.02 124.74 148.95 124.44 C 149.88 124.14 150.39 123.15 150.09 122.22 L 149.79 121.27 C 149.49 120.34 148.50 119.83 147.57 120.13 C 146.64 120.43 146.13 121.42 146.42 122.35 Z M 146.77 123.39 L 147.15 124.35 C 147.50 125.25 148.51 125.70 149.41 125.35 C 150.32 125.00 150.76 123.98 150.41 123.08 L 150.04 122.12 C 149.69 121.22 148.68 120.77 147.78 121.12 C 146.87 121.47 146.43 122.49 146.77 123.39 Z M 147.23 124.48 L 147.67 125.36 C 148.09 126.22 149.13 126.57 149.98 126.14 C 150.83 125.72 151.19 124.69 150.76 123.83 L 150.33 122.95 C 149.90 122.10 148.87 121.74 148.02 122.17 C 147.16 122.59 146.81 123.62 147.23 124.48 Z M 147.80 125.52 L 148.34 126.34 C 148.84 127.12 149.89 127.34 150.67 126.83 C 151.45 126.32 151.67 125.28 151.16 124.50 L 150.63 123.68 C 150.12 122.90 149.08 122.68 148.30 123.18 C 147.52 123.69 147.30 124.74 147.80 125.52 Z M 148.47 126.45 L 149.10 127.22 C 149.67 127.93 150.70 128.04 151.41 127.47 C 152.11 126.90 152.22 125.86 151.65 125.16 L 151.03 124.38 C 150.46 123.68 149.42 123.57 148.72 124.14 C 148.01 124.71 147.90 125.74 148.47 126.45 Z M 149.16 127.25 L 149.42 127.55 C 150.01 128.22 151.02 128.30 151.70 127.71 C 152.37 127.13 152.44 126.11 151.86 125.44 L 151.59 125.13 C 151.01 124.46 149.99 124.39 149.32 124.97 C 148.65 125.56 148.58 126.57 149.16 127.25 Z"
      fill="black"
      fill-rule="nonzero" /><path d="M 131.84 138.24 L 132.59 137.70 C 133.36 137.14 133.53 136.06 132.97 135.29 C 132.41 134.52 131.33 134.35 130.56 134.91 L 129.81 135.46 C 129.04 136.02 128.87 137.09 129.43 137.87 C 129.99 138.64 131.07 138.81 131.84 138.24 Z M 132.58 137.84 L 133.41 137.30 C 134.26 136.75 134.50 135.61 133.94 134.76 C 133.39 133.91 132.25 133.67 131.40 134.22 L 130.57 134.77 C 129.72 135.32 129.48 136.46 130.03 137.31 C 130.59 138.16 131.73 138.40 132.58 137.84 Z M 133.33 137.46 L 134.27 136.95 C 135.21 136.44 135.55 135.26 135.04 134.32 C 134.52 133.38 133.35 133.04 132.41 133.55 L 131.47 134.06 C 130.53 134.58 130.19 135.75 130.70 136.69 C 131.22 137.63 132.39 137.98 133.33 137.46 Z M 134.17 137.05 L 135.08 136.63 C 136.07 136.17 136.50 134.99 136.04 134.00 C 135.58 133.00 134.40 132.57 133.41 133.03 L 132.50 133.45 C 131.51 133.91 131.08 135.09 131.54 136.09 C 132.00 137.08 133.18 137.51 134.17 137.05 Z M 135.01 136.66 L 135.96 136.27 C 136.98 135.84 137.46 134.68 137.03 133.67 C 136.61 132.65 135.45 132.17 134.43 132.60 L 133.48 133.00 C 132.46 133.42 131.99 134.58 132.41 135.60 C 132.83 136.61 134.00 137.09 135.01 136.66 Z M 135.92 136.29 L 136.84 135.93 C 137.87 135.54 138.38 134.38 137.99 133.36 C 137.59 132.33 136.44 131.82 135.41 132.21 L 134.48 132.57 C 133.45 132.97 132.94 134.12 133.34 135.15 C 133.73 136.18 134.89 136.69 135.92 136.29 Z M 136.80 135.95 L 137.81 135.59 C 138.85 135.22 139.39 134.07 139.01 133.03 C 138.64 132.00 137.49 131.46 136.46 131.83 L 135.45 132.19 C 134.41 132.57 133.87 133.71 134.25 134.75 C 134.62 135.79 135.77 136.33 136.80 135.95 Z M 137.77 135.61 L 138.71 135.29 C 139.75 134.94 140.32 133.80 139.96 132.76 C 139.61 131.71 138.47 131.15 137.43 131.50 L 136.49 131.81 C 135.45 132.17 134.88 133.30 135.24 134.35 C 135.59 135.40 136.73 135.96 137.77 135.61 Z M 138.69 135.30 L 139.57 135.01 C 140.62 134.67 141.20 133.54 140.85 132.48 C 140.51 131.43 139.38 130.86 138.33 131.20 L 137.44 131.49 C 136.39 131.84 135.82 132.97 136.16 134.02 C 136.51 135.07 137.64 135.64 138.69 135.30 Z M 139.58 135.01 L 140.49 134.71 C 141.54 134.36 142.12 133.23 141.77 132.18 C 141.42 131.13 140.29 130.56 139.24 130.90 L 138.32 131.20 C 137.27 131.55 136.70 132.68 137.05 133.73 C 137.39 134.78 138.53 135.36 139.58 135.01 Z M 140.49 134.71 L 141.45 134.39 C 142.50 134.05 143.07 132.92 142.72 131.87 C 142.38 130.82 141.25 130.24 140.20 130.59 L 139.24 130.90 C 138.19 131.25 137.62 132.38 137.96 133.43 C 138.31 134.48 139.44 135.05 140.49 134.71 Z M 141.44 134.40 L 142.41 134.08 C 143.46 133.74 144.04 132.62 143.70 131.56 C 143.36 130.51 142.23 129.93 141.18 130.27 L 140.21 130.59 C 139.15 130.93 138.58 132.05 138.92 133.11 C 139.26 134.16 140.38 134.74 141.44 134.40 Z M 142.39 134.09 L 143.34 133.79 C 144.39 133.46 144.98 132.34 144.65 131.28 C 144.32 130.23 143.19 129.64 142.14 129.97 L 141.19 130.27 C 140.14 130.60 139.55 131.72 139.88 132.78 C 140.21 133.83 141.34 134.42 142.39 134.09 Z M 143.32 133.80 L 144.29 133.50 C 145.35 133.18 145.94 132.07 145.62 131.01 C 145.30 129.95 144.19 129.35 143.13 129.67 L 142.16 129.97 C 141.10 130.29 140.50 131.40 140.82 132.46 C 141.14 133.52 142.26 134.12 143.32 133.80 Z M 144.26 133.51 L 145.24 133.23 C 146.30 132.92 146.91 131.81 146.60 130.75 C 146.30 129.69 145.19 129.08 144.13 129.39 L 143.15 129.67 C 142.09 129.97 141.48 131.08 141.79 132.14 C 142.09 133.20 143.20 133.81 144.26 133.51 Z M 145.21 133.23 L 146.18 132.97 C 147.24 132.68 147.87 131.58 147.58 130.51 C 147.28 129.45 146.18 128.82 145.12 129.11 L 144.15 129.38 C 143.09 129.67 142.46 130.77 142.75 131.84 C 143.05 132.90 144.15 133.53 145.21 133.23 Z M 146.16 132.97 L 147.12 132.72 C 148.19 132.44 148.82 131.34 148.54 130.27 C 148.26 129.21 147.17 128.57 146.10 128.85 L 145.14 129.11 C 144.07 129.39 143.43 130.49 143.72 131.55 C 144.00 132.62 145.09 133.25 146.16 132.97 Z M 147.11 132.72 L 148.08 132.47 C 149.14 132.19 149.78 131.10 149.51 130.03 C 149.23 128.97 148.14 128.33 147.07 128.60 L 146.11 128.85 C 145.04 129.13 144.40 130.22 144.68 131.29 C 144.95 132.36 146.04 133.00 147.11 132.72 Z M 148.07 132.47 L 149.04 132.22 C 150.10 131.95 150.75 130.86 150.47 129.79 C 150.20 128.72 149.11 128.08 148.04 128.35 L 147.08 128.60 C 146.01 128.88 145.37 129.96 145.64 131.03 C 145.91 132.10 147.00 132.74 148.07 132.47 Z M 149.02 132.22 L 150.00 131.98 C 151.07 131.71 151.72 130.63 151.45 129.56 C 151.18 128.49 150.10 127.84 149.03 128.11 L 148.06 128.35 C 146.99 128.62 146.34 129.70 146.60 130.77 C 146.87 131.84 147.96 132.49 149.02 132.22 Z M 149.98 131.98 L 150.96 131.75 C 152.03 131.49 152.69 130.41 152.43 129.34 C 152.17 128.27 151.09 127.61 150.02 127.87 L 149.04 128.11 C 147.97 128.36 147.31 129.44 147.57 130.51 C 147.83 131.58 148.91 132.24 149.98 131.98 Z M 150.94 131.75 L 151.92 131.53 C 153.00 131.28 153.66 130.21 153.42 129.13 C 153.17 128.06 152.09 127.39 151.02 127.64 L 150.04 127.87 C 148.97 128.11 148.30 129.19 148.55 130.26 C 148.80 131.33 149.87 132.00 150.94 131.75 Z M 151.91 131.53 L 152.88 131.31 C 153.96 131.07 154.63 130.00 154.39 128.93 C 154.15 127.85 153.08 127.18 152.01 127.42 L 151.03 127.64 C 149.96 127.88 149.28 128.94 149.52 130.02 C 149.77 131.09 150.83 131.77 151.91 131.53 Z M 152.87 131.31 L 153.85 131.10 C 154.93 130.86 155.61 129.80 155.37 128.72 C 155.14 127.65 154.07 126.96 153.00 127.20 L 152.02 127.42 C 150.94 127.65 150.26 128.72 150.50 129.79 C 150.73 130.87 151.80 131.55 152.87 131.31 Z M 153.85 131.10 L 154.83 130.88 C 155.91 130.65 156.59 129.59 156.36 128.51 C 156.12 127.44 155.06 126.75 153.98 126.99 L 153.00 127.20 C 151.92 127.43 151.24 128.50 151.47 129.57 C 151.71 130.65 152.77 131.33 153.85 131.10 Z M 154.83 130.88 L 155.79 130.67 C 156.87 130.44 157.55 129.38 157.32 128.31 C 157.09 127.23 156.03 126.55 154.95 126.78 L 153.99 126.99 C 152.91 127.22 152.23 128.28 152.46 129.36 C 152.69 130.43 153.75 131.12 154.83 130.88 Z M 155.80 130.67 L 156.76 130.46 C 157.84 130.23 158.52 129.17 158.28 128.09 C 158.05 127.02 156.99 126.34 155.92 126.57 L 154.95 126.78 C 153.88 127.02 153.20 128.08 153.43 129.15 C 153.66 130.22 154.72 130.90 155.80 130.67 Z M 156.77 130.45 L 157.74 130.24 C 158.80 130.00 159.48 128.95 159.24 127.88 C 159.01 126.81 157.95 126.13 156.88 126.37 L 155.91 126.58 C 154.84 126.82 154.17 127.87 154.40 128.94 C 154.64 130.01 155.70 130.69 156.77 130.45 Z M 157.74 130.23 L 158.72 130.01 C 159.79 129.77 160.46 128.72 160.22 127.66 C 159.99 126.59 158.93 125.92 157.87 126.16 L 156.88 126.38 C 155.82 126.61 155.14 127.67 155.38 128.73 C 155.62 129.80 156.67 130.47 157.74 130.23 Z M 158.72 130.00 L 159.73 129.78 C 160.78 129.54 161.45 128.49 161.21 127.43 C 160.98 126.37 159.93 125.70 158.87 125.94 L 157.87 126.17 C 156.81 126.40 156.14 127.45 156.38 128.51 C 156.61 129.57 157.67 130.24 158.72 130.00 Z M 159.73 129.76 L 160.72 129.54 C 161.77 129.30 162.43 128.25 162.19 127.19 C 161.95 126.14 160.90 125.49 159.85 125.73 L 158.86 125.95 C 157.81 126.20 157.15 127.24 157.39 128.30 C 157.63 129.35 158.68 130.01 159.73 129.76 Z M 160.74 129.52 L 161.69 129.29 C 162.73 129.04 163.37 127.99 163.12 126.95 C 162.87 125.90 161.82 125.26 160.77 125.51 L 159.83 125.74 C 158.78 126.00 158.14 127.05 158.39 128.09 C 158.65 129.13 159.70 129.77 160.74 129.52 Z M 161.72 129.27 L 162.74 129.01 C 163.77 128.74 164.39 127.68 164.12 126.65 C 163.85 125.61 162.79 124.99 161.76 125.27 L 160.74 125.53 C 159.71 125.80 159.09 126.86 159.36 127.89 C 159.63 128.93 160.69 129.54 161.72 129.27 Z M 162.76 128.99 L 163.67 128.74 C 164.70 128.46 165.30 127.40 165.02 126.38 C 164.74 125.35 163.68 124.75 162.66 125.03 L 161.74 125.28 C 160.71 125.56 160.11 126.62 160.39 127.64 C 160.67 128.67 161.73 129.27 162.76 128.99 Z M 163.66 128.74 L 164.57 128.49 C 165.59 128.22 166.20 127.16 165.92 126.14 C 165.64 125.12 164.59 124.51 163.57 124.79 L 162.66 125.04 C 161.64 125.31 161.04 126.36 161.31 127.39 C 161.59 128.41 162.64 129.01 163.66 128.74 Z M 164.58 128.48 L 165.55 128.21 C 166.57 127.93 167.16 126.88 166.88 125.86 C 166.60 124.85 165.55 124.25 164.53 124.53 L 163.56 124.80 C 162.55 125.08 161.95 126.14 162.23 127.15 C 162.51 128.17 163.57 128.76 164.58 128.48 Z M 165.58 128.19 L 166.55 127.91 C 167.55 127.61 168.13 126.56 167.83 125.55 C 167.54 124.54 166.48 123.97 165.47 124.27 L 164.51 124.55 C 163.50 124.85 162.93 125.90 163.22 126.91 C 163.52 127.91 164.57 128.49 165.58 128.19 Z M 166.52 127.91 L 167.50 127.63 C 168.51 127.35 169.09 126.31 168.81 125.30 C 168.53 124.30 167.49 123.71 166.48 123.99 L 165.50 124.27 C 164.50 124.55 163.91 125.59 164.19 126.60 C 164.47 127.60 165.51 128.19 166.52 127.91 Z M 167.39 127.65 L 168.38 127.44 C 169.40 127.22 170.04 126.22 169.82 125.20 C 169.60 124.18 168.60 123.54 167.58 123.76 L 166.59 123.97 C 165.57 124.19 164.93 125.20 165.15 126.21 C 165.37 127.23 166.37 127.88 167.39 127.65 Z M 168.17 127.46 L 169.20 127.36 C 170.23 127.25 170.98 126.33 170.87 125.30 C 170.77 124.27 169.85 123.52 168.82 123.63 L 167.79 123.73 C 166.76 123.84 166.01 124.76 166.12 125.79 C 166.22 126.82 167.14 127.57 168.17 127.46 Z M 169.02 127.35 L 170.00 127.35 C 171.03 127.35 171.86 126.51 171.85 125.48 C 171.85 124.45 171.01 123.62 169.98 123.63 L 169.00 123.63 C 167.97 123.63 167.14 124.47 167.14 125.50 C 167.15 126.53 167.99 127.36 169.02 127.35 Z M 169.93 127.34 L 170.49 127.36 C 171.51 127.39 172.37 126.59 172.40 125.57 C 172.44 124.55 171.64 123.69 170.61 123.66 L 170.05 123.64 C 169.03 123.60 168.17 124.40 168.14 125.43 C 168.11 126.45 168.91 127.30 169.93 127.34 Z"
      fill="black"
      fill-rule="nonzero" /><path d="M 143.79 139.69 L 143.92 138.45 C 144.02 137.52 143.35 136.68 142.41 136.58 C 141.48 136.48 140.64 137.16 140.54 138.09 L 140.41 139.33 C 140.31 140.26 140.99 141.10 141.92 141.20 C 142.86 141.30 143.69 140.62 143.79 139.69 Z M 141.01 137.01 L 140.94 137.08 C 140.24 137.75 140.22 138.86 140.89 139.56 C 141.57 140.26 142.68 140.28 143.38 139.61 L 143.45 139.54 C 144.15 138.87 144.17 137.75 143.50 137.05 C 142.83 136.35 141.71 136.33 141.01 137.01 Z M 140.44 137.87 L 140.14 138.95 C 139.88 139.90 140.44 140.88 141.39 141.14 C 142.33 141.40 143.31 140.85 143.58 139.90 L 143.88 138.82 C 144.14 137.87 143.58 136.89 142.63 136.63 C 141.69 136.36 140.71 136.92 140.44 137.87 Z M 140.18 138.83 L 139.78 139.94 C 139.46 140.87 139.94 141.89 140.87 142.22 C 141.80 142.55 142.82 142.06 143.15 141.13 L 143.54 140.02 C 143.87 139.09 143.39 138.07 142.46 137.74 C 141.53 137.41 140.51 137.90 140.18 138.83 Z M 139.83 139.83 L 139.42 140.78 C 139.04 141.68 139.46 142.73 140.36 143.12 C 141.27 143.51 142.32 143.09 142.71 142.18 L 143.11 141.24 C 143.50 140.33 143.08 139.28 142.17 138.89 C 141.26 138.51 140.21 138.93 139.83 139.83 Z M 139.45 140.72 L 139.02 141.63 C 138.60 142.52 138.98 143.58 139.88 144.00 C 140.77 144.42 141.83 144.04 142.25 143.15 L 142.68 142.24 C 143.10 141.35 142.72 140.28 141.82 139.86 C 140.93 139.44 139.87 139.83 139.45 140.72 Z M 139.04 141.59 L 138.58 142.51 C 138.14 143.39 138.49 144.47 139.37 144.91 C 140.25 145.35 141.33 144.99 141.77 144.11 L 142.23 143.19 C 142.67 142.31 142.32 141.24 141.44 140.79 C 140.55 140.35 139.48 140.71 139.04 141.59 Z M 138.60 142.48 L 138.13 143.36 C 137.66 144.23 137.99 145.31 138.86 145.77 C 139.73 146.24 140.81 145.91 141.28 145.04 L 141.75 144.15 C 142.21 143.28 141.88 142.20 141.01 141.74 C 140.14 141.28 139.06 141.61 138.60 142.48 Z M 138.15 143.32 L 137.69 144.14 C 137.20 144.99 137.50 146.08 138.36 146.57 C 139.22 147.05 140.30 146.75 140.79 145.89 L 141.25 145.08 C 141.74 144.22 141.44 143.13 140.58 142.65 C 139.72 142.16 138.64 142.46 138.15 143.32 Z M 137.71 144.10 L 137.20 144.95 C 136.70 145.80 136.97 146.89 137.82 147.40 C 138.66 147.90 139.76 147.63 140.26 146.78 L 140.77 145.93 C 141.27 145.08 141.00 143.99 140.15 143.49 C 139.31 142.98 138.21 143.26 137.71 144.10 Z M 137.22 144.92 L 136.69 145.78 C 136.17 146.61 136.42 147.71 137.25 148.23 C 138.09 148.75 139.19 148.50 139.71 147.66 L 140.24 146.81 C 140.76 145.98 140.51 144.88 139.67 144.36 C 138.84 143.84 137.74 144.09 137.22 144.92 Z M 136.70 145.75 L 136.16 146.59 C 135.63 147.41 135.86 148.51 136.69 149.05 C 137.51 149.58 138.61 149.35 139.15 148.53 L 139.69 147.69 C 140.23 146.86 139.99 145.76 139.17 145.23 C 138.34 144.69 137.24 144.93 136.70 145.75 Z M 136.18 146.56 L 135.62 147.39 C 135.07 148.20 135.29 149.31 136.10 149.86 C 136.91 150.41 138.02 150.19 138.57 149.38 L 139.13 148.55 C 139.68 147.74 139.46 146.63 138.65 146.08 C 137.84 145.53 136.73 145.75 136.18 146.56 Z M 135.65 147.36 L 135.07 148.18 C 134.50 148.98 134.69 150.09 135.49 150.65 C 136.29 151.22 137.40 151.03 137.96 150.23 L 138.54 149.41 C 139.11 148.61 138.92 147.50 138.12 146.94 C 137.32 146.37 136.21 146.56 135.65 147.36 Z M 135.09 148.15 L 134.50 148.96 C 133.91 149.74 134.08 150.85 134.87 151.43 C 135.66 152.02 136.76 151.85 137.35 151.06 L 137.94 150.26 C 138.52 149.47 138.36 148.36 137.57 147.78 C 136.78 147.20 135.67 147.36 135.09 148.15 Z M 134.51 148.94 L 133.91 149.74 C 133.31 150.52 133.47 151.63 134.24 152.22 C 135.02 152.81 136.13 152.66 136.72 151.88 L 137.33 151.08 C 137.92 150.30 137.77 149.19 136.99 148.60 C 136.21 148.01 135.10 148.16 134.51 148.94 Z M 133.92 149.73 L 133.30 150.53 C 132.70 151.30 132.85 152.41 133.62 153.01 C 134.39 153.60 135.50 153.46 136.10 152.69 L 136.71 151.89 C 137.31 151.11 137.17 150.00 136.39 149.41 C 135.62 148.81 134.51 148.96 133.92 149.73 Z M 133.32 150.52 L 132.70 151.30 C 132.10 152.07 132.23 153.17 132.99 153.77 C 133.75 154.38 134.86 154.24 135.46 153.48 L 136.08 152.70 C 136.68 151.93 136.55 150.83 135.79 150.23 C 135.02 149.62 133.92 149.76 133.32 150.52 Z M 132.72 151.28 L 132.12 152.02 C 131.51 152.77 131.62 153.88 132.37 154.49 C 133.12 155.10 134.22 154.99 134.83 154.24 L 135.44 153.50 C 136.05 152.75 135.94 151.65 135.19 151.03 C 134.44 150.42 133.33 150.53 132.72 151.28 Z M 132.15 152.00 L 131.53 152.72 C 130.91 153.45 131.00 154.56 131.73 155.18 C 132.47 155.81 133.57 155.72 134.19 154.98 L 134.81 154.26 C 135.43 153.53 135.34 152.43 134.61 151.80 C 133.87 151.17 132.77 151.26 132.15 152.00 Z M 131.55 152.70 L 130.85 153.50 C 130.22 154.23 130.29 155.33 131.01 155.96 C 131.73 156.60 132.83 156.53 133.47 155.80 L 134.17 155.00 C 134.81 154.28 134.74 153.18 134.01 152.54 C 133.29 151.91 132.19 151.98 131.55 152.70 Z M 130.87 153.50 L 130.22 154.22 C 129.58 154.93 129.64 156.03 130.35 156.67 C 131.07 157.30 132.16 157.24 132.80 156.53 L 133.45 155.81 C 134.09 155.10 134.03 154.00 133.31 153.36 C 132.60 152.72 131.51 152.78 130.87 153.50 Z M 130.25 154.21 L 129.56 154.95 C 128.92 155.64 128.96 156.73 129.66 157.38 C 130.35 158.02 131.44 157.98 132.09 157.29 L 132.77 156.54 C 133.42 155.85 133.38 154.76 132.68 154.11 C 131.98 153.47 130.90 153.51 130.25 154.21 Z M 129.61 154.92 L 128.88 155.66 C 128.22 156.33 128.23 157.41 128.90 158.07 C 129.58 158.73 130.66 158.72 131.32 158.05 L 132.04 157.31 C 132.70 156.64 132.69 155.56 132.02 154.90 C 131.35 154.24 130.27 154.25 129.61 154.92 Z M 128.95 155.61 L 128.19 156.32 C 127.51 156.95 127.47 158.02 128.10 158.71 C 128.74 159.39 129.81 159.43 130.49 158.80 L 131.25 158.09 C 131.94 157.46 131.98 156.39 131.34 155.70 C 130.70 155.02 129.63 154.98 128.95 155.61 Z M 128.27 156.27 L 127.49 156.92 C 126.78 157.51 126.68 158.57 127.27 159.28 C 127.86 159.99 128.92 160.09 129.63 159.50 L 130.41 158.84 C 131.12 158.25 131.22 157.20 130.63 156.49 C 130.04 155.78 128.98 155.68 128.27 156.27 Z M 127.55 156.89 L 126.77 157.49 C 126.05 158.05 125.91 159.08 126.46 159.81 C 127.02 160.53 128.06 160.67 128.78 160.12 L 129.56 159.52 C 130.29 158.97 130.43 157.93 129.87 157.20 C 129.32 156.48 128.28 156.34 127.55 156.89 Z M 126.81 157.49 L 126.21 157.93 C 125.48 158.46 125.33 159.49 125.86 160.21 C 126.40 160.94 127.42 161.10 128.15 160.56 L 128.75 160.12 C 129.48 159.58 129.63 158.56 129.10 157.83 C 128.56 157.11 127.54 156.95 126.81 157.49 Z"
      fill="black"
      fill-rule="nonzero" /><path d="M 137.18 151.07 L 136.94 151.94 C 136.69 152.88 137.25 153.85 138.19 154.10 C 139.13 154.35 140.10 153.80 140.35 152.85 L 140.58 151.98 C 140.83 151.04 140.28 150.07 139.34 149.82 C 138.40 149.57 137.43 150.13 137.18 151.07 Z M 136.80 151.97 L 136.55 153.00 C 136.32 154.02 136.95 155.04 137.97 155.28 C 138.99 155.52 140.01 154.89 140.25 153.87 L 140.49 152.83 C 140.73 151.81 140.10 150.79 139.08 150.55 C 138.06 150.31 137.04 150.95 136.80 151.97 Z M 136.46 153.05 L 136.28 154.00 C 136.07 155.07 136.76 156.11 137.83 156.32 C 138.90 156.53 139.94 155.83 140.16 154.76 L 140.34 153.82 C 140.55 152.75 139.86 151.71 138.79 151.49 C 137.72 151.28 136.68 151.98 136.46 153.05 Z M 136.26 154.04 L 136.09 155.03 C 135.90 156.11 136.62 157.14 137.70 157.33 C 138.78 157.52 139.81 156.80 140.00 155.72 L 140.17 154.72 C 140.36 153.64 139.64 152.61 138.56 152.42 C 137.48 152.23 136.45 152.96 136.26 154.04 Z M 136.08 155.07 L 135.92 156.10 C 135.75 157.18 136.48 158.20 137.57 158.37 C 138.65 158.54 139.67 157.80 139.84 156.72 L 140.00 155.69 C 140.17 154.61 139.43 153.59 138.35 153.42 C 137.27 153.25 136.25 153.98 136.08 155.07 Z M 135.91 156.13 L 135.77 157.13 C 135.62 158.22 136.37 159.22 137.45 159.38 C 138.54 159.53 139.54 158.78 139.70 157.69 L 139.84 156.69 C 139.99 155.61 139.24 154.60 138.16 154.45 C 137.07 154.29 136.07 155.05 135.91 156.13 Z M 135.77 157.16 L 135.65 158.14 C 135.51 159.22 136.27 160.22 137.36 160.35 C 138.44 160.49 139.43 159.73 139.57 158.65 L 139.70 157.67 C 139.84 156.58 139.07 155.59 137.99 155.45 C 136.90 155.31 135.91 156.08 135.77 157.16 Z M 135.65 158.16 L 135.53 159.15 C 135.40 160.23 136.17 161.21 137.25 161.34 C 138.33 161.47 139.32 160.70 139.45 159.62 L 139.57 158.63 C 139.70 157.55 138.93 156.57 137.84 156.44 C 136.76 156.30 135.78 157.08 135.65 158.16 Z M 135.53 159.16 L 135.42 160.11 C 135.30 161.19 136.07 162.17 137.15 162.30 C 138.23 162.42 139.20 161.65 139.33 160.57 L 139.44 159.61 C 139.57 158.53 138.80 157.56 137.72 157.43 C 136.64 157.30 135.66 158.08 135.53 159.16 Z M 135.42 160.12 L 135.31 161.08 C 135.19 162.16 135.97 163.13 137.04 163.26 C 138.12 163.38 139.09 162.61 139.22 161.53 L 139.33 160.56 C 139.45 159.49 138.68 158.51 137.60 158.39 C 136.52 158.27 135.55 159.04 135.42 160.12 Z M 135.32 161.09 L 135.21 162.11 C 135.09 163.18 135.87 164.15 136.94 164.27 C 138.02 164.38 138.99 163.61 139.11 162.53 L 139.22 161.52 C 139.33 160.44 138.55 159.47 137.48 159.35 C 136.40 159.24 135.43 160.02 135.32 161.09 Z M 135.21 162.12 L 135.10 163.17 C 135.00 164.24 135.78 165.20 136.86 165.31 C 137.93 165.42 138.89 164.63 139.00 163.56 L 139.11 162.51 C 139.21 161.44 138.43 160.48 137.35 160.37 C 136.28 160.26 135.32 161.05 135.21 162.12 Z M 135.10 163.18 L 135.02 164.13 C 134.92 165.21 135.71 166.16 136.79 166.26 C 137.86 166.36 138.81 165.56 138.91 164.49 L 139.00 163.54 C 139.10 162.46 138.31 161.51 137.23 161.41 C 136.15 161.32 135.20 162.11 135.10 163.18 Z M 135.02 164.14 L 134.93 165.13 C 134.84 166.20 135.64 167.15 136.71 167.24 C 137.79 167.33 138.73 166.54 138.82 165.46 L 138.91 164.48 C 139.00 163.41 138.21 162.46 137.13 162.37 C 136.06 162.27 135.11 163.07 135.02 164.14 Z M 134.94 165.13 L 134.85 166.15 C 134.76 167.22 135.56 168.16 136.63 168.25 C 137.70 168.34 138.65 167.55 138.74 166.48 L 138.82 165.46 C 138.91 164.39 138.12 163.44 137.04 163.35 C 135.97 163.26 135.03 164.06 134.94 165.13 Z M 134.85 166.15 L 134.77 167.19 C 134.67 168.26 135.47 169.20 136.54 169.29 C 137.61 169.38 138.55 168.59 138.64 167.52 L 138.73 166.48 C 138.82 165.41 138.03 164.46 136.96 164.37 C 135.89 164.28 134.95 165.08 134.85 166.15 Z M 134.77 167.18 L 134.68 168.16 C 134.59 169.23 135.38 170.17 136.45 170.26 C 137.52 170.36 138.46 169.57 138.55 168.50 L 138.64 167.52 C 138.73 166.46 137.94 165.51 136.88 165.42 C 135.81 165.33 134.86 166.12 134.77 167.18 Z M 134.69 168.16 L 134.60 169.15 C 134.50 170.21 135.29 171.15 136.36 171.25 C 137.42 171.34 138.36 170.56 138.46 169.49 L 138.55 168.50 C 138.65 167.44 137.86 166.49 136.79 166.40 C 135.73 166.30 134.79 167.09 134.69 168.16 Z M 134.61 169.14 L 134.51 170.15 C 134.42 171.21 135.20 172.15 136.26 172.25 C 137.33 172.34 138.27 171.56 138.36 170.50 L 138.46 169.49 C 138.55 168.43 137.77 167.49 136.71 167.39 C 135.64 167.30 134.70 168.08 134.61 169.14 Z M 134.52 170.15 L 134.43 171.15 C 134.33 172.22 135.11 173.15 136.17 173.25 C 137.23 173.35 138.17 172.57 138.27 171.51 L 138.36 170.50 C 138.46 169.44 137.68 168.50 136.61 168.40 C 135.55 168.30 134.62 169.08 134.52 170.15 Z M 134.43 171.16 L 134.34 172.16 C 134.24 173.22 135.02 174.16 136.08 174.25 C 137.14 174.35 138.08 173.57 138.17 172.51 L 138.26 171.50 C 138.36 170.45 137.58 169.51 136.52 169.41 C 135.46 169.32 134.53 170.10 134.43 171.16 Z M 134.35 172.16 L 134.25 173.17 C 134.16 174.22 134.94 175.15 135.99 175.25 C 137.05 175.35 137.98 174.57 138.07 173.51 L 138.17 172.51 C 138.26 171.46 137.48 170.52 136.43 170.43 C 135.37 170.33 134.44 171.11 134.35 172.16 Z M 134.26 173.16 L 134.17 174.16 C 134.07 175.22 134.85 176.15 135.90 176.24 C 136.95 176.34 137.88 175.57 137.98 174.51 L 138.07 173.52 C 138.16 172.46 137.39 171.53 136.34 171.44 C 135.29 171.34 134.36 172.11 134.26 173.16 Z M 134.18 174.16 L 134.08 175.15 C 133.98 176.20 134.75 177.13 135.80 177.23 C 136.85 177.33 137.78 176.56 137.87 175.51 L 137.97 174.52 C 138.07 173.47 137.30 172.54 136.25 172.44 C 135.20 172.34 134.28 173.11 134.18 174.16 Z M 134.09 175.15 L 133.99 176.13 C 133.89 177.17 134.65 178.10 135.69 178.21 C 136.74 178.31 137.67 177.55 137.77 176.50 L 137.87 175.52 C 137.97 174.48 137.21 173.55 136.17 173.44 C 135.12 173.34 134.19 174.10 134.09 175.15 Z M 134.00 176.12 L 133.89 177.12 C 133.79 178.16 134.54 179.09 135.58 179.20 C 136.62 179.30 137.55 178.55 137.66 177.51 L 137.76 176.51 C 137.87 175.48 137.12 174.54 136.08 174.44 C 135.04 174.33 134.11 175.08 134.00 176.12 Z M 133.90 177.11 L 133.80 178.10 C 133.68 179.13 134.43 180.06 135.46 180.18 C 136.49 180.29 137.42 179.55 137.54 178.51 L 137.65 177.52 C 137.76 176.49 137.02 175.56 135.98 175.44 C 134.95 175.33 134.02 176.08 133.90 177.11 Z M 133.81 178.09 L 133.69 179.08 C 133.57 180.11 134.31 181.04 135.34 181.16 C 136.37 181.27 137.30 180.54 137.41 179.51 L 137.53 178.52 C 137.65 177.49 136.91 176.56 135.88 176.44 C 134.85 176.33 133.92 177.06 133.81 178.09 Z M 133.70 179.08 L 133.58 180.07 C 133.46 181.09 134.19 182.02 135.22 182.14 C 136.24 182.26 137.17 181.53 137.29 180.51 L 137.40 179.52 C 137.53 178.49 136.80 177.57 135.77 177.44 C 134.75 177.32 133.82 178.05 133.70 179.08 Z M 133.59 180.06 L 133.47 181.07 C 133.35 182.09 134.07 183.01 135.09 183.14 C 136.10 183.26 137.03 182.54 137.15 181.52 L 137.28 180.51 C 137.40 179.50 136.68 178.57 135.66 178.45 C 134.64 178.32 133.72 179.05 133.59 180.06 Z M 133.49 181.07 L 133.36 182.09 C 133.23 183.10 133.95 184.02 134.96 184.14 C 135.97 184.27 136.89 183.55 137.01 182.54 L 137.14 181.52 C 137.26 180.51 136.55 179.60 135.54 179.47 C 134.53 179.35 133.61 180.06 133.49 181.07 Z M 133.37 182.09 L 133.25 183.10 C 133.12 184.10 133.83 185.01 134.83 185.14 C 135.83 185.26 136.75 184.55 136.87 183.55 L 137.00 182.54 C 137.12 181.54 136.41 180.63 135.41 180.50 C 134.41 180.38 133.50 181.09 133.37 182.09 Z M 133.26 183.10 L 133.14 184.08 C 133.01 185.07 133.72 185.98 134.71 186.10 C 135.70 186.23 136.61 185.52 136.73 184.53 L 136.86 183.55 C 136.98 182.56 136.28 181.65 135.29 181.53 C 134.29 181.40 133.39 182.10 133.26 183.10 Z M 133.15 184.08 L 133.03 185.05 C 132.91 186.03 133.61 186.93 134.59 187.06 C 135.58 187.18 136.48 186.48 136.60 185.50 L 136.72 184.53 C 136.84 183.54 136.14 182.64 135.16 182.52 C 134.18 182.40 133.28 183.10 133.15 184.08 Z M 133.05 185.05 L 132.92 186.12 C 132.80 187.09 133.49 187.98 134.47 188.10 C 135.44 188.22 136.33 187.53 136.45 186.55 L 136.58 185.49 C 136.70 184.52 136.01 183.63 135.03 183.51 C 134.06 183.38 133.17 184.08 133.05 185.05 Z M 132.94 186.12 L 132.81 187.11 C 132.69 188.08 133.38 188.96 134.35 189.08 C 135.31 189.20 136.19 188.51 136.31 187.55 L 136.43 186.55 C 136.55 185.59 135.87 184.71 134.90 184.59 C 133.93 184.47 133.05 185.15 132.94 186.12 Z M 132.83 187.11 L 132.71 188.05 C 132.59 189.01 133.27 189.88 134.23 190.00 C 135.18 190.12 136.06 189.44 136.18 188.49 L 136.29 187.55 C 136.41 186.59 135.73 185.72 134.78 185.60 C 133.82 185.48 132.95 186.16 132.83 187.11 Z M 132.73 188.05 L 132.60 189.05 C 132.48 189.99 133.15 190.86 134.10 190.98 C 135.04 191.10 135.91 190.43 136.03 189.49 L 136.16 188.49 C 136.28 187.54 135.61 186.68 134.66 186.56 C 133.72 186.44 132.85 187.10 132.73 188.05 Z M 132.63 189.04 L 132.49 190.06 C 132.37 191.00 133.03 191.85 133.96 191.98 C 134.89 192.10 135.75 191.44 135.87 190.51 L 136.01 189.49 C 136.13 188.55 135.47 187.70 134.54 187.58 C 133.60 187.45 132.75 188.11 132.63 189.04 Z M 132.51 190.07 L 132.39 191.02 C 132.27 191.95 132.92 192.79 133.84 192.91 C 134.76 193.03 135.61 192.38 135.73 191.46 L 135.85 190.50 C 135.97 189.58 135.32 188.74 134.40 188.62 C 133.48 188.50 132.63 189.15 132.51 190.07 Z M 132.41 191.04 L 132.29 192.01 C 132.18 192.92 132.83 193.75 133.74 193.86 C 134.65 193.97 135.47 193.33 135.59 192.42 L 135.71 191.44 C 135.82 190.53 135.17 189.70 134.26 189.59 C 133.35 189.48 132.52 190.13 132.41 191.04 Z M 132.31 192.04 L 132.21 193.03 C 132.11 193.93 132.76 194.73 133.66 194.83 C 134.57 194.92 135.37 194.27 135.47 193.37 L 135.57 192.38 C 135.66 191.48 135.01 190.68 134.11 190.58 C 133.21 190.49 132.40 191.14 132.31 192.04 Z M 132.22 193.07 L 132.14 194.06 C 132.07 194.95 132.74 195.73 133.63 195.80 C 134.53 195.87 135.31 195.20 135.38 194.31 L 135.45 193.32 C 135.52 192.43 134.85 191.65 133.96 191.58 C 133.07 191.51 132.29 192.18 132.22 193.07 Z M 132.08 194.10 L 132.03 195.07 C 131.99 196.00 132.70 196.79 133.63 196.83 C 134.55 196.88 135.34 196.17 135.39 195.24 L 135.44 194.27 C 135.48 193.34 134.77 192.56 133.84 192.51 C 132.92 192.46 132.13 193.18 132.08 194.10 Z M 131.91 195.09 L 131.87 196.11 C 131.84 197.10 132.62 197.94 133.61 197.97 C 134.61 198.00 135.44 197.22 135.48 196.23 L 135.51 195.22 C 135.55 194.22 134.77 193.39 133.77 193.35 C 132.78 193.32 131.94 194.10 131.91 195.09 Z M 131.77 196.11 L 131.75 196.82 C 131.72 197.87 132.55 198.75 133.60 198.78 C 134.66 198.81 135.53 197.98 135.56 196.93 L 135.58 196.22 C 135.61 195.17 134.78 194.29 133.73 194.26 C 132.68 194.23 131.80 195.06 131.77 196.11 Z"
      fill="black"
      fill-rule="nonzero" /><path d="M 154.23 134.84 L 154.21 135.81 C 154.20 136.76 154.96 137.55 155.91 137.56 C 156.86 137.58 157.65 136.82 157.67 135.87 L 157.69 134.90 C 157.70 133.95 156.94 133.16 155.99 133.14 C 155.04 133.13 154.25 133.88 154.23 134.84 Z M 154.23 135.63 L 154.11 136.65 C 154.00 137.59 154.67 138.45 155.61 138.56 C 156.56 138.68 157.41 138.00 157.53 137.06 L 157.65 136.04 C 157.76 135.10 157.09 134.24 156.15 134.13 C 155.20 134.02 154.35 134.69 154.23 135.63 Z M 154.17 136.42 L 153.93 137.32 C 153.68 138.23 154.23 139.17 155.14 139.41 C 156.05 139.65 156.99 139.11 157.23 138.19 L 157.47 137.29 C 157.71 136.38 157.17 135.44 156.26 135.20 C 155.34 134.96 154.41 135.50 154.17 136.42 Z M 153.98 137.19 L 153.64 138.15 C 153.33 139.03 153.79 140.00 154.67 140.31 C 155.56 140.62 156.52 140.16 156.84 139.28 L 157.18 138.32 C 157.49 137.44 157.03 136.47 156.15 136.16 C 155.26 135.85 154.29 136.31 153.98 137.19 Z M 153.67 138.10 L 153.30 139.07 C 152.96 139.93 153.39 140.91 154.25 141.25 C 155.12 141.58 156.09 141.15 156.43 140.29 L 156.81 139.32 C 157.14 138.46 156.71 137.48 155.85 137.15 C 154.98 136.81 154.01 137.24 153.67 138.10 Z M 153.31 139.06 L 152.95 139.98 C 152.61 140.83 153.03 141.81 153.89 142.15 C 154.74 142.49 155.72 142.07 156.06 141.21 L 156.42 140.30 C 156.76 139.44 156.34 138.46 155.48 138.12 C 154.62 137.78 153.65 138.20 153.31 139.06 Z M 152.95 139.97 L 152.57 140.91 C 152.23 141.77 152.64 142.74 153.50 143.08 C 154.35 143.43 155.33 143.01 155.67 142.16 L 156.05 141.22 C 156.40 140.36 155.98 139.39 155.13 139.04 C 154.27 138.70 153.30 139.11 152.95 139.97 Z M 152.58 140.90 L 152.19 141.86 C 151.84 142.71 152.25 143.68 153.10 144.03 C 153.95 144.38 154.92 143.97 155.27 143.12 L 155.66 142.17 C 156.01 141.32 155.61 140.34 154.76 139.99 C 153.90 139.64 152.93 140.05 152.58 140.90 Z M 152.20 141.84 L 151.80 142.79 C 151.45 143.64 151.84 144.61 152.69 144.97 C 153.54 145.32 154.51 144.92 154.87 144.08 L 155.26 143.13 C 155.62 142.29 155.22 141.31 154.37 140.95 C 153.53 140.60 152.55 141.00 152.20 141.84 Z M 151.81 142.78 L 151.41 143.69 C 151.05 144.54 151.44 145.51 152.29 145.87 C 153.13 146.24 154.11 145.85 154.47 145.00 L 154.86 144.09 C 155.22 143.24 154.83 142.27 153.99 141.91 C 153.15 141.54 152.17 141.93 151.81 142.78 Z M 151.42 143.68 L 151.02 144.59 C 150.65 145.42 151.03 146.40 151.87 146.77 C 152.71 147.14 153.69 146.76 154.06 145.92 L 154.46 145.02 C 154.83 144.18 154.45 143.20 153.61 142.83 C 152.77 142.46 151.79 142.84 151.42 143.68 Z M 151.03 144.58 L 150.61 145.51 C 150.23 146.35 150.61 147.33 151.44 147.70 C 152.28 148.08 153.26 147.71 153.63 146.87 L 154.05 145.93 C 154.43 145.10 154.06 144.12 153.22 143.74 C 152.39 143.37 151.40 143.74 151.03 144.58 Z M 150.61 145.52 L 150.21 146.41 C 149.84 147.25 150.22 148.22 151.06 148.59 C 151.90 148.96 152.87 148.58 153.24 147.75 L 153.63 146.86 C 154.00 146.02 153.63 145.05 152.79 144.68 C 151.95 144.31 150.97 144.69 150.61 145.52 Z M 150.19 146.46 L 149.74 147.58 C 149.40 148.43 149.81 149.39 150.66 149.73 C 151.51 150.07 152.48 149.66 152.82 148.81 L 153.27 147.70 C 153.61 146.85 153.20 145.88 152.35 145.54 C 151.50 145.20 150.53 145.61 150.19 146.46 Z M 149.64 147.88 L 149.49 148.67 C 149.32 149.58 149.92 150.45 150.82 150.62 C 151.73 150.79 152.60 150.20 152.77 149.29 L 152.92 148.50 C 153.09 147.60 152.50 146.73 151.59 146.55 C 150.69 146.38 149.82 146.98 149.64 147.88 Z M 151.74 150.55 L 152.36 150.31 C 153.22 149.97 153.65 148.99 153.31 148.13 C 152.97 147.26 152.00 146.84 151.13 147.18 L 150.52 147.42 C 149.66 147.76 149.23 148.73 149.57 149.59 C 149.91 150.46 150.88 150.88 151.74 150.55 Z M 152.84 150.04 L 153.73 149.28 C 154.44 148.68 154.54 147.61 153.93 146.90 C 153.33 146.18 152.26 146.09 151.55 146.69 L 150.65 147.45 C 149.94 148.05 149.85 149.12 150.45 149.83 C 151.05 150.55 152.12 150.64 152.84 150.04 Z M 153.76 149.27 L 154.49 148.63 C 155.20 148.01 155.27 146.93 154.65 146.22 C 154.03 145.52 152.95 145.45 152.24 146.07 L 151.52 146.71 C 150.81 147.33 150.74 148.40 151.36 149.11 C 151.98 149.82 153.06 149.89 153.76 149.27 Z M 154.49 148.64 L 155.26 147.96 C 155.97 147.34 156.04 146.26 155.42 145.55 C 154.80 144.84 153.72 144.77 153.01 145.39 L 152.24 146.06 C 151.53 146.68 151.46 147.76 152.08 148.47 C 152.70 149.19 153.78 149.26 154.49 148.64 Z M 155.26 147.98 L 155.95 147.38 C 156.67 146.76 156.76 145.67 156.14 144.95 C 155.52 144.23 154.43 144.15 153.71 144.77 L 153.01 145.37 C 152.29 145.99 152.21 147.08 152.83 147.80 C 153.45 148.52 154.54 148.60 155.26 147.98 Z M 155.95 147.40 L 156.73 146.74 C 157.46 146.13 157.56 145.04 156.94 144.30 C 156.33 143.57 155.24 143.48 154.51 144.09 L 153.72 144.75 C 152.99 145.37 152.90 146.46 153.51 147.19 C 154.12 147.92 155.21 148.01 155.95 147.40 Z M 156.72 146.76 L 157.55 146.09 C 158.29 145.48 158.40 144.39 157.79 143.64 C 157.19 142.90 156.09 142.79 155.35 143.39 L 154.52 144.07 C 153.78 144.68 153.67 145.77 154.27 146.51 C 154.88 147.26 155.98 147.37 156.72 146.76 Z M 157.54 146.11 L 158.30 145.50 C 159.06 144.90 159.19 143.80 158.58 143.04 C 157.98 142.28 156.88 142.16 156.12 142.76 L 155.36 143.37 C 154.60 143.97 154.48 145.07 155.08 145.83 C 155.68 146.59 156.78 146.71 157.54 146.11 Z M 158.30 145.52 L 159.10 144.90 C 159.86 144.30 160.00 143.19 159.40 142.42 C 158.80 141.65 157.69 141.52 156.93 142.12 L 156.13 142.74 C 155.36 143.34 155.23 144.45 155.82 145.22 C 156.42 145.98 157.53 146.12 158.30 145.52 Z M 159.10 144.91 L 159.90 144.29 C 160.68 143.69 160.82 142.58 160.22 141.80 C 159.62 141.02 158.51 140.88 157.73 141.48 L 156.93 142.10 C 156.15 142.70 156.01 143.82 156.61 144.59 C 157.21 145.37 158.32 145.51 159.10 144.91 Z M 159.90 144.30 L 160.74 143.66 C 161.52 143.07 161.67 141.94 161.07 141.16 C 160.47 140.38 159.35 140.23 158.57 140.83 L 157.73 141.46 C 156.95 142.06 156.80 143.18 157.40 143.97 C 158.00 144.75 159.12 144.90 159.90 144.30 Z M 160.72 143.68 L 161.55 143.07 C 162.35 142.48 162.51 141.36 161.92 140.56 C 161.33 139.77 160.21 139.60 159.42 140.19 L 158.59 140.81 C 157.79 141.40 157.63 142.52 158.22 143.31 C 158.81 144.11 159.93 144.27 160.72 143.68 Z M 161.51 143.11 L 162.31 142.55 C 163.12 141.98 163.32 140.87 162.76 140.05 C 162.19 139.24 161.07 139.03 160.26 139.60 L 159.46 140.15 C 158.64 140.72 158.44 141.84 159.01 142.65 C 159.57 143.47 160.69 143.67 161.51 143.11 Z M 162.22 142.62 L 163.12 142.07 C 163.97 141.56 164.24 140.44 163.73 139.59 C 163.21 138.74 162.10 138.47 161.24 138.98 L 160.34 139.53 C 159.49 140.05 159.22 141.16 159.74 142.01 C 160.26 142.87 161.37 143.14 162.22 142.62 Z M 162.83 142.24 L 163.83 141.87 C 164.78 141.51 165.25 140.45 164.89 139.50 C 164.53 138.55 163.47 138.08 162.52 138.44 L 161.53 138.81 C 160.58 139.17 160.11 140.23 160.47 141.18 C 160.83 142.13 161.89 142.60 162.83 142.24 Z M 162.59 141.93 L 163.27 142.15 C 164.25 142.47 165.31 141.94 165.63 140.95 C 165.95 139.97 165.41 138.91 164.43 138.59 L 163.76 138.37 C 162.77 138.05 161.72 138.59 161.40 139.57 C 161.07 140.55 161.61 141.61 162.59 141.93 Z M 162.06 141.00 L 162.33 141.76 C 162.67 142.75 163.75 143.28 164.74 142.93 C 165.73 142.59 166.25 141.50 165.91 140.52 L 165.64 139.75 C 165.29 138.76 164.21 138.24 163.22 138.58 C 162.24 138.93 161.71 140.01 162.06 141.00 Z M 162.21 141.19 L 162.23 142.30 C 162.26 143.35 163.14 144.19 164.19 144.16 C 165.25 144.13 166.08 143.26 166.05 142.20 L 166.03 141.09 C 166.00 140.04 165.13 139.20 164.07 139.23 C 163.02 139.26 162.18 140.13 162.21 141.19 Z M 162.23 142.03 L 162.11 143.16 C 161.99 144.22 162.74 145.17 163.80 145.29 C 164.85 145.41 165.81 144.65 165.93 143.60 L 166.05 142.47 C 166.17 141.41 165.42 140.46 164.36 140.34 C 163.31 140.22 162.35 140.98 162.23 142.03 Z M 162.12 143.01 L 161.92 144.03 C 161.71 145.08 162.40 146.09 163.44 146.30 C 164.49 146.50 165.50 145.82 165.71 144.78 L 165.91 143.75 C 166.12 142.71 165.43 141.69 164.39 141.49 C 163.34 141.28 162.33 141.96 162.12 143.01 Z M 161.94 143.94 L 161.70 144.88 C 161.45 145.92 162.08 146.97 163.12 147.22 C 164.15 147.48 165.20 146.85 165.46 145.81 L 165.69 144.87 C 165.95 143.83 165.32 142.78 164.28 142.52 C 163.24 142.27 162.19 142.90 161.94 143.94 Z M 161.71 144.84 L 161.45 145.82 C 161.17 146.86 161.78 147.92 162.82 148.20 C 163.85 148.47 164.91 147.86 165.19 146.83 L 165.45 145.85 C 165.73 144.81 165.12 143.75 164.08 143.47 C 163.05 143.20 161.99 143.81 161.71 144.84 Z M 161.45 145.81 L 161.19 146.76 C 160.90 147.79 161.51 148.86 162.55 149.14 C 163.58 149.43 164.65 148.82 164.93 147.78 L 165.19 146.84 C 165.47 145.80 164.86 144.74 163.83 144.45 C 162.80 144.17 161.73 144.78 161.45 145.81 Z M 161.19 146.75 L 160.94 147.66 C 160.64 148.69 161.25 149.76 162.28 150.05 C 163.31 150.34 164.38 149.74 164.67 148.71 L 164.93 147.80 C 165.22 146.77 164.62 145.69 163.58 145.40 C 162.55 145.11 161.48 145.71 161.19 146.75 Z M 160.94 147.65 L 160.66 148.61 C 160.37 149.64 160.96 150.71 161.99 151.01 C 163.02 151.30 164.10 150.71 164.39 149.68 L 164.67 148.72 C 164.97 147.69 164.37 146.61 163.34 146.31 C 162.31 146.02 161.23 146.61 160.94 147.65 Z M 160.66 148.60 L 160.38 149.56 C 160.08 150.59 160.68 151.67 161.71 151.97 C 162.74 152.27 163.81 151.68 164.11 150.65 L 164.39 149.68 C 164.69 148.65 164.10 147.58 163.07 147.28 C 162.04 146.98 160.96 147.57 160.66 148.60 Z M 160.38 149.55 L 160.10 150.50 C 159.80 151.53 160.38 152.61 161.41 152.92 C 162.44 153.23 163.52 152.64 163.83 151.61 L 164.11 150.66 C 164.42 149.63 163.83 148.55 162.80 148.24 C 161.77 147.94 160.69 148.52 160.38 149.55 Z M 160.11 150.47 L 159.81 151.43 C 159.49 152.45 160.06 153.55 161.08 153.87 C 162.11 154.19 163.20 153.62 163.52 152.60 L 163.82 151.64 C 164.14 150.62 163.57 149.52 162.55 149.20 C 161.52 148.88 160.43 149.45 160.11 150.47 Z M 159.82 151.40 L 159.51 152.33 C 159.17 153.35 159.72 154.45 160.74 154.79 C 161.76 155.13 162.87 154.58 163.20 153.55 L 163.51 152.63 C 163.85 151.60 163.30 150.50 162.28 150.16 C 161.26 149.82 160.16 150.38 159.82 151.40 Z M 159.51 152.33 L 159.18 153.30 C 158.84 154.33 159.40 155.43 160.42 155.77 C 161.44 156.11 162.54 155.55 162.88 154.53 L 163.21 153.55 C 163.55 152.53 162.99 151.43 161.97 151.09 C 160.95 150.75 159.84 151.31 159.51 152.33 Z M 159.17 153.33 L 158.87 154.26 C 158.55 155.29 159.12 156.39 160.14 156.71 C 161.17 157.04 162.27 156.47 162.60 155.45 L 162.89 154.51 C 163.22 153.48 162.65 152.38 161.62 152.06 C 160.60 151.73 159.50 152.30 159.17 153.33 Z M 158.87 154.27 L 158.57 155.23 C 158.25 156.26 158.82 157.36 159.85 157.68 C 160.88 158.00 161.98 157.43 162.30 156.40 L 162.60 155.44 C 162.92 154.40 162.35 153.31 161.32 152.99 C 160.29 152.66 159.19 153.24 158.87 154.27 Z M 158.57 155.22 L 158.26 156.18 C 157.94 157.21 158.51 158.31 159.54 158.64 C 160.57 158.97 161.67 158.40 162.00 157.36 L 162.30 156.41 C 162.63 155.38 162.06 154.27 161.03 153.95 C 159.99 153.62 158.89 154.19 158.57 155.22 Z M 158.27 156.17 L 157.96 157.11 C 157.63 158.14 158.19 159.24 159.22 159.58 C 160.25 159.91 161.36 159.35 161.69 158.32 L 162.00 157.38 C 162.33 156.35 161.77 155.24 160.74 154.91 C 159.71 154.57 158.60 155.14 158.27 156.17 Z M 157.96 157.10 L 157.65 158.06 C 157.31 159.09 157.87 160.20 158.90 160.54 C 159.93 160.87 161.04 160.31 161.38 159.28 L 161.69 158.32 C 162.03 157.29 161.47 156.18 160.44 155.85 C 159.41 155.51 158.30 156.07 157.96 157.10 Z M 157.65 158.06 L 157.34 158.99 C 157.01 160.02 157.57 161.13 158.60 161.47 C 159.63 161.80 160.74 161.24 161.07 160.21 L 161.38 159.28 C 161.71 158.25 161.15 157.14 160.12 156.81 C 159.09 156.47 157.98 157.03 157.65 158.06 Z M 157.34 159.00 L 157.04 159.94 C 156.70 160.97 157.27 162.08 158.30 162.41 C 159.34 162.74 160.44 162.18 160.77 161.14 L 161.08 160.20 C 161.41 159.17 160.84 158.07 159.81 157.73 C 158.78 157.40 157.67 157.97 157.34 159.00 Z M 157.03 159.94 L 156.72 160.93 C 156.39 161.96 156.96 163.07 158.00 163.39 C 159.03 163.72 160.14 163.15 160.46 162.12 L 160.78 161.14 C 161.11 160.10 160.54 159.00 159.50 158.67 C 158.47 158.34 157.36 158.91 157.03 159.94 Z M 156.72 160.93 L 156.42 161.87 C 156.10 162.90 156.67 164.01 157.71 164.33 C 158.75 164.66 159.85 164.08 160.17 163.05 L 160.47 162.11 C 160.79 161.08 160.22 159.97 159.18 159.65 C 158.15 159.32 157.04 159.90 156.72 160.93 Z M 156.42 161.87 L 156.13 162.81 C 155.80 163.85 156.38 164.95 157.42 165.28 C 158.46 165.60 159.56 165.02 159.89 163.98 L 160.18 163.04 C 160.50 162.01 159.92 160.90 158.89 160.58 C 157.85 160.25 156.74 160.83 156.42 161.87 Z M 156.12 162.81 L 155.82 163.78 C 155.49 164.82 156.07 165.93 157.12 166.25 C 158.16 166.58 159.26 166.00 159.59 164.96 L 159.89 163.98 C 160.22 162.94 159.64 161.83 158.59 161.51 C 157.55 161.19 156.45 161.77 156.12 162.81 Z M 155.81 163.78 L 155.51 164.75 C 155.18 165.79 155.76 166.90 156.81 167.23 C 157.85 167.56 158.96 166.98 159.29 165.93 L 159.59 164.96 C 159.92 163.92 159.34 162.81 158.29 162.48 C 157.25 162.15 156.14 162.74 155.81 163.78 Z M 155.51 164.75 L 155.22 165.68 C 154.89 166.72 155.47 167.84 156.51 168.16 C 157.55 168.49 158.66 167.91 158.99 166.87 L 159.29 165.94 C 159.62 164.90 159.04 163.78 157.99 163.45 C 156.95 163.13 155.84 163.70 155.51 164.75 Z M 155.22 165.68 L 154.91 166.63 C 154.58 167.67 155.16 168.79 156.20 169.12 C 157.24 169.45 158.36 168.87 158.69 167.83 L 158.99 166.87 C 159.32 165.83 158.75 164.72 157.70 164.39 C 156.66 164.06 155.55 164.63 155.22 165.68 Z M 154.91 166.63 L 154.60 167.60 C 154.27 168.64 154.85 169.76 155.89 170.09 C 156.93 170.42 158.04 169.85 158.38 168.80 L 158.69 167.83 C 159.02 166.79 158.45 165.68 157.40 165.34 C 156.36 165.01 155.25 165.59 154.91 166.63 Z M 154.60 167.60 L 154.30 168.54 C 153.97 169.58 154.54 170.70 155.58 171.03 C 156.62 171.37 157.74 170.80 158.07 169.76 L 158.38 168.81 C 158.71 167.77 158.14 166.65 157.10 166.32 C 156.06 165.98 154.94 166.55 154.60 167.60 Z M 154.30 168.54 L 154.00 169.47 C 153.66 170.51 154.23 171.63 155.28 171.96 C 156.32 172.30 157.43 171.73 157.77 170.69 L 158.07 169.76 C 158.41 168.72 157.84 167.60 156.80 167.26 C 155.76 166.93 154.64 167.50 154.30 168.54 Z M 154.00 169.46 L 153.69 170.41 C 153.35 171.45 153.92 172.57 154.96 172.91 C 156.00 173.25 157.12 172.68 157.46 171.64 L 157.77 170.69 C 158.11 169.65 157.54 168.54 156.50 168.20 C 155.46 167.85 154.34 168.42 154.00 169.46 Z M 153.69 170.40 L 153.37 171.37 C 153.03 172.41 153.59 173.53 154.63 173.88 C 155.67 174.22 156.79 173.66 157.13 172.62 L 157.46 171.65 C 157.80 170.61 157.24 169.49 156.20 169.14 C 155.16 168.80 154.04 169.36 153.69 170.40 Z M 153.37 171.36 L 153.05 172.33 C 152.70 173.37 153.26 174.49 154.29 174.84 C 155.33 175.19 156.46 174.63 156.81 173.60 L 157.13 172.63 C 157.48 171.59 156.92 170.47 155.89 170.12 C 154.85 169.77 153.72 170.33 153.37 171.36 Z M 153.05 172.32 L 152.72 173.28 C 152.37 174.31 152.92 175.44 153.96 175.80 C 154.99 176.15 156.12 175.60 156.48 174.56 L 156.80 173.61 C 157.16 172.57 156.61 171.44 155.57 171.09 C 154.54 170.73 153.41 171.28 153.05 172.32 Z M 152.73 173.26 L 152.39 174.22 C 152.02 175.25 152.57 176.39 153.60 176.75 C 154.64 177.11 155.77 176.57 156.14 175.54 L 156.47 174.58 C 156.84 173.55 156.29 172.41 155.26 172.05 C 154.22 171.68 153.09 172.22 152.73 173.26 Z M 152.39 174.20 L 152.05 175.14 C 151.68 176.17 152.21 177.31 153.24 177.68 C 154.27 178.06 155.41 177.53 155.79 176.50 L 156.13 175.56 C 156.51 174.53 155.98 173.38 154.94 173.01 C 153.91 172.63 152.77 173.16 152.39 174.20 Z M 152.06 175.11 L 151.71 176.03 C 151.32 177.06 151.83 178.21 152.86 178.60 C 153.89 178.99 155.04 178.48 155.43 177.45 L 155.78 176.52 C 156.17 175.50 155.66 174.35 154.63 173.96 C 153.60 173.56 152.45 174.08 152.06 175.11 Z M 151.72 176.00 L 151.33 176.97 C 150.92 177.99 151.41 179.15 152.43 179.56 C 153.45 179.97 154.62 179.48 155.03 178.46 L 155.42 177.48 C 155.83 176.46 155.33 175.30 154.31 174.89 C 153.29 174.48 152.13 174.98 151.72 176.00 Z M 151.34 176.93 L 150.95 177.86 C 150.52 178.87 150.99 180.04 152.00 180.47 C 153.02 180.90 154.19 180.43 154.62 179.42 L 155.01 178.49 C 155.44 177.48 154.97 176.31 153.96 175.88 C 152.94 175.45 151.77 175.92 151.34 176.93 Z M 150.96 177.82 L 150.57 178.71 C 150.12 179.71 150.57 180.89 151.58 181.34 C 152.58 181.79 153.76 181.34 154.21 180.33 L 154.61 179.45 C 155.06 178.44 154.61 177.26 153.60 176.81 C 152.59 176.36 151.41 176.81 150.96 177.82 Z M 150.58 178.68 L 150.17 179.56 C 149.70 180.56 150.13 181.75 151.13 182.22 C 152.14 182.68 153.32 182.25 153.79 181.25 L 154.20 180.36 C 154.67 179.36 154.23 178.17 153.23 177.71 C 152.23 177.24 151.04 177.68 150.58 178.68 Z M 150.18 179.54 L 149.74 180.45 C 149.26 181.44 149.67 182.64 150.67 183.12 C 151.66 183.60 152.86 183.18 153.34 182.19 L 153.78 181.27 C 154.26 180.28 153.84 179.08 152.85 178.60 C 151.85 178.12 150.66 178.54 150.18 179.54 Z M 149.74 180.43 L 149.30 181.32 C 148.81 182.31 149.21 183.51 150.20 184.00 C 151.19 184.50 152.39 184.09 152.89 183.10 L 153.33 182.21 C 153.82 181.22 153.42 180.02 152.43 179.52 C 151.44 179.03 150.24 179.44 149.74 180.43 Z M 149.31 181.30 L 148.86 182.18 C 148.36 183.17 148.75 184.37 149.74 184.88 C 150.72 185.38 151.93 184.99 152.43 184.00 L 152.88 183.12 C 153.38 182.13 152.99 180.93 152.00 180.42 C 151.02 179.92 149.81 180.31 149.31 181.30 Z M 148.87 182.16 L 148.40 183.06 C 147.89 184.05 148.27 185.26 149.25 185.77 C 150.24 186.28 151.45 185.90 151.96 184.91 L 152.43 184.01 C 152.94 183.03 152.56 181.82 151.57 181.31 C 150.59 180.80 149.38 181.18 148.87 182.16 Z M 148.41 183.05 L 147.93 183.93 C 147.41 184.91 147.78 186.13 148.76 186.65 C 149.74 187.17 150.96 186.80 151.48 185.82 L 151.95 184.93 C 152.47 183.95 152.10 182.74 151.12 182.22 C 150.14 181.69 148.93 182.07 148.41 183.05 Z M 147.95 183.91 L 147.47 184.77 C 146.93 185.75 147.29 186.97 148.26 187.51 C 149.23 188.04 150.45 187.69 150.99 186.71 L 151.47 185.85 C 152.00 184.87 151.65 183.65 150.68 183.12 C 149.70 182.58 148.48 182.94 147.95 183.91 Z M 147.49 184.74 L 146.99 185.61 C 146.43 186.57 146.77 187.80 147.73 188.36 C 148.69 188.91 149.92 188.58 150.47 187.61 L 150.97 186.75 C 151.53 185.78 151.19 184.55 150.23 184.00 C 149.27 183.45 148.04 183.78 147.49 184.74 Z M 147.01 185.57 L 146.48 186.44 C 145.91 187.39 146.22 188.63 147.17 189.20 C 148.12 189.78 149.36 189.47 149.93 188.52 L 150.45 187.65 C 151.03 186.70 150.72 185.46 149.77 184.89 C 148.82 184.31 147.58 184.62 147.01 185.57 Z M 146.50 186.41 L 145.98 187.25 C 145.38 188.19 145.67 189.43 146.61 190.02 C 147.55 190.61 148.79 190.33 149.39 189.39 L 149.91 188.55 C 150.50 187.61 150.22 186.37 149.28 185.77 C 148.34 185.18 147.09 185.47 146.50 186.41 Z M 145.99 187.22 L 145.45 188.05 C 144.85 188.98 145.11 190.23 146.04 190.83 C 146.97 191.44 148.22 191.18 148.83 190.24 L 149.37 189.42 C 149.98 188.49 149.71 187.24 148.78 186.63 C 147.85 186.02 146.60 186.29 145.99 187.22 Z M 145.47 188.02 L 144.91 188.86 C 144.29 189.78 144.54 191.03 145.46 191.65 C 146.38 192.27 147.63 192.03 148.25 191.10 L 148.81 190.27 C 149.43 189.35 149.19 188.09 148.26 187.47 C 147.34 186.85 146.09 187.10 145.47 188.02 Z M 144.92 188.84 L 144.36 189.66 C 143.73 190.57 143.96 191.83 144.87 192.46 C 145.79 193.09 147.04 192.86 147.68 191.94 L 148.24 191.12 C 148.87 190.21 148.64 188.95 147.72 188.32 C 146.81 187.69 145.55 187.92 144.92 188.84 Z M 144.37 189.64 L 143.80 190.45 C 143.16 191.36 143.38 192.62 144.29 193.26 C 145.20 193.90 146.46 193.68 147.10 192.77 L 147.67 191.96 C 148.30 191.05 148.09 189.79 147.18 189.15 C 146.27 188.51 145.01 188.73 144.37 189.64 Z M 143.82 190.43 L 143.24 191.23 C 142.59 192.13 142.79 193.39 143.69 194.04 C 144.59 194.69 145.85 194.49 146.50 193.59 L 147.08 192.79 C 147.73 191.89 147.53 190.63 146.63 189.98 C 145.73 189.32 144.47 189.53 143.82 190.43 Z M 143.27 191.19 L 142.66 191.98 C 141.99 192.87 142.15 194.13 143.04 194.80 C 143.92 195.48 145.18 195.31 145.86 194.43 L 146.47 193.63 C 147.14 192.75 146.97 191.49 146.09 190.81 C 145.21 190.14 143.95 190.30 143.27 191.19 Z M 142.71 191.92 L 142.06 192.71 C 141.35 193.57 141.46 194.83 142.32 195.54 C 143.17 196.25 144.44 196.13 145.15 195.28 L 145.80 194.49 C 146.51 193.64 146.40 192.37 145.54 191.66 C 144.69 190.95 143.42 191.07 142.71 191.92 Z M 142.13 192.63 L 141.43 193.39 C 140.67 194.20 140.72 195.47 141.53 196.22 C 142.34 196.98 143.61 196.93 144.37 196.12 L 145.07 195.36 C 145.83 194.55 145.78 193.28 144.97 192.53 C 144.16 191.77 142.89 191.82 142.13 192.63 Z M 141.55 193.27 L 140.82 193.94 C 140.00 194.68 139.94 195.95 140.68 196.77 C 141.42 197.58 142.69 197.65 143.51 196.90 L 144.24 196.24 C 145.06 195.49 145.12 194.23 144.38 193.41 C 143.64 192.59 142.37 192.53 141.55 193.27 Z M 141.05 193.77 L 140.18 194.36 C 139.26 194.97 139.02 196.20 139.63 197.12 C 140.24 198.03 141.48 198.27 142.39 197.66 L 143.27 197.07 C 144.18 196.46 144.43 195.23 143.81 194.31 C 143.20 193.40 141.97 193.16 141.05 193.77 Z M 140.73 194.13 L 139.74 194.42 C 138.71 194.73 138.11 195.82 138.42 196.86 C 138.73 197.90 139.82 198.49 140.86 198.18 L 141.84 197.89 C 142.88 197.58 143.47 196.49 143.16 195.45 C 142.86 194.41 141.77 193.82 140.73 194.13 Z M 141.27 194.67 L 140.66 194.30 C 139.75 193.76 138.59 194.06 138.05 194.96 C 137.51 195.86 137.81 197.03 138.71 197.57 L 139.33 197.94 C 140.23 198.47 141.40 198.18 141.93 197.27 C 142.47 196.37 142.18 195.20 141.27 194.67 Z M 141.44 195.58 L 141.26 194.65 C 141.06 193.67 140.11 193.05 139.14 193.24 C 138.17 193.44 137.54 194.38 137.74 195.36 L 137.92 196.29 C 138.12 197.26 139.07 197.89 140.04 197.69 C 141.01 197.50 141.64 196.55 141.44 195.58 Z M 141.16 195.07 L 141.21 193.95 C 141.25 193.04 140.53 192.26 139.61 192.22 C 138.69 192.18 137.92 192.89 137.88 193.81 L 137.83 194.93 C 137.79 195.85 138.51 196.63 139.42 196.67 C 140.34 196.71 141.12 195.99 141.16 195.07 Z M 141.12 194.10 L 141.26 193.11 C 141.38 192.24 140.77 191.43 139.90 191.31 C 139.02 191.19 138.22 191.80 138.10 192.68 L 137.96 193.67 C 137.84 194.54 138.45 195.35 139.32 195.47 C 140.20 195.59 141.00 194.98 141.12 194.10 Z M 141.22 193.23 L 141.43 192.26 C 141.62 191.41 141.08 190.57 140.23 190.38 C 139.38 190.20 138.54 190.74 138.35 191.59 L 138.14 192.56 C 137.95 193.41 138.49 194.25 139.34 194.44 C 140.19 194.62 141.03 194.08 141.22 193.23 Z M 141.40 192.35 L 141.66 191.41 C 141.90 190.58 141.42 189.71 140.58 189.48 C 139.75 189.24 138.89 189.73 138.65 190.56 L 138.38 191.50 C 138.15 192.33 138.63 193.20 139.47 193.43 C 140.30 193.67 141.16 193.18 141.40 192.35 Z M 141.65 191.46 L 141.95 190.50 C 142.22 189.68 141.76 188.80 140.94 188.54 C 140.12 188.27 139.24 188.73 138.97 189.55 L 138.67 190.51 C 138.41 191.33 138.86 192.21 139.68 192.48 C 140.50 192.74 141.38 192.28 141.65 191.46 Z M 141.95 190.52 L 142.18 189.83 C 142.45 189.01 142.01 188.13 141.19 187.85 C 140.37 187.58 139.48 188.02 139.21 188.84 L 138.98 189.53 C 138.71 190.35 139.15 191.24 139.97 191.51 C 140.79 191.78 141.67 191.34 141.95 190.52 Z"
      fill="black"
      fill-rule="nonzero" /><path d="M 154.07 155.10 L 155.04 155.38 C 155.96 155.64 156.91 155.11 157.18 154.19 C 157.44 153.27 156.91 152.31 155.99 152.05 L 155.03 151.77 C 154.11 151.51 153.15 152.04 152.89 152.96 C 152.62 153.88 153.15 154.84 154.07 155.10 Z M 155.02 155.42 L 155.99 155.69 C 156.93 155.96 157.91 155.42 158.18 154.48 C 158.45 153.53 157.90 152.55 156.96 152.28 L 156.00 152.01 C 155.06 151.74 154.08 152.28 153.81 153.22 C 153.54 154.17 154.08 155.15 155.02 155.42 Z M 155.97 155.73 L 156.94 156.01 C 157.90 156.28 158.90 155.73 159.18 154.76 C 159.46 153.80 158.90 152.79 157.94 152.52 L 156.97 152.24 C 156.01 151.97 155.00 152.52 154.73 153.49 C 154.45 154.45 155.01 155.46 155.97 155.73 Z M 156.93 156.03 L 157.19 156.11 C 158.17 156.39 159.19 155.82 159.47 154.84 C 159.75 153.87 159.18 152.85 158.20 152.57 L 157.94 152.49 C 156.96 152.21 155.94 152.78 155.66 153.76 C 155.38 154.73 155.95 155.75 156.93 156.03 Z"
      fill="black"
      fill-rule="nonzero" /><path d="M 149.06 159.78 L 149.08 160.73 C 149.11 161.70 149.92 162.47 150.88 162.44 C 151.85 162.42 152.62 161.61 152.59 160.64 L 152.57 159.69 C 152.54 158.73 151.74 157.96 150.77 157.99 C 149.80 158.01 149.03 158.82 149.06 159.78 Z M 148.95 161.02 L 149.12 162.00 C 149.31 163.04 150.30 163.73 151.35 163.55 C 152.39 163.36 153.08 162.37 152.90 161.33 L 152.73 160.35 C 152.54 159.31 151.55 158.62 150.50 158.80 C 149.46 158.99 148.77 159.98 148.95 161.02 Z M 149.14 162.49 L 149.54 163.42 C 150.00 164.45 151.21 164.92 152.25 164.46 C 153.29 164.01 153.75 162.79 153.30 161.76 L 152.89 160.83 C 152.43 159.80 151.22 159.33 150.18 159.79 C 149.15 160.25 148.68 161.46 149.14 162.49 Z M 149.69 163.78 L 150.24 164.58 C 150.90 165.54 152.21 165.78 153.17 165.12 C 154.12 164.46 154.37 163.15 153.71 162.20 L 153.16 161.39 C 152.50 160.44 151.18 160.19 150.23 160.85 C 149.27 161.51 149.03 162.82 149.69 163.78 Z M 150.35 164.75 L 151.02 165.54 C 151.77 166.44 153.11 166.55 154.00 165.80 C 154.89 165.05 155.01 163.71 154.26 162.82 L 153.59 162.03 C 152.84 161.13 151.50 161.02 150.61 161.77 C 149.72 162.52 149.60 163.86 150.35 164.75 Z M 151.09 165.63 L 151.79 166.38 C 152.59 167.24 153.93 167.28 154.79 166.48 C 155.64 165.68 155.69 164.34 154.89 163.48 L 154.19 162.73 C 153.39 161.88 152.05 161.83 151.19 162.63 C 150.33 163.43 150.29 164.77 151.09 165.63 Z M 151.82 166.42 L 152.54 167.16 C 153.36 168.00 154.71 168.01 155.55 167.19 C 156.39 166.37 156.40 165.02 155.58 164.18 L 154.86 163.44 C 154.04 162.60 152.69 162.59 151.85 163.41 C 151.01 164.23 151.00 165.58 151.82 166.42 Z M 152.56 167.18 L 153.26 167.87 C 154.09 168.70 155.44 168.70 156.27 167.86 C 157.10 167.03 157.09 165.68 156.26 164.85 L 155.56 164.16 C 154.72 163.33 153.38 163.34 152.55 164.17 C 151.72 165.01 151.72 166.35 152.56 167.18 Z M 153.27 167.89 L 153.98 168.58 C 154.82 169.40 156.17 169.38 156.99 168.53 C 157.81 167.69 157.79 166.34 156.95 165.52 L 156.24 164.83 C 155.40 164.01 154.05 164.03 153.23 164.88 C 152.41 165.72 152.43 167.07 153.27 167.89 Z M 153.98 168.58 L 154.66 169.24 C 155.51 170.06 156.86 170.04 157.68 169.19 C 158.50 168.34 158.47 166.99 157.63 166.17 L 156.94 165.51 C 156.10 164.70 154.75 164.72 153.93 165.57 C 153.11 166.41 153.13 167.76 153.98 168.58 Z M 154.67 169.24 L 155.37 169.92 C 156.22 170.74 157.57 170.71 158.39 169.87 C 159.20 169.02 159.18 167.67 158.33 166.85 L 157.62 166.17 C 156.78 165.35 155.42 165.38 154.61 166.23 C 153.79 167.08 153.82 168.43 154.67 169.24 Z M 155.38 169.93 L 156.12 170.64 C 156.97 171.45 158.32 171.42 159.14 170.57 C 159.95 169.72 159.92 168.36 159.07 167.55 L 158.32 166.84 C 157.47 166.03 156.12 166.06 155.31 166.91 C 154.49 167.77 154.52 169.12 155.38 169.93 Z M 156.13 170.65 L 156.88 171.36 C 157.74 172.17 159.09 172.13 159.90 171.27 C 160.71 170.41 160.67 169.06 159.81 168.25 L 159.06 167.54 C 158.20 166.73 156.85 166.77 156.04 167.63 C 155.23 168.49 155.27 169.84 156.13 170.65 Z M 156.89 171.37 L 157.60 172.02 C 158.46 172.83 159.81 172.78 160.61 171.92 C 161.42 171.05 161.37 169.70 160.51 168.90 L 159.80 168.24 C 158.94 167.44 157.59 167.49 156.78 168.35 C 155.98 169.21 156.03 170.56 156.89 171.37 Z M 157.61 172.03 L 158.34 172.71 C 159.21 173.50 160.56 173.45 161.36 172.58 C 162.15 171.71 162.09 170.36 161.23 169.56 L 160.49 168.89 C 159.63 168.09 158.28 168.15 157.48 169.02 C 156.68 169.89 156.74 171.24 157.61 172.03 Z M 158.35 172.72 L 159.11 173.40 C 159.99 174.19 161.34 174.12 162.13 173.25 C 162.91 172.37 162.85 171.02 161.97 170.23 L 161.21 169.55 C 160.34 168.76 158.99 168.83 158.20 169.70 C 157.41 170.58 157.48 171.93 158.35 172.72 Z M 159.13 173.41 L 159.90 174.09 C 160.78 174.88 162.13 174.79 162.91 173.91 C 163.69 173.03 163.61 171.68 162.72 170.90 L 161.95 170.22 C 161.07 169.44 159.72 169.52 158.94 170.40 C 158.16 171.29 158.25 172.63 159.13 173.41 Z M 159.91 174.11 L 160.65 174.75 C 161.53 175.52 162.88 175.42 163.65 174.54 C 164.43 173.65 164.33 172.30 163.44 171.53 L 162.71 170.89 C 161.82 170.12 160.47 170.21 159.70 171.10 C 158.93 171.99 159.02 173.33 159.91 174.11 Z M 160.66 174.75 L 161.41 175.40 C 162.30 176.17 163.65 176.07 164.41 175.17 C 165.18 174.28 165.08 172.93 164.19 172.17 L 163.43 171.52 C 162.54 170.75 161.20 170.85 160.43 171.75 C 159.66 172.64 159.76 173.99 160.66 174.75 Z M 161.41 175.40 L 162.18 176.06 C 163.08 176.82 164.42 176.72 165.19 175.82 C 165.95 174.93 165.84 173.58 164.95 172.82 L 164.18 172.16 C 163.29 171.40 161.94 171.50 161.18 172.40 C 160.41 173.29 160.52 174.64 161.41 175.40 Z M 162.18 176.06 L 162.96 176.72 C 163.86 177.49 165.20 177.38 165.97 176.49 C 166.73 175.59 166.62 174.25 165.73 173.48 L 164.95 172.82 C 164.05 172.05 162.71 172.16 161.94 173.06 C 161.18 173.95 161.29 175.30 162.18 176.06 Z M 162.96 176.72 L 163.71 177.37 C 164.61 178.13 165.95 178.03 166.71 177.13 C 167.48 176.24 167.37 174.90 166.48 174.13 L 165.73 173.49 C 164.84 172.72 163.49 172.83 162.73 173.72 C 161.96 174.61 162.07 175.96 162.96 176.72 Z M 163.71 177.36 L 164.46 178.01 C 165.35 178.77 166.70 178.67 167.46 177.78 C 168.23 176.88 168.12 175.54 167.23 174.78 L 166.48 174.13 C 165.59 173.37 164.25 173.47 163.48 174.36 C 162.72 175.25 162.82 176.60 163.71 177.36 Z M 164.46 178.00 L 165.22 178.65 C 166.11 179.42 167.46 179.32 168.22 178.42 C 168.98 177.53 168.88 176.19 167.99 175.43 L 167.23 174.78 C 166.34 174.01 165.00 174.12 164.23 175.01 C 163.47 175.90 163.57 177.24 164.46 178.00 Z M 165.23 178.66 L 166.00 179.31 C 166.89 180.07 168.23 179.97 168.99 179.08 C 169.75 178.18 169.64 176.84 168.75 176.08 L 167.98 175.43 C 167.09 174.67 165.75 174.77 164.99 175.66 C 164.23 176.56 164.34 177.89 165.23 178.66 Z M 166.00 179.31 L 166.78 179.97 C 167.67 180.73 169.01 180.62 169.77 179.73 C 170.53 178.84 170.42 177.50 169.52 176.74 L 168.75 176.08 C 167.85 175.32 166.51 175.43 165.76 176.33 C 165.00 177.22 165.11 178.56 166.00 179.31 Z M 166.79 179.98 L 167.57 180.63 C 168.47 181.39 169.80 181.27 170.55 180.38 C 171.31 179.48 171.19 178.15 170.30 177.39 L 169.51 176.74 C 168.62 175.98 167.28 176.10 166.53 177.00 C 165.78 177.89 165.89 179.23 166.79 179.98 Z M 167.58 180.64 L 168.36 181.29 C 169.26 182.04 170.59 181.92 171.34 181.02 C 172.09 180.13 171.97 178.79 171.07 178.04 L 170.29 177.39 C 169.39 176.64 168.06 176.76 167.31 177.66 C 166.56 178.56 166.68 179.89 167.58 180.64 Z M 168.37 181.29 L 169.14 181.93 C 170.04 182.68 171.37 182.56 172.11 181.66 C 172.86 180.76 172.74 179.43 171.84 178.69 L 171.06 178.04 C 170.17 177.30 168.84 177.42 168.09 178.32 C 167.35 179.21 167.47 180.54 168.37 181.29 Z M 169.15 181.93 L 169.90 182.56 C 170.80 183.30 172.13 183.18 172.87 182.28 C 173.61 181.39 173.49 180.06 172.59 179.32 L 171.84 178.69 C 170.94 177.95 169.61 178.07 168.87 178.97 C 168.13 179.86 168.25 181.19 169.15 181.93 Z M 169.90 182.56 L 170.67 183.19 C 171.56 183.93 172.89 183.81 173.63 182.92 C 174.37 182.02 174.25 180.70 173.36 179.96 L 172.59 179.32 C 171.70 178.58 170.37 178.70 169.63 179.60 C 168.89 180.49 169.01 181.81 169.90 182.56 Z M 170.67 183.18 L 171.48 183.86 C 172.36 184.60 173.69 184.48 174.43 183.59 C 175.17 182.70 175.05 181.38 174.16 180.64 L 173.35 179.97 C 172.47 179.22 171.15 179.34 170.40 180.23 C 169.66 181.12 169.78 182.44 170.67 183.18 Z M 171.47 183.84 L 172.24 184.49 C 173.12 185.23 174.44 185.12 175.18 184.24 C 175.92 183.36 175.81 182.04 174.93 181.30 L 174.16 180.65 C 173.28 179.91 171.97 180.02 171.22 180.90 C 170.48 181.78 170.59 183.10 171.47 183.84 Z M 172.23 184.47 L 172.97 185.10 C 173.84 185.85 175.15 185.75 175.90 184.88 C 176.65 184.00 176.54 182.69 175.67 181.95 L 174.94 181.32 C 174.07 180.57 172.76 180.67 172.01 181.54 C 171.26 182.41 171.36 183.73 172.23 184.47 Z M 172.96 185.08 L 173.68 185.71 C 174.54 186.47 175.85 186.38 176.60 185.52 C 177.35 184.66 177.27 183.36 176.41 182.60 L 175.68 181.97 C 174.83 181.21 173.52 181.30 172.76 182.16 C 172.01 183.02 172.10 184.33 172.96 185.08 Z M 173.67 185.69 L 174.43 186.38 C 175.27 187.14 176.58 187.07 177.34 186.23 C 178.10 185.38 178.03 184.08 177.19 183.32 L 176.42 182.63 C 175.58 181.87 174.28 181.94 173.52 182.78 C 172.75 183.62 172.82 184.93 173.67 185.69 Z M 174.42 186.35 L 175.15 187.03 C 175.98 187.80 177.28 187.75 178.05 186.92 C 178.81 186.09 178.77 184.80 177.94 184.03 L 177.20 183.35 C 176.37 182.58 175.08 182.63 174.31 183.46 C 173.54 184.29 173.59 185.58 174.42 186.35 Z M 175.14 187.01 L 175.85 187.68 C 176.67 188.45 177.96 188.42 178.73 187.60 C 179.50 186.78 179.47 185.50 178.65 184.72 L 177.94 184.05 C 177.13 183.28 175.84 183.31 175.07 184.13 C 174.29 184.95 174.33 186.23 175.14 187.01 Z M 175.85 187.65 L 176.58 188.36 C 177.38 189.13 178.66 189.11 179.43 188.31 C 180.21 187.50 180.19 186.22 179.38 185.45 L 178.66 184.75 C 177.85 183.97 176.57 183.99 175.80 184.80 C 175.02 185.60 175.05 186.88 175.85 187.65 Z M 176.58 188.33 L 177.31 189.05 C 178.10 189.82 179.36 189.81 180.14 189.02 C 180.91 188.23 180.90 186.96 180.11 186.19 L 179.38 185.47 C 178.59 184.70 177.33 184.71 176.55 185.50 C 175.78 186.29 175.79 187.56 176.58 188.33 Z M 177.32 189.02 L 178.02 189.71 C 178.79 190.48 180.04 190.48 180.81 189.70 C 181.58 188.93 181.57 187.68 180.80 186.91 L 180.10 186.21 C 179.33 185.45 178.08 185.45 177.31 186.23 C 176.54 187.00 176.54 188.25 177.32 189.02 Z M 178.03 189.69 L 178.73 190.39 C 179.49 191.15 180.73 191.15 181.49 190.39 C 182.25 189.63 182.25 188.39 181.49 187.63 L 180.79 186.93 C 180.03 186.17 178.79 186.17 178.03 186.93 C 177.26 187.69 177.26 188.93 178.03 189.69 Z M 178.74 190.37 L 179.47 191.10 C 180.22 191.86 181.44 191.86 182.19 191.11 C 182.95 190.36 182.95 189.14 182.20 188.39 L 181.47 187.65 C 180.73 186.90 179.51 186.90 178.75 187.64 C 178.00 188.39 177.99 189.61 178.74 190.37 Z M 179.48 191.07 L 180.16 191.77 C 180.89 192.52 182.09 192.53 182.84 191.80 C 183.59 191.07 183.61 189.87 182.87 189.12 L 182.19 188.42 C 181.46 187.67 180.26 187.66 179.51 188.39 C 178.76 189.12 178.75 190.32 179.48 191.07 Z M 180.17 191.73 L 180.85 192.45 C 181.56 193.19 182.74 193.22 183.49 192.51 C 184.23 191.80 184.26 190.62 183.55 189.87 L 182.87 189.16 C 182.16 188.41 180.98 188.38 180.23 189.09 C 179.49 189.81 179.46 190.98 180.17 191.73 Z M 180.87 192.41 L 181.56 193.14 C 182.25 193.87 183.41 193.91 184.14 193.21 C 184.87 192.52 184.91 191.37 184.22 190.64 L 183.53 189.91 C 182.84 189.17 181.68 189.14 180.95 189.83 C 180.22 190.52 180.18 191.68 180.87 192.41 Z M 181.61 193.13 L 182.29 193.83 C 182.98 194.53 184.11 194.55 184.81 193.86 C 185.52 193.17 185.53 192.04 184.84 191.34 L 184.16 190.64 C 183.48 189.94 182.35 189.93 181.64 190.61 C 180.94 191.30 180.93 192.43 181.61 193.13 Z M 182.38 193.86 L 183.11 194.54 C 183.82 195.19 184.92 195.15 185.57 194.45 C 186.23 193.74 186.19 192.64 185.48 191.99 L 184.75 191.31 C 184.05 190.65 182.95 190.69 182.29 191.40 C 181.64 192.10 181.68 193.21 182.38 193.86 Z M 183.28 194.62 L 184.08 195.22 C 184.83 195.79 185.90 195.63 186.46 194.88 C 187.02 194.13 186.87 193.06 186.12 192.50 L 185.32 191.90 C 184.57 191.34 183.50 191.49 182.94 192.24 C 182.37 192.99 182.52 194.06 183.28 194.62 Z M 184.31 195.33 L 185.17 195.80 C 185.98 196.23 187.00 195.93 187.43 195.12 C 187.87 194.31 187.57 193.30 186.76 192.86 L 185.89 192.39 C 185.08 191.96 184.07 192.26 183.63 193.07 C 183.19 193.88 183.50 194.89 184.31 195.33 Z M 185.35 195.85 L 186.28 196.23 C 187.12 196.57 188.08 196.16 188.42 195.32 C 188.76 194.48 188.35 193.52 187.51 193.18 L 186.58 192.81 C 185.74 192.47 184.78 192.87 184.44 193.71 C 184.10 194.56 184.51 195.51 185.35 195.85 Z M 186.36 196.23 L 187.09 196.49 C 187.94 196.79 188.86 196.34 189.16 195.50 C 189.46 194.66 189.01 193.73 188.17 193.43 L 187.43 193.17 C 186.59 192.88 185.66 193.32 185.37 194.16 C 185.07 195.01 185.51 195.93 186.36 196.23 Z"
      fill="black"
      fill-rule="nonzero" /></svg>