<svg xmlns="http://www.w3.org/2000/svg" width="300" height="300" viewBox="0 0 300 300">
<path d="M 143.76 116.49 L 144.48 117.16 C 145.20 117.82 146.32 117.78 146.98 117.06 C 147.64 116.34 147.60 115.23 146.88 114.56 L 146.16 113.89 C 145.44 113.23 144.33 113.28 143.66 113.99 C 143.00 114.71 143.04 115.82 143.76 116.49 Z M 144.44 117.20 L 145.17 117.88 C 145.92 118.56 147.07 118.51 147.75 117.77 C 148.44 117.03 148.39 115.88 147.65 115.19 L 146.92 114.52 C 146.18 113.83 145.02 113.88 144.34 114.62 C 143.66 115.36 143.70 116.52 144.44 117.20 Z M 145.14 117.92 L 145.88 118.61 C 146.65 119.31 147.84 119.26 148.54 118.49 C 149.25 117.72 149.20 116.53 148.43 115.83 L 147.69 115.14 C 146.92 114.44 145.73 114.49 145.02 115.26 C 144.32 116.03 144.37 117.22 145.14 117.92 Z M 145.86 118.63 L 146.61 119.31 C 147.39 120.02 148.60 119.96 149.31 119.18 C 150.03 118.40 149.97 117.19 149.19 116.47 L 148.45 115.80 C 147.66 115.09 146.45 115.14 145.74 115.93 C 145.03 116.71 145.08 117.92 145.86 118.63 Z M 146.63 119.29 L 147.37 119.95 C 148.14 120.65 149.33 120.59 150.03 119.82 C 150.73 119.05 150.67 117.85 149.89 117.16 L 149.16 116.49 C 148.39 115.79 147.20 115.85 146.50 116.63 C 145.80 117.40 145.86 118.59 146.63 119.29 Z M 147.42 119.91 L 148.16 120.58 C 148.91 121.25 150.06 121.19 150.73 120.44 C 151.40 119.69 151.34 118.55 150.59 117.87 L 149.85 117.20 C 149.10 116.53 147.95 116.59 147.28 117.34 C 146.61 118.09 146.67 119.23 147.42 119.91 Z M 148.21 120.53 L 148.96 121.20 C 149.68 121.85 150.79 121.79 151.43 121.07 C 152.08 120.35 152.02 119.24 151.30 118.60 L 150.55 117.92 C 149.83 117.28 148.72 117.34 148.07 118.06 C 147.43 118.78 147.49 119.88 148.21 120.53 Z M 148.99 121.17 L 149.22 121.38 C 149.92 122.00 151.00 121.95 151.63 121.24 C 152.26 120.54 152.20 119.46 151.50 118.83 L 151.27 118.63 C 150.57 118.00 149.49 118.06 148.86 118.76 C 148.23 119.46 148.29 120.54 148.99 121.17 Z"
      fill="black"
      fill-rule="nonzero" /><path d="M 128.32 127.85 L 128.10 128.69 C 127.88 129.56 128.40 130.45 129.26 130.67 C 130.13 130.90 131.02 130.38 131.24 129.51 L 131.46 128.67 C 131.69 127.80 131.17 126.91 130.30 126.69 C 129.43 126.46 128.55 126.98 128.32 127.85 Z M 128.09 128.63 L 127.80 129.57 C 127.54 130.45 128.03 131.37 128.91 131.64 C 129.79 131.90 130.71 131.40 130.97 130.53 L 131.26 129.58 C 131.52 128.70 131.02 127.78 130.15 127.52 C 129.27 127.25 128.35 127.75 128.09 128.63 Z M 127.80 129.49 L 127.43 130.52 C 127.12 131.39 127.58 132.36 128.46 132.67 C 129.33 132.98 130.30 132.52 130.61 131.64 L 130.97 130.62 C 131.29 129.74 130.83 128.77 129.95 128.46 C 129.07 128.15 128.11 128.61 127.80 129.49 Z M 127.44 130.45 L 127.11 131.29 C 126.76 132.17 127.19 133.15 128.06 133.50 C 128.93 133.85 129.92 133.42 130.26 132.55 L 130.60 131.71 C 130.95 130.84 130.52 129.85 129.65 129.50 C 128.78 129.16 127.79 129.58 127.44 130.45 Z M 127.12 131.26 L 126.73 132.17 C 126.36 133.04 126.77 134.03 127.63 134.40 C 128.49 134.77 129.49 134.37 129.86 133.50 L 130.25 132.59 C 130.62 131.72 130.22 130.73 129.35 130.36 C 128.49 129.99 127.49 130.39 127.12 131.26 Z M 126.75 132.14 L 126.31 133.10 C 125.93 133.95 126.31 134.96 127.16 135.35 C 128.02 135.74 129.02 135.35 129.41 134.50 L 129.85 133.54 C 130.23 132.68 129.85 131.67 129.00 131.29 C 128.14 130.90 127.13 131.28 126.75 132.14 Z M 126.33 133.07 L 125.86 134.04 C 125.45 134.89 125.81 135.91 126.66 136.31 C 127.51 136.72 128.53 136.36 128.93 135.51 L 129.40 134.53 C 129.80 133.68 129.44 132.67 128.60 132.26 C 127.75 131.86 126.73 132.22 126.33 133.07 Z M 125.88 134.01 L 125.42 134.92 C 124.99 135.76 125.33 136.78 126.17 137.20 C 127.01 137.63 128.03 137.29 128.45 136.45 L 128.91 135.54 C 129.34 134.70 129.00 133.68 128.16 133.26 C 127.32 132.83 126.30 133.17 125.88 134.01 Z M 125.44 134.89 L 124.96 135.78 C 124.52 136.61 124.84 137.64 125.67 138.08 C 126.50 138.52 127.52 138.20 127.96 137.37 L 128.44 136.48 C 128.88 135.65 128.56 134.62 127.73 134.18 C 126.90 133.74 125.87 134.06 125.44 134.89 Z M 124.98 135.75 L 124.50 136.63 C 124.04 137.45 124.34 138.48 125.16 138.93 C 125.98 139.39 127.01 139.09 127.46 138.27 L 127.95 137.40 C 128.40 136.58 128.10 135.55 127.28 135.09 C 126.47 134.64 125.43 134.93 124.98 135.75 Z M 124.51 136.61 L 124.02 137.47 C 123.55 138.28 123.83 139.31 124.64 139.78 C 125.45 140.24 126.49 139.96 126.95 139.15 L 127.45 138.29 C 127.91 137.48 127.63 136.45 126.82 135.98 C 126.01 135.52 124.98 135.80 124.51 136.61 Z M 124.03 137.45 L 123.51 138.32 C 123.04 139.12 123.30 140.16 124.10 140.64 C 124.90 141.11 125.94 140.85 126.41 140.05 L 126.94 139.17 C 127.41 138.37 127.15 137.34 126.35 136.86 C 125.55 136.38 124.51 136.65 124.03 137.45 Z M 123.54 138.31 L 122.97 139.23 C 122.48 140.02 122.73 141.05 123.51 141.54 C 124.30 142.02 125.34 141.78 125.82 140.99 L 126.39 140.07 C 126.88 139.28 126.63 138.24 125.84 137.76 C 125.06 137.27 124.02 137.52 123.54 138.31 Z M 123.00 139.21 L 122.44 140.08 C 121.94 140.85 122.16 141.87 122.93 142.37 C 123.70 142.87 124.73 142.65 125.23 141.88 L 125.79 141.01 C 126.29 140.24 126.06 139.21 125.29 138.72 C 124.52 138.22 123.50 138.44 123.00 139.21 Z M 122.48 140.05 L 121.94 140.84 C 121.43 141.58 121.62 142.61 122.36 143.12 C 123.11 143.63 124.13 143.44 124.65 142.69 L 125.19 141.91 C 125.70 141.16 125.51 140.14 124.76 139.62 C 124.01 139.11 122.99 139.30 122.48 140.05 Z M 121.99 140.79 L 121.43 141.54 C 120.89 142.26 121.03 143.28 121.75 143.82 C 122.47 144.36 123.49 144.21 124.03 143.49 L 124.59 142.74 C 125.13 142.02 124.99 141.01 124.27 140.47 C 123.55 139.93 122.53 140.07 121.99 140.79 Z M 121.51 141.47 L 120.81 142.28 C 120.23 142.95 120.30 143.97 120.97 144.55 C 121.64 145.13 122.65 145.06 123.23 144.39 L 123.94 143.57 C 124.52 142.90 124.45 141.89 123.78 141.31 C 123.11 140.73 122.10 140.80 121.51 141.47 Z M 120.90 142.21 L 120.25 142.87 C 119.63 143.48 119.63 144.49 120.24 145.11 C 120.86 145.73 121.86 145.73 122.48 145.11 L 123.14 144.46 C 123.76 143.84 123.76 142.83 123.14 142.22 C 122.52 141.60 121.52 141.59 120.90 142.21 Z M 120.29 142.85 L 120.00 143.12 C 119.37 143.71 119.34 144.70 119.94 145.33 C 120.53 145.96 121.53 145.99 122.16 145.40 L 122.44 145.13 C 123.07 144.53 123.10 143.54 122.51 142.91 C 121.91 142.28 120.92 142.25 120.29 142.85 Z"
      fill="black"
      fill-rule="nonzero" /><path d="M 132.80 129.66 L 133.70 129.96 C 134.69 130.29 135.76 129.76 136.09 128.77 C 136.42 127.78 135.88 126.71 134.89 126.38 L 133.99 126.08 C 133.00 125.75 131.93 126.29 131.60 127.28 C 131.28 128.26 131.81 129.33 132.80 129.66 Z M 133.89 130.04 L 134.87 130.25 C 135.90 130.48 136.92 129.83 137.15 128.80 C 137.37 127.77 136.72 126.75 135.69 126.52 L 134.71 126.31 C 133.68 126.08 132.66 126.73 132.43 127.76 C 132.21 128.79 132.86 129.81 133.89 130.04 Z M 135.18 130.32 L 136.18 130.37 C 137.25 130.42 138.15 129.60 138.21 128.54 C 138.26 127.48 137.45 126.57 136.38 126.51 L 135.38 126.46 C 134.31 126.40 133.41 127.22 133.35 128.29 C 133.30 129.35 134.11 130.26 135.18 130.32 Z M 136.42 130.38 L 137.42 130.31 C 138.49 130.23 139.29 129.30 139.21 128.23 C 139.14 127.16 138.21 126.35 137.14 126.43 L 136.14 126.50 C 135.07 126.58 134.27 127.51 134.34 128.58 C 134.42 129.65 135.35 130.45 136.42 130.38 Z M 137.55 130.30 L 138.57 130.16 C 139.63 130.01 140.38 129.02 140.23 127.96 C 140.08 126.89 139.09 126.14 138.03 126.29 L 137.01 126.44 C 135.94 126.59 135.20 127.57 135.35 128.64 C 135.50 129.71 136.48 130.45 137.55 130.30 Z M 138.64 130.15 L 139.58 129.99 C 140.64 129.80 141.35 128.79 141.17 127.72 C 140.98 126.66 139.96 125.95 138.90 126.13 L 137.96 126.30 C 136.89 126.49 136.18 127.50 136.37 128.56 C 136.56 129.63 137.57 130.34 138.64 130.15 Z M 139.62 129.98 L 140.51 129.81 C 141.57 129.60 142.26 128.57 142.05 127.50 C 141.84 126.44 140.81 125.75 139.75 125.96 L 138.86 126.14 C 137.80 126.35 137.11 127.38 137.32 128.44 C 137.52 129.50 138.56 130.19 139.62 129.98 Z M 140.54 129.80 L 141.52 129.59 C 142.58 129.36 143.26 128.32 143.03 127.26 C 142.80 126.20 141.76 125.53 140.70 125.75 L 139.72 125.97 C 138.66 126.19 137.98 127.24 138.21 128.30 C 138.44 129.36 139.48 130.03 140.54 129.80 Z M 141.54 129.59 L 142.62 129.35 C 143.68 129.11 144.35 128.06 144.11 127.00 C 143.87 125.94 142.82 125.27 141.76 125.51 L 140.68 125.76 C 139.62 126.00 138.95 127.05 139.19 128.11 C 139.43 129.16 140.48 129.83 141.54 129.59 Z M 142.63 129.34 L 143.51 129.14 C 144.57 128.90 145.23 127.84 144.98 126.79 C 144.74 125.73 143.69 125.07 142.63 125.31 L 141.75 125.51 C 140.69 125.76 140.03 126.81 140.28 127.87 C 140.52 128.93 141.57 129.59 142.63 129.34 Z M 143.52 129.14 L 144.47 128.92 C 145.53 128.67 146.19 127.61 145.94 126.56 C 145.69 125.50 144.64 124.84 143.58 125.09 L 142.62 125.31 C 141.57 125.56 140.91 126.62 141.16 127.67 C 141.40 128.73 142.46 129.39 143.52 129.14 Z M 144.48 128.92 L 145.49 128.68 C 146.54 128.43 147.20 127.37 146.95 126.31 C 146.70 125.26 145.64 124.60 144.58 124.85 L 143.57 125.09 C 142.52 125.34 141.86 126.40 142.11 127.46 C 142.36 128.51 143.42 129.17 144.48 128.92 Z M 145.50 128.68 L 146.53 128.43 C 147.58 128.18 148.23 127.11 147.98 126.06 C 147.72 125.00 146.66 124.35 145.61 124.61 L 144.58 124.85 C 143.52 125.11 142.87 126.17 143.12 127.22 C 143.38 128.28 144.44 128.93 145.50 128.68 Z M 146.53 128.43 L 147.56 128.18 C 148.61 127.92 149.26 126.85 149.00 125.80 C 148.74 124.75 147.68 124.10 146.62 124.36 L 145.60 124.61 C 144.54 124.87 143.90 125.93 144.16 126.98 C 144.41 128.04 145.48 128.68 146.53 128.43 Z M 147.57 128.17 L 148.58 127.92 C 149.63 127.66 150.27 126.59 150.01 125.54 C 149.74 124.49 148.68 123.85 147.62 124.11 L 146.61 124.36 C 145.56 124.62 144.92 125.69 145.18 126.74 C 145.45 127.80 146.51 128.44 147.57 128.17 Z M 148.58 127.92 L 149.57 127.67 C 150.62 127.40 151.25 126.33 150.98 125.28 C 150.72 124.23 149.65 123.59 148.60 123.86 L 147.61 124.11 C 146.56 124.38 145.93 125.45 146.20 126.50 C 146.46 127.55 147.53 128.19 148.58 127.92 Z M 149.58 127.66 L 150.54 127.41 C 151.58 127.14 152.21 126.07 151.94 125.02 C 151.67 123.97 150.60 123.34 149.55 123.62 L 148.59 123.87 C 147.54 124.14 146.91 125.21 147.18 126.26 C 147.46 127.31 148.53 127.94 149.58 127.66 Z M 150.55 127.41 L 151.49 127.16 C 152.54 126.88 153.16 125.81 152.88 124.76 C 152.60 123.71 151.53 123.09 150.48 123.37 L 149.54 123.62 C 148.49 123.90 147.87 124.97 148.15 126.02 C 148.43 127.07 149.50 127.69 150.55 127.41 Z M 151.50 127.15 L 152.44 126.90 C 153.49 126.61 154.10 125.54 153.82 124.49 C 153.53 123.45 152.46 122.83 151.41 123.12 L 150.47 123.37 C 149.43 123.66 148.81 124.73 149.10 125.78 C 149.38 126.82 150.46 127.44 151.50 127.15 Z M 152.45 126.89 L 153.47 126.61 C 154.51 126.32 155.12 125.24 154.83 124.20 C 154.55 123.16 153.47 122.55 152.42 122.84 L 151.41 123.12 C 150.36 123.41 149.75 124.49 150.04 125.53 C 150.33 126.57 151.41 127.18 152.45 126.89 Z M 153.48 126.61 L 154.48 126.33 C 155.52 126.04 156.12 124.96 155.83 123.92 C 155.54 122.87 154.46 122.27 153.42 122.56 L 152.42 122.84 C 151.38 123.13 150.77 124.21 151.06 125.25 C 151.36 126.29 152.44 126.90 153.48 126.61 Z M 154.48 126.33 L 155.44 126.05 C 156.48 125.76 157.09 124.68 156.79 123.64 C 156.50 122.60 155.42 122.00 154.38 122.29 L 153.41 122.56 C 152.37 122.86 151.77 123.94 152.06 124.98 C 152.36 126.02 153.44 126.62 154.48 126.33 Z M 155.44 126.05 L 156.36 125.79 C 157.40 125.50 158.00 124.42 157.70 123.38 C 157.41 122.34 156.33 121.74 155.29 122.03 L 154.38 122.29 C 153.34 122.58 152.74 123.67 153.03 124.70 C 153.32 125.74 154.40 126.35 155.44 126.05 Z M 156.35 125.79 L 157.34 125.52 C 158.38 125.23 158.98 124.15 158.69 123.11 C 158.40 122.07 157.32 121.46 156.28 121.75 L 155.30 122.03 C 154.26 122.32 153.65 123.40 153.94 124.44 C 154.23 125.48 155.31 126.09 156.35 125.79 Z M 157.33 125.52 L 158.35 125.24 C 159.39 124.95 160.00 123.88 159.72 122.84 C 159.43 121.80 158.35 121.18 157.31 121.47 L 156.29 121.75 C 155.25 122.04 154.64 123.11 154.92 124.15 C 155.21 125.20 156.28 125.81 157.33 125.52 Z M 158.33 125.25 L 159.26 125.00 C 160.31 124.72 160.93 123.65 160.65 122.61 C 160.38 121.56 159.31 120.94 158.26 121.22 L 157.33 121.46 C 156.28 121.74 155.66 122.81 155.94 123.86 C 156.22 124.90 157.29 125.52 158.33 125.25 Z M 159.24 125.01 L 160.12 124.79 C 161.17 124.52 161.81 123.46 161.54 122.41 C 161.28 121.36 160.21 120.72 159.16 120.99 L 158.28 121.21 C 157.24 121.47 156.60 122.54 156.86 123.59 C 157.13 124.63 158.19 125.27 159.24 125.01 Z M 160.09 124.80 L 161.10 124.56 C 162.15 124.31 162.81 123.26 162.56 122.20 C 162.31 121.15 161.26 120.49 160.20 120.74 L 159.19 120.98 C 158.14 121.22 157.49 122.28 157.73 123.33 C 157.98 124.39 159.03 125.04 160.09 124.80 Z M 161.07 124.57 L 162.03 124.36 C 163.09 124.13 163.77 123.09 163.54 122.02 C 163.31 120.96 162.26 120.29 161.20 120.52 L 160.23 120.73 C 159.17 120.96 158.50 122.01 158.73 123.07 C 158.96 124.13 160.01 124.80 161.07 124.57 Z M 162.01 124.37 L 162.94 124.18 C 164.01 123.96 164.70 122.92 164.48 121.85 C 164.26 120.79 163.22 120.10 162.15 120.32 L 161.22 120.51 C 160.15 120.73 159.47 121.77 159.68 122.84 C 159.90 123.90 160.94 124.59 162.01 124.37 Z M 162.92 124.19 L 163.85 124.01 C 164.92 123.81 165.62 122.78 165.42 121.71 C 165.22 120.64 164.18 119.93 163.11 120.13 L 162.18 120.31 C 161.11 120.51 160.41 121.55 160.61 122.62 C 160.81 123.69 161.85 124.39 162.92 124.19 Z M 163.79 124.02 L 164.79 123.86 C 165.87 123.69 166.60 122.68 166.43 121.60 C 166.26 120.52 165.25 119.79 164.17 119.96 L 163.17 120.12 C 162.09 120.29 161.36 121.31 161.53 122.38 C 161.70 123.46 162.71 124.20 163.79 124.02 Z M 164.72 123.88 L 165.74 123.75 C 166.83 123.62 167.60 122.63 167.47 121.55 C 167.33 120.46 166.34 119.69 165.26 119.82 L 164.24 119.95 C 163.16 120.08 162.38 121.07 162.52 122.16 C 162.65 123.24 163.64 124.01 164.72 123.88 Z M 165.69 123.76 L 166.67 123.67 C 167.76 123.57 168.56 122.60 168.46 121.51 C 168.36 120.42 167.39 119.62 166.30 119.72 L 165.32 119.82 C 164.23 119.92 163.43 120.88 163.53 121.97 C 163.63 123.06 164.60 123.86 165.69 123.76 Z M 166.63 123.67 L 167.65 123.60 C 168.74 123.52 169.57 122.57 169.49 121.48 C 169.41 120.39 168.46 119.57 167.37 119.64 L 166.35 119.72 C 165.25 119.80 164.43 120.75 164.51 121.84 C 164.59 122.93 165.54 123.75 166.63 123.67 Z M 167.61 123.61 L 168.63 123.55 C 169.72 123.50 170.56 122.56 170.51 121.47 C 170.45 120.37 169.52 119.53 168.42 119.59 L 167.41 119.64 C 166.31 119.70 165.47 120.63 165.53 121.73 C 165.58 122.82 166.52 123.66 167.61 123.61 Z M 168.59 123.56 L 169.65 123.52 C 170.75 123.49 171.61 122.57 171.58 121.47 C 171.54 120.37 170.62 119.51 169.52 119.55 L 168.46 119.58 C 167.36 119.62 166.50 120.54 166.54 121.63 C 166.57 122.73 167.49 123.59 168.59 123.56 Z M 169.62 123.53 L 170.62 123.51 C 171.72 123.50 172.60 122.59 172.59 121.49 C 172.57 120.39 171.67 119.52 170.57 119.53 L 169.56 119.55 C 168.46 119.56 167.58 120.46 167.60 121.56 C 167.61 122.66 168.52 123.54 169.62 123.53 Z M 170.60 123.51 L 171.55 123.51 C 172.65 123.51 173.54 122.61 173.54 121.51 C 173.53 120.41 172.64 119.52 171.54 119.53 L 170.59 119.53 C 169.49 119.53 168.60 120.43 168.60 121.53 C 168.61 122.63 169.50 123.52 170.60 123.51 Z M 171.54 123.51 L 172.55 123.51 C 173.65 123.52 174.55 122.62 174.55 121.52 C 174.55 120.42 173.66 119.53 172.55 119.53 L 171.55 119.52 C 170.45 119.52 169.55 120.42 169.55 121.52 C 169.55 122.62 170.44 123.51 171.54 123.51 Z M 172.52 123.52 L 173.52 123.53 C 174.62 123.55 175.53 122.67 175.55 121.57 C 175.56 120.46 174.68 119.56 173.58 119.54 L 172.58 119.52 C 171.48 119.51 170.57 120.39 170.56 121.49 C 170.54 122.59 171.42 123.50 172.52 123.52 Z M 173.45 123.53 L 174.42 123.58 C 175.52 123.63 176.46 122.79 176.51 121.68 C 176.57 120.58 175.72 119.64 174.62 119.59 L 173.65 119.54 C 172.55 119.49 171.61 120.33 171.56 121.44 C 171.50 122.54 172.35 123.47 173.45 123.53 Z M 174.31 123.58 L 175.27 123.68 C 176.37 123.79 177.36 122.99 177.47 121.89 C 177.59 120.79 176.78 119.80 175.68 119.69 L 174.72 119.59 C 173.62 119.48 172.64 120.28 172.53 121.38 C 172.41 122.48 173.21 123.46 174.31 123.58 Z M 175.17 123.67 L 176.15 123.83 C 177.25 124.00 178.28 123.25 178.46 122.15 C 178.63 121.05 177.88 120.02 176.78 119.85 L 175.79 119.69 C 174.69 119.52 173.66 120.27 173.49 121.37 C 173.31 122.47 174.07 123.50 175.17 123.67 Z M 176.05 123.83 L 177.10 124.04 C 178.20 124.27 179.28 123.56 179.50 122.46 C 179.73 121.36 179.02 120.29 177.92 120.06 L 176.87 119.85 C 175.77 119.62 174.70 120.33 174.47 121.43 C 174.25 122.53 174.96 123.60 176.05 123.83 Z M 176.95 124.03 L 178.00 124.33 C 179.09 124.64 180.23 124.01 180.54 122.91 C 180.85 121.82 180.22 120.68 179.13 120.37 L 178.07 120.07 C 176.98 119.76 175.84 120.40 175.53 121.49 C 175.22 122.58 175.86 123.72 176.95 124.03 Z M 177.59 124.20 L 178.43 124.64 C 179.45 125.17 180.71 124.78 181.25 123.76 C 181.78 122.74 181.39 121.48 180.37 120.94 L 179.53 120.50 C 178.51 119.97 177.25 120.36 176.71 121.38 C 176.18 122.40 176.57 123.66 177.59 124.20 Z M 177.60 123.90 L 177.99 124.53 C 178.60 125.52 179.91 125.83 180.90 125.22 C 181.89 124.61 182.20 123.31 181.58 122.31 L 181.19 121.68 C 180.58 120.69 179.28 120.38 178.29 120.99 C 177.30 121.61 176.99 122.91 177.60 123.90 Z M 177.67 123.24 L 177.60 124.11 C 177.50 125.27 178.36 126.30 179.53 126.41 C 180.69 126.51 181.72 125.65 181.83 124.48 L 181.90 123.61 C 182.01 122.44 181.14 121.41 179.97 121.31 C 178.81 121.21 177.78 122.07 177.67 123.24 Z M 177.71 123.57 L 177.30 124.70 C 176.90 125.80 177.47 127.02 178.57 127.42 C 179.68 127.83 180.90 127.26 181.30 126.15 L 181.71 125.02 C 182.11 123.91 181.54 122.69 180.44 122.29 C 179.33 121.89 178.11 122.46 177.71 123.57 Z M 177.34 124.58 L 176.96 125.47 C 176.49 126.56 176.98 127.81 178.06 128.28 C 179.15 128.75 180.40 128.25 180.87 127.17 L 181.26 126.27 C 181.72 125.19 181.23 123.94 180.15 123.47 C 179.07 123.00 177.81 123.50 177.34 124.58 Z M 176.97 125.45 L 176.56 126.36 C 176.08 127.43 176.56 128.70 177.63 129.18 C 178.70 129.66 179.97 129.18 180.45 128.11 L 180.86 127.19 C 181.34 126.12 180.86 124.86 179.78 124.38 C 178.71 123.90 177.45 124.38 176.97 125.45 Z M 176.56 126.35 L 176.13 127.30 C 175.65 128.37 176.12 129.63 177.19 130.12 C 178.26 130.61 179.53 130.13 180.01 129.06 L 180.44 128.11 C 180.93 127.04 180.45 125.78 179.38 125.29 C 178.31 124.81 177.05 125.28 176.56 126.35 Z M 176.13 127.30 L 175.71 128.25 C 175.22 129.32 175.70 130.58 176.77 131.06 C 177.84 131.55 179.10 131.07 179.59 130.00 L 180.01 129.06 C 180.50 127.99 180.02 126.72 178.95 126.24 C 177.88 125.76 176.62 126.23 176.13 127.30 Z M 175.70 128.26 L 175.30 129.19 C 174.82 130.26 175.31 131.52 176.38 131.99 C 177.45 132.47 178.71 131.98 179.18 130.91 L 179.59 129.98 C 180.06 128.91 179.58 127.65 178.51 127.18 C 177.43 126.70 176.18 127.19 175.70 128.26 Z M 175.30 129.22 L 174.91 130.13 C 174.45 131.20 174.95 132.44 176.03 132.90 C 177.10 133.36 178.34 132.86 178.79 131.78 L 179.18 130.87 C 179.64 129.80 179.14 128.56 178.07 128.11 C 176.99 127.65 175.75 128.15 175.30 129.22 Z M 174.92 130.16 L 174.55 131.05 C 174.11 132.12 174.62 133.35 175.69 133.79 C 176.76 134.23 177.98 133.72 178.42 132.65 L 178.79 131.75 C 179.23 130.68 178.72 129.46 177.65 129.02 C 176.58 128.58 175.36 129.09 174.92 130.16 Z M 174.56 131.08 L 174.19 132.00 C 173.76 133.06 174.27 134.27 175.34 134.70 C 176.40 135.13 177.61 134.61 178.04 133.55 L 178.41 132.63 C 178.84 131.56 178.32 130.35 177.26 129.92 C 176.19 129.50 174.98 130.01 174.56 131.08 Z M 174.20 132.01 L 173.82 132.97 C 173.40 134.02 173.92 135.22 174.97 135.64 C 176.03 136.06 177.23 135.54 177.65 134.49 L 178.03 133.54 C 178.45 132.48 177.93 131.28 176.87 130.86 C 175.82 130.44 174.62 130.96 174.20 132.01 Z M 173.84 132.97 L 173.47 133.90 C 173.06 134.95 173.57 136.14 174.61 136.55 C 175.66 136.97 176.84 136.45 177.26 135.41 L 177.63 134.48 C 178.04 133.43 177.53 132.25 176.49 131.83 C 175.44 131.42 174.26 131.93 173.84 132.97 Z M 173.49 133.92 L 173.11 134.88 C 172.70 135.91 173.21 137.08 174.25 137.49 C 175.28 137.90 176.45 137.39 176.86 136.36 L 177.24 135.40 C 177.65 134.36 177.14 133.19 176.10 132.78 C 175.07 132.37 173.90 132.88 173.49 133.92 Z M 173.13 134.89 L 172.76 135.85 C 172.35 136.87 172.86 138.03 173.89 138.43 C 174.91 138.83 176.07 138.32 176.47 137.30 L 176.84 136.34 C 177.24 135.32 176.74 134.16 175.71 133.76 C 174.69 133.36 173.53 133.87 173.13 134.89 Z M 172.77 135.87 L 172.42 136.78 C 172.03 137.80 172.53 138.94 173.55 139.33 C 174.56 139.72 175.71 139.21 176.10 138.20 L 176.45 137.28 C 176.84 136.27 176.34 135.13 175.32 134.74 C 174.30 134.34 173.16 134.85 172.77 135.87 Z M 172.45 136.81 L 172.08 137.80 C 171.71 138.80 172.21 139.91 173.21 140.29 C 174.20 140.66 175.32 140.16 175.69 139.16 L 176.06 138.17 C 176.44 137.17 175.93 136.06 174.94 135.69 C 173.94 135.31 172.83 135.82 172.45 136.81 Z M 172.14 137.85 L 171.78 138.84 C 171.43 139.80 171.93 140.86 172.89 141.21 C 173.86 141.56 174.92 141.07 175.27 140.10 L 175.63 139.12 C 175.98 138.15 175.48 137.09 174.52 136.74 C 173.56 136.39 172.49 136.89 172.14 137.85 Z M 171.86 138.89 L 171.55 139.78 C 171.22 140.70 171.70 141.71 172.62 142.03 C 173.54 142.36 174.55 141.88 174.87 140.96 L 175.19 140.06 C 175.51 139.14 175.03 138.13 174.11 137.81 C 173.19 137.48 172.19 137.97 171.86 138.89 Z M 171.63 139.82 L 171.33 140.67 C 171.03 141.55 171.49 142.50 172.37 142.80 C 173.24 143.11 174.20 142.64 174.50 141.77 L 174.79 140.92 C 175.09 140.04 174.63 139.09 173.76 138.79 C 172.88 138.49 171.93 138.95 171.63 139.82 Z"
      fill="black"
      fill-rule="nonzero" /><path d="M 136.61 134.97 L 136.77 135.97 C 136.92 136.96 137.86 137.65 138.85 137.49 C 139.85 137.34 140.53 136.40 140.38 135.40 L 140.22 134.41 C 140.07 133.41 139.13 132.73 138.14 132.88 C 137.14 133.04 136.46 133.97 136.61 134.97 Z M 136.75 135.93 L 136.88 136.92 C 137.02 137.93 137.95 138.64 138.95 138.50 C 139.96 138.36 140.67 137.44 140.53 136.43 L 140.40 135.44 C 140.26 134.43 139.33 133.73 138.33 133.86 C 137.32 134.00 136.61 134.92 136.75 135.93 Z M 136.86 136.85 L 136.96 137.84 C 137.05 138.85 137.95 139.60 138.97 139.51 C 139.99 139.41 140.74 138.51 140.64 137.49 L 140.55 136.51 C 140.45 135.49 139.55 134.74 138.53 134.83 C 137.52 134.93 136.77 135.83 136.86 136.85 Z M 136.94 137.73 L 136.98 138.72 C 137.01 139.75 137.87 140.55 138.90 140.51 C 139.92 140.48 140.72 139.62 140.69 138.59 L 140.65 137.60 C 140.62 136.58 139.76 135.77 138.74 135.81 C 137.71 135.84 136.91 136.70 136.94 137.73 Z M 136.98 138.61 L 136.96 139.61 C 136.93 140.63 137.74 141.48 138.76 141.50 C 139.79 141.53 140.64 140.72 140.66 139.70 L 140.68 138.70 C 140.71 137.68 139.90 136.83 138.88 136.81 C 137.85 136.78 137.01 137.59 136.98 138.61 Z M 136.96 139.52 L 136.89 140.52 C 136.82 141.54 137.58 142.43 138.60 142.50 C 139.62 142.58 140.51 141.81 140.58 140.79 L 140.65 139.79 C 140.73 138.77 139.96 137.88 138.94 137.81 C 137.92 137.73 137.04 138.50 136.96 139.52 Z M 136.90 140.46 L 136.80 141.40 C 136.69 142.41 137.42 143.32 138.43 143.43 C 139.44 143.54 140.35 142.81 140.47 141.80 L 140.57 140.86 C 140.68 139.85 139.95 138.94 138.94 138.83 C 137.92 138.72 137.01 139.45 136.90 140.46 Z M 136.82 141.35 L 136.68 142.32 C 136.54 143.33 137.24 144.25 138.25 144.39 C 139.25 144.53 140.18 143.83 140.32 142.82 L 140.45 141.85 C 140.59 140.85 139.89 139.92 138.88 139.78 C 137.88 139.64 136.95 140.34 136.82 141.35 Z M 136.70 142.28 L 136.53 143.31 C 136.37 144.31 137.05 145.25 138.05 145.41 C 139.04 145.57 139.98 144.89 140.14 143.89 L 140.30 142.86 C 140.46 141.87 139.78 140.93 138.79 140.77 C 137.79 140.61 136.85 141.29 136.70 142.28 Z M 136.55 143.29 L 136.37 144.29 C 136.20 145.28 136.86 146.22 137.85 146.39 C 138.84 146.56 139.78 145.90 139.95 144.92 L 140.12 143.91 C 140.29 142.93 139.63 141.99 138.65 141.81 C 137.66 141.64 136.72 142.30 136.55 143.29 Z M 136.39 144.29 L 136.21 145.28 C 136.03 146.26 136.68 147.20 137.66 147.37 C 138.64 147.55 139.58 146.90 139.75 145.92 L 139.93 144.92 C 140.11 143.94 139.46 143.01 138.48 142.83 C 137.50 142.66 136.56 143.31 136.39 144.29 Z M 136.22 145.29 L 136.05 146.29 C 135.88 147.27 136.53 148.19 137.50 148.36 C 138.47 148.53 139.39 147.88 139.56 146.91 L 139.74 145.91 C 139.91 144.93 139.26 144.01 138.29 143.84 C 137.32 143.67 136.39 144.32 136.22 145.29 Z M 136.06 146.32 L 135.91 147.30 C 135.75 148.26 136.41 149.17 137.37 149.32 C 138.34 149.47 139.24 148.82 139.40 147.85 L 139.55 146.88 C 139.71 145.91 139.05 145.01 138.08 144.86 C 137.12 144.70 136.21 145.36 136.06 146.32 Z M 135.93 147.35 L 135.79 148.39 C 135.66 149.34 136.33 150.22 137.28 150.34 C 138.24 150.47 139.11 149.80 139.24 148.85 L 139.38 147.80 C 139.50 146.85 138.83 145.98 137.88 145.85 C 136.93 145.72 136.05 146.39 135.93 147.35 Z M 135.82 148.44 L 135.71 149.43 C 135.61 150.36 136.29 151.20 137.22 151.30 C 138.16 151.40 139.00 150.73 139.10 149.79 L 139.21 148.80 C 139.31 147.86 138.63 147.02 137.69 146.92 C 136.76 146.82 135.92 147.50 135.82 148.44 Z M 135.75 149.46 L 135.66 150.42 C 135.58 151.33 136.25 152.14 137.17 152.23 C 138.08 152.31 138.89 151.64 138.98 150.72 L 139.06 149.76 C 139.15 148.85 138.47 148.04 137.56 147.95 C 136.64 147.87 135.83 148.54 135.75 149.46 Z M 135.69 150.43 L 135.66 150.75 C 135.58 151.65 136.25 152.45 137.15 152.53 C 138.05 152.60 138.85 151.94 138.92 151.03 L 138.95 150.71 C 139.03 149.81 138.36 149.01 137.46 148.94 C 136.56 148.86 135.76 149.53 135.69 150.43 Z"
      fill="black"
      fill-rule="nonzero" /><path d="M 140.14 140.68 L 139.00 141.18 C 138.06 141.59 137.63 142.68 138.04 143.62 C 138.45 144.56 139.54 144.99 140.48 144.58 L 141.63 144.08 C 142.57 143.67 143.00 142.58 142.59 141.64 C 142.18 140.70 141.08 140.27 140.14 140.68 Z M 139.25 144.74 L 139.32 144.76 C 140.35 145.03 141.40 144.41 141.67 143.38 C 141.94 142.35 141.33 141.30 140.30 141.03 L 140.23 141.01 C 139.20 140.74 138.15 141.36 137.88 142.39 C 137.61 143.42 138.22 144.47 139.25 144.74 Z M 140.55 144.70 L 141.64 144.25 C 142.64 143.84 143.11 142.71 142.71 141.71 C 142.30 140.71 141.16 140.24 140.16 140.64 L 139.07 141.09 C 138.07 141.50 137.60 142.64 138.00 143.63 C 138.41 144.63 139.55 145.11 140.55 144.70 Z M 141.75 144.20 L 142.75 143.72 C 143.72 143.25 144.12 142.08 143.65 141.11 C 143.18 140.14 142.02 139.74 141.05 140.21 L 140.05 140.70 C 139.08 141.17 138.68 142.33 139.15 143.30 C 139.62 144.27 140.79 144.67 141.75 144.20 Z M 142.82 143.67 L 143.71 143.20 C 144.66 142.69 145.01 141.51 144.50 140.57 C 144.00 139.62 142.82 139.27 141.88 139.77 L 140.98 140.25 C 140.04 140.76 139.68 141.94 140.19 142.88 C 140.70 143.83 141.87 144.18 142.82 143.67 Z M 143.75 143.16 L 144.64 142.65 C 145.57 142.12 145.89 140.94 145.36 140.02 C 144.83 139.09 143.65 138.77 142.72 139.30 L 141.83 139.81 C 140.91 140.34 140.58 141.52 141.11 142.44 C 141.64 143.37 142.83 143.69 143.75 143.16 Z M 144.67 142.61 L 145.57 142.07 C 146.47 141.52 146.76 140.35 146.22 139.44 C 145.67 138.54 144.50 138.25 143.60 138.80 L 142.70 139.34 C 141.79 139.89 141.50 141.06 142.05 141.96 C 142.60 142.87 143.77 143.15 144.67 142.61 Z M 145.58 141.99 L 146.45 141.44 C 147.31 140.89 147.57 139.75 147.02 138.88 C 146.47 138.02 145.33 137.76 144.46 138.31 L 143.59 138.87 C 142.73 139.42 142.47 140.56 143.02 141.43 C 143.57 142.29 144.71 142.54 145.58 141.99 Z M 146.43 141.36 L 147.22 140.84 C 148.04 140.31 148.27 139.21 147.74 138.39 C 147.20 137.56 146.10 137.33 145.28 137.87 L 144.48 138.39 C 143.66 138.93 143.43 140.03 143.97 140.85 C 144.51 141.67 145.61 141.90 146.43 141.36 Z M 147.18 140.79 L 148.01 140.24 C 148.80 139.73 149.02 138.67 148.51 137.88 C 147.99 137.09 146.94 136.87 146.15 137.39 L 145.32 137.93 C 144.53 138.44 144.31 139.50 144.82 140.29 C 145.33 141.08 146.39 141.30 147.18 140.79 Z M 147.97 140.20 L 148.80 139.66 C 149.57 139.17 149.79 138.15 149.30 137.39 C 148.81 136.63 147.79 136.41 147.03 136.90 L 146.19 137.43 C 145.43 137.92 145.21 138.94 145.70 139.70 C 146.19 140.47 147.21 140.69 147.97 140.20 Z M 148.77 139.62 L 149.32 139.27 C 150.06 138.80 150.28 137.81 149.81 137.07 C 149.33 136.33 148.35 136.11 147.61 136.59 L 147.06 136.94 C 146.32 137.41 146.10 138.39 146.57 139.14 C 147.05 139.88 148.03 140.09 148.77 139.62 Z"
      fill="black"
      fill-rule="nonzero" /><path d="M 122.98 158.46 L 123.94 158.57 C 124.88 158.67 125.73 157.99 125.84 157.05 C 125.94 156.11 125.26 155.27 124.32 155.16 L 123.36 155.05 C 122.42 154.95 121.57 155.63 121.47 156.57 C 121.36 157.51 122.04 158.36 122.98 158.46 Z M 124.12 158.71 L 125.13 158.72 C 126.15 158.72 126.99 157.90 126.99 156.88 C 127.00 155.86 126.17 155.03 125.15 155.02 L 124.14 155.02 C 123.12 155.01 122.29 155.83 122.28 156.85 C 122.28 157.88 123.10 158.71 124.12 158.71 Z M 125.44 158.78 L 126.31 158.65 C 127.36 158.49 128.09 157.50 127.93 156.44 C 127.77 155.39 126.78 154.66 125.72 154.82 L 124.85 154.96 C 123.79 155.12 123.07 156.11 123.23 157.16 C 123.39 158.22 124.38 158.95 125.44 158.78 Z M 126.52 158.63 L 127.41 158.39 C 128.45 158.11 129.07 157.03 128.79 155.99 C 128.51 154.95 127.44 154.33 126.39 154.61 L 125.51 154.85 C 124.46 155.13 123.84 156.20 124.12 157.25 C 124.40 158.29 125.48 158.91 126.52 158.63 Z M 127.51 158.36 L 128.55 158.02 C 129.58 157.69 130.14 156.58 129.81 155.55 C 129.47 154.52 128.36 153.96 127.33 154.30 L 126.29 154.64 C 125.26 154.97 124.70 156.08 125.04 157.11 C 125.37 158.13 126.48 158.70 127.51 158.36 Z M 128.58 158.02 L 129.59 157.67 C 130.61 157.32 131.16 156.20 130.81 155.18 C 130.46 154.15 129.34 153.61 128.32 153.96 L 127.31 154.30 C 126.28 154.65 125.73 155.77 126.09 156.79 C 126.44 157.82 127.55 158.37 128.58 158.02 Z M 129.59 157.67 L 130.50 157.35 C 131.53 157.00 132.07 155.88 131.72 154.86 C 131.36 153.84 130.25 153.29 129.22 153.64 L 128.31 153.96 C 127.29 154.31 126.74 155.43 127.10 156.45 C 127.45 157.48 128.57 158.02 129.59 157.67 Z M 130.51 157.35 L 131.47 157.02 C 132.50 156.66 133.04 155.54 132.68 154.52 C 132.32 153.49 131.20 152.95 130.18 153.31 L 129.22 153.65 C 128.19 154.00 127.65 155.12 128.01 156.15 C 128.37 157.17 129.48 157.71 130.51 157.35 Z M 131.48 157.01 L 132.46 156.67 C 133.49 156.31 134.02 155.18 133.66 154.16 C 133.30 153.14 132.18 152.61 131.16 152.97 L 130.17 153.31 C 129.15 153.68 128.62 154.80 128.98 155.82 C 129.34 156.84 130.46 157.37 131.48 157.01 Z M 132.47 156.66 L 133.44 156.31 C 134.46 155.95 134.99 154.82 134.62 153.80 C 134.25 152.78 133.13 152.25 132.11 152.62 L 131.14 152.97 C 130.12 153.34 129.60 154.46 129.96 155.48 C 130.33 156.50 131.46 157.03 132.47 156.66 Z M 133.46 156.30 L 134.50 155.92 C 135.52 155.54 136.04 154.41 135.66 153.40 C 135.28 152.38 134.16 151.87 133.14 152.24 L 132.09 152.63 C 131.08 153.01 130.56 154.14 130.94 155.15 C 131.32 156.16 132.44 156.68 133.46 156.30 Z M 134.52 155.90 L 135.54 155.51 C 136.54 155.13 137.05 154.00 136.66 152.99 C 136.28 151.98 135.15 151.48 134.14 151.87 L 133.12 152.26 C 132.12 152.64 131.61 153.77 132.00 154.78 C 132.39 155.79 133.51 156.29 134.52 155.90 Z M 135.55 155.50 L 136.47 155.14 C 137.47 154.75 137.96 153.61 137.56 152.61 C 137.17 151.61 136.04 151.12 135.04 151.52 L 134.12 151.88 C 133.12 152.27 132.63 153.40 133.03 154.40 C 133.42 155.40 134.55 155.90 135.55 155.50 Z M 136.48 155.13 L 137.29 154.80 C 138.28 154.40 138.76 153.27 138.36 152.28 C 137.96 151.28 136.83 150.80 135.84 151.20 L 135.03 151.53 C 134.03 151.93 133.55 153.06 133.96 154.06 C 134.36 155.05 135.49 155.53 136.48 155.13 Z M 137.30 154.78 L 138.22 154.40 C 139.20 154.00 139.67 152.87 139.27 151.89 C 138.86 150.90 137.73 150.44 136.75 150.84 L 135.83 151.22 C 134.85 151.63 134.38 152.75 134.78 153.74 C 135.19 154.72 136.32 155.19 137.30 154.78 Z M 138.24 154.37 L 139.13 153.99 C 140.09 153.57 140.54 152.45 140.12 151.49 C 139.71 150.52 138.59 150.08 137.62 150.49 L 136.73 150.87 C 135.77 151.29 135.32 152.41 135.74 153.37 C 136.15 154.34 137.27 154.79 138.24 154.37 Z M 139.15 153.95 L 140.04 153.54 C 140.98 153.11 141.40 152.00 140.97 151.05 C 140.54 150.11 139.42 149.69 138.48 150.13 L 137.59 150.53 C 136.65 150.96 136.23 152.08 136.66 153.02 C 137.10 153.97 138.21 154.38 139.15 153.95 Z M 140.07 153.51 L 140.82 153.15 C 141.75 152.70 142.14 151.59 141.69 150.66 C 141.25 149.74 140.14 149.35 139.21 149.79 L 138.45 150.16 C 137.53 150.60 137.14 151.72 137.58 152.64 C 138.03 153.57 139.14 153.96 140.07 153.51 Z M 140.84 153.12 L 141.70 152.69 C 142.61 152.24 142.98 151.13 142.53 150.21 C 142.07 149.30 140.96 148.93 140.05 149.39 L 139.19 149.82 C 138.28 150.27 137.91 151.38 138.36 152.30 C 138.82 153.21 139.93 153.58 140.84 153.12 Z M 141.72 152.67 L 142.69 152.17 C 143.59 151.70 143.94 150.59 143.47 149.69 C 143.01 148.79 141.90 148.44 141.00 148.91 L 140.03 149.41 C 139.13 149.88 138.77 150.99 139.24 151.89 C 139.71 152.79 140.82 153.14 141.72 152.67 Z M 142.70 152.15 L 143.63 151.65 C 144.52 151.17 144.86 150.07 144.38 149.18 C 143.91 148.29 142.80 147.96 141.91 148.43 L 140.98 148.93 C 140.10 149.40 139.76 150.51 140.24 151.40 C 140.71 152.29 141.82 152.62 142.70 152.15 Z M 143.64 151.63 L 144.46 151.18 C 145.34 150.70 145.66 149.60 145.18 148.73 C 144.70 147.85 143.61 147.53 142.73 148.01 L 141.91 148.45 C 141.03 148.93 140.71 150.03 141.19 150.91 C 141.66 151.78 142.76 152.10 143.64 151.63 Z M 144.46 151.16 L 145.33 150.68 C 146.19 150.20 146.50 149.12 146.03 148.25 C 145.55 147.39 144.46 147.07 143.60 147.55 L 142.73 148.03 C 141.87 148.50 141.55 149.59 142.03 150.46 C 142.51 151.32 143.59 151.63 144.46 151.16 Z M 145.32 150.66 L 146.22 150.16 C 147.08 149.68 147.38 148.61 146.91 147.75 C 146.44 146.90 145.36 146.59 144.51 147.07 L 143.60 147.57 C 142.75 148.04 142.44 149.12 142.92 149.97 C 143.39 150.83 144.47 151.13 145.32 150.66 Z M 146.22 150.14 L 147.14 149.63 C 147.98 149.15 148.28 148.09 147.81 147.25 C 147.34 146.40 146.28 146.10 145.43 146.57 L 144.51 147.09 C 143.67 147.56 143.37 148.62 143.84 149.47 C 144.31 150.31 145.37 150.61 146.22 150.14 Z M 147.13 149.61 L 147.70 149.29 C 148.54 148.83 148.83 147.77 148.37 146.93 C 147.90 146.10 146.84 145.80 146.01 146.27 L 145.44 146.59 C 144.61 147.05 144.31 148.11 144.77 148.94 C 145.24 149.78 146.30 150.08 147.13 149.61 Z"
      fill="black"
      fill-rule="nonzero" /><path d="M 135.29 157.29 L 135.49 158.33 C 135.67 159.27 136.59 159.89 137.53 159.71 C 138.48 159.53 139.10 158.61 138.92 157.67 L 138.72 156.63 C 138.54 155.69 137.62 155.07 136.68 155.25 C 135.73 155.43 135.11 156.35 135.29 157.29 Z M 135.42 158.32 L 135.60 159.32 C 135.78 160.31 136.72 160.96 137.70 160.79 C 138.69 160.61 139.35 159.67 139.17 158.68 L 138.99 157.68 C 138.81 156.69 137.87 156.03 136.88 156.21 C 135.90 156.39 135.24 157.33 135.42 158.32 Z M 135.52 159.28 L 135.67 160.23 C 135.82 161.25 136.78 161.96 137.81 161.81 C 138.84 161.65 139.54 160.69 139.39 159.66 L 139.25 158.72 C 139.09 157.69 138.13 156.98 137.10 157.14 C 136.08 157.29 135.37 158.25 135.52 159.28 Z M 135.61 160.13 L 135.70 161.14 C 135.81 162.20 136.75 162.97 137.81 162.87 C 138.87 162.77 139.65 161.82 139.55 160.76 L 139.45 159.76 C 139.34 158.70 138.40 157.92 137.34 158.02 C 136.28 158.13 135.50 159.07 135.61 160.13 Z M 135.68 161.02 L 135.72 162.00 C 135.76 163.08 136.66 163.91 137.74 163.87 C 138.81 163.83 139.65 162.93 139.61 161.85 L 139.57 160.87 C 139.53 159.80 138.63 158.96 137.55 159.00 C 136.48 159.04 135.64 159.95 135.68 161.02 Z M 135.71 161.94 L 135.71 162.91 C 135.72 163.99 136.60 164.86 137.68 164.86 C 138.76 164.85 139.63 163.97 139.62 162.89 L 139.62 161.92 C 139.61 160.84 138.73 159.97 137.65 159.97 C 136.57 159.98 135.70 160.86 135.71 161.94 Z M 135.70 162.90 L 135.70 163.84 C 135.70 164.93 136.58 165.81 137.67 165.81 C 138.75 165.80 139.63 164.92 139.63 163.84 L 139.63 162.90 C 139.63 161.82 138.75 160.94 137.66 160.94 C 136.58 160.94 135.70 161.82 135.70 162.90 Z M 135.69 163.85 L 135.70 164.86 C 135.70 165.95 136.59 166.83 137.68 166.82 C 138.77 166.82 139.65 165.93 139.65 164.84 L 139.64 163.83 C 139.64 162.74 138.75 161.86 137.66 161.87 C 136.57 161.87 135.69 162.76 135.69 163.85 Z M 135.69 164.87 L 135.70 165.93 C 135.71 167.02 136.61 167.90 137.70 167.89 C 138.80 167.88 139.68 166.98 139.67 165.88 L 139.65 164.83 C 139.64 163.73 138.75 162.85 137.65 162.86 C 136.56 162.88 135.68 163.77 135.69 164.87 Z M 135.69 165.94 L 135.71 166.90 C 135.72 168.00 136.63 168.88 137.73 168.86 C 138.83 168.84 139.71 167.94 139.69 166.83 L 139.68 165.87 C 139.66 164.77 138.75 163.89 137.65 163.91 C 136.55 163.93 135.67 164.84 135.69 165.94 Z M 135.69 166.91 L 135.71 167.91 C 135.73 169.02 136.65 169.90 137.76 169.88 C 138.86 169.85 139.74 168.94 139.72 167.83 L 139.70 166.83 C 139.68 165.72 138.77 164.84 137.66 164.86 C 136.55 164.88 135.67 165.80 135.69 166.91 Z M 135.70 167.90 L 135.72 168.93 C 135.74 170.04 136.66 170.93 137.77 170.91 C 138.88 170.89 139.77 169.98 139.75 168.86 L 139.73 167.84 C 139.72 166.72 138.80 165.84 137.68 165.85 C 136.57 165.87 135.68 166.79 135.70 167.90 Z M 135.71 168.92 L 135.72 169.93 C 135.73 171.05 136.65 171.94 137.77 171.93 C 138.89 171.92 139.79 171.00 139.77 169.88 L 139.76 168.87 C 139.75 167.75 138.83 166.86 137.71 166.87 C 136.59 166.88 135.70 167.80 135.71 168.92 Z M 135.71 169.92 L 135.72 170.91 C 135.72 172.04 136.64 172.94 137.77 172.94 C 138.89 172.93 139.80 172.01 139.79 170.89 L 139.78 169.89 C 139.78 168.77 138.86 167.86 137.74 167.87 C 136.61 167.88 135.71 168.79 135.71 169.92 Z M 135.71 170.90 L 135.71 171.91 C 135.72 173.03 136.63 173.95 137.76 173.94 C 138.89 173.94 139.80 173.03 139.80 171.90 L 139.80 170.90 C 139.79 169.77 138.88 168.85 137.75 168.86 C 136.62 168.86 135.71 169.78 135.71 170.90 Z M 135.70 171.90 L 135.71 172.91 C 135.71 174.04 136.62 174.96 137.76 174.96 C 138.89 174.96 139.81 174.04 139.81 172.91 L 139.81 171.90 C 139.81 170.77 138.89 169.85 137.75 169.85 C 136.62 169.85 135.70 170.77 135.70 171.90 Z M 135.70 172.91 L 135.70 173.91 C 135.70 175.05 136.62 175.97 137.76 175.97 C 138.89 175.97 139.82 175.05 139.82 173.91 L 139.82 172.91 C 139.82 171.77 138.89 170.85 137.76 170.85 C 136.62 170.85 135.70 171.77 135.70 172.91 Z M 135.69 173.91 L 135.69 174.92 C 135.69 176.06 136.61 176.98 137.76 176.98 C 138.90 176.98 139.82 176.06 139.82 174.92 L 139.82 173.91 C 139.82 172.77 138.90 171.84 137.76 171.84 C 136.61 171.84 135.69 172.77 135.69 173.91 Z M 135.68 174.92 L 135.68 175.92 C 135.68 177.06 136.61 177.99 137.76 177.99 C 138.90 177.99 139.83 177.06 139.83 175.92 L 139.83 174.92 C 139.83 173.77 138.90 172.84 137.76 172.84 C 136.61 172.84 135.68 173.77 135.68 174.92 Z M 135.67 175.92 L 135.67 176.92 C 135.67 178.07 136.60 179.00 137.76 179.00 C 138.91 179.00 139.84 178.07 139.84 176.92 L 139.84 175.92 C 139.84 174.76 138.91 173.83 137.76 173.83 C 136.60 173.83 135.67 174.76 135.67 175.92 Z M 135.66 176.92 L 135.66 177.95 C 135.66 179.10 136.60 180.04 137.76 180.04 C 138.91 180.04 139.85 179.10 139.85 177.95 L 139.85 176.92 C 139.85 175.76 138.91 174.82 137.76 174.82 C 136.60 174.82 135.66 175.76 135.66 176.92 Z M 135.65 177.95 L 135.65 178.95 C 135.65 180.11 136.59 181.06 137.76 181.06 C 138.92 181.06 139.86 180.11 139.86 178.95 L 139.86 177.95 C 139.86 176.78 138.92 175.84 137.76 175.84 C 136.59 175.84 135.65 176.78 135.65 177.95 Z M 135.64 178.95 L 135.64 179.93 C 135.64 181.09 136.59 182.04 137.76 182.04 C 138.92 182.04 139.87 181.09 139.87 179.93 L 139.87 178.95 C 139.87 177.78 138.92 176.84 137.76 176.84 C 136.59 176.84 135.64 177.78 135.64 178.95 Z M 135.63 179.93 L 135.63 180.95 C 135.63 182.12 136.58 183.07 137.76 183.07 C 138.93 183.07 139.88 182.12 139.88 180.95 L 139.88 179.93 C 139.88 178.75 138.93 177.80 137.76 177.80 C 136.58 177.80 135.63 178.75 135.63 179.93 Z M 135.62 180.94 L 135.62 181.96 C 135.62 183.14 136.57 184.09 137.75 184.10 C 138.93 184.10 139.88 183.14 139.89 181.97 L 139.89 180.95 C 139.89 179.77 138.94 178.82 137.76 178.81 C 136.58 178.81 135.63 179.76 135.62 180.94 Z M 135.61 181.95 L 135.61 182.92 C 135.60 184.11 136.55 185.07 137.73 185.08 C 138.91 185.09 139.88 184.14 139.89 182.95 L 139.89 181.98 C 139.90 180.80 138.95 179.83 137.77 179.82 C 136.59 179.82 135.62 180.77 135.61 181.95 Z M 135.60 182.91 L 135.58 183.86 C 135.57 185.04 136.51 186.02 137.70 186.04 C 138.88 186.06 139.86 185.11 139.88 183.92 L 139.89 182.97 C 139.91 181.79 138.97 180.81 137.78 180.79 C 136.59 180.77 135.62 181.72 135.60 182.91 Z M 135.58 183.82 L 135.54 184.78 C 135.50 185.97 136.43 186.96 137.62 187.01 C 138.81 187.05 139.81 186.12 139.85 184.93 L 139.89 183.97 C 139.93 182.78 139.00 181.78 137.81 181.74 C 136.62 181.70 135.62 182.63 135.58 183.82 Z M 135.54 184.70 L 135.47 185.71 C 135.39 186.90 136.29 187.94 137.48 188.02 C 138.68 188.10 139.71 187.20 139.79 186.01 L 139.86 185.00 C 139.94 183.81 139.04 182.77 137.85 182.69 C 136.65 182.61 135.62 183.51 135.54 184.70 Z M 135.47 185.63 L 135.36 186.67 C 135.23 187.86 136.09 188.93 137.29 189.06 C 138.48 189.19 139.55 188.32 139.68 187.13 L 139.79 186.09 C 139.92 184.90 139.05 183.83 137.86 183.70 C 136.67 183.57 135.60 184.43 135.47 185.63 Z M 135.36 186.58 L 135.21 187.60 C 135.03 188.79 135.85 189.90 137.04 190.08 C 138.23 190.26 139.34 189.44 139.52 188.24 L 139.68 187.22 C 139.85 186.03 139.03 184.92 137.84 184.74 C 136.65 184.56 135.54 185.38 135.36 186.58 Z M 135.22 187.48 L 135.01 188.49 C 134.77 189.67 135.53 190.83 136.71 191.07 C 137.90 191.32 139.06 190.56 139.30 189.37 L 139.51 188.37 C 139.76 187.18 138.99 186.02 137.81 185.78 C 136.62 185.53 135.47 186.29 135.22 187.48 Z M 135.05 188.30 L 134.78 189.21 C 134.43 190.38 135.10 191.60 136.26 191.95 C 137.42 192.29 138.65 191.63 139.00 190.46 L 139.27 189.56 C 139.61 188.39 138.95 187.17 137.78 186.82 C 136.62 186.47 135.39 187.14 135.05 188.30 Z M 134.93 188.82 L 134.38 189.87 C 133.83 190.95 134.25 192.29 135.33 192.85 C 136.41 193.41 137.75 192.98 138.31 191.90 L 138.85 190.85 C 139.41 189.77 138.98 188.44 137.90 187.88 C 136.82 187.32 135.49 187.74 134.93 188.82 Z M 134.96 189.16 L 134.28 189.71 C 133.33 190.48 133.18 191.87 133.95 192.82 C 134.72 193.77 136.11 193.92 137.06 193.15 L 137.74 192.61 C 138.69 191.84 138.83 190.45 138.07 189.49 C 137.30 188.54 135.91 188.40 134.96 189.16 Z M 135.83 189.22 L 135.10 189.17 C 133.88 189.08 132.82 190.00 132.74 191.22 C 132.65 192.44 133.57 193.50 134.79 193.59 L 135.52 193.64 C 136.74 193.73 137.79 192.81 137.88 191.59 C 137.97 190.37 137.05 189.31 135.83 189.22 Z M 136.29 189.62 L 135.50 189.02 C 134.53 188.28 133.14 188.47 132.40 189.44 C 131.66 190.41 131.85 191.80 132.82 192.54 L 133.60 193.14 C 134.58 193.88 135.96 193.69 136.70 192.72 C 137.45 191.75 137.26 190.36 136.29 189.62 Z M 135.84 189.35 L 135.11 188.49 C 134.32 187.56 132.93 187.45 132.00 188.24 C 131.07 189.03 130.95 190.42 131.74 191.35 L 132.48 192.21 C 133.27 193.14 134.66 193.25 135.59 192.46 C 136.52 191.67 136.63 190.28 135.84 189.35 Z M 135.21 188.62 L 134.63 187.83 C 133.91 186.85 132.53 186.63 131.55 187.35 C 130.56 188.07 130.35 189.45 131.07 190.44 L 131.65 191.22 C 132.37 192.21 133.75 192.42 134.73 191.70 C 135.71 190.98 135.93 189.60 135.21 188.62 Z M 134.66 187.88 L 134.07 187.03 C 133.38 186.03 132.01 185.78 131.01 186.47 C 130.01 187.16 129.76 188.53 130.45 189.53 L 131.04 190.38 C 131.73 191.38 133.10 191.63 134.10 190.94 C 135.10 190.25 135.35 188.88 134.66 187.88 Z M 134.08 187.06 L 133.51 186.20 C 132.83 185.19 131.47 184.93 130.46 185.60 C 129.46 186.28 129.19 187.64 129.87 188.64 L 130.44 189.50 C 131.11 190.51 132.48 190.77 133.48 190.10 C 134.49 189.42 134.76 188.06 134.08 187.06 Z M 133.50 186.20 L 132.94 185.38 C 132.27 184.38 130.92 184.12 129.92 184.79 C 128.92 185.46 128.65 186.82 129.32 187.82 L 129.88 188.64 C 130.55 189.64 131.91 189.90 132.90 189.23 C 133.90 188.56 134.17 187.20 133.50 186.20 Z M 132.92 185.39 L 132.39 184.60 C 131.72 183.61 130.37 183.36 129.39 184.03 C 128.40 184.69 128.14 186.04 128.81 187.03 L 129.35 187.81 C 130.02 188.80 131.36 189.06 132.35 188.39 C 133.33 187.72 133.59 186.38 132.92 185.39 Z M 132.37 184.62 L 131.82 183.80 C 131.16 182.83 129.83 182.57 128.85 183.23 C 127.88 183.89 127.62 185.22 128.28 186.19 L 128.83 187.01 C 129.49 187.99 130.82 188.24 131.79 187.58 C 132.77 186.92 133.03 185.60 132.37 184.62 Z M 131.81 183.83 L 131.22 182.94 C 130.57 181.97 129.26 181.70 128.29 182.35 C 127.32 182.99 127.05 184.31 127.70 185.28 L 128.29 186.17 C 128.94 187.14 130.25 187.40 131.22 186.76 C 132.19 186.11 132.45 184.80 131.81 183.83 Z M 131.21 182.97 L 130.66 182.14 C 130.03 181.17 128.74 180.90 127.77 181.53 C 126.81 182.16 126.54 183.45 127.17 184.42 L 127.71 185.25 C 128.34 186.21 129.63 186.49 130.60 185.86 C 131.56 185.23 131.84 183.93 131.21 182.97 Z M 130.65 182.16 L 130.08 181.28 C 129.46 180.32 128.18 180.05 127.23 180.67 C 126.27 181.29 126.00 182.56 126.62 183.52 L 127.18 184.40 C 127.80 185.35 129.08 185.63 130.04 185.01 C 130.99 184.39 131.26 183.11 130.65 182.16 Z M 130.06 181.30 L 129.50 180.43 C 128.89 179.48 127.63 179.21 126.68 179.82 C 125.74 180.43 125.47 181.69 126.07 182.63 L 126.64 183.50 C 127.25 184.45 128.51 184.72 129.45 184.11 C 130.40 183.50 130.67 182.24 130.06 181.30 Z M 129.48 180.44 L 128.95 179.63 C 128.35 178.69 127.11 178.42 126.17 179.03 C 125.24 179.63 124.97 180.87 125.57 181.81 L 126.10 182.62 C 126.70 183.55 127.94 183.82 128.88 183.22 C 129.81 182.62 130.08 181.37 129.48 180.44 Z M 128.90 179.65 L 128.30 178.72 C 127.71 177.81 126.50 177.55 125.59 178.14 C 124.69 178.73 124.43 179.94 125.02 180.85 L 125.62 181.78 C 126.21 182.69 127.42 182.95 128.33 182.36 C 129.23 181.77 129.49 180.56 128.90 179.65 Z M 128.21 178.77 L 127.66 177.92 C 127.10 177.06 125.95 176.82 125.09 177.38 C 124.23 177.94 123.99 179.09 124.55 179.95 L 125.10 180.80 C 125.66 181.66 126.81 181.90 127.67 181.34 C 128.53 180.78 128.77 179.63 128.21 178.77 Z M 127.58 178.00 L 127.11 177.26 C 126.59 176.45 125.52 176.21 124.70 176.73 C 123.89 177.24 123.65 178.32 124.16 179.13 L 124.63 179.87 C 125.15 180.68 126.23 180.93 127.04 180.41 C 127.85 179.89 128.10 178.81 127.58 178.00 Z M 127.06 177.34 L 126.57 176.52 C 126.09 175.73 125.07 175.48 124.29 175.95 C 123.50 176.43 123.25 177.45 123.72 178.23 L 124.21 179.06 C 124.69 179.84 125.71 180.10 126.50 179.62 C 127.28 179.15 127.54 178.13 127.06 177.34 Z M 126.55 176.57 L 126.05 175.70 C 125.60 174.93 124.61 174.66 123.84 175.11 C 123.06 175.55 122.79 176.54 123.24 177.32 L 123.74 178.18 C 124.19 178.96 125.18 179.22 125.95 178.78 C 126.72 178.33 126.99 177.34 126.55 176.57 Z M 126.02 175.73 L 125.68 175.11 C 125.25 174.35 124.28 174.08 123.52 174.51 C 122.75 174.94 122.48 175.91 122.91 176.68 L 123.26 177.29 C 123.69 178.05 124.66 178.32 125.42 177.89 C 126.19 177.46 126.46 176.49 126.02 175.73 Z"
      fill="black"
      fill-rule="nonzero" /><path d="M 127.93 165.46 L 127.92 164.22 C 127.90 163.26 127.11 162.49 126.15 162.50 C 125.19 162.52 124.42 163.30 124.43 164.27 L 124.45 165.50 C 124.46 166.46 125.25 167.23 126.21 167.22 C 127.17 167.21 127.94 166.42 127.93 165.46 Z M 124.76 163.04 L 124.67 163.14 C 124.00 163.93 124.10 165.10 124.88 165.77 C 125.66 166.44 126.84 166.34 127.51 165.56 L 127.59 165.45 C 128.26 164.67 128.17 163.49 127.38 162.82 C 126.60 162.16 125.42 162.25 124.76 163.04 Z M 124.20 164.02 L 124.00 165.15 C 123.82 166.19 124.51 167.19 125.55 167.37 C 126.59 167.56 127.59 166.86 127.77 165.82 L 127.97 164.68 C 128.16 163.64 127.46 162.65 126.42 162.46 C 125.38 162.28 124.38 162.97 124.20 164.02 Z M 124.01 165.04 L 123.76 166.10 C 123.51 167.13 124.15 168.17 125.19 168.42 C 126.22 168.67 127.26 168.03 127.51 166.99 L 127.76 165.93 C 128.01 164.90 127.37 163.86 126.33 163.61 C 125.30 163.36 124.26 164.00 124.01 165.04 Z M 123.79 165.98 L 123.50 166.91 C 123.19 167.93 123.76 169.01 124.78 169.33 C 125.80 169.64 126.89 169.06 127.20 168.04 L 127.48 167.11 C 127.79 166.09 127.22 165.01 126.20 164.70 C 125.18 164.38 124.10 164.96 123.79 165.98 Z M 123.52 166.84 L 123.18 167.82 C 122.82 168.83 123.35 169.93 124.36 170.29 C 125.37 170.64 126.47 170.11 126.83 169.10 L 127.17 168.12 C 127.53 167.11 127.00 166.01 125.99 165.65 C 124.98 165.30 123.88 165.83 123.52 166.84 Z M 123.19 167.77 L 122.84 168.69 C 122.46 169.69 122.97 170.81 123.96 171.19 C 124.96 171.57 126.08 171.07 126.46 170.07 L 126.81 169.15 C 127.19 168.15 126.69 167.03 125.69 166.65 C 124.69 166.27 123.57 166.78 123.19 167.77 Z M 122.86 168.66 L 122.49 169.56 C 122.10 170.55 122.57 171.68 123.57 172.08 C 124.56 172.48 125.68 172.00 126.08 171.01 L 126.45 170.11 C 126.85 169.11 126.37 167.99 125.38 167.59 C 124.39 167.19 123.26 167.67 122.86 168.66 Z M 122.51 169.52 L 122.11 170.46 C 121.69 171.44 122.15 172.58 123.13 173.00 C 124.11 173.42 125.25 172.96 125.67 171.98 L 126.07 171.04 C 126.49 170.06 126.03 168.92 125.05 168.50 C 124.07 168.09 122.93 168.54 122.51 169.52 Z M 122.13 170.42 L 121.69 171.39 C 121.25 172.36 121.69 173.50 122.66 173.94 C 123.63 174.38 124.78 173.95 125.22 172.98 L 125.65 172.02 C 126.09 171.04 125.66 169.90 124.69 169.46 C 123.71 169.02 122.57 169.45 122.13 170.42 Z M 121.71 171.35 L 121.29 172.24 C 120.83 173.20 121.24 174.35 122.20 174.81 C 123.16 175.27 124.32 174.86 124.78 173.90 L 125.20 173.01 C 125.66 172.05 125.25 170.90 124.29 170.44 C 123.32 169.98 122.17 170.39 121.71 171.35 Z M 121.31 172.21 L 120.86 173.11 C 120.39 174.06 120.77 175.22 121.73 175.69 C 122.68 176.17 123.84 175.78 124.31 174.83 L 124.76 173.93 C 125.23 172.98 124.84 171.82 123.89 171.35 C 122.94 170.87 121.78 171.26 121.31 172.21 Z M 120.88 173.08 L 120.42 173.98 C 119.93 174.92 120.30 176.08 121.24 176.57 C 122.18 177.06 123.34 176.69 123.83 175.75 L 124.29 174.85 C 124.78 173.91 124.41 172.75 123.47 172.26 C 122.53 171.77 121.37 172.14 120.88 173.08 Z M 120.43 173.96 L 119.96 174.84 C 119.46 175.77 119.81 176.94 120.74 177.44 C 121.67 177.94 122.83 177.59 123.33 176.65 L 123.81 175.77 C 124.31 174.84 123.96 173.67 123.03 173.17 C 122.10 172.67 120.93 173.02 120.43 173.96 Z M 119.98 174.82 L 119.45 175.77 C 118.94 176.69 119.27 177.85 120.19 178.37 C 121.11 178.88 122.28 178.55 122.79 177.62 L 123.31 176.68 C 123.83 175.75 123.49 174.59 122.57 174.08 C 121.65 173.57 120.49 173.90 119.98 174.82 Z M 119.47 175.75 L 118.96 176.65 C 118.43 177.56 118.75 178.72 119.66 179.24 C 120.56 179.77 121.72 179.45 122.25 178.54 L 122.76 177.64 C 123.29 176.73 122.97 175.57 122.06 175.05 C 121.15 174.53 120.00 174.84 119.47 175.75 Z M 118.98 176.64 L 118.49 177.46 C 117.96 178.36 118.25 179.52 119.15 180.05 C 120.04 180.58 121.20 180.29 121.73 179.39 L 122.22 178.56 C 122.75 177.67 122.46 176.51 121.56 175.98 C 120.67 175.44 119.51 175.74 118.98 176.64 Z M 118.52 177.45 L 118.02 178.25 C 117.48 179.13 117.75 180.29 118.63 180.83 C 119.51 181.37 120.66 181.10 121.21 180.22 L 121.70 179.41 C 122.25 178.53 121.97 177.38 121.09 176.83 C 120.21 176.29 119.06 176.57 118.52 177.45 Z M 118.07 178.22 L 117.52 179.07 C 116.96 179.92 117.19 181.06 118.04 181.62 C 118.89 182.18 120.04 181.94 120.60 181.09 L 121.15 180.25 C 121.71 179.40 121.48 178.26 120.63 177.70 C 119.77 177.14 118.63 177.37 118.07 178.22 Z M 117.60 179.01 L 117.03 179.78 C 116.45 180.59 116.62 181.72 117.43 182.31 C 118.23 182.90 119.36 182.72 119.95 181.92 L 120.51 181.15 C 121.10 180.34 120.93 179.21 120.12 178.62 C 119.32 178.03 118.19 178.21 117.60 179.01 Z M 117.11 179.73 L 116.51 180.48 C 115.90 181.24 116.01 182.35 116.77 182.97 C 117.54 183.59 118.65 183.47 119.27 182.71 L 119.87 181.97 C 120.49 181.21 120.37 180.09 119.61 179.47 C 118.85 178.85 117.73 178.97 117.11 179.73 Z M 116.60 180.41 L 115.93 181.15 C 115.28 181.86 115.33 182.97 116.04 183.62 C 116.75 184.27 117.86 184.22 118.51 183.51 L 119.18 182.77 C 119.83 182.06 119.78 180.95 119.07 180.30 C 118.36 179.65 117.25 179.70 116.60 180.41 Z M 116.05 181.06 L 115.29 181.76 C 114.59 182.40 114.54 183.50 115.19 184.20 C 115.83 184.90 116.93 184.94 117.63 184.30 L 118.39 183.60 C 119.09 182.95 119.13 181.86 118.49 181.16 C 117.84 180.46 116.75 180.41 116.05 181.06 Z M 115.46 181.65 L 114.65 182.25 C 113.89 182.80 113.72 183.86 114.27 184.61 C 114.82 185.37 115.88 185.54 116.64 184.99 L 117.45 184.40 C 118.21 183.85 118.38 182.79 117.83 182.03 C 117.28 181.27 116.22 181.10 115.46 181.65 Z M 114.81 182.18 L 113.95 182.68 C 113.15 183.14 112.88 184.16 113.34 184.95 C 113.80 185.75 114.82 186.02 115.61 185.56 L 116.48 185.06 C 117.27 184.59 117.54 183.58 117.08 182.79 C 116.62 181.99 115.60 181.72 114.81 182.18 Z M 114.05 182.67 L 113.15 183.13 C 112.35 183.53 112.04 184.51 112.44 185.31 C 112.84 186.10 113.82 186.42 114.62 186.02 L 115.51 185.57 C 116.31 185.16 116.63 184.19 116.23 183.39 C 115.82 182.59 114.85 182.27 114.05 182.67 Z M 113.19 183.14 L 112.89 183.28 C 112.10 183.67 111.77 184.62 112.15 185.42 C 112.54 186.21 113.50 186.54 114.29 186.15 L 114.59 186.01 C 115.38 185.62 115.71 184.67 115.32 183.87 C 114.94 183.08 113.98 182.75 113.19 183.14 Z"
      fill="black"
      fill-rule="nonzero" /><path d="M 142.52 163.06 L 142.80 163.99 C 143.09 164.92 144.07 165.45 145.00 165.17 C 145.94 164.88 146.46 163.90 146.18 162.97 L 145.90 162.03 C 145.61 161.10 144.63 160.57 143.70 160.86 C 142.76 161.14 142.24 162.13 142.52 163.06 Z M 142.73 164.13 L 143.08 165.07 C 143.44 166.05 144.52 166.54 145.50 166.18 C 146.47 165.82 146.96 164.74 146.60 163.77 L 146.25 162.82 C 145.89 161.85 144.81 161.36 143.84 161.72 C 142.87 162.08 142.37 163.16 142.73 164.13 Z M 143.09 165.29 L 143.52 166.15 C 143.99 167.12 145.17 167.52 146.14 167.04 C 147.11 166.56 147.50 165.39 147.02 164.42 L 146.60 163.55 C 146.12 162.58 144.94 162.19 143.97 162.67 C 143.00 163.14 142.61 164.32 143.09 165.29 Z M 143.59 166.32 L 144.10 167.14 C 144.67 168.07 145.89 168.36 146.82 167.79 C 147.74 167.21 148.03 166.00 147.46 165.07 L 146.95 164.25 C 146.38 163.32 145.16 163.03 144.23 163.60 C 143.30 164.18 143.01 165.40 143.59 166.32 Z M 144.17 167.24 L 144.78 168.10 C 145.40 168.99 146.63 169.20 147.52 168.57 C 148.41 167.94 148.62 166.71 147.99 165.83 L 147.39 164.97 C 146.76 164.08 145.53 163.87 144.64 164.50 C 143.75 165.13 143.54 166.36 144.17 167.24 Z M 144.83 168.15 L 145.47 168.98 C 146.12 169.84 147.35 170.00 148.21 169.34 C 149.06 168.68 149.22 167.46 148.57 166.60 L 147.93 165.77 C 147.28 164.92 146.05 164.76 145.19 165.41 C 144.34 166.07 144.18 167.30 144.83 168.15 Z M 145.52 169.00 L 146.17 169.80 C 146.84 170.63 148.05 170.75 148.88 170.08 C 149.70 169.41 149.83 168.20 149.16 167.38 L 148.51 166.58 C 147.84 165.75 146.63 165.63 145.80 166.30 C 144.98 166.97 144.85 168.18 145.52 169.00 Z M 146.23 169.83 L 146.89 170.59 C 147.58 171.38 148.77 171.46 149.56 170.78 C 150.35 170.10 150.44 168.90 149.75 168.11 L 149.10 167.35 C 148.41 166.56 147.22 166.47 146.43 167.16 C 145.64 167.84 145.55 169.04 146.23 169.83 Z M 146.98 170.62 L 147.66 171.35 C 148.36 172.09 149.53 172.12 150.28 171.42 C 151.02 170.72 151.06 169.55 150.35 168.81 L 149.67 168.08 C 148.97 167.34 147.80 167.30 147.05 168.00 C 146.31 168.70 146.28 169.87 146.98 170.62 Z M 147.80 171.39 L 148.55 172.08 C 149.27 172.75 150.40 172.70 151.07 171.97 C 151.74 171.25 151.69 170.12 150.97 169.45 L 150.22 168.76 C 149.49 168.09 148.36 168.14 147.69 168.87 C 147.03 169.59 147.07 170.72 147.80 171.39 Z M 148.73 172.13 L 149.49 172.70 C 150.25 173.27 151.32 173.12 151.89 172.36 C 152.45 171.61 152.30 170.54 151.55 169.97 L 150.78 169.40 C 150.03 168.83 148.96 168.99 148.39 169.74 C 147.82 170.49 147.98 171.56 148.73 172.13 Z M 149.66 172.74 L 150.48 173.25 C 151.26 173.72 152.27 173.47 152.75 172.70 C 153.22 171.92 152.97 170.91 152.20 170.43 L 151.38 169.93 C 150.60 169.46 149.59 169.70 149.11 170.48 C 148.64 171.26 148.89 172.27 149.66 172.74 Z M 150.59 173.27 L 151.47 173.73 C 152.26 174.15 153.24 173.84 153.65 173.06 C 154.07 172.27 153.76 171.29 152.98 170.88 L 152.09 170.41 C 151.30 170.00 150.33 170.30 149.91 171.09 C 149.50 171.88 149.80 172.85 150.59 173.27 Z M 151.53 173.73 L 152.45 174.18 C 153.24 174.57 154.19 174.24 154.57 173.45 C 154.95 172.67 154.63 171.72 153.84 171.33 L 152.92 170.88 C 152.14 170.50 151.19 170.82 150.80 171.61 C 150.42 172.39 150.74 173.34 151.53 173.73 Z M 152.46 174.17 L 152.52 174.20 C 153.30 174.57 154.24 174.25 154.61 173.47 C 154.99 172.68 154.66 171.75 153.88 171.37 L 153.83 171.34 C 153.05 170.97 152.11 171.29 151.73 172.07 C 151.36 172.85 151.68 173.79 152.46 174.17 Z"
      fill="black"
      fill-rule="nonzero" /><path d="M 154.22 146.80 L 153.26 147.69 C 152.52 148.38 152.48 149.54 153.17 150.28 C 153.86 151.02 155.02 151.07 155.76 150.38 L 156.72 149.48 C 157.46 148.79 157.50 147.63 156.81 146.89 C 156.12 146.15 154.96 146.11 154.22 146.80 Z M 153.53 147.38 L 153.17 147.59 C 152.25 148.13 151.95 149.31 152.49 150.23 C 153.03 151.15 154.21 151.45 155.13 150.91 L 155.49 150.69 C 156.41 150.15 156.71 148.97 156.17 148.05 C 155.63 147.14 154.45 146.83 153.53 147.38 Z M 155.78 150.35 L 156.29 149.59 C 156.90 148.69 156.66 147.47 155.76 146.86 C 154.86 146.25 153.64 146.49 153.03 147.39 L 152.51 148.15 C 151.91 149.05 152.14 150.27 153.04 150.88 C 153.94 151.49 155.17 151.25 155.78 150.35 Z M 156.18 149.74 L 156.95 148.80 C 157.64 147.96 157.52 146.72 156.68 146.03 C 155.84 145.34 154.60 145.46 153.91 146.30 L 153.14 147.24 C 152.45 148.08 152.57 149.32 153.41 150.01 C 154.25 150.70 155.49 150.58 156.18 149.74 Z M 156.87 148.88 L 157.54 148.15 C 158.28 147.35 158.22 146.11 157.43 145.38 C 156.63 144.65 155.39 144.70 154.66 145.49 L 153.99 146.23 C 153.26 147.02 153.31 148.26 154.10 148.99 C 154.90 149.73 156.14 149.67 156.87 148.88 Z M 157.48 148.20 L 158.19 147.49 C 158.96 146.73 158.96 145.50 158.20 144.73 C 157.44 143.97 156.21 143.97 155.44 144.73 L 154.73 145.44 C 153.96 146.20 153.96 147.43 154.72 148.20 C 155.48 148.96 156.71 148.96 157.48 148.20 Z M 158.14 147.53 L 158.86 146.86 C 159.65 146.14 159.69 144.91 158.97 144.12 C 158.24 143.33 157.01 143.28 156.22 144.01 L 155.50 144.68 C 154.71 145.41 154.66 146.64 155.39 147.43 C 156.12 148.22 157.35 148.26 158.14 147.53 Z M 158.82 146.89 L 159.58 146.23 C 160.38 145.52 160.45 144.29 159.74 143.49 C 159.03 142.69 157.81 142.61 157.01 143.32 L 156.25 143.99 C 155.45 144.70 155.38 145.92 156.09 146.72 C 156.80 147.53 158.02 147.60 158.82 146.89 Z M 159.56 146.24 L 160.32 145.58 C 161.13 144.88 161.21 143.66 160.51 142.85 C 159.81 142.04 158.59 141.95 157.78 142.65 L 157.02 143.31 C 156.22 144.01 156.13 145.23 156.83 146.04 C 157.53 146.85 158.75 146.94 159.56 146.24 Z M 160.30 145.59 L 161.04 144.96 C 161.85 144.26 161.95 143.04 161.26 142.23 C 160.57 141.42 159.35 141.32 158.54 142.02 L 157.80 142.65 C 156.98 143.34 156.89 144.56 157.58 145.37 C 158.27 146.18 159.49 146.28 160.30 145.59 Z M 161.01 144.98 L 161.79 144.35 C 162.61 143.68 162.74 142.46 162.06 141.63 C 161.39 140.81 160.18 140.68 159.35 141.36 L 158.57 141.99 C 157.74 142.66 157.62 143.88 158.29 144.70 C 158.97 145.53 160.18 145.65 161.01 144.98 Z M 161.73 144.39 L 162.56 143.77 C 163.41 143.12 163.57 141.92 162.93 141.07 C 162.29 140.22 161.08 140.05 160.23 140.69 L 159.41 141.31 C 158.56 141.95 158.39 143.16 159.03 144.01 C 159.67 144.86 160.88 145.03 161.73 144.39 Z M 162.48 143.82 L 163.33 143.24 C 164.21 142.64 164.43 141.44 163.83 140.56 C 163.23 139.68 162.03 139.46 161.16 140.06 L 160.31 140.64 C 159.43 141.24 159.20 142.44 159.80 143.32 C 160.41 144.19 161.60 144.42 162.48 143.82 Z M 163.23 143.30 L 164.10 142.78 C 165.01 142.24 165.31 141.06 164.76 140.14 C 164.22 139.23 163.04 138.93 162.12 139.48 L 161.26 139.99 C 160.34 140.54 160.04 141.72 160.59 142.63 C 161.13 143.55 162.32 143.85 163.23 143.30 Z M 163.92 142.88 L 164.85 142.45 C 165.82 142.00 166.23 140.85 165.78 139.88 C 165.33 138.92 164.19 138.50 163.22 138.95 L 162.29 139.38 C 161.33 139.83 160.91 140.98 161.36 141.95 C 161.81 142.91 162.96 143.33 163.92 142.88 Z M 164.38 142.62 L 165.39 142.43 C 166.45 142.24 167.15 141.23 166.96 140.17 C 166.77 139.11 165.76 138.41 164.70 138.60 L 163.69 138.78 C 162.63 138.97 161.93 139.98 162.12 141.04 C 162.31 142.10 163.32 142.81 164.38 142.62 Z M 163.97 142.17 L 164.67 142.63 C 165.58 143.22 166.81 142.96 167.40 142.05 C 168.00 141.13 167.74 139.91 166.82 139.31 L 166.12 138.86 C 165.21 138.27 163.99 138.53 163.39 139.44 C 162.80 140.36 163.06 141.58 163.97 142.17 Z M 163.85 141.59 L 164.11 142.40 C 164.45 143.45 165.58 144.03 166.63 143.69 C 167.68 143.35 168.25 142.22 167.91 141.17 L 167.65 140.36 C 167.31 139.31 166.18 138.73 165.13 139.07 C 164.08 139.41 163.51 140.54 163.85 141.59 Z M 164.01 141.96 L 164.10 143.02 C 164.19 144.12 165.17 144.94 166.27 144.85 C 167.38 144.75 168.20 143.78 168.10 142.67 L 168.01 141.62 C 167.92 140.51 166.95 139.69 165.84 139.79 C 164.73 139.88 163.91 140.85 164.01 141.96 Z M 164.08 142.79 L 164.05 143.87 C 164.01 144.98 164.89 145.92 166.01 145.95 C 167.13 145.98 168.06 145.10 168.09 143.98 L 168.13 142.90 C 168.16 141.79 167.28 140.85 166.16 140.82 C 165.04 140.79 164.11 141.67 164.08 142.79 Z M 164.05 143.68 L 163.92 144.76 C 163.78 145.88 164.58 146.89 165.69 147.03 C 166.81 147.16 167.82 146.37 167.96 145.25 L 168.09 144.17 C 168.23 143.06 167.43 142.04 166.32 141.91 C 165.20 141.77 164.19 142.56 164.05 143.68 Z M 163.95 144.55 L 163.74 145.48 C 163.49 146.58 164.17 147.67 165.27 147.92 C 166.36 148.17 167.46 147.49 167.71 146.39 L 167.92 145.46 C 168.18 144.37 167.49 143.27 166.39 143.02 C 165.30 142.77 164.20 143.45 163.95 144.55 Z M 163.78 145.33 L 163.50 146.22 C 163.16 147.29 163.76 148.44 164.83 148.78 C 165.91 149.11 167.05 148.52 167.39 147.44 L 167.67 146.55 C 168.01 145.47 167.41 144.33 166.34 143.99 C 165.26 143.65 164.11 144.25 163.78 145.33 Z M 163.52 146.14 L 163.19 147.06 C 162.81 148.13 163.36 149.30 164.42 149.68 C 165.49 150.06 166.66 149.51 167.04 148.44 L 167.37 147.52 C 167.75 146.45 167.20 145.28 166.13 144.90 C 165.07 144.52 163.90 145.08 163.52 146.14 Z M 163.20 147.02 L 162.83 147.98 C 162.42 149.04 162.95 150.22 164.01 150.63 C 165.07 151.04 166.26 150.51 166.66 149.45 L 167.03 148.49 C 167.44 147.43 166.91 146.24 165.85 145.84 C 164.79 145.43 163.60 145.96 163.20 147.02 Z M 162.83 147.96 L 162.47 148.89 C 162.05 149.95 162.57 151.14 163.63 151.56 C 164.69 151.97 165.88 151.45 166.30 150.39 L 166.66 149.46 C 167.08 148.41 166.56 147.21 165.50 146.80 C 164.44 146.38 163.25 146.90 162.83 147.96 Z M 162.47 148.87 L 162.10 149.80 C 161.67 150.85 162.18 152.05 163.24 152.48 C 164.29 152.90 165.50 152.39 165.92 151.34 L 166.30 150.41 C 166.72 149.35 166.21 148.15 165.15 147.73 C 164.10 147.30 162.90 147.81 162.47 148.87 Z M 162.11 149.77 L 161.71 150.70 C 161.27 151.75 161.77 152.96 162.82 153.41 C 163.87 153.85 165.08 153.35 165.52 152.30 L 165.91 151.37 C 166.35 150.31 165.86 149.10 164.81 148.66 C 163.76 148.22 162.55 148.72 162.11 149.77 Z M 161.73 150.67 L 161.33 151.56 C 160.87 152.60 161.34 153.82 162.39 154.29 C 163.43 154.75 164.65 154.27 165.11 153.23 L 165.51 152.34 C 165.97 151.29 165.50 150.07 164.45 149.61 C 163.41 149.15 162.19 149.62 161.73 150.67 Z M 161.34 151.53 L 160.93 152.43 C 160.45 153.47 160.91 154.70 161.94 155.18 C 162.98 155.65 164.21 155.20 164.69 154.16 L 165.10 153.26 C 165.58 152.22 165.13 150.99 164.09 150.52 C 163.05 150.04 161.82 150.49 161.34 151.53 Z M 160.94 152.41 L 160.50 153.34 C 160.01 154.37 160.45 155.61 161.48 156.10 C 162.51 156.59 163.74 156.15 164.24 155.11 L 164.68 154.18 C 165.17 153.15 164.73 151.92 163.70 151.43 C 162.66 150.94 161.43 151.38 160.94 152.41 Z M 160.50 153.33 L 160.08 154.19 C 159.59 155.22 160.02 156.46 161.05 156.96 C 162.07 157.45 163.31 157.02 163.81 155.99 L 164.23 155.13 C 164.73 154.10 164.30 152.86 163.27 152.36 C 162.24 151.87 161.00 152.30 160.50 153.33 Z M 160.08 154.19 L 159.65 155.08 C 159.15 156.11 159.58 157.35 160.61 157.85 C 161.64 158.35 162.88 157.92 163.38 156.89 L 163.81 156.00 C 164.31 154.97 163.88 153.73 162.85 153.23 C 161.82 152.73 160.58 153.16 160.08 154.19 Z M 159.65 155.09 L 159.20 156.02 C 158.71 157.05 159.14 158.29 160.17 158.78 C 161.20 159.28 162.44 158.84 162.94 157.81 L 163.38 156.88 C 163.88 155.85 163.44 154.61 162.41 154.12 C 161.38 153.62 160.14 154.06 159.65 155.09 Z M 159.19 156.03 L 158.77 156.93 C 158.28 157.97 158.73 159.20 159.77 159.69 C 160.80 160.18 162.04 159.73 162.52 158.69 L 162.95 157.79 C 163.43 156.76 162.99 155.52 161.95 155.03 C 160.91 154.55 159.68 154.99 159.19 156.03 Z M 158.76 156.95 L 158.35 157.84 C 157.88 158.88 158.33 160.11 159.37 160.59 C 160.42 161.07 161.65 160.61 162.12 159.57 L 162.53 158.68 C 163.01 157.64 162.55 156.41 161.51 155.93 C 160.47 155.45 159.24 155.91 158.76 156.95 Z M 158.35 157.85 L 157.93 158.76 C 157.46 159.81 157.92 161.04 158.97 161.51 C 160.01 161.98 161.24 161.52 161.72 160.47 L 162.13 159.56 C 162.60 158.51 162.14 157.28 161.09 156.81 C 160.05 156.34 158.82 156.80 158.35 157.85 Z M 157.93 158.77 L 157.51 159.71 C 157.04 160.76 157.50 161.99 158.55 162.46 C 159.60 162.93 160.82 162.46 161.29 161.41 L 161.72 160.47 C 162.19 159.42 161.72 158.19 160.68 157.72 C 159.63 157.25 158.40 157.72 157.93 158.77 Z M 157.51 159.71 L 157.10 160.61 C 156.63 161.65 157.10 162.88 158.15 163.35 C 159.19 163.82 160.42 163.36 160.89 162.31 L 161.30 161.41 C 161.77 160.37 161.30 159.14 160.25 158.67 C 159.21 158.20 157.98 158.66 157.51 159.71 Z M 157.10 160.61 L 156.69 161.51 C 156.22 162.56 156.69 163.79 157.74 164.26 C 158.79 164.73 160.02 164.26 160.49 163.21 L 160.89 162.31 C 161.36 161.26 160.90 160.03 159.85 159.56 C 158.80 159.09 157.57 159.56 157.10 160.61 Z M 156.69 161.51 L 156.28 162.43 C 155.81 163.48 156.28 164.71 157.33 165.18 C 158.38 165.65 159.61 165.18 160.08 164.13 L 160.49 163.21 C 160.96 162.17 160.49 160.93 159.44 160.46 C 158.39 160.00 157.16 160.46 156.69 161.51 Z M 156.28 162.43 L 155.86 163.37 C 155.40 164.41 155.87 165.65 156.92 166.11 C 157.97 166.58 159.20 166.11 159.66 165.06 L 160.08 164.13 C 160.55 163.08 160.08 161.85 159.03 161.38 C 157.98 160.91 156.75 161.39 156.28 162.43 Z M 155.86 163.37 L 155.46 164.27 C 154.99 165.32 155.47 166.55 156.52 167.02 C 157.57 167.49 158.80 167.01 159.27 165.96 L 159.67 165.06 C 160.13 164.01 159.66 162.78 158.61 162.31 C 157.56 161.84 156.33 162.32 155.86 163.37 Z M 155.46 164.28 L 155.06 165.18 C 154.60 166.23 155.08 167.46 156.13 167.92 C 157.18 168.39 158.41 167.91 158.88 166.85 L 159.27 165.95 C 159.73 164.90 159.25 163.67 158.20 163.21 C 157.15 162.75 155.92 163.23 155.46 164.28 Z M 155.06 165.19 L 154.66 166.10 C 154.20 167.16 154.69 168.38 155.74 168.84 C 156.80 169.30 158.03 168.82 158.48 167.76 L 158.88 166.85 C 159.34 165.79 158.85 164.56 157.80 164.10 C 156.74 163.64 155.51 164.13 155.06 165.19 Z M 154.65 166.11 L 154.25 167.04 C 153.80 168.10 154.29 169.33 155.35 169.78 C 156.41 170.24 157.64 169.75 158.09 168.69 L 158.49 167.75 C 158.94 166.69 158.45 165.47 157.39 165.01 C 156.33 164.56 155.11 165.05 154.65 166.11 Z M 154.25 167.05 L 153.85 167.99 C 153.40 169.06 153.90 170.28 154.97 170.73 C 156.03 171.18 157.25 170.68 157.70 169.61 L 158.10 168.68 C 158.54 167.61 158.04 166.39 156.98 165.94 C 155.92 165.49 154.69 165.99 154.25 167.05 Z M 153.85 168.00 L 153.46 168.93 C 153.02 170.00 153.52 171.22 154.59 171.66 C 155.65 172.11 156.88 171.60 157.32 170.54 L 157.71 169.61 C 158.15 168.54 157.64 167.32 156.58 166.87 C 155.51 166.43 154.29 166.94 153.85 168.00 Z M 153.46 168.93 L 153.07 169.87 C 152.63 170.94 153.14 172.16 154.21 172.60 C 155.27 173.04 156.50 172.54 156.94 171.47 L 157.32 170.53 C 157.76 169.46 157.26 168.24 156.19 167.80 C 155.12 167.36 153.90 167.87 153.46 168.93 Z M 153.07 169.87 L 152.68 170.80 C 152.24 171.87 152.75 173.09 153.82 173.53 C 154.89 173.98 156.11 173.47 156.55 172.40 L 156.94 171.47 C 157.38 170.40 156.87 169.18 155.80 168.73 C 154.73 168.29 153.51 168.80 153.07 169.87 Z M 152.69 170.79 L 152.31 171.70 C 151.86 172.77 152.37 174.00 153.44 174.44 C 154.50 174.89 155.73 174.38 156.18 173.31 L 156.55 172.40 C 157.00 171.34 156.49 170.11 155.42 169.66 C 154.36 169.22 153.13 169.72 152.69 170.79 Z M 152.31 171.69 L 151.90 172.65 C 151.45 173.72 151.95 174.95 153.02 175.40 C 154.09 175.85 155.32 175.35 155.77 174.28 L 156.17 173.32 C 156.62 172.26 156.12 171.03 155.06 170.58 C 153.99 170.13 152.76 170.63 152.31 171.69 Z M 151.91 172.64 L 151.51 173.58 C 151.05 174.65 151.55 175.88 152.61 176.33 C 153.67 176.79 154.91 176.29 155.36 175.23 L 155.76 174.29 C 156.22 173.23 155.72 172.00 154.66 171.54 C 153.60 171.09 152.36 171.58 151.91 172.64 Z M 151.51 173.58 L 151.12 174.48 C 150.66 175.55 151.15 176.78 152.22 177.24 C 153.28 177.69 154.51 177.20 154.97 176.14 L 155.36 175.23 C 155.82 174.17 155.32 172.94 154.26 172.48 C 153.20 172.02 151.97 172.52 151.51 173.58 Z M 151.12 174.49 L 150.74 175.37 C 150.29 176.43 150.78 177.66 151.84 178.12 C 152.90 178.57 154.14 178.08 154.59 177.02 L 154.97 176.14 C 155.43 175.07 154.93 173.84 153.87 173.39 C 152.81 172.93 151.58 173.42 151.12 174.49 Z M 150.74 175.38 L 150.34 176.31 C 149.89 177.38 150.39 178.61 151.45 179.06 C 152.52 179.51 153.74 179.01 154.20 177.95 L 154.59 177.01 C 155.05 175.95 154.55 174.72 153.48 174.27 C 152.42 173.81 151.19 174.31 150.74 175.38 Z M 150.34 176.32 L 149.94 177.25 C 149.49 178.32 149.99 179.55 151.06 180.00 C 152.12 180.45 153.35 179.95 153.80 178.89 L 154.20 177.95 C 154.65 176.88 154.15 175.65 153.08 175.20 C 152.02 174.75 150.79 175.25 150.34 176.32 Z M 149.95 177.24 L 149.56 178.15 C 149.10 179.21 149.59 180.45 150.65 180.90 C 151.72 181.36 152.95 180.87 153.40 179.81 L 153.79 178.90 C 154.25 177.84 153.76 176.60 152.70 176.15 C 151.64 175.69 150.41 176.18 149.95 177.24 Z M 149.57 178.13 L 149.18 179.00 C 148.71 180.06 149.18 181.29 150.24 181.77 C 151.29 182.24 152.53 181.76 153.00 180.71 L 153.39 179.83 C 153.86 178.78 153.39 177.54 152.33 177.07 C 151.28 176.60 150.04 177.07 149.57 178.13 Z M 149.20 178.97 L 148.78 179.85 C 148.29 180.90 148.74 182.14 149.78 182.63 C 150.83 183.12 152.07 182.68 152.56 181.63 L 152.98 180.74 C 153.47 179.70 153.02 178.45 151.98 177.96 C 150.94 177.47 149.69 177.92 149.20 178.97 Z M 148.81 179.81 L 148.37 180.69 C 147.86 181.72 148.28 182.97 149.31 183.49 C 150.34 184.00 151.59 183.58 152.10 182.55 L 152.54 181.67 C 153.05 180.64 152.63 179.39 151.60 178.88 C 150.57 178.36 149.32 178.78 148.81 179.81 Z M 148.39 180.66 L 147.92 181.56 C 147.39 182.58 147.78 183.83 148.80 184.37 C 149.82 184.90 151.08 184.50 151.61 183.48 L 152.08 182.58 C 152.61 181.56 152.22 180.31 151.20 179.77 C 150.18 179.24 148.92 179.64 148.39 180.66 Z M 147.94 181.53 L 147.45 182.44 C 146.90 183.45 147.27 184.71 148.28 185.26 C 149.29 185.80 150.55 185.43 151.10 184.42 L 151.59 183.51 C 152.14 182.50 151.76 181.24 150.76 180.69 C 149.75 180.15 148.49 180.52 147.94 181.53 Z M 147.47 182.41 L 146.95 183.32 C 146.39 184.31 146.74 185.58 147.73 186.14 C 148.73 186.71 149.99 186.36 150.56 185.36 L 151.08 184.46 C 151.64 183.46 151.29 182.19 150.30 181.63 C 149.30 181.06 148.04 181.41 147.47 182.41 Z M 146.99 183.26 L 146.46 184.13 C 145.86 185.10 146.17 186.37 147.14 186.97 C 148.11 187.57 149.39 187.26 149.99 186.29 L 150.52 185.42 C 151.12 184.45 150.81 183.18 149.84 182.58 C 148.87 181.98 147.59 182.28 146.99 183.26 Z M 146.53 184.03 L 146.00 184.79 C 145.35 185.73 145.58 187.02 146.51 187.67 C 147.45 188.32 148.74 188.09 149.39 187.15 L 149.92 186.39 C 150.57 185.45 150.34 184.16 149.40 183.51 C 148.47 182.86 147.18 183.09 146.53 184.03 Z M 146.20 184.58 L 145.34 185.50 C 144.57 186.33 144.61 187.62 145.43 188.39 C 146.26 189.16 147.55 189.12 148.32 188.29 L 149.18 187.37 C 149.95 186.54 149.91 185.25 149.09 184.48 C 148.26 183.71 146.97 183.76 146.20 184.58 Z M 146.15 185.02 L 145.46 185.27 C 144.43 185.64 143.89 186.79 144.26 187.82 C 144.64 188.86 145.78 189.40 146.82 189.02 L 147.51 188.78 C 148.54 188.40 149.08 187.26 148.71 186.22 C 148.33 185.18 147.19 184.64 146.15 185.02 Z M 147.77 186.11 L 147.42 185.56 C 146.85 184.66 145.66 184.39 144.76 184.96 C 143.86 185.53 143.59 186.72 144.16 187.62 L 144.51 188.18 C 145.08 189.08 146.28 189.35 147.18 188.78 C 148.08 188.20 148.34 187.01 147.77 186.11 Z M 147.62 186.41 L 147.50 185.26 C 147.40 184.26 146.50 183.52 145.49 183.63 C 144.48 183.73 143.75 184.63 143.85 185.64 L 143.97 186.78 C 144.07 187.78 144.97 188.52 145.98 188.42 C 146.99 188.31 147.72 187.41 147.62 186.41 Z M 147.43 185.43 L 147.41 184.39 C 147.40 183.42 146.61 182.65 145.64 182.66 C 144.67 182.67 143.90 183.47 143.91 184.43 L 143.93 185.47 C 143.94 186.44 144.73 187.21 145.70 187.20 C 146.67 187.19 147.44 186.39 147.43 185.43 Z M 147.35 184.43 L 147.36 183.44 C 147.37 182.50 146.62 181.74 145.69 181.73 C 144.76 181.72 143.99 182.47 143.98 183.40 L 143.97 184.39 C 143.96 185.33 144.71 186.09 145.65 186.10 C 146.58 186.11 147.34 185.36 147.35 184.43 Z M 147.31 183.46 L 147.33 182.42 C 147.35 181.52 146.63 180.77 145.73 180.75 C 144.83 180.73 144.08 181.45 144.06 182.35 L 144.04 183.39 C 144.02 184.29 144.74 185.04 145.64 185.06 C 146.54 185.07 147.29 184.36 147.31 183.46 Z M 147.29 182.43 L 147.30 181.83 C 147.32 180.95 146.63 180.22 145.75 180.20 C 144.87 180.17 144.14 180.87 144.12 181.75 L 144.10 182.35 C 144.08 183.23 144.78 183.96 145.65 183.98 C 146.53 184.00 147.26 183.31 147.29 182.43 Z"
      fill="black"
      fill-rule="nonzero" /><path d="M 150.42 154.43 L 151.17 155.03 C 151.91 155.62 153.00 155.50 153.60 154.75 C 154.20 154.01 154.07 152.92 153.33 152.32 L 152.58 151.73 C 151.83 151.13 150.74 151.25 150.15 152.00 C 149.55 152.75 149.67 153.84 150.42 154.43 Z M 151.03 155.15 L 151.79 155.77 C 152.61 156.44 153.81 156.33 154.48 155.51 C 155.15 154.70 155.03 153.50 154.22 152.83 L 153.46 152.20 C 152.65 151.53 151.44 151.65 150.77 152.46 C 150.10 153.27 150.22 154.48 151.03 155.15 Z M 151.64 155.87 L 152.43 156.57 C 153.30 157.32 154.62 157.23 155.37 156.36 C 156.13 155.50 156.04 154.18 155.17 153.42 L 154.38 152.73 C 153.51 151.97 152.19 152.06 151.44 152.93 C 150.68 153.80 150.77 155.12 151.64 155.87 Z M 152.32 156.59 L 153.05 157.27 C 153.93 158.09 155.31 158.04 156.13 157.16 C 156.96 156.28 156.90 154.89 156.02 154.07 L 155.29 153.39 C 154.40 152.57 153.02 152.62 152.20 153.51 C 151.38 154.39 151.43 155.77 152.32 156.59 Z M 153.01 157.25 L 153.74 157.96 C 154.62 158.81 156.01 158.78 156.85 157.91 C 157.69 157.04 157.67 155.65 156.80 154.81 L 156.06 154.10 C 155.19 153.25 153.80 153.28 152.96 154.15 C 152.11 155.02 152.14 156.41 153.01 157.25 Z M 153.72 157.95 L 154.44 158.66 C 155.30 159.52 156.70 159.51 157.55 158.64 C 158.41 157.78 158.40 156.38 157.54 155.53 L 156.82 154.82 C 155.96 153.96 154.56 153.97 153.70 154.84 C 152.85 155.70 152.86 157.10 153.72 157.95 Z M 154.43 158.66 L 155.14 159.37 C 156.01 160.23 157.41 160.23 158.27 159.37 C 159.13 158.50 159.13 157.10 158.26 156.24 L 157.55 155.53 C 156.68 154.67 155.28 154.67 154.42 155.53 C 153.56 156.40 153.56 157.80 154.43 158.66 Z M 155.14 159.37 L 155.85 160.09 C 156.72 160.95 158.12 160.95 158.98 160.09 C 159.85 159.22 159.85 157.82 158.98 156.95 L 158.27 156.24 C 157.40 155.37 156.00 155.38 155.13 156.24 C 154.27 157.11 154.27 158.51 155.14 159.37 Z M 155.84 160.08 L 156.52 160.77 C 157.38 161.64 158.78 161.65 159.65 160.79 C 160.53 159.93 160.53 158.52 159.67 157.65 L 159.00 156.96 C 158.14 156.09 156.73 156.08 155.86 156.94 C 154.99 157.80 154.98 159.21 155.84 160.08 Z M 156.50 160.75 L 157.15 161.43 C 158.00 162.32 159.41 162.34 160.29 161.49 C 161.18 160.64 161.21 159.24 160.36 158.35 L 159.70 157.67 C 158.85 156.79 157.44 156.76 156.56 157.61 C 155.67 158.46 155.65 159.86 156.50 160.75 Z M 157.13 161.41 L 157.78 162.11 C 158.62 163.01 160.03 163.05 160.93 162.21 C 161.83 161.37 161.87 159.97 161.03 159.07 L 160.38 158.37 C 159.54 157.48 158.13 157.43 157.23 158.27 C 156.34 159.11 156.29 160.52 157.13 161.41 Z M 157.76 162.10 L 158.45 162.85 C 159.28 163.76 160.69 163.82 161.60 162.99 C 162.51 162.15 162.57 160.74 161.74 159.84 L 161.05 159.08 C 160.22 158.18 158.81 158.11 157.90 158.95 C 156.99 159.78 156.93 161.19 157.76 162.10 Z M 158.43 162.83 L 159.13 163.61 C 159.96 164.53 161.37 164.61 162.29 163.78 C 163.21 162.96 163.28 161.55 162.46 160.63 L 161.76 159.85 C 160.93 158.93 159.52 158.86 158.60 159.68 C 157.68 160.50 157.61 161.92 158.43 162.83 Z M 159.12 163.60 L 159.75 164.31 C 160.57 165.24 161.98 165.32 162.91 164.51 C 163.83 163.69 163.92 162.27 163.10 161.35 L 162.47 160.64 C 161.65 159.71 160.24 159.63 159.31 160.45 C 158.39 161.27 158.30 162.68 159.12 163.60 Z M 159.74 164.30 L 160.39 165.05 C 161.20 165.98 162.61 166.08 163.55 165.26 C 164.48 164.45 164.57 163.04 163.76 162.11 L 163.11 161.36 C 162.30 160.43 160.88 160.33 159.95 161.14 C 159.02 161.96 158.92 163.37 159.74 164.30 Z M 160.38 165.04 L 161.05 165.82 C 161.85 166.76 163.27 166.86 164.20 166.06 C 165.14 165.25 165.25 163.84 164.45 162.90 L 163.77 162.12 C 162.97 161.18 161.55 161.07 160.62 161.88 C 159.68 162.68 159.57 164.10 160.38 165.04 Z M 161.03 165.81 L 161.70 166.60 C 162.50 167.54 163.91 167.66 164.86 166.86 C 165.80 166.06 165.92 164.65 165.13 163.71 L 164.46 162.91 C 163.66 161.97 162.25 161.85 161.30 162.65 C 160.36 163.45 160.24 164.86 161.03 165.81 Z M 161.69 166.58 L 162.30 167.32 C 163.09 168.27 164.50 168.40 165.46 167.61 C 166.41 166.82 166.54 165.40 165.75 164.45 L 165.14 163.72 C 164.35 162.77 162.93 162.64 161.98 163.43 C 161.03 164.22 160.90 165.63 161.69 166.58 Z M 162.29 167.31 L 162.91 168.06 C 163.70 169.02 165.11 169.16 166.07 168.38 C 167.02 167.59 167.16 166.18 166.38 165.22 L 165.76 164.46 C 164.97 163.51 163.56 163.37 162.60 164.15 C 161.65 164.93 161.50 166.35 162.29 167.31 Z M 162.90 168.05 L 163.54 168.84 C 164.32 169.80 165.73 169.95 166.69 169.17 C 167.65 168.40 167.80 166.98 167.02 166.02 L 166.39 165.23 C 165.61 164.27 164.20 164.12 163.24 164.90 C 162.27 165.68 162.12 167.09 162.90 168.05 Z M 163.53 168.83 L 164.18 169.65 C 164.95 170.61 166.36 170.77 167.33 170.00 C 168.30 169.23 168.46 167.82 167.68 166.85 L 167.03 166.03 C 166.26 165.06 164.85 164.91 163.88 165.68 C 162.91 166.45 162.76 167.86 163.53 168.83 Z M 164.17 169.64 L 164.79 170.42 C 165.56 171.40 166.97 171.56 167.94 170.80 C 168.92 170.03 169.08 168.62 168.31 167.65 L 167.69 166.86 C 166.92 165.89 165.51 165.72 164.54 166.49 C 163.57 167.25 163.40 168.66 164.17 169.64 Z M 164.79 170.42 L 165.40 171.20 C 166.16 172.17 167.57 172.35 168.55 171.58 C 169.52 170.82 169.69 169.41 168.93 168.44 L 168.32 167.66 C 167.56 166.68 166.15 166.51 165.17 167.27 C 164.20 168.03 164.03 169.44 164.79 170.42 Z M 165.39 171.19 L 166.01 171.98 C 166.77 172.96 168.18 173.14 169.15 172.38 C 170.13 171.63 170.31 170.22 169.55 169.24 L 168.94 168.45 C 168.18 167.47 166.77 167.29 165.79 168.05 C 164.82 168.80 164.64 170.21 165.39 171.19 Z M 166.01 171.98 L 166.62 172.78 C 167.37 173.76 168.78 173.94 169.76 173.19 C 170.74 172.44 170.93 171.03 170.17 170.05 L 169.56 169.25 C 168.81 168.27 167.40 168.08 166.42 168.84 C 165.44 169.59 165.25 170.99 166.01 171.98 Z M 166.62 172.77 L 167.23 173.57 C 167.97 174.56 169.38 174.75 170.36 174.00 C 171.34 173.25 171.54 171.85 170.79 170.86 L 170.18 170.06 C 169.43 169.08 168.03 168.89 167.04 169.63 C 166.06 170.38 165.87 171.79 166.62 172.77 Z M 167.22 173.56 L 167.83 174.38 C 168.57 175.36 169.98 175.56 170.96 174.82 C 171.95 174.08 172.15 172.68 171.41 171.69 L 170.79 170.87 C 170.05 169.89 168.65 169.69 167.66 170.43 C 166.68 171.17 166.48 172.57 167.22 173.56 Z M 167.83 174.37 L 168.44 175.18 C 169.17 176.17 170.57 176.38 171.56 175.64 C 172.55 174.90 172.75 173.50 172.02 172.51 L 171.41 171.70 C 170.67 170.71 169.27 170.50 168.29 171.24 C 167.30 171.98 167.09 173.38 167.83 174.37 Z M 168.43 175.18 L 169.03 175.98 C 169.76 176.97 171.16 177.18 172.15 176.45 C 173.14 175.72 173.35 174.32 172.62 173.33 L 172.02 172.52 C 171.29 171.53 169.89 171.32 168.90 172.06 C 167.91 172.79 167.70 174.18 168.43 175.18 Z M 169.03 175.98 L 169.62 176.77 C 170.35 177.76 171.74 177.97 172.73 177.24 C 173.72 176.51 173.93 175.12 173.20 174.13 L 172.62 173.33 C 171.89 172.34 170.49 172.13 169.50 172.86 C 168.51 173.59 168.30 174.99 169.03 175.98 Z M 169.62 176.77 L 170.20 177.56 C 170.93 178.55 172.32 178.76 173.31 178.03 C 174.30 177.30 174.51 175.91 173.78 174.92 L 173.20 174.13 C 172.47 173.14 171.08 172.93 170.09 173.66 C 169.10 174.39 168.89 175.78 169.62 176.77 Z M 170.20 177.56 L 170.81 178.37 C 171.53 179.36 172.92 179.57 173.91 178.84 C 174.90 178.11 175.11 176.72 174.38 175.74 L 173.78 174.92 C 173.05 173.93 171.66 173.72 170.67 174.45 C 169.69 175.18 169.48 176.57 170.20 177.56 Z M 170.81 178.37 L 171.42 179.19 C 172.15 180.17 173.53 180.38 174.51 179.65 C 175.50 178.92 175.70 177.54 174.98 176.56 L 174.37 175.74 C 173.64 174.76 172.26 174.55 171.28 175.28 C 170.29 176.00 170.09 177.39 170.81 178.37 Z M 171.43 179.19 L 172.02 179.99 C 172.75 180.97 174.13 181.18 175.11 180.45 C 176.09 179.72 176.29 178.34 175.57 177.36 L 174.97 176.56 C 174.24 175.58 172.86 175.38 171.88 176.10 C 170.91 176.83 170.70 178.21 171.43 179.19 Z M 172.03 179.99 L 172.62 180.78 C 173.34 181.75 174.72 181.96 175.69 181.23 C 176.67 180.51 176.87 179.13 176.15 178.16 L 175.56 177.37 C 174.84 176.39 173.46 176.19 172.48 176.91 C 171.51 177.64 171.31 179.01 172.03 179.99 Z M 172.62 180.78 L 173.21 181.57 C 173.93 182.54 175.31 182.74 176.28 182.02 C 177.25 181.30 177.45 179.92 176.73 178.95 L 176.14 178.16 C 175.42 177.19 174.05 176.99 173.08 177.71 C 172.11 178.43 171.90 179.80 172.62 180.78 Z M 173.22 181.56 L 173.85 182.40 C 174.56 183.36 175.93 183.56 176.89 182.84 C 177.86 182.13 178.06 180.76 177.34 179.80 L 176.72 178.96 C 176.00 177.99 174.63 177.79 173.67 178.51 C 172.70 179.23 172.50 180.59 173.22 181.56 Z M 173.86 182.39 L 174.47 183.20 C 175.18 184.16 176.54 184.36 177.49 183.64 C 178.45 182.93 178.65 181.57 177.93 180.61 L 177.33 179.80 C 176.61 178.85 175.26 178.65 174.30 179.36 C 173.34 180.08 173.15 181.43 173.86 182.39 Z M 174.48 183.20 L 175.07 183.98 C 175.79 184.93 177.13 185.12 178.08 184.41 C 179.03 183.69 179.22 182.35 178.50 181.40 L 177.91 180.62 C 177.20 179.67 175.86 179.48 174.91 180.19 C 173.96 180.91 173.77 182.25 174.48 183.20 Z M 175.09 183.98 L 175.67 184.75 C 176.39 185.68 177.72 185.86 178.66 185.15 C 179.60 184.44 179.78 183.10 179.06 182.16 L 178.48 181.40 C 177.77 180.47 176.43 180.28 175.50 181.00 C 174.56 181.71 174.38 183.05 175.09 183.98 Z M 175.70 184.75 L 176.36 185.59 C 177.07 186.51 178.39 186.68 179.32 185.97 C 180.24 185.25 180.41 183.93 179.69 183.01 L 179.04 182.16 C 178.32 181.24 177.00 181.07 176.08 181.79 C 175.16 182.50 174.99 183.82 175.70 184.75 Z M 176.39 185.59 L 177.02 186.39 C 177.73 187.29 179.04 187.44 179.95 186.73 C 180.85 186.01 181.00 184.70 180.29 183.80 L 179.66 183.01 C 178.94 182.10 177.63 181.95 176.73 182.67 C 175.83 183.38 175.68 184.69 176.39 185.59 Z M 177.06 186.39 L 177.66 187.13 C 178.38 188.01 179.67 188.14 180.55 187.42 C 181.43 186.71 181.57 185.41 180.85 184.53 L 180.25 183.79 C 179.53 182.91 178.23 182.78 177.35 183.50 C 176.47 184.22 176.34 185.51 177.06 186.39 Z M 177.71 187.14 L 178.36 187.91 C 179.08 188.76 180.36 188.87 181.21 188.14 C 182.07 187.42 182.17 186.14 181.45 185.29 L 180.80 184.52 C 180.08 183.66 178.80 183.56 177.94 184.28 C 177.09 185.01 176.98 186.29 177.71 187.14 Z M 178.41 187.91 L 179.08 188.67 C 179.81 189.49 181.07 189.57 181.89 188.84 C 182.71 188.11 182.79 186.86 182.06 186.03 L 181.39 185.28 C 180.66 184.46 179.41 184.38 178.58 185.11 C 177.76 185.83 177.68 187.09 178.41 187.91 Z M 179.13 188.66 L 179.78 189.37 C 180.50 190.17 181.74 190.22 182.53 189.50 C 183.32 188.77 183.38 187.54 182.66 186.75 L 182.01 186.04 C 181.28 185.25 180.05 185.19 179.26 185.91 C 178.46 186.64 178.41 187.87 179.13 188.66 Z M 179.83 189.36 L 180.50 190.07 C 181.22 190.83 182.42 190.87 183.18 190.15 C 183.95 189.43 183.98 188.23 183.27 187.47 L 182.60 186.76 C 181.88 185.99 180.68 185.96 179.92 186.68 C 179.15 187.39 179.11 188.60 179.83 189.36 Z M 180.62 190.11 L 181.34 190.79 C 182.09 191.48 183.26 191.44 183.95 190.70 C 184.65 189.95 184.61 188.79 183.86 188.09 L 183.14 187.42 C 182.40 186.72 181.23 186.76 180.53 187.51 C 179.84 188.25 179.88 189.42 180.62 190.11 Z M 181.56 190.90 L 182.39 191.49 C 183.20 192.06 184.31 191.88 184.89 191.07 C 185.46 190.27 185.28 189.15 184.47 188.58 L 183.64 187.98 C 182.84 187.41 181.72 187.60 181.15 188.40 C 180.57 189.21 180.76 190.32 181.56 190.90 Z M 182.63 191.58 L 183.47 192.02 C 184.33 192.46 185.38 192.13 185.83 191.28 C 186.27 190.42 185.94 189.37 185.08 188.92 L 184.24 188.49 C 183.38 188.04 182.33 188.37 181.89 189.23 C 181.44 190.08 181.77 191.14 182.63 191.58 Z M 183.62 192.05 L 184.55 192.44 C 185.42 192.80 186.42 192.39 186.79 191.52 C 187.15 190.65 186.74 189.64 185.87 189.28 L 184.93 188.89 C 184.06 188.53 183.06 188.94 182.70 189.81 C 182.34 190.69 182.75 191.69 183.62 192.05 Z M 184.63 192.43 L 185.60 192.79 C 186.47 193.11 187.44 192.67 187.76 191.80 C 188.08 190.94 187.63 189.97 186.77 189.65 L 185.79 189.29 C 184.92 188.97 183.96 189.41 183.64 190.28 C 183.32 191.15 183.76 192.11 184.63 192.43 Z M 185.62 192.78 L 185.70 192.81 C 186.56 193.12 187.51 192.67 187.83 191.81 C 188.14 190.95 187.69 190.00 186.83 189.69 L 186.75 189.66 C 185.89 189.35 184.94 189.80 184.63 190.66 C 184.32 191.52 184.76 192.47 185.62 192.78 Z"
      fill="black"
      fill-rule="nonzero" /></svg>