<svg xmlns="http://www.w3.org/2000/svg" width="300" height="300" viewBox="0 0 300 300">
<path d="M 145.22 107.09 L 144.93 108.04 C 144.65 108.93 145.15 109.88 146.05 110.16 C 146.95 110.43 147.90 109.93 148.18 109.03 L 148.47 108.09 C 148.74 107.19 148.24 106.24 147.34 105.97 C 146.44 105.69 145.49 106.19 145.22 107.09 Z M 144.84 108.28 L 144.69 109.28 C 144.55 110.22 145.21 111.10 146.16 111.24 C 147.10 111.38 147.98 110.72 148.12 109.78 L 148.26 108.79 C 148.40 107.84 147.75 106.96 146.80 106.82 C 145.86 106.68 144.98 107.34 144.84 108.28 Z M 144.66 109.70 L 144.76 110.66 C 144.86 111.62 145.72 112.32 146.68 112.22 C 147.64 112.12 148.34 111.26 148.24 110.30 L 148.15 109.35 C 148.05 108.39 147.19 107.69 146.23 107.79 C 145.27 107.88 144.57 108.74 144.66 109.70 Z M 144.83 111.00 L 145.13 111.97 C 145.42 112.89 146.40 113.41 147.33 113.12 C 148.25 112.83 148.77 111.85 148.48 110.92 L 148.18 109.95 C 147.89 109.03 146.90 108.51 145.98 108.80 C 145.05 109.09 144.54 110.08 144.83 111.00 Z M 145.23 112.23 L 145.70 113.16 C 146.13 114.03 147.19 114.38 148.05 113.95 C 148.92 113.52 149.27 112.46 148.84 111.60 L 148.38 110.66 C 147.94 109.79 146.89 109.44 146.02 109.87 C 145.15 110.31 144.80 111.36 145.23 112.23 Z M 145.80 113.34 L 146.37 114.20 C 146.90 115.01 147.98 115.23 148.79 114.70 C 149.60 114.17 149.83 113.09 149.30 112.28 L 148.74 111.42 C 148.21 110.61 147.12 110.38 146.31 110.91 C 145.50 111.44 145.27 112.53 145.80 113.34 Z M 146.43 114.28 L 147.01 115.06 C 147.59 115.84 148.69 115.99 149.46 115.42 C 150.24 114.84 150.39 113.74 149.81 112.97 L 149.23 112.19 C 148.65 111.42 147.56 111.26 146.79 111.84 C 146.01 112.41 145.85 113.51 146.43 114.28 Z M 147.05 115.08 L 147.67 115.88 C 148.26 116.64 149.34 116.77 150.10 116.19 C 150.86 115.60 150.99 114.51 150.41 113.75 L 149.78 112.95 C 149.20 112.20 148.11 112.06 147.35 112.65 C 146.59 113.23 146.46 114.32 147.05 115.08 Z M 147.71 115.89 L 148.32 116.65 C 148.91 117.38 149.99 117.50 150.72 116.90 C 151.45 116.31 151.57 115.24 150.98 114.50 L 150.37 113.75 C 149.77 113.01 148.70 112.90 147.96 113.49 C 147.23 114.08 147.12 115.16 147.71 115.89 Z M 148.37 116.67 L 149.01 117.41 C 149.61 118.11 150.67 118.19 151.37 117.59 C 152.08 116.99 152.16 115.93 151.56 115.22 L 150.92 114.48 C 150.32 113.78 149.26 113.70 148.56 114.30 C 147.85 114.90 147.77 115.96 148.37 116.67 Z M 149.04 117.41 L 149.71 118.17 C 150.32 118.85 151.36 118.91 152.04 118.31 C 152.73 117.71 152.79 116.67 152.19 115.98 L 151.52 115.22 C 150.92 114.54 149.87 114.47 149.19 115.08 C 148.51 115.68 148.44 116.72 149.04 117.41 Z M 149.73 118.15 L 150.40 118.91 C 150.99 119.58 152.02 119.65 152.69 119.06 C 153.37 118.47 153.43 117.44 152.84 116.77 L 152.17 116.00 C 151.58 115.33 150.55 115.26 149.88 115.86 C 149.21 116.45 149.14 117.47 149.73 118.15 Z M 150.41 118.88 L 151.07 119.64 C 151.65 120.31 152.65 120.38 153.32 119.80 C 153.99 119.23 154.06 118.22 153.48 117.55 L 152.83 116.79 C 152.25 116.13 151.24 116.05 150.58 116.63 C 149.91 117.21 149.84 118.22 150.41 118.88 Z M 151.08 119.62 L 151.60 120.23 C 152.17 120.89 153.17 120.97 153.83 120.40 C 154.49 119.83 154.56 118.84 154.00 118.18 L 153.47 117.57 C 152.91 116.91 151.91 116.83 151.25 117.40 C 150.59 117.97 150.51 118.96 151.08 119.62 Z"
      fill="black"
      fill-rule="nonzero" /><path d="M 131.51 123.98 L 130.26 124.43 C 129.38 124.74 128.92 125.71 129.24 126.59 C 129.55 127.47 130.52 127.92 131.40 127.61 L 132.64 127.16 C 133.52 126.85 133.98 125.88 133.67 125.01 C 133.35 124.13 132.39 123.67 131.51 123.98 Z M 130.19 124.36 L 129.23 124.73 C 128.32 125.09 127.86 126.11 128.22 127.03 C 128.57 127.94 129.59 128.40 130.51 128.04 L 131.47 127.67 C 132.38 127.32 132.84 126.30 132.48 125.38 C 132.13 124.47 131.11 124.01 130.19 124.36 Z M 128.91 124.80 L 128.54 125.03 C 127.66 125.56 127.38 126.70 127.91 127.58 C 128.45 128.45 129.59 128.73 130.46 128.20 L 130.83 127.97 C 131.71 127.44 131.99 126.30 131.46 125.43 C 130.92 124.55 129.78 124.27 128.91 124.80 Z M 129.60 128.53 L 130.33 128.49 C 131.38 128.43 132.19 127.53 132.14 126.48 C 132.08 125.42 131.18 124.61 130.13 124.67 L 129.40 124.70 C 128.34 124.76 127.53 125.66 127.59 126.71 C 127.64 127.77 128.54 128.58 129.60 128.53 Z M 130.58 128.50 L 131.88 128.26 C 132.94 128.06 133.64 127.04 133.44 125.98 C 133.24 124.92 132.22 124.22 131.16 124.42 L 129.87 124.66 C 128.81 124.85 128.11 125.87 128.31 126.93 C 128.50 127.99 129.52 128.69 130.58 128.50 Z M 131.94 128.27 L 132.92 128.05 C 133.99 127.82 134.66 126.77 134.43 125.70 C 134.20 124.64 133.15 123.96 132.08 124.20 L 131.10 124.41 C 130.03 124.64 129.36 125.69 129.59 126.76 C 129.82 127.82 130.88 128.50 131.94 128.27 Z M 132.94 128.05 L 133.95 127.82 C 135.02 127.58 135.68 126.52 135.44 125.45 C 135.19 124.38 134.13 123.72 133.06 123.96 L 132.06 124.19 C 130.99 124.44 130.33 125.50 130.57 126.57 C 130.82 127.63 131.88 128.30 132.94 128.05 Z M 133.95 127.83 L 134.92 127.61 C 135.99 127.36 136.65 126.29 136.40 125.22 C 136.16 124.15 135.09 123.49 134.02 123.73 L 133.06 123.96 C 131.99 124.20 131.32 125.27 131.57 126.34 C 131.82 127.41 132.89 128.08 133.95 127.83 Z M 134.90 127.61 L 135.95 127.38 C 137.02 127.14 137.70 126.08 137.46 125.00 C 137.22 123.93 136.15 123.25 135.08 123.49 L 134.03 123.73 C 132.96 123.97 132.28 125.03 132.52 126.11 C 132.76 127.18 133.83 127.85 134.90 127.61 Z M 135.94 127.39 L 136.89 127.18 C 137.97 126.94 138.65 125.88 138.41 124.80 C 138.18 123.73 137.12 123.05 136.04 123.28 L 135.09 123.49 C 134.01 123.72 133.33 124.79 133.56 125.86 C 133.80 126.94 134.86 127.62 135.94 127.39 Z M 136.90 127.18 L 137.82 126.97 C 138.90 126.73 139.57 125.67 139.33 124.59 C 139.09 123.51 138.03 122.84 136.95 123.08 L 136.03 123.28 C 134.96 123.52 134.28 124.59 134.52 125.66 C 134.76 126.74 135.82 127.42 136.90 127.18 Z M 137.84 126.97 L 138.80 126.74 C 139.87 126.49 140.54 125.42 140.29 124.34 C 140.03 123.27 138.96 122.60 137.88 122.85 L 136.93 123.08 C 135.85 123.33 135.19 124.41 135.44 125.48 C 135.69 126.56 136.77 127.22 137.84 126.97 Z M 138.81 126.74 L 139.79 126.50 C 140.87 126.24 141.52 125.16 141.26 124.09 C 141.00 123.02 139.92 122.36 138.85 122.62 L 137.87 122.86 C 136.80 123.12 136.14 124.20 136.40 125.27 C 136.66 126.34 137.74 127.00 138.81 126.74 Z M 139.80 126.50 L 140.77 126.26 C 141.84 126.00 142.50 124.91 142.23 123.84 C 141.97 122.77 140.89 122.12 139.82 122.38 L 138.84 122.62 C 137.77 122.88 137.12 123.97 137.38 125.04 C 137.65 126.11 138.73 126.77 139.80 126.50 Z M 140.77 126.26 L 141.73 126.03 C 142.80 125.77 143.46 124.68 143.19 123.61 C 142.93 122.54 141.85 121.88 140.78 122.14 L 139.82 122.38 C 138.75 122.64 138.09 123.72 138.35 124.80 C 138.61 125.87 139.70 126.52 140.77 126.26 Z M 141.71 126.03 L 142.70 125.80 C 143.77 125.54 144.44 124.46 144.18 123.39 C 143.92 122.32 142.85 121.65 141.77 121.91 L 140.79 122.14 C 139.72 122.40 139.05 123.48 139.31 124.55 C 139.56 125.62 140.64 126.29 141.71 126.03 Z M 142.68 125.80 L 143.67 125.58 C 144.74 125.33 145.42 124.26 145.17 123.18 C 144.93 122.11 143.85 121.43 142.78 121.68 L 141.79 121.90 C 140.71 122.15 140.04 123.22 140.29 124.30 C 140.53 125.37 141.60 126.05 142.68 125.80 Z M 143.65 125.58 L 144.64 125.36 C 145.72 125.12 146.40 124.05 146.16 122.98 C 145.92 121.90 144.85 121.22 143.77 121.46 L 142.79 121.68 C 141.71 121.91 141.03 122.98 141.27 124.06 C 141.51 125.14 142.58 125.82 143.65 125.58 Z M 144.64 125.36 L 145.62 125.14 C 146.69 124.90 147.37 123.84 147.13 122.76 C 146.90 121.68 145.83 121.00 144.75 121.24 L 143.77 121.46 C 142.70 121.70 142.02 122.76 142.26 123.84 C 142.50 124.92 143.56 125.60 144.64 125.36 Z M 145.63 125.14 L 146.61 124.91 C 147.69 124.67 148.36 123.60 148.11 122.52 C 147.87 121.45 146.79 120.78 145.72 121.02 L 144.74 121.25 C 143.66 121.49 142.99 122.56 143.24 123.64 C 143.49 124.71 144.56 125.38 145.63 125.14 Z M 146.63 124.91 L 147.60 124.68 C 148.67 124.42 149.33 123.35 149.08 122.28 C 148.82 121.20 147.75 120.54 146.68 120.80 L 145.70 121.03 C 144.63 121.28 143.97 122.36 144.23 123.43 C 144.48 124.50 145.56 125.16 146.63 124.91 Z M 147.61 124.67 L 148.57 124.44 C 149.64 124.18 150.29 123.10 150.03 122.03 C 149.77 120.97 148.70 120.31 147.63 120.57 L 146.67 120.80 C 145.60 121.06 144.94 122.14 145.20 123.21 C 145.46 124.27 146.54 124.93 147.61 124.67 Z M 148.57 124.43 L 149.53 124.20 C 150.59 123.94 151.25 122.87 150.99 121.80 C 150.73 120.74 149.66 120.08 148.59 120.34 L 147.63 120.57 C 146.56 120.83 145.91 121.90 146.17 122.97 C 146.43 124.04 147.50 124.69 148.57 124.43 Z M 149.52 124.20 L 150.50 123.96 C 151.56 123.71 152.22 122.64 151.96 121.57 C 151.70 120.51 150.64 119.85 149.57 120.11 L 148.60 120.34 C 147.53 120.60 146.88 121.67 147.13 122.73 C 147.39 123.80 148.46 124.45 149.52 124.20 Z M 150.49 123.96 L 151.47 123.73 C 152.53 123.48 153.19 122.41 152.94 121.35 C 152.68 120.29 151.62 119.63 150.56 119.88 L 149.58 120.11 C 148.51 120.37 147.86 121.43 148.11 122.49 C 148.36 123.56 149.43 124.21 150.49 123.96 Z M 151.46 123.72 L 152.44 123.49 C 153.50 123.24 154.16 122.18 153.91 121.12 C 153.66 120.06 152.60 119.41 151.54 119.66 L 150.56 119.89 C 149.50 120.14 148.85 121.20 149.09 122.26 C 149.34 123.32 150.40 123.97 151.46 123.72 Z M 152.44 123.49 L 153.41 123.26 C 154.47 123.01 155.13 121.95 154.88 120.90 C 154.63 119.84 153.57 119.19 152.52 119.43 L 151.54 119.66 C 150.49 119.91 149.83 120.97 150.08 122.02 C 150.33 123.08 151.38 123.73 152.44 123.49 Z M 153.42 123.25 L 154.39 123.02 C 155.44 122.77 156.09 121.72 155.84 120.66 C 155.59 119.61 154.53 118.96 153.48 119.21 L 152.51 119.44 C 151.46 119.69 150.81 120.75 151.06 121.80 C 151.31 122.85 152.37 123.50 153.42 123.25 Z M 154.39 123.01 L 155.37 122.78 C 156.42 122.52 157.06 121.47 156.81 120.42 C 156.56 119.38 155.50 118.73 154.46 118.98 L 153.48 119.22 C 152.43 119.47 151.79 120.53 152.04 121.57 C 152.29 122.62 153.34 123.26 154.39 123.01 Z M 155.37 122.77 L 156.34 122.54 C 157.38 122.29 158.02 121.24 157.77 120.19 C 157.52 119.15 156.47 118.51 155.43 118.76 L 154.46 118.99 C 153.42 119.24 152.77 120.29 153.02 121.33 C 153.27 122.38 154.32 123.02 155.37 122.77 Z M 156.32 122.53 L 157.29 122.30 C 158.33 122.06 158.98 121.02 158.73 119.98 C 158.49 118.94 157.45 118.30 156.41 118.54 L 155.44 118.77 C 154.40 119.01 153.76 120.05 154.00 121.09 C 154.24 122.13 155.28 122.77 156.32 122.53 Z M 157.27 122.30 L 158.24 122.08 C 159.27 121.85 159.92 120.82 159.69 119.79 C 159.46 118.75 158.43 118.10 157.40 118.33 L 156.43 118.54 C 155.39 118.78 154.74 119.80 154.97 120.84 C 155.21 121.88 156.23 122.53 157.27 122.30 Z M 158.22 122.08 L 159.20 121.86 C 160.23 121.64 160.89 120.62 160.66 119.59 C 160.44 118.55 159.42 117.90 158.39 118.12 L 157.41 118.33 C 156.37 118.56 155.72 119.58 155.94 120.61 C 156.17 121.65 157.19 122.30 158.22 122.08 Z M 159.20 121.86 L 160.19 121.64 C 161.22 121.42 161.87 120.40 161.65 119.37 C 161.43 118.35 160.42 117.69 159.39 117.92 L 158.39 118.13 C 157.36 118.35 156.71 119.37 156.93 120.40 C 157.15 121.42 158.17 122.08 159.20 121.86 Z M 160.19 121.63 L 161.20 121.41 C 162.22 121.19 162.87 120.18 162.64 119.16 C 162.42 118.13 161.41 117.49 160.39 117.71 L 159.39 117.93 C 158.36 118.15 157.72 119.16 157.94 120.18 C 158.16 121.20 159.17 121.85 160.19 121.63 Z M 161.20 121.40 L 162.17 121.18 C 163.19 120.96 163.83 119.96 163.61 118.94 C 163.38 117.92 162.38 117.28 161.36 117.51 L 160.39 117.72 C 159.37 117.94 158.73 118.95 158.95 119.96 C 159.18 120.98 160.18 121.62 161.20 121.40 Z M 162.17 121.17 L 163.16 120.95 C 164.17 120.73 164.81 119.73 164.58 118.72 C 164.36 117.71 163.36 117.07 162.35 117.30 L 161.36 117.52 C 160.35 117.74 159.72 118.74 159.94 119.75 C 160.17 120.76 161.17 121.40 162.17 121.17 Z M 163.17 120.94 L 164.15 120.71 C 165.15 120.49 165.78 119.49 165.56 118.49 C 165.33 117.49 164.34 116.86 163.34 117.09 L 162.35 117.31 C 161.35 117.54 160.72 118.53 160.94 119.53 C 161.17 120.53 162.16 121.16 163.17 120.94 Z M 164.15 120.70 L 165.06 120.50 C 166.06 120.27 166.68 119.29 166.46 118.29 C 166.23 117.30 165.25 116.67 164.25 116.90 L 163.34 117.10 C 162.35 117.32 161.72 118.31 161.94 119.30 C 162.17 120.30 163.15 120.92 164.15 120.70 Z M 165.04 120.48 L 165.98 120.28 C 166.96 120.07 167.59 119.10 167.38 118.11 C 167.17 117.12 166.19 116.49 165.21 116.71 L 164.27 116.91 C 163.29 117.12 162.66 118.09 162.87 119.08 C 163.08 120.07 164.06 120.70 165.04 120.48 Z M 165.94 120.27 L 166.96 120.07 C 167.94 119.88 168.58 118.92 168.39 117.94 C 168.19 116.96 167.24 116.32 166.26 116.52 L 165.24 116.72 C 164.26 116.91 163.62 117.87 163.81 118.85 C 164.01 119.83 164.96 120.47 165.94 120.27 Z M 166.92 120.06 L 167.88 119.90 C 168.86 119.72 169.51 118.79 169.34 117.82 C 169.17 116.84 168.24 116.18 167.26 116.36 L 166.30 116.52 C 165.32 116.69 164.67 117.63 164.84 118.60 C 165.01 119.58 165.94 120.23 166.92 120.06 Z M 167.80 119.89 L 168.81 119.76 C 169.78 119.63 170.47 118.74 170.34 117.76 C 170.22 116.79 169.32 116.10 168.35 116.23 L 167.34 116.36 C 166.36 116.48 165.67 117.38 165.80 118.36 C 165.93 119.33 166.82 120.02 167.80 119.89 Z M 168.67 119.76 L 169.69 119.70 C 170.67 119.65 171.42 118.82 171.37 117.85 C 171.31 116.87 170.48 116.12 169.51 116.17 L 168.48 116.23 C 167.51 116.28 166.76 117.11 166.81 118.09 C 166.86 119.06 167.69 119.81 168.67 119.76 Z M 169.51 119.68 L 170.52 119.73 C 171.48 119.78 172.30 119.04 172.35 118.08 C 172.40 117.12 171.66 116.30 170.70 116.25 L 169.69 116.20 C 168.73 116.15 167.91 116.89 167.86 117.85 C 167.81 118.81 168.55 119.63 169.51 119.68 Z M 170.39 119.69 L 171.38 119.82 C 172.32 119.94 173.17 119.27 173.29 118.33 C 173.41 117.40 172.75 116.54 171.81 116.42 L 170.83 116.29 C 169.89 116.17 169.03 116.84 168.91 117.77 C 168.79 118.71 169.45 119.57 170.39 119.69 Z M 171.33 119.79 L 171.95 119.88 C 172.87 120.03 173.73 119.40 173.88 118.48 C 174.02 117.56 173.39 116.69 172.47 116.55 L 171.86 116.45 C 170.94 116.30 170.07 116.93 169.93 117.85 C 169.78 118.78 170.41 119.64 171.33 119.79 Z"
      fill="black"
      fill-rule="nonzero" /><path d="M 138.32 131.36 L 138.80 132.17 C 139.29 132.98 140.34 133.25 141.15 132.76 C 141.97 132.27 142.23 131.21 141.74 130.40 L 141.26 129.60 C 140.77 128.78 139.72 128.52 138.90 129.01 C 138.09 129.50 137.83 130.55 138.32 131.36 Z M 138.82 132.23 L 139.38 133.09 C 139.90 133.89 140.97 134.12 141.77 133.60 C 142.58 133.07 142.80 132.00 142.28 131.20 L 141.72 130.34 C 141.20 129.54 140.13 129.31 139.32 129.83 C 138.52 130.35 138.30 131.43 138.82 132.23 Z M 139.42 133.17 L 140.02 134.00 C 140.59 134.78 141.68 134.95 142.46 134.38 C 143.24 133.82 143.41 132.73 142.84 131.95 L 142.24 131.12 C 141.67 130.34 140.58 130.17 139.80 130.73 C 139.02 131.30 138.85 132.39 139.42 133.17 Z M 140.08 134.07 L 140.73 134.87 C 141.33 135.62 142.43 135.74 143.18 135.13 C 143.93 134.52 144.04 133.42 143.44 132.67 L 142.79 131.87 C 142.18 131.12 141.08 131.01 140.33 131.62 C 139.58 132.23 139.47 133.33 140.08 134.07 Z M 140.80 134.96 L 141.48 135.69 C 142.14 136.39 143.24 136.43 143.95 135.77 C 144.65 135.11 144.69 134.01 144.03 133.30 L 143.36 132.58 C 142.70 131.87 141.59 131.84 140.89 132.50 C 140.18 133.15 140.15 134.26 140.80 134.96 Z M 141.64 135.80 L 142.45 136.49 C 143.17 137.11 144.26 137.02 144.87 136.29 C 145.49 135.57 145.40 134.48 144.68 133.87 L 143.87 133.18 C 143.15 132.57 142.06 132.66 141.44 133.38 C 140.83 134.10 140.92 135.19 141.64 135.80 Z M 142.63 136.56 L 143.42 137.09 C 144.19 137.61 145.22 137.41 145.73 136.64 C 146.25 135.88 146.05 134.85 145.28 134.33 L 144.49 133.80 C 143.73 133.29 142.70 133.49 142.18 134.25 C 141.67 135.01 141.87 136.05 142.63 136.56 Z M 143.49 137.09 L 143.73 137.24 C 144.49 137.72 145.49 137.48 145.97 136.72 C 146.44 135.96 146.21 134.96 145.45 134.48 L 145.22 134.33 C 144.45 133.86 143.45 134.09 142.97 134.85 C 142.50 135.61 142.73 136.62 143.49 137.09 Z"
      fill="black"
      fill-rule="nonzero" /><path d="M 156.70 125.12 L 156.91 126.10 C 157.11 127.01 158.01 127.59 158.92 127.39 C 159.83 127.19 160.41 126.29 160.21 125.38 L 160.00 124.41 C 159.81 123.49 158.91 122.91 157.99 123.11 C 157.08 123.31 156.50 124.21 156.70 125.12 Z M 156.80 125.75 L 156.81 126.74 C 156.81 127.72 157.61 128.50 158.58 128.50 C 159.56 128.49 160.34 127.69 160.34 126.72 L 160.33 125.72 C 160.32 124.75 159.52 123.96 158.55 123.97 C 157.58 123.98 156.79 124.78 156.80 125.75 Z M 156.85 126.22 L 156.62 126.99 C 156.33 127.94 156.87 128.94 157.83 129.22 C 158.78 129.51 159.78 128.97 160.06 128.02 L 160.29 127.25 C 160.58 126.29 160.04 125.29 159.09 125.01 C 158.13 124.72 157.13 125.27 156.85 126.22 Z M 156.74 126.71 L 156.30 127.58 C 155.87 128.47 156.23 129.54 157.11 129.98 C 158.00 130.42 159.07 130.06 159.51 129.17 L 159.94 128.30 C 160.38 127.41 160.02 126.34 159.13 125.90 C 158.25 125.46 157.18 125.82 156.74 126.71 Z M 156.37 127.49 L 155.77 128.53 C 155.28 129.38 155.58 130.46 156.43 130.95 C 157.28 131.44 158.36 131.15 158.85 130.30 L 159.44 129.26 C 159.93 128.41 159.64 127.33 158.79 126.84 C 157.94 126.35 156.85 126.64 156.37 127.49 Z M 155.79 128.52 L 155.32 129.31 C 154.83 130.15 155.11 131.23 155.95 131.73 C 156.79 132.22 157.87 131.94 158.37 131.10 L 158.83 130.31 C 159.32 129.47 159.04 128.39 158.20 127.89 C 157.36 127.40 156.28 127.68 155.79 128.52 Z M 155.34 129.31 L 154.83 130.18 C 154.34 131.01 154.61 132.09 155.45 132.58 C 156.28 133.07 157.36 132.79 157.85 131.96 L 158.36 131.10 C 158.85 130.26 158.57 129.19 157.74 128.69 C 156.90 128.20 155.83 128.48 155.34 129.31 Z M 154.84 130.18 L 154.30 131.08 C 153.81 131.91 154.09 132.98 154.92 133.47 C 155.75 133.96 156.81 133.68 157.31 132.86 L 157.84 131.96 C 158.33 131.13 158.05 130.06 157.23 129.57 C 156.40 129.08 155.33 129.35 154.84 130.18 Z M 154.32 131.08 L 153.78 131.98 C 153.29 132.80 153.56 133.87 154.38 134.35 C 155.21 134.84 156.27 134.58 156.76 133.75 L 157.29 132.85 C 157.78 132.03 157.51 130.97 156.69 130.48 C 155.87 129.99 154.81 130.26 154.32 131.08 Z M 153.80 131.98 L 153.26 132.89 C 152.77 133.70 153.03 134.75 153.85 135.24 C 154.66 135.73 155.71 135.47 156.20 134.65 L 156.74 133.75 C 157.23 132.94 156.97 131.88 156.15 131.39 C 155.34 130.90 154.28 131.17 153.80 131.98 Z M 153.28 132.89 L 152.74 133.79 C 152.26 134.59 152.52 135.63 153.31 136.11 C 154.11 136.59 155.15 136.34 155.64 135.54 L 156.18 134.64 C 156.66 133.84 156.40 132.80 155.60 132.32 C 154.80 131.84 153.76 132.10 153.28 132.89 Z M 152.77 133.80 L 152.26 134.65 C 151.78 135.43 152.03 136.45 152.81 136.93 C 153.59 137.40 154.61 137.15 155.09 136.37 L 155.61 135.52 C 156.08 134.74 155.83 133.72 155.05 133.25 C 154.27 132.77 153.25 133.02 152.77 133.80 Z M 152.29 134.66 L 151.79 135.48 C 151.32 136.25 151.56 137.25 152.33 137.72 C 153.09 138.18 154.09 137.94 154.56 137.18 L 155.06 136.36 C 155.53 135.59 155.28 134.59 154.52 134.13 C 153.75 133.66 152.75 133.90 152.29 134.66 Z M 151.81 135.50 L 151.44 136.11 C 150.98 136.86 151.22 137.84 151.97 138.30 C 152.72 138.76 153.70 138.52 154.16 137.77 L 154.53 137.16 C 154.99 136.41 154.76 135.43 154.00 134.97 C 153.25 134.51 152.27 134.75 151.81 135.50 Z"
      fill="black"
      fill-rule="nonzero" /><path d="M 126.32 146.75 L 125.80 147.60 C 125.32 148.40 125.57 149.44 126.37 149.92 C 127.17 150.40 128.21 150.15 128.69 149.35 L 129.20 148.51 C 129.69 147.71 129.43 146.67 128.64 146.19 C 127.84 145.70 126.80 145.96 126.32 146.75 Z M 125.72 147.68 L 125.26 148.58 C 124.82 149.42 125.14 150.45 125.99 150.89 C 126.83 151.33 127.87 151.01 128.30 150.16 L 128.77 149.27 C 129.21 148.43 128.88 147.39 128.04 146.95 C 127.20 146.51 126.16 146.84 125.72 147.68 Z M 125.19 148.74 L 124.83 149.65 C 124.48 150.53 124.90 151.52 125.78 151.87 C 126.66 152.22 127.65 151.80 128.00 150.92 L 128.37 150.00 C 128.72 149.13 128.29 148.13 127.41 147.78 C 126.54 147.43 125.54 147.86 125.19 148.74 Z M 124.85 149.73 L 124.51 150.69 C 124.21 151.55 124.66 152.50 125.53 152.80 C 126.39 153.11 127.34 152.65 127.65 151.79 L 127.98 150.83 C 128.29 149.97 127.83 149.02 126.97 148.72 C 126.10 148.41 125.15 148.87 124.85 149.73 Z M 124.57 150.66 L 124.21 151.60 C 123.89 152.44 124.31 153.37 125.15 153.69 C 125.98 154.01 126.92 153.59 127.23 152.75 L 127.59 151.81 C 127.91 150.98 127.49 150.04 126.66 149.73 C 125.82 149.41 124.89 149.83 124.57 150.66 Z M 124.26 151.56 L 123.87 152.48 C 123.53 153.29 123.90 154.22 124.71 154.56 C 125.52 154.91 126.46 154.53 126.80 153.72 L 127.19 152.80 C 127.53 151.99 127.15 151.05 126.34 150.71 C 125.53 150.37 124.60 150.75 124.26 151.56 Z M 123.89 152.47 L 123.67 152.97 C 123.33 153.76 123.69 154.69 124.49 155.04 C 125.28 155.38 126.21 155.02 126.56 154.22 L 126.77 153.73 C 127.12 152.93 126.76 152.00 125.96 151.66 C 125.17 151.31 124.24 151.67 123.89 152.47 Z"
      fill="black"
      fill-rule="nonzero" /><path d="M 130.69 148.10 L 131.06 147.16 C 131.40 146.28 130.97 145.28 130.08 144.93 C 129.19 144.59 128.20 145.02 127.85 145.91 L 127.48 146.85 C 127.14 147.73 127.58 148.73 128.46 149.08 C 129.35 149.42 130.35 148.99 130.69 148.10 Z M 131.01 147.43 L 131.50 146.57 C 132.00 145.71 131.70 144.61 130.84 144.12 C 129.98 143.63 128.88 143.93 128.39 144.79 L 127.90 145.64 C 127.41 146.50 127.70 147.60 128.56 148.09 C 129.42 148.59 130.52 148.29 131.01 147.43 Z M 131.25 146.98 L 131.93 146.30 C 132.64 145.59 132.65 144.42 131.93 143.70 C 131.21 142.98 130.05 142.98 129.33 143.70 L 128.65 144.37 C 127.93 145.09 127.93 146.26 128.64 146.98 C 129.36 147.70 130.53 147.70 131.25 146.98 Z M 131.62 146.56 L 132.47 146.02 C 133.34 145.47 133.59 144.32 133.04 143.46 C 132.49 142.60 131.34 142.34 130.48 142.90 L 129.63 143.44 C 128.77 143.99 128.51 145.13 129.06 146.00 C 129.61 146.86 130.76 147.11 131.62 146.56 Z M 132.27 146.14 L 133.16 145.72 C 134.09 145.28 134.48 144.18 134.05 143.25 C 133.61 142.32 132.50 141.92 131.57 142.36 L 130.69 142.77 C 129.76 143.21 129.36 144.32 129.80 145.25 C 130.23 146.18 131.34 146.58 132.27 146.14 Z M 133.02 145.78 L 133.91 145.45 C 134.87 145.09 135.36 144.01 135.00 143.05 C 134.64 142.09 133.56 141.60 132.60 141.96 L 131.71 142.30 C 130.75 142.66 130.26 143.73 130.62 144.70 C 130.98 145.66 132.06 146.15 133.02 145.78 Z M 133.81 145.49 L 134.82 145.17 C 135.80 144.86 136.35 143.82 136.04 142.83 C 135.74 141.85 134.69 141.30 133.71 141.61 L 132.70 141.92 C 131.71 142.23 131.17 143.28 131.47 144.26 C 131.78 145.25 132.83 145.79 133.81 145.49 Z M 134.76 145.19 L 135.75 144.92 C 136.74 144.64 137.32 143.61 137.05 142.62 C 136.77 141.62 135.74 141.04 134.75 141.32 L 133.76 141.59 C 132.77 141.86 132.19 142.89 132.46 143.89 C 132.74 144.88 133.77 145.47 134.76 145.19 Z M 135.72 144.93 L 136.71 144.67 C 137.71 144.42 138.31 143.39 138.06 142.39 C 137.80 141.39 136.78 140.79 135.77 141.05 L 134.78 141.31 C 133.78 141.56 133.18 142.58 133.43 143.59 C 133.69 144.59 134.71 145.19 135.72 144.93 Z M 136.69 144.68 L 137.68 144.44 C 138.68 144.19 139.30 143.18 139.05 142.17 C 138.80 141.17 137.79 140.55 136.78 140.80 L 135.80 141.04 C 134.79 141.29 134.17 142.30 134.42 143.31 C 134.67 144.31 135.68 144.93 136.69 144.68 Z M 137.66 144.45 L 138.65 144.21 C 139.66 143.98 140.29 142.97 140.05 141.96 C 139.81 140.95 138.80 140.32 137.79 140.56 L 136.80 140.79 C 135.79 141.03 135.16 142.04 135.40 143.05 C 135.64 144.06 136.65 144.68 137.66 144.45 Z M 138.63 144.22 L 139.63 144.00 C 140.64 143.77 141.28 142.76 141.05 141.75 C 140.82 140.74 139.82 140.10 138.81 140.33 L 137.81 140.55 C 136.79 140.78 136.16 141.79 136.39 142.80 C 136.61 143.81 137.62 144.45 138.63 144.22 Z M 139.62 144.00 L 140.54 143.80 C 141.56 143.58 142.20 142.57 141.98 141.56 C 141.76 140.54 140.76 139.90 139.74 140.12 L 138.82 140.32 C 137.80 140.54 137.16 141.55 137.38 142.56 C 137.60 143.58 138.60 144.22 139.62 144.00 Z M 140.54 143.80 L 141.47 143.60 C 142.49 143.38 143.13 142.37 142.91 141.36 C 142.69 140.34 141.69 139.70 140.67 139.92 L 139.74 140.12 C 138.73 140.34 138.08 141.34 138.30 142.36 C 138.52 143.38 139.53 144.02 140.54 143.80 Z M 141.47 143.60 L 142.44 143.39 C 143.46 143.17 144.10 142.16 143.88 141.14 C 143.66 140.13 142.65 139.48 141.64 139.71 L 140.67 139.92 C 139.65 140.14 139.01 141.14 139.23 142.16 C 139.45 143.18 140.45 143.82 141.47 143.60 Z M 142.44 143.39 L 143.46 143.17 C 144.47 142.95 145.12 141.94 144.90 140.92 C 144.68 139.91 143.67 139.26 142.66 139.48 L 141.64 139.70 C 140.62 139.93 139.97 140.93 140.19 141.95 C 140.42 142.96 141.42 143.61 142.44 143.39 Z M 143.45 143.17 L 144.42 142.96 C 145.43 142.74 146.08 141.74 145.86 140.72 C 145.64 139.70 144.64 139.06 143.62 139.27 L 142.66 139.48 C 141.64 139.70 140.99 140.70 141.21 141.72 C 141.43 142.74 142.44 143.39 143.45 143.17 Z M 144.42 142.96 L 145.40 142.75 C 146.42 142.53 147.06 141.52 146.84 140.51 C 146.62 139.49 145.62 138.84 144.60 139.06 L 143.62 139.28 C 142.60 139.50 141.96 140.50 142.18 141.52 C 142.40 142.53 143.40 143.18 144.42 142.96 Z M 145.41 142.74 L 146.39 142.53 C 147.41 142.30 148.05 141.30 147.83 140.28 C 147.61 139.27 146.60 138.63 145.59 138.85 L 144.60 139.07 C 143.58 139.29 142.94 140.29 143.16 141.31 C 143.39 142.32 144.39 142.97 145.41 142.74 Z M 146.40 142.52 L 147.39 142.30 C 148.40 142.07 149.04 141.06 148.81 140.05 C 148.58 139.04 147.57 138.40 146.56 138.63 L 145.58 138.85 C 144.56 139.08 143.93 140.09 144.16 141.10 C 144.38 142.12 145.39 142.75 146.40 142.52 Z M 147.40 142.30 L 148.37 142.07 C 149.38 141.83 150.01 140.82 149.78 139.81 C 149.54 138.80 148.53 138.17 147.52 138.41 L 146.55 138.64 C 145.54 138.87 144.91 139.88 145.14 140.89 C 145.38 141.90 146.39 142.53 147.40 142.30 Z M 148.38 142.07 L 149.35 141.83 C 150.36 141.59 150.98 140.58 150.74 139.57 C 150.50 138.56 149.48 137.94 148.47 138.18 L 147.51 138.41 C 146.50 138.66 145.88 139.67 146.12 140.68 C 146.36 141.69 147.38 142.31 148.38 142.07 Z M 149.36 141.83 L 150.33 141.59 C 151.33 141.34 151.95 140.32 151.70 139.32 C 151.45 138.31 150.43 137.70 149.43 137.95 L 148.46 138.19 C 147.46 138.44 146.84 139.45 147.09 140.46 C 147.34 141.46 148.36 142.08 149.36 141.83 Z M 150.34 141.59 L 151.31 141.34 C 152.31 141.08 152.92 140.06 152.66 139.06 C 152.40 138.06 151.38 137.45 150.38 137.71 L 149.41 137.95 C 148.41 138.21 147.80 139.23 148.06 140.23 C 148.32 141.24 149.34 141.84 150.34 141.59 Z M 151.32 141.33 L 152.29 141.08 C 153.29 140.82 153.89 139.79 153.63 138.79 C 153.37 137.79 152.34 137.19 151.34 137.45 L 150.37 137.71 C 149.37 137.97 148.77 139.00 149.03 140.00 C 149.30 141.00 150.32 141.60 151.32 141.33 Z M 152.31 141.07 L 153.27 140.81 C 154.27 140.54 154.86 139.52 154.59 138.52 C 154.32 137.52 153.30 136.93 152.30 137.20 L 151.33 137.46 C 150.33 137.73 149.74 138.76 150.01 139.75 C 150.28 140.75 151.31 141.34 152.31 141.07 Z M 153.28 140.81 L 154.25 140.54 C 155.25 140.27 155.83 139.24 155.56 138.25 C 155.29 137.25 154.26 136.66 153.26 136.94 L 152.29 137.20 C 151.30 137.47 150.71 138.50 150.98 139.50 C 151.26 140.50 152.28 141.08 153.28 140.81 Z M 154.25 140.54 L 155.21 140.28 C 156.20 140.01 156.79 138.98 156.52 137.98 C 156.25 136.99 155.22 136.40 154.22 136.67 L 153.26 136.94 C 152.27 137.21 151.68 138.24 151.95 139.23 C 152.23 140.23 153.25 140.81 154.25 140.54 Z M 155.20 140.28 L 156.18 140.02 C 157.17 139.75 157.76 138.72 157.49 137.73 C 157.23 136.73 156.20 136.14 155.20 136.41 L 154.23 136.67 C 153.23 136.94 152.64 137.97 152.91 138.96 C 153.18 139.96 154.21 140.55 155.20 140.28 Z M 156.18 140.01 L 157.14 139.75 C 158.14 139.48 158.73 138.46 158.46 137.46 C 158.19 136.47 157.16 135.88 156.17 136.15 L 155.20 136.41 C 154.21 136.68 153.62 137.71 153.89 138.70 C 154.16 139.70 155.18 140.28 156.18 140.01 Z M 157.16 139.75 L 158.11 139.49 C 159.10 139.21 159.68 138.18 159.41 137.19 C 159.13 136.20 158.10 135.62 157.11 135.89 L 156.16 136.15 C 155.17 136.43 154.58 137.46 154.86 138.45 C 155.13 139.44 156.16 140.03 157.16 139.75 Z M 158.13 139.48 L 159.09 139.20 C 160.07 138.92 160.64 137.88 160.36 136.89 C 160.07 135.90 159.04 135.33 158.05 135.62 L 157.09 135.90 C 156.10 136.18 155.53 137.22 155.82 138.21 C 156.10 139.19 157.14 139.76 158.13 139.48 Z M 159.10 139.20 L 160.06 138.91 C 161.04 138.62 161.60 137.58 161.31 136.60 C 161.02 135.61 159.98 135.05 159.00 135.34 L 158.04 135.63 C 157.05 135.92 156.49 136.95 156.78 137.94 C 157.08 138.93 158.11 139.49 159.10 139.20 Z M 160.06 138.91 L 161.02 138.63 C 162.00 138.33 162.56 137.30 162.27 136.31 C 161.98 135.33 160.94 134.76 159.96 135.06 L 158.99 135.34 C 158.01 135.64 157.45 136.67 157.74 137.66 C 158.03 138.64 159.07 139.20 160.06 138.91 Z M 161.01 138.62 L 162.00 138.33 C 162.98 138.05 163.55 137.01 163.26 136.03 C 162.97 135.04 161.94 134.48 160.95 134.77 L 159.96 135.06 C 158.98 135.35 158.41 136.38 158.70 137.36 C 158.99 138.35 160.03 138.91 161.01 138.62 Z M 162.00 138.33 L 162.96 138.05 C 163.94 137.76 164.51 136.73 164.22 135.75 C 163.93 134.76 162.90 134.20 161.92 134.49 L 160.95 134.77 C 159.97 135.06 159.41 136.09 159.69 137.07 C 159.98 138.06 161.01 138.62 162.00 138.33 Z M 162.97 138.04 L 163.89 137.77 C 164.87 137.48 165.43 136.45 165.14 135.47 C 164.85 134.49 163.82 133.93 162.84 134.22 L 161.91 134.49 C 160.93 134.79 160.37 135.82 160.66 136.80 C 160.95 137.78 161.99 138.33 162.97 138.04 Z M 163.90 137.76 L 164.83 137.48 C 165.81 137.18 166.36 136.15 166.06 135.17 C 165.76 134.20 164.73 133.65 163.76 133.94 L 162.83 134.23 C 161.85 134.52 161.30 135.56 161.60 136.53 C 161.89 137.51 162.93 138.06 163.90 137.76 Z M 164.84 137.47 L 165.80 137.18 C 166.77 136.88 167.31 135.84 167.01 134.87 C 166.71 133.90 165.68 133.35 164.71 133.65 L 163.75 133.95 C 162.78 134.25 162.23 135.28 162.53 136.26 C 162.83 137.23 163.87 137.77 164.84 137.47 Z M 165.79 137.17 L 166.76 136.87 C 167.73 136.57 168.27 135.55 167.98 134.58 C 167.68 133.61 166.65 133.06 165.68 133.36 L 164.71 133.66 C 163.74 133.96 163.20 134.99 163.50 135.96 C 163.79 136.93 164.82 137.47 165.79 137.17 Z M 166.75 136.87 L 167.73 136.57 C 168.70 136.28 169.25 135.26 168.95 134.29 C 168.66 133.32 167.64 132.77 166.67 133.07 L 165.69 133.37 C 164.72 133.66 164.17 134.68 164.47 135.65 C 164.76 136.61 165.78 137.16 166.75 136.87 Z M 167.71 136.57 L 168.68 136.28 C 169.64 136.00 170.20 134.99 169.91 134.02 C 169.63 133.06 168.62 132.51 167.65 132.79 L 166.69 133.07 C 165.72 133.35 165.17 134.37 165.45 135.33 C 165.74 136.30 166.75 136.85 167.71 136.57 Z M 168.64 136.29 L 169.64 136.02 C 170.61 135.75 171.18 134.75 170.92 133.79 C 170.65 132.82 169.65 132.25 168.69 132.51 L 167.69 132.78 C 166.72 133.05 166.15 134.05 166.41 135.02 C 166.68 135.98 167.68 136.55 168.64 136.29 Z M 169.57 136.04 L 170.52 135.82 C 171.50 135.60 172.11 134.62 171.89 133.64 C 171.67 132.66 170.69 132.05 169.71 132.27 L 168.76 132.49 C 167.78 132.71 167.17 133.69 167.39 134.67 C 167.61 135.65 168.59 136.26 169.57 136.04 Z M 170.40 135.85 L 171.39 135.69 C 172.39 135.54 173.07 134.60 172.91 133.60 C 172.75 132.61 171.82 131.93 170.82 132.09 L 169.83 132.24 C 168.83 132.40 168.16 133.34 168.31 134.33 C 168.47 135.33 169.41 136.01 170.40 135.85 Z M 171.16 135.73 L 172.23 135.70 C 173.24 135.67 174.04 134.82 174.01 133.81 C 173.98 132.79 173.14 131.99 172.12 132.02 L 171.05 132.05 C 170.04 132.08 169.24 132.93 169.27 133.94 C 169.29 134.96 170.14 135.76 171.16 135.73 Z M 171.48 135.58 L 172.25 135.90 C 173.21 136.28 174.29 135.82 174.68 134.87 C 175.06 133.92 174.60 132.83 173.65 132.45 L 172.87 132.13 C 171.92 131.75 170.83 132.21 170.45 133.16 C 170.06 134.12 170.52 135.20 171.48 135.58 Z M 171.19 134.82 L 171.50 135.65 C 171.86 136.62 172.94 137.12 173.91 136.76 C 174.88 136.40 175.38 135.32 175.02 134.35 L 174.71 133.52 C 174.35 132.55 173.27 132.05 172.30 132.41 C 171.33 132.77 170.83 133.85 171.19 134.82 Z M 171.37 135.05 L 171.40 136.16 C 171.43 137.21 172.30 138.03 173.34 138.00 C 174.39 137.97 175.21 137.10 175.18 136.06 L 175.15 134.95 C 175.12 133.90 174.25 133.08 173.20 133.11 C 172.16 133.14 171.34 134.01 171.37 135.05 Z M 171.39 136.10 L 171.38 137.11 C 171.37 138.16 172.22 139.02 173.27 139.02 C 174.32 139.03 175.18 138.18 175.18 137.13 L 175.19 136.12 C 175.20 135.07 174.35 134.21 173.30 134.21 C 172.25 134.20 171.39 135.05 171.39 136.10 Z M 171.38 137.06 L 171.35 138.06 C 171.31 139.11 172.14 139.99 173.19 140.03 C 174.24 140.06 175.12 139.24 175.15 138.19 L 175.19 137.18 C 175.22 136.13 174.40 135.25 173.35 135.22 C 172.29 135.18 171.41 136.01 171.38 137.06 Z M 171.35 137.95 L 171.26 138.97 C 171.16 140.02 171.93 140.95 172.98 141.05 C 174.03 141.14 174.96 140.37 175.05 139.32 L 175.15 138.30 C 175.24 137.25 174.47 136.32 173.42 136.22 C 172.37 136.13 171.45 136.90 171.35 137.95 Z M 171.27 138.84 L 171.11 139.81 C 170.94 140.85 171.65 141.83 172.69 142.00 C 173.73 142.17 174.71 141.46 174.88 140.42 L 175.04 139.46 C 175.21 138.42 174.50 137.44 173.46 137.27 C 172.42 137.09 171.44 137.80 171.27 138.84 Z M 171.13 139.71 L 170.92 140.67 C 170.70 141.70 171.36 142.72 172.39 142.94 C 173.42 143.16 174.43 142.51 174.65 141.48 L 174.86 140.52 C 175.08 139.49 174.43 138.47 173.40 138.25 C 172.37 138.03 171.35 138.68 171.13 139.71 Z M 170.94 140.62 L 170.70 141.59 C 170.45 142.61 171.07 143.64 172.10 143.90 C 173.12 144.15 174.15 143.52 174.40 142.50 L 174.64 141.53 C 174.89 140.51 174.27 139.47 173.24 139.22 C 172.22 138.97 171.19 139.59 170.94 140.62 Z M 170.70 141.56 L 170.45 142.53 C 170.19 143.55 170.80 144.59 171.82 144.85 C 172.84 145.12 173.88 144.50 174.15 143.48 L 174.40 142.52 C 174.66 141.50 174.05 140.46 173.03 140.20 C 172.01 139.93 170.97 140.54 170.70 141.56 Z M 170.47 142.49 L 170.20 143.45 C 169.91 144.47 170.50 145.52 171.52 145.80 C 172.53 146.09 173.58 145.50 173.87 144.48 L 174.14 143.52 C 174.42 142.51 173.83 141.45 172.82 141.17 C 171.80 140.88 170.75 141.47 170.47 142.49 Z M 170.22 143.37 L 169.91 144.33 C 169.58 145.33 170.13 146.40 171.13 146.73 C 172.13 147.06 173.20 146.51 173.53 145.51 L 173.84 144.56 C 174.17 143.56 173.62 142.48 172.62 142.16 C 171.62 141.83 170.55 142.37 170.22 143.37 Z M 169.94 144.26 L 169.59 145.20 C 169.23 146.19 169.73 147.28 170.71 147.64 C 171.69 148.01 172.79 147.51 173.15 146.52 L 173.50 145.58 C 173.86 144.60 173.36 143.51 172.38 143.14 C 171.40 142.78 170.30 143.28 169.94 144.26 Z M 169.61 145.17 L 169.25 146.10 C 168.86 147.07 169.34 148.17 170.31 148.55 C 171.28 148.93 172.37 148.46 172.76 147.49 L 173.12 146.56 C 173.51 145.59 173.03 144.49 172.06 144.11 C 171.09 143.73 170.00 144.20 169.61 145.17 Z M 169.27 146.11 L 168.90 147.03 C 168.52 147.99 168.99 149.08 169.94 149.46 C 170.90 149.84 171.99 149.37 172.37 148.41 L 172.74 147.49 C 173.12 146.53 172.65 145.44 171.69 145.06 C 170.73 144.68 169.65 145.15 169.27 146.11 Z M 168.92 147.08 L 168.57 148.01 C 168.21 148.96 168.69 150.02 169.64 150.37 C 170.59 150.73 171.65 150.25 172.00 149.30 L 172.35 148.37 C 172.71 147.42 172.23 146.36 171.28 146.00 C 170.33 145.65 169.27 146.13 168.92 147.08 Z M 168.60 148.07 L 168.27 149.02 C 167.95 149.95 168.44 150.97 169.37 151.29 C 170.31 151.61 171.32 151.12 171.64 150.18 L 171.97 149.24 C 172.29 148.31 171.80 147.29 170.87 146.97 C 169.94 146.65 168.92 147.14 168.60 148.07 Z M 168.32 149.07 L 168.01 150.03 C 167.72 150.93 168.22 151.90 169.12 152.19 C 170.03 152.48 171.00 151.99 171.29 151.08 L 171.59 150.13 C 171.89 149.22 171.39 148.26 170.49 147.96 C 169.58 147.67 168.61 148.17 168.32 149.07 Z M 168.08 150.07 L 167.79 151.03 C 167.52 151.89 168.01 152.81 168.87 153.08 C 169.74 153.35 170.66 152.86 170.93 151.99 L 171.22 151.04 C 171.49 150.17 171.00 149.25 170.13 148.98 C 169.27 148.72 168.35 149.20 168.08 150.07 Z M 167.84 151.05 L 167.71 151.49 C 167.45 152.33 167.93 153.21 168.76 153.47 C 169.60 153.72 170.48 153.25 170.74 152.41 L 170.87 151.97 C 171.12 151.13 170.65 150.25 169.81 150.00 C 168.98 149.74 168.10 150.22 167.84 151.05 Z"
      fill="black"
      fill-rule="nonzero" /><path d="M 130.96 161.35 L 131.44 162.19 C 131.92 163.02 132.99 163.31 133.83 162.83 C 134.67 162.35 134.96 161.28 134.48 160.44 L 134.00 159.61 C 133.52 158.77 132.45 158.48 131.61 158.96 C 130.77 159.44 130.48 160.51 130.96 161.35 Z M 131.44 162.18 L 131.93 163.04 C 132.40 163.88 133.47 164.18 134.32 163.70 C 135.16 163.22 135.45 162.15 134.97 161.31 L 134.49 160.45 C 134.01 159.61 132.94 159.31 132.09 159.79 C 131.25 160.27 130.96 161.34 131.44 162.18 Z M 131.92 163.03 L 132.43 163.95 C 132.90 164.80 133.97 165.10 134.82 164.63 C 135.67 164.15 135.97 163.08 135.50 162.24 L 134.98 161.32 C 134.51 160.47 133.44 160.17 132.59 160.64 C 131.75 161.11 131.44 162.18 131.92 163.03 Z M 132.42 163.94 L 132.91 164.84 C 133.38 165.69 134.45 166.00 135.30 165.53 C 136.15 165.07 136.46 164.00 136.00 163.15 L 135.50 162.25 C 135.04 161.40 133.97 161.08 133.12 161.55 C 132.27 162.02 131.95 163.08 132.42 163.94 Z M 132.91 164.83 L 133.40 165.74 C 133.86 166.59 134.93 166.91 135.78 166.45 C 136.64 165.98 136.95 164.92 136.49 164.06 L 136.00 163.15 C 135.54 162.30 134.47 161.98 133.62 162.44 C 132.76 162.91 132.45 163.97 132.91 164.83 Z M 133.40 165.73 L 133.86 166.59 C 134.32 167.44 135.38 167.76 136.24 167.30 C 137.09 166.84 137.41 165.78 136.95 164.92 L 136.49 164.07 C 136.03 163.21 134.97 162.89 134.11 163.35 C 133.26 163.81 132.94 164.88 133.40 165.73 Z M 133.86 166.59 L 134.37 167.52 C 134.83 168.38 135.89 168.70 136.74 168.24 C 137.60 167.78 137.91 166.71 137.45 165.86 L 136.95 164.92 C 136.49 164.07 135.43 163.75 134.57 164.21 C 133.72 164.67 133.40 165.73 133.86 166.59 Z M 134.38 167.54 L 134.85 168.38 C 135.32 169.23 136.38 169.53 137.22 169.07 C 138.07 168.60 138.37 167.54 137.91 166.69 L 137.44 165.85 C 136.97 165.00 135.91 164.69 135.06 165.16 C 134.22 165.63 133.91 166.69 134.38 167.54 Z M 134.88 168.42 L 135.36 169.23 C 135.85 170.06 136.91 170.33 137.74 169.85 C 138.56 169.36 138.84 168.29 138.35 167.47 L 137.87 166.66 C 137.39 165.83 136.32 165.55 135.50 166.04 C 134.67 166.53 134.40 167.59 134.88 168.42 Z M 135.44 169.32 L 136.01 170.15 C 136.54 170.93 137.61 171.13 138.40 170.60 C 139.18 170.06 139.38 168.99 138.84 168.20 L 138.28 167.38 C 137.74 166.59 136.67 166.39 135.88 166.93 C 135.10 167.47 134.90 168.54 135.44 169.32 Z M 136.19 170.35 L 136.92 171.11 C 137.56 171.79 138.64 171.81 139.32 171.17 C 140.00 170.52 140.02 169.45 139.38 168.77 L 138.65 168.01 C 138.01 167.33 136.93 167.30 136.25 167.95 C 135.57 168.59 135.55 169.67 136.19 170.35 Z M 137.39 171.42 L 138.29 171.88 C 139.11 172.30 140.11 171.97 140.53 171.15 C 140.95 170.33 140.62 169.33 139.81 168.91 L 138.90 168.45 C 138.08 168.04 137.08 168.36 136.66 169.18 C 136.25 170.00 136.57 171.00 137.39 171.42 Z M 140.06 171.67 L 140.60 171.24 C 141.31 170.69 141.43 169.66 140.87 168.96 C 140.31 168.25 139.29 168.13 138.58 168.69 L 138.04 169.12 C 137.33 169.68 137.21 170.70 137.77 171.41 C 138.33 172.11 139.35 172.23 140.06 171.67 Z M 141.16 170.27 L 141.36 169.23 C 141.52 168.36 140.96 167.53 140.09 167.36 C 139.22 167.19 138.39 167.76 138.22 168.63 L 138.02 169.67 C 137.86 170.53 138.43 171.37 139.29 171.53 C 140.16 171.70 141.00 171.13 141.16 170.27 Z M 141.36 169.01 L 141.42 167.91 C 141.47 167.04 140.80 166.30 139.93 166.26 C 139.06 166.21 138.32 166.88 138.27 167.75 L 138.22 168.85 C 138.17 169.72 138.84 170.46 139.71 170.50 C 140.58 170.55 141.32 169.88 141.36 169.01 Z M 141.42 167.77 L 141.38 166.79 C 141.35 165.92 140.62 165.25 139.75 165.28 C 138.89 165.31 138.21 166.04 138.24 166.91 L 138.28 167.89 C 138.31 168.75 139.04 169.43 139.91 169.40 C 140.77 169.36 141.45 168.64 141.42 167.77 Z M 141.36 166.56 L 141.18 165.60 C 141.02 164.75 140.20 164.19 139.35 164.34 C 138.50 164.50 137.93 165.32 138.09 166.17 L 138.26 167.13 C 138.42 167.99 139.24 168.55 140.10 168.40 C 140.95 168.24 141.51 167.42 141.36 166.56 Z M 141.14 165.41 L 140.84 164.45 C 140.58 163.62 139.69 163.16 138.85 163.42 C 138.02 163.69 137.56 164.58 137.82 165.41 L 138.12 166.37 C 138.39 167.20 139.28 167.66 140.11 167.40 C 140.95 167.14 141.41 166.24 141.14 165.41 Z M 140.83 164.35 L 140.48 163.46 C 140.16 162.64 139.23 162.23 138.40 162.55 C 137.58 162.87 137.17 163.80 137.49 164.63 L 137.84 165.51 C 138.16 166.34 139.09 166.75 139.91 166.43 C 140.74 166.11 141.15 165.18 140.83 164.35 Z M 140.48 163.39 L 140.09 162.49 C 139.73 161.66 138.77 161.29 137.94 161.65 C 137.11 162.01 136.74 162.97 137.10 163.80 L 137.49 164.70 C 137.85 165.52 138.81 165.90 139.64 165.54 C 140.46 165.18 140.84 164.22 140.48 163.39 Z M 140.10 162.43 L 139.65 161.49 C 139.26 160.66 138.27 160.31 137.44 160.70 C 136.61 161.09 136.25 162.08 136.64 162.91 L 137.09 163.85 C 137.48 164.68 138.47 165.04 139.30 164.65 C 140.13 164.26 140.49 163.26 140.10 162.43 Z M 139.68 161.48 L 139.24 160.56 C 138.84 159.71 137.84 159.35 136.99 159.75 C 136.14 160.15 135.78 161.16 136.18 162.00 L 136.62 162.92 C 137.02 163.77 138.02 164.13 138.87 163.73 C 139.72 163.33 140.08 162.32 139.68 161.48 Z M 139.30 160.60 L 138.90 159.67 C 138.52 158.80 137.51 158.39 136.64 158.76 C 135.76 159.14 135.36 160.15 135.73 161.02 L 136.13 161.96 C 136.50 162.83 137.51 163.24 138.39 162.86 C 139.26 162.49 139.67 161.48 139.30 160.60 Z M 139.00 159.85 L 138.70 158.82 C 138.43 157.89 137.45 157.35 136.51 157.63 C 135.58 157.90 135.05 158.88 135.32 159.82 L 135.62 160.85 C 135.90 161.78 136.88 162.31 137.81 162.04 C 138.75 161.76 139.28 160.78 139.00 159.85 Z M 138.80 159.64 L 138.95 158.76 C 139.13 157.77 138.47 156.83 137.49 156.65 C 136.50 156.48 135.56 157.14 135.38 158.12 L 135.23 159.00 C 135.05 159.99 135.71 160.93 136.69 161.10 C 137.68 161.28 138.62 160.62 138.80 159.64 Z M 138.30 159.90 L 138.93 159.41 C 139.74 158.78 139.89 157.62 139.26 156.81 C 138.63 156.01 137.47 155.86 136.66 156.49 L 136.03 156.98 C 135.22 157.61 135.08 158.77 135.71 159.58 C 136.33 160.38 137.50 160.53 138.30 159.90 Z M 138.42 159.70 L 139.28 159.40 C 140.25 159.05 140.76 157.99 140.41 157.02 C 140.07 156.05 139.00 155.54 138.03 155.89 L 137.17 156.19 C 136.20 156.54 135.70 157.60 136.04 158.57 C 136.39 159.54 137.45 160.05 138.42 159.70 Z M 139.08 159.46 L 140.16 159.21 C 141.16 158.97 141.78 157.97 141.55 156.96 C 141.31 155.96 140.31 155.34 139.31 155.58 L 138.23 155.83 C 137.23 156.06 136.61 157.07 136.84 158.07 C 137.08 159.07 138.08 159.69 139.08 159.46 Z M 140.09 159.22 L 141.22 159.00 C 142.23 158.80 142.89 157.82 142.69 156.81 C 142.49 155.80 141.51 155.14 140.50 155.34 L 139.38 155.56 C 138.36 155.76 137.70 156.74 137.90 157.75 C 138.10 158.76 139.08 159.42 140.09 159.22 Z M 141.21 159.01 L 142.19 158.82 C 143.20 158.63 143.87 157.65 143.67 156.64 C 143.48 155.62 142.51 154.96 141.49 155.15 L 140.51 155.34 C 139.50 155.53 138.83 156.51 139.02 157.52 C 139.22 158.53 140.19 159.20 141.21 159.01 Z M 142.18 158.82 L 143.18 158.63 C 144.19 158.44 144.86 157.47 144.67 156.46 C 144.48 155.44 143.51 154.77 142.49 154.96 L 141.50 155.15 C 140.48 155.34 139.82 156.32 140.01 157.33 C 140.20 158.34 141.17 159.01 142.18 158.82 Z M 143.18 158.63 L 144.17 158.45 C 145.18 158.26 145.85 157.29 145.66 156.28 C 145.48 155.26 144.50 154.59 143.49 154.78 L 142.50 154.96 C 141.48 155.15 140.81 156.12 141.00 157.14 C 141.19 158.15 142.16 158.82 143.18 158.63 Z M 144.17 158.45 L 145.13 158.27 C 146.15 158.09 146.82 157.11 146.63 156.10 C 146.45 155.09 145.47 154.42 144.46 154.60 L 143.49 154.78 C 142.48 154.97 141.81 155.94 141.99 156.95 C 142.18 157.96 143.15 158.64 144.17 158.45 Z M 145.13 158.27 L 146.15 158.08 C 147.17 157.90 147.84 156.93 147.65 155.92 C 147.47 154.90 146.50 154.23 145.49 154.42 L 144.46 154.60 C 143.45 154.79 142.78 155.76 142.96 156.77 C 143.15 157.78 144.12 158.45 145.13 158.27 Z M 146.15 158.08 L 147.14 157.90 C 148.15 157.71 148.82 156.74 148.63 155.73 C 148.44 154.73 147.48 154.06 146.47 154.24 L 145.48 154.42 C 144.48 154.61 143.81 155.58 143.99 156.59 C 144.18 157.59 145.15 158.26 146.15 158.08 Z M 147.15 157.89 L 148.11 157.71 C 149.11 157.52 149.77 156.55 149.59 155.55 C 149.40 154.54 148.43 153.88 147.42 154.07 L 146.46 154.25 C 145.46 154.44 144.80 155.41 144.98 156.41 C 145.17 157.42 146.14 158.08 147.15 157.89 Z M 148.12 157.70 L 149.08 157.51 C 150.08 157.32 150.73 156.35 150.54 155.35 C 150.34 154.35 149.37 153.69 148.37 153.89 L 147.41 154.08 C 146.41 154.27 145.76 155.24 145.96 156.24 C 146.15 157.24 147.12 157.90 148.12 157.70 Z M 149.10 157.50 L 150.09 157.30 C 151.08 157.10 151.72 156.12 151.52 155.13 C 151.31 154.13 150.34 153.49 149.35 153.70 L 148.36 153.90 C 147.36 154.10 146.72 155.08 146.93 156.07 C 147.13 157.07 148.10 157.71 149.10 157.50 Z M 150.10 157.29 L 151.09 157.08 C 152.08 156.87 152.71 155.89 152.50 154.90 C 152.28 153.91 151.31 153.28 150.32 153.49 L 149.33 153.70 C 148.34 153.92 147.71 154.89 147.92 155.88 C 148.14 156.87 149.11 157.50 150.10 157.29 Z M 151.10 157.07 L 152.08 156.85 C 153.06 156.63 153.68 155.66 153.46 154.67 C 153.24 153.68 152.26 153.06 151.28 153.28 L 150.31 153.50 C 149.32 153.72 148.70 154.70 148.92 155.68 C 149.14 156.67 150.12 157.29 151.10 157.07 Z M 152.09 156.84 L 153.07 156.62 C 154.05 156.39 154.66 155.41 154.43 154.43 C 154.20 153.45 153.22 152.84 152.24 153.07 L 151.26 153.29 C 150.28 153.52 149.67 154.50 149.90 155.48 C 150.13 156.46 151.11 157.07 152.09 156.84 Z M 153.08 156.61 L 154.08 156.37 C 155.06 156.13 155.66 155.15 155.42 154.18 C 155.19 153.20 154.21 152.60 153.23 152.83 L 152.23 153.08 C 151.26 153.31 150.65 154.29 150.89 155.27 C 151.12 156.24 152.10 156.84 153.08 156.61 Z M 154.08 156.36 L 155.05 156.13 C 156.02 155.89 156.62 154.91 156.38 153.94 C 156.15 152.97 155.17 152.37 154.20 152.61 L 153.23 152.84 C 152.26 153.08 151.66 154.06 151.90 155.03 C 152.13 156.00 153.11 156.60 154.08 156.36 Z M 155.04 156.12 L 155.98 155.90 C 156.95 155.66 157.54 154.69 157.31 153.72 C 157.08 152.75 156.11 152.16 155.14 152.39 L 154.20 152.61 C 153.24 152.85 152.64 153.82 152.87 154.79 C 153.10 155.76 154.08 156.35 155.04 156.12 Z M 155.96 155.89 L 156.97 155.66 C 157.93 155.44 158.54 154.47 158.31 153.50 C 158.09 152.54 157.12 151.93 156.15 152.16 L 155.15 152.39 C 154.18 152.62 153.58 153.58 153.81 154.55 C 154.03 155.52 155.00 156.12 155.96 155.89 Z M 156.96 155.66 L 157.94 155.44 C 158.91 155.22 159.51 154.26 159.29 153.29 C 159.07 152.32 158.11 151.72 157.14 151.94 L 156.16 152.16 C 155.20 152.38 154.59 153.34 154.81 154.31 C 155.03 155.27 155.99 155.88 156.96 155.66 Z M 157.94 155.43 L 158.89 155.22 C 159.85 154.99 160.45 154.03 160.23 153.07 C 160.01 152.10 159.05 151.50 158.08 151.72 L 157.14 151.94 C 156.17 152.16 155.57 153.12 155.79 154.09 C 156.02 155.05 156.98 155.66 157.94 155.43 Z M 158.90 155.21 L 159.92 154.96 C 160.88 154.73 161.47 153.77 161.24 152.81 C 161.01 151.85 160.05 151.26 159.09 151.49 L 158.07 151.73 C 157.11 151.96 156.52 152.93 156.75 153.89 C 156.98 154.85 157.94 155.44 158.90 155.21 Z M 159.92 154.96 L 160.90 154.72 C 161.86 154.49 162.44 153.53 162.21 152.57 C 161.98 151.62 161.02 151.03 160.06 151.26 L 159.09 151.49 C 158.13 151.73 157.54 152.69 157.77 153.64 C 158.00 154.60 158.97 155.19 159.92 154.96 Z M 160.87 154.72 L 161.80 154.51 C 162.76 154.29 163.36 153.35 163.14 152.39 C 162.93 151.44 161.98 150.84 161.02 151.05 L 160.09 151.26 C 159.14 151.48 158.54 152.42 158.75 153.38 C 158.97 154.34 159.92 154.93 160.87 154.72 Z M 161.73 154.52 L 162.73 154.33 C 163.69 154.16 164.32 153.24 164.15 152.28 C 163.97 151.32 163.05 150.68 162.09 150.86 L 161.09 151.04 C 160.13 151.22 159.50 152.14 159.68 153.10 C 159.85 154.06 160.77 154.69 161.73 154.52 Z M 162.63 154.34 L 163.60 154.22 C 164.56 154.10 165.25 153.22 165.13 152.26 C 165.01 151.29 164.13 150.61 163.16 150.73 L 162.19 150.85 C 161.23 150.97 160.54 151.85 160.66 152.81 C 160.78 153.78 161.66 154.46 162.63 154.34 Z M 163.39 154.25 L 164.45 154.24 C 165.43 154.24 166.22 153.43 166.22 152.45 C 166.21 151.47 165.41 150.68 164.43 150.69 L 163.36 150.70 C 162.38 150.71 161.60 151.51 161.60 152.49 C 161.61 153.47 162.41 154.26 163.39 154.25 Z M 163.64 154.09 L 164.42 154.47 C 165.32 154.91 166.40 154.54 166.84 153.65 C 167.28 152.75 166.91 151.67 166.01 151.23 L 165.24 150.84 C 164.34 150.40 163.26 150.78 162.82 151.67 C 162.38 152.57 162.75 153.65 163.64 154.09 Z M 163.47 153.42 L 163.76 154.32 C 164.08 155.29 165.12 155.82 166.08 155.50 C 167.05 155.19 167.57 154.15 167.26 153.18 L 166.97 152.28 C 166.65 151.31 165.61 150.79 164.65 151.10 C 163.68 151.42 163.16 152.45 163.47 153.42 Z M 163.66 153.59 L 163.57 154.62 C 163.48 155.65 164.24 156.55 165.26 156.64 C 166.29 156.73 167.19 155.97 167.28 154.94 L 167.37 153.91 C 167.46 152.89 166.70 151.99 165.67 151.90 C 164.65 151.81 163.75 152.57 163.66 153.59 Z M 163.64 154.21 L 163.34 155.14 C 163.02 156.12 163.56 157.18 164.55 157.50 C 165.53 157.82 166.59 157.28 166.91 156.29 L 167.21 155.36 C 167.52 154.37 166.98 153.32 166.00 153.00 C 165.01 152.68 163.96 153.22 163.64 154.21 Z M 163.42 154.91 L 163.01 155.79 C 162.57 156.72 162.97 157.84 163.91 158.29 C 164.84 158.73 165.96 158.33 166.41 157.39 L 166.82 156.52 C 167.26 155.58 166.86 154.46 165.93 154.02 C 164.99 153.57 163.87 153.97 163.42 154.91 Z M 163.06 155.68 L 162.66 156.40 C 162.16 157.31 162.49 158.45 163.40 158.96 C 164.31 159.46 165.45 159.13 165.95 158.22 L 166.35 157.50 C 166.86 156.59 166.53 155.45 165.62 154.94 C 164.71 154.44 163.57 154.77 163.06 155.68 Z M 162.70 156.34 L 162.17 157.21 C 161.64 158.10 161.92 159.25 162.81 159.79 C 163.70 160.33 164.85 160.04 165.39 159.15 L 165.92 158.28 C 166.45 157.40 166.17 156.24 165.28 155.70 C 164.39 155.17 163.24 155.45 162.70 156.34 Z M 162.20 157.17 L 161.55 158.19 C 160.99 159.07 161.25 160.23 162.12 160.78 C 163.00 161.34 164.16 161.08 164.72 160.21 L 165.37 159.19 C 165.92 158.31 165.67 157.15 164.79 156.60 C 163.92 156.04 162.76 156.30 162.20 157.17 Z M 161.56 158.18 L 161.04 158.97 C 160.48 159.84 160.72 161.00 161.59 161.57 C 162.46 162.13 163.62 161.89 164.19 161.02 L 164.71 160.22 C 165.27 159.36 165.03 158.19 164.16 157.63 C 163.29 157.06 162.13 157.31 161.56 158.18 Z M 161.05 158.96 L 160.49 159.82 C 159.92 160.68 160.16 161.84 161.02 162.41 C 161.88 162.98 163.04 162.75 163.61 161.88 L 164.18 161.03 C 164.75 160.16 164.51 159.00 163.65 158.43 C 162.78 157.86 161.62 158.10 161.05 158.96 Z M 160.50 159.81 L 159.91 160.69 C 159.34 161.55 159.57 162.71 160.43 163.28 C 161.28 163.86 162.45 163.63 163.02 162.77 L 163.61 161.89 C 164.18 161.03 163.95 159.87 163.09 159.30 C 162.23 158.72 161.07 158.95 160.50 159.81 Z M 159.92 160.68 L 159.34 161.53 C 158.76 162.39 158.99 163.55 159.84 164.13 C 160.69 164.70 161.85 164.48 162.43 163.63 L 163.01 162.77 C 163.59 161.92 163.37 160.76 162.51 160.18 C 161.66 159.60 160.50 159.83 159.92 160.68 Z M 159.35 161.52 L 158.80 162.33 C 158.22 163.18 158.43 164.34 159.28 164.92 C 160.12 165.50 161.28 165.29 161.87 164.44 L 162.42 163.64 C 163.00 162.79 162.79 161.63 161.94 161.05 C 161.10 160.46 159.94 160.68 159.35 161.52 Z M 158.83 162.32 L 158.17 163.24 C 157.58 164.07 157.78 165.22 158.61 165.81 C 159.45 166.40 160.60 166.21 161.19 165.37 L 161.84 164.45 C 162.43 163.62 162.23 162.47 161.40 161.88 C 160.57 161.29 159.42 161.49 158.83 162.32 Z M 158.21 163.23 L 157.63 164.02 C 157.04 164.83 157.21 165.97 158.02 166.56 C 158.83 167.16 159.97 166.99 160.56 166.18 L 161.15 165.39 C 161.74 164.58 161.57 163.44 160.76 162.84 C 159.95 162.24 158.81 162.42 158.21 163.23 Z M 157.67 164.01 L 157.11 164.74 C 156.51 165.53 156.66 166.65 157.45 167.25 C 158.23 167.86 159.36 167.71 159.96 166.92 L 160.52 166.19 C 161.12 165.40 160.98 164.28 160.19 163.67 C 159.40 163.07 158.27 163.22 157.67 164.01 Z M 157.15 164.73 L 156.56 165.48 C 155.96 166.25 156.09 167.36 156.86 167.96 C 157.63 168.57 158.74 168.44 159.34 167.67 L 159.93 166.92 C 160.53 166.16 160.40 165.04 159.63 164.44 C 158.87 163.84 157.75 163.97 157.15 164.73 Z M 156.60 165.47 L 155.96 166.26 C 155.35 167.01 155.46 168.11 156.21 168.72 C 156.96 169.33 158.06 169.21 158.67 168.46 L 159.31 167.67 C 159.92 166.93 159.80 165.83 159.05 165.22 C 158.30 164.61 157.20 164.72 156.60 165.47 Z M 156.00 166.23 L 155.33 167.01 C 154.71 167.73 154.79 168.82 155.52 169.45 C 156.24 170.07 157.33 169.99 157.95 169.27 L 158.62 168.49 C 159.24 167.77 159.16 166.68 158.44 166.05 C 157.72 165.43 156.63 165.51 156.00 166.23 Z M 155.40 166.96 L 154.73 167.68 C 154.08 168.36 154.10 169.44 154.79 170.09 C 155.47 170.74 156.55 170.71 157.20 170.03 L 157.88 169.31 C 158.53 168.63 158.50 167.55 157.82 166.90 C 157.13 166.25 156.05 166.28 155.40 166.96 Z M 154.84 167.60 L 154.07 168.29 C 153.37 168.91 153.31 169.97 153.93 170.67 C 154.55 171.36 155.61 171.42 156.31 170.80 L 157.08 170.11 C 157.78 169.49 157.84 168.43 157.22 167.73 C 156.60 167.04 155.54 166.98 154.84 167.60 Z M 154.21 168.22 L 153.40 168.81 C 152.67 169.35 152.51 170.38 153.05 171.11 C 153.58 171.85 154.61 172.01 155.35 171.47 L 156.16 170.88 C 156.89 170.34 157.05 169.31 156.52 168.57 C 155.98 167.84 154.95 167.68 154.21 168.22 Z M 153.51 168.78 L 152.71 169.29 C 151.96 169.76 151.74 170.76 152.22 171.51 C 152.69 172.26 153.69 172.48 154.44 172.01 L 155.24 171.50 C 155.99 171.02 156.21 170.03 155.74 169.28 C 155.26 168.53 154.26 168.30 153.51 168.78 Z M 152.75 169.29 L 152.55 169.41 C 151.80 169.87 151.57 170.84 152.02 171.59 C 152.48 172.34 153.46 172.58 154.20 172.12 L 154.40 172.00 C 155.15 171.55 155.39 170.57 154.93 169.82 C 154.48 169.07 153.50 168.84 152.75 169.29 Z"
      fill="black"
      fill-rule="nonzero" /><path d="M 150.48 148.73 L 150.65 147.72 C 150.79 146.85 150.21 146.03 149.34 145.88 C 148.47 145.74 147.65 146.32 147.50 147.19 L 147.33 148.20 C 147.19 149.07 147.77 149.89 148.64 150.03 C 149.51 150.18 150.33 149.59 150.48 148.73 Z M 150.66 147.75 L 150.84 146.77 C 151.01 145.90 150.43 145.05 149.56 144.89 C 148.68 144.72 147.84 145.30 147.67 146.18 L 147.49 147.15 C 147.32 148.03 147.90 148.87 148.78 149.04 C 149.65 149.20 150.50 148.63 150.66 147.75 Z M 150.88 146.86 L 151.15 145.71 C 151.37 144.82 150.82 143.92 149.92 143.71 C 149.03 143.49 148.13 144.04 147.92 144.94 L 147.64 146.08 C 147.43 146.98 147.98 147.88 148.87 148.09 C 149.76 148.30 150.66 147.75 150.88 146.86 Z M 151.18 145.98 L 151.50 145.20 C 151.86 144.29 151.42 143.25 150.51 142.89 C 149.60 142.53 148.57 142.97 148.21 143.88 L 147.89 144.67 C 147.52 145.57 147.97 146.61 148.88 146.97 C 149.78 147.33 150.82 146.89 151.18 145.98 Z M 148.02 144.90 L 148.15 145.54 C 148.35 146.55 149.33 147.20 150.34 147.00 C 151.36 146.80 152.01 145.82 151.81 144.80 L 151.68 144.17 C 151.48 143.16 150.49 142.50 149.48 142.71 C 148.47 142.91 147.82 143.89 148.02 144.90 Z M 148.08 145.18 L 148.09 146.37 C 148.09 147.42 148.95 148.26 149.99 148.26 C 151.04 148.25 151.89 147.40 151.88 146.35 L 151.88 145.16 C 151.87 144.11 151.02 143.27 149.97 143.27 C 148.92 143.28 148.07 144.13 148.08 145.18 Z M 148.07 146.36 L 148.07 147.34 C 148.07 148.40 148.93 149.25 149.98 149.25 C 151.04 149.25 151.90 148.40 151.90 147.34 L 151.90 146.36 C 151.90 145.30 151.04 144.44 149.98 144.44 C 148.93 144.44 148.07 145.30 148.07 146.36 Z M 148.07 147.34 L 148.07 148.32 C 148.07 149.38 148.92 150.24 149.98 150.24 C 151.04 150.24 151.90 149.38 151.90 148.32 L 151.90 147.34 C 151.90 146.28 151.04 145.42 149.98 145.42 C 148.92 145.42 148.07 146.28 148.07 147.34 Z M 148.06 148.31 L 148.06 149.25 C 148.05 150.31 148.91 151.18 149.97 151.18 C 151.03 151.19 151.90 150.33 151.90 149.27 L 151.91 148.33 C 151.91 147.26 151.05 146.40 149.99 146.39 C 148.93 146.39 148.07 147.25 148.06 148.31 Z M 148.06 149.23 L 148.04 150.30 C 148.02 151.36 148.87 152.24 149.93 152.25 C 151.00 152.27 151.87 151.42 151.89 150.36 L 151.91 149.29 C 151.92 148.23 151.07 147.35 150.01 147.33 C 148.95 147.32 148.07 148.17 148.06 149.23 Z M 148.04 150.27 L 148.01 151.22 C 147.98 152.28 148.81 153.17 149.88 153.20 C 150.94 153.23 151.83 152.40 151.86 151.33 L 151.89 150.38 C 151.92 149.32 151.08 148.43 150.02 148.40 C 148.96 148.37 148.07 149.21 148.04 150.27 Z M 148.01 151.20 L 147.97 152.15 C 147.93 153.22 148.76 154.11 149.82 154.15 C 150.89 154.19 151.78 153.36 151.82 152.30 L 151.86 151.35 C 151.90 150.29 151.07 149.39 150.01 149.35 C 148.94 149.31 148.05 150.14 148.01 151.20 Z M 147.97 152.15 L 147.93 153.18 C 147.89 154.24 148.71 155.14 149.78 155.18 C 150.84 155.23 151.74 154.40 151.78 153.34 L 151.82 152.31 C 151.87 151.24 151.04 150.34 149.98 150.30 C 148.91 150.26 148.02 151.08 147.97 152.15 Z M 147.93 153.18 L 147.89 154.28 C 147.84 155.34 148.67 156.24 149.73 156.28 C 150.80 156.32 151.70 155.50 151.74 154.43 L 151.78 153.34 C 151.82 152.27 151.00 151.38 149.93 151.33 C 148.87 151.29 147.97 152.12 147.93 153.18 Z M 147.89 154.28 L 147.85 155.20 C 147.81 156.26 148.64 157.15 149.71 157.19 C 150.77 157.23 151.66 156.40 151.70 155.34 L 151.74 154.43 C 151.78 153.36 150.95 152.47 149.88 152.43 C 148.82 152.39 147.93 153.22 147.89 154.28 Z M 147.85 155.20 L 147.82 156.17 C 147.78 157.23 148.62 158.12 149.68 158.16 C 150.74 158.19 151.64 157.36 151.67 156.30 L 151.70 155.33 C 151.74 154.27 150.91 153.38 149.84 153.34 C 148.78 153.31 147.89 154.14 147.85 155.20 Z M 147.82 156.17 L 147.79 157.18 C 147.76 158.24 148.59 159.13 149.66 159.17 C 150.72 159.20 151.61 158.36 151.64 157.30 L 151.67 156.29 C 151.70 155.23 150.87 154.34 149.81 154.31 C 148.74 154.27 147.85 155.11 147.82 156.17 Z M 147.79 157.19 L 147.76 158.24 C 147.73 159.31 148.57 160.19 149.63 160.22 C 150.70 160.25 151.58 159.41 151.61 158.35 L 151.64 157.29 C 151.67 156.23 150.83 155.35 149.77 155.32 C 148.70 155.29 147.82 156.12 147.79 157.19 Z M 147.76 158.25 L 147.74 159.30 C 147.71 160.36 148.55 161.24 149.61 161.27 C 150.68 161.29 151.56 160.45 151.58 159.39 L 151.61 158.34 C 151.64 157.28 150.80 156.40 149.73 156.37 C 148.67 156.35 147.79 157.19 147.76 158.25 Z M 147.73 159.30 L 147.71 160.26 C 147.69 161.32 148.53 162.21 149.60 162.23 C 150.66 162.25 151.54 161.41 151.57 160.34 L 151.59 159.39 C 151.61 158.32 150.77 157.44 149.70 157.42 C 148.64 157.40 147.76 158.24 147.73 159.30 Z M 147.71 160.26 L 147.69 161.25 C 147.67 162.31 148.52 163.19 149.58 163.21 C 150.65 163.24 151.53 162.39 151.55 161.32 L 151.57 160.34 C 151.59 159.27 150.74 158.39 149.68 158.37 C 148.61 158.35 147.73 159.20 147.71 160.26 Z M 147.69 161.25 L 147.67 162.25 C 147.65 163.32 148.50 164.20 149.57 164.22 C 150.64 164.24 151.52 163.39 151.54 162.32 L 151.55 161.32 C 151.57 160.25 150.72 159.37 149.65 159.35 C 148.59 159.33 147.71 160.18 147.69 161.25 Z M 147.67 162.26 L 147.65 163.28 C 147.63 164.35 148.48 165.23 149.56 165.25 C 150.63 165.27 151.51 164.41 151.52 163.34 L 151.54 162.32 C 151.56 161.25 150.70 160.37 149.63 160.35 C 148.56 160.33 147.68 161.19 147.67 162.26 Z M 147.65 163.28 L 147.63 164.32 C 147.61 165.39 148.47 166.27 149.54 166.29 C 150.61 166.30 151.50 165.45 151.51 164.37 L 151.53 163.34 C 151.54 162.27 150.69 161.39 149.62 161.37 C 148.54 161.35 147.66 162.21 147.65 163.28 Z M 147.63 164.32 L 147.61 165.31 C 147.60 166.39 148.45 167.27 149.53 167.28 C 150.60 167.30 151.49 166.44 151.50 165.37 L 151.52 164.37 C 151.53 163.30 150.67 162.42 149.60 162.40 C 148.52 162.38 147.64 163.24 147.63 164.32 Z M 147.61 165.31 L 147.59 166.28 C 147.58 167.36 148.44 168.24 149.51 168.26 C 150.59 168.27 151.48 167.41 151.49 166.34 L 151.50 165.37 C 151.52 164.29 150.66 163.41 149.58 163.39 C 148.51 163.38 147.62 164.24 147.61 165.31 Z M 147.59 166.28 L 147.58 167.27 C 147.56 168.34 148.42 169.23 149.50 169.24 C 150.58 169.26 151.46 168.40 151.48 167.32 L 151.49 166.34 C 151.51 165.26 150.65 164.37 149.57 164.36 C 148.49 164.34 147.61 165.21 147.59 166.28 Z M 147.57 167.26 L 147.56 168.26 C 147.54 169.34 148.41 170.23 149.49 170.24 C 150.56 170.26 151.45 169.40 151.47 168.32 L 151.48 167.32 C 151.50 166.24 150.64 165.35 149.56 165.34 C 148.48 165.32 147.59 166.18 147.57 167.26 Z M 147.56 168.26 L 147.54 169.27 C 147.52 170.35 148.39 171.24 149.47 171.26 C 150.55 171.28 151.44 170.41 151.46 169.33 L 151.47 168.32 C 151.49 167.24 150.63 166.35 149.54 166.33 C 148.46 166.31 147.57 167.18 147.56 168.26 Z M 147.54 169.27 L 147.52 170.30 C 147.50 171.38 148.37 172.28 149.45 172.29 C 150.53 172.31 151.42 171.45 151.44 170.37 L 151.46 169.33 C 151.48 168.25 150.61 167.36 149.53 167.34 C 148.45 167.32 147.55 168.19 147.54 169.27 Z M 147.52 170.30 L 147.50 171.31 C 147.48 172.40 148.34 173.29 149.43 173.31 C 150.51 173.33 151.41 172.47 151.43 171.39 L 151.44 170.37 C 151.46 169.28 150.60 168.39 149.52 168.37 C 148.43 168.35 147.54 169.21 147.52 170.30 Z M 147.50 171.31 L 147.48 172.30 C 147.46 173.38 148.32 174.28 149.41 174.30 C 150.49 174.32 151.39 173.46 151.41 172.38 L 151.43 171.39 C 151.45 170.30 150.59 169.41 149.50 169.39 C 148.42 169.37 147.52 170.23 147.50 171.31 Z M 147.48 172.30 L 147.46 173.30 C 147.44 174.38 148.30 175.28 149.38 175.30 C 150.47 175.32 151.36 174.46 151.39 173.38 L 151.41 172.38 C 151.43 171.29 150.57 170.40 149.48 170.38 C 148.40 170.35 147.50 171.21 147.48 172.30 Z M 147.46 173.30 L 147.44 174.30 C 147.42 175.39 148.28 176.28 149.36 176.31 C 150.44 176.33 151.34 175.47 151.36 174.39 L 151.38 173.38 C 151.41 172.30 150.55 171.40 149.47 171.38 C 148.38 171.35 147.49 172.21 147.46 173.30 Z M 147.44 174.30 L 147.42 175.31 C 147.40 176.39 148.25 177.29 149.33 177.31 C 150.42 177.34 151.31 176.48 151.34 175.40 L 151.36 174.39 C 151.39 173.31 150.53 172.41 149.45 172.39 C 148.36 172.36 147.47 173.22 147.44 174.30 Z M 147.42 175.31 L 147.40 176.32 C 147.37 177.40 148.23 178.29 149.31 178.32 C 150.39 178.35 151.29 177.49 151.31 176.41 L 151.34 175.40 C 151.36 174.32 150.51 173.42 149.42 173.40 C 148.34 173.37 147.45 174.23 147.42 175.31 Z M 147.40 176.31 L 147.37 177.31 C 147.35 178.39 148.20 179.29 149.28 179.32 C 150.36 179.34 151.26 178.49 151.29 177.41 L 151.31 176.41 C 151.34 175.33 150.48 174.43 149.40 174.41 C 148.32 174.38 147.43 175.23 147.40 176.31 Z M 147.38 177.31 L 147.35 178.33 C 147.32 179.41 148.18 180.30 149.26 180.33 C 150.34 180.36 151.23 179.50 151.26 178.43 L 151.29 177.41 C 151.31 176.33 150.46 175.43 149.38 175.41 C 148.30 175.38 147.40 176.23 147.38 177.31 Z M 147.35 178.33 L 147.33 179.34 C 147.30 180.42 148.15 181.31 149.23 181.34 C 150.31 181.37 151.20 180.52 151.23 179.44 L 151.26 178.43 C 151.28 177.35 150.43 176.45 149.36 176.43 C 148.28 176.40 147.38 177.25 147.35 178.33 Z M 147.33 179.34 L 147.31 180.34 C 147.28 181.42 148.13 182.31 149.21 182.34 C 150.28 182.37 151.18 181.52 151.20 180.44 L 151.23 179.44 C 151.26 178.36 150.41 177.47 149.33 177.44 C 148.25 177.41 147.36 178.26 147.33 179.34 Z M 147.31 180.34 L 147.28 181.34 C 147.26 182.41 148.11 183.31 149.18 183.33 C 150.26 183.36 151.15 182.51 151.18 181.43 L 151.20 180.44 C 151.23 179.36 150.38 178.47 149.30 178.44 C 148.23 178.42 147.34 179.27 147.31 180.34 Z M 147.29 181.34 L 147.26 182.33 C 147.24 183.40 148.09 184.29 149.16 184.32 C 150.23 184.34 151.13 183.49 151.15 182.42 L 151.17 181.43 C 151.20 180.36 150.35 179.47 149.28 179.44 C 148.20 179.42 147.31 180.27 147.29 181.34 Z M 147.27 182.33 L 147.24 183.32 C 147.22 184.39 148.07 185.28 149.14 185.31 C 150.21 185.33 151.10 184.48 151.13 183.41 L 151.15 182.42 C 151.17 181.35 150.32 180.46 149.25 180.43 C 148.18 180.41 147.29 181.26 147.27 182.33 Z M 147.25 183.33 L 147.23 184.32 C 147.21 185.39 148.06 186.28 149.13 186.30 C 150.20 186.32 151.08 185.47 151.10 184.40 L 151.12 183.40 C 151.14 182.33 150.29 181.45 149.22 181.43 C 148.15 181.40 147.27 182.26 147.25 183.33 Z M 147.23 184.32 L 147.21 185.33 C 147.19 186.40 148.04 187.28 149.11 187.30 C 150.18 187.32 151.06 186.47 151.08 185.40 L 151.10 184.39 C 151.12 183.33 150.27 182.44 149.20 182.43 C 148.13 182.41 147.25 183.26 147.23 184.32 Z M 147.22 185.34 L 147.20 186.35 C 147.18 187.41 148.03 188.29 149.10 188.31 C 150.17 188.32 151.04 187.47 151.06 186.41 L 151.08 185.40 C 151.09 184.33 150.24 183.46 149.18 183.44 C 148.11 183.42 147.24 184.27 147.22 185.34 Z M 147.21 186.35 L 147.19 187.35 C 147.18 188.42 148.02 189.29 149.09 189.31 C 150.15 189.32 151.02 188.47 151.04 187.41 L 151.06 186.41 C 151.07 185.34 150.22 184.47 149.16 184.45 C 148.10 184.44 147.22 185.29 147.21 186.35 Z M 147.20 187.36 L 147.18 188.36 C 147.17 189.42 148.02 190.29 149.08 190.30 C 150.14 190.32 151.01 189.47 151.02 188.41 L 151.04 187.41 C 151.05 186.35 150.20 185.48 149.14 185.46 C 148.08 185.45 147.21 186.30 147.20 187.36 Z M 147.19 188.36 L 147.17 189.35 C 147.16 190.41 148.01 191.28 149.06 191.29 C 150.12 191.30 150.99 190.46 151.00 189.40 L 151.02 188.41 C 151.03 187.35 150.19 186.48 149.13 186.47 C 148.07 186.45 147.20 187.30 147.19 188.36 Z M 147.18 189.35 L 147.17 190.33 C 147.15 191.39 147.99 192.25 149.05 192.27 C 150.10 192.28 150.97 191.44 150.98 190.38 L 151.00 189.40 C 151.01 188.35 150.17 187.48 149.11 187.47 C 148.06 187.45 147.19 188.30 147.18 189.35 Z M 147.17 190.33 L 147.15 191.38 C 147.14 192.44 147.98 193.30 149.03 193.32 C 150.09 193.33 150.95 192.49 150.97 191.44 L 150.98 190.38 C 151.00 189.33 150.15 188.47 149.10 188.45 C 148.05 188.44 147.18 189.28 147.17 190.33 Z M 147.16 191.38 L 147.14 192.42 C 147.13 193.47 147.97 194.33 149.02 194.35 C 150.07 194.36 150.93 193.52 150.95 192.47 L 150.96 191.44 C 150.98 190.39 150.14 189.52 149.09 189.51 C 148.04 189.49 147.17 190.33 147.16 191.38 Z M 147.15 192.42 L 147.13 193.43 C 147.12 194.48 147.96 195.34 149.00 195.36 C 150.05 195.37 150.91 194.54 150.93 193.49 L 150.94 192.47 C 150.96 191.42 150.12 190.56 149.07 190.55 C 148.02 190.53 147.16 191.37 147.15 192.42 Z M 147.14 193.44 L 147.12 194.42 C 147.11 195.47 147.95 196.33 148.99 196.34 C 150.04 196.36 150.90 195.52 150.91 194.47 L 150.93 193.49 C 150.94 192.44 150.10 191.58 149.06 191.57 C 148.01 191.55 147.15 192.39 147.14 193.44 Z M 147.13 194.43 L 147.12 195.39 C 147.10 196.43 147.94 197.29 148.98 197.30 C 150.03 197.32 150.89 196.48 150.90 195.43 L 150.91 194.47 C 150.92 193.43 150.08 192.57 149.04 192.56 C 148.00 192.55 147.14 193.38 147.13 194.43 Z M 147.12 195.39 L 147.11 196.36 C 147.10 197.40 147.94 198.25 148.98 198.26 C 150.02 198.27 150.88 197.44 150.89 196.39 L 150.90 195.43 C 150.91 194.39 150.07 193.53 149.02 193.52 C 147.98 193.51 147.13 194.35 147.12 195.39 Z M 147.11 196.36 L 147.10 197.45 C 147.09 198.49 147.93 199.34 148.98 199.35 C 150.02 199.36 150.87 198.52 150.88 197.47 L 150.89 196.39 C 150.89 195.34 150.05 194.49 149.01 194.49 C 147.97 194.48 147.12 195.32 147.11 196.36 Z M 147.10 197.45 L 147.09 198.49 C 147.09 199.54 147.93 200.39 148.98 200.39 C 150.02 200.40 150.87 199.55 150.88 198.51 L 150.88 197.47 C 150.89 196.42 150.04 195.57 149.00 195.57 C 147.95 195.57 147.10 196.41 147.10 197.45 Z M 147.09 198.50 L 147.09 199.48 C 147.09 200.53 147.93 201.38 148.98 201.38 C 150.03 201.38 150.88 200.54 150.88 199.49 L 150.88 198.50 C 150.88 197.46 150.04 196.61 148.99 196.60 C 147.94 196.60 147.09 197.45 147.09 198.50 Z M 147.09 199.49 L 147.09 200.42 C 147.08 201.47 147.93 202.32 148.98 202.32 C 150.03 202.32 150.88 201.47 150.88 200.42 L 150.88 199.49 C 150.88 198.44 150.03 197.59 148.99 197.59 C 147.94 197.59 147.09 198.44 147.09 199.49 Z M 147.08 200.42 L 147.08 201.39 C 147.08 202.44 147.93 203.29 148.98 203.29 C 150.03 203.29 150.89 202.44 150.89 201.39 L 150.89 200.42 C 150.89 199.37 150.03 198.52 148.98 198.52 C 147.93 198.52 147.08 199.37 147.08 200.42 Z M 147.07 201.39 L 147.07 202.43 C 147.07 203.49 147.93 204.35 148.98 204.35 C 150.04 204.35 150.90 203.49 150.90 202.43 L 150.90 201.39 C 150.90 200.33 150.04 199.48 148.98 199.48 C 147.93 199.48 147.07 200.33 147.07 201.39 Z M 147.05 202.43 L 147.05 203.42 C 147.05 204.49 147.92 205.35 148.98 205.35 C 150.05 205.35 150.91 204.49 150.91 203.42 L 150.91 202.43 C 150.91 201.37 150.05 200.50 148.98 200.50 C 147.92 200.50 147.05 201.37 147.05 202.43 Z M 147.04 203.42 L 147.04 204.38 C 147.04 205.45 147.91 206.32 148.98 206.32 C 150.06 206.32 150.93 205.45 150.93 204.38 L 150.93 203.42 C 150.93 202.35 150.06 201.48 148.98 201.48 C 147.91 201.48 147.04 202.35 147.04 203.42 Z M 147.03 204.38 L 147.03 204.75 C 147.03 205.83 147.90 206.71 148.98 206.71 C 150.06 206.71 150.94 205.83 150.94 204.75 L 150.94 204.38 C 150.94 203.30 150.06 202.42 148.98 202.42 C 147.90 202.42 147.03 203.30 147.03 204.38 Z"
      fill="black"
      fill-rule="nonzero" /></svg>