<svg xmlns="http://www.w3.org/2000/svg" width="300" height="300" viewBox="0 0 300 300">
<path d="M 135.15 120.98 L 134.70 121.88 C 134.24 122.80 134.61 123.91 135.53 124.37 C 136.45 124.83 137.56 124.45 138.02 123.54 L 138.47 122.63 C 138.93 121.71 138.55 120.60 137.63 120.14 C 136.72 119.68 135.60 120.06 135.15 120.98 Z M 134.70 121.86 L 134.24 122.75 C 133.77 123.66 134.13 124.78 135.05 125.25 C 135.96 125.73 137.08 125.37 137.55 124.45 L 138.01 123.56 C 138.48 122.65 138.12 121.53 137.21 121.06 C 136.30 120.58 135.17 120.94 134.70 121.86 Z M 134.27 122.70 L 133.79 123.55 C 133.30 124.45 133.62 125.59 134.52 126.09 C 135.43 126.59 136.56 126.26 137.06 125.36 L 137.53 124.50 C 138.03 123.60 137.70 122.47 136.80 121.97 C 135.90 121.47 134.76 121.80 134.27 122.70 Z M 133.85 123.50 L 133.39 124.25 C 132.86 125.12 133.14 126.26 134.01 126.79 C 134.88 127.32 136.02 127.04 136.55 126.17 L 137.01 125.41 C 137.54 124.54 137.26 123.40 136.39 122.87 C 135.51 122.35 134.38 122.62 133.85 123.50 Z M 133.46 124.21 L 132.93 125.01 C 132.37 125.84 132.60 126.97 133.44 127.52 C 134.27 128.07 135.40 127.84 135.95 127.01 L 136.48 126.21 C 137.03 125.38 136.80 124.25 135.97 123.70 C 135.13 123.15 134.01 123.38 133.46 124.21 Z M 132.99 124.99 L 132.34 125.90 C 131.78 126.71 131.97 127.82 132.77 128.38 C 133.57 128.94 134.68 128.75 135.25 127.95 L 135.89 127.03 C 136.46 126.23 136.26 125.12 135.46 124.56 C 134.66 123.99 133.55 124.18 132.99 124.99 Z M 132.38 125.90 L 131.81 126.69 C 131.24 127.47 131.41 128.56 132.20 129.13 C 132.98 129.70 134.07 129.52 134.64 128.74 L 135.21 127.95 C 135.78 127.17 135.60 126.08 134.82 125.51 C 134.04 124.94 132.94 125.12 132.38 125.90 Z M 131.83 126.69 L 131.24 127.48 C 130.67 128.26 130.83 129.34 131.61 129.91 C 132.38 130.48 133.46 130.31 134.03 129.54 L 134.62 128.74 C 135.19 127.97 135.02 126.88 134.25 126.32 C 133.48 125.75 132.39 125.91 131.83 126.69 Z M 131.25 127.49 L 130.63 128.32 C 130.07 129.08 130.23 130.16 130.99 130.73 C 131.75 131.29 132.83 131.14 133.40 130.37 L 134.02 129.54 C 134.58 128.78 134.42 127.70 133.66 127.13 C 132.90 126.56 131.82 126.72 131.25 127.49 Z M 130.65 128.32 L 130.03 129.15 C 129.46 129.91 129.61 130.98 130.37 131.54 C 131.12 132.11 132.19 131.96 132.76 131.20 L 133.38 130.37 C 133.95 129.62 133.79 128.54 133.04 127.98 C 132.29 127.41 131.22 127.57 130.65 128.32 Z M 130.04 129.16 L 129.43 129.96 C 128.87 130.71 129.01 131.77 129.76 132.34 C 130.51 132.90 131.57 132.75 132.13 132.00 L 132.74 131.20 C 133.31 130.45 133.16 129.39 132.41 128.83 C 131.67 128.26 130.60 128.41 130.04 129.16 Z M 129.45 129.97 L 128.77 130.86 C 128.21 131.59 128.35 132.64 129.09 133.20 C 129.82 133.76 130.88 133.62 131.44 132.89 L 132.11 132.00 C 132.67 131.26 132.53 130.21 131.80 129.65 C 131.06 129.09 130.01 129.23 129.45 129.97 Z M 128.80 130.86 L 128.18 131.66 C 127.62 132.38 127.74 133.42 128.46 133.98 C 129.18 134.54 130.22 134.41 130.78 133.69 L 131.41 132.89 C 131.97 132.17 131.84 131.13 131.12 130.57 C 130.40 130.01 129.36 130.14 128.80 130.86 Z M 128.21 131.65 L 127.62 132.39 C 127.05 133.09 127.16 134.11 127.86 134.68 C 128.56 135.24 129.58 135.13 130.15 134.43 L 130.74 133.70 C 131.31 133.00 131.20 131.98 130.50 131.41 C 129.80 130.85 128.78 130.95 128.21 131.65 Z M 127.66 132.37 L 127.07 133.07 C 126.50 133.74 126.58 134.76 127.25 135.33 C 127.93 135.90 128.94 135.82 129.51 135.15 L 130.10 134.45 C 130.68 133.78 130.60 132.76 129.92 132.19 C 129.25 131.62 128.24 131.70 127.66 132.37 Z M 127.11 133.04 L 126.43 133.80 C 125.84 134.45 125.89 135.45 126.54 136.04 C 127.19 136.63 128.19 136.58 128.78 135.93 L 129.47 135.17 C 130.06 134.52 130.01 133.52 129.36 132.93 C 128.71 132.34 127.70 132.39 127.11 133.04 Z M 126.46 133.78 L 125.78 134.50 C 125.17 135.13 125.20 136.12 125.83 136.73 C 126.46 137.33 127.45 137.31 128.06 136.68 L 128.74 135.96 C 129.35 135.33 129.32 134.33 128.69 133.73 C 128.06 133.12 127.06 133.15 126.46 133.78 Z M 125.80 134.49 L 125.11 135.18 C 124.50 135.80 124.51 136.79 125.13 137.40 C 125.75 138.01 126.74 138.00 127.35 137.38 L 128.03 136.69 C 128.64 136.07 128.63 135.08 128.02 134.47 C 127.40 133.86 126.41 133.87 125.80 134.49 Z M 125.12 135.18 L 124.99 135.31 C 124.39 135.92 124.39 136.91 125.00 137.52 C 125.61 138.13 126.60 138.12 127.21 137.51 L 127.34 137.38 C 127.94 136.77 127.94 135.78 127.33 135.17 C 126.72 134.57 125.73 134.57 125.12 135.18 Z"
      fill="black"
      fill-rule="nonzero" /><path d="M 141.04 126.20 L 140.75 127.10 C 140.45 128.01 140.95 128.99 141.86 129.29 C 142.76 129.59 143.74 129.09 144.04 128.18 L 144.34 127.28 C 144.63 126.37 144.14 125.39 143.23 125.09 C 142.32 124.80 141.34 125.29 141.04 126.20 Z M 140.69 127.04 L 140.37 127.97 C 140.04 128.91 140.53 129.94 141.47 130.27 C 142.41 130.60 143.44 130.11 143.77 129.17 L 144.09 128.24 C 144.43 127.30 143.93 126.27 142.99 125.94 C 142.05 125.61 141.02 126.10 140.69 127.04 Z M 140.33 127.87 L 139.94 128.84 C 139.56 129.80 140.03 130.89 140.99 131.28 C 141.95 131.66 143.04 131.19 143.42 130.23 L 143.81 129.26 C 144.19 128.30 143.72 127.21 142.76 126.83 C 141.80 126.44 140.71 126.91 140.33 127.87 Z M 139.94 128.74 L 139.52 129.66 C 139.08 130.63 139.50 131.76 140.47 132.20 C 141.43 132.64 142.57 132.22 143.01 131.25 L 143.43 130.33 C 143.87 129.37 143.44 128.23 142.48 127.79 C 141.51 127.35 140.37 127.78 139.94 128.74 Z M 139.54 129.59 L 139.08 130.50 C 138.60 131.45 138.99 132.61 139.94 133.09 C 140.89 133.57 142.05 133.18 142.53 132.23 L 142.99 131.32 C 143.46 130.37 143.08 129.21 142.13 128.73 C 141.18 128.26 140.02 128.64 139.54 129.59 Z M 139.11 130.45 L 138.62 131.35 C 138.12 132.29 138.47 133.46 139.41 133.96 C 140.34 134.47 141.51 134.12 142.02 133.18 L 142.50 132.28 C 143.01 131.34 142.66 130.17 141.72 129.67 C 140.78 129.16 139.61 129.51 139.11 130.45 Z M 138.64 131.31 L 138.16 132.16 C 137.63 133.09 137.95 134.26 138.88 134.79 C 139.81 135.32 140.98 135.00 141.51 134.07 L 142.00 133.22 C 142.52 132.30 142.20 131.12 141.28 130.59 C 140.35 130.06 139.17 130.38 138.64 131.31 Z M 138.18 132.12 L 137.65 133.01 C 137.10 133.92 137.39 135.11 138.30 135.66 C 139.22 136.21 140.40 135.92 140.95 135.00 L 141.49 134.11 C 142.04 133.20 141.74 132.01 140.83 131.46 C 139.92 130.91 138.73 131.21 138.18 132.12 Z M 137.67 132.98 L 137.14 133.81 C 136.57 134.71 136.84 135.90 137.74 136.47 C 138.64 137.04 139.84 136.77 140.41 135.87 L 140.93 135.04 C 141.50 134.14 141.23 132.94 140.33 132.38 C 139.43 131.81 138.24 132.07 137.67 132.98 Z M 137.16 133.78 L 136.62 134.60 C 136.04 135.49 136.30 136.69 137.19 137.27 C 138.08 137.85 139.28 137.60 139.86 136.71 L 140.39 135.89 C 140.97 135.00 140.72 133.80 139.83 133.22 C 138.93 132.64 137.74 132.89 137.16 133.78 Z M 136.63 134.60 L 136.10 135.40 C 135.52 136.29 135.77 137.49 136.66 138.07 C 137.55 138.66 138.75 138.41 139.33 137.52 L 139.86 136.71 C 140.44 135.82 140.19 134.62 139.30 134.04 C 138.41 133.46 137.21 133.70 136.63 134.60 Z M 136.10 135.40 L 135.56 136.22 C 134.98 137.11 135.23 138.31 136.12 138.89 C 137.01 139.48 138.20 139.23 138.79 138.34 L 139.33 137.52 C 139.91 136.63 139.67 135.43 138.78 134.84 C 137.89 134.26 136.69 134.51 136.10 135.40 Z M 135.57 136.21 L 135.00 137.06 C 134.42 137.95 134.66 139.15 135.55 139.74 C 136.44 140.33 137.63 140.08 138.22 139.19 L 138.79 138.34 C 139.37 137.46 139.13 136.26 138.24 135.67 C 137.35 135.08 136.16 135.32 135.57 136.21 Z M 135.01 137.05 L 134.43 137.91 C 133.84 138.80 134.08 140.00 134.96 140.59 C 135.85 141.18 137.05 140.95 137.64 140.06 L 138.22 139.20 C 138.81 138.32 138.57 137.12 137.69 136.53 C 136.80 135.93 135.60 136.17 135.01 137.05 Z M 134.44 137.90 L 133.89 138.71 C 133.29 139.59 133.51 140.79 134.39 141.40 C 135.27 142.00 136.47 141.77 137.07 140.89 L 137.63 140.07 C 138.23 139.19 138.01 137.99 137.13 137.39 C 136.25 136.79 135.04 137.02 134.44 137.90 Z M 133.90 138.70 L 133.33 139.51 C 132.72 140.39 132.93 141.59 133.80 142.20 C 134.68 142.81 135.88 142.60 136.49 141.73 L 137.06 140.91 C 137.67 140.03 137.46 138.83 136.59 138.22 C 135.71 137.61 134.51 137.82 133.90 138.70 Z M 133.34 139.49 L 132.75 140.31 C 132.13 141.17 132.33 142.38 133.19 143.00 C 134.05 143.63 135.26 143.43 135.88 142.57 L 136.47 141.75 C 137.10 140.88 136.90 139.68 136.04 139.06 C 135.17 138.43 133.97 138.63 133.34 139.49 Z M 132.77 140.28 L 132.17 141.09 C 131.53 141.94 131.71 143.15 132.56 143.79 C 133.41 144.43 134.62 144.25 135.26 143.40 L 135.86 142.59 C 136.50 141.74 136.33 140.53 135.47 139.89 C 134.62 139.25 133.41 139.43 132.77 140.28 Z M 132.19 141.06 L 131.58 141.85 C 130.93 142.69 131.08 143.90 131.92 144.56 C 132.76 145.21 133.97 145.06 134.63 144.22 L 135.24 143.43 C 135.89 142.59 135.74 141.37 134.90 140.72 C 134.06 140.07 132.85 140.22 132.19 141.06 Z M 131.60 141.83 L 130.97 142.61 C 130.31 143.44 130.44 144.65 131.27 145.32 C 132.10 145.98 133.32 145.85 133.98 145.02 L 134.61 144.24 C 135.28 143.41 135.14 142.19 134.31 141.53 C 133.48 140.86 132.27 140.99 131.60 141.83 Z M 130.99 142.59 L 130.35 143.36 C 129.67 144.18 129.79 145.40 130.61 146.08 C 131.44 146.75 132.65 146.63 133.33 145.81 L 133.97 145.04 C 134.64 144.22 134.53 143.00 133.70 142.32 C 132.88 141.65 131.67 141.76 130.99 142.59 Z M 130.36 143.35 L 129.71 144.12 C 129.03 144.93 129.13 146.15 129.95 146.84 C 130.76 147.52 131.98 147.42 132.67 146.60 L 133.32 145.83 C 134.00 145.01 133.90 143.80 133.08 143.11 C 132.27 142.43 131.05 142.53 130.36 143.35 Z M 129.73 144.11 L 129.06 144.88 C 128.37 145.69 128.47 146.90 129.27 147.60 C 130.08 148.29 131.30 148.20 131.99 147.39 L 132.65 146.61 C 133.35 145.81 133.25 144.59 132.44 143.90 C 131.64 143.20 130.42 143.30 129.73 144.11 Z M 129.08 144.87 L 128.42 145.62 C 127.72 146.42 127.80 147.64 128.60 148.34 C 129.40 149.04 130.62 148.96 131.32 148.16 L 131.98 147.40 C 132.68 146.60 132.60 145.38 131.80 144.68 C 130.99 143.98 129.78 144.06 129.08 144.87 Z M 128.43 145.61 L 127.78 146.34 C 127.07 147.13 127.14 148.35 127.93 149.06 C 128.72 149.77 129.94 149.70 130.65 148.90 L 131.31 148.17 C 132.01 147.38 131.94 146.16 131.15 145.45 C 130.36 144.74 129.14 144.81 128.43 145.61 Z M 127.79 146.32 L 127.10 147.08 C 126.39 147.86 126.44 149.08 127.23 149.80 C 128.01 150.51 129.23 150.46 129.95 149.67 L 130.63 148.92 C 131.35 148.14 131.30 146.92 130.51 146.20 C 129.73 145.48 128.51 145.54 127.79 146.32 Z M 127.13 147.06 L 126.43 147.81 C 125.70 148.58 125.74 149.79 126.51 150.52 C 127.29 151.24 128.50 151.21 129.23 150.43 L 129.92 149.69 C 130.65 148.92 130.61 147.70 129.84 146.98 C 129.07 146.25 127.85 146.29 127.13 147.06 Z M 126.45 147.79 L 125.77 148.50 C 125.03 149.26 125.06 150.47 125.82 151.21 C 126.58 151.94 127.79 151.92 128.52 151.16 L 129.20 150.45 C 129.94 149.69 129.91 148.48 129.15 147.74 C 128.39 147.01 127.18 147.03 126.45 147.79 Z M 125.79 148.49 L 125.11 149.18 C 124.37 149.93 124.37 151.13 125.12 151.87 C 125.87 152.61 127.07 152.61 127.81 151.86 L 128.50 151.17 C 129.24 150.42 129.23 149.21 128.48 148.47 C 127.74 147.73 126.53 147.74 125.79 148.49 Z M 125.13 149.17 L 124.40 149.89 C 123.65 150.62 123.64 151.82 124.37 152.57 C 125.11 153.31 126.31 153.33 127.05 152.59 L 127.79 151.87 C 128.53 151.14 128.54 149.94 127.81 149.19 C 127.08 148.45 125.88 148.44 125.13 149.17 Z M 124.43 149.88 L 123.71 150.56 C 122.96 151.28 122.93 152.47 123.64 153.22 C 124.36 153.97 125.55 154.00 126.30 153.29 L 127.02 152.60 C 127.77 151.89 127.80 150.70 127.09 149.94 C 126.37 149.19 125.18 149.16 124.43 149.88 Z M 123.74 150.55 L 123.03 151.20 C 122.27 151.90 122.22 153.08 122.92 153.84 C 123.62 154.60 124.80 154.65 125.56 153.95 L 126.27 153.30 C 127.03 152.60 127.08 151.42 126.38 150.66 C 125.68 149.90 124.50 149.85 123.74 150.55 Z M 123.09 151.18 L 122.35 151.82 C 121.58 152.49 121.49 153.65 122.16 154.42 C 122.82 155.19 123.99 155.28 124.76 154.61 L 125.50 153.97 C 126.27 153.31 126.35 152.14 125.69 151.37 C 125.02 150.60 123.86 150.52 123.09 151.18 Z M 122.48 151.76 L 121.68 152.35 C 120.87 152.94 120.70 154.08 121.30 154.88 C 121.89 155.69 123.03 155.86 123.83 155.27 L 124.63 154.68 C 125.44 154.08 125.61 152.95 125.01 152.14 C 124.42 151.34 123.28 151.17 122.48 151.76 Z M 121.87 152.26 L 120.99 152.77 C 120.14 153.26 119.85 154.35 120.34 155.20 C 120.83 156.05 121.92 156.35 122.77 155.85 L 123.65 155.35 C 124.50 154.86 124.79 153.77 124.30 152.92 C 123.81 152.06 122.72 151.77 121.87 152.26 Z M 121.17 152.70 L 120.29 153.09 C 119.41 153.49 119.01 154.53 119.40 155.41 C 119.80 156.30 120.83 156.70 121.72 156.30 L 122.60 155.92 C 123.48 155.52 123.88 154.48 123.49 153.60 C 123.09 152.71 122.06 152.31 121.17 152.70 Z M 120.40 153.08 L 119.45 153.43 C 118.56 153.76 118.10 154.76 118.44 155.66 C 118.77 156.56 119.77 157.01 120.67 156.68 L 121.61 156.32 C 122.51 155.99 122.97 154.99 122.63 154.09 C 122.30 153.20 121.30 152.74 120.40 153.08 Z M 119.51 153.44 L 118.53 153.77 C 117.63 154.07 117.15 155.04 117.46 155.94 C 117.76 156.83 118.73 157.31 119.62 157.01 L 120.61 156.67 C 121.50 156.37 121.98 155.40 121.68 154.50 C 121.38 153.61 120.41 153.13 119.51 153.44 Z M 118.54 153.78 L 118.36 153.84 C 117.48 154.13 117.00 155.09 117.29 155.98 C 117.58 156.87 118.54 157.35 119.43 157.05 L 119.61 157.00 C 120.50 156.70 120.98 155.74 120.68 154.85 C 120.39 153.97 119.43 153.48 118.54 153.78 Z"
      fill="black"
      fill-rule="nonzero" /><path d="M 133.18 141.81 L 133.18 142.76 C 133.18 143.72 133.96 144.49 134.91 144.49 C 135.87 144.49 136.65 143.72 136.65 142.76 L 136.65 141.81 C 136.65 140.86 135.87 140.08 134.91 140.08 C 133.96 140.08 133.18 140.86 133.18 141.81 Z M 133.07 142.76 L 133.07 143.76 C 133.07 144.78 133.89 145.61 134.91 145.61 C 135.93 145.61 136.76 144.78 136.76 143.76 L 136.76 142.76 C 136.76 141.74 135.93 140.91 134.91 140.91 C 133.89 140.91 133.07 141.74 133.07 142.76 Z M 132.97 143.76 L 132.97 144.81 C 132.97 145.88 133.84 146.75 134.91 146.75 C 135.99 146.75 136.86 145.88 136.86 144.81 L 136.86 143.76 C 136.86 142.68 135.99 141.81 134.91 141.81 C 133.84 141.81 132.97 142.68 132.97 143.76 Z M 132.92 144.80 L 132.92 145.82 C 132.92 146.92 133.81 147.81 134.91 147.81 C 136.01 147.82 136.90 146.92 136.91 145.82 L 136.91 144.81 C 136.91 143.71 136.02 142.81 134.92 142.81 C 133.82 142.81 132.92 143.70 132.92 144.80 Z M 132.91 145.81 L 132.91 146.83 C 132.90 147.94 133.79 148.84 134.90 148.84 C 136.00 148.85 136.90 147.96 136.91 146.85 L 136.91 145.83 C 136.92 144.73 136.03 143.83 134.92 143.82 C 133.82 143.82 132.92 144.71 132.91 145.81 Z M 132.90 146.82 L 132.89 147.80 C 132.88 148.91 133.76 149.82 134.87 149.83 C 135.98 149.85 136.89 148.96 136.90 147.85 L 136.91 146.87 C 136.93 145.76 136.04 144.85 134.93 144.84 C 133.82 144.82 132.92 145.71 132.90 146.82 Z M 132.89 147.78 L 132.86 148.80 C 132.83 149.91 133.71 150.83 134.82 150.86 C 135.93 150.89 136.85 150.01 136.88 148.90 L 136.90 147.88 C 136.93 146.77 136.06 145.85 134.95 145.82 C 133.84 145.79 132.92 146.67 132.89 147.78 Z M 132.86 148.77 L 132.82 149.73 C 132.78 150.84 133.64 151.78 134.75 151.82 C 135.85 151.87 136.79 151.01 136.84 149.90 L 136.88 148.94 C 136.92 147.83 136.06 146.89 134.95 146.85 C 133.85 146.80 132.91 147.66 132.86 148.77 Z M 132.83 149.71 L 132.77 150.65 C 132.71 151.76 133.56 152.70 134.67 152.76 C 135.77 152.83 136.72 151.98 136.78 150.87 L 136.83 149.93 C 136.89 148.82 136.05 147.87 134.94 147.81 C 133.83 147.75 132.89 148.60 132.83 149.71 Z M 132.78 150.63 L 132.71 151.60 C 132.64 152.71 133.48 153.66 134.59 153.73 C 135.70 153.80 136.65 152.96 136.72 151.85 L 136.78 150.89 C 136.85 149.78 136.01 148.83 134.90 148.76 C 133.80 148.69 132.85 149.53 132.78 150.63 Z M 132.72 151.59 L 132.64 152.63 C 132.57 153.73 133.40 154.69 134.50 154.77 C 135.61 154.84 136.57 154.01 136.64 152.91 L 136.72 151.87 C 136.79 150.76 135.96 149.80 134.86 149.73 C 133.75 149.65 132.79 150.48 132.72 151.59 Z M 132.65 152.62 L 132.57 153.62 C 132.49 154.72 133.32 155.68 134.42 155.76 C 135.52 155.84 136.48 155.02 136.57 153.91 L 136.64 152.92 C 136.72 151.81 135.89 150.85 134.79 150.77 C 133.69 150.69 132.73 151.52 132.65 152.62 Z M 132.58 153.61 L 132.51 154.59 C 132.42 155.69 133.24 156.65 134.34 156.73 C 135.44 156.81 136.40 155.99 136.49 154.89 L 136.56 153.92 C 136.64 152.82 135.82 151.86 134.72 151.78 C 133.62 151.69 132.66 152.51 132.58 153.61 Z M 132.51 154.59 L 132.43 155.60 C 132.35 156.70 133.17 157.65 134.26 157.74 C 135.36 157.82 136.32 157.00 136.40 155.91 L 136.48 154.89 C 136.56 153.80 135.74 152.84 134.65 152.76 C 133.55 152.67 132.60 153.49 132.51 154.59 Z M 132.44 155.60 L 132.36 156.64 C 132.28 157.73 133.09 158.69 134.18 158.77 C 135.28 158.85 136.23 158.04 136.31 156.94 L 136.39 155.91 C 136.48 154.81 135.66 153.86 134.57 153.78 C 133.48 153.69 132.52 154.51 132.44 155.60 Z M 132.37 156.64 L 132.29 157.61 C 132.21 158.70 133.03 159.65 134.11 159.73 C 135.20 159.82 136.15 159.00 136.23 157.91 L 136.31 156.94 C 136.39 155.85 135.57 154.90 134.49 154.82 C 133.40 154.74 132.45 155.56 132.37 156.64 Z M 132.30 157.62 L 132.23 158.61 C 132.15 159.69 132.96 160.64 134.04 160.72 C 135.13 160.80 136.07 159.98 136.15 158.90 L 136.23 157.91 C 136.31 156.83 135.49 155.88 134.41 155.80 C 133.33 155.72 132.38 156.53 132.30 157.62 Z M 132.24 158.61 L 132.16 159.62 C 132.08 160.70 132.90 161.64 133.97 161.72 C 135.05 161.79 135.99 160.98 136.07 159.90 L 136.14 158.90 C 136.22 157.82 135.41 156.88 134.33 156.80 C 133.25 156.72 132.32 157.53 132.24 158.61 Z M 132.17 159.62 L 132.10 160.64 C 132.02 161.71 132.83 162.65 133.91 162.72 C 134.98 162.80 135.91 161.99 135.99 160.92 L 136.06 159.90 C 136.14 158.83 135.33 157.90 134.26 157.82 C 133.18 157.74 132.25 158.55 132.17 159.62 Z M 132.11 160.64 L 132.04 161.62 C 131.97 162.68 132.77 163.61 133.84 163.68 C 134.91 163.76 135.83 162.96 135.91 161.89 L 135.98 160.91 C 136.05 159.85 135.25 158.92 134.18 158.85 C 133.11 158.77 132.19 159.58 132.11 160.64 Z M 132.06 161.62 L 131.99 162.61 C 131.92 163.67 132.72 164.59 133.78 164.66 C 134.83 164.73 135.75 163.93 135.82 162.88 L 135.89 161.88 C 135.97 160.83 135.17 159.91 134.11 159.84 C 133.05 159.76 132.13 160.56 132.06 161.62 Z M 132.01 162.62 L 131.94 163.62 C 131.87 164.67 132.66 165.58 133.71 165.65 C 134.76 165.72 135.67 164.93 135.74 163.88 L 135.81 162.87 C 135.88 161.82 135.09 160.91 134.04 160.84 C 132.98 160.77 132.08 161.57 132.01 162.62 Z M 131.95 163.63 L 131.89 164.65 C 131.82 165.69 132.61 166.59 133.65 166.66 C 134.69 166.73 135.59 165.94 135.66 164.90 L 135.73 163.87 C 135.80 162.83 135.01 161.93 133.96 161.86 C 132.92 161.80 132.02 162.59 131.95 163.63 Z M 131.91 164.66 L 131.84 165.68 C 131.78 166.71 132.56 167.60 133.59 167.66 C 134.62 167.73 135.51 166.95 135.58 165.92 L 135.64 164.89 C 135.71 163.86 134.92 162.97 133.89 162.91 C 132.86 162.84 131.97 163.62 131.91 164.66 Z M 131.86 165.69 L 131.80 166.71 C 131.74 167.72 132.52 168.60 133.54 168.66 C 134.55 168.72 135.43 167.95 135.49 166.93 L 135.55 165.91 C 135.61 164.89 134.84 164.01 133.82 163.95 C 132.80 163.89 131.93 164.67 131.86 165.69 Z M 131.83 166.71 L 131.77 167.72 C 131.71 168.72 132.48 169.58 133.49 169.64 C 134.49 169.70 135.35 168.93 135.41 167.92 L 135.47 166.92 C 135.52 165.92 134.76 165.05 133.75 165.00 C 132.74 164.94 131.88 165.71 131.83 166.71 Z M 131.79 167.73 L 131.74 168.69 C 131.69 169.68 132.45 170.53 133.45 170.58 C 134.44 170.63 135.29 169.87 135.34 168.88 L 135.39 167.91 C 135.44 166.92 134.68 166.07 133.68 166.02 C 132.69 165.97 131.84 166.73 131.79 167.73 Z M 131.77 168.70 L 131.72 169.75 C 131.67 170.73 132.43 171.56 133.41 171.61 C 134.39 171.65 135.22 170.90 135.26 169.92 L 135.31 168.86 C 135.36 167.88 134.60 167.05 133.62 167.01 C 132.64 166.97 131.81 167.72 131.77 168.70 Z M 131.74 169.77 L 131.71 170.79 C 131.67 171.76 132.42 172.57 133.39 172.61 C 134.35 172.64 135.16 171.89 135.20 170.92 L 135.24 169.90 C 135.27 168.94 134.52 168.12 133.56 168.09 C 132.59 168.05 131.78 168.81 131.74 169.77 Z M 131.73 170.81 L 131.71 171.77 C 131.68 172.72 132.43 173.52 133.38 173.54 C 134.33 173.57 135.12 172.82 135.15 171.87 L 135.17 170.91 C 135.20 169.96 134.45 169.17 133.50 169.14 C 132.55 169.11 131.76 169.86 131.73 170.81 Z M 131.73 171.79 L 131.71 172.73 C 131.70 173.67 132.44 174.44 133.38 174.46 C 134.31 174.48 135.08 173.73 135.10 172.80 L 135.12 171.86 C 135.14 170.92 134.39 170.15 133.46 170.13 C 132.52 170.11 131.75 170.86 131.73 171.79 Z M 131.74 172.75 L 131.73 173.73 C 131.72 174.65 132.46 175.41 133.38 175.42 C 134.30 175.43 135.06 174.69 135.07 173.76 L 135.08 172.78 C 135.09 171.86 134.35 171.10 133.43 171.10 C 132.50 171.09 131.75 171.83 131.74 172.75 Z M 131.75 173.74 L 131.75 174.73 C 131.75 175.64 132.48 176.38 133.39 176.38 C 134.30 176.39 135.04 175.65 135.04 174.74 L 135.04 173.75 C 135.05 172.84 134.31 172.10 133.40 172.10 C 132.50 172.10 131.76 172.83 131.75 173.74 Z M 131.77 174.74 L 131.77 175.76 C 131.77 176.65 132.50 177.38 133.39 177.38 C 134.29 177.38 135.02 176.66 135.02 175.76 L 135.02 174.74 C 135.02 173.84 134.29 173.11 133.40 173.11 C 132.50 173.11 131.77 173.84 131.77 174.74 Z M 131.79 175.76 L 131.79 176.72 C 131.79 177.60 132.51 178.32 133.39 178.32 C 134.28 178.32 135.00 177.60 135.00 176.72 L 135.00 175.76 C 135.00 174.87 134.28 174.15 133.39 174.15 C 132.51 174.15 131.79 174.87 131.79 175.76 Z M 131.80 176.72 L 131.80 177.72 C 131.80 178.60 132.51 179.31 133.39 179.31 C 134.28 179.31 134.99 178.60 134.99 177.72 L 134.99 176.72 C 134.99 175.84 134.28 175.12 133.39 175.12 C 132.51 175.12 131.80 175.84 131.80 176.72 Z M 131.81 177.72 L 131.81 178.74 C 131.81 179.62 132.52 180.33 133.39 180.33 C 134.27 180.33 134.98 179.62 134.98 178.74 L 134.98 177.72 C 134.98 176.84 134.27 176.13 133.39 176.13 C 132.52 176.13 131.81 176.84 131.81 177.72 Z M 131.82 178.74 L 131.82 179.32 C 131.82 180.19 132.53 180.89 133.39 180.89 C 134.26 180.89 134.97 180.19 134.97 179.32 L 134.97 178.74 C 134.97 177.88 134.26 177.17 133.39 177.17 C 132.53 177.17 131.82 177.88 131.82 178.74 Z"
      fill="black"
      fill-rule="nonzero" /><path d="M 149.45 121.47 L 149.62 122.41 C 149.79 123.34 150.68 123.95 151.61 123.78 C 152.53 123.61 153.15 122.73 152.98 121.80 L 152.80 120.85 C 152.64 119.92 151.75 119.31 150.82 119.48 C 149.89 119.65 149.28 120.54 149.45 121.47 Z M 149.62 122.11 L 149.62 123.12 C 149.63 124.04 150.38 124.79 151.31 124.79 C 152.24 124.79 152.99 124.03 152.99 123.10 L 152.98 122.10 C 152.98 121.17 152.22 120.42 151.29 120.42 C 150.36 120.43 149.61 121.18 149.62 122.11 Z M 149.69 122.69 L 149.45 123.60 C 149.22 124.49 149.76 125.40 150.65 125.63 C 151.54 125.86 152.45 125.33 152.68 124.44 L 152.92 123.53 C 153.15 122.64 152.61 121.73 151.72 121.50 C 150.83 121.27 149.92 121.80 149.69 122.69 Z M 149.55 123.33 L 149.15 124.22 C 148.77 125.05 149.14 126.04 149.97 126.42 C 150.81 126.80 151.79 126.43 152.17 125.60 L 152.58 124.71 C 152.96 123.87 152.59 122.89 151.76 122.51 C 150.92 122.13 149.93 122.49 149.55 123.33 Z M 149.21 124.09 L 148.69 125.01 C 148.24 125.81 148.52 126.83 149.32 127.28 C 150.11 127.73 151.13 127.45 151.58 126.66 L 152.11 125.73 C 152.56 124.93 152.28 123.91 151.48 123.46 C 150.68 123.01 149.67 123.29 149.21 124.09 Z M 148.72 124.95 L 148.16 125.84 C 147.68 126.62 147.92 127.65 148.70 128.14 C 149.48 128.63 150.51 128.39 150.99 127.61 L 151.55 126.72 C 152.04 125.94 151.80 124.91 151.02 124.42 C 150.24 123.93 149.21 124.17 148.72 124.95 Z M 148.18 125.80 L 147.62 126.65 C 147.11 127.43 147.32 128.47 148.09 128.98 C 148.87 129.49 149.91 129.27 150.42 128.50 L 150.98 127.65 C 151.49 126.88 151.28 125.84 150.50 125.33 C 149.73 124.82 148.69 125.03 148.18 125.80 Z M 147.63 126.61 L 147.06 127.43 C 146.53 128.20 146.72 129.25 147.48 129.78 C 148.25 130.31 149.30 130.13 149.83 129.36 L 150.40 128.54 C 150.94 127.78 150.75 126.73 149.98 126.19 C 149.22 125.66 148.17 125.85 147.63 126.61 Z M 147.08 127.37 L 146.41 128.26 C 145.85 129.02 146.00 130.09 146.76 130.65 C 147.52 131.22 148.59 131.06 149.15 130.31 L 149.81 129.42 C 150.38 128.66 150.22 127.59 149.47 127.03 C 148.71 126.46 147.64 126.62 147.08 127.37 Z M 146.42 128.17 L 145.64 129.12 C 145.02 129.87 145.13 130.98 145.88 131.60 C 146.64 132.22 147.75 132.11 148.36 131.36 L 149.14 130.40 C 149.76 129.65 149.65 128.54 148.90 127.92 C 148.15 127.31 147.04 127.42 146.42 128.17 Z M 145.77 128.87 L 145.53 129.09 C 144.78 129.76 144.71 130.93 145.39 131.68 C 146.07 132.44 147.23 132.50 147.99 131.82 L 148.23 131.61 C 148.98 130.93 149.05 129.77 148.37 129.01 C 147.69 128.26 146.53 128.19 145.77 128.87 Z M 148.24 131.63 L 148.82 130.91 C 149.47 130.09 149.33 128.90 148.51 128.25 C 147.69 127.59 146.50 127.73 145.85 128.55 L 145.27 129.28 C 144.62 130.10 144.76 131.29 145.58 131.94 C 146.40 132.59 147.59 132.45 148.24 131.63 Z M 148.68 131.12 L 149.56 130.27 C 150.33 129.53 150.35 128.30 149.61 127.54 C 148.87 126.77 147.64 126.75 146.87 127.49 L 145.99 128.34 C 145.22 129.08 145.20 130.30 145.94 131.07 C 146.68 131.84 147.91 131.86 148.68 131.12 Z M 149.40 130.43 L 150.18 129.84 C 151.04 129.19 151.21 127.96 150.55 127.10 C 149.90 126.24 148.67 126.08 147.81 126.73 L 147.03 127.32 C 146.17 127.98 146.01 129.20 146.66 130.06 C 147.31 130.92 148.54 131.09 149.40 130.43 Z M 150.07 129.93 L 150.93 129.37 C 151.83 128.78 152.09 127.56 151.50 126.66 C 150.91 125.75 149.69 125.49 148.78 126.08 L 147.93 126.64 C 147.02 127.23 146.76 128.45 147.35 129.36 C 147.94 130.27 149.16 130.52 150.07 129.93 Z M 150.85 129.43 L 151.70 128.93 C 152.64 128.38 152.95 127.18 152.40 126.24 C 151.85 125.30 150.65 124.98 149.71 125.53 L 148.86 126.03 C 147.92 126.57 147.60 127.78 148.15 128.72 C 148.70 129.66 149.91 129.98 150.85 129.43 Z M 151.64 128.97 L 152.46 128.52 C 153.42 128.01 153.78 126.81 153.27 125.85 C 152.75 124.89 151.55 124.53 150.59 125.05 L 149.77 125.49 C 148.81 126.01 148.45 127.21 148.96 128.17 C 149.48 129.13 150.68 129.49 151.64 128.97 Z M 152.41 128.55 L 153.31 128.10 C 154.29 127.61 154.68 126.43 154.19 125.45 C 153.71 124.48 152.52 124.08 151.55 124.57 L 150.65 125.02 C 149.67 125.51 149.28 126.69 149.76 127.67 C 150.25 128.64 151.44 129.04 152.41 128.55 Z M 153.27 128.12 L 154.25 127.66 C 155.24 127.19 155.66 126.02 155.20 125.03 C 154.73 124.05 153.56 123.62 152.57 124.09 L 151.59 124.55 C 150.60 125.02 150.18 126.19 150.64 127.18 C 151.11 128.16 152.28 128.59 153.27 128.12 Z M 154.22 127.67 L 155.08 127.28 C 156.07 126.83 156.51 125.67 156.06 124.68 C 155.62 123.69 154.45 123.25 153.46 123.69 L 152.60 124.08 C 151.61 124.53 151.17 125.69 151.62 126.68 C 152.07 127.67 153.23 128.11 154.22 127.67 Z M 155.06 127.28 L 155.97 126.88 C 156.96 126.44 157.41 125.29 156.97 124.30 C 156.54 123.31 155.39 122.86 154.40 123.29 L 153.48 123.69 C 152.49 124.13 152.04 125.28 152.48 126.27 C 152.91 127.26 154.07 127.71 155.06 127.28 Z M 155.95 126.87 L 156.89 126.47 C 157.88 126.05 158.34 124.91 157.92 123.92 C 157.49 122.93 156.35 122.47 155.36 122.89 L 154.42 123.30 C 153.43 123.72 152.97 124.86 153.39 125.85 C 153.82 126.84 154.96 127.30 155.95 126.87 Z M 156.87 126.47 L 157.83 126.07 C 158.81 125.66 159.28 124.53 158.87 123.54 C 158.46 122.55 157.32 122.09 156.34 122.50 L 155.38 122.89 C 154.40 123.31 153.93 124.44 154.34 125.43 C 154.75 126.41 155.88 126.88 156.87 126.47 Z M 157.80 126.06 L 158.79 125.66 C 159.77 125.26 160.24 124.14 159.84 123.16 C 159.44 122.18 158.33 121.71 157.35 122.11 L 156.36 122.51 C 155.38 122.91 154.91 124.02 155.31 125.00 C 155.70 125.98 156.82 126.46 157.80 126.06 Z M 158.76 125.63 L 159.74 125.25 C 160.70 124.87 161.18 123.77 160.80 122.81 C 160.42 121.84 159.32 121.37 158.36 121.75 L 157.38 122.14 C 156.41 122.52 155.94 123.61 156.32 124.57 C 156.70 125.54 157.79 126.01 158.76 125.63 Z M 159.70 125.21 L 160.64 124.86 C 161.59 124.50 162.06 123.43 161.70 122.49 C 161.34 121.54 160.28 121.06 159.33 121.42 L 158.39 121.78 C 157.44 122.14 156.97 123.20 157.33 124.15 C 157.69 125.10 158.75 125.58 159.70 125.21 Z M 160.60 124.83 L 161.48 124.50 C 162.42 124.16 162.89 123.13 162.55 122.20 C 162.21 121.27 161.18 120.79 160.25 121.13 L 159.36 121.46 C 158.43 121.80 157.96 122.83 158.30 123.76 C 158.64 124.69 159.67 125.17 160.60 124.83 Z M 161.44 124.47 L 162.40 124.13 C 163.31 123.82 163.79 122.82 163.47 121.91 C 163.15 120.99 162.15 120.51 161.24 120.83 L 160.29 121.17 C 159.38 121.49 158.90 122.48 159.21 123.39 C 159.53 124.31 160.53 124.79 161.44 124.47 Z M 162.35 124.09 L 163.32 123.77 C 164.21 123.48 164.69 122.52 164.40 121.63 C 164.11 120.74 163.15 120.26 162.26 120.55 L 161.29 120.88 C 160.40 121.17 159.92 122.13 160.21 123.01 C 160.50 123.90 161.46 124.39 162.35 124.09 Z M 163.28 123.72 L 164.19 123.44 C 165.05 123.16 165.53 122.25 165.26 121.39 C 164.99 120.52 164.07 120.05 163.21 120.32 L 162.30 120.60 C 161.44 120.87 160.96 121.79 161.23 122.65 C 161.50 123.51 162.42 123.99 163.28 123.72 Z M 164.17 123.39 L 164.66 123.24 C 165.50 122.98 165.97 122.09 165.71 121.26 C 165.45 120.42 164.56 119.95 163.72 120.21 L 163.23 120.36 C 162.39 120.62 161.92 121.51 162.18 122.35 C 162.44 123.18 163.33 123.65 164.17 123.39 Z"
      fill="black"
      fill-rule="nonzero" /><path d="M 150.00 142.08 L 150.42 141.12 C 150.84 140.17 150.40 139.06 149.45 138.65 C 148.50 138.23 147.40 138.67 146.98 139.62 L 146.56 140.57 C 146.15 141.52 146.58 142.63 147.53 143.04 C 148.48 143.46 149.59 143.03 150.00 142.08 Z M 150.36 141.28 L 150.84 140.41 C 151.34 139.49 151.00 138.34 150.08 137.84 C 149.17 137.34 148.02 137.67 147.52 138.59 L 147.04 139.46 C 146.54 140.38 146.88 141.53 147.79 142.03 C 148.71 142.53 149.86 142.19 150.36 141.28 Z M 150.62 140.74 L 151.24 140.01 C 151.93 139.21 151.83 138.01 151.03 137.33 C 150.24 136.64 149.03 136.74 148.35 137.54 L 147.73 138.26 C 147.05 139.06 147.14 140.26 147.94 140.95 C 148.74 141.63 149.94 141.53 150.62 140.74 Z M 150.90 140.32 L 151.70 139.75 C 152.56 139.13 152.75 137.95 152.14 137.09 C 151.53 136.24 150.34 136.04 149.49 136.66 L 148.69 137.23 C 147.84 137.84 147.64 139.03 148.25 139.88 C 148.86 140.73 150.05 140.93 150.90 140.32 Z M 151.54 139.84 L 152.41 139.34 C 153.32 138.82 153.63 137.66 153.11 136.76 C 152.59 135.85 151.43 135.54 150.53 136.06 L 149.66 136.56 C 148.75 137.08 148.44 138.24 148.96 139.14 C 149.48 140.05 150.63 140.36 151.54 139.84 Z M 152.42 139.31 L 153.26 138.82 C 154.15 138.29 154.45 137.15 153.92 136.26 C 153.40 135.37 152.25 135.07 151.36 135.59 L 150.52 136.09 C 149.63 136.61 149.33 137.76 149.86 138.65 C 150.38 139.54 151.53 139.84 152.42 139.31 Z M 153.26 138.79 L 154.14 138.26 C 155.01 137.73 155.29 136.60 154.76 135.73 C 154.24 134.85 153.10 134.57 152.23 135.10 L 151.36 135.62 C 150.48 136.15 150.20 137.29 150.73 138.16 C 151.26 139.03 152.39 139.31 153.26 138.79 Z M 154.12 138.24 L 154.95 137.74 C 155.81 137.22 156.08 136.10 155.57 135.24 C 155.05 134.38 153.93 134.10 153.07 134.62 L 152.24 135.12 C 151.38 135.64 151.10 136.76 151.62 137.62 C 152.14 138.48 153.26 138.76 154.12 138.24 Z M 154.93 137.72 L 155.75 137.22 C 156.60 136.71 156.87 135.61 156.37 134.77 C 155.86 133.92 154.76 133.64 153.91 134.15 L 153.09 134.65 C 152.24 135.16 151.96 136.26 152.47 137.10 C 152.98 137.95 154.08 138.22 154.93 137.72 Z M 155.74 137.19 L 156.64 136.65 C 157.47 136.15 157.74 135.07 157.24 134.24 C 156.74 133.41 155.66 133.14 154.82 133.64 L 153.92 134.18 C 153.09 134.68 152.82 135.76 153.32 136.59 C 153.83 137.43 154.91 137.69 155.74 137.19 Z M 156.63 136.62 L 157.49 136.10 C 158.31 135.61 158.57 134.54 158.07 133.72 C 157.58 132.91 156.51 132.65 155.70 133.14 L 154.83 133.67 C 154.02 134.16 153.76 135.23 154.25 136.04 C 154.75 136.86 155.81 137.12 156.63 136.62 Z M 157.48 136.08 L 158.34 135.55 C 159.14 135.06 159.39 134.01 158.90 133.21 C 158.41 132.41 157.36 132.15 156.56 132.64 L 155.70 133.17 C 154.90 133.66 154.65 134.71 155.14 135.51 C 155.63 136.31 156.68 136.57 157.48 136.08 Z M 158.33 135.53 L 159.20 134.99 C 159.99 134.50 160.24 133.47 159.75 132.68 C 159.26 131.89 158.23 131.65 157.44 132.13 L 156.57 132.67 C 155.78 133.16 155.53 134.19 156.02 134.98 C 156.51 135.77 157.54 136.01 158.33 135.53 Z M 159.19 134.97 L 160.05 134.43 C 160.83 133.95 161.06 132.93 160.58 132.16 C 160.10 131.38 159.08 131.14 158.30 131.63 L 157.45 132.16 C 156.67 132.64 156.44 133.66 156.92 134.43 C 157.40 135.21 158.42 135.45 159.19 134.97 Z M 160.04 134.41 L 160.93 133.85 C 161.69 133.37 161.92 132.37 161.44 131.61 C 160.97 130.85 159.96 130.62 159.20 131.09 L 158.31 131.65 C 157.55 132.13 157.32 133.13 157.80 133.90 C 158.28 134.66 159.28 134.89 160.04 134.41 Z M 160.92 133.83 L 161.76 133.30 C 162.51 132.82 162.73 131.83 162.26 131.08 C 161.79 130.33 160.79 130.11 160.05 130.59 L 159.21 131.12 C 158.46 131.59 158.23 132.58 158.71 133.33 C 159.18 134.08 160.17 134.30 160.92 133.83 Z M 161.75 133.28 L 162.57 132.76 C 163.30 132.29 163.52 131.31 163.05 130.57 C 162.58 129.84 161.61 129.62 160.87 130.09 L 160.05 130.61 C 159.32 131.08 159.10 132.05 159.57 132.79 C 160.04 133.53 161.02 133.74 161.75 133.28 Z M 162.56 132.74 L 162.76 132.61 C 163.49 132.15 163.71 131.18 163.24 130.45 C 162.78 129.72 161.81 129.51 161.08 129.97 L 160.88 130.10 C 160.15 130.57 159.93 131.54 160.40 132.26 C 160.86 132.99 161.83 133.21 162.56 132.74 Z"
      fill="black"
      fill-rule="nonzero" /><path d="M 153.54 127.13 L 153.23 128.03 C 152.93 128.95 153.42 129.95 154.34 130.26 C 155.26 130.57 156.25 130.07 156.56 129.15 L 156.87 128.25 C 157.17 127.33 156.68 126.34 155.76 126.03 C 154.84 125.72 153.85 126.21 153.54 127.13 Z M 153.17 128.09 L 152.90 129.03 C 152.62 129.99 153.17 130.99 154.12 131.27 C 155.08 131.54 156.08 130.99 156.36 130.04 L 156.63 129.09 C 156.91 128.14 156.36 127.14 155.40 126.86 C 154.45 126.59 153.45 127.14 153.17 128.09 Z M 152.82 129.16 L 152.60 130.19 C 152.39 131.19 153.03 132.17 154.03 132.38 C 155.03 132.59 156.01 131.95 156.22 130.95 L 156.43 129.91 C 156.64 128.92 156.00 127.94 155.00 127.73 C 154.01 127.52 153.03 128.16 152.82 129.16 Z M 152.55 130.34 L 152.43 131.33 C 152.30 132.35 153.03 133.29 154.05 133.42 C 155.08 133.54 156.01 132.82 156.14 131.79 L 156.27 130.80 C 156.39 129.78 155.67 128.84 154.64 128.71 C 153.61 128.59 152.68 129.31 152.55 130.34 Z M 152.42 131.43 L 152.34 132.45 C 152.27 133.49 153.05 134.38 154.08 134.45 C 155.12 134.52 156.01 133.75 156.09 132.71 L 156.16 131.69 C 156.23 130.66 155.45 129.76 154.42 129.69 C 153.38 129.62 152.49 130.40 152.42 131.43 Z M 152.34 132.51 L 152.30 133.53 C 152.27 134.56 153.07 135.43 154.11 135.47 C 155.15 135.51 156.02 134.70 156.05 133.66 L 156.09 132.65 C 156.13 131.61 155.32 130.74 154.28 130.71 C 153.25 130.67 152.38 131.48 152.34 132.51 Z M 152.30 133.56 L 152.28 134.57 C 152.26 135.61 153.09 136.46 154.13 136.48 C 155.16 136.50 156.02 135.67 156.04 134.64 L 156.06 133.63 C 156.08 132.59 155.25 131.74 154.21 131.72 C 153.17 131.70 152.32 132.52 152.30 133.56 Z M 152.28 134.58 L 152.27 135.62 C 152.26 136.65 153.09 137.50 154.13 137.52 C 155.17 137.53 156.02 136.69 156.03 135.66 L 156.04 134.62 C 156.05 133.58 155.22 132.73 154.18 132.72 C 153.14 132.71 152.29 133.54 152.28 134.58 Z M 152.27 135.62 L 152.26 136.58 C 152.25 137.62 153.08 138.47 154.12 138.48 C 155.16 138.49 156.01 137.65 156.02 136.61 L 156.03 135.65 C 156.04 134.61 155.21 133.76 154.17 133.75 C 153.13 133.74 152.28 134.58 152.27 135.62 Z M 152.26 136.57 L 152.24 137.53 C 152.23 138.57 153.06 139.42 154.10 139.44 C 155.14 139.45 155.99 138.62 156.01 137.58 L 156.02 136.62 C 156.04 135.58 155.21 134.73 154.17 134.71 C 153.13 134.70 152.27 135.53 152.26 136.57 Z M 152.24 137.51 L 152.22 138.50 C 152.20 139.54 153.02 140.40 154.06 140.42 C 155.10 140.45 155.97 139.62 155.99 138.58 L 156.01 137.60 C 156.03 136.56 155.21 135.69 154.17 135.67 C 153.13 135.65 152.27 136.47 152.24 137.51 Z M 152.22 138.49 L 152.19 139.50 C 152.16 140.54 152.98 141.41 154.03 141.44 C 155.07 141.46 155.93 140.64 155.96 139.60 L 155.99 138.59 C 156.02 137.55 155.20 136.68 154.16 136.65 C 153.11 136.62 152.25 137.45 152.22 138.49 Z M 152.19 139.50 L 152.16 140.51 C 152.13 141.55 152.95 142.42 153.99 142.45 C 155.03 142.48 155.90 141.66 155.93 140.62 L 155.96 139.60 C 155.99 138.56 155.17 137.69 154.13 137.66 C 153.09 137.63 152.22 138.45 152.19 139.50 Z M 152.16 140.51 L 152.13 141.50 C 152.10 142.55 152.92 143.42 153.96 143.45 C 155.01 143.48 155.87 142.66 155.91 141.61 L 155.93 140.62 C 155.96 139.58 155.14 138.71 154.10 138.68 C 153.06 138.65 152.19 139.47 152.16 140.51 Z M 152.13 141.50 L 152.10 142.51 C 152.07 143.55 152.89 144.42 153.93 144.45 C 154.97 144.48 155.84 143.66 155.88 142.62 L 155.91 141.62 C 155.94 140.57 155.12 139.70 154.07 139.67 C 153.03 139.64 152.16 140.46 152.13 141.50 Z M 152.10 142.50 L 152.07 143.51 C 152.04 144.55 152.86 145.42 153.90 145.45 C 154.94 145.48 155.81 144.67 155.84 143.62 L 155.88 142.62 C 155.91 141.58 155.09 140.71 154.05 140.67 C 153.00 140.64 152.13 141.46 152.10 142.50 Z M 152.07 143.50 L 152.04 144.50 C 152.00 145.54 152.82 146.42 153.86 146.45 C 154.90 146.49 155.78 145.67 155.81 144.63 L 155.84 143.63 C 155.88 142.59 155.06 141.71 154.02 141.68 C 152.98 141.64 152.10 142.46 152.07 143.50 Z M 152.04 144.49 L 152.00 145.49 C 151.96 146.54 152.77 147.41 153.82 147.45 C 154.86 147.49 155.73 146.68 155.77 145.63 L 155.81 144.63 C 155.85 143.59 155.04 142.72 153.99 142.68 C 152.95 142.64 152.08 143.45 152.04 144.49 Z M 152.00 145.48 L 151.96 146.49 C 151.91 147.53 152.72 148.41 153.76 148.45 C 154.80 148.50 155.68 147.69 155.73 146.65 L 155.77 145.65 C 155.82 144.60 155.01 143.72 153.97 143.68 C 152.93 143.63 152.05 144.44 152.00 145.48 Z M 151.96 146.47 L 151.91 147.51 C 151.86 148.55 152.66 149.43 153.70 149.48 C 154.74 149.54 155.62 148.74 155.67 147.70 L 155.73 146.66 C 155.78 145.62 154.98 144.74 153.94 144.69 C 152.90 144.63 152.01 145.43 151.96 146.47 Z M 151.91 147.50 L 151.86 148.50 C 151.81 149.54 152.60 150.43 153.64 150.48 C 154.68 150.54 155.56 149.74 155.62 148.70 L 155.67 147.70 C 155.72 146.66 154.93 145.78 153.89 145.72 C 152.85 145.67 151.97 146.46 151.91 147.50 Z M 151.87 148.50 L 151.81 149.46 C 151.76 150.50 152.55 151.38 153.59 151.43 C 154.62 151.49 155.51 150.69 155.56 149.66 L 155.61 148.70 C 155.67 147.67 154.87 146.79 153.84 146.73 C 152.80 146.68 151.92 147.47 151.87 148.50 Z M 151.82 149.47 L 151.77 150.45 C 151.72 151.48 152.51 152.36 153.54 152.41 C 154.57 152.46 155.45 151.67 155.51 150.63 L 155.55 149.66 C 155.61 148.62 154.81 147.75 153.78 147.69 C 152.75 147.64 151.87 148.43 151.82 149.47 Z M 151.78 150.44 L 151.72 151.42 C 151.67 152.45 152.46 153.33 153.48 153.39 C 154.51 153.44 155.39 152.65 155.45 151.63 L 155.50 150.64 C 155.55 149.61 154.77 148.74 153.74 148.68 C 152.71 148.62 151.83 149.41 151.78 150.44 Z M 151.73 151.41 L 151.67 152.42 C 151.61 153.44 152.38 154.32 153.41 154.39 C 154.43 154.45 155.31 153.67 155.37 152.65 L 155.44 151.64 C 155.50 150.62 154.72 149.74 153.70 149.67 C 152.68 149.61 151.80 150.39 151.73 151.41 Z M 151.68 152.41 L 151.61 153.41 C 151.54 154.43 152.31 155.31 153.32 155.38 C 154.34 155.45 155.22 154.68 155.29 153.67 L 155.36 152.66 C 155.43 151.65 154.66 150.77 153.65 150.70 C 152.63 150.63 151.75 151.39 151.68 152.41 Z M 151.63 153.41 L 151.56 154.43 C 151.49 155.44 152.25 156.31 153.25 156.38 C 154.26 156.45 155.13 155.69 155.20 154.69 L 155.28 153.66 C 155.35 152.66 154.59 151.78 153.58 151.71 C 152.57 151.64 151.70 152.40 151.63 153.41 Z M 151.58 154.44 L 151.51 155.46 C 151.45 156.45 152.20 157.31 153.20 157.38 C 154.20 157.44 155.06 156.69 155.12 155.69 L 155.19 154.67 C 155.25 153.68 154.49 152.82 153.50 152.75 C 152.50 152.69 151.64 153.45 151.58 154.44 Z M 151.55 155.48 L 151.49 156.51 C 151.44 157.49 152.19 158.32 153.17 158.38 C 154.14 158.43 154.98 157.68 155.03 156.70 L 155.09 155.67 C 155.14 154.69 154.39 153.86 153.41 153.80 C 152.43 153.75 151.60 154.50 151.55 155.48 Z M 151.54 156.53 L 151.49 157.49 C 151.45 158.44 152.19 159.25 153.14 159.29 C 154.09 159.34 154.90 158.60 154.94 157.65 L 154.98 156.68 C 155.03 155.73 154.29 154.93 153.34 154.88 C 152.39 154.84 151.58 155.58 151.54 156.53 Z M 151.53 157.50 L 151.51 157.92 C 151.47 158.85 152.20 159.64 153.13 159.68 C 154.06 159.72 154.85 159.00 154.89 158.06 L 154.91 157.64 C 154.95 156.71 154.22 155.92 153.29 155.88 C 152.36 155.84 151.57 156.57 151.53 157.50 Z"
      fill="black"
      fill-rule="nonzero" /><path d="M 155.05 151.91 L 155.89 151.34 C 156.71 150.79 156.93 149.69 156.38 148.87 C 155.83 148.06 154.73 147.84 153.91 148.39 L 153.07 148.95 C 152.25 149.50 152.03 150.61 152.58 151.42 C 153.13 152.24 154.23 152.46 155.05 151.91 Z M 155.93 151.35 L 156.75 150.79 C 157.57 150.22 157.78 149.10 157.22 148.27 C 156.65 147.45 155.53 147.24 154.70 147.81 L 153.88 148.37 C 153.05 148.94 152.85 150.06 153.41 150.89 C 153.98 151.71 155.10 151.92 155.93 151.35 Z M 156.80 150.78 L 157.58 150.22 C 158.40 149.63 158.58 148.49 157.99 147.67 C 157.40 146.85 156.26 146.66 155.44 147.25 L 154.66 147.81 C 153.84 148.40 153.65 149.55 154.24 150.37 C 154.83 151.19 155.98 151.37 156.80 150.78 Z M 157.62 150.19 L 158.36 149.61 C 159.16 149.00 159.32 147.85 158.70 147.05 C 158.09 146.25 156.94 146.10 156.14 146.71 L 155.39 147.29 C 154.59 147.90 154.44 149.05 155.05 149.85 C 155.67 150.65 156.82 150.80 157.62 150.19 Z M 158.39 149.57 L 159.18 148.93 C 159.96 148.30 160.08 147.16 159.46 146.38 C 158.83 145.61 157.69 145.48 156.91 146.11 L 156.11 146.76 C 155.33 147.38 155.21 148.52 155.84 149.30 C 156.47 150.08 157.61 150.20 158.39 149.57 Z M 159.19 148.90 L 159.98 148.24 C 160.74 147.61 160.85 146.48 160.22 145.72 C 159.59 144.96 158.46 144.86 157.70 145.49 L 156.91 146.15 C 156.15 146.78 156.04 147.90 156.67 148.66 C 157.30 149.42 158.43 149.53 159.19 148.90 Z M 159.97 148.21 L 160.74 147.56 C 161.49 146.94 161.59 145.83 160.96 145.09 C 160.34 144.35 159.24 144.25 158.49 144.87 L 157.72 145.52 C 156.97 146.14 156.87 147.24 157.49 147.99 C 158.11 148.73 159.22 148.83 159.97 148.21 Z M 160.71 147.54 L 161.51 146.88 C 162.24 146.27 162.34 145.19 161.74 144.46 C 161.13 143.73 160.05 143.63 159.32 144.23 L 158.52 144.89 C 157.79 145.50 157.69 146.58 158.29 147.31 C 158.90 148.04 159.98 148.14 160.71 147.54 Z M 161.47 146.86 L 162.24 146.24 C 162.96 145.66 163.07 144.60 162.48 143.87 C 161.90 143.15 160.84 143.04 160.12 143.63 L 159.35 144.25 C 158.63 144.83 158.52 145.89 159.11 146.62 C 159.69 147.34 160.75 147.45 161.47 146.86 Z M 162.19 146.23 L 163.05 145.56 C 163.77 145.00 163.90 143.97 163.34 143.25 C 162.78 142.53 161.75 142.40 161.03 142.96 L 160.16 143.64 C 159.45 144.19 159.32 145.23 159.88 145.95 C 160.44 146.66 161.47 146.79 162.19 146.23 Z M 163.00 145.55 L 163.78 144.97 C 164.50 144.44 164.64 143.43 164.11 142.72 C 163.58 142.01 162.57 141.86 161.86 142.39 L 161.08 142.97 C 160.36 143.50 160.22 144.51 160.75 145.23 C 161.28 145.94 162.29 146.08 163.00 145.55 Z M 163.75 144.96 L 164.37 144.50 C 165.07 143.99 165.23 143.00 164.72 142.30 C 164.20 141.60 163.22 141.44 162.51 141.95 L 161.89 142.41 C 161.19 142.92 161.03 143.91 161.55 144.61 C 162.06 145.31 163.04 145.47 163.75 144.96 Z"
      fill="black"
      fill-rule="nonzero" /><path d="M 145.08 150.19 L 145.00 151.20 C 144.93 152.17 145.66 153.03 146.64 153.11 C 147.61 153.18 148.47 152.45 148.55 151.48 L 148.62 150.47 C 148.70 149.49 147.97 148.63 146.99 148.56 C 146.02 148.48 145.16 149.21 145.08 150.19 Z M 145.00 151.21 L 144.93 152.20 C 144.86 153.18 145.59 154.04 146.57 154.11 C 147.56 154.18 148.41 153.44 148.48 152.46 L 148.55 151.46 C 148.62 150.48 147.88 149.63 146.90 149.56 C 145.92 149.49 145.07 150.23 145.00 151.21 Z M 144.93 152.22 L 144.87 153.18 C 144.81 154.16 145.56 155.01 146.54 155.06 C 147.52 155.12 148.36 154.38 148.42 153.40 L 148.48 152.44 C 148.54 151.46 147.79 150.61 146.81 150.56 C 145.83 150.50 144.99 151.24 144.93 152.22 Z M 144.88 153.18 L 144.82 154.15 C 144.76 155.12 145.51 155.96 146.48 156.02 C 147.46 156.08 148.29 155.33 148.35 154.36 L 148.41 153.39 C 148.47 152.42 147.73 151.58 146.75 151.52 C 145.78 151.47 144.94 152.21 144.88 153.18 Z M 144.84 154.11 L 144.75 155.16 C 144.67 156.13 145.39 156.98 146.36 157.06 C 147.32 157.14 148.17 156.42 148.25 155.45 L 148.33 154.40 C 148.41 153.43 147.70 152.59 146.73 152.51 C 145.77 152.43 144.92 153.15 144.84 154.11 Z M 144.78 155.12 L 144.67 156.09 C 144.57 157.04 145.25 157.89 146.21 158.00 C 147.16 158.10 148.01 157.42 148.12 156.46 L 148.22 155.50 C 148.33 154.55 147.64 153.69 146.69 153.59 C 145.74 153.48 144.88 154.17 144.78 155.12 Z M 144.69 156.08 L 144.57 157.09 C 144.46 158.03 145.14 158.88 146.08 158.99 C 147.02 159.10 147.87 158.43 147.98 157.49 L 148.10 156.47 C 148.21 155.53 147.53 154.68 146.59 154.57 C 145.65 154.46 144.80 155.14 144.69 156.08 Z M 144.59 157.11 L 144.49 158.12 C 144.39 159.05 145.06 159.88 145.99 159.98 C 146.92 160.08 147.75 159.41 147.85 158.48 L 147.96 157.47 C 148.06 156.54 147.38 155.71 146.46 155.61 C 145.53 155.51 144.69 156.18 144.59 157.11 Z M 144.51 158.16 L 144.43 159.21 C 144.35 160.12 145.04 160.93 145.95 161.00 C 146.87 161.07 147.67 160.39 147.74 159.47 L 147.83 158.43 C 147.90 157.51 147.22 156.71 146.30 156.64 C 145.39 156.57 144.58 157.25 144.51 158.16 Z M 144.46 159.25 L 144.41 160.24 C 144.36 161.13 145.04 161.90 145.94 161.95 C 146.84 162.00 147.60 161.31 147.65 160.42 L 147.71 159.43 C 147.76 158.53 147.07 157.77 146.17 157.72 C 145.28 157.67 144.51 158.36 144.46 159.25 Z M 144.44 160.26 L 144.41 161.06 C 144.37 161.94 145.05 162.68 145.93 162.72 C 146.81 162.76 147.55 162.08 147.59 161.20 L 147.62 160.39 C 147.66 159.52 146.98 158.77 146.10 158.74 C 145.22 158.70 144.48 159.38 144.44 160.26 Z"
      fill="black"
      fill-rule="nonzero" /><path d="M 140.40 170.18 L 141.20 169.73 C 142.12 169.22 142.45 168.06 141.94 167.14 C 141.43 166.22 140.27 165.89 139.35 166.40 L 138.55 166.85 C 137.63 167.36 137.29 168.52 137.81 169.44 C 138.32 170.36 139.48 170.69 140.40 170.18 Z M 141.24 169.76 L 142.07 169.29 C 143.01 168.76 143.33 167.57 142.80 166.63 C 142.27 165.70 141.08 165.37 140.15 165.90 L 139.32 166.37 C 138.38 166.90 138.05 168.09 138.58 169.03 C 139.11 169.96 140.30 170.29 141.24 169.76 Z M 142.12 169.31 L 143.01 168.78 C 143.96 168.22 144.27 167.00 143.71 166.06 C 143.16 165.11 141.94 164.80 140.99 165.35 L 140.10 165.88 C 139.15 166.44 138.84 167.66 139.40 168.60 C 139.96 169.55 141.18 169.86 142.12 169.31 Z M 143.07 168.79 L 143.95 168.24 C 144.90 167.66 145.19 166.41 144.60 165.46 C 144.02 164.51 142.77 164.21 141.82 164.80 L 140.94 165.35 C 139.99 165.93 139.69 167.18 140.28 168.13 C 140.87 169.08 142.11 169.37 143.07 168.79 Z M 143.98 168.24 L 144.74 167.75 C 145.69 167.15 145.96 165.89 145.36 164.94 C 144.75 163.99 143.49 163.71 142.55 164.32 L 141.79 164.81 C 140.84 165.41 140.56 166.67 141.17 167.62 C 141.77 168.57 143.03 168.84 143.98 168.24 Z M 144.75 167.75 L 145.56 167.22 C 146.50 166.61 146.77 165.35 146.16 164.40 C 145.55 163.46 144.29 163.19 143.34 163.80 L 142.53 164.33 C 141.59 164.94 141.32 166.20 141.93 167.15 C 142.54 168.09 143.81 168.36 144.75 167.75 Z M 145.56 167.22 L 146.42 166.66 C 147.36 166.05 147.63 164.79 147.02 163.85 C 146.41 162.90 145.14 162.63 144.20 163.25 L 143.34 163.80 C 142.40 164.42 142.13 165.68 142.74 166.62 C 143.36 167.57 144.62 167.83 145.56 167.22 Z M 146.41 166.67 L 147.32 166.09 C 148.26 165.48 148.54 164.22 147.93 163.27 C 147.32 162.32 146.05 162.05 145.11 162.66 L 144.21 163.24 C 143.26 163.85 142.99 165.11 143.60 166.06 C 144.21 167.01 145.47 167.28 146.41 166.67 Z M 147.30 166.10 L 148.22 165.51 C 149.17 164.91 149.46 163.65 148.85 162.70 C 148.25 161.75 146.99 161.47 146.04 162.07 L 145.12 162.65 C 144.17 163.25 143.89 164.51 144.49 165.46 C 145.09 166.42 146.35 166.70 147.30 166.10 Z M 148.20 165.52 L 149.07 164.98 C 150.03 164.39 150.32 163.13 149.73 162.18 C 149.13 161.22 147.88 160.93 146.93 161.52 L 146.06 162.06 C 145.10 162.66 144.81 163.91 145.40 164.86 C 146.00 165.82 147.25 166.11 148.20 165.52 Z M 149.06 164.98 L 149.94 164.45 C 150.89 163.86 151.19 162.61 150.61 161.66 C 150.03 160.70 148.78 160.40 147.82 160.98 L 146.94 161.52 C 145.99 162.10 145.69 163.35 146.27 164.31 C 146.85 165.26 148.10 165.57 149.06 164.98 Z M 149.92 164.45 L 150.80 163.92 C 151.76 163.34 152.07 162.10 151.49 161.15 C 150.91 160.19 149.67 159.88 148.72 160.45 L 147.84 160.98 C 146.88 161.56 146.57 162.80 147.15 163.76 C 147.72 164.71 148.96 165.02 149.92 164.45 Z M 150.79 163.92 L 151.65 163.41 C 152.60 162.84 152.92 161.61 152.35 160.65 C 151.78 159.69 150.55 159.38 149.59 159.94 L 148.73 160.45 C 147.77 161.02 147.46 162.26 148.03 163.21 C 148.59 164.17 149.83 164.49 150.79 163.92 Z M 151.63 163.41 L 152.46 162.92 C 153.42 162.36 153.74 161.13 153.18 160.18 C 152.62 159.22 151.39 158.90 150.43 159.46 L 149.60 159.94 C 148.65 160.50 148.33 161.73 148.89 162.69 C 149.45 163.65 150.68 163.97 151.63 163.41 Z M 152.45 162.92 L 153.34 162.40 C 154.29 161.85 154.62 160.63 154.07 159.68 C 153.52 158.72 152.30 158.40 151.34 158.95 L 150.45 159.46 C 149.50 160.01 149.17 161.23 149.72 162.19 C 150.27 163.14 151.49 163.47 152.45 162.92 Z M 153.31 162.38 L 154.25 161.85 C 155.19 161.32 155.52 160.12 154.99 159.17 C 154.45 158.23 153.25 157.90 152.31 158.43 L 151.37 158.97 C 150.43 159.50 150.10 160.70 150.63 161.64 C 151.17 162.59 152.37 162.92 153.31 162.38 Z M 154.21 161.83 L 155.09 161.34 C 156.02 160.83 156.35 159.66 155.84 158.73 C 155.32 157.79 154.15 157.46 153.22 157.97 L 152.35 158.46 C 151.41 158.97 151.08 160.14 151.59 161.08 C 152.11 162.01 153.28 162.34 154.21 161.83 Z M 155.05 161.32 L 155.88 160.88 C 156.80 160.38 157.14 159.24 156.64 158.32 C 156.15 157.40 155.00 157.05 154.08 157.55 L 153.26 157.99 C 152.34 158.49 151.99 159.64 152.49 160.55 C 152.98 161.47 154.13 161.82 155.05 161.32 Z M 155.84 160.86 L 156.65 160.43 C 157.55 159.96 157.91 158.84 157.43 157.93 C 156.96 157.03 155.84 156.68 154.94 157.15 L 154.12 157.57 C 153.22 158.04 152.87 159.16 153.34 160.07 C 153.81 160.98 154.93 161.33 155.84 160.86 Z M 156.61 160.41 L 157.54 159.94 C 158.43 159.49 158.79 158.40 158.34 157.51 C 157.89 156.61 156.80 156.25 155.91 156.70 L 154.98 157.17 C 154.08 157.62 153.72 158.71 154.17 159.60 C 154.62 160.50 155.71 160.86 156.61 160.41 Z M 157.49 159.92 L 158.40 159.48 C 159.29 159.06 159.66 158.00 159.23 157.11 C 158.81 156.23 157.75 155.86 156.87 156.29 L 155.95 156.72 C 155.07 157.15 154.70 158.21 155.12 159.09 C 155.55 159.97 156.61 160.35 157.49 159.92 Z M 158.36 159.46 L 159.25 159.05 C 160.12 158.65 160.50 157.62 160.10 156.75 C 159.70 155.88 158.67 155.50 157.80 155.90 L 156.91 156.31 C 156.04 156.71 155.66 157.74 156.06 158.61 C 156.46 159.48 157.49 159.86 158.36 159.46 Z M 159.20 159.03 L 160.10 158.64 C 160.96 158.26 161.35 157.26 160.98 156.41 C 160.60 155.55 159.60 155.16 158.75 155.53 L 157.85 155.92 C 156.99 156.30 156.60 157.29 156.97 158.15 C 157.34 159.01 158.34 159.40 159.20 159.03 Z M 160.05 158.61 L 161.00 158.23 C 161.84 157.88 162.25 156.91 161.90 156.06 C 161.55 155.22 160.58 154.81 159.74 155.16 L 158.79 155.55 C 157.95 155.90 157.54 156.87 157.89 157.71 C 158.24 158.56 159.21 158.96 160.05 158.61 Z M 160.96 158.20 L 161.88 157.84 C 162.71 157.51 163.12 156.57 162.79 155.74 C 162.47 154.91 161.52 154.50 160.69 154.83 L 159.77 155.19 C 158.94 155.52 158.53 156.46 158.86 157.29 C 159.19 158.12 160.13 158.53 160.96 158.20 Z M 161.86 157.81 L 162.69 157.49 C 163.50 157.18 163.91 156.26 163.60 155.44 C 163.28 154.63 162.37 154.22 161.55 154.53 L 160.72 154.85 C 159.90 155.17 159.49 156.09 159.81 156.90 C 160.12 157.72 161.04 158.12 161.86 157.81 Z"
      fill="black"
      fill-rule="nonzero" /><path d="M 171.38 130.06 L 171.92 129.40 C 172.55 128.62 172.44 127.49 171.67 126.86 C 170.90 126.23 169.76 126.35 169.13 127.12 L 168.59 127.79 C 167.96 128.56 168.08 129.69 168.85 130.32 C 169.62 130.95 170.75 130.83 171.38 130.06 Z M 171.81 129.49 L 172.49 128.79 C 173.17 128.08 173.15 126.96 172.44 126.28 C 171.73 125.59 170.60 125.61 169.92 126.32 L 169.25 127.02 C 168.57 127.73 168.59 128.86 169.29 129.54 C 170.00 130.22 171.13 130.20 171.81 129.49 Z M 172.32 128.92 L 173.21 128.19 C 173.96 127.57 174.07 126.46 173.45 125.71 C 172.83 124.96 171.72 124.85 170.97 125.47 L 170.09 126.20 C 169.34 126.82 169.23 127.92 169.84 128.67 C 170.46 129.43 171.57 129.53 172.32 128.92 Z M 173.09 128.27 L 173.88 127.72 C 174.67 127.17 174.87 126.08 174.32 125.28 C 173.77 124.49 172.68 124.29 171.88 124.84 L 171.09 125.39 C 170.30 125.94 170.10 127.03 170.65 127.83 C 171.20 128.62 172.29 128.82 173.09 128.27 Z M 173.82 127.77 L 174.70 127.21 C 175.52 126.69 175.76 125.61 175.25 124.79 C 174.73 123.97 173.64 123.72 172.82 124.24 L 171.94 124.80 C 171.12 125.31 170.88 126.40 171.40 127.22 C 171.91 128.04 173.00 128.28 173.82 127.77 Z M 174.66 127.24 L 175.56 126.70 C 176.40 126.21 176.67 125.13 176.17 124.29 C 175.68 123.45 174.59 123.18 173.76 123.68 L 172.86 124.21 C 172.02 124.71 171.75 125.79 172.25 126.63 C 172.74 127.46 173.83 127.74 174.66 127.24 Z M 175.54 126.72 L 176.39 126.24 C 177.23 125.75 177.53 124.67 177.04 123.83 C 176.56 122.98 175.48 122.69 174.63 123.17 L 173.78 123.66 C 172.94 124.14 172.64 125.22 173.13 126.07 C 173.61 126.91 174.69 127.21 175.54 126.72 Z M 176.37 126.26 L 177.39 125.70 C 178.25 125.22 178.56 124.14 178.09 123.28 C 177.62 122.42 176.53 122.11 175.67 122.58 L 174.65 123.15 C 173.79 123.62 173.48 124.70 173.95 125.56 C 174.43 126.42 175.51 126.73 176.37 126.26 Z M 177.33 125.76 L 178.22 125.32 C 179.11 124.88 179.47 123.80 179.03 122.91 C 178.59 122.01 177.51 121.65 176.62 122.09 L 175.73 122.53 C 174.84 122.97 174.48 124.05 174.92 124.94 C 175.36 125.83 176.44 126.20 177.33 125.76 Z M 178.07 125.41 L 178.85 125.11 C 179.79 124.75 180.26 123.69 179.90 122.75 C 179.54 121.81 178.49 121.34 177.55 121.70 L 176.76 122.00 C 175.82 122.36 175.35 123.41 175.71 124.36 C 176.07 125.30 177.13 125.77 178.07 125.41 Z M 178.52 125.24 L 179.53 125.07 C 180.55 124.89 181.23 123.92 181.06 122.91 C 180.88 121.89 179.91 121.21 178.90 121.39 L 177.88 121.56 C 176.86 121.74 176.18 122.71 176.36 123.72 C 176.53 124.74 177.50 125.42 178.52 125.24 Z M 178.57 125.04 L 179.45 125.35 C 180.45 125.71 181.55 125.18 181.90 124.18 C 182.26 123.18 181.73 122.08 180.73 121.72 L 179.86 121.41 C 178.86 121.06 177.75 121.58 177.40 122.59 C 177.04 123.59 177.57 124.69 178.57 125.04 Z M 178.46 124.65 L 178.92 125.31 C 179.53 126.21 180.76 126.45 181.65 125.83 C 182.55 125.22 182.79 123.99 182.17 123.09 L 181.72 122.43 C 181.10 121.53 179.88 121.29 178.98 121.91 C 178.08 122.52 177.85 123.75 178.46 124.65 Z M 178.64 124.82 L 178.95 125.76 C 179.28 126.81 180.41 127.39 181.46 127.05 C 182.51 126.71 183.09 125.58 182.75 124.53 L 182.45 123.59 C 182.11 122.54 180.98 121.96 179.93 122.30 C 178.88 122.64 178.30 123.77 178.64 124.82 Z M 178.86 125.52 L 179.07 126.66 C 179.27 127.76 180.33 128.48 181.43 128.28 C 182.53 128.08 183.25 127.02 183.05 125.92 L 182.84 124.78 C 182.63 123.68 181.58 122.95 180.48 123.16 C 179.38 123.36 178.65 124.42 178.86 125.52 Z M 179.03 126.55 L 179.17 127.59 C 179.31 128.70 180.33 129.50 181.45 129.35 C 182.57 129.21 183.36 128.19 183.22 127.07 L 183.09 126.03 C 182.94 124.91 181.92 124.12 180.80 124.26 C 179.68 124.41 178.89 125.43 179.03 126.55 Z M 179.15 127.52 L 179.25 128.56 C 179.36 129.68 180.36 130.51 181.49 130.40 C 182.61 130.29 183.44 129.29 183.33 128.16 L 183.23 127.13 C 183.13 126.01 182.12 125.18 181.00 125.29 C 179.87 125.39 179.04 126.40 179.15 127.52 Z M 179.24 128.51 L 179.31 129.51 C 179.40 130.64 180.38 131.49 181.52 131.41 C 182.65 131.32 183.50 130.34 183.42 129.20 L 183.34 128.21 C 183.26 127.07 182.27 126.22 181.14 126.31 C 180.00 126.39 179.15 127.38 179.24 128.51 Z M 179.30 129.48 L 179.36 130.46 C 179.43 131.60 180.41 132.47 181.55 132.40 C 182.69 132.33 183.56 131.35 183.49 130.21 L 183.43 129.23 C 183.36 128.09 182.38 127.22 181.24 127.29 C 180.10 127.36 179.23 128.34 179.30 129.48 Z M 179.35 130.44 L 179.41 131.48 C 179.46 132.63 180.44 133.51 181.58 133.45 C 182.72 133.39 183.60 132.42 183.55 131.27 L 183.49 130.23 C 183.44 129.09 182.46 128.21 181.32 128.26 C 180.18 128.32 179.30 129.29 179.35 130.44 Z M 179.40 131.47 L 179.44 132.41 C 179.49 133.56 180.46 134.45 181.60 134.40 C 182.75 134.35 183.64 133.38 183.59 132.24 L 183.55 131.29 C 183.50 130.15 182.54 129.26 181.39 129.30 C 180.24 129.35 179.35 130.32 179.40 131.47 Z M 179.44 132.40 L 179.47 133.36 C 179.52 134.51 180.49 135.40 181.63 135.36 C 182.78 135.31 183.68 134.35 183.63 133.20 L 183.59 132.24 C 183.55 131.10 182.58 130.20 181.44 130.25 C 180.29 130.29 179.39 131.26 179.44 132.40 Z M 179.47 133.35 L 179.51 134.36 C 179.55 135.51 180.51 136.41 181.66 136.36 C 182.81 136.32 183.71 135.36 183.67 134.21 L 183.64 133.21 C 183.59 132.06 182.63 131.16 181.48 131.20 C 180.33 131.24 179.43 132.20 179.47 133.35 Z M 179.50 134.34 L 179.53 135.35 C 179.56 136.50 180.52 137.41 181.68 137.38 C 182.83 137.35 183.74 136.38 183.70 135.23 L 183.68 134.22 C 183.64 133.07 182.68 132.16 181.53 132.20 C 180.38 132.23 179.47 133.19 179.50 134.34 Z M 179.53 135.32 L 179.54 136.33 C 179.56 137.49 180.51 138.41 181.66 138.39 C 182.82 138.37 183.74 137.42 183.72 136.27 L 183.71 135.26 C 183.69 134.11 182.74 133.18 181.59 133.20 C 180.43 133.22 179.51 134.17 179.53 135.32 Z M 179.54 136.31 L 179.55 137.31 C 179.55 138.46 180.49 139.39 181.65 139.39 C 182.80 139.38 183.73 138.44 183.73 137.29 L 183.72 136.29 C 183.72 135.14 182.78 134.21 181.62 134.21 C 180.47 134.22 179.54 135.16 179.54 136.31 Z M 179.55 137.30 L 179.55 138.26 C 179.55 139.42 180.48 140.35 181.64 140.35 C 182.79 140.35 183.73 139.41 183.73 138.26 L 183.73 137.30 C 183.73 136.14 182.79 135.21 181.64 135.21 C 180.48 135.21 179.55 136.14 179.55 137.30 Z M 179.55 138.26 L 179.55 139.18 C 179.55 140.33 180.48 141.27 181.64 141.27 C 182.79 141.27 183.73 140.33 183.73 139.18 L 183.73 138.26 C 183.73 137.10 182.79 136.17 181.64 136.17 C 180.48 136.17 179.55 137.10 179.55 138.26 Z M 179.55 139.18 L 179.55 140.20 C 179.55 141.35 180.48 142.29 181.64 142.29 C 182.79 142.29 183.73 141.35 183.73 140.20 L 183.73 139.18 C 183.73 138.02 182.79 137.09 181.64 137.09 C 180.48 137.09 179.55 138.02 179.55 139.18 Z M 179.55 140.20 L 179.55 141.26 C 179.55 142.41 180.48 143.35 181.64 143.35 C 182.79 143.35 183.73 142.41 183.73 141.26 L 183.73 140.20 C 183.73 139.04 182.79 138.11 181.64 138.11 C 180.48 138.11 179.55 139.04 179.55 140.20 Z M 179.55 141.25 L 179.54 142.22 C 179.54 143.38 180.47 144.32 181.62 144.32 C 182.78 144.33 183.72 143.39 183.73 142.24 L 183.73 141.26 C 183.73 140.11 182.80 139.17 181.65 139.16 C 180.49 139.16 179.55 140.09 179.55 141.25 Z M 179.54 142.20 L 179.53 143.22 C 179.51 144.38 180.43 145.33 181.58 145.35 C 182.74 145.37 183.69 144.45 183.71 143.29 L 183.72 142.27 C 183.74 141.11 182.82 140.16 181.67 140.14 C 180.51 140.12 179.56 141.04 179.54 142.20 Z M 179.53 143.18 L 179.49 144.21 C 179.44 145.36 180.34 146.33 181.50 146.38 C 182.65 146.42 183.62 145.52 183.67 144.37 L 183.71 143.34 C 183.75 142.18 182.85 141.21 181.70 141.17 C 180.54 141.12 179.57 142.02 179.53 143.18 Z M 179.49 144.13 L 179.41 145.20 C 179.33 146.36 180.19 147.36 181.34 147.44 C 182.50 147.53 183.50 146.66 183.58 145.51 L 183.66 144.44 C 183.75 143.29 182.88 142.29 181.73 142.20 C 180.58 142.12 179.58 142.98 179.49 144.13 Z M 179.43 145.08 L 179.29 146.15 C 179.13 147.29 179.93 148.34 181.07 148.50 C 182.22 148.65 183.27 147.85 183.42 146.71 L 183.57 145.64 C 183.72 144.50 182.92 143.44 181.78 143.29 C 180.64 143.14 179.58 143.94 179.43 145.08 Z M 179.33 145.95 L 179.10 146.89 C 178.84 148.01 179.54 149.13 180.66 149.40 C 181.78 149.66 182.90 148.96 183.16 147.85 L 183.38 146.91 C 183.64 145.79 182.95 144.66 181.83 144.40 C 180.71 144.14 179.59 144.83 179.33 145.95 Z M 179.21 146.59 L 178.86 147.44 C 178.43 148.51 178.94 149.72 180.00 150.15 C 181.07 150.58 182.28 150.07 182.71 149.01 L 183.06 148.15 C 183.49 147.09 182.98 145.88 181.91 145.44 C 180.85 145.01 179.64 145.52 179.21 146.59 Z M 179.19 146.91 L 178.50 147.76 C 177.77 148.63 177.90 149.94 178.78 150.66 C 179.66 151.39 180.96 151.26 181.68 150.38 L 182.38 149.54 C 183.10 148.66 182.98 147.36 182.10 146.63 C 181.22 145.91 179.92 146.03 179.19 146.91 Z M 179.68 147.07 L 178.91 147.23 C 177.81 147.45 177.10 148.53 177.32 149.63 C 177.55 150.74 178.63 151.45 179.73 151.22 L 180.50 151.07 C 181.60 150.84 182.31 149.76 182.09 148.66 C 181.86 147.55 180.78 146.84 179.68 147.07 Z M 180.57 147.68 L 179.88 147.13 C 179.03 146.44 177.78 146.57 177.09 147.43 C 176.40 148.28 176.54 149.53 177.39 150.22 L 178.08 150.77 C 178.93 151.46 180.18 151.33 180.87 150.47 C 181.56 149.62 181.42 148.37 180.57 147.68 Z M 180.22 147.61 L 179.60 146.68 C 179.01 145.81 177.82 145.58 176.95 146.17 C 176.08 146.76 175.85 147.94 176.43 148.82 L 177.06 149.74 C 177.64 150.61 178.83 150.85 179.70 150.26 C 180.58 149.67 180.81 148.48 180.22 147.61 Z M 179.61 146.82 L 179.09 145.94 C 178.58 145.06 177.45 144.76 176.57 145.28 C 175.69 145.79 175.40 146.92 175.91 147.80 L 176.43 148.68 C 176.94 149.56 178.07 149.85 178.95 149.34 C 179.82 148.83 180.12 147.70 179.61 146.82 Z M 179.05 145.98 L 178.56 145.12 C 178.07 144.26 176.98 143.96 176.12 144.45 C 175.26 144.94 174.96 146.03 175.45 146.89 L 175.94 147.75 C 176.43 148.61 177.53 148.91 178.39 148.42 C 179.24 147.93 179.54 146.84 179.05 145.98 Z M 178.51 145.13 L 178.02 144.27 C 177.53 143.44 176.46 143.16 175.63 143.64 C 174.80 144.13 174.52 145.20 175.00 146.03 L 175.50 146.88 C 175.99 147.72 177.05 148.00 177.89 147.51 C 178.72 147.03 179.00 145.96 178.51 145.13 Z M 177.95 144.24 L 177.42 143.40 C 176.92 142.60 175.87 142.36 175.07 142.86 C 174.28 143.36 174.04 144.41 174.53 145.21 L 175.06 146.05 C 175.56 146.85 176.62 147.09 177.41 146.59 C 178.21 146.09 178.45 145.04 177.95 144.24 Z M 177.35 143.35 L 176.77 142.53 C 176.24 141.77 175.20 141.59 174.45 142.12 C 173.69 142.64 173.51 143.69 174.04 144.44 L 174.61 145.26 C 175.14 146.02 176.18 146.20 176.94 145.67 C 177.69 145.14 177.88 144.10 177.35 143.35 Z M 176.69 142.47 L 176.08 141.69 C 175.52 140.98 174.49 140.86 173.78 141.42 C 173.07 141.98 172.95 143.00 173.51 143.71 L 174.12 144.49 C 174.68 145.20 175.71 145.33 176.42 144.77 C 177.13 144.21 177.25 143.18 176.69 142.47 Z M 176.02 141.67 L 175.37 140.90 C 174.80 140.22 173.79 140.14 173.11 140.71 C 172.43 141.28 172.35 142.29 172.92 142.96 L 173.56 143.73 C 174.13 144.41 175.14 144.50 175.82 143.93 C 176.50 143.36 176.59 142.35 176.02 141.67 Z M 175.34 140.91 L 175.15 140.68 C 174.58 140.02 173.59 139.94 172.92 140.51 C 172.26 141.08 172.18 142.08 172.75 142.74 L 172.94 142.96 C 173.51 143.62 174.51 143.70 175.17 143.13 C 175.83 142.57 175.91 141.57 175.34 140.91 Z"
      fill="black"
      fill-rule="nonzero" /><path d="M 169.18 127.09 L 169.06 128.06 C 168.94 129.03 169.63 129.91 170.60 130.02 C 171.57 130.14 172.45 129.45 172.56 128.49 L 172.68 127.52 C 172.80 126.55 172.11 125.67 171.14 125.56 C 170.18 125.44 169.30 126.13 169.18 127.09 Z M 168.94 128.09 L 168.84 129.10 C 168.74 130.13 169.50 131.05 170.54 131.15 C 171.57 131.25 172.50 130.49 172.59 129.46 L 172.69 128.45 C 172.79 127.42 172.03 126.49 170.99 126.40 C 169.96 126.30 169.04 127.06 168.94 128.09 Z M 168.75 129.17 L 168.70 130.18 C 168.64 131.27 169.48 132.19 170.56 132.25 C 171.65 132.31 172.58 131.47 172.63 130.38 L 172.69 129.38 C 172.74 128.29 171.91 127.36 170.82 127.31 C 169.73 127.25 168.81 128.09 168.75 129.17 Z M 168.67 130.25 L 168.65 131.26 C 168.63 132.36 169.51 133.27 170.61 133.29 C 171.72 133.31 172.63 132.43 172.65 131.33 L 172.66 130.32 C 172.68 129.21 171.81 128.30 170.70 128.28 C 169.60 128.26 168.69 129.14 168.67 130.25 Z M 168.64 131.29 L 168.64 132.29 C 168.63 133.40 169.53 134.30 170.64 134.30 C 171.75 134.30 172.65 133.41 172.65 132.30 L 172.66 131.30 C 172.66 130.19 171.76 129.29 170.65 129.28 C 169.54 129.28 168.64 130.18 168.64 131.29 Z M 168.63 132.29 L 168.63 133.28 C 168.63 134.39 169.53 135.29 170.65 135.29 C 171.76 135.29 172.66 134.39 172.66 133.28 L 172.66 132.29 C 172.66 131.18 171.76 130.28 170.65 130.28 C 169.53 130.28 168.63 131.18 168.63 132.29 Z M 168.62 133.28 L 168.62 134.27 C 168.62 135.39 169.53 136.29 170.65 136.29 C 171.76 136.29 172.67 135.39 172.67 134.27 L 172.67 133.28 C 172.67 132.16 171.76 131.26 170.65 131.26 C 169.53 131.26 168.62 132.16 168.62 133.28 Z M 168.62 134.27 L 168.62 135.24 C 168.62 136.36 169.53 137.27 170.64 137.27 C 171.76 137.27 172.67 136.36 172.67 135.24 L 172.67 134.27 C 172.67 133.15 171.76 132.25 170.65 132.25 C 169.53 132.25 168.62 133.15 168.62 134.27 Z M 168.62 135.23 L 168.61 136.19 C 168.61 137.31 169.51 138.22 170.63 138.23 C 171.75 138.23 172.67 137.33 172.67 136.21 L 172.67 135.25 C 172.68 134.13 171.77 133.22 170.65 133.21 C 169.53 133.21 168.62 134.11 168.62 135.23 Z M 168.61 136.17 L 168.60 137.21 C 168.58 138.33 169.48 139.25 170.60 139.26 C 171.72 139.28 172.64 138.38 172.66 137.26 L 172.67 136.22 C 172.69 135.10 171.79 134.18 170.67 134.17 C 169.55 134.15 168.62 135.05 168.61 136.17 Z M 168.59 137.18 L 168.57 138.20 C 168.54 139.32 169.42 140.26 170.55 140.29 C 171.67 140.32 172.60 139.43 172.63 138.31 L 172.66 137.29 C 172.69 136.16 171.80 135.23 170.68 135.20 C 169.56 135.17 168.62 136.06 168.59 137.18 Z M 168.57 138.18 L 168.53 139.13 C 168.49 140.26 169.37 141.20 170.49 141.24 C 171.61 141.28 172.56 140.41 172.60 139.28 L 172.63 138.33 C 172.68 137.21 171.80 136.26 170.68 136.22 C 169.55 136.18 168.61 137.06 168.57 138.18 Z M 168.53 139.12 L 168.49 140.13 C 168.44 141.25 169.32 142.20 170.44 142.25 C 171.56 142.29 172.51 141.42 172.56 140.29 L 172.60 139.29 C 172.65 138.17 171.77 137.22 170.65 137.17 C 169.52 137.13 168.58 138.00 168.53 139.12 Z M 168.49 140.13 L 168.45 141.18 C 168.40 142.30 169.28 143.25 170.40 143.29 C 171.53 143.34 172.47 142.46 172.52 141.34 L 172.56 140.29 C 172.60 139.17 171.73 138.22 170.60 138.17 C 169.48 138.13 168.53 139.00 168.49 140.13 Z M 168.44 141.19 L 168.41 142.19 C 168.37 143.31 169.25 144.25 170.38 144.29 C 171.50 144.33 172.45 143.45 172.49 142.32 L 172.52 141.33 C 172.56 140.20 171.68 139.26 170.55 139.22 C 169.43 139.18 168.48 140.06 168.44 141.19 Z M 168.41 142.20 L 168.38 143.16 C 168.35 144.29 169.24 145.22 170.36 145.26 C 171.49 145.29 172.43 144.40 172.46 143.28 L 172.49 142.31 C 172.52 141.19 171.63 140.25 170.51 140.22 C 169.38 140.18 168.44 141.07 168.41 142.20 Z M 168.38 143.17 L 168.36 144.16 C 168.33 145.29 169.22 146.22 170.34 146.25 C 171.47 146.28 172.40 145.39 172.43 144.27 L 172.46 143.27 C 172.49 142.15 171.60 141.21 170.47 141.18 C 169.35 141.15 168.41 142.04 168.38 143.17 Z M 168.36 144.16 L 168.33 145.18 C 168.30 146.31 169.19 147.25 170.31 147.28 C 171.44 147.31 172.38 146.42 172.41 145.29 L 172.43 144.27 C 172.46 143.14 171.57 142.20 170.45 142.17 C 169.32 142.14 168.39 143.03 168.36 144.16 Z M 168.33 145.18 L 168.30 146.22 C 168.27 147.35 169.15 148.29 170.28 148.32 C 171.41 148.35 172.34 147.46 172.38 146.34 L 172.41 145.30 C 172.44 144.17 171.55 143.23 170.43 143.20 C 169.30 143.17 168.36 144.05 168.33 145.18 Z M 168.30 146.21 L 168.27 147.16 C 168.23 148.28 169.12 149.23 170.24 149.26 C 171.37 149.30 172.31 148.41 172.35 147.29 L 172.38 146.34 C 172.41 145.22 171.53 144.28 170.40 144.24 C 169.28 144.21 168.34 145.09 168.30 146.21 Z M 168.27 147.15 L 168.24 148.12 C 168.20 149.25 169.08 150.19 170.20 150.23 C 171.33 150.27 172.27 149.39 172.31 148.27 L 172.34 147.30 C 172.38 146.17 171.50 145.23 170.38 145.19 C 169.25 145.15 168.31 146.03 168.27 147.15 Z M 168.24 148.12 L 168.20 149.12 C 168.16 150.24 169.03 151.19 170.16 151.23 C 171.28 151.27 172.23 150.39 172.27 149.27 L 172.31 148.27 C 172.35 147.15 171.47 146.20 170.35 146.16 C 169.23 146.12 168.28 146.99 168.24 148.12 Z M 168.20 149.11 L 168.16 150.14 C 168.12 151.26 168.99 152.21 170.11 152.26 C 171.24 152.30 172.18 151.43 172.23 150.30 L 172.27 149.28 C 172.31 148.15 171.44 147.21 170.32 147.16 C 169.19 147.12 168.25 147.99 168.20 149.11 Z M 168.16 150.14 L 168.12 151.20 C 168.07 152.32 168.94 153.27 170.06 153.31 C 171.18 153.36 172.13 152.49 172.18 151.37 L 172.23 150.31 C 172.27 149.19 171.40 148.24 170.28 148.19 C 169.16 148.14 168.21 149.01 168.16 150.14 Z M 168.12 151.19 L 168.08 152.13 C 168.03 153.25 168.90 154.20 170.02 154.25 C 171.14 154.30 172.09 153.43 172.14 152.31 L 172.18 151.37 C 172.23 150.25 171.36 149.30 170.24 149.25 C 169.12 149.20 168.17 150.07 168.12 151.19 Z M 168.08 152.13 L 168.04 153.09 C 167.99 154.21 168.86 155.16 169.97 155.21 C 171.09 155.26 172.04 154.39 172.09 153.27 L 172.13 152.31 C 172.18 151.19 171.32 150.24 170.20 150.19 C 169.08 150.14 168.13 151.01 168.08 152.13 Z M 168.04 153.09 L 168.00 154.07 C 167.95 155.19 168.81 156.14 169.93 156.19 C 171.05 156.24 172.00 155.37 172.05 154.25 L 172.09 153.27 C 172.14 152.15 171.27 151.20 170.15 151.16 C 169.04 151.11 168.09 151.97 168.04 153.09 Z M 168.00 154.08 L 167.96 155.09 C 167.91 156.20 168.78 157.15 169.89 157.19 C 171.01 157.24 171.95 156.37 172.00 155.26 L 172.04 154.25 C 172.09 153.13 171.22 152.19 170.11 152.14 C 168.99 152.09 168.05 152.96 168.00 154.08 Z M 167.96 155.09 L 167.92 156.13 C 167.87 157.24 168.74 158.18 169.85 158.23 C 170.97 158.27 171.91 157.41 171.95 156.29 L 172.00 155.25 C 172.04 154.14 171.17 153.20 170.06 153.15 C 168.95 153.11 168.01 153.98 167.96 155.09 Z M 167.92 156.13 L 167.88 157.20 C 167.84 158.31 168.71 159.25 169.82 159.29 C 170.93 159.33 171.87 158.46 171.91 157.35 L 171.95 156.29 C 171.99 155.17 171.12 154.24 170.01 154.19 C 168.90 154.15 167.96 155.02 167.92 156.13 Z M 167.89 157.21 L 167.85 158.18 C 167.81 159.29 168.68 160.22 169.79 160.26 C 170.90 160.30 171.83 159.43 171.87 158.32 L 171.91 157.34 C 171.94 156.23 171.08 155.30 169.97 155.27 C 168.85 155.23 167.92 156.10 167.89 157.21 Z M 167.86 158.18 L 167.83 159.17 C 167.79 160.28 168.66 161.20 169.77 161.24 C 170.87 161.27 171.80 160.40 171.83 159.30 L 171.87 158.31 C 171.90 157.21 171.03 156.28 169.93 156.25 C 168.82 156.21 167.90 157.08 167.86 158.18 Z M 167.84 159.17 L 167.81 160.17 C 167.77 161.28 168.64 162.20 169.74 162.23 C 170.84 162.26 171.76 161.39 171.80 160.29 L 171.83 159.29 C 171.86 158.19 170.99 157.27 169.89 157.24 C 168.79 157.21 167.87 158.07 167.84 159.17 Z M 167.81 160.18 L 167.79 161.19 C 167.75 162.28 168.62 163.20 169.72 163.23 C 170.81 163.26 171.73 162.40 171.76 161.30 L 171.79 160.29 C 171.82 159.19 170.96 158.28 169.86 158.25 C 168.76 158.22 167.85 159.08 167.81 160.18 Z M 167.79 161.19 L 167.77 162.20 C 167.74 163.29 168.60 164.21 169.69 164.24 C 170.78 164.27 171.69 163.40 171.72 162.31 L 171.75 161.30 C 171.78 160.20 170.92 159.29 169.83 159.26 C 168.73 159.23 167.82 160.10 167.79 161.19 Z M 167.77 162.20 L 167.75 163.22 C 167.72 164.30 168.57 165.21 169.66 165.24 C 170.75 165.27 171.66 164.41 171.69 163.32 L 171.72 162.31 C 171.75 161.22 170.89 160.31 169.80 160.28 C 168.71 160.25 167.80 161.11 167.77 162.20 Z M 167.75 163.21 L 167.73 164.23 C 167.70 165.31 168.55 166.21 169.64 166.24 C 170.72 166.27 171.62 165.42 171.65 164.33 L 171.68 163.32 C 171.71 162.24 170.86 161.33 169.77 161.31 C 168.69 161.28 167.78 162.13 167.75 163.21 Z M 167.73 164.23 L 167.71 165.25 C 167.68 166.33 168.53 167.23 169.61 167.26 C 170.69 167.29 171.59 166.44 171.62 165.36 L 171.64 164.34 C 171.67 163.26 170.82 162.36 169.74 162.33 C 168.66 162.30 167.76 163.15 167.73 164.23 Z M 167.72 165.25 L 167.69 166.26 C 167.66 167.34 168.50 168.23 169.58 168.26 C 170.65 168.29 171.55 167.45 171.58 166.37 L 171.61 165.36 C 171.64 164.28 170.79 163.39 169.72 163.36 C 168.64 163.33 167.75 164.17 167.72 165.25 Z M 167.70 166.26 L 167.67 167.26 C 167.64 168.33 168.48 169.23 169.55 169.26 C 170.62 169.29 171.51 168.45 171.54 167.38 L 171.57 166.37 C 171.60 165.30 170.76 164.41 169.69 164.38 C 168.62 164.35 167.73 165.19 167.70 166.26 Z M 167.68 167.26 L 167.65 168.26 C 167.62 169.32 168.45 170.21 169.52 170.24 C 170.58 170.28 171.47 169.44 171.50 168.37 L 171.53 167.38 C 171.56 166.31 170.72 165.43 169.66 165.39 C 168.60 165.36 167.71 166.20 167.68 167.26 Z M 167.66 168.26 L 167.63 169.25 C 167.59 170.31 168.43 171.19 169.49 171.22 C 170.55 171.25 171.43 170.42 171.46 169.36 L 171.49 168.37 C 171.52 167.31 170.69 166.43 169.63 166.40 C 168.57 166.37 167.69 167.20 167.66 168.26 Z M 167.64 169.25 L 167.61 170.23 C 167.57 171.28 168.40 172.16 169.46 172.19 C 170.51 172.22 171.39 171.40 171.42 170.34 L 171.45 169.36 C 171.48 168.31 170.66 167.43 169.60 167.40 C 168.55 167.36 167.67 168.19 167.64 169.25 Z M 167.61 170.23 L 167.58 171.24 C 167.55 172.29 168.38 173.17 169.43 173.20 C 170.48 173.23 171.35 172.40 171.38 171.36 L 171.41 170.34 C 171.45 169.29 170.62 168.42 169.57 168.38 C 168.52 168.35 167.65 169.18 167.61 170.23 Z M 167.59 171.24 L 167.56 172.28 C 167.53 173.32 168.35 174.20 169.39 174.23 C 170.44 174.26 171.31 173.44 171.35 172.39 L 171.38 171.35 C 171.41 170.31 170.59 169.44 169.54 169.40 C 168.50 169.37 167.62 170.19 167.59 171.24 Z M 167.56 172.28 L 167.53 173.30 C 167.50 174.34 168.32 175.21 169.37 175.24 C 170.41 175.27 171.28 174.45 171.31 173.41 L 171.34 172.39 C 171.37 171.35 170.55 170.48 169.51 170.45 C 168.47 170.41 167.59 171.23 167.56 172.28 Z M 167.54 173.30 L 167.51 174.31 C 167.48 175.35 168.30 176.21 169.34 176.24 C 170.38 176.27 171.25 175.45 171.28 174.41 L 171.30 173.41 C 171.33 172.37 170.51 171.50 169.47 171.47 C 168.43 171.44 167.57 172.26 167.54 173.30 Z M 167.52 174.31 L 167.49 175.30 C 167.47 176.33 168.28 177.20 169.32 177.22 C 170.36 177.25 171.22 176.43 171.25 175.39 L 171.27 174.41 C 171.30 173.37 170.48 172.51 169.44 172.48 C 168.41 172.46 167.54 173.28 167.52 174.31 Z M 167.50 175.30 L 167.48 176.27 C 167.45 177.30 168.27 178.15 169.31 178.18 C 170.34 178.20 171.20 177.38 171.22 176.35 L 171.24 175.39 C 171.26 174.35 170.44 173.50 169.41 173.47 C 168.38 173.45 167.52 174.27 167.50 175.30 Z M 167.48 176.27 L 167.47 177.28 C 167.45 178.31 168.27 179.16 169.30 179.17 C 170.33 179.19 171.18 178.37 171.20 177.34 L 171.21 176.34 C 171.23 175.31 170.41 174.46 169.38 174.44 C 168.35 174.42 167.50 175.24 167.48 176.27 Z M 167.47 177.29 L 167.46 178.36 C 167.45 179.38 168.27 180.22 169.29 180.24 C 170.32 180.25 171.16 179.43 171.18 178.40 L 171.19 177.33 C 171.20 176.31 170.38 175.46 169.35 175.45 C 168.33 175.44 167.48 176.26 167.47 177.29 Z M 167.47 178.37 L 167.46 179.39 C 167.45 180.42 168.27 181.25 169.30 181.26 C 170.32 181.27 171.15 180.44 171.16 179.42 L 171.17 178.39 C 171.18 177.37 170.35 176.54 169.33 176.53 C 168.31 176.52 167.47 177.34 167.47 178.37 Z M 167.47 179.40 L 167.46 180.39 C 167.46 181.41 168.28 182.24 169.30 182.24 C 170.32 182.24 171.15 181.42 171.15 180.40 L 171.15 179.41 C 171.16 178.40 170.34 177.57 169.32 177.56 C 168.30 177.56 167.47 178.38 167.47 179.40 Z M 167.47 180.39 L 167.47 181.34 C 167.47 182.35 168.29 183.18 169.30 183.18 C 170.32 183.18 171.14 182.36 171.14 181.34 L 171.14 180.40 C 171.14 179.38 170.32 178.56 169.31 178.56 C 168.29 178.56 167.47 179.38 167.47 180.39 Z M 167.48 181.34 L 167.48 182.28 C 167.47 183.29 168.29 184.11 169.30 184.11 C 170.31 184.11 171.13 183.29 171.13 182.28 L 171.13 181.34 C 171.13 180.33 170.32 179.51 169.30 179.51 C 168.29 179.51 167.48 180.33 167.48 181.34 Z M 167.49 182.29 L 167.49 183.32 C 167.49 184.32 168.30 185.14 169.31 185.13 C 170.31 185.13 171.13 184.32 171.13 183.31 L 171.12 182.28 C 171.12 181.28 170.31 180.46 169.30 180.46 C 168.30 180.47 167.48 181.28 167.49 182.29 Z M 167.50 183.33 L 167.51 184.33 C 167.52 185.32 168.33 186.12 169.33 186.12 C 170.33 186.11 171.13 185.29 171.12 184.29 L 171.11 183.30 C 171.10 182.30 170.29 181.50 169.29 181.51 C 168.29 181.52 167.49 182.33 167.50 183.33 Z M 167.52 184.35 L 167.54 185.33 C 167.57 186.32 168.39 187.10 169.38 187.08 C 170.37 187.06 171.15 186.24 171.13 185.25 L 171.11 184.27 C 171.09 183.28 170.27 182.49 169.27 182.52 C 168.28 182.54 167.50 183.36 167.52 184.35 Z M 167.56 185.36 L 167.60 186.34 C 167.64 187.33 168.47 188.09 169.45 188.05 C 170.44 188.01 171.20 187.18 171.16 186.20 L 171.12 185.21 C 171.08 184.23 170.25 183.47 169.26 183.51 C 168.28 183.55 167.52 184.38 167.56 185.36 Z M 167.61 186.38 L 167.67 187.36 C 167.73 188.34 168.58 189.08 169.55 189.02 C 170.53 188.95 171.28 188.11 171.21 187.13 L 171.15 186.16 C 171.09 185.18 170.24 184.43 169.26 184.50 C 168.29 184.56 167.54 185.40 167.61 186.38 Z M 167.67 187.39 L 167.75 188.38 C 167.83 189.36 168.69 190.08 169.67 190.00 C 170.65 189.92 171.38 189.06 171.30 188.08 L 171.21 187.10 C 171.13 186.12 170.27 185.39 169.29 185.47 C 168.31 185.55 167.59 186.41 167.67 187.39 Z M 167.74 188.40 L 167.84 189.40 C 167.93 190.38 168.81 191.10 169.79 191.01 C 170.77 190.91 171.49 190.04 171.39 189.06 L 171.30 188.06 C 171.21 187.08 170.33 186.36 169.35 186.45 C 168.37 186.55 167.65 187.42 167.74 188.40 Z M 167.84 189.41 L 167.94 190.42 C 168.04 191.41 168.92 192.12 169.90 192.02 C 170.89 191.92 171.60 191.04 171.50 190.06 L 171.40 189.05 C 171.30 188.06 170.42 187.35 169.43 187.45 C 168.45 187.55 167.74 188.43 167.84 189.41 Z M 167.94 190.43 L 168.00 191.05 C 168.11 192.04 168.99 192.75 169.98 192.65 C 170.96 192.54 171.67 191.66 171.57 190.68 L 171.50 190.05 C 171.40 189.07 170.52 188.35 169.53 188.46 C 168.55 188.56 167.83 189.45 167.94 190.43 Z"
      fill="black"
      fill-rule="nonzero" /></svg>