<svg xmlns="http://www.w3.org/2000/svg" width="300" height="300" viewBox="0 0 300 300">
<path d="M 138.36 134.65 L 138.75 135.47 C 139.16 136.32 140.18 136.68 141.03 136.27 C 141.88 135.86 142.24 134.84 141.83 133.99 L 141.44 133.18 C 141.03 132.33 140.01 131.97 139.16 132.38 C 138.31 132.79 137.96 133.81 138.36 134.65 Z M 138.67 135.39 L 139.07 136.39 C 139.43 137.29 140.46 137.72 141.36 137.36 C 142.25 137.00 142.69 135.97 142.33 135.08 L 141.92 134.07 C 141.56 133.17 140.53 132.74 139.64 133.10 C 138.74 133.47 138.30 134.49 138.67 135.39 Z M 139.02 136.31 L 139.33 137.21 C 139.65 138.14 140.65 138.64 141.58 138.32 C 142.51 138.00 143.00 136.99 142.69 136.07 L 142.38 135.16 C 142.06 134.23 141.05 133.74 140.12 134.05 C 139.20 134.37 138.70 135.38 139.02 136.31 Z M 139.32 137.17 L 139.63 138.16 C 139.92 139.09 140.92 139.61 141.85 139.32 C 142.78 139.03 143.30 138.03 143.01 137.10 L 142.70 136.11 C 142.40 135.18 141.41 134.66 140.48 134.95 C 139.54 135.24 139.03 136.24 139.32 137.17 Z M 139.63 138.14 L 139.94 139.14 C 140.22 140.07 141.20 140.60 142.13 140.32 C 143.06 140.04 143.59 139.06 143.31 138.13 L 143.00 137.12 C 142.73 136.19 141.74 135.67 140.81 135.95 C 139.88 136.22 139.35 137.21 139.63 138.14 Z M 139.96 139.13 L 140.25 140.12 C 140.52 141.03 141.49 141.56 142.40 141.29 C 143.32 141.02 143.85 140.05 143.58 139.13 L 143.28 138.15 C 143.01 137.23 142.05 136.70 141.13 136.97 C 140.21 137.25 139.69 138.21 139.96 139.13 Z M 140.29 140.12 L 140.57 141.03 C 140.84 141.92 141.79 142.43 142.68 142.16 C 143.58 141.89 144.08 140.94 143.81 140.04 L 143.54 139.13 C 143.26 138.24 142.32 137.73 141.42 138.00 C 140.52 138.27 140.02 139.22 140.29 140.12 Z M 140.61 141.05 L 140.93 142.03 C 141.22 142.90 142.16 143.37 143.03 143.08 C 143.90 142.80 144.37 141.86 144.09 140.99 L 143.77 140.02 C 143.48 139.15 142.54 138.67 141.67 138.96 C 140.80 139.24 140.33 140.18 140.61 141.05 Z M 140.98 142.06 L 141.32 142.99 C 141.62 143.83 142.56 144.26 143.40 143.96 C 144.24 143.65 144.68 142.72 144.37 141.88 L 144.03 140.95 C 143.73 140.11 142.80 139.68 141.96 139.98 C 141.11 140.29 140.68 141.22 140.98 142.06 Z M 141.37 143.03 L 141.75 143.96 C 142.08 144.78 143.01 145.17 143.82 144.84 C 144.64 144.51 145.03 143.58 144.70 142.76 L 144.32 141.83 C 143.99 141.02 143.06 140.63 142.25 140.96 C 141.43 141.29 141.04 142.22 141.37 143.03 Z M 141.78 144.00 L 142.18 144.90 C 142.53 145.69 143.46 146.05 144.26 145.70 C 145.05 145.34 145.41 144.42 145.06 143.62 L 144.66 142.73 C 144.31 141.93 143.38 141.57 142.59 141.93 C 141.79 142.28 141.43 143.21 141.78 144.00 Z M 142.20 144.90 L 142.26 145.04 C 142.61 145.83 143.54 146.17 144.33 145.82 C 145.11 145.46 145.46 144.54 145.10 143.75 L 145.04 143.61 C 144.69 142.83 143.76 142.48 142.98 142.84 C 142.19 143.19 141.84 144.12 142.20 144.90 Z"
      fill="black"
      fill-rule="nonzero" /><path d="M 144.83 135.50 L 145.67 134.95 C 146.48 134.43 146.71 133.35 146.19 132.55 C 145.67 131.74 144.59 131.51 143.79 132.04 L 142.94 132.59 C 142.13 133.11 141.90 134.18 142.42 134.99 C 142.95 135.79 144.02 136.02 144.83 135.50 Z M 145.55 135.06 L 146.43 134.60 C 147.29 134.14 147.62 133.07 147.17 132.21 C 146.71 131.35 145.64 131.01 144.78 131.47 L 143.91 131.93 C 143.04 132.38 142.71 133.45 143.16 134.32 C 143.62 135.18 144.69 135.51 145.55 135.06 Z M 146.18 134.70 L 147.11 134.38 C 148.03 134.06 148.52 133.06 148.20 132.14 C 147.88 131.21 146.88 130.72 145.95 131.04 L 145.02 131.36 C 144.10 131.68 143.61 132.69 143.93 133.61 C 144.25 134.53 145.26 135.02 146.18 134.70 Z M 146.96 134.40 L 147.93 134.15 C 148.86 133.92 149.42 132.97 149.19 132.04 C 148.95 131.11 148.00 130.55 147.07 130.78 L 146.11 131.03 C 145.17 131.26 144.61 132.21 144.85 133.14 C 145.08 134.07 146.03 134.63 146.96 134.40 Z M 147.89 134.14 L 148.84 133.92 C 149.77 133.70 150.34 132.78 150.13 131.86 C 149.91 130.93 148.99 130.36 148.06 130.57 L 147.11 130.79 C 146.19 131.01 145.61 131.93 145.83 132.86 C 146.04 133.78 146.97 134.36 147.89 134.14 Z M 148.83 133.91 L 149.84 133.68 C 150.76 133.47 151.33 132.56 151.12 131.64 C 150.91 130.72 150.00 130.15 149.08 130.36 L 148.08 130.58 C 147.16 130.79 146.58 131.71 146.79 132.62 C 147.00 133.54 147.91 134.12 148.83 133.91 Z M 149.83 133.67 L 150.79 133.45 C 151.70 133.24 152.27 132.34 152.07 131.43 C 151.86 130.51 150.96 129.94 150.04 130.15 L 149.09 130.37 C 148.18 130.57 147.60 131.48 147.81 132.39 C 148.02 133.30 148.92 133.87 149.83 133.67 Z M 150.78 133.44 L 151.78 133.22 C 152.68 133.02 153.25 132.12 153.05 131.21 C 152.85 130.30 151.95 129.73 151.04 129.94 L 150.05 130.16 C 149.14 130.36 148.57 131.26 148.78 132.17 C 148.98 133.07 149.88 133.64 150.78 133.44 Z M 151.77 133.21 L 152.76 133.00 C 153.67 132.80 154.24 131.91 154.04 131.01 C 153.85 130.10 152.96 129.53 152.05 129.73 L 151.06 129.94 C 150.15 130.14 149.58 131.03 149.78 131.93 C 149.97 132.84 150.86 133.41 151.77 133.21 Z M 152.74 132.99 L 153.73 132.79 C 154.63 132.60 155.21 131.72 155.02 130.82 C 154.84 129.92 153.96 129.34 153.06 129.53 L 152.07 129.73 C 151.17 129.92 150.59 130.80 150.78 131.70 C 150.96 132.60 151.84 133.18 152.74 132.99 Z M 153.70 132.79 L 154.69 132.60 C 155.59 132.43 156.18 131.56 156.01 130.66 C 155.84 129.76 154.98 129.17 154.08 129.34 L 153.09 129.53 C 152.19 129.70 151.59 130.56 151.76 131.46 C 151.93 132.36 152.80 132.96 153.70 132.79 Z M 154.65 132.61 L 155.66 132.45 C 156.56 132.30 157.18 131.45 157.03 130.54 C 156.89 129.64 156.03 129.02 155.13 129.17 L 154.12 129.33 C 153.21 129.48 152.60 130.33 152.75 131.24 C 152.89 132.14 153.74 132.76 154.65 132.61 Z M 155.61 132.46 L 156.57 132.33 C 157.48 132.21 158.12 131.37 158.00 130.46 C 157.88 129.55 157.04 128.91 156.13 129.03 L 155.17 129.15 C 154.26 129.28 153.62 130.11 153.74 131.03 C 153.86 131.94 154.70 132.58 155.61 132.46 Z M 156.49 132.36 L 157.49 132.28 C 158.42 132.20 159.11 131.38 159.03 130.45 C 158.95 129.53 158.14 128.84 157.21 128.91 L 156.21 129.00 C 155.28 129.08 154.59 129.89 154.67 130.82 C 154.75 131.75 155.56 132.44 156.49 132.36 Z M 157.32 132.32 L 158.35 132.34 C 159.30 132.36 160.09 131.60 160.11 130.64 C 160.12 129.69 159.36 128.90 158.41 128.89 L 157.38 128.87 C 156.43 128.85 155.64 129.61 155.62 130.57 C 155.61 131.52 156.37 132.31 157.32 132.32 Z M 157.83 132.32 L 158.73 132.62 C 159.67 132.92 160.68 132.40 160.99 131.46 C 161.29 130.51 160.78 129.50 159.83 129.20 L 158.93 128.91 C 157.99 128.60 156.97 129.12 156.67 130.06 C 156.36 131.01 156.88 132.02 157.83 132.32 Z M 157.54 131.57 L 157.86 132.42 C 158.23 133.38 159.31 133.86 160.27 133.50 C 161.23 133.13 161.71 132.05 161.34 131.09 L 161.02 130.24 C 160.65 129.28 159.58 128.80 158.62 129.17 C 157.66 129.53 157.17 130.61 157.54 131.57 Z M 157.74 131.39 L 157.55 132.38 C 157.34 133.41 158.02 134.41 159.05 134.61 C 160.08 134.81 161.08 134.14 161.28 133.10 L 161.47 132.12 C 161.67 131.09 161.00 130.09 159.97 129.89 C 158.94 129.69 157.94 130.36 157.74 131.39 Z M 157.68 131.91 L 157.24 132.83 C 156.78 133.79 157.19 134.94 158.15 135.40 C 159.11 135.85 160.25 135.45 160.71 134.49 L 161.15 133.57 C 161.61 132.61 161.20 131.46 160.24 131.00 C 159.28 130.55 158.13 130.95 157.68 131.91 Z M 157.34 132.62 L 156.83 133.43 C 156.26 134.33 156.53 135.52 157.43 136.10 C 158.33 136.67 159.52 136.40 160.09 135.50 L 160.60 134.70 C 161.18 133.80 160.91 132.60 160.01 132.03 C 159.11 131.46 157.92 131.72 157.34 132.62 Z M 156.87 133.36 L 156.28 134.22 C 155.67 135.09 155.89 136.30 156.76 136.91 C 157.64 137.52 158.85 137.30 159.46 136.43 L 160.05 135.57 C 160.66 134.69 160.45 133.49 159.57 132.88 C 158.69 132.27 157.48 132.48 156.87 133.36 Z M 156.28 134.22 L 155.75 134.98 C 155.13 135.86 155.35 137.07 156.23 137.68 C 157.11 138.29 158.32 138.07 158.93 137.19 L 159.46 136.43 C 160.07 135.55 159.85 134.34 158.97 133.73 C 158.09 133.12 156.89 133.34 156.28 134.22 Z M 155.74 134.99 L 155.17 135.81 C 154.57 136.69 154.79 137.90 155.67 138.50 C 156.55 139.11 157.76 138.89 158.36 138.01 L 158.93 137.19 C 159.54 136.31 159.32 135.10 158.44 134.49 C 157.56 133.89 156.35 134.11 155.74 134.99 Z M 155.18 135.81 L 154.57 136.68 C 153.97 137.56 154.18 138.76 155.06 139.37 C 155.94 139.98 157.15 139.76 157.75 138.88 L 158.36 138.01 C 158.97 137.13 158.75 135.93 157.87 135.32 C 156.99 134.71 155.79 134.93 155.18 135.81 Z M 154.58 136.67 L 154.03 137.47 C 153.41 138.34 153.63 139.55 154.50 140.16 C 155.37 140.77 156.57 140.56 157.19 139.69 L 157.74 138.89 C 158.35 138.02 158.14 136.81 157.27 136.20 C 156.40 135.59 155.20 135.80 154.58 136.67 Z M 154.04 137.47 L 153.45 138.30 C 152.84 139.16 153.04 140.36 153.90 140.98 C 154.77 141.59 155.97 141.39 156.58 140.52 L 157.17 139.69 C 157.78 138.83 157.58 137.63 156.72 137.01 C 155.85 136.40 154.65 136.60 154.04 137.47 Z M 153.47 138.29 L 152.86 139.12 C 152.25 139.98 152.44 141.17 153.29 141.79 C 154.15 142.41 155.34 142.22 155.96 141.36 L 156.56 140.53 C 157.18 139.67 156.99 138.48 156.13 137.86 C 155.28 137.24 154.08 137.44 153.47 138.29 Z M 152.90 139.12 L 152.25 140.00 C 151.63 140.83 151.80 142.02 152.64 142.64 C 153.48 143.26 154.66 143.08 155.28 142.24 L 155.93 141.37 C 156.55 140.53 156.37 139.35 155.54 138.73 C 154.70 138.11 153.52 138.28 152.90 139.12 Z M 152.30 140.00 L 151.68 140.81 C 151.06 141.62 151.22 142.77 152.03 143.39 C 152.83 144.01 153.99 143.85 154.60 143.05 L 155.22 142.24 C 155.84 141.43 155.69 140.28 154.88 139.66 C 154.07 139.04 152.92 139.20 152.30 140.00 Z M 151.74 140.81 L 151.18 141.51 C 150.56 142.28 150.69 143.41 151.46 144.03 C 152.24 144.65 153.37 144.52 153.99 143.75 L 154.55 143.05 C 155.16 142.27 155.04 141.15 154.26 140.53 C 153.49 139.91 152.36 140.03 151.74 140.81 Z M 151.28 141.50 L 150.57 142.33 C 149.95 143.05 150.03 144.14 150.75 144.76 C 151.47 145.38 152.56 145.30 153.19 144.58 L 153.89 143.75 C 154.51 143.03 154.43 141.94 153.71 141.32 C 152.99 140.70 151.90 140.78 151.28 141.50 Z M 150.68 142.34 L 150.06 143.01 C 149.45 143.67 149.49 144.70 150.15 145.31 C 150.81 145.93 151.84 145.89 152.45 145.23 L 153.07 144.56 C 153.69 143.90 153.65 142.87 152.99 142.26 C 152.33 141.64 151.30 141.68 150.68 142.34 Z"
      fill="black"
      fill-rule="nonzero" /><path d="M 142.61 147.19 L 143.59 147.13 C 144.59 147.06 145.34 146.20 145.27 145.20 C 145.21 144.20 144.35 143.45 143.35 143.52 L 142.37 143.58 C 141.38 143.65 140.62 144.51 140.69 145.51 C 140.75 146.50 141.62 147.26 142.61 147.19 Z M 143.86 147.16 L 144.83 146.95 C 145.85 146.73 146.49 145.74 146.28 144.72 C 146.06 143.71 145.06 143.06 144.05 143.28 L 143.08 143.48 C 142.06 143.70 141.41 144.70 141.63 145.71 C 141.85 146.73 142.85 147.38 143.86 147.16 Z M 145.15 146.88 L 145.98 146.55 C 146.96 146.15 147.43 145.04 147.04 144.06 C 146.64 143.08 145.53 142.61 144.55 143.01 L 143.72 143.35 C 142.75 143.74 142.27 144.85 142.67 145.83 C 143.07 146.81 144.18 147.28 145.15 146.88 Z M 146.11 146.48 L 147.07 146.01 C 148.02 145.54 148.40 144.40 147.94 143.46 C 147.47 142.52 146.33 142.13 145.39 142.60 L 144.43 143.07 C 143.48 143.54 143.10 144.68 143.56 145.62 C 144.03 146.56 145.17 146.95 146.11 146.48 Z M 147.09 145.99 L 148.00 145.53 C 148.93 145.06 149.31 143.92 148.84 142.99 C 148.36 142.05 147.22 141.68 146.29 142.15 L 145.38 142.61 C 144.44 143.08 144.07 144.22 144.54 145.16 C 145.01 146.09 146.15 146.47 147.09 145.99 Z M 147.99 145.53 L 148.90 145.07 C 149.83 144.61 150.21 143.48 149.74 142.54 C 149.28 141.61 148.15 141.23 147.21 141.70 L 146.30 142.15 C 145.37 142.62 144.99 143.75 145.46 144.68 C 145.92 145.62 147.05 146.00 147.99 145.53 Z M 148.89 145.07 L 149.81 144.61 C 150.74 144.15 151.12 143.02 150.66 142.09 C 150.20 141.17 149.07 140.79 148.14 141.25 L 147.22 141.70 C 146.29 142.16 145.91 143.29 146.37 144.22 C 146.84 145.15 147.96 145.53 148.89 145.07 Z M 149.80 144.60 L 150.69 144.16 C 151.61 143.70 151.99 142.59 151.54 141.66 C 151.08 140.74 149.96 140.36 149.04 140.82 L 148.15 141.26 C 147.23 141.72 146.85 142.83 147.30 143.76 C 147.76 144.68 148.88 145.06 149.80 144.60 Z M 150.68 144.14 L 151.54 143.71 C 152.45 143.27 152.83 142.16 152.38 141.25 C 151.93 140.34 150.83 139.97 149.92 140.42 L 149.06 140.84 C 148.15 141.29 147.77 142.39 148.22 143.30 C 148.67 144.21 149.77 144.58 150.68 144.14 Z M 151.52 143.69 L 152.40 143.26 C 153.30 142.82 153.67 141.75 153.24 140.85 C 152.81 139.95 151.73 139.58 150.83 140.01 L 149.95 140.44 C 149.05 140.87 148.68 141.95 149.11 142.85 C 149.54 143.74 150.62 144.12 151.52 143.69 Z M 152.38 143.23 L 153.27 142.81 C 154.16 142.39 154.53 141.33 154.12 140.45 C 153.70 139.57 152.64 139.19 151.76 139.61 L 150.86 140.04 C 149.98 140.45 149.60 141.51 150.02 142.39 C 150.44 143.28 151.49 143.65 152.38 143.23 Z M 153.25 142.79 L 154.11 142.39 C 154.98 141.98 155.36 140.95 154.95 140.07 C 154.54 139.20 153.50 138.82 152.63 139.23 L 151.78 139.63 C 150.90 140.04 150.53 141.08 150.94 141.95 C 151.34 142.82 152.38 143.20 153.25 142.79 Z M 154.09 142.37 L 155.01 141.95 C 155.87 141.55 156.25 140.52 155.85 139.66 C 155.45 138.80 154.42 138.42 153.56 138.82 L 152.64 139.25 C 151.78 139.65 151.41 140.67 151.81 141.54 C 152.21 142.40 153.23 142.77 154.09 142.37 Z M 155.00 141.93 L 155.96 141.49 C 156.81 141.09 157.18 140.08 156.79 139.23 C 156.39 138.38 155.38 138.01 154.53 138.40 L 153.57 138.84 C 152.72 139.24 152.35 140.25 152.74 141.10 C 153.14 141.95 154.15 142.32 155.00 141.93 Z M 155.95 141.47 L 156.52 141.21 C 157.37 140.82 157.73 139.82 157.35 138.97 C 156.96 138.13 155.96 137.76 155.11 138.15 L 154.54 138.41 C 153.70 138.80 153.33 139.80 153.72 140.65 C 154.11 141.49 155.11 141.86 155.95 141.47 Z"
      fill="black"
      fill-rule="nonzero" /><path d="M 149.01 124.35 L 148.88 125.32 C 148.76 126.19 149.36 126.99 150.23 127.11 C 151.10 127.23 151.91 126.63 152.03 125.76 L 152.16 124.79 C 152.28 123.92 151.68 123.12 150.81 123.00 C 149.94 122.88 149.13 123.48 149.01 124.35 Z M 148.82 125.32 L 148.69 126.29 C 148.57 127.20 149.20 128.02 150.10 128.15 C 151.00 128.27 151.83 127.63 151.96 126.73 L 152.09 125.76 C 152.21 124.85 151.58 124.02 150.67 123.90 C 149.77 123.78 148.94 124.41 148.82 125.32 Z M 148.63 126.30 L 148.50 127.30 C 148.39 128.23 149.05 129.09 149.99 129.20 C 150.92 129.32 151.77 128.66 151.89 127.72 L 152.02 126.72 C 152.13 125.79 151.47 124.94 150.53 124.82 C 149.60 124.70 148.75 125.37 148.63 126.30 Z M 148.44 127.32 L 148.33 128.35 C 148.22 129.31 148.92 130.19 149.89 130.29 C 150.86 130.40 151.73 129.70 151.84 128.73 L 151.95 127.70 C 152.06 126.74 151.36 125.86 150.39 125.76 C 149.42 125.65 148.55 126.35 148.44 127.32 Z M 148.29 128.37 L 148.19 129.42 C 148.09 130.41 148.82 131.29 149.81 131.39 C 150.80 131.48 151.68 130.76 151.78 129.77 L 151.88 128.71 C 151.97 127.72 151.25 126.84 150.26 126.75 C 149.26 126.65 148.39 127.38 148.29 128.37 Z M 148.17 129.44 L 148.08 130.49 C 148.00 131.49 148.74 132.37 149.74 132.46 C 150.74 132.54 151.62 131.80 151.71 130.80 L 151.79 129.75 C 151.88 128.75 151.14 127.87 150.14 127.78 C 149.14 127.70 148.26 128.44 148.17 129.44 Z M 148.06 130.50 L 147.98 131.49 C 147.90 132.50 148.66 133.39 149.67 133.47 C 150.68 133.55 151.56 132.79 151.64 131.78 L 151.72 130.79 C 151.80 129.78 151.05 128.89 150.04 128.81 C 149.03 128.73 148.14 129.49 148.06 130.50 Z M 147.97 131.49 L 147.90 132.38 C 147.82 133.40 148.58 134.29 149.60 134.37 C 150.62 134.45 151.51 133.69 151.59 132.67 L 151.66 131.78 C 151.74 130.76 150.98 129.87 149.96 129.79 C 148.94 129.71 148.05 130.47 147.97 131.49 Z M 147.89 132.37 L 147.79 133.51 C 147.71 134.54 148.47 135.44 149.49 135.52 C 150.52 135.61 151.42 134.85 151.51 133.82 L 151.60 132.68 C 151.69 131.66 150.93 130.76 149.90 130.67 C 148.87 130.58 147.97 131.35 147.89 132.37 Z M 147.79 133.51 L 147.71 134.43 C 147.62 135.45 148.38 136.36 149.41 136.45 C 150.44 136.54 151.34 135.77 151.43 134.75 L 151.51 133.83 C 151.60 132.80 150.84 131.90 149.81 131.81 C 148.78 131.72 147.88 132.48 147.79 133.51 Z M 147.70 134.44 L 147.63 135.35 C 147.55 136.38 148.32 137.28 149.35 137.36 C 150.38 137.44 151.28 136.67 151.36 135.64 L 151.43 134.73 C 151.52 133.70 150.75 132.80 149.72 132.72 C 148.68 132.64 147.78 133.41 147.70 134.44 Z M 147.63 135.38 L 147.57 136.37 C 147.50 137.40 148.28 138.29 149.31 138.36 C 150.34 138.43 151.23 137.64 151.30 136.61 L 151.37 135.62 C 151.43 134.59 150.65 133.70 149.62 133.63 C 148.59 133.56 147.70 134.34 147.63 135.38 Z M 147.57 136.38 L 147.51 137.40 C 147.45 138.43 148.24 139.31 149.27 139.37 C 150.30 139.43 151.19 138.64 151.24 137.61 L 151.30 136.60 C 151.36 135.57 150.57 134.68 149.54 134.62 C 148.51 134.56 147.62 135.35 147.57 136.38 Z M 147.51 137.40 L 147.45 138.39 C 147.40 139.42 148.19 140.31 149.22 140.36 C 150.25 140.42 151.14 139.62 151.19 138.59 L 151.24 137.60 C 151.30 136.57 150.51 135.69 149.48 135.64 C 148.44 135.58 147.56 136.37 147.51 137.40 Z M 147.45 138.39 L 147.40 139.41 C 147.35 140.44 148.14 141.32 149.17 141.37 C 150.20 141.43 151.08 140.63 151.14 139.60 L 151.19 138.59 C 151.24 137.56 150.45 136.68 149.42 136.62 C 148.39 136.57 147.51 137.36 147.45 138.39 Z M 147.41 139.40 L 147.35 140.40 C 147.30 141.42 148.09 142.30 149.12 142.36 C 150.15 142.41 151.03 141.62 151.08 140.59 L 151.13 139.60 C 151.19 138.57 150.40 137.70 149.37 137.64 C 148.34 137.58 147.46 138.37 147.41 139.40 Z M 147.36 140.39 L 147.30 141.39 C 147.25 142.41 148.03 143.29 149.05 143.35 C 150.08 143.41 150.96 142.62 151.01 141.60 L 151.07 140.60 C 151.13 139.58 150.35 138.70 149.32 138.64 C 148.30 138.58 147.42 139.36 147.36 140.39 Z M 147.31 141.38 L 147.25 142.39 C 147.19 143.41 147.96 144.29 148.98 144.35 C 150.00 144.42 150.88 143.64 150.94 142.63 L 151.00 141.61 C 151.07 140.59 150.30 139.71 149.28 139.65 C 148.26 139.58 147.38 140.36 147.31 141.38 Z M 147.26 142.38 L 147.19 143.40 C 147.12 144.41 147.89 145.29 148.90 145.36 C 149.91 145.43 150.79 144.66 150.86 143.65 L 150.93 142.64 C 151.00 141.62 150.23 140.75 149.22 140.68 C 148.21 140.61 147.33 141.37 147.26 142.38 Z M 147.21 143.40 L 147.14 144.38 C 147.07 145.39 147.82 146.26 148.83 146.33 C 149.83 146.40 150.70 145.64 150.77 144.64 L 150.84 143.65 C 150.91 142.65 150.16 141.78 149.15 141.71 C 148.15 141.64 147.28 142.39 147.21 143.40 Z M 147.16 144.39 L 147.09 145.42 C 147.02 146.41 147.77 147.27 148.77 147.34 C 149.76 147.40 150.62 146.65 150.68 145.66 L 150.75 144.63 C 150.82 143.64 150.07 142.78 149.07 142.71 C 148.08 142.65 147.22 143.40 147.16 144.39 Z M 147.11 145.43 L 147.05 146.41 C 146.99 147.39 147.73 148.24 148.71 148.30 C 149.69 148.36 150.54 147.61 150.60 146.63 L 150.66 145.65 C 150.72 144.67 149.98 143.83 149.00 143.76 C 148.02 143.70 147.17 144.45 147.11 145.43 Z M 147.08 146.41 L 147.01 147.40 C 146.95 148.37 147.68 149.20 148.65 149.26 C 149.61 149.32 150.44 148.59 150.51 147.63 L 150.57 146.64 C 150.63 145.67 149.90 144.84 148.94 144.78 C 147.97 144.71 147.14 145.44 147.08 146.41 Z M 147.04 147.40 L 146.98 148.40 C 146.92 149.34 147.63 150.16 148.58 150.22 C 149.53 150.28 150.35 149.57 150.41 148.62 L 150.47 147.63 C 150.54 146.68 149.82 145.86 148.87 145.80 C 147.92 145.74 147.11 146.46 147.04 147.40 Z M 147.01 148.42 L 146.96 149.33 C 146.91 150.25 147.63 151.05 148.55 151.10 C 149.48 151.15 150.27 150.44 150.32 149.51 L 150.37 148.60 C 150.43 147.67 149.71 146.88 148.79 146.83 C 147.86 146.78 147.06 147.49 147.01 148.42 Z M 147.00 149.34 L 146.96 150.34 C 146.91 151.24 147.61 152.01 148.52 152.05 C 149.43 152.10 150.20 151.40 150.24 150.49 L 150.29 149.50 C 150.33 148.59 149.63 147.82 148.72 147.78 C 147.82 147.73 147.05 148.43 147.00 149.34 Z M 146.99 150.33 L 146.94 151.32 C 146.89 152.21 147.57 152.96 148.46 153.01 C 149.35 153.06 150.11 152.37 150.16 151.48 L 150.21 150.50 C 150.25 149.61 149.57 148.85 148.68 148.80 C 147.79 148.76 147.03 149.44 146.99 150.33 Z M 146.96 151.31 L 146.90 152.28 C 146.85 153.16 147.53 153.92 148.40 153.96 C 149.28 154.01 150.04 153.34 150.08 152.46 L 150.14 151.49 C 150.19 150.61 149.51 149.86 148.64 149.81 C 147.76 149.76 147.00 150.43 146.96 151.31 Z M 146.91 152.28 L 146.85 153.34 C 146.80 154.21 147.47 154.96 148.34 155.01 C 149.21 155.06 149.96 154.40 150.01 153.52 L 150.07 152.46 C 150.12 151.59 149.45 150.84 148.58 150.79 C 147.71 150.74 146.96 151.41 146.91 152.28 Z M 146.86 153.34 L 146.83 153.92 C 146.78 154.79 147.44 155.53 148.31 155.58 C 149.17 155.63 149.92 154.97 149.97 154.10 L 150.00 153.52 C 150.05 152.66 149.39 151.92 148.52 151.87 C 147.66 151.82 146.91 152.48 146.86 153.34 Z"
      fill="black"
      fill-rule="nonzero" /><path d="M 133.55 162.70 L 132.94 163.50 C 132.36 164.26 132.51 165.35 133.27 165.94 C 134.04 166.52 135.13 166.37 135.71 165.60 L 136.32 164.80 C 136.90 164.04 136.75 162.95 135.99 162.37 C 135.22 161.78 134.13 161.93 133.55 162.70 Z M 132.92 163.47 L 132.31 164.27 C 131.71 165.05 131.86 166.16 132.64 166.76 C 133.42 167.35 134.54 167.21 135.13 166.43 L 135.74 165.63 C 136.34 164.85 136.19 163.73 135.41 163.14 C 134.63 162.54 133.51 162.69 132.92 163.47 Z M 132.28 164.23 L 131.67 165.02 C 131.06 165.82 131.21 166.96 132.00 167.57 C 132.79 168.18 133.93 168.04 134.54 167.25 L 135.16 166.46 C 135.77 165.66 135.62 164.52 134.83 163.91 C 134.04 163.30 132.90 163.44 132.28 164.23 Z M 131.66 164.99 L 131.03 165.80 C 130.40 166.60 130.54 167.76 131.33 168.39 C 132.13 169.02 133.29 168.88 133.92 168.08 L 134.55 167.27 C 135.18 166.48 135.05 165.32 134.25 164.69 C 133.45 164.06 132.29 164.20 131.66 164.99 Z M 131.04 165.79 L 130.39 166.59 C 129.75 167.38 129.88 168.54 130.67 169.18 C 131.46 169.82 132.63 169.69 133.26 168.90 L 133.91 168.10 C 134.55 167.30 134.42 166.14 133.63 165.50 C 132.84 164.87 131.67 164.99 131.04 165.79 Z M 130.40 166.58 L 129.78 167.34 C 129.14 168.12 129.25 169.28 130.04 169.93 C 130.82 170.57 131.98 170.46 132.63 169.67 L 133.25 168.91 C 133.89 168.12 133.78 166.97 132.99 166.32 C 132.21 165.68 131.05 165.79 130.40 166.58 Z M 129.80 167.33 L 129.18 168.07 C 128.53 168.85 128.64 170.00 129.41 170.65 C 130.19 171.30 131.34 171.20 131.99 170.42 L 132.61 169.68 C 133.26 168.90 133.15 167.75 132.38 167.10 C 131.60 166.45 130.45 166.56 129.80 167.33 Z M 129.21 168.07 L 128.57 168.82 C 127.92 169.58 128.01 170.72 128.77 171.37 C 129.53 172.02 130.67 171.93 131.32 171.17 L 131.96 170.42 C 132.61 169.66 132.52 168.52 131.76 167.87 C 131.00 167.22 129.86 167.31 129.21 168.07 Z M 128.60 168.82 L 127.95 169.56 C 127.30 170.31 127.38 171.43 128.12 172.08 C 128.86 172.73 129.98 172.66 130.63 171.92 L 131.29 171.17 C 131.94 170.43 131.86 169.30 131.12 168.65 C 130.38 168.01 129.25 168.08 128.60 168.82 Z M 127.99 169.57 L 127.34 170.29 C 126.69 171.01 126.75 172.12 127.47 172.77 C 128.20 173.42 129.31 173.36 129.95 172.63 L 130.60 171.91 C 131.25 171.19 131.19 170.08 130.47 169.43 C 129.74 168.78 128.63 168.85 127.99 169.57 Z M 127.37 170.30 L 126.70 171.03 C 126.06 171.73 126.11 172.83 126.82 173.47 C 127.53 174.11 128.62 174.06 129.26 173.35 L 129.93 172.63 C 130.57 171.92 130.52 170.82 129.81 170.18 C 129.10 169.54 128.01 169.59 127.37 170.30 Z M 126.73 171.04 L 126.03 171.80 C 125.40 172.49 125.44 173.57 126.14 174.21 C 126.83 174.84 127.91 174.79 128.54 174.10 L 129.24 173.34 C 129.87 172.65 129.83 171.57 129.13 170.94 C 128.44 170.30 127.36 170.35 126.73 171.04 Z M 126.05 171.81 L 125.60 172.30 C 124.97 172.99 125.02 174.05 125.70 174.68 C 126.39 175.30 127.45 175.26 128.08 174.57 L 128.53 174.09 C 129.15 173.40 129.11 172.34 128.42 171.71 C 127.74 171.08 126.68 171.13 126.05 171.81 Z"
      fill="black"
      fill-rule="nonzero" /><path d="M 138.35 166.89 L 139.04 167.62 C 139.71 168.33 140.83 168.36 141.54 167.69 C 142.25 167.02 142.28 165.90 141.61 165.19 L 140.93 164.47 C 140.26 163.76 139.14 163.72 138.43 164.39 C 137.72 165.06 137.69 166.18 138.35 166.89 Z M 138.88 167.66 L 139.53 168.41 C 140.22 169.21 141.44 169.30 142.24 168.60 C 143.03 167.91 143.12 166.70 142.43 165.90 L 141.77 165.15 C 141.08 164.35 139.87 164.26 139.07 164.96 C 138.27 165.65 138.18 166.86 138.88 167.66 Z M 139.41 168.37 L 139.99 169.12 C 140.66 169.99 141.91 170.15 142.77 169.47 C 143.64 168.80 143.80 167.56 143.13 166.69 L 142.55 165.94 C 141.88 165.07 140.63 164.91 139.76 165.59 C 138.90 166.26 138.74 167.50 139.41 168.37 Z M 139.99 169.11 L 140.64 169.95 C 141.31 170.81 142.55 170.97 143.41 170.30 C 144.28 169.64 144.44 168.39 143.77 167.53 L 143.12 166.70 C 142.45 165.83 141.21 165.67 140.35 166.34 C 139.49 167.01 139.33 168.25 139.99 169.11 Z M 140.69 170.00 L 141.34 170.77 C 142.03 171.61 143.27 171.72 144.11 171.03 C 144.94 170.33 145.06 169.09 144.36 168.26 L 143.72 167.48 C 143.02 166.65 141.78 166.53 140.95 167.23 C 140.11 167.92 140.00 169.16 140.69 170.00 Z M 141.38 170.81 L 142.06 171.58 C 142.77 172.39 144.01 172.46 144.82 171.74 C 145.63 171.03 145.71 169.79 144.99 168.98 L 144.32 168.22 C 143.60 167.41 142.36 167.33 141.55 168.05 C 140.74 168.76 140.67 170.00 141.38 170.81 Z M 142.11 171.61 L 142.82 172.37 C 143.56 173.15 144.79 173.19 145.57 172.45 C 146.35 171.71 146.39 170.48 145.65 169.69 L 144.94 168.94 C 144.20 168.16 142.97 168.12 142.19 168.86 C 141.41 169.60 141.37 170.83 142.11 171.61 Z M 142.90 172.42 L 143.60 173.10 C 144.37 173.84 145.59 173.82 146.33 173.05 C 147.07 172.28 147.05 171.06 146.28 170.32 L 145.58 169.64 C 144.81 168.90 143.58 168.92 142.84 169.69 C 142.10 170.46 142.13 171.68 142.90 172.42 Z M 143.68 173.16 L 144.41 173.79 C 145.21 174.48 146.43 174.39 147.12 173.59 C 147.81 172.79 147.73 171.58 146.92 170.88 L 146.20 170.26 C 145.39 169.56 144.18 169.65 143.49 170.45 C 142.79 171.26 142.88 172.47 143.68 173.16 Z M 144.50 173.85 L 145.29 174.46 C 146.13 175.11 147.33 174.95 147.97 174.11 C 148.62 173.28 148.46 172.08 147.63 171.43 L 146.83 170.82 C 146.00 170.18 144.80 170.33 144.15 171.17 C 143.51 172.01 143.66 173.21 144.50 173.85 Z M 145.39 174.53 L 146.22 175.09 C 147.09 175.67 148.28 175.44 148.87 174.57 C 149.45 173.70 149.22 172.51 148.35 171.93 L 147.52 171.37 C 146.65 170.78 145.47 171.01 144.88 171.88 C 144.29 172.75 144.52 173.94 145.39 174.53 Z M 146.31 175.14 L 147.17 175.65 C 148.07 176.19 149.24 175.90 149.78 175.00 C 150.32 174.10 150.02 172.93 149.12 172.39 L 148.26 171.87 C 147.36 171.34 146.19 171.63 145.66 172.53 C 145.12 173.43 145.41 174.60 146.31 175.14 Z M 147.26 175.70 L 148.14 176.17 C 149.07 176.66 150.22 176.31 150.71 175.38 C 151.20 174.46 150.85 173.31 149.92 172.82 L 149.04 172.34 C 148.11 171.85 146.96 172.20 146.47 173.13 C 145.98 174.06 146.33 175.21 147.26 175.70 Z M 148.28 176.23 L 149.20 176.63 C 150.16 177.05 151.28 176.61 151.69 175.64 C 152.11 174.68 151.67 173.57 150.71 173.15 L 149.79 172.75 C 148.82 172.33 147.71 172.78 147.29 173.74 C 146.87 174.70 147.32 175.82 148.28 176.23 Z M 149.34 176.69 L 150.29 177.01 C 151.28 177.34 152.36 176.81 152.69 175.82 C 153.03 174.82 152.50 173.75 151.50 173.41 L 150.56 173.09 C 149.57 172.76 148.49 173.29 148.15 174.28 C 147.82 175.27 148.35 176.35 149.34 176.69 Z M 150.38 177.04 L 151.34 177.31 C 152.35 177.59 153.40 177.01 153.69 176.00 C 153.97 174.99 153.38 173.94 152.37 173.65 L 151.41 173.38 C 150.40 173.10 149.35 173.68 149.07 174.69 C 148.78 175.70 149.37 176.75 150.38 177.04 Z M 151.43 177.34 L 152.39 177.56 C 153.41 177.79 154.44 177.16 154.67 176.13 C 154.91 175.11 154.27 174.08 153.25 173.85 L 152.29 173.63 C 151.26 173.39 150.24 174.03 150.00 175.05 C 149.77 176.08 150.40 177.10 151.43 177.34 Z M 152.51 177.59 L 153.47 177.75 C 154.51 177.92 155.49 177.21 155.66 176.17 C 155.83 175.13 155.13 174.15 154.09 173.97 L 153.13 173.82 C 152.09 173.65 151.10 174.35 150.93 175.39 C 150.76 176.43 151.47 177.42 152.51 177.59 Z M 153.63 177.78 L 154.66 177.85 C 155.71 177.93 156.64 177.14 156.72 176.08 C 156.80 175.02 156.00 174.10 154.95 174.02 L 153.92 173.94 C 152.86 173.86 151.94 174.66 151.86 175.72 C 151.78 176.77 152.57 177.70 153.63 177.78 Z M 154.82 177.87 L 155.84 177.86 C 156.91 177.86 157.77 176.98 157.76 175.91 C 157.75 174.84 156.87 173.98 155.80 173.99 L 154.78 174.00 C 153.71 174.01 152.86 174.89 152.87 175.95 C 152.87 177.02 153.75 177.88 154.82 177.87 Z M 156.05 177.87 L 157.06 177.75 C 158.14 177.62 158.90 176.65 158.77 175.57 C 158.64 174.50 157.67 173.74 156.60 173.87 L 155.59 173.99 C 154.52 174.12 153.75 175.09 153.88 176.16 C 154.01 177.23 154.98 178.00 156.05 177.87 Z M 157.49 177.67 L 158.41 177.34 C 159.44 176.98 159.98 175.85 159.61 174.82 C 159.25 173.80 158.12 173.26 157.10 173.62 L 156.17 173.95 C 155.15 174.31 154.61 175.44 154.97 176.46 C 155.33 177.49 156.46 178.03 157.49 177.67 Z M 159.01 177.03 L 159.77 176.42 C 160.63 175.72 160.76 174.46 160.06 173.61 C 159.37 172.75 158.11 172.62 157.25 173.31 L 156.50 173.93 C 155.64 174.62 155.51 175.88 156.20 176.74 C 156.90 177.60 158.15 177.73 159.01 177.03 Z M 160.41 175.57 L 160.75 174.65 C 161.14 173.61 160.60 172.44 159.55 172.05 C 158.50 171.67 157.34 172.20 156.95 173.25 L 156.61 174.17 C 156.23 175.21 156.76 176.38 157.81 176.77 C 158.86 177.15 160.02 176.62 160.41 175.57 Z M 160.81 173.38 L 160.56 172.54 C 160.24 171.46 159.10 170.84 158.02 171.16 C 156.94 171.48 156.32 172.61 156.64 173.70 L 156.89 174.53 C 157.21 175.61 158.35 176.23 159.43 175.91 C 160.51 175.59 161.13 174.46 160.81 173.38 Z M 160.34 172.04 L 159.79 171.16 C 159.20 170.20 157.94 169.91 156.98 170.50 C 156.02 171.10 155.72 172.36 156.32 173.31 L 156.86 174.19 C 157.46 175.15 158.72 175.45 159.68 174.85 C 160.64 174.26 160.93 173.00 160.34 172.04 Z M 159.71 171.03 L 159.27 170.44 C 158.61 169.52 157.33 169.32 156.42 169.98 C 155.50 170.65 155.30 171.93 155.97 172.84 L 156.40 173.44 C 157.06 174.35 158.34 174.56 159.26 173.89 C 160.17 173.23 160.37 171.95 159.71 171.03 Z"
      fill="black"
      fill-rule="nonzero" /><path d="M 147.23 161.08 L 148.06 161.64 C 148.89 162.21 150.02 162.00 150.59 161.17 C 151.16 160.34 150.95 159.20 150.12 158.63 L 149.29 158.07 C 148.46 157.50 147.32 157.71 146.76 158.54 C 146.19 159.38 146.40 160.51 147.23 161.08 Z M 148.03 161.68 L 148.85 162.25 C 149.71 162.83 150.87 162.61 151.46 161.76 C 152.04 160.91 151.82 159.74 150.97 159.16 L 150.14 158.59 C 149.29 158.01 148.13 158.23 147.54 159.08 C 146.96 159.93 147.18 161.10 148.03 161.68 Z M 148.83 162.28 L 149.24 162.55 C 150.10 163.15 151.29 162.93 151.89 162.06 C 152.48 161.19 152.26 160.00 151.39 159.40 L 150.99 159.13 C 150.12 158.53 148.93 158.76 148.34 159.63 C 147.74 160.50 147.96 161.68 148.83 162.28 Z"
      fill="black"
      fill-rule="nonzero" /><path d="M 162.97 162.11 L 163.50 162.93 C 164.05 163.78 165.20 164.02 166.05 163.47 C 166.91 162.91 167.15 161.76 166.59 160.91 L 166.06 160.10 C 165.50 159.24 164.36 159.00 163.51 159.56 C 162.65 160.11 162.41 161.26 162.97 162.11 Z M 163.64 163.25 L 164.34 163.98 C 165.08 164.75 166.30 164.79 167.07 164.05 C 167.85 163.31 167.88 162.09 167.14 161.32 L 166.44 160.59 C 165.71 159.81 164.49 159.78 163.71 160.52 C 162.94 161.25 162.91 162.48 163.64 163.25 Z M 164.66 164.24 L 165.46 164.78 C 166.34 165.37 167.53 165.14 168.13 164.27 C 168.72 163.39 168.49 162.20 167.61 161.60 L 166.82 161.06 C 165.94 160.47 164.75 160.70 164.15 161.57 C 163.56 162.45 163.79 163.64 164.66 164.24 Z M 165.66 164.79 L 166.58 165.29 C 167.46 165.77 168.56 165.45 169.05 164.56 C 169.53 163.68 169.21 162.58 168.33 162.09 L 167.41 161.59 C 166.53 161.11 165.42 161.43 164.94 162.32 C 164.46 163.20 164.78 164.30 165.66 164.79 Z M 166.63 165.25 L 166.75 165.31 C 167.61 165.77 168.68 165.43 169.13 164.57 C 169.58 163.71 169.25 162.64 168.39 162.19 L 168.27 162.13 C 167.41 161.68 166.34 162.01 165.89 162.87 C 165.44 163.73 165.77 164.80 166.63 165.25 Z"
      fill="black"
      fill-rule="nonzero" /></svg>