<svg xmlns="http://www.w3.org/2000/svg" width="300" height="300" viewBox="0 0 300 300">
<path d="M 132.96 120.73 L 133.92 120.56 C 134.90 120.39 135.54 119.46 135.37 118.49 C 135.20 117.51 134.27 116.87 133.30 117.04 L 132.33 117.21 C 131.36 117.38 130.71 118.31 130.88 119.29 C 131.06 120.26 131.98 120.91 132.96 120.73 Z M 134.01 120.56 L 134.99 120.34 C 135.96 120.12 136.57 119.16 136.35 118.18 C 136.13 117.21 135.17 116.60 134.19 116.82 L 133.21 117.04 C 132.24 117.26 131.63 118.22 131.85 119.20 C 132.07 120.17 133.03 120.78 134.01 120.56 Z M 135.12 120.31 L 136.05 120.03 C 137.01 119.73 137.54 118.72 137.25 117.76 C 136.95 116.80 135.94 116.27 134.98 116.56 L 134.06 116.85 C 133.10 117.14 132.56 118.16 132.86 119.11 C 133.15 120.07 134.17 120.61 135.12 120.31 Z M 136.16 119.98 L 137.07 119.63 C 138.00 119.28 138.47 118.23 138.12 117.30 C 137.76 116.37 136.72 115.90 135.79 116.26 L 134.87 116.61 C 133.94 116.96 133.47 118.01 133.83 118.94 C 134.18 119.87 135.23 120.33 136.16 119.98 Z M 137.12 119.60 L 138.10 119.19 C 139.01 118.80 139.44 117.75 139.06 116.84 C 138.67 115.93 137.63 115.50 136.71 115.89 L 135.74 116.29 C 134.83 116.68 134.40 117.73 134.78 118.64 C 135.16 119.55 136.21 119.98 137.12 119.60 Z M 138.11 119.17 L 139.00 118.78 C 139.90 118.39 140.31 117.35 139.92 116.45 C 139.53 115.55 138.49 115.13 137.59 115.52 L 136.70 115.90 C 135.80 116.29 135.39 117.34 135.78 118.24 C 136.16 119.14 137.21 119.56 138.11 119.17 Z M 139.00 118.77 L 139.92 118.37 C 140.81 117.98 141.22 116.94 140.82 116.04 C 140.43 115.15 139.39 114.74 138.50 115.13 L 137.58 115.54 C 136.69 115.93 136.28 116.97 136.67 117.86 C 137.07 118.76 138.11 119.16 139.00 118.77 Z M 139.92 118.36 L 140.86 117.94 C 141.75 117.55 142.15 116.51 141.75 115.62 C 141.36 114.73 140.32 114.33 139.44 114.73 L 138.49 115.15 C 137.61 115.54 137.21 116.58 137.60 117.46 C 138.00 118.35 139.03 118.75 139.92 118.36 Z M 140.86 117.93 L 141.76 117.52 C 142.64 117.13 143.04 116.10 142.64 115.22 C 142.25 114.34 141.21 113.94 140.33 114.34 L 139.43 114.74 C 138.55 115.13 138.16 116.17 138.55 117.05 C 138.95 117.93 139.98 118.32 140.86 117.93 Z M 141.76 117.52 L 142.65 117.12 C 143.53 116.73 143.92 115.70 143.53 114.82 C 143.14 113.94 142.11 113.55 141.23 113.94 L 140.34 114.34 C 139.46 114.74 139.07 115.76 139.46 116.64 C 139.85 117.52 140.88 117.91 141.76 117.52 Z M 142.64 117.11 L 143.56 116.71 C 144.44 116.32 144.83 115.30 144.45 114.43 C 144.06 113.55 143.04 113.15 142.17 113.54 L 141.24 113.95 C 140.37 114.33 139.97 115.35 140.36 116.23 C 140.74 117.10 141.76 117.50 142.64 117.11 Z M 143.54 116.71 L 144.50 116.30 C 145.38 115.92 145.78 114.91 145.41 114.03 C 145.03 113.16 144.02 112.75 143.14 113.13 L 142.19 113.54 C 141.31 113.91 140.91 114.93 141.28 115.80 C 141.66 116.68 142.67 117.08 143.54 116.71 Z M 144.48 116.31 L 145.44 115.91 C 146.31 115.55 146.73 114.54 146.37 113.66 C 146.01 112.78 145.00 112.37 144.12 112.73 L 143.17 113.12 C 142.29 113.48 141.87 114.49 142.23 115.37 C 142.59 116.25 143.60 116.67 144.48 116.31 Z M 145.40 115.93 L 146.36 115.55 C 147.25 115.21 147.69 114.21 147.35 113.32 C 147.00 112.44 146.00 112.00 145.12 112.34 L 144.16 112.71 C 143.27 113.06 142.83 114.06 143.17 114.94 C 143.52 115.83 144.52 116.27 145.40 115.93 Z M 146.32 115.57 L 147.24 115.25 C 148.14 114.93 148.61 113.94 148.29 113.04 C 147.97 112.15 146.98 111.68 146.08 111.99 L 145.16 112.32 C 144.27 112.64 143.80 113.63 144.11 114.52 C 144.43 115.42 145.42 115.89 146.32 115.57 Z M 147.15 115.29 L 148.21 114.98 C 149.13 114.71 149.66 113.74 149.39 112.82 C 149.12 111.89 148.15 111.37 147.23 111.64 L 146.17 111.95 C 145.25 112.22 144.72 113.19 144.99 114.11 C 145.26 115.03 146.23 115.56 147.15 115.29 Z M 147.95 115.08 L 149.00 114.94 C 149.97 114.81 150.66 113.91 150.53 112.93 C 150.40 111.95 149.50 111.27 148.52 111.40 L 147.48 111.54 C 146.50 111.67 145.82 112.57 145.95 113.55 C 146.08 114.52 146.98 115.21 147.95 115.08 Z M 148.15 114.91 L 148.84 115.15 C 149.80 115.49 150.86 114.99 151.20 114.03 C 151.53 113.07 151.03 112.01 150.07 111.67 L 149.37 111.43 C 148.41 111.09 147.36 111.60 147.02 112.56 C 146.68 113.52 147.19 114.57 148.15 114.91 Z M 147.70 114.11 L 148.00 114.86 C 148.38 115.83 149.48 116.31 150.45 115.92 C 151.42 115.54 151.90 114.44 151.51 113.47 L 151.21 112.72 C 150.83 111.75 149.73 111.27 148.76 111.66 C 147.79 112.04 147.31 113.14 147.70 114.11 Z M 147.84 113.98 L 147.73 115.12 C 147.63 116.18 148.40 117.12 149.46 117.23 C 150.52 117.33 151.46 116.55 151.56 115.50 L 151.67 114.35 C 151.77 113.29 151.00 112.35 149.94 112.25 C 148.88 112.15 147.94 112.92 147.84 113.98 Z M 147.78 114.76 L 147.51 115.67 C 147.20 116.70 147.79 117.78 148.82 118.09 C 149.85 118.40 150.93 117.81 151.23 116.78 L 151.51 115.87 C 151.81 114.84 151.23 113.75 150.20 113.45 C 149.17 113.14 148.09 113.73 147.78 114.76 Z M 147.56 115.50 L 147.19 116.42 C 146.79 117.42 147.28 118.56 148.28 118.96 C 149.28 119.35 150.42 118.87 150.82 117.87 L 151.18 116.95 C 151.58 115.95 151.09 114.81 150.09 114.41 C 149.09 114.01 147.96 114.50 147.56 115.50 Z M 147.23 116.32 L 146.79 117.27 C 146.34 118.25 146.76 119.41 147.74 119.87 C 148.72 120.32 149.88 119.90 150.33 118.92 L 150.78 117.97 C 151.23 116.99 150.81 115.83 149.83 115.37 C 148.85 114.92 147.69 115.34 147.23 116.32 Z M 146.82 117.20 L 146.35 118.13 C 145.86 119.09 146.24 120.27 147.20 120.76 C 148.16 121.26 149.34 120.88 149.83 119.91 L 150.30 118.99 C 150.80 118.03 150.41 116.85 149.45 116.36 C 148.49 115.86 147.31 116.24 146.82 117.20 Z M 146.37 118.09 L 145.90 118.95 C 145.38 119.90 145.73 121.09 146.67 121.61 C 147.62 122.12 148.81 121.78 149.33 120.83 L 149.80 119.96 C 150.32 119.01 149.97 117.83 149.03 117.31 C 148.08 116.79 146.89 117.14 146.37 118.09 Z M 145.92 118.91 L 145.42 119.77 C 144.89 120.71 145.21 121.90 146.14 122.44 C 147.07 122.98 148.27 122.66 148.81 121.73 L 149.31 120.87 C 149.84 119.93 149.52 118.74 148.59 118.20 C 147.66 117.66 146.46 117.98 145.92 118.91 Z M 145.44 119.74 L 144.92 120.61 C 144.37 121.53 144.66 122.73 145.59 123.29 C 146.51 123.84 147.71 123.55 148.27 122.62 L 148.79 121.76 C 149.35 120.84 149.05 119.64 148.12 119.08 C 147.20 118.52 146.00 118.82 145.44 119.74 Z M 144.95 120.59 L 144.42 121.44 C 143.85 122.35 144.13 123.54 145.04 124.11 C 145.95 124.68 147.15 124.40 147.72 123.49 L 148.25 122.64 C 148.81 121.73 148.53 120.53 147.62 119.97 C 146.71 119.40 145.51 119.68 144.95 120.59 Z M 144.45 121.43 L 143.92 122.27 C 143.36 123.16 143.62 124.34 144.51 124.91 C 145.40 125.48 146.59 125.21 147.15 124.32 L 147.68 123.49 C 148.25 122.60 147.99 121.41 147.10 120.85 C 146.20 120.28 145.02 120.54 144.45 121.43 Z M 143.96 122.27 L 143.42 123.12 C 142.85 123.99 143.10 125.15 143.98 125.71 C 144.85 126.28 146.01 126.03 146.57 125.16 L 147.12 124.31 C 147.68 123.44 147.43 122.28 146.56 121.72 C 145.69 121.15 144.52 121.40 143.96 122.27 Z M 143.45 123.13 L 142.90 123.98 C 142.34 124.83 142.58 125.97 143.44 126.53 C 144.29 127.09 145.43 126.84 145.98 125.99 L 146.54 125.14 C 147.09 124.29 146.85 123.15 146.00 122.59 C 145.15 122.04 144.01 122.28 143.45 123.13 Z M 142.92 123.99 L 142.58 124.51 C 142.04 125.35 142.27 126.48 143.11 127.02 C 143.95 127.57 145.07 127.34 145.62 126.50 L 145.96 125.98 C 146.51 125.14 146.27 124.02 145.43 123.47 C 144.60 122.92 143.47 123.16 142.92 123.99 Z"
      fill="black"
      fill-rule="nonzero" /><path d="M 131.04 132.19 L 131.95 132.23 C 132.91 132.28 133.73 131.54 133.78 130.58 C 133.83 129.61 133.08 128.80 132.12 128.75 L 131.21 128.70 C 130.25 128.66 129.43 129.40 129.38 130.36 C 129.34 131.32 130.08 132.14 131.04 132.19 Z M 132.11 132.29 L 133.08 132.25 C 134.07 132.21 134.85 131.37 134.81 130.38 C 134.77 129.38 133.93 128.61 132.93 128.65 L 131.97 128.69 C 130.97 128.73 130.20 129.57 130.23 130.56 C 130.27 131.56 131.11 132.33 132.11 132.29 Z M 133.35 132.28 L 134.43 132.08 C 135.45 131.88 136.11 130.91 135.92 129.90 C 135.73 128.89 134.75 128.22 133.74 128.42 L 132.66 128.62 C 131.65 128.81 130.98 129.79 131.18 130.80 C 131.37 131.81 132.34 132.47 133.35 132.28 Z M 134.69 132.04 L 135.62 131.73 C 136.61 131.40 137.15 130.33 136.82 129.34 C 136.49 128.34 135.41 127.81 134.42 128.14 L 133.49 128.45 C 132.50 128.78 131.96 129.85 132.29 130.84 C 132.62 131.84 133.69 132.37 134.69 132.04 Z M 135.75 131.68 L 136.71 131.28 C 137.67 130.88 138.13 129.77 137.73 128.81 C 137.33 127.84 136.22 127.38 135.25 127.79 L 134.29 128.19 C 133.33 128.59 132.87 129.70 133.27 130.66 C 133.67 131.63 134.78 132.09 135.75 131.68 Z M 136.78 131.25 L 137.72 130.81 C 138.67 130.37 139.08 129.24 138.64 128.30 C 138.19 127.35 137.07 126.94 136.12 127.38 L 135.18 127.82 C 134.23 128.26 133.82 129.39 134.26 130.34 C 134.71 131.28 135.83 131.69 136.78 131.25 Z M 137.75 130.80 L 138.61 130.37 C 139.55 129.91 139.94 128.78 139.48 127.84 C 139.02 126.90 137.88 126.52 136.94 126.98 L 136.09 127.40 C 135.15 127.86 134.76 128.99 135.22 129.93 C 135.68 130.87 136.82 131.26 137.75 130.80 Z M 138.60 130.35 L 139.58 129.87 C 140.51 129.41 140.89 128.29 140.43 127.37 C 139.97 126.44 138.86 126.06 137.93 126.52 L 136.95 127.00 C 136.03 127.46 135.65 128.58 136.10 129.50 C 136.56 130.43 137.68 130.81 138.60 130.35 Z M 139.56 129.82 L 140.41 129.40 C 141.31 128.96 141.68 127.87 141.23 126.97 C 140.79 126.07 139.70 125.70 138.80 126.14 L 137.95 126.57 C 137.05 127.01 136.68 128.10 137.13 129.00 C 137.57 129.90 138.66 130.27 139.56 129.82 Z M 140.41 129.34 L 141.25 128.91 C 142.12 128.47 142.46 127.41 142.02 126.54 C 141.58 125.67 140.52 125.33 139.65 125.77 L 138.81 126.20 C 137.94 126.64 137.59 127.70 138.04 128.57 C 138.48 129.44 139.54 129.79 140.41 129.34 Z M 141.25 128.87 L 142.07 128.44 C 142.91 127.99 143.23 126.95 142.79 126.11 C 142.35 125.27 141.31 124.95 140.47 125.39 L 139.65 125.82 C 138.81 126.26 138.48 127.30 138.93 128.14 C 139.37 128.99 140.41 129.31 141.25 128.87 Z M 142.06 128.40 L 142.95 127.92 C 143.77 127.48 144.08 126.46 143.64 125.64 C 143.20 124.82 142.18 124.51 141.36 124.95 L 140.47 125.43 C 139.65 125.87 139.34 126.89 139.78 127.71 C 140.22 128.53 141.24 128.84 142.06 128.40 Z M 142.94 127.89 L 143.87 127.39 C 144.67 126.95 144.97 125.95 144.54 125.15 C 144.10 124.34 143.10 124.04 142.30 124.48 L 141.37 124.98 C 140.56 125.42 140.26 126.42 140.70 127.22 C 141.13 128.03 142.14 128.33 142.94 127.89 Z M 143.86 127.37 L 144.13 127.22 C 144.92 126.79 145.22 125.80 144.79 125.01 C 144.36 124.22 143.36 123.92 142.57 124.35 L 142.30 124.50 C 141.51 124.93 141.22 125.92 141.65 126.71 C 142.08 127.51 143.07 127.80 143.86 127.37 Z"
      fill="black"
      fill-rule="nonzero" /><path d="M 129.83 130.50 L 129.98 131.49 C 130.12 132.41 130.99 133.04 131.91 132.90 C 132.84 132.76 133.47 131.89 133.33 130.97 L 133.17 129.98 C 133.03 129.06 132.16 128.42 131.24 128.57 C 130.32 128.71 129.68 129.57 129.83 130.50 Z M 129.94 131.40 L 130.04 132.40 C 130.13 133.34 130.98 134.03 131.93 133.94 C 132.88 133.84 133.57 132.99 133.47 132.04 L 133.37 131.05 C 133.27 130.10 132.43 129.41 131.48 129.51 C 130.53 129.61 129.84 130.45 129.94 131.40 Z M 130.00 132.22 L 130.01 133.21 C 130.01 134.18 130.79 134.96 131.76 134.96 C 132.73 134.96 133.51 134.17 133.51 133.21 L 133.50 132.22 C 133.50 131.25 132.72 130.47 131.75 130.47 C 130.78 130.47 130.00 131.26 130.00 132.22 Z M 130.01 133.02 L 129.90 134.01 C 129.79 134.98 130.49 135.84 131.46 135.95 C 132.42 136.06 133.29 135.36 133.40 134.39 L 133.50 133.40 C 133.61 132.44 132.91 131.57 131.95 131.46 C 130.98 131.36 130.12 132.05 130.01 133.02 Z M 129.93 133.83 L 129.73 134.77 C 129.52 135.72 130.13 136.66 131.08 136.86 C 132.03 137.06 132.96 136.46 133.17 135.51 L 133.37 134.57 C 133.57 133.62 132.97 132.69 132.02 132.48 C 131.07 132.28 130.13 132.88 129.93 133.83 Z M 129.76 134.64 L 129.51 135.47 C 129.23 136.41 129.76 137.38 130.69 137.66 C 131.63 137.94 132.60 137.41 132.88 136.48 L 133.13 135.64 C 133.41 134.71 132.88 133.73 131.95 133.45 C 131.02 133.18 130.04 133.71 129.76 134.64 Z M 129.54 135.40 L 129.20 136.38 C 128.89 137.29 129.37 138.29 130.29 138.61 C 131.21 138.92 132.20 138.44 132.52 137.52 L 132.86 136.55 C 133.17 135.63 132.69 134.63 131.77 134.32 C 130.85 134.00 129.85 134.49 129.54 135.40 Z M 129.21 136.36 L 128.84 137.40 C 128.51 138.31 128.98 139.31 129.89 139.64 C 130.80 139.97 131.81 139.50 132.14 138.58 L 132.51 137.54 C 132.84 136.63 132.37 135.63 131.46 135.30 C 130.54 134.97 129.54 135.44 129.21 136.36 Z M 128.84 137.40 L 128.51 138.29 C 128.19 139.20 128.66 140.21 129.57 140.53 C 130.48 140.86 131.48 140.39 131.81 139.48 L 132.14 138.59 C 132.47 137.68 131.99 136.67 131.08 136.34 C 130.17 136.01 129.17 136.48 128.84 137.40 Z M 128.51 138.29 L 128.16 139.25 C 127.83 140.16 128.31 141.17 129.22 141.50 C 130.13 141.83 131.14 141.36 131.47 140.44 L 131.82 139.48 C 132.15 138.57 131.67 137.56 130.76 137.23 C 129.85 136.90 128.84 137.38 128.51 138.29 Z M 128.16 139.24 L 127.81 140.23 C 127.47 141.14 127.94 142.15 128.86 142.48 C 129.77 142.82 130.78 142.34 131.11 141.43 L 131.47 140.45 C 131.80 139.54 131.33 138.53 130.42 138.19 C 129.51 137.86 128.50 138.33 128.16 139.24 Z M 127.80 140.22 L 127.45 141.18 C 127.12 142.10 127.58 143.11 128.50 143.45 C 129.41 143.78 130.42 143.31 130.76 142.40 L 131.11 141.44 C 131.45 140.52 130.98 139.51 130.07 139.18 C 129.15 138.84 128.14 139.31 127.80 140.22 Z M 127.45 141.18 L 127.07 142.21 C 126.72 143.12 127.19 144.14 128.10 144.48 C 129.02 144.82 130.04 144.35 130.38 143.44 L 130.76 142.41 C 131.10 141.50 130.64 140.48 129.72 140.14 C 128.81 139.80 127.79 140.26 127.45 141.18 Z M 127.06 142.19 L 126.69 143.17 C 126.34 144.08 126.80 145.11 127.72 145.46 C 128.63 145.81 129.66 145.35 130.01 144.43 L 130.38 143.45 C 130.73 142.54 130.27 141.51 129.35 141.16 C 128.44 140.82 127.41 141.27 127.06 142.19 Z M 126.69 143.15 L 126.34 144.04 C 125.98 144.96 126.43 145.99 127.35 146.35 C 128.26 146.71 129.30 146.26 129.65 145.35 L 130.01 144.45 C 130.37 143.53 129.92 142.50 129.00 142.14 C 128.08 141.78 127.05 142.23 126.69 143.15 Z M 126.34 144.02 L 126.00 144.85 C 125.63 145.77 126.07 146.81 126.98 147.19 C 127.90 147.56 128.94 147.12 129.32 146.20 L 129.65 145.37 C 130.03 144.45 129.59 143.41 128.67 143.04 C 127.76 142.67 126.71 143.11 126.34 144.02 Z M 126.00 144.83 L 125.59 145.81 C 125.20 146.72 125.63 147.78 126.54 148.16 C 127.45 148.55 128.51 148.12 128.90 147.21 L 129.31 146.23 C 129.70 145.32 129.27 144.26 128.36 143.87 C 127.45 143.49 126.39 143.91 126.00 144.83 Z M 125.59 145.79 L 125.19 146.71 C 124.79 147.62 125.20 148.68 126.12 149.08 C 127.03 149.48 128.09 149.07 128.49 148.15 L 128.89 147.23 C 129.29 146.32 128.88 145.26 127.96 144.86 C 127.05 144.46 125.99 144.88 125.59 145.79 Z M 125.18 146.70 L 124.81 147.55 C 124.41 148.47 124.83 149.53 125.74 149.93 C 126.65 150.34 127.72 149.92 128.12 149.01 L 128.49 148.16 C 128.90 147.24 128.48 146.18 127.57 145.78 C 126.65 145.37 125.58 145.79 125.18 146.70 Z M 124.78 147.62 L 124.32 148.79 C 123.96 149.73 124.42 150.78 125.36 151.14 C 126.29 151.50 127.34 151.04 127.70 150.10 L 128.16 148.93 C 128.52 148.00 128.06 146.95 127.12 146.59 C 126.19 146.22 125.14 146.69 124.78 147.62 Z M 124.28 150.01 L 124.42 150.44 C 124.73 151.39 125.75 151.92 126.71 151.61 C 127.67 151.30 128.19 150.28 127.88 149.32 L 127.75 148.89 C 127.44 147.93 126.41 147.41 125.45 147.72 C 124.50 148.02 123.97 149.05 124.28 150.01 Z M 126.96 151.51 L 127.69 151.16 C 128.59 150.71 128.96 149.61 128.51 148.71 C 128.06 147.81 126.97 147.44 126.06 147.89 L 125.34 148.24 C 124.44 148.69 124.07 149.79 124.52 150.69 C 124.97 151.59 126.06 151.96 126.96 151.51 Z M 127.93 151.02 L 128.98 150.28 C 129.80 149.70 130.00 148.56 129.42 147.73 C 128.84 146.90 127.70 146.71 126.87 147.29 L 125.82 148.02 C 125.00 148.61 124.80 149.75 125.38 150.57 C 125.96 151.40 127.10 151.60 127.93 151.02 Z M 129.01 150.26 L 129.79 149.68 C 130.61 149.08 130.78 147.94 130.19 147.12 C 129.59 146.31 128.44 146.13 127.63 146.73 L 126.84 147.31 C 126.02 147.91 125.85 149.05 126.45 149.87 C 127.05 150.68 128.19 150.86 129.01 150.26 Z M 129.79 149.69 L 130.59 149.10 C 131.41 148.50 131.59 147.36 130.99 146.54 C 130.40 145.72 129.25 145.54 128.44 146.14 L 127.63 146.73 C 126.81 147.32 126.63 148.47 127.23 149.28 C 127.83 150.10 128.97 150.28 129.79 149.69 Z M 130.57 149.11 L 131.41 148.52 C 132.24 147.94 132.43 146.79 131.85 145.97 C 131.26 145.14 130.12 144.95 129.29 145.53 L 128.46 146.12 C 127.63 146.71 127.44 147.85 128.02 148.68 C 128.61 149.50 129.75 149.70 130.57 149.11 Z M 131.38 148.54 L 132.21 147.98 C 133.05 147.41 133.27 146.27 132.70 145.43 C 132.14 144.60 131.00 144.38 130.16 144.94 L 129.32 145.51 C 128.49 146.08 128.27 147.22 128.83 148.05 C 129.40 148.89 130.54 149.11 131.38 148.54 Z M 132.18 148.00 L 133.02 147.46 C 133.87 146.91 134.12 145.78 133.57 144.92 C 133.02 144.07 131.89 143.83 131.04 144.38 L 130.19 144.92 C 129.34 145.47 129.10 146.60 129.65 147.45 C 130.19 148.30 131.33 148.55 132.18 148.00 Z M 132.99 147.48 L 133.84 146.95 C 134.71 146.42 134.98 145.30 134.45 144.43 C 133.92 143.57 132.79 143.30 131.93 143.83 L 131.07 144.36 C 130.21 144.88 129.94 146.01 130.47 146.87 C 131.00 147.74 132.13 148.01 132.99 147.48 Z M 133.81 146.97 L 134.68 146.47 C 135.55 145.96 135.85 144.84 135.34 143.96 C 134.83 143.09 133.71 142.79 132.84 143.30 L 131.97 143.81 C 131.09 144.32 130.80 145.44 131.30 146.31 C 131.81 147.19 132.93 147.48 133.81 146.97 Z M 134.64 146.49 L 135.55 145.99 C 136.44 145.51 136.77 144.39 136.28 143.51 C 135.80 142.62 134.68 142.29 133.79 142.78 L 132.88 143.28 C 131.99 143.76 131.66 144.87 132.15 145.76 C 132.64 146.65 133.75 146.98 134.64 146.49 Z M 135.49 146.03 L 136.39 145.58 C 137.29 145.13 137.66 144.03 137.21 143.12 C 136.76 142.21 135.66 141.84 134.75 142.30 L 133.85 142.74 C 132.95 143.19 132.58 144.30 133.03 145.20 C 133.48 146.11 134.59 146.48 135.49 146.03 Z M 136.30 145.62 L 137.17 145.24 C 138.10 144.84 138.53 143.75 138.12 142.82 C 137.71 141.89 136.63 141.47 135.70 141.88 L 134.83 142.26 C 133.90 142.66 133.48 143.74 133.89 144.67 C 134.29 145.60 135.37 146.03 136.30 145.62 Z M 137.05 145.30 L 138.04 144.95 C 139.00 144.61 139.50 143.56 139.16 142.60 C 138.82 141.64 137.77 141.14 136.81 141.47 L 135.82 141.82 C 134.86 142.16 134.36 143.21 134.70 144.17 C 135.04 145.13 136.09 145.63 137.05 145.30 Z M 137.88 145.00 L 138.84 144.76 C 139.83 144.51 140.42 143.50 140.17 142.51 C 139.92 141.52 138.91 140.92 137.92 141.17 L 136.97 141.42 C 135.98 141.67 135.38 142.68 135.63 143.67 C 135.89 144.66 136.89 145.25 137.88 145.00 Z M 138.66 144.80 L 139.62 144.65 C 140.64 144.50 141.33 143.55 141.18 142.54 C 141.02 141.52 140.07 140.83 139.06 140.98 L 138.10 141.13 C 137.08 141.29 136.39 142.24 136.55 143.25 C 136.70 144.26 137.65 144.96 138.66 144.80 Z M 139.37 144.69 L 140.38 144.67 C 141.42 144.65 142.24 143.80 142.22 142.77 C 142.20 141.74 141.35 140.92 140.32 140.93 L 139.31 140.95 C 138.28 140.97 137.46 141.82 137.48 142.85 C 137.49 143.88 138.34 144.70 139.37 144.69 Z M 139.92 144.63 L 140.87 144.85 C 141.88 145.09 142.89 144.47 143.13 143.46 C 143.37 142.45 142.74 141.44 141.73 141.20 L 140.79 140.97 C 139.78 140.73 138.76 141.36 138.52 142.37 C 138.29 143.38 138.91 144.39 139.92 144.63 Z M 140.30 144.62 L 141.05 145.09 C 141.93 145.64 143.09 145.37 143.64 144.49 C 144.20 143.61 143.93 142.45 143.05 141.90 L 142.30 141.43 C 141.42 140.88 140.25 141.15 139.70 142.03 C 139.15 142.91 139.42 144.07 140.30 144.62 Z M 140.66 144.76 L 141.32 145.48 C 142.02 146.24 143.20 146.29 143.97 145.59 C 144.73 144.90 144.79 143.71 144.09 142.95 L 143.43 142.23 C 142.73 141.46 141.55 141.41 140.78 142.11 C 140.02 142.81 139.97 143.99 140.66 144.76 Z M 141.11 145.19 L 141.70 146.15 C 142.24 147.03 143.39 147.31 144.27 146.77 C 145.15 146.23 145.42 145.08 144.89 144.20 L 144.29 143.24 C 143.76 142.36 142.61 142.08 141.73 142.62 C 140.85 143.16 140.57 144.31 141.11 145.19 Z M 141.60 145.97 L 142.01 146.85 C 142.45 147.78 143.56 148.18 144.50 147.75 C 145.43 147.31 145.83 146.20 145.40 145.27 L 144.99 144.39 C 144.55 143.45 143.44 143.05 142.51 143.49 C 141.57 143.92 141.17 145.03 141.60 145.97 Z M 141.96 146.74 L 142.34 147.70 C 142.72 148.67 143.81 149.14 144.77 148.76 C 145.73 148.38 146.21 147.29 145.83 146.33 L 145.45 145.37 C 145.07 144.41 143.98 143.93 143.02 144.31 C 142.05 144.69 141.58 145.78 141.96 146.74 Z M 142.30 147.63 L 142.64 148.60 C 142.98 149.58 144.05 150.10 145.04 149.76 C 146.02 149.42 146.54 148.35 146.20 147.36 L 145.86 146.40 C 145.52 145.41 144.45 144.89 143.46 145.23 C 142.48 145.57 141.96 146.65 142.30 147.63 Z M 142.61 148.55 L 142.91 149.52 C 143.23 150.52 144.29 151.07 145.29 150.76 C 146.29 150.45 146.85 149.38 146.53 148.38 L 146.23 147.41 C 145.91 146.41 144.85 145.86 143.85 146.17 C 142.85 146.48 142.29 147.55 142.61 148.55 Z M 142.88 149.47 L 143.17 150.49 C 143.46 151.50 144.51 152.09 145.53 151.81 C 146.54 151.52 147.13 150.47 146.85 149.45 L 146.56 148.43 C 146.27 147.42 145.22 146.83 144.21 147.11 C 143.19 147.40 142.60 148.45 142.88 149.47 Z M 143.14 150.41 L 143.36 151.35 C 143.60 152.38 144.64 153.02 145.67 152.77 C 146.70 152.53 147.34 151.49 147.10 150.46 L 146.88 149.53 C 146.63 148.49 145.60 147.85 144.57 148.10 C 143.53 148.34 142.89 149.38 143.14 150.41 Z M 143.33 151.26 L 143.50 152.18 C 143.69 153.23 144.70 153.92 145.75 153.73 C 146.80 153.53 147.50 152.52 147.30 151.47 L 147.13 150.55 C 146.94 149.50 145.93 148.81 144.88 149.00 C 143.83 149.20 143.13 150.21 143.33 151.26 Z M 143.47 152.09 L 143.61 153.06 C 143.75 154.13 144.73 154.87 145.80 154.72 C 146.86 154.58 147.61 153.60 147.46 152.53 L 147.33 151.56 C 147.18 150.49 146.20 149.75 145.13 149.89 C 144.07 150.04 143.32 151.02 143.47 152.09 Z M 143.59 152.99 L 143.68 153.99 C 143.79 155.07 144.75 155.85 145.82 155.75 C 146.90 155.64 147.69 154.68 147.58 153.61 L 147.48 152.60 C 147.38 151.53 146.42 150.74 145.34 150.85 C 144.27 150.95 143.48 151.91 143.59 152.99 Z M 143.67 153.93 L 143.74 154.93 C 143.81 156.02 144.75 156.84 145.84 156.76 C 146.92 156.69 147.74 155.75 147.67 154.66 L 147.60 153.66 C 147.52 152.58 146.58 151.76 145.50 151.83 C 144.41 151.91 143.59 152.85 143.67 153.93 Z M 143.72 154.89 L 143.77 155.87 C 143.83 156.96 144.75 157.80 145.85 157.75 C 146.94 157.70 147.78 156.77 147.73 155.68 L 147.68 154.70 C 147.63 153.61 146.70 152.77 145.61 152.82 C 144.51 152.87 143.67 153.80 143.72 154.89 Z M 143.76 155.84 L 143.79 156.85 C 143.83 157.94 144.75 158.81 145.85 158.77 C 146.95 158.73 147.81 157.82 147.77 156.72 L 147.74 155.71 C 147.70 154.61 146.78 153.75 145.69 153.78 C 144.59 153.82 143.73 154.74 143.76 155.84 Z M 143.78 156.82 L 143.80 157.84 C 143.82 158.94 144.74 159.82 145.84 159.80 C 146.95 159.78 147.82 158.87 147.80 157.76 L 147.78 156.74 C 147.76 155.64 146.85 154.76 145.74 154.78 C 144.64 154.80 143.76 155.72 143.78 156.82 Z M 143.79 157.82 L 143.80 158.79 C 143.81 159.90 144.72 160.79 145.83 160.77 C 146.94 160.76 147.83 159.85 147.82 158.74 L 147.81 157.78 C 147.80 156.67 146.89 155.78 145.78 155.79 C 144.67 155.80 143.78 156.71 143.79 157.82 Z M 143.79 158.77 L 143.80 159.77 C 143.80 160.89 144.71 161.79 145.82 161.78 C 146.94 161.78 147.84 160.87 147.84 159.75 L 147.83 158.76 C 147.83 157.64 146.92 156.74 145.80 156.75 C 144.69 156.75 143.79 157.66 143.79 158.77 Z M 143.79 159.76 L 143.79 160.80 C 143.79 161.92 144.70 162.83 145.82 162.82 C 146.94 162.82 147.85 161.91 147.85 160.79 L 147.85 159.76 C 147.84 158.64 146.94 157.73 145.81 157.73 C 144.69 157.73 143.79 158.64 143.79 159.76 Z M 143.78 160.79 L 143.78 161.78 C 143.78 162.91 144.69 163.82 145.82 163.82 C 146.94 163.82 147.85 162.91 147.85 161.78 L 147.86 160.80 C 147.86 159.67 146.94 158.76 145.82 158.76 C 144.69 158.76 143.78 159.67 143.78 160.79 Z M 143.77 161.78 L 143.77 162.76 C 143.77 163.89 144.68 164.81 145.81 164.81 C 146.94 164.81 147.86 163.90 147.86 162.77 L 147.86 161.79 C 147.86 160.66 146.95 159.74 145.82 159.74 C 144.69 159.73 143.78 160.65 143.77 161.78 Z M 143.76 162.75 L 143.76 163.76 C 143.75 164.89 144.66 165.81 145.79 165.82 C 146.92 165.83 147.85 164.92 147.86 163.79 L 147.87 162.78 C 147.87 161.65 146.96 160.72 145.83 160.71 C 144.70 160.70 143.77 161.62 143.76 162.75 Z M 143.75 163.74 L 143.73 164.77 C 143.72 165.90 144.62 166.84 145.76 166.86 C 146.89 166.88 147.83 165.97 147.85 164.83 L 147.86 163.80 C 147.88 162.67 146.98 161.73 145.84 161.71 C 144.70 161.70 143.77 162.60 143.75 163.74 Z M 143.72 164.75 L 143.70 165.73 C 143.67 166.87 144.57 167.82 145.71 167.85 C 146.85 167.88 147.80 166.98 147.83 165.84 L 147.86 164.86 C 147.89 163.72 146.99 162.77 145.85 162.74 C 144.70 162.71 143.76 163.61 143.72 164.75 Z M 143.69 165.70 L 143.65 166.68 C 143.60 167.82 144.50 168.79 145.64 168.84 C 146.79 168.88 147.76 167.99 147.80 166.84 L 147.84 165.87 C 147.89 164.72 146.99 163.75 145.85 163.71 C 144.70 163.66 143.73 164.55 143.69 165.70 Z M 143.64 166.64 L 143.58 167.64 C 143.52 168.80 144.40 169.78 145.56 169.85 C 146.71 169.91 147.70 169.03 147.76 167.87 L 147.81 166.88 C 147.88 165.72 146.99 164.74 145.84 164.67 C 144.69 164.61 143.70 165.49 143.64 166.64 Z M 143.57 167.60 L 143.50 168.63 C 143.41 169.79 144.28 170.79 145.44 170.88 C 146.60 170.96 147.61 170.09 147.69 168.93 L 147.77 167.91 C 147.85 166.75 146.98 165.74 145.82 165.66 C 144.67 165.57 143.66 166.45 143.57 167.60 Z M 143.49 168.58 L 143.39 169.61 C 143.28 170.77 144.14 171.80 145.31 171.91 C 146.47 172.02 147.50 171.16 147.61 170.00 L 147.70 168.98 C 147.81 167.81 146.96 166.78 145.79 166.67 C 144.63 166.56 143.60 167.42 143.49 168.58 Z M 143.38 169.56 L 143.27 170.57 C 143.14 171.74 143.98 172.79 145.15 172.93 C 146.32 173.06 147.38 172.21 147.51 171.04 L 147.62 170.04 C 147.75 168.87 146.91 167.81 145.74 167.68 C 144.57 167.55 143.51 168.39 143.38 169.56 Z M 143.25 170.53 L 143.12 171.54 C 142.97 172.71 143.80 173.79 144.98 173.95 C 146.16 174.10 147.24 173.27 147.39 172.09 L 147.52 171.08 C 147.68 169.90 146.84 168.82 145.67 168.67 C 144.49 168.52 143.41 169.35 143.25 170.53 Z M 143.11 171.50 L 142.97 172.49 C 142.79 173.68 143.61 174.78 144.80 174.95 C 145.98 175.13 147.08 174.31 147.26 173.12 L 147.40 172.13 C 147.58 170.94 146.76 169.84 145.57 169.67 C 144.39 169.49 143.29 170.31 143.11 171.50 Z M 142.95 172.45 L 142.80 173.42 C 142.60 174.61 143.41 175.73 144.60 175.93 C 145.79 176.12 146.92 175.32 147.11 174.13 L 147.27 173.16 C 147.47 171.97 146.66 170.84 145.47 170.65 C 144.27 170.45 143.15 171.26 142.95 172.45 Z M 142.79 173.37 L 142.60 174.40 C 142.38 175.60 143.17 176.75 144.37 176.97 C 145.56 177.18 146.71 176.39 146.93 175.20 L 147.12 174.17 C 147.34 172.97 146.55 171.82 145.35 171.60 C 144.15 171.39 143.01 172.18 142.79 173.37 Z M 142.59 174.36 L 142.39 175.36 C 142.15 176.55 142.92 177.72 144.12 177.97 C 145.32 178.21 146.49 177.44 146.73 176.24 L 146.94 175.24 C 147.18 174.04 146.41 172.87 145.21 172.63 C 144.01 172.38 142.84 173.16 142.59 174.36 Z M 142.39 175.32 L 142.17 176.27 C 141.91 177.48 142.67 178.67 143.87 178.93 C 145.07 179.20 146.26 178.44 146.53 177.24 L 146.74 176.28 C 147.00 175.08 146.25 173.89 145.04 173.62 C 143.84 173.35 142.65 174.11 142.39 175.32 Z M 142.17 176.24 L 141.95 177.17 C 141.66 178.38 142.41 179.59 143.62 179.87 C 144.82 180.15 146.03 179.41 146.31 178.20 L 146.53 177.27 C 146.82 176.07 146.07 174.86 144.86 174.57 C 143.66 174.29 142.45 175.04 142.17 176.24 Z M 141.94 177.15 L 141.70 178.14 C 141.40 179.35 142.13 180.57 143.34 180.87 C 144.55 181.17 145.78 180.43 146.07 179.22 L 146.32 178.23 C 146.62 177.02 145.88 175.80 144.67 175.50 C 143.46 175.20 142.24 175.94 141.94 177.15 Z M 141.69 178.11 L 141.43 179.09 C 141.12 180.31 141.85 181.55 143.06 181.86 C 144.27 182.18 145.51 181.45 145.83 180.23 L 146.08 179.25 C 146.40 178.04 145.67 176.80 144.46 176.48 C 143.24 176.17 142.00 176.89 141.69 178.11 Z M 141.43 179.06 L 141.16 180.01 C 140.83 181.23 141.54 182.48 142.76 182.82 C 143.98 183.15 145.23 182.44 145.57 181.22 L 145.83 180.27 C 146.17 179.06 145.45 177.80 144.24 177.46 C 143.02 177.13 141.76 177.84 141.43 179.06 Z M 141.16 179.97 L 140.89 180.90 C 140.53 182.12 141.22 183.39 142.44 183.75 C 143.65 184.12 144.93 183.42 145.29 182.20 L 145.57 181.27 C 145.93 180.05 145.24 178.77 144.02 178.41 C 142.80 178.05 141.52 178.75 141.16 179.97 Z M 140.89 180.84 L 140.57 181.84 C 140.18 183.05 140.84 184.36 142.06 184.75 C 143.27 185.14 144.58 184.47 144.97 183.26 L 145.29 182.26 C 145.68 181.05 145.02 179.74 143.80 179.35 C 142.59 178.96 141.28 179.63 140.89 180.84 Z M 140.58 181.77 L 140.24 182.71 C 139.82 183.92 140.45 185.25 141.66 185.68 C 142.87 186.11 144.20 185.47 144.63 184.26 L 144.96 183.32 C 145.39 182.11 144.76 180.78 143.54 180.35 C 142.33 179.93 141.00 180.56 140.58 181.77 Z M 140.25 182.64 L 139.91 183.52 C 139.45 184.73 140.05 186.08 141.25 186.55 C 142.46 187.02 143.81 186.42 144.28 185.21 L 144.62 184.33 C 145.09 183.12 144.49 181.77 143.28 181.30 C 142.08 180.83 140.72 181.43 140.25 182.64 Z M 139.93 183.45 L 139.52 184.42 C 139.01 185.62 139.57 187.00 140.77 187.51 C 141.96 188.01 143.34 187.45 143.85 186.26 L 144.26 185.29 C 144.77 184.09 144.21 182.71 143.01 182.20 C 141.82 181.69 140.44 182.25 139.93 183.45 Z M 139.54 184.35 L 139.12 185.25 C 138.57 186.44 139.09 187.84 140.28 188.39 C 141.46 188.93 142.87 188.42 143.42 187.23 L 143.83 186.33 C 144.38 185.14 143.86 183.74 142.67 183.19 C 141.49 182.65 140.08 183.16 139.54 184.35 Z M 139.14 185.18 L 138.71 186.05 C 138.12 187.23 138.60 188.65 139.78 189.24 C 140.95 189.82 142.38 189.34 142.96 188.17 L 143.40 187.30 C 143.98 186.12 143.50 184.70 142.33 184.11 C 141.15 183.53 139.72 184.01 139.14 185.18 Z M 138.73 185.98 L 138.26 186.87 C 137.63 188.03 138.07 189.48 139.23 190.10 C 140.40 190.72 141.84 190.29 142.47 189.12 L 142.94 188.24 C 143.56 187.08 143.13 185.63 141.96 185.01 C 140.80 184.38 139.35 184.82 138.73 185.98 Z M 138.29 186.79 L 137.80 187.63 C 137.13 188.78 137.52 190.25 138.67 190.91 C 139.81 191.58 141.28 191.19 141.95 190.04 L 142.43 189.20 C 143.10 188.06 142.71 186.59 141.57 185.92 C 140.42 185.26 138.95 185.65 138.29 186.79 Z M 137.84 187.55 L 137.31 188.38 C 136.60 189.51 136.93 191.00 138.06 191.71 C 139.18 192.42 140.67 192.09 141.38 190.96 L 141.91 190.13 C 142.62 189.00 142.28 187.51 141.16 186.80 C 140.04 186.09 138.55 186.43 137.84 187.55 Z M 137.38 188.26 L 136.79 189.07 C 136.01 190.16 136.25 191.67 137.34 192.45 C 138.42 193.23 139.93 192.99 140.71 191.91 L 141.31 191.09 C 142.09 190.01 141.84 188.49 140.76 187.71 C 139.68 186.93 138.17 187.17 137.38 188.26 Z M 136.92 188.91 L 136.27 189.65 C 135.40 190.67 135.51 192.20 136.52 193.08 C 137.54 193.95 139.07 193.84 139.95 192.82 L 140.59 192.08 C 141.47 191.06 141.35 189.53 140.34 188.65 C 139.32 187.78 137.79 187.89 136.92 188.91 Z M 136.45 189.46 L 135.72 190.14 C 134.74 191.06 134.68 192.60 135.60 193.58 C 136.51 194.56 138.05 194.62 139.03 193.70 L 139.77 193.02 C 140.75 192.10 140.80 190.56 139.89 189.58 C 138.97 188.60 137.43 188.55 136.45 189.46 Z M 135.97 189.93 L 135.10 190.55 C 134.01 191.32 133.75 192.84 134.52 193.94 C 135.30 195.04 136.82 195.30 137.92 194.52 L 138.78 193.91 C 139.88 193.13 140.14 191.61 139.36 190.51 C 138.59 189.42 137.07 189.16 135.97 189.93 Z M 135.53 190.30 L 134.57 190.72 C 133.34 191.26 132.78 192.70 133.32 193.93 C 133.86 195.17 135.30 195.73 136.53 195.19 L 137.49 194.77 C 138.72 194.23 139.28 192.79 138.74 191.56 C 138.20 190.32 136.76 189.76 135.53 190.30 Z M 135.66 190.53 L 134.84 190.49 C 133.50 190.43 132.36 191.46 132.30 192.80 C 132.23 194.14 133.27 195.28 134.61 195.34 L 135.44 195.38 C 136.78 195.44 137.92 194.41 137.98 193.07 C 138.04 191.73 137.01 190.59 135.66 190.53 Z M 136.38 191.19 L 135.78 190.61 C 134.83 189.70 133.31 189.73 132.40 190.69 C 131.48 191.64 131.51 193.16 132.47 194.07 L 133.07 194.64 C 134.02 195.56 135.54 195.53 136.45 194.57 C 137.37 193.62 137.33 192.10 136.38 191.19 Z M 136.17 191.21 L 135.62 190.22 C 134.99 189.10 133.57 188.69 132.45 189.31 C 131.32 189.94 130.91 191.36 131.54 192.49 L 132.08 193.47 C 132.71 194.60 134.13 195.01 135.26 194.38 C 136.38 193.76 136.79 192.34 136.17 191.21 Z M 135.58 190.35 L 135.13 189.45 C 134.58 188.35 133.23 187.90 132.12 188.45 C 131.02 189.01 130.57 190.36 131.12 191.46 L 131.57 192.36 C 132.13 193.47 133.48 193.91 134.58 193.36 C 135.69 192.80 136.14 191.46 135.58 190.35 Z M 135.01 189.51 L 134.56 188.62 C 134.04 187.58 132.78 187.15 131.73 187.68 C 130.69 188.20 130.27 189.47 130.79 190.51 L 131.24 191.40 C 131.76 192.44 133.03 192.87 134.07 192.34 C 135.11 191.82 135.53 190.55 135.01 189.51 Z M 134.45 188.69 L 133.99 187.77 C 133.51 186.79 132.33 186.39 131.36 186.86 C 130.38 187.34 129.98 188.52 130.45 189.50 L 130.91 190.43 C 131.39 191.41 132.57 191.81 133.55 191.33 C 134.52 190.85 134.93 189.67 134.45 188.69 Z M 133.89 187.85 L 133.45 186.92 C 133.01 186.00 131.92 185.60 131.00 186.04 C 130.08 186.47 129.69 187.56 130.12 188.48 L 130.56 189.42 C 130.99 190.33 132.09 190.73 133.01 190.30 C 133.92 189.86 134.32 188.77 133.89 187.85 Z M 133.38 186.99 L 132.96 186.05 C 132.57 185.17 131.54 184.77 130.66 185.16 C 129.78 185.55 129.38 186.58 129.77 187.46 L 130.19 188.41 C 130.58 189.29 131.61 189.68 132.49 189.29 C 133.37 188.90 133.77 187.87 133.38 186.99 Z M 132.92 186.10 L 132.53 185.19 C 132.17 184.34 131.18 183.93 130.33 184.29 C 129.47 184.66 129.07 185.64 129.43 186.50 L 129.82 187.41 C 130.18 188.27 131.16 188.67 132.02 188.31 C 132.87 187.95 133.28 186.96 132.92 186.10 Z M 132.48 185.23 L 132.11 184.33 C 131.77 183.51 130.83 183.11 130.00 183.45 C 129.17 183.79 128.78 184.73 129.12 185.56 L 129.48 186.46 C 129.82 187.28 130.77 187.68 131.59 187.34 C 132.42 187.00 132.82 186.06 132.48 185.23 Z M 132.08 184.35 L 132.02 184.20 C 131.69 183.39 130.77 183.00 129.96 183.33 C 129.15 183.66 128.76 184.58 129.09 185.39 L 129.15 185.54 C 129.48 186.35 130.40 186.74 131.21 186.41 C 132.02 186.08 132.41 185.16 132.08 184.35 Z"
      fill="black"
      fill-rule="nonzero" /><path d="M 163.29 115.15 L 164.25 114.96 C 165.22 114.78 165.86 113.85 165.68 112.88 C 165.50 111.91 164.56 111.27 163.59 111.46 L 162.63 111.64 C 161.66 111.82 161.02 112.75 161.20 113.72 C 161.39 114.69 162.32 115.33 163.29 115.15 Z M 164.29 114.96 L 165.27 114.75 C 166.23 114.55 166.85 113.60 166.65 112.63 C 166.44 111.67 165.50 111.05 164.53 111.25 L 163.55 111.46 C 162.59 111.66 161.97 112.61 162.17 113.58 C 162.38 114.55 163.33 115.16 164.29 114.96 Z M 165.34 114.74 L 166.32 114.49 C 167.28 114.24 167.86 113.27 167.61 112.31 C 167.37 111.35 166.39 110.78 165.43 111.02 L 164.46 111.27 C 163.50 111.51 162.92 112.49 163.16 113.45 C 163.41 114.40 164.38 114.98 165.34 114.74 Z M 166.40 114.47 L 167.33 114.18 C 168.28 113.89 168.81 112.89 168.52 111.94 C 168.22 111.00 167.22 110.47 166.28 110.76 L 165.35 111.04 C 164.40 111.33 163.87 112.33 164.16 113.28 C 164.45 114.23 165.46 114.76 166.40 114.47 Z M 167.39 114.16 L 168.35 113.83 C 169.28 113.50 169.77 112.48 169.45 111.55 C 169.12 110.61 168.10 110.12 167.16 110.44 L 166.21 110.78 C 165.28 111.10 164.78 112.12 165.11 113.06 C 165.44 113.99 166.46 114.49 167.39 114.16 Z M 168.39 113.81 L 169.36 113.45 C 170.29 113.09 170.75 112.06 170.40 111.13 C 170.05 110.20 169.01 109.74 168.08 110.09 L 167.12 110.46 C 166.19 110.81 165.72 111.85 166.08 112.78 C 166.43 113.70 167.47 114.17 168.39 113.81 Z M 169.39 113.44 L 170.32 113.06 C 171.24 112.69 171.69 111.65 171.32 110.72 C 170.95 109.80 169.90 109.36 168.98 109.73 L 168.05 110.10 C 167.13 110.47 166.68 111.52 167.05 112.44 C 167.42 113.36 168.47 113.81 169.39 113.44 Z M 170.33 113.07 L 171.27 112.69 C 172.19 112.31 172.63 111.26 172.26 110.33 C 171.88 109.41 170.83 108.97 169.91 109.34 L 168.97 109.72 C 168.05 110.10 167.60 111.15 167.98 112.08 C 168.36 113.00 169.41 113.44 170.33 113.07 Z M 171.25 112.70 L 172.18 112.33 C 173.11 111.96 173.56 110.91 173.19 109.98 C 172.82 109.05 171.77 108.60 170.84 108.97 L 169.92 109.33 C 168.99 109.70 168.53 110.75 168.90 111.68 C 169.27 112.61 170.32 113.07 171.25 112.70 Z M 172.12 112.37 L 173.22 111.98 C 174.18 111.64 174.67 110.60 174.34 109.64 C 174.00 108.69 172.95 108.20 172.00 108.53 L 170.90 108.93 C 169.95 109.26 169.45 110.31 169.79 111.26 C 170.12 112.21 171.17 112.71 172.12 112.37 Z M 172.93 112.09 L 173.89 111.92 C 174.91 111.74 175.58 110.78 175.41 109.77 C 175.23 108.76 174.27 108.08 173.26 108.26 L 172.30 108.43 C 171.29 108.60 170.61 109.56 170.78 110.57 C 170.96 111.58 171.92 112.26 172.93 112.09 Z M 172.80 111.81 L 173.44 112.10 C 174.39 112.52 175.50 112.10 175.93 111.15 C 176.36 110.21 175.94 109.09 174.99 108.66 L 174.35 108.37 C 173.41 107.94 172.29 108.36 171.86 109.31 C 171.43 110.26 171.85 111.38 172.80 111.81 Z M 172.40 110.92 L 172.65 111.76 C 172.95 112.77 174.01 113.33 175.01 113.03 C 176.02 112.73 176.59 111.67 176.28 110.67 L 176.03 109.83 C 175.73 108.83 174.67 108.26 173.67 108.56 C 172.67 108.86 172.10 109.92 172.40 110.92 Z M 172.57 111.19 L 172.55 112.35 C 172.54 113.40 173.38 114.26 174.43 114.27 C 175.48 114.29 176.34 113.45 176.35 112.40 L 176.37 111.24 C 176.38 110.19 175.54 109.33 174.49 109.32 C 173.44 109.30 172.58 110.14 172.57 111.19 Z M 172.56 112.18 L 172.46 113.22 C 172.35 114.27 173.11 115.20 174.16 115.30 C 175.20 115.41 176.13 114.65 176.24 113.60 L 176.34 112.56 C 176.45 111.52 175.69 110.59 174.64 110.48 C 173.60 110.38 172.67 111.14 172.56 112.18 Z M 172.47 113.15 L 172.33 114.16 C 172.18 115.20 172.91 116.16 173.95 116.30 C 174.98 116.45 175.94 115.72 176.09 114.68 L 176.23 113.68 C 176.37 112.64 175.65 111.68 174.61 111.53 C 173.57 111.39 172.61 112.11 172.47 113.15 Z M 172.34 114.11 L 172.18 115.06 C 172.01 116.09 172.70 117.07 173.74 117.24 C 174.77 117.41 175.75 116.71 175.92 115.68 L 176.08 114.73 C 176.25 113.70 175.55 112.72 174.52 112.55 C 173.49 112.38 172.51 113.08 172.34 114.11 Z M 172.19 115.02 L 172.02 115.96 C 171.83 116.99 172.50 117.97 173.53 118.16 C 174.55 118.36 175.54 117.68 175.73 116.66 L 175.90 115.72 C 176.10 114.69 175.42 113.71 174.40 113.51 C 173.37 113.32 172.39 114.00 172.19 115.02 Z M 172.04 115.96 L 171.85 116.91 C 171.66 117.92 172.32 118.91 173.34 119.10 C 174.35 119.30 175.33 118.63 175.53 117.62 L 175.71 116.66 C 175.91 115.65 175.24 114.67 174.23 114.47 C 173.21 114.28 172.23 114.94 172.04 115.96 Z M 171.87 116.93 L 171.68 117.94 C 171.50 118.95 172.16 119.91 173.17 120.10 C 174.17 120.28 175.14 119.62 175.33 118.61 L 175.51 117.60 C 175.70 116.59 175.03 115.63 174.03 115.44 C 173.02 115.26 172.05 115.92 171.87 116.93 Z M 171.70 117.96 L 171.54 118.87 C 171.37 119.87 172.04 120.82 173.03 120.99 C 174.03 121.16 174.98 120.49 175.15 119.50 L 175.31 118.59 C 175.48 117.59 174.81 116.64 173.82 116.47 C 172.82 116.30 171.87 116.97 171.70 117.96 Z M 171.57 118.89 L 171.40 119.88 C 171.24 120.87 171.90 121.80 172.88 121.96 C 173.87 122.13 174.80 121.46 174.96 120.48 L 175.13 119.48 C 175.29 118.50 174.63 117.57 173.64 117.41 C 172.66 117.24 171.73 117.91 171.57 118.89 Z M 171.42 119.89 L 171.25 120.94 C 171.09 121.91 171.75 122.83 172.72 122.99 C 173.69 123.15 174.61 122.49 174.76 121.52 L 174.94 120.47 C 175.09 119.50 174.44 118.59 173.47 118.43 C 172.50 118.27 171.58 118.92 171.42 119.89 Z M 171.27 120.95 L 171.18 121.52 C 171.02 122.48 171.67 123.38 172.63 123.54 C 173.59 123.69 174.50 123.04 174.65 122.08 L 174.74 121.51 C 174.90 120.55 174.25 119.65 173.29 119.49 C 172.33 119.34 171.43 119.99 171.27 120.95 Z"
      fill="black"
      fill-rule="nonzero" /><path d="M 162.19 126.66 L 163.14 126.52 C 164.09 126.37 164.74 125.47 164.59 124.52 C 164.44 123.57 163.55 122.92 162.60 123.07 L 161.65 123.21 C 160.70 123.36 160.05 124.26 160.20 125.21 C 160.35 126.16 161.24 126.81 162.19 126.66 Z M 163.20 126.55 L 164.18 126.36 C 165.15 126.18 165.79 125.24 165.60 124.27 C 165.42 123.30 164.49 122.67 163.52 122.85 L 162.54 123.04 C 161.57 123.22 160.93 124.15 161.11 125.12 C 161.30 126.09 162.23 126.73 163.20 126.55 Z M 164.28 126.38 L 165.27 126.13 C 166.25 125.89 166.85 124.90 166.61 123.93 C 166.37 122.95 165.38 122.35 164.40 122.59 L 163.41 122.84 C 162.43 123.08 161.84 124.06 162.08 125.04 C 162.32 126.02 163.31 126.62 164.28 126.38 Z M 165.37 126.12 L 166.28 125.84 C 167.25 125.55 167.80 124.52 167.50 123.55 C 167.21 122.58 166.18 122.03 165.21 122.33 L 164.30 122.61 C 163.33 122.90 162.79 123.93 163.08 124.90 C 163.38 125.87 164.40 126.41 165.37 126.12 Z M 166.35 125.82 L 167.30 125.48 C 168.26 125.15 168.76 124.11 168.43 123.15 C 168.10 122.20 167.06 121.69 166.10 122.02 L 165.15 122.36 C 164.19 122.69 163.68 123.73 164.02 124.69 C 164.35 125.64 165.39 126.15 166.35 125.82 Z M 167.35 125.46 L 168.34 125.09 C 169.28 124.73 169.76 123.67 169.40 122.73 C 169.04 121.79 167.99 121.31 167.04 121.67 L 166.05 122.05 C 165.11 122.40 164.63 123.46 164.99 124.40 C 165.35 125.35 166.41 125.82 167.35 125.46 Z M 168.37 125.05 L 169.28 124.68 C 170.20 124.31 170.65 123.26 170.28 122.34 C 169.90 121.41 168.85 120.97 167.93 121.34 L 167.02 121.70 C 166.09 122.08 165.65 123.13 166.02 124.05 C 166.39 124.98 167.44 125.42 168.37 125.05 Z M 169.28 124.63 L 170.20 124.25 C 171.10 123.87 171.52 122.84 171.15 121.95 C 170.77 121.05 169.74 120.63 168.84 121.00 L 167.92 121.39 C 167.03 121.76 166.60 122.79 166.98 123.69 C 167.35 124.59 168.39 125.01 169.28 124.63 Z M 170.20 124.20 L 171.13 123.80 C 172.00 123.43 172.40 122.42 172.03 121.55 C 171.66 120.68 170.65 120.28 169.78 120.65 L 168.85 121.05 C 167.98 121.42 167.57 122.43 167.95 123.30 C 168.32 124.17 169.33 124.58 170.20 124.20 Z M 171.12 123.76 L 171.86 123.44 C 172.71 123.07 173.10 122.09 172.74 121.24 C 172.37 120.39 171.38 120.00 170.53 120.37 L 169.79 120.69 C 168.94 121.06 168.55 122.04 168.92 122.89 C 169.28 123.74 170.27 124.13 171.12 123.76 Z"
      fill="black"
      fill-rule="nonzero" /><path d="M 160.92 125.68 L 160.91 126.71 C 160.91 127.68 161.69 128.47 162.66 128.47 C 163.63 128.48 164.42 127.70 164.42 126.73 L 164.43 125.69 C 164.43 124.73 163.65 123.94 162.68 123.93 C 161.71 123.93 160.92 124.71 160.92 125.68 Z M 160.93 126.66 L 160.90 127.67 C 160.86 128.63 161.62 129.43 162.58 129.46 C 163.54 129.50 164.34 128.74 164.37 127.78 L 164.41 126.78 C 164.44 125.82 163.69 125.01 162.73 124.98 C 161.77 124.95 160.96 125.70 160.93 126.66 Z M 160.92 127.56 L 160.82 128.50 C 160.73 129.45 161.43 130.30 162.38 130.39 C 163.33 130.48 164.17 129.78 164.26 128.83 L 164.35 127.89 C 164.45 126.94 163.75 126.10 162.80 126.00 C 161.85 125.91 161.01 126.61 160.92 127.56 Z M 160.86 128.34 L 160.68 129.24 C 160.50 130.17 161.11 131.07 162.04 131.25 C 162.97 131.44 163.88 130.83 164.06 129.90 L 164.23 129.00 C 164.41 128.07 163.81 127.16 162.87 126.98 C 161.94 126.80 161.04 127.41 160.86 128.34 Z M 160.72 129.09 L 160.44 130.04 C 160.18 130.95 160.70 131.90 161.61 132.17 C 162.52 132.43 163.48 131.91 163.74 131.00 L 164.02 130.05 C 164.28 129.14 163.76 128.18 162.85 127.92 C 161.94 127.65 160.98 128.18 160.72 129.09 Z M 160.47 129.96 L 160.13 130.95 C 159.81 131.85 160.29 132.82 161.18 133.13 C 162.08 133.45 163.05 132.97 163.37 132.08 L 163.71 131.08 C 164.02 130.19 163.55 129.21 162.66 128.90 C 161.76 128.59 160.78 129.06 160.47 129.96 Z M 160.14 130.92 L 159.82 131.78 C 159.48 132.67 159.94 133.66 160.82 133.99 C 161.71 134.32 162.70 133.87 163.03 132.98 L 163.35 132.11 C 163.68 131.23 163.23 130.24 162.34 129.91 C 161.46 129.58 160.47 130.03 160.14 130.92 Z M 159.82 131.76 L 159.46 132.69 C 159.11 133.58 159.55 134.57 160.43 134.92 C 161.32 135.26 162.31 134.82 162.66 133.94 L 163.02 133.00 C 163.37 132.12 162.93 131.12 162.05 130.78 C 161.16 130.43 160.17 130.87 159.82 131.76 Z M 159.47 132.67 L 159.07 133.65 C 158.71 134.53 159.13 135.53 160.01 135.89 C 160.89 136.24 161.90 135.82 162.25 134.94 L 162.65 133.96 C 163.01 133.08 162.58 132.08 161.70 131.72 C 160.82 131.37 159.82 131.79 159.47 132.67 Z M 159.08 133.62 L 158.66 134.61 C 158.29 135.48 158.70 136.49 159.57 136.86 C 160.45 137.23 161.46 136.83 161.83 135.95 L 162.25 134.96 C 162.62 134.09 162.21 133.08 161.33 132.71 C 160.46 132.34 159.45 132.75 159.08 133.62 Z M 158.67 134.58 L 158.25 135.52 C 157.86 136.39 158.26 137.41 159.13 137.80 C 160.00 138.18 161.02 137.79 161.41 136.92 L 161.82 135.98 C 162.21 135.10 161.81 134.09 160.94 133.70 C 160.07 133.31 159.05 133.71 158.67 134.58 Z M 158.25 135.50 L 157.83 136.42 C 157.43 137.29 157.81 138.32 158.68 138.72 C 159.55 139.12 160.58 138.73 160.98 137.86 L 161.40 136.94 C 161.80 136.07 161.42 135.04 160.55 134.64 C 159.68 134.24 158.65 134.63 158.25 135.50 Z M 157.83 136.40 L 157.41 137.29 C 157.00 138.16 157.37 139.20 158.24 139.61 C 159.10 140.02 160.14 139.65 160.55 138.78 L 160.98 137.89 C 161.39 137.02 161.02 135.98 160.15 135.57 C 159.28 135.16 158.24 135.53 157.83 136.40 Z M 157.41 137.27 L 156.98 138.15 C 156.56 139.02 156.92 140.06 157.79 140.49 C 158.66 140.91 159.71 140.55 160.13 139.68 L 160.55 138.80 C 160.97 137.93 160.61 136.89 159.74 136.47 C 158.88 136.04 157.83 136.41 157.41 137.27 Z M 156.98 138.13 L 156.44 139.22 C 156.01 140.09 156.37 141.14 157.24 141.57 C 158.11 142.00 159.17 141.65 159.60 140.77 L 160.13 139.69 C 160.56 138.82 160.21 137.77 159.33 137.34 C 158.46 136.91 157.41 137.26 156.98 138.13 Z M 156.41 139.24 L 155.93 140.28 C 155.51 141.17 155.89 142.23 156.78 142.64 C 157.67 143.06 158.72 142.67 159.14 141.79 L 159.63 140.75 C 160.04 139.86 159.66 138.80 158.77 138.39 C 157.89 137.97 156.83 138.36 156.41 139.24 Z M 155.84 140.45 L 155.57 141.22 C 155.25 142.15 155.74 143.17 156.68 143.50 C 157.61 143.82 158.63 143.33 158.95 142.40 L 159.22 141.62 C 159.55 140.69 159.06 139.67 158.12 139.35 C 157.19 139.02 156.17 139.51 155.84 140.45 Z M 155.67 142.64 L 155.90 143.08 C 156.36 143.96 157.45 144.30 158.33 143.84 C 159.21 143.38 159.55 142.29 159.09 141.41 L 158.86 140.97 C 158.40 140.09 157.31 139.75 156.43 140.21 C 155.55 140.67 155.21 141.76 155.67 142.64 Z M 157.95 144.00 L 159.02 143.72 C 159.99 143.46 160.57 142.47 160.32 141.51 C 160.06 140.54 159.07 139.96 158.11 140.21 L 157.04 140.49 C 156.07 140.75 155.49 141.74 155.74 142.70 C 156.00 143.67 156.98 144.25 157.95 144.00 Z M 159.09 143.70 L 160.00 143.43 C 160.96 143.14 161.50 142.13 161.21 141.17 C 160.92 140.21 159.91 139.67 158.95 139.95 L 158.04 140.23 C 157.08 140.52 156.54 141.53 156.83 142.49 C 157.12 143.45 158.13 143.99 159.09 143.70 Z M 159.89 143.46 L 160.87 143.24 C 161.85 143.01 162.45 142.03 162.22 141.05 C 162.00 140.07 161.02 139.46 160.04 139.69 L 159.06 139.92 C 158.08 140.15 157.47 141.13 157.70 142.11 C 157.93 143.09 158.91 143.69 159.89 143.46 Z M 160.78 143.26 L 161.80 143.07 C 162.80 142.89 163.45 141.94 163.27 140.95 C 163.09 139.95 162.14 139.30 161.14 139.48 L 160.12 139.67 C 159.13 139.85 158.47 140.80 158.66 141.79 C 158.84 142.78 159.79 143.44 160.78 143.26 Z M 161.76 143.09 L 162.73 142.94 C 163.74 142.78 164.42 141.84 164.26 140.84 C 164.10 139.83 163.16 139.15 162.16 139.31 L 161.19 139.46 C 160.19 139.62 159.50 140.56 159.66 141.56 C 159.82 142.56 160.76 143.25 161.76 143.09 Z M 162.73 142.95 L 163.74 142.79 C 164.75 142.64 165.44 141.69 165.29 140.68 C 165.13 139.67 164.19 138.98 163.18 139.14 L 162.17 139.30 C 161.16 139.45 160.47 140.40 160.62 141.40 C 160.78 142.41 161.72 143.10 162.73 142.95 Z M 163.77 142.80 L 164.78 142.63 C 165.80 142.46 166.48 141.50 166.31 140.49 C 166.14 139.47 165.18 138.79 164.17 138.96 L 163.15 139.13 C 162.14 139.30 161.46 140.26 161.63 141.27 C 161.80 142.29 162.76 142.97 163.77 142.80 Z M 164.84 142.62 L 165.85 142.43 C 166.86 142.23 167.52 141.25 167.32 140.24 C 167.12 139.23 166.14 138.57 165.13 138.77 L 164.12 138.96 C 163.11 139.16 162.45 140.14 162.65 141.15 C 162.84 142.17 163.83 142.82 164.84 142.62 Z M 165.90 142.42 L 166.87 142.20 C 167.87 141.97 168.50 140.97 168.27 139.96 C 168.04 138.96 167.04 138.33 166.04 138.56 L 165.07 138.78 C 164.07 139.00 163.44 140.00 163.67 141.01 C 163.89 142.02 164.90 142.65 165.90 142.42 Z M 166.92 142.19 L 167.86 141.94 C 168.86 141.69 169.46 140.67 169.21 139.67 C 168.95 138.67 167.93 138.07 166.93 138.32 L 165.99 138.57 C 164.99 138.82 164.39 139.84 164.64 140.84 C 164.90 141.84 165.92 142.44 166.92 142.19 Z M 167.90 141.94 L 168.90 141.66 C 169.90 141.38 170.48 140.34 170.20 139.35 C 169.92 138.35 168.89 137.77 167.89 138.05 L 166.89 138.33 C 165.90 138.61 165.31 139.64 165.59 140.64 C 165.87 141.64 166.91 142.22 167.90 141.94 Z M 168.92 141.66 L 169.87 141.38 C 170.87 141.10 171.44 140.05 171.16 139.06 C 170.87 138.06 169.83 137.49 168.83 137.77 L 167.88 138.05 C 166.88 138.34 166.31 139.38 166.59 140.37 C 166.88 141.37 167.92 141.95 168.92 141.66 Z M 169.85 141.39 L 170.80 141.13 C 171.80 140.86 172.39 139.82 172.12 138.82 C 171.84 137.82 170.80 137.23 169.80 137.50 L 168.86 137.76 C 167.85 138.04 167.26 139.07 167.54 140.08 C 167.81 141.08 168.85 141.67 169.85 141.39 Z M 170.72 141.16 L 171.70 140.94 C 172.72 140.71 173.36 139.70 173.13 138.68 C 172.90 137.66 171.89 137.02 170.87 137.25 L 169.89 137.47 C 168.87 137.70 168.23 138.72 168.46 139.73 C 168.69 140.75 169.70 141.39 170.72 141.16 Z M 171.53 140.98 L 172.49 140.86 C 173.53 140.72 174.26 139.77 174.13 138.73 C 173.99 137.69 173.04 136.96 172.00 137.09 L 171.05 137.21 C 170.01 137.35 169.27 138.30 169.41 139.34 C 169.54 140.38 170.49 141.11 171.53 140.98 Z M 172.21 140.88 L 173.24 140.90 C 174.29 140.92 175.16 140.08 175.18 139.03 C 175.20 137.98 174.36 137.10 173.31 137.08 L 172.28 137.06 C 171.23 137.04 170.36 137.88 170.34 138.94 C 170.32 139.99 171.16 140.86 172.21 140.88 Z M 172.72 140.84 L 173.66 141.12 C 174.67 141.42 175.75 140.84 176.05 139.82 C 176.35 138.80 175.77 137.73 174.76 137.43 L 173.82 137.15 C 172.80 136.84 171.73 137.42 171.43 138.44 C 171.12 139.46 171.70 140.53 172.72 140.84 Z M 172.94 140.74 L 173.59 141.30 C 174.40 141.99 175.63 141.90 176.32 141.09 C 177.02 140.28 176.93 139.05 176.12 138.36 L 175.47 137.80 C 174.66 137.10 173.43 137.20 172.74 138.01 C 172.04 138.82 172.13 140.04 172.94 140.74 Z M 173.17 140.81 L 173.66 141.65 C 174.20 142.57 175.40 142.89 176.32 142.35 C 177.25 141.80 177.57 140.61 177.02 139.68 L 176.53 138.85 C 175.99 137.92 174.80 137.61 173.87 138.15 C 172.94 138.69 172.63 139.88 173.17 140.81 Z M 173.53 141.38 L 173.95 142.44 C 174.34 143.44 175.48 143.93 176.48 143.53 C 177.48 143.14 177.97 142.00 177.58 141.00 L 177.16 139.95 C 176.76 138.94 175.63 138.45 174.62 138.85 C 173.62 139.25 173.13 140.38 173.53 141.38 Z M 173.91 142.35 L 174.22 143.27 C 174.57 144.30 175.68 144.85 176.70 144.50 C 177.73 144.15 178.27 143.04 177.93 142.02 L 177.61 141.09 C 177.27 140.07 176.16 139.52 175.13 139.87 C 174.11 140.21 173.56 141.32 173.91 142.35 Z M 174.20 143.22 L 174.51 144.21 C 174.83 145.24 175.92 145.82 176.96 145.51 C 177.99 145.19 178.57 144.09 178.25 143.06 L 177.95 142.07 C 177.63 141.04 176.53 140.46 175.50 140.77 C 174.46 141.09 173.88 142.19 174.20 143.22 Z M 174.49 144.16 L 174.77 145.15 C 175.06 146.19 176.14 146.80 177.19 146.50 C 178.23 146.21 178.84 145.13 178.54 144.09 L 178.27 143.10 C 177.97 142.06 176.89 141.45 175.85 141.75 C 174.81 142.04 174.20 143.12 174.49 144.16 Z M 174.75 145.09 L 175.00 146.10 C 175.27 147.15 176.33 147.79 177.38 147.53 C 178.43 147.27 179.07 146.20 178.81 145.15 L 178.56 144.14 C 178.30 143.09 177.23 142.45 176.18 142.71 C 175.13 142.97 174.49 144.04 174.75 145.09 Z M 174.99 146.03 L 175.20 147.03 C 175.42 148.09 176.47 148.76 177.53 148.54 C 178.59 148.31 179.27 147.27 179.04 146.21 L 178.83 145.22 C 178.60 144.15 177.56 143.48 176.50 143.70 C 175.44 143.93 174.76 144.97 174.99 146.03 Z M 175.18 146.97 L 175.35 147.91 C 175.55 148.97 176.57 149.68 177.64 149.49 C 178.71 149.30 179.42 148.27 179.22 147.20 L 179.05 146.27 C 178.86 145.20 177.84 144.49 176.77 144.68 C 175.70 144.88 174.99 145.90 175.18 146.97 Z M 175.35 147.88 L 175.50 148.81 C 175.68 149.88 176.69 150.61 177.76 150.43 C 178.83 150.25 179.56 149.24 179.38 148.17 L 179.23 147.23 C 179.05 146.16 178.04 145.44 176.97 145.61 C 175.90 145.79 175.17 146.80 175.35 147.88 Z M 175.49 148.79 L 175.64 149.75 C 175.81 150.82 176.82 151.56 177.89 151.39 C 178.97 151.22 179.71 150.22 179.54 149.14 L 179.39 148.18 C 179.22 147.11 178.21 146.37 177.14 146.54 C 176.06 146.71 175.33 147.71 175.49 148.79 Z M 175.64 149.72 L 175.78 150.73 C 175.94 151.81 176.94 152.56 178.02 152.41 C 179.10 152.25 179.85 151.25 179.69 150.17 L 179.55 149.16 C 179.39 148.08 178.39 147.33 177.31 147.49 C 176.23 147.64 175.48 148.64 175.64 149.72 Z M 175.77 150.71 L 175.90 151.72 C 176.04 152.80 177.04 153.57 178.12 153.43 C 179.20 153.29 179.97 152.29 179.83 151.21 L 179.70 150.20 C 179.56 149.11 178.57 148.35 177.48 148.49 C 176.40 148.63 175.63 149.62 175.77 150.71 Z M 175.90 151.69 L 176.00 152.63 C 176.13 153.72 177.11 154.50 178.20 154.37 C 179.29 154.25 180.07 153.26 179.95 152.18 L 179.84 151.24 C 179.71 150.15 178.73 149.37 177.64 149.49 C 176.55 149.62 175.77 150.60 175.90 151.69 Z M 176.00 152.61 L 176.10 153.60 C 176.22 154.69 177.19 155.48 178.29 155.37 C 179.38 155.25 180.17 154.28 180.06 153.18 L 179.95 152.20 C 179.84 151.10 178.86 150.31 177.77 150.43 C 176.68 150.54 175.88 151.52 176.00 152.61 Z M 176.10 153.58 L 176.20 154.62 C 176.30 155.72 177.28 156.52 178.37 156.41 C 179.47 156.31 180.27 155.34 180.16 154.24 L 180.06 153.20 C 179.95 152.11 178.98 151.30 177.89 151.41 C 176.79 151.52 175.99 152.49 176.10 153.58 Z M 176.19 154.61 L 176.28 155.61 C 176.38 156.70 177.35 157.51 178.45 157.41 C 179.55 157.31 180.35 156.34 180.25 155.24 L 180.16 154.25 C 180.06 153.16 179.10 152.35 178.00 152.45 C 176.90 152.55 176.09 153.52 176.19 154.61 Z M 176.28 155.60 L 176.36 156.55 C 176.46 157.64 177.43 158.46 178.52 158.36 C 179.62 158.27 180.43 157.30 180.34 156.20 L 180.26 155.25 C 180.16 154.16 179.20 153.34 178.10 153.44 C 177.00 153.53 176.19 154.50 176.28 155.60 Z M 176.36 156.54 L 176.44 157.53 C 176.53 158.62 177.50 159.44 178.59 159.35 C 179.69 159.26 180.51 158.30 180.42 157.20 L 180.34 156.21 C 180.25 155.12 179.29 154.30 178.19 154.39 C 177.09 154.48 176.27 155.44 176.36 156.54 Z M 176.44 157.52 L 176.52 158.54 C 176.60 159.64 177.56 160.46 178.66 160.38 C 179.76 160.30 180.58 159.34 180.50 158.24 L 180.42 157.21 C 180.34 156.11 179.38 155.29 178.28 155.38 C 177.18 155.46 176.36 156.42 176.44 157.52 Z M 176.52 158.53 L 176.59 159.60 C 176.67 160.69 177.63 161.52 178.72 161.45 C 179.82 161.37 180.65 160.41 180.57 159.32 L 180.50 158.25 C 180.42 157.15 179.47 156.32 178.37 156.40 C 177.27 156.48 176.44 157.43 176.52 158.53 Z M 176.59 159.58 L 176.65 160.52 C 176.72 161.62 177.67 162.45 178.77 162.38 C 179.87 162.31 180.71 161.36 180.64 160.26 L 180.58 159.33 C 180.51 158.23 179.56 157.39 178.46 157.46 C 177.36 157.53 176.52 158.48 176.59 159.58 Z M 176.65 160.51 L 176.70 161.47 C 176.77 162.57 177.72 163.41 178.82 163.35 C 179.92 163.28 180.77 162.33 180.70 161.23 L 180.64 160.27 C 180.58 159.17 179.63 158.32 178.53 158.39 C 177.42 158.45 176.58 159.40 176.65 160.51 Z M 176.70 161.46 L 176.75 162.45 C 176.81 163.56 177.76 164.40 178.86 164.34 C 179.97 164.28 180.82 163.34 180.76 162.23 L 180.71 161.24 C 180.65 160.13 179.70 159.28 178.59 159.34 C 177.49 159.40 176.64 160.35 176.70 161.46 Z M 176.74 162.44 L 176.79 163.46 C 176.85 164.57 177.79 165.43 178.90 165.37 C 180.01 165.32 180.87 164.37 180.82 163.26 L 180.77 162.24 C 180.71 161.13 179.77 160.27 178.66 160.33 C 177.55 160.38 176.69 161.33 176.74 162.44 Z M 176.79 163.45 L 176.84 164.51 C 176.88 165.62 177.83 166.48 178.94 166.44 C 180.05 166.39 180.92 165.44 180.87 164.33 L 180.82 163.27 C 180.77 162.16 179.83 161.30 178.72 161.35 C 177.60 161.39 176.74 162.34 176.79 163.45 Z M 176.83 164.50 L 176.87 165.51 C 176.91 166.62 177.85 167.49 178.97 167.45 C 180.09 167.41 180.96 166.46 180.91 165.35 L 180.88 164.34 C 180.83 163.22 179.89 162.35 178.77 162.40 C 177.65 162.44 176.78 163.38 176.83 164.50 Z M 176.86 165.50 L 176.89 166.48 C 176.93 167.61 177.88 168.48 179.00 168.44 C 180.12 168.40 181.00 167.46 180.96 166.34 L 180.92 165.35 C 180.88 164.23 179.94 163.35 178.82 163.39 C 177.70 163.43 176.82 164.38 176.86 165.50 Z M 176.88 166.48 L 176.92 167.48 C 176.95 168.61 177.90 169.49 179.02 169.46 C 180.15 169.42 181.04 168.48 181.00 167.35 L 180.97 166.35 C 180.93 165.22 179.99 164.33 178.86 164.37 C 177.73 164.41 176.85 165.35 176.88 166.48 Z M 176.91 167.47 L 176.94 168.49 C 176.97 169.62 177.92 170.51 179.05 170.48 C 180.18 170.44 181.07 169.50 181.04 168.36 L 181.01 167.35 C 180.98 166.22 180.03 165.33 178.90 165.36 C 177.77 165.40 176.87 166.34 176.91 167.47 Z M 176.93 168.48 L 176.96 169.49 C 176.99 170.63 177.93 171.53 179.07 171.50 C 180.21 171.47 181.11 170.52 181.08 169.38 L 181.05 168.37 C 181.02 167.23 180.07 166.33 178.93 166.36 C 177.79 166.40 176.90 167.34 176.93 168.48 Z M 176.95 169.49 L 176.97 170.50 C 177.00 171.64 177.95 172.54 179.09 172.52 C 180.24 172.49 181.14 171.54 181.11 170.39 L 181.09 169.39 C 181.06 168.24 180.11 167.34 178.96 167.37 C 177.82 167.40 176.92 168.35 176.95 169.49 Z M 176.96 170.49 L 176.99 171.51 C 177.01 172.66 177.97 173.57 179.11 173.54 C 180.26 173.52 181.17 172.56 181.14 171.42 L 181.12 170.40 C 181.09 169.25 180.14 168.34 178.99 168.37 C 177.85 168.39 176.94 169.35 176.96 170.49 Z M 176.98 171.51 L 177.00 172.53 C 177.03 173.69 177.98 174.60 179.13 174.57 C 180.28 174.55 181.20 173.60 181.17 172.44 L 181.15 171.42 C 181.13 170.27 180.17 169.36 179.02 169.38 C 177.87 169.41 176.96 170.36 176.98 171.51 Z M 177.00 172.53 L 177.02 173.54 C 177.04 174.69 177.99 175.61 179.15 175.59 C 180.30 175.57 181.22 174.61 181.20 173.46 L 181.18 172.45 C 181.16 171.29 180.20 170.38 179.05 170.40 C 177.89 170.42 176.97 171.38 177.00 172.53 Z M 177.01 173.53 L 177.03 174.53 C 177.05 175.69 178.00 176.61 179.16 176.59 C 180.32 176.57 181.24 175.62 181.22 174.46 L 181.20 173.46 C 181.18 172.30 180.23 171.38 179.07 171.40 C 177.91 171.42 176.99 172.38 177.01 173.53 Z M 177.02 174.52 L 177.04 175.51 C 177.05 176.67 178.01 177.60 179.17 177.58 C 180.33 177.56 181.26 176.61 181.24 175.45 L 181.23 174.46 C 181.21 173.30 180.26 172.37 179.09 172.39 C 177.93 172.41 177.01 173.36 177.02 174.52 Z M 177.03 175.50 L 177.04 176.48 C 177.06 177.64 178.01 178.57 179.18 178.56 C 180.34 178.55 181.27 177.59 181.26 176.43 L 181.25 175.45 C 181.23 174.29 180.28 173.36 179.11 173.37 C 177.95 173.38 177.02 174.34 177.03 175.50 Z M 177.03 176.47 L 177.04 177.49 C 177.05 178.66 178.01 179.60 179.18 179.59 C 180.35 179.58 181.29 178.62 181.28 177.45 L 181.27 176.43 C 181.26 175.27 180.30 174.33 179.13 174.34 C 177.96 174.35 177.02 175.30 177.03 176.47 Z M 177.03 177.48 L 177.04 178.51 C 177.05 179.68 178.00 180.63 179.18 180.62 C 180.35 180.62 181.30 179.66 181.29 178.48 L 181.29 177.46 C 181.28 176.28 180.32 175.34 179.15 175.35 C 177.97 175.35 177.03 176.31 177.03 177.48 Z M 177.03 178.50 L 177.03 179.52 C 177.04 180.70 178.00 181.65 179.18 181.65 C 180.36 181.64 181.31 180.68 181.31 179.50 L 181.30 178.49 C 181.30 177.31 180.34 176.36 179.16 176.36 C 177.98 176.36 177.03 177.32 177.03 178.50 Z M 177.02 179.51 L 177.02 180.51 C 177.03 181.69 177.99 182.65 179.17 182.65 C 180.36 182.65 181.32 181.68 181.32 180.50 L 181.32 179.51 C 181.31 178.32 180.35 177.36 179.17 177.36 C 177.98 177.36 177.02 178.33 177.02 179.51 Z M 177.01 180.50 L 177.01 181.48 C 177.01 182.67 177.98 183.63 179.17 183.63 C 180.36 183.63 181.33 182.67 181.33 181.47 L 181.33 180.50 C 181.33 179.31 180.36 178.34 179.17 178.35 C 177.98 178.35 177.01 179.31 177.01 180.50 Z M 177.00 181.48 L 177.00 182.47 C 177.00 183.67 177.97 184.64 179.17 184.64 C 180.37 184.64 181.34 183.67 181.34 182.47 L 181.34 181.48 C 181.34 180.28 180.37 179.31 179.17 179.31 C 177.97 179.31 177.00 180.28 177.00 181.48 Z M 176.99 182.47 L 176.99 183.52 C 176.99 184.72 177.96 185.70 179.17 185.70 C 180.37 185.70 181.35 184.73 181.35 183.52 L 181.35 182.47 C 181.35 181.27 180.38 180.29 179.17 180.29 C 177.97 180.29 176.99 181.26 176.99 182.47 Z M 176.98 183.51 L 176.98 184.53 C 176.97 185.74 177.95 186.72 179.16 186.73 C 180.37 186.73 181.35 185.76 181.36 184.55 L 181.36 183.53 C 181.37 182.32 180.39 181.34 179.18 181.33 C 177.97 181.33 176.99 182.30 176.98 183.51 Z M 176.97 184.51 L 176.95 185.50 C 176.94 186.71 177.92 187.71 179.13 187.72 C 180.35 187.74 181.34 186.76 181.36 185.55 L 181.37 184.56 C 181.38 183.35 180.41 182.35 179.19 182.34 C 177.97 182.33 176.98 183.30 176.97 184.51 Z M 176.94 185.48 L 176.92 186.43 C 176.90 187.65 177.87 188.66 179.09 188.68 C 180.31 188.71 181.32 187.74 181.35 186.52 L 181.37 185.57 C 181.39 184.35 180.42 183.34 179.20 183.31 C 177.98 183.29 176.97 184.26 176.94 185.48 Z M 176.91 186.40 L 176.88 187.41 C 176.84 188.63 177.80 189.66 179.02 189.71 C 180.25 189.75 181.28 188.79 181.32 187.56 L 181.36 186.55 C 181.40 185.32 180.44 184.30 179.21 184.25 C 177.99 184.21 176.96 185.17 176.91 186.40 Z M 176.87 187.37 L 176.82 188.40 C 176.75 189.64 177.70 190.69 178.93 190.75 C 180.16 190.81 181.21 189.87 181.27 188.64 L 181.33 187.60 C 181.39 186.37 180.45 185.32 179.22 185.26 C 177.98 185.19 176.93 186.14 176.87 187.37 Z M 176.81 188.36 L 176.74 189.36 C 176.65 190.59 177.59 191.66 178.82 191.75 C 180.06 191.84 181.13 190.90 181.21 189.67 L 181.28 188.68 C 181.37 187.44 180.44 186.37 179.20 186.28 C 177.97 186.20 176.90 187.13 176.81 188.36 Z M 176.73 189.32 L 176.65 190.27 C 176.54 191.51 177.46 192.60 178.70 192.71 C 179.94 192.82 181.03 191.90 181.14 190.66 L 181.22 189.71 C 181.33 188.47 180.41 187.38 179.17 187.27 C 177.93 187.16 176.84 188.08 176.73 189.32 Z M 176.64 190.23 L 176.54 191.18 C 176.41 192.42 177.31 193.53 178.56 193.66 C 179.80 193.79 180.91 192.89 181.04 191.65 L 181.14 190.70 C 181.27 189.46 180.37 188.35 179.13 188.22 C 177.89 188.09 176.78 188.99 176.64 190.23 Z M 176.54 191.13 L 176.42 192.09 C 176.26 193.33 177.15 194.47 178.39 194.62 C 179.64 194.78 180.77 193.89 180.93 192.65 L 181.05 191.69 C 181.20 190.45 180.32 189.32 179.07 189.16 C 177.83 189.00 176.69 189.89 176.54 191.13 Z M 176.42 192.04 L 176.28 193.02 C 176.10 194.26 176.96 195.42 178.21 195.60 C 179.46 195.78 180.61 194.91 180.79 193.67 L 180.93 192.69 C 181.11 191.45 180.25 190.29 179.00 190.11 C 177.75 189.93 176.60 190.80 176.42 192.04 Z M 176.27 192.98 L 176.10 194.01 C 175.90 195.26 176.75 196.44 178.00 196.64 C 179.25 196.84 180.43 195.99 180.63 194.74 L 180.80 193.71 C 181.00 192.46 180.15 191.28 178.90 191.08 C 177.65 190.88 176.47 191.73 176.27 192.98 Z M 176.10 193.98 L 175.92 194.99 C 175.70 196.24 176.54 197.43 177.79 197.65 C 179.04 197.87 180.24 197.04 180.46 195.78 L 180.63 194.77 C 180.85 193.52 180.02 192.33 178.76 192.11 C 177.51 191.89 176.32 192.73 176.10 193.98 Z M 175.92 194.94 L 175.72 195.96 C 175.48 197.22 176.30 198.43 177.55 198.68 C 178.80 198.92 180.02 198.10 180.26 196.85 L 180.46 195.83 C 180.70 194.57 179.89 193.36 178.63 193.11 C 177.38 192.87 176.16 193.69 175.92 194.94 Z M 175.72 195.89 L 175.50 196.90 C 175.21 198.15 176.00 199.40 177.25 199.68 C 178.51 199.96 179.75 199.18 180.03 197.92 L 180.26 196.92 C 180.54 195.66 179.76 194.42 178.50 194.14 C 177.25 193.85 176.01 194.64 175.72 195.89 Z M 175.51 196.80 L 175.25 197.74 C 174.91 198.99 175.64 200.27 176.89 200.61 C 178.13 200.95 179.42 200.22 179.76 198.97 L 180.02 198.03 C 180.36 196.79 179.63 195.50 178.38 195.16 C 177.14 194.82 175.85 195.55 175.51 196.80 Z M 175.30 197.55 L 174.92 198.57 C 174.48 199.79 175.10 201.14 176.32 201.59 C 177.54 202.04 178.89 201.41 179.34 200.19 L 179.71 199.17 C 180.16 197.95 179.53 196.60 178.32 196.15 C 177.10 195.70 175.75 196.33 175.30 197.55 Z M 175.10 198.18 L 174.54 199.12 C 173.87 200.24 174.24 201.69 175.37 202.36 C 176.49 203.02 177.94 202.65 178.60 201.53 L 179.16 200.59 C 179.83 199.47 179.46 198.02 178.33 197.35 C 177.21 196.69 175.76 197.06 175.10 198.18 Z M 175.14 198.43 L 174.50 198.91 C 173.45 199.70 173.24 201.19 174.03 202.24 C 174.81 203.29 176.30 203.50 177.35 202.71 L 178.00 202.23 C 179.04 201.44 179.26 199.95 178.47 198.90 C 177.68 197.85 176.19 197.64 175.14 198.43 Z M 175.98 198.43 L 175.27 198.41 C 173.95 198.38 172.86 199.42 172.83 200.74 C 172.80 202.05 173.84 203.14 175.15 203.17 L 175.87 203.19 C 177.18 203.22 178.28 202.18 178.31 200.87 C 178.34 199.55 177.30 198.46 175.98 198.43 Z M 176.41 198.74 L 175.60 198.27 C 174.46 197.60 173.01 197.99 172.34 199.12 C 171.68 200.26 172.07 201.72 173.20 202.38 L 174.01 202.85 C 175.15 203.51 176.60 203.13 177.27 201.99 C 177.93 200.86 177.54 199.40 176.41 198.74 Z M 176.01 198.57 L 175.09 197.73 C 174.12 196.84 172.62 196.90 171.73 197.87 C 170.84 198.84 170.91 200.34 171.87 201.23 L 172.79 202.08 C 173.76 202.96 175.27 202.90 176.15 201.93 C 177.04 200.96 176.98 199.46 176.01 198.57 Z M 175.20 197.87 L 174.53 197.15 C 173.64 196.20 172.15 196.15 171.20 197.04 C 170.25 197.93 170.20 199.43 171.09 200.38 L 171.76 201.09 C 172.65 202.04 174.14 202.09 175.10 201.20 C 176.05 200.31 176.09 198.82 175.20 197.87 Z M 174.55 197.23 L 173.86 196.45 C 173.01 195.49 171.55 195.39 170.59 196.24 C 169.63 197.09 169.54 198.55 170.38 199.51 L 171.07 200.30 C 171.92 201.26 173.38 201.35 174.34 200.50 C 175.31 199.66 175.40 198.19 174.55 197.23 Z M 173.86 196.51 L 173.19 195.72 C 172.37 194.76 170.93 194.64 169.98 195.45 C 169.02 196.27 168.90 197.71 169.71 198.67 L 170.39 199.46 C 171.20 200.41 172.64 200.53 173.60 199.72 C 174.56 198.90 174.67 197.46 173.86 196.51 Z M 173.17 195.76 L 172.56 195.02 C 171.77 194.07 170.36 193.94 169.41 194.73 C 168.46 195.53 168.33 196.94 169.12 197.89 L 169.73 198.62 C 170.52 199.57 171.93 199.70 172.88 198.91 C 173.83 198.12 173.96 196.71 173.17 195.76 Z M 172.50 195.07 L 171.77 194.19 C 171.01 193.27 169.64 193.15 168.73 193.91 C 167.81 194.67 167.68 196.04 168.44 196.95 L 169.17 197.84 C 169.94 198.75 171.30 198.88 172.22 198.12 C 173.14 197.36 173.26 195.99 172.50 195.07 Z M 171.67 194.27 L 171.06 193.53 C 170.34 192.66 169.05 192.55 168.19 193.27 C 167.32 193.99 167.20 195.27 167.92 196.14 L 168.54 196.88 C 169.26 197.74 170.55 197.86 171.41 197.14 C 172.28 196.42 172.40 195.13 171.67 194.27 Z M 170.96 193.60 L 170.40 192.94 C 169.72 192.12 168.52 192.02 167.70 192.70 C 166.89 193.38 166.78 194.59 167.46 195.40 L 168.02 196.06 C 168.70 196.88 169.91 196.98 170.72 196.30 C 171.53 195.63 171.64 194.42 170.96 193.60 Z M 170.34 192.98 L 169.70 192.23 C 169.05 191.46 167.89 191.36 167.12 192.01 C 166.34 192.67 166.24 193.83 166.90 194.60 L 167.53 195.35 C 168.18 196.13 169.34 196.23 170.12 195.57 C 170.89 194.92 170.99 193.76 170.34 192.98 Z M 169.66 192.25 L 169.00 191.48 C 168.36 190.73 167.22 190.64 166.47 191.28 C 165.72 191.93 165.63 193.06 166.28 193.82 L 166.94 194.59 C 167.58 195.34 168.72 195.42 169.47 194.78 C 170.22 194.13 170.31 193.00 169.66 192.25 Z M 168.96 191.49 L 168.30 190.74 C 167.66 190.01 166.55 189.94 165.82 190.58 C 165.09 191.22 165.02 192.33 165.66 193.05 L 166.32 193.81 C 166.96 194.53 168.07 194.61 168.80 193.97 C 169.53 193.33 169.60 192.22 168.96 191.49 Z M 168.27 190.75 L 167.60 190.00 C 166.97 189.29 165.88 189.23 165.17 189.86 C 164.46 190.49 164.40 191.58 165.03 192.29 L 165.69 193.04 C 166.32 193.75 167.41 193.82 168.12 193.18 C 168.83 192.55 168.90 191.47 168.27 190.75 Z M 167.58 190.03 L 166.92 189.28 C 166.31 188.58 165.24 188.51 164.54 189.12 C 163.84 189.74 163.77 190.81 164.38 191.51 L 165.04 192.26 C 165.66 192.96 166.73 193.03 167.43 192.41 C 168.13 191.80 168.20 190.73 167.58 190.03 Z M 166.91 189.31 L 166.27 188.56 C 165.67 187.86 164.62 187.78 163.93 188.38 C 163.23 188.98 163.15 190.03 163.75 190.73 L 164.39 191.47 C 164.99 192.17 166.04 192.25 166.74 191.65 C 167.43 191.05 167.51 190.01 166.91 189.31 Z M 166.26 188.59 L 165.61 187.82 C 165.03 187.13 163.99 187.04 163.30 187.63 C 162.61 188.21 162.53 189.24 163.11 189.93 L 163.76 190.70 C 164.34 191.39 165.38 191.48 166.07 190.89 C 166.76 190.31 166.84 189.28 166.26 188.59 Z M 165.60 187.84 L 164.94 187.06 C 164.37 186.38 163.35 186.29 162.67 186.86 C 161.99 187.43 161.90 188.45 162.47 189.13 L 163.12 189.91 C 163.70 190.59 164.71 190.68 165.40 190.11 C 166.08 189.54 166.17 188.52 165.60 187.84 Z M 164.93 187.07 L 164.28 186.30 C 163.72 185.62 162.71 185.53 162.03 186.09 C 161.36 186.66 161.27 187.67 161.83 188.34 L 162.48 189.12 C 163.05 189.79 164.05 189.89 164.73 189.32 C 165.41 188.76 165.50 187.75 164.93 187.07 Z M 164.27 186.31 L 163.64 185.55 C 163.09 184.88 162.09 184.79 161.42 185.35 C 160.75 185.91 160.66 186.90 161.22 187.57 L 161.84 188.33 C 162.40 189.00 163.40 189.09 164.07 188.53 C 164.74 187.97 164.83 186.98 164.27 186.31 Z M 163.64 185.57 L 162.98 184.77 C 162.43 184.10 161.44 184.01 160.77 184.56 C 160.11 185.11 160.01 186.09 160.56 186.76 L 161.22 187.56 C 161.77 188.23 162.76 188.32 163.43 187.77 C 164.09 187.22 164.19 186.23 163.64 185.57 Z M 162.98 184.77 L 162.36 184.02 C 161.81 183.35 160.83 183.25 160.16 183.80 C 159.49 184.35 159.40 185.34 159.94 186.00 L 160.56 186.76 C 161.11 187.42 162.09 187.52 162.76 186.97 C 163.43 186.43 163.53 185.44 162.98 184.77 Z M 162.36 184.02 L 162.18 183.81 C 161.64 183.14 160.65 183.04 159.99 183.59 C 159.32 184.13 159.22 185.12 159.77 185.78 L 159.94 186.00 C 160.49 186.67 161.48 186.77 162.14 186.22 C 162.81 185.67 162.91 184.69 162.36 184.02 Z"
      fill="black"
      fill-rule="nonzero" /><path d="M 129.33 159.67 L 130.29 160.04 C 131.22 160.40 132.26 159.94 132.62 159.01 C 132.98 158.08 132.52 157.04 131.59 156.69 L 130.63 156.31 C 129.70 155.96 128.66 156.42 128.30 157.35 C 127.95 158.27 128.41 159.31 129.33 159.67 Z M 130.28 160.04 L 131.21 160.42 C 132.14 160.78 133.19 160.33 133.56 159.40 C 133.93 158.47 133.47 157.42 132.55 157.05 L 131.61 156.68 C 130.68 156.31 129.63 156.77 129.26 157.70 C 128.89 158.63 129.35 159.68 130.28 160.04 Z M 131.18 160.41 L 132.07 160.79 C 132.99 161.17 134.06 160.74 134.45 159.81 C 134.84 158.88 134.40 157.82 133.47 157.43 L 132.58 157.06 C 131.66 156.67 130.59 157.10 130.20 158.03 C 129.81 158.96 130.25 160.02 131.18 160.41 Z M 132.02 160.73 L 132.97 161.16 C 133.86 161.57 134.92 161.18 135.33 160.28 C 135.75 159.38 135.35 158.32 134.45 157.91 L 133.51 157.48 C 132.62 157.07 131.55 157.47 131.14 158.36 C 130.73 159.26 131.13 160.32 132.02 160.73 Z M 132.95 161.07 L 133.84 161.51 C 134.69 161.93 135.71 161.58 136.13 160.73 C 136.55 159.88 136.20 158.86 135.35 158.44 L 134.47 158.00 C 133.62 157.59 132.59 157.94 132.17 158.78 C 131.76 159.63 132.11 160.66 132.95 161.07 Z M 133.85 161.44 L 134.46 161.75 C 135.26 162.16 136.25 161.83 136.66 161.03 C 137.07 160.22 136.75 159.23 135.94 158.82 L 135.34 158.51 C 134.53 158.10 133.54 158.42 133.13 159.23 C 132.72 160.04 133.04 161.03 133.85 161.44 Z"
      fill="black"
      fill-rule="nonzero" /><path d="M 126.48 177.25 L 127.46 176.92 C 128.40 176.60 128.91 175.58 128.59 174.63 C 128.27 173.69 127.25 173.18 126.31 173.50 L 125.33 173.82 C 124.39 174.14 123.88 175.17 124.19 176.11 C 124.51 177.05 125.54 177.56 126.48 177.25 Z M 127.55 176.95 L 128.49 176.59 C 129.45 176.22 129.93 175.14 129.56 174.18 C 129.19 173.21 128.11 172.73 127.14 173.10 L 126.21 173.46 C 125.25 173.83 124.76 174.91 125.14 175.88 C 125.51 176.84 126.59 177.32 127.55 176.95 Z M 128.67 176.57 L 129.54 176.14 C 130.49 175.66 130.88 174.51 130.40 173.56 C 129.93 172.60 128.77 172.22 127.82 172.69 L 126.95 173.12 C 126.00 173.60 125.62 174.76 126.09 175.71 C 126.57 176.66 127.72 177.05 128.67 176.57 Z M 129.76 176.03 L 130.57 175.49 C 131.47 174.89 131.70 173.68 131.10 172.79 C 130.51 171.90 129.30 171.66 128.40 172.26 L 127.59 172.80 C 126.70 173.40 126.46 174.61 127.06 175.50 C 127.66 176.39 128.87 176.63 129.76 176.03 Z M 130.70 175.39 L 131.49 174.76 C 132.33 174.09 132.46 172.86 131.79 172.03 C 131.12 171.19 129.90 171.06 129.06 171.73 L 128.27 172.36 C 127.44 173.03 127.30 174.25 127.97 175.09 C 128.64 175.92 129.87 176.06 130.70 175.39 Z M 131.52 174.72 L 132.19 174.15 C 133.01 173.47 133.11 172.25 132.43 171.43 C 131.74 170.61 130.52 170.51 129.70 171.20 L 129.03 171.76 C 128.22 172.45 128.11 173.67 128.80 174.49 C 129.49 175.30 130.71 175.41 131.52 174.72 Z M 132.20 174.13 L 132.89 173.53 C 133.70 172.84 133.79 171.63 133.10 170.83 C 132.41 170.02 131.19 169.93 130.39 170.62 L 129.70 171.22 C 128.89 171.91 128.80 173.12 129.49 173.93 C 130.18 174.73 131.40 174.82 132.20 174.13 Z M 132.90 173.51 L 133.70 172.80 C 134.49 172.10 134.57 170.90 133.87 170.11 C 133.17 169.32 131.97 169.25 131.18 169.94 L 130.38 170.65 C 129.59 171.35 129.52 172.55 130.21 173.34 C 130.91 174.13 132.12 174.20 132.90 173.51 Z M 133.71 172.77 L 134.53 172.03 C 135.30 171.33 135.35 170.13 134.65 169.36 C 133.95 168.59 132.76 168.53 131.98 169.23 L 131.17 169.97 C 130.40 170.68 130.34 171.87 131.04 172.64 C 131.75 173.42 132.94 173.47 133.71 172.77 Z M 134.53 172.00 L 135.18 171.40 C 135.93 170.70 135.98 169.51 135.27 168.76 C 134.57 168.00 133.39 167.96 132.63 168.66 L 131.98 169.26 C 131.22 169.97 131.18 171.15 131.88 171.91 C 132.59 172.66 133.77 172.71 134.53 172.00 Z M 135.17 171.37 L 135.87 170.71 C 136.61 170.01 136.65 168.84 135.94 168.10 C 135.24 167.36 134.07 167.32 133.33 168.03 L 132.63 168.69 C 131.89 169.39 131.86 170.56 132.56 171.30 C 133.26 172.04 134.43 172.08 135.17 171.37 Z M 135.87 170.69 L 136.60 169.98 C 137.33 169.28 137.35 168.12 136.65 167.39 C 135.95 166.67 134.79 166.65 134.07 167.35 L 133.33 168.05 C 132.61 168.75 132.58 169.91 133.28 170.64 C 133.99 171.37 135.14 171.39 135.87 170.69 Z M 136.60 169.95 L 137.36 169.20 C 138.08 168.50 138.09 167.36 137.39 166.65 C 136.69 165.94 135.54 165.93 134.83 166.63 L 134.07 167.37 C 133.36 168.07 133.35 169.22 134.05 169.93 C 134.75 170.64 135.89 170.65 136.60 169.95 Z M 137.36 169.17 L 138.14 168.39 C 138.84 167.70 138.83 166.57 138.14 165.87 C 137.44 165.17 136.31 165.18 135.61 165.87 L 134.83 166.65 C 134.14 167.35 134.14 168.48 134.84 169.18 C 135.54 169.87 136.67 169.87 137.36 169.17 Z M 138.14 168.36 L 138.84 167.65 C 139.51 166.95 139.50 165.84 138.80 165.16 C 138.11 164.48 136.99 164.49 136.31 165.19 L 135.61 165.90 C 134.94 166.60 134.95 167.72 135.65 168.39 C 136.34 169.07 137.46 169.06 138.14 168.36 Z M 138.83 167.62 L 139.51 166.90 C 140.17 166.21 140.15 165.12 139.46 164.45 C 138.77 163.79 137.67 163.81 137.01 164.51 L 136.32 165.22 C 135.66 165.91 135.69 167.01 136.38 167.67 C 137.07 168.33 138.16 168.31 138.83 167.62 Z M 139.50 166.87 L 140.18 166.15 C 140.83 165.47 140.80 164.39 140.11 163.74 C 139.43 163.10 138.35 163.13 137.70 163.81 L 137.02 164.53 C 136.37 165.22 136.40 166.30 137.09 166.94 C 137.77 167.59 138.85 167.56 139.50 166.87 Z M 140.17 166.12 L 140.85 165.39 C 141.48 164.71 141.45 163.65 140.77 163.02 C 140.10 162.39 139.04 162.43 138.40 163.10 L 137.72 163.84 C 137.09 164.51 137.12 165.57 137.80 166.20 C 138.47 166.83 139.53 166.80 140.17 166.12 Z M 140.83 165.36 L 141.52 164.62 C 142.14 163.96 142.10 162.92 141.43 162.30 C 140.77 161.68 139.73 161.72 139.11 162.39 L 138.42 163.13 C 137.80 163.79 137.84 164.83 138.51 165.45 C 139.18 166.07 140.22 166.03 140.83 165.36 Z M 141.50 164.60 L 142.19 163.86 C 142.80 163.20 142.75 162.18 142.10 161.57 C 141.44 160.97 140.42 161.01 139.81 161.66 L 139.13 162.41 C 138.52 163.06 138.56 164.09 139.22 164.69 C 139.87 165.30 140.90 165.26 141.50 164.60 Z M 142.17 163.84 L 142.54 163.45 C 143.14 162.80 143.09 161.79 142.45 161.19 C 141.80 160.60 140.79 160.64 140.19 161.28 L 139.83 161.68 C 139.23 162.33 139.27 163.34 139.92 163.93 C 140.57 164.53 141.58 164.49 142.17 163.84 Z"
      fill="black"
      fill-rule="nonzero" /><path d="M 163.89 158.14 L 164.64 158.77 C 165.41 159.41 166.54 159.31 167.19 158.55 C 167.83 157.79 167.73 156.65 166.96 156.01 L 166.21 155.38 C 165.45 154.73 164.31 154.83 163.67 155.60 C 163.03 156.36 163.13 157.50 163.89 158.14 Z M 164.70 158.85 L 165.50 159.46 C 166.30 160.07 167.46 159.91 168.07 159.10 C 168.68 158.29 168.52 157.14 167.71 156.53 L 166.91 155.93 C 166.10 155.31 164.95 155.48 164.34 156.28 C 163.73 157.09 163.89 158.24 164.70 158.85 Z M 165.63 159.57 L 166.48 160.10 C 167.36 160.64 168.50 160.36 169.04 159.49 C 169.57 158.62 169.30 157.47 168.43 156.94 L 167.57 156.41 C 166.70 155.87 165.56 156.15 165.02 157.02 C 164.48 157.89 164.76 159.04 165.63 159.57 Z M 166.63 160.18 L 167.53 160.63 C 168.45 161.08 169.56 160.70 170.02 159.78 C 170.47 158.86 170.09 157.75 169.18 157.30 L 168.28 156.85 C 167.36 156.40 166.25 156.78 165.79 157.70 C 165.34 158.62 165.72 159.73 166.63 160.18 Z M 167.64 160.66 L 168.57 161.05 C 169.51 161.45 170.59 161.01 170.98 160.07 C 171.38 159.13 170.94 158.05 170.00 157.65 L 169.07 157.26 C 168.13 156.86 167.05 157.30 166.65 158.24 C 166.26 159.18 166.70 160.27 167.64 160.66 Z M 168.64 161.05 L 169.59 161.41 C 170.52 161.77 171.57 161.30 171.93 160.36 C 172.28 159.43 171.81 158.38 170.88 158.02 L 169.93 157.66 C 169.00 157.30 167.95 157.77 167.59 158.71 C 167.23 159.64 167.70 160.69 168.64 161.05 Z M 169.64 161.37 L 170.58 161.70 C 171.49 162.03 172.50 161.55 172.82 160.64 C 173.15 159.73 172.67 158.73 171.76 158.40 L 170.82 158.07 C 169.91 157.74 168.91 158.22 168.58 159.13 C 168.26 160.04 168.73 161.04 169.64 161.37 Z M 170.62 161.64 L 171.51 161.95 C 172.38 162.25 173.34 161.79 173.65 160.91 C 173.95 160.03 173.48 159.07 172.61 158.77 L 171.72 158.46 C 170.85 158.16 169.89 158.63 169.58 159.50 C 169.28 160.38 169.75 161.34 170.62 161.64 Z"
      fill="black"
      fill-rule="nonzero" /><path d="M 161.05 177.76 L 161.78 177.21 C 162.59 176.59 162.76 175.43 162.14 174.62 C 161.53 173.81 160.37 173.64 159.56 174.26 L 158.83 174.81 C 158.01 175.42 157.85 176.58 158.46 177.39 C 159.08 178.21 160.23 178.37 161.05 177.76 Z M 161.82 177.21 L 162.62 176.58 C 163.43 175.95 163.58 174.77 162.95 173.96 C 162.31 173.14 161.14 173.00 160.32 173.63 L 159.52 174.25 C 158.70 174.89 158.56 176.06 159.19 176.88 C 159.83 177.70 161.00 177.84 161.82 177.21 Z M 162.66 176.57 L 163.45 175.93 C 164.25 175.28 164.38 174.09 163.72 173.28 C 163.06 172.47 161.87 172.35 161.06 173.01 L 160.28 173.64 C 159.47 174.30 159.35 175.49 160.00 176.30 C 160.66 177.11 161.85 177.23 162.66 176.57 Z M 163.47 175.92 L 164.20 175.30 C 165.00 174.63 165.11 173.43 164.43 172.63 C 163.76 171.83 162.57 171.73 161.77 172.40 L 161.03 173.02 C 160.23 173.70 160.13 174.89 160.81 175.69 C 161.48 176.49 162.67 176.59 163.47 175.92 Z M 164.22 175.28 L 165.00 174.61 C 165.79 173.93 165.88 172.74 165.20 171.95 C 164.52 171.16 163.33 171.07 162.53 171.75 L 161.75 172.42 C 160.96 173.10 160.87 174.29 161.55 175.08 C 162.23 175.88 163.43 175.96 164.22 175.28 Z M 165.01 174.60 L 165.82 173.89 C 166.60 173.21 166.68 172.01 165.99 171.23 C 165.31 170.45 164.11 170.37 163.33 171.05 L 162.52 171.76 C 161.74 172.45 161.66 173.64 162.35 174.42 C 163.03 175.21 164.23 175.29 165.01 174.60 Z M 165.82 173.88 L 166.61 173.18 C 167.39 172.49 167.46 171.30 166.77 170.52 C 166.08 169.75 164.89 169.68 164.11 170.37 L 163.32 171.07 C 162.55 171.76 162.48 172.95 163.17 173.72 C 163.86 174.50 165.05 174.57 165.82 173.88 Z M 166.61 173.16 L 167.38 172.47 C 168.15 171.78 168.21 170.60 167.52 169.83 C 166.82 169.06 165.64 169.00 164.88 169.69 L 164.11 170.38 C 163.34 171.08 163.28 172.26 163.97 173.02 C 164.67 173.79 165.85 173.85 166.61 173.16 Z M 167.38 172.45 L 168.10 171.80 C 168.86 171.10 168.91 169.93 168.21 169.17 C 167.52 168.41 166.34 168.36 165.59 169.06 L 164.87 169.71 C 164.11 170.41 164.06 171.58 164.76 172.34 C 165.45 173.10 166.63 173.15 167.38 172.45 Z M 168.10 171.77 L 168.84 171.09 C 169.58 170.39 169.62 169.22 168.92 168.48 C 168.23 167.73 167.06 167.69 166.31 168.39 L 165.58 169.08 C 164.84 169.78 164.80 170.94 165.50 171.69 C 166.19 172.43 167.36 172.47 168.10 171.77 Z M 168.84 171.05 L 169.59 170.34 C 170.31 169.64 170.34 168.48 169.64 167.75 C 168.93 167.03 167.78 167.01 167.05 167.71 L 166.31 168.42 C 165.58 169.12 165.56 170.28 166.26 171.01 C 166.96 171.73 168.12 171.76 168.84 171.05 Z M 169.59 170.31 L 170.25 169.66 C 170.96 168.95 170.96 167.81 170.26 167.10 C 169.56 166.39 168.42 166.39 167.71 167.09 L 167.05 167.74 C 166.34 168.44 166.33 169.58 167.03 170.29 C 167.74 171.00 168.88 171.01 169.59 170.31 Z M 170.24 169.63 L 170.94 168.94 C 171.64 168.24 171.64 167.11 170.94 166.41 C 170.24 165.72 169.11 165.71 168.41 166.41 L 167.72 167.11 C 167.02 167.80 167.02 168.94 167.72 169.63 C 168.41 170.33 169.54 170.33 170.24 169.63 Z M 170.92 168.93 L 171.63 168.23 C 172.32 167.54 172.32 166.42 171.64 165.73 C 170.95 165.04 169.83 165.03 169.14 165.72 L 168.43 166.42 C 167.74 167.11 167.73 168.23 168.42 168.92 C 169.11 169.61 170.23 169.62 170.92 168.93 Z M 171.60 168.23 L 172.31 167.53 C 173.01 166.86 173.02 165.75 172.35 165.06 C 171.67 164.37 170.57 164.35 169.87 165.03 L 169.16 165.72 C 168.47 166.39 168.46 167.50 169.13 168.19 C 169.80 168.88 170.91 168.90 171.60 168.23 Z M 172.29 167.53 L 173.01 166.84 C 173.70 166.18 173.72 165.09 173.06 164.40 C 172.41 163.71 171.31 163.68 170.62 164.34 L 169.90 165.03 C 169.21 165.69 169.18 166.78 169.84 167.48 C 170.50 168.17 171.60 168.19 172.29 167.53 Z M 173.00 166.83 L 173.73 166.13 C 174.41 165.47 174.43 164.39 173.78 163.71 C 173.12 163.03 172.04 163.01 171.36 163.66 L 170.63 164.36 C 169.95 165.01 169.93 166.09 170.58 166.77 C 171.23 167.46 172.32 167.48 173.00 166.83 Z M 173.72 166.10 L 174.44 165.40 C 175.11 164.75 175.12 163.68 174.47 163.02 C 173.82 162.35 172.75 162.34 172.09 162.98 L 171.37 163.69 C 170.70 164.34 170.69 165.40 171.34 166.07 C 171.98 166.74 173.05 166.75 173.72 166.10 Z M 174.42 165.38 L 175.14 164.68 C 175.79 164.04 175.80 162.99 175.16 162.34 C 174.52 161.68 173.47 161.67 172.82 162.31 L 172.11 163.00 C 171.45 163.64 171.44 164.69 172.08 165.35 C 172.72 166.01 173.77 166.02 174.42 165.38 Z M 175.11 164.67 L 175.84 163.97 C 176.49 163.35 176.51 162.31 175.88 161.66 C 175.26 161.01 174.22 160.99 173.57 161.62 L 172.84 162.32 C 172.19 162.94 172.17 163.98 172.80 164.63 C 173.43 165.28 174.46 165.30 175.11 164.67 Z M 175.82 163.96 L 176.54 163.27 C 177.18 162.65 177.20 161.64 176.59 160.99 C 175.97 160.35 174.95 160.33 174.31 160.94 L 173.59 161.63 C 172.95 162.25 172.93 163.26 173.54 163.91 C 174.16 164.55 175.18 164.57 175.82 163.96 Z M 176.53 163.25 L 177.25 162.56 C 177.88 161.94 177.89 160.94 177.28 160.31 C 176.67 159.68 175.66 159.66 175.03 160.27 L 174.32 160.97 C 173.69 161.58 173.67 162.59 174.28 163.22 C 174.90 163.85 175.90 163.86 176.53 163.25 Z M 177.25 162.54 L 177.96 161.83 C 178.58 161.22 178.58 160.22 177.97 159.60 C 177.35 158.98 176.36 158.98 175.74 159.59 L 175.03 160.29 C 174.41 160.91 174.40 161.91 175.02 162.52 C 175.63 163.14 176.63 163.15 177.25 162.54 Z M 177.96 161.82 L 178.39 161.39 C 179.00 160.78 179.00 159.79 178.39 159.17 C 177.78 158.56 176.78 158.56 176.17 159.17 L 175.74 159.60 C 175.12 160.21 175.12 161.21 175.73 161.82 C 176.35 162.43 177.34 162.44 177.96 161.82 Z"
      fill="black"
      fill-rule="nonzero" /></svg>