<svg xmlns="http://www.w3.org/2000/svg" width="300" height="300" viewBox="0 0 300 300">
<path d="M 131.04 117.81 L 131.85 118.43 C 132.59 119.01 133.66 118.87 134.23 118.13 C 134.81 117.38 134.67 116.31 133.93 115.74 L 133.12 115.11 C 132.37 114.54 131.30 114.68 130.73 115.42 C 130.16 116.16 130.29 117.23 131.04 117.81 Z M 131.24 117.61 L 131.50 118.43 C 131.79 119.34 132.76 119.84 133.67 119.55 C 134.58 119.26 135.08 118.29 134.79 117.38 L 134.53 116.56 C 134.24 115.65 133.27 115.15 132.36 115.44 C 131.46 115.73 130.95 116.70 131.24 117.61 Z M 131.50 117.36 L 131.22 118.23 C 130.92 119.14 131.41 120.12 132.33 120.42 C 133.24 120.72 134.22 120.22 134.52 119.31 L 134.80 118.45 C 135.10 117.53 134.60 116.55 133.69 116.25 C 132.78 115.96 131.80 116.45 131.50 117.36 Z M 131.35 117.93 L 130.81 118.90 C 130.34 119.74 130.65 120.80 131.49 121.26 C 132.33 121.72 133.38 121.42 133.85 120.58 L 134.39 119.61 C 134.85 118.77 134.54 117.71 133.70 117.25 C 132.87 116.78 131.81 117.09 131.35 117.93 Z M 130.85 118.83 L 130.33 119.68 C 129.82 120.50 130.07 121.57 130.89 122.07 C 131.70 122.57 132.77 122.32 133.27 121.51 L 133.80 120.65 C 134.30 119.84 134.05 118.77 133.24 118.27 C 132.43 117.76 131.36 118.02 130.85 118.83 Z M 130.35 119.66 L 129.81 120.49 C 129.30 121.29 129.53 122.35 130.32 122.87 C 131.12 123.39 132.19 123.16 132.71 122.36 L 133.25 121.53 C 133.76 120.73 133.54 119.67 132.74 119.15 C 131.94 118.63 130.87 118.86 130.35 119.66 Z M 129.84 120.46 L 129.26 121.31 C 128.73 122.10 128.94 123.17 129.72 123.70 C 130.51 124.23 131.57 124.02 132.11 123.24 L 132.68 122.39 C 133.22 121.60 133.01 120.53 132.23 120.00 C 131.44 119.47 130.37 119.68 129.84 120.46 Z M 129.29 121.29 L 128.73 122.08 C 128.18 122.86 128.37 123.92 129.14 124.47 C 129.91 125.01 130.98 124.83 131.52 124.05 L 132.08 123.26 C 132.63 122.49 132.44 121.42 131.67 120.88 C 130.90 120.34 129.83 120.52 129.29 121.29 Z M 128.75 122.07 L 128.16 122.87 C 127.61 123.63 127.78 124.70 128.54 125.25 C 129.30 125.80 130.37 125.63 130.92 124.87 L 131.50 124.07 C 132.06 123.31 131.89 122.24 131.13 121.69 C 130.37 121.14 129.30 121.31 128.75 122.07 Z M 128.18 122.86 L 127.57 123.68 C 127.01 124.43 127.17 125.50 127.92 126.06 C 128.67 126.62 129.74 126.46 130.29 125.71 L 130.91 124.88 C 131.46 124.13 131.31 123.07 130.55 122.51 C 129.80 121.95 128.74 122.11 128.18 122.86 Z M 127.58 123.67 L 126.96 124.49 C 126.40 125.24 126.55 126.30 127.30 126.86 C 128.04 127.43 129.10 127.28 129.67 126.53 L 130.28 125.71 C 130.85 124.97 130.70 123.90 129.95 123.34 C 129.20 122.78 128.14 122.93 127.58 123.67 Z M 126.97 124.49 L 126.37 125.29 C 125.80 126.03 125.94 127.09 126.69 127.65 C 127.43 128.22 128.49 128.07 129.05 127.33 L 129.66 126.53 C 130.22 125.79 130.08 124.73 129.34 124.17 C 128.60 123.60 127.54 123.75 126.97 124.49 Z M 126.37 125.29 L 125.76 126.09 C 125.20 126.82 125.34 127.88 126.08 128.44 C 126.81 129.01 127.87 128.86 128.43 128.13 L 129.04 127.33 C 129.61 126.59 129.47 125.54 128.73 124.97 C 127.99 124.41 126.94 124.55 126.37 125.29 Z M 125.77 126.09 L 125.16 126.88 C 124.60 127.62 124.74 128.67 125.48 129.23 C 126.21 129.79 127.26 129.65 127.82 128.91 L 128.43 128.12 C 128.99 127.39 128.85 126.34 128.11 125.78 C 127.38 125.21 126.33 125.36 125.77 126.09 Z M 125.17 126.89 L 124.54 127.71 C 123.98 128.45 124.13 129.49 124.86 130.05 C 125.59 130.60 126.64 130.46 127.19 129.73 L 127.82 128.91 C 128.38 128.17 128.23 127.13 127.50 126.57 C 126.77 126.02 125.72 126.16 125.17 126.89 Z M 124.55 127.72 L 123.93 128.53 C 123.38 129.25 123.52 130.29 124.25 130.85 C 124.97 131.40 126.01 131.26 126.57 130.53 L 127.18 129.72 C 127.74 129.00 127.60 127.96 126.87 127.40 C 126.14 126.85 125.11 126.99 124.55 127.72 Z M 123.95 128.53 L 123.35 129.30 C 122.80 130.02 122.93 131.05 123.65 131.60 C 124.36 132.16 125.40 132.03 125.95 131.31 L 126.55 130.54 C 127.11 129.82 126.97 128.79 126.26 128.23 C 125.54 127.68 124.51 127.81 123.95 128.53 Z M 123.38 129.29 L 122.76 130.06 C 122.20 130.77 122.31 131.79 123.02 132.36 C 123.72 132.92 124.75 132.80 125.31 132.10 L 125.93 131.32 C 126.49 130.62 126.37 129.59 125.67 129.03 C 124.96 128.47 123.94 128.59 123.38 129.29 Z M 122.79 130.05 L 122.14 130.84 C 121.58 131.52 121.67 132.54 122.36 133.11 C 123.05 133.67 124.06 133.58 124.63 132.89 L 125.28 132.11 C 125.84 131.42 125.75 130.41 125.06 129.84 C 124.37 129.27 123.36 129.37 122.79 130.05 Z M 122.17 130.83 L 121.54 131.58 C 120.97 132.25 121.05 133.25 121.73 133.82 C 122.40 134.39 123.40 134.31 123.97 133.64 L 124.60 132.89 C 125.17 132.22 125.09 131.22 124.42 130.65 C 123.75 130.08 122.74 130.16 122.17 130.83 Z M 121.56 131.58 L 121.26 131.93 C 120.69 132.59 120.77 133.59 121.43 134.16 C 122.09 134.72 123.09 134.64 123.66 133.98 L 123.95 133.63 C 124.52 132.97 124.44 131.98 123.78 131.41 C 123.12 130.84 122.12 130.92 121.56 131.58 Z"
      fill="black"
      fill-rule="nonzero" /><path d="M 142.77 120.49 L 143.57 119.72 C 144.24 119.09 144.26 118.03 143.62 117.37 C 142.99 116.71 141.93 116.68 141.27 117.32 L 140.46 118.09 C 139.80 118.73 139.78 119.78 140.42 120.45 C 141.05 121.11 142.11 121.13 142.77 120.49 Z M 141.26 119.83 L 141.65 120.18 C 142.37 120.82 143.48 120.76 144.12 120.04 C 144.76 119.31 144.70 118.21 143.98 117.56 L 143.59 117.21 C 142.87 116.57 141.76 116.63 141.11 117.36 C 140.47 118.08 140.53 119.19 141.26 119.83 Z M 140.99 118.90 L 141.01 120.02 C 141.03 121.02 141.86 121.82 142.86 121.80 C 143.87 121.79 144.67 120.96 144.65 119.95 L 144.63 118.84 C 144.61 117.83 143.78 117.03 142.78 117.05 C 141.78 117.07 140.98 117.90 140.99 118.90 Z M 141.00 119.67 L 140.83 120.69 C 140.65 121.70 141.33 122.66 142.34 122.83 C 143.35 123.01 144.31 122.33 144.49 121.32 L 144.66 120.30 C 144.84 119.29 144.16 118.33 143.15 118.15 C 142.14 117.98 141.18 118.66 141.00 119.67 Z M 140.87 120.44 L 140.58 121.38 C 140.26 122.36 140.81 123.41 141.79 123.73 C 142.78 124.04 143.83 123.49 144.14 122.51 L 144.44 121.57 C 144.75 120.59 144.20 119.54 143.22 119.22 C 142.24 118.91 141.19 119.46 140.87 120.44 Z M 140.63 121.23 L 140.23 122.19 C 139.83 123.14 140.29 124.24 141.24 124.63 C 142.20 125.03 143.29 124.58 143.69 123.62 L 144.09 122.66 C 144.48 121.71 144.03 120.61 143.08 120.21 C 142.12 119.82 141.02 120.27 140.63 121.23 Z M 140.26 122.11 L 139.83 123.03 C 139.39 123.97 139.79 125.09 140.73 125.53 C 141.67 125.97 142.79 125.56 143.23 124.62 L 143.66 123.70 C 144.10 122.76 143.69 121.65 142.75 121.21 C 141.82 120.77 140.70 121.17 140.26 122.11 Z M 139.85 122.99 L 139.40 123.89 C 138.93 124.82 139.31 125.94 140.23 126.41 C 141.16 126.87 142.29 126.50 142.75 125.57 L 143.20 124.67 C 143.67 123.74 143.29 122.62 142.37 122.15 C 141.44 121.69 140.31 122.06 139.85 122.99 Z M 139.41 123.86 L 138.94 124.76 C 138.45 125.67 138.80 126.81 139.72 127.29 C 140.64 127.78 141.77 127.43 142.26 126.51 L 142.73 125.61 C 143.22 124.69 142.87 123.56 141.95 123.07 C 141.03 122.59 139.90 122.94 139.41 123.86 Z M 138.96 124.73 L 138.48 125.59 C 137.98 126.50 138.30 127.64 139.21 128.14 C 140.12 128.64 141.26 128.31 141.76 127.41 L 142.24 126.54 C 142.74 125.63 142.41 124.49 141.50 123.99 C 140.60 123.49 139.46 123.82 138.96 124.73 Z M 138.49 125.58 L 138.02 126.40 C 137.51 127.30 137.83 128.45 138.73 128.96 C 139.64 129.46 140.78 129.15 141.29 128.24 L 141.75 127.42 C 142.26 126.52 141.94 125.38 141.04 124.87 C 140.14 124.36 138.99 124.68 138.49 125.58 Z M 138.02 126.40 L 137.55 127.23 C 137.04 128.13 137.36 129.27 138.26 129.78 C 139.16 130.29 140.31 129.98 140.82 129.07 L 141.29 128.25 C 141.80 127.34 141.48 126.20 140.58 125.69 C 139.68 125.18 138.53 125.50 138.02 126.40 Z M 137.56 127.21 L 137.04 128.12 C 136.52 129.01 136.82 130.16 137.72 130.68 C 138.62 131.20 139.76 130.89 140.28 130.00 L 140.81 129.09 C 141.33 128.20 141.02 127.05 140.13 126.53 C 139.23 126.01 138.08 126.31 137.56 127.21 Z M 137.05 128.09 L 136.55 128.92 C 136.02 129.81 136.31 130.96 137.20 131.49 C 138.08 132.03 139.24 131.74 139.77 130.85 L 140.27 130.02 C 140.80 129.13 140.51 127.98 139.63 127.45 C 138.74 126.92 137.59 127.20 137.05 128.09 Z M 136.56 128.91 L 136.04 129.75 C 135.50 130.64 135.78 131.79 136.66 132.33 C 137.55 132.87 138.70 132.60 139.24 131.71 L 139.76 130.87 C 140.30 129.99 140.02 128.83 139.14 128.29 C 138.26 127.75 137.10 128.03 136.56 128.91 Z M 136.05 129.75 L 135.50 130.64 C 134.96 131.52 135.23 132.68 136.11 133.22 C 136.99 133.76 138.15 133.49 138.69 132.61 L 139.24 131.72 C 139.78 130.84 139.51 129.68 138.63 129.14 C 137.74 128.60 136.59 128.87 136.05 129.75 Z M 135.50 130.64 L 134.98 131.48 C 134.44 132.37 134.72 133.52 135.60 134.06 C 136.49 134.60 137.64 134.32 138.18 133.44 L 138.69 132.60 C 139.23 131.72 138.96 130.56 138.07 130.02 C 137.19 129.48 136.04 129.76 135.50 130.64 Z M 134.98 131.49 L 134.47 132.33 C 133.93 133.21 134.22 134.36 135.10 134.90 C 135.98 135.44 137.14 135.16 137.67 134.27 L 138.18 133.43 C 138.72 132.55 138.44 131.40 137.56 130.86 C 136.67 130.32 135.52 130.60 134.98 131.49 Z M 134.47 132.33 L 133.94 133.20 C 133.41 134.08 133.69 135.24 134.58 135.77 C 135.46 136.31 136.61 136.02 137.15 135.14 L 137.68 134.27 C 138.21 133.38 137.93 132.23 137.04 131.70 C 136.16 131.16 135.01 131.44 134.47 132.33 Z M 133.94 133.20 L 133.42 134.07 C 132.88 134.95 133.16 136.11 134.05 136.64 C 134.93 137.18 136.09 136.90 136.62 136.01 L 137.15 135.14 C 137.69 134.25 137.40 133.10 136.52 132.57 C 135.63 132.03 134.48 132.31 133.94 133.20 Z M 133.42 134.07 L 132.92 134.89 C 132.38 135.78 132.66 136.93 133.55 137.46 C 134.43 138.00 135.58 137.72 136.12 136.83 L 136.62 136.01 C 137.16 135.13 136.88 133.97 135.99 133.44 C 135.11 132.90 133.95 133.18 133.42 134.07 Z M 132.92 134.89 L 132.40 135.74 C 131.86 136.62 132.14 137.78 133.03 138.31 C 133.91 138.85 135.06 138.57 135.60 137.69 L 136.12 136.84 C 136.66 135.95 136.38 134.80 135.50 134.26 C 134.61 133.72 133.46 134.00 132.92 134.89 Z M 132.40 135.73 L 131.87 136.61 C 131.33 137.49 131.60 138.65 132.49 139.19 C 133.37 139.73 134.52 139.45 135.06 138.57 L 135.60 137.69 C 136.14 136.81 135.86 135.66 134.98 135.12 C 134.10 134.57 132.94 134.85 132.40 135.73 Z M 131.87 136.60 L 131.33 137.47 C 130.79 138.35 131.06 139.51 131.95 140.05 C 132.83 140.59 133.98 140.32 134.53 139.44 L 135.06 138.57 C 135.60 137.69 135.33 136.54 134.45 135.99 C 133.57 135.45 132.41 135.72 131.87 136.60 Z M 131.34 137.47 L 130.82 138.29 C 130.28 139.17 130.55 140.33 131.43 140.87 C 132.31 141.42 133.46 141.15 134.01 140.27 L 134.52 139.45 C 135.07 138.57 134.80 137.41 133.92 136.86 C 133.04 136.32 131.88 136.59 131.34 137.47 Z M 130.83 138.29 L 130.30 139.13 C 129.75 140.01 130.01 141.16 130.89 141.71 C 131.77 142.26 132.93 142.00 133.48 141.12 L 134.01 140.28 C 134.56 139.40 134.29 138.24 133.41 137.69 C 132.53 137.14 131.38 137.41 130.83 138.29 Z M 130.30 139.12 L 129.76 139.98 C 129.21 140.86 129.47 142.02 130.35 142.57 C 131.22 143.12 132.38 142.86 132.94 141.98 L 133.48 141.13 C 134.03 140.25 133.77 139.09 132.89 138.54 C 132.01 137.98 130.85 138.25 130.30 139.12 Z M 129.76 139.98 L 129.21 140.85 C 128.65 141.72 128.91 142.89 129.79 143.44 C 130.67 144.00 131.83 143.74 132.38 142.86 L 132.93 141.99 C 133.49 141.11 133.23 139.95 132.35 139.40 C 131.48 138.84 130.32 139.10 129.76 139.98 Z M 129.21 140.84 L 128.68 141.68 C 128.12 142.55 128.38 143.71 129.25 144.27 C 130.13 144.83 131.29 144.57 131.85 143.70 L 132.38 142.87 C 132.94 141.99 132.68 140.83 131.81 140.27 C 130.93 139.71 129.77 139.97 129.21 140.84 Z M 128.68 141.67 L 128.14 142.51 C 127.58 143.39 127.83 144.55 128.71 145.11 C 129.58 145.67 130.75 145.42 131.31 144.54 L 131.85 143.70 C 132.41 142.83 132.16 141.66 131.28 141.10 C 130.41 140.54 129.24 140.80 128.68 141.67 Z M 128.14 142.50 L 127.60 143.35 C 127.03 144.22 127.28 145.39 128.16 145.95 C 129.03 146.52 130.20 146.27 130.76 145.39 L 131.31 144.55 C 131.87 143.68 131.62 142.51 130.75 141.95 C 129.87 141.38 128.71 141.63 128.14 142.50 Z M 127.60 143.34 L 127.05 144.18 C 126.48 145.06 126.73 146.23 127.60 146.80 C 128.47 147.36 129.64 147.12 130.21 146.25 L 130.76 145.40 C 131.33 144.53 131.08 143.36 130.21 142.79 C 129.34 142.22 128.17 142.47 127.60 143.34 Z M 127.05 144.18 L 126.50 145.02 C 125.93 145.89 126.17 147.06 127.04 147.63 C 127.91 148.21 129.08 147.96 129.65 147.09 L 130.21 146.25 C 130.78 145.38 130.54 144.21 129.67 143.64 C 128.80 143.06 127.62 143.31 127.05 144.18 Z M 126.50 145.01 L 125.95 145.85 C 125.37 146.72 125.60 147.89 126.47 148.47 C 127.34 149.04 128.52 148.81 129.09 147.94 L 129.65 147.10 C 130.23 146.23 129.99 145.06 129.12 144.48 C 128.25 143.90 127.08 144.14 126.50 145.01 Z M 125.95 145.84 L 125.39 146.67 C 124.81 147.54 125.04 148.71 125.91 149.29 C 126.78 149.88 127.95 149.65 128.53 148.78 L 129.09 147.95 C 129.67 147.08 129.44 145.91 128.57 145.32 C 127.71 144.74 126.53 144.97 125.95 145.84 Z M 125.40 146.66 L 124.84 147.49 C 124.25 148.35 124.48 149.53 125.34 150.11 C 126.20 150.70 127.38 150.48 127.97 149.61 L 128.53 148.79 C 129.11 147.92 128.89 146.75 128.03 146.16 C 127.16 145.57 125.98 145.80 125.40 146.66 Z M 124.84 147.48 L 124.28 148.30 C 123.69 149.16 123.91 150.34 124.77 150.93 C 125.63 151.52 126.81 151.30 127.40 150.44 L 127.96 149.62 C 128.56 148.76 128.34 147.58 127.47 146.99 C 126.61 146.40 125.43 146.62 124.84 147.48 Z M 124.28 148.29 L 123.69 149.14 C 123.10 150.00 123.31 151.18 124.17 151.77 C 125.03 152.37 126.21 152.16 126.80 151.30 L 127.39 150.45 C 127.99 149.59 127.78 148.41 126.92 147.81 C 126.06 147.22 124.88 147.43 124.28 148.29 Z M 123.70 149.13 L 123.11 149.97 C 122.50 150.83 122.71 152.01 123.56 152.61 C 124.41 153.21 125.60 153.01 126.20 152.16 L 126.80 151.31 C 127.40 150.45 127.19 149.27 126.34 148.67 C 125.49 148.07 124.31 148.27 123.70 149.13 Z M 123.12 149.96 L 122.53 150.78 C 121.92 151.63 122.11 152.81 122.96 153.42 C 123.80 154.03 124.98 153.84 125.60 152.99 L 126.19 152.17 C 126.80 151.32 126.60 150.14 125.76 149.53 C 124.91 148.92 123.73 149.11 123.12 149.96 Z M 122.54 150.76 L 121.97 151.54 C 121.34 152.38 121.52 153.56 122.36 154.18 C 123.20 154.80 124.38 154.63 125.00 153.79 L 125.58 153.01 C 126.20 152.17 126.02 150.99 125.19 150.37 C 124.35 149.74 123.16 149.92 122.54 150.76 Z M 121.99 151.51 L 121.38 152.30 C 120.74 153.13 120.90 154.31 121.73 154.95 C 122.55 155.58 123.74 155.43 124.37 154.60 L 124.98 153.81 C 125.62 152.99 125.46 151.80 124.64 151.17 C 123.81 150.53 122.62 150.68 121.99 151.51 Z M 121.41 152.27 L 120.74 153.09 C 120.09 153.90 120.21 155.09 121.02 155.75 C 121.83 156.40 123.02 156.28 123.67 155.47 L 124.34 154.64 C 125.00 153.83 124.87 152.64 124.06 151.99 C 123.25 151.33 122.07 151.46 121.41 152.27 Z M 120.77 153.06 L 120.14 153.81 C 119.46 154.60 119.56 155.79 120.35 156.46 C 121.14 157.14 122.33 157.04 123.00 156.25 L 123.64 155.50 C 124.31 154.71 124.22 153.52 123.43 152.85 C 122.64 152.17 121.45 152.27 120.77 153.06 Z M 120.17 153.78 L 119.56 154.46 C 118.87 155.24 118.94 156.43 119.71 157.12 C 120.49 157.81 121.68 157.74 122.37 156.96 L 122.98 156.28 C 123.67 155.50 123.60 154.31 122.82 153.62 C 122.04 152.93 120.86 153.00 120.17 153.78 Z M 119.59 154.44 L 118.93 155.15 C 118.22 155.91 118.27 157.10 119.03 157.80 C 119.79 158.51 120.97 158.46 121.68 157.70 L 122.34 156.98 C 123.04 156.22 123.00 155.04 122.24 154.34 C 121.48 153.63 120.29 153.68 119.59 154.44 Z M 118.97 155.12 L 118.28 155.81 C 117.56 156.55 117.57 157.73 118.31 158.46 C 119.04 159.18 120.22 159.17 120.95 158.43 L 121.63 157.74 C 122.36 157.00 122.35 155.82 121.61 155.10 C 120.87 154.37 119.69 154.38 118.97 155.12 Z M 118.34 155.77 L 117.59 156.48 C 116.84 157.18 116.81 158.36 117.51 159.11 C 118.21 159.85 119.39 159.89 120.14 159.19 L 120.89 158.48 C 121.64 157.78 121.67 156.60 120.97 155.85 C 120.27 155.10 119.09 155.06 118.34 155.77 Z M 117.65 156.43 L 116.88 157.10 C 116.11 157.78 116.03 158.95 116.70 159.72 C 117.37 160.49 118.54 160.57 119.31 159.90 L 120.08 159.23 C 120.85 158.56 120.93 157.39 120.26 156.61 C 119.59 155.84 118.42 155.76 117.65 156.43 Z M 116.93 157.07 L 116.13 157.72 C 115.34 158.36 115.21 159.52 115.86 160.32 C 116.50 161.11 117.66 161.23 118.45 160.59 L 119.26 159.93 C 120.05 159.29 120.17 158.13 119.53 157.34 C 118.89 156.55 117.72 156.43 116.93 157.07 Z M 116.19 157.68 L 115.40 158.27 C 114.59 158.88 114.42 160.03 115.02 160.84 C 115.63 161.65 116.78 161.82 117.59 161.22 L 118.38 160.63 C 119.20 160.02 119.37 158.87 118.76 158.06 C 118.16 157.25 117.01 157.08 116.19 157.68 Z M 115.53 158.21 L 114.52 158.84 C 113.67 159.38 113.42 160.50 113.95 161.35 C 114.49 162.20 115.61 162.45 116.46 161.91 L 117.46 161.28 C 118.31 160.75 118.57 159.63 118.03 158.78 C 117.50 157.93 116.38 157.67 115.53 158.21 Z M 114.95 158.68 L 114.10 158.95 C 113.16 159.25 112.64 160.25 112.94 161.19 C 113.24 162.12 114.24 162.64 115.18 162.34 L 116.03 162.07 C 116.97 161.78 117.48 160.78 117.19 159.84 C 116.89 158.90 115.89 158.38 114.95 158.68 Z M 116.21 159.95 L 115.97 159.42 C 115.59 158.56 114.57 158.17 113.70 158.55 C 112.84 158.94 112.45 159.96 112.83 160.82 L 113.07 161.35 C 113.46 162.21 114.47 162.60 115.34 162.22 C 116.20 161.83 116.59 160.81 116.21 159.95 Z M 115.99 160.50 L 116.25 159.37 C 116.46 158.49 115.92 157.62 115.04 157.41 C 114.17 157.21 113.29 157.75 113.08 158.62 L 112.82 159.75 C 112.61 160.62 113.15 161.50 114.03 161.71 C 114.91 161.91 115.78 161.37 115.99 160.50 Z"
      fill="black"
      fill-rule="nonzero" /><path d="M 131.52 144.74 L 131.34 145.52 C 131.11 146.51 131.72 147.49 132.71 147.72 C 133.70 147.96 134.68 147.34 134.92 146.36 L 135.10 145.57 C 135.33 144.59 134.72 143.60 133.73 143.37 C 132.74 143.14 131.76 143.75 131.52 144.74 Z M 131.27 145.64 L 131.13 146.57 C 130.96 147.59 131.66 148.56 132.68 148.72 C 133.71 148.88 134.67 148.19 134.83 147.16 L 134.98 146.23 C 135.15 145.21 134.45 144.25 133.42 144.08 C 132.40 143.92 131.44 144.62 131.27 145.64 Z M 131.06 146.74 L 130.99 147.97 C 130.92 149.03 131.72 149.94 132.78 150.01 C 133.84 150.07 134.75 149.27 134.82 148.21 L 134.90 146.99 C 134.96 145.93 134.16 145.02 133.10 144.95 C 132.04 144.88 131.13 145.68 131.06 146.74 Z M 130.96 148.09 L 130.96 149.03 C 130.96 150.10 131.83 150.97 132.90 150.97 C 133.97 150.97 134.84 150.10 134.84 149.03 L 134.84 148.09 C 134.85 147.02 133.98 146.15 132.90 146.15 C 131.83 146.15 130.96 147.02 130.96 148.09 Z M 130.96 149.08 L 130.98 150.08 C 131.01 151.16 131.91 152.01 132.98 151.98 C 134.05 151.95 134.90 151.05 134.87 149.98 L 134.84 148.98 C 134.82 147.90 133.92 147.06 132.85 147.08 C 131.77 147.11 130.93 148.01 130.96 149.08 Z M 130.98 150.12 L 131.03 151.17 C 131.08 152.24 131.98 153.08 133.06 153.03 C 134.13 152.98 134.96 152.08 134.92 151.00 L 134.87 149.95 C 134.82 148.88 133.92 148.04 132.84 148.09 C 131.77 148.14 130.94 149.04 130.98 150.12 Z M 131.03 151.19 L 131.09 152.24 C 131.14 153.31 132.06 154.14 133.13 154.08 C 134.20 154.03 135.03 153.11 134.97 152.04 L 134.92 150.99 C 134.86 149.91 133.95 149.09 132.87 149.14 C 131.80 149.20 130.98 150.11 131.03 151.19 Z M 131.08 152.24 L 131.14 153.24 C 131.20 154.31 132.11 155.14 133.19 155.08 C 134.26 155.02 135.08 154.10 135.02 153.03 L 134.97 152.03 C 134.91 150.96 133.99 150.14 132.92 150.20 C 131.85 150.25 131.03 151.17 131.08 152.24 Z M 131.14 153.23 L 131.19 154.36 C 131.25 155.43 132.16 156.26 133.24 156.21 C 134.31 156.15 135.14 155.24 135.08 154.16 L 135.03 153.04 C 134.97 151.96 134.06 151.14 132.98 151.19 C 131.91 151.24 131.08 152.16 131.14 153.23 Z M 131.19 154.34 L 131.24 155.40 C 131.28 156.47 132.18 157.31 133.26 157.26 C 134.33 157.22 135.17 156.32 135.13 155.24 L 135.08 154.18 C 135.04 153.11 134.14 152.27 133.06 152.32 C 131.99 152.36 131.15 153.26 131.19 154.34 Z M 131.23 155.37 L 131.26 156.30 C 131.29 157.37 132.18 158.22 133.26 158.19 C 134.34 158.16 135.18 157.27 135.15 156.19 L 135.13 155.26 C 135.10 154.19 134.20 153.34 133.13 153.37 C 132.05 153.40 131.20 154.30 131.23 155.37 Z M 131.26 156.28 L 131.27 157.14 C 131.29 158.22 132.18 159.08 133.25 159.06 C 134.33 159.04 135.19 158.15 135.17 157.08 L 135.15 156.21 C 135.14 155.14 134.25 154.28 133.17 154.30 C 132.10 154.31 131.24 155.20 131.26 156.28 Z M 131.27 157.13 L 131.28 158.09 C 131.29 159.17 132.17 160.03 133.25 160.02 C 134.32 160.01 135.19 159.13 135.18 158.05 L 135.17 157.09 C 135.16 156.02 134.28 155.15 133.20 155.16 C 132.13 155.17 131.26 156.05 131.27 157.13 Z M 131.28 158.08 L 131.28 159.07 C 131.28 160.15 132.16 161.02 133.24 161.01 C 134.32 161.01 135.19 160.13 135.18 159.05 L 135.18 158.06 C 135.18 156.99 134.30 156.12 133.22 156.12 C 132.14 156.12 131.27 157.00 131.28 158.08 Z M 131.28 159.06 L 131.28 160.09 C 131.28 161.17 132.16 162.04 133.24 162.04 C 134.31 162.04 135.19 161.17 135.19 160.09 L 135.19 159.06 C 135.19 157.98 134.31 157.11 133.23 157.11 C 132.15 157.11 131.28 157.98 131.28 159.06 Z M 131.28 160.09 L 131.28 161.08 C 131.28 162.16 132.15 163.04 133.23 163.04 C 134.31 163.04 135.19 162.16 135.19 161.08 L 135.19 160.09 C 135.19 159.01 134.31 158.13 133.23 158.13 C 132.15 158.13 131.28 159.01 131.28 160.09 Z M 131.28 161.08 L 131.28 162.06 C 131.28 163.14 132.15 164.02 133.23 164.02 C 134.32 164.02 135.19 163.14 135.19 162.06 L 135.19 161.08 C 135.19 160.00 134.32 159.12 133.23 159.12 C 132.15 159.12 131.28 160.00 131.28 161.08 Z M 131.27 162.06 L 131.27 163.07 C 131.27 164.15 132.15 165.03 133.23 165.03 C 134.32 165.03 135.19 164.15 135.19 163.07 L 135.19 162.06 C 135.19 160.98 134.32 160.10 133.23 160.10 C 132.15 160.10 131.27 160.98 131.27 162.06 Z M 131.27 163.07 L 131.27 164.10 C 131.27 165.19 132.15 166.06 133.23 166.06 C 134.32 166.06 135.19 165.19 135.19 164.10 L 135.19 163.07 C 135.19 161.99 134.32 161.11 133.23 161.11 C 132.15 161.11 131.27 161.99 131.27 163.07 Z M 131.27 164.10 L 131.27 165.10 C 131.27 166.18 132.15 167.06 133.23 167.06 C 134.32 167.06 135.20 166.18 135.20 165.10 L 135.20 164.10 C 135.20 163.02 134.32 162.14 133.23 162.14 C 132.15 162.14 131.27 163.02 131.27 164.10 Z M 131.27 165.10 L 131.27 166.09 C 131.27 167.18 132.15 168.05 133.23 168.05 C 134.32 168.05 135.19 167.18 135.19 166.09 L 135.19 165.10 C 135.19 164.01 134.32 163.14 133.23 163.14 C 132.15 163.14 131.27 164.01 131.27 165.10 Z M 131.27 166.09 L 131.27 167.10 C 131.27 168.18 132.15 169.06 133.23 169.06 C 134.32 169.06 135.19 168.18 135.19 167.10 L 135.19 166.09 C 135.19 165.01 134.32 164.13 133.23 164.13 C 132.15 164.13 131.27 165.01 131.27 166.09 Z M 131.28 167.10 L 131.28 168.11 C 131.28 169.19 132.15 170.07 133.23 170.07 C 134.31 170.07 135.19 169.19 135.19 168.11 L 135.19 167.10 C 135.19 166.02 134.31 165.14 133.23 165.14 C 132.15 165.14 131.28 166.02 131.28 167.10 Z M 131.28 168.11 L 131.28 169.12 C 131.28 170.20 132.15 171.08 133.23 171.08 C 134.31 171.08 135.19 170.20 135.19 169.12 L 135.19 168.11 C 135.19 167.03 134.31 166.15 133.23 166.15 C 132.15 166.15 131.28 167.03 131.28 168.11 Z M 131.28 169.11 L 131.28 170.12 C 131.27 171.20 132.14 172.08 133.22 172.08 C 134.30 172.09 135.18 171.22 135.18 170.14 L 135.19 169.13 C 135.19 168.05 134.32 167.17 133.24 167.17 C 132.16 167.16 131.28 168.03 131.28 169.11 Z M 131.28 170.11 L 131.27 171.11 C 131.25 172.19 132.12 173.07 133.20 173.08 C 134.28 173.09 135.16 172.23 135.17 171.15 L 135.18 170.15 C 135.19 169.07 134.33 168.19 133.25 168.18 C 132.17 168.17 131.29 169.03 131.28 170.11 Z M 131.27 171.09 L 131.25 172.07 C 131.22 173.15 132.08 174.04 133.15 174.06 C 134.23 174.09 135.12 173.23 135.15 172.16 L 135.17 171.17 C 135.19 170.10 134.34 169.20 133.26 169.18 C 132.18 169.16 131.29 170.01 131.27 171.09 Z M 131.25 172.04 L 131.21 173.06 C 131.17 174.13 132.01 175.03 133.09 175.07 C 134.16 175.11 135.06 174.28 135.10 173.20 L 135.14 172.19 C 135.18 171.11 134.34 170.21 133.27 170.17 C 132.20 170.13 131.29 170.97 131.25 172.04 Z M 131.22 173.03 L 131.17 174.03 C 131.12 175.10 131.94 176.01 133.01 176.07 C 134.07 176.12 134.99 175.30 135.04 174.23 L 135.09 173.23 C 135.15 172.16 134.33 171.25 133.26 171.19 C 132.19 171.14 131.28 171.96 131.22 173.03 Z M 131.18 174.01 L 131.12 175.00 C 131.06 176.07 131.86 176.98 132.93 177.05 C 133.99 177.11 134.90 176.30 134.97 175.24 L 135.03 174.25 C 135.10 173.19 134.29 172.28 133.23 172.21 C 132.16 172.14 131.25 172.95 131.18 174.01 Z M 131.13 174.99 L 131.07 175.98 C 131.00 177.03 131.79 177.95 132.85 178.02 C 133.91 178.09 134.82 177.29 134.89 176.24 L 134.96 175.25 C 135.03 174.19 134.23 173.28 133.17 173.21 C 132.12 173.14 131.20 173.94 131.13 174.99 Z M 131.08 175.98 L 131.01 177.04 C 130.94 178.08 131.73 178.99 132.78 179.06 C 133.83 179.13 134.73 178.34 134.80 177.30 L 134.88 176.24 C 134.95 175.19 134.16 174.28 133.11 174.21 C 132.06 174.14 131.15 174.93 131.08 175.98 Z M 131.03 177.04 L 130.96 178.06 C 130.89 179.10 131.67 179.99 132.71 180.06 C 133.75 180.13 134.64 179.35 134.71 178.32 L 134.78 177.29 C 134.85 176.26 134.07 175.36 133.04 175.29 C 132.00 175.22 131.10 176.00 131.03 177.04 Z M 130.98 178.06 L 130.92 179.01 C 130.85 180.04 131.62 180.93 132.65 181.00 C 133.67 181.07 134.56 180.29 134.63 179.27 L 134.69 178.31 C 134.76 177.29 133.99 176.40 132.96 176.33 C 131.94 176.26 131.05 177.03 130.98 178.06 Z M 130.94 179.01 L 130.87 180.00 C 130.80 181.01 131.57 181.89 132.58 181.96 C 133.59 182.03 134.47 181.26 134.54 180.25 L 134.60 179.26 C 134.67 178.25 133.91 177.38 132.90 177.31 C 131.88 177.24 131.01 178.00 130.94 179.01 Z M 130.91 180.01 L 130.84 180.99 C 130.78 181.98 131.54 182.84 132.53 182.90 C 133.52 182.96 134.38 182.21 134.44 181.22 L 134.50 180.24 C 134.57 179.25 133.81 178.39 132.82 178.33 C 131.83 178.26 130.97 179.02 130.91 180.01 Z M 130.88 181.01 L 130.83 181.99 C 130.78 182.97 131.52 183.80 132.50 183.85 C 133.47 183.90 134.31 183.15 134.36 182.18 L 134.41 181.19 C 134.46 180.22 133.71 179.39 132.74 179.34 C 131.76 179.29 130.93 180.04 130.88 181.01 Z M 130.86 182.02 L 130.82 182.96 C 130.78 183.92 131.53 184.72 132.48 184.76 C 133.44 184.80 134.25 184.06 134.29 183.10 L 134.32 182.16 C 134.36 181.20 133.62 180.39 132.66 180.35 C 131.70 180.32 130.90 181.06 130.86 182.02 Z M 130.85 182.97 L 130.82 183.98 C 130.79 184.92 131.52 185.71 132.47 185.74 C 133.41 185.77 134.19 185.03 134.22 184.09 L 134.26 183.09 C 134.29 182.15 133.55 181.36 132.61 181.33 C 131.67 181.30 130.88 182.03 130.85 182.97 Z M 130.85 183.98 L 130.82 185.03 C 130.79 185.95 131.52 186.72 132.44 186.75 C 133.37 186.78 134.14 186.05 134.17 185.12 L 134.20 184.08 C 134.22 183.16 133.49 182.38 132.57 182.36 C 131.64 182.33 130.87 183.06 130.85 183.98 Z M 130.83 185.03 L 130.83 185.31 C 130.80 186.22 131.52 186.98 132.44 187.01 C 133.35 187.03 134.11 186.31 134.14 185.40 L 134.15 185.12 C 134.17 184.21 133.45 183.44 132.54 183.42 C 131.62 183.39 130.86 184.11 130.83 185.03 Z"
      fill="black"
      fill-rule="nonzero" /><path d="M 156.54 119.94 L 156.24 120.82 C 155.91 121.78 156.41 122.82 157.37 123.15 C 158.33 123.48 159.37 122.97 159.70 122.01 L 160.01 121.13 C 160.34 120.17 159.83 119.13 158.87 118.80 C 157.91 118.47 156.87 118.98 156.54 119.94 Z M 156.10 121.60 L 156.20 122.63 C 156.31 123.66 157.23 124.42 158.26 124.31 C 159.29 124.21 160.04 123.29 159.94 122.26 L 159.84 121.23 C 159.73 120.20 158.81 119.45 157.78 119.55 C 156.75 119.65 156.00 120.57 156.10 121.60 Z M 156.41 123.36 L 156.86 124.16 C 157.36 125.08 158.52 125.41 159.43 124.90 C 160.35 124.39 160.68 123.24 160.17 122.32 L 159.73 121.53 C 159.22 120.61 158.07 120.28 157.15 120.79 C 156.24 121.29 155.91 122.45 156.41 123.36 Z M 157.02 124.40 L 157.66 125.22 C 158.29 126.05 159.48 126.20 160.31 125.57 C 161.13 124.93 161.29 123.74 160.65 122.92 L 160.01 122.09 C 159.37 121.26 158.19 121.11 157.36 121.75 C 156.53 122.38 156.38 123.57 157.02 124.40 Z M 157.75 125.32 L 158.44 126.10 C 159.13 126.88 160.32 126.95 161.09 126.26 C 161.87 125.57 161.94 124.38 161.25 123.60 L 160.56 122.82 C 159.87 122.04 158.68 121.97 157.90 122.66 C 157.13 123.35 157.06 124.54 157.75 125.32 Z M 158.50 126.12 L 159.23 126.91 C 159.94 127.65 161.11 127.68 161.86 126.98 C 162.60 126.28 162.64 125.10 161.93 124.36 L 161.19 123.57 C 160.49 122.83 159.31 122.80 158.57 123.50 C 157.82 124.20 157.79 125.38 158.50 126.12 Z M 159.31 126.92 L 159.99 127.59 C 160.70 128.29 161.84 128.28 162.55 127.57 C 163.25 126.87 163.24 125.72 162.53 125.02 L 161.85 124.35 C 161.14 123.65 160.00 123.65 159.30 124.36 C 158.60 125.07 158.60 126.21 159.31 126.92 Z M 160.07 127.60 L 160.78 128.25 C 161.50 128.90 162.61 128.85 163.26 128.14 C 163.92 127.42 163.87 126.31 163.16 125.66 L 162.45 125.01 C 161.73 124.35 160.62 124.40 159.97 125.12 C 159.31 125.83 159.36 126.94 160.07 127.60 Z M 160.84 128.24 L 161.61 128.91 C 162.32 129.54 163.40 129.46 164.03 128.75 C 164.65 128.03 164.58 126.95 163.86 126.33 L 163.10 125.66 C 162.38 125.03 161.30 125.11 160.68 125.82 C 160.05 126.54 160.13 127.62 160.84 128.24 Z M 161.64 128.89 L 162.39 129.54 C 163.10 130.15 164.16 130.07 164.76 129.36 C 165.37 128.66 165.29 127.60 164.58 127.00 L 163.83 126.35 C 163.13 125.74 162.07 125.82 161.46 126.52 C 160.86 127.23 160.94 128.29 161.64 128.89 Z M 162.41 129.50 L 163.20 130.19 C 163.88 130.78 164.91 130.71 165.51 130.03 C 166.10 129.35 166.03 128.31 165.35 127.72 L 164.57 127.03 C 163.89 126.44 162.85 126.51 162.25 127.19 C 161.66 127.87 161.73 128.91 162.41 129.50 Z M 163.21 130.15 L 163.93 130.79 C 164.59 131.38 165.60 131.32 166.19 130.66 C 166.78 130.00 166.72 128.99 166.06 128.40 L 165.34 127.76 C 164.68 127.17 163.67 127.23 163.08 127.89 C 162.49 128.55 162.55 129.56 163.21 130.15 Z M 163.95 130.77 L 164.11 130.91 C 164.76 131.49 165.75 131.43 166.33 130.79 C 166.91 130.14 166.85 129.14 166.20 128.56 L 166.04 128.42 C 165.40 127.84 164.40 127.90 163.82 128.55 C 163.24 129.19 163.30 130.19 163.95 130.77 Z"
      fill="black"
      fill-rule="nonzero" /><path d="M 143.69 139.41 L 144.50 139.17 C 145.46 138.89 146.00 137.89 145.72 136.94 C 145.44 135.98 144.44 135.44 143.49 135.72 L 142.67 135.96 C 141.72 136.24 141.18 137.24 141.45 138.19 C 141.73 139.14 142.73 139.69 143.69 139.41 Z M 144.51 139.27 L 145.40 139.01 C 146.41 138.73 147.00 137.69 146.71 136.68 C 146.43 135.68 145.39 135.09 144.38 135.37 L 143.49 135.62 C 142.48 135.90 141.89 136.95 142.17 137.95 C 142.46 138.96 143.50 139.55 144.51 139.27 Z M 145.39 139.11 L 146.45 138.84 C 147.51 138.56 148.14 137.48 147.87 136.42 C 147.59 135.36 146.51 134.72 145.45 135.00 L 144.39 135.27 C 143.33 135.55 142.69 136.63 142.97 137.69 C 143.25 138.75 144.33 139.39 145.39 139.11 Z M 146.43 138.92 L 147.49 138.66 C 148.59 138.40 149.27 137.29 149.00 136.18 C 148.74 135.08 147.63 134.40 146.52 134.66 L 145.46 134.92 C 144.36 135.18 143.68 136.30 143.95 137.40 C 144.21 138.50 145.32 139.18 146.43 138.92 Z M 147.47 138.69 L 148.43 138.47 C 149.55 138.22 150.25 137.10 149.99 135.98 C 149.74 134.86 148.62 134.16 147.50 134.42 L 146.54 134.64 C 145.42 134.89 144.72 136.01 144.98 137.13 C 145.23 138.25 146.35 138.95 147.47 138.69 Z M 148.42 138.47 L 149.43 138.25 C 150.55 138.00 151.26 136.89 151.01 135.77 C 150.76 134.65 149.65 133.94 148.53 134.19 L 147.52 134.41 C 146.39 134.66 145.69 135.77 145.93 136.89 C 146.18 138.02 147.30 138.72 148.42 138.47 Z M 149.43 138.25 L 150.45 138.03 C 151.57 137.78 152.29 136.67 152.04 135.55 C 151.80 134.43 150.69 133.72 149.56 133.96 L 148.54 134.19 C 147.42 134.43 146.70 135.54 146.95 136.66 C 147.19 137.78 148.30 138.50 149.43 138.25 Z M 150.45 138.03 L 151.43 137.82 C 152.56 137.57 153.27 136.47 153.03 135.34 C 152.79 134.22 151.68 133.51 150.56 133.75 L 149.57 133.96 C 148.45 134.20 147.73 135.31 147.97 136.43 C 148.22 137.56 149.32 138.27 150.45 138.03 Z M 151.43 137.82 L 152.43 137.60 C 153.55 137.36 154.27 136.25 154.03 135.13 C 153.78 134.01 152.68 133.29 151.56 133.53 L 150.56 133.75 C 149.43 133.99 148.72 135.10 148.96 136.22 C 149.20 137.34 150.31 138.06 151.43 137.82 Z M 152.43 137.60 L 153.53 137.36 C 154.65 137.12 155.36 136.01 155.12 134.89 C 154.88 133.77 153.78 133.06 152.65 133.30 L 151.55 133.54 C 150.43 133.78 149.72 134.88 149.96 136.01 C 150.20 137.13 151.31 137.84 152.43 137.60 Z M 153.53 137.36 L 154.48 137.15 C 155.60 136.91 156.31 135.81 156.07 134.69 C 155.83 133.57 154.73 132.86 153.61 133.10 L 152.66 133.30 C 151.54 133.54 150.82 134.65 151.06 135.77 C 151.30 136.89 152.41 137.60 153.53 137.36 Z M 154.47 137.15 L 155.34 136.97 C 156.46 136.73 157.17 135.63 156.94 134.51 C 156.70 133.40 155.60 132.68 154.48 132.92 L 153.61 133.10 C 152.49 133.34 151.78 134.44 152.02 135.56 C 152.25 136.67 153.35 137.39 154.47 137.15 Z M 155.33 136.97 L 156.23 136.78 C 157.35 136.55 158.07 135.46 157.84 134.34 C 157.61 133.22 156.51 132.50 155.40 132.73 L 154.49 132.92 C 153.38 133.15 152.66 134.24 152.89 135.36 C 153.12 136.48 154.21 137.20 155.33 136.97 Z M 156.23 136.77 L 157.18 136.58 C 158.30 136.35 159.02 135.27 158.79 134.15 C 158.57 133.04 157.48 132.32 156.36 132.54 L 155.41 132.74 C 154.29 132.96 153.57 134.05 153.80 135.17 C 154.02 136.28 155.11 137.00 156.23 136.77 Z M 157.19 136.57 L 158.18 136.37 C 159.29 136.15 160.01 135.06 159.78 133.95 C 159.55 132.84 158.47 132.12 157.36 132.35 L 156.36 132.55 C 155.25 132.77 154.54 133.86 154.76 134.97 C 154.99 136.08 156.07 136.80 157.19 136.57 Z M 158.18 136.36 L 159.20 136.15 C 160.30 135.92 161.01 134.84 160.78 133.73 C 160.55 132.62 159.47 131.91 158.36 132.14 L 157.35 132.35 C 156.24 132.58 155.53 133.67 155.76 134.78 C 155.99 135.88 157.08 136.59 158.18 136.36 Z M 159.21 136.14 L 160.18 135.93 C 161.29 135.70 161.99 134.61 161.75 133.51 C 161.51 132.41 160.43 131.71 159.33 131.94 L 158.35 132.15 C 157.25 132.39 156.55 133.47 156.78 134.58 C 157.02 135.68 158.10 136.38 159.21 136.14 Z M 160.19 135.92 L 161.18 135.70 C 162.27 135.46 162.97 134.38 162.73 133.28 C 162.49 132.19 161.40 131.50 160.31 131.74 L 159.32 131.95 C 158.22 132.19 157.53 133.28 157.77 134.37 C 158.01 135.47 159.10 136.16 160.19 135.92 Z M 161.18 135.69 L 162.16 135.48 C 163.25 135.23 163.94 134.15 163.69 133.06 C 163.45 131.97 162.37 131.28 161.28 131.53 L 160.30 131.75 C 159.21 131.99 158.53 133.07 158.77 134.16 C 159.01 135.25 160.09 135.94 161.18 135.69 Z M 162.16 135.47 L 163.15 135.24 C 164.24 135.00 164.92 133.92 164.67 132.83 C 164.43 131.75 163.35 131.07 162.26 131.31 L 161.27 131.54 C 160.19 131.78 159.51 132.86 159.76 133.95 C 160.00 135.03 161.08 135.71 162.16 135.47 Z M 163.16 135.23 L 164.15 135.00 C 165.23 134.76 165.90 133.68 165.66 132.60 C 165.41 131.52 164.33 130.85 163.25 131.09 L 162.26 131.32 C 161.18 131.57 160.51 132.65 160.75 133.73 C 161.00 134.81 162.08 135.48 163.16 135.23 Z M 164.16 134.99 L 165.12 134.77 C 166.20 134.51 166.86 133.44 166.61 132.36 C 166.35 131.29 165.27 130.62 164.20 130.88 L 163.24 131.10 C 162.17 131.36 161.50 132.44 161.76 133.51 C 162.01 134.58 163.09 135.25 164.16 134.99 Z M 165.14 134.75 L 166.09 134.52 C 167.15 134.26 167.81 133.18 167.54 132.11 C 167.28 131.04 166.20 130.39 165.13 130.66 L 164.18 130.89 C 163.12 131.15 162.46 132.23 162.73 133.30 C 162.99 134.37 164.07 135.02 165.14 134.75 Z M 166.10 134.51 L 167.09 134.25 C 168.15 133.98 168.79 132.90 168.52 131.84 C 168.24 130.78 167.16 130.14 166.10 130.41 L 165.11 130.67 C 164.05 130.94 163.42 132.02 163.69 133.08 C 163.96 134.14 165.04 134.78 166.10 134.51 Z M 167.11 134.24 L 168.07 133.98 C 169.13 133.70 169.75 132.62 169.47 131.57 C 169.19 130.51 168.11 129.89 167.06 130.17 L 166.09 130.43 C 165.04 130.71 164.41 131.79 164.69 132.84 C 164.97 133.89 166.05 134.52 167.11 134.24 Z M 168.08 133.97 L 169.02 133.72 C 170.07 133.43 170.69 132.35 170.40 131.31 C 170.12 130.26 169.04 129.64 167.99 129.92 L 167.05 130.18 C 166.00 130.46 165.38 131.54 165.67 132.59 C 165.95 133.64 167.03 134.26 168.08 133.97 Z M 169.02 133.71 L 170.02 133.43 C 171.06 133.15 171.68 132.08 171.39 131.04 C 171.11 129.99 170.04 129.38 168.99 129.66 L 167.99 129.93 C 166.95 130.22 166.34 131.29 166.62 132.33 C 166.90 133.37 167.98 133.99 169.02 133.71 Z M 170.02 133.42 L 170.98 133.16 C 172.01 132.88 172.62 131.81 172.34 130.78 C 172.06 129.74 170.99 129.13 169.96 129.41 L 169.00 129.67 C 167.96 129.96 167.35 131.02 167.63 132.06 C 167.92 133.09 168.98 133.70 170.02 133.42 Z M 170.98 133.15 L 171.92 132.89 C 172.95 132.61 173.55 131.54 173.27 130.52 C 172.99 129.49 171.93 128.89 170.90 129.17 L 169.96 129.43 C 168.93 129.71 168.33 130.77 168.61 131.80 C 168.89 132.82 169.95 133.43 170.98 133.15 Z M 171.92 132.87 L 172.91 132.60 C 173.93 132.31 174.53 131.26 174.25 130.24 C 173.96 129.22 172.91 128.62 171.89 128.91 L 170.90 129.18 C 169.88 129.47 169.28 130.52 169.56 131.54 C 169.85 132.56 170.90 133.16 171.92 132.87 Z M 172.91 132.58 L 173.86 132.32 C 174.87 132.04 175.46 130.99 175.17 129.98 C 174.89 128.97 173.84 128.38 172.83 128.66 L 171.89 128.92 C 170.88 129.21 170.29 130.25 170.57 131.26 C 170.86 132.27 171.90 132.86 172.91 132.58 Z M 173.85 132.30 L 174.82 132.03 C 175.83 131.75 176.41 130.71 176.13 129.71 C 175.84 128.70 174.80 128.12 173.80 128.40 L 172.83 128.68 C 171.83 128.96 171.25 130.00 171.53 131.00 C 171.81 132.00 172.85 132.58 173.85 132.30 Z M 174.83 132.01 L 175.79 131.73 C 176.78 131.44 177.35 130.41 177.06 129.42 C 176.77 128.43 175.74 127.86 174.75 128.15 L 173.79 128.42 C 172.81 128.71 172.24 129.75 172.52 130.73 C 172.81 131.72 173.84 132.29 174.83 132.01 Z M 175.81 131.70 L 176.76 131.41 C 177.73 131.11 178.28 130.08 177.98 129.10 C 177.68 128.13 176.64 127.58 175.67 127.88 L 174.72 128.18 C 173.75 128.48 173.20 129.51 173.50 130.48 C 173.80 131.46 174.84 132.00 175.81 131.70 Z M 176.71 131.40 L 177.67 131.13 C 178.64 130.86 179.20 129.85 178.93 128.88 C 178.65 127.92 177.65 127.35 176.68 127.62 L 175.72 127.89 C 174.75 128.17 174.19 129.17 174.46 130.14 C 174.73 131.11 175.74 131.68 176.71 131.40 Z M 177.44 131.16 L 178.41 131.01 C 179.40 130.86 180.07 129.95 179.93 128.96 C 179.78 127.98 178.86 127.30 177.88 127.45 L 176.90 127.60 C 175.92 127.75 175.24 128.66 175.39 129.65 C 175.54 130.63 176.46 131.31 177.44 131.16 Z M 178.17 131.01 L 179.17 131.00 C 180.15 130.99 180.94 130.18 180.93 129.20 C 180.92 128.21 180.11 127.43 179.12 127.44 L 178.13 127.45 C 177.14 127.46 176.35 128.27 176.36 129.25 C 176.38 130.24 177.18 131.02 178.17 131.01 Z M 179.08 130.99 L 179.68 131.01 C 180.66 131.05 181.48 130.29 181.52 129.31 C 181.55 128.33 180.79 127.51 179.82 127.47 L 179.21 127.45 C 178.24 127.41 177.42 128.18 177.38 129.15 C 177.34 130.13 178.10 130.95 179.08 130.99 Z"
      fill="black"
      fill-rule="nonzero" /><path d="M 148.64 155.21 L 149.34 154.53 C 150.00 153.90 150.02 152.86 149.39 152.20 C 148.76 151.55 147.72 151.53 147.06 152.16 L 146.36 152.84 C 145.70 153.47 145.68 154.51 146.31 155.16 C 146.94 155.82 147.98 155.84 148.64 155.21 Z M 149.28 154.81 L 150.10 154.21 C 150.91 153.62 151.08 152.48 150.49 151.67 C 149.90 150.86 148.76 150.69 147.95 151.28 L 147.13 151.88 C 146.32 152.47 146.14 153.61 146.73 154.42 C 147.33 155.23 148.46 155.41 149.28 154.81 Z M 149.84 154.47 L 150.62 154.11 C 151.57 153.66 151.98 152.52 151.53 151.56 C 151.08 150.61 149.94 150.20 148.99 150.65 L 148.21 151.02 C 147.25 151.47 146.84 152.61 147.29 153.56 C 147.74 154.52 148.88 154.92 149.84 154.47 Z M 150.38 154.21 L 151.33 153.91 C 152.34 153.59 152.90 152.51 152.58 151.49 C 152.26 150.48 151.18 149.92 150.17 150.25 L 149.22 150.55 C 148.21 150.87 147.65 151.95 147.97 152.96 C 148.29 153.97 149.37 154.53 150.38 154.21 Z M 151.19 153.95 L 152.29 153.69 C 153.33 153.45 153.97 152.41 153.73 151.38 C 153.48 150.34 152.45 149.70 151.41 149.94 L 150.31 150.20 C 149.28 150.45 148.63 151.48 148.88 152.52 C 149.12 153.55 150.16 154.19 151.19 153.95 Z M 152.23 153.71 L 153.22 153.51 C 154.26 153.30 154.94 152.29 154.73 151.24 C 154.52 150.20 153.51 149.52 152.46 149.73 L 151.48 149.93 C 150.43 150.13 149.75 151.15 149.96 152.19 C 150.17 153.24 151.19 153.92 152.23 153.71 Z M 153.19 153.52 L 154.22 153.33 C 155.26 153.13 155.96 152.13 155.76 151.08 C 155.57 150.03 154.57 149.34 153.52 149.54 L 152.49 149.72 C 151.44 149.92 150.75 150.92 150.94 151.97 C 151.14 153.02 152.14 153.71 153.19 153.52 Z M 154.21 153.33 L 155.19 153.15 C 156.24 152.97 156.94 151.97 156.75 150.92 C 156.57 149.87 155.56 149.17 154.52 149.36 L 153.53 149.53 C 152.48 149.72 151.78 150.72 151.97 151.77 C 152.16 152.82 153.16 153.52 154.21 153.33 Z M 155.20 153.15 L 156.25 152.96 C 157.30 152.77 157.99 151.77 157.80 150.72 C 157.61 149.67 156.61 148.98 155.56 149.17 L 154.51 149.36 C 153.46 149.55 152.77 150.55 152.96 151.60 C 153.15 152.65 154.15 153.34 155.20 153.15 Z M 156.26 152.96 L 157.27 152.77 C 158.31 152.57 159.00 151.56 158.80 150.52 C 158.61 149.47 157.60 148.79 156.55 148.98 L 155.55 149.17 C 154.51 149.37 153.82 150.38 154.01 151.42 C 154.21 152.46 155.22 153.15 156.26 152.96 Z M 157.25 152.77 L 158.10 152.61 C 159.15 152.43 159.84 151.43 159.66 150.39 C 159.47 149.34 158.47 148.65 157.43 148.83 L 156.58 148.98 C 155.53 149.17 154.83 150.17 155.02 151.21 C 155.20 152.25 156.20 152.95 157.25 152.77 Z M 158.04 152.62 L 159.03 152.47 C 160.07 152.32 160.80 151.35 160.64 150.30 C 160.49 149.26 159.52 148.53 158.47 148.69 L 157.49 148.83 C 156.44 148.98 155.72 149.96 155.87 151.00 C 156.03 152.05 157.00 152.77 158.04 152.62 Z M 159.00 152.47 L 159.99 152.34 C 161.03 152.20 161.77 151.24 161.63 150.20 C 161.49 149.16 160.54 148.43 159.50 148.56 L 158.50 148.69 C 157.46 148.83 156.72 149.78 156.86 150.83 C 157.00 151.87 157.95 152.60 159.00 152.47 Z M 160.00 152.32 L 160.99 152.19 C 162.02 152.05 162.75 151.09 162.61 150.06 C 162.46 149.02 161.51 148.30 160.47 148.44 L 159.49 148.57 C 158.45 148.72 157.73 149.67 157.87 150.71 C 158.01 151.74 158.96 152.47 160.00 152.32 Z M 161.00 152.18 L 162.00 152.03 C 163.02 151.88 163.74 150.92 163.58 149.90 C 163.43 148.87 162.48 148.16 161.45 148.31 L 160.46 148.45 C 159.43 148.60 158.72 149.56 158.87 150.59 C 159.02 151.61 159.98 152.33 161.00 152.18 Z M 162.01 152.01 L 163.00 151.86 C 164.02 151.71 164.72 150.75 164.56 149.73 C 164.41 148.71 163.45 148.01 162.43 148.17 L 161.44 148.32 C 160.42 148.48 159.72 149.43 159.88 150.45 C 160.03 151.47 160.99 152.17 162.01 152.01 Z M 163.02 151.84 L 164.00 151.68 C 165.01 151.51 165.69 150.56 165.53 149.55 C 165.36 148.55 164.41 147.86 163.40 148.03 L 162.42 148.19 C 161.41 148.36 160.72 149.31 160.89 150.32 C 161.06 151.32 162.01 152.01 163.02 151.84 Z M 164.03 151.66 L 165.02 151.48 C 166.01 151.30 166.67 150.34 166.49 149.35 C 166.31 148.35 165.36 147.69 164.36 147.87 L 163.37 148.05 C 162.38 148.23 161.72 149.19 161.90 150.18 C 162.08 151.18 163.04 151.84 164.03 151.66 Z M 165.04 151.45 L 166.02 151.26 C 167.01 151.06 167.64 150.11 167.45 149.13 C 167.25 148.14 166.30 147.51 165.32 147.70 L 164.34 147.90 C 163.36 148.09 162.72 149.05 162.91 150.03 C 163.11 151.01 164.06 151.65 165.04 151.45 Z M 166.03 151.23 L 167.01 151.03 C 167.98 150.84 168.60 149.89 168.40 148.92 C 168.20 147.95 167.26 147.33 166.29 147.52 L 165.31 147.72 C 164.34 147.92 163.72 148.87 163.92 149.84 C 164.12 150.81 165.06 151.43 166.03 151.23 Z M 167.02 151.01 L 167.99 150.80 C 168.95 150.59 169.56 149.65 169.35 148.70 C 169.15 147.75 168.21 147.14 167.25 147.34 L 166.28 147.55 C 165.32 147.76 164.72 148.70 164.92 149.65 C 165.12 150.60 166.06 151.21 167.02 151.01 Z M 168.04 150.76 L 168.98 150.53 C 169.92 150.30 170.49 149.36 170.26 148.42 C 170.03 147.49 169.09 146.92 168.16 147.15 L 167.21 147.38 C 166.28 147.61 165.70 148.55 165.93 149.48 C 166.16 150.42 167.10 150.99 168.04 150.76 Z M 169.06 150.48 L 169.99 150.20 C 170.90 149.93 171.41 148.97 171.14 148.07 C 170.87 147.16 169.92 146.65 169.01 146.92 L 168.08 147.20 C 167.17 147.47 166.66 148.42 166.93 149.33 C 167.20 150.24 168.16 150.75 169.06 150.48 Z M 170.09 150.14 L 171.07 149.77 C 171.94 149.45 172.38 148.48 172.06 147.61 C 171.73 146.73 170.76 146.29 169.89 146.62 L 168.91 146.98 C 168.04 147.31 167.60 148.28 167.92 149.15 C 168.25 150.02 169.22 150.46 170.09 150.14 Z M 171.16 149.71 L 172.07 149.30 C 172.91 148.92 173.28 147.94 172.90 147.11 C 172.53 146.27 171.55 145.90 170.71 146.27 L 169.80 146.68 C 168.96 147.06 168.59 148.04 168.96 148.88 C 169.34 149.71 170.32 150.09 171.16 149.71 Z M 172.16 149.23 L 173.06 148.76 C 173.86 148.33 174.16 147.34 173.73 146.54 C 173.31 145.74 172.31 145.43 171.51 145.86 L 170.62 146.34 C 169.82 146.76 169.52 147.76 169.94 148.56 C 170.37 149.36 171.36 149.66 172.16 149.23 Z M 173.18 148.66 L 174.03 148.10 C 174.78 147.60 174.99 146.60 174.49 145.85 C 174.00 145.11 173.00 144.90 172.25 145.39 L 171.39 145.95 C 170.65 146.45 170.44 147.45 170.93 148.20 C 171.43 148.95 172.43 149.15 173.18 148.66 Z M 174.14 147.99 L 174.92 147.36 C 175.60 146.81 175.71 145.80 175.16 145.12 C 174.60 144.43 173.60 144.32 172.91 144.88 L 172.14 145.50 C 171.45 146.05 171.34 147.06 171.90 147.75 C 172.45 148.43 173.46 148.54 174.14 147.99 Z M 174.96 147.30 L 175.49 146.83 C 176.14 146.25 176.20 145.26 175.63 144.61 C 175.05 143.95 174.05 143.89 173.40 144.47 L 172.87 144.94 C 172.22 145.52 172.16 146.51 172.73 147.16 C 173.31 147.82 174.31 147.88 174.96 147.30 Z"
      fill="black"
      fill-rule="nonzero" /><path d="M 159.52 133.73 L 159.49 134.70 C 159.46 135.65 160.21 136.46 161.17 136.49 C 162.12 136.53 162.93 135.78 162.96 134.82 L 163.00 133.85 C 163.03 132.89 162.28 132.09 161.32 132.05 C 160.36 132.02 159.56 132.77 159.52 133.73 Z M 159.42 134.66 L 159.37 135.67 C 159.31 136.67 160.08 137.52 161.08 137.57 C 162.08 137.62 162.94 136.85 162.99 135.85 L 163.04 134.85 C 163.09 133.85 162.32 133.00 161.32 132.95 C 160.32 132.89 159.47 133.66 159.42 134.66 Z M 159.31 135.61 L 159.23 136.63 C 159.15 137.66 159.92 138.56 160.95 138.64 C 161.98 138.72 162.88 137.95 162.96 136.92 L 163.04 135.90 C 163.12 134.87 162.35 133.97 161.32 133.89 C 160.29 133.81 159.39 134.59 159.31 135.61 Z M 159.22 136.59 L 159.12 137.60 C 159.02 138.64 159.78 139.56 160.81 139.66 C 161.85 139.77 162.78 139.01 162.88 137.97 L 162.98 136.96 C 163.08 135.92 162.32 135.00 161.28 134.90 C 160.24 134.79 159.32 135.55 159.22 136.59 Z M 159.12 137.59 L 159.02 138.59 C 158.91 139.63 159.67 140.56 160.71 140.66 C 161.74 140.77 162.67 140.01 162.78 138.97 L 162.88 137.98 C 162.98 136.94 162.23 136.01 161.19 135.90 C 160.15 135.80 159.22 136.56 159.12 137.59 Z M 159.02 138.61 L 158.92 139.62 C 158.83 140.66 159.60 141.57 160.64 141.67 C 161.68 141.76 162.59 141.00 162.69 139.96 L 162.78 138.95 C 162.87 137.91 162.11 136.99 161.07 136.90 C 160.03 136.81 159.11 137.57 159.02 138.61 Z M 158.92 139.65 L 158.85 140.63 C 158.77 141.67 159.55 142.58 160.59 142.65 C 161.63 142.73 162.54 141.95 162.62 140.91 L 162.69 139.93 C 162.77 138.89 161.99 137.98 160.95 137.90 C 159.91 137.82 159.00 138.61 158.92 139.65 Z M 158.85 140.65 L 158.78 141.63 C 158.72 142.67 159.50 143.57 160.55 143.64 C 161.59 143.71 162.49 142.92 162.56 141.87 L 162.62 140.89 C 162.69 139.85 161.90 138.95 160.86 138.88 C 159.81 138.82 158.92 139.60 158.85 140.65 Z M 158.78 141.63 L 158.72 142.59 C 158.66 143.63 159.45 144.53 160.49 144.60 C 161.53 144.66 162.43 143.87 162.50 142.83 L 162.56 141.87 C 162.62 140.83 161.83 139.93 160.79 139.86 C 159.75 139.80 158.85 140.59 158.78 141.63 Z M 158.72 142.59 L 158.65 143.60 C 158.59 144.64 159.38 145.54 160.42 145.61 C 161.46 145.68 162.36 144.89 162.43 143.85 L 162.50 142.83 C 162.56 141.79 161.77 140.89 160.73 140.82 C 159.69 140.75 158.79 141.54 158.72 142.59 Z M 158.65 143.59 L 158.58 144.61 C 158.51 145.66 159.30 146.56 160.34 146.63 C 161.38 146.70 162.29 145.92 162.36 144.87 L 162.43 143.85 C 162.50 142.81 161.72 141.91 160.67 141.83 C 159.63 141.76 158.73 142.55 158.65 143.59 Z M 158.58 144.61 L 158.51 145.59 C 158.44 146.63 159.22 147.54 160.26 147.61 C 161.31 147.69 162.21 146.90 162.29 145.86 L 162.36 144.88 C 162.44 143.84 161.65 142.93 160.61 142.85 C 159.57 142.78 158.66 143.56 158.58 144.61 Z M 158.51 145.59 L 158.44 146.60 C 158.37 147.64 159.15 148.55 160.20 148.62 C 161.24 148.70 162.15 147.91 162.22 146.87 L 162.29 145.86 C 162.37 144.81 161.58 143.91 160.54 143.83 C 159.49 143.76 158.59 144.55 158.51 145.59 Z M 158.44 146.61 L 158.37 147.63 C 158.30 148.67 159.10 149.57 160.14 149.64 C 161.19 149.71 162.09 148.92 162.16 147.87 L 162.22 146.85 C 162.29 145.81 161.50 144.91 160.45 144.84 C 159.41 144.77 158.51 145.56 158.44 146.61 Z M 158.37 147.64 L 158.31 148.64 C 158.25 149.68 159.05 150.58 160.10 150.64 C 161.14 150.70 162.04 149.90 162.10 148.85 L 162.16 147.86 C 162.22 146.81 161.42 145.92 160.37 145.86 C 159.33 145.80 158.43 146.59 158.37 147.64 Z M 158.31 148.64 L 158.26 149.64 C 158.20 150.69 159.00 151.58 160.05 151.64 C 161.10 151.70 161.99 150.89 162.05 149.85 L 162.10 148.85 C 162.16 147.80 161.36 146.90 160.31 146.85 C 159.26 146.79 158.37 147.59 158.31 148.64 Z M 158.25 149.64 L 158.20 150.64 C 158.14 151.69 158.94 152.58 159.99 152.64 C 161.04 152.70 161.93 151.90 161.99 150.85 L 162.05 149.85 C 162.11 148.80 161.31 147.91 160.26 147.85 C 159.21 147.79 158.31 148.59 158.25 149.64 Z M 158.20 150.62 L 158.13 151.62 C 158.06 152.67 158.86 153.57 159.91 153.64 C 160.96 153.71 161.87 152.91 161.93 151.86 L 162.00 150.87 C 162.06 149.82 161.27 148.91 160.22 148.85 C 159.17 148.78 158.26 149.58 158.20 150.62 Z M 158.13 151.61 L 158.06 152.60 C 157.99 153.65 158.78 154.56 159.83 154.63 C 160.89 154.71 161.79 153.91 161.87 152.86 L 161.93 151.87 C 162.01 150.82 161.21 149.91 160.16 149.84 C 159.11 149.76 158.20 150.56 158.13 151.61 Z M 158.06 152.60 L 157.99 153.61 C 157.92 154.66 158.72 155.57 159.77 155.64 C 160.82 155.71 161.73 154.91 161.80 153.86 L 161.87 152.86 C 161.94 151.81 161.14 150.90 160.09 150.83 C 159.04 150.76 158.13 151.55 158.06 152.60 Z M 157.99 153.62 L 157.93 154.63 C 157.86 155.68 158.66 156.59 159.72 156.66 C 160.77 156.72 161.68 155.92 161.74 154.87 L 161.80 153.85 C 161.87 152.80 161.07 151.89 160.01 151.83 C 158.96 151.76 158.05 152.56 157.99 153.62 Z M 157.92 154.64 L 157.87 155.66 C 157.81 156.72 158.62 157.62 159.67 157.68 C 160.73 157.73 161.63 156.93 161.69 155.87 L 161.74 154.85 C 161.80 153.80 160.99 152.90 159.94 152.84 C 158.88 152.78 157.98 153.59 157.92 154.64 Z M 157.87 155.67 L 157.82 156.67 C 157.77 157.73 158.58 158.63 159.64 158.68 C 160.69 158.73 161.59 157.91 161.64 156.86 L 161.69 155.86 C 161.74 154.80 160.93 153.91 159.87 153.85 C 158.81 153.80 157.92 154.62 157.87 155.67 Z M 157.82 156.69 L 157.78 157.67 C 157.73 158.73 158.55 159.62 159.61 159.66 C 160.67 159.71 161.56 158.89 161.60 157.83 L 161.64 156.84 C 161.69 155.79 160.87 154.90 159.81 154.85 C 158.75 154.81 157.86 155.63 157.82 156.69 Z M 157.78 157.68 L 157.74 158.72 C 157.70 159.78 158.53 160.67 159.59 160.71 C 160.64 160.74 161.53 159.92 161.57 158.86 L 161.60 157.82 C 161.64 156.76 160.81 155.87 159.76 155.84 C 158.70 155.80 157.81 156.62 157.78 157.68 Z M 157.74 158.73 L 157.71 159.71 C 157.68 160.77 158.51 161.65 159.56 161.69 C 160.62 161.72 161.50 160.89 161.54 159.83 L 161.57 158.85 C 161.60 157.79 160.77 156.91 159.71 156.88 C 158.65 156.84 157.77 157.68 157.74 158.73 Z M 157.71 159.72 L 157.68 160.69 C 157.65 161.75 158.48 162.63 159.54 162.66 C 160.60 162.69 161.48 161.86 161.51 160.80 L 161.54 159.83 C 161.57 158.77 160.74 157.89 159.68 157.86 C 158.62 157.83 157.74 158.66 157.71 159.72 Z M 157.68 160.69 L 157.65 161.71 C 157.62 162.77 158.46 163.65 159.51 163.68 C 160.57 163.71 161.45 162.88 161.48 161.82 L 161.51 160.80 C 161.54 159.75 160.70 158.87 159.65 158.84 C 158.59 158.81 157.71 159.64 157.68 160.69 Z M 157.66 161.72 L 157.64 162.70 C 157.61 163.75 158.44 164.63 159.50 164.65 C 160.55 164.68 161.43 163.84 161.45 162.79 L 161.47 161.81 C 161.50 160.76 160.66 159.89 159.61 159.86 C 158.56 159.84 157.68 160.67 157.66 161.72 Z M 157.64 162.72 L 157.63 163.68 C 157.61 164.73 158.45 165.59 159.50 165.61 C 160.55 165.62 161.42 164.78 161.43 163.73 L 161.44 162.77 C 161.46 161.72 160.62 160.86 159.57 160.84 C 158.52 160.83 157.65 161.67 157.64 162.72 Z M 157.63 163.69 L 157.63 164.68 C 157.62 165.72 158.47 166.57 159.52 166.58 C 160.56 166.58 161.42 165.74 161.42 164.69 L 161.43 163.71 C 161.43 162.66 160.58 161.81 159.54 161.81 C 158.49 161.80 157.64 162.65 157.63 163.69 Z M 157.64 164.68 L 157.64 165.72 C 157.64 166.76 158.48 167.61 159.52 167.61 C 160.57 167.61 161.41 166.76 161.41 165.72 L 161.41 164.68 C 161.41 163.64 160.57 162.79 159.53 162.79 C 158.48 162.79 157.64 163.64 157.64 164.68 Z M 157.65 165.74 L 157.66 166.74 C 157.67 167.77 158.53 168.60 159.56 168.59 C 160.60 168.58 161.43 167.72 161.42 166.69 L 161.40 165.69 C 161.39 164.65 160.54 163.82 159.50 163.84 C 158.46 163.85 157.63 164.70 157.65 165.74 Z M 157.67 166.83 L 157.74 167.85 C 157.80 168.88 158.69 169.66 159.72 169.60 C 160.75 169.53 161.53 168.65 161.47 167.62 L 161.40 166.59 C 161.34 165.56 160.45 164.78 159.42 164.85 C 158.39 164.91 157.61 165.80 157.67 166.83 Z M 157.77 168.03 L 157.93 169.02 C 158.09 170.04 159.04 170.72 160.06 170.56 C 161.07 170.40 161.76 169.45 161.59 168.44 L 161.43 167.44 C 161.27 166.43 160.32 165.74 159.31 165.90 C 158.30 166.06 157.61 167.01 157.77 168.03 Z M 158.01 169.25 L 158.31 170.23 C 158.60 171.19 159.61 171.74 160.58 171.45 C 161.54 171.16 162.09 170.14 161.80 169.18 L 161.51 168.21 C 161.22 167.24 160.20 166.69 159.24 166.98 C 158.27 167.27 157.73 168.29 158.01 169.25 Z M 158.40 170.38 L 158.77 171.28 C 159.15 172.19 160.19 172.63 161.10 172.26 C 162.01 171.89 162.45 170.85 162.07 169.94 L 161.70 169.03 C 161.33 168.12 160.29 167.68 159.38 168.05 C 158.47 168.42 158.03 169.46 158.40 170.38 Z M 158.82 171.32 L 159.00 171.73 C 159.40 172.61 160.43 173.01 161.32 172.62 C 162.20 172.22 162.60 171.19 162.20 170.30 L 162.02 169.90 C 161.63 169.01 160.60 168.62 159.71 169.01 C 158.83 169.40 158.43 170.44 158.82 171.32 Z"
      fill="black"
      fill-rule="nonzero" /><path d="M 145.74 179.63 L 146.57 179.21 C 147.44 178.77 147.78 177.70 147.34 176.83 C 146.90 175.96 145.83 175.62 144.96 176.06 L 144.13 176.49 C 143.26 176.93 142.91 177.99 143.36 178.86 C 143.80 179.73 144.87 180.08 145.74 179.63 Z M 146.52 179.35 L 147.43 178.95 C 148.37 178.54 148.81 177.43 148.39 176.48 C 147.97 175.54 146.87 175.11 145.92 175.52 L 145.01 175.92 C 144.06 176.34 143.63 177.44 144.05 178.39 C 144.46 179.34 145.57 179.77 146.52 179.35 Z M 147.29 179.10 L 148.30 178.77 C 149.33 178.43 149.89 177.32 149.55 176.29 C 149.20 175.26 148.09 174.70 147.06 175.04 L 146.06 175.37 C 145.03 175.71 144.47 176.82 144.81 177.85 C 145.15 178.88 146.26 179.44 147.29 179.10 Z M 148.15 178.85 L 149.13 178.62 C 150.20 178.36 150.86 177.27 150.60 176.19 C 150.34 175.12 149.26 174.46 148.18 174.72 L 147.21 174.96 C 146.13 175.22 145.47 176.30 145.73 177.38 C 145.99 178.45 147.08 179.11 148.15 178.85 Z M 149.04 178.64 L 150.05 178.44 C 151.14 178.23 151.85 177.17 151.64 176.08 C 151.42 175.00 150.37 174.29 149.28 174.50 L 148.27 174.70 C 147.18 174.91 146.47 175.97 146.69 177.05 C 146.90 178.14 147.95 178.85 149.04 178.64 Z M 150.00 178.45 L 150.97 178.29 C 152.07 178.10 152.80 177.06 152.62 175.97 C 152.43 174.88 151.39 174.14 150.30 174.32 L 149.33 174.49 C 148.24 174.68 147.50 175.71 147.69 176.81 C 147.87 177.90 148.91 178.64 150.00 178.45 Z M 150.95 178.29 L 152.00 178.12 C 153.10 177.95 153.84 176.92 153.67 175.83 C 153.50 174.73 152.47 173.98 151.37 174.16 L 150.32 174.32 C 149.23 174.49 148.48 175.52 148.65 176.62 C 148.83 177.71 149.85 178.46 150.95 178.29 Z M 151.98 178.13 L 152.94 177.99 C 154.03 177.83 154.79 176.81 154.63 175.71 C 154.47 174.61 153.45 173.85 152.35 174.01 L 151.40 174.15 C 150.30 174.31 149.54 175.33 149.70 176.43 C 149.86 177.53 150.88 178.29 151.98 178.13 Z M 152.91 177.99 L 153.85 177.86 C 154.95 177.71 155.72 176.70 155.58 175.60 C 155.43 174.51 154.42 173.74 153.32 173.88 L 152.38 174.01 C 151.28 174.16 150.51 175.17 150.66 176.27 C 150.80 177.37 151.81 178.14 152.91 177.99 Z M 153.84 177.86 L 154.81 177.74 C 155.91 177.60 156.69 176.60 156.55 175.50 C 156.41 174.40 155.41 173.62 154.31 173.76 L 153.34 173.88 C 152.24 174.02 151.46 175.02 151.60 176.12 C 151.73 177.22 152.74 178.00 153.84 177.86 Z M 154.80 177.74 L 155.81 177.62 C 156.91 177.48 157.69 176.48 157.56 175.39 C 157.42 174.29 156.42 173.50 155.32 173.64 L 154.32 173.76 C 153.22 173.89 152.43 174.89 152.57 175.99 C 152.70 177.09 153.70 177.87 154.80 177.74 Z M 155.80 177.62 L 156.81 177.50 C 157.91 177.36 158.69 176.37 158.56 175.27 C 158.43 174.17 157.43 173.39 156.33 173.52 L 155.33 173.64 C 154.23 173.77 153.45 174.77 153.58 175.87 C 153.71 176.96 154.71 177.75 155.80 177.62 Z M 156.80 177.49 L 157.79 177.38 C 158.89 177.25 159.67 176.25 159.54 175.16 C 159.41 174.06 158.42 173.28 157.32 173.41 L 156.33 173.52 C 155.24 173.65 154.45 174.65 154.58 175.74 C 154.71 176.84 155.71 177.62 156.80 177.49 Z M 157.78 177.37 L 158.78 177.26 C 159.88 177.13 160.66 176.14 160.54 175.05 C 160.41 173.95 159.42 173.17 158.32 173.29 L 157.32 173.41 C 156.23 173.53 155.44 174.52 155.57 175.62 C 155.70 176.71 156.69 177.50 157.78 177.37 Z M 158.77 177.26 L 159.76 177.15 C 160.86 177.03 161.64 176.04 161.52 174.95 C 161.40 173.85 160.42 173.06 159.32 173.19 L 158.33 173.30 C 157.24 173.42 156.45 174.40 156.57 175.49 C 156.69 176.59 157.68 177.38 158.77 177.26 Z M 159.76 177.14 L 160.74 177.04 C 161.84 176.92 162.63 175.94 162.51 174.85 C 162.39 173.75 161.41 172.96 160.32 173.08 L 159.33 173.19 C 158.24 173.31 157.45 174.29 157.56 175.38 C 157.68 176.47 158.66 177.26 159.76 177.14 Z M 160.75 177.03 L 161.75 176.92 C 162.84 176.80 163.63 175.82 163.51 174.73 C 163.39 173.64 162.40 172.85 161.31 172.97 L 160.31 173.09 C 159.22 173.21 158.43 174.19 158.56 175.28 C 158.68 176.37 159.66 177.15 160.75 177.03 Z M 161.77 176.92 L 162.77 176.80 C 163.86 176.67 164.63 175.68 164.50 174.59 C 164.37 173.50 163.39 172.73 162.30 172.86 L 161.30 172.98 C 160.21 173.11 159.44 174.10 159.57 175.18 C 159.70 176.27 160.68 177.05 161.77 176.92 Z M 162.79 176.79 L 163.78 176.66 C 164.86 176.53 165.63 175.53 165.49 174.45 C 165.35 173.36 164.36 172.60 163.28 172.74 L 162.28 172.86 C 161.20 173.00 160.43 173.99 160.57 175.08 C 160.71 176.16 161.70 176.93 162.79 176.79 Z M 163.79 176.66 L 164.78 176.53 C 165.86 176.38 166.62 175.39 166.48 174.31 C 166.34 173.23 165.34 172.46 164.26 172.61 L 163.27 172.74 C 162.18 172.88 161.42 173.88 161.57 174.96 C 161.71 176.04 162.71 176.80 163.79 176.66 Z M 164.78 176.53 L 165.78 176.39 C 166.86 176.25 167.62 175.25 167.47 174.17 C 167.33 173.09 166.33 172.33 165.25 172.48 L 164.26 172.61 C 163.18 172.76 162.42 173.75 162.56 174.83 C 162.71 175.91 163.70 176.67 164.78 176.53 Z M 165.78 176.39 L 166.78 176.25 C 167.86 176.11 168.61 175.12 168.47 174.04 C 168.32 172.96 167.33 172.20 166.25 172.35 L 165.25 172.48 C 164.17 172.63 163.42 173.62 163.56 174.70 C 163.71 175.78 164.70 176.53 165.78 176.39 Z M 166.79 176.25 L 167.77 176.11 C 168.85 175.96 169.60 174.97 169.45 173.89 C 169.30 172.81 168.31 172.06 167.23 172.21 L 166.24 172.35 C 165.17 172.50 164.42 173.49 164.57 174.57 C 164.72 175.65 165.71 176.40 166.79 176.25 Z M 167.79 176.11 L 168.77 175.96 C 169.85 175.80 170.59 174.80 170.43 173.73 C 170.27 172.65 169.27 171.91 168.20 172.07 L 167.21 172.22 C 166.14 172.38 165.40 173.38 165.56 174.45 C 165.72 175.52 166.72 176.27 167.79 176.11 Z M 168.79 175.95 L 169.78 175.80 C 170.85 175.63 171.58 174.62 171.41 173.55 C 171.24 172.48 170.24 171.75 169.17 171.92 L 168.18 172.08 C 167.11 172.25 166.38 173.25 166.55 174.33 C 166.72 175.40 167.72 176.13 168.79 175.95 Z M 169.79 175.79 L 170.78 175.63 C 171.85 175.45 172.57 174.44 172.39 173.38 C 172.21 172.31 171.20 171.59 170.14 171.76 L 169.15 171.93 C 168.09 172.10 167.36 173.11 167.54 174.18 C 167.72 175.25 168.73 175.97 169.79 175.79 Z M 170.78 175.62 L 171.78 175.46 C 172.84 175.28 173.56 174.27 173.38 173.20 C 173.20 172.14 172.20 171.42 171.13 171.60 L 170.13 171.77 C 169.07 171.95 168.35 172.95 168.53 174.02 C 168.71 175.09 169.72 175.80 170.78 175.62 Z M 171.78 175.45 L 172.80 175.28 C 173.86 175.10 174.58 174.10 174.40 173.03 C 174.22 171.97 173.21 171.25 172.15 171.43 L 171.13 171.60 C 170.07 171.78 169.35 172.79 169.53 173.85 C 169.71 174.92 170.71 175.63 171.78 175.45 Z M 172.80 175.28 L 173.78 175.11 C 174.84 174.93 175.55 173.92 175.37 172.86 C 175.19 171.80 174.18 171.09 173.12 171.27 L 172.14 171.44 C 171.08 171.62 170.37 172.63 170.55 173.69 C 170.74 174.75 171.74 175.46 172.80 175.28 Z M 173.79 175.10 L 174.75 174.93 C 175.80 174.74 176.51 173.73 176.32 172.68 C 176.13 171.62 175.12 170.92 174.06 171.11 L 173.11 171.28 C 172.05 171.47 171.35 172.48 171.54 173.53 C 171.73 174.59 172.74 175.29 173.79 175.10 Z M 174.78 174.92 L 175.73 174.74 C 176.78 174.53 177.47 173.51 177.26 172.46 C 177.06 171.41 176.04 170.73 174.99 170.93 L 174.04 171.12 C 172.98 171.32 172.30 172.34 172.50 173.39 C 172.71 174.44 173.72 175.13 174.78 174.92 Z M 175.76 174.73 L 176.75 174.52 C 177.80 174.29 178.47 173.27 178.24 172.22 C 178.02 171.18 177.00 170.51 175.95 170.73 L 174.96 170.94 C 173.91 171.16 173.25 172.19 173.47 173.23 C 173.69 174.28 174.72 174.95 175.76 174.73 Z M 176.78 174.51 L 177.71 174.30 C 178.75 174.06 179.40 173.03 179.16 171.99 C 178.93 170.95 177.89 170.29 176.85 170.53 L 175.93 170.74 C 174.89 170.97 174.23 172.01 174.47 173.05 C 174.70 174.09 175.74 174.74 176.78 174.51 Z M 177.74 174.28 L 178.72 174.05 C 179.75 173.79 180.39 172.75 180.13 171.72 C 179.88 170.68 178.84 170.05 177.81 170.30 L 176.82 170.54 C 175.79 170.79 175.16 171.83 175.41 172.87 C 175.66 173.90 176.70 174.54 177.74 174.28 Z M 178.76 174.03 L 179.76 173.76 C 180.79 173.49 181.40 172.43 181.12 171.41 C 180.85 170.38 179.80 169.77 178.77 170.05 L 177.77 170.32 C 176.74 170.59 176.13 171.64 176.40 172.67 C 176.68 173.70 177.73 174.31 178.76 174.03 Z M 179.82 173.74 L 180.79 173.45 C 181.80 173.15 182.38 172.08 182.08 171.07 C 181.77 170.05 180.70 169.47 179.69 169.78 L 178.72 170.07 C 177.70 170.37 177.13 171.44 177.43 172.45 C 177.73 173.47 178.80 174.05 179.82 173.74 Z M 180.83 173.43 L 181.78 173.12 C 182.78 172.80 183.33 171.72 183.01 170.72 C 182.68 169.71 181.60 169.16 180.60 169.49 L 179.65 169.80 C 178.65 170.12 178.10 171.20 178.42 172.20 C 178.75 173.21 179.82 173.76 180.83 173.43 Z M 181.80 173.11 L 182.74 172.79 C 183.73 172.45 184.27 171.37 183.93 170.38 C 183.59 169.38 182.51 168.85 181.52 169.19 L 180.58 169.51 C 179.58 169.84 179.05 170.92 179.39 171.92 C 179.73 172.91 180.80 173.44 181.80 173.11 Z M 182.74 172.78 L 182.93 172.72 C 183.92 172.38 184.45 171.30 184.11 170.31 C 183.77 169.32 182.69 168.79 181.70 169.13 L 181.51 169.19 C 180.52 169.53 180.00 170.61 180.33 171.60 C 180.67 172.59 181.75 173.12 182.74 172.78 Z"
      fill="black"
      fill-rule="nonzero" /></svg>