<svg xmlns="http://www.w3.org/2000/svg" width="300" height="300" viewBox="0 0 300 300">
<path d="M 136.20 125.97 L 137.02 126.57 C 137.79 127.14 138.86 126.97 139.43 126.21 C 139.99 125.45 139.83 124.37 139.06 123.81 L 138.24 123.20 C 137.48 122.64 136.40 122.80 135.84 123.56 C 135.27 124.33 135.44 125.40 136.20 125.97 Z M 136.83 126.44 L 137.53 127.12 C 138.22 127.79 139.32 127.77 140.00 127.08 C 140.67 126.39 140.65 125.29 139.96 124.62 L 139.26 123.94 C 138.57 123.27 137.46 123.28 136.79 123.97 C 136.12 124.67 136.14 125.77 136.83 126.44 Z M 137.25 126.80 L 137.76 127.61 C 138.27 128.43 139.35 128.69 140.18 128.18 C 141.00 127.66 141.25 126.58 140.74 125.76 L 140.24 124.94 C 139.72 124.12 138.64 123.86 137.82 124.38 C 136.99 124.89 136.74 125.97 137.25 126.80 Z M 137.63 127.36 L 138.03 128.32 C 138.41 129.21 139.44 129.63 140.33 129.25 C 141.23 128.88 141.65 127.85 141.27 126.95 L 140.87 126.00 C 140.49 125.11 139.46 124.69 138.57 125.06 C 137.67 125.44 137.25 126.47 137.63 127.36 Z M 138.00 128.25 L 138.34 129.14 C 138.67 130.05 139.68 130.51 140.59 130.18 C 141.50 129.84 141.96 128.83 141.63 127.92 L 141.29 127.02 C 140.96 126.12 139.95 125.65 139.04 125.99 C 138.13 126.33 137.67 127.34 138.00 128.25 Z M 138.33 129.10 L 138.66 130.07 C 138.98 130.99 139.98 131.47 140.89 131.16 C 141.80 130.84 142.29 129.85 141.97 128.93 L 141.64 127.96 C 141.32 127.05 140.32 126.56 139.41 126.88 C 138.50 127.19 138.01 128.19 138.33 129.10 Z M 138.66 130.04 L 138.95 130.95 C 139.24 131.87 140.23 132.37 141.14 132.08 C 142.06 131.78 142.57 130.80 142.27 129.88 L 141.98 128.97 C 141.69 128.05 140.70 127.55 139.79 127.84 C 138.87 128.14 138.36 129.12 138.66 130.04 Z M 138.94 130.91 L 139.21 131.83 C 139.49 132.75 140.45 133.27 141.37 133.00 C 142.29 132.73 142.82 131.77 142.55 130.85 L 142.28 129.93 C 142.01 129.00 141.04 128.48 140.12 128.75 C 139.20 129.02 138.67 129.99 138.94 130.91 Z M 139.21 131.79 L 139.49 132.82 C 139.74 133.74 140.69 134.29 141.61 134.04 C 142.53 133.79 143.08 132.84 142.83 131.92 L 142.55 130.89 C 142.30 129.96 141.35 129.42 140.43 129.67 C 139.51 129.91 138.96 130.86 139.21 131.79 Z M 139.49 132.79 L 139.73 133.73 C 139.96 134.65 140.89 135.21 141.81 134.98 C 142.73 134.75 143.29 133.82 143.06 132.89 L 142.83 131.95 C 142.60 131.03 141.67 130.47 140.74 130.70 C 139.82 130.93 139.26 131.86 139.49 132.79 Z M 139.73 133.70 L 139.96 134.66 C 140.18 135.58 141.10 136.15 142.02 135.93 C 142.93 135.71 143.50 134.79 143.28 133.87 L 143.06 132.92 C 142.84 132.00 141.92 131.43 141.00 131.65 C 140.08 131.87 139.51 132.79 139.73 133.70 Z M 139.97 134.65 L 140.20 135.65 C 140.41 136.56 141.32 137.13 142.23 136.93 C 143.14 136.72 143.71 135.81 143.51 134.89 L 143.28 133.89 C 143.07 132.98 142.16 132.40 141.24 132.61 C 140.33 132.82 139.76 133.73 139.97 134.65 Z M 140.21 135.64 L 140.44 136.66 C 140.64 137.57 141.54 138.14 142.45 137.94 C 143.36 137.73 143.93 136.83 143.72 135.93 L 143.50 134.90 C 143.29 134.00 142.39 133.42 141.48 133.63 C 140.58 133.83 140.00 134.73 140.21 135.64 Z M 140.45 136.65 L 140.67 137.64 C 140.87 138.54 141.76 139.11 142.66 138.91 C 143.56 138.71 144.13 137.82 143.93 136.92 L 143.71 135.93 C 143.51 135.04 142.62 134.47 141.72 134.67 C 140.82 134.87 140.26 135.76 140.45 136.65 Z M 140.69 137.63 L 140.91 138.61 C 141.10 139.50 141.98 140.06 142.86 139.86 C 143.75 139.67 144.31 138.79 144.12 137.91 L 143.90 136.93 C 143.71 136.04 142.83 135.48 141.95 135.68 C 141.06 135.87 140.50 136.75 140.69 137.63 Z M 140.93 138.60 L 141.14 139.58 C 141.33 140.45 142.20 141.00 143.07 140.81 C 143.94 140.62 144.50 139.76 144.31 138.89 L 144.09 137.92 C 143.90 137.04 143.04 136.49 142.17 136.68 C 141.30 136.87 140.74 137.73 140.93 138.60 Z M 141.17 139.57 L 141.37 140.52 C 141.56 141.38 142.41 141.93 143.27 141.74 C 144.13 141.55 144.68 140.70 144.49 139.84 L 144.28 138.89 C 144.10 138.03 143.25 137.49 142.39 137.67 C 141.53 137.86 140.98 138.71 141.17 139.57 Z"
      fill="black"
      fill-rule="nonzero" /><path d="M 143.86 126.69 L 144.50 126.01 C 145.20 125.27 145.17 124.10 144.43 123.40 C 143.69 122.70 142.52 122.73 141.82 123.47 L 141.18 124.15 C 140.48 124.89 140.52 126.06 141.26 126.76 C 142.00 127.46 143.16 127.43 143.86 126.69 Z M 144.36 126.14 L 145.12 125.49 C 145.90 124.83 145.99 123.66 145.32 122.89 C 144.66 122.11 143.50 122.03 142.72 122.69 L 141.96 123.34 C 141.19 124.00 141.10 125.17 141.76 125.94 C 142.43 126.71 143.59 126.80 144.36 126.14 Z M 144.89 125.66 L 145.76 125.12 C 146.63 124.58 146.89 123.45 146.36 122.58 C 145.82 121.72 144.69 121.45 143.82 121.99 L 142.95 122.52 C 142.09 123.06 141.82 124.19 142.36 125.06 C 142.89 125.92 144.03 126.19 144.89 125.66 Z M 145.58 125.21 L 146.46 124.79 C 147.38 124.36 147.77 123.27 147.33 122.35 C 146.90 121.43 145.81 121.04 144.89 121.48 L 144.01 121.89 C 143.09 122.33 142.70 123.42 143.13 124.33 C 143.57 125.25 144.66 125.64 145.58 125.21 Z M 146.36 124.82 L 147.32 124.43 C 148.25 124.06 148.70 122.99 148.32 122.06 C 147.94 121.13 146.88 120.68 145.95 121.06 L 144.99 121.44 C 144.06 121.82 143.61 122.89 143.99 123.82 C 144.37 124.75 145.43 125.20 146.36 124.82 Z M 147.27 124.44 L 148.24 124.08 C 149.18 123.72 149.65 122.68 149.30 121.74 C 148.94 120.81 147.90 120.33 146.96 120.69 L 145.99 121.05 C 145.06 121.40 144.59 122.45 144.94 123.38 C 145.29 124.32 146.34 124.79 147.27 124.44 Z M 148.23 124.07 L 149.20 123.71 C 150.13 123.36 150.61 122.32 150.26 121.39 C 149.91 120.46 148.87 119.98 147.94 120.33 L 146.97 120.69 C 146.04 121.04 145.57 122.08 145.91 123.01 C 146.26 123.94 147.30 124.42 148.23 124.07 Z M 149.19 123.70 L 150.13 123.35 C 151.05 123.00 151.52 121.98 151.18 121.05 C 150.83 120.12 149.80 119.65 148.88 120.00 L 147.95 120.34 C 147.02 120.69 146.55 121.72 146.90 122.64 C 147.24 123.57 148.27 124.04 149.19 123.70 Z M 150.12 123.34 L 151.03 123.00 C 151.95 122.66 152.42 121.64 152.08 120.72 C 151.74 119.80 150.72 119.33 149.80 119.67 L 148.89 120.01 C 147.97 120.35 147.50 121.37 147.84 122.29 C 148.18 123.21 149.20 123.68 150.12 123.34 Z M 151.02 123.00 L 151.92 122.67 C 152.84 122.33 153.31 121.32 152.97 120.40 C 152.64 119.48 151.62 119.01 150.71 119.35 L 149.81 119.68 C 148.89 120.01 148.42 121.03 148.76 121.94 C 149.09 122.86 150.10 123.33 151.02 123.00 Z M 151.90 122.66 L 152.82 122.34 C 153.74 122.01 154.22 121.00 153.89 120.09 C 153.56 119.17 152.56 118.70 151.64 119.02 L 150.72 119.35 C 149.81 119.68 149.33 120.68 149.65 121.60 C 149.98 122.51 150.99 122.99 151.90 122.66 Z M 152.80 122.34 L 153.77 122.01 C 154.69 121.69 155.18 120.70 154.86 119.78 C 154.55 118.86 153.55 118.38 152.64 118.69 L 151.67 119.02 C 150.75 119.33 150.26 120.33 150.57 121.25 C 150.89 122.16 151.88 122.65 152.80 122.34 Z M 153.74 122.01 L 154.74 121.69 C 155.66 121.39 156.16 120.40 155.86 119.49 C 155.57 118.57 154.58 118.06 153.66 118.36 L 152.66 118.68 C 151.75 118.98 151.24 119.97 151.54 120.89 C 151.84 121.80 152.82 122.31 153.74 122.01 Z M 154.71 121.69 L 155.71 121.39 C 156.63 121.10 157.15 120.13 156.87 119.21 C 156.58 118.28 155.61 117.77 154.69 118.05 L 153.69 118.36 C 152.77 118.64 152.25 119.62 152.53 120.54 C 152.81 121.46 153.79 121.98 154.71 121.69 Z M 155.69 121.39 L 156.67 121.11 C 157.59 120.84 158.12 119.87 157.85 118.94 C 157.58 118.02 156.61 117.49 155.69 117.76 L 154.71 118.04 C 153.78 118.31 153.25 119.28 153.52 120.21 C 153.79 121.13 154.76 121.66 155.69 121.39 Z M 156.64 121.11 L 157.54 120.86 C 158.47 120.61 159.01 119.65 158.76 118.72 C 158.50 117.79 157.54 117.25 156.62 117.51 L 155.71 117.75 C 154.79 118.01 154.24 118.97 154.50 119.89 C 154.75 120.82 155.71 121.37 156.64 121.11 Z M 157.49 120.88 L 158.59 120.61 C 159.52 120.38 160.09 119.43 159.86 118.50 C 159.63 117.57 158.69 116.99 157.76 117.22 L 156.66 117.49 C 155.73 117.72 155.16 118.67 155.39 119.60 C 155.62 120.53 156.56 121.11 157.49 120.88 Z M 158.48 120.63 L 159.40 120.47 C 160.35 120.30 160.98 119.39 160.81 118.44 C 160.64 117.49 159.73 116.86 158.78 117.03 L 157.86 117.20 C 156.91 117.37 156.28 118.28 156.45 119.22 C 156.63 120.17 157.53 120.80 158.48 120.63 Z M 159.21 120.50 L 160.19 120.44 C 161.16 120.37 161.89 119.54 161.83 118.57 C 161.76 117.60 160.92 116.87 159.96 116.93 L 158.98 117.00 C 158.01 117.06 157.28 117.90 157.34 118.87 C 157.40 119.83 158.24 120.57 159.21 120.50 Z M 159.65 120.42 L 160.58 120.64 C 161.54 120.88 162.51 120.29 162.74 119.33 C 162.97 118.37 162.38 117.41 161.42 117.17 L 160.49 116.95 C 159.53 116.72 158.57 117.31 158.34 118.27 C 158.11 119.22 158.70 120.19 159.65 120.42 Z M 159.53 119.97 L 160.03 120.67 C 160.61 121.48 161.75 121.67 162.56 121.08 C 163.37 120.50 163.56 119.36 162.98 118.55 L 162.48 117.85 C 161.89 117.04 160.76 116.85 159.94 117.43 C 159.13 118.02 158.94 119.15 159.53 119.97 Z M 159.70 119.94 L 159.89 120.98 C 160.07 121.98 161.02 122.64 162.02 122.46 C 163.02 122.28 163.68 121.32 163.50 120.32 L 163.31 119.28 C 163.13 118.28 162.17 117.62 161.17 117.80 C 160.18 117.98 159.51 118.94 159.70 119.94 Z M 159.84 120.74 L 159.89 121.66 C 159.94 122.68 160.81 123.47 161.83 123.42 C 162.85 123.37 163.64 122.50 163.59 121.48 L 163.54 120.56 C 163.49 119.54 162.62 118.75 161.60 118.80 C 160.58 118.85 159.79 119.72 159.84 120.74 Z M 159.88 121.48 L 159.83 122.46 C 159.78 123.49 160.57 124.36 161.59 124.41 C 162.62 124.47 163.49 123.68 163.54 122.65 L 163.60 121.67 C 163.65 120.64 162.86 119.77 161.83 119.71 C 160.81 119.66 159.93 120.45 159.88 121.48 Z M 159.84 122.27 L 159.68 123.34 C 159.52 124.36 160.21 125.31 161.23 125.47 C 162.25 125.63 163.20 124.94 163.36 123.92 L 163.53 122.85 C 163.69 121.83 163.00 120.87 161.98 120.71 C 160.96 120.55 160.00 121.25 159.84 122.27 Z M 159.70 123.21 L 159.48 124.16 C 159.24 125.17 159.87 126.17 160.88 126.41 C 161.88 126.64 162.89 126.01 163.12 125.01 L 163.34 124.05 C 163.57 123.05 162.95 122.04 161.94 121.81 C 160.94 121.58 159.93 122.20 159.70 123.21 Z M 159.49 124.09 L 159.22 125.09 C 158.94 126.08 159.53 127.11 160.53 127.39 C 161.52 127.66 162.55 127.08 162.83 126.08 L 163.10 125.08 C 163.38 124.08 162.79 123.05 161.79 122.78 C 160.80 122.50 159.77 123.09 159.49 124.09 Z M 159.23 125.03 L 158.93 126.01 C 158.63 127.00 159.18 128.05 160.17 128.35 C 161.16 128.65 162.21 128.10 162.52 127.11 L 162.82 126.13 C 163.12 125.14 162.56 124.09 161.57 123.79 C 160.58 123.49 159.54 124.04 159.23 125.03 Z M 158.95 125.96 L 158.61 126.97 C 158.27 127.95 158.80 129.02 159.79 129.35 C 160.77 129.68 161.83 129.15 162.16 128.17 L 162.50 127.15 C 162.83 126.17 162.30 125.11 161.32 124.78 C 160.34 124.45 159.28 124.98 158.95 125.96 Z M 158.62 126.92 L 158.27 127.87 C 157.92 128.85 158.42 129.93 159.39 130.28 C 160.37 130.64 161.45 130.14 161.80 129.16 L 162.15 128.21 C 162.50 127.24 162.00 126.16 161.03 125.81 C 160.05 125.45 158.98 125.95 158.62 126.92 Z M 158.29 127.84 L 157.95 128.71 C 157.57 129.68 158.05 130.77 159.02 131.14 C 159.99 131.52 161.07 131.04 161.45 130.07 L 161.79 129.20 C 162.16 128.23 161.68 127.14 160.72 126.77 C 159.75 126.39 158.66 126.87 158.29 127.84 Z M 157.96 128.70 L 157.59 129.61 C 157.21 130.57 157.68 131.66 158.64 132.05 C 159.60 132.43 160.70 131.96 161.08 131.00 L 161.44 130.09 C 161.82 129.12 161.35 128.03 160.39 127.65 C 159.43 127.27 158.34 127.74 157.96 128.70 Z M 157.60 129.61 L 157.23 130.54 C 156.85 131.50 157.32 132.59 158.28 132.97 C 159.24 133.35 160.32 132.88 160.70 131.92 L 161.07 130.99 C 161.46 130.03 160.99 128.95 160.03 128.57 C 159.07 128.18 157.98 128.65 157.60 129.61 Z M 157.23 130.56 L 156.87 131.48 C 156.49 132.44 156.97 133.53 157.93 133.90 C 158.89 134.27 159.97 133.80 160.34 132.84 L 160.70 131.91 C 161.08 130.95 160.60 129.87 159.64 129.50 C 158.68 129.12 157.60 129.60 157.23 130.56 Z M 156.87 131.51 L 156.50 132.47 C 156.14 133.43 156.63 134.50 157.59 134.86 C 158.54 135.23 159.62 134.74 159.98 133.78 L 160.34 132.82 C 160.70 131.86 160.22 130.79 159.26 130.42 C 158.30 130.06 157.23 130.55 156.87 131.51 Z M 156.51 132.49 L 156.17 133.42 C 155.81 134.37 156.30 135.44 157.25 135.79 C 158.21 136.14 159.27 135.66 159.62 134.70 L 159.97 133.77 C 160.32 132.82 159.84 131.75 158.88 131.40 C 157.93 131.05 156.87 131.53 156.51 132.49 Z M 156.18 133.42 L 155.84 134.34 C 155.48 135.28 155.96 136.33 156.91 136.69 C 157.85 137.04 158.90 136.57 159.26 135.62 L 159.60 134.70 C 159.96 133.76 159.48 132.71 158.54 132.35 C 157.59 132.00 156.54 132.47 156.18 133.42 Z M 155.87 134.33 L 155.52 135.25 C 155.16 136.18 155.62 137.22 156.55 137.58 C 157.48 137.93 158.52 137.47 158.88 136.54 L 159.23 135.62 C 159.59 134.69 159.12 133.65 158.19 133.30 C 157.26 132.94 156.22 133.41 155.87 134.33 Z M 155.55 135.27 L 155.19 136.20 C 154.85 137.11 155.31 138.13 156.22 138.47 C 157.13 138.82 158.15 138.36 158.50 137.45 L 158.85 136.53 C 159.19 135.61 158.74 134.59 157.82 134.25 C 156.91 133.90 155.89 134.36 155.55 135.27 Z M 155.23 136.22 L 154.88 137.14 C 154.55 138.03 155.01 139.03 155.90 139.36 C 156.80 139.69 157.79 139.24 158.12 138.34 L 158.46 137.43 C 158.80 136.53 158.34 135.54 157.45 135.20 C 156.55 134.87 155.56 135.33 155.23 136.22 Z M 154.92 137.16 L 154.57 138.12 C 154.25 138.99 154.69 139.96 155.57 140.28 C 156.44 140.61 157.41 140.16 157.73 139.28 L 158.09 138.32 C 158.41 137.45 157.96 136.48 157.09 136.16 C 156.21 135.84 155.24 136.29 154.92 137.16 Z M 154.59 138.13 L 154.48 138.44 C 154.17 139.30 154.61 140.25 155.47 140.57 C 156.33 140.88 157.28 140.44 157.59 139.58 L 157.71 139.27 C 158.02 138.41 157.58 137.46 156.72 137.15 C 155.86 136.83 154.91 137.27 154.59 138.13 Z"
      fill="black"
      fill-rule="nonzero" /><path d="M 145.24 130.41 L 144.10 130.76 C 143.16 131.04 142.62 132.04 142.91 132.99 C 143.20 133.93 144.19 134.47 145.14 134.18 L 146.28 133.83 C 147.23 133.55 147.76 132.55 147.47 131.60 C 147.19 130.66 146.19 130.13 145.24 130.41 Z M 145.29 134.19 L 145.55 134.08 C 146.50 133.71 146.97 132.64 146.59 131.69 C 146.22 130.75 145.15 130.28 144.20 130.65 L 143.95 130.75 C 143.00 131.13 142.53 132.20 142.90 133.14 C 143.28 134.09 144.35 134.56 145.29 134.19 Z M 145.51 134.12 L 146.70 133.69 C 147.67 133.34 148.17 132.28 147.83 131.31 C 147.48 130.34 146.42 129.84 145.45 130.19 L 144.25 130.62 C 143.28 130.96 142.78 132.03 143.13 133.00 C 143.47 133.96 144.54 134.47 145.51 134.12 Z M 146.74 133.68 L 147.63 133.34 C 148.59 132.97 149.07 131.89 148.70 130.93 C 148.34 129.97 147.26 129.49 146.30 129.86 L 145.41 130.20 C 144.45 130.57 143.97 131.65 144.34 132.61 C 144.71 133.56 145.78 134.04 146.74 133.68 Z M 147.66 133.32 L 148.57 132.95 C 149.52 132.57 149.98 131.48 149.60 130.53 C 149.22 129.58 148.13 129.12 147.18 129.51 L 146.27 129.88 C 145.32 130.26 144.86 131.34 145.25 132.29 C 145.63 133.24 146.71 133.70 147.66 133.32 Z M 148.60 132.94 L 149.59 132.52 C 150.53 132.12 150.98 131.04 150.58 130.09 C 150.18 129.15 149.10 128.71 148.16 129.10 L 147.16 129.52 C 146.22 129.92 145.78 131.00 146.17 131.95 C 146.57 132.89 147.65 133.33 148.60 132.94 Z M 149.60 132.50 L 150.53 132.10 C 151.46 131.70 151.89 130.61 151.49 129.68 C 151.08 128.75 150.00 128.32 149.07 128.72 L 148.14 129.12 C 147.21 129.53 146.78 130.61 147.19 131.54 C 147.59 132.47 148.67 132.90 149.60 132.50 Z M 150.53 132.08 L 151.46 131.67 C 152.38 131.26 152.79 130.19 152.39 129.27 C 151.99 128.36 150.92 127.94 150.00 128.34 L 149.07 128.75 C 148.15 129.15 147.73 130.22 148.13 131.14 C 148.54 132.06 149.61 132.48 150.53 132.08 Z M 151.45 131.64 L 152.38 131.23 C 153.29 130.83 153.70 129.77 153.30 128.87 C 152.90 127.96 151.84 127.55 150.93 127.95 L 150.00 128.36 C 149.10 128.77 148.69 129.82 149.09 130.73 C 149.49 131.63 150.55 132.04 151.45 131.64 Z M 152.37 131.21 L 153.28 130.81 C 154.18 130.41 154.58 129.37 154.18 128.47 C 153.79 127.58 152.74 127.18 151.85 127.57 L 150.94 127.98 C 150.05 128.37 149.65 129.42 150.04 130.31 C 150.44 131.20 151.48 131.60 152.37 131.21 Z M 153.27 130.77 L 154.23 130.35 C 155.10 129.96 155.50 128.94 155.11 128.06 C 154.73 127.19 153.71 126.79 152.83 127.18 L 151.87 127.61 C 150.99 127.99 150.60 129.02 150.98 129.89 C 151.37 130.76 152.39 131.16 153.27 130.77 Z M 154.21 130.30 L 155.11 129.90 C 155.96 129.53 156.35 128.54 155.97 127.69 C 155.60 126.84 154.61 126.45 153.76 126.83 L 152.85 127.23 C 152.00 127.60 151.62 128.59 151.99 129.44 C 152.37 130.29 153.36 130.68 154.21 130.30 Z M 155.09 129.86 L 155.97 129.47 C 156.79 129.11 157.17 128.15 156.80 127.32 C 156.44 126.50 155.48 126.12 154.66 126.49 L 153.78 126.87 C 152.96 127.23 152.58 128.20 152.94 129.02 C 153.31 129.84 154.27 130.22 155.09 129.86 Z M 155.96 129.45 L 156.10 129.38 C 156.91 129.02 157.28 128.08 156.92 127.27 C 156.57 126.46 155.62 126.09 154.81 126.45 L 154.67 126.51 C 153.86 126.87 153.49 127.81 153.85 128.62 C 154.20 129.43 155.15 129.80 155.96 129.45 Z"
      fill="black"
      fill-rule="nonzero" /><path d="M 149.21 124.53 L 148.90 125.46 C 148.59 126.40 149.10 127.40 150.03 127.70 C 150.96 128.01 151.97 127.50 152.27 126.57 L 152.58 125.63 C 152.88 124.70 152.37 123.70 151.44 123.39 C 150.51 123.09 149.51 123.60 149.21 124.53 Z M 148.84 125.61 L 148.61 126.59 C 148.39 127.55 148.98 128.51 149.94 128.74 C 150.91 128.97 151.87 128.37 152.10 127.41 L 152.33 126.43 C 152.55 125.46 151.96 124.50 150.99 124.27 C 150.03 124.05 149.07 124.64 148.84 125.61 Z M 148.57 126.82 L 148.47 127.75 C 148.37 128.74 149.09 129.62 150.07 129.72 C 151.06 129.82 151.94 129.10 152.05 128.12 L 152.14 127.18 C 152.24 126.20 151.52 125.31 150.54 125.21 C 149.55 125.11 148.67 125.83 148.57 126.82 Z M 148.46 127.88 L 148.43 128.90 C 148.40 129.89 149.18 130.72 150.18 130.75 C 151.17 130.78 152.00 130.00 152.03 129.00 L 152.05 127.98 C 152.08 126.99 151.30 126.16 150.31 126.13 C 149.32 126.11 148.49 126.89 148.46 127.88 Z M 148.43 128.92 L 148.42 129.93 C 148.40 130.92 149.19 131.74 150.18 131.75 C 151.18 131.77 151.99 130.97 152.01 129.98 L 152.02 128.98 C 152.04 127.99 151.25 127.17 150.26 127.15 C 149.26 127.14 148.45 127.93 148.43 128.92 Z M 148.42 129.91 L 148.40 130.89 C 148.37 131.88 149.15 132.70 150.14 132.73 C 151.13 132.75 151.95 131.97 151.98 130.98 L 152.00 130.00 C 152.03 129.01 151.25 128.19 150.26 128.16 C 149.27 128.14 148.45 128.92 148.42 129.91 Z M 148.40 130.87 L 148.36 131.90 C 148.33 132.89 149.09 133.72 150.08 133.76 C 151.07 133.79 151.90 133.02 151.93 132.04 L 151.97 131.01 C 152.01 130.02 151.24 129.19 150.26 129.15 C 149.27 129.11 148.44 129.88 148.40 130.87 Z M 148.38 131.88 L 148.32 132.90 C 148.27 133.88 149.02 134.72 150.00 134.77 C 150.98 134.82 151.81 134.07 151.87 133.09 L 151.92 132.06 C 151.97 131.09 151.22 130.25 150.24 130.20 C 149.26 130.15 148.43 130.90 148.38 131.88 Z M 148.35 132.88 L 148.28 133.89 C 148.22 134.85 148.95 135.69 149.91 135.75 C 150.87 135.81 151.71 135.09 151.77 134.12 L 151.84 133.11 C 151.90 132.15 151.17 131.32 150.21 131.25 C 149.25 131.19 148.41 131.92 148.35 132.88 Z M 148.31 133.87 L 148.24 134.87 C 148.16 135.82 148.87 136.64 149.82 136.71 C 150.77 136.79 151.59 136.08 151.66 135.13 L 151.74 134.14 C 151.81 133.19 151.10 132.36 150.16 132.29 C 149.21 132.22 148.39 132.93 148.31 133.87 Z M 148.27 134.86 L 148.19 135.86 C 148.11 136.79 148.80 137.61 149.73 137.68 C 150.66 137.76 151.47 137.07 151.55 136.14 L 151.63 135.14 C 151.71 134.21 151.02 133.40 150.09 133.32 C 149.16 133.24 148.35 133.93 148.27 134.86 Z M 148.22 135.86 L 148.14 136.87 C 148.06 137.77 148.73 138.57 149.64 138.65 C 150.55 138.73 151.35 138.06 151.43 137.15 L 151.51 136.14 C 151.59 135.23 150.92 134.43 150.01 134.36 C 149.10 134.28 148.30 134.95 148.22 135.86 Z M 148.17 136.87 L 148.09 137.85 C 148.01 138.73 148.67 139.52 149.55 139.59 C 150.44 139.67 151.22 139.02 151.30 138.13 L 151.39 137.15 C 151.47 136.26 150.81 135.48 149.92 135.40 C 149.04 135.32 148.25 135.98 148.17 136.87 Z M 148.12 137.85 L 148.08 138.28 C 148.00 139.16 148.64 139.93 149.52 140.00 C 150.39 140.08 151.16 139.44 151.23 138.57 L 151.27 138.13 C 151.35 137.26 150.71 136.49 149.84 136.41 C 148.96 136.33 148.19 136.97 148.12 137.85 Z"
      fill="black"
      fill-rule="nonzero" /><path d="M 142.90 143.01 L 141.95 143.84 C 141.19 144.50 141.11 145.66 141.77 146.42 C 142.44 147.19 143.60 147.27 144.36 146.60 L 145.31 145.77 C 146.07 145.10 146.15 143.95 145.48 143.18 C 144.82 142.42 143.66 142.34 142.90 143.01 Z M 141.33 144.64 L 141.20 145.06 C 140.88 146.07 141.44 147.14 142.45 147.46 C 143.45 147.77 144.53 147.22 144.84 146.21 L 144.98 145.79 C 145.29 144.79 144.73 143.71 143.73 143.40 C 142.72 143.08 141.65 143.64 141.33 144.64 Z M 143.31 147.56 L 144.23 147.42 C 145.29 147.26 146.02 146.27 145.86 145.21 C 145.70 144.15 144.72 143.42 143.65 143.58 L 142.74 143.72 C 141.67 143.87 140.94 144.86 141.10 145.92 C 141.26 146.98 142.25 147.72 143.31 147.56 Z M 144.51 147.35 L 145.63 147.01 C 146.65 146.70 147.23 145.61 146.91 144.59 C 146.60 143.56 145.51 142.99 144.49 143.30 L 143.37 143.64 C 142.35 143.96 141.77 145.04 142.09 146.07 C 142.40 147.09 143.49 147.67 144.51 147.35 Z M 145.73 146.97 L 146.62 146.64 C 147.62 146.26 148.13 145.15 147.76 144.15 C 147.39 143.15 146.28 142.64 145.28 143.02 L 144.39 143.35 C 143.39 143.72 142.88 144.83 143.25 145.83 C 143.62 146.83 144.73 147.34 145.73 146.97 Z M 146.69 146.60 L 147.65 146.20 C 148.63 145.79 149.10 144.67 148.69 143.69 C 148.29 142.71 147.17 142.25 146.19 142.65 L 145.22 143.05 C 144.24 143.46 143.78 144.58 144.18 145.56 C 144.59 146.54 145.71 147.00 146.69 146.60 Z M 147.68 146.16 L 148.59 145.77 C 149.55 145.35 149.99 144.23 149.57 143.27 C 149.15 142.31 148.04 141.87 147.08 142.29 L 146.17 142.68 C 145.20 143.10 144.76 144.22 145.18 145.18 C 145.60 146.14 146.72 146.58 147.68 146.16 Z M 148.60 145.74 L 149.54 145.32 C 150.48 144.90 150.90 143.79 150.48 142.84 C 150.06 141.90 148.95 141.48 148.01 141.90 L 147.07 142.32 C 146.12 142.74 145.70 143.85 146.12 144.79 C 146.54 145.74 147.65 146.16 148.60 145.74 Z M 149.55 145.29 L 150.46 144.86 C 151.39 144.44 151.79 143.34 151.37 142.41 C 150.94 141.48 149.84 141.08 148.91 141.51 L 148.00 141.93 C 147.07 142.36 146.66 143.46 147.09 144.38 C 147.52 145.31 148.62 145.72 149.55 145.29 Z M 150.47 144.81 L 151.43 144.35 C 152.33 143.91 152.71 142.83 152.28 141.93 C 151.84 141.04 150.76 140.66 149.86 141.09 L 148.90 141.56 C 148.00 141.99 147.63 143.07 148.06 143.97 C 148.49 144.87 149.58 145.25 150.47 144.81 Z M 151.44 144.27 L 152.32 143.82 C 153.18 143.38 153.52 142.33 153.08 141.48 C 152.64 140.62 151.59 140.28 150.74 140.72 L 149.85 141.17 C 149.00 141.61 148.66 142.66 149.10 143.51 C 149.54 144.37 150.58 144.71 151.44 144.27 Z M 152.32 143.74 L 153.14 143.30 C 153.96 142.86 154.26 141.85 153.82 141.04 C 153.39 140.22 152.37 139.92 151.56 140.36 L 150.74 140.80 C 149.93 141.23 149.62 142.25 150.06 143.06 C 150.49 143.87 151.51 144.18 152.32 143.74 Z M 153.14 143.25 L 154.02 142.76 C 154.80 142.32 155.08 141.34 154.65 140.55 C 154.21 139.77 153.23 139.49 152.44 139.92 L 151.56 140.41 C 150.78 140.85 150.50 141.83 150.93 142.62 C 151.37 143.40 152.35 143.68 153.14 143.25 Z M 154.01 142.72 L 154.87 142.23 C 155.64 141.80 155.90 140.84 155.47 140.07 C 155.04 139.31 154.08 139.04 153.31 139.47 L 152.45 139.96 C 151.69 140.39 151.42 141.36 151.85 142.12 C 152.28 142.88 153.25 143.15 154.01 142.72 Z"
      fill="black"
      fill-rule="nonzero" /><path d="M 131.59 153.60 L 130.78 154.16 C 130.00 154.71 129.81 155.78 130.35 156.56 C 130.90 157.35 131.97 157.54 132.75 156.99 L 133.56 156.43 C 134.34 155.88 134.54 154.81 133.99 154.03 C 133.45 153.25 132.37 153.05 131.59 153.60 Z M 130.69 154.19 L 129.89 154.81 C 129.13 155.41 128.99 156.51 129.58 157.28 C 130.18 158.04 131.28 158.18 132.05 157.58 L 132.84 156.97 C 133.61 156.37 133.75 155.27 133.15 154.50 C 132.56 153.73 131.45 153.60 130.69 154.19 Z M 129.77 154.89 L 129.04 155.56 C 128.32 156.22 128.28 157.34 128.94 158.06 C 129.60 158.79 130.73 158.83 131.45 158.17 L 132.17 157.50 C 132.89 156.84 132.94 155.72 132.27 155.00 C 131.61 154.28 130.49 154.23 129.77 154.89 Z M 128.95 155.65 L 128.25 156.39 C 127.58 157.11 127.62 158.23 128.34 158.90 C 129.05 159.57 130.17 159.53 130.84 158.82 L 131.54 158.08 C 132.21 157.36 132.17 156.24 131.46 155.57 C 130.74 154.90 129.62 154.93 128.95 155.65 Z M 128.18 156.47 L 127.57 157.22 C 126.94 157.97 127.05 159.09 127.80 159.71 C 128.56 160.34 129.68 160.24 130.30 159.48 L 130.92 158.74 C 131.54 157.98 131.44 156.86 130.68 156.24 C 129.93 155.61 128.81 155.72 128.18 156.47 Z M 127.52 157.28 L 126.91 158.09 C 126.32 158.88 126.47 159.99 127.26 160.58 C 128.04 161.17 129.15 161.01 129.74 160.23 L 130.35 159.41 C 130.94 158.63 130.78 157.52 130.00 156.93 C 129.22 156.34 128.11 156.50 127.52 157.28 Z M 126.88 158.14 L 126.33 158.92 C 125.77 159.72 125.96 160.82 126.76 161.38 C 127.56 161.95 128.66 161.76 129.22 160.96 L 129.77 160.18 C 130.33 159.38 130.14 158.28 129.34 157.71 C 128.54 157.15 127.44 157.34 126.88 158.14 Z M 126.32 158.94 L 125.77 159.75 C 125.22 160.56 125.43 161.66 126.23 162.21 C 127.04 162.76 128.14 162.55 128.69 161.74 L 129.24 160.93 C 129.79 160.12 129.58 159.03 128.77 158.48 C 127.96 157.93 126.86 158.14 126.32 158.94 Z M 125.76 159.76 L 125.16 160.66 C 124.62 161.47 124.83 162.56 125.64 163.11 C 126.45 163.65 127.54 163.43 128.08 162.63 L 128.69 161.73 C 129.23 160.92 129.02 159.83 128.21 159.28 C 127.40 158.74 126.31 158.96 125.76 159.76 Z M 125.17 160.67 L 124.62 161.48 C 124.08 162.29 124.29 163.38 125.10 163.92 C 125.90 164.46 126.99 164.24 127.53 163.44 L 128.08 162.62 C 128.62 161.82 128.40 160.73 127.60 160.19 C 126.80 159.65 125.71 159.86 125.17 160.67 Z M 124.63 161.49 L 124.06 162.33 C 123.52 163.13 123.74 164.22 124.54 164.75 C 125.34 165.29 126.42 165.07 126.96 164.27 L 127.52 163.43 C 128.06 162.63 127.84 161.55 127.04 161.01 C 126.24 160.48 125.16 160.69 124.63 161.49 Z M 124.07 162.34 L 123.50 163.19 C 122.97 163.99 123.19 165.06 123.99 165.59 C 124.78 166.12 125.86 165.91 126.39 165.11 L 126.95 164.26 C 127.48 163.47 127.27 162.39 126.47 161.86 C 125.67 161.33 124.60 161.55 124.07 162.34 Z M 123.51 163.21 L 122.95 164.07 C 122.43 164.86 122.65 165.93 123.44 166.45 C 124.24 166.96 125.30 166.74 125.82 165.95 L 126.38 165.09 C 126.90 164.30 126.68 163.23 125.89 162.71 C 125.09 162.19 124.03 162.42 123.51 163.21 Z M 122.96 164.09 L 122.41 164.95 C 121.91 165.73 122.14 166.78 122.92 167.28 C 123.71 167.79 124.75 167.56 125.26 166.78 L 125.80 165.92 C 126.31 165.14 126.08 164.09 125.30 163.59 C 124.51 163.08 123.47 163.31 122.96 164.09 Z M 122.44 164.97 L 121.91 165.80 C 121.42 166.57 121.65 167.59 122.42 168.08 C 123.20 168.57 124.22 168.35 124.71 167.57 L 125.23 166.75 C 125.73 165.98 125.50 164.95 124.72 164.46 C 123.95 163.97 122.93 164.20 122.44 164.97 Z M 121.93 165.81 L 121.66 166.25 C 121.17 167.01 121.40 168.02 122.16 168.50 C 122.93 168.98 123.93 168.76 124.42 167.99 L 124.69 167.56 C 125.17 166.79 124.95 165.79 124.19 165.30 C 123.42 164.82 122.42 165.05 121.93 165.81 Z"
      fill="black"
      fill-rule="nonzero" /><path d="M 138.58 159.56 L 138.22 160.50 C 137.89 161.35 138.32 162.30 139.17 162.62 C 140.02 162.95 140.97 162.52 141.29 161.67 L 141.65 160.73 C 141.98 159.88 141.55 158.93 140.70 158.61 C 139.85 158.28 138.90 158.71 138.58 159.56 Z M 138.09 160.74 L 137.89 161.70 C 137.69 162.62 138.29 163.53 139.21 163.72 C 140.13 163.91 141.04 163.32 141.23 162.39 L 141.43 161.43 C 141.62 160.51 141.03 159.61 140.10 159.42 C 139.18 159.22 138.28 159.82 138.09 160.74 Z M 137.82 162.20 L 137.90 163.11 C 137.98 164.07 138.83 164.78 139.79 164.69 C 140.75 164.61 141.46 163.77 141.37 162.81 L 141.29 161.90 C 141.21 160.94 140.37 160.23 139.41 160.31 C 138.45 160.39 137.74 161.24 137.82 162.20 Z M 138.01 163.64 L 138.43 164.62 C 138.80 165.52 139.84 165.94 140.73 165.56 C 141.63 165.18 142.05 164.15 141.67 163.25 L 141.26 162.27 C 140.88 161.38 139.85 160.96 138.95 161.33 C 138.05 161.71 137.63 162.75 138.01 163.64 Z M 138.60 164.96 L 139.12 165.69 C 139.68 166.48 140.79 166.67 141.59 166.10 C 142.39 165.54 142.57 164.43 142.01 163.63 L 141.49 162.91 C 140.93 162.11 139.82 161.92 139.02 162.49 C 138.22 163.06 138.04 164.16 138.60 164.96 Z M 139.25 165.86 L 139.90 166.57 C 140.57 167.30 141.69 167.35 142.41 166.69 C 143.14 166.03 143.19 164.90 142.53 164.18 L 141.87 163.46 C 141.21 162.74 140.09 162.69 139.36 163.35 C 138.64 164.01 138.59 165.13 139.25 165.86 Z M 140.01 166.69 L 140.81 167.42 C 141.54 168.09 142.66 168.04 143.33 167.32 C 143.99 166.59 143.95 165.46 143.22 164.80 L 142.42 164.06 C 141.70 163.40 140.57 163.45 139.90 164.17 C 139.24 164.90 139.29 166.02 140.01 166.69 Z M 140.90 167.50 L 141.70 168.15 C 142.47 168.76 143.59 168.64 144.21 167.87 C 144.83 167.10 144.70 165.98 143.94 165.36 L 143.13 164.72 C 142.37 164.10 141.24 164.23 140.63 164.99 C 140.01 165.76 140.13 166.88 140.90 167.50 Z M 141.77 168.20 L 142.54 168.76 C 143.34 169.34 144.46 169.16 145.04 168.36 C 145.61 167.56 145.43 166.44 144.63 165.86 L 143.86 165.31 C 143.06 164.73 141.95 164.91 141.37 165.71 C 140.79 166.51 140.97 167.62 141.77 168.20 Z M 142.61 168.81 L 143.45 169.35 C 144.27 169.89 145.38 169.66 145.92 168.83 C 146.46 168.01 146.22 166.90 145.40 166.36 L 144.57 165.82 C 143.74 165.28 142.63 165.51 142.09 166.33 C 141.55 167.16 141.79 168.27 142.61 168.81 Z M 143.52 169.40 L 144.41 169.92 C 145.26 170.42 146.35 170.14 146.86 169.29 C 147.36 168.44 147.07 167.34 146.22 166.84 L 145.33 166.32 C 144.48 165.82 143.38 166.10 142.88 166.95 C 142.38 167.80 142.67 168.89 143.52 169.40 Z M 144.49 169.96 L 145.43 170.46 C 146.30 170.92 147.38 170.58 147.84 169.71 C 148.30 168.84 147.96 167.76 147.09 167.30 L 146.15 166.80 C 145.28 166.34 144.20 166.68 143.74 167.55 C 143.28 168.42 143.61 169.50 144.49 169.96 Z M 145.50 170.50 L 146.45 170.94 C 147.34 171.36 148.40 170.97 148.82 170.08 C 149.24 169.18 148.86 168.12 147.96 167.70 L 147.02 167.26 C 146.12 166.84 145.06 167.23 144.64 168.12 C 144.22 169.02 144.61 170.08 145.50 170.50 Z M 146.52 170.97 L 147.48 171.37 C 148.39 171.75 149.44 171.32 149.82 170.41 C 150.20 169.50 149.77 168.45 148.85 168.07 L 147.89 167.67 C 146.98 167.29 145.93 167.72 145.55 168.63 C 145.17 169.54 145.60 170.59 146.52 170.97 Z M 147.54 171.40 L 148.49 171.75 C 149.42 172.10 150.45 171.62 150.79 170.70 C 151.14 169.77 150.66 168.74 149.74 168.39 L 148.79 168.04 C 147.86 167.70 146.83 168.17 146.49 169.10 C 146.14 170.03 146.62 171.06 147.54 171.40 Z M 148.57 171.78 L 149.48 172.07 C 150.42 172.38 151.43 171.86 151.73 170.92 C 152.04 169.97 151.52 168.96 150.58 168.66 L 149.66 168.37 C 148.72 168.06 147.71 168.58 147.41 169.53 C 147.11 170.47 147.62 171.48 148.57 171.78 Z M 149.57 172.10 L 150.56 172.36 C 151.52 172.62 152.50 172.04 152.76 171.08 C 153.01 170.12 152.43 169.14 151.47 168.89 L 150.48 168.63 C 149.52 168.38 148.54 168.95 148.29 169.91 C 148.04 170.87 148.61 171.85 149.57 172.10 Z M 150.69 172.40 L 151.75 172.60 C 152.72 172.78 153.67 172.13 153.85 171.15 C 154.03 170.17 153.38 169.23 152.40 169.05 L 151.35 168.85 C 150.37 168.67 149.43 169.32 149.24 170.30 C 149.06 171.28 149.71 172.22 150.69 172.40 Z M 151.87 172.62 L 152.82 172.73 C 153.82 172.84 154.71 172.12 154.82 171.13 C 154.93 170.13 154.22 169.24 153.22 169.13 L 152.27 169.02 C 151.28 168.91 150.38 169.63 150.27 170.62 C 150.16 171.62 150.88 172.51 151.87 172.62 Z M 152.92 172.75 L 153.81 172.80 C 154.82 172.86 155.68 172.09 155.74 171.08 C 155.80 170.08 155.03 169.22 154.02 169.16 L 153.13 169.11 C 152.12 169.05 151.26 169.82 151.20 170.82 C 151.14 171.83 151.91 172.69 152.92 172.75 Z M 153.88 172.82 L 154.92 172.84 C 155.93 172.87 156.78 172.06 156.80 171.05 C 156.82 170.03 156.02 169.19 155.00 169.16 L 153.96 169.14 C 152.94 169.12 152.10 169.92 152.08 170.94 C 152.06 171.95 152.86 172.80 153.88 172.82 Z M 154.99 172.86 L 155.97 172.85 C 157.00 172.83 157.82 171.98 157.80 170.95 C 157.78 169.92 156.93 169.10 155.90 169.12 L 154.92 169.14 C 153.90 169.16 153.08 170.01 153.10 171.04 C 153.12 172.07 153.97 172.88 154.99 172.86 Z M 156.08 172.87 L 157.07 172.79 C 158.11 172.72 158.89 171.81 158.81 170.77 C 158.73 169.73 157.83 168.95 156.79 169.03 L 155.80 169.10 C 154.76 169.18 153.98 170.08 154.05 171.12 C 154.13 172.16 155.04 172.94 156.08 172.87 Z M 157.26 172.80 L 158.24 172.63 C 159.29 172.44 159.99 171.45 159.80 170.40 C 159.62 169.36 158.62 168.66 157.58 168.85 L 156.59 169.02 C 155.55 169.20 154.85 170.20 155.04 171.24 C 155.22 172.29 156.22 172.99 157.26 172.80 Z M 158.58 172.58 L 159.50 172.24 C 160.52 171.87 161.04 170.75 160.67 169.73 C 160.30 168.71 159.17 168.19 158.16 168.56 L 157.24 168.90 C 156.22 169.27 155.70 170.39 156.07 171.41 C 156.44 172.42 157.57 172.95 158.58 172.58 Z M 159.91 172.10 L 160.75 171.56 C 161.69 170.96 161.96 169.72 161.36 168.79 C 160.77 167.85 159.53 167.58 158.59 168.17 L 157.75 168.71 C 156.81 169.31 156.54 170.55 157.13 171.48 C 157.73 172.42 158.97 172.69 159.91 172.10 Z M 161.10 171.36 L 161.82 170.67 C 162.65 169.88 162.68 168.57 161.89 167.75 C 161.10 166.92 159.79 166.89 158.96 167.68 L 158.24 168.37 C 157.42 169.16 157.39 170.47 158.18 171.29 C 158.96 172.12 160.27 172.15 161.10 171.36 Z M 162.15 170.38 L 162.75 169.51 C 163.41 168.54 163.17 167.22 162.20 166.55 C 161.23 165.88 159.91 166.13 159.24 167.09 L 158.64 167.97 C 157.97 168.94 158.22 170.26 159.18 170.93 C 160.15 171.60 161.48 171.35 162.15 170.38 Z M 163.11 168.86 L 163.35 167.97 C 163.66 166.80 162.96 165.60 161.79 165.29 C 160.62 164.98 159.42 165.68 159.11 166.85 L 158.87 167.74 C 158.57 168.91 159.26 170.11 160.43 170.42 C 161.60 170.73 162.80 170.03 163.11 168.86 Z M 163.35 166.77 L 163.08 165.88 C 162.73 164.71 161.49 164.04 160.32 164.40 C 159.14 164.75 158.48 165.99 158.84 167.17 L 159.11 168.05 C 159.46 169.23 160.70 169.89 161.87 169.53 C 163.05 169.18 163.71 167.94 163.35 166.77 Z M 162.76 165.24 L 162.16 164.39 C 161.45 163.39 160.07 163.16 159.07 163.87 C 158.08 164.58 157.84 165.96 158.55 166.95 L 159.16 167.80 C 159.87 168.80 161.25 169.03 162.24 168.32 C 163.24 167.62 163.47 166.23 162.76 165.24 Z M 162.03 164.23 L 161.40 163.50 C 160.61 162.57 159.21 162.47 158.29 163.26 C 157.36 164.05 157.26 165.45 158.05 166.37 L 158.68 167.11 C 159.47 168.03 160.86 168.14 161.79 167.35 C 162.72 166.55 162.82 165.16 162.03 164.23 Z M 161.30 163.39 L 160.57 162.65 C 159.72 161.78 158.32 161.77 157.46 162.63 C 156.59 163.48 156.57 164.88 157.43 165.75 L 158.15 166.48 C 159.01 167.35 160.40 167.36 161.27 166.51 C 162.14 165.65 162.15 164.26 161.30 163.39 Z M 160.43 162.57 L 159.68 161.91 C 158.78 161.13 157.41 161.21 156.62 162.11 C 155.84 163.02 155.93 164.38 156.83 165.17 L 157.57 165.83 C 158.47 166.62 159.84 166.53 160.63 165.63 C 161.42 164.73 161.33 163.36 160.43 162.57 Z M 159.55 161.91 L 158.76 161.29 C 157.86 160.57 156.55 160.72 155.83 161.63 C 155.12 162.53 155.27 163.84 156.17 164.55 L 156.96 165.18 C 157.86 165.89 159.17 165.74 159.89 164.84 C 160.60 163.94 160.45 162.63 159.55 161.91 Z M 158.68 161.32 L 158.08 160.87 C 157.20 160.20 155.94 160.37 155.27 161.25 C 154.60 162.13 154.77 163.39 155.65 164.06 L 156.25 164.52 C 157.13 165.19 158.39 165.02 159.06 164.14 C 159.73 163.25 159.56 162.00 158.68 161.32 Z"
      fill="black"
      fill-rule="nonzero" /><path d="M 148.45 155.69 L 149.43 155.76 C 150.40 155.83 151.24 155.10 151.31 154.13 C 151.38 153.16 150.65 152.32 149.68 152.25 L 148.71 152.17 C 147.73 152.10 146.89 152.83 146.82 153.80 C 146.75 154.78 147.48 155.62 148.45 155.69 Z M 149.45 155.83 L 150.47 155.89 C 151.48 155.94 152.34 155.17 152.39 154.16 C 152.45 153.15 151.67 152.29 150.67 152.23 L 149.65 152.18 C 148.64 152.12 147.78 152.90 147.73 153.90 C 147.67 154.91 148.45 155.78 149.45 155.83 Z M 150.52 155.87 L 151.51 155.89 C 152.50 155.92 153.34 155.13 153.36 154.13 C 153.39 153.13 152.60 152.30 151.60 152.27 L 150.61 152.25 C 149.61 152.22 148.78 153.01 148.76 154.01 C 148.73 155.01 149.52 155.84 150.52 155.87 Z M 151.54 155.78 L 152.55 155.78 C 153.49 155.79 154.25 155.04 154.26 154.10 C 154.26 153.16 153.51 152.40 152.57 152.40 L 151.56 152.39 C 150.63 152.38 149.86 153.14 149.86 154.07 C 149.85 155.01 150.60 155.77 151.54 155.78 Z M 152.56 155.69 L 153.05 155.69 C 153.93 155.69 154.65 154.97 154.65 154.09 C 154.65 153.21 153.93 152.49 153.05 152.49 L 152.56 152.49 C 151.68 152.49 150.96 153.21 150.96 154.09 C 150.96 154.97 151.68 155.69 152.56 155.69 Z"
      fill="black"
      fill-rule="nonzero" /><path d="M 165.20 154.12 L 164.63 155.01 C 164.09 155.86 164.33 156.99 165.18 157.53 C 166.03 158.07 167.16 157.82 167.70 156.98 L 168.27 156.09 C 168.81 155.24 168.57 154.11 167.72 153.57 C 166.87 153.03 165.74 153.27 165.20 154.12 Z M 164.23 155.84 L 164.16 156.70 C 164.08 157.77 164.88 158.70 165.95 158.79 C 167.02 158.87 167.95 158.07 168.03 157.00 L 168.10 156.14 C 168.18 155.07 167.38 154.14 166.31 154.06 C 165.24 153.97 164.31 154.77 164.23 155.84 Z M 164.51 158.04 L 165.08 158.80 C 165.74 159.68 166.99 159.85 167.86 159.19 C 168.74 158.53 168.91 157.29 168.26 156.41 L 167.68 155.66 C 167.03 154.78 165.78 154.60 164.90 155.26 C 164.03 155.92 163.85 157.17 164.51 158.04 Z M 165.47 159.16 L 166.32 159.82 C 167.18 160.48 168.41 160.32 169.07 159.46 C 169.73 158.61 169.57 157.38 168.72 156.72 L 167.87 156.06 C 167.01 155.40 165.78 155.55 165.12 156.41 C 164.46 157.27 164.62 158.50 165.47 159.16 Z M 166.54 159.87 L 167.39 160.39 C 168.28 160.93 169.44 160.65 169.98 159.76 C 170.52 158.88 170.24 157.72 169.35 157.18 L 168.50 156.66 C 167.61 156.12 166.45 156.40 165.91 157.29 C 165.37 158.17 165.65 159.33 166.54 159.87 Z M 167.59 160.37 L 168.49 160.82 C 169.37 161.25 170.43 160.89 170.86 160.01 C 171.29 159.13 170.93 158.07 170.05 157.64 L 169.15 157.19 C 168.28 156.76 167.21 157.12 166.78 158.00 C 166.35 158.88 166.71 159.94 167.59 160.37 Z M 168.64 160.79 L 169.56 161.16 C 170.43 161.51 171.41 161.09 171.76 160.23 C 172.11 159.36 171.69 158.38 170.82 158.03 L 169.90 157.66 C 169.04 157.32 168.05 157.73 167.71 158.60 C 167.36 159.46 167.78 160.44 168.64 160.79 Z M 169.65 161.13 L 170.60 161.46 C 171.44 161.76 172.37 161.32 172.67 160.48 C 172.97 159.64 172.53 158.71 171.68 158.41 L 170.74 158.07 C 169.89 157.77 168.97 158.21 168.67 159.05 C 168.37 159.90 168.81 160.82 169.65 161.13 Z M 170.62 161.43 L 170.77 161.48 C 171.59 161.77 172.50 161.33 172.78 160.51 C 173.07 159.68 172.63 158.78 171.81 158.49 L 171.66 158.44 C 170.83 158.15 169.93 158.59 169.64 159.42 C 169.36 160.24 169.79 161.15 170.62 161.43 Z"
      fill="black"
      fill-rule="nonzero" /></svg>