<svg xmlns="http://www.w3.org/2000/svg" width="300" height="300" viewBox="0 0 300 300">
<path d="M 126.05 127.00 L 124.89 127.65 C 124.10 128.10 123.81 129.10 124.26 129.89 C 124.70 130.68 125.70 130.96 126.49 130.52 L 127.65 129.87 C 128.45 129.43 128.73 128.43 128.29 127.64 C 127.84 126.85 126.84 126.56 126.05 127.00 Z M 124.85 127.59 L 123.91 128.12 C 123.08 128.58 122.79 129.63 123.25 130.45 C 123.71 131.28 124.76 131.57 125.58 131.11 L 126.53 130.58 C 127.35 130.12 127.65 129.08 127.19 128.25 C 126.72 127.42 125.68 127.13 124.85 127.59 Z M 123.87 128.06 L 123.36 128.35 C 122.50 128.84 122.20 129.93 122.68 130.78 C 123.17 131.64 124.26 131.94 125.11 131.46 L 125.62 131.17 C 126.48 130.68 126.78 129.59 126.30 128.74 C 125.81 127.88 124.72 127.58 123.87 128.06 Z M 125.09 131.53 L 125.54 131.30 C 126.44 130.82 126.78 129.71 126.31 128.81 C 125.83 127.91 124.72 127.57 123.82 128.04 L 123.38 128.28 C 122.48 128.75 122.14 129.86 122.61 130.76 C 123.08 131.66 124.20 132.00 125.09 131.53 Z M 125.58 131.31 L 126.68 130.71 C 127.58 130.21 127.91 129.08 127.42 128.17 C 126.92 127.26 125.79 126.93 124.88 127.43 L 123.78 128.03 C 122.88 128.53 122.54 129.66 123.04 130.57 C 123.54 131.47 124.67 131.81 125.58 131.31 Z M 126.69 130.72 L 127.56 130.25 C 128.47 129.74 128.81 128.60 128.30 127.68 C 127.80 126.77 126.65 126.43 125.74 126.93 L 124.87 127.41 C 123.96 127.91 123.62 129.06 124.12 129.98 C 124.62 130.89 125.77 131.23 126.69 130.72 Z M 127.54 130.26 L 128.42 129.80 C 129.35 129.30 129.69 128.15 129.20 127.23 C 128.70 126.30 127.55 125.95 126.63 126.45 L 125.75 126.92 C 124.83 127.41 124.48 128.56 124.97 129.49 C 125.47 130.41 126.62 130.76 127.54 130.26 Z M 128.39 129.82 L 129.20 129.41 C 130.14 128.93 130.51 127.78 130.03 126.84 C 129.55 125.91 128.41 125.53 127.47 126.01 L 126.66 126.43 C 125.72 126.90 125.35 128.05 125.83 128.99 C 126.31 129.92 127.45 130.30 128.39 129.82 Z M 129.16 129.43 L 130.07 129.00 C 131.02 128.54 131.42 127.41 130.97 126.45 C 130.52 125.50 129.38 125.10 128.43 125.55 L 127.51 125.99 C 126.56 126.44 126.16 127.58 126.61 128.53 C 127.07 129.48 128.20 129.88 129.16 129.43 Z M 130.02 129.02 L 131.00 128.59 C 131.96 128.17 132.40 127.04 131.98 126.07 C 131.55 125.11 130.42 124.67 129.46 125.10 L 128.48 125.53 C 127.51 125.95 127.08 127.08 127.50 128.04 C 127.92 129.01 129.05 129.45 130.02 129.02 Z M 130.96 128.61 L 131.89 128.23 C 132.86 127.82 133.33 126.71 132.92 125.73 C 132.52 124.76 131.40 124.29 130.43 124.69 L 129.50 125.08 C 128.52 125.48 128.06 126.60 128.46 127.57 C 128.86 128.55 129.98 129.01 130.96 128.61 Z M 131.86 128.24 L 132.82 127.86 C 133.80 127.47 134.28 126.36 133.89 125.38 C 133.50 124.40 132.39 123.92 131.41 124.30 L 130.45 124.68 C 129.47 125.07 128.99 126.18 129.38 127.16 C 129.77 128.15 130.88 128.63 131.86 128.24 Z M 132.80 127.86 L 133.72 127.51 C 134.70 127.13 135.20 126.03 134.82 125.04 C 134.44 124.06 133.33 123.56 132.35 123.94 L 131.43 124.30 C 130.44 124.68 129.95 125.78 130.33 126.77 C 130.71 127.75 131.82 128.24 132.80 127.86 Z M 133.70 127.51 L 134.64 127.16 C 135.63 126.79 136.13 125.70 135.76 124.71 C 135.39 123.72 134.30 123.22 133.31 123.59 L 132.37 123.94 C 131.38 124.31 130.88 125.41 131.25 126.39 C 131.62 127.38 132.71 127.88 133.70 127.51 Z M 134.60 127.16 L 135.51 126.84 C 136.50 126.50 137.02 125.42 136.67 124.43 C 136.33 123.44 135.25 122.92 134.26 123.27 L 133.35 123.59 C 132.36 123.93 131.84 125.01 132.19 126.00 C 132.53 126.99 133.62 127.51 134.60 127.16 Z M 135.46 126.85 L 136.43 126.54 C 137.42 126.22 137.97 125.16 137.65 124.17 C 137.33 123.18 136.27 122.63 135.28 122.95 L 134.31 123.26 C 133.32 123.58 132.77 124.64 133.09 125.63 C 133.41 126.62 134.47 127.17 135.46 126.85 Z M 136.39 126.54 L 137.32 126.26 C 138.31 125.97 138.88 124.93 138.59 123.94 C 138.29 122.95 137.25 122.38 136.26 122.68 L 135.33 122.95 C 134.34 123.24 133.77 124.28 134.06 125.27 C 134.36 126.26 135.39 126.83 136.39 126.54 Z M 137.28 126.25 L 138.27 125.98 C 139.26 125.71 139.84 124.69 139.56 123.71 C 139.29 122.72 138.27 122.14 137.29 122.41 L 136.30 122.68 C 135.32 122.96 134.74 123.98 135.01 124.96 C 135.28 125.95 136.30 126.53 137.28 126.25 Z M 138.24 125.97 L 139.23 125.72 C 140.21 125.47 140.80 124.47 140.54 123.49 C 140.29 122.51 139.29 121.92 138.31 122.17 L 137.32 122.42 C 136.34 122.67 135.75 123.67 136.01 124.65 C 136.26 125.63 137.26 126.22 138.24 125.97 Z M 139.18 125.70 L 140.18 125.46 C 141.15 125.24 141.76 124.27 141.53 123.30 C 141.30 122.33 140.33 121.73 139.36 121.95 L 138.36 122.19 C 137.39 122.42 136.79 123.38 137.02 124.35 C 137.24 125.32 138.21 125.92 139.18 125.70 Z M 140.13 125.42 L 141.14 125.21 C 142.08 125.01 142.69 124.09 142.50 123.15 C 142.30 122.20 141.38 121.60 140.44 121.79 L 139.42 122.00 C 138.48 122.20 137.87 123.12 138.07 124.06 C 138.26 125.00 139.18 125.61 140.13 125.42 Z M 141.09 125.14 L 142.03 124.96 C 142.93 124.80 143.53 123.93 143.37 123.02 C 143.20 122.12 142.33 121.52 141.43 121.69 L 140.49 121.86 C 139.58 122.03 138.98 122.90 139.15 123.80 C 139.32 124.71 140.19 125.30 141.09 125.14 Z M 142.01 124.91 L 142.48 124.83 C 143.36 124.67 143.94 123.84 143.79 122.96 C 143.64 122.09 142.80 121.51 141.93 121.66 L 141.45 121.74 C 140.58 121.90 139.99 122.73 140.15 123.60 C 140.30 124.48 141.13 125.06 142.01 124.91 Z"
      fill="black"
      fill-rule="nonzero" /><path d="M 136.97 115.85 L 136.51 114.60 C 136.19 113.73 135.23 113.29 134.36 113.61 C 133.49 113.92 133.05 114.89 133.37 115.76 L 133.82 117.00 C 134.14 117.87 135.11 118.32 135.97 118.00 C 136.84 117.68 137.29 116.72 136.97 115.85 Z M 136.56 114.49 L 136.18 113.58 C 135.80 112.68 134.76 112.27 133.86 112.65 C 132.96 113.03 132.55 114.07 132.93 114.96 L 133.31 115.87 C 133.69 116.77 134.73 117.19 135.63 116.80 C 136.53 116.42 136.95 115.38 136.56 114.49 Z M 135.72 112.84 L 135.47 112.63 C 134.67 111.99 133.51 112.11 132.86 112.90 C 132.22 113.70 132.34 114.86 133.14 115.51 L 133.39 115.71 C 134.18 116.35 135.35 116.23 135.99 115.44 C 136.63 114.64 136.51 113.48 135.72 112.84 Z M 132.39 113.95 L 132.34 114.78 C 132.27 115.84 133.07 116.75 134.13 116.82 C 135.18 116.88 136.09 116.08 136.16 115.03 L 136.21 114.19 C 136.28 113.13 135.48 112.23 134.42 112.16 C 133.37 112.09 132.46 112.89 132.39 113.95 Z M 132.29 115.04 L 132.38 116.36 C 132.45 117.44 133.39 118.25 134.47 118.18 C 135.55 118.11 136.36 117.18 136.29 116.10 L 136.20 114.78 C 136.13 113.70 135.20 112.88 134.12 112.95 C 133.04 113.02 132.22 113.96 132.29 115.04 Z M 132.37 116.41 L 132.46 117.40 C 132.56 118.49 133.53 119.29 134.62 119.19 C 135.70 119.08 136.50 118.12 136.40 117.03 L 136.31 116.04 C 136.20 114.95 135.24 114.16 134.15 114.26 C 133.06 114.36 132.26 115.33 132.37 116.41 Z M 132.46 117.42 L 132.57 118.44 C 132.68 119.53 133.65 120.32 134.74 120.21 C 135.83 120.09 136.62 119.12 136.51 118.03 L 136.40 117.01 C 136.29 115.92 135.31 115.13 134.22 115.25 C 133.13 115.36 132.34 116.33 132.46 117.42 Z M 132.56 118.45 L 132.67 119.45 C 132.79 120.54 133.77 121.33 134.86 121.21 C 135.95 121.09 136.74 120.11 136.62 119.02 L 136.51 118.02 C 136.39 116.93 135.41 116.14 134.32 116.26 C 133.23 116.38 132.44 117.36 132.56 118.45 Z M 132.67 119.45 L 132.78 120.46 C 132.90 121.55 133.88 122.34 134.97 122.22 C 136.06 122.10 136.85 121.12 136.73 120.03 L 136.62 119.03 C 136.50 117.93 135.52 117.15 134.43 117.26 C 133.34 117.38 132.55 118.36 132.67 119.45 Z M 132.78 120.45 L 132.88 121.43 C 132.99 122.52 133.96 123.32 135.06 123.21 C 136.15 123.10 136.95 122.12 136.83 121.03 L 136.73 120.04 C 136.62 118.95 135.65 118.16 134.55 118.27 C 133.46 118.38 132.66 119.36 132.78 120.45 Z M 132.87 121.42 L 132.97 122.39 C 133.07 123.48 134.04 124.28 135.13 124.18 C 136.23 124.08 137.03 123.11 136.93 122.01 L 136.84 121.04 C 136.73 119.95 135.76 119.14 134.67 119.25 C 133.57 119.35 132.77 120.32 132.87 121.42 Z M 132.96 122.37 L 133.05 123.34 C 133.14 124.43 134.11 125.24 135.20 125.15 C 136.30 125.06 137.11 124.09 137.01 123.00 L 136.93 122.03 C 136.83 120.93 135.87 120.12 134.78 120.22 C 133.68 120.31 132.87 121.28 132.96 122.37 Z M 133.05 123.32 L 133.12 124.25 C 133.21 125.35 134.16 126.17 135.26 126.08 C 136.36 125.99 137.17 125.04 137.09 123.94 L 137.01 123.01 C 136.93 121.91 135.97 121.10 134.87 121.18 C 133.78 121.27 132.96 122.23 133.05 123.32 Z M 133.12 124.24 L 133.19 125.23 C 133.27 126.33 134.22 127.16 135.32 127.08 C 136.41 127.00 137.24 126.05 137.16 124.95 L 137.09 123.95 C 137.01 122.86 136.06 122.03 134.96 122.11 C 133.86 122.19 133.04 123.14 133.12 124.24 Z M 133.19 125.22 L 133.26 126.28 C 133.33 127.37 134.27 128.21 135.37 128.13 C 136.47 128.06 137.30 127.12 137.23 126.02 L 137.16 124.96 C 137.09 123.87 136.14 123.04 135.05 123.11 C 133.95 123.18 133.12 124.12 133.19 125.22 Z M 133.25 126.26 L 133.31 127.27 C 133.37 128.37 134.31 129.21 135.41 129.15 C 136.51 129.08 137.35 128.14 137.29 127.05 L 137.23 126.04 C 137.17 124.94 136.23 124.10 135.13 124.16 C 134.03 124.22 133.19 125.16 133.25 126.26 Z M 133.31 127.26 L 133.36 128.20 C 133.41 129.30 134.35 130.15 135.44 130.10 C 136.54 130.04 137.39 129.11 137.34 128.01 L 137.29 127.06 C 137.23 125.96 136.30 125.11 135.20 125.17 C 134.10 125.22 133.26 126.16 133.31 127.26 Z M 133.35 128.19 L 133.40 129.18 C 133.45 130.28 134.38 131.13 135.47 131.08 C 136.57 131.03 137.43 130.10 137.38 129.00 L 137.34 128.02 C 137.29 126.92 136.36 126.07 135.26 126.11 C 134.16 126.16 133.31 127.09 133.35 128.19 Z M 133.40 129.17 L 133.43 130.19 C 133.48 131.29 134.40 132.15 135.50 132.11 C 136.60 132.07 137.46 131.14 137.42 130.04 L 137.38 129.02 C 137.34 127.92 136.41 127.06 135.31 127.10 C 134.21 127.14 133.35 128.06 133.40 129.17 Z M 133.43 130.18 L 133.47 131.24 C 133.50 132.34 134.42 133.20 135.52 133.17 C 136.63 133.13 137.49 132.21 137.46 131.11 L 137.42 130.05 C 137.39 128.95 136.47 128.08 135.36 128.12 C 134.26 128.15 133.40 129.08 133.43 130.18 Z M 133.46 131.23 L 133.49 132.19 C 133.52 133.29 134.44 134.17 135.54 134.14 C 136.64 134.11 137.51 133.19 137.48 132.09 L 137.46 131.12 C 137.43 130.02 136.51 129.15 135.41 129.18 C 134.30 129.21 133.43 130.13 133.46 131.23 Z M 133.49 132.18 L 133.51 133.13 C 133.53 134.24 134.45 135.11 135.55 135.09 C 136.66 135.07 137.53 134.15 137.51 133.05 L 137.49 132.09 C 137.46 130.99 136.55 130.11 135.44 130.14 C 134.34 130.16 133.46 131.08 133.49 132.18 Z M 133.50 133.13 L 133.52 134.11 C 133.54 135.21 134.46 136.09 135.56 136.07 C 136.67 136.05 137.55 135.14 137.53 134.03 L 137.51 133.05 C 137.49 131.95 136.58 131.07 135.47 131.09 C 134.36 131.11 133.48 132.02 133.50 133.13 Z M 133.52 134.10 L 133.53 135.11 C 133.55 136.22 134.46 137.10 135.57 137.09 C 136.68 137.07 137.56 136.16 137.55 135.05 L 137.53 134.04 C 137.51 132.93 136.60 132.05 135.50 132.07 C 134.39 132.08 133.50 132.99 133.52 134.10 Z M 133.53 135.11 L 133.54 136.15 C 133.56 137.26 134.47 138.15 135.58 138.14 C 136.68 138.12 137.57 137.21 137.56 136.10 L 137.55 135.06 C 137.54 133.95 136.63 133.06 135.52 133.07 C 134.41 133.09 133.52 134.00 133.53 135.11 Z M 133.54 136.14 L 133.55 137.21 C 133.56 138.32 134.47 139.21 135.58 139.20 C 136.69 139.19 137.58 138.28 137.57 137.17 L 137.56 136.11 C 137.55 135.00 136.65 134.11 135.54 134.12 C 134.42 134.13 133.53 135.03 133.54 136.14 Z M 133.55 137.20 L 133.55 138.17 C 133.56 139.28 134.47 140.18 135.58 140.18 C 136.69 140.17 137.59 139.26 137.58 138.15 L 137.58 137.18 C 137.57 136.06 136.66 135.17 135.55 135.17 C 134.44 135.18 133.54 136.09 133.55 137.20 Z M 133.55 138.17 L 133.55 139.16 C 133.55 140.27 134.46 141.18 135.58 141.17 C 136.69 141.17 137.60 140.26 137.59 139.14 L 137.59 138.15 C 137.58 137.04 136.67 136.13 135.56 136.14 C 134.44 136.14 133.54 137.05 133.55 138.17 Z M 133.55 139.16 L 133.55 140.16 C 133.55 141.28 134.46 142.18 135.58 142.18 C 136.70 142.18 137.60 141.27 137.60 140.15 L 137.60 139.15 C 137.59 138.03 136.68 137.12 135.57 137.13 C 134.45 137.13 133.54 138.04 133.55 139.16 Z M 133.54 140.16 L 133.54 141.17 C 133.55 142.29 134.46 143.20 135.58 143.20 C 136.70 143.20 137.61 142.29 137.60 141.17 L 137.60 140.15 C 137.60 139.03 136.69 138.12 135.57 138.13 C 134.45 138.13 133.54 139.04 133.54 140.16 Z M 133.54 141.17 L 133.54 142.18 C 133.54 143.31 134.45 144.22 135.58 144.22 C 136.70 144.22 137.61 143.31 137.61 142.18 L 137.61 141.17 C 137.61 140.04 136.70 139.13 135.57 139.13 C 134.45 139.13 133.54 140.05 133.54 141.17 Z M 133.54 142.18 L 133.54 143.19 C 133.54 144.32 134.45 145.23 135.58 145.23 C 136.70 145.23 137.61 144.32 137.61 143.19 L 137.61 142.18 C 137.61 141.06 136.70 140.14 135.57 140.14 C 134.45 140.14 133.54 141.06 133.54 142.18 Z M 133.53 143.19 L 133.53 144.21 C 133.53 145.34 134.45 146.25 135.58 146.25 C 136.70 146.25 137.62 145.34 137.62 144.21 L 137.62 143.19 C 137.62 142.06 136.70 141.15 135.58 141.15 C 134.45 141.15 133.53 142.06 133.53 143.19 Z M 133.53 144.21 L 133.52 145.22 C 133.52 146.35 134.44 147.27 135.57 147.27 C 136.71 147.27 137.62 146.35 137.62 145.22 L 137.63 144.21 C 137.63 143.08 136.71 142.16 135.58 142.16 C 134.44 142.16 133.53 143.07 133.53 144.21 Z M 133.52 145.21 L 133.52 146.21 C 133.52 147.35 134.43 148.27 135.57 148.27 C 136.70 148.28 137.63 147.36 137.63 146.22 L 137.63 145.22 C 137.63 144.09 136.71 143.16 135.58 143.16 C 134.44 143.16 133.52 144.08 133.52 145.21 Z M 133.51 146.21 L 133.51 147.21 C 133.50 148.34 134.42 149.27 135.56 149.27 C 136.70 149.28 137.63 148.36 137.63 147.22 L 137.63 146.23 C 137.64 145.09 136.72 144.16 135.58 144.16 C 134.44 144.15 133.52 145.07 133.51 146.21 Z M 133.50 147.20 L 133.50 148.19 C 133.49 149.33 134.41 150.26 135.55 150.27 C 136.69 150.28 137.62 149.36 137.63 148.22 L 137.64 147.23 C 137.64 146.08 136.72 145.15 135.58 145.15 C 134.44 145.14 133.51 146.06 133.50 147.20 Z M 133.49 148.19 L 133.48 149.18 C 133.47 150.32 134.39 151.26 135.53 151.27 C 136.68 151.28 137.61 150.36 137.63 149.22 L 137.64 148.23 C 137.65 147.08 136.73 146.14 135.58 146.13 C 134.44 146.12 133.50 147.04 133.49 148.19 Z M 133.48 149.17 L 133.46 150.16 C 133.45 151.31 134.36 152.25 135.51 152.27 C 136.66 152.28 137.60 151.37 137.62 150.22 L 137.63 149.23 C 137.65 148.08 136.73 147.14 135.58 147.12 C 134.43 147.10 133.49 148.02 133.48 149.17 Z M 133.46 150.15 L 133.44 151.14 C 133.42 152.29 134.33 153.25 135.48 153.27 C 136.63 153.29 137.58 152.37 137.60 151.22 L 137.62 150.23 C 137.64 149.08 136.73 148.13 135.58 148.11 C 134.43 148.09 133.48 149.00 133.46 150.15 Z M 133.43 151.13 L 133.41 152.13 C 133.38 153.28 134.29 154.24 135.44 154.27 C 136.59 154.30 137.55 153.39 137.58 152.24 L 137.61 151.24 C 137.64 150.08 136.73 149.13 135.57 149.10 C 134.42 149.07 133.46 149.98 133.43 151.13 Z M 133.40 152.11 L 133.37 153.11 C 133.33 154.27 134.23 155.23 135.39 155.27 C 136.55 155.31 137.51 154.41 137.55 153.25 L 137.59 152.25 C 137.63 151.10 136.72 150.13 135.57 150.09 C 134.41 150.05 133.44 150.95 133.40 152.11 Z M 133.36 153.09 L 133.32 154.09 C 133.27 155.25 134.17 156.23 135.32 156.28 C 136.48 156.33 137.46 155.43 137.51 154.28 L 137.56 153.27 C 137.61 152.12 136.71 151.14 135.55 151.08 C 134.40 151.03 133.42 151.93 133.36 153.09 Z M 133.32 154.07 L 133.26 155.07 C 133.20 156.23 134.08 157.22 135.24 157.29 C 136.40 157.35 137.40 156.46 137.46 155.30 L 137.52 154.30 C 137.58 153.14 136.69 152.15 135.53 152.08 C 134.37 152.02 133.38 152.91 133.32 154.07 Z M 133.26 155.04 L 133.19 156.04 C 133.11 157.21 133.99 158.21 135.15 158.29 C 136.31 158.37 137.32 157.49 137.40 156.33 L 137.46 155.33 C 137.54 154.17 136.67 153.16 135.51 153.08 C 134.34 153.00 133.34 153.88 133.26 155.04 Z M 133.18 156.01 L 133.10 157.01 C 133.01 158.18 133.87 159.20 135.04 159.29 C 136.20 159.39 137.22 158.53 137.32 157.36 L 137.40 156.36 C 137.50 155.20 136.63 154.18 135.47 154.08 C 134.30 153.98 133.28 154.85 133.18 156.01 Z M 133.10 156.99 L 133.00 157.98 C 132.89 159.15 133.75 160.19 134.91 160.30 C 136.08 160.41 137.12 159.55 137.23 158.39 L 137.32 157.39 C 137.43 156.22 136.58 155.19 135.41 155.07 C 134.24 154.96 133.21 155.82 133.10 156.99 Z M 133.00 157.96 L 132.89 158.96 C 132.77 160.12 133.61 161.17 134.78 161.30 C 135.95 161.42 137.00 160.57 137.13 159.41 L 137.23 158.41 C 137.36 157.24 136.51 156.19 135.34 156.07 C 134.17 155.94 133.12 156.79 133.00 157.96 Z M 132.89 158.94 L 132.77 159.93 C 132.64 161.10 133.48 162.16 134.65 162.30 C 135.82 162.43 136.88 161.59 137.02 160.42 L 137.13 159.43 C 137.27 158.25 136.42 157.19 135.25 157.06 C 134.08 156.92 133.02 157.76 132.89 158.94 Z M 132.77 159.91 L 132.65 160.91 C 132.50 162.08 133.34 163.15 134.51 163.29 C 135.69 163.44 136.76 162.60 136.90 161.43 L 137.02 160.43 C 137.16 159.26 136.33 158.19 135.15 158.05 C 133.98 157.90 132.91 158.74 132.77 159.91 Z M 132.64 160.89 L 132.51 161.88 C 132.36 163.06 133.20 164.14 134.38 164.29 C 135.55 164.44 136.63 163.60 136.78 162.43 L 136.91 161.44 C 137.06 160.26 136.22 159.18 135.04 159.03 C 133.87 158.88 132.79 159.72 132.64 160.89 Z M 132.51 161.87 L 132.38 162.88 C 132.22 164.06 133.05 165.15 134.24 165.30 C 135.42 165.45 136.50 164.62 136.65 163.44 L 136.79 162.43 C 136.94 161.25 136.11 160.17 134.93 160.02 C 133.75 159.86 132.66 160.69 132.51 161.87 Z M 132.37 162.87 L 132.24 163.88 C 132.08 165.07 132.91 166.16 134.09 166.32 C 135.28 166.47 136.36 165.64 136.52 164.46 L 136.66 163.45 C 136.82 162.26 135.99 161.18 134.80 161.02 C 133.62 160.86 132.53 161.69 132.37 162.87 Z M 132.23 163.87 L 132.09 164.88 C 131.93 166.06 132.76 167.16 133.94 167.32 C 135.13 167.49 136.23 166.66 136.39 165.47 L 136.53 164.47 C 136.69 163.28 135.86 162.19 134.68 162.02 C 133.49 161.86 132.39 162.69 132.23 163.87 Z M 132.09 164.86 L 131.94 165.86 C 131.77 167.05 132.60 168.15 133.79 168.32 C 134.98 168.49 136.08 167.66 136.25 166.47 L 136.40 165.48 C 136.57 164.29 135.74 163.19 134.55 163.02 C 133.36 162.85 132.26 163.67 132.09 164.86 Z M 131.94 165.84 L 131.79 166.82 C 131.62 168.01 132.44 169.13 133.63 169.30 C 134.82 169.48 135.93 168.66 136.11 167.47 L 136.26 166.49 C 136.44 165.29 135.61 164.18 134.42 164.01 C 133.23 163.83 132.12 164.65 131.94 165.84 Z M 131.79 166.81 L 131.64 167.77 C 131.45 168.97 132.27 170.08 133.47 170.27 C 134.66 170.46 135.78 169.64 135.97 168.44 L 136.12 167.48 C 136.30 166.29 135.49 165.17 134.29 164.98 C 133.10 164.79 131.98 165.61 131.79 166.81 Z M 131.64 167.75 L 131.47 168.75 C 131.28 169.94 132.09 171.07 133.29 171.27 C 134.48 171.46 135.61 170.65 135.81 169.45 L 135.97 168.46 C 136.17 167.26 135.35 166.14 134.16 165.94 C 132.96 165.74 131.83 166.56 131.64 167.75 Z M 131.47 168.73 L 131.30 169.73 C 131.09 170.93 131.90 172.07 133.10 172.27 C 134.29 172.48 135.43 171.68 135.64 170.48 L 135.81 169.47 C 136.02 168.27 135.21 167.14 134.01 166.93 C 132.81 166.72 131.68 167.53 131.47 168.73 Z M 131.30 169.72 L 131.12 170.71 C 130.91 171.91 131.71 173.05 132.90 173.27 C 134.10 173.48 135.25 172.68 135.46 171.48 L 135.64 170.49 C 135.85 169.29 135.06 168.15 133.86 167.93 C 132.66 167.72 131.51 168.52 131.30 169.72 Z M 131.12 170.70 L 130.94 171.67 C 130.72 172.87 131.51 174.03 132.71 174.25 C 133.91 174.47 135.07 173.67 135.29 172.47 L 135.47 171.49 C 135.69 170.29 134.89 169.14 133.69 168.92 C 132.49 168.70 131.34 169.49 131.12 170.70 Z M 130.93 171.66 L 130.75 172.63 C 130.53 173.83 131.32 174.99 132.52 175.22 C 133.73 175.44 134.88 174.65 135.11 173.45 L 135.29 172.48 C 135.52 171.28 134.72 170.12 133.52 169.89 C 132.32 169.67 131.16 170.46 130.93 171.66 Z M 130.75 172.62 L 130.57 173.59 C 130.34 174.79 131.13 175.95 132.33 176.18 C 133.54 176.41 134.70 175.62 134.93 174.41 L 135.11 173.45 C 135.34 172.25 134.55 171.09 133.35 170.86 C 132.14 170.63 130.98 171.42 130.75 172.62 Z M 130.56 173.58 L 130.36 174.63 C 130.13 175.84 130.92 177.00 132.13 177.23 C 133.34 177.47 134.50 176.67 134.73 175.47 L 134.93 174.42 C 135.17 173.21 134.37 172.04 133.17 171.81 C 131.96 171.58 130.79 172.38 130.56 173.58 Z M 130.36 174.63 L 130.16 175.67 C 129.93 176.88 130.72 178.04 131.93 178.28 C 133.14 178.51 134.31 177.72 134.54 176.51 L 134.74 175.47 C 134.97 174.26 134.18 173.09 132.97 172.86 C 131.76 172.63 130.59 173.42 130.36 174.63 Z M 130.16 175.66 L 129.96 176.66 C 129.72 177.88 130.51 179.05 131.72 179.29 C 132.94 179.52 134.11 178.73 134.35 177.52 L 134.54 176.51 C 134.78 175.30 133.99 174.13 132.78 173.89 C 131.57 173.66 130.39 174.45 130.16 175.66 Z M 129.96 176.65 L 129.77 177.61 C 129.52 178.82 130.31 180.00 131.52 180.24 C 132.74 180.48 133.92 179.70 134.16 178.48 L 134.35 177.53 C 134.59 176.32 133.80 175.14 132.59 174.90 C 131.38 174.65 130.20 175.44 129.96 176.65 Z M 129.76 177.59 L 129.58 178.48 C 129.33 179.70 130.11 180.88 131.33 181.13 C 132.54 181.38 133.73 180.60 133.98 179.39 L 134.16 178.50 C 134.41 177.28 133.63 176.10 132.41 175.85 C 131.20 175.60 130.01 176.38 129.76 177.59 Z M 129.58 178.46 L 129.35 179.56 C 129.08 180.77 129.85 181.96 131.07 182.23 C 132.28 182.49 133.48 181.72 133.74 180.51 L 133.98 179.41 C 134.24 178.20 133.47 177.00 132.25 176.74 C 131.04 176.48 129.85 177.25 129.58 178.46 Z M 129.35 179.52 L 129.11 180.54 C 128.83 181.75 129.58 182.96 130.79 183.24 C 132.00 183.53 133.21 182.77 133.50 181.56 L 133.73 180.54 C 134.02 179.33 133.26 178.12 132.05 177.84 C 130.84 177.56 129.63 178.31 129.35 179.52 Z M 129.12 180.49 L 128.90 181.38 C 128.59 182.59 129.32 183.81 130.52 184.12 C 131.73 184.43 132.95 183.70 133.26 182.50 L 133.49 181.61 C 133.80 180.40 133.07 179.18 131.86 178.87 C 130.66 178.56 129.43 179.29 129.12 180.49 Z M 128.91 181.32 L 128.66 182.20 C 128.32 183.40 129.01 184.65 130.21 184.99 C 131.41 185.33 132.66 184.63 133.00 183.43 L 133.25 182.55 C 133.59 181.36 132.89 180.11 131.69 179.77 C 130.50 179.43 129.25 180.12 128.91 181.32 Z M 128.69 182.11 L 128.37 183.07 C 127.97 184.25 128.62 185.53 129.80 185.92 C 130.98 186.31 132.26 185.67 132.65 184.49 L 132.97 183.53 C 133.37 182.34 132.72 181.07 131.54 180.67 C 130.36 180.28 129.08 180.92 128.69 182.11 Z M 128.42 182.92 L 128.05 183.81 C 127.58 184.96 128.13 186.28 129.28 186.76 C 130.43 187.23 131.76 186.68 132.23 185.53 L 132.60 184.64 C 133.08 183.49 132.53 182.17 131.37 181.69 C 130.22 181.21 128.90 181.76 128.42 182.92 Z M 128.16 183.58 L 127.58 184.63 C 126.98 185.73 127.38 187.11 128.48 187.71 C 129.58 188.31 130.96 187.90 131.56 186.81 L 132.13 185.75 C 132.73 184.66 132.33 183.28 131.23 182.68 C 130.13 182.08 128.76 182.48 128.16 183.58 Z M 128.18 183.92 L 127.61 184.36 C 126.62 185.12 126.43 186.55 127.20 187.54 C 127.96 188.54 129.39 188.72 130.38 187.96 L 130.95 187.52 C 131.95 186.76 132.13 185.33 131.37 184.33 C 130.61 183.34 129.18 183.15 128.18 183.92 Z M 130.93 185.00 L 130.57 184.41 C 129.93 183.34 128.55 183.00 127.48 183.64 C 126.41 184.28 126.07 185.67 126.71 186.73 L 127.07 187.32 C 127.71 188.39 129.09 188.73 130.16 188.09 C 131.22 187.45 131.57 186.06 130.93 185.00 Z M 130.78 185.02 L 130.48 183.85 C 130.17 182.66 128.97 181.95 127.79 182.26 C 126.61 182.56 125.90 183.77 126.20 184.95 L 126.50 186.12 C 126.81 187.31 128.01 188.02 129.19 187.71 C 130.38 187.41 131.09 186.20 130.78 185.02 Z M 130.43 183.83 L 130.19 182.93 C 129.87 181.77 128.68 181.09 127.53 181.40 C 126.38 181.72 125.69 182.91 126.01 184.06 L 126.25 184.96 C 126.56 186.12 127.75 186.80 128.91 186.49 C 130.06 186.18 130.74 184.99 130.43 183.83 Z M 130.12 182.87 L 129.84 181.97 C 129.50 180.85 128.31 180.23 127.19 180.57 C 126.07 180.92 125.45 182.11 125.79 183.23 L 126.07 184.12 C 126.42 185.24 127.60 185.87 128.72 185.52 C 129.84 185.17 130.47 183.99 130.12 182.87 Z M 129.79 181.95 L 129.45 180.93 C 129.09 179.84 127.92 179.25 126.83 179.61 C 125.74 179.98 125.15 181.15 125.51 182.24 L 125.85 183.25 C 126.21 184.34 127.38 184.93 128.47 184.57 C 129.56 184.21 130.15 183.03 129.79 181.95 Z M 129.41 180.93 L 129.07 179.92 C 128.71 178.86 127.55 178.29 126.49 178.65 C 125.42 179.01 124.85 180.17 125.21 181.23 L 125.55 182.24 C 125.91 183.31 127.07 183.88 128.14 183.52 C 129.20 183.15 129.78 182.00 129.41 180.93 Z M 129.05 179.93 L 128.74 179.00 C 128.38 177.95 127.23 177.38 126.18 177.74 C 125.12 178.10 124.56 179.25 124.91 180.31 L 125.23 181.23 C 125.59 182.28 126.74 182.85 127.79 182.49 C 128.85 182.13 129.41 180.98 129.05 179.93 Z M 128.73 179.01 L 128.40 178.04 C 128.04 176.99 126.90 176.42 125.85 176.78 C 124.80 177.14 124.24 178.28 124.59 179.33 L 124.93 180.30 C 125.28 181.35 126.42 181.91 127.47 181.56 C 128.52 181.20 129.08 180.06 128.73 179.01 Z M 128.39 178.04 L 128.05 177.06 C 127.70 176.01 126.56 175.45 125.52 175.81 C 124.47 176.16 123.92 177.30 124.27 178.34 L 124.60 179.32 C 124.96 180.37 126.09 180.93 127.14 180.57 C 128.18 180.22 128.74 179.08 128.39 178.04 Z M 128.04 177.06 L 127.72 176.11 C 127.37 175.07 126.24 174.51 125.20 174.86 C 124.16 175.21 123.61 176.34 123.96 177.38 L 124.28 178.34 C 124.63 179.37 125.76 179.93 126.80 179.58 C 127.84 179.23 128.39 178.10 128.04 177.06 Z M 127.69 176.12 L 127.35 175.09 C 127.00 174.06 125.89 173.51 124.87 173.85 C 123.84 174.20 123.29 175.31 123.63 176.33 L 123.98 177.37 C 124.33 178.39 125.44 178.94 126.46 178.60 C 127.49 178.25 128.04 177.14 127.69 176.12 Z M 127.30 175.10 L 126.97 174.11 C 126.63 173.11 125.55 172.57 124.55 172.91 C 123.55 173.24 123.01 174.32 123.35 175.32 L 123.68 176.32 C 124.02 177.32 125.10 177.85 126.10 177.52 C 127.10 177.18 127.64 176.10 127.30 175.10 Z M 126.91 174.12 L 126.60 173.20 C 126.26 172.23 125.21 171.72 124.25 172.05 C 123.28 172.38 122.76 173.43 123.09 174.40 L 123.41 175.31 C 123.74 176.28 124.79 176.80 125.76 176.47 C 126.72 176.14 127.24 175.08 126.91 174.12 Z M 126.53 173.20 L 126.23 172.34 C 125.90 171.41 124.87 170.92 123.94 171.25 C 123.01 171.58 122.52 172.61 122.85 173.54 L 123.15 174.40 C 123.49 175.33 124.51 175.82 125.44 175.49 C 126.38 175.16 126.87 174.13 126.53 173.20 Z M 126.17 172.32 L 125.82 171.40 C 125.48 170.50 124.47 170.05 123.57 170.39 C 122.67 170.73 122.22 171.74 122.56 172.64 L 122.91 173.56 C 123.25 174.46 124.26 174.92 125.16 174.57 C 126.06 174.23 126.51 173.22 126.17 172.32 Z M 125.77 171.36 L 125.38 170.44 C 125.02 169.57 124.02 169.16 123.15 169.53 C 122.28 169.89 121.87 170.89 122.23 171.76 L 122.61 172.68 C 122.98 173.55 123.98 173.96 124.85 173.60 C 125.72 173.23 126.13 172.23 125.77 171.36 Z M 125.32 170.39 L 124.90 169.49 C 124.50 168.66 123.50 168.30 122.67 168.69 C 121.83 169.09 121.48 170.09 121.87 170.92 L 122.29 171.82 C 122.69 172.65 123.69 173.01 124.52 172.62 C 125.36 172.22 125.71 171.23 125.32 170.39 Z M 124.83 169.43 L 124.35 168.53 C 123.92 167.73 122.92 167.43 122.12 167.86 C 121.33 168.29 121.02 169.29 121.45 170.09 L 121.94 170.98 C 122.36 171.78 123.36 172.08 124.16 171.65 C 124.96 171.23 125.26 170.23 124.83 169.43 Z M 124.30 168.48 L 123.77 167.59 C 123.31 166.82 122.31 166.56 121.54 167.02 C 120.77 167.48 120.52 168.47 120.98 169.24 L 121.51 170.14 C 121.96 170.91 122.96 171.16 123.73 170.70 C 124.50 170.25 124.75 169.25 124.30 168.48 Z M 123.73 167.56 L 123.20 166.71 C 122.73 165.96 121.74 165.73 120.98 166.20 C 120.23 166.67 120.00 167.67 120.48 168.42 L 121.01 169.27 C 121.48 170.02 122.47 170.25 123.22 169.78 C 123.98 169.31 124.20 168.32 123.73 167.56 Z M 123.18 166.71 L 122.66 165.89 C 122.19 165.15 121.21 164.93 120.46 165.40 C 119.72 165.87 119.50 166.86 119.97 167.60 L 120.49 168.42 C 120.97 169.16 121.95 169.38 122.69 168.91 C 123.43 168.44 123.65 167.45 123.18 166.71 Z M 122.66 165.91 L 122.10 165.01 C 121.64 164.27 120.67 164.04 119.92 164.50 C 119.18 164.96 118.96 165.94 119.42 166.68 L 119.98 167.58 C 120.44 168.32 121.41 168.55 122.15 168.09 C 122.89 167.63 123.12 166.66 122.66 165.91 Z M 122.10 165.03 L 121.61 164.23 C 121.16 163.49 120.20 163.25 119.46 163.70 C 118.72 164.15 118.48 165.11 118.93 165.86 L 119.42 166.66 C 119.87 167.40 120.83 167.64 121.57 167.19 C 122.31 166.74 122.55 165.77 122.10 165.03 Z M 121.61 164.24 L 121.47 164.00 C 121.03 163.26 120.07 163.02 119.33 163.47 C 118.59 163.91 118.35 164.87 118.79 165.61 L 118.93 165.85 C 119.38 166.59 120.34 166.83 121.08 166.38 C 121.82 165.94 122.06 164.98 121.61 164.24 Z"
      fill="black"
      fill-rule="nonzero" /><path d="M 122.96 164.15 L 123.10 163.14 C 123.25 162.10 122.52 161.14 121.48 161.00 C 120.44 160.85 119.48 161.58 119.33 162.62 L 119.19 163.62 C 119.05 164.66 119.77 165.62 120.82 165.77 C 121.86 165.91 122.82 165.19 122.96 164.15 Z M 123.16 163.39 L 123.41 162.43 C 123.69 161.36 123.04 160.26 121.97 159.98 C 120.90 159.71 119.81 160.35 119.53 161.42 L 119.28 162.38 C 119.00 163.45 119.64 164.54 120.71 164.82 C 121.78 165.10 122.88 164.46 123.16 163.39 Z M 123.31 162.87 L 123.73 162.05 C 124.26 161.03 123.86 159.78 122.85 159.26 C 121.83 158.73 120.58 159.13 120.06 160.15 L 119.63 160.97 C 119.10 161.99 119.50 163.24 120.52 163.76 C 121.53 164.29 122.78 163.89 123.31 162.87 Z M 123.52 162.41 L 124.13 161.65 C 124.85 160.76 124.71 159.44 123.82 158.72 C 122.92 157.99 121.60 158.13 120.88 159.03 L 120.27 159.79 C 119.55 160.68 119.69 162.00 120.58 162.72 C 121.48 163.45 122.80 163.31 123.52 162.41 Z M 123.99 161.82 L 124.75 161.05 C 125.56 160.23 125.56 158.91 124.74 158.09 C 123.92 157.28 122.60 157.29 121.78 158.10 L 121.02 158.87 C 120.21 159.69 120.21 161.01 121.03 161.83 C 121.85 162.64 123.17 162.63 123.99 161.82 Z M 124.70 161.10 L 125.35 160.49 C 126.19 159.70 126.23 158.38 125.44 157.54 C 124.65 156.69 123.33 156.65 122.48 157.44 L 121.83 158.05 C 120.99 158.84 120.95 160.17 121.74 161.01 C 122.53 161.85 123.86 161.89 124.70 161.10 Z M 125.32 160.51 L 126.05 159.85 C 126.90 159.07 126.96 157.75 126.18 156.90 C 125.41 156.05 124.09 155.99 123.23 156.76 L 122.51 157.42 C 121.66 158.20 121.60 159.52 122.37 160.37 C 123.15 161.22 124.47 161.29 125.32 160.51 Z M 126.03 159.86 L 126.82 159.15 C 127.68 158.39 127.76 157.07 126.99 156.21 C 126.23 155.35 124.91 155.27 124.05 156.04 L 123.25 156.75 C 122.39 157.52 122.32 158.84 123.08 159.70 C 123.85 160.55 125.17 160.63 126.03 159.86 Z M 126.81 159.16 L 127.61 158.45 C 128.47 157.69 128.56 156.38 127.80 155.52 C 127.04 154.65 125.72 154.57 124.86 155.33 L 124.06 156.03 C 123.20 156.79 123.12 158.11 123.87 158.97 C 124.63 159.83 125.95 159.92 126.81 159.16 Z M 127.60 158.45 L 128.36 157.78 C 129.23 157.03 129.32 155.72 128.56 154.86 C 127.81 154.00 126.50 153.91 125.64 154.66 L 124.87 155.33 C 124.01 156.08 123.92 157.39 124.68 158.25 C 125.43 159.12 126.74 159.20 127.60 158.45 Z M 128.35 157.78 L 129.13 157.11 C 129.99 156.36 130.08 155.06 129.33 154.20 C 128.59 153.34 127.29 153.25 126.43 153.99 L 125.65 154.67 C 124.79 155.41 124.70 156.71 125.45 157.57 C 126.19 158.43 127.49 158.52 128.35 157.78 Z M 129.11 157.10 L 129.87 156.45 C 130.73 155.71 130.83 154.42 130.09 153.56 C 129.35 152.70 128.06 152.61 127.20 153.34 L 126.44 154.00 C 125.59 154.74 125.49 156.03 126.23 156.89 C 126.97 157.74 128.26 157.84 129.11 157.10 Z M 129.86 156.44 L 130.61 155.80 C 131.46 155.07 131.56 153.79 130.83 152.93 C 130.10 152.08 128.82 151.98 127.97 152.71 L 127.22 153.35 C 126.36 154.08 126.26 155.36 126.99 156.22 C 127.72 157.07 129.01 157.17 129.86 156.44 Z M 130.58 155.78 L 131.39 155.09 C 132.24 154.38 132.34 153.11 131.62 152.27 C 130.91 151.43 129.64 151.33 128.80 152.04 L 127.99 152.73 C 127.15 153.44 127.04 154.71 127.76 155.55 C 128.48 156.39 129.74 156.50 130.58 155.78 Z M 131.37 155.06 L 132.11 154.42 C 132.94 153.72 133.03 152.48 132.33 151.66 C 131.63 150.83 130.39 150.74 129.56 151.44 L 128.82 152.08 C 128.00 152.78 127.90 154.02 128.60 154.84 C 129.31 155.67 130.55 155.76 131.37 155.06 Z M 132.10 154.38 L 132.82 153.76 C 133.61 153.06 133.70 151.84 133.00 151.05 C 132.30 150.25 131.09 150.17 130.29 150.86 L 129.57 151.49 C 128.78 152.18 128.70 153.40 129.39 154.20 C 130.09 154.99 131.31 155.08 132.10 154.38 Z M 132.82 153.71 L 133.53 153.06 C 134.30 152.36 134.36 151.17 133.66 150.40 C 132.96 149.63 131.77 149.57 131.00 150.27 L 130.29 150.91 C 129.51 151.61 129.46 152.80 130.16 153.58 C 130.85 154.35 132.05 154.40 132.82 153.71 Z M 133.53 153.02 L 134.25 152.34 C 135.00 151.64 135.04 150.47 134.34 149.72 C 133.64 148.97 132.47 148.93 131.72 149.63 L 131.00 150.31 C 130.25 151.01 130.21 152.18 130.91 152.93 C 131.61 153.68 132.78 153.72 133.53 153.02 Z M 134.25 152.31 L 134.98 151.61 C 135.71 150.91 135.74 149.75 135.04 149.02 C 134.34 148.30 133.19 148.27 132.46 148.97 L 131.72 149.67 C 130.99 150.36 130.97 151.52 131.67 152.25 C 132.36 152.98 133.52 153.00 134.25 152.31 Z M 134.97 151.58 L 135.69 150.88 C 136.41 150.19 136.43 149.05 135.74 148.34 C 135.05 147.62 133.91 147.60 133.20 148.29 L 132.47 148.99 C 131.76 149.68 131.74 150.82 132.43 151.54 C 133.12 152.25 134.25 152.27 134.97 151.58 Z M 135.68 150.86 L 136.38 150.18 C 137.08 149.50 137.10 148.37 136.42 147.67 C 135.74 146.97 134.62 146.95 133.92 147.63 L 133.21 148.31 C 132.51 148.99 132.49 150.12 133.17 150.82 C 133.85 151.52 134.98 151.54 135.68 150.86 Z M 136.37 150.15 L 137.08 149.46 C 137.77 148.78 137.79 147.68 137.12 146.99 C 136.44 146.30 135.34 146.28 134.65 146.96 L 133.93 147.65 C 133.24 148.33 133.23 149.43 133.90 150.12 C 134.57 150.81 135.68 150.83 136.37 150.15 Z M 137.07 149.43 L 137.80 148.72 C 138.48 148.06 138.49 146.97 137.82 146.29 C 137.16 145.61 136.07 145.60 135.39 146.26 L 134.66 146.98 C 133.98 147.64 133.97 148.73 134.64 149.41 C 135.30 150.09 136.39 150.10 137.07 149.43 Z M 137.78 148.70 L 138.50 147.99 C 139.17 147.33 139.18 146.26 138.52 145.59 C 137.86 144.93 136.79 144.92 136.12 145.58 L 135.41 146.28 C 134.74 146.94 134.73 148.01 135.39 148.68 C 136.05 149.35 137.12 149.36 137.78 148.70 Z M 138.49 147.97 L 139.20 147.26 C 139.86 146.61 139.86 145.55 139.21 144.89 C 138.56 144.24 137.50 144.24 136.85 144.89 L 136.13 145.60 C 135.48 146.25 135.48 147.31 136.13 147.96 C 136.78 148.62 137.84 148.62 138.49 147.97 Z M 139.20 147.23 L 139.91 146.51 C 140.54 145.86 140.54 144.82 139.89 144.18 C 139.24 143.54 138.20 143.55 137.56 144.20 L 136.85 144.92 C 136.21 145.57 136.22 146.61 136.87 147.25 C 137.52 147.89 138.56 147.88 139.20 147.23 Z M 139.90 146.48 L 140.59 145.76 C 141.21 145.11 141.19 144.09 140.55 143.47 C 139.90 142.84 138.87 142.87 138.25 143.51 L 137.56 144.23 C 136.94 144.88 136.96 145.91 137.61 146.53 C 138.25 147.15 139.28 147.13 139.90 146.48 Z M 140.60 145.73 L 141.29 144.98 C 141.90 144.33 141.86 143.31 141.20 142.71 C 140.55 142.11 139.54 142.15 138.93 142.80 L 138.24 143.55 C 137.64 144.20 137.68 145.22 138.33 145.82 C 138.98 146.42 140.00 146.38 140.60 145.73 Z M 141.30 144.95 L 141.97 144.20 C 142.56 143.54 142.51 142.54 141.85 141.95 C 141.19 141.36 140.18 141.42 139.60 142.07 L 138.92 142.83 C 138.34 143.48 138.39 144.49 139.05 145.08 C 139.71 145.67 140.71 145.61 141.30 144.95 Z M 141.98 144.18 L 142.63 143.44 C 143.21 142.78 143.14 141.77 142.48 141.20 C 141.82 140.62 140.82 140.69 140.24 141.35 L 139.59 142.09 C 139.02 142.75 139.08 143.76 139.74 144.33 C 140.40 144.91 141.40 144.84 141.98 144.18 Z M 142.63 143.42 L 143.27 142.68 C 143.84 142.02 143.77 141.03 143.11 140.46 C 142.45 139.89 141.45 139.96 140.88 140.62 L 140.24 141.36 C 139.67 142.02 139.75 143.02 140.41 143.59 C 141.07 144.15 142.06 144.08 142.63 143.42 Z M 143.27 142.67 L 143.93 141.91 C 144.49 141.25 144.42 140.26 143.76 139.69 C 143.10 139.13 142.11 139.20 141.54 139.86 L 140.89 140.63 C 140.32 141.29 140.40 142.28 141.05 142.84 C 141.71 143.41 142.70 143.33 143.27 142.67 Z M 143.93 141.90 L 144.58 141.14 C 145.14 140.48 145.06 139.49 144.40 138.93 C 143.74 138.37 142.75 138.45 142.19 139.11 L 141.54 139.87 C 140.98 140.52 141.06 141.51 141.72 142.08 C 142.37 142.64 143.36 142.56 143.93 141.90 Z M 144.58 141.13 L 145.22 140.38 C 145.78 139.72 145.70 138.73 145.04 138.17 C 144.38 137.61 143.39 137.70 142.83 138.35 L 142.19 139.11 C 141.63 139.77 141.71 140.76 142.37 141.32 C 143.03 141.88 144.02 141.79 144.58 141.13 Z M 145.22 140.37 L 145.86 139.61 C 146.42 138.95 146.33 137.96 145.67 137.41 C 145.01 136.85 144.03 136.94 143.47 137.60 L 142.83 138.36 C 142.28 139.02 142.36 140.01 143.02 140.56 C 143.68 141.12 144.67 141.03 145.22 140.37 Z M 145.87 139.60 L 146.51 138.83 C 147.06 138.17 146.97 137.18 146.31 136.63 C 145.64 136.08 144.66 136.17 144.11 136.83 L 143.47 137.60 C 142.92 138.27 143.01 139.25 143.67 139.80 C 144.33 140.35 145.32 140.26 145.87 139.60 Z M 146.51 138.83 L 147.15 138.06 C 147.70 137.39 147.60 136.41 146.94 135.86 C 146.27 135.31 145.29 135.40 144.74 136.07 L 144.10 136.84 C 143.55 137.50 143.65 138.49 144.31 139.04 C 144.98 139.58 145.96 139.49 146.51 138.83 Z M 147.15 138.05 L 147.68 137.40 C 148.23 136.74 148.14 135.75 147.47 135.21 C 146.81 134.66 145.82 134.75 145.27 135.42 L 144.74 136.07 C 144.19 136.74 144.29 137.72 144.95 138.27 C 145.62 138.82 146.60 138.72 147.15 138.05 Z"
      fill="black"
      fill-rule="nonzero" /><path d="M 154.78 125.25 L 155.74 124.96 C 156.70 124.67 157.23 123.66 156.94 122.70 C 156.65 121.75 155.64 121.21 154.69 121.51 L 153.73 121.80 C 152.77 122.09 152.24 123.10 152.53 124.05 C 152.82 125.01 153.83 125.54 154.78 125.25 Z M 155.79 124.99 L 156.74 124.68 C 157.71 124.36 158.24 123.31 157.92 122.34 C 157.60 121.37 156.56 120.84 155.58 121.16 L 154.64 121.47 C 153.66 121.79 153.14 122.84 153.46 123.81 C 153.78 124.78 154.82 125.31 155.79 124.99 Z M 156.83 124.68 L 157.76 124.33 C 158.73 123.96 159.22 122.88 158.86 121.90 C 158.49 120.93 157.40 120.44 156.43 120.80 L 155.50 121.16 C 154.52 121.52 154.03 122.61 154.40 123.58 C 154.77 124.56 155.86 125.05 156.83 124.68 Z M 157.85 124.30 L 158.76 123.90 C 159.72 123.48 160.15 122.37 159.73 121.41 C 159.31 120.46 158.20 120.02 157.25 120.44 L 156.34 120.84 C 155.38 121.26 154.95 122.37 155.36 123.32 C 155.78 124.28 156.90 124.71 157.85 124.30 Z M 158.82 123.85 L 159.72 123.42 C 160.65 122.97 161.04 121.85 160.59 120.92 C 160.14 119.99 159.02 119.60 158.09 120.05 L 157.19 120.49 C 156.26 120.93 155.87 122.05 156.32 122.98 C 156.77 123.91 157.89 124.30 158.82 123.85 Z M 159.75 123.38 L 160.64 122.92 C 161.55 122.46 161.91 121.35 161.45 120.44 C 160.98 119.53 159.87 119.17 158.96 119.63 L 158.07 120.09 C 157.16 120.55 156.80 121.66 157.26 122.57 C 157.72 123.48 158.84 123.84 159.75 123.38 Z M 160.65 122.89 L 161.54 122.42 C 162.43 121.95 162.77 120.85 162.30 119.96 C 161.83 119.07 160.72 118.73 159.84 119.20 L 158.95 119.67 C 158.06 120.14 157.72 121.24 158.19 122.13 C 158.66 123.02 159.76 123.36 160.65 122.89 Z M 161.55 122.38 L 162.43 121.90 C 163.29 121.42 163.61 120.33 163.14 119.47 C 162.66 118.60 161.57 118.28 160.70 118.76 L 159.83 119.24 C 158.96 119.71 158.64 120.80 159.12 121.67 C 159.59 122.54 160.68 122.86 161.55 122.38 Z M 162.43 121.86 L 163.26 121.39 C 164.11 120.91 164.41 119.84 163.93 118.99 C 163.45 118.14 162.37 117.85 161.52 118.33 L 160.70 118.79 C 159.85 119.27 159.55 120.35 160.03 121.20 C 160.51 122.04 161.59 122.34 162.43 121.86 Z M 163.25 121.36 L 164.11 120.87 C 164.94 120.39 165.22 119.34 164.75 118.51 C 164.27 117.68 163.22 117.39 162.39 117.87 L 161.53 118.36 C 160.70 118.83 160.42 119.89 160.89 120.72 C 161.37 121.55 162.42 121.83 163.25 121.36 Z M 164.08 120.84 L 165.00 120.33 C 165.81 119.86 166.10 118.83 165.64 118.01 C 165.18 117.20 164.14 116.91 163.33 117.37 L 162.41 117.89 C 161.60 118.35 161.31 119.39 161.77 120.20 C 162.23 121.02 163.27 121.31 164.08 120.84 Z M 164.97 120.31 L 165.79 119.85 C 166.60 119.41 166.89 118.39 166.44 117.59 C 166.00 116.78 164.98 116.49 164.18 116.93 L 163.35 117.39 C 162.55 117.84 162.26 118.85 162.70 119.66 C 163.15 120.46 164.17 120.76 164.97 120.31 Z M 165.77 119.84 L 166.65 119.35 C 167.45 118.92 167.74 117.92 167.31 117.12 C 166.87 116.33 165.87 116.03 165.08 116.47 L 164.20 116.95 C 163.40 117.39 163.11 118.39 163.54 119.18 C 163.98 119.98 164.98 120.27 165.77 119.84 Z M 166.64 119.34 L 167.55 118.84 C 168.34 118.41 168.63 117.43 168.20 116.64 C 167.78 115.86 166.79 115.57 166.01 115.99 L 165.09 116.49 C 164.31 116.92 164.02 117.90 164.44 118.68 C 164.87 119.47 165.85 119.76 166.64 119.34 Z M 167.54 118.82 L 167.99 118.58 C 168.77 118.16 169.06 117.19 168.64 116.41 C 168.22 115.63 167.25 115.34 166.47 115.76 L 166.02 116.01 C 165.24 116.43 164.95 117.40 165.37 118.18 C 165.79 118.96 166.76 119.25 167.54 118.82 Z"
      fill="black"
      fill-rule="nonzero" /><path d="M 152.71 113.22 L 152.54 114.11 C 152.34 115.11 152.99 116.08 153.99 116.27 C 154.99 116.47 155.96 115.82 156.16 114.82 L 156.33 113.92 C 156.53 112.92 155.88 111.96 154.88 111.76 C 153.88 111.57 152.91 112.22 152.71 113.22 Z M 152.50 114.16 L 152.34 115.12 C 152.17 116.14 152.87 117.11 153.89 117.27 C 154.91 117.44 155.88 116.75 156.04 115.72 L 156.20 114.77 C 156.37 113.74 155.67 112.78 154.65 112.61 C 153.63 112.44 152.66 113.14 152.50 114.16 Z M 152.29 115.21 L 152.17 116.30 C 152.06 117.35 152.81 118.29 153.86 118.41 C 154.91 118.52 155.85 117.77 155.97 116.72 L 156.09 115.63 C 156.20 114.58 155.45 113.64 154.40 113.52 C 153.35 113.41 152.41 114.17 152.29 115.21 Z M 152.16 116.40 L 152.10 117.41 C 152.03 118.47 152.84 119.37 153.90 119.44 C 154.96 119.50 155.86 118.69 155.93 117.63 L 155.99 116.62 C 156.05 115.57 155.24 114.66 154.18 114.60 C 153.13 114.53 152.22 115.34 152.16 116.40 Z M 152.11 117.47 L 152.08 118.51 C 152.05 119.56 152.88 120.43 153.93 120.46 C 154.98 120.49 155.85 119.67 155.88 118.62 L 155.91 117.58 C 155.94 116.53 155.12 115.65 154.07 115.62 C 153.02 115.59 152.14 116.42 152.11 117.47 Z M 152.10 118.54 L 152.09 119.57 C 152.08 120.61 152.91 121.46 153.95 121.47 C 154.99 121.48 155.84 120.65 155.85 119.61 L 155.86 118.58 C 155.87 117.55 155.04 116.69 154.00 116.68 C 152.96 116.67 152.11 117.50 152.10 118.54 Z M 152.11 119.59 L 152.11 120.54 C 152.11 121.57 152.94 122.40 153.96 122.40 C 154.99 122.40 155.82 121.57 155.83 120.55 L 155.83 119.60 C 155.83 118.57 155.00 117.74 153.97 117.73 C 152.95 117.73 152.11 118.56 152.11 119.59 Z M 152.13 120.54 L 152.12 121.66 C 152.12 122.68 152.95 123.50 153.96 123.50 C 154.98 123.51 155.81 122.68 155.81 121.66 L 155.81 120.55 C 155.81 119.53 154.99 118.70 153.97 118.70 C 152.95 118.70 152.13 119.52 152.13 120.54 Z M 152.14 121.63 L 152.12 122.58 C 152.10 123.60 152.91 124.43 153.92 124.44 C 154.93 124.46 155.77 123.65 155.78 122.64 L 155.80 121.69 C 155.81 120.68 155.01 119.85 153.99 119.83 C 152.98 119.81 152.15 120.62 152.14 121.63 Z M 152.13 122.53 L 152.09 123.43 C 152.04 124.44 152.82 125.29 153.82 125.34 C 154.83 125.39 155.68 124.61 155.73 123.60 L 155.77 122.70 C 155.82 121.69 155.04 120.84 154.04 120.79 C 153.03 120.75 152.18 121.52 152.13 122.53 Z M 152.10 123.37 L 152.02 124.35 C 151.94 125.35 152.68 126.23 153.68 126.31 C 154.69 126.39 155.56 125.64 155.64 124.64 L 155.72 123.66 C 155.80 122.66 155.06 121.79 154.05 121.71 C 153.05 121.63 152.18 122.37 152.10 123.37 Z M 152.02 124.31 L 151.92 125.33 C 151.82 126.33 152.55 127.22 153.55 127.32 C 154.55 127.42 155.44 126.69 155.54 125.69 L 155.64 124.67 C 155.74 123.67 155.01 122.78 154.01 122.68 C 153.01 122.58 152.12 123.31 152.02 124.31 Z M 151.92 125.32 L 151.81 126.32 C 151.71 127.32 152.43 128.22 153.43 128.32 C 154.43 128.43 155.33 127.70 155.43 126.70 L 155.54 125.70 C 155.65 124.70 154.92 123.80 153.92 123.70 C 152.92 123.59 152.03 124.32 151.92 125.32 Z M 151.81 126.31 L 151.70 127.30 C 151.59 128.30 152.31 129.20 153.31 129.31 C 154.31 129.42 155.21 128.70 155.32 127.70 L 155.43 126.72 C 155.55 125.72 154.83 124.81 153.83 124.70 C 152.83 124.59 151.92 125.31 151.81 126.31 Z M 151.70 127.27 L 151.58 128.27 C 151.45 129.27 152.16 130.18 153.16 130.31 C 154.16 130.43 155.07 129.73 155.20 128.73 L 155.32 127.73 C 155.45 126.73 154.74 125.82 153.74 125.69 C 152.74 125.57 151.83 126.27 151.70 127.27 Z M 151.58 128.24 L 151.43 129.23 C 151.29 130.22 151.98 131.15 152.98 131.30 C 153.98 131.44 154.91 130.75 155.05 129.75 L 155.20 128.76 C 155.34 127.76 154.65 126.84 153.65 126.69 C 152.65 126.54 151.72 127.24 151.58 128.24 Z M 151.43 129.20 L 151.27 130.19 C 151.11 131.20 151.80 132.14 152.80 132.30 C 153.80 132.45 154.74 131.77 154.90 130.77 L 155.06 129.78 C 155.21 128.78 154.53 127.83 153.53 127.68 C 152.53 127.52 151.59 128.20 151.43 129.20 Z M 151.26 130.19 L 151.11 131.18 C 150.95 132.18 151.63 133.13 152.64 133.29 C 153.64 133.45 154.59 132.76 154.75 131.76 L 154.91 130.77 C 155.07 129.77 154.38 128.82 153.38 128.66 C 152.37 128.50 151.42 129.18 151.26 130.19 Z M 151.10 131.19 L 150.95 132.19 C 150.80 133.20 151.49 134.14 152.50 134.30 C 153.51 134.45 154.45 133.76 154.60 132.75 L 154.75 131.74 C 154.91 130.74 154.21 129.79 153.20 129.64 C 152.20 129.49 151.25 130.18 151.10 131.19 Z M 150.95 132.21 L 150.81 133.19 C 150.66 134.20 151.36 135.14 152.37 135.28 C 153.37 135.43 154.31 134.73 154.46 133.72 L 154.60 132.74 C 154.75 131.73 154.05 130.79 153.04 130.65 C 152.03 130.50 151.10 131.20 150.95 132.21 Z M 150.81 133.19 L 150.67 134.15 C 150.52 135.15 151.22 136.09 152.23 136.23 C 153.24 136.38 154.18 135.68 154.32 134.67 L 154.46 133.72 C 154.60 132.71 153.90 131.78 152.89 131.63 C 151.89 131.49 150.95 132.19 150.81 133.19 Z M 150.66 134.14 L 150.53 135.07 C 150.38 136.09 151.08 137.03 152.10 137.17 C 153.11 137.32 154.05 136.62 154.19 135.60 L 154.33 134.67 C 154.48 133.66 153.77 132.72 152.76 132.57 C 151.75 132.43 150.81 133.13 150.66 134.14 Z M 150.51 135.07 L 150.37 136.08 C 150.22 137.10 150.93 138.05 151.95 138.20 C 152.97 138.34 153.92 137.63 154.06 136.61 L 154.21 135.60 C 154.36 134.58 153.65 133.64 152.63 133.49 C 151.61 133.34 150.66 134.05 150.51 135.07 Z M 150.35 136.08 L 150.20 137.13 C 150.06 138.15 150.77 139.11 151.80 139.25 C 152.83 139.40 153.78 138.69 153.93 137.66 L 154.08 136.61 C 154.22 135.59 153.51 134.63 152.48 134.49 C 151.45 134.34 150.50 135.05 150.35 136.08 Z M 150.19 137.13 L 150.05 138.15 C 149.90 139.19 150.63 140.14 151.67 140.29 C 152.70 140.43 153.66 139.71 153.81 138.67 L 153.95 137.65 C 154.09 136.61 153.36 135.66 152.33 135.51 C 151.29 135.37 150.33 136.09 150.19 137.13 Z M 150.03 138.17 L 149.90 139.19 C 149.76 140.24 150.50 141.20 151.55 141.33 C 152.60 141.47 153.56 140.72 153.69 139.67 L 153.83 138.65 C 153.96 137.60 153.22 136.64 152.17 136.51 C 151.12 136.38 150.16 137.12 150.03 138.17 Z M 149.87 139.22 L 149.77 140.18 C 149.66 141.24 150.42 142.19 151.48 142.31 C 152.54 142.42 153.50 141.66 153.61 140.60 L 153.72 139.64 C 153.83 138.58 153.06 137.63 152.00 137.51 C 150.94 137.40 149.99 138.16 149.87 139.22 Z M 149.73 140.30 L 149.67 141.51 C 149.62 142.60 150.46 143.52 151.55 143.56 C 152.63 143.61 153.55 142.77 153.60 141.69 L 153.66 140.48 C 153.70 139.39 152.86 138.47 151.78 138.42 C 150.70 138.37 149.78 139.21 149.73 140.30 Z M 149.68 142.09 L 149.88 142.90 C 150.16 143.98 151.25 144.64 152.33 144.37 C 153.41 144.10 154.07 143.00 153.80 141.92 L 153.59 141.11 C 153.32 140.03 152.23 139.37 151.15 139.64 C 150.07 139.92 149.41 141.01 149.68 142.09 Z M 150.88 144.24 L 151.52 144.58 C 152.53 145.11 153.78 144.72 154.31 143.71 C 154.84 142.71 154.46 141.46 153.45 140.93 L 152.80 140.59 C 151.79 140.05 150.54 140.44 150.01 141.45 C 149.48 142.46 149.87 143.71 150.88 144.24 Z M 152.85 144.83 L 153.89 144.65 C 155.03 144.45 155.80 143.36 155.60 142.21 C 155.40 141.06 154.31 140.30 153.17 140.49 L 152.12 140.68 C 150.98 140.88 150.21 141.97 150.41 143.11 C 150.61 144.26 151.70 145.03 152.85 144.83 Z M 154.45 144.50 L 155.40 144.04 C 156.47 143.53 156.92 142.25 156.41 141.19 C 155.90 140.13 154.62 139.68 153.56 140.19 L 152.60 140.65 C 151.54 141.16 151.09 142.43 151.60 143.49 C 152.11 144.56 153.39 145.01 154.45 144.50 Z M 155.63 143.92 L 156.50 143.37 C 157.50 142.74 157.79 141.41 157.15 140.41 C 156.52 139.41 155.19 139.12 154.20 139.76 L 153.33 140.31 C 152.33 140.94 152.04 142.27 152.67 143.27 C 153.31 144.26 154.63 144.56 155.63 143.92 Z M 156.60 143.31 L 157.42 142.71 C 158.39 142.02 158.61 140.68 157.92 139.72 C 157.23 138.76 155.89 138.54 154.92 139.23 L 154.10 139.82 C 153.13 140.51 152.91 141.85 153.60 142.81 C 154.29 143.78 155.63 144.00 156.60 143.31 Z M 157.46 142.69 L 158.31 142.05 C 159.26 141.34 159.45 139.99 158.74 139.05 C 158.03 138.10 156.68 137.91 155.73 138.62 L 154.89 139.26 C 153.94 139.97 153.75 141.31 154.46 142.26 C 155.17 143.21 156.51 143.40 157.46 142.69 Z M 158.32 142.04 L 159.10 141.44 C 160.04 140.73 160.22 139.39 159.50 138.45 C 158.79 137.51 157.45 137.32 156.51 138.04 L 155.73 138.63 C 154.79 139.35 154.61 140.69 155.32 141.63 C 156.03 142.57 157.38 142.75 158.32 142.04 Z M 159.09 141.44 L 159.83 140.87 C 160.77 140.16 160.95 138.83 160.24 137.89 C 159.53 136.95 158.20 136.77 157.26 137.48 L 156.52 138.04 C 155.58 138.75 155.40 140.09 156.11 141.03 C 156.82 141.96 158.15 142.15 159.09 141.44 Z M 159.81 140.87 L 160.60 140.27 C 161.54 139.58 161.73 138.25 161.03 137.32 C 160.33 136.38 159.00 136.19 158.07 136.89 L 157.28 137.48 C 156.35 138.18 156.16 139.51 156.86 140.44 C 157.56 141.37 158.88 141.56 159.81 140.87 Z M 160.59 140.26 L 161.41 139.65 C 162.33 138.96 162.52 137.65 161.83 136.72 C 161.14 135.79 159.83 135.61 158.90 136.30 L 158.08 136.91 C 157.16 137.60 156.97 138.91 157.66 139.84 C 158.35 140.76 159.66 140.95 160.59 140.26 Z M 161.40 139.63 L 162.10 139.10 C 163.01 138.42 163.20 137.12 162.51 136.20 C 161.82 135.29 160.52 135.11 159.61 135.79 L 158.91 136.32 C 158.00 137.00 157.81 138.30 158.50 139.22 C 159.19 140.13 160.48 140.32 161.40 139.63 Z M 162.08 139.09 L 162.87 138.50 C 163.78 137.82 163.96 136.53 163.29 135.63 C 162.61 134.72 161.32 134.54 160.42 135.21 L 159.62 135.81 C 158.72 136.49 158.53 137.77 159.21 138.68 C 159.89 139.58 161.17 139.77 162.08 139.09 Z M 162.85 138.49 L 163.75 137.82 C 164.65 137.15 164.84 135.88 164.17 134.98 C 163.51 134.08 162.24 133.89 161.33 134.56 L 160.44 135.23 C 159.54 135.89 159.35 137.16 160.01 138.06 C 160.68 138.96 161.95 139.15 162.85 138.49 Z M 163.73 137.80 L 164.48 137.25 C 165.37 136.60 165.56 135.34 164.91 134.45 C 164.26 133.56 163.00 133.37 162.11 134.02 L 161.36 134.58 C 160.47 135.23 160.27 136.49 160.93 137.38 C 161.58 138.27 162.84 138.46 163.73 137.80 Z M 164.46 137.22 L 165.28 136.62 C 166.15 135.98 166.34 134.75 165.70 133.87 C 165.05 132.99 163.82 132.81 162.94 133.45 L 162.13 134.05 C 161.25 134.69 161.06 135.93 161.71 136.80 C 162.35 137.68 163.59 137.87 164.46 137.22 Z M 165.27 136.59 L 166.10 135.97 C 166.96 135.34 167.14 134.12 166.51 133.26 C 165.87 132.40 164.65 132.22 163.79 132.86 L 162.96 133.48 C 162.10 134.12 161.92 135.33 162.55 136.19 C 163.19 137.05 164.41 137.23 165.27 136.59 Z M 166.10 135.94 L 166.92 135.32 C 167.76 134.68 167.93 133.49 167.30 132.65 C 166.66 131.81 165.47 131.64 164.63 132.27 L 163.80 132.89 C 162.96 133.53 162.79 134.72 163.43 135.56 C 164.06 136.41 165.26 136.57 166.10 135.94 Z M 166.91 135.27 L 167.77 134.61 C 168.59 133.98 168.74 132.81 168.11 131.99 C 167.48 131.18 166.31 131.02 165.50 131.65 L 164.64 132.32 C 163.82 132.95 163.67 134.12 164.30 134.93 C 164.93 135.75 166.10 135.90 166.91 135.27 Z M 167.75 134.55 L 168.56 133.92 C 169.35 133.30 169.48 132.17 168.87 131.38 C 168.25 130.59 167.11 130.46 166.32 131.07 L 165.52 131.71 C 164.73 132.32 164.60 133.46 165.21 134.25 C 165.83 135.03 166.97 135.17 167.75 134.55 Z M 168.53 133.87 L 169.28 133.28 C 170.04 132.68 170.17 131.57 169.57 130.81 C 168.97 130.05 167.87 129.92 167.11 130.52 L 166.35 131.12 C 165.59 131.72 165.46 132.82 166.07 133.58 C 166.67 134.35 167.77 134.47 168.53 133.87 Z M 169.25 133.24 L 169.99 132.66 C 170.73 132.08 170.86 131.01 170.28 130.27 C 169.70 129.53 168.63 129.40 167.89 129.98 L 167.14 130.56 C 166.40 131.14 166.27 132.21 166.85 132.95 C 167.44 133.69 168.51 133.82 169.25 133.24 Z M 169.95 132.63 L 170.77 132.00 C 171.50 131.44 171.64 130.40 171.08 129.67 C 170.52 128.95 169.48 128.81 168.75 129.37 L 167.93 130.00 C 167.20 130.56 167.07 131.60 167.63 132.33 C 168.18 133.05 169.23 133.19 169.95 132.63 Z M 170.74 131.98 L 171.52 131.39 C 172.23 130.85 172.38 129.84 171.84 129.12 C 171.30 128.41 170.28 128.26 169.57 128.80 L 168.79 129.39 C 168.07 129.93 167.93 130.95 168.47 131.66 C 169.01 132.38 170.03 132.52 170.74 131.98 Z M 171.49 131.37 L 172.06 130.94 C 172.76 130.42 172.91 129.42 172.38 128.72 C 171.85 128.02 170.86 127.88 170.16 128.40 L 169.59 128.83 C 168.89 129.35 168.75 130.35 169.27 131.05 C 169.80 131.75 170.79 131.89 171.49 131.37 Z"
      fill="black"
      fill-rule="nonzero" /><path d="M 148.64 152.46 L 148.62 153.40 C 148.59 154.34 149.33 155.13 150.28 155.16 C 151.23 155.19 152.02 154.44 152.05 153.50 L 152.07 152.56 C 152.10 151.62 151.35 150.83 150.41 150.80 C 149.46 150.77 148.67 151.52 148.64 152.46 Z M 148.57 153.38 L 148.54 154.35 C 148.50 155.33 149.26 156.14 150.24 156.18 C 151.21 156.21 152.02 155.45 152.06 154.48 L 152.09 153.51 C 152.13 152.53 151.36 151.72 150.39 151.69 C 149.42 151.65 148.60 152.41 148.57 153.38 Z M 148.49 154.33 L 148.44 155.37 C 148.40 156.37 149.17 157.22 150.17 157.26 C 151.16 157.31 152.01 156.54 152.06 155.54 L 152.10 154.50 C 152.15 153.50 151.38 152.65 150.38 152.61 C 149.38 152.56 148.54 153.33 148.49 154.33 Z M 148.41 155.35 L 148.35 156.38 C 148.29 157.40 149.07 158.27 150.08 158.33 C 151.10 158.39 151.97 157.61 152.03 156.60 L 152.09 155.56 C 152.15 154.55 151.37 153.68 150.36 153.62 C 149.34 153.56 148.47 154.33 148.41 155.35 Z M 148.35 156.36 L 148.28 157.37 C 148.21 158.38 148.98 159.26 150.00 159.33 C 151.01 159.40 151.89 158.63 151.96 157.62 L 152.03 156.61 C 152.10 155.60 151.33 154.72 150.31 154.65 C 149.30 154.58 148.42 155.35 148.35 156.36 Z M 148.29 157.36 L 148.21 158.38 C 148.14 159.40 148.90 160.28 149.91 160.35 C 150.93 160.42 151.81 159.66 151.88 158.65 L 151.96 157.62 C 152.03 156.61 151.27 155.73 150.25 155.66 C 149.24 155.58 148.36 156.34 148.29 157.36 Z M 148.22 158.38 L 148.14 159.39 C 148.07 160.40 148.83 161.28 149.84 161.35 C 150.85 161.43 151.73 160.67 151.80 159.66 L 151.87 158.65 C 151.95 157.64 151.19 156.76 150.18 156.69 C 149.17 156.61 148.29 157.37 148.22 158.38 Z M 148.15 159.39 L 148.08 160.40 C 148.01 161.40 148.76 162.28 149.77 162.35 C 150.77 162.43 151.65 161.67 151.72 160.66 L 151.79 159.66 C 151.87 158.65 151.11 157.78 150.10 157.70 C 149.10 157.63 148.22 158.39 148.15 159.39 Z M 148.08 160.41 L 148.01 161.45 C 147.94 162.45 148.70 163.32 149.70 163.39 C 150.71 163.46 151.57 162.70 151.64 161.70 L 151.72 160.66 C 151.78 159.65 151.03 158.78 150.02 158.72 C 149.02 158.65 148.15 159.40 148.08 160.41 Z M 148.02 161.45 L 147.95 162.43 C 147.89 163.43 148.64 164.29 149.64 164.36 C 150.64 164.43 151.51 163.67 151.57 162.67 L 151.64 161.69 C 151.70 160.69 150.95 159.83 149.95 159.76 C 148.95 159.70 148.08 160.45 148.02 161.45 Z M 147.96 162.43 L 147.89 163.38 C 147.83 164.38 148.58 165.24 149.58 165.31 C 150.57 165.37 151.43 164.62 151.50 163.62 L 151.57 162.67 C 151.63 161.68 150.88 160.81 149.89 160.74 C 148.89 160.68 148.03 161.43 147.96 162.43 Z M 147.90 163.37 L 147.83 164.33 C 147.76 165.33 148.51 166.19 149.50 166.26 C 150.49 166.33 151.36 165.58 151.43 164.59 L 151.50 163.63 C 151.57 162.64 150.82 161.77 149.83 161.70 C 148.83 161.63 147.97 162.38 147.90 163.37 Z M 147.83 164.32 L 147.76 165.31 C 147.68 166.30 148.42 167.16 149.41 167.24 C 150.41 167.32 151.27 166.57 151.35 165.58 L 151.42 164.60 C 151.50 163.61 150.76 162.74 149.77 162.67 C 148.78 162.59 147.91 163.33 147.83 164.32 Z M 147.76 165.30 L 147.68 166.31 C 147.60 167.30 148.33 168.17 149.32 168.25 C 150.31 168.33 151.18 167.59 151.26 166.60 L 151.35 165.59 C 151.43 164.60 150.69 163.73 149.70 163.65 C 148.71 163.57 147.84 164.31 147.76 165.30 Z M 147.68 166.30 L 147.59 167.32 C 147.51 168.31 148.24 169.18 149.23 169.27 C 150.21 169.35 151.08 168.62 151.17 167.63 L 151.26 166.61 C 151.35 165.62 150.61 164.75 149.63 164.67 C 148.64 164.58 147.77 165.31 147.68 166.30 Z M 147.60 167.32 L 147.51 168.31 C 147.42 169.29 148.14 170.16 149.13 170.25 C 150.12 170.34 150.99 169.62 151.08 168.63 L 151.17 167.64 C 151.26 166.65 150.53 165.78 149.54 165.69 C 148.56 165.60 147.69 166.33 147.60 167.32 Z M 147.51 168.30 L 147.42 169.30 C 147.33 170.29 148.05 171.16 149.04 171.25 C 150.02 171.34 150.89 170.62 150.98 169.63 L 151.07 168.63 C 151.17 167.65 150.44 166.78 149.46 166.68 C 148.47 166.59 147.60 167.32 147.51 168.30 Z M 147.42 169.30 L 147.33 170.31 C 147.24 171.29 147.96 172.16 148.95 172.25 C 149.93 172.34 150.80 171.61 150.89 170.63 L 150.98 169.63 C 151.07 168.65 150.35 167.78 149.36 167.69 C 148.38 167.60 147.51 168.32 147.42 169.30 Z M 147.33 170.31 L 147.24 171.32 C 147.16 172.30 147.88 173.17 148.86 173.25 C 149.85 173.34 150.71 172.61 150.80 171.63 L 150.89 170.62 C 150.97 169.64 150.25 168.78 149.26 168.69 C 148.28 168.60 147.42 169.33 147.33 170.31 Z M 147.25 171.32 L 147.16 172.34 C 147.08 173.32 147.80 174.18 148.78 174.27 C 149.77 174.35 150.63 173.62 150.71 172.64 L 150.79 171.62 C 150.88 170.64 150.15 169.78 149.17 169.70 C 148.19 169.62 147.33 170.34 147.25 171.32 Z M 147.16 172.34 L 147.08 173.34 C 147.00 174.32 147.72 175.18 148.70 175.26 C 149.68 175.34 150.54 174.62 150.62 173.64 L 150.71 172.64 C 150.79 171.66 150.06 170.80 149.08 170.72 C 148.11 170.64 147.25 171.36 147.16 172.34 Z M 147.08 173.34 L 147.00 174.31 C 146.91 175.29 147.63 176.15 148.61 176.23 C 149.59 176.32 150.45 175.60 150.53 174.62 L 150.62 173.65 C 150.70 172.67 149.98 171.81 149.01 171.72 C 148.03 171.64 147.17 172.36 147.08 173.34 Z M 147.01 174.30 L 146.91 175.24 C 146.82 176.21 147.53 177.08 148.51 177.17 C 149.48 177.26 150.34 176.55 150.43 175.58 L 150.52 174.63 C 150.62 173.66 149.91 172.80 148.93 172.71 C 147.96 172.61 147.10 173.33 147.01 174.30 Z M 146.92 175.23 L 146.82 176.17 C 146.72 177.14 147.42 178.00 148.39 178.11 C 149.36 178.21 150.23 177.51 150.33 176.54 L 150.43 175.60 C 150.53 174.63 149.83 173.76 148.86 173.66 C 147.89 173.56 147.02 174.26 146.92 175.23 Z M 146.83 176.16 L 146.72 177.14 C 146.61 178.11 147.30 178.98 148.27 179.09 C 149.23 179.20 150.10 178.50 150.21 177.54 L 150.32 176.55 C 150.43 175.59 149.74 174.72 148.77 174.61 C 147.81 174.50 146.94 175.19 146.83 176.16 Z M 146.73 177.14 L 146.60 178.21 C 146.49 179.17 147.17 180.04 148.13 180.15 C 149.09 180.27 149.96 179.58 150.07 178.63 L 150.20 177.55 C 150.31 176.59 149.63 175.72 148.67 175.61 C 147.71 175.49 146.84 176.18 146.73 177.14 Z M 146.61 178.21 L 146.49 179.21 C 146.37 180.16 147.05 181.03 148.00 181.15 C 148.95 181.26 149.82 180.59 149.94 179.63 L 150.06 178.63 C 150.18 177.68 149.50 176.81 148.55 176.69 C 147.59 176.57 146.73 177.25 146.61 178.21 Z M 146.50 179.21 L 146.37 180.24 C 146.25 181.19 146.92 182.05 147.87 182.17 C 148.82 182.29 149.68 181.62 149.80 180.67 L 149.93 179.63 C 150.05 178.69 149.37 177.82 148.43 177.70 C 147.48 177.58 146.61 178.26 146.50 179.21 Z M 146.38 180.24 L 146.25 181.27 C 146.13 182.21 146.80 183.07 147.74 183.19 C 148.68 183.31 149.54 182.64 149.66 181.69 L 149.79 180.67 C 149.91 179.72 149.24 178.86 148.30 178.75 C 147.35 178.63 146.49 179.30 146.38 180.24 Z M 146.26 181.27 L 146.14 182.24 C 146.02 183.18 146.68 184.03 147.62 184.15 C 148.56 184.27 149.41 183.60 149.53 182.66 L 149.65 181.69 C 149.77 180.76 149.10 179.90 148.17 179.78 C 147.23 179.67 146.38 180.33 146.26 181.27 Z M 146.15 182.24 L 146.02 183.30 C 145.91 184.22 146.57 185.07 147.50 185.19 C 148.43 185.30 149.27 184.64 149.39 183.71 L 149.52 182.66 C 149.63 181.73 148.97 180.88 148.04 180.77 C 147.11 180.65 146.27 181.31 146.15 182.24 Z M 146.05 183.30 L 145.92 184.36 C 145.81 185.27 146.46 186.10 147.38 186.21 C 148.29 186.32 149.12 185.67 149.24 184.75 L 149.36 183.70 C 149.47 182.79 148.82 181.96 147.90 181.85 C 146.99 181.74 146.16 182.39 146.05 183.30 Z M 145.95 184.36 L 145.84 185.26 C 145.74 186.16 146.38 186.97 147.28 187.08 C 148.18 187.18 148.99 186.54 149.10 185.64 L 149.20 184.75 C 149.31 183.85 148.67 183.03 147.77 182.93 C 146.87 182.82 146.05 183.47 145.95 184.36 Z M 145.87 185.26 L 145.82 185.66 C 145.72 186.55 146.35 187.35 147.24 187.45 C 148.13 187.56 148.93 186.92 149.03 186.04 L 149.08 185.63 C 149.18 184.75 148.55 183.95 147.66 183.84 C 146.77 183.74 145.97 184.38 145.87 185.26 Z"
      fill="black"
      fill-rule="nonzero" /><path d="M 153.28 155.69 L 154.28 155.44 C 155.31 155.19 155.94 154.15 155.69 153.13 C 155.43 152.10 154.40 151.47 153.37 151.72 L 152.37 151.96 C 151.34 152.21 150.71 153.25 150.96 154.28 C 151.21 155.31 152.25 155.94 153.28 155.69 Z M 154.30 155.44 L 155.27 155.19 C 156.29 154.93 156.91 153.88 156.65 152.86 C 156.39 151.83 155.35 151.21 154.32 151.47 L 153.35 151.72 C 152.32 151.99 151.70 153.03 151.96 154.06 C 152.23 155.08 153.27 155.70 154.30 155.44 Z M 155.31 155.18 L 156.25 154.91 C 157.27 154.63 157.87 153.57 157.58 152.55 C 157.30 151.54 156.24 150.94 155.22 151.23 L 154.28 151.49 C 153.26 151.77 152.67 152.83 152.95 153.85 C 153.23 154.87 154.29 155.46 155.31 155.18 Z M 156.32 154.88 L 157.27 154.57 C 158.27 154.25 158.82 153.18 158.50 152.19 C 158.18 151.19 157.12 150.64 156.12 150.96 L 155.16 151.26 C 154.16 151.58 153.61 152.65 153.93 153.65 C 154.25 154.64 155.32 155.20 156.32 154.88 Z M 157.34 154.52 L 158.26 154.18 C 159.23 153.83 159.73 152.75 159.38 151.78 C 159.02 150.81 157.95 150.31 156.98 150.67 L 156.05 151.01 C 155.08 151.36 154.58 152.44 154.94 153.41 C 155.29 154.38 156.37 154.88 157.34 154.52 Z M 158.32 154.14 L 159.22 153.77 C 160.17 153.38 160.62 152.30 160.23 151.36 C 159.84 150.41 158.76 149.96 157.82 150.35 L 156.92 150.71 C 155.97 151.10 155.52 152.18 155.91 153.13 C 156.30 154.07 157.37 154.52 158.32 154.14 Z M 159.27 153.73 L 160.18 153.32 C 161.11 152.91 161.52 151.82 161.11 150.90 C 160.69 149.98 159.61 149.56 158.69 149.97 L 157.77 150.38 C 156.85 150.80 156.43 151.88 156.85 152.80 C 157.26 153.73 158.34 154.14 159.27 153.73 Z M 160.22 153.29 L 161.14 152.85 C 162.04 152.41 162.42 151.32 161.99 150.42 C 161.55 149.51 160.46 149.13 159.56 149.57 L 158.65 150.01 C 157.74 150.45 157.36 151.53 157.80 152.44 C 158.23 153.34 159.32 153.72 160.22 153.29 Z M 161.17 152.82 L 162.03 152.38 C 162.92 151.92 163.27 150.83 162.82 149.94 C 162.37 149.06 161.28 148.70 160.39 149.16 L 159.52 149.60 C 158.64 150.05 158.28 151.14 158.74 152.03 C 159.19 152.92 160.28 153.27 161.17 152.82 Z M 162.06 152.35 L 162.95 151.88 C 163.83 151.41 164.16 150.32 163.69 149.44 C 163.22 148.57 162.13 148.24 161.26 148.70 L 160.36 149.18 C 159.49 149.65 159.16 150.74 159.63 151.61 C 160.09 152.49 161.18 152.82 162.06 152.35 Z M 162.97 151.86 L 163.87 151.36 C 164.74 150.88 165.06 149.79 164.58 148.93 C 164.10 148.06 163.01 147.75 162.15 148.22 L 161.24 148.72 C 160.37 149.20 160.06 150.29 160.54 151.15 C 161.01 152.02 162.10 152.33 162.97 151.86 Z M 163.87 151.35 L 164.77 150.86 C 165.64 150.39 165.95 149.30 165.48 148.44 C 165.00 147.57 163.92 147.26 163.05 147.73 L 162.15 148.23 C 161.29 148.70 160.97 149.79 161.45 150.65 C 161.92 151.51 163.01 151.83 163.87 151.35 Z M 164.73 150.88 L 165.62 150.42 C 166.49 149.97 166.84 148.90 166.39 148.02 C 165.94 147.15 164.86 146.80 163.99 147.25 L 163.10 147.71 C 162.22 148.16 161.88 149.24 162.33 150.11 C 162.78 150.99 163.86 151.33 164.73 150.88 Z M 165.51 150.47 L 166.48 150.05 C 167.39 149.66 167.80 148.61 167.41 147.71 C 167.02 146.80 165.97 146.39 165.07 146.78 L 164.09 147.20 C 163.19 147.59 162.77 148.64 163.17 149.55 C 163.56 150.45 164.61 150.86 165.51 150.47 Z M 166.07 150.19 L 167.06 150.02 C 168.04 149.86 168.70 148.94 168.54 147.96 C 168.37 146.98 167.45 146.32 166.47 146.48 L 165.48 146.64 C 164.51 146.80 163.84 147.73 164.00 148.71 C 164.17 149.69 165.09 150.35 166.07 150.19 Z M 165.69 149.72 L 166.28 150.15 C 167.09 150.74 168.22 150.57 168.82 149.76 C 169.41 148.95 169.24 147.81 168.43 147.22 L 167.84 146.79 C 167.03 146.19 165.89 146.37 165.30 147.18 C 164.70 147.99 164.88 149.12 165.69 149.72 Z M 165.57 149.17 L 165.78 149.93 C 166.05 150.91 167.06 151.49 168.05 151.22 C 169.03 150.95 169.61 149.93 169.34 148.95 L 169.13 148.19 C 168.86 147.21 167.85 146.63 166.86 146.90 C 165.88 147.17 165.30 148.19 165.57 149.17 Z M 165.68 149.52 L 165.72 150.58 C 165.77 151.62 166.65 152.43 167.69 152.38 C 168.73 152.34 169.53 151.46 169.49 150.42 L 169.44 149.36 C 169.40 148.32 168.52 147.51 167.48 147.56 C 166.44 147.60 165.63 148.48 165.68 149.52 Z M 165.69 150.39 L 165.61 151.63 C 165.55 152.69 166.36 153.60 167.41 153.66 C 168.47 153.72 169.38 152.92 169.45 151.86 L 169.52 150.62 C 169.58 149.56 168.78 148.65 167.72 148.59 C 166.66 148.52 165.75 149.33 165.69 150.39 Z M 165.60 151.53 L 165.49 152.55 C 165.37 153.62 166.14 154.58 167.21 154.69 C 168.28 154.81 169.24 154.04 169.35 152.97 L 169.46 151.96 C 169.58 150.89 168.81 149.93 167.74 149.81 C 166.67 149.69 165.71 150.47 165.60 151.53 Z M 165.47 152.50 L 165.34 153.54 C 165.19 154.62 165.95 155.61 167.03 155.75 C 168.10 155.89 169.09 155.13 169.23 154.06 L 169.37 153.02 C 169.51 151.94 168.75 150.95 167.68 150.81 C 166.60 150.67 165.61 151.43 165.47 152.50 Z M 165.32 153.52 L 165.17 154.53 C 165.02 155.61 165.77 156.62 166.85 156.78 C 167.94 156.93 168.94 156.18 169.10 155.10 L 169.25 154.08 C 169.40 153.00 168.65 151.99 167.57 151.84 C 166.48 151.68 165.48 152.43 165.32 153.52 Z M 165.15 154.52 L 165.02 155.46 C 164.86 156.55 165.61 157.57 166.71 157.73 C 167.80 157.89 168.82 157.13 168.98 156.04 L 169.12 155.10 C 169.28 154.01 168.52 152.99 167.43 152.83 C 166.33 152.67 165.32 153.43 165.15 154.52 Z M 165.00 155.48 L 164.85 156.57 C 164.71 157.67 165.48 158.69 166.59 158.84 C 167.69 158.98 168.70 158.21 168.85 157.10 L 169.00 156.02 C 169.15 154.91 168.37 153.90 167.27 153.75 C 166.16 153.60 165.15 154.38 165.00 155.48 Z M 164.84 156.62 L 164.73 157.60 C 164.61 158.72 165.41 159.72 166.53 159.84 C 167.64 159.96 168.64 159.15 168.76 158.04 L 168.87 157.06 C 168.99 155.94 168.18 154.94 167.07 154.82 C 165.96 154.70 164.96 155.51 164.84 156.62 Z M 164.72 157.65 L 164.65 158.54 C 164.55 159.65 165.38 160.64 166.50 160.73 C 167.62 160.83 168.60 160.00 168.69 158.88 L 168.77 158.00 C 168.87 156.88 168.04 155.89 166.92 155.80 C 165.80 155.70 164.82 156.53 164.72 157.65 Z M 164.64 158.56 L 164.57 159.48 C 164.49 160.60 165.33 161.58 166.45 161.66 C 167.57 161.74 168.55 160.90 168.63 159.78 L 168.70 158.86 C 168.79 157.74 167.94 156.76 166.82 156.68 C 165.70 156.59 164.72 157.44 164.64 158.56 Z M 164.56 159.50 L 164.50 160.48 C 164.42 161.61 165.28 162.58 166.40 162.66 C 167.53 162.73 168.50 161.88 168.58 160.75 L 168.64 159.76 C 168.72 158.63 167.86 157.66 166.73 157.59 C 165.61 157.51 164.64 158.37 164.56 159.50 Z M 164.49 160.51 L 164.43 161.58 C 164.37 162.71 165.24 163.67 166.37 163.73 C 167.50 163.79 168.47 162.92 168.53 161.79 L 168.59 160.73 C 168.64 159.59 167.78 158.63 166.65 158.57 C 165.51 158.51 164.55 159.38 164.49 160.51 Z M 164.43 161.60 L 164.39 162.57 C 164.34 163.70 165.23 164.66 166.36 164.70 C 167.50 164.75 168.45 163.87 168.50 162.73 L 168.54 161.76 C 168.58 160.63 167.70 159.67 166.56 159.63 C 165.43 159.58 164.47 160.47 164.43 161.60 Z M 164.38 162.59 L 164.35 163.59 C 164.32 164.73 165.22 165.68 166.35 165.71 C 167.49 165.75 168.44 164.85 168.48 163.71 L 168.50 162.71 C 168.54 161.57 167.64 160.62 166.50 160.59 C 165.36 160.55 164.41 161.45 164.38 162.59 Z M 164.35 163.61 L 164.33 164.63 C 164.30 165.77 165.21 166.72 166.35 166.74 C 167.49 166.77 168.44 165.86 168.46 164.72 L 168.48 163.69 C 168.51 162.55 167.60 161.61 166.46 161.58 C 165.31 161.56 164.37 162.47 164.35 163.61 Z M 164.32 164.65 L 164.31 165.65 C 164.29 166.80 165.21 167.74 166.36 167.75 C 167.50 167.77 168.44 166.85 168.45 165.71 L 168.47 164.70 C 168.48 163.55 167.56 162.62 166.42 162.60 C 165.27 162.59 164.33 163.50 164.32 164.65 Z M 164.31 165.67 L 164.30 166.66 C 164.29 167.81 165.22 168.74 166.36 168.75 C 167.51 168.76 168.44 167.83 168.45 166.68 L 168.46 165.69 C 168.46 164.55 167.54 163.61 166.39 163.60 C 165.25 163.60 164.31 164.52 164.31 165.67 Z M 164.30 166.67 L 164.30 167.67 C 164.29 168.82 165.22 169.75 166.37 169.75 C 167.52 169.75 168.45 168.82 168.45 167.68 L 168.45 166.68 C 168.46 165.53 167.53 164.60 166.38 164.59 C 165.23 164.59 164.30 165.52 164.30 166.67 Z M 164.29 167.67 L 164.29 168.68 C 164.29 169.83 165.22 170.76 166.37 170.76 C 167.52 170.76 168.45 169.83 168.45 168.68 L 168.45 167.67 C 168.45 166.52 167.52 165.59 166.37 165.59 C 165.23 165.59 164.29 166.52 164.29 167.67 Z M 164.29 168.68 L 164.29 169.67 C 164.29 170.82 165.22 171.75 166.37 171.75 C 167.52 171.75 168.45 170.82 168.45 169.67 L 168.45 168.68 C 168.45 167.53 167.52 166.60 166.37 166.60 C 165.22 166.60 164.29 167.53 164.29 168.68 Z M 164.29 169.67 L 164.29 170.67 C 164.29 171.82 165.22 172.75 166.37 172.75 C 167.52 172.75 168.46 171.82 168.46 170.67 L 168.46 169.67 C 168.46 168.52 167.52 167.59 166.37 167.59 C 165.22 167.59 164.29 168.52 164.29 169.67 Z M 164.29 170.67 L 164.29 171.68 C 164.29 172.83 165.22 173.76 166.37 173.76 C 167.52 173.76 168.46 172.83 168.46 171.68 L 168.46 170.67 C 168.46 169.52 167.52 168.59 166.37 168.59 C 165.22 168.59 164.29 169.52 164.29 170.67 Z M 164.29 171.68 L 164.29 172.69 C 164.29 173.84 165.22 174.78 166.37 174.78 C 167.52 174.78 168.46 173.84 168.46 172.69 L 168.46 171.68 C 168.46 170.53 167.52 169.60 166.37 169.60 C 165.22 169.60 164.29 170.53 164.29 171.68 Z M 164.29 172.69 L 164.29 173.71 C 164.29 174.86 165.22 175.79 166.37 175.79 C 167.52 175.79 168.46 174.86 168.46 173.71 L 168.46 172.69 C 168.46 171.54 167.52 170.61 166.37 170.61 C 165.22 170.61 164.29 171.54 164.29 172.69 Z M 164.29 173.71 L 164.29 174.71 C 164.29 175.86 165.22 176.79 166.37 176.79 C 167.52 176.79 168.45 175.86 168.45 174.71 L 168.45 173.71 C 168.45 172.56 167.52 171.63 166.37 171.63 C 165.22 171.63 164.29 172.56 164.29 173.71 Z M 164.29 174.71 L 164.29 175.69 C 164.29 176.84 165.23 177.77 166.37 177.77 C 167.52 177.77 168.45 176.84 168.45 175.69 L 168.45 174.71 C 168.45 173.56 167.52 172.63 166.37 172.63 C 165.23 172.63 164.29 173.56 164.29 174.71 Z M 164.30 175.69 L 164.30 176.72 C 164.30 177.87 165.23 178.80 166.37 178.80 C 167.52 178.80 168.45 177.87 168.45 176.72 L 168.45 175.69 C 168.45 174.54 167.52 173.61 166.37 173.61 C 165.23 173.61 164.30 174.54 164.30 175.69 Z M 164.30 176.72 L 164.30 177.73 C 164.30 178.87 165.23 179.80 166.37 179.80 C 167.52 179.80 168.44 178.87 168.44 177.73 L 168.44 176.72 C 168.44 175.58 167.52 174.65 166.37 174.65 C 165.23 174.65 164.30 175.58 164.30 176.72 Z M 164.31 177.73 L 164.31 178.71 C 164.31 179.85 165.23 180.77 166.37 180.77 C 167.52 180.77 168.44 179.85 168.44 178.71 L 168.44 177.73 C 168.44 176.59 167.52 175.66 166.37 175.66 C 165.23 175.66 164.31 176.59 164.31 177.73 Z M 164.31 178.71 L 164.31 179.71 C 164.31 180.85 165.24 181.77 166.37 181.77 C 167.51 181.77 168.44 180.85 168.43 179.71 L 168.43 178.71 C 168.43 177.57 167.51 176.65 166.37 176.65 C 165.23 176.65 164.31 177.57 164.31 178.71 Z M 164.32 179.72 L 164.33 180.73 C 164.33 181.87 165.25 182.78 166.39 182.78 C 167.52 182.77 168.43 181.85 168.43 180.72 L 168.42 179.70 C 168.42 178.57 167.50 177.65 166.36 177.66 C 165.23 177.66 164.32 178.59 164.32 179.72 Z M 164.34 180.76 L 164.36 181.74 C 164.37 182.86 165.30 183.76 166.43 183.74 C 167.55 183.72 168.45 182.80 168.43 181.67 L 168.42 180.69 C 168.40 179.57 167.47 178.67 166.34 178.69 C 165.22 178.71 164.32 179.63 164.34 180.76 Z M 164.37 181.78 L 164.41 182.76 C 164.46 183.88 165.40 184.75 166.51 184.70 C 167.63 184.66 168.50 183.72 168.45 182.60 L 168.41 181.62 C 168.37 180.51 167.43 179.64 166.31 179.68 C 165.20 179.73 164.33 180.67 164.37 181.78 Z M 164.45 182.87 L 164.54 183.85 C 164.64 184.95 165.61 185.76 166.71 185.66 C 167.81 185.55 168.61 184.58 168.51 183.49 L 168.42 182.50 C 168.32 181.40 167.35 180.60 166.25 180.70 C 165.15 180.80 164.34 181.77 164.45 182.87 Z M 164.59 184.04 L 164.78 185.02 C 164.98 186.09 166.01 186.79 167.08 186.59 C 168.14 186.38 168.84 185.35 168.64 184.29 L 168.45 183.30 C 168.25 182.24 167.22 181.54 166.16 181.74 C 165.09 181.94 164.39 182.97 164.59 184.04 Z M 164.88 185.26 L 165.21 186.29 C 165.55 187.30 166.64 187.85 167.65 187.52 C 168.67 187.19 169.22 186.09 168.89 185.08 L 168.55 184.05 C 168.22 183.04 167.12 182.49 166.11 182.82 C 165.09 183.15 164.54 184.24 164.88 185.26 Z M 165.38 186.58 L 165.86 187.48 C 166.36 188.41 167.51 188.75 168.43 188.26 C 169.36 187.76 169.70 186.61 169.21 185.68 L 168.72 184.78 C 168.22 183.86 167.07 183.51 166.15 184.01 C 165.23 184.51 164.88 185.66 165.38 186.58 Z M 166.29 187.96 L 166.94 188.55 C 167.70 189.24 168.87 189.18 169.56 188.42 C 170.25 187.66 170.19 186.48 169.43 185.80 L 168.78 185.21 C 168.02 184.52 166.85 184.58 166.16 185.34 C 165.47 186.10 165.53 187.27 166.29 187.96 Z M 167.98 188.93 L 168.92 189.04 C 169.89 189.15 170.77 188.45 170.88 187.48 C 170.99 186.51 170.29 185.63 169.32 185.52 L 168.38 185.42 C 167.41 185.31 166.54 186.00 166.43 186.97 C 166.32 187.94 167.01 188.82 167.98 188.93 Z M 169.48 188.89 L 170.35 188.70 C 171.24 188.50 171.80 187.61 171.60 186.72 C 171.40 185.83 170.51 185.27 169.62 185.47 L 168.76 185.67 C 167.86 185.87 167.31 186.75 167.51 187.64 C 167.71 188.53 168.59 189.09 169.48 188.89 Z"
      fill="black"
      fill-rule="nonzero" /><path d="M 151.18 173.23 L 152.15 172.92 C 153.08 172.63 153.59 171.64 153.30 170.71 C 153.00 169.78 152.01 169.26 151.08 169.56 L 150.11 169.87 C 149.18 170.16 148.67 171.15 148.96 172.08 C 149.26 173.01 150.25 173.52 151.18 173.23 Z M 152.21 172.99 L 153.16 172.66 C 154.12 172.34 154.64 171.29 154.31 170.33 C 153.98 169.36 152.94 168.85 151.97 169.17 L 151.02 169.50 C 150.06 169.82 149.54 170.87 149.87 171.83 C 150.20 172.80 151.24 173.31 152.21 172.99 Z M 153.26 172.71 L 154.17 172.36 C 155.16 171.97 155.65 170.86 155.27 169.87 C 154.89 168.88 153.78 168.39 152.79 168.77 L 151.87 169.13 C 150.89 169.51 150.39 170.62 150.78 171.61 C 151.16 172.60 152.27 173.09 153.26 172.71 Z M 154.29 172.34 L 155.12 171.96 C 156.10 171.51 156.53 170.35 156.08 169.38 C 155.63 168.40 154.47 167.97 153.50 168.41 L 152.67 168.79 C 151.69 169.24 151.26 170.40 151.71 171.37 C 152.16 172.35 153.31 172.78 154.29 172.34 Z M 155.19 171.89 L 156.03 171.46 C 156.97 170.97 157.34 169.81 156.85 168.87 C 156.36 167.93 155.20 167.56 154.26 168.05 L 153.42 168.48 C 152.48 168.97 152.11 170.13 152.60 171.07 C 153.09 172.01 154.25 172.38 155.19 171.89 Z M 156.05 171.41 L 156.98 170.90 C 157.90 170.39 158.23 169.24 157.73 168.33 C 157.22 167.42 156.08 167.08 155.16 167.59 L 154.23 168.10 C 153.32 168.60 152.98 169.75 153.49 170.66 C 153.99 171.58 155.14 171.91 156.05 171.41 Z M 156.97 170.87 L 157.89 170.36 C 158.79 169.86 159.11 168.73 158.62 167.83 C 158.12 166.94 156.99 166.61 156.09 167.11 L 155.17 167.62 C 154.28 168.11 153.95 169.24 154.45 170.14 C 154.94 171.04 156.07 171.36 156.97 170.87 Z M 157.87 170.33 L 158.76 169.85 C 159.64 169.36 159.96 168.25 159.48 167.37 C 158.99 166.48 157.88 166.16 157.00 166.65 L 156.11 167.13 C 155.23 167.62 154.91 168.73 155.39 169.61 C 155.88 170.49 156.99 170.82 157.87 170.33 Z M 158.74 169.82 L 159.66 169.32 C 160.53 168.85 160.85 167.75 160.37 166.88 C 159.90 166.01 158.80 165.69 157.93 166.17 L 157.02 166.67 C 156.15 167.15 155.83 168.24 156.30 169.11 C 156.78 169.98 157.87 170.30 158.74 169.82 Z M 159.64 169.30 L 160.54 168.80 C 161.40 168.34 161.71 167.26 161.25 166.41 C 160.78 165.55 159.70 165.23 158.85 165.70 L 157.95 166.19 C 157.09 166.66 156.78 167.73 157.24 168.59 C 157.71 169.45 158.78 169.76 159.64 169.30 Z M 160.53 168.78 L 161.37 168.32 C 162.22 167.86 162.53 166.80 162.07 165.96 C 161.61 165.12 160.55 164.81 159.71 165.27 L 158.86 165.73 C 158.02 166.19 157.71 167.24 158.17 168.09 C 158.63 168.93 159.69 169.24 160.53 168.78 Z M 161.36 168.28 L 162.37 167.72 C 163.19 167.27 163.49 166.24 163.04 165.42 C 162.59 164.60 161.56 164.30 160.74 164.75 L 159.72 165.30 C 158.90 165.76 158.60 166.79 159.05 167.61 C 159.51 168.43 160.54 168.73 161.36 168.28 Z M 162.35 167.68 L 163.20 167.21 C 163.99 166.77 164.28 165.76 163.84 164.97 C 163.40 164.17 162.40 163.89 161.61 164.33 L 160.76 164.80 C 159.96 165.24 159.67 166.24 160.11 167.03 C 160.55 167.83 161.55 168.12 162.35 167.68 Z M 163.18 167.16 L 163.94 166.73 C 164.71 166.31 164.99 165.34 164.56 164.57 C 164.13 163.80 163.16 163.52 162.39 163.95 L 161.63 164.37 C 160.86 164.80 160.58 165.77 161.01 166.54 C 161.44 167.31 162.41 167.59 163.18 167.16 Z M 163.93 166.71 L 164.01 166.67 C 164.76 166.25 165.03 165.29 164.61 164.54 C 164.19 163.78 163.24 163.51 162.48 163.93 L 162.41 163.97 C 161.65 164.39 161.38 165.35 161.80 166.10 C 162.22 166.86 163.17 167.13 163.93 166.71 Z"
      fill="black"
      fill-rule="nonzero" /><path d="M 150.04 188.49 L 151.01 188.79 C 151.94 189.07 152.93 188.55 153.21 187.61 C 153.50 186.68 152.97 185.69 152.04 185.40 L 151.07 185.11 C 150.13 184.82 149.15 185.35 148.86 186.29 C 148.58 187.22 149.10 188.21 150.04 188.49 Z M 151.14 188.96 L 152.11 189.16 C 153.14 189.37 154.15 188.71 154.36 187.68 C 154.57 186.66 153.91 185.65 152.88 185.43 L 151.91 185.23 C 150.88 185.02 149.87 185.68 149.66 186.71 C 149.45 187.74 150.11 188.75 151.14 188.96 Z M 152.45 189.31 L 153.39 189.33 C 154.50 189.36 155.43 188.48 155.45 187.36 C 155.47 186.25 154.59 185.33 153.48 185.30 L 152.54 185.28 C 151.43 185.26 150.50 186.14 150.48 187.25 C 150.46 188.37 151.34 189.29 152.45 189.31 Z M 153.81 189.34 L 154.65 189.18 C 155.77 188.97 156.51 187.90 156.30 186.78 C 156.09 185.67 155.01 184.93 153.90 185.14 L 153.06 185.30 C 151.94 185.51 151.20 186.58 151.41 187.70 C 151.62 188.81 152.70 189.55 153.81 189.34 Z M 154.92 189.10 L 155.85 188.79 C 156.92 188.43 157.50 187.28 157.15 186.21 C 156.80 185.14 155.64 184.56 154.57 184.91 L 153.64 185.22 C 152.57 185.58 151.99 186.73 152.34 187.80 C 152.69 188.87 153.85 189.45 154.92 189.10 Z M 155.97 188.73 L 157.07 188.28 C 158.11 187.86 158.60 186.68 158.18 185.64 C 157.76 184.61 156.58 184.11 155.55 184.53 L 154.45 184.98 C 153.42 185.40 152.92 186.58 153.34 187.61 C 153.76 188.65 154.94 189.15 155.97 188.73 Z M 157.10 188.24 L 157.96 187.87 C 158.97 187.44 159.44 186.26 159.01 185.25 C 158.57 184.23 157.40 183.76 156.38 184.20 L 155.52 184.57 C 154.51 185.00 154.04 186.18 154.47 187.19 C 154.91 188.21 156.08 188.68 157.10 188.24 Z M 157.96 187.84 L 158.87 187.44 C 159.86 187.01 160.32 185.85 159.88 184.85 C 159.45 183.86 158.29 183.40 157.29 183.84 L 156.38 184.23 C 155.39 184.67 154.93 185.83 155.37 186.82 C 155.80 187.82 156.96 188.27 157.96 187.84 Z M 158.87 187.41 L 159.81 186.99 C 160.79 186.55 161.23 185.41 160.79 184.43 C 160.36 183.46 159.21 183.02 158.24 183.45 L 157.29 183.87 C 156.32 184.31 155.88 185.45 156.31 186.43 C 156.74 187.40 157.89 187.84 158.87 187.41 Z M 159.81 186.95 L 160.76 186.53 C 161.71 186.09 162.14 184.97 161.71 184.01 C 161.28 183.05 160.15 182.62 159.19 183.06 L 158.24 183.48 C 157.28 183.92 156.86 185.04 157.29 186.00 C 157.72 186.96 158.85 187.39 159.81 186.95 Z M 160.75 186.49 L 161.68 186.07 C 162.62 185.64 163.03 184.53 162.60 183.59 C 162.17 182.65 161.06 182.24 160.12 182.67 L 159.19 183.09 C 158.26 183.52 157.84 184.63 158.27 185.57 C 158.70 186.51 159.81 186.92 160.75 186.49 Z M 161.67 186.02 L 162.65 185.57 C 163.56 185.14 163.96 184.05 163.53 183.14 C 163.10 182.23 162.02 181.83 161.11 182.26 L 160.13 182.71 C 159.21 183.14 158.82 184.22 159.24 185.14 C 159.67 186.05 160.75 186.45 161.67 186.02 Z M 162.63 185.51 L 163.56 185.07 C 164.44 184.65 164.82 183.60 164.40 182.72 C 163.98 181.83 162.93 181.46 162.05 181.88 L 161.12 182.32 C 160.24 182.73 159.86 183.79 160.28 184.67 C 160.70 185.55 161.75 185.92 162.63 185.51 Z M 163.54 185.01 L 164.42 184.58 C 165.27 184.18 165.63 183.16 165.22 182.31 C 164.81 181.46 163.79 181.11 162.95 181.51 L 162.07 181.94 C 161.22 182.34 160.86 183.36 161.27 184.21 C 161.68 185.06 162.69 185.41 163.54 185.01 Z M 164.40 184.52 L 165.25 184.11 C 166.07 183.72 166.41 182.73 166.01 181.92 C 165.62 181.10 164.63 180.76 163.82 181.16 L 162.97 181.57 C 162.15 181.97 161.81 182.95 162.21 183.76 C 162.60 184.58 163.58 184.92 164.40 184.52 Z M 165.23 184.07 L 165.66 183.86 C 166.45 183.48 166.78 182.52 166.39 181.73 C 166.01 180.94 165.06 180.61 164.26 181.00 L 163.84 181.20 C 163.05 181.59 162.72 182.54 163.10 183.33 C 163.49 184.12 164.44 184.45 165.23 184.07 Z"
      fill="black"
      fill-rule="nonzero" /></svg>