<svg xmlns="http://www.w3.org/2000/svg" width="300" height="300" viewBox="0 0 300 300">
<path d="M 135.65 124.53 L 134.39 124.83 C 133.44 125.05 132.85 126.00 133.07 126.95 C 133.29 127.90 134.24 128.49 135.19 128.26 L 136.45 127.97 C 137.40 127.75 137.99 126.80 137.77 125.85 C 137.55 124.90 136.60 124.31 135.65 124.53 Z M 134.30 124.69 L 133.55 124.88 C 132.52 125.15 131.91 126.21 132.19 127.24 C 132.46 128.26 133.51 128.87 134.54 128.60 L 135.28 128.40 C 136.31 128.13 136.92 127.08 136.65 126.05 C 136.38 125.02 135.32 124.41 134.30 124.69 Z M 134.21 128.76 L 134.64 128.73 C 135.76 128.64 136.59 127.66 136.50 126.54 C 136.41 125.42 135.43 124.59 134.31 124.69 L 133.88 124.72 C 132.76 124.81 131.93 125.79 132.02 126.91 C 132.12 128.02 133.09 128.86 134.21 128.76 Z M 135.02 128.70 L 136.24 128.37 C 137.34 128.07 137.99 126.94 137.69 125.83 C 137.39 124.73 136.25 124.08 135.15 124.38 L 133.94 124.71 C 132.83 125.01 132.18 126.15 132.48 127.25 C 132.78 128.35 133.92 129.00 135.02 128.70 Z M 136.40 128.34 L 137.35 128.00 C 138.43 127.61 138.99 126.42 138.60 125.33 C 138.22 124.25 137.02 123.69 135.94 124.07 L 134.99 124.41 C 133.91 124.80 133.34 126.00 133.73 127.08 C 134.12 128.16 135.31 128.73 136.40 128.34 Z M 137.41 127.98 L 138.37 127.60 C 139.44 127.18 139.97 125.97 139.55 124.89 C 139.12 123.82 137.91 123.29 136.83 123.71 L 135.87 124.09 C 134.80 124.51 134.27 125.73 134.70 126.80 C 135.12 127.88 136.34 128.41 137.41 127.98 Z M 138.40 127.60 L 139.35 127.21 C 140.43 126.77 140.94 125.54 140.50 124.47 C 140.06 123.40 138.83 122.88 137.76 123.32 L 136.80 123.72 C 135.73 124.16 135.22 125.38 135.66 126.45 C 136.10 127.53 137.32 128.04 138.40 127.60 Z M 139.37 127.21 L 140.28 126.83 C 141.35 126.38 141.86 125.15 141.41 124.08 C 140.97 123.00 139.74 122.50 138.66 122.94 L 137.75 123.32 C 136.68 123.77 136.17 125.00 136.62 126.07 C 137.06 127.15 138.29 127.65 139.37 127.21 Z M 140.29 126.83 L 141.17 126.45 C 142.24 126.00 142.75 124.77 142.29 123.70 C 141.84 122.62 140.61 122.12 139.54 122.57 L 138.66 122.94 C 137.58 123.40 137.08 124.63 137.53 125.70 C 137.98 126.77 139.22 127.28 140.29 126.83 Z M 141.18 126.45 L 142.08 126.07 C 143.15 125.62 143.65 124.38 143.19 123.31 C 142.74 122.24 141.50 121.74 140.43 122.19 L 139.53 122.57 C 138.46 123.03 137.96 124.27 138.41 125.34 C 138.87 126.41 140.11 126.91 141.18 126.45 Z M 142.09 126.07 L 143.02 125.67 C 144.09 125.21 144.58 123.97 144.12 122.90 C 143.66 121.83 142.42 121.33 141.35 121.79 L 140.42 122.20 C 139.35 122.66 138.86 123.90 139.32 124.97 C 139.78 126.03 141.02 126.53 142.09 126.07 Z M 143.03 125.66 L 143.95 125.26 C 145.01 124.79 145.50 123.55 145.03 122.48 C 144.57 121.42 143.32 120.93 142.26 121.40 L 141.34 121.80 C 140.27 122.27 139.79 123.51 140.26 124.58 C 140.72 125.64 141.97 126.13 143.03 125.66 Z M 143.96 125.26 L 144.86 124.86 C 145.93 124.38 146.41 123.14 145.94 122.07 C 145.47 121.01 144.22 120.53 143.16 121.00 L 142.25 121.40 C 141.18 121.87 140.70 123.12 141.17 124.18 C 141.65 125.25 142.89 125.73 143.96 125.26 Z M 144.86 124.86 L 145.80 124.44 C 146.86 123.97 147.34 122.73 146.87 121.66 C 146.40 120.60 145.15 120.11 144.09 120.59 L 143.16 121.00 C 142.09 121.47 141.61 122.72 142.08 123.78 C 142.55 124.85 143.80 125.33 144.86 124.86 Z M 145.79 124.44 L 146.68 124.06 C 147.74 123.59 148.22 122.34 147.76 121.28 C 147.29 120.21 146.04 119.73 144.98 120.20 L 144.09 120.59 C 143.03 121.05 142.54 122.30 143.01 123.36 C 143.48 124.43 144.73 124.91 145.79 124.44 Z M 146.68 124.05 L 147.59 123.65 C 148.65 123.18 149.14 121.93 148.67 120.87 C 148.20 119.81 146.95 119.33 145.89 119.80 L 144.98 120.20 C 143.91 120.67 143.43 121.91 143.90 122.98 C 144.37 124.04 145.61 124.52 146.68 124.05 Z M 147.60 123.64 L 148.55 123.21 C 149.61 122.74 150.08 121.49 149.60 120.43 C 149.13 119.37 147.88 118.90 146.82 119.38 L 145.88 119.80 C 144.82 120.28 144.34 121.53 144.82 122.59 C 145.30 123.65 146.54 124.12 147.60 123.64 Z M 148.56 123.20 L 149.46 122.79 C 150.52 122.30 150.98 121.06 150.49 120.00 C 150.00 118.95 148.76 118.49 147.70 118.97 L 146.80 119.39 C 145.75 119.88 145.29 121.12 145.78 122.18 C 146.26 123.23 147.51 123.69 148.56 123.20 Z M 149.47 122.78 L 150.38 122.35 C 151.43 121.86 151.89 120.62 151.40 119.57 C 150.91 118.52 149.66 118.07 148.61 118.56 L 147.70 118.98 C 146.65 119.47 146.19 120.72 146.68 121.77 C 147.17 122.82 148.42 123.27 149.47 122.78 Z M 150.38 122.35 L 151.29 121.93 C 152.34 121.44 152.79 120.19 152.30 119.15 C 151.81 118.10 150.57 117.65 149.52 118.13 L 148.61 118.56 C 147.56 119.05 147.11 120.29 147.60 121.34 C 148.09 122.39 149.34 122.84 150.38 122.35 Z M 151.28 121.93 L 152.21 121.50 C 153.25 121.02 153.71 119.78 153.23 118.73 C 152.74 117.68 151.50 117.22 150.46 117.71 L 149.53 118.13 C 148.48 118.62 148.03 119.86 148.51 120.91 C 148.99 121.95 150.23 122.41 151.28 121.93 Z M 152.19 121.50 L 153.10 121.09 C 154.15 120.61 154.61 119.38 154.14 118.33 C 153.66 117.28 152.43 116.82 151.38 117.29 L 150.47 117.71 C 149.42 118.18 148.96 119.42 149.43 120.46 C 149.91 121.51 151.14 121.98 152.19 121.50 Z M 153.09 121.09 L 153.99 120.69 C 155.04 120.22 155.51 118.99 155.04 117.95 C 154.57 116.90 153.34 116.43 152.30 116.89 L 151.40 117.29 C 150.35 117.76 149.88 118.99 150.34 120.04 C 150.81 121.09 152.04 121.56 153.09 121.09 Z M 153.97 120.69 L 154.89 120.29 C 155.94 119.83 156.42 118.61 155.96 117.56 C 155.50 116.51 154.28 116.03 153.23 116.49 L 152.31 116.89 C 151.26 117.35 150.78 118.57 151.24 119.62 C 151.70 120.67 152.92 121.15 153.97 120.69 Z M 154.88 120.28 L 155.80 119.88 C 156.85 119.43 157.33 118.21 156.88 117.17 C 156.42 116.12 155.21 115.64 154.16 116.09 L 153.24 116.49 C 152.19 116.95 151.71 118.16 152.17 119.21 C 152.62 120.26 153.84 120.74 154.88 120.28 Z M 155.80 119.88 L 156.71 119.48 C 157.75 119.03 158.23 117.82 157.78 116.77 C 157.33 115.73 156.11 115.25 155.07 115.71 L 154.16 116.10 C 153.12 116.55 152.64 117.77 153.09 118.81 C 153.55 119.85 154.76 120.33 155.80 119.88 Z M 156.72 119.47 L 157.65 119.06 C 158.69 118.61 159.16 117.40 158.70 116.36 C 158.25 115.32 157.04 114.85 156.00 115.31 L 155.07 115.72 C 154.03 116.17 153.56 117.38 154.01 118.42 C 154.47 119.46 155.68 119.93 156.72 119.47 Z M 157.65 119.05 L 158.56 118.65 C 159.60 118.20 160.07 116.99 159.61 115.96 C 159.16 114.93 157.96 114.46 156.93 114.91 L 156.01 115.32 C 154.98 115.77 154.51 116.97 154.96 118.00 C 155.41 119.03 156.61 119.50 157.65 119.05 Z M 158.55 118.64 L 159.44 118.26 C 160.47 117.82 160.95 116.62 160.51 115.59 C 160.07 114.56 158.87 114.09 157.84 114.53 L 156.94 114.92 C 155.91 115.36 155.44 116.55 155.88 117.58 C 156.32 118.61 157.52 119.09 158.55 118.64 Z M 159.41 118.26 L 160.38 117.86 C 161.40 117.44 161.90 116.26 161.47 115.23 C 161.05 114.20 159.87 113.71 158.84 114.13 L 157.88 114.53 C 156.85 114.95 156.36 116.13 156.78 117.16 C 157.20 118.19 158.38 118.68 159.41 118.26 Z M 160.35 117.86 L 161.26 117.50 C 162.29 117.09 162.79 115.92 162.38 114.89 C 161.97 113.86 160.80 113.36 159.77 113.77 L 158.86 114.14 C 157.84 114.55 157.34 115.71 157.75 116.74 C 158.16 117.77 159.32 118.27 160.35 117.86 Z M 161.24 117.49 L 162.18 117.12 C 163.20 116.72 163.70 115.57 163.30 114.54 C 162.90 113.52 161.75 113.02 160.72 113.42 L 159.79 113.78 C 158.77 114.18 158.26 115.34 158.66 116.36 C 159.07 117.38 160.22 117.89 161.24 117.49 Z M 162.15 117.11 L 163.08 116.76 C 164.10 116.38 164.61 115.24 164.22 114.22 C 163.84 113.20 162.70 112.69 161.68 113.07 L 160.75 113.42 C 159.73 113.81 159.22 114.95 159.60 115.97 C 159.99 116.99 161.13 117.50 162.15 117.11 Z M 163.02 116.76 L 163.95 116.44 C 164.97 116.09 165.51 114.97 165.16 113.95 C 164.80 112.93 163.69 112.39 162.67 112.75 L 161.74 113.07 C 160.72 113.42 160.18 114.54 160.53 115.56 C 160.88 116.58 162.00 117.12 163.02 116.76 Z M 163.85 116.45 L 164.81 116.17 C 165.84 115.86 166.42 114.79 166.12 113.77 C 165.82 112.74 164.75 112.16 163.72 112.46 L 162.76 112.74 C 161.74 113.04 161.15 114.12 161.46 115.14 C 161.76 116.16 162.83 116.75 163.85 116.45 Z M 164.65 116.18 L 165.72 115.96 C 166.75 115.75 167.41 114.75 167.21 113.72 C 167.00 112.69 165.99 112.02 164.96 112.23 L 163.89 112.45 C 162.86 112.65 162.19 113.66 162.40 114.69 C 162.61 115.72 163.61 116.39 164.65 116.18 Z M 164.82 115.90 L 165.62 116.13 C 166.61 116.41 167.65 115.84 167.94 114.85 C 168.22 113.85 167.65 112.81 166.66 112.53 L 165.86 112.30 C 164.87 112.01 163.83 112.58 163.54 113.58 C 163.25 114.57 163.83 115.61 164.82 115.90 Z M 164.33 114.27 L 164.30 115.02 C 164.27 116.02 165.06 116.85 166.06 116.88 C 167.06 116.91 167.89 116.13 167.92 115.13 L 167.95 114.38 C 167.98 113.38 167.19 112.55 166.19 112.52 C 165.19 112.48 164.36 113.27 164.33 114.27 Z M 164.49 114.51 L 164.13 115.57 C 163.81 116.46 164.29 117.44 165.18 117.75 C 166.08 118.06 167.06 117.59 167.37 116.69 L 167.74 115.64 C 168.05 114.74 167.57 113.76 166.68 113.45 C 165.78 113.14 164.81 113.61 164.49 114.51 Z M 164.22 115.51 L 164.05 115.93 C 163.71 116.78 164.12 117.74 164.96 118.08 C 165.81 118.42 166.77 118.01 167.11 117.17 L 167.28 116.75 C 167.62 115.90 167.21 114.94 166.36 114.60 C 165.52 114.26 164.56 114.67 164.22 115.51 Z"
      fill="black"
      fill-rule="nonzero" /><path d="M 132.81 141.48 L 133.23 142.32 C 133.68 143.19 134.74 143.54 135.62 143.10 C 136.49 142.66 136.84 141.59 136.40 140.72 L 135.97 139.88 C 135.53 139.00 134.47 138.65 133.59 139.09 C 132.72 139.53 132.37 140.60 132.81 141.48 Z M 133.22 142.32 L 133.66 143.21 C 134.10 144.09 135.18 144.45 136.06 144.01 C 136.94 143.57 137.30 142.49 136.86 141.61 L 136.42 140.72 C 135.98 139.84 134.90 139.48 134.02 139.92 C 133.13 140.36 132.77 141.43 133.22 142.32 Z M 133.64 143.20 L 134.10 144.15 C 134.54 145.04 135.62 145.41 136.52 144.97 C 137.41 144.53 137.78 143.45 137.34 142.56 L 136.88 141.62 C 136.44 140.72 135.36 140.35 134.47 140.79 C 133.57 141.23 133.20 142.31 133.64 143.20 Z M 134.09 144.13 L 134.52 145.03 C 134.95 145.93 136.03 146.31 136.93 145.88 C 137.83 145.45 138.22 144.37 137.78 143.47 L 137.35 142.57 C 136.92 141.67 135.84 141.29 134.94 141.72 C 134.04 142.15 133.66 143.23 134.09 144.13 Z M 134.52 145.01 L 134.95 145.94 C 135.37 146.85 136.45 147.24 137.35 146.81 C 138.25 146.39 138.64 145.32 138.22 144.41 L 137.79 143.48 C 137.37 142.58 136.29 142.19 135.39 142.61 C 134.48 143.04 134.09 144.11 134.52 145.01 Z M 134.94 145.92 L 135.35 146.83 C 135.76 147.74 136.83 148.14 137.74 147.73 C 138.65 147.32 139.05 146.25 138.64 145.34 L 138.23 144.43 C 137.82 143.52 136.75 143.12 135.84 143.53 C 134.93 143.94 134.53 145.01 134.94 145.92 Z M 135.35 146.80 L 135.76 147.74 C 136.15 148.65 137.21 149.07 138.12 148.68 C 139.03 148.28 139.45 147.23 139.05 146.32 L 138.64 145.37 C 138.25 144.46 137.19 144.04 136.28 144.44 C 135.37 144.83 134.96 145.89 135.35 146.80 Z M 135.77 147.72 L 136.15 148.62 C 136.53 149.53 137.57 149.95 138.48 149.57 C 139.38 149.19 139.81 148.15 139.43 147.25 L 139.04 146.34 C 138.66 145.44 137.62 145.01 136.72 145.39 C 135.81 145.77 135.39 146.81 135.77 147.72 Z M 136.17 148.62 L 136.55 149.53 C 136.93 150.42 137.96 150.84 138.86 150.46 C 139.75 150.08 140.17 149.05 139.79 148.15 L 139.41 147.25 C 139.03 146.36 138.00 145.94 137.10 146.32 C 136.21 146.70 135.79 147.73 136.17 148.62 Z M 136.59 149.54 L 137.00 150.48 C 137.39 151.36 138.41 151.75 139.29 151.37 C 140.16 150.98 140.56 149.96 140.17 149.08 L 139.76 148.14 C 139.37 147.26 138.35 146.87 137.47 147.26 C 136.60 147.64 136.20 148.67 136.59 149.54 Z M 137.05 150.51 L 137.49 151.44 C 137.89 152.29 138.91 152.65 139.76 152.24 C 140.61 151.84 140.97 150.82 140.57 149.97 L 140.13 149.05 C 139.72 148.20 138.70 147.84 137.86 148.24 C 137.01 148.65 136.65 149.67 137.05 150.51 Z M 137.55 151.49 L 138.01 152.34 C 138.44 153.16 139.46 153.46 140.27 153.03 C 141.09 152.59 141.39 151.57 140.96 150.76 L 140.50 149.91 C 140.07 149.10 139.05 148.79 138.24 149.23 C 137.42 149.66 137.12 150.68 137.55 151.49 Z M 138.10 152.44 L 138.68 153.33 C 139.17 154.09 140.19 154.31 140.95 153.82 C 141.71 153.33 141.93 152.31 141.43 151.55 L 140.86 150.66 C 140.37 149.90 139.35 149.68 138.59 150.17 C 137.83 150.66 137.61 151.68 138.10 152.44 Z M 138.78 153.41 L 139.35 154.15 C 139.88 154.86 140.88 155.00 141.59 154.47 C 142.29 153.93 142.43 152.93 141.90 152.22 L 141.33 151.47 C 140.80 150.77 139.80 150.63 139.09 151.16 C 138.39 151.70 138.25 152.70 138.78 153.41 Z M 139.38 154.16 L 139.45 154.25 C 139.99 154.94 140.98 155.06 141.67 154.52 C 142.35 153.98 142.48 152.99 141.94 152.31 L 141.87 152.21 C 141.33 151.53 140.33 151.41 139.65 151.95 C 138.96 152.48 138.84 153.48 139.38 154.16 Z"
      fill="black"
      fill-rule="nonzero" /><path d="M 141.15 141.31 L 141.38 140.30 C 141.59 139.37 141.01 138.44 140.08 138.22 C 139.14 138.01 138.21 138.59 138.00 139.53 L 137.77 140.54 C 137.55 141.47 138.14 142.40 139.07 142.61 C 140.00 142.83 140.93 142.24 141.15 141.31 Z M 141.42 140.54 L 141.75 139.62 C 142.10 138.67 141.61 137.61 140.65 137.27 C 139.70 136.92 138.64 137.41 138.30 138.37 L 137.96 139.28 C 137.61 140.24 138.11 141.30 139.06 141.64 C 140.02 141.99 141.07 141.50 141.42 140.54 Z M 141.58 140.10 L 142.11 139.35 C 142.72 138.49 142.51 137.30 141.65 136.69 C 140.80 136.08 139.61 136.29 139.00 137.15 L 138.47 137.90 C 137.86 138.75 138.07 139.94 138.92 140.55 C 139.78 141.16 140.97 140.95 141.58 140.10 Z M 141.81 139.69 L 142.56 139.04 C 143.36 138.34 143.44 137.13 142.75 136.33 C 142.05 135.54 140.84 135.45 140.04 136.15 L 139.30 136.80 C 138.50 137.50 138.41 138.71 139.11 139.51 C 139.81 140.30 141.02 140.39 141.81 139.69 Z M 142.43 139.13 L 143.28 138.51 C 144.13 137.89 144.31 136.69 143.69 135.84 C 143.06 134.99 141.86 134.81 141.01 135.43 L 140.17 136.05 C 139.32 136.68 139.14 137.88 139.76 138.73 C 140.39 139.58 141.58 139.76 142.43 139.13 Z M 143.26 138.52 L 144.09 137.93 C 144.94 137.31 145.14 136.12 144.52 135.27 C 143.91 134.41 142.72 134.22 141.87 134.83 L 141.04 135.42 C 140.18 136.04 139.99 137.23 140.60 138.08 C 141.21 138.94 142.40 139.13 143.26 138.52 Z M 144.06 137.93 L 144.89 137.35 C 145.75 136.75 145.96 135.57 145.36 134.71 C 144.76 133.85 143.58 133.64 142.72 134.24 L 141.89 134.82 C 141.03 135.43 140.82 136.61 141.42 137.46 C 142.02 138.32 143.21 138.53 144.06 137.93 Z M 144.86 137.36 L 145.72 136.78 C 146.58 136.20 146.81 135.03 146.23 134.16 C 145.65 133.30 144.48 133.07 143.62 133.65 L 142.75 134.23 C 141.89 134.81 141.66 135.99 142.24 136.85 C 142.82 137.71 144.00 137.94 144.86 137.36 Z M 145.68 136.79 L 146.51 136.25 C 147.37 135.70 147.62 134.54 147.07 133.67 C 146.51 132.81 145.35 132.56 144.48 133.11 L 143.66 133.64 C 142.79 134.20 142.54 135.36 143.10 136.23 C 143.66 137.09 144.81 137.34 145.68 136.79 Z M 146.49 136.25 L 147.29 135.74 C 148.15 135.19 148.41 134.05 147.86 133.18 C 147.31 132.32 146.16 132.06 145.30 132.61 L 144.50 133.12 C 143.64 133.67 143.38 134.81 143.93 135.68 C 144.48 136.54 145.62 136.80 146.49 136.25 Z M 147.28 135.73 L 148.12 135.20 C 148.98 134.65 149.23 133.51 148.68 132.65 C 148.14 131.80 147.00 131.54 146.14 132.09 L 145.31 132.62 C 144.45 133.17 144.20 134.31 144.74 135.16 C 145.29 136.02 146.43 136.27 147.28 135.73 Z M 148.09 135.20 L 148.96 134.67 C 149.82 134.14 150.09 133.01 149.56 132.15 C 149.03 131.28 147.90 131.02 147.03 131.55 L 146.17 132.08 C 145.31 132.61 145.04 133.74 145.57 134.61 C 146.10 135.47 147.23 135.74 148.09 135.20 Z M 148.92 134.68 L 149.77 134.18 C 150.64 133.67 150.94 132.55 150.43 131.68 C 149.92 130.81 148.80 130.52 147.93 131.03 L 147.07 131.53 C 146.20 132.04 145.91 133.16 146.42 134.03 C 146.93 134.90 148.05 135.19 148.92 134.68 Z M 149.75 134.19 L 150.63 133.69 C 151.50 133.19 151.80 132.08 151.31 131.21 C 150.81 130.33 149.70 130.03 148.82 130.53 L 147.95 131.03 C 147.08 131.53 146.77 132.64 147.27 133.51 C 147.77 134.38 148.88 134.69 149.75 134.19 Z M 150.62 133.68 L 151.50 133.19 C 152.37 132.69 152.67 131.59 152.18 130.72 C 151.68 129.85 150.58 129.54 149.70 130.04 L 148.83 130.53 C 147.96 131.03 147.65 132.13 148.15 133.01 C 148.64 133.88 149.75 134.18 150.62 133.68 Z M 151.49 133.18 L 152.36 132.69 C 153.23 132.20 153.54 131.10 153.05 130.23 C 152.55 129.36 151.45 129.05 150.58 129.55 L 149.71 130.04 C 148.84 130.53 148.54 131.63 149.03 132.50 C 149.52 133.37 150.62 133.67 151.49 133.18 Z M 152.34 132.69 L 153.22 132.21 C 154.09 131.73 154.40 130.63 153.92 129.76 C 153.44 128.90 152.34 128.58 151.48 129.06 L 150.60 129.54 C 149.73 130.02 149.42 131.12 149.90 131.99 C 150.38 132.86 151.48 133.17 152.34 132.69 Z M 153.19 132.21 L 154.07 131.74 C 154.94 131.27 155.26 130.19 154.80 129.32 C 154.33 128.45 153.25 128.12 152.38 128.59 L 151.50 129.06 C 150.63 129.53 150.31 130.61 150.77 131.48 C 151.24 132.35 152.32 132.67 153.19 132.21 Z M 154.05 131.73 L 154.93 131.27 C 155.80 130.81 156.13 129.74 155.68 128.87 C 155.22 128.01 154.15 127.68 153.29 128.13 L 152.40 128.60 C 151.53 129.05 151.20 130.12 151.66 130.99 C 152.11 131.85 153.18 132.19 154.05 131.73 Z M 154.92 131.26 L 155.75 130.83 C 156.62 130.38 156.95 129.32 156.50 128.45 C 156.05 127.59 154.99 127.26 154.13 127.70 L 153.30 128.14 C 152.44 128.59 152.10 129.65 152.55 130.51 C 153.00 131.37 154.06 131.71 154.92 131.26 Z M 155.72 130.84 L 156.61 130.40 C 157.48 129.97 157.83 128.91 157.40 128.04 C 156.97 127.18 155.91 126.82 155.04 127.26 L 154.16 127.70 C 153.29 128.13 152.94 129.18 153.37 130.05 C 153.80 130.92 154.85 131.27 155.72 130.84 Z M 156.55 130.42 L 157.53 129.97 C 158.40 129.57 158.79 128.53 158.39 127.65 C 157.99 126.78 156.95 126.39 156.07 126.79 L 155.10 127.23 C 154.22 127.64 153.83 128.68 154.24 129.55 C 154.64 130.43 155.68 130.82 156.55 130.42 Z M 157.47 129.99 L 158.40 129.60 C 159.29 129.23 159.70 128.21 159.33 127.32 C 158.96 126.43 157.94 126.01 157.05 126.38 L 156.12 126.77 C 155.23 127.14 154.82 128.17 155.19 129.06 C 155.56 129.95 156.58 130.36 157.47 129.99 Z M 158.36 129.62 L 159.31 129.25 C 160.21 128.90 160.65 127.88 160.30 126.99 C 159.95 126.09 158.94 125.65 158.05 126.00 L 157.09 126.37 C 156.19 126.72 155.75 127.73 156.10 128.63 C 156.45 129.53 157.46 129.97 158.36 129.62 Z M 159.27 129.26 L 160.20 128.92 C 161.10 128.59 161.57 127.59 161.24 126.69 C 160.91 125.79 159.91 125.32 159.01 125.65 L 158.08 125.98 C 157.18 126.31 156.71 127.31 157.04 128.22 C 157.37 129.12 158.37 129.59 159.27 129.26 Z M 160.14 128.94 L 161.19 128.60 C 162.10 128.30 162.60 127.32 162.30 126.40 C 162.01 125.49 161.02 124.99 160.11 125.29 L 159.06 125.63 C 158.15 125.93 157.65 126.91 157.95 127.82 C 158.25 128.74 159.23 129.24 160.14 128.94 Z M 161.10 128.62 L 162.03 128.37 C 162.96 128.13 163.51 127.18 163.26 126.25 C 163.02 125.32 162.07 124.77 161.14 125.02 L 160.20 125.27 C 159.28 125.51 158.73 126.46 158.97 127.39 C 159.22 128.32 160.17 128.87 161.10 128.62 Z M 161.88 128.42 L 162.87 128.24 C 163.82 128.08 164.46 127.18 164.29 126.22 C 164.12 125.27 163.22 124.64 162.27 124.80 L 161.29 124.97 C 160.34 125.14 159.70 126.04 159.87 126.99 C 160.03 127.94 160.93 128.58 161.88 128.42 Z M 162.38 128.30 L 163.34 128.40 C 164.32 128.50 165.20 127.79 165.30 126.81 C 165.41 125.83 164.70 124.95 163.72 124.85 L 162.76 124.75 C 161.78 124.65 160.90 125.36 160.80 126.34 C 160.69 127.32 161.40 128.19 162.38 128.30 Z M 162.03 127.68 L 162.47 128.31 C 163.05 129.14 164.20 129.34 165.03 128.75 C 165.86 128.17 166.06 127.02 165.47 126.19 L 165.03 125.57 C 164.45 124.74 163.30 124.54 162.47 125.12 C 161.64 125.71 161.44 126.85 162.03 127.68 Z M 162.07 127.27 L 162.08 128.30 C 162.10 129.35 162.95 130.19 164.00 130.18 C 165.05 130.16 165.89 129.31 165.88 128.26 L 165.86 127.23 C 165.85 126.18 164.99 125.34 163.95 125.35 C 162.90 125.36 162.06 126.22 162.07 127.27 Z M 162.08 127.89 L 161.86 128.93 C 161.65 129.98 162.32 131.01 163.37 131.22 C 164.42 131.44 165.45 130.76 165.67 129.71 L 165.88 128.67 C 166.10 127.62 165.42 126.60 164.37 126.38 C 163.32 126.16 162.29 126.84 162.08 127.89 Z M 161.88 128.74 L 161.59 129.69 C 161.27 130.73 161.86 131.84 162.89 132.15 C 163.93 132.47 165.04 131.89 165.36 130.85 L 165.65 129.90 C 165.97 128.86 165.38 127.76 164.34 127.44 C 163.31 127.12 162.20 127.70 161.88 128.74 Z M 161.60 129.60 L 161.25 130.57 C 160.88 131.60 161.42 132.74 162.45 133.11 C 163.48 133.49 164.62 132.95 164.99 131.92 L 165.34 130.95 C 165.72 129.91 165.18 128.77 164.15 128.40 C 163.11 128.03 161.98 128.57 161.60 129.60 Z M 161.25 130.52 L 160.93 131.37 C 160.53 132.41 161.05 133.56 162.08 133.96 C 163.11 134.36 164.27 133.84 164.67 132.81 L 164.99 131.96 C 165.39 130.93 164.87 129.77 163.84 129.37 C 162.81 128.98 161.65 129.49 161.25 130.52 Z M 160.92 131.36 L 160.60 132.19 C 160.20 133.23 160.72 134.39 161.75 134.79 C 162.79 135.19 163.95 134.68 164.35 133.64 L 164.67 132.82 C 165.07 131.78 164.56 130.62 163.52 130.22 C 162.49 129.82 161.32 130.33 160.92 131.36 Z M 160.59 132.20 L 160.23 133.15 C 159.84 134.19 160.37 135.36 161.41 135.75 C 162.45 136.14 163.61 135.62 164.00 134.58 L 164.36 133.63 C 164.76 132.59 164.23 131.43 163.19 131.03 C 162.15 130.64 160.99 131.16 160.59 132.20 Z M 160.22 133.18 L 159.81 134.29 C 159.43 135.34 159.98 136.50 161.02 136.88 C 162.07 137.26 163.23 136.72 163.61 135.67 L 164.02 134.55 C 164.40 133.51 163.86 132.35 162.81 131.97 C 161.76 131.59 160.60 132.13 160.22 133.18 Z M 159.80 134.31 L 159.50 135.19 C 159.13 136.25 159.68 137.40 160.73 137.77 C 161.79 138.14 162.94 137.59 163.31 136.53 L 163.62 135.65 C 163.99 134.60 163.44 133.45 162.38 133.08 C 161.33 132.71 160.17 133.26 159.80 134.31 Z M 159.49 135.20 L 159.16 136.16 C 158.80 137.22 159.36 138.37 160.41 138.73 C 161.47 139.10 162.62 138.54 162.99 137.48 L 163.32 136.53 C 163.68 135.47 163.12 134.32 162.07 133.95 C 161.01 133.59 159.86 134.15 159.49 135.20 Z M 159.16 136.16 L 158.82 137.16 C 158.45 138.21 159.02 139.37 160.07 139.73 C 161.13 140.09 162.28 139.53 162.65 138.47 L 162.99 137.48 C 163.35 136.42 162.79 135.27 161.73 134.91 C 160.67 134.54 159.52 135.11 159.16 136.16 Z M 158.82 137.15 L 158.48 138.14 C 158.11 139.20 158.67 140.35 159.73 140.72 C 160.79 141.08 161.94 140.52 162.30 139.46 L 162.65 138.48 C 163.01 137.42 162.45 136.27 161.39 135.90 C 160.33 135.54 159.18 136.10 158.82 137.15 Z M 158.48 138.14 L 158.15 139.08 C 157.78 140.13 158.34 141.29 159.39 141.66 C 160.45 142.03 161.61 141.47 161.97 140.41 L 162.30 139.47 C 162.67 138.41 162.11 137.26 161.06 136.89 C 160.00 136.52 158.85 137.08 158.48 138.14 Z M 158.15 139.06 L 157.79 140.08 C 157.42 141.13 157.97 142.29 159.02 142.67 C 160.07 143.04 161.23 142.49 161.61 141.44 L 161.97 140.43 C 162.35 139.37 161.80 138.21 160.74 137.84 C 159.69 137.46 158.53 138.01 158.15 139.06 Z M 157.80 140.05 L 157.43 141.05 C 157.05 142.10 157.58 143.26 158.63 143.65 C 159.68 144.04 160.84 143.50 161.23 142.46 L 161.60 141.46 C 161.99 140.41 161.45 139.25 160.40 138.86 C 159.35 138.47 158.19 139.01 157.80 140.05 Z M 157.44 141.03 L 157.10 141.93 C 156.70 142.97 157.22 144.14 158.26 144.54 C 159.31 144.94 160.47 144.42 160.87 143.37 L 161.22 142.48 C 161.62 141.44 161.10 140.27 160.06 139.87 C 159.01 139.47 157.84 139.99 157.44 141.03 Z M 157.11 141.91 L 156.77 142.76 C 156.37 143.80 156.88 144.97 157.91 145.38 C 158.95 145.79 160.12 145.28 160.53 144.24 L 160.87 143.39 C 161.27 142.35 160.76 141.18 159.73 140.77 C 158.69 140.36 157.52 140.87 157.11 141.91 Z M 156.78 142.76 L 156.42 143.66 C 156.01 144.69 156.52 145.86 157.55 146.27 C 158.58 146.68 159.75 146.18 160.16 145.15 L 160.52 144.25 C 160.93 143.21 160.43 142.04 159.40 141.63 C 158.36 141.22 157.19 141.72 156.78 142.76 Z M 156.43 143.66 L 156.05 144.62 C 155.64 145.65 156.14 146.82 157.17 147.23 C 158.19 147.64 159.36 147.14 159.77 146.11 L 160.15 145.14 C 160.56 144.12 160.06 142.95 159.04 142.54 C 158.01 142.13 156.84 142.63 156.43 143.66 Z M 156.06 144.62 L 155.68 145.57 C 155.27 146.59 155.76 147.75 156.78 148.16 C 157.80 148.57 158.96 148.08 159.37 147.06 L 159.75 146.11 C 160.17 145.09 159.67 143.93 158.65 143.52 C 157.63 143.11 156.47 143.60 156.06 144.62 Z M 155.70 145.57 L 155.33 146.46 C 154.92 147.47 155.40 148.62 156.41 149.04 C 157.42 149.45 158.58 148.97 158.99 147.96 L 159.35 147.07 C 159.77 146.06 159.29 144.90 158.28 144.49 C 157.26 144.07 156.11 144.56 155.70 145.57 Z M 155.37 146.45 L 154.95 147.43 C 154.53 148.42 155.00 149.56 155.99 149.98 C 156.98 150.40 158.12 149.94 158.54 148.95 L 158.95 147.97 C 159.37 146.98 158.91 145.83 157.92 145.42 C 156.93 145.00 155.79 145.46 155.37 146.45 Z M 155.02 147.43 L 154.62 148.35 C 154.20 149.30 154.63 150.41 155.58 150.83 C 156.53 151.25 157.65 150.82 158.07 149.87 L 158.47 148.95 C 158.89 148.00 158.46 146.88 157.50 146.46 C 156.55 146.05 155.44 146.48 155.02 147.43 Z M 154.69 148.36 L 154.32 149.18 C 153.90 150.09 154.31 151.16 155.22 151.58 C 156.13 151.99 157.21 151.59 157.62 150.68 L 157.99 149.86 C 158.41 148.94 158.00 147.87 157.09 147.45 C 156.18 147.04 155.10 147.44 154.69 148.36 Z"
      fill="black"
      fill-rule="nonzero" /><path d="M 144.41 149.56 L 145.15 148.94 C 145.89 148.31 145.99 147.20 145.36 146.45 C 144.73 145.71 143.61 145.62 142.87 146.25 L 142.13 146.87 C 141.39 147.50 141.30 148.61 141.93 149.36 C 142.56 150.10 143.67 150.19 144.41 149.56 Z M 145.15 149.03 L 145.92 148.42 C 146.72 147.79 146.85 146.64 146.22 145.85 C 145.60 145.05 144.44 144.92 143.65 145.54 L 142.87 146.16 C 142.08 146.78 141.94 147.94 142.57 148.73 C 143.20 149.52 144.35 149.66 145.15 149.03 Z M 145.87 148.54 L 146.72 147.95 C 147.59 147.35 147.80 146.17 147.20 145.30 C 146.60 144.44 145.42 144.23 144.56 144.83 L 143.70 145.42 C 142.84 146.02 142.63 147.20 143.23 148.06 C 143.82 148.93 145.01 149.14 145.87 148.54 Z M 146.63 148.04 L 147.44 147.56 C 148.35 147.01 148.65 145.83 148.11 144.92 C 147.56 144.01 146.38 143.71 145.47 144.25 L 144.66 144.73 C 143.74 145.28 143.44 146.46 143.99 147.37 C 144.53 148.29 145.71 148.58 146.63 148.04 Z M 147.36 147.58 L 148.23 147.11 C 149.15 146.61 149.50 145.46 149.00 144.53 C 148.50 143.60 147.34 143.26 146.41 143.76 L 145.55 144.23 C 144.62 144.73 144.28 145.88 144.78 146.81 C 145.28 147.73 146.43 148.08 147.36 147.58 Z M 148.18 147.11 L 149.10 146.63 C 150.02 146.16 150.38 145.02 149.91 144.10 C 149.43 143.17 148.29 142.81 147.37 143.29 L 146.46 143.76 C 145.53 144.24 145.17 145.38 145.65 146.30 C 146.13 147.22 147.26 147.58 148.18 147.11 Z M 149.09 146.61 L 150.03 146.12 C 150.94 145.65 151.29 144.53 150.82 143.62 C 150.35 142.71 149.23 142.35 148.32 142.83 L 147.38 143.32 C 146.47 143.79 146.12 144.91 146.59 145.82 C 147.06 146.73 148.18 147.08 149.09 146.61 Z M 150.04 146.08 L 150.97 145.57 C 151.85 145.10 152.19 143.99 151.71 143.11 C 151.23 142.22 150.13 141.89 149.25 142.37 L 148.31 142.87 C 147.43 143.35 147.10 144.45 147.57 145.33 C 148.05 146.22 149.15 146.55 150.04 146.08 Z M 150.96 145.53 L 151.87 145.03 C 152.72 144.56 153.04 143.48 152.56 142.62 C 152.09 141.76 151.01 141.45 150.15 141.92 L 149.25 142.42 C 148.39 142.89 148.08 143.97 148.55 144.83 C 149.03 145.69 150.11 146.00 150.96 145.53 Z M 151.85 144.99 L 152.69 144.52 C 153.52 144.05 153.82 143.00 153.35 142.16 C 152.89 141.33 151.83 141.03 151.00 141.50 L 150.16 141.96 C 149.33 142.43 149.03 143.49 149.50 144.32 C 149.97 145.15 151.02 145.45 151.85 144.99 Z M 152.69 144.51 L 153.59 144.00 C 154.42 143.53 154.71 142.48 154.25 141.65 C 153.78 140.83 152.73 140.53 151.90 141.00 L 151.00 141.51 C 150.17 141.98 149.88 143.03 150.34 143.85 C 150.81 144.68 151.86 144.98 152.69 144.51 Z M 153.62 144.05 L 154.50 143.55 C 155.36 143.07 155.66 141.98 155.17 141.13 C 154.69 140.27 153.60 139.97 152.75 140.45 L 151.87 140.95 C 151.01 141.43 150.71 142.52 151.20 143.38 C 151.68 144.23 152.77 144.53 153.62 144.05 Z M 154.54 143.63 L 155.30 143.20 C 156.20 142.69 156.51 141.55 156.00 140.66 C 155.50 139.76 154.36 139.44 153.46 139.95 L 152.70 140.38 C 151.81 140.89 151.49 142.03 152.00 142.92 C 152.51 143.82 153.65 144.14 154.54 143.63 Z"
      fill="black"
      fill-rule="nonzero" /><path d="M 143.44 157.20 L 144.33 156.72 C 145.17 156.26 145.49 155.20 145.03 154.35 C 144.57 153.50 143.50 153.18 142.65 153.65 L 141.77 154.13 C 140.92 154.59 140.60 155.65 141.07 156.50 C 141.53 157.35 142.59 157.66 143.44 157.20 Z M 144.35 156.76 L 145.23 156.29 C 146.10 155.82 146.43 154.72 145.95 153.85 C 145.48 152.98 144.39 152.65 143.51 153.12 L 142.63 153.60 C 141.76 154.07 141.44 155.17 141.91 156.04 C 142.38 156.91 143.47 157.24 144.35 156.76 Z M 145.24 156.33 L 146.11 155.87 C 147.01 155.38 147.35 154.27 146.87 153.37 C 146.38 152.47 145.27 152.13 144.37 152.61 L 143.50 153.08 C 142.60 153.56 142.26 154.68 142.75 155.58 C 143.23 156.48 144.35 156.81 145.24 156.33 Z M 146.11 155.88 L 146.97 155.42 C 147.88 154.94 148.23 153.82 147.75 152.91 C 147.26 152.00 146.14 151.66 145.23 152.14 L 144.37 152.60 C 143.46 153.08 143.12 154.21 143.60 155.11 C 144.08 156.02 145.20 156.36 146.11 155.88 Z M 146.97 155.41 L 147.85 154.95 C 148.75 154.47 149.09 153.35 148.61 152.45 C 148.14 151.55 147.02 151.21 146.11 151.68 L 145.24 152.15 C 144.33 152.63 143.99 153.75 144.47 154.65 C 144.95 155.55 146.07 155.89 146.97 155.41 Z M 147.85 154.93 L 148.74 154.45 C 149.63 153.98 149.97 152.86 149.49 151.97 C 149.01 151.08 147.90 150.74 147.01 151.22 L 146.11 151.70 C 145.22 152.18 144.89 153.29 145.36 154.18 C 145.84 155.08 146.95 155.41 147.85 154.93 Z M 148.74 154.43 L 149.59 153.97 C 150.47 153.49 150.80 152.39 150.32 151.50 C 149.84 150.62 148.74 150.30 147.86 150.78 L 147.01 151.24 C 146.12 151.72 145.80 152.82 146.28 153.71 C 146.76 154.59 147.86 154.91 148.74 154.43 Z M 149.60 153.94 L 150.48 153.45 C 151.35 152.97 151.66 151.88 151.18 151.01 C 150.69 150.14 149.60 149.83 148.73 150.31 L 147.85 150.81 C 146.99 151.29 146.67 152.38 147.16 153.25 C 147.64 154.11 148.73 154.42 149.60 153.94 Z M 150.49 153.42 L 151.39 152.91 C 152.24 152.42 152.53 151.34 152.05 150.49 C 151.56 149.64 150.48 149.34 149.63 149.83 L 148.73 150.34 C 147.88 150.83 147.58 151.91 148.07 152.76 C 148.55 153.61 149.64 153.91 150.49 153.42 Z M 151.39 152.88 L 152.26 152.37 C 153.09 151.88 153.37 150.81 152.88 149.97 C 152.39 149.14 151.32 148.86 150.49 149.35 L 149.62 149.86 C 148.79 150.35 148.51 151.42 149.00 152.26 C 149.49 153.09 150.56 153.37 151.39 152.88 Z M 152.27 152.33 L 153.13 151.81 C 153.94 151.32 154.20 150.26 153.71 149.45 C 153.22 148.64 152.16 148.37 151.34 148.87 L 150.48 149.39 C 149.67 149.88 149.41 150.94 149.90 151.75 C 150.39 152.56 151.45 152.83 152.27 152.33 Z M 153.13 151.78 L 153.98 151.25 C 154.77 150.76 155.02 149.72 154.52 148.92 C 154.03 148.12 152.98 147.88 152.19 148.37 L 151.34 148.90 C 150.54 149.39 150.30 150.44 150.79 151.23 C 151.29 152.03 152.33 152.27 153.13 151.78 Z M 153.98 151.22 L 154.85 150.67 C 155.62 150.17 155.85 149.14 155.36 148.36 C 154.86 147.59 153.83 147.36 153.05 147.85 L 152.18 148.41 C 151.41 148.90 151.18 149.93 151.67 150.71 C 152.17 151.49 153.20 151.72 153.98 151.22 Z M 154.85 150.63 L 155.72 150.06 C 156.48 149.56 156.69 148.54 156.20 147.79 C 155.70 147.03 154.68 146.82 153.92 147.31 L 153.05 147.89 C 152.29 148.38 152.08 149.40 152.58 150.16 C 153.07 150.92 154.09 151.13 154.85 150.63 Z M 155.73 150.03 L 156.54 149.47 C 157.28 148.97 157.47 147.96 156.97 147.22 C 156.47 146.48 155.46 146.29 154.72 146.80 L 153.91 147.35 C 153.17 147.86 152.98 148.86 153.48 149.60 C 153.99 150.34 155.00 150.53 155.73 150.03 Z M 156.56 149.43 L 157.36 148.86 C 158.07 148.34 158.24 147.35 157.72 146.63 C 157.21 145.92 156.21 145.75 155.50 146.27 L 154.70 146.84 C 153.98 147.36 153.82 148.35 154.34 149.07 C 154.85 149.78 155.85 149.94 156.56 149.43 Z M 157.39 148.81 L 158.20 148.19 C 158.89 147.66 159.02 146.67 158.49 145.97 C 157.96 145.28 156.96 145.15 156.27 145.69 L 155.46 146.31 C 154.77 146.84 154.64 147.84 155.18 148.53 C 155.71 149.22 156.70 149.35 157.39 148.81 Z M 158.22 148.16 L 158.96 147.57 C 159.63 147.02 159.74 146.03 159.19 145.36 C 158.65 144.69 157.66 144.58 156.98 145.13 L 156.25 145.72 C 155.58 146.26 155.47 147.25 156.02 147.93 C 156.56 148.60 157.55 148.70 158.22 148.16 Z M 158.96 147.56 L 159.01 147.51 C 159.68 146.97 159.78 145.98 159.23 145.31 C 158.69 144.65 157.70 144.55 157.03 145.09 L 156.98 145.13 C 156.31 145.68 156.21 146.67 156.76 147.33 C 157.31 148.00 158.29 148.10 158.96 147.56 Z"
      fill="black"
      fill-rule="nonzero" /><path d="M 150.75 125.17 L 150.75 126.21 C 150.75 127.16 151.52 127.93 152.47 127.93 C 153.42 127.93 154.19 127.16 154.19 126.21 L 154.19 125.17 C 154.19 124.22 153.42 123.45 152.47 123.45 C 151.52 123.45 150.75 124.22 150.75 125.17 Z M 150.65 126.21 L 150.65 127.20 C 150.65 128.21 151.47 129.02 152.47 129.02 C 153.48 129.02 154.29 128.21 154.29 127.20 L 154.29 126.21 C 154.29 125.20 153.48 124.39 152.47 124.39 C 151.47 124.39 150.65 125.20 150.65 126.21 Z M 150.57 127.20 L 150.57 128.17 C 150.57 129.22 151.42 130.07 152.47 130.07 C 153.52 130.07 154.37 129.22 154.37 128.17 L 154.37 127.20 C 154.37 126.15 153.52 125.30 152.47 125.30 C 151.42 125.30 150.57 126.15 150.57 127.20 Z M 150.54 128.16 L 150.53 129.13 C 150.52 130.20 151.38 131.07 152.45 131.08 C 153.52 131.09 154.39 130.23 154.40 129.16 L 154.40 128.19 C 154.41 127.12 153.55 126.25 152.49 126.24 C 151.42 126.23 150.55 127.09 150.54 128.16 Z M 150.52 129.09 L 150.49 130.08 C 150.46 131.15 151.31 132.05 152.38 132.08 C 153.45 132.11 154.35 131.26 154.38 130.19 L 154.40 129.20 C 154.44 128.13 153.59 127.24 152.52 127.21 C 151.45 127.18 150.55 128.02 150.52 129.09 Z M 150.49 130.04 L 150.44 130.95 C 150.39 132.02 151.21 132.94 152.29 132.99 C 153.37 133.05 154.28 132.22 154.34 131.14 L 154.38 130.23 C 154.44 129.16 153.61 128.24 152.53 128.19 C 151.46 128.13 150.54 128.96 150.49 130.04 Z M 150.44 130.90 L 150.36 131.93 C 150.29 133.01 151.10 133.95 152.17 134.02 C 153.25 134.10 154.19 133.29 154.27 132.21 L 154.34 131.19 C 154.42 130.11 153.61 129.17 152.53 129.10 C 151.45 129.02 150.52 129.83 150.44 130.90 Z M 150.36 131.89 L 150.27 132.94 C 150.17 134.02 150.96 134.97 152.04 135.07 C 153.12 135.17 154.07 134.38 154.17 133.30 L 154.27 132.25 C 154.37 131.18 153.57 130.22 152.50 130.12 C 151.42 130.02 150.46 130.81 150.36 131.89 Z M 150.26 132.91 L 150.17 133.83 C 150.05 134.91 150.83 135.88 151.91 136.00 C 152.99 136.11 153.96 135.33 154.07 134.25 L 154.17 133.33 C 154.29 132.25 153.51 131.28 152.43 131.17 C 151.35 131.05 150.38 131.83 150.26 132.91 Z M 150.16 133.82 L 150.05 134.81 C 149.92 135.89 150.70 136.86 151.78 136.99 C 152.86 137.11 153.83 136.34 153.96 135.26 L 154.07 134.27 C 154.20 133.19 153.43 132.22 152.35 132.09 C 151.27 131.96 150.29 132.74 150.16 133.82 Z M 150.05 134.80 L 149.92 135.84 C 149.79 136.92 150.56 137.91 151.64 138.04 C 152.72 138.17 153.70 137.40 153.83 136.32 L 153.96 135.27 C 154.09 134.19 153.32 133.21 152.24 133.08 C 151.16 132.95 150.18 133.71 150.05 134.80 Z M 149.92 135.84 L 149.79 136.86 C 149.66 137.95 150.42 138.93 151.51 139.07 C 152.59 139.20 153.57 138.43 153.71 137.35 L 153.84 136.32 C 153.97 135.24 153.20 134.26 152.12 134.12 C 151.04 133.99 150.05 134.76 149.92 135.84 Z M 149.79 136.86 L 149.67 137.81 C 149.53 138.89 150.30 139.88 151.38 140.02 C 152.47 140.16 153.46 139.39 153.59 138.31 L 153.71 137.35 C 153.85 136.27 153.08 135.28 152.00 135.14 C 150.91 135.01 149.92 135.78 149.79 136.86 Z M 149.66 137.80 L 149.54 138.78 C 149.40 139.87 150.16 140.86 151.25 141.00 C 152.33 141.15 153.33 140.38 153.47 139.29 L 153.59 138.31 C 153.74 137.23 152.97 136.23 151.88 136.09 C 150.80 135.95 149.81 136.72 149.66 137.80 Z M 149.53 138.77 L 149.40 139.78 C 149.25 140.87 150.01 141.87 151.10 142.02 C 152.18 142.16 153.18 141.40 153.33 140.32 L 153.47 139.31 C 153.62 138.22 152.86 137.22 151.77 137.07 C 150.68 136.92 149.68 137.69 149.53 138.77 Z M 149.40 139.76 L 149.25 140.80 C 149.09 141.88 149.84 142.89 150.93 143.05 C 152.02 143.21 153.03 142.45 153.19 141.36 L 153.33 140.33 C 153.49 139.24 152.74 138.23 151.65 138.08 C 150.56 137.92 149.55 138.68 149.40 139.76 Z M 149.25 140.78 L 149.09 141.77 C 148.93 142.85 149.67 143.87 150.76 144.04 C 151.85 144.21 152.87 143.46 153.03 142.37 L 153.19 141.38 C 153.35 140.29 152.61 139.28 151.52 139.11 C 150.43 138.94 149.41 139.69 149.25 140.78 Z M 149.09 141.75 L 148.93 142.72 C 148.76 143.81 149.50 144.84 150.58 145.01 C 151.67 145.19 152.70 144.45 152.88 143.36 L 153.03 142.39 C 153.21 141.30 152.47 140.27 151.39 140.10 C 150.30 139.92 149.27 140.66 149.09 141.75 Z M 148.93 142.70 L 148.76 143.69 C 148.58 144.78 149.31 145.81 150.40 146.00 C 151.49 146.19 152.52 145.45 152.71 144.37 L 152.88 143.38 C 153.06 142.29 152.33 141.26 151.24 141.07 C 150.15 140.88 149.12 141.62 148.93 142.70 Z M 148.76 143.67 L 148.59 144.67 C 148.39 145.76 149.12 146.80 150.20 146.99 C 151.29 147.19 152.34 146.46 152.53 145.37 L 152.71 144.38 C 152.90 143.29 152.18 142.25 151.09 142.06 C 150.00 141.86 148.96 142.59 148.76 143.67 Z M 148.59 144.65 L 148.40 145.65 C 148.20 146.74 148.92 147.79 150.00 147.99 C 151.09 148.19 152.14 147.48 152.35 146.39 L 152.53 145.39 C 152.73 144.30 152.02 143.25 150.93 143.05 C 149.84 142.84 148.79 143.56 148.59 144.65 Z M 148.40 145.64 L 148.21 146.62 C 148.00 147.71 148.71 148.76 149.80 148.97 C 150.89 149.18 151.95 148.47 152.16 147.38 L 152.35 146.40 C 152.56 145.31 151.84 144.25 150.75 144.04 C 149.66 143.83 148.61 144.55 148.40 145.64 Z M 148.21 146.60 L 148.02 147.57 C 147.80 148.66 148.50 149.72 149.60 149.94 C 150.69 150.16 151.75 149.45 151.96 148.36 L 152.16 147.39 C 152.38 146.30 151.67 145.24 150.58 145.02 C 149.49 144.80 148.43 145.51 148.21 146.60 Z M 148.01 147.55 L 147.81 148.52 C 147.59 149.61 148.29 150.68 149.38 150.91 C 150.47 151.13 151.54 150.43 151.76 149.34 L 151.97 148.37 C 152.19 147.28 151.49 146.21 150.40 145.99 C 149.31 145.76 148.24 146.46 148.01 147.55 Z M 147.81 148.51 L 147.60 149.49 C 147.37 150.58 148.07 151.65 149.16 151.89 C 150.25 152.12 151.32 151.42 151.56 150.33 L 151.77 149.36 C 152.00 148.26 151.30 147.19 150.21 146.96 C 149.12 146.72 148.05 147.42 147.81 148.51 Z M 147.60 149.47 L 147.38 150.46 C 147.14 151.55 147.83 152.63 148.92 152.88 C 150.01 153.12 151.10 152.43 151.34 151.34 L 151.56 150.35 C 151.80 149.26 151.11 148.18 150.02 147.93 C 148.93 147.69 147.85 148.38 147.60 149.47 Z M 147.38 150.45 L 147.16 151.44 C 146.91 152.53 147.59 153.62 148.68 153.87 C 149.77 154.12 150.86 153.44 151.11 152.35 L 151.34 151.35 C 151.59 150.26 150.91 149.17 149.81 148.92 C 148.72 148.67 147.63 149.35 147.38 150.45 Z M 147.15 151.43 L 146.92 152.40 C 146.67 153.49 147.34 154.59 148.44 154.84 C 149.53 155.10 150.62 154.43 150.88 153.33 L 151.11 152.36 C 151.37 151.27 150.69 150.17 149.60 149.91 C 148.51 149.66 147.41 150.33 147.15 151.43 Z M 146.92 152.38 L 146.68 153.36 C 146.41 154.46 147.09 155.56 148.18 155.83 C 149.27 156.09 150.38 155.42 150.65 154.33 L 150.89 153.35 C 151.15 152.26 150.48 151.15 149.39 150.88 C 148.29 150.62 147.19 151.29 146.92 152.38 Z M 146.68 153.34 L 146.43 154.32 C 146.15 155.42 146.82 156.53 147.91 156.81 C 149.01 157.09 150.12 156.42 150.40 155.33 L 150.65 154.35 C 150.93 153.25 150.26 152.14 149.17 151.86 C 148.07 151.58 146.96 152.25 146.68 153.34 Z M 146.43 154.30 L 146.17 155.27 C 145.89 156.37 146.54 157.49 147.64 157.78 C 148.73 158.07 149.86 157.41 150.15 156.32 L 150.40 155.35 C 150.69 154.25 150.04 153.13 148.94 152.84 C 147.84 152.55 146.72 153.20 146.43 154.30 Z M 146.17 155.25 L 145.91 156.20 C 145.61 157.30 146.26 158.43 147.35 158.74 C 148.45 159.04 149.58 158.39 149.89 157.29 L 150.15 156.34 C 150.45 155.24 149.80 154.11 148.71 153.81 C 147.61 153.51 146.48 154.15 146.17 155.25 Z M 145.91 156.18 L 145.63 157.15 C 145.32 158.25 145.95 159.39 147.05 159.71 C 148.14 160.03 149.29 159.39 149.60 158.30 L 149.88 157.32 C 150.20 156.22 149.57 155.08 148.47 154.76 C 147.37 154.45 146.23 155.08 145.91 156.18 Z M 145.63 157.12 L 145.34 158.10 C 145.01 159.19 145.63 160.35 146.72 160.68 C 147.82 161.01 148.98 160.39 149.31 159.30 L 149.60 158.32 C 149.93 157.23 149.31 156.07 148.22 155.74 C 147.12 155.41 145.96 156.03 145.63 157.12 Z M 145.34 158.07 L 145.04 159.03 C 144.70 160.12 145.30 161.29 146.40 161.63 C 147.49 161.98 148.66 161.37 149.00 160.28 L 149.30 159.32 C 149.65 158.23 149.04 157.06 147.95 156.72 C 146.85 156.37 145.69 156.98 145.34 158.07 Z M 145.04 159.01 L 144.74 159.95 C 144.38 161.04 144.98 162.21 146.07 162.57 C 147.16 162.93 148.34 162.33 148.70 161.24 L 149.00 160.30 C 149.36 159.21 148.76 158.03 147.67 157.67 C 146.58 157.32 145.40 157.91 145.04 159.01 Z M 144.74 159.93 L 144.42 160.86 C 144.06 161.95 144.65 163.13 145.74 163.50 C 146.83 163.87 148.01 163.28 148.38 162.19 L 148.69 161.26 C 149.06 160.16 148.47 158.98 147.38 158.61 C 146.29 158.25 145.10 158.83 144.74 159.93 Z M 144.42 160.84 L 144.10 161.78 C 143.73 162.87 144.31 164.06 145.40 164.44 C 146.49 164.81 147.68 164.23 148.06 163.14 L 148.38 162.20 C 148.76 161.11 148.18 159.92 147.08 159.54 C 145.99 159.17 144.80 159.75 144.42 160.84 Z M 144.10 161.77 L 143.77 162.72 C 143.39 163.81 143.96 165.01 145.05 165.39 C 146.15 165.77 147.34 165.20 147.73 164.11 L 148.06 163.15 C 148.44 162.06 147.87 160.87 146.78 160.48 C 145.68 160.10 144.49 160.67 144.10 161.77 Z M 143.77 162.70 L 143.43 163.64 C 143.04 164.74 143.60 165.94 144.69 166.33 C 145.79 166.73 146.99 166.16 147.38 165.07 L 147.72 164.12 C 148.12 163.03 147.55 161.83 146.46 161.43 C 145.37 161.04 144.16 161.61 143.77 162.70 Z M 143.43 163.62 L 143.08 164.56 C 142.68 165.65 143.23 166.86 144.32 167.27 C 145.41 167.67 146.63 167.12 147.03 166.03 L 147.38 165.09 C 147.79 164.00 147.23 162.79 146.14 162.38 C 145.05 161.98 143.84 162.53 143.43 163.62 Z M 143.09 164.54 L 142.73 165.46 C 142.31 166.55 142.85 167.77 143.94 168.19 C 145.03 168.61 146.25 168.07 146.67 166.98 L 147.03 166.05 C 147.45 164.97 146.90 163.75 145.82 163.33 C 144.73 162.91 143.51 163.45 143.09 164.54 Z M 142.74 165.43 L 142.37 166.36 C 141.93 167.45 142.45 168.68 143.54 169.11 C 144.62 169.55 145.85 169.02 146.29 167.94 L 146.66 167.01 C 147.10 165.93 146.57 164.70 145.49 164.26 C 144.41 163.82 143.17 164.35 142.74 165.43 Z M 142.37 166.33 L 141.98 167.27 C 141.52 168.35 142.03 169.59 143.11 170.05 C 144.19 170.50 145.43 169.99 145.88 168.91 L 146.28 167.97 C 146.73 166.89 146.23 165.65 145.15 165.20 C 144.07 164.75 142.83 165.25 142.37 166.33 Z M 141.99 167.24 L 141.58 168.16 C 141.11 169.24 141.60 170.49 142.67 170.96 C 143.74 171.43 144.99 170.94 145.47 169.87 L 145.87 168.95 C 146.34 167.87 145.85 166.62 144.78 166.15 C 143.71 165.68 142.46 166.17 141.99 167.24 Z M 141.59 168.13 L 141.18 169.04 C 140.69 170.10 141.16 171.36 142.23 171.85 C 143.29 172.34 144.55 171.87 145.04 170.80 L 145.46 169.90 C 145.94 168.83 145.47 167.57 144.41 167.09 C 143.34 166.60 142.08 167.07 141.59 168.13 Z M 141.19 169.01 L 140.77 169.89 C 140.27 170.95 140.72 172.22 141.78 172.73 C 142.84 173.23 144.11 172.78 144.61 171.72 L 145.03 170.83 C 145.54 169.77 145.08 168.50 144.02 168.00 C 142.96 167.50 141.69 167.95 141.19 169.01 Z M 140.78 169.86 L 140.33 170.77 C 139.81 171.83 140.25 173.11 141.30 173.63 C 142.36 174.14 143.63 173.71 144.15 172.66 L 144.60 171.75 C 145.12 170.69 144.69 169.41 143.63 168.89 C 142.58 168.37 141.30 168.81 140.78 169.86 Z M 140.34 170.74 L 139.87 171.66 C 139.34 172.71 139.75 174.00 140.80 174.53 C 141.85 175.07 143.13 174.65 143.67 173.61 L 144.14 172.69 C 144.68 171.64 144.26 170.35 143.21 169.82 C 142.17 169.28 140.88 169.69 140.34 170.74 Z M 139.89 171.63 L 139.41 172.52 C 138.86 173.56 139.25 174.85 140.29 175.41 C 141.33 175.96 142.63 175.57 143.18 174.53 L 143.66 173.64 C 144.21 172.60 143.82 171.31 142.78 170.75 C 141.74 170.20 140.44 170.59 139.89 171.63 Z M 139.43 172.48 L 138.96 173.33 C 138.38 174.36 138.75 175.66 139.78 176.24 C 140.81 176.81 142.11 176.45 142.69 175.42 L 143.16 174.56 C 143.74 173.53 143.37 172.23 142.34 171.66 C 141.31 171.08 140.01 171.45 139.43 172.48 Z M 138.98 173.29 L 138.49 174.12 C 137.89 175.14 138.23 176.45 139.25 177.05 C 140.27 177.65 141.58 177.31 142.18 176.29 L 142.67 175.46 C 143.27 174.44 142.93 173.13 141.91 172.53 C 140.89 171.93 139.58 172.27 138.98 173.29 Z M 138.52 174.08 L 137.97 174.95 C 137.35 175.96 137.66 177.27 138.66 177.90 C 139.66 178.52 140.98 178.22 141.61 177.21 L 142.15 176.34 C 142.77 175.33 142.47 174.01 141.46 173.39 C 140.46 172.77 139.14 173.07 138.52 174.08 Z M 138.00 174.90 L 137.46 175.74 C 136.80 176.72 137.08 178.05 138.06 178.70 C 139.05 179.35 140.37 179.08 141.02 178.09 L 141.57 177.26 C 142.22 176.27 141.95 174.95 140.97 174.30 C 139.98 173.65 138.65 173.92 138.00 174.90 Z M 137.49 175.69 L 136.93 176.49 C 136.25 177.46 136.49 178.79 137.46 179.47 C 138.43 180.14 139.76 179.91 140.43 178.94 L 140.99 178.14 C 141.67 177.17 141.43 175.84 140.46 175.16 C 139.49 174.49 138.16 174.72 137.49 175.69 Z M 136.96 176.45 L 136.36 177.27 C 135.67 178.22 135.87 179.55 136.82 180.25 C 137.77 180.95 139.11 180.74 139.80 179.79 L 140.40 178.98 C 141.10 178.03 140.89 176.69 139.94 176.00 C 138.99 175.30 137.66 175.50 136.96 176.45 Z M 136.40 177.23 L 135.76 178.06 C 135.04 178.99 135.21 180.33 136.14 181.05 C 137.07 181.77 138.40 181.59 139.12 180.66 L 139.77 179.83 C 140.48 178.90 140.31 177.57 139.38 176.85 C 138.45 176.13 137.12 176.30 136.40 177.23 Z M 135.80 178.01 L 135.16 178.79 C 134.42 179.69 134.54 181.03 135.45 181.77 C 136.35 182.52 137.69 182.39 138.43 181.49 L 139.07 180.71 C 139.82 179.81 139.69 178.47 138.79 177.73 C 137.88 176.98 136.55 177.11 135.80 178.01 Z M 135.23 178.73 L 134.61 179.41 C 133.83 180.28 133.90 181.62 134.77 182.40 C 135.63 183.18 136.97 183.11 137.75 182.24 L 138.37 181.55 C 139.15 180.68 139.08 179.35 138.21 178.57 C 137.34 177.79 136.01 177.86 135.23 178.73 Z M 134.72 179.31 L 133.93 180.08 C 133.10 180.88 133.07 182.21 133.88 183.05 C 134.69 183.88 136.02 183.91 136.85 183.10 L 137.64 182.34 C 138.48 181.53 138.50 180.20 137.69 179.37 C 136.89 178.53 135.55 178.51 134.72 179.31 Z M 134.08 179.97 L 133.33 180.57 C 132.44 181.29 132.30 182.61 133.02 183.50 C 133.75 184.40 135.06 184.54 135.96 183.81 L 136.70 183.21 C 137.60 182.49 137.74 181.17 137.01 180.28 C 136.29 179.38 134.97 179.24 134.08 179.97 Z M 133.46 180.49 L 132.74 181.00 C 131.80 181.65 131.57 182.94 132.23 183.88 C 132.88 184.81 134.17 185.05 135.11 184.39 L 135.83 183.89 C 136.77 183.24 137.00 181.95 136.34 181.01 C 135.69 180.07 134.40 179.84 133.46 180.49 Z M 132.88 180.93 L 132.08 181.41 C 131.10 181.98 130.78 183.24 131.36 184.22 C 131.94 185.19 133.20 185.51 134.17 184.93 L 134.97 184.46 C 135.94 183.88 136.26 182.62 135.69 181.65 C 135.11 180.67 133.85 180.35 132.88 180.93 Z M 132.23 181.35 L 131.23 181.84 C 130.22 182.34 129.81 183.56 130.31 184.56 C 130.80 185.57 132.02 185.98 133.02 185.48 L 134.02 184.99 C 135.03 184.49 135.44 183.28 134.94 182.27 C 134.45 181.27 133.23 180.85 132.23 181.35 Z M 131.33 181.82 L 130.42 182.22 C 129.40 182.65 128.93 183.83 129.37 184.85 C 129.81 185.87 130.99 186.34 132.00 185.90 L 132.92 185.51 C 133.94 185.07 134.41 183.89 133.97 182.87 C 133.53 181.85 132.35 181.38 131.33 181.82 Z M 130.52 182.20 L 129.53 182.56 C 128.51 182.94 127.98 184.08 128.36 185.11 C 128.74 186.14 129.88 186.66 130.91 186.28 L 131.90 185.92 C 132.92 185.54 133.45 184.40 133.07 183.37 C 132.69 182.34 131.55 181.82 130.52 182.20 Z M 129.70 182.53 L 128.75 182.80 C 127.71 183.08 127.09 184.16 127.38 185.20 C 127.67 186.25 128.75 186.86 129.79 186.57 L 130.74 186.31 C 131.78 186.02 132.40 184.95 132.11 183.90 C 131.82 182.86 130.74 182.25 129.70 182.53 Z M 129.12 182.79 L 128.05 182.88 C 127.00 182.96 126.22 183.88 126.31 184.92 C 126.39 185.96 127.30 186.74 128.35 186.66 L 129.42 186.57 C 130.46 186.49 131.24 185.58 131.16 184.53 C 131.08 183.49 130.16 182.71 129.12 182.79 Z M 128.56 183.03 L 127.64 182.84 C 126.67 182.64 125.73 183.26 125.53 184.22 C 125.33 185.18 125.95 186.12 126.91 186.32 L 127.84 186.51 C 128.80 186.71 129.74 186.09 129.94 185.13 C 130.14 184.17 129.52 183.23 128.56 183.03 Z M 127.84 182.99 L 127.41 182.84 C 126.54 182.53 125.58 182.99 125.27 183.87 C 124.96 184.74 125.41 185.70 126.29 186.01 L 126.71 186.16 C 127.59 186.47 128.55 186.02 128.86 185.14 C 129.17 184.27 128.71 183.30 127.84 182.99 Z"
      fill="black"
      fill-rule="nonzero" /><path d="M 133.28 163.14 L 134.10 163.59 C 134.98 164.06 136.07 163.74 136.54 162.87 C 137.02 161.99 136.69 160.90 135.82 160.43 L 135.00 159.98 C 134.13 159.51 133.03 159.83 132.56 160.70 C 132.09 161.58 132.41 162.67 133.28 163.14 Z M 134.02 163.70 L 134.87 164.18 C 135.81 164.70 136.99 164.36 137.51 163.43 C 138.03 162.49 137.69 161.31 136.76 160.79 L 135.90 160.31 C 134.97 159.79 133.79 160.13 133.27 161.07 C 132.75 162.00 133.08 163.18 134.02 163.70 Z M 134.77 164.28 L 135.69 164.82 C 136.69 165.39 137.96 165.06 138.54 164.06 C 139.11 163.07 138.77 161.80 137.78 161.22 L 136.86 160.69 C 135.87 160.11 134.59 160.45 134.02 161.44 C 133.44 162.43 133.78 163.70 134.77 164.28 Z M 135.61 164.87 L 136.46 165.38 C 137.49 166.00 138.82 165.68 139.44 164.66 C 140.06 163.64 139.73 162.31 138.71 161.69 L 137.86 161.17 C 136.84 160.55 135.51 160.88 134.89 161.90 C 134.27 162.92 134.59 164.25 135.61 164.87 Z M 136.43 165.38 L 137.29 165.92 C 138.31 166.56 139.65 166.25 140.29 165.23 C 140.93 164.21 140.62 162.87 139.60 162.23 L 138.74 161.69 C 137.72 161.05 136.38 161.36 135.74 162.38 C 135.10 163.40 135.41 164.74 136.43 165.38 Z M 137.27 165.91 L 138.13 166.47 C 139.15 167.12 140.50 166.82 141.15 165.80 C 141.80 164.79 141.50 163.44 140.49 162.79 L 139.62 162.24 C 138.61 161.58 137.26 161.88 136.61 162.90 C 135.96 163.91 136.25 165.26 137.27 165.91 Z M 138.12 166.46 L 138.95 167.00 C 139.96 167.66 141.32 167.37 141.97 166.36 C 142.63 165.35 142.35 163.99 141.33 163.33 L 140.50 162.79 C 139.49 162.13 138.14 162.42 137.48 163.43 C 136.82 164.45 137.10 165.80 138.12 166.46 Z M 138.93 167.00 L 139.80 167.57 C 140.81 168.24 142.17 167.96 142.84 166.95 C 143.51 165.94 143.23 164.58 142.22 163.91 L 141.35 163.34 C 140.34 162.67 138.98 162.95 138.31 163.96 C 137.64 164.97 137.92 166.33 138.93 167.00 Z M 139.79 167.56 L 140.61 168.11 C 141.61 168.79 142.97 168.52 143.65 167.51 C 144.32 166.51 144.06 165.14 143.05 164.47 L 142.23 163.92 C 141.23 163.24 139.86 163.51 139.19 164.52 C 138.51 165.52 138.78 166.89 139.79 167.56 Z M 140.59 168.10 L 141.40 168.65 C 142.40 169.34 143.76 169.08 144.45 168.08 C 145.13 167.08 144.87 165.71 143.87 165.03 L 143.07 164.48 C 142.06 163.79 140.70 164.05 140.01 165.05 C 139.33 166.06 139.59 167.42 140.59 168.10 Z M 141.38 168.65 L 142.17 169.19 C 143.17 169.88 144.54 169.63 145.23 168.64 C 145.92 167.64 145.67 166.27 144.67 165.58 L 143.88 165.03 C 142.88 164.34 141.52 164.59 140.83 165.59 C 140.14 166.59 140.39 167.96 141.38 168.65 Z M 142.17 169.19 L 142.96 169.74 C 143.96 170.44 145.33 170.19 146.02 169.20 C 146.72 168.20 146.47 166.83 145.48 166.14 L 144.68 165.58 C 143.69 164.89 142.32 165.13 141.62 166.13 C 140.93 167.12 141.17 168.49 142.17 169.19 Z M 142.96 169.74 L 143.78 170.32 C 144.78 171.02 146.15 170.78 146.84 169.78 C 147.54 168.79 147.30 167.42 146.31 166.72 L 145.48 166.14 C 144.49 165.44 143.12 165.68 142.42 166.68 C 141.72 167.67 141.96 169.04 142.96 169.74 Z M 143.78 170.32 L 144.64 170.92 C 145.63 171.62 147.00 171.38 147.70 170.39 C 148.40 169.39 148.16 168.02 147.16 167.32 L 146.31 166.72 C 145.32 166.02 143.94 166.26 143.24 167.26 C 142.55 168.25 142.79 169.62 143.78 170.32 Z M 144.64 170.92 L 145.45 171.49 C 146.45 172.19 147.82 171.95 148.52 170.96 C 149.21 169.96 148.97 168.59 147.98 167.89 L 147.16 167.32 C 146.17 166.62 144.80 166.86 144.10 167.86 C 143.40 168.85 143.64 170.22 144.64 170.92 Z M 145.45 171.49 L 146.27 172.07 C 147.26 172.77 148.63 172.53 149.33 171.53 C 150.03 170.54 149.79 169.17 148.80 168.47 L 147.98 167.89 C 146.99 167.20 145.61 167.44 144.91 168.43 C 144.22 169.42 144.46 170.80 145.45 171.49 Z M 146.27 172.07 L 147.09 172.65 C 148.08 173.35 149.46 173.11 150.16 172.11 C 150.85 171.12 150.62 169.75 149.62 169.05 L 148.80 168.47 C 147.81 167.77 146.43 168.01 145.73 169.00 C 145.03 169.99 145.27 171.37 146.27 172.07 Z M 147.09 172.64 L 147.91 173.23 C 148.90 173.93 150.27 173.69 150.98 172.70 C 151.68 171.71 151.44 170.34 150.45 169.63 L 149.63 169.05 C 148.63 168.35 147.26 168.58 146.56 169.58 C 145.86 170.57 146.09 171.94 147.09 172.64 Z M 147.90 173.22 L 148.73 173.81 C 149.72 174.51 151.09 174.28 151.80 173.29 C 152.50 172.30 152.27 170.93 151.28 170.23 L 150.46 169.64 C 149.47 168.93 148.09 169.16 147.39 170.15 C 146.68 171.14 146.91 172.52 147.90 173.22 Z M 148.72 173.80 L 149.54 174.39 C 150.53 175.10 151.90 174.87 152.61 173.88 C 153.32 172.90 153.09 171.52 152.10 170.82 L 151.28 170.23 C 150.30 169.52 148.92 169.75 148.22 170.74 C 147.51 171.72 147.74 173.10 148.72 173.80 Z M 149.54 174.39 L 150.35 174.97 C 151.34 175.68 152.71 175.45 153.42 174.47 C 154.12 173.48 153.90 172.11 152.91 171.40 L 152.10 170.82 C 151.12 170.11 149.75 170.34 149.04 171.32 C 148.33 172.31 148.56 173.68 149.54 174.39 Z M 150.35 174.97 L 151.16 175.55 C 152.14 176.25 153.51 176.03 154.22 175.04 C 154.93 174.06 154.70 172.69 153.72 171.98 L 152.91 171.40 C 151.93 170.70 150.56 170.92 149.85 171.91 C 149.14 172.89 149.37 174.26 150.35 174.97 Z M 151.16 175.55 L 151.98 176.13 C 152.96 176.83 154.33 176.61 155.04 175.62 C 155.74 174.64 155.51 173.27 154.53 172.56 L 153.71 171.98 C 152.73 171.27 151.36 171.50 150.65 172.49 C 149.95 173.47 150.18 174.84 151.16 175.55 Z M 151.99 176.13 L 152.81 176.71 C 153.79 177.41 155.16 177.18 155.86 176.19 C 156.56 175.21 156.32 173.84 155.34 173.14 L 154.52 172.56 C 153.53 171.86 152.17 172.09 151.47 173.08 C 150.77 174.07 151.00 175.43 151.99 176.13 Z M 152.82 176.72 L 153.64 177.29 C 154.62 177.98 155.98 177.74 156.68 176.75 C 157.37 175.77 157.13 174.40 156.14 173.71 L 155.33 173.14 C 154.34 172.45 152.98 172.69 152.28 173.67 C 151.59 174.66 151.83 176.02 152.82 176.72 Z M 153.65 177.29 L 154.47 177.86 C 155.46 178.54 156.81 178.29 157.50 177.30 C 158.18 176.31 157.93 174.95 156.94 174.27 L 156.13 173.71 C 155.14 173.02 153.78 173.27 153.09 174.26 C 152.41 175.25 152.66 176.61 153.65 177.29 Z M 154.49 177.86 L 155.33 178.43 C 156.32 179.10 157.67 178.84 158.34 177.85 C 159.01 176.85 158.75 175.50 157.76 174.83 L 156.92 174.26 C 155.93 173.59 154.58 173.85 153.90 174.85 C 153.23 175.84 153.49 177.19 154.49 177.86 Z M 155.35 178.43 L 156.19 178.99 C 157.19 179.65 158.53 179.37 159.19 178.38 C 159.85 177.38 159.57 176.04 158.57 175.38 L 157.73 174.82 C 156.74 174.17 155.39 174.44 154.74 175.44 C 154.08 176.44 154.35 177.78 155.35 178.43 Z M 156.22 179.00 L 157.06 179.53 C 158.06 180.18 159.39 179.88 160.04 178.88 C 160.68 177.88 160.39 176.55 159.38 175.91 L 158.55 175.37 C 157.54 174.73 156.21 175.02 155.57 176.02 C 154.93 177.02 155.22 178.36 156.22 179.00 Z M 157.09 179.54 L 157.93 180.07 C 158.94 180.69 160.26 180.38 160.89 179.37 C 161.51 178.36 161.20 177.04 160.19 176.42 L 159.35 175.90 C 158.34 175.27 157.02 175.58 156.40 176.59 C 155.77 177.60 156.09 178.92 157.09 179.54 Z M 157.97 180.07 L 158.86 180.60 C 159.87 181.20 161.18 180.87 161.78 179.86 C 162.38 178.85 162.05 177.54 161.04 176.94 L 160.15 176.41 C 159.14 175.81 157.84 176.14 157.23 177.15 C 156.63 178.16 156.96 179.47 157.97 180.07 Z M 158.90 180.60 L 159.77 181.10 C 160.78 181.68 162.07 181.33 162.65 180.32 C 163.23 179.31 162.88 178.02 161.87 177.44 L 161.00 176.94 C 159.99 176.36 158.70 176.71 158.12 177.72 C 157.54 178.73 157.89 180.02 158.90 180.60 Z M 159.80 181.10 L 160.66 181.57 C 161.67 182.13 162.94 181.77 163.50 180.76 C 164.06 179.75 163.70 178.48 162.69 177.91 L 161.84 177.44 C 160.83 176.88 159.55 177.24 158.99 178.25 C 158.43 179.26 158.80 180.54 159.80 181.10 Z M 160.69 181.56 L 161.57 182.04 C 162.58 182.58 163.83 182.21 164.38 181.20 C 164.92 180.20 164.55 178.94 163.54 178.40 L 162.66 177.92 C 161.65 177.38 160.39 177.75 159.85 178.76 C 159.31 179.76 159.68 181.02 160.69 181.56 Z M 161.61 182.03 L 162.50 182.50 C 163.50 183.02 164.74 182.63 165.26 181.63 C 165.78 180.63 165.39 179.40 164.39 178.88 L 163.50 178.41 C 162.50 177.89 161.27 178.27 160.75 179.27 C 160.22 180.27 160.61 181.51 161.61 182.03 Z M 162.54 182.49 L 163.42 182.93 C 164.42 183.43 165.63 183.03 166.13 182.03 C 166.63 181.04 166.23 179.83 165.23 179.33 L 164.35 178.88 C 163.36 178.39 162.15 178.79 161.65 179.78 C 161.15 180.78 161.55 181.99 162.54 182.49 Z M 163.47 182.92 L 164.35 183.34 C 165.34 183.81 166.53 183.39 167.00 182.40 C 167.47 181.42 167.05 180.23 166.06 179.76 L 165.18 179.34 C 164.19 178.86 163.01 179.28 162.54 180.27 C 162.06 181.26 162.48 182.45 163.47 182.92 Z M 164.42 183.33 L 165.32 183.73 C 166.30 184.16 167.45 183.72 167.89 182.74 C 168.32 181.76 167.88 180.61 166.90 180.17 L 166.00 179.77 C 165.02 179.33 163.87 179.78 163.43 180.76 C 162.99 181.74 163.44 182.89 164.42 183.33 Z M 165.41 183.72 L 166.34 184.09 C 167.32 184.47 168.42 184.00 168.81 183.02 C 169.20 182.04 168.72 180.94 167.74 180.55 L 166.81 180.18 C 165.83 179.79 164.73 180.27 164.34 181.25 C 163.95 182.22 164.43 183.33 165.41 183.72 Z M 166.45 184.08 L 167.42 184.41 C 168.39 184.74 169.45 184.22 169.78 183.24 C 170.11 182.27 169.59 181.21 168.61 180.89 L 167.64 180.56 C 166.67 180.23 165.61 180.75 165.28 181.72 C 164.95 182.70 165.47 183.75 166.45 184.08 Z M 167.52 184.40 L 168.52 184.68 C 169.48 184.96 170.49 184.39 170.77 183.42 C 171.04 182.45 170.48 181.45 169.51 181.17 L 168.51 180.89 C 167.54 180.62 166.54 181.18 166.26 182.15 C 165.99 183.12 166.55 184.13 167.52 184.40 Z M 168.61 184.67 L 169.59 184.90 C 170.55 185.12 171.51 184.53 171.74 183.56 C 171.96 182.60 171.36 181.64 170.40 181.42 L 169.42 181.19 C 168.45 180.96 167.49 181.56 167.27 182.52 C 167.05 183.48 167.64 184.45 168.61 184.67 Z M 169.68 184.88 L 170.63 185.05 C 171.58 185.23 172.49 184.60 172.67 183.64 C 172.84 182.69 172.21 181.78 171.26 181.61 L 170.31 181.43 C 169.36 181.26 168.45 181.89 168.27 182.84 C 168.10 183.80 168.73 184.71 169.68 184.88 Z M 170.74 185.02 L 171.80 185.14 C 172.73 185.25 173.58 184.59 173.69 183.65 C 173.80 182.72 173.13 181.87 172.20 181.76 L 171.14 181.64 C 170.21 181.53 169.36 182.20 169.25 183.13 C 169.14 184.06 169.81 184.91 170.74 185.02 Z M 171.90 185.09 L 172.85 185.15 C 173.76 185.20 174.54 184.52 174.59 183.61 C 174.65 182.71 173.96 181.93 173.05 181.88 L 172.10 181.82 C 171.19 181.76 170.42 182.45 170.36 183.35 C 170.31 184.26 171.00 185.04 171.90 185.09 Z M 172.89 185.11 L 173.30 185.12 C 174.18 185.16 174.93 184.47 174.96 183.59 C 175.00 182.71 174.31 181.97 173.43 181.93 L 173.02 181.92 C 172.14 181.88 171.40 182.57 171.36 183.45 C 171.32 184.33 172.01 185.07 172.89 185.11 Z"
      fill="black"
      fill-rule="nonzero" /></svg>