<svg xmlns="http://www.w3.org/2000/svg" width="300" height="300" viewBox="0 0 300 300">
<path d="M 133.23 114.63 L 133.54 115.60 C 133.81 116.48 134.74 116.97 135.62 116.69 C 136.50 116.42 136.99 115.49 136.71 114.61 L 136.41 113.64 C 136.14 112.76 135.21 112.27 134.33 112.55 C 133.45 112.82 132.96 113.75 133.23 114.63 Z M 133.52 115.66 L 133.85 116.61 C 134.16 117.49 135.13 117.96 136.02 117.65 C 136.90 117.34 137.37 116.37 137.06 115.49 L 136.73 114.54 C 136.42 113.66 135.45 113.19 134.56 113.50 C 133.68 113.81 133.21 114.78 133.52 115.66 Z M 133.87 116.73 L 134.26 117.63 C 134.64 118.51 135.66 118.91 136.53 118.53 C 137.41 118.16 137.81 117.14 137.43 116.27 L 137.04 115.36 C 136.66 114.49 135.65 114.09 134.77 114.46 C 133.90 114.84 133.50 115.86 133.87 116.73 Z M 134.34 117.78 L 134.82 118.64 C 135.28 119.48 136.33 119.78 137.16 119.32 C 137.99 118.86 138.29 117.81 137.83 116.98 L 137.35 116.12 C 136.89 115.28 135.84 114.98 135.01 115.44 C 134.18 115.91 133.88 116.95 134.34 117.78 Z M 134.92 118.75 L 135.47 119.58 C 136.00 120.36 137.05 120.57 137.82 120.04 C 138.60 119.52 138.81 118.47 138.29 117.69 L 137.73 116.87 C 137.21 116.09 136.15 115.88 135.38 116.40 C 134.60 116.93 134.40 117.98 134.92 118.75 Z M 135.56 119.65 L 136.17 120.45 C 136.73 121.18 137.77 121.32 138.50 120.76 C 139.23 120.20 139.37 119.15 138.81 118.42 L 138.20 117.63 C 137.64 116.90 136.60 116.76 135.87 117.32 C 135.14 117.88 135.00 118.92 135.56 119.65 Z M 136.23 120.48 L 136.86 121.24 C 137.44 121.94 138.47 122.03 139.17 121.46 C 139.86 120.88 139.96 119.85 139.38 119.15 L 138.75 118.39 C 138.17 117.70 137.14 117.60 136.45 118.18 C 135.75 118.75 135.65 119.79 136.23 120.48 Z M 136.90 121.25 L 137.57 122.01 C 138.15 122.69 139.17 122.76 139.84 122.18 C 140.51 121.59 140.58 120.58 140.00 119.91 L 139.34 119.14 C 138.75 118.47 137.74 118.40 137.07 118.98 C 136.40 119.56 136.32 120.58 136.90 121.25 Z M 137.59 122.01 L 138.09 122.57 C 138.67 123.22 139.67 123.29 140.32 122.71 C 140.98 122.13 141.04 121.13 140.46 120.47 L 139.97 119.91 C 139.39 119.26 138.39 119.19 137.74 119.77 C 137.08 120.35 137.02 121.35 137.59 122.01 Z"
      fill="black"
      fill-rule="nonzero" /><path d="M 127.69 129.72 L 128.72 129.68 C 129.68 129.65 130.43 128.83 130.40 127.87 C 130.36 126.90 129.54 126.15 128.58 126.19 L 127.55 126.23 C 126.59 126.26 125.84 127.08 125.87 128.04 C 125.91 129.01 126.72 129.76 127.69 129.72 Z M 128.78 129.68 L 129.78 129.60 C 130.75 129.53 131.47 128.69 131.39 127.72 C 131.32 126.76 130.48 126.04 129.52 126.12 L 128.51 126.19 C 127.55 126.27 126.83 127.11 126.91 128.07 C 126.98 129.03 127.82 129.75 128.78 129.68 Z M 129.92 129.58 L 130.88 129.43 C 131.83 129.28 132.48 128.39 132.33 127.44 C 132.18 126.49 131.29 125.84 130.33 125.99 L 129.38 126.14 C 128.43 126.29 127.78 127.18 127.93 128.13 C 128.08 129.08 128.97 129.73 129.92 129.58 Z M 131.08 129.38 L 131.97 129.13 C 132.89 128.87 133.43 127.91 133.17 126.99 C 132.92 126.06 131.95 125.52 131.03 125.78 L 130.14 126.03 C 129.21 126.29 128.67 127.25 128.93 128.18 C 129.19 129.10 130.15 129.64 131.08 129.38 Z M 132.12 129.08 L 133.03 128.73 C 133.92 128.38 134.37 127.38 134.02 126.48 C 133.67 125.59 132.67 125.14 131.78 125.49 L 130.87 125.84 C 129.98 126.18 129.54 127.19 129.88 128.08 C 130.23 128.98 131.23 129.42 132.12 129.08 Z M 133.09 128.69 L 134.09 128.26 C 134.96 127.88 135.36 126.86 134.98 125.98 C 134.60 125.11 133.58 124.71 132.70 125.09 L 131.71 125.52 C 130.83 125.91 130.43 126.93 130.82 127.80 C 131.20 128.68 132.22 129.08 133.09 128.69 Z M 134.09 128.25 L 134.95 127.88 C 135.82 127.49 136.21 126.48 135.83 125.60 C 135.45 124.73 134.43 124.33 133.55 124.72 L 132.70 125.10 C 131.83 125.48 131.43 126.50 131.81 127.37 C 132.20 128.24 133.22 128.64 134.09 128.25 Z M 134.94 127.88 L 135.84 127.48 C 136.71 127.10 137.11 126.08 136.73 125.21 C 136.35 124.34 135.33 123.94 134.46 124.33 L 133.56 124.72 C 132.69 125.10 132.29 126.12 132.67 126.99 C 133.05 127.86 134.07 128.26 134.94 127.88 Z M 135.84 127.48 L 136.79 127.06 C 137.66 126.68 138.05 125.67 137.67 124.80 C 137.29 123.93 136.27 123.53 135.40 123.91 L 134.46 124.33 C 133.59 124.71 133.19 125.73 133.57 126.60 C 133.96 127.47 134.97 127.86 135.84 127.48 Z M 136.79 127.06 L 137.75 126.63 C 138.62 126.25 139.01 125.23 138.63 124.37 C 138.24 123.50 137.23 123.11 136.36 123.49 L 135.40 123.92 C 134.53 124.30 134.14 125.32 134.52 126.18 C 134.91 127.05 135.92 127.44 136.79 127.06 Z M 137.76 126.62 L 138.75 126.18 C 139.61 125.79 139.99 124.78 139.61 123.92 C 139.22 123.06 138.21 122.67 137.34 123.06 L 136.36 123.50 C 135.49 123.89 135.11 124.90 135.50 125.76 C 135.88 126.63 136.90 127.01 137.76 126.62 Z M 138.75 126.17 L 139.72 125.73 C 140.57 125.34 140.95 124.33 140.56 123.48 C 140.18 122.62 139.17 122.24 138.31 122.63 L 137.34 123.07 C 136.48 123.46 136.10 124.47 136.49 125.32 C 136.88 126.18 137.89 126.56 138.75 126.17 Z M 139.71 125.73 L 140.62 125.31 C 141.48 124.93 141.86 123.92 141.47 123.07 C 141.08 122.21 140.08 121.83 139.22 122.22 L 138.31 122.64 C 137.46 123.02 137.08 124.03 137.47 124.88 C 137.85 125.73 138.86 126.11 139.71 125.73 Z M 140.61 125.31 L 141.45 124.94 C 142.30 124.55 142.68 123.56 142.30 122.70 C 141.92 121.85 140.92 121.47 140.07 121.85 L 139.23 122.23 C 138.38 122.61 138.00 123.61 138.38 124.46 C 138.76 125.31 139.76 125.69 140.61 125.31 Z M 141.42 124.94 L 142.39 124.52 C 143.25 124.15 143.64 123.17 143.27 122.31 C 142.91 121.46 141.92 121.07 141.06 121.43 L 140.09 121.85 C 139.24 122.22 138.85 123.20 139.21 124.06 C 139.58 124.91 140.57 125.31 141.42 124.94 Z M 142.34 124.53 L 143.26 124.17 C 144.12 123.83 144.54 122.86 144.20 122.00 C 143.86 121.14 142.89 120.72 142.03 121.06 L 141.11 121.42 C 140.25 121.76 139.83 122.73 140.17 123.59 C 140.51 124.45 141.48 124.87 142.34 124.53 Z M 143.20 124.19 L 144.06 123.89 C 144.93 123.59 145.39 122.63 145.09 121.76 C 144.78 120.89 143.83 120.43 142.96 120.74 L 142.10 121.04 C 141.23 121.34 140.77 122.29 141.07 123.16 C 141.37 124.03 142.33 124.49 143.20 124.19 Z M 143.90 123.96 L 145.00 123.70 C 145.91 123.49 146.48 122.58 146.27 121.67 C 146.05 120.76 145.14 120.20 144.23 120.41 L 143.13 120.66 C 142.22 120.88 141.65 121.78 141.86 122.70 C 142.07 123.61 142.98 124.17 143.90 123.96 Z M 143.76 123.58 L 144.39 123.93 C 145.23 124.40 146.29 124.10 146.77 123.26 C 147.24 122.42 146.94 121.36 146.10 120.89 L 145.47 120.53 C 144.63 120.06 143.57 120.36 143.10 121.20 C 142.62 122.04 142.92 123.10 143.76 123.58 Z M 143.47 122.33 L 143.44 123.07 C 143.39 124.05 144.15 124.88 145.13 124.93 C 146.11 124.98 146.94 124.22 146.98 123.24 L 147.02 122.49 C 147.06 121.51 146.31 120.68 145.33 120.64 C 144.35 120.59 143.52 121.35 143.47 122.33 Z M 143.49 122.67 L 143.20 123.70 C 142.94 124.64 143.49 125.63 144.43 125.90 C 145.38 126.17 146.37 125.61 146.64 124.67 L 146.93 123.64 C 147.19 122.70 146.64 121.71 145.70 121.44 C 144.75 121.17 143.76 121.72 143.49 122.67 Z M 143.23 123.58 L 142.84 124.68 C 142.51 125.61 143.00 126.63 143.93 126.96 C 144.86 127.30 145.89 126.81 146.22 125.88 L 146.61 124.78 C 146.94 123.85 146.45 122.82 145.52 122.49 C 144.59 122.16 143.56 122.65 143.23 123.58 Z M 142.84 124.67 L 142.49 125.65 C 142.16 126.59 142.64 127.61 143.58 127.95 C 144.51 128.28 145.54 127.79 145.87 126.86 L 146.22 125.88 C 146.55 124.95 146.07 123.92 145.13 123.59 C 144.20 123.25 143.17 123.74 142.84 124.67 Z M 142.48 125.69 L 142.18 126.61 C 141.86 127.55 142.37 128.56 143.31 128.87 C 144.25 129.19 145.26 128.68 145.57 127.74 L 145.88 126.82 C 146.19 125.88 145.68 124.87 144.75 124.56 C 143.81 124.25 142.79 124.75 142.48 125.69 Z M 142.17 126.66 L 141.88 127.61 C 141.60 128.55 142.13 129.55 143.08 129.83 C 144.02 130.12 145.02 129.58 145.30 128.64 L 145.59 127.69 C 145.87 126.74 145.33 125.75 144.39 125.47 C 143.45 125.18 142.45 125.72 142.17 126.66 Z M 141.88 127.66 L 141.62 128.62 C 141.36 129.56 141.92 130.54 142.87 130.80 C 143.81 131.05 144.79 130.49 145.05 129.55 L 145.31 128.59 C 145.56 127.64 145.00 126.66 144.06 126.41 C 143.11 126.15 142.13 126.71 141.88 127.66 Z M 141.62 128.65 L 141.37 129.64 C 141.13 130.59 141.71 131.55 142.65 131.78 C 143.60 132.02 144.56 131.45 144.79 130.50 L 145.04 129.51 C 145.28 128.56 144.71 127.61 143.76 127.37 C 142.82 127.13 141.86 127.71 141.62 128.65 Z M 141.38 129.67 L 141.14 130.67 C 140.92 131.61 141.51 132.55 142.45 132.77 C 143.39 132.99 144.33 132.41 144.55 131.47 L 144.79 130.47 C 145.01 129.53 144.42 128.59 143.48 128.37 C 142.54 128.15 141.60 128.73 141.38 129.67 Z M 141.15 130.69 L 140.94 131.66 C 140.73 132.60 141.32 133.52 142.26 133.73 C 143.19 133.94 144.12 133.35 144.33 132.41 L 144.54 131.44 C 144.75 130.51 144.16 129.58 143.22 129.38 C 142.29 129.17 141.36 129.76 141.15 130.69 Z M 140.96 131.69 L 140.75 132.73 C 140.56 133.65 141.16 134.55 142.08 134.74 C 143.01 134.93 143.91 134.33 144.09 133.41 L 144.30 132.38 C 144.49 131.45 143.90 130.55 142.97 130.36 C 142.05 130.18 141.15 130.77 140.96 131.69 Z M 140.79 132.77 L 140.61 133.72 C 140.45 134.63 141.05 135.49 141.96 135.66 C 142.86 135.82 143.73 135.22 143.89 134.31 L 144.06 133.36 C 144.22 132.46 143.62 131.59 142.72 131.43 C 141.81 131.27 140.95 131.87 140.79 132.77 Z M 140.65 133.77 L 140.50 134.71 C 140.36 135.60 140.97 136.43 141.85 136.57 C 142.74 136.70 143.57 136.10 143.71 135.21 L 143.86 134.27 C 144.00 133.38 143.39 132.55 142.50 132.41 C 141.62 132.28 140.79 132.88 140.65 133.77 Z M 140.52 134.74 L 140.39 135.71 C 140.26 136.59 140.87 137.39 141.75 137.51 C 142.62 137.64 143.43 137.03 143.55 136.15 L 143.69 135.18 C 143.81 134.31 143.20 133.50 142.32 133.38 C 141.45 133.26 140.64 133.87 140.52 134.74 Z M 140.40 135.73 L 140.27 136.73 C 140.16 137.60 140.77 138.39 141.64 138.50 C 142.51 138.61 143.30 138.00 143.41 137.14 L 143.54 136.13 C 143.65 135.27 143.04 134.47 142.17 134.36 C 141.30 134.25 140.51 134.86 140.40 135.73 Z M 140.28 136.74 L 140.19 137.53 C 140.08 138.39 140.69 139.17 141.55 139.28 C 142.41 139.39 143.19 138.78 143.30 137.92 L 143.40 137.13 C 143.50 136.27 142.89 135.48 142.03 135.38 C 141.17 135.27 140.39 135.88 140.28 136.74 Z"
      fill="black"
      fill-rule="nonzero" /><path d="M 129.79 138.38 L 130.78 138.55 C 131.71 138.72 132.60 138.10 132.76 137.17 C 132.93 136.24 132.30 135.35 131.37 135.18 L 130.38 135.01 C 129.45 134.85 128.57 135.47 128.40 136.40 C 128.24 137.33 128.86 138.22 129.79 138.38 Z M 130.98 138.64 L 131.97 138.70 C 132.94 138.75 133.78 138.01 133.84 137.03 C 133.90 136.05 133.15 135.21 132.17 135.15 L 131.18 135.10 C 130.20 135.04 129.36 135.79 129.31 136.77 C 129.25 137.75 130.00 138.58 130.98 138.64 Z M 132.36 138.71 L 133.30 138.56 C 134.29 138.39 134.95 137.46 134.79 136.48 C 134.63 135.49 133.70 134.83 132.71 134.99 L 131.77 135.14 C 130.79 135.30 130.12 136.23 130.28 137.22 C 130.45 138.20 131.38 138.87 132.36 138.71 Z M 133.64 138.45 L 134.56 138.10 C 135.48 137.75 135.95 136.72 135.60 135.79 C 135.25 134.87 134.22 134.40 133.29 134.75 L 132.38 135.10 C 131.45 135.45 130.98 136.48 131.33 137.40 C 131.68 138.33 132.72 138.80 133.64 138.45 Z M 134.72 137.99 L 135.67 137.51 C 136.53 137.07 136.87 136.01 136.43 135.15 C 135.99 134.29 134.94 133.94 134.07 134.38 L 133.13 134.86 C 132.27 135.30 131.92 136.36 132.36 137.22 C 132.80 138.08 133.86 138.43 134.72 137.99 Z M 135.72 137.43 L 136.58 136.95 C 137.40 136.48 137.69 135.43 137.22 134.61 C 136.75 133.79 135.71 133.50 134.89 133.97 L 134.02 134.45 C 133.20 134.92 132.91 135.97 133.38 136.79 C 133.85 137.61 134.89 137.90 135.72 137.43 Z M 136.58 136.89 L 137.45 136.38 C 138.24 135.91 138.51 134.89 138.04 134.10 C 137.57 133.30 136.55 133.04 135.75 133.50 L 134.88 134.02 C 134.09 134.49 133.82 135.51 134.29 136.30 C 134.76 137.10 135.78 137.36 136.58 136.89 Z M 137.43 136.34 L 138.29 135.84 C 139.06 135.38 139.32 134.38 138.87 133.61 C 138.41 132.83 137.41 132.58 136.64 133.03 L 135.78 133.54 C 135.00 134.00 134.74 135.00 135.20 135.77 C 135.66 136.54 136.65 136.80 137.43 136.34 Z M 138.26 135.82 L 139.15 135.31 C 139.91 134.87 140.18 133.90 139.74 133.13 C 139.30 132.37 138.32 132.10 137.56 132.54 L 136.67 133.05 C 135.90 133.49 135.64 134.46 136.08 135.23 C 136.52 135.99 137.49 136.26 138.26 135.82 Z M 139.12 135.31 L 139.99 134.82 C 140.75 134.40 141.02 133.43 140.60 132.67 C 140.17 131.91 139.21 131.64 138.45 132.06 L 137.58 132.55 C 136.82 132.97 136.54 133.93 136.97 134.70 C 137.40 135.46 138.36 135.73 139.12 135.31 Z M 139.97 134.81 L 140.61 134.47 C 141.36 134.05 141.64 133.09 141.22 132.34 C 140.80 131.58 139.85 131.30 139.09 131.72 L 138.46 132.07 C 137.70 132.49 137.43 133.44 137.84 134.20 C 138.26 134.96 139.22 135.23 139.97 134.81 Z"
      fill="black"
      fill-rule="nonzero" /><path d="M 128.69 150.34 L 129.35 149.86 C 130.10 149.32 130.27 148.28 129.73 147.53 C 129.19 146.79 128.15 146.62 127.40 147.16 L 126.73 147.64 C 125.99 148.18 125.82 149.22 126.36 149.97 C 126.90 150.71 127.94 150.88 128.69 150.34 Z M 129.36 149.92 L 130.17 149.36 C 130.94 148.81 131.13 147.74 130.59 146.96 C 130.04 146.18 128.97 145.99 128.19 146.54 L 127.39 147.10 C 126.61 147.64 126.42 148.72 126.97 149.49 C 127.51 150.27 128.59 150.46 129.36 149.92 Z M 130.17 149.41 L 131.14 148.76 C 131.95 148.21 132.16 147.12 131.62 146.31 C 131.07 145.50 129.98 145.28 129.17 145.83 L 128.19 146.48 C 127.39 147.03 127.17 148.12 127.71 148.93 C 128.26 149.74 129.36 149.96 130.17 149.41 Z M 131.13 148.78 L 131.93 148.25 C 132.75 147.72 132.98 146.61 132.44 145.79 C 131.90 144.97 130.80 144.74 129.98 145.28 L 129.18 145.80 C 128.36 146.34 128.13 147.45 128.67 148.27 C 129.20 149.09 130.31 149.32 131.13 148.78 Z M 131.92 148.25 L 132.79 147.68 C 133.61 147.15 133.84 146.06 133.31 145.24 C 132.78 144.42 131.68 144.19 130.86 144.72 L 129.99 145.28 C 129.17 145.81 128.94 146.91 129.47 147.73 C 130.00 148.55 131.10 148.78 131.92 148.25 Z M 132.78 147.68 L 133.66 147.11 C 134.48 146.58 134.71 145.49 134.19 144.68 C 133.66 143.86 132.57 143.63 131.76 144.15 L 130.87 144.73 C 130.06 145.25 129.82 146.34 130.35 147.15 C 130.88 147.97 131.96 148.20 132.78 147.68 Z M 133.65 147.10 L 134.50 146.56 C 135.31 146.04 135.54 144.96 135.02 144.15 C 134.50 143.34 133.42 143.10 132.61 143.62 L 131.77 144.16 C 130.96 144.68 130.72 145.76 131.24 146.57 C 131.77 147.38 132.84 147.62 133.65 147.10 Z M 134.48 146.53 L 135.44 145.92 C 136.24 145.41 136.47 144.34 135.95 143.54 C 135.44 142.75 134.38 142.52 133.58 143.03 L 132.62 143.64 C 131.82 144.16 131.59 145.22 132.11 146.02 C 132.62 146.82 133.68 147.05 134.48 146.53 Z M 135.41 145.88 L 136.29 145.32 C 137.06 144.82 137.29 143.79 136.79 143.01 C 136.29 142.23 135.26 142.01 134.48 142.51 L 133.61 143.07 C 132.83 143.57 132.60 144.60 133.10 145.38 C 133.60 146.15 134.63 146.38 135.41 145.88 Z M 136.25 145.28 L 136.99 144.81 C 137.74 144.34 137.97 143.34 137.49 142.58 C 137.01 141.83 136.02 141.60 135.26 142.08 L 134.52 142.54 C 133.77 143.02 133.54 144.02 134.02 144.77 C 134.49 145.53 135.49 145.76 136.25 145.28 Z M 136.94 144.79 L 137.75 144.31 C 138.49 143.85 138.73 142.88 138.28 142.14 C 137.82 141.40 136.85 141.16 136.11 141.61 L 135.30 142.10 C 134.56 142.55 134.32 143.52 134.77 144.26 C 135.23 145.01 136.20 145.25 136.94 144.79 Z M 137.71 144.31 L 138.58 143.81 C 139.32 143.37 139.58 142.41 139.14 141.67 C 138.70 140.92 137.75 140.67 137.00 141.10 L 136.14 141.61 C 135.39 142.04 135.14 143.00 135.58 143.75 C 136.01 144.49 136.97 144.74 137.71 144.31 Z M 138.56 143.81 L 139.19 143.45 C 139.94 143.02 140.20 142.07 139.77 141.32 C 139.34 140.57 138.39 140.31 137.64 140.74 L 137.01 141.10 C 136.26 141.53 136.00 142.48 136.43 143.23 C 136.86 143.98 137.82 144.24 138.56 143.81 Z"
      fill="black"
      fill-rule="nonzero" /><path d="M 126.25 137.83 L 126.04 138.76 C 125.83 139.67 126.40 140.58 127.32 140.79 C 128.23 141.00 129.14 140.43 129.35 139.51 L 129.56 138.59 C 129.77 137.68 129.20 136.77 128.29 136.56 C 127.37 136.35 126.46 136.92 126.25 137.83 Z M 126.02 138.80 L 125.83 139.78 C 125.64 140.70 126.24 141.60 127.16 141.79 C 128.09 141.97 128.99 141.37 129.17 140.45 L 129.37 139.47 C 129.55 138.55 128.96 137.65 128.03 137.46 C 127.11 137.28 126.21 137.88 126.02 138.80 Z M 125.81 139.85 L 125.65 140.86 C 125.50 141.80 126.15 142.67 127.08 142.82 C 128.02 142.96 128.89 142.32 129.04 141.38 L 129.19 140.38 C 129.34 139.44 128.70 138.56 127.76 138.42 C 126.83 138.27 125.95 138.92 125.81 139.85 Z M 125.63 140.93 L 125.53 141.87 C 125.42 142.81 126.10 143.66 127.04 143.77 C 127.98 143.88 128.84 143.20 128.94 142.26 L 129.05 141.32 C 129.16 140.37 128.48 139.52 127.54 139.41 C 126.60 139.31 125.74 139.98 125.63 140.93 Z M 125.52 141.91 L 125.43 142.92 C 125.34 143.86 126.04 144.70 126.98 144.79 C 127.93 144.88 128.77 144.18 128.86 143.23 L 128.95 142.22 C 129.04 141.27 128.34 140.43 127.39 140.35 C 126.45 140.26 125.61 140.96 125.52 141.91 Z M 125.42 142.94 L 125.33 144.00 C 125.26 144.95 125.97 145.78 126.92 145.86 C 127.87 145.93 128.70 145.22 128.78 144.27 L 128.87 143.21 C 128.94 142.26 128.23 141.43 127.28 141.35 C 126.33 141.27 125.50 141.98 125.42 142.94 Z M 125.33 144.00 L 125.25 145.05 C 125.18 146.00 125.89 146.84 126.84 146.91 C 127.80 146.98 128.63 146.27 128.70 145.32 L 128.78 144.27 C 128.86 143.31 128.14 142.48 127.19 142.41 C 126.24 142.34 125.41 143.05 125.33 144.00 Z M 125.25 145.05 L 125.17 146.08 C 125.10 147.04 125.81 147.87 126.76 147.94 C 127.71 148.02 128.55 147.30 128.62 146.35 L 128.70 145.32 C 128.77 144.37 128.06 143.53 127.11 143.46 C 126.16 143.39 125.33 144.10 125.25 145.05 Z M 125.17 146.08 L 125.09 147.06 C 125.02 148.01 125.72 148.84 126.68 148.92 C 127.63 149.00 128.46 148.29 128.54 147.34 L 128.62 146.36 C 128.70 145.41 127.99 144.57 127.04 144.49 C 126.09 144.42 125.25 145.12 125.17 146.08 Z M 125.10 147.04 L 125.01 148.03 C 124.92 148.98 125.62 149.82 126.57 149.90 C 127.52 149.99 128.36 149.29 128.44 148.34 L 128.53 147.35 C 128.62 146.41 127.92 145.56 126.97 145.48 C 126.03 145.39 125.19 146.09 125.10 147.04 Z M 125.02 148.00 L 124.90 149.04 C 124.80 149.98 125.48 150.83 126.43 150.93 C 127.37 151.03 128.22 150.35 128.32 149.41 L 128.43 148.37 C 128.54 147.43 127.85 146.58 126.91 146.48 C 125.97 146.38 125.12 147.06 125.02 148.00 Z M 124.92 149.01 L 124.80 149.93 C 124.69 150.87 125.36 151.72 126.29 151.84 C 127.23 151.95 128.08 151.28 128.20 150.35 L 128.31 149.43 C 128.42 148.49 127.76 147.64 126.82 147.52 C 125.88 147.41 125.03 148.08 124.92 149.01 Z M 124.81 149.92 L 124.69 150.88 C 124.57 151.81 125.23 152.67 126.16 152.78 C 127.10 152.90 127.95 152.24 128.07 151.31 L 128.19 150.35 C 128.31 149.42 127.65 148.57 126.72 148.45 C 125.78 148.33 124.93 148.99 124.81 149.92 Z M 124.70 150.87 L 124.56 151.86 C 124.44 152.78 125.09 153.64 126.01 153.77 C 126.94 153.89 127.79 153.24 127.92 152.32 L 128.06 151.33 C 128.18 150.40 127.54 149.54 126.61 149.42 C 125.68 149.29 124.83 149.94 124.70 150.87 Z M 124.57 151.82 L 124.42 152.81 C 124.27 153.73 124.90 154.60 125.82 154.74 C 126.75 154.89 127.61 154.26 127.76 153.34 L 127.91 152.35 C 128.06 151.43 127.43 150.56 126.51 150.42 C 125.58 150.27 124.72 150.90 124.57 151.82 Z M 124.43 152.78 L 124.25 153.76 C 124.09 154.68 124.70 155.55 125.62 155.72 C 126.53 155.88 127.41 155.27 127.57 154.35 L 127.75 153.37 C 127.91 152.45 127.30 151.58 126.38 151.42 C 125.47 151.26 124.59 151.87 124.43 152.78 Z M 124.26 153.75 L 124.07 154.74 C 123.90 155.65 124.50 156.53 125.41 156.70 C 126.32 156.88 127.20 156.28 127.37 155.37 L 127.56 154.37 C 127.74 153.46 127.14 152.58 126.22 152.41 C 125.31 152.24 124.43 152.83 124.26 153.75 Z M 124.08 154.74 L 123.89 155.69 C 123.72 156.60 124.31 157.48 125.22 157.66 C 126.13 157.83 127.01 157.24 127.19 156.33 L 127.37 155.37 C 127.55 154.46 126.95 153.58 126.04 153.41 C 125.13 153.23 124.25 153.83 124.08 154.74 Z M 123.90 155.69 L 123.71 156.68 C 123.53 157.58 124.13 158.46 125.03 158.63 C 125.94 158.81 126.82 158.22 126.99 157.31 L 127.18 156.33 C 127.36 155.42 126.76 154.54 125.86 154.37 C 124.95 154.19 124.07 154.79 123.90 155.69 Z M 123.71 156.68 L 123.52 157.68 C 123.34 158.58 123.94 159.46 124.84 159.63 C 125.75 159.81 126.62 159.21 126.80 158.31 L 126.99 157.31 C 127.16 156.40 126.57 155.53 125.67 155.35 C 124.76 155.18 123.88 155.77 123.71 156.68 Z M 123.52 157.68 L 123.33 158.66 C 123.15 159.57 123.75 160.45 124.65 160.62 C 125.56 160.80 126.43 160.20 126.61 159.30 L 126.80 158.31 C 126.97 157.40 126.38 156.53 125.47 156.35 C 124.57 156.18 123.69 156.77 123.52 157.68 Z M 123.33 158.65 L 123.13 159.64 C 122.95 160.55 123.54 161.43 124.45 161.61 C 125.35 161.79 126.23 161.20 126.41 160.29 L 126.61 159.31 C 126.79 158.40 126.20 157.52 125.29 157.34 C 124.39 157.16 123.51 157.75 123.33 158.65 Z M 123.13 159.62 L 122.93 160.62 C 122.74 161.53 123.31 162.41 124.22 162.60 C 125.12 162.79 126.01 162.21 126.20 161.31 L 126.41 160.31 C 126.60 159.41 126.02 158.52 125.12 158.33 C 124.21 158.14 123.32 158.72 123.13 159.62 Z M 122.94 160.60 L 122.72 161.58 C 122.51 162.47 123.08 163.37 123.97 163.57 C 124.87 163.77 125.76 163.21 125.96 162.31 L 126.19 161.33 C 126.39 160.44 125.83 159.55 124.93 159.34 C 124.03 159.14 123.14 159.70 122.94 160.60 Z M 122.74 161.55 L 122.50 162.49 C 122.29 163.38 122.83 164.28 123.72 164.49 C 124.60 164.71 125.50 164.17 125.71 163.28 L 125.95 162.34 C 126.16 161.45 125.62 160.56 124.73 160.34 C 123.85 160.12 122.95 160.67 122.74 161.55 Z M 122.51 162.47 L 122.31 163.24 C 122.08 164.12 122.61 165.03 123.49 165.26 C 124.37 165.49 125.27 164.96 125.50 164.08 L 125.71 163.31 C 125.94 162.42 125.41 161.52 124.53 161.29 C 123.65 161.06 122.74 161.59 122.51 162.47 Z M 122.31 163.22 L 122.07 164.11 C 121.82 164.99 122.34 165.90 123.23 166.14 C 124.11 166.39 125.02 165.87 125.26 164.98 L 125.51 164.10 C 125.75 163.21 125.23 162.30 124.35 162.06 C 123.46 161.82 122.55 162.34 122.31 163.22 Z M 122.06 164.10 L 121.74 165.23 C 121.50 166.12 122.01 167.04 122.90 167.29 C 123.78 167.53 124.70 167.02 124.95 166.13 L 125.27 164.99 C 125.52 164.11 125.00 163.19 124.11 162.94 C 123.23 162.69 122.31 163.21 122.06 164.10 Z M 121.72 165.23 L 121.40 166.37 C 121.15 167.27 121.67 168.20 122.57 168.45 C 123.46 168.70 124.39 168.18 124.65 167.28 L 124.97 166.14 C 125.22 165.24 124.70 164.31 123.80 164.06 C 122.91 163.81 121.98 164.33 121.72 165.23 Z M 121.36 166.38 L 121.05 167.53 C 120.80 168.45 121.34 169.39 122.26 169.64 C 123.18 169.89 124.12 169.35 124.37 168.43 L 124.69 167.28 C 124.94 166.36 124.39 165.42 123.48 165.17 C 122.56 164.92 121.61 165.46 121.36 166.38 Z M 121.00 167.55 L 120.73 168.65 C 120.49 169.59 121.07 170.55 122.02 170.79 C 122.96 171.02 123.92 170.44 124.15 169.50 L 124.42 168.40 C 124.66 167.46 124.08 166.50 123.14 166.27 C 122.19 166.03 121.23 166.61 121.00 167.55 Z M 120.67 168.73 L 120.49 169.61 C 120.30 170.59 120.94 171.54 121.92 171.73 C 122.90 171.92 123.85 171.28 124.04 170.30 L 124.21 169.42 C 124.40 168.44 123.77 167.49 122.79 167.30 C 121.81 167.11 120.86 167.75 120.67 168.73 Z M 120.42 169.97 L 120.42 170.53 C 120.43 171.55 121.26 172.37 122.28 172.37 C 123.30 172.36 124.12 171.53 124.12 170.51 L 124.11 169.95 C 124.11 168.93 123.28 168.11 122.26 168.11 C 121.24 168.12 120.42 168.95 120.42 169.97 Z M 123.07 172.21 L 123.51 172.01 C 124.44 171.57 124.84 170.45 124.40 169.51 C 123.95 168.58 122.83 168.18 121.90 168.62 L 121.47 168.83 C 120.53 169.27 120.13 170.39 120.58 171.32 C 121.02 172.26 122.14 172.66 123.07 172.21 Z M 124.20 171.48 L 124.95 170.52 C 125.59 169.69 125.44 168.50 124.61 167.86 C 123.79 167.21 122.59 167.36 121.95 168.19 L 121.21 169.15 C 120.56 169.98 120.71 171.17 121.54 171.81 C 122.37 172.46 123.56 172.31 124.20 171.48 Z M 125.01 170.46 L 125.67 169.53 C 126.28 168.67 126.07 167.47 125.21 166.86 C 124.35 166.25 123.16 166.46 122.55 167.32 L 121.89 168.25 C 121.28 169.11 121.48 170.30 122.35 170.91 C 123.21 171.52 124.40 171.32 125.01 170.46 Z M 125.67 169.53 L 126.24 168.72 C 126.85 167.85 126.65 166.66 125.78 166.05 C 124.92 165.44 123.72 165.64 123.11 166.51 L 122.54 167.32 C 121.93 168.18 122.14 169.38 123.00 169.99 C 123.87 170.60 125.06 170.39 125.67 169.53 Z M 126.24 168.72 L 126.82 167.90 C 127.43 167.04 127.23 165.84 126.37 165.23 C 125.50 164.62 124.31 164.83 123.69 165.69 L 123.12 166.51 C 122.50 167.37 122.71 168.57 123.57 169.18 C 124.44 169.79 125.63 169.58 126.24 168.72 Z M 126.82 167.91 L 127.41 167.09 C 128.02 166.23 127.82 165.03 126.96 164.41 C 126.10 163.80 124.90 164.00 124.29 164.86 L 123.70 165.68 C 123.08 166.54 123.28 167.74 124.14 168.36 C 125.01 168.97 126.20 168.77 126.82 167.91 Z M 127.40 167.10 L 127.98 166.30 C 128.60 165.44 128.41 164.24 127.55 163.62 C 126.69 163.00 125.50 163.19 124.87 164.05 L 124.29 164.85 C 123.67 165.71 123.86 166.90 124.72 167.53 C 125.58 168.15 126.78 167.96 127.40 167.10 Z M 127.97 166.31 L 128.56 165.51 C 129.19 164.66 129.01 163.46 128.16 162.83 C 127.31 162.20 126.11 162.38 125.48 163.23 L 124.89 164.03 C 124.26 164.88 124.44 166.08 125.29 166.71 C 126.14 167.34 127.34 167.16 127.97 166.31 Z M 128.54 165.54 L 129.15 164.74 C 129.79 163.90 129.63 162.69 128.79 162.05 C 127.95 161.41 126.75 161.57 126.11 162.41 L 125.50 163.21 C 124.85 164.05 125.02 165.25 125.86 165.89 C 126.70 166.54 127.90 166.38 128.54 165.54 Z M 129.13 164.77 L 129.76 163.98 C 130.42 163.15 130.28 161.94 129.45 161.28 C 128.63 160.63 127.42 160.76 126.76 161.59 L 126.13 162.38 C 125.47 163.21 125.61 164.41 126.44 165.07 C 127.26 165.73 128.47 165.59 129.13 164.77 Z M 129.73 164.01 L 130.38 163.22 C 131.06 162.41 130.95 161.21 130.14 160.53 C 129.33 159.85 128.13 159.96 127.45 160.77 L 126.79 161.56 C 126.12 162.37 126.22 163.57 127.03 164.25 C 127.84 164.93 129.05 164.82 129.73 164.01 Z M 130.35 163.26 L 131.02 162.49 C 131.72 161.70 131.64 160.50 130.85 159.80 C 130.06 159.11 128.85 159.18 128.16 159.97 L 127.48 160.74 C 126.79 161.53 126.86 162.73 127.66 163.43 C 128.45 164.13 129.65 164.05 130.35 163.26 Z M 130.98 162.53 L 131.66 161.79 C 132.38 161.02 132.33 159.82 131.56 159.11 C 130.79 158.39 129.59 158.44 128.87 159.21 L 128.19 159.94 C 127.48 160.71 127.52 161.91 128.29 162.63 C 129.07 163.34 130.27 163.30 130.98 162.53 Z M 131.62 161.83 L 132.30 161.14 C 133.03 160.39 133.02 159.19 132.27 158.46 C 131.53 157.72 130.32 157.73 129.59 158.48 L 128.91 159.17 C 128.18 159.92 128.19 161.12 128.94 161.86 C 129.69 162.59 130.89 162.58 131.62 161.83 Z M 132.24 161.17 L 133.01 160.45 C 133.76 159.73 133.79 158.54 133.07 157.79 C 132.35 157.03 131.16 157.01 130.41 157.72 L 129.65 158.45 C 128.89 159.17 128.87 160.36 129.58 161.11 C 130.30 161.86 131.49 161.89 132.24 161.17 Z M 132.94 160.47 L 133.69 159.80 C 134.46 159.12 134.53 157.95 133.85 157.18 C 133.17 156.41 132.00 156.34 131.23 157.03 L 130.47 157.70 C 129.71 158.38 129.64 159.55 130.32 160.32 C 131.00 161.09 132.17 161.16 132.94 160.47 Z M 133.63 159.83 L 134.37 159.21 C 135.15 158.57 135.26 157.41 134.62 156.63 C 133.97 155.85 132.82 155.74 132.04 156.39 L 131.29 157.00 C 130.51 157.65 130.41 158.80 131.05 159.58 C 131.69 160.36 132.85 160.47 133.63 159.83 Z M 134.31 159.23 L 135.10 158.62 C 135.89 158.01 136.03 156.88 135.42 156.09 C 134.81 155.30 133.68 155.15 132.89 155.76 L 132.10 156.37 C 131.31 156.98 131.17 158.11 131.78 158.90 C 132.38 159.69 133.52 159.84 134.31 159.23 Z M 135.04 158.64 L 135.86 158.04 C 136.66 157.47 136.84 156.35 136.26 155.55 C 135.69 154.75 134.57 154.57 133.77 155.15 L 132.95 155.75 C 132.15 156.32 131.97 157.44 132.55 158.24 C 133.12 159.04 134.24 159.22 135.04 158.64 Z M 135.81 158.05 L 136.62 157.50 C 137.42 156.96 137.63 155.86 137.09 155.06 C 136.54 154.25 135.45 154.04 134.64 154.59 L 133.83 155.14 C 133.02 155.68 132.81 156.78 133.36 157.58 C 133.91 158.39 135.00 158.60 135.81 158.05 Z M 136.57 157.51 L 137.41 156.98 C 138.22 156.46 138.46 155.38 137.94 154.57 C 137.42 153.76 136.34 153.52 135.53 154.04 L 134.69 154.58 C 133.88 155.10 133.64 156.17 134.16 156.98 C 134.68 157.80 135.76 158.03 136.57 157.51 Z M 137.35 157.00 L 138.22 156.49 C 139.04 156.00 139.32 154.94 138.83 154.12 C 138.35 153.29 137.29 153.02 136.46 153.50 L 135.59 154.02 C 134.77 154.50 134.49 155.56 134.98 156.39 C 135.46 157.21 136.52 157.48 137.35 157.00 Z M 138.12 156.53 L 138.99 156.08 C 139.84 155.65 140.17 154.61 139.74 153.77 C 139.30 152.92 138.27 152.59 137.42 153.02 L 136.56 153.47 C 135.71 153.90 135.38 154.93 135.81 155.78 C 136.24 156.62 137.28 156.96 138.12 156.53 Z M 138.83 156.13 L 140.02 155.66 C 140.90 155.32 141.32 154.33 140.98 153.46 C 140.63 152.58 139.65 152.15 138.77 152.50 L 137.58 152.97 C 136.71 153.32 136.28 154.30 136.62 155.18 C 136.97 156.05 137.96 156.48 138.83 156.13 Z M 139.37 155.76 L 139.74 155.76 C 140.66 155.77 141.42 155.04 141.43 154.11 C 141.45 153.19 140.71 152.43 139.78 152.41 L 139.42 152.41 C 138.50 152.39 137.74 153.13 137.72 154.06 C 137.71 154.98 138.45 155.74 139.37 155.76 Z M 138.85 152.72 L 138.24 153.13 C 137.48 153.63 137.28 154.65 137.78 155.41 C 138.29 156.16 139.31 156.36 140.06 155.86 L 140.67 155.45 C 141.42 154.95 141.63 153.93 141.12 153.18 C 140.62 152.42 139.60 152.22 138.85 152.72 Z M 138.35 153.11 L 137.27 153.72 C 136.51 154.17 136.24 155.15 136.69 155.91 C 137.13 156.68 138.11 156.94 138.87 156.50 L 139.95 155.88 C 140.72 155.44 140.98 154.46 140.54 153.70 C 140.10 152.93 139.12 152.66 138.35 153.11 Z M 137.30 153.74 L 136.89 153.97 C 136.13 154.40 135.86 155.36 136.29 156.12 C 136.72 156.88 137.68 157.15 138.44 156.72 L 138.85 156.49 C 139.61 156.06 139.88 155.10 139.45 154.34 C 139.02 153.58 138.06 153.31 137.30 153.74 Z"
      fill="black"
      fill-rule="nonzero" /><path d="M 134.43 153.12 L 134.66 154.07 C 134.90 155.02 135.86 155.60 136.81 155.36 C 137.76 155.13 138.34 154.17 138.10 153.22 L 137.87 152.27 C 137.63 151.32 136.67 150.74 135.72 150.97 C 134.77 151.21 134.19 152.17 134.43 153.12 Z M 134.61 154.13 L 134.88 155.10 C 135.16 156.08 136.17 156.65 137.14 156.38 C 138.12 156.10 138.69 155.09 138.42 154.11 L 138.15 153.15 C 137.88 152.17 136.86 151.60 135.89 151.87 C 134.91 152.15 134.34 153.16 134.61 154.13 Z M 134.87 155.21 L 135.16 156.09 C 135.49 157.08 136.56 157.61 137.55 157.28 C 138.53 156.95 139.06 155.88 138.73 154.90 L 138.44 154.01 C 138.11 153.02 137.04 152.49 136.05 152.82 C 135.07 153.15 134.54 154.22 134.87 155.21 Z M 135.18 156.19 L 135.51 157.02 C 135.89 158.00 136.99 158.48 137.97 158.09 C 138.94 157.71 139.43 156.61 139.04 155.63 L 138.71 154.80 C 138.33 153.83 137.23 153.35 136.25 153.73 C 135.28 154.11 134.80 155.21 135.18 156.19 Z M 135.54 157.09 L 135.95 158.04 C 136.37 159.00 137.49 159.43 138.45 159.01 C 139.41 158.59 139.85 157.48 139.43 156.52 L 139.01 155.57 C 138.59 154.61 137.48 154.17 136.52 154.59 C 135.56 155.01 135.12 156.13 135.54 157.09 Z M 135.97 158.08 L 136.45 159.10 C 136.89 160.05 138.02 160.46 138.97 160.02 C 139.92 159.57 140.33 158.44 139.89 157.50 L 139.41 156.47 C 138.97 155.52 137.84 155.11 136.89 155.56 C 135.94 156.00 135.53 157.13 135.97 158.08 Z M 136.46 159.12 L 136.88 159.98 C 137.33 160.92 138.47 161.32 139.41 160.86 C 140.35 160.41 140.74 159.27 140.29 158.33 L 139.87 157.47 C 139.42 156.53 138.28 156.14 137.34 156.59 C 136.40 157.05 136.01 158.18 136.46 159.12 Z M 136.89 160.00 L 137.34 160.91 C 137.81 161.84 138.94 162.22 139.88 161.76 C 140.81 161.29 141.19 160.16 140.73 159.23 L 140.27 158.31 C 139.81 157.38 138.68 157.00 137.74 157.46 C 136.81 157.93 136.43 159.06 136.89 160.00 Z M 137.36 160.93 L 137.83 161.85 C 138.31 162.78 139.44 163.15 140.37 162.67 C 141.30 162.20 141.66 161.06 141.19 160.13 L 140.71 159.21 C 140.24 158.28 139.10 157.91 138.18 158.39 C 137.25 158.86 136.88 160.00 137.36 160.93 Z M 137.85 161.88 L 138.33 162.78 C 138.82 163.70 139.95 164.05 140.87 163.56 C 141.79 163.07 142.14 161.93 141.65 161.02 L 141.17 160.11 C 140.69 159.19 139.55 158.85 138.63 159.33 C 137.71 159.82 137.36 160.96 137.85 161.88 Z M 138.36 162.81 L 138.87 163.73 C 139.37 164.63 140.51 164.96 141.41 164.46 C 142.32 163.96 142.64 162.82 142.14 161.92 L 141.62 160.99 C 141.12 160.09 139.98 159.76 139.08 160.26 C 138.18 160.77 137.86 161.90 138.36 162.81 Z M 138.92 163.76 L 139.46 164.68 C 139.98 165.55 141.11 165.84 141.99 165.33 C 142.86 164.81 143.15 163.68 142.63 162.81 L 142.09 161.89 C 141.57 161.01 140.44 160.72 139.57 161.24 C 138.69 161.76 138.40 162.89 138.92 163.76 Z M 139.53 164.71 L 140.05 165.54 C 140.58 166.38 141.70 166.63 142.54 166.10 C 143.38 165.57 143.63 164.45 143.10 163.61 L 142.57 162.78 C 142.04 161.94 140.93 161.69 140.08 162.22 C 139.24 162.75 138.99 163.87 139.53 164.71 Z M 140.11 165.56 L 140.63 166.33 C 141.18 167.14 142.27 167.35 143.08 166.80 C 143.89 166.26 144.10 165.16 143.56 164.35 L 143.04 163.59 C 142.49 162.78 141.39 162.57 140.59 163.11 C 139.78 163.66 139.57 164.76 140.11 165.56 Z M 140.69 166.35 L 141.27 167.15 C 141.83 167.93 142.91 168.10 143.68 167.54 C 144.46 166.98 144.63 165.90 144.07 165.13 L 143.50 164.33 C 142.94 163.56 141.86 163.38 141.08 163.94 C 140.31 164.50 140.13 165.58 140.69 166.35 Z M 141.33 167.18 L 141.97 167.99 C 142.54 168.73 143.60 168.86 144.34 168.28 C 145.08 167.71 145.21 166.64 144.63 165.91 L 144.00 165.10 C 143.43 164.36 142.37 164.23 141.63 164.81 C 140.89 165.38 140.76 166.44 141.33 167.18 Z M 142.05 168.03 L 142.69 168.78 C 143.29 169.47 144.33 169.54 145.03 168.95 C 145.72 168.35 145.79 167.30 145.20 166.61 L 144.55 165.87 C 143.95 165.17 142.91 165.10 142.22 165.70 C 141.53 166.29 141.45 167.34 142.05 168.03 Z M 142.79 168.83 L 143.47 169.52 C 144.10 170.16 145.13 170.17 145.76 169.54 C 146.40 168.91 146.41 167.88 145.78 167.24 L 145.10 166.55 C 144.47 165.92 143.44 165.91 142.80 166.54 C 142.17 167.17 142.16 168.19 142.79 168.83 Z M 143.57 169.59 L 144.34 170.26 C 145.00 170.84 146.01 170.77 146.59 170.10 C 147.17 169.44 147.11 168.43 146.44 167.85 L 145.68 167.18 C 145.01 166.60 144.00 166.67 143.42 167.33 C 142.84 168.00 142.91 169.01 143.57 169.59 Z M 144.41 170.30 L 145.19 170.91 C 145.88 171.45 146.87 171.33 147.41 170.64 C 147.95 169.95 147.83 168.96 147.14 168.42 L 146.37 167.81 C 145.68 167.27 144.68 167.39 144.14 168.08 C 143.60 168.76 143.72 169.76 144.41 170.30 Z M 145.22 170.92 L 145.71 171.28 C 146.41 171.81 147.39 171.67 147.91 170.97 C 148.43 170.28 148.29 169.30 147.60 168.78 L 147.11 168.41 C 146.42 167.89 145.43 168.03 144.91 168.72 C 144.39 169.41 144.53 170.39 145.22 170.92 Z"
      fill="black"
      fill-rule="nonzero" /><path d="M 151.67 121.03 L 151.89 122.03 C 152.09 122.93 152.98 123.50 153.88 123.30 C 154.79 123.10 155.36 122.21 155.16 121.31 L 154.94 120.31 C 154.74 119.41 153.85 118.84 152.95 119.03 C 152.05 119.23 151.47 120.12 151.67 121.03 Z M 151.81 121.99 L 151.99 122.96 C 152.17 123.91 153.08 124.53 154.02 124.36 C 154.97 124.18 155.59 123.27 155.42 122.33 L 155.24 121.35 C 155.06 120.40 154.15 119.78 153.21 119.96 C 152.26 120.13 151.64 121.04 151.81 121.99 Z M 151.93 122.85 L 152.04 123.81 C 152.15 124.79 153.04 125.50 154.02 125.38 C 155.01 125.27 155.71 124.38 155.60 123.40 L 155.49 122.44 C 155.37 121.46 154.48 120.75 153.50 120.87 C 152.52 120.98 151.81 121.87 151.93 122.85 Z M 152.01 123.68 L 152.05 124.65 C 152.09 125.64 152.93 126.42 153.93 126.38 C 154.93 126.34 155.70 125.50 155.66 124.50 L 155.62 123.53 C 155.58 122.53 154.74 121.76 153.74 121.80 C 152.75 121.84 151.97 122.68 152.01 123.68 Z M 152.05 124.58 L 152.05 125.61 C 152.06 126.61 152.87 127.42 153.87 127.41 C 154.87 127.41 155.67 126.59 155.67 125.60 L 155.67 124.56 C 155.66 123.57 154.85 122.76 153.85 122.76 C 152.85 122.77 152.04 123.58 152.05 124.58 Z M 152.05 125.60 L 152.05 126.52 C 152.05 127.52 152.86 128.33 153.86 128.33 C 154.86 128.33 155.67 127.52 155.67 126.52 L 155.67 125.60 C 155.67 124.60 154.86 123.79 153.86 123.79 C 152.86 123.79 152.05 124.60 152.05 125.60 Z M 152.05 126.52 L 152.05 127.52 C 152.05 128.52 152.86 129.33 153.86 129.33 C 154.86 129.33 155.67 128.52 155.67 127.52 L 155.67 126.52 C 155.67 125.52 154.86 124.71 153.86 124.71 C 152.86 124.71 152.05 125.52 152.05 126.52 Z M 152.05 127.52 L 152.05 128.61 C 152.05 129.61 152.86 130.42 153.86 130.42 C 154.86 130.42 155.67 129.61 155.67 128.61 L 155.67 127.52 C 155.67 126.52 154.86 125.71 153.86 125.71 C 152.86 125.71 152.05 126.52 152.05 127.52 Z M 152.05 128.61 L 152.05 129.55 C 152.05 130.55 152.86 131.36 153.86 131.36 C 154.86 131.36 155.67 130.55 155.67 129.55 L 155.67 128.61 C 155.67 127.62 154.86 126.80 153.86 126.80 C 152.86 126.80 152.05 127.62 152.05 128.61 Z M 152.05 129.55 L 152.05 130.52 C 152.05 131.51 152.86 132.33 153.86 132.33 C 154.86 132.33 155.67 131.51 155.67 130.52 L 155.67 129.55 C 155.67 128.55 154.86 127.74 153.86 127.74 C 152.86 127.74 152.05 128.55 152.05 129.55 Z M 152.05 130.52 L 152.05 131.54 C 152.05 132.54 152.86 133.35 153.86 133.35 C 154.86 133.35 155.67 132.54 155.67 131.54 L 155.67 130.52 C 155.67 129.52 154.86 128.71 153.86 128.71 C 152.86 128.71 152.05 129.52 152.05 130.52 Z M 152.05 131.54 L 152.05 132.61 C 152.05 133.61 152.86 134.42 153.86 134.42 C 154.86 134.42 155.67 133.61 155.67 132.61 L 155.67 131.54 C 155.67 130.54 154.86 129.73 153.86 129.73 C 152.86 129.73 152.05 130.54 152.05 131.54 Z M 152.05 132.61 L 152.05 133.56 C 152.05 134.56 152.86 135.37 153.86 135.37 C 154.86 135.37 155.67 134.57 155.67 133.57 L 155.67 132.62 C 155.67 131.62 154.86 130.81 153.86 130.81 C 152.86 130.81 152.05 131.61 152.05 132.61 Z M 152.05 133.56 L 152.05 134.53 C 152.05 135.53 152.85 136.34 153.85 136.35 C 154.85 136.35 155.66 135.54 155.66 134.55 L 155.67 133.57 C 155.67 132.57 154.87 131.76 153.87 131.76 C 152.87 131.75 152.06 132.56 152.05 133.56 Z M 152.05 134.52 L 152.04 135.53 C 152.03 136.52 152.83 137.34 153.83 137.35 C 154.83 137.36 155.64 136.56 155.65 135.56 L 155.66 134.56 C 155.67 133.56 154.87 132.74 153.88 132.73 C 152.88 132.72 152.06 133.52 152.05 134.52 Z M 152.04 135.51 L 152.02 136.54 C 152.00 137.54 152.80 138.36 153.79 138.38 C 154.79 138.40 155.61 137.61 155.63 136.61 L 155.65 135.58 C 155.67 134.58 154.88 133.76 153.88 133.74 C 152.89 133.72 152.06 134.51 152.04 135.51 Z M 152.03 136.52 L 151.99 137.56 C 151.96 138.56 152.74 139.39 153.74 139.42 C 154.73 139.45 155.56 138.67 155.60 137.67 L 155.63 136.63 C 155.66 135.64 154.88 134.81 153.88 134.77 C 152.89 134.74 152.06 135.52 152.03 136.52 Z M 152.00 137.54 L 151.95 138.52 C 151.91 139.51 152.68 140.35 153.67 140.40 C 154.66 140.44 155.50 139.67 155.55 138.68 L 155.59 137.70 C 155.64 136.70 154.87 135.86 153.87 135.82 C 152.88 135.77 152.04 136.54 152.00 137.54 Z M 151.95 138.49 L 151.90 139.49 C 151.84 140.48 152.60 141.33 153.59 141.38 C 154.58 141.44 155.43 140.68 155.49 139.69 L 155.55 138.70 C 155.60 137.71 154.85 136.86 153.85 136.80 C 152.86 136.74 152.01 137.50 151.95 138.49 Z M 151.90 139.47 L 151.83 140.47 C 151.76 141.46 152.51 142.31 153.50 142.38 C 154.49 142.45 155.35 141.70 155.42 140.71 L 155.49 139.71 C 155.55 138.72 154.81 137.86 153.82 137.80 C 152.83 137.73 151.97 138.47 151.90 139.47 Z M 151.83 140.45 L 151.75 141.45 C 151.67 142.44 152.41 143.31 153.40 143.39 C 154.39 143.46 155.25 142.73 155.33 141.74 L 155.41 140.73 C 155.49 139.74 154.76 138.88 153.77 138.80 C 152.78 138.72 151.91 139.46 151.83 140.45 Z M 151.76 141.43 L 151.66 142.44 C 151.57 143.43 152.30 144.30 153.29 144.39 C 154.28 144.48 155.15 143.76 155.24 142.77 L 155.33 141.76 C 155.42 140.77 154.69 139.90 153.71 139.81 C 152.72 139.72 151.85 140.45 151.76 141.43 Z M 151.67 142.43 L 151.57 143.43 C 151.47 144.42 152.18 145.30 153.17 145.40 C 154.15 145.50 155.03 144.78 155.13 143.79 L 155.23 142.79 C 155.33 141.80 154.62 140.92 153.63 140.82 C 152.65 140.72 151.77 141.44 151.67 142.43 Z M 151.57 143.42 L 151.46 144.42 C 151.35 145.40 152.06 146.29 153.04 146.40 C 154.02 146.51 154.91 145.80 155.02 144.82 L 155.13 143.81 C 155.24 142.83 154.53 141.94 153.55 141.83 C 152.56 141.72 151.68 142.43 151.57 143.42 Z M 151.46 144.40 L 151.34 145.40 C 151.22 146.38 151.92 147.28 152.90 147.39 C 153.88 147.51 154.78 146.81 154.89 145.83 L 155.02 144.83 C 155.13 143.85 154.43 142.96 153.45 142.84 C 152.47 142.72 151.58 143.42 151.46 144.40 Z M 151.34 145.38 L 151.21 146.37 C 151.08 147.35 151.78 148.25 152.76 148.38 C 153.74 148.51 154.63 147.82 154.76 146.84 L 154.89 145.85 C 155.02 144.87 154.33 143.97 153.35 143.84 C 152.37 143.71 151.47 144.40 151.34 145.38 Z M 151.22 146.36 L 151.08 147.33 C 150.94 148.31 151.62 149.22 152.60 149.35 C 153.58 149.49 154.48 148.81 154.62 147.83 L 154.76 146.86 C 154.90 145.88 154.21 144.97 153.24 144.83 C 152.26 144.70 151.35 145.38 151.22 146.36 Z M 151.08 147.31 L 150.93 148.31 C 150.79 149.28 151.46 150.19 152.43 150.34 C 153.41 150.49 154.32 149.82 154.47 148.84 L 154.62 147.85 C 154.77 146.87 154.09 145.96 153.12 145.81 C 152.14 145.67 151.23 146.34 151.08 147.31 Z M 150.94 148.29 L 150.78 149.28 C 150.62 150.26 151.28 151.17 152.25 151.33 C 153.23 151.49 154.15 150.83 154.30 149.85 L 154.46 148.86 C 154.62 147.88 153.96 146.97 152.99 146.81 C 152.01 146.65 151.09 147.31 150.94 148.29 Z M 150.78 149.26 L 150.61 150.25 C 150.44 151.22 151.09 152.14 152.07 152.31 C 153.04 152.48 153.96 151.83 154.13 150.85 L 154.30 149.87 C 154.47 148.90 153.82 147.98 152.84 147.81 C 151.87 147.64 150.95 148.29 150.78 149.26 Z M 150.61 150.23 L 150.43 151.20 C 150.26 152.17 150.90 153.10 151.87 153.28 C 152.84 153.46 153.77 152.82 153.95 151.85 L 154.13 150.87 C 154.30 149.90 153.66 148.97 152.69 148.79 C 151.72 148.62 150.79 149.26 150.61 150.23 Z M 150.44 151.19 L 150.25 152.16 C 150.06 153.13 150.69 154.06 151.66 154.25 C 152.63 154.44 153.56 153.81 153.75 152.84 L 153.94 151.87 C 154.13 150.90 153.50 149.96 152.53 149.78 C 151.56 149.59 150.63 150.22 150.44 151.19 Z M 150.25 152.14 L 150.05 153.14 C 149.85 154.10 150.48 155.04 151.44 155.24 C 152.41 155.44 153.35 154.82 153.55 153.85 L 153.75 152.86 C 153.95 151.89 153.32 150.95 152.36 150.75 C 151.39 150.56 150.45 151.18 150.25 152.14 Z M 150.05 153.12 L 149.84 154.12 C 149.63 155.09 150.24 156.03 151.21 156.24 C 152.17 156.45 153.12 155.84 153.33 154.87 L 153.54 153.87 C 153.75 152.91 153.14 151.96 152.17 151.75 C 151.21 151.54 150.26 152.16 150.05 153.12 Z M 149.84 154.11 L 149.62 155.10 C 149.40 156.06 150.01 157.01 150.97 157.23 C 151.93 157.45 152.88 156.84 153.10 155.88 L 153.32 154.89 C 153.54 153.93 152.93 152.98 151.97 152.76 C 151.01 152.54 150.06 153.15 149.84 154.11 Z M 149.62 155.08 L 149.39 156.05 C 149.17 157.00 149.76 157.97 150.72 158.19 C 151.68 158.42 152.64 157.83 152.86 156.87 L 153.09 155.90 C 153.32 154.94 152.73 153.98 151.77 153.75 C 150.81 153.53 149.85 154.12 149.62 155.08 Z M 149.40 156.03 L 149.17 156.96 C 148.93 157.91 149.51 158.88 150.46 159.12 C 151.42 159.36 152.39 158.78 152.63 157.82 L 152.86 156.89 C 153.10 155.93 152.52 154.97 151.56 154.73 C 150.61 154.49 149.64 155.07 149.40 156.03 Z M 149.17 156.93 L 148.91 157.94 C 148.65 158.89 149.22 159.87 150.17 160.12 C 151.12 160.37 152.10 159.81 152.35 158.85 L 152.62 157.85 C 152.87 156.90 152.30 155.92 151.35 155.67 C 150.40 155.42 149.43 155.98 149.17 156.93 Z M 148.91 157.91 L 148.63 158.90 C 148.37 159.85 148.92 160.83 149.87 161.10 C 150.81 161.37 151.80 160.82 152.07 159.87 L 152.35 158.88 C 152.61 157.93 152.06 156.95 151.11 156.68 C 150.17 156.41 149.18 156.96 148.91 157.91 Z M 148.64 158.87 L 148.36 159.82 C 148.08 160.76 148.61 161.75 149.56 162.04 C 150.50 162.32 151.49 161.78 151.78 160.84 L 152.06 159.90 C 152.34 158.95 151.80 157.96 150.86 157.68 C 149.92 157.40 148.92 157.93 148.64 158.87 Z M 148.37 159.79 L 148.08 160.70 C 147.79 161.64 148.31 162.64 149.25 162.94 C 150.18 163.23 151.19 162.71 151.48 161.77 L 151.77 160.86 C 152.06 159.93 151.54 158.92 150.60 158.63 C 149.66 158.33 148.66 158.85 148.37 159.79 Z M 148.09 160.68 L 147.77 161.63 C 147.47 162.57 147.98 163.57 148.91 163.88 C 149.85 164.19 150.86 163.68 151.16 162.75 L 151.48 161.79 C 151.78 160.86 151.27 159.85 150.34 159.54 C 149.40 159.24 148.40 159.74 148.09 160.68 Z M 147.78 161.61 L 147.45 162.57 C 147.13 163.51 147.63 164.52 148.56 164.84 C 149.49 165.16 150.51 164.66 150.83 163.73 L 151.16 162.77 C 151.48 161.83 150.98 160.82 150.05 160.50 C 149.11 160.18 148.10 160.68 147.78 161.61 Z M 147.46 162.55 L 147.12 163.49 C 146.79 164.42 147.28 165.44 148.21 165.77 C 149.14 166.10 150.16 165.62 150.49 164.69 L 150.82 163.75 C 151.15 162.82 150.67 161.80 149.74 161.47 C 148.81 161.14 147.79 161.62 147.46 162.55 Z M 147.13 163.47 L 146.79 164.37 C 146.45 165.30 146.92 166.33 147.85 166.67 C 148.78 167.01 149.80 166.54 150.15 165.61 L 150.48 164.71 C 150.83 163.78 150.35 162.75 149.43 162.41 C 148.50 162.07 147.47 162.54 147.13 163.47 Z M 146.80 164.35 L 146.42 165.33 C 146.06 166.26 146.52 167.29 147.45 167.65 C 148.37 168.00 149.40 167.55 149.76 166.62 L 150.14 165.64 C 150.50 164.72 150.04 163.68 149.12 163.32 C 148.19 162.97 147.16 163.43 146.80 164.35 Z M 146.43 165.30 L 146.05 166.24 C 145.68 167.15 146.12 168.20 147.03 168.57 C 147.95 168.95 148.99 168.51 149.37 167.59 L 149.75 166.66 C 150.12 165.74 149.68 164.69 148.77 164.32 C 147.85 163.95 146.80 164.39 146.43 165.30 Z M 146.06 166.20 L 145.68 167.07 C 145.29 167.98 145.70 169.04 146.61 169.43 C 147.52 169.83 148.58 169.41 148.97 168.51 L 149.35 167.63 C 149.75 166.72 149.33 165.67 148.43 165.27 C 147.52 164.87 146.46 165.29 146.06 166.20 Z M 145.71 167.02 L 145.28 167.91 C 144.85 168.81 145.23 169.88 146.13 170.31 C 147.02 170.73 148.09 170.35 148.52 169.46 L 148.95 168.56 C 149.37 167.67 148.99 166.60 148.10 166.17 C 147.21 165.74 146.13 166.12 145.71 167.02 Z M 145.32 167.83 L 144.85 168.70 C 144.38 169.57 144.70 170.66 145.58 171.13 C 146.45 171.60 147.54 171.28 148.01 170.41 L 148.48 169.54 C 148.95 168.67 148.63 167.58 147.75 167.11 C 146.88 166.64 145.79 166.96 145.32 167.83 Z M 144.91 168.60 L 144.38 169.44 C 143.85 170.28 144.11 171.39 144.95 171.92 C 145.79 172.45 146.89 172.19 147.42 171.35 L 147.95 170.51 C 148.48 169.67 148.22 168.56 147.38 168.03 C 146.54 167.51 145.44 167.76 144.91 168.60 Z M 144.47 169.32 L 143.72 170.31 C 143.13 171.10 143.29 172.23 144.08 172.82 C 144.87 173.42 146.00 173.26 146.59 172.47 L 147.34 171.48 C 147.93 170.68 147.77 169.56 146.98 168.96 C 146.19 168.37 145.06 168.53 144.47 169.32 Z M 144.00 170.01 L 143.34 170.57 C 142.58 171.21 142.48 172.34 143.12 173.10 C 143.76 173.86 144.89 173.96 145.65 173.32 L 146.31 172.76 C 147.07 172.12 147.17 170.99 146.53 170.23 C 145.89 169.47 144.76 169.38 144.00 170.01 Z M 145.68 170.63 L 145.35 170.33 C 144.63 169.67 143.51 169.73 142.85 170.46 C 142.19 171.18 142.25 172.30 142.98 172.96 L 143.31 173.26 C 144.03 173.91 145.15 173.86 145.81 173.13 C 146.47 172.41 146.41 171.29 145.68 170.63 Z M 145.88 171.65 L 145.88 170.63 C 145.88 169.68 145.12 168.91 144.17 168.91 C 143.22 168.91 142.45 169.68 142.45 170.62 L 142.45 171.64 C 142.45 172.59 143.21 173.36 144.16 173.36 C 145.11 173.36 145.88 172.59 145.88 171.65 Z M 145.80 170.93 L 146.02 169.71 C 146.18 168.81 145.59 167.94 144.69 167.78 C 143.79 167.61 142.92 168.21 142.76 169.11 L 142.54 170.33 C 142.37 171.23 142.97 172.09 143.87 172.26 C 144.77 172.42 145.63 171.83 145.80 170.93 Z M 145.95 169.83 L 146.20 168.92 C 146.44 168.05 145.93 167.16 145.07 166.93 C 144.20 166.69 143.31 167.20 143.07 168.06 L 142.82 168.98 C 142.59 169.84 143.10 170.74 143.96 170.97 C 144.83 171.21 145.72 170.70 145.95 169.83 Z M 146.17 168.98 L 146.47 168.02 C 146.74 167.18 146.28 166.28 145.43 166.01 C 144.59 165.74 143.69 166.20 143.42 167.05 L 143.11 168.00 C 142.84 168.85 143.31 169.75 144.15 170.02 C 144.99 170.29 145.90 169.82 146.17 168.98 Z M 146.44 168.05 L 146.78 167.07 C 147.07 166.25 146.63 165.34 145.80 165.06 C 144.98 164.77 144.08 165.21 143.79 166.03 L 143.45 167.02 C 143.16 167.84 143.60 168.74 144.43 169.03 C 145.25 169.32 146.15 168.88 146.44 168.05 Z M 146.76 167.08 L 147.01 166.39 C 147.30 165.58 146.87 164.68 146.06 164.39 C 145.24 164.10 144.35 164.52 144.06 165.34 L 143.81 166.03 C 143.52 166.84 143.94 167.74 144.76 168.03 C 145.57 168.32 146.47 167.90 146.76 167.08 Z"
      fill="black"
      fill-rule="nonzero" /><path d="M 153.54 124.25 L 154.52 124.13 C 155.54 124.00 156.27 123.06 156.14 122.04 C 156.01 121.01 155.08 120.28 154.05 120.41 L 153.07 120.54 C 152.05 120.66 151.32 121.60 151.45 122.63 C 151.58 123.65 152.51 124.38 153.54 124.25 Z M 154.84 124.06 L 155.80 123.76 C 156.78 123.45 157.33 122.40 157.02 121.41 C 156.72 120.42 155.66 119.88 154.68 120.18 L 153.72 120.48 C 152.74 120.79 152.19 121.84 152.50 122.83 C 152.81 123.82 153.86 124.37 154.84 124.06 Z M 156.27 123.54 L 157.08 123.00 C 157.95 122.43 158.18 121.27 157.61 120.40 C 157.04 119.54 155.88 119.30 155.01 119.87 L 154.20 120.41 C 153.34 120.98 153.10 122.14 153.67 123.01 C 154.24 123.87 155.41 124.11 156.27 123.54 Z M 157.33 122.81 L 158.07 122.11 C 158.83 121.40 158.87 120.22 158.16 119.46 C 157.45 118.70 156.27 118.66 155.51 119.37 L 154.77 120.07 C 154.01 120.77 153.97 121.96 154.68 122.72 C 155.39 123.47 156.57 123.51 157.33 122.81 Z M 158.13 122.05 L 158.84 121.32 C 159.57 120.58 159.55 119.40 158.81 118.67 C 158.07 117.95 156.89 117.96 156.16 118.70 L 155.45 119.43 C 154.73 120.17 154.74 121.36 155.48 122.08 C 156.22 122.80 157.41 122.79 158.13 122.05 Z M 158.80 121.35 L 159.51 120.67 C 160.25 119.95 160.27 118.77 159.55 118.03 C 158.83 117.29 157.65 117.27 156.91 117.99 L 156.20 118.67 C 155.46 119.39 155.44 120.57 156.16 121.31 C 156.88 122.05 158.06 122.07 158.80 121.35 Z M 159.46 120.70 L 160.20 120.03 C 160.96 119.34 161.02 118.17 160.33 117.41 C 159.64 116.65 158.46 116.59 157.70 117.28 L 156.96 117.95 C 156.20 118.64 156.14 119.81 156.83 120.57 C 157.52 121.34 158.70 121.39 159.46 120.70 Z M 160.15 120.06 L 160.90 119.43 C 161.67 118.77 161.77 117.60 161.10 116.82 C 160.44 116.04 159.27 115.95 158.49 116.61 L 157.75 117.25 C 156.97 117.91 156.88 119.08 157.54 119.86 C 158.21 120.64 159.38 120.73 160.15 120.06 Z M 160.81 119.49 L 161.62 118.88 C 162.43 118.27 162.59 117.11 161.97 116.29 C 161.35 115.48 160.19 115.32 159.38 115.94 L 158.58 116.55 C 157.76 117.17 157.60 118.33 158.22 119.14 C 158.84 119.95 160.00 120.11 160.81 119.49 Z M 161.46 118.99 L 162.33 118.45 C 163.21 117.92 163.48 116.78 162.95 115.91 C 162.42 115.04 161.28 114.77 160.41 115.30 L 159.54 115.84 C 158.67 116.37 158.39 117.50 158.92 118.37 C 159.45 119.24 160.59 119.52 161.46 118.99 Z M 162.07 118.60 L 163.10 118.18 C 164.05 117.80 164.51 116.71 164.13 115.76 C 163.74 114.81 162.66 114.35 161.71 114.74 L 160.68 115.15 C 159.73 115.54 159.27 116.62 159.65 117.57 C 160.04 118.52 161.12 118.98 162.07 118.60 Z M 162.60 118.33 L 163.54 118.23 C 164.58 118.12 165.33 117.20 165.22 116.16 C 165.11 115.13 164.18 114.38 163.15 114.49 L 162.21 114.59 C 161.18 114.69 160.42 115.62 160.53 116.66 C 160.64 117.69 161.57 118.44 162.60 118.33 Z M 162.51 118.07 L 163.18 118.41 C 164.13 118.87 165.27 118.48 165.74 117.53 C 166.20 116.59 165.81 115.44 164.87 114.98 L 164.19 114.65 C 163.24 114.18 162.10 114.57 161.63 115.52 C 161.17 116.46 161.56 117.61 162.51 118.07 Z M 162.31 117.60 L 162.73 118.38 C 163.23 119.33 164.40 119.69 165.35 119.19 C 166.29 118.68 166.65 117.51 166.15 116.57 L 165.73 115.78 C 165.23 114.84 164.06 114.48 163.12 114.98 C 162.17 115.48 161.81 116.66 162.31 117.60 Z M 162.52 117.89 L 162.78 119.10 C 163.01 120.16 164.06 120.84 165.12 120.61 C 166.18 120.38 166.85 119.33 166.62 118.27 L 166.36 117.06 C 166.13 116.00 165.08 115.33 164.03 115.56 C 162.97 115.79 162.29 116.83 162.52 117.89 Z M 162.74 118.95 L 162.86 119.89 C 163.00 120.98 164.00 121.74 165.09 121.60 C 166.17 121.45 166.94 120.46 166.79 119.37 L 166.67 118.43 C 166.53 117.34 165.53 116.58 164.44 116.72 C 163.36 116.87 162.59 117.86 162.74 118.95 Z M 162.84 119.83 L 162.95 120.86 C 163.06 121.96 164.04 122.76 165.13 122.65 C 166.23 122.54 167.03 121.56 166.92 120.46 L 166.81 119.43 C 166.70 118.33 165.72 117.54 164.63 117.65 C 163.53 117.76 162.73 118.74 162.84 119.83 Z M 162.93 120.82 L 163.01 121.86 C 163.10 122.97 164.07 123.79 165.18 123.70 C 166.29 123.61 167.11 122.64 167.02 121.54 L 166.93 120.50 C 166.84 119.39 165.87 118.57 164.77 118.66 C 163.66 118.75 162.84 119.72 162.93 120.82 Z M 163.00 121.84 L 163.06 122.82 C 163.14 123.94 164.11 124.78 165.22 124.70 C 166.34 124.63 167.18 123.66 167.10 122.55 L 167.03 121.56 C 166.96 120.45 165.99 119.61 164.88 119.68 C 163.76 119.76 162.92 120.72 163.00 121.84 Z M 163.05 122.80 L 163.12 123.89 C 163.18 125.02 164.14 125.87 165.26 125.81 C 166.39 125.74 167.24 124.78 167.18 123.66 L 167.11 122.57 C 167.05 121.44 166.09 120.59 164.97 120.65 C 163.84 120.72 162.99 121.68 163.05 122.80 Z M 163.11 123.88 L 163.16 124.86 C 163.22 125.99 164.18 126.85 165.30 126.80 C 166.43 126.74 167.29 125.78 167.23 124.65 L 167.18 123.67 C 167.13 122.55 166.17 121.68 165.04 121.74 C 163.92 121.80 163.05 122.76 163.11 123.88 Z M 163.15 124.87 L 163.20 125.79 C 163.26 126.92 164.23 127.79 165.36 127.72 C 166.49 127.66 167.35 126.70 167.29 125.57 L 167.24 124.65 C 167.18 123.52 166.21 122.65 165.08 122.71 C 163.96 122.77 163.09 123.74 163.15 124.87 Z M 163.20 125.82 L 163.26 126.72 C 163.34 127.86 164.31 128.71 165.45 128.64 C 166.58 128.56 167.43 127.58 167.36 126.45 L 167.30 125.54 C 167.22 124.41 166.24 123.56 165.11 123.63 C 163.98 123.71 163.12 124.69 163.20 125.82 Z M 163.25 126.75 L 163.33 127.71 C 163.42 128.84 164.41 129.69 165.54 129.60 C 166.68 129.51 167.53 128.52 167.44 127.39 L 167.36 126.43 C 167.27 125.29 166.28 124.44 165.15 124.53 C 164.01 124.62 163.17 125.61 163.25 126.75 Z M 163.32 127.72 L 163.41 128.76 C 163.51 129.90 164.51 130.74 165.65 130.64 C 166.78 130.55 167.63 129.55 167.53 128.41 L 167.44 127.37 C 167.35 126.23 166.35 125.39 165.21 125.49 C 164.07 125.58 163.23 126.59 163.32 127.72 Z M 163.41 128.77 L 163.50 129.80 C 163.60 130.94 164.61 131.78 165.75 131.68 C 166.89 131.58 167.73 130.58 167.63 129.44 L 167.54 128.40 C 167.44 127.26 166.43 126.42 165.29 126.52 C 164.15 126.62 163.31 127.63 163.41 128.77 Z M 163.49 129.80 L 163.58 130.75 C 163.68 131.89 164.69 132.74 165.83 132.63 C 166.98 132.53 167.82 131.52 167.72 130.38 L 167.63 129.43 C 167.53 128.29 166.52 127.45 165.38 127.55 C 164.24 127.65 163.39 128.66 163.49 129.80 Z M 163.57 130.75 L 163.66 131.74 C 163.76 132.88 164.77 133.73 165.92 133.63 C 167.07 133.53 167.91 132.52 167.81 131.37 L 167.73 130.38 C 167.62 129.23 166.61 128.38 165.46 128.48 C 164.32 128.59 163.47 129.60 163.57 130.75 Z M 163.65 131.73 L 163.74 132.76 C 163.84 133.92 164.85 134.77 166.01 134.67 C 167.16 134.57 168.01 133.55 167.91 132.40 L 167.82 131.37 C 167.72 130.22 166.71 129.37 165.55 129.47 C 164.40 129.57 163.55 130.58 163.65 131.73 Z M 163.73 132.76 L 163.82 133.81 C 163.92 134.97 164.94 135.82 166.09 135.73 C 167.25 135.63 168.10 134.61 168.01 133.45 L 167.92 132.41 C 167.82 131.25 166.80 130.39 165.65 130.49 C 164.49 130.59 163.63 131.60 163.73 132.76 Z M 163.81 133.80 L 163.89 134.76 C 163.99 135.92 165.01 136.78 166.16 136.69 C 167.32 136.59 168.19 135.58 168.09 134.42 L 168.01 133.46 C 167.92 132.30 166.90 131.44 165.74 131.53 C 164.58 131.63 163.72 132.65 163.81 133.80 Z M 163.89 134.76 L 163.97 135.73 C 164.06 136.90 165.08 137.76 166.24 137.67 C 167.40 137.58 168.27 136.56 168.17 135.40 L 168.10 134.42 C 168.00 133.26 166.99 132.39 165.82 132.48 C 164.66 132.58 163.80 133.59 163.89 134.76 Z M 163.96 135.73 L 164.04 136.73 C 164.13 137.90 165.15 138.77 166.31 138.68 C 167.48 138.59 168.35 137.57 168.26 136.40 L 168.18 135.40 C 168.09 134.24 167.07 133.37 165.91 133.46 C 164.74 133.55 163.87 134.57 163.96 135.73 Z M 164.03 136.73 L 164.11 137.75 C 164.20 138.92 165.22 139.79 166.38 139.70 C 167.55 139.62 168.43 138.60 168.34 137.43 L 168.26 136.41 C 168.17 135.24 167.16 134.36 165.99 134.45 C 164.82 134.54 163.94 135.56 164.03 136.73 Z M 164.11 137.75 L 164.18 138.77 C 164.27 139.94 165.29 140.82 166.46 140.74 C 167.63 140.65 168.51 139.63 168.42 138.46 L 168.34 137.43 C 168.26 136.26 167.24 135.38 166.07 135.47 C 164.90 135.56 164.02 136.58 164.11 137.75 Z M 164.17 138.77 L 164.25 139.75 C 164.33 140.92 165.35 141.81 166.53 141.72 C 167.70 141.64 168.58 140.62 168.50 139.44 L 168.43 138.46 C 168.34 137.29 167.32 136.40 166.15 136.49 C 164.97 136.57 164.09 137.60 164.17 138.77 Z M 164.24 139.75 L 164.31 140.75 C 164.40 141.92 165.42 142.81 166.60 142.72 C 167.78 142.64 168.66 141.62 168.58 140.44 L 168.51 139.44 C 168.42 138.26 167.40 137.38 166.22 137.46 C 165.04 137.55 164.15 138.57 164.24 139.75 Z M 164.30 140.75 L 164.38 141.75 C 164.46 142.93 165.49 143.82 166.67 143.73 C 167.86 143.65 168.74 142.62 168.66 141.44 L 168.58 140.43 C 168.50 139.25 167.47 138.36 166.29 138.45 C 165.11 138.54 164.22 139.57 164.30 140.75 Z M 164.37 141.75 L 164.45 142.76 C 164.53 143.95 165.57 144.84 166.75 144.75 C 167.94 144.66 168.83 143.63 168.74 142.44 L 168.66 141.43 C 168.58 140.25 167.54 139.36 166.36 139.45 C 165.17 139.54 164.28 140.57 164.37 141.75 Z M 164.44 142.77 L 164.52 143.77 C 164.61 144.96 165.65 145.85 166.84 145.76 C 168.03 145.67 168.92 144.63 168.82 143.44 L 168.75 142.44 C 168.65 141.25 167.62 140.36 166.43 140.45 C 165.24 140.54 164.35 141.58 164.44 142.77 Z M 164.51 143.78 L 164.59 144.80 C 164.69 145.99 165.73 146.88 166.93 146.78 C 168.12 146.69 169.01 145.64 168.91 144.45 L 168.83 143.43 C 168.73 142.24 167.69 141.35 166.50 141.45 C 165.30 141.54 164.41 142.59 164.51 143.78 Z M 164.58 144.80 L 164.67 145.81 C 164.77 147.01 165.82 147.90 167.01 147.80 C 168.21 147.70 169.10 146.65 169.00 145.45 L 168.92 144.44 C 168.82 143.25 167.77 142.36 166.57 142.45 C 165.38 142.55 164.48 143.60 164.58 144.80 Z M 164.66 145.81 L 164.74 146.81 C 164.84 148.01 165.90 148.91 167.10 148.81 C 168.30 148.71 169.19 147.65 169.09 146.45 L 169.01 145.45 C 168.91 144.25 167.86 143.35 166.65 143.45 C 165.45 143.55 164.56 144.61 164.66 145.81 Z M 164.73 146.81 L 164.81 147.80 C 164.91 149.00 165.97 149.90 167.18 149.80 C 168.38 149.71 169.28 148.65 169.18 147.44 L 169.10 146.45 C 169.00 145.25 167.95 144.35 166.74 144.45 C 165.53 144.54 164.64 145.60 164.73 146.81 Z M 164.81 147.79 L 164.88 148.77 C 164.98 149.98 166.03 150.89 167.25 150.79 C 168.46 150.70 169.36 149.64 169.27 148.43 L 169.19 147.45 C 169.10 146.24 168.04 145.33 166.83 145.43 C 165.62 145.52 164.71 146.58 164.81 147.79 Z M 164.87 148.76 L 164.95 149.77 C 165.04 150.99 166.09 151.90 167.31 151.81 C 168.52 151.73 169.44 150.67 169.35 149.45 L 169.28 148.44 C 169.19 147.22 168.13 146.31 166.91 146.40 C 165.70 146.49 164.78 147.54 164.87 148.76 Z M 164.94 149.76 L 165.01 150.78 C 165.09 152.00 166.15 152.92 167.37 152.84 C 168.59 152.76 169.51 151.70 169.43 150.48 L 169.36 149.46 C 169.27 148.24 168.22 147.32 167.00 147.41 C 165.78 147.49 164.86 148.54 164.94 149.76 Z M 165.00 150.77 L 165.07 151.78 C 165.14 153.00 166.20 153.93 167.42 153.85 C 168.65 153.77 169.57 152.72 169.50 151.49 L 169.43 150.49 C 169.35 149.27 168.30 148.34 167.08 148.42 C 165.85 148.49 164.92 149.55 165.00 150.77 Z M 165.06 151.77 L 165.12 152.76 C 165.19 153.98 166.25 154.92 167.48 154.84 C 168.70 154.77 169.64 153.71 169.56 152.48 L 169.50 151.50 C 169.43 150.27 168.37 149.34 167.14 149.41 C 165.92 149.49 164.98 150.54 165.06 151.77 Z M 165.11 152.76 L 165.17 153.72 C 165.25 154.95 166.30 155.89 167.54 155.82 C 168.77 155.74 169.70 154.68 169.63 153.45 L 169.57 152.48 C 169.49 151.25 168.44 150.32 167.21 150.39 C 165.98 150.47 165.04 151.52 165.11 152.76 Z M 165.17 153.73 L 165.23 154.73 C 165.30 155.96 166.37 156.90 167.60 156.83 C 168.83 156.75 169.77 155.69 169.70 154.46 L 169.63 153.45 C 169.56 152.22 168.50 151.28 167.26 151.35 C 166.03 151.43 165.09 152.49 165.17 153.73 Z M 165.22 154.73 L 165.28 155.73 C 165.36 156.97 166.42 157.91 167.66 157.83 C 168.90 157.76 169.84 156.69 169.76 155.45 L 169.70 154.45 C 169.62 153.22 168.56 152.28 167.32 152.35 C 166.09 152.43 165.15 153.49 165.22 154.73 Z M 165.28 155.73 L 165.34 156.72 C 165.41 157.96 166.48 158.90 167.72 158.83 C 168.96 158.75 169.90 157.69 169.83 156.45 L 169.77 155.46 C 169.69 154.22 168.63 153.27 167.39 153.35 C 166.15 153.42 165.20 154.49 165.28 155.73 Z M 165.33 156.71 L 165.39 157.70 C 165.46 158.95 166.53 159.90 167.77 159.83 C 169.01 159.75 169.96 158.69 169.89 157.45 L 169.83 156.45 C 169.76 155.21 168.70 154.26 167.45 154.33 C 166.21 154.41 165.26 155.47 165.33 156.71 Z M 165.38 157.70 L 165.44 158.70 C 165.51 159.95 166.57 160.90 167.82 160.84 C 169.06 160.77 170.02 159.70 169.95 158.46 L 169.90 157.45 C 169.83 156.21 168.76 155.25 167.52 155.32 C 166.27 155.39 165.32 156.45 165.38 157.70 Z M 165.43 158.69 L 165.48 159.72 C 165.55 160.97 166.61 161.93 167.86 161.87 C 169.10 161.81 170.07 160.75 170.00 159.50 L 169.95 158.47 C 169.89 157.22 168.83 156.26 167.58 156.32 C 166.34 156.38 165.37 157.44 165.43 158.69 Z M 165.48 159.71 L 165.53 160.73 C 165.58 161.98 166.64 162.95 167.89 162.89 C 169.14 162.84 170.11 161.78 170.05 160.53 L 170.01 159.51 C 169.95 158.26 168.89 157.29 167.64 157.34 C 166.39 157.40 165.42 158.46 165.48 159.71 Z M 165.52 160.72 L 165.56 161.72 C 165.61 162.97 166.67 163.95 167.92 163.90 C 169.18 163.84 170.15 162.79 170.10 161.53 L 170.06 160.54 C 170.01 159.28 168.95 158.31 167.70 158.36 C 166.44 158.41 165.47 159.47 165.52 160.72 Z M 165.56 161.71 L 165.59 162.67 C 165.64 163.93 166.70 164.91 167.95 164.86 C 169.21 164.81 170.19 163.76 170.14 162.50 L 170.10 161.54 C 170.06 160.29 169.00 159.31 167.75 159.36 C 166.49 159.40 165.51 160.46 165.56 161.71 Z M 165.59 162.66 L 165.63 163.71 C 165.67 164.97 166.72 165.96 167.98 165.91 C 169.23 165.87 170.22 164.82 170.18 163.56 L 170.14 162.51 C 170.10 161.25 169.05 160.27 167.79 160.31 C 166.53 160.35 165.55 161.41 165.59 162.66 Z M 165.62 163.70 L 165.65 164.73 C 165.69 165.99 166.74 166.98 168.00 166.94 C 169.25 166.91 170.25 165.86 170.21 164.60 L 170.18 163.57 C 170.14 162.32 169.10 161.32 167.84 161.36 C 166.58 161.40 165.59 162.45 165.62 163.70 Z M 165.65 164.72 L 165.67 165.68 C 165.70 166.94 166.75 167.94 168.00 167.91 C 169.26 167.88 170.26 166.84 170.23 165.58 L 170.21 164.61 C 170.18 163.35 169.14 162.36 167.88 162.38 C 166.62 162.41 165.62 163.46 165.65 164.72 Z M 165.67 165.67 L 165.69 166.61 C 165.71 167.87 166.74 168.88 168.00 168.86 C 169.27 168.84 170.27 167.80 170.25 166.54 L 170.24 165.60 C 170.22 164.33 169.18 163.33 167.92 163.35 C 166.66 163.37 165.65 164.41 165.67 165.67 Z M 165.68 166.59 L 165.69 167.63 C 165.70 168.89 166.74 169.91 168.00 169.89 C 169.26 169.88 170.27 168.85 170.26 167.59 L 170.25 166.55 C 170.24 165.29 169.21 164.28 167.95 164.29 C 166.69 164.30 165.67 165.33 165.68 166.59 Z M 165.69 167.62 L 165.70 168.62 C 165.70 169.88 166.73 170.90 167.99 170.90 C 169.25 170.89 170.27 169.87 170.27 168.60 L 170.26 167.60 C 170.26 166.34 169.23 165.32 167.97 165.33 C 166.71 165.33 165.69 166.36 165.69 167.62 Z M 165.70 168.61 L 165.70 169.58 C 165.70 170.84 166.72 171.86 167.98 171.86 C 169.25 171.86 170.27 170.84 170.27 169.57 L 170.27 168.61 C 170.27 167.35 169.24 166.33 167.98 166.33 C 166.72 166.33 165.69 167.35 165.70 168.61 Z M 165.69 169.57 L 165.69 170.54 C 165.69 171.81 166.72 172.83 167.98 172.83 C 169.24 172.83 170.27 171.81 170.27 170.54 L 170.27 169.57 C 170.27 168.31 169.24 167.29 167.98 167.29 C 166.72 167.29 165.69 168.31 165.69 169.57 Z M 165.69 170.54 L 165.69 171.52 C 165.69 172.78 166.72 173.81 167.98 173.81 C 169.25 173.81 170.27 172.78 170.27 171.52 L 170.27 170.54 C 170.27 169.28 169.25 168.26 167.98 168.26 C 166.72 168.26 165.69 169.28 165.69 170.54 Z M 165.69 171.52 L 165.69 172.56 C 165.69 173.82 166.72 174.84 167.98 174.84 C 169.25 174.84 170.27 173.82 170.27 172.56 L 170.27 171.52 C 170.27 170.26 169.25 169.23 167.98 169.23 C 166.72 169.23 165.69 170.26 165.69 171.52 Z M 165.69 172.55 L 165.69 173.55 C 165.69 174.82 166.71 175.85 167.97 175.85 C 169.24 175.85 170.26 174.83 170.27 173.57 L 170.27 172.56 C 170.27 171.30 169.25 170.27 167.99 170.27 C 166.72 170.27 165.70 171.29 165.69 172.55 Z M 165.69 173.51 L 165.67 174.54 C 165.64 175.80 166.64 176.85 167.91 176.88 C 169.17 176.90 170.22 175.90 170.24 174.64 L 170.27 173.61 C 170.30 172.35 169.29 171.30 168.03 171.27 C 166.77 171.24 165.72 172.25 165.69 173.51 Z M 165.67 174.44 L 165.61 175.44 C 165.52 176.70 166.48 177.79 167.74 177.88 C 169.00 177.96 170.09 177.00 170.18 175.74 L 170.24 174.74 C 170.32 173.47 169.37 172.39 168.11 172.30 C 166.84 172.22 165.75 173.18 165.67 174.44 Z M 165.63 175.25 L 165.46 176.33 C 165.27 177.58 166.13 178.75 167.38 178.94 C 168.63 179.13 169.80 178.27 169.99 177.02 L 170.15 175.94 C 170.35 174.69 169.49 173.52 168.24 173.33 C 166.99 173.14 165.82 174.00 165.63 175.25 Z M 165.58 175.88 L 165.21 176.88 C 164.76 178.07 165.37 179.39 166.55 179.83 C 167.74 180.27 169.06 179.67 169.50 178.48 L 169.87 177.48 C 170.31 176.29 169.71 174.97 168.52 174.53 C 167.34 174.09 166.02 174.69 165.58 175.88 Z M 166.00 175.83 L 165.41 176.26 C 164.39 177.01 164.16 178.44 164.91 179.46 C 165.65 180.48 167.08 180.71 168.11 179.96 L 168.70 179.53 C 169.72 178.79 169.95 177.35 169.20 176.33 C 168.46 175.31 167.03 175.09 166.00 175.83 Z M 167.41 175.93 L 166.63 175.70 C 165.42 175.33 164.15 176.02 163.79 177.22 C 163.43 178.42 164.11 179.69 165.32 180.05 L 166.10 180.29 C 167.31 180.65 168.57 179.97 168.94 178.77 C 169.30 177.57 168.62 176.30 167.41 175.93 Z M 167.33 176.09 L 166.46 175.42 C 165.47 174.67 164.06 174.86 163.31 175.85 C 162.55 176.84 162.75 178.25 163.73 179.00 L 164.61 179.67 C 165.60 180.42 167.01 180.23 167.76 179.24 C 168.51 178.25 168.32 176.84 167.33 176.09 Z M 166.64 175.64 L 165.88 174.90 C 165.02 174.05 163.62 174.06 162.77 174.93 C 161.92 175.79 161.93 177.18 162.80 178.04 L 163.56 178.78 C 164.42 179.63 165.81 179.62 166.66 178.75 C 167.52 177.89 167.50 176.49 166.64 175.64 Z M 165.91 175.06 L 165.25 174.32 C 164.47 173.46 163.14 173.38 162.27 174.16 C 161.41 174.94 161.33 176.28 162.11 177.14 L 162.77 177.88 C 163.55 178.74 164.88 178.82 165.75 178.04 C 166.62 177.26 166.69 175.92 165.91 175.06 Z M 165.22 174.44 L 164.57 173.67 C 163.85 172.82 162.59 172.71 161.74 173.42 C 160.89 174.14 160.78 175.41 161.50 176.26 L 162.15 177.03 C 162.86 177.88 164.13 177.98 164.98 177.27 C 165.83 176.56 165.93 175.29 165.22 174.44 Z M 164.52 173.73 L 163.92 173.01 C 163.24 172.19 162.02 172.08 161.20 172.76 C 160.38 173.45 160.27 174.66 160.96 175.48 L 161.55 176.20 C 162.23 177.02 163.45 177.13 164.27 176.45 C 165.09 175.76 165.20 174.55 164.52 173.73 Z M 163.89 173.05 L 163.28 172.31 C 162.62 171.51 161.44 171.39 160.64 172.05 C 159.83 172.71 159.72 173.90 160.38 174.70 L 160.99 175.44 C 161.64 176.24 162.83 176.36 163.63 175.70 C 164.44 175.04 164.55 173.86 163.89 173.05 Z M 163.27 172.36 L 162.62 171.54 C 161.99 170.75 160.83 170.62 160.04 171.25 C 159.24 171.88 159.11 173.04 159.74 173.83 L 160.39 174.65 C 161.02 175.44 162.18 175.58 162.97 174.94 C 163.77 174.31 163.90 173.16 163.27 172.36 Z M 162.61 171.60 L 161.96 170.76 C 161.36 169.97 160.24 169.82 159.45 170.42 C 158.66 171.02 158.51 172.14 159.11 172.93 L 159.75 173.78 C 160.35 174.56 161.48 174.72 162.27 174.12 C 163.06 173.52 163.21 172.39 162.61 171.60 Z M 161.95 170.81 L 161.36 170.00 C 160.79 169.21 159.69 169.04 158.91 169.61 C 158.12 170.19 157.95 171.29 158.53 172.07 L 159.12 172.88 C 159.69 173.66 160.79 173.83 161.57 173.26 C 162.36 172.69 162.53 171.59 161.95 170.81 Z M 161.35 170.04 L 160.75 169.20 C 160.20 168.43 159.13 168.24 158.36 168.79 C 157.58 169.34 157.40 170.41 157.95 171.18 L 158.54 172.02 C 159.09 172.80 160.16 172.98 160.93 172.43 C 161.71 171.89 161.89 170.81 161.35 170.04 Z M 160.74 169.24 L 160.17 168.41 C 159.64 167.65 158.60 167.45 157.83 167.97 C 157.07 168.50 156.87 169.54 157.39 170.31 L 157.96 171.14 C 158.48 171.91 159.53 172.10 160.30 171.58 C 161.06 171.06 161.26 170.01 160.74 169.24 Z M 160.16 168.46 L 159.60 167.61 C 159.10 166.85 158.08 166.64 157.32 167.14 C 156.56 167.63 156.35 168.65 156.85 169.41 L 157.40 170.26 C 157.90 171.02 158.92 171.23 159.68 170.74 C 160.44 170.24 160.65 169.22 160.16 168.46 Z M 159.60 167.66 L 159.04 166.76 C 158.57 166.00 157.57 165.77 156.81 166.24 C 156.05 166.71 155.82 167.71 156.29 168.47 L 156.85 169.37 C 157.32 170.13 158.32 170.36 159.08 169.89 C 159.84 169.41 160.07 168.42 159.60 167.66 Z M 159.04 166.80 L 158.54 165.96 C 158.09 165.21 157.12 164.96 156.36 165.41 C 155.60 165.85 155.35 166.83 155.80 167.59 L 156.29 168.43 C 156.74 169.19 157.72 169.44 158.48 168.99 C 159.24 168.54 159.49 167.56 159.04 166.80 Z M 158.53 165.99 L 158.07 165.19 C 157.64 164.43 156.67 164.18 155.92 164.61 C 155.17 165.04 154.91 166.01 155.34 166.76 L 155.81 167.56 C 156.24 168.32 157.20 168.58 157.96 168.14 C 158.71 167.71 158.97 166.75 158.53 165.99 Z"
      fill="black"
      fill-rule="nonzero" /><path d="M 155.83 137.76 L 156.75 137.37 C 157.71 136.96 158.16 135.85 157.75 134.89 C 157.34 133.94 156.23 133.49 155.27 133.90 L 154.35 134.29 C 153.40 134.70 152.95 135.81 153.36 136.77 C 153.77 137.72 154.88 138.17 155.83 137.76 Z M 156.78 137.38 L 157.70 136.98 C 158.66 136.55 159.10 135.43 158.68 134.47 C 158.25 133.50 157.13 133.06 156.17 133.49 L 155.25 133.89 C 154.29 134.31 153.85 135.43 154.27 136.40 C 154.69 137.36 155.82 137.80 156.78 137.38 Z M 157.73 136.98 L 158.64 136.56 C 159.61 136.11 160.03 134.97 159.58 134.01 C 159.14 133.05 158.00 132.63 157.03 133.07 L 156.13 133.49 C 155.16 133.93 154.74 135.07 155.19 136.04 C 155.63 137.00 156.77 137.42 157.73 136.98 Z M 158.66 136.50 L 159.56 136.06 C 160.50 135.61 160.88 134.48 160.43 133.55 C 159.97 132.62 158.84 132.23 157.91 132.68 L 157.01 133.12 C 156.08 133.58 155.69 134.71 156.15 135.64 C 156.60 136.57 157.73 136.96 158.66 136.50 Z M 159.53 135.98 L 160.43 135.53 C 161.31 135.09 161.68 134.02 161.24 133.13 C 160.80 132.25 159.72 131.89 158.84 132.33 L 157.94 132.77 C 157.05 133.21 156.69 134.29 157.13 135.17 C 157.57 136.06 158.65 136.42 159.53 135.98 Z M 160.37 135.47 L 161.28 135.03 C 162.13 134.62 162.49 133.60 162.08 132.75 C 161.67 131.90 160.65 131.55 159.80 131.95 L 158.89 132.39 C 158.04 132.80 157.69 133.82 158.09 134.67 C 158.50 135.52 159.52 135.88 160.37 135.47 Z M 161.22 135.00 L 162.15 134.58 C 162.98 134.20 163.35 133.22 162.98 132.39 C 162.60 131.56 161.62 131.19 160.79 131.57 L 159.86 131.99 C 159.03 132.36 158.66 133.34 159.03 134.17 C 159.41 135.00 160.39 135.37 161.22 135.00 Z M 162.10 134.56 L 163.01 134.18 C 163.84 133.83 164.22 132.88 163.88 132.06 C 163.53 131.24 162.58 130.85 161.76 131.20 L 160.84 131.58 C 160.02 131.93 159.63 132.87 159.98 133.70 C 160.33 134.52 161.27 134.91 162.10 134.56 Z M 162.96 134.17 L 163.89 133.81 C 164.71 133.49 165.12 132.57 164.80 131.75 C 164.48 130.93 163.56 130.53 162.74 130.84 L 161.81 131.21 C 160.99 131.52 160.59 132.44 160.91 133.26 C 161.22 134.08 162.15 134.49 162.96 134.17 Z M 163.85 133.81 L 164.80 133.46 C 165.61 133.17 166.04 132.27 165.74 131.45 C 165.45 130.63 164.55 130.21 163.73 130.50 L 162.78 130.84 C 161.97 131.14 161.54 132.04 161.84 132.86 C 162.13 133.68 163.03 134.10 163.85 133.81 Z M 164.77 133.47 L 165.69 133.15 C 166.51 132.87 166.95 131.98 166.67 131.16 C 166.39 130.34 165.49 129.91 164.68 130.19 L 163.76 130.50 C 162.94 130.78 162.50 131.67 162.78 132.49 C 163.06 133.31 163.95 133.75 164.77 133.47 Z"
      fill="black"
      fill-rule="nonzero" /><path d="M 155.02 152.59 L 155.83 152.04 C 156.61 151.51 156.81 150.44 156.28 149.67 C 155.75 148.89 154.69 148.68 153.91 149.21 L 153.10 149.77 C 152.32 150.30 152.12 151.36 152.65 152.14 C 153.18 152.92 154.24 153.12 155.02 152.59 Z M 155.89 152.18 L 156.74 151.62 C 157.59 151.05 157.83 149.90 157.26 149.04 C 156.69 148.18 155.54 147.95 154.68 148.52 L 153.84 149.07 C 152.98 149.64 152.75 150.80 153.32 151.65 C 153.88 152.51 155.04 152.74 155.89 152.18 Z M 156.75 151.71 L 157.50 151.24 C 158.41 150.66 158.68 149.46 158.10 148.55 C 157.53 147.64 156.32 147.37 155.41 147.95 L 154.67 148.42 C 153.76 149.00 153.49 150.20 154.06 151.11 C 154.64 152.02 155.84 152.29 156.75 151.71 Z M 157.47 151.26 L 158.27 150.77 C 159.19 150.21 159.48 149.01 158.92 148.09 C 158.36 147.17 157.16 146.88 156.24 147.44 L 155.44 147.93 C 154.52 148.49 154.24 149.69 154.80 150.61 C 155.36 151.53 156.55 151.82 157.47 151.26 Z M 158.25 150.75 L 159.22 150.17 C 160.13 149.62 160.43 148.44 159.88 147.53 C 159.33 146.62 158.15 146.33 157.24 146.87 L 156.27 147.46 C 155.36 148.00 155.06 149.18 155.61 150.10 C 156.15 151.01 157.34 151.30 158.25 150.75 Z M 159.20 150.15 L 160.03 149.65 C 160.93 149.12 161.22 147.95 160.69 147.05 C 160.15 146.15 158.99 145.86 158.09 146.40 L 157.26 146.89 C 156.36 147.43 156.07 148.59 156.61 149.49 C 157.14 150.39 158.31 150.68 159.20 150.15 Z M 160.02 149.62 L 160.86 149.12 C 161.74 148.59 162.03 147.45 161.50 146.57 C 160.97 145.68 159.83 145.39 158.95 145.92 L 158.10 146.43 C 157.22 146.95 156.93 148.10 157.46 148.98 C 157.99 149.87 159.13 150.15 160.02 149.62 Z M 160.85 149.09 L 161.73 148.56 C 162.60 148.04 162.88 146.91 162.36 146.05 C 161.84 145.18 160.71 144.90 159.85 145.42 L 158.96 145.95 C 158.09 146.47 157.81 147.60 158.33 148.47 C 158.85 149.33 159.98 149.61 160.85 149.09 Z M 161.72 148.53 L 162.62 147.99 C 163.47 147.47 163.74 146.36 163.23 145.51 C 162.71 144.66 161.60 144.39 160.75 144.91 L 159.86 145.45 C 159.01 145.96 158.73 147.07 159.25 147.92 C 159.76 148.77 160.87 149.04 161.72 148.53 Z M 162.61 147.95 L 163.50 147.41 C 164.33 146.90 164.59 145.81 164.08 144.98 C 163.57 144.15 162.48 143.89 161.65 144.40 L 160.76 144.94 C 159.93 145.45 159.67 146.54 160.18 147.37 C 160.69 148.20 161.78 148.46 162.61 147.95 Z M 163.49 147.36 L 164.37 146.81 C 165.18 146.31 165.43 145.25 164.93 144.44 C 164.42 143.63 163.36 143.38 162.55 143.88 L 161.67 144.44 C 160.86 144.94 160.61 146.00 161.11 146.81 C 161.62 147.62 162.68 147.87 163.49 147.36 Z M 164.36 146.77 L 165.21 146.23 C 165.99 145.74 166.22 144.70 165.73 143.92 C 165.23 143.14 164.20 142.90 163.41 143.40 L 162.57 143.93 C 161.78 144.42 161.55 145.46 162.04 146.24 C 162.54 147.03 163.57 147.26 164.36 146.77 Z M 165.19 146.19 L 166.01 145.67 C 166.77 145.18 166.99 144.18 166.51 143.42 C 166.02 142.66 165.01 142.43 164.25 142.92 L 163.43 143.44 C 162.67 143.92 162.45 144.93 162.93 145.69 C 163.42 146.45 164.43 146.67 165.19 146.19 Z M 165.99 145.63 L 166.76 145.13 C 167.50 144.66 167.72 143.68 167.24 142.94 C 166.77 142.20 165.79 141.99 165.05 142.46 L 164.28 142.96 C 163.54 143.43 163.32 144.41 163.79 145.15 C 164.27 145.88 165.25 146.10 165.99 145.63 Z"
      fill="black"
      fill-rule="nonzero" /></svg>