<svg xmlns="http://www.w3.org/2000/svg" width="300" height="300" viewBox="0 0 300 300">
<path d="M 129.24 116.78 L 129.40 117.75 C 129.55 118.70 130.45 119.35 131.40 119.20 C 132.35 119.05 133.00 118.16 132.85 117.20 L 132.69 116.23 C 132.54 115.28 131.65 114.63 130.69 114.78 C 129.74 114.93 129.09 115.83 129.24 116.78 Z M 129.34 117.95 L 129.60 118.92 C 129.86 119.91 130.87 120.50 131.85 120.24 C 132.84 119.98 133.43 118.97 133.17 117.98 L 132.91 117.01 C 132.65 116.02 131.64 115.43 130.65 115.69 C 129.66 115.95 129.08 116.97 129.34 117.95 Z M 129.65 119.23 L 130.05 120.13 C 130.48 121.09 131.60 121.52 132.56 121.09 C 133.52 120.66 133.95 119.53 133.52 118.57 L 133.12 117.67 C 132.69 116.71 131.56 116.29 130.60 116.72 C 129.64 117.15 129.21 118.27 129.65 119.23 Z M 130.16 120.34 L 130.69 121.21 C 131.24 122.11 132.41 122.39 133.31 121.84 C 134.20 121.29 134.49 120.12 133.94 119.22 L 133.41 118.36 C 132.86 117.46 131.69 117.18 130.79 117.73 C 129.89 118.27 129.61 119.45 130.16 120.34 Z M 130.79 121.33 L 131.39 122.15 C 132.01 122.99 133.19 123.17 134.03 122.55 C 134.87 121.93 135.05 120.75 134.43 119.91 L 133.83 119.09 C 133.21 118.25 132.03 118.08 131.19 118.69 C 130.35 119.31 130.17 120.50 130.79 121.33 Z M 131.52 122.25 L 132.18 123.00 C 132.85 123.76 134.02 123.84 134.79 123.17 C 135.55 122.50 135.63 121.33 134.96 120.56 L 134.30 119.81 C 133.63 119.05 132.46 118.97 131.70 119.64 C 130.93 120.31 130.85 121.48 131.52 122.25 Z M 132.35 123.09 L 133.07 123.77 C 133.79 124.44 134.93 124.40 135.60 123.68 C 136.28 122.96 136.24 121.82 135.52 121.15 L 134.79 120.47 C 134.07 119.80 132.94 119.83 132.26 120.56 C 131.58 121.28 131.62 122.41 132.35 123.09 Z M 133.24 123.82 L 134.02 124.43 C 134.78 125.01 135.86 124.88 136.44 124.12 C 137.02 123.37 136.89 122.29 136.14 121.71 L 135.35 121.10 C 134.60 120.51 133.52 120.65 132.93 121.40 C 132.35 122.15 132.49 123.23 133.24 123.82 Z M 134.13 124.41 L 134.96 124.99 C 135.70 125.51 136.72 125.34 137.25 124.59 C 137.77 123.85 137.59 122.83 136.85 122.30 L 136.03 121.72 C 135.29 121.20 134.26 121.38 133.74 122.12 C 133.21 122.86 133.39 123.89 134.13 124.41 Z"
      fill="black"
      fill-rule="nonzero" /><path d="M 146.43 111.86 L 146.30 112.84 C 146.18 113.78 146.85 114.65 147.79 114.77 C 148.73 114.89 149.59 114.23 149.72 113.29 L 149.84 112.30 C 149.96 111.36 149.30 110.50 148.36 110.38 C 147.42 110.26 146.55 110.92 146.43 111.86 Z M 146.24 112.76 L 146.07 113.74 C 145.90 114.72 146.56 115.65 147.54 115.82 C 148.52 115.98 149.45 115.32 149.62 114.34 L 149.78 113.36 C 149.95 112.38 149.29 111.46 148.31 111.29 C 147.33 111.12 146.40 111.78 146.24 112.76 Z M 146.06 113.63 L 145.84 114.59 C 145.61 115.57 146.23 116.56 147.22 116.78 C 148.20 117.01 149.19 116.39 149.41 115.40 L 149.63 114.45 C 149.86 113.47 149.24 112.48 148.25 112.26 C 147.27 112.03 146.28 112.65 146.06 113.63 Z M 145.87 114.51 L 145.59 115.49 C 145.32 116.46 145.89 117.46 146.87 117.73 C 147.84 118.00 148.84 117.43 149.11 116.46 L 149.39 115.48 C 149.66 114.51 149.09 113.50 148.11 113.23 C 147.14 112.97 146.14 113.53 145.87 114.51 Z M 145.62 115.43 L 145.33 116.36 C 145.03 117.31 145.56 118.33 146.52 118.64 C 147.47 118.94 148.49 118.41 148.79 117.45 L 149.09 116.52 C 149.39 115.56 148.86 114.54 147.90 114.24 C 146.94 113.94 145.92 114.47 145.62 115.43 Z M 145.36 116.31 L 145.02 117.29 C 144.69 118.23 145.18 119.26 146.12 119.59 C 147.06 119.92 148.08 119.43 148.41 118.49 L 148.76 117.50 C 149.09 116.56 148.60 115.53 147.66 115.21 C 146.72 114.88 145.69 115.37 145.36 116.31 Z M 145.06 117.25 L 144.70 118.17 C 144.34 119.09 144.80 120.12 145.72 120.47 C 146.63 120.83 147.66 120.37 148.02 119.46 L 148.37 118.53 C 148.73 117.62 148.27 116.59 147.36 116.23 C 146.44 115.88 145.41 116.33 145.06 117.25 Z M 144.74 118.14 L 144.35 119.07 C 143.98 119.97 144.41 120.99 145.30 121.36 C 146.19 121.73 147.22 121.31 147.59 120.42 L 147.97 119.48 C 148.35 118.59 147.92 117.57 147.03 117.20 C 146.14 116.83 145.11 117.25 144.74 118.14 Z M 144.39 119.06 L 143.98 119.99 C 143.60 120.86 144.00 121.88 144.87 122.26 C 145.74 122.64 146.76 122.24 147.14 121.37 L 147.55 120.43 C 147.93 119.56 147.53 118.55 146.66 118.17 C 145.79 117.79 144.78 118.18 144.39 119.06 Z M 144.03 119.98 L 143.60 120.92 C 143.21 121.77 143.59 122.77 144.43 123.15 C 145.28 123.54 146.28 123.17 146.67 122.32 L 147.09 121.38 C 147.48 120.54 147.11 119.54 146.26 119.15 C 145.42 118.76 144.42 119.13 144.03 119.98 Z M 143.65 120.90 L 143.23 121.78 C 142.83 122.59 143.18 123.58 144.00 123.97 C 144.81 124.37 145.80 124.03 146.19 123.21 L 146.62 122.34 C 147.01 121.52 146.67 120.53 145.85 120.14 C 145.03 119.74 144.05 120.08 143.65 120.90 Z M 143.28 121.75 L 142.81 122.66 C 142.40 123.45 142.71 124.42 143.50 124.83 C 144.28 125.24 145.26 124.93 145.67 124.15 L 146.14 123.24 C 146.55 122.45 146.25 121.47 145.46 121.06 C 144.67 120.65 143.69 120.96 143.28 121.75 Z M 142.85 122.63 L 142.38 123.48 C 141.96 124.25 142.24 125.21 143.00 125.64 C 143.77 126.06 144.73 125.78 145.15 125.02 L 145.62 124.17 C 146.05 123.40 145.77 122.44 145.01 122.02 C 144.24 121.59 143.28 121.87 142.85 122.63 Z M 142.40 123.48 L 142.28 123.70 C 141.86 124.45 142.12 125.41 142.88 125.83 C 143.63 126.26 144.59 125.99 145.01 125.24 L 145.13 125.02 C 145.56 124.27 145.29 123.31 144.54 122.89 C 143.78 122.46 142.83 122.73 142.40 123.48 Z"
      fill="black"
      fill-rule="nonzero" /><path d="M 140.97 111.15 L 140.65 112.04 C 140.34 112.92 140.79 113.88 141.66 114.19 C 142.53 114.50 143.49 114.05 143.80 113.18 L 144.13 112.29 C 144.44 111.42 143.99 110.46 143.12 110.15 C 142.25 109.83 141.29 110.28 140.97 111.15 Z M 140.60 112.06 L 140.29 112.99 C 139.99 113.89 140.47 114.86 141.36 115.16 C 142.26 115.47 143.23 114.99 143.54 114.09 L 143.85 113.16 C 144.15 112.27 143.67 111.29 142.78 110.99 C 141.88 110.69 140.91 111.17 140.60 112.06 Z M 140.24 113.04 L 139.94 114.04 C 139.66 114.97 140.19 115.94 141.11 116.22 C 142.04 116.50 143.01 115.97 143.29 115.05 L 143.59 114.04 C 143.87 113.12 143.34 112.14 142.41 111.87 C 141.49 111.59 140.51 112.12 140.24 113.04 Z M 139.88 114.11 L 139.63 115.12 C 139.38 116.08 139.96 117.05 140.91 117.29 C 141.87 117.53 142.84 116.96 143.08 116.00 L 143.34 114.99 C 143.58 114.03 143.01 113.06 142.05 112.82 C 141.10 112.57 140.13 113.15 139.88 114.11 Z M 139.58 115.16 L 139.35 116.19 C 139.13 117.17 139.74 118.14 140.72 118.37 C 141.70 118.59 142.68 117.97 142.90 116.99 L 143.13 115.96 C 143.35 114.98 142.73 114.01 141.75 113.79 C 140.77 113.57 139.80 114.18 139.58 115.16 Z M 139.31 116.21 L 139.10 117.19 C 138.89 118.20 139.53 119.18 140.53 119.39 C 141.53 119.60 142.52 118.96 142.73 117.96 L 142.94 116.97 C 143.15 115.97 142.51 114.99 141.51 114.78 C 140.51 114.57 139.52 115.21 139.31 116.21 Z M 139.07 117.19 L 138.87 118.13 C 138.66 119.15 139.31 120.15 140.32 120.37 C 141.34 120.58 142.34 119.93 142.56 118.92 L 142.76 117.97 C 142.97 116.95 142.32 115.95 141.31 115.74 C 140.29 115.52 139.29 116.17 139.07 117.19 Z M 138.86 118.10 L 138.62 119.16 C 138.38 120.19 139.02 121.20 140.04 121.44 C 141.06 121.68 142.08 121.04 142.32 120.02 L 142.56 118.95 C 142.80 117.93 142.16 116.91 141.14 116.68 C 140.12 116.44 139.10 117.08 138.86 118.10 Z M 138.62 119.14 L 138.42 119.97 C 138.17 120.99 138.80 122.01 139.82 122.26 C 140.84 122.51 141.86 121.89 142.11 120.87 L 142.31 120.04 C 142.56 119.02 141.94 117.99 140.92 117.75 C 139.90 117.50 138.87 118.12 138.62 119.14 Z M 138.41 119.99 L 138.19 120.96 C 137.95 121.98 138.59 123.00 139.62 123.24 C 140.64 123.47 141.66 122.83 141.90 121.81 L 142.12 120.84 C 142.35 119.82 141.72 118.80 140.69 118.56 C 139.67 118.33 138.65 118.97 138.41 119.99 Z M 138.19 120.93 L 137.96 121.91 C 137.71 122.93 138.34 123.96 139.36 124.21 C 140.38 124.45 141.41 123.83 141.65 122.81 L 141.89 121.83 C 142.14 120.81 141.51 119.78 140.49 119.54 C 139.47 119.29 138.44 119.91 138.19 120.93 Z M 137.97 121.85 L 137.71 122.81 C 137.43 123.83 138.02 124.88 139.04 125.15 C 140.05 125.43 141.10 124.84 141.38 123.82 L 141.64 122.86 C 141.92 121.85 141.32 120.80 140.31 120.52 C 139.30 120.24 138.25 120.84 137.97 121.85 Z M 137.71 122.79 L 137.43 123.76 C 137.14 124.77 137.73 125.83 138.74 126.12 C 139.75 126.41 140.80 125.82 141.09 124.81 L 141.37 123.84 C 141.66 122.83 141.08 121.78 140.07 121.49 C 139.06 121.20 138.00 121.78 137.71 122.79 Z M 137.44 123.74 L 137.15 124.70 C 136.85 125.71 137.43 126.77 138.43 127.07 C 139.44 127.37 140.51 126.80 140.81 125.79 L 141.09 124.83 C 141.39 123.82 140.82 122.76 139.81 122.46 C 138.80 122.16 137.74 122.73 137.44 123.74 Z M 137.17 124.65 L 136.85 125.61 C 136.52 126.61 137.07 127.69 138.07 128.01 C 139.07 128.34 140.15 127.80 140.48 126.80 L 140.79 125.84 C 141.12 124.84 140.58 123.76 139.57 123.43 C 138.57 123.10 137.50 123.65 137.17 124.65 Z M 136.87 125.54 L 136.52 126.47 C 136.16 127.46 136.66 128.56 137.65 128.93 C 138.63 129.30 139.73 128.79 140.10 127.81 L 140.45 126.87 C 140.82 125.88 140.32 124.78 139.33 124.41 C 138.34 124.04 137.24 124.55 136.87 125.54 Z M 136.55 126.40 L 136.17 127.32 C 135.76 128.29 136.22 129.41 137.20 129.82 C 138.17 130.22 139.29 129.76 139.70 128.79 L 140.08 127.87 C 140.48 126.90 140.02 125.78 139.05 125.37 C 138.07 124.97 136.96 125.43 136.55 126.40 Z M 136.19 127.27 L 135.78 128.19 C 135.35 129.15 135.78 130.28 136.75 130.71 C 137.71 131.14 138.84 130.71 139.27 129.74 L 139.68 128.83 C 140.11 127.86 139.68 126.73 138.71 126.30 C 137.75 125.87 136.62 126.31 136.19 127.27 Z M 135.78 128.18 L 135.37 129.10 C 134.93 130.06 135.36 131.20 136.33 131.63 C 137.29 132.06 138.42 131.63 138.86 130.67 L 139.27 129.75 C 139.71 128.79 139.28 127.66 138.31 127.22 C 137.35 126.79 136.22 127.22 135.78 128.18 Z M 135.38 129.08 L 134.96 129.98 C 134.51 130.94 134.92 132.08 135.88 132.52 C 136.84 132.97 137.98 132.56 138.42 131.60 L 138.84 130.69 C 139.29 129.74 138.88 128.60 137.92 128.15 C 136.96 127.71 135.83 128.12 135.38 129.08 Z M 134.99 129.92 L 134.57 130.75 C 134.09 131.69 134.46 132.84 135.40 133.32 C 136.33 133.80 137.48 133.43 137.96 132.49 L 138.39 131.66 C 138.87 130.72 138.50 129.57 137.56 129.09 C 136.62 128.61 135.47 128.98 134.99 129.92 Z M 134.61 130.67 L 134.09 131.58 C 133.57 132.49 133.88 133.65 134.79 134.18 C 135.70 134.70 136.87 134.39 137.39 133.48 L 137.92 132.57 C 138.44 131.66 138.13 130.49 137.22 129.97 C 136.30 129.44 135.14 129.76 134.61 130.67 Z M 134.12 131.53 L 133.63 132.33 C 133.08 133.22 133.35 134.39 134.25 134.95 C 135.14 135.50 136.32 135.22 136.87 134.33 L 137.36 133.53 C 137.91 132.63 137.64 131.46 136.74 130.91 C 135.85 130.36 134.68 130.63 134.12 131.53 Z M 133.65 132.31 L 133.10 133.17 C 132.54 134.05 132.80 135.23 133.68 135.79 C 134.57 136.35 135.74 136.09 136.30 135.21 L 136.85 134.35 C 137.41 133.46 137.15 132.29 136.27 131.72 C 135.38 131.16 134.21 131.42 133.65 132.31 Z M 133.11 133.16 L 132.53 134.05 C 131.96 134.93 132.21 136.10 133.09 136.67 C 133.97 137.24 135.15 136.99 135.72 136.11 L 136.29 135.22 C 136.86 134.34 136.61 133.16 135.73 132.60 C 134.85 132.03 133.68 132.28 133.11 133.16 Z M 132.55 134.04 L 131.98 134.91 C 131.41 135.78 131.65 136.95 132.52 137.52 C 133.40 138.09 134.57 137.85 135.14 136.97 L 135.70 136.11 C 136.27 135.24 136.03 134.07 135.16 133.50 C 134.29 132.93 133.12 133.17 132.55 134.04 Z M 132.00 134.90 L 131.45 135.73 C 130.87 136.60 131.11 137.76 131.97 138.33 C 132.83 138.90 133.99 138.67 134.57 137.81 L 135.12 136.98 C 135.69 136.12 135.46 134.95 134.60 134.38 C 133.74 133.81 132.57 134.04 132.00 134.90 Z M 131.47 135.73 L 130.92 136.54 C 130.34 137.39 130.56 138.54 131.41 139.12 C 132.26 139.70 133.41 139.48 133.99 138.63 L 134.54 137.82 C 135.12 136.97 134.90 135.81 134.05 135.24 C 133.20 134.66 132.05 134.88 131.47 135.73 Z M 130.96 136.54 L 130.35 137.41 C 129.77 138.23 129.97 139.37 130.80 139.95 C 131.62 140.53 132.76 140.33 133.34 139.50 L 133.95 138.63 C 134.52 137.81 134.33 136.67 133.50 136.09 C 132.68 135.51 131.54 135.71 130.96 136.54 Z M 130.41 137.40 L 129.84 138.17 C 129.26 138.96 129.43 140.08 130.22 140.66 C 131.01 141.24 132.12 141.07 132.71 140.28 L 133.28 139.51 C 133.86 138.72 133.69 137.60 132.90 137.02 C 132.11 136.44 130.99 136.61 130.41 137.40 Z M 129.92 138.15 L 129.29 138.94 C 128.69 139.69 128.82 140.78 129.56 141.37 C 130.31 141.97 131.40 141.84 131.99 141.10 L 132.62 140.30 C 133.22 139.56 133.10 138.47 132.35 137.88 C 131.60 137.28 130.52 137.40 129.92 138.15 Z M 129.38 138.93 L 128.75 139.65 C 128.15 140.35 128.23 141.40 128.93 142.01 C 129.62 142.61 130.68 142.53 131.28 141.83 L 131.90 141.11 C 132.50 140.41 132.43 139.36 131.73 138.76 C 131.03 138.16 129.98 138.23 129.38 138.93 Z M 128.79 139.66 L 128.71 139.75 C 128.12 140.43 128.18 141.46 128.86 142.06 C 129.53 142.65 130.57 142.59 131.16 141.91 L 131.24 141.83 C 131.84 141.15 131.77 140.12 131.10 139.52 C 130.42 138.92 129.39 138.99 128.79 139.66 Z"
      fill="black"
      fill-rule="nonzero" /><path d="M 135.95 132.70 L 136.65 133.42 C 137.32 134.13 138.45 134.16 139.16 133.48 C 139.87 132.80 139.89 131.68 139.21 130.97 L 138.52 130.24 C 137.84 129.53 136.72 129.51 136.01 130.18 C 135.30 130.86 135.28 131.99 135.95 132.70 Z M 136.54 133.63 L 137.25 134.32 C 138.04 135.09 139.31 135.07 140.08 134.28 C 140.85 133.49 140.83 132.22 140.04 131.45 L 139.32 130.76 C 138.53 129.99 137.27 130.01 136.50 130.80 C 135.73 131.59 135.74 132.86 136.54 133.63 Z M 137.28 134.48 L 138.01 135.10 C 138.89 135.85 140.21 135.75 140.96 134.87 C 141.71 133.99 141.61 132.66 140.73 131.91 L 140.00 131.29 C 139.12 130.54 137.80 130.64 137.05 131.52 C 136.30 132.40 136.40 133.73 137.28 134.48 Z M 138.11 135.15 L 138.94 135.78 C 139.85 136.48 141.14 136.31 141.84 135.40 C 142.54 134.49 142.36 133.19 141.45 132.50 L 140.63 131.86 C 139.72 131.17 138.42 131.34 137.72 132.25 C 137.03 133.16 137.20 134.46 138.11 135.15 Z M 139.01 135.79 L 139.78 136.34 C 140.69 137.00 141.96 136.78 142.62 135.87 C 143.27 134.96 143.06 133.69 142.14 133.03 L 141.38 132.49 C 140.47 131.83 139.19 132.04 138.54 132.96 C 137.89 133.87 138.10 135.14 139.01 135.79 Z M 139.86 136.34 L 140.71 136.91 C 141.62 137.52 142.85 137.27 143.46 136.36 C 144.07 135.45 143.83 134.22 142.92 133.61 L 142.07 133.04 C 141.15 132.43 139.92 132.67 139.31 133.58 C 138.70 134.49 138.95 135.73 139.86 136.34 Z M 140.80 136.90 L 141.68 137.44 C 142.59 138.00 143.78 137.72 144.33 136.81 C 144.89 135.90 144.61 134.72 143.70 134.16 L 142.83 133.62 C 141.92 133.06 140.73 133.34 140.17 134.25 C 139.61 135.15 139.89 136.34 140.80 136.90 Z M 141.78 137.42 L 142.65 137.91 C 143.55 138.41 144.68 138.09 145.18 137.20 C 145.69 136.30 145.37 135.17 144.47 134.66 L 143.60 134.18 C 142.70 133.67 141.57 133.99 141.07 134.89 C 140.57 135.79 140.89 136.92 141.78 137.42 Z M 142.76 137.88 L 143.66 138.33 C 144.54 138.77 145.61 138.42 146.06 137.54 C 146.50 136.66 146.14 135.59 145.26 135.14 L 144.36 134.69 C 143.48 134.25 142.41 134.61 141.97 135.49 C 141.53 136.37 141.88 137.44 142.76 137.88 Z M 143.77 138.31 L 144.69 138.71 C 145.56 139.09 146.57 138.70 146.95 137.83 C 147.33 136.97 146.94 135.96 146.07 135.57 L 145.15 135.17 C 144.29 134.79 143.27 135.18 142.89 136.05 C 142.51 136.91 142.90 137.93 143.77 138.31 Z M 144.78 138.69 L 145.71 139.05 C 146.57 139.39 147.53 138.96 147.86 138.11 C 148.19 137.25 147.77 136.29 146.92 135.96 L 145.98 135.60 C 145.13 135.26 144.17 135.69 143.83 136.54 C 143.50 137.40 143.92 138.36 144.78 138.69 Z M 145.77 139.02 L 146.71 139.36 C 147.54 139.66 148.47 139.23 148.77 138.39 C 149.07 137.55 148.64 136.63 147.80 136.33 L 146.86 135.99 C 146.02 135.69 145.10 136.12 144.80 136.96 C 144.50 137.80 144.93 138.72 145.77 139.02 Z M 146.73 139.34 L 147.03 139.44 C 147.85 139.73 148.75 139.30 149.04 138.48 C 149.33 137.65 148.90 136.75 148.08 136.46 L 147.78 136.36 C 146.96 136.06 146.05 136.50 145.76 137.32 C 145.47 138.14 145.90 139.04 146.73 139.34 Z"
      fill="black"
      fill-rule="nonzero" /><path d="M 152.38 113.34 L 152.70 114.30 C 152.98 115.17 153.92 115.65 154.80 115.36 C 155.67 115.07 156.15 114.13 155.86 113.26 L 155.54 112.30 C 155.26 111.43 154.31 110.95 153.44 111.24 C 152.57 111.53 152.09 112.47 152.38 113.34 Z M 152.60 114.38 L 152.93 115.31 C 153.26 116.24 154.28 116.72 155.21 116.39 C 156.14 116.06 156.62 115.04 156.29 114.11 L 155.95 113.18 C 155.62 112.25 154.60 111.77 153.68 112.10 C 152.75 112.43 152.27 113.45 152.60 114.38 Z M 152.92 115.41 L 153.29 116.32 C 153.68 117.25 154.75 117.70 155.68 117.31 C 156.62 116.93 157.06 115.86 156.68 114.92 L 156.30 114.02 C 155.92 113.08 154.85 112.64 153.91 113.02 C 152.98 113.41 152.53 114.48 152.92 115.41 Z M 153.34 116.40 L 153.78 117.31 C 154.21 118.22 155.29 118.61 156.20 118.17 C 157.10 117.74 157.49 116.66 157.06 115.75 L 156.62 114.84 C 156.19 113.93 155.11 113.55 154.20 113.98 C 153.30 114.41 152.91 115.49 153.34 116.40 Z M 153.85 117.36 L 154.31 118.23 C 154.76 119.10 155.84 119.43 156.70 118.97 C 157.57 118.52 157.90 117.44 157.45 116.58 L 156.99 115.71 C 156.53 114.84 155.46 114.51 154.59 114.97 C 153.73 115.42 153.39 116.49 153.85 117.36 Z M 154.38 118.23 L 154.88 119.12 C 155.33 119.95 156.37 120.25 157.19 119.80 C 158.02 119.34 158.32 118.30 157.86 117.48 L 157.37 116.58 C 156.92 115.76 155.88 115.46 155.05 115.91 C 154.23 116.36 153.93 117.40 154.38 118.23 Z M 154.91 119.11 L 154.93 119.15 C 155.38 119.96 156.40 120.25 157.20 119.81 C 158.01 119.36 158.30 118.34 157.86 117.54 L 157.83 117.49 C 157.38 116.68 156.37 116.39 155.56 116.84 C 154.75 117.29 154.46 118.30 154.91 119.11 Z"
      fill="black"
      fill-rule="nonzero" /><path d="M 166.51 112.31 L 166.34 113.23 C 166.18 114.12 166.77 114.97 167.66 115.13 C 168.55 115.29 169.40 114.70 169.56 113.81 L 169.72 112.89 C 169.88 112.01 169.29 111.16 168.41 111.00 C 167.52 110.84 166.67 111.43 166.51 112.31 Z M 166.32 113.15 L 166.09 114.19 C 165.88 115.09 166.45 115.98 167.35 116.19 C 168.25 116.39 169.14 115.82 169.35 114.92 L 169.58 113.88 C 169.78 112.98 169.22 112.09 168.32 111.89 C 167.42 111.69 166.52 112.25 166.32 113.15 Z M 166.09 114.11 L 165.82 115.07 C 165.58 115.97 166.11 116.90 167.01 117.15 C 167.91 117.39 168.84 116.86 169.08 115.96 L 169.34 115.00 C 169.59 114.10 169.06 113.17 168.16 112.93 C 167.26 112.68 166.33 113.21 166.09 114.11 Z M 165.84 115.01 L 165.54 115.99 C 165.26 116.88 165.75 117.83 166.64 118.11 C 167.53 118.38 168.48 117.89 168.76 117.00 L 169.06 116.02 C 169.34 115.13 168.85 114.19 167.96 113.91 C 167.07 113.63 166.12 114.13 165.84 115.01 Z M 165.58 115.92 L 165.23 116.88 C 164.91 117.74 165.35 118.71 166.22 119.02 C 167.09 119.34 168.05 118.90 168.37 118.03 L 168.72 117.07 C 169.04 116.20 168.59 115.24 167.72 114.92 C 166.86 114.61 165.89 115.05 165.58 115.92 Z M 165.30 116.78 L 164.91 117.67 C 164.54 118.49 164.90 119.46 165.73 119.83 C 166.55 120.20 167.52 119.83 167.89 119.01 L 168.29 118.12 C 168.66 117.30 168.29 116.33 167.47 115.96 C 166.64 115.59 165.67 115.96 165.30 116.78 Z M 164.96 117.59 L 164.52 118.44 C 164.10 119.23 164.41 120.21 165.20 120.63 C 166.00 121.04 166.98 120.73 167.39 119.94 L 167.83 119.09 C 168.25 118.29 167.94 117.32 167.15 116.90 C 166.36 116.49 165.38 116.79 164.96 117.59 Z M 164.51 118.38 L 164.02 119.26 C 163.58 120.06 163.86 121.06 164.66 121.51 C 165.45 121.95 166.46 121.67 166.91 120.87 L 167.40 120.00 C 167.84 119.20 167.56 118.19 166.76 117.75 C 165.96 117.30 164.96 117.59 164.51 118.38 Z M 163.99 119.22 L 163.62 119.86 C 163.16 120.68 163.44 121.71 164.26 122.18 C 165.07 122.65 166.11 122.36 166.57 121.55 L 166.94 120.91 C 167.40 120.10 167.12 119.06 166.31 118.59 C 165.49 118.13 164.46 118.41 163.99 119.22 Z"
      fill="black"
      fill-rule="nonzero" /><path d="M 161.42 109.90 L 161.34 110.84 C 161.27 111.73 161.94 112.51 162.82 112.58 C 163.71 112.65 164.49 111.99 164.56 111.10 L 164.63 110.15 C 164.70 109.26 164.04 108.49 163.15 108.42 C 162.27 108.35 161.49 109.01 161.42 109.90 Z M 161.25 110.74 L 161.12 111.77 C 160.99 112.71 161.65 113.57 162.59 113.69 C 163.53 113.82 164.39 113.16 164.51 112.22 L 164.65 111.20 C 164.78 110.26 164.12 109.40 163.18 109.27 C 162.24 109.15 161.38 109.81 161.25 110.74 Z M 161.08 111.63 L 160.87 112.61 C 160.67 113.57 161.29 114.52 162.25 114.72 C 163.21 114.92 164.15 114.30 164.35 113.34 L 164.55 112.36 C 164.75 111.40 164.14 110.46 163.18 110.26 C 162.22 110.06 161.28 110.67 161.08 111.63 Z M 160.87 112.53 L 160.62 113.52 C 160.37 114.48 160.95 115.46 161.91 115.70 C 162.87 115.95 163.84 115.37 164.09 114.41 L 164.34 113.42 C 164.59 112.47 164.01 111.49 163.06 111.24 C 162.10 111.00 161.12 111.57 160.87 112.53 Z M 160.62 113.48 L 160.35 114.45 C 160.08 115.41 160.63 116.40 161.59 116.67 C 162.54 116.94 163.54 116.39 163.81 115.43 L 164.09 114.46 C 164.36 113.50 163.80 112.51 162.85 112.24 C 161.89 111.96 160.90 112.52 160.62 113.48 Z M 160.35 114.42 L 160.06 115.38 C 159.77 116.33 160.31 117.34 161.27 117.63 C 162.22 117.92 163.23 117.38 163.52 116.42 L 163.81 115.46 C 164.10 114.51 163.56 113.50 162.60 113.21 C 161.65 112.92 160.64 113.46 160.35 114.42 Z M 160.06 115.35 L 159.77 116.27 C 159.46 117.22 159.99 118.24 160.94 118.55 C 161.90 118.85 162.92 118.32 163.22 117.37 L 163.51 116.45 C 163.82 115.50 163.29 114.48 162.34 114.17 C 161.39 113.87 160.37 114.40 160.06 115.35 Z M 159.77 116.25 L 159.47 117.18 C 159.15 118.13 159.67 119.16 160.62 119.47 C 161.58 119.78 162.60 119.26 162.91 118.31 L 163.22 117.39 C 163.53 116.44 163.01 115.41 162.06 115.10 C 161.11 114.78 160.08 115.30 159.77 116.25 Z M 159.46 117.17 L 159.14 118.14 C 158.82 119.10 159.34 120.13 160.29 120.44 C 161.25 120.76 162.28 120.25 162.59 119.29 L 162.92 118.32 C 163.23 117.37 162.72 116.34 161.76 116.02 C 160.81 115.70 159.78 116.22 159.46 117.17 Z M 159.14 118.14 L 158.82 119.09 C 158.50 120.05 159.02 121.08 159.98 121.40 C 160.93 121.72 161.97 121.20 162.28 120.24 L 162.60 119.29 C 162.92 118.34 162.40 117.30 161.44 116.99 C 160.49 116.67 159.45 117.19 159.14 118.14 Z M 158.82 119.09 L 158.50 120.04 C 158.18 121.00 158.70 122.04 159.66 122.36 C 160.62 122.67 161.65 122.16 161.97 121.20 L 162.29 120.24 C 162.61 119.29 162.09 118.25 161.13 117.93 C 160.17 117.61 159.14 118.13 158.82 119.09 Z M 158.50 120.04 L 158.18 120.99 C 157.85 121.95 158.37 122.99 159.33 123.31 C 160.29 123.64 161.33 123.12 161.65 122.16 L 161.97 121.20 C 162.29 120.25 161.78 119.21 160.82 118.88 C 159.86 118.56 158.82 119.08 158.50 120.04 Z M 158.18 120.98 L 157.85 121.92 C 157.52 122.88 158.03 123.93 158.99 124.26 C 159.95 124.59 160.99 124.08 161.32 123.12 L 161.65 122.17 C 161.98 121.22 161.47 120.17 160.51 119.84 C 159.55 119.51 158.51 120.02 158.18 120.98 Z M 157.86 121.90 L 157.52 122.83 C 157.17 123.79 157.67 124.84 158.62 125.19 C 159.57 125.53 160.63 125.04 160.97 124.09 L 161.31 123.15 C 161.66 122.20 161.17 121.14 160.21 120.80 C 159.26 120.45 158.21 120.94 157.86 121.90 Z M 157.53 122.79 L 157.17 123.73 C 156.80 124.68 157.27 125.74 158.22 126.11 C 159.16 126.48 160.23 126.01 160.59 125.06 L 160.96 124.12 C 161.33 123.18 160.86 122.11 159.91 121.75 C 158.97 121.38 157.90 121.85 157.53 122.79 Z M 157.18 123.70 L 156.80 124.63 C 156.42 125.57 156.87 126.64 157.81 127.03 C 158.75 127.41 159.82 126.96 160.20 126.02 L 160.58 125.09 C 160.97 124.15 160.52 123.08 159.58 122.70 C 158.64 122.31 157.56 122.76 157.18 123.70 Z M 156.81 124.62 L 156.42 125.54 C 156.03 126.48 156.47 127.55 157.41 127.94 C 158.35 128.33 159.42 127.89 159.81 126.96 L 160.20 126.03 C 160.59 125.10 160.15 124.02 159.21 123.63 C 158.27 123.24 157.20 123.68 156.81 124.62 Z M 156.43 125.53 L 156.03 126.46 C 155.64 127.39 156.08 128.47 157.01 128.87 C 157.94 129.26 159.02 128.82 159.42 127.89 L 159.81 126.96 C 160.20 126.03 159.77 124.95 158.83 124.56 C 157.90 124.16 156.82 124.60 156.43 125.53 Z M 156.04 126.44 L 155.65 127.34 C 155.24 128.27 155.67 129.35 156.59 129.76 C 157.52 130.16 158.60 129.74 159.01 128.81 L 159.41 127.91 C 159.81 126.98 159.39 125.90 158.46 125.49 C 157.53 125.09 156.45 125.51 156.04 126.44 Z M 155.67 127.31 L 155.24 128.23 C 154.81 129.15 155.21 130.24 156.13 130.66 C 157.05 131.09 158.14 130.69 158.57 129.77 L 158.99 128.85 C 159.42 127.93 159.02 126.84 158.10 126.41 C 157.18 125.99 156.09 126.39 155.67 127.31 Z M 155.26 128.19 L 154.83 129.08 C 154.38 129.99 154.75 131.08 155.66 131.53 C 156.57 131.97 157.66 131.60 158.11 130.69 L 158.54 129.81 C 158.99 128.90 158.62 127.80 157.71 127.36 C 156.80 126.91 155.71 127.29 155.26 128.19 Z M 154.85 129.05 L 154.39 129.93 C 153.92 130.83 154.27 131.93 155.16 132.39 C 156.06 132.86 157.16 132.51 157.62 131.62 L 158.09 130.73 C 158.55 129.83 158.20 128.73 157.31 128.27 C 156.41 127.80 155.31 128.15 154.85 129.05 Z M 154.41 129.91 L 153.94 130.78 C 153.46 131.66 153.78 132.77 154.66 133.24 C 155.55 133.72 156.65 133.40 157.13 132.51 L 157.60 131.64 C 158.08 130.76 157.75 129.66 156.87 129.18 C 155.99 128.70 154.89 129.03 154.41 129.91 Z M 153.95 130.77 L 153.49 131.61 C 153.00 132.49 153.31 133.58 154.19 134.07 C 155.06 134.55 156.16 134.24 156.64 133.37 L 157.11 132.52 C 157.59 131.65 157.28 130.55 156.41 130.07 C 155.54 129.59 154.44 129.90 153.95 130.77 Z M 153.51 131.59 L 153.01 132.46 C 152.51 133.32 152.81 134.41 153.66 134.91 C 154.52 135.41 155.61 135.11 156.11 134.26 L 156.61 133.39 C 157.11 132.53 156.82 131.44 155.96 130.94 C 155.11 130.45 154.01 130.74 153.51 131.59 Z M 153.05 132.43 L 152.51 133.30 C 152.00 134.13 152.25 135.22 153.08 135.74 C 153.92 136.25 155.01 136.00 155.53 135.16 L 156.07 134.30 C 156.58 133.46 156.33 132.37 155.49 131.85 C 154.66 131.34 153.57 131.59 153.05 132.43 Z M 152.57 133.24 L 152.00 134.08 C 151.45 134.89 151.66 135.98 152.46 136.52 C 153.26 137.07 154.36 136.86 154.90 136.06 L 155.47 135.22 C 156.02 134.42 155.81 133.32 155.01 132.78 C 154.20 132.23 153.11 132.44 152.57 133.24 Z M 152.08 134.00 L 151.46 134.79 C 150.87 135.55 151.01 136.64 151.76 137.23 C 152.52 137.82 153.61 137.68 154.20 136.93 L 154.82 136.14 C 155.41 135.38 155.27 134.29 154.52 133.70 C 153.76 133.11 152.67 133.25 152.08 134.00 Z M 151.60 134.69 L 150.90 135.43 C 150.25 136.12 150.28 137.19 150.96 137.84 C 151.65 138.48 152.72 138.45 153.37 137.77 L 154.07 137.03 C 154.71 136.34 154.68 135.27 154.00 134.62 C 153.32 133.98 152.24 134.01 151.60 134.69 Z M 151.01 135.39 L 150.30 136.05 C 149.63 136.67 149.59 137.72 150.21 138.39 C 150.84 139.05 151.88 139.09 152.55 138.47 L 153.26 137.81 C 153.92 137.19 153.96 136.15 153.34 135.48 C 152.72 134.81 151.67 134.77 151.01 135.39 Z"
      fill="black"
      fill-rule="nonzero" /><path d="M 155.45 127.85 L 155.40 128.89 C 155.36 129.86 156.11 130.68 157.08 130.72 C 158.05 130.76 158.87 130.01 158.91 129.04 L 158.96 128.01 C 159.00 127.04 158.25 126.22 157.28 126.17 C 156.31 126.13 155.49 126.88 155.45 127.85 Z M 155.40 129.78 L 155.77 130.57 C 156.22 131.54 157.37 131.96 158.34 131.51 C 159.30 131.06 159.72 129.91 159.27 128.94 L 158.91 128.15 C 158.46 127.18 157.31 126.76 156.34 127.21 C 155.37 127.66 154.95 128.81 155.40 129.78 Z M 156.52 131.48 L 157.34 131.96 C 158.29 132.51 159.51 132.19 160.07 131.23 C 160.62 130.28 160.30 129.06 159.34 128.50 L 158.52 128.03 C 157.57 127.48 156.35 127.80 155.80 128.75 C 155.24 129.71 155.57 130.93 156.52 131.48 Z M 157.69 132.10 L 158.71 132.45 C 159.75 132.81 160.87 132.27 161.23 131.23 C 161.59 130.20 161.04 129.07 160.01 128.71 L 158.99 128.36 C 157.95 128.00 156.83 128.55 156.47 129.58 C 156.11 130.62 156.66 131.74 157.69 132.10 Z M 158.79 132.43 L 159.72 132.72 C 160.74 133.04 161.83 132.46 162.14 131.44 C 162.45 130.42 161.88 129.34 160.86 129.02 L 159.93 128.73 C 158.91 128.42 157.83 128.99 157.51 130.02 C 157.20 131.04 157.77 132.12 158.79 132.43 Z M 159.77 132.67 L 160.75 132.96 C 161.75 133.24 162.79 132.67 163.07 131.68 C 163.36 130.69 162.79 129.65 161.80 129.36 L 160.81 129.07 C 159.82 128.78 158.78 129.36 158.49 130.35 C 158.20 131.34 158.77 132.38 159.77 132.67 Z M 160.79 132.90 L 161.76 133.17 C 162.72 133.44 163.72 132.87 163.99 131.91 C 164.25 130.94 163.69 129.95 162.73 129.68 L 161.76 129.41 C 160.80 129.14 159.80 129.71 159.53 130.67 C 159.26 131.64 159.83 132.63 160.79 132.90 Z M 161.79 133.12 L 162.75 133.37 C 163.69 133.63 164.65 133.07 164.90 132.14 C 165.15 131.20 164.60 130.24 163.66 129.99 L 162.70 129.73 C 161.76 129.48 160.80 130.04 160.55 130.97 C 160.30 131.91 160.86 132.87 161.79 133.12 Z M 162.78 133.32 L 163.76 133.58 C 164.66 133.81 165.59 133.27 165.82 132.37 C 166.06 131.47 165.52 130.54 164.62 130.30 L 163.64 130.05 C 162.73 129.81 161.81 130.35 161.57 131.25 C 161.33 132.16 161.87 133.08 162.78 133.32 Z M 163.77 133.53 L 164.75 133.78 C 165.62 134.01 166.52 133.49 166.75 132.61 C 166.98 131.73 166.45 130.83 165.57 130.60 L 164.60 130.35 C 163.72 130.12 162.83 130.65 162.60 131.53 C 162.37 132.41 162.90 133.30 163.77 133.53 Z M 164.76 133.75 L 165.72 134.00 C 166.59 134.23 167.46 133.71 167.69 132.85 C 167.91 131.99 167.39 131.11 166.53 130.89 L 165.56 130.64 C 164.70 130.41 163.82 130.93 163.60 131.79 C 163.38 132.65 163.90 133.53 164.76 133.75 Z M 165.73 133.97 L 166.70 134.22 C 167.54 134.44 168.41 133.93 168.62 133.09 C 168.84 132.24 168.33 131.38 167.49 131.17 L 166.52 130.92 C 165.68 130.70 164.82 131.21 164.60 132.05 C 164.38 132.89 164.89 133.76 165.73 133.97 Z M 166.71 134.21 L 166.77 134.22 C 167.60 134.44 168.45 133.93 168.67 133.10 C 168.88 132.26 168.38 131.41 167.55 131.20 L 167.48 131.18 C 166.65 130.97 165.80 131.47 165.58 132.30 C 165.37 133.14 165.87 133.99 166.71 134.21 Z"
      fill="black"
      fill-rule="nonzero" /><path d="M 129.04 147.31 L 128.69 148.23 C 128.37 149.10 128.81 150.06 129.67 150.39 C 130.54 150.71 131.51 150.27 131.83 149.40 L 132.17 148.48 C 132.50 147.61 132.06 146.65 131.19 146.33 C 130.33 146.00 129.36 146.44 129.04 147.31 Z M 128.67 148.18 L 128.30 149.10 C 127.94 149.98 128.37 150.98 129.25 151.33 C 130.13 151.69 131.13 151.26 131.48 150.38 L 131.85 149.46 C 132.21 148.58 131.78 147.58 130.90 147.22 C 130.02 146.87 129.02 147.30 128.67 148.18 Z M 128.31 149.03 L 127.91 149.91 C 127.52 150.78 127.91 151.81 128.79 152.20 C 129.66 152.59 130.69 152.20 131.08 151.33 L 131.47 150.45 C 131.87 149.58 131.48 148.55 130.60 148.16 C 129.73 147.76 128.70 148.15 128.31 149.03 Z M 127.95 149.84 L 127.47 150.77 C 127.04 151.62 127.39 152.67 128.24 153.10 C 129.10 153.53 130.14 153.19 130.57 152.33 L 131.05 151.40 C 131.48 150.55 131.13 149.50 130.28 149.07 C 129.42 148.64 128.38 148.98 127.95 149.84 Z M 127.51 150.71 L 127.03 151.58 C 126.56 152.42 126.87 153.48 127.71 153.94 C 128.54 154.40 129.60 154.10 130.06 153.26 L 130.54 152.39 C 131.01 151.55 130.70 150.50 129.86 150.03 C 129.02 149.57 127.97 149.88 127.51 150.71 Z M 127.04 151.56 L 126.54 152.44 C 126.06 153.27 126.35 154.33 127.17 154.80 C 128.00 155.28 129.06 154.99 129.54 154.17 L 130.04 153.28 C 130.52 152.46 130.23 151.40 129.41 150.92 C 128.58 150.45 127.52 150.73 127.04 151.56 Z M 126.56 152.45 L 126.05 153.33 C 125.58 154.15 125.85 155.19 126.66 155.66 C 127.48 156.14 128.52 155.86 128.99 155.05 L 129.51 154.16 C 129.98 153.35 129.71 152.31 128.89 151.83 C 128.08 151.36 127.04 151.63 126.56 152.45 Z M 126.10 153.36 L 125.60 154.21 C 125.14 155.00 125.40 156.01 126.19 156.47 C 126.98 156.93 127.99 156.66 128.45 155.88 L 128.95 155.02 C 129.41 154.24 129.14 153.23 128.35 152.77 C 127.57 152.31 126.56 152.57 126.10 153.36 Z M 125.64 154.23 L 125.38 154.67 C 124.94 155.43 125.19 156.41 125.96 156.86 C 126.72 157.31 127.71 157.05 128.15 156.29 L 128.41 155.86 C 128.85 155.09 128.60 154.11 127.83 153.66 C 127.07 153.21 126.08 153.47 125.64 154.23 Z"
      fill="black"
      fill-rule="nonzero" /><path d="M 134.67 148.34 L 135.67 148.13 C 136.69 147.92 137.35 146.93 137.14 145.91 C 136.93 144.89 135.94 144.23 134.92 144.44 L 133.91 144.65 C 132.89 144.86 132.24 145.85 132.45 146.87 C 132.65 147.89 133.65 148.55 134.67 148.34 Z M 135.74 148.15 L 136.70 147.92 C 137.72 147.68 138.36 146.65 138.12 145.62 C 137.87 144.59 136.84 143.95 135.81 144.20 L 134.86 144.43 C 133.83 144.67 133.19 145.70 133.43 146.73 C 133.68 147.76 134.71 148.39 135.74 148.15 Z M 136.83 147.91 L 137.79 147.61 C 138.81 147.29 139.38 146.21 139.06 145.19 C 138.74 144.17 137.66 143.60 136.64 143.92 L 135.68 144.22 C 134.66 144.53 134.09 145.62 134.41 146.63 C 134.72 147.65 135.81 148.22 136.83 147.91 Z M 137.90 147.57 L 138.82 147.23 C 139.82 146.85 140.32 145.73 139.95 144.73 C 139.57 143.73 138.45 143.22 137.45 143.60 L 136.53 143.95 C 135.53 144.33 135.02 145.45 135.40 146.45 C 135.78 147.45 136.90 147.95 137.90 147.57 Z M 138.85 147.21 L 139.68 146.88 C 140.68 146.49 141.16 145.36 140.77 144.37 C 140.37 143.37 139.25 142.89 138.25 143.28 L 137.42 143.61 C 136.42 144.01 135.94 145.13 136.33 146.13 C 136.73 147.12 137.86 147.61 138.85 147.21 Z M 139.67 146.89 L 140.64 146.51 C 141.64 146.12 142.13 144.99 141.74 144.00 C 141.35 143.00 140.22 142.51 139.23 142.90 L 138.26 143.28 C 137.26 143.67 136.77 144.79 137.16 145.79 C 137.55 146.79 138.68 147.28 139.67 146.89 Z M 140.62 146.51 L 141.57 146.15 C 142.57 145.77 143.07 144.65 142.69 143.65 C 142.31 142.65 141.19 142.15 140.19 142.53 L 139.24 142.89 C 138.24 143.28 137.74 144.40 138.12 145.39 C 138.50 146.39 139.62 146.90 140.62 146.51 Z M 141.56 146.16 L 142.51 145.80 C 143.51 145.43 144.02 144.32 143.65 143.31 C 143.27 142.31 142.16 141.80 141.15 142.17 L 140.21 142.53 C 139.20 142.90 138.69 144.02 139.07 145.02 C 139.44 146.02 140.56 146.53 141.56 146.16 Z M 142.49 145.81 L 143.46 145.46 C 144.47 145.09 144.99 143.98 144.62 142.98 C 144.26 141.97 143.15 141.45 142.14 141.82 L 141.17 142.17 C 140.16 142.53 139.65 143.64 140.01 144.65 C 140.37 145.65 141.49 146.17 142.49 145.81 Z M 143.44 145.46 L 144.38 145.14 C 145.39 144.78 145.92 143.68 145.57 142.67 C 145.21 141.66 144.11 141.13 143.10 141.48 L 142.17 141.81 C 141.16 142.16 140.62 143.27 140.98 144.27 C 141.33 145.28 142.43 145.82 143.44 145.46 Z M 144.35 145.14 L 145.25 144.84 C 146.26 144.50 146.81 143.41 146.47 142.40 C 146.13 141.38 145.04 140.84 144.03 141.18 L 143.13 141.48 C 142.11 141.82 141.57 142.91 141.91 143.92 C 142.24 144.93 143.34 145.48 144.35 145.14 Z M 145.23 144.84 L 146.18 144.54 C 147.19 144.21 147.75 143.12 147.42 142.11 C 147.10 141.10 146.01 140.54 145.00 140.87 L 144.05 141.17 C 143.03 141.50 142.48 142.59 142.81 143.60 C 143.13 144.61 144.22 145.17 145.23 144.84 Z M 146.17 144.53 L 147.16 144.22 C 148.17 143.90 148.73 142.82 148.40 141.81 C 148.08 140.79 147.00 140.23 145.99 140.56 L 145.00 140.87 C 143.99 141.19 143.43 142.27 143.76 143.29 C 144.08 144.30 145.16 144.86 146.17 144.53 Z M 147.15 144.22 L 148.08 143.93 C 149.09 143.61 149.65 142.53 149.33 141.52 C 149.01 140.50 147.93 139.94 146.92 140.26 L 145.99 140.56 C 144.98 140.88 144.42 141.96 144.74 142.97 C 145.06 143.98 146.14 144.54 147.15 144.22 Z M 148.07 143.93 L 149.06 143.62 C 150.07 143.30 150.63 142.23 150.32 141.22 C 150.00 140.21 148.92 139.64 147.91 139.96 L 146.93 140.26 C 145.92 140.58 145.36 141.65 145.67 142.67 C 145.99 143.68 147.06 144.24 148.07 143.93 Z M 149.04 143.62 L 150.03 143.32 C 151.04 143.01 151.61 141.94 151.30 140.93 C 150.99 139.92 149.92 139.35 148.91 139.65 L 147.93 139.96 C 146.91 140.27 146.34 141.34 146.65 142.35 C 146.96 143.36 148.03 143.93 149.04 143.62 Z M 150.01 143.32 L 151.01 143.03 C 152.02 142.73 152.60 141.67 152.30 140.65 C 152.00 139.64 150.94 139.06 149.92 139.36 L 148.93 139.65 C 147.92 139.95 147.34 141.01 147.64 142.03 C 147.93 143.04 149.00 143.62 150.01 143.32 Z M 150.98 143.03 L 152.01 142.74 C 153.02 142.46 153.61 141.41 153.33 140.39 C 153.05 139.38 151.99 138.79 150.98 139.07 L 149.95 139.36 C 148.94 139.64 148.34 140.69 148.63 141.71 C 148.91 142.72 149.96 143.31 150.98 143.03 Z M 151.98 142.74 L 152.93 142.49 C 153.94 142.22 154.55 141.18 154.28 140.17 C 154.01 139.15 152.97 138.55 151.96 138.82 L 151.01 139.07 C 149.99 139.34 149.39 140.38 149.66 141.39 C 149.93 142.41 150.97 143.01 151.98 142.74 Z M 152.91 142.49 L 153.80 142.26 C 154.82 142.01 155.43 140.98 155.17 139.96 C 154.92 138.95 153.89 138.34 152.87 138.59 L 151.98 138.82 C 150.97 139.08 150.35 140.11 150.61 141.12 C 150.87 142.13 151.89 142.75 152.91 142.49 Z M 153.79 142.26 L 154.78 142.02 C 155.79 141.77 156.41 140.75 156.17 139.74 C 155.92 138.73 154.90 138.11 153.89 138.35 L 152.89 138.60 C 151.88 138.84 151.26 139.86 151.51 140.88 C 151.75 141.89 152.77 142.51 153.79 142.26 Z M 154.76 142.01 L 155.74 141.79 C 156.75 141.55 157.38 140.54 157.14 139.53 C 156.90 138.52 155.90 137.89 154.89 138.13 L 153.91 138.36 C 152.90 138.59 152.27 139.60 152.51 140.61 C 152.74 141.62 153.75 142.25 154.76 142.01 Z M 155.71 141.78 L 156.65 141.58 C 157.66 141.36 158.30 140.37 158.08 139.36 C 157.86 138.35 156.86 137.71 155.85 137.93 L 154.91 138.13 C 153.90 138.35 153.26 139.34 153.48 140.35 C 153.70 141.36 154.70 142.00 155.71 141.78 Z M 156.61 141.58 L 157.61 141.39 C 158.62 141.19 159.28 140.21 159.08 139.19 C 158.88 138.18 157.90 137.53 156.89 137.73 L 155.89 137.92 C 154.88 138.12 154.22 139.10 154.42 140.12 C 154.62 141.13 155.60 141.78 156.61 141.58 Z M 157.58 141.39 L 158.56 141.21 C 159.57 141.03 160.24 140.06 160.06 139.04 C 159.87 138.03 158.90 137.36 157.89 137.54 L 156.91 137.72 C 155.90 137.91 155.23 138.88 155.42 139.89 C 155.60 140.90 156.57 141.57 157.58 141.39 Z M 158.55 141.21 L 159.53 141.04 C 160.54 140.86 161.22 139.90 161.04 138.88 C 160.86 137.87 159.89 137.19 158.88 137.37 L 157.90 137.54 C 156.89 137.72 156.21 138.69 156.39 139.70 C 156.57 140.71 157.53 141.39 158.55 141.21 Z M 159.53 141.04 L 160.52 140.86 C 161.54 140.68 162.21 139.72 162.03 138.70 C 161.85 137.69 160.89 137.01 159.87 137.19 L 158.88 137.37 C 157.86 137.55 157.19 138.52 157.37 139.53 C 157.55 140.54 158.52 141.22 159.53 141.04 Z M 160.53 140.86 L 161.50 140.69 C 162.52 140.50 163.19 139.53 163.00 138.52 C 162.82 137.51 161.85 136.83 160.84 137.02 L 159.87 137.19 C 158.85 137.38 158.18 138.35 158.37 139.36 C 158.55 140.38 159.52 141.05 160.53 140.86 Z M 161.52 140.68 L 162.52 140.49 C 163.53 140.30 164.19 139.32 164.00 138.31 C 163.81 137.30 162.83 136.64 161.82 136.83 L 160.82 137.02 C 159.81 137.21 159.15 138.19 159.34 139.20 C 159.53 140.21 160.51 140.88 161.52 140.68 Z M 162.53 140.49 L 163.50 140.30 C 164.51 140.10 165.17 139.12 164.97 138.11 C 164.77 137.10 163.79 136.44 162.78 136.64 L 161.81 136.83 C 160.80 137.03 160.14 138.01 160.34 139.02 C 160.54 140.03 161.52 140.69 162.53 140.49 Z M 163.51 140.29 L 164.49 140.10 C 165.50 139.89 166.15 138.91 165.94 137.90 C 165.74 136.89 164.76 136.24 163.75 136.45 L 162.77 136.65 C 161.76 136.85 161.11 137.83 161.32 138.84 C 161.52 139.85 162.50 140.50 163.51 140.29 Z M 164.50 140.09 L 165.48 139.88 C 166.49 139.67 167.13 138.68 166.92 137.68 C 166.70 136.67 165.72 136.03 164.71 136.24 L 163.73 136.45 C 162.73 136.66 162.09 137.65 162.30 138.66 C 162.51 139.66 163.50 140.30 164.50 140.09 Z M 165.52 139.88 L 166.48 139.65 C 167.48 139.42 168.10 138.42 167.87 137.42 C 167.64 136.42 166.64 135.80 165.64 136.03 L 164.68 136.25 C 163.68 136.48 163.05 137.48 163.29 138.48 C 163.52 139.48 164.51 140.11 165.52 139.88 Z M 166.52 139.64 L 167.49 139.39 C 168.48 139.14 169.08 138.13 168.82 137.13 C 168.57 136.14 167.56 135.54 166.56 135.79 L 165.60 136.04 C 164.61 136.30 164.01 137.31 164.26 138.30 C 164.52 139.30 165.53 139.90 166.52 139.64 Z M 167.53 139.39 L 168.58 139.10 C 169.58 138.82 170.15 137.79 169.88 136.79 C 169.60 135.80 168.57 135.22 167.57 135.50 L 166.52 135.80 C 165.53 136.07 164.95 137.11 165.23 138.10 C 165.51 139.09 166.54 139.67 167.53 139.39 Z M 168.43 139.18 L 169.45 138.99 C 170.49 138.79 171.17 137.79 170.98 136.76 C 170.78 135.72 169.78 135.04 168.75 135.23 L 167.73 135.42 C 166.69 135.61 166.01 136.61 166.20 137.65 C 166.39 138.69 167.39 139.37 168.43 139.18 Z M 167.29 137.86 L 167.48 138.32 C 167.90 139.32 169.04 139.79 170.04 139.38 C 171.04 138.96 171.51 137.81 171.10 136.81 L 170.91 136.35 C 170.49 135.35 169.34 134.88 168.34 135.30 C 167.34 135.71 166.87 136.86 167.29 137.86 Z M 167.46 136.81 L 167.00 137.91 C 166.58 138.92 167.06 140.08 168.07 140.50 C 169.08 140.92 170.24 140.44 170.66 139.43 L 171.12 138.33 C 171.54 137.32 171.06 136.16 170.05 135.74 C 169.04 135.32 167.88 135.80 167.46 136.81 Z M 166.95 138.01 L 166.64 138.89 C 166.28 139.93 166.82 141.06 167.86 141.43 C 168.90 141.79 170.04 141.25 170.41 140.21 L 170.71 139.33 C 171.08 138.29 170.53 137.15 169.49 136.79 C 168.45 136.42 167.32 136.97 166.95 138.01 Z M 166.60 138.99 L 166.32 139.97 C 166.01 141.04 166.62 142.15 167.68 142.45 C 168.75 142.76 169.86 142.15 170.17 141.09 L 170.45 140.10 C 170.76 139.04 170.14 137.93 169.08 137.62 C 168.02 137.31 166.91 137.93 166.60 138.99 Z M 166.30 140.01 L 166.03 141.01 C 165.74 142.08 166.38 143.18 167.45 143.47 C 168.53 143.76 169.63 143.12 169.92 142.05 L 170.18 141.05 C 170.47 139.97 169.83 138.87 168.76 138.59 C 167.69 138.30 166.58 138.94 166.30 140.01 Z M 166.03 141.01 L 165.77 141.98 C 165.48 143.05 166.12 144.16 167.20 144.44 C 168.28 144.73 169.38 144.09 169.66 143.01 L 169.92 142.04 C 170.21 140.97 169.57 139.87 168.49 139.58 C 167.41 139.30 166.31 139.94 166.03 141.01 Z M 165.77 141.97 L 165.51 142.95 C 165.21 144.02 165.85 145.13 166.92 145.42 C 168.00 145.71 169.11 145.08 169.40 144.00 L 169.66 143.02 C 169.95 141.95 169.32 140.84 168.24 140.55 C 167.17 140.26 166.06 140.89 165.77 141.97 Z M 165.51 142.93 L 165.24 143.90 C 164.93 144.97 165.56 146.09 166.63 146.39 C 167.70 146.69 168.81 146.07 169.12 145.00 L 169.39 144.02 C 169.70 142.95 169.07 141.84 168.00 141.53 C 166.93 141.23 165.81 141.85 165.51 142.93 Z M 165.25 143.87 L 164.96 144.82 C 164.64 145.89 165.24 147.01 166.31 147.34 C 167.38 147.66 168.50 147.05 168.82 145.98 L 169.11 145.03 C 169.43 143.96 168.82 142.84 167.76 142.52 C 166.69 142.20 165.57 142.80 165.25 143.87 Z M 164.97 144.79 L 164.67 145.73 C 164.33 146.80 164.92 147.93 165.98 148.27 C 167.04 148.61 168.17 148.02 168.51 146.96 L 168.81 146.02 C 169.15 144.96 168.56 143.82 167.50 143.48 C 166.44 143.15 165.31 143.73 164.97 144.79 Z M 164.68 145.71 L 164.37 146.64 C 164.01 147.70 164.58 148.84 165.63 149.19 C 166.69 149.54 167.83 148.98 168.18 147.92 L 168.50 146.99 C 168.85 145.93 168.28 144.79 167.23 144.44 C 166.18 144.09 165.03 144.65 164.68 145.71 Z M 164.38 146.62 L 164.05 147.56 C 163.69 148.61 164.24 149.75 165.28 150.11 C 166.33 150.48 167.47 149.93 167.84 148.88 L 168.17 147.94 C 168.53 146.90 167.98 145.76 166.94 145.39 C 165.89 145.03 164.75 145.58 164.38 146.62 Z M 164.07 147.55 L 163.73 148.50 C 163.35 149.53 163.89 150.67 164.92 151.05 C 165.96 151.42 167.10 150.89 167.48 149.85 L 167.82 148.90 C 168.19 147.86 167.66 146.72 166.62 146.35 C 165.59 145.97 164.44 146.51 164.07 147.55 Z M 163.75 148.49 L 163.40 149.45 C 163.02 150.47 163.54 151.61 164.56 151.99 C 165.58 152.37 166.71 151.85 167.09 150.83 L 167.45 149.86 C 167.83 148.84 167.31 147.70 166.29 147.33 C 165.27 146.95 164.13 147.47 163.75 148.49 Z M 163.44 149.46 L 163.08 150.42 C 162.70 151.41 163.20 152.53 164.20 152.90 C 165.19 153.28 166.31 152.78 166.68 151.78 L 167.05 150.82 C 167.42 149.83 166.92 148.71 165.93 148.34 C 164.93 147.96 163.82 148.46 163.44 149.46 Z M 163.13 150.43 L 162.78 151.34 C 162.41 152.31 162.89 153.39 163.86 153.76 C 164.83 154.13 165.91 153.65 166.28 152.68 L 166.63 151.77 C 167.00 150.80 166.52 149.72 165.55 149.35 C 164.58 148.98 163.50 149.46 163.13 150.43 Z M 162.84 151.36 L 162.48 152.31 C 162.12 153.25 162.58 154.29 163.52 154.65 C 164.45 155.01 165.50 154.54 165.86 153.61 L 166.22 152.66 C 166.58 151.73 166.11 150.68 165.18 150.32 C 164.25 149.96 163.20 150.43 162.84 151.36 Z M 162.55 152.34 L 162.20 153.27 C 161.85 154.16 162.30 155.16 163.19 155.51 C 164.08 155.85 165.09 155.40 165.43 154.51 L 165.78 153.58 C 166.13 152.69 165.68 151.69 164.79 151.34 C 163.89 151.00 162.89 151.45 162.55 152.34 Z M 162.27 153.30 L 162.00 154.00 C 161.67 154.86 162.10 155.81 162.95 156.14 C 163.80 156.47 164.76 156.04 165.08 155.19 L 165.35 154.48 C 165.68 153.63 165.26 152.67 164.40 152.35 C 163.55 152.02 162.59 152.45 162.27 153.30 Z"
      fill="black"
      fill-rule="nonzero" /><path d="M 134.68 158.24 L 135.54 157.87 C 136.42 157.49 136.82 156.48 136.45 155.60 C 136.07 154.73 135.06 154.33 134.19 154.70 L 133.32 155.07 C 132.44 155.45 132.04 156.46 132.42 157.34 C 132.79 158.21 133.80 158.61 134.68 158.24 Z M 135.56 158.05 L 136.52 157.67 C 137.50 157.28 137.98 156.18 137.59 155.21 C 137.21 154.23 136.11 153.76 135.13 154.14 L 134.17 154.52 C 133.19 154.90 132.72 156.01 133.10 156.98 C 133.49 157.95 134.59 158.43 135.56 158.05 Z M 136.49 157.79 L 137.45 157.46 C 138.49 157.09 139.04 155.95 138.68 154.91 C 138.31 153.87 137.17 153.32 136.13 153.68 L 135.17 154.02 C 134.13 154.38 133.58 155.52 133.94 156.56 C 134.31 157.60 135.45 158.15 136.49 157.79 Z M 137.40 157.49 L 138.38 157.18 C 139.44 156.84 140.03 155.71 139.69 154.65 C 139.35 153.59 138.22 153.00 137.16 153.34 L 136.18 153.65 C 135.12 153.99 134.53 155.12 134.87 156.18 C 135.21 157.24 136.34 157.83 137.40 157.49 Z M 138.34 157.19 L 139.31 156.91 C 140.38 156.60 140.99 155.47 140.67 154.40 C 140.36 153.33 139.24 152.72 138.17 153.04 L 137.20 153.32 C 136.13 153.63 135.52 154.76 135.83 155.83 C 136.15 156.90 137.27 157.51 138.34 157.19 Z M 139.26 156.92 L 140.24 156.66 C 141.32 156.38 141.96 155.27 141.67 154.19 C 141.38 153.11 140.27 152.47 139.20 152.76 L 138.21 153.02 C 137.14 153.31 136.50 154.42 136.78 155.49 C 137.07 156.57 138.18 157.21 139.26 156.92 Z M 140.20 156.67 L 141.11 156.45 C 142.19 156.18 142.86 155.09 142.59 154.01 C 142.33 152.93 141.24 152.26 140.15 152.53 L 139.24 152.75 C 138.15 153.01 137.49 154.11 137.75 155.19 C 138.02 156.27 139.11 156.94 140.20 156.67 Z M 141.09 156.45 L 142.04 156.23 C 143.13 155.98 143.80 154.90 143.55 153.81 C 143.30 152.73 142.22 152.05 141.13 152.30 L 140.18 152.52 C 139.09 152.77 138.41 153.86 138.67 154.94 C 138.92 156.03 140.00 156.70 141.09 156.45 Z M 142.01 156.23 L 143.01 156.02 C 144.10 155.78 144.79 154.71 144.56 153.62 C 144.32 152.53 143.25 151.84 142.16 152.08 L 141.16 152.30 C 140.07 152.53 139.38 153.61 139.62 154.69 C 139.85 155.78 140.93 156.47 142.01 156.23 Z M 142.98 156.02 L 143.95 155.82 C 145.04 155.60 145.74 154.54 145.52 153.46 C 145.30 152.37 144.24 151.67 143.15 151.88 L 142.19 152.08 C 141.10 152.30 140.40 153.36 140.62 154.45 C 140.84 155.53 141.90 156.24 142.98 156.02 Z M 143.93 155.82 L 144.93 155.63 C 146.02 155.42 146.73 154.37 146.52 153.28 C 146.31 152.20 145.26 151.49 144.17 151.69 L 143.17 151.89 C 142.09 152.10 141.37 153.15 141.58 154.23 C 141.79 155.32 142.84 156.03 143.93 155.82 Z M 144.92 155.62 L 145.91 155.44 C 146.99 155.23 147.70 154.19 147.50 153.11 C 147.29 152.02 146.25 151.31 145.17 151.52 L 144.18 151.70 C 143.10 151.91 142.39 152.95 142.59 154.03 C 142.80 155.11 143.84 155.83 144.92 155.62 Z M 145.90 155.43 L 146.89 155.24 C 147.97 155.04 148.67 154.00 148.47 152.92 C 148.27 151.85 147.23 151.14 146.16 151.34 L 145.17 151.53 C 144.09 151.73 143.38 152.77 143.59 153.84 C 143.79 154.92 144.83 155.63 145.90 155.43 Z M 146.89 155.23 L 147.87 155.04 C 148.94 154.84 149.64 153.81 149.44 152.74 C 149.24 151.67 148.21 150.96 147.14 151.17 L 146.15 151.35 C 145.08 151.55 144.38 152.59 144.58 153.66 C 144.79 154.73 145.82 155.43 146.89 155.23 Z M 147.86 155.03 L 148.84 154.85 C 149.91 154.65 150.61 153.62 150.41 152.56 C 150.21 151.50 149.18 150.80 148.12 151.00 L 147.14 151.18 C 146.08 151.38 145.38 152.40 145.58 153.47 C 145.78 154.53 146.80 155.23 147.86 155.03 Z M 148.82 154.84 L 149.81 154.66 C 150.87 154.48 151.57 153.47 151.39 152.41 C 151.20 151.35 150.19 150.65 149.14 150.83 L 148.14 151.01 C 147.09 151.19 146.38 152.20 146.57 153.26 C 146.75 154.32 147.76 155.02 148.82 154.84 Z M 149.78 154.65 L 150.79 154.49 C 151.84 154.32 152.55 153.33 152.38 152.28 C 152.21 151.23 151.23 150.52 150.18 150.68 L 149.17 150.85 C 148.12 151.01 147.40 152.00 147.57 153.05 C 147.74 154.10 148.73 154.82 149.78 154.65 Z M 150.77 154.47 L 151.74 154.32 C 152.78 154.16 153.50 153.19 153.34 152.15 C 153.18 151.11 152.21 150.40 151.17 150.56 L 150.19 150.70 C 149.16 150.86 148.44 151.83 148.60 152.87 C 148.76 153.91 149.73 154.62 150.77 154.47 Z M 151.74 154.29 L 152.76 154.14 C 153.79 153.98 154.49 153.02 154.34 152.00 C 154.18 150.97 153.22 150.27 152.20 150.42 L 151.17 150.58 C 150.15 150.74 149.44 151.70 149.60 152.72 C 149.76 153.75 150.72 154.45 151.74 154.29 Z M 152.77 154.11 L 153.73 153.96 C 154.74 153.80 155.43 152.85 155.27 151.84 C 155.11 150.82 154.16 150.13 153.15 150.30 L 152.19 150.45 C 151.18 150.61 150.49 151.56 150.65 152.57 C 150.81 153.58 151.76 154.27 152.77 154.11 Z M 153.74 153.93 L 154.59 153.79 C 155.58 153.62 156.26 152.68 156.09 151.68 C 155.93 150.69 154.98 150.01 153.99 150.18 L 153.14 150.32 C 152.14 150.49 151.47 151.43 151.63 152.43 C 151.80 153.43 152.74 154.10 153.74 153.93 Z M 154.57 153.77 L 155.57 153.61 C 156.55 153.45 157.22 152.53 157.07 151.54 C 156.91 150.56 155.98 149.89 155.00 150.04 L 154.00 150.20 C 153.02 150.36 152.35 151.29 152.50 152.27 C 152.66 153.26 153.59 153.93 154.57 153.77 Z M 155.54 153.59 L 156.54 153.45 C 157.52 153.30 158.19 152.40 158.05 151.42 C 157.91 150.45 157.00 149.77 156.03 149.91 L 155.02 150.06 C 154.05 150.20 153.37 151.11 153.51 152.09 C 153.66 153.06 154.56 153.74 155.54 153.59 Z M 156.53 153.43 L 157.45 153.31 C 158.42 153.17 159.10 152.28 158.96 151.31 C 158.83 150.34 157.93 149.66 156.96 149.80 L 156.04 149.93 C 155.07 150.06 154.40 150.95 154.53 151.92 C 154.66 152.89 155.56 153.57 156.53 153.43 Z M 157.44 153.29 L 158.47 153.16 C 159.43 153.03 160.11 152.14 159.98 151.18 C 159.85 150.22 158.96 149.54 158.00 149.67 L 156.97 149.81 C 156.01 149.94 155.34 150.83 155.47 151.79 C 155.60 152.75 156.48 153.42 157.44 153.29 Z M 158.47 153.14 L 159.55 153.00 C 160.51 152.87 161.18 151.99 161.05 151.04 C 160.92 150.08 160.04 149.41 159.09 149.54 L 158.00 149.68 C 157.05 149.81 156.38 150.69 156.50 151.64 C 156.63 152.60 157.51 153.27 158.47 153.14 Z M 159.55 152.99 L 159.95 152.94 C 160.90 152.81 161.57 151.94 161.44 150.99 C 161.31 150.03 160.44 149.37 159.49 149.49 L 159.09 149.55 C 158.14 149.67 157.47 150.55 157.60 151.50 C 157.72 152.45 158.60 153.12 159.55 152.99 Z"
      fill="black"
      fill-rule="nonzero" /><path d="M 145.92 145.53 L 145.92 146.53 C 145.92 147.52 146.72 148.32 147.71 148.32 C 148.69 148.32 149.49 147.52 149.49 146.53 L 149.49 145.53 C 149.49 144.55 148.69 143.75 147.71 143.75 C 146.72 143.75 145.92 144.55 145.92 145.53 Z M 145.73 146.53 L 145.73 147.51 C 145.73 148.60 146.61 149.49 147.71 149.49 C 148.80 149.49 149.68 148.60 149.68 147.51 L 149.68 146.53 C 149.68 145.44 148.80 144.56 147.71 144.56 C 146.62 144.56 145.73 145.44 145.73 146.53 Z M 145.65 147.50 L 145.64 148.48 C 145.64 149.61 146.55 150.54 147.69 150.54 C 148.83 150.55 149.75 149.63 149.76 148.50 L 149.76 147.52 C 149.77 146.39 148.85 145.46 147.72 145.45 C 146.58 145.45 145.65 146.37 145.65 147.50 Z M 145.64 148.45 L 145.62 149.43 C 145.60 150.57 146.51 151.51 147.65 151.53 C 148.78 151.55 149.72 150.64 149.74 149.51 L 149.76 148.52 C 149.78 147.39 148.88 146.45 147.74 146.43 C 146.60 146.40 145.66 147.31 145.64 148.45 Z M 145.62 149.41 L 145.59 150.37 C 145.56 151.51 146.46 152.46 147.60 152.49 C 148.74 152.52 149.69 151.62 149.72 150.48 L 149.75 149.52 C 149.78 148.38 148.88 147.44 147.74 147.41 C 146.60 147.37 145.65 148.27 145.62 149.41 Z M 145.59 150.37 L 145.56 151.46 C 145.53 152.61 146.43 153.56 147.57 153.59 C 148.71 153.62 149.66 152.72 149.69 151.58 L 149.72 150.48 C 149.75 149.34 148.86 148.39 147.71 148.36 C 146.57 148.33 145.62 149.23 145.59 150.37 Z M 145.56 151.47 L 145.54 152.38 C 145.51 153.53 146.41 154.47 147.55 154.50 C 148.70 154.53 149.65 153.63 149.67 152.48 L 149.70 151.57 C 149.72 150.43 148.82 149.48 147.68 149.45 C 146.54 149.42 145.59 150.33 145.56 151.47 Z M 145.53 152.39 L 145.51 153.36 C 145.48 154.50 146.39 155.45 147.53 155.48 C 148.68 155.51 149.63 154.60 149.65 153.46 L 149.67 152.48 C 149.70 151.34 148.80 150.39 147.65 150.36 C 146.51 150.34 145.56 151.24 145.53 152.39 Z M 145.51 153.36 L 145.48 154.41 C 145.46 155.56 146.36 156.51 147.50 156.54 C 148.65 156.57 149.60 155.66 149.63 154.52 L 149.65 153.46 C 149.68 152.32 148.78 151.36 147.63 151.34 C 146.49 151.31 145.54 152.21 145.51 153.36 Z M 145.48 154.41 L 145.45 155.42 C 145.42 156.57 146.33 157.52 147.47 157.56 C 148.62 157.59 149.57 156.68 149.60 155.54 L 149.63 154.52 C 149.66 153.38 148.76 152.42 147.61 152.39 C 146.47 152.36 145.51 153.26 145.48 154.41 Z M 145.45 155.42 L 145.42 156.35 C 145.39 157.50 146.29 158.45 147.44 158.49 C 148.58 158.52 149.54 157.62 149.57 156.48 L 149.60 155.55 C 149.64 154.40 148.74 153.44 147.59 153.41 C 146.45 153.37 145.49 154.27 145.45 155.42 Z M 145.42 156.35 L 145.39 157.33 C 145.35 158.48 146.25 159.44 147.40 159.47 C 148.55 159.51 149.51 158.61 149.54 157.46 L 149.57 156.48 C 149.61 155.33 148.71 154.38 147.57 154.34 C 146.42 154.30 145.46 155.20 145.42 156.35 Z M 145.39 157.33 L 145.36 158.36 C 145.32 159.51 146.21 160.47 147.36 160.51 C 148.51 160.55 149.47 159.65 149.51 158.50 L 149.54 157.47 C 149.58 156.32 148.68 155.36 147.54 155.32 C 146.39 155.28 145.43 156.18 145.39 157.33 Z M 145.35 158.36 L 145.32 159.45 C 145.27 160.60 146.17 161.56 147.32 161.60 C 148.47 161.64 149.43 160.74 149.47 159.60 L 149.51 158.51 C 149.55 157.36 148.65 156.40 147.50 156.36 C 146.36 156.32 145.39 157.21 145.35 158.36 Z M 145.31 159.45 L 145.28 160.41 C 145.24 161.56 146.14 162.52 147.28 162.56 C 148.43 162.61 149.40 161.71 149.44 160.56 L 149.47 159.60 C 149.51 158.45 148.62 157.49 147.47 157.44 C 146.32 157.40 145.36 158.30 145.31 159.45 Z M 145.28 160.41 L 145.24 161.40 C 145.20 162.54 146.10 163.51 147.25 163.55 C 148.40 163.59 149.36 162.69 149.40 161.55 L 149.44 160.56 C 149.48 159.41 148.58 158.45 147.43 158.41 C 146.29 158.37 145.32 159.26 145.28 160.41 Z M 145.24 161.40 L 145.21 162.40 C 145.17 163.55 146.06 164.51 147.21 164.56 C 148.36 164.60 149.32 163.70 149.37 162.55 L 149.40 161.55 C 149.44 160.40 148.55 159.43 147.40 159.39 C 146.25 159.35 145.29 160.25 145.24 161.40 Z M 145.21 162.40 L 145.17 163.42 C 145.13 164.57 146.03 165.53 147.18 165.57 C 148.33 165.61 149.29 164.72 149.33 163.57 L 149.37 162.55 C 149.41 161.40 148.51 160.44 147.36 160.40 C 146.21 160.36 145.25 161.25 145.21 162.40 Z M 145.17 163.42 L 145.14 164.45 C 145.10 165.59 146.00 166.56 147.14 166.60 C 148.29 166.64 149.26 165.74 149.30 164.59 L 149.33 163.57 C 149.37 162.42 148.47 161.45 147.32 161.41 C 146.17 161.38 145.21 162.27 145.17 163.42 Z M 145.14 164.45 L 145.10 165.47 C 145.06 166.62 145.97 167.58 147.11 167.62 C 148.26 167.66 149.22 166.76 149.26 165.61 L 149.30 164.58 C 149.33 163.44 148.43 162.47 147.28 162.44 C 146.14 162.40 145.17 163.30 145.14 164.45 Z M 145.10 165.47 L 145.07 166.49 C 145.03 167.64 145.94 168.60 147.08 168.63 C 148.23 168.67 149.19 167.77 149.23 166.62 L 149.26 165.60 C 149.30 164.46 148.40 163.49 147.25 163.46 C 146.10 163.42 145.14 164.32 145.10 165.47 Z M 145.07 166.49 L 145.04 167.50 C 145.01 168.65 145.91 169.60 147.06 169.64 C 148.20 169.67 149.16 168.77 149.20 167.62 L 149.23 166.62 C 149.26 165.47 148.36 164.51 147.21 164.47 C 146.07 164.44 145.11 165.34 145.07 166.49 Z M 145.04 167.50 L 145.01 168.49 C 144.98 169.64 145.88 170.60 147.03 170.64 C 148.18 170.67 149.13 169.77 149.17 168.62 L 149.20 167.62 C 149.23 166.47 148.33 165.52 147.18 165.48 C 146.03 165.45 145.07 166.35 145.04 167.50 Z M 145.01 168.50 L 144.98 169.48 C 144.95 170.63 145.85 171.59 147.00 171.62 C 148.15 171.65 149.11 170.75 149.14 169.60 L 149.17 168.62 C 149.20 167.47 148.30 166.51 147.15 166.48 C 146.00 166.44 145.05 167.35 145.01 168.50 Z M 144.98 169.48 L 144.95 170.47 C 144.92 171.62 145.82 172.57 146.97 172.61 C 148.12 172.64 149.08 171.74 149.11 170.59 L 149.14 169.60 C 149.17 168.46 148.27 167.50 147.12 167.46 C 145.97 167.43 145.02 168.33 144.98 169.48 Z M 144.96 170.47 L 144.93 171.49 C 144.89 172.64 145.79 173.59 146.94 173.63 C 148.09 173.66 149.04 172.76 149.08 171.61 L 149.11 170.59 C 149.14 169.44 148.24 168.49 147.09 168.45 C 145.95 168.42 144.99 169.32 144.96 170.47 Z M 144.93 171.49 L 144.90 172.50 C 144.86 173.65 145.76 174.60 146.91 174.64 C 148.05 174.67 149.01 173.77 149.04 172.62 L 149.07 171.61 C 149.11 170.47 148.21 169.51 147.06 169.48 C 145.92 169.45 144.96 170.35 144.93 171.49 Z M 144.90 172.50 L 144.87 173.50 C 144.84 174.64 145.74 175.60 146.88 175.63 C 148.02 175.66 148.98 174.77 149.01 173.62 L 149.04 172.62 C 149.08 171.48 148.18 170.53 147.03 170.49 C 145.89 170.46 144.94 171.36 144.90 172.50 Z M 144.87 173.50 L 144.84 174.48 C 144.81 175.62 145.71 176.58 146.85 176.61 C 147.99 176.65 148.95 175.75 148.98 174.61 L 149.01 173.62 C 149.04 172.48 148.15 171.53 147.00 171.49 C 145.86 171.46 144.91 172.35 144.87 173.50 Z M 144.85 174.48 L 144.82 175.47 C 144.78 176.61 145.68 177.56 146.82 177.59 C 147.96 177.63 148.91 176.73 148.95 175.59 L 148.98 174.61 C 149.01 173.46 148.11 172.51 146.97 172.48 C 145.83 172.44 144.88 173.34 144.85 174.48 Z M 144.82 175.47 L 144.79 176.50 C 144.76 177.64 145.65 178.59 146.79 178.62 C 147.93 178.65 148.88 177.76 148.91 176.62 L 148.94 175.59 C 148.98 174.45 148.08 173.50 146.94 173.47 C 145.81 173.44 144.86 174.33 144.82 175.47 Z M 144.80 176.50 L 144.77 177.51 C 144.74 178.65 145.63 179.59 146.76 179.63 C 147.89 179.66 148.84 178.77 148.87 177.63 L 148.90 176.62 C 148.94 175.49 148.04 174.54 146.91 174.51 C 145.78 174.48 144.83 175.37 144.80 176.50 Z M 144.78 177.52 L 144.75 178.51 C 144.72 179.64 145.61 180.58 146.74 180.61 C 147.86 180.64 148.81 179.75 148.84 178.63 L 148.87 177.63 C 148.90 176.50 148.01 175.56 146.88 175.53 C 145.75 175.50 144.81 176.39 144.78 177.52 Z M 144.76 178.51 L 144.73 179.49 C 144.70 180.61 145.59 181.55 146.71 181.58 C 147.84 181.61 148.77 180.72 148.80 179.60 L 148.83 178.62 C 148.86 177.50 147.97 176.56 146.85 176.53 C 145.72 176.50 144.79 177.39 144.76 178.51 Z M 144.74 179.49 L 144.71 180.50 C 144.69 181.62 145.57 182.55 146.69 182.58 C 147.81 182.61 148.74 181.72 148.77 180.60 L 148.80 179.59 C 148.82 178.47 147.94 177.54 146.82 177.51 C 145.70 177.48 144.77 178.37 144.74 179.49 Z M 144.73 180.50 L 144.70 181.54 C 144.68 182.65 145.56 183.58 146.67 183.60 C 147.79 183.63 148.71 182.75 148.73 181.63 L 148.76 180.60 C 148.78 179.48 147.90 178.56 146.79 178.54 C 145.68 178.51 144.75 179.39 144.73 180.50 Z M 144.72 181.54 L 144.69 182.55 C 144.67 183.65 145.55 184.57 146.65 184.59 C 147.76 184.61 148.68 183.74 148.70 182.63 L 148.72 181.63 C 148.74 180.52 147.87 179.61 146.76 179.58 C 145.66 179.56 144.74 180.44 144.72 181.54 Z M 144.71 182.55 L 144.69 183.51 C 144.67 184.61 145.54 185.52 146.64 185.54 C 147.74 185.57 148.64 184.69 148.67 183.60 L 148.69 182.63 C 148.71 181.53 147.84 180.62 146.74 180.60 C 145.64 180.58 144.73 181.45 144.71 182.55 Z M 144.70 183.52 L 144.68 184.47 C 144.66 185.56 145.53 186.46 146.62 186.49 C 147.71 186.51 148.61 185.64 148.63 184.55 L 148.65 183.59 C 148.67 182.50 147.81 181.60 146.72 181.58 C 145.63 181.56 144.72 182.43 144.70 183.52 Z M 144.70 184.47 L 144.68 185.44 C 144.66 186.52 145.52 187.42 146.60 187.44 C 147.68 187.46 148.57 186.60 148.59 185.52 L 148.61 184.55 C 148.63 183.47 147.77 182.58 146.70 182.56 C 145.62 182.54 144.72 183.39 144.70 184.47 Z M 144.71 185.45 L 144.69 186.43 C 144.67 187.50 145.52 188.37 146.59 188.39 C 147.66 188.41 148.54 187.56 148.56 186.49 L 148.57 185.51 C 148.59 184.45 147.74 183.57 146.67 183.55 C 145.60 183.53 144.73 184.38 144.71 185.45 Z M 144.71 186.44 L 144.70 187.46 C 144.69 188.51 145.53 189.38 146.59 189.39 C 147.64 189.41 148.51 188.56 148.52 187.51 L 148.53 186.48 C 148.55 185.43 147.70 184.56 146.65 184.55 C 145.59 184.54 144.73 185.38 144.71 186.44 Z M 144.72 187.47 L 144.71 188.53 C 144.70 189.57 145.54 190.43 146.59 190.44 C 147.63 190.44 148.49 189.60 148.49 188.56 L 148.50 187.50 C 148.51 186.45 147.67 185.60 146.62 185.59 C 145.58 185.58 144.73 186.42 144.72 187.47 Z M 144.72 188.55 L 144.72 189.63 C 144.73 190.67 145.58 191.51 146.62 191.50 C 147.66 191.50 148.50 190.65 148.49 189.61 L 148.49 188.53 C 148.48 187.49 147.63 186.65 146.59 186.66 C 145.55 186.67 144.71 187.51 144.72 188.55 Z M 144.73 189.69 L 144.77 190.73 C 144.81 191.77 145.68 192.58 146.72 192.54 C 147.75 192.51 148.56 191.63 148.53 190.60 L 148.49 189.55 C 148.45 188.51 147.58 187.70 146.54 187.74 C 145.50 187.78 144.69 188.65 144.73 189.69 Z M 144.78 190.84 L 144.87 191.79 C 144.97 192.82 145.88 193.57 146.91 193.48 C 147.94 193.38 148.70 192.46 148.60 191.43 L 148.51 190.49 C 148.42 189.46 147.50 188.70 146.47 188.80 C 145.44 188.89 144.68 189.81 144.78 190.84 Z M 144.92 192.03 L 145.16 193.03 C 145.39 194.03 146.39 194.65 147.39 194.42 C 148.39 194.19 149.01 193.19 148.78 192.19 L 148.55 191.19 C 148.31 190.19 147.32 189.56 146.31 189.80 C 145.31 190.03 144.69 191.03 144.92 192.03 Z M 145.39 193.51 L 145.88 194.37 C 146.38 195.24 147.49 195.54 148.36 195.04 C 149.23 194.54 149.53 193.44 149.03 192.57 L 148.54 191.71 C 148.05 190.84 146.94 190.53 146.07 191.03 C 145.20 191.53 144.89 192.64 145.39 193.51 Z M 146.20 194.69 L 146.67 195.18 C 147.35 195.87 148.46 195.88 149.16 195.21 C 149.85 194.53 149.87 193.42 149.19 192.72 L 148.72 192.24 C 148.04 191.54 146.93 191.53 146.23 192.21 C 145.54 192.89 145.52 194.00 146.20 194.69 Z"
      fill="black"
      fill-rule="nonzero" /><path d="M 146.22 158.20 L 145.42 158.79 C 144.63 159.36 144.47 160.47 145.04 161.25 C 145.62 162.04 146.72 162.20 147.51 161.63 L 148.31 161.04 C 149.09 160.46 149.26 159.36 148.68 158.57 C 148.10 157.79 147.00 157.62 146.22 158.20 Z M 145.24 158.83 L 144.49 159.49 C 143.73 160.16 143.66 161.33 144.33 162.09 C 145.01 162.85 146.17 162.92 146.93 162.25 L 147.68 161.59 C 148.45 160.91 148.52 159.75 147.84 158.99 C 147.17 158.22 146.00 158.15 145.24 158.83 Z M 144.25 159.66 L 143.60 160.44 C 142.94 161.25 143.05 162.45 143.86 163.12 C 144.67 163.78 145.87 163.67 146.53 162.86 L 147.18 162.07 C 147.84 161.26 147.73 160.07 146.92 159.40 C 146.11 158.74 144.91 158.85 144.25 159.66 Z M 143.45 160.62 L 142.91 161.48 C 142.34 162.37 142.61 163.56 143.50 164.12 C 144.40 164.69 145.58 164.43 146.15 163.53 L 146.69 162.68 C 147.26 161.78 146.99 160.60 146.10 160.03 C 145.20 159.46 144.02 159.73 143.45 160.62 Z M 142.85 161.56 L 142.36 162.43 C 141.84 163.36 142.17 164.53 143.10 165.05 C 144.02 165.57 145.20 165.24 145.72 164.32 L 146.20 163.45 C 146.73 162.52 146.40 161.35 145.47 160.83 C 144.54 160.31 143.37 160.64 142.85 161.56 Z M 142.35 162.45 L 141.87 163.31 C 141.36 164.25 141.70 165.42 142.64 165.93 C 143.57 166.44 144.74 166.10 145.25 165.17 L 145.73 164.30 C 146.24 163.37 145.90 162.20 144.97 161.68 C 144.03 161.17 142.86 161.51 142.35 162.45 Z M 141.87 163.31 L 141.41 164.16 C 140.90 165.09 141.24 166.27 142.17 166.78 C 143.11 167.29 144.28 166.95 144.79 166.01 L 145.26 165.17 C 145.77 164.23 145.42 163.06 144.49 162.55 C 143.56 162.04 142.39 162.38 141.87 163.31 Z M 141.41 164.15 L 140.94 165.01 C 140.42 165.94 140.76 167.11 141.69 167.63 C 142.63 168.14 143.80 167.81 144.32 166.87 L 144.79 166.02 C 145.30 165.09 144.97 163.92 144.03 163.40 C 143.10 162.88 141.93 163.22 141.41 164.15 Z M 140.94 165.00 L 140.43 165.92 C 139.91 166.85 140.25 168.03 141.18 168.54 C 142.11 169.06 143.29 168.73 143.80 167.80 L 144.31 166.88 C 144.83 165.95 144.50 164.77 143.57 164.25 C 142.64 163.73 141.46 164.07 140.94 165.00 Z M 140.43 165.91 L 139.96 166.75 C 139.44 167.68 139.77 168.86 140.70 169.38 C 141.63 169.90 142.81 169.57 143.33 168.64 L 143.80 167.80 C 144.32 166.87 143.99 165.69 143.06 165.17 C 142.13 164.65 140.95 164.98 140.43 165.91 Z M 139.97 166.73 L 139.47 167.61 C 138.94 168.54 139.26 169.72 140.19 170.25 C 141.11 170.77 142.29 170.45 142.82 169.53 L 143.32 168.65 C 143.85 167.73 143.53 166.55 142.61 166.02 C 141.68 165.49 140.50 165.81 139.97 166.73 Z M 139.49 167.59 L 138.97 168.46 C 138.43 169.38 138.73 170.56 139.65 171.10 C 140.56 171.65 141.75 171.34 142.29 170.43 L 142.81 169.55 C 143.35 168.64 143.05 167.45 142.13 166.91 C 141.21 166.37 140.03 166.67 139.49 167.59 Z M 138.99 168.43 L 138.48 169.26 C 137.92 170.17 138.20 171.36 139.11 171.91 C 140.02 172.47 141.20 172.19 141.76 171.28 L 142.27 170.45 C 142.83 169.55 142.55 168.36 141.64 167.80 C 140.73 167.24 139.54 167.53 138.99 168.43 Z M 138.49 169.24 L 137.95 170.10 C 137.38 171.00 137.65 172.19 138.55 172.76 C 139.45 173.33 140.64 173.06 141.21 172.16 L 141.75 171.30 C 142.32 170.40 142.05 169.21 141.15 168.64 C 140.25 168.08 139.06 168.34 138.49 169.24 Z M 137.96 170.08 L 137.40 170.94 C 136.82 171.83 137.08 173.03 137.97 173.61 C 138.86 174.18 140.06 173.93 140.63 173.04 L 141.19 172.18 C 141.77 171.28 141.52 170.09 140.63 169.51 C 139.73 168.93 138.54 169.19 137.96 170.08 Z M 137.41 170.93 L 136.86 171.76 C 136.28 172.64 136.52 173.84 137.41 174.43 C 138.29 175.01 139.49 174.77 140.07 173.88 L 140.62 173.05 C 141.21 172.17 140.97 170.97 140.08 170.39 C 139.20 169.80 138.00 170.04 137.41 170.93 Z M 136.88 171.74 L 136.31 172.57 C 135.71 173.45 135.94 174.65 136.82 175.25 C 137.70 175.84 138.90 175.61 139.49 174.74 L 140.06 173.90 C 140.66 173.02 140.43 171.83 139.55 171.23 C 138.67 170.63 137.47 170.86 136.88 171.74 Z M 136.33 172.55 L 135.75 173.37 C 135.14 174.24 135.35 175.44 136.22 176.05 C 137.09 176.66 138.29 176.45 138.90 175.58 L 139.48 174.76 C 140.09 173.89 139.87 172.69 139.01 172.08 C 138.14 171.47 136.94 171.68 136.33 172.55 Z M 135.77 173.34 L 135.18 174.16 C 134.55 175.02 134.74 176.22 135.60 176.85 C 136.45 177.47 137.66 177.28 138.28 176.43 L 138.88 175.61 C 139.50 174.75 139.32 173.55 138.46 172.92 C 137.60 172.30 136.40 172.49 135.77 173.34 Z M 135.19 174.14 L 134.59 174.94 C 133.96 175.79 134.13 176.99 134.98 177.63 C 135.83 178.27 137.03 178.10 137.67 177.25 L 138.26 176.45 C 138.90 175.60 138.73 174.40 137.88 173.76 C 137.03 173.12 135.83 173.29 135.19 174.14 Z M 134.60 174.93 L 134.00 175.72 C 133.36 176.56 133.52 177.76 134.37 178.41 C 135.21 179.05 136.41 178.89 137.06 178.04 L 137.66 177.26 C 138.30 176.41 138.14 175.21 137.29 174.57 C 136.45 173.92 135.24 174.09 134.60 174.93 Z M 134.01 175.72 L 133.40 176.51 C 132.76 177.35 132.92 178.55 133.76 179.20 C 134.60 179.84 135.81 179.68 136.45 178.84 L 137.06 178.05 C 137.70 177.20 137.54 176.00 136.70 175.36 C 135.85 174.71 134.65 174.87 134.01 175.72 Z M 133.40 176.51 L 132.79 177.30 C 132.15 178.14 132.31 179.34 133.15 179.99 C 133.99 180.63 135.19 180.48 135.84 179.63 L 136.45 178.84 C 137.09 178.00 136.93 176.80 136.09 176.15 C 135.25 175.51 134.05 175.66 133.40 176.51 Z M 132.80 177.29 L 132.19 178.08 C 131.54 178.92 131.69 180.12 132.53 180.77 C 133.36 181.42 134.57 181.27 135.22 180.43 L 135.83 179.64 C 136.48 178.81 136.33 177.60 135.49 176.95 C 134.66 176.30 133.45 176.45 132.80 177.29 Z M 132.20 178.07 L 131.58 178.85 C 130.92 179.68 131.06 180.89 131.89 181.54 C 132.72 182.20 133.92 182.06 134.58 181.23 L 135.20 180.45 C 135.86 179.62 135.72 178.41 134.89 177.75 C 134.06 177.10 132.86 177.24 132.20 178.07 Z M 131.59 178.84 L 130.96 179.62 C 130.30 180.44 130.43 181.65 131.25 182.31 C 132.07 182.97 133.27 182.85 133.94 182.02 L 134.57 181.24 C 135.23 180.42 135.10 179.22 134.28 178.56 C 133.46 177.89 132.26 178.02 131.59 178.84 Z M 130.97 179.62 L 130.34 180.39 C 129.68 181.21 129.80 182.41 130.62 183.07 C 131.43 183.74 132.63 183.61 133.29 182.80 L 133.92 182.03 C 134.59 181.21 134.47 180.01 133.65 179.35 C 132.84 178.68 131.64 178.80 130.97 179.62 Z M 130.35 180.40 L 129.71 181.18 C 129.05 181.99 129.17 183.18 129.98 183.85 C 130.79 184.51 131.99 184.39 132.65 183.58 L 133.29 182.80 C 133.95 181.98 133.83 180.79 133.02 180.13 C 132.21 179.46 131.01 179.59 130.35 180.40 Z M 129.72 181.19 L 129.08 181.97 C 128.42 182.78 128.54 183.97 129.35 184.63 C 130.16 185.28 131.35 185.16 132.00 184.35 L 132.64 183.57 C 133.30 182.76 133.18 181.57 132.37 180.91 C 131.56 180.26 130.38 180.38 129.72 181.19 Z M 129.09 181.99 L 128.46 182.76 C 127.81 183.56 127.94 184.74 128.74 185.39 C 129.55 186.04 130.73 185.91 131.38 185.11 L 132.00 184.34 C 132.65 183.53 132.52 182.36 131.72 181.71 C 130.91 181.06 129.74 181.18 129.09 181.99 Z M 128.47 182.77 L 127.85 183.55 C 127.21 184.35 127.34 185.52 128.14 186.16 C 128.94 186.80 130.11 186.67 130.75 185.87 L 131.37 185.09 C 132.01 184.29 131.88 183.12 131.08 182.48 C 130.28 181.84 129.11 181.97 128.47 182.77 Z M 127.86 183.57 L 127.24 184.35 C 126.61 185.15 126.74 186.30 127.53 186.93 C 128.33 187.56 129.48 187.43 130.11 186.64 L 130.74 185.85 C 131.37 185.06 131.24 183.90 130.44 183.27 C 129.65 182.64 128.49 182.77 127.86 183.57 Z M 127.25 184.37 L 126.64 185.14 C 126.02 185.93 126.15 187.07 126.93 187.69 C 127.72 188.31 128.86 188.18 129.48 187.40 L 130.10 186.62 C 130.72 185.84 130.59 184.70 129.80 184.07 C 129.02 183.45 127.88 183.58 127.25 184.37 Z M 126.67 185.16 L 126.02 185.96 C 125.40 186.73 125.53 187.86 126.30 188.47 C 127.07 189.09 128.19 188.96 128.81 188.19 L 129.46 187.38 C 130.07 186.61 129.95 185.49 129.18 184.88 C 128.40 184.26 127.28 184.38 126.67 185.16 Z M 126.06 185.98 L 125.41 186.77 C 124.80 187.52 124.92 188.63 125.67 189.23 C 126.42 189.84 127.52 189.72 128.13 188.97 L 128.77 188.18 C 129.38 187.43 129.27 186.33 128.51 185.72 C 127.76 185.11 126.66 185.23 126.06 185.98 Z M 125.45 186.79 L 124.85 187.52 C 124.25 188.25 124.35 189.32 125.08 189.92 C 125.81 190.52 126.89 190.42 127.49 189.69 L 128.09 188.96 C 128.69 188.23 128.58 187.16 127.86 186.56 C 127.13 185.96 126.05 186.06 125.45 186.79 Z M 124.90 187.52 L 124.21 188.32 C 123.61 189.02 123.70 190.07 124.39 190.67 C 125.09 191.27 126.15 191.19 126.75 190.49 L 127.43 189.69 C 128.03 188.99 127.95 187.94 127.25 187.34 C 126.55 186.74 125.50 186.82 124.90 187.52 Z M 124.30 188.29 L 123.65 188.97 C 123.04 189.62 123.07 190.65 123.72 191.27 C 124.37 191.89 125.41 191.86 126.02 191.21 L 126.67 190.53 C 127.28 189.87 127.25 188.84 126.60 188.22 C 125.95 187.60 124.91 187.63 124.30 188.29 Z M 123.74 188.92 L 123.02 189.61 C 122.37 190.21 122.34 191.22 122.95 191.87 C 123.55 192.51 124.56 192.54 125.21 191.94 L 125.93 191.25 C 126.58 190.65 126.61 189.64 126.00 188.99 C 125.40 188.35 124.39 188.32 123.74 188.92 Z M 123.06 189.59 L 122.55 190.05 C 121.90 190.63 121.84 191.62 122.42 192.27 C 123.00 192.92 124.00 192.98 124.65 192.40 L 125.16 191.95 C 125.81 191.37 125.87 190.37 125.29 189.72 C 124.71 189.07 123.71 189.02 123.06 189.59 Z"
      fill="black"
      fill-rule="nonzero" /><path d="M 146.09 165.98 L 147.03 166.22 C 147.95 166.46 148.88 165.92 149.12 165.00 C 149.36 164.09 148.82 163.15 147.90 162.91 L 146.96 162.66 C 146.04 162.42 145.11 162.97 144.87 163.88 C 144.63 164.80 145.17 165.74 146.09 165.98 Z M 146.75 166.38 L 147.70 166.75 C 148.70 167.15 149.83 166.66 150.23 165.66 C 150.62 164.65 150.13 163.52 149.13 163.13 L 148.18 162.75 C 147.18 162.36 146.05 162.85 145.66 163.85 C 145.26 164.85 145.75 165.98 146.75 166.38 Z M 147.35 166.73 L 148.21 167.25 C 149.20 167.83 150.48 167.51 151.07 166.52 C 151.66 165.53 151.33 164.25 150.35 163.66 L 149.48 163.15 C 148.49 162.56 147.21 162.88 146.63 163.87 C 146.04 164.86 146.36 166.14 147.35 166.73 Z M 148.03 167.18 L 148.84 167.76 C 149.79 168.46 151.12 168.25 151.81 167.29 C 152.50 166.34 152.29 165.01 151.34 164.32 L 150.53 163.73 C 149.58 163.04 148.25 163.25 147.56 164.20 C 146.87 165.15 147.08 166.48 148.03 167.18 Z M 148.75 167.73 L 149.54 168.36 C 150.47 169.10 151.83 168.95 152.57 168.01 C 153.31 167.08 153.16 165.72 152.22 164.98 L 151.43 164.35 C 150.50 163.61 149.14 163.77 148.40 164.70 C 147.66 165.63 147.81 166.99 148.75 167.73 Z M 149.49 168.34 L 150.25 168.97 C 151.18 169.74 152.55 169.61 153.31 168.68 C 154.08 167.76 153.95 166.39 153.03 165.62 L 152.27 164.99 C 151.34 164.23 149.97 164.36 149.20 165.28 C 148.44 166.21 148.57 167.58 149.49 168.34 Z M 150.24 168.98 L 150.97 169.58 C 151.90 170.35 153.28 170.22 154.05 169.30 C 154.82 168.37 154.69 166.99 153.76 166.22 L 153.03 165.62 C 152.10 164.85 150.73 164.97 149.96 165.90 C 149.19 166.83 149.32 168.21 150.24 168.98 Z M 150.97 169.59 L 151.77 170.25 C 152.70 171.02 154.09 170.89 154.86 169.95 C 155.63 169.02 155.49 167.64 154.56 166.87 L 153.76 166.21 C 152.83 165.44 151.44 165.57 150.67 166.51 C 149.90 167.44 150.04 168.82 150.97 169.59 Z M 151.77 170.26 L 152.53 170.88 C 153.47 171.65 154.85 171.51 155.62 170.57 C 156.39 169.63 156.26 168.25 155.32 167.48 L 154.56 166.86 C 153.62 166.09 152.23 166.23 151.46 167.17 C 150.70 168.10 150.83 169.49 151.77 170.26 Z M 152.54 170.89 L 153.32 171.52 C 154.26 172.29 155.65 172.14 156.41 171.19 C 157.18 170.25 157.03 168.86 156.09 168.10 L 155.31 167.47 C 154.36 166.70 152.98 166.85 152.21 167.80 C 151.45 168.74 151.59 170.13 152.54 170.89 Z M 153.33 171.54 L 154.14 172.18 C 155.10 172.94 156.49 172.78 157.24 171.82 C 158.00 170.86 157.84 169.48 156.88 168.72 L 156.07 168.08 C 155.11 167.32 153.73 167.49 152.97 168.44 C 152.22 169.40 152.38 170.78 153.33 171.54 Z M 154.17 172.20 L 154.94 172.79 C 155.90 173.54 157.29 173.36 158.03 172.39 C 158.78 171.43 158.60 170.04 157.63 169.30 L 156.86 168.70 C 155.89 167.96 154.51 168.14 153.76 169.10 C 153.02 170.07 153.20 171.46 154.17 172.20 Z M 154.96 172.81 L 155.76 173.42 C 156.74 174.15 158.12 173.95 158.86 172.97 C 159.59 172.00 159.39 170.61 158.41 169.88 L 157.61 169.28 C 156.63 168.55 155.25 168.74 154.52 169.72 C 153.78 170.70 153.98 172.08 154.96 172.81 Z M 155.79 173.43 L 156.61 174.04 C 157.60 174.76 158.98 174.54 159.70 173.56 C 160.42 172.57 160.20 171.19 159.22 170.47 L 158.39 169.86 C 157.40 169.14 156.02 169.36 155.30 170.35 C 154.58 171.33 154.80 172.71 155.79 173.43 Z M 156.64 174.05 L 157.45 174.63 C 158.45 175.34 159.83 175.11 160.53 174.11 C 161.24 173.12 161.01 171.74 160.01 171.03 L 159.20 170.45 C 158.20 169.74 156.82 169.98 156.12 170.97 C 155.41 171.97 155.64 173.35 156.64 174.05 Z M 157.48 174.65 L 158.30 175.22 C 159.31 175.91 160.68 175.66 161.38 174.66 C 162.07 173.65 161.82 172.28 160.81 171.59 L 159.99 171.01 C 158.98 170.32 157.61 170.57 156.91 171.58 C 156.22 172.58 156.47 173.96 157.48 174.65 Z M 158.33 175.24 L 159.16 175.79 C 160.18 176.47 161.55 176.20 162.23 175.18 C 162.90 174.17 162.63 172.80 161.61 172.12 L 160.78 171.57 C 159.77 170.89 158.40 171.16 157.72 172.18 C 157.05 173.19 157.32 174.56 158.33 175.24 Z M 159.20 175.81 L 160.06 176.36 C 161.08 177.02 162.45 176.72 163.10 175.70 C 163.76 174.67 163.46 173.31 162.44 172.65 L 161.58 172.10 C 160.55 171.44 159.19 171.74 158.53 172.77 C 157.88 173.79 158.17 175.16 159.20 175.81 Z M 160.09 176.38 L 160.94 176.90 C 161.98 177.54 163.33 177.22 163.97 176.18 C 164.61 175.15 164.28 173.79 163.25 173.16 L 162.40 172.63 C 161.37 172.00 160.01 172.32 159.37 173.35 C 158.74 174.39 159.06 175.74 160.09 176.38 Z M 160.97 176.92 L 161.82 177.42 C 162.86 178.04 164.21 177.70 164.83 176.65 C 165.45 175.61 165.11 174.26 164.06 173.64 L 163.22 173.14 C 162.18 172.52 160.83 172.87 160.21 173.91 C 159.59 174.95 159.93 176.30 160.97 176.92 Z M 161.85 177.43 L 162.74 177.94 C 163.78 178.54 165.12 178.18 165.72 177.13 C 166.33 176.08 165.96 174.74 164.92 174.14 L 164.03 173.63 C 162.98 173.03 161.65 173.39 161.04 174.44 C 160.44 175.49 160.80 176.83 161.85 177.43 Z M 162.78 177.95 L 163.66 178.43 C 164.71 179.01 166.04 178.62 166.62 177.57 C 167.20 176.51 166.81 175.18 165.75 174.61 L 164.87 174.13 C 163.82 173.55 162.49 173.93 161.91 174.99 C 161.33 176.05 161.72 177.37 162.78 177.95 Z M 163.71 178.45 L 164.59 178.90 C 165.66 179.45 166.97 179.03 167.52 177.96 C 168.06 176.89 167.64 175.58 166.57 175.03 L 165.69 174.58 C 164.62 174.04 163.31 174.46 162.77 175.53 C 162.22 176.60 162.64 177.91 163.71 178.45 Z M 164.67 178.93 L 165.58 179.36 C 166.67 179.86 167.95 179.40 168.46 178.32 C 168.97 177.24 168.50 175.95 167.42 175.44 L 166.50 175.01 C 165.42 174.51 164.13 174.97 163.63 176.05 C 163.12 177.13 163.58 178.42 164.67 178.93 Z M 165.66 179.38 L 166.57 179.76 C 167.66 180.23 168.92 179.72 169.38 178.63 C 169.85 177.54 169.34 176.28 168.25 175.81 L 167.34 175.43 C 166.25 174.96 164.99 175.47 164.53 176.56 C 164.06 177.65 164.57 178.91 165.66 179.38 Z M 166.64 179.77 L 167.58 180.14 C 168.68 180.56 169.91 180.01 170.34 178.91 C 170.76 177.82 170.21 176.58 169.11 176.16 L 168.17 175.80 C 167.08 175.38 165.85 175.92 165.42 177.02 C 165.00 178.12 165.55 179.35 166.64 179.77 Z M 167.67 180.14 L 168.62 180.47 C 169.72 180.85 170.92 180.26 171.30 179.16 C 171.67 178.06 171.09 176.86 169.98 176.48 L 169.03 176.15 C 167.93 175.78 166.73 176.36 166.35 177.47 C 165.98 178.57 166.57 179.77 167.67 180.14 Z M 168.71 180.47 L 169.66 180.75 C 170.76 181.07 171.92 180.44 172.24 179.34 C 172.57 178.23 171.93 177.07 170.83 176.75 L 169.89 176.47 C 168.78 176.15 167.62 176.78 167.30 177.89 C 166.98 178.99 167.61 180.15 168.71 180.47 Z M 169.76 180.75 L 170.74 180.98 C 171.84 181.24 172.95 180.57 173.21 179.46 C 173.48 178.36 172.80 177.25 171.70 176.99 L 170.72 176.76 C 169.62 176.49 168.51 177.17 168.25 178.27 C 167.98 179.37 168.66 180.48 169.76 180.75 Z M 170.82 180.96 L 171.80 181.15 C 172.89 181.37 173.95 180.66 174.16 179.57 C 174.38 178.48 173.68 177.42 172.59 177.21 L 171.61 177.01 C 170.52 176.79 169.46 177.50 169.25 178.59 C 169.03 179.68 169.73 180.74 170.82 180.96 Z M 171.85 181.12 L 172.81 181.29 C 173.89 181.47 174.91 180.76 175.09 179.69 C 175.28 178.62 174.56 177.60 173.49 177.41 L 172.53 177.24 C 171.46 177.05 170.44 177.77 170.25 178.84 C 170.06 179.91 170.78 180.93 171.85 181.12 Z M 172.90 181.25 L 173.90 181.38 C 174.95 181.52 175.91 180.78 176.05 179.74 C 176.19 178.69 175.46 177.72 174.41 177.58 L 173.41 177.45 C 172.36 177.31 171.39 178.04 171.25 179.09 C 171.11 180.14 171.85 181.11 172.90 181.25 Z M 174.02 181.35 L 175.02 181.42 C 176.05 181.49 176.95 180.72 177.02 179.69 C 177.10 178.66 176.32 177.76 175.29 177.69 L 174.29 177.62 C 173.26 177.54 172.36 178.32 172.29 179.35 C 172.21 180.38 172.99 181.27 174.02 181.35 Z M 175.17 181.38 L 176.18 181.37 C 177.19 181.36 178.00 180.54 177.99 179.53 C 177.98 178.52 177.16 177.71 176.15 177.72 L 175.14 177.73 C 174.13 177.73 173.32 178.56 173.33 179.57 C 173.34 180.58 174.16 181.39 175.17 181.38 Z M 176.37 181.32 L 177.36 181.20 C 178.34 181.09 179.05 180.20 178.93 179.22 C 178.82 178.24 177.93 177.54 176.95 177.65 L 175.96 177.77 C 174.98 177.88 174.27 178.77 174.39 179.75 C 174.50 180.73 175.39 181.43 176.37 181.32 Z M 177.57 181.11 L 178.54 180.87 C 179.47 180.64 180.04 179.71 179.81 178.78 C 179.58 177.85 178.65 177.28 177.72 177.51 L 176.74 177.75 C 175.82 177.98 175.25 178.91 175.48 179.84 C 175.70 180.77 176.64 181.34 177.57 181.11 Z M 178.66 180.76 L 179.60 180.45 C 180.47 180.16 180.94 179.22 180.65 178.35 C 180.36 177.48 179.42 177.01 178.55 177.30 L 177.61 177.62 C 176.74 177.91 176.27 178.85 176.56 179.71 C 176.85 180.58 177.79 181.05 178.66 180.76 Z M 179.62 180.39 L 179.93 180.28 C 180.77 179.98 181.21 179.06 180.91 178.22 C 180.61 177.38 179.68 176.95 178.85 177.25 L 178.53 177.36 C 177.69 177.66 177.26 178.58 177.56 179.42 C 177.86 180.26 178.78 180.69 179.62 180.39 Z"
      fill="black"
      fill-rule="nonzero" /></svg>