<svg xmlns="http://www.w3.org/2000/svg" width="300" height="300" viewBox="0 0 300 300">
<path d="M 123.38 124.64 L 124.32 124.87 C 125.40 125.14 126.49 124.49 126.75 123.41 C 127.02 122.34 126.37 121.25 125.29 120.98 L 124.35 120.75 C 123.27 120.48 122.19 121.13 121.92 122.21 C 121.65 123.28 122.31 124.37 123.38 124.64 Z M 123.94 124.74 L 124.87 125.18 C 125.87 125.66 127.07 125.23 127.55 124.23 C 128.02 123.22 127.60 122.03 126.59 121.55 L 125.67 121.11 C 124.67 120.63 123.47 121.06 122.99 122.07 C 122.51 123.07 122.94 124.27 123.94 124.74 Z M 124.44 124.91 L 125.13 125.49 C 125.99 126.20 127.26 126.09 127.97 125.23 C 128.68 124.38 128.57 123.11 127.71 122.40 L 127.02 121.82 C 126.16 121.11 124.89 121.22 124.18 122.08 C 123.47 122.93 123.58 124.20 124.44 124.91 Z M 124.97 125.34 L 125.68 126.08 C 126.46 126.88 127.73 126.90 128.53 126.13 C 129.33 125.36 129.35 124.08 128.58 123.28 L 127.87 122.54 C 127.10 121.74 125.82 121.72 125.02 122.49 C 124.22 123.27 124.20 124.54 124.97 125.34 Z M 125.68 126.07 L 126.42 126.84 C 127.18 127.65 128.46 127.68 129.26 126.92 C 130.06 126.15 130.10 124.88 129.33 124.07 L 128.59 123.29 C 127.82 122.49 126.55 122.46 125.75 123.22 C 124.94 123.99 124.91 125.26 125.68 126.07 Z M 126.47 126.89 L 127.21 127.61 C 127.99 128.38 129.26 128.37 130.04 127.58 C 130.81 126.79 130.80 125.53 130.01 124.75 L 129.28 124.03 C 128.49 123.26 127.22 123.27 126.45 124.06 C 125.67 124.84 125.68 126.11 126.47 126.89 Z M 127.26 127.63 L 127.99 128.32 C 128.80 129.06 130.05 129.02 130.80 128.21 C 131.55 127.41 131.50 126.15 130.70 125.41 L 129.96 124.72 C 129.15 123.98 127.90 124.03 127.15 124.83 C 126.41 125.63 126.45 126.89 127.26 127.63 Z M 128.05 128.34 L 128.80 129.00 C 129.61 129.71 130.85 129.63 131.57 128.82 C 132.28 128.00 132.20 126.76 131.39 126.05 L 130.64 125.39 C 129.83 124.67 128.59 124.75 127.87 125.57 C 127.16 126.38 127.23 127.62 128.05 128.34 Z M 128.86 128.99 L 129.63 129.64 C 130.44 130.32 131.65 130.22 132.33 129.41 C 133.02 128.59 132.91 127.38 132.10 126.70 L 131.33 126.05 C 130.52 125.37 129.31 125.47 128.62 126.29 C 127.94 127.10 128.05 128.31 128.86 128.99 Z M 129.65 129.59 L 130.38 130.21 C 131.17 130.88 132.35 130.79 133.02 130.00 C 133.68 129.22 133.59 128.04 132.80 127.37 L 132.07 126.75 C 131.29 126.08 130.11 126.17 129.44 126.96 C 128.77 127.74 128.87 128.92 129.65 129.59 Z M 130.37 130.14 L 131.09 130.79 C 131.84 131.46 132.99 131.41 133.66 130.66 C 134.33 129.92 134.28 128.77 133.53 128.10 L 132.81 127.45 C 132.07 126.77 130.92 126.83 130.25 127.57 C 129.57 128.31 129.63 129.46 130.37 130.14 Z M 131.10 130.72 L 131.84 131.42 C 132.55 132.09 133.66 132.06 134.33 131.35 C 135.00 130.64 134.97 129.53 134.26 128.86 L 133.53 128.16 C 132.82 127.49 131.70 127.52 131.03 128.23 C 130.36 128.94 130.39 130.06 131.10 130.72 Z M 131.86 131.39 L 132.21 131.73 C 132.90 132.39 133.99 132.36 134.65 131.68 C 135.31 130.99 135.29 129.89 134.60 129.23 L 134.25 128.89 C 133.56 128.23 132.46 128.26 131.80 128.95 C 131.14 129.63 131.17 130.73 131.86 131.39 Z"
      fill="black"
      fill-rule="nonzero" /><path d="M 118.67 149.42 L 119.37 150.17 C 120.09 150.93 121.28 150.96 122.04 150.25 C 122.80 149.53 122.84 148.34 122.13 147.58 L 121.43 146.83 C 120.71 146.07 119.52 146.04 118.76 146.75 C 118.00 147.46 117.96 148.66 118.67 149.42 Z M 119.38 150.17 L 120.07 150.90 C 120.79 151.66 121.99 151.69 122.74 150.98 C 123.50 150.26 123.53 149.06 122.82 148.31 L 122.12 147.57 C 121.40 146.82 120.21 146.78 119.45 147.50 C 118.69 148.22 118.66 149.41 119.38 150.17 Z M 120.08 150.91 L 120.77 151.62 C 121.49 152.38 122.69 152.40 123.44 151.68 C 124.19 150.95 124.21 149.76 123.49 149.00 L 122.81 148.30 C 122.08 147.54 120.89 147.52 120.14 148.24 C 119.38 148.97 119.36 150.16 120.08 150.91 Z M 120.79 151.64 L 121.51 152.37 C 122.24 153.11 123.43 153.12 124.17 152.39 C 124.92 151.65 124.92 150.46 124.19 149.72 L 123.47 148.99 C 122.74 148.25 121.54 148.24 120.80 148.97 C 120.06 149.70 120.05 150.90 120.79 151.64 Z M 121.53 152.39 L 122.27 153.11 C 123.01 153.83 124.20 153.82 124.93 153.08 C 125.65 152.34 125.64 151.15 124.90 150.42 L 124.17 149.70 C 123.42 148.97 122.23 148.99 121.51 149.73 C 120.78 150.47 120.79 151.66 121.53 152.39 Z M 122.29 153.12 L 122.98 153.78 C 123.73 154.50 124.92 154.47 125.63 153.72 C 126.35 152.97 126.32 151.79 125.57 151.07 L 124.88 150.41 C 124.13 149.70 122.94 149.72 122.23 150.47 C 121.51 151.22 121.54 152.41 122.29 153.12 Z M 123.01 153.79 L 123.73 154.47 C 124.49 155.17 125.67 155.13 126.37 154.38 C 127.07 153.63 127.03 152.45 126.28 151.74 L 125.55 151.07 C 124.80 150.36 123.62 150.40 122.92 151.16 C 122.21 151.91 122.25 153.09 123.01 153.79 Z M 123.75 154.47 L 124.49 155.15 C 125.24 155.84 126.41 155.79 127.10 155.03 C 127.80 154.28 127.75 153.11 126.99 152.41 L 126.26 151.74 C 125.50 151.05 124.33 151.10 123.64 151.85 C 122.95 152.61 123.00 153.78 123.75 154.47 Z M 124.50 155.14 L 125.22 155.80 C 125.97 156.48 127.14 156.43 127.82 155.67 C 128.50 154.92 128.45 153.76 127.70 153.07 L 126.98 152.42 C 126.23 151.73 125.06 151.79 124.38 152.54 C 123.69 153.29 123.75 154.46 124.50 155.14 Z M 125.24 155.78 L 125.97 156.45 C 126.71 157.12 127.86 157.07 128.54 156.33 C 129.21 155.58 129.16 154.44 128.42 153.76 L 127.68 153.09 C 126.94 152.42 125.79 152.47 125.12 153.21 C 124.44 153.96 124.49 155.10 125.24 155.78 Z M 125.99 156.42 L 126.74 157.10 C 127.47 157.76 128.59 157.71 129.25 156.98 C 129.92 156.25 129.86 155.13 129.14 154.46 L 128.39 153.79 C 127.67 153.12 126.54 153.18 125.88 153.91 C 125.21 154.63 125.27 155.76 125.99 156.42 Z M 126.75 157.08 L 127.00 157.30 C 127.72 157.96 128.83 157.90 129.48 157.19 C 130.14 156.47 130.08 155.36 129.37 154.70 L 129.12 154.48 C 128.40 153.83 127.29 153.88 126.64 154.60 C 125.98 155.32 126.04 156.43 126.75 157.08 Z"
      fill="black"
      fill-rule="nonzero" /><path d="M 116.78 181.75 L 116.21 182.86 C 115.78 183.71 116.12 184.75 116.96 185.18 C 117.81 185.61 118.85 185.28 119.28 184.43 L 119.85 183.32 C 120.28 182.48 119.94 181.44 119.10 181.01 C 118.25 180.57 117.21 180.91 116.78 181.75 Z M 116.16 184.47 L 116.28 184.70 C 116.73 185.57 117.81 185.92 118.69 185.46 C 119.57 185.01 119.91 183.93 119.45 183.05 L 119.34 182.82 C 118.88 181.95 117.80 181.60 116.93 182.06 C 116.05 182.51 115.71 183.59 116.16 184.47 Z M 118.99 185.31 L 119.86 184.63 C 120.65 184.01 120.79 182.86 120.17 182.07 C 119.55 181.28 118.40 181.14 117.60 181.76 L 116.74 182.44 C 115.95 183.06 115.81 184.21 116.43 185.00 C 117.05 185.80 118.20 185.93 118.99 185.31 Z M 119.88 184.63 L 120.72 183.96 C 121.52 183.33 121.64 182.17 121.01 181.38 C 120.37 180.58 119.22 180.45 118.42 181.09 L 117.58 181.76 C 116.79 182.39 116.66 183.55 117.29 184.35 C 117.93 185.14 119.09 185.27 119.88 184.63 Z M 120.68 184.00 L 121.47 183.41 C 122.28 182.80 122.45 181.64 121.84 180.83 C 121.23 180.01 120.07 179.85 119.26 180.46 L 118.47 181.05 C 117.65 181.66 117.48 182.81 118.09 183.63 C 118.71 184.45 119.86 184.61 120.68 184.00 Z M 121.44 183.43 L 122.30 182.81 C 123.13 182.22 123.32 181.06 122.72 180.23 C 122.12 179.41 120.97 179.22 120.14 179.82 L 119.28 180.43 C 118.45 181.03 118.27 182.19 118.86 183.01 C 119.46 183.84 120.61 184.03 121.44 183.43 Z M 122.29 182.82 L 123.10 182.25 C 123.93 181.66 124.13 180.50 123.54 179.67 C 122.95 178.84 121.80 178.64 120.96 179.23 L 120.15 179.81 C 119.32 180.40 119.12 181.55 119.71 182.38 C 120.30 183.22 121.46 183.41 122.29 182.82 Z M 123.10 182.25 L 123.93 181.66 C 124.76 181.07 124.96 179.92 124.37 179.08 C 123.78 178.25 122.63 178.05 121.80 178.64 L 120.97 179.23 C 120.13 179.82 119.94 180.97 120.53 181.81 C 121.11 182.64 122.27 182.84 123.10 182.25 Z M 123.94 181.65 L 124.74 181.07 C 125.57 180.48 125.76 179.33 125.17 178.50 C 124.58 177.67 123.43 177.48 122.60 178.07 L 121.79 178.65 C 120.96 179.24 120.77 180.40 121.36 181.23 C 121.95 182.05 123.11 182.25 123.94 181.65 Z M 124.76 181.06 L 125.60 180.44 C 126.42 179.84 126.60 178.69 125.99 177.87 C 125.39 177.05 124.24 176.87 123.42 177.47 L 122.58 178.09 C 121.76 178.69 121.59 179.84 122.19 180.66 C 122.79 181.48 123.94 181.66 124.76 181.06 Z M 125.61 180.41 L 126.40 179.82 C 127.21 179.21 127.37 178.06 126.76 177.26 C 126.15 176.45 125.00 176.29 124.20 176.90 L 123.41 177.50 C 122.60 178.11 122.44 179.26 123.05 180.06 C 123.66 180.86 124.81 181.02 125.61 180.41 Z M 126.42 179.79 L 127.18 179.19 C 127.97 178.58 128.11 177.44 127.49 176.65 C 126.87 175.86 125.73 175.72 124.94 176.34 L 124.18 176.93 C 123.39 177.55 123.25 178.69 123.87 179.48 C 124.49 180.27 125.63 180.41 126.42 179.79 Z M 127.19 179.16 L 127.97 178.53 C 128.75 177.90 128.86 176.77 128.24 176.00 C 127.61 175.23 126.48 175.11 125.71 175.73 L 124.93 176.37 C 124.16 176.99 124.04 178.12 124.66 178.90 C 125.29 179.67 126.42 179.79 127.19 179.16 Z M 127.99 178.49 L 128.75 177.85 C 129.50 177.22 129.60 176.10 128.97 175.35 C 128.33 174.59 127.21 174.50 126.46 175.13 L 125.70 175.77 C 124.95 176.40 124.85 177.52 125.48 178.27 C 126.11 179.03 127.23 179.12 127.99 178.49 Z M 128.76 177.81 L 129.47 177.19 C 130.20 176.55 130.28 175.44 129.64 174.71 C 129.00 173.98 127.89 173.91 127.16 174.55 L 126.45 175.17 C 125.72 175.80 125.64 176.91 126.28 177.64 C 126.92 178.38 128.03 178.45 128.76 177.81 Z M 129.47 177.16 L 130.18 176.53 C 130.90 175.89 130.96 174.79 130.32 174.08 C 129.68 173.37 128.59 173.30 127.87 173.94 L 127.16 174.58 C 126.45 175.21 126.39 176.31 127.03 177.02 C 127.66 177.74 128.76 177.80 129.47 177.16 Z M 130.17 176.51 L 130.96 175.80 C 131.67 175.17 131.73 174.09 131.10 173.38 C 130.47 172.68 129.39 172.62 128.69 173.25 L 127.89 173.96 C 127.19 174.59 127.13 175.67 127.75 176.37 C 128.38 177.07 129.46 177.14 130.17 176.51 Z M 130.94 175.79 L 131.65 175.16 C 132.35 174.55 132.42 173.48 131.80 172.79 C 131.19 172.09 130.12 172.02 129.42 172.63 L 128.72 173.25 C 128.02 173.87 127.95 174.93 128.56 175.63 C 129.18 176.33 130.24 176.40 130.94 175.79 Z M 131.63 175.15 L 132.37 174.51 C 133.06 173.91 133.14 172.86 132.53 172.16 C 131.93 171.47 130.88 171.39 130.18 172.00 L 129.44 172.64 C 128.75 173.25 128.68 174.30 129.28 174.99 C 129.88 175.68 130.93 175.76 131.63 175.15 Z M 132.35 174.50 L 133.14 173.82 C 133.82 173.22 133.90 172.19 133.31 171.50 C 132.71 170.81 131.67 170.74 130.99 171.33 L 130.20 172.01 C 129.51 172.60 129.44 173.64 130.03 174.33 C 130.63 175.02 131.66 175.09 132.35 174.50 Z M 133.12 173.80 L 133.89 173.15 C 134.57 172.56 134.64 171.53 134.06 170.85 C 133.47 170.18 132.45 170.10 131.77 170.69 L 131.00 171.35 C 130.32 171.93 130.25 172.96 130.83 173.64 C 131.42 174.31 132.44 174.39 133.12 173.80 Z"
      fill="black"
      fill-rule="nonzero" /><path d="M 144.22 140.97 L 145.18 141.00 C 146.12 141.02 146.91 140.27 146.93 139.33 C 146.96 138.38 146.21 137.60 145.27 137.57 L 144.31 137.55 C 143.36 137.52 142.57 138.27 142.55 139.21 C 142.52 140.16 143.27 140.95 144.22 140.97 Z M 145.30 141.03 L 146.30 140.98 C 147.26 140.94 148.01 140.13 147.97 139.16 C 147.93 138.20 147.11 137.45 146.15 137.50 L 145.14 137.54 C 144.18 137.58 143.44 138.40 143.48 139.36 C 143.52 140.32 144.33 141.07 145.30 141.03 Z M 146.50 140.99 L 147.45 140.84 C 148.42 140.69 149.08 139.79 148.93 138.82 C 148.78 137.85 147.87 137.18 146.90 137.34 L 145.95 137.48 C 144.98 137.64 144.32 138.54 144.47 139.51 C 144.62 140.48 145.53 141.15 146.50 140.99 Z M 147.60 140.85 L 148.53 140.62 C 149.50 140.39 150.09 139.41 149.86 138.44 C 149.62 137.47 148.65 136.88 147.68 137.11 L 146.75 137.34 C 145.78 137.57 145.19 138.55 145.42 139.52 C 145.66 140.48 146.63 141.08 147.60 140.85 Z M 148.59 140.64 L 149.60 140.36 C 150.58 140.09 151.15 139.08 150.88 138.10 C 150.61 137.12 149.60 136.55 148.62 136.82 L 147.61 137.10 C 146.63 137.37 146.06 138.38 146.33 139.36 C 146.60 140.33 147.61 140.91 148.59 140.64 Z M 149.60 140.38 L 150.63 140.10 C 151.62 139.82 152.20 138.80 151.93 137.81 C 151.65 136.82 150.63 136.24 149.64 136.51 L 148.61 136.80 C 147.62 137.07 147.04 138.09 147.32 139.08 C 147.59 140.07 148.61 140.65 149.60 140.38 Z M 150.61 140.11 L 151.59 139.85 C 152.59 139.59 153.18 138.57 152.92 137.57 C 152.66 136.57 151.63 135.97 150.63 136.24 L 149.66 136.50 C 148.66 136.76 148.06 137.78 148.32 138.78 C 148.59 139.78 149.61 140.38 150.61 140.11 Z M 151.58 139.86 L 152.57 139.60 C 153.57 139.34 154.17 138.32 153.91 137.32 C 153.65 136.32 152.63 135.72 151.63 135.98 L 150.64 136.23 C 149.64 136.49 149.04 137.52 149.30 138.52 C 149.56 139.52 150.58 140.12 151.58 139.86 Z M 152.58 139.60 L 153.54 139.35 C 154.54 139.09 155.14 138.06 154.87 137.06 C 154.61 136.06 153.58 135.46 152.58 135.72 L 151.62 135.98 C 150.62 136.24 150.02 137.26 150.29 138.27 C 150.55 139.27 151.58 139.87 152.58 139.60 Z M 153.56 139.35 L 154.55 139.08 C 155.54 138.80 156.13 137.77 155.86 136.77 C 155.58 135.77 154.55 135.18 153.55 135.46 L 152.56 135.73 C 151.56 136.00 150.97 137.03 151.25 138.03 C 151.52 139.03 152.56 139.62 153.56 139.35 Z M 154.57 139.07 L 155.52 138.79 C 156.52 138.51 157.09 137.47 156.81 136.47 C 156.52 135.48 155.48 134.90 154.49 135.19 L 153.53 135.46 C 152.54 135.75 151.96 136.79 152.25 137.78 C 152.53 138.78 153.57 139.35 154.57 139.07 Z M 155.53 138.79 L 156.46 138.52 C 157.45 138.23 158.02 137.19 157.74 136.20 C 157.45 135.20 156.41 134.63 155.41 134.92 L 154.48 135.19 C 153.49 135.48 152.92 136.52 153.21 137.52 C 153.50 138.51 154.54 139.08 155.53 138.79 Z M 156.45 138.52 L 157.42 138.24 C 158.41 137.96 158.99 136.92 158.70 135.93 C 158.42 134.93 157.38 134.36 156.39 134.64 L 155.42 134.92 C 154.43 135.20 153.85 136.24 154.14 137.24 C 154.42 138.23 155.46 138.81 156.45 138.52 Z M 157.41 138.25 L 158.41 137.97 C 159.40 137.69 159.98 136.66 159.71 135.66 C 159.43 134.66 158.40 134.08 157.40 134.36 L 156.40 134.64 C 155.41 134.92 154.82 135.95 155.10 136.95 C 155.38 137.94 156.41 138.52 157.41 138.25 Z M 158.41 137.97 L 159.36 137.70 C 160.36 137.42 160.94 136.39 160.66 135.40 C 160.39 134.40 159.36 133.82 158.36 134.10 L 157.40 134.36 C 156.41 134.64 155.83 135.67 156.10 136.67 C 156.38 137.66 157.41 138.24 158.41 137.97 Z M 159.37 137.69 L 160.30 137.43 C 161.29 137.15 161.87 136.11 161.59 135.12 C 161.31 134.13 160.27 133.55 159.28 133.84 L 158.35 134.10 C 157.36 134.38 156.78 135.42 157.07 136.41 C 157.35 137.40 158.38 137.98 159.37 137.69 Z M 160.33 137.42 L 161.24 137.15 C 162.23 136.85 162.79 135.81 162.50 134.82 C 162.20 133.84 161.16 133.28 160.18 133.57 L 159.26 133.85 C 158.27 134.14 157.71 135.18 158.00 136.17 C 158.30 137.15 159.34 137.72 160.33 137.42 Z M 161.27 137.13 L 162.24 136.83 C 163.22 136.52 163.76 135.48 163.45 134.50 C 163.15 133.52 162.10 132.97 161.12 133.28 L 160.15 133.58 C 159.17 133.89 158.63 134.94 158.93 135.92 C 159.24 136.90 160.29 137.44 161.27 137.13 Z M 162.25 136.82 L 163.03 136.57 C 164.00 136.25 164.54 135.21 164.22 134.23 C 163.91 133.26 162.86 132.72 161.88 133.04 L 161.11 133.29 C 160.13 133.60 159.60 134.65 159.91 135.63 C 160.23 136.60 161.27 137.14 162.25 136.82 Z M 163.04 136.56 L 163.90 136.28 C 164.87 135.95 165.40 134.90 165.08 133.93 C 164.75 132.96 163.70 132.43 162.73 132.76 L 161.87 133.04 C 160.90 133.37 160.37 134.42 160.70 135.39 C 161.02 136.36 162.07 136.89 163.04 136.56 Z M 163.92 136.27 L 164.91 135.93 C 165.88 135.59 166.40 134.54 166.06 133.57 C 165.73 132.60 164.68 132.09 163.71 132.42 L 162.71 132.77 C 161.75 133.10 161.23 134.15 161.56 135.12 C 161.90 136.09 162.95 136.60 163.92 136.27 Z M 164.93 135.92 L 166.08 135.51 C 167.05 135.16 167.55 134.10 167.20 133.14 C 166.86 132.18 165.80 131.68 164.84 132.02 L 163.69 132.43 C 162.73 132.78 162.23 133.83 162.57 134.80 C 162.91 135.76 163.97 136.26 164.93 135.92 Z M 166.10 135.50 L 167.02 135.16 C 167.97 134.81 168.47 133.75 168.11 132.79 C 167.76 131.83 166.70 131.34 165.74 131.69 L 164.83 132.03 C 163.87 132.38 163.38 133.44 163.73 134.40 C 164.08 135.36 165.14 135.85 166.10 135.50 Z M 167.03 135.15 L 167.98 134.79 C 168.93 134.44 169.42 133.38 169.06 132.42 C 168.70 131.47 167.64 130.99 166.69 131.34 L 165.74 131.70 C 164.78 132.06 164.30 133.12 164.66 134.07 C 165.01 135.02 166.07 135.51 167.03 135.15 Z M 167.99 134.79 L 168.96 134.42 C 169.91 134.06 170.39 133.00 170.03 132.05 C 169.67 131.10 168.61 130.62 167.66 130.98 L 166.68 131.35 C 165.74 131.71 165.26 132.77 165.62 133.72 C 165.98 134.67 167.04 135.15 167.99 134.79 Z M 168.97 134.41 L 169.93 134.04 C 170.88 133.68 171.35 132.62 170.99 131.67 C 170.63 130.73 169.57 130.26 168.62 130.62 L 167.66 130.99 C 166.71 131.35 166.24 132.41 166.60 133.35 C 166.96 134.30 168.02 134.77 168.97 134.41 Z M 169.94 134.03 L 170.86 133.68 C 171.80 133.31 172.27 132.26 171.90 131.31 C 171.54 130.37 170.48 129.90 169.54 130.27 L 168.62 130.62 C 167.68 130.99 167.21 132.05 167.57 132.99 C 167.94 133.93 168.99 134.40 169.94 134.03 Z M 170.86 133.67 L 171.82 133.30 C 172.76 132.93 173.22 131.88 172.86 130.94 C 172.49 130.00 171.44 129.54 170.50 129.90 L 169.54 130.27 C 168.60 130.64 168.13 131.70 168.50 132.63 C 168.86 133.57 169.92 134.04 170.86 133.67 Z M 171.82 133.29 L 172.87 132.88 C 173.80 132.52 174.26 131.46 173.89 130.53 C 173.53 129.59 172.47 129.13 171.54 129.50 L 170.50 129.91 C 169.56 130.27 169.10 131.33 169.47 132.26 C 169.83 133.20 170.89 133.66 171.82 133.29 Z M 172.87 132.87 L 173.78 132.51 C 174.71 132.14 175.17 131.09 174.80 130.16 C 174.43 129.24 173.38 128.78 172.45 129.15 L 171.54 129.51 C 170.61 129.88 170.15 130.93 170.52 131.86 C 170.89 132.78 171.94 133.24 172.87 132.87 Z M 173.78 132.50 L 174.62 132.17 C 175.54 131.80 175.99 130.76 175.63 129.83 C 175.26 128.91 174.21 128.46 173.29 128.82 L 172.45 129.16 C 171.53 129.52 171.08 130.57 171.44 131.50 C 171.81 132.42 172.86 132.87 173.78 132.50 Z M 174.62 132.16 L 175.11 131.97 C 176.03 131.60 176.48 130.56 176.11 129.64 C 175.75 128.71 174.70 128.27 173.78 128.63 L 173.29 128.83 C 172.37 129.20 171.92 130.24 172.28 131.16 C 172.65 132.08 173.70 132.53 174.62 132.16 Z"
      fill="black"
      fill-rule="nonzero" /><path d="M 150.51 129.47 L 151.07 130.29 C 151.62 131.09 152.72 131.30 153.52 130.75 C 154.33 130.20 154.53 129.10 153.98 128.29 L 153.43 127.48 C 152.88 126.68 151.78 126.47 150.97 127.02 C 150.17 127.57 149.96 128.67 150.51 129.47 Z M 150.94 130.12 L 151.41 131.01 C 151.87 131.89 152.95 132.23 153.83 131.76 C 154.70 131.30 155.04 130.22 154.58 129.34 L 154.11 128.46 C 153.65 127.58 152.57 127.24 151.69 127.70 C 150.82 128.17 150.48 129.25 150.94 130.12 Z M 151.27 130.71 L 151.55 131.62 C 151.84 132.57 152.85 133.10 153.81 132.81 C 154.76 132.51 155.30 131.50 155.00 130.55 L 154.72 129.64 C 154.43 128.69 153.41 128.16 152.46 128.45 C 151.51 128.75 150.97 129.76 151.27 130.71 Z M 151.49 131.38 L 151.65 132.37 C 151.82 133.35 152.75 134.02 153.74 133.85 C 154.72 133.69 155.39 132.75 155.22 131.77 L 155.06 130.78 C 154.89 129.80 153.96 129.13 152.97 129.30 C 151.99 129.46 151.32 130.39 151.49 131.38 Z M 151.64 132.25 L 151.74 133.30 C 151.84 134.30 152.73 135.02 153.72 134.93 C 154.72 134.83 155.44 133.94 155.34 132.95 L 155.24 131.89 C 155.14 130.89 154.25 130.17 153.26 130.27 C 152.27 130.36 151.54 131.25 151.64 132.25 Z M 151.74 133.26 L 151.81 134.28 C 151.89 135.28 152.75 136.03 153.75 135.96 C 154.74 135.88 155.49 135.02 155.42 134.02 L 155.35 132.99 C 155.27 132.00 154.41 131.25 153.41 131.32 C 152.42 131.39 151.67 132.26 151.74 133.26 Z M 151.82 134.26 L 151.87 135.26 C 151.93 136.26 152.79 137.02 153.78 136.96 C 154.78 136.90 155.54 136.05 155.48 135.05 L 155.42 134.05 C 155.36 133.05 154.51 132.29 153.51 132.35 C 152.52 132.41 151.76 133.26 151.82 134.26 Z M 151.88 135.25 L 151.93 136.25 C 151.98 137.25 152.82 138.01 153.82 137.96 C 154.81 137.91 155.57 137.07 155.52 136.08 L 155.47 135.07 C 155.43 134.08 154.58 133.31 153.59 133.36 C 152.59 133.41 151.83 134.25 151.88 135.25 Z M 151.94 136.24 L 151.98 137.25 C 152.02 138.24 152.86 139.01 153.85 138.96 C 154.84 138.92 155.60 138.08 155.56 137.10 L 155.52 136.09 C 155.47 135.10 154.64 134.33 153.65 134.38 C 152.66 134.42 151.89 135.25 151.94 136.24 Z M 151.99 137.24 L 152.03 138.18 C 152.07 139.16 152.90 139.93 153.88 139.89 C 154.86 139.85 155.62 139.02 155.58 138.04 L 155.55 137.10 C 155.51 136.12 154.68 135.36 153.70 135.40 C 152.72 135.44 151.95 136.26 151.99 137.24 Z M 152.04 138.18 L 152.08 139.17 C 152.11 140.14 152.93 140.91 153.91 140.87 C 154.88 140.84 155.64 140.02 155.61 139.04 L 155.57 138.05 C 155.54 137.07 154.72 136.31 153.74 136.35 C 152.77 136.38 152.01 137.20 152.04 138.18 Z M 152.09 139.15 L 152.11 140.16 C 152.13 141.13 152.94 141.89 153.91 141.87 C 154.88 141.85 155.65 141.04 155.62 140.07 L 155.60 139.06 C 155.58 138.09 154.77 137.32 153.80 137.35 C 152.83 137.37 152.06 138.18 152.09 139.15 Z M 152.12 140.13 L 152.13 141.13 C 152.14 142.09 152.93 142.87 153.89 142.86 C 154.86 142.85 155.64 142.06 155.63 141.09 L 155.62 140.10 C 155.61 139.13 154.82 138.36 153.85 138.37 C 152.88 138.37 152.11 139.17 152.12 140.13 Z M 152.14 141.11 L 152.14 142.12 C 152.14 143.08 152.92 143.85 153.88 143.85 C 154.84 143.85 155.62 143.07 155.62 142.11 L 155.62 141.11 C 155.61 140.15 154.84 139.37 153.87 139.37 C 152.91 139.37 152.14 140.15 152.14 141.11 Z M 152.15 142.11 L 152.15 143.13 C 152.15 144.08 152.93 144.85 153.88 144.85 C 154.83 144.85 155.61 144.08 155.61 143.13 L 155.61 142.11 C 155.61 141.16 154.83 140.39 153.88 140.39 C 152.93 140.39 152.15 141.16 152.15 142.11 Z M 152.17 143.13 L 152.17 144.12 C 152.17 145.06 152.93 145.83 153.88 145.83 C 154.82 145.83 155.59 145.06 155.59 144.12 L 155.59 143.13 C 155.59 142.18 154.82 141.41 153.88 141.41 C 152.93 141.41 152.17 142.18 152.17 143.13 Z M 152.18 144.12 L 152.18 145.04 C 152.18 145.98 152.94 146.74 153.88 146.74 C 154.82 146.74 155.57 145.98 155.57 145.04 L 155.57 144.12 C 155.57 143.18 154.82 142.42 153.88 142.42 C 152.94 142.42 152.18 143.18 152.18 144.12 Z M 152.20 145.04 L 152.20 146.04 C 152.20 146.97 152.95 147.73 153.88 147.73 C 154.81 147.73 155.56 146.97 155.56 146.04 L 155.56 145.04 C 155.56 144.11 154.81 143.36 153.88 143.36 C 152.95 143.36 152.20 144.11 152.20 145.04 Z M 152.21 146.04 L 152.21 147.07 C 152.21 147.99 152.96 148.74 153.88 148.74 C 154.80 148.74 155.55 147.99 155.55 147.07 L 155.55 146.04 C 155.55 145.12 154.80 144.38 153.88 144.38 C 152.96 144.38 152.21 145.12 152.21 146.04 Z M 152.22 147.07 L 152.23 148.07 C 152.23 148.98 152.97 149.72 153.88 149.72 C 154.80 149.72 155.54 148.98 155.53 148.06 L 155.53 147.07 C 155.53 146.15 154.79 145.41 153.88 145.41 C 152.96 145.42 152.22 146.16 152.22 147.07 Z M 152.24 148.08 L 152.24 149.11 C 152.25 150.02 152.99 150.75 153.89 150.75 C 154.80 150.74 155.53 150.00 155.53 149.10 L 155.52 148.06 C 155.52 147.15 154.78 146.42 153.87 146.42 C 152.97 146.43 152.23 147.17 152.24 148.08 Z M 152.26 149.12 L 152.27 150.16 C 152.28 151.06 153.02 151.78 153.92 151.77 C 154.82 151.76 155.54 151.03 155.53 150.13 L 155.51 149.09 C 155.50 148.19 154.77 147.47 153.87 147.48 C 152.97 147.49 152.25 148.22 152.26 149.12 Z M 152.29 150.18 L 152.31 151.20 C 152.33 152.09 153.06 152.80 153.95 152.78 C 154.84 152.76 155.55 152.02 155.53 151.14 L 155.51 150.11 C 155.49 149.22 154.75 148.52 153.87 148.54 C 152.98 148.55 152.27 149.29 152.29 150.18 Z M 152.33 151.21 L 152.36 152.18 C 152.38 153.06 153.11 153.75 153.99 153.73 C 154.86 153.70 155.55 152.97 155.53 152.10 L 155.51 151.13 C 155.48 150.25 154.75 149.56 153.88 149.58 C 153.00 149.60 152.31 150.33 152.33 151.21 Z M 152.37 152.18 L 152.38 152.65 C 152.41 153.52 153.13 154.20 154.00 154.18 C 154.87 154.15 155.55 153.43 155.53 152.56 L 155.52 152.09 C 155.49 151.22 154.77 150.54 153.90 150.57 C 153.03 150.59 152.35 151.31 152.37 152.18 Z"
      fill="black"
      fill-rule="nonzero" /><path d="M 164.09 125.85 L 164.37 126.72 C 164.66 127.63 165.63 128.13 166.54 127.84 C 167.44 127.55 167.94 126.58 167.65 125.67 L 167.38 124.80 C 167.09 123.90 166.12 123.40 165.21 123.68 C 164.30 123.97 163.80 124.94 164.09 125.85 Z M 164.30 126.62 L 164.54 127.58 C 164.78 128.52 165.73 129.09 166.68 128.85 C 167.62 128.62 168.19 127.66 167.96 126.72 L 167.72 125.77 C 167.48 124.83 166.53 124.25 165.58 124.49 C 164.64 124.73 164.07 125.68 164.30 126.62 Z M 164.47 127.40 L 164.63 128.49 C 164.77 129.47 165.68 130.15 166.66 130.01 C 167.64 129.87 168.32 128.96 168.18 127.98 L 168.03 126.89 C 167.89 125.91 166.98 125.23 165.99 125.37 C 165.01 125.51 164.33 126.42 164.47 127.40 Z M 164.60 128.33 L 164.65 129.32 C 164.70 130.32 165.55 131.09 166.55 131.04 C 167.55 130.99 168.32 130.13 168.27 129.14 L 168.22 128.14 C 168.16 127.14 167.31 126.37 166.31 126.43 C 165.31 126.48 164.55 127.33 164.60 128.33 Z M 164.64 129.22 L 164.64 130.27 C 164.64 131.27 165.45 132.08 166.45 132.09 C 167.45 132.09 168.26 131.28 168.27 130.28 L 168.27 129.24 C 168.27 128.23 167.47 127.42 166.46 127.42 C 165.46 127.41 164.65 128.22 164.64 129.22 Z M 164.64 130.19 L 164.60 131.21 C 164.55 132.21 165.33 133.05 166.33 133.10 C 167.33 133.14 168.18 132.37 168.22 131.37 L 168.27 130.36 C 168.31 129.35 167.54 128.51 166.54 128.46 C 165.53 128.42 164.69 129.19 164.64 130.19 Z M 164.60 131.13 L 164.51 132.15 C 164.43 133.15 165.17 134.03 166.17 134.12 C 167.17 134.20 168.05 133.46 168.13 132.46 L 168.22 131.44 C 168.30 130.44 167.56 129.56 166.56 129.48 C 165.56 129.39 164.68 130.13 164.60 131.13 Z M 164.52 132.06 L 164.38 133.10 C 164.25 134.09 164.94 135.00 165.93 135.14 C 166.93 135.28 167.84 134.58 167.98 133.59 L 168.12 132.55 C 168.26 131.56 167.56 130.64 166.57 130.51 C 165.58 130.37 164.66 131.07 164.52 132.06 Z M 164.40 133.01 L 164.23 133.90 C 164.04 134.88 164.69 135.83 165.68 136.02 C 166.66 136.20 167.61 135.55 167.80 134.57 L 167.97 133.68 C 168.15 132.69 167.50 131.74 166.52 131.56 C 165.53 131.37 164.58 132.02 164.40 133.01 Z M 164.23 133.87 L 164.05 134.80 C 163.85 135.79 164.48 136.74 165.46 136.94 C 166.45 137.14 167.41 136.51 167.60 135.52 L 167.79 134.59 C 167.99 133.61 167.36 132.65 166.37 132.45 C 165.39 132.25 164.43 132.89 164.23 133.87 Z M 164.05 134.80 L 163.85 135.79 C 163.65 136.77 164.28 137.73 165.27 137.93 C 166.25 138.13 167.21 137.49 167.41 136.51 L 167.60 135.52 C 167.80 134.54 167.17 133.58 166.18 133.38 C 165.20 133.18 164.24 133.82 164.05 134.80 Z M 163.85 135.79 L 163.64 136.79 C 163.45 137.77 164.08 138.73 165.07 138.93 C 166.05 139.13 167.01 138.49 167.20 137.51 L 167.41 136.51 C 167.60 135.53 166.97 134.57 165.98 134.37 C 165.00 134.17 164.04 134.81 163.85 135.79 Z M 163.65 136.79 L 163.45 137.77 C 163.24 138.75 163.88 139.71 164.86 139.91 C 165.84 140.11 166.80 139.48 167.00 138.49 L 167.20 137.51 C 167.40 136.53 166.77 135.57 165.79 135.37 C 164.81 135.17 163.85 135.80 163.65 136.79 Z M 163.45 137.74 L 163.24 138.72 C 163.02 139.70 163.64 140.66 164.62 140.88 C 165.60 141.09 166.57 140.47 166.78 139.49 L 167.00 138.52 C 167.21 137.54 166.59 136.57 165.61 136.36 C 164.63 136.14 163.67 136.76 163.45 137.74 Z M 163.25 138.68 L 163.02 139.65 C 162.78 140.62 163.38 141.60 164.35 141.84 C 165.32 142.07 166.30 141.48 166.53 140.50 L 166.77 139.53 C 167.00 138.56 166.41 137.58 165.44 137.35 C 164.46 137.11 163.49 137.71 163.25 138.68 Z M 163.03 139.63 L 162.78 140.59 C 162.53 141.56 163.11 142.54 164.08 142.79 C 165.04 143.04 166.02 142.46 166.27 141.50 L 166.52 140.53 C 166.77 139.56 166.19 138.58 165.22 138.33 C 164.26 138.08 163.28 138.66 163.03 139.63 Z M 162.78 140.60 L 162.54 141.57 C 162.29 142.53 162.87 143.51 163.83 143.76 C 164.79 144.00 165.77 143.42 166.02 142.46 L 166.27 141.49 C 166.51 140.53 165.93 139.55 164.97 139.30 C 164.01 139.06 163.03 139.64 162.78 140.60 Z M 162.54 141.59 L 162.30 142.57 C 162.06 143.53 162.65 144.50 163.61 144.73 C 164.57 144.97 165.54 144.38 165.77 143.42 L 166.01 142.44 C 166.25 141.48 165.66 140.51 164.70 140.28 C 163.75 140.04 162.78 140.63 162.54 141.59 Z M 162.31 142.56 L 162.07 143.53 C 161.83 144.48 162.41 145.45 163.36 145.69 C 164.32 145.93 165.29 145.35 165.52 144.39 L 165.77 143.43 C 166.00 142.47 165.42 141.50 164.47 141.27 C 163.51 141.03 162.55 141.61 162.31 142.56 Z M 162.09 143.50 L 161.82 144.49 C 161.57 145.43 162.13 146.40 163.07 146.66 C 164.02 146.91 164.99 146.35 165.24 145.40 L 165.51 144.42 C 165.76 143.47 165.20 142.50 164.25 142.25 C 163.31 142.00 162.34 142.56 162.09 143.50 Z M 161.85 144.46 L 161.57 145.42 C 161.31 146.35 161.85 147.32 162.78 147.59 C 163.71 147.86 164.68 147.32 164.94 146.39 L 165.22 145.43 C 165.48 144.50 164.94 143.53 164.01 143.26 C 163.08 142.99 162.11 143.53 161.85 144.46 Z M 161.59 145.41 L 161.31 146.36 C 161.04 147.28 161.57 148.25 162.49 148.52 C 163.41 148.79 164.37 148.26 164.64 147.35 L 164.92 146.40 C 165.19 145.48 164.67 144.51 163.75 144.24 C 162.83 143.97 161.87 144.50 161.59 145.41 Z M 161.34 146.36 L 161.05 147.32 C 160.77 148.22 161.29 149.18 162.19 149.45 C 163.10 149.73 164.06 149.21 164.33 148.31 L 164.62 147.35 C 164.89 146.44 164.38 145.49 163.47 145.21 C 162.57 144.94 161.61 145.45 161.34 146.36 Z M 161.07 147.31 L 160.78 148.24 C 160.50 149.13 161.00 150.08 161.89 150.36 C 162.78 150.64 163.73 150.14 164.01 149.25 L 164.30 148.32 C 164.58 147.43 164.09 146.48 163.19 146.20 C 162.30 145.92 161.35 146.41 161.07 147.31 Z M 160.81 148.24 L 160.51 149.18 C 160.23 150.05 160.71 150.99 161.59 151.27 C 162.46 151.55 163.40 151.07 163.68 150.19 L 163.98 149.25 C 164.26 148.38 163.78 147.44 162.90 147.16 C 162.03 146.88 161.09 147.36 160.81 148.24 Z M 160.54 149.20 L 160.24 150.17 C 159.97 151.03 160.45 151.94 161.31 152.21 C 162.17 152.48 163.08 152.00 163.35 151.14 L 163.65 150.17 C 163.92 149.31 163.44 148.40 162.58 148.13 C 161.72 147.86 160.81 148.34 160.54 149.20 Z M 160.25 150.20 L 159.97 151.15 C 159.72 152.00 160.21 152.89 161.06 153.14 C 161.91 153.39 162.80 152.91 163.06 152.05 L 163.33 151.11 C 163.59 150.26 163.10 149.36 162.25 149.11 C 161.40 148.86 160.50 149.35 160.25 150.20 Z M 159.98 151.16 L 159.71 152.14 C 159.46 152.99 159.95 153.87 160.80 154.11 C 161.64 154.35 162.52 153.86 162.76 153.01 L 163.04 152.04 C 163.28 151.19 162.80 150.31 161.95 150.07 C 161.11 149.83 160.23 150.32 159.98 151.16 Z M 159.71 152.15 L 159.66 152.33 C 159.42 153.17 159.91 154.04 160.75 154.28 C 161.59 154.52 162.47 154.03 162.70 153.19 L 162.76 153.01 C 162.99 152.17 162.51 151.29 161.67 151.06 C 160.83 150.82 159.95 151.31 159.71 152.15 Z"
      fill="black"
      fill-rule="nonzero" /><path d="M 144.35 159.47 L 145.35 159.27 C 146.30 159.08 146.92 158.15 146.73 157.19 C 146.54 156.24 145.61 155.62 144.66 155.81 L 143.66 156.01 C 142.71 156.20 142.09 157.13 142.28 158.08 C 142.47 159.04 143.40 159.66 144.35 159.47 Z M 145.37 159.36 L 146.35 159.16 C 147.36 158.95 148.01 157.97 147.80 156.97 C 147.60 155.97 146.62 155.32 145.62 155.52 L 144.64 155.72 C 143.63 155.92 142.98 156.90 143.19 157.91 C 143.39 158.91 144.37 159.56 145.37 159.36 Z M 146.38 159.23 L 147.35 159.03 C 148.39 158.81 149.06 157.79 148.84 156.74 C 148.62 155.69 147.60 155.02 146.55 155.24 L 145.59 155.44 C 144.54 155.66 143.87 156.69 144.09 157.74 C 144.31 158.78 145.34 159.45 146.38 159.23 Z M 147.37 159.07 L 148.33 158.86 C 149.40 158.63 150.08 157.58 149.84 156.51 C 149.61 155.44 148.56 154.76 147.49 155.00 L 146.53 155.20 C 145.46 155.44 144.78 156.49 145.02 157.56 C 145.25 158.62 146.30 159.30 147.37 159.07 Z M 148.33 158.87 L 149.30 158.66 C 150.38 158.43 151.06 157.37 150.82 156.30 C 150.59 155.23 149.54 154.55 148.46 154.78 L 147.49 154.99 C 146.42 155.22 145.74 156.28 145.97 157.35 C 146.20 158.42 147.26 159.10 148.33 158.87 Z M 149.29 158.67 L 150.22 158.47 C 151.30 158.25 151.99 157.20 151.77 156.12 C 151.54 155.04 150.49 154.35 149.41 154.57 L 148.48 154.77 C 147.40 154.99 146.71 156.04 146.93 157.12 C 147.16 158.20 148.21 158.89 149.29 158.67 Z M 150.20 158.48 L 151.06 158.32 C 152.14 158.11 152.85 157.06 152.64 155.98 C 152.43 154.90 151.38 154.19 150.30 154.40 L 149.44 154.57 C 148.36 154.78 147.65 155.82 147.86 156.90 C 148.07 157.99 149.12 158.69 150.20 158.48 Z M 151.04 158.32 L 152.01 158.15 C 153.10 157.95 153.82 156.91 153.62 155.82 C 153.42 154.74 152.38 154.02 151.30 154.21 L 150.32 154.39 C 149.24 154.59 148.52 155.63 148.71 156.71 C 148.91 157.80 149.95 158.52 151.04 158.32 Z M 151.99 158.15 L 153.13 157.96 C 154.22 157.77 154.95 156.74 154.76 155.65 C 154.58 154.56 153.54 153.83 152.45 154.01 L 151.32 154.21 C 150.23 154.39 149.50 155.43 149.68 156.52 C 149.87 157.61 150.90 158.34 151.99 158.15 Z M 153.11 157.96 L 154.12 157.80 C 155.21 157.62 155.96 156.59 155.78 155.50 C 155.60 154.41 154.57 153.67 153.48 153.85 L 152.47 154.01 C 151.38 154.19 150.63 155.22 150.81 156.31 C 150.99 157.40 152.02 158.14 153.11 157.96 Z M 154.12 157.80 L 155.14 157.64 C 156.23 157.47 156.98 156.44 156.80 155.35 C 156.63 154.25 155.60 153.51 154.51 153.68 L 153.49 153.84 C 152.39 154.02 151.65 155.04 151.82 156.14 C 152.00 157.23 153.02 157.97 154.12 157.80 Z M 155.13 157.64 L 156.17 157.48 C 157.27 157.31 158.02 156.28 157.84 155.19 C 157.67 154.09 156.65 153.34 155.55 153.52 L 154.51 153.68 C 153.42 153.85 152.67 154.88 152.84 155.97 C 153.01 157.06 154.04 157.81 155.13 157.64 Z M 156.17 157.48 L 157.18 157.32 C 158.27 157.15 159.02 156.12 158.85 155.03 C 158.68 153.93 157.65 153.19 156.56 153.36 L 155.55 153.52 C 154.46 153.69 153.71 154.71 153.88 155.81 C 154.05 156.90 155.08 157.65 156.17 157.48 Z M 157.18 157.32 L 158.10 157.17 C 159.19 157.00 159.94 155.97 159.77 154.88 C 159.59 153.79 158.57 153.04 157.47 153.21 L 156.55 153.36 C 155.46 153.53 154.71 154.56 154.89 155.65 C 155.06 156.75 156.09 157.49 157.18 157.32 Z M 158.11 157.17 L 159.31 156.98 C 160.40 156.80 161.14 155.77 160.97 154.68 C 160.79 153.58 159.76 152.84 158.66 153.02 L 157.46 153.21 C 156.37 153.39 155.63 154.42 155.81 155.52 C 155.98 156.61 157.02 157.35 158.11 157.17 Z M 159.32 156.98 L 160.28 156.81 C 161.38 156.63 162.11 155.59 161.93 154.50 C 161.74 153.41 160.70 152.67 159.61 152.86 L 158.65 153.02 C 157.56 153.20 156.82 154.24 157.01 155.33 C 157.19 156.43 158.23 157.16 159.32 156.98 Z M 160.29 156.81 L 161.09 156.68 C 162.18 156.49 162.91 155.45 162.72 154.36 C 162.54 153.26 161.50 152.53 160.40 152.72 L 159.61 152.86 C 158.51 153.04 157.78 154.08 157.97 155.18 C 158.16 156.27 159.20 157.00 160.29 156.81 Z M 161.08 156.68 L 162.08 156.51 C 163.17 156.33 163.91 155.29 163.73 154.20 C 163.54 153.10 162.51 152.36 161.41 152.55 L 160.41 152.72 C 159.32 152.90 158.58 153.94 158.76 155.03 C 158.95 156.12 159.98 156.86 161.08 156.68 Z M 162.07 156.51 L 163.04 156.36 C 164.13 156.18 164.87 155.14 164.70 154.05 C 164.52 152.95 163.49 152.21 162.39 152.39 L 161.42 152.55 C 160.33 152.72 159.58 153.76 159.76 154.85 C 159.94 155.95 160.97 156.69 162.07 156.51 Z M 163.03 156.36 L 164.02 156.20 C 165.12 156.02 165.86 154.99 165.69 153.89 C 165.51 152.80 164.48 152.05 163.38 152.23 L 162.39 152.39 C 161.30 152.56 160.55 153.59 160.73 154.69 C 160.90 155.79 161.93 156.53 163.03 156.36 Z M 164.03 156.20 L 165.01 156.04 C 166.10 155.86 166.85 154.83 166.67 153.73 C 166.49 152.63 165.46 151.89 164.36 152.07 L 163.38 152.23 C 162.28 152.41 161.54 153.44 161.72 154.54 C 161.90 155.63 162.93 156.38 164.03 156.20 Z M 165.02 156.04 L 165.94 155.88 C 167.04 155.70 167.78 154.66 167.59 153.56 C 167.40 152.46 166.36 151.72 165.27 151.91 L 164.35 152.07 C 163.25 152.25 162.51 153.29 162.70 154.39 C 162.88 155.49 163.92 156.23 165.02 156.04 Z M 165.96 155.88 L 166.95 155.71 C 168.05 155.51 168.78 154.46 168.58 153.37 C 168.39 152.27 167.34 151.54 166.24 151.73 L 165.25 151.91 C 164.15 152.11 163.42 153.15 163.62 154.25 C 163.81 155.35 164.86 156.08 165.96 155.88 Z M 166.96 155.71 L 167.95 155.53 C 169.05 155.33 169.78 154.28 169.58 153.18 C 169.38 152.08 168.33 151.35 167.23 151.55 L 166.23 151.73 C 165.14 151.93 164.41 152.98 164.61 154.08 C 164.81 155.18 165.86 155.91 166.96 155.71 Z M 167.96 155.53 L 168.95 155.35 C 170.05 155.15 170.78 154.09 170.58 152.99 C 170.37 151.89 169.31 151.16 168.21 151.36 L 167.22 151.54 C 166.12 151.75 165.39 152.81 165.60 153.91 C 165.80 155.01 166.86 155.74 167.96 155.53 Z M 168.96 155.36 L 169.97 155.17 C 171.08 154.96 171.80 153.90 171.60 152.79 C 171.39 151.69 170.33 150.96 169.22 151.17 L 168.21 151.36 C 167.10 151.56 166.37 152.63 166.58 153.73 C 166.79 154.84 167.85 155.56 168.96 155.36 Z M 169.98 155.17 L 171.01 154.98 C 172.12 154.77 172.84 153.70 172.63 152.59 C 172.42 151.48 171.35 150.75 170.24 150.96 L 169.22 151.16 C 168.11 151.37 167.38 152.44 167.59 153.55 C 167.80 154.66 168.87 155.39 169.98 155.17 Z M 171.02 154.98 L 172.01 154.79 C 173.12 154.57 173.84 153.49 173.62 152.38 C 173.40 151.27 172.32 150.55 171.21 150.77 L 170.23 150.96 C 169.12 151.18 168.39 152.26 168.61 153.37 C 168.83 154.48 169.91 155.20 171.02 154.98 Z M 172.04 154.79 L 172.97 154.59 C 174.09 154.36 174.80 153.26 174.56 152.15 C 174.32 151.04 173.23 150.33 172.12 150.56 L 171.18 150.76 C 170.07 151.00 169.36 152.09 169.59 153.21 C 169.83 154.32 170.92 155.03 172.04 154.79 Z M 173.01 154.60 L 174.02 154.36 C 175.14 154.10 175.83 152.99 175.57 151.88 C 175.32 150.76 174.20 150.07 173.09 150.33 L 172.08 150.56 C 170.96 150.82 170.27 151.93 170.53 153.05 C 170.79 154.16 171.90 154.86 173.01 154.60 Z M 174.04 154.38 L 175.00 154.15 C 176.12 153.88 176.81 152.75 176.54 151.63 C 176.27 150.50 175.14 149.81 174.02 150.08 L 173.07 150.31 C 171.94 150.58 171.25 151.71 171.52 152.83 C 171.79 153.95 172.92 154.65 174.04 154.38 Z M 174.97 154.18 L 175.95 153.96 C 177.09 153.70 177.80 152.57 177.54 151.43 C 177.29 150.29 176.16 149.58 175.02 149.83 L 174.04 150.05 C 172.90 150.31 172.19 151.44 172.45 152.58 C 172.70 153.72 173.84 154.43 174.97 154.18 Z M 175.81 154.01 L 176.78 153.86 C 177.95 153.69 178.75 152.59 178.57 151.42 C 178.40 150.25 177.30 149.45 176.13 149.63 L 175.16 149.78 C 173.99 149.96 173.19 151.05 173.36 152.22 C 173.54 153.39 174.64 154.19 175.81 154.01 Z M 176.50 153.93 L 177.48 153.91 C 178.68 153.88 179.64 152.89 179.61 151.68 C 179.59 150.48 178.59 149.52 177.39 149.55 L 176.41 149.57 C 175.21 149.59 174.25 150.59 174.28 151.79 C 174.30 152.99 175.30 153.95 176.50 153.93 Z M 177.25 153.95 L 178.26 154.03 C 179.48 154.13 180.56 153.21 180.66 151.99 C 180.76 150.76 179.84 149.69 178.62 149.59 L 177.61 149.51 C 176.39 149.41 175.31 150.32 175.21 151.55 C 175.11 152.77 176.03 153.85 177.25 153.95 Z M 178.18 154.06 L 178.67 154.11 C 179.91 154.25 181.03 153.36 181.17 152.11 C 181.31 150.87 180.41 149.75 179.17 149.61 L 178.69 149.56 C 177.45 149.42 176.33 150.31 176.19 151.56 C 176.05 152.80 176.94 153.92 178.18 154.06 Z"
      fill="black"
      fill-rule="nonzero" /><path d="M 149.90 164.69 L 150.24 165.54 C 150.60 166.46 151.63 166.91 152.55 166.55 C 153.47 166.19 153.92 165.15 153.56 164.23 L 153.23 163.38 C 152.86 162.47 151.83 162.01 150.91 162.38 C 149.99 162.74 149.54 163.77 149.90 164.69 Z M 150.08 165.19 L 150.25 166.17 C 150.42 167.18 151.37 167.85 152.37 167.68 C 153.38 167.51 154.05 166.56 153.88 165.56 L 153.71 164.58 C 153.54 163.57 152.59 162.90 151.59 163.07 C 150.59 163.24 149.91 164.19 150.08 165.19 Z M 150.19 165.67 L 150.08 166.67 C 149.97 167.70 150.73 168.63 151.76 168.74 C 152.80 168.85 153.72 168.10 153.83 167.06 L 153.94 166.06 C 154.05 165.03 153.30 164.10 152.26 163.99 C 151.23 163.88 150.30 164.63 150.19 165.67 Z M 150.13 166.35 L 149.88 167.26 C 149.59 168.27 150.18 169.32 151.19 169.60 C 152.20 169.88 153.25 169.29 153.53 168.28 L 153.79 167.38 C 154.07 166.37 153.48 165.32 152.47 165.04 C 151.46 164.75 150.41 165.34 150.13 166.35 Z M 149.93 167.11 L 149.56 168.08 C 149.20 169.06 149.70 170.15 150.68 170.52 C 151.66 170.88 152.76 170.38 153.12 169.40 L 153.48 168.43 C 153.85 167.45 153.35 166.36 152.37 165.99 C 151.38 165.63 150.29 166.13 149.93 167.11 Z M 149.60 167.99 L 149.18 168.97 C 148.76 169.93 149.21 171.05 150.17 171.47 C 151.13 171.88 152.25 171.44 152.66 170.48 L 153.09 169.49 C 153.50 168.53 153.06 167.41 152.10 167.00 C 151.13 166.58 150.02 167.03 149.60 167.99 Z M 149.20 168.92 L 148.73 169.92 C 148.29 170.87 148.70 171.99 149.65 172.44 C 150.59 172.88 151.72 172.48 152.17 171.53 L 152.64 170.53 C 153.08 169.58 152.67 168.45 151.72 168.01 C 150.78 167.56 149.65 167.97 149.20 168.92 Z M 148.76 169.88 L 148.28 170.84 C 147.81 171.78 148.20 172.91 149.13 173.38 C 150.07 173.84 151.20 173.46 151.67 172.53 L 152.14 171.56 C 152.61 170.63 152.23 169.49 151.29 169.03 C 150.36 168.57 149.22 168.95 148.76 169.88 Z M 148.30 170.82 L 147.85 171.69 C 147.37 172.61 147.73 173.75 148.65 174.23 C 149.57 174.71 150.71 174.35 151.19 173.43 L 151.65 172.56 C 152.13 171.63 151.77 170.49 150.84 170.01 C 149.92 169.53 148.78 169.89 148.30 170.82 Z M 147.86 171.67 L 147.45 172.43 C 146.96 173.35 147.31 174.49 148.22 174.98 C 149.14 175.47 150.28 175.12 150.77 174.21 L 151.18 173.45 C 151.67 172.53 151.32 171.39 150.41 170.90 C 149.49 170.41 148.35 170.75 147.86 171.67 Z M 147.48 172.41 L 146.98 173.31 C 146.48 174.21 146.81 175.35 147.71 175.85 C 148.61 176.35 149.75 176.02 150.25 175.12 L 150.74 174.23 C 151.24 173.32 150.92 172.19 150.02 171.69 C 149.11 171.19 147.98 171.51 147.48 172.41 Z M 147.02 173.27 L 146.54 174.09 C 146.01 174.97 146.30 176.10 147.18 176.63 C 148.06 177.15 149.19 176.86 149.72 175.98 L 150.21 175.16 C 150.73 174.28 150.44 173.14 149.56 172.62 C 148.68 172.10 147.55 172.39 147.02 173.27 Z M 146.58 174.04 L 146.05 174.87 C 145.50 175.72 145.75 176.85 146.60 177.40 C 147.45 177.95 148.59 177.71 149.14 176.85 L 149.67 176.03 C 150.22 175.18 149.97 174.04 149.12 173.49 C 148.27 172.94 147.13 173.19 146.58 174.04 Z M 146.09 174.83 L 145.53 175.65 C 144.97 176.48 145.18 177.62 146.02 178.18 C 146.85 178.75 147.98 178.53 148.55 177.70 L 149.10 176.88 C 149.67 176.05 149.45 174.92 148.62 174.35 C 147.79 173.78 146.65 174.00 146.09 174.83 Z M 145.56 175.62 L 144.96 176.47 C 144.38 177.29 144.57 178.42 145.39 179.00 C 146.21 179.58 147.34 179.39 147.92 178.57 L 148.52 177.73 C 149.10 176.91 148.91 175.78 148.09 175.20 C 147.27 174.62 146.14 174.81 145.56 175.62 Z M 145.00 176.44 L 144.38 177.27 C 143.78 178.07 143.94 179.20 144.74 179.80 C 145.54 180.39 146.67 180.23 147.26 179.43 L 147.88 178.60 C 148.48 177.80 148.32 176.67 147.52 176.08 C 146.72 175.48 145.59 175.64 145.00 176.44 Z M 144.43 177.24 L 143.78 178.05 C 143.17 178.81 143.29 179.93 144.06 180.55 C 144.83 181.16 145.95 181.04 146.56 180.27 L 147.21 179.46 C 147.82 178.70 147.70 177.58 146.93 176.96 C 146.17 176.35 145.04 176.47 144.43 177.24 Z M 143.86 178.01 L 143.21 178.74 C 142.58 179.47 142.65 180.57 143.38 181.21 C 144.10 181.85 145.21 181.77 145.84 181.05 L 146.49 180.31 C 147.13 179.59 147.05 178.48 146.33 177.84 C 145.60 177.21 144.49 177.28 143.86 178.01 Z M 143.30 178.70 L 142.62 179.39 C 141.96 180.07 141.98 181.16 142.66 181.82 C 143.34 182.48 144.42 182.46 145.08 181.78 L 145.76 181.09 C 146.42 180.41 146.41 179.33 145.73 178.66 C 145.05 178.00 143.96 178.02 143.30 178.70 Z M 142.71 179.36 L 141.98 180.04 C 141.30 180.67 141.26 181.73 141.89 182.41 C 142.53 183.09 143.59 183.13 144.27 182.50 L 145.00 181.82 C 145.68 181.18 145.72 180.12 145.08 179.44 C 144.45 178.76 143.39 178.72 142.71 179.36 Z M 142.04 180.03 L 141.29 180.69 C 140.60 181.29 140.53 182.33 141.13 183.01 C 141.73 183.69 142.77 183.76 143.45 183.16 L 144.21 182.50 C 144.89 181.91 144.96 180.87 144.36 180.18 C 143.76 179.50 142.72 179.43 142.04 180.03 Z M 141.32 180.70 L 140.89 181.06 C 140.22 181.64 140.14 182.66 140.72 183.34 C 141.30 184.02 142.32 184.10 143.00 183.52 L 143.42 183.15 C 144.10 182.57 144.18 181.55 143.60 180.88 C 143.02 180.20 142.00 180.12 141.32 180.70 Z"
      fill="black"
      fill-rule="nonzero" /><path d="M 162.10 171.13 L 163.02 170.75 C 163.92 170.38 164.35 169.36 163.98 168.46 C 163.61 167.56 162.58 167.13 161.68 167.50 L 160.76 167.88 C 159.87 168.25 159.44 169.28 159.81 170.18 C 160.18 171.07 161.21 171.50 162.10 171.13 Z M 162.57 171.00 L 163.54 170.88 C 164.57 170.76 165.31 169.82 165.19 168.79 C 165.06 167.76 164.13 167.02 163.10 167.15 L 162.13 167.26 C 161.10 167.38 160.36 168.32 160.48 169.35 C 160.61 170.38 161.54 171.12 162.57 171.00 Z M 162.83 170.91 L 163.64 171.12 C 164.69 171.39 165.76 170.77 166.03 169.72 C 166.30 168.67 165.67 167.60 164.63 167.33 L 163.81 167.12 C 162.77 166.84 161.70 167.47 161.42 168.52 C 161.15 169.57 161.78 170.64 162.83 170.91 Z M 163.18 170.98 L 164.10 171.48 C 165.07 172.00 166.28 171.65 166.81 170.68 C 167.33 169.71 166.97 168.50 166.01 167.97 L 165.09 167.47 C 164.12 166.95 162.90 167.30 162.38 168.27 C 161.85 169.24 162.21 170.45 163.18 170.98 Z M 163.85 171.35 L 164.74 172.01 C 165.64 172.68 166.90 172.49 167.57 171.59 C 168.24 170.69 168.05 169.42 167.15 168.76 L 166.26 168.10 C 165.36 167.43 164.09 167.62 163.43 168.52 C 162.76 169.42 162.95 170.69 163.85 171.35 Z M 164.62 171.93 L 165.40 172.60 C 166.26 173.33 167.55 173.23 168.28 172.37 C 169.01 171.51 168.90 170.23 168.05 169.50 L 167.26 168.83 C 166.41 168.10 165.12 168.20 164.39 169.06 C 163.66 169.92 163.76 171.20 164.62 171.93 Z M 165.35 172.56 L 166.12 173.26 C 166.96 174.02 168.25 173.96 169.01 173.13 C 169.77 172.29 169.71 171.00 168.87 170.24 L 168.10 169.54 C 167.27 168.78 165.97 168.84 165.21 169.67 C 164.45 170.51 164.51 171.80 165.35 172.56 Z M 166.09 173.24 L 166.80 173.91 C 167.62 174.69 168.92 174.65 169.70 173.82 C 170.47 173.00 170.43 171.70 169.61 170.93 L 168.90 170.26 C 168.08 169.48 166.78 169.52 166.01 170.35 C 165.23 171.17 165.27 172.47 166.09 173.24 Z M 166.79 173.91 L 167.56 174.63 C 168.38 175.41 169.68 175.38 170.46 174.55 C 171.24 173.73 171.20 172.43 170.38 171.65 L 169.62 170.93 C 168.79 170.15 167.49 170.18 166.71 171.01 C 165.93 171.83 165.97 173.13 166.79 173.91 Z M 167.56 174.64 L 168.25 175.29 C 169.08 176.06 170.38 176.02 171.16 175.19 C 171.93 174.36 171.89 173.06 171.06 172.29 L 170.37 171.64 C 169.54 170.87 168.24 170.91 167.47 171.74 C 166.69 172.57 166.73 173.87 167.56 174.64 Z M 168.27 175.30 L 168.97 175.95 C 169.80 176.72 171.10 176.66 171.87 175.82 C 172.64 174.99 172.59 173.69 171.75 172.92 L 171.05 172.27 C 170.21 171.51 168.91 171.56 168.14 172.40 C 167.38 173.23 167.43 174.53 168.27 175.30 Z M 168.98 175.96 L 169.67 176.58 C 170.51 177.34 171.81 177.27 172.57 176.43 C 173.33 175.59 173.27 174.29 172.42 173.53 L 171.74 172.91 C 170.89 172.15 169.59 172.21 168.83 173.06 C 168.07 173.90 168.14 175.20 168.98 175.96 Z M 169.68 176.60 L 170.45 177.27 C 171.30 178.02 172.60 177.94 173.35 177.09 C 174.10 176.24 174.02 174.94 173.17 174.18 L 172.41 173.51 C 171.55 172.76 170.25 172.84 169.50 173.69 C 168.75 174.54 168.83 175.84 169.68 176.60 Z M 170.47 177.29 L 171.29 177.99 C 172.15 178.72 173.45 178.62 174.19 177.76 C 174.93 176.89 174.82 175.59 173.96 174.86 L 173.15 174.16 C 172.28 173.42 170.98 173.53 170.24 174.39 C 169.51 175.26 169.61 176.56 170.47 177.29 Z M 171.32 178.02 L 172.11 178.66 C 172.99 179.38 174.28 179.25 175.00 178.37 C 175.72 177.48 175.59 176.19 174.71 175.47 L 173.93 174.83 C 173.05 174.11 171.75 174.24 171.03 175.12 C 170.31 176.00 170.44 177.30 171.32 178.02 Z M 172.15 178.69 L 172.94 179.30 C 173.83 180.00 175.13 179.84 175.82 178.94 C 176.52 178.04 176.36 176.75 175.46 176.05 L 174.67 175.44 C 173.78 174.74 172.48 174.90 171.79 175.80 C 171.09 176.70 171.25 177.99 172.15 178.69 Z M 172.98 179.33 L 173.78 179.93 C 174.70 180.60 175.98 180.40 176.66 179.49 C 177.33 178.58 177.14 177.29 176.22 176.62 L 175.42 176.02 C 174.51 175.35 173.22 175.54 172.54 176.46 C 171.87 177.37 172.07 178.66 172.98 179.33 Z M 173.83 179.96 L 174.67 180.54 C 175.60 181.18 176.88 180.95 177.53 180.02 C 178.17 179.09 177.94 177.81 177.01 177.16 L 176.17 176.58 C 175.24 175.94 173.96 176.17 173.32 177.10 C 172.67 178.03 172.90 179.31 173.83 179.96 Z M 174.72 180.57 L 175.60 181.14 C 176.55 181.75 177.82 181.48 178.43 180.53 C 179.05 179.58 178.78 178.31 177.83 177.69 L 176.95 177.13 C 176.00 176.51 174.73 176.78 174.12 177.73 C 173.50 178.68 173.77 179.95 174.72 180.57 Z M 175.66 181.17 L 176.52 181.69 C 177.49 182.27 178.75 181.96 179.33 180.99 C 179.91 180.02 179.60 178.76 178.63 178.18 L 177.77 177.66 C 176.80 177.08 175.54 177.39 174.96 178.36 C 174.37 179.33 174.69 180.59 175.66 181.17 Z M 176.59 181.72 L 177.41 182.17 C 178.40 182.72 179.64 182.35 180.19 181.36 C 180.73 180.37 180.37 179.13 179.38 178.59 L 178.55 178.14 C 177.56 177.60 176.32 177.96 175.78 178.95 C 175.24 179.94 175.60 181.18 176.59 181.72 Z M 177.52 182.22 L 178.50 182.69 C 179.52 183.18 180.73 182.75 181.22 181.73 C 181.70 180.72 181.27 179.50 180.26 179.02 L 179.27 178.54 C 178.26 178.06 177.04 178.49 176.56 179.50 C 176.07 180.52 176.50 181.73 177.52 182.22 Z M 178.63 182.74 L 179.53 183.10 C 180.57 183.51 181.75 183.00 182.17 181.96 C 182.58 180.92 182.07 179.74 181.03 179.33 L 180.13 178.97 C 179.09 178.56 177.91 179.06 177.49 180.11 C 177.08 181.15 177.59 182.33 178.63 182.74 Z M 179.67 183.13 L 180.59 183.42 C 181.65 183.76 182.79 183.17 183.12 182.11 C 183.46 181.05 182.87 179.91 181.81 179.58 L 180.89 179.29 C 179.83 178.95 178.69 179.54 178.36 180.60 C 178.02 181.67 178.61 182.80 179.67 183.13 Z M 180.76 183.46 L 181.74 183.67 C 182.82 183.91 183.89 183.23 184.12 182.15 C 184.36 181.07 183.68 180.00 182.61 179.76 L 181.63 179.55 C 180.55 179.31 179.48 179.99 179.24 181.07 C 179.01 182.15 179.69 183.22 180.76 183.46 Z M 181.94 183.69 L 182.91 183.80 C 184.00 183.93 184.99 183.15 185.11 182.06 C 185.24 180.97 184.46 179.98 183.37 179.86 L 182.40 179.74 C 181.31 179.62 180.32 180.40 180.20 181.49 C 180.07 182.58 180.85 183.56 181.94 183.69 Z M 183.07 183.81 L 184.07 183.84 C 185.16 183.87 186.08 183.02 186.12 181.93 C 186.15 180.83 185.29 179.92 184.20 179.88 L 183.20 179.85 C 182.11 179.82 181.20 180.67 181.16 181.76 C 181.13 182.86 181.98 183.77 183.07 183.81 Z M 184.13 183.84 L 184.72 183.84 C 185.81 183.84 186.69 182.96 186.70 181.87 C 186.70 180.78 185.82 179.89 184.73 179.89 L 184.14 179.89 C 183.05 179.88 182.17 180.76 182.16 181.86 C 182.16 182.95 183.04 183.83 184.13 183.84 Z"
      fill="black"
      fill-rule="nonzero" /></svg>