<svg xmlns="http://www.w3.org/2000/svg" width="300" height="300" viewBox="0 0 300 300">
<path d="M 138.01 119.62 L 136.81 119.70 C 135.81 119.76 135.04 120.63 135.11 121.64 C 135.18 122.64 136.04 123.41 137.05 123.34 L 138.25 123.26 C 139.26 123.20 140.02 122.33 139.95 121.32 C 139.89 120.32 139.02 119.55 138.01 119.62 Z M 136.16 119.86 L 135.49 120.17 C 134.58 120.60 134.18 121.69 134.61 122.60 C 135.03 123.52 136.12 123.92 137.04 123.49 L 137.71 123.18 C 138.62 122.75 139.02 121.66 138.59 120.75 C 138.17 119.83 137.08 119.43 136.16 119.86 Z M 134.52 122.35 L 134.71 123.00 C 135.00 123.97 136.02 124.52 136.98 124.23 C 137.95 123.94 138.50 122.92 138.21 121.96 L 138.02 121.31 C 137.73 120.34 136.71 119.79 135.74 120.08 C 134.78 120.37 134.23 121.39 134.52 122.35 Z M 135.09 123.66 L 135.88 124.58 C 136.53 125.34 137.67 125.43 138.43 124.78 C 139.19 124.13 139.28 122.99 138.63 122.23 L 137.83 121.30 C 137.18 120.54 136.04 120.45 135.28 121.10 C 134.52 121.75 134.44 122.90 135.09 123.66 Z M 135.99 124.67 L 136.71 125.39 C 137.41 126.09 138.54 126.10 139.24 125.40 C 139.94 124.70 139.94 123.57 139.24 122.87 L 138.52 122.14 C 137.82 121.44 136.69 121.44 135.99 122.14 C 135.29 122.84 135.29 123.97 135.99 124.67 Z M 136.74 125.39 L 137.47 126.11 C 138.17 126.79 139.29 126.78 139.97 126.08 C 140.65 125.39 140.64 124.27 139.94 123.59 L 139.21 122.87 C 138.52 122.19 137.40 122.20 136.72 122.90 C 136.04 123.59 136.05 124.71 136.74 125.39 Z M 137.47 126.07 L 138.19 126.79 C 138.87 127.48 139.97 127.48 140.65 126.80 C 141.33 126.13 141.34 125.02 140.66 124.34 L 139.94 123.62 C 139.26 122.94 138.16 122.93 137.48 123.61 C 136.80 124.29 136.79 125.39 137.47 126.07 Z M 138.16 126.72 L 138.86 127.49 C 139.50 128.19 140.58 128.23 141.28 127.59 C 141.98 126.96 142.03 125.87 141.39 125.17 L 140.69 124.41 C 140.05 123.71 138.97 123.66 138.27 124.30 C 137.57 124.94 137.52 126.03 138.16 126.72 Z M 138.82 127.39 L 139.47 128.18 C 140.05 128.90 141.11 129.00 141.83 128.42 C 142.55 127.83 142.65 126.77 142.07 126.05 L 141.42 125.27 C 140.83 124.55 139.78 124.44 139.06 125.03 C 138.34 125.62 138.23 126.68 138.82 127.39 Z M 139.45 128.11 L 140.03 128.87 C 140.58 129.60 141.61 129.74 142.33 129.19 C 143.06 128.65 143.20 127.62 142.65 126.89 L 142.08 126.13 C 141.53 125.40 140.50 125.26 139.78 125.81 C 139.05 126.35 138.91 127.38 139.45 128.11 Z M 140.04 128.84 L 140.24 129.11 C 140.77 129.83 141.79 129.99 142.51 129.46 C 143.22 128.93 143.38 127.91 142.85 127.20 L 142.65 126.92 C 142.12 126.20 141.10 126.05 140.38 126.58 C 139.66 127.11 139.51 128.12 140.04 128.84 Z"
      fill="black"
      fill-rule="nonzero" /><path d="M 130.10 136.99 L 131.12 136.99 C 132.08 136.98 132.85 136.20 132.85 135.24 C 132.84 134.28 132.06 133.51 131.10 133.51 L 130.08 133.52 C 129.12 133.52 128.35 134.30 128.35 135.26 C 128.35 136.22 129.14 137.00 130.10 136.99 Z M 131.17 137.01 L 132.17 136.98 C 133.14 136.95 133.91 136.14 133.88 135.16 C 133.85 134.19 133.03 133.42 132.06 133.45 L 131.05 133.49 C 130.08 133.52 129.31 134.33 129.35 135.31 C 129.38 136.28 130.19 137.04 131.17 137.01 Z M 132.27 137.00 L 133.24 136.91 C 134.22 136.82 134.95 135.95 134.86 134.97 C 134.77 133.98 133.90 133.26 132.91 133.35 L 131.95 133.44 C 130.97 133.52 130.24 134.39 130.33 135.38 C 130.42 136.36 131.29 137.09 132.27 137.00 Z M 133.39 136.90 L 134.32 136.73 C 135.30 136.56 135.95 135.63 135.78 134.65 C 135.61 133.67 134.68 133.02 133.70 133.19 L 132.76 133.36 C 131.79 133.53 131.13 134.47 131.31 135.44 C 131.48 136.42 132.41 137.07 133.39 136.90 Z M 134.46 136.70 L 135.42 136.45 C 136.38 136.20 136.96 135.23 136.71 134.27 C 136.46 133.31 135.48 132.73 134.53 132.98 L 133.56 133.23 C 132.61 133.48 132.03 134.45 132.28 135.41 C 132.52 136.37 133.50 136.95 134.46 136.70 Z M 135.51 136.42 L 136.50 136.11 C 137.44 135.82 137.96 134.81 137.67 133.87 C 137.38 132.93 136.38 132.41 135.43 132.70 L 134.44 133.01 C 133.50 133.31 132.98 134.31 133.27 135.25 C 133.56 136.19 134.56 136.71 135.51 136.42 Z M 136.54 136.09 L 137.47 135.77 C 138.40 135.45 138.90 134.44 138.58 133.51 C 138.26 132.59 137.25 132.09 136.32 132.41 L 135.39 132.72 C 134.46 133.04 133.97 134.05 134.28 134.98 C 134.60 135.91 135.61 136.40 136.54 136.09 Z M 137.50 135.75 L 138.46 135.40 C 139.38 135.07 139.86 134.06 139.52 133.14 C 139.19 132.22 138.18 131.74 137.26 132.08 L 136.30 132.43 C 135.38 132.76 134.90 133.77 135.24 134.69 C 135.57 135.61 136.58 136.08 137.50 135.75 Z M 138.49 135.38 L 139.44 135.02 C 140.35 134.67 140.80 133.65 140.45 132.75 C 140.11 131.84 139.09 131.39 138.18 131.73 L 137.23 132.10 C 136.33 132.44 135.87 133.46 136.22 134.37 C 136.57 135.28 137.58 135.73 138.49 135.38 Z M 139.47 135.00 L 140.44 134.61 C 141.33 134.24 141.77 133.22 141.40 132.32 C 141.04 131.43 140.01 130.99 139.12 131.36 L 138.15 131.75 C 137.25 132.12 136.82 133.14 137.19 134.04 C 137.55 134.93 138.57 135.37 139.47 135.00 Z M 140.47 134.59 L 141.39 134.20 C 142.28 133.82 142.69 132.79 142.31 131.90 C 141.93 131.01 140.90 130.60 140.01 130.98 L 139.09 131.37 C 138.20 131.76 137.79 132.78 138.17 133.67 C 138.55 134.56 139.58 134.97 140.47 134.59 Z M 141.40 134.19 L 142.29 133.80 C 143.17 133.41 143.57 132.37 143.18 131.49 C 142.79 130.61 141.76 130.21 140.88 130.60 L 139.99 130.99 C 139.11 131.38 138.71 132.41 139.10 133.29 C 139.49 134.18 140.52 134.58 141.40 134.19 Z M 142.29 133.79 L 143.17 133.40 C 144.06 133.01 144.46 131.98 144.06 131.10 C 143.67 130.22 142.64 129.82 141.76 130.21 L 140.88 130.60 C 139.99 130.99 139.59 132.02 139.99 132.90 C 140.38 133.79 141.41 134.18 142.29 133.79 Z M 143.17 133.40 L 144.08 133.00 C 144.96 132.61 145.35 131.58 144.96 130.70 C 144.57 129.82 143.54 129.42 142.66 129.81 L 141.76 130.21 C 140.88 130.60 140.48 131.63 140.87 132.51 C 141.26 133.39 142.29 133.79 143.17 133.40 Z M 144.09 132.99 L 145.01 132.58 C 145.89 132.18 146.27 131.15 145.88 130.27 C 145.48 129.39 144.44 129.00 143.57 129.40 L 142.65 129.82 C 141.77 130.22 141.38 131.25 141.78 132.13 C 142.18 133.00 143.21 133.39 144.09 132.99 Z M 145.03 132.57 L 145.97 132.13 C 146.84 131.71 147.21 130.67 146.80 129.80 C 146.39 128.93 145.35 128.56 144.48 128.97 L 143.54 129.41 C 142.67 129.82 142.30 130.86 142.71 131.73 C 143.12 132.61 144.16 132.98 145.03 132.57 Z M 145.99 132.12 L 146.92 131.66 C 147.78 131.24 148.14 130.19 147.72 129.32 C 147.29 128.46 146.24 128.10 145.38 128.52 L 144.45 128.98 C 143.58 129.40 143.23 130.45 143.65 131.32 C 144.08 132.19 145.13 132.54 145.99 132.12 Z M 146.93 131.66 L 147.83 131.21 C 148.70 130.77 149.05 129.72 148.61 128.85 C 148.18 127.99 147.12 127.64 146.26 128.07 L 145.36 128.53 C 144.49 128.96 144.15 130.02 144.58 130.88 C 145.02 131.75 146.07 132.09 146.93 131.66 Z M 147.84 131.22 L 148.79 130.74 C 149.66 130.30 150.01 129.23 149.57 128.36 C 149.13 127.49 148.06 127.14 147.19 127.58 L 146.25 128.07 C 145.37 128.51 145.03 129.57 145.47 130.44 C 145.91 131.31 146.97 131.66 147.84 131.22 Z M 148.76 130.81 L 149.85 130.30 C 150.76 129.88 151.15 128.79 150.72 127.88 C 150.30 126.97 149.21 126.58 148.30 127.00 L 147.22 127.51 C 146.31 127.94 145.92 129.02 146.34 129.93 C 146.77 130.84 147.85 131.24 148.76 130.81 Z M 148.49 130.45 L 148.76 130.54 C 149.75 130.86 150.82 130.32 151.14 129.32 C 151.47 128.33 150.92 127.26 149.93 126.94 L 149.66 126.85 C 148.67 126.53 147.60 127.07 147.27 128.07 C 146.95 129.06 147.50 130.13 148.49 130.45 Z M 147.79 127.59 L 147.17 128.42 C 146.54 129.28 146.72 130.49 147.57 131.12 C 148.43 131.75 149.64 131.57 150.27 130.72 L 150.89 129.89 C 151.52 129.03 151.34 127.83 150.49 127.19 C 149.63 126.56 148.43 126.74 147.79 127.59 Z M 147.13 128.47 L 146.50 129.37 C 145.89 130.25 146.11 131.46 146.98 132.07 C 147.86 132.68 149.07 132.47 149.68 131.59 L 150.31 130.68 C 150.92 129.80 150.71 128.59 149.83 127.98 C 148.95 127.37 147.74 127.59 147.13 128.47 Z M 146.41 129.50 L 145.91 130.34 C 145.37 131.27 145.68 132.47 146.61 133.01 C 147.54 133.55 148.73 133.24 149.28 132.31 L 149.77 131.46 C 150.32 130.54 150.00 129.34 149.07 128.80 C 148.14 128.26 146.95 128.57 146.41 129.50 Z M 145.86 130.41 L 145.37 131.33 C 144.86 132.29 145.22 133.48 146.18 133.99 C 147.14 134.49 148.32 134.13 148.83 133.18 L 149.33 132.25 C 149.83 131.29 149.47 130.11 148.52 129.60 C 147.56 129.09 146.37 129.45 145.86 130.41 Z M 145.35 131.36 L 144.90 132.22 C 144.41 133.19 144.79 134.38 145.76 134.87 C 146.72 135.37 147.91 134.99 148.41 134.02 L 148.85 133.16 C 149.35 132.19 148.97 131.00 148.00 130.50 C 147.03 130.01 145.85 130.39 145.35 131.36 Z M 144.90 132.23 L 144.45 133.11 C 143.95 134.08 144.34 135.27 145.31 135.76 C 146.28 136.26 147.47 135.87 147.96 134.90 L 148.41 134.02 C 148.91 133.05 148.52 131.86 147.55 131.37 C 146.58 130.87 145.39 131.26 144.90 132.23 Z M 144.45 133.11 L 143.98 134.02 C 143.48 134.99 143.86 136.18 144.83 136.68 C 145.80 137.17 146.99 136.79 147.49 135.82 L 147.96 134.91 C 148.46 133.94 148.08 132.75 147.11 132.25 C 146.14 131.75 144.95 132.14 144.45 133.11 Z M 143.99 134.00 L 143.50 134.93 C 142.99 135.90 143.37 137.09 144.33 137.60 C 145.30 138.10 146.49 137.73 147.00 136.76 L 147.48 135.84 C 147.99 134.87 147.62 133.68 146.65 133.17 C 145.69 132.66 144.49 133.04 143.99 134.00 Z M 143.51 134.91 L 143.02 135.83 C 142.50 136.79 142.86 137.99 143.82 138.51 C 144.79 139.02 145.98 138.66 146.50 137.70 L 146.99 136.78 C 147.51 135.82 147.14 134.62 146.18 134.11 C 145.22 133.59 144.02 133.95 143.51 134.91 Z M 143.02 135.82 L 142.55 136.69 C 142.02 137.65 142.38 138.85 143.33 139.37 C 144.29 139.90 145.49 139.54 146.01 138.59 L 146.49 137.71 C 147.01 136.75 146.66 135.55 145.70 135.03 C 144.75 134.51 143.55 134.86 143.02 135.82 Z M 142.55 136.68 L 142.09 137.52 C 141.56 138.48 141.90 139.68 142.86 140.21 C 143.81 140.74 145.02 140.39 145.54 139.44 L 146.01 138.60 C 146.54 137.64 146.19 136.44 145.24 135.91 C 144.28 135.38 143.08 135.73 142.55 136.68 Z M 142.09 137.51 L 141.58 138.42 C 141.05 139.37 141.39 140.58 142.34 141.11 C 143.29 141.64 144.49 141.31 145.03 140.36 L 145.54 139.45 C 146.07 138.50 145.73 137.29 144.78 136.76 C 143.83 136.22 142.63 136.56 142.09 137.51 Z M 141.59 138.40 L 141.12 139.23 C 140.57 140.18 140.90 141.38 141.84 141.93 C 142.79 142.47 144.00 142.14 144.54 141.20 L 145.02 140.37 C 145.56 139.43 145.23 138.22 144.29 137.68 C 143.34 137.13 142.14 137.46 141.59 138.40 Z M 141.13 139.21 L 140.64 140.04 C 140.09 140.97 140.40 142.18 141.34 142.74 C 142.28 143.29 143.49 142.98 144.04 142.04 L 144.53 141.22 C 145.08 140.28 144.77 139.07 143.83 138.52 C 142.89 137.96 141.68 138.27 141.13 139.21 Z M 140.66 140.02 L 140.14 140.87 C 139.58 141.80 139.88 143.02 140.81 143.58 C 141.74 144.14 142.95 143.84 143.52 142.91 L 144.03 142.06 C 144.60 141.13 144.30 139.91 143.36 139.35 C 142.43 138.79 141.22 139.09 140.66 140.02 Z M 140.15 140.85 L 139.61 141.73 C 139.04 142.65 139.33 143.87 140.25 144.44 C 141.18 145.01 142.39 144.73 142.97 143.80 L 143.51 142.93 C 144.08 142.00 143.79 140.78 142.87 140.21 C 141.94 139.64 140.72 139.93 140.15 140.85 Z M 139.62 141.71 L 139.11 142.53 C 138.52 143.45 138.80 144.66 139.72 145.25 C 140.64 145.83 141.86 145.55 142.44 144.63 L 142.96 143.82 C 143.54 142.90 143.26 141.68 142.34 141.10 C 141.42 140.51 140.20 140.79 139.62 141.71 Z M 139.12 142.51 L 138.57 143.35 C 137.98 144.27 138.24 145.49 139.16 146.08 C 140.07 146.67 141.29 146.41 141.89 145.49 L 142.43 144.65 C 143.02 143.73 142.76 142.51 141.84 141.92 C 140.93 141.33 139.71 141.59 139.12 142.51 Z M 138.58 143.34 L 138.02 144.19 C 137.42 145.10 137.67 146.32 138.58 146.92 C 139.49 147.52 140.72 147.27 141.32 146.36 L 141.87 145.51 C 142.47 144.60 142.22 143.38 141.31 142.78 C 140.40 142.18 139.18 142.43 138.58 143.34 Z M 138.03 144.17 L 137.50 144.97 C 136.89 145.87 137.13 147.10 138.03 147.70 C 138.94 148.31 140.16 148.07 140.77 147.17 L 141.31 146.37 C 141.91 145.47 141.67 144.24 140.77 143.64 C 139.87 143.03 138.64 143.27 138.03 144.17 Z M 137.51 144.95 L 136.94 145.78 C 136.32 146.67 136.55 147.90 137.44 148.52 C 138.34 149.14 139.57 148.91 140.19 148.01 L 140.76 147.19 C 141.38 146.29 141.15 145.06 140.25 144.44 C 139.36 143.83 138.13 144.05 137.51 144.95 Z M 136.95 145.76 L 136.35 146.62 C 135.72 147.50 135.93 148.74 136.82 149.36 C 137.71 149.99 138.94 149.78 139.57 148.89 L 140.17 148.03 C 140.80 147.14 140.59 145.91 139.70 145.29 C 138.81 144.66 137.58 144.87 136.95 145.76 Z M 136.36 146.60 L 135.79 147.39 C 135.15 148.27 135.34 149.50 136.22 150.14 C 137.10 150.78 138.34 150.58 138.98 149.70 L 139.55 148.91 C 140.19 148.03 140.00 146.80 139.11 146.16 C 138.23 145.52 137.00 145.71 136.36 146.60 Z M 135.80 147.37 L 135.20 148.17 C 134.55 149.05 134.73 150.28 135.60 150.93 C 136.48 151.58 137.71 151.40 138.36 150.53 L 138.96 149.72 C 139.61 148.85 139.43 147.61 138.56 146.96 C 137.69 146.31 136.45 146.49 135.80 147.37 Z M 135.22 148.15 L 134.60 148.96 C 133.94 149.82 134.11 151.06 134.97 151.72 C 135.84 152.38 137.07 152.22 137.73 151.35 L 138.35 150.55 C 139.01 149.68 138.84 148.44 137.98 147.78 C 137.11 147.12 135.88 147.29 135.22 148.15 Z M 134.62 148.94 L 133.99 149.73 C 133.32 150.59 133.47 151.83 134.33 152.50 C 135.18 153.17 136.42 153.02 137.09 152.17 L 137.72 151.37 C 138.39 150.52 138.24 149.28 137.38 148.61 C 136.53 147.93 135.29 148.08 134.62 148.94 Z M 134.01 149.71 L 133.38 150.50 C 132.70 151.34 132.83 152.58 133.67 153.27 C 134.52 153.95 135.76 153.82 136.44 152.97 L 137.08 152.19 C 137.76 151.34 137.63 150.10 136.78 149.42 C 135.93 148.74 134.69 148.87 134.01 149.71 Z M 133.39 150.48 L 132.76 151.25 C 132.07 152.09 132.18 153.33 133.02 154.02 C 133.86 154.71 135.10 154.59 135.80 153.76 L 136.43 152.99 C 137.12 152.15 137.00 150.91 136.16 150.22 C 135.33 149.52 134.09 149.64 133.39 150.48 Z M 132.77 151.24 L 132.13 152.00 C 131.43 152.83 131.54 154.07 132.37 154.77 C 133.20 155.47 134.44 155.36 135.14 154.53 L 135.78 153.77 C 136.48 152.94 136.38 151.69 135.54 150.99 C 134.71 150.30 133.47 150.40 132.77 151.24 Z M 132.14 151.99 L 131.50 152.74 C 130.79 153.57 130.89 154.81 131.72 155.52 C 132.55 156.22 133.79 156.12 134.49 155.29 L 135.14 154.54 C 135.84 153.71 135.74 152.47 134.91 151.76 C 134.08 151.06 132.84 151.16 132.14 151.99 Z M 131.50 152.74 L 130.85 153.50 C 130.15 154.32 130.24 155.56 131.07 156.27 C 131.89 156.98 133.14 156.88 133.84 156.05 L 134.49 155.30 C 135.19 154.47 135.10 153.23 134.27 152.52 C 133.45 151.82 132.21 151.92 131.50 152.74 Z M 130.85 153.50 L 130.20 154.26 C 129.50 155.09 129.59 156.33 130.42 157.03 C 131.24 157.74 132.48 157.64 133.19 156.82 L 133.84 156.05 C 134.55 155.23 134.45 153.99 133.62 153.28 C 132.80 152.58 131.56 152.67 130.85 153.50 Z M 130.20 154.27 L 129.55 155.03 C 128.85 155.86 128.94 157.10 129.77 157.80 C 130.60 158.50 131.84 158.40 132.54 157.58 L 133.19 156.81 C 133.89 155.98 133.79 154.75 132.97 154.04 C 132.14 153.34 130.90 153.44 130.20 154.27 Z M 129.55 155.04 L 128.90 155.81 C 128.20 156.64 128.31 157.87 129.13 158.57 C 129.96 159.27 131.19 159.16 131.89 158.34 L 132.54 157.57 C 133.24 156.74 133.13 155.51 132.31 154.81 C 131.48 154.11 130.24 154.22 129.55 155.04 Z M 128.90 155.81 L 128.26 156.58 C 127.56 157.41 127.67 158.64 128.49 159.33 C 129.31 160.03 130.55 159.92 131.24 159.10 L 131.89 158.33 C 132.58 157.51 132.48 156.27 131.65 155.58 C 130.83 154.88 129.60 154.99 128.90 155.81 Z M 128.26 156.58 L 127.62 157.34 C 126.92 158.16 127.02 159.39 127.84 160.09 C 128.66 160.78 129.89 160.68 130.59 159.86 L 131.23 159.10 C 131.93 158.28 131.83 157.05 131.01 156.35 C 130.19 155.66 128.96 155.76 128.26 156.58 Z M 127.63 157.34 L 126.98 158.10 C 126.28 158.91 126.37 160.14 127.18 160.84 C 127.99 161.53 129.22 161.44 129.92 160.63 L 130.57 159.87 C 131.27 159.05 131.18 157.83 130.37 157.13 C 129.56 156.43 128.33 156.52 127.63 157.34 Z M 126.99 158.10 L 126.33 158.86 C 125.62 159.67 125.71 160.88 126.51 161.58 C 127.31 162.28 128.53 162.20 129.23 161.40 L 129.90 160.63 C 130.60 159.83 130.52 158.61 129.71 157.91 C 128.91 157.21 127.69 157.29 126.99 158.10 Z M 126.34 158.87 L 125.68 159.62 C 124.98 160.41 125.06 161.62 125.86 162.32 C 126.65 163.02 127.86 162.94 128.56 162.14 L 129.22 161.39 C 129.91 160.60 129.84 159.39 129.04 158.69 C 128.25 157.99 127.04 158.07 126.34 158.87 Z M 125.69 159.63 L 125.05 160.36 C 124.35 161.15 124.44 162.35 125.23 163.05 C 126.02 163.74 127.22 163.66 127.91 162.87 L 128.55 162.13 C 129.24 161.34 129.16 160.14 128.37 159.45 C 127.58 158.76 126.38 158.84 125.69 159.63 Z M 125.05 160.38 L 124.39 161.15 C 123.71 161.93 123.80 163.12 124.59 163.80 C 125.37 164.48 126.56 164.40 127.24 163.61 L 127.90 162.85 C 128.58 162.06 128.50 160.87 127.71 160.19 C 126.92 159.51 125.73 159.60 125.05 160.38 Z M 124.41 161.16 L 123.76 161.92 C 123.09 162.70 123.18 163.88 123.96 164.55 C 124.74 165.22 125.91 165.13 126.58 164.35 L 127.23 163.59 C 127.90 162.81 127.81 161.63 127.03 160.96 C 126.25 160.29 125.08 160.38 124.41 161.16 Z M 123.77 161.93 L 123.13 162.69 C 122.46 163.46 122.55 164.62 123.32 165.28 C 124.09 165.94 125.25 165.86 125.91 165.09 L 126.56 164.33 C 127.23 163.56 127.14 162.40 126.37 161.74 C 125.60 161.08 124.44 161.16 123.77 161.93 Z M 123.15 162.69 L 122.48 163.47 C 121.82 164.23 121.90 165.37 122.65 166.03 C 123.41 166.69 124.55 166.61 125.21 165.85 L 125.89 165.08 C 126.55 164.32 126.47 163.18 125.71 162.52 C 124.96 161.86 123.81 161.94 123.15 162.69 Z M 122.51 163.49 L 121.82 164.26 C 121.17 165.00 121.24 166.13 121.98 166.78 C 122.72 167.43 123.84 167.36 124.49 166.62 L 125.18 165.84 C 125.83 165.10 125.76 163.98 125.02 163.33 C 124.28 162.68 123.16 162.75 122.51 163.49 Z M 121.85 164.29 L 121.20 165.02 C 120.56 165.74 120.63 166.84 121.35 167.48 C 122.07 168.12 123.17 168.05 123.81 167.33 L 124.46 166.60 C 125.10 165.88 125.04 164.77 124.31 164.14 C 123.59 163.50 122.49 163.56 121.85 164.29 Z M 121.23 165.05 L 120.57 165.79 C 119.94 166.50 120.01 167.58 120.71 168.20 C 121.42 168.83 122.50 168.76 123.13 168.06 L 123.79 167.31 C 124.41 166.60 124.35 165.52 123.64 164.90 C 122.93 164.27 121.85 164.34 121.23 165.05 Z M 120.60 165.80 L 119.93 166.55 C 119.31 167.24 119.37 168.30 120.05 168.91 C 120.74 169.53 121.80 169.48 122.42 168.79 L 123.09 168.05 C 123.71 167.36 123.65 166.30 122.97 165.68 C 122.28 165.06 121.22 165.12 120.60 165.80 Z M 120.00 166.52 L 119.34 167.20 C 118.70 167.85 118.72 168.89 119.37 169.53 C 120.02 170.16 121.06 170.14 121.69 169.49 L 122.35 168.82 C 122.99 168.17 122.97 167.13 122.32 166.49 C 121.67 165.86 120.63 165.87 120.00 166.52 Z M 119.42 167.16 L 118.70 167.82 C 118.04 168.42 118.00 169.45 118.60 170.10 C 119.21 170.76 120.23 170.81 120.89 170.20 L 121.61 169.54 C 122.26 168.93 122.31 167.91 121.70 167.25 C 121.10 166.60 120.08 166.55 119.42 167.16 Z M 118.75 167.80 L 117.98 168.46 C 117.32 169.03 117.24 170.04 117.81 170.71 C 118.39 171.38 119.40 171.45 120.06 170.88 L 120.83 170.22 C 121.50 169.65 121.58 168.64 121.00 167.97 C 120.43 167.30 119.42 167.23 118.75 167.80 Z M 118.01 168.46 L 117.70 168.72 C 117.03 169.28 116.95 170.28 117.51 170.95 C 118.07 171.61 119.07 171.70 119.74 171.14 L 120.04 170.88 C 120.71 170.32 120.79 169.32 120.23 168.65 C 119.67 167.99 118.67 167.90 118.01 168.46 Z"
      fill="black"
      fill-rule="nonzero" /><path d="M 137.45 152.65 L 137.69 153.59 C 137.93 154.49 138.84 155.03 139.74 154.80 C 140.64 154.56 141.18 153.65 140.95 152.75 L 140.71 151.81 C 140.47 150.91 139.56 150.37 138.66 150.60 C 137.76 150.84 137.22 151.75 137.45 152.65 Z M 137.60 153.54 L 137.80 154.50 C 138.01 155.45 138.94 156.06 139.90 155.86 C 140.85 155.65 141.46 154.72 141.25 153.76 L 141.05 152.80 C 140.84 151.85 139.91 151.24 138.95 151.44 C 138.00 151.65 137.39 152.59 137.60 153.54 Z M 137.70 154.37 L 137.83 155.38 C 137.96 156.39 138.89 157.10 139.90 156.97 C 140.91 156.84 141.62 155.91 141.49 154.90 L 141.36 153.89 C 141.23 152.88 140.30 152.17 139.29 152.30 C 138.28 152.43 137.56 153.36 137.70 154.37 Z M 137.75 155.18 L 137.77 156.20 C 137.80 157.26 138.67 158.09 139.73 158.07 C 140.78 158.04 141.61 157.17 141.59 156.12 L 141.57 155.10 C 141.54 154.04 140.67 153.21 139.62 153.23 C 138.56 153.26 137.73 154.13 137.75 155.18 Z M 137.76 156.03 L 137.69 157.05 C 137.62 158.11 138.43 159.03 139.49 159.10 C 140.55 159.17 141.47 158.36 141.54 157.30 L 141.61 156.28 C 141.68 155.22 140.87 154.30 139.81 154.23 C 138.74 154.17 137.83 154.97 137.76 156.03 Z M 137.70 156.95 L 137.58 157.96 C 137.45 159.02 138.21 159.98 139.27 160.11 C 140.33 160.23 141.29 159.48 141.41 158.42 L 141.53 157.40 C 141.66 156.34 140.90 155.38 139.84 155.26 C 138.78 155.13 137.82 155.89 137.70 156.95 Z M 137.58 157.91 L 137.44 158.88 C 137.29 159.94 138.02 160.92 139.08 161.08 C 140.13 161.23 141.12 160.50 141.27 159.44 L 141.41 158.47 C 141.56 157.41 140.83 156.43 139.77 156.28 C 138.72 156.12 137.74 156.85 137.58 157.91 Z M 137.44 158.88 L 137.29 159.90 C 137.13 160.95 137.86 161.94 138.92 162.09 C 139.98 162.25 140.96 161.52 141.12 160.46 L 141.27 159.44 C 141.43 158.39 140.70 157.40 139.64 157.24 C 138.58 157.09 137.60 157.82 137.44 158.88 Z M 137.29 159.91 L 137.15 160.88 C 137.00 161.94 137.73 162.92 138.79 163.07 C 139.85 163.22 140.84 162.49 140.99 161.43 L 141.12 160.45 C 141.27 159.39 140.54 158.41 139.48 158.26 C 138.42 158.11 137.44 158.85 137.29 159.91 Z M 137.14 160.89 L 137.01 161.85 C 136.87 162.91 137.61 163.89 138.67 164.04 C 139.73 164.18 140.71 163.44 140.86 162.38 L 140.99 161.42 C 141.13 160.36 140.39 159.38 139.33 159.23 C 138.27 159.09 137.29 159.83 137.14 160.89 Z M 137.01 161.86 L 136.88 162.81 C 136.74 163.87 137.48 164.85 138.55 164.99 C 139.61 165.13 140.59 164.39 140.73 163.33 L 140.86 162.37 C 141.00 161.31 140.26 160.34 139.19 160.19 C 138.13 160.05 137.16 160.79 137.01 161.86 Z M 136.88 162.81 L 136.75 163.78 C 136.61 164.84 137.36 165.82 138.42 165.96 C 139.48 166.10 140.46 165.36 140.60 164.30 L 140.73 163.32 C 140.87 162.26 140.13 161.29 139.06 161.14 C 138.00 161.00 137.03 161.75 136.88 162.81 Z M 136.75 163.78 L 136.62 164.80 C 136.48 165.86 137.23 166.83 138.29 166.97 C 139.35 167.11 140.32 166.37 140.46 165.31 L 140.60 164.29 C 140.74 163.23 139.99 162.26 138.93 162.12 C 137.87 161.98 136.89 162.72 136.75 163.78 Z M 136.62 164.80 L 136.49 165.83 C 136.35 166.89 137.09 167.86 138.16 168.00 C 139.22 168.14 140.19 167.39 140.33 166.33 L 140.46 165.30 C 140.60 164.24 139.86 163.27 138.79 163.13 C 137.73 162.99 136.76 163.74 136.62 164.80 Z M 136.49 165.83 L 136.36 166.80 C 136.22 167.86 136.97 168.83 138.03 168.97 C 139.10 169.11 140.07 168.36 140.20 167.30 L 140.33 166.32 C 140.47 165.26 139.72 164.29 138.66 164.16 C 137.59 164.02 136.62 164.77 136.49 165.83 Z M 136.36 166.81 L 136.24 167.79 C 136.10 168.85 136.85 169.82 137.91 169.95 C 138.97 170.09 139.94 169.34 140.08 168.28 L 140.20 167.29 C 140.34 166.23 139.59 165.26 138.53 165.13 C 137.47 164.99 136.50 165.75 136.36 166.81 Z M 136.24 167.79 L 136.11 168.80 C 135.98 169.86 136.73 170.82 137.79 170.95 C 138.85 171.09 139.82 170.33 139.95 169.27 L 140.08 168.27 C 140.21 167.21 139.46 166.25 138.40 166.11 C 137.34 165.98 136.37 166.73 136.24 167.79 Z M 136.12 168.80 L 135.99 169.80 C 135.86 170.86 136.62 171.83 137.68 171.96 C 138.73 172.09 139.70 171.33 139.83 170.27 L 139.95 169.27 C 140.08 168.21 139.33 167.25 138.27 167.12 C 137.21 166.99 136.24 167.74 136.12 168.80 Z M 135.99 169.81 L 135.88 170.79 C 135.75 171.84 136.50 172.80 137.56 172.93 C 138.62 173.06 139.58 172.31 139.71 171.25 L 139.83 170.27 C 139.95 169.21 139.20 168.25 138.14 168.12 C 137.08 167.99 136.12 168.75 135.99 169.81 Z M 135.88 170.78 L 135.76 171.78 C 135.63 172.84 136.38 173.80 137.44 173.93 C 138.49 174.05 139.46 173.30 139.58 172.24 L 139.71 171.25 C 139.83 170.19 139.08 169.23 138.02 169.10 C 136.97 168.97 136.01 169.73 135.88 170.78 Z M 135.76 171.77 L 135.63 172.78 C 135.50 173.83 136.25 174.80 137.31 174.93 C 138.36 175.06 139.33 174.31 139.46 173.25 L 139.58 172.25 C 139.71 171.19 138.96 170.23 137.91 170.10 C 136.85 169.97 135.89 170.72 135.76 171.77 Z M 135.64 172.77 L 135.51 173.78 C 135.37 174.83 136.12 175.80 137.17 175.93 C 138.23 176.07 139.19 175.32 139.33 174.27 L 139.45 173.26 C 139.59 172.21 138.84 171.24 137.79 171.11 C 136.74 170.97 135.77 171.72 135.64 172.77 Z M 135.51 173.77 L 135.38 174.77 C 135.24 175.82 135.98 176.79 137.03 176.93 C 138.08 177.07 139.05 176.33 139.19 175.28 L 139.32 174.28 C 139.46 173.22 138.72 172.26 137.67 172.12 C 136.62 171.98 135.65 172.72 135.51 173.77 Z M 135.38 174.76 L 135.25 175.76 C 135.10 176.81 135.83 177.78 136.88 177.92 C 137.93 178.06 138.90 177.33 139.05 176.28 L 139.18 175.29 C 139.33 174.24 138.59 173.27 137.55 173.12 C 136.50 172.98 135.53 173.71 135.38 174.76 Z M 135.25 175.75 L 135.11 176.74 C 134.96 177.78 135.69 178.75 136.74 178.90 C 137.79 179.05 138.76 178.32 138.91 177.27 L 139.04 176.29 C 139.19 175.24 138.46 174.27 137.41 174.12 C 136.37 173.97 135.40 174.70 135.25 175.75 Z M 135.11 176.73 L 134.97 177.72 C 134.82 178.77 135.55 179.73 136.60 179.88 C 137.64 180.03 138.61 179.31 138.76 178.26 L 138.90 177.27 C 139.05 176.23 138.32 175.26 137.28 175.11 C 136.23 174.96 135.26 175.69 135.11 176.73 Z M 134.98 177.72 L 134.83 178.74 C 134.68 179.78 135.40 180.75 136.45 180.90 C 137.49 181.05 138.46 180.33 138.61 179.28 L 138.76 178.26 C 138.91 177.22 138.18 176.25 137.14 176.10 C 136.10 175.95 135.13 176.67 134.98 177.72 Z M 134.83 178.74 L 134.69 179.73 C 134.54 180.77 135.26 181.74 136.30 181.89 C 137.34 182.04 138.31 181.32 138.46 180.28 L 138.60 179.28 C 138.76 178.24 138.03 177.28 136.99 177.13 C 135.95 176.97 134.99 177.69 134.83 178.74 Z M 134.69 179.73 L 134.55 180.70 C 134.40 181.74 135.12 182.70 136.16 182.85 C 137.20 183.00 138.16 182.29 138.31 181.25 L 138.45 180.28 C 138.61 179.24 137.89 178.28 136.85 178.13 C 135.81 177.97 134.85 178.69 134.69 179.73 Z M 134.56 180.70 L 134.42 181.64 C 134.27 182.68 134.99 183.64 136.02 183.79 C 137.06 183.94 138.02 183.23 138.17 182.19 L 138.31 181.25 C 138.46 180.21 137.74 179.25 136.71 179.10 C 135.67 178.95 134.71 179.67 134.56 180.70 Z M 134.43 181.64 L 134.29 182.58 C 134.14 183.61 134.85 184.57 135.88 184.72 C 136.91 184.87 137.87 184.16 138.02 183.13 L 138.16 182.19 C 138.31 181.16 137.60 180.20 136.57 180.05 C 135.54 179.90 134.58 180.61 134.43 181.64 Z M 134.30 182.58 L 134.16 183.54 C 134.00 184.57 134.71 185.52 135.74 185.68 C 136.76 185.83 137.72 185.12 137.87 184.10 L 138.01 183.13 C 138.17 182.10 137.46 181.15 136.43 181.00 C 135.41 180.84 134.45 181.55 134.30 182.58 Z M 134.17 183.54 L 134.01 184.58 C 133.85 185.60 134.55 186.56 135.57 186.71 C 136.59 186.87 137.54 186.17 137.70 185.15 L 137.86 184.10 C 138.02 183.08 137.32 182.13 136.30 181.97 C 135.28 181.82 134.32 182.52 134.17 183.54 Z M 134.02 184.58 L 133.86 185.60 C 133.70 186.62 134.39 187.57 135.40 187.73 C 136.42 187.89 137.37 187.19 137.53 186.18 L 137.69 185.15 C 137.85 184.14 137.16 183.19 136.14 183.03 C 135.13 182.87 134.18 183.56 134.02 184.58 Z M 133.87 185.60 L 133.70 186.63 C 133.54 187.63 134.23 188.58 135.24 188.74 C 136.24 188.90 137.19 188.22 137.35 187.21 L 137.51 186.18 C 137.68 185.18 136.99 184.23 135.98 184.07 C 134.98 183.91 134.03 184.59 133.87 185.60 Z M 133.72 186.63 L 133.55 187.66 C 133.39 188.66 134.07 189.60 135.07 189.76 C 136.07 189.92 137.01 189.24 137.17 188.24 L 137.34 187.21 C 137.50 186.21 136.82 185.27 135.82 185.11 C 134.82 184.95 133.88 185.63 133.72 186.63 Z M 133.56 187.67 L 133.41 188.65 C 133.25 189.64 133.93 190.57 134.92 190.73 C 135.91 190.89 136.85 190.21 137.00 189.22 L 137.16 188.24 C 137.32 187.24 136.64 186.31 135.65 186.15 C 134.65 186.00 133.72 186.67 133.56 187.67 Z M 133.42 188.66 L 133.27 189.64 C 133.12 190.62 133.80 191.54 134.78 191.70 C 135.76 191.85 136.69 191.17 136.84 190.19 L 136.99 189.21 C 137.14 188.22 136.47 187.30 135.48 187.15 C 134.50 187.00 133.58 187.67 133.42 188.66 Z M 133.30 189.66 L 133.14 190.77 C 133.00 191.74 133.67 192.64 134.64 192.78 C 135.61 192.92 136.51 192.24 136.65 191.28 L 136.81 190.17 C 136.95 189.20 136.28 188.30 135.31 188.16 C 134.34 188.02 133.44 188.69 133.30 189.66 Z M 133.19 190.80 L 133.07 191.69 C 132.94 192.64 133.61 193.50 134.55 193.63 C 135.49 193.75 136.36 193.09 136.48 192.15 L 136.60 191.25 C 136.73 190.31 136.06 189.44 135.12 189.32 C 134.18 189.19 133.31 189.86 133.19 190.80 Z M 133.10 191.71 L 133.04 192.17 C 132.93 193.09 133.58 193.94 134.50 194.05 C 135.43 194.17 136.27 193.52 136.39 192.59 L 136.45 192.13 C 136.57 191.21 135.91 190.37 134.99 190.25 C 134.06 190.13 133.22 190.79 133.10 191.71 Z"
      fill="black"
      fill-rule="nonzero" /><path d="M 142.39 150.15 L 141.58 149.20 C 140.92 148.41 139.74 148.32 138.96 148.98 C 138.17 149.65 138.08 150.82 138.74 151.61 L 139.55 152.56 C 140.22 153.35 141.40 153.44 142.18 152.78 C 142.96 152.11 143.06 150.93 142.39 150.15 Z M 141.74 151.57 L 141.83 151.44 C 142.48 150.57 142.30 149.34 141.43 148.70 C 140.56 148.05 139.33 148.23 138.68 149.10 L 138.59 149.23 C 137.94 150.10 138.12 151.33 138.99 151.98 C 139.86 152.62 141.09 152.44 141.74 151.57 Z M 139.15 151.95 L 140.10 152.58 C 141.03 153.19 142.28 152.93 142.89 152.00 C 143.50 151.07 143.24 149.83 142.31 149.22 L 141.36 148.59 C 140.43 147.98 139.19 148.24 138.58 149.17 C 137.97 150.10 138.23 151.34 139.15 151.95 Z M 140.13 152.60 L 141.06 153.20 C 142.01 153.79 143.26 153.51 143.85 152.57 C 144.45 151.63 144.17 150.38 143.23 149.78 L 142.29 149.19 C 141.35 148.59 140.10 148.87 139.50 149.81 C 138.90 150.76 139.18 152.01 140.13 152.60 Z M 141.16 153.26 L 142.02 153.74 C 143.00 154.28 144.23 153.94 144.77 152.96 C 145.32 151.98 144.97 150.75 144.00 150.21 L 143.13 149.72 C 142.16 149.18 140.92 149.53 140.38 150.50 C 139.83 151.48 140.18 152.71 141.16 153.26 Z M 142.10 153.78 L 142.96 154.21 C 143.95 154.71 145.17 154.31 145.67 153.32 C 146.17 152.32 145.77 151.10 144.78 150.60 L 143.92 150.17 C 142.92 149.67 141.71 150.07 141.20 151.06 C 140.70 152.06 141.10 153.27 142.10 153.78 Z M 143.01 154.23 L 143.88 154.64 C 144.89 155.11 146.09 154.68 146.56 153.67 C 147.03 152.66 146.60 151.46 145.59 150.99 L 144.72 150.58 C 143.72 150.11 142.52 150.54 142.04 151.55 C 141.57 152.56 142.01 153.76 143.01 154.23 Z M 143.92 154.65 L 144.89 155.08 C 145.90 155.53 147.08 155.08 147.54 154.06 C 147.99 153.05 147.54 151.87 146.52 151.42 L 145.56 150.98 C 144.55 150.53 143.36 150.98 142.91 152.00 C 142.46 153.01 142.91 154.19 143.92 154.65 Z M 144.91 155.07 L 145.77 155.45 C 146.78 155.89 147.96 155.43 148.39 154.42 C 148.83 153.41 148.37 152.23 147.36 151.79 L 146.50 151.42 C 145.49 150.98 144.32 151.44 143.88 152.45 C 143.44 153.46 143.90 154.63 144.91 155.07 Z M 145.80 155.44 L 146.70 155.82 C 147.71 156.24 148.87 155.77 149.29 154.77 C 149.71 153.76 149.24 152.61 148.24 152.18 L 147.33 151.80 C 146.33 151.38 145.17 151.85 144.75 152.86 C 144.33 153.86 144.80 155.02 145.80 155.44 Z M 146.74 155.82 L 147.71 156.21 C 148.72 156.61 149.85 156.12 150.26 155.12 C 150.66 154.12 150.17 152.98 149.17 152.58 L 148.20 152.19 C 147.20 151.79 146.06 152.27 145.66 153.27 C 145.25 154.27 145.74 155.41 146.74 155.82 Z M 147.76 156.19 L 148.72 156.56 C 149.72 156.93 150.83 156.43 151.20 155.44 C 151.58 154.44 151.08 153.33 150.08 152.95 L 149.12 152.59 C 148.13 152.22 147.02 152.72 146.64 153.71 C 146.27 154.71 146.77 155.82 147.76 156.19 Z M 148.77 156.52 L 149.69 156.85 C 150.67 157.20 151.74 156.69 152.09 155.72 C 152.44 154.74 151.93 153.67 150.96 153.32 L 150.04 152.99 C 149.06 152.64 147.99 153.15 147.64 154.12 C 147.29 155.10 147.79 156.17 148.77 156.52 Z M 149.73 156.80 L 150.68 157.13 C 151.63 157.46 152.66 156.96 152.99 156.01 C 153.32 155.06 152.82 154.03 151.87 153.70 L 150.92 153.37 C 149.97 153.04 148.94 153.54 148.61 154.49 C 148.28 155.44 148.78 156.47 149.73 156.80 Z M 150.71 157.08 L 151.68 157.41 C 152.60 157.72 153.60 157.23 153.91 156.31 C 154.22 155.39 153.73 154.39 152.81 154.08 L 151.84 153.75 C 150.92 153.44 149.93 153.93 149.61 154.85 C 149.30 155.77 149.79 156.77 150.71 157.08 Z M 151.70 157.36 L 152.19 157.53 C 153.08 157.83 154.05 157.35 154.35 156.45 C 154.66 155.56 154.18 154.59 153.28 154.29 L 152.79 154.12 C 151.90 153.82 150.93 154.30 150.63 155.20 C 150.32 156.09 150.80 157.06 151.70 157.36 Z"
      fill="black"
      fill-rule="nonzero" /><path d="M 163.02 119.49 L 163.09 120.47 C 163.16 121.48 164.04 122.24 165.05 122.17 C 166.07 122.10 166.83 121.22 166.76 120.20 L 166.69 119.23 C 166.61 118.21 165.74 117.45 164.72 117.52 C 163.71 117.60 162.95 118.48 163.02 119.49 Z M 163.10 120.26 L 163.06 121.26 C 163.01 122.27 163.80 123.12 164.80 123.16 C 165.81 123.21 166.66 122.43 166.70 121.42 L 166.75 120.41 C 166.79 119.41 166.01 118.55 165.00 118.51 C 163.99 118.47 163.14 119.25 163.10 120.26 Z M 163.11 120.94 L 162.90 121.87 C 162.68 122.84 163.29 123.82 164.27 124.04 C 165.25 124.26 166.22 123.65 166.44 122.67 L 166.65 121.74 C 166.87 120.76 166.26 119.79 165.28 119.57 C 164.30 119.35 163.33 119.96 163.11 120.94 Z M 162.97 121.64 L 162.62 122.58 C 162.28 123.52 162.77 124.56 163.71 124.91 C 164.65 125.25 165.69 124.77 166.03 123.82 L 166.38 122.89 C 166.72 121.95 166.24 120.90 165.29 120.56 C 164.35 120.22 163.31 120.70 162.97 121.64 Z M 162.66 122.48 L 162.25 123.44 C 161.85 124.36 162.27 125.43 163.19 125.82 C 164.11 126.22 165.18 125.80 165.58 124.88 L 165.99 123.92 C 166.39 123.00 165.97 121.94 165.05 121.54 C 164.13 121.14 163.06 121.56 162.66 122.48 Z M 162.26 123.41 L 161.90 124.21 C 161.48 125.12 161.88 126.20 162.80 126.62 C 163.71 127.03 164.78 126.63 165.20 125.72 L 165.57 124.91 C 165.98 124.00 165.58 122.92 164.67 122.51 C 163.76 122.09 162.68 122.49 162.26 123.41 Z M 161.90 124.19 L 161.49 125.07 C 161.06 125.98 161.45 127.06 162.36 127.49 C 163.27 127.92 164.35 127.53 164.78 126.62 L 165.19 125.74 C 165.62 124.83 165.23 123.75 164.32 123.32 C 163.41 122.89 162.33 123.28 161.90 124.19 Z M 161.50 125.06 L 161.02 126.05 C 160.58 126.96 160.96 128.04 161.87 128.48 C 162.78 128.91 163.86 128.53 164.30 127.63 L 164.77 126.63 C 165.21 125.73 164.83 124.64 163.92 124.21 C 163.02 123.77 161.93 124.15 161.50 125.06 Z M 161.02 126.04 L 160.58 126.93 C 160.14 127.83 160.52 128.92 161.42 129.37 C 162.33 129.81 163.42 129.43 163.86 128.53 L 164.30 127.64 C 164.74 126.73 164.36 125.64 163.46 125.20 C 162.55 124.76 161.46 125.13 161.02 126.04 Z M 160.58 126.92 L 160.15 127.78 C 159.70 128.69 160.08 129.79 160.99 130.23 C 161.89 130.68 162.99 130.31 163.44 129.40 L 163.87 128.54 C 164.32 127.63 163.94 126.53 163.04 126.08 C 162.13 125.63 161.03 126.01 160.58 126.92 Z M 160.15 127.77 L 159.69 128.67 C 159.24 129.58 159.61 130.69 160.52 131.15 C 161.43 131.60 162.54 131.23 163.00 130.32 L 163.45 129.41 C 163.90 128.50 163.53 127.39 162.62 126.94 C 161.71 126.48 160.60 126.85 160.15 127.77 Z M 159.69 128.66 L 159.22 129.59 C 158.76 130.50 159.12 131.62 160.04 132.08 C 160.95 132.55 162.07 132.18 162.53 131.26 L 163.00 130.33 C 163.46 129.42 163.10 128.30 162.18 127.84 C 161.27 127.38 160.15 127.74 159.69 128.66 Z M 159.21 129.58 L 158.74 130.51 C 158.27 131.43 158.63 132.55 159.55 133.02 C 160.47 133.49 161.59 133.13 162.06 132.21 L 162.54 131.28 C 163.01 130.36 162.64 129.23 161.73 128.76 C 160.81 128.29 159.68 128.66 159.21 129.58 Z M 158.73 130.50 L 158.22 131.48 C 157.74 132.40 158.10 133.53 159.02 134.01 C 159.95 134.49 161.08 134.13 161.56 133.21 L 162.07 132.22 C 162.54 131.30 162.18 130.17 161.26 129.69 C 160.34 129.21 159.21 129.57 158.73 130.50 Z M 158.22 131.47 L 157.72 132.42 C 157.23 133.35 157.59 134.49 158.51 134.97 C 159.44 135.45 160.58 135.10 161.06 134.17 L 161.56 133.22 C 162.04 132.30 161.69 131.15 160.76 130.67 C 159.84 130.19 158.70 130.54 158.22 131.47 Z M 157.71 132.42 L 157.24 133.31 C 156.75 134.24 157.11 135.38 158.04 135.87 C 158.96 136.36 160.11 136.00 160.60 135.07 L 161.07 134.18 C 161.55 133.25 161.20 132.11 160.27 131.62 C 159.34 131.13 158.20 131.49 157.71 132.42 Z M 157.23 133.31 L 156.81 134.12 C 156.32 135.05 156.68 136.20 157.61 136.69 C 158.54 137.18 159.69 136.82 160.18 135.89 L 160.61 135.07 C 161.10 134.14 160.74 132.99 159.80 132.50 C 158.87 132.01 157.72 132.37 157.23 133.31 Z M 156.79 134.13 L 156.30 135.09 C 155.82 136.03 156.19 137.18 157.13 137.67 C 158.08 138.15 159.23 137.77 159.71 136.83 L 160.20 135.88 C 160.68 134.93 160.31 133.78 159.37 133.30 C 158.42 132.81 157.27 133.19 156.79 134.13 Z M 156.20 135.25 L 155.81 136.26 C 155.42 137.26 155.91 138.38 156.91 138.77 C 157.90 139.16 159.03 138.67 159.42 137.67 L 159.81 136.66 C 160.20 135.67 159.71 134.54 158.71 134.15 C 157.71 133.77 156.59 134.26 156.20 135.25 Z M 155.70 137.39 L 155.84 138.01 C 156.07 139.07 157.12 139.73 158.18 139.49 C 159.23 139.26 159.90 138.21 159.66 137.16 L 159.52 136.54 C 159.29 135.48 158.24 134.82 157.19 135.05 C 156.13 135.29 155.46 136.34 155.70 137.39 Z M 157.04 139.42 L 157.78 139.71 C 158.80 140.11 159.94 139.60 160.34 138.59 C 160.73 137.57 160.23 136.43 159.21 136.03 L 158.46 135.74 C 157.45 135.35 156.31 135.85 155.91 136.87 C 155.52 137.88 156.02 139.03 157.04 139.42 Z M 158.33 139.85 L 159.50 139.94 C 160.59 140.03 161.55 139.22 161.64 138.13 C 161.73 137.04 160.92 136.09 159.83 136.00 L 158.66 135.90 C 157.57 135.81 156.62 136.62 156.53 137.71 C 156.43 138.80 157.24 139.75 158.33 139.85 Z M 159.62 139.95 L 160.66 139.98 C 161.76 140.00 162.67 139.14 162.69 138.04 C 162.72 136.95 161.85 136.04 160.76 136.01 L 159.71 135.99 C 158.62 135.96 157.71 136.83 157.68 137.92 C 157.66 139.02 158.52 139.93 159.62 139.95 Z M 160.69 139.98 L 161.71 139.99 C 162.81 140.00 163.70 139.12 163.71 138.02 C 163.72 136.93 162.84 136.03 161.75 136.02 L 160.73 136.01 C 159.63 136.00 158.74 136.88 158.73 137.98 C 158.71 139.07 159.59 139.97 160.69 139.98 Z M 161.73 139.99 L 162.72 139.99 C 163.82 139.99 164.71 139.11 164.71 138.01 C 164.71 136.91 163.83 136.02 162.73 136.02 L 161.73 136.02 C 160.64 136.02 159.75 136.90 159.75 138.00 C 159.74 139.10 160.63 139.99 161.73 139.99 Z M 162.73 139.99 L 163.72 139.99 C 164.81 139.99 165.70 139.10 165.70 138.00 C 165.69 136.91 164.81 136.02 163.71 136.02 L 162.72 136.02 C 161.63 136.03 160.74 136.91 160.74 138.01 C 160.75 139.10 161.63 139.99 162.73 139.99 Z M 163.74 139.98 L 164.71 139.97 C 165.80 139.95 166.67 139.05 166.66 137.96 C 166.64 136.87 165.74 136.00 164.65 136.01 L 163.68 136.03 C 162.59 136.05 161.72 136.95 161.74 138.04 C 161.75 139.13 162.65 140.00 163.74 139.98 Z M 164.78 139.96 L 165.80 139.91 C 166.88 139.85 167.72 138.93 167.67 137.84 C 167.61 136.76 166.69 135.92 165.60 135.97 L 164.58 136.02 C 163.50 136.08 162.66 137.00 162.71 138.09 C 162.77 139.17 163.69 140.01 164.78 139.96 Z M 165.87 139.89 L 166.84 139.81 C 167.92 139.72 168.72 138.77 168.62 137.69 C 168.53 136.61 167.58 135.81 166.50 135.90 L 165.53 135.99 C 164.45 136.08 163.65 137.03 163.75 138.11 C 163.84 139.19 164.79 139.99 165.87 139.89 Z M 166.89 139.80 L 167.90 139.68 C 168.97 139.55 169.74 138.59 169.62 137.51 C 169.49 136.44 168.52 135.68 167.45 135.80 L 166.44 135.92 C 165.37 136.04 164.60 137.01 164.73 138.08 C 164.85 139.15 165.82 139.92 166.89 139.80 Z M 167.96 139.66 L 168.97 139.51 C 170.04 139.36 170.77 138.37 170.61 137.31 C 170.46 136.25 169.47 135.51 168.41 135.67 L 167.39 135.82 C 166.33 135.97 165.60 136.96 165.75 138.02 C 165.91 139.08 166.90 139.82 167.96 139.66 Z M 169.04 139.48 L 170.05 139.30 C 171.10 139.11 171.79 138.10 171.60 137.05 C 171.41 136.01 170.40 135.32 169.36 135.51 L 168.34 135.70 C 167.30 135.89 166.60 136.89 166.80 137.94 C 166.99 138.99 167.99 139.68 169.04 139.48 Z M 170.12 139.25 L 171.12 139.02 C 172.14 138.79 172.77 137.78 172.54 136.76 C 172.32 135.74 171.30 135.11 170.29 135.34 L 169.29 135.56 C 168.27 135.79 167.63 136.80 167.86 137.82 C 168.09 138.84 169.10 139.48 170.12 139.25 Z M 171.16 138.96 L 172.10 138.72 C 173.09 138.47 173.68 137.46 173.43 136.48 C 173.18 135.49 172.17 134.90 171.19 135.15 L 170.24 135.40 C 169.26 135.65 168.67 136.65 168.92 137.64 C 169.17 138.62 170.18 139.21 171.16 138.96 Z M 172.12 138.68 L 172.72 138.51 C 173.68 138.25 174.25 137.26 173.99 136.30 C 173.73 135.34 172.74 134.77 171.78 135.03 L 171.18 135.20 C 170.22 135.46 169.65 136.44 169.91 137.41 C 170.17 138.37 171.16 138.93 172.12 138.68 Z"
      fill="black"
      fill-rule="nonzero" /><path d="M 162.56 129.22 L 163.53 129.61 C 164.49 129.99 165.57 129.52 165.95 128.56 C 166.33 127.61 165.87 126.52 164.91 126.14 L 163.93 125.75 C 162.98 125.37 161.89 125.84 161.51 126.80 C 161.13 127.75 161.60 128.84 162.56 129.22 Z M 163.69 129.62 L 164.64 129.91 C 165.60 130.21 166.62 129.66 166.92 128.70 C 167.21 127.74 166.67 126.72 165.71 126.42 L 164.76 126.13 C 163.79 125.83 162.77 126.38 162.48 127.34 C 162.18 128.30 162.72 129.32 163.69 129.62 Z M 164.99 129.95 L 165.94 130.05 C 166.93 130.15 167.81 129.43 167.91 128.44 C 168.01 127.46 167.29 126.58 166.30 126.48 L 165.35 126.38 C 164.37 126.28 163.49 127.00 163.39 127.98 C 163.29 128.97 164.00 129.85 164.99 129.95 Z M 166.39 130.02 L 167.37 129.87 C 168.34 129.72 169.00 128.81 168.85 127.84 C 168.70 126.87 167.79 126.20 166.83 126.36 L 165.85 126.51 C 164.88 126.66 164.22 127.57 164.37 128.54 C 164.52 129.50 165.43 130.17 166.39 130.02 Z M 167.59 129.81 L 168.54 129.53 C 169.48 129.26 170.02 128.28 169.74 127.34 C 169.47 126.40 168.49 125.86 167.55 126.14 L 166.60 126.41 C 165.66 126.69 165.12 127.67 165.40 128.61 C 165.67 129.55 166.66 130.08 167.59 129.81 Z M 168.55 129.52 L 169.44 129.26 C 170.37 128.98 170.90 128.00 170.63 127.07 C 170.35 126.14 169.37 125.60 168.44 125.88 L 167.54 126.15 C 166.61 126.42 166.08 127.40 166.36 128.34 C 166.63 129.27 167.61 129.80 168.55 129.52 Z M 169.40 129.26 L 170.39 128.99 C 171.32 128.74 171.88 127.77 171.62 126.84 C 171.37 125.91 170.41 125.36 169.47 125.61 L 168.48 125.88 C 167.54 126.13 166.99 127.10 167.25 128.03 C 167.50 128.96 168.46 129.52 169.40 129.26 Z M 170.34 129.00 L 171.35 128.75 C 172.29 128.52 172.86 127.58 172.64 126.64 C 172.41 125.70 171.46 125.13 170.53 125.36 L 169.52 125.60 C 168.58 125.83 168.01 126.78 168.23 127.71 C 168.46 128.65 169.41 129.22 170.34 129.00 Z M 171.31 128.76 L 172.32 128.54 C 173.26 128.33 173.85 127.40 173.64 126.46 C 173.44 125.52 172.51 124.93 171.57 125.13 L 170.57 125.35 C 169.63 125.56 169.03 126.49 169.24 127.43 C 169.45 128.37 170.37 128.96 171.31 128.76 Z M 172.28 128.54 L 173.27 128.35 C 174.22 128.16 174.83 127.25 174.65 126.30 C 174.46 125.36 173.55 124.75 172.60 124.93 L 171.61 125.13 C 170.67 125.31 170.05 126.22 170.24 127.17 C 170.42 128.11 171.33 128.73 172.28 128.54 Z M 173.21 128.37 L 174.30 128.20 C 175.26 128.05 175.91 127.15 175.76 126.20 C 175.61 125.24 174.72 124.59 173.76 124.74 L 172.67 124.91 C 171.71 125.06 171.06 125.95 171.21 126.91 C 171.36 127.87 172.25 128.52 173.21 128.37 Z M 173.97 128.27 L 174.97 128.30 C 175.96 128.34 176.79 127.56 176.83 126.56 C 176.86 125.57 176.08 124.74 175.09 124.70 L 174.09 124.67 C 173.10 124.64 172.26 125.41 172.23 126.41 C 172.20 127.40 172.98 128.23 173.97 128.27 Z M 173.70 127.81 L 174.20 128.31 C 174.92 129.05 176.10 129.05 176.83 128.33 C 177.56 127.61 177.57 126.44 176.85 125.70 L 176.35 125.20 C 175.63 124.47 174.46 124.46 173.72 125.18 C 172.99 125.90 172.98 127.08 173.70 127.81 Z M 173.63 127.09 L 173.67 128.01 C 173.71 129.06 174.59 129.87 175.64 129.83 C 176.69 129.79 177.51 128.90 177.46 127.85 L 177.43 126.93 C 177.39 125.88 176.50 125.07 175.45 125.11 C 174.40 125.15 173.59 126.04 173.63 127.09 Z M 173.69 127.48 L 173.42 128.61 C 173.17 129.64 173.81 130.69 174.85 130.93 C 175.89 131.18 176.93 130.54 177.18 129.50 L 177.44 128.38 C 177.69 127.34 177.05 126.30 176.01 126.05 C 174.98 125.80 173.93 126.45 173.69 127.48 Z M 173.48 128.34 L 173.17 129.14 C 172.77 130.14 173.26 131.27 174.26 131.67 C 175.27 132.06 176.40 131.57 176.79 130.57 L 177.11 129.77 C 177.51 128.77 177.01 127.64 176.01 127.24 C 175.01 126.85 173.88 127.34 173.48 128.34 Z M 173.23 129.00 L 172.81 129.85 C 172.34 130.81 172.74 131.98 173.70 132.46 C 174.67 132.93 175.84 132.53 176.32 131.57 L 176.73 130.72 C 177.21 129.75 176.81 128.58 175.84 128.10 C 174.87 127.63 173.70 128.03 173.23 129.00 Z M 172.84 129.78 L 172.32 130.75 C 171.81 131.70 172.16 132.88 173.11 133.40 C 174.06 133.91 175.25 133.55 175.76 132.60 L 176.28 131.63 C 176.80 130.68 176.44 129.50 175.49 128.99 C 174.54 128.47 173.36 128.83 172.84 129.78 Z M 172.33 130.73 L 171.83 131.63 C 171.31 132.58 171.66 133.77 172.61 134.29 C 173.55 134.81 174.74 134.46 175.26 133.51 L 175.75 132.62 C 176.27 131.67 175.93 130.48 174.98 129.96 C 174.03 129.44 172.84 129.79 172.33 130.73 Z M 171.83 131.63 L 171.37 132.48 C 170.85 133.43 171.19 134.62 172.14 135.14 C 173.09 135.66 174.28 135.31 174.80 134.36 L 175.26 133.51 C 175.78 132.57 175.43 131.38 174.49 130.86 C 173.54 130.34 172.35 130.69 171.83 131.63 Z M 171.37 132.48 L 170.87 133.38 C 170.35 134.33 170.70 135.52 171.64 136.04 C 172.59 136.56 173.78 136.21 174.30 135.27 L 174.80 134.37 C 175.32 133.42 174.97 132.23 174.02 131.71 C 173.08 131.19 171.89 131.53 171.37 132.48 Z M 170.88 133.37 L 170.37 134.28 C 169.85 135.23 170.19 136.42 171.13 136.94 C 172.07 137.47 173.27 137.13 173.79 136.18 L 174.30 135.27 C 174.82 134.33 174.48 133.14 173.54 132.61 C 172.59 132.09 171.40 132.43 170.88 133.37 Z M 170.38 134.27 L 169.87 135.17 C 169.34 136.11 169.67 137.30 170.61 137.83 C 171.55 138.36 172.75 138.03 173.28 137.09 L 173.78 136.20 C 174.32 135.26 173.98 134.06 173.04 133.53 C 172.10 133.00 170.91 133.33 170.38 134.27 Z M 169.88 135.15 L 169.35 136.07 C 168.81 137.00 169.13 138.20 170.07 138.74 C 171.00 139.28 172.20 138.96 172.74 138.02 L 173.27 137.11 C 173.81 136.17 173.49 134.98 172.55 134.44 C 171.62 133.90 170.42 134.21 169.88 135.15 Z M 169.37 136.05 L 168.84 136.94 C 168.28 137.87 168.59 139.07 169.52 139.62 C 170.45 140.17 171.64 139.86 172.20 138.94 L 172.73 138.04 C 173.28 137.12 172.97 135.92 172.04 135.37 C 171.12 134.81 169.92 135.12 169.37 136.05 Z M 168.85 136.92 L 168.33 137.77 C 167.78 138.69 168.07 139.89 168.99 140.45 C 169.91 141.01 171.11 140.72 171.67 139.79 L 172.18 138.95 C 172.74 138.03 172.45 136.83 171.53 136.27 C 170.61 135.71 169.41 136.00 168.85 136.92 Z M 168.34 137.76 L 167.84 138.58 C 167.28 139.49 167.57 140.69 168.48 141.26 C 169.40 141.82 170.60 141.53 171.17 140.62 L 171.67 139.80 C 172.23 138.88 171.94 137.68 171.02 137.12 C 170.11 136.56 168.91 136.84 168.34 137.76 Z M 167.84 138.58 L 167.34 139.40 C 166.77 140.32 167.06 141.52 167.98 142.08 C 168.89 142.64 170.09 142.36 170.66 141.44 L 171.16 140.62 C 171.73 139.70 171.44 138.50 170.52 137.94 C 169.61 137.37 168.41 137.66 167.84 138.58 Z M 167.34 139.40 L 166.80 140.28 C 166.24 141.20 166.53 142.40 167.44 142.96 C 168.36 143.52 169.55 143.23 170.12 142.32 L 170.65 141.44 C 171.22 140.52 170.93 139.32 170.01 138.76 C 169.10 138.20 167.90 138.49 167.34 139.40 Z M 166.81 140.28 L 166.27 141.15 C 165.71 142.06 165.99 143.25 166.91 143.82 C 167.82 144.38 169.01 144.09 169.58 143.18 L 170.11 142.32 C 170.67 141.41 170.39 140.21 169.48 139.65 C 168.56 139.09 167.37 139.37 166.81 140.28 Z M 166.28 141.14 L 165.76 141.97 C 165.19 142.88 165.47 144.07 166.37 144.64 C 167.28 145.21 168.47 144.93 169.04 144.03 L 169.56 143.19 C 170.13 142.29 169.86 141.09 168.95 140.53 C 168.05 139.96 166.85 140.23 166.28 141.14 Z M 165.78 141.95 L 165.25 142.78 C 164.67 143.67 164.93 144.87 165.82 145.45 C 166.72 146.03 167.91 145.77 168.49 144.87 L 169.02 144.05 C 169.60 143.15 169.34 141.96 168.45 141.38 C 167.55 140.80 166.36 141.06 165.78 141.95 Z M 165.28 142.75 L 164.68 143.64 C 164.08 144.52 164.31 145.71 165.19 146.31 C 166.07 146.90 167.27 146.67 167.86 145.79 L 168.46 144.90 C 169.05 144.02 168.82 142.83 167.94 142.23 C 167.06 141.64 165.87 141.87 165.28 142.75 Z M 164.71 143.61 L 164.14 144.42 C 163.53 145.28 163.73 146.47 164.59 147.08 C 165.45 147.69 166.64 147.49 167.25 146.63 L 167.83 145.82 C 168.43 144.96 168.23 143.77 167.37 143.16 C 166.51 142.55 165.32 142.75 164.71 143.61 Z M 164.17 144.40 L 163.62 145.14 C 163.00 145.98 163.18 147.17 164.02 147.79 C 164.86 148.41 166.05 148.23 166.67 147.39 L 167.22 146.65 C 167.84 145.81 167.66 144.62 166.82 144.00 C 165.98 143.38 164.79 143.56 164.17 144.40 Z M 163.66 145.12 L 163.03 145.93 C 162.40 146.75 162.55 147.93 163.37 148.57 C 164.19 149.20 165.36 149.05 166.00 148.23 L 166.63 147.42 C 167.27 146.60 167.12 145.42 166.30 144.78 C 165.48 144.15 164.30 144.30 163.66 145.12 Z M 163.09 145.90 L 162.46 146.66 C 161.81 147.44 161.91 148.61 162.70 149.26 C 163.48 149.92 164.65 149.81 165.31 149.03 L 165.94 148.27 C 166.59 147.48 166.49 146.31 165.70 145.66 C 164.91 145.01 163.75 145.11 163.09 145.90 Z M 162.54 146.61 L 161.89 147.32 C 161.20 148.06 161.25 149.21 161.99 149.90 C 162.73 150.58 163.89 150.53 164.57 149.79 L 165.23 149.08 C 165.91 148.33 165.86 147.18 165.12 146.50 C 164.38 145.82 163.22 145.86 162.54 146.61 Z M 161.97 147.28 L 161.26 147.98 C 160.55 148.67 160.54 149.80 161.24 150.51 C 161.93 151.22 163.07 151.23 163.77 150.53 L 164.48 149.83 C 165.19 149.14 165.20 148.00 164.51 147.30 C 163.81 146.59 162.68 146.58 161.97 147.28 Z M 161.32 147.97 L 160.59 148.65 C 159.88 149.30 159.84 150.41 160.49 151.13 C 161.15 151.84 162.26 151.88 162.97 151.22 L 163.71 150.54 C 164.42 149.88 164.46 148.77 163.80 148.06 C 163.15 147.35 162.04 147.31 161.32 147.97 Z M 160.62 148.65 L 160.38 148.87 C 159.68 149.51 159.62 150.61 160.27 151.31 C 160.91 152.02 162.00 152.07 162.71 151.43 L 162.95 151.21 C 163.65 150.57 163.70 149.48 163.06 148.77 C 162.42 148.06 161.32 148.01 160.62 148.65 Z"
      fill="black"
      fill-rule="nonzero" /><path d="M 152.23 155.12 L 152.94 154.73 C 153.87 154.22 154.21 153.05 153.70 152.13 C 153.19 151.20 152.03 150.86 151.10 151.37 L 150.38 151.76 C 149.46 152.27 149.12 153.43 149.63 154.36 C 150.13 155.29 151.30 155.63 152.23 155.12 Z M 152.85 154.83 L 153.73 154.43 C 154.71 153.97 155.14 152.79 154.68 151.81 C 154.22 150.82 153.04 150.39 152.05 150.85 L 151.18 151.26 C 150.20 151.72 149.77 152.90 150.23 153.88 C 150.69 154.87 151.87 155.30 152.85 154.83 Z M 153.60 154.54 L 154.73 154.12 C 155.78 153.73 156.32 152.56 155.93 151.51 C 155.53 150.46 154.37 149.93 153.32 150.32 L 152.18 150.74 C 151.13 151.13 150.60 152.30 150.99 153.35 C 151.38 154.40 152.55 154.93 153.60 154.54 Z M 154.64 154.18 L 155.54 153.90 C 156.62 153.56 157.23 152.40 156.89 151.32 C 156.55 150.24 155.39 149.63 154.31 149.97 L 153.41 150.26 C 152.33 150.60 151.72 151.75 152.06 152.83 C 152.40 153.92 153.56 154.52 154.64 154.18 Z M 155.49 153.92 L 156.49 153.63 C 157.58 153.31 158.21 152.17 157.90 151.08 C 157.58 149.99 156.44 149.36 155.35 149.67 L 154.35 149.96 C 153.26 150.27 152.63 151.41 152.94 152.51 C 153.26 153.60 154.40 154.23 155.49 153.92 Z M 156.46 153.64 L 157.49 153.36 C 158.59 153.06 159.23 151.93 158.93 150.83 C 158.63 149.73 157.50 149.08 156.40 149.38 L 155.37 149.66 C 154.27 149.96 153.63 151.09 153.93 152.19 C 154.23 153.29 155.36 153.94 156.46 153.64 Z M 157.47 153.37 L 158.46 153.11 C 159.56 152.82 160.22 151.68 159.93 150.58 C 159.64 149.48 158.50 148.82 157.40 149.11 L 156.41 149.37 C 155.31 149.66 154.65 150.80 154.94 151.90 C 155.24 153.00 156.37 153.66 157.47 153.37 Z M 158.45 153.11 L 159.46 152.85 C 160.57 152.56 161.23 151.43 160.94 150.32 C 160.65 149.21 159.52 148.55 158.41 148.84 L 157.40 149.11 C 156.30 149.40 155.64 150.53 155.93 151.63 C 156.22 152.74 157.35 153.40 158.45 153.11 Z M 159.47 152.85 L 160.56 152.56 C 161.67 152.27 162.33 151.13 162.04 150.03 C 161.75 148.92 160.61 148.26 159.51 148.55 L 158.41 148.84 C 157.30 149.13 156.64 150.27 156.94 151.37 C 157.23 152.48 158.36 153.14 159.47 152.85 Z M 160.56 152.55 L 161.45 152.32 C 162.55 152.03 163.21 150.90 162.92 149.79 C 162.63 148.69 161.50 148.03 160.39 148.32 L 159.51 148.55 C 158.40 148.85 157.74 149.98 158.04 151.08 C 158.33 152.19 159.46 152.85 160.56 152.55 Z M 161.44 152.32 L 162.26 152.11 C 163.37 151.82 164.03 150.70 163.75 149.59 C 163.46 148.49 162.34 147.82 161.23 148.11 L 160.41 148.32 C 159.30 148.61 158.64 149.73 158.92 150.84 C 159.21 151.94 160.33 152.61 161.44 152.32 Z M 162.25 152.11 L 163.20 151.87 C 164.31 151.59 164.98 150.47 164.70 149.37 C 164.43 148.27 163.31 147.60 162.21 147.87 L 161.25 148.11 C 160.14 148.39 159.47 149.50 159.75 150.61 C 160.02 151.71 161.14 152.38 162.25 152.11 Z M 163.21 151.86 L 164.18 151.61 C 165.28 151.34 165.95 150.22 165.67 149.12 C 165.40 148.02 164.28 147.36 163.18 147.63 L 162.20 147.88 C 161.10 148.16 160.44 149.27 160.71 150.37 C 160.99 151.47 162.11 152.14 163.21 151.86 Z M 164.20 151.60 L 165.17 151.35 C 166.27 151.06 166.92 149.94 166.63 148.85 C 166.34 147.75 165.22 147.10 164.13 147.39 L 163.16 147.64 C 162.07 147.93 161.42 149.05 161.70 150.14 C 161.99 151.24 163.11 151.89 164.20 151.60 Z M 165.19 151.34 L 166.16 151.07 C 167.24 150.77 167.88 149.65 167.59 148.57 C 167.29 147.48 166.17 146.84 165.08 147.14 L 164.11 147.40 C 163.03 147.70 162.39 148.82 162.68 149.91 C 162.98 150.99 164.10 151.63 165.19 151.34 Z M 166.16 151.06 L 167.13 150.80 C 168.21 150.50 168.84 149.38 168.55 148.30 C 168.25 147.22 167.13 146.58 166.05 146.88 L 165.08 147.14 C 164.00 147.44 163.36 148.56 163.66 149.64 C 163.96 150.72 165.07 151.36 166.16 151.06 Z M 167.11 150.79 L 168.09 150.53 C 169.16 150.24 169.80 149.13 169.51 148.05 C 169.22 146.97 168.11 146.33 167.03 146.62 L 166.06 146.88 C 164.98 147.18 164.34 148.29 164.63 149.36 C 164.92 150.44 166.04 151.08 167.11 150.79 Z M 168.08 150.52 L 169.04 150.26 C 170.12 149.97 170.76 148.87 170.47 147.79 C 170.18 146.72 169.07 146.08 168.00 146.37 L 167.04 146.63 C 165.96 146.92 165.32 148.02 165.61 149.10 C 165.90 150.17 167.01 150.81 168.08 150.52 Z M 169.05 150.25 L 170.02 149.99 C 171.08 149.69 171.71 148.59 171.42 147.52 C 171.13 146.45 170.02 145.83 168.95 146.12 L 167.99 146.38 C 166.92 146.68 166.29 147.78 166.59 148.85 C 166.88 149.92 167.99 150.54 169.05 150.25 Z M 170.03 149.97 L 171.00 149.70 C 172.06 149.39 172.68 148.29 172.37 147.23 C 172.07 146.17 170.96 145.55 169.90 145.86 L 168.94 146.13 C 167.88 146.44 167.26 147.54 167.57 148.60 C 167.87 149.66 168.97 150.28 170.03 149.97 Z M 171.02 149.68 L 171.97 149.40 C 173.03 149.08 173.63 147.98 173.31 146.93 C 173.00 145.87 171.89 145.28 170.84 145.59 L 169.89 145.87 C 168.84 146.18 168.24 147.29 168.55 148.34 C 168.86 149.39 169.97 149.99 171.02 149.68 Z M 171.99 149.38 L 172.89 149.10 C 173.94 148.78 174.52 147.67 174.20 146.63 C 173.87 145.59 172.77 145.00 171.72 145.33 L 170.82 145.60 C 169.78 145.93 169.20 147.03 169.52 148.08 C 169.84 149.12 170.95 149.70 171.99 149.38 Z M 172.91 149.09 L 173.82 148.80 C 174.85 148.47 175.42 147.36 175.09 146.33 C 174.76 145.29 173.65 144.72 172.62 145.05 L 171.71 145.34 C 170.68 145.67 170.10 146.78 170.43 147.81 C 170.77 148.85 171.87 149.42 172.91 149.09 Z M 173.82 148.78 L 174.84 148.45 C 175.87 148.12 176.43 147.01 176.10 145.99 C 175.76 144.96 174.66 144.40 173.63 144.73 L 172.61 145.06 C 171.58 145.40 171.02 146.50 171.36 147.53 C 171.69 148.56 172.80 149.12 173.82 148.78 Z M 174.84 148.44 L 175.79 148.13 C 176.81 147.79 177.37 146.69 177.03 145.67 C 176.70 144.65 175.60 144.09 174.58 144.43 L 173.63 144.74 C 172.60 145.08 172.05 146.18 172.39 147.20 C 172.72 148.22 173.82 148.78 174.84 148.44 Z M 175.80 148.12 L 176.77 147.79 C 177.79 147.46 178.33 146.36 178.00 145.34 C 177.66 144.33 176.56 143.78 175.55 144.12 L 174.57 144.44 C 173.56 144.78 173.01 145.88 173.35 146.89 C 173.68 147.91 174.78 148.46 175.80 148.12 Z M 176.78 147.78 L 177.75 147.45 C 178.76 147.11 179.30 146.01 178.95 145.00 C 178.61 144.00 177.52 143.46 176.51 143.80 L 175.54 144.13 C 174.53 144.47 173.99 145.57 174.33 146.58 C 174.68 147.58 175.77 148.12 176.78 147.78 Z M 177.77 147.43 L 178.73 147.09 C 179.73 146.74 180.25 145.64 179.90 144.65 C 179.55 143.65 178.46 143.13 177.46 143.48 L 176.49 143.82 C 175.49 144.17 174.97 145.26 175.32 146.26 C 175.67 147.26 176.77 147.78 177.77 147.43 Z M 178.76 147.06 L 179.79 146.68 C 180.78 146.31 181.27 145.22 180.91 144.23 C 180.54 143.25 179.45 142.75 178.47 143.12 L 177.43 143.51 C 176.45 143.87 175.95 144.97 176.32 145.95 C 176.68 146.93 177.78 147.43 178.76 147.06 Z M 179.82 146.64 L 180.68 146.30 C 181.65 145.92 182.12 144.83 181.74 143.87 C 181.36 142.91 180.27 142.43 179.31 142.81 L 178.44 143.15 C 177.48 143.53 177.01 144.62 177.39 145.58 C 177.77 146.55 178.85 147.02 179.82 146.64 Z M 180.69 146.27 L 181.58 145.90 C 182.53 145.52 182.98 144.44 182.60 143.50 C 182.22 142.55 181.14 142.10 180.19 142.48 L 179.30 142.85 C 178.35 143.23 177.90 144.31 178.28 145.25 C 178.67 146.20 179.75 146.65 180.69 146.27 Z M 181.58 145.87 L 182.49 145.50 C 183.41 145.11 183.85 144.05 183.47 143.13 C 183.09 142.20 182.03 141.76 181.10 142.14 L 180.20 142.52 C 179.27 142.90 178.83 143.96 179.21 144.89 C 179.59 145.81 180.66 146.25 181.58 145.87 Z M 182.48 145.47 L 182.79 145.34 C 183.70 144.96 184.14 143.92 183.76 143.00 C 183.38 142.09 182.33 141.66 181.42 142.04 L 181.11 142.17 C 180.19 142.55 179.76 143.59 180.14 144.51 C 180.52 145.42 181.57 145.85 182.48 145.47 Z"
      fill="black"
      fill-rule="nonzero" /><path d="M 162.47 155.76 L 163.22 154.87 C 163.82 154.16 163.72 153.09 163.01 152.49 C 162.29 151.88 161.22 151.98 160.62 152.70 L 159.87 153.59 C 159.27 154.30 159.36 155.37 160.08 155.97 C 160.80 156.58 161.87 156.48 162.47 155.76 Z M 162.02 155.54 L 162.58 155.51 C 163.55 155.45 164.29 154.62 164.24 153.65 C 164.18 152.68 163.35 151.94 162.38 152.00 L 161.82 152.03 C 160.85 152.08 160.11 152.91 160.16 153.88 C 160.22 154.85 161.05 155.60 162.02 155.54 Z M 160.86 154.49 L 161.18 155.19 C 161.59 156.08 162.64 156.48 163.54 156.07 C 164.44 155.66 164.83 154.60 164.42 153.71 L 164.11 153.01 C 163.70 152.12 162.64 151.72 161.74 152.13 C 160.85 152.54 160.45 153.60 160.86 154.49 Z M 161.06 154.85 L 161.34 156.02 C 161.56 156.98 162.52 157.58 163.48 157.35 C 164.44 157.13 165.03 156.17 164.81 155.21 L 164.54 154.04 C 164.31 153.08 163.35 152.49 162.39 152.71 C 161.44 152.93 160.84 153.89 161.06 154.85 Z M 161.32 155.94 L 161.52 157.04 C 161.70 158.01 162.63 158.65 163.60 158.48 C 164.57 158.30 165.21 157.37 165.03 156.40 L 164.83 155.29 C 164.65 154.32 163.72 153.68 162.75 153.86 C 161.78 154.04 161.14 154.97 161.32 155.94 Z M 161.52 157.02 L 161.69 158.01 C 161.85 158.98 162.77 159.63 163.74 159.47 C 164.71 159.31 165.37 158.38 165.20 157.41 L 165.03 156.42 C 164.87 155.45 163.95 154.80 162.98 154.97 C 162.01 155.13 161.36 156.05 161.52 157.02 Z M 161.69 157.99 L 161.85 159.01 C 162.00 159.98 162.92 160.65 163.89 160.49 C 164.86 160.33 165.52 159.42 165.37 158.45 L 165.20 157.43 C 165.05 156.46 164.14 155.80 163.16 155.95 C 162.19 156.11 161.53 157.02 161.69 157.99 Z M 161.85 159.00 L 162.00 160.00 C 162.15 160.97 163.05 161.64 164.03 161.49 C 165.00 161.35 165.67 160.44 165.52 159.47 L 165.37 158.46 C 165.22 157.49 164.31 156.82 163.34 156.97 C 162.37 157.12 161.70 158.02 161.85 159.00 Z M 162.00 159.98 L 162.14 160.99 C 162.28 161.97 163.18 162.64 164.16 162.51 C 165.13 162.37 165.81 161.47 165.67 160.49 L 165.52 159.48 C 165.39 158.51 164.48 157.83 163.51 157.97 C 162.54 158.11 161.86 159.01 162.00 159.98 Z M 162.14 160.98 L 162.27 162.00 C 162.40 162.97 163.30 163.66 164.28 163.53 C 165.25 163.40 165.94 162.50 165.81 161.53 L 165.67 160.51 C 165.54 159.53 164.64 158.85 163.67 158.98 C 162.69 159.11 162.01 160.00 162.14 160.98 Z M 162.27 161.99 L 162.40 162.96 C 162.52 163.93 163.41 164.62 164.39 164.50 C 165.37 164.37 166.06 163.48 165.93 162.50 L 165.81 161.54 C 165.68 160.56 164.79 159.87 163.81 159.99 C 162.84 160.12 162.15 161.01 162.27 161.99 Z M 162.39 162.96 L 162.52 163.92 C 162.65 164.89 163.54 165.58 164.52 165.45 C 165.50 165.33 166.19 164.43 166.06 163.45 L 165.93 162.50 C 165.81 161.52 164.91 160.83 163.93 160.96 C 162.96 161.09 162.27 161.98 162.39 162.96 Z M 162.52 163.93 L 162.65 164.88 C 162.78 165.86 163.69 166.55 164.66 166.41 C 165.64 166.28 166.33 165.38 166.19 164.40 L 166.06 163.44 C 165.92 162.46 165.02 161.78 164.05 161.91 C 163.07 162.05 162.38 162.95 162.52 163.93 Z M 162.65 164.89 L 162.79 165.87 C 162.93 166.85 163.83 167.53 164.81 167.40 C 165.79 167.26 166.47 166.35 166.33 165.37 L 166.19 164.39 C 166.05 163.41 165.15 162.73 164.17 162.87 C 163.19 163.01 162.51 163.91 162.65 164.89 Z M 162.78 165.87 L 162.92 166.88 C 163.06 167.86 163.96 168.54 164.95 168.41 C 165.93 168.27 166.61 167.36 166.48 166.38 L 166.34 165.38 C 166.20 164.40 165.29 163.71 164.31 163.85 C 163.33 163.98 162.65 164.89 162.78 165.87 Z M 162.92 166.86 L 163.05 167.87 C 163.18 168.86 164.08 169.55 165.06 169.42 C 166.05 169.30 166.74 168.39 166.61 167.41 L 166.48 166.40 C 166.35 165.41 165.45 164.72 164.47 164.85 C 163.48 164.98 162.79 165.88 162.92 166.86 Z M 163.04 167.85 L 163.16 168.84 C 163.28 169.83 164.17 170.53 165.16 170.42 C 166.14 170.30 166.85 169.41 166.73 168.42 L 166.62 167.43 C 166.50 166.45 165.61 165.74 164.62 165.86 C 163.63 165.97 162.93 166.87 163.04 167.85 Z M 163.16 168.83 L 163.27 169.82 C 163.37 170.81 164.26 171.52 165.25 171.41 C 166.24 171.31 166.95 170.42 166.84 169.43 L 166.74 168.44 C 166.63 167.45 165.74 166.74 164.75 166.84 C 163.77 166.95 163.05 167.84 163.16 168.83 Z M 163.26 169.81 L 163.36 170.80 C 163.47 171.79 164.35 172.51 165.34 172.41 C 166.33 172.31 167.05 171.43 166.95 170.44 L 166.85 169.44 C 166.74 168.45 165.86 167.73 164.87 167.83 C 163.88 167.93 163.16 168.82 163.26 169.81 Z M 163.36 170.80 L 163.46 171.80 C 163.56 172.79 164.44 173.51 165.44 173.41 C 166.43 173.31 167.15 172.43 167.05 171.44 L 166.95 170.44 C 166.85 169.45 165.97 168.73 164.98 168.83 C 163.99 168.93 163.26 169.81 163.36 170.80 Z M 163.46 171.80 L 163.56 172.80 C 163.66 173.79 164.54 174.51 165.54 174.41 C 166.53 174.31 167.25 173.43 167.15 172.44 L 167.05 171.44 C 166.95 170.45 166.07 169.72 165.08 169.82 C 164.08 169.92 163.36 170.81 163.46 171.80 Z M 163.55 172.79 L 163.65 173.79 C 163.75 174.79 164.63 175.52 165.63 175.42 C 166.63 175.32 167.36 174.43 167.26 173.44 L 167.16 172.44 C 167.06 171.44 166.17 170.71 165.18 170.81 C 164.18 170.91 163.45 171.80 163.55 172.79 Z M 163.64 173.78 L 163.74 174.78 C 163.83 175.78 164.72 176.51 165.72 176.42 C 166.72 176.32 167.45 175.44 167.36 174.44 L 167.26 173.44 C 167.17 172.44 166.28 171.71 165.28 171.80 C 164.28 171.90 163.55 172.78 163.64 173.78 Z M 163.73 174.77 L 163.82 175.77 C 163.91 176.78 164.80 177.52 165.80 177.43 C 166.80 177.34 167.54 176.45 167.46 175.45 L 167.37 174.45 C 167.28 173.44 166.39 172.70 165.39 172.79 C 164.38 172.88 163.64 173.77 163.73 174.77 Z M 163.81 175.76 L 163.90 176.78 C 163.98 177.79 164.86 178.53 165.87 178.45 C 166.88 178.37 167.63 177.48 167.55 176.47 L 167.46 175.46 C 167.38 174.45 166.49 173.70 165.49 173.79 C 164.48 173.87 163.73 174.75 163.81 175.76 Z M 163.89 176.77 L 163.97 177.77 C 164.04 178.78 164.93 179.54 165.94 179.46 C 166.95 179.38 167.71 178.50 167.63 177.49 L 167.55 176.49 C 167.48 175.47 166.59 174.72 165.58 174.79 C 164.57 174.87 163.81 175.75 163.89 176.77 Z M 163.96 177.76 L 164.03 178.74 C 164.10 179.75 164.98 180.52 166.00 180.45 C 167.01 180.38 167.78 179.49 167.71 178.48 L 167.64 177.50 C 167.57 176.48 166.69 175.71 165.67 175.79 C 164.65 175.86 163.89 176.74 163.96 177.76 Z M 164.02 178.72 L 164.09 179.74 C 164.15 180.76 165.03 181.53 166.05 181.47 C 167.07 181.40 167.84 180.52 167.78 179.50 L 167.71 178.49 C 167.65 177.47 166.77 176.70 165.75 176.76 C 164.73 176.83 163.96 177.70 164.02 178.72 Z M 164.08 179.73 L 164.14 180.74 C 164.20 181.76 165.07 182.54 166.10 182.49 C 167.12 182.43 167.90 181.55 167.84 180.53 L 167.78 179.51 C 167.72 178.49 166.85 177.71 165.83 177.77 C 164.80 177.83 164.02 178.70 164.08 179.73 Z M 164.14 180.73 L 164.19 181.71 C 164.24 182.74 165.11 183.52 166.13 183.47 C 167.15 183.42 167.94 182.55 167.89 181.53 L 167.84 180.54 C 167.79 179.52 166.92 178.73 165.90 178.79 C 164.87 178.84 164.09 179.71 164.14 180.73 Z M 164.19 181.70 L 164.23 182.68 C 164.27 183.70 165.14 184.49 166.16 184.45 C 167.19 184.40 167.98 183.54 167.93 182.52 L 167.89 181.54 C 167.85 180.52 166.98 179.72 165.96 179.77 C 164.94 179.81 164.14 180.68 164.19 181.70 Z M 164.22 182.66 L 164.26 183.68 C 164.29 184.71 165.16 185.51 166.19 185.48 C 167.21 185.44 168.02 184.58 167.98 183.55 L 167.94 182.53 C 167.90 181.50 167.04 180.70 166.01 180.74 C 164.99 180.77 164.18 181.64 164.22 182.66 Z M 164.25 183.67 L 164.27 184.66 C 164.30 185.69 165.16 186.51 166.20 186.48 C 167.23 186.45 168.05 185.59 168.02 184.56 L 167.99 183.56 C 167.96 182.53 167.10 181.72 166.07 181.74 C 165.03 181.77 164.22 182.63 164.25 183.67 Z M 164.26 184.64 L 164.28 185.62 C 164.30 186.66 165.16 187.49 166.20 187.47 C 167.24 187.45 168.07 186.59 168.05 185.55 L 168.03 184.57 C 168.01 183.53 167.15 182.70 166.11 182.72 C 165.07 182.74 164.24 183.60 164.26 184.64 Z M 164.26 185.60 L 164.27 186.60 C 164.28 187.65 165.14 188.50 166.19 188.49 C 167.24 188.48 168.08 187.62 168.07 186.57 L 168.06 185.57 C 168.05 184.52 167.20 183.68 166.15 183.69 C 165.10 183.70 164.25 184.55 164.26 185.60 Z M 164.25 186.59 L 164.26 187.59 C 164.26 188.65 165.12 189.51 166.18 189.51 C 167.24 189.50 168.10 188.64 168.10 187.58 L 168.09 186.58 C 168.09 185.52 167.23 184.66 166.17 184.67 C 165.11 184.67 164.25 185.53 164.25 186.59 Z M 164.23 187.58 L 164.23 188.59 C 164.23 189.67 165.10 190.54 166.18 190.53 C 167.25 190.53 168.12 189.66 168.12 188.59 L 168.12 187.58 C 168.12 186.51 167.25 185.64 166.18 185.64 C 165.10 185.64 164.23 186.51 164.23 187.58 Z M 164.21 188.56 L 164.19 189.60 C 164.17 190.69 165.04 191.58 166.13 191.60 C 167.22 191.61 168.12 190.74 168.13 189.65 L 168.15 188.62 C 168.16 187.53 167.29 186.64 166.20 186.62 C 165.12 186.61 164.22 187.48 164.21 188.56 Z M 164.16 189.46 L 164.08 190.46 C 163.99 191.56 164.82 192.53 165.92 192.62 C 167.03 192.71 167.99 191.89 168.08 190.78 L 168.16 189.79 C 168.25 188.68 167.43 187.71 166.32 187.63 C 165.22 187.54 164.25 188.36 164.16 189.46 Z M 164.09 190.17 L 163.87 191.14 C 163.62 192.24 164.31 193.33 165.41 193.58 C 166.51 193.83 167.60 193.15 167.85 192.05 L 168.07 191.07 C 168.32 189.97 167.63 188.88 166.53 188.63 C 165.44 188.38 164.34 189.07 164.09 190.17 Z M 164.03 190.63 L 163.54 191.55 C 163.01 192.56 163.40 193.81 164.41 194.34 C 165.42 194.88 166.67 194.49 167.20 193.48 L 167.69 192.56 C 168.22 191.55 167.84 190.30 166.83 189.77 C 165.82 189.23 164.56 189.62 164.03 190.63 Z M 164.13 190.83 L 163.41 191.36 C 162.48 192.05 162.28 193.36 162.97 194.29 C 163.66 195.22 164.97 195.42 165.90 194.73 L 166.62 194.20 C 167.55 193.51 167.75 192.20 167.06 191.27 C 166.37 190.34 165.06 190.14 164.13 190.83 Z M 164.52 190.93 L 163.70 190.98 C 162.53 191.05 161.64 192.06 161.71 193.23 C 161.78 194.40 162.79 195.29 163.96 195.21 L 164.78 195.16 C 165.95 195.09 166.84 194.09 166.77 192.92 C 166.70 191.75 165.69 190.86 164.52 190.93 Z M 164.49 191.06 L 163.51 190.74 C 162.38 190.37 161.17 190.98 160.81 192.11 C 160.44 193.24 161.05 194.45 162.18 194.82 L 163.16 195.14 C 164.29 195.51 165.50 194.89 165.87 193.76 C 166.24 192.64 165.62 191.42 164.49 191.06 Z M 163.89 190.88 L 162.93 190.35 C 161.88 189.77 160.57 190.15 159.99 191.20 C 159.41 192.25 159.79 193.57 160.84 194.14 L 161.80 194.67 C 162.85 195.25 164.17 194.87 164.74 193.82 C 165.32 192.77 164.94 191.46 163.89 190.88 Z M 163.09 190.44 L 162.26 189.88 C 161.27 189.22 159.92 189.48 159.25 190.48 C 158.58 191.48 158.85 192.83 159.85 193.50 L 160.68 194.05 C 161.67 194.72 163.02 194.45 163.69 193.46 C 164.36 192.46 164.09 191.11 163.09 190.44 Z M 162.34 189.94 L 161.50 189.33 C 160.53 188.62 159.17 188.83 158.46 189.80 C 157.76 190.77 157.97 192.13 158.94 192.84 L 159.77 193.44 C 160.74 194.15 162.10 193.94 162.81 192.97 C 163.52 192.00 163.30 190.64 162.34 189.94 Z M 161.53 189.35 L 160.73 188.74 C 159.78 188.02 158.41 188.21 157.69 189.16 C 156.96 190.12 157.15 191.48 158.11 192.21 L 158.91 192.81 C 159.86 193.54 161.23 193.35 161.95 192.39 C 162.68 191.44 162.49 190.07 161.53 189.35 Z M 160.72 188.76 L 159.88 188.13 C 158.93 187.41 157.58 187.60 156.87 188.55 C 156.15 189.49 156.34 190.84 157.29 191.56 L 158.12 192.19 C 159.07 192.91 160.42 192.72 161.14 191.77 C 161.85 190.82 161.66 189.48 160.72 188.76 Z M 159.84 188.16 L 159.05 187.57 C 158.13 186.88 156.81 187.06 156.12 187.99 C 155.42 188.92 155.61 190.23 156.53 190.93 L 157.32 191.52 C 158.25 192.22 159.56 192.03 160.26 191.10 C 160.96 190.17 160.77 188.86 159.84 188.16 Z M 159.03 187.63 L 158.26 187.04 C 157.37 186.36 156.09 186.54 155.41 187.43 C 154.72 188.33 154.90 189.61 155.79 190.29 L 156.56 190.87 C 157.46 191.56 158.74 191.38 159.42 190.48 C 160.10 189.59 159.92 188.31 159.03 187.63 Z M 158.24 187.12 L 157.49 186.52 C 156.63 185.85 155.39 186.00 154.72 186.86 C 154.05 187.72 154.20 188.96 155.06 189.63 L 155.81 190.22 C 156.67 190.89 157.91 190.74 158.58 189.88 C 159.25 189.03 159.10 187.79 158.24 187.12 Z M 157.45 186.60 L 156.67 185.98 C 155.86 185.33 154.67 185.46 154.02 186.27 C 153.37 187.09 153.50 188.27 154.31 188.92 L 155.09 189.55 C 155.90 190.20 157.09 190.07 157.74 189.25 C 158.39 188.44 158.26 187.26 157.45 186.60 Z M 156.63 186.06 L 155.83 185.41 C 155.06 184.79 153.93 184.91 153.31 185.68 C 152.68 186.45 152.80 187.58 153.57 188.20 L 154.36 188.85 C 155.13 189.47 156.26 189.36 156.89 188.59 C 157.51 187.81 157.40 186.68 156.63 186.06 Z M 155.79 185.47 L 155.44 185.17 C 154.70 184.57 153.60 184.68 153.00 185.42 C 152.40 186.17 152.51 187.26 153.25 187.86 L 153.61 188.15 C 154.35 188.76 155.44 188.65 156.04 187.90 C 156.65 187.16 156.54 186.07 155.79 185.47 Z"
      fill="black"
      fill-rule="nonzero" /><path d="M 152.60 164.15 L 153.64 164.06 C 154.58 163.98 155.28 163.15 155.19 162.21 C 155.11 161.26 154.28 160.57 153.34 160.65 L 152.30 160.74 C 151.36 160.82 150.66 161.65 150.74 162.59 C 150.82 163.53 151.65 164.23 152.60 164.15 Z M 153.64 164.06 L 154.66 163.97 C 155.60 163.89 156.30 163.05 156.21 162.10 C 156.12 161.16 155.29 160.46 154.34 160.55 L 153.33 160.64 C 152.39 160.73 151.69 161.56 151.78 162.51 C 151.86 163.45 152.70 164.15 153.64 164.06 Z M 154.67 163.98 L 155.63 163.88 C 156.57 163.78 157.26 162.94 157.17 161.99 C 157.07 161.04 156.22 160.35 155.28 160.45 L 154.32 160.54 C 153.38 160.64 152.69 161.49 152.78 162.44 C 152.88 163.38 153.73 164.07 154.67 163.98 Z M 155.62 163.88 L 156.74 163.77 C 157.69 163.68 158.39 162.84 158.30 161.89 C 158.20 160.94 157.36 160.24 156.41 160.33 L 155.28 160.44 C 154.33 160.54 153.64 161.38 153.73 162.33 C 153.82 163.28 154.67 163.98 155.62 163.88 Z M 156.31 163.76 L 157.20 163.90 C 158.14 164.05 159.02 163.40 159.17 162.46 C 159.32 161.52 158.68 160.64 157.73 160.49 L 156.84 160.35 C 155.90 160.20 155.02 160.84 154.87 161.79 C 154.72 162.73 155.37 163.61 156.31 163.76 Z M 156.08 163.22 L 156.53 163.82 C 157.09 164.58 158.17 164.74 158.93 164.18 C 159.70 163.61 159.86 162.54 159.29 161.77 L 158.85 161.17 C 158.29 160.41 157.21 160.25 156.45 160.81 C 155.68 161.38 155.52 162.45 156.08 163.22 Z M 156.21 162.98 L 156.32 163.93 C 156.42 164.87 157.26 165.55 158.20 165.44 C 159.13 165.34 159.81 164.50 159.71 163.56 L 159.61 162.61 C 159.51 161.68 158.67 161.00 157.73 161.10 C 156.79 161.20 156.11 162.04 156.21 162.98 Z M 156.33 163.56 L 156.20 164.70 C 156.10 165.62 156.77 166.46 157.70 166.57 C 158.63 166.67 159.47 166.00 159.57 165.07 L 159.70 163.94 C 159.80 163.01 159.13 162.17 158.20 162.06 C 157.27 161.96 156.43 162.63 156.33 163.56 Z M 156.25 164.48 L 156.01 165.45 C 155.78 166.35 156.34 167.27 157.24 167.49 C 158.15 167.71 159.07 167.16 159.29 166.26 L 159.53 165.29 C 159.75 164.38 159.20 163.47 158.29 163.24 C 157.38 163.02 156.47 163.57 156.25 164.48 Z M 156.05 165.30 L 155.72 166.22 C 155.42 167.11 155.88 168.07 156.77 168.38 C 157.65 168.69 158.62 168.22 158.92 167.34 L 159.25 166.41 C 159.55 165.52 159.09 164.56 158.20 164.25 C 157.32 163.94 156.35 164.41 156.05 165.30 Z M 155.76 166.11 L 155.36 167.05 C 154.99 167.91 155.39 168.91 156.26 169.28 C 157.12 169.65 158.12 169.25 158.49 168.38 L 158.89 167.45 C 159.26 166.58 158.86 165.59 157.99 165.22 C 157.13 164.85 156.13 165.25 155.76 166.11 Z M 155.39 166.97 L 154.95 167.88 C 154.54 168.73 154.90 169.75 155.75 170.16 C 156.59 170.57 157.62 170.21 158.03 169.36 L 158.46 168.46 C 158.87 167.61 158.52 166.59 157.67 166.18 C 156.82 165.77 155.80 166.13 155.39 166.97 Z M 154.96 167.83 L 154.51 168.70 C 154.07 169.54 154.40 170.58 155.24 171.02 C 156.08 171.45 157.12 171.12 157.56 170.28 L 158.01 169.41 C 158.45 168.57 158.12 167.53 157.28 167.10 C 156.44 166.66 155.40 166.99 154.96 167.83 Z M 154.52 168.66 L 154.03 169.54 C 153.58 170.38 153.88 171.43 154.72 171.89 C 155.55 172.35 156.61 172.04 157.06 171.21 L 157.55 170.32 C 158.01 169.49 157.70 168.44 156.87 167.98 C 156.03 167.52 154.98 167.82 154.52 168.66 Z M 154.04 169.51 L 153.53 170.40 C 153.05 171.23 153.34 172.29 154.17 172.77 C 155.01 173.25 156.07 172.96 156.55 172.13 L 157.06 171.24 C 157.54 170.41 157.25 169.35 156.42 168.87 C 155.58 168.39 154.52 168.68 154.04 169.51 Z M 153.53 170.37 L 153.01 171.25 C 152.51 172.08 152.79 173.16 153.62 173.65 C 154.45 174.15 155.52 173.88 156.02 173.04 L 156.54 172.16 C 157.04 171.33 156.77 170.25 155.94 169.76 C 155.10 169.26 154.03 169.54 153.53 170.37 Z M 153.01 171.23 L 152.48 172.10 C 151.97 172.93 152.23 174.01 153.06 174.52 C 153.89 175.03 154.97 174.77 155.48 173.94 L 156.02 173.07 C 156.53 172.24 156.27 171.15 155.44 170.65 C 154.61 170.14 153.52 170.40 153.01 171.23 Z M 152.48 172.07 L 151.94 172.92 C 151.42 173.75 151.67 174.84 152.50 175.37 C 153.33 175.89 154.43 175.64 154.95 174.81 L 155.48 173.97 C 156.00 173.14 155.76 172.04 154.93 171.52 C 154.10 170.99 153.00 171.24 152.48 172.07 Z M 151.94 172.90 L 151.42 173.71 C 150.89 174.54 151.12 175.64 151.95 176.18 C 152.78 176.71 153.89 176.47 154.43 175.64 L 154.95 174.83 C 155.48 174.00 155.24 172.90 154.41 172.36 C 153.59 171.83 152.48 172.07 151.94 172.90 Z M 151.42 173.68 L 150.86 174.53 C 150.31 175.36 150.54 176.48 151.37 177.03 C 152.20 177.58 153.32 177.35 153.87 176.52 L 154.43 175.67 C 154.98 174.84 154.75 173.72 153.92 173.17 C 153.09 172.62 151.97 172.85 151.42 173.68 Z M 150.86 174.50 L 150.30 175.32 C 149.73 176.15 149.95 177.28 150.78 177.85 C 151.61 178.42 152.74 178.20 153.31 177.37 L 153.87 176.55 C 154.44 175.72 154.22 174.59 153.39 174.02 C 152.56 173.45 151.42 173.67 150.86 174.50 Z M 150.30 175.28 L 149.73 176.08 C 149.14 176.91 149.34 178.06 150.17 178.65 C 151.00 179.24 152.15 179.04 152.74 178.21 L 153.31 177.41 C 153.90 176.58 153.70 175.43 152.87 174.84 C 152.04 174.25 150.89 174.45 150.30 175.28 Z M 149.74 176.03 L 149.01 177.01 C 148.39 177.84 148.56 179.01 149.38 179.62 C 150.21 180.24 151.38 180.07 152.00 179.25 L 152.73 178.27 C 153.35 177.44 153.18 176.27 152.35 175.65 C 151.53 175.03 150.36 175.20 149.74 176.03 Z M 149.01 176.96 L 148.27 177.90 C 147.62 178.73 147.76 179.92 148.59 180.57 C 149.41 181.22 150.61 181.07 151.25 180.25 L 152.00 179.30 C 152.64 178.48 152.50 177.28 151.67 176.63 C 150.85 175.99 149.65 176.13 149.01 176.96 Z M 148.30 177.80 L 148.06 178.08 C 147.36 178.89 147.44 180.11 148.24 180.81 C 149.05 181.51 150.27 181.43 150.97 180.63 L 151.22 180.34 C 151.92 179.54 151.84 178.32 151.03 177.62 C 150.23 176.91 149.01 177.00 148.30 177.80 Z M 151.08 180.52 L 151.47 179.99 C 152.11 179.13 151.94 177.91 151.07 177.27 C 150.21 176.62 148.99 176.80 148.34 177.66 L 147.95 178.19 C 147.31 179.05 147.49 180.28 148.35 180.92 C 149.21 181.56 150.43 181.38 151.08 180.52 Z M 151.42 180.05 L 152.23 179.06 C 152.91 178.22 152.78 176.99 151.94 176.31 C 151.10 175.63 149.87 175.76 149.20 176.60 L 148.39 177.60 C 147.71 178.44 147.84 179.67 148.68 180.35 C 149.52 181.02 150.75 180.89 151.42 180.05 Z M 152.18 179.11 L 152.99 178.19 C 153.70 177.37 153.62 176.14 152.81 175.43 C 152.00 174.72 150.76 174.81 150.05 175.62 L 149.24 176.55 C 148.53 177.36 148.62 178.59 149.43 179.30 C 150.24 180.01 151.48 179.93 152.18 179.11 Z M 152.95 178.24 L 153.67 177.47 C 154.40 176.68 154.36 175.45 153.58 174.71 C 152.79 173.97 151.55 174.01 150.82 174.80 L 150.10 175.57 C 149.36 176.35 149.40 177.59 150.19 178.33 C 150.98 179.06 152.21 179.02 152.95 178.24 Z M 153.63 177.50 L 154.33 176.79 C 155.09 176.02 155.08 174.78 154.31 174.03 C 153.54 173.27 152.30 173.29 151.55 174.06 L 150.85 174.77 C 150.10 175.54 150.11 176.77 150.88 177.53 C 151.65 178.28 152.88 178.27 153.63 177.50 Z M 154.31 176.81 L 154.96 176.16 C 155.73 175.41 155.73 174.17 154.98 173.41 C 154.22 172.64 152.99 172.64 152.22 173.39 L 151.57 174.04 C 150.81 174.79 150.80 176.03 151.56 176.79 C 152.31 177.56 153.55 177.56 154.31 176.81 Z M 154.94 176.18 L 155.73 175.42 C 156.50 174.67 156.53 173.44 155.78 172.67 C 155.03 171.89 153.80 171.87 153.03 172.62 L 152.24 173.38 C 151.47 174.13 151.44 175.36 152.19 176.13 C 152.94 176.90 154.17 176.93 154.94 176.18 Z M 155.70 175.44 L 156.40 174.79 C 157.18 174.06 157.23 172.83 156.49 172.05 C 155.76 171.26 154.53 171.22 153.75 171.95 L 153.06 172.60 C 152.27 173.33 152.23 174.56 152.96 175.34 C 153.69 176.13 154.92 176.17 155.70 175.44 Z M 156.36 174.82 L 157.07 174.19 C 157.87 173.48 157.94 172.26 157.23 171.46 C 156.52 170.66 155.29 170.58 154.49 171.29 L 153.79 171.92 C 152.99 172.63 152.91 173.86 153.62 174.66 C 154.34 175.46 155.56 175.53 156.36 174.82 Z M 157.04 174.21 L 157.80 173.56 C 158.61 172.87 158.70 171.65 158.01 170.84 C 157.31 170.03 156.09 169.93 155.28 170.63 L 154.52 171.28 C 153.71 171.97 153.62 173.19 154.31 174.00 C 155.01 174.81 156.23 174.90 157.04 174.21 Z M 157.78 173.56 L 158.55 172.92 C 159.36 172.23 159.46 171.02 158.78 170.21 C 158.09 169.39 156.88 169.29 156.07 169.97 L 155.30 170.62 C 154.49 171.31 154.38 172.52 155.07 173.33 C 155.75 174.15 156.97 174.25 157.78 173.56 Z M 158.54 172.91 L 159.29 172.28 C 160.10 171.60 160.21 170.39 159.53 169.58 C 158.85 168.77 157.64 168.66 156.83 169.34 L 156.08 169.98 C 155.27 170.66 155.16 171.86 155.84 172.68 C 156.52 173.49 157.73 173.59 158.54 172.91 Z M 159.28 172.28 L 160.06 171.64 C 160.87 170.97 160.98 169.77 160.31 168.96 C 159.64 168.14 158.44 168.03 157.63 168.70 L 156.85 169.34 C 156.04 170.01 155.92 171.21 156.59 172.03 C 157.26 172.84 158.46 172.95 159.28 172.28 Z M 160.03 171.65 L 160.80 171.04 C 161.61 170.38 161.74 169.18 161.09 168.37 C 160.43 167.55 159.23 167.42 158.41 168.08 L 157.65 168.69 C 156.83 169.35 156.70 170.54 157.36 171.36 C 158.02 172.18 159.21 172.31 160.03 171.65 Z M 160.78 171.04 L 161.56 170.42 C 162.38 169.77 162.52 168.58 161.87 167.76 C 161.23 166.94 160.03 166.80 159.21 167.45 L 158.43 168.07 C 157.61 168.72 157.47 169.91 158.12 170.73 C 158.77 171.55 159.96 171.69 160.78 171.04 Z M 161.56 170.42 L 162.36 169.79 C 163.18 169.14 163.33 167.95 162.68 167.13 C 162.04 166.31 160.85 166.17 160.03 166.82 L 159.22 167.45 C 158.40 168.10 158.26 169.29 158.90 170.11 C 159.55 170.93 160.74 171.07 161.56 170.42 Z M 162.36 169.78 L 163.14 169.17 C 163.96 168.52 164.10 167.34 163.45 166.52 C 162.81 165.70 161.62 165.56 160.81 166.21 L 160.03 166.82 C 159.21 167.47 159.07 168.65 159.72 169.47 C 160.36 170.29 161.55 170.43 162.36 169.78 Z M 163.14 169.16 L 163.93 168.54 C 164.74 167.89 164.88 166.71 164.24 165.90 C 163.60 165.08 162.41 164.94 161.60 165.59 L 160.81 166.21 C 160.00 166.86 159.86 168.04 160.50 168.85 C 161.14 169.67 162.33 169.81 163.14 169.16 Z M 163.92 168.54 L 164.72 167.91 C 165.53 167.27 165.67 166.09 165.03 165.28 C 164.39 164.47 163.21 164.33 162.40 164.97 L 161.61 165.59 C 160.79 166.23 160.65 167.41 161.29 168.22 C 161.93 169.04 163.11 169.18 163.92 168.54 Z M 164.71 167.91 L 165.50 167.29 C 166.31 166.66 166.45 165.48 165.82 164.67 C 165.18 163.86 164.01 163.72 163.20 164.35 L 162.41 164.97 C 161.60 165.61 161.45 166.78 162.09 167.59 C 162.72 168.40 163.89 168.54 164.71 167.91 Z M 165.49 167.28 L 166.27 166.67 C 167.08 166.04 167.23 164.88 166.60 164.07 C 165.97 163.26 164.80 163.12 163.99 163.75 L 163.21 164.36 C 162.40 164.99 162.26 166.15 162.88 166.96 C 163.51 167.77 164.68 167.91 165.49 167.28 Z M 166.27 166.66 L 167.05 166.05 C 167.85 165.43 168.00 164.27 167.37 163.46 C 166.75 162.66 165.59 162.52 164.79 163.14 L 164.00 163.75 C 163.20 164.38 163.05 165.54 163.68 166.34 C 164.30 167.15 165.46 167.29 166.27 166.66 Z M 167.04 166.04 L 167.83 165.43 C 168.63 164.81 168.78 163.66 168.15 162.86 C 167.53 162.06 166.38 161.92 165.58 162.54 L 164.79 163.15 C 163.99 163.77 163.85 164.92 164.47 165.72 C 165.09 166.52 166.25 166.66 167.04 166.04 Z M 167.83 165.42 L 168.62 164.81 C 169.41 164.19 169.55 163.04 168.93 162.25 C 168.32 161.46 167.17 161.31 166.38 161.93 L 165.59 162.55 C 164.80 163.16 164.65 164.31 165.27 165.10 C 165.89 165.89 167.03 166.04 167.83 165.42 Z M 168.61 164.80 L 169.40 164.18 C 170.19 163.57 170.33 162.43 169.71 161.64 C 169.10 160.85 167.96 160.71 167.17 161.33 L 166.38 161.94 C 165.60 162.56 165.46 163.69 166.07 164.48 C 166.68 165.27 167.82 165.41 168.61 164.80 Z M 169.40 164.17 L 170.18 163.55 C 170.96 162.93 171.10 161.80 170.48 161.02 C 169.87 160.24 168.74 160.11 167.96 160.72 L 167.17 161.34 C 166.39 161.96 166.26 163.09 166.87 163.87 C 167.49 164.65 168.62 164.78 169.40 164.17 Z M 170.19 163.53 L 170.97 162.90 C 171.74 162.28 171.86 161.16 171.24 160.39 C 170.62 159.62 169.50 159.50 168.73 160.12 L 167.95 160.74 C 167.18 161.36 167.06 162.49 167.68 163.26 C 168.30 164.03 169.42 164.15 170.19 163.53 Z M 170.99 162.87 L 171.76 162.23 C 172.52 161.60 172.62 160.48 171.99 159.73 C 171.37 158.97 170.25 158.87 169.49 159.50 L 168.72 160.14 C 167.96 160.77 167.86 161.89 168.48 162.64 C 169.11 163.40 170.23 163.50 170.99 162.87 Z M 171.77 162.21 L 172.53 161.57 C 173.28 160.94 173.37 159.82 172.74 159.08 C 172.11 158.33 171.00 158.24 170.25 158.87 L 169.49 159.51 C 168.74 160.14 168.65 161.26 169.28 162.00 C 169.91 162.75 171.02 162.84 171.77 162.21 Z M 172.52 161.56 L 173.28 160.92 C 174.02 160.30 174.12 159.19 173.49 158.45 C 172.87 157.71 171.76 157.61 171.02 158.23 L 170.26 158.87 C 169.52 159.50 169.43 160.61 170.05 161.35 C 170.67 162.09 171.78 162.18 172.52 161.56 Z M 173.27 160.92 L 174.04 160.28 C 174.78 159.66 174.88 158.56 174.27 157.82 C 173.65 157.08 172.55 156.98 171.81 157.59 L 171.04 158.23 C 170.30 158.85 170.19 159.95 170.81 160.69 C 171.42 161.43 172.52 161.54 173.27 160.92 Z M 174.03 160.27 L 174.80 159.64 C 175.54 159.03 175.64 157.94 175.03 157.20 C 174.42 156.46 173.32 156.35 172.58 156.96 L 171.82 157.60 C 171.08 158.21 170.98 159.30 171.59 160.04 C 172.20 160.78 173.29 160.88 174.03 160.27 Z M 174.80 159.63 L 175.54 159.01 C 176.27 158.40 176.37 157.31 175.76 156.58 C 175.15 155.85 174.06 155.75 173.32 156.36 L 172.58 156.98 C 171.85 157.59 171.75 158.68 172.36 159.41 C 172.97 160.14 174.06 160.24 174.80 159.63 Z M 175.54 159.00 L 176.28 158.37 C 177.01 157.76 177.10 156.68 176.49 155.95 C 175.88 155.22 174.80 155.13 174.07 155.74 L 173.33 156.37 C 172.60 156.98 172.51 158.06 173.12 158.79 C 173.73 159.52 174.81 159.61 175.54 159.00 Z M 176.28 158.36 L 177.08 157.69 C 177.80 157.09 177.90 156.01 177.29 155.29 C 176.68 154.56 175.61 154.47 174.88 155.08 L 174.08 155.75 C 173.36 156.35 173.27 157.43 173.87 158.15 C 174.48 158.88 175.55 158.97 176.28 158.36 Z M 177.07 157.69 L 177.85 157.04 C 178.57 156.44 178.67 155.36 178.07 154.64 C 177.47 153.92 176.40 153.82 175.68 154.43 L 174.89 155.08 C 174.17 155.68 174.07 156.75 174.67 157.47 C 175.28 158.19 176.35 158.29 177.07 157.69 Z M 177.84 157.04 L 178.64 156.38 C 179.36 155.79 179.46 154.72 178.86 154.00 C 178.27 153.28 177.20 153.17 176.48 153.77 L 175.68 154.42 C 174.96 155.02 174.86 156.09 175.46 156.81 C 176.05 157.53 177.12 157.63 177.84 157.04 Z M 178.63 156.38 L 179.38 155.77 C 180.10 155.17 180.21 154.11 179.62 153.39 C 179.03 152.67 177.96 152.56 177.24 153.15 L 176.49 153.77 C 175.76 154.36 175.66 155.42 176.25 156.15 C 176.84 156.87 177.90 156.98 178.63 156.38 Z M 179.39 155.83 L 180.40 155.04 C 181.16 154.45 181.30 153.35 180.70 152.59 C 180.10 151.83 179.00 151.69 178.24 152.29 L 177.23 153.08 C 176.47 153.68 176.34 154.78 176.94 155.54 C 177.53 156.30 178.63 156.43 179.39 155.83 Z M 180.03 155.41 L 180.57 155.19 C 181.54 154.80 182.00 153.70 181.61 152.74 C 181.22 151.78 180.13 151.31 179.16 151.70 L 178.62 151.92 C 177.66 152.31 177.19 153.41 177.58 154.37 C 177.97 155.33 179.06 155.80 180.03 155.41 Z M 177.98 152.99 L 177.82 153.68 C 177.57 154.72 178.21 155.77 179.25 156.02 C 180.29 156.27 181.34 155.63 181.59 154.58 L 181.75 153.90 C 182.00 152.86 181.36 151.81 180.32 151.56 C 179.28 151.31 178.23 151.95 177.98 152.99 Z M 177.92 153.41 L 177.44 154.60 C 177.04 155.58 177.51 156.70 178.49 157.10 C 179.48 157.50 180.60 157.03 181.00 156.05 L 181.48 154.86 C 181.88 153.87 181.41 152.75 180.43 152.35 C 179.45 151.95 178.32 152.42 177.92 153.41 Z M 177.44 154.65 L 177.08 155.59 C 176.71 156.57 177.20 157.67 178.19 158.04 C 179.17 158.42 180.27 157.92 180.64 156.94 L 181.00 156.00 C 181.37 155.01 180.88 153.91 179.89 153.54 C 178.91 153.17 177.81 153.67 177.44 154.65 Z M 177.07 155.66 L 176.74 156.63 C 176.41 157.62 176.94 158.70 177.92 159.03 C 178.91 159.37 179.99 158.84 180.32 157.85 L 180.65 156.87 C 180.99 155.88 180.46 154.81 179.47 154.47 C 178.48 154.14 177.41 154.67 177.07 155.66 Z M 176.72 156.73 L 176.45 157.70 C 176.17 158.70 176.75 159.74 177.75 160.02 C 178.75 160.30 179.79 159.71 180.07 158.72 L 180.34 157.75 C 180.62 156.75 180.04 155.71 179.04 155.43 C 178.04 155.15 177.00 155.74 176.72 156.73 Z M 176.41 157.94 L 176.25 159.05 C 176.10 160.07 176.81 161.02 177.83 161.17 C 178.86 161.31 179.80 160.60 179.95 159.58 L 180.11 158.48 C 180.26 157.45 179.55 156.51 178.52 156.36 C 177.50 156.21 176.55 156.92 176.41 157.94 Z M 176.28 159.76 L 176.48 160.58 C 176.73 161.59 177.74 162.20 178.74 161.96 C 179.75 161.72 180.36 160.70 180.12 159.70 L 179.92 158.87 C 179.67 157.87 178.66 157.26 177.66 157.50 C 176.66 157.74 176.04 158.75 176.28 159.76 Z M 177.12 161.57 L 177.81 162.14 C 178.60 162.79 179.76 162.68 180.41 161.89 C 181.07 161.10 180.95 159.93 180.17 159.28 L 179.48 158.71 C 178.69 158.06 177.52 158.18 176.87 158.96 C 176.22 159.75 176.33 160.92 177.12 161.57 Z M 178.28 162.38 L 179.25 162.79 C 180.18 163.18 181.24 162.74 181.63 161.82 C 182.02 160.89 181.58 159.83 180.66 159.44 L 179.69 159.03 C 178.76 158.65 177.70 159.08 177.31 160.01 C 176.92 160.93 177.36 161.99 178.28 162.38 Z M 179.20 162.76 L 180.16 163.20 C 181.07 163.62 182.14 163.22 182.56 162.31 C 182.98 161.40 182.58 160.32 181.67 159.91 L 180.71 159.47 C 179.80 159.05 178.73 159.45 178.31 160.36 C 177.89 161.27 178.29 162.35 179.20 162.76 Z M 179.78 163.03 L 180.55 163.62 C 181.37 164.24 182.53 164.09 183.16 163.28 C 183.78 162.46 183.63 161.30 182.82 160.67 L 182.05 160.08 C 181.23 159.46 180.07 159.61 179.44 160.42 C 178.81 161.24 178.97 162.40 179.78 163.03 Z M 180.05 163.12 L 180.50 163.87 C 181.03 164.77 182.20 165.07 183.10 164.53 C 184.00 163.99 184.30 162.83 183.76 161.93 L 183.32 161.17 C 182.78 160.27 181.61 159.98 180.71 160.51 C 179.81 161.05 179.51 162.22 180.05 163.12 Z M 180.25 163.32 L 180.46 164.28 C 180.70 165.32 181.73 165.98 182.77 165.74 C 183.81 165.51 184.47 164.47 184.23 163.43 L 184.01 162.47 C 183.78 161.43 182.74 160.78 181.70 161.01 C 180.66 161.25 180.01 162.28 180.25 163.32 Z M 180.40 164.01 L 180.48 165.09 C 180.57 166.16 181.51 166.96 182.59 166.88 C 183.67 166.79 184.47 165.85 184.38 164.77 L 184.30 163.70 C 184.21 162.62 183.27 161.82 182.19 161.91 C 181.11 161.99 180.31 162.94 180.40 164.01 Z M 180.46 164.97 L 180.48 165.93 C 180.50 167.02 181.40 167.88 182.49 167.86 C 183.58 167.84 184.45 166.94 184.42 165.85 L 184.40 164.89 C 184.38 163.80 183.48 162.94 182.39 162.96 C 181.30 162.98 180.44 163.88 180.46 164.97 Z M 180.47 165.82 L 180.43 166.84 C 180.39 167.94 181.25 168.86 182.35 168.90 C 183.44 168.94 184.36 168.08 184.40 166.99 L 184.44 165.96 C 184.47 164.86 183.62 163.94 182.52 163.91 C 181.43 163.87 180.51 164.72 180.47 165.82 Z M 180.43 166.70 L 180.32 167.74 C 180.20 168.84 181.00 169.83 182.09 169.94 C 183.19 170.06 184.17 169.27 184.29 168.17 L 184.40 167.13 C 184.52 166.03 183.72 165.05 182.63 164.93 C 181.53 164.81 180.55 165.61 180.43 166.70 Z M 180.34 167.57 L 180.14 168.57 C 179.93 169.65 180.64 170.71 181.72 170.92 C 182.81 171.13 183.87 170.42 184.08 169.34 L 184.27 168.34 C 184.49 167.25 183.78 166.20 182.69 165.99 C 181.60 165.78 180.55 166.48 180.34 167.57 Z M 180.17 168.41 L 179.91 169.37 C 179.61 170.44 180.23 171.55 181.30 171.85 C 182.37 172.15 183.48 171.52 183.78 170.45 L 184.05 169.49 C 184.34 168.42 183.72 167.31 182.65 167.01 C 181.58 166.72 180.47 167.34 180.17 168.41 Z M 179.94 169.26 L 179.61 170.20 C 179.25 171.25 179.81 172.40 180.87 172.76 C 181.92 173.12 183.07 172.56 183.43 171.51 L 183.75 170.57 C 184.11 169.51 183.55 168.37 182.50 168.01 C 181.44 167.65 180.30 168.21 179.94 169.26 Z M 179.64 170.13 L 179.28 171.05 C 178.88 172.09 179.39 173.26 180.43 173.66 C 181.47 174.06 182.64 173.55 183.05 172.51 L 183.40 171.58 C 183.81 170.54 183.29 169.37 182.25 168.97 C 181.21 168.57 180.04 169.09 179.64 170.13 Z M 179.30 171.00 L 178.92 171.91 C 178.49 172.94 178.97 174.12 180.00 174.55 C 181.03 174.98 182.21 174.50 182.64 173.47 L 183.03 172.56 C 183.46 171.53 182.97 170.34 181.94 169.91 C 180.91 169.48 179.73 169.97 179.30 171.00 Z M 178.94 171.86 L 178.53 172.77 C 178.07 173.79 178.52 174.98 179.54 175.44 C 180.56 175.90 181.75 175.45 182.21 174.43 L 182.62 173.52 C 183.08 172.50 182.63 171.31 181.61 170.85 C 180.59 170.39 179.40 170.84 178.94 171.86 Z M 178.55 172.72 L 178.11 173.63 C 177.62 174.63 178.04 175.84 179.05 176.33 C 180.05 176.82 181.26 176.40 181.75 175.39 L 182.19 174.48 C 182.68 173.48 182.26 172.27 181.25 171.78 C 180.25 171.29 179.04 171.71 178.55 172.72 Z M 178.14 173.58 L 177.67 174.49 C 177.15 175.48 177.54 176.69 178.53 177.21 C 179.51 177.72 180.73 177.34 181.25 176.35 L 181.72 175.44 C 182.23 174.46 181.85 173.24 180.86 172.72 C 179.87 172.21 178.65 172.59 178.14 173.58 Z M 177.70 174.43 L 177.20 175.33 C 176.66 176.29 177.01 177.52 177.97 178.06 C 178.94 178.60 180.17 178.26 180.71 177.29 L 181.21 176.40 C 181.75 175.43 181.41 174.21 180.44 173.67 C 179.47 173.12 178.25 173.47 177.70 174.43 Z M 177.25 175.26 L 176.73 176.11 C 176.15 177.06 176.45 178.29 177.39 178.87 C 178.33 179.44 179.57 179.15 180.14 178.20 L 180.66 177.35 C 181.24 176.41 180.94 175.18 180.00 174.60 C 179.06 174.02 177.83 174.32 177.25 175.26 Z M 176.79 176.04 L 176.24 176.85 C 175.62 177.76 175.86 178.99 176.76 179.61 C 177.67 180.23 178.91 180.00 179.53 179.09 L 180.08 178.28 C 180.70 177.37 180.46 176.13 179.56 175.52 C 178.65 174.90 177.41 175.13 176.79 176.04 Z M 176.34 176.78 L 175.71 177.59 C 175.05 178.45 175.20 179.67 176.06 180.33 C 176.91 180.99 178.13 180.83 178.79 179.98 L 179.43 179.16 C 180.09 178.31 179.93 177.09 179.08 176.43 C 178.23 175.77 177.00 175.92 176.34 176.78 Z M 175.81 177.56 L 175.17 178.30 C 174.49 179.10 174.59 180.29 175.38 180.97 C 176.17 181.65 177.37 181.56 178.05 180.77 L 178.69 180.02 C 179.37 179.23 179.27 178.03 178.48 177.35 C 177.69 176.67 176.49 176.76 175.81 177.56 Z M 175.24 178.31 L 174.68 178.93 C 174.00 179.69 174.06 180.85 174.81 181.53 C 175.57 182.21 176.73 182.15 177.41 181.39 L 177.98 180.77 C 178.66 180.01 178.59 178.85 177.84 178.17 C 177.09 177.49 175.92 177.55 175.24 178.31 Z"
      fill="black"
      fill-rule="nonzero" /></svg>