<svg xmlns="http://www.w3.org/2000/svg" width="300" height="300" viewBox="0 0 300 300">
<path d="M 138.25 116.34 L 137.37 116.92 C 136.60 117.44 136.39 118.49 136.91 119.26 C 137.43 120.04 138.48 120.24 139.25 119.72 L 140.13 119.14 C 140.90 118.62 141.11 117.57 140.59 116.80 C 140.07 116.02 139.02 115.82 138.25 116.34 Z M 137.16 117.05 L 136.44 117.70 C 135.74 118.33 135.68 119.42 136.31 120.12 C 136.95 120.83 138.03 120.88 138.74 120.25 L 139.46 119.60 C 140.17 118.97 140.23 117.88 139.59 117.17 C 138.96 116.47 137.87 116.41 137.16 117.05 Z M 136.06 118.15 L 135.61 119.00 C 135.16 119.84 135.48 120.90 136.32 121.35 C 137.17 121.80 138.22 121.48 138.68 120.63 L 139.12 119.79 C 139.58 118.94 139.26 117.89 138.41 117.44 C 137.56 116.99 136.51 117.31 136.06 118.15 Z M 135.40 119.81 L 135.39 120.78 C 135.39 121.75 136.17 122.53 137.13 122.54 C 138.09 122.54 138.88 121.76 138.88 120.80 L 138.89 119.82 C 138.89 118.86 138.11 118.07 137.15 118.07 C 136.19 118.06 135.40 118.84 135.40 119.81 Z M 135.57 121.54 L 135.97 122.39 C 136.39 123.25 137.43 123.62 138.29 123.20 C 139.16 122.79 139.52 121.75 139.11 120.89 L 138.71 120.04 C 138.29 119.18 137.25 118.81 136.39 119.22 C 135.52 119.64 135.15 120.68 135.57 121.54 Z M 136.25 122.77 L 136.90 123.50 C 137.52 124.21 138.61 124.28 139.32 123.65 C 140.03 123.03 140.10 121.94 139.47 121.23 L 138.83 120.50 C 138.20 119.79 137.12 119.72 136.41 120.35 C 135.69 120.98 135.63 122.06 136.25 122.77 Z M 137.06 123.63 L 137.88 124.35 C 138.58 124.97 139.65 124.91 140.27 124.20 C 140.89 123.50 140.82 122.43 140.12 121.82 L 139.30 121.10 C 138.60 120.48 137.53 120.54 136.91 121.25 C 136.30 121.95 136.36 123.02 137.06 123.63 Z M 137.96 124.38 L 138.73 125.00 C 139.44 125.57 140.49 125.46 141.07 124.74 C 141.64 124.03 141.53 122.98 140.81 122.40 L 140.04 121.79 C 139.33 121.21 138.28 121.33 137.70 122.04 C 137.13 122.76 137.24 123.81 137.96 124.38 Z M 138.77 125.00 L 139.56 125.61 C 140.28 126.16 141.30 126.02 141.86 125.31 C 142.41 124.59 142.27 123.57 141.56 123.02 L 140.77 122.41 C 140.05 121.86 139.02 121.99 138.47 122.70 C 137.92 123.42 138.06 124.45 138.77 125.00 Z M 139.60 125.59 L 140.41 126.21 C 141.12 126.74 142.12 126.60 142.66 125.89 C 143.19 125.18 143.05 124.18 142.34 123.64 L 141.53 123.03 C 140.82 122.50 139.81 122.64 139.28 123.35 C 138.75 124.05 138.89 125.06 139.60 125.59 Z M 140.43 126.19 L 140.69 126.39 C 141.39 126.91 142.38 126.77 142.90 126.07 C 143.43 125.37 143.28 124.38 142.58 123.85 L 142.32 123.66 C 141.62 123.13 140.63 123.28 140.11 123.98 C 139.58 124.68 139.73 125.67 140.43 126.19 Z"
      fill="black"
      fill-rule="nonzero" /><path d="M 131.17 134.30 L 132.17 134.10 C 133.11 133.91 133.72 133.01 133.53 132.07 C 133.35 131.14 132.44 130.53 131.51 130.72 L 130.51 130.91 C 129.57 131.10 128.96 132.00 129.15 132.94 C 129.33 133.87 130.24 134.48 131.17 134.30 Z M 132.21 134.07 L 133.19 133.85 C 134.10 133.65 134.68 132.74 134.48 131.83 C 134.28 130.91 133.37 130.33 132.46 130.53 L 131.48 130.75 C 130.56 130.95 129.98 131.86 130.18 132.77 C 130.39 133.69 131.29 134.27 132.21 134.07 Z M 133.26 133.81 L 134.20 133.55 C 135.09 133.31 135.61 132.39 135.37 131.50 C 135.13 130.61 134.21 130.08 133.32 130.32 L 132.38 130.58 C 131.49 130.82 130.97 131.74 131.21 132.63 C 131.45 133.52 132.37 134.05 133.26 133.81 Z M 134.30 133.51 L 135.21 133.19 C 136.07 132.89 136.53 131.95 136.23 131.08 C 135.93 130.21 134.98 129.76 134.12 130.06 L 133.21 130.37 C 132.35 130.67 131.89 131.61 132.19 132.48 C 132.49 133.35 133.44 133.81 134.30 133.51 Z M 135.29 133.16 L 136.21 132.78 C 137.05 132.43 137.46 131.46 137.11 130.62 C 136.76 129.77 135.79 129.37 134.95 129.72 L 134.03 130.09 C 133.19 130.44 132.78 131.41 133.13 132.25 C 133.48 133.10 134.45 133.50 135.29 133.16 Z M 136.25 132.76 L 137.20 132.34 C 138.03 131.96 138.41 130.99 138.04 130.15 C 137.67 129.32 136.69 128.94 135.85 129.31 L 134.90 129.74 C 134.07 130.11 133.69 131.09 134.07 131.92 C 134.44 132.76 135.41 133.13 136.25 132.76 Z M 137.21 132.33 L 138.10 131.92 C 138.93 131.55 139.30 130.57 138.92 129.74 C 138.54 128.91 137.57 128.54 136.74 128.92 L 135.85 129.32 C 135.02 129.70 134.65 130.68 135.02 131.51 C 135.40 132.34 136.38 132.70 137.21 132.33 Z M 138.10 131.92 L 139.03 131.50 C 139.86 131.12 140.23 130.15 139.85 129.32 C 139.47 128.49 138.50 128.12 137.67 128.50 L 136.74 128.92 C 135.91 129.29 135.54 130.27 135.92 131.10 C 136.29 131.93 137.27 132.30 138.10 131.92 Z M 139.02 131.50 L 139.95 131.09 C 140.78 130.72 141.15 129.75 140.78 128.92 C 140.41 128.09 139.44 127.71 138.61 128.08 L 137.68 128.50 C 136.85 128.86 136.48 129.84 136.85 130.67 C 137.21 131.50 138.19 131.87 139.02 131.50 Z M 139.93 131.10 L 140.90 130.68 C 141.74 130.32 142.13 129.35 141.77 128.52 C 141.41 127.68 140.44 127.30 139.61 127.65 L 138.63 128.07 C 137.80 128.43 137.41 129.40 137.77 130.23 C 138.13 131.07 139.09 131.45 139.93 131.10 Z M 140.87 130.69 L 141.82 130.31 C 142.66 129.98 143.07 129.02 142.73 128.18 C 142.40 127.33 141.44 126.92 140.60 127.26 L 139.65 127.64 C 138.80 127.98 138.39 128.93 138.73 129.78 C 139.07 130.62 140.02 131.03 140.87 130.69 Z M 141.76 130.33 L 142.65 130.02 C 143.51 129.71 143.95 128.77 143.65 127.91 C 143.34 127.06 142.40 126.61 141.55 126.92 L 140.65 127.24 C 139.80 127.54 139.35 128.49 139.66 129.34 C 139.97 130.20 140.91 130.64 141.76 130.33 Z M 142.55 130.07 L 143.64 129.76 C 144.52 129.51 145.04 128.59 144.79 127.70 C 144.54 126.82 143.61 126.30 142.73 126.56 L 141.64 126.86 C 140.76 127.12 140.25 128.04 140.50 128.92 C 140.75 129.81 141.67 130.32 142.55 130.07 Z M 143.21 129.88 L 144.14 129.86 C 145.09 129.84 145.85 129.06 145.83 128.11 C 145.82 127.17 145.03 126.41 144.09 126.43 L 143.16 126.44 C 142.21 126.46 141.45 127.24 141.47 128.19 C 141.48 129.13 142.27 129.89 143.21 129.88 Z M 142.57 129.00 L 142.88 129.57 C 143.35 130.42 144.43 130.73 145.29 130.25 C 146.14 129.78 146.45 128.70 145.98 127.84 L 145.66 127.28 C 145.19 126.43 144.11 126.12 143.25 126.59 C 142.40 127.07 142.09 128.15 142.57 129.00 Z M 142.66 128.33 L 142.44 129.32 C 142.24 130.30 142.86 131.26 143.84 131.47 C 144.82 131.68 145.78 131.05 145.99 130.08 L 146.20 129.08 C 146.41 128.10 145.78 127.14 144.80 126.93 C 143.83 126.73 142.86 127.35 142.66 128.33 Z M 142.53 128.97 L 142.08 130.01 C 141.67 130.94 142.10 132.03 143.04 132.43 C 143.97 132.83 145.05 132.40 145.45 131.47 L 145.90 130.43 C 146.31 129.49 145.88 128.41 144.94 128.01 C 144.01 127.61 142.93 128.04 142.53 128.97 Z M 142.14 129.84 L 141.66 130.70 C 141.16 131.60 141.48 132.73 142.38 133.23 C 143.27 133.73 144.40 133.41 144.90 132.51 L 145.38 131.65 C 145.88 130.75 145.56 129.62 144.67 129.12 C 143.77 128.62 142.64 128.94 142.14 129.84 Z M 141.71 130.61 L 141.17 131.45 C 140.62 132.32 140.88 133.47 141.74 134.02 C 142.61 134.57 143.76 134.32 144.31 133.45 L 144.85 132.61 C 145.40 131.74 145.15 130.59 144.28 130.04 C 143.41 129.49 142.26 129.74 141.71 130.61 Z M 141.19 131.41 L 140.63 132.25 C 140.06 133.11 140.29 134.27 141.15 134.84 C 142.00 135.41 143.16 135.18 143.73 134.33 L 144.29 133.49 C 144.87 132.63 144.64 131.47 143.78 130.90 C 142.92 130.33 141.77 130.56 141.19 131.41 Z M 140.64 132.25 L 140.07 133.09 C 139.49 133.94 139.72 135.10 140.57 135.67 C 141.43 136.25 142.59 136.02 143.16 135.17 L 143.73 134.33 C 144.30 133.48 144.08 132.32 143.23 131.74 C 142.37 131.17 141.21 131.39 140.64 132.25 Z M 140.07 133.09 L 139.52 133.90 C 138.95 134.76 139.17 135.91 140.02 136.49 C 140.87 137.06 142.03 136.84 142.61 135.99 L 143.16 135.17 C 143.74 134.32 143.51 133.16 142.66 132.58 C 141.81 132.01 140.65 132.23 140.07 133.09 Z M 139.52 133.91 L 138.99 134.69 C 138.42 135.54 138.64 136.70 139.50 137.27 C 140.35 137.85 141.50 137.62 142.08 136.77 L 142.61 135.99 C 143.18 135.13 142.96 133.98 142.10 133.40 C 141.25 132.83 140.10 133.05 139.52 133.91 Z M 139.00 134.68 L 138.45 135.49 C 137.88 136.34 138.09 137.49 138.94 138.07 C 139.79 138.65 140.94 138.43 141.52 137.58 L 142.07 136.77 C 142.65 135.93 142.43 134.77 141.58 134.20 C 140.73 133.62 139.58 133.84 139.00 134.68 Z M 138.47 135.48 L 137.86 136.34 C 137.28 137.18 137.48 138.33 138.32 138.92 C 139.16 139.51 140.31 139.30 140.90 138.46 L 141.50 137.60 C 142.09 136.76 141.88 135.60 141.05 135.02 C 140.21 134.43 139.05 134.64 138.47 135.48 Z M 137.88 136.33 L 137.32 137.11 C 136.72 137.94 136.91 139.10 137.74 139.69 C 138.57 140.28 139.73 140.09 140.32 139.26 L 140.88 138.48 C 141.48 137.65 141.28 136.49 140.45 135.90 C 139.63 135.31 138.47 135.50 137.88 136.33 Z M 137.33 137.10 L 136.73 137.93 C 136.13 138.75 136.31 139.91 137.13 140.51 C 137.95 141.10 139.10 140.92 139.70 140.10 L 140.31 139.27 C 140.91 138.45 140.73 137.30 139.90 136.70 C 139.08 136.10 137.93 136.28 137.33 137.10 Z M 136.74 137.92 L 136.13 138.74 C 135.52 139.56 135.69 140.71 136.50 141.32 C 137.32 141.92 138.47 141.75 139.08 140.94 L 139.69 140.11 C 140.30 139.30 140.13 138.15 139.31 137.54 C 138.50 136.94 137.34 137.10 136.74 137.92 Z M 136.14 138.73 L 135.57 139.48 C 134.96 140.29 135.11 141.44 135.92 142.05 C 136.73 142.66 137.88 142.51 138.49 141.70 L 139.06 140.95 C 139.68 140.15 139.52 138.99 138.71 138.38 C 137.91 137.77 136.76 137.92 136.14 138.73 Z M 135.59 139.46 L 135.03 140.17 C 134.41 140.97 134.55 142.12 135.34 142.74 C 136.14 143.37 137.29 143.23 137.91 142.43 L 138.47 141.72 C 139.10 140.93 138.96 139.77 138.16 139.15 C 137.37 138.53 136.22 138.66 135.59 139.46 Z M 135.06 140.15 L 134.44 140.90 C 133.81 141.69 133.93 142.84 134.71 143.47 C 135.49 144.11 136.64 143.99 137.28 143.21 L 137.89 142.45 C 138.53 141.67 138.41 140.52 137.63 139.88 C 136.84 139.25 135.69 139.37 135.06 140.15 Z M 134.46 140.89 L 133.74 141.75 C 133.09 142.52 133.19 143.67 133.97 144.32 C 134.74 144.97 135.89 144.86 136.54 144.09 L 137.26 143.23 C 137.91 142.45 137.80 141.30 137.03 140.66 C 136.26 140.01 135.11 140.11 134.46 140.89 Z M 133.75 141.74 L 133.10 142.50 C 132.45 143.26 132.54 144.41 133.31 145.07 C 134.07 145.72 135.22 145.63 135.87 144.86 L 136.52 144.10 C 137.17 143.34 137.08 142.19 136.32 141.54 C 135.55 140.88 134.40 140.98 133.75 141.74 Z M 133.11 142.49 L 132.46 143.26 C 131.80 144.01 131.89 145.16 132.65 145.82 C 133.40 146.47 134.55 146.39 135.21 145.63 L 135.86 144.87 C 136.52 144.11 136.44 142.96 135.68 142.31 C 134.92 141.65 133.77 141.73 133.11 142.49 Z M 132.47 143.25 L 131.78 144.04 C 131.12 144.80 131.20 145.94 131.95 146.60 C 132.71 147.26 133.85 147.18 134.51 146.42 L 135.20 145.63 C 135.86 144.88 135.78 143.73 135.02 143.08 C 134.27 142.42 133.12 142.50 132.47 143.25 Z M 131.79 144.04 L 131.09 144.82 C 130.43 145.57 130.50 146.72 131.25 147.38 C 132.00 148.04 133.15 147.96 133.81 147.22 L 134.50 146.43 C 135.16 145.68 135.09 144.54 134.34 143.88 C 133.59 143.22 132.45 143.29 131.79 144.04 Z M 131.10 144.82 L 130.43 145.57 C 129.77 146.31 129.83 147.45 130.58 148.11 C 131.32 148.78 132.46 148.71 133.13 147.97 L 133.80 147.22 C 134.46 146.48 134.39 145.34 133.65 144.67 C 132.91 144.01 131.77 144.07 131.10 144.82 Z M 130.45 145.56 L 129.76 146.32 C 129.09 147.05 129.14 148.19 129.88 148.86 C 130.61 149.53 131.75 149.48 132.42 148.74 L 133.11 147.98 C 133.78 147.24 133.73 146.11 132.99 145.44 C 132.26 144.77 131.12 144.82 130.45 145.56 Z M 129.78 146.30 L 128.98 147.16 C 128.31 147.88 128.34 149.01 129.06 149.69 C 129.78 150.37 130.92 150.33 131.59 149.61 L 132.39 148.75 C 133.07 148.03 133.03 146.90 132.31 146.22 C 131.59 145.55 130.46 145.58 129.78 146.30 Z M 129.01 147.15 L 128.33 147.85 C 127.65 148.55 127.67 149.67 128.37 150.36 C 129.08 151.04 130.20 151.02 130.88 150.32 L 131.56 149.62 C 132.25 148.92 132.23 147.79 131.52 147.11 C 130.82 146.42 129.70 146.44 129.01 147.15 Z M 128.36 147.84 L 127.76 148.44 C 127.07 149.13 127.08 150.25 127.77 150.93 C 128.46 151.62 129.57 151.62 130.26 150.93 L 130.86 150.33 C 131.55 149.64 131.54 148.52 130.85 147.83 C 130.16 147.15 129.05 147.15 128.36 147.84 Z M 127.77 148.45 L 127.09 149.14 C 126.40 149.82 126.41 150.93 127.09 151.61 C 127.77 152.29 128.88 152.29 129.56 151.61 L 130.25 150.92 C 130.93 150.24 130.93 149.13 130.24 148.45 C 129.56 147.76 128.45 147.77 127.77 148.45 Z M 127.06 149.19 L 126.36 149.94 C 125.71 150.64 125.75 151.73 126.45 152.39 C 127.15 153.04 128.25 153.00 128.90 152.29 L 129.59 151.55 C 130.24 150.85 130.20 149.75 129.50 149.10 C 128.80 148.45 127.71 148.49 127.06 149.19 Z M 126.27 150.08 L 125.70 150.83 C 125.13 151.58 125.27 152.66 126.03 153.23 C 126.78 153.80 127.86 153.65 128.43 152.90 L 129.00 152.15 C 129.57 151.40 129.42 150.32 128.67 149.75 C 127.92 149.18 126.84 149.33 126.27 150.08 Z M 125.56 151.08 L 125.09 151.99 C 124.66 152.82 124.99 153.84 125.82 154.27 C 126.65 154.70 127.67 154.38 128.10 153.55 L 128.57 152.64 C 129.00 151.81 128.68 150.79 127.85 150.36 C 127.01 149.93 125.99 150.25 125.56 151.08 Z M 125.02 152.20 L 124.69 153.13 C 124.38 154.00 124.83 154.96 125.70 155.27 C 126.57 155.58 127.53 155.13 127.84 154.26 L 128.17 153.33 C 128.48 152.46 128.03 151.50 127.16 151.19 C 126.29 150.88 125.33 151.33 125.02 152.20 Z M 124.69 153.19 L 124.61 153.42 C 124.33 154.30 124.81 155.23 125.69 155.51 C 126.56 155.79 127.49 155.30 127.77 154.43 L 127.85 154.20 C 128.12 153.32 127.64 152.39 126.77 152.11 C 125.90 151.83 124.96 152.32 124.69 153.19 Z"
      fill="black"
      fill-rule="nonzero" /><path d="M 135.66 149.30 L 134.66 149.30 C 133.78 149.30 133.07 150.01 133.07 150.89 C 133.07 151.77 133.78 152.49 134.66 152.49 L 135.66 152.49 C 136.54 152.49 137.26 151.77 137.26 150.89 C 137.26 150.01 136.54 149.30 135.66 149.30 Z M 134.66 149.30 L 133.68 149.30 C 132.80 149.30 132.09 150.01 132.09 150.89 C 132.09 151.77 132.80 152.49 133.68 152.49 L 134.66 152.49 C 135.54 152.49 136.26 151.77 136.26 150.89 C 136.26 150.01 135.54 149.30 134.66 149.30 Z"
      fill="black"
      fill-rule="nonzero" /><path d="M 135.28 145.37 L 134.48 146.01 C 133.68 146.64 133.54 147.81 134.18 148.62 C 134.81 149.42 135.98 149.56 136.79 148.92 L 137.59 148.28 C 138.39 147.65 138.53 146.48 137.89 145.68 C 137.25 144.87 136.08 144.74 135.28 145.37 Z M 134.19 146.20 L 133.55 146.94 C 132.85 147.74 132.94 148.95 133.73 149.64 C 134.53 150.34 135.74 150.25 136.43 149.46 L 137.07 148.72 C 137.77 147.93 137.69 146.72 136.89 146.02 C 136.10 145.33 134.89 145.41 134.19 146.20 Z M 133.17 147.49 L 132.83 148.36 C 132.44 149.36 132.94 150.49 133.95 150.88 C 134.96 151.27 136.09 150.77 136.48 149.77 L 136.81 148.91 C 137.20 147.90 136.70 146.77 135.70 146.38 C 134.69 145.99 133.56 146.49 133.17 147.49 Z M 132.69 148.85 L 132.58 149.84 C 132.47 150.92 133.25 151.90 134.34 152.01 C 135.42 152.13 136.40 151.35 136.51 150.26 L 136.62 149.27 C 136.74 148.19 135.96 147.21 134.87 147.10 C 133.79 146.98 132.81 147.76 132.69 148.85 Z M 132.56 150.03 L 132.55 151.08 C 132.54 152.18 133.42 153.08 134.52 153.09 C 135.62 153.10 136.52 152.22 136.53 151.12 L 136.54 150.07 C 136.55 148.97 135.67 148.07 134.57 148.06 C 133.47 148.05 132.57 148.93 132.56 150.03 Z M 132.54 151.10 L 132.54 152.05 C 132.54 153.15 133.43 154.05 134.54 154.05 C 135.64 154.05 136.54 153.15 136.54 152.05 L 136.54 151.10 C 136.54 149.99 135.64 149.10 134.54 149.10 C 133.43 149.10 132.54 149.99 132.54 151.10 Z M 132.53 152.05 L 132.53 153.05 C 132.53 154.16 133.43 155.05 134.54 155.05 C 135.65 155.05 136.54 154.16 136.54 153.05 L 136.54 152.05 C 136.54 150.94 135.65 150.04 134.54 150.04 C 133.43 150.04 132.53 150.94 132.53 152.05 Z M 132.53 153.05 L 132.53 154.11 C 132.53 155.22 133.43 156.12 134.54 156.12 C 135.65 156.12 136.55 155.22 136.55 154.11 L 136.55 153.05 C 136.55 151.94 135.65 151.04 134.54 151.04 C 133.43 151.04 132.53 151.94 132.53 153.05 Z M 132.53 154.11 L 132.53 155.13 C 132.53 156.24 133.43 157.14 134.54 157.14 C 135.65 157.14 136.55 156.24 136.55 155.13 L 136.55 154.11 C 136.55 153.00 135.65 152.10 134.54 152.10 C 133.43 152.10 132.53 153.00 132.53 154.11 Z M 132.53 155.13 L 132.53 156.16 C 132.53 157.27 133.43 158.17 134.54 158.17 C 135.65 158.17 136.55 157.27 136.55 156.16 L 136.55 155.13 C 136.55 154.02 135.65 153.12 134.54 153.12 C 133.43 153.12 132.53 154.02 132.53 155.13 Z M 132.53 156.16 L 132.53 157.13 C 132.53 158.25 133.43 159.15 134.54 159.15 C 135.65 159.15 136.55 158.25 136.55 157.13 L 136.55 156.16 C 136.55 155.04 135.65 154.14 134.54 154.14 C 133.43 154.14 132.53 155.04 132.53 156.16 Z M 132.53 157.13 L 132.53 158.19 C 132.53 159.30 133.43 160.20 134.54 160.20 C 135.65 160.20 136.55 159.30 136.55 158.19 L 136.55 157.13 C 136.55 156.02 135.65 155.12 134.54 155.12 C 133.43 155.12 132.53 156.02 132.53 157.13 Z M 132.53 158.19 L 132.53 159.17 C 132.53 160.28 133.43 161.19 134.54 161.19 C 135.65 161.19 136.55 160.28 136.55 159.17 L 136.55 158.19 C 136.55 157.07 135.65 156.17 134.54 156.17 C 133.43 156.17 132.53 157.07 132.53 158.19 Z M 132.53 159.17 L 132.53 160.11 C 132.53 161.22 133.43 162.12 134.54 162.12 C 135.65 162.12 136.55 161.22 136.55 160.11 L 136.55 159.17 C 136.55 158.06 135.65 157.16 134.54 157.16 C 133.43 157.16 132.53 158.06 132.53 159.17 Z M 132.53 160.11 L 132.53 161.10 C 132.53 162.21 133.43 163.11 134.54 163.11 C 135.65 163.11 136.55 162.21 136.55 161.10 L 136.55 160.11 C 136.55 159.00 135.65 158.10 134.54 158.10 C 133.43 158.10 132.53 159.00 132.53 160.11 Z M 132.53 161.10 L 132.53 162.11 C 132.53 163.22 133.43 164.11 134.54 164.11 C 135.65 164.11 136.55 163.22 136.55 162.11 L 136.55 161.10 C 136.55 159.99 135.65 159.09 134.54 159.09 C 133.43 159.09 132.53 159.99 132.53 161.10 Z M 132.53 162.11 L 132.53 163.11 C 132.53 164.21 133.43 165.11 134.54 165.11 C 135.65 165.11 136.54 164.22 136.54 163.11 L 136.54 162.11 C 136.54 161.00 135.65 160.10 134.54 160.10 C 133.43 160.10 132.53 161.00 132.53 162.11 Z M 132.54 163.09 L 132.53 164.09 C 132.52 165.20 133.41 166.10 134.52 166.11 C 135.62 166.11 136.53 165.22 136.53 164.12 L 136.54 163.12 C 136.55 162.01 135.66 161.11 134.55 161.10 C 133.45 161.10 132.54 161.99 132.54 163.09 Z M 132.53 164.05 L 132.51 165.06 C 132.48 166.17 133.35 167.08 134.46 167.11 C 135.56 167.14 136.48 166.27 136.51 165.16 L 136.53 164.15 C 136.56 163.05 135.69 162.13 134.58 162.10 C 133.48 162.08 132.56 162.95 132.53 164.05 Z M 132.51 165.01 L 132.46 166.03 C 132.41 167.13 133.26 168.07 134.36 168.12 C 135.46 168.18 136.40 167.33 136.45 166.23 L 136.50 165.21 C 136.55 164.11 135.71 163.17 134.60 163.12 C 133.50 163.06 132.57 163.91 132.51 165.01 Z M 132.47 166.01 L 132.41 167.01 C 132.34 168.10 133.17 169.05 134.27 169.12 C 135.37 169.19 136.31 168.35 136.38 167.25 L 136.44 166.25 C 136.51 165.15 135.68 164.21 134.58 164.14 C 133.48 164.07 132.54 164.91 132.47 166.01 Z M 132.41 167.01 L 132.36 167.94 C 132.29 169.03 133.12 169.97 134.22 170.04 C 135.31 170.10 136.26 169.27 136.32 168.17 L 136.38 167.25 C 136.44 166.15 135.61 165.21 134.51 165.15 C 133.42 165.08 132.48 165.92 132.41 167.01 Z M 132.36 167.95 L 132.31 168.85 C 132.25 169.95 133.09 170.88 134.18 170.94 C 135.28 171.00 136.21 170.16 136.27 169.07 L 136.32 168.16 C 136.37 167.07 135.54 166.14 134.44 166.08 C 133.35 166.02 132.42 166.86 132.36 167.95 Z M 132.32 168.85 L 132.26 169.91 C 132.20 171.00 133.03 171.93 134.11 172.00 C 135.20 172.06 136.13 171.23 136.20 170.14 L 136.26 169.07 C 136.32 167.99 135.49 167.05 134.40 166.99 C 133.32 166.93 132.38 167.76 132.32 168.85 Z M 132.27 169.90 L 132.20 170.91 C 132.13 172.00 132.95 172.93 134.03 173.00 C 135.11 173.07 136.05 172.25 136.12 171.17 L 136.19 170.16 C 136.26 169.07 135.44 168.14 134.36 168.07 C 133.27 168.00 132.34 168.82 132.27 169.90 Z M 132.21 170.91 L 132.14 171.92 C 132.07 172.99 132.88 173.93 133.96 174.00 C 135.04 174.07 135.98 173.26 136.05 172.18 L 136.12 171.17 C 136.19 170.09 135.37 169.16 134.29 169.09 C 133.21 169.01 132.28 169.83 132.21 170.91 Z M 132.14 171.93 L 132.08 172.98 C 132.01 174.05 132.83 174.98 133.91 175.04 C 134.99 175.11 135.91 174.29 135.98 173.21 L 136.04 172.17 C 136.11 171.09 135.29 170.16 134.21 170.10 C 133.14 170.03 132.21 170.85 132.14 171.93 Z M 132.08 173.00 L 132.04 174.02 C 131.99 175.09 132.82 176.01 133.89 176.06 C 134.96 176.11 135.88 175.28 135.93 174.20 L 135.98 173.19 C 136.03 172.11 135.20 171.20 134.12 171.15 C 133.05 171.10 132.14 171.93 132.08 173.00 Z M 132.05 174.07 L 132.03 175.16 C 132.01 176.22 132.86 177.10 133.92 177.13 C 134.99 177.15 135.87 176.30 135.89 175.23 L 135.91 174.15 C 135.93 173.09 135.09 172.20 134.02 172.18 C 132.95 172.16 132.07 173.01 132.05 174.07 Z M 132.07 175.23 L 132.09 176.26 C 132.11 177.31 132.97 178.14 134.01 178.12 C 135.06 178.10 135.89 177.24 135.87 176.19 L 135.85 175.16 C 135.83 174.12 134.97 173.29 133.93 173.31 C 132.88 173.33 132.05 174.19 132.07 175.23 Z M 132.14 176.32 L 132.19 177.25 C 132.24 178.26 133.10 179.05 134.12 178.99 C 135.14 178.94 135.92 178.08 135.87 177.06 L 135.82 176.14 C 135.77 175.12 134.90 174.34 133.89 174.39 C 132.87 174.44 132.09 175.31 132.14 176.32 Z M 132.22 177.27 L 132.25 177.73 C 132.32 178.73 133.17 179.49 134.17 179.42 C 135.17 179.36 135.92 178.50 135.86 177.50 L 135.83 177.04 C 135.77 176.04 134.91 175.29 133.91 175.35 C 132.91 175.41 132.16 176.27 132.22 177.27 Z"
      fill="black"
      fill-rule="nonzero" /><path d="M 136.02 145.62 L 135.94 146.64 C 135.86 147.64 136.60 148.52 137.61 148.61 C 138.62 148.69 139.50 147.94 139.58 146.94 L 139.67 145.93 C 139.75 144.92 139.00 144.04 138.00 143.95 C 136.99 143.87 136.11 144.62 136.02 145.62 Z M 135.83 147.15 L 136.01 148.10 C 136.21 149.16 137.24 149.86 138.30 149.66 C 139.37 149.46 140.07 148.44 139.87 147.37 L 139.69 146.42 C 139.49 145.36 138.46 144.66 137.40 144.86 C 136.33 145.06 135.63 146.08 135.83 147.15 Z M 136.31 148.97 L 136.87 149.71 C 137.55 150.61 138.83 150.79 139.74 150.11 C 140.64 149.43 140.81 148.15 140.13 147.25 L 139.57 146.50 C 138.89 145.60 137.61 145.42 136.71 146.11 C 135.81 146.79 135.63 148.07 136.31 148.97 Z M 137.28 150.13 L 138.10 150.74 C 139.01 151.42 140.30 151.23 140.98 150.31 C 141.65 149.40 141.46 148.11 140.55 147.43 L 139.73 146.83 C 138.81 146.15 137.53 146.34 136.85 147.25 C 136.17 148.17 136.36 149.46 137.28 150.13 Z M 138.32 150.88 L 139.22 151.39 C 140.21 151.94 141.46 151.59 142.02 150.60 C 142.58 149.61 142.22 148.36 141.23 147.80 L 140.33 147.30 C 139.34 146.74 138.09 147.09 137.53 148.08 C 136.98 149.07 137.33 150.32 138.32 150.88 Z M 139.34 151.43 L 140.24 151.86 C 141.26 152.35 142.47 151.92 142.96 150.91 C 143.45 149.90 143.02 148.68 142.01 148.19 L 141.11 147.76 C 140.10 147.27 138.88 147.70 138.39 148.71 C 137.91 149.73 138.33 150.94 139.34 151.43 Z M 140.37 151.88 L 141.28 152.25 C 142.30 152.67 143.47 152.18 143.89 151.16 C 144.31 150.14 143.82 148.97 142.79 148.55 L 141.88 148.18 C 140.86 147.76 139.69 148.25 139.27 149.27 C 138.85 150.29 139.34 151.46 140.37 151.88 Z M 141.37 152.25 L 142.29 152.58 C 143.31 152.95 144.44 152.42 144.81 151.40 C 145.17 150.38 144.64 149.25 143.62 148.89 L 142.70 148.55 C 141.68 148.19 140.56 148.71 140.19 149.73 C 139.82 150.75 140.35 151.88 141.37 152.25 Z M 142.36 152.56 L 143.32 152.87 C 144.32 153.20 145.41 152.65 145.74 151.65 C 146.07 150.64 145.52 149.56 144.51 149.23 L 143.56 148.91 C 142.55 148.58 141.47 149.13 141.14 150.14 C 140.81 151.14 141.35 152.23 142.36 152.56 Z M 143.38 152.84 L 144.36 153.13 C 145.35 153.43 146.39 152.86 146.69 151.88 C 146.98 150.89 146.42 149.84 145.43 149.55 L 144.45 149.26 C 143.46 148.96 142.42 149.52 142.12 150.51 C 141.83 151.50 142.39 152.54 143.38 152.84 Z M 144.43 153.08 L 145.43 153.35 C 146.39 153.60 147.38 153.03 147.63 152.07 C 147.89 151.10 147.32 150.12 146.35 149.86 L 145.36 149.60 C 144.40 149.34 143.41 149.91 143.15 150.88 C 142.90 151.84 143.47 152.83 144.43 153.08 Z M 145.49 153.27 L 146.46 153.50 C 147.38 153.72 148.31 153.15 148.53 152.23 C 148.75 151.31 148.18 150.38 147.26 150.16 L 146.29 149.93 C 145.36 149.71 144.44 150.29 144.22 151.21 C 144.00 152.13 144.57 153.06 145.49 153.27 Z M 146.50 153.42 L 147.36 153.62 C 148.23 153.81 149.11 153.26 149.30 152.38 C 149.50 151.50 148.95 150.63 148.07 150.43 L 147.21 150.24 C 146.34 150.05 145.46 150.60 145.27 151.48 C 145.07 152.36 145.62 153.23 146.50 153.42 Z"
      fill="black"
      fill-rule="nonzero" /><path d="M 154.96 131.20 L 155.85 130.97 C 156.80 130.73 157.37 129.77 157.13 128.82 C 156.88 127.88 155.92 127.31 154.98 127.55 L 154.08 127.78 C 153.14 128.02 152.57 128.99 152.81 129.93 C 153.05 130.88 154.02 131.44 154.96 131.20 Z M 155.90 130.96 L 156.84 130.69 C 157.78 130.42 158.32 129.44 158.05 128.51 C 157.78 127.57 156.81 127.03 155.87 127.30 L 154.93 127.57 C 153.99 127.84 153.45 128.81 153.72 129.75 C 153.99 130.69 154.97 131.23 155.90 130.96 Z M 156.93 130.66 L 157.96 130.31 C 158.89 130.00 159.38 128.99 159.07 128.07 C 158.75 127.15 157.75 126.65 156.83 126.97 L 155.79 127.32 C 154.86 127.64 154.37 128.64 154.68 129.56 C 155.00 130.49 156.00 130.98 156.93 130.66 Z M 158.04 130.28 L 158.92 129.94 C 159.83 129.58 160.27 128.56 159.92 127.65 C 159.56 126.74 158.54 126.30 157.63 126.65 L 156.75 127.00 C 155.84 127.35 155.40 128.38 155.75 129.28 C 156.11 130.19 157.13 130.64 158.04 130.28 Z M 158.96 129.92 L 159.89 129.53 C 160.78 129.15 161.21 128.12 160.83 127.22 C 160.46 126.33 159.42 125.91 158.53 126.28 L 157.60 126.67 C 156.70 127.05 156.28 128.08 156.65 128.97 C 157.03 129.87 158.06 130.29 158.96 129.92 Z M 159.90 129.52 L 160.85 129.11 C 161.74 128.73 162.15 127.69 161.77 126.80 C 161.39 125.91 160.35 125.50 159.46 125.88 L 158.51 126.29 C 157.62 126.67 157.21 127.71 157.59 128.60 C 157.98 129.49 159.01 129.90 159.90 129.52 Z M 160.84 129.11 L 161.78 128.71 C 162.67 128.33 163.09 127.30 162.71 126.41 C 162.33 125.52 161.29 125.10 160.40 125.48 L 159.47 125.88 C 158.58 126.26 158.16 127.29 158.54 128.19 C 158.92 129.08 159.95 129.49 160.84 129.11 Z M 161.75 128.72 L 162.76 128.31 C 163.66 127.94 164.08 126.92 163.72 126.02 C 163.35 125.13 162.33 124.70 161.44 125.07 L 160.43 125.48 C 159.54 125.84 159.11 126.86 159.47 127.76 C 159.84 128.65 160.86 129.08 161.75 128.72 Z M 162.72 128.32 L 163.66 127.97 C 164.57 127.62 165.02 126.62 164.68 125.71 C 164.34 124.81 163.33 124.35 162.43 124.69 L 161.48 125.05 C 160.58 125.39 160.12 126.40 160.46 127.30 C 160.80 128.21 161.81 128.66 162.72 128.32 Z M 163.59 127.99 L 164.49 127.69 C 165.40 127.39 165.90 126.40 165.60 125.48 C 165.29 124.57 164.30 124.07 163.39 124.38 L 162.50 124.67 C 161.58 124.97 161.08 125.96 161.39 126.88 C 161.69 127.79 162.68 128.29 163.59 127.99 Z M 164.38 127.74 L 165.43 127.46 C 166.37 127.22 166.94 126.26 166.70 125.32 C 166.45 124.38 165.49 123.82 164.55 124.06 L 163.50 124.33 C 162.56 124.57 161.99 125.53 162.23 126.47 C 162.48 127.41 163.44 127.98 164.38 127.74 Z M 165.15 127.55 L 166.18 127.46 C 167.17 127.37 167.89 126.50 167.81 125.51 C 167.72 124.52 166.85 123.79 165.86 123.88 L 164.83 123.97 C 163.85 124.06 163.12 124.93 163.21 125.92 C 163.29 126.91 164.17 127.64 165.15 127.55 Z M 165.32 127.36 L 166.01 127.65 C 166.95 128.04 168.02 127.60 168.41 126.66 C 168.80 125.72 168.35 124.65 167.42 124.26 L 166.72 123.97 C 165.79 123.58 164.71 124.03 164.32 124.97 C 163.94 125.90 164.38 126.98 165.32 127.36 Z M 164.93 126.51 L 165.19 127.33 C 165.49 128.31 166.54 128.86 167.52 128.56 C 168.51 128.25 169.05 127.20 168.75 126.22 L 168.49 125.40 C 168.19 124.42 167.14 123.87 166.16 124.18 C 165.17 124.48 164.63 125.53 164.93 126.51 Z M 165.10 126.57 L 164.97 127.72 C 164.86 128.75 165.61 129.68 166.64 129.79 C 167.68 129.90 168.60 129.15 168.72 128.12 L 168.84 126.98 C 168.95 125.94 168.20 125.02 167.17 124.90 C 166.14 124.79 165.21 125.54 165.10 126.57 Z M 165.01 127.47 L 164.78 128.42 C 164.53 129.43 165.15 130.45 166.17 130.70 C 167.18 130.95 168.20 130.33 168.45 129.31 L 168.68 128.37 C 168.93 127.35 168.31 126.33 167.29 126.08 C 166.28 125.83 165.25 126.46 165.01 127.47 Z M 164.80 128.33 L 164.51 129.31 C 164.22 130.31 164.79 131.37 165.79 131.66 C 166.79 131.95 167.85 131.38 168.14 130.38 L 168.43 129.40 C 168.72 128.39 168.15 127.34 167.15 127.05 C 166.14 126.75 165.09 127.33 164.80 128.33 Z M 164.51 129.29 L 164.22 130.27 C 163.91 131.27 164.48 132.32 165.48 132.63 C 166.48 132.93 167.54 132.37 167.84 131.37 L 168.14 130.39 C 168.44 129.39 167.88 128.34 166.88 128.03 C 165.88 127.73 164.82 128.29 164.51 129.29 Z M 164.21 130.30 L 163.93 131.28 C 163.64 132.29 164.23 133.33 165.23 133.62 C 166.24 133.90 167.29 133.32 167.57 132.32 L 167.85 131.34 C 168.14 130.33 167.55 129.28 166.55 129.00 C 165.54 128.71 164.49 129.29 164.21 130.30 Z M 163.92 131.31 L 163.67 132.26 C 163.40 133.27 163.99 134.31 165.00 134.58 C 166.01 134.85 167.05 134.25 167.32 133.24 L 167.58 132.29 C 167.85 131.28 167.25 130.24 166.24 129.97 C 165.23 129.70 164.19 130.30 163.92 131.31 Z M 163.67 132.26 L 163.42 133.21 C 163.15 134.22 163.75 135.25 164.76 135.52 C 165.77 135.79 166.81 135.19 167.08 134.18 L 167.33 133.23 C 167.59 132.22 166.99 131.19 165.98 130.92 C 164.97 130.65 163.93 131.25 163.67 132.26 Z M 163.42 133.21 L 163.17 134.14 C 162.90 135.15 163.50 136.19 164.51 136.45 C 165.52 136.72 166.55 136.12 166.82 135.11 L 167.07 134.18 C 167.34 133.17 166.74 132.13 165.73 131.87 C 164.72 131.60 163.69 132.20 163.42 133.21 Z M 163.18 134.15 L 162.92 135.13 C 162.66 136.14 163.26 137.17 164.27 137.43 C 165.27 137.69 166.30 137.09 166.56 136.08 L 166.82 135.10 C 167.08 134.10 166.48 133.07 165.47 132.81 C 164.47 132.55 163.44 133.15 163.18 134.15 Z M 162.92 135.15 L 162.67 136.15 C 162.42 137.16 163.03 138.17 164.04 138.43 C 165.04 138.68 166.06 138.06 166.31 137.06 L 166.56 136.06 C 166.81 135.06 166.20 134.04 165.20 133.79 C 164.19 133.54 163.17 134.15 162.92 135.15 Z M 162.68 136.18 L 162.45 137.16 C 162.21 138.16 162.83 139.16 163.83 139.40 C 164.84 139.63 165.84 139.01 166.08 138.01 L 166.31 137.03 C 166.54 136.03 165.92 135.03 164.92 134.79 C 163.92 134.56 162.91 135.18 162.68 136.18 Z M 162.46 137.18 L 162.24 138.17 C 162.02 139.17 162.65 140.15 163.64 140.38 C 164.64 140.60 165.63 139.97 165.85 138.97 L 166.07 137.98 C 166.29 136.99 165.66 136.00 164.66 135.78 C 163.67 135.56 162.68 136.19 162.46 137.18 Z M 162.25 138.20 L 162.05 139.17 C 161.84 140.17 162.48 141.14 163.47 141.34 C 164.46 141.55 165.43 140.91 165.64 139.92 L 165.84 138.94 C 166.05 137.95 165.41 136.98 164.41 136.77 C 163.42 136.57 162.45 137.21 162.25 138.20 Z M 162.07 139.21 L 161.88 140.22 C 161.69 141.20 162.34 142.14 163.31 142.33 C 164.29 142.51 165.24 141.87 165.42 140.89 L 165.62 139.88 C 165.80 138.90 165.16 137.96 164.18 137.77 C 163.20 137.59 162.25 138.23 162.07 139.21 Z M 161.91 140.25 L 161.74 141.22 C 161.57 142.18 162.21 143.10 163.17 143.27 C 164.13 143.43 165.05 142.79 165.22 141.84 L 165.39 140.86 C 165.56 139.90 164.92 138.99 163.96 138.82 C 163.00 138.65 162.08 139.29 161.91 140.25 Z M 161.78 141.24 L 161.64 142.09 C 161.48 143.03 162.11 143.92 163.05 144.08 C 163.98 144.24 164.87 143.61 165.03 142.67 L 165.18 141.82 C 165.34 140.88 164.71 139.99 163.77 139.83 C 162.83 139.67 161.94 140.30 161.78 141.24 Z"
      fill="black"
      fill-rule="nonzero" /><path d="M 155.05 149.22 L 155.83 148.60 C 156.58 148.01 156.71 146.91 156.12 146.16 C 155.52 145.41 154.43 145.28 153.67 145.87 L 152.89 146.49 C 152.13 147.09 152.01 148.18 152.60 148.94 C 153.20 149.69 154.29 149.82 155.05 149.22 Z M 155.84 148.65 L 156.63 148.04 C 157.42 147.44 157.56 146.32 156.96 145.54 C 156.36 144.76 155.23 144.61 154.45 145.21 L 153.66 145.82 C 152.88 146.43 152.73 147.55 153.34 148.33 C 153.94 149.11 155.06 149.26 155.84 148.65 Z M 156.63 148.10 L 157.43 147.52 C 158.24 146.92 158.42 145.77 157.82 144.95 C 157.22 144.14 156.07 143.96 155.26 144.56 L 154.46 145.15 C 153.64 145.75 153.47 146.90 154.07 147.71 C 154.67 148.53 155.81 148.70 156.63 148.10 Z M 157.40 147.56 L 158.16 147.02 C 159.00 146.44 159.21 145.29 158.63 144.45 C 158.04 143.62 156.89 143.41 156.06 143.99 L 155.29 144.52 C 154.45 145.11 154.25 146.26 154.83 147.09 C 155.41 147.93 156.56 148.14 157.40 147.56 Z M 158.14 147.02 L 158.95 146.47 C 159.79 145.90 160.01 144.76 159.44 143.92 C 158.87 143.09 157.73 142.87 156.90 143.44 L 156.08 143.99 C 155.24 144.56 155.03 145.70 155.59 146.54 C 156.16 147.37 157.30 147.59 158.14 147.02 Z M 158.95 146.45 L 159.84 145.84 C 160.67 145.27 160.88 144.14 160.32 143.31 C 159.75 142.49 158.61 142.27 157.79 142.84 L 156.90 143.45 C 156.07 144.02 155.86 145.15 156.43 145.98 C 156.99 146.81 158.13 147.02 158.95 146.45 Z M 159.85 145.81 L 160.68 145.23 C 161.49 144.66 161.68 143.54 161.11 142.73 C 160.54 141.92 159.41 141.72 158.60 142.29 L 157.78 142.88 C 156.97 143.45 156.78 144.57 157.35 145.38 C 157.92 146.19 159.04 146.38 159.85 145.81 Z M 160.67 145.19 L 161.51 144.59 C 162.30 144.02 162.48 142.92 161.91 142.13 C 161.35 141.34 160.25 141.16 159.46 141.73 L 158.61 142.33 C 157.82 142.90 157.64 144.00 158.21 144.79 C 158.78 145.58 159.88 145.76 160.67 145.19 Z M 161.49 144.56 L 162.31 143.97 C 163.09 143.41 163.26 142.33 162.71 141.56 C 162.15 140.78 161.07 140.61 160.30 141.16 L 159.47 141.76 C 158.70 142.31 158.52 143.39 159.08 144.17 C 159.64 144.94 160.72 145.12 161.49 144.56 Z M 162.29 143.94 L 163.09 143.37 C 163.85 142.83 164.03 141.77 163.48 141.01 C 162.94 140.25 161.89 140.07 161.13 140.62 L 160.33 141.19 C 159.56 141.73 159.39 142.78 159.93 143.54 C 160.47 144.31 161.53 144.48 162.29 143.94 Z M 163.05 143.35 L 163.94 142.73 C 164.69 142.21 164.88 141.18 164.36 140.43 C 163.84 139.68 162.81 139.50 162.06 140.01 L 161.17 140.64 C 160.42 141.16 160.23 142.18 160.75 142.93 C 161.27 143.68 162.30 143.87 163.05 143.35 Z M 163.90 142.71 L 164.68 142.18 C 165.42 141.69 165.61 140.69 165.12 139.95 C 164.62 139.22 163.62 139.02 162.89 139.51 L 162.11 140.04 C 161.37 140.53 161.17 141.53 161.67 142.27 C 162.16 143.01 163.16 143.20 163.90 142.71 Z M 164.65 142.16 L 165.06 141.89 C 165.79 141.41 165.99 140.43 165.51 139.71 C 165.03 138.98 164.05 138.79 163.32 139.27 L 162.91 139.54 C 162.19 140.02 161.99 140.99 162.47 141.72 C 162.95 142.44 163.93 142.64 164.65 142.16 Z"
      fill="black"
      fill-rule="nonzero" /><path d="M 153.25 131.45 L 153.98 132.11 C 154.65 132.72 155.68 132.67 156.29 132.00 C 156.89 131.33 156.84 130.30 156.17 129.69 L 155.44 129.03 C 154.77 128.42 153.74 128.47 153.13 129.14 C 152.53 129.81 152.58 130.84 153.25 131.45 Z M 153.63 131.84 L 154.17 132.66 C 154.69 133.46 155.75 133.69 156.55 133.17 C 157.34 132.66 157.57 131.59 157.06 130.80 L 156.52 129.97 C 156.00 129.17 154.94 128.95 154.14 129.46 C 153.35 129.98 153.12 131.04 153.63 131.84 Z M 153.87 132.05 L 154.03 132.93 C 154.21 133.89 155.14 134.53 156.10 134.35 C 157.06 134.17 157.70 133.25 157.52 132.29 L 157.36 131.41 C 157.18 130.44 156.25 129.81 155.29 129.99 C 154.33 130.17 153.69 131.09 153.87 132.05 Z M 153.99 132.53 L 153.95 133.51 C 153.90 134.49 154.66 135.33 155.65 135.37 C 156.63 135.42 157.47 134.66 157.51 133.67 L 157.56 132.69 C 157.60 131.71 156.84 130.87 155.86 130.83 C 154.87 130.78 154.04 131.54 153.99 132.53 Z M 153.96 133.34 L 153.81 134.43 C 153.67 135.40 154.34 136.31 155.32 136.45 C 156.29 136.59 157.20 135.91 157.34 134.94 L 157.50 133.85 C 157.64 132.87 156.96 131.97 155.98 131.83 C 155.01 131.69 154.10 132.36 153.96 133.34 Z M 153.81 134.38 L 153.63 135.41 C 153.47 136.38 154.12 137.30 155.09 137.47 C 156.06 137.64 156.99 136.99 157.15 136.02 L 157.33 134.99 C 157.50 134.01 156.85 133.09 155.88 132.92 C 154.91 132.75 153.98 133.40 153.81 134.38 Z M 153.64 135.39 L 153.45 136.40 C 153.28 137.37 153.92 138.30 154.89 138.48 C 155.86 138.65 156.79 138.01 156.97 137.04 L 157.15 136.03 C 157.33 135.06 156.68 134.13 155.71 133.95 C 154.74 133.78 153.81 134.42 153.64 135.39 Z M 153.45 136.40 L 153.28 137.37 C 153.10 138.34 153.74 139.27 154.71 139.45 C 155.68 139.62 156.61 138.98 156.79 138.01 L 156.97 137.04 C 157.15 136.07 156.50 135.14 155.53 134.96 C 154.56 134.79 153.63 135.43 153.45 136.40 Z M 153.28 137.37 L 153.10 138.37 C 152.92 139.34 153.57 140.27 154.54 140.44 C 155.51 140.62 156.44 139.97 156.62 139.00 L 156.79 138.00 C 156.97 137.03 156.32 136.10 155.35 135.93 C 154.38 135.76 153.45 136.40 153.28 137.37 Z M 153.10 138.38 L 152.93 139.37 C 152.76 140.34 153.42 141.26 154.39 141.43 C 155.36 141.59 156.29 140.94 156.45 139.97 L 156.62 138.98 C 156.78 138.01 156.13 137.09 155.16 136.92 C 154.18 136.76 153.26 137.41 153.10 138.38 Z M 152.93 139.39 L 152.78 140.34 C 152.62 141.31 153.29 142.23 154.26 142.38 C 155.24 142.53 156.15 141.87 156.31 140.89 L 156.46 139.94 C 156.61 138.97 155.94 138.05 154.97 137.90 C 153.99 137.75 153.08 138.41 152.93 139.39 Z M 152.77 140.36 L 152.63 141.32 C 152.49 142.30 153.16 143.20 154.14 143.35 C 155.12 143.49 156.02 142.81 156.17 141.84 L 156.31 140.87 C 156.45 139.90 155.78 138.99 154.80 138.85 C 153.82 138.70 152.92 139.38 152.77 140.36 Z M 152.63 141.33 L 152.49 142.33 C 152.36 143.31 153.04 144.21 154.01 144.34 C 154.99 144.48 155.89 143.80 156.03 142.82 L 156.17 141.83 C 156.31 140.85 155.62 139.95 154.65 139.81 C 153.67 139.67 152.77 140.35 152.63 141.33 Z M 152.49 142.33 L 152.35 143.34 C 152.22 144.32 152.90 145.22 153.88 145.35 C 154.86 145.49 155.76 144.80 155.89 143.82 L 156.03 142.82 C 156.16 141.84 155.48 140.94 154.50 140.81 C 153.53 140.67 152.62 141.36 152.49 142.33 Z M 152.35 143.34 L 152.22 144.33 C 152.09 145.31 152.77 146.21 153.75 146.34 C 154.72 146.47 155.62 145.79 155.76 144.81 L 155.89 143.82 C 156.02 142.85 155.34 141.95 154.36 141.81 C 153.39 141.68 152.49 142.36 152.35 143.34 Z M 152.22 144.33 L 152.09 145.32 C 151.95 146.30 152.64 147.20 153.61 147.33 C 154.59 147.46 155.49 146.78 155.62 145.80 L 155.76 144.81 C 155.89 143.83 155.20 142.93 154.23 142.80 C 153.25 142.67 152.35 143.35 152.22 144.33 Z M 152.09 145.32 L 151.95 146.32 C 151.82 147.29 152.51 148.19 153.48 148.32 C 154.46 148.45 155.36 147.77 155.49 146.79 L 155.62 145.80 C 155.75 144.82 155.07 143.93 154.09 143.79 C 153.12 143.66 152.22 144.35 152.09 145.32 Z M 151.95 146.32 L 151.82 147.31 C 151.69 148.29 152.38 149.18 153.35 149.31 C 154.33 149.44 155.22 148.76 155.35 147.78 L 155.49 146.79 C 155.62 145.82 154.93 144.92 153.96 144.79 C 152.98 144.66 152.09 145.34 151.95 146.32 Z M 151.82 147.31 L 151.69 148.30 C 151.56 149.28 152.24 150.17 153.22 150.30 C 154.19 150.43 155.09 149.75 155.22 148.78 L 155.35 147.78 C 155.48 146.81 154.80 145.91 153.82 145.78 C 152.85 145.65 151.95 146.34 151.82 147.31 Z M 151.69 148.30 L 151.56 149.30 C 151.43 150.27 152.11 151.17 153.08 151.30 C 154.06 151.43 154.95 150.74 155.08 149.77 L 155.22 148.78 C 155.35 147.80 154.67 146.91 153.69 146.78 C 152.72 146.65 151.82 147.33 151.69 148.30 Z M 151.56 149.29 L 151.42 150.28 C 151.29 151.26 151.97 152.15 152.95 152.29 C 153.92 152.42 154.82 151.74 154.95 150.76 L 155.08 149.77 C 155.22 148.80 154.53 147.90 153.56 147.77 C 152.59 147.64 151.69 148.32 151.56 149.29 Z M 151.42 150.28 L 151.29 151.27 C 151.15 152.24 151.83 153.14 152.81 153.27 C 153.78 153.41 154.68 152.73 154.81 151.76 L 154.95 150.77 C 155.08 149.79 154.40 148.90 153.43 148.76 C 152.46 148.63 151.56 149.31 151.42 150.28 Z M 151.29 151.27 L 151.15 152.27 C 151.01 153.24 151.69 154.14 152.66 154.27 C 153.64 154.41 154.53 153.73 154.67 152.76 L 154.81 151.76 C 154.95 150.79 154.27 149.89 153.30 149.75 C 152.32 149.61 151.43 150.29 151.29 151.27 Z M 151.15 152.27 L 151.01 153.27 C 150.88 154.24 151.56 155.13 152.53 155.27 C 153.50 155.40 154.39 154.73 154.53 153.75 L 154.67 152.76 C 154.80 151.79 154.13 150.89 153.15 150.76 C 152.18 150.62 151.29 151.30 151.15 152.27 Z M 151.01 153.27 L 150.88 154.25 C 150.75 155.22 151.44 156.11 152.41 156.24 C 153.38 156.37 154.27 155.69 154.40 154.72 L 154.53 153.75 C 154.66 152.77 153.98 151.88 153.01 151.75 C 152.04 151.62 151.14 152.30 151.01 153.27 Z M 150.88 154.26 L 150.76 155.26 C 150.64 156.24 151.33 157.12 152.30 157.24 C 153.27 157.36 154.15 156.67 154.27 155.70 L 154.40 154.70 C 154.52 153.73 153.83 152.85 152.86 152.73 C 151.89 152.60 151.00 153.29 150.88 154.26 Z M 150.75 155.28 L 150.64 156.27 C 150.53 157.24 151.23 158.12 152.20 158.23 C 153.17 158.34 154.05 157.65 154.16 156.67 L 154.28 155.69 C 154.39 154.71 153.69 153.84 152.72 153.72 C 151.75 153.61 150.87 154.31 150.75 155.28 Z M 150.64 156.28 L 150.53 157.24 C 150.43 158.21 151.13 159.09 152.11 159.19 C 153.08 159.30 153.96 158.59 154.06 157.62 L 154.17 156.66 C 154.27 155.69 153.57 154.81 152.59 154.71 C 151.62 154.60 150.74 155.30 150.64 156.28 Z M 150.53 157.24 L 150.43 158.20 C 150.33 159.18 151.04 160.05 152.01 160.15 C 152.99 160.25 153.86 159.55 153.96 158.57 L 154.06 157.61 C 154.17 156.64 153.46 155.77 152.48 155.66 C 151.51 155.56 150.63 156.27 150.53 157.24 Z M 150.43 158.20 L 150.32 159.23 C 150.22 160.21 150.93 161.08 151.91 161.19 C 152.88 161.29 153.76 160.58 153.86 159.60 L 153.96 158.57 C 154.07 157.59 153.36 156.72 152.38 156.62 C 151.41 156.52 150.53 157.23 150.43 158.20 Z M 150.32 159.23 L 150.22 160.20 C 150.12 161.18 150.82 162.05 151.80 162.15 C 152.78 162.26 153.65 161.55 153.76 160.57 L 153.86 159.60 C 153.96 158.63 153.25 157.75 152.28 157.65 C 151.30 157.55 150.42 158.25 150.32 159.23 Z M 150.22 160.21 L 150.12 161.18 C 150.03 162.15 150.74 163.02 151.72 163.12 C 152.70 163.22 153.57 162.50 153.66 161.52 L 153.76 160.56 C 153.85 159.58 153.14 158.71 152.16 158.61 C 151.18 158.52 150.31 159.23 150.22 160.21 Z M 150.12 161.21 L 150.04 162.23 C 149.96 163.21 150.69 164.07 151.67 164.15 C 152.65 164.23 153.51 163.49 153.59 162.51 L 153.67 161.49 C 153.75 160.51 153.01 159.65 152.03 159.57 C 151.05 159.50 150.20 160.23 150.12 161.21 Z M 150.03 162.28 L 149.98 163.36 C 149.93 164.35 150.69 165.18 151.67 165.23 C 152.65 165.28 153.49 164.52 153.54 163.54 L 153.59 162.46 C 153.64 161.48 152.88 160.64 151.90 160.59 C 150.92 160.54 150.08 161.30 150.03 162.28 Z M 149.96 163.44 L 149.95 164.55 C 149.95 165.54 150.75 166.35 151.74 166.35 C 152.74 166.36 153.54 165.56 153.55 164.57 L 153.56 163.46 C 153.56 162.47 152.76 161.66 151.77 161.65 C 150.78 161.65 149.97 162.45 149.96 163.44 Z M 149.94 164.69 L 150.01 165.73 C 150.09 166.74 150.96 167.49 151.96 167.42 C 152.97 167.34 153.72 166.47 153.65 165.47 L 153.57 164.42 C 153.50 163.42 152.62 162.67 151.62 162.74 C 150.62 162.81 149.86 163.69 149.94 164.69 Z M 150.03 166.00 L 150.22 166.89 C 150.45 167.88 151.43 168.51 152.43 168.29 C 153.42 168.07 154.05 167.08 153.83 166.09 L 153.63 165.20 C 153.41 164.21 152.42 163.58 151.43 163.80 C 150.43 164.02 149.81 165.01 150.03 166.00 Z M 150.45 167.48 L 150.94 168.26 C 151.48 169.14 152.63 169.40 153.50 168.86 C 154.38 168.31 154.64 167.16 154.10 166.29 L 153.61 165.50 C 153.06 164.63 151.91 164.37 151.04 164.91 C 150.17 165.45 149.90 166.60 150.45 167.48 Z M 151.66 168.94 L 152.51 169.37 C 153.42 169.85 154.55 169.49 155.02 168.57 C 155.50 167.65 155.14 166.53 154.22 166.05 L 153.37 165.62 C 152.46 165.15 151.33 165.50 150.86 166.42 C 150.39 167.34 150.75 168.46 151.66 168.94 Z M 153.10 169.56 L 154.08 169.71 C 155.10 169.85 156.05 169.15 156.20 168.12 C 156.34 167.10 155.64 166.16 154.62 166.01 L 153.63 165.86 C 152.61 165.72 151.66 166.42 151.52 167.45 C 151.37 168.47 152.08 169.42 153.10 169.56 Z M 154.35 169.73 L 155.33 169.73 C 156.37 169.73 157.21 168.89 157.20 167.85 C 157.20 166.82 156.36 165.98 155.33 165.98 L 154.35 165.98 C 153.31 165.99 152.47 166.82 152.48 167.86 C 152.48 168.89 153.32 169.73 154.35 169.73 Z M 155.61 169.71 L 156.62 169.56 C 157.64 169.40 158.34 168.45 158.19 167.42 C 158.03 166.40 157.08 165.69 156.05 165.85 L 155.05 166.00 C 154.03 166.16 153.32 167.11 153.48 168.14 C 153.63 169.16 154.59 169.87 155.61 169.71 Z M 156.90 169.50 L 157.80 169.21 C 158.79 168.90 159.34 167.85 159.03 166.86 C 158.72 165.87 157.66 165.32 156.67 165.63 L 155.77 165.91 C 154.78 166.22 154.23 167.28 154.54 168.27 C 154.85 169.26 155.91 169.81 156.90 169.50 Z M 157.98 169.15 L 158.89 168.75 C 159.84 168.34 160.28 167.23 159.87 166.28 C 159.45 165.32 158.34 164.89 157.39 165.30 L 156.49 165.69 C 155.53 166.11 155.09 167.22 155.51 168.17 C 155.92 169.12 157.03 169.56 157.98 169.15 Z M 158.97 168.72 L 159.93 168.25 C 160.87 167.79 161.25 166.66 160.80 165.73 C 160.34 164.79 159.21 164.40 158.27 164.86 L 157.31 165.33 C 156.37 165.79 155.99 166.92 156.45 167.86 C 156.90 168.79 158.03 169.18 158.97 168.72 Z M 159.94 168.25 L 160.78 167.83 C 161.72 167.37 162.10 166.23 161.63 165.30 C 161.17 164.36 160.04 163.98 159.10 164.45 L 158.26 164.86 C 157.33 165.33 156.95 166.46 157.41 167.40 C 157.88 168.33 159.01 168.71 159.94 168.25 Z M 160.78 167.83 L 161.67 167.39 C 162.60 166.93 162.99 165.80 162.53 164.86 C 162.06 163.93 160.93 163.54 159.99 164.01 L 159.11 164.44 C 158.17 164.91 157.78 166.04 158.25 166.98 C 158.71 167.91 159.84 168.30 160.78 167.83 Z M 161.66 167.40 L 162.60 166.94 C 163.53 166.48 163.92 165.35 163.46 164.41 C 163.00 163.47 161.87 163.08 160.93 163.54 L 160.00 164.00 C 159.06 164.46 158.67 165.59 159.13 166.53 C 159.59 167.47 160.72 167.86 161.66 167.40 Z M 162.59 166.95 L 163.54 166.49 C 164.48 166.03 164.87 164.90 164.42 163.96 C 163.96 163.02 162.83 162.62 161.89 163.08 L 160.94 163.54 C 160.00 164.00 159.61 165.13 160.06 166.07 C 160.52 167.01 161.65 167.40 162.59 166.95 Z M 163.53 166.48 L 164.48 166.03 C 165.42 165.58 165.81 164.45 165.36 163.52 C 164.92 162.58 163.79 162.18 162.85 162.63 L 161.90 163.08 C 160.96 163.53 160.57 164.66 161.02 165.60 C 161.47 166.53 162.59 166.93 163.53 166.48 Z M 164.47 166.02 L 165.38 165.59 C 166.32 165.14 166.72 164.02 166.27 163.09 C 165.83 162.15 164.71 161.76 163.78 162.20 L 162.86 162.64 C 161.93 163.08 161.53 164.20 161.97 165.13 C 162.42 166.07 163.53 166.47 164.47 166.02 Z M 165.38 165.58 L 166.22 165.18 C 167.15 164.74 167.55 163.63 167.11 162.70 C 166.67 161.77 165.55 161.37 164.62 161.81 L 163.78 162.21 C 162.85 162.65 162.46 163.76 162.90 164.69 C 163.34 165.62 164.45 166.02 165.38 165.58 Z M 166.22 165.17 L 167.16 164.73 C 168.08 164.29 168.48 163.18 168.04 162.26 C 167.60 161.33 166.49 160.93 165.57 161.37 L 164.63 161.82 C 163.70 162.26 163.30 163.36 163.74 164.29 C 164.18 165.22 165.29 165.61 166.22 165.17 Z M 167.15 164.73 L 168.02 164.32 C 168.95 163.88 169.35 162.78 168.91 161.85 C 168.47 160.92 167.37 160.52 166.44 160.96 L 165.57 161.37 C 164.64 161.81 164.24 162.91 164.68 163.84 C 165.12 164.77 166.23 165.17 167.15 164.73 Z M 168.02 164.33 L 168.89 163.92 C 169.82 163.48 170.23 162.38 169.79 161.45 C 169.36 160.52 168.25 160.11 167.32 160.55 L 166.45 160.95 C 165.52 161.39 165.11 162.49 165.55 163.43 C 165.98 164.36 167.09 164.76 168.02 164.33 Z M 168.89 163.92 L 169.78 163.51 C 170.72 163.08 171.12 161.98 170.70 161.04 C 170.27 160.11 169.16 159.70 168.23 160.13 L 167.33 160.54 C 166.40 160.97 165.99 162.07 166.42 163.01 C 166.85 163.94 167.95 164.35 168.89 163.92 Z M 169.77 163.52 L 170.70 163.10 C 171.64 162.68 172.06 161.57 171.64 160.63 C 171.22 159.69 170.11 159.28 169.17 159.70 L 168.24 160.12 C 167.30 160.54 166.88 161.65 167.30 162.59 C 167.72 163.53 168.83 163.95 169.77 163.52 Z M 170.69 163.12 L 171.61 162.71 C 172.56 162.30 172.99 161.20 172.57 160.25 C 172.16 159.30 171.06 158.87 170.11 159.28 L 169.19 159.69 C 168.24 160.10 167.81 161.20 168.22 162.15 C 168.64 163.10 169.74 163.53 170.69 163.12 Z M 171.58 162.73 L 172.49 162.36 C 173.45 161.96 173.91 160.86 173.51 159.90 C 173.11 158.94 172.01 158.49 171.05 158.88 L 170.14 159.26 C 169.18 159.66 168.72 160.76 169.12 161.72 C 169.52 162.68 170.62 163.13 171.58 162.73 Z M 172.44 162.39 L 173.36 162.04 C 174.34 161.67 174.83 160.58 174.46 159.60 C 174.09 158.62 173.00 158.13 172.02 158.50 L 171.10 158.85 C 170.12 159.22 169.63 160.31 170.00 161.29 C 170.37 162.27 171.46 162.76 172.44 162.39 Z M 173.31 162.09 L 174.30 161.76 C 175.31 161.41 175.85 160.32 175.51 159.31 C 175.17 158.31 174.07 157.77 173.06 158.11 L 172.07 158.45 C 171.07 158.79 170.53 159.88 170.87 160.89 C 171.21 161.90 172.31 162.44 173.31 162.09 Z M 174.39 161.82 L 175.38 161.45 C 176.42 161.06 176.95 159.90 176.56 158.86 C 176.17 157.82 175.01 157.29 173.97 157.68 L 172.98 158.05 C 171.94 158.44 171.41 159.60 171.80 160.64 C 172.19 161.68 173.35 162.21 174.39 161.82 Z M 175.78 161.37 L 176.60 160.87 C 177.60 160.26 177.92 158.96 177.30 157.96 C 176.69 156.96 175.39 156.64 174.39 157.25 L 173.57 157.75 C 172.57 158.36 172.25 159.67 172.87 160.67 C 173.48 161.67 174.78 161.99 175.78 161.37 Z M 177.38 160.21 L 177.83 159.47 C 178.46 158.43 178.13 157.07 177.09 156.44 C 176.05 155.80 174.70 156.13 174.06 157.17 L 173.61 157.92 C 172.98 158.96 173.30 160.31 174.35 160.95 C 175.39 161.58 176.74 161.25 177.38 160.21 Z M 178.18 158.42 L 178.22 157.45 C 178.27 156.22 177.31 155.17 176.08 155.12 C 174.85 155.07 173.81 156.03 173.76 157.26 L 173.72 158.23 C 173.66 159.46 174.62 160.50 175.85 160.55 C 177.08 160.60 178.12 159.65 178.18 158.42 Z M 178.18 156.93 L 177.98 155.89 C 177.74 154.68 176.57 153.89 175.36 154.13 C 174.15 154.37 173.36 155.54 173.59 156.75 L 173.80 157.78 C 174.03 158.99 175.20 159.78 176.41 159.54 C 177.62 159.31 178.41 158.14 178.18 156.93 Z M 177.91 155.73 L 177.63 154.73 C 177.30 153.55 176.09 152.87 174.91 153.19 C 173.74 153.52 173.05 154.74 173.38 155.91 L 173.66 156.91 C 173.99 158.09 175.21 158.77 176.38 158.45 C 177.55 158.12 178.24 156.90 177.91 155.73 Z M 177.54 154.63 L 177.23 153.70 C 176.84 152.57 175.62 151.97 174.50 152.35 C 173.38 152.73 172.77 153.95 173.16 155.08 L 173.47 156.01 C 173.85 157.13 175.07 157.74 176.20 157.35 C 177.32 156.97 177.92 155.75 177.54 154.63 Z M 177.11 153.60 L 176.75 152.70 C 176.31 151.64 175.10 151.13 174.03 151.56 C 172.97 152.00 172.46 153.21 172.90 154.27 L 173.27 155.18 C 173.70 156.24 174.92 156.75 175.98 156.31 C 177.04 155.88 177.55 154.66 177.11 153.60 Z M 176.61 152.64 L 176.19 151.75 C 175.73 150.76 174.55 150.34 173.56 150.80 C 172.57 151.27 172.14 152.45 172.61 153.44 L 173.03 154.33 C 173.50 155.32 174.68 155.74 175.66 155.28 C 176.65 154.81 177.08 153.63 176.61 152.64 Z M 176.06 151.75 L 175.61 150.85 C 175.14 149.93 174.02 149.56 173.11 150.03 C 172.19 150.49 171.82 151.61 172.28 152.53 L 172.74 153.43 C 173.20 154.35 174.32 154.72 175.24 154.25 C 176.16 153.79 176.53 152.67 176.06 151.75 Z M 175.53 150.87 L 175.36 150.54 C 174.91 149.67 173.83 149.32 172.96 149.77 C 172.08 150.22 171.74 151.30 172.19 152.17 L 172.36 152.50 C 172.81 153.38 173.89 153.72 174.76 153.27 C 175.63 152.82 175.98 151.75 175.53 150.87 Z"
      fill="black"
      fill-rule="nonzero" /></svg>