<svg xmlns="http://www.w3.org/2000/svg" width="300" height="300" viewBox="0 0 300 300">
<path d="M 143.23 113.28 L 142.67 114.08 C 142.08 114.92 142.29 116.09 143.14 116.67 C 143.99 117.26 145.15 117.05 145.74 116.21 L 146.30 115.41 C 146.88 114.56 146.68 113.40 145.83 112.81 C 144.98 112.22 143.82 112.43 143.23 113.28 Z M 142.65 114.05 L 142.07 114.88 C 141.47 115.74 141.68 116.93 142.54 117.53 C 143.40 118.13 144.58 117.92 145.18 117.06 L 145.76 116.23 C 146.36 115.37 146.15 114.19 145.29 113.59 C 144.44 112.99 143.25 113.20 142.65 114.05 Z M 142.06 114.87 L 141.49 115.67 C 140.88 116.53 141.09 117.73 141.95 118.34 C 142.81 118.95 144.01 118.75 144.62 117.88 L 145.19 117.08 C 145.80 116.21 145.59 115.02 144.73 114.41 C 143.87 113.80 142.67 114.00 142.06 114.87 Z M 141.51 115.65 L 140.92 116.46 C 140.30 117.32 140.48 118.51 141.34 119.13 C 142.19 119.76 143.39 119.57 144.01 118.72 L 144.60 117.90 C 145.22 117.05 145.04 115.86 144.18 115.23 C 143.33 114.61 142.13 114.80 141.51 115.65 Z M 140.96 116.43 L 140.33 117.23 C 139.69 118.06 139.85 119.26 140.68 119.90 C 141.51 120.54 142.70 120.39 143.35 119.56 L 143.97 118.75 C 144.61 117.92 144.46 116.73 143.63 116.08 C 142.80 115.44 141.60 115.59 140.96 116.43 Z M 140.38 117.19 L 139.75 117.95 C 139.08 118.76 139.19 119.95 140.00 120.62 C 140.81 121.29 142.00 121.17 142.67 120.37 L 143.30 119.60 C 143.97 118.80 143.86 117.60 143.05 116.94 C 142.24 116.27 141.05 116.38 140.38 117.19 Z M 139.79 117.92 L 139.13 118.67 C 138.44 119.46 138.52 120.65 139.30 121.33 C 140.09 122.02 141.28 121.94 141.96 121.16 L 142.63 120.40 C 143.31 119.62 143.23 118.43 142.45 117.74 C 141.67 117.06 140.48 117.13 139.79 117.92 Z M 139.16 118.65 L 138.52 119.35 C 137.83 120.11 137.88 121.30 138.64 122.00 C 139.41 122.70 140.59 122.64 141.29 121.88 L 141.93 121.18 C 142.63 120.42 142.57 119.23 141.81 118.53 C 141.05 117.83 139.86 117.89 139.16 118.65 Z M 138.56 119.33 L 137.91 120.01 C 137.20 120.75 137.22 121.93 137.96 122.64 C 138.70 123.35 139.88 123.33 140.59 122.59 L 141.25 121.90 C 141.96 121.16 141.94 119.98 141.20 119.27 C 140.45 118.56 139.28 118.58 138.56 119.33 Z M 137.96 119.98 L 137.21 120.72 C 136.48 121.43 136.47 122.60 137.18 123.33 C 137.90 124.06 139.06 124.07 139.79 123.35 L 140.54 122.62 C 141.27 121.90 141.28 120.73 140.57 120.01 C 139.85 119.28 138.69 119.27 137.96 119.98 Z M 137.26 120.69 L 136.49 121.40 C 135.75 122.09 135.70 123.25 136.39 123.99 C 137.08 124.73 138.24 124.77 138.98 124.09 L 139.74 123.38 C 140.48 122.69 140.53 121.53 139.84 120.79 C 139.15 120.05 138.00 120.01 137.26 120.69 Z M 136.53 121.39 L 135.76 122.07 C 135.01 122.74 134.94 123.88 135.61 124.63 C 136.27 125.38 137.42 125.45 138.16 124.78 L 138.94 124.10 C 139.68 123.44 139.75 122.29 139.09 121.54 C 138.42 120.79 137.28 120.73 136.53 121.39 Z M 135.80 122.07 L 135.01 122.74 C 134.26 123.38 134.17 124.51 134.82 125.27 C 135.46 126.02 136.59 126.10 137.34 125.46 L 138.13 124.79 C 138.88 124.15 138.97 123.01 138.32 122.26 C 137.68 121.51 136.55 121.42 135.80 122.07 Z M 135.05 122.73 L 134.31 123.35 C 133.55 123.97 133.45 125.09 134.07 125.84 C 134.69 126.60 135.81 126.70 136.56 126.08 L 137.31 125.47 C 138.06 124.84 138.17 123.73 137.55 122.97 C 136.92 122.22 135.81 122.11 135.05 122.73 Z M 134.37 123.35 L 133.49 124.03 C 132.74 124.62 132.60 125.71 133.19 126.46 C 133.78 127.22 134.87 127.35 135.62 126.76 L 136.50 126.08 C 137.25 125.49 137.39 124.40 136.80 123.65 C 136.21 122.89 135.13 122.76 134.37 123.35 Z M 133.58 124.05 L 132.80 124.61 C 132.05 125.15 131.88 126.20 132.42 126.95 C 132.97 127.69 134.01 127.86 134.76 127.32 L 135.54 126.75 C 136.28 126.21 136.45 125.16 135.91 124.42 C 135.37 123.67 134.32 123.50 133.58 124.05 Z M 132.85 124.64 L 132.29 125.03 C 131.56 125.54 131.38 126.55 131.89 127.28 C 132.40 128.01 133.41 128.19 134.14 127.68 L 134.70 127.29 C 135.43 126.78 135.61 125.77 135.10 125.04 C 134.59 124.31 133.58 124.13 132.85 124.64 Z"
      fill="black"
      fill-rule="nonzero" /><path d="M 130.36 141.07 L 131.25 140.61 C 132.16 140.14 132.52 139.03 132.05 138.12 C 131.59 137.21 130.47 136.85 129.56 137.32 L 128.67 137.78 C 127.76 138.24 127.40 139.36 127.87 140.27 C 128.34 141.17 129.45 141.53 130.36 141.07 Z M 131.26 140.64 L 132.15 140.18 C 133.08 139.71 133.44 138.58 132.97 137.66 C 132.50 136.73 131.37 136.37 130.45 136.84 L 129.56 137.29 C 128.63 137.76 128.27 138.89 128.74 139.82 C 129.21 140.74 130.34 141.11 131.26 140.64 Z M 132.15 140.21 L 133.05 139.76 C 133.98 139.29 134.36 138.15 133.89 137.21 C 133.42 136.27 132.27 135.89 131.34 136.36 L 130.44 136.81 C 129.51 137.28 129.13 138.42 129.60 139.36 C 130.07 140.30 131.22 140.68 132.15 140.21 Z M 133.04 139.78 L 133.91 139.35 C 134.86 138.88 135.25 137.73 134.78 136.78 C 134.31 135.83 133.16 135.44 132.21 135.91 L 131.34 136.34 C 130.39 136.81 130.00 137.96 130.47 138.91 C 130.94 139.86 132.09 140.25 133.04 139.78 Z M 133.91 139.35 L 134.79 138.92 C 135.74 138.45 136.13 137.30 135.67 136.35 C 135.20 135.40 134.05 135.01 133.10 135.47 L 132.21 135.91 C 131.26 136.38 130.87 137.53 131.34 138.48 C 131.81 139.43 132.96 139.82 133.91 139.35 Z M 134.80 138.91 L 135.72 138.45 C 136.67 137.98 137.05 136.82 136.58 135.88 C 136.10 134.93 134.95 134.55 134.00 135.02 L 133.08 135.48 C 132.14 135.96 131.75 137.11 132.23 138.06 C 132.70 139.00 133.86 139.39 134.80 138.91 Z M 135.74 138.44 L 136.56 138.02 C 137.50 137.53 137.87 136.38 137.38 135.44 C 136.89 134.49 135.74 134.13 134.80 134.61 L 133.98 135.03 C 133.04 135.52 132.67 136.67 133.16 137.61 C 133.65 138.56 134.80 138.92 135.74 138.44 Z M 136.57 138.01 L 137.39 137.58 C 138.32 137.09 138.68 135.93 138.19 134.99 C 137.70 134.06 136.54 133.70 135.61 134.19 L 134.79 134.62 C 133.85 135.11 133.49 136.27 133.98 137.20 C 134.48 138.14 135.63 138.50 136.57 138.01 Z M 137.39 137.57 L 138.28 137.10 C 139.21 136.61 139.57 135.46 139.08 134.52 C 138.59 133.59 137.43 133.23 136.50 133.72 L 135.61 134.19 C 134.67 134.69 134.31 135.84 134.81 136.77 C 135.30 137.71 136.45 138.07 137.39 137.57 Z M 138.27 137.10 L 139.26 136.59 C 140.19 136.10 140.55 134.95 140.07 134.02 C 139.58 133.08 138.43 132.72 137.49 133.21 L 136.51 133.72 C 135.57 134.21 135.21 135.36 135.70 136.30 C 136.19 137.23 137.34 137.59 138.27 137.10 Z M 139.25 136.59 L 140.17 136.12 C 141.10 135.64 141.47 134.49 140.99 133.56 C 140.51 132.62 139.36 132.25 138.43 132.73 L 137.51 133.21 C 136.57 133.69 136.20 134.83 136.68 135.77 C 137.16 136.70 138.31 137.07 139.25 136.59 Z M 140.16 136.12 L 141.07 135.65 C 142.00 135.18 142.37 134.04 141.90 133.10 C 141.43 132.17 140.28 131.80 139.35 132.27 L 138.44 132.74 C 137.50 133.21 137.13 134.35 137.61 135.28 C 138.08 136.22 139.22 136.59 140.16 136.12 Z M 141.06 135.65 L 141.99 135.18 C 142.92 134.71 143.30 133.57 142.83 132.64 C 142.36 131.71 141.22 131.34 140.29 131.81 L 139.36 132.28 C 138.43 132.75 138.05 133.88 138.52 134.81 C 138.99 135.74 140.13 136.12 141.06 135.65 Z M 141.99 135.17 L 142.90 134.71 C 143.83 134.24 144.20 133.11 143.73 132.18 C 143.26 131.26 142.13 130.88 141.20 131.35 L 140.29 131.81 C 139.36 132.28 138.99 133.41 139.46 134.34 C 139.93 135.27 141.06 135.64 141.99 135.17 Z M 142.90 134.71 L 143.76 134.27 C 144.68 133.81 145.05 132.68 144.59 131.75 C 144.12 130.83 142.99 130.46 142.07 130.92 L 141.21 131.36 C 140.28 131.82 139.91 132.95 140.38 133.88 C 140.84 134.80 141.97 135.17 142.90 134.71 Z M 143.76 134.26 L 144.75 133.75 C 145.67 133.28 146.03 132.16 145.57 131.25 C 145.10 130.33 143.98 129.97 143.06 130.43 L 142.07 130.94 C 141.15 131.40 140.79 132.52 141.25 133.44 C 141.72 134.36 142.84 134.72 143.76 134.26 Z M 144.74 133.72 L 145.70 133.23 C 146.60 132.77 146.95 131.66 146.49 130.76 C 146.03 129.86 144.93 129.51 144.03 129.97 L 143.07 130.46 C 142.17 130.92 141.82 132.03 142.28 132.93 C 142.74 133.83 143.84 134.18 144.74 133.72 Z M 145.69 133.20 L 146.51 132.77 C 147.39 132.32 147.73 131.24 147.28 130.36 C 146.82 129.47 145.74 129.13 144.86 129.58 L 144.04 130.00 C 143.16 130.46 142.82 131.54 143.27 132.42 C 143.72 133.30 144.81 133.65 145.69 133.20 Z M 146.49 132.74 L 147.26 132.35 C 148.13 131.90 148.47 130.84 148.02 129.98 C 147.58 129.11 146.52 128.77 145.66 129.21 L 144.88 129.61 C 144.01 130.06 143.67 131.12 144.12 131.98 C 144.56 132.85 145.62 133.19 146.49 132.74 Z M 147.23 132.32 L 148.16 131.85 C 149.01 131.42 149.35 130.39 148.93 129.54 C 148.50 128.69 147.46 128.35 146.62 128.78 L 145.69 129.24 C 144.84 129.67 144.49 130.70 144.92 131.55 C 145.35 132.40 146.38 132.74 147.23 132.32 Z M 148.12 131.83 L 148.98 131.41 C 149.81 131.01 150.16 130.00 149.76 129.17 C 149.36 128.33 148.36 127.98 147.52 128.39 L 146.66 128.80 C 145.82 129.20 145.47 130.21 145.88 131.04 C 146.28 131.88 147.28 132.23 148.12 131.83 Z M 148.93 131.39 L 149.83 130.98 C 150.66 130.60 151.02 129.63 150.65 128.81 C 150.27 127.98 149.30 127.62 148.47 127.99 L 147.57 128.40 C 146.75 128.78 146.38 129.75 146.76 130.58 C 147.13 131.40 148.11 131.77 148.93 131.39 Z M 149.79 130.96 L 150.71 130.56 C 151.52 130.21 151.89 129.26 151.54 128.45 C 151.19 127.64 150.24 127.26 149.43 127.62 L 148.51 128.01 C 147.70 128.37 147.33 129.31 147.68 130.13 C 148.03 130.94 148.98 131.31 149.79 130.96 Z M 150.69 130.54 L 151.07 130.38 C 151.87 130.04 152.25 129.11 151.90 128.30 C 151.56 127.50 150.63 127.13 149.82 127.47 L 149.44 127.63 C 148.64 127.98 148.27 128.91 148.61 129.71 C 148.96 130.52 149.89 130.89 150.69 130.54 Z"
      fill="black"
      fill-rule="nonzero" /><path d="M 140.46 122.51 L 139.91 123.29 C 139.35 124.10 139.55 125.21 140.36 125.77 C 141.17 126.33 142.28 126.13 142.84 125.32 L 143.38 124.54 C 143.95 123.73 143.75 122.62 142.94 122.06 C 142.13 121.50 141.02 121.70 140.46 122.51 Z M 139.77 123.38 L 139.28 124.23 C 138.77 125.12 139.08 126.25 139.97 126.76 C 140.85 127.28 141.99 126.97 142.50 126.08 L 142.99 125.23 C 143.50 124.34 143.19 123.21 142.30 122.70 C 141.41 122.18 140.28 122.49 139.77 123.38 Z M 139.09 124.46 L 138.71 125.45 C 138.33 126.44 138.83 127.56 139.82 127.94 C 140.82 128.32 141.94 127.83 142.32 126.83 L 142.69 125.84 C 143.07 124.85 142.58 123.73 141.58 123.35 C 140.58 122.97 139.47 123.47 139.09 124.46 Z M 138.58 125.74 L 138.39 126.67 C 138.17 127.74 138.85 128.78 139.92 129.01 C 140.99 129.23 142.03 128.54 142.25 127.47 L 142.45 126.54 C 142.67 125.47 141.98 124.43 140.91 124.21 C 139.85 123.98 138.80 124.67 138.58 125.74 Z M 138.34 126.86 L 138.24 127.86 C 138.12 128.95 138.91 129.93 140.01 130.05 C 141.10 130.16 142.07 129.37 142.19 128.28 L 142.29 127.28 C 142.41 126.19 141.62 125.21 140.53 125.10 C 139.44 124.98 138.46 125.77 138.34 126.86 Z M 138.22 127.98 L 138.17 129.01 C 138.12 130.11 138.97 131.05 140.07 131.10 C 141.17 131.15 142.11 130.30 142.16 129.20 L 142.21 128.17 C 142.26 127.07 141.41 126.13 140.31 126.08 C 139.21 126.03 138.27 126.88 138.22 127.98 Z M 138.16 129.07 L 138.14 130.08 C 138.12 131.19 139.01 132.10 140.11 132.12 C 141.22 132.14 142.13 131.26 142.15 130.16 L 142.17 129.14 C 142.19 128.03 141.31 127.12 140.20 127.10 C 139.09 127.08 138.18 127.96 138.16 129.07 Z M 138.14 130.10 L 138.13 131.11 C 138.12 132.22 139.01 133.13 140.12 133.14 C 141.23 133.15 142.14 132.26 142.15 131.15 L 142.16 130.14 C 142.17 129.03 141.28 128.12 140.17 128.11 C 139.06 128.10 138.15 128.99 138.14 130.10 Z M 138.12 131.11 L 138.12 132.09 C 138.11 133.20 139.01 134.11 140.12 134.12 C 141.23 134.13 142.14 133.23 142.14 132.12 L 142.15 131.14 C 142.16 130.03 141.26 129.12 140.15 129.12 C 139.04 129.11 138.13 130.00 138.12 131.11 Z M 138.11 132.09 L 138.11 133.08 C 138.10 134.19 138.99 135.11 140.11 135.11 C 141.22 135.12 142.13 134.23 142.14 133.11 L 142.15 132.12 C 142.16 131.01 141.26 130.10 140.15 130.09 C 139.03 130.08 138.12 130.98 138.11 132.09 Z M 138.10 133.07 L 138.09 134.06 C 138.08 135.18 138.97 136.09 140.08 136.11 C 141.20 136.12 142.12 135.23 142.13 134.11 L 142.14 133.12 C 142.16 132.01 141.26 131.09 140.15 131.08 C 139.03 131.06 138.12 131.96 138.10 133.07 Z M 138.09 134.05 L 138.07 135.00 C 138.05 136.12 138.94 137.04 140.06 137.06 C 141.18 137.08 142.10 136.19 142.12 135.07 L 142.13 134.12 C 142.15 133.00 141.26 132.08 140.15 132.06 C 139.03 132.04 138.11 132.93 138.09 134.05 Z M 138.07 135.00 L 138.05 135.99 C 138.03 137.11 138.92 138.04 140.04 138.06 C 141.16 138.08 142.08 137.19 142.10 136.07 L 142.12 135.07 C 142.14 133.95 141.25 133.03 140.13 133.01 C 139.01 132.99 138.09 133.88 138.07 135.00 Z M 138.05 136.00 L 138.03 137.03 C 138.01 138.15 138.90 139.07 140.02 139.09 C 141.14 139.11 142.07 138.22 142.09 137.10 L 142.11 136.07 C 142.12 134.95 141.23 134.02 140.11 134.00 C 138.99 133.98 138.07 134.88 138.05 136.00 Z M 138.02 137.04 L 138.01 138.09 C 137.99 139.21 138.89 140.13 140.02 140.15 C 141.14 140.16 142.06 139.27 142.08 138.14 L 142.09 137.09 C 142.11 135.97 141.21 135.05 140.09 135.03 C 138.96 135.02 138.04 135.91 138.02 137.04 Z M 138.01 138.10 L 138.00 139.07 C 137.99 140.20 138.89 141.12 140.02 141.13 C 141.14 141.14 142.06 140.23 142.07 139.11 L 142.08 138.13 C 142.09 137.01 141.19 136.09 140.06 136.08 C 138.94 136.07 138.02 136.97 138.01 138.10 Z M 138.00 139.08 L 137.99 140.07 C 137.99 141.19 138.89 142.11 140.02 142.12 C 141.14 142.12 142.06 141.22 142.06 140.09 L 142.07 139.10 C 142.08 137.98 141.17 137.06 140.05 137.06 C 138.92 137.05 138.01 137.96 138.00 139.08 Z M 137.99 140.07 L 137.99 141.07 C 137.98 142.20 138.89 143.11 140.01 143.12 C 141.14 143.12 142.05 142.22 142.06 141.09 L 142.06 140.09 C 142.07 138.97 141.16 138.05 140.04 138.05 C 138.91 138.04 138.00 138.95 137.99 140.07 Z M 137.99 141.07 L 137.98 142.09 C 137.97 143.21 138.88 144.13 140.00 144.13 C 141.13 144.14 142.04 143.24 142.05 142.11 L 142.06 141.10 C 142.06 139.97 141.16 139.06 140.04 139.05 C 138.91 139.04 137.99 139.95 137.99 141.07 Z M 137.98 142.08 L 137.97 143.09 C 137.96 144.22 138.87 145.13 139.99 145.14 C 141.11 145.15 142.03 144.25 142.04 143.13 L 142.05 142.12 C 142.06 140.99 141.16 140.07 140.03 140.06 C 138.91 140.05 137.99 140.96 137.98 142.08 Z M 137.97 143.08 L 137.96 144.07 C 137.95 145.19 138.85 146.11 139.97 146.12 C 141.10 146.14 142.02 145.24 142.03 144.11 L 142.04 143.13 C 142.06 142.01 141.16 141.09 140.03 141.07 C 138.91 141.06 137.99 141.96 137.97 143.08 Z M 137.96 144.06 L 137.95 145.05 C 137.93 146.18 138.83 147.10 139.95 147.12 C 141.08 147.13 142.00 146.23 142.02 145.11 L 142.03 144.12 C 142.05 142.99 141.15 142.07 140.03 142.05 C 138.90 142.04 137.98 142.94 137.96 144.06 Z M 137.95 145.05 L 137.93 146.05 C 137.91 147.18 138.81 148.10 139.93 148.12 C 141.06 148.14 141.98 147.24 142.00 146.12 L 142.02 145.11 C 142.03 143.99 141.14 143.07 140.01 143.05 C 138.89 143.03 137.97 143.93 137.95 145.05 Z M 137.93 146.05 L 137.91 147.07 C 137.90 148.19 138.79 149.12 139.91 149.13 C 141.04 149.15 141.96 148.26 141.98 147.13 L 142.00 146.12 C 142.02 145.00 141.12 144.07 140.00 144.05 C 138.88 144.03 137.95 144.93 137.93 146.05 Z M 137.91 147.07 L 137.90 148.08 C 137.88 149.20 138.77 150.13 139.90 150.15 C 141.02 150.16 141.95 149.27 141.97 148.15 L 141.98 147.14 C 142.00 146.01 141.11 145.09 139.98 145.07 C 138.86 145.05 137.93 145.94 137.91 147.07 Z M 137.90 148.08 L 137.88 149.06 C 137.86 150.19 138.76 151.11 139.88 151.13 C 141.00 151.15 141.93 150.26 141.95 149.13 L 141.96 148.15 C 141.98 147.02 141.09 146.10 139.97 146.08 C 138.84 146.06 137.92 146.95 137.90 148.08 Z M 137.88 149.06 L 137.87 150.06 C 137.84 151.18 138.74 152.10 139.86 152.12 C 140.98 152.15 141.91 151.25 141.93 150.13 L 141.95 149.14 C 141.97 148.01 141.07 147.09 139.95 147.07 C 138.83 147.05 137.90 147.94 137.88 149.06 Z M 137.87 150.05 L 137.85 151.06 C 137.83 152.18 138.72 153.10 139.84 153.12 C 140.96 153.15 141.88 152.26 141.91 151.14 L 141.93 150.13 C 141.95 149.01 141.06 148.09 139.94 148.06 C 138.82 148.04 137.89 148.93 137.87 150.05 Z M 137.85 151.05 L 137.83 152.06 C 137.80 153.18 138.69 154.11 139.81 154.13 C 140.93 154.16 141.86 153.27 141.88 152.15 L 141.90 151.14 C 141.93 150.02 141.04 149.09 139.92 149.07 C 138.80 149.04 137.87 149.93 137.85 151.05 Z M 137.83 152.05 L 137.80 153.06 C 137.78 154.18 138.66 155.11 139.78 155.14 C 140.90 155.17 141.83 154.28 141.85 153.17 L 141.88 152.15 C 141.91 151.04 141.02 150.11 139.91 150.08 C 138.79 150.05 137.86 150.93 137.83 152.05 Z M 137.81 153.06 L 137.78 154.06 C 137.75 155.17 138.63 156.10 139.74 156.14 C 140.86 156.17 141.79 155.29 141.82 154.17 L 141.85 153.17 C 141.88 152.06 141.00 151.12 139.89 151.09 C 138.77 151.06 137.84 151.94 137.81 153.06 Z M 137.78 154.05 L 137.75 155.05 C 137.71 156.17 138.59 157.10 139.71 157.13 C 140.82 157.17 141.75 156.29 141.79 155.18 L 141.82 154.18 C 141.86 153.06 140.98 152.13 139.86 152.09 C 138.75 152.06 137.81 152.93 137.78 154.05 Z M 137.75 155.05 L 137.72 156.05 C 137.68 157.16 138.55 158.10 139.67 158.13 C 140.78 158.17 141.72 157.30 141.75 156.18 L 141.79 155.18 C 141.82 154.07 140.95 153.13 139.84 153.10 C 138.72 153.06 137.79 153.93 137.75 155.05 Z M 137.72 156.04 L 137.68 157.05 C 137.65 158.16 138.52 159.09 139.63 159.13 C 140.74 159.17 141.68 158.30 141.72 157.18 L 141.75 156.18 C 141.79 155.07 140.92 154.14 139.81 154.10 C 138.69 154.06 137.76 154.93 137.72 156.04 Z M 137.69 157.04 L 137.65 158.04 C 137.61 159.16 138.48 160.09 139.60 160.13 C 140.71 160.17 141.64 159.30 141.68 158.18 L 141.72 157.19 C 141.75 156.07 140.88 155.14 139.77 155.10 C 138.66 155.06 137.73 155.93 137.69 157.04 Z M 137.66 158.04 L 137.62 159.04 C 137.58 160.15 138.45 161.08 139.56 161.12 C 140.67 161.16 141.60 160.29 141.64 159.18 L 141.68 158.18 C 141.72 157.07 140.85 156.14 139.74 156.10 C 138.63 156.06 137.69 156.93 137.66 158.04 Z M 137.63 159.04 L 137.59 160.04 C 137.55 161.15 138.42 162.07 139.53 162.11 C 140.63 162.15 141.56 161.28 141.60 160.18 L 141.64 159.18 C 141.67 158.07 140.81 157.15 139.70 157.11 C 138.59 157.07 137.67 157.94 137.63 159.04 Z M 137.60 160.04 L 137.57 161.04 C 137.53 162.14 138.39 163.06 139.49 163.10 C 140.60 163.14 141.52 162.28 141.56 161.17 L 141.59 160.18 C 141.63 159.07 140.77 158.15 139.67 158.11 C 138.56 158.07 137.64 158.94 137.60 160.04 Z M 137.57 161.04 L 137.54 162.03 C 137.50 163.13 138.36 164.06 139.46 164.09 C 140.56 164.13 141.48 163.27 141.52 162.17 L 141.55 161.17 C 141.59 160.07 140.73 159.15 139.63 159.11 C 138.53 159.08 137.61 159.94 137.57 161.04 Z M 137.54 162.03 L 137.51 163.04 C 137.47 164.13 138.33 165.05 139.43 165.09 C 140.52 165.13 141.44 164.27 141.48 163.17 L 141.51 162.17 C 141.55 161.08 140.69 160.16 139.60 160.12 C 138.50 160.08 137.58 160.94 137.54 162.03 Z M 137.52 163.04 L 137.48 164.05 C 137.45 165.14 138.30 166.06 139.39 166.10 C 140.48 166.13 141.40 165.28 141.43 164.19 L 141.47 163.17 C 141.51 162.08 140.65 161.17 139.56 161.13 C 138.47 161.09 137.56 161.95 137.52 163.04 Z M 137.49 164.05 L 137.46 165.09 C 137.42 166.18 138.27 167.09 139.35 167.13 C 140.44 167.16 141.35 166.31 141.39 165.23 L 141.42 164.19 C 141.46 163.11 140.61 162.19 139.53 162.16 C 138.44 162.12 137.53 162.97 137.49 164.05 Z M 137.47 165.09 L 137.43 166.12 C 137.39 167.20 138.24 168.10 139.31 168.14 C 140.39 168.18 141.30 167.34 141.34 166.26 L 141.37 165.23 C 141.41 164.15 140.57 163.25 139.49 163.21 C 138.41 163.17 137.51 164.01 137.47 165.09 Z M 137.44 166.12 L 137.41 167.13 C 137.37 168.20 138.20 169.10 139.28 169.14 C 140.35 169.18 141.25 168.34 141.29 167.27 L 141.32 166.26 C 141.36 165.19 140.53 164.29 139.46 164.25 C 138.39 164.21 137.48 165.05 137.44 166.12 Z M 137.42 167.12 L 137.38 168.10 C 137.34 169.16 138.17 170.06 139.23 170.10 C 140.30 170.14 141.20 169.31 141.24 168.25 L 141.28 167.27 C 141.32 166.21 140.49 165.31 139.42 165.27 C 138.36 165.23 137.46 166.06 137.42 167.12 Z M 137.39 168.09 L 137.36 169.04 C 137.31 170.10 138.13 170.99 139.19 171.04 C 140.25 171.08 141.14 170.26 141.19 169.20 L 141.22 168.25 C 141.27 167.19 140.45 166.30 139.39 166.26 C 138.33 166.21 137.44 167.04 137.39 168.09 Z M 137.37 169.04 L 137.32 170.15 C 137.28 171.20 138.09 172.09 139.14 172.13 C 140.19 172.18 141.08 171.37 141.12 170.32 L 141.17 169.20 C 141.22 168.15 140.40 167.27 139.35 167.22 C 138.30 167.18 137.42 167.99 137.37 169.04 Z M 137.34 170.15 L 137.30 171.18 C 137.25 172.21 138.06 173.09 139.09 173.14 C 140.13 173.18 141.01 172.38 141.06 171.34 L 141.10 170.32 C 141.15 169.28 140.34 168.40 139.30 168.35 C 138.27 168.31 137.39 169.11 137.34 170.15 Z M 137.32 171.18 L 137.28 172.13 C 137.24 173.16 138.04 174.03 139.06 174.07 C 140.09 174.11 140.96 173.31 141.00 172.28 L 141.04 171.34 C 141.08 170.31 140.28 169.44 139.25 169.40 C 138.23 169.36 137.36 170.16 137.32 171.18 Z M 137.30 172.15 L 137.27 173.05 C 137.23 174.06 138.03 174.91 139.05 174.95 C 140.07 174.98 140.92 174.18 140.95 173.17 L 140.98 172.27 C 141.01 171.25 140.22 170.40 139.20 170.37 C 138.18 170.33 137.33 171.13 137.30 172.15 Z M 137.29 173.07 L 137.27 174.08 C 137.25 175.09 138.05 175.92 139.05 175.94 C 140.06 175.96 140.89 175.16 140.91 174.15 L 140.93 173.14 C 140.95 172.13 140.15 171.30 139.14 171.28 C 138.14 171.26 137.31 172.06 137.29 173.07 Z M 137.29 174.12 L 137.29 175.10 C 137.28 176.09 138.09 176.90 139.09 176.90 C 140.08 176.90 140.89 176.10 140.89 175.10 L 140.89 174.12 C 140.89 173.12 140.09 172.32 139.09 172.31 C 138.10 172.31 137.29 173.12 137.29 174.12 Z M 137.31 175.13 L 137.32 176.13 C 137.34 177.11 138.15 177.89 139.14 177.88 C 140.12 177.86 140.90 177.05 140.89 176.07 L 140.87 175.07 C 140.85 174.08 140.04 173.30 139.06 173.32 C 138.07 173.33 137.29 174.14 137.31 175.13 Z M 137.34 176.15 L 137.37 177.12 C 137.40 178.09 138.22 178.86 139.19 178.82 C 140.17 178.79 140.93 177.98 140.90 177.00 L 140.87 176.04 C 140.84 175.06 140.02 174.30 139.05 174.33 C 138.07 174.36 137.31 175.18 137.34 176.15 Z M 137.39 177.14 L 137.43 178.12 C 137.47 179.09 138.29 179.84 139.25 179.80 C 140.22 179.76 140.97 178.94 140.93 177.98 L 140.89 176.99 C 140.84 176.02 140.03 175.27 139.06 175.31 C 138.10 175.35 137.35 176.17 137.39 177.14 Z M 137.44 178.13 L 137.49 179.15 C 137.54 180.11 138.35 180.85 139.31 180.80 C 140.27 180.76 141.01 179.94 140.96 178.98 L 140.91 177.97 C 140.87 177.01 140.05 176.27 139.09 176.32 C 138.14 176.36 137.40 177.18 137.44 178.13 Z M 137.51 179.16 L 137.55 180.07 C 137.60 181.02 138.41 181.75 139.36 181.71 C 140.31 181.66 141.04 180.85 141.00 179.90 L 140.95 178.98 C 140.90 178.03 140.09 177.30 139.14 177.35 C 138.19 177.40 137.46 178.21 137.51 179.16 Z"
      fill="black"
      fill-rule="nonzero" /><path d="M 136.82 140.55 L 136.63 141.46 C 136.41 142.45 137.04 143.42 138.03 143.64 C 139.02 143.85 139.99 143.23 140.21 142.24 L 140.40 141.33 C 140.62 140.34 139.99 139.36 139.00 139.15 C 138.01 138.93 137.04 139.56 136.82 140.55 Z M 136.56 141.30 L 136.28 142.26 C 135.98 143.29 136.57 144.36 137.59 144.66 C 138.62 144.96 139.69 144.38 139.99 143.35 L 140.27 142.39 C 140.57 141.37 139.99 140.29 138.96 139.99 C 137.93 139.69 136.86 140.28 136.56 141.30 Z M 136.27 142.03 L 135.87 143.00 C 135.44 144.03 135.93 145.21 136.95 145.64 C 137.98 146.07 139.16 145.58 139.59 144.55 L 140.00 143.58 C 140.43 142.56 139.94 141.37 138.91 140.94 C 137.88 140.52 136.70 141.00 136.27 142.03 Z M 135.92 142.82 L 135.45 143.72 C 134.92 144.72 135.31 145.96 136.31 146.48 C 137.31 147.01 138.55 146.62 139.07 145.62 L 139.54 144.73 C 140.07 143.73 139.68 142.49 138.68 141.96 C 137.68 141.44 136.44 141.82 135.92 142.82 Z M 135.50 143.63 L 134.98 144.52 C 134.41 145.49 134.73 146.74 135.70 147.32 C 136.67 147.89 137.92 147.57 138.50 146.60 L 139.02 145.71 C 139.59 144.74 139.27 143.48 138.30 142.91 C 137.33 142.34 136.08 142.66 135.50 143.63 Z M 135.02 144.47 L 134.49 145.30 C 133.89 146.25 134.17 147.51 135.12 148.12 C 136.07 148.72 137.33 148.43 137.93 147.48 L 138.46 146.65 C 139.06 145.70 138.78 144.44 137.83 143.84 C 136.88 143.23 135.62 143.52 135.02 144.47 Z M 134.52 145.27 L 133.93 146.16 C 133.31 147.09 133.57 148.35 134.50 148.97 C 135.43 149.59 136.69 149.33 137.31 148.40 L 137.90 147.51 C 138.52 146.58 138.26 145.32 137.33 144.71 C 136.40 144.09 135.14 144.34 134.52 145.27 Z M 133.97 146.14 L 133.43 146.93 C 132.80 147.84 133.03 149.09 133.94 149.72 C 134.85 150.35 136.10 150.12 136.73 149.21 L 137.27 148.42 C 137.90 147.51 137.67 146.26 136.76 145.63 C 135.85 145.00 134.60 145.23 133.97 146.14 Z M 133.45 146.93 L 132.91 147.70 C 132.28 148.60 132.50 149.84 133.40 150.47 C 134.30 151.10 135.54 150.88 136.17 149.98 L 136.71 149.21 C 137.34 148.30 137.12 147.06 136.22 146.43 C 135.32 145.81 134.08 146.02 133.45 146.93 Z M 132.92 147.71 L 132.36 148.51 C 131.73 149.40 131.95 150.63 132.85 151.26 C 133.74 151.88 134.97 151.67 135.59 150.77 L 136.16 149.97 C 136.78 149.08 136.56 147.84 135.67 147.22 C 134.78 146.59 133.55 146.81 132.92 147.71 Z M 132.38 148.51 L 131.78 149.35 C 131.16 150.24 131.37 151.46 132.25 152.09 C 133.13 152.71 134.36 152.50 134.98 151.62 L 135.58 150.77 C 136.20 149.89 135.99 148.66 135.11 148.04 C 134.22 147.42 133.00 147.63 132.38 148.51 Z M 131.80 149.35 L 131.23 150.15 C 130.60 151.02 130.80 152.23 131.68 152.86 C 132.55 153.49 133.76 153.29 134.39 152.41 L 134.96 151.62 C 135.59 150.75 135.39 149.53 134.51 148.90 C 133.64 148.28 132.43 148.48 131.80 149.35 Z M 131.25 150.14 L 130.67 150.94 C 130.04 151.80 130.22 153.01 131.08 153.64 C 131.95 154.27 133.15 154.08 133.78 153.22 L 134.37 152.42 C 135.00 151.56 134.81 150.35 133.95 149.72 C 133.09 149.09 131.88 149.28 131.25 150.14 Z M 130.69 150.94 L 130.07 151.76 C 129.44 152.61 129.61 153.81 130.46 154.44 C 131.31 155.08 132.51 154.90 133.15 154.05 L 133.76 153.23 C 134.39 152.38 134.22 151.18 133.37 150.54 C 132.52 149.91 131.32 150.09 130.69 150.94 Z M 130.09 151.75 L 129.49 152.54 C 128.86 153.38 129.02 154.57 129.86 155.21 C 130.69 155.85 131.89 155.68 132.52 154.85 L 133.12 154.06 C 133.76 153.22 133.60 152.03 132.76 151.39 C 131.92 150.75 130.73 150.92 130.09 151.75 Z M 129.51 152.54 L 128.91 153.32 C 128.27 154.15 128.42 155.34 129.25 155.98 C 130.07 156.61 131.26 156.46 131.90 155.63 L 132.51 154.85 C 133.15 154.02 132.99 152.83 132.17 152.20 C 131.34 151.56 130.15 151.71 129.51 152.54 Z M 128.92 153.32 L 128.30 154.13 C 127.66 154.95 127.81 156.13 128.63 156.76 C 129.45 157.40 130.63 157.25 131.27 156.43 L 131.89 155.63 C 132.53 154.81 132.38 153.63 131.56 152.99 C 130.74 152.36 129.56 152.51 128.92 153.32 Z M 128.31 154.13 L 127.69 154.93 C 127.06 155.74 127.21 156.91 128.02 157.55 C 128.83 158.18 130.01 158.03 130.64 157.22 L 131.26 156.43 C 131.89 155.61 131.74 154.44 130.93 153.80 C 130.11 153.17 128.94 153.32 128.31 154.13 Z M 127.70 154.93 L 127.10 155.71 C 126.47 156.52 126.62 157.68 127.43 158.31 C 128.24 158.94 129.41 158.79 130.03 157.98 L 130.63 157.21 C 131.26 156.40 131.11 155.23 130.30 154.60 C 129.49 153.98 128.33 154.12 127.70 154.93 Z M 127.11 155.72 L 126.50 156.51 C 125.87 157.31 126.02 158.47 126.82 159.09 C 127.63 159.72 128.79 159.57 129.41 158.77 L 130.03 157.97 C 130.65 157.17 130.50 156.01 129.70 155.39 C 128.89 154.76 127.73 154.91 127.11 155.72 Z M 126.51 156.51 L 125.88 157.32 C 125.26 158.12 125.40 159.27 126.20 159.90 C 127.00 160.52 128.15 160.37 128.77 159.57 L 129.40 158.76 C 130.02 157.96 129.88 156.81 129.08 156.19 C 128.28 155.57 127.13 155.71 126.51 156.51 Z M 125.89 157.33 L 125.27 158.13 C 124.65 158.92 124.79 160.06 125.58 160.68 C 126.38 161.30 127.52 161.16 128.14 160.36 L 128.76 159.57 C 129.38 158.77 129.24 157.63 128.44 157.01 C 127.65 156.39 126.51 156.54 125.89 157.33 Z M 125.28 158.13 L 124.66 158.93 C 124.04 159.71 124.18 160.85 124.96 161.46 C 125.75 162.08 126.88 161.94 127.50 161.16 L 128.12 160.36 C 128.74 159.57 128.60 158.44 127.82 157.83 C 127.03 157.21 125.90 157.35 125.28 158.13 Z M 124.67 158.93 L 124.05 159.72 C 123.44 160.50 123.57 161.62 124.34 162.23 C 125.12 162.85 126.24 162.71 126.85 161.94 L 127.48 161.15 C 128.09 160.38 127.96 159.25 127.18 158.64 C 126.41 158.03 125.29 158.16 124.67 158.93 Z M 124.07 159.73 L 123.46 160.49 C 122.85 161.26 122.97 162.37 123.74 162.98 C 124.50 163.59 125.62 163.46 126.23 162.70 L 126.84 161.94 C 127.45 161.17 127.32 160.06 126.56 159.45 C 125.79 158.84 124.68 158.96 124.07 159.73 Z M 123.48 160.50 L 122.81 161.32 C 122.20 162.08 122.32 163.18 123.08 163.79 C 123.83 164.39 124.93 164.28 125.54 163.52 L 126.21 162.70 C 126.81 161.94 126.70 160.84 125.94 160.23 C 125.19 159.62 124.09 159.74 123.48 160.50 Z M 122.83 161.33 L 122.20 162.11 C 121.59 162.85 121.70 163.94 122.45 164.55 C 123.19 165.15 124.28 165.04 124.88 164.30 L 125.52 163.52 C 126.13 162.78 126.01 161.68 125.27 161.08 C 124.53 160.47 123.44 160.58 122.83 161.33 Z M 122.22 162.11 L 121.61 162.85 C 121.01 163.59 121.11 164.67 121.85 165.27 C 122.58 165.87 123.66 165.76 124.26 165.03 L 124.87 164.29 C 125.47 163.56 125.36 162.48 124.63 161.88 C 123.90 161.28 122.82 161.38 122.22 162.11 Z M 121.63 162.86 L 121.01 163.61 C 120.41 164.34 120.52 165.40 121.24 166.00 C 121.96 166.59 123.03 166.49 123.62 165.77 L 124.24 165.02 C 124.83 164.30 124.73 163.23 124.01 162.64 C 123.29 162.04 122.22 162.14 121.63 162.86 Z M 121.04 163.62 L 120.41 164.37 C 119.82 165.08 119.91 166.13 120.61 166.72 C 121.32 167.31 122.37 167.22 122.96 166.52 L 123.59 165.76 C 124.18 165.06 124.09 164.01 123.39 163.42 C 122.68 162.82 121.63 162.91 121.04 163.62 Z M 120.45 164.36 L 119.79 165.12 C 119.19 165.80 119.26 166.84 119.94 167.43 C 120.62 168.03 121.66 167.96 122.25 167.28 L 122.92 166.52 C 123.51 165.84 123.45 164.81 122.76 164.21 C 122.08 163.61 121.05 163.68 120.45 164.36 Z M 119.84 165.10 L 119.17 165.82 C 118.56 166.48 118.60 167.50 119.26 168.11 C 119.91 168.71 120.93 168.67 121.54 168.02 L 122.21 167.30 C 122.81 166.64 122.78 165.62 122.12 165.01 C 121.47 164.41 120.44 164.45 119.84 165.10 Z M 119.20 165.81 L 118.52 166.51 C 117.90 167.15 117.92 168.16 118.56 168.78 C 119.19 169.39 120.21 169.38 120.82 168.74 L 121.51 168.03 C 122.12 167.40 122.10 166.38 121.47 165.77 C 120.83 165.15 119.82 165.17 119.20 165.81 Z M 118.54 166.51 L 117.82 167.23 C 117.21 167.86 117.21 168.86 117.83 169.48 C 118.46 170.10 119.46 170.09 120.08 169.47 L 120.80 168.75 C 121.42 168.12 121.41 167.12 120.79 166.50 C 120.17 165.88 119.16 165.89 118.54 166.51 Z M 117.84 167.24 L 117.21 167.86 C 116.60 168.47 116.60 169.47 117.21 170.09 C 117.83 170.71 118.82 170.71 119.44 170.09 L 120.07 169.47 C 120.68 168.85 120.68 167.85 120.07 167.24 C 119.45 166.62 118.45 166.62 117.84 167.24 Z"
      fill="black"
      fill-rule="nonzero" /><path d="M 139.46 143.17 L 140.21 143.85 C 140.96 144.53 142.12 144.47 142.80 143.72 C 143.48 142.97 143.42 141.81 142.67 141.13 L 141.91 140.45 C 141.16 139.77 140.00 139.83 139.33 140.59 C 138.65 141.34 138.71 142.50 139.46 143.17 Z M 140.12 143.89 L 140.85 144.58 C 141.62 145.30 142.84 145.27 143.57 144.49 C 144.30 143.72 144.26 142.50 143.48 141.77 L 142.76 141.09 C 141.98 140.36 140.76 140.40 140.04 141.17 C 139.31 141.95 139.35 143.16 140.12 143.89 Z M 140.74 144.57 L 141.41 145.25 C 142.18 146.03 143.44 146.05 144.22 145.28 C 145.01 144.51 145.02 143.25 144.25 142.46 L 143.59 141.78 C 142.82 141.00 141.56 140.98 140.77 141.75 C 139.99 142.52 139.97 143.78 140.74 144.57 Z M 141.35 145.22 L 142.00 145.91 C 142.75 146.73 144.02 146.78 144.83 146.03 C 145.65 145.28 145.70 144.01 144.95 143.20 L 144.31 142.50 C 143.56 141.68 142.29 141.63 141.47 142.38 C 140.66 143.13 140.60 144.40 141.35 145.22 Z M 142.02 145.92 L 142.74 146.70 C 143.50 147.50 144.76 147.55 145.57 146.79 C 146.38 146.03 146.42 144.77 145.66 143.96 L 144.93 143.19 C 144.18 142.38 142.91 142.34 142.11 143.10 C 141.30 143.85 141.26 145.12 142.02 145.92 Z M 142.80 146.73 L 143.50 147.44 C 144.28 148.21 145.53 148.21 146.31 147.44 C 147.08 146.66 147.08 145.40 146.31 144.63 L 145.60 143.93 C 144.83 143.15 143.57 143.15 142.80 143.93 C 142.02 144.70 142.02 145.96 142.80 146.73 Z M 143.56 147.45 L 144.30 148.16 C 145.09 148.90 146.32 148.87 147.07 148.09 C 147.81 147.30 147.78 146.06 147.00 145.32 L 146.25 144.61 C 145.47 143.87 144.23 143.90 143.48 144.68 C 142.74 145.47 142.77 146.71 143.56 147.45 Z M 144.35 148.17 L 145.11 148.85 C 145.90 149.57 147.12 149.51 147.84 148.72 C 148.55 147.93 148.49 146.71 147.70 145.99 L 146.95 145.31 C 146.16 144.59 144.94 144.65 144.22 145.44 C 143.50 146.23 143.56 147.45 144.35 148.17 Z M 145.17 148.86 L 145.97 149.54 C 146.76 150.22 147.95 150.13 148.63 149.34 C 149.31 148.55 149.22 147.35 148.43 146.67 L 147.64 145.99 C 146.85 145.31 145.65 145.40 144.97 146.19 C 144.29 146.98 144.38 148.18 145.17 148.86 Z M 146.06 149.53 L 146.86 150.17 C 147.65 150.80 148.80 150.67 149.43 149.88 C 150.06 149.09 149.93 147.95 149.14 147.32 L 148.33 146.68 C 147.55 146.05 146.40 146.18 145.77 146.97 C 145.14 147.76 145.27 148.90 146.06 149.53 Z M 146.98 150.16 L 147.73 150.71 C 148.51 151.27 149.60 151.10 150.17 150.32 C 150.74 149.54 150.56 148.45 149.78 147.88 L 149.03 147.33 C 148.25 146.77 147.16 146.94 146.59 147.72 C 146.02 148.50 146.20 149.59 146.98 150.16 Z M 147.83 150.69 L 148.65 151.23 C 149.42 151.75 150.47 151.53 150.98 150.76 C 151.49 149.99 151.27 148.95 150.50 148.44 L 149.68 147.90 C 148.91 147.39 147.87 147.60 147.36 148.37 C 146.85 149.14 147.06 150.18 147.83 150.69 Z M 148.72 151.22 L 149.57 151.74 C 150.34 152.21 151.34 151.98 151.81 151.21 C 152.28 150.45 152.04 149.45 151.28 148.97 L 150.43 148.45 C 149.66 147.98 148.66 148.22 148.19 148.98 C 147.72 149.75 147.96 150.75 148.72 151.22 Z M 149.61 151.72 L 150.20 152.08 C 150.96 152.53 151.93 152.28 152.38 151.53 C 152.83 150.77 152.59 149.80 151.83 149.35 L 151.24 149.00 C 150.49 148.55 149.51 148.79 149.06 149.55 C 148.61 150.30 148.86 151.27 149.61 151.72 Z"
      fill="black"
      fill-rule="nonzero" /><path d="M 159.74 114.98 L 159.50 115.81 C 159.22 116.75 159.76 117.73 160.70 118.01 C 161.64 118.28 162.62 117.74 162.90 116.80 L 163.14 115.97 C 163.41 115.03 162.88 114.05 161.94 113.77 C 161.00 113.50 160.01 114.04 159.74 114.98 Z M 159.49 115.73 L 159.18 116.63 C 158.86 117.57 159.37 118.60 160.31 118.92 C 161.26 119.24 162.28 118.73 162.60 117.79 L 162.91 116.89 C 163.23 115.94 162.72 114.92 161.78 114.60 C 160.83 114.28 159.81 114.78 159.49 115.73 Z M 159.19 116.50 L 158.76 117.54 C 158.37 118.47 158.82 119.55 159.75 119.94 C 160.69 120.33 161.77 119.89 162.16 118.95 L 162.59 117.91 C 162.98 116.97 162.54 115.90 161.60 115.51 C 160.66 115.12 159.58 115.56 159.19 116.50 Z M 158.78 117.43 L 158.34 118.34 C 157.89 119.26 158.28 120.38 159.20 120.83 C 160.13 121.28 161.24 120.89 161.69 119.97 L 162.14 119.06 C 162.59 118.13 162.20 117.02 161.28 116.56 C 160.35 116.11 159.24 116.50 158.78 117.43 Z M 158.36 118.27 L 157.89 119.17 C 157.40 120.08 157.75 121.22 158.66 121.70 C 159.58 122.19 160.71 121.84 161.20 120.93 L 161.67 120.03 C 162.16 119.12 161.81 117.98 160.90 117.50 C 159.98 117.01 158.85 117.36 158.36 118.27 Z M 157.90 119.13 L 157.39 120.04 C 156.88 120.95 157.20 122.09 158.11 122.60 C 159.01 123.11 160.16 122.79 160.67 121.88 L 161.18 120.97 C 161.69 120.06 161.37 118.92 160.46 118.41 C 159.56 117.90 158.41 118.22 157.90 119.13 Z M 157.40 120.01 L 156.88 120.89 C 156.36 121.79 156.66 122.95 157.56 123.47 C 158.45 124.00 159.61 123.70 160.13 122.80 L 160.65 121.91 C 161.18 121.02 160.88 119.86 159.98 119.34 C 159.08 118.81 157.93 119.11 157.40 120.01 Z M 156.90 120.87 L 156.39 121.70 C 155.84 122.59 156.13 123.76 157.02 124.30 C 157.91 124.84 159.07 124.56 159.61 123.67 L 160.12 122.83 C 160.66 121.94 160.38 120.78 159.49 120.23 C 158.60 119.69 157.44 119.97 156.90 120.87 Z M 156.41 121.67 L 155.78 122.65 C 155.22 123.53 155.48 124.69 156.36 125.25 C 157.24 125.82 158.40 125.56 158.96 124.68 L 159.59 123.70 C 160.15 122.82 159.89 121.66 159.01 121.10 C 158.14 120.53 156.97 120.79 156.41 121.67 Z M 155.82 122.61 L 155.27 123.42 C 154.69 124.28 154.92 125.44 155.77 126.02 C 156.63 126.61 157.80 126.38 158.38 125.52 L 158.93 124.72 C 159.51 123.86 159.28 122.69 158.43 122.11 C 157.57 121.53 156.40 121.75 155.82 122.61 Z M 155.31 123.39 L 154.80 124.09 C 154.20 124.93 154.40 126.09 155.24 126.69 C 156.07 127.29 157.24 127.10 157.84 126.26 L 158.34 125.56 C 158.94 124.72 158.75 123.55 157.91 122.95 C 157.08 122.35 155.91 122.55 155.31 123.39 Z M 154.84 124.07 L 154.26 124.85 C 153.65 125.67 153.82 126.82 154.64 127.43 C 155.46 128.04 156.61 127.87 157.22 127.06 L 157.80 126.28 C 158.41 125.46 158.24 124.31 157.43 123.70 C 156.61 123.09 155.45 123.26 154.84 124.07 Z M 154.32 124.83 L 153.70 125.61 C 153.08 126.39 153.21 127.53 154.00 128.16 C 154.79 128.78 155.93 128.64 156.55 127.86 L 157.17 127.08 C 157.79 126.29 157.66 125.15 156.87 124.53 C 156.08 123.91 154.94 124.04 154.32 124.83 Z M 153.77 125.57 L 153.12 126.34 C 152.48 127.08 152.57 128.21 153.31 128.85 C 154.06 129.49 155.18 129.40 155.82 128.66 L 156.48 127.89 C 157.12 127.14 157.03 126.02 156.29 125.38 C 155.54 124.74 154.41 124.83 153.77 125.57 Z M 153.20 126.31 L 152.53 127.03 C 151.87 127.73 151.91 128.83 152.62 129.49 C 153.32 130.14 154.42 130.10 155.07 129.40 L 155.74 128.68 C 156.40 127.98 156.36 126.88 155.66 126.22 C 154.95 125.57 153.85 125.61 153.20 126.31 Z M 152.59 127.03 L 151.89 127.75 C 151.24 128.42 151.25 129.49 151.91 130.14 C 152.58 130.80 153.65 130.79 154.30 130.12 L 155.01 129.40 C 155.66 128.73 155.65 127.66 154.99 127.01 C 154.32 126.35 153.25 126.36 152.59 127.03 Z M 151.93 127.77 L 151.37 128.33 C 150.73 128.97 150.73 130.01 151.37 130.66 C 152.02 131.30 153.06 131.30 153.70 130.66 L 154.26 130.10 C 154.90 129.46 154.91 128.41 154.26 127.77 C 153.62 127.13 152.58 127.13 151.93 127.77 Z"
      fill="black"
      fill-rule="nonzero" /><path d="M 169.48 118.76 L 170.33 119.22 C 171.20 119.71 172.30 119.39 172.79 118.52 C 173.27 117.64 172.96 116.54 172.08 116.06 L 171.24 115.59 C 170.36 115.10 169.26 115.42 168.78 116.29 C 168.29 117.17 168.61 118.27 169.48 118.76 Z M 170.26 119.20 L 171.12 119.72 C 171.98 120.24 173.10 119.97 173.62 119.10 C 174.14 118.24 173.87 117.12 173.01 116.60 L 172.15 116.08 C 171.29 115.56 170.17 115.84 169.65 116.70 C 169.13 117.56 169.40 118.68 170.26 119.20 Z M 171.02 119.66 L 171.80 120.20 C 172.63 120.78 173.77 120.57 174.35 119.74 C 174.92 118.92 174.72 117.78 173.89 117.20 L 173.11 116.66 C 172.28 116.09 171.14 116.29 170.56 117.12 C 169.99 117.95 170.19 119.09 171.02 119.66 Z M 171.74 120.15 L 172.48 120.72 C 173.28 121.33 174.42 121.17 175.03 120.37 C 175.64 119.57 175.49 118.42 174.69 117.81 L 173.95 117.25 C 173.15 116.64 172.00 116.80 171.39 117.60 C 170.78 118.40 170.94 119.54 171.74 120.15 Z M 172.47 120.70 L 173.29 121.34 C 174.08 121.96 175.23 121.82 175.84 121.02 C 176.46 120.23 176.32 119.09 175.52 118.47 L 174.70 117.83 C 173.91 117.21 172.76 117.35 172.15 118.15 C 171.53 118.94 171.67 120.08 172.47 120.70 Z M 173.31 121.35 L 174.16 121.99 C 174.95 122.60 176.09 122.44 176.69 121.64 C 177.30 120.85 177.14 119.71 176.35 119.11 L 175.50 118.46 C 174.71 117.86 173.57 118.01 172.97 118.81 C 172.36 119.61 172.51 120.74 173.31 121.35 Z M 174.18 122.00 L 174.94 122.56 C 175.74 123.15 176.87 122.97 177.46 122.17 C 178.05 121.37 177.88 120.24 177.08 119.65 L 176.32 119.10 C 175.52 118.51 174.39 118.68 173.80 119.48 C 173.21 120.28 173.38 121.41 174.18 122.00 Z M 174.96 122.56 L 175.76 123.14 C 176.57 123.72 177.69 123.54 178.27 122.74 C 178.85 121.94 178.67 120.82 177.87 120.24 L 177.06 119.65 C 176.25 119.07 175.13 119.25 174.55 120.05 C 173.97 120.86 174.15 121.98 174.96 122.56 Z M 175.78 123.14 L 176.63 123.74 C 177.43 124.32 178.54 124.13 179.11 123.33 C 179.69 122.53 179.50 121.41 178.70 120.84 L 177.85 120.24 C 177.05 119.67 175.94 119.85 175.36 120.65 C 174.79 121.45 174.98 122.57 175.78 123.14 Z M 176.64 123.74 L 177.50 124.35 C 178.30 124.92 179.41 124.73 179.97 123.94 C 180.54 123.14 180.35 122.03 179.56 121.46 L 178.69 120.85 C 177.89 120.28 176.78 120.47 176.22 121.27 C 175.65 122.06 175.84 123.17 176.64 123.74 Z M 177.51 124.35 L 177.58 124.40 C 178.37 124.97 179.48 124.78 180.04 123.98 C 180.61 123.19 180.42 122.08 179.62 121.52 L 179.55 121.47 C 178.76 120.90 177.65 121.09 177.09 121.89 C 176.52 122.68 176.71 123.79 177.51 124.35 Z"
      fill="black"
      fill-rule="nonzero" /><path d="M 155.93 133.89 L 156.23 134.84 C 156.51 135.73 157.47 136.24 158.37 135.95 C 159.27 135.67 159.77 134.71 159.49 133.82 L 159.19 132.87 C 158.91 131.97 157.95 131.47 157.05 131.75 C 156.15 132.03 155.65 132.99 155.93 133.89 Z M 156.27 134.90 L 156.61 135.84 C 156.93 136.71 157.89 137.17 158.77 136.85 C 159.64 136.54 160.10 135.57 159.78 134.70 L 159.44 133.76 C 159.13 132.88 158.16 132.43 157.29 132.74 C 156.41 133.06 155.96 134.02 156.27 134.90 Z M 156.67 135.95 L 157.08 136.86 C 157.45 137.70 158.44 138.08 159.28 137.71 C 160.13 137.33 160.50 136.34 160.13 135.50 L 159.72 134.59 C 159.35 133.75 158.36 133.37 157.52 133.74 C 156.68 134.12 156.30 135.11 156.67 135.95 Z M 157.13 136.94 L 157.58 137.83 C 158.00 138.65 159.01 138.97 159.82 138.55 C 160.64 138.13 160.96 137.13 160.54 136.31 L 160.08 135.42 C 159.66 134.60 158.66 134.28 157.84 134.70 C 157.03 135.12 156.71 136.13 157.13 136.94 Z M 157.60 137.85 L 158.07 138.74 C 158.50 139.55 159.51 139.85 160.32 139.42 C 161.12 138.99 161.43 137.99 161.00 137.18 L 160.53 136.29 C 160.10 135.48 159.09 135.18 158.28 135.61 C 157.47 136.04 157.17 137.05 157.60 137.85 Z M 158.07 138.74 L 158.54 139.62 C 158.97 140.43 159.98 140.73 160.79 140.30 C 161.60 139.87 161.90 138.86 161.47 138.05 L 161.00 137.17 C 160.56 136.37 159.56 136.06 158.75 136.49 C 157.94 136.93 157.64 137.93 158.07 138.74 Z M 158.56 139.66 L 159.07 140.56 C 159.53 141.36 160.54 141.64 161.34 141.18 C 162.14 140.73 162.42 139.71 161.96 138.91 L 161.45 138.01 C 160.99 137.21 159.98 136.94 159.18 137.39 C 158.38 137.85 158.10 138.86 158.56 139.66 Z M 159.15 140.74 L 159.83 141.67 C 160.38 142.43 161.45 142.59 162.21 142.04 C 162.96 141.48 163.13 140.41 162.57 139.66 L 161.89 138.73 C 161.33 137.97 160.27 137.81 159.51 138.36 C 158.75 138.92 158.59 139.98 159.15 140.74 Z M 161.77 142.33 L 162.17 142.19 C 163.09 141.87 163.58 140.87 163.26 139.95 C 162.95 139.03 161.94 138.54 161.02 138.86 L 160.62 139.00 C 159.70 139.31 159.21 140.32 159.53 141.24 C 159.85 142.16 160.85 142.65 161.77 142.33 Z M 163.39 140.74 L 163.50 139.80 C 163.62 138.81 162.92 137.91 161.93 137.79 C 160.93 137.68 160.04 138.38 159.92 139.37 L 159.80 140.31 C 159.69 141.30 160.39 142.20 161.38 142.32 C 162.37 142.44 163.27 141.73 163.39 140.74 Z M 163.55 139.61 L 163.56 138.39 C 163.58 137.37 162.76 136.54 161.75 136.53 C 160.73 136.51 159.90 137.33 159.89 138.34 L 159.87 139.57 C 159.86 140.58 160.67 141.41 161.69 141.43 C 162.70 141.44 163.53 140.63 163.55 139.61 Z M 163.58 138.38 L 163.59 137.30 C 163.59 136.28 162.77 135.44 161.75 135.44 C 160.72 135.43 159.89 136.25 159.88 137.28 L 159.87 138.35 C 159.86 139.38 160.69 140.21 161.71 140.22 C 162.74 140.22 163.57 139.40 163.58 138.38 Z M 163.59 137.38 L 163.63 136.42 C 163.69 135.40 162.90 134.52 161.88 134.47 C 160.85 134.42 159.98 135.21 159.93 136.23 L 159.88 137.20 C 159.83 138.22 160.62 139.09 161.64 139.14 C 162.66 139.20 163.53 138.41 163.59 137.38 Z M 163.62 136.60 L 163.75 135.65 C 163.90 134.64 163.20 133.70 162.19 133.55 C 161.18 133.40 160.24 134.10 160.09 135.11 L 159.95 136.06 C 159.80 137.07 160.50 138.01 161.51 138.16 C 162.52 138.31 163.47 137.61 163.62 136.60 Z M 163.69 135.90 L 163.97 134.95 C 164.26 133.98 163.70 132.95 162.72 132.66 C 161.74 132.38 160.72 132.94 160.43 133.91 L 160.15 134.86 C 159.86 135.84 160.42 136.87 161.40 137.15 C 162.38 137.44 163.40 136.88 163.69 135.90 Z M 163.86 135.22 L 164.29 134.31 C 164.72 133.40 164.33 132.30 163.41 131.87 C 162.50 131.44 161.41 131.83 160.97 132.74 L 160.54 133.65 C 160.11 134.57 160.50 135.66 161.42 136.09 C 162.33 136.52 163.42 136.13 163.86 135.22 Z M 164.15 134.54 L 164.69 133.72 C 165.25 132.88 165.02 131.75 164.18 131.20 C 163.34 130.64 162.21 130.87 161.65 131.70 L 161.11 132.52 C 160.56 133.35 160.78 134.48 161.62 135.04 C 162.46 135.60 163.59 135.37 164.15 134.54 Z M 164.54 133.90 L 165.20 133.13 C 165.86 132.38 165.78 131.23 165.03 130.58 C 164.27 129.92 163.13 130.00 162.47 130.76 L 161.80 131.52 C 161.15 132.28 161.23 133.42 161.98 134.08 C 162.74 134.74 163.88 134.65 164.54 133.90 Z M 165.05 133.28 L 165.79 132.61 C 166.53 131.94 166.59 130.80 165.93 130.06 C 165.26 129.32 164.12 129.26 163.38 129.93 L 162.63 130.61 C 161.89 131.27 161.83 132.41 162.50 133.15 C 163.17 133.89 164.31 133.95 165.05 133.28 Z M 165.64 132.73 L 166.45 132.14 C 167.26 131.56 167.44 130.43 166.85 129.63 C 166.27 128.82 165.15 128.64 164.34 129.23 L 163.53 129.81 C 162.73 130.39 162.55 131.52 163.13 132.33 C 163.71 133.13 164.84 133.31 165.64 132.73 Z M 166.32 132.23 L 167.18 131.71 C 168.03 131.20 168.31 130.10 167.80 129.24 C 167.29 128.39 166.19 128.11 165.33 128.62 L 164.47 129.14 C 163.62 129.65 163.34 130.76 163.85 131.61 C 164.36 132.46 165.47 132.74 166.32 132.23 Z M 167.06 131.77 L 167.98 131.31 C 168.86 130.87 169.22 129.79 168.78 128.90 C 168.33 128.02 167.25 127.66 166.37 128.11 L 165.45 128.56 C 164.57 129.01 164.21 130.09 164.65 130.97 C 165.10 131.86 166.18 132.22 167.06 131.77 Z M 167.83 131.37 L 168.76 131.00 C 169.68 130.63 170.12 129.59 169.76 128.68 C 169.39 127.76 168.35 127.32 167.44 127.68 L 166.51 128.05 C 165.59 128.42 165.15 129.45 165.51 130.37 C 165.88 131.29 166.92 131.73 167.83 131.37 Z M 168.57 131.06 L 169.56 130.79 C 170.51 130.53 171.06 129.55 170.80 128.60 C 170.54 127.65 169.56 127.09 168.61 127.35 L 167.63 127.62 C 166.68 127.88 166.12 128.86 166.38 129.81 C 166.64 130.76 167.62 131.32 168.57 131.06 Z M 169.16 130.87 L 170.19 130.82 C 171.18 130.78 171.95 129.94 171.91 128.95 C 171.87 127.95 171.03 127.18 170.03 127.23 L 169.01 127.27 C 168.01 127.32 167.24 128.16 167.29 129.15 C 167.33 130.14 168.17 130.91 169.16 130.87 Z M 169.18 130.60 L 169.92 131.03 C 170.78 131.54 171.90 131.26 172.42 130.39 C 172.93 129.52 172.64 128.40 171.77 127.88 L 171.04 127.45 C 170.17 126.94 169.05 127.23 168.54 128.10 C 168.03 128.96 168.31 130.08 169.18 130.60 Z M 169.12 130.13 L 169.45 130.97 C 169.82 131.92 170.89 132.39 171.84 132.02 C 172.80 131.65 173.27 130.57 172.90 129.62 L 172.57 128.78 C 172.20 127.83 171.12 127.36 170.17 127.73 C 169.22 128.10 168.75 129.18 169.12 130.13 Z M 169.30 130.44 L 169.38 131.51 C 169.46 132.55 170.37 133.32 171.40 133.24 C 172.43 133.16 173.21 132.26 173.13 131.22 L 173.04 130.15 C 172.96 129.11 172.06 128.34 171.03 128.42 C 169.99 128.50 169.22 129.41 169.30 130.44 Z M 169.36 131.22 L 169.29 132.22 C 169.20 133.26 169.98 134.17 171.03 134.26 C 172.07 134.34 172.98 133.56 173.07 132.52 L 173.15 131.52 C 173.23 130.47 172.45 129.56 171.40 129.48 C 170.36 129.39 169.45 130.17 169.36 131.22 Z M 169.31 131.98 L 169.11 132.91 C 168.90 133.94 169.56 134.95 170.59 135.16 C 171.62 135.38 172.63 134.72 172.85 133.69 L 173.04 132.76 C 173.26 131.72 172.60 130.71 171.57 130.50 C 170.53 130.28 169.52 130.95 169.31 131.98 Z M 169.16 132.71 L 168.84 133.70 C 168.51 134.70 169.06 135.78 170.07 136.11 C 171.08 136.44 172.16 135.89 172.48 134.88 L 172.80 133.89 C 173.13 132.88 172.58 131.80 171.57 131.48 C 170.57 131.15 169.49 131.70 169.16 132.71 Z M 168.88 133.57 L 168.50 134.50 C 168.10 135.49 168.58 136.61 169.56 137.00 C 170.55 137.40 171.67 136.93 172.06 135.94 L 172.44 135.01 C 172.84 134.02 172.36 132.90 171.38 132.51 C 170.40 132.11 169.28 132.58 168.88 133.57 Z M 168.53 134.43 L 168.11 135.35 C 167.68 136.32 168.11 137.46 169.08 137.90 C 170.05 138.33 171.19 137.90 171.62 136.93 L 172.04 136.01 C 172.47 135.04 172.04 133.91 171.07 133.47 C 170.10 133.03 168.96 133.46 168.53 134.43 Z M 168.13 135.31 L 167.68 136.24 C 167.22 137.20 167.63 138.35 168.59 138.81 C 169.54 139.27 170.70 138.87 171.16 137.91 L 171.60 136.98 C 172.06 136.02 171.66 134.87 170.70 134.41 C 169.74 133.95 168.59 134.35 168.13 135.31 Z M 167.70 136.21 L 167.25 137.10 C 166.77 138.05 167.15 139.21 168.10 139.69 C 169.06 140.17 170.21 139.78 170.69 138.83 L 171.14 137.94 C 171.62 136.99 171.24 135.83 170.29 135.35 C 169.34 134.87 168.18 135.26 167.70 136.21 Z M 167.26 137.07 L 166.75 138.05 C 166.26 138.99 166.62 140.16 167.56 140.65 C 168.51 141.14 169.67 140.78 170.16 139.84 L 170.68 138.86 C 171.17 137.92 170.81 136.75 169.86 136.26 C 168.92 135.77 167.76 136.13 167.26 137.07 Z M 166.78 138.02 L 166.29 138.90 C 165.78 139.83 166.11 141.00 167.04 141.51 C 167.97 142.02 169.14 141.68 169.65 140.76 L 170.14 139.87 C 170.65 138.94 170.32 137.78 169.39 137.26 C 168.46 136.75 167.29 137.09 166.78 138.02 Z M 166.32 138.86 L 165.86 139.64 C 165.32 140.55 165.63 141.73 166.54 142.26 C 167.45 142.80 168.63 142.49 169.16 141.58 L 169.62 140.80 C 170.16 139.89 169.85 138.71 168.94 138.18 C 168.03 137.64 166.86 137.94 166.32 138.86 Z M 165.91 139.59 L 165.40 140.39 C 164.84 141.27 165.10 142.45 165.98 143.01 C 166.87 143.57 168.04 143.31 168.61 142.43 L 169.11 141.63 C 169.68 140.75 169.42 139.57 168.53 139.01 C 167.65 138.44 166.47 138.70 165.91 139.59 Z M 165.46 140.34 L 164.91 141.14 C 164.32 142.00 164.54 143.16 165.39 143.75 C 166.24 144.34 167.41 144.12 168.00 143.27 L 168.55 142.47 C 169.14 141.62 168.92 140.45 168.07 139.86 C 167.21 139.27 166.05 139.49 165.46 140.34 Z M 164.96 141.12 L 164.35 141.96 C 163.75 142.79 163.93 143.95 164.76 144.55 C 165.59 145.14 166.74 144.96 167.34 144.13 L 167.95 143.29 C 168.55 142.46 168.36 141.31 167.54 140.71 C 166.71 140.11 165.55 140.30 164.96 141.12 Z M 164.38 141.97 L 163.83 142.72 C 163.24 143.52 163.41 144.66 164.22 145.26 C 165.02 145.85 166.16 145.68 166.75 144.87 L 167.31 144.13 C 167.90 143.32 167.73 142.18 166.92 141.59 C 166.12 140.99 164.98 141.16 164.38 141.97 Z M 163.87 142.73 L 163.26 143.54 C 162.68 144.33 162.84 145.45 163.63 146.03 C 164.42 146.62 165.53 146.46 166.12 145.67 L 166.72 144.86 C 167.31 144.07 167.14 142.95 166.35 142.37 C 165.57 141.78 164.45 141.95 163.87 142.73 Z M 163.29 143.56 L 162.66 144.41 C 162.09 145.18 162.25 146.27 163.02 146.85 C 163.79 147.42 164.88 147.27 165.45 146.49 L 166.09 145.65 C 166.66 144.88 166.50 143.79 165.73 143.21 C 164.96 142.63 163.87 142.79 163.29 143.56 Z M 162.68 144.42 L 162.44 144.75 C 161.87 145.51 162.03 146.58 162.79 147.15 C 163.55 147.72 164.62 147.56 165.19 146.80 L 165.43 146.48 C 166.00 145.72 165.85 144.64 165.09 144.08 C 164.33 143.51 163.25 143.66 162.68 144.42 Z"
      fill="black"
      fill-rule="nonzero" /><path d="M 161.08 148.69 L 161.07 149.70 C 161.06 150.64 161.81 151.41 162.75 151.42 C 163.69 151.43 164.46 150.68 164.47 149.74 L 164.48 148.72 C 164.49 147.78 163.74 147.02 162.80 147.01 C 161.86 147.00 161.09 147.75 161.08 148.69 Z M 160.96 149.59 L 160.89 150.59 C 160.82 151.59 161.57 152.46 162.57 152.53 C 163.57 152.60 164.44 151.85 164.51 150.84 L 164.58 149.85 C 164.65 148.85 163.90 147.98 162.90 147.91 C 161.90 147.84 161.03 148.59 160.96 149.59 Z M 160.82 150.34 L 160.63 151.29 C 160.42 152.33 161.10 153.34 162.14 153.55 C 163.18 153.75 164.19 153.08 164.40 152.03 L 164.58 151.09 C 164.79 150.05 164.11 149.04 163.07 148.83 C 162.03 148.63 161.02 149.30 160.82 150.34 Z M 160.66 150.98 L 160.35 151.84 C 159.98 152.86 160.50 153.99 161.52 154.37 C 162.54 154.74 163.67 154.22 164.05 153.20 L 164.36 152.34 C 164.73 151.32 164.21 150.19 163.19 149.81 C 162.17 149.44 161.04 149.96 160.66 150.98 Z M 160.44 151.63 L 159.99 152.52 C 159.50 153.49 159.90 154.68 160.87 155.17 C 161.84 155.66 163.02 155.26 163.51 154.29 L 163.96 153.40 C 164.45 152.43 164.06 151.25 163.08 150.76 C 162.11 150.27 160.93 150.66 160.44 151.63 Z M 160.05 152.42 L 159.49 153.37 C 158.95 154.31 159.27 155.52 160.21 156.07 C 161.15 156.61 162.36 156.29 162.90 155.35 L 163.46 154.40 C 164.00 153.45 163.68 152.25 162.74 151.70 C 161.80 151.15 160.59 151.48 160.05 152.42 Z M 159.51 153.34 L 159.01 154.17 C 158.44 155.10 158.74 156.32 159.67 156.88 C 160.60 157.45 161.81 157.15 162.38 156.22 L 162.88 155.39 C 163.45 154.45 163.15 153.24 162.22 152.68 C 161.29 152.11 160.08 152.41 159.51 153.34 Z M 159.02 154.15 L 158.47 155.03 C 157.90 155.95 158.18 157.17 159.11 157.75 C 160.03 158.32 161.25 158.04 161.83 157.11 L 162.37 156.24 C 162.94 155.31 162.66 154.10 161.73 153.52 C 160.81 152.94 159.59 153.23 159.02 154.15 Z M 158.48 155.01 L 157.93 155.88 C 157.35 156.80 157.63 158.02 158.55 158.60 C 159.47 159.19 160.69 158.91 161.27 157.99 L 161.82 157.12 C 162.40 156.20 162.12 154.98 161.20 154.40 C 160.28 153.82 159.06 154.09 158.48 155.01 Z M 157.94 155.87 L 157.40 156.71 C 156.82 157.63 157.08 158.85 158.00 159.43 C 158.92 160.02 160.14 159.76 160.73 158.84 L 161.26 158.00 C 161.85 157.08 161.58 155.86 160.67 155.27 C 159.75 154.69 158.53 154.95 157.94 155.87 Z M 157.41 156.70 L 156.83 157.59 C 156.23 158.51 156.49 159.73 157.41 160.33 C 158.32 160.92 159.54 160.66 160.14 159.75 L 160.72 158.85 C 161.31 157.93 161.06 156.71 160.14 156.12 C 159.23 155.52 158.00 155.78 157.41 156.70 Z M 156.83 157.59 L 156.29 158.40 C 155.70 159.32 155.95 160.54 156.86 161.14 C 157.77 161.74 159.00 161.48 159.59 160.57 L 160.13 159.75 C 160.73 158.84 160.48 157.62 159.57 157.02 C 158.65 156.42 157.43 156.67 156.83 157.59 Z M 156.30 158.40 L 155.78 159.19 C 155.18 160.10 155.43 161.33 156.34 161.93 C 157.25 162.53 158.47 162.27 159.07 161.36 L 159.59 160.57 C 160.19 159.66 159.94 158.44 159.03 157.84 C 158.12 157.24 156.90 157.49 156.30 158.40 Z M 155.78 159.20 L 155.25 160.00 C 154.65 160.91 154.91 162.13 155.82 162.73 C 156.73 163.33 157.95 163.07 158.55 162.16 L 159.08 161.36 C 159.67 160.45 159.42 159.22 158.51 158.63 C 157.60 158.03 156.37 158.28 155.78 159.20 Z M 155.25 160.00 L 154.71 160.83 C 154.11 161.74 154.37 162.96 155.28 163.56 C 156.19 164.15 157.41 163.89 158.01 162.98 L 158.55 162.16 C 159.14 161.24 158.89 160.02 157.98 159.43 C 157.07 158.83 155.85 159.09 155.25 160.00 Z M 154.71 160.83 L 154.15 161.69 C 153.56 162.60 153.82 163.82 154.72 164.41 C 155.63 165.00 156.85 164.75 157.45 163.84 L 158.00 162.98 C 158.60 162.07 158.34 160.85 157.43 160.26 C 156.52 159.67 155.31 159.92 154.71 160.83 Z M 154.16 161.69 L 153.61 162.53 C 153.01 163.44 153.26 164.66 154.17 165.25 C 155.08 165.84 156.29 165.59 156.89 164.68 L 157.44 163.84 C 158.03 162.93 157.78 161.72 156.87 161.12 C 155.97 160.53 154.75 160.78 154.16 161.69 Z M 153.61 162.53 L 153.06 163.36 C 152.47 164.27 152.72 165.48 153.62 166.07 C 154.53 166.67 155.74 166.42 156.34 165.51 L 156.88 164.68 C 157.48 163.78 157.23 162.57 156.32 161.97 C 155.42 161.38 154.21 161.63 153.61 162.53 Z M 153.07 163.36 L 152.51 164.20 C 151.92 165.10 152.17 166.31 153.07 166.91 C 153.97 167.50 155.18 167.26 155.77 166.36 L 156.33 165.52 C 156.93 164.62 156.68 163.40 155.78 162.81 C 154.88 162.21 153.67 162.46 153.07 163.36 Z M 152.52 164.20 L 151.96 165.04 C 151.37 165.93 151.61 167.15 152.50 167.74 C 153.40 168.34 154.61 168.10 155.21 167.20 L 155.77 166.36 C 156.36 165.46 156.12 164.25 155.22 163.66 C 154.33 163.06 153.12 163.30 152.52 164.20 Z M 151.98 165.04 L 151.41 165.88 C 150.82 166.77 151.05 167.97 151.94 168.57 C 152.83 169.16 154.03 168.93 154.63 168.04 L 155.19 167.20 C 155.79 166.31 155.55 165.11 154.66 164.51 C 153.78 163.91 152.57 164.15 151.98 165.04 Z M 151.43 165.88 L 150.87 166.71 C 150.28 167.59 150.51 168.78 151.38 169.38 C 152.26 169.97 153.45 169.74 154.05 168.87 L 154.61 168.03 C 155.20 167.16 154.97 165.97 154.10 165.37 C 153.22 164.78 152.03 165.01 151.43 165.88 Z M 150.89 166.72 L 150.33 167.54 C 149.74 168.40 149.96 169.58 150.82 170.17 C 151.69 170.77 152.87 170.55 153.46 169.68 L 154.02 168.86 C 154.62 168.00 154.40 166.82 153.53 166.23 C 152.67 165.63 151.49 165.85 150.89 166.72 Z M 150.36 167.54 L 149.79 168.35 C 149.20 169.20 149.40 170.37 150.25 170.96 C 151.10 171.56 152.27 171.35 152.87 170.50 L 153.43 169.68 C 154.03 168.83 153.82 167.66 152.97 167.07 C 152.12 166.48 150.95 166.69 150.36 167.54 Z M 149.82 168.35 L 149.24 169.17 C 148.65 170.00 148.84 171.16 149.68 171.75 C 150.51 172.34 151.67 172.15 152.26 171.31 L 152.84 170.50 C 153.43 169.66 153.23 168.51 152.40 167.91 C 151.56 167.32 150.41 167.52 149.82 168.35 Z M 149.27 169.17 L 148.68 169.98 C 148.09 170.80 148.28 171.94 149.10 172.53 C 149.92 173.12 151.06 172.94 151.65 172.12 L 152.23 171.31 C 152.82 170.49 152.64 169.35 151.82 168.76 C 151.00 168.17 149.86 168.35 149.27 169.17 Z M 148.71 169.99 L 148.12 170.80 C 147.54 171.60 147.71 172.73 148.52 173.32 C 149.32 173.90 150.45 173.72 151.04 172.92 L 151.62 172.11 C 152.21 171.30 152.03 170.18 151.23 169.59 C 150.42 169.01 149.29 169.18 148.71 169.99 Z M 148.15 170.81 L 147.59 171.58 C 147.01 172.37 147.17 173.47 147.96 174.05 C 148.75 174.63 149.86 174.47 150.44 173.68 L 151.01 172.91 C 151.59 172.12 151.42 171.01 150.63 170.43 C 149.84 169.85 148.73 170.02 148.15 170.81 Z M 147.63 171.58 L 147.04 172.36 C 146.46 173.13 146.61 174.22 147.37 174.79 C 148.14 175.37 149.23 175.22 149.81 174.46 L 150.40 173.67 C 150.98 172.91 150.83 171.82 150.06 171.24 C 149.30 170.66 148.21 170.81 147.63 171.58 Z M 147.09 172.35 L 146.45 173.16 C 145.87 173.89 146.00 174.96 146.73 175.54 C 147.47 176.13 148.54 176.00 149.12 175.27 L 149.76 174.46 C 150.34 173.73 150.21 172.66 149.48 172.08 C 148.74 171.49 147.67 171.62 147.09 172.35 Z M 146.51 173.14 L 145.85 173.92 C 145.26 174.63 145.36 175.68 146.06 176.27 C 146.77 176.86 147.82 176.77 148.41 176.06 L 149.07 175.28 C 149.66 174.57 149.56 173.52 148.86 172.93 C 148.15 172.34 147.10 172.43 146.51 173.14 Z M 145.90 173.91 L 145.26 174.63 C 144.66 175.31 144.73 176.35 145.41 176.95 C 146.09 177.55 147.13 177.49 147.73 176.80 L 148.37 176.08 C 148.97 175.40 148.90 174.36 148.22 173.76 C 147.54 173.16 146.50 173.22 145.90 173.91 Z M 145.29 174.62 L 144.62 175.36 C 144.01 176.03 144.06 177.06 144.73 177.66 C 145.39 178.27 146.42 178.22 147.03 177.55 L 147.70 176.81 C 148.31 176.15 148.26 175.12 147.59 174.51 C 146.92 173.91 145.89 173.96 145.29 174.62 Z M 144.64 175.36 L 143.94 176.11 C 143.34 176.77 143.38 177.79 144.03 178.39 C 144.68 179.00 145.70 178.96 146.31 178.31 L 147.00 177.56 C 147.61 176.90 147.57 175.88 146.92 175.28 C 146.26 174.67 145.24 174.71 144.64 175.36 Z M 143.96 176.12 L 143.31 176.81 C 142.71 177.45 142.74 178.46 143.39 179.07 C 144.03 179.67 145.04 179.64 145.64 178.99 L 146.29 178.30 C 146.89 177.66 146.86 176.65 146.22 176.04 C 145.57 175.44 144.56 175.47 143.96 176.12 Z"
      fill="black"
      fill-rule="nonzero" /><path d="M 164.21 150.65 L 164.18 151.48 C 164.14 152.36 164.83 153.10 165.71 153.14 C 166.59 153.17 167.33 152.49 167.36 151.61 L 167.39 150.78 C 167.43 149.90 166.74 149.16 165.86 149.12 C 164.98 149.09 164.24 149.77 164.21 150.65 Z M 164.13 151.50 L 164.10 152.49 C 164.07 153.40 164.79 154.15 165.69 154.18 C 166.60 154.20 167.36 153.49 167.38 152.58 L 167.41 151.59 C 167.43 150.68 166.72 149.93 165.81 149.90 C 164.91 149.88 164.15 150.59 164.13 151.50 Z M 164.06 152.51 L 164.04 153.66 C 164.03 154.58 164.77 155.35 165.70 155.36 C 166.63 155.38 167.39 154.64 167.40 153.71 L 167.42 152.56 C 167.44 151.63 166.69 150.87 165.77 150.86 C 164.84 150.84 164.07 151.58 164.06 152.51 Z M 164.03 153.67 L 164.02 154.66 C 164.01 155.59 164.77 156.36 165.70 156.37 C 166.64 156.37 167.41 155.62 167.41 154.68 L 167.42 153.69 C 167.43 152.76 166.67 151.99 165.74 151.99 C 164.80 151.98 164.03 152.73 164.03 153.67 Z M 164.02 154.66 L 164.02 155.72 C 164.02 156.65 164.77 157.41 165.71 157.42 C 166.64 157.42 167.40 156.66 167.41 155.73 L 167.41 154.67 C 167.41 153.74 166.66 152.98 165.72 152.97 C 164.79 152.97 164.03 153.73 164.02 154.66 Z M 164.02 155.72 L 164.02 156.76 C 164.02 157.70 164.77 158.45 165.71 158.46 C 166.64 158.46 167.40 157.70 167.41 156.76 L 167.41 155.72 C 167.41 154.79 166.65 154.03 165.72 154.03 C 164.78 154.03 164.02 154.79 164.02 155.72 Z M 164.02 156.76 L 164.02 157.73 C 164.02 158.66 164.78 159.42 165.71 159.42 C 166.65 159.42 167.40 158.66 167.40 157.73 L 167.40 156.76 C 167.40 155.83 166.65 155.07 165.71 155.07 C 164.78 155.07 164.02 155.83 164.02 156.76 Z M 164.03 157.73 L 164.03 158.91 C 164.03 159.84 164.78 160.59 165.71 160.59 C 166.64 160.59 167.40 159.84 167.40 158.91 L 167.40 157.73 C 167.40 156.80 166.64 156.04 165.71 156.04 C 164.78 156.04 164.03 156.80 164.03 157.73 Z M 164.04 158.92 L 164.04 159.84 C 164.05 160.76 164.80 161.51 165.73 161.50 C 166.65 161.50 167.40 160.74 167.39 159.82 L 167.39 158.90 C 167.38 157.97 166.63 157.23 165.70 157.23 C 164.78 157.24 164.03 157.99 164.04 158.92 Z M 164.05 159.86 L 164.07 160.74 C 164.09 161.65 164.85 162.38 165.76 162.37 C 166.68 162.35 167.41 161.59 167.40 160.67 L 167.38 159.80 C 167.36 158.88 166.61 158.15 165.69 158.16 C 164.77 158.18 164.04 158.94 164.05 159.86 Z M 164.08 160.77 L 164.12 161.76 C 164.15 162.67 164.92 163.39 165.83 163.35 C 166.75 163.32 167.46 162.55 167.43 161.64 L 167.39 160.64 C 167.36 159.73 166.59 159.01 165.67 159.05 C 164.76 159.08 164.04 159.85 164.08 160.77 Z M 164.12 161.81 L 164.19 162.81 C 164.25 163.72 165.03 164.41 165.95 164.35 C 166.86 164.29 167.55 163.51 167.49 162.60 L 167.42 161.59 C 167.36 160.68 166.57 159.99 165.66 160.05 C 164.75 160.11 164.06 160.89 164.12 161.81 Z M 164.20 162.88 L 164.29 163.79 C 164.39 164.70 165.20 165.36 166.10 165.26 C 167.01 165.17 167.67 164.36 167.57 163.45 L 167.48 162.53 C 167.38 161.63 166.57 160.97 165.67 161.06 C 164.76 161.16 164.10 161.97 164.20 162.88 Z M 164.31 163.89 L 164.47 164.89 C 164.62 165.78 165.47 166.39 166.37 166.24 C 167.26 166.09 167.87 165.25 167.72 164.35 L 167.56 163.35 C 167.41 162.46 166.56 161.85 165.67 162.00 C 164.77 162.15 164.16 162.99 164.31 163.89 Z M 164.50 164.99 L 164.73 166.00 C 164.94 166.89 165.82 167.44 166.71 167.23 C 167.59 167.02 168.14 166.14 167.93 165.26 L 167.70 164.25 C 167.49 163.36 166.61 162.81 165.73 163.02 C 164.84 163.23 164.29 164.11 164.50 164.99 Z M 164.76 166.09 L 165.04 167.04 C 165.29 167.91 166.21 168.41 167.07 168.15 C 167.94 167.90 168.44 166.99 168.19 166.12 L 167.91 165.17 C 167.65 164.30 166.74 163.80 165.87 164.06 C 165.00 164.31 164.51 165.22 164.76 166.09 Z M 165.07 167.13 L 165.42 168.10 C 165.72 168.95 166.66 169.39 167.51 169.09 C 168.36 168.79 168.80 167.85 168.50 167.00 L 168.15 166.03 C 167.85 165.18 166.91 164.73 166.06 165.04 C 165.21 165.34 164.77 166.28 165.07 167.13 Z M 165.46 168.21 L 165.87 169.14 C 166.24 169.97 167.20 170.34 168.03 169.98 C 168.86 169.61 169.23 168.65 168.87 167.82 L 168.45 166.89 C 168.09 166.06 167.12 165.69 166.30 166.05 C 165.47 166.42 165.10 167.38 165.46 168.21 Z M 165.95 169.29 L 166.47 170.20 C 166.92 170.99 167.91 171.26 168.70 170.82 C 169.48 170.37 169.76 169.38 169.31 168.59 L 168.79 167.68 C 168.34 166.89 167.35 166.62 166.56 167.06 C 165.78 167.51 165.51 168.50 165.95 169.29 Z M 166.58 170.37 L 167.17 171.17 C 167.71 171.89 168.73 172.04 169.45 171.50 C 170.17 170.97 170.33 169.95 169.79 169.22 L 169.20 168.43 C 168.66 167.71 167.64 167.55 166.92 168.09 C 166.20 168.63 166.05 169.65 166.58 170.37 Z M 167.32 171.33 L 167.98 172.01 C 168.60 172.65 169.63 172.67 170.28 172.04 C 170.92 171.41 170.93 170.38 170.31 169.74 L 169.65 169.06 C 169.02 168.42 167.99 168.40 167.35 169.03 C 166.70 169.66 166.69 170.69 167.32 171.33 Z M 168.16 172.18 L 168.96 172.79 C 169.68 173.33 170.71 173.19 171.25 172.47 C 171.80 171.75 171.65 170.72 170.93 170.18 L 170.13 169.57 C 169.41 169.03 168.38 169.17 167.84 169.89 C 167.29 170.61 167.44 171.63 168.16 172.18 Z M 169.19 172.94 L 170.07 173.40 C 170.87 173.82 171.87 173.51 172.29 172.71 C 172.71 171.90 172.40 170.90 171.59 170.48 L 170.71 170.02 C 169.91 169.60 168.91 169.91 168.49 170.72 C 168.07 171.53 168.38 172.52 169.19 172.94 Z M 170.32 173.52 L 171.25 173.83 C 172.13 174.11 173.06 173.63 173.35 172.76 C 173.63 171.88 173.15 170.95 172.28 170.66 L 171.34 170.36 C 170.47 170.08 169.53 170.56 169.25 171.43 C 168.96 172.30 169.44 173.24 170.32 173.52 Z M 171.52 173.90 L 172.48 174.05 C 173.40 174.18 174.25 173.55 174.39 172.64 C 174.53 171.72 173.90 170.87 172.98 170.73 L 172.01 170.59 C 171.10 170.45 170.24 171.08 170.11 172.00 C 169.97 172.91 170.60 173.77 171.52 173.90 Z M 172.73 174.08 L 173.74 174.08 C 174.67 174.08 175.43 173.32 175.43 172.39 C 175.43 171.46 174.67 170.70 173.74 170.70 L 172.73 170.70 C 171.80 170.70 171.04 171.46 171.04 172.39 C 171.04 173.32 171.80 174.08 172.73 174.08 Z M 173.95 174.08 L 174.95 173.95 C 175.88 173.83 176.54 172.98 176.42 172.04 C 176.30 171.11 175.45 170.45 174.51 170.57 L 173.52 170.70 C 172.59 170.82 171.93 171.67 172.05 172.61 C 172.17 173.54 173.02 174.20 173.95 174.08 Z M 175.13 173.94 L 176.08 173.71 C 177.00 173.49 177.57 172.56 177.35 171.64 C 177.13 170.71 176.21 170.14 175.28 170.36 L 174.33 170.59 C 173.41 170.81 172.84 171.74 173.06 172.66 C 173.28 173.59 174.20 174.16 175.13 173.94 Z M 176.23 173.69 L 177.19 173.37 C 178.10 173.07 178.59 172.08 178.29 171.17 C 177.99 170.26 177.01 169.76 176.09 170.07 L 175.13 170.39 C 174.22 170.69 173.73 171.67 174.03 172.58 C 174.33 173.50 175.32 173.99 176.23 173.69 Z M 177.32 173.34 L 178.27 172.95 C 179.17 172.57 179.59 171.54 179.22 170.65 C 178.85 169.75 177.82 169.32 176.92 169.70 L 175.97 170.09 C 175.07 170.47 174.64 171.50 175.02 172.39 C 175.39 173.29 176.42 173.72 177.32 173.34 Z M 178.37 172.92 L 179.29 172.48 C 180.17 172.05 180.54 170.98 180.11 170.10 C 179.68 169.21 178.61 168.85 177.73 169.28 L 176.81 169.72 C 175.93 170.15 175.56 171.22 175.99 172.10 C 176.42 172.99 177.49 173.35 178.37 172.92 Z M 179.37 172.46 L 180.26 171.98 C 181.13 171.50 181.45 170.40 180.98 169.53 C 180.50 168.65 179.40 168.33 178.53 168.81 L 177.64 169.29 C 176.77 169.77 176.44 170.87 176.92 171.74 C 177.40 172.62 178.50 172.94 179.37 172.46 Z M 180.33 171.96 L 181.17 171.46 C 182.04 170.94 182.32 169.82 181.80 168.95 C 181.28 168.09 180.16 167.80 179.29 168.32 L 178.45 168.82 C 177.59 169.34 177.30 170.47 177.82 171.33 C 178.34 172.20 179.46 172.48 180.33 171.96 Z M 181.24 171.45 L 182.13 170.87 C 182.99 170.31 183.23 169.17 182.68 168.31 C 182.12 167.45 180.97 167.20 180.11 167.76 L 179.22 168.34 C 178.36 168.89 178.12 170.04 178.68 170.90 C 179.23 171.76 180.38 172.00 181.24 171.45 Z M 182.19 170.86 L 183.01 170.29 C 183.86 169.70 184.07 168.53 183.48 167.68 C 182.89 166.83 181.72 166.62 180.87 167.21 L 180.05 167.77 C 179.20 168.36 178.99 169.53 179.58 170.38 C 180.17 171.24 181.34 171.45 182.19 170.86 Z M 183.05 170.29 L 183.82 169.74 C 184.67 169.12 184.86 167.93 184.25 167.08 C 183.63 166.23 182.44 166.04 181.59 166.65 L 180.83 167.21 C 179.97 167.82 179.78 169.01 180.40 169.86 C 181.01 170.71 182.20 170.91 183.05 170.29 Z M 183.85 169.76 L 184.67 169.16 C 185.53 168.53 185.71 167.31 185.08 166.45 C 184.45 165.59 183.23 165.40 182.37 166.04 L 181.56 166.63 C 180.70 167.27 180.51 168.48 181.14 169.34 C 181.78 170.21 182.99 170.39 183.85 169.76 Z M 184.70 169.19 L 185.49 168.61 C 186.37 167.95 186.56 166.71 185.91 165.83 C 185.26 164.95 184.02 164.76 183.13 165.42 L 182.34 166.00 C 181.46 166.65 181.27 167.90 181.92 168.78 C 182.58 169.66 183.82 169.84 184.70 169.19 Z M 185.52 168.63 L 186.34 168.02 C 187.24 167.35 187.42 166.09 186.76 165.19 C 186.09 164.30 184.83 164.11 183.93 164.78 L 183.11 165.39 C 182.21 166.05 182.03 167.32 182.69 168.21 C 183.36 169.11 184.62 169.30 185.52 168.63 Z M 186.48 167.94 L 187.24 167.27 C 188.09 166.53 188.18 165.24 187.44 164.39 C 186.70 163.55 185.41 163.46 184.56 164.20 L 183.80 164.86 C 182.95 165.60 182.86 166.89 183.60 167.74 C 184.34 168.59 185.63 168.67 186.48 167.94 Z M 187.58 166.93 L 188.10 166.20 C 188.76 165.28 188.55 163.99 187.62 163.33 C 186.70 162.66 185.41 162.88 184.75 163.80 L 184.22 164.53 C 183.56 165.46 183.78 166.75 184.70 167.41 C 185.63 168.07 186.92 167.86 187.58 166.93 Z M 188.49 165.50 L 188.69 164.69 C 188.97 163.55 188.26 162.40 187.12 162.12 C 185.98 161.85 184.83 162.55 184.55 163.69 L 184.35 164.50 C 184.08 165.65 184.78 166.80 185.92 167.07 C 187.07 167.35 188.22 166.65 188.49 165.50 Z M 188.84 164.01 L 188.76 162.95 C 188.66 161.72 187.58 160.80 186.36 160.90 C 185.13 161.00 184.21 162.08 184.31 163.30 L 184.40 164.37 C 184.49 165.60 185.57 166.51 186.80 166.42 C 188.03 166.32 188.94 165.24 188.84 164.01 Z M 188.77 162.60 L 188.54 161.60 C 188.25 160.37 187.01 159.60 185.77 159.89 C 184.54 160.18 183.77 161.42 184.06 162.65 L 184.30 163.65 C 184.59 164.89 185.82 165.65 187.06 165.36 C 188.29 165.07 189.06 163.84 188.77 162.60 Z M 188.51 161.47 L 188.26 160.61 C 187.90 159.39 186.61 158.69 185.39 159.05 C 184.17 159.41 183.47 160.70 183.83 161.92 L 184.08 162.78 C 184.45 164.01 185.73 164.71 186.95 164.34 C 188.18 163.98 188.88 162.70 188.51 161.47 Z M 188.23 160.55 L 187.92 159.61 C 187.53 158.40 186.23 157.74 185.02 158.13 C 183.81 158.53 183.15 159.82 183.55 161.03 L 183.86 161.98 C 184.25 163.19 185.55 163.85 186.76 163.45 C 187.97 163.06 188.63 161.76 188.23 160.55 Z M 187.90 159.57 L 187.55 158.57 C 187.14 157.37 185.84 156.73 184.64 157.15 C 183.45 157.56 182.81 158.86 183.22 160.06 L 183.57 161.07 C 183.98 162.26 185.29 162.90 186.48 162.48 C 187.68 162.07 188.31 160.77 187.90 159.57 Z M 187.54 158.55 L 187.17 157.51 C 186.75 156.32 185.44 155.70 184.26 156.12 C 183.07 156.54 182.45 157.85 182.87 159.03 L 183.24 160.07 C 183.66 161.26 184.96 161.88 186.15 161.46 C 187.34 161.04 187.96 159.74 187.54 158.55 Z M 187.16 157.51 L 187.00 157.05 C 186.57 155.86 185.27 155.25 184.09 155.67 C 182.91 156.09 182.29 157.39 182.71 158.58 L 182.88 159.04 C 183.30 160.22 184.60 160.84 185.78 160.41 C 186.97 159.99 187.58 158.69 187.16 157.51 Z"
      fill="black"
      fill-rule="nonzero" /><path d="M 162.69 146.05 L 162.69 145.04 C 162.68 144.09 161.91 143.33 160.97 143.33 C 160.02 143.33 159.26 144.10 159.26 145.05 L 159.26 146.06 C 159.26 147.01 160.03 147.77 160.98 147.77 C 161.93 147.77 162.69 147.00 162.69 146.05 Z M 162.70 145.43 L 162.91 144.48 C 163.12 143.52 162.52 142.58 161.57 142.37 C 160.61 142.15 159.67 142.76 159.46 143.71 L 159.25 144.66 C 159.03 145.61 159.63 146.56 160.59 146.77 C 161.54 146.98 162.49 146.38 162.70 145.43 Z M 162.66 145.13 L 163.18 144.39 C 163.75 143.58 163.55 142.45 162.74 141.88 C 161.92 141.31 160.80 141.50 160.22 142.32 L 159.71 143.06 C 159.13 143.87 159.33 145.00 160.15 145.57 C 160.96 146.14 162.09 145.95 162.66 145.13 Z M 162.86 144.75 L 163.61 144.12 C 164.38 143.48 164.48 142.34 163.84 141.57 C 163.20 140.80 162.06 140.70 161.29 141.34 L 160.54 141.96 C 159.77 142.61 159.67 143.75 160.31 144.52 C 160.95 145.29 162.09 145.39 162.86 144.75 Z M 163.48 144.22 L 164.38 143.60 C 165.20 143.04 165.41 141.91 164.84 141.08 C 164.27 140.26 163.14 140.05 162.32 140.62 L 161.42 141.24 C 160.60 141.81 160.39 142.93 160.96 143.76 C 161.53 144.58 162.66 144.79 163.48 144.22 Z M 164.36 143.58 L 165.18 143.02 C 166.00 142.46 166.20 141.34 165.64 140.53 C 165.08 139.72 163.96 139.51 163.15 140.07 L 162.33 140.64 C 161.52 141.20 161.31 142.32 161.88 143.13 C 162.44 143.94 163.55 144.15 164.36 143.58 Z M 165.18 142.96 L 165.99 142.38 C 166.77 141.82 166.95 140.73 166.39 139.95 C 165.84 139.17 164.75 138.99 163.97 139.55 L 163.15 140.13 C 162.37 140.69 162.19 141.78 162.75 142.56 C 163.31 143.34 164.40 143.52 165.18 142.96 Z M 165.97 142.33 L 166.79 141.73 C 167.55 141.18 167.71 140.13 167.16 139.37 C 166.61 138.62 165.56 138.45 164.80 139.00 L 163.98 139.60 C 163.23 140.15 163.07 141.21 163.62 141.96 C 164.16 142.71 165.22 142.88 165.97 142.33 Z M 166.77 141.70 L 167.15 141.42 C 167.89 140.88 168.04 139.85 167.51 139.11 C 166.97 138.38 165.94 138.22 165.20 138.76 L 164.82 139.04 C 164.09 139.58 163.93 140.61 164.47 141.34 C 165.01 142.08 166.04 142.24 166.77 141.70 Z"
      fill="black"
      fill-rule="nonzero" /></svg>