<svg xmlns="http://www.w3.org/2000/svg" width="300" height="300" viewBox="0 0 300 300">
<path d="M 138.56 113.91 L 138.34 114.79 C 138.11 115.69 138.67 116.61 139.57 116.83 C 140.47 117.06 141.39 116.50 141.61 115.60 L 141.83 114.73 C 142.06 113.82 141.50 112.91 140.60 112.68 C 139.70 112.46 138.78 113.01 138.56 113.91 Z M 138.34 114.73 L 138.07 115.69 C 137.82 116.59 138.34 117.53 139.25 117.78 C 140.15 118.04 141.09 117.51 141.35 116.61 L 141.61 115.65 C 141.87 114.75 141.34 113.81 140.44 113.56 C 139.53 113.30 138.59 113.83 138.34 114.73 Z M 138.08 115.61 L 137.74 116.65 C 137.44 117.55 137.93 118.52 138.83 118.82 C 139.72 119.11 140.69 118.62 140.99 117.73 L 141.33 116.68 C 141.63 115.79 141.14 114.82 140.25 114.52 C 139.35 114.22 138.38 114.71 138.08 115.61 Z M 137.76 116.60 L 137.41 117.55 C 137.08 118.43 137.53 119.41 138.42 119.74 C 139.30 120.07 140.28 119.62 140.61 118.74 L 140.96 117.79 C 141.29 116.90 140.84 115.92 139.96 115.59 C 139.08 115.26 138.09 115.71 137.76 116.60 Z M 137.44 117.52 L 137.05 118.49 C 136.71 119.36 137.13 120.34 138.00 120.68 C 138.86 121.03 139.85 120.61 140.19 119.74 L 140.58 118.77 C 140.93 117.90 140.50 116.92 139.64 116.57 C 138.77 116.23 137.79 116.65 137.44 117.52 Z M 137.08 118.46 L 136.69 119.38 C 136.34 120.23 136.73 121.21 137.59 121.57 C 138.44 121.93 139.42 121.53 139.78 120.68 L 140.16 119.77 C 140.52 118.91 140.12 117.93 139.27 117.57 C 138.42 117.21 137.44 117.61 137.08 118.46 Z M 136.72 119.34 L 136.27 120.34 C 135.89 121.17 136.26 122.16 137.10 122.54 C 137.93 122.91 138.92 122.55 139.30 121.71 L 139.75 120.71 C 140.13 119.88 139.76 118.90 138.92 118.52 C 138.09 118.14 137.10 118.51 136.72 119.34 Z M 136.31 120.28 L 135.87 121.16 C 135.46 121.97 135.78 122.97 136.60 123.38 C 137.41 123.79 138.41 123.46 138.82 122.64 L 139.26 121.77 C 139.67 120.95 139.34 119.96 138.53 119.55 C 137.71 119.14 136.72 119.47 136.31 120.28 Z M 135.90 121.11 L 135.48 121.89 C 135.04 122.69 135.34 123.69 136.14 124.12 C 136.93 124.56 137.94 124.26 138.37 123.46 L 138.79 122.69 C 139.22 121.89 138.93 120.89 138.13 120.45 C 137.33 120.02 136.33 120.31 135.90 121.11 Z M 135.49 121.87 L 135.00 122.74 C 134.56 123.53 134.84 124.53 135.63 124.98 C 136.43 125.42 137.43 125.14 137.87 124.35 L 138.36 123.48 C 138.80 122.68 138.52 121.68 137.73 121.24 C 136.93 120.79 135.93 121.08 135.49 121.87 Z M 135.02 122.70 L 134.51 123.56 C 134.05 124.34 134.31 125.35 135.09 125.81 C 135.87 126.28 136.88 126.02 137.34 125.24 L 137.85 124.38 C 138.31 123.60 138.06 122.59 137.28 122.13 C 136.50 121.67 135.49 121.92 135.02 122.70 Z M 134.54 123.53 L 134.00 124.37 C 133.52 125.14 133.75 126.15 134.52 126.64 C 135.29 127.12 136.30 126.89 136.78 126.12 L 137.32 125.28 C 137.80 124.51 137.57 123.49 136.80 123.01 C 136.03 122.53 135.02 122.76 134.54 123.53 Z M 134.01 124.36 L 133.48 125.19 C 133.00 125.95 133.22 126.97 133.99 127.46 C 134.75 127.94 135.77 127.72 136.26 126.95 L 136.78 126.13 C 137.27 125.36 137.04 124.35 136.28 123.86 C 135.51 123.37 134.50 123.60 134.01 124.36 Z M 133.49 125.18 L 132.97 125.99 C 132.47 126.75 132.69 127.76 133.45 128.26 C 134.21 128.75 135.23 128.53 135.73 127.77 L 136.25 126.96 C 136.74 126.20 136.53 125.18 135.76 124.69 C 135.00 124.20 133.98 124.41 133.49 125.18 Z M 133.00 125.94 L 132.40 126.79 C 131.88 127.54 132.06 128.56 132.81 129.08 C 133.55 129.60 134.58 129.42 135.10 128.68 L 135.69 127.82 C 136.22 127.08 136.03 126.05 135.29 125.53 C 134.54 125.01 133.52 125.19 133.00 125.94 Z M 132.44 126.73 L 131.87 127.47 C 131.32 128.19 131.46 129.23 132.18 129.78 C 132.91 130.34 133.94 130.20 134.50 129.47 L 135.06 128.73 C 135.61 128.01 135.47 126.98 134.75 126.42 C 134.03 125.87 132.99 126.01 132.44 126.73 Z M 131.92 127.41 L 131.26 128.19 C 130.67 128.89 130.76 129.94 131.46 130.52 C 132.17 131.11 133.21 131.02 133.80 130.32 L 134.45 129.53 C 135.04 128.83 134.95 127.79 134.25 127.20 C 133.55 126.62 132.50 126.71 131.92 127.41 Z M 131.31 128.12 L 130.53 128.95 C 129.90 129.62 129.94 130.68 130.61 131.31 C 131.29 131.93 132.34 131.90 132.97 131.23 L 133.75 130.39 C 134.38 129.72 134.34 128.67 133.67 128.04 C 132.99 127.41 131.94 127.44 131.31 128.12 Z M 130.57 128.85 L 129.66 129.71 C 128.98 130.36 128.95 131.45 129.60 132.13 C 130.25 132.82 131.33 132.84 132.01 132.19 L 132.93 131.33 C 133.61 130.68 133.64 129.59 132.99 128.91 C 132.34 128.23 131.26 128.20 130.57 128.85 Z M 129.73 129.57 L 129.05 130.12 C 128.28 130.73 128.16 131.85 128.78 132.61 C 129.39 133.38 130.51 133.50 131.27 132.88 L 131.95 132.34 C 132.71 131.72 132.83 130.61 132.22 129.84 C 131.60 129.08 130.49 128.96 129.73 129.57 Z M 131.77 130.61 L 131.67 130.44 C 131.18 129.55 130.06 129.23 129.17 129.72 C 128.29 130.21 127.96 131.33 128.45 132.22 L 128.55 132.39 C 129.04 133.28 130.16 133.60 131.05 133.11 C 131.94 132.62 132.26 131.50 131.77 130.61 Z M 131.56 132.52 L 132.33 131.55 C 132.98 130.73 132.84 129.53 132.02 128.87 C 131.19 128.22 129.99 128.36 129.34 129.18 L 128.57 130.15 C 127.92 130.97 128.05 132.17 128.88 132.83 C 129.70 133.48 130.90 133.35 131.56 132.52 Z M 132.16 131.79 L 132.89 131.11 C 133.67 130.38 133.72 129.15 132.98 128.36 C 132.25 127.57 131.01 127.53 130.23 128.27 L 129.50 128.94 C 128.72 129.68 128.67 130.91 129.41 131.70 C 130.14 132.48 131.38 132.53 132.16 131.79 Z M 132.74 131.25 L 133.54 130.65 C 134.41 129.99 134.58 128.76 133.92 127.90 C 133.26 127.03 132.03 126.86 131.17 127.52 L 130.37 128.13 C 129.51 128.78 129.34 130.01 129.99 130.88 C 130.65 131.74 131.88 131.91 132.74 131.25 Z M 133.47 130.72 L 134.27 130.17 C 135.17 129.56 135.41 128.33 134.79 127.43 C 134.18 126.52 132.95 126.29 132.05 126.90 L 131.24 127.45 C 130.34 128.06 130.11 129.29 130.72 130.19 C 131.34 131.10 132.56 131.33 133.47 130.72 Z M 134.22 130.21 L 135.08 129.67 C 136.00 129.09 136.28 127.86 135.70 126.94 C 135.11 126.01 133.89 125.73 132.96 126.32 L 132.10 126.86 C 131.18 127.44 130.90 128.67 131.48 129.59 C 132.07 130.52 133.29 130.80 134.22 130.21 Z M 135.02 129.71 L 135.89 129.20 C 136.84 128.65 137.16 127.43 136.61 126.48 C 136.05 125.54 134.83 125.22 133.89 125.77 L 133.02 126.28 C 132.07 126.83 131.75 128.05 132.30 129.00 C 132.86 129.95 134.07 130.27 135.02 129.71 Z M 135.85 129.24 L 136.72 128.76 C 137.68 128.23 138.04 127.02 137.51 126.05 C 136.98 125.09 135.77 124.73 134.81 125.26 L 133.93 125.74 C 132.97 126.27 132.61 127.48 133.14 128.44 C 133.67 129.41 134.88 129.76 135.85 129.24 Z M 136.69 128.78 L 137.58 128.31 C 138.55 127.80 138.93 126.60 138.42 125.62 C 137.91 124.64 136.71 124.27 135.73 124.78 L 134.84 125.24 C 133.86 125.75 133.49 126.96 134.00 127.93 C 134.51 128.91 135.71 129.29 136.69 128.78 Z M 137.56 128.32 L 138.43 127.87 C 139.41 127.37 139.80 126.17 139.30 125.19 C 138.79 124.21 137.59 123.82 136.62 124.33 L 135.75 124.77 C 134.77 125.27 134.38 126.47 134.88 127.45 C 135.38 128.43 136.58 128.82 137.56 128.32 Z M 138.43 127.87 L 139.33 127.41 C 140.30 126.91 140.69 125.71 140.19 124.73 C 139.69 123.75 138.49 123.37 137.51 123.87 L 136.62 124.33 C 135.64 124.83 135.25 126.03 135.75 127.01 C 136.26 127.98 137.45 128.37 138.43 127.87 Z M 139.34 127.40 L 140.24 126.93 C 141.21 126.42 141.58 125.22 141.08 124.25 C 140.57 123.28 139.37 122.90 138.40 123.41 L 137.50 123.88 C 136.53 124.39 136.15 125.59 136.66 126.56 C 137.17 127.53 138.37 127.90 139.34 127.40 Z M 140.25 126.91 L 141.14 126.43 C 142.10 125.92 142.46 124.72 141.94 123.76 C 141.43 122.80 140.23 122.44 139.27 122.95 L 138.38 123.43 C 137.42 123.94 137.06 125.14 137.58 126.10 C 138.09 127.06 139.29 127.42 140.25 126.91 Z M 141.15 126.42 L 142.03 125.93 C 142.98 125.41 143.33 124.22 142.81 123.27 C 142.28 122.31 141.09 121.97 140.14 122.49 L 139.26 122.97 C 138.31 123.49 137.96 124.69 138.48 125.64 C 139.00 126.59 140.20 126.94 141.15 126.42 Z M 142.04 125.91 L 142.92 125.41 C 143.86 124.89 144.20 123.70 143.67 122.76 C 143.15 121.82 141.96 121.49 141.02 122.01 L 140.13 122.51 C 139.19 123.04 138.86 124.22 139.38 125.16 C 139.91 126.10 141.10 126.44 142.04 125.91 Z M 142.93 125.39 L 143.80 124.89 C 144.72 124.36 145.04 123.18 144.51 122.26 C 143.99 121.34 142.81 121.02 141.89 121.54 L 141.01 122.04 C 140.09 122.57 139.77 123.75 140.30 124.67 C 140.83 125.59 142.00 125.91 142.93 125.39 Z M 143.80 124.85 L 144.65 124.36 C 145.55 123.83 145.86 122.67 145.33 121.76 C 144.80 120.86 143.63 120.55 142.73 121.08 L 141.88 121.58 C 140.98 122.11 140.67 123.27 141.20 124.17 C 141.73 125.08 142.90 125.38 143.80 124.85 Z M 144.65 124.32 L 145.52 123.80 C 146.41 123.27 146.69 122.12 146.16 121.24 C 145.63 120.35 144.48 120.06 143.60 120.59 L 142.73 121.12 C 141.84 121.65 141.55 122.80 142.08 123.68 C 142.62 124.57 143.76 124.85 144.65 124.32 Z M 145.51 123.76 L 146.36 123.25 C 147.23 122.72 147.50 121.59 146.98 120.73 C 146.45 119.86 145.33 119.59 144.46 120.11 L 143.61 120.63 C 142.75 121.16 142.47 122.28 142.99 123.15 C 143.52 124.01 144.65 124.29 145.51 123.76 Z M 146.34 123.22 L 147.20 122.70 C 148.05 122.19 148.32 121.08 147.81 120.24 C 147.30 119.39 146.20 119.11 145.35 119.63 L 144.49 120.14 C 143.64 120.66 143.37 121.76 143.88 122.60 C 144.39 123.45 145.49 123.73 146.34 123.22 Z M 147.14 122.68 L 148.02 122.17 C 148.86 121.69 149.15 120.63 148.67 119.79 C 148.19 118.95 147.13 118.66 146.29 119.14 L 145.41 119.65 C 144.57 120.12 144.28 121.19 144.76 122.03 C 145.24 122.86 146.30 123.15 147.14 122.68 Z M 147.91 122.17 L 148.78 121.74 C 149.61 121.33 149.96 120.31 149.54 119.48 C 149.13 118.64 148.11 118.29 147.27 118.71 L 146.40 119.14 C 145.57 119.55 145.22 120.57 145.64 121.41 C 146.05 122.25 147.07 122.59 147.91 122.17 Z M 148.62 121.76 L 149.56 121.39 C 150.41 121.07 150.83 120.11 150.50 119.27 C 150.17 118.42 149.22 118.00 148.37 118.33 L 147.43 118.70 C 146.59 119.02 146.17 119.97 146.49 120.82 C 146.82 121.67 147.77 122.09 148.62 121.76 Z M 149.47 121.38 L 150.23 121.13 C 151.07 120.85 151.53 119.95 151.25 119.11 C 150.98 118.27 150.07 117.82 149.24 118.09 L 148.47 118.34 C 147.63 118.62 147.18 119.52 147.45 120.36 C 147.73 121.20 148.63 121.65 149.47 121.38 Z"
      fill="black"
      fill-rule="nonzero" /><path d="M 140.04 132.14 L 140.94 132.58 C 141.76 133.00 142.77 132.66 143.18 131.83 C 143.59 131.00 143.26 130.00 142.43 129.59 L 141.53 129.14 C 140.71 128.73 139.70 129.06 139.29 129.89 C 138.88 130.72 139.21 131.72 140.04 132.14 Z M 140.92 132.62 L 141.81 133.07 C 142.66 133.49 143.69 133.14 144.11 132.30 C 144.54 131.45 144.19 130.42 143.34 129.99 L 142.45 129.55 C 141.60 129.13 140.57 129.47 140.15 130.32 C 139.72 131.17 140.07 132.20 140.92 132.62 Z M 141.80 133.09 L 142.00 133.19 C 142.86 133.62 143.90 133.27 144.33 132.41 C 144.76 131.54 144.41 130.50 143.55 130.07 L 143.35 129.97 C 142.49 129.54 141.45 129.89 141.02 130.75 C 140.59 131.61 140.94 132.66 141.80 133.09 Z"
      fill="black"
      fill-rule="nonzero" /><path d="M 154.98 113.79 L 154.81 114.79 C 154.66 115.73 155.30 116.63 156.24 116.79 C 157.19 116.94 158.09 116.30 158.24 115.36 L 158.41 114.36 C 158.57 113.41 157.93 112.52 156.98 112.36 C 156.03 112.20 155.14 112.84 154.98 113.79 Z M 154.83 114.76 L 154.65 115.75 C 154.48 116.69 155.10 117.59 156.04 117.76 C 156.98 117.93 157.88 117.31 158.05 116.37 L 158.23 115.38 C 158.40 114.44 157.78 113.54 156.84 113.37 C 155.90 113.20 155.00 113.82 154.83 114.76 Z M 154.67 115.70 L 154.46 116.66 C 154.26 117.59 154.86 118.51 155.79 118.71 C 156.72 118.90 157.63 118.31 157.83 117.38 L 158.03 116.42 C 158.23 115.49 157.64 114.57 156.71 114.37 C 155.78 114.18 154.86 114.77 154.67 115.70 Z M 154.48 116.59 L 154.23 117.54 C 153.99 118.46 154.55 119.40 155.46 119.64 C 156.38 119.88 157.32 119.33 157.56 118.41 L 157.81 117.45 C 158.05 116.54 157.50 115.60 156.58 115.36 C 155.66 115.12 154.72 115.67 154.48 116.59 Z M 154.26 117.47 L 153.96 118.42 C 153.68 119.32 154.19 120.28 155.10 120.56 C 156.00 120.84 156.96 120.34 157.24 119.43 L 157.54 118.48 C 157.82 117.58 157.31 116.62 156.40 116.34 C 155.50 116.06 154.54 116.56 154.26 117.47 Z M 153.98 118.36 L 153.65 119.32 C 153.33 120.21 153.81 121.19 154.70 121.50 C 155.59 121.82 156.57 121.34 156.89 120.45 L 157.22 119.49 C 157.54 118.60 157.07 117.62 156.17 117.30 C 155.28 116.99 154.30 117.46 153.98 118.36 Z M 153.67 119.27 L 153.31 120.19 C 152.98 121.08 153.42 122.07 154.30 122.41 C 155.19 122.74 156.18 122.30 156.52 121.42 L 156.87 120.49 C 157.21 119.61 156.76 118.62 155.88 118.28 C 154.99 117.94 154.00 118.39 153.67 119.27 Z M 153.33 120.16 L 152.95 121.09 C 152.59 121.97 153.01 122.97 153.89 123.33 C 154.76 123.68 155.76 123.26 156.12 122.39 L 156.50 121.45 C 156.86 120.57 156.44 119.57 155.56 119.22 C 154.69 118.86 153.69 119.28 153.33 120.16 Z M 152.96 121.06 L 152.56 121.99 C 152.19 122.86 152.59 123.86 153.46 124.24 C 154.32 124.61 155.33 124.21 155.71 123.34 L 156.11 122.42 C 156.48 121.55 156.08 120.54 155.21 120.17 C 154.35 119.79 153.34 120.19 152.96 121.06 Z M 152.58 121.95 L 152.16 122.86 C 151.77 123.72 152.15 124.74 153.01 125.13 C 153.87 125.52 154.89 125.14 155.28 124.28 L 155.69 123.38 C 156.09 122.52 155.71 121.50 154.85 121.11 C 153.98 120.71 152.97 121.09 152.58 121.95 Z M 152.18 122.82 L 151.74 123.71 C 151.33 124.56 151.69 125.59 152.54 126.01 C 153.40 126.42 154.42 126.06 154.84 125.21 L 155.27 124.32 C 155.68 123.46 155.33 122.44 154.47 122.02 C 153.62 121.61 152.59 121.96 152.18 122.82 Z M 151.76 123.67 L 151.30 124.57 C 150.86 125.41 151.19 126.45 152.04 126.89 C 152.88 127.33 153.92 126.99 154.36 126.15 L 154.82 125.25 C 155.26 124.41 154.93 123.37 154.08 122.93 C 153.24 122.49 152.20 122.82 151.76 123.67 Z M 151.31 124.52 L 150.81 125.42 C 150.35 126.26 150.66 127.31 151.50 127.77 C 152.34 128.24 153.39 127.93 153.85 127.09 L 154.35 126.19 C 154.81 125.35 154.50 124.30 153.66 123.84 C 152.82 123.38 151.77 123.68 151.31 124.52 Z M 150.82 125.37 L 150.30 126.26 C 149.82 127.09 150.10 128.16 150.93 128.65 C 151.76 129.14 152.83 128.86 153.32 128.03 L 153.84 127.14 C 154.33 126.30 154.05 125.23 153.22 124.75 C 152.38 124.26 151.31 124.54 150.82 125.37 Z M 150.32 126.21 L 149.79 127.05 C 149.28 127.87 149.53 128.96 150.35 129.48 C 151.18 129.99 152.27 129.74 152.78 128.92 L 153.31 128.08 C 153.83 127.25 153.57 126.16 152.75 125.65 C 151.92 125.13 150.83 125.38 150.32 126.21 Z M 149.82 126.96 L 149.12 127.97 C 148.56 128.79 148.76 129.90 149.58 130.46 C 150.39 131.02 151.50 130.82 152.06 130.01 L 152.76 129.00 C 153.32 128.18 153.12 127.07 152.31 126.51 C 151.49 125.95 150.38 126.15 149.82 126.96 Z M 149.15 127.86 L 148.56 128.61 C 147.93 129.40 148.07 130.56 148.87 131.18 C 149.66 131.81 150.81 131.67 151.44 130.88 L 152.03 130.12 C 152.66 129.33 152.52 128.18 151.73 127.55 C 150.93 126.92 149.78 127.06 149.15 127.86 Z M 151.61 130.70 L 151.76 130.45 C 152.29 129.56 151.99 128.41 151.10 127.88 C 150.21 127.36 149.06 127.65 148.54 128.54 L 148.39 128.79 C 147.86 129.68 148.15 130.83 149.04 131.35 C 149.93 131.88 151.08 131.59 151.61 130.70 Z M 151.58 130.73 L 152.41 129.76 C 153.10 128.97 153.00 127.77 152.21 127.09 C 151.41 126.41 150.22 126.50 149.54 127.30 L 148.71 128.26 C 148.03 129.06 148.12 130.25 148.91 130.93 C 149.71 131.61 150.90 131.52 151.58 130.73 Z M 152.30 129.89 L 152.98 129.22 C 153.74 128.49 153.75 127.29 153.02 126.54 C 152.28 125.78 151.08 125.77 150.33 126.50 L 149.65 127.17 C 148.90 127.90 148.88 129.10 149.62 129.86 C 150.35 130.61 151.55 130.62 152.30 129.89 Z M 152.92 129.29 L 153.69 128.61 C 154.47 127.91 154.55 126.71 153.85 125.92 C 153.16 125.14 151.96 125.06 151.17 125.76 L 150.40 126.44 C 149.61 127.13 149.54 128.34 150.23 129.12 C 150.93 129.91 152.13 129.98 152.92 129.29 Z M 153.65 128.64 L 154.45 127.97 C 155.26 127.30 155.36 126.10 154.69 125.29 C 154.02 124.49 152.82 124.38 152.01 125.05 L 151.21 125.72 C 150.40 126.40 150.29 127.60 150.97 128.40 C 151.64 129.21 152.84 129.32 153.65 128.64 Z M 154.42 127.99 L 155.23 127.35 C 156.04 126.69 156.17 125.49 155.51 124.67 C 154.85 123.85 153.66 123.73 152.84 124.39 L 152.04 125.03 C 151.22 125.69 151.09 126.89 151.75 127.71 C 152.41 128.52 153.61 128.65 154.42 127.99 Z M 155.20 127.37 L 155.98 126.76 C 156.81 126.12 156.96 124.92 156.32 124.09 C 155.67 123.26 154.48 123.11 153.65 123.76 L 152.86 124.36 C 152.03 125.01 151.88 126.20 152.53 127.03 C 153.17 127.86 154.37 128.01 155.20 127.37 Z M 155.94 126.79 L 156.73 126.21 C 157.58 125.58 157.76 124.39 157.13 123.55 C 156.51 122.70 155.32 122.52 154.47 123.15 L 153.68 123.73 C 152.84 124.35 152.66 125.54 153.28 126.39 C 153.91 127.23 155.10 127.41 155.94 126.79 Z M 156.68 126.24 L 157.47 125.70 C 158.34 125.10 158.56 123.92 157.97 123.06 C 157.37 122.19 156.19 121.97 155.33 122.57 L 154.53 123.11 C 153.67 123.70 153.45 124.88 154.04 125.75 C 154.63 126.61 155.81 126.83 156.68 126.24 Z M 157.42 125.73 L 158.27 125.19 C 159.15 124.62 159.41 123.45 158.84 122.57 C 158.28 121.69 157.11 121.43 156.23 121.99 L 155.38 122.53 C 154.50 123.10 154.24 124.27 154.80 125.15 C 155.37 126.03 156.54 126.29 157.42 125.73 Z M 158.23 125.20 L 159.03 124.71 C 159.92 124.17 160.20 123.01 159.66 122.12 C 159.11 121.23 157.95 120.95 157.06 121.49 L 156.26 121.98 C 155.37 122.52 155.09 123.68 155.64 124.57 C 156.18 125.46 157.34 125.74 158.23 125.20 Z M 159.00 124.72 L 159.88 124.20 C 160.77 123.67 161.07 122.52 160.54 121.62 C 160.01 120.73 158.85 120.43 157.96 120.96 L 157.08 121.48 C 156.19 122.02 155.89 123.17 156.43 124.06 C 156.96 124.96 158.11 125.25 159.00 124.72 Z M 159.86 124.21 L 160.78 123.68 C 161.68 123.16 161.99 122.01 161.47 121.11 C 160.95 120.21 159.80 119.91 158.90 120.43 L 157.98 120.96 C 157.08 121.48 156.78 122.62 157.29 123.52 C 157.81 124.42 158.96 124.73 159.86 124.21 Z M 160.75 123.68 L 161.65 123.18 C 162.55 122.67 162.87 121.54 162.36 120.64 C 161.86 119.74 160.72 119.42 159.82 119.92 L 158.93 120.42 C 158.03 120.93 157.71 122.06 158.21 122.96 C 158.72 123.86 159.86 124.18 160.75 123.68 Z M 161.61 123.18 L 162.51 122.70 C 163.41 122.21 163.74 121.09 163.26 120.19 C 162.77 119.29 161.65 118.96 160.75 119.44 L 159.86 119.92 C 158.96 120.41 158.62 121.53 159.11 122.43 C 159.59 123.33 160.71 123.66 161.61 123.18 Z M 162.46 122.70 L 163.34 122.26 C 164.24 121.80 164.60 120.69 164.14 119.79 C 163.68 118.89 162.57 118.53 161.67 118.99 L 160.79 119.43 C 159.89 119.89 159.53 121.00 159.99 121.90 C 160.45 122.80 161.56 123.16 162.46 122.70 Z M 163.28 122.26 L 164.20 121.83 C 165.10 121.40 165.49 120.32 165.07 119.42 C 164.64 118.51 163.56 118.12 162.65 118.55 L 161.73 118.98 C 160.83 119.41 160.44 120.49 160.86 121.39 C 161.29 122.30 162.37 122.69 163.28 122.26 Z M 164.12 121.84 L 165.05 121.44 C 165.96 121.06 166.39 120.01 166.01 119.10 C 165.62 118.19 164.58 117.76 163.67 118.15 L 162.73 118.54 C 161.82 118.92 161.40 119.97 161.78 120.88 C 162.16 121.79 163.21 122.22 164.12 121.84 Z M 164.97 121.44 L 165.88 121.11 C 166.79 120.77 167.25 119.76 166.92 118.85 C 166.58 117.94 165.57 117.47 164.65 117.81 L 163.75 118.15 C 162.84 118.49 162.37 119.50 162.71 120.41 C 163.05 121.32 164.06 121.78 164.97 121.44 Z M 165.80 121.10 L 166.74 120.79 C 167.65 120.50 168.14 119.53 167.85 118.62 C 167.56 117.72 166.59 117.22 165.68 117.51 L 164.74 117.82 C 163.83 118.11 163.34 119.08 163.63 119.99 C 163.92 120.89 164.89 121.39 165.80 121.10 Z M 166.67 120.77 L 167.63 120.49 C 168.52 120.24 169.04 119.31 168.78 118.42 C 168.53 117.53 167.60 117.01 166.71 117.27 L 165.75 117.54 C 164.86 117.80 164.34 118.72 164.60 119.61 C 164.85 120.50 165.78 121.02 166.67 120.77 Z M 167.59 120.45 L 168.55 120.20 C 169.42 119.96 169.93 119.07 169.70 118.20 C 169.47 117.34 168.58 116.82 167.71 117.05 L 166.75 117.31 C 165.88 117.54 165.37 118.43 165.60 119.30 C 165.83 120.17 166.72 120.68 167.59 120.45 Z"
      fill="black"
      fill-rule="nonzero" /><path d="M 157.33 129.73 L 158.02 130.45 C 158.66 131.11 159.72 131.12 160.38 130.48 C 161.04 129.84 161.06 128.79 160.42 128.12 L 159.72 127.41 C 159.08 126.75 158.02 126.73 157.36 127.37 C 156.70 128.01 156.69 129.07 157.33 129.73 Z M 157.97 130.49 L 158.67 131.21 C 159.34 131.90 160.44 131.92 161.12 131.25 C 161.81 130.58 161.83 129.48 161.16 128.80 L 160.47 128.08 C 159.80 127.39 158.70 127.37 158.01 128.04 C 157.32 128.71 157.31 129.81 157.97 130.49 Z M 158.62 131.26 L 159.32 131.98 C 160.01 132.69 161.15 132.71 161.87 132.02 C 162.58 131.32 162.60 130.18 161.91 129.47 L 161.21 128.75 C 160.52 128.03 159.38 128.02 158.66 128.71 C 157.95 129.40 157.93 130.54 158.62 131.26 Z M 159.28 132.01 L 159.68 132.43 C 160.39 133.16 161.57 133.18 162.30 132.47 C 163.04 131.75 163.06 130.58 162.34 129.84 L 161.95 129.43 C 161.23 128.69 160.06 128.67 159.32 129.39 C 158.58 130.10 158.56 131.28 159.28 132.01 Z"
      fill="black"
      fill-rule="nonzero" /><path d="M 139.88 146.00 L 140.56 145.44 C 141.30 144.84 141.41 143.75 140.80 143.01 C 140.20 142.27 139.11 142.16 138.37 142.76 L 137.69 143.32 C 136.95 143.93 136.84 145.02 137.45 145.76 C 138.05 146.50 139.14 146.61 139.88 146.00 Z M 140.53 145.57 L 141.37 144.95 C 142.18 144.37 142.36 143.24 141.77 142.43 C 141.19 141.62 140.06 141.44 139.25 142.03 L 138.40 142.64 C 137.60 143.23 137.42 144.36 138.00 145.17 C 138.59 145.97 139.72 146.15 140.53 145.57 Z M 141.31 145.06 L 142.16 144.52 C 143.03 143.97 143.28 142.82 142.74 141.96 C 142.19 141.09 141.04 140.83 140.17 141.38 L 139.32 141.92 C 138.45 142.47 138.19 143.62 138.74 144.48 C 139.29 145.35 140.44 145.61 141.31 145.06 Z M 142.11 144.57 L 142.97 144.07 C 143.87 143.54 144.17 142.40 143.65 141.50 C 143.13 140.61 141.98 140.30 141.09 140.83 L 140.22 141.33 C 139.33 141.85 139.02 143.00 139.55 143.89 C 140.07 144.79 141.21 145.09 142.11 144.57 Z M 142.94 144.09 L 143.85 143.59 C 144.76 143.09 145.09 141.94 144.59 141.03 C 144.09 140.12 142.95 139.79 142.04 140.29 L 141.12 140.80 C 140.21 141.30 139.88 142.44 140.38 143.35 C 140.89 144.26 142.03 144.59 142.94 144.09 Z M 143.82 143.61 L 144.74 143.13 C 145.66 142.64 146.01 141.50 145.53 140.58 C 145.04 139.66 143.90 139.31 142.98 139.79 L 142.07 140.27 C 141.15 140.76 140.80 141.90 141.28 142.82 C 141.76 143.74 142.90 144.09 143.82 143.61 Z M 144.71 143.14 L 145.63 142.68 C 146.56 142.21 146.94 141.08 146.47 140.15 C 146.00 139.22 144.87 138.84 143.94 139.31 L 143.01 139.78 C 142.08 140.24 141.71 141.38 142.18 142.31 C 142.64 143.24 143.78 143.61 144.71 143.14 Z M 145.61 142.69 L 146.49 142.26 C 147.42 141.80 147.81 140.68 147.36 139.74 C 146.90 138.81 145.78 138.42 144.84 138.87 L 143.96 139.30 C 143.03 139.76 142.64 140.88 143.09 141.82 C 143.55 142.75 144.67 143.14 145.61 142.69 Z M 146.49 142.26 L 147.36 141.84 C 148.29 141.38 148.69 140.26 148.23 139.32 C 147.78 138.39 146.65 138.00 145.72 138.45 L 144.85 138.87 C 143.91 139.33 143.52 140.45 143.97 141.39 C 144.43 142.32 145.55 142.71 146.49 142.26 Z M 147.37 141.82 L 148.20 141.41 C 149.13 140.96 149.51 139.83 149.06 138.90 C 148.60 137.97 147.47 137.59 146.54 138.05 L 145.71 138.46 C 144.78 138.92 144.40 140.04 144.86 140.97 C 145.32 141.90 146.44 142.28 147.37 141.82 Z M 148.22 141.40 L 149.09 140.95 C 150.01 140.49 150.38 139.37 149.91 138.45 C 149.45 137.53 148.32 137.16 147.40 137.62 L 146.53 138.07 C 145.61 138.53 145.24 139.65 145.71 140.57 C 146.17 141.49 147.30 141.86 148.22 141.40 Z M 149.11 140.94 L 150.03 140.45 C 150.94 139.98 151.30 138.86 150.82 137.95 C 150.35 137.04 149.22 136.68 148.31 137.16 L 147.39 137.64 C 146.48 138.12 146.13 139.24 146.60 140.15 C 147.07 141.06 148.20 141.41 149.11 140.94 Z M 150.05 140.44 L 150.97 139.94 C 151.87 139.46 152.21 138.34 151.73 137.44 C 151.25 136.54 150.13 136.20 149.23 136.68 L 148.30 137.18 C 147.40 137.66 147.06 138.78 147.54 139.68 C 148.03 140.58 149.15 140.92 150.05 140.44 Z M 150.98 139.92 L 151.89 139.42 C 152.78 138.93 153.10 137.82 152.61 136.93 C 152.12 136.04 151.01 135.71 150.12 136.20 L 149.21 136.70 C 148.33 137.19 148.00 138.31 148.49 139.20 C 148.98 140.08 150.10 140.41 150.98 139.92 Z M 151.90 139.40 L 152.79 138.89 C 153.67 138.40 153.98 137.29 153.49 136.41 C 152.99 135.53 151.88 135.22 151.00 135.72 L 150.11 136.22 C 149.23 136.72 148.92 137.83 149.42 138.71 C 149.91 139.59 151.02 139.89 151.90 139.40 Z M 152.81 138.87 L 153.65 138.38 C 154.51 137.88 154.80 136.77 154.30 135.91 C 153.80 135.04 152.69 134.75 151.82 135.26 L 150.99 135.74 C 150.12 136.25 149.83 137.36 150.33 138.22 C 150.84 139.08 151.95 139.37 152.81 138.87 Z M 153.67 138.35 L 154.59 137.78 C 155.43 137.27 155.70 136.17 155.18 135.32 C 154.67 134.48 153.57 134.22 152.72 134.73 L 151.80 135.29 C 150.96 135.81 150.70 136.91 151.21 137.75 C 151.72 138.59 152.83 138.86 153.67 138.35 Z M 154.62 137.72 L 155.47 137.17 C 156.28 136.64 156.50 135.55 155.97 134.74 C 155.44 133.93 154.36 133.70 153.55 134.23 L 152.70 134.79 C 151.89 135.32 151.66 136.41 152.19 137.22 C 152.72 138.03 153.81 138.25 154.62 137.72 Z M 155.49 137.10 L 156.22 136.59 C 156.99 136.04 157.18 134.97 156.63 134.20 C 156.09 133.43 155.02 133.25 154.25 133.79 L 153.52 134.30 C 152.75 134.85 152.57 135.91 153.11 136.69 C 153.65 137.46 154.72 137.64 155.49 137.10 Z M 156.24 136.52 L 157.04 135.91 C 157.78 135.36 157.93 134.31 157.37 133.58 C 156.82 132.84 155.77 132.69 155.03 133.25 L 154.23 133.86 C 153.49 134.41 153.35 135.46 153.90 136.19 C 154.46 136.93 155.50 137.08 156.24 136.52 Z M 157.05 135.86 L 157.82 135.25 C 158.53 134.69 158.65 133.67 158.09 132.96 C 157.53 132.26 156.51 132.14 155.80 132.69 L 155.03 133.30 C 154.32 133.86 154.20 134.89 154.76 135.59 C 155.32 136.30 156.34 136.42 157.05 135.86 Z M 157.81 135.22 L 158.04 135.04 C 158.73 134.49 158.84 133.48 158.29 132.79 C 157.74 132.10 156.73 131.98 156.04 132.54 L 155.81 132.72 C 155.12 133.27 155.01 134.28 155.56 134.97 C 156.11 135.66 157.12 135.78 157.81 135.22 Z"
      fill="black"
      fill-rule="nonzero" /><path d="M 138.42 146.32 L 138.14 147.30 C 137.88 148.23 138.42 149.21 139.35 149.47 C 140.29 149.74 141.26 149.20 141.53 148.26 L 141.81 147.28 C 142.07 146.35 141.53 145.37 140.60 145.11 C 139.66 144.84 138.69 145.38 138.42 146.32 Z M 138.09 147.36 L 137.86 148.32 C 137.63 149.28 138.22 150.25 139.18 150.48 C 140.14 150.72 141.11 150.13 141.34 149.17 L 141.58 148.20 C 141.81 147.24 141.22 146.27 140.26 146.04 C 139.30 145.81 138.33 146.40 138.09 147.36 Z M 137.81 148.47 L 137.66 149.43 C 137.51 150.42 138.19 151.34 139.18 151.49 C 140.17 151.65 141.09 150.97 141.24 149.98 L 141.39 149.02 C 141.54 148.03 140.87 147.11 139.88 146.95 C 138.89 146.80 137.96 147.48 137.81 148.47 Z M 137.64 149.57 L 137.57 150.56 C 137.49 151.55 138.24 152.43 139.24 152.50 C 140.24 152.58 141.11 151.83 141.19 150.83 L 141.26 149.84 C 141.34 148.84 140.59 147.97 139.59 147.90 C 138.59 147.82 137.72 148.57 137.64 149.57 Z M 137.57 150.59 L 137.51 151.56 C 137.46 152.56 138.22 153.42 139.23 153.47 C 140.23 153.53 141.08 152.76 141.14 151.76 L 141.19 150.79 C 141.25 149.79 140.48 148.94 139.48 148.88 C 138.48 148.83 137.62 149.59 137.57 150.59 Z M 137.51 151.54 L 137.45 152.52 C 137.38 153.52 138.14 154.39 139.14 154.45 C 140.14 154.52 141.01 153.76 141.07 152.76 L 141.14 151.78 C 141.20 150.78 140.44 149.92 139.44 149.85 C 138.44 149.79 137.58 150.54 137.51 151.54 Z M 137.45 152.49 L 137.36 153.55 C 137.28 154.55 138.02 155.42 139.02 155.51 C 140.01 155.60 140.89 154.85 140.98 153.86 L 141.07 152.80 C 141.15 151.80 140.41 150.92 139.42 150.83 C 138.42 150.75 137.54 151.49 137.45 152.49 Z M 137.37 153.50 L 137.27 154.39 C 137.16 155.39 137.88 156.29 138.88 156.39 C 139.87 156.50 140.77 155.78 140.88 154.79 L 140.97 153.90 C 141.08 152.90 140.36 152.01 139.37 151.90 C 138.37 151.79 137.47 152.51 137.37 153.50 Z M 137.27 154.36 L 137.15 155.30 C 137.02 156.30 137.72 157.21 138.72 157.34 C 139.71 157.47 140.62 156.77 140.75 155.77 L 140.87 154.82 C 141.00 153.83 140.30 152.92 139.31 152.79 C 138.31 152.66 137.40 153.36 137.27 154.36 Z M 137.15 155.27 L 137.00 156.33 C 136.85 157.32 137.54 158.25 138.53 158.39 C 139.52 158.54 140.44 157.85 140.59 156.86 L 140.75 155.80 C 140.89 154.81 140.21 153.89 139.22 153.74 C 138.22 153.60 137.30 154.28 137.15 155.27 Z M 137.00 156.31 L 136.83 157.36 C 136.67 158.35 137.34 159.29 138.33 159.44 C 139.32 159.60 140.25 158.93 140.41 157.94 L 140.58 156.89 C 140.74 155.90 140.07 154.97 139.08 154.81 C 138.09 154.65 137.16 155.32 137.00 156.31 Z M 136.84 157.35 L 136.67 158.36 C 136.50 159.34 137.16 160.28 138.15 160.45 C 139.13 160.61 140.07 159.95 140.24 158.96 L 140.41 157.96 C 140.58 156.97 139.91 156.04 138.93 155.87 C 137.94 155.70 137.01 156.36 136.84 157.35 Z M 136.67 158.34 L 136.49 159.37 C 136.32 160.35 136.97 161.29 137.95 161.47 C 138.94 161.64 139.88 160.98 140.05 160.00 L 140.23 158.98 C 140.41 157.99 139.75 157.05 138.77 156.88 C 137.78 156.71 136.85 157.36 136.67 158.34 Z M 136.50 159.36 L 136.31 160.35 C 136.13 161.33 136.78 162.27 137.76 162.45 C 138.74 162.63 139.68 161.99 139.86 161.01 L 140.04 160.01 C 140.22 159.03 139.58 158.09 138.60 157.91 C 137.62 157.73 136.68 158.38 136.50 159.36 Z M 136.32 160.34 L 136.14 161.30 C 135.95 162.28 136.59 163.22 137.56 163.41 C 138.54 163.59 139.48 162.95 139.67 161.98 L 139.85 161.02 C 140.04 160.04 139.40 159.10 138.43 158.91 C 137.45 158.73 136.51 159.37 136.32 160.34 Z M 136.16 161.28 L 135.93 162.40 C 135.74 163.36 136.36 164.31 137.32 164.50 C 138.29 164.70 139.23 164.07 139.42 163.11 L 139.65 161.99 C 139.84 161.03 139.22 160.09 138.26 159.89 C 137.29 159.70 136.35 160.32 136.16 161.28 Z M 135.96 162.39 L 135.76 163.32 C 135.56 164.27 136.16 165.20 137.11 165.40 C 138.05 165.61 138.99 165.00 139.19 164.06 L 139.39 163.12 C 139.59 162.18 138.99 161.25 138.05 161.04 C 137.10 160.84 136.17 161.44 135.96 162.39 Z M 135.79 163.32 L 135.60 164.17 C 135.40 165.10 135.99 166.02 136.91 166.23 C 137.84 166.43 138.76 165.85 138.97 164.92 L 139.16 164.06 C 139.36 163.13 138.78 162.21 137.85 162.00 C 136.92 161.80 136.00 162.39 135.79 163.32 Z M 135.63 164.18 L 135.42 165.17 C 135.22 166.08 135.80 166.99 136.71 167.19 C 137.62 167.39 138.52 166.81 138.72 165.89 L 138.94 164.91 C 139.14 163.99 138.56 163.09 137.65 162.89 C 136.74 162.69 135.83 163.27 135.63 164.18 Z M 135.45 165.18 L 135.24 166.15 C 135.05 167.04 135.62 167.92 136.51 168.12 C 137.40 168.31 138.29 167.74 138.48 166.85 L 138.69 165.88 C 138.88 164.99 138.32 164.11 137.42 163.91 C 136.53 163.72 135.64 164.29 135.45 165.18 Z M 135.26 166.15 L 135.20 166.44 C 135.01 167.32 135.57 168.19 136.45 168.38 C 137.34 168.57 138.21 168.01 138.40 167.13 L 138.46 166.84 C 138.65 165.96 138.09 165.09 137.21 164.90 C 136.32 164.71 135.45 165.27 135.26 166.15 Z"
      fill="black"
      fill-rule="nonzero" /><path d="M 143.61 153.81 L 144.38 153.15 C 145.13 152.51 145.22 151.37 144.58 150.62 C 143.93 149.87 142.80 149.78 142.05 150.43 L 141.28 151.08 C 140.52 151.73 140.44 152.86 141.08 153.61 C 141.73 154.37 142.86 154.46 143.61 153.81 Z M 144.35 153.24 L 145.13 152.63 C 145.94 152.00 146.08 150.84 145.45 150.04 C 144.82 149.24 143.66 149.09 142.86 149.72 L 142.08 150.34 C 141.27 150.97 141.13 152.13 141.76 152.93 C 142.39 153.73 143.55 153.87 144.35 153.24 Z M 145.02 152.73 L 145.73 152.26 C 146.59 151.70 146.82 150.54 146.26 149.68 C 145.69 148.83 144.53 148.59 143.68 149.16 L 142.97 149.62 C 142.11 150.19 141.88 151.34 142.44 152.20 C 143.01 153.06 144.16 153.30 145.02 152.73 Z M 145.60 152.31 L 146.39 151.86 C 147.28 151.37 147.59 150.25 147.10 149.37 C 146.61 148.49 145.49 148.17 144.61 148.66 L 143.81 149.11 C 142.93 149.60 142.61 150.72 143.10 151.60 C 143.60 152.49 144.71 152.80 145.60 152.31 Z M 146.32 151.86 L 147.39 151.31 C 148.27 150.85 148.62 149.77 148.17 148.89 C 147.71 148.01 146.63 147.67 145.75 148.12 L 144.68 148.67 C 143.80 149.12 143.45 150.20 143.91 151.08 C 144.36 151.96 145.44 152.31 146.32 151.86 Z M 147.37 151.29 L 148.13 150.90 C 149.00 150.46 149.35 149.40 148.91 148.53 C 148.48 147.66 147.42 147.31 146.55 147.75 L 145.78 148.14 C 144.91 148.58 144.56 149.64 145.00 150.51 C 145.44 151.38 146.50 151.72 147.37 151.29 Z M 148.13 150.88 L 148.95 150.47 C 149.81 150.03 150.16 148.98 149.73 148.12 C 149.30 147.26 148.25 146.92 147.39 147.35 L 146.56 147.77 C 145.70 148.20 145.35 149.25 145.78 150.11 C 146.22 150.97 147.26 151.32 148.13 150.88 Z M 148.95 150.45 L 149.85 150.00 C 150.70 149.57 151.05 148.53 150.62 147.68 C 150.19 146.83 149.15 146.48 148.30 146.91 L 147.40 147.36 C 146.54 147.79 146.20 148.83 146.63 149.68 C 147.05 150.54 148.09 150.88 148.95 150.45 Z M 149.84 149.98 L 150.80 149.50 C 151.65 149.08 151.99 148.05 151.57 147.21 C 151.14 146.36 150.11 146.02 149.27 146.44 L 148.31 146.92 C 147.46 147.35 147.12 148.38 147.55 149.22 C 147.97 150.07 149.00 150.41 149.84 149.98 Z M 150.80 149.49 L 151.79 148.99 C 152.62 148.57 152.96 147.55 152.54 146.72 C 152.12 145.88 151.10 145.54 150.27 145.96 L 149.28 146.46 C 148.44 146.88 148.10 147.89 148.52 148.73 C 148.94 149.57 149.96 149.91 150.80 149.49 Z M 151.78 148.98 L 152.15 148.80 C 152.98 148.38 153.31 147.37 152.90 146.54 C 152.48 145.71 151.47 145.37 150.64 145.79 L 150.27 145.97 C 149.44 146.39 149.10 147.40 149.52 148.23 C 149.94 149.06 150.95 149.40 151.78 148.98 Z"
      fill="black"
      fill-rule="nonzero" /><path d="M 141.68 159.15 L 142.68 158.69 C 143.55 158.28 143.92 157.25 143.52 156.38 C 143.11 155.51 142.08 155.14 141.21 155.54 L 140.21 156.01 C 139.34 156.41 138.97 157.44 139.37 158.31 C 139.78 159.18 140.81 159.56 141.68 159.15 Z M 142.69 158.71 L 143.66 158.26 C 144.55 157.85 144.93 156.80 144.52 155.92 C 144.11 155.03 143.06 154.65 142.17 155.06 L 141.20 155.51 C 140.32 155.92 139.93 156.97 140.34 157.86 C 140.75 158.74 141.81 159.13 142.69 158.71 Z M 143.68 158.29 L 144.59 157.86 C 145.49 157.44 145.88 156.37 145.47 155.47 C 145.05 154.57 143.98 154.18 143.08 154.60 L 142.16 155.03 C 141.26 155.45 140.87 156.52 141.29 157.42 C 141.71 158.32 142.78 158.71 143.68 158.29 Z M 144.61 157.89 L 145.44 157.50 C 146.36 157.08 146.75 155.99 146.33 155.07 C 145.90 154.16 144.81 153.76 143.90 154.19 L 143.06 154.58 C 142.15 155.00 141.75 156.09 142.18 157.01 C 142.60 157.92 143.69 158.32 144.61 157.89 Z M 145.45 157.52 L 146.36 157.09 C 147.28 156.66 147.68 155.56 147.25 154.64 C 146.82 153.72 145.72 153.32 144.80 153.75 L 143.89 154.17 C 142.97 154.60 142.57 155.70 143.00 156.63 C 143.43 157.55 144.53 157.95 145.45 157.52 Z M 146.36 157.06 L 147.32 156.60 C 148.23 156.18 148.61 155.09 148.18 154.19 C 147.76 153.28 146.67 152.89 145.77 153.32 L 144.80 153.78 C 143.90 154.21 143.51 155.29 143.94 156.20 C 144.37 157.10 145.45 157.49 146.36 157.06 Z M 147.32 156.54 L 148.10 156.16 C 148.97 155.73 149.33 154.67 148.90 153.80 C 148.47 152.93 147.41 152.57 146.54 153.00 L 145.76 153.39 C 144.89 153.82 144.53 154.87 144.97 155.74 C 145.40 156.61 146.45 156.97 147.32 156.54 Z M 148.12 156.09 L 148.94 155.66 C 149.78 155.21 150.09 154.18 149.65 153.34 C 149.21 152.51 148.17 152.19 147.34 152.63 L 146.52 153.07 C 145.68 153.51 145.36 154.55 145.81 155.38 C 146.25 156.22 147.28 156.53 148.12 156.09 Z M 148.96 155.60 L 149.83 155.11 C 150.64 154.66 150.92 153.64 150.47 152.84 C 150.02 152.03 149.00 151.75 148.20 152.20 L 147.32 152.69 C 146.52 153.14 146.23 154.16 146.68 154.96 C 147.14 155.77 148.15 156.05 148.96 155.60 Z M 149.83 155.07 L 150.70 154.56 C 151.48 154.11 151.75 153.11 151.30 152.33 C 150.84 151.55 149.84 151.28 149.06 151.74 L 148.19 152.24 C 147.41 152.69 147.15 153.69 147.60 154.48 C 148.05 155.26 149.05 155.52 149.83 155.07 Z M 150.70 154.53 L 151.56 154.03 C 152.32 153.58 152.58 152.59 152.13 151.83 C 151.67 151.06 150.69 150.81 149.92 151.26 L 149.07 151.77 C 148.30 152.22 148.05 153.20 148.50 153.97 C 148.95 154.73 149.93 154.99 150.70 154.53 Z M 151.55 154.01 L 152.43 153.48 C 153.18 153.04 153.43 152.07 152.98 151.32 C 152.54 150.56 151.56 150.32 150.81 150.76 L 149.93 151.28 C 149.18 151.73 148.93 152.70 149.38 153.45 C 149.83 154.20 150.80 154.45 151.55 154.01 Z"
      fill="black"
      fill-rule="nonzero" /><path d="M 147.44 142.45 L 146.90 143.28 C 146.37 144.09 146.60 145.17 147.41 145.70 C 148.22 146.22 149.30 145.99 149.83 145.18 L 150.37 144.35 C 150.90 143.54 150.67 142.46 149.86 141.93 C 149.05 141.41 147.97 141.64 147.44 142.45 Z M 146.76 143.48 L 146.34 144.37 C 145.93 145.26 146.31 146.31 147.20 146.73 C 148.08 147.14 149.13 146.76 149.55 145.87 L 149.97 144.98 C 150.38 144.10 150.00 143.04 149.11 142.63 C 148.23 142.21 147.18 142.60 146.76 143.48 Z M 146.22 144.70 L 146.03 145.49 C 145.79 146.45 146.38 147.41 147.33 147.64 C 148.29 147.87 149.25 147.29 149.48 146.33 L 149.67 145.54 C 149.91 144.59 149.32 143.63 148.37 143.40 C 147.41 143.16 146.45 143.75 146.22 144.70 Z M 145.98 145.72 L 145.87 146.75 C 145.77 147.73 146.48 148.60 147.45 148.71 C 148.43 148.81 149.31 148.11 149.41 147.13 L 149.52 146.10 C 149.63 145.12 148.92 144.25 147.95 144.14 C 146.97 144.04 146.09 144.74 145.98 145.72 Z M 145.86 146.85 L 145.81 147.94 C 145.76 148.93 146.52 149.76 147.50 149.81 C 148.48 149.86 149.32 149.10 149.37 148.12 L 149.42 147.03 C 149.47 146.04 148.72 145.21 147.73 145.16 C 146.75 145.11 145.91 145.87 145.86 146.85 Z M 145.81 147.97 L 145.78 148.88 C 145.75 149.86 146.52 150.69 147.50 150.72 C 148.49 150.75 149.31 149.98 149.34 148.99 L 149.37 148.09 C 149.40 147.10 148.63 146.28 147.65 146.25 C 146.66 146.22 145.84 146.99 145.81 147.97 Z M 145.77 148.89 L 145.75 149.89 C 145.72 150.87 146.50 151.69 147.48 151.72 C 148.47 151.75 149.29 150.97 149.32 149.98 L 149.35 148.99 C 149.37 148.00 148.60 147.18 147.61 147.15 C 146.62 147.12 145.80 147.90 145.77 148.89 Z M 145.74 149.89 L 145.72 150.95 C 145.69 151.93 146.47 152.76 147.46 152.78 C 148.44 152.81 149.27 152.03 149.29 151.04 L 149.32 149.98 C 149.35 149.00 148.57 148.17 147.58 148.15 C 146.59 148.12 145.77 148.90 145.74 149.89 Z M 145.71 150.94 L 145.68 152.02 C 145.65 153.01 146.42 153.84 147.41 153.87 C 148.40 153.90 149.23 153.13 149.26 152.14 L 149.30 151.05 C 149.33 150.06 148.55 149.23 147.56 149.20 C 146.57 149.17 145.74 149.95 145.71 150.94 Z M 145.68 152.01 L 145.63 153.12 C 145.59 154.11 146.36 154.95 147.35 154.99 C 148.34 155.03 149.18 154.26 149.22 153.27 L 149.26 152.15 C 149.30 151.16 148.53 150.33 147.54 150.29 C 146.55 150.25 145.72 151.02 145.68 152.01 Z M 145.63 153.11 L 145.58 154.20 C 145.53 155.19 146.29 156.04 147.28 156.09 C 148.27 156.14 149.11 155.37 149.16 154.38 L 149.22 153.29 C 149.27 152.30 148.50 151.45 147.51 151.40 C 146.52 151.35 145.68 152.12 145.63 153.11 Z M 145.58 154.19 L 145.52 155.22 C 145.46 156.21 146.22 157.06 147.21 157.12 C 148.20 157.17 149.05 156.42 149.10 155.43 L 149.16 154.40 C 149.22 153.41 148.46 152.56 147.47 152.50 C 146.48 152.44 145.63 153.20 145.58 154.19 Z M 145.52 155.21 L 145.46 156.15 C 145.40 157.14 146.15 157.99 147.14 158.05 C 148.13 158.11 148.98 157.36 149.04 156.37 L 149.10 155.43 C 149.16 154.44 148.41 153.59 147.42 153.53 C 146.43 153.47 145.58 154.22 145.52 155.21 Z M 145.46 156.15 L 145.41 157.03 C 145.35 158.02 146.10 158.87 147.09 158.94 C 148.08 159.00 148.93 158.24 148.99 157.25 L 149.04 156.37 C 149.11 155.38 148.35 154.53 147.36 154.47 C 146.37 154.41 145.52 155.16 145.46 156.15 Z M 145.41 157.04 L 145.34 158.16 C 145.28 159.15 146.04 160.00 147.03 160.05 C 148.01 160.11 148.86 159.36 148.92 158.37 L 148.99 157.25 C 149.05 156.26 148.29 155.41 147.30 155.35 C 146.32 155.30 145.47 156.05 145.41 157.04 Z M 145.35 158.15 L 145.29 159.04 C 145.23 160.03 145.98 160.88 146.96 160.94 C 147.95 161.00 148.80 160.25 148.86 159.27 L 148.91 158.38 C 148.98 157.39 148.23 156.54 147.24 156.48 C 146.26 156.42 145.41 157.17 145.35 158.15 Z M 145.30 159.02 L 145.23 159.94 C 145.16 160.92 145.89 161.77 146.87 161.85 C 147.84 161.92 148.70 161.19 148.77 160.21 L 148.85 159.29 C 148.92 158.31 148.19 157.46 147.21 157.38 C 146.24 157.31 145.38 158.04 145.30 159.02 Z M 145.25 159.94 L 145.17 160.94 C 145.09 161.91 145.81 162.76 146.78 162.84 C 147.75 162.91 148.60 162.19 148.68 161.23 L 148.76 160.22 C 148.83 159.25 148.11 158.40 147.14 158.32 C 146.18 158.25 145.33 158.97 145.25 159.94 Z M 145.19 160.99 L 145.14 162.00 C 145.08 162.96 145.81 163.77 146.77 163.83 C 147.72 163.88 148.54 163.15 148.59 162.20 L 148.65 161.18 C 148.71 160.23 147.98 159.41 147.02 159.35 C 146.07 159.30 145.25 160.03 145.19 160.99 Z M 145.18 162.06 L 145.15 163.07 C 145.13 164.00 145.87 164.77 146.81 164.79 C 147.74 164.81 148.51 164.07 148.53 163.14 L 148.55 162.14 C 148.57 161.20 147.83 160.43 146.90 160.41 C 145.97 160.39 145.20 161.13 145.18 162.06 Z M 145.20 163.10 L 145.20 163.97 C 145.20 164.87 145.93 165.61 146.84 165.61 C 147.74 165.61 148.48 164.88 148.48 163.98 L 148.48 163.11 C 148.48 162.20 147.75 161.47 146.85 161.46 C 145.94 161.46 145.21 162.19 145.20 163.10 Z"
      fill="black"
      fill-rule="nonzero" /><path d="M 142.07 166.68 L 142.91 166.11 C 143.77 165.53 144.00 164.36 143.42 163.50 C 142.84 162.64 141.68 162.42 140.82 162.99 L 139.98 163.56 C 139.12 164.14 138.89 165.31 139.47 166.17 C 140.04 167.03 141.21 167.25 142.07 166.68 Z M 142.89 166.12 L 143.73 165.58 C 144.60 165.01 144.84 163.85 144.28 162.98 C 143.71 162.11 142.55 161.87 141.68 162.43 L 140.84 162.98 C 139.97 163.55 139.73 164.71 140.29 165.58 C 140.86 166.44 142.02 166.69 142.89 166.12 Z M 143.68 165.61 L 144.51 165.10 C 145.39 164.56 145.67 163.41 145.13 162.52 C 144.59 161.64 143.44 161.36 142.56 161.90 L 141.73 162.40 C 140.84 162.94 140.56 164.10 141.10 164.98 C 141.64 165.87 142.80 166.14 143.68 165.61 Z M 144.44 165.14 L 145.27 164.67 C 146.18 164.17 146.50 163.03 146.00 162.13 C 145.50 161.22 144.36 160.90 143.45 161.40 L 142.62 161.86 C 141.72 162.36 141.39 163.51 141.90 164.41 C 142.40 165.31 143.54 165.64 144.44 165.14 Z M 145.22 164.70 L 146.11 164.24 C 147.03 163.77 147.39 162.64 146.92 161.72 C 146.45 160.80 145.32 160.44 144.40 160.91 L 143.51 161.37 C 142.59 161.85 142.23 162.97 142.70 163.89 C 143.17 164.81 144.30 165.17 145.22 164.70 Z M 146.08 164.25 L 146.98 163.81 C 147.91 163.35 148.29 162.23 147.83 161.31 C 147.38 160.38 146.26 160.00 145.33 160.46 L 144.43 160.90 C 143.51 161.36 143.13 162.48 143.58 163.40 C 144.04 164.33 145.16 164.71 146.08 164.25 Z M 146.97 163.81 L 147.82 163.40 C 148.75 162.95 149.14 161.84 148.70 160.91 C 148.25 159.99 147.14 159.59 146.21 160.04 L 145.35 160.45 C 144.42 160.90 144.03 162.01 144.48 162.94 C 144.93 163.87 146.04 164.26 146.97 163.81 Z M 147.80 163.41 L 148.73 162.98 C 149.66 162.54 150.06 161.44 149.63 160.50 C 149.19 159.57 148.09 159.17 147.15 159.60 L 146.23 160.03 C 145.30 160.47 144.90 161.57 145.33 162.51 C 145.76 163.44 146.87 163.84 147.80 163.41 Z M 148.70 162.99 L 149.67 162.55 C 150.61 162.13 151.03 161.03 150.61 160.10 C 150.19 159.16 149.09 158.74 148.15 159.16 L 147.18 159.59 C 146.24 160.01 145.82 161.11 146.24 162.05 C 146.66 162.99 147.76 163.41 148.70 162.99 Z M 149.64 162.56 L 150.62 162.15 C 151.56 161.75 152.00 160.65 151.60 159.71 C 151.20 158.77 150.11 158.33 149.17 158.73 L 148.18 159.15 C 147.24 159.55 146.80 160.64 147.20 161.58 C 147.60 162.53 148.69 162.97 149.64 162.56 Z M 150.59 162.16 L 151.56 161.76 C 152.51 161.38 152.97 160.30 152.58 159.35 C 152.20 158.40 151.12 157.94 150.17 158.33 L 149.20 158.72 C 148.25 159.10 147.79 160.19 148.17 161.13 C 148.56 162.08 149.64 162.54 150.59 162.16 Z M 151.53 161.77 L 152.46 161.41 C 153.42 161.04 153.89 159.97 153.52 159.01 C 153.15 158.06 152.08 157.59 151.12 157.96 L 150.19 158.32 C 149.24 158.69 148.77 159.76 149.14 160.71 C 149.51 161.67 150.58 162.14 151.53 161.77 Z M 152.44 161.42 L 153.29 161.10 C 154.25 160.75 154.74 159.68 154.38 158.72 C 154.03 157.77 152.96 157.28 152.00 157.63 L 151.15 157.95 C 150.19 158.30 149.70 159.37 150.06 160.33 C 150.41 161.29 151.48 161.77 152.44 161.42 Z M 153.25 161.12 L 154.28 160.76 C 155.25 160.43 155.76 159.37 155.42 158.41 C 155.09 157.44 154.04 156.93 153.07 157.26 L 152.04 157.62 C 151.08 157.95 150.57 159.00 150.90 159.97 C 151.23 160.94 152.28 161.45 153.25 161.12 Z M 154.20 160.79 L 155.11 160.52 C 156.09 160.23 156.65 159.20 156.36 158.22 C 156.07 157.24 155.04 156.68 154.07 156.97 L 153.15 157.24 C 152.17 157.53 151.61 158.55 151.90 159.53 C 152.19 160.51 153.22 161.07 154.20 160.79 Z M 155.00 160.55 L 155.92 160.34 C 156.91 160.11 157.53 159.11 157.30 158.12 C 157.07 157.12 156.08 156.50 155.08 156.73 L 154.17 156.94 C 153.18 157.17 152.56 158.16 152.78 159.16 C 153.01 160.16 154.01 160.78 155.00 160.55 Z M 155.81 160.36 L 156.78 160.20 C 157.79 160.03 158.47 159.07 158.30 158.06 C 158.13 157.06 157.18 156.38 156.17 156.54 L 155.19 156.71 C 154.19 156.88 153.51 157.83 153.68 158.84 C 153.84 159.85 154.80 160.53 155.81 160.36 Z M 156.66 160.21 L 157.68 160.11 C 158.69 160.01 159.44 159.10 159.34 158.09 C 159.24 157.07 158.33 156.32 157.31 156.43 L 156.29 156.53 C 155.28 156.63 154.53 157.53 154.63 158.55 C 154.73 159.57 155.64 160.31 156.66 160.21 Z M 157.52 160.13 L 158.59 160.12 C 159.61 160.10 160.43 159.26 160.42 158.23 C 160.41 157.20 159.56 156.38 158.54 156.39 L 157.47 156.41 C 156.44 156.42 155.62 157.27 155.63 158.29 C 155.65 159.32 156.49 160.14 157.52 160.13 Z M 158.27 160.11 L 159.26 160.26 C 160.28 160.42 161.24 159.72 161.40 158.70 C 161.56 157.68 160.86 156.72 159.84 156.56 L 158.85 156.40 C 157.83 156.24 156.87 156.94 156.71 157.96 C 156.55 158.99 157.25 159.95 158.27 160.11 Z M 158.64 160.07 L 159.40 160.49 C 160.32 160.99 161.47 160.65 161.97 159.73 C 162.47 158.82 162.14 157.67 161.22 157.17 L 160.46 156.75 C 159.54 156.25 158.39 156.58 157.89 157.50 C 157.39 158.42 157.72 159.57 158.64 160.07 Z M 158.74 159.91 L 159.23 160.63 C 159.83 161.50 161.01 161.72 161.88 161.12 C 162.75 160.53 162.98 159.34 162.38 158.47 L 161.89 157.75 C 161.29 156.88 160.10 156.66 159.23 157.25 C 158.36 157.85 158.14 159.04 158.74 159.91 Z M 158.97 160.12 L 159.30 161.16 C 159.61 162.18 160.69 162.74 161.71 162.42 C 162.72 162.10 163.29 161.02 162.97 160.01 L 162.64 158.97 C 162.32 157.96 161.24 157.39 160.23 157.71 C 159.21 158.03 158.65 159.11 158.97 160.12 Z M 159.23 160.95 L 159.42 161.98 C 159.62 163.03 160.64 163.72 161.69 163.52 C 162.74 163.32 163.43 162.31 163.23 161.26 L 163.03 160.23 C 162.83 159.17 161.82 158.48 160.77 158.68 C 159.72 158.88 159.03 159.90 159.23 160.95 Z M 159.40 161.90 L 159.55 162.92 C 159.70 163.99 160.69 164.73 161.75 164.57 C 162.82 164.42 163.56 163.43 163.40 162.37 L 163.25 161.34 C 163.10 160.28 162.11 159.54 161.05 159.69 C 159.99 159.85 159.25 160.84 159.40 161.90 Z M 159.53 162.87 L 159.66 163.90 C 159.78 164.98 160.75 165.74 161.83 165.62 C 162.90 165.49 163.67 164.52 163.54 163.45 L 163.42 162.42 C 163.29 161.34 162.32 160.58 161.25 160.70 C 160.18 160.83 159.41 161.80 159.53 162.87 Z M 159.64 163.87 L 159.74 164.82 C 159.84 165.90 160.80 166.69 161.88 166.58 C 162.96 166.47 163.75 165.51 163.64 164.43 L 163.55 163.48 C 163.45 162.41 162.49 161.62 161.41 161.72 C 160.33 161.83 159.54 162.79 159.64 163.87 Z M 159.73 164.77 L 159.81 165.89 C 159.89 166.98 160.84 167.79 161.92 167.71 C 163.01 167.63 163.82 166.68 163.74 165.59 L 163.65 164.48 C 163.57 163.39 162.63 162.58 161.54 162.66 C 160.46 162.74 159.64 163.69 159.73 164.77 Z M 159.80 165.84 L 159.85 166.77 C 159.90 167.86 160.83 168.70 161.92 168.65 C 163.01 168.60 163.85 167.67 163.79 166.58 L 163.75 165.65 C 163.69 164.56 162.77 163.72 161.68 163.77 C 160.59 163.83 159.75 164.75 159.80 165.84 Z M 159.84 166.75 L 159.87 167.66 C 159.91 168.76 160.83 169.61 161.92 169.57 C 163.01 169.54 163.87 168.62 163.83 167.53 L 163.80 166.61 C 163.76 165.52 162.85 164.66 161.75 164.70 C 160.66 164.74 159.81 165.65 159.84 166.75 Z M 159.87 167.66 L 159.90 168.65 C 159.94 169.74 160.85 170.60 161.95 170.57 C 163.04 170.53 163.90 169.62 163.87 168.52 L 163.83 167.53 C 163.80 166.44 162.88 165.58 161.79 165.61 C 160.70 165.65 159.84 166.56 159.87 167.66 Z M 159.90 168.65 L 159.93 169.68 C 159.96 170.77 160.88 171.63 161.98 171.60 C 163.08 171.57 163.94 170.65 163.90 169.55 L 163.87 168.52 C 163.84 167.42 162.92 166.56 161.82 166.60 C 160.72 166.63 159.86 167.55 159.90 168.65 Z M 159.92 169.68 L 159.96 170.67 C 159.99 171.77 160.91 172.63 162.01 172.60 C 163.11 172.56 163.98 171.64 163.94 170.54 L 163.91 169.55 C 163.87 168.45 162.95 167.59 161.85 167.62 C 160.75 167.66 159.89 168.58 159.92 169.68 Z M 159.95 170.66 L 159.98 171.66 C 160.02 172.76 160.94 173.63 162.04 173.60 C 163.14 173.56 164.00 172.64 163.97 171.54 L 163.94 170.55 C 163.91 169.44 162.99 168.58 161.89 168.61 C 160.79 168.64 159.92 169.56 159.95 170.66 Z M 159.98 171.64 L 160.00 172.65 C 160.02 173.76 160.94 174.63 162.04 174.61 C 163.14 174.59 164.02 173.67 164.00 172.57 L 163.98 171.56 C 163.95 170.46 163.04 169.58 161.94 169.60 C 160.83 169.63 159.96 170.54 159.98 171.64 Z M 160.00 172.63 L 160.01 173.62 C 160.02 174.72 160.92 175.61 162.03 175.60 C 163.13 175.59 164.02 174.68 164.01 173.58 L 164.00 172.59 C 163.99 171.49 163.08 170.60 161.98 170.61 C 160.87 170.62 159.98 171.53 160.00 172.63 Z M 160.00 173.60 L 160.00 174.61 C 160.01 175.72 160.91 176.62 162.02 176.61 C 163.13 176.61 164.02 175.71 164.02 174.60 L 164.02 173.59 C 164.01 172.48 163.11 171.58 162.00 171.59 C 160.89 171.59 160.00 172.49 160.00 173.60 Z M 160.00 174.60 L 160.00 175.62 C 160.00 176.73 160.90 177.63 162.01 177.63 C 163.13 177.63 164.03 176.73 164.03 175.62 L 164.03 174.60 C 164.03 173.49 163.12 172.59 162.01 172.59 C 160.90 172.59 160.00 173.49 160.00 174.60 Z M 159.99 175.62 L 159.99 176.62 C 159.99 177.73 160.89 178.64 162.01 178.64 C 163.13 178.64 164.03 177.73 164.03 176.62 L 164.03 175.62 C 164.03 174.50 163.13 173.59 162.01 173.59 C 160.89 173.59 159.99 174.50 159.99 175.62 Z M 159.98 176.62 L 159.98 177.62 C 159.98 178.74 160.89 179.65 162.01 179.65 C 163.13 179.65 164.04 178.74 164.04 177.62 L 164.04 176.62 C 164.04 175.50 163.13 174.59 162.01 174.59 C 160.89 174.59 159.98 175.50 159.98 176.62 Z M 159.97 177.62 L 159.97 178.62 C 159.97 179.74 160.89 180.66 162.01 180.66 C 163.14 180.66 164.05 179.75 164.05 178.62 L 164.05 177.62 C 164.05 176.49 163.14 175.58 162.01 175.58 C 160.89 175.58 159.97 176.49 159.97 177.62 Z M 159.97 178.62 L 159.97 179.62 C 159.96 180.75 160.88 181.67 162.01 181.67 C 163.14 181.67 164.05 180.75 164.05 179.63 L 164.06 178.62 C 164.06 177.49 163.14 176.58 162.01 176.58 C 160.89 176.57 159.97 177.49 159.97 178.62 Z M 159.96 179.61 L 159.95 180.61 C 159.95 181.74 160.86 182.66 161.99 182.67 C 163.12 182.68 164.05 181.77 164.05 180.63 L 164.06 179.64 C 164.07 178.50 163.16 177.58 162.02 177.57 C 160.89 177.57 159.97 178.48 159.96 179.61 Z M 159.95 180.59 L 159.93 181.58 C 159.91 182.72 160.82 183.65 161.96 183.67 C 163.09 183.69 164.03 182.78 164.05 181.64 L 164.06 180.65 C 164.08 179.51 163.17 178.58 162.04 178.56 C 160.90 178.54 159.96 179.45 159.95 180.59 Z M 159.92 181.55 L 159.89 182.54 C 159.86 183.68 160.76 184.64 161.90 184.67 C 163.04 184.70 163.99 183.80 164.03 182.66 L 164.06 181.67 C 164.09 180.53 163.19 179.58 162.05 179.54 C 160.91 179.51 159.95 180.41 159.92 181.55 Z M 159.88 182.50 L 159.84 183.51 C 159.78 184.65 160.67 185.63 161.82 185.68 C 162.96 185.73 163.94 184.85 163.99 183.70 L 164.04 182.70 C 164.09 181.55 163.20 180.58 162.06 180.53 C 160.91 180.47 159.94 181.36 159.88 182.50 Z M 159.83 183.46 L 159.76 184.47 C 159.68 185.62 160.55 186.62 161.70 186.70 C 162.85 186.78 163.85 185.91 163.93 184.76 L 164.00 183.75 C 164.08 182.60 163.21 181.60 162.06 181.52 C 160.91 181.44 159.91 182.31 159.83 183.46 Z M 159.75 184.43 L 159.66 185.43 C 159.56 186.59 160.41 187.61 161.57 187.72 C 162.72 187.82 163.75 186.97 163.85 185.81 L 163.94 184.80 C 164.04 183.65 163.19 182.62 162.03 182.52 C 160.87 182.42 159.85 183.27 159.75 184.43 Z M 159.65 185.40 L 159.54 186.40 C 159.42 187.56 160.27 188.60 161.43 188.72 C 162.59 188.84 163.64 188.00 163.76 186.84 L 163.86 185.84 C 163.98 184.68 163.14 183.64 161.97 183.52 C 160.81 183.40 159.77 184.24 159.65 185.40 Z M 159.53 186.38 L 159.42 187.38 C 159.29 188.55 160.13 189.61 161.30 189.74 C 162.47 189.87 163.52 189.03 163.65 187.86 L 163.77 186.86 C 163.90 185.69 163.06 184.63 161.89 184.50 C 160.72 184.37 159.67 185.21 159.53 186.38 Z M 159.41 187.36 L 159.29 188.37 C 159.14 189.55 159.98 190.62 161.15 190.76 C 162.33 190.90 163.40 190.07 163.54 188.89 L 163.66 187.88 C 163.81 186.71 162.97 185.64 161.80 185.50 C 160.62 185.35 159.55 186.19 159.41 187.36 Z M 159.28 188.34 L 159.15 189.31 C 158.99 190.49 159.82 191.57 161.00 191.73 C 162.17 191.89 163.26 191.06 163.42 189.88 L 163.55 188.92 C 163.71 187.74 162.88 186.66 161.70 186.50 C 160.52 186.34 159.44 187.17 159.28 188.34 Z M 159.14 189.27 L 158.99 190.26 C 158.81 191.45 159.62 192.55 160.81 192.73 C 161.99 192.91 163.09 192.10 163.27 190.92 L 163.43 189.92 C 163.61 188.74 162.79 187.63 161.61 187.45 C 160.43 187.27 159.32 188.09 159.14 189.27 Z M 158.98 190.24 L 158.82 191.22 C 158.62 192.41 159.43 193.53 160.62 193.73 C 161.80 193.92 162.93 193.12 163.12 191.93 L 163.28 190.94 C 163.48 189.76 162.67 188.64 161.48 188.44 C 160.30 188.25 159.18 189.05 158.98 190.24 Z M 158.81 191.22 L 158.65 192.17 C 158.46 193.37 159.27 194.49 160.46 194.69 C 161.66 194.88 162.78 194.07 162.98 192.88 L 163.13 191.93 C 163.33 190.73 162.52 189.61 161.32 189.41 C 160.13 189.22 159.00 190.03 158.81 191.22 Z M 158.64 192.18 L 158.49 193.12 C 158.30 194.32 159.12 195.45 160.32 195.64 C 161.52 195.83 162.65 195.01 162.84 193.81 L 162.99 192.87 C 163.18 191.67 162.36 190.54 161.16 190.35 C 159.96 190.16 158.83 190.98 158.64 192.18 Z M 158.49 193.09 L 158.31 194.11 C 158.11 195.32 158.92 196.46 160.12 196.66 C 161.33 196.87 162.47 196.06 162.67 194.85 L 162.85 193.83 C 163.05 192.63 162.24 191.49 161.04 191.28 C 159.83 191.08 158.69 191.89 158.49 193.09 Z M 158.31 194.07 L 158.13 195.04 C 157.90 196.24 158.69 197.41 159.89 197.64 C 161.10 197.87 162.26 197.08 162.49 195.87 L 162.68 194.90 C 162.91 193.69 162.11 192.53 160.91 192.30 C 159.70 192.07 158.54 192.86 158.31 194.07 Z M 158.12 194.99 L 157.91 195.97 C 157.65 197.18 158.42 198.37 159.63 198.62 C 160.84 198.88 162.03 198.11 162.29 196.90 L 162.49 195.92 C 162.75 194.71 161.98 193.52 160.77 193.27 C 159.57 193.01 158.38 193.78 158.12 194.99 Z M 157.91 195.91 L 157.67 196.91 C 157.38 198.12 158.12 199.34 159.33 199.63 C 160.54 199.92 161.75 199.17 162.04 197.97 L 162.29 196.96 C 162.58 195.76 161.83 194.54 160.62 194.25 C 159.42 193.96 158.20 194.70 157.91 195.91 Z M 157.68 196.82 L 157.36 197.92 C 157.02 199.12 157.72 200.38 158.93 200.72 C 160.13 201.06 161.38 200.36 161.73 199.16 L 162.04 198.06 C 162.38 196.86 161.68 195.60 160.48 195.26 C 159.27 194.92 158.02 195.62 157.68 196.82 Z M 157.45 197.60 L 157.02 198.57 C 156.50 199.73 157.02 201.09 158.18 201.60 C 159.33 202.12 160.69 201.60 161.20 200.44 L 161.64 199.47 C 162.15 198.32 161.64 196.96 160.48 196.44 C 159.32 195.93 157.97 196.45 157.45 197.60 Z M 157.79 197.60 L 157.19 198.02 C 156.13 198.75 155.87 200.19 156.60 201.25 C 157.32 202.30 158.77 202.56 159.82 201.84 L 160.43 201.42 C 161.48 200.69 161.75 199.25 161.02 198.19 C 160.29 197.14 158.85 196.87 157.79 197.60 Z M 159.30 197.73 L 158.54 197.46 C 157.33 197.02 155.99 197.65 155.55 198.86 C 155.11 200.07 155.74 201.41 156.95 201.85 L 157.71 202.12 C 158.92 202.56 160.26 201.93 160.70 200.72 C 161.14 199.51 160.51 198.17 159.30 197.73 Z M 159.22 197.84 L 158.39 197.16 C 157.39 196.35 155.92 196.50 155.10 197.50 C 154.29 198.50 154.43 199.97 155.43 200.78 L 156.27 201.47 C 157.27 202.28 158.74 202.13 159.56 201.13 C 160.37 200.13 160.22 198.66 159.22 197.84 Z M 158.55 197.33 L 157.76 196.53 C 156.85 195.62 155.37 195.63 154.47 196.54 C 153.56 197.45 153.56 198.92 154.47 199.83 L 155.27 200.62 C 156.18 201.53 157.65 201.53 158.56 200.61 C 159.47 199.70 159.46 198.23 158.55 197.33 Z M 157.74 196.60 L 157.02 195.86 C 156.15 194.97 154.72 194.94 153.82 195.81 C 152.92 196.68 152.90 198.11 153.77 199.01 L 154.49 199.75 C 155.36 200.65 156.79 200.67 157.69 199.80 C 158.58 198.93 158.61 197.50 157.74 196.60 Z M 156.94 195.93 L 156.29 195.27 C 155.46 194.42 154.10 194.41 153.25 195.24 C 152.39 196.07 152.38 197.44 153.21 198.29 L 153.85 198.94 C 154.69 199.80 156.05 199.81 156.90 198.98 C 157.75 198.15 157.77 196.78 156.94 195.93 Z M 156.19 195.31 L 155.56 194.69 C 154.74 193.89 153.44 193.90 152.64 194.72 C 151.85 195.53 151.86 196.83 152.67 197.63 L 153.31 198.25 C 154.12 199.05 155.43 199.04 156.22 198.22 C 157.02 197.41 157.01 196.10 156.19 195.31 Z M 155.46 194.71 L 154.71 194.02 C 153.92 193.28 152.67 193.32 151.93 194.12 C 151.18 194.92 151.23 196.16 152.03 196.91 L 152.77 197.60 C 153.57 198.34 154.82 198.30 155.56 197.50 C 156.30 196.70 156.26 195.46 155.46 194.71 Z M 154.63 194.05 L 153.86 193.37 C 153.08 192.67 151.89 192.74 151.19 193.52 C 150.50 194.30 150.57 195.49 151.34 196.18 L 152.11 196.87 C 152.89 197.57 154.08 197.50 154.78 196.72 C 155.47 195.94 155.41 194.75 154.63 194.05 Z M 153.79 193.41 L 153.07 192.78 C 152.32 192.12 151.17 192.20 150.51 192.96 C 149.86 193.71 149.93 194.85 150.69 195.51 L 151.41 196.14 C 152.16 196.80 153.31 196.72 153.97 195.97 C 154.63 195.21 154.55 194.07 153.79 193.41 Z M 153.02 192.83 L 152.24 192.16 C 151.51 191.53 150.41 191.61 149.78 192.34 C 149.15 193.07 149.24 194.17 149.96 194.79 L 150.74 195.47 C 151.47 196.09 152.57 196.01 153.20 195.28 C 153.83 194.55 153.74 193.45 153.02 192.83 Z M 152.19 192.21 L 151.38 191.51 C 150.68 190.91 149.62 191.00 149.02 191.70 C 148.42 192.40 148.50 193.45 149.21 194.05 L 150.01 194.74 C 150.71 195.34 151.77 195.26 152.37 194.56 C 152.97 193.86 152.89 192.81 152.19 192.21 Z M 151.35 191.54 L 151.30 191.49 C 150.61 190.91 149.58 190.99 148.99 191.67 C 148.41 192.36 148.49 193.39 149.17 193.97 L 149.23 194.02 C 149.92 194.61 150.95 194.53 151.53 193.84 C 152.12 193.16 152.04 192.13 151.35 191.54 Z"
      fill="black"
      fill-rule="nonzero" /><path d="M 129.47 173.61 L 129.30 174.64 C 129.13 175.67 129.83 176.63 130.85 176.80 C 131.88 176.97 132.84 176.28 133.01 175.25 L 133.18 174.22 C 133.35 173.20 132.66 172.23 131.63 172.06 C 130.61 171.89 129.64 172.59 129.47 173.61 Z M 129.29 174.57 L 129.09 175.54 C 128.89 176.57 129.55 177.58 130.58 177.78 C 131.61 177.99 132.62 177.33 132.83 176.30 L 133.02 175.32 C 133.23 174.29 132.56 173.29 131.53 173.08 C 130.50 172.87 129.50 173.54 129.29 174.57 Z M 129.12 175.39 L 128.87 176.23 C 128.58 177.25 129.16 178.31 130.18 178.60 C 131.20 178.90 132.26 178.31 132.56 177.30 L 132.80 176.45 C 133.10 175.43 132.51 174.37 131.49 174.08 C 130.48 173.78 129.41 174.37 129.12 175.39 Z M 128.94 176.04 L 128.61 176.86 C 128.21 177.85 128.68 178.96 129.66 179.36 C 130.65 179.76 131.76 179.28 132.16 178.30 L 132.49 177.48 C 132.89 176.50 132.42 175.38 131.43 174.99 C 130.45 174.59 129.34 175.06 128.94 176.04 Z M 128.66 176.78 L 128.17 177.82 C 127.72 178.78 128.13 179.91 129.09 180.36 C 130.04 180.80 131.18 180.39 131.62 179.44 L 132.11 178.39 C 132.56 177.44 132.14 176.30 131.19 175.86 C 130.24 175.41 129.10 175.82 128.66 176.78 Z M 128.18 177.82 L 127.81 178.61 C 127.36 179.56 127.76 180.69 128.70 181.14 C 129.65 181.59 130.78 181.18 131.23 180.24 L 131.60 179.44 C 132.05 178.50 131.65 177.37 130.71 176.92 C 129.76 176.47 128.63 176.87 128.18 177.82 Z M 127.82 178.62 L 127.42 179.46 C 126.97 180.39 127.37 181.52 128.31 181.96 C 129.25 182.41 130.37 182.01 130.82 181.07 L 131.21 180.23 C 131.66 179.30 131.26 178.17 130.32 177.73 C 129.39 177.28 128.26 177.68 127.82 178.62 Z M 127.43 179.46 L 126.99 180.38 C 126.55 181.32 126.94 182.43 127.87 182.88 C 128.81 183.32 129.92 182.92 130.37 181.99 L 130.80 181.07 C 131.25 180.14 130.85 179.02 129.92 178.58 C 128.99 178.13 127.87 178.53 127.43 179.46 Z M 127.00 180.39 L 126.54 181.37 C 126.09 182.29 126.49 183.40 127.41 183.84 C 128.34 184.28 129.45 183.89 129.89 182.96 L 130.35 181.99 C 130.79 181.06 130.40 179.95 129.47 179.51 C 128.55 179.07 127.44 179.46 127.00 180.39 Z M 126.55 181.37 L 126.07 182.38 C 125.63 183.30 126.02 184.40 126.94 184.84 C 127.86 185.28 128.96 184.89 129.40 183.97 L 129.88 182.96 C 130.31 182.04 129.92 180.94 129.00 180.50 C 128.08 180.06 126.98 180.45 126.55 181.37 Z M 126.07 182.39 L 126.02 182.49 C 125.59 183.41 125.98 184.50 126.89 184.94 C 127.81 185.38 128.90 184.99 129.34 184.07 L 129.39 183.96 C 129.83 183.05 129.44 181.95 128.52 181.52 C 127.61 181.08 126.51 181.47 126.07 182.39 Z"
      fill="black"
      fill-rule="nonzero" /><path d="M 136.41 176.37 L 136.71 177.28 C 137.02 178.23 138.04 178.75 138.99 178.44 C 139.94 178.12 140.46 177.10 140.15 176.15 L 139.85 175.24 C 139.54 174.29 138.51 173.78 137.56 174.09 C 136.61 174.40 136.10 175.42 136.41 176.37 Z M 136.74 177.54 L 137.19 178.46 C 137.64 179.39 138.76 179.78 139.69 179.33 C 140.63 178.88 141.02 177.76 140.57 176.82 L 140.12 175.90 C 139.67 174.97 138.54 174.58 137.61 175.03 C 136.68 175.48 136.29 176.60 136.74 177.54 Z M 137.33 178.76 L 137.86 179.50 C 138.48 180.35 139.67 180.55 140.53 179.93 C 141.38 179.31 141.58 178.12 140.96 177.26 L 140.43 176.52 C 139.81 175.67 138.61 175.48 137.76 176.09 C 136.90 176.71 136.71 177.91 137.33 178.76 Z M 137.99 179.65 L 138.65 180.39 C 139.35 181.18 140.56 181.25 141.34 180.54 C 142.13 179.84 142.20 178.64 141.49 177.85 L 140.83 177.11 C 140.13 176.32 138.92 176.26 138.14 176.96 C 137.35 177.66 137.28 178.87 137.99 179.65 Z M 138.72 180.46 L 139.50 181.24 C 140.24 181.99 141.44 181.99 142.19 181.25 C 142.93 180.51 142.93 179.31 142.20 178.57 L 141.42 177.78 C 140.68 177.04 139.48 177.04 138.73 177.77 C 137.99 178.51 137.99 179.72 138.72 180.46 Z M 139.55 181.25 L 140.23 181.91 C 140.97 182.63 142.16 182.61 142.88 181.87 C 143.60 181.13 143.58 179.94 142.83 179.22 L 142.15 178.56 C 141.41 177.84 140.22 177.86 139.50 178.60 C 138.78 179.34 138.80 180.53 139.55 181.25 Z M 140.27 181.89 L 141.00 182.58 C 141.73 183.27 142.89 183.24 143.58 182.51 C 144.28 181.78 144.25 180.63 143.52 179.93 L 142.79 179.24 C 142.06 178.55 140.90 178.58 140.21 179.31 C 139.51 180.04 139.54 181.19 140.27 181.89 Z M 141.04 182.55 L 141.79 183.26 C 142.50 183.93 143.63 183.90 144.30 183.18 C 144.98 182.46 144.94 181.34 144.23 180.66 L 143.48 179.96 C 142.76 179.28 141.63 179.32 140.96 180.03 C 140.29 180.75 140.32 181.88 141.04 182.55 Z M 141.81 183.23 L 142.24 183.63 C 142.94 184.29 144.04 184.25 144.70 183.55 C 145.36 182.85 145.33 181.74 144.62 181.09 L 144.20 180.69 C 143.50 180.03 142.39 180.06 141.73 180.77 C 141.07 181.47 141.11 182.57 141.81 183.23 Z"
      fill="black"
      fill-rule="nonzero" /><path d="M 143.69 175.65 L 143.87 176.59 C 144.06 177.60 145.02 178.26 146.03 178.07 C 147.03 177.88 147.69 176.92 147.50 175.91 L 147.33 174.97 C 147.14 173.97 146.17 173.31 145.17 173.50 C 144.17 173.69 143.51 174.65 143.69 175.65 Z M 143.92 176.96 L 144.30 177.89 C 144.69 178.87 145.80 179.34 146.77 178.95 C 147.75 178.56 148.22 177.45 147.83 176.48 L 147.45 175.54 C 147.06 174.57 145.95 174.10 144.98 174.49 C 144.00 174.88 143.53 175.99 143.92 176.96 Z M 144.55 178.36 L 145.13 179.10 C 145.77 179.94 146.98 180.09 147.81 179.44 C 148.65 178.80 148.80 177.59 148.15 176.76 L 147.58 176.01 C 146.93 175.18 145.73 175.02 144.89 175.67 C 144.05 176.32 143.90 177.52 144.55 178.36 Z M 145.37 179.30 L 146.10 179.97 C 146.85 180.67 148.04 180.62 148.73 179.86 C 149.43 179.10 149.38 177.92 148.63 177.22 L 147.90 176.56 C 147.15 175.86 145.96 175.91 145.27 176.66 C 144.57 177.42 144.62 178.61 145.37 179.30 Z M 146.24 180.01 L 147.07 180.67 C 147.85 181.29 148.99 181.16 149.61 180.37 C 150.23 179.59 150.09 178.46 149.31 177.84 L 148.48 177.18 C 147.70 176.56 146.57 176.69 145.95 177.47 C 145.33 178.25 145.46 179.39 146.24 180.01 Z M 147.13 180.65 L 147.51 180.95 C 148.29 181.53 149.39 181.38 149.98 180.61 C 150.56 179.83 150.41 178.73 149.64 178.14 L 149.26 177.85 C 148.48 177.27 147.38 177.42 146.79 178.19 C 146.21 178.96 146.36 180.07 147.13 180.65 Z"
      fill="black"
      fill-rule="nonzero" /><path d="M 150.09 174.74 L 150.51 175.65 C 150.92 176.55 151.99 176.95 152.89 176.53 C 153.79 176.12 154.19 175.05 153.77 174.15 L 153.35 173.24 C 152.94 172.33 151.87 171.94 150.97 172.35 C 150.07 172.77 149.67 173.84 150.09 174.74 Z M 150.47 175.83 L 150.95 176.70 C 151.47 177.63 152.63 177.96 153.56 177.44 C 154.48 176.93 154.81 175.76 154.30 174.84 L 153.81 173.97 C 153.30 173.05 152.13 172.72 151.21 173.23 C 150.29 173.74 149.96 174.91 150.47 175.83 Z M 151.06 176.99 L 151.66 177.76 C 152.33 178.63 153.58 178.79 154.45 178.11 C 155.31 177.44 155.47 176.19 154.79 175.32 L 154.20 174.55 C 153.52 173.68 152.27 173.53 151.41 174.20 C 150.54 174.88 150.38 176.12 151.06 176.99 Z M 151.86 177.98 L 152.58 178.67 C 153.38 179.42 154.63 179.38 155.39 178.59 C 156.14 177.79 156.11 176.53 155.31 175.78 L 154.59 175.10 C 153.79 174.35 152.54 174.38 151.78 175.18 C 151.03 175.97 151.06 177.23 151.86 177.98 Z M 152.73 178.75 L 153.53 179.38 C 154.38 180.05 155.60 179.91 156.27 179.07 C 156.94 178.23 156.80 177.00 155.96 176.33 L 155.15 175.70 C 154.31 175.03 153.09 175.17 152.42 176.01 C 151.75 176.85 151.89 178.08 152.73 178.75 Z M 153.63 179.37 L 154.42 179.96 C 155.26 180.57 156.43 180.40 157.05 179.56 C 157.67 178.73 157.49 177.55 156.65 176.93 L 155.86 176.35 C 155.03 175.73 153.85 175.91 153.23 176.74 C 152.62 177.58 152.79 178.75 153.63 179.37 Z M 154.50 179.90 L 155.32 180.48 C 156.12 181.05 157.24 180.87 157.81 180.07 C 158.38 179.26 158.20 178.15 157.39 177.58 L 156.57 176.99 C 155.77 176.42 154.66 176.61 154.09 177.41 C 153.51 178.21 153.70 179.32 154.50 179.90 Z M 155.37 180.42 L 155.88 180.78 C 156.65 181.32 157.72 181.14 158.26 180.37 C 158.80 179.60 158.62 178.54 157.85 177.99 L 157.34 177.64 C 156.57 177.09 155.51 177.28 154.96 178.05 C 154.42 178.82 154.61 179.88 155.37 180.42 Z"
      fill="black"
      fill-rule="nonzero" /></svg>