<svg xmlns="http://www.w3.org/2000/svg" width="300" height="300" viewBox="0 0 300 300">
<path d="M 140.98 105.04 L 141.88 104.79 C 142.83 104.53 143.38 103.56 143.12 102.62 C 142.86 101.67 141.89 101.12 140.95 101.38 L 140.04 101.62 C 139.10 101.88 138.54 102.86 138.80 103.80 C 139.06 104.75 140.03 105.30 140.98 105.04 Z M 141.92 104.84 L 142.85 104.58 C 143.82 104.30 144.38 103.28 144.10 102.31 C 143.82 101.34 142.81 100.78 141.83 101.06 L 140.91 101.33 C 139.93 101.61 139.37 102.62 139.66 103.59 C 139.94 104.56 140.95 105.12 141.92 104.84 Z M 142.91 104.62 L 143.88 104.31 C 144.88 104.00 145.43 102.94 145.11 101.94 C 144.80 100.95 143.74 100.39 142.74 100.71 L 141.77 101.01 C 140.78 101.33 140.22 102.39 140.54 103.39 C 140.85 104.38 141.92 104.93 142.91 104.62 Z M 143.96 104.35 L 144.96 103.99 C 145.98 103.63 146.51 102.52 146.15 101.51 C 145.80 100.49 144.68 99.96 143.67 100.32 L 142.66 100.67 C 141.65 101.03 141.12 102.14 141.47 103.16 C 141.83 104.17 142.94 104.70 143.96 104.35 Z M 145.03 104.00 L 145.90 103.66 C 146.91 103.27 147.42 102.13 147.03 101.11 C 146.63 100.09 145.49 99.59 144.47 99.98 L 143.61 100.32 C 142.59 100.71 142.08 101.85 142.48 102.87 C 142.87 103.88 144.01 104.39 145.03 104.00 Z M 145.93 103.65 L 146.84 103.28 C 147.85 102.87 148.33 101.72 147.92 100.71 C 147.51 99.70 146.36 99.21 145.35 99.62 L 144.44 99.99 C 143.43 100.40 142.95 101.56 143.36 102.56 C 143.77 103.57 144.92 104.06 145.93 103.65 Z M 146.85 103.27 L 147.79 102.88 C 148.80 102.46 149.27 101.30 148.85 100.30 C 148.43 99.29 147.28 98.82 146.27 99.24 L 145.33 99.63 C 144.33 100.05 143.85 101.21 144.27 102.21 C 144.69 103.22 145.85 103.69 146.85 103.27 Z M 147.80 102.88 L 148.76 102.47 C 149.76 102.05 150.23 100.89 149.81 99.89 C 149.39 98.88 148.23 98.41 147.23 98.84 L 146.27 99.24 C 145.26 99.66 144.79 100.82 145.21 101.82 C 145.64 102.83 146.79 103.30 147.80 102.88 Z M 148.75 102.48 L 149.73 102.07 C 150.73 101.65 151.21 100.50 150.79 99.49 C 150.37 98.48 149.22 98.01 148.21 98.43 L 147.23 98.83 C 146.23 99.25 145.75 100.41 146.17 101.41 C 146.59 102.42 147.74 102.89 148.75 102.48 Z M 149.71 102.07 L 150.70 101.67 C 151.71 101.26 152.20 100.11 151.79 99.10 C 151.38 98.09 150.23 97.61 149.22 98.02 L 148.22 98.42 C 147.22 98.83 146.73 99.98 147.14 100.99 C 147.55 102.00 148.70 102.48 149.71 102.07 Z M 150.69 101.67 L 151.66 101.29 C 152.67 100.88 153.17 99.74 152.76 98.73 C 152.36 97.72 151.22 97.22 150.21 97.63 L 149.23 98.01 C 148.22 98.42 147.73 99.56 148.13 100.57 C 148.53 101.58 149.68 102.08 150.69 101.67 Z M 151.65 101.29 L 152.58 100.92 C 153.60 100.53 154.10 99.39 153.70 98.38 C 153.31 97.36 152.17 96.86 151.15 97.26 L 150.22 97.62 C 149.21 98.02 148.71 99.16 149.10 100.17 C 149.50 101.18 150.64 101.68 151.65 101.29 Z M 152.57 100.93 L 153.45 100.59 C 154.46 100.20 154.97 99.07 154.58 98.06 C 154.19 97.04 153.06 96.53 152.04 96.92 L 151.17 97.26 C 150.15 97.64 149.65 98.78 150.03 99.79 C 150.42 100.81 151.56 101.31 152.57 100.93 Z M 153.43 100.59 L 154.37 100.24 C 155.38 99.86 155.90 98.73 155.52 97.72 C 155.14 96.71 154.01 96.19 153.00 96.57 L 152.06 96.92 C 151.05 97.30 150.53 98.43 150.91 99.44 C 151.29 100.45 152.42 100.97 153.43 100.59 Z M 154.35 100.23 L 155.36 99.86 C 156.37 99.50 156.88 98.38 156.52 97.38 C 156.15 96.37 155.04 95.85 154.03 96.22 L 153.02 96.58 C 152.02 96.95 151.50 98.06 151.86 99.07 C 152.23 100.07 153.34 100.59 154.35 100.23 Z M 155.34 99.84 L 156.23 99.52 C 157.23 99.17 157.75 98.07 157.39 97.08 C 157.04 96.08 155.94 95.56 154.94 95.92 L 154.05 96.23 C 153.06 96.59 152.54 97.68 152.89 98.68 C 153.25 99.68 154.34 100.20 155.34 99.84 Z M 156.22 99.51 L 157.07 99.20 C 158.06 98.85 158.58 97.77 158.22 96.78 C 157.87 95.79 156.79 95.28 155.80 95.63 L 154.95 95.93 C 153.96 96.29 153.45 97.37 153.80 98.36 C 154.15 99.34 155.24 99.86 156.22 99.51 Z M 157.09 99.21 L 158.05 98.87 C 159.04 98.51 159.55 97.41 159.19 96.42 C 158.83 95.43 157.74 94.91 156.75 95.27 L 155.79 95.62 C 154.79 95.98 154.28 97.08 154.64 98.07 C 155.00 99.06 156.10 99.57 157.09 99.21 Z M 158.06 98.91 L 158.99 98.57 C 160.01 98.21 160.54 97.09 160.17 96.07 C 159.80 95.06 158.69 94.53 157.67 94.89 L 156.74 95.23 C 155.72 95.60 155.19 96.72 155.56 97.73 C 155.92 98.75 157.04 99.27 158.06 98.91 Z M 158.98 98.61 L 159.92 98.29 C 160.95 97.93 161.50 96.80 161.14 95.76 C 160.79 94.73 159.66 94.18 158.62 94.53 L 157.68 94.86 C 156.65 95.22 156.10 96.35 156.45 97.38 C 156.81 98.42 157.94 98.97 158.98 98.61 Z M 159.88 98.30 L 160.84 97.98 C 161.88 97.64 162.45 96.52 162.11 95.48 C 161.77 94.44 160.65 93.87 159.61 94.21 L 158.65 94.53 C 157.61 94.87 157.04 95.98 157.38 97.03 C 157.72 98.07 158.84 98.64 159.88 98.30 Z M 160.81 97.97 L 161.76 97.67 C 162.79 97.35 163.36 96.24 163.04 95.21 C 162.71 94.17 161.61 93.60 160.57 93.93 L 159.63 94.23 C 158.60 94.55 158.02 95.66 158.35 96.69 C 158.68 97.73 159.78 98.30 160.81 97.97 Z M 161.75 97.67 L 161.85 97.64 C 162.88 97.31 163.45 96.22 163.13 95.19 C 162.80 94.16 161.71 93.58 160.68 93.91 L 160.58 93.94 C 159.55 94.26 158.98 95.36 159.30 96.39 C 159.62 97.42 160.72 97.99 161.75 97.67 Z"
      fill="black"
      fill-rule="nonzero" /><path d="M 149.63 90.08 L 149.63 91.01 C 149.63 92.04 150.46 92.88 151.50 92.89 C 152.53 92.89 153.37 92.05 153.37 91.02 L 153.37 90.09 C 153.37 89.06 152.54 88.22 151.50 88.22 C 150.47 88.21 149.63 89.05 149.63 90.08 Z M 149.59 90.99 L 149.58 91.94 C 149.57 93.00 150.41 93.86 151.47 93.88 C 152.52 93.89 153.38 93.04 153.40 91.99 L 153.41 91.04 C 153.42 89.98 152.58 89.12 151.52 89.11 C 150.47 89.09 149.60 89.94 149.59 90.99 Z M 149.55 91.91 L 149.51 92.91 C 149.48 93.98 150.32 94.88 151.40 94.91 C 152.47 94.95 153.37 94.10 153.40 93.03 L 153.43 92.03 C 153.46 90.95 152.62 90.06 151.55 90.02 C 150.48 89.99 149.58 90.83 149.55 91.91 Z M 149.48 92.86 L 149.42 93.93 C 149.36 95.03 150.19 95.96 151.29 96.02 C 152.38 96.08 153.31 95.25 153.37 94.16 L 153.43 93.08 C 153.50 91.99 152.66 91.05 151.57 90.99 C 150.48 90.93 149.54 91.77 149.48 92.86 Z M 149.40 93.88 L 149.32 94.88 C 149.23 95.98 150.05 96.95 151.15 97.04 C 152.25 97.13 153.22 96.31 153.31 95.21 L 153.39 94.21 C 153.48 93.11 152.66 92.14 151.56 92.05 C 150.46 91.96 149.49 92.78 149.40 93.88 Z M 149.32 94.84 L 149.22 95.82 C 149.11 96.92 149.91 97.91 151.01 98.02 C 152.11 98.13 153.09 97.33 153.21 96.23 L 153.31 95.25 C 153.42 94.15 152.62 93.16 151.52 93.05 C 150.42 92.94 149.44 93.74 149.32 94.84 Z M 149.23 95.79 L 149.11 96.80 C 148.98 97.90 149.76 98.89 150.86 99.02 C 151.96 99.15 152.95 98.37 153.08 97.27 L 153.20 96.26 C 153.33 95.17 152.55 94.17 151.45 94.04 C 150.35 93.91 149.36 94.70 149.23 95.79 Z M 149.12 96.78 L 148.98 97.80 C 148.84 98.89 149.61 99.89 150.70 100.03 C 151.79 100.18 152.79 99.41 152.94 98.32 L 153.07 97.30 C 153.21 96.21 152.45 95.21 151.36 95.06 C 150.26 94.92 149.26 95.69 149.12 96.78 Z M 148.99 97.77 L 148.85 98.78 C 148.69 99.86 149.45 100.87 150.53 101.03 C 151.62 101.18 152.63 100.43 152.78 99.34 L 152.93 98.34 C 153.08 97.25 152.33 96.25 151.24 96.09 C 150.16 95.93 149.15 96.69 148.99 97.77 Z M 148.86 98.75 L 148.70 99.78 C 148.53 100.86 149.27 101.87 150.35 102.04 C 151.43 102.20 152.45 101.47 152.61 100.38 L 152.77 99.36 C 152.94 98.28 152.20 97.27 151.12 97.10 C 150.04 96.94 149.03 97.67 148.86 98.75 Z M 148.72 99.75 L 148.54 100.81 C 148.36 101.88 149.08 102.90 150.15 103.08 C 151.22 103.26 152.23 102.53 152.41 101.47 L 152.59 100.41 C 152.77 99.34 152.05 98.32 150.98 98.14 C 149.91 97.96 148.90 98.68 148.72 99.75 Z M 148.57 100.79 L 148.39 101.79 C 148.20 102.85 148.90 103.86 149.95 104.05 C 151.01 104.24 152.02 103.54 152.21 102.48 L 152.39 101.49 C 152.58 100.43 151.88 99.42 150.83 99.23 C 149.77 99.04 148.76 99.74 148.57 100.79 Z M 148.41 101.77 L 148.23 102.72 C 148.03 103.76 148.71 104.77 149.75 104.97 C 150.79 105.17 151.80 104.49 152.00 103.45 L 152.18 102.50 C 152.38 101.46 151.70 100.46 150.66 100.25 C 149.62 100.05 148.62 100.73 148.41 101.77 Z M 148.26 102.71 L 148.07 103.61 C 147.86 104.64 148.52 105.64 149.55 105.85 C 150.58 106.06 151.58 105.40 151.79 104.37 L 151.97 103.46 C 152.18 102.44 151.52 101.44 150.49 101.23 C 149.47 101.02 148.47 101.68 148.26 102.71 Z M 148.10 103.60 L 147.89 104.58 C 147.68 105.59 148.32 106.59 149.33 106.80 C 150.34 107.02 151.33 106.37 151.54 105.37 L 151.75 104.38 C 151.97 103.37 151.33 102.38 150.32 102.16 C 149.31 101.95 148.32 102.59 148.10 103.60 Z M 147.93 104.57 L 147.71 105.56 C 147.49 106.54 148.11 107.52 149.09 107.74 C 150.08 107.97 151.06 107.35 151.28 106.36 L 151.50 105.38 C 151.73 104.39 151.11 103.41 150.12 103.19 C 149.14 102.97 148.16 103.59 147.93 104.57 Z M 147.75 105.54 L 147.52 106.50 C 147.29 107.46 147.88 108.43 148.84 108.66 C 149.81 108.89 150.77 108.30 151.01 107.34 L 151.24 106.38 C 151.47 105.42 150.88 104.45 149.92 104.22 C 148.95 103.99 147.99 104.58 147.75 105.54 Z M 147.57 106.48 L 147.32 107.43 C 147.08 108.36 147.64 109.32 148.58 109.56 C 149.52 109.81 150.47 109.24 150.72 108.31 L 150.96 107.36 C 151.20 106.42 150.64 105.47 149.70 105.22 C 148.77 104.98 147.81 105.54 147.57 106.48 Z M 147.37 107.41 L 147.10 108.36 C 146.85 109.28 147.38 110.22 148.29 110.48 C 149.21 110.73 150.15 110.20 150.41 109.28 L 150.67 108.33 C 150.93 107.41 150.39 106.47 149.48 106.21 C 148.57 105.96 147.62 106.49 147.37 107.41 Z M 147.14 108.35 L 146.86 109.31 C 146.60 110.20 147.11 111.13 148.00 111.39 C 148.89 111.66 149.82 111.15 150.08 110.26 L 150.36 109.30 C 150.63 108.41 150.12 107.47 149.23 107.21 C 148.34 106.95 147.40 107.46 147.14 108.35 Z M 146.90 109.30 L 146.60 110.26 C 146.34 111.13 146.83 112.05 147.70 112.31 C 148.57 112.58 149.49 112.09 149.75 111.22 L 150.04 110.26 C 150.31 109.39 149.82 108.47 148.95 108.21 C 148.08 107.94 147.16 108.43 146.90 109.30 Z M 146.64 110.26 L 146.35 111.19 C 146.09 112.04 146.56 112.94 147.41 113.21 C 148.26 113.47 149.17 113.00 149.43 112.14 L 149.72 111.22 C 149.98 110.37 149.51 109.46 148.66 109.20 C 147.81 108.94 146.90 109.41 146.64 110.26 Z"
      fill="black"
      fill-rule="nonzero" /><path d="M 131.99 118.18 L 131.57 118.88 C 131.07 119.72 131.35 120.79 132.18 121.29 C 133.02 121.79 134.09 121.51 134.59 120.68 L 135.01 119.97 C 135.51 119.14 135.24 118.06 134.40 117.57 C 133.57 117.07 132.49 117.34 131.99 118.18 Z M 131.56 118.85 L 131.06 119.66 C 130.54 120.50 130.81 121.60 131.65 122.11 C 132.49 122.63 133.59 122.37 134.10 121.53 L 134.60 120.72 C 135.12 119.88 134.86 118.78 134.02 118.26 C 133.18 117.74 132.08 118.00 131.56 118.85 Z M 131.06 119.61 L 130.40 120.63 C 129.86 121.48 130.10 122.60 130.95 123.14 C 131.79 123.68 132.91 123.44 133.45 122.59 L 134.11 121.57 C 134.65 120.73 134.41 119.61 133.56 119.06 C 132.72 118.52 131.60 118.77 131.06 119.61 Z M 130.40 120.61 L 129.89 121.38 C 129.33 122.23 129.56 123.36 130.41 123.92 C 131.25 124.48 132.38 124.24 132.94 123.40 L 133.45 122.62 C 134.01 121.78 133.78 120.64 132.93 120.09 C 132.09 119.53 130.96 119.76 130.40 120.61 Z M 129.89 121.38 L 129.33 122.22 C 128.77 123.06 129.00 124.19 129.84 124.76 C 130.68 125.32 131.81 125.09 132.37 124.25 L 132.93 123.41 C 133.50 122.57 133.27 121.43 132.43 120.87 C 131.59 120.31 130.45 120.54 129.89 121.38 Z M 129.33 122.22 L 128.75 123.09 C 128.18 123.93 128.41 125.07 129.25 125.63 C 130.09 126.19 131.22 125.97 131.79 125.13 L 132.37 124.25 C 132.93 123.41 132.71 122.28 131.87 121.71 C 131.03 121.15 129.89 121.38 129.33 122.22 Z M 128.74 123.09 L 128.17 123.96 C 127.61 124.80 127.83 125.93 128.67 126.50 C 129.51 127.06 130.65 126.83 131.21 125.99 L 131.79 125.12 C 132.35 124.28 132.12 123.15 131.28 122.59 C 130.44 122.03 129.30 122.25 128.74 123.09 Z M 128.16 123.97 L 127.62 124.78 C 127.07 125.62 127.30 126.76 128.14 127.32 C 128.98 127.87 130.12 127.64 130.68 126.80 L 131.21 125.98 C 131.77 125.14 131.54 124.00 130.70 123.45 C 129.85 122.89 128.72 123.12 128.16 123.97 Z M 127.63 124.80 L 126.98 125.80 C 126.44 126.64 126.68 127.77 127.52 128.31 C 128.36 128.86 129.48 128.61 130.03 127.77 L 130.67 126.77 C 131.22 125.93 130.98 124.81 130.13 124.27 C 129.29 123.72 128.17 123.96 127.63 124.80 Z M 126.99 125.84 L 126.46 126.69 C 125.93 127.52 126.18 128.63 127.02 129.15 C 127.85 129.68 128.95 129.43 129.48 128.59 L 130.01 127.74 C 130.54 126.90 130.29 125.80 129.45 125.28 C 128.62 124.75 127.52 125.00 126.99 125.84 Z M 126.48 126.72 L 126.01 127.47 C 125.50 128.30 125.75 129.38 126.58 129.89 C 127.40 130.40 128.48 130.14 128.99 129.32 L 129.46 128.56 C 129.97 127.74 129.71 126.66 128.89 126.15 C 128.07 125.64 126.99 125.90 126.48 126.72 Z M 126.03 127.49 L 125.54 128.29 C 125.03 129.10 125.28 130.16 126.09 130.67 C 126.90 131.17 127.97 130.92 128.47 130.11 L 128.97 129.30 C 129.47 128.49 129.22 127.43 128.41 126.93 C 127.60 126.43 126.54 126.68 126.03 127.49 Z M 125.57 128.29 L 125.02 129.15 C 124.52 129.94 124.75 130.99 125.54 131.50 C 126.33 132.00 127.38 131.77 127.89 130.97 L 128.44 130.11 C 128.94 129.32 128.71 128.27 127.92 127.76 C 127.12 127.26 126.07 127.49 125.57 128.29 Z M 125.06 129.12 L 124.53 129.92 C 124.01 130.69 124.21 131.73 124.98 132.25 C 125.75 132.77 126.79 132.56 127.31 131.79 L 127.85 131.00 C 128.36 130.23 128.16 129.19 127.39 128.67 C 126.62 128.15 125.58 128.36 125.06 129.12 Z M 124.59 129.88 L 123.99 130.69 C 123.45 131.43 123.60 132.46 124.34 133.00 C 125.07 133.54 126.11 133.39 126.65 132.65 L 127.25 131.84 C 127.79 131.10 127.63 130.07 126.90 129.53 C 126.16 128.99 125.13 129.14 124.59 129.88 Z M 124.05 130.66 L 123.43 131.44 C 122.88 132.14 122.99 133.16 123.69 133.71 C 124.39 134.27 125.41 134.15 125.97 133.45 L 126.59 132.68 C 127.14 131.98 127.03 130.96 126.33 130.40 C 125.63 129.85 124.61 129.96 124.05 130.66 Z M 123.47 131.43 L 123.17 131.80 C 122.61 132.48 122.71 133.49 123.39 134.05 C 124.08 134.61 125.08 134.50 125.64 133.82 L 125.94 133.46 C 126.50 132.77 126.40 131.77 125.71 131.21 C 125.03 130.65 124.02 130.75 123.47 131.43 Z"
      fill="black"
      fill-rule="nonzero" /><path d="M 136.17 121.59 L 136.97 121.19 C 137.95 120.70 138.35 119.52 137.86 118.54 C 137.38 117.57 136.19 117.17 135.22 117.65 L 134.41 118.05 C 133.44 118.54 133.04 119.72 133.52 120.70 C 134.01 121.67 135.19 122.07 136.17 121.59 Z M 136.94 121.21 L 137.82 120.79 C 138.80 120.32 139.22 119.14 138.76 118.16 C 138.29 117.17 137.11 116.75 136.12 117.22 L 135.25 117.63 C 134.26 118.10 133.84 119.28 134.31 120.27 C 134.78 121.26 135.96 121.68 136.94 121.21 Z M 137.77 120.82 L 138.78 120.37 C 139.78 119.93 140.24 118.76 139.80 117.76 C 139.36 116.76 138.19 116.31 137.19 116.75 L 136.17 117.19 C 135.17 117.63 134.72 118.80 135.16 119.80 C 135.60 120.80 136.77 121.26 137.77 120.82 Z M 138.74 120.39 L 139.61 120.04 C 140.62 119.62 141.11 118.46 140.69 117.45 C 140.28 116.44 139.12 115.95 138.11 116.37 L 137.23 116.72 C 136.22 117.14 135.74 118.30 136.15 119.31 C 136.57 120.32 137.72 120.81 138.74 120.39 Z M 139.59 120.04 L 140.51 119.68 C 141.52 119.28 142.02 118.12 141.62 117.11 C 141.22 116.09 140.06 115.59 139.05 116.00 L 138.13 116.36 C 137.11 116.76 136.62 117.91 137.02 118.93 C 137.42 119.95 138.57 120.45 139.59 120.04 Z M 140.51 119.68 L 141.47 119.30 C 142.48 118.89 142.98 117.75 142.58 116.73 C 142.17 115.71 141.03 115.22 140.01 115.62 L 139.05 116.00 C 138.03 116.40 137.54 117.55 137.94 118.57 C 138.34 119.58 139.49 120.08 140.51 119.68 Z M 141.48 119.29 L 142.45 118.90 C 143.46 118.49 143.94 117.34 143.54 116.32 C 143.13 115.31 141.97 114.83 140.96 115.23 L 140.00 115.63 C 138.98 116.04 138.50 117.19 138.91 118.20 C 139.32 119.21 140.47 119.70 141.48 119.29 Z M 142.48 118.88 L 143.47 118.46 C 144.47 118.03 144.94 116.87 144.51 115.87 C 144.09 114.87 142.93 114.40 141.93 114.83 L 140.93 115.25 C 139.93 115.68 139.46 116.84 139.89 117.84 C 140.32 118.84 141.47 119.31 142.48 118.88 Z M 143.51 118.43 L 144.49 117.99 C 145.48 117.54 145.92 116.38 145.48 115.39 C 145.03 114.40 143.87 113.96 142.88 114.41 L 141.89 114.85 C 140.90 115.30 140.46 116.46 140.91 117.45 C 141.35 118.44 142.52 118.88 143.51 118.43 Z M 144.52 117.97 L 145.43 117.54 C 146.41 117.07 146.83 115.91 146.36 114.93 C 145.90 113.95 144.73 113.53 143.76 114.00 L 142.85 114.43 C 141.87 114.89 141.45 116.06 141.92 117.04 C 142.38 118.01 143.55 118.43 144.52 117.97 Z M 145.45 117.52 L 146.27 117.12 C 147.24 116.64 147.64 115.47 147.16 114.50 C 146.69 113.54 145.52 113.14 144.55 113.61 L 143.73 114.02 C 142.77 114.49 142.37 115.66 142.84 116.63 C 143.32 117.59 144.49 117.99 145.45 117.52 Z M 146.29 117.10 L 147.20 116.64 C 148.15 116.16 148.54 114.99 148.06 114.03 C 147.57 113.07 146.41 112.69 145.45 113.17 L 144.54 113.63 C 143.58 114.11 143.19 115.28 143.68 116.24 C 144.16 117.20 145.33 117.58 146.29 117.10 Z M 147.21 116.63 L 148.09 116.17 C 149.04 115.68 149.42 114.52 148.93 113.57 C 148.44 112.62 147.28 112.24 146.33 112.73 L 145.44 113.19 C 144.49 113.67 144.11 114.84 144.60 115.79 C 145.09 116.74 146.26 117.11 147.21 116.63 Z M 148.09 116.16 L 148.91 115.74 C 149.85 115.25 150.23 114.09 149.74 113.15 C 149.25 112.20 148.09 111.83 147.14 112.32 L 146.33 112.74 C 145.38 113.22 145.01 114.39 145.50 115.33 C 145.99 116.28 147.15 116.65 148.09 116.16 Z M 148.90 115.74 L 149.79 115.29 C 150.73 114.81 151.11 113.65 150.63 112.71 C 150.15 111.76 148.99 111.38 148.05 111.86 L 147.16 112.32 C 146.21 112.80 145.83 113.95 146.31 114.90 C 146.79 115.84 147.95 116.22 148.90 115.74 Z M 149.78 115.29 L 150.68 114.84 C 151.62 114.36 152.00 113.21 151.53 112.26 C 151.05 111.31 149.90 110.93 148.95 111.41 L 148.05 111.86 C 147.11 112.34 146.73 113.50 147.20 114.44 C 147.68 115.39 148.83 115.77 149.78 115.29 Z M 150.68 114.83 L 151.58 114.38 C 152.53 113.90 152.90 112.74 152.42 111.80 C 151.95 110.85 150.79 110.48 149.85 110.96 L 148.95 111.42 C 148.00 111.90 147.63 113.05 148.11 113.99 C 148.59 114.94 149.74 115.31 150.68 114.83 Z M 151.59 114.37 L 152.48 113.92 C 153.42 113.44 153.79 112.28 153.31 111.34 C 152.83 110.40 151.68 110.03 150.73 110.51 L 149.85 110.96 C 148.90 111.44 148.53 112.59 149.01 113.54 C 149.49 114.48 150.64 114.85 151.59 114.37 Z M 152.46 113.92 L 153.32 113.50 C 154.26 113.02 154.64 111.87 154.17 110.93 C 153.70 109.98 152.55 109.60 151.60 110.07 L 150.75 110.50 C 149.80 110.97 149.42 112.12 149.89 113.07 C 150.37 114.01 151.52 114.40 152.46 113.92 Z M 153.30 113.50 L 154.13 113.10 C 155.08 112.63 155.47 111.49 155.01 110.54 C 154.54 109.59 153.40 109.20 152.45 109.66 L 151.62 110.07 C 150.67 110.53 150.28 111.68 150.74 112.62 C 151.21 113.57 152.35 113.97 153.30 113.50 Z M 154.13 113.09 L 155.08 112.62 C 156.03 112.16 156.41 111.02 155.95 110.07 C 155.49 109.13 154.34 108.74 153.40 109.20 L 152.45 109.67 C 151.50 110.13 151.11 111.28 151.58 112.22 C 152.04 113.17 153.18 113.56 154.13 113.09 Z M 155.09 112.62 L 155.96 112.18 C 156.90 111.71 157.28 110.56 156.81 109.62 C 156.34 108.68 155.20 108.30 154.26 108.77 L 153.38 109.21 C 152.44 109.68 152.06 110.83 152.54 111.77 C 153.01 112.71 154.15 113.09 155.09 112.62 Z M 155.97 112.17 L 156.85 111.73 C 157.79 111.25 158.16 110.11 157.69 109.17 C 157.21 108.23 156.07 107.86 155.13 108.33 L 154.25 108.78 C 153.31 109.25 152.94 110.40 153.41 111.33 C 153.89 112.27 155.03 112.65 155.97 112.17 Z M 156.85 111.73 L 157.78 111.26 C 158.71 110.78 159.09 109.64 158.62 108.71 C 158.15 107.77 157.00 107.39 156.07 107.86 L 155.14 108.33 C 154.20 108.80 153.82 109.95 154.30 110.88 C 154.77 111.82 155.91 112.20 156.85 111.73 Z M 157.77 111.26 L 158.71 110.79 C 159.65 110.32 160.04 109.18 159.57 108.24 C 159.10 107.31 157.96 106.92 157.02 107.39 L 156.08 107.86 C 155.14 108.33 154.76 109.47 155.22 110.40 C 155.69 111.34 156.83 111.73 157.77 111.26 Z M 158.70 110.80 L 159.66 110.33 C 160.60 109.87 160.99 108.74 160.54 107.80 C 160.08 106.85 158.95 106.46 158.00 106.92 L 157.04 107.38 C 156.10 107.84 155.71 108.97 156.16 109.92 C 156.62 110.86 157.75 111.25 158.70 110.80 Z M 159.63 110.34 L 160.55 109.92 C 161.50 109.47 161.91 108.35 161.47 107.40 C 161.02 106.45 159.90 106.04 158.95 106.48 L 158.03 106.91 C 157.08 107.35 156.67 108.47 157.11 109.42 C 157.55 110.37 158.68 110.78 159.63 110.34 Z M 160.51 109.93 L 161.37 109.56 C 162.33 109.13 162.76 108.02 162.34 107.06 C 161.92 106.10 160.80 105.66 159.84 106.09 L 158.99 106.46 C 158.03 106.88 157.59 108.00 158.01 108.96 C 158.43 109.92 159.55 110.35 160.51 109.93 Z M 161.30 109.59 L 162.22 109.22 C 163.20 108.84 163.68 107.74 163.29 106.76 C 162.91 105.79 161.80 105.31 160.83 105.69 L 159.91 106.05 C 158.93 106.44 158.46 107.54 158.84 108.52 C 159.22 109.49 160.33 109.97 161.30 109.59 Z M 162.07 109.28 L 163.00 109.01 C 164.01 108.71 164.58 107.65 164.28 106.64 C 163.99 105.63 162.92 105.06 161.92 105.35 L 160.99 105.63 C 159.98 105.93 159.40 106.99 159.70 108.00 C 160.00 109.01 161.06 109.58 162.07 109.28 Z M 162.74 109.08 L 163.74 108.92 C 164.79 108.76 165.50 107.79 165.34 106.74 C 165.18 105.69 164.21 104.98 163.16 105.14 L 162.17 105.29 C 161.12 105.45 160.40 106.43 160.56 107.47 C 160.72 108.52 161.70 109.24 162.74 109.08 Z M 163.48 108.97 L 164.53 108.95 C 165.59 108.93 166.45 108.05 166.43 106.98 C 166.41 105.91 165.53 105.06 164.46 105.08 L 163.42 105.09 C 162.35 105.11 161.50 105.99 161.51 107.06 C 161.53 108.13 162.41 108.98 163.48 108.97 Z M 164.24 108.97 L 165.27 109.10 C 166.35 109.24 167.34 108.48 167.48 107.40 C 167.62 106.33 166.86 105.34 165.78 105.20 L 164.75 105.06 C 163.67 104.92 162.68 105.68 162.54 106.76 C 162.40 107.84 163.16 108.82 164.24 108.97 Z M 164.82 109.02 L 165.67 109.34 C 166.70 109.73 167.85 109.21 168.25 108.18 C 168.64 107.14 168.12 105.99 167.08 105.60 L 166.23 105.28 C 165.20 104.89 164.04 105.41 163.65 106.44 C 163.26 107.47 163.78 108.63 164.82 109.02 Z M 164.88 108.85 L 165.53 109.56 C 166.29 110.38 167.58 110.43 168.40 109.67 C 169.23 108.91 169.28 107.63 168.52 106.80 L 167.87 106.09 C 167.11 105.27 165.82 105.22 165.00 105.98 C 164.17 106.74 164.12 108.02 164.88 108.85 Z M 165.09 108.88 L 165.43 109.82 C 165.82 110.89 167.00 111.44 168.07 111.05 C 169.14 110.66 169.70 109.48 169.31 108.41 L 168.97 107.47 C 168.58 106.40 167.39 105.85 166.32 106.24 C 165.25 106.63 164.70 107.81 165.09 108.88 Z M 165.35 109.65 L 165.60 110.60 C 165.90 111.71 167.04 112.37 168.16 112.07 C 169.27 111.77 169.93 110.63 169.64 109.52 L 169.38 108.57 C 169.08 107.46 167.94 106.80 166.83 107.10 C 165.71 107.39 165.05 108.54 165.35 109.65 Z M 165.59 110.59 L 165.84 111.55 C 166.13 112.68 167.28 113.35 168.40 113.05 C 169.52 112.76 170.20 111.61 169.90 110.49 L 169.65 109.53 C 169.36 108.40 168.21 107.73 167.09 108.02 C 165.97 108.32 165.29 109.46 165.59 110.59 Z M 165.82 111.52 L 166.06 112.51 C 166.33 113.64 167.47 114.34 168.60 114.06 C 169.73 113.79 170.43 112.65 170.16 111.52 L 169.92 110.53 C 169.65 109.40 168.51 108.70 167.38 108.97 C 166.25 109.24 165.55 110.38 165.82 111.52 Z M 166.04 112.45 L 166.24 113.38 C 166.48 114.52 167.60 115.25 168.74 115.01 C 169.88 114.76 170.61 113.64 170.37 112.50 L 170.18 111.58 C 169.94 110.43 168.81 109.70 167.67 109.95 C 166.53 110.19 165.80 111.31 166.04 112.45 Z M 166.22 113.32 L 166.40 114.31 C 166.61 115.46 167.71 116.22 168.86 116.01 C 170.01 115.80 170.78 114.70 170.57 113.55 L 170.39 112.56 C 170.18 111.41 169.08 110.65 167.93 110.86 C 166.78 111.07 166.01 112.17 166.22 113.32 Z M 166.39 114.25 L 166.55 115.30 C 166.73 116.45 167.81 117.25 168.96 117.07 C 170.12 116.90 170.91 115.82 170.74 114.66 L 170.58 113.61 C 170.40 112.46 169.32 111.66 168.17 111.84 C 167.01 112.01 166.22 113.09 166.39 114.25 Z M 166.54 115.24 L 166.67 116.25 C 166.81 117.41 167.87 118.23 169.04 118.08 C 170.20 117.94 171.02 116.88 170.87 115.72 L 170.75 114.71 C 170.60 113.55 169.54 112.73 168.38 112.88 C 167.22 113.02 166.40 114.08 166.54 115.24 Z M 166.66 116.20 L 166.77 117.22 C 166.89 118.38 167.93 119.23 169.10 119.11 C 170.26 118.99 171.11 117.95 170.98 116.78 L 170.88 115.76 C 170.76 114.60 169.72 113.75 168.55 113.88 C 167.39 114.00 166.54 115.04 166.66 116.20 Z M 166.77 117.17 L 166.84 118.15 C 166.94 119.32 167.96 120.19 169.13 120.09 C 170.29 120.00 171.16 118.98 171.07 117.81 L 170.99 116.83 C 170.89 115.66 169.87 114.79 168.70 114.89 C 167.54 114.98 166.67 116.01 166.77 117.17 Z M 166.85 118.09 L 166.90 119.15 C 166.96 120.32 167.96 121.21 169.12 121.15 C 170.29 121.09 171.18 120.10 171.12 118.93 L 171.07 117.87 C 171.00 116.71 170.01 115.81 168.85 115.87 C 167.68 115.93 166.79 116.93 166.85 118.09 Z M 166.92 119.09 L 166.94 120.08 C 166.96 121.24 167.92 122.16 169.08 122.14 C 170.24 122.11 171.16 121.15 171.13 119.99 L 171.11 119.00 C 171.08 117.84 170.12 116.92 168.97 116.95 C 167.81 116.97 166.89 117.93 166.92 119.09 Z M 166.95 120.05 L 166.96 120.97 C 166.96 122.12 167.89 123.05 169.04 123.04 C 170.19 123.04 171.12 122.11 171.12 120.96 L 171.11 120.03 C 171.11 118.88 170.18 117.96 169.03 117.96 C 167.88 117.96 166.95 118.90 166.95 120.05 Z M 166.98 120.95 L 166.98 121.96 C 166.97 123.10 167.89 124.02 169.02 124.03 C 170.15 124.03 171.08 123.12 171.08 121.99 L 171.09 120.98 C 171.09 119.84 170.18 118.92 169.05 118.91 C 167.91 118.91 166.99 119.82 166.98 120.95 Z M 167.02 121.90 L 166.98 122.90 C 166.94 124.01 167.81 124.94 168.92 124.98 C 170.04 125.02 170.97 124.15 171.01 123.04 L 171.05 122.05 C 171.08 120.93 170.21 120.00 169.10 119.96 C 167.99 119.92 167.06 120.79 167.02 121.90 Z M 167.04 122.79 L 166.95 123.74 C 166.85 124.82 167.65 125.78 168.73 125.88 C 169.81 125.98 170.77 125.18 170.87 124.10 L 170.96 123.15 C 171.05 122.06 170.26 121.11 169.18 121.01 C 168.09 120.91 167.14 121.70 167.04 122.79 Z M 167.03 123.62 L 166.88 124.58 C 166.71 125.62 167.42 126.60 168.46 126.76 C 169.50 126.93 170.47 126.22 170.64 125.18 L 170.79 124.22 C 170.95 123.18 170.24 122.20 169.21 122.04 C 168.17 121.87 167.19 122.58 167.03 123.62 Z M 166.96 124.49 L 166.74 125.52 C 166.52 126.51 167.15 127.49 168.14 127.70 C 169.13 127.92 170.11 127.29 170.32 126.30 L 170.55 125.27 C 170.76 124.28 170.13 123.31 169.15 123.09 C 168.16 122.88 167.18 123.50 166.96 124.49 Z M 166.82 125.47 L 166.58 126.39 C 166.33 127.33 166.90 128.30 167.85 128.55 C 168.80 128.79 169.76 128.22 170.01 127.27 L 170.25 126.36 C 170.49 125.41 169.92 124.44 168.97 124.20 C 168.03 123.95 167.06 124.52 166.82 125.47 Z M 166.64 126.37 L 166.37 127.34 C 166.11 128.25 166.65 129.20 167.56 129.46 C 168.47 129.71 169.42 129.18 169.67 128.27 L 169.95 127.29 C 170.20 126.38 169.67 125.43 168.76 125.18 C 167.84 124.92 166.90 125.46 166.64 126.37 Z M 166.43 127.34 L 166.14 128.34 C 165.88 129.23 166.39 130.15 167.27 130.40 C 168.15 130.66 169.07 130.15 169.33 129.27 L 169.62 128.27 C 169.87 127.39 169.37 126.46 168.49 126.21 C 167.60 125.95 166.68 126.46 166.43 127.34 Z M 166.17 128.35 L 166.13 128.47 C 165.88 129.33 166.37 130.24 167.24 130.49 C 168.10 130.74 169.01 130.25 169.26 129.38 L 169.30 129.26 C 169.55 128.40 169.05 127.49 168.19 127.24 C 167.32 126.99 166.42 127.48 166.17 128.35 Z"
      fill="black"
      fill-rule="nonzero" /><path d="M 146.53 120.53 L 146.36 121.44 C 146.18 122.45 146.85 123.43 147.86 123.62 C 148.88 123.81 149.86 123.14 150.05 122.12 L 150.21 121.22 C 150.40 120.20 149.73 119.22 148.72 119.03 C 147.70 118.85 146.72 119.52 146.53 120.53 Z M 146.42 121.25 L 146.13 122.21 C 145.84 123.20 146.40 124.23 147.39 124.53 C 148.38 124.82 149.41 124.26 149.71 123.27 L 149.99 122.31 C 150.28 121.32 149.72 120.29 148.74 119.99 C 147.75 119.70 146.71 120.26 146.42 121.25 Z M 146.24 121.96 L 145.81 122.88 C 145.37 123.81 145.77 124.92 146.70 125.35 C 147.63 125.78 148.73 125.38 149.17 124.45 L 149.60 123.53 C 150.04 122.60 149.63 121.49 148.71 121.06 C 147.78 120.63 146.67 121.03 146.24 121.96 Z M 145.90 122.71 L 145.40 123.55 C 144.87 124.42 145.16 125.56 146.03 126.09 C 146.91 126.61 148.05 126.33 148.58 125.45 L 149.08 124.62 C 149.60 123.74 149.32 122.61 148.44 122.08 C 147.56 121.55 146.43 121.84 145.90 122.71 Z M 145.45 123.46 L 144.87 124.32 C 144.30 125.17 144.53 126.32 145.37 126.89 C 146.22 127.46 147.37 127.24 147.94 126.39 L 148.52 125.54 C 149.09 124.69 148.87 123.54 148.02 122.96 C 147.18 122.39 146.03 122.62 145.45 123.46 Z M 144.90 124.28 L 144.30 125.13 C 143.70 125.96 143.89 127.11 144.72 127.71 C 145.55 128.30 146.71 128.11 147.31 127.28 L 147.91 126.43 C 148.51 125.60 148.32 124.45 147.49 123.85 C 146.66 123.26 145.50 123.45 144.90 124.28 Z M 144.31 125.11 L 143.75 125.87 C 143.15 126.70 143.33 127.85 144.15 128.46 C 144.98 129.06 146.13 128.88 146.74 128.06 L 147.29 127.30 C 147.90 126.47 147.72 125.31 146.89 124.71 C 146.07 124.11 144.91 124.29 144.31 125.11 Z M 143.76 125.86 L 143.19 126.62 C 142.59 127.45 142.76 128.61 143.58 129.21 C 144.41 129.82 145.56 129.65 146.17 128.83 L 146.73 128.07 C 147.34 127.24 147.17 126.08 146.35 125.47 C 145.52 124.87 144.36 125.04 143.76 125.86 Z M 143.19 126.62 L 142.59 127.43 C 141.98 128.25 142.16 129.41 142.98 130.02 C 143.80 130.63 144.96 130.46 145.57 129.64 L 146.17 128.83 C 146.78 128.01 146.61 126.85 145.79 126.24 C 144.96 125.63 143.80 125.80 143.19 126.62 Z M 142.59 127.43 L 141.94 128.32 C 141.33 129.14 141.50 130.30 142.32 130.91 C 143.15 131.52 144.31 131.35 144.92 130.52 L 145.57 129.64 C 146.18 128.81 146.01 127.65 145.19 127.04 C 144.36 126.43 143.20 126.61 142.59 127.43 Z M 141.93 128.32 L 141.35 129.11 C 140.74 129.94 140.91 131.10 141.74 131.71 C 142.56 132.32 143.73 132.14 144.34 131.32 L 144.92 130.52 C 145.53 129.70 145.36 128.53 144.53 127.92 C 143.71 127.31 142.54 127.49 141.93 128.32 Z M 141.34 129.11 L 140.72 129.95 C 140.11 130.78 140.29 131.94 141.12 132.56 C 141.95 133.17 143.12 132.99 143.73 132.16 L 144.34 131.32 C 144.95 130.49 144.78 129.32 143.95 128.71 C 143.12 128.10 141.95 128.28 141.34 129.11 Z M 140.72 129.94 L 140.10 130.78 C 139.49 131.62 139.66 132.79 140.50 133.40 C 141.33 134.01 142.50 133.83 143.12 133.00 L 143.73 132.16 C 144.35 131.33 144.17 130.16 143.33 129.54 C 142.50 128.93 141.33 129.11 140.72 129.94 Z M 140.09 130.78 L 139.50 131.58 C 138.89 132.42 139.07 133.59 139.90 134.21 C 140.74 134.82 141.92 134.64 142.53 133.81 L 143.12 133.01 C 143.74 132.17 143.56 130.99 142.72 130.38 C 141.88 129.76 140.71 129.94 140.09 130.78 Z M 139.50 131.58 L 138.83 132.48 C 138.21 133.32 138.39 134.51 139.23 135.12 C 140.07 135.74 141.25 135.56 141.87 134.72 L 142.54 133.81 C 143.16 132.98 142.98 131.79 142.14 131.17 C 141.30 130.56 140.11 130.74 139.50 131.58 Z M 138.80 132.49 L 138.04 133.55 C 137.42 134.41 137.62 135.60 138.47 136.21 C 139.33 136.83 140.52 136.63 141.14 135.78 L 141.90 134.72 C 142.51 133.86 142.31 132.67 141.46 132.05 C 140.60 131.44 139.41 131.64 138.80 132.49 Z M 137.83 133.85 L 137.65 134.26 C 137.20 135.22 137.62 136.37 138.59 136.82 C 139.56 137.27 140.70 136.85 141.15 135.88 L 141.34 135.48 C 141.79 134.51 141.37 133.36 140.40 132.91 C 139.43 132.46 138.28 132.89 137.83 133.85 Z M 140.48 136.69 L 140.99 136.35 C 141.88 135.75 142.12 134.54 141.53 133.65 C 140.93 132.75 139.72 132.51 138.82 133.11 L 138.32 133.45 C 137.42 134.05 137.18 135.26 137.78 136.15 C 138.38 137.04 139.59 137.28 140.48 136.69 Z M 141.15 136.23 L 142.08 135.47 C 142.91 134.78 143.03 133.55 142.34 132.72 C 141.65 131.89 140.42 131.77 139.59 132.46 L 138.66 133.22 C 137.83 133.91 137.71 135.14 138.40 135.97 C 139.09 136.81 140.32 136.92 141.15 136.23 Z M 142.06 135.49 L 142.98 134.75 C 143.83 134.08 143.96 132.84 143.29 132.00 C 142.61 131.15 141.38 131.01 140.53 131.69 L 139.61 132.43 C 138.76 133.11 138.62 134.34 139.30 135.19 C 139.98 136.03 141.21 136.17 142.06 135.49 Z M 142.92 134.81 L 143.73 134.22 C 144.60 133.58 144.79 132.35 144.15 131.47 C 143.51 130.59 142.28 130.40 141.40 131.04 L 140.60 131.63 C 139.72 132.28 139.53 133.51 140.17 134.38 C 140.81 135.26 142.04 135.45 142.92 134.81 Z M 143.68 134.26 L 144.44 133.74 C 145.34 133.12 145.57 131.89 144.96 131.00 C 144.34 130.10 143.12 129.87 142.22 130.48 L 141.45 131.00 C 140.55 131.62 140.32 132.85 140.94 133.75 C 141.55 134.64 142.78 134.88 143.68 134.26 Z M 144.42 133.76 L 145.22 133.23 C 146.14 132.63 146.39 131.40 145.79 130.49 C 145.19 129.58 143.96 129.33 143.05 129.93 L 142.24 130.46 C 141.33 131.06 141.08 132.28 141.68 133.20 C 142.28 134.11 143.51 134.36 144.42 133.76 Z M 145.19 133.25 L 146.05 132.72 C 146.98 132.14 147.26 130.91 146.68 129.99 C 146.10 129.06 144.88 128.78 143.95 129.36 L 143.09 129.90 C 142.16 130.48 141.88 131.70 142.46 132.63 C 143.04 133.55 144.26 133.83 145.19 133.25 Z M 146.00 132.75 L 146.87 132.24 C 147.81 131.68 148.13 130.47 147.57 129.52 C 147.01 128.58 145.80 128.27 144.86 128.82 L 143.99 129.33 C 143.05 129.89 142.74 131.10 143.29 132.04 C 143.85 132.99 145.06 133.30 146.00 132.75 Z M 146.84 132.26 L 147.72 131.76 C 148.67 131.22 149.01 130.01 148.47 129.06 C 147.94 128.11 146.73 127.77 145.77 128.30 L 144.89 128.80 C 143.94 129.34 143.60 130.55 144.13 131.50 C 144.67 132.46 145.88 132.79 146.84 132.26 Z M 147.69 131.78 L 148.58 131.29 C 149.54 130.77 149.90 129.56 149.37 128.60 C 148.85 127.64 147.64 127.28 146.68 127.81 L 145.79 128.29 C 144.83 128.81 144.48 130.02 145.00 130.98 C 145.53 131.95 146.73 132.30 147.69 131.78 Z M 148.55 131.31 L 149.39 130.87 C 150.36 130.36 150.73 129.16 150.22 128.19 C 149.71 127.21 148.51 126.84 147.54 127.35 L 146.70 127.79 C 145.73 128.30 145.36 129.50 145.87 130.48 C 146.38 131.45 147.58 131.82 148.55 131.31 Z M 149.33 130.91 L 150.21 130.48 C 151.20 130.01 151.61 128.81 151.14 127.82 C 150.66 126.83 149.47 126.42 148.48 126.89 L 147.60 127.32 C 146.61 127.80 146.19 128.99 146.67 129.98 C 147.15 130.97 148.34 131.38 149.33 130.91 Z M 150.12 130.53 L 151.13 130.10 C 152.15 129.67 152.62 128.50 152.19 127.49 C 151.77 126.47 150.60 125.99 149.58 126.42 L 148.57 126.85 C 147.55 127.28 147.08 128.45 147.50 129.46 C 147.93 130.48 149.10 130.96 150.12 130.53 Z M 151.03 130.15 L 152.13 129.76 C 153.17 129.38 153.71 128.23 153.34 127.19 C 152.96 126.15 151.81 125.61 150.77 125.98 L 149.68 126.37 C 148.64 126.75 148.09 127.90 148.47 128.94 C 148.84 129.98 149.99 130.52 151.03 130.15 Z M 151.95 129.82 L 152.96 129.57 C 154.04 129.29 154.69 128.19 154.41 127.11 C 154.13 126.03 153.03 125.38 151.95 125.65 L 150.95 125.91 C 149.87 126.19 149.21 127.29 149.49 128.37 C 149.77 129.45 150.87 130.10 151.95 129.82 Z M 152.38 129.64 L 153.10 129.67 C 154.22 129.71 155.16 128.83 155.20 127.71 C 155.24 126.59 154.37 125.64 153.24 125.60 L 152.53 125.58 C 151.41 125.54 150.47 126.42 150.43 127.54 C 150.39 128.66 151.26 129.60 152.38 129.64 Z M 151.15 127.87 L 151.22 128.56 C 151.35 129.68 152.36 130.48 153.48 130.35 C 154.60 130.23 155.40 129.22 155.28 128.10 L 155.20 127.40 C 155.07 126.29 154.06 125.48 152.94 125.61 C 151.82 125.74 151.02 126.75 151.15 127.87 Z M 151.49 127.30 L 150.88 128.35 C 150.31 129.32 150.65 130.57 151.62 131.14 C 152.60 131.70 153.85 131.37 154.41 130.40 L 155.02 129.35 C 155.58 128.38 155.25 127.13 154.28 126.56 C 153.30 126.00 152.05 126.33 151.49 127.30 Z M 151.03 128.13 L 150.42 128.92 C 149.73 129.81 149.90 131.09 150.79 131.78 C 151.69 132.47 152.97 132.30 153.66 131.41 L 154.26 130.62 C 154.95 129.72 154.78 128.44 153.89 127.75 C 153.00 127.07 151.71 127.23 151.03 128.13 Z M 150.48 128.85 L 149.81 129.64 C 149.09 130.50 149.20 131.79 150.06 132.51 C 150.92 133.24 152.21 133.13 152.94 132.26 L 153.60 131.47 C 154.33 130.61 154.22 129.32 153.35 128.60 C 152.49 127.87 151.20 127.98 150.48 128.85 Z M 149.83 129.62 L 149.17 130.38 C 148.44 131.24 148.54 132.53 149.39 133.26 C 150.25 134.00 151.54 133.90 152.27 133.04 L 152.92 132.28 C 153.66 131.42 153.56 130.13 152.70 129.40 C 151.85 128.67 150.56 128.77 149.83 129.62 Z M 149.15 130.42 L 148.47 131.24 C 147.76 132.10 147.88 133.38 148.74 134.10 C 149.61 134.82 150.89 134.70 151.61 133.83 L 152.29 133.01 C 153.00 132.15 152.88 130.86 152.02 130.15 C 151.15 129.43 149.87 129.55 149.15 130.42 Z M 148.47 131.26 L 147.87 132.00 C 147.17 132.87 147.31 134.14 148.17 134.85 C 149.04 135.55 150.32 135.41 151.02 134.54 L 151.61 133.80 C 152.31 132.94 152.18 131.66 151.31 130.96 C 150.44 130.26 149.17 130.40 148.47 131.26 Z M 147.88 132.00 L 147.28 132.74 C 146.58 133.60 146.71 134.87 147.57 135.57 C 148.43 136.27 149.70 136.14 150.40 135.28 L 151.00 134.54 C 151.71 133.68 151.58 132.42 150.71 131.71 C 149.85 131.01 148.59 131.14 147.88 132.00 Z M 147.29 132.74 L 146.66 133.51 C 145.96 134.36 146.09 135.63 146.95 136.33 C 147.81 137.03 149.07 136.90 149.77 136.05 L 150.40 135.28 C 151.10 134.42 150.97 133.16 150.11 132.46 C 149.26 131.75 147.99 131.88 147.29 132.74 Z M 146.65 133.53 L 146.03 134.32 C 145.34 135.19 145.49 136.44 146.36 137.13 C 147.22 137.82 148.48 137.67 149.17 136.80 L 149.79 136.02 C 150.47 135.15 150.33 133.89 149.46 133.20 C 148.59 132.52 147.33 132.67 146.65 133.53 Z M 146.00 134.35 L 145.42 135.11 C 144.76 135.99 144.93 137.25 145.81 137.92 C 146.69 138.59 147.94 138.41 148.61 137.53 L 149.19 136.77 C 149.86 135.89 149.69 134.63 148.81 133.97 C 147.93 133.30 146.67 133.47 146.00 134.35 Z M 145.41 135.13 L 144.80 135.96 C 144.14 136.84 144.32 138.10 145.21 138.76 C 146.09 139.42 147.35 139.23 148.01 138.35 L 148.62 137.52 C 149.28 136.63 149.10 135.38 148.21 134.72 C 147.33 134.06 146.07 134.24 145.41 135.13 Z M 144.80 135.96 L 144.20 136.76 C 143.54 137.64 143.73 138.90 144.62 139.56 C 145.50 140.22 146.76 140.03 147.41 139.14 L 148.01 138.34 C 148.67 137.46 148.48 136.20 147.60 135.55 C 146.71 134.89 145.46 135.07 144.80 135.96 Z M 144.20 136.76 L 143.62 137.54 C 142.96 138.42 143.15 139.68 144.04 140.34 C 144.92 141.00 146.18 140.81 146.84 139.92 L 147.42 139.14 C 148.07 138.26 147.89 137.00 147.00 136.34 C 146.11 135.68 144.86 135.87 144.20 136.76 Z M 143.62 137.54 L 143.01 138.37 C 142.36 139.26 142.55 140.51 143.44 141.17 C 144.33 141.82 145.58 141.63 146.24 140.74 L 146.84 139.92 C 147.50 139.03 147.31 137.77 146.42 137.12 C 145.52 136.46 144.27 136.65 143.62 137.54 Z M 143.00 138.38 L 142.41 139.20 C 141.76 140.09 141.96 141.35 142.86 141.99 C 143.76 142.64 145.01 142.44 145.66 141.54 L 146.25 140.73 C 146.89 139.83 146.69 138.58 145.80 137.93 C 144.90 137.28 143.65 137.48 143.00 138.38 Z M 142.40 139.21 L 141.88 139.94 C 141.24 140.84 141.45 142.09 142.35 142.73 C 143.26 143.37 144.51 143.16 145.15 142.26 L 145.67 141.53 C 146.31 140.63 146.10 139.38 145.19 138.74 C 144.29 138.10 143.04 138.31 142.40 139.21 Z M 141.88 139.94 L 141.33 140.72 C 140.69 141.63 140.90 142.88 141.81 143.52 C 142.71 144.16 143.96 143.94 144.60 143.04 L 145.15 142.25 C 145.79 141.35 145.58 140.10 144.67 139.46 C 143.77 138.82 142.52 139.03 141.88 139.94 Z M 141.32 140.72 L 140.72 141.58 C 140.08 142.48 140.29 143.74 141.20 144.38 C 142.11 145.02 143.36 144.80 144.00 143.90 L 144.60 143.04 C 145.24 142.13 145.03 140.88 144.12 140.24 C 143.22 139.60 141.96 139.81 141.32 140.72 Z M 140.72 141.57 L 140.06 142.50 C 139.42 143.40 139.63 144.66 140.54 145.30 C 141.44 145.94 142.70 145.73 143.34 144.82 L 144.00 143.90 C 144.64 143.00 144.43 141.74 143.52 141.10 C 142.62 140.45 141.36 140.67 140.72 141.57 Z M 140.06 142.49 L 139.49 143.29 C 138.84 144.20 139.05 145.46 139.95 146.10 C 140.86 146.75 142.12 146.54 142.76 145.64 L 143.34 144.83 C 143.99 143.93 143.78 142.67 142.87 142.02 C 141.97 141.38 140.71 141.58 140.06 142.49 Z M 139.49 143.29 L 138.88 144.13 C 138.23 145.03 138.44 146.29 139.34 146.94 C 140.25 147.59 141.51 147.39 142.16 146.48 L 142.76 145.64 C 143.41 144.74 143.21 143.48 142.31 142.83 C 141.40 142.18 140.14 142.38 139.49 143.29 Z M 138.89 144.12 L 138.27 144.96 C 137.62 145.86 137.82 147.13 138.72 147.78 C 139.62 148.44 140.89 148.24 141.54 147.34 L 142.16 146.49 C 142.81 145.59 142.61 144.33 141.71 143.67 C 140.81 143.01 139.54 143.21 138.89 144.12 Z M 138.28 144.95 L 137.68 145.77 C 137.02 146.67 137.21 147.94 138.11 148.60 C 139.01 149.26 140.28 149.07 140.94 148.16 L 141.54 147.35 C 142.20 146.44 142.01 145.18 141.11 144.52 C 140.20 143.86 138.94 144.05 138.28 144.95 Z M 137.68 145.76 L 137.11 146.52 C 136.45 147.42 136.63 148.69 137.53 149.36 C 138.43 150.03 139.70 149.84 140.37 148.94 L 140.94 148.18 C 141.60 147.28 141.42 146.01 140.52 145.34 C 139.62 144.67 138.35 144.86 137.68 145.76 Z M 137.12 146.50 L 136.28 147.62 C 135.60 148.51 135.78 149.78 136.67 150.46 C 137.57 151.14 138.84 150.96 139.52 150.07 L 140.36 148.96 C 141.04 148.06 140.86 146.79 139.97 146.11 C 139.07 145.44 137.80 145.61 137.12 146.50 Z M 136.28 147.62 L 135.62 148.49 C 134.94 149.39 135.12 150.66 136.02 151.34 C 136.91 152.01 138.19 151.83 138.86 150.94 L 139.52 150.07 C 140.20 149.17 140.02 147.90 139.12 147.22 C 138.23 146.55 136.95 146.72 136.28 147.62 Z M 135.50 148.66 L 135.26 149.05 C 134.68 150.02 134.99 151.27 135.96 151.85 C 136.92 152.43 138.17 152.12 138.75 151.15 L 138.98 150.76 C 139.56 149.80 139.25 148.55 138.29 147.97 C 137.33 147.39 136.08 147.70 135.50 148.66 Z M 138.10 151.82 L 138.63 151.48 C 139.58 150.88 139.86 149.62 139.26 148.67 C 138.65 147.73 137.40 147.45 136.45 148.05 L 135.92 148.39 C 134.97 148.99 134.69 150.25 135.29 151.19 C 135.89 152.14 137.15 152.42 138.10 151.82 Z M 138.81 151.35 L 139.81 150.54 C 140.69 149.84 140.83 148.57 140.13 147.69 C 139.43 146.82 138.15 146.68 137.28 147.38 L 136.27 148.18 C 135.40 148.88 135.26 150.16 135.96 151.03 C 136.66 151.91 137.93 152.05 138.81 151.35 Z M 139.78 150.57 L 140.56 149.97 C 141.44 149.29 141.61 148.02 140.93 147.13 C 140.24 146.24 138.97 146.07 138.08 146.76 L 137.31 147.35 C 136.42 148.04 136.25 149.31 136.94 150.20 C 137.62 151.09 138.89 151.25 139.78 150.57 Z M 140.53 150.00 L 141.34 149.40 C 142.24 148.73 142.43 147.46 141.76 146.56 C 141.10 145.65 139.82 145.46 138.92 146.13 L 138.11 146.73 C 137.21 147.40 137.02 148.67 137.68 149.57 C 138.35 150.47 139.62 150.67 140.53 150.00 Z M 141.32 149.42 L 142.14 148.83 C 143.05 148.17 143.26 146.90 142.61 145.99 C 141.95 145.07 140.68 144.86 139.77 145.52 L 138.94 146.11 C 138.03 146.77 137.82 148.04 138.48 148.95 C 139.13 149.86 140.40 150.07 141.32 149.42 Z M 142.12 148.84 L 142.94 148.27 C 143.86 147.62 144.09 146.35 143.44 145.43 C 142.80 144.51 141.53 144.28 140.60 144.93 L 139.78 145.51 C 138.86 146.15 138.64 147.42 139.29 148.34 C 139.93 149.26 141.20 149.49 142.12 148.84 Z M 142.93 148.28 L 143.76 147.71 C 144.69 147.07 144.92 145.80 144.29 144.87 C 143.65 143.95 142.38 143.71 141.45 144.35 L 140.62 144.92 C 139.69 145.55 139.46 146.82 140.09 147.75 C 140.73 148.68 142.00 148.92 142.93 148.28 Z M 143.74 147.72 L 144.55 147.18 C 145.48 146.55 145.73 145.29 145.11 144.35 C 144.48 143.42 143.21 143.17 142.28 143.79 L 141.47 144.33 C 140.53 144.96 140.28 146.23 140.91 147.16 C 141.54 148.10 142.80 148.35 143.74 147.72 Z M 144.53 147.19 L 145.32 146.67 C 146.27 146.06 146.53 144.79 145.91 143.85 C 145.30 142.91 144.03 142.64 143.09 143.26 L 142.30 143.78 C 141.35 144.40 141.09 145.66 141.71 146.60 C 142.32 147.55 143.59 147.81 144.53 147.19 Z M 145.31 146.68 L 146.16 146.14 C 147.11 145.53 147.38 144.27 146.78 143.32 C 146.17 142.37 144.91 142.10 143.96 142.70 L 143.11 143.25 C 142.16 143.86 141.88 145.12 142.49 146.07 C 143.10 147.01 144.36 147.29 145.31 146.68 Z M 146.15 146.15 L 147.03 145.59 C 147.98 144.99 148.27 143.73 147.67 142.78 C 147.07 141.83 145.81 141.54 144.86 142.14 L 143.97 142.70 C 143.02 143.30 142.73 144.56 143.33 145.51 C 143.93 146.46 145.19 146.75 146.15 146.15 Z M 147.02 145.60 L 147.86 145.08 C 148.82 144.48 149.11 143.22 148.51 142.27 C 147.92 141.31 146.66 141.02 145.71 141.61 L 144.86 142.13 C 143.91 142.73 143.62 143.99 144.21 144.94 C 144.80 145.90 146.06 146.19 147.02 145.60 Z M 147.85 145.08 L 148.72 144.55 C 149.68 143.96 149.99 142.71 149.40 141.75 C 148.81 140.78 147.56 140.48 146.60 141.07 L 145.72 141.60 C 144.76 142.19 144.46 143.45 145.04 144.41 C 145.63 145.37 146.88 145.67 147.85 145.08 Z M 148.70 144.56 L 149.58 144.04 C 150.54 143.46 150.86 142.21 150.28 141.24 C 149.71 140.28 148.46 139.96 147.49 140.54 L 146.62 141.06 C 145.65 141.63 145.33 142.88 145.91 143.85 C 146.48 144.82 147.74 145.14 148.70 144.56 Z M 149.55 144.06 L 150.45 143.54 C 151.43 142.98 151.77 141.73 151.21 140.75 C 150.65 139.78 149.40 139.44 148.42 140.00 L 147.52 140.52 C 146.54 141.08 146.20 142.33 146.76 143.30 C 147.32 144.28 148.57 144.62 149.55 144.06 Z M 150.42 143.56 L 151.34 143.06 C 152.33 142.51 152.69 141.27 152.14 140.28 C 151.60 139.29 150.36 138.93 149.37 139.48 L 148.46 139.98 C 147.47 140.52 147.11 141.76 147.65 142.75 C 148.19 143.74 149.43 144.10 150.42 143.56 Z M 151.32 143.07 L 152.17 142.61 C 153.17 142.08 153.54 140.83 153.00 139.84 C 152.47 138.84 151.23 138.47 150.23 139.01 L 149.38 139.46 C 148.39 140.00 148.01 141.24 148.55 142.24 C 149.09 143.23 150.33 143.60 151.32 143.07 Z M 152.19 142.61 L 153.05 142.14 C 154.05 141.59 154.41 140.35 153.87 139.35 C 153.32 138.36 152.07 137.99 151.08 138.54 L 150.22 139.01 C 149.22 139.55 148.86 140.80 149.40 141.79 C 149.94 142.79 151.19 143.15 152.19 142.61 Z M 153.01 142.18 L 154.00 141.67 C 155.02 141.14 155.42 139.89 154.89 138.88 C 154.37 137.86 153.12 137.46 152.10 137.99 L 151.12 138.50 C 150.10 139.02 149.70 140.27 150.23 141.29 C 150.75 142.30 152.00 142.70 153.01 142.18 Z M 153.59 141.85 L 154.44 141.62 C 155.55 141.32 156.21 140.18 155.92 139.06 C 155.62 137.94 154.47 137.28 153.35 137.58 L 152.51 137.81 C 151.40 138.10 150.73 139.25 151.03 140.37 C 151.33 141.48 152.48 142.15 153.59 141.85 Z M 153.01 141.52 L 153.73 141.85 C 154.78 142.34 156.04 141.88 156.53 140.82 C 157.01 139.76 156.55 138.51 155.50 138.02 L 154.78 137.69 C 153.72 137.20 152.47 137.66 151.98 138.72 C 151.49 139.77 151.95 141.03 153.01 141.52 Z M 152.81 141.04 L 153.36 141.94 C 153.97 142.93 155.27 143.25 156.27 142.63 C 157.27 142.02 157.58 140.72 156.97 139.72 L 156.41 138.83 C 155.80 137.83 154.50 137.52 153.51 138.13 C 152.51 138.74 152.20 140.04 152.81 141.04 Z M 153.21 141.65 L 153.60 142.58 C 154.05 143.66 155.30 144.17 156.37 143.72 C 157.45 143.26 157.96 142.02 157.51 140.94 L 157.12 140.01 C 156.66 138.93 155.42 138.42 154.34 138.88 C 153.26 139.33 152.76 140.57 153.21 141.65 Z M 153.58 142.52 L 153.94 143.46 C 154.35 144.55 155.58 145.10 156.67 144.68 C 157.76 144.26 158.31 143.03 157.89 141.94 L 157.53 141.01 C 157.11 139.91 155.89 139.37 154.80 139.79 C 153.70 140.20 153.16 141.43 153.58 142.52 Z M 153.94 143.46 L 154.31 144.43 C 154.73 145.52 155.95 146.07 157.04 145.65 C 158.14 145.23 158.68 144.00 158.26 142.91 L 157.89 141.94 C 157.47 140.85 156.25 140.30 155.15 140.72 C 154.06 141.14 153.52 142.37 153.94 143.46 Z M 154.33 144.47 L 154.72 145.42 C 155.16 146.50 156.40 147.02 157.48 146.58 C 158.56 146.14 159.07 144.90 158.63 143.82 L 158.24 142.87 C 157.80 141.79 156.56 141.27 155.48 141.72 C 154.41 142.16 153.89 143.39 154.33 144.47 Z M 154.76 145.48 L 155.17 146.40 C 155.64 147.46 156.88 147.93 157.94 147.46 C 159.00 146.99 159.48 145.75 159.00 144.69 L 158.59 143.77 C 158.12 142.71 156.88 142.23 155.82 142.71 C 154.76 143.18 154.29 144.42 154.76 145.48 Z M 155.21 146.45 L 155.63 147.33 C 156.13 148.37 157.38 148.80 158.42 148.30 C 159.46 147.80 159.89 146.55 159.39 145.52 L 158.96 144.64 C 158.46 143.60 157.22 143.16 156.18 143.67 C 155.14 144.17 154.71 145.41 155.21 146.45 Z M 155.70 147.38 L 156.18 148.29 C 156.71 149.29 157.95 149.68 158.95 149.15 C 159.96 148.61 160.34 147.37 159.81 146.37 L 159.32 145.46 C 158.79 144.46 157.55 144.08 156.55 144.61 C 155.55 145.14 155.17 146.38 155.70 147.38 Z M 156.29 148.37 L 156.81 149.22 C 157.39 150.16 158.62 150.46 159.56 149.88 C 160.50 149.31 160.79 148.08 160.22 147.14 L 159.70 146.29 C 159.12 145.35 157.89 145.06 156.95 145.63 C 156.01 146.21 155.72 147.43 156.29 148.37 Z M 156.97 149.34 L 157.55 150.12 C 158.20 150.97 159.41 151.14 160.26 150.50 C 161.11 149.86 161.28 148.65 160.64 147.80 L 160.06 147.02 C 159.42 146.17 158.20 146.00 157.35 146.64 C 156.50 147.28 156.33 148.49 156.97 149.34 Z M 157.76 150.22 L 158.45 150.95 C 159.15 151.69 160.32 151.73 161.05 151.03 C 161.79 150.33 161.83 149.16 161.13 148.42 L 160.44 147.69 C 159.74 146.95 158.57 146.92 157.83 147.62 C 157.09 148.32 157.06 149.49 157.76 150.22 Z M 158.61 150.97 L 159.35 151.64 C 160.05 152.29 161.15 152.24 161.80 151.53 C 162.45 150.82 162.40 149.72 161.69 149.08 L 160.96 148.41 C 160.25 147.76 159.15 147.81 158.51 148.51 C 157.86 149.22 157.91 150.32 158.61 150.97 Z M 159.41 151.61 L 159.58 151.76 C 160.27 152.37 161.33 152.31 161.94 151.62 C 162.55 150.92 162.49 149.87 161.80 149.25 L 161.63 149.10 C 160.94 148.49 159.88 148.56 159.27 149.25 C 158.65 149.94 158.72 151.00 159.41 151.61 Z"
      fill="black"
      fill-rule="nonzero" /><path d="M 145.72 149.42 L 145.37 150.34 C 145.02 151.23 145.46 152.24 146.35 152.58 C 147.24 152.93 148.24 152.49 148.59 151.60 L 148.95 150.67 C 149.29 149.78 148.85 148.78 147.96 148.43 C 147.07 148.09 146.07 148.53 145.72 149.42 Z M 145.27 150.40 L 144.96 151.35 C 144.64 152.29 145.15 153.31 146.09 153.62 C 147.04 153.94 148.05 153.43 148.37 152.48 L 148.68 151.54 C 149.00 150.60 148.49 149.58 147.55 149.26 C 146.60 148.95 145.58 149.46 145.27 150.40 Z M 144.85 151.50 L 144.62 152.47 C 144.39 153.47 145.02 154.47 146.02 154.70 C 147.02 154.93 148.02 154.31 148.26 153.30 L 148.48 152.33 C 148.71 151.33 148.08 150.33 147.08 150.10 C 146.08 149.87 145.08 150.49 144.85 151.50 Z M 144.55 152.67 L 144.45 153.58 C 144.33 154.62 145.07 155.57 146.12 155.69 C 147.16 155.81 148.10 155.06 148.22 154.01 L 148.33 153.10 C 148.45 152.06 147.70 151.12 146.65 151.00 C 145.61 150.88 144.67 151.63 144.55 152.67 Z M 144.42 153.74 L 144.39 154.72 C 144.36 155.78 145.19 156.66 146.24 156.69 C 147.30 156.73 148.18 155.90 148.22 154.84 L 148.25 153.86 C 148.28 152.80 147.45 151.92 146.40 151.88 C 145.34 151.85 144.46 152.68 144.42 153.74 Z M 144.38 154.82 L 144.40 155.90 C 144.42 156.96 145.29 157.81 146.36 157.79 C 147.42 157.77 148.27 156.89 148.25 155.83 L 148.23 154.75 C 148.21 153.68 147.33 152.84 146.27 152.86 C 145.20 152.88 144.36 153.75 144.38 154.82 Z M 144.39 155.94 L 144.43 156.96 C 144.47 158.03 145.38 158.86 146.45 158.82 C 147.52 158.78 148.35 157.87 148.30 156.80 L 148.26 155.78 C 148.21 154.71 147.31 153.88 146.24 153.93 C 145.17 153.97 144.34 154.88 144.39 155.94 Z M 144.42 156.99 L 144.47 158.02 C 144.53 159.09 145.45 159.92 146.53 159.86 C 147.60 159.80 148.43 158.88 148.37 157.81 L 148.31 156.78 C 148.26 155.70 147.34 154.88 146.26 154.93 C 145.18 154.99 144.36 155.91 144.42 156.99 Z M 144.46 158.04 L 144.53 159.06 C 144.59 160.14 145.53 160.96 146.61 160.89 C 147.69 160.83 148.52 159.89 148.45 158.81 L 148.38 157.79 C 148.31 156.70 147.38 155.88 146.30 155.95 C 145.21 156.02 144.39 156.95 144.46 158.04 Z M 144.51 159.08 L 144.58 160.04 C 144.66 161.13 145.61 161.95 146.70 161.87 C 147.79 161.79 148.61 160.84 148.53 159.75 L 148.46 158.79 C 148.38 157.70 147.43 156.88 146.34 156.96 C 145.25 157.04 144.43 157.99 144.51 159.08 Z M 144.57 160.06 L 144.67 161.15 C 144.76 162.25 145.72 163.06 146.81 162.97 C 147.91 162.87 148.72 161.91 148.63 160.82 L 148.54 159.73 C 148.45 158.64 147.48 157.82 146.39 157.92 C 145.29 158.01 144.48 158.97 144.57 160.06 Z M 144.66 161.17 L 144.75 162.16 C 144.85 163.26 145.83 164.06 146.93 163.96 C 148.03 163.86 148.83 162.88 148.73 161.79 L 148.64 160.80 C 148.53 159.70 147.56 158.89 146.46 158.99 C 145.36 159.10 144.56 160.07 144.66 161.17 Z M 144.74 162.16 L 144.83 163.07 C 144.93 164.18 145.91 164.99 147.02 164.88 C 148.12 164.78 148.93 163.80 148.83 162.70 L 148.74 161.78 C 148.63 160.68 147.66 159.87 146.55 159.97 C 145.45 160.08 144.64 161.06 144.74 162.16 Z M 144.82 163.06 L 144.90 164.03 C 145.00 165.13 145.97 165.96 147.08 165.86 C 148.19 165.77 149.01 164.79 148.92 163.68 L 148.84 162.71 C 148.74 161.60 147.76 160.78 146.65 160.88 C 145.55 160.97 144.72 161.95 144.82 163.06 Z M 144.89 164.01 L 144.97 165.01 C 145.06 166.12 146.03 166.96 147.15 166.87 C 148.26 166.78 149.10 165.80 149.01 164.69 L 148.93 163.69 C 148.84 162.58 147.86 161.75 146.75 161.83 C 145.63 161.92 144.80 162.90 144.89 164.01 Z M 144.96 165.01 L 145.04 166.02 C 145.14 167.14 146.12 167.97 147.24 167.88 C 148.36 167.79 149.19 166.81 149.10 165.69 L 149.02 164.68 C 148.92 163.56 147.94 162.73 146.82 162.82 C 145.70 162.91 144.87 163.89 144.96 165.01 Z M 145.04 166.03 L 145.12 166.95 C 145.22 168.08 146.21 168.91 147.33 168.81 C 148.45 168.71 149.28 167.72 149.19 166.60 L 149.11 165.68 C 149.01 164.55 148.02 163.72 146.89 163.82 C 145.77 163.92 144.94 164.91 145.04 166.03 Z M 145.11 166.95 L 145.19 167.93 C 145.29 169.06 146.28 169.89 147.41 169.80 C 148.53 169.70 149.37 168.71 149.28 167.58 L 149.20 166.60 C 149.10 165.47 148.11 164.64 146.98 164.73 C 145.85 164.83 145.01 165.82 145.11 166.95 Z M 145.18 167.91 L 145.26 168.99 C 145.34 170.12 146.33 170.98 147.46 170.89 C 148.60 170.81 149.45 169.82 149.37 168.69 L 149.29 167.61 C 149.21 166.47 148.22 165.62 147.08 165.70 C 145.95 165.78 145.10 166.77 145.18 167.91 Z M 145.25 168.96 L 145.31 169.94 C 145.37 171.08 146.35 171.96 147.49 171.89 C 148.63 171.82 149.50 170.84 149.44 169.70 L 149.38 168.72 C 149.31 167.58 148.33 166.71 147.19 166.77 C 146.05 166.84 145.18 167.82 145.25 168.96 Z M 145.29 169.92 L 145.34 170.94 C 145.40 172.09 146.37 172.97 147.52 172.92 C 148.66 172.86 149.55 171.89 149.49 170.74 L 149.45 169.73 C 149.39 168.58 148.42 167.69 147.27 167.75 C 146.13 167.80 145.24 168.78 145.29 169.92 Z M 145.33 170.92 L 145.37 171.94 C 145.42 173.10 146.38 173.99 147.54 173.95 C 148.69 173.91 149.59 172.94 149.54 171.79 L 149.50 170.76 C 149.46 169.61 148.49 168.71 147.34 168.76 C 146.19 168.80 145.29 169.77 145.33 170.92 Z M 145.36 171.93 L 145.39 172.91 C 145.42 174.07 146.39 174.98 147.55 174.94 C 148.70 174.91 149.61 173.94 149.58 172.79 L 149.55 171.80 C 149.52 170.65 148.55 169.74 147.40 169.77 C 146.24 169.80 145.33 170.77 145.36 171.93 Z M 145.38 172.88 L 145.40 174.00 C 145.42 175.17 146.37 176.09 147.53 176.08 C 148.70 176.06 149.62 175.10 149.61 173.94 L 149.59 172.82 C 149.57 171.65 148.62 170.73 147.45 170.74 C 146.29 170.76 145.36 171.72 145.38 172.88 Z M 145.39 173.94 L 145.37 174.94 C 145.35 176.10 146.28 177.06 147.45 177.08 C 148.61 177.10 149.57 176.18 149.59 175.01 L 149.61 174.01 C 149.63 172.85 148.71 171.88 147.54 171.86 C 146.38 171.84 145.41 172.77 145.39 173.94 Z M 145.37 174.81 L 145.30 175.70 C 145.21 176.86 146.09 177.88 147.25 177.97 C 148.42 178.06 149.44 177.19 149.53 176.02 L 149.60 175.14 C 149.69 173.97 148.81 172.95 147.65 172.86 C 146.48 172.77 145.46 173.64 145.37 174.81 Z M 145.34 175.41 L 145.10 176.49 C 144.85 177.64 145.58 178.77 146.73 179.02 C 147.87 179.27 149.00 178.54 149.25 177.40 L 149.49 176.31 C 149.74 175.17 149.01 174.04 147.87 173.79 C 146.72 173.54 145.59 174.26 145.34 175.41 Z M 145.50 175.65 L 144.97 176.33 C 144.25 177.26 144.42 178.59 145.35 179.31 C 146.28 180.03 147.61 179.86 148.33 178.93 L 148.86 178.25 C 149.58 177.32 149.41 175.98 148.48 175.26 C 147.55 174.55 146.21 174.72 145.50 175.65 Z M 146.47 175.51 L 145.67 175.58 C 144.50 175.68 143.63 176.71 143.73 177.88 C 143.83 179.05 144.86 179.92 146.03 179.82 L 146.83 179.75 C 148.00 179.65 148.87 178.62 148.77 177.45 C 148.67 176.28 147.64 175.41 146.47 175.51 Z M 146.60 175.71 L 145.62 175.34 C 144.52 174.92 143.29 175.48 142.87 176.58 C 142.46 177.68 143.02 178.91 144.12 179.32 L 145.10 179.69 C 146.20 180.11 147.43 179.55 147.84 178.45 C 148.26 177.35 147.70 176.12 146.60 175.71 Z M 146.02 175.54 L 145.13 174.96 C 144.14 174.32 142.82 174.60 142.18 175.59 C 141.54 176.58 141.82 177.89 142.81 178.53 L 143.71 179.11 C 144.70 179.75 146.01 179.47 146.65 178.48 C 147.29 177.50 147.01 176.18 146.02 175.54 Z M 145.35 175.13 L 144.60 174.49 C 143.71 173.73 142.37 173.83 141.60 174.72 C 140.84 175.61 140.95 176.96 141.84 177.72 L 142.59 178.36 C 143.48 179.12 144.82 179.02 145.58 178.13 C 146.35 177.24 146.24 175.90 145.35 175.13 Z M 144.73 174.62 L 144.02 173.89 C 143.20 173.06 141.86 173.05 141.02 173.87 C 140.18 174.69 140.17 176.03 140.99 176.86 L 141.71 177.59 C 142.53 178.43 143.87 178.44 144.70 177.62 C 145.54 176.80 145.55 175.46 144.73 174.62 Z M 144.09 173.99 L 143.42 173.23 C 142.65 172.35 141.32 172.26 140.45 173.03 C 139.57 173.80 139.48 175.13 140.25 176.01 L 140.92 176.77 C 141.69 177.64 143.02 177.73 143.90 176.96 C 144.77 176.20 144.86 174.86 144.09 173.99 Z M 143.45 173.30 L 142.82 172.53 C 142.10 171.63 140.79 171.50 139.90 172.22 C 139.00 172.94 138.86 174.26 139.59 175.15 L 140.22 175.93 C 140.94 176.82 142.25 176.96 143.15 176.23 C 144.04 175.51 144.18 174.20 143.45 173.30 Z M 142.84 172.60 L 142.23 171.80 C 141.55 170.90 140.26 170.72 139.36 171.41 C 138.46 172.10 138.28 173.38 138.97 174.28 L 139.57 175.08 C 140.26 175.98 141.55 176.16 142.45 175.47 C 143.35 174.79 143.52 173.50 142.84 172.60 Z M 142.23 171.87 L 141.63 171.04 C 140.99 170.15 139.73 169.94 138.83 170.59 C 137.93 171.24 137.73 172.50 138.38 173.40 L 138.97 174.22 C 139.62 175.12 140.88 175.32 141.78 174.67 C 142.68 174.02 142.88 172.77 142.23 171.87 Z M 141.61 171.13 L 141.03 170.28 C 140.43 169.40 139.22 169.17 138.34 169.77 C 137.45 170.37 137.22 171.58 137.83 172.46 L 138.40 173.31 C 139.01 174.20 140.21 174.43 141.10 173.82 C 141.98 173.22 142.21 172.01 141.61 171.13 Z M 141.01 170.40 L 140.49 169.56 C 139.95 168.69 138.81 168.41 137.94 168.95 C 137.07 169.49 136.79 170.63 137.33 171.50 L 137.85 172.35 C 138.39 173.22 139.53 173.49 140.40 172.95 C 141.28 172.41 141.55 171.27 141.01 170.40 Z M 140.48 169.71 L 140.02 168.83 C 139.57 167.96 138.50 167.63 137.63 168.08 C 136.76 168.54 136.43 169.61 136.88 170.48 L 137.34 171.35 C 137.80 172.22 138.87 172.56 139.73 172.10 C 140.60 171.65 140.94 170.58 140.48 169.71 Z M 140.01 168.99 L 139.62 168.06 C 139.25 167.20 138.25 166.80 137.39 167.16 C 136.53 167.53 136.13 168.53 136.49 169.39 L 136.89 170.32 C 137.26 171.18 138.25 171.58 139.12 171.21 C 139.98 170.85 140.38 169.85 140.01 168.99 Z M 139.58 168.16 L 139.24 167.25 C 138.93 166.41 138.00 165.98 137.16 166.29 C 136.32 166.60 135.88 167.53 136.19 168.37 L 136.53 169.29 C 136.84 170.13 137.77 170.56 138.62 170.25 C 139.46 169.94 139.89 169.01 139.58 168.16 Z M 139.21 167.28 L 139.16 167.13 C 138.87 166.31 137.96 165.88 137.14 166.17 C 136.31 166.47 135.88 167.37 136.18 168.19 L 136.23 168.34 C 136.52 169.16 137.42 169.59 138.25 169.30 C 139.07 169.01 139.50 168.10 139.21 167.28 Z"
      fill="black"
      fill-rule="nonzero" /><path d="M 137.60 155.98 L 136.97 156.73 C 136.33 157.50 136.44 158.64 137.21 159.28 C 137.97 159.92 139.12 159.82 139.76 159.05 L 140.38 158.31 C 141.02 157.54 140.92 156.39 140.15 155.75 C 139.38 155.11 138.24 155.21 137.60 155.98 Z M 136.91 156.71 L 136.29 157.48 C 135.64 158.29 135.77 159.46 136.57 160.11 C 137.37 160.76 138.55 160.64 139.20 159.83 L 139.82 159.07 C 140.47 158.26 140.35 157.09 139.54 156.44 C 138.74 155.79 137.56 155.91 136.91 156.71 Z M 136.21 157.49 L 135.59 158.31 C 134.95 159.15 135.11 160.36 135.95 161.01 C 136.80 161.65 138.01 161.49 138.65 160.64 L 139.27 159.83 C 139.92 158.98 139.76 157.77 138.91 157.13 C 138.07 156.48 136.86 156.65 136.21 157.49 Z M 135.53 158.34 L 134.98 159.12 C 134.35 160.00 134.56 161.22 135.44 161.85 C 136.32 162.47 137.54 162.27 138.17 161.38 L 138.72 160.61 C 139.34 159.73 139.14 158.51 138.25 157.88 C 137.37 157.25 136.15 157.46 135.53 158.34 Z M 134.95 159.15 L 134.40 159.95 C 133.80 160.85 134.03 162.07 134.93 162.67 C 135.82 163.28 137.04 163.05 137.65 162.15 L 138.19 161.35 C 138.80 160.45 138.57 159.24 137.67 158.63 C 136.77 158.02 135.56 158.26 134.95 159.15 Z M 134.40 159.97 L 133.83 160.82 C 133.23 161.71 133.47 162.93 134.37 163.53 C 135.27 164.13 136.49 163.89 137.09 162.99 L 137.65 162.14 C 138.25 161.24 138.01 160.03 137.11 159.43 C 136.21 158.83 135.00 159.07 134.40 159.97 Z M 133.84 160.81 L 133.24 161.70 C 132.64 162.59 132.87 163.81 133.77 164.41 C 134.66 165.01 135.88 164.78 136.48 163.88 L 137.08 162.99 C 137.68 162.10 137.45 160.89 136.55 160.28 C 135.66 159.68 134.44 159.92 133.84 160.81 Z M 133.26 161.68 L 132.67 162.53 C 132.06 163.42 132.28 164.63 133.16 165.25 C 134.05 165.86 135.26 165.64 135.87 164.75 L 136.46 163.90 C 137.08 163.01 136.85 161.80 135.97 161.19 C 135.08 160.58 133.87 160.80 133.26 161.68 Z M 132.68 162.52 L 132.08 163.38 C 131.47 164.25 131.68 165.46 132.55 166.08 C 133.43 166.70 134.64 166.49 135.26 165.61 L 135.86 164.76 C 136.48 163.89 136.27 162.67 135.39 162.06 C 134.51 161.44 133.30 161.65 132.68 162.52 Z M 132.10 163.37 L 131.51 164.19 C 130.89 165.06 131.10 166.26 131.97 166.88 C 132.84 167.50 134.04 167.30 134.66 166.43 L 135.25 165.62 C 135.87 164.75 135.66 163.54 134.79 162.92 C 133.92 162.30 132.72 162.50 132.10 163.37 Z M 131.52 164.19 L 130.99 164.94 C 130.37 165.80 130.56 167.00 131.43 167.63 C 132.30 168.25 133.50 168.05 134.12 167.18 L 134.66 166.43 C 135.28 165.57 135.08 164.36 134.21 163.74 C 133.35 163.12 132.14 163.32 131.52 164.19 Z M 131.00 164.94 L 130.34 165.86 C 129.73 166.72 129.92 167.91 130.78 168.53 C 131.64 169.14 132.84 168.95 133.46 168.09 L 134.11 167.17 C 134.73 166.31 134.53 165.12 133.67 164.50 C 132.81 163.89 131.61 164.08 131.00 164.94 Z M 130.35 165.87 L 129.80 166.65 C 129.19 167.50 129.38 168.69 130.24 169.30 C 131.09 169.91 132.28 169.71 132.89 168.86 L 133.44 168.08 C 134.05 167.22 133.86 166.04 133.00 165.43 C 132.15 164.82 130.96 165.01 130.35 165.87 Z M 129.81 166.66 L 129.28 167.40 C 128.68 168.24 128.87 169.42 129.71 170.02 C 130.56 170.63 131.74 170.43 132.34 169.59 L 132.87 168.85 C 133.48 168.00 133.28 166.83 132.44 166.22 C 131.59 165.62 130.42 165.81 129.81 166.66 Z M 129.30 167.40 L 128.72 168.19 C 128.12 169.03 128.30 170.20 129.14 170.80 C 129.98 171.41 131.14 171.22 131.75 170.38 L 132.32 169.59 C 132.93 168.75 132.74 167.58 131.91 166.98 C 131.07 166.37 129.90 166.56 129.30 167.40 Z M 128.75 168.18 L 128.14 168.99 C 127.53 169.81 127.70 170.97 128.52 171.58 C 129.34 172.20 130.51 172.03 131.12 171.21 L 131.72 170.40 C 132.33 169.58 132.16 168.41 131.34 167.80 C 130.52 167.19 129.36 167.36 128.75 168.18 Z M 128.18 168.96 L 127.59 169.72 C 126.96 170.52 127.11 171.68 127.91 172.30 C 128.71 172.93 129.86 172.79 130.49 171.99 L 131.08 171.23 C 131.71 170.43 131.57 169.27 130.76 168.65 C 129.96 168.02 128.81 168.16 128.18 168.96 Z M 127.63 169.70 L 127.02 170.44 C 126.39 171.22 126.50 172.37 127.28 173.01 C 128.07 173.65 129.22 173.53 129.85 172.75 L 130.46 172.01 C 131.09 171.22 130.97 170.07 130.19 169.44 C 129.41 168.80 128.26 168.92 127.63 169.70 Z M 127.05 170.43 L 126.38 171.24 C 125.74 172.00 125.84 173.14 126.61 173.79 C 127.37 174.43 128.52 174.32 129.16 173.56 L 129.83 172.75 C 130.47 171.99 130.36 170.85 129.60 170.21 C 128.83 169.57 127.69 169.67 127.05 170.43 Z M 126.40 171.24 L 125.72 172.04 C 125.08 172.80 125.18 173.93 125.93 174.57 C 126.69 175.20 127.82 175.11 128.46 174.35 L 129.14 173.55 C 129.77 172.80 129.68 171.67 128.92 171.03 C 128.17 170.39 127.04 170.48 126.40 171.24 Z M 125.76 172.02 L 125.08 172.80 C 124.43 173.54 124.50 174.66 125.24 175.31 C 125.97 175.95 127.10 175.88 127.74 175.14 L 128.42 174.37 C 129.07 173.63 129.00 172.51 128.26 171.86 C 127.53 171.21 126.40 171.29 125.76 172.02 Z M 125.15 172.75 L 124.43 173.48 C 123.76 174.18 123.78 175.29 124.47 175.97 C 125.17 176.65 126.29 176.63 126.96 175.93 L 127.67 175.20 C 128.35 174.50 128.33 173.38 127.63 172.71 C 126.94 172.03 125.82 172.05 125.15 172.75 Z M 124.56 173.39 L 123.84 174.01 C 123.11 174.64 123.03 175.74 123.66 176.47 C 124.29 177.20 125.39 177.28 126.12 176.65 L 126.84 176.02 C 127.57 175.39 127.65 174.29 127.02 173.56 C 126.39 172.84 125.29 172.76 124.56 173.39 Z M 124.08 173.87 L 123.17 174.43 C 122.36 174.92 122.11 175.98 122.60 176.79 C 123.10 177.59 124.16 177.85 124.96 177.35 L 125.88 176.79 C 126.68 176.29 126.94 175.24 126.44 174.43 C 125.94 173.62 124.89 173.37 124.08 173.87 Z M 123.44 174.34 L 122.54 174.70 C 121.68 175.05 121.27 176.02 121.62 176.88 C 121.96 177.74 122.94 178.15 123.80 177.80 L 124.69 177.44 C 125.55 177.09 125.96 176.12 125.62 175.26 C 125.27 174.40 124.29 173.99 123.44 174.34 Z M 122.67 174.69 L 122.02 174.90 C 121.15 175.17 120.67 176.09 120.95 176.95 C 121.22 177.82 122.14 178.29 123.00 178.02 L 123.66 177.81 C 124.52 177.54 125.00 176.62 124.73 175.76 C 124.46 174.90 123.54 174.42 122.67 174.69 Z"
      fill="black"
      fill-rule="nonzero" /><path d="M 151.66 157.10 L 152.18 157.88 C 152.73 158.68 153.82 158.89 154.62 158.35 C 155.42 157.80 155.63 156.71 155.09 155.91 L 154.56 155.13 C 154.02 154.33 152.93 154.12 152.13 154.66 C 151.32 155.20 151.11 156.30 151.66 157.10 Z M 152.18 158.09 L 152.80 158.85 C 153.46 159.66 154.65 159.78 155.45 159.12 C 156.26 158.46 156.38 157.27 155.72 156.47 L 155.10 155.70 C 154.44 154.89 153.25 154.77 152.44 155.43 C 151.64 156.09 151.52 157.28 152.18 158.09 Z M 152.91 159.14 L 153.69 159.84 C 154.51 160.59 155.77 160.53 156.51 159.71 C 157.26 158.89 157.20 157.62 156.38 156.88 L 155.61 156.18 C 154.79 155.43 153.52 155.49 152.78 156.31 C 152.04 157.13 152.10 158.40 152.91 159.14 Z M 153.86 160.04 L 154.64 160.59 C 155.56 161.24 156.84 161.01 157.49 160.09 C 158.14 159.16 157.92 157.88 156.99 157.23 L 156.21 156.68 C 155.29 156.03 154.01 156.25 153.35 157.18 C 152.70 158.11 152.93 159.39 153.86 160.04 Z M 154.74 160.66 L 155.61 161.19 C 156.58 161.78 157.84 161.48 158.43 160.51 C 159.02 159.55 158.72 158.28 157.75 157.69 L 156.89 157.16 C 155.92 156.57 154.66 156.87 154.07 157.84 C 153.47 158.80 153.78 160.07 154.74 160.66 Z M 155.66 161.22 L 156.56 161.74 C 157.54 162.30 158.79 161.97 159.36 160.99 C 159.92 160.01 159.59 158.75 158.61 158.19 L 157.71 157.67 C 156.73 157.10 155.48 157.43 154.91 158.41 C 154.34 159.39 154.68 160.65 155.66 161.22 Z M 156.55 161.73 L 157.40 162.22 C 158.37 162.79 159.63 162.46 160.20 161.49 C 160.77 160.51 160.44 159.26 159.46 158.69 L 158.61 158.20 C 157.64 157.63 156.39 157.95 155.82 158.93 C 155.25 159.90 155.58 161.16 156.55 161.73 Z M 157.38 162.19 L 158.20 162.69 C 159.16 163.26 160.40 162.96 160.98 162.00 C 161.56 161.04 161.25 159.79 160.29 159.21 L 159.48 158.72 C 158.52 158.14 157.27 158.45 156.70 159.41 C 156.12 160.37 156.42 161.61 157.38 162.19 Z M 158.19 162.66 L 159.03 163.18 C 159.98 163.76 161.22 163.46 161.80 162.52 C 162.38 161.57 162.08 160.33 161.14 159.75 L 160.30 159.24 C 159.35 158.65 158.11 158.95 157.53 159.90 C 156.95 160.84 157.25 162.08 158.19 162.66 Z M 159.04 163.16 L 159.95 163.72 C 160.89 164.29 162.11 164.00 162.69 163.06 C 163.26 162.13 162.97 160.90 162.03 160.32 L 161.13 159.77 C 160.19 159.19 158.96 159.48 158.39 160.42 C 157.81 161.36 158.10 162.58 159.04 163.16 Z M 159.97 163.70 L 160.83 164.22 C 161.76 164.79 162.97 164.49 163.53 163.56 C 164.09 162.63 163.80 161.42 162.87 160.86 L 162.01 160.34 C 161.08 159.78 159.87 160.07 159.31 161.00 C 158.75 161.93 159.04 163.14 159.97 163.70 Z M 160.86 164.20 L 161.73 164.73 C 162.65 165.27 163.84 164.97 164.39 164.06 C 164.93 163.14 164.64 161.96 163.72 161.41 L 162.84 160.88 C 161.93 160.34 160.74 160.63 160.19 161.55 C 159.64 162.47 159.94 163.65 160.86 164.20 Z M 161.77 164.70 L 162.66 165.23 C 163.56 165.76 164.73 165.46 165.26 164.55 C 165.79 163.65 165.49 162.49 164.58 161.96 L 163.69 161.43 C 162.79 160.90 161.62 161.20 161.09 162.10 C 160.56 163.01 160.86 164.17 161.77 164.70 Z M 162.69 165.21 L 163.57 165.71 C 164.46 166.22 165.60 165.92 166.11 165.02 C 166.62 164.13 166.32 163.00 165.42 162.48 L 164.55 161.98 C 163.66 161.47 162.52 161.77 162.01 162.66 C 161.50 163.56 161.80 164.69 162.69 165.21 Z M 163.60 165.70 L 164.46 166.18 C 165.35 166.67 166.46 166.35 166.96 165.47 C 167.45 164.58 167.13 163.47 166.25 162.97 L 165.39 162.49 C 164.50 162.00 163.39 162.32 162.89 163.20 C 162.40 164.09 162.72 165.20 163.60 165.70 Z M 164.48 166.22 L 165.47 166.74 C 166.37 167.22 167.50 166.88 167.98 165.97 C 168.46 165.06 168.12 163.94 167.21 163.45 L 166.23 162.93 C 165.32 162.45 164.19 162.80 163.71 163.70 C 163.23 164.61 163.58 165.74 164.48 166.22 Z M 165.47 166.83 L 166.35 167.27 C 167.30 167.75 168.47 167.36 168.94 166.40 C 169.42 165.45 169.04 164.29 168.08 163.81 L 167.21 163.37 C 166.25 162.89 165.09 163.27 164.61 164.23 C 164.13 165.18 164.52 166.35 165.47 166.83 Z M 166.34 167.35 L 167.16 167.74 C 168.16 168.22 169.36 167.80 169.84 166.80 C 170.32 165.81 169.90 164.60 168.91 164.12 L 168.09 163.73 C 167.09 163.25 165.89 163.67 165.41 164.66 C 164.93 165.66 165.34 166.86 166.34 167.35 Z M 167.15 167.79 L 167.38 167.90 C 168.41 168.39 169.63 167.95 170.12 166.93 C 170.61 165.90 170.18 164.68 169.15 164.19 L 168.92 164.08 C 167.89 163.59 166.67 164.02 166.18 165.05 C 165.69 166.07 166.12 167.30 167.15 167.79 Z"
      fill="black"
      fill-rule="nonzero" /></svg>