<svg xmlns="http://www.w3.org/2000/svg" width="300" height="300" viewBox="0 0 300 300">
<path d="M 132.97 118.08 L 133.36 116.87 C 133.65 115.96 133.14 114.98 132.23 114.69 C 131.32 114.40 130.34 114.91 130.05 115.82 L 129.67 117.03 C 129.38 117.95 129.88 118.92 130.80 119.21 C 131.71 119.50 132.69 119.00 132.97 118.08 Z M 133.30 117.07 L 133.69 116.23 C 134.09 115.35 133.70 114.31 132.81 113.90 C 131.93 113.50 130.89 113.89 130.49 114.78 L 130.11 115.62 C 129.70 116.50 130.09 117.55 130.98 117.95 C 131.86 118.35 132.90 117.96 133.30 117.07 Z M 132.31 117.27 L 132.77 117.21 C 133.75 117.09 134.44 116.20 134.31 115.22 C 134.19 114.25 133.30 113.56 132.33 113.68 L 131.87 113.74 C 130.89 113.86 130.20 114.75 130.32 115.73 C 130.45 116.70 131.34 117.39 132.31 117.27 Z M 130.86 116.08 L 131.24 117.09 C 131.59 118.02 132.63 118.49 133.56 118.14 C 134.49 117.80 134.96 116.76 134.61 115.83 L 134.23 114.81 C 133.89 113.88 132.85 113.41 131.92 113.76 C 130.99 114.11 130.51 115.15 130.86 116.08 Z M 131.11 116.48 L 131.13 117.51 C 131.14 118.51 131.96 119.31 132.97 119.30 C 133.97 119.29 134.77 118.46 134.76 117.46 L 134.74 116.43 C 134.73 115.43 133.91 114.63 132.90 114.64 C 131.90 114.66 131.10 115.48 131.11 116.48 Z M 131.18 117.02 L 130.93 117.97 C 130.67 118.95 131.25 119.95 132.22 120.20 C 133.19 120.46 134.19 119.88 134.45 118.91 L 134.70 117.95 C 134.96 116.98 134.38 115.98 133.41 115.72 C 132.44 115.46 131.44 116.04 131.18 117.02 Z M 131.02 117.69 L 130.65 118.52 C 130.23 119.44 130.64 120.52 131.56 120.94 C 132.48 121.35 133.57 120.94 133.98 120.02 L 134.36 119.19 C 134.77 118.27 134.36 117.19 133.44 116.77 C 132.52 116.36 131.44 116.77 131.02 117.69 Z M 130.71 118.38 L 130.31 119.09 C 129.82 119.98 130.14 121.10 131.03 121.59 C 131.92 122.08 133.03 121.76 133.52 120.87 L 133.92 120.16 C 134.41 119.27 134.09 118.15 133.20 117.66 C 132.32 117.17 131.20 117.49 130.71 118.38 Z M 130.35 119.02 L 129.83 119.87 C 129.30 120.74 129.57 121.87 130.43 122.40 C 131.30 122.93 132.43 122.66 132.96 121.80 L 133.49 120.95 C 134.02 120.08 133.75 118.95 132.88 118.42 C 132.02 117.88 130.88 118.15 130.35 119.02 Z M 129.85 119.83 L 129.17 120.89 C 128.61 121.74 128.86 122.89 129.71 123.44 C 130.57 123.99 131.71 123.75 132.26 122.89 L 132.95 121.84 C 133.50 120.98 133.25 119.84 132.40 119.29 C 131.54 118.73 130.40 118.98 129.85 119.83 Z M 129.17 120.87 L 128.63 121.70 C 128.07 122.55 128.30 123.70 129.16 124.26 C 130.01 124.82 131.15 124.58 131.72 123.73 L 132.26 122.91 C 132.82 122.05 132.58 120.91 131.73 120.35 C 130.88 119.78 129.73 120.02 129.17 120.87 Z M 128.63 121.69 L 128.08 122.52 C 127.51 123.38 127.74 124.53 128.60 125.09 C 129.45 125.66 130.60 125.42 131.17 124.57 L 131.72 123.74 C 132.28 122.88 132.05 121.73 131.19 121.17 C 130.34 120.60 129.19 120.84 128.63 121.69 Z M 128.07 122.52 L 127.49 123.39 C 126.93 124.24 127.16 125.40 128.02 125.97 C 128.87 126.53 130.02 126.30 130.59 125.44 L 131.17 124.57 C 131.74 123.72 131.50 122.56 130.65 122.00 C 129.79 121.43 128.64 121.66 128.07 122.52 Z M 127.49 123.39 L 126.91 124.27 C 126.34 125.12 126.57 126.28 127.43 126.85 C 128.29 127.42 129.44 127.18 130.01 126.33 L 130.59 125.45 C 131.16 124.59 130.93 123.43 130.07 122.87 C 129.22 122.30 128.06 122.53 127.49 123.39 Z M 126.90 124.27 L 126.33 125.12 C 125.76 125.98 126.00 127.14 126.86 127.71 C 127.72 128.28 128.88 128.05 129.45 127.19 L 130.01 126.33 C 130.58 125.47 130.35 124.31 129.49 123.74 C 128.63 123.17 127.47 123.41 126.90 124.27 Z M 126.33 125.12 L 125.80 125.93 C 125.23 126.79 125.46 127.95 126.33 128.52 C 127.19 129.09 128.35 128.85 128.92 127.99 L 129.45 127.19 C 130.02 126.32 129.78 125.16 128.92 124.59 C 128.06 124.02 126.90 124.26 126.33 125.12 Z M 125.79 125.93 L 125.13 126.94 C 124.56 127.81 124.81 128.97 125.67 129.54 C 126.54 130.10 127.70 129.86 128.27 128.99 L 128.93 127.99 C 129.49 127.12 129.25 125.96 128.39 125.39 C 127.52 124.82 126.36 125.07 125.79 125.93 Z M 125.12 126.95 L 124.53 127.86 C 123.97 128.73 124.22 129.89 125.09 130.46 C 125.96 131.02 127.12 130.77 127.68 129.90 L 128.27 128.99 C 128.83 128.12 128.58 126.96 127.72 126.39 C 126.85 125.83 125.69 126.08 125.12 126.95 Z M 124.53 127.88 L 124.03 128.65 C 123.48 129.52 123.74 130.68 124.61 131.24 C 125.48 131.79 126.64 131.53 127.20 130.66 L 127.69 129.89 C 128.25 129.01 127.99 127.86 127.11 127.30 C 126.24 126.74 125.08 127.00 124.53 127.88 Z M 124.03 128.66 L 123.60 129.34 C 123.05 130.21 123.32 131.37 124.19 131.92 C 125.07 132.47 126.23 132.21 126.78 131.33 L 127.20 130.65 C 127.75 129.77 127.49 128.62 126.61 128.07 C 125.74 127.52 124.58 127.78 124.03 128.66 Z M 123.58 129.39 L 122.97 130.43 C 122.45 131.32 122.75 132.46 123.64 132.98 C 124.53 133.50 125.67 133.21 126.19 132.32 L 126.80 131.28 C 127.32 130.39 127.02 129.24 126.13 128.72 C 125.24 128.20 124.10 128.50 123.58 129.39 Z M 122.77 131.02 L 122.62 131.79 C 122.42 132.79 123.07 133.76 124.07 133.95 C 125.07 134.15 126.04 133.50 126.24 132.50 L 126.39 131.73 C 126.59 130.73 125.94 129.76 124.94 129.56 C 123.94 129.37 122.97 130.02 122.77 131.02 Z M 123.73 133.82 L 124.29 134.05 C 125.22 134.44 126.28 134.00 126.67 133.07 C 127.05 132.14 126.61 131.08 125.68 130.69 L 125.13 130.46 C 124.20 130.08 123.13 130.52 122.75 131.45 C 122.36 132.37 122.81 133.44 123.73 133.82 Z M 125.21 134.15 L 126.21 134.02 C 127.19 133.89 127.89 133.00 127.76 132.02 C 127.64 131.04 126.74 130.35 125.76 130.47 L 124.76 130.60 C 123.78 130.72 123.09 131.62 123.21 132.60 C 123.34 133.58 124.23 134.27 125.21 134.15 Z M 126.54 133.91 L 127.71 133.53 C 128.64 133.22 129.14 132.23 128.83 131.31 C 128.53 130.39 127.54 129.89 126.62 130.19 L 125.44 130.58 C 124.52 130.88 124.02 131.87 124.32 132.79 C 124.62 133.72 125.62 134.22 126.54 133.91 Z M 127.92 133.43 L 128.81 133.00 C 129.68 132.59 130.05 131.55 129.63 130.68 C 129.22 129.81 128.18 129.44 127.31 129.86 L 126.41 130.29 C 125.55 130.70 125.18 131.74 125.59 132.61 C 126.01 133.48 127.05 133.85 127.92 133.43 Z M 128.93 132.94 L 129.80 132.44 C 130.64 131.97 130.93 130.90 130.45 130.06 C 129.97 129.23 128.90 128.94 128.07 129.42 L 127.19 129.92 C 126.36 130.40 126.07 131.46 126.55 132.30 C 127.03 133.13 128.09 133.42 128.93 132.94 Z M 129.86 132.41 L 130.71 131.88 C 131.53 131.37 131.78 130.29 131.27 129.47 C 130.76 128.65 129.68 128.41 128.86 128.92 L 128.01 129.45 C 127.19 129.96 126.94 131.04 127.45 131.86 C 127.97 132.67 129.04 132.92 129.86 132.41 Z M 130.72 131.88 L 131.58 131.33 C 132.40 130.82 132.64 129.74 132.13 128.92 C 131.61 128.10 130.53 127.86 129.71 128.38 L 128.85 128.92 C 128.04 129.44 127.79 130.52 128.31 131.33 C 128.82 132.15 129.90 132.39 130.72 131.88 Z M 131.56 131.35 L 132.43 130.82 C 133.26 130.32 133.52 129.24 133.02 128.42 C 132.52 127.59 131.44 127.32 130.61 127.82 L 129.74 128.35 C 128.91 128.86 128.65 129.93 129.15 130.76 C 129.65 131.59 130.73 131.85 131.56 131.35 Z M 132.39 130.86 L 133.25 130.37 C 134.09 129.89 134.39 128.82 133.92 127.98 C 133.44 127.13 132.37 126.83 131.52 127.31 L 130.66 127.79 C 129.81 128.27 129.51 129.34 129.99 130.19 C 130.47 131.03 131.54 131.33 132.39 130.86 Z M 133.18 130.42 L 134.08 129.96 C 134.96 129.52 135.31 128.46 134.87 127.59 C 134.43 126.72 133.36 126.37 132.49 126.80 L 131.59 127.26 C 130.72 127.70 130.37 128.76 130.81 129.63 C 131.25 130.51 132.31 130.86 133.18 130.42 Z M 133.93 130.05 L 135.04 129.63 C 135.97 129.28 136.43 128.24 136.08 127.32 C 135.73 126.40 134.69 125.93 133.77 126.28 L 132.65 126.71 C 131.73 127.06 131.27 128.10 131.62 129.02 C 131.97 129.94 133.00 130.41 133.93 130.05 Z M 134.28 129.77 L 135.04 129.82 C 136.04 129.89 136.91 129.13 136.98 128.13 C 137.04 127.12 136.28 126.26 135.28 126.19 L 134.53 126.14 C 133.53 126.07 132.66 126.83 132.59 127.83 C 132.52 128.84 133.28 129.71 134.28 129.77 Z M 133.35 128.40 L 133.48 129.02 C 133.70 130.02 134.69 130.66 135.69 130.44 C 136.69 130.22 137.32 129.24 137.10 128.24 L 136.97 127.61 C 136.75 126.61 135.76 125.98 134.76 126.20 C 133.76 126.41 133.13 127.40 133.35 128.40 Z M 133.48 128.16 L 133.23 129.14 C 132.97 130.15 133.57 131.17 134.57 131.43 C 135.58 131.69 136.60 131.08 136.86 130.08 L 137.11 129.10 C 137.37 128.10 136.76 127.07 135.76 126.82 C 134.76 126.56 133.74 127.16 133.48 128.16 Z M 133.29 128.89 L 132.83 129.99 C 132.43 130.95 132.89 132.06 133.86 132.46 C 134.83 132.86 135.94 132.40 136.34 131.44 L 136.79 130.34 C 137.19 129.37 136.73 128.26 135.77 127.86 C 134.80 127.46 133.69 127.92 133.29 128.89 Z M 132.88 129.85 L 132.40 130.80 C 131.93 131.74 132.30 132.89 133.25 133.37 C 134.19 133.84 135.34 133.46 135.81 132.52 L 136.29 131.57 C 136.77 130.63 136.39 129.48 135.45 129.00 C 134.51 128.53 133.36 128.91 132.88 129.85 Z M 132.45 130.70 L 131.95 131.55 C 131.43 132.47 131.74 133.64 132.66 134.17 C 133.58 134.70 134.75 134.39 135.28 133.47 L 135.77 132.62 C 136.30 131.70 135.98 130.53 135.07 130.00 C 134.15 129.47 132.98 129.78 132.45 130.70 Z M 131.98 131.50 L 131.47 132.33 C 130.91 133.23 131.19 134.42 132.09 134.98 C 132.99 135.54 134.18 135.26 134.74 134.35 L 135.25 133.52 C 135.81 132.62 135.53 131.43 134.63 130.88 C 133.72 130.32 132.54 130.60 131.98 131.50 Z M 131.47 132.32 L 130.96 133.13 C 130.40 134.04 130.67 135.23 131.58 135.79 C 132.48 136.35 133.67 136.08 134.24 135.17 L 134.74 134.36 C 135.30 133.46 135.03 132.27 134.12 131.70 C 133.22 131.14 132.03 131.42 131.47 132.32 Z M 130.95 133.14 L 130.44 133.98 C 129.88 134.89 130.16 136.08 131.07 136.64 C 131.98 137.20 133.17 136.91 133.73 136.01 L 134.24 135.17 C 134.80 134.26 134.52 133.07 133.61 132.51 C 132.70 131.95 131.51 132.23 130.95 133.14 Z M 130.43 133.98 L 129.89 134.85 C 129.33 135.76 129.62 136.96 130.53 137.52 C 131.44 138.08 132.64 137.79 133.20 136.88 L 133.73 136.00 C 134.29 135.09 134.01 133.90 133.10 133.34 C 132.18 132.78 130.99 133.07 130.43 133.98 Z M 129.89 134.85 L 129.36 135.72 C 128.80 136.63 129.08 137.83 130.00 138.39 C 130.91 138.95 132.11 138.66 132.67 137.75 L 133.20 136.88 C 133.76 135.97 133.48 134.77 132.56 134.21 C 131.65 133.65 130.45 133.93 129.89 134.85 Z M 129.36 135.71 L 128.85 136.54 C 128.28 137.46 128.57 138.65 129.48 139.22 C 130.40 139.78 131.60 139.50 132.16 138.58 L 132.67 137.75 C 133.23 136.84 132.95 135.64 132.03 135.08 C 131.12 134.51 129.92 134.80 129.36 135.71 Z M 128.85 136.54 L 128.32 137.38 C 127.76 138.30 128.04 139.50 128.96 140.07 C 129.87 140.63 131.07 140.35 131.64 139.43 L 132.16 138.59 C 132.73 137.67 132.44 136.47 131.53 135.90 C 130.61 135.34 129.41 135.62 128.85 136.54 Z M 128.32 137.38 L 127.78 138.25 C 127.21 139.17 127.49 140.37 128.41 140.94 C 129.32 141.51 130.53 141.22 131.10 140.31 L 131.64 139.44 C 132.21 138.52 131.92 137.32 131.01 136.75 C 130.09 136.18 128.89 136.46 128.32 137.38 Z M 127.78 138.24 L 127.24 139.11 C 126.67 140.02 126.95 141.23 127.87 141.80 C 128.78 142.37 129.99 142.09 130.56 141.18 L 131.10 140.31 C 131.67 139.40 131.39 138.19 130.47 137.62 C 129.56 137.05 128.35 137.33 127.78 138.24 Z M 127.24 139.10 L 126.71 139.95 C 126.13 140.87 126.41 142.08 127.33 142.65 C 128.24 143.23 129.45 142.95 130.02 142.03 L 130.56 141.18 C 131.13 140.27 130.86 139.06 129.94 138.48 C 129.02 137.91 127.82 138.19 127.24 139.10 Z M 126.71 139.95 L 126.17 140.80 C 125.59 141.72 125.87 142.93 126.78 143.51 C 127.70 144.08 128.91 143.81 129.49 142.89 L 130.03 142.04 C 130.60 141.12 130.33 139.91 129.41 139.33 C 128.50 138.76 127.28 139.03 126.71 139.95 Z M 126.17 140.80 L 125.63 141.64 C 125.05 142.56 125.32 143.77 126.24 144.35 C 127.16 144.93 128.37 144.66 128.95 143.74 L 129.49 142.90 C 130.07 141.98 129.80 140.77 128.88 140.19 C 127.96 139.61 126.75 139.88 126.17 140.80 Z M 125.63 141.64 L 125.09 142.49 C 124.50 143.41 124.77 144.62 125.69 145.21 C 126.61 145.79 127.83 145.52 128.41 144.60 L 128.95 143.75 C 129.54 142.83 129.27 141.62 128.35 141.03 C 127.43 140.45 126.22 140.72 125.63 141.64 Z M 125.09 142.48 L 124.54 143.34 C 123.95 144.26 124.22 145.48 125.13 146.07 C 126.05 146.66 127.27 146.39 127.86 145.47 L 128.41 144.61 C 129.00 143.69 128.73 142.47 127.81 141.89 C 126.90 141.30 125.68 141.57 125.09 142.48 Z M 124.54 143.34 L 124.00 144.17 C 123.41 145.09 123.67 146.31 124.59 146.90 C 125.50 147.50 126.73 147.23 127.32 146.32 L 127.86 145.48 C 128.45 144.56 128.19 143.34 127.27 142.75 C 126.35 142.15 125.13 142.42 124.54 143.34 Z M 124.00 144.16 L 123.47 144.97 C 122.87 145.89 123.13 147.12 124.04 147.72 C 124.96 148.32 126.19 148.06 126.79 147.14 L 127.32 146.33 C 127.92 145.41 127.66 144.18 126.74 143.58 C 125.83 142.99 124.60 143.24 124.00 144.16 Z M 123.47 144.96 L 122.92 145.80 C 122.31 146.72 122.56 147.95 123.48 148.55 C 124.39 149.16 125.62 148.91 126.23 147.99 L 126.78 147.15 C 127.39 146.24 127.14 145.01 126.22 144.40 C 125.31 143.80 124.07 144.05 123.47 144.96 Z M 122.92 145.79 L 122.35 146.63 C 121.74 147.55 121.99 148.78 122.90 149.39 C 123.82 150.00 125.05 149.76 125.66 148.84 L 126.23 148.00 C 126.84 147.09 126.59 145.85 125.68 145.24 C 124.76 144.63 123.53 144.88 122.92 145.79 Z M 122.35 146.62 L 121.80 147.45 C 121.18 148.36 121.43 149.60 122.34 150.22 C 123.25 150.83 124.49 150.59 125.11 149.68 L 125.66 148.85 C 126.28 147.94 126.04 146.70 125.12 146.08 C 124.21 145.47 122.97 145.71 122.35 146.62 Z M 121.80 147.44 L 121.24 148.26 C 120.63 149.18 120.87 150.42 121.78 151.04 C 122.70 151.66 123.94 151.42 124.56 150.50 L 125.11 149.68 C 125.73 148.77 125.49 147.52 124.57 146.90 C 123.66 146.29 122.42 146.53 121.80 147.44 Z M 121.24 148.26 L 120.66 149.12 C 120.04 150.03 120.28 151.28 121.19 151.90 C 122.11 152.52 123.36 152.28 123.98 151.37 L 124.56 150.51 C 125.18 149.59 124.94 148.34 124.03 147.72 C 123.11 147.10 121.86 147.34 121.24 148.26 Z M 120.66 149.11 L 120.09 149.93 C 119.47 150.85 119.70 152.10 120.61 152.72 C 121.53 153.35 122.78 153.12 123.41 152.20 L 123.98 151.38 C 124.60 150.46 124.37 149.21 123.46 148.58 C 122.54 147.96 121.29 148.19 120.66 149.11 Z M 120.10 149.91 L 119.56 150.68 C 118.92 151.59 119.13 152.85 120.04 153.49 C 120.95 154.13 122.21 153.91 122.85 153.00 L 123.40 152.23 C 124.04 151.32 123.82 150.06 122.91 149.42 C 122.00 148.78 120.74 149.00 120.10 149.91 Z M 119.58 150.65 L 118.95 151.50 C 118.29 152.40 118.48 153.67 119.38 154.33 C 120.28 154.99 121.55 154.80 122.21 153.90 L 122.84 153.04 C 123.50 152.14 123.30 150.87 122.40 150.21 C 121.50 149.55 120.24 149.75 119.58 150.65 Z M 118.96 151.47 L 118.37 152.26 C 117.69 153.15 117.86 154.42 118.75 155.10 C 119.64 155.78 120.92 155.60 121.59 154.71 L 122.19 153.93 C 122.87 153.04 122.69 151.76 121.80 151.09 C 120.91 150.41 119.64 150.58 118.96 151.47 Z M 118.37 152.24 L 117.79 152.99 C 117.10 153.88 117.27 155.16 118.15 155.84 C 119.04 156.53 120.32 156.37 121.00 155.48 L 121.59 154.73 C 122.27 153.84 122.11 152.56 121.22 151.88 C 120.34 151.19 119.06 151.35 118.37 152.24 Z M 117.80 152.97 L 117.19 153.74 C 116.49 154.62 116.64 155.90 117.52 156.60 C 118.41 157.30 119.69 157.15 120.38 156.27 L 120.99 155.50 C 121.69 154.62 121.54 153.34 120.66 152.64 C 119.78 151.94 118.50 152.09 117.80 152.97 Z M 117.23 153.69 L 116.57 154.47 C 115.85 155.33 115.96 156.62 116.82 157.35 C 117.68 158.07 118.97 157.96 119.69 157.10 L 120.35 156.32 C 121.07 155.46 120.96 154.17 120.10 153.45 C 119.24 152.72 117.95 152.83 117.23 153.69 Z M 116.62 154.42 L 115.75 155.38 C 115.00 156.22 115.06 157.51 115.90 158.26 C 116.74 159.02 118.03 158.95 118.78 158.11 L 119.65 157.15 C 120.40 156.31 120.34 155.02 119.50 154.27 C 118.66 153.51 117.37 153.58 116.62 154.42 Z M 115.73 155.41 L 115.35 155.85 C 114.61 156.70 114.70 157.99 115.54 158.73 C 116.39 159.46 117.68 159.38 118.42 158.53 L 118.81 158.09 C 119.55 157.24 119.46 155.95 118.61 155.21 C 117.76 154.47 116.47 154.56 115.73 155.41 Z M 118.21 158.70 L 118.82 158.17 C 119.65 157.43 119.73 156.16 119.00 155.33 C 118.27 154.49 117.00 154.41 116.16 155.14 L 115.56 155.68 C 114.72 156.41 114.64 157.68 115.37 158.51 C 116.11 159.35 117.38 159.43 118.21 158.70 Z M 118.77 158.14 L 119.71 157.33 C 120.53 156.62 120.62 155.38 119.91 154.56 C 119.20 153.74 117.96 153.65 117.14 154.36 L 116.20 155.17 C 115.38 155.88 115.29 157.12 116.00 157.94 C 116.71 158.76 117.95 158.85 118.77 158.14 Z M 119.64 157.36 L 120.41 156.74 C 121.25 156.07 121.39 154.85 120.72 154.01 C 120.05 153.18 118.83 153.04 117.99 153.71 L 117.21 154.33 C 116.38 155.00 116.24 156.22 116.91 157.06 C 117.58 157.90 118.80 158.03 119.64 157.36 Z M 120.36 156.77 L 121.17 156.16 C 122.02 155.52 122.20 154.32 121.56 153.46 C 120.92 152.61 119.71 152.44 118.86 153.07 L 118.05 153.68 C 117.19 154.32 117.02 155.53 117.66 156.38 C 118.30 157.24 119.51 157.41 120.36 156.77 Z M 121.12 156.18 L 121.94 155.60 C 122.81 154.99 123.01 153.79 122.40 152.93 C 121.79 152.06 120.59 151.86 119.73 152.47 L 118.91 153.05 C 118.04 153.66 117.84 154.86 118.45 155.73 C 119.06 156.59 120.26 156.80 121.12 156.18 Z M 121.90 155.62 L 122.73 155.06 C 123.61 154.47 123.84 153.28 123.25 152.41 C 122.66 151.54 121.48 151.30 120.60 151.89 L 119.77 152.45 C 118.89 153.04 118.66 154.23 119.25 155.10 C 119.84 155.98 121.03 156.21 121.90 155.62 Z M 122.70 155.07 L 123.53 154.54 C 124.41 153.97 124.66 152.79 124.09 151.91 C 123.52 151.03 122.35 150.78 121.47 151.35 L 120.64 151.88 C 119.76 152.45 119.50 153.62 120.07 154.51 C 120.64 155.39 121.82 155.64 122.70 155.07 Z M 123.50 154.55 L 124.31 154.04 C 125.20 153.49 125.47 152.32 124.92 151.44 C 124.37 150.55 123.20 150.28 122.32 150.83 L 121.50 151.34 C 120.61 151.89 120.34 153.05 120.89 153.94 C 121.44 154.83 122.61 155.10 123.50 154.55 Z M 124.29 154.05 L 125.14 153.53 C 126.03 152.99 126.32 151.83 125.78 150.94 C 125.24 150.05 124.08 149.77 123.19 150.30 L 122.34 150.82 C 121.45 151.36 121.16 152.52 121.70 153.41 C 122.24 154.30 123.40 154.58 124.29 154.05 Z M 125.13 153.53 L 126.02 153.00 C 126.92 152.47 127.21 151.31 126.67 150.42 C 126.14 149.53 124.99 149.24 124.10 149.77 L 123.21 150.30 C 122.32 150.83 122.02 151.99 122.56 152.88 C 123.09 153.77 124.24 154.06 125.13 153.53 Z M 126.02 153.00 L 126.90 152.47 C 127.79 151.94 128.09 150.79 127.55 149.90 C 127.02 149.00 125.87 148.71 124.98 149.24 L 124.10 149.77 C 123.20 150.30 122.91 151.46 123.45 152.35 C 123.98 153.24 125.13 153.53 126.02 153.00 Z M 126.91 152.47 L 127.79 151.95 C 128.68 151.41 128.96 150.25 128.42 149.36 C 127.88 148.47 126.73 148.18 125.84 148.72 L 124.96 149.25 C 124.07 149.78 123.79 150.94 124.33 151.83 C 124.86 152.73 126.02 153.01 126.91 152.47 Z M 127.81 151.94 L 128.67 151.41 C 129.55 150.86 129.83 149.69 129.27 148.80 C 128.72 147.91 127.55 147.64 126.66 148.19 L 125.81 148.72 C 124.92 149.28 124.65 150.44 125.20 151.33 C 125.75 152.22 126.92 152.49 127.81 151.94 Z M 128.75 151.39 L 129.62 150.79 C 130.49 150.19 130.71 148.99 130.11 148.12 C 129.51 147.24 128.31 147.02 127.44 147.62 L 126.58 148.22 C 125.70 148.82 125.48 150.01 126.08 150.89 C 126.68 151.77 127.88 151.99 128.75 151.39 Z M 129.84 150.67 L 130.53 150.06 C 131.34 149.33 131.41 148.09 130.68 147.28 C 129.96 146.47 128.71 146.40 127.90 147.13 L 127.22 147.74 C 126.41 148.47 126.34 149.71 127.06 150.52 C 127.79 151.33 129.03 151.40 129.84 150.67 Z M 130.79 149.81 L 131.38 149.04 C 132.05 148.17 131.89 146.92 131.02 146.25 C 130.15 145.58 128.90 145.74 128.23 146.61 L 127.64 147.38 C 126.97 148.25 127.13 149.50 128.00 150.17 C 128.87 150.84 130.12 150.68 130.79 149.81 Z M 131.46 148.94 L 132.02 148.10 C 132.63 147.19 132.39 145.96 131.48 145.34 C 130.56 144.73 129.33 144.97 128.72 145.88 L 128.16 146.72 C 127.54 147.63 127.79 148.86 128.70 149.48 C 129.61 150.09 130.84 149.85 131.46 148.94 Z M 131.90 148.25 L 132.53 147.49 C 133.22 146.64 133.10 145.39 132.25 144.70 C 131.41 144.00 130.16 144.12 129.46 144.97 L 128.83 145.73 C 128.14 146.58 128.26 147.83 129.11 148.53 C 129.95 149.22 131.20 149.10 131.90 148.25 Z M 132.32 147.70 L 133.06 147.04 C 133.87 146.31 133.94 145.05 133.21 144.24 C 132.48 143.43 131.22 143.36 130.41 144.09 L 129.67 144.76 C 128.85 145.49 128.79 146.74 129.52 147.55 C 130.25 148.37 131.50 148.44 132.32 147.70 Z M 132.84 147.21 L 133.69 146.64 C 134.59 146.03 134.84 144.80 134.22 143.89 C 133.61 142.98 132.38 142.74 131.47 143.35 L 130.63 143.92 C 129.72 144.53 129.48 145.76 130.09 146.67 C 130.70 147.58 131.93 147.82 132.84 147.21 Z M 133.47 146.77 L 134.36 146.33 C 135.34 145.83 135.74 144.64 135.25 143.66 C 134.75 142.68 133.56 142.28 132.58 142.77 L 131.69 143.22 C 130.71 143.71 130.31 144.91 130.80 145.89 C 131.29 146.87 132.49 147.26 133.47 146.77 Z M 134.13 146.43 L 135.08 146.10 C 136.12 145.74 136.67 144.60 136.30 143.56 C 135.94 142.52 134.80 141.97 133.76 142.33 L 132.81 142.67 C 131.77 143.03 131.22 144.17 131.59 145.21 C 131.95 146.25 133.09 146.80 134.13 146.43 Z M 134.80 146.18 L 135.80 145.99 C 136.89 145.78 137.60 144.73 137.39 143.64 C 137.18 142.56 136.13 141.85 135.04 142.06 L 134.04 142.25 C 132.95 142.46 132.24 143.51 132.45 144.60 C 132.66 145.68 133.71 146.39 134.80 146.18 Z M 135.39 146.04 L 136.39 146.05 C 137.50 146.07 138.42 145.18 138.43 144.07 C 138.45 142.96 137.56 142.04 136.45 142.02 L 135.45 142.01 C 134.34 141.99 133.43 142.88 133.41 143.99 C 133.39 145.10 134.28 146.02 135.39 146.04 Z M 135.78 145.96 L 136.69 146.26 C 137.75 146.62 138.90 146.04 139.25 144.98 C 139.60 143.92 139.03 142.77 137.97 142.42 L 137.06 142.12 C 136.00 141.76 134.85 142.34 134.50 143.40 C 134.14 144.46 134.72 145.61 135.78 145.96 Z M 136.11 145.96 L 136.88 146.54 C 137.77 147.22 139.04 147.04 139.72 146.14 C 140.39 145.25 140.21 143.98 139.32 143.30 L 138.55 142.72 C 137.65 142.05 136.38 142.23 135.71 143.12 C 135.03 144.01 135.21 145.29 136.11 145.96 Z M 136.59 146.29 L 137.28 147.04 C 138.04 147.87 139.32 147.94 140.15 147.18 C 140.98 146.43 141.04 145.15 140.29 144.32 L 139.60 143.56 C 138.85 142.73 137.57 142.67 136.73 143.42 C 135.90 144.17 135.84 145.46 136.59 146.29 Z M 137.19 146.92 L 137.82 147.74 C 138.50 148.63 139.78 148.79 140.66 148.10 C 141.55 147.42 141.71 146.14 141.02 145.26 L 140.39 144.44 C 139.70 143.56 138.43 143.40 137.55 144.08 C 136.66 144.77 136.50 146.04 137.19 146.92 Z M 137.79 147.69 L 138.39 148.51 C 139.05 149.40 140.31 149.60 141.21 148.94 C 142.11 148.29 142.30 147.03 141.64 146.13 L 141.05 145.31 C 140.39 144.41 139.13 144.22 138.23 144.87 C 137.33 145.53 137.14 146.79 137.79 147.69 Z M 138.39 148.48 L 138.95 149.27 C 139.60 150.17 140.85 150.38 141.75 149.73 C 142.65 149.09 142.85 147.84 142.21 146.94 L 141.65 146.15 C 141.00 145.25 139.75 145.04 138.85 145.69 C 137.95 146.33 137.75 147.58 138.39 148.48 Z M 139.00 149.28 L 139.60 150.09 C 140.25 150.96 141.48 151.15 142.36 150.50 C 143.23 149.85 143.41 148.62 142.77 147.74 L 142.17 146.93 C 141.52 146.06 140.28 145.87 139.41 146.52 C 138.54 147.17 138.35 148.40 139.00 149.28 Z M 139.72 150.16 L 140.36 150.91 C 141.05 151.72 142.26 151.81 143.07 151.13 C 143.88 150.44 143.97 149.23 143.28 148.42 L 142.64 147.67 C 141.95 146.86 140.74 146.77 139.94 147.46 C 139.13 148.14 139.04 149.36 139.72 150.16 Z M 140.56 151.02 L 141.27 151.69 C 142.02 152.39 143.19 152.35 143.89 151.60 C 144.59 150.85 144.55 149.68 143.80 148.98 L 143.09 148.32 C 142.34 147.62 141.17 147.65 140.47 148.40 C 139.77 149.15 139.81 150.32 140.56 151.02 Z M 141.45 151.72 L 142.23 152.34 C 143.00 152.94 144.11 152.81 144.71 152.05 C 145.31 151.28 145.18 150.17 144.42 149.57 L 143.63 148.95 C 142.86 148.35 141.76 148.48 141.15 149.24 C 140.55 150.01 140.68 151.12 141.45 151.72 Z M 142.34 152.30 L 143.02 152.81 C 143.77 153.36 144.82 153.19 145.36 152.45 C 145.91 151.70 145.75 150.66 145.00 150.11 L 144.31 149.61 C 143.57 149.06 142.52 149.22 141.98 149.97 C 141.43 150.71 141.59 151.76 142.34 152.30 Z"
      fill="black"
      fill-rule="nonzero" /><path d="M 116.63 164.56 L 117.06 165.40 C 117.49 166.24 118.52 166.57 119.36 166.14 C 120.20 165.72 120.53 164.69 120.10 163.84 L 119.67 163.00 C 119.24 162.16 118.21 161.83 117.37 162.26 C 116.53 162.69 116.20 163.72 116.63 164.56 Z M 117.05 165.52 L 117.56 166.39 C 118.06 167.23 119.14 167.52 119.99 167.02 C 120.83 166.52 121.11 165.43 120.62 164.59 L 120.11 163.72 C 119.61 162.88 118.52 162.60 117.68 163.09 C 116.83 163.59 116.55 164.68 117.05 165.52 Z M 117.61 166.55 L 118.20 167.36 C 118.78 168.18 119.92 168.36 120.73 167.77 C 121.55 167.19 121.73 166.05 121.15 165.24 L 120.56 164.43 C 119.98 163.61 118.84 163.43 118.03 164.01 C 117.21 164.60 117.03 165.74 117.61 166.55 Z M 118.28 167.47 L 118.90 168.21 C 119.55 168.98 120.70 169.08 121.47 168.43 C 122.24 167.78 122.34 166.63 121.69 165.86 L 121.07 165.12 C 120.42 164.35 119.27 164.25 118.50 164.90 C 117.73 165.55 117.63 166.70 118.28 167.47 Z M 118.97 168.27 L 119.68 169.03 C 120.36 169.76 121.50 169.80 122.24 169.12 C 122.97 168.44 123.01 167.29 122.32 166.56 L 121.62 165.80 C 120.94 165.07 119.79 165.03 119.06 165.71 C 118.33 166.40 118.29 167.54 118.97 168.27 Z M 119.74 169.07 L 120.48 169.80 C 121.18 170.50 122.31 170.49 123.01 169.79 C 123.71 169.09 123.70 167.96 123.00 167.26 L 122.26 166.52 C 121.56 165.83 120.43 165.83 119.73 166.53 C 119.03 167.23 119.03 168.37 119.74 169.07 Z M 120.54 169.80 L 121.26 170.48 C 121.96 171.15 123.07 171.11 123.74 170.41 C 124.40 169.70 124.37 168.60 123.66 167.93 L 122.94 167.25 C 122.24 166.59 121.13 166.62 120.46 167.33 C 119.80 168.03 119.83 169.14 120.54 169.80 Z M 121.32 170.46 L 122.06 171.14 C 122.75 171.77 123.83 171.72 124.46 171.02 C 125.09 170.33 125.04 169.26 124.34 168.63 L 123.60 167.95 C 122.91 167.32 121.84 167.37 121.21 168.07 C 120.58 168.76 120.63 169.83 121.32 170.46 Z M 122.11 171.11 L 122.86 171.78 C 123.54 172.38 124.58 172.32 125.18 171.65 C 125.78 170.97 125.72 169.93 125.05 169.33 L 124.29 168.66 C 123.62 168.06 122.58 168.12 121.98 168.79 C 121.38 169.47 121.43 170.50 122.11 171.11 Z M 122.89 171.76 L 123.05 171.90 C 123.71 172.49 124.73 172.43 125.32 171.77 C 125.91 171.10 125.85 170.09 125.18 169.50 L 125.02 169.35 C 124.36 168.76 123.34 168.82 122.75 169.49 C 122.17 170.15 122.23 171.17 122.89 171.76 Z"
      fill="black"
      fill-rule="nonzero" /><path d="M 124.73 161.12 L 124.79 162.15 C 124.84 163.11 125.66 163.85 126.62 163.80 C 127.58 163.75 128.32 162.93 128.27 161.96 L 128.22 160.94 C 128.17 159.97 127.35 159.23 126.39 159.29 C 125.42 159.34 124.68 160.16 124.73 161.12 Z M 124.78 162.31 L 124.92 163.29 C 125.06 164.26 125.96 164.93 126.93 164.79 C 127.89 164.65 128.56 163.75 128.42 162.79 L 128.28 161.80 C 128.14 160.83 127.24 160.16 126.28 160.30 C 125.31 160.44 124.64 161.34 124.78 162.31 Z M 124.99 163.64 L 125.31 164.54 C 125.64 165.47 126.66 165.95 127.59 165.62 C 128.52 165.29 129.01 164.27 128.68 163.34 L 128.36 162.44 C 128.03 161.51 127.01 161.02 126.08 161.35 C 125.14 161.68 124.66 162.71 124.99 163.64 Z M 125.51 164.94 L 126.04 165.73 C 126.59 166.55 127.70 166.76 128.52 166.21 C 129.34 165.66 129.56 164.55 129.01 163.73 L 128.48 162.94 C 127.93 162.12 126.81 161.90 125.99 162.45 C 125.17 163.00 124.96 164.12 125.51 164.94 Z M 126.25 165.96 L 126.96 166.69 C 127.64 167.40 128.76 167.41 129.46 166.73 C 130.17 166.05 130.18 164.92 129.50 164.22 L 128.80 163.49 C 128.11 162.79 126.99 162.77 126.29 163.46 C 125.58 164.14 125.57 165.26 126.25 165.96 Z M 127.09 166.80 L 127.89 167.47 C 128.63 168.10 129.73 168.01 130.36 167.27 C 130.99 166.53 130.90 165.42 130.16 164.79 L 129.37 164.12 C 128.63 163.49 127.52 163.58 126.89 164.32 C 126.26 165.06 126.35 166.17 127.09 166.80 Z M 127.98 167.51 L 128.80 168.12 C 129.56 168.70 130.65 168.54 131.22 167.78 C 131.79 167.01 131.64 165.93 130.87 165.35 L 130.06 164.75 C 129.30 164.17 128.21 164.33 127.64 165.09 C 127.06 165.86 127.22 166.94 127.98 167.51 Z M 128.92 168.17 L 129.77 168.71 C 130.56 169.22 131.61 168.99 132.11 168.20 C 132.62 167.41 132.39 166.36 131.60 165.85 L 130.75 165.31 C 129.96 164.80 128.91 165.03 128.40 165.82 C 127.90 166.61 128.13 167.66 128.92 168.17 Z M 129.93 168.77 L 130.82 169.22 C 131.65 169.63 132.65 169.30 133.06 168.48 C 133.48 167.65 133.14 166.65 132.32 166.24 L 131.43 165.79 C 130.61 165.38 129.61 165.71 129.19 166.53 C 128.78 167.36 129.11 168.36 129.93 168.77 Z M 131.03 169.27 L 131.99 169.61 C 132.84 169.91 133.77 169.46 134.07 168.61 C 134.37 167.76 133.93 166.82 133.07 166.52 L 132.12 166.19 C 131.26 165.89 130.33 166.33 130.03 167.19 C 129.73 168.04 130.18 168.97 131.03 169.27 Z M 132.14 169.62 L 133.09 169.86 C 133.95 170.07 134.82 169.55 135.03 168.69 C 135.25 167.84 134.73 166.97 133.87 166.75 L 132.92 166.51 C 132.06 166.30 131.19 166.82 130.98 167.68 C 130.76 168.53 131.28 169.40 132.14 169.62 Z M 133.15 169.84 L 133.63 169.95 C 134.48 170.13 135.32 169.59 135.50 168.74 C 135.69 167.89 135.15 167.06 134.30 166.87 L 133.82 166.77 C 132.97 166.58 132.13 167.12 131.94 167.97 C 131.76 168.82 132.30 169.66 133.15 169.84 Z"
      fill="black"
      fill-rule="nonzero" /><path d="M 133.49 158.10 L 133.87 159.01 C 134.25 159.91 135.27 160.33 136.17 159.95 C 137.06 159.58 137.48 158.55 137.11 157.66 L 136.73 156.75 C 136.35 155.86 135.33 155.44 134.43 155.81 C 133.54 156.18 133.12 157.21 133.49 158.10 Z M 133.86 159.16 L 134.32 160.06 C 134.77 160.96 135.87 161.32 136.77 160.86 C 137.67 160.40 138.03 159.31 137.57 158.41 L 137.12 157.51 C 136.66 156.61 135.56 156.25 134.67 156.71 C 133.77 157.17 133.41 158.26 133.86 159.16 Z M 134.40 160.28 L 134.94 161.08 C 135.52 161.93 136.68 162.15 137.53 161.58 C 138.39 161.00 138.61 159.84 138.03 158.98 L 137.49 158.19 C 136.91 157.33 135.75 157.11 134.90 157.69 C 134.04 158.27 133.82 159.43 134.40 160.28 Z M 135.06 161.23 L 135.70 161.99 C 136.36 162.78 137.54 162.88 138.33 162.22 C 139.12 161.55 139.22 160.38 138.55 159.59 L 137.91 158.83 C 137.25 158.04 136.07 157.94 135.28 158.60 C 134.50 159.27 134.40 160.45 135.06 161.23 Z M 135.79 162.07 L 136.50 162.82 C 137.21 163.56 138.38 163.59 139.12 162.89 C 139.86 162.18 139.89 161.01 139.19 160.27 L 138.47 159.52 C 137.76 158.77 136.59 158.75 135.85 159.45 C 135.11 160.15 135.08 161.33 135.79 162.07 Z M 136.56 162.83 L 137.26 163.52 C 137.97 164.23 139.12 164.23 139.83 163.51 C 140.53 162.80 140.53 161.65 139.82 160.95 L 139.12 160.26 C 138.41 159.55 137.26 159.55 136.55 160.27 C 135.85 160.98 135.85 162.13 136.56 162.83 Z M 137.32 163.51 L 138.05 164.21 C 138.76 164.88 139.87 164.86 140.55 164.15 C 141.22 163.44 141.19 162.33 140.49 161.65 L 139.76 160.96 C 139.05 160.28 137.93 160.31 137.26 161.02 C 136.59 161.72 136.61 162.84 137.32 163.51 Z M 138.11 164.19 L 138.86 164.88 C 139.55 165.52 140.64 165.48 141.28 164.78 C 141.92 164.09 141.88 163.00 141.18 162.36 L 140.43 161.67 C 139.73 161.03 138.65 161.07 138.01 161.77 C 137.37 162.47 137.41 163.55 138.11 164.19 Z M 138.91 164.86 L 139.65 165.53 C 140.34 166.15 141.39 166.09 142.00 165.40 C 142.62 164.72 142.56 163.66 141.88 163.05 L 141.13 162.38 C 140.45 161.77 139.39 161.82 138.78 162.51 C 138.16 163.19 138.22 164.25 138.91 164.86 Z M 139.69 165.51 L 140.44 166.17 C 141.11 166.76 142.14 166.69 142.73 166.02 C 143.32 165.35 143.26 164.32 142.59 163.73 L 141.83 163.07 C 141.16 162.48 140.14 162.54 139.55 163.22 C 138.95 163.89 139.02 164.92 139.69 165.51 Z M 140.47 166.14 L 141.08 166.67 C 141.73 167.24 142.73 167.18 143.31 166.52 C 143.88 165.86 143.82 164.86 143.16 164.29 L 142.55 163.76 C 141.90 163.18 140.90 163.25 140.32 163.91 C 139.75 164.57 139.81 165.57 140.47 166.14 Z"
      fill="black"
      fill-rule="nonzero" /><path d="M 152.27 120.67 L 153.18 120.25 C 154.11 119.83 154.53 118.73 154.10 117.79 C 153.68 116.86 152.58 116.44 151.64 116.87 L 150.73 117.28 C 149.80 117.70 149.38 118.81 149.81 119.74 C 150.23 120.67 151.33 121.09 152.27 120.67 Z M 153.16 120.27 L 154.07 119.87 C 155.02 119.45 155.45 118.36 155.03 117.41 C 154.62 116.47 153.52 116.04 152.58 116.45 L 151.66 116.85 C 150.72 117.26 150.29 118.36 150.70 119.31 C 151.12 120.25 152.21 120.68 153.16 120.27 Z M 154.03 119.89 L 154.96 119.52 C 155.91 119.13 156.37 118.04 155.99 117.08 C 155.60 116.12 154.51 115.66 153.55 116.05 L 152.62 116.43 C 151.67 116.81 151.21 117.90 151.59 118.86 C 151.98 119.82 153.07 120.28 154.03 119.89 Z M 154.89 119.54 L 155.81 119.21 C 156.79 118.86 157.29 117.78 156.94 116.81 C 156.59 115.84 155.51 115.34 154.54 115.69 L 153.62 116.02 C 152.65 116.38 152.14 117.45 152.50 118.42 C 152.85 119.39 153.92 119.89 154.89 119.54 Z M 155.76 119.22 L 156.70 118.92 C 157.68 118.59 158.21 117.54 157.89 116.56 C 157.57 115.58 156.51 115.05 155.53 115.37 L 154.60 115.67 C 153.62 116.00 153.08 117.05 153.40 118.03 C 153.72 119.01 154.78 119.55 155.76 119.22 Z M 156.67 118.92 L 157.64 118.62 C 158.62 118.31 159.17 117.27 158.86 116.28 C 158.55 115.30 157.51 114.75 156.52 115.06 L 155.56 115.36 C 154.58 115.67 154.03 116.72 154.34 117.70 C 154.65 118.68 155.69 119.23 156.67 118.92 Z M 157.64 118.61 L 158.56 118.32 C 159.54 118.01 160.09 116.97 159.78 115.99 C 159.47 115.01 158.43 114.47 157.45 114.78 L 156.53 115.07 C 155.55 115.37 155.00 116.42 155.31 117.40 C 155.62 118.37 156.66 118.92 157.64 118.61 Z M 158.57 118.31 L 159.45 118.03 C 160.42 117.71 160.95 116.67 160.64 115.70 C 160.33 114.73 159.29 114.20 158.31 114.51 L 157.44 114.79 C 156.47 115.10 155.93 116.15 156.25 117.12 C 156.56 118.09 157.60 118.62 158.57 118.31 Z M 159.46 118.01 L 160.39 117.70 C 161.35 117.38 161.88 116.34 161.56 115.38 C 161.24 114.42 160.20 113.90 159.24 114.21 L 158.31 114.52 C 157.34 114.84 156.82 115.88 157.14 116.84 C 157.46 117.81 158.50 118.33 159.46 118.01 Z M 160.40 117.69 L 161.42 117.34 C 162.37 117.02 162.88 115.98 162.56 115.03 C 162.24 114.08 161.20 113.56 160.25 113.89 L 159.23 114.23 C 158.28 114.55 157.76 115.59 158.09 116.54 C 158.41 117.50 159.45 118.01 160.40 117.69 Z M 161.42 117.33 L 162.43 116.98 C 163.38 116.65 163.88 115.62 163.55 114.68 C 163.23 113.73 162.20 113.23 161.25 113.55 L 160.24 113.90 C 159.30 114.23 158.79 115.26 159.12 116.20 C 159.44 117.15 160.47 117.65 161.42 117.33 Z M 162.43 116.96 L 163.40 116.63 C 164.34 116.30 164.83 115.28 164.51 114.34 C 164.18 113.40 163.16 112.91 162.22 113.23 L 161.25 113.57 C 160.31 113.90 159.82 114.92 160.14 115.86 C 160.47 116.79 161.49 117.29 162.43 116.96 Z M 163.40 116.61 L 164.39 116.26 C 165.31 115.94 165.80 114.92 165.48 114.00 C 165.15 113.07 164.14 112.58 163.21 112.90 L 162.22 113.25 C 161.30 113.57 160.81 114.59 161.13 115.52 C 161.46 116.44 162.47 116.93 163.40 116.61 Z M 164.38 116.25 L 165.34 115.91 C 166.26 115.59 166.75 114.58 166.42 113.66 C 166.10 112.75 165.10 112.26 164.18 112.58 L 163.22 112.92 C 162.30 113.24 161.81 114.25 162.13 115.17 C 162.46 116.09 163.46 116.57 164.38 116.25 Z M 165.34 115.90 L 166.23 115.58 C 167.14 115.27 167.63 114.27 167.31 113.36 C 166.99 112.45 165.99 111.97 165.08 112.28 L 164.18 112.60 C 163.27 112.92 162.79 113.91 163.11 114.82 C 163.43 115.73 164.43 116.21 165.34 115.90 Z M 166.22 115.57 L 167.26 115.21 C 168.16 114.90 168.64 113.92 168.33 113.01 C 168.02 112.11 167.04 111.63 166.13 111.95 L 165.10 112.30 C 164.19 112.61 163.72 113.60 164.03 114.50 C 164.34 115.40 165.32 115.88 166.22 115.57 Z M 167.22 115.19 L 168.20 114.87 C 169.09 114.58 169.57 113.62 169.28 112.73 C 168.99 111.84 168.03 111.36 167.14 111.65 L 166.17 111.97 C 165.28 112.26 164.79 113.21 165.09 114.10 C 165.38 114.99 166.33 115.48 167.22 115.19 Z M 168.13 114.85 L 169.00 114.60 C 169.89 114.34 170.39 113.42 170.13 112.54 C 169.88 111.66 168.96 111.15 168.07 111.41 L 167.20 111.66 C 166.32 111.92 165.82 112.84 166.07 113.72 C 166.33 114.60 167.25 115.11 168.13 114.85 Z M 168.92 114.59 L 169.82 114.38 C 170.69 114.16 171.23 113.28 171.02 112.41 C 170.81 111.53 169.93 110.99 169.05 111.20 L 168.16 111.42 C 167.28 111.63 166.74 112.51 166.95 113.39 C 167.16 114.26 168.05 114.80 168.92 114.59 Z M 169.74 114.37 L 170.72 114.18 C 171.59 114.01 172.16 113.16 171.99 112.29 C 171.81 111.41 170.97 110.84 170.09 111.02 L 169.12 111.21 C 168.25 111.38 167.68 112.23 167.85 113.10 C 168.02 113.97 168.87 114.54 169.74 114.37 Z M 170.67 114.17 L 171.67 114.00 C 172.54 113.85 173.13 113.03 172.98 112.16 C 172.83 111.29 172.00 110.70 171.13 110.85 L 170.14 111.02 C 169.27 111.17 168.68 112.00 168.83 112.87 C 168.98 113.74 169.80 114.32 170.67 114.17 Z M 171.66 113.99 L 172.22 113.90 C 173.09 113.76 173.67 112.95 173.53 112.08 C 173.39 111.22 172.58 110.63 171.71 110.77 L 171.15 110.86 C 170.29 111.00 169.70 111.82 169.84 112.68 C 169.98 113.54 170.79 114.13 171.66 113.99 Z"
      fill="black"
      fill-rule="nonzero" /><path d="M 155.03 123.08 L 153.91 123.59 C 153.04 123.99 152.66 125.03 153.06 125.90 C 153.47 126.77 154.50 127.15 155.37 126.75 L 156.48 126.23 C 157.36 125.83 157.74 124.80 157.33 123.93 C 156.93 123.06 155.90 122.68 155.03 123.08 Z M 152.81 125.41 L 152.83 125.59 C 152.96 126.61 153.89 127.32 154.91 127.19 C 155.92 127.05 156.63 126.13 156.50 125.11 L 156.48 124.93 C 156.34 123.92 155.42 123.20 154.40 123.34 C 153.39 123.47 152.68 124.40 152.81 125.41 Z M 154.91 127.22 L 155.86 127.10 C 156.89 126.97 157.63 126.02 157.49 124.99 C 157.36 123.95 156.41 123.22 155.38 123.36 L 154.43 123.48 C 153.39 123.61 152.66 124.56 152.79 125.59 C 152.93 126.63 153.87 127.36 154.91 127.22 Z M 156.04 127.07 L 157.30 126.79 C 158.32 126.56 158.96 125.54 158.73 124.53 C 158.50 123.51 157.49 122.87 156.47 123.10 L 155.20 123.39 C 154.19 123.62 153.55 124.63 153.78 125.65 C 154.01 126.66 155.02 127.30 156.04 127.07 Z M 157.37 126.77 L 158.24 126.53 C 159.25 126.27 159.85 125.23 159.58 124.23 C 159.32 123.22 158.28 122.62 157.28 122.89 L 156.40 123.12 C 155.39 123.39 154.79 124.42 155.06 125.43 C 155.33 126.43 156.36 127.03 157.37 126.77 Z M 158.27 126.52 L 159.22 126.26 C 160.22 125.98 160.81 124.94 160.53 123.94 C 160.25 122.94 159.21 122.35 158.21 122.63 L 157.26 122.90 C 156.25 123.18 155.67 124.21 155.95 125.22 C 156.23 126.22 157.26 126.80 158.27 126.52 Z M 159.23 126.25 L 160.24 125.97 C 161.24 125.68 161.82 124.65 161.54 123.65 C 161.26 122.65 160.22 122.07 159.22 122.35 L 158.21 122.64 C 157.21 122.92 156.63 123.96 156.91 124.95 C 157.19 125.95 158.23 126.53 159.23 126.25 Z M 160.23 125.96 L 161.27 125.67 C 162.27 125.40 162.85 124.36 162.58 123.37 C 162.30 122.37 161.27 121.79 160.27 122.06 L 159.23 122.35 C 158.23 122.63 157.65 123.66 157.93 124.66 C 158.20 125.66 159.24 126.24 160.23 125.96 Z M 161.25 125.67 L 162.30 125.39 C 163.29 125.12 163.88 124.10 163.61 123.11 C 163.35 122.12 162.33 121.53 161.34 121.79 L 160.29 122.07 C 159.30 122.34 158.71 123.36 158.97 124.35 C 159.24 125.34 160.26 125.93 161.25 125.67 Z M 162.27 125.37 L 163.30 125.10 C 164.28 124.86 164.87 123.86 164.62 122.88 C 164.37 121.90 163.37 121.30 162.39 121.55 L 161.37 121.81 C 160.39 122.06 159.79 123.06 160.04 124.04 C 160.29 125.02 161.29 125.61 162.27 125.37 Z M 163.27 125.08 L 164.26 124.84 C 165.23 124.60 165.82 123.63 165.59 122.67 C 165.35 121.70 164.38 121.11 163.42 121.34 L 162.42 121.58 C 161.46 121.81 160.86 122.79 161.10 123.75 C 161.33 124.72 162.30 125.31 163.27 125.08 Z M 164.24 124.81 L 165.18 124.59 C 166.13 124.37 166.72 123.42 166.50 122.47 C 166.28 121.52 165.34 120.93 164.39 121.15 L 163.44 121.37 C 162.49 121.59 161.90 122.54 162.12 123.49 C 162.34 124.44 163.29 125.03 164.24 124.81 Z M 165.16 124.56 L 166.04 124.37 C 166.97 124.16 167.56 123.24 167.35 122.30 C 167.15 121.37 166.22 120.78 165.29 120.99 L 164.41 121.18 C 163.48 121.39 162.89 122.31 163.09 123.24 C 163.30 124.18 164.22 124.77 165.16 124.56 Z M 166.01 124.33 L 167.09 124.11 C 168.00 123.92 168.59 123.02 168.40 122.10 C 168.21 121.19 167.31 120.60 166.39 120.79 L 165.31 121.02 C 164.40 121.21 163.81 122.11 164.00 123.02 C 164.20 123.94 165.09 124.53 166.01 124.33 Z M 167.06 124.07 L 168.04 123.88 C 168.94 123.70 169.52 122.83 169.34 121.93 C 169.17 121.04 168.30 120.46 167.40 120.63 L 166.42 120.83 C 165.52 121.00 164.94 121.87 165.12 122.77 C 165.30 123.67 166.17 124.25 167.06 124.07 Z M 168.02 123.84 L 168.94 123.67 C 169.81 123.50 170.39 122.66 170.22 121.78 C 170.06 120.91 169.21 120.33 168.34 120.50 L 167.42 120.67 C 166.55 120.84 165.97 121.68 166.14 122.56 C 166.30 123.43 167.15 124.00 168.02 123.84 Z M 168.93 123.64 L 169.33 123.56 C 170.19 123.40 170.75 122.58 170.59 121.72 C 170.43 120.86 169.61 120.29 168.75 120.45 L 168.35 120.53 C 167.49 120.69 166.92 121.51 167.08 122.37 C 167.24 123.23 168.07 123.80 168.93 123.64 Z"
      fill="black"
      fill-rule="nonzero" /><path d="M 162.23 106.39 L 161.37 106.92 C 160.55 107.43 160.29 108.52 160.80 109.34 C 161.31 110.17 162.40 110.43 163.23 109.91 L 164.08 109.38 C 164.91 108.87 165.16 107.78 164.65 106.96 C 164.14 106.13 163.05 105.88 162.23 106.39 Z M 161.03 107.15 L 160.34 107.84 C 159.64 108.54 159.64 109.68 160.34 110.38 C 161.04 111.08 162.18 111.08 162.88 110.38 L 163.57 109.68 C 164.27 108.98 164.27 107.85 163.57 107.15 C 162.87 106.45 161.73 106.45 161.03 107.15 Z M 159.93 108.41 L 159.59 109.26 C 159.20 110.18 159.64 111.24 160.56 111.62 C 161.49 112.01 162.55 111.57 162.93 110.64 L 163.28 109.80 C 163.67 108.88 163.23 107.82 162.30 107.43 C 161.38 107.05 160.32 107.49 159.93 108.41 Z M 159.46 109.70 L 159.32 110.69 C 159.18 111.68 159.88 112.60 160.87 112.74 C 161.86 112.87 162.78 112.18 162.92 111.19 L 163.06 110.20 C 163.19 109.21 162.50 108.29 161.51 108.15 C 160.52 108.02 159.60 108.71 159.46 109.70 Z M 159.31 110.87 L 159.27 111.95 C 159.23 112.95 160.02 113.79 161.02 113.83 C 162.02 113.86 162.86 113.08 162.89 112.08 L 162.93 111.00 C 162.97 110.00 162.19 109.16 161.19 109.13 C 160.19 109.09 159.35 109.87 159.31 110.87 Z M 159.27 111.99 L 159.26 112.96 C 159.25 113.95 160.05 114.77 161.05 114.78 C 162.05 114.80 162.86 114.00 162.88 113.00 L 162.89 112.04 C 162.90 111.04 162.10 110.22 161.10 110.21 C 160.11 110.20 159.29 111.00 159.27 111.99 Z M 159.27 112.97 L 159.27 113.96 C 159.26 114.96 160.06 115.77 161.06 115.77 C 162.05 115.77 162.86 114.97 162.86 113.98 L 162.87 112.99 C 162.87 111.99 162.07 111.18 161.08 111.18 C 160.08 111.17 159.28 111.98 159.27 112.97 Z M 159.27 113.97 L 159.27 115.01 C 159.27 116.00 160.07 116.80 161.06 116.80 C 162.05 116.80 162.85 116.00 162.86 115.01 L 162.86 113.97 C 162.86 112.98 162.06 112.18 161.07 112.18 C 160.08 112.18 159.27 112.98 159.27 113.97 Z M 159.28 115.01 L 159.28 115.99 C 159.28 116.98 160.08 117.78 161.06 117.78 C 162.05 117.78 162.85 116.98 162.85 115.99 L 162.85 115.01 C 162.85 114.03 162.05 113.23 161.06 113.23 C 160.08 113.23 159.28 114.03 159.28 115.01 Z M 159.29 115.99 L 159.29 117.00 C 159.29 117.98 160.08 118.78 161.06 118.78 C 162.05 118.78 162.84 117.98 162.84 117.00 L 162.84 115.99 C 162.84 115.01 162.05 114.21 161.06 114.21 C 160.08 114.21 159.29 115.01 159.29 115.99 Z M 159.29 117.00 L 159.29 118.01 C 159.29 118.99 160.08 119.79 161.06 119.79 C 162.04 119.79 162.84 118.99 162.84 118.01 L 162.84 117.00 C 162.84 116.02 162.04 115.22 161.06 115.22 C 160.08 115.22 159.29 116.02 159.29 117.00 Z M 159.30 118.01 L 159.30 119.00 C 159.30 119.98 160.09 120.77 161.06 120.77 C 162.04 120.77 162.83 119.98 162.83 119.00 L 162.83 118.01 C 162.83 117.03 162.04 116.24 161.06 116.24 C 160.09 116.24 159.30 117.03 159.30 118.01 Z M 159.30 119.01 L 159.30 119.97 C 159.30 120.94 160.09 121.73 161.07 121.73 C 162.04 121.73 162.83 120.94 162.83 119.97 L 162.83 119.00 C 162.83 118.03 162.04 117.24 161.06 117.24 C 160.09 117.24 159.30 118.03 159.30 119.01 Z M 159.31 119.98 L 159.31 120.96 C 159.31 121.93 160.11 122.72 161.08 122.71 C 162.05 122.71 162.83 121.92 162.83 120.95 L 162.82 119.96 C 162.82 118.99 162.03 118.21 161.06 118.21 C 160.09 118.21 159.30 119.00 159.31 119.98 Z M 159.32 120.97 L 159.33 122.01 C 159.33 122.98 160.13 123.75 161.09 123.75 C 162.06 123.74 162.84 122.95 162.83 121.98 L 162.82 120.94 C 162.81 119.97 162.02 119.19 161.05 119.20 C 160.09 119.21 159.31 120.00 159.32 120.97 Z M 159.33 122.02 L 159.35 123.01 C 159.36 123.97 160.15 124.75 161.12 124.73 C 162.08 124.72 162.85 123.92 162.84 122.96 L 162.83 121.97 C 162.81 121.00 162.02 120.23 161.05 120.25 C 160.09 120.26 159.32 121.05 159.33 122.02 Z M 159.35 123.02 L 159.37 124.01 C 159.39 124.98 160.19 125.74 161.15 125.72 C 162.11 125.70 162.87 124.91 162.85 123.94 L 162.83 122.95 C 162.81 121.99 162.02 121.22 161.06 121.24 C 160.10 121.26 159.33 122.06 159.35 123.02 Z M 159.38 124.02 L 159.40 125.04 C 159.43 126.00 160.23 126.76 161.19 126.73 C 162.14 126.71 162.90 125.91 162.87 124.95 L 162.85 123.93 C 162.82 122.98 162.03 122.22 161.07 122.24 C 160.11 122.27 159.35 123.07 159.38 124.02 Z M 159.41 125.06 L 159.45 126.07 C 159.48 127.03 160.28 127.78 161.23 127.74 C 162.19 127.71 162.94 126.91 162.90 125.96 L 162.87 124.94 C 162.84 123.98 162.04 123.24 161.08 123.27 C 160.13 123.30 159.38 124.10 159.41 125.06 Z M 159.45 126.09 L 159.50 127.11 C 159.54 128.06 160.34 128.80 161.29 128.76 C 162.24 128.72 162.98 127.91 162.94 126.96 L 162.89 125.94 C 162.85 124.99 162.05 124.26 161.10 124.30 C 160.15 124.34 159.41 125.14 159.45 126.09 Z M 159.52 127.13 L 159.57 128.15 C 159.62 129.09 160.42 129.81 161.36 129.76 C 162.30 129.71 163.03 128.91 162.98 127.97 L 162.92 126.95 C 162.87 126.01 162.07 125.28 161.13 125.33 C 160.19 125.38 159.47 126.19 159.52 127.13 Z M 159.59 128.16 L 159.65 129.16 C 159.71 130.09 160.51 130.79 161.44 130.74 C 162.37 130.68 163.07 129.88 163.02 128.95 L 162.95 127.96 C 162.90 127.03 162.10 126.32 161.17 126.38 C 160.24 126.44 159.53 127.24 159.59 128.16 Z M 159.67 129.17 L 159.74 130.14 C 159.80 131.06 160.59 131.75 161.51 131.69 C 162.43 131.63 163.12 130.84 163.06 129.92 L 163.00 128.94 C 162.93 128.03 162.14 127.33 161.22 127.39 C 160.31 127.45 159.61 128.25 159.67 129.17 Z M 159.75 130.14 L 159.79 130.74 C 159.86 131.65 160.64 132.33 161.55 132.27 C 162.46 132.21 163.15 131.42 163.08 130.51 L 163.04 129.92 C 162.98 129.01 162.19 128.32 161.29 128.38 C 160.38 128.45 159.69 129.23 159.75 130.14 Z"
      fill="black"
      fill-rule="nonzero" /><path d="M 148.76 138.30 L 149.71 138.51 C 150.66 138.71 151.59 138.11 151.79 137.16 C 151.99 136.21 151.39 135.28 150.44 135.08 L 149.49 134.88 C 148.54 134.68 147.61 135.28 147.41 136.23 C 147.21 137.17 147.81 138.10 148.76 138.30 Z M 149.94 138.67 L 150.93 138.74 C 151.96 138.82 152.87 138.04 152.94 137.00 C 153.02 135.97 152.24 135.07 151.20 134.99 L 150.21 134.92 C 149.18 134.84 148.27 135.62 148.20 136.66 C 148.12 137.69 148.90 138.60 149.94 138.67 Z M 151.36 138.82 L 152.27 138.69 C 153.35 138.52 154.09 137.51 153.93 136.43 C 153.76 135.35 152.76 134.61 151.67 134.77 L 150.77 134.91 C 149.69 135.07 148.94 136.08 149.11 137.16 C 149.27 138.25 150.28 138.99 151.36 138.82 Z M 152.61 138.64 L 153.42 138.37 C 154.47 138.01 155.04 136.87 154.69 135.82 C 154.34 134.76 153.20 134.20 152.14 134.55 L 151.33 134.82 C 150.28 135.17 149.71 136.32 150.06 137.37 C 150.41 138.42 151.56 138.99 152.61 138.64 Z M 153.57 138.31 L 154.49 137.92 C 155.52 137.48 155.99 136.30 155.56 135.28 C 155.12 134.26 153.94 133.78 152.92 134.21 L 151.99 134.61 C 150.97 135.04 150.49 136.22 150.93 137.25 C 151.36 138.27 152.54 138.75 153.57 138.31 Z M 154.54 137.90 L 155.62 137.41 C 156.63 136.95 157.08 135.76 156.63 134.74 C 156.17 133.73 154.98 133.28 153.96 133.74 L 152.88 134.23 C 151.86 134.69 151.41 135.88 151.87 136.90 C 152.33 137.91 153.52 138.36 154.54 137.90 Z M 155.61 137.41 L 156.55 136.99 C 157.57 136.54 158.02 135.36 157.57 134.34 C 157.12 133.32 155.93 132.87 154.92 133.32 L 153.98 133.74 C 152.96 134.19 152.50 135.38 152.95 136.39 C 153.40 137.41 154.59 137.86 155.61 137.41 Z M 156.53 137.00 L 157.48 136.59 C 158.50 136.15 158.97 134.97 158.53 133.95 C 158.09 132.93 156.90 132.46 155.88 132.90 L 154.94 133.31 C 153.92 133.75 153.45 134.94 153.89 135.95 C 154.33 136.97 155.51 137.44 156.53 137.00 Z M 157.47 136.59 L 158.44 136.18 C 159.46 135.75 159.93 134.57 159.50 133.55 C 159.07 132.53 157.89 132.05 156.87 132.49 L 155.90 132.90 C 154.88 133.33 154.40 134.51 154.83 135.53 C 155.27 136.55 156.45 137.03 157.47 136.59 Z M 158.43 136.18 L 159.38 135.79 C 160.40 135.36 160.88 134.19 160.45 133.16 C 160.03 132.14 158.85 131.66 157.83 132.09 L 156.88 132.48 C 155.86 132.91 155.38 134.08 155.80 135.11 C 156.23 136.13 157.40 136.61 158.43 136.18 Z M 159.36 135.79 L 160.25 135.43 C 161.27 135.01 161.76 133.84 161.34 132.81 C 160.92 131.79 159.75 131.30 158.73 131.72 L 157.84 132.08 C 156.82 132.50 156.33 133.67 156.75 134.70 C 157.17 135.72 158.34 136.21 159.36 135.79 Z M 160.23 135.43 L 161.29 135.01 C 162.31 134.60 162.81 133.44 162.40 132.41 C 161.99 131.39 160.83 130.89 159.81 131.30 L 158.75 131.72 C 157.73 132.13 157.23 133.29 157.64 134.31 C 158.04 135.34 159.20 135.84 160.23 135.43 Z M 161.25 135.00 L 162.25 134.61 C 163.27 134.22 163.78 133.08 163.39 132.06 C 163.00 131.05 161.86 130.54 160.84 130.93 L 159.84 131.31 C 158.82 131.70 158.31 132.84 158.70 133.86 C 159.09 134.88 160.23 135.39 161.25 135.00 Z M 162.21 134.60 L 163.02 134.30 C 164.03 133.93 164.55 132.82 164.18 131.81 C 163.81 130.79 162.69 130.28 161.68 130.65 L 160.88 130.94 C 159.87 131.31 159.35 132.43 159.72 133.44 C 160.09 134.45 161.20 134.97 162.21 134.60 Z M 163.00 134.29 L 163.75 134.02 C 164.75 133.66 165.27 132.56 164.91 131.56 C 164.56 130.56 163.45 130.04 162.45 130.39 L 161.70 130.66 C 160.70 131.02 160.18 132.12 160.54 133.12 C 160.90 134.12 162.00 134.65 163.00 134.29 Z M 163.73 134.01 L 164.56 133.72 C 165.55 133.37 166.08 132.28 165.73 131.29 C 165.38 130.30 164.30 129.77 163.30 130.12 L 162.48 130.41 C 161.48 130.75 160.96 131.84 161.30 132.83 C 161.65 133.83 162.74 134.35 163.73 134.01 Z M 164.52 133.71 L 165.55 133.38 C 166.54 133.05 167.08 131.98 166.76 130.99 C 166.43 130.00 165.37 129.46 164.37 129.78 L 163.34 130.12 C 162.35 130.44 161.81 131.51 162.13 132.51 C 162.46 133.50 163.53 134.04 164.52 133.71 Z M 165.52 133.37 L 166.52 133.06 C 167.51 132.76 168.07 131.71 167.76 130.72 C 167.45 129.73 166.40 129.17 165.41 129.48 L 164.41 129.79 C 163.42 130.09 162.86 131.14 163.17 132.13 C 163.47 133.12 164.53 133.68 165.52 133.37 Z M 166.50 133.06 L 167.44 132.78 C 168.43 132.48 168.99 131.44 168.69 130.45 C 168.40 129.47 167.36 128.91 166.37 129.20 L 165.43 129.48 C 164.45 129.78 163.89 130.82 164.18 131.80 C 164.48 132.79 165.51 133.35 166.50 133.06 Z M 167.43 132.77 L 168.43 132.47 C 169.41 132.18 169.97 131.15 169.69 130.17 C 169.40 129.19 168.37 128.63 167.39 128.92 L 166.38 129.21 C 165.40 129.50 164.84 130.53 165.13 131.51 C 165.42 132.49 166.45 133.06 167.43 132.77 Z M 168.42 132.46 L 169.43 132.17 C 170.41 131.89 170.97 130.87 170.69 129.89 C 170.40 128.91 169.38 128.35 168.41 128.63 L 167.39 128.93 C 166.42 129.21 165.86 130.23 166.14 131.21 C 166.42 132.18 167.44 132.75 168.42 132.46 Z M 169.42 132.16 L 170.39 131.88 C 171.36 131.60 171.92 130.59 171.64 129.62 C 171.36 128.65 170.35 128.09 169.38 128.37 L 168.41 128.64 C 167.44 128.92 166.88 129.94 167.16 130.91 C 167.44 131.88 168.45 132.44 169.42 132.16 Z M 170.37 131.86 L 171.50 131.54 C 172.45 131.27 173.01 130.27 172.74 129.31 C 172.46 128.36 171.47 127.80 170.51 128.07 L 169.39 128.39 C 168.43 128.66 167.88 129.66 168.15 130.62 C 168.42 131.57 169.42 132.13 170.37 131.86 Z M 171.47 131.49 L 172.47 131.22 C 173.40 130.96 173.95 130.00 173.69 129.07 C 173.44 128.14 172.48 127.59 171.54 127.84 L 170.54 128.12 C 169.61 128.37 169.06 129.34 169.32 130.27 C 169.57 131.20 170.53 131.75 171.47 131.49 Z M 172.42 131.18 L 173.29 130.96 C 174.20 130.73 174.75 129.81 174.52 128.90 C 174.30 127.99 173.37 127.44 172.46 127.67 L 171.59 127.88 C 170.68 128.11 170.13 129.04 170.36 129.95 C 170.59 130.85 171.51 131.41 172.42 131.18 Z M 173.22 130.93 L 174.12 130.73 C 175.01 130.55 175.58 129.67 175.39 128.78 C 175.20 127.89 174.32 127.32 173.43 127.51 L 172.54 127.70 C 171.64 127.89 171.08 128.76 171.26 129.65 C 171.45 130.54 172.33 131.11 173.22 130.93 Z M 174.03 130.71 L 175.03 130.55 C 175.91 130.41 176.51 129.58 176.37 128.70 C 176.23 127.82 175.40 127.22 174.52 127.37 L 173.52 127.53 C 172.64 127.67 172.04 128.50 172.18 129.38 C 172.33 130.26 173.15 130.86 174.03 130.71 Z M 174.98 130.53 L 175.93 130.41 C 176.80 130.30 177.41 129.51 177.30 128.64 C 177.19 127.77 176.40 127.15 175.53 127.27 L 174.58 127.39 C 173.71 127.50 173.09 128.29 173.20 129.16 C 173.32 130.03 174.11 130.64 174.98 130.53 Z M 175.92 130.40 L 176.03 130.38 C 176.89 130.28 177.51 129.50 177.40 128.64 C 177.30 127.78 176.52 127.16 175.66 127.27 L 175.54 127.28 C 174.68 127.38 174.07 128.16 174.17 129.02 C 174.28 129.89 175.06 130.50 175.92 130.40 Z"
      fill="black"
      fill-rule="nonzero" /><path d="M 151.36 142.84 L 151.36 143.81 C 151.36 144.77 152.14 145.56 153.11 145.56 C 154.07 145.56 154.86 144.78 154.86 143.81 L 154.86 142.84 C 154.86 141.88 154.08 141.10 153.11 141.10 C 152.15 141.09 151.36 141.88 151.36 142.84 Z M 151.36 143.80 L 151.35 144.80 C 151.35 145.77 152.13 146.56 153.09 146.56 C 154.06 146.57 154.85 145.79 154.86 144.82 L 154.86 143.82 C 154.87 142.85 154.09 142.06 153.12 142.06 C 152.15 142.05 151.36 142.83 151.36 143.80 Z M 151.35 144.79 L 151.33 145.79 C 151.32 146.76 152.09 147.56 153.06 147.57 C 154.04 147.59 154.83 146.81 154.85 145.84 L 154.86 144.84 C 154.87 143.86 154.10 143.07 153.13 143.05 C 152.16 143.04 151.36 143.81 151.35 144.79 Z M 151.34 145.77 L 151.31 146.74 C 151.29 147.71 152.05 148.51 153.02 148.54 C 153.99 148.56 154.80 147.79 154.82 146.83 L 154.84 145.86 C 154.87 144.89 154.10 144.09 153.13 144.06 C 152.16 144.04 151.36 144.80 151.34 145.77 Z M 151.32 146.72 L 151.28 147.73 C 151.25 148.70 152.00 149.51 152.96 149.54 C 153.93 149.58 154.74 148.83 154.77 147.86 L 154.81 146.85 C 154.85 145.88 154.09 145.07 153.13 145.04 C 152.17 145.00 151.36 145.75 151.32 146.72 Z M 151.29 147.71 L 151.24 148.72 C 151.19 149.68 151.93 150.50 152.88 150.55 C 153.84 150.60 154.66 149.86 154.71 148.90 L 154.76 147.89 C 154.81 146.93 154.08 146.11 153.12 146.06 C 152.16 146.01 151.34 146.75 151.29 147.71 Z M 151.24 148.69 L 151.18 149.59 C 151.12 150.55 151.84 151.37 152.79 151.44 C 153.75 151.51 154.58 150.78 154.64 149.83 L 154.71 148.93 C 154.77 147.97 154.05 147.14 153.09 147.08 C 152.14 147.01 151.31 147.73 151.24 148.69 Z M 151.19 149.56 L 151.10 150.52 C 151.02 151.48 151.73 152.32 152.68 152.40 C 153.63 152.49 154.47 151.78 154.56 150.82 L 154.64 149.86 C 154.72 148.90 154.02 148.06 153.06 147.98 C 152.11 147.90 151.27 148.60 151.19 149.56 Z M 151.11 150.49 L 150.99 151.55 C 150.89 152.51 151.58 153.36 152.53 153.46 C 153.49 153.56 154.34 152.87 154.44 151.92 L 154.55 150.86 C 154.65 149.91 153.96 149.05 153.01 148.95 C 152.06 148.85 151.21 149.54 151.11 150.49 Z M 151.00 151.52 L 150.87 152.59 C 150.75 153.54 151.42 154.41 152.37 154.52 C 153.32 154.64 154.19 153.97 154.30 153.02 L 154.44 151.95 C 154.55 151.00 153.88 150.13 152.93 150.02 C 151.98 149.90 151.12 150.57 151.00 151.52 Z M 150.87 152.57 L 150.73 153.57 C 150.60 154.52 151.27 155.39 152.21 155.52 C 153.16 155.65 154.03 154.99 154.16 154.04 L 154.30 153.04 C 154.43 152.09 153.77 151.22 152.82 151.09 C 151.87 150.96 151.00 151.62 150.87 152.57 Z M 150.74 153.56 L 150.59 154.59 C 150.45 155.53 151.10 156.41 152.05 156.55 C 152.99 156.69 153.87 156.03 154.01 155.09 L 154.16 154.06 C 154.29 153.11 153.64 152.24 152.70 152.10 C 151.75 151.96 150.88 152.61 150.74 153.56 Z M 150.59 154.58 L 150.43 155.59 C 150.29 156.53 150.93 157.41 151.88 157.56 C 152.82 157.71 153.70 157.06 153.84 156.12 L 154.00 155.10 C 154.15 154.16 153.50 153.28 152.56 153.13 C 151.62 152.99 150.74 153.63 150.59 154.58 Z M 150.44 155.58 L 150.28 156.54 C 150.13 157.48 150.77 158.36 151.71 158.51 C 152.65 158.67 153.53 158.03 153.68 157.09 L 153.84 156.13 C 153.99 155.19 153.35 154.31 152.41 154.15 C 151.48 154.00 150.59 154.64 150.44 155.58 Z M 150.30 156.52 L 150.11 157.61 C 149.95 158.54 150.58 159.42 151.51 159.58 C 152.44 159.74 153.33 159.12 153.49 158.19 L 153.67 157.10 C 153.83 156.17 153.21 155.29 152.27 155.13 C 151.34 154.97 150.46 155.59 150.30 156.52 Z M 150.14 157.59 L 149.95 158.64 C 149.78 159.56 150.39 160.43 151.31 160.60 C 152.22 160.77 153.10 160.16 153.27 159.24 L 153.46 158.20 C 153.62 157.28 153.02 156.40 152.10 156.24 C 151.18 156.07 150.31 156.68 150.14 157.59 Z M 149.98 158.64 L 149.81 159.53 C 149.65 160.43 150.24 161.30 151.14 161.47 C 152.04 161.63 152.90 161.04 153.07 160.14 L 153.24 159.25 C 153.40 158.35 152.81 157.48 151.91 157.31 C 151.01 157.15 150.15 157.74 149.98 158.64 Z M 149.84 159.55 L 149.68 160.44 C 149.52 161.32 150.11 162.17 150.99 162.33 C 151.88 162.48 152.72 161.90 152.88 161.01 L 153.04 160.13 C 153.20 159.24 152.61 158.40 151.73 158.24 C 150.85 158.08 150.00 158.67 149.84 159.55 Z M 149.70 160.46 L 149.54 161.46 C 149.39 162.33 149.98 163.16 150.85 163.30 C 151.73 163.45 152.55 162.86 152.70 161.98 L 152.86 160.99 C 153.01 160.11 152.41 159.29 151.54 159.14 C 150.67 159.00 149.84 159.59 149.70 160.46 Z M 149.55 161.48 L 149.40 162.45 C 149.27 163.31 149.86 164.12 150.72 164.26 C 151.59 164.39 152.39 163.80 152.53 162.93 L 152.68 161.96 C 152.81 161.10 152.22 160.29 151.36 160.16 C 150.49 160.03 149.69 160.62 149.55 161.48 Z M 149.41 162.46 L 149.38 162.70 C 149.25 163.55 149.84 164.35 150.69 164.48 C 151.55 164.61 152.35 164.02 152.48 163.17 L 152.52 162.93 C 152.65 162.07 152.06 161.27 151.20 161.14 C 150.35 161.01 149.55 161.60 149.41 162.46 Z"
      fill="black"
      fill-rule="nonzero" /><path d="M 156.69 142.29 L 155.68 141.77 C 154.79 141.31 153.70 141.66 153.25 142.54 C 152.79 143.43 153.13 144.52 154.02 144.98 L 155.03 145.50 C 155.92 145.96 157.01 145.61 157.47 144.73 C 157.93 143.84 157.58 142.75 156.69 142.29 Z M 156.52 142.74 L 156.29 142.12 C 155.93 141.20 154.90 140.74 153.98 141.09 C 153.06 141.45 152.60 142.48 152.95 143.40 L 153.18 144.01 C 153.54 144.93 154.57 145.40 155.49 145.04 C 156.41 144.69 156.87 143.66 156.52 142.74 Z M 155.92 143.96 L 156.50 143.33 C 157.16 142.60 157.11 141.48 156.39 140.82 C 155.67 140.16 154.55 140.21 153.89 140.93 L 153.31 141.56 C 152.65 142.29 152.70 143.41 153.42 144.07 C 154.14 144.73 155.26 144.68 155.92 143.96 Z M 156.22 143.57 L 157.21 142.86 C 158.00 142.29 158.19 141.19 157.62 140.40 C 157.05 139.60 155.95 139.42 155.16 139.99 L 154.17 140.70 C 153.38 141.26 153.19 142.36 153.76 143.16 C 154.33 143.95 155.43 144.13 156.22 143.57 Z M 157.16 142.89 L 157.98 142.34 C 158.79 141.80 159.01 140.71 158.47 139.90 C 157.93 139.09 156.84 138.88 156.03 139.41 L 155.21 139.96 C 154.40 140.50 154.18 141.59 154.72 142.40 C 155.26 143.20 156.35 143.42 157.16 142.89 Z M 157.96 142.34 L 158.80 141.79 C 159.61 141.27 159.84 140.18 159.31 139.37 C 158.79 138.56 157.70 138.33 156.89 138.86 L 156.05 139.41 C 155.24 139.94 155.01 141.02 155.54 141.83 C 156.07 142.64 157.15 142.87 157.96 142.34 Z M 158.78 141.80 L 159.64 141.25 C 160.45 140.74 160.69 139.66 160.17 138.85 C 159.66 138.03 158.58 137.80 157.77 138.31 L 156.91 138.86 C 156.10 139.37 155.86 140.45 156.38 141.26 C 156.89 142.08 157.97 142.32 158.78 141.80 Z M 159.62 141.26 L 160.49 140.72 C 161.31 140.21 161.56 139.14 161.05 138.33 C 160.55 137.51 159.47 137.26 158.66 137.77 L 157.79 138.31 C 156.97 138.81 156.72 139.88 157.22 140.70 C 157.73 141.52 158.80 141.77 159.62 141.26 Z M 160.46 140.73 L 161.33 140.21 C 162.15 139.72 162.42 138.66 161.93 137.84 C 161.44 137.01 160.37 136.75 159.55 137.24 L 158.69 137.75 C 157.86 138.25 157.60 139.31 158.09 140.13 C 158.58 140.95 159.64 141.22 160.46 140.73 Z M 161.29 140.23 L 162.14 139.75 C 162.97 139.28 163.26 138.22 162.79 137.39 C 162.32 136.56 161.27 136.27 160.43 136.74 L 159.59 137.22 C 158.76 137.69 158.47 138.75 158.94 139.58 C 159.41 140.41 160.46 140.70 161.29 140.23 Z M 162.08 139.77 L 163.00 139.30 C 163.84 138.86 164.17 137.82 163.73 136.97 C 163.29 136.13 162.25 135.80 161.41 136.24 L 160.49 136.72 C 159.65 137.16 159.32 138.20 159.76 139.04 C 160.20 139.89 161.24 140.21 162.08 139.77 Z M 162.90 139.34 L 163.81 138.94 C 164.68 138.55 165.07 137.54 164.68 136.67 C 164.30 135.80 163.28 135.41 162.42 135.79 L 161.51 136.20 C 160.64 136.58 160.25 137.60 160.63 138.46 C 161.01 139.33 162.03 139.73 162.90 139.34 Z M 163.65 139.00 L 164.59 138.69 C 165.49 138.40 165.98 137.43 165.69 136.52 C 165.39 135.62 164.42 135.13 163.52 135.42 L 162.58 135.73 C 161.68 136.03 161.18 137.00 161.48 137.90 C 161.77 138.80 162.74 139.29 163.65 139.00 Z M 164.31 138.77 L 165.37 138.61 C 166.31 138.47 166.96 137.59 166.82 136.65 C 166.68 135.70 165.80 135.05 164.86 135.19 L 163.80 135.35 C 162.86 135.49 162.21 136.37 162.35 137.31 C 162.49 138.26 163.37 138.91 164.31 138.77 Z M 164.75 138.61 L 165.61 138.80 C 166.56 139.00 167.49 138.40 167.69 137.45 C 167.89 136.51 167.29 135.58 166.35 135.38 L 165.48 135.19 C 164.54 134.99 163.61 135.59 163.40 136.53 C 163.20 137.48 163.80 138.41 164.75 138.61 Z M 164.62 138.23 L 165.21 138.92 C 165.84 139.67 166.95 139.77 167.70 139.14 C 168.45 138.51 168.55 137.39 167.92 136.64 L 167.34 135.95 C 166.71 135.20 165.59 135.10 164.84 135.73 C 164.09 136.36 163.99 137.48 164.62 138.23 Z M 164.84 138.29 L 165.14 139.31 C 165.42 140.26 166.42 140.80 167.37 140.52 C 168.32 140.24 168.87 139.25 168.59 138.29 L 168.29 137.28 C 168.01 136.33 167.01 135.78 166.06 136.06 C 165.11 136.34 164.56 137.34 164.84 138.29 Z M 165.07 139.07 L 165.21 140.01 C 165.36 141.00 166.28 141.68 167.27 141.54 C 168.26 141.39 168.94 140.47 168.80 139.48 L 168.65 138.53 C 168.51 137.54 167.58 136.86 166.59 137.01 C 165.61 137.16 164.92 138.08 165.07 139.07 Z M 165.19 139.91 L 165.29 140.92 C 165.38 141.92 166.26 142.66 167.26 142.57 C 168.26 142.48 169.00 141.59 168.91 140.59 L 168.82 139.58 C 168.73 138.58 167.84 137.84 166.84 137.93 C 165.84 138.02 165.10 138.91 165.19 139.91 Z M 165.28 140.89 L 165.35 141.87 C 165.42 142.88 166.29 143.64 167.30 143.56 C 168.31 143.49 169.06 142.62 168.99 141.61 L 168.92 140.63 C 168.85 139.62 167.97 138.86 166.97 138.93 C 165.96 139.01 165.20 139.88 165.28 140.89 Z M 165.34 141.85 L 165.40 142.84 C 165.46 143.85 166.33 144.62 167.34 144.55 C 168.35 144.49 169.12 143.62 169.06 142.61 L 169.00 141.63 C 168.93 140.62 168.06 139.85 167.05 139.91 C 166.04 139.98 165.28 140.85 165.34 141.85 Z M 165.40 142.81 L 165.44 143.85 C 165.49 144.86 166.35 145.65 167.37 145.60 C 168.38 145.55 169.16 144.69 169.11 143.68 L 169.06 142.64 C 169.02 141.63 168.16 140.84 167.14 140.89 C 166.13 140.94 165.35 141.80 165.40 142.81 Z M 165.44 143.82 L 165.47 144.76 C 165.50 145.77 166.34 146.57 167.36 146.54 C 168.37 146.52 169.17 145.67 169.14 144.65 L 169.12 143.71 C 169.09 142.70 168.24 141.90 167.23 141.93 C 166.21 141.95 165.41 142.80 165.44 143.82 Z M 165.46 144.73 L 165.48 145.68 C 165.49 146.70 166.33 147.51 167.34 147.50 C 168.36 147.48 169.17 146.64 169.16 145.63 L 169.15 144.68 C 169.13 143.66 168.30 142.85 167.28 142.87 C 166.26 142.88 165.45 143.72 165.46 144.73 Z M 165.48 145.67 L 165.49 146.70 C 165.49 147.72 166.33 148.54 167.34 148.53 C 168.36 148.52 169.18 147.69 169.17 146.67 L 169.16 145.64 C 169.15 144.62 168.32 143.80 167.30 143.81 C 166.28 143.82 165.47 144.65 165.48 145.67 Z M 165.48 146.71 L 165.49 147.78 C 165.51 148.80 166.34 149.62 167.36 149.61 C 168.38 149.60 169.19 148.76 169.18 147.75 L 169.17 146.67 C 169.16 145.65 168.33 144.83 167.31 144.84 C 166.29 144.85 165.47 145.69 165.48 146.71 Z M 165.49 147.79 L 165.51 148.79 C 165.52 149.80 166.36 150.62 167.38 150.60 C 168.40 150.59 169.21 149.75 169.20 148.74 L 169.18 147.74 C 169.17 146.72 168.33 145.91 167.31 145.92 C 166.30 145.93 165.48 146.77 165.49 147.79 Z M 165.51 148.79 L 165.52 149.82 C 165.54 150.84 166.38 151.65 167.39 151.64 C 168.41 151.62 169.23 150.78 169.21 149.76 L 169.20 148.73 C 169.18 147.71 168.34 146.90 167.32 146.92 C 166.31 146.93 165.49 147.77 165.51 148.79 Z M 165.52 149.82 L 165.54 150.84 C 165.55 151.86 166.39 152.67 167.41 152.66 C 168.43 152.64 169.24 151.80 169.23 150.79 L 169.21 149.76 C 169.20 148.75 168.36 147.93 167.34 147.95 C 166.32 147.96 165.51 148.80 165.52 149.82 Z M 165.54 150.84 L 165.55 151.81 C 165.56 152.83 166.40 153.64 167.42 153.63 C 168.44 153.61 169.25 152.78 169.24 151.76 L 169.23 150.79 C 169.21 149.77 168.38 148.96 167.36 148.97 C 166.34 148.98 165.52 149.82 165.54 150.84 Z M 165.55 151.80 L 165.56 152.93 C 165.57 153.94 166.40 154.76 167.42 154.75 C 168.44 154.75 169.26 153.91 169.25 152.89 L 169.24 151.77 C 169.23 150.75 168.40 149.93 167.38 149.94 C 166.36 149.95 165.54 150.78 165.55 151.80 Z M 165.56 152.92 L 165.57 153.93 C 165.57 154.94 166.40 155.77 167.42 155.76 C 168.43 155.76 169.26 154.93 169.25 153.91 L 169.25 152.90 C 169.24 151.88 168.41 151.06 167.40 151.07 C 166.38 151.07 165.56 151.90 165.56 152.92 Z M 165.57 153.92 L 165.57 154.83 C 165.57 155.85 166.39 156.67 167.41 156.67 C 168.43 156.67 169.25 155.85 169.25 154.83 L 169.25 153.92 C 169.25 152.90 168.42 152.07 167.41 152.08 C 166.39 152.08 165.57 152.90 165.57 153.92 Z M 165.57 154.83 L 165.57 155.82 C 165.57 156.84 166.39 157.66 167.41 157.66 C 168.43 157.66 169.25 156.84 169.25 155.82 L 169.25 154.83 C 169.25 153.81 168.43 152.99 167.41 152.99 C 166.39 152.99 165.57 153.81 165.57 154.83 Z M 165.58 155.82 L 165.58 156.83 C 165.58 157.85 166.40 158.67 167.41 158.67 C 168.42 158.67 169.24 157.85 169.24 156.83 L 169.24 155.82 C 169.24 154.81 168.42 153.99 167.41 153.99 C 166.40 153.99 165.58 154.81 165.58 155.82 Z M 165.58 156.83 L 165.58 157.78 C 165.58 158.79 166.40 159.61 167.41 159.61 C 168.42 159.61 169.24 158.79 169.24 157.78 L 169.24 156.83 C 169.24 155.82 168.42 155.00 167.41 155.00 C 166.40 155.00 165.58 155.82 165.58 156.83 Z M 165.59 157.78 L 165.59 158.76 C 165.59 159.76 166.41 160.57 167.41 160.57 C 168.41 160.57 169.23 159.76 169.23 158.76 L 169.23 157.78 C 169.23 156.78 168.41 155.96 167.41 155.96 C 166.41 155.96 165.59 156.78 165.59 157.78 Z M 165.61 158.76 L 165.61 159.76 C 165.61 160.75 166.42 161.55 167.41 161.55 C 168.40 161.55 169.21 160.75 169.21 159.76 L 169.21 158.76 C 169.21 157.76 168.40 156.96 167.41 156.96 C 166.42 156.96 165.61 157.76 165.61 158.76 Z M 165.64 159.76 L 165.64 160.74 C 165.64 161.72 166.43 162.51 167.41 162.51 C 168.39 162.51 169.18 161.72 169.18 160.74 L 169.18 159.76 C 169.18 158.78 168.39 157.98 167.41 157.98 C 166.43 157.98 165.64 158.78 165.64 159.76 Z M 165.66 160.74 L 165.66 161.73 C 165.66 162.70 166.44 163.48 167.41 163.48 C 168.38 163.48 169.16 162.70 169.16 161.73 L 169.16 160.74 C 169.16 159.77 168.38 158.99 167.41 158.99 C 166.44 158.99 165.66 159.77 165.66 160.74 Z M 165.69 161.73 L 165.69 162.77 C 165.69 163.72 166.46 164.49 167.41 164.49 C 168.36 164.49 169.13 163.72 169.13 162.77 L 169.13 161.73 C 169.13 160.78 168.36 160.01 167.41 160.01 C 166.46 160.01 165.69 160.78 165.69 161.73 Z M 165.71 162.77 L 165.71 163.01 C 165.71 163.95 166.47 164.71 167.41 164.71 C 168.35 164.71 169.11 163.95 169.11 163.01 L 169.11 162.77 C 169.11 161.83 168.35 161.07 167.41 161.07 C 166.47 161.07 165.71 161.83 165.71 162.77 Z"
      fill="black"
      fill-rule="nonzero" /><path d="M 157.56 152.11 L 157.86 151.16 C 158.16 150.23 157.65 149.22 156.72 148.92 C 155.78 148.62 154.78 149.13 154.48 150.07 L 154.17 151.02 C 153.87 151.95 154.38 152.95 155.32 153.26 C 156.25 153.56 157.25 153.04 157.56 152.11 Z M 157.75 151.49 L 158.23 150.62 C 158.71 149.75 158.39 148.65 157.52 148.17 C 156.64 147.68 155.54 148.00 155.06 148.88 L 154.58 149.74 C 154.10 150.62 154.42 151.72 155.30 152.20 C 156.17 152.68 157.27 152.36 157.75 151.49 Z M 157.86 151.10 L 158.56 150.47 C 159.30 149.80 159.36 148.65 158.68 147.90 C 158.01 147.16 156.86 147.10 156.12 147.78 L 155.42 148.40 C 154.68 149.08 154.62 150.23 155.30 150.97 C 155.97 151.72 157.12 151.77 157.86 151.10 Z M 158.18 150.70 L 159.04 150.24 C 159.91 149.77 160.24 148.69 159.77 147.82 C 159.31 146.95 158.22 146.62 157.35 147.09 L 156.49 147.55 C 155.62 148.02 155.30 149.10 155.76 149.97 C 156.23 150.84 157.31 151.17 158.18 150.70 Z M 158.84 150.28 L 159.82 149.89 C 160.72 149.54 161.16 148.53 160.81 147.63 C 160.45 146.74 159.44 146.30 158.55 146.65 L 157.56 147.04 C 156.66 147.39 156.22 148.41 156.58 149.30 C 156.93 150.20 157.94 150.64 158.84 150.28 Z M 159.74 149.88 L 160.73 149.54 C 161.62 149.23 162.10 148.27 161.79 147.38 C 161.48 146.49 160.52 146.02 159.63 146.32 L 158.63 146.66 C 157.74 146.97 157.27 147.94 157.58 148.83 C 157.88 149.71 158.85 150.19 159.74 149.88 Z M 160.68 149.52 L 161.66 149.21 C 162.53 148.93 163.02 148.00 162.74 147.12 C 162.47 146.24 161.53 145.76 160.65 146.04 L 159.68 146.34 C 158.80 146.62 158.32 147.55 158.59 148.43 C 158.87 149.31 159.80 149.80 160.68 149.52 Z M 161.59 149.19 L 162.53 148.93 C 163.40 148.69 163.90 147.79 163.66 146.92 C 163.42 146.05 162.52 145.55 161.65 145.79 L 160.72 146.05 C 159.85 146.30 159.34 147.20 159.59 148.06 C 159.83 148.93 160.73 149.44 161.59 149.19 Z M 162.45 148.92 L 163.45 148.69 C 164.31 148.49 164.85 147.63 164.65 146.77 C 164.45 145.91 163.59 145.37 162.73 145.57 L 161.73 145.80 C 160.87 146.00 160.33 146.86 160.53 147.72 C 160.73 148.58 161.59 149.12 162.45 148.92 Z M 163.37 148.69 L 164.35 148.51 C 165.21 148.35 165.78 147.53 165.62 146.67 C 165.46 145.81 164.64 145.24 163.78 145.40 L 162.80 145.57 C 161.94 145.73 161.37 146.55 161.53 147.41 C 161.69 148.27 162.51 148.84 163.37 148.69 Z M 164.31 148.50 L 165.10 148.38 C 165.95 148.24 166.54 147.44 166.40 146.59 C 166.27 145.73 165.47 145.15 164.61 145.28 L 163.82 145.40 C 162.97 145.54 162.38 146.34 162.52 147.19 C 162.65 148.05 163.45 148.64 164.31 148.50 Z"
      fill="black"
      fill-rule="nonzero" /><path d="M 154.55 158.70 L 155.46 158.69 C 156.42 158.67 157.19 157.88 157.17 156.92 C 157.16 155.96 156.37 155.19 155.41 155.21 L 154.50 155.22 C 153.53 155.24 152.77 156.03 152.78 156.99 C 152.80 157.95 153.59 158.72 154.55 158.70 Z M 155.61 158.74 L 156.62 158.64 C 157.61 158.54 158.33 157.66 158.23 156.67 C 158.14 155.68 157.26 154.96 156.27 155.06 L 155.26 155.16 C 154.27 155.26 153.55 156.14 153.65 157.13 C 153.74 158.11 154.62 158.84 155.61 158.74 Z M 156.82 158.63 L 157.82 158.42 C 158.81 158.21 159.44 157.25 159.23 156.26 C 159.02 155.27 158.06 154.64 157.07 154.85 L 156.07 155.06 C 155.08 155.27 154.45 156.24 154.66 157.23 C 154.87 158.21 155.84 158.84 156.82 158.63 Z M 157.94 158.37 L 158.90 158.09 C 159.86 157.82 160.41 156.82 160.13 155.86 C 159.86 154.91 158.86 154.36 157.91 154.63 L 156.95 154.91 C 155.99 155.18 155.44 156.18 155.72 157.14 C 155.99 158.09 156.99 158.64 157.94 158.37 Z M 158.95 158.03 L 159.94 157.70 C 160.85 157.40 161.36 156.41 161.06 155.49 C 160.75 154.58 159.77 154.07 158.85 154.38 L 157.86 154.70 C 156.94 155.00 156.44 155.99 156.74 156.91 C 157.04 157.83 158.03 158.33 158.95 158.03 Z M 159.95 157.65 L 160.92 157.31 C 161.81 157.00 162.28 156.03 161.97 155.14 C 161.67 154.26 160.70 153.78 159.81 154.09 L 158.83 154.43 C 157.94 154.74 157.47 155.71 157.78 156.60 C 158.09 157.49 159.06 157.96 159.95 157.65 Z M 160.92 157.27 L 161.90 156.92 C 162.77 156.61 163.22 155.67 162.91 154.80 C 162.61 153.94 161.66 153.48 160.80 153.79 L 159.81 154.14 C 158.95 154.44 158.50 155.39 158.80 156.25 C 159.11 157.12 160.05 157.57 160.92 157.27 Z M 161.89 156.88 L 162.81 156.55 C 163.65 156.25 164.09 155.32 163.79 154.48 C 163.49 153.64 162.57 153.20 161.72 153.50 L 160.81 153.83 C 159.96 154.13 159.53 155.06 159.83 155.90 C 160.13 156.74 161.05 157.18 161.89 156.88 Z M 162.80 156.51 L 163.49 156.26 C 164.32 155.97 164.74 155.06 164.45 154.24 C 164.15 153.42 163.25 152.99 162.42 153.29 L 161.73 153.54 C 160.91 153.83 160.49 154.74 160.78 155.56 C 161.08 156.38 161.98 156.81 162.80 156.51 Z"
      fill="black"
      fill-rule="nonzero" /><path d="M 151.55 167.98 L 152.56 168.12 C 153.52 168.25 154.40 167.58 154.53 166.63 C 154.66 165.68 154.00 164.79 153.04 164.66 L 152.03 164.52 C 151.07 164.39 150.19 165.06 150.06 166.01 C 149.93 166.96 150.59 167.84 151.55 167.98 Z M 152.78 168.21 L 153.76 168.22 C 154.76 168.24 155.59 167.44 155.60 166.43 C 155.62 165.43 154.82 164.60 153.81 164.59 L 152.83 164.57 C 151.83 164.56 151.00 165.36 150.98 166.36 C 150.97 167.37 151.77 168.19 152.78 168.21 Z M 154.20 168.20 L 155.06 168.00 C 156.05 167.77 156.67 166.78 156.44 165.79 C 156.21 164.80 155.22 164.19 154.23 164.41 L 153.37 164.61 C 152.38 164.84 151.76 165.83 151.99 166.82 C 152.22 167.81 153.21 168.42 154.20 168.20 Z M 155.38 167.84 L 156.27 167.44 C 157.17 167.04 157.57 165.98 157.17 165.08 C 156.77 164.17 155.71 163.77 154.81 164.17 L 153.91 164.57 C 153.01 164.98 152.61 166.03 153.01 166.94 C 153.41 167.84 154.47 168.24 155.38 167.84 Z M 156.34 167.34 L 157.29 166.84 C 158.14 166.40 158.47 165.36 158.03 164.51 C 157.59 163.66 156.54 163.33 155.69 163.77 L 154.74 164.27 C 153.89 164.71 153.56 165.76 154.00 166.61 C 154.44 167.45 155.49 167.78 156.34 167.34 Z M 157.27 166.81 L 158.10 166.38 C 158.93 165.95 159.26 164.93 158.82 164.10 C 158.39 163.27 157.37 162.95 156.54 163.38 L 155.71 163.81 C 154.88 164.24 154.56 165.26 154.99 166.09 C 155.42 166.92 156.45 167.24 157.27 166.81 Z M 158.09 166.36 L 158.99 165.89 C 159.81 165.47 160.13 164.46 159.71 163.64 C 159.28 162.82 158.28 162.50 157.46 162.93 L 156.56 163.40 C 155.74 163.82 155.42 164.83 155.84 165.64 C 156.27 166.46 157.27 166.78 158.09 166.36 Z M 158.98 165.87 L 159.93 165.38 C 160.73 164.96 161.04 163.97 160.63 163.16 C 160.21 162.36 159.22 162.05 158.41 162.46 L 157.47 162.95 C 156.67 163.37 156.35 164.36 156.77 165.16 C 157.19 165.97 158.18 166.28 158.98 165.87 Z M 159.92 165.36 L 160.84 164.88 C 161.63 164.46 161.94 163.48 161.53 162.69 C 161.12 161.90 160.14 161.59 159.34 162.00 L 158.42 162.48 C 157.63 162.90 157.32 163.88 157.73 164.67 C 158.15 165.46 159.12 165.77 159.92 165.36 Z M 160.84 164.86 L 161.73 164.39 C 162.51 163.98 162.82 163.01 162.41 162.23 C 162.00 161.44 161.03 161.14 160.24 161.55 L 159.35 162.02 C 158.56 162.43 158.26 163.40 158.67 164.18 C 159.08 164.97 160.05 165.27 160.84 164.86 Z M 161.72 164.38 L 162.61 163.91 C 163.38 163.51 163.68 162.55 163.27 161.77 C 162.87 160.99 161.90 160.69 161.13 161.10 L 160.25 161.57 C 159.47 161.97 159.17 162.93 159.58 163.71 C 159.99 164.49 160.95 164.79 161.72 164.38 Z M 162.60 163.90 L 163.48 163.44 C 164.25 163.03 164.54 162.08 164.13 161.31 C 163.73 160.54 162.78 160.25 162.01 160.66 L 161.13 161.12 C 160.37 161.52 160.07 162.47 160.48 163.24 C 160.88 164.01 161.83 164.31 162.60 163.90 Z M 163.47 163.43 L 163.80 163.26 C 164.56 162.86 164.85 161.91 164.45 161.15 C 164.05 160.38 163.10 160.09 162.34 160.49 L 162.01 160.66 C 161.25 161.07 160.96 162.01 161.36 162.78 C 161.76 163.54 162.71 163.83 163.47 163.43 Z"
      fill="black"
      fill-rule="nonzero" /><path d="M 156.93 162.71 L 156.69 163.63 C 156.47 164.50 157.00 165.39 157.87 165.61 C 158.74 165.84 159.62 165.31 159.85 164.44 L 160.09 163.52 C 160.31 162.64 159.78 161.76 158.91 161.53 C 158.04 161.31 157.15 161.84 156.93 162.71 Z M 156.66 163.56 L 156.38 164.52 C 156.12 165.41 156.62 166.35 157.51 166.61 C 158.40 166.87 159.33 166.36 159.59 165.48 L 159.88 164.51 C 160.14 163.62 159.63 162.69 158.75 162.43 C 157.86 162.16 156.93 162.67 156.66 163.56 Z M 156.37 164.42 L 156.04 165.35 C 155.71 166.25 156.18 167.23 157.07 167.55 C 157.96 167.87 158.94 167.41 159.26 166.51 L 159.60 165.58 C 159.92 164.69 159.46 163.71 158.57 163.38 C 157.67 163.06 156.69 163.53 156.37 164.42 Z M 156.04 165.28 L 155.68 166.17 C 155.31 167.06 155.74 168.07 156.62 168.43 C 157.51 168.80 158.52 168.37 158.89 167.49 L 159.26 166.59 C 159.62 165.71 159.20 164.69 158.31 164.33 C 157.42 163.96 156.41 164.39 156.04 165.28 Z M 155.68 166.13 L 155.27 167.08 C 154.89 167.96 155.29 168.99 156.18 169.38 C 157.06 169.76 158.09 169.35 158.47 168.47 L 158.88 167.52 C 159.27 166.64 158.86 165.61 157.98 165.23 C 157.09 164.84 156.07 165.25 155.68 166.13 Z M 155.27 167.07 L 154.84 168.04 C 154.45 168.93 154.86 169.96 155.74 170.35 C 156.63 170.74 157.66 170.34 158.05 169.45 L 158.48 168.48 C 158.87 167.59 158.46 166.56 157.57 166.17 C 156.69 165.78 155.65 166.19 155.27 167.07 Z M 154.84 168.05 L 154.42 169.00 C 154.04 169.89 154.45 170.92 155.34 171.31 C 156.23 171.69 157.26 171.29 157.65 170.40 L 158.06 169.44 C 158.44 168.55 158.03 167.52 157.14 167.13 C 156.25 166.75 155.22 167.16 154.84 168.05 Z M 154.42 169.00 L 154.02 169.93 C 153.64 170.82 154.05 171.85 154.94 172.24 C 155.83 172.62 156.86 172.21 157.25 171.32 L 157.65 170.39 C 158.03 169.50 157.62 168.47 156.73 168.09 C 155.84 167.70 154.81 168.11 154.42 169.00 Z M 154.03 169.93 L 153.65 170.80 C 153.26 171.69 153.67 172.72 154.56 173.10 C 155.45 173.49 156.48 173.08 156.87 172.19 L 157.24 171.32 C 157.63 170.44 157.22 169.40 156.33 169.02 C 155.44 168.63 154.41 169.04 154.03 169.93 Z M 153.66 170.79 L 153.22 171.78 C 152.83 172.66 153.23 173.69 154.12 174.08 C 155.00 174.47 156.03 174.07 156.42 173.19 L 156.86 172.20 C 157.25 171.32 156.85 170.29 155.96 169.90 C 155.08 169.51 154.05 169.91 153.66 170.79 Z M 153.23 171.78 L 152.84 172.65 C 152.45 173.53 152.85 174.56 153.73 174.95 C 154.61 175.34 155.64 174.94 156.03 174.06 L 156.41 173.19 C 156.80 172.31 156.41 171.28 155.53 170.89 C 154.65 170.50 153.62 170.90 153.23 171.78 Z M 152.84 172.66 L 152.49 173.48 C 152.11 174.36 152.51 175.38 153.39 175.76 C 154.27 176.15 155.29 175.74 155.67 174.86 L 156.03 174.04 C 156.41 173.16 156.00 172.14 155.12 171.76 C 154.25 171.38 153.22 171.79 152.84 172.66 Z M 152.49 173.49 L 152.12 174.35 C 151.74 175.23 152.15 176.24 153.03 176.62 C 153.90 177.00 154.92 176.60 155.30 175.72 L 155.67 174.86 C 156.05 173.98 155.64 172.96 154.76 172.58 C 153.89 172.21 152.87 172.61 152.49 173.49 Z M 152.13 174.33 L 151.68 175.35 C 151.29 176.22 151.68 177.24 152.55 177.63 C 153.42 178.02 154.44 177.63 154.83 176.76 L 155.29 175.74 C 155.68 174.87 155.29 173.85 154.42 173.46 C 153.55 173.07 152.52 173.46 152.13 174.33 Z M 151.69 175.32 L 151.29 176.17 C 150.89 177.03 151.26 178.06 152.12 178.46 C 152.99 178.87 154.01 178.49 154.42 177.63 L 154.82 176.78 C 155.22 175.92 154.85 174.89 153.99 174.49 C 153.12 174.09 152.10 174.46 151.69 175.32 Z M 151.31 176.15 L 150.87 177.05 C 150.45 177.91 150.81 178.94 151.67 179.36 C 152.52 179.77 153.55 179.41 153.97 178.56 L 154.41 177.65 C 154.82 176.80 154.46 175.77 153.61 175.35 C 152.75 174.94 151.72 175.29 151.31 176.15 Z M 150.88 177.04 L 150.41 177.97 C 149.99 178.82 150.33 179.85 151.18 180.28 C 152.03 180.70 153.06 180.36 153.49 179.51 L 153.95 178.58 C 154.38 177.73 154.04 176.69 153.19 176.27 C 152.34 175.84 151.30 176.19 150.88 177.04 Z M 150.43 177.95 L 149.94 178.87 C 149.51 179.71 149.83 180.75 150.67 181.19 C 151.51 181.63 152.55 181.30 152.99 180.46 L 153.47 179.53 C 153.91 178.69 153.58 177.65 152.74 177.22 C 151.90 176.78 150.86 177.10 150.43 177.95 Z M 149.96 178.84 L 149.44 179.79 C 148.99 180.62 149.29 181.66 150.12 182.12 C 150.95 182.57 151.99 182.27 152.45 181.44 L 152.97 180.49 C 153.43 179.66 153.12 178.62 152.29 178.16 C 151.46 177.71 150.42 178.01 149.96 178.84 Z M 149.47 179.76 L 148.96 180.63 C 148.49 181.44 148.77 182.49 149.58 182.96 C 150.40 183.44 151.44 183.16 151.92 182.34 L 152.42 181.47 C 152.90 180.66 152.62 179.61 151.80 179.14 C 150.99 178.67 149.94 178.94 149.47 179.76 Z M 148.99 180.59 L 148.51 181.38 C 148.01 182.18 148.26 183.23 149.06 183.72 C 149.85 184.22 150.90 183.97 151.40 183.17 L 151.89 182.38 C 152.38 181.58 152.14 180.53 151.34 180.04 C 150.54 179.54 149.49 179.79 148.99 180.59 Z M 148.56 181.32 L 147.85 182.36 C 147.32 183.13 147.52 184.18 148.28 184.70 C 149.05 185.23 150.11 185.04 150.63 184.27 L 151.34 183.23 C 151.87 182.46 151.68 181.41 150.91 180.88 C 150.14 180.35 149.09 180.55 148.56 181.32 Z M 148.06 182.14 L 147.51 182.70 C 146.86 183.35 146.87 184.41 147.52 185.05 C 148.18 185.70 149.23 185.69 149.88 185.04 L 150.42 184.48 C 151.07 183.83 151.06 182.77 150.41 182.13 C 149.76 181.48 148.70 181.49 148.06 182.14 Z M 150.32 183.73 L 150.27 183.23 C 150.20 182.33 149.41 181.66 148.51 181.74 C 147.61 181.82 146.95 182.61 147.02 183.50 L 147.07 184.01 C 147.14 184.90 147.93 185.57 148.83 185.49 C 149.73 185.42 150.39 184.63 150.32 183.73 Z M 150.16 183.85 L 150.55 182.65 C 150.82 181.82 150.36 180.92 149.53 180.65 C 148.69 180.38 147.80 180.84 147.53 181.67 L 147.14 182.88 C 146.87 183.71 147.32 184.61 148.16 184.88 C 148.99 185.15 149.89 184.69 150.16 183.85 Z M 150.46 182.81 L 150.85 181.97 C 151.20 181.18 150.86 180.25 150.07 179.89 C 149.28 179.53 148.35 179.88 148.00 180.67 L 147.61 181.52 C 147.25 182.30 147.60 183.23 148.39 183.59 C 149.18 183.95 150.11 183.60 150.46 182.81 Z M 150.80 182.06 L 151.26 181.21 C 151.67 180.45 151.39 179.50 150.63 179.09 C 149.87 178.68 148.92 178.96 148.51 179.72 L 148.05 180.57 C 147.64 181.33 147.92 182.28 148.68 182.69 C 149.44 183.10 150.38 182.82 150.80 182.06 Z M 151.22 181.27 L 151.79 180.33 C 152.23 179.59 151.99 178.63 151.25 178.19 C 150.51 177.74 149.55 177.98 149.11 178.72 L 148.54 179.66 C 148.10 180.40 148.34 181.36 149.08 181.80 C 149.82 182.25 150.78 182.01 151.22 181.27 Z M 151.77 180.36 L 152.31 179.50 C 152.77 178.77 152.55 177.80 151.82 177.34 C 151.10 176.88 150.13 177.10 149.67 177.83 L 149.13 178.69 C 148.67 179.42 148.89 180.38 149.61 180.84 C 150.34 181.30 151.31 181.09 151.77 180.36 Z M 152.30 179.51 L 152.87 178.64 C 153.34 177.92 153.13 176.95 152.41 176.48 C 151.69 176.01 150.72 176.22 150.25 176.94 L 149.68 177.81 C 149.21 178.53 149.42 179.50 150.14 179.97 C 150.86 180.44 151.83 180.24 152.30 179.51 Z M 152.85 178.66 L 153.43 177.81 C 153.91 177.09 153.72 176.12 153.00 175.64 C 152.28 175.16 151.31 175.35 150.83 176.07 L 150.26 176.92 C 149.78 177.64 149.97 178.61 150.69 179.09 C 151.40 179.57 152.37 179.38 152.85 178.66 Z M 153.41 177.83 L 153.96 177.04 C 154.45 176.33 154.28 175.36 153.57 174.87 C 152.86 174.37 151.89 174.55 151.39 175.26 L 150.85 176.04 C 150.35 176.75 150.53 177.73 151.24 178.22 C 151.95 178.71 152.92 178.54 153.41 177.83 Z M 153.94 177.08 L 154.60 176.19 C 155.11 175.50 154.97 174.52 154.27 174.00 C 153.58 173.49 152.59 173.63 152.08 174.33 L 151.42 175.22 C 150.90 175.91 151.05 176.89 151.74 177.41 C 152.44 177.92 153.42 177.78 153.94 177.08 Z M 154.56 176.25 L 155.17 175.50 C 155.72 174.83 155.62 173.84 154.94 173.29 C 154.27 172.74 153.28 172.84 152.73 173.52 L 152.12 174.27 C 151.57 174.94 151.67 175.93 152.34 176.48 C 153.02 177.03 154.01 176.93 154.56 176.25 Z M 155.13 175.56 L 155.73 174.89 C 156.31 174.24 156.26 173.24 155.61 172.66 C 154.96 172.07 153.96 172.13 153.38 172.78 L 152.77 173.46 C 152.19 174.11 152.25 175.11 152.90 175.69 C 153.55 176.27 154.55 176.21 155.13 175.56 Z M 155.71 174.94 L 156.39 174.23 C 157.00 173.60 156.98 172.58 156.35 171.97 C 155.71 171.36 154.70 171.38 154.08 172.02 L 153.40 172.73 C 152.79 173.36 152.81 174.37 153.44 174.99 C 154.08 175.60 155.09 175.58 155.71 174.94 Z M 156.36 174.31 L 157.09 173.61 C 157.74 172.99 157.77 171.96 157.15 171.31 C 156.53 170.65 155.50 170.63 154.85 171.25 L 154.11 171.94 C 153.46 172.56 153.44 173.59 154.06 174.25 C 154.67 174.90 155.71 174.93 156.36 174.31 Z M 157.04 173.71 L 157.83 173.05 C 158.53 172.46 158.62 171.40 158.03 170.70 C 157.44 169.99 156.38 169.90 155.68 170.49 L 154.89 171.15 C 154.19 171.74 154.10 172.80 154.69 173.50 C 155.28 174.21 156.34 174.30 157.04 173.71 Z M 157.74 173.20 L 158.57 172.62 C 159.36 172.08 159.56 171.00 159.01 170.21 C 158.47 169.42 157.38 169.22 156.60 169.77 L 155.76 170.34 C 154.97 170.89 154.78 171.97 155.32 172.76 C 155.87 173.55 156.95 173.75 157.74 173.20 Z M 158.38 172.83 L 159.26 172.40 C 160.16 171.96 160.53 170.87 160.09 169.97 C 159.65 169.07 158.57 168.69 157.66 169.13 L 156.79 169.56 C 155.88 170.00 155.51 171.09 155.95 171.99 C 156.39 172.89 157.48 173.27 158.38 172.83 Z M 158.90 172.61 L 159.89 172.37 C 160.91 172.13 161.53 171.11 161.29 170.09 C 161.05 169.08 160.03 168.45 159.01 168.69 L 158.02 168.93 C 157.00 169.17 156.38 170.19 156.62 171.21 C 156.86 172.22 157.88 172.85 158.90 172.61 Z M 159.46 172.49 L 160.45 172.49 C 161.53 172.49 162.41 171.61 162.40 170.52 C 162.40 169.44 161.52 168.56 160.44 168.57 L 159.44 168.57 C 158.36 168.57 157.49 169.45 157.49 170.54 C 157.49 171.62 158.37 172.50 159.46 172.49 Z M 160.00 172.49 L 160.92 172.70 C 162.00 172.94 163.08 172.26 163.32 171.18 C 163.57 170.09 162.89 169.02 161.80 168.77 L 160.88 168.57 C 159.80 168.32 158.72 169.00 158.48 170.09 C 158.23 171.17 158.92 172.25 160.00 172.49 Z M 160.52 172.58 L 161.40 172.98 C 162.42 173.45 163.62 173.00 164.08 171.98 C 164.55 170.96 164.10 169.75 163.08 169.29 L 162.20 168.89 C 161.18 168.42 159.98 168.88 159.51 169.90 C 159.05 170.92 159.50 172.12 160.52 172.58 Z M 161.17 172.87 L 162.07 173.42 C 163.03 174.01 164.28 173.71 164.87 172.76 C 165.46 171.80 165.16 170.55 164.21 169.96 L 163.30 169.40 C 162.35 168.82 161.10 169.11 160.51 170.07 C 159.92 171.02 160.21 172.28 161.17 172.87 Z M 161.99 173.37 L 162.81 173.93 C 163.74 174.57 165.00 174.33 165.64 173.40 C 166.27 172.48 166.04 171.21 165.11 170.58 L 164.29 170.01 C 163.36 169.38 162.10 169.62 161.46 170.54 C 160.83 171.47 161.06 172.74 161.99 173.37 Z M 162.78 173.91 L 163.62 174.51 C 164.53 175.16 165.80 174.95 166.45 174.04 C 167.11 173.12 166.89 171.85 165.98 171.20 L 165.14 170.60 C 164.23 169.95 162.96 170.16 162.31 171.07 C 161.65 171.99 161.87 173.26 162.78 173.91 Z M 163.60 174.49 L 164.42 175.09 C 165.32 175.75 166.60 175.55 167.26 174.64 C 167.92 173.74 167.72 172.47 166.81 171.81 L 166.00 171.21 C 165.09 170.55 163.82 170.75 163.16 171.66 C 162.50 172.56 162.70 173.83 163.60 174.49 Z M 164.42 175.08 L 165.26 175.70 C 166.16 176.36 167.43 176.16 168.09 175.26 C 168.75 174.36 168.56 173.10 167.66 172.44 L 166.81 171.82 C 165.91 171.16 164.65 171.35 163.98 172.25 C 163.32 173.15 163.52 174.42 164.42 175.08 Z M 165.26 175.68 L 166.02 176.24 C 166.91 176.91 168.17 176.72 168.83 175.83 C 169.49 174.94 169.31 173.69 168.42 173.02 L 167.66 172.46 C 166.77 171.79 165.51 171.98 164.85 172.87 C 164.19 173.76 164.37 175.01 165.26 175.68 Z M 166.01 176.22 L 166.78 176.81 C 167.65 177.48 168.91 177.31 169.57 176.43 C 170.24 175.56 170.08 174.31 169.20 173.64 L 168.43 173.05 C 167.55 172.38 166.30 172.55 165.63 173.42 C 164.97 174.30 165.13 175.55 166.01 176.22 Z M 166.77 176.78 L 167.56 177.40 C 168.42 178.07 169.67 177.92 170.34 177.06 C 171.01 176.19 170.86 174.95 170.00 174.28 L 169.21 173.66 C 168.35 172.99 167.10 173.14 166.43 174.00 C 165.76 174.87 165.91 176.11 166.77 176.78 Z M 167.56 177.38 L 168.35 178.00 C 169.20 178.67 170.43 178.53 171.11 177.68 C 171.78 176.83 171.64 175.60 170.79 174.93 L 170.00 174.30 C 169.15 173.63 167.91 173.77 167.24 174.62 C 166.57 175.47 166.71 176.70 167.56 177.38 Z M 168.36 177.98 L 169.14 178.60 C 169.98 179.27 171.20 179.13 171.87 178.30 C 172.54 177.46 172.40 176.24 171.56 175.57 L 170.78 174.95 C 169.94 174.28 168.72 174.42 168.05 175.26 C 167.39 176.09 167.52 177.31 168.36 177.98 Z M 169.16 178.58 L 169.94 179.21 C 170.77 179.87 171.97 179.73 172.63 178.91 C 173.29 178.08 173.15 176.88 172.33 176.22 L 171.55 175.60 C 170.72 174.94 169.52 175.07 168.86 175.90 C 168.20 176.72 168.34 177.92 169.16 178.58 Z M 169.96 179.19 L 170.75 179.81 C 171.56 180.46 172.74 180.33 173.39 179.51 C 174.04 178.70 173.91 177.52 173.09 176.87 L 172.31 176.24 C 171.49 175.59 170.31 175.73 169.66 176.54 C 169.01 177.35 169.15 178.54 169.96 179.19 Z M 170.77 179.80 L 171.56 180.41 C 172.36 181.04 173.53 180.90 174.16 180.10 C 174.79 179.30 174.65 178.13 173.85 177.50 L 173.06 176.88 C 172.26 176.25 171.10 176.39 170.46 177.19 C 169.83 178.00 169.97 179.16 170.77 179.80 Z M 171.60 180.40 L 172.39 181.01 C 173.19 181.62 174.33 181.47 174.94 180.67 C 175.55 179.88 175.40 178.73 174.60 178.12 L 173.81 177.51 C 173.01 176.90 171.87 177.05 171.26 177.85 C 170.65 178.64 170.80 179.79 171.60 180.40 Z M 172.43 180.99 L 173.23 181.59 C 174.02 182.18 175.13 182.02 175.72 181.23 C 176.31 180.45 176.15 179.33 175.37 178.74 L 174.56 178.14 C 173.78 177.55 172.66 177.71 172.08 178.50 C 171.49 179.28 171.65 180.40 172.43 180.99 Z M 173.27 181.56 L 174.04 182.13 C 174.81 182.70 175.90 182.54 176.46 181.77 C 177.03 180.99 176.87 179.91 176.10 179.34 L 175.33 178.77 C 174.56 178.20 173.47 178.36 172.90 179.14 C 172.33 179.91 172.50 180.99 173.27 181.56 Z M 174.07 182.11 L 174.82 182.66 C 175.58 183.21 176.65 183.04 177.20 182.28 C 177.75 181.52 177.58 180.45 176.82 179.90 L 176.07 179.36 C 175.31 178.81 174.24 178.98 173.69 179.74 C 173.14 180.50 173.31 181.56 174.07 182.11 Z M 174.86 182.64 L 175.74 183.26 C 176.49 183.79 177.53 183.61 178.06 182.86 C 178.59 182.11 178.41 181.07 177.66 180.54 L 176.78 179.92 C 176.03 179.39 174.99 179.57 174.46 180.32 C 173.93 181.07 174.11 182.11 174.86 182.64 Z M 175.77 183.25 L 176.54 183.78 C 177.29 184.30 178.31 184.11 178.82 183.36 C 179.34 182.62 179.15 181.60 178.40 181.08 L 177.63 180.55 C 176.88 180.03 175.86 180.22 175.35 180.97 C 174.83 181.71 175.02 182.73 175.77 183.25 Z M 176.56 183.77 L 177.37 184.32 C 178.11 184.83 179.12 184.63 179.62 183.89 C 180.12 183.15 179.93 182.15 179.19 181.64 L 178.39 181.09 C 177.65 180.59 176.64 180.78 176.13 181.52 C 175.63 182.26 175.82 183.27 176.56 183.77 Z M 177.38 184.31 L 178.25 184.89 C 178.98 185.39 179.98 185.20 180.47 184.46 C 180.97 183.73 180.78 182.74 180.04 182.24 L 179.18 181.66 C 178.45 181.16 177.45 181.35 176.95 182.08 C 176.46 182.82 176.65 183.81 177.38 184.31 Z M 178.26 184.88 L 179.13 185.47 C 179.85 185.96 180.84 185.76 181.33 185.04 C 181.81 184.31 181.62 183.33 180.90 182.84 L 180.03 182.25 C 179.31 181.76 178.32 181.96 177.83 182.68 C 177.34 183.41 177.53 184.39 178.26 184.88 Z"
      fill="black"
      fill-rule="nonzero" /></svg>