<svg xmlns="http://www.w3.org/2000/svg" width="300" height="300" viewBox="0 0 300 300">
<path d="M 133.14 109.15 L 134.07 108.71 C 134.98 108.28 135.37 107.19 134.93 106.28 C 134.50 105.37 133.41 104.98 132.50 105.41 L 131.58 105.85 C 130.67 106.28 130.28 107.37 130.71 108.28 C 131.14 109.19 132.23 109.58 133.14 109.15 Z M 134.13 108.66 L 135.01 108.19 C 135.90 107.73 136.24 106.64 135.77 105.75 C 135.31 104.87 134.22 104.53 133.34 104.99 L 132.45 105.46 C 131.56 105.92 131.22 107.02 131.69 107.90 C 132.15 108.78 133.24 109.12 134.13 108.66 Z M 135.14 108.10 L 135.93 107.59 C 136.76 107.06 137.00 105.96 136.47 105.13 C 135.94 104.29 134.83 104.05 134.00 104.58 L 133.21 105.09 C 132.38 105.62 132.14 106.72 132.67 107.56 C 133.20 108.39 134.30 108.63 135.14 108.10 Z M 136.09 107.47 L 136.74 106.94 C 137.50 106.32 137.62 105.20 137.00 104.43 C 136.38 103.67 135.26 103.56 134.50 104.18 L 133.84 104.71 C 133.08 105.33 132.96 106.45 133.58 107.21 C 134.20 107.97 135.32 108.09 136.09 107.47 Z M 136.84 106.85 L 137.54 106.18 C 138.25 105.51 138.28 104.38 137.61 103.67 C 136.93 102.96 135.81 102.93 135.10 103.60 L 134.40 104.27 C 133.69 104.94 133.66 106.07 134.33 106.78 C 135.01 107.49 136.13 107.52 136.84 106.85 Z M 137.57 106.15 L 138.43 105.29 C 139.13 104.60 139.13 103.47 138.44 102.78 C 137.74 102.09 136.62 102.09 135.93 102.78 L 135.07 103.64 C 134.37 104.33 134.37 105.45 135.06 106.15 C 135.76 106.84 136.88 106.84 137.57 106.15 Z M 138.43 105.29 L 139.10 104.63 C 139.79 103.94 139.80 102.82 139.11 102.12 C 138.41 101.42 137.29 101.42 136.59 102.11 L 135.93 102.77 C 135.23 103.46 135.23 104.59 135.92 105.29 C 136.61 105.98 137.74 105.99 138.43 105.29 Z M 139.10 104.65 L 139.83 103.93 C 140.53 103.24 140.54 102.11 139.85 101.40 C 139.16 100.70 138.03 100.69 137.33 101.38 L 136.59 102.10 C 135.89 102.79 135.88 103.92 136.57 104.62 C 137.26 105.33 138.39 105.34 139.10 104.65 Z M 139.82 103.94 L 140.59 103.20 C 141.30 102.51 141.31 101.38 140.62 100.67 C 139.93 99.96 138.80 99.94 138.09 100.63 L 137.33 101.37 C 136.62 102.06 136.60 103.19 137.29 103.90 C 137.98 104.61 139.11 104.63 139.82 103.94 Z M 140.58 103.22 L 141.33 102.50 C 142.05 101.82 142.08 100.68 141.39 99.96 C 140.70 99.24 139.56 99.21 138.84 99.90 L 138.09 100.61 C 137.37 101.30 137.35 102.44 138.03 103.16 C 138.72 103.88 139.86 103.91 140.58 103.22 Z M 141.32 102.53 L 142.02 101.87 C 142.75 101.19 142.79 100.05 142.11 99.32 C 141.43 98.59 140.29 98.55 139.55 99.23 L 138.86 99.88 C 138.12 100.56 138.08 101.70 138.76 102.43 C 139.44 103.16 140.59 103.21 141.32 102.53 Z M 141.99 101.94 L 143.03 101.03 C 143.80 100.36 143.88 99.21 143.21 98.44 C 142.55 97.67 141.39 97.59 140.63 98.26 L 139.58 99.16 C 138.82 99.83 138.74 100.99 139.40 101.75 C 140.07 102.52 141.23 102.60 141.99 101.94 Z M 142.86 101.22 L 143.65 100.70 C 144.52 100.13 144.76 98.96 144.19 98.09 C 143.62 97.22 142.45 96.98 141.58 97.55 L 140.80 98.07 C 139.93 98.64 139.69 99.81 140.26 100.68 C 140.83 101.55 142.00 101.79 142.86 101.22 Z M 142.67 101.05 L 143.19 101.04 C 144.25 101.01 145.09 100.12 145.06 99.06 C 145.03 97.99 144.14 97.15 143.08 97.18 L 142.56 97.20 C 141.50 97.23 140.66 98.12 140.69 99.18 C 140.72 100.25 141.61 101.08 142.67 101.05 Z M 141.32 99.88 L 141.60 100.53 C 142.03 101.53 143.18 101.99 144.18 101.57 C 145.18 101.14 145.64 99.99 145.21 98.99 L 144.94 98.34 C 144.51 97.34 143.36 96.88 142.36 97.30 C 141.36 97.73 140.90 98.89 141.32 99.88 Z M 141.42 99.90 L 141.51 101.20 C 141.58 102.29 142.53 103.12 143.63 103.05 C 144.73 102.97 145.56 102.02 145.48 100.92 L 145.40 99.63 C 145.32 98.53 144.37 97.70 143.27 97.77 C 142.17 97.85 141.35 98.80 141.42 99.90 Z M 141.49 101.10 L 141.51 102.10 C 141.53 103.21 142.44 104.09 143.55 104.07 C 144.66 104.05 145.55 103.14 145.52 102.03 L 145.51 101.02 C 145.49 99.91 144.57 99.03 143.46 99.05 C 142.35 99.07 141.47 99.99 141.49 101.10 Z M 141.50 102.08 L 141.51 103.12 C 141.52 104.23 142.43 105.13 143.54 105.12 C 144.66 105.11 145.55 104.20 145.54 103.08 L 145.53 102.05 C 145.52 100.93 144.61 100.04 143.50 100.05 C 142.38 100.06 141.49 100.97 141.50 102.08 Z M 141.50 103.11 L 141.50 104.16 C 141.51 105.28 142.42 106.18 143.54 106.18 C 144.65 106.17 145.56 105.27 145.55 104.15 L 145.55 103.09 C 145.54 101.98 144.63 101.07 143.52 101.08 C 142.40 101.08 141.50 101.99 141.50 103.11 Z M 141.50 104.16 L 141.50 105.15 C 141.50 106.27 142.41 107.18 143.53 107.17 C 144.65 107.17 145.56 106.26 145.56 105.14 L 145.56 104.15 C 145.56 103.03 144.65 102.12 143.53 102.12 C 142.41 102.13 141.50 103.04 141.50 104.16 Z M 141.49 105.14 L 141.49 106.27 C 141.49 107.39 142.40 108.30 143.53 108.30 C 144.65 108.30 145.57 107.39 145.57 106.27 L 145.57 105.14 C 145.57 104.02 144.65 103.11 143.53 103.11 C 142.40 103.11 141.49 104.02 141.49 105.14 Z M 141.49 106.27 L 141.49 107.27 C 141.49 108.40 142.40 109.31 143.53 109.31 C 144.66 109.31 145.57 108.40 145.57 107.27 L 145.57 106.27 C 145.57 105.14 144.66 104.23 143.53 104.23 C 142.40 104.23 141.49 105.14 141.49 106.27 Z M 141.49 107.27 L 141.49 108.13 C 141.49 109.25 142.40 110.17 143.53 110.17 C 144.66 110.17 145.57 109.25 145.57 108.13 L 145.57 107.27 C 145.57 106.14 144.66 105.23 143.53 105.23 C 142.40 105.23 141.49 106.14 141.49 107.27 Z M 141.48 108.13 L 141.48 109.09 C 141.48 110.22 142.40 111.14 143.53 111.14 C 144.66 111.14 145.58 110.22 145.58 109.09 L 145.58 108.13 C 145.58 106.99 144.66 106.08 143.53 106.08 C 142.40 106.08 141.48 106.99 141.48 108.13 Z M 141.48 109.09 L 141.48 110.10 C 141.48 111.23 142.40 112.15 143.53 112.15 C 144.66 112.15 145.58 111.23 145.58 110.10 L 145.58 109.09 C 145.58 107.96 144.66 107.04 143.53 107.04 C 142.40 107.04 141.48 107.96 141.48 109.09 Z M 141.47 110.10 L 141.47 111.09 C 141.47 112.23 142.39 113.15 143.53 113.15 C 144.66 113.15 145.59 112.23 145.59 111.09 L 145.59 110.10 C 145.59 108.96 144.66 108.04 143.53 108.04 C 142.39 108.04 141.47 108.96 141.47 110.10 Z M 141.47 111.09 L 141.47 112.08 C 141.47 113.22 142.39 114.14 143.53 114.14 C 144.67 114.14 145.59 113.22 145.59 112.08 L 145.59 111.09 C 145.59 109.95 144.67 109.03 143.53 109.03 C 142.39 109.03 141.47 109.95 141.47 111.09 Z M 141.47 112.08 L 141.47 113.11 C 141.47 114.25 142.39 115.17 143.53 115.17 C 144.67 115.17 145.59 114.25 145.59 113.11 L 145.59 112.08 C 145.59 110.94 144.67 110.02 143.53 110.02 C 142.39 110.02 141.47 110.94 141.47 112.08 Z M 141.46 113.11 L 141.46 114.10 C 141.46 115.24 142.39 116.17 143.53 116.17 C 144.67 116.17 145.60 115.24 145.60 114.10 L 145.60 113.11 C 145.60 111.97 144.67 111.04 143.53 111.04 C 142.39 111.04 141.46 111.97 141.46 113.11 Z M 141.45 114.10 L 141.45 115.11 C 141.45 116.26 142.38 117.19 143.53 117.19 C 144.68 117.19 145.61 116.26 145.61 115.11 L 145.61 114.10 C 145.61 112.95 144.68 112.03 143.53 112.03 C 142.38 112.03 141.45 112.95 141.45 114.10 Z M 141.45 115.11 L 141.45 116.12 C 141.45 117.27 142.38 118.21 143.53 118.21 C 144.68 118.21 145.61 117.27 145.61 116.12 L 145.61 115.11 C 145.61 113.96 144.68 113.03 143.53 113.03 C 142.38 113.03 141.45 113.96 141.45 115.11 Z M 141.44 116.12 L 141.44 117.14 C 141.44 118.29 142.38 119.23 143.53 119.23 C 144.68 119.23 145.62 118.29 145.62 117.14 L 145.62 116.12 C 145.62 114.97 144.68 114.03 143.53 114.03 C 142.38 114.03 141.44 114.97 141.44 116.12 Z M 141.43 117.14 L 141.43 118.12 C 141.43 119.28 142.37 120.22 143.53 120.22 C 144.69 120.22 145.63 119.28 145.63 118.12 L 145.63 117.14 C 145.63 115.98 144.69 115.04 143.53 115.04 C 142.37 115.04 141.43 115.98 141.43 117.14 Z M 141.42 118.12 L 141.42 119.13 C 141.42 120.29 142.37 121.24 143.53 121.24 C 144.69 121.24 145.64 120.29 145.64 119.13 L 145.64 118.12 C 145.64 116.96 144.69 116.01 143.53 116.01 C 142.37 116.01 141.42 116.96 141.42 118.12 Z M 141.41 119.13 L 141.41 120.13 C 141.41 121.30 142.36 122.24 143.53 122.24 C 144.70 122.24 145.65 121.30 145.65 120.13 L 145.65 119.13 C 145.65 117.96 144.70 117.01 143.53 117.01 C 142.36 117.01 141.41 117.96 141.41 119.13 Z M 141.40 120.13 L 141.40 121.08 C 141.40 122.25 142.35 123.20 143.53 123.20 C 144.70 123.20 145.66 122.25 145.66 121.08 L 145.66 120.13 C 145.66 118.95 144.70 118.00 143.53 118.00 C 142.36 118.00 141.40 118.95 141.40 120.13 Z M 141.39 121.07 L 141.39 122.00 C 141.38 123.18 142.33 124.14 143.51 124.15 C 144.69 124.15 145.65 123.20 145.66 122.02 L 145.66 121.09 C 145.67 119.91 144.72 118.95 143.54 118.94 C 142.36 118.94 141.40 119.89 141.39 121.07 Z M 141.38 121.97 L 141.36 123.04 C 141.34 124.23 142.28 125.20 143.46 125.23 C 144.65 125.25 145.62 124.31 145.65 123.12 L 145.67 122.05 C 145.69 120.87 144.75 119.89 143.57 119.87 C 142.38 119.85 141.40 120.79 141.38 121.97 Z M 141.35 123.01 L 141.32 123.97 C 141.28 125.16 142.21 126.15 143.40 126.19 C 144.59 126.23 145.59 125.30 145.63 124.11 L 145.66 123.16 C 145.70 121.97 144.77 120.97 143.58 120.93 C 142.39 120.89 141.39 121.82 141.35 123.01 Z M 141.30 123.94 L 141.26 124.95 C 141.21 126.14 142.14 127.16 143.33 127.21 C 144.53 127.26 145.55 126.33 145.60 125.13 L 145.64 124.13 C 145.69 122.94 144.76 121.92 143.57 121.87 C 142.37 121.82 141.36 122.75 141.30 123.94 Z M 141.24 124.92 L 141.19 125.97 C 141.13 127.17 142.05 128.20 143.26 128.27 C 144.46 128.33 145.49 127.40 145.56 126.20 L 145.61 125.16 C 145.68 123.95 144.75 122.92 143.54 122.86 C 142.34 122.79 141.31 123.72 141.24 124.92 Z M 141.18 125.94 L 141.11 126.97 C 141.04 128.18 141.96 129.23 143.17 129.31 C 144.38 129.38 145.43 128.46 145.51 127.25 L 145.57 126.22 C 145.65 125.01 144.73 123.96 143.51 123.89 C 142.30 123.81 141.25 124.73 141.18 125.94 Z M 141.11 126.93 L 141.03 127.93 C 140.93 129.14 141.84 130.21 143.05 130.30 C 144.27 130.40 145.34 129.49 145.43 128.28 L 145.51 127.29 C 145.61 126.07 144.70 125.00 143.48 124.91 C 142.27 124.81 141.20 125.72 141.11 126.93 Z M 141.03 127.86 L 140.92 128.84 C 140.79 130.06 141.66 131.15 142.88 131.28 C 144.10 131.42 145.19 130.54 145.32 129.32 L 145.43 128.34 C 145.57 127.13 144.69 126.03 143.47 125.90 C 142.25 125.77 141.16 126.64 141.03 127.86 Z M 140.93 128.75 L 140.78 129.75 C 140.59 130.96 141.43 132.09 142.64 132.27 C 143.85 132.46 144.98 131.62 145.17 130.41 L 145.32 129.41 C 145.50 128.20 144.67 127.07 143.45 126.89 C 142.24 126.70 141.11 127.54 140.93 128.75 Z M 140.79 129.64 L 140.58 130.67 C 140.34 131.88 141.12 133.05 142.32 133.29 C 143.53 133.53 144.70 132.75 144.95 131.55 L 145.15 130.52 C 145.40 129.31 144.62 128.14 143.41 127.90 C 142.21 127.65 141.03 128.43 140.79 129.64 Z M 140.61 130.54 L 140.34 131.55 C 140.02 132.75 140.73 133.97 141.92 134.28 C 143.11 134.60 144.34 133.89 144.65 132.70 L 144.92 131.68 C 145.23 130.49 144.52 129.27 143.33 128.95 C 142.14 128.64 140.92 129.35 140.61 130.54 Z M 140.39 131.37 L 140.06 132.30 C 139.65 133.46 140.25 134.74 141.41 135.16 C 142.58 135.57 143.85 134.96 144.27 133.80 L 144.60 132.88 C 145.01 131.71 144.41 130.44 143.25 130.02 C 142.08 129.61 140.81 130.21 140.39 131.37 Z M 140.19 131.99 L 139.72 132.88 C 139.13 133.97 139.54 135.32 140.63 135.91 C 141.72 136.49 143.08 136.08 143.66 134.99 L 144.14 134.11 C 144.72 133.02 144.31 131.66 143.22 131.08 C 142.13 130.50 140.78 130.90 140.19 131.99 Z M 140.19 132.27 L 139.43 132.96 C 138.51 133.78 138.43 135.20 139.26 136.12 C 140.09 137.04 141.50 137.11 142.42 136.29 L 143.19 135.60 C 144.11 134.77 144.18 133.36 143.35 132.44 C 142.53 131.52 141.11 131.44 140.19 132.27 Z M 140.87 132.39 L 140.07 132.41 C 138.84 132.44 137.86 133.46 137.89 134.69 C 137.92 135.93 138.94 136.91 140.18 136.88 L 140.98 136.86 C 142.21 136.83 143.19 135.80 143.16 134.57 C 143.13 133.33 142.11 132.36 140.87 132.39 Z M 141.42 132.85 L 140.76 132.37 C 139.77 131.66 138.39 131.88 137.67 132.87 C 136.96 133.86 137.18 135.24 138.17 135.96 L 138.82 136.43 C 139.81 137.15 141.20 136.93 141.92 135.94 C 142.63 134.95 142.41 133.57 141.42 132.85 Z M 141.20 132.86 L 140.56 132.01 C 139.84 131.05 138.48 130.85 137.52 131.57 C 136.56 132.30 136.37 133.66 137.09 134.62 L 137.73 135.47 C 138.45 136.43 139.81 136.62 140.77 135.90 C 141.73 135.18 141.92 133.82 141.20 132.86 Z M 140.69 132.30 L 140.16 131.33 C 139.61 130.30 138.32 129.92 137.29 130.47 C 136.26 131.03 135.88 132.32 136.43 133.35 L 136.96 134.32 C 137.52 135.35 138.80 135.73 139.83 135.18 C 140.86 134.62 141.25 133.33 140.69 132.30 Z M 140.16 131.51 L 139.77 130.65 C 139.31 129.62 138.11 129.16 137.08 129.62 C 136.05 130.08 135.59 131.28 136.05 132.31 L 136.44 133.17 C 136.90 134.20 138.11 134.66 139.13 134.20 C 140.16 133.74 140.62 132.53 140.16 131.51 Z M 139.71 130.76 L 139.33 129.82 C 138.93 128.83 137.81 128.35 136.82 128.75 C 135.82 129.15 135.34 130.27 135.74 131.27 L 136.12 132.20 C 136.52 133.19 137.64 133.67 138.63 133.27 C 139.63 132.88 140.11 131.75 139.71 130.76 Z M 139.25 129.90 L 138.88 128.92 C 138.53 127.97 137.47 127.49 136.52 127.85 C 135.58 128.20 135.10 129.26 135.45 130.21 L 135.82 131.19 C 136.18 132.14 137.23 132.62 138.18 132.26 C 139.13 131.90 139.61 130.85 139.25 129.90 Z M 138.81 128.96 L 138.54 128.22 C 138.20 127.32 137.20 126.86 136.30 127.19 C 135.39 127.52 134.93 128.52 135.26 129.42 L 135.53 130.16 C 135.86 131.07 136.86 131.53 137.77 131.20 C 138.67 130.87 139.14 129.87 138.81 128.96 Z"
      fill="black"
      fill-rule="nonzero" /><path d="M 132.01 115.81 L 133.03 115.90 C 134.01 115.98 134.87 115.25 134.95 114.26 C 135.03 113.28 134.30 112.42 133.32 112.34 L 132.31 112.26 C 131.33 112.17 130.46 112.90 130.38 113.89 C 130.30 114.87 131.03 115.73 132.01 115.81 Z M 132.97 115.92 L 133.96 116.03 C 134.96 116.15 135.86 115.43 135.97 114.44 C 136.08 113.44 135.37 112.54 134.37 112.43 L 133.38 112.32 C 132.39 112.20 131.49 112.92 131.37 113.91 C 131.26 114.91 131.97 115.81 132.97 115.92 Z M 133.84 116.03 L 134.80 116.21 C 135.80 116.40 136.75 115.74 136.94 114.74 C 137.12 113.74 136.46 112.79 135.47 112.61 L 134.50 112.43 C 133.50 112.24 132.55 112.90 132.36 113.90 C 132.18 114.90 132.84 115.85 133.84 116.03 Z M 134.65 116.17 L 135.60 116.44 C 136.57 116.71 137.58 116.13 137.85 115.16 C 138.12 114.19 137.55 113.18 136.57 112.91 L 135.62 112.65 C 134.65 112.38 133.64 112.95 133.37 113.92 C 133.10 114.90 133.67 115.90 134.65 116.17 Z M 135.48 116.38 L 136.43 116.72 C 137.37 117.05 138.41 116.56 138.74 115.61 C 139.08 114.67 138.58 113.64 137.64 113.30 L 136.69 112.97 C 135.75 112.63 134.71 113.12 134.38 114.07 C 134.05 115.01 134.54 116.05 135.48 116.38 Z M 136.36 116.67 L 137.28 117.04 C 138.20 117.41 139.24 116.97 139.61 116.06 C 139.99 115.14 139.55 114.10 138.63 113.72 L 137.71 113.35 C 136.79 112.98 135.75 113.42 135.38 114.33 C 135.00 115.25 135.44 116.30 136.36 116.67 Z M 137.22 116.99 L 138.13 117.41 C 139.02 117.82 140.07 117.43 140.48 116.54 C 140.89 115.65 140.50 114.60 139.61 114.19 L 138.69 113.77 C 137.81 113.37 136.75 113.75 136.35 114.64 C 135.94 115.53 136.33 116.58 137.22 116.99 Z M 138.05 117.35 L 138.94 117.83 C 139.80 118.28 140.86 117.95 141.31 117.10 C 141.77 116.24 141.44 115.18 140.58 114.73 L 139.69 114.25 C 138.84 113.80 137.78 114.13 137.32 114.98 C 136.87 115.84 137.20 116.90 138.05 117.35 Z M 138.85 117.77 L 139.71 118.30 C 140.53 118.80 141.61 118.54 142.12 117.72 C 142.62 116.89 142.36 115.81 141.54 115.31 L 140.68 114.78 C 139.85 114.27 138.77 114.53 138.27 115.36 C 137.76 116.19 138.02 117.26 138.85 117.77 Z M 139.64 118.27 L 140.46 118.82 C 141.27 119.36 142.37 119.15 142.91 118.34 C 143.46 117.53 143.24 116.43 142.43 115.89 L 141.61 115.34 C 140.80 114.79 139.70 115.01 139.16 115.82 C 138.61 116.63 138.83 117.73 139.64 118.27 Z M 140.44 118.82 L 140.74 119.02 C 141.54 119.57 142.65 119.37 143.20 118.56 C 143.76 117.76 143.55 116.65 142.75 116.10 L 142.45 115.89 C 141.64 115.34 140.54 115.54 139.98 116.35 C 139.43 117.16 139.63 118.26 140.44 118.82 Z"
      fill="black"
      fill-rule="nonzero" /><path d="M 131.36 125.61 L 132.27 125.27 C 133.17 124.93 133.62 123.93 133.28 123.03 C 132.94 122.13 131.94 121.68 131.04 122.02 L 130.13 122.36 C 129.24 122.70 128.78 123.71 129.12 124.60 C 129.46 125.50 130.47 125.95 131.36 125.61 Z M 132.35 125.35 L 133.28 124.97 C 134.22 124.58 134.67 123.51 134.29 122.57 C 133.90 121.63 132.83 121.18 131.89 121.56 L 130.96 121.94 C 130.02 122.33 129.57 123.40 129.95 124.34 C 130.34 125.28 131.41 125.73 132.35 125.35 Z M 133.38 125.00 L 134.30 124.58 C 135.26 124.14 135.68 123.01 135.24 122.05 C 134.80 121.09 133.67 120.67 132.71 121.11 L 131.79 121.53 C 130.83 121.97 130.41 123.10 130.85 124.06 C 131.29 125.02 132.42 125.44 133.38 125.00 Z M 134.37 124.55 L 135.27 124.09 C 136.21 123.61 136.58 122.46 136.10 121.52 C 135.62 120.58 134.47 120.21 133.53 120.69 L 132.64 121.14 C 131.70 121.62 131.32 122.77 131.80 123.71 C 132.28 124.65 133.43 125.03 134.37 124.55 Z M 135.31 124.04 L 136.20 123.55 C 137.11 123.04 137.44 121.90 136.93 120.99 C 136.43 120.08 135.29 119.75 134.38 120.25 L 133.49 120.74 C 132.58 121.24 132.25 122.39 132.75 123.30 C 133.25 124.21 134.40 124.54 135.31 124.04 Z M 136.22 123.48 L 137.05 122.99 C 137.93 122.47 138.22 121.34 137.70 120.47 C 137.18 119.59 136.05 119.30 135.18 119.82 L 134.35 120.31 C 133.47 120.83 133.18 121.96 133.70 122.84 C 134.22 123.71 135.35 124.00 136.22 123.48 Z M 137.08 122.91 L 137.89 122.39 C 138.72 121.86 138.96 120.76 138.43 119.93 C 137.89 119.10 136.79 118.85 135.96 119.39 L 135.15 119.90 C 134.32 120.44 134.08 121.54 134.61 122.37 C 135.14 123.20 136.25 123.44 137.08 122.91 Z M 137.91 122.30 L 138.76 121.71 C 139.54 121.17 139.73 120.09 139.19 119.31 C 138.65 118.53 137.57 118.34 136.79 118.88 L 135.94 119.48 C 135.16 120.02 134.96 121.09 135.51 121.87 C 136.05 122.66 137.13 122.85 137.91 122.30 Z M 138.77 121.64 L 139.55 121.06 C 140.29 120.51 140.44 119.47 139.89 118.72 C 139.34 117.98 138.29 117.83 137.55 118.38 L 136.78 118.95 C 136.04 119.50 135.88 120.55 136.43 121.29 C 136.98 122.03 138.03 122.19 138.77 121.64 Z M 139.55 121.02 L 140.32 120.43 C 141.04 119.88 141.17 118.85 140.62 118.13 C 140.07 117.41 139.04 117.28 138.32 117.83 L 137.55 118.42 C 136.83 118.97 136.70 120.00 137.25 120.72 C 137.80 121.44 138.83 121.57 139.55 121.02 Z M 140.32 120.40 L 141.13 119.76 C 141.83 119.21 141.95 118.20 141.40 117.50 C 140.85 116.80 139.83 116.67 139.13 117.22 L 138.32 117.86 C 137.62 118.41 137.50 119.42 138.05 120.12 C 138.60 120.82 139.62 120.95 140.32 120.40 Z M 141.11 119.73 L 141.94 119.07 C 142.63 118.53 142.74 117.53 142.20 116.85 C 141.66 116.16 140.66 116.05 139.98 116.59 L 139.15 117.25 C 138.46 117.79 138.35 118.79 138.89 119.48 C 139.43 120.16 140.43 120.28 141.11 119.73 Z M 141.94 119.06 L 142.06 118.96 C 142.73 118.43 142.85 117.44 142.31 116.76 C 141.77 116.08 140.78 115.97 140.10 116.51 L 139.98 116.61 C 139.31 117.15 139.19 118.13 139.73 118.81 C 140.27 119.49 141.26 119.60 141.94 119.06 Z"
      fill="black"
      fill-rule="nonzero" /><path d="M 153.70 100.79 L 154.56 100.30 C 155.50 99.77 155.83 98.58 155.30 97.64 C 154.77 96.70 153.58 96.37 152.64 96.90 L 151.77 97.39 C 150.84 97.92 150.51 99.11 151.04 100.05 C 151.57 100.99 152.76 101.32 153.70 100.79 Z M 154.62 100.26 L 155.47 99.74 C 156.39 99.18 156.68 97.98 156.12 97.06 C 155.56 96.14 154.36 95.85 153.44 96.41 L 152.58 96.94 C 151.66 97.50 151.38 98.70 151.94 99.62 C 152.50 100.54 153.70 100.82 154.62 100.26 Z M 155.57 99.67 L 156.34 99.13 C 157.22 98.51 157.44 97.30 156.82 96.42 C 156.20 95.54 154.99 95.32 154.10 95.94 L 153.34 96.48 C 152.45 97.10 152.24 98.31 152.86 99.20 C 153.48 100.08 154.69 100.29 155.57 99.67 Z M 156.42 99.07 L 157.17 98.49 C 158.02 97.83 158.17 96.60 157.51 95.75 C 156.85 94.91 155.63 94.75 154.78 95.41 L 154.03 96.00 C 153.18 96.66 153.03 97.88 153.69 98.73 C 154.35 99.58 155.57 99.73 156.42 99.07 Z M 157.19 98.47 L 158.04 97.79 C 158.88 97.12 159.02 95.89 158.34 95.06 C 157.67 94.22 156.45 94.08 155.61 94.75 L 154.76 95.43 C 153.92 96.10 153.79 97.33 154.46 98.17 C 155.13 99.00 156.35 99.14 157.19 98.47 Z M 158.03 97.80 L 158.81 97.18 C 159.66 96.52 159.80 95.30 159.14 94.45 C 158.48 93.61 157.26 93.46 156.41 94.13 L 155.63 94.74 C 154.78 95.40 154.64 96.63 155.30 97.47 C 155.96 98.31 157.18 98.46 158.03 97.80 Z M 158.79 97.20 L 159.61 96.57 C 160.46 95.92 160.63 94.70 159.98 93.85 C 159.33 93.00 158.11 92.83 157.25 93.48 L 156.43 94.11 C 155.58 94.76 155.42 95.98 156.07 96.83 C 156.72 97.69 157.94 97.85 158.79 97.20 Z M 159.59 96.59 L 160.41 95.99 C 161.27 95.35 161.45 94.13 160.82 93.27 C 160.18 92.41 158.96 92.22 158.10 92.86 L 157.28 93.47 C 156.42 94.10 156.23 95.32 156.87 96.18 C 157.51 97.05 158.72 97.23 159.59 96.59 Z M 160.37 96.02 L 161.28 95.38 C 162.17 94.77 162.38 93.55 161.77 92.67 C 161.15 91.79 159.94 91.57 159.06 92.19 L 158.14 92.83 C 157.26 93.44 157.04 94.65 157.65 95.54 C 158.27 96.42 159.48 96.64 160.37 96.02 Z M 161.10 95.52 L 162.06 95.00 C 163.02 94.49 163.38 93.30 162.87 92.34 C 162.36 91.38 161.16 91.02 160.21 91.54 L 159.24 92.05 C 158.29 92.56 157.93 93.75 158.44 94.71 C 158.95 95.67 160.14 96.03 161.10 95.52 Z M 160.92 95.25 L 161.54 95.31 C 162.63 95.43 163.61 94.64 163.73 93.55 C 163.84 92.45 163.05 91.47 161.96 91.36 L 161.35 91.29 C 160.25 91.17 159.27 91.96 159.16 93.06 C 159.04 94.15 159.83 95.13 160.92 95.25 Z M 159.88 94.06 L 160.14 94.73 C 160.54 95.76 161.70 96.27 162.74 95.87 C 163.77 95.46 164.28 94.30 163.88 93.27 L 163.62 92.61 C 163.22 91.57 162.05 91.06 161.02 91.46 C 159.99 91.87 159.48 93.03 159.88 94.06 Z M 159.99 94.14 L 160.08 95.31 C 160.16 96.42 161.12 97.26 162.24 97.18 C 163.35 97.10 164.18 96.13 164.11 95.02 L 164.02 93.85 C 163.94 92.74 162.98 91.90 161.86 91.98 C 160.75 92.06 159.92 93.03 159.99 94.14 Z M 160.06 95.19 L 160.08 96.32 C 160.10 97.44 161.02 98.34 162.14 98.32 C 163.26 98.30 164.15 97.38 164.14 96.26 L 164.12 95.13 C 164.10 94.01 163.18 93.12 162.06 93.14 C 160.94 93.15 160.05 94.07 160.06 95.19 Z M 160.07 96.30 L 160.08 97.32 C 160.09 98.45 161.00 99.35 162.13 99.34 C 163.25 99.34 164.16 98.42 164.15 97.29 L 164.14 96.28 C 164.14 95.15 163.22 94.25 162.09 94.26 C 160.97 94.26 160.07 95.18 160.07 96.30 Z M 160.08 97.31 L 160.08 98.36 C 160.08 99.49 161.00 100.40 162.12 100.39 C 163.25 100.39 164.16 99.47 164.16 98.35 L 164.15 97.30 C 164.15 96.18 163.24 95.27 162.11 95.27 C 160.98 95.27 160.07 96.19 160.08 97.31 Z M 160.07 98.35 L 160.07 99.36 C 160.08 100.49 160.99 101.41 162.12 101.41 C 163.25 101.40 164.16 100.49 164.16 99.36 L 164.16 98.35 C 164.16 97.22 163.25 96.31 162.12 96.31 C 160.99 96.31 160.07 97.23 160.07 98.35 Z M 160.07 99.36 L 160.07 100.41 C 160.07 101.55 160.99 102.46 162.12 102.46 C 163.25 102.46 164.17 101.55 164.17 100.41 L 164.17 99.36 C 164.17 98.23 163.25 97.31 162.12 97.31 C 160.99 97.31 160.07 98.23 160.07 99.36 Z M 160.07 100.41 L 160.07 101.47 C 160.07 102.60 160.98 103.52 162.12 103.52 C 163.25 103.52 164.17 102.60 164.17 101.47 L 164.17 100.41 C 164.17 99.28 163.25 98.36 162.12 98.36 C 160.98 98.36 160.07 99.28 160.07 100.41 Z M 160.06 101.47 L 160.06 102.39 C 160.06 103.53 160.98 104.45 162.12 104.45 C 163.26 104.45 164.18 103.53 164.18 102.39 L 164.18 101.47 C 164.18 100.33 163.26 99.41 162.12 99.41 C 160.98 99.41 160.06 100.33 160.06 101.47 Z M 160.06 102.39 L 160.06 103.31 C 160.06 104.45 160.98 105.37 162.12 105.37 C 163.26 105.37 164.18 104.45 164.18 103.31 L 164.18 102.39 C 164.18 101.25 163.26 100.33 162.12 100.33 C 160.98 100.33 160.06 101.25 160.06 102.39 Z M 160.05 103.31 L 160.05 104.29 C 160.05 105.43 160.98 106.36 162.12 106.36 C 163.26 106.36 164.18 105.43 164.18 104.29 L 164.18 103.31 C 164.18 102.17 163.26 101.24 162.12 101.24 C 160.98 101.24 160.05 102.17 160.05 103.31 Z M 160.05 104.29 L 160.05 105.31 C 160.05 106.45 160.98 107.38 162.12 107.38 C 163.26 107.38 164.19 106.45 164.19 105.31 L 164.19 104.29 C 164.19 103.15 163.26 102.22 162.12 102.22 C 160.98 102.22 160.05 103.15 160.05 104.29 Z M 160.05 105.31 L 160.05 106.30 C 160.05 107.44 160.97 108.37 162.12 108.37 C 163.26 108.37 164.19 107.44 164.19 106.30 L 164.19 105.31 C 164.19 104.16 163.26 103.23 162.12 103.23 C 160.97 103.23 160.05 104.16 160.05 105.31 Z M 160.04 106.30 L 160.04 107.28 C 160.04 108.43 160.97 109.36 162.12 109.36 C 163.27 109.36 164.20 108.43 164.20 107.28 L 164.20 106.30 C 164.20 105.15 163.27 104.22 162.12 104.22 C 160.97 104.22 160.04 105.15 160.04 106.30 Z M 160.04 107.28 L 160.04 108.30 C 160.04 109.45 160.97 110.39 162.12 110.39 C 163.27 110.39 164.20 109.45 164.20 108.30 L 164.20 107.28 C 164.20 106.13 163.27 105.20 162.12 105.20 C 160.97 105.20 160.04 106.13 160.04 107.28 Z M 160.03 108.30 L 160.03 109.31 C 160.03 110.47 160.97 111.40 162.12 111.40 C 163.27 111.40 164.21 110.47 164.21 109.31 L 164.21 108.30 C 164.21 107.15 163.27 106.21 162.12 106.21 C 160.97 106.22 160.03 107.15 160.03 108.30 Z M 160.03 109.32 L 160.03 110.31 C 160.03 111.47 160.97 112.41 162.12 112.40 C 163.28 112.40 164.22 111.46 164.21 110.31 L 164.21 109.31 C 164.21 108.16 163.27 107.22 162.12 107.22 C 160.96 107.22 160.02 108.16 160.03 109.32 Z M 160.02 110.32 L 160.03 111.33 C 160.03 112.49 160.98 113.42 162.14 113.42 C 163.29 113.41 164.23 112.47 164.22 111.31 L 164.22 110.30 C 164.21 109.14 163.27 108.21 162.11 108.21 C 160.95 108.22 160.02 109.16 160.02 110.32 Z M 160.02 111.34 L 160.03 112.35 C 160.05 113.51 161.00 114.44 162.16 114.43 C 163.32 114.42 164.25 113.47 164.24 112.30 L 164.23 111.30 C 164.21 110.13 163.26 109.20 162.10 109.22 C 160.94 109.23 160.01 110.18 160.02 111.34 Z M 160.03 112.37 L 160.05 113.38 C 160.07 114.54 161.03 115.47 162.19 115.45 C 163.36 115.43 164.28 114.47 164.26 113.30 L 164.24 112.29 C 164.22 111.13 163.26 110.20 162.10 110.22 C 160.93 110.24 160.01 111.20 160.03 112.37 Z M 160.04 113.39 L 160.06 114.39 C 160.09 115.56 161.06 116.49 162.23 116.46 C 163.40 116.43 164.32 115.46 164.29 114.29 L 164.27 113.29 C 164.24 112.12 163.27 111.20 162.10 111.23 C 160.94 111.25 160.01 112.22 160.04 113.39 Z M 160.06 114.40 L 160.08 115.38 C 160.11 116.56 161.09 117.48 162.26 117.45 C 163.43 117.42 164.36 116.44 164.33 115.27 L 164.30 114.28 C 164.27 113.11 163.29 112.19 162.12 112.22 C 160.95 112.25 160.02 113.23 160.06 114.40 Z M 160.07 115.39 L 160.10 116.39 C 160.14 117.57 161.12 118.49 162.29 118.46 C 163.47 118.43 164.40 117.45 164.36 116.27 L 164.34 115.27 C 164.30 114.09 163.32 113.16 162.14 113.20 C 160.97 113.23 160.04 114.21 160.07 115.39 Z M 160.10 116.40 L 160.13 117.40 C 160.16 118.58 161.15 119.50 162.33 119.47 C 163.51 119.43 164.44 118.44 164.40 117.26 L 164.37 116.26 C 164.33 115.08 163.35 114.16 162.17 114.19 C 160.99 114.23 160.06 115.22 160.10 116.40 Z M 160.12 117.41 L 160.16 118.40 C 160.20 119.59 161.20 120.51 162.39 120.47 C 163.57 120.42 164.49 119.42 164.45 118.24 L 164.41 117.25 C 164.37 116.06 163.37 115.14 162.18 115.18 C 161.00 115.23 160.08 116.22 160.12 117.41 Z M 160.15 118.42 L 160.20 119.45 C 160.26 120.64 161.26 121.56 162.45 121.50 C 163.64 121.45 164.56 120.44 164.50 119.25 L 164.46 118.22 C 164.40 117.03 163.39 116.11 162.20 116.17 C 161.01 116.23 160.10 117.24 160.15 118.42 Z M 160.19 119.47 L 160.25 120.49 C 160.31 121.68 161.33 122.60 162.52 122.53 C 163.72 122.47 164.63 121.45 164.57 120.26 L 164.51 119.23 C 164.45 118.04 163.43 117.13 162.24 117.19 C 161.04 117.25 160.13 118.27 160.19 119.47 Z M 160.24 120.49 L 160.29 121.46 C 160.36 122.66 161.38 123.58 162.58 123.51 C 163.78 123.45 164.69 122.42 164.63 121.22 L 164.57 120.25 C 164.51 119.06 163.48 118.14 162.29 118.20 C 161.09 118.27 160.17 119.29 160.24 120.49 Z M 160.28 121.45 L 160.33 122.42 C 160.39 123.62 161.42 124.55 162.62 124.49 C 163.82 124.43 164.75 123.40 164.69 122.20 L 164.64 121.23 C 164.58 120.03 163.55 119.10 162.35 119.17 C 161.15 119.23 160.22 120.25 160.28 121.45 Z M 160.32 122.41 L 160.36 123.37 C 160.41 124.58 161.44 125.52 162.65 125.46 C 163.86 125.41 164.80 124.38 164.75 123.17 L 164.70 122.21 C 164.65 121.00 163.62 120.06 162.41 120.12 C 161.20 120.17 160.26 121.20 160.32 122.41 Z M 160.34 123.37 L 160.39 124.41 C 160.45 125.63 161.48 126.58 162.70 126.52 C 163.92 126.47 164.86 125.43 164.81 124.21 L 164.76 123.17 C 164.71 121.95 163.67 121.01 162.45 121.06 C 161.23 121.12 160.29 122.15 160.34 123.37 Z M 160.38 124.42 L 160.43 125.38 C 160.48 126.60 161.53 127.55 162.75 127.49 C 163.98 127.43 164.93 126.39 164.87 125.17 L 164.82 124.20 C 164.76 122.98 163.72 122.03 162.49 122.09 C 161.27 122.15 160.32 123.19 160.38 124.42 Z M 160.42 125.37 L 160.47 126.40 C 160.52 127.63 161.57 128.58 162.80 128.52 C 164.03 128.46 164.98 127.42 164.92 126.19 L 164.87 125.17 C 164.82 123.94 163.77 122.99 162.54 123.04 C 161.31 123.10 160.36 124.15 160.42 125.37 Z M 160.46 126.38 L 160.50 127.41 C 160.55 128.64 161.59 129.60 162.82 129.55 C 164.06 129.50 165.02 128.46 164.97 127.23 L 164.93 126.20 C 164.88 124.97 163.84 124.01 162.60 124.06 C 161.37 124.11 160.41 125.15 160.46 126.38 Z M 160.49 127.38 L 160.52 128.44 C 160.55 129.67 161.59 130.65 162.82 130.62 C 164.06 130.59 165.04 129.55 165.01 128.31 L 164.98 127.26 C 164.94 126.02 163.91 125.04 162.67 125.07 C 161.44 125.11 160.46 126.14 160.49 127.38 Z M 160.51 128.37 L 160.51 129.39 C 160.51 130.64 161.52 131.65 162.76 131.65 C 164.01 131.65 165.02 130.64 165.02 129.40 L 165.02 128.38 C 165.02 127.13 164.01 126.12 162.76 126.12 C 161.52 126.12 160.51 127.13 160.51 128.37 Z M 160.50 129.29 L 160.45 130.23 C 160.40 131.48 161.36 132.54 162.61 132.60 C 163.86 132.66 164.93 131.69 164.98 130.44 L 165.03 129.50 C 165.09 128.25 164.12 127.19 162.87 127.13 C 161.62 127.07 160.56 128.04 160.50 129.29 Z M 160.46 130.05 L 160.32 131.09 C 160.17 132.34 161.05 133.48 162.30 133.64 C 163.55 133.80 164.69 132.91 164.85 131.66 L 164.98 130.62 C 165.14 129.37 164.26 128.23 163.01 128.07 C 161.76 127.91 160.61 128.80 160.46 130.05 Z M 160.40 130.67 L 160.10 131.60 C 159.71 132.81 160.37 134.11 161.58 134.50 C 162.79 134.89 164.09 134.22 164.47 133.01 L 164.78 132.08 C 165.16 130.87 164.50 129.58 163.29 129.19 C 162.08 128.80 160.79 129.46 160.40 130.67 Z M 160.55 130.78 L 159.95 131.46 C 159.10 132.42 159.19 133.88 160.15 134.73 C 161.11 135.57 162.57 135.48 163.42 134.52 L 164.02 133.84 C 164.87 132.88 164.78 131.42 163.82 130.57 C 162.86 129.73 161.40 129.82 160.55 130.78 Z M 160.92 130.79 L 159.99 131.12 C 158.77 131.54 158.13 132.87 158.55 134.08 C 158.98 135.30 160.31 135.94 161.52 135.52 L 162.45 135.19 C 163.67 134.77 164.31 133.44 163.88 132.22 C 163.46 131.01 162.13 130.37 160.92 130.79 Z M 160.82 130.97 L 159.84 130.95 C 158.55 130.91 157.47 131.93 157.44 133.22 C 157.40 134.52 158.42 135.59 159.71 135.63 L 160.69 135.66 C 161.98 135.69 163.06 134.68 163.10 133.38 C 163.13 132.09 162.11 131.01 160.82 130.97 Z M 160.51 131.06 L 159.59 130.76 C 158.36 130.35 157.03 131.03 156.63 132.26 C 156.23 133.49 156.90 134.81 158.13 135.22 L 159.05 135.52 C 160.28 135.92 161.60 135.25 162.01 134.02 C 162.41 132.79 161.74 131.46 160.51 131.06 Z M 160.10 131.00 L 159.22 130.45 C 158.12 129.76 156.68 130.09 155.99 131.19 C 155.30 132.28 155.63 133.73 156.73 134.41 L 157.61 134.97 C 158.71 135.66 160.15 135.33 160.84 134.23 C 161.53 133.14 161.20 131.69 160.10 131.00 Z M 159.52 130.70 L 158.81 130.06 C 157.85 129.21 156.39 129.29 155.53 130.24 C 154.67 131.20 154.76 132.67 155.71 133.52 L 156.42 134.16 C 157.38 135.01 158.85 134.93 159.70 133.98 C 160.56 133.02 160.48 131.56 159.52 130.70 Z M 158.98 130.28 L 158.30 129.51 C 157.47 128.56 156.02 128.47 155.07 129.30 C 154.13 130.14 154.03 131.58 154.86 132.53 L 155.54 133.30 C 156.37 134.25 157.82 134.34 158.77 133.51 C 159.72 132.68 159.81 131.23 158.98 130.28 Z M 158.42 129.74 L 157.82 128.89 C 157.11 127.88 155.72 127.63 154.71 128.34 C 153.69 129.05 153.45 130.44 154.16 131.45 L 154.75 132.30 C 155.46 133.32 156.85 133.56 157.87 132.85 C 158.88 132.15 159.12 130.75 158.42 129.74 Z M 157.84 129.14 L 157.35 128.27 C 156.78 127.24 155.49 126.88 154.47 127.45 C 153.44 128.02 153.08 129.31 153.65 130.34 L 154.14 131.21 C 154.71 132.23 156.00 132.59 157.02 132.02 C 158.05 131.45 158.41 130.16 157.84 129.14 Z M 157.26 128.46 L 156.84 127.56 C 156.37 126.59 155.21 126.17 154.24 126.64 C 153.26 127.10 152.85 128.26 153.31 129.23 L 153.74 130.14 C 154.20 131.11 155.36 131.52 156.34 131.06 C 157.31 130.60 157.73 129.44 157.26 128.46 Z M 156.71 127.68 L 156.36 126.87 C 155.96 125.96 154.91 125.55 154.00 125.95 C 153.09 126.34 152.68 127.40 153.08 128.31 L 153.43 129.12 C 153.83 130.02 154.88 130.44 155.79 130.04 C 156.70 129.64 157.11 128.59 156.71 127.68 Z"
      fill="black"
      fill-rule="nonzero" /><path d="M 152.36 108.69 L 153.36 108.84 C 154.37 108.98 155.31 108.29 155.46 107.27 C 155.61 106.26 154.91 105.32 153.90 105.18 L 152.90 105.03 C 151.89 104.88 150.95 105.58 150.80 106.59 C 150.65 107.60 151.35 108.54 152.36 108.69 Z M 153.23 108.83 L 154.20 109.05 C 155.21 109.27 156.20 108.64 156.43 107.63 C 156.65 106.62 156.02 105.62 155.01 105.40 L 154.04 105.18 C 153.03 104.96 152.03 105.59 151.81 106.60 C 151.58 107.61 152.22 108.60 153.23 108.83 Z M 153.93 108.98 L 154.82 109.32 C 155.79 109.70 156.88 109.21 157.25 108.24 C 157.63 107.27 157.14 106.18 156.17 105.81 L 155.28 105.47 C 154.31 105.09 153.22 105.57 152.85 106.54 C 152.47 107.51 152.96 108.60 153.93 108.98 Z M 154.52 109.18 L 155.32 109.66 C 156.21 110.20 157.37 109.92 157.91 109.03 C 158.45 108.14 158.16 106.98 157.27 106.44 L 156.47 105.95 C 155.58 105.42 154.42 105.70 153.88 106.59 C 153.34 107.48 153.63 108.64 154.52 109.18 Z M 155.15 109.54 L 155.96 110.17 C 156.78 110.80 157.96 110.65 158.60 109.83 C 159.23 109.02 159.08 107.84 158.26 107.20 L 157.45 106.57 C 156.63 105.93 155.45 106.08 154.82 106.90 C 154.18 107.72 154.33 108.90 155.15 109.54 Z M 155.89 110.09 L 156.68 110.78 C 157.46 111.45 158.64 111.37 159.31 110.59 C 159.99 109.81 159.90 108.63 159.12 107.96 L 158.33 107.27 C 157.55 106.60 156.38 106.69 155.70 107.46 C 155.03 108.24 155.12 109.42 155.89 110.09 Z M 156.66 110.73 L 157.42 111.42 C 158.17 112.11 159.34 112.05 160.02 111.30 C 160.71 110.55 160.65 109.38 159.90 108.70 L 159.15 108.01 C 158.40 107.32 157.23 107.37 156.54 108.13 C 155.86 108.88 155.91 110.04 156.66 110.73 Z M 157.39 111.36 L 158.13 112.07 C 158.85 112.77 160.00 112.76 160.70 112.04 C 161.40 111.32 161.38 110.17 160.66 109.47 L 159.93 108.76 C 159.21 108.06 158.06 108.07 157.36 108.79 C 156.66 109.51 156.67 110.66 157.39 111.36 Z M 158.09 112.00 L 158.77 112.72 C 159.44 113.43 160.58 113.47 161.30 112.79 C 162.01 112.12 162.05 110.98 161.37 110.27 L 160.70 109.55 C 160.02 108.83 158.89 108.79 158.17 109.47 C 157.45 110.15 157.42 111.28 158.09 112.00 Z M 158.73 112.59 L 159.40 113.42 C 160.01 114.16 161.10 114.27 161.84 113.66 C 162.59 113.06 162.70 111.97 162.09 111.22 L 161.42 110.39 C 160.81 109.65 159.72 109.54 158.97 110.15 C 158.23 110.75 158.12 111.84 158.73 112.59 Z M 159.39 113.28 L 159.94 114.06 C 160.47 114.80 161.51 114.98 162.26 114.45 C 163.01 113.92 163.18 112.88 162.65 112.13 L 162.10 111.36 C 161.57 110.61 160.53 110.43 159.79 110.96 C 159.04 111.50 158.86 112.53 159.39 113.28 Z M 159.96 113.99 L 160.21 114.36 C 160.71 115.10 161.71 115.30 162.44 114.80 C 163.18 114.31 163.38 113.31 162.88 112.57 L 162.63 112.20 C 162.14 111.46 161.14 111.27 160.40 111.76 C 159.66 112.25 159.47 113.25 159.96 113.99 Z"
      fill="black"
      fill-rule="nonzero" /><path d="M 151.25 121.89 L 151.58 120.92 C 151.89 120.01 151.40 119.03 150.49 118.72 C 149.58 118.41 148.60 118.90 148.29 119.81 L 147.96 120.78 C 147.66 121.69 148.14 122.68 149.05 122.98 C 149.96 123.29 150.95 122.80 151.25 121.89 Z M 151.60 121.14 L 152.02 120.25 C 152.45 119.33 152.05 118.24 151.13 117.81 C 150.22 117.38 149.12 117.77 148.69 118.69 L 148.27 119.58 C 147.84 120.50 148.24 121.60 149.15 122.03 C 150.07 122.46 151.17 122.06 151.60 121.14 Z M 151.83 120.67 L 152.43 119.93 C 153.09 119.12 152.96 117.92 152.14 117.26 C 151.33 116.60 150.13 116.72 149.47 117.54 L 148.87 118.27 C 148.21 119.09 148.34 120.29 149.16 120.95 C 149.97 121.61 151.17 121.49 151.83 120.67 Z M 152.11 120.25 L 152.89 119.66 C 153.73 119.02 153.89 117.82 153.24 116.98 C 152.60 116.14 151.40 115.98 150.57 116.62 L 149.79 117.22 C 148.95 117.86 148.79 119.06 149.43 119.90 C 150.07 120.74 151.27 120.90 152.11 120.25 Z M 152.70 119.76 L 153.59 119.23 C 154.48 118.69 154.77 117.53 154.23 116.63 C 153.69 115.74 152.53 115.45 151.63 115.99 L 150.75 116.52 C 149.86 117.06 149.57 118.22 150.11 119.12 C 150.64 120.01 151.81 120.30 152.70 119.76 Z M 153.53 119.23 L 154.36 118.76 C 155.26 118.25 155.57 117.11 155.06 116.22 C 154.56 115.32 153.42 115.01 152.52 115.52 L 151.69 115.99 C 150.79 116.50 150.48 117.63 150.99 118.53 C 151.49 119.43 152.63 119.74 153.53 119.23 Z M 154.33 118.74 L 155.22 118.24 C 156.10 117.75 156.42 116.64 155.93 115.76 C 155.44 114.87 154.33 114.55 153.44 115.04 L 152.55 115.54 C 151.67 116.03 151.35 117.14 151.84 118.03 C 152.33 118.91 153.45 119.23 154.33 118.74 Z M 155.20 118.22 L 156.11 117.72 C 156.97 117.24 157.29 116.14 156.81 115.28 C 156.33 114.41 155.24 114.09 154.37 114.57 L 153.46 115.07 C 152.60 115.55 152.28 116.64 152.76 117.51 C 153.24 118.38 154.33 118.70 155.20 118.22 Z M 156.09 117.68 L 156.96 117.20 C 157.80 116.73 158.11 115.66 157.64 114.82 C 157.18 113.97 156.11 113.66 155.26 114.13 L 154.39 114.61 C 153.54 115.08 153.23 116.14 153.70 116.99 C 154.17 117.84 155.24 118.15 156.09 117.68 Z M 156.93 117.16 L 157.82 116.67 C 158.64 116.22 158.94 115.18 158.49 114.35 C 158.03 113.52 156.99 113.22 156.16 113.68 L 155.28 114.17 C 154.45 114.62 154.15 115.66 154.61 116.49 C 155.07 117.32 156.11 117.62 156.93 117.16 Z M 157.80 116.63 L 158.68 116.15 C 159.48 115.70 159.78 114.69 159.33 113.88 C 158.89 113.08 157.87 112.79 157.07 113.23 L 156.19 113.72 C 155.38 114.16 155.09 115.18 155.53 115.98 C 155.98 116.79 156.99 117.08 157.80 116.63 Z M 158.66 116.12 L 159.55 115.63 C 160.34 115.19 160.62 114.20 160.19 113.41 C 159.75 112.62 158.76 112.34 157.97 112.77 L 157.08 113.26 C 156.30 113.70 156.01 114.69 156.44 115.48 C 156.88 116.27 157.87 116.55 158.66 116.12 Z M 159.53 115.61 L 160.41 115.12 C 161.18 114.70 161.47 113.72 161.04 112.94 C 160.61 112.17 159.63 111.88 158.86 112.31 L 157.98 112.79 C 157.21 113.22 156.92 114.20 157.35 114.98 C 157.78 115.75 158.76 116.03 159.53 115.61 Z M 160.39 115.10 L 161.26 114.62 C 162.03 114.20 162.30 113.24 161.88 112.48 C 161.46 111.71 160.50 111.44 159.74 111.86 L 158.87 112.33 C 158.11 112.76 157.83 113.72 158.25 114.48 C 158.67 115.25 159.63 115.52 160.39 115.10 Z M 161.26 114.61 L 161.36 114.56 C 162.11 114.14 162.39 113.19 161.97 112.43 C 161.55 111.67 160.60 111.40 159.84 111.81 L 159.74 111.87 C 158.99 112.29 158.71 113.24 159.13 114.00 C 159.55 114.75 160.50 115.03 161.26 114.61 Z"
      fill="black"
      fill-rule="nonzero" /><path d="M 146.08 137.97 L 146.82 138.64 C 147.58 139.33 148.75 139.28 149.45 138.52 C 150.14 137.76 150.09 136.58 149.33 135.89 L 148.59 135.22 C 147.83 134.52 146.65 134.58 145.96 135.34 C 145.27 136.10 145.32 137.27 146.08 137.97 Z M 146.71 138.59 L 147.40 139.31 C 148.14 140.06 149.34 140.08 150.09 139.35 C 150.85 138.61 150.87 137.41 150.13 136.66 L 149.44 135.94 C 148.71 135.18 147.50 135.17 146.75 135.90 C 145.99 136.63 145.98 137.83 146.71 138.59 Z M 147.26 139.16 L 147.85 139.91 C 148.50 140.75 149.70 140.90 150.53 140.25 C 151.37 139.60 151.52 138.40 150.87 137.56 L 150.28 136.81 C 149.63 135.97 148.43 135.82 147.59 136.47 C 146.76 137.12 146.61 138.32 147.26 139.16 Z M 147.78 139.76 L 148.32 140.59 C 148.88 141.46 150.05 141.71 150.92 141.15 C 151.79 140.58 152.04 139.42 151.47 138.55 L 150.94 137.72 C 150.37 136.85 149.21 136.60 148.34 137.16 C 147.47 137.73 147.22 138.89 147.78 139.76 Z M 148.33 140.52 L 148.86 141.40 C 149.39 142.27 150.51 142.55 151.38 142.03 C 152.25 141.50 152.53 140.38 152.00 139.51 L 151.47 138.62 C 150.94 137.76 149.82 137.48 148.95 138.00 C 148.08 138.52 147.80 139.65 148.33 140.52 Z M 148.91 141.38 L 149.41 142.21 C 149.92 143.05 151.01 143.32 151.85 142.81 C 152.69 142.30 152.96 141.21 152.46 140.37 L 151.95 139.54 C 151.45 138.70 150.36 138.43 149.51 138.94 C 148.67 139.44 148.40 140.54 148.91 141.38 Z M 149.47 142.18 L 150.00 143.05 C 150.49 143.86 151.54 144.11 152.35 143.62 C 153.16 143.13 153.42 142.08 152.93 141.27 L 152.40 140.40 C 151.91 139.59 150.86 139.33 150.05 139.82 C 149.24 140.31 148.98 141.37 149.47 142.18 Z M 150.04 143.02 L 150.46 143.70 C 150.93 144.49 151.95 144.73 152.74 144.26 C 153.52 143.78 153.77 142.76 153.29 141.98 L 152.88 141.30 C 152.40 140.51 151.38 140.26 150.60 140.74 C 149.82 141.22 149.57 142.24 150.04 143.02 Z"
      fill="black"
      fill-rule="nonzero" /><path d="M 135.90 144.21 L 134.70 144.73 C 133.78 145.12 133.36 146.19 133.75 147.11 C 134.15 148.02 135.21 148.45 136.13 148.05 L 137.33 147.54 C 138.24 147.15 138.67 146.08 138.28 145.16 C 137.88 144.24 136.82 143.82 135.90 144.21 Z M 133.71 145.27 L 133.59 145.45 C 132.97 146.39 133.24 147.66 134.18 148.28 C 135.13 148.89 136.39 148.63 137.01 147.69 L 137.12 147.51 C 137.74 146.57 137.48 145.30 136.53 144.68 C 135.59 144.07 134.33 144.33 133.71 145.27 Z M 135.72 148.70 L 136.28 148.58 C 137.46 148.35 138.23 147.21 138.00 146.04 C 137.77 144.86 136.63 144.10 135.45 144.33 L 134.88 144.44 C 133.71 144.67 132.94 145.81 133.17 146.98 C 133.40 148.16 134.54 148.93 135.72 148.70 Z M 136.37 148.59 L 137.28 148.38 C 138.46 148.10 139.19 146.92 138.91 145.74 C 138.63 144.56 137.45 143.83 136.27 144.11 L 135.36 144.32 C 134.18 144.60 133.45 145.78 133.73 146.96 C 134.01 148.14 135.19 148.87 136.37 148.59 Z M 137.30 148.40 L 138.43 148.12 C 139.62 147.83 140.34 146.62 140.05 145.43 C 139.76 144.24 138.55 143.52 137.36 143.81 L 136.24 144.09 C 135.05 144.38 134.32 145.58 134.62 146.77 C 134.91 147.96 136.11 148.69 137.30 148.40 Z M 138.43 148.14 L 139.66 147.84 C 140.86 147.55 141.60 146.33 141.30 145.13 C 141.01 143.92 139.79 143.19 138.58 143.48 L 137.36 143.78 C 136.15 144.08 135.42 145.30 135.72 146.50 C 136.01 147.71 137.23 148.44 138.43 148.14 Z M 139.65 147.86 L 140.80 147.59 C 142.02 147.30 142.77 146.08 142.48 144.86 C 142.19 143.65 140.97 142.90 139.75 143.19 L 138.60 143.46 C 137.38 143.75 136.63 144.97 136.92 146.19 C 137.21 147.40 138.43 148.15 139.65 147.86 Z M 140.78 147.60 L 141.86 147.35 C 143.08 147.07 143.84 145.86 143.56 144.63 C 143.28 143.41 142.06 142.65 140.84 142.93 L 139.77 143.18 C 138.55 143.46 137.79 144.67 138.07 145.89 C 138.35 147.12 139.56 147.88 140.78 147.60 Z M 141.84 147.36 L 142.84 147.14 C 144.07 146.86 144.84 145.65 144.57 144.43 C 144.30 143.20 143.08 142.43 141.86 142.70 L 140.86 142.92 C 139.63 143.20 138.86 144.41 139.13 145.63 C 139.41 146.86 140.62 147.63 141.84 147.36 Z M 142.83 147.14 L 143.75 146.94 C 144.97 146.67 145.75 145.46 145.48 144.24 C 145.22 143.01 144.00 142.23 142.78 142.50 L 141.87 142.70 C 140.64 142.96 139.86 144.18 140.13 145.40 C 140.40 146.63 141.61 147.41 142.83 147.14 Z M 143.74 146.94 L 144.57 146.77 C 145.80 146.50 146.58 145.29 146.32 144.06 C 146.05 142.83 144.84 142.05 143.61 142.32 L 142.78 142.50 C 141.55 142.76 140.77 143.97 141.04 145.20 C 141.30 146.43 142.51 147.21 143.74 146.94 Z M 144.58 146.77 L 145.71 146.52 C 146.94 146.25 147.72 145.04 147.45 143.81 C 147.18 142.58 145.97 141.80 144.74 142.07 L 143.61 142.32 C 142.38 142.58 141.60 143.80 141.87 145.03 C 142.13 146.25 143.35 147.03 144.58 146.77 Z M 145.71 146.52 L 146.62 146.32 C 147.85 146.05 148.63 144.83 148.35 143.60 C 148.08 142.38 146.87 141.60 145.64 141.87 L 144.73 142.07 C 143.51 142.34 142.73 143.56 143.00 144.78 C 143.27 146.01 144.48 146.79 145.71 146.52 Z M 146.62 146.32 L 147.49 146.13 C 148.72 145.86 149.50 144.65 149.23 143.42 C 148.96 142.19 147.75 141.41 146.52 141.68 L 145.64 141.87 C 144.42 142.14 143.64 143.35 143.91 144.58 C 144.17 145.81 145.39 146.59 146.62 146.32 Z M 147.48 146.13 L 148.46 145.92 C 149.69 145.66 150.47 144.44 150.21 143.22 C 149.94 141.99 148.73 141.20 147.50 141.47 L 146.53 141.68 C 145.30 141.94 144.52 143.15 144.78 144.38 C 145.04 145.61 146.25 146.39 147.48 146.13 Z M 148.45 145.92 L 149.44 145.71 C 150.66 145.45 151.45 144.24 151.19 143.01 C 150.92 141.78 149.72 141.00 148.49 141.26 L 147.51 141.47 C 146.28 141.73 145.49 142.94 145.75 144.17 C 146.02 145.40 147.22 146.18 148.45 145.92 Z M 149.44 145.71 L 150.40 145.50 C 151.63 145.24 152.41 144.03 152.15 142.80 C 151.89 141.57 150.68 140.79 149.45 141.05 L 148.49 141.26 C 147.26 141.52 146.47 142.73 146.74 143.96 C 147.00 145.19 148.21 145.97 149.44 145.71 Z M 150.41 145.50 L 151.40 145.28 C 152.62 145.02 153.40 143.81 153.13 142.58 C 152.87 141.35 151.65 140.57 150.43 140.84 L 149.44 141.06 C 148.21 141.32 147.44 142.54 147.70 143.76 C 147.97 144.99 149.18 145.77 150.41 145.50 Z M 151.41 145.28 L 152.38 145.06 C 153.61 144.79 154.38 143.57 154.10 142.35 C 153.83 141.12 152.62 140.35 151.39 140.63 L 150.42 140.85 C 149.19 141.12 148.42 142.33 148.70 143.56 C 148.97 144.78 150.18 145.55 151.41 145.28 Z M 152.38 145.06 L 153.36 144.84 C 154.59 144.56 155.35 143.35 155.08 142.13 C 154.81 140.91 153.59 140.14 152.37 140.41 L 151.39 140.63 C 150.17 140.91 149.40 142.12 149.68 143.34 C 149.95 144.56 151.16 145.33 152.38 145.06 Z M 153.35 144.84 L 154.33 144.63 C 155.55 144.36 156.33 143.16 156.06 141.94 C 155.80 140.71 154.60 139.94 153.37 140.20 L 152.39 140.41 C 151.17 140.68 150.39 141.88 150.66 143.10 C 150.92 144.32 152.12 145.10 153.35 144.84 Z M 154.31 144.63 L 155.29 144.42 C 156.51 144.17 157.30 142.98 157.05 141.75 C 156.79 140.53 155.60 139.75 154.38 140.00 L 153.39 140.20 C 152.17 140.45 151.39 141.65 151.64 142.87 C 151.89 144.09 153.09 144.88 154.31 144.63 Z M 155.29 144.42 L 156.27 144.21 C 157.49 143.96 158.27 142.76 158.01 141.55 C 157.76 140.33 156.57 139.55 155.35 139.80 L 154.37 140.00 C 153.15 140.26 152.37 141.45 152.63 142.67 C 152.88 143.89 154.07 144.67 155.29 144.42 Z M 156.29 144.20 L 157.17 144.01 C 158.38 143.74 159.15 142.54 158.88 141.33 C 158.61 140.11 157.41 139.35 156.20 139.62 L 155.32 139.81 C 154.11 140.08 153.34 141.28 153.61 142.49 C 153.88 143.71 155.08 144.47 156.29 144.20 Z M 157.18 144.00 L 158.13 143.78 C 159.33 143.51 160.09 142.30 159.81 141.10 C 159.54 139.89 158.34 139.14 157.13 139.41 L 156.19 139.63 C 154.98 139.90 154.22 141.10 154.50 142.31 C 154.78 143.52 155.98 144.27 157.18 144.00 Z M 158.12 143.78 L 159.22 143.53 C 160.42 143.26 161.18 142.06 160.90 140.86 C 160.63 139.65 159.44 138.90 158.23 139.17 L 157.14 139.42 C 155.93 139.69 155.18 140.88 155.45 142.09 C 155.72 143.29 156.92 144.05 158.12 143.78 Z M 159.20 143.52 L 160.12 143.32 C 161.32 143.06 162.08 141.87 161.82 140.67 C 161.55 139.47 160.36 138.71 159.16 138.97 L 158.25 139.17 C 157.04 139.44 156.29 140.63 156.55 141.83 C 156.81 143.03 158.00 143.79 159.20 143.52 Z M 160.12 143.32 L 161.11 143.10 C 162.31 142.84 163.06 141.65 162.80 140.46 C 162.54 139.26 161.36 138.50 160.16 138.76 L 159.17 138.98 C 157.97 139.24 157.21 140.43 157.47 141.62 C 157.74 142.82 158.92 143.58 160.12 143.32 Z M 161.11 143.09 L 162.13 142.86 C 163.32 142.60 164.07 141.42 163.81 140.22 C 163.54 139.03 162.36 138.28 161.17 138.55 L 160.15 138.77 C 158.96 139.04 158.21 140.22 158.48 141.41 C 158.74 142.60 159.92 143.35 161.11 143.09 Z M 162.14 142.85 L 163.14 142.62 C 164.33 142.35 165.07 141.17 164.79 139.98 C 164.52 138.80 163.34 138.06 162.15 138.33 L 161.16 138.56 C 159.97 138.83 159.23 140.01 159.50 141.20 C 159.77 142.38 160.96 143.12 162.14 142.85 Z M 163.16 142.60 L 164.23 142.34 C 165.40 142.06 166.12 140.87 165.84 139.70 C 165.55 138.53 164.37 137.81 163.19 138.09 L 162.13 138.35 C 160.96 138.63 160.23 139.82 160.52 140.99 C 160.81 142.17 161.99 142.89 163.16 142.60 Z M 164.26 142.31 L 165.23 142.06 C 166.39 141.75 167.08 140.57 166.78 139.41 C 166.47 138.25 165.29 137.56 164.13 137.87 L 163.16 138.12 C 162.00 138.42 161.31 139.61 161.61 140.77 C 161.92 141.92 163.10 142.62 164.26 142.31 Z M 165.27 142.02 L 166.17 141.77 C 167.31 141.44 167.97 140.25 167.64 139.11 C 167.31 137.97 166.12 137.32 164.99 137.64 L 164.09 137.90 C 162.95 138.23 162.29 139.41 162.62 140.55 C 162.94 141.69 164.13 142.35 165.27 142.02 Z M 166.22 141.73 L 167.16 141.43 C 168.28 141.07 168.90 139.88 168.54 138.76 C 168.19 137.65 167.00 137.03 165.88 137.38 L 164.93 137.68 C 163.82 138.04 163.20 139.23 163.56 140.35 C 163.91 141.46 165.10 142.08 166.22 141.73 Z M 167.21 141.38 L 168.16 141.05 C 169.25 140.67 169.82 139.48 169.44 138.39 C 169.06 137.30 167.87 136.72 166.78 137.10 L 165.83 137.43 C 164.74 137.81 164.17 139.00 164.55 140.09 C 164.93 141.18 166.12 141.76 167.21 141.38 Z M 168.18 141.01 L 169.09 140.67 C 170.16 140.28 170.70 139.10 170.31 138.03 C 169.92 136.96 168.74 136.42 167.67 136.81 L 166.76 137.15 C 165.69 137.54 165.15 138.72 165.54 139.78 C 165.93 140.85 167.11 141.40 168.18 141.01 Z M 169.09 140.65 L 169.26 140.58 C 170.32 140.19 170.85 139.02 170.46 137.96 C 170.07 136.91 168.90 136.37 167.84 136.77 L 167.67 136.83 C 166.62 137.22 166.08 138.40 166.47 139.45 C 166.87 140.50 168.04 141.04 169.09 140.65 Z"
      fill="black"
      fill-rule="nonzero" /><path d="M 138.43 148.99 L 138.27 149.98 C 138.11 150.98 138.79 151.91 139.78 152.07 C 140.77 152.22 141.70 151.55 141.86 150.55 L 142.02 149.56 C 142.18 148.57 141.50 147.63 140.51 147.48 C 139.52 147.32 138.58 148.00 138.43 148.99 Z M 138.28 149.91 L 138.09 150.89 C 137.89 151.87 138.53 152.83 139.51 153.03 C 140.49 153.23 141.45 152.59 141.65 151.60 L 141.85 150.63 C 142.04 149.64 141.41 148.69 140.42 148.49 C 139.44 148.29 138.48 148.93 138.28 149.91 Z M 138.13 150.75 L 137.86 151.68 C 137.58 152.65 138.14 153.65 139.10 153.93 C 140.06 154.20 141.06 153.65 141.34 152.69 L 141.61 151.75 C 141.89 150.79 141.33 149.78 140.37 149.51 C 139.41 149.23 138.40 149.78 138.13 150.75 Z M 137.92 151.53 L 137.56 152.44 C 137.20 153.37 137.66 154.42 138.59 154.78 C 139.51 155.14 140.56 154.68 140.92 153.75 L 141.28 152.84 C 141.64 151.91 141.18 150.87 140.25 150.50 C 139.33 150.14 138.28 150.60 137.92 151.53 Z M 137.62 152.34 L 137.18 153.27 C 136.76 154.17 137.15 155.24 138.05 155.66 C 138.95 156.08 140.01 155.69 140.43 154.79 L 140.87 153.86 C 141.29 152.96 140.90 151.89 140.00 151.47 C 139.10 151.05 138.04 151.44 137.62 152.34 Z M 137.21 153.22 L 136.81 154.01 C 136.36 154.89 136.71 155.97 137.59 156.42 C 138.47 156.87 139.54 156.52 139.99 155.64 L 140.40 154.85 C 140.85 153.97 140.50 152.89 139.62 152.44 C 138.74 151.99 137.66 152.34 137.21 153.22 Z M 136.84 153.96 L 136.36 154.83 C 135.89 155.69 136.20 156.78 137.06 157.25 C 137.93 157.73 139.01 157.41 139.49 156.55 L 139.96 155.69 C 140.44 154.82 140.13 153.74 139.26 153.26 C 138.40 152.79 137.31 153.10 136.84 153.96 Z M 136.39 154.78 L 135.83 155.73 C 135.32 156.58 135.60 157.67 136.45 158.17 C 137.30 158.68 138.39 158.40 138.89 157.55 L 139.46 156.60 C 139.96 155.75 139.68 154.66 138.84 154.15 C 137.99 153.65 136.89 153.93 136.39 154.78 Z M 135.85 155.69 L 135.32 156.53 C 134.79 157.37 135.04 158.47 135.88 158.99 C 136.71 159.52 137.81 159.27 138.33 158.44 L 138.87 157.59 C 139.39 156.76 139.15 155.66 138.31 155.13 C 137.48 154.61 136.38 154.85 135.85 155.69 Z M 135.34 156.51 L 134.77 157.36 C 134.23 158.18 134.46 159.29 135.28 159.83 C 136.11 160.37 137.21 160.14 137.76 159.32 L 138.32 158.47 C 138.86 157.64 138.63 156.54 137.81 156.00 C 136.98 155.45 135.88 155.68 135.34 156.51 Z M 134.79 157.34 L 134.21 158.19 C 133.66 159.00 133.87 160.11 134.68 160.67 C 135.50 161.22 136.61 161.01 137.16 160.19 L 137.74 159.34 C 138.30 158.53 138.08 157.42 137.27 156.86 C 136.45 156.31 135.34 156.52 134.79 157.34 Z M 134.23 158.16 L 133.66 158.97 C 133.09 159.77 133.29 160.89 134.10 161.46 C 134.90 162.02 136.02 161.83 136.58 161.02 L 137.15 160.22 C 137.72 159.41 137.52 158.30 136.71 157.73 C 135.91 157.16 134.79 157.36 134.23 158.16 Z M 133.68 158.94 L 133.03 159.83 C 132.45 160.62 132.62 161.74 133.42 162.32 C 134.21 162.91 135.33 162.73 135.91 161.94 L 136.56 161.05 C 137.15 160.25 136.97 159.13 136.18 158.55 C 135.38 157.97 134.26 158.14 133.68 158.94 Z M 133.06 159.78 L 132.44 160.57 C 131.84 161.35 131.97 162.48 132.75 163.08 C 133.53 163.69 134.65 163.55 135.26 162.78 L 135.88 161.98 C 136.49 161.20 136.35 160.08 135.57 159.47 C 134.80 158.87 133.67 159.00 133.06 159.78 Z M 132.49 160.51 L 131.90 161.21 C 131.26 161.96 131.34 163.09 132.10 163.73 C 132.85 164.37 133.97 164.28 134.62 163.53 L 135.21 162.84 C 135.85 162.09 135.76 160.96 135.01 160.32 C 134.26 159.68 133.13 159.76 132.49 160.51 Z M 131.98 161.12 L 131.13 161.98 C 130.44 162.69 130.45 163.82 131.15 164.51 C 131.86 165.20 132.99 165.19 133.68 164.49 L 134.53 163.62 C 135.22 162.92 135.21 161.79 134.51 161.10 C 133.81 160.41 132.68 160.42 131.98 161.12 Z M 131.43 161.74 L 130.75 162.19 C 129.92 162.73 129.69 163.83 130.23 164.66 C 130.76 165.48 131.87 165.71 132.69 165.18 L 133.38 164.73 C 134.20 164.19 134.44 163.09 133.90 162.26 C 133.36 161.44 132.26 161.20 131.43 161.74 Z M 133.47 163.45 L 133.40 162.92 C 133.27 161.96 132.38 161.28 131.41 161.41 C 130.45 161.54 129.77 162.43 129.90 163.40 L 129.97 163.92 C 130.10 164.89 130.99 165.56 131.95 165.43 C 132.92 165.30 133.60 164.41 133.47 163.45 Z M 133.26 163.82 L 133.74 162.66 C 134.10 161.77 133.68 160.76 132.79 160.39 C 131.90 160.02 130.89 160.45 130.52 161.33 L 130.04 162.50 C 129.68 163.38 130.10 164.40 130.99 164.77 C 131.87 165.13 132.89 164.71 133.26 163.82 Z M 133.60 162.87 L 134.11 162.03 C 134.59 161.21 134.32 160.16 133.51 159.68 C 132.69 159.19 131.64 159.46 131.16 160.28 L 130.65 161.12 C 130.17 161.94 130.44 162.99 131.25 163.47 C 132.07 163.96 133.12 163.69 133.60 162.87 Z M 134.02 162.13 L 134.60 161.31 C 135.15 160.54 134.96 159.48 134.19 158.94 C 133.42 158.39 132.36 158.58 131.82 159.35 L 131.24 160.17 C 130.69 160.94 130.88 162.00 131.65 162.55 C 132.42 163.09 133.48 162.90 134.02 162.13 Z M 134.56 161.36 L 135.17 160.57 C 135.74 159.82 135.60 158.76 134.85 158.19 C 134.11 157.62 133.05 157.76 132.48 158.50 L 131.87 159.30 C 131.30 160.04 131.44 161.10 132.18 161.67 C 132.92 162.24 133.98 162.10 134.56 161.36 Z M 135.13 160.60 L 135.75 159.84 C 136.34 159.11 136.23 158.05 135.51 157.46 C 134.78 156.87 133.72 156.98 133.13 157.71 L 132.51 158.47 C 131.92 159.19 132.03 160.26 132.75 160.85 C 133.48 161.44 134.54 161.33 135.13 160.60 Z M 135.71 159.89 L 136.37 159.14 C 136.99 158.44 136.93 157.37 136.23 156.75 C 135.53 156.13 134.46 156.20 133.84 156.90 L 133.17 157.65 C 132.56 158.35 132.62 159.42 133.32 160.04 C 134.02 160.66 135.09 160.59 135.71 159.89 Z M 136.31 159.21 L 137.03 158.48 C 137.69 157.81 137.68 156.74 137.01 156.08 C 136.35 155.43 135.28 155.44 134.62 156.10 L 133.90 156.83 C 133.25 157.49 133.25 158.57 133.92 159.22 C 134.59 159.88 135.66 159.87 136.31 159.21 Z M 136.98 158.54 L 137.73 157.85 C 138.42 157.21 138.46 156.13 137.82 155.44 C 137.19 154.75 136.11 154.71 135.42 155.35 L 134.67 156.04 C 133.98 156.68 133.94 157.76 134.58 158.45 C 135.22 159.14 136.29 159.18 136.98 158.54 Z M 137.70 157.89 L 138.45 157.24 C 139.16 156.62 139.24 155.54 138.62 154.82 C 138.00 154.11 136.92 154.03 136.20 154.65 L 135.45 155.30 C 134.74 155.92 134.66 157.01 135.28 157.72 C 135.90 158.43 136.98 158.51 137.70 157.89 Z M 138.43 157.28 L 139.22 156.63 C 139.96 156.02 140.06 154.93 139.46 154.19 C 138.85 153.45 137.76 153.35 137.02 153.95 L 136.22 154.61 C 135.49 155.22 135.38 156.31 135.99 157.05 C 136.60 157.78 137.69 157.89 138.43 157.28 Z M 139.14 156.73 L 139.95 156.15 C 140.74 155.59 140.93 154.49 140.36 153.70 C 139.80 152.90 138.70 152.72 137.90 153.28 L 137.10 153.85 C 136.30 154.42 136.12 155.52 136.68 156.31 C 137.25 157.11 138.35 157.29 139.14 156.73 Z M 139.74 156.33 L 140.60 155.90 C 141.49 155.45 141.85 154.36 141.40 153.47 C 140.96 152.58 139.87 152.22 138.98 152.67 L 138.11 153.10 C 137.22 153.55 136.86 154.64 137.31 155.53 C 137.76 156.42 138.84 156.78 139.74 156.33 Z M 140.24 156.11 L 141.23 155.87 C 142.24 155.62 142.86 154.60 142.61 153.59 C 142.36 152.59 141.35 151.97 140.34 152.21 L 139.34 152.46 C 138.34 152.70 137.72 153.72 137.96 154.73 C 138.21 155.74 139.23 156.36 140.24 156.11 Z M 140.57 156.01 L 141.52 156.11 C 142.61 156.23 143.58 155.44 143.70 154.36 C 143.82 153.27 143.03 152.30 141.95 152.18 L 141.00 152.07 C 139.91 151.96 138.93 152.74 138.82 153.83 C 138.70 154.91 139.48 155.89 140.57 156.01 Z M 140.64 155.86 L 141.39 156.34 C 142.33 156.95 143.59 156.67 144.20 155.72 C 144.81 154.77 144.53 153.51 143.58 152.91 L 142.83 152.43 C 141.89 151.82 140.63 152.10 140.02 153.05 C 139.41 153.99 139.69 155.25 140.64 155.86 Z M 140.93 155.97 L 141.60 156.75 C 142.35 157.60 143.65 157.70 144.50 156.95 C 145.36 156.21 145.45 154.91 144.71 154.05 L 144.04 153.27 C 143.29 152.42 141.99 152.33 141.14 153.07 C 140.28 153.82 140.19 155.11 140.93 155.97 Z M 141.47 156.60 L 142.07 157.44 C 142.73 158.37 144.02 158.59 144.95 157.93 C 145.89 157.27 146.11 155.98 145.44 155.04 L 144.85 154.20 C 144.18 153.27 142.89 153.05 141.96 153.71 C 141.02 154.37 140.80 155.66 141.47 156.60 Z M 142.05 157.42 L 142.60 158.23 C 143.26 159.17 144.55 159.41 145.50 158.76 C 146.44 158.10 146.67 156.81 146.02 155.86 L 145.46 155.06 C 144.81 154.11 143.52 153.88 142.57 154.53 C 141.63 155.19 141.39 156.48 142.05 157.42 Z M 142.62 158.26 L 143.22 159.09 C 143.89 160.03 145.20 160.24 146.13 159.57 C 147.06 158.89 147.27 157.59 146.60 156.66 L 146.00 155.83 C 145.33 154.90 144.03 154.69 143.10 155.36 C 142.16 156.03 141.95 157.33 142.62 158.26 Z M 143.27 159.17 L 143.92 159.98 C 144.63 160.88 145.94 161.04 146.84 160.33 C 147.74 159.62 147.90 158.31 147.19 157.40 L 146.55 156.59 C 145.84 155.69 144.53 155.53 143.62 156.24 C 142.72 156.95 142.56 158.26 143.27 159.17 Z M 144.00 160.08 L 144.68 160.84 C 145.44 161.70 146.76 161.77 147.62 161.01 C 148.47 160.24 148.55 158.93 147.78 158.07 L 147.11 157.31 C 146.34 156.45 145.03 156.38 144.17 157.14 C 143.31 157.90 143.24 159.22 144.00 160.08 Z M 144.79 160.95 L 145.51 161.64 C 146.34 162.44 147.65 162.42 148.45 161.59 C 149.24 160.76 149.22 159.45 148.39 158.65 L 147.67 157.96 C 146.85 157.16 145.53 157.19 144.74 158.01 C 143.94 158.84 143.97 160.15 144.79 160.95 Z M 145.67 161.77 L 146.43 162.38 C 147.33 163.09 148.63 162.94 149.34 162.04 C 150.05 161.14 149.90 159.84 149.00 159.13 L 148.24 158.53 C 147.34 157.82 146.04 157.97 145.33 158.86 C 144.62 159.76 144.77 161.06 145.67 161.77 Z M 146.66 162.50 L 147.57 163.05 C 148.53 163.63 149.79 163.32 150.37 162.36 C 150.95 161.39 150.64 160.14 149.68 159.56 L 148.77 159.01 C 147.81 158.43 146.55 158.74 145.97 159.70 C 145.39 160.66 145.70 161.92 146.66 162.50 Z M 147.84 163.13 L 148.75 163.52 C 149.75 163.95 150.92 163.49 151.36 162.48 C 151.79 161.47 151.33 160.30 150.32 159.87 L 149.41 159.48 C 148.40 159.04 147.23 159.51 146.80 160.52 C 146.36 161.52 146.83 162.69 147.84 163.13 Z M 149.03 163.55 L 149.96 163.80 C 150.98 164.08 152.04 163.47 152.32 162.45 C 152.59 161.42 151.99 160.36 150.96 160.09 L 150.03 159.84 C 149.01 159.56 147.95 160.16 147.67 161.19 C 147.40 162.22 148.00 163.27 149.03 163.55 Z M 150.25 163.75 L 151.25 163.87 C 152.25 163.99 153.16 163.27 153.27 162.28 C 153.39 161.28 152.68 160.37 151.68 160.25 L 150.67 160.14 C 149.67 160.02 148.77 160.73 148.65 161.73 C 148.53 162.73 149.25 163.63 150.25 163.75 Z M 151.43 163.75 L 152.40 163.77 C 153.33 163.79 154.10 163.05 154.12 162.12 C 154.14 161.19 153.40 160.42 152.47 160.40 L 151.50 160.38 C 150.57 160.36 149.80 161.10 149.78 162.03 C 149.76 162.96 150.50 163.73 151.43 163.75 Z M 152.44 163.69 L 152.54 163.69 C 153.43 163.70 154.15 162.97 154.15 162.08 C 154.15 161.19 153.43 160.47 152.54 160.47 L 152.44 160.47 C 151.55 160.47 150.82 161.19 150.82 162.08 C 150.82 162.97 151.55 163.69 152.44 163.69 Z"
      fill="black"
      fill-rule="nonzero" /><path d="M 158.14 147.73 L 158.32 146.54 C 158.46 145.58 157.81 144.70 156.85 144.55 C 155.90 144.41 155.01 145.07 154.87 146.02 L 154.69 147.21 C 154.55 148.17 155.21 149.06 156.16 149.20 C 157.11 149.34 158.00 148.68 158.14 147.73 Z M 155.06 147.17 L 155.17 147.36 C 155.66 148.21 156.74 148.50 157.59 148.01 C 158.44 147.52 158.73 146.43 158.24 145.58 L 158.13 145.39 C 157.64 144.54 156.56 144.25 155.71 144.74 C 154.86 145.23 154.57 146.32 155.06 147.17 Z M 154.91 146.53 L 154.95 147.49 C 154.98 148.48 155.81 149.26 156.80 149.22 C 157.79 149.19 158.56 148.36 158.53 147.37 L 158.50 146.41 C 158.46 145.42 157.63 144.64 156.64 144.68 C 155.65 144.71 154.88 145.54 154.91 146.53 Z M 154.94 147.37 L 154.90 148.60 C 154.86 149.60 155.64 150.43 156.64 150.46 C 157.63 150.50 158.46 149.72 158.50 148.73 L 158.54 147.49 C 158.57 146.50 157.79 145.67 156.80 145.63 C 155.81 145.60 154.97 146.38 154.94 147.37 Z M 154.91 148.44 L 154.77 149.53 C 154.65 150.52 155.35 151.42 156.33 151.54 C 157.32 151.67 158.22 150.97 158.35 149.98 L 158.48 148.89 C 158.61 147.90 157.91 147.00 156.92 146.88 C 155.93 146.75 155.03 147.45 154.91 148.44 Z M 154.81 149.34 L 154.59 150.29 C 154.36 151.26 154.96 152.23 155.92 152.45 C 156.89 152.68 157.86 152.08 158.08 151.12 L 158.31 150.17 C 158.54 149.20 157.94 148.23 156.97 148.00 C 156.01 147.78 155.04 148.38 154.81 149.34 Z M 154.63 150.15 L 154.34 151.05 C 154.04 151.99 154.55 153.00 155.49 153.30 C 156.44 153.61 157.45 153.09 157.75 152.15 L 158.04 151.26 C 158.34 150.31 157.83 149.30 156.89 149.00 C 155.95 148.70 154.94 149.21 154.63 150.15 Z M 154.37 150.97 L 154.05 151.83 C 153.70 152.76 154.17 153.79 155.10 154.13 C 156.02 154.48 157.05 154.01 157.40 153.09 L 157.72 152.23 C 158.07 151.30 157.60 150.27 156.67 149.92 C 155.75 149.58 154.72 150.05 154.37 150.97 Z M 154.07 151.78 L 153.69 152.70 C 153.31 153.62 153.75 154.66 154.66 155.04 C 155.58 155.42 156.62 154.98 157.00 154.07 L 157.38 153.14 C 157.76 152.23 157.32 151.18 156.41 150.80 C 155.49 150.43 154.44 150.86 154.07 151.78 Z M 153.70 152.66 L 153.26 153.66 C 152.86 154.57 153.28 155.63 154.18 156.03 C 155.09 156.42 156.15 156.01 156.55 155.11 L 156.99 154.11 C 157.38 153.20 156.97 152.14 156.07 151.74 C 155.16 151.34 154.10 151.76 153.70 152.66 Z M 153.27 153.64 L 152.85 154.56 C 152.43 155.46 152.83 156.53 153.73 156.94 C 154.64 157.36 155.70 156.96 156.12 156.06 L 156.54 155.13 C 156.95 154.23 156.56 153.16 155.65 152.75 C 154.75 152.33 153.68 152.73 153.27 153.64 Z M 152.85 154.54 L 152.41 155.48 C 151.98 156.38 152.37 157.46 153.27 157.88 C 154.17 158.30 155.25 157.92 155.67 157.02 L 156.12 156.08 C 156.54 155.17 156.15 154.10 155.25 153.67 C 154.35 153.25 153.27 153.64 152.85 154.54 Z M 152.41 155.46 L 151.98 156.35 C 151.54 157.25 151.92 158.33 152.82 158.77 C 153.72 159.20 154.80 158.83 155.24 157.93 L 155.67 157.04 C 156.11 156.14 155.73 155.05 154.83 154.62 C 153.93 154.18 152.84 154.56 152.41 155.46 Z M 151.99 156.32 L 151.51 157.26 C 151.06 158.15 151.42 159.24 152.32 159.70 C 153.22 160.15 154.31 159.79 154.76 158.89 L 155.23 157.95 C 155.68 157.06 155.32 155.97 154.43 155.52 C 153.53 155.06 152.44 155.42 151.99 156.32 Z M 151.54 157.21 L 151.06 158.09 C 150.59 158.98 150.92 160.08 151.80 160.55 C 152.69 161.03 153.79 160.70 154.26 159.81 L 154.74 158.93 C 155.21 158.05 154.88 156.95 154.00 156.47 C 153.11 156.00 152.01 156.33 151.54 157.21 Z M 151.10 158.04 L 150.63 158.83 C 150.13 159.69 150.42 160.81 151.29 161.31 C 152.15 161.82 153.26 161.53 153.77 160.66 L 154.23 159.87 C 154.74 159.00 154.45 157.89 153.58 157.38 C 152.71 156.88 151.60 157.17 151.10 158.04 Z M 150.69 158.76 L 150.01 159.81 C 149.46 160.64 149.70 161.76 150.53 162.30 C 151.37 162.84 152.48 162.61 153.03 161.78 L 153.71 160.73 C 154.26 159.90 154.02 158.78 153.19 158.23 C 152.35 157.69 151.24 157.92 150.69 158.76 Z M 150.46 159.36 L 150.05 159.67 C 149.26 160.25 149.10 161.36 149.68 162.15 C 150.26 162.94 151.37 163.10 152.16 162.52 L 152.57 162.22 C 153.36 161.64 153.53 160.53 152.94 159.74 C 152.36 158.95 151.25 158.78 150.46 159.36 Z M 152.83 161.37 L 152.98 160.44 C 153.13 159.49 152.49 158.59 151.53 158.44 C 150.58 158.29 149.69 158.94 149.53 159.89 L 149.38 160.82 C 149.23 161.77 149.88 162.67 150.83 162.82 C 151.78 162.97 152.68 162.33 152.83 161.37 Z M 152.85 160.83 L 153.29 159.77 C 153.66 158.89 153.24 157.88 152.36 157.51 C 151.48 157.15 150.47 157.57 150.10 158.45 L 149.66 159.50 C 149.29 160.38 149.71 161.39 150.59 161.76 C 151.47 162.13 152.49 161.71 152.85 160.83 Z M 153.18 159.98 L 153.68 159.12 C 154.16 158.30 153.89 157.24 153.07 156.76 C 152.25 156.28 151.20 156.56 150.72 157.38 L 150.21 158.24 C 149.73 159.06 150.01 160.11 150.82 160.59 C 151.64 161.07 152.70 160.80 153.18 159.98 Z M 153.63 159.20 L 154.18 158.38 C 154.71 157.59 154.50 156.52 153.71 155.99 C 152.92 155.46 151.85 155.67 151.32 156.46 L 150.77 157.29 C 150.24 158.08 150.45 159.15 151.24 159.68 C 152.03 160.21 153.10 159.99 153.63 159.20 Z M 154.16 158.42 L 154.74 157.61 C 155.29 156.83 155.10 155.75 154.32 155.20 C 153.54 154.65 152.47 154.83 151.91 155.61 L 151.34 156.42 C 150.79 157.20 150.98 158.28 151.75 158.83 C 152.53 159.38 153.61 159.20 154.16 158.42 Z M 154.71 157.67 L 155.33 156.87 C 155.91 156.10 155.77 155.01 155.01 154.42 C 154.24 153.84 153.15 153.98 152.56 154.74 L 151.94 155.55 C 151.36 156.31 151.50 157.41 152.26 157.99 C 153.03 158.58 154.12 158.44 154.71 157.67 Z M 155.29 156.94 L 155.94 156.18 C 156.56 155.44 156.47 154.33 155.73 153.70 C 154.99 153.07 153.88 153.16 153.25 153.90 L 152.60 154.67 C 151.97 155.41 152.06 156.52 152.81 157.15 C 153.55 157.78 154.66 157.69 155.29 156.94 Z M 155.89 156.27 L 156.58 155.54 C 157.26 154.82 157.22 153.69 156.51 153.01 C 155.79 152.33 154.66 152.37 153.98 153.08 L 153.29 153.82 C 152.61 154.54 152.65 155.67 153.37 156.34 C 154.08 157.02 155.22 156.99 155.89 156.27 Z M 156.52 155.64 L 157.27 154.94 C 158.01 154.26 158.05 153.11 157.36 152.37 C 156.68 151.64 155.52 151.60 154.79 152.28 L 154.04 152.98 C 153.30 153.66 153.26 154.82 153.95 155.55 C 154.63 156.29 155.79 156.33 156.52 155.64 Z M 157.13 155.12 L 157.94 154.53 C 158.77 153.92 158.95 152.76 158.35 151.92 C 157.74 151.09 156.57 150.91 155.74 151.51 L 154.93 152.10 C 154.10 152.71 153.91 153.88 154.52 154.71 C 155.13 155.55 156.30 155.73 157.13 155.12 Z M 157.61 154.78 L 158.49 154.40 C 159.46 153.97 159.90 152.84 159.48 151.87 C 159.05 150.90 157.92 150.45 156.95 150.88 L 156.07 151.26 C 155.10 151.69 154.65 152.82 155.08 153.79 C 155.50 154.76 156.64 155.21 157.61 154.78 Z M 157.90 154.61 L 158.87 154.52 C 159.96 154.41 160.76 153.45 160.66 152.36 C 160.56 151.27 159.59 150.48 158.51 150.58 L 157.53 150.67 C 156.45 150.77 155.65 151.73 155.75 152.82 C 155.85 153.91 156.81 154.71 157.90 154.61 Z M 158.09 154.49 L 159.04 154.78 C 160.12 155.11 161.25 154.51 161.58 153.43 C 161.91 152.36 161.31 151.22 160.24 150.89 L 159.29 150.60 C 158.21 150.27 157.07 150.88 156.75 151.95 C 156.42 153.02 157.02 154.16 158.09 154.49 Z M 158.45 154.53 L 159.21 155.06 C 160.14 155.72 161.43 155.49 162.09 154.56 C 162.74 153.63 162.52 152.34 161.59 151.68 L 160.83 151.15 C 159.89 150.49 158.61 150.72 157.95 151.65 C 157.29 152.58 157.52 153.87 158.45 154.53 Z M 158.98 154.88 L 159.73 155.59 C 160.57 156.38 161.88 156.34 162.67 155.50 C 163.45 154.67 163.41 153.35 162.58 152.57 L 161.82 151.86 C 160.98 151.07 159.67 151.12 158.89 151.95 C 158.10 152.79 158.14 154.10 158.98 154.88 Z M 159.67 155.54 L 160.40 156.29 C 161.21 157.11 162.53 157.12 163.35 156.31 C 164.17 155.50 164.18 154.18 163.37 153.36 L 162.64 152.62 C 161.83 151.80 160.51 151.79 159.69 152.60 C 158.87 153.40 158.86 154.72 159.67 155.54 Z M 160.42 156.31 L 161.12 157.01 C 161.94 157.82 163.26 157.81 164.07 156.99 C 164.88 156.18 164.88 154.86 164.06 154.05 L 163.35 153.35 C 162.54 152.53 161.22 152.54 160.41 153.36 C 159.59 154.17 159.60 155.49 160.42 156.31 Z M 161.17 157.05 L 161.90 157.74 C 162.74 158.52 164.06 158.48 164.85 157.64 C 165.63 156.79 165.59 155.48 164.75 154.69 L 164.01 154.00 C 163.17 153.22 161.85 153.26 161.07 154.10 C 160.28 154.94 160.33 156.26 161.17 157.05 Z M 161.98 157.80 L 162.75 158.45 C 163.62 159.20 164.94 159.09 165.68 158.22 C 166.42 157.34 166.32 156.03 165.44 155.28 L 164.67 154.63 C 163.80 153.88 162.49 153.99 161.74 154.86 C 161.00 155.74 161.10 157.05 161.98 157.80 Z M 162.85 158.52 L 163.65 159.13 C 164.56 159.82 165.86 159.64 166.55 158.73 C 167.24 157.82 167.06 156.52 166.15 155.83 L 165.35 155.22 C 164.44 154.53 163.14 154.71 162.45 155.62 C 161.76 156.53 161.94 157.83 162.85 158.52 Z M 163.76 159.18 L 164.59 159.74 C 165.53 160.37 166.81 160.11 167.44 159.17 C 168.07 158.23 167.81 156.96 166.87 156.33 L 166.04 155.77 C 165.10 155.14 163.82 155.40 163.19 156.34 C 162.56 157.28 162.82 158.55 163.76 159.18 Z M 164.71 159.79 L 165.57 160.28 C 166.54 160.85 167.78 160.51 168.34 159.54 C 168.90 158.57 168.57 157.33 167.60 156.77 L 166.75 156.28 C 165.78 155.72 164.54 156.05 163.97 157.02 C 163.41 157.99 163.74 159.23 164.71 159.79 Z M 165.73 160.32 L 166.63 160.75 C 167.61 161.22 168.80 160.81 169.27 159.82 C 169.75 158.83 169.33 157.64 168.34 157.17 L 167.45 156.74 C 166.46 156.27 165.27 156.68 164.80 157.67 C 164.33 158.66 164.74 159.84 165.73 160.32 Z M 166.82 160.76 L 167.75 161.11 C 168.75 161.48 169.85 160.97 170.22 159.97 C 170.59 158.97 170.08 157.87 169.08 157.50 L 168.15 157.15 C 167.16 156.79 166.05 157.30 165.68 158.29 C 165.31 159.29 165.82 160.40 166.82 160.76 Z M 167.96 161.11 L 168.92 161.35 C 169.91 161.61 170.93 161.01 171.18 160.01 C 171.44 159.02 170.84 158.00 169.84 157.75 L 168.88 157.50 C 167.88 157.24 166.87 157.84 166.61 158.84 C 166.36 159.84 166.96 160.85 167.96 161.11 Z M 169.09 161.32 L 170.06 161.48 C 171.03 161.64 171.96 160.98 172.12 160.00 C 172.28 159.03 171.62 158.11 170.64 157.94 L 169.67 157.78 C 168.70 157.62 167.77 158.28 167.61 159.26 C 167.45 160.23 168.11 161.16 169.09 161.32 Z M 170.16 161.42 L 171.16 161.53 C 172.11 161.64 172.96 160.96 173.06 160.02 C 173.17 159.07 172.49 158.22 171.55 158.12 L 170.54 158.01 C 169.60 157.90 168.75 158.58 168.65 159.52 C 168.54 160.46 169.22 161.31 170.16 161.42 Z M 171.21 161.47 L 172.00 161.54 C 172.91 161.62 173.71 160.95 173.79 160.05 C 173.87 159.14 173.20 158.33 172.30 158.25 L 171.50 158.18 C 170.60 158.10 169.79 158.77 169.71 159.67 C 169.63 160.58 170.30 161.39 171.21 161.47 Z"
      fill="black"
      fill-rule="nonzero" /><path d="M 125.09 172.86 L 125.98 173.22 C 126.86 173.57 127.86 173.14 128.21 172.26 C 128.57 171.38 128.14 170.38 127.26 170.03 L 126.36 169.67 C 125.48 169.32 124.48 169.74 124.13 170.63 C 123.78 171.51 124.21 172.51 125.09 172.86 Z M 126.06 173.45 L 127.01 173.74 C 128.02 174.05 129.09 173.48 129.40 172.47 C 129.70 171.46 129.13 170.39 128.12 170.08 L 127.18 169.79 C 126.16 169.48 125.09 170.05 124.79 171.06 C 124.48 172.08 125.05 173.14 126.06 173.45 Z M 127.26 173.98 L 128.29 174.13 C 129.43 174.30 130.49 173.51 130.66 172.36 C 130.82 171.22 130.03 170.16 128.89 169.99 L 127.87 169.84 C 126.73 169.67 125.66 170.46 125.50 171.61 C 125.33 172.75 126.12 173.81 127.26 173.98 Z M 128.59 174.24 L 129.58 174.24 C 130.79 174.24 131.76 173.27 131.76 172.06 C 131.77 170.86 130.79 169.88 129.59 169.88 L 128.59 169.88 C 127.39 169.88 126.41 170.85 126.41 172.06 C 126.41 173.26 127.38 174.24 128.59 174.24 Z M 129.77 174.25 L 130.80 174.16 C 132.01 174.06 132.90 173.00 132.80 171.79 C 132.70 170.58 131.63 169.68 130.42 169.78 L 129.40 169.87 C 128.19 169.97 127.29 171.04 127.40 172.25 C 127.50 173.46 128.56 174.35 129.77 174.25 Z M 130.91 174.17 L 131.89 174.04 C 133.10 173.87 133.95 172.76 133.79 171.54 C 133.62 170.33 132.50 169.48 131.29 169.64 L 130.31 169.78 C 129.10 169.94 128.25 171.06 128.41 172.27 C 128.58 173.48 129.69 174.34 130.91 174.17 Z M 131.95 174.04 L 133.01 173.87 C 134.23 173.67 135.05 172.52 134.85 171.31 C 134.65 170.09 133.51 169.27 132.29 169.47 L 131.23 169.64 C 130.01 169.84 129.19 170.99 129.39 172.20 C 129.59 173.42 130.73 174.24 131.95 174.04 Z M 133.07 173.87 L 134.03 173.68 C 135.24 173.45 136.04 172.28 135.80 171.06 C 135.57 169.85 134.40 169.05 133.18 169.29 L 132.23 169.47 C 131.01 169.70 130.22 170.87 130.45 172.09 C 130.68 173.30 131.86 174.10 133.07 173.87 Z M 134.08 173.68 L 135.00 173.48 C 136.22 173.22 136.99 172.02 136.72 170.81 C 136.46 169.59 135.26 168.82 134.05 169.09 L 133.13 169.29 C 131.92 169.55 131.15 170.75 131.41 171.96 C 131.67 173.17 132.87 173.94 134.08 173.68 Z M 135.04 173.48 L 136.01 173.25 C 137.22 172.96 137.97 171.75 137.68 170.54 C 137.40 169.33 136.19 168.58 134.97 168.86 L 134.01 169.09 C 132.80 169.38 132.05 170.59 132.33 171.80 C 132.62 173.01 133.83 173.76 135.04 173.48 Z M 136.02 173.25 L 137.00 173.02 C 138.21 172.73 138.96 171.51 138.67 170.30 C 138.38 169.08 137.16 168.34 135.95 168.63 L 134.97 168.86 C 133.75 169.15 133.01 170.37 133.30 171.58 C 133.59 172.80 134.80 173.54 136.02 173.25 Z M 136.98 173.03 L 137.94 172.80 C 139.15 172.52 139.91 171.31 139.63 170.09 C 139.35 168.88 138.13 168.12 136.92 168.40 L 135.96 168.62 C 134.75 168.90 133.99 170.11 134.27 171.33 C 134.55 172.55 135.76 173.31 136.98 173.03 Z M 137.91 172.81 L 138.89 172.60 C 140.11 172.33 140.88 171.12 140.61 169.90 C 140.34 168.68 139.14 167.91 137.92 168.18 L 136.94 168.39 C 135.72 168.66 134.95 169.87 135.22 171.09 C 135.49 172.31 136.69 173.08 137.91 172.81 Z M 138.87 172.60 L 139.87 172.39 C 141.09 172.13 141.87 170.93 141.62 169.71 C 141.36 168.48 140.15 167.70 138.93 167.96 L 137.93 168.17 C 136.71 168.43 135.93 169.63 136.19 170.86 C 136.45 172.08 137.65 172.86 138.87 172.60 Z M 139.86 172.40 L 140.82 172.20 C 142.05 171.94 142.84 170.75 142.58 169.52 C 142.33 168.29 141.13 167.50 139.91 167.76 L 138.94 167.96 C 137.72 168.21 136.93 169.41 137.18 170.63 C 137.43 171.86 138.63 172.65 139.86 172.40 Z M 140.82 172.20 L 141.81 171.99 C 143.03 171.74 143.82 170.54 143.57 169.32 C 143.32 168.09 142.12 167.30 140.89 167.55 L 139.91 167.76 C 138.68 168.01 137.89 169.21 138.14 170.43 C 138.39 171.66 139.59 172.45 140.82 172.20 Z M 141.82 171.99 L 142.81 171.78 C 144.04 171.52 144.82 170.32 144.56 169.09 C 144.30 167.87 143.10 167.08 141.87 167.34 L 140.88 167.55 C 139.65 167.81 138.87 169.02 139.13 170.24 C 139.39 171.47 140.59 172.25 141.82 171.99 Z M 142.83 171.78 L 143.80 171.57 C 145.03 171.30 145.80 170.09 145.53 168.86 C 145.26 167.64 144.05 166.86 142.82 167.13 L 141.85 167.34 C 140.63 167.61 139.85 168.83 140.12 170.05 C 140.39 171.28 141.60 172.05 142.83 171.78 Z M 143.81 171.57 L 144.79 171.35 C 146.02 171.07 146.79 169.86 146.51 168.63 C 146.24 167.41 145.02 166.64 143.79 166.91 L 142.82 167.13 C 141.59 167.40 140.82 168.62 141.09 169.85 C 141.37 171.07 142.58 171.84 143.81 171.57 Z M 144.79 171.35 L 145.76 171.13 C 146.99 170.86 147.76 169.64 147.49 168.41 C 147.21 167.19 145.99 166.41 144.77 166.69 L 143.79 166.91 C 142.57 167.18 141.79 168.40 142.07 169.63 C 142.34 170.85 143.56 171.63 144.79 171.35 Z M 145.76 171.14 L 146.72 170.92 C 147.95 170.65 148.72 169.44 148.45 168.21 C 148.18 166.98 146.96 166.20 145.73 166.48 L 144.77 166.69 C 143.54 166.96 142.77 168.17 143.04 169.40 C 143.31 170.63 144.53 171.41 145.76 171.14 Z M 146.71 170.93 L 147.69 170.71 C 148.92 170.45 149.70 169.24 149.43 168.01 C 149.16 166.78 147.95 165.99 146.72 166.26 L 145.74 166.47 C 144.51 166.74 143.73 167.95 144.00 169.18 C 144.27 170.41 145.48 171.19 146.71 170.93 Z M 147.68 170.72 L 148.67 170.51 C 149.90 170.25 150.69 169.04 150.43 167.81 C 150.17 166.58 148.96 165.79 147.73 166.05 L 146.73 166.26 C 145.50 166.52 144.72 167.73 144.98 168.96 C 145.24 170.19 146.44 170.98 147.68 170.72 Z M 148.66 170.51 L 149.65 170.30 C 150.88 170.05 151.67 168.84 151.42 167.61 C 151.16 166.38 149.96 165.59 148.73 165.84 L 147.74 166.05 C 146.51 166.30 145.72 167.51 145.97 168.74 C 146.23 169.97 147.43 170.76 148.66 170.51 Z M 149.65 170.30 L 150.64 170.09 C 151.87 169.84 152.66 168.63 152.41 167.40 C 152.15 166.17 150.94 165.38 149.71 165.64 L 148.72 165.84 C 147.49 166.10 146.70 167.31 146.96 168.54 C 147.22 169.77 148.42 170.56 149.65 170.30 Z M 150.65 170.09 L 151.62 169.88 C 152.85 169.62 153.63 168.41 153.36 167.18 C 153.10 165.95 151.89 165.17 150.66 165.44 L 149.70 165.64 C 148.47 165.91 147.69 167.12 147.95 168.34 C 148.22 169.57 149.43 170.36 150.65 170.09 Z M 151.64 169.88 L 152.65 169.65 C 153.88 169.37 154.65 168.15 154.37 166.93 C 154.09 165.70 152.87 164.94 151.65 165.21 L 150.64 165.44 C 149.41 165.72 148.65 166.94 148.92 168.16 C 149.20 169.39 150.42 170.15 151.64 169.88 Z M 152.66 169.64 L 153.63 169.42 C 154.85 169.14 155.61 167.92 155.33 166.69 C 155.05 165.47 153.82 164.71 152.60 164.99 L 151.64 165.22 C 150.42 165.50 149.65 166.72 149.94 167.94 C 150.22 169.17 151.44 169.93 152.66 169.64 Z M 153.62 169.42 L 154.57 169.20 C 155.79 168.92 156.56 167.71 156.28 166.48 C 156.00 165.26 154.78 164.50 153.56 164.78 L 152.61 164.99 C 151.39 165.27 150.62 166.49 150.90 167.71 C 151.18 168.93 152.40 169.70 153.62 169.42 Z M 154.55 169.20 L 155.53 168.99 C 156.75 168.72 157.53 167.51 157.26 166.29 C 156.99 165.07 155.79 164.30 154.56 164.56 L 153.58 164.78 C 152.36 165.04 151.58 166.25 151.85 167.47 C 152.12 168.70 153.33 169.47 154.55 169.20 Z M 155.51 168.99 L 156.49 168.78 C 157.71 168.52 158.49 167.32 158.23 166.10 C 157.98 164.88 156.78 164.10 155.56 164.36 L 154.58 164.56 C 153.36 164.82 152.58 166.02 152.84 167.24 C 153.09 168.46 154.29 169.24 155.51 168.99 Z M 156.49 168.77 L 157.46 168.57 C 158.68 168.31 159.46 167.12 159.21 165.90 C 158.95 164.68 157.76 163.90 156.54 164.16 L 155.56 164.36 C 154.34 164.62 153.56 165.81 153.82 167.03 C 154.07 168.25 155.27 169.03 156.49 168.77 Z M 157.47 168.56 L 158.45 168.35 C 159.67 168.10 160.44 166.91 160.19 165.69 C 159.93 164.48 158.74 163.70 157.52 163.96 L 156.54 164.17 C 155.32 164.42 154.55 165.61 154.80 166.83 C 155.06 168.04 156.25 168.82 157.47 168.56 Z M 158.46 168.35 L 159.43 168.14 C 160.64 167.88 161.41 166.69 161.15 165.48 C 160.89 164.27 159.70 163.50 158.49 163.76 L 157.52 163.97 C 156.31 164.22 155.54 165.42 155.80 166.62 C 156.06 167.83 157.25 168.61 158.46 168.35 Z M 159.43 168.13 L 160.42 167.91 C 161.62 167.65 162.39 166.46 162.12 165.26 C 161.86 164.06 160.67 163.29 159.47 163.55 L 158.49 163.77 C 157.28 164.03 156.52 165.22 156.78 166.42 C 157.04 167.62 158.23 168.39 159.43 168.13 Z M 160.42 167.90 L 161.40 167.69 C 162.60 167.42 163.36 166.24 163.09 165.05 C 162.83 163.85 161.65 163.09 160.45 163.35 L 159.47 163.57 C 158.27 163.83 157.51 165.01 157.78 166.21 C 158.04 167.40 159.22 168.16 160.42 167.90 Z M 161.39 167.67 L 162.35 167.47 C 163.54 167.21 164.30 166.03 164.04 164.84 C 163.78 163.65 162.61 162.90 161.42 163.16 L 160.46 163.36 C 159.27 163.62 158.51 164.80 158.77 165.99 C 159.03 167.18 160.20 167.93 161.39 167.67 Z M 162.34 167.45 L 163.32 167.25 C 164.50 166.99 165.26 165.83 165.01 164.65 C 164.76 163.46 163.59 162.71 162.41 162.96 L 161.43 163.17 C 160.25 163.42 159.49 164.58 159.74 165.77 C 159.99 166.95 161.16 167.71 162.34 167.45 Z M 163.31 167.23 L 164.29 167.03 C 165.46 166.78 166.21 165.62 165.97 164.45 C 165.72 163.27 164.56 162.52 163.39 162.77 L 162.42 162.98 C 161.24 163.22 160.49 164.38 160.74 165.55 C 160.98 166.73 162.14 167.48 163.31 167.23 Z M 164.29 167.01 L 165.24 166.80 C 166.41 166.55 167.15 165.41 166.90 164.24 C 166.65 163.08 165.50 162.34 164.34 162.59 L 163.39 162.79 C 162.22 163.04 161.48 164.18 161.73 165.35 C 161.98 166.51 163.12 167.26 164.29 167.01 Z M 165.25 166.78 L 166.21 166.57 C 167.36 166.31 168.09 165.17 167.83 164.02 C 167.57 162.87 166.43 162.14 165.28 162.40 L 164.33 162.61 C 163.18 162.86 162.45 164.01 162.71 165.16 C 162.96 166.31 164.10 167.03 165.25 166.78 Z M 166.23 166.54 L 167.24 166.30 C 168.38 166.03 169.08 164.89 168.81 163.76 C 168.54 162.62 167.40 161.92 166.27 162.19 L 165.26 162.43 C 164.12 162.69 163.42 163.83 163.69 164.97 C 163.96 166.10 165.10 166.81 166.23 166.54 Z M 167.27 166.27 L 168.22 166.03 C 169.34 165.75 170.02 164.61 169.74 163.49 C 169.45 162.37 168.32 161.69 167.20 161.97 L 166.24 162.21 C 165.12 162.50 164.44 163.64 164.73 164.76 C 165.01 165.88 166.15 166.56 167.27 166.27 Z M 168.26 166.00 L 169.22 165.74 C 170.33 165.43 170.98 164.29 170.68 163.19 C 170.37 162.08 169.23 161.43 168.13 161.73 L 167.16 162.00 C 166.06 162.30 165.41 163.44 165.71 164.55 C 166.01 165.66 167.15 166.31 168.26 166.00 Z M 169.27 165.71 L 170.25 165.41 C 171.33 165.09 171.95 163.94 171.62 162.85 C 171.30 161.76 170.15 161.14 169.06 161.47 L 168.08 161.77 C 166.99 162.09 166.38 163.24 166.70 164.33 C 167.03 165.42 168.18 166.03 169.27 165.71 Z M 170.30 165.37 L 171.26 165.05 C 172.32 164.70 172.90 163.55 172.54 162.48 C 172.19 161.41 171.04 160.84 169.97 161.19 L 169.01 161.51 C 167.95 161.87 167.37 163.02 167.72 164.09 C 168.08 165.15 169.23 165.73 170.30 165.37 Z M 171.29 165.00 L 172.23 164.66 C 173.27 164.28 173.81 163.14 173.43 162.10 C 173.06 161.07 171.91 160.53 170.87 160.90 L 169.93 161.25 C 168.90 161.62 168.36 162.77 168.74 163.80 C 169.11 164.84 170.26 165.38 171.29 165.00 Z M 172.25 164.61 L 173.18 164.26 C 174.19 163.87 174.70 162.74 174.31 161.73 C 173.93 160.72 172.80 160.21 171.79 160.60 L 170.86 160.95 C 169.85 161.34 169.34 162.47 169.72 163.48 C 170.11 164.49 171.24 165.00 172.25 164.61 Z M 173.18 164.23 L 173.61 164.06 C 174.60 163.68 175.10 162.56 174.71 161.57 C 174.33 160.58 173.21 160.08 172.22 160.46 L 171.79 160.63 C 170.80 161.01 170.30 162.13 170.69 163.12 C 171.07 164.12 172.19 164.61 173.18 164.23 Z"
      fill="black"
      fill-rule="nonzero" /><path d="M 151.08 161.21 L 151.08 160.04 C 151.08 159.07 150.29 158.28 149.32 158.28 C 148.35 158.28 147.56 159.07 147.56 160.04 L 147.56 161.21 C 147.56 162.18 148.35 162.97 149.32 162.97 C 150.29 162.97 151.08 162.18 151.08 161.21 Z M 147.33 160.04 L 147.33 160.36 C 147.33 161.46 148.22 162.35 149.32 162.35 C 150.42 162.35 151.32 161.46 151.32 160.36 L 151.32 160.04 C 151.32 158.94 150.42 158.05 149.32 158.05 C 148.22 158.05 147.33 158.94 147.33 160.04 Z M 147.23 160.36 L 147.23 161.27 C 147.23 162.42 148.16 163.36 149.32 163.36 C 150.48 163.36 151.41 162.42 151.41 161.27 L 151.41 160.36 C 151.41 159.20 150.48 158.27 149.32 158.27 C 148.16 158.27 147.23 159.20 147.23 160.36 Z M 147.20 161.27 L 147.20 162.45 C 147.20 163.62 148.15 164.57 149.32 164.57 C 150.49 164.57 151.45 163.62 151.45 162.45 L 151.45 161.27 C 151.45 160.09 150.49 159.14 149.32 159.14 C 148.15 159.14 147.20 160.09 147.20 161.27 Z M 147.17 162.45 L 147.17 163.63 C 147.17 164.82 148.13 165.78 149.32 165.78 C 150.51 165.78 151.47 164.82 151.47 163.63 L 151.47 162.45 C 151.47 161.26 150.51 160.29 149.32 160.29 C 148.13 160.29 147.17 161.26 147.17 162.45 Z M 147.15 163.63 L 147.15 164.67 C 147.15 165.87 148.12 166.84 149.32 166.84 C 150.52 166.84 151.49 165.87 151.49 164.67 L 151.49 163.63 C 151.49 162.43 150.52 161.46 149.32 161.46 C 148.12 161.46 147.15 162.43 147.15 163.63 Z M 147.15 164.67 L 147.15 165.63 C 147.15 166.83 148.12 167.80 149.32 167.80 C 150.52 167.80 151.49 166.83 151.49 165.63 L 151.49 164.67 C 151.49 163.47 150.52 162.50 149.32 162.50 C 148.12 162.50 147.15 163.47 147.15 164.67 Z M 147.15 165.63 L 147.15 166.58 C 147.15 167.78 148.12 168.75 149.32 168.75 C 150.52 168.75 151.50 167.78 151.50 166.58 L 151.50 165.63 C 151.50 164.43 150.52 163.45 149.32 163.45 C 148.12 163.45 147.15 164.43 147.15 165.63 Z M 147.14 166.58 L 147.14 167.54 C 147.14 168.75 148.12 169.72 149.32 169.72 C 150.53 169.72 151.50 168.74 151.50 167.54 L 151.50 166.58 C 151.50 165.37 150.52 164.40 149.32 164.40 C 148.12 164.40 147.14 165.38 147.14 166.58 Z M 147.14 167.55 L 147.14 168.56 C 147.15 169.76 148.13 170.74 149.33 170.73 C 150.54 170.73 151.51 169.75 151.51 168.54 L 151.50 167.53 C 151.50 166.33 150.52 165.35 149.31 165.36 C 148.11 165.36 147.13 166.34 147.14 167.55 Z M 147.14 168.57 L 147.15 169.60 C 147.16 170.81 148.14 171.78 149.35 171.77 C 150.56 171.76 151.53 170.77 151.52 169.56 L 151.51 168.53 C 151.50 167.32 150.51 166.35 149.31 166.36 C 148.10 166.37 147.13 167.36 147.14 168.57 Z M 147.14 169.61 L 147.16 170.61 C 147.18 171.82 148.17 172.78 149.38 172.76 C 150.59 172.74 151.56 171.75 151.54 170.54 L 151.52 169.55 C 151.51 168.34 150.51 167.37 149.30 167.39 C 148.09 167.41 147.13 168.40 147.14 169.61 Z M 147.16 170.62 L 147.18 171.61 C 147.20 172.82 148.20 173.78 149.41 173.76 C 150.62 173.73 151.59 172.73 151.56 171.52 L 151.54 170.53 C 151.52 169.32 150.51 168.36 149.30 168.38 C 148.09 168.41 147.13 169.41 147.16 170.62 Z M 147.18 171.62 L 147.20 172.62 C 147.23 173.83 148.23 174.79 149.44 174.76 C 150.66 174.74 151.61 173.73 151.59 172.52 L 151.56 171.51 C 151.53 170.30 150.53 169.34 149.32 169.37 C 148.11 169.40 147.15 170.40 147.18 171.62 Z M 147.20 172.62 L 147.22 173.63 C 147.25 174.84 148.26 175.80 149.47 175.77 C 150.68 175.74 151.64 174.74 151.61 173.52 L 151.59 172.52 C 151.56 171.30 150.55 170.35 149.34 170.38 C 148.13 170.40 147.17 171.41 147.20 172.62 Z M 147.22 173.63 L 147.25 174.61 C 147.28 175.83 148.28 176.79 149.50 176.76 C 150.71 176.73 151.67 175.72 151.64 174.51 L 151.61 173.52 C 151.58 172.31 150.58 171.35 149.36 171.38 C 148.15 171.41 147.19 172.42 147.22 173.63 Z M 147.25 174.62 L 147.27 175.62 C 147.31 176.83 148.31 177.79 149.53 177.76 C 150.74 177.72 151.70 176.71 151.66 175.50 L 151.64 174.50 C 151.60 173.29 150.60 172.33 149.38 172.36 C 148.17 172.40 147.21 173.41 147.25 174.62 Z M 147.27 175.63 L 147.30 176.64 C 147.34 177.85 148.35 178.81 149.57 178.77 C 150.78 178.73 151.73 177.72 151.70 176.51 L 151.66 175.49 C 151.63 174.28 150.61 173.33 149.40 173.36 C 148.19 173.40 147.23 174.41 147.27 175.63 Z M 147.30 176.65 L 147.34 177.66 C 147.39 178.87 148.40 179.82 149.62 179.77 C 150.83 179.73 151.78 178.71 151.73 177.50 L 151.69 176.49 C 151.65 175.28 150.63 174.33 149.42 174.38 C 148.21 174.42 147.26 175.44 147.30 176.65 Z M 147.34 177.67 L 147.38 178.65 C 147.43 179.87 148.46 180.81 149.67 180.76 C 150.88 180.71 151.82 179.68 151.77 178.47 L 151.73 177.48 C 151.68 176.27 150.66 175.33 149.45 175.38 C 148.23 175.43 147.29 176.46 147.34 177.67 Z M 147.39 178.66 L 147.43 179.66 C 147.48 180.87 148.50 181.81 149.71 181.75 C 150.92 181.70 151.86 180.68 151.81 179.47 L 151.77 178.47 C 151.72 177.26 150.69 176.32 149.48 176.37 C 148.27 176.42 147.33 177.45 147.39 178.66 Z M 147.43 179.65 L 147.47 180.66 C 147.52 181.87 148.54 182.81 149.75 182.76 C 150.96 182.72 151.90 181.70 151.85 180.48 L 151.81 179.47 C 151.76 178.26 150.74 177.32 149.53 177.37 C 148.32 177.42 147.38 178.44 147.43 179.65 Z M 147.47 180.65 L 147.51 181.65 C 147.55 182.86 148.56 183.80 149.77 183.76 C 150.98 183.72 151.93 182.71 151.89 181.50 L 151.85 180.50 C 151.81 179.29 150.79 178.34 149.58 178.38 C 148.38 178.43 147.43 179.44 147.47 180.65 Z M 147.51 181.64 L 147.54 182.63 C 147.57 183.83 148.58 184.78 149.79 184.75 C 151.00 184.71 151.95 183.71 151.91 182.50 L 151.88 181.51 C 151.85 180.30 150.84 179.35 149.63 179.39 C 148.42 179.42 147.47 180.43 147.51 181.64 Z M 147.54 182.62 L 147.57 183.62 C 147.60 184.82 148.60 185.78 149.81 185.74 C 151.01 185.71 151.96 184.71 151.93 183.51 L 151.91 182.51 C 151.87 181.30 150.87 180.35 149.67 180.38 C 148.46 180.41 147.51 181.41 147.54 182.62 Z M 147.57 183.61 L 147.60 184.62 C 147.63 185.83 148.62 186.78 149.83 186.75 C 151.03 186.72 151.98 185.72 151.95 184.52 L 151.93 183.51 C 151.90 182.31 150.90 181.36 149.70 181.39 C 148.50 181.42 147.55 182.41 147.57 183.61 Z M 147.60 184.62 L 147.63 185.62 C 147.66 186.82 148.65 187.77 149.85 187.74 C 151.05 187.72 152.00 186.72 151.97 185.52 L 151.94 184.52 C 151.92 183.32 150.92 182.37 149.72 182.40 C 148.53 182.43 147.58 183.42 147.60 184.62 Z M 147.63 185.62 L 147.66 186.61 C 147.69 187.80 148.68 188.75 149.87 188.72 C 151.07 188.69 152.01 187.70 151.98 186.51 L 151.96 185.52 C 151.93 184.33 150.94 183.38 149.75 183.41 C 148.55 183.44 147.61 184.43 147.63 185.62 Z M 147.67 186.61 L 147.69 187.60 C 147.72 188.79 148.71 189.73 149.90 189.71 C 151.09 189.68 152.03 188.69 152.00 187.50 L 151.97 186.51 C 151.95 185.32 150.96 184.37 149.77 184.40 C 148.58 184.43 147.64 185.42 147.67 186.61 Z M 147.70 187.60 L 147.72 188.61 C 147.75 189.79 148.73 190.73 149.92 190.70 C 151.10 190.68 152.04 189.69 152.01 188.51 L 151.99 187.50 C 151.96 186.32 150.98 185.38 149.79 185.41 C 148.61 185.43 147.67 186.42 147.70 187.60 Z M 147.73 188.61 L 147.75 189.63 C 147.78 190.81 148.76 191.74 149.94 191.72 C 151.12 191.69 152.05 190.71 152.03 189.53 L 152.00 188.51 C 151.98 187.33 151.00 186.40 149.82 186.42 C 148.64 186.45 147.71 187.43 147.73 188.61 Z M 147.77 189.63 L 147.80 190.64 C 147.82 191.81 148.79 192.74 149.96 192.71 C 151.13 192.69 152.05 191.72 152.03 190.55 L 152.01 189.54 C 151.98 188.37 151.01 187.44 149.85 187.46 C 148.68 187.49 147.75 188.46 147.77 189.63 Z M 147.83 190.64 L 147.85 191.66 C 147.87 192.81 148.82 193.72 149.98 193.70 C 151.13 193.68 152.05 192.72 152.02 191.57 L 152.00 190.55 C 151.98 189.40 151.02 188.48 149.87 188.51 C 148.72 188.53 147.80 189.49 147.83 190.64 Z M 147.88 191.66 L 147.90 192.66 C 147.92 193.80 148.86 194.70 150.00 194.68 C 151.13 194.65 152.04 193.71 152.01 192.58 L 151.99 191.57 C 151.97 190.43 151.03 189.53 149.89 189.55 C 148.76 189.58 147.85 190.52 147.88 191.66 Z M 147.93 192.66 L 147.95 193.64 C 147.97 194.76 148.90 195.65 150.02 195.62 C 151.14 195.60 152.03 194.67 152.00 193.55 L 151.98 192.58 C 151.96 191.46 151.03 190.57 149.91 190.59 C 148.79 190.61 147.90 191.54 147.93 192.66 Z M 147.98 193.64 L 148.00 194.67 C 148.02 195.78 148.94 196.65 150.04 196.63 C 151.14 196.60 152.02 195.69 151.99 194.59 L 151.97 193.55 C 151.95 192.45 151.04 191.57 149.93 191.60 C 148.83 191.62 147.95 192.54 147.98 193.64 Z M 148.03 194.67 L 148.06 195.70 C 148.08 196.79 148.98 197.65 150.06 197.62 C 151.15 197.60 152.01 196.70 151.98 195.62 L 151.96 194.59 C 151.94 193.50 151.04 192.64 149.95 192.67 C 148.87 192.69 148.01 193.59 148.03 194.67 Z M 148.09 195.70 L 148.11 196.68 C 148.13 197.75 149.01 198.59 150.08 198.57 C 151.14 198.55 151.99 197.67 151.97 196.61 L 151.95 195.62 C 151.93 194.56 151.05 193.71 149.98 193.73 C 148.92 193.75 148.07 194.63 148.09 195.70 Z M 148.15 196.67 L 148.16 197.62 C 148.18 198.66 149.04 199.50 150.09 199.48 C 151.13 199.46 151.96 198.60 151.95 197.56 L 151.93 196.61 C 151.92 195.57 151.05 194.73 150.01 194.75 C 148.96 194.77 148.13 195.63 148.15 196.67 Z M 148.20 197.61 L 148.21 198.57 C 148.22 199.60 149.06 200.42 150.09 200.41 C 151.11 200.40 151.93 199.56 151.92 198.53 L 151.91 197.57 C 151.90 196.54 151.06 195.72 150.03 195.73 C 149.01 195.74 148.19 196.58 148.20 197.61 Z M 148.25 198.57 L 148.26 199.54 C 148.27 200.54 149.09 201.35 150.09 201.34 C 151.09 201.33 151.90 200.51 151.89 199.51 L 151.88 198.54 C 151.87 197.53 151.05 196.73 150.05 196.74 C 149.05 196.75 148.24 197.57 148.25 198.57 Z M 148.30 199.55 L 148.32 200.55 C 148.33 201.53 149.13 202.32 150.11 202.30 C 151.09 202.29 151.87 201.49 151.86 200.51 L 151.85 199.50 C 151.83 198.52 151.03 197.74 150.05 197.75 C 149.07 197.76 148.29 198.57 148.30 199.55 Z M 148.35 200.57 L 148.38 201.59 C 148.40 202.55 149.19 203.31 150.15 203.29 C 151.11 203.27 151.87 202.47 151.84 201.52 L 151.82 200.49 C 151.80 199.53 151.01 198.78 150.05 198.80 C 149.09 198.82 148.33 199.61 148.35 200.57 Z M 148.41 201.61 L 148.44 202.56 C 148.47 203.50 149.25 204.24 150.19 204.21 C 151.13 204.18 151.87 203.39 151.84 202.45 L 151.81 201.50 C 151.78 200.56 151.00 199.82 150.06 199.85 C 149.12 199.88 148.38 200.67 148.41 201.61 Z M 148.46 202.57 L 148.50 203.56 C 148.53 204.49 149.31 205.21 150.24 205.18 C 151.17 205.14 151.89 204.36 151.86 203.44 L 151.82 202.44 C 151.78 201.51 151.00 200.79 150.08 200.83 C 149.15 200.86 148.43 201.64 148.46 202.57 Z M 148.52 203.57 L 148.57 204.60 C 148.60 205.51 149.37 206.22 150.29 206.18 C 151.20 206.14 151.91 205.37 151.87 204.46 L 151.83 203.43 C 151.79 202.52 151.02 201.81 150.11 201.85 C 149.20 201.88 148.49 202.65 148.52 203.57 Z M 148.59 204.60 L 148.63 205.64 C 148.67 206.54 149.43 207.24 150.33 207.20 C 151.23 207.16 151.93 206.40 151.89 205.50 L 151.85 204.46 C 151.81 203.56 151.05 202.86 150.15 202.90 C 149.25 202.94 148.55 203.70 148.59 204.60 Z M 148.65 205.64 L 148.65 205.73 C 148.69 206.62 149.44 207.31 150.34 207.27 C 151.23 207.23 151.92 206.48 151.89 205.59 L 151.88 205.50 C 151.84 204.61 151.09 203.92 150.19 203.95 C 149.30 203.99 148.61 204.75 148.65 205.64 Z"
      fill="black"
      fill-rule="nonzero" /></svg>