<svg xmlns="http://www.w3.org/2000/svg" width="300" height="300" viewBox="0 0 300 300">
<path d="M 140.99 122.25 L 139.76 122.78 C 138.80 123.20 138.36 124.31 138.77 125.27 C 139.18 126.23 140.30 126.67 141.26 126.26 L 142.49 125.73 C 143.45 125.31 143.89 124.20 143.48 123.24 C 143.07 122.28 141.95 121.84 140.99 122.25 Z M 139.58 122.78 L 139.04 123.07 C 138.08 123.58 137.71 124.77 138.23 125.74 C 138.74 126.70 139.93 127.06 140.89 126.55 L 141.44 126.26 C 142.40 125.75 142.76 124.55 142.25 123.59 C 141.74 122.63 140.54 122.27 139.58 122.78 Z M 140.37 126.79 L 140.92 126.68 C 142.01 126.46 142.72 125.39 142.49 124.30 C 142.27 123.20 141.21 122.49 140.11 122.72 L 139.56 122.83 C 138.47 123.05 137.76 124.12 137.98 125.21 C 138.21 126.31 139.27 127.01 140.37 126.79 Z M 141.15 126.64 L 142.45 126.21 C 143.52 125.86 144.11 124.70 143.75 123.63 C 143.40 122.56 142.24 121.98 141.17 122.33 L 139.87 122.76 C 138.80 123.11 138.22 124.27 138.57 125.34 C 138.93 126.41 140.08 126.99 141.15 126.64 Z M 142.54 126.19 L 143.43 125.85 C 144.49 125.45 145.03 124.26 144.62 123.20 C 144.22 122.14 143.04 121.61 141.97 122.01 L 141.08 122.35 C 140.02 122.75 139.49 123.94 139.89 125.00 C 140.29 126.06 141.48 126.59 142.54 126.19 Z M 143.47 125.84 L 144.36 125.49 C 145.41 125.06 145.92 123.86 145.50 122.81 C 145.08 121.75 143.88 121.24 142.82 121.67 L 141.94 122.02 C 140.88 122.45 140.37 123.64 140.79 124.70 C 141.22 125.75 142.41 126.27 143.47 125.84 Z M 144.37 125.48 L 145.32 125.09 C 146.37 124.66 146.88 123.45 146.44 122.40 C 146.01 121.35 144.81 120.85 143.75 121.28 L 142.81 121.67 C 141.75 122.10 141.25 123.31 141.68 124.36 C 142.12 125.41 143.32 125.91 144.37 125.48 Z M 145.32 125.09 L 146.33 124.67 C 147.38 124.24 147.88 123.04 147.45 121.98 C 147.02 120.93 145.81 120.43 144.76 120.86 L 143.75 121.28 C 142.70 121.71 142.20 122.92 142.63 123.97 C 143.07 125.02 144.27 125.52 145.32 125.09 Z M 146.32 124.68 L 147.29 124.28 C 148.35 123.85 148.86 122.65 148.43 121.60 C 148.00 120.54 146.79 120.03 145.74 120.46 L 144.77 120.86 C 143.71 121.29 143.21 122.49 143.64 123.55 C 144.07 124.60 145.27 125.11 146.32 124.68 Z M 147.29 124.29 L 148.24 123.90 C 149.30 123.48 149.81 122.28 149.39 121.22 C 148.96 120.16 147.76 119.65 146.71 120.08 L 145.75 120.46 C 144.69 120.89 144.18 122.09 144.61 123.14 C 145.03 124.20 146.23 124.71 147.29 124.29 Z M 148.24 123.90 L 149.19 123.52 C 150.25 123.10 150.76 121.90 150.34 120.85 C 149.92 119.79 148.72 119.27 147.67 119.69 L 146.71 120.08 C 145.66 120.50 145.14 121.69 145.56 122.75 C 145.98 123.81 147.18 124.32 148.24 123.90 Z M 149.19 123.52 L 150.11 123.15 C 151.17 122.73 151.69 121.54 151.27 120.48 C 150.85 119.42 149.65 118.91 148.59 119.33 L 147.67 119.70 C 146.61 120.11 146.10 121.31 146.52 122.37 C 146.94 123.42 148.13 123.94 149.19 123.52 Z M 150.11 123.15 L 150.98 122.81 C 152.04 122.39 152.56 121.19 152.14 120.13 C 151.72 119.08 150.52 118.56 149.46 118.98 L 148.59 119.33 C 147.54 119.75 147.02 120.95 147.44 122.00 C 147.86 123.06 149.06 123.57 150.11 123.15 Z M 150.99 122.80 L 151.99 122.40 C 153.04 121.98 153.55 120.78 153.13 119.73 C 152.71 118.68 151.52 118.17 150.46 118.59 L 149.46 118.99 C 148.41 119.41 147.90 120.60 148.32 121.66 C 148.74 122.71 149.93 123.22 150.99 122.80 Z M 151.98 122.39 L 152.91 122.02 C 153.95 121.61 154.46 120.42 154.05 119.37 C 153.63 118.32 152.44 117.81 151.40 118.23 L 150.47 118.60 C 149.42 119.01 148.91 120.20 149.33 121.25 C 149.75 122.30 150.93 122.81 151.98 122.39 Z M 152.89 122.02 L 153.77 121.67 C 154.82 121.27 155.34 120.09 154.93 119.05 C 154.53 118.00 153.35 117.48 152.30 117.89 L 151.42 118.23 C 150.37 118.64 149.85 119.82 150.26 120.86 C 150.66 121.91 151.84 122.42 152.89 122.02 Z M 153.74 121.67 L 154.66 121.33 C 155.70 120.94 156.24 119.78 155.85 118.74 C 155.46 117.69 154.30 117.16 153.25 117.55 L 152.34 117.89 C 151.29 118.28 150.76 119.44 151.15 120.48 C 151.53 121.53 152.70 122.06 153.74 121.67 Z M 154.61 121.34 L 155.60 121.00 C 156.64 120.64 157.20 119.50 156.84 118.45 C 156.48 117.40 155.34 116.85 154.30 117.20 L 153.31 117.54 C 152.26 117.90 151.70 119.04 152.06 120.09 C 152.42 121.14 153.56 121.70 154.61 121.34 Z M 155.50 121.01 L 156.48 120.72 C 157.54 120.42 158.15 119.32 157.84 118.26 C 157.53 117.21 156.43 116.60 155.38 116.91 L 154.39 117.19 C 153.34 117.50 152.73 118.60 153.04 119.66 C 153.34 120.71 154.45 121.32 155.50 121.01 Z M 156.32 120.75 L 157.25 120.56 C 158.32 120.34 159.00 119.30 158.79 118.23 C 158.57 117.17 157.53 116.48 156.46 116.69 L 155.54 116.88 C 154.47 117.10 153.78 118.14 154.00 119.21 C 154.22 120.28 155.26 120.96 156.32 120.75 Z M 156.95 120.56 L 157.99 120.51 C 159.06 120.46 159.89 119.56 159.84 118.49 C 159.79 117.42 158.88 116.59 157.81 116.64 L 156.76 116.69 C 155.69 116.74 154.87 117.65 154.92 118.72 C 154.97 119.79 155.88 120.61 156.95 120.56 Z M 157.65 120.45 L 158.61 120.58 C 159.64 120.72 160.59 120.00 160.74 118.97 C 160.88 117.93 160.16 116.98 159.12 116.84 L 158.16 116.71 C 157.13 116.57 156.18 117.29 156.04 118.32 C 155.89 119.35 156.62 120.30 157.65 120.45 Z M 158.45 120.50 L 159.12 120.65 C 160.11 120.89 161.10 120.28 161.33 119.29 C 161.56 118.30 160.95 117.32 159.97 117.08 L 159.29 116.92 C 158.30 116.69 157.32 117.30 157.08 118.29 C 156.85 119.28 157.46 120.26 158.45 120.50 Z"
      fill="black"
      fill-rule="nonzero" /><path d="M 148.50 110.46 L 148.26 111.35 C 148.00 112.33 148.59 113.33 149.57 113.59 C 150.54 113.85 151.55 113.26 151.80 112.29 L 152.04 111.39 C 152.30 110.41 151.71 109.41 150.73 109.15 C 149.76 108.89 148.75 109.48 148.50 110.46 Z M 148.22 111.43 L 148.02 112.39 C 147.81 113.38 148.44 114.37 149.44 114.58 C 150.44 114.79 151.42 114.16 151.64 113.16 L 151.84 112.21 C 152.05 111.21 151.42 110.23 150.42 110.01 C 149.42 109.80 148.44 110.43 148.22 111.43 Z M 147.98 112.53 L 147.84 113.59 C 147.71 114.61 148.43 115.55 149.45 115.68 C 150.47 115.82 151.41 115.10 151.54 114.07 L 151.68 113.01 C 151.81 111.99 151.09 111.05 150.07 110.92 C 149.05 110.79 148.11 111.51 147.98 112.53 Z M 147.81 113.75 L 147.77 114.73 C 147.72 115.76 148.52 116.64 149.56 116.69 C 150.60 116.74 151.48 115.93 151.53 114.90 L 151.57 113.92 C 151.62 112.88 150.81 112.00 149.78 111.95 C 148.74 111.91 147.86 112.71 147.81 113.75 Z M 147.76 114.82 L 147.77 115.83 C 147.77 116.87 148.62 117.71 149.66 117.70 C 150.71 117.69 151.55 116.84 151.54 115.80 L 151.53 114.80 C 151.53 113.76 150.68 112.92 149.63 112.92 C 148.59 112.93 147.75 113.78 147.76 114.82 Z M 147.76 115.88 L 147.79 116.91 C 147.83 117.95 148.70 118.77 149.75 118.74 C 150.79 118.70 151.61 117.83 151.58 116.78 L 151.55 115.75 C 151.51 114.71 150.64 113.89 149.59 113.92 C 148.55 113.96 147.73 114.83 147.76 115.88 Z M 147.79 116.92 L 147.83 117.94 C 147.87 118.98 148.76 119.80 149.81 119.76 C 150.85 119.71 151.67 118.83 151.63 117.78 L 151.58 116.77 C 151.54 115.72 150.66 114.90 149.61 114.95 C 148.56 114.99 147.75 115.87 147.79 116.92 Z M 147.83 117.92 L 147.86 118.95 C 147.89 120.00 148.77 120.83 149.82 120.79 C 150.87 120.76 151.70 119.88 151.66 118.83 L 151.63 117.80 C 151.60 116.75 150.72 115.92 149.67 115.96 C 148.62 115.99 147.79 116.87 147.83 117.92 Z M 147.86 118.92 L 147.87 119.93 C 147.89 120.98 148.76 121.81 149.81 121.80 C 150.86 121.78 151.70 120.91 151.68 119.86 L 151.66 118.86 C 151.65 117.81 150.78 116.97 149.73 116.99 C 148.68 117.01 147.84 117.87 147.86 118.92 Z M 147.87 119.91 L 147.88 120.88 C 147.89 121.93 148.74 122.78 149.80 122.77 C 150.85 122.77 151.70 121.91 151.69 120.86 L 151.68 119.88 C 151.68 118.83 150.82 117.98 149.77 117.99 C 148.71 118.00 147.87 118.85 147.87 119.91 Z M 147.88 120.87 L 147.88 121.85 C 147.88 122.91 148.73 123.76 149.79 123.76 C 150.84 123.76 151.69 122.90 151.69 121.85 L 151.69 120.87 C 151.69 119.82 150.84 118.96 149.78 118.96 C 148.73 118.97 147.88 119.82 147.88 120.87 Z M 147.88 121.85 L 147.88 122.83 C 147.88 123.88 148.73 124.73 149.78 124.73 C 150.84 124.73 151.69 123.88 151.69 122.83 L 151.69 121.85 C 151.69 120.80 150.84 119.95 149.79 119.95 C 148.73 119.95 147.88 120.80 147.88 121.85 Z M 147.88 122.82 L 147.88 123.82 C 147.88 124.87 148.73 125.73 149.78 125.73 C 150.83 125.73 151.69 124.88 151.69 123.83 L 151.69 122.83 C 151.69 121.78 150.84 120.92 149.79 120.92 C 148.74 120.92 147.88 121.77 147.88 122.82 Z M 147.88 123.82 L 147.87 124.83 C 147.87 125.88 148.72 126.74 149.77 126.74 C 150.82 126.75 151.68 125.90 151.68 124.85 L 151.69 123.84 C 151.69 122.78 150.85 121.93 149.79 121.92 C 148.74 121.91 147.88 122.76 147.88 123.82 Z M 147.87 124.82 L 147.86 125.82 C 147.85 126.88 148.70 127.74 149.75 127.75 C 150.80 127.76 151.66 126.91 151.67 125.86 L 151.68 124.86 C 151.69 123.81 150.85 122.94 149.80 122.93 C 148.74 122.92 147.88 123.77 147.87 124.82 Z M 147.87 125.81 L 147.85 126.75 C 147.83 127.80 148.67 128.67 149.72 128.69 C 150.77 128.71 151.64 127.87 151.66 126.82 L 151.67 125.88 C 151.69 124.82 150.85 123.96 149.80 123.94 C 148.75 123.92 147.88 124.76 147.87 125.81 Z M 147.85 126.73 L 147.82 127.69 C 147.79 128.74 148.61 129.62 149.66 129.65 C 150.71 129.69 151.59 128.86 151.62 127.81 L 151.65 126.85 C 151.68 125.80 150.86 124.92 149.81 124.89 C 148.76 124.85 147.89 125.68 147.85 126.73 Z M 147.83 127.65 L 147.77 128.67 C 147.72 129.71 148.52 130.61 149.57 130.66 C 150.62 130.72 151.51 129.91 151.56 128.87 L 151.62 127.85 C 151.67 126.81 150.87 125.91 149.82 125.86 C 148.77 125.80 147.88 126.61 147.83 127.65 Z M 147.78 128.62 L 147.70 129.70 C 147.62 130.75 148.40 131.66 149.44 131.74 C 150.48 131.82 151.39 131.04 151.47 129.99 L 151.56 128.91 C 151.64 127.87 150.86 126.96 149.81 126.88 C 148.77 126.80 147.86 127.58 147.78 128.62 Z M 147.71 129.66 L 147.61 130.64 C 147.51 131.68 148.26 132.60 149.30 132.71 C 150.34 132.81 151.26 132.05 151.37 131.02 L 151.46 130.04 C 151.57 129.00 150.81 128.07 149.77 127.97 C 148.74 127.87 147.81 128.62 147.71 129.66 Z M 147.62 130.61 L 147.50 131.63 C 147.38 132.66 148.12 133.59 149.15 133.71 C 150.18 133.83 151.12 133.09 151.24 132.06 L 151.35 131.05 C 151.47 130.02 150.73 129.08 149.70 128.96 C 148.67 128.84 147.74 129.58 147.62 130.61 Z M 147.51 131.61 L 147.38 132.63 C 147.25 133.65 147.97 134.59 149.00 134.72 C 150.02 134.86 150.96 134.13 151.09 133.11 L 151.22 132.09 C 151.36 131.06 150.63 130.12 149.61 129.99 C 148.58 129.86 147.65 130.58 147.51 131.61 Z M 147.39 132.61 L 147.26 133.61 C 147.12 134.63 147.83 135.57 148.85 135.71 C 149.86 135.85 150.80 135.14 150.95 134.12 L 151.08 133.12 C 151.22 132.10 150.51 131.16 149.49 131.02 C 148.47 130.88 147.53 131.59 147.39 132.61 Z M 147.27 133.60 L 147.13 134.56 C 146.98 135.57 147.68 136.51 148.69 136.66 C 149.71 136.80 150.65 136.10 150.79 135.09 L 150.93 134.13 C 151.08 133.12 150.38 132.18 149.37 132.03 C 148.35 131.88 147.41 132.58 147.27 133.60 Z M 147.15 134.55 L 146.98 135.64 C 146.83 136.64 147.52 137.58 148.52 137.73 C 149.52 137.88 150.45 137.19 150.60 136.19 L 150.77 135.10 C 150.92 134.10 150.24 133.16 149.24 133.01 C 148.24 132.86 147.30 133.55 147.15 134.55 Z M 147.02 135.63 L 146.86 136.63 C 146.70 137.61 147.37 138.53 148.35 138.69 C 149.33 138.84 150.26 138.17 150.41 137.19 L 150.57 136.20 C 150.73 135.22 150.06 134.30 149.08 134.14 C 148.10 133.98 147.17 134.65 147.02 135.63 Z M 146.89 136.62 L 146.74 137.55 C 146.58 138.51 147.23 139.42 148.20 139.58 C 149.16 139.74 150.07 139.09 150.23 138.12 L 150.38 137.20 C 150.54 136.23 149.89 135.32 148.92 135.16 C 147.96 135.01 147.05 135.66 146.89 136.62 Z M 146.77 137.55 L 146.66 138.21 C 146.50 139.16 147.14 140.05 148.09 140.21 C 149.03 140.37 149.93 139.73 150.09 138.78 L 150.20 138.12 C 150.36 137.17 149.72 136.28 148.77 136.12 C 147.82 135.96 146.93 136.60 146.77 137.55 Z"
      fill="black"
      fill-rule="nonzero" /><path d="M 129.33 144.10 L 128.05 144.33 C 127.17 144.48 126.58 145.31 126.74 146.19 C 126.89 147.07 127.72 147.66 128.60 147.51 L 129.88 147.29 C 130.76 147.14 131.35 146.30 131.20 145.42 C 131.05 144.54 130.21 143.95 129.33 144.10 Z M 128.11 144.20 L 127.11 144.33 C 126.16 144.45 125.49 145.32 125.61 146.26 C 125.73 147.21 126.60 147.88 127.54 147.76 L 128.55 147.63 C 129.49 147.51 130.16 146.65 130.04 145.70 C 129.92 144.75 129.06 144.08 128.11 144.20 Z M 127.66 144.25 L 127.20 144.16 C 126.21 143.97 125.25 144.63 125.06 145.62 C 124.87 146.61 125.53 147.57 126.52 147.76 L 126.98 147.84 C 127.98 148.03 128.93 147.38 129.12 146.39 C 129.31 145.39 128.66 144.44 127.66 144.25 Z M 128.10 147.39 L 128.72 146.86 C 129.51 146.17 129.60 144.98 128.91 144.18 C 128.22 143.39 127.03 143.30 126.23 143.99 L 125.62 144.52 C 124.82 145.21 124.74 146.41 125.42 147.20 C 126.11 147.99 127.31 148.08 128.10 147.39 Z M 128.43 147.11 L 129.50 146.51 C 130.43 145.98 130.76 144.80 130.23 143.87 C 129.70 142.93 128.52 142.61 127.59 143.13 L 126.52 143.74 C 125.59 144.27 125.26 145.45 125.79 146.38 C 126.32 147.31 127.50 147.64 128.43 147.11 Z M 129.45 146.57 L 130.35 146.10 C 131.32 145.60 131.69 144.41 131.19 143.45 C 130.69 142.48 129.50 142.11 128.54 142.61 L 127.64 143.07 C 126.67 143.57 126.30 144.76 126.80 145.73 C 127.30 146.69 128.49 147.07 129.45 146.57 Z M 130.33 146.13 L 131.25 145.68 C 132.23 145.19 132.63 143.99 132.14 143.01 C 131.66 142.03 130.46 141.63 129.48 142.11 L 128.56 142.57 C 127.58 143.06 127.17 144.25 127.66 145.24 C 128.15 146.22 129.35 146.62 130.33 146.13 Z M 131.23 145.71 L 132.16 145.26 C 133.16 144.78 133.58 143.58 133.10 142.58 C 132.62 141.58 131.41 141.16 130.41 141.64 L 129.49 142.08 C 128.49 142.57 128.07 143.77 128.55 144.77 C 129.03 145.77 130.23 146.19 131.23 145.71 Z M 132.14 145.29 L 133.07 144.85 C 134.08 144.38 134.52 143.18 134.05 142.16 C 133.58 141.15 132.37 140.71 131.36 141.18 L 130.43 141.62 C 129.42 142.09 128.98 143.29 129.45 144.31 C 129.92 145.32 131.13 145.76 132.14 145.29 Z M 133.05 144.87 L 133.91 144.49 C 134.93 144.03 135.39 142.83 134.93 141.80 C 134.47 140.78 133.27 140.32 132.25 140.78 L 131.38 141.16 C 130.36 141.62 129.90 142.82 130.36 143.85 C 130.82 144.87 132.02 145.33 133.05 144.87 Z M 133.89 144.51 L 134.77 144.13 C 135.81 143.68 136.28 142.48 135.84 141.44 C 135.39 140.41 134.19 139.93 133.15 140.38 L 132.27 140.76 C 131.23 141.21 130.76 142.41 131.20 143.44 C 131.65 144.48 132.85 144.95 133.89 144.51 Z M 134.75 144.14 L 135.67 143.76 C 136.72 143.32 137.21 142.13 136.78 141.08 C 136.34 140.04 135.15 139.54 134.10 139.97 L 133.18 140.36 C 132.13 140.79 131.64 141.99 132.07 143.04 C 132.50 144.08 133.70 144.58 134.75 144.14 Z M 135.65 143.78 L 136.59 143.40 C 137.64 142.98 138.16 141.79 137.74 140.73 C 137.32 139.68 136.12 139.16 135.07 139.58 L 134.13 139.96 C 133.07 140.38 132.56 141.57 132.98 142.63 C 133.40 143.68 134.59 144.20 135.65 143.78 Z M 136.57 143.42 L 137.49 143.06 C 138.56 142.66 139.09 141.46 138.68 140.40 C 138.27 139.34 137.08 138.80 136.02 139.21 L 135.09 139.57 C 134.03 139.97 133.50 141.17 133.90 142.23 C 134.31 143.29 135.50 143.82 136.57 143.42 Z M 137.48 143.07 L 138.43 142.72 C 139.50 142.32 140.04 141.13 139.64 140.06 C 139.24 138.99 138.05 138.45 136.98 138.85 L 136.03 139.20 C 134.96 139.60 134.42 140.79 134.82 141.86 C 135.22 142.93 136.41 143.47 137.48 143.07 Z M 138.42 142.73 L 139.35 142.38 C 140.43 141.98 140.97 140.79 140.57 139.71 C 140.18 138.64 138.98 138.09 137.91 138.49 L 136.98 138.84 C 135.91 139.24 135.36 140.43 135.76 141.51 C 136.16 142.58 137.35 143.12 138.42 142.73 Z M 139.35 142.39 L 140.28 142.04 C 141.35 141.65 141.91 140.46 141.51 139.38 C 141.12 138.30 139.92 137.75 138.85 138.15 L 137.92 138.49 C 136.84 138.88 136.29 140.07 136.68 141.15 C 137.08 142.23 138.27 142.78 139.35 142.39 Z M 140.26 142.06 L 141.21 141.72 C 142.30 141.33 142.86 140.15 142.48 139.06 C 142.10 137.98 140.91 137.41 139.83 137.80 L 138.87 138.13 C 137.79 138.52 137.22 139.71 137.60 140.79 C 137.98 141.87 139.17 142.44 140.26 142.06 Z M 141.18 141.73 L 142.13 141.41 C 143.22 141.05 143.81 139.86 143.44 138.77 C 143.07 137.68 141.89 137.10 140.80 137.46 L 139.86 137.78 C 138.77 138.15 138.18 139.33 138.55 140.42 C 138.91 141.51 140.09 142.10 141.18 141.73 Z M 142.11 141.42 L 143.07 141.11 C 144.16 140.76 144.76 139.58 144.41 138.49 C 144.05 137.39 142.88 136.79 141.78 137.14 L 140.82 137.45 C 139.73 137.81 139.13 138.99 139.48 140.08 C 139.84 141.18 141.01 141.78 142.11 141.42 Z M 143.06 141.12 L 144.01 140.81 C 145.11 140.46 145.72 139.29 145.37 138.19 C 145.02 137.09 143.84 136.49 142.75 136.83 L 141.79 137.14 C 140.69 137.49 140.08 138.66 140.43 139.76 C 140.78 140.86 141.96 141.47 143.06 141.12 Z M 144.01 140.82 L 144.98 140.51 C 146.08 140.16 146.68 138.99 146.34 137.89 C 145.99 136.79 144.81 136.18 143.71 136.53 L 142.75 136.83 C 141.65 137.18 141.04 138.36 141.39 139.46 C 141.74 140.56 142.91 141.16 144.01 140.82 Z M 144.97 140.51 L 145.92 140.21 C 147.02 139.87 147.63 138.70 147.29 137.60 C 146.94 136.50 145.77 135.88 144.67 136.23 L 143.72 136.53 C 142.62 136.87 142.01 138.04 142.35 139.14 C 142.70 140.24 143.87 140.86 144.97 140.51 Z M 145.90 140.22 L 146.85 139.93 C 147.95 139.59 148.57 138.43 148.24 137.32 C 147.90 136.22 146.74 135.60 145.63 135.94 L 144.69 136.22 C 143.58 136.56 142.96 137.73 143.30 138.83 C 143.63 139.93 144.80 140.55 145.90 140.22 Z M 146.83 139.93 L 147.77 139.66 C 148.88 139.33 149.51 138.18 149.19 137.07 C 148.87 135.96 147.71 135.33 146.60 135.65 L 145.66 135.93 C 144.55 136.25 143.92 137.41 144.24 138.52 C 144.56 139.62 145.72 140.26 146.83 139.93 Z M 147.75 139.66 L 148.72 139.39 C 149.82 139.08 150.47 137.93 150.16 136.82 C 149.85 135.71 148.70 135.07 147.59 135.38 L 146.63 135.65 C 145.52 135.96 144.87 137.11 145.18 138.22 C 145.49 139.33 146.64 139.97 147.75 139.66 Z M 148.70 139.39 L 149.67 139.13 C 150.78 138.83 151.44 137.69 151.14 136.58 C 150.84 135.47 149.69 134.81 148.58 135.11 L 147.61 135.38 C 146.50 135.68 145.84 136.82 146.14 137.93 C 146.44 139.04 147.59 139.69 148.70 139.39 Z M 149.65 139.13 L 150.61 138.88 C 151.72 138.59 152.38 137.46 152.09 136.35 C 151.80 135.24 150.67 134.57 149.56 134.86 L 148.60 135.11 C 147.49 135.40 146.83 136.54 147.12 137.65 C 147.41 138.76 148.54 139.42 149.65 139.13 Z M 150.59 138.88 L 151.56 138.64 C 152.67 138.36 153.34 137.23 153.07 136.12 C 152.79 135.01 151.66 134.34 150.55 134.62 L 149.58 134.86 C 148.47 135.14 147.79 136.27 148.07 137.38 C 148.35 138.49 149.48 139.16 150.59 138.88 Z M 151.54 138.64 L 152.52 138.40 C 153.63 138.13 154.32 137.02 154.05 135.91 C 153.78 134.80 152.67 134.11 151.56 134.38 L 150.57 134.62 C 149.46 134.88 148.78 136.00 149.05 137.11 C 149.31 138.22 150.43 138.91 151.54 138.64 Z M 152.50 138.40 L 153.48 138.18 C 154.59 137.92 155.28 136.81 155.03 135.70 C 154.77 134.59 153.66 133.90 152.55 134.16 L 151.58 134.38 C 150.47 134.64 149.77 135.74 150.03 136.85 C 150.28 137.96 151.39 138.66 152.50 138.40 Z M 153.46 138.18 L 154.44 137.96 C 155.55 137.72 156.25 136.62 156.00 135.51 C 155.76 134.40 154.66 133.70 153.55 133.94 L 152.57 134.16 C 151.46 134.40 150.76 135.50 151.01 136.61 C 151.25 137.72 152.35 138.42 153.46 138.18 Z M 154.42 137.96 L 155.39 137.75 C 156.50 137.52 157.21 136.43 156.98 135.32 C 156.74 134.21 155.65 133.50 154.55 133.74 L 153.57 133.94 C 152.46 134.18 151.75 135.26 151.99 136.37 C 152.22 137.48 153.31 138.19 154.42 137.96 Z M 155.37 137.75 L 156.34 137.56 C 157.45 137.34 158.17 136.26 157.94 135.15 C 157.72 134.04 156.64 133.32 155.53 133.54 L 154.56 133.74 C 153.45 133.96 152.74 135.04 152.96 136.15 C 153.18 137.26 154.26 137.98 155.37 137.75 Z M 156.32 137.56 L 157.29 137.37 C 158.40 137.16 159.13 136.09 158.92 134.98 C 158.70 133.87 157.63 133.14 156.52 133.36 L 155.55 133.54 C 154.44 133.76 153.71 134.83 153.93 135.94 C 154.14 137.05 155.21 137.77 156.32 137.56 Z M 157.28 137.37 L 158.28 137.19 C 159.39 136.98 160.12 135.92 159.92 134.81 C 159.72 133.70 158.66 132.97 157.55 133.17 L 156.54 133.36 C 155.43 133.56 154.70 134.62 154.90 135.73 C 155.11 136.84 156.17 137.57 157.28 137.37 Z M 158.26 137.18 L 159.25 137.01 C 160.36 136.82 161.10 135.77 160.91 134.66 C 160.72 133.55 159.66 132.81 158.56 133.00 L 157.57 133.18 C 156.46 133.37 155.72 134.42 155.91 135.53 C 156.10 136.63 157.16 137.38 158.26 137.18 Z M 159.23 137.01 L 160.23 136.85 C 161.34 136.67 162.09 135.63 161.91 134.52 C 161.73 133.42 160.69 132.67 159.58 132.84 L 158.58 133.01 C 157.48 133.18 156.72 134.22 156.90 135.33 C 157.08 136.44 158.12 137.19 159.23 137.01 Z M 160.19 136.85 L 161.18 136.71 C 162.28 136.55 163.05 135.52 162.89 134.42 C 162.73 133.31 161.71 132.54 160.60 132.70 L 159.62 132.84 C 158.51 133.00 157.75 134.03 157.90 135.13 C 158.06 136.24 159.09 137.01 160.19 136.85 Z M 161.12 136.71 L 162.16 136.58 C 163.26 136.45 164.05 135.45 163.92 134.35 C 163.79 133.24 162.79 132.45 161.68 132.58 L 160.65 132.70 C 159.55 132.83 158.76 133.84 158.89 134.94 C 159.02 136.05 160.02 136.84 161.12 136.71 Z M 162.11 136.58 L 163.11 136.49 C 164.21 136.39 165.03 135.41 164.92 134.30 C 164.82 133.20 163.84 132.39 162.74 132.49 L 161.74 132.58 C 160.63 132.69 159.82 133.66 159.92 134.77 C 160.02 135.87 161.00 136.69 162.11 136.58 Z M 163.08 136.49 L 164.03 136.41 C 165.13 136.33 165.95 135.36 165.87 134.26 C 165.78 133.16 164.82 132.34 163.72 132.42 L 162.77 132.50 C 161.67 132.58 160.84 133.54 160.93 134.64 C 161.01 135.75 161.98 136.57 163.08 136.49 Z M 164.01 136.40 L 165.04 136.33 C 166.14 136.25 166.96 135.30 166.88 134.20 C 166.80 133.10 165.85 132.28 164.75 132.36 L 163.73 132.43 C 162.63 132.51 161.80 133.46 161.88 134.56 C 161.96 135.66 162.92 136.48 164.01 136.40 Z M 165.02 136.32 L 166.01 136.26 C 167.10 136.19 167.93 135.25 167.86 134.16 C 167.79 133.06 166.85 132.23 165.76 132.30 L 164.77 132.36 C 163.68 132.43 162.85 133.37 162.92 134.47 C 162.98 135.56 163.93 136.39 165.02 136.32 Z M 165.96 136.25 L 166.90 136.21 C 167.99 136.17 168.83 135.25 168.79 134.16 C 168.75 133.07 167.83 132.23 166.74 132.27 L 165.80 132.31 C 164.72 132.36 163.87 133.27 163.91 134.36 C 163.96 135.45 164.88 136.29 165.96 136.25 Z M 166.88 136.20 L 167.82 136.17 C 168.90 136.14 169.75 135.24 169.72 134.16 C 169.69 133.08 168.79 132.23 167.71 132.26 L 166.77 132.28 C 165.68 132.31 164.83 133.22 164.86 134.30 C 164.89 135.38 165.79 136.23 166.88 136.20 Z M 167.85 136.16 L 168.93 136.11 C 170.00 136.06 170.83 135.15 170.78 134.08 C 170.74 133.00 169.83 132.17 168.75 132.22 L 167.67 132.27 C 166.60 132.32 165.77 133.23 165.82 134.30 C 165.87 135.38 166.78 136.21 167.85 136.16 Z M 168.98 136.10 L 169.90 136.03 C 170.96 135.95 171.76 135.03 171.69 133.96 C 171.61 132.90 170.68 132.09 169.62 132.17 L 168.70 132.24 C 167.64 132.31 166.83 133.24 166.91 134.31 C 166.99 135.37 167.92 136.17 168.98 136.10 Z M 169.93 136.02 L 170.91 135.93 C 171.97 135.84 172.75 134.90 172.66 133.85 C 172.57 132.79 171.63 132.00 170.58 132.10 L 169.59 132.18 C 168.53 132.28 167.75 133.21 167.84 134.27 C 167.93 135.33 168.87 136.11 169.93 136.02 Z M 170.93 135.92 L 171.97 135.82 C 173.03 135.72 173.80 134.78 173.70 133.73 C 173.60 132.68 172.66 131.91 171.61 132.01 L 170.56 132.11 C 169.51 132.21 168.74 133.14 168.84 134.20 C 168.94 135.25 169.87 136.02 170.93 135.92 Z M 171.98 135.81 L 172.73 135.74 C 173.78 135.63 174.54 134.70 174.44 133.65 C 174.33 132.60 173.40 131.84 172.35 131.94 L 171.60 132.02 C 170.56 132.12 169.79 133.05 169.89 134.10 C 170.00 135.15 170.93 135.91 171.98 135.81 Z"
      fill="black"
      fill-rule="nonzero" /><path d="M 161.19 119.56 L 160.52 120.40 C 159.91 121.17 160.04 122.29 160.81 122.90 C 161.58 123.51 162.69 123.39 163.31 122.62 L 163.97 121.78 C 164.59 121.01 164.46 119.89 163.69 119.28 C 162.92 118.67 161.80 118.79 161.19 119.56 Z M 160.46 120.36 L 159.81 121.17 C 159.17 121.98 159.31 123.15 160.11 123.78 C 160.92 124.42 162.09 124.29 162.72 123.48 L 163.37 122.66 C 164.01 121.86 163.87 120.69 163.07 120.05 C 162.26 119.42 161.10 119.55 160.46 120.36 Z M 159.74 121.13 L 159.14 121.91 C 158.48 122.75 158.63 123.97 159.47 124.63 C 160.31 125.29 161.53 125.14 162.19 124.29 L 162.79 123.52 C 163.45 122.68 163.30 121.46 162.46 120.80 C 161.62 120.14 160.40 120.29 159.74 121.13 Z M 159.06 121.88 L 158.51 122.60 C 157.83 123.49 158.00 124.75 158.89 125.43 C 159.77 126.10 161.04 125.93 161.71 125.05 L 162.26 124.32 C 162.94 123.44 162.77 122.17 161.88 121.50 C 161.00 120.83 159.74 121.00 159.06 121.88 Z M 158.45 122.62 L 157.83 123.48 C 157.16 124.39 157.36 125.67 158.28 126.34 C 159.19 127.01 160.47 126.80 161.14 125.89 L 161.76 125.03 C 162.43 124.12 162.23 122.84 161.32 122.17 C 160.40 121.51 159.12 121.71 158.45 122.62 Z M 157.80 123.53 L 157.26 124.32 C 156.62 125.25 156.86 126.52 157.79 127.16 C 158.72 127.80 159.99 127.56 160.63 126.63 L 161.17 125.84 C 161.81 124.91 161.57 123.64 160.64 123.00 C 159.71 122.36 158.44 122.60 157.80 123.53 Z M 157.24 124.37 L 156.72 125.15 C 156.11 126.10 156.38 127.36 157.32 127.97 C 158.27 128.58 159.53 128.32 160.14 127.37 L 160.65 126.58 C 161.26 125.64 161.00 124.38 160.05 123.77 C 159.11 123.15 157.85 123.42 157.24 124.37 Z M 156.71 125.18 L 156.22 125.96 C 155.62 126.91 155.91 128.16 156.85 128.76 C 157.80 129.36 159.06 129.08 159.66 128.13 L 160.15 127.35 C 160.75 126.40 160.47 125.15 159.52 124.55 C 158.57 123.95 157.31 124.23 156.71 125.18 Z M 156.22 125.97 L 155.69 126.82 C 155.09 127.77 155.38 129.02 156.33 129.62 C 157.28 130.21 158.53 129.92 159.13 128.97 L 159.66 128.12 C 160.25 127.17 159.96 125.91 159.01 125.32 C 158.06 124.73 156.81 125.02 156.22 125.97 Z M 155.69 126.82 L 155.11 127.76 C 154.52 128.70 154.81 129.95 155.76 130.55 C 156.70 131.14 157.95 130.85 158.55 129.90 L 159.13 128.97 C 159.72 128.02 159.43 126.77 158.48 126.18 C 157.53 125.59 156.28 125.88 155.69 126.82 Z M 155.11 127.75 L 154.62 128.54 C 154.02 129.49 154.31 130.74 155.26 131.33 C 156.21 131.92 157.46 131.64 158.05 130.69 L 158.54 129.90 C 159.14 128.95 158.85 127.70 157.90 127.11 C 156.95 126.52 155.70 126.80 155.11 127.75 Z M 154.62 128.53 L 154.10 129.36 C 153.50 130.31 153.79 131.56 154.74 132.15 C 155.68 132.75 156.93 132.46 157.53 131.52 L 158.05 130.69 C 158.64 129.75 158.36 128.50 157.41 127.90 C 156.47 127.30 155.22 127.59 154.62 128.53 Z M 154.10 129.35 L 153.56 130.21 C 152.96 131.16 153.24 132.41 154.18 133.01 C 155.13 133.61 156.38 133.33 156.98 132.39 L 157.53 131.52 C 158.13 130.58 157.85 129.32 156.90 128.72 C 155.95 128.13 154.70 128.41 154.10 129.35 Z M 153.56 130.21 L 152.99 131.10 C 152.38 132.05 152.66 133.30 153.61 133.91 C 154.55 134.51 155.80 134.23 156.41 133.29 L 156.98 132.39 C 157.58 131.45 157.30 130.19 156.36 129.59 C 155.42 128.99 154.16 129.26 153.56 130.21 Z M 152.99 131.10 L 152.46 131.92 C 151.85 132.87 152.13 134.12 153.07 134.73 C 154.01 135.33 155.27 135.06 155.88 134.12 L 156.41 133.29 C 157.01 132.35 156.74 131.09 155.79 130.49 C 154.85 129.88 153.59 130.15 152.99 131.10 Z M 152.46 131.92 L 151.93 132.73 C 151.33 133.68 151.60 134.93 152.54 135.54 C 153.48 136.15 154.74 135.88 155.35 134.94 L 155.88 134.12 C 156.48 133.18 156.21 131.92 155.27 131.31 C 154.33 130.70 153.07 130.97 152.46 131.92 Z M 151.93 132.73 L 151.39 133.57 C 150.78 134.51 151.05 135.77 152.00 136.38 C 152.94 136.99 154.20 136.72 154.81 135.77 L 155.35 134.94 C 155.96 133.99 155.69 132.74 154.75 132.13 C 153.80 131.52 152.54 131.79 151.93 132.73 Z M 151.39 133.57 L 150.84 134.42 C 150.23 135.37 150.50 136.63 151.44 137.24 C 152.39 137.85 153.65 137.58 154.26 136.63 L 154.81 135.78 C 155.42 134.83 155.15 133.57 154.21 132.96 C 153.26 132.35 152.00 132.62 151.39 133.57 Z M 150.83 134.43 L 150.27 135.31 C 149.66 136.25 149.93 137.51 150.88 138.12 C 151.82 138.73 153.09 138.46 153.69 137.51 L 154.26 136.63 C 154.87 135.69 154.60 134.42 153.65 133.82 C 152.70 133.21 151.44 133.48 150.83 134.43 Z M 150.26 135.31 L 149.74 136.13 C 149.13 137.08 149.41 138.34 150.35 138.95 C 151.30 139.56 152.56 139.28 153.17 138.33 L 153.70 137.51 C 154.31 136.56 154.03 135.30 153.08 134.69 C 152.13 134.08 150.87 134.36 150.26 135.31 Z M 149.73 136.13 L 149.20 136.96 C 148.60 137.91 148.88 139.17 149.83 139.78 C 150.78 140.39 152.04 140.11 152.65 139.16 L 153.18 138.33 C 153.78 137.38 153.50 136.12 152.55 135.51 C 151.60 134.90 150.34 135.18 149.73 136.13 Z M 149.20 136.96 L 148.66 137.80 C 148.06 138.75 148.34 140.02 149.29 140.62 C 150.24 141.23 151.50 140.95 152.11 140.00 L 152.65 139.16 C 153.26 138.21 152.98 136.94 152.03 136.34 C 151.07 135.73 149.81 136.01 149.20 136.96 Z M 148.66 137.80 L 148.12 138.65 C 147.51 139.60 147.79 140.87 148.74 141.48 C 149.69 142.09 150.96 141.81 151.57 140.86 L 152.11 140.00 C 152.72 139.05 152.44 137.79 151.49 137.18 C 150.54 136.57 149.27 136.85 148.66 137.80 Z M 148.12 138.65 L 147.57 139.51 C 146.95 140.46 147.23 141.73 148.18 142.34 C 149.13 142.95 150.40 142.67 151.01 141.72 L 151.57 140.86 C 152.18 139.91 151.90 138.64 150.95 138.03 C 150.00 137.42 148.73 137.69 148.12 138.65 Z M 147.57 139.50 L 147.02 140.35 C 146.40 141.30 146.67 142.57 147.62 143.19 C 148.58 143.80 149.85 143.53 150.46 142.58 L 151.01 141.73 C 151.63 140.78 151.35 139.51 150.40 138.89 C 149.45 138.28 148.18 138.55 147.57 139.50 Z M 147.02 140.34 L 146.47 141.18 C 145.85 142.13 146.12 143.40 147.07 144.02 C 148.02 144.64 149.29 144.37 149.91 143.42 L 150.46 142.59 C 151.08 141.64 150.81 140.37 149.86 139.75 C 148.91 139.13 147.64 139.39 147.02 140.34 Z M 146.48 141.17 L 145.93 142.01 C 145.30 142.96 145.56 144.23 146.51 144.85 C 147.46 145.48 148.73 145.21 149.35 144.27 L 149.90 143.43 C 150.53 142.49 150.27 141.21 149.32 140.59 C 148.38 139.97 147.10 140.23 146.48 141.17 Z M 145.93 142.00 L 145.38 142.83 C 144.75 143.78 145.00 145.05 145.94 145.68 C 146.89 146.31 148.16 146.06 148.79 145.11 L 149.35 144.28 C 149.98 143.34 149.72 142.06 148.78 141.43 C 147.84 140.80 146.56 141.06 145.93 142.00 Z M 145.38 142.82 L 144.82 143.65 C 144.19 144.59 144.43 145.86 145.37 146.50 C 146.31 147.14 147.58 146.89 148.22 145.95 L 148.78 145.12 C 149.42 144.19 149.17 142.91 148.23 142.27 C 147.30 141.64 146.02 141.88 145.38 142.82 Z M 144.83 143.64 L 144.27 144.46 C 143.62 145.39 143.86 146.67 144.79 147.31 C 145.73 147.95 147.00 147.72 147.65 146.79 L 148.21 145.97 C 148.85 145.03 148.62 143.76 147.69 143.11 C 146.75 142.47 145.48 142.70 144.83 143.64 Z M 144.28 144.44 L 143.69 145.28 C 143.04 146.21 143.26 147.49 144.19 148.14 C 145.12 148.79 146.39 148.56 147.04 147.64 L 147.63 146.80 C 148.28 145.87 148.06 144.59 147.13 143.94 C 146.21 143.29 144.93 143.52 144.28 144.44 Z M 143.71 145.27 L 143.11 146.10 C 142.45 147.02 142.66 148.29 143.58 148.95 C 144.50 149.61 145.78 149.40 146.43 148.48 L 147.03 147.65 C 147.69 146.73 147.48 145.46 146.56 144.80 C 145.64 144.14 144.36 144.35 143.71 145.27 Z M 143.13 146.08 L 142.53 146.90 C 141.87 147.80 142.06 149.08 142.97 149.75 C 143.88 150.41 145.16 150.22 145.82 149.31 L 146.42 148.49 C 147.08 147.59 146.89 146.31 145.98 145.64 C 145.07 144.98 143.79 145.17 143.13 146.08 Z M 142.55 146.88 L 141.96 147.67 C 141.28 148.57 141.46 149.85 142.36 150.52 C 143.26 151.20 144.54 151.01 145.21 150.12 L 145.81 149.32 C 146.48 148.42 146.30 147.15 145.40 146.47 C 144.50 145.80 143.22 145.98 142.55 146.88 Z M 141.97 147.66 L 141.38 148.43 C 140.70 149.32 140.86 150.59 141.75 151.28 C 142.64 151.96 143.92 151.79 144.60 150.90 L 145.19 150.13 C 145.88 149.24 145.71 147.97 144.82 147.29 C 143.93 146.60 142.66 146.77 141.97 147.66 Z M 141.40 148.41 L 140.78 149.20 C 140.09 150.08 140.24 151.35 141.12 152.04 C 141.99 152.73 143.27 152.58 143.96 151.71 L 144.58 150.92 C 145.27 150.04 145.12 148.77 144.24 148.08 C 143.37 147.39 142.09 147.54 141.40 148.41 Z M 140.80 149.18 L 140.16 149.97 C 139.46 150.84 139.59 152.11 140.46 152.81 C 141.32 153.51 142.59 153.38 143.29 152.52 L 143.94 151.72 C 144.64 150.86 144.51 149.59 143.64 148.89 C 142.78 148.18 141.51 148.32 140.80 149.18 Z M 140.19 149.95 L 139.54 150.72 C 138.83 151.57 138.94 152.84 139.80 153.55 C 140.65 154.27 141.91 154.15 142.63 153.30 L 143.27 152.53 C 143.98 151.68 143.87 150.41 143.02 149.70 C 142.17 148.99 140.90 149.10 140.19 149.95 Z M 139.57 150.71 L 138.92 151.45 C 138.20 152.29 138.30 153.56 139.13 154.28 C 139.97 155.00 141.23 154.91 141.96 154.07 L 142.60 153.32 C 143.32 152.48 143.23 151.22 142.39 150.50 C 141.55 149.77 140.29 149.87 139.57 150.71 Z M 138.95 151.44 L 138.30 152.17 C 137.57 153.00 137.64 154.26 138.47 154.99 C 139.29 155.72 140.55 155.64 141.28 154.82 L 141.93 154.08 C 142.66 153.26 142.59 152.00 141.76 151.27 C 140.94 150.54 139.68 150.61 138.95 151.44 Z M 138.32 152.16 L 137.63 152.92 C 136.89 153.73 136.95 154.98 137.76 155.72 C 138.57 156.46 139.82 156.40 140.56 155.59 L 141.25 154.83 C 141.99 154.02 141.93 152.77 141.13 152.03 C 140.32 151.29 139.06 151.35 138.32 152.16 Z M 137.66 152.91 L 136.94 153.67 C 136.20 154.47 136.24 155.71 137.03 156.45 C 137.82 157.20 139.06 157.16 139.81 156.37 L 140.53 155.60 C 141.27 154.81 141.23 153.57 140.44 152.82 C 139.65 152.08 138.41 152.12 137.66 152.91 Z M 136.98 153.66 L 136.27 154.39 C 135.52 155.16 135.53 156.40 136.30 157.15 C 137.07 157.90 138.31 157.88 139.06 157.11 L 139.77 156.38 C 140.52 155.61 140.50 154.38 139.73 153.63 C 138.96 152.88 137.73 152.89 136.98 153.66 Z M 136.31 154.38 L 135.62 155.06 C 134.86 155.81 134.85 157.03 135.60 157.79 C 136.34 158.55 137.57 158.56 138.32 157.81 L 139.02 157.13 C 139.78 156.38 139.78 155.16 139.04 154.40 C 138.29 153.64 137.07 153.63 136.31 154.38 Z M 135.67 155.04 L 134.98 155.68 C 134.21 156.40 134.17 157.61 134.89 158.38 C 135.61 159.15 136.82 159.19 137.59 158.47 L 138.28 157.83 C 139.05 157.11 139.09 155.90 138.37 155.13 C 137.64 154.36 136.44 154.32 135.67 155.04 Z M 135.05 155.65 L 134.20 156.39 C 133.41 157.07 133.32 158.26 134.01 159.05 C 134.69 159.84 135.88 159.92 136.67 159.24 L 137.52 158.50 C 138.31 157.82 138.39 156.63 137.71 155.84 C 137.03 155.05 135.84 154.97 135.05 155.65 Z M 134.28 156.35 L 133.50 156.97 C 132.69 157.61 132.56 158.78 133.20 159.59 C 133.84 160.39 135.01 160.53 135.82 159.89 L 136.59 159.27 C 137.40 158.63 137.53 157.46 136.89 156.66 C 136.26 155.85 135.08 155.71 134.28 156.35 Z M 133.57 156.94 L 132.86 157.46 C 132.04 158.06 131.86 159.21 132.46 160.03 C 133.06 160.85 134.21 161.03 135.03 160.43 L 135.74 159.91 C 136.56 159.32 136.74 158.17 136.14 157.35 C 135.55 156.53 134.40 156.34 133.57 156.94 Z M 132.95 157.44 L 132.09 158.01 C 131.25 158.56 131.03 159.68 131.58 160.52 C 132.13 161.35 133.25 161.58 134.08 161.03 L 134.94 160.46 C 135.78 159.90 136.00 158.78 135.45 157.95 C 134.90 157.12 133.78 156.89 132.95 157.44 Z M 132.25 157.96 L 131.39 158.41 C 130.53 158.87 130.20 159.95 130.67 160.81 C 131.13 161.67 132.20 162.00 133.06 161.54 L 133.92 161.08 C 134.78 160.62 135.11 159.55 134.65 158.68 C 134.19 157.82 133.11 157.49 132.25 157.96 Z M 131.67 158.34 L 130.68 158.67 C 129.78 158.98 129.29 159.97 129.60 160.87 C 129.91 161.78 130.90 162.26 131.80 161.95 L 132.79 161.62 C 133.70 161.31 134.18 160.32 133.87 159.41 C 133.56 158.51 132.57 158.03 131.67 158.34 Z M 131.16 158.62 L 130.16 158.67 C 129.23 158.71 128.51 159.51 128.55 160.44 C 128.60 161.38 129.39 162.10 130.33 162.05 L 131.33 162.00 C 132.26 161.96 132.98 161.16 132.93 160.23 C 132.89 159.30 132.09 158.57 131.16 158.62 Z M 131.30 159.09 L 130.69 158.59 C 129.99 158.01 128.94 158.11 128.36 158.81 C 127.78 159.52 127.88 160.56 128.59 161.14 L 129.19 161.64 C 129.90 162.22 130.94 162.12 131.52 161.41 C 132.10 160.71 132.00 159.67 131.30 159.09 Z M 131.22 159.56 L 131.03 158.57 C 130.86 157.70 130.02 157.13 129.15 157.29 C 128.28 157.46 127.71 158.30 127.87 159.17 L 128.06 160.16 C 128.23 161.04 129.07 161.61 129.94 161.44 C 130.81 161.27 131.38 160.43 131.22 159.56 Z M 131.02 158.80 L 131.00 158.30 C 130.95 157.44 130.22 156.77 129.35 156.81 C 128.48 156.85 127.81 157.59 127.86 158.45 L 127.88 158.95 C 127.92 159.81 128.66 160.48 129.53 160.44 C 130.39 160.40 131.06 159.66 131.02 158.80 Z"
      fill="black"
      fill-rule="nonzero" /><path d="M 143.78 151.53 L 143.55 152.45 C 143.32 153.35 143.87 154.27 144.77 154.50 C 145.68 154.73 146.60 154.19 146.83 153.28 L 147.07 152.37 C 147.30 151.46 146.75 150.54 145.84 150.31 C 144.93 150.08 144.01 150.62 143.78 151.53 Z M 143.47 152.44 L 143.23 153.39 C 143.00 154.35 143.58 155.31 144.54 155.54 C 145.49 155.77 146.45 155.19 146.68 154.24 L 146.92 153.28 C 147.15 152.33 146.57 151.37 145.61 151.14 C 144.66 150.91 143.70 151.49 143.47 152.44 Z M 143.15 153.40 L 142.92 154.43 C 142.69 155.43 143.31 156.42 144.32 156.65 C 145.32 156.88 146.31 156.25 146.54 155.25 L 146.77 154.23 C 147.00 153.22 146.37 152.23 145.37 152.00 C 144.37 151.78 143.37 152.40 143.15 153.40 Z M 142.86 154.45 L 142.65 155.44 C 142.44 156.47 143.10 157.48 144.14 157.69 C 145.17 157.91 146.18 157.24 146.39 156.21 L 146.59 155.23 C 146.81 154.19 146.14 153.19 145.11 152.97 C 144.08 152.76 143.07 153.42 142.86 154.45 Z M 142.64 155.46 L 142.45 156.46 C 142.25 157.50 142.93 158.51 143.97 158.71 C 145.01 158.91 146.01 158.23 146.21 157.19 L 146.40 156.19 C 146.60 155.15 145.92 154.14 144.88 153.94 C 143.84 153.74 142.84 154.42 142.64 155.46 Z M 142.44 156.48 L 142.26 157.48 C 142.07 158.53 142.76 159.53 143.80 159.72 C 144.84 159.91 145.84 159.22 146.03 158.17 L 146.22 157.17 C 146.41 156.13 145.72 155.13 144.67 154.94 C 143.63 154.75 142.63 155.44 142.44 156.48 Z M 142.26 157.50 L 142.09 158.46 C 141.90 159.51 142.60 160.50 143.64 160.69 C 144.69 160.87 145.68 160.17 145.86 159.13 L 146.04 158.16 C 146.22 157.12 145.52 156.12 144.48 155.94 C 143.44 155.76 142.44 156.45 142.26 157.50 Z M 142.08 158.47 L 141.91 159.50 C 141.73 160.55 142.43 161.54 143.47 161.72 C 144.52 161.90 145.51 161.20 145.69 160.15 L 145.87 159.12 C 146.05 158.08 145.34 157.08 144.30 156.91 C 143.26 156.73 142.26 157.43 142.08 158.47 Z M 141.91 159.51 L 141.74 160.48 C 141.57 161.53 142.27 162.52 143.32 162.69 C 144.36 162.87 145.35 162.16 145.53 161.12 L 145.69 160.14 C 145.87 159.10 145.16 158.11 144.12 157.93 C 143.07 157.76 142.08 158.46 141.91 159.51 Z M 141.74 160.49 L 141.58 161.44 C 141.41 162.49 142.12 163.48 143.16 163.65 C 144.21 163.82 145.20 163.11 145.37 162.07 L 145.53 161.11 C 145.70 160.07 144.99 159.08 143.95 158.91 C 142.90 158.73 141.91 159.44 141.74 160.49 Z M 141.58 161.45 L 141.43 162.39 C 141.26 163.44 141.97 164.42 143.01 164.60 C 144.06 164.77 145.04 164.06 145.21 163.01 L 145.37 162.07 C 145.54 161.02 144.83 160.04 143.79 159.86 C 142.74 159.69 141.76 160.40 141.58 161.45 Z M 141.43 162.40 L 141.27 163.36 C 141.10 164.41 141.81 165.39 142.86 165.56 C 143.90 165.73 144.89 165.02 145.06 163.98 L 145.21 163.01 C 145.38 161.97 144.67 160.98 143.63 160.81 C 142.58 160.64 141.60 161.35 141.43 162.40 Z M 141.27 163.37 L 141.11 164.37 C 140.95 165.42 141.66 166.40 142.70 166.57 C 143.75 166.73 144.73 166.02 144.89 164.98 L 145.05 163.97 C 145.22 162.93 144.51 161.95 143.47 161.78 C 142.42 161.62 141.44 162.33 141.27 163.37 Z M 141.12 164.38 L 140.96 165.40 C 140.79 166.45 141.51 167.42 142.55 167.59 C 143.59 167.75 144.57 167.03 144.73 165.99 L 144.89 164.97 C 145.06 163.93 144.34 162.95 143.30 162.79 C 142.25 162.63 141.28 163.34 141.12 164.38 Z M 140.96 165.41 L 140.81 166.38 C 140.65 167.43 141.37 168.40 142.41 168.56 C 143.46 168.71 144.43 168.00 144.59 166.95 L 144.73 165.98 C 144.89 164.94 144.17 163.97 143.13 163.81 C 142.09 163.65 141.11 164.37 140.96 165.41 Z M 140.81 166.39 L 140.67 167.38 C 140.51 168.42 141.24 169.39 142.28 169.55 C 143.32 169.70 144.29 168.98 144.44 167.93 L 144.59 166.94 C 144.74 165.90 144.02 164.93 142.97 164.78 C 141.93 164.63 140.96 165.35 140.81 166.39 Z M 140.67 167.39 L 140.53 168.39 C 140.38 169.44 141.11 170.40 142.15 170.55 C 143.19 170.69 144.15 169.97 144.30 168.93 L 144.44 167.92 C 144.59 166.88 143.86 165.92 142.82 165.77 C 141.78 165.62 140.81 166.35 140.67 167.39 Z M 140.53 168.40 L 140.39 169.40 C 140.25 170.44 140.98 171.40 142.02 171.54 C 143.06 171.68 144.02 170.96 144.16 169.91 L 144.30 168.91 C 144.44 167.87 143.71 166.92 142.67 166.77 C 141.63 166.63 140.67 167.36 140.53 168.40 Z M 140.40 169.41 L 140.27 170.40 C 140.13 171.44 140.86 172.39 141.90 172.53 C 142.94 172.66 143.89 171.93 144.03 170.89 L 144.16 169.91 C 144.29 168.87 143.56 167.91 142.52 167.78 C 141.49 167.64 140.53 168.37 140.40 169.41 Z M 140.27 170.40 L 140.14 171.40 C 140.01 172.43 140.74 173.38 141.78 173.51 C 142.81 173.65 143.76 172.92 143.89 171.88 L 144.02 170.89 C 144.16 169.86 143.43 168.91 142.39 168.77 C 141.36 168.64 140.41 169.37 140.27 170.40 Z M 140.15 171.39 L 140.02 172.39 C 139.89 173.42 140.61 174.37 141.64 174.50 C 142.67 174.64 143.62 173.91 143.76 172.88 L 143.89 171.88 C 144.02 170.85 143.30 169.91 142.26 169.77 C 141.23 169.64 140.29 170.36 140.15 171.39 Z M 140.03 172.38 L 139.90 173.36 C 139.76 174.38 140.48 175.33 141.50 175.47 C 142.53 175.61 143.48 174.89 143.62 173.86 L 143.75 172.89 C 143.89 171.86 143.17 170.91 142.14 170.77 C 141.11 170.64 140.17 171.36 140.03 172.38 Z M 139.91 173.35 L 139.77 174.31 C 139.63 175.33 140.34 176.27 141.36 176.42 C 142.38 176.56 143.33 175.85 143.47 174.83 L 143.60 173.87 C 143.75 172.85 143.04 171.90 142.02 171.76 C 140.99 171.62 140.05 172.33 139.91 173.35 Z M 139.78 174.31 L 139.64 175.28 C 139.50 176.30 140.20 177.24 141.22 177.38 C 142.23 177.53 143.17 176.82 143.32 175.81 L 143.46 174.83 C 143.60 173.82 142.90 172.88 141.88 172.73 C 140.87 172.59 139.93 173.29 139.78 174.31 Z M 139.65 175.29 L 139.51 176.30 C 139.36 177.31 140.07 178.24 141.07 178.39 C 142.08 178.53 143.02 177.83 143.16 176.82 L 143.31 175.81 C 143.45 174.80 142.75 173.86 141.74 173.72 C 140.73 173.58 139.80 174.28 139.65 175.29 Z M 139.52 176.30 L 139.37 177.34 C 139.23 178.35 139.93 179.28 140.93 179.42 C 141.93 179.56 142.86 178.86 143.01 177.86 L 143.15 176.82 C 143.30 175.81 142.60 174.89 141.59 174.74 C 140.59 174.60 139.66 175.30 139.52 176.30 Z M 139.38 177.35 L 139.24 178.40 C 139.10 179.40 139.80 180.31 140.80 180.45 C 141.79 180.59 142.71 179.89 142.85 178.89 L 142.99 177.85 C 143.13 176.85 142.43 175.93 141.44 175.80 C 140.44 175.66 139.52 176.36 139.38 177.35 Z M 139.25 178.42 L 139.12 179.46 C 139.00 180.45 139.70 181.35 140.69 181.47 C 141.68 181.60 142.58 180.90 142.71 179.91 L 142.84 178.87 C 142.96 177.88 142.26 176.98 141.27 176.85 C 140.28 176.73 139.38 177.43 139.25 178.42 Z M 139.13 179.49 L 139.03 180.47 C 138.93 181.46 139.64 182.34 140.63 182.44 C 141.61 182.54 142.49 181.83 142.60 180.85 L 142.70 179.87 C 142.80 178.88 142.09 178.00 141.10 177.90 C 140.12 177.80 139.24 178.51 139.13 179.49 Z M 139.04 180.54 L 138.98 181.47 C 138.91 182.45 139.65 183.30 140.63 183.37 C 141.60 183.43 142.45 182.70 142.52 181.72 L 142.58 180.78 C 142.65 179.80 141.91 178.96 140.94 178.89 C 139.96 178.82 139.11 179.56 139.04 180.54 Z M 139.01 181.59 L 139.01 182.72 C 139.01 183.68 139.79 184.46 140.75 184.46 C 141.71 184.46 142.49 183.68 142.49 182.72 L 142.49 181.60 C 142.49 180.64 141.71 179.86 140.75 179.86 C 139.79 179.86 139.01 180.63 139.01 181.59 Z M 139.07 182.86 L 139.14 183.78 C 139.22 184.71 140.03 185.40 140.96 185.32 C 141.89 185.25 142.58 184.44 142.50 183.51 L 142.43 182.58 C 142.35 181.65 141.54 180.96 140.61 181.04 C 139.68 181.11 138.99 181.93 139.07 182.86 Z M 139.19 183.84 L 139.25 184.35 C 139.36 185.25 140.18 185.89 141.08 185.79 C 141.98 185.68 142.63 184.86 142.52 183.95 L 142.46 183.45 C 142.35 182.54 141.53 181.90 140.63 182.01 C 139.72 182.12 139.08 182.94 139.19 183.84 Z"
      fill="black"
      fill-rule="nonzero" /><path d="M 147.69 151.50 L 146.35 151.57 C 145.28 151.63 144.46 152.55 144.52 153.63 C 144.58 154.70 145.50 155.52 146.57 155.46 L 147.91 155.38 C 148.98 155.32 149.80 154.40 149.74 153.33 C 149.68 152.26 148.76 151.44 147.69 151.50 Z M 146.35 151.53 L 145.38 151.59 C 144.29 151.64 143.45 152.58 143.51 153.67 C 143.56 154.77 144.50 155.61 145.59 155.55 L 146.56 155.50 C 147.66 155.44 148.50 154.51 148.44 153.41 C 148.38 152.32 147.45 151.48 146.35 151.53 Z M 145.53 151.56 L 145.34 151.56 C 144.23 151.54 143.32 152.41 143.29 153.52 C 143.27 154.63 144.15 155.54 145.25 155.57 L 145.45 155.57 C 146.55 155.60 147.47 154.72 147.49 153.61 C 147.52 152.50 146.64 151.59 145.53 151.56 Z M 145.65 155.51 L 146.62 155.33 C 147.70 155.14 148.41 154.11 148.22 153.04 C 148.02 151.96 146.99 151.25 145.92 151.44 L 144.94 151.62 C 143.87 151.81 143.16 152.84 143.35 153.91 C 143.54 154.99 144.57 155.70 145.65 155.51 Z M 146.81 155.24 L 147.92 154.91 C 148.94 154.61 149.53 153.54 149.23 152.52 C 148.93 151.50 147.86 150.91 146.84 151.21 L 145.73 151.54 C 144.71 151.84 144.12 152.91 144.42 153.93 C 144.72 154.95 145.79 155.54 146.81 155.24 Z M 148.10 154.81 L 148.94 154.47 C 149.91 154.07 150.37 152.96 149.97 152.00 C 149.57 151.03 148.46 150.57 147.50 150.97 L 146.66 151.31 C 145.69 151.71 145.23 152.82 145.63 153.78 C 146.03 154.75 147.14 155.21 148.10 154.81 Z M 149.04 154.39 L 149.95 153.94 C 150.87 153.48 151.25 152.37 150.79 151.45 C 150.34 150.52 149.22 150.15 148.30 150.60 L 147.39 151.05 C 146.47 151.50 146.09 152.62 146.55 153.54 C 147.00 154.46 148.12 154.84 149.04 154.39 Z M 150.01 153.87 L 151.00 153.32 C 151.88 152.83 152.20 151.72 151.71 150.83 C 151.22 149.95 150.10 149.63 149.22 150.12 L 148.23 150.67 C 147.35 151.16 147.03 152.28 147.52 153.16 C 148.01 154.05 149.13 154.36 150.01 153.87 Z M 151.04 153.27 L 151.91 152.75 C 152.77 152.24 153.05 151.13 152.54 150.27 C 152.03 149.41 150.92 149.13 150.06 149.65 L 149.18 150.17 C 148.33 150.68 148.05 151.79 148.56 152.65 C 149.07 153.51 150.18 153.79 151.04 153.27 Z M 151.93 152.72 L 152.80 152.18 C 153.64 151.66 153.90 150.56 153.38 149.71 C 152.86 148.87 151.75 148.61 150.91 149.13 L 150.04 149.67 C 149.20 150.20 148.94 151.30 149.46 152.14 C 149.99 152.99 151.09 153.25 151.93 152.72 Z M 152.81 152.16 L 153.69 151.61 C 154.52 151.08 154.76 149.98 154.23 149.15 C 153.71 148.32 152.61 148.07 151.78 148.60 L 150.90 149.16 C 150.07 149.68 149.83 150.78 150.35 151.61 C 150.88 152.44 151.98 152.69 152.81 152.16 Z M 153.69 151.59 L 154.54 151.04 C 155.36 150.51 155.60 149.42 155.07 148.60 C 154.54 147.78 153.44 147.54 152.62 148.07 L 151.77 148.62 C 150.95 149.15 150.72 150.24 151.25 151.06 C 151.77 151.88 152.87 152.12 153.69 151.59 Z M 154.54 151.03 L 155.33 150.51 C 156.15 149.98 156.38 148.90 155.85 148.08 C 155.32 147.27 154.23 147.04 153.42 147.57 L 152.63 148.08 C 151.81 148.61 151.58 149.70 152.11 150.51 C 152.64 151.32 153.72 151.55 154.54 151.03 Z M 155.33 150.51 L 156.30 149.88 C 157.12 149.36 157.35 148.27 156.83 147.46 C 156.30 146.65 155.22 146.41 154.40 146.94 L 153.43 147.57 C 152.61 148.09 152.38 149.17 152.90 149.99 C 153.43 150.80 154.51 151.03 155.33 150.51 Z M 156.29 149.90 L 157.14 149.36 C 157.97 148.85 158.22 147.77 157.70 146.94 C 157.19 146.12 156.10 145.87 155.28 146.38 L 154.42 146.92 C 153.60 147.43 153.35 148.51 153.86 149.34 C 154.38 150.16 155.46 150.41 156.29 149.90 Z M 157.10 149.40 L 157.87 148.95 C 158.72 148.46 159.00 147.38 158.51 146.54 C 158.02 145.69 156.94 145.41 156.10 145.90 L 155.32 146.35 C 154.48 146.84 154.20 147.92 154.68 148.76 C 155.17 149.60 156.25 149.89 157.10 149.40 Z M 157.79 149.02 L 158.72 148.55 C 159.60 148.11 159.96 147.03 159.52 146.15 C 159.08 145.27 158.01 144.92 157.12 145.36 L 156.19 145.83 C 155.31 146.27 154.95 147.34 155.39 148.22 C 155.83 149.10 156.91 149.46 157.79 149.02 Z M 158.45 148.71 L 159.43 148.42 C 160.40 148.13 160.96 147.11 160.67 146.14 C 160.38 145.17 159.36 144.61 158.39 144.90 L 157.40 145.20 C 156.43 145.49 155.88 146.51 156.17 147.48 C 156.46 148.45 157.48 149.00 158.45 148.71 Z M 158.35 148.46 L 159.04 148.68 C 160.04 148.99 161.10 148.44 161.41 147.44 C 161.72 146.45 161.17 145.39 160.17 145.08 L 159.48 144.86 C 158.48 144.54 157.42 145.10 157.11 146.09 C 156.80 147.09 157.35 148.15 158.35 148.46 Z M 157.83 147.62 L 158.17 148.44 C 158.57 149.42 159.70 149.89 160.69 149.48 C 161.67 149.07 162.14 147.94 161.73 146.96 L 161.39 146.14 C 160.98 145.15 159.85 144.68 158.87 145.09 C 157.88 145.50 157.42 146.63 157.83 147.62 Z M 157.99 147.88 L 158.10 149.02 C 158.20 150.10 159.16 150.89 160.24 150.79 C 161.32 150.69 162.11 149.74 162.01 148.66 L 161.90 147.51 C 161.80 146.44 160.85 145.64 159.77 145.74 C 158.69 145.84 157.89 146.80 157.99 147.88 Z M 158.07 148.86 L 158.08 149.72 C 158.10 150.81 158.99 151.69 160.09 151.68 C 161.18 151.66 162.06 150.76 162.05 149.67 L 162.04 148.81 C 162.02 147.72 161.13 146.84 160.03 146.86 C 158.94 146.87 158.06 147.77 158.07 148.86 Z M 158.08 149.62 L 158.04 150.57 C 158.00 151.67 158.86 152.59 159.96 152.63 C 161.06 152.67 161.98 151.82 162.02 150.72 L 162.05 149.77 C 162.09 148.67 161.24 147.75 160.14 147.71 C 159.04 147.67 158.12 148.52 158.08 149.62 Z M 158.04 150.49 L 157.95 151.62 C 157.87 152.72 158.69 153.68 159.79 153.76 C 160.88 153.85 161.84 153.03 161.93 151.93 L 162.02 150.80 C 162.11 149.70 161.29 148.74 160.19 148.66 C 159.09 148.57 158.13 149.39 158.04 150.49 Z M 157.95 151.56 L 157.84 152.58 C 157.73 153.68 158.52 154.67 159.62 154.79 C 160.72 154.90 161.71 154.10 161.83 153.00 L 161.93 151.99 C 162.05 150.89 161.25 149.90 160.15 149.78 C 159.05 149.67 158.07 150.46 157.95 151.56 Z M 157.84 152.56 L 157.72 153.58 C 157.59 154.68 158.37 155.68 159.48 155.81 C 160.58 155.94 161.58 155.15 161.71 154.05 L 161.83 153.03 C 161.96 151.93 161.17 150.93 160.07 150.80 C 158.97 150.67 157.97 151.46 157.84 152.56 Z M 157.71 153.57 L 157.58 154.61 C 157.45 155.72 158.23 156.73 159.34 156.86 C 160.44 157.00 161.45 156.21 161.58 155.11 L 161.71 154.06 C 161.85 152.96 161.07 151.95 159.96 151.81 C 158.86 151.68 157.85 152.46 157.71 153.57 Z M 157.58 154.61 L 157.45 155.62 C 157.31 156.73 158.10 157.74 159.21 157.88 C 160.31 158.02 161.33 157.23 161.46 156.12 L 161.59 155.11 C 161.73 154.00 160.94 152.99 159.83 152.85 C 158.73 152.72 157.72 153.50 157.58 154.61 Z M 157.44 155.63 L 157.33 156.59 C 157.19 157.71 157.99 158.72 159.10 158.85 C 160.21 158.98 161.22 158.19 161.35 157.08 L 161.47 156.12 C 161.61 155.00 160.81 153.99 159.70 153.86 C 158.59 153.72 157.58 154.52 157.44 155.63 Z M 157.32 156.62 L 157.20 157.77 C 157.08 158.89 157.88 159.89 159.00 160.01 C 160.12 160.13 161.12 159.32 161.24 158.21 L 161.36 157.05 C 161.48 155.94 160.67 154.94 159.56 154.82 C 158.44 154.70 157.44 155.50 157.32 156.62 Z M 157.19 157.81 L 157.11 158.74 C 157.01 159.86 157.83 160.85 158.95 160.95 C 160.07 161.05 161.06 160.22 161.16 159.10 L 161.24 158.17 C 161.34 157.05 160.52 156.06 159.40 155.96 C 158.28 155.87 157.29 156.69 157.19 157.81 Z M 157.10 158.77 L 157.04 159.63 C 156.95 160.75 157.79 161.72 158.91 161.81 C 160.03 161.90 161.01 161.06 161.10 159.94 L 161.16 159.08 C 161.25 157.96 160.41 156.98 159.29 156.89 C 158.17 156.81 157.19 157.65 157.10 158.77 Z M 157.04 159.63 L 156.97 160.60 C 156.88 161.72 157.73 162.70 158.85 162.78 C 159.97 162.86 160.95 162.02 161.03 160.90 L 161.10 159.93 C 161.18 158.81 160.34 157.83 159.22 157.75 C 158.09 157.67 157.12 158.51 157.04 159.63 Z M 156.96 160.62 L 156.90 161.63 C 156.82 162.75 157.68 163.72 158.80 163.80 C 159.92 163.87 160.89 163.02 160.97 161.89 L 161.03 160.88 C 161.11 159.76 160.25 158.79 159.13 158.72 C 158.01 158.64 157.04 159.49 156.96 160.62 Z M 156.89 161.65 L 156.84 162.66 C 156.78 163.78 157.65 164.74 158.77 164.80 C 159.90 164.86 160.86 164.00 160.92 162.87 L 160.97 161.87 C 161.03 160.74 160.16 159.78 159.04 159.72 C 157.91 159.66 156.95 160.53 156.89 161.65 Z M 156.84 162.69 L 156.80 163.67 C 156.76 164.80 157.64 165.75 158.77 165.79 C 159.89 165.83 160.84 164.95 160.88 163.83 L 160.92 162.84 C 160.96 161.71 160.08 160.77 158.96 160.72 C 157.83 160.68 156.88 161.56 156.84 162.69 Z M 156.80 163.70 L 156.78 164.71 C 156.75 165.84 157.64 166.78 158.77 166.81 C 159.89 166.83 160.83 165.94 160.86 164.82 L 160.88 163.80 C 160.91 162.67 160.02 161.74 158.89 161.71 C 157.77 161.68 156.83 162.57 156.80 163.70 Z M 156.78 164.74 L 156.76 165.73 C 156.75 166.86 157.65 167.79 158.77 167.80 C 159.90 167.82 160.83 166.92 160.84 165.79 L 160.86 164.79 C 160.87 163.67 159.97 162.74 158.85 162.72 C 157.72 162.71 156.79 163.61 156.78 164.74 Z M 156.76 165.75 L 156.75 166.73 C 156.75 167.86 157.66 168.78 158.78 168.79 C 159.91 168.79 160.83 167.89 160.84 166.76 L 160.84 165.77 C 160.85 164.65 159.94 163.73 158.82 163.72 C 157.69 163.71 156.77 164.62 156.76 165.75 Z M 156.76 166.74 L 156.75 167.75 C 156.75 168.88 157.66 169.80 158.79 169.80 C 159.92 169.80 160.83 168.89 160.84 167.76 L 160.84 166.75 C 160.84 165.62 159.93 164.71 158.80 164.70 C 157.67 164.70 156.76 165.61 156.76 166.74 Z M 156.75 167.76 L 156.75 168.78 C 156.75 169.91 157.67 170.82 158.79 170.82 C 159.92 170.82 160.83 169.91 160.83 168.78 L 160.83 167.76 C 160.83 166.63 159.92 165.72 158.79 165.72 C 157.67 165.72 156.75 166.63 156.75 167.76 Z M 156.76 168.78 L 156.76 169.80 C 156.76 170.92 157.67 171.83 158.79 171.83 C 159.92 171.83 160.83 170.92 160.83 169.80 L 160.83 168.78 C 160.83 167.66 159.92 166.74 158.79 166.74 C 157.67 166.74 156.76 167.66 156.76 168.78 Z M 156.76 169.80 L 156.76 170.80 C 156.76 171.93 157.67 172.84 158.79 172.84 C 159.92 172.84 160.83 171.93 160.83 170.80 L 160.83 169.80 C 160.83 168.67 159.92 167.76 158.79 167.76 C 157.67 167.76 156.76 168.67 156.76 169.80 Z M 156.76 170.80 L 156.76 171.78 C 156.76 172.91 157.67 173.82 158.79 173.82 C 159.92 173.82 160.83 172.91 160.83 171.78 L 160.83 170.80 C 160.83 169.68 159.92 168.77 158.79 168.77 C 157.67 168.77 156.76 169.68 156.76 170.80 Z M 156.76 171.78 L 156.76 172.83 C 156.76 173.95 157.67 174.86 158.79 174.86 C 159.92 174.86 160.83 173.95 160.83 172.83 L 160.83 171.78 C 160.83 170.66 159.92 169.75 158.79 169.75 C 157.67 169.75 156.76 170.66 156.76 171.78 Z M 156.77 172.83 L 156.77 173.82 C 156.77 174.94 157.67 175.85 158.79 175.85 C 159.91 175.85 160.82 174.94 160.82 173.82 L 160.82 172.83 C 160.82 171.71 159.91 170.80 158.79 170.80 C 157.67 170.80 156.77 171.71 156.77 172.83 Z M 156.77 173.82 L 156.77 174.77 C 156.77 175.89 157.68 176.79 158.79 176.79 C 159.91 176.79 160.82 175.89 160.82 174.77 L 160.82 173.82 C 160.82 172.70 159.91 171.80 158.79 171.80 C 157.68 171.80 156.77 172.70 156.77 173.82 Z M 156.78 174.77 L 156.78 175.71 C 156.78 176.83 157.68 177.73 158.79 177.73 C 159.91 177.73 160.81 176.83 160.81 175.71 L 160.81 174.77 C 160.81 173.66 159.91 172.75 158.79 172.75 C 157.68 172.75 156.78 173.66 156.78 174.77 Z M 156.79 175.71 L 156.79 176.71 C 156.79 177.82 157.68 178.72 158.79 178.72 C 159.90 178.72 160.80 177.82 160.80 176.71 L 160.80 175.71 C 160.80 174.60 159.90 173.70 158.79 173.70 C 157.68 173.70 156.79 174.60 156.79 175.71 Z M 156.79 176.71 L 156.79 177.77 C 156.79 178.87 157.69 179.77 158.79 179.77 C 159.90 179.77 160.79 178.87 160.79 177.77 L 160.79 176.71 C 160.79 175.60 159.90 174.71 158.79 174.71 C 157.69 174.71 156.79 175.60 156.79 176.71 Z M 156.80 177.78 L 156.81 178.77 C 156.81 179.87 157.71 180.76 158.81 180.76 C 159.91 180.75 160.79 179.86 160.79 178.76 L 160.79 177.76 C 160.78 176.66 159.89 175.77 158.79 175.78 C 157.69 175.78 156.80 176.68 156.80 177.78 Z M 156.82 178.80 L 156.83 179.83 C 156.85 180.92 157.76 181.79 158.85 181.77 C 159.95 181.75 160.82 180.85 160.80 179.76 L 160.78 178.73 C 160.76 177.63 159.86 176.76 158.76 176.78 C 157.67 176.80 156.80 177.70 156.82 178.80 Z M 156.85 179.88 L 156.89 180.89 C 156.94 181.97 157.86 182.82 158.95 182.77 C 160.04 182.72 160.88 181.79 160.83 180.71 L 160.79 179.70 C 160.74 178.61 159.82 177.77 158.73 177.82 C 157.64 177.87 156.80 178.79 156.85 179.88 Z M 156.93 181.00 L 157.06 182.27 C 157.17 183.34 158.13 184.11 159.20 184.00 C 160.27 183.89 161.05 182.93 160.93 181.86 L 160.80 180.59 C 160.69 179.52 159.73 178.75 158.66 178.86 C 157.59 178.97 156.81 179.93 156.93 181.00 Z M 157.17 182.57 L 157.42 183.47 C 157.70 184.48 158.75 185.07 159.75 184.79 C 160.76 184.51 161.35 183.47 161.07 182.46 L 160.82 181.55 C 160.54 180.54 159.50 179.95 158.49 180.23 C 157.48 180.51 156.89 181.56 157.17 182.57 Z M 160.02 184.62 L 160.30 184.49 C 161.21 184.07 161.61 182.98 161.18 182.07 C 160.76 181.15 159.67 180.75 158.76 181.18 L 158.48 181.31 C 157.56 181.73 157.16 182.82 157.59 183.73 C 158.01 184.65 159.10 185.05 160.02 184.62 Z M 161.19 183.35 L 161.46 182.47 C 161.75 181.56 161.24 180.58 160.32 180.29 C 159.40 180.01 158.43 180.52 158.14 181.44 L 157.87 182.32 C 157.58 183.23 158.09 184.21 159.01 184.49 C 159.93 184.78 160.90 184.27 161.19 183.35 Z M 161.40 182.32 L 161.69 181.06 C 161.89 180.17 161.33 179.29 160.45 179.09 C 159.56 178.89 158.68 179.45 158.48 180.33 L 158.20 181.59 C 158.00 182.48 158.55 183.36 159.44 183.56 C 160.32 183.76 161.20 183.20 161.40 182.32 Z M 161.64 181.03 L 161.67 180.88 C 161.85 180.03 161.31 179.18 160.45 179.00 C 159.59 178.81 158.75 179.36 158.56 180.22 L 158.53 180.36 C 158.35 181.22 158.90 182.06 159.75 182.25 C 160.61 182.43 161.46 181.88 161.64 181.03 Z"
      fill="black"
      fill-rule="nonzero" /><path d="M 145.28 165.75 L 144.08 166.11 C 143.08 166.40 142.51 167.46 142.81 168.46 C 143.11 169.46 144.17 170.03 145.17 169.73 L 146.36 169.37 C 147.36 169.07 147.93 168.02 147.63 167.02 C 147.33 166.02 146.28 165.45 145.28 165.75 Z M 145.56 166.17 L 145.22 165.99 C 144.26 165.48 143.06 165.84 142.54 166.80 C 142.03 167.77 142.39 168.97 143.36 169.48 L 143.69 169.66 C 144.66 170.18 145.85 169.81 146.37 168.85 C 146.88 167.89 146.52 166.69 145.56 166.17 Z M 145.82 169.04 L 146.42 168.34 C 147.14 167.49 147.04 166.22 146.19 165.50 C 145.34 164.78 144.07 164.88 143.35 165.73 L 142.75 166.43 C 142.03 167.28 142.13 168.55 142.98 169.27 C 143.83 170.00 145.10 169.89 145.82 169.04 Z M 146.18 168.59 L 147.11 167.81 C 147.97 167.09 148.08 165.81 147.37 164.96 C 146.65 164.10 145.37 163.99 144.52 164.70 L 143.58 165.49 C 142.73 166.20 142.61 167.48 143.33 168.34 C 144.05 169.19 145.33 169.30 146.18 168.59 Z M 146.94 167.94 L 147.74 167.40 C 148.66 166.78 148.91 165.52 148.29 164.60 C 147.67 163.67 146.41 163.42 145.48 164.04 L 144.69 164.57 C 143.76 165.20 143.51 166.45 144.13 167.38 C 144.76 168.31 146.01 168.56 146.94 167.94 Z M 147.59 167.49 L 148.47 167.00 C 149.44 166.46 149.79 165.23 149.25 164.25 C 148.71 163.28 147.48 162.93 146.50 163.47 L 145.62 163.96 C 144.65 164.50 144.30 165.73 144.84 166.71 C 145.38 167.68 146.62 168.03 147.59 167.49 Z M 148.37 167.05 L 149.29 166.60 C 150.30 166.11 150.71 164.90 150.22 163.90 C 149.73 162.90 148.52 162.48 147.52 162.97 L 146.60 163.42 C 145.60 163.91 145.18 165.12 145.67 166.12 C 146.16 167.12 147.37 167.54 148.37 167.05 Z M 149.24 166.61 L 150.16 166.20 C 151.17 165.74 151.61 164.54 151.15 163.53 C 150.69 162.52 149.50 162.08 148.49 162.54 L 147.57 162.95 C 146.56 163.41 146.12 164.61 146.58 165.62 C 147.04 166.63 148.23 167.07 149.24 166.61 Z M 150.12 166.20 L 151.06 165.79 C 152.08 165.35 152.54 164.17 152.10 163.16 C 151.66 162.14 150.48 161.68 149.46 162.12 L 148.52 162.53 C 147.51 162.97 147.04 164.15 147.49 165.17 C 147.93 166.18 149.11 166.64 150.12 166.20 Z M 151.04 165.79 L 151.95 165.41 C 152.97 164.98 153.44 163.81 153.02 162.80 C 152.59 161.79 151.42 161.31 150.41 161.73 L 149.49 162.12 C 148.48 162.55 148.00 163.71 148.43 164.73 C 148.85 165.74 150.02 166.22 151.04 165.79 Z M 151.91 165.39 L 152.89 165.00 C 153.89 164.59 154.38 163.45 153.97 162.45 C 153.57 161.44 152.42 160.95 151.42 161.36 L 150.45 161.75 C 149.44 162.16 148.96 163.30 149.36 164.30 C 149.77 165.31 150.91 165.80 151.91 165.39 Z M 152.83 164.97 L 153.74 164.62 C 154.73 164.25 155.23 163.15 154.85 162.16 C 154.48 161.17 153.38 160.67 152.39 161.05 L 151.48 161.39 C 150.49 161.76 149.99 162.87 150.36 163.85 C 150.74 164.84 151.84 165.34 152.83 164.97 Z M 153.67 164.59 L 154.59 164.28 C 155.56 163.94 156.08 162.88 155.74 161.91 C 155.41 160.94 154.35 160.42 153.38 160.76 L 152.46 161.08 C 151.49 161.41 150.97 162.47 151.31 163.44 C 151.64 164.41 152.70 164.93 153.67 164.59 Z M 154.52 164.25 L 155.49 163.94 C 156.45 163.65 156.98 162.63 156.68 161.68 C 156.38 160.72 155.37 160.19 154.42 160.49 L 153.44 160.79 C 152.49 161.09 151.96 162.10 152.25 163.06 C 152.55 164.01 153.57 164.54 154.52 164.25 Z M 155.42 163.91 L 156.39 163.64 C 157.33 163.39 157.88 162.42 157.62 161.48 C 157.37 160.55 156.40 160.00 155.46 160.25 L 154.49 160.52 C 153.55 160.78 153.00 161.74 153.26 162.68 C 153.51 163.62 154.48 164.17 155.42 163.91 Z M 156.30 163.61 L 157.28 163.39 C 158.20 163.18 158.77 162.27 158.57 161.35 C 158.36 160.43 157.44 159.85 156.52 160.06 L 155.55 160.28 C 154.63 160.49 154.05 161.41 154.26 162.33 C 154.47 163.25 155.39 163.82 156.30 163.61 Z M 157.18 163.36 L 158.18 163.19 C 159.09 163.03 159.69 162.18 159.54 161.28 C 159.38 160.38 158.53 159.77 157.63 159.92 L 156.62 160.10 C 155.72 160.25 155.11 161.10 155.27 162.01 C 155.42 162.91 156.28 163.51 157.18 163.36 Z M 158.12 163.15 L 159.07 163.02 C 159.95 162.90 160.57 162.10 160.45 161.22 C 160.33 160.34 159.53 159.72 158.65 159.84 L 157.70 159.97 C 156.82 160.08 156.20 160.89 156.32 161.77 C 156.43 162.64 157.24 163.26 158.12 163.15 Z M 159.05 162.99 L 159.18 162.97 C 160.05 162.87 160.66 162.08 160.55 161.22 C 160.45 160.36 159.66 159.75 158.80 159.85 L 158.67 159.87 C 157.80 159.98 157.19 160.76 157.30 161.62 C 157.41 162.49 158.19 163.10 159.05 162.99 Z"
      fill="black"
      fill-rule="nonzero" /><path d="M 142.35 181.64 L 141.38 182.41 C 140.62 183.01 140.49 184.12 141.09 184.88 C 141.70 185.64 142.80 185.77 143.57 185.17 L 144.53 184.40 C 145.30 183.79 145.42 182.69 144.82 181.93 C 144.21 181.16 143.11 181.04 142.35 181.64 Z M 141.83 185.59 L 141.93 185.62 C 142.93 185.98 144.02 185.46 144.37 184.46 C 144.72 183.47 144.20 182.38 143.21 182.02 L 143.11 181.99 C 142.12 181.64 141.02 182.16 140.67 183.15 C 140.32 184.14 140.84 185.24 141.83 185.59 Z M 143.47 185.61 L 144.46 185.11 C 145.44 184.61 145.84 183.41 145.34 182.43 C 144.85 181.44 143.65 181.05 142.66 181.54 L 141.67 182.04 C 140.69 182.54 140.29 183.74 140.79 184.72 C 141.28 185.71 142.48 186.10 143.47 185.61 Z M 144.39 185.19 L 145.47 184.70 C 146.50 184.25 146.96 183.04 146.50 182.01 C 146.04 180.99 144.84 180.52 143.81 180.98 L 142.73 181.47 C 141.70 181.92 141.24 183.13 141.70 184.16 C 142.16 185.18 143.36 185.64 144.39 185.19 Z M 145.40 184.74 L 146.33 184.37 C 147.38 183.95 147.90 182.76 147.47 181.71 C 147.05 180.66 145.86 180.15 144.81 180.57 L 143.88 180.94 C 142.83 181.36 142.32 182.55 142.74 183.60 C 143.16 184.65 144.35 185.17 145.40 184.74 Z M 146.31 184.38 L 147.27 184.01 C 148.33 183.61 148.86 182.42 148.45 181.37 C 148.05 180.31 146.86 179.78 145.80 180.19 L 144.84 180.56 C 143.78 180.96 143.26 182.15 143.66 183.20 C 144.07 184.26 145.25 184.79 146.31 184.38 Z M 147.27 184.01 L 148.21 183.65 C 149.27 183.25 149.79 182.06 149.39 181.01 C 148.98 179.95 147.80 179.42 146.74 179.83 L 145.81 180.19 C 144.75 180.59 144.22 181.78 144.63 182.83 C 145.03 183.89 146.22 184.42 147.27 184.01 Z M 148.23 183.64 L 149.15 183.27 C 150.20 182.85 150.71 181.66 150.29 180.62 C 149.88 179.57 148.69 179.06 147.64 179.48 L 146.72 179.84 C 145.67 180.26 145.16 181.45 145.58 182.50 C 146.00 183.54 147.18 184.06 148.23 183.64 Z M 149.19 183.24 L 150.07 182.87 C 151.11 182.43 151.59 181.24 151.15 180.21 C 150.72 179.18 149.53 178.69 148.49 179.13 L 147.61 179.50 C 146.57 179.94 146.09 181.13 146.53 182.16 C 146.96 183.20 148.15 183.68 149.19 183.24 Z M 150.10 182.84 L 151.03 182.43 C 152.04 181.98 152.50 180.78 152.05 179.77 C 151.59 178.75 150.40 178.29 149.38 178.74 L 148.46 179.16 C 147.44 179.61 146.98 180.80 147.44 181.82 C 147.89 182.84 149.09 183.30 150.10 182.84 Z M 151.05 182.41 L 151.93 182.00 C 152.93 181.53 153.37 180.34 152.90 179.34 C 152.43 178.33 151.24 177.90 150.24 178.36 L 149.36 178.77 C 148.35 179.24 147.92 180.43 148.38 181.43 C 148.85 182.44 150.04 182.87 151.05 182.41 Z M 151.93 181.98 L 152.78 181.57 C 153.77 181.10 154.20 179.92 153.73 178.92 C 153.26 177.93 152.07 177.51 151.08 177.98 L 150.23 178.38 C 149.24 178.85 148.81 180.04 149.29 181.03 C 149.76 182.02 150.94 182.45 151.93 181.98 Z M 152.78 181.55 L 153.69 181.12 C 154.67 180.65 155.08 179.47 154.61 178.49 C 154.14 177.51 152.97 177.10 151.99 177.57 L 151.08 178.00 C 150.10 178.47 149.68 179.65 150.15 180.63 C 150.62 181.61 151.80 182.02 152.78 181.55 Z M 153.68 181.10 L 154.63 180.65 C 155.60 180.18 156.01 179.02 155.55 178.05 C 155.08 177.08 153.92 176.66 152.94 177.13 L 152.00 177.58 C 151.02 178.05 150.61 179.21 151.08 180.19 C 151.54 181.16 152.71 181.57 153.68 181.10 Z M 154.62 180.63 L 155.58 180.17 C 156.55 179.72 156.96 178.56 156.50 177.60 C 156.04 176.64 154.89 176.23 153.93 176.68 L 152.96 177.14 C 151.99 177.60 151.58 178.75 152.04 179.72 C 152.50 180.68 153.65 181.09 154.62 180.63 Z M 155.56 180.15 L 156.46 179.73 C 157.40 179.28 157.81 178.15 157.37 177.20 C 156.92 176.25 155.79 175.85 154.84 176.29 L 153.95 176.71 C 153.00 177.16 152.59 178.29 153.04 179.24 C 153.48 180.19 154.61 180.59 155.56 180.15 Z M 156.43 179.69 L 157.33 179.27 C 158.26 178.84 158.66 177.73 158.23 176.81 C 157.80 175.88 156.70 175.48 155.77 175.91 L 154.87 176.33 C 153.94 176.76 153.54 177.86 153.97 178.79 C 154.40 179.72 155.50 180.12 156.43 179.69 Z M 157.31 179.23 L 158.22 178.81 C 159.13 178.39 159.52 177.32 159.10 176.41 C 158.68 175.50 157.61 175.11 156.71 175.53 L 155.80 175.95 C 154.89 176.37 154.49 177.44 154.91 178.35 C 155.33 179.25 156.40 179.65 157.31 179.23 Z M 158.20 178.77 L 159.11 178.35 C 160.00 177.94 160.38 176.90 159.98 176.01 C 159.57 175.13 158.52 174.74 157.64 175.15 L 156.73 175.57 C 155.84 175.98 155.46 177.02 155.86 177.90 C 156.27 178.79 157.32 179.17 158.20 178.77 Z M 159.09 178.31 L 159.89 177.94 C 160.75 177.55 161.13 176.53 160.73 175.67 C 160.33 174.81 159.32 174.43 158.45 174.82 L 157.66 175.19 C 156.80 175.58 156.42 176.60 156.82 177.46 C 157.21 178.33 158.23 178.70 159.09 178.31 Z"
      fill="black"
      fill-rule="nonzero" /></svg>