<svg xmlns="http://www.w3.org/2000/svg" width="300" height="300" viewBox="0 0 300 300">
<path d="M 155.04 109.96 L 155.57 108.71 C 155.93 107.85 155.53 106.86 154.67 106.50 C 153.81 106.13 152.83 106.53 152.46 107.39 L 151.93 108.64 C 151.57 109.50 151.97 110.49 152.83 110.85 C 153.69 111.22 154.68 110.82 155.04 109.96 Z M 155.70 108.86 L 155.94 108.38 C 156.39 107.45 156.00 106.33 155.06 105.88 C 154.13 105.43 153.01 105.82 152.56 106.75 L 152.33 107.23 C 151.88 108.16 152.27 109.29 153.20 109.74 C 154.13 110.19 155.25 109.80 155.70 108.86 Z M 152.37 106.96 L 152.19 107.52 C 151.85 108.56 152.42 109.68 153.46 110.01 C 154.50 110.35 155.61 109.77 155.95 108.74 L 156.13 108.17 C 156.46 107.13 155.89 106.02 154.85 105.69 C 153.81 105.35 152.70 105.92 152.37 106.96 Z M 152.20 107.44 L 151.77 108.60 C 151.38 109.64 151.91 110.78 152.94 111.17 C 153.97 111.55 155.12 111.02 155.50 109.99 L 155.94 108.82 C 156.32 107.79 155.79 106.64 154.76 106.26 C 153.73 105.88 152.58 106.40 152.20 107.44 Z M 151.77 108.56 L 151.32 109.68 C 150.91 110.71 151.42 111.87 152.45 112.28 C 153.48 112.69 154.64 112.19 155.05 111.16 L 155.50 110.04 C 155.91 109.01 155.40 107.84 154.37 107.43 C 153.34 107.02 152.18 107.53 151.77 108.56 Z M 151.33 109.64 L 150.93 110.60 C 150.50 111.62 150.98 112.80 152.01 113.23 C 153.03 113.66 154.21 113.18 154.64 112.16 L 155.04 111.20 C 155.47 110.17 154.99 108.99 153.97 108.56 C 152.94 108.13 151.76 108.62 151.33 109.64 Z M 150.94 110.57 L 150.54 111.48 C 150.09 112.50 150.55 113.69 151.57 114.14 C 152.59 114.59 153.78 114.13 154.23 113.11 L 154.63 112.19 C 155.08 111.17 154.62 109.98 153.60 109.53 C 152.58 109.08 151.39 109.55 150.94 110.57 Z M 150.55 111.45 L 150.15 112.31 C 149.68 113.32 150.12 114.52 151.13 114.99 C 152.14 115.46 153.34 115.02 153.81 114.01 L 154.21 113.14 C 154.68 112.13 154.24 110.93 153.23 110.46 C 152.22 110.00 151.02 110.43 150.55 111.45 Z M 150.17 112.26 L 149.71 113.20 C 149.21 114.20 149.62 115.41 150.62 115.91 C 151.62 116.40 152.83 115.99 153.32 115.00 L 153.79 114.05 C 154.29 113.05 153.88 111.84 152.88 111.35 C 151.88 110.85 150.67 111.26 150.17 112.26 Z M 149.73 113.16 L 149.28 114.01 C 148.76 114.99 149.14 116.21 150.13 116.73 C 151.11 117.25 152.33 116.88 152.85 115.89 L 153.30 115.04 C 153.82 114.05 153.44 112.83 152.45 112.31 C 151.47 111.80 150.25 112.17 149.73 113.16 Z M 149.29 113.99 L 148.84 114.83 C 148.31 115.81 148.67 117.04 149.65 117.57 C 150.63 118.10 151.85 117.73 152.38 116.75 L 152.84 115.91 C 153.37 114.93 153.01 113.71 152.03 113.18 C 151.05 112.65 149.82 113.01 149.29 113.99 Z M 148.84 114.83 L 148.36 115.71 C 147.83 116.68 148.19 117.91 149.17 118.44 C 150.15 118.97 151.37 118.61 151.90 117.63 L 152.38 116.76 C 152.91 115.78 152.55 114.56 151.57 114.02 C 150.60 113.49 149.37 113.85 148.84 114.83 Z M 148.37 115.69 L 147.88 116.58 C 147.34 117.56 147.69 118.78 148.67 119.32 C 149.64 119.86 150.87 119.50 151.41 118.53 L 151.90 117.64 C 152.43 116.67 152.08 115.44 151.11 114.91 C 150.13 114.37 148.91 114.72 148.37 115.69 Z M 147.89 116.56 L 147.40 117.44 C 146.85 118.41 147.19 119.63 148.16 120.18 C 149.12 120.73 150.35 120.39 150.90 119.42 L 151.39 118.55 C 151.94 117.58 151.60 116.35 150.63 115.80 C 149.67 115.26 148.44 115.60 147.89 116.56 Z M 147.41 117.42 L 146.91 118.28 C 146.35 119.23 146.67 120.47 147.63 121.03 C 148.59 121.59 149.82 121.26 150.38 120.30 L 150.89 119.45 C 151.45 118.49 151.12 117.25 150.16 116.69 C 149.20 116.13 147.97 116.46 147.41 117.42 Z M 146.92 118.25 L 146.41 119.11 C 145.83 120.06 146.14 121.29 147.09 121.87 C 148.04 122.44 149.28 122.14 149.85 121.19 L 150.37 120.33 C 150.94 119.38 150.64 118.14 149.69 117.57 C 148.73 116.99 147.50 117.30 146.92 118.25 Z M 146.42 119.08 L 145.91 119.91 C 145.32 120.85 145.61 122.09 146.55 122.68 C 147.49 123.26 148.73 122.98 149.32 122.04 L 149.83 121.21 C 150.42 120.27 150.14 119.03 149.19 118.44 C 148.25 117.85 147.01 118.14 146.42 119.08 Z M 145.92 119.88 L 145.38 120.72 C 144.78 121.66 145.05 122.90 145.98 123.50 C 146.91 124.10 148.16 123.84 148.76 122.90 L 149.30 122.06 C 149.90 121.13 149.64 119.88 148.70 119.28 C 147.77 118.68 146.53 118.95 145.92 119.88 Z M 145.40 120.70 L 144.83 121.55 C 144.22 122.48 144.47 123.72 145.40 124.34 C 146.32 124.95 147.57 124.70 148.18 123.77 L 148.74 122.92 C 149.36 122.00 149.11 120.75 148.18 120.14 C 147.26 119.53 146.01 119.78 145.40 120.70 Z M 144.85 121.53 L 144.30 122.34 C 143.67 123.25 143.91 124.50 144.83 125.13 C 145.75 125.75 146.99 125.52 147.62 124.60 L 148.17 123.79 C 148.79 122.88 148.56 121.63 147.64 121.00 C 146.72 120.38 145.47 120.61 144.85 121.53 Z M 144.31 122.32 L 143.74 123.14 C 143.10 124.06 143.33 125.31 144.24 125.94 C 145.15 126.57 146.40 126.35 147.03 125.44 L 147.61 124.62 C 148.24 123.70 148.02 122.45 147.11 121.82 C 146.20 121.18 144.94 121.41 144.31 122.32 Z M 143.75 123.13 L 143.15 123.97 C 142.51 124.87 142.72 126.13 143.63 126.77 C 144.53 127.41 145.79 127.20 146.43 126.29 L 147.02 125.45 C 147.67 124.55 147.45 123.30 146.55 122.65 C 145.64 122.01 144.39 122.22 143.75 123.13 Z M 143.16 123.95 L 142.59 124.75 C 141.94 125.65 142.14 126.90 143.04 127.55 C 143.94 128.20 145.19 128.00 145.84 127.10 L 146.42 126.31 C 147.07 125.41 146.87 124.15 145.97 123.50 C 145.07 122.85 143.81 123.05 143.16 123.95 Z M 142.60 124.74 L 142.01 125.54 C 141.35 126.43 141.54 127.69 142.43 128.35 C 143.33 129.00 144.58 128.81 145.24 127.92 L 145.83 127.11 C 146.49 126.22 146.30 124.96 145.41 124.31 C 144.51 123.65 143.26 123.84 142.60 124.74 Z M 142.02 125.53 L 141.41 126.34 C 140.74 127.22 140.92 128.48 141.81 129.15 C 142.70 129.81 143.95 129.63 144.62 128.75 L 145.23 127.93 C 145.89 127.05 145.71 125.79 144.83 125.13 C 143.94 124.46 142.68 124.64 142.02 125.53 Z M 141.42 126.32 L 140.82 127.11 C 140.15 127.99 140.31 129.25 141.19 129.92 C 142.07 130.59 143.33 130.43 144.00 129.55 L 144.60 128.76 C 145.28 127.88 145.11 126.63 144.23 125.95 C 143.36 125.28 142.10 125.44 141.42 126.32 Z M 140.84 127.09 L 140.22 127.87 C 139.54 128.74 139.69 130.00 140.56 130.68 C 141.43 131.37 142.69 131.21 143.37 130.34 L 143.99 129.56 C 144.67 128.69 144.52 127.44 143.65 126.75 C 142.78 126.07 141.52 126.22 140.84 127.09 Z M 140.24 127.86 L 139.61 128.64 C 138.92 129.50 139.06 130.76 139.92 131.45 C 140.78 132.14 142.04 132.01 142.73 131.14 L 143.36 130.36 C 144.05 129.50 143.91 128.24 143.05 127.55 C 142.19 126.86 140.93 127.00 140.24 127.86 Z M 139.63 128.63 L 138.98 129.42 C 138.28 130.27 138.41 131.53 139.26 132.23 C 140.11 132.92 141.37 132.80 142.07 131.95 L 142.71 131.16 C 143.41 130.31 143.29 129.05 142.44 128.35 C 141.58 127.65 140.33 127.78 139.63 128.63 Z M 139.00 129.40 L 138.35 130.18 C 137.64 131.02 137.75 132.28 138.59 132.99 C 139.43 133.69 140.69 133.58 141.39 132.74 L 142.05 131.96 C 142.75 131.12 142.64 129.86 141.80 129.16 C 140.96 128.45 139.71 128.56 139.00 129.40 Z M 138.37 130.17 L 137.71 130.93 C 136.99 131.76 137.09 133.02 137.92 133.73 C 138.75 134.44 140.00 134.35 140.71 133.52 L 141.37 132.76 C 142.09 131.93 141.99 130.67 141.16 129.96 C 140.33 129.25 139.08 129.34 138.37 130.17 Z M 137.73 130.92 L 137.08 131.65 C 136.35 132.47 136.43 133.72 137.24 134.44 C 138.06 135.17 139.30 135.09 140.03 134.28 L 140.68 133.54 C 141.41 132.73 141.34 131.48 140.52 130.75 C 139.71 130.03 138.46 130.10 137.73 130.92 Z M 137.11 131.63 L 136.42 132.38 C 135.68 133.17 135.72 134.42 136.52 135.16 C 137.32 135.89 138.56 135.85 139.30 135.05 L 139.99 134.30 C 140.73 133.51 140.69 132.26 139.89 131.52 C 139.09 130.79 137.85 130.83 137.11 131.63 Z M 136.45 132.35 L 135.74 133.09 C 134.99 133.86 135.01 135.10 135.78 135.85 C 136.56 136.60 137.80 136.58 138.55 135.81 L 139.26 135.08 C 140.01 134.30 139.99 133.06 139.22 132.31 C 138.44 131.56 137.21 131.58 136.45 132.35 Z M 135.78 133.07 L 135.09 133.75 C 134.33 134.51 134.32 135.74 135.08 136.50 C 135.84 137.26 137.07 137.27 137.83 136.51 L 138.52 135.83 C 139.28 135.07 139.28 133.84 138.53 133.08 C 137.77 132.32 136.54 132.31 135.78 133.07 Z M 135.11 133.75 L 134.40 134.44 C 133.63 135.18 133.62 136.41 134.36 137.17 C 135.10 137.94 136.33 137.95 137.09 137.21 L 137.80 136.52 C 138.57 135.77 138.59 134.55 137.84 133.79 C 137.10 133.02 135.88 133.00 135.11 133.75 Z M 134.43 134.44 L 133.68 135.14 C 132.92 135.87 132.88 137.08 133.61 137.85 C 134.34 138.62 135.55 138.65 136.32 137.92 L 137.06 137.22 C 137.83 136.49 137.86 135.28 137.13 134.51 C 136.41 133.74 135.19 133.71 134.43 134.44 Z M 133.73 135.12 L 133.01 135.77 C 132.23 136.48 132.17 137.68 132.88 138.45 C 133.58 139.23 134.78 139.29 135.56 138.59 L 136.27 137.94 C 137.05 137.24 137.11 136.04 136.41 135.26 C 135.70 134.48 134.51 134.42 133.73 135.12 Z M 133.08 135.74 L 132.33 136.36 C 131.54 137.03 131.43 138.21 132.09 139.00 C 132.76 139.80 133.94 139.91 134.73 139.25 L 135.48 138.62 C 136.28 137.96 136.39 136.78 135.72 135.98 C 135.06 135.18 133.88 135.08 133.08 135.74 Z M 132.45 136.31 L 131.65 136.88 C 130.83 137.48 130.64 138.64 131.24 139.47 C 131.84 140.29 133.00 140.48 133.83 139.88 L 134.62 139.30 C 135.45 138.70 135.63 137.55 135.03 136.72 C 134.43 135.89 133.28 135.71 132.45 136.31 Z M 131.80 136.82 L 130.87 137.38 C 130.00 137.90 129.73 139.02 130.25 139.89 C 130.77 140.75 131.89 141.02 132.75 140.50 L 133.68 139.94 C 134.55 139.42 134.82 138.30 134.30 137.44 C 133.78 136.57 132.66 136.30 131.80 136.82 Z M 131.12 137.29 L 130.09 137.72 C 129.17 138.10 128.74 139.15 129.12 140.06 C 129.50 140.98 130.55 141.41 131.47 141.03 L 132.50 140.60 C 133.42 140.21 133.85 139.16 133.47 138.25 C 133.08 137.34 132.03 136.91 131.12 137.29 Z M 131.32 137.70 L 130.71 137.51 C 129.79 137.21 128.80 137.72 128.50 138.64 C 128.20 139.56 128.71 140.55 129.63 140.85 L 130.24 141.05 C 131.16 141.34 132.15 140.84 132.45 139.91 C 132.75 138.99 132.24 138.00 131.32 137.70 Z M 131.88 139.16 L 131.88 138.47 C 131.86 137.53 131.09 136.77 130.14 136.78 C 129.20 136.79 128.44 137.57 128.45 138.51 L 128.46 139.20 C 128.47 140.14 129.25 140.90 130.19 140.89 C 131.14 140.88 131.90 140.10 131.88 139.16 Z M 131.77 138.90 L 132.03 137.87 C 132.25 136.98 131.71 136.08 130.83 135.86 C 129.94 135.64 129.04 136.18 128.82 137.06 L 128.56 138.09 C 128.33 138.98 128.87 139.88 129.76 140.10 C 130.65 140.32 131.55 139.78 131.77 138.90 Z M 131.95 137.97 L 132.34 136.77 C 132.62 135.93 132.16 135.02 131.32 134.75 C 130.48 134.47 129.57 134.93 129.29 135.77 L 128.90 136.97 C 128.62 137.81 129.08 138.71 129.92 138.99 C 130.76 139.27 131.67 138.81 131.95 137.97 Z M 132.31 136.78 L 132.33 136.71 C 132.61 135.89 132.17 135.00 131.35 134.71 C 130.52 134.43 129.63 134.87 129.35 135.70 L 129.33 135.76 C 129.05 136.59 129.49 137.48 130.31 137.76 C 131.13 138.04 132.03 137.60 132.31 136.78 Z"
      fill="black"
      fill-rule="nonzero" /><path d="M 149.81 125.50 L 150.76 125.40 C 151.81 125.28 152.57 124.34 152.45 123.29 C 152.34 122.24 151.40 121.49 150.35 121.60 L 149.40 121.71 C 148.35 121.82 147.60 122.76 147.71 123.81 C 147.82 124.86 148.77 125.61 149.81 125.50 Z M 150.71 125.49 L 151.71 125.41 C 152.81 125.33 153.63 124.37 153.55 123.27 C 153.46 122.17 152.50 121.35 151.40 121.43 L 150.41 121.51 C 149.31 121.59 148.48 122.55 148.57 123.65 C 148.65 124.75 149.61 125.57 150.71 125.49 Z M 151.60 125.49 L 152.62 125.47 C 153.76 125.45 154.67 124.50 154.64 123.35 C 154.62 122.21 153.67 121.30 152.53 121.33 L 151.51 121.35 C 150.37 121.38 149.46 122.32 149.48 123.47 C 149.51 124.61 150.46 125.52 151.60 125.49 Z M 152.50 125.51 L 153.47 125.54 C 154.64 125.58 155.61 124.67 155.66 123.51 C 155.70 122.35 154.79 121.37 153.62 121.33 L 152.65 121.29 C 151.48 121.25 150.50 122.16 150.46 123.32 C 150.42 124.49 151.33 125.47 152.50 125.51 Z M 153.35 125.55 L 154.37 125.65 C 155.53 125.76 156.57 124.90 156.68 123.73 C 156.79 122.56 155.93 121.52 154.76 121.41 L 153.75 121.32 C 152.58 121.21 151.54 122.07 151.43 123.24 C 151.32 124.40 152.18 125.44 153.35 125.55 Z M 154.23 125.64 L 155.21 125.80 C 156.38 125.99 157.48 125.19 157.66 124.02 C 157.85 122.86 157.05 121.76 155.89 121.57 L 154.90 121.42 C 153.73 121.23 152.64 122.03 152.45 123.19 C 152.27 124.36 153.06 125.46 154.23 125.64 Z M 155.08 125.78 L 155.95 125.98 C 157.11 126.24 158.26 125.51 158.52 124.35 C 158.78 123.20 158.05 122.05 156.89 121.79 L 156.02 121.59 C 154.86 121.33 153.71 122.06 153.45 123.22 C 153.19 124.37 153.92 125.52 155.08 125.78 Z M 155.85 125.96 L 156.77 126.21 C 157.92 126.53 159.11 125.85 159.42 124.70 C 159.74 123.56 159.06 122.37 157.91 122.06 L 156.99 121.80 C 155.84 121.49 154.66 122.16 154.34 123.31 C 154.03 124.46 154.70 125.65 155.85 125.96 Z M 156.71 126.20 L 157.75 126.52 C 158.89 126.86 160.09 126.22 160.44 125.08 C 160.79 123.94 160.15 122.73 159.00 122.38 L 157.97 122.07 C 156.83 121.72 155.62 122.36 155.28 123.51 C 154.93 124.65 155.57 125.85 156.71 126.20 Z M 157.72 126.51 L 158.75 126.84 C 159.89 127.20 161.11 126.57 161.47 125.43 C 161.83 124.29 161.20 123.08 160.06 122.71 L 159.03 122.39 C 157.89 122.03 156.67 122.66 156.31 123.80 C 155.95 124.93 156.58 126.15 157.72 126.51 Z M 158.75 126.84 L 159.72 127.15 C 160.86 127.52 162.08 126.89 162.45 125.75 C 162.81 124.62 162.19 123.40 161.05 123.03 L 160.07 122.72 C 158.93 122.35 157.71 122.98 157.35 124.12 C 156.98 125.25 157.61 126.47 158.75 126.84 Z M 159.72 127.15 L 160.72 127.48 C 161.86 127.85 163.08 127.22 163.45 126.09 C 163.82 124.95 163.20 123.73 162.06 123.36 L 161.05 123.03 C 159.92 122.66 158.69 123.29 158.33 124.42 C 157.96 125.56 158.58 126.78 159.72 127.15 Z M 160.72 127.47 L 161.70 127.80 C 162.84 128.17 164.06 127.55 164.43 126.41 C 164.80 125.28 164.18 124.06 163.05 123.68 L 162.06 123.36 C 160.93 122.99 159.71 123.61 159.33 124.74 C 158.96 125.88 159.58 127.10 160.72 127.47 Z M 161.69 127.79 L 162.60 128.10 C 163.74 128.47 164.96 127.86 165.34 126.72 C 165.71 125.59 165.10 124.36 163.97 123.99 L 163.06 123.69 C 161.92 123.31 160.70 123.92 160.32 125.06 C 159.94 126.19 160.56 127.42 161.69 127.79 Z M 162.59 128.09 L 163.65 128.44 C 164.78 128.83 166.00 128.22 166.39 127.09 C 166.77 125.96 166.16 124.73 165.03 124.35 L 163.98 124.00 C 162.85 123.61 161.62 124.22 161.24 125.35 C 160.86 126.48 161.46 127.71 162.59 128.09 Z M 163.63 128.43 L 164.63 128.78 C 165.75 129.17 166.98 128.58 167.37 127.46 C 167.76 126.33 167.17 125.11 166.04 124.72 L 165.05 124.37 C 163.93 123.98 162.70 124.57 162.31 125.69 C 161.92 126.81 162.51 128.04 163.63 128.43 Z M 164.62 128.76 L 165.41 129.04 C 166.52 129.44 167.75 128.86 168.15 127.75 C 168.54 126.64 167.96 125.41 166.85 125.02 L 166.06 124.73 C 164.94 124.33 163.72 124.91 163.32 126.03 C 162.92 127.14 163.50 128.36 164.62 128.76 Z M 165.42 129.03 L 166.24 129.32 C 167.35 129.72 168.56 129.14 168.95 128.03 C 169.35 126.92 168.77 125.71 167.66 125.32 L 166.84 125.03 C 165.73 124.63 164.52 125.21 164.13 126.32 C 163.73 127.43 164.31 128.64 165.42 129.03 Z M 166.25 129.31 L 167.17 129.63 C 168.27 130.02 169.48 129.44 169.86 128.34 C 170.25 127.23 169.67 126.03 168.56 125.65 L 167.65 125.33 C 166.54 124.94 165.34 125.52 164.96 126.62 C 164.57 127.73 165.15 128.93 166.25 129.31 Z M 167.17 129.62 L 168.18 129.98 C 169.28 130.36 170.48 129.79 170.86 128.69 C 171.24 127.60 170.67 126.40 169.58 126.02 L 168.56 125.66 C 167.47 125.28 166.27 125.85 165.89 126.94 C 165.50 128.04 166.08 129.23 167.17 129.62 Z M 168.18 129.96 L 169.10 130.29 C 170.18 130.67 171.38 130.11 171.76 129.02 C 172.15 127.94 171.58 126.74 170.50 126.36 L 169.58 126.03 C 168.50 125.65 167.30 126.21 166.92 127.30 C 166.53 128.38 167.10 129.57 168.18 129.96 Z M 169.10 130.28 L 170.07 130.62 C 171.15 131.00 172.33 130.44 172.72 129.36 C 173.10 128.28 172.54 127.10 171.46 126.71 L 170.49 126.37 C 169.41 125.98 168.23 126.55 167.84 127.63 C 167.46 128.71 168.02 129.89 169.10 130.28 Z M 170.08 130.61 L 171.04 130.95 C 172.12 131.33 173.29 130.76 173.67 129.68 C 174.05 128.61 173.48 127.43 172.40 127.05 L 171.44 126.72 C 170.37 126.34 169.19 126.91 168.82 127.98 C 168.44 129.06 169.01 130.24 170.08 130.61 Z M 171.07 130.93 L 172.07 131.27 C 173.14 131.63 174.29 131.06 174.65 129.99 C 175.01 128.93 174.44 127.77 173.37 127.41 L 172.37 127.07 C 171.31 126.71 170.15 127.29 169.79 128.35 C 169.43 129.42 170.01 130.57 171.07 130.93 Z M 172.13 131.24 L 173.08 131.53 C 174.13 131.86 175.24 131.28 175.57 130.23 C 175.90 129.19 175.32 128.07 174.27 127.74 L 173.32 127.44 C 172.27 127.12 171.16 127.70 170.83 128.75 C 170.50 129.79 171.08 130.91 172.13 131.24 Z M 173.15 131.50 L 174.07 131.76 C 175.09 132.04 176.16 131.44 176.45 130.41 C 176.74 129.38 176.13 128.31 175.10 128.03 L 174.19 127.77 C 173.16 127.49 172.10 128.09 171.81 129.12 C 171.52 130.15 172.12 131.22 173.15 131.50 Z M 174.15 131.71 L 175.14 131.95 C 176.14 132.18 177.15 131.56 177.39 130.55 C 177.63 129.55 177.00 128.54 176.00 128.30 L 175.02 128.07 C 174.01 127.83 173.00 128.46 172.76 129.46 C 172.52 130.47 173.15 131.48 174.15 131.71 Z M 175.21 131.89 L 176.18 132.09 C 177.16 132.28 178.11 131.66 178.30 130.68 C 178.50 129.71 177.88 128.76 176.90 128.56 L 175.93 128.36 C 174.95 128.16 174.00 128.79 173.81 129.76 C 173.61 130.74 174.23 131.69 175.21 131.89 Z M 176.21 132.03 L 176.84 132.15 C 177.78 132.33 178.69 131.71 178.87 130.77 C 179.06 129.83 178.44 128.92 177.50 128.74 L 176.87 128.62 C 175.93 128.44 175.02 129.05 174.84 130.00 C 174.66 130.94 175.27 131.85 176.21 132.03 Z"
      fill="black"
      fill-rule="nonzero" /><path d="M 144.04 141.12 L 145.04 141.06 C 146.08 141.00 146.87 140.11 146.81 139.07 C 146.74 138.03 145.85 137.23 144.81 137.30 L 143.81 137.36 C 142.77 137.42 141.98 138.32 142.04 139.36 C 142.10 140.40 143.00 141.19 144.04 141.12 Z M 145.10 141.11 L 146.09 141.02 C 147.16 140.92 147.94 139.98 147.85 138.92 C 147.75 137.85 146.81 137.07 145.75 137.17 L 144.75 137.25 C 143.69 137.35 142.90 138.29 143.00 139.35 C 143.09 140.42 144.03 141.20 145.10 141.11 Z M 146.21 141.05 L 147.20 140.90 C 148.28 140.74 149.02 139.73 148.86 138.65 C 148.70 137.57 147.69 136.82 146.61 136.99 L 145.63 137.13 C 144.55 137.29 143.80 138.30 143.96 139.38 C 144.12 140.46 145.13 141.21 146.21 141.05 Z M 147.37 140.89 L 148.34 140.66 C 149.42 140.41 150.08 139.33 149.83 138.25 C 149.58 137.17 148.50 136.51 147.42 136.76 L 146.44 136.99 C 145.37 137.25 144.70 138.33 144.95 139.40 C 145.21 140.48 146.29 141.15 147.37 140.89 Z M 148.48 140.63 L 149.44 140.32 C 150.49 139.99 151.08 138.87 150.75 137.81 C 150.42 136.75 149.29 136.17 148.23 136.50 L 147.28 136.80 C 146.22 137.13 145.63 138.26 145.97 139.32 C 146.30 140.37 147.42 140.96 148.48 140.63 Z M 149.52 140.29 L 150.46 139.95 C 151.50 139.57 152.03 138.42 151.65 137.38 C 151.27 136.34 150.12 135.81 149.09 136.19 L 148.15 136.53 C 147.11 136.91 146.58 138.06 146.96 139.10 C 147.34 140.14 148.49 140.67 149.52 140.29 Z M 150.50 139.92 L 151.38 139.58 C 152.41 139.18 152.91 138.03 152.51 137.00 C 152.11 135.98 150.96 135.47 149.94 135.87 L 149.05 136.21 C 148.03 136.61 147.52 137.77 147.92 138.79 C 148.32 139.82 149.47 140.32 150.50 139.92 Z M 151.39 139.56 L 152.26 139.21 C 153.28 138.81 153.77 137.66 153.37 136.64 C 152.96 135.63 151.81 135.13 150.80 135.54 L 149.93 135.89 C 148.91 136.29 148.42 137.44 148.82 138.46 C 149.23 139.47 150.38 139.97 151.39 139.56 Z M 152.27 139.19 L 153.20 138.82 C 154.21 138.41 154.69 137.27 154.29 136.26 C 153.88 135.26 152.74 134.77 151.73 135.18 L 150.80 135.56 C 149.79 135.96 149.31 137.11 149.71 138.11 C 150.12 139.12 151.26 139.60 152.27 139.19 Z M 153.20 138.80 L 154.21 138.39 C 155.20 137.99 155.68 136.85 155.28 135.86 C 154.88 134.86 153.74 134.38 152.74 134.78 L 151.74 135.19 C 150.74 135.60 150.26 136.73 150.66 137.73 C 151.07 138.73 152.20 139.20 153.20 138.80 Z M 154.20 138.37 L 155.13 137.99 C 156.12 137.59 156.59 136.47 156.19 135.49 C 155.79 134.50 154.67 134.03 153.68 134.42 L 152.75 134.80 C 151.77 135.20 151.29 136.33 151.69 137.31 C 152.09 138.30 153.22 138.77 154.20 138.37 Z M 155.12 137.97 L 156.09 137.58 C 157.06 137.19 157.53 136.08 157.14 135.11 C 156.75 134.13 155.64 133.66 154.66 134.05 L 153.70 134.45 C 152.72 134.84 152.25 135.95 152.64 136.92 C 153.04 137.90 154.15 138.37 155.12 137.97 Z M 156.08 137.56 L 157.03 137.18 C 157.99 136.79 158.46 135.70 158.07 134.74 C 157.68 133.77 156.59 133.31 155.62 133.69 L 154.68 134.07 C 153.71 134.46 153.24 135.56 153.63 136.52 C 154.02 137.48 155.11 137.95 156.08 137.56 Z M 157.01 137.16 L 157.89 136.81 C 158.84 136.44 159.31 135.36 158.93 134.40 C 158.55 133.45 157.47 132.98 156.52 133.36 L 155.64 133.71 C 154.69 134.09 154.22 135.17 154.60 136.12 C 154.98 137.08 156.06 137.54 157.01 137.16 Z M 157.86 136.77 L 158.93 136.36 C 159.86 135.99 160.32 134.95 159.96 134.02 C 159.59 133.09 158.55 132.63 157.62 132.99 L 156.55 133.40 C 155.62 133.77 155.16 134.81 155.52 135.74 C 155.88 136.67 156.93 137.13 157.86 136.77 Z M 158.88 136.29 L 159.79 135.95 C 160.68 135.61 161.13 134.61 160.79 133.72 C 160.46 132.82 159.46 132.37 158.56 132.71 L 157.66 133.06 C 156.77 133.39 156.32 134.39 156.66 135.28 C 156.99 136.18 157.99 136.63 158.88 136.29 Z M 159.75 135.88 L 160.51 135.59 C 161.37 135.27 161.80 134.32 161.49 133.47 C 161.17 132.61 160.22 132.18 159.36 132.50 L 158.60 132.78 C 157.75 133.10 157.31 134.05 157.63 134.90 C 157.95 135.76 158.90 136.19 159.75 135.88 Z"
      fill="black"
      fill-rule="nonzero" /><path d="M 139.12 155.15 L 139.85 154.44 C 140.62 153.68 140.64 152.45 139.89 151.67 C 139.14 150.90 137.90 150.88 137.13 151.63 L 136.39 152.35 C 135.62 153.10 135.60 154.34 136.36 155.11 C 137.11 155.88 138.34 155.90 139.12 155.15 Z M 139.76 154.56 L 140.52 153.93 C 141.37 153.23 141.48 151.98 140.78 151.13 C 140.08 150.29 138.83 150.17 137.98 150.87 L 137.22 151.51 C 136.38 152.21 136.26 153.46 136.96 154.30 C 137.66 155.15 138.91 155.27 139.76 154.56 Z M 140.26 154.14 L 141.09 153.66 C 142.05 153.11 142.37 151.87 141.82 150.91 C 141.26 149.95 140.03 149.63 139.06 150.18 L 138.24 150.66 C 137.28 151.22 136.95 152.45 137.51 153.41 C 138.07 154.37 139.30 154.70 140.26 154.14 Z M 140.76 153.83 L 141.67 153.50 C 142.72 153.12 143.27 151.97 142.89 150.91 C 142.51 149.86 141.35 149.32 140.30 149.69 L 139.39 150.02 C 138.34 150.40 137.79 151.56 138.17 152.61 C 138.55 153.66 139.71 154.20 140.76 153.83 Z M 141.47 153.56 L 142.50 153.31 C 143.58 153.04 144.24 151.94 143.97 150.86 C 143.70 149.77 142.61 149.11 141.52 149.38 L 140.50 149.63 C 139.41 149.90 138.75 151.00 139.02 152.08 C 139.29 153.17 140.39 153.83 141.47 153.56 Z M 142.44 153.32 L 143.25 153.14 C 144.34 152.91 145.04 151.83 144.80 150.73 C 144.56 149.64 143.48 148.95 142.39 149.19 L 141.58 149.36 C 140.48 149.60 139.79 150.68 140.03 151.78 C 140.27 152.87 141.35 153.56 142.44 153.32 Z M 143.25 153.15 L 144.17 152.95 C 145.26 152.71 145.96 151.63 145.72 150.54 C 145.48 149.44 144.40 148.75 143.31 148.99 L 142.39 149.19 C 141.30 149.42 140.60 150.50 140.84 151.59 C 141.08 152.69 142.15 153.38 143.25 153.15 Z M 144.18 152.94 L 145.25 152.70 C 146.34 152.46 147.03 151.38 146.79 150.28 C 146.54 149.19 145.46 148.51 144.37 148.75 L 143.30 148.99 C 142.21 149.23 141.52 150.32 141.76 151.41 C 142.01 152.50 143.09 153.19 144.18 152.94 Z M 145.27 152.70 L 146.34 152.45 C 147.43 152.19 148.11 151.10 147.85 150.01 C 147.59 148.92 146.50 148.25 145.41 148.50 L 144.35 148.76 C 143.26 149.01 142.58 150.10 142.84 151.19 C 143.10 152.28 144.19 152.95 145.27 152.70 Z M 146.36 152.44 L 147.30 152.21 C 148.38 151.94 149.05 150.85 148.78 149.76 C 148.51 148.68 147.42 148.01 146.33 148.28 L 145.39 148.51 C 144.31 148.78 143.65 149.87 143.91 150.96 C 144.18 152.04 145.28 152.71 146.36 152.44 Z M 147.31 152.20 L 148.30 151.95 C 149.38 151.68 150.03 150.58 149.76 149.50 C 149.48 148.42 148.39 147.76 147.31 148.04 L 146.32 148.29 C 145.24 148.56 144.58 149.66 144.86 150.74 C 145.13 151.82 146.23 152.48 147.31 152.20 Z M 148.31 151.94 L 149.32 151.68 C 150.39 151.40 151.04 150.30 150.76 149.22 C 150.48 148.14 149.38 147.50 148.30 147.78 L 147.29 148.04 C 146.22 148.33 145.57 149.43 145.85 150.50 C 146.13 151.58 147.24 152.23 148.31 151.94 Z M 149.33 151.67 L 150.32 151.41 C 151.40 151.12 152.03 150.01 151.74 148.94 C 151.45 147.87 150.35 147.23 149.28 147.52 L 148.28 147.79 C 147.21 148.08 146.58 149.18 146.87 150.25 C 147.15 151.33 148.26 151.96 149.33 151.67 Z M 150.34 151.40 L 151.31 151.13 C 152.38 150.83 153.00 149.72 152.70 148.66 C 152.40 147.59 151.30 146.96 150.23 147.26 L 149.26 147.53 C 148.19 147.83 147.57 148.93 147.87 150.00 C 148.16 151.07 149.27 151.69 150.34 151.40 Z M 151.33 151.11 L 152.33 150.82 C 153.39 150.51 154.00 149.40 153.69 148.34 C 153.38 147.29 152.28 146.68 151.22 146.99 L 150.21 147.28 C 149.15 147.59 148.55 148.69 148.85 149.75 C 149.16 150.81 150.27 151.42 151.33 151.11 Z M 152.36 150.79 L 153.31 150.50 C 154.35 150.18 154.93 149.07 154.61 148.03 C 154.29 146.99 153.19 146.40 152.15 146.72 L 151.20 147.01 C 150.15 147.33 149.57 148.44 149.89 149.48 C 150.21 150.52 151.31 151.11 152.36 150.79 Z M 153.33 150.47 L 154.25 150.17 C 155.28 149.84 155.84 148.73 155.51 147.70 C 155.17 146.68 154.07 146.12 153.04 146.45 L 152.12 146.75 C 151.09 147.08 150.53 148.19 150.86 149.21 C 151.20 150.24 152.30 150.80 153.33 150.47 Z M 154.28 150.14 L 155.20 149.82 C 156.21 149.48 156.75 148.37 156.40 147.36 C 156.05 146.35 154.95 145.81 153.94 146.16 L 153.02 146.48 C 152.00 146.83 151.47 147.93 151.81 148.94 C 152.16 149.95 153.26 150.49 154.28 150.14 Z M 155.22 149.80 L 156.15 149.46 C 157.15 149.10 157.67 148.00 157.31 147.00 C 156.95 146.01 155.85 145.49 154.85 145.85 L 153.92 146.19 C 152.92 146.55 152.40 147.65 152.76 148.64 C 153.12 149.64 154.22 150.16 155.22 149.80 Z M 156.17 149.43 L 157.12 149.07 C 158.10 148.71 158.60 147.61 158.23 146.63 C 157.86 145.65 156.77 145.16 155.79 145.52 L 154.84 145.88 C 153.86 146.25 153.36 147.34 153.73 148.32 C 154.10 149.30 155.19 149.80 156.17 149.43 Z M 157.13 149.04 L 158.09 148.67 C 159.05 148.30 159.53 147.21 159.15 146.25 C 158.78 145.28 157.69 144.80 156.73 145.18 L 155.77 145.55 C 154.81 145.93 154.33 147.01 154.71 147.98 C 155.08 148.94 156.17 149.42 157.13 149.04 Z M 158.10 148.64 L 159.04 148.26 C 159.99 147.88 160.44 146.80 160.06 145.85 C 159.68 144.90 158.60 144.45 157.65 144.83 L 156.71 145.21 C 155.76 145.59 155.31 146.67 155.69 147.62 C 156.07 148.57 157.15 149.03 158.10 148.64 Z M 159.05 148.23 L 159.95 147.86 C 160.88 147.47 161.31 146.39 160.92 145.46 C 160.53 144.53 159.46 144.09 158.52 144.49 L 157.63 144.86 C 156.70 145.25 156.26 146.33 156.66 147.26 C 157.05 148.19 158.12 148.63 159.05 148.23 Z M 159.96 147.82 L 160.94 147.39 C 161.85 146.98 162.26 145.92 161.86 145.01 C 161.46 144.10 160.39 143.69 159.48 144.09 L 158.51 144.53 C 157.60 144.93 157.19 145.99 157.59 146.90 C 157.99 147.81 159.05 148.22 159.96 147.82 Z M 160.95 147.33 L 161.88 146.90 C 162.76 146.49 163.14 145.45 162.73 144.57 C 162.32 143.69 161.28 143.30 160.40 143.71 L 159.47 144.14 C 158.59 144.55 158.21 145.60 158.62 146.48 C 159.03 147.36 160.07 147.74 160.95 147.33 Z M 161.89 146.85 L 162.75 146.43 C 163.61 146.02 163.97 145.00 163.55 144.14 C 163.14 143.29 162.11 142.93 161.26 143.34 L 160.39 143.76 C 159.54 144.18 159.18 145.20 159.59 146.06 C 160.01 146.91 161.03 147.27 161.89 146.85 Z M 162.75 146.39 L 163.59 145.98 C 164.42 145.57 164.76 144.56 164.35 143.73 C 163.94 142.90 162.93 142.56 162.10 142.97 L 161.27 143.39 C 160.44 143.80 160.10 144.80 160.51 145.63 C 160.91 146.46 161.92 146.80 162.75 146.39 Z"
      fill="black"
      fill-rule="nonzero" /><path d="M 148.43 141.25 L 148.40 142.21 C 148.36 143.22 149.14 144.08 150.16 144.12 C 151.17 144.16 152.02 143.37 152.06 142.35 L 152.10 141.40 C 152.14 140.38 151.35 139.53 150.34 139.49 C 149.33 139.45 148.47 140.24 148.43 141.25 Z M 148.31 142.17 L 148.25 143.17 C 148.18 144.23 148.99 145.14 150.05 145.20 C 151.11 145.27 152.03 144.46 152.09 143.40 L 152.15 142.40 C 152.22 141.34 151.41 140.42 150.35 140.36 C 149.28 140.30 148.37 141.10 148.31 142.17 Z M 148.18 143.09 L 148.08 144.09 C 147.98 145.19 148.79 146.17 149.88 146.27 C 150.98 146.38 151.96 145.57 152.06 144.47 L 152.16 143.47 C 152.26 142.37 151.46 141.40 150.36 141.29 C 149.26 141.19 148.29 141.99 148.18 143.09 Z M 148.06 144.02 L 147.94 144.98 C 147.80 146.09 148.58 147.11 149.69 147.25 C 150.80 147.39 151.82 146.61 151.96 145.50 L 152.08 144.54 C 152.23 143.43 151.44 142.42 150.33 142.27 C 149.22 142.13 148.21 142.91 148.06 144.02 Z M 147.95 144.93 L 147.79 145.94 C 147.62 147.04 148.38 148.08 149.48 148.25 C 150.59 148.42 151.62 147.67 151.80 146.56 L 151.95 145.55 C 152.12 144.45 151.37 143.41 150.26 143.24 C 149.16 143.07 148.12 143.82 147.95 144.93 Z M 147.80 145.89 L 147.62 146.92 C 147.42 148.02 148.16 149.07 149.26 149.27 C 150.36 149.46 151.41 148.73 151.61 147.62 L 151.79 146.60 C 151.98 145.50 151.25 144.45 150.15 144.25 C 149.05 144.06 147.99 144.79 147.80 145.89 Z M 147.63 146.88 L 147.44 147.83 C 147.22 148.92 147.94 149.99 149.03 150.21 C 150.13 150.42 151.19 149.71 151.41 148.61 L 151.60 147.66 C 151.81 146.56 151.10 145.50 150.00 145.28 C 148.91 145.07 147.84 145.78 147.63 146.88 Z M 147.45 147.79 L 147.24 148.76 C 147.00 149.86 147.69 150.93 148.78 151.17 C 149.88 151.40 150.95 150.71 151.19 149.62 L 151.40 148.65 C 151.64 147.56 150.94 146.48 149.85 146.24 C 148.76 146.01 147.69 146.70 147.45 147.79 Z M 147.25 148.73 L 147.01 149.73 C 146.75 150.81 147.42 151.90 148.51 152.16 C 149.59 152.41 150.68 151.74 150.94 150.66 L 151.18 149.66 C 151.43 148.57 150.76 147.49 149.68 147.23 C 148.60 146.97 147.51 147.64 147.25 148.73 Z M 147.03 149.69 L 146.78 150.65 C 146.50 151.73 147.15 152.82 148.22 153.10 C 149.30 153.38 150.40 152.73 150.68 151.66 L 150.92 150.70 C 151.20 149.62 150.56 148.52 149.48 148.24 C 148.40 147.97 147.31 148.61 147.03 149.69 Z M 146.80 150.61 L 146.53 151.55 C 146.23 152.62 146.85 153.72 147.92 154.02 C 148.98 154.33 150.09 153.71 150.39 152.64 L 150.66 151.70 C 150.96 150.63 150.34 149.53 149.27 149.23 C 148.21 148.92 147.10 149.54 146.80 150.61 Z M 146.56 151.51 L 146.26 152.47 C 145.93 153.52 146.52 154.63 147.57 154.96 C 148.63 155.29 149.74 154.70 150.07 153.65 L 150.36 152.69 C 150.69 151.63 150.10 150.52 149.05 150.19 C 148.00 149.87 146.88 150.45 146.56 151.51 Z M 146.29 152.41 L 145.96 153.39 C 145.60 154.42 146.15 155.55 147.19 155.90 C 148.23 156.26 149.35 155.70 149.71 154.67 L 150.04 153.70 C 150.39 152.66 149.84 151.53 148.81 151.18 C 147.77 150.82 146.64 151.38 146.29 152.41 Z M 145.99 153.33 L 145.63 154.28 C 145.24 155.30 145.76 156.44 146.77 156.82 C 147.79 157.21 148.93 156.69 149.31 155.68 L 149.67 154.72 C 150.06 153.71 149.54 152.57 148.53 152.19 C 147.51 151.80 146.38 152.31 145.99 153.33 Z M 145.67 154.24 L 145.28 155.17 C 144.87 156.16 145.34 157.30 146.34 157.72 C 147.33 158.13 148.47 157.66 148.88 156.66 L 149.27 155.73 C 149.68 154.73 149.21 153.59 148.22 153.18 C 147.22 152.77 146.08 153.24 145.67 154.24 Z M 145.33 155.13 L 144.91 156.05 C 144.48 157.02 144.91 158.16 145.88 158.59 C 146.85 159.03 147.99 158.59 148.42 157.63 L 148.84 156.70 C 149.27 155.74 148.84 154.60 147.87 154.16 C 146.90 153.73 145.76 154.16 145.33 155.13 Z M 144.96 156.01 L 144.53 156.91 C 144.07 157.85 144.47 158.99 145.41 159.44 C 146.36 159.90 147.49 159.50 147.95 158.56 L 148.38 157.66 C 148.83 156.72 148.44 155.58 147.49 155.13 C 146.55 154.67 145.41 155.07 144.96 156.01 Z M 144.58 156.87 L 144.11 157.78 C 143.64 158.69 144.00 159.82 144.91 160.29 C 145.83 160.77 146.96 160.41 147.43 159.49 L 147.90 158.59 C 148.37 157.67 148.01 156.55 147.10 156.07 C 146.18 155.60 145.05 155.96 144.58 156.87 Z M 144.18 157.74 L 143.67 158.66 C 143.17 159.54 143.49 160.65 144.37 161.14 C 145.25 161.64 146.36 161.32 146.86 160.44 L 147.37 159.53 C 147.86 158.64 147.54 157.53 146.66 157.04 C 145.78 156.55 144.67 156.86 144.18 157.74 Z M 143.74 158.62 L 143.22 159.47 C 142.71 160.31 142.98 161.41 143.82 161.92 C 144.66 162.43 145.75 162.16 146.26 161.32 L 146.78 160.47 C 147.29 159.63 147.02 158.54 146.18 158.03 C 145.35 157.52 144.25 157.79 143.74 158.62 Z M 143.31 159.44 L 142.78 160.23 C 142.25 161.02 142.47 162.09 143.26 162.62 C 144.05 163.15 145.13 162.94 145.66 162.14 L 146.18 161.36 C 146.71 160.56 146.50 159.49 145.70 158.96 C 144.91 158.43 143.84 158.65 143.31 159.44 Z M 142.87 160.18 L 142.26 161.00 C 141.71 161.74 141.87 162.80 142.62 163.35 C 143.36 163.90 144.42 163.75 144.97 163.00 L 145.57 162.18 C 146.12 161.44 145.97 160.38 145.22 159.83 C 144.47 159.28 143.42 159.44 142.87 160.18 Z M 142.34 160.96 L 141.71 161.74 C 141.14 162.44 141.24 163.48 141.95 164.05 C 142.65 164.63 143.69 164.52 144.26 163.81 L 144.89 163.03 C 145.47 162.33 145.36 161.29 144.65 160.72 C 143.95 160.15 142.91 160.26 142.34 160.96 Z M 141.77 161.73 L 141.13 162.47 C 140.55 163.14 140.63 164.15 141.30 164.73 C 141.97 165.31 142.99 165.24 143.57 164.56 L 144.20 163.82 C 144.78 163.15 144.71 162.14 144.03 161.56 C 143.36 160.98 142.35 161.05 141.77 161.73 Z M 141.16 162.47 L 140.93 162.74 C 140.35 163.39 140.42 164.39 141.07 164.97 C 141.73 165.55 142.73 165.48 143.31 164.82 L 143.54 164.56 C 144.12 163.90 144.05 162.90 143.39 162.32 C 142.73 161.75 141.73 161.81 141.16 162.47 Z"
      fill="black"
      fill-rule="nonzero" /><path d="M 134.06 165.00 L 134.10 165.99 C 134.15 166.99 134.99 167.76 135.99 167.71 C 136.99 167.66 137.76 166.82 137.71 165.82 L 137.67 164.83 C 137.62 163.83 136.77 163.06 135.78 163.11 C 134.78 163.15 134.01 164.00 134.06 165.00 Z M 134.07 166.11 L 134.18 167.10 C 134.29 168.11 135.21 168.84 136.22 168.73 C 137.23 168.62 137.96 167.71 137.85 166.70 L 137.74 165.70 C 137.63 164.69 136.72 163.96 135.71 164.07 C 134.69 164.18 133.96 165.09 134.07 166.11 Z M 134.19 167.32 L 134.42 168.30 C 134.66 169.31 135.66 169.93 136.67 169.70 C 137.68 169.47 138.30 168.46 138.07 167.45 L 137.84 166.47 C 137.61 165.47 136.60 164.84 135.59 165.07 C 134.59 165.31 133.96 166.31 134.19 167.32 Z M 134.48 168.51 L 134.82 169.46 C 135.17 170.44 136.24 170.95 137.22 170.60 C 138.20 170.24 138.70 169.17 138.35 168.19 L 138.01 167.24 C 137.66 166.27 136.59 165.76 135.61 166.11 C 134.63 166.46 134.13 167.53 134.48 168.51 Z M 134.87 169.58 L 135.27 170.49 C 135.69 171.44 136.79 171.87 137.74 171.45 C 138.69 171.03 139.12 169.92 138.70 168.98 L 138.30 168.07 C 137.88 167.12 136.78 166.69 135.83 167.11 C 134.88 167.53 134.45 168.64 134.87 169.58 Z M 135.30 170.55 L 135.71 171.38 C 136.16 172.31 137.28 172.70 138.20 172.25 C 139.13 171.80 139.52 170.68 139.07 169.75 L 138.67 168.92 C 138.22 167.99 137.10 167.60 136.17 168.05 C 135.24 168.50 134.85 169.62 135.30 170.55 Z M 135.73 171.41 L 136.18 172.29 C 136.65 173.20 137.77 173.56 138.68 173.10 C 139.59 172.63 139.96 171.51 139.49 170.60 L 139.05 169.72 C 138.58 168.81 137.46 168.44 136.55 168.91 C 135.63 169.38 135.27 170.49 135.73 171.41 Z M 136.19 172.29 L 136.68 173.23 C 137.15 174.14 138.26 174.49 139.17 174.03 C 140.08 173.56 140.43 172.44 139.96 171.54 L 139.48 170.60 C 139.01 169.69 137.90 169.33 136.99 169.80 C 136.08 170.27 135.73 171.38 136.19 172.29 Z M 136.69 173.22 L 137.14 174.09 C 137.60 174.99 138.71 175.35 139.61 174.88 C 140.51 174.42 140.87 173.31 140.40 172.41 L 139.95 171.54 C 139.49 170.64 138.38 170.29 137.48 170.75 C 136.58 171.22 136.22 172.32 136.69 173.22 Z M 137.16 174.10 L 137.63 175.01 C 138.10 175.90 139.20 176.25 140.09 175.78 C 140.99 175.32 141.33 174.22 140.86 173.32 L 140.38 172.41 C 139.92 171.52 138.82 171.17 137.93 171.64 C 137.03 172.10 136.69 173.20 137.16 174.10 Z M 137.66 175.02 L 138.14 175.93 C 138.61 176.80 139.71 177.13 140.59 176.66 C 141.47 176.19 141.80 175.09 141.33 174.21 L 140.84 173.31 C 140.37 172.43 139.27 172.10 138.39 172.58 C 137.51 173.05 137.18 174.14 137.66 175.02 Z M 138.18 175.94 L 138.71 176.87 C 139.19 177.72 140.27 178.02 141.13 177.54 C 141.98 177.06 142.28 175.98 141.80 175.12 L 141.28 174.20 C 140.80 173.34 139.72 173.04 138.86 173.52 C 138.01 174.00 137.70 175.09 138.18 175.94 Z M 138.77 176.87 L 139.29 177.74 C 139.77 178.56 140.83 178.83 141.65 178.34 C 142.46 177.86 142.73 176.80 142.25 175.99 L 141.74 175.12 C 141.25 174.30 140.19 174.03 139.38 174.51 C 138.56 175.00 138.29 176.05 138.77 176.87 Z M 139.35 177.73 L 139.85 178.54 C 140.33 179.32 141.35 179.57 142.13 179.09 C 142.92 178.61 143.16 177.59 142.68 176.80 L 142.18 175.99 C 141.70 175.21 140.68 174.97 139.90 175.45 C 139.12 175.93 138.87 176.95 139.35 177.73 Z M 139.89 178.53 L 140.08 178.83 C 140.55 179.59 141.55 179.82 142.31 179.35 C 143.07 178.88 143.30 177.88 142.83 177.13 L 142.64 176.82 C 142.17 176.06 141.17 175.83 140.41 176.30 C 139.65 176.77 139.42 177.77 139.89 178.53 Z"
      fill="black"
      fill-rule="nonzero" /><path d="M 142.63 166.62 L 142.08 165.76 C 141.56 164.95 140.49 164.71 139.68 165.23 C 138.87 165.75 138.63 166.82 139.15 167.63 L 139.71 168.50 C 140.22 169.31 141.30 169.54 142.11 169.03 C 142.92 168.51 143.15 167.43 142.63 166.62 Z M 142.19 165.94 L 141.77 165.06 C 141.36 164.18 140.31 163.81 139.44 164.23 C 138.57 164.64 138.20 165.69 138.61 166.56 L 139.03 167.44 C 139.45 168.32 140.49 168.69 141.37 168.27 C 142.24 167.86 142.61 166.81 142.19 165.94 Z M 141.95 165.53 L 141.79 164.58 C 141.64 163.61 140.73 162.95 139.76 163.10 C 138.80 163.26 138.14 164.17 138.29 165.13 L 138.44 166.09 C 138.59 167.05 139.50 167.71 140.47 167.56 C 141.44 167.41 142.10 166.50 141.95 165.53 Z M 141.76 165.44 L 142.07 164.53 C 142.40 163.58 141.89 162.55 140.94 162.23 C 139.99 161.90 138.96 162.41 138.63 163.36 L 138.32 164.27 C 138.00 165.22 138.50 166.25 139.45 166.58 C 140.40 166.90 141.44 166.39 141.76 165.44 Z M 141.54 165.37 L 142.27 164.76 C 143.05 164.10 143.16 162.93 142.50 162.15 C 141.85 161.37 140.68 161.26 139.89 161.92 L 139.17 162.53 C 138.38 163.18 138.28 164.35 138.93 165.13 C 139.59 165.92 140.76 166.02 141.54 165.37 Z M 141.81 165.04 L 142.72 164.66 C 143.66 164.25 144.10 163.16 143.69 162.22 C 143.29 161.27 142.19 160.84 141.25 161.24 L 140.35 161.63 C 139.41 162.04 138.97 163.13 139.37 164.07 C 139.78 165.01 140.87 165.45 141.81 165.04 Z M 142.51 164.73 L 143.53 164.42 C 144.51 164.13 145.07 163.10 144.78 162.12 C 144.49 161.14 143.46 160.58 142.47 160.87 L 141.46 161.17 C 140.47 161.47 139.92 162.50 140.21 163.48 C 140.50 164.46 141.53 165.02 142.51 164.73 Z M 143.45 164.44 L 144.48 164.18 C 145.47 163.94 146.07 162.93 145.83 161.94 C 145.58 160.95 144.58 160.35 143.59 160.60 L 142.56 160.85 C 141.57 161.10 140.97 162.10 141.21 163.09 C 141.46 164.08 142.46 164.68 143.45 164.44 Z M 144.46 164.18 L 145.44 163.94 C 146.43 163.71 147.04 162.72 146.80 161.73 C 146.57 160.75 145.58 160.14 144.60 160.37 L 143.61 160.60 C 142.63 160.84 142.01 161.83 142.25 162.81 C 142.48 163.80 143.47 164.41 144.46 164.18 Z M 145.44 163.93 L 146.37 163.71 C 147.35 163.48 147.96 162.50 147.73 161.52 C 147.50 160.54 146.52 159.93 145.54 160.16 L 144.60 160.38 C 143.62 160.61 143.01 161.59 143.24 162.57 C 143.47 163.55 144.46 164.16 145.44 163.93 Z M 146.39 163.70 L 147.28 163.48 C 148.26 163.24 148.85 162.26 148.61 161.29 C 148.38 160.32 147.40 159.72 146.42 159.96 L 145.53 160.18 C 144.56 160.41 143.96 161.39 144.20 162.37 C 144.43 163.34 145.42 163.93 146.39 163.70 Z M 147.30 163.46 L 148.22 163.23 C 149.18 162.98 149.76 162.00 149.52 161.03 C 149.27 160.07 148.29 159.49 147.32 159.73 L 146.41 159.97 C 145.44 160.22 144.86 161.20 145.11 162.17 C 145.35 163.13 146.34 163.71 147.30 163.46 Z M 148.23 163.22 L 149.24 162.95 C 150.20 162.70 150.77 161.71 150.51 160.75 C 150.26 159.79 149.27 159.22 148.31 159.48 L 147.30 159.74 C 146.34 160.00 145.77 160.99 146.03 161.95 C 146.29 162.91 147.27 163.48 148.23 163.22 Z M 149.25 162.94 L 150.27 162.66 C 151.23 162.40 151.79 161.41 151.53 160.46 C 151.26 159.50 150.28 158.94 149.32 159.20 L 148.30 159.48 C 147.35 159.75 146.78 160.73 147.05 161.69 C 147.31 162.64 148.29 163.20 149.25 162.94 Z M 150.28 162.65 L 151.25 162.38 C 152.20 162.12 152.76 161.13 152.49 160.18 C 152.22 159.23 151.24 158.67 150.29 158.94 L 149.32 159.21 C 148.37 159.48 147.81 160.46 148.08 161.41 C 148.34 162.36 149.33 162.92 150.28 162.65 Z M 151.26 162.38 L 152.25 162.09 C 153.20 161.82 153.75 160.84 153.48 159.89 C 153.21 158.95 152.22 158.40 151.28 158.67 L 150.28 158.95 C 149.34 159.22 148.79 160.20 149.06 161.15 C 149.32 162.10 150.31 162.64 151.26 162.38 Z M 152.26 162.09 L 153.22 161.81 C 154.16 161.53 154.71 160.55 154.43 159.61 C 154.16 158.66 153.18 158.12 152.23 158.39 L 151.27 158.67 C 150.33 158.95 149.78 159.93 150.06 160.87 C 150.33 161.82 151.31 162.36 152.26 162.09 Z M 153.23 161.80 L 154.22 161.51 C 155.15 161.23 155.69 160.24 155.41 159.30 C 155.13 158.37 154.15 157.83 153.21 158.11 L 152.22 158.40 C 151.28 158.68 150.75 159.67 151.03 160.60 C 151.31 161.54 152.29 162.08 153.23 161.80 Z M 154.23 161.50 L 155.20 161.20 C 156.14 160.91 156.66 159.93 156.38 158.99 C 156.09 158.06 155.11 157.53 154.17 157.82 L 153.20 158.12 C 152.26 158.40 151.74 159.39 152.02 160.32 C 152.31 161.26 153.29 161.78 154.23 161.50 Z M 155.21 161.19 L 156.12 160.91 C 157.05 160.62 157.57 159.64 157.29 158.71 C 157.00 157.78 156.01 157.25 155.08 157.54 L 154.17 157.83 C 153.24 158.11 152.72 159.10 153.00 160.03 C 153.29 160.96 154.28 161.48 155.21 161.19 Z M 156.12 160.91 L 157.05 160.62 C 157.98 160.34 158.50 159.35 158.21 158.42 C 157.93 157.50 156.94 156.97 156.01 157.26 L 155.09 157.54 C 154.16 157.83 153.63 158.81 153.92 159.74 C 154.20 160.67 155.19 161.19 156.12 160.91 Z M 157.03 160.63 L 158.02 160.34 C 158.95 160.07 159.48 159.09 159.21 158.15 C 158.93 157.22 157.95 156.69 157.02 156.96 L 156.03 157.25 C 155.10 157.53 154.57 158.51 154.84 159.44 C 155.12 160.37 156.10 160.91 157.03 160.63 Z M 157.97 160.36 L 158.95 160.10 C 159.89 159.85 160.45 158.88 160.20 157.94 C 159.95 157.00 158.98 156.44 158.04 156.69 L 157.07 156.94 C 156.12 157.19 155.56 158.16 155.81 159.10 C 156.06 160.05 157.03 160.61 157.97 160.36 Z M 158.86 160.13 L 159.86 159.92 C 160.82 159.72 161.44 158.78 161.24 157.82 C 161.04 156.86 160.10 156.24 159.14 156.44 L 158.13 156.65 C 157.17 156.85 156.56 157.79 156.76 158.75 C 156.96 159.71 157.90 160.33 158.86 160.13 Z M 159.59 160.00 L 160.68 159.94 C 161.68 159.89 162.45 159.03 162.40 158.03 C 162.34 157.03 161.49 156.26 160.49 156.31 L 159.40 156.37 C 158.40 156.42 157.63 157.28 157.69 158.28 C 157.74 159.28 158.59 160.05 159.59 160.00 Z M 159.74 159.80 L 160.42 160.15 C 161.35 160.61 162.48 160.24 162.95 159.31 C 163.41 158.38 163.03 157.25 162.11 156.79 L 161.42 156.44 C 160.50 155.98 159.37 156.36 158.90 157.28 C 158.44 158.21 158.81 159.34 159.74 159.80 Z M 159.39 158.95 L 159.61 159.78 C 159.88 160.81 160.93 161.43 161.97 161.16 C 163.00 160.89 163.62 159.84 163.35 158.80 L 163.14 157.98 C 162.87 156.95 161.81 156.33 160.78 156.59 C 159.74 156.86 159.12 157.92 159.39 158.95 Z M 159.52 159.02 L 159.36 160.17 C 159.21 161.25 159.96 162.25 161.05 162.40 C 162.13 162.55 163.13 161.80 163.28 160.71 L 163.44 159.56 C 163.59 158.48 162.84 157.48 161.75 157.33 C 160.67 157.18 159.67 157.93 159.52 159.02 Z M 159.39 159.88 L 159.11 160.82 C 158.80 161.89 159.42 163.00 160.49 163.31 C 161.55 163.62 162.67 163.01 162.98 161.94 L 163.25 161.00 C 163.56 159.93 162.95 158.82 161.88 158.51 C 160.81 158.20 159.70 158.81 159.39 159.88 Z M 159.14 160.68 L 158.79 161.65 C 158.40 162.70 158.94 163.87 159.99 164.25 C 161.04 164.64 162.21 164.10 162.60 163.05 L 162.95 162.08 C 163.34 161.03 162.80 159.86 161.75 159.47 C 160.69 159.09 159.53 159.63 159.14 160.68 Z M 158.81 161.55 L 158.42 162.46 C 157.98 163.50 158.46 164.70 159.50 165.14 C 160.54 165.59 161.74 165.10 162.19 164.06 L 162.57 163.15 C 163.02 162.11 162.53 160.91 161.49 160.46 C 160.45 160.02 159.25 160.51 158.81 161.55 Z M 158.45 162.38 L 158.06 163.18 C 157.58 164.21 158.01 165.43 159.04 165.92 C 160.06 166.41 161.29 165.97 161.78 164.95 L 162.16 164.14 C 162.65 163.12 162.21 161.89 161.19 161.40 C 160.16 160.92 158.94 161.35 158.45 162.38 Z M 158.09 163.12 L 157.66 163.96 C 157.14 164.97 157.53 166.21 158.55 166.73 C 159.56 167.26 160.80 166.86 161.32 165.85 L 161.75 165.01 C 162.27 164.00 161.87 162.76 160.86 162.23 C 159.85 161.71 158.61 162.11 158.09 163.12 Z M 157.66 163.94 L 157.13 164.95 C 156.60 165.96 156.98 167.21 157.99 167.74 C 159.00 168.27 160.24 167.89 160.78 166.88 L 161.31 165.87 C 161.85 164.86 161.46 163.61 160.45 163.08 C 159.45 162.55 158.20 162.93 157.66 163.94 Z M 157.12 164.95 L 156.69 165.78 C 156.16 166.79 156.55 168.04 157.56 168.57 C 158.57 169.10 159.82 168.71 160.35 167.70 L 160.78 166.88 C 161.31 165.87 160.93 164.62 159.92 164.09 C 158.91 163.56 157.66 163.94 157.12 164.95 Z M 156.69 165.78 L 156.23 166.66 C 155.70 167.67 156.09 168.92 157.10 169.45 C 158.12 169.98 159.37 169.59 159.89 168.57 L 160.35 167.70 C 160.88 166.68 160.49 165.43 159.48 164.90 C 158.47 164.38 157.22 164.77 156.69 165.78 Z M 156.22 166.66 L 155.74 167.59 C 155.21 168.60 155.61 169.85 156.62 170.38 C 157.64 170.91 158.89 170.51 159.42 169.50 L 159.90 168.57 C 160.43 167.56 160.03 166.31 159.02 165.78 C 158.00 165.25 156.75 165.64 156.22 166.66 Z M 155.74 167.59 L 155.26 168.52 C 154.73 169.54 155.12 170.79 156.14 171.32 C 157.16 171.84 158.41 171.45 158.93 170.43 L 159.42 169.50 C 159.95 168.48 159.55 167.23 158.53 166.70 C 157.52 166.17 156.27 166.57 155.74 167.59 Z M 155.25 168.52 L 154.79 169.42 C 154.26 170.44 154.66 171.69 155.68 172.22 C 156.69 172.74 157.95 172.35 158.47 171.33 L 158.94 170.43 C 159.46 169.41 159.07 168.16 158.05 167.63 C 157.03 167.11 155.78 167.50 155.25 168.52 Z M 154.79 169.43 L 154.26 170.45 C 153.74 171.46 154.14 172.71 155.15 173.24 C 156.17 173.76 157.42 173.36 157.94 172.34 L 158.47 171.32 C 158.99 170.31 158.60 169.06 157.58 168.53 C 156.56 168.01 155.31 168.41 154.79 169.43 Z M 154.27 170.45 L 153.79 171.39 C 153.27 172.40 153.67 173.64 154.69 174.16 C 155.70 174.68 156.94 174.28 157.46 173.27 L 157.94 172.33 C 158.46 171.32 158.06 170.08 157.04 169.56 C 156.03 169.04 154.79 169.44 154.27 170.45 Z M 153.80 171.40 L 153.37 172.24 C 152.86 173.25 153.26 174.48 154.27 175.00 C 155.28 175.51 156.51 175.11 157.03 174.10 L 157.45 173.25 C 157.97 172.24 157.56 171.01 156.56 170.50 C 155.55 169.99 154.31 170.39 153.80 171.40 Z M 153.38 172.25 L 152.99 173.03 C 152.48 174.03 152.89 175.26 153.90 175.76 C 154.90 176.27 156.13 175.86 156.63 174.86 L 157.02 174.08 C 157.53 173.08 157.12 171.85 156.11 171.35 C 155.11 170.84 153.88 171.25 153.38 172.25 Z M 153.03 173.06 L 152.57 174.00 C 152.08 174.99 152.49 176.18 153.47 176.66 C 154.45 177.15 155.64 176.74 156.13 175.76 L 156.59 174.82 C 157.08 173.84 156.67 172.65 155.69 172.16 C 154.71 171.68 153.51 172.08 153.03 173.06 Z M 152.65 174.06 L 152.21 174.95 C 151.76 175.89 152.15 177.02 153.09 177.47 C 154.03 177.93 155.16 177.54 155.61 176.60 L 156.05 175.71 C 156.50 174.77 156.11 173.64 155.17 173.18 C 154.23 172.73 153.10 173.12 152.65 174.06 Z M 152.30 175.00 L 151.89 175.86 C 151.46 176.75 151.83 177.82 152.72 178.25 C 153.62 178.68 154.69 178.30 155.11 177.41 L 155.53 176.55 C 155.96 175.66 155.58 174.59 154.69 174.16 C 153.80 173.73 152.73 174.11 152.30 175.00 Z"
      fill="black"
      fill-rule="nonzero" /><path d="M 146.63 179.80 L 147.19 178.96 C 147.73 178.14 147.51 177.05 146.69 176.51 C 145.88 175.97 144.78 176.19 144.24 177.00 L 143.68 177.85 C 143.14 178.66 143.36 179.76 144.18 180.30 C 144.99 180.84 146.09 180.62 146.63 179.80 Z M 147.18 179.23 L 147.82 178.48 C 148.51 177.67 148.42 176.46 147.61 175.77 C 146.80 175.08 145.59 175.17 144.90 175.98 L 144.25 176.73 C 143.56 177.54 143.66 178.75 144.47 179.44 C 145.28 180.13 146.49 180.04 147.18 179.23 Z M 147.55 178.88 L 148.30 178.33 C 149.21 177.68 149.42 176.41 148.76 175.50 C 148.10 174.59 146.84 174.38 145.93 175.04 L 145.17 175.58 C 144.26 176.24 144.06 177.51 144.71 178.42 C 145.37 179.33 146.64 179.53 147.55 178.88 Z M 147.90 178.59 L 148.79 178.22 C 149.84 177.78 150.33 176.58 149.90 175.53 C 149.46 174.48 148.26 173.98 147.21 174.42 L 146.32 174.79 C 145.27 175.22 144.78 176.43 145.21 177.48 C 145.65 178.53 146.85 179.02 147.90 178.59 Z M 148.54 178.29 L 149.58 178.01 C 150.68 177.71 151.32 176.58 151.02 175.49 C 150.72 174.40 149.59 173.76 148.50 174.05 L 147.46 174.34 C 146.37 174.64 145.72 175.77 146.02 176.86 C 146.32 177.95 147.45 178.59 148.54 178.29 Z M 149.48 178.01 L 150.45 177.79 C 151.54 177.55 152.23 176.47 151.99 175.38 C 151.75 174.29 150.67 173.60 149.58 173.84 L 148.61 174.06 C 147.52 174.30 146.83 175.38 147.07 176.47 C 147.31 177.56 148.39 178.25 149.48 178.01 Z M 150.39 177.75 L 151.39 177.56 C 152.46 177.35 153.16 176.32 152.96 175.25 C 152.75 174.19 151.72 173.49 150.65 173.69 L 149.65 173.88 C 148.58 174.09 147.88 175.12 148.09 176.19 C 148.29 177.26 149.32 177.95 150.39 177.75 Z M 151.33 177.51 L 152.33 177.35 C 153.37 177.18 154.07 176.19 153.90 175.15 C 153.73 174.11 152.75 173.40 151.70 173.57 L 150.71 173.74 C 149.67 173.91 148.96 174.89 149.14 175.94 C 149.31 176.98 150.29 177.68 151.33 177.51 Z M 152.26 177.29 L 153.29 177.15 C 154.30 177.02 155.01 176.09 154.87 175.08 C 154.74 174.08 153.82 173.37 152.81 173.50 L 151.77 173.64 C 150.77 173.77 150.06 174.69 150.19 175.70 C 150.32 176.71 151.25 177.42 152.26 177.29 Z M 153.22 177.06 L 154.22 176.96 C 155.18 176.87 155.88 176.02 155.78 175.06 C 155.69 174.10 154.84 173.40 153.88 173.49 L 152.88 173.59 C 151.92 173.68 151.22 174.54 151.31 175.49 C 151.41 176.45 152.26 177.15 153.22 177.06 Z M 154.17 176.86 L 155.11 176.79 C 156.02 176.72 156.69 175.94 156.62 175.03 C 156.56 174.13 155.77 173.46 154.87 173.52 L 153.93 173.59 C 153.02 173.66 152.35 174.45 152.42 175.35 C 152.48 176.25 153.27 176.93 154.17 176.86 Z M 155.10 176.73 L 155.21 176.72 C 156.07 176.66 156.73 175.91 156.67 175.04 C 156.61 174.17 155.85 173.51 154.98 173.57 L 154.88 173.58 C 154.01 173.64 153.36 174.40 153.42 175.27 C 153.48 176.14 154.23 176.79 155.10 176.73 Z"
      fill="black"
      fill-rule="nonzero" /></svg>