<svg xmlns="http://www.w3.org/2000/svg" width="300" height="300" viewBox="0 0 300 300">
<path d="M 135.13 117.15 L 135.17 118.11 C 135.21 119.10 136.04 119.87 137.03 119.83 C 138.02 119.79 138.79 118.96 138.75 117.97 L 138.72 117.01 C 138.68 116.02 137.84 115.25 136.86 115.29 C 135.87 115.33 135.10 116.16 135.13 117.15 Z M 135.09 117.76 L 134.94 118.77 C 134.79 119.81 135.50 120.77 136.53 120.92 C 137.57 121.07 138.53 120.36 138.68 119.33 L 138.83 118.31 C 138.98 117.28 138.27 116.32 137.24 116.17 C 136.21 116.02 135.25 116.73 135.09 117.76 Z M 134.99 118.42 L 134.66 119.37 C 134.31 120.38 134.84 121.48 135.85 121.83 C 136.86 122.17 137.96 121.64 138.30 120.63 L 138.64 119.68 C 138.98 118.68 138.45 117.58 137.44 117.23 C 136.44 116.88 135.34 117.41 134.99 118.42 Z M 134.71 119.23 L 134.31 120.16 C 133.88 121.13 134.33 122.27 135.30 122.70 C 136.28 123.12 137.42 122.68 137.84 121.70 L 138.25 120.78 C 138.68 119.80 138.23 118.66 137.25 118.23 C 136.28 117.81 135.14 118.25 134.71 119.23 Z M 134.33 120.11 L 133.89 121.05 C 133.44 122.01 133.86 123.16 134.82 123.61 C 135.78 124.06 136.93 123.64 137.38 122.68 L 137.82 121.75 C 138.27 120.78 137.85 119.64 136.89 119.19 C 135.93 118.74 134.78 119.15 134.33 120.11 Z M 133.91 121.03 L 133.50 121.88 C 133.03 122.84 133.43 123.98 134.38 124.45 C 135.33 124.91 136.48 124.51 136.94 123.56 L 137.36 122.70 C 137.82 121.75 137.43 120.60 136.48 120.14 C 135.52 119.68 134.38 120.07 133.91 121.03 Z M 133.52 121.86 L 133.07 122.75 C 132.59 123.69 132.97 124.84 133.91 125.31 C 134.85 125.79 136.00 125.41 136.47 124.47 L 136.92 123.58 C 137.40 122.64 137.02 121.49 136.08 121.02 C 135.14 120.54 133.99 120.92 133.52 121.86 Z M 133.10 122.69 L 132.62 123.57 C 132.12 124.50 132.45 125.65 133.38 126.16 C 134.30 126.66 135.45 126.32 135.96 125.40 L 136.44 124.52 C 136.94 123.60 136.61 122.45 135.69 121.94 C 134.76 121.44 133.61 121.77 133.10 122.69 Z M 132.66 123.52 L 132.15 124.38 C 131.61 125.28 131.91 126.44 132.81 126.98 C 133.71 127.51 134.87 127.22 135.41 126.32 L 135.92 125.46 C 136.45 124.56 136.16 123.40 135.26 122.86 C 134.36 122.33 133.20 122.62 132.66 123.52 Z M 132.18 124.35 L 131.64 125.21 C 131.09 126.09 131.36 127.26 132.24 127.81 C 133.13 128.36 134.29 128.09 134.84 127.20 L 135.38 126.35 C 135.93 125.46 135.66 124.30 134.77 123.75 C 133.89 123.20 132.73 123.47 132.18 124.35 Z M 131.66 125.19 L 131.12 126.03 C 130.56 126.91 130.81 128.07 131.68 128.63 C 132.56 129.19 133.72 128.94 134.28 128.07 L 134.82 127.22 C 135.38 126.35 135.13 125.19 134.26 124.63 C 133.39 124.07 132.23 124.32 131.66 125.19 Z M 131.15 126.02 L 130.59 126.86 C 130.02 127.71 130.25 128.87 131.11 129.44 C 131.97 130.01 133.12 129.78 133.69 128.92 L 134.25 128.08 C 134.82 127.23 134.59 126.07 133.73 125.50 C 132.88 124.93 131.72 125.16 131.15 126.02 Z M 130.62 126.84 L 130.05 127.66 C 129.48 128.50 129.69 129.65 130.53 130.23 C 131.37 130.81 132.52 130.60 133.10 129.76 L 133.66 128.94 C 134.24 128.10 134.03 126.95 133.19 126.37 C 132.35 125.79 131.20 126.00 130.62 126.84 Z M 130.09 127.65 L 129.51 128.47 C 128.92 129.30 129.12 130.44 129.94 131.02 C 130.77 131.60 131.91 131.41 132.49 130.58 L 133.07 129.76 C 133.65 128.94 133.46 127.80 132.63 127.22 C 131.81 126.63 130.67 126.83 130.09 127.65 Z M 129.54 128.47 L 128.96 129.27 C 128.37 130.08 128.55 131.20 129.36 131.79 C 130.17 132.37 131.29 132.19 131.88 131.39 L 132.46 130.59 C 133.04 129.78 132.86 128.65 132.05 128.07 C 131.25 127.49 130.12 127.67 129.54 128.47 Z M 129.00 129.26 L 128.43 130.02 C 127.84 130.81 128.00 131.92 128.78 132.50 C 129.56 133.09 130.67 132.94 131.26 132.15 L 131.83 131.39 C 132.42 130.61 132.26 129.50 131.48 128.91 C 130.70 128.33 129.59 128.48 129.00 129.26 Z M 128.52 129.97 L 127.86 130.75 C 127.24 131.48 127.33 132.58 128.06 133.19 C 128.79 133.81 129.88 133.72 130.50 132.99 L 131.17 132.21 C 131.78 131.48 131.69 130.39 130.96 129.77 C 130.23 129.15 129.14 129.24 128.52 129.97 Z M 127.94 130.70 L 127.28 131.41 C 126.63 132.09 126.66 133.17 127.34 133.81 C 128.02 134.46 129.10 134.43 129.75 133.75 L 130.42 133.04 C 131.06 132.36 131.03 131.28 130.35 130.64 C 129.67 129.99 128.59 130.02 127.94 130.70 Z M 127.32 131.40 L 126.59 132.14 C 125.93 132.80 125.94 133.86 126.60 134.51 C 127.26 135.16 128.32 135.16 128.97 134.50 L 129.71 133.76 C 130.36 133.10 130.35 132.04 129.69 131.39 C 129.04 130.73 127.97 130.74 127.32 131.40 Z M 126.60 132.14 L 126.53 132.22 C 125.88 132.87 125.88 133.92 126.53 134.57 C 127.18 135.22 128.23 135.22 128.88 134.57 L 128.96 134.50 C 129.61 133.84 129.61 132.79 128.96 132.14 C 128.30 131.49 127.25 131.49 126.60 132.14 Z"
      fill="black"
      fill-rule="nonzero" /><path d="M 141.59 121.56 L 141.42 122.52 C 141.26 123.46 141.89 124.36 142.83 124.52 C 143.77 124.68 144.67 124.05 144.83 123.11 L 145.00 122.15 C 145.16 121.21 144.53 120.31 143.59 120.15 C 142.65 119.99 141.75 120.62 141.59 121.56 Z M 141.30 122.41 L 141.08 123.40 C 140.86 124.41 141.49 125.41 142.50 125.63 C 143.51 125.86 144.51 125.22 144.73 124.21 L 144.95 123.22 C 145.18 122.21 144.54 121.21 143.53 120.99 C 142.52 120.77 141.52 121.40 141.30 122.41 Z M 141.04 123.24 L 140.74 124.22 C 140.43 125.26 141.01 126.35 142.04 126.66 C 143.08 126.97 144.17 126.39 144.48 125.36 L 144.78 124.37 C 145.09 123.34 144.51 122.25 143.47 121.94 C 142.44 121.62 141.35 122.21 141.04 123.24 Z M 140.76 124.12 L 140.42 125.06 C 140.04 126.08 140.57 127.21 141.59 127.58 C 142.61 127.96 143.74 127.43 144.11 126.41 L 144.46 125.46 C 144.83 124.44 144.30 123.31 143.28 122.94 C 142.26 122.57 141.13 123.09 140.76 124.12 Z M 140.44 124.99 L 140.06 125.92 C 139.64 126.93 140.12 128.08 141.13 128.50 C 142.14 128.91 143.29 128.43 143.70 127.42 L 144.09 126.48 C 144.50 125.48 144.02 124.32 143.01 123.91 C 142.00 123.50 140.85 123.98 140.44 124.99 Z M 140.09 125.84 L 139.68 126.72 C 139.22 127.70 139.65 128.88 140.64 129.34 C 141.63 129.80 142.80 129.37 143.26 128.38 L 143.67 127.51 C 144.13 126.52 143.70 125.34 142.71 124.88 C 141.73 124.42 140.55 124.85 140.09 125.84 Z M 139.72 126.63 L 139.28 127.48 C 138.77 128.45 139.15 129.64 140.11 130.15 C 141.08 130.65 142.27 130.28 142.78 129.31 L 143.22 128.46 C 143.73 127.50 143.35 126.31 142.39 125.80 C 141.42 125.29 140.23 125.67 139.72 126.63 Z M 139.30 127.44 L 138.80 128.34 C 138.27 129.30 138.62 130.50 139.58 131.03 C 140.53 131.56 141.73 131.21 142.26 130.25 L 142.76 129.35 C 143.29 128.39 142.94 127.19 141.98 126.67 C 141.03 126.14 139.82 126.49 139.30 127.44 Z M 138.80 128.34 L 138.33 129.18 C 137.80 130.14 138.15 131.34 139.10 131.87 C 140.06 132.40 141.26 132.05 141.79 131.10 L 142.26 130.26 C 142.79 129.30 142.44 128.10 141.49 127.57 C 140.54 127.04 139.33 127.38 138.80 128.34 Z M 138.34 129.17 L 137.84 130.06 C 137.31 131.01 137.64 132.22 138.60 132.75 C 139.55 133.29 140.75 132.95 141.29 132.00 L 141.78 131.11 C 142.32 130.16 141.98 128.95 141.03 128.42 C 140.08 127.88 138.87 128.22 138.34 129.17 Z M 137.85 130.05 L 137.37 130.89 C 136.82 131.84 137.15 133.04 138.10 133.59 C 139.04 134.13 140.25 133.80 140.79 132.86 L 141.27 132.01 C 141.82 131.07 141.49 129.86 140.55 129.32 C 139.60 128.78 138.39 129.10 137.85 130.05 Z M 137.38 130.88 L 136.88 131.73 C 136.33 132.67 136.64 133.88 137.58 134.43 C 138.52 134.98 139.73 134.66 140.28 133.72 L 140.78 132.87 C 141.33 131.93 141.01 130.72 140.07 130.17 C 139.13 129.62 137.93 129.94 137.38 130.88 Z M 136.88 131.72 L 136.34 132.63 C 135.79 133.57 136.10 134.78 137.04 135.34 C 137.97 135.89 139.18 135.58 139.74 134.64 L 140.28 133.73 C 140.83 132.79 140.52 131.58 139.58 131.03 C 138.65 130.48 137.44 130.79 136.88 131.72 Z M 136.35 132.63 L 135.86 133.46 C 135.30 134.39 135.61 135.60 136.54 136.16 C 137.48 136.71 138.69 136.41 139.24 135.47 L 139.73 134.64 C 140.29 133.71 139.98 132.50 139.05 131.95 C 138.11 131.39 136.90 131.70 136.35 132.63 Z M 135.86 133.46 L 135.35 134.33 C 134.79 135.26 135.10 136.47 136.03 137.02 C 136.97 137.57 138.17 137.27 138.73 136.33 L 139.24 135.47 C 139.79 134.53 139.49 133.33 138.55 132.78 C 137.62 132.22 136.41 132.53 135.86 133.46 Z M 135.35 134.33 L 134.82 135.22 C 134.27 136.15 134.58 137.35 135.51 137.91 C 136.45 138.46 137.65 138.15 138.20 137.22 L 138.72 136.33 C 139.28 135.40 138.97 134.19 138.03 133.64 C 137.10 133.09 135.90 133.40 135.35 134.33 Z M 134.82 135.23 L 134.32 136.08 C 133.77 137.01 134.09 138.21 135.02 138.76 C 135.95 139.31 137.15 139.00 137.70 138.06 L 138.20 137.21 C 138.75 136.28 138.44 135.08 137.50 134.53 C 136.57 133.98 135.37 134.29 134.82 135.23 Z M 134.32 136.08 L 133.82 136.94 C 133.27 137.87 133.59 139.07 134.52 139.62 C 135.45 140.16 136.64 139.85 137.19 138.92 L 137.69 138.06 C 138.24 137.13 137.93 135.93 137.00 135.39 C 136.07 134.84 134.87 135.15 134.32 136.08 Z M 133.83 136.94 L 133.31 137.81 C 132.76 138.73 133.07 139.93 134.00 140.48 C 134.93 141.03 136.12 140.72 136.67 139.79 L 137.18 138.93 C 137.73 138.00 137.43 136.80 136.50 136.25 C 135.57 135.70 134.38 136.01 133.83 136.94 Z M 133.32 137.79 L 132.81 138.65 C 132.25 139.57 132.55 140.77 133.47 141.32 C 134.40 141.88 135.59 141.58 136.15 140.66 L 136.66 139.80 C 137.22 138.88 136.92 137.68 136.00 137.13 C 135.07 136.57 133.88 136.87 133.32 137.79 Z M 132.82 138.64 L 132.30 139.49 C 131.74 140.40 132.03 141.60 132.94 142.16 C 133.86 142.72 135.06 142.43 135.62 141.52 L 136.14 140.67 C 136.70 139.75 136.41 138.56 135.49 138.00 C 134.58 137.43 133.38 137.72 132.82 138.64 Z M 132.31 139.48 L 131.78 140.33 C 131.21 141.24 131.49 142.44 132.40 143.01 C 133.31 143.57 134.51 143.29 135.08 142.38 L 135.61 141.53 C 136.18 140.62 135.90 139.42 134.98 138.85 C 134.07 138.29 132.87 138.57 132.31 139.48 Z M 131.79 140.32 L 131.25 141.18 C 130.68 142.08 130.95 143.28 131.85 143.85 C 132.76 144.42 133.96 144.15 134.53 143.25 L 135.07 142.39 C 135.64 141.49 135.37 140.29 134.46 139.72 C 133.56 139.14 132.36 139.42 131.79 140.32 Z M 131.26 141.17 L 130.71 142.02 C 130.14 142.92 130.40 144.12 131.30 144.69 C 132.20 145.27 133.40 145.01 133.98 144.11 L 134.52 143.26 C 135.10 142.35 134.83 141.16 133.93 140.58 C 133.03 140.00 131.83 140.27 131.26 141.17 Z M 130.72 142.01 L 130.18 142.85 C 129.60 143.75 129.85 144.95 130.75 145.53 C 131.64 146.11 132.84 145.85 133.42 144.96 L 133.97 144.11 C 134.55 143.22 134.29 142.02 133.40 141.44 C 132.50 140.86 131.30 141.12 130.72 142.01 Z M 130.19 142.85 L 129.64 143.68 C 129.06 144.57 129.30 145.76 130.19 146.35 C 131.08 146.93 132.28 146.69 132.87 145.79 L 133.41 144.96 C 134.00 144.07 133.75 142.88 132.86 142.29 C 131.97 141.71 130.77 141.96 130.19 142.85 Z M 129.65 143.67 L 129.09 144.51 C 128.50 145.39 128.74 146.59 129.62 147.18 C 130.51 147.77 131.70 147.53 132.29 146.65 L 132.85 145.80 C 133.44 144.92 133.20 143.73 132.32 143.14 C 131.44 142.55 130.24 142.78 129.65 143.67 Z M 129.11 144.50 L 128.54 145.34 C 127.94 146.22 128.17 147.41 129.04 148.00 C 129.92 148.60 131.11 148.37 131.70 147.50 L 132.27 146.66 C 132.87 145.78 132.64 144.59 131.77 144.00 C 130.89 143.40 129.70 143.63 129.11 144.50 Z M 128.56 145.33 L 127.99 146.14 C 127.39 147.00 127.60 148.19 128.46 148.79 C 129.33 149.39 130.51 149.18 131.11 148.32 L 131.68 147.51 C 132.28 146.65 132.07 145.46 131.21 144.86 C 130.35 144.26 129.16 144.47 128.56 145.33 Z M 128.02 146.12 L 127.44 146.92 C 126.83 147.77 127.02 148.95 127.87 149.57 C 128.72 150.18 129.90 149.98 130.51 149.14 L 131.09 148.34 C 131.70 147.49 131.51 146.31 130.66 145.69 C 129.81 145.08 128.63 145.28 128.02 146.12 Z M 127.47 146.90 L 126.86 147.72 C 126.24 148.55 126.41 149.73 127.24 150.35 C 128.07 150.97 129.25 150.80 129.87 149.97 L 130.48 149.16 C 131.10 148.32 130.93 147.15 130.10 146.52 C 129.27 145.90 128.09 146.07 127.47 146.90 Z M 126.89 147.70 L 126.28 148.48 C 125.65 149.30 125.80 150.47 126.62 151.10 C 127.43 151.74 128.61 151.59 129.24 150.77 L 129.84 149.99 C 130.47 149.18 130.33 148.00 129.51 147.37 C 128.69 146.74 127.52 146.89 126.89 147.70 Z M 126.31 148.47 L 125.68 149.26 C 125.04 150.06 125.17 151.22 125.97 151.86 C 126.77 152.50 127.93 152.38 128.57 151.58 L 129.21 150.79 C 129.85 149.99 129.72 148.82 128.92 148.18 C 128.12 147.54 126.95 147.67 126.31 148.47 Z M 125.72 149.24 L 125.04 150.05 C 124.40 150.83 124.50 151.99 125.28 152.64 C 126.06 153.28 127.21 153.18 127.86 152.40 L 128.54 151.59 C 129.18 150.81 129.08 149.66 128.30 149.01 C 127.52 148.36 126.37 148.47 125.72 149.24 Z M 125.10 150.03 L 124.47 150.74 C 123.81 151.48 123.88 152.63 124.62 153.29 C 125.37 153.95 126.51 153.88 127.17 153.14 L 127.80 152.43 C 128.47 151.68 128.40 150.54 127.65 149.88 C 126.91 149.21 125.76 149.28 125.10 150.03 Z M 124.59 150.65 L 123.84 151.38 C 123.13 152.06 123.11 153.19 123.79 153.89 C 124.47 154.60 125.60 154.62 126.31 153.94 L 127.06 153.22 C 127.77 152.54 127.79 151.41 127.11 150.70 C 126.42 149.99 125.30 149.97 124.59 150.65 Z M 124.25 151.11 L 123.44 151.54 C 122.59 152.00 122.26 153.06 122.72 153.91 C 123.17 154.77 124.24 155.09 125.09 154.64 L 125.90 154.21 C 126.75 153.75 127.07 152.69 126.62 151.84 C 126.17 150.98 125.10 150.66 124.25 151.11 Z M 124.09 151.37 L 123.14 151.47 C 122.19 151.57 121.50 152.41 121.60 153.36 C 121.69 154.31 122.54 155.00 123.48 154.90 L 124.44 154.80 C 125.39 154.71 126.08 153.86 125.98 152.91 C 125.88 151.97 125.04 151.28 124.09 151.37 Z M 123.40 151.49 L 122.61 151.45 C 121.67 151.41 120.88 152.13 120.83 153.06 C 120.78 154.00 121.50 154.79 122.44 154.84 L 123.23 154.88 C 124.16 154.93 124.96 154.21 125.01 153.27 C 125.05 152.33 124.33 151.54 123.40 151.49 Z"
      fill="black"
      fill-rule="nonzero" /><path d="M 133.99 144.79 L 134.30 145.69 C 134.63 146.62 135.65 147.10 136.57 146.78 C 137.50 146.45 137.98 145.44 137.65 144.51 L 137.34 143.61 C 137.01 142.68 136.00 142.20 135.07 142.52 C 134.15 142.85 133.66 143.86 133.99 144.79 Z M 134.09 145.58 L 134.33 146.56 C 134.60 147.60 135.66 148.24 136.70 147.97 C 137.75 147.71 138.38 146.65 138.12 145.60 L 137.87 144.62 C 137.61 143.58 136.55 142.94 135.50 143.21 C 134.46 143.47 133.82 144.53 134.09 145.58 Z M 134.16 146.29 L 134.27 147.30 C 134.38 148.44 135.40 149.27 136.54 149.15 C 137.68 149.03 138.51 148.02 138.39 146.88 L 138.29 145.87 C 138.17 144.73 137.15 143.90 136.01 144.02 C 134.87 144.13 134.04 145.15 134.16 146.29 Z M 134.22 147.07 L 134.22 148.09 C 134.21 149.26 135.14 150.21 136.31 150.22 C 137.47 150.22 138.42 149.29 138.43 148.12 L 138.44 147.10 C 138.45 145.94 137.51 144.99 136.35 144.98 C 135.18 144.97 134.23 145.91 134.22 147.07 Z M 134.22 147.96 L 134.15 148.96 C 134.07 150.12 134.94 151.13 136.10 151.21 C 137.26 151.29 138.27 150.42 138.35 149.26 L 138.43 148.26 C 138.51 147.10 137.63 146.09 136.47 146.01 C 135.31 145.92 134.30 146.80 134.22 147.96 Z M 134.16 148.87 L 134.05 149.89 C 133.92 151.05 134.75 152.09 135.90 152.22 C 137.06 152.35 138.10 151.52 138.23 150.36 L 138.34 149.34 C 138.47 148.19 137.64 147.15 136.49 147.02 C 135.33 146.89 134.29 147.72 134.16 148.87 Z M 134.06 149.84 L 133.93 150.81 C 133.77 151.95 134.57 153.01 135.72 153.17 C 136.87 153.33 137.92 152.53 138.08 151.38 L 138.22 150.41 C 138.38 149.27 137.57 148.21 136.43 148.05 C 135.28 147.89 134.22 148.69 134.06 149.84 Z M 133.93 150.80 L 133.80 151.75 C 133.64 152.89 134.44 153.95 135.58 154.11 C 136.73 154.27 137.79 153.47 137.95 152.33 L 138.08 151.38 C 138.24 150.24 137.44 149.18 136.29 149.02 C 135.15 148.86 134.09 149.66 133.93 150.80 Z M 133.80 151.77 L 133.68 152.73 C 133.53 153.87 134.34 154.92 135.48 155.06 C 136.63 155.21 137.67 154.40 137.82 153.26 L 137.94 152.30 C 138.09 151.16 137.28 150.11 136.14 149.97 C 135.00 149.82 133.95 150.63 133.80 151.77 Z M 133.68 152.74 L 133.55 153.78 C 133.41 154.92 134.22 155.96 135.37 156.10 C 136.51 156.24 137.55 155.43 137.69 154.29 L 137.82 153.25 C 137.96 152.11 137.15 151.07 136.00 150.92 C 134.86 150.78 133.82 151.59 133.68 152.74 Z M 133.56 153.78 L 133.44 154.74 C 133.30 155.88 134.11 156.92 135.25 157.06 C 136.39 157.20 137.43 156.39 137.57 155.25 L 137.69 154.28 C 137.83 153.14 137.01 152.10 135.87 151.97 C 134.73 151.83 133.69 152.64 133.56 153.78 Z M 133.44 154.75 L 133.33 155.72 C 133.19 156.86 134.00 157.89 135.14 158.03 C 136.28 158.16 137.32 157.35 137.45 156.21 L 137.57 155.24 C 137.70 154.10 136.89 153.07 135.75 152.93 C 134.61 152.80 133.58 153.61 133.44 154.75 Z M 133.33 155.72 L 133.21 156.75 C 133.08 157.89 133.89 158.92 135.03 159.05 C 136.17 159.18 137.20 158.37 137.33 157.23 L 137.45 156.20 C 137.58 155.06 136.77 154.03 135.63 153.90 C 134.49 153.77 133.46 154.59 133.33 155.72 Z M 133.21 156.76 L 133.10 157.77 C 132.97 158.91 133.79 159.94 134.93 160.06 C 136.07 160.19 137.09 159.37 137.22 158.23 L 137.33 157.22 C 137.46 156.08 136.64 155.05 135.50 154.93 C 134.36 154.80 133.34 155.62 133.21 156.76 Z M 133.10 157.78 L 133.00 158.73 C 132.88 159.87 133.70 160.89 134.84 161.01 C 135.98 161.13 137.00 160.31 137.12 159.17 L 137.22 158.22 C 137.34 157.08 136.51 156.06 135.38 155.94 C 134.24 155.82 133.22 156.65 133.10 157.78 Z M 133.00 158.74 L 132.89 159.73 C 132.78 160.86 133.60 161.88 134.74 162.00 C 135.87 162.12 136.89 161.29 137.01 160.16 L 137.12 159.17 C 137.23 158.03 136.41 157.01 135.27 156.89 C 134.14 156.77 133.12 157.60 133.00 158.74 Z M 132.90 159.73 L 132.79 160.76 C 132.67 161.89 133.49 162.91 134.63 163.03 C 135.76 163.15 136.78 162.32 136.90 161.19 L 137.01 160.16 C 137.13 159.02 136.31 158.00 135.17 157.88 C 134.03 157.77 133.02 158.59 132.90 159.73 Z M 132.79 160.75 L 132.68 161.78 C 132.56 162.92 133.38 163.93 134.51 164.06 C 135.65 164.18 136.67 163.36 136.79 162.22 L 136.90 161.19 C 137.02 160.06 136.20 159.04 135.06 158.92 C 133.93 158.80 132.91 159.62 132.79 160.75 Z M 132.68 161.78 L 132.57 162.76 C 132.45 163.90 133.27 164.92 134.40 165.04 C 135.54 165.17 136.56 164.35 136.68 163.21 L 136.79 162.22 C 136.91 161.09 136.09 160.07 134.96 159.95 C 133.82 159.82 132.80 160.64 132.68 161.78 Z M 132.57 162.76 L 132.46 163.77 C 132.34 164.90 133.16 165.92 134.29 166.05 C 135.43 166.17 136.45 165.35 136.57 164.22 L 136.68 163.21 C 136.81 162.08 135.99 161.06 134.85 160.94 C 133.72 160.81 132.70 161.63 132.57 162.76 Z M 132.46 163.77 L 132.35 164.77 C 132.23 165.91 133.05 166.93 134.18 167.05 C 135.32 167.17 136.34 166.35 136.46 165.22 L 136.57 164.22 C 136.69 163.08 135.88 162.06 134.74 161.94 C 133.61 161.81 132.59 162.63 132.46 163.77 Z M 132.35 164.78 L 132.25 165.77 C 132.12 166.90 132.95 167.92 134.08 168.04 C 135.21 168.16 136.23 167.34 136.35 166.21 L 136.46 165.22 C 136.58 164.08 135.76 163.06 134.63 162.94 C 133.49 162.82 132.47 163.64 132.35 164.78 Z M 132.25 165.77 L 132.14 166.81 C 132.02 167.94 132.84 168.96 133.98 169.07 C 135.11 169.19 136.13 168.37 136.24 167.24 L 136.35 166.20 C 136.47 165.07 135.65 164.05 134.51 163.94 C 133.38 163.82 132.37 164.64 132.25 165.77 Z M 132.14 166.81 L 132.04 167.83 C 131.93 168.96 132.75 169.97 133.88 170.08 C 135.01 170.20 136.02 169.37 136.14 168.24 L 136.24 167.23 C 136.35 166.10 135.53 165.09 134.40 164.98 C 133.27 164.86 132.26 165.68 132.14 166.81 Z M 132.05 167.83 L 131.95 168.81 C 131.83 169.94 132.66 170.95 133.78 171.06 C 134.91 171.17 135.92 170.35 136.03 169.22 L 136.13 168.24 C 136.25 167.11 135.42 166.11 134.29 165.99 C 133.17 165.88 132.16 166.70 132.05 167.83 Z M 131.95 168.81 L 131.86 169.77 C 131.74 170.90 132.56 171.90 133.69 172.01 C 134.81 172.13 135.82 171.31 135.93 170.18 L 136.03 169.22 C 136.14 168.10 135.32 167.10 134.20 166.98 C 133.07 166.87 132.07 167.69 131.95 168.81 Z M 131.86 169.77 L 131.76 170.79 C 131.64 171.91 132.46 172.91 133.58 173.03 C 134.70 173.14 135.70 172.33 135.82 171.21 L 135.92 170.19 C 136.04 169.07 135.22 168.06 134.10 167.95 C 132.98 167.83 131.98 168.65 131.86 169.77 Z M 131.77 170.78 L 131.66 171.80 C 131.55 172.91 132.35 173.91 133.47 174.03 C 134.58 174.15 135.58 173.34 135.70 172.22 L 135.81 171.21 C 135.92 170.10 135.12 169.10 134.00 168.98 C 132.89 168.86 131.89 169.67 131.77 170.78 Z M 131.67 171.80 L 131.57 172.78 C 131.45 173.89 132.25 174.88 133.36 175.00 C 134.47 175.12 135.46 174.32 135.58 173.21 L 135.69 172.23 C 135.81 171.12 135.00 170.12 133.90 170.00 C 132.79 169.89 131.79 170.69 131.67 171.80 Z M 131.58 172.78 L 131.48 173.74 C 131.36 174.84 132.16 175.83 133.26 175.94 C 134.36 176.06 135.35 175.27 135.47 174.16 L 135.57 173.21 C 135.69 172.10 134.89 171.12 133.79 171.00 C 132.69 170.88 131.70 171.68 131.58 172.78 Z M 131.50 173.74 L 131.38 174.79 C 131.27 175.88 132.06 176.86 133.15 176.98 C 134.24 177.09 135.22 176.30 135.34 175.21 L 135.45 174.16 C 135.57 173.07 134.78 172.09 133.68 171.97 C 132.59 171.86 131.61 172.65 131.50 173.74 Z M 131.41 174.80 L 131.31 175.80 C 131.20 176.87 131.98 177.84 133.06 177.95 C 134.14 178.06 135.10 177.28 135.21 176.20 L 135.32 175.20 C 135.43 174.12 134.64 173.16 133.56 173.05 C 132.48 172.94 131.52 173.72 131.41 174.80 Z M 131.33 175.81 L 131.24 176.75 C 131.14 177.82 131.92 178.77 132.98 178.87 C 134.05 178.97 135.00 178.19 135.10 177.12 L 135.19 176.18 C 135.29 175.12 134.51 174.17 133.45 174.07 C 132.38 173.96 131.43 174.75 131.33 175.81 Z M 131.27 176.78 L 131.18 177.83 C 131.09 178.88 131.87 179.80 132.92 179.89 C 133.96 179.98 134.89 179.21 134.98 178.16 L 135.07 177.10 C 135.16 176.05 134.38 175.13 133.33 175.04 C 132.28 174.95 131.36 175.73 131.27 176.78 Z M 131.23 177.87 L 131.16 178.86 C 131.09 179.88 131.86 180.77 132.88 180.84 C 133.90 180.91 134.79 180.14 134.86 179.11 L 134.93 178.12 C 135.00 177.10 134.23 176.21 133.21 176.14 C 132.18 176.07 131.30 176.84 131.23 177.87 Z M 131.20 178.90 L 131.16 179.87 C 131.11 180.87 131.88 181.71 132.88 181.76 C 133.88 181.80 134.73 181.03 134.77 180.03 L 134.82 179.07 C 134.86 178.07 134.09 177.22 133.09 177.18 C 132.09 177.13 131.25 177.90 131.20 178.90 Z M 131.20 179.92 L 131.18 180.94 C 131.17 181.91 131.95 182.72 132.92 182.73 C 133.90 182.75 134.70 181.97 134.72 180.99 L 134.73 179.98 C 134.75 179.00 133.97 178.20 132.99 178.18 C 132.02 178.17 131.21 178.95 131.20 179.92 Z M 131.22 180.99 L 131.23 181.95 C 131.24 182.90 132.03 183.67 132.98 183.66 C 133.94 183.65 134.71 182.86 134.69 181.90 L 134.68 180.94 C 134.67 179.99 133.89 179.22 132.93 179.23 C 131.97 179.24 131.21 180.03 131.22 180.99 Z M 131.26 181.97 L 131.29 182.97 C 131.32 183.91 132.10 184.65 133.04 184.63 C 133.98 184.60 134.72 183.82 134.69 182.88 L 134.66 181.88 C 134.64 180.94 133.85 180.20 132.91 180.22 C 131.97 180.25 131.23 181.03 131.26 181.97 Z M 131.31 182.98 L 131.33 183.51 C 131.36 184.44 132.14 185.16 133.07 185.13 C 134.00 185.10 134.72 184.32 134.69 183.39 L 134.67 182.87 C 134.64 181.94 133.86 181.21 132.93 181.24 C 132.00 181.28 131.28 182.06 131.31 182.98 Z"
      fill="black"
      fill-rule="nonzero" /><path d="M 156.38 122.68 L 157.31 122.48 C 158.24 122.28 158.83 121.36 158.63 120.43 C 158.43 119.49 157.51 118.90 156.58 119.10 L 155.66 119.30 C 154.72 119.50 154.13 120.42 154.33 121.35 C 154.53 122.28 155.45 122.88 156.38 122.68 Z M 157.50 122.61 L 158.50 122.31 C 159.51 122.00 160.07 120.94 159.77 119.93 C 159.46 118.92 158.40 118.36 157.39 118.66 L 156.39 118.97 C 155.38 119.27 154.82 120.34 155.12 121.34 C 155.43 122.35 156.49 122.92 157.50 122.61 Z M 158.70 122.33 L 159.63 121.95 C 160.65 121.53 161.14 120.37 160.72 119.35 C 160.31 118.34 159.15 117.85 158.13 118.26 L 157.20 118.64 C 156.18 119.06 155.69 120.22 156.10 121.24 C 156.52 122.25 157.68 122.74 158.70 122.33 Z M 159.71 121.91 L 160.63 121.49 C 161.62 121.03 162.06 119.85 161.60 118.85 C 161.14 117.85 159.96 117.42 158.96 117.88 L 158.05 118.30 C 157.05 118.76 156.62 119.94 157.08 120.94 C 157.53 121.93 158.72 122.37 159.71 121.91 Z M 160.66 121.46 L 161.60 121.00 C 162.58 120.52 162.99 119.34 162.51 118.36 C 162.03 117.37 160.85 116.97 159.87 117.45 L 158.93 117.90 C 157.95 118.38 157.54 119.57 158.02 120.55 C 158.50 121.53 159.68 121.94 160.66 121.46 Z M 161.64 120.97 L 162.48 120.53 C 163.44 120.03 163.81 118.85 163.32 117.89 C 162.82 116.93 161.64 116.55 160.67 117.05 L 159.83 117.48 C 158.87 117.98 158.49 119.16 158.99 120.12 C 159.49 121.09 160.67 121.46 161.64 120.97 Z M 162.50 120.49 L 163.37 120.02 C 164.31 119.51 164.66 118.33 164.15 117.39 C 163.63 116.44 162.45 116.10 161.51 116.61 L 160.64 117.08 C 159.70 117.60 159.36 118.78 159.87 119.72 C 160.38 120.66 161.56 121.01 162.50 120.49 Z M 163.35 120.01 L 164.24 119.53 C 165.17 119.03 165.52 117.86 165.02 116.93 C 164.51 115.99 163.35 115.65 162.41 116.15 L 161.53 116.63 C 160.60 117.13 160.25 118.29 160.75 119.23 C 161.26 120.16 162.42 120.51 163.35 120.01 Z M 164.19 119.52 L 165.07 119.07 C 166.00 118.59 166.37 117.45 165.89 116.52 C 165.41 115.59 164.27 115.22 163.34 115.70 L 162.46 116.16 C 161.53 116.63 161.17 117.78 161.64 118.70 C 162.12 119.63 163.26 120.00 164.19 119.52 Z M 165.06 119.04 L 165.96 118.57 C 166.87 118.10 167.23 116.98 166.76 116.07 C 166.29 115.16 165.17 114.80 164.26 115.27 L 163.36 115.74 C 162.45 116.20 162.09 117.32 162.56 118.24 C 163.03 119.15 164.15 119.50 165.06 119.04 Z M 165.96 118.52 L 166.85 118.05 C 167.74 117.58 168.07 116.48 167.60 115.60 C 167.13 114.71 166.04 114.38 165.15 114.85 L 164.26 115.32 C 163.38 115.79 163.04 116.89 163.51 117.77 C 163.98 118.66 165.08 118.99 165.96 118.52 Z M 166.85 118.00 L 167.70 117.53 C 168.55 117.06 168.86 115.99 168.39 115.13 C 167.92 114.28 166.85 113.96 165.99 114.43 L 165.15 114.90 C 164.29 115.37 163.98 116.44 164.45 117.30 C 164.92 118.15 166.00 118.47 166.85 118.00 Z M 167.69 117.49 L 168.55 117.01 C 169.39 116.54 169.69 115.49 169.22 114.66 C 168.76 113.82 167.70 113.52 166.87 113.99 L 166.00 114.47 C 165.17 114.94 164.87 115.99 165.34 116.83 C 165.80 117.66 166.85 117.96 167.69 117.49 Z M 168.53 116.98 L 169.42 116.49 C 170.24 116.04 170.54 115.01 170.09 114.19 C 169.64 113.37 168.61 113.07 167.79 113.52 L 166.90 114.01 C 166.08 114.46 165.78 115.50 166.23 116.32 C 166.68 117.14 167.71 117.43 168.53 116.98 Z M 169.39 116.48 L 170.29 116.00 C 171.11 115.56 171.41 114.55 170.98 113.74 C 170.55 112.93 169.54 112.62 168.73 113.05 L 167.82 113.54 C 167.01 113.97 166.70 114.98 167.13 115.79 C 167.56 116.60 168.57 116.91 169.39 116.48 Z M 170.25 115.99 L 171.17 115.52 C 171.98 115.11 172.31 114.13 171.90 113.32 C 171.49 112.52 170.51 112.19 169.70 112.60 L 168.78 113.06 C 167.97 113.47 167.64 114.45 168.05 115.26 C 168.46 116.07 169.44 116.39 170.25 115.99 Z M 171.11 115.51 L 172.00 115.10 C 172.80 114.73 173.15 113.78 172.79 112.98 C 172.42 112.18 171.47 111.83 170.66 112.19 L 169.77 112.61 C 168.97 112.97 168.62 113.92 168.98 114.73 C 169.35 115.53 170.30 115.88 171.11 115.51 Z M 171.97 115.09 L 172.31 114.94 C 173.10 114.59 173.46 113.66 173.11 112.86 C 172.76 112.07 171.83 111.71 171.04 112.06 L 170.70 112.21 C 169.90 112.56 169.54 113.49 169.89 114.28 C 170.24 115.08 171.17 115.44 171.97 115.09 Z"
      fill="black"
      fill-rule="nonzero" /><path d="M 149.97 135.79 L 150.87 135.62 C 151.83 135.45 152.47 134.52 152.30 133.56 C 152.12 132.59 151.19 131.95 150.23 132.13 L 149.33 132.29 C 148.36 132.47 147.72 133.40 147.90 134.36 C 148.08 135.33 149.01 135.97 149.97 135.79 Z M 151.05 135.75 L 152.08 135.48 C 153.11 135.20 153.73 134.14 153.45 133.10 C 153.18 132.07 152.11 131.45 151.08 131.73 L 150.05 132.00 C 149.01 132.28 148.40 133.34 148.67 134.38 C 148.95 135.41 150.01 136.03 151.05 135.75 Z M 152.22 135.51 L 153.17 135.19 C 154.23 134.84 154.79 133.69 154.44 132.64 C 154.08 131.59 152.94 131.02 151.89 131.37 L 150.94 131.69 C 149.88 132.05 149.31 133.19 149.67 134.25 C 150.02 135.30 151.17 135.87 152.22 135.51 Z M 153.22 135.17 L 154.19 134.82 C 155.23 134.44 155.77 133.28 155.38 132.24 C 155.00 131.19 153.84 130.65 152.80 131.04 L 151.84 131.39 C 150.79 131.77 150.25 132.93 150.64 133.98 C 151.02 135.02 152.18 135.56 153.22 135.17 Z M 154.21 134.81 L 155.18 134.44 C 156.23 134.05 156.75 132.88 156.35 131.84 C 155.96 130.80 154.79 130.28 153.75 130.67 L 152.78 131.05 C 151.73 131.44 151.21 132.61 151.61 133.65 C 152.00 134.69 153.17 135.21 154.21 134.81 Z M 155.19 134.44 L 156.09 134.10 C 157.13 133.70 157.64 132.53 157.24 131.49 C 156.84 130.45 155.68 129.93 154.64 130.33 L 153.74 130.68 C 152.70 131.08 152.19 132.24 152.59 133.28 C 152.99 134.32 154.15 134.84 155.19 134.44 Z M 156.08 134.10 L 156.97 133.76 C 158.01 133.37 158.53 132.20 158.14 131.16 C 157.74 130.12 156.58 129.60 155.54 129.99 L 154.65 130.33 C 153.61 130.72 153.08 131.89 153.48 132.93 C 153.87 133.97 155.04 134.49 156.08 134.10 Z M 156.96 133.76 L 157.91 133.41 C 158.95 133.02 159.48 131.86 159.09 130.81 C 158.70 129.77 157.53 129.24 156.49 129.63 L 155.54 129.99 C 154.50 130.38 153.97 131.54 154.36 132.58 C 154.75 133.63 155.92 134.16 156.96 133.76 Z M 157.91 133.41 L 158.85 133.05 C 159.89 132.66 160.42 131.50 160.02 130.46 C 159.63 129.41 158.47 128.89 157.43 129.28 L 156.49 129.64 C 155.45 130.03 154.92 131.19 155.31 132.23 C 155.71 133.27 156.87 133.80 157.91 133.41 Z M 158.86 133.04 L 159.80 132.68 C 160.83 132.28 161.35 131.12 160.95 130.08 C 160.55 129.05 159.38 128.53 158.35 128.93 L 157.42 129.29 C 156.38 129.69 155.86 130.85 156.26 131.89 C 156.66 132.93 157.83 133.44 158.86 133.04 Z M 159.82 132.67 L 160.76 132.29 C 161.79 131.88 162.29 130.71 161.88 129.69 C 161.46 128.66 160.30 128.16 159.27 128.57 L 158.33 128.94 C 157.30 129.36 156.80 130.52 157.21 131.55 C 157.62 132.58 158.79 133.08 159.82 132.67 Z M 160.78 132.28 L 161.69 131.90 C 162.71 131.48 163.19 130.30 162.77 129.28 C 162.34 128.26 161.17 127.78 160.15 128.21 L 159.24 128.58 C 158.22 129.01 157.74 130.18 158.17 131.20 C 158.59 132.22 159.76 132.70 160.78 132.28 Z M 161.70 131.89 L 162.63 131.49 C 163.65 131.06 164.12 129.88 163.68 128.87 C 163.25 127.86 162.08 127.39 161.07 127.82 L 160.13 128.22 C 159.12 128.65 158.65 129.82 159.09 130.84 C 159.52 131.85 160.69 132.32 161.70 131.89 Z M 162.64 131.48 L 163.57 131.07 C 164.58 130.64 165.04 129.47 164.60 128.46 C 164.17 127.45 163.00 126.99 161.99 127.43 L 161.06 127.83 C 160.05 128.27 159.59 129.44 160.03 130.45 C 160.46 131.45 161.63 131.91 162.64 131.48 Z M 163.58 131.06 L 164.50 130.65 C 165.50 130.21 165.95 129.04 165.51 128.05 C 165.07 127.05 163.91 126.60 162.91 127.04 L 161.98 127.45 C 160.99 127.89 160.53 129.05 160.98 130.05 C 161.42 131.05 162.58 131.50 163.58 131.06 Z M 164.52 130.63 L 165.42 130.21 C 166.40 129.77 166.84 128.60 166.39 127.62 C 165.94 126.64 164.78 126.20 163.79 126.65 L 162.89 127.06 C 161.91 127.51 161.47 128.67 161.92 129.66 C 162.37 130.64 163.53 131.07 164.52 130.63 Z M 165.44 130.19 L 166.38 129.74 C 167.35 129.28 167.76 128.12 167.29 127.15 C 166.83 126.18 165.67 125.77 164.70 126.23 L 163.77 126.68 C 162.80 127.14 162.39 128.30 162.85 129.27 C 163.31 130.24 164.47 130.65 165.44 130.19 Z M 166.39 129.71 L 167.27 129.28 C 168.23 128.81 168.62 127.65 168.15 126.70 C 167.68 125.74 166.52 125.35 165.57 125.82 L 164.69 126.26 C 163.73 126.73 163.34 127.89 163.81 128.84 C 164.28 129.79 165.44 130.19 166.39 129.71 Z M 167.27 129.26 L 168.16 128.81 C 169.11 128.34 169.49 127.20 169.02 126.25 C 168.55 125.31 167.40 124.93 166.46 125.40 L 165.57 125.84 C 164.63 126.31 164.24 127.46 164.71 128.40 C 165.18 129.35 166.33 129.73 167.27 129.26 Z M 168.16 128.79 L 169.06 128.34 C 169.99 127.87 170.36 126.73 169.89 125.80 C 169.42 124.87 168.29 124.50 167.36 124.97 L 166.46 125.42 C 165.53 125.89 165.16 127.03 165.63 127.95 C 166.10 128.88 167.23 129.26 168.16 128.79 Z M 169.08 128.30 L 169.93 127.85 C 170.84 127.37 171.18 126.24 170.70 125.34 C 170.23 124.43 169.10 124.08 168.19 124.56 L 167.34 125.01 C 166.43 125.49 166.09 126.61 166.57 127.52 C 167.04 128.43 168.17 128.78 169.08 128.30 Z M 169.96 127.80 L 170.80 127.33 C 171.68 126.83 171.99 125.71 171.50 124.83 C 171.00 123.95 169.88 123.64 169.00 124.14 L 168.16 124.61 C 167.28 125.10 166.97 126.22 167.47 127.10 C 167.96 127.98 169.08 128.30 169.96 127.80 Z M 170.82 127.28 L 171.72 126.75 C 172.58 126.25 172.86 125.14 172.35 124.28 C 171.85 123.42 170.74 123.14 169.88 123.65 L 168.98 124.18 C 168.12 124.69 167.84 125.79 168.35 126.65 C 168.85 127.51 169.96 127.79 170.82 127.28 Z M 171.72 126.72 L 172.57 126.21 C 173.42 125.70 173.69 124.60 173.18 123.76 C 172.67 122.92 171.58 122.65 170.74 123.16 L 169.88 123.68 C 169.04 124.18 168.77 125.28 169.28 126.12 C 169.78 126.96 170.88 127.23 171.72 126.72 Z M 172.56 126.18 L 173.44 125.65 C 174.27 125.15 174.53 124.07 174.03 123.24 C 173.53 122.42 172.45 122.15 171.62 122.65 L 170.75 123.18 C 169.92 123.68 169.65 124.76 170.16 125.59 C 170.66 126.42 171.74 126.68 172.56 126.18 Z M 173.42 125.63 L 174.31 125.10 C 175.12 124.61 175.38 123.55 174.89 122.73 C 174.41 121.92 173.35 121.65 172.53 122.14 L 171.65 122.68 C 170.83 123.17 170.57 124.22 171.06 125.04 C 171.54 125.85 172.60 126.12 173.42 125.63 Z M 174.27 125.06 L 175.13 124.55 C 175.93 124.08 176.19 123.06 175.72 122.26 C 175.25 121.46 174.23 121.20 173.43 121.67 L 172.57 122.18 C 171.77 122.65 171.51 123.67 171.98 124.47 C 172.45 125.27 173.47 125.53 174.27 125.06 Z M 175.10 124.52 L 175.68 124.18 C 176.46 123.72 176.72 122.73 176.27 121.95 C 175.81 121.17 174.82 120.91 174.04 121.37 L 173.46 121.71 C 172.68 122.16 172.42 123.16 172.88 123.93 C 173.33 124.71 174.33 124.97 175.10 124.52 Z"
      fill="black"
      fill-rule="nonzero" /><path d="M 163.65 133.72 L 163.58 134.72 C 163.51 135.67 164.23 136.50 165.18 136.57 C 166.14 136.64 166.97 135.92 167.04 134.96 L 167.11 133.97 C 167.17 133.01 166.45 132.18 165.50 132.12 C 164.55 132.05 163.72 132.77 163.65 133.72 Z M 163.44 134.78 L 163.41 135.78 C 163.37 136.81 164.18 137.67 165.21 137.71 C 166.24 137.74 167.11 136.93 167.14 135.90 L 167.17 134.90 C 167.21 133.87 166.40 133.01 165.37 132.97 C 164.34 132.94 163.47 133.75 163.44 134.78 Z M 163.30 135.92 L 163.33 136.90 C 163.38 137.99 164.30 138.84 165.39 138.80 C 166.48 138.75 167.33 137.83 167.29 136.74 L 167.25 135.76 C 167.21 134.67 166.29 133.82 165.19 133.86 C 164.10 133.90 163.25 134.82 163.30 135.92 Z M 163.30 137.05 L 163.41 138.02 C 163.54 139.13 164.55 139.92 165.66 139.79 C 166.77 139.66 167.56 138.66 167.44 137.55 L 167.32 136.59 C 167.19 135.47 166.19 134.68 165.08 134.81 C 163.97 134.94 163.17 135.94 163.30 137.05 Z M 163.42 138.10 L 163.58 139.11 C 163.75 140.21 164.79 140.97 165.90 140.80 C 167.01 140.62 167.76 139.58 167.59 138.48 L 167.43 137.47 C 167.26 136.36 166.22 135.60 165.11 135.78 C 164.00 135.95 163.25 136.99 163.42 138.10 Z M 163.58 139.12 L 163.74 140.09 C 163.92 141.20 164.97 141.95 166.08 141.77 C 167.18 141.59 167.93 140.54 167.75 139.43 L 167.59 138.46 C 167.41 137.35 166.36 136.60 165.25 136.79 C 164.14 136.97 163.39 138.02 163.58 139.12 Z M 163.73 140.09 L 163.89 141.05 C 164.07 142.16 165.11 142.92 166.22 142.74 C 167.34 142.56 168.09 141.51 167.91 140.40 L 167.76 139.44 C 167.58 138.33 166.53 137.57 165.42 137.75 C 164.31 137.93 163.55 138.98 163.73 140.09 Z M 163.88 141.04 L 164.04 142.06 C 164.22 143.17 165.27 143.93 166.38 143.75 C 167.50 143.58 168.26 142.53 168.08 141.41 L 167.92 140.40 C 167.74 139.29 166.69 138.53 165.58 138.70 C 164.46 138.88 163.70 139.93 163.88 141.04 Z M 164.04 142.06 L 164.20 143.07 C 164.38 144.19 165.43 144.95 166.54 144.77 C 167.66 144.60 168.42 143.55 168.24 142.43 L 168.08 141.41 C 167.91 140.30 166.86 139.54 165.74 139.71 C 164.62 139.89 163.86 140.94 164.04 142.06 Z M 164.19 143.07 L 164.34 144.02 C 164.52 145.13 165.57 145.90 166.69 145.72 C 167.81 145.55 168.57 144.50 168.40 143.38 L 168.25 142.43 C 168.07 141.31 167.02 140.55 165.90 140.72 C 164.78 140.90 164.02 141.95 164.19 143.07 Z M 164.34 144.01 L 164.49 144.99 C 164.66 146.11 165.71 146.88 166.83 146.71 C 167.96 146.54 168.73 145.49 168.55 144.36 L 168.40 143.38 C 168.23 142.26 167.18 141.49 166.06 141.66 C 164.94 141.84 164.17 142.89 164.34 144.01 Z M 164.49 144.98 L 164.64 146.00 C 164.80 147.12 165.85 147.90 166.97 147.73 C 168.10 147.57 168.88 146.52 168.71 145.40 L 168.56 144.38 C 168.39 143.25 167.35 142.47 166.22 142.64 C 165.10 142.81 164.32 143.85 164.49 144.98 Z M 164.63 145.98 L 164.77 146.98 C 164.93 148.10 165.97 148.89 167.10 148.74 C 168.22 148.58 169.01 147.54 168.85 146.41 L 168.72 145.41 C 168.56 144.29 167.52 143.50 166.39 143.66 C 165.26 143.81 164.47 144.85 164.63 145.98 Z M 164.76 146.96 L 164.88 147.90 C 165.03 149.03 166.07 149.83 167.20 149.68 C 168.33 149.54 169.13 148.50 168.98 147.37 L 168.86 146.42 C 168.71 145.29 167.68 144.49 166.54 144.64 C 165.41 144.79 164.61 145.83 164.76 146.96 Z M 164.87 147.89 L 164.99 148.86 C 165.13 150.00 166.17 150.81 167.31 150.67 C 168.44 150.53 169.25 149.50 169.11 148.36 L 168.99 147.38 C 168.85 146.24 167.82 145.44 166.68 145.57 C 165.54 145.71 164.74 146.75 164.87 147.89 Z M 164.99 148.85 L 165.10 149.87 C 165.23 151.01 166.26 151.83 167.41 151.70 C 168.55 151.57 169.37 150.54 169.24 149.39 L 169.12 148.38 C 168.99 147.23 167.96 146.41 166.82 146.55 C 165.68 146.68 164.86 147.71 164.99 148.85 Z M 165.09 149.85 L 165.21 150.91 C 165.33 152.06 166.36 152.89 167.50 152.77 C 168.65 152.64 169.48 151.62 169.36 150.47 L 169.25 149.41 C 169.12 148.26 168.10 147.43 166.95 147.55 C 165.80 147.68 164.97 148.70 165.09 149.85 Z M 165.20 150.90 L 165.30 151.86 C 165.41 153.01 166.44 153.85 167.59 153.74 C 168.74 153.62 169.58 152.60 169.46 151.45 L 169.37 150.48 C 169.25 149.33 168.23 148.49 167.08 148.61 C 165.93 148.72 165.09 149.75 165.20 150.90 Z M 165.29 151.85 L 165.38 152.83 C 165.49 153.98 166.51 154.83 167.66 154.72 C 168.82 154.62 169.67 153.59 169.56 152.44 L 169.47 151.46 C 169.36 150.31 168.34 149.46 167.18 149.56 C 166.03 149.67 165.18 150.69 165.29 151.85 Z M 165.37 152.82 L 165.46 153.82 C 165.56 154.97 166.58 155.83 167.74 155.73 C 168.90 155.63 169.75 154.61 169.65 153.45 L 169.57 152.45 C 169.47 151.30 168.45 150.44 167.29 150.54 C 166.13 150.64 165.27 151.66 165.37 152.82 Z M 165.45 153.80 L 165.53 154.82 C 165.63 155.98 166.64 156.85 167.81 156.75 C 168.97 156.66 169.83 155.64 169.74 154.48 L 169.66 153.47 C 169.57 152.31 168.55 151.44 167.39 151.53 C 166.23 151.63 165.36 152.64 165.45 153.80 Z M 165.53 154.80 L 165.60 155.83 C 165.69 156.99 166.70 157.87 167.87 157.78 C 169.03 157.69 169.91 156.68 169.82 155.52 L 169.75 154.49 C 169.66 153.33 168.65 152.45 167.48 152.54 C 166.32 152.63 165.44 153.64 165.53 154.80 Z M 165.60 155.81 L 165.66 156.82 C 165.74 157.99 166.75 158.87 167.92 158.79 C 169.09 158.72 169.97 157.71 169.90 156.54 L 169.83 155.53 C 169.75 154.36 168.74 153.48 167.57 153.56 C 166.40 153.63 165.52 154.64 165.60 155.81 Z M 165.66 156.81 L 165.72 157.81 C 165.79 158.98 166.80 159.87 167.97 159.80 C 169.14 159.73 170.03 158.72 169.96 157.55 L 169.90 156.55 C 169.83 155.38 168.82 154.49 167.65 154.56 C 166.48 154.63 165.59 155.63 165.66 156.81 Z M 165.71 157.79 L 165.77 158.79 C 165.83 159.97 166.83 160.87 168.01 160.80 C 169.18 160.74 170.08 159.74 170.02 158.56 L 169.97 157.56 C 169.90 156.39 168.90 155.49 167.73 155.55 C 166.55 155.61 165.65 156.62 165.71 157.79 Z M 165.76 158.78 L 165.81 159.78 C 165.87 160.96 166.87 161.87 168.04 161.81 C 169.22 161.75 170.13 160.75 170.07 159.57 L 170.03 158.57 C 169.97 157.40 168.97 156.49 167.79 156.54 C 166.61 156.60 165.70 157.60 165.76 158.78 Z M 165.80 159.77 L 165.85 160.76 C 165.90 161.95 166.90 162.86 168.08 162.81 C 169.26 162.76 170.17 161.76 170.12 160.58 L 170.08 159.58 C 170.03 158.40 169.03 157.49 167.85 157.54 C 166.67 157.59 165.75 158.59 165.80 159.77 Z M 165.84 160.75 L 165.88 161.76 C 165.92 162.94 166.92 163.87 168.11 163.82 C 169.29 163.77 170.21 162.78 170.17 161.59 L 170.13 160.59 C 170.08 159.41 169.09 158.48 167.90 158.53 C 166.72 158.57 165.79 159.57 165.84 160.75 Z M 165.87 161.75 L 165.91 162.76 C 165.95 163.95 166.94 164.88 168.13 164.84 C 169.32 164.80 170.25 163.80 170.21 162.62 L 170.17 161.60 C 170.13 160.42 169.14 159.49 167.95 159.53 C 166.76 159.57 165.83 160.56 165.87 161.75 Z M 165.90 162.75 L 165.93 163.76 C 165.97 164.95 166.96 165.89 168.15 165.85 C 169.34 165.82 170.28 164.83 170.24 163.64 L 170.21 162.63 C 170.18 161.44 169.18 160.50 167.99 160.53 C 166.80 160.57 165.87 161.56 165.90 162.75 Z M 165.93 163.75 L 165.95 164.75 C 165.98 165.95 166.97 166.89 168.17 166.86 C 169.36 166.83 170.30 165.84 170.27 164.65 L 170.25 163.65 C 170.22 162.45 169.23 161.51 168.03 161.54 C 166.84 161.57 165.90 162.56 165.93 163.75 Z M 165.95 164.74 L 165.97 165.73 C 165.99 166.93 166.98 167.88 168.18 167.85 C 169.37 167.83 170.32 166.84 170.30 165.65 L 170.28 164.66 C 170.25 163.46 169.26 162.51 168.07 162.54 C 166.87 162.56 165.92 163.55 165.95 164.74 Z M 165.96 165.72 L 165.98 166.71 C 166.00 167.91 166.98 168.86 168.18 168.85 C 169.38 168.83 170.33 167.84 170.32 166.64 L 170.30 165.66 C 170.28 164.46 169.30 163.50 168.10 163.52 C 166.90 163.54 165.94 164.52 165.96 165.72 Z M 165.97 166.70 L 165.98 167.75 C 166.00 168.95 166.98 169.92 168.18 169.90 C 169.38 169.89 170.35 168.91 170.33 167.71 L 170.32 166.65 C 170.31 165.45 169.33 164.49 168.12 164.50 C 166.92 164.51 165.96 165.50 165.97 166.70 Z M 165.98 167.74 L 165.98 168.77 C 165.99 169.97 166.97 170.94 168.18 170.94 C 169.38 170.93 170.35 169.94 170.35 168.74 L 170.34 167.71 C 170.33 166.51 169.35 165.54 168.14 165.55 C 166.94 165.55 165.97 166.54 165.98 167.74 Z M 165.97 168.76 L 165.98 169.76 C 165.98 170.96 166.96 171.94 168.17 171.94 C 169.38 171.93 170.36 170.95 170.36 169.74 L 170.35 168.75 C 170.35 167.54 169.37 166.56 168.16 166.56 C 166.95 166.57 165.97 167.55 165.97 168.76 Z M 165.97 169.75 L 165.97 170.71 C 165.97 171.93 166.96 172.91 168.17 172.91 C 169.38 172.91 170.36 171.92 170.36 170.71 L 170.36 169.75 C 170.36 168.53 169.38 167.55 168.16 167.55 C 166.95 167.55 165.97 168.54 165.97 169.75 Z M 165.96 170.71 L 165.96 171.71 C 165.96 172.93 166.95 173.91 168.17 173.91 C 169.38 173.91 170.37 172.92 170.37 171.71 L 170.37 170.71 C 170.37 169.49 169.38 168.51 168.17 168.51 C 166.95 168.51 165.96 169.49 165.96 170.71 Z M 165.96 171.71 L 165.96 172.77 C 165.96 173.99 166.95 174.98 168.17 174.98 C 169.39 174.98 170.38 173.99 170.38 172.77 L 170.38 171.71 C 170.38 170.49 169.39 169.50 168.17 169.50 C 166.95 169.50 165.96 170.49 165.96 171.71 Z M 165.95 172.77 L 165.95 173.78 C 165.95 175.00 166.94 176.00 168.17 176.00 C 169.39 176.00 170.39 175.00 170.39 173.78 L 170.39 172.77 C 170.39 171.55 169.39 170.56 168.17 170.56 C 166.94 170.56 165.95 171.55 165.95 172.77 Z M 165.94 173.78 L 165.94 174.72 C 165.94 175.95 166.94 176.95 168.17 176.95 C 169.40 176.95 170.39 175.95 170.39 174.72 L 170.39 173.78 C 170.39 172.55 169.40 171.55 168.17 171.55 C 166.94 171.55 165.94 172.55 165.94 173.78 Z M 165.94 174.72 L 165.94 175.71 C 165.94 176.95 166.93 177.94 168.17 177.95 C 169.40 177.95 170.40 176.95 170.40 175.71 L 170.40 174.72 C 170.40 173.49 169.40 172.49 168.17 172.49 C 166.94 172.49 165.94 173.49 165.94 174.72 Z M 165.93 175.70 L 165.92 176.74 C 165.92 177.97 166.92 178.98 168.15 178.99 C 169.39 178.99 170.40 177.99 170.40 176.76 L 170.41 175.72 C 170.41 174.49 169.41 173.48 168.18 173.47 C 166.94 173.47 165.93 174.47 165.93 175.70 Z M 165.92 176.70 L 165.90 177.67 C 165.87 178.91 166.86 179.93 168.10 179.96 C 169.34 179.98 170.37 179.00 170.39 177.76 L 170.41 176.79 C 170.43 175.55 169.45 174.53 168.21 174.50 C 166.97 174.48 165.94 175.46 165.92 176.70 Z M 165.89 177.61 L 165.85 178.58 C 165.79 179.83 166.75 180.88 167.99 180.94 C 169.24 181.00 170.29 180.04 170.35 178.79 L 170.40 177.82 C 170.45 176.57 169.49 175.52 168.25 175.46 C 167.01 175.40 165.95 176.36 165.89 177.61 Z M 165.85 178.47 L 165.75 179.49 C 165.63 180.74 166.54 181.84 167.79 181.96 C 169.03 182.08 170.14 181.16 170.26 179.92 L 170.35 178.90 C 170.47 177.66 169.56 176.55 168.31 176.43 C 167.07 176.32 165.96 177.23 165.85 178.47 Z M 165.76 179.31 L 165.60 180.27 C 165.38 181.51 166.20 182.69 167.44 182.90 C 168.68 183.12 169.86 182.29 170.07 181.06 L 170.24 180.10 C 170.46 178.86 169.63 177.68 168.40 177.47 C 167.16 177.25 165.98 178.08 165.76 179.31 Z M 165.65 179.98 L 165.33 181.00 C 164.96 182.21 165.63 183.49 166.84 183.87 C 168.04 184.24 169.33 183.57 169.70 182.36 L 170.02 181.34 C 170.40 180.14 169.72 178.85 168.51 178.48 C 167.31 178.10 166.02 178.78 165.65 179.98 Z M 165.52 180.53 L 165.03 181.37 C 164.39 182.48 164.77 183.89 165.88 184.53 C 166.98 185.17 168.39 184.79 169.03 183.68 L 169.52 182.84 C 170.16 181.73 169.78 180.32 168.67 179.68 C 167.57 179.04 166.15 179.42 165.52 180.53 Z M 165.78 180.56 L 164.99 181.06 C 163.91 181.75 163.59 183.19 164.28 184.28 C 164.97 185.36 166.41 185.68 167.49 184.99 L 168.28 184.49 C 169.37 183.80 169.69 182.36 169.00 181.28 C 168.31 180.19 166.87 179.87 165.78 180.56 Z M 166.40 180.70 L 165.44 180.63 C 164.15 180.54 163.03 181.51 162.95 182.80 C 162.86 184.09 163.83 185.20 165.12 185.29 L 166.08 185.36 C 167.37 185.45 168.49 184.47 168.58 183.19 C 168.66 181.90 167.69 180.78 166.40 180.70 Z M 166.40 180.92 L 165.75 180.55 C 164.62 179.93 163.20 180.34 162.58 181.47 C 161.95 182.60 162.36 184.02 163.49 184.64 L 164.15 185.00 C 165.28 185.63 166.70 185.22 167.32 184.09 C 167.94 182.96 167.53 181.54 166.40 180.92 Z M 166.19 180.88 L 165.35 180.12 C 164.41 179.26 162.94 179.32 162.07 180.27 C 161.21 181.21 161.27 182.68 162.22 183.55 L 163.05 184.31 C 164.00 185.18 165.47 185.11 166.33 184.16 C 167.20 183.22 167.13 181.75 166.19 180.88 Z M 165.45 180.23 L 164.72 179.47 C 163.83 178.56 162.37 178.53 161.45 179.42 C 160.53 180.31 160.51 181.77 161.40 182.69 L 162.12 183.44 C 163.01 184.36 164.48 184.38 165.39 183.50 C 166.31 182.61 166.34 181.14 165.45 180.23 Z M 164.73 179.50 L 164.02 178.75 C 163.15 177.82 161.69 177.78 160.76 178.65 C 159.84 179.53 159.80 180.99 160.67 181.91 L 161.38 182.66 C 162.25 183.59 163.71 183.63 164.64 182.76 C 165.56 181.88 165.61 180.43 164.73 179.50 Z M 164.02 178.76 L 163.29 177.98 C 162.43 177.05 160.97 177.00 160.05 177.87 C 159.12 178.73 159.07 180.18 159.94 181.11 L 160.67 181.90 C 161.53 182.82 162.99 182.87 163.91 182.01 C 164.84 181.14 164.89 179.69 164.02 178.76 Z M 163.29 177.99 L 162.61 177.25 C 161.75 176.32 160.30 176.27 159.37 177.13 C 158.45 177.99 158.39 179.44 159.25 180.36 L 159.94 181.10 C 160.80 182.03 162.24 182.08 163.17 181.22 C 164.10 180.36 164.15 178.91 163.29 177.99 Z M 162.58 177.27 L 161.79 176.43 C 160.95 175.52 159.52 175.46 158.61 176.31 C 157.70 177.16 157.65 178.59 158.49 179.50 L 159.28 180.34 C 160.13 181.25 161.55 181.30 162.46 180.46 C 163.38 179.61 163.43 178.18 162.58 177.27 Z M 161.72 176.47 L 161.04 175.75 C 160.22 174.88 158.84 174.84 157.97 175.66 C 157.10 176.49 157.06 177.86 157.89 178.74 L 158.56 179.45 C 159.39 180.33 160.76 180.36 161.63 179.54 C 162.51 178.72 162.55 177.34 161.72 176.47 Z M 160.94 175.79 L 160.38 175.22 C 159.58 174.40 158.27 174.39 157.45 175.19 C 156.63 175.99 156.62 177.30 157.42 178.12 L 157.99 178.69 C 158.79 179.51 160.10 179.52 160.92 178.72 C 161.73 177.92 161.74 176.61 160.94 175.79 Z M 160.29 175.24 L 159.57 174.55 C 158.78 173.78 157.52 173.80 156.76 174.59 C 155.99 175.38 156.01 176.64 156.80 177.40 L 157.52 178.10 C 158.30 178.86 159.56 178.84 160.33 178.05 C 161.09 177.27 161.07 176.01 160.29 175.24 Z M 159.49 174.57 L 158.76 173.90 C 157.98 173.18 156.77 173.22 156.05 174.00 C 155.33 174.78 155.38 175.99 156.16 176.71 L 156.88 177.38 C 157.66 178.10 158.87 178.05 159.59 177.28 C 160.31 176.50 160.26 175.29 159.49 174.57 Z M 158.68 173.93 L 157.94 173.26 C 157.18 172.59 156.02 172.65 155.34 173.41 C 154.66 174.17 154.73 175.33 155.49 176.01 L 156.23 176.67 C 156.99 177.35 158.15 177.28 158.83 176.53 C 159.51 175.77 159.44 174.61 158.68 173.93 Z M 157.88 173.31 L 157.12 172.65 C 156.39 172.00 155.27 172.08 154.63 172.81 C 153.99 173.54 154.06 174.66 154.79 175.30 L 155.55 175.96 C 156.28 176.60 157.40 176.53 158.04 175.80 C 158.68 175.07 158.61 173.95 157.88 173.31 Z M 157.06 172.69 L 156.29 172.03 C 155.58 171.42 154.51 171.50 153.91 172.21 C 153.30 172.92 153.38 173.99 154.09 174.60 L 154.86 175.26 C 155.56 175.86 156.63 175.78 157.24 175.07 C 157.85 174.36 157.77 173.30 157.06 172.69 Z M 156.23 172.05 L 155.45 171.41 C 154.75 170.84 153.72 170.94 153.15 171.64 C 152.57 172.33 152.67 173.36 153.37 173.94 L 154.15 174.58 C 154.85 175.15 155.88 175.05 156.45 174.35 C 157.03 173.65 156.92 172.62 156.23 172.05 Z M 155.40 171.42 L 154.62 170.80 C 153.92 170.26 152.92 170.38 152.37 171.07 C 151.83 171.76 151.95 172.76 152.64 173.31 L 153.42 173.93 C 154.11 174.47 155.12 174.35 155.66 173.66 C 156.21 172.97 156.09 171.97 155.40 171.42 Z M 154.60 170.82 L 154.33 170.61 C 153.65 170.08 152.66 170.20 152.12 170.89 C 151.59 171.57 151.71 172.56 152.40 173.10 L 152.66 173.30 C 153.35 173.83 154.34 173.71 154.87 173.03 C 155.40 172.34 155.28 171.35 154.60 170.82 Z"
      fill="black"
      fill-rule="nonzero" /></svg>