<svg xmlns="http://www.w3.org/2000/svg" width="300" height="300" viewBox="0 0 300 300">
<path d="M 148.13 102.80 L 148.03 103.83 C 147.93 104.80 148.65 105.67 149.63 105.76 C 150.60 105.86 151.47 105.14 151.56 104.16 L 151.66 103.14 C 151.75 102.17 151.04 101.30 150.06 101.21 C 149.09 101.11 148.22 101.83 148.13 102.80 Z M 148.01 103.84 L 147.93 104.84 C 147.84 105.83 148.57 106.69 149.56 106.78 C 150.54 106.86 151.41 106.13 151.49 105.15 L 151.58 104.15 C 151.66 103.16 150.93 102.30 149.95 102.21 C 148.96 102.13 148.10 102.86 148.01 103.84 Z M 147.91 104.88 L 147.85 105.85 C 147.79 106.84 148.54 107.70 149.53 107.76 C 150.52 107.82 151.38 107.07 151.44 106.08 L 151.51 105.11 C 151.57 104.12 150.82 103.26 149.82 103.20 C 148.83 103.14 147.98 103.89 147.91 104.88 Z M 147.85 105.91 L 147.82 106.89 C 147.79 107.88 148.56 108.71 149.56 108.75 C 150.55 108.78 151.38 108.00 151.41 107.01 L 151.45 106.02 C 151.48 105.03 150.70 104.20 149.71 104.17 C 148.71 104.13 147.88 104.91 147.85 105.91 Z M 147.83 106.93 L 147.82 107.92 C 147.81 108.91 148.60 109.72 149.59 109.73 C 150.58 109.74 151.39 108.94 151.40 107.96 L 151.40 106.96 C 151.41 105.98 150.62 105.17 149.63 105.16 C 148.64 105.15 147.84 105.94 147.83 106.93 Z M 147.83 107.94 L 147.83 108.92 C 147.83 109.90 148.62 110.70 149.61 110.70 C 150.59 110.70 151.38 109.90 151.38 108.92 L 151.39 107.94 C 151.39 106.96 150.59 106.16 149.61 106.16 C 148.63 106.16 147.83 106.96 147.83 107.94 Z M 147.84 108.92 L 147.84 109.89 C 147.84 110.87 148.63 111.66 149.61 111.66 C 150.58 111.66 151.37 110.87 151.37 109.89 L 151.37 108.92 C 151.37 107.95 150.58 107.15 149.61 107.15 C 148.63 107.15 147.84 107.95 147.84 108.92 Z M 147.85 109.89 L 147.85 110.92 C 147.85 111.89 148.64 112.67 149.61 112.67 C 150.58 112.67 151.36 111.89 151.36 110.92 L 151.36 109.89 C 151.36 108.92 150.58 108.13 149.61 108.13 C 148.64 108.13 147.85 108.92 147.85 109.89 Z M 147.86 110.92 L 147.86 111.96 C 147.86 112.92 148.64 113.71 149.61 113.71 C 150.57 113.71 151.35 112.92 151.35 111.96 L 151.35 110.92 C 151.35 109.95 150.57 109.17 149.61 109.17 C 148.64 109.17 147.86 109.95 147.86 110.92 Z M 147.88 111.96 L 147.88 112.97 C 147.88 113.92 148.65 114.70 149.61 114.70 C 150.56 114.70 151.34 113.92 151.34 112.97 L 151.34 111.96 C 151.34 111.01 150.56 110.23 149.61 110.23 C 148.65 110.23 147.88 111.01 147.88 111.96 Z M 147.90 112.97 L 147.90 113.98 C 147.90 114.92 148.66 115.69 149.61 115.69 C 150.55 115.69 151.32 114.92 151.32 113.98 L 151.32 112.97 C 151.32 112.03 150.55 111.26 149.61 111.26 C 148.66 111.26 147.90 112.03 147.90 112.97 Z M 147.91 113.98 L 147.91 114.97 C 147.91 115.90 148.67 116.66 149.61 116.66 C 150.54 116.66 151.30 115.90 151.30 114.97 L 151.30 113.98 C 151.30 113.04 150.54 112.29 149.61 112.29 C 148.67 112.29 147.91 113.04 147.91 113.98 Z M 147.94 114.97 L 147.94 116.03 C 147.94 116.96 148.68 117.70 149.61 117.70 C 150.53 117.70 151.28 116.96 151.28 116.03 L 151.28 114.97 C 151.28 114.04 150.53 113.30 149.61 113.30 C 148.68 113.30 147.94 114.04 147.94 114.97 Z M 147.96 116.03 L 147.96 117.05 C 147.96 117.96 148.70 118.69 149.61 118.69 C 150.51 118.69 151.25 117.96 151.25 117.05 L 151.25 116.03 C 151.25 115.13 150.51 114.39 149.61 114.39 C 148.70 114.39 147.96 115.13 147.96 116.03 Z M 147.99 117.05 L 147.99 117.98 C 147.99 118.87 148.71 119.59 149.61 119.59 C 150.50 119.59 151.22 118.87 151.22 117.98 L 151.22 117.05 C 151.22 116.16 150.50 115.43 149.61 115.43 C 148.71 115.43 147.99 116.16 147.99 117.05 Z M 148.01 117.98 L 148.01 119.02 C 148.01 119.90 148.73 120.61 149.61 120.61 C 150.49 120.61 151.20 119.90 151.20 119.02 L 151.20 117.98 C 151.20 117.10 150.49 116.38 149.61 116.38 C 148.73 116.38 148.01 117.10 148.01 117.98 Z M 148.03 119.02 L 148.03 119.99 C 148.03 120.86 148.74 121.56 149.61 121.56 C 150.48 121.56 151.18 120.86 151.18 119.99 L 151.18 119.02 C 151.18 118.15 150.48 117.44 149.61 117.44 C 148.74 117.44 148.03 118.15 148.03 119.02 Z M 148.04 119.99 L 148.04 120.39 C 148.04 121.25 148.74 121.95 149.61 121.95 C 150.47 121.95 151.17 121.25 151.17 120.39 L 151.17 119.99 C 151.17 119.12 150.47 118.42 149.61 118.42 C 148.74 118.42 148.04 119.12 148.04 119.99 Z"
      fill="black"
      fill-rule="nonzero" /><path d="M 135.33 113.75 L 135.50 114.75 C 135.66 115.67 136.53 116.29 137.46 116.14 C 138.38 115.98 139.00 115.10 138.85 114.18 L 138.68 113.18 C 138.52 112.26 137.65 111.64 136.72 111.79 C 135.80 111.95 135.17 112.83 135.33 113.75 Z M 135.52 114.80 L 135.72 115.78 C 135.90 116.69 136.80 117.28 137.71 117.10 C 138.63 116.91 139.22 116.01 139.03 115.10 L 138.83 114.12 C 138.64 113.21 137.75 112.62 136.84 112.80 C 135.92 112.99 135.33 113.88 135.52 114.80 Z M 135.73 115.88 L 135.99 116.84 C 136.24 117.75 137.17 118.28 138.07 118.04 C 138.98 117.79 139.51 116.86 139.27 115.96 L 139.01 115.00 C 138.77 114.09 137.84 113.56 136.93 113.80 C 136.03 114.04 135.49 114.97 135.73 115.88 Z M 135.98 116.87 L 136.25 117.83 C 136.51 118.74 137.46 119.27 138.37 119.01 C 139.28 118.75 139.81 117.80 139.56 116.89 L 139.28 115.93 C 139.03 115.02 138.08 114.49 137.16 114.75 C 136.25 115.01 135.72 115.96 135.98 116.87 Z M 136.20 117.69 L 136.39 118.67 C 136.58 119.62 137.49 120.23 138.43 120.04 C 139.38 119.86 139.99 118.94 139.81 118.00 L 139.61 117.02 C 139.43 116.08 138.51 115.46 137.57 115.65 C 136.62 115.84 136.01 116.75 136.20 117.69 Z M 136.34 118.50 L 136.43 119.50 C 136.52 120.47 137.38 121.18 138.35 121.09 C 139.32 121.00 140.04 120.14 139.95 119.17 L 139.86 118.17 C 139.77 117.20 138.91 116.49 137.94 116.58 C 136.96 116.67 136.25 117.53 136.34 118.50 Z M 136.40 119.40 L 136.43 120.42 C 136.47 121.40 137.30 122.18 138.29 122.14 C 139.28 122.11 140.05 121.28 140.02 120.29 L 139.98 119.27 C 139.95 118.28 139.12 117.51 138.13 117.54 C 137.14 117.58 136.36 118.41 136.40 119.40 Z M 136.40 120.49 L 136.48 121.54 C 136.55 122.55 137.43 123.30 138.44 123.23 C 139.44 123.15 140.20 122.28 140.12 121.27 L 140.05 120.22 C 139.97 119.21 139.10 118.46 138.09 118.53 C 137.08 118.60 136.33 119.48 136.40 120.49 Z M 136.59 122.16 L 136.95 122.97 C 137.37 123.92 138.47 124.34 139.42 123.92 C 140.36 123.51 140.79 122.40 140.37 121.46 L 140.01 120.65 C 139.59 119.70 138.49 119.28 137.54 119.70 C 136.60 120.12 136.17 121.22 136.59 122.16 Z M 137.75 123.89 L 138.56 124.33 C 139.49 124.83 140.64 124.49 141.14 123.57 C 141.65 122.64 141.31 121.49 140.38 120.98 L 139.57 120.54 C 138.65 120.04 137.49 120.38 136.99 121.30 C 136.49 122.23 136.83 123.38 137.75 123.89 Z M 139.34 124.58 L 140.38 124.66 C 141.45 124.73 142.37 123.92 142.44 122.86 C 142.52 121.79 141.71 120.87 140.65 120.80 L 139.60 120.73 C 138.54 120.66 137.62 121.46 137.54 122.52 C 137.47 123.59 138.28 124.51 139.34 124.58 Z M 140.84 124.66 L 141.72 124.51 C 142.79 124.33 143.51 123.32 143.33 122.25 C 143.15 121.19 142.14 120.47 141.07 120.65 L 140.19 120.79 C 139.12 120.97 138.40 121.99 138.58 123.05 C 138.76 124.12 139.77 124.84 140.84 124.66 Z M 141.95 124.49 L 142.94 124.20 C 144.00 123.89 144.60 122.79 144.30 121.74 C 143.99 120.68 142.89 120.08 141.83 120.38 L 140.84 120.67 C 139.79 120.98 139.18 122.08 139.49 123.13 C 139.79 124.19 140.90 124.79 141.95 124.49 Z M 143.03 124.19 L 144.00 123.86 C 145.05 123.51 145.61 122.37 145.25 121.32 C 144.90 120.27 143.76 119.70 142.71 120.06 L 141.74 120.39 C 140.69 120.75 140.13 121.89 140.49 122.94 C 140.84 123.99 141.99 124.55 143.03 124.19 Z M 144.02 123.86 L 144.86 123.57 C 145.91 123.20 146.46 122.05 146.09 121.00 C 145.72 119.95 144.57 119.40 143.52 119.77 L 142.68 120.06 C 141.63 120.43 141.08 121.58 141.45 122.63 C 141.82 123.68 142.97 124.23 144.02 123.86 Z M 144.87 123.57 L 145.79 123.24 C 146.84 122.87 147.39 121.71 147.02 120.66 C 146.64 119.61 145.49 119.06 144.44 119.44 L 143.52 119.77 C 142.47 120.14 141.92 121.29 142.29 122.34 C 142.66 123.39 143.82 123.94 144.87 123.57 Z M 145.79 123.24 L 146.81 122.88 C 147.86 122.51 148.41 121.36 148.04 120.31 C 147.67 119.25 146.51 118.70 145.46 119.08 L 144.44 119.44 C 143.39 119.81 142.84 120.96 143.21 122.01 C 143.58 123.06 144.74 123.61 145.79 123.24 Z M 146.80 122.89 L 147.85 122.52 C 148.91 122.15 149.46 121.00 149.09 119.95 C 148.73 118.89 147.58 118.34 146.52 118.71 L 145.47 119.07 C 144.42 119.44 143.86 120.59 144.23 121.64 C 144.60 122.70 145.75 123.25 146.80 122.89 Z M 147.84 122.52 L 148.77 122.20 C 149.82 121.84 150.39 120.69 150.02 119.64 C 149.66 118.58 148.51 118.02 147.46 118.38 L 146.53 118.70 C 145.48 119.06 144.92 120.21 145.28 121.27 C 145.64 122.32 146.79 122.88 147.84 122.52 Z M 148.76 122.20 L 149.72 121.88 C 150.78 121.52 151.34 120.38 150.99 119.32 C 150.63 118.27 149.49 117.70 148.43 118.06 L 147.47 118.38 C 146.41 118.74 145.85 119.88 146.20 120.94 C 146.56 121.99 147.70 122.56 148.76 122.20 Z M 149.71 121.88 L 150.69 121.56 C 151.74 121.21 152.31 120.07 151.96 119.01 C 151.61 117.96 150.47 117.38 149.42 117.73 L 148.44 118.06 C 147.39 118.41 146.81 119.55 147.16 120.60 C 147.51 121.66 148.65 122.23 149.71 121.88 Z M 150.67 121.56 L 151.64 121.25 C 152.70 120.90 153.27 119.77 152.93 118.71 C 152.59 117.65 151.45 117.07 150.40 117.42 L 149.43 117.73 C 148.37 118.08 147.79 119.21 148.14 120.27 C 148.48 121.33 149.62 121.90 150.67 121.56 Z M 151.62 121.25 L 152.56 120.95 C 153.62 120.62 154.20 119.49 153.87 118.43 C 153.53 117.37 152.40 116.78 151.35 117.12 L 150.41 117.42 C 149.35 117.75 148.77 118.88 149.10 119.94 C 149.44 121.00 150.57 121.58 151.62 121.25 Z M 152.54 120.95 L 153.62 120.62 C 154.67 120.30 155.27 119.18 154.94 118.12 C 154.62 117.06 153.50 116.47 152.44 116.79 L 151.37 117.12 C 150.31 117.44 149.71 118.56 150.04 119.62 C 150.36 120.68 151.48 121.27 152.54 120.95 Z M 153.59 120.62 L 154.61 120.32 C 155.66 120.01 156.27 118.91 155.96 117.85 C 155.66 116.80 154.55 116.19 153.50 116.50 L 152.47 116.80 C 151.42 117.10 150.81 118.21 151.12 119.26 C 151.43 120.32 152.53 120.92 153.59 120.62 Z M 154.58 120.31 L 155.52 120.05 C 156.57 119.77 157.19 118.68 156.90 117.63 C 156.61 116.58 155.52 115.96 154.47 116.25 L 153.53 116.50 C 152.48 116.79 151.86 117.88 152.15 118.93 C 152.44 119.98 153.52 120.60 154.58 120.31 Z M 155.48 120.05 L 156.34 119.83 C 157.39 119.56 158.03 118.49 157.76 117.45 C 157.49 116.40 156.43 115.76 155.38 116.03 L 154.51 116.25 C 153.46 116.52 152.83 117.58 153.10 118.63 C 153.36 119.68 154.43 120.32 155.48 120.05 Z M 156.29 119.82 L 157.27 119.60 C 158.31 119.36 158.96 118.32 158.72 117.27 C 158.48 116.23 157.45 115.58 156.40 115.82 L 155.43 116.04 C 154.38 116.28 153.73 117.32 153.97 118.36 C 154.21 119.40 155.25 120.06 156.29 119.82 Z M 157.21 119.57 L 158.21 119.37 C 159.24 119.17 159.91 118.17 159.70 117.14 C 159.50 116.10 158.49 115.44 157.46 115.64 L 156.46 115.84 C 155.43 116.05 154.76 117.05 154.97 118.08 C 155.17 119.11 156.18 119.78 157.21 119.57 Z M 158.16 119.34 L 159.09 119.18 C 160.10 119.00 160.78 118.03 160.60 117.02 C 160.42 116.01 159.46 115.33 158.44 115.51 L 157.51 115.67 C 156.50 115.85 155.82 116.82 156.00 117.83 C 156.18 118.84 157.15 119.52 158.16 119.34 Z M 159.07 119.15 L 159.47 119.08 C 160.47 118.91 161.15 117.97 160.98 116.97 C 160.81 115.97 159.86 115.30 158.86 115.47 L 158.46 115.54 C 157.46 115.70 156.79 116.65 156.96 117.65 C 157.13 118.65 158.07 119.32 159.07 119.15 Z"
      fill="black"
      fill-rule="nonzero" /><path d="M 159.99 109.75 L 159.78 110.65 C 159.56 111.55 160.12 112.47 161.02 112.69 C 161.93 112.91 162.84 112.35 163.06 111.44 L 163.28 110.55 C 163.50 109.64 162.94 108.73 162.03 108.51 C 161.13 108.29 160.21 108.85 159.99 109.75 Z M 159.74 110.61 L 159.49 111.57 C 159.25 112.50 159.81 113.44 160.74 113.68 C 161.66 113.92 162.61 113.37 162.85 112.44 L 163.10 111.48 C 163.34 110.55 162.78 109.61 161.85 109.37 C 160.93 109.13 159.98 109.68 159.74 110.61 Z M 159.47 111.52 L 159.18 112.53 C 158.92 113.47 159.46 114.45 160.40 114.71 C 161.34 114.98 162.31 114.44 162.58 113.50 L 162.87 112.49 C 163.14 111.55 162.59 110.58 161.65 110.31 C 160.72 110.04 159.74 110.59 159.47 111.52 Z M 159.19 112.50 L 158.92 113.40 C 158.63 114.33 159.16 115.32 160.09 115.61 C 161.02 115.89 162.01 115.37 162.30 114.43 L 162.57 113.53 C 162.86 112.60 162.33 111.61 161.40 111.33 C 160.47 111.04 159.48 111.57 159.19 112.50 Z M 158.94 113.39 L 158.63 114.35 C 158.34 115.27 158.85 116.25 159.77 116.54 C 160.69 116.84 161.67 116.33 161.96 115.41 L 162.27 114.44 C 162.56 113.53 162.06 112.54 161.14 112.25 C 160.22 111.96 159.23 112.47 158.94 113.39 Z M 158.66 114.35 L 158.33 115.35 C 158.04 116.26 158.53 117.23 159.44 117.52 C 160.35 117.82 161.32 117.32 161.62 116.41 L 161.94 115.41 C 162.24 114.50 161.74 113.53 160.83 113.24 C 159.93 112.94 158.95 113.44 158.66 114.35 Z M 158.35 115.35 L 158.20 115.79 C 157.91 116.69 158.40 117.66 159.30 117.95 C 160.20 118.24 161.17 117.75 161.46 116.85 L 161.60 116.41 C 161.90 115.51 161.40 114.55 160.51 114.25 C 159.61 113.96 158.64 114.45 158.35 115.35 Z"
      fill="black"
      fill-rule="nonzero" /><path d="M 141.32 134.91 L 142.31 134.94 C 143.31 134.96 144.15 134.17 144.17 133.17 C 144.20 132.17 143.41 131.33 142.41 131.30 L 141.42 131.28 C 140.41 131.25 139.58 132.04 139.55 133.04 C 139.52 134.05 140.31 134.88 141.32 134.91 Z M 142.40 134.97 L 143.41 134.95 C 144.43 134.92 145.24 134.07 145.21 133.05 C 145.19 132.03 144.34 131.22 143.32 131.24 L 142.31 131.27 C 141.29 131.29 140.48 132.14 140.51 133.17 C 140.53 134.19 141.38 135.00 142.40 134.97 Z M 143.57 134.96 L 144.49 134.85 C 145.51 134.74 146.25 133.81 146.14 132.78 C 146.02 131.75 145.09 131.01 144.07 131.13 L 143.15 131.23 C 142.12 131.35 141.38 132.28 141.50 133.31 C 141.62 134.33 142.55 135.07 143.57 134.96 Z M 144.62 134.84 L 145.59 134.65 C 146.61 134.46 147.28 133.48 147.09 132.46 C 146.90 131.44 145.92 130.77 144.90 130.97 L 143.93 131.15 C 142.91 131.34 142.24 132.32 142.43 133.34 C 142.62 134.36 143.61 135.03 144.62 134.84 Z M 145.67 134.64 L 146.71 134.40 C 147.72 134.16 148.35 133.16 148.12 132.15 C 147.89 131.14 146.88 130.51 145.87 130.74 L 144.83 130.98 C 143.82 131.21 143.19 132.22 143.42 133.23 C 143.65 134.24 144.66 134.87 145.67 134.64 Z M 146.74 134.39 L 147.70 134.15 C 148.70 133.91 149.32 132.89 149.07 131.88 C 148.82 130.88 147.81 130.26 146.80 130.51 L 145.84 130.75 C 144.84 130.99 144.22 132.01 144.47 133.02 C 144.72 134.02 145.74 134.64 146.74 134.39 Z M 147.71 134.15 L 148.71 133.90 C 149.71 133.65 150.32 132.62 150.07 131.62 C 149.81 130.61 148.79 130.01 147.79 130.26 L 146.79 130.51 C 145.78 130.77 145.18 131.79 145.43 132.79 C 145.68 133.80 146.71 134.41 147.71 134.15 Z M 148.71 133.90 L 149.69 133.65 C 150.70 133.39 151.30 132.37 151.05 131.36 C 150.79 130.36 149.77 129.75 148.76 130.01 L 147.78 130.26 C 146.78 130.52 146.17 131.54 146.43 132.55 C 146.69 133.55 147.71 134.16 148.71 133.90 Z M 149.69 133.65 L 150.73 133.38 C 151.74 133.13 152.34 132.11 152.09 131.10 C 151.83 130.09 150.81 129.49 149.80 129.74 L 148.76 130.01 C 147.76 130.27 147.15 131.29 147.41 132.29 C 147.66 133.30 148.69 133.91 149.69 133.65 Z M 150.74 133.38 L 151.70 133.13 C 152.70 132.87 153.31 131.85 153.05 130.84 C 152.79 129.84 151.76 129.24 150.76 129.50 L 149.79 129.75 C 148.79 130.01 148.19 131.03 148.45 132.04 C 148.71 133.04 149.73 133.64 150.74 133.38 Z M 151.72 133.13 L 152.62 132.88 C 153.62 132.61 154.21 131.58 153.94 130.58 C 153.67 129.58 152.63 128.99 151.63 129.26 L 150.73 129.50 C 149.73 129.77 149.14 130.81 149.41 131.81 C 149.69 132.81 150.72 133.40 151.72 133.13 Z M 152.66 132.87 L 153.60 132.60 C 154.59 132.30 155.16 131.26 154.87 130.26 C 154.58 129.27 153.53 128.70 152.54 128.99 L 151.59 129.27 C 150.60 129.56 150.03 130.61 150.32 131.60 C 150.61 132.60 151.66 133.17 152.66 132.87 Z M 153.64 132.59 L 154.58 132.28 C 155.57 131.97 156.12 130.91 155.81 129.92 C 155.49 128.93 154.43 128.39 153.44 128.70 L 152.50 129.00 C 151.51 129.32 150.96 130.37 151.27 131.36 C 151.59 132.35 152.65 132.90 153.64 132.59 Z M 154.61 132.27 L 155.57 131.95 C 156.55 131.62 157.08 130.55 156.75 129.57 C 156.42 128.59 155.35 128.06 154.37 128.39 L 153.41 128.71 C 152.43 129.04 151.90 130.11 152.23 131.09 C 152.56 132.08 153.63 132.61 154.61 132.27 Z M 155.59 131.95 L 156.53 131.62 C 157.51 131.27 158.03 130.20 157.69 129.22 C 157.34 128.24 156.27 127.72 155.29 128.06 L 154.35 128.39 C 153.37 128.74 152.85 129.81 153.19 130.79 C 153.54 131.77 154.61 132.29 155.59 131.95 Z M 156.55 131.61 L 157.51 131.26 C 158.49 130.91 158.99 129.83 158.64 128.85 C 158.28 127.87 157.20 127.37 156.22 127.72 L 155.27 128.07 C 154.29 128.43 153.78 129.51 154.14 130.48 C 154.50 131.46 155.58 131.97 156.55 131.61 Z M 157.53 131.26 L 158.62 130.85 C 159.59 130.48 160.09 129.39 159.72 128.42 C 159.35 127.44 158.26 126.95 157.29 127.32 L 156.20 127.73 C 155.22 128.09 154.73 129.18 155.10 130.16 C 155.47 131.14 156.56 131.63 157.53 131.26 Z M 158.55 130.89 L 159.60 130.54 C 160.60 130.21 161.14 129.13 160.81 128.14 C 160.48 127.14 159.40 126.60 158.41 126.93 L 157.35 127.28 C 156.36 127.61 155.82 128.69 156.15 129.68 C 156.48 130.68 157.55 131.22 158.55 130.89 Z M 158.46 130.57 L 158.89 130.69 C 159.90 130.99 160.96 130.42 161.26 129.40 C 161.56 128.39 160.98 127.33 159.97 127.03 L 159.55 126.91 C 158.53 126.61 157.47 127.18 157.17 128.19 C 156.87 129.20 157.45 130.27 158.46 130.57 Z M 157.77 127.92 L 157.27 128.80 C 156.75 129.72 157.08 130.89 157.99 131.41 C 158.91 131.93 160.08 131.60 160.60 130.68 L 161.10 129.80 C 161.61 128.88 161.29 127.72 160.37 127.20 C 159.45 126.68 158.29 127.00 157.77 127.92 Z M 157.39 128.62 L 157.16 128.93 C 156.54 129.79 156.73 130.98 157.58 131.60 C 158.43 132.22 159.63 132.03 160.25 131.18 L 160.48 130.87 C 161.10 130.02 160.91 128.82 160.06 128.20 C 159.21 127.58 158.01 127.77 157.39 128.62 Z"
      fill="black"
      fill-rule="nonzero" /><path d="M 136.49 147.89 L 136.79 148.84 C 137.06 149.70 137.97 150.17 138.83 149.90 C 139.69 149.63 140.17 148.71 139.90 147.86 L 139.60 146.90 C 139.33 146.04 138.41 145.57 137.55 145.84 C 136.69 146.11 136.21 147.03 136.49 147.89 Z M 136.83 148.93 L 137.20 149.86 C 137.52 150.70 138.46 151.11 139.29 150.78 C 140.12 150.46 140.54 149.52 140.21 148.69 L 139.85 147.76 C 139.53 146.93 138.59 146.51 137.76 146.84 C 136.92 147.16 136.51 148.10 136.83 148.93 Z M 137.29 150.04 L 137.75 150.89 C 138.17 151.67 139.15 151.96 139.93 151.54 C 140.71 151.12 141.00 150.14 140.58 149.36 L 140.12 148.51 C 139.69 147.73 138.72 147.44 137.94 147.86 C 137.16 148.29 136.87 149.26 137.29 150.04 Z M 137.88 151.07 L 138.44 151.84 C 138.96 152.55 139.96 152.70 140.67 152.18 C 141.38 151.66 141.54 150.66 141.01 149.95 L 140.45 149.18 C 139.93 148.47 138.93 148.32 138.22 148.84 C 137.51 149.36 137.35 150.36 137.88 151.07 Z M 138.54 151.95 L 139.23 152.72 C 139.81 153.38 140.82 153.43 141.47 152.85 C 142.13 152.26 142.19 151.26 141.60 150.60 L 140.91 149.83 C 140.33 149.18 139.32 149.12 138.67 149.71 C 138.01 150.29 137.96 151.30 138.54 151.95 Z M 139.30 152.79 L 140.12 153.60 C 140.74 154.22 141.75 154.21 142.36 153.59 C 142.98 152.97 142.97 151.97 142.35 151.35 L 141.53 150.54 C 140.91 149.92 139.91 149.93 139.29 150.55 C 138.67 151.17 138.68 152.17 139.30 152.79 Z M 140.20 153.67 L 141.07 154.42 C 141.73 154.99 142.72 154.92 143.29 154.26 C 143.86 153.61 143.79 152.61 143.14 152.04 L 142.27 151.29 C 141.61 150.72 140.62 150.79 140.05 151.44 C 139.48 152.10 139.55 153.10 140.20 153.67 Z M 141.28 154.57 L 141.99 155.01 C 142.73 155.46 143.70 155.23 144.15 154.50 C 144.61 153.76 144.38 152.79 143.64 152.34 L 142.93 151.89 C 142.19 151.44 141.22 151.67 140.77 152.40 C 140.31 153.14 140.54 154.11 141.28 154.57 Z M 143.62 155.02 L 144.11 154.72 C 144.86 154.28 145.10 153.32 144.66 152.58 C 144.22 151.83 143.25 151.59 142.51 152.03 L 142.02 152.33 C 141.27 152.77 141.03 153.73 141.47 154.47 C 141.91 155.22 142.88 155.46 143.62 155.02 Z M 144.87 153.30 L 144.82 152.17 C 144.78 151.30 144.04 150.64 143.18 150.68 C 142.32 150.72 141.65 151.45 141.69 152.32 L 141.75 153.45 C 141.79 154.32 142.52 154.98 143.39 154.94 C 144.25 154.90 144.92 154.17 144.87 153.30 Z M 144.79 151.93 L 144.60 150.98 C 144.43 150.13 143.61 149.58 142.76 149.75 C 141.91 149.91 141.36 150.74 141.53 151.59 L 141.72 152.55 C 141.89 153.40 142.71 153.95 143.56 153.78 C 144.41 153.61 144.96 152.78 144.79 151.93 Z M 144.60 150.95 L 144.39 149.96 C 144.21 149.11 143.37 148.57 142.52 148.75 C 141.68 148.93 141.14 149.77 141.32 150.62 L 141.53 151.61 C 141.71 152.46 142.55 153.00 143.39 152.82 C 144.24 152.64 144.78 151.80 144.60 150.95 Z M 144.42 150.03 L 144.26 149.05 C 144.12 148.19 143.30 147.60 142.44 147.74 C 141.57 147.88 140.99 148.70 141.13 149.56 L 141.29 150.54 C 141.43 151.41 142.24 151.99 143.11 151.85 C 143.97 151.71 144.56 150.90 144.42 150.03 Z M 144.29 149.14 L 144.19 148.13 C 144.10 147.25 143.31 146.61 142.42 146.70 C 141.54 146.79 140.90 147.58 140.99 148.47 L 141.09 149.47 C 141.18 150.35 141.98 151.00 142.86 150.91 C 143.74 150.81 144.39 150.02 144.29 149.14 Z M 144.23 148.23 L 144.19 147.20 C 144.15 146.29 143.38 145.59 142.48 145.62 C 141.57 145.66 140.87 146.43 140.90 147.33 L 140.95 148.37 C 140.99 149.28 141.75 149.98 142.66 149.94 C 143.56 149.90 144.27 149.14 144.23 148.23 Z M 144.23 147.42 L 144.33 146.41 C 144.41 145.48 143.73 144.65 142.80 144.57 C 141.86 144.48 141.04 145.17 140.95 146.10 L 140.86 147.11 C 140.77 148.04 141.46 148.87 142.39 148.95 C 143.32 149.04 144.15 148.35 144.23 147.42 Z M 144.24 146.97 L 144.61 146.14 C 145.01 145.25 144.61 144.21 143.73 143.82 C 142.84 143.42 141.80 143.82 141.41 144.71 L 141.04 145.54 C 140.64 146.43 141.04 147.46 141.92 147.86 C 142.81 148.25 143.85 147.86 144.24 146.97 Z M 144.20 146.75 L 144.90 146.12 C 145.63 145.46 145.69 144.33 145.03 143.60 C 144.37 142.87 143.25 142.81 142.52 143.47 L 141.82 144.10 C 141.09 144.76 141.03 145.88 141.69 146.61 C 142.34 147.34 143.47 147.40 144.20 146.75 Z M 144.60 146.34 L 145.52 145.81 C 146.38 145.32 146.67 144.23 146.18 143.37 C 145.69 142.52 144.60 142.23 143.75 142.72 L 142.82 143.25 C 141.97 143.74 141.67 144.83 142.16 145.68 C 142.65 146.54 143.74 146.83 144.60 146.34 Z M 145.44 145.85 L 146.31 145.41 C 147.18 144.97 147.53 143.89 147.09 143.02 C 146.64 142.14 145.57 141.79 144.69 142.23 L 143.83 142.67 C 142.95 143.12 142.60 144.19 143.05 145.07 C 143.49 145.94 144.56 146.30 145.44 145.85 Z M 146.28 145.43 L 147.19 144.98 C 148.07 144.55 148.44 143.49 148.01 142.60 C 147.58 141.72 146.51 141.35 145.63 141.78 L 144.72 142.22 C 143.83 142.65 143.46 143.72 143.90 144.60 C 144.33 145.49 145.39 145.86 146.28 145.43 Z M 147.17 144.99 L 148.10 144.55 C 148.99 144.13 149.37 143.07 148.95 142.18 C 148.53 141.29 147.46 140.91 146.57 141.33 L 145.64 141.77 C 144.75 142.19 144.37 143.25 144.79 144.14 C 145.22 145.03 146.28 145.41 147.17 144.99 Z M 148.08 144.56 L 148.99 144.14 C 149.88 143.73 150.27 142.67 149.86 141.78 C 149.44 140.88 148.38 140.49 147.49 140.91 L 146.59 141.32 C 145.69 141.74 145.30 142.80 145.71 143.69 C 146.13 144.58 147.19 144.98 148.08 144.56 Z M 148.96 144.15 L 149.88 143.75 C 150.78 143.35 151.18 142.29 150.78 141.39 C 150.38 140.49 149.33 140.09 148.43 140.49 L 147.51 140.90 C 146.61 141.30 146.21 142.35 146.61 143.25 C 147.01 144.15 148.06 144.56 148.96 144.15 Z M 149.85 143.76 L 150.78 143.37 C 151.69 142.98 152.11 141.93 151.73 141.03 C 151.34 140.12 150.29 139.70 149.39 140.08 L 148.46 140.47 C 147.55 140.86 147.13 141.91 147.51 142.81 C 147.90 143.72 148.94 144.14 149.85 143.76 Z M 150.74 143.38 L 151.69 143.01 C 152.60 142.64 153.05 141.60 152.68 140.69 C 152.32 139.77 151.28 139.33 150.37 139.69 L 149.42 140.07 C 148.51 140.43 148.06 141.47 148.43 142.38 C 148.79 143.30 149.83 143.74 150.74 143.38 Z M 151.64 143.02 L 152.58 142.68 C 153.50 142.34 153.98 141.31 153.64 140.39 C 153.30 139.46 152.27 138.99 151.35 139.33 L 150.41 139.67 C 149.49 140.01 149.01 141.04 149.35 141.96 C 149.69 142.89 150.72 143.36 151.64 143.02 Z M 152.52 142.70 L 153.48 142.38 C 154.41 142.07 154.92 141.06 154.61 140.13 C 154.30 139.19 153.29 138.68 152.35 138.99 L 151.40 139.31 C 150.47 139.62 149.96 140.63 150.27 141.57 C 150.58 142.50 151.59 143.01 152.52 142.70 Z M 153.40 142.40 L 154.38 142.12 C 155.32 141.85 155.87 140.87 155.60 139.92 C 155.33 138.98 154.35 138.43 153.40 138.70 L 152.43 138.97 C 151.48 139.24 150.93 140.23 151.20 141.17 C 151.47 142.12 152.46 142.67 153.40 142.40 Z M 154.28 142.14 L 155.22 141.93 C 156.18 141.72 156.79 140.77 156.57 139.81 C 156.36 138.85 155.41 138.25 154.45 138.46 L 153.50 138.68 C 152.55 138.89 151.94 139.84 152.16 140.80 C 152.37 141.75 153.32 142.36 154.28 142.14 Z M 155.05 141.97 L 156.16 141.84 C 157.14 141.72 157.83 140.83 157.72 139.85 C 157.60 138.87 156.71 138.18 155.73 138.29 L 154.63 138.43 C 153.65 138.55 152.95 139.43 153.07 140.41 C 153.19 141.39 154.07 142.09 155.05 141.97 Z M 155.51 141.82 L 156.37 142.03 C 157.34 142.27 158.32 141.68 158.56 140.71 C 158.79 139.74 158.20 138.76 157.24 138.53 L 156.38 138.31 C 155.41 138.07 154.43 138.66 154.19 139.63 C 153.95 140.60 154.54 141.58 155.51 141.82 Z M 155.13 140.97 L 155.43 141.70 C 155.81 142.62 156.87 143.06 157.80 142.68 C 158.73 142.29 159.16 141.23 158.78 140.30 L 158.48 139.58 C 158.09 138.65 157.03 138.22 156.11 138.60 C 155.18 138.99 154.74 140.05 155.13 140.97 Z M 155.31 140.77 L 155.17 141.82 C 155.04 142.81 155.74 143.72 156.73 143.85 C 157.72 143.98 158.63 143.28 158.76 142.29 L 158.90 141.23 C 159.03 140.24 158.33 139.33 157.34 139.20 C 156.35 139.07 155.44 139.77 155.31 140.77 Z M 155.27 141.46 L 154.93 142.41 C 154.60 143.35 155.10 144.37 156.03 144.70 C 156.97 145.03 158.00 144.54 158.33 143.60 L 158.67 142.65 C 159.00 141.71 158.50 140.68 157.56 140.35 C 156.62 140.02 155.60 140.52 155.27 141.46 Z M 155.03 142.20 L 154.61 143.05 C 154.17 143.93 154.52 145.00 155.41 145.45 C 156.29 145.89 157.36 145.53 157.81 144.65 L 158.23 143.81 C 158.67 142.92 158.32 141.85 157.43 141.41 C 156.55 140.96 155.48 141.32 155.03 142.20 Z M 154.69 142.93 L 154.14 143.84 C 153.63 144.68 153.90 145.77 154.74 146.28 C 155.58 146.79 156.67 146.52 157.18 145.68 L 157.73 144.76 C 158.23 143.92 157.96 142.83 157.12 142.33 C 156.28 141.82 155.19 142.09 154.69 142.93 Z M 154.18 143.80 L 153.63 144.65 C 153.10 145.46 153.33 146.56 154.15 147.09 C 154.96 147.62 156.05 147.38 156.58 146.57 L 157.14 145.72 C 157.67 144.90 157.43 143.81 156.62 143.28 C 155.80 142.75 154.71 142.98 154.18 143.80 Z M 153.66 144.63 L 153.09 145.47 C 152.56 146.27 152.77 147.36 153.57 147.90 C 154.37 148.44 155.46 148.22 156.00 147.42 L 156.56 146.58 C 157.10 145.78 156.88 144.70 156.08 144.16 C 155.28 143.62 154.19 143.83 153.66 144.63 Z M 153.12 145.46 L 152.53 146.31 C 151.99 147.10 152.19 148.18 152.98 148.73 C 153.77 149.27 154.85 149.07 155.39 148.28 L 155.97 147.43 C 156.52 146.64 156.32 145.56 155.53 145.02 C 154.74 144.47 153.66 144.67 153.12 145.46 Z M 152.55 146.31 L 151.98 147.12 C 151.43 147.90 151.61 148.98 152.39 149.52 C 153.17 150.07 154.24 149.88 154.79 149.11 L 155.37 148.29 C 155.91 147.51 155.73 146.44 154.95 145.89 C 154.17 145.34 153.10 145.53 152.55 146.31 Z M 152.00 147.11 L 151.39 147.96 C 150.84 148.72 151.01 149.79 151.77 150.34 C 152.53 150.89 153.60 150.72 154.15 149.96 L 154.76 149.12 C 155.32 148.36 155.15 147.29 154.39 146.73 C 153.62 146.18 152.55 146.35 152.00 147.11 Z M 151.42 147.94 L 150.83 148.72 C 150.26 149.47 150.41 150.53 151.15 151.09 C 151.90 151.66 152.96 151.51 153.52 150.77 L 154.12 149.98 C 154.68 149.24 154.54 148.18 153.79 147.61 C 153.05 147.05 151.99 147.19 151.42 147.94 Z M 150.87 148.69 L 150.26 149.45 C 149.68 150.17 149.79 151.23 150.52 151.81 C 151.24 152.39 152.29 152.27 152.87 151.55 L 153.48 150.80 C 154.06 150.07 153.95 149.02 153.23 148.44 C 152.50 147.86 151.45 147.97 150.87 148.69 Z M 150.30 149.42 L 149.67 150.17 C 149.07 150.87 149.15 151.91 149.85 152.51 C 150.55 153.11 151.60 153.02 152.20 152.33 L 152.83 151.58 C 153.43 150.88 153.34 149.83 152.65 149.24 C 151.95 148.64 150.90 148.72 150.30 149.42 Z M 149.70 150.14 L 149.03 150.88 C 148.42 151.56 148.48 152.61 149.16 153.22 C 149.84 153.83 150.88 153.77 151.49 153.09 L 152.16 152.35 C 152.77 151.67 152.71 150.63 152.04 150.02 C 151.36 149.41 150.31 149.46 149.70 150.14 Z M 149.07 150.86 L 148.37 151.60 C 147.75 152.25 147.78 153.29 148.43 153.92 C 149.09 154.54 150.13 154.51 150.75 153.85 L 151.45 153.12 C 152.08 152.46 152.05 151.42 151.39 150.80 C 150.73 150.17 149.70 150.20 149.07 150.86 Z M 148.41 151.57 L 147.70 152.28 C 147.07 152.91 147.06 153.95 147.70 154.58 C 148.33 155.22 149.37 155.22 150.00 154.59 L 150.71 153.88 C 151.35 153.24 151.35 152.21 150.72 151.58 C 150.08 150.94 149.05 150.94 148.41 151.57 Z M 147.75 152.24 L 146.95 152.98 C 146.29 153.59 146.26 154.62 146.87 155.28 C 147.48 155.94 148.51 155.97 149.16 155.36 L 149.96 154.63 C 150.62 154.01 150.66 152.99 150.05 152.33 C 149.43 151.67 148.41 151.63 147.75 152.24 Z M 147.01 152.93 L 146.24 153.58 C 145.55 154.16 145.46 155.18 146.04 155.87 C 146.62 156.56 147.64 156.65 148.33 156.07 L 149.10 155.42 C 149.79 154.84 149.88 153.81 149.30 153.12 C 148.72 152.44 147.70 152.35 147.01 152.93 Z M 146.32 153.51 L 145.58 154.06 C 144.86 154.59 144.70 155.61 145.23 156.33 C 145.77 157.06 146.78 157.21 147.51 156.68 L 148.25 156.13 C 148.97 155.60 149.13 154.58 148.60 153.86 C 148.06 153.13 147.04 152.98 146.32 153.51 Z M 145.73 153.92 L 144.61 154.55 C 143.81 155.00 143.53 156.01 143.98 156.81 C 144.43 157.61 145.44 157.90 146.24 157.44 L 147.36 156.82 C 148.16 156.37 148.44 155.35 147.99 154.55 C 147.54 153.75 146.53 153.47 145.73 153.92 Z M 145.34 154.26 L 144.91 154.28 C 143.95 154.33 143.21 155.15 143.26 156.10 C 143.31 157.06 144.12 157.80 145.08 157.75 L 145.52 157.73 C 146.47 157.68 147.21 156.86 147.16 155.91 C 147.11 154.95 146.30 154.21 145.34 154.26 Z M 146.24 157.32 L 146.93 156.66 C 147.65 155.98 147.68 154.83 146.99 154.11 C 146.30 153.39 145.16 153.37 144.44 154.05 L 143.75 154.71 C 143.03 155.40 143.00 156.54 143.69 157.26 C 144.38 157.98 145.52 158.01 146.24 157.32 Z M 146.62 156.95 L 147.55 156.40 C 148.43 155.88 148.72 154.75 148.20 153.87 C 147.68 152.99 146.55 152.70 145.67 153.22 L 144.74 153.77 C 143.87 154.29 143.58 155.42 144.10 156.30 C 144.61 157.18 145.75 157.47 146.62 156.95 Z M 147.31 156.53 L 148.19 156.17 C 149.14 155.78 149.60 154.70 149.21 153.75 C 148.82 152.80 147.74 152.34 146.79 152.73 L 145.91 153.09 C 144.96 153.48 144.50 154.56 144.89 155.51 C 145.28 156.46 146.36 156.92 147.31 156.53 Z M 148.05 156.22 L 149.11 155.89 C 150.08 155.58 150.63 154.54 150.32 153.56 C 150.01 152.58 148.97 152.04 147.99 152.35 L 146.94 152.68 C 145.96 152.99 145.42 154.03 145.72 155.01 C 146.03 155.98 147.07 156.53 148.05 156.22 Z M 149.04 155.90 L 149.93 155.65 C 150.92 155.38 151.50 154.37 151.23 153.38 C 150.96 152.40 149.94 151.82 148.96 152.09 L 148.06 152.34 C 147.08 152.61 146.50 153.62 146.77 154.60 C 147.04 155.59 148.05 156.16 149.04 155.90 Z M 149.90 155.63 L 150.85 155.39 C 151.83 155.14 152.42 154.15 152.17 153.18 C 151.92 152.20 150.93 151.62 149.95 151.86 L 149.00 152.11 C 148.02 152.36 147.44 153.35 147.69 154.32 C 147.93 155.29 148.92 155.88 149.90 155.63 Z M 150.83 155.37 L 151.84 155.12 C 152.80 154.89 153.39 153.92 153.16 152.95 C 152.92 151.99 151.95 151.40 150.99 151.64 L 149.98 151.88 C 149.01 152.12 148.43 153.09 148.66 154.05 C 148.90 155.02 149.87 155.61 150.83 155.37 Z M 151.83 155.10 L 152.76 154.88 C 153.71 154.65 154.29 153.69 154.06 152.74 C 153.83 151.79 152.88 151.21 151.93 151.44 L 151.00 151.66 C 150.05 151.89 149.46 152.84 149.69 153.79 C 149.92 154.74 150.88 155.33 151.83 155.10 Z"
      fill="black"
      fill-rule="nonzero" /><path d="M 142.42 156.73 L 141.29 156.77 C 140.32 156.81 139.57 157.63 139.61 158.60 C 139.65 159.57 140.47 160.32 141.44 160.28 L 142.56 160.24 C 143.53 160.20 144.29 159.38 144.25 158.41 C 144.21 157.44 143.39 156.69 142.42 156.73 Z M 140.67 156.86 L 139.90 157.18 C 138.98 157.56 138.55 158.62 138.93 159.54 C 139.32 160.46 140.37 160.90 141.30 160.51 L 142.06 160.19 C 142.98 159.81 143.42 158.75 143.03 157.83 C 142.65 156.91 141.59 156.48 140.67 156.86 Z M 138.80 158.46 L 138.66 159.14 C 138.45 160.13 139.08 161.11 140.07 161.32 C 141.06 161.53 142.04 160.90 142.25 159.90 L 142.40 159.23 C 142.61 158.24 141.97 157.26 140.98 157.05 C 139.99 156.84 139.01 157.47 138.80 158.46 Z M 138.70 160.10 L 139.06 161.18 C 139.38 162.15 140.42 162.67 141.39 162.35 C 142.36 162.03 142.89 160.99 142.57 160.02 L 142.21 158.94 C 141.89 157.97 140.84 157.45 139.87 157.77 C 138.90 158.09 138.38 159.13 138.70 160.10 Z M 139.17 161.47 L 139.67 162.40 C 140.15 163.31 141.28 163.65 142.18 163.17 C 143.09 162.68 143.43 161.56 142.94 160.66 L 142.45 159.73 C 141.97 158.82 140.84 158.48 139.94 158.96 C 139.03 159.44 138.69 160.57 139.17 161.47 Z M 139.73 162.50 L 140.23 163.33 C 140.77 164.20 141.91 164.47 142.79 163.94 C 143.66 163.40 143.93 162.26 143.40 161.38 L 142.89 160.56 C 142.35 159.68 141.21 159.41 140.34 159.95 C 139.46 160.48 139.19 161.63 139.73 162.50 Z M 140.27 163.38 L 140.84 164.24 C 141.40 165.10 142.55 165.33 143.41 164.77 C 144.26 164.21 144.50 163.06 143.94 162.20 L 143.36 161.33 C 142.80 160.48 141.65 160.24 140.79 160.80 C 139.94 161.37 139.70 162.52 140.27 163.38 Z M 140.86 164.27 L 141.46 165.15 C 142.04 165.99 143.20 166.20 144.04 165.62 C 144.88 165.04 145.10 163.88 144.51 163.04 L 143.91 162.17 C 143.33 161.32 142.18 161.11 141.33 161.69 C 140.49 162.28 140.28 163.43 140.86 164.27 Z M 141.48 165.17 L 142.10 166.04 C 142.69 166.88 143.85 167.07 144.68 166.48 C 145.52 165.88 145.71 164.73 145.12 163.89 L 144.50 163.02 C 143.91 162.18 142.75 161.99 141.91 162.58 C 141.08 163.17 140.88 164.33 141.48 165.17 Z M 142.11 166.06 L 142.77 166.96 C 143.37 167.79 144.53 167.97 145.36 167.37 C 146.19 166.76 146.37 165.60 145.76 164.77 L 145.11 163.87 C 144.50 163.04 143.34 162.86 142.52 163.47 C 141.69 164.07 141.51 165.23 142.11 166.06 Z M 142.78 166.99 L 143.39 167.79 C 144.01 168.61 145.18 168.78 145.99 168.16 C 146.81 167.54 146.98 166.37 146.36 165.56 L 145.75 164.75 C 145.13 163.93 143.97 163.77 143.15 164.38 C 142.33 165.00 142.16 166.17 142.78 166.99 Z M 143.42 167.83 L 143.98 168.54 C 144.62 169.35 145.78 169.49 146.59 168.85 C 147.40 168.21 147.54 167.04 146.90 166.24 L 146.34 165.52 C 145.70 164.72 144.53 164.58 143.72 165.21 C 142.92 165.85 142.78 167.02 143.42 167.83 Z M 144.02 168.59 L 144.65 169.34 C 145.32 170.13 146.49 170.23 147.27 169.57 C 148.06 168.90 148.16 167.73 147.50 166.94 L 146.86 166.19 C 146.20 165.41 145.03 165.31 144.24 165.97 C 143.46 166.63 143.36 167.80 144.02 168.59 Z M 144.71 169.40 L 145.40 170.14 C 146.09 170.90 147.26 170.95 148.02 170.25 C 148.77 169.56 148.82 168.39 148.13 167.63 L 147.44 166.89 C 146.75 166.13 145.57 166.09 144.82 166.78 C 144.07 167.47 144.02 168.64 144.71 169.40 Z M 145.44 170.18 L 146.09 170.84 C 146.80 171.57 147.97 171.58 148.70 170.86 C 149.42 170.15 149.44 168.98 148.72 168.25 L 148.08 167.60 C 147.37 166.87 146.20 166.86 145.47 167.57 C 144.74 168.28 144.73 169.45 145.44 170.18 Z"
      fill="black"
      fill-rule="nonzero" /><path d="M 154.81 154.90 L 154.56 155.85 C 154.31 156.80 154.88 157.77 155.83 158.02 C 156.78 158.26 157.75 157.69 157.99 156.75 L 158.24 155.79 C 158.49 154.84 157.92 153.87 156.97 153.63 C 156.02 153.38 155.05 153.95 154.81 154.90 Z M 154.53 155.75 L 154.23 156.70 C 153.92 157.66 154.46 158.69 155.42 159.00 C 156.38 159.30 157.41 158.77 157.72 157.81 L 158.02 156.85 C 158.32 155.89 157.79 154.86 156.83 154.56 C 155.87 154.25 154.84 154.78 154.53 155.75 Z M 154.26 156.52 L 153.88 157.41 C 153.47 158.36 153.92 159.46 154.86 159.86 C 155.81 160.26 156.91 159.82 157.31 158.87 L 157.69 157.99 C 158.09 157.04 157.65 155.94 156.70 155.54 C 155.76 155.13 154.66 155.58 154.26 156.52 Z M 153.93 157.28 L 153.48 158.14 C 153.00 159.06 153.36 160.19 154.28 160.67 C 155.19 161.15 156.33 160.80 156.81 159.88 L 157.26 159.01 C 157.74 158.09 157.38 156.96 156.46 156.48 C 155.54 156.00 154.41 156.36 153.93 157.28 Z M 153.51 158.09 L 152.99 159.01 C 152.49 159.91 152.81 161.06 153.71 161.56 C 154.61 162.07 155.75 161.75 156.26 160.85 L 156.78 159.93 C 157.28 159.03 156.96 157.88 156.06 157.38 C 155.16 156.87 154.02 157.19 153.51 158.09 Z M 153.00 159.02 L 152.57 159.78 C 152.06 160.68 152.38 161.82 153.28 162.32 C 154.18 162.83 155.32 162.51 155.83 161.61 L 156.25 160.84 C 156.76 159.94 156.44 158.81 155.54 158.30 C 154.64 157.80 153.50 158.12 153.00 159.02 Z M 152.57 159.79 L 152.11 160.61 C 151.61 161.51 151.94 162.64 152.83 163.14 C 153.73 163.64 154.86 163.32 155.36 162.42 L 155.82 161.60 C 156.32 160.70 156.00 159.57 155.10 159.07 C 154.21 158.57 153.07 158.89 152.57 159.79 Z M 152.12 160.61 L 151.61 161.54 C 151.11 162.43 151.43 163.56 152.32 164.06 C 153.21 164.56 154.34 164.24 154.84 163.34 L 155.36 162.42 C 155.86 161.53 155.54 160.40 154.64 159.90 C 153.75 159.40 152.62 159.72 152.12 160.61 Z M 151.62 161.54 L 151.07 162.51 C 150.57 163.39 150.88 164.52 151.77 165.02 C 152.65 165.52 153.78 165.21 154.28 164.32 L 154.83 163.35 C 155.33 162.46 155.01 161.34 154.13 160.84 C 153.24 160.34 152.12 160.65 151.62 161.54 Z M 151.08 162.51 L 150.59 163.37 C 150.09 164.25 150.40 165.37 151.27 165.87 C 152.15 166.37 153.27 166.06 153.77 165.19 L 154.26 164.32 C 154.76 163.44 154.46 162.32 153.58 161.82 C 152.70 161.32 151.58 161.63 151.08 162.51 Z M 150.61 163.37 L 150.09 164.28 C 149.59 165.14 149.89 166.25 150.76 166.75 C 151.62 167.25 152.73 166.96 153.23 166.09 L 153.75 165.19 C 154.25 164.32 153.95 163.21 153.09 162.71 C 152.22 162.21 151.11 162.51 150.61 163.37 Z M 150.11 164.27 L 149.58 165.17 C 149.08 166.03 149.37 167.13 150.23 167.63 C 151.09 168.13 152.20 167.84 152.70 166.98 L 153.22 166.09 C 153.72 165.23 153.43 164.13 152.57 163.62 C 151.71 163.12 150.61 163.41 150.11 164.27 Z M 149.60 165.17 L 149.10 166.02 C 148.60 166.86 148.88 167.96 149.73 168.46 C 150.58 168.96 151.67 168.68 152.17 167.83 L 152.68 166.98 C 153.18 166.14 152.90 165.04 152.05 164.54 C 151.20 164.04 150.11 164.32 149.60 165.17 Z M 149.13 166.01 L 148.58 166.92 C 148.08 167.75 148.34 168.83 149.18 169.34 C 150.01 169.84 151.09 169.57 151.60 168.74 L 152.14 167.84 C 152.65 167.01 152.38 165.92 151.55 165.42 C 150.72 164.91 149.64 165.18 149.13 166.01 Z M 148.64 166.92 L 148.06 167.83 C 147.56 168.63 147.80 169.69 148.60 170.19 C 149.41 170.70 150.47 170.46 150.97 169.65 L 151.54 168.74 C 152.05 167.94 151.81 166.88 151.00 166.38 C 150.20 165.87 149.14 166.11 148.64 166.92 Z M 148.12 167.84 L 147.61 168.62 C 147.11 169.39 147.33 170.42 148.10 170.92 C 148.87 171.42 149.90 171.20 150.40 170.43 L 150.91 169.65 C 151.41 168.88 151.19 167.85 150.42 167.35 C 149.65 166.85 148.62 167.07 148.12 167.84 Z M 147.67 168.64 L 147.21 169.32 C 146.72 170.06 146.92 171.06 147.66 171.55 C 148.40 172.04 149.40 171.84 149.89 171.10 L 150.34 170.42 C 150.83 169.68 150.63 168.68 149.89 168.19 C 149.15 167.70 148.16 167.90 147.67 168.64 Z"
      fill="black"
      fill-rule="nonzero" /><path d="M 124.15 181.57 L 124.64 180.83 C 125.20 179.97 124.96 178.82 124.10 178.26 C 123.25 177.69 122.10 177.93 121.53 178.79 L 121.05 179.53 C 120.48 180.39 120.72 181.54 121.58 182.10 C 122.44 182.67 123.59 182.43 124.15 181.57 Z M 124.52 181.11 L 125.18 180.38 C 125.90 179.59 125.84 178.37 125.05 177.65 C 124.26 176.93 123.04 176.99 122.32 177.78 L 121.65 178.51 C 120.94 179.30 120.99 180.52 121.78 181.24 C 122.57 181.96 123.80 181.90 124.52 181.11 Z M 124.90 180.72 L 125.78 180.10 C 126.68 179.46 126.90 178.21 126.26 177.31 C 125.62 176.40 124.37 176.19 123.47 176.83 L 122.59 177.45 C 121.69 178.09 121.47 179.34 122.11 180.24 C 122.75 181.14 124.00 181.36 124.90 180.72 Z M 125.55 180.28 L 126.38 179.85 C 127.38 179.34 127.78 178.11 127.27 177.11 C 126.76 176.11 125.53 175.71 124.53 176.22 L 123.70 176.65 C 122.70 177.16 122.30 178.39 122.81 179.39 C 123.32 180.39 124.55 180.79 125.55 180.28 Z M 126.26 179.92 L 127.20 179.52 C 128.24 179.08 128.73 177.87 128.28 176.83 C 127.84 175.79 126.64 175.31 125.60 175.75 L 124.66 176.15 C 123.61 176.60 123.13 177.80 123.57 178.84 C 124.02 179.88 125.22 180.36 126.26 179.92 Z M 127.13 179.56 L 128.11 179.19 C 129.18 178.79 129.71 177.60 129.31 176.54 C 128.91 175.47 127.73 174.94 126.66 175.34 L 125.67 175.71 C 124.61 176.11 124.07 177.30 124.47 178.36 C 124.88 179.42 126.06 179.96 127.13 179.56 Z M 128.07 179.21 L 129.05 178.87 C 130.13 178.49 130.70 177.31 130.32 176.24 C 129.94 175.16 128.76 174.59 127.69 174.97 L 126.71 175.31 C 125.63 175.69 125.06 176.87 125.44 177.94 C 125.81 179.02 126.99 179.59 128.07 179.21 Z M 129.03 178.88 L 130.04 178.55 C 131.12 178.18 131.71 177.01 131.34 175.92 C 130.98 174.84 129.81 174.25 128.72 174.62 L 127.71 174.95 C 126.63 175.32 126.04 176.49 126.40 177.58 C 126.77 178.66 127.94 179.25 129.03 178.88 Z M 130.02 178.55 L 130.97 178.25 C 132.06 177.89 132.65 176.72 132.30 175.63 C 131.94 174.54 130.77 173.95 129.69 174.30 L 128.74 174.61 C 127.65 174.96 127.05 176.13 127.41 177.22 C 127.76 178.31 128.93 178.91 130.02 178.55 Z M 130.96 178.25 L 131.87 177.96 C 132.96 177.61 133.56 176.44 133.21 175.35 C 132.87 174.26 131.70 173.66 130.61 174.01 L 129.69 174.30 C 128.60 174.65 128.00 175.81 128.35 176.91 C 128.70 178.00 129.87 178.60 130.96 178.25 Z M 131.87 177.96 L 132.78 177.67 C 133.87 177.32 134.47 176.15 134.12 175.06 C 133.77 173.97 132.61 173.36 131.51 173.71 L 130.61 174.01 C 129.51 174.36 128.91 175.52 129.26 176.62 C 129.61 177.71 130.78 178.31 131.87 177.96 Z M 132.79 177.66 L 133.71 177.36 C 134.81 177.01 135.40 175.84 135.05 174.75 C 134.70 173.66 133.53 173.06 132.44 173.42 L 131.51 173.72 C 130.42 174.07 129.82 175.24 130.17 176.33 C 130.53 177.42 131.70 178.02 132.79 177.66 Z M 133.72 177.36 L 134.66 177.06 C 135.75 176.70 136.35 175.53 136.00 174.44 C 135.64 173.35 134.47 172.75 133.38 173.11 L 132.43 173.42 C 131.34 173.77 130.75 174.94 131.10 176.03 C 131.45 177.12 132.62 177.72 133.72 177.36 Z M 134.66 177.06 L 135.63 176.75 C 136.73 176.40 137.33 175.23 136.98 174.13 C 136.63 173.04 135.46 172.44 134.36 172.79 L 133.39 173.11 C 132.30 173.46 131.70 174.63 132.05 175.72 C 132.40 176.81 133.57 177.41 134.66 177.06 Z M 135.62 176.75 L 136.57 176.45 C 137.66 176.11 138.27 174.94 137.92 173.85 C 137.58 172.75 136.41 172.15 135.32 172.49 L 134.38 172.79 C 133.28 173.13 132.67 174.30 133.02 175.39 C 133.36 176.49 134.53 177.09 135.62 176.75 Z M 136.56 176.46 L 137.49 176.17 C 138.59 175.83 139.20 174.67 138.86 173.57 C 138.52 172.47 137.36 171.86 136.26 172.20 L 135.33 172.49 C 134.23 172.83 133.62 173.99 133.96 175.08 C 134.30 176.18 135.46 176.79 136.56 176.46 Z M 137.48 176.17 L 138.44 175.88 C 139.54 175.55 140.16 174.39 139.82 173.29 C 139.49 172.19 138.33 171.57 137.23 171.90 L 136.27 172.20 C 135.18 172.53 134.56 173.69 134.89 174.79 C 135.22 175.88 136.38 176.50 137.48 176.17 Z M 138.43 175.88 L 139.41 175.59 C 140.51 175.26 141.14 174.11 140.81 173.01 C 140.48 171.91 139.33 171.28 138.23 171.61 L 137.24 171.90 C 136.14 172.23 135.52 173.39 135.85 174.49 C 136.17 175.58 137.33 176.21 138.43 175.88 Z M 139.40 175.59 L 140.37 175.31 C 141.47 174.99 142.10 173.83 141.78 172.73 C 141.46 171.63 140.30 171.00 139.20 171.32 L 138.24 171.61 C 137.13 171.93 136.50 173.08 136.83 174.18 C 137.15 175.28 138.30 175.92 139.40 175.59 Z M 140.36 175.31 L 141.31 175.04 C 142.41 174.72 143.04 173.57 142.72 172.47 C 142.41 171.36 141.25 170.73 140.15 171.05 L 139.21 171.32 C 138.11 171.64 137.47 172.79 137.79 173.89 C 138.11 175.00 139.26 175.63 140.36 175.31 Z M 141.30 175.04 L 142.26 174.76 C 143.36 174.45 144.00 173.30 143.68 172.19 C 143.37 171.09 142.22 170.46 141.12 170.77 L 140.16 171.05 C 139.05 171.36 138.42 172.51 138.73 173.62 C 139.05 174.72 140.20 175.36 141.30 175.04 Z M 142.26 174.76 L 143.23 174.49 C 144.34 174.17 144.97 173.02 144.66 171.92 C 144.34 170.81 143.19 170.18 142.09 170.49 L 141.12 170.77 C 140.01 171.09 139.38 172.24 139.69 173.34 C 140.01 174.44 141.16 175.08 142.26 174.76 Z M 143.24 174.48 L 144.22 174.20 C 145.32 173.88 145.96 172.73 145.64 171.63 C 145.32 170.53 144.17 169.89 143.07 170.21 L 142.09 170.49 C 140.98 170.81 140.35 171.96 140.66 173.06 C 140.98 174.17 142.13 174.80 143.24 174.48 Z M 144.22 174.20 L 145.17 173.92 C 146.28 173.61 146.91 172.45 146.59 171.35 C 146.27 170.25 145.12 169.62 144.02 169.94 L 143.07 170.21 C 141.96 170.53 141.33 171.68 141.65 172.78 C 141.97 173.89 143.12 174.52 144.22 174.20 Z M 145.17 173.92 L 146.13 173.65 C 147.23 173.33 147.87 172.18 147.55 171.08 C 147.23 169.97 146.08 169.34 144.98 169.66 L 144.02 169.94 C 142.92 170.25 142.28 171.41 142.60 172.51 C 142.92 173.61 144.07 174.24 145.17 173.92 Z M 146.13 173.65 L 147.09 173.37 C 148.19 173.06 148.83 171.91 148.51 170.80 C 148.20 169.70 147.05 169.06 145.95 169.38 L 144.98 169.66 C 143.88 169.97 143.24 171.12 143.56 172.22 C 143.88 173.33 145.03 173.96 146.13 173.65 Z M 147.08 173.37 L 148.05 173.10 C 149.15 172.79 149.79 171.65 149.48 170.54 C 149.17 169.44 148.03 168.80 146.92 169.11 L 145.96 169.38 C 144.85 169.69 144.21 170.83 144.52 171.94 C 144.83 173.04 145.98 173.68 147.08 173.37 Z M 148.03 173.11 L 149.00 172.84 C 150.10 172.54 150.76 171.40 150.45 170.29 C 150.15 169.19 149.01 168.54 147.91 168.84 L 146.94 169.10 C 145.83 169.40 145.18 170.55 145.48 171.65 C 145.79 172.76 146.93 173.41 148.03 173.11 Z M 148.98 172.85 L 149.94 172.59 C 151.05 172.30 151.71 171.16 151.42 170.06 C 151.13 168.95 149.99 168.29 148.88 168.58 L 147.92 168.83 C 146.82 169.13 146.15 170.26 146.45 171.37 C 146.74 172.48 147.87 173.14 148.98 172.85 Z M 149.93 172.60 L 150.89 172.35 C 152.00 172.07 152.67 170.94 152.39 169.83 C 152.10 168.72 150.97 168.05 149.86 168.33 L 148.90 168.58 C 147.79 168.86 147.12 169.99 147.40 171.10 C 147.69 172.21 148.82 172.88 149.93 172.60 Z M 150.87 172.35 L 151.84 172.11 C 152.96 171.84 153.64 170.72 153.36 169.60 C 153.09 168.49 151.96 167.81 150.85 168.09 L 149.88 168.33 C 148.77 168.60 148.09 169.73 148.36 170.84 C 148.64 171.95 149.76 172.63 150.87 172.35 Z M 151.83 172.12 L 152.81 171.88 C 153.92 171.62 154.61 170.50 154.34 169.38 C 154.08 168.27 152.96 167.58 151.84 167.85 L 150.87 168.08 C 149.75 168.35 149.07 169.47 149.33 170.58 C 149.60 171.70 150.72 172.38 151.83 172.12 Z M 152.80 171.88 L 153.79 171.65 C 154.90 171.39 155.60 170.28 155.34 169.17 C 155.08 168.05 153.96 167.36 152.85 167.62 L 151.86 167.85 C 150.74 168.11 150.05 169.22 150.31 170.34 C 150.57 171.45 151.68 172.14 152.80 171.88 Z M 153.77 171.65 L 154.77 171.43 C 155.89 171.18 156.59 170.07 156.33 168.95 C 156.08 167.84 154.97 167.14 153.86 167.39 L 152.86 167.62 C 151.75 167.87 151.05 168.98 151.30 170.09 C 151.55 171.21 152.66 171.91 153.77 171.65 Z M 154.76 171.43 L 155.75 171.21 C 156.87 170.97 157.57 169.87 157.33 168.75 C 157.08 167.63 155.98 166.93 154.87 167.17 L 153.87 167.39 C 152.76 167.63 152.05 168.74 152.30 169.85 C 152.54 170.97 153.64 171.67 154.76 171.43 Z M 155.73 171.21 L 156.71 171.01 C 157.83 170.77 158.54 169.68 158.30 168.56 C 158.07 167.44 156.97 166.73 155.86 166.97 L 154.88 167.17 C 153.76 167.41 153.05 168.50 153.29 169.62 C 153.52 170.74 154.62 171.45 155.73 171.21 Z M 156.69 171.01 L 157.64 170.82 C 158.75 170.59 159.48 169.50 159.25 168.39 C 159.03 167.27 157.94 166.55 156.82 166.77 L 155.87 166.96 C 154.76 167.19 154.03 168.28 154.26 169.40 C 154.48 170.51 155.57 171.24 156.69 171.01 Z M 157.62 170.82 L 158.64 170.63 C 159.76 170.41 160.50 169.33 160.28 168.21 C 160.07 167.09 158.99 166.36 157.87 166.57 L 156.84 166.77 C 155.72 166.98 154.99 168.06 155.20 169.18 C 155.42 170.30 156.50 171.04 157.62 170.82 Z M 158.62 170.63 L 159.63 170.45 C 160.75 170.24 161.49 169.17 161.29 168.05 C 161.09 166.93 160.02 166.19 158.90 166.39 L 157.89 166.57 C 156.77 166.77 156.03 167.84 156.23 168.96 C 156.43 170.08 157.50 170.83 158.62 170.63 Z M 159.61 170.45 L 160.58 170.28 C 161.70 170.09 162.45 169.03 162.26 167.91 C 162.07 166.79 161.01 166.03 159.89 166.22 L 158.92 166.39 C 157.80 166.58 157.04 167.64 157.23 168.76 C 157.43 169.88 158.49 170.64 159.61 170.45 Z M 160.56 170.28 L 161.50 170.13 C 162.62 169.94 163.38 168.89 163.20 167.77 C 163.02 166.64 161.96 165.89 160.84 166.07 L 159.90 166.22 C 158.78 166.41 158.02 167.47 158.20 168.59 C 158.39 169.71 159.44 170.47 160.56 170.28 Z M 161.50 170.13 L 162.50 169.97 C 163.62 169.79 164.38 168.73 164.20 167.61 C 164.02 166.49 162.97 165.73 161.85 165.91 L 160.85 166.07 C 159.73 166.25 158.96 167.30 159.14 168.42 C 159.32 169.54 160.38 170.31 161.50 170.13 Z M 162.49 169.97 L 163.49 169.81 C 164.61 169.64 165.38 168.59 165.20 167.47 C 165.03 166.35 163.98 165.58 162.86 165.75 L 161.86 165.91 C 160.74 166.08 159.97 167.13 160.14 168.25 C 160.32 169.37 161.37 170.14 162.49 169.97 Z M 163.47 169.81 L 164.45 169.67 C 165.57 169.50 166.35 168.46 166.18 167.34 C 166.02 166.22 164.98 165.45 163.86 165.61 L 162.88 165.75 C 161.76 165.92 160.98 166.96 161.15 168.08 C 161.31 169.20 162.35 169.98 163.47 169.81 Z M 164.43 169.67 L 165.39 169.54 C 166.51 169.39 167.30 168.36 167.15 167.24 C 167.00 166.12 165.97 165.33 164.85 165.48 L 163.88 165.61 C 162.76 165.76 161.97 166.79 162.12 167.91 C 162.27 169.03 163.30 169.82 164.43 169.67 Z M 165.36 169.54 L 166.40 169.42 C 167.52 169.29 168.32 168.27 168.19 167.15 C 168.06 166.03 167.04 165.22 165.92 165.35 L 164.88 165.48 C 163.76 165.61 162.96 166.63 163.09 167.75 C 163.22 168.87 164.24 169.67 165.36 169.54 Z M 166.37 169.42 L 167.37 169.32 C 168.49 169.20 169.31 168.19 169.19 167.07 C 169.07 165.94 168.06 165.13 166.94 165.25 L 165.94 165.35 C 164.82 165.47 164.01 166.48 164.13 167.60 C 164.25 168.73 165.25 169.54 166.37 169.42 Z M 167.36 169.31 L 168.31 169.22 C 169.43 169.11 170.25 168.11 170.13 166.98 C 170.02 165.86 169.02 165.04 167.90 165.15 L 166.95 165.25 C 165.83 165.36 165.01 166.36 165.12 167.49 C 165.24 168.61 166.24 169.43 167.36 169.31 Z M 168.31 169.22 L 169.35 169.11 C 170.47 169.00 171.29 168.00 171.18 166.88 C 171.06 165.76 170.06 164.94 168.94 165.05 L 167.90 165.16 C 166.78 165.27 165.96 166.27 166.07 167.39 C 166.18 168.51 167.18 169.33 168.31 169.22 Z M 169.33 169.11 L 170.32 169.02 C 171.44 168.92 172.27 167.93 172.17 166.80 C 172.06 165.68 171.07 164.86 169.95 164.96 L 168.96 165.05 C 167.84 165.15 167.01 166.15 167.11 167.27 C 167.22 168.39 168.21 169.22 169.33 169.11 Z M 170.27 169.03 L 171.23 168.96 C 172.35 168.89 173.20 167.92 173.13 166.79 C 173.05 165.67 172.08 164.82 170.96 164.89 L 170.00 164.96 C 168.88 165.03 168.02 166.00 168.10 167.13 C 168.17 168.25 169.15 169.10 170.27 169.03 Z M 171.16 168.96 L 172.17 168.93 C 173.30 168.90 174.18 167.96 174.14 166.83 C 174.11 165.71 173.17 164.82 172.04 164.86 L 171.03 164.89 C 169.90 164.93 169.02 165.87 169.06 166.99 C 169.09 168.12 170.03 169.00 171.16 168.96 Z M 172.14 168.93 L 173.12 168.92 C 174.24 168.90 175.14 167.98 175.12 166.85 C 175.11 165.73 174.18 164.83 173.06 164.84 L 172.08 164.86 C 170.95 164.88 170.05 165.80 170.07 166.93 C 170.09 168.05 171.01 168.95 172.14 168.93 Z M 173.12 168.92 L 174.02 168.90 C 175.15 168.88 176.04 167.95 176.02 166.83 C 176.00 165.70 175.07 164.81 173.94 164.83 L 173.05 164.84 C 171.92 164.87 171.03 165.80 171.05 166.92 C 171.07 168.04 172.00 168.94 173.12 168.92 Z M 174.01 168.90 L 174.99 168.89 C 176.12 168.88 177.02 167.95 177.00 166.83 C 176.99 165.70 176.07 164.80 174.94 164.82 L 173.96 164.83 C 172.83 164.84 171.93 165.76 171.95 166.89 C 171.96 168.01 172.88 168.91 174.01 168.90 Z M 174.95 168.89 L 176.10 168.90 C 177.22 168.91 178.15 168.01 178.16 166.89 C 178.17 165.76 177.27 164.84 176.14 164.83 L 174.99 164.81 C 173.86 164.80 172.94 165.71 172.93 166.83 C 172.92 167.96 173.82 168.88 174.95 168.89 Z M 175.99 168.90 L 177.15 168.98 C 178.28 169.05 179.25 168.20 179.32 167.07 C 179.39 165.95 178.54 164.97 177.42 164.90 L 176.25 164.83 C 175.13 164.75 174.15 165.61 174.08 166.73 C 174.01 167.86 174.86 168.83 175.99 168.90 Z M 176.79 168.93 L 177.72 169.16 C 178.82 169.44 179.93 168.77 180.21 167.67 C 180.48 166.57 179.81 165.46 178.72 165.19 L 177.78 164.95 C 176.68 164.68 175.57 165.34 175.30 166.44 C 175.02 167.54 175.69 168.65 176.79 168.93 Z M 176.57 168.40 L 176.92 168.87 C 177.60 169.78 178.88 169.97 179.80 169.30 C 180.71 168.62 180.90 167.33 180.22 166.42 L 179.87 165.95 C 179.19 165.04 177.91 164.85 176.99 165.52 C 176.08 166.20 175.89 167.49 176.57 168.40 Z M 176.66 166.86 L 176.38 167.55 C 175.95 168.60 176.45 169.81 177.51 170.24 C 178.56 170.67 179.76 170.17 180.20 169.12 L 180.48 168.43 C 180.91 167.38 180.41 166.17 179.35 165.74 C 178.30 165.31 177.10 165.81 176.66 166.86 Z M 176.68 167.03 L 176.00 167.88 C 175.28 168.77 175.42 170.07 176.30 170.79 C 177.19 171.50 178.49 171.37 179.21 170.48 L 179.89 169.64 C 180.61 168.75 180.48 167.45 179.59 166.73 C 178.70 166.01 177.40 166.15 176.68 167.03 Z M 176.10 167.75 L 175.29 168.60 C 174.51 169.43 174.54 170.74 175.37 171.53 C 176.19 172.32 177.51 172.29 178.29 171.46 L 179.10 170.61 C 179.89 169.78 179.86 168.47 179.03 167.68 C 178.20 166.89 176.89 166.92 176.10 167.75 Z"
      fill="black"
      fill-rule="nonzero" /></svg>