<svg xmlns="http://www.w3.org/2000/svg" width="300" height="300" viewBox="0 0 300 300">
<path d="M 141.77 114.99 L 142.71 115.07 C 143.70 115.15 144.58 114.42 144.67 113.42 C 144.75 112.42 144.01 111.55 143.02 111.46 L 142.08 111.38 C 141.08 111.30 140.20 112.03 140.12 113.03 C 140.03 114.03 140.77 114.90 141.77 114.99 Z M 142.85 115.12 L 143.83 115.13 C 144.86 115.14 145.69 114.31 145.70 113.28 C 145.71 112.26 144.88 111.42 143.85 111.41 L 142.87 111.41 C 141.85 111.40 141.01 112.23 141.00 113.25 C 141.00 114.28 141.82 115.12 142.85 115.12 Z M 144.10 115.16 L 145.15 115.02 C 146.20 114.88 146.93 113.92 146.79 112.87 C 146.65 111.83 145.69 111.10 144.64 111.24 L 143.59 111.38 C 142.54 111.52 141.81 112.48 141.95 113.53 C 142.09 114.57 143.05 115.30 144.10 115.16 Z M 145.42 114.99 L 146.29 114.74 C 147.31 114.46 147.91 113.39 147.62 112.36 C 147.33 111.34 146.27 110.74 145.24 111.03 L 144.37 111.27 C 143.35 111.56 142.75 112.63 143.04 113.65 C 143.33 114.68 144.39 115.28 145.42 114.99 Z M 146.45 114.69 L 147.36 114.35 C 148.35 113.97 148.86 112.85 148.48 111.85 C 148.10 110.86 146.98 110.36 145.98 110.74 L 145.08 111.08 C 144.08 111.46 143.58 112.58 143.96 113.57 C 144.34 114.57 145.45 115.07 146.45 114.69 Z M 147.47 114.30 L 148.41 113.87 C 149.38 113.43 149.81 112.29 149.38 111.32 C 148.94 110.35 147.79 109.91 146.82 110.35 L 145.87 110.78 C 144.90 111.22 144.47 112.36 144.91 113.34 C 145.35 114.31 146.49 114.74 147.47 114.30 Z M 148.48 113.84 L 149.45 113.35 C 150.40 112.88 150.79 111.72 150.31 110.76 C 149.83 109.81 148.67 109.42 147.72 109.90 L 146.75 110.39 C 145.80 110.86 145.41 112.03 145.89 112.98 C 146.37 113.93 147.53 114.32 148.48 113.84 Z M 149.49 113.32 L 150.36 112.86 C 151.30 112.36 151.65 111.20 151.16 110.26 C 150.66 109.32 149.49 108.97 148.56 109.47 L 147.68 109.93 C 146.74 110.43 146.39 111.59 146.89 112.53 C 147.39 113.47 148.55 113.82 149.49 113.32 Z M 150.39 112.82 L 151.25 112.34 C 152.17 111.83 152.50 110.67 151.99 109.75 C 151.48 108.83 150.32 108.51 149.40 109.02 L 148.53 109.50 C 147.62 110.01 147.29 111.17 147.80 112.09 C 148.31 113.01 149.47 113.33 150.39 112.82 Z M 151.27 112.30 L 152.14 111.80 C 153.04 111.28 153.34 110.12 152.82 109.23 C 152.30 108.33 151.14 108.02 150.25 108.55 L 149.38 109.05 C 148.48 109.58 148.18 110.73 148.70 111.63 C 149.22 112.52 150.38 112.83 151.27 112.30 Z M 152.16 111.76 L 153.02 111.24 C 153.90 110.70 154.18 109.56 153.65 108.68 C 153.11 107.80 151.97 107.52 151.09 108.06 L 150.23 108.58 C 149.35 109.12 149.07 110.26 149.60 111.14 C 150.14 112.02 151.28 112.30 152.16 111.76 Z M 153.04 111.20 L 153.92 110.65 C 154.77 110.10 155.03 108.97 154.48 108.11 C 153.94 107.25 152.80 107.00 151.95 107.54 L 151.07 108.09 C 150.22 108.64 149.96 109.77 150.51 110.63 C 151.05 111.49 152.18 111.74 153.04 111.20 Z M 153.92 110.60 L 154.82 110.00 C 155.66 109.46 155.88 108.34 155.34 107.51 C 154.79 106.67 153.67 106.45 152.84 106.99 L 151.94 107.59 C 151.11 108.14 150.88 109.26 151.43 110.09 C 151.97 110.92 153.09 111.15 153.92 110.60 Z M 154.82 109.95 L 155.69 109.36 C 156.49 108.82 156.70 107.72 156.15 106.92 C 155.60 106.11 154.50 105.91 153.70 106.46 L 152.84 107.05 C 152.03 107.59 151.83 108.69 152.38 109.49 C 152.93 110.30 154.02 110.50 154.82 109.95 Z M 155.68 109.32 L 156.49 108.75 C 157.26 108.20 157.45 107.13 156.90 106.36 C 156.36 105.58 155.28 105.39 154.51 105.94 L 153.70 106.50 C 152.93 107.05 152.74 108.12 153.29 108.90 C 153.83 109.68 154.91 109.86 155.68 109.32 Z M 156.48 108.70 L 157.20 108.18 C 157.95 107.64 158.12 106.59 157.58 105.84 C 157.03 105.09 155.99 104.92 155.24 105.47 L 154.51 105.99 C 153.76 106.53 153.60 107.58 154.14 108.33 C 154.68 109.08 155.73 109.25 156.48 108.70 Z M 157.20 108.14 L 158.10 107.46 C 158.83 106.92 158.97 105.89 158.43 105.17 C 157.89 104.44 156.86 104.30 156.14 104.84 L 155.24 105.51 C 154.51 106.05 154.36 107.08 154.91 107.81 C 155.45 108.53 156.47 108.68 157.20 108.14 Z M 158.11 107.42 L 158.87 106.82 C 159.57 106.28 159.70 105.27 159.15 104.57 C 158.61 103.87 157.60 103.74 156.90 104.29 L 156.13 104.88 C 155.43 105.43 155.30 106.44 155.85 107.14 C 156.39 107.84 157.40 107.96 158.11 107.42 Z M 158.87 106.79 L 159.49 106.29 C 160.17 105.75 160.29 104.75 159.74 104.07 C 159.20 103.39 158.21 103.28 157.52 103.82 L 156.90 104.32 C 156.22 104.86 156.11 105.86 156.65 106.54 C 157.19 107.22 158.19 107.33 158.87 106.79 Z"
      fill="black"
      fill-rule="nonzero" /><path d="M 148.28 111.59 L 148.24 112.54 C 148.20 113.59 149.02 114.47 150.06 114.51 C 151.11 114.56 151.99 113.74 152.04 112.69 L 152.07 111.74 C 152.12 110.70 151.30 109.81 150.25 109.77 C 149.21 109.73 148.32 110.54 148.28 111.59 Z M 148.23 112.53 L 148.19 113.52 C 148.14 114.57 148.96 115.47 150.01 115.51 C 151.06 115.56 151.95 114.75 152.00 113.69 L 152.05 112.71 C 152.10 111.65 151.28 110.76 150.23 110.71 C 149.17 110.66 148.28 111.48 148.23 112.53 Z M 148.18 113.50 L 148.12 114.55 C 148.06 115.61 148.87 116.52 149.93 116.58 C 150.99 116.64 151.89 115.83 151.95 114.77 L 152.01 113.71 C 152.07 112.66 151.26 111.75 150.20 111.69 C 149.14 111.63 148.24 112.44 148.18 113.50 Z M 148.12 114.53 L 148.05 115.52 C 147.98 116.58 148.79 117.50 149.84 117.57 C 150.90 117.64 151.82 116.83 151.89 115.78 L 151.95 114.79 C 152.02 113.73 151.22 112.81 150.16 112.74 C 149.11 112.67 148.19 113.47 148.12 114.53 Z M 148.06 115.51 L 147.99 116.53 C 147.92 117.58 148.71 118.50 149.76 118.57 C 150.81 118.65 151.73 117.86 151.81 116.80 L 151.88 115.79 C 151.95 114.73 151.16 113.82 150.11 113.74 C 149.05 113.67 148.14 114.46 148.06 115.51 Z M 148.00 116.53 L 147.93 117.53 C 147.85 118.58 148.64 119.49 149.69 119.57 C 150.73 119.64 151.65 118.85 151.72 117.81 L 151.80 116.81 C 151.87 115.76 151.09 114.85 150.04 114.77 C 148.99 114.69 148.08 115.48 148.00 116.53 Z M 147.94 117.53 L 147.87 118.56 C 147.79 119.60 148.58 120.50 149.62 120.58 C 150.66 120.65 151.56 119.87 151.64 118.82 L 151.71 117.80 C 151.78 116.76 151.00 115.85 149.96 115.78 C 148.92 115.71 148.01 116.49 147.94 117.53 Z M 147.89 118.58 L 147.82 119.57 C 147.76 120.60 148.54 121.49 149.58 121.55 C 150.61 121.62 151.49 120.83 151.56 119.80 L 151.62 118.81 C 151.68 117.78 150.90 116.89 149.87 116.82 C 148.84 116.76 147.95 117.54 147.89 118.58 Z M 147.84 119.60 L 147.80 120.57 C 147.75 121.59 148.54 122.46 149.56 122.50 C 150.58 122.55 151.44 121.76 151.49 120.74 L 151.54 119.77 C 151.58 118.75 150.80 117.89 149.78 117.84 C 148.76 117.79 147.89 118.58 147.84 119.60 Z M 147.82 120.61 L 147.80 121.60 C 147.77 122.61 148.56 123.45 149.57 123.48 C 150.58 123.50 151.42 122.71 151.44 121.70 L 151.47 120.70 C 151.50 119.70 150.70 118.86 149.69 118.83 C 148.69 118.81 147.85 119.60 147.82 120.61 Z M 147.82 121.63 L 147.81 122.65 C 147.80 123.64 148.60 124.45 149.59 124.47 C 150.58 124.48 151.40 123.68 151.41 122.68 L 151.42 121.67 C 151.43 120.68 150.63 119.86 149.64 119.85 C 148.64 119.84 147.83 120.64 147.82 121.63 Z M 147.83 122.66 L 147.83 123.65 C 147.83 124.64 148.62 125.43 149.60 125.44 C 150.58 125.44 151.38 124.64 151.38 123.66 L 151.39 122.67 C 151.39 121.69 150.59 120.89 149.61 120.89 C 148.63 120.89 147.83 121.68 147.83 122.66 Z M 147.86 123.66 L 147.86 124.68 C 147.86 125.64 148.64 126.43 149.61 126.43 C 150.57 126.43 151.35 125.64 151.35 124.68 L 151.35 123.66 C 151.35 122.70 150.57 121.91 149.61 121.91 C 148.64 121.91 147.86 122.70 147.86 123.66 Z M 147.91 124.68 L 147.91 125.68 C 147.91 126.62 148.67 127.38 149.61 127.38 C 150.55 127.38 151.31 126.62 151.31 125.68 L 151.31 124.68 C 151.31 123.74 150.55 122.98 149.61 122.98 C 148.67 122.98 147.91 123.74 147.91 124.68 Z M 147.95 125.68 L 147.95 126.56 C 147.95 127.48 148.69 128.22 149.61 128.22 C 150.52 128.22 151.26 127.48 151.26 126.56 L 151.26 125.68 C 151.26 124.76 150.52 124.02 149.61 124.02 C 148.69 124.02 147.95 124.76 147.95 125.68 Z"
      fill="black"
      fill-rule="nonzero" /><path d="M 128.93 130.54 L 128.08 131.47 C 127.40 132.21 127.46 133.36 128.20 134.03 C 128.93 134.70 130.08 134.65 130.75 133.91 L 131.61 132.98 C 132.28 132.24 132.23 131.09 131.49 130.42 C 130.75 129.74 129.60 129.80 128.93 130.54 Z M 127.76 131.69 L 127.33 132.39 C 126.77 133.31 127.07 134.50 127.98 135.06 C 128.90 135.61 130.09 135.32 130.65 134.40 L 131.07 133.69 C 131.63 132.78 131.34 131.59 130.42 131.03 C 129.50 130.48 128.31 130.77 127.76 131.69 Z M 127.58 134.86 L 127.86 135.13 C 128.67 135.90 129.95 135.88 130.73 135.07 C 131.50 134.27 131.48 132.98 130.67 132.21 L 130.39 131.94 C 129.58 131.16 128.30 131.19 127.53 131.99 C 126.75 132.80 126.78 134.08 127.58 134.86 Z M 129.40 135.72 L 130.30 135.66 C 131.43 135.59 132.29 134.61 132.22 133.48 C 132.15 132.35 131.17 131.49 130.04 131.56 L 129.14 131.62 C 128.00 131.69 127.14 132.67 127.21 133.80 C 127.29 134.93 128.26 135.79 129.40 135.72 Z M 130.58 135.64 L 132.03 135.34 C 133.15 135.11 133.87 134.02 133.64 132.90 C 133.40 131.77 132.31 131.05 131.19 131.28 L 129.75 131.58 C 128.63 131.81 127.90 132.91 128.14 134.03 C 128.37 135.15 129.46 135.87 130.58 135.64 Z M 132.10 135.34 L 133.01 135.12 C 134.13 134.85 134.81 133.72 134.54 132.60 C 134.27 131.48 133.15 130.80 132.03 131.07 L 131.12 131.29 C 130.00 131.56 129.31 132.69 129.58 133.80 C 129.85 134.92 130.98 135.61 132.10 135.34 Z M 133.03 135.11 L 134.02 134.86 C 135.14 134.58 135.82 133.44 135.53 132.33 C 135.25 131.21 134.11 130.53 133.00 130.82 L 132.00 131.07 C 130.89 131.36 130.21 132.49 130.50 133.61 C 130.78 134.72 131.92 135.40 133.03 135.11 Z M 134.04 134.86 L 135.07 134.59 C 136.18 134.30 136.85 133.16 136.56 132.04 C 136.26 130.92 135.12 130.26 134.00 130.55 L 132.98 130.82 C 131.86 131.11 131.19 132.25 131.49 133.37 C 131.78 134.49 132.92 135.16 134.04 134.86 Z M 135.08 134.59 L 136.09 134.32 C 137.20 134.02 137.87 132.88 137.57 131.76 C 137.27 130.64 136.12 129.98 135.00 130.28 L 133.99 130.55 C 132.87 130.85 132.21 132.00 132.51 133.11 C 132.81 134.23 133.96 134.89 135.08 134.59 Z M 136.09 134.33 L 137.04 134.07 C 138.16 133.76 138.82 132.61 138.52 131.49 C 138.21 130.37 137.06 129.71 135.94 130.02 L 134.99 130.28 C 133.88 130.58 133.22 131.73 133.52 132.85 C 133.82 133.97 134.98 134.63 136.09 134.33 Z M 137.05 134.07 L 138.12 133.77 C 139.24 133.47 139.90 132.31 139.60 131.19 C 139.29 130.07 138.13 129.41 137.01 129.72 L 135.94 130.02 C 134.82 130.32 134.16 131.48 134.46 132.60 C 134.77 133.72 135.93 134.38 137.05 134.07 Z M 138.13 133.78 L 139.18 133.49 C 140.30 133.18 140.96 132.02 140.65 130.90 C 140.34 129.78 139.19 129.12 138.07 129.43 L 137.01 129.72 C 135.89 130.03 135.23 131.18 135.54 132.30 C 135.85 133.42 137.01 134.08 138.13 133.78 Z M 139.17 133.49 L 140.05 133.25 C 141.17 132.95 141.83 131.79 141.53 130.67 C 141.23 129.55 140.07 128.89 138.95 129.19 L 138.07 129.43 C 136.95 129.73 136.29 130.89 136.59 132.01 C 136.90 133.13 138.05 133.79 139.17 133.49 Z M 140.03 133.26 L 140.84 133.04 C 141.97 132.75 142.64 131.60 142.34 130.48 C 142.05 129.35 140.90 128.68 139.77 128.97 L 138.97 129.19 C 137.84 129.48 137.17 130.63 137.47 131.75 C 137.76 132.88 138.91 133.55 140.03 133.26 Z M 140.82 133.05 L 141.77 132.81 C 142.90 132.53 143.58 131.39 143.30 130.26 C 143.02 129.14 141.88 128.45 140.75 128.73 L 139.80 128.97 C 138.67 129.25 137.99 130.39 138.27 131.52 C 138.55 132.64 139.69 133.33 140.82 133.05 Z M 141.75 132.82 L 142.72 132.59 C 143.85 132.32 144.55 131.18 144.28 130.05 C 144.01 128.92 142.88 128.22 141.75 128.49 L 140.77 128.72 C 139.64 128.99 138.94 130.13 139.21 131.26 C 139.48 132.39 140.62 133.09 141.75 132.82 Z M 142.71 132.59 L 143.70 132.36 C 144.83 132.10 145.54 130.97 145.28 129.84 C 145.02 128.71 143.89 128.00 142.75 128.26 L 141.76 128.49 C 140.63 128.75 139.92 129.88 140.18 131.01 C 140.44 132.14 141.57 132.85 142.71 132.59 Z M 143.69 132.36 L 144.65 132.15 C 145.78 131.89 146.49 130.77 146.24 129.64 C 145.98 128.50 144.86 127.79 143.73 128.04 L 142.76 128.26 C 141.63 128.51 140.92 129.64 141.17 130.77 C 141.43 131.91 142.55 132.62 143.69 132.36 Z M 144.64 132.15 L 145.62 131.93 C 146.75 131.68 147.47 130.56 147.22 129.43 C 146.97 128.29 145.85 127.58 144.71 127.83 L 143.73 128.05 C 142.60 128.30 141.89 129.42 142.14 130.55 C 142.39 131.68 143.51 132.40 144.64 132.15 Z M 145.61 131.93 L 146.60 131.71 C 147.73 131.47 148.45 130.35 148.20 129.22 C 147.96 128.09 146.84 127.37 145.71 127.62 L 144.72 127.83 C 143.59 128.08 142.87 129.20 143.12 130.33 C 143.36 131.46 144.48 132.18 145.61 131.93 Z M 146.60 131.71 L 147.55 131.51 C 148.68 131.26 149.39 130.15 149.15 129.02 C 148.91 127.89 147.79 127.17 146.66 127.41 L 145.71 127.62 C 144.58 127.86 143.86 128.98 144.11 130.11 C 144.35 131.24 145.47 131.96 146.60 131.71 Z M 147.54 131.51 L 148.51 131.30 C 149.64 131.06 150.36 129.95 150.12 128.82 C 149.88 127.69 148.77 126.97 147.64 127.21 L 146.67 127.41 C 145.54 127.66 144.82 128.77 145.06 129.90 C 145.30 131.03 146.41 131.75 147.54 131.51 Z M 148.50 131.30 L 149.51 131.09 C 150.64 130.85 151.36 129.74 151.12 128.61 C 150.88 127.48 149.78 126.76 148.65 127.00 L 147.64 127.21 C 146.52 127.45 145.79 128.55 146.03 129.68 C 146.27 130.81 147.37 131.53 148.50 131.30 Z M 149.50 131.08 L 150.48 130.88 C 151.61 130.64 152.33 129.54 152.10 128.42 C 151.87 127.29 150.77 126.57 149.64 126.80 L 148.66 127.00 C 147.53 127.24 146.81 128.34 147.04 129.46 C 147.27 130.59 148.38 131.31 149.50 131.08 Z M 150.48 130.87 L 151.47 130.66 C 152.59 130.43 153.31 129.34 153.08 128.22 C 152.85 127.10 151.75 126.38 150.63 126.61 L 149.65 126.81 C 148.53 127.04 147.80 128.14 148.03 129.25 C 148.26 130.37 149.36 131.10 150.48 130.87 Z M 151.46 130.65 L 152.45 130.45 C 153.57 130.22 154.28 129.13 154.05 128.02 C 153.83 126.91 152.74 126.19 151.62 126.42 L 150.64 126.62 C 149.52 126.85 148.81 127.94 149.03 129.05 C 149.26 130.16 150.35 130.88 151.46 130.65 Z M 152.45 130.43 L 153.43 130.23 C 154.54 130.00 155.25 128.92 155.02 127.82 C 154.79 126.71 153.71 126.00 152.60 126.23 L 151.62 126.43 C 150.52 126.66 149.81 127.74 150.04 128.85 C 150.27 129.95 151.35 130.66 152.45 130.43 Z M 153.44 130.22 L 154.44 130.01 C 155.54 129.78 156.24 128.70 156.01 127.60 C 155.78 126.50 154.70 125.80 153.60 126.03 L 152.60 126.24 C 151.50 126.47 150.80 127.55 151.03 128.65 C 151.26 129.74 152.34 130.45 153.44 130.22 Z M 154.44 129.99 L 155.41 129.79 C 156.50 129.56 157.20 128.48 156.97 127.39 C 156.73 126.30 155.66 125.61 154.57 125.84 L 153.60 126.05 C 152.51 126.28 151.82 127.35 152.05 128.44 C 152.28 129.53 153.35 130.22 154.44 129.99 Z M 155.41 129.77 L 156.36 129.57 C 157.45 129.34 158.14 128.27 157.91 127.19 C 157.67 126.11 156.61 125.42 155.53 125.65 L 154.57 125.85 C 153.49 126.09 152.80 127.15 153.03 128.23 C 153.26 129.31 154.33 130.00 155.41 129.77 Z M 156.36 129.55 L 157.34 129.34 C 158.41 129.11 159.10 128.06 158.87 126.98 C 158.64 125.91 157.58 125.23 156.51 125.46 L 155.53 125.67 C 154.46 125.89 153.77 126.95 154.00 128.03 C 154.23 129.10 155.29 129.78 156.36 129.55 Z M 157.34 129.33 L 158.32 129.12 C 159.38 128.89 160.06 127.84 159.83 126.78 C 159.61 125.71 158.56 125.04 157.49 125.26 L 156.51 125.47 C 155.45 125.70 154.77 126.75 155.00 127.81 C 155.22 128.88 156.27 129.56 157.34 129.33 Z M 158.31 129.10 L 159.29 128.90 C 160.34 128.67 161.02 127.63 160.79 126.58 C 160.57 125.52 159.53 124.85 158.47 125.07 L 157.50 125.28 C 156.44 125.50 155.77 126.54 155.99 127.60 C 156.22 128.65 157.26 129.33 158.31 129.10 Z M 159.28 128.88 L 160.27 128.67 C 161.32 128.45 161.99 127.42 161.76 126.37 C 161.54 125.32 160.51 124.65 159.46 124.88 L 158.48 125.09 C 157.43 125.31 156.76 126.34 156.98 127.39 C 157.21 128.43 158.24 129.10 159.28 128.88 Z M 160.27 128.65 L 161.25 128.44 C 162.29 128.22 162.95 127.20 162.73 126.17 C 162.51 125.13 161.49 124.47 160.45 124.69 L 159.47 124.89 C 158.43 125.11 157.77 126.13 157.99 127.17 C 158.21 128.21 159.23 128.87 160.27 128.65 Z M 161.24 128.43 L 162.21 128.22 C 163.24 128.01 163.90 127.00 163.68 125.97 C 163.47 124.94 162.46 124.28 161.43 124.50 L 160.46 124.70 C 159.43 124.92 158.77 125.93 158.99 126.96 C 159.21 127.99 160.22 128.64 161.24 128.43 Z M 162.21 128.20 L 163.20 128.00 C 164.22 127.78 164.87 126.78 164.66 125.76 C 164.44 124.75 163.44 124.09 162.43 124.31 L 161.43 124.52 C 160.42 124.73 159.76 125.73 159.98 126.75 C 160.19 127.77 161.19 128.42 162.21 128.20 Z M 163.20 127.98 L 164.19 127.77 C 165.20 127.55 165.84 126.56 165.63 125.55 C 165.41 124.55 164.42 123.90 163.42 124.12 L 162.43 124.33 C 161.42 124.54 160.78 125.53 160.99 126.54 C 161.20 127.55 162.19 128.19 163.20 127.98 Z M 164.20 127.74 L 165.16 127.53 C 166.15 127.31 166.78 126.33 166.56 125.33 C 166.34 124.34 165.35 123.71 164.36 123.93 L 163.40 124.14 C 162.41 124.36 161.78 125.35 162.00 126.34 C 162.22 127.34 163.21 127.96 164.20 127.74 Z M 165.18 127.51 L 166.15 127.28 C 167.13 127.04 167.74 126.06 167.51 125.08 C 167.28 124.10 166.29 123.49 165.31 123.72 L 164.34 123.95 C 163.36 124.19 162.75 125.17 162.98 126.15 C 163.21 127.13 164.20 127.74 165.18 127.51 Z M 166.16 127.25 L 167.13 127.01 C 168.10 126.78 168.69 125.80 168.45 124.83 C 168.21 123.86 167.23 123.27 166.27 123.51 L 165.30 123.75 C 164.33 123.99 163.74 124.96 163.98 125.93 C 164.22 126.90 165.20 127.49 166.16 127.25 Z M 167.12 126.99 L 168.07 126.76 C 169.03 126.53 169.62 125.57 169.39 124.61 C 169.15 123.65 168.19 123.07 167.23 123.30 L 166.28 123.53 C 165.32 123.76 164.73 124.72 164.96 125.68 C 165.20 126.64 166.16 127.23 167.12 126.99 Z M 168.05 126.75 L 168.96 126.54 C 169.90 126.32 170.49 125.37 170.28 124.43 C 170.06 123.48 169.11 122.89 168.17 123.11 L 167.26 123.32 C 166.31 123.53 165.72 124.48 165.94 125.43 C 166.16 126.37 167.10 126.96 168.05 126.75 Z M 168.95 126.51 L 169.93 126.28 C 170.86 126.07 171.44 125.14 171.22 124.20 C 171.01 123.27 170.08 122.69 169.14 122.91 L 168.17 123.13 C 167.24 123.35 166.66 124.28 166.87 125.21 C 167.09 126.15 168.02 126.73 168.95 126.51 Z M 169.95 126.25 L 170.97 126.00 C 171.88 125.78 172.44 124.85 172.22 123.93 C 171.99 123.02 171.07 122.46 170.15 122.68 L 169.13 122.94 C 168.21 123.16 167.65 124.09 167.88 125.00 C 168.10 125.92 169.03 126.48 169.95 126.25 Z M 170.99 125.98 L 171.90 125.74 C 172.81 125.50 173.35 124.58 173.11 123.67 C 172.87 122.77 171.95 122.23 171.05 122.47 L 170.13 122.71 C 169.23 122.95 168.69 123.87 168.92 124.77 C 169.16 125.67 170.08 126.21 170.99 125.98 Z M 171.91 125.72 L 172.89 125.46 C 173.78 125.21 174.31 124.29 174.06 123.40 C 173.82 122.51 172.90 121.98 172.01 122.22 L 171.04 122.49 C 170.14 122.73 169.62 123.65 169.86 124.54 C 170.10 125.43 171.02 125.96 171.91 125.72 Z M 172.89 125.44 L 173.89 125.16 C 174.78 124.92 175.30 124.00 175.05 123.12 C 174.81 122.23 173.89 121.72 173.01 121.96 L 172.00 122.24 C 171.12 122.48 170.60 123.40 170.85 124.28 C 171.09 125.17 172.01 125.68 172.89 125.44 Z M 173.89 125.15 L 174.39 125.01 C 175.27 124.77 175.79 123.86 175.54 122.98 C 175.30 122.10 174.39 121.59 173.51 121.83 L 173.01 121.97 C 172.13 122.22 171.62 123.13 171.86 124.00 C 172.11 124.88 173.02 125.40 173.89 125.15 Z"
      fill="black"
      fill-rule="nonzero" /><path d="M 140.00 140.34 L 139.72 141.28 C 139.44 142.24 139.98 143.25 140.94 143.54 C 141.90 143.82 142.91 143.28 143.20 142.32 L 143.48 141.38 C 143.77 140.42 143.22 139.41 142.26 139.12 C 141.30 138.84 140.29 139.38 140.00 140.34 Z M 139.62 141.31 L 139.36 142.26 C 139.09 143.28 139.70 144.33 140.72 144.60 C 141.74 144.87 142.78 144.26 143.05 143.24 L 143.31 142.29 C 143.58 141.27 142.97 140.22 141.95 139.95 C 140.93 139.68 139.89 140.29 139.62 141.31 Z M 139.25 142.35 L 139.04 143.35 C 138.82 144.43 139.52 145.49 140.61 145.71 C 141.69 145.93 142.75 145.23 142.97 144.15 L 143.17 143.15 C 143.39 142.07 142.69 141.01 141.61 140.79 C 140.52 140.57 139.47 141.27 139.25 142.35 Z M 138.95 143.50 L 138.83 144.52 C 138.69 145.65 139.49 146.68 140.63 146.82 C 141.76 146.96 142.79 146.16 142.93 145.02 L 143.06 144.00 C 143.20 142.87 142.39 141.84 141.26 141.70 C 140.13 141.56 139.09 142.36 138.95 143.50 Z M 138.80 144.65 L 138.74 145.68 C 138.67 146.83 139.55 147.81 140.69 147.88 C 141.84 147.95 142.83 147.08 142.90 145.93 L 142.96 144.89 C 143.03 143.75 142.15 142.76 141.00 142.69 C 139.85 142.62 138.87 143.50 138.80 144.65 Z M 138.73 145.76 L 138.71 146.77 C 138.69 147.92 139.60 148.87 140.75 148.89 C 141.90 148.92 142.86 148.00 142.88 146.85 L 142.90 145.85 C 142.93 144.69 142.01 143.74 140.86 143.72 C 139.71 143.69 138.76 144.61 138.73 145.76 Z M 138.71 146.80 L 138.71 147.77 C 138.71 148.93 139.64 149.86 140.79 149.86 C 141.94 149.87 142.88 148.94 142.88 147.78 L 142.88 146.81 C 142.89 145.66 141.95 144.73 140.80 144.72 C 139.65 144.72 138.71 145.65 138.71 146.80 Z M 138.71 147.78 L 138.71 148.84 C 138.71 149.99 139.64 150.93 140.79 150.93 C 141.95 150.93 142.88 149.99 142.88 148.84 L 142.88 147.78 C 142.88 146.63 141.95 145.69 140.79 145.69 C 139.64 145.69 138.71 146.63 138.71 147.78 Z M 138.71 148.84 L 138.71 149.79 C 138.71 150.94 139.64 151.88 140.79 151.88 C 141.95 151.88 142.88 150.94 142.88 149.79 L 142.88 148.84 C 142.88 147.69 141.95 146.76 140.79 146.76 C 139.64 146.76 138.71 147.69 138.71 148.84 Z M 138.71 149.79 L 138.71 150.73 C 138.71 151.89 139.64 152.82 140.79 152.82 C 141.95 152.82 142.88 151.89 142.88 150.73 L 142.88 149.79 C 142.88 148.64 141.95 147.71 140.79 147.71 C 139.64 147.71 138.71 148.64 138.71 149.79 Z M 138.71 150.73 L 138.71 151.72 C 138.71 152.87 139.64 153.80 140.79 153.80 C 141.94 153.80 142.88 152.87 142.88 151.72 L 142.88 150.73 C 142.88 149.58 141.94 148.65 140.79 148.65 C 139.64 148.65 138.71 149.58 138.71 150.73 Z M 138.71 151.72 L 138.71 152.75 C 138.71 153.90 139.65 154.83 140.79 154.83 C 141.94 154.83 142.88 153.90 142.88 152.75 L 142.88 151.72 C 142.88 150.57 141.94 149.64 140.79 149.64 C 139.65 149.64 138.71 150.57 138.71 151.72 Z M 138.72 152.75 L 138.72 153.73 C 138.72 154.88 139.65 155.81 140.79 155.81 C 141.94 155.81 142.87 154.88 142.87 153.73 L 142.87 152.75 C 142.87 151.60 141.94 150.67 140.79 150.67 C 139.65 150.67 138.72 151.60 138.72 152.75 Z M 138.72 153.73 L 138.72 154.73 C 138.72 155.88 139.65 156.80 140.79 156.80 C 141.94 156.80 142.87 155.88 142.87 154.73 L 142.87 153.73 C 142.87 152.58 141.94 151.65 140.79 151.65 C 139.65 151.65 138.72 152.58 138.72 153.73 Z M 138.73 154.73 L 138.73 155.75 C 138.73 156.90 139.65 157.82 140.79 157.82 C 141.94 157.82 142.86 156.90 142.86 155.75 L 142.86 154.73 C 142.86 153.59 141.94 152.66 140.79 152.66 C 139.65 152.66 138.73 153.59 138.73 154.73 Z M 138.73 155.75 L 138.73 156.73 C 138.73 157.87 139.65 158.79 140.79 158.79 C 141.93 158.79 142.86 157.87 142.86 156.73 L 142.86 155.76 C 142.86 154.62 141.94 153.69 140.80 153.69 C 139.66 153.69 138.73 154.61 138.73 155.75 Z M 138.74 156.72 L 138.73 157.72 C 138.73 158.85 139.65 159.78 140.78 159.78 C 141.92 159.79 142.84 158.87 142.85 157.74 L 142.85 156.74 C 142.85 155.60 141.94 154.68 140.80 154.68 C 139.67 154.67 138.74 155.59 138.74 156.72 Z M 138.74 157.70 L 138.73 158.73 C 138.72 159.86 139.62 160.79 140.75 160.80 C 141.89 160.81 142.81 159.91 142.83 158.78 L 142.84 157.75 C 142.85 156.62 141.94 155.69 140.81 155.68 C 139.68 155.67 138.75 156.57 138.74 157.70 Z M 138.74 158.71 L 138.72 159.71 C 138.70 160.84 139.59 161.77 140.72 161.79 C 141.84 161.81 142.77 160.92 142.79 159.80 L 142.81 158.79 C 142.84 157.67 141.94 156.74 140.82 156.71 C 139.70 156.69 138.76 157.58 138.74 158.71 Z M 138.74 159.69 L 138.71 160.70 C 138.67 161.82 139.55 162.75 140.67 162.79 C 141.78 162.82 142.72 161.94 142.75 160.82 L 142.78 159.81 C 142.81 158.70 141.93 157.76 140.82 157.73 C 139.70 157.70 138.77 158.58 138.74 159.69 Z M 138.72 160.69 L 138.68 161.68 C 138.64 162.79 139.51 163.73 140.61 163.77 C 141.72 163.81 142.65 162.95 142.70 161.84 L 142.73 160.84 C 142.78 159.73 141.91 158.80 140.80 158.76 C 139.70 158.71 138.76 159.58 138.72 160.69 Z M 138.70 161.67 L 138.65 162.69 C 138.60 163.79 139.45 164.72 140.55 164.78 C 141.65 164.83 142.58 163.98 142.63 162.88 L 142.68 161.85 C 142.73 160.75 141.88 159.82 140.78 159.77 C 139.68 159.72 138.75 160.57 138.70 161.67 Z M 138.67 162.68 L 138.61 163.68 C 138.55 164.77 139.39 165.71 140.48 165.77 C 141.56 165.83 142.50 164.99 142.56 163.90 L 142.61 162.89 C 142.67 161.81 141.84 160.87 140.75 160.81 C 139.66 160.75 138.73 161.59 138.67 162.68 Z M 138.63 163.67 L 138.57 164.64 C 138.50 165.72 139.32 166.65 140.40 166.72 C 141.48 166.78 142.41 165.96 142.48 164.89 L 142.54 163.92 C 142.61 162.84 141.79 161.91 140.71 161.84 C 139.63 161.77 138.70 162.59 138.63 163.67 Z M 138.59 164.63 L 138.53 165.57 C 138.46 166.64 139.26 167.56 140.33 167.63 C 141.40 167.70 142.32 166.90 142.39 165.83 L 142.46 164.89 C 142.53 163.83 141.72 162.90 140.66 162.83 C 139.59 162.76 138.66 163.57 138.59 164.63 Z M 138.55 165.56 L 138.49 166.52 C 138.41 167.57 139.21 168.49 140.26 168.56 C 141.31 168.64 142.23 167.84 142.30 166.79 L 142.37 165.83 C 142.44 164.78 141.65 163.86 140.60 163.79 C 139.54 163.72 138.63 164.51 138.55 165.56 Z M 138.51 166.52 L 138.44 167.57 C 138.36 168.61 139.15 169.51 140.19 169.58 C 141.23 169.66 142.13 168.87 142.21 167.83 L 142.28 166.78 C 142.35 165.74 141.57 164.84 140.53 164.77 C 139.49 164.69 138.58 165.48 138.51 166.52 Z M 138.46 167.57 L 138.39 168.55 C 138.32 169.58 139.10 170.47 140.13 170.54 C 141.16 170.61 142.05 169.83 142.12 168.80 L 142.18 167.82 C 142.25 166.80 141.48 165.91 140.45 165.83 C 139.42 165.76 138.53 166.54 138.46 167.57 Z M 138.41 168.56 L 138.35 169.53 C 138.28 170.55 139.06 171.42 140.07 171.49 C 141.09 171.55 141.97 170.78 142.03 169.77 L 142.10 168.79 C 142.16 167.78 141.39 166.90 140.37 166.83 C 139.35 166.77 138.48 167.54 138.41 168.56 Z M 138.37 169.54 L 138.31 170.57 C 138.25 171.58 139.02 172.44 140.03 172.49 C 141.04 172.55 141.90 171.78 141.96 170.77 L 142.02 169.75 C 142.07 168.74 141.30 167.88 140.30 167.82 C 139.29 167.77 138.43 168.54 138.37 169.54 Z M 138.33 170.59 L 138.28 171.64 C 138.24 172.63 139.01 173.48 140.00 173.52 C 141.00 173.57 141.84 172.80 141.89 171.80 L 141.94 170.75 C 141.98 169.76 141.21 168.91 140.22 168.87 C 139.22 168.82 138.38 169.59 138.33 170.59 Z M 138.31 171.66 L 138.28 172.69 C 138.25 173.67 139.02 174.49 140.00 174.52 C 140.98 174.55 141.80 173.78 141.83 172.80 L 141.86 171.78 C 141.89 170.79 141.12 169.97 140.14 169.94 C 139.16 169.91 138.34 170.68 138.31 171.66 Z M 138.31 172.71 L 138.29 173.72 C 138.28 174.68 139.04 175.48 140.00 175.49 C 140.97 175.51 141.76 174.75 141.78 173.78 L 141.80 172.78 C 141.81 171.82 141.05 171.02 140.09 171.00 C 139.12 170.99 138.33 171.75 138.31 172.71 Z M 138.33 173.74 L 138.33 174.74 C 138.32 175.67 139.07 176.44 140.01 176.45 C 140.95 176.46 141.72 175.70 141.73 174.76 L 141.74 173.77 C 141.74 172.83 140.99 172.06 140.05 172.05 C 139.11 172.04 138.34 172.80 138.33 173.74 Z M 138.37 174.75 L 138.36 175.74 C 138.36 176.65 139.11 177.40 140.02 177.40 C 140.94 177.40 141.69 176.66 141.69 175.74 L 141.69 174.75 C 141.69 173.83 140.95 173.09 140.03 173.09 C 139.11 173.09 138.37 173.83 138.37 174.75 Z M 138.39 175.74 L 138.39 176.18 C 138.39 177.08 139.12 177.81 140.03 177.81 C 140.93 177.81 141.66 177.08 141.66 176.18 L 141.66 175.74 C 141.66 174.84 140.93 174.11 140.03 174.11 C 139.12 174.11 138.39 174.84 138.39 175.74 Z"
      fill="black"
      fill-rule="nonzero" /><path d="M 147.16 142.39 L 147.86 141.62 C 148.55 140.88 148.50 139.73 147.76 139.04 C 147.02 138.36 145.87 138.40 145.18 139.14 L 144.48 139.90 C 143.79 140.64 143.84 141.80 144.58 142.48 C 145.32 143.17 146.47 143.13 147.16 142.39 Z M 147.78 141.69 L 148.50 140.99 C 149.22 140.30 149.24 139.15 148.54 138.43 C 147.85 137.71 146.70 137.69 145.98 138.39 L 145.26 139.08 C 144.54 139.78 144.52 140.92 145.22 141.64 C 145.91 142.36 147.06 142.38 147.78 141.69 Z M 148.31 141.13 L 149.09 140.55 C 149.89 139.96 150.05 138.83 149.46 138.04 C 148.87 137.24 147.74 137.07 146.95 137.67 L 146.17 138.25 C 145.37 138.84 145.21 139.97 145.80 140.76 C 146.39 141.56 147.52 141.72 148.31 141.13 Z M 148.82 140.71 L 149.72 140.26 C 150.60 139.81 150.95 138.74 150.51 137.86 C 150.07 136.97 148.99 136.62 148.11 137.06 L 147.22 137.51 C 146.33 137.96 145.98 139.03 146.42 139.91 C 146.87 140.80 147.94 141.15 148.82 140.71 Z M 149.53 140.33 L 150.46 139.99 C 151.38 139.65 151.85 138.62 151.51 137.70 C 151.17 136.78 150.14 136.30 149.22 136.65 L 148.30 136.99 C 147.37 137.33 146.90 138.35 147.24 139.28 C 147.58 140.20 148.61 140.67 149.53 140.33 Z M 150.40 140.00 L 151.35 139.69 C 152.28 139.37 152.78 138.37 152.47 137.44 C 152.16 136.50 151.15 136.00 150.22 136.31 L 149.27 136.63 C 148.34 136.94 147.84 137.95 148.15 138.88 C 148.46 139.81 149.47 140.32 150.40 140.00 Z M 151.32 139.69 L 152.27 139.39 C 153.21 139.10 153.73 138.10 153.43 137.16 C 153.14 136.23 152.14 135.71 151.21 136.00 L 150.25 136.31 C 149.31 136.60 148.79 137.60 149.09 138.54 C 149.39 139.47 150.38 139.99 151.32 139.69 Z M 152.23 139.41 L 153.18 139.14 C 154.12 138.86 154.67 137.88 154.40 136.94 C 154.13 135.99 153.14 135.45 152.20 135.72 L 151.25 135.99 C 150.31 136.26 149.76 137.25 150.03 138.19 C 150.30 139.13 151.29 139.68 152.23 139.41 Z M 153.13 139.16 L 154.08 138.91 C 155.04 138.67 155.62 137.70 155.37 136.75 C 155.13 135.79 154.16 135.21 153.21 135.46 L 152.25 135.70 C 151.29 135.94 150.72 136.91 150.96 137.86 C 151.20 138.82 152.17 139.40 153.13 139.16 Z M 154.03 138.93 L 155.03 138.71 C 155.99 138.50 156.60 137.54 156.39 136.58 C 156.17 135.61 155.22 135.00 154.25 135.21 L 153.26 135.43 C 152.29 135.65 151.68 136.60 151.90 137.57 C 152.11 138.54 153.07 139.15 154.03 138.93 Z M 154.98 138.74 L 155.93 138.56 C 156.91 138.37 157.55 137.43 157.36 136.45 C 157.18 135.46 156.23 134.82 155.25 135.01 L 154.30 135.19 C 153.32 135.38 152.68 136.32 152.86 137.30 C 153.05 138.28 154.00 138.93 154.98 138.74 Z M 155.86 138.59 L 156.87 138.44 C 157.86 138.29 158.55 137.35 158.40 136.36 C 158.24 135.36 157.31 134.67 156.32 134.82 L 155.31 134.98 C 154.32 135.13 153.63 136.06 153.78 137.06 C 153.93 138.06 154.87 138.74 155.86 138.59 Z M 156.78 138.47 L 157.81 138.37 C 158.82 138.26 159.56 137.35 159.46 136.34 C 159.35 135.32 158.45 134.58 157.43 134.68 L 156.40 134.79 C 155.39 134.89 154.65 135.80 154.75 136.82 C 154.85 137.84 155.76 138.58 156.78 138.47 Z M 157.54 138.41 L 158.52 138.45 C 159.56 138.50 160.44 137.69 160.48 136.65 C 160.53 135.61 159.72 134.73 158.68 134.69 L 157.70 134.64 C 156.66 134.60 155.78 135.40 155.73 136.44 C 155.69 137.48 156.50 138.36 157.54 138.41 Z M 157.77 138.30 L 158.61 138.71 C 159.57 139.17 160.72 138.76 161.18 137.80 C 161.64 136.85 161.23 135.70 160.28 135.24 L 159.43 134.83 C 158.47 134.37 157.32 134.78 156.86 135.74 C 156.40 136.70 156.81 137.85 157.77 138.30 Z M 157.82 138.07 L 158.32 138.81 C 158.93 139.71 160.14 139.95 161.04 139.34 C 161.94 138.74 162.17 137.52 161.57 136.63 L 161.07 135.88 C 160.46 134.98 159.25 134.75 158.35 135.35 C 157.46 135.95 157.22 137.17 157.82 138.07 Z M 158.06 138.30 L 158.32 139.14 C 158.64 140.18 159.74 140.76 160.78 140.44 C 161.83 140.12 162.41 139.02 162.09 137.98 L 161.84 137.14 C 161.52 136.10 160.41 135.51 159.37 135.83 C 158.33 136.15 157.74 137.26 158.06 138.30 Z M 158.25 138.89 L 158.42 139.89 C 158.60 140.97 159.63 141.70 160.71 141.51 C 161.79 141.33 162.52 140.30 162.33 139.22 L 162.16 138.22 C 161.98 137.14 160.95 136.41 159.87 136.60 C 158.79 136.78 158.06 137.81 158.25 138.89 Z M 158.39 139.75 L 158.50 140.84 C 158.61 141.94 159.59 142.74 160.68 142.63 C 161.78 142.52 162.58 141.54 162.47 140.44 L 162.36 139.35 C 162.25 138.26 161.27 137.46 160.18 137.57 C 159.08 137.68 158.28 138.66 158.39 139.75 Z M 158.48 140.77 L 158.55 141.88 C 158.62 142.99 159.58 143.83 160.69 143.75 C 161.79 143.68 162.63 142.73 162.56 141.62 L 162.49 140.51 C 162.42 139.41 161.46 138.57 160.35 138.64 C 159.25 138.71 158.41 139.67 158.48 140.77 Z M 158.55 141.86 L 158.61 142.99 C 158.66 144.10 159.61 144.95 160.72 144.89 C 161.83 144.83 162.69 143.88 162.63 142.77 L 162.57 141.64 C 162.51 140.53 161.56 139.68 160.45 139.74 C 159.34 139.80 158.49 140.75 158.55 141.86 Z M 158.60 142.98 L 158.66 144.05 C 158.71 145.16 159.66 146.02 160.77 145.96 C 161.88 145.91 162.74 144.96 162.68 143.85 L 162.63 142.78 C 162.57 141.67 161.63 140.81 160.52 140.87 C 159.41 140.92 158.55 141.87 158.60 142.98 Z M 158.66 144.04 L 158.70 145.03 C 158.76 146.14 159.70 147.00 160.81 146.95 C 161.92 146.90 162.78 145.95 162.73 144.84 L 162.68 143.85 C 162.63 142.74 161.68 141.88 160.57 141.94 C 159.46 141.99 158.60 142.93 158.66 144.04 Z M 158.70 145.03 L 158.75 145.94 C 158.80 147.05 159.75 147.91 160.86 147.85 C 161.97 147.80 162.82 146.86 162.77 145.75 L 162.73 144.84 C 162.67 143.73 161.73 142.87 160.62 142.93 C 159.51 142.98 158.65 143.92 158.70 145.03 Z M 158.75 145.95 L 158.80 146.94 C 158.86 148.05 159.81 148.90 160.92 148.84 C 162.03 148.78 162.88 147.83 162.82 146.72 L 162.77 145.74 C 162.71 144.62 161.76 143.77 160.65 143.83 C 159.54 143.89 158.69 144.84 158.75 145.95 Z M 158.81 146.95 L 158.87 147.98 C 158.94 149.09 159.89 149.93 161.00 149.87 C 162.11 149.80 162.95 148.84 162.88 147.74 L 162.82 146.70 C 162.75 145.60 161.80 144.75 160.69 144.82 C 159.58 144.89 158.74 145.84 158.81 146.95 Z M 158.88 148.00 L 158.94 148.94 C 159.02 150.04 159.97 150.88 161.08 150.80 C 162.18 150.73 163.02 149.77 162.94 148.66 L 162.88 147.72 C 162.80 146.62 161.84 145.78 160.74 145.86 C 159.63 145.94 158.80 146.89 158.88 148.00 Z M 158.95 148.94 L 159.01 149.89 C 159.09 150.99 160.05 151.82 161.15 151.74 C 162.25 151.66 163.08 150.71 163.00 149.61 L 162.94 148.66 C 162.86 147.56 161.90 146.73 160.80 146.81 C 159.70 146.88 158.87 147.84 158.95 148.94 Z M 159.02 149.88 L 159.09 150.88 C 159.16 151.98 160.11 152.80 161.21 152.73 C 162.31 152.65 163.14 151.70 163.07 150.60 L 163.00 149.61 C 162.92 148.51 161.97 147.68 160.87 147.76 C 159.77 147.83 158.94 148.79 159.02 149.88 Z M 159.09 150.86 L 159.15 151.86 C 159.22 152.96 160.16 153.80 161.26 153.73 C 162.35 153.66 163.19 152.72 163.12 151.62 L 163.06 150.62 C 163.00 149.52 162.05 148.69 160.96 148.75 C 159.86 148.82 159.02 149.76 159.09 150.86 Z M 159.16 151.84 L 159.20 152.83 C 159.26 153.92 160.19 154.77 161.28 154.72 C 162.37 154.66 163.22 153.73 163.17 152.64 L 163.12 151.65 C 163.07 150.55 162.14 149.71 161.04 149.76 C 159.95 149.82 159.10 150.75 159.16 151.84 Z M 159.21 152.81 L 159.25 153.81 C 159.29 154.90 160.21 155.75 161.30 155.71 C 162.40 155.66 163.24 154.74 163.20 153.65 L 163.16 152.66 C 163.12 151.56 162.20 150.72 161.11 150.76 C 160.01 150.80 159.17 151.72 159.21 152.81 Z M 159.26 153.81 L 159.30 154.82 C 159.34 155.91 160.26 156.76 161.34 156.71 C 162.43 156.67 163.28 155.75 163.24 154.66 L 163.19 153.65 C 163.15 152.56 162.23 151.72 161.15 151.76 C 160.06 151.80 159.21 152.72 159.26 153.81 Z M 159.30 154.83 L 159.35 155.82 C 159.40 156.91 160.32 157.74 161.40 157.69 C 162.49 157.64 163.33 156.72 163.28 155.64 L 163.23 154.65 C 163.18 153.57 162.26 152.73 161.17 152.78 C 160.09 152.83 159.25 153.75 159.30 154.83 Z M 159.36 155.83 L 159.41 156.83 C 159.47 157.91 160.39 158.74 161.47 158.68 C 162.55 158.62 163.38 157.69 163.32 156.61 L 163.27 155.62 C 163.21 154.54 162.29 153.71 161.21 153.77 C 160.13 153.83 159.30 154.75 159.36 155.83 Z M 159.41 156.83 L 159.47 157.85 C 159.54 158.92 160.46 159.75 161.54 159.68 C 162.62 159.62 163.44 158.70 163.38 157.62 L 163.32 156.61 C 163.25 155.53 162.33 154.71 161.25 154.77 C 160.18 154.83 159.35 155.76 159.41 156.83 Z M 159.48 157.85 L 159.54 158.84 C 159.60 159.92 160.52 160.74 161.60 160.67 C 162.67 160.61 163.49 159.69 163.43 158.61 L 163.37 157.62 C 163.31 156.54 162.38 155.72 161.31 155.79 C 160.24 155.85 159.42 156.77 159.48 157.85 Z M 159.54 158.84 L 159.60 159.83 C 159.66 160.90 160.58 161.72 161.65 161.66 C 162.72 161.60 163.54 160.68 163.48 159.61 L 163.42 158.62 C 163.36 157.55 162.44 156.73 161.37 156.79 C 160.30 156.85 159.48 157.77 159.54 158.84 Z M 159.61 159.82 L 159.66 160.83 C 159.71 161.90 160.62 162.72 161.69 162.66 C 162.76 162.61 163.58 161.70 163.53 160.63 L 163.47 159.62 C 163.42 158.55 162.51 157.73 161.44 157.79 C 160.37 157.84 159.55 158.75 159.61 159.82 Z M 159.66 160.81 L 159.71 161.82 C 159.75 162.88 160.66 163.71 161.72 163.66 C 162.79 163.61 163.61 162.71 163.56 161.65 L 163.52 160.65 C 163.47 159.58 162.57 158.76 161.51 158.80 C 160.44 158.85 159.62 159.75 159.66 160.81 Z M 159.71 161.80 L 159.75 162.79 C 159.79 163.85 160.68 164.68 161.74 164.64 C 162.80 164.60 163.63 163.71 163.59 162.65 L 163.56 161.66 C 163.52 160.60 162.63 159.77 161.57 159.81 C 160.50 159.85 159.68 160.74 159.71 161.80 Z M 159.76 162.79 L 159.79 163.79 C 159.83 164.84 160.72 165.67 161.77 165.63 C 162.83 165.60 163.66 164.71 163.62 163.65 L 163.59 162.65 C 163.55 161.60 162.66 160.77 161.61 160.81 C 160.55 160.84 159.72 161.73 159.76 162.79 Z M 159.80 163.79 L 159.84 164.81 C 159.88 165.86 160.77 166.68 161.82 166.64 C 162.87 166.60 163.69 165.72 163.65 164.66 L 163.61 163.65 C 163.57 162.59 162.69 161.77 161.63 161.81 C 160.58 161.85 159.76 162.74 159.80 163.79 Z M 159.85 164.82 L 159.90 165.84 C 159.95 166.89 160.83 167.70 161.88 167.65 C 162.93 167.60 163.74 166.72 163.69 165.67 L 163.64 164.65 C 163.59 163.60 162.71 162.79 161.66 162.84 C 160.61 162.89 159.80 163.78 159.85 164.82 Z M 159.91 165.85 L 159.97 166.87 C 160.02 167.91 160.90 168.70 161.94 168.65 C 162.98 168.60 163.78 167.71 163.73 166.67 L 163.67 165.66 C 163.62 164.62 162.73 163.82 161.69 163.88 C 160.66 163.93 159.86 164.82 159.91 165.85 Z M 159.98 166.88 L 160.04 167.86 C 160.10 168.89 160.98 169.68 162.01 169.62 C 163.04 169.56 163.83 168.67 163.77 167.64 L 163.71 166.66 C 163.65 165.63 162.77 164.85 161.74 164.91 C 160.71 164.96 159.92 165.85 159.98 166.88 Z M 160.05 167.87 L 160.11 168.83 C 160.18 169.86 161.06 170.63 162.08 170.57 C 163.10 170.50 163.88 169.62 163.81 168.60 L 163.75 167.63 C 163.69 166.61 162.81 165.84 161.79 165.90 C 160.76 165.97 159.99 166.85 160.05 167.87 Z M 160.13 168.85 L 160.20 169.81 C 160.27 170.82 161.15 171.58 162.16 171.51 C 163.17 171.44 163.93 170.56 163.86 169.55 L 163.79 168.59 C 163.72 167.58 162.84 166.81 161.83 166.89 C 160.82 166.96 160.06 167.84 160.13 168.85 Z M 160.22 169.83 L 160.30 170.83 C 160.38 171.83 161.26 172.57 162.26 172.49 C 163.26 172.41 164.01 171.53 163.93 170.53 L 163.84 169.53 C 163.76 168.53 162.88 167.78 161.88 167.86 C 160.88 167.95 160.14 168.82 160.22 169.83 Z M 160.32 170.84 L 160.41 171.85 C 160.50 172.84 161.38 173.57 162.37 173.48 C 163.36 173.39 164.09 172.51 164.00 171.52 L 163.91 170.51 C 163.82 169.52 162.94 168.79 161.95 168.88 C 160.95 168.97 160.23 169.85 160.32 170.84 Z M 160.43 171.87 L 160.53 172.85 C 160.63 173.83 161.51 174.55 162.49 174.45 C 163.47 174.35 164.19 173.47 164.08 172.49 L 163.98 171.50 C 163.88 170.52 163.00 169.81 162.02 169.91 C 161.04 170.01 160.33 170.89 160.43 171.87 Z M 160.55 172.88 L 160.67 173.90 C 160.78 174.87 161.66 175.56 162.63 175.45 C 163.60 175.33 164.30 174.46 164.18 173.48 L 164.07 172.46 C 163.95 171.49 163.07 170.80 162.10 170.91 C 161.13 171.02 160.44 171.90 160.55 172.88 Z M 160.69 173.93 L 160.83 174.94 C 160.96 175.90 161.84 176.57 162.80 176.44 C 163.76 176.31 164.43 175.43 164.30 174.47 L 164.16 173.45 C 164.03 172.49 163.15 171.82 162.19 171.95 C 161.23 172.08 160.56 172.97 160.69 173.93 Z M 160.85 174.98 L 161.02 176.01 C 161.18 176.95 162.07 177.59 163.01 177.44 C 163.96 177.28 164.60 176.39 164.44 175.45 L 164.27 174.42 C 164.12 173.48 163.23 172.84 162.28 172.99 C 161.34 173.15 160.70 174.04 160.85 174.98 Z M 161.06 176.05 L 161.26 177.06 C 161.44 177.98 162.33 178.58 163.25 178.40 C 164.17 178.22 164.78 177.33 164.60 176.41 L 164.40 175.40 C 164.22 174.48 163.33 173.88 162.41 174.06 C 161.48 174.24 160.88 175.13 161.06 176.05 Z M 161.30 177.09 L 161.51 178.04 C 161.70 178.94 162.59 179.51 163.49 179.31 C 164.39 179.12 164.96 178.23 164.76 177.33 L 164.55 176.38 C 164.36 175.48 163.47 174.91 162.57 175.10 C 161.67 175.30 161.10 176.19 161.30 177.09 Z M 161.55 178.05 L 161.74 178.91 C 161.95 179.79 162.82 180.34 163.70 180.13 C 164.58 179.93 165.13 179.05 164.92 178.18 L 164.73 177.32 C 164.52 176.44 163.65 175.89 162.77 176.09 C 161.89 176.30 161.34 177.18 161.55 178.05 Z"
      fill="black"
      fill-rule="nonzero" /><path d="M 146.50 155.53 L 147.31 154.95 C 148.14 154.36 148.33 153.21 147.73 152.38 C 147.14 151.55 145.99 151.36 145.16 151.95 L 144.35 152.53 C 143.52 153.12 143.33 154.28 143.92 155.10 C 144.52 155.93 145.67 156.12 146.50 155.53 Z M 147.26 155.02 L 148.10 154.47 C 148.96 153.91 149.21 152.75 148.64 151.88 C 148.07 151.01 146.91 150.77 146.04 151.34 L 145.21 151.88 C 144.34 152.45 144.10 153.61 144.66 154.48 C 145.23 155.34 146.39 155.59 147.26 155.02 Z M 147.97 154.56 L 148.84 154.09 C 149.76 153.59 150.10 152.44 149.60 151.53 C 149.10 150.61 147.95 150.27 147.04 150.77 L 146.17 151.25 C 145.25 151.75 144.91 152.89 145.41 153.81 C 145.91 154.73 147.06 155.06 147.97 154.56 Z M 148.70 154.14 L 149.60 153.73 C 150.54 153.31 150.96 152.21 150.54 151.27 C 150.12 150.33 149.02 149.91 148.08 150.33 L 147.18 150.73 C 146.24 151.15 145.82 152.25 146.24 153.19 C 146.66 154.13 147.76 154.56 148.70 154.14 Z M 149.52 153.71 L 150.46 153.33 C 151.39 152.95 151.84 151.89 151.46 150.96 C 151.08 150.03 150.02 149.59 149.09 149.96 L 148.15 150.35 C 147.22 150.73 146.78 151.79 147.15 152.72 C 147.53 153.65 148.59 154.09 149.52 153.71 Z M 150.46 153.29 L 151.33 152.93 C 152.23 152.55 152.66 151.51 152.28 150.61 C 151.91 149.70 150.87 149.27 149.96 149.65 L 149.10 150.01 C 148.19 150.38 147.76 151.42 148.14 152.33 C 148.52 153.23 149.55 153.66 150.46 153.29 Z M 151.35 152.88 L 152.21 152.50 C 153.09 152.11 153.48 151.09 153.10 150.21 C 152.71 149.33 151.68 148.93 150.80 149.32 L 149.94 149.70 C 149.06 150.08 148.67 151.11 149.05 151.99 C 149.44 152.87 150.47 153.27 151.35 152.88 Z M 152.23 152.46 L 153.17 152.02 C 154.02 151.62 154.39 150.60 153.99 149.75 C 153.60 148.89 152.58 148.52 151.72 148.92 L 150.78 149.36 C 149.93 149.76 149.56 150.78 149.96 151.63 C 150.36 152.49 151.37 152.86 152.23 152.46 Z M 153.18 151.98 L 154.13 151.52 C 154.96 151.11 155.30 150.11 154.90 149.27 C 154.49 148.44 153.49 148.09 152.65 148.50 L 151.71 148.96 C 150.88 149.37 150.53 150.37 150.94 151.21 C 151.35 152.04 152.35 152.38 153.18 151.98 Z M 154.13 151.49 L 154.97 151.07 C 155.78 150.66 156.11 149.66 155.70 148.85 C 155.29 148.03 154.30 147.70 153.48 148.11 L 152.65 148.53 C 151.83 148.94 151.50 149.93 151.91 150.75 C 152.32 151.57 153.32 151.90 154.13 151.49 Z M 154.97 151.05 L 155.86 150.59 C 156.66 150.18 156.98 149.20 156.57 148.39 C 156.16 147.59 155.17 147.27 154.37 147.68 L 153.48 148.13 C 152.68 148.54 152.36 149.53 152.77 150.33 C 153.18 151.14 154.16 151.46 154.97 151.05 Z M 155.85 150.58 L 156.78 150.10 C 157.57 149.69 157.88 148.71 157.47 147.92 C 157.06 147.12 156.09 146.81 155.29 147.22 L 154.37 147.70 C 153.58 148.11 153.26 149.08 153.67 149.88 C 154.08 150.67 155.06 150.98 155.85 150.58 Z M 156.77 150.08 L 157.72 149.59 C 158.50 149.19 158.81 148.22 158.40 147.43 C 157.99 146.65 157.03 146.34 156.24 146.75 L 155.30 147.24 C 154.51 147.65 154.21 148.61 154.61 149.40 C 155.02 150.18 155.99 150.49 156.77 150.08 Z M 157.71 149.58 L 157.92 149.47 C 158.70 149.07 159.00 148.11 158.60 147.33 C 158.19 146.55 157.23 146.25 156.45 146.65 L 156.25 146.76 C 155.47 147.17 155.16 148.12 155.57 148.90 C 155.97 149.68 156.93 149.99 157.71 149.58 Z"
      fill="black"
      fill-rule="nonzero" /><path d="M 145.35 159.27 L 144.57 160.27 C 144.01 160.99 144.14 162.03 144.87 162.59 C 145.59 163.15 146.62 163.02 147.18 162.30 L 147.96 161.30 C 148.52 160.57 148.39 159.54 147.67 158.98 C 146.95 158.42 145.91 158.55 145.35 159.27 Z M 144.27 160.70 L 144.06 161.29 C 143.73 162.17 144.19 163.16 145.08 163.48 C 145.97 163.80 146.95 163.35 147.27 162.46 L 147.49 161.87 C 147.81 160.98 147.35 160.00 146.46 159.68 C 145.58 159.35 144.60 159.81 144.27 160.70 Z M 145.81 163.60 L 146.40 163.55 C 147.36 163.47 148.07 162.63 147.99 161.67 C 147.91 160.72 147.06 160.01 146.11 160.09 L 145.52 160.14 C 144.56 160.22 143.85 161.06 143.93 162.02 C 144.01 162.98 144.85 163.69 145.81 163.60 Z M 146.90 163.44 L 148.09 162.96 C 148.98 162.60 149.41 161.59 149.06 160.70 C 148.70 159.81 147.69 159.37 146.80 159.73 L 145.61 160.21 C 144.72 160.57 144.28 161.58 144.64 162.47 C 145.00 163.36 146.01 163.79 146.90 163.44 Z M 148.17 162.92 L 149.08 162.50 C 149.95 162.10 150.33 161.07 149.92 160.20 C 149.52 159.33 148.49 158.95 147.62 159.35 L 146.71 159.77 C 145.84 160.17 145.47 161.20 145.87 162.07 C 146.27 162.94 147.30 163.32 148.17 162.92 Z M 149.10 162.49 L 149.95 162.08 C 150.81 161.67 151.17 160.63 150.76 159.77 C 150.34 158.91 149.31 158.54 148.45 158.96 L 147.60 159.37 C 146.73 159.78 146.37 160.82 146.79 161.68 C 147.20 162.54 148.24 162.90 149.10 162.49 Z M 149.96 162.07 L 150.87 161.62 C 151.73 161.20 152.08 160.17 151.66 159.31 C 151.24 158.45 150.21 158.10 149.35 158.52 L 148.44 158.97 C 147.58 159.39 147.22 160.42 147.65 161.28 C 148.07 162.14 149.10 162.49 149.96 162.07 Z M 150.88 161.61 L 151.84 161.14 C 152.70 160.71 153.04 159.68 152.62 158.83 C 152.20 157.97 151.17 157.62 150.31 158.05 L 149.35 158.53 C 148.49 158.95 148.14 159.98 148.57 160.83 C 148.99 161.69 150.02 162.04 150.88 161.61 Z M 151.84 161.13 L 152.81 160.65 C 153.66 160.23 154.01 159.20 153.59 158.35 C 153.17 157.50 152.14 157.15 151.29 157.57 L 150.32 158.05 C 149.47 158.47 149.12 159.50 149.54 160.35 C 149.96 161.20 150.99 161.55 151.84 161.13 Z M 152.80 160.63 L 153.74 160.17 C 154.58 159.76 154.93 158.74 154.52 157.90 C 154.10 157.05 153.08 156.71 152.24 157.12 L 151.30 157.59 C 150.46 158.00 150.11 159.02 150.53 159.86 C 150.94 160.70 151.96 161.05 152.80 160.63 Z M 153.73 160.15 L 154.66 159.69 C 155.50 159.29 155.84 158.29 155.43 157.45 C 155.03 156.62 154.02 156.28 153.19 156.68 L 152.26 157.14 C 151.43 157.55 151.08 158.55 151.49 159.38 C 151.89 160.21 152.90 160.56 153.73 160.15 Z M 154.65 159.68 L 155.55 159.24 C 156.38 158.84 156.72 157.86 156.32 157.03 C 155.93 156.21 154.94 155.87 154.12 156.26 L 153.21 156.70 C 152.39 157.10 152.04 158.08 152.44 158.91 C 152.84 159.73 153.82 160.07 154.65 159.68 Z M 155.53 159.23 L 156.39 158.82 C 157.20 158.43 157.55 157.46 157.16 156.65 C 156.78 155.84 155.81 155.49 154.99 155.87 L 154.14 156.28 C 153.32 156.66 152.98 157.64 153.36 158.45 C 153.75 159.26 154.72 159.61 155.53 159.23 Z M 156.36 158.81 L 157.31 158.38 C 158.12 158.00 158.47 157.05 158.10 156.24 C 157.73 155.43 156.77 155.08 155.96 155.45 L 155.02 155.88 C 154.21 156.26 153.86 157.21 154.23 158.02 C 154.60 158.83 155.55 159.18 156.36 158.81 Z M 157.28 158.37 L 158.24 157.95 C 159.05 157.59 159.42 156.65 159.06 155.85 C 158.71 155.04 157.77 154.67 156.96 155.03 L 155.99 155.45 C 155.19 155.81 154.82 156.75 155.18 157.55 C 155.53 158.36 156.47 158.73 157.28 158.37 Z M 158.22 157.94 L 159.08 157.58 C 159.89 157.24 160.26 156.31 159.92 155.51 C 159.59 154.70 158.66 154.33 157.85 154.67 L 156.99 155.03 C 156.18 155.37 155.81 156.30 156.15 157.10 C 156.49 157.91 157.41 158.28 158.22 157.94 Z M 159.07 157.57 L 159.77 157.28 C 160.57 156.95 160.95 156.03 160.62 155.23 C 160.29 154.43 159.37 154.05 158.57 154.38 L 157.87 154.67 C 157.07 155.00 156.69 155.92 157.02 156.72 C 157.35 157.52 158.27 157.90 159.07 157.57 Z"
      fill="black"
      fill-rule="nonzero" /><path d="M 144.87 179.22 L 145.58 178.50 C 146.31 177.76 146.29 176.57 145.55 175.84 C 144.81 175.11 143.62 175.12 142.89 175.87 L 142.18 176.58 C 141.46 177.33 141.47 178.52 142.21 179.25 C 142.95 179.97 144.15 179.96 144.87 179.22 Z M 145.49 178.64 L 146.24 177.99 C 147.04 177.29 147.13 176.08 146.44 175.28 C 145.75 174.48 144.54 174.39 143.73 175.08 L 142.98 175.73 C 142.18 176.42 142.09 177.63 142.78 178.44 C 143.47 179.24 144.68 179.33 145.49 178.64 Z M 146.01 178.19 L 146.77 177.72 C 147.68 177.15 147.96 175.95 147.39 175.04 C 146.83 174.13 145.63 173.85 144.71 174.41 L 143.96 174.88 C 143.05 175.45 142.77 176.65 143.33 177.56 C 143.90 178.47 145.10 178.75 146.01 178.19 Z M 146.52 177.85 L 147.32 177.50 C 148.30 177.07 148.75 175.92 148.32 174.93 C 147.88 173.94 146.73 173.50 145.75 173.93 L 144.95 174.28 C 143.97 174.71 143.52 175.87 143.95 176.85 C 144.39 177.84 145.54 178.29 146.52 177.85 Z M 147.21 177.54 L 148.21 177.17 C 149.21 176.80 149.73 175.68 149.35 174.67 C 148.98 173.66 147.86 173.15 146.85 173.52 L 145.85 173.89 C 144.85 174.27 144.33 175.39 144.71 176.39 C 145.08 177.40 146.20 177.92 147.21 177.54 Z M 148.20 177.17 L 149.26 176.78 C 150.27 176.41 150.79 175.30 150.42 174.29 C 150.05 173.28 148.93 172.77 147.93 173.13 L 146.86 173.52 C 145.85 173.89 145.34 175.01 145.70 176.02 C 146.07 177.02 147.19 177.54 148.20 177.17 Z M 149.28 176.77 L 150.18 176.43 C 151.18 176.05 151.68 174.93 151.30 173.93 C 150.93 172.93 149.81 172.43 148.81 172.81 L 147.91 173.15 C 146.91 173.53 146.40 174.64 146.78 175.64 C 147.16 176.64 148.28 177.15 149.28 176.77 Z M 150.19 176.42 L 151.15 176.04 C 152.15 175.66 152.64 174.54 152.26 173.55 C 151.87 172.56 150.76 172.06 149.76 172.45 L 148.80 172.82 C 147.80 173.20 147.31 174.32 147.70 175.31 C 148.08 176.31 149.20 176.80 150.19 176.42 Z M 151.16 176.03 L 152.14 175.65 C 153.13 175.26 153.61 174.14 153.22 173.15 C 152.84 172.17 151.72 171.68 150.73 172.07 L 149.75 172.46 C 148.77 172.85 148.28 173.96 148.67 174.95 C 149.06 175.94 150.18 176.42 151.16 176.03 Z M 152.15 175.63 L 153.10 175.25 C 154.08 174.86 154.56 173.74 154.16 172.76 C 153.77 171.78 152.65 171.31 151.67 171.70 L 150.72 172.08 C 149.74 172.48 149.27 173.59 149.66 174.57 C 150.06 175.55 151.17 176.03 152.15 175.63 Z M 153.11 175.23 L 154.06 174.84 C 155.03 174.44 155.49 173.33 155.09 172.36 C 154.69 171.39 153.58 170.93 152.61 171.33 L 151.66 171.72 C 150.69 172.12 150.23 173.23 150.63 174.20 C 151.03 175.17 152.14 175.63 153.11 175.23 Z M 154.06 174.80 L 155.05 174.38 C 156.00 173.97 156.44 172.88 156.03 171.93 C 155.63 170.99 154.54 170.55 153.59 170.95 L 152.60 171.37 C 151.66 171.78 151.22 172.87 151.62 173.82 C 152.03 174.76 153.12 175.20 154.06 174.80 Z M 155.06 174.31 L 155.94 173.92 C 156.85 173.51 157.26 172.44 156.85 171.53 C 156.45 170.62 155.38 170.21 154.47 170.62 L 153.59 171.02 C 152.68 171.42 152.27 172.49 152.67 173.40 C 153.08 174.31 154.15 174.72 155.06 174.31 Z M 155.95 173.85 L 156.79 173.46 C 157.67 173.05 158.05 172.01 157.64 171.13 C 157.23 170.26 156.19 169.88 155.31 170.29 L 154.47 170.68 C 153.59 171.09 153.21 172.13 153.62 173.01 C 154.03 173.88 155.07 174.26 155.95 173.85 Z M 156.79 173.40 L 157.64 172.99 C 158.48 172.59 158.84 171.57 158.43 170.72 C 158.02 169.88 157.00 169.53 156.16 169.93 L 155.31 170.34 C 154.47 170.75 154.11 171.77 154.52 172.61 C 154.93 173.46 155.95 173.81 156.79 173.40 Z M 157.64 172.96 L 158.50 172.53 C 159.32 172.12 159.66 171.12 159.25 170.30 C 158.84 169.48 157.84 169.14 157.02 169.55 L 156.16 169.97 C 155.33 170.38 155.00 171.38 155.41 172.20 C 155.81 173.03 156.81 173.37 157.64 172.96 Z M 158.50 172.51 L 159.39 172.06 C 160.20 171.65 160.53 170.66 160.12 169.85 C 159.72 169.04 158.73 168.71 157.92 169.12 L 157.02 169.57 C 156.21 169.98 155.88 170.96 156.29 171.78 C 156.70 172.59 157.68 172.91 158.50 172.51 Z M 159.39 172.03 L 160.31 171.57 C 161.10 171.16 161.42 170.19 161.02 169.39 C 160.62 168.59 159.64 168.27 158.85 168.68 L 157.92 169.14 C 157.13 169.55 156.81 170.52 157.21 171.32 C 157.62 172.12 158.59 172.44 159.39 172.03 Z M 160.30 171.55 L 161.04 171.17 C 161.82 170.77 162.14 169.81 161.74 169.02 C 161.34 168.24 160.38 167.92 159.59 168.32 L 158.85 168.70 C 158.07 169.10 157.75 170.06 158.15 170.85 C 158.55 171.63 159.51 171.95 160.30 171.55 Z"
      fill="black"
      fill-rule="nonzero" /><path d="M 149.14 175.82 L 148.45 176.62 C 147.77 177.40 147.85 178.58 148.63 179.26 C 149.41 179.94 150.59 179.86 151.27 179.08 L 151.96 178.28 C 152.64 177.50 152.56 176.32 151.78 175.64 C 151.00 174.96 149.82 175.04 149.14 175.82 Z M 148.43 176.60 L 147.74 177.39 C 147.05 178.18 147.13 179.38 147.92 180.06 C 148.71 180.75 149.90 180.67 150.59 179.89 L 151.28 179.10 C 151.97 178.31 151.89 177.11 151.10 176.43 C 150.32 175.74 149.12 175.82 148.43 176.60 Z M 147.73 177.37 L 147.05 178.14 C 146.35 178.93 146.43 180.15 147.22 180.85 C 148.02 181.55 149.23 181.47 149.93 180.67 L 150.61 179.91 C 151.31 179.11 151.23 177.90 150.44 177.20 C 149.64 176.50 148.43 176.58 147.73 177.37 Z M 147.04 178.12 L 146.39 178.85 C 145.67 179.65 145.75 180.88 146.55 181.59 C 147.35 182.30 148.58 182.23 149.29 181.43 L 149.94 180.70 C 150.66 179.90 150.58 178.67 149.78 177.96 C 148.98 177.24 147.76 177.31 147.04 178.12 Z M 146.38 178.82 L 145.75 179.52 C 145.03 180.32 145.09 181.56 145.89 182.29 C 146.70 183.02 147.94 182.96 148.67 182.15 L 149.30 181.46 C 150.02 180.65 149.96 179.41 149.16 178.68 C 148.35 177.96 147.11 178.02 146.38 178.82 Z M 145.76 179.49 L 145.08 180.23 C 144.33 181.03 144.38 182.28 145.18 183.02 C 145.99 183.77 147.24 183.72 147.98 182.92 L 148.66 182.18 C 149.41 181.38 149.36 180.12 148.56 179.38 C 147.75 178.64 146.50 178.69 145.76 179.49 Z M 145.10 180.21 L 144.39 180.95 C 143.64 181.74 143.66 182.99 144.45 183.74 C 145.24 184.50 146.49 184.47 147.24 183.68 L 147.95 182.94 C 148.71 182.15 148.68 180.90 147.89 180.15 C 147.11 179.39 145.86 179.42 145.10 180.21 Z M 144.43 180.93 L 143.74 181.62 C 142.97 182.38 142.97 183.63 143.74 184.39 C 144.51 185.16 145.75 185.16 146.52 184.39 L 147.21 183.70 C 147.97 182.93 147.97 181.69 147.20 180.92 C 146.44 180.16 145.19 180.16 144.43 180.93 Z M 143.78 181.60 L 143.08 182.26 C 142.31 183.01 142.28 184.25 143.03 185.02 C 143.78 185.80 145.01 185.83 145.79 185.08 L 146.48 184.41 C 147.26 183.66 147.28 182.43 146.54 181.65 C 145.79 180.87 144.55 180.85 143.78 181.60 Z M 143.12 182.24 L 142.39 182.92 C 141.60 183.65 141.56 184.88 142.29 185.66 C 143.02 186.45 144.25 186.50 145.03 185.77 L 145.76 185.09 C 146.54 184.37 146.59 183.14 145.86 182.35 C 145.13 181.56 143.90 181.52 143.12 182.24 Z M 142.42 182.90 L 141.65 183.59 C 140.85 184.31 140.79 185.53 141.50 186.33 C 142.22 187.13 143.44 187.19 144.24 186.47 L 145.01 185.78 C 145.80 185.07 145.87 183.84 145.15 183.05 C 144.44 182.25 143.21 182.19 142.42 182.90 Z M 141.67 183.58 L 140.89 184.26 C 140.09 184.97 140.01 186.19 140.72 186.99 C 141.42 187.80 142.64 187.87 143.44 187.17 L 144.22 186.49 C 145.02 185.78 145.10 184.56 144.39 183.76 C 143.69 182.96 142.47 182.88 141.67 183.58 Z M 140.91 184.26 L 140.15 184.90 C 139.35 185.60 139.26 186.82 139.95 187.63 C 140.65 188.43 141.87 188.52 142.68 187.83 L 143.43 187.18 C 144.24 186.48 144.32 185.26 143.63 184.45 C 142.93 183.65 141.71 183.56 140.91 184.26 Z M 140.17 184.90 L 139.43 185.52 C 138.62 186.21 138.52 187.43 139.21 188.24 C 139.90 189.05 141.12 189.15 141.93 188.46 L 142.66 187.83 C 143.47 187.14 143.57 185.93 142.88 185.12 C 142.19 184.31 140.98 184.21 140.17 184.90 Z M 139.45 185.52 L 138.62 186.22 C 137.81 186.89 137.70 188.10 138.38 188.91 C 139.05 189.72 140.26 189.83 141.07 189.16 L 141.90 188.46 C 142.72 187.78 142.83 186.58 142.15 185.77 C 141.47 184.95 140.27 184.84 139.45 185.52 Z M 138.65 186.21 L 137.91 186.82 C 137.09 187.48 136.97 188.67 137.63 189.48 C 138.29 190.30 139.48 190.42 140.29 189.76 L 141.04 189.16 C 141.85 188.50 141.98 187.31 141.32 186.49 C 140.66 185.68 139.47 185.55 138.65 186.21 Z M 137.94 186.82 L 137.22 187.38 C 136.40 188.02 136.26 189.20 136.90 190.02 C 137.54 190.83 138.72 190.97 139.54 190.33 L 140.26 189.77 C 141.07 189.12 141.22 187.94 140.57 187.13 C 139.93 186.32 138.75 186.17 137.94 186.82 Z M 137.24 187.38 L 136.47 187.98 C 135.65 188.60 135.49 189.77 136.12 190.59 C 136.75 191.41 137.92 191.56 138.74 190.93 L 139.51 190.34 C 140.33 189.71 140.48 188.54 139.86 187.72 C 139.23 186.91 138.06 186.75 137.24 187.38 Z M 136.48 187.98 L 135.68 188.58 C 134.86 189.20 134.70 190.37 135.32 191.18 C 135.94 192.00 137.10 192.16 137.92 191.54 L 138.72 190.93 C 139.54 190.32 139.70 189.15 139.08 188.33 C 138.46 187.52 137.30 187.36 136.48 187.98 Z M 135.68 188.59 L 134.89 189.19 C 134.07 189.81 133.92 190.97 134.53 191.78 C 135.15 192.60 136.31 192.75 137.12 192.14 L 137.92 191.53 C 138.73 190.92 138.89 189.76 138.27 188.94 C 137.66 188.13 136.50 187.97 135.68 188.59 Z M 134.89 189.20 L 134.14 189.77 C 133.33 190.38 133.17 191.54 133.79 192.35 C 134.41 193.16 135.56 193.32 136.37 192.70 L 137.12 192.13 C 137.93 191.52 138.09 190.36 137.47 189.55 C 136.86 188.74 135.70 188.58 134.89 189.20 Z M 134.16 189.76 L 133.36 190.36 C 132.54 190.97 132.38 192.12 132.98 192.93 C 133.59 193.74 134.74 193.91 135.55 193.30 L 136.36 192.71 C 137.17 192.10 137.34 190.95 136.73 190.14 C 136.12 189.32 134.97 189.15 134.16 189.76 Z M 133.39 190.35 L 132.51 190.98 C 131.69 191.57 131.50 192.71 132.09 193.53 C 132.68 194.35 133.83 194.54 134.65 193.95 L 135.53 193.32 C 136.35 192.73 136.53 191.58 135.94 190.76 C 135.35 189.94 134.21 189.75 133.39 190.35 Z M 132.54 190.96 L 131.71 191.54 C 130.88 192.11 130.67 193.24 131.24 194.07 C 131.82 194.90 132.95 195.11 133.78 194.54 L 134.61 193.96 C 135.44 193.39 135.65 192.26 135.08 191.43 C 134.50 190.60 133.37 190.39 132.54 190.96 Z M 131.75 191.53 L 130.88 192.10 C 130.05 192.65 129.82 193.77 130.37 194.60 C 130.92 195.44 132.04 195.67 132.87 195.12 L 133.74 194.55 C 134.57 194.00 134.80 192.88 134.25 192.05 C 133.70 191.21 132.58 190.98 131.75 191.53 Z M 130.93 192.08 L 130.08 192.61 C 129.24 193.13 128.98 194.24 129.50 195.08 C 130.02 195.92 131.12 196.18 131.97 195.66 L 132.82 195.13 C 133.66 194.61 133.92 193.51 133.40 192.66 C 132.88 191.82 131.77 191.56 130.93 192.08 Z M 130.15 192.59 L 129.24 193.10 C 128.38 193.58 128.08 194.67 128.56 195.52 C 129.04 196.38 130.12 196.68 130.97 196.20 L 131.89 195.69 C 132.75 195.21 133.05 194.12 132.57 193.27 C 132.09 192.41 131.01 192.11 130.15 192.59 Z M 129.45 193.05 L 128.36 193.49 C 127.47 193.85 127.05 194.87 127.41 195.75 C 127.77 196.64 128.79 197.07 129.67 196.70 L 130.76 196.26 C 131.65 195.90 132.07 194.88 131.71 194.00 C 131.35 193.11 130.34 192.68 129.45 193.05 Z M 129.30 193.44 L 128.67 193.33 C 127.75 193.18 126.88 193.80 126.73 194.71 C 126.57 195.63 127.19 196.50 128.11 196.65 L 128.74 196.76 C 129.65 196.91 130.52 196.29 130.68 195.38 C 130.83 194.46 130.21 193.59 129.30 193.44 Z M 130.01 194.78 L 129.91 194.03 C 129.79 193.14 128.97 192.50 128.08 192.62 C 127.18 192.74 126.55 193.56 126.67 194.45 L 126.77 195.20 C 126.88 196.10 127.70 196.73 128.60 196.61 C 129.49 196.50 130.12 195.68 130.01 194.78 Z M 129.85 194.55 L 130.08 193.41 C 130.25 192.54 129.68 191.70 128.82 191.54 C 127.96 191.37 127.12 191.93 126.95 192.79 L 126.73 193.93 C 126.56 194.80 127.12 195.64 127.98 195.80 C 128.85 195.97 129.68 195.41 129.85 194.55 Z M 130.04 193.47 L 130.09 193.24 C 130.30 192.40 129.78 191.55 128.94 191.35 C 128.09 191.14 127.25 191.66 127.04 192.50 L 126.99 192.73 C 126.78 193.57 127.30 194.42 128.14 194.62 C 128.99 194.83 129.83 194.31 130.04 193.47 Z"
      fill="black"
      fill-rule="nonzero" /><path d="M 150.34 182.52 L 151.13 183.02 C 152.07 183.60 153.30 183.32 153.88 182.38 C 154.46 181.45 154.18 180.22 153.24 179.64 L 152.45 179.14 C 151.52 178.56 150.29 178.85 149.70 179.78 C 149.12 180.71 149.41 181.94 150.34 182.52 Z M 151.12 183.10 L 151.97 183.62 C 152.95 184.21 154.22 183.90 154.81 182.92 C 155.40 181.94 155.09 180.67 154.11 180.08 L 153.26 179.56 C 152.28 178.97 151.01 179.28 150.42 180.26 C 149.83 181.23 150.14 182.51 151.12 183.10 Z M 151.98 183.69 L 152.89 184.22 C 153.91 184.80 155.21 184.46 155.80 183.44 C 156.38 182.42 156.04 181.12 155.02 180.53 L 154.11 180.00 C 153.09 179.41 151.79 179.76 151.20 180.78 C 150.61 181.80 150.96 183.10 151.98 183.69 Z M 152.91 184.25 L 153.79 184.74 C 154.83 185.32 156.14 184.94 156.72 183.90 C 157.29 182.86 156.91 181.55 155.88 180.98 L 155.00 180.49 C 153.96 179.91 152.65 180.29 152.07 181.33 C 151.49 182.37 151.87 183.68 152.91 184.25 Z M 153.81 184.75 L 154.71 185.24 C 155.76 185.80 157.06 185.41 157.63 184.37 C 158.19 183.32 157.80 182.02 156.76 181.46 L 155.85 180.97 C 154.81 180.41 153.51 180.80 152.94 181.84 C 152.38 182.88 152.77 184.19 153.81 184.75 Z M 154.73 185.24 L 155.60 185.71 C 156.65 186.26 157.95 185.86 158.50 184.82 C 159.06 183.77 158.66 182.48 157.62 181.92 L 156.74 181.45 C 155.70 180.90 154.40 181.30 153.84 182.34 C 153.29 183.39 153.68 184.68 154.73 185.24 Z M 155.62 185.70 L 156.54 186.19 C 157.58 186.74 158.87 186.34 159.42 185.30 C 159.97 184.25 159.57 182.96 158.53 182.41 L 157.61 181.93 C 156.56 181.38 155.27 181.78 154.72 182.82 C 154.17 183.86 154.57 185.15 155.62 185.70 Z M 156.54 186.17 L 157.40 186.62 C 158.43 187.17 159.71 186.78 160.26 185.75 C 160.81 184.72 160.42 183.43 159.38 182.89 L 158.53 182.43 C 157.50 181.88 156.22 182.28 155.67 183.31 C 155.12 184.34 155.51 185.62 156.54 186.17 Z M 157.39 186.60 L 158.23 187.06 C 159.24 187.61 160.52 187.24 161.07 186.22 C 161.63 185.20 161.25 183.92 160.24 183.37 L 159.40 182.91 C 158.38 182.36 157.10 182.73 156.55 183.75 C 155.99 184.77 156.37 186.04 157.39 186.60 Z M 158.21 187.03 L 159.07 187.51 C 160.07 188.07 161.34 187.71 161.90 186.71 C 162.46 185.70 162.10 184.43 161.10 183.87 L 160.25 183.40 C 159.25 182.83 157.98 183.19 157.41 184.19 C 156.85 185.20 157.21 186.47 158.21 187.03 Z M 159.07 187.49 L 159.95 187.99 C 160.95 188.55 162.21 188.20 162.77 187.21 C 163.33 186.22 162.98 184.95 161.99 184.39 L 161.10 183.89 C 160.11 183.33 158.85 183.68 158.28 184.67 C 157.72 185.67 158.07 186.93 159.07 187.49 Z M 159.97 187.98 L 160.84 188.47 C 161.83 189.02 163.08 188.67 163.63 187.69 C 164.19 186.70 163.84 185.45 162.85 184.90 L 161.97 184.41 C 160.99 183.85 159.74 184.20 159.18 185.19 C 158.63 186.18 158.98 187.42 159.97 187.98 Z M 160.86 188.45 L 161.72 188.93 C 162.70 189.48 163.93 189.13 164.48 188.15 C 165.02 187.17 164.67 185.94 163.69 185.39 L 162.83 184.91 C 161.86 184.37 160.62 184.72 160.08 185.70 C 159.53 186.67 159.88 187.91 160.86 188.45 Z M 161.73 188.91 L 162.61 189.41 C 163.58 189.94 164.80 189.60 165.34 188.63 C 165.88 187.67 165.53 186.45 164.57 185.91 L 163.68 185.42 C 162.72 184.88 161.50 185.22 160.96 186.19 C 160.42 187.15 160.77 188.37 161.73 188.91 Z M 162.62 189.38 L 163.51 189.88 C 164.46 190.41 165.66 190.08 166.20 189.13 C 166.73 188.18 166.40 186.98 165.45 186.44 L 164.56 185.94 C 163.61 185.40 162.41 185.74 161.87 186.69 C 161.33 187.64 161.67 188.84 162.62 189.38 Z M 163.51 189.85 L 164.38 190.34 C 165.31 190.88 166.50 190.56 167.04 189.62 C 167.57 188.69 167.25 187.50 166.31 186.97 L 165.44 186.47 C 164.51 185.94 163.32 186.26 162.79 187.19 C 162.26 188.12 162.58 189.31 163.51 189.85 Z M 164.39 190.31 L 165.26 190.82 C 166.17 191.35 167.34 191.04 167.87 190.12 C 168.40 189.21 168.09 188.04 167.18 187.51 L 166.31 187.00 C 165.40 186.47 164.22 186.78 163.69 187.70 C 163.16 188.61 163.47 189.78 164.39 190.31 Z M 165.26 190.78 L 166.12 191.29 C 167.02 191.82 168.17 191.52 168.70 190.62 C 169.22 189.73 168.93 188.58 168.03 188.05 L 167.17 187.54 C 166.28 187.02 165.12 187.31 164.60 188.21 C 164.07 189.10 164.37 190.25 165.26 190.78 Z M 166.13 191.26 L 167.01 191.78 C 167.88 192.31 169.02 192.02 169.54 191.15 C 170.07 190.27 169.78 189.14 168.91 188.61 L 168.03 188.08 C 167.15 187.56 166.02 187.84 165.49 188.72 C 164.97 189.59 165.25 190.73 166.13 191.26 Z M 167.00 191.75 L 167.86 192.27 C 168.71 192.80 169.83 192.53 170.36 191.67 C 170.89 190.82 170.62 189.69 169.76 189.17 L 168.91 188.65 C 168.05 188.12 166.93 188.39 166.41 189.24 C 165.88 190.10 166.15 191.22 167.00 191.75 Z M 167.85 192.23 L 168.67 192.75 C 169.51 193.28 170.61 193.03 171.14 192.20 C 171.67 191.36 171.42 190.25 170.59 189.73 L 169.77 189.21 C 168.93 188.68 167.82 188.92 167.29 189.76 C 166.76 190.60 167.01 191.70 167.85 192.23 Z M 168.66 192.71 L 169.52 193.28 C 170.34 193.81 171.43 193.59 171.96 192.77 C 172.50 191.96 172.27 190.86 171.46 190.33 L 170.60 189.76 C 169.78 189.23 168.69 189.46 168.15 190.27 C 167.62 191.09 167.85 192.18 168.66 192.71 Z M 169.52 193.25 L 170.35 193.80 C 171.15 194.34 172.23 194.12 172.76 193.33 C 173.29 192.53 173.08 191.45 172.29 190.92 L 171.46 190.36 C 170.66 189.83 169.58 190.04 169.05 190.84 C 168.51 191.63 168.72 192.71 169.52 193.25 Z M 170.37 193.78 L 171.18 194.32 C 171.96 194.85 173.02 194.64 173.55 193.86 C 174.08 193.08 173.87 192.01 173.08 191.49 L 172.27 190.94 C 171.49 190.42 170.43 190.62 169.90 191.41 C 169.37 192.19 169.58 193.25 170.37 193.78 Z M 171.20 194.31 L 172.06 194.88 C 172.84 195.39 173.88 195.18 174.39 194.41 C 174.91 193.63 174.70 192.59 173.92 192.07 L 173.06 191.50 C 172.29 190.99 171.24 191.20 170.73 191.98 C 170.21 192.75 170.43 193.80 171.20 194.31 Z M 172.07 194.86 L 172.89 195.40 C 173.65 195.91 174.69 195.71 175.19 194.94 C 175.70 194.18 175.49 193.15 174.73 192.64 L 173.91 192.09 C 173.15 191.59 172.12 191.79 171.61 192.56 C 171.10 193.32 171.31 194.35 172.07 194.86 Z M 172.88 195.37 L 173.66 195.91 C 174.41 196.42 175.43 196.23 175.94 195.48 C 176.45 194.74 176.26 193.72 175.52 193.20 L 174.74 192.67 C 173.99 192.16 172.97 192.35 172.46 193.10 C 171.95 193.84 172.14 194.86 172.88 195.37 Z M 173.64 195.87 L 174.42 196.43 C 175.14 196.95 176.15 196.79 176.68 196.06 C 177.20 195.34 177.04 194.32 176.31 193.80 L 175.54 193.24 C 174.81 192.72 173.80 192.88 173.27 193.61 C 172.75 194.33 172.91 195.35 173.64 195.87 Z M 174.39 196.39 L 175.25 197.04 C 175.96 197.58 176.96 197.44 177.50 196.74 C 178.03 196.03 177.89 195.02 177.19 194.49 L 176.33 193.84 C 175.63 193.30 174.62 193.44 174.09 194.14 C 173.55 194.85 173.69 195.86 174.39 196.39 Z M 175.24 197.02 L 175.96 197.58 C 176.65 198.12 177.65 198.00 178.19 197.31 C 178.73 196.62 178.61 195.62 177.92 195.08 L 177.20 194.51 C 176.51 193.97 175.51 194.09 174.97 194.78 C 174.43 195.47 174.55 196.47 175.24 197.02 Z M 175.95 197.57 L 176.73 198.19 C 177.41 198.74 178.41 198.62 178.96 197.94 C 179.50 197.26 179.39 196.26 178.71 195.71 L 177.93 195.09 C 177.24 194.55 176.25 194.66 175.70 195.34 C 175.15 196.02 175.27 197.02 175.95 197.57 Z M 176.73 198.18 L 177.55 198.84 C 178.23 199.39 179.22 199.28 179.77 198.60 C 180.31 197.92 180.21 196.93 179.53 196.38 L 178.71 195.72 C 178.03 195.18 177.04 195.29 176.49 195.96 C 175.94 196.64 176.05 197.63 176.73 198.18 Z M 177.55 198.84 L 177.99 199.19 C 178.66 199.73 179.65 199.63 180.20 198.95 C 180.74 198.28 180.64 197.29 179.96 196.74 L 179.53 196.39 C 178.85 195.85 177.86 195.95 177.32 196.63 C 176.77 197.30 176.88 198.29 177.55 198.84 Z"
      fill="black"
      fill-rule="nonzero" /></svg>