<svg xmlns="http://www.w3.org/2000/svg" width="300" height="300" viewBox="0 0 300 300">
<path d="M 135.85 115.11 L 135.70 116.07 C 135.55 116.96 136.16 117.81 137.06 117.95 C 137.95 118.09 138.79 117.48 138.93 116.59 L 139.09 115.63 C 139.23 114.74 138.62 113.90 137.73 113.75 C 136.84 113.61 135.99 114.22 135.85 115.11 Z M 135.66 115.99 L 135.45 116.97 C 135.26 117.88 135.85 118.78 136.77 118.97 C 137.69 119.16 138.58 118.57 138.77 117.65 L 138.97 116.67 C 139.16 115.76 138.58 114.86 137.66 114.67 C 136.74 114.48 135.85 115.07 135.66 115.99 Z M 135.44 116.82 L 135.16 117.80 C 134.89 118.72 135.42 119.68 136.34 119.96 C 137.26 120.23 138.23 119.70 138.50 118.77 L 138.78 117.80 C 139.05 116.88 138.52 115.91 137.60 115.64 C 136.68 115.37 135.71 115.90 135.44 116.82 Z M 135.18 117.66 L 134.82 118.60 C 134.47 119.51 134.93 120.53 135.84 120.88 C 136.75 121.22 137.77 120.76 138.12 119.85 L 138.48 118.91 C 138.82 118.00 138.37 116.98 137.45 116.64 C 136.54 116.29 135.52 116.75 135.18 117.66 Z M 134.84 118.50 L 134.43 119.43 C 134.03 120.33 134.44 121.38 135.34 121.78 C 136.24 122.17 137.29 121.77 137.69 120.87 L 138.10 119.95 C 138.49 119.05 138.09 118.00 137.19 117.60 C 136.29 117.20 135.24 117.61 134.84 118.50 Z M 134.45 119.36 L 134.04 120.20 C 133.60 121.09 133.97 122.16 134.85 122.60 C 135.74 123.04 136.81 122.67 137.25 121.79 L 137.66 120.94 C 138.10 120.05 137.74 118.98 136.85 118.55 C 135.96 118.11 134.89 118.47 134.45 119.36 Z M 134.07 120.14 L 133.63 120.95 C 133.16 121.81 133.48 122.90 134.35 123.38 C 135.22 123.85 136.30 123.53 136.78 122.66 L 137.22 121.85 C 137.69 120.98 137.37 119.89 136.50 119.42 C 135.63 118.95 134.54 119.27 134.07 120.14 Z M 133.67 120.88 L 133.14 121.77 C 132.63 122.61 132.90 123.72 133.75 124.23 C 134.60 124.73 135.70 124.46 136.21 123.61 L 136.74 122.72 C 137.25 121.88 136.97 120.78 136.13 120.27 C 135.28 119.76 134.18 120.03 133.67 120.88 Z M 133.16 121.72 L 132.60 122.60 C 132.07 123.43 132.31 124.54 133.14 125.07 C 133.97 125.61 135.08 125.37 135.62 124.53 L 136.18 123.66 C 136.71 122.82 136.47 121.71 135.64 121.18 C 134.81 120.65 133.70 120.89 133.16 121.72 Z M 132.62 122.57 L 132.08 123.38 C 131.54 124.20 131.76 125.31 132.58 125.86 C 133.41 126.41 134.52 126.18 135.07 125.36 L 135.60 124.56 C 136.15 123.74 135.92 122.62 135.10 122.08 C 134.28 121.53 133.17 121.75 132.62 122.57 Z M 132.10 123.36 L 131.52 124.21 C 130.96 125.02 131.17 126.14 131.99 126.69 C 132.80 127.25 133.92 127.04 134.47 126.23 L 135.05 125.38 C 135.61 124.56 135.40 123.45 134.58 122.89 C 133.77 122.33 132.65 122.54 132.10 123.36 Z M 131.53 124.19 L 130.93 125.05 C 130.37 125.86 130.56 126.98 131.37 127.54 C 132.18 128.11 133.30 127.91 133.86 127.10 L 134.46 126.24 C 135.03 125.43 134.83 124.31 134.02 123.75 C 133.21 123.18 132.09 123.38 131.53 124.19 Z M 130.94 125.04 L 130.35 125.87 C 129.78 126.67 129.96 127.79 130.77 128.36 C 131.57 128.93 132.69 128.75 133.26 127.94 L 133.85 127.11 C 134.43 126.31 134.24 125.19 133.44 124.62 C 132.63 124.05 131.52 124.23 130.94 125.04 Z M 130.37 125.85 L 129.72 126.74 C 129.14 127.53 129.31 128.65 130.10 129.23 C 130.89 129.81 132.01 129.64 132.59 128.85 L 133.24 127.96 C 133.83 127.16 133.65 126.05 132.86 125.47 C 132.07 124.88 130.95 125.06 130.37 125.85 Z M 129.74 126.72 L 129.13 127.53 C 128.53 128.31 128.68 129.42 129.46 130.02 C 130.24 130.61 131.36 130.46 131.95 129.68 L 132.57 128.87 C 133.16 128.09 133.01 126.97 132.23 126.38 C 131.45 125.79 130.34 125.94 129.74 126.72 Z M 129.15 127.51 L 128.56 128.26 C 127.96 129.02 128.09 130.13 128.85 130.74 C 129.61 131.34 130.72 131.21 131.33 130.45 L 131.92 129.70 C 132.53 128.93 132.40 127.83 131.63 127.22 C 130.87 126.62 129.76 126.75 129.15 127.51 Z M 128.59 128.24 L 128.00 128.95 C 127.38 129.70 127.49 130.81 128.23 131.42 C 128.98 132.04 130.09 131.94 130.70 131.19 L 131.30 130.47 C 131.91 129.72 131.81 128.62 131.06 128.00 C 130.32 127.38 129.21 127.49 128.59 128.24 Z M 128.04 128.92 L 127.36 129.69 C 126.72 130.42 126.80 131.52 127.52 132.16 C 128.25 132.79 129.35 132.72 129.99 131.99 L 130.67 131.22 C 131.30 130.49 131.23 129.39 130.50 128.76 C 129.78 128.12 128.67 128.19 128.04 128.92 Z M 127.42 129.64 L 126.73 130.36 C 126.07 131.06 126.09 132.15 126.78 132.82 C 127.48 133.48 128.58 133.46 129.24 132.76 L 129.93 132.05 C 130.59 131.35 130.57 130.25 129.87 129.59 C 129.18 128.93 128.08 128.95 127.42 129.64 Z M 126.81 130.29 L 126.10 130.95 C 125.40 131.60 125.35 132.69 126.00 133.40 C 126.65 134.10 127.74 134.14 128.44 133.49 L 129.16 132.83 C 129.86 132.19 129.90 131.09 129.25 130.39 C 128.61 129.69 127.51 129.65 126.81 130.29 Z M 126.21 130.88 L 125.43 131.50 C 124.69 132.09 124.56 133.17 125.15 133.91 C 125.74 134.65 126.82 134.77 127.56 134.18 L 128.34 133.56 C 129.08 132.98 129.20 131.90 128.61 131.16 C 128.02 130.42 126.95 130.30 126.21 130.88 Z M 125.52 131.46 L 124.71 132.03 C 123.94 132.57 123.76 133.62 124.29 134.38 C 124.83 135.15 125.88 135.33 126.64 134.80 L 127.46 134.22 C 128.22 133.69 128.41 132.64 127.87 131.87 C 127.34 131.11 126.29 130.93 125.52 131.46 Z M 124.77 132.02 L 123.93 132.57 C 123.16 133.07 122.94 134.10 123.44 134.87 C 123.94 135.64 124.97 135.85 125.74 135.35 L 126.58 134.81 C 127.35 134.31 127.57 133.28 127.07 132.51 C 126.57 131.74 125.54 131.52 124.77 132.02 Z M 123.95 132.57 L 123.70 132.74 C 122.93 133.22 122.71 134.24 123.20 135.01 C 123.68 135.77 124.70 136.00 125.47 135.51 L 125.72 135.35 C 126.49 134.86 126.71 133.84 126.22 133.08 C 125.73 132.31 124.72 132.09 123.95 132.57 Z"
      fill="black"
      fill-rule="nonzero" /><path d="M 139.67 120.79 L 140.73 120.73 C 141.79 120.67 142.60 119.76 142.54 118.70 C 142.48 117.64 141.57 116.83 140.51 116.89 L 139.45 116.95 C 138.39 117.01 137.58 117.92 137.64 118.98 C 137.70 120.04 138.61 120.85 139.67 120.79 Z M 140.76 120.76 L 141.78 120.69 C 142.86 120.61 143.67 119.67 143.59 118.60 C 143.51 117.52 142.57 116.71 141.50 116.79 L 140.48 116.86 C 139.40 116.94 138.59 117.87 138.67 118.95 C 138.75 120.03 139.68 120.84 140.76 120.76 Z M 141.86 120.71 L 142.79 120.61 C 143.89 120.49 144.67 119.51 144.55 118.42 C 144.43 117.32 143.45 116.54 142.36 116.66 L 141.42 116.76 C 140.33 116.88 139.54 117.86 139.66 118.96 C 139.78 120.05 140.77 120.83 141.86 120.71 Z M 142.94 120.59 L 143.96 120.40 C 145.04 120.20 145.75 119.16 145.55 118.08 C 145.35 117.00 144.31 116.29 143.23 116.49 L 142.21 116.68 C 141.13 116.88 140.42 117.92 140.62 119.00 C 140.82 120.08 141.86 120.79 142.94 120.59 Z M 144.10 120.33 L 145.04 120.08 C 146.08 119.80 146.70 118.73 146.42 117.68 C 146.14 116.64 145.06 116.02 144.02 116.30 L 143.08 116.56 C 142.04 116.84 141.42 117.91 141.70 118.95 C 141.98 120.00 143.06 120.61 144.10 120.33 Z M 145.08 120.03 L 146.00 119.76 C 147.02 119.45 147.60 118.38 147.29 117.36 C 146.99 116.35 145.92 115.77 144.90 116.08 L 143.98 116.35 C 142.96 116.66 142.39 117.73 142.69 118.74 C 142.99 119.76 144.07 120.34 145.08 120.03 Z M 145.98 119.74 L 146.94 119.46 C 147.95 119.17 148.53 118.12 148.24 117.11 C 147.95 116.10 146.89 115.52 145.88 115.81 L 144.92 116.09 C 143.91 116.38 143.33 117.44 143.62 118.45 C 143.92 119.45 144.97 120.04 145.98 119.74 Z M 146.94 119.46 L 147.90 119.18 C 148.91 118.89 149.49 117.84 149.20 116.84 C 148.91 115.83 147.86 115.25 146.86 115.54 L 145.89 115.81 C 144.89 116.10 144.30 117.15 144.59 118.16 C 144.88 119.17 145.93 119.75 146.94 119.46 Z M 147.91 119.17 L 148.87 118.90 C 149.87 118.61 150.45 117.56 150.16 116.55 C 149.87 115.55 148.82 114.98 147.82 115.27 L 146.85 115.55 C 145.85 115.84 145.27 116.88 145.56 117.89 C 145.86 118.89 146.90 119.47 147.91 119.17 Z M 148.87 118.89 L 149.82 118.61 C 150.82 118.32 151.40 117.27 151.11 116.28 C 150.82 115.28 149.77 114.70 148.77 114.99 L 147.82 115.27 C 146.82 115.56 146.24 116.61 146.53 117.61 C 146.82 118.61 147.87 119.18 148.87 118.89 Z M 149.82 118.61 L 150.77 118.33 C 151.77 118.05 152.34 117.00 152.06 116.01 C 151.77 115.01 150.73 114.43 149.73 114.72 L 148.78 115.00 C 147.78 115.28 147.20 116.33 147.49 117.32 C 147.78 118.32 148.82 118.90 149.82 118.61 Z M 150.77 118.33 L 151.73 118.05 C 152.73 117.76 153.30 116.72 153.01 115.73 C 152.72 114.73 151.68 114.16 150.69 114.45 L 149.73 114.72 C 148.73 115.01 148.16 116.05 148.45 117.05 C 148.74 118.05 149.78 118.62 150.77 118.33 Z M 151.75 118.05 L 152.71 117.76 C 153.71 117.46 154.27 116.41 153.97 115.42 C 153.67 114.43 152.63 113.87 151.64 114.16 L 150.67 114.45 C 149.68 114.75 149.12 115.80 149.41 116.79 C 149.71 117.78 150.76 118.34 151.75 118.05 Z M 152.73 117.75 L 153.68 117.45 C 154.67 117.14 155.22 116.09 154.91 115.11 C 154.60 114.12 153.55 113.57 152.56 113.88 L 151.62 114.17 C 150.63 114.48 150.08 115.53 150.39 116.52 C 150.70 117.51 151.75 118.06 152.73 117.75 Z M 153.68 117.45 L 154.64 117.15 C 155.63 116.84 156.18 115.79 155.87 114.80 C 155.56 113.81 154.51 113.27 153.52 113.58 L 152.56 113.88 C 151.57 114.19 151.02 115.24 151.33 116.23 C 151.64 117.21 152.70 117.76 153.68 117.45 Z M 154.63 117.15 L 155.58 116.86 C 156.57 116.56 157.13 115.51 156.82 114.52 C 156.52 113.54 155.48 112.98 154.49 113.28 L 153.53 113.57 C 152.55 113.87 151.99 114.92 152.29 115.91 C 152.59 116.90 153.64 117.45 154.63 117.15 Z M 155.57 116.86 L 156.53 116.58 C 157.52 116.28 158.08 115.24 157.79 114.25 C 157.49 113.26 156.45 112.70 155.46 112.99 L 154.50 113.28 C 153.51 113.57 152.95 114.62 153.24 115.61 C 153.54 116.60 154.58 117.16 155.57 116.86 Z M 156.52 116.58 L 157.49 116.29 C 158.48 116.00 159.05 114.96 158.75 113.97 C 158.46 112.98 157.42 112.41 156.43 112.71 L 155.46 112.99 C 154.47 113.29 153.91 114.33 154.20 115.32 C 154.49 116.31 155.53 116.87 156.52 116.58 Z M 157.49 116.29 L 158.44 116.01 C 159.43 115.71 159.99 114.67 159.69 113.68 C 159.40 112.70 158.36 112.13 157.37 112.43 L 156.43 112.71 C 155.44 113.01 154.87 114.05 155.17 115.03 C 155.47 116.02 156.51 116.59 157.49 116.29 Z M 158.44 116.01 L 159.40 115.72 C 160.39 115.42 160.95 114.38 160.65 113.39 C 160.35 112.41 159.31 111.85 158.32 112.14 L 157.37 112.43 C 156.38 112.73 155.82 113.77 156.11 114.76 C 156.41 115.74 157.45 116.30 158.44 116.01 Z M 159.40 115.72 L 160.37 115.43 C 161.36 115.13 161.92 114.09 161.62 113.10 C 161.33 112.11 160.29 111.55 159.30 111.85 L 158.32 112.14 C 157.34 112.44 156.78 113.48 157.07 114.47 C 157.37 115.45 158.41 116.01 159.40 115.72 Z M 160.37 115.43 L 161.35 115.13 C 162.33 114.84 162.89 113.80 162.60 112.81 C 162.30 111.82 161.26 111.26 160.28 111.56 L 159.30 111.85 C 158.31 112.14 157.75 113.19 158.05 114.17 C 158.34 115.16 159.38 115.72 160.37 115.43 Z M 161.34 115.14 L 162.30 114.85 C 163.29 114.56 163.85 113.52 163.56 112.53 C 163.26 111.54 162.22 110.98 161.23 111.27 L 160.28 111.56 C 159.29 111.85 158.73 112.89 159.02 113.88 C 159.32 114.87 160.36 115.43 161.34 115.14 Z M 162.30 114.85 L 163.27 114.56 C 164.26 114.27 164.83 113.23 164.53 112.24 C 164.24 111.25 163.20 110.69 162.21 110.98 L 161.24 111.27 C 160.25 111.56 159.68 112.60 159.98 113.59 C 160.27 114.58 161.31 115.15 162.30 114.85 Z M 163.27 114.57 L 164.23 114.28 C 165.22 113.99 165.79 112.96 165.50 111.97 C 165.21 110.97 164.17 110.41 163.18 110.70 L 162.22 110.98 C 161.23 111.27 160.66 112.31 160.95 113.30 C 161.24 114.29 162.28 114.86 163.27 114.57 Z M 164.22 114.29 L 165.13 114.03 C 166.12 113.75 166.70 112.72 166.42 111.72 C 166.14 110.73 165.10 110.15 164.11 110.43 L 163.20 110.69 C 162.20 110.97 161.63 112.00 161.91 113.00 C 162.19 113.99 163.22 114.57 164.22 114.29 Z M 165.11 114.04 L 165.95 113.81 C 166.94 113.54 167.54 112.52 167.27 111.52 C 167.00 110.52 165.97 109.93 164.97 110.20 L 164.13 110.42 C 163.13 110.69 162.54 111.72 162.81 112.72 C 163.08 113.72 164.11 114.31 165.11 114.04 Z M 165.93 113.82 L 166.90 113.57 C 167.90 113.31 168.51 112.29 168.25 111.28 C 167.99 110.28 166.96 109.68 165.96 109.94 L 164.99 110.19 C 163.98 110.45 163.38 111.47 163.64 112.48 C 163.90 113.48 164.92 114.08 165.93 113.82 Z M 166.89 113.58 L 167.96 113.31 C 168.97 113.05 169.58 112.03 169.32 111.02 C 169.07 110.01 168.04 109.40 167.03 109.66 L 165.97 109.93 C 164.96 110.18 164.35 111.21 164.60 112.22 C 164.86 113.22 165.88 113.83 166.89 113.58 Z M 167.95 113.32 L 168.89 113.08 C 169.90 112.83 170.52 111.81 170.27 110.80 C 170.02 109.79 169.00 109.17 167.98 109.42 L 167.04 109.65 C 166.03 109.90 165.41 110.92 165.67 111.94 C 165.92 112.95 166.94 113.57 167.95 113.32 Z M 168.87 113.09 L 169.88 112.86 C 170.90 112.62 171.53 111.60 171.29 110.58 C 171.05 109.56 170.03 108.93 169.01 109.17 L 168.01 109.41 C 166.99 109.65 166.36 110.67 166.60 111.68 C 166.84 112.70 167.85 113.33 168.87 113.09 Z M 169.85 112.87 L 170.86 112.65 C 171.89 112.43 172.54 111.42 172.32 110.40 C 172.10 109.37 171.09 108.72 170.07 108.94 L 169.05 109.16 C 168.03 109.38 167.37 110.39 167.59 111.41 C 167.81 112.44 168.82 113.09 169.85 112.87 Z M 170.80 112.67 L 171.83 112.48 C 172.87 112.30 173.55 111.31 173.37 110.27 C 173.18 109.24 172.19 108.55 171.16 108.74 L 170.13 108.92 C 169.09 109.11 168.41 110.10 168.59 111.13 C 168.78 112.17 169.77 112.85 170.80 112.67 Z M 171.67 112.52 L 172.85 112.41 C 173.91 112.32 174.69 111.38 174.59 110.33 C 174.49 109.27 173.56 108.49 172.50 108.59 L 171.32 108.70 C 170.26 108.79 169.48 109.73 169.58 110.78 C 169.68 111.84 170.61 112.62 171.67 112.52 Z M 172.33 112.41 L 173.22 112.57 C 174.28 112.76 175.29 112.06 175.48 111.00 C 175.67 109.95 174.97 108.94 173.91 108.75 L 173.02 108.59 C 171.96 108.40 170.95 109.10 170.76 110.16 C 170.58 111.21 171.28 112.22 172.33 112.41 Z M 172.17 112.05 L 172.69 112.57 C 173.45 113.34 174.70 113.34 175.47 112.58 C 176.24 111.81 176.24 110.57 175.48 109.80 L 174.96 109.28 C 174.20 108.51 172.95 108.50 172.18 109.27 C 171.41 110.03 171.41 111.28 172.17 112.05 Z M 172.14 111.59 L 172.31 112.37 C 172.54 113.44 173.59 114.12 174.66 113.90 C 175.73 113.67 176.42 112.61 176.19 111.54 L 176.02 110.77 C 175.79 109.70 174.74 109.01 173.67 109.24 C 172.60 109.47 171.92 110.52 172.14 111.59 Z M 172.25 111.92 L 172.24 112.93 C 172.22 114.03 173.09 114.94 174.20 114.96 C 175.30 114.98 176.21 114.10 176.23 113.00 L 176.25 111.99 C 176.26 110.89 175.39 109.98 174.28 109.96 C 173.18 109.94 172.27 110.82 172.25 111.92 Z M 172.23 112.77 L 172.12 113.93 C 172.01 115.04 172.81 116.02 173.92 116.13 C 175.02 116.24 176.01 115.43 176.12 114.33 L 176.23 113.16 C 176.34 112.06 175.53 111.07 174.43 110.97 C 173.32 110.86 172.34 111.66 172.23 112.77 Z M 172.11 113.92 L 171.99 115.00 C 171.87 116.11 172.68 117.10 173.79 117.22 C 174.90 117.34 175.89 116.54 176.01 115.43 L 176.13 114.34 C 176.24 113.23 175.44 112.24 174.33 112.12 C 173.22 112.00 172.23 112.81 172.11 113.92 Z M 171.99 115.02 L 171.89 116.05 C 171.78 117.16 172.60 118.15 173.71 118.26 C 174.82 118.36 175.81 117.55 175.92 116.43 L 176.02 115.41 C 176.12 114.29 175.31 113.31 174.20 113.20 C 173.08 113.09 172.09 113.91 171.99 115.02 Z M 171.88 116.06 L 171.79 117.07 C 171.69 118.19 172.51 119.17 173.63 119.27 C 174.74 119.37 175.73 118.55 175.83 117.44 L 175.92 116.42 C 176.02 115.31 175.20 114.32 174.09 114.22 C 172.97 114.12 171.99 114.94 171.88 116.06 Z M 171.79 117.07 L 171.70 118.05 C 171.60 119.16 172.42 120.15 173.54 120.25 C 174.65 120.35 175.64 119.53 175.74 118.41 L 175.83 117.44 C 175.93 116.32 175.11 115.34 173.99 115.24 C 172.88 115.13 171.89 115.96 171.79 117.07 Z M 171.70 118.04 L 171.61 119.02 C 171.50 120.13 172.32 121.13 173.43 121.23 C 174.55 121.34 175.54 120.52 175.65 119.41 L 175.74 118.42 C 175.85 117.31 175.03 116.32 173.92 116.21 C 172.80 116.10 171.81 116.92 171.70 118.04 Z M 171.61 119.00 L 171.50 120.02 C 171.38 121.14 172.19 122.14 173.31 122.25 C 174.42 122.37 175.42 121.56 175.54 120.45 L 175.65 119.43 C 175.76 118.31 174.95 117.31 173.84 117.19 C 172.72 117.08 171.73 117.89 171.61 119.00 Z M 171.50 120.01 L 171.40 120.98 C 171.27 122.09 172.07 123.10 173.19 123.22 C 174.30 123.34 175.31 122.54 175.43 121.43 L 175.54 120.46 C 175.66 119.35 174.86 118.34 173.74 118.22 C 172.63 118.09 171.63 118.90 171.50 120.01 Z M 171.40 120.98 L 171.29 121.94 C 171.16 123.05 171.97 124.06 173.08 124.18 C 174.19 124.30 175.20 123.50 175.32 122.39 L 175.43 121.43 C 175.55 120.31 174.75 119.31 173.64 119.18 C 172.52 119.06 171.52 119.86 171.40 120.98 Z M 171.29 121.95 L 171.19 122.90 C 171.07 124.01 171.87 125.01 172.99 125.13 C 174.10 125.25 175.10 124.44 175.22 123.33 L 175.32 122.38 C 175.44 121.27 174.64 120.27 173.52 120.15 C 172.41 120.03 171.41 120.83 171.29 121.95 Z M 171.19 122.90 L 171.08 123.88 C 170.96 125.00 171.77 125.99 172.88 126.11 C 174.00 126.23 175.00 125.42 175.12 124.31 L 175.22 123.33 C 175.34 122.21 174.53 121.21 173.42 121.10 C 172.30 120.98 171.30 121.78 171.19 122.90 Z M 171.08 123.87 L 170.97 124.89 C 170.85 126.00 171.65 127.00 172.77 127.13 C 173.88 127.25 174.88 126.44 175.00 125.33 L 175.12 124.32 C 175.24 123.20 174.43 122.20 173.32 122.08 C 172.21 121.96 171.20 122.76 171.08 123.87 Z M 170.97 124.87 L 170.85 125.89 C 170.72 127.00 171.52 128.01 172.63 128.14 C 173.74 128.27 174.75 127.48 174.88 126.36 L 175.00 125.35 C 175.13 124.23 174.34 123.22 173.23 123.09 C 172.11 122.96 171.10 123.76 170.97 124.87 Z M 170.85 125.87 L 170.74 126.80 C 170.60 127.91 171.38 128.92 172.49 129.06 C 173.61 129.21 174.62 128.42 174.76 127.31 L 174.88 126.38 C 175.02 125.27 174.23 124.26 173.12 124.11 C 172.01 123.97 171.00 124.76 170.85 125.87 Z M 170.74 126.79 L 170.61 127.74 C 170.47 128.86 171.25 129.87 172.36 130.02 C 173.47 130.16 174.49 129.38 174.63 128.27 L 174.76 127.32 C 174.91 126.21 174.12 125.19 173.01 125.04 C 171.90 124.90 170.89 125.68 170.74 126.79 Z M 170.61 127.75 L 170.48 128.75 C 170.34 129.86 171.12 130.88 172.23 131.02 C 173.34 131.17 174.36 130.39 174.50 129.28 L 174.63 128.27 C 174.78 127.16 174.00 126.14 172.89 126.00 C 171.78 125.85 170.76 126.64 170.61 127.75 Z M 170.48 128.77 L 170.35 129.84 C 170.21 130.95 171.00 131.96 172.11 132.10 C 173.22 132.24 174.23 131.45 174.37 130.34 L 174.50 129.27 C 174.64 128.16 173.85 127.14 172.74 127.01 C 171.63 126.87 170.62 127.66 170.48 128.77 Z M 170.35 129.86 L 170.23 130.89 C 170.10 132.00 170.90 133.00 172.00 133.13 C 173.11 133.26 174.11 132.47 174.24 131.36 L 174.36 130.32 C 174.49 129.22 173.70 128.21 172.59 128.09 C 171.49 127.96 170.48 128.75 170.35 129.86 Z M 170.24 130.91 L 170.13 131.96 C 170.01 133.07 170.81 134.05 171.91 134.17 C 173.01 134.29 174.00 133.50 174.12 132.40 L 174.23 131.35 C 174.35 130.24 173.56 129.25 172.45 129.13 C 171.35 129.01 170.36 129.81 170.24 130.91 Z M 170.14 131.98 L 170.04 133.02 C 169.93 134.11 170.72 135.09 171.82 135.20 C 172.91 135.31 173.89 134.51 174.00 133.42 L 174.10 132.38 C 174.22 131.29 173.42 130.31 172.32 130.20 C 171.23 130.09 170.25 130.89 170.14 131.98 Z M 170.05 133.04 L 169.96 134.01 C 169.86 135.10 170.66 136.06 171.75 136.16 C 172.84 136.26 173.80 135.46 173.90 134.37 L 173.99 133.40 C 174.09 132.31 173.29 131.35 172.20 131.25 C 171.11 131.15 170.15 131.95 170.05 133.04 Z M 169.98 134.04 L 169.90 134.97 C 169.82 136.05 170.62 136.99 171.70 137.07 C 172.78 137.16 173.72 136.35 173.81 135.28 L 173.88 134.35 C 173.97 133.27 173.16 132.33 172.08 132.24 C 171.01 132.16 170.06 132.96 169.98 134.04 Z M 169.98 135.02 L 169.91 136.19 C 169.86 137.23 170.65 138.12 171.69 138.18 C 172.73 138.23 173.61 137.44 173.67 136.40 L 173.74 135.22 C 173.79 134.19 173.00 133.30 171.96 133.24 C 170.92 133.19 170.03 133.98 169.98 135.02 Z M 170.03 136.26 L 170.01 137.17 C 169.99 138.14 170.76 138.94 171.74 138.96 C 172.71 138.98 173.51 138.21 173.53 137.24 L 173.55 136.33 C 173.57 135.36 172.80 134.56 171.83 134.54 C 170.86 134.52 170.05 135.29 170.03 136.26 Z M 170.12 137.20 L 170.12 137.72 C 170.11 138.63 170.85 139.38 171.77 139.38 C 172.68 139.38 173.43 138.64 173.43 137.73 L 173.43 137.21 C 173.43 136.29 172.69 135.55 171.78 135.55 C 170.86 135.55 170.12 136.28 170.12 137.20 Z"
      fill="black"
      fill-rule="nonzero" /><path d="M 139.87 128.60 L 138.96 129.42 C 138.15 130.14 138.09 131.38 138.81 132.18 C 139.53 132.98 140.76 133.05 141.56 132.33 L 142.47 131.51 C 143.28 130.79 143.34 129.56 142.62 128.75 C 141.90 127.95 140.67 127.88 139.87 128.60 Z M 138.31 131.23 L 138.36 131.49 C 138.55 132.57 139.58 133.29 140.66 133.09 C 141.74 132.90 142.45 131.86 142.26 130.79 L 142.21 130.52 C 142.02 129.44 140.99 128.73 139.91 128.92 C 138.83 129.12 138.11 130.15 138.31 131.23 Z M 140.74 133.09 L 141.56 132.90 C 142.64 132.66 143.31 131.60 143.07 130.52 C 142.83 129.45 141.76 128.77 140.69 129.01 L 139.87 129.19 C 138.80 129.43 138.12 130.50 138.36 131.57 C 138.60 132.65 139.67 133.33 140.74 133.09 Z M 141.72 132.86 L 143.08 132.44 C 144.13 132.11 144.72 130.99 144.39 129.94 C 144.07 128.89 142.95 128.30 141.90 128.63 L 140.53 129.05 C 139.48 129.38 138.89 130.50 139.22 131.55 C 139.54 132.60 140.66 133.19 141.72 132.86 Z M 143.10 132.43 L 143.90 132.18 C 144.95 131.84 145.53 130.71 145.19 129.66 C 144.85 128.61 143.73 128.04 142.68 128.37 L 141.88 128.63 C 140.83 128.97 140.25 130.09 140.59 131.14 C 140.92 132.19 142.05 132.77 143.10 132.43 Z M 143.90 132.17 L 144.79 131.89 C 145.84 131.55 146.42 130.43 146.08 129.38 C 145.74 128.33 144.62 127.75 143.57 128.09 L 142.68 128.38 C 141.63 128.71 141.06 129.84 141.39 130.89 C 141.73 131.93 142.85 132.51 143.90 132.17 Z M 144.79 131.89 L 145.76 131.58 C 146.80 131.24 147.38 130.12 147.05 129.07 C 146.71 128.02 145.59 127.45 144.54 127.78 L 143.58 128.09 C 142.53 128.42 141.95 129.55 142.29 130.59 C 142.62 131.64 143.74 132.22 144.79 131.89 Z M 145.75 131.58 L 146.77 131.25 C 147.82 130.92 148.40 129.80 148.07 128.76 C 147.74 127.71 146.62 127.13 145.57 127.46 L 144.55 127.78 C 143.50 128.11 142.92 129.23 143.25 130.28 C 143.58 131.33 144.70 131.91 145.75 131.58 Z M 146.76 131.25 L 147.82 130.92 C 148.87 130.60 149.46 129.49 149.13 128.44 C 148.81 127.39 147.70 126.80 146.65 127.13 L 145.58 127.46 C 144.54 127.78 143.95 128.90 144.27 129.94 C 144.60 130.99 145.71 131.58 146.76 131.25 Z M 147.81 130.92 L 148.80 130.63 C 149.84 130.31 150.44 129.20 150.12 128.15 C 149.80 127.10 148.69 126.51 147.64 126.83 L 146.66 127.13 C 145.61 127.45 145.02 128.55 145.34 129.60 C 145.66 130.65 146.76 131.24 147.81 130.92 Z M 148.78 130.62 L 149.74 130.34 C 150.79 130.03 151.38 128.93 151.07 127.88 C 150.76 126.84 149.67 126.24 148.62 126.55 L 147.66 126.83 C 146.61 127.14 146.02 128.24 146.33 129.29 C 146.64 130.33 147.73 130.93 148.78 130.62 Z M 149.72 130.33 L 150.69 130.05 C 151.74 129.75 152.34 128.66 152.04 127.62 C 151.74 126.58 150.65 125.97 149.60 126.28 L 148.64 126.55 C 147.59 126.85 146.99 127.94 147.29 128.99 C 147.59 130.03 148.68 130.63 149.72 130.33 Z M 150.68 130.05 L 151.64 129.78 C 152.69 129.49 153.29 128.41 153.00 127.36 C 152.71 126.32 151.63 125.72 150.59 126.01 L 149.62 126.28 C 148.58 126.57 147.97 127.65 148.26 128.69 C 148.55 129.73 149.63 130.34 150.68 130.05 Z M 151.63 129.77 L 152.60 129.51 C 153.63 129.23 154.25 128.16 153.96 127.12 C 153.68 126.08 152.61 125.47 151.57 125.75 L 150.61 126.01 C 149.57 126.29 148.95 127.37 149.24 128.40 C 149.52 129.44 150.59 130.06 151.63 129.77 Z M 152.58 129.51 L 153.54 129.25 C 154.57 128.98 155.19 127.92 154.92 126.88 C 154.65 125.85 153.59 125.23 152.55 125.50 L 151.59 125.75 C 150.56 126.03 149.94 127.09 150.21 128.12 C 150.48 129.16 151.54 129.78 152.58 129.51 Z M 153.52 129.25 L 154.56 128.98 C 155.60 128.72 156.22 127.67 155.96 126.64 C 155.70 125.61 154.65 124.98 153.62 125.24 L 152.57 125.51 C 151.54 125.77 150.91 126.82 151.18 127.85 C 151.44 128.88 152.48 129.51 153.52 129.25 Z M 154.54 128.97 L 155.62 128.71 C 156.65 128.47 157.28 127.43 157.03 126.40 C 156.78 125.38 155.75 124.74 154.72 124.99 L 153.64 125.25 C 152.62 125.50 151.98 126.53 152.23 127.56 C 152.48 128.59 153.51 129.22 154.54 128.97 Z M 155.60 128.70 L 156.63 128.47 C 157.65 128.23 158.29 127.21 158.05 126.19 C 157.81 125.17 156.79 124.53 155.77 124.76 L 154.74 125.00 C 153.72 125.24 153.08 126.26 153.32 127.28 C 153.56 128.30 154.58 128.94 155.60 128.70 Z M 156.61 128.45 L 157.57 128.24 C 158.58 128.02 159.22 127.01 159.00 125.99 C 158.77 124.98 157.77 124.34 156.75 124.56 L 155.79 124.78 C 154.77 125.00 154.13 126.01 154.36 127.02 C 154.59 128.04 155.59 128.68 156.61 128.45 Z M 157.55 128.23 L 158.42 128.04 C 159.43 127.83 160.07 126.84 159.86 125.83 C 159.64 124.82 158.65 124.17 157.64 124.39 L 156.77 124.57 C 155.76 124.79 155.12 125.78 155.33 126.79 C 155.55 127.80 156.54 128.45 157.55 128.23 Z M 158.40 128.03 L 159.37 127.83 C 160.37 127.63 161.02 126.65 160.81 125.65 C 160.61 124.65 159.64 124.01 158.63 124.21 L 157.66 124.41 C 156.66 124.61 156.02 125.58 156.22 126.58 C 156.42 127.58 157.40 128.23 158.40 128.03 Z M 159.33 127.80 L 160.40 127.60 C 161.39 127.42 162.04 126.48 161.86 125.50 C 161.68 124.51 160.73 123.86 159.75 124.04 L 158.67 124.24 C 157.69 124.42 157.04 125.36 157.22 126.35 C 157.40 127.33 158.34 127.98 159.33 127.80 Z M 160.34 127.57 L 161.22 127.44 C 162.18 127.29 162.84 126.39 162.70 125.42 C 162.55 124.46 161.65 123.80 160.69 123.94 L 159.81 124.08 C 158.84 124.22 158.18 125.12 158.33 126.09 C 158.48 127.05 159.38 127.72 160.34 127.57 Z M 161.16 127.40 L 162.05 127.29 C 162.99 127.18 163.67 126.32 163.56 125.38 C 163.44 124.43 162.58 123.76 161.64 123.87 L 160.75 123.98 C 159.80 124.09 159.13 124.95 159.24 125.89 C 159.35 126.84 160.21 127.51 161.16 127.40 Z M 162.01 127.26 L 163.00 127.17 C 163.93 127.08 164.61 126.25 164.52 125.32 C 164.43 124.39 163.60 123.71 162.67 123.80 L 161.68 123.90 C 160.75 123.99 160.07 124.82 160.16 125.74 C 160.25 126.67 161.08 127.35 162.01 127.26 Z M 162.98 127.14 L 163.96 127.06 C 164.87 126.98 165.55 126.17 165.47 125.26 C 165.39 124.35 164.59 123.67 163.68 123.75 L 162.70 123.83 C 161.78 123.91 161.11 124.71 161.18 125.63 C 161.26 126.54 162.06 127.22 162.98 127.14 Z"
      fill="black"
      fill-rule="nonzero" /><path d="M 132.84 149.65 L 133.37 150.27 C 133.99 151.01 135.08 151.10 135.81 150.48 C 136.55 149.86 136.64 148.77 136.02 148.04 L 135.49 147.41 C 134.87 146.68 133.78 146.58 133.04 147.20 C 132.31 147.82 132.22 148.91 132.84 149.65 Z M 133.27 150.19 L 133.85 150.99 C 134.42 151.78 135.52 151.95 136.31 151.38 C 137.09 150.81 137.27 149.71 136.70 148.92 L 136.12 148.12 C 135.55 147.34 134.45 147.16 133.66 147.73 C 132.87 148.30 132.70 149.40 133.27 150.19 Z M 133.75 150.87 L 134.34 151.85 C 134.84 152.70 135.94 152.97 136.78 152.46 C 137.62 151.96 137.89 150.87 137.39 150.03 L 136.80 149.04 C 136.30 148.20 135.20 147.93 134.36 148.43 C 133.52 148.94 133.24 150.03 133.75 150.87 Z M 134.30 151.77 L 134.75 152.61 C 135.21 153.47 136.28 153.80 137.14 153.34 C 138.00 152.88 138.33 151.81 137.87 150.95 L 137.42 150.11 C 136.97 149.25 135.90 148.92 135.03 149.38 C 134.17 149.84 133.84 150.91 134.30 151.77 Z M 134.76 152.56 L 135.23 153.48 C 135.66 154.34 136.70 154.69 137.56 154.25 C 138.41 153.82 138.76 152.78 138.33 151.92 L 137.86 151.00 C 137.43 150.14 136.39 149.80 135.53 150.23 C 134.67 150.66 134.33 151.70 134.76 152.56 Z M 135.24 153.45 L 135.71 154.40 C 136.12 155.25 137.14 155.60 137.99 155.18 C 138.83 154.77 139.18 153.75 138.77 152.90 L 138.31 151.96 C 137.89 151.11 136.87 150.76 136.03 151.17 C 135.18 151.59 134.83 152.61 135.24 153.45 Z M 135.73 154.38 L 136.17 155.29 C 136.57 156.12 137.57 156.47 138.40 156.07 C 139.24 155.67 139.58 154.67 139.18 153.84 L 138.75 152.93 C 138.34 152.09 137.34 151.74 136.51 152.15 C 135.68 152.55 135.33 153.55 135.73 154.38 Z M 136.20 155.28 L 136.69 156.29 C 137.08 157.10 138.07 157.45 138.88 157.05 C 139.70 156.65 140.04 155.67 139.64 154.85 L 139.16 153.85 C 138.76 153.03 137.78 152.69 136.96 153.08 C 136.14 153.48 135.80 154.46 136.20 155.28 Z M 136.72 156.28 L 137.17 157.21 C 137.56 158.01 138.53 158.34 139.33 157.94 C 140.13 157.55 140.46 156.58 140.07 155.78 L 139.62 154.86 C 139.22 154.06 138.25 153.73 137.45 154.12 C 136.65 154.51 136.32 155.48 136.72 156.28 Z M 137.19 157.20 L 137.60 158.02 C 137.99 158.81 138.95 159.13 139.73 158.74 C 140.52 158.35 140.84 157.39 140.45 156.61 L 140.04 155.78 C 139.65 155.00 138.70 154.68 137.91 155.07 C 137.12 155.46 136.80 156.41 137.19 157.20 Z M 137.62 158.02 L 137.87 158.51 C 138.26 159.29 139.20 159.60 139.98 159.22 C 140.75 158.83 141.07 157.89 140.68 157.11 L 140.43 156.61 C 140.04 155.84 139.10 155.52 138.33 155.91 C 137.55 156.30 137.24 157.24 137.62 158.02 Z"
      fill="black"
      fill-rule="nonzero" /><path d="M 140.75 150.27 L 140.60 149.26 C 140.47 148.40 139.66 147.81 138.80 147.94 C 137.93 148.07 137.34 148.87 137.47 149.74 L 137.62 150.74 C 137.75 151.61 138.56 152.20 139.42 152.07 C 140.29 151.94 140.88 151.13 140.75 150.27 Z M 140.62 149.23 L 140.45 148.25 C 140.30 147.37 139.47 146.78 138.60 146.93 C 137.72 147.08 137.13 147.91 137.28 148.78 L 137.45 149.77 C 137.59 150.65 138.43 151.24 139.30 151.09 C 140.18 150.94 140.77 150.11 140.62 149.23 Z M 140.48 148.18 L 140.27 147.17 C 140.09 146.28 139.21 145.71 138.32 145.89 C 137.43 146.08 136.86 146.95 137.04 147.84 L 137.25 148.85 C 137.44 149.74 138.31 150.31 139.20 150.13 C 140.09 149.94 140.67 149.07 140.48 148.18 Z M 140.36 147.31 L 140.24 146.30 C 140.13 145.36 139.28 144.69 138.34 144.80 C 137.40 144.91 136.73 145.76 136.84 146.70 L 136.95 147.71 C 137.06 148.65 137.92 149.32 138.86 149.21 C 139.80 149.10 140.47 148.25 140.36 147.31 Z M 140.18 147.23 L 140.52 146.48 C 140.92 145.57 140.52 144.51 139.61 144.11 C 138.71 143.70 137.65 144.10 137.24 145.01 L 136.90 145.77 C 136.50 146.67 136.90 147.73 137.81 148.14 C 138.71 148.54 139.77 148.14 140.18 147.23 Z M 139.84 147.31 L 140.53 146.89 C 141.40 146.36 141.67 145.22 141.14 144.36 C 140.61 143.49 139.48 143.22 138.61 143.75 L 137.92 144.18 C 137.06 144.71 136.78 145.84 137.31 146.70 C 137.84 147.57 138.97 147.84 139.84 147.31 Z M 140.19 147.06 L 141.18 146.71 C 142.14 146.37 142.64 145.31 142.30 144.35 C 141.95 143.38 140.90 142.88 139.93 143.22 L 138.95 143.57 C 137.99 143.92 137.48 144.98 137.83 145.94 C 138.17 146.90 139.23 147.41 140.19 147.06 Z M 141.08 146.76 L 142.22 146.42 C 143.20 146.13 143.77 145.09 143.48 144.10 C 143.18 143.12 142.15 142.55 141.16 142.84 L 140.02 143.18 C 139.04 143.47 138.47 144.51 138.76 145.50 C 139.06 146.49 140.10 147.05 141.08 146.76 Z M 142.23 146.42 L 143.20 146.13 C 144.19 145.83 144.74 144.78 144.44 143.79 C 144.14 142.80 143.09 142.25 142.10 142.55 L 141.14 142.84 C 140.15 143.14 139.59 144.19 139.90 145.18 C 140.20 146.17 141.24 146.73 142.23 146.42 Z M 143.22 146.12 L 144.19 145.81 C 145.18 145.50 145.72 144.45 145.41 143.46 C 145.10 142.48 144.05 141.93 143.06 142.24 L 142.08 142.55 C 141.10 142.87 140.55 143.92 140.87 144.91 C 141.18 145.89 142.23 146.44 143.22 146.12 Z M 144.21 145.81 L 145.16 145.50 C 146.15 145.18 146.68 144.12 146.36 143.14 C 146.04 142.15 144.99 141.62 144.00 141.94 L 143.05 142.25 C 142.06 142.57 141.53 143.63 141.85 144.61 C 142.17 145.59 143.22 146.13 144.21 145.81 Z M 145.17 145.49 L 146.09 145.19 C 147.07 144.87 147.60 143.81 147.28 142.83 C 146.96 141.85 145.90 141.31 144.92 141.64 L 144.00 141.94 C 143.01 142.26 142.48 143.32 142.81 144.30 C 143.13 145.29 144.19 145.82 145.17 145.49 Z M 146.09 145.18 L 147.03 144.87 C 148.00 144.55 148.53 143.49 148.21 142.52 C 147.88 141.54 146.83 141.01 145.86 141.34 L 144.92 141.65 C 143.94 141.97 143.41 143.02 143.74 144.00 C 144.06 144.97 145.11 145.50 146.09 145.18 Z M 147.02 144.85 L 147.93 144.55 C 148.90 144.23 149.43 143.19 149.11 142.22 C 148.79 141.26 147.75 140.73 146.78 141.05 L 145.86 141.35 C 144.90 141.67 144.37 142.71 144.69 143.68 C 145.01 144.65 146.05 145.17 147.02 144.85 Z M 147.92 144.54 L 148.89 144.22 C 149.85 143.91 150.37 142.88 150.06 141.92 C 149.75 140.96 148.72 140.44 147.76 140.75 L 146.79 141.06 C 145.83 141.38 145.31 142.41 145.62 143.37 C 145.93 144.32 146.96 144.85 147.92 144.54 Z M 148.87 144.21 L 149.82 143.91 C 150.77 143.60 151.30 142.59 150.99 141.63 C 150.69 140.68 149.67 140.16 148.72 140.46 L 147.77 140.76 C 146.82 141.07 146.29 142.09 146.60 143.04 C 146.90 143.99 147.92 144.52 148.87 144.21 Z M 149.81 143.90 L 150.76 143.60 C 151.71 143.30 152.24 142.29 151.94 141.34 C 151.64 140.40 150.63 139.87 149.68 140.17 L 148.73 140.47 C 147.78 140.77 147.25 141.78 147.55 142.72 C 147.85 143.67 148.86 144.20 149.81 143.90 Z M 150.75 143.60 L 151.73 143.29 C 152.68 143.00 153.21 142.00 152.92 141.05 C 152.63 140.11 151.62 139.58 150.68 139.87 L 149.70 140.17 C 148.75 140.46 148.22 141.47 148.51 142.41 C 148.80 143.36 149.81 143.89 150.75 143.60 Z M 151.72 143.29 L 152.69 142.99 C 153.64 142.71 154.17 141.72 153.89 140.77 C 153.60 139.83 152.61 139.30 151.67 139.58 L 150.69 139.88 C 149.75 140.16 149.22 141.15 149.50 142.09 C 149.79 143.04 150.78 143.57 151.72 143.29 Z M 152.68 142.99 L 153.68 142.69 C 154.62 142.42 155.16 141.44 154.89 140.50 C 154.62 139.56 153.63 139.02 152.69 139.29 L 151.68 139.59 C 150.75 139.86 150.21 140.84 150.48 141.78 C 150.75 142.72 151.74 143.26 152.68 142.99 Z M 153.67 142.69 L 154.69 142.40 C 155.63 142.14 156.18 141.17 155.91 140.23 C 155.65 139.29 154.68 138.75 153.74 139.01 L 152.71 139.30 C 151.78 139.56 151.23 140.53 151.49 141.47 C 151.76 142.41 152.73 142.95 153.67 142.69 Z M 154.68 142.40 L 155.62 142.14 C 156.55 141.88 157.10 140.92 156.85 139.99 C 156.59 139.05 155.62 138.50 154.69 138.76 L 153.75 139.01 C 152.82 139.27 152.27 140.24 152.52 141.17 C 152.78 142.10 153.75 142.65 154.68 142.40 Z M 155.62 142.13 L 156.49 141.89 C 157.41 141.64 157.96 140.67 157.70 139.75 C 157.45 138.82 156.49 138.27 155.56 138.53 L 154.69 138.77 C 153.76 139.02 153.22 139.98 153.47 140.91 C 153.73 141.84 154.69 142.39 155.62 142.13 Z M 156.50 141.88 L 157.44 141.62 C 158.36 141.35 158.90 140.39 158.64 139.47 C 158.38 138.54 157.41 138.01 156.49 138.27 L 155.55 138.54 C 154.62 138.80 154.08 139.76 154.35 140.69 C 154.61 141.61 155.57 142.15 156.50 141.88 Z M 157.44 141.62 L 158.38 141.35 C 159.30 141.09 159.84 140.13 159.58 139.20 C 159.32 138.28 158.36 137.74 157.43 138.00 L 156.49 138.27 C 155.57 138.53 155.03 139.49 155.29 140.41 C 155.55 141.34 156.51 141.88 157.44 141.62 Z M 158.35 141.36 L 159.36 141.09 C 160.29 140.84 160.84 139.89 160.59 138.96 C 160.34 138.03 159.39 137.48 158.46 137.73 L 157.46 138.00 C 156.53 138.24 155.98 139.20 156.22 140.12 C 156.47 141.05 157.42 141.60 158.35 141.36 Z M 159.32 141.10 L 160.30 140.87 C 161.24 140.64 161.81 139.69 161.58 138.76 C 161.36 137.82 160.41 137.25 159.48 137.48 L 158.50 137.71 C 157.56 137.94 156.99 138.89 157.21 139.82 C 157.44 140.76 158.39 141.33 159.32 141.10 Z M 160.26 140.89 L 161.27 140.67 C 162.22 140.46 162.82 139.53 162.62 138.58 C 162.41 137.63 161.48 137.03 160.53 137.24 L 159.52 137.45 C 158.57 137.66 157.97 138.59 158.17 139.54 C 158.38 140.49 159.31 141.09 160.26 140.89 Z M 161.21 140.69 L 162.18 140.52 C 163.14 140.35 163.78 139.43 163.61 138.47 C 163.44 137.51 162.53 136.87 161.57 137.04 L 160.59 137.21 C 159.63 137.38 158.99 138.30 159.16 139.26 C 159.33 140.22 160.25 140.86 161.21 140.69 Z M 162.05 140.56 L 163.13 140.45 C 164.11 140.36 164.83 139.48 164.73 138.50 C 164.64 137.52 163.76 136.80 162.78 136.90 L 161.70 137.00 C 160.72 137.10 160.00 137.97 160.10 138.95 C 160.19 139.94 161.07 140.65 162.05 140.56 Z M 162.61 140.47 L 163.54 140.64 C 164.53 140.84 165.48 140.19 165.67 139.20 C 165.87 138.21 165.22 137.25 164.23 137.06 L 163.30 136.88 C 162.31 136.69 161.35 137.34 161.16 138.33 C 160.97 139.32 161.62 140.28 162.61 140.47 Z M 162.47 140.07 L 163.01 140.70 C 163.68 141.48 164.85 141.57 165.64 140.90 C 166.42 140.23 166.51 139.05 165.84 138.27 L 165.30 137.64 C 164.63 136.86 163.45 136.77 162.67 137.44 C 161.89 138.11 161.79 139.28 162.47 140.07 Z M 162.58 139.92 L 162.79 140.80 C 163.03 141.81 164.05 142.44 165.07 142.20 C 166.09 141.95 166.71 140.93 166.47 139.92 L 166.26 139.04 C 166.02 138.03 165.00 137.40 163.98 137.64 C 162.97 137.88 162.34 138.90 162.58 139.92 Z M 162.72 140.43 L 162.76 141.49 C 162.80 142.55 163.69 143.37 164.74 143.33 C 165.80 143.29 166.62 142.40 166.58 141.35 L 166.54 140.28 C 166.50 139.23 165.61 138.41 164.56 138.45 C 163.50 138.49 162.68 139.37 162.72 140.43 Z M 162.75 141.27 L 162.66 142.35 C 162.58 143.41 163.37 144.34 164.43 144.43 C 165.49 144.51 166.42 143.72 166.51 142.66 L 166.59 141.57 C 166.68 140.51 165.88 139.58 164.82 139.50 C 163.76 139.42 162.83 140.21 162.75 141.27 Z M 162.68 142.18 L 162.52 143.12 C 162.33 144.17 163.04 145.17 164.10 145.35 C 165.15 145.53 166.15 144.83 166.33 143.77 L 166.49 142.83 C 166.68 141.78 165.97 140.78 164.91 140.60 C 163.86 140.42 162.86 141.12 162.68 142.18 Z M 162.54 142.96 L 162.30 143.90 C 162.04 144.94 162.67 146.00 163.70 146.27 C 164.74 146.53 165.80 145.90 166.07 144.86 L 166.31 143.92 C 166.57 142.88 165.94 141.83 164.90 141.56 C 163.86 141.30 162.81 141.92 162.54 142.96 Z M 162.33 143.79 L 162.01 144.78 C 161.68 145.80 162.24 146.90 163.27 147.23 C 164.29 147.56 165.39 147.00 165.72 145.97 L 166.04 144.98 C 166.37 143.96 165.81 142.86 164.78 142.53 C 163.76 142.20 162.66 142.76 162.33 143.79 Z M 162.03 144.71 L 161.70 145.62 C 161.33 146.63 161.85 147.75 162.86 148.12 C 163.87 148.49 164.99 147.97 165.36 146.96 L 165.70 146.05 C 166.07 145.03 165.55 143.91 164.53 143.54 C 163.52 143.17 162.40 143.69 162.03 144.71 Z M 161.71 145.58 L 161.36 146.47 C 160.97 147.47 161.46 148.60 162.47 149.00 C 163.47 149.39 164.61 148.90 165.00 147.89 L 165.35 147.00 C 165.74 146.00 165.25 144.87 164.24 144.47 C 163.24 144.08 162.11 144.57 161.71 145.58 Z M 161.38 146.43 L 160.99 147.36 C 160.58 148.35 161.05 149.50 162.04 149.91 C 163.04 150.33 164.18 149.86 164.60 148.86 L 164.99 147.93 C 165.40 146.93 164.93 145.79 163.93 145.38 C 162.94 144.96 161.79 145.43 161.38 146.43 Z M 161.01 147.32 L 160.59 148.28 C 160.15 149.27 160.60 150.42 161.59 150.85 C 162.57 151.29 163.73 150.84 164.16 149.85 L 164.58 148.90 C 165.02 147.91 164.57 146.76 163.58 146.32 C 162.59 145.89 161.44 146.33 161.01 147.32 Z M 160.60 148.24 L 160.15 149.20 C 159.70 150.18 160.12 151.34 161.10 151.80 C 162.08 152.25 163.24 151.83 163.70 150.85 L 164.15 149.89 C 164.60 148.91 164.18 147.75 163.20 147.29 C 162.22 146.84 161.06 147.26 160.60 148.24 Z M 160.17 149.17 L 159.71 150.11 C 159.23 151.07 159.63 152.25 160.60 152.72 C 161.57 153.20 162.74 152.80 163.22 151.83 L 163.68 150.89 C 164.15 149.92 163.76 148.75 162.79 148.28 C 161.82 147.80 160.65 148.20 160.17 149.17 Z M 159.73 150.07 L 159.26 150.99 C 158.76 151.95 159.13 153.12 160.09 153.62 C 161.05 154.11 162.22 153.74 162.72 152.78 L 163.19 151.86 C 163.69 150.91 163.32 149.73 162.36 149.24 C 161.40 148.74 160.23 149.12 159.73 150.07 Z M 159.28 150.96 L 158.80 151.84 C 158.28 152.79 158.63 153.97 159.58 154.48 C 160.52 155.00 161.70 154.65 162.22 153.70 L 162.70 152.82 C 163.21 151.87 162.86 150.69 161.92 150.18 C 160.97 149.66 159.79 150.01 159.28 150.96 Z M 158.82 151.81 L 158.34 152.65 C 157.81 153.58 158.13 154.77 159.07 155.30 C 160.00 155.83 161.19 155.51 161.72 154.57 L 162.20 153.74 C 162.73 152.80 162.40 151.62 161.47 151.08 C 160.54 150.55 159.35 150.88 158.82 151.81 Z M 158.37 152.61 L 157.85 153.47 C 157.30 154.38 157.60 155.57 158.52 156.13 C 159.43 156.68 160.62 156.38 161.17 155.46 L 161.69 154.61 C 162.24 153.69 161.94 152.50 161.03 151.95 C 160.11 151.40 158.92 151.69 158.37 152.61 Z M 157.90 153.43 L 157.31 154.35 C 156.74 155.25 157.00 156.43 157.89 157.00 C 158.78 157.57 159.97 157.31 160.54 156.42 L 161.13 155.50 C 161.70 154.61 161.44 153.42 160.55 152.85 C 159.66 152.28 158.47 152.54 157.90 153.43 Z M 157.36 154.32 L 156.80 155.14 C 156.22 156.01 156.44 157.18 157.30 157.77 C 158.16 158.36 159.34 158.13 159.93 157.27 L 160.49 156.45 C 161.07 155.59 160.85 154.41 159.99 153.83 C 159.12 153.24 157.95 153.46 157.36 154.32 Z M 156.85 155.12 L 156.33 155.85 C 155.73 156.68 155.92 157.85 156.76 158.45 C 157.59 159.05 158.76 158.86 159.36 158.02 L 159.88 157.29 C 160.48 156.46 160.29 155.29 159.45 154.69 C 158.62 154.09 157.45 154.28 156.85 155.12 Z M 156.39 155.85 L 155.78 156.67 C 155.18 157.47 155.34 158.61 156.14 159.21 C 156.94 159.81 158.07 159.65 158.68 158.84 L 159.29 158.02 C 159.89 157.22 159.73 156.09 158.93 155.48 C 158.13 154.88 157.00 155.05 156.39 155.85 Z M 155.86 156.69 L 155.26 157.47 C 154.67 158.22 154.80 159.31 155.55 159.90 C 156.31 160.49 157.39 160.35 157.98 159.60 L 158.59 158.82 C 159.18 158.07 159.04 156.98 158.29 156.39 C 157.54 155.81 156.45 155.94 155.86 156.69 Z M 155.33 157.51 L 154.86 158.10 C 154.29 158.81 154.41 159.85 155.12 160.41 C 155.83 160.98 156.87 160.87 157.44 160.15 L 157.91 159.56 C 158.48 158.85 158.36 157.81 157.65 157.24 C 156.94 156.68 155.90 156.79 155.33 157.51 Z"
      fill="black"
      fill-rule="nonzero" /><path d="M 145.08 149.86 L 143.84 149.84 C 142.91 149.82 142.13 150.56 142.11 151.50 C 142.09 152.44 142.84 153.21 143.77 153.23 L 145.01 153.26 C 145.95 153.28 146.73 152.54 146.75 151.60 C 146.77 150.66 146.02 149.88 145.08 149.86 Z M 145.49 151.94 L 145.53 151.79 C 145.75 150.86 145.18 149.93 144.25 149.71 C 143.32 149.49 142.38 150.06 142.16 150.99 L 142.13 151.13 C 141.90 152.06 142.48 152.99 143.41 153.22 C 144.33 153.44 145.27 152.87 145.49 151.94 Z M 144.26 153.07 L 145.27 152.82 C 146.20 152.59 146.77 151.65 146.54 150.73 C 146.31 149.80 145.37 149.23 144.44 149.46 L 143.43 149.71 C 142.50 149.94 141.93 150.87 142.16 151.80 C 142.39 152.73 143.33 153.30 144.26 153.07 Z M 145.28 152.80 L 146.46 152.50 C 147.38 152.27 147.93 151.33 147.70 150.41 C 147.46 149.50 146.53 148.94 145.61 149.18 L 144.43 149.48 C 143.52 149.71 142.96 150.65 143.20 151.56 C 143.43 152.48 144.37 153.04 145.28 152.80 Z M 146.53 152.46 L 147.49 152.16 C 148.38 151.89 148.89 150.94 148.61 150.05 C 148.34 149.15 147.39 148.65 146.50 148.93 L 145.54 149.22 C 144.64 149.49 144.14 150.44 144.42 151.34 C 144.69 152.23 145.64 152.73 146.53 152.46 Z M 147.54 152.12 L 148.47 151.80 C 149.34 151.50 149.81 150.55 149.51 149.68 C 149.21 148.81 148.26 148.35 147.39 148.65 L 146.45 148.97 C 145.58 149.27 145.12 150.21 145.42 151.09 C 145.71 151.96 146.66 152.42 147.54 152.12 Z M 148.49 151.77 L 149.42 151.44 C 150.27 151.13 150.72 150.19 150.41 149.33 C 150.10 148.48 149.16 148.03 148.30 148.34 L 147.37 148.68 C 146.52 148.98 146.07 149.93 146.38 150.78 C 146.69 151.64 147.63 152.08 148.49 151.77 Z M 149.42 151.41 L 150.36 151.07 C 151.20 150.77 151.63 149.83 151.33 148.99 C 151.02 148.15 150.09 147.71 149.25 148.02 L 148.31 148.36 C 147.46 148.67 147.03 149.60 147.33 150.44 C 147.64 151.29 148.57 151.72 149.42 151.41 Z M 150.34 151.06 L 151.29 150.72 C 152.12 150.42 152.56 149.50 152.26 148.67 C 151.96 147.83 151.04 147.40 150.21 147.70 L 149.26 148.04 C 148.43 148.33 147.99 149.25 148.29 150.09 C 148.59 150.92 149.51 151.35 150.34 151.06 Z M 151.27 150.71 L 152.23 150.38 C 153.06 150.09 153.50 149.19 153.21 148.36 C 152.92 147.53 152.02 147.09 151.19 147.38 L 150.23 147.71 C 149.40 147.99 148.96 148.90 149.25 149.73 C 149.53 150.56 150.44 151.00 151.27 150.71 Z M 152.22 150.37 L 153.17 150.04 C 153.99 149.76 154.43 148.87 154.15 148.04 C 153.86 147.22 152.97 146.78 152.14 147.06 L 151.20 147.39 C 150.37 147.67 149.94 148.56 150.22 149.39 C 150.50 150.21 151.40 150.65 152.22 150.37 Z M 153.18 150.03 L 154.11 149.70 C 154.93 149.41 155.36 148.52 155.07 147.70 C 154.78 146.88 153.89 146.45 153.07 146.74 L 152.13 147.07 C 151.31 147.36 150.89 148.26 151.17 149.08 C 151.46 149.89 152.36 150.32 153.18 150.03 Z M 154.13 149.70 L 155.08 149.36 C 155.90 149.06 156.31 148.15 156.01 147.33 C 155.71 146.52 154.81 146.10 153.99 146.40 L 153.05 146.74 C 152.23 147.04 151.81 147.95 152.11 148.77 C 152.41 149.58 153.32 150.00 154.13 149.70 Z M 155.08 149.37 L 156.01 149.04 C 156.83 148.74 157.26 147.82 156.96 147.00 C 156.66 146.17 155.75 145.74 154.92 146.04 L 153.99 146.38 C 153.16 146.68 152.74 147.59 153.04 148.42 C 153.34 149.25 154.25 149.67 155.08 149.37 Z M 155.98 149.05 L 156.92 148.73 C 157.76 148.44 158.20 147.54 157.92 146.70 C 157.63 145.87 156.72 145.42 155.89 145.71 L 154.95 146.03 C 154.11 146.31 153.67 147.22 153.95 148.05 C 154.24 148.89 155.14 149.34 155.98 149.05 Z M 156.89 148.73 L 157.85 148.42 C 158.68 148.15 159.14 147.26 158.87 146.42 C 158.60 145.59 157.70 145.13 156.87 145.40 L 155.92 145.71 C 155.08 145.98 154.63 146.87 154.90 147.71 C 155.17 148.54 156.06 149.00 156.89 148.73 Z M 157.83 148.41 L 158.41 148.23 C 159.24 147.97 159.70 147.08 159.44 146.25 C 159.18 145.42 158.29 144.96 157.46 145.22 L 156.88 145.41 C 156.05 145.67 155.59 146.56 155.86 147.39 C 156.12 148.21 157.00 148.67 157.83 148.41 Z"
      fill="black"
      fill-rule="nonzero" /><path d="M 143.55 160.08 L 144.52 159.79 C 145.40 159.52 145.90 158.58 145.63 157.70 C 145.36 156.81 144.43 156.32 143.54 156.59 L 142.58 156.88 C 141.69 157.15 141.19 158.09 141.46 158.97 C 141.73 159.85 142.67 160.35 143.55 160.08 Z M 144.56 159.80 L 145.51 159.50 C 146.40 159.20 146.89 158.25 146.60 157.35 C 146.31 156.46 145.35 155.97 144.46 156.26 L 143.51 156.57 C 142.61 156.86 142.12 157.82 142.41 158.71 C 142.70 159.61 143.66 160.09 144.56 159.80 Z M 145.57 159.49 L 146.51 159.15 C 147.40 158.82 147.86 157.83 147.53 156.94 C 147.21 156.05 146.22 155.59 145.33 155.92 L 144.39 156.26 C 143.50 156.59 143.04 157.58 143.37 158.47 C 143.69 159.36 144.68 159.82 145.57 159.49 Z M 146.58 159.11 L 147.51 158.73 C 148.38 158.36 148.79 157.36 148.43 156.49 C 148.07 155.62 147.07 155.20 146.19 155.57 L 145.26 155.95 C 144.39 156.32 143.98 157.32 144.34 158.19 C 144.70 159.06 145.70 159.48 146.58 159.11 Z M 147.53 158.69 L 148.43 158.29 C 149.29 157.91 149.67 156.92 149.30 156.07 C 148.92 155.21 147.92 154.83 147.07 155.21 L 146.17 155.60 C 145.32 155.98 144.93 156.98 145.31 157.83 C 145.68 158.68 146.68 159.07 147.53 158.69 Z M 148.42 158.27 L 149.35 157.86 C 150.19 157.49 150.57 156.51 150.20 155.67 C 149.83 154.83 148.85 154.45 148.01 154.82 L 147.08 155.23 C 146.24 155.60 145.86 156.58 146.23 157.42 C 146.60 158.26 147.58 158.64 148.42 158.27 Z M 149.33 157.84 L 150.24 157.45 C 151.08 157.09 151.46 156.13 151.10 155.30 C 150.75 154.46 149.78 154.08 148.95 154.44 L 148.03 154.83 C 147.20 155.19 146.82 156.15 147.17 156.99 C 147.53 157.82 148.50 158.20 149.33 157.84 Z M 150.21 157.44 L 151.11 157.07 C 151.93 156.73 152.33 155.79 151.99 154.96 C 151.65 154.14 150.70 153.74 149.88 154.08 L 148.98 154.45 C 148.15 154.79 147.76 155.73 148.10 156.56 C 148.44 157.39 149.39 157.78 150.21 157.44 Z M 151.05 157.07 L 151.97 156.73 C 152.79 156.42 153.21 155.50 152.90 154.67 C 152.59 153.85 151.67 153.43 150.84 153.74 L 149.93 154.08 C 149.10 154.39 148.69 155.31 149.00 156.14 C 149.31 156.96 150.23 157.38 151.05 157.07 Z M 151.89 156.73 L 152.87 156.42 C 153.70 156.15 154.15 155.26 153.88 154.43 C 153.61 153.60 152.72 153.14 151.89 153.41 L 150.91 153.73 C 150.09 154.00 149.63 154.89 149.90 155.72 C 150.17 156.55 151.06 157.00 151.89 156.73 Z M 152.81 156.42 L 153.73 156.16 C 154.56 155.93 155.05 155.06 154.81 154.23 C 154.57 153.39 153.71 152.91 152.87 153.15 L 151.95 153.41 C 151.12 153.64 150.63 154.51 150.87 155.34 C 151.11 156.18 151.97 156.66 152.81 156.42 Z M 153.70 156.17 L 154.69 155.91 C 155.53 155.69 156.02 154.83 155.80 154.00 C 155.58 153.16 154.73 152.66 153.89 152.88 L 152.90 153.14 C 152.07 153.36 151.57 154.22 151.79 155.05 C 152.01 155.89 152.86 156.39 153.70 156.17 Z M 154.68 155.91 L 155.39 155.72 C 156.23 155.51 156.73 154.66 156.52 153.82 C 156.30 152.99 155.45 152.48 154.62 152.70 L 153.90 152.88 C 153.07 153.09 152.56 153.94 152.78 154.78 C 152.99 155.62 153.84 156.12 154.68 155.91 Z"
      fill="black"
      fill-rule="nonzero" /><path d="M 126.64 177.57 L 127.30 176.85 C 127.95 176.14 127.90 175.03 127.18 174.38 C 126.47 173.73 125.36 173.77 124.71 174.49 L 124.06 175.20 C 123.40 175.92 123.45 177.02 124.17 177.68 C 124.88 178.33 125.99 178.28 126.64 177.57 Z M 127.28 177.02 L 128.00 176.34 C 128.74 175.64 128.78 174.46 128.07 173.72 C 127.37 172.97 126.20 172.94 125.45 173.64 L 124.73 174.32 C 123.98 175.02 123.95 176.20 124.65 176.94 C 125.36 177.69 126.53 177.72 127.28 177.02 Z M 127.86 176.57 L 128.68 175.98 C 129.56 175.35 129.75 174.13 129.12 173.26 C 128.49 172.39 127.28 172.19 126.40 172.82 L 125.58 173.41 C 124.71 174.04 124.51 175.26 125.14 176.13 C 125.77 177.00 126.99 177.20 127.86 176.57 Z M 128.49 176.15 L 129.29 175.72 C 130.26 175.20 130.62 173.99 130.09 173.02 C 129.57 172.05 128.36 171.69 127.39 172.22 L 126.60 172.65 C 125.63 173.17 125.27 174.38 125.79 175.35 C 126.31 176.31 127.52 176.67 128.49 176.15 Z M 129.14 175.79 L 130.05 175.40 C 131.06 174.95 131.52 173.78 131.08 172.77 C 130.63 171.76 129.46 171.30 128.45 171.74 L 127.54 172.14 C 126.53 172.58 126.07 173.76 126.51 174.77 C 126.96 175.78 128.13 176.24 129.14 175.79 Z M 129.96 175.44 L 130.97 175.06 C 132.00 174.67 132.52 173.51 132.13 172.48 C 131.73 171.45 130.58 170.93 129.55 171.32 L 128.54 171.70 C 127.51 172.09 126.99 173.25 127.38 174.28 C 127.77 175.31 128.93 175.83 129.96 175.44 Z M 130.92 175.08 L 131.90 174.73 C 132.94 174.37 133.49 173.23 133.13 172.19 C 132.77 171.14 131.63 170.59 130.58 170.96 L 129.60 171.30 C 128.56 171.66 128.01 172.80 128.37 173.85 C 128.73 174.89 129.87 175.44 130.92 175.08 Z M 131.87 174.74 L 132.84 174.42 C 133.89 174.07 134.45 172.94 134.11 171.89 C 133.76 170.84 132.62 170.28 131.58 170.62 L 130.61 170.95 C 129.56 171.29 128.99 172.43 129.34 173.48 C 129.69 174.52 130.82 175.09 131.87 174.74 Z M 132.81 174.43 L 133.79 174.12 C 134.84 173.78 135.43 172.66 135.09 171.60 C 134.75 170.55 133.63 169.97 132.57 170.30 L 131.60 170.62 C 130.55 170.95 129.96 172.08 130.30 173.13 C 130.63 174.18 131.76 174.77 132.81 174.43 Z M 133.77 174.13 L 134.72 173.84 C 135.78 173.52 136.37 172.40 136.05 171.34 C 135.73 170.28 134.61 169.68 133.55 170.01 L 132.60 170.30 C 131.54 170.62 130.94 171.74 131.27 172.80 C 131.59 173.86 132.71 174.45 133.77 174.13 Z M 134.69 173.85 L 135.67 173.56 C 136.73 173.26 137.34 172.15 137.03 171.08 C 136.73 170.02 135.62 169.41 134.55 169.71 L 133.58 170.00 C 132.51 170.30 131.90 171.42 132.21 172.48 C 132.52 173.54 133.63 174.15 134.69 173.85 Z M 135.63 173.57 L 136.64 173.30 C 137.71 173.01 138.34 171.91 138.05 170.84 C 137.76 169.77 136.66 169.14 135.59 169.43 L 134.58 169.71 C 133.52 170.00 132.89 171.10 133.18 172.16 C 133.47 173.23 134.57 173.86 135.63 173.57 Z M 136.61 173.31 L 137.56 173.06 C 138.63 172.79 139.27 171.70 139.00 170.63 C 138.73 169.56 137.64 168.91 136.57 169.19 L 135.62 169.43 C 134.55 169.70 133.90 170.79 134.18 171.86 C 134.45 172.93 135.54 173.58 136.61 173.31 Z M 137.53 173.07 L 138.45 172.85 C 139.52 172.58 140.18 171.50 139.92 170.43 C 139.66 169.36 138.58 168.70 137.51 168.96 L 136.59 169.18 C 135.52 169.44 134.86 170.52 135.12 171.60 C 135.38 172.67 136.46 173.33 137.53 173.07 Z M 138.44 172.85 L 139.39 172.62 C 140.46 172.37 141.13 171.29 140.87 170.22 C 140.62 169.14 139.54 168.48 138.47 168.73 L 137.52 168.96 C 136.44 169.21 135.78 170.29 136.03 171.36 C 136.29 172.44 137.37 173.10 138.44 172.85 Z M 139.38 172.62 L 140.35 172.40 C 141.43 172.15 142.09 171.07 141.84 170.00 C 141.59 168.92 140.52 168.25 139.44 168.50 L 138.48 168.73 C 137.40 168.98 136.73 170.06 136.98 171.13 C 137.23 172.21 138.31 172.87 139.38 172.62 Z M 140.34 172.40 L 141.33 172.17 C 142.40 171.93 143.08 170.85 142.83 169.78 C 142.58 168.70 141.51 168.03 140.44 168.28 L 139.45 168.50 C 138.38 168.75 137.70 169.82 137.95 170.90 C 138.20 171.97 139.27 172.65 140.34 172.40 Z M 141.32 172.17 L 142.29 171.95 C 143.37 171.71 144.04 170.64 143.80 169.57 C 143.56 168.49 142.49 167.81 141.41 168.06 L 140.44 168.28 C 139.37 168.52 138.69 169.59 138.93 170.66 C 139.18 171.74 140.25 172.42 141.32 172.17 Z M 142.29 171.96 L 143.25 171.74 C 144.33 171.50 145.01 170.44 144.77 169.36 C 144.53 168.28 143.46 167.60 142.38 167.84 L 141.42 168.06 C 140.34 168.30 139.66 169.36 139.90 170.44 C 140.14 171.52 141.21 172.20 142.29 171.96 Z M 143.24 171.74 L 144.23 171.53 C 145.30 171.29 145.99 170.23 145.75 169.15 C 145.52 168.08 144.45 167.39 143.38 167.63 L 142.39 167.84 C 141.31 168.08 140.63 169.14 140.87 170.22 C 141.10 171.29 142.16 171.98 143.24 171.74 Z M 144.22 171.53 L 145.22 171.32 C 146.30 171.09 146.98 170.03 146.75 168.95 C 146.52 167.87 145.46 167.18 144.38 167.41 L 143.38 167.63 C 142.31 167.86 141.62 168.92 141.85 169.99 C 142.08 171.07 143.14 171.76 144.22 171.53 Z M 145.21 171.32 L 146.17 171.12 C 147.25 170.89 147.94 169.84 147.72 168.76 C 147.49 167.68 146.44 166.99 145.36 167.21 L 144.39 167.41 C 143.31 167.64 142.62 168.69 142.85 169.77 C 143.07 170.85 144.13 171.54 145.21 171.32 Z M 146.17 171.12 L 147.14 170.92 C 148.22 170.70 148.92 169.64 148.70 168.56 C 148.47 167.48 147.42 166.79 146.34 167.01 L 145.37 167.21 C 144.29 167.43 143.59 168.49 143.81 169.56 C 144.03 170.64 145.09 171.34 146.17 171.12 Z M 147.14 170.92 L 148.13 170.72 C 149.20 170.50 149.90 169.44 149.68 168.37 C 149.46 167.29 148.41 166.59 147.33 166.81 L 146.35 167.01 C 145.27 167.23 144.57 168.28 144.79 169.36 C 145.01 170.44 146.06 171.13 147.14 170.92 Z M 148.12 170.71 L 149.11 170.51 C 150.19 170.30 150.89 169.24 150.67 168.17 C 150.45 167.09 149.40 166.39 148.32 166.61 L 147.33 166.81 C 146.26 167.03 145.56 168.08 145.78 169.16 C 146.00 170.24 147.05 170.93 148.12 170.71 Z M 149.11 170.51 L 150.09 170.31 C 151.17 170.09 151.87 169.04 151.65 167.97 C 151.43 166.89 150.38 166.20 149.30 166.41 L 148.32 166.61 C 147.25 166.83 146.55 167.88 146.77 168.96 C 146.99 170.03 148.04 170.73 149.11 170.51 Z M 150.09 170.31 L 151.08 170.11 C 152.15 169.89 152.85 168.84 152.63 167.77 C 152.41 166.69 151.36 166.00 150.28 166.22 L 149.30 166.42 C 148.23 166.63 147.53 167.68 147.75 168.76 C 147.97 169.84 149.02 170.53 150.09 170.31 Z M 151.08 170.11 L 152.06 169.91 C 153.13 169.69 153.83 168.64 153.61 167.57 C 153.39 166.49 152.34 165.80 151.27 166.02 L 150.29 166.22 C 149.21 166.44 148.52 167.48 148.73 168.56 C 148.95 169.63 150.00 170.33 151.08 170.11 Z M 152.06 169.91 L 153.03 169.71 C 154.11 169.50 154.80 168.45 154.58 167.37 C 154.36 166.30 153.32 165.60 152.24 165.82 L 151.27 166.02 C 150.19 166.24 149.50 167.28 149.72 168.36 C 149.93 169.43 150.98 170.13 152.06 169.91 Z M 153.03 169.71 L 154.00 169.51 C 155.08 169.30 155.77 168.25 155.55 167.17 C 155.33 166.10 154.29 165.41 153.21 165.62 L 152.24 165.82 C 151.17 166.04 150.47 167.09 150.69 168.16 C 150.91 169.24 151.96 169.93 153.03 169.71 Z M 154.01 169.51 L 154.99 169.31 C 156.06 169.09 156.75 168.04 156.53 166.97 C 156.30 165.89 155.26 165.20 154.18 165.42 L 153.21 165.63 C 152.13 165.85 151.44 166.90 151.67 167.97 C 151.89 169.04 152.94 169.73 154.01 169.51 Z M 155.00 169.31 L 155.98 169.10 C 157.05 168.87 157.74 167.82 157.51 166.74 C 157.28 165.67 156.23 164.99 155.16 165.22 L 154.17 165.43 C 153.10 165.66 152.42 166.71 152.64 167.78 C 152.87 168.85 153.93 169.54 155.00 169.31 Z M 156.00 169.10 L 156.99 168.88 C 158.06 168.64 158.73 167.58 158.50 166.51 C 158.26 165.44 157.20 164.76 156.13 165.00 L 155.14 165.22 C 154.07 165.46 153.40 166.52 153.63 167.59 C 153.87 168.66 154.93 169.33 156.00 169.10 Z M 157.00 168.87 L 157.99 168.65 C 159.06 168.40 159.73 167.34 159.48 166.27 C 159.24 165.20 158.18 164.53 157.11 164.78 L 156.12 165.01 C 155.05 165.25 154.38 166.31 154.63 167.38 C 154.87 168.45 155.93 169.12 157.00 168.87 Z M 158.00 168.64 L 158.99 168.41 C 160.05 168.16 160.71 167.10 160.47 166.03 C 160.22 164.96 159.15 164.30 158.08 164.55 L 157.10 164.78 C 156.03 165.03 155.37 166.10 155.62 167.16 C 155.87 168.23 156.94 168.89 158.00 168.64 Z M 158.99 168.41 L 159.95 168.19 C 161.01 167.93 161.67 166.87 161.42 165.80 C 161.17 164.73 160.10 164.07 159.03 164.33 L 158.08 164.55 C 157.01 164.80 156.35 165.87 156.60 166.94 C 156.86 168.00 157.92 168.66 158.99 168.41 Z M 159.94 168.19 L 160.95 167.95 C 162.02 167.70 162.68 166.63 162.43 165.56 C 162.18 164.50 161.11 163.84 160.04 164.09 L 159.04 164.33 C 157.97 164.58 157.31 165.64 157.56 166.71 C 157.81 167.78 158.88 168.44 159.94 168.19 Z M 160.95 167.95 L 161.95 167.71 C 163.01 167.46 163.67 166.40 163.42 165.33 C 163.17 164.26 162.10 163.60 161.04 163.85 L 160.04 164.09 C 158.97 164.34 158.31 165.41 158.57 166.47 C 158.82 167.54 159.88 168.20 160.95 167.95 Z M 161.95 167.71 L 162.90 167.49 C 163.97 167.23 164.62 166.16 164.37 165.10 C 164.11 164.03 163.04 163.37 161.98 163.63 L 161.03 163.86 C 159.96 164.11 159.31 165.18 159.56 166.25 C 159.82 167.31 160.89 167.97 161.95 167.71 Z M 162.92 167.48 L 163.83 167.26 C 164.89 166.99 165.54 165.92 165.28 164.85 C 165.01 163.79 163.94 163.14 162.87 163.41 L 161.96 163.63 C 160.90 163.90 160.25 164.97 160.51 166.04 C 160.78 167.10 161.85 167.75 162.92 167.48 Z M 163.85 167.25 L 164.77 167.01 C 165.83 166.74 166.46 165.65 166.19 164.59 C 165.91 163.53 164.83 162.90 163.77 163.17 L 162.85 163.41 C 161.79 163.69 161.16 164.77 161.43 165.83 C 161.71 166.89 162.79 167.53 163.85 167.25 Z M 164.79 167.01 L 165.74 166.75 C 166.80 166.47 167.42 165.38 167.14 164.32 C 166.85 163.26 165.76 162.64 164.71 162.92 L 163.75 163.18 C 162.70 163.46 162.07 164.55 162.36 165.61 C 162.64 166.67 163.73 167.29 164.79 167.01 Z M 165.75 166.75 L 166.79 166.46 C 167.85 166.17 168.46 165.08 168.17 164.02 C 167.88 162.96 166.79 162.35 165.73 162.64 L 164.69 162.92 C 163.64 163.22 163.02 164.31 163.31 165.36 C 163.60 166.42 164.70 167.04 165.75 166.75 Z M 166.79 166.46 L 167.75 166.19 C 168.80 165.90 169.42 164.80 169.13 163.75 C 168.83 162.69 167.74 162.08 166.68 162.37 L 165.73 162.64 C 164.67 162.93 164.06 164.03 164.35 165.08 C 164.65 166.14 165.74 166.75 166.79 166.46 Z M 167.74 166.20 L 168.74 165.92 C 169.80 165.63 170.42 164.53 170.12 163.48 C 169.83 162.42 168.74 161.80 167.68 162.09 L 166.69 162.37 C 165.63 162.66 165.01 163.75 165.30 164.81 C 165.59 165.87 166.69 166.49 167.74 166.20 Z M 168.73 165.92 L 169.71 165.66 C 170.77 165.37 171.40 164.29 171.11 163.23 C 170.83 162.17 169.74 161.54 168.68 161.83 L 167.70 162.09 C 166.64 162.37 166.01 163.46 166.29 164.52 C 166.58 165.58 167.67 166.21 168.73 165.92 Z M 169.69 165.67 L 170.63 165.43 C 171.69 165.16 172.33 164.08 172.06 163.01 C 171.79 161.95 170.71 161.31 169.65 161.58 L 168.71 161.82 C 167.65 162.09 167.00 163.17 167.27 164.23 C 167.54 165.29 168.62 165.94 169.69 165.67 Z M 170.58 165.44 L 171.66 165.20 C 172.73 164.95 173.40 163.89 173.16 162.82 C 172.91 161.75 171.85 161.08 170.78 161.32 L 169.70 161.57 C 168.63 161.81 167.96 162.87 168.20 163.94 C 168.44 165.01 169.51 165.68 170.58 165.44 Z M 171.61 165.21 L 172.55 165.02 C 173.63 164.81 174.33 163.76 174.11 162.68 C 173.90 161.60 172.85 160.90 171.77 161.12 L 170.83 161.31 C 169.75 161.52 169.05 162.57 169.27 163.65 C 169.48 164.72 170.53 165.42 171.61 165.21 Z M 172.52 165.03 L 173.28 164.89 C 174.36 164.69 175.07 163.65 174.88 162.57 C 174.68 161.49 173.64 160.77 172.56 160.97 L 171.80 161.11 C 170.72 161.31 170.00 162.35 170.20 163.43 C 170.40 164.51 171.44 165.23 172.52 165.03 Z"
      fill="black"
      fill-rule="nonzero" /><path d="M 148.74 123.97 L 149.26 124.82 C 149.78 125.67 150.88 125.93 151.72 125.42 C 152.57 124.90 152.83 123.80 152.32 122.96 L 151.80 122.10 C 151.28 121.26 150.18 120.99 149.34 121.51 C 148.49 122.02 148.23 123.13 148.74 123.97 Z M 149.13 124.56 L 149.50 125.48 C 149.87 126.40 150.92 126.84 151.84 126.47 C 152.75 126.10 153.19 125.05 152.82 124.13 L 152.45 123.22 C 152.08 122.30 151.03 121.86 150.12 122.23 C 149.20 122.60 148.76 123.65 149.13 124.56 Z M 149.37 125.00 L 149.47 125.92 C 149.58 126.90 150.47 127.62 151.45 127.51 C 152.44 127.40 153.15 126.52 153.05 125.53 L 152.95 124.61 C 152.84 123.63 151.96 122.91 150.97 123.02 C 149.98 123.13 149.27 124.01 149.37 125.00 Z M 149.46 125.58 L 149.38 126.57 C 149.30 127.56 150.05 128.43 151.04 128.51 C 152.04 128.59 152.91 127.84 152.99 126.85 L 153.06 125.86 C 153.14 124.87 152.40 124.00 151.40 123.92 C 150.40 123.84 149.53 124.59 149.46 125.58 Z M 149.38 126.47 L 149.24 127.55 C 149.11 128.54 149.81 129.46 150.81 129.59 C 151.80 129.72 152.72 129.02 152.85 128.02 L 152.99 126.94 C 153.12 125.95 152.42 125.03 151.42 124.90 C 150.42 124.77 149.51 125.47 149.38 126.47 Z M 149.23 127.58 L 149.12 128.59 C 149.01 129.59 149.73 130.50 150.73 130.61 C 151.73 130.72 152.64 129.99 152.75 128.99 L 152.86 127.98 C 152.97 126.98 152.25 126.08 151.24 125.97 C 150.24 125.86 149.34 126.58 149.23 127.58 Z M 149.11 128.63 L 149.02 129.65 C 148.94 130.66 149.68 131.54 150.69 131.63 C 151.69 131.72 152.58 130.97 152.67 129.97 L 152.75 128.95 C 152.84 127.94 152.09 127.06 151.09 126.97 C 150.08 126.88 149.20 127.63 149.11 128.63 Z M 149.02 129.69 L 148.96 130.66 C 148.89 131.67 149.66 132.54 150.67 132.60 C 151.68 132.67 152.54 131.90 152.61 130.89 L 152.67 129.93 C 152.73 128.92 151.97 128.05 150.96 127.98 C 149.95 127.92 149.08 128.69 149.02 129.69 Z M 148.95 130.71 L 148.91 131.77 C 148.88 132.78 149.66 133.63 150.68 133.67 C 151.69 133.70 152.54 132.91 152.57 131.90 L 152.61 130.84 C 152.65 129.83 151.86 128.98 150.85 128.95 C 149.84 128.91 148.99 129.70 148.95 130.71 Z M 148.91 131.80 L 148.89 132.77 C 148.88 133.78 149.68 134.62 150.69 134.63 C 151.71 134.65 152.54 133.85 152.56 132.83 L 152.57 131.87 C 152.59 130.86 151.79 130.02 150.78 130.00 C 149.76 129.99 148.93 130.79 148.91 131.80 Z M 148.89 132.77 L 148.88 133.68 C 148.86 134.69 149.66 135.52 150.68 135.54 C 151.69 135.56 152.52 134.76 152.54 133.75 L 152.56 132.84 C 152.58 131.82 151.77 130.99 150.76 130.97 C 149.75 130.95 148.91 131.76 148.89 132.77 Z M 148.88 133.66 L 148.85 134.59 C 148.82 135.60 149.62 136.44 150.63 136.47 C 151.65 136.50 152.49 135.70 152.52 134.69 L 152.54 133.76 C 152.57 132.75 151.77 131.91 150.76 131.88 C 149.75 131.85 148.91 132.65 148.88 133.66 Z M 148.85 134.59 L 148.82 135.66 C 148.79 136.67 149.59 137.51 150.60 137.54 C 151.61 137.57 152.46 136.78 152.48 135.77 L 152.52 134.69 C 152.54 133.68 151.75 132.84 150.74 132.81 C 149.73 132.78 148.88 133.57 148.85 134.59 Z M 148.82 135.67 L 148.79 136.69 C 148.77 137.70 149.57 138.54 150.58 138.57 C 151.59 138.59 152.43 137.79 152.46 136.78 L 152.48 135.76 C 152.51 134.75 151.71 133.91 150.70 133.88 C 149.69 133.85 148.85 134.65 148.82 135.67 Z M 148.79 136.69 L 148.77 137.71 C 148.75 138.72 149.55 139.56 150.56 139.59 C 151.57 139.61 152.41 138.81 152.44 137.80 L 152.46 136.78 C 152.48 135.77 151.68 134.93 150.67 134.90 C 149.66 134.88 148.82 135.68 148.79 136.69 Z M 148.77 137.71 L 148.74 138.74 C 148.72 139.76 149.52 140.60 150.53 140.62 C 151.55 140.65 152.39 139.84 152.41 138.83 L 152.44 137.80 C 152.46 136.78 151.66 135.94 150.65 135.92 C 149.63 135.89 148.79 136.70 148.77 137.71 Z M 148.74 138.74 L 148.72 139.72 C 148.69 140.74 149.49 141.58 150.50 141.61 C 151.52 141.63 152.36 140.83 152.39 139.82 L 152.41 138.84 C 152.44 137.82 151.64 136.98 150.63 136.95 C 149.61 136.93 148.77 137.73 148.74 138.74 Z M 148.72 139.72 L 148.68 140.82 C 148.65 141.83 149.45 142.68 150.46 142.71 C 151.47 142.74 152.32 141.94 152.35 140.93 L 152.39 139.83 C 152.42 138.82 151.62 137.97 150.61 137.94 C 149.60 137.91 148.75 138.70 148.72 139.72 Z M 148.68 140.81 L 148.65 141.79 C 148.61 142.80 149.40 143.65 150.42 143.69 C 151.43 143.72 152.28 142.93 152.32 141.92 L 152.35 140.94 C 152.39 139.93 151.60 139.08 150.58 139.04 C 149.57 139.00 148.72 139.79 148.68 140.81 Z M 148.65 141.78 L 148.61 142.70 C 148.58 143.71 149.37 144.56 150.38 144.60 C 151.39 144.64 152.25 143.85 152.28 142.84 L 152.32 141.92 C 152.36 140.91 151.57 140.06 150.55 140.02 C 149.54 139.98 148.69 140.77 148.65 141.78 Z M 148.61 142.70 L 148.58 143.71 C 148.54 144.72 149.33 145.57 150.35 145.61 C 151.36 145.64 152.21 144.85 152.25 143.84 L 152.28 142.83 C 152.32 141.82 151.53 140.97 150.51 140.93 C 149.50 140.90 148.65 141.69 148.61 142.70 Z M 148.58 143.71 L 148.54 144.71 C 148.51 145.72 149.30 146.57 150.31 146.61 C 151.33 146.64 152.18 145.85 152.21 144.83 L 152.25 143.83 C 152.28 142.82 151.49 141.97 150.48 141.94 C 149.46 141.90 148.61 142.69 148.58 143.71 Z M 148.54 144.71 L 148.51 145.70 C 148.47 146.71 149.27 147.56 150.28 147.60 C 151.29 147.63 152.14 146.84 152.18 145.82 L 152.21 144.83 C 152.25 143.82 151.45 142.97 150.44 142.94 C 149.43 142.90 148.58 143.69 148.54 144.71 Z M 148.51 145.69 L 148.47 146.68 C 148.44 147.69 149.23 148.55 150.24 148.58 C 151.25 148.62 152.11 147.83 152.14 146.81 L 152.18 145.83 C 152.22 144.81 151.43 143.96 150.41 143.93 C 149.40 143.89 148.55 144.68 148.51 145.69 Z M 148.47 146.67 L 148.43 147.67 C 148.38 148.69 149.17 149.55 150.18 149.59 C 151.20 149.64 152.05 148.85 152.10 147.84 L 152.14 146.83 C 152.19 145.81 151.40 144.96 150.39 144.91 C 149.38 144.87 148.52 145.65 148.47 146.67 Z M 148.43 147.66 L 148.37 148.67 C 148.32 149.68 149.10 150.55 150.11 150.60 C 151.12 150.66 151.99 149.88 152.04 148.87 L 152.10 147.85 C 152.15 146.84 151.38 145.98 150.36 145.92 C 149.35 145.87 148.48 146.64 148.43 147.66 Z M 148.37 148.66 L 148.31 149.67 C 148.25 150.68 149.03 151.55 150.04 151.61 C 151.05 151.67 151.92 150.90 151.98 149.89 L 152.04 148.88 C 152.10 147.86 151.33 146.99 150.32 146.93 C 149.31 146.87 148.44 147.64 148.37 148.66 Z M 148.31 149.67 L 148.26 150.65 C 148.20 151.67 148.97 152.54 149.99 152.60 C 151.00 152.65 151.87 151.88 151.93 150.87 L 151.98 149.88 C 152.04 148.87 151.27 148.00 150.25 147.94 C 149.24 147.88 148.37 148.66 148.31 149.67 Z M 148.26 150.67 L 148.21 151.63 C 148.16 152.65 148.94 153.51 149.96 153.56 C 150.97 153.61 151.83 152.82 151.88 151.81 L 151.93 150.85 C 151.98 149.84 151.19 148.97 150.18 148.93 C 149.17 148.88 148.30 149.66 148.26 150.67 Z M 148.21 151.66 L 148.18 152.64 C 148.14 153.65 148.94 154.50 149.95 154.54 C 150.97 154.57 151.82 153.78 151.85 152.76 L 151.88 151.78 C 151.92 150.77 151.12 149.92 150.11 149.88 C 149.09 149.85 148.24 150.65 148.21 151.66 Z M 148.17 152.67 L 148.16 153.71 C 148.14 154.72 148.95 155.56 149.96 155.58 C 150.98 155.60 151.81 154.79 151.83 153.78 L 151.85 152.73 C 151.87 151.72 151.06 150.88 150.05 150.86 C 149.03 150.84 148.19 151.65 148.17 152.67 Z M 148.16 153.73 L 148.15 154.73 C 148.14 155.74 148.96 156.57 149.97 156.58 C 150.99 156.59 151.82 155.77 151.82 154.76 L 151.83 153.76 C 151.84 152.74 151.02 151.91 150.01 151.90 C 148.99 151.90 148.16 152.71 148.16 153.73 Z M 148.15 154.74 L 148.14 155.77 C 148.14 156.78 148.96 157.61 149.98 157.61 C 150.99 157.62 151.82 156.80 151.82 155.78 L 151.82 154.75 C 151.83 153.73 151.01 152.91 149.99 152.90 C 148.98 152.90 148.15 153.72 148.15 154.74 Z M 148.14 155.77 L 148.14 156.76 C 148.14 157.78 148.97 158.60 149.98 158.60 C 151.00 158.60 151.82 157.78 151.82 156.76 L 151.82 155.78 C 151.82 154.76 151.00 153.94 149.98 153.94 C 148.97 153.94 148.14 154.76 148.14 155.77 Z M 148.14 156.76 L 148.14 157.85 C 148.14 158.86 148.97 159.69 149.98 159.69 C 151.00 159.68 151.82 158.86 151.82 157.85 L 151.82 156.76 C 151.82 155.74 151.00 154.92 149.98 154.92 C 148.97 154.92 148.14 155.75 148.14 156.76 Z M 148.14 157.86 L 148.15 158.82 C 148.15 159.84 148.98 160.66 150.00 160.65 C 151.01 160.65 151.83 159.82 151.83 158.80 L 151.82 157.84 C 151.82 156.82 150.99 156.00 149.97 156.01 C 148.96 156.01 148.14 156.84 148.14 157.86 Z M 148.15 158.84 L 148.17 159.79 C 148.18 160.80 149.02 161.61 150.03 161.60 C 151.05 161.58 151.86 160.74 151.84 159.73 L 151.83 158.78 C 151.81 157.77 150.97 156.96 149.96 156.98 C 148.94 156.99 148.13 157.83 148.15 158.84 Z M 148.17 159.81 L 148.19 160.81 C 148.22 161.82 149.06 162.62 150.08 162.60 C 151.10 162.57 151.90 161.72 151.87 160.71 L 151.84 159.71 C 151.82 158.69 150.97 157.89 149.95 157.92 C 148.94 157.95 148.14 158.79 148.17 159.81 Z M 148.19 160.80 L 148.22 161.80 C 148.24 162.82 149.09 163.62 150.10 163.60 C 151.12 163.57 151.92 162.73 151.89 161.71 L 151.87 160.71 C 151.84 159.70 151.00 158.89 149.98 158.92 C 148.97 158.95 148.17 159.79 148.19 160.80 Z M 148.22 161.78 L 148.23 162.77 C 148.24 163.79 149.08 164.60 150.09 164.59 C 151.11 164.57 151.92 163.74 151.91 162.72 L 151.90 161.73 C 151.88 160.72 151.05 159.90 150.03 159.92 C 149.02 159.93 148.20 160.76 148.22 161.78 Z M 148.22 162.75 L 148.23 163.75 C 148.23 164.77 149.06 165.60 150.08 165.59 C 151.10 165.59 151.92 164.76 151.92 163.74 L 151.91 162.74 C 151.91 161.72 151.08 160.90 150.06 160.90 C 149.04 160.91 148.22 161.73 148.22 162.75 Z M 148.22 163.75 L 148.22 164.76 C 148.22 165.78 149.05 166.61 150.07 166.61 C 151.09 166.61 151.92 165.78 151.92 164.76 L 151.92 163.75 C 151.92 162.73 151.09 161.90 150.07 161.90 C 149.05 161.90 148.22 162.73 148.22 163.75 Z M 148.22 164.76 L 148.22 165.77 C 148.22 166.79 149.05 167.62 150.07 167.62 C 151.09 167.62 151.92 166.79 151.92 165.77 L 151.92 164.76 C 151.92 163.74 151.09 162.91 150.07 162.91 C 149.05 162.91 148.22 163.74 148.22 164.76 Z M 148.22 165.77 L 148.22 166.76 C 148.22 167.78 149.05 168.61 150.07 168.61 C 151.09 168.61 151.92 167.78 151.92 166.76 L 151.92 165.77 C 151.92 164.75 151.09 163.92 150.07 163.92 C 149.05 163.92 148.22 164.75 148.22 165.77 Z M 148.22 166.76 L 148.22 167.77 C 148.22 168.79 149.05 169.62 150.07 169.62 C 151.09 169.62 151.92 168.79 151.92 167.77 L 151.92 166.76 C 151.92 165.74 151.09 164.91 150.07 164.91 C 149.05 164.91 148.22 165.74 148.22 166.76 Z M 148.22 167.77 L 148.22 168.76 C 148.22 169.78 149.05 170.60 150.07 170.60 C 151.09 170.60 151.92 169.78 151.92 168.76 L 151.92 167.77 C 151.92 166.75 151.09 165.92 150.07 165.92 C 149.05 165.92 148.22 166.75 148.22 167.77 Z M 148.23 168.76 L 148.23 169.75 C 148.23 170.77 149.05 171.60 150.07 171.60 C 151.09 171.60 151.92 170.77 151.92 169.75 L 151.92 168.76 C 151.92 167.74 151.09 166.91 150.07 166.91 C 149.05 166.91 148.23 167.74 148.23 168.76 Z M 148.23 169.75 L 148.23 170.76 C 148.23 171.77 149.06 172.59 150.07 172.59 C 151.09 172.59 151.91 171.77 151.91 170.76 L 151.91 169.75 C 151.91 168.73 151.09 167.91 150.07 167.91 C 149.06 167.91 148.23 168.73 148.23 169.75 Z M 148.24 170.76 L 148.24 171.76 C 148.24 172.77 149.06 173.60 150.07 173.60 C 151.08 173.60 151.91 172.77 151.91 171.76 L 151.91 170.76 C 151.91 169.74 151.08 168.92 150.07 168.92 C 149.06 168.92 148.24 169.74 148.24 170.76 Z M 148.24 171.76 L 148.24 172.76 C 148.24 173.77 149.06 174.60 150.07 174.60 C 151.08 174.60 151.91 173.77 151.91 172.76 L 151.91 171.76 C 151.91 170.75 151.08 169.93 150.07 169.93 C 149.06 169.93 148.24 170.75 148.24 171.76 Z M 148.23 172.76 L 148.23 173.76 C 148.23 174.77 149.06 175.60 150.07 175.60 C 151.09 175.60 151.91 174.77 151.91 173.76 L 151.91 172.76 C 151.91 171.75 151.09 170.92 150.07 170.92 C 149.06 170.92 148.23 171.75 148.23 172.76 Z M 148.23 173.76 L 148.23 174.76 C 148.23 175.78 149.05 176.61 150.07 176.61 C 151.09 176.61 151.92 175.78 151.92 174.76 L 151.92 173.76 C 151.92 172.74 151.09 171.91 150.07 171.91 C 149.05 171.91 148.23 172.74 148.23 173.76 Z M 148.22 174.76 L 148.22 175.76 C 148.22 176.78 149.05 177.61 150.07 177.61 C 151.10 177.61 151.92 176.78 151.92 175.76 L 151.92 174.76 C 151.92 173.74 151.10 172.91 150.07 172.91 C 149.05 172.91 148.22 173.74 148.22 174.76 Z M 148.22 175.76 L 148.22 176.76 C 148.22 177.78 149.05 178.61 150.07 178.61 C 151.09 178.61 151.92 177.78 151.92 176.76 L 151.92 175.76 C 151.92 174.74 151.09 173.91 150.07 173.91 C 149.05 173.91 148.22 174.74 148.22 175.76 Z M 148.24 176.76 L 148.24 177.75 C 148.24 178.77 149.06 179.59 150.07 179.59 C 151.08 179.59 151.91 178.77 151.91 177.75 L 151.91 176.76 C 151.91 175.74 151.08 174.92 150.07 174.92 C 149.06 174.92 148.24 175.74 148.24 176.76 Z M 148.24 177.75 L 148.24 178.75 C 148.24 179.76 149.06 180.58 150.07 180.58 C 151.08 180.58 151.90 179.77 151.90 178.76 L 151.90 177.76 C 151.90 176.75 151.08 175.93 150.07 175.93 C 149.06 175.93 148.25 176.74 148.24 177.75 Z M 148.24 178.73 L 148.23 179.73 C 148.21 180.75 149.02 181.58 150.03 181.59 C 151.05 181.60 151.88 180.79 151.89 179.78 L 151.90 178.78 C 151.92 177.77 151.11 176.94 150.09 176.92 C 149.08 176.91 148.25 177.72 148.24 178.73 Z M 148.22 179.68 L 148.18 180.60 C 148.14 181.62 148.93 182.48 149.95 182.52 C 150.96 182.56 151.82 181.77 151.86 180.75 L 151.90 179.83 C 151.94 178.82 151.15 177.96 150.13 177.92 C 149.11 177.88 148.26 178.67 148.22 179.68 Z M 148.18 180.53 L 148.10 181.44 C 148.02 182.46 148.78 183.35 149.80 183.43 C 150.82 183.51 151.71 182.75 151.79 181.73 L 151.87 180.82 C 151.95 179.80 151.19 178.91 150.17 178.83 C 149.15 178.75 148.26 179.51 148.18 180.53 Z M 148.10 181.37 L 147.97 182.49 C 147.85 183.51 148.58 184.43 149.60 184.55 C 150.62 184.67 151.55 183.94 151.67 182.92 L 151.80 181.80 C 151.92 180.78 151.19 179.86 150.17 179.74 C 149.14 179.62 148.22 180.35 148.10 181.37 Z M 147.94 182.44 L 147.82 183.35 C 147.67 184.38 148.39 185.34 149.43 185.48 C 150.46 185.62 151.42 184.90 151.56 183.87 L 151.69 182.97 C 151.84 181.93 151.11 180.98 150.08 180.83 C 149.04 180.69 148.09 181.41 147.94 182.44 Z M 147.77 183.32 L 147.63 184.26 C 147.47 185.33 148.20 186.31 149.26 186.47 C 150.32 186.63 151.31 185.90 151.47 184.84 L 151.61 183.89 C 151.77 182.83 151.04 181.84 149.98 181.68 C 148.92 181.53 147.93 182.26 147.77 183.32 Z M 147.57 184.24 L 147.42 185.27 C 147.25 186.36 147.99 187.38 149.09 187.55 C 150.18 187.72 151.20 186.97 151.37 185.88 L 151.53 184.86 C 151.70 183.77 150.95 182.74 149.86 182.57 C 148.76 182.41 147.74 183.15 147.57 184.24 Z M 147.36 185.25 L 147.19 186.32 C 147.02 187.44 147.78 188.50 148.90 188.67 C 150.02 188.85 151.08 188.08 151.25 186.96 L 151.42 185.89 C 151.60 184.77 150.83 183.72 149.71 183.54 C 148.59 183.37 147.54 184.13 147.36 185.25 Z M 147.15 186.31 L 147.05 186.93 C 146.87 188.08 147.65 189.16 148.79 189.34 C 149.94 189.52 151.02 188.74 151.20 187.59 L 151.30 186.97 C 151.48 185.83 150.70 184.75 149.55 184.57 C 148.41 184.39 147.33 185.17 147.15 186.31 Z"
      fill="black"
      fill-rule="nonzero" /></svg>