<svg xmlns="http://www.w3.org/2000/svg" width="300" height="300" viewBox="0 0 300 300">
<path d="M 122.79 120.01 L 122.80 121.10 C 122.81 122.04 123.57 122.79 124.51 122.79 C 125.45 122.79 126.20 122.02 126.20 121.08 L 126.19 119.99 C 126.19 119.05 125.42 118.30 124.48 118.30 C 123.55 118.31 122.79 119.07 122.79 120.01 Z M 122.75 121.16 L 122.79 122.20 C 122.83 123.16 123.64 123.92 124.60 123.88 C 125.57 123.84 126.32 123.03 126.28 122.07 L 126.24 121.03 C 126.21 120.06 125.40 119.31 124.43 119.35 C 123.47 119.38 122.72 120.19 122.75 121.16 Z M 122.76 122.34 L 122.86 123.28 C 122.97 124.27 123.86 124.97 124.85 124.86 C 125.83 124.75 126.54 123.87 126.43 122.88 L 126.32 121.93 C 126.21 120.95 125.32 120.24 124.34 120.35 C 123.35 120.46 122.65 121.35 122.76 122.34 Z M 122.89 123.56 L 123.14 124.48 C 123.40 125.46 124.41 126.03 125.38 125.76 C 126.35 125.50 126.92 124.49 126.66 123.52 L 126.40 122.60 C 126.14 121.63 125.13 121.06 124.16 121.32 C 123.19 121.59 122.62 122.59 122.89 123.56 Z M 123.33 124.90 L 123.83 125.77 C 124.32 126.64 125.43 126.94 126.29 126.45 C 127.16 125.95 127.46 124.85 126.97 123.99 L 126.46 123.11 C 125.97 122.24 124.87 121.94 124.00 122.43 C 123.14 122.93 122.83 124.03 123.33 124.90 Z M 124.07 126.03 L 124.68 126.74 C 125.32 127.48 126.43 127.56 127.16 126.92 C 127.90 126.29 127.98 125.18 127.34 124.44 L 126.73 123.73 C 126.09 123.00 124.98 122.92 124.25 123.55 C 123.51 124.19 123.43 125.30 124.07 126.03 Z M 124.76 126.78 L 124.84 126.88 C 125.50 127.57 126.60 127.60 127.29 126.94 C 127.99 126.29 128.02 125.19 127.36 124.50 L 127.27 124.40 C 126.61 123.71 125.52 123.68 124.82 124.34 C 124.13 124.99 124.10 126.09 124.76 126.78 Z"
      fill="black"
      fill-rule="nonzero" /><path d="M 119.15 137.27 L 119.89 136.66 C 120.64 136.05 120.74 134.95 120.13 134.20 C 119.52 133.46 118.42 133.35 117.68 133.96 L 116.93 134.58 C 116.19 135.19 116.08 136.29 116.69 137.03 C 117.30 137.77 118.40 137.88 119.15 137.27 Z M 119.89 136.68 L 120.68 136.05 C 121.43 135.44 121.55 134.33 120.94 133.58 C 120.34 132.82 119.23 132.70 118.47 133.31 L 117.68 133.94 C 116.93 134.55 116.81 135.66 117.42 136.41 C 118.02 137.17 119.13 137.29 119.89 136.68 Z M 120.66 136.07 L 121.44 135.47 C 122.21 134.87 122.35 133.76 121.75 132.99 C 121.15 132.22 120.04 132.08 119.27 132.68 L 118.49 133.28 C 117.72 133.88 117.58 134.99 118.18 135.76 C 118.77 136.53 119.88 136.67 120.66 136.07 Z M 121.38 135.52 L 122.19 134.94 C 122.99 134.37 123.18 133.27 122.61 132.47 C 122.04 131.67 120.93 131.48 120.14 132.05 L 119.32 132.63 C 118.53 133.20 118.34 134.30 118.91 135.10 C 119.48 135.90 120.58 136.09 121.38 135.52 Z M 122.09 135.02 L 122.98 134.48 C 123.82 133.96 124.08 132.87 123.57 132.03 C 123.06 131.19 121.96 130.92 121.12 131.44 L 120.24 131.98 C 119.40 132.49 119.13 133.58 119.64 134.42 C 120.16 135.26 121.25 135.53 122.09 135.02 Z M 122.83 134.56 L 123.72 134.13 C 124.60 133.70 124.97 132.63 124.54 131.74 C 124.11 130.86 123.04 130.49 122.15 130.92 L 121.27 131.35 C 120.38 131.78 120.01 132.85 120.45 133.74 C 120.88 134.62 121.95 134.99 122.83 134.56 Z M 123.56 134.20 L 124.49 133.85 C 125.42 133.51 125.89 132.48 125.55 131.55 C 125.20 130.63 124.17 130.16 123.25 130.50 L 122.31 130.85 C 121.39 131.19 120.91 132.22 121.26 133.15 C 121.60 134.08 122.63 134.55 123.56 134.20 Z M 124.33 133.91 L 125.31 133.65 C 126.27 133.40 126.84 132.42 126.59 131.46 C 126.34 130.50 125.35 129.93 124.40 130.18 L 123.41 130.44 C 122.46 130.70 121.88 131.68 122.14 132.64 C 122.39 133.59 123.37 134.16 124.33 133.91 Z M 125.12 133.69 L 126.22 133.53 C 127.20 133.38 127.88 132.47 127.73 131.49 C 127.59 130.51 126.67 129.83 125.69 129.98 L 124.59 130.14 C 123.61 130.29 122.93 131.20 123.08 132.18 C 123.22 133.16 124.14 133.84 125.12 133.69 Z M 125.91 133.55 L 126.92 133.58 C 127.91 133.61 128.74 132.83 128.77 131.83 C 128.79 130.84 128.01 130.01 127.02 129.98 L 126.01 129.95 C 125.01 129.93 124.18 130.71 124.16 131.70 C 124.13 132.70 124.91 133.53 125.91 133.55 Z M 126.27 133.44 L 127.04 133.77 C 127.96 134.16 129.02 133.72 129.40 132.81 C 129.79 131.89 129.36 130.83 128.44 130.44 L 127.67 130.12 C 126.75 129.73 125.69 130.16 125.30 131.08 C 124.92 132.00 125.35 133.06 126.27 133.44 Z M 126.17 132.98 L 126.61 133.78 C 127.09 134.65 128.19 134.96 129.06 134.48 C 129.93 134.00 130.24 132.90 129.76 132.03 L 129.31 131.23 C 128.83 130.37 127.74 130.05 126.87 130.53 C 126.00 131.02 125.69 132.11 126.17 132.98 Z M 126.41 133.11 L 126.53 134.18 C 126.65 135.16 127.54 135.86 128.52 135.74 C 129.50 135.63 130.20 134.74 130.08 133.76 L 129.96 132.70 C 129.84 131.72 128.96 131.02 127.98 131.13 C 127.00 131.25 126.30 132.13 126.41 133.11 Z M 126.53 133.98 L 126.54 134.94 C 126.54 135.92 127.34 136.71 128.32 136.70 C 129.30 136.70 130.09 135.90 130.09 134.92 L 130.08 133.96 C 130.08 132.98 129.28 132.19 128.30 132.19 C 127.32 132.20 126.53 133.00 126.53 133.98 Z M 126.56 134.78 L 126.47 135.78 C 126.39 136.75 127.11 137.61 128.08 137.69 C 129.05 137.77 129.91 137.05 129.99 136.08 L 130.07 135.08 C 130.15 134.11 129.43 133.25 128.46 133.17 C 127.49 133.09 126.64 133.81 126.56 134.78 Z M 126.51 135.60 L 126.32 136.59 C 126.14 137.54 126.76 138.46 127.71 138.64 C 128.66 138.82 129.58 138.20 129.76 137.25 L 129.95 136.26 C 130.13 135.31 129.51 134.39 128.56 134.21 C 127.61 134.03 126.69 134.65 126.51 135.60 Z M 126.36 136.44 L 126.10 137.38 C 125.83 138.31 126.37 139.27 127.30 139.54 C 128.22 139.80 129.19 139.26 129.45 138.33 L 129.72 137.40 C 129.98 136.47 129.45 135.50 128.52 135.24 C 127.59 134.98 126.63 135.51 126.36 136.44 Z M 126.13 137.29 L 125.80 138.26 C 125.48 139.16 125.97 140.16 126.88 140.47 C 127.79 140.78 128.78 140.30 129.09 139.39 L 129.42 138.42 C 129.73 137.51 129.25 136.52 128.34 136.21 C 127.43 135.90 126.44 136.38 126.13 137.29 Z M 125.82 138.21 L 125.46 139.16 C 125.12 140.06 125.57 141.06 126.47 141.40 C 127.37 141.74 128.37 141.28 128.71 140.39 L 129.07 139.43 C 129.41 138.54 128.95 137.54 128.06 137.20 C 127.16 136.86 126.16 137.31 125.82 138.21 Z M 125.47 139.14 L 125.11 140.05 C 124.76 140.95 125.20 141.95 126.10 142.30 C 126.99 142.65 127.99 142.21 128.34 141.32 L 128.70 140.41 C 129.05 139.51 128.61 138.51 127.72 138.16 C 126.82 137.81 125.82 138.25 125.47 139.14 Z M 125.12 140.05 L 124.75 140.98 C 124.39 141.87 124.83 142.87 125.72 143.23 C 126.61 143.58 127.61 143.15 127.97 142.26 L 128.34 141.33 C 128.69 140.44 128.26 139.43 127.37 139.08 C 126.48 138.72 125.47 139.16 125.12 140.05 Z M 124.75 140.98 L 124.37 141.94 C 124.02 142.82 124.45 143.83 125.34 144.18 C 126.22 144.53 127.23 144.10 127.58 143.21 L 127.96 142.26 C 128.32 141.37 127.88 140.36 127.00 140.01 C 126.11 139.66 125.10 140.09 124.75 140.98 Z M 124.37 141.95 L 124.00 142.91 C 123.65 143.80 124.09 144.80 124.98 145.14 C 125.86 145.49 126.86 145.05 127.21 144.16 L 127.58 143.20 C 127.93 142.31 127.49 141.31 126.60 140.97 C 125.71 140.62 124.71 141.06 124.37 141.95 Z M 123.99 142.95 L 123.64 143.91 C 123.32 144.80 123.78 145.79 124.67 146.11 C 125.56 146.43 126.54 145.97 126.87 145.08 L 127.21 144.12 C 127.54 143.23 127.08 142.25 126.19 141.92 C 125.30 141.60 124.31 142.06 123.99 142.95 Z M 123.62 143.98 L 123.33 144.91 C 123.05 145.81 123.55 146.77 124.45 147.05 C 125.34 147.34 126.30 146.84 126.59 145.94 L 126.88 145.01 C 127.17 144.11 126.67 143.15 125.77 142.87 C 124.87 142.58 123.91 143.08 123.62 143.98 Z M 123.30 145.05 L 123.06 146.13 C 122.85 147.05 123.43 147.96 124.34 148.16 C 125.26 148.37 126.17 147.80 126.38 146.88 L 126.62 145.80 C 126.83 144.88 126.25 143.97 125.33 143.77 C 124.42 143.56 123.51 144.13 123.30 145.05 Z M 123.02 146.45 L 122.99 147.45 C 122.96 148.39 123.69 149.17 124.63 149.20 C 125.56 149.23 126.34 148.50 126.38 147.56 L 126.41 146.56 C 126.44 145.63 125.71 144.84 124.77 144.81 C 123.84 144.78 123.06 145.52 123.02 146.45 Z M 123.13 148.16 L 123.43 148.88 C 123.79 149.74 124.78 150.14 125.64 149.78 C 126.50 149.42 126.90 148.43 126.54 147.58 L 126.24 146.86 C 125.88 146.00 124.89 145.59 124.03 145.95 C 123.17 146.32 122.77 147.30 123.13 148.16 Z M 124.15 149.69 L 124.88 150.10 C 125.69 150.56 126.72 150.28 127.17 149.47 C 127.63 148.66 127.35 147.64 126.54 147.18 L 125.82 146.77 C 125.01 146.31 123.98 146.59 123.52 147.40 C 123.06 148.21 123.35 149.23 124.15 149.69 Z M 125.43 150.30 L 126.59 150.49 C 127.51 150.65 128.37 150.03 128.53 149.11 C 128.68 148.20 128.06 147.33 127.15 147.17 L 125.99 146.98 C 125.07 146.83 124.20 147.45 124.05 148.36 C 123.90 149.28 124.52 150.15 125.43 150.30 Z M 126.74 150.53 L 127.78 150.61 C 128.72 150.68 129.53 149.98 129.61 149.04 C 129.68 148.10 128.97 147.28 128.04 147.21 L 127.00 147.13 C 126.06 147.06 125.24 147.77 125.17 148.71 C 125.10 149.64 125.80 150.46 126.74 150.53 Z M 127.74 150.65 L 128.80 150.75 C 129.76 150.84 130.62 150.14 130.71 149.18 C 130.80 148.22 130.09 147.36 129.13 147.27 L 128.07 147.17 C 127.11 147.08 126.26 147.79 126.17 148.75 C 126.08 149.71 126.78 150.56 127.74 150.65 Z M 128.62 150.77 L 129.60 150.96 C 130.57 151.15 131.51 150.52 131.70 149.55 C 131.89 148.57 131.25 147.63 130.28 147.44 L 129.31 147.25 C 128.34 147.06 127.40 147.70 127.21 148.67 C 127.02 149.64 127.65 150.58 128.62 150.77 Z M 129.11 150.84 L 129.96 151.28 C 130.87 151.74 131.97 151.38 132.43 150.47 C 132.89 149.57 132.53 148.47 131.63 148.01 L 130.77 147.57 C 129.87 147.11 128.76 147.47 128.30 148.37 C 127.84 149.27 128.20 150.38 129.11 150.84 Z M 129.20 150.62 L 129.70 151.44 C 130.24 152.32 131.39 152.60 132.28 152.06 C 133.16 151.52 133.43 150.37 132.90 149.49 L 132.39 148.66 C 131.85 147.78 130.70 147.51 129.82 148.04 C 128.94 148.58 128.66 149.74 129.20 150.62 Z M 129.41 150.62 L 129.48 151.57 C 129.57 152.61 130.49 153.39 131.53 153.31 C 132.58 153.22 133.36 152.30 133.27 151.26 L 133.19 150.31 C 133.11 149.26 132.19 148.48 131.14 148.57 C 130.10 148.65 129.32 149.57 129.41 150.62 Z M 129.49 151.03 L 129.30 151.97 C 129.09 153.01 129.77 154.02 130.81 154.23 C 131.85 154.44 132.86 153.77 133.07 152.73 L 133.26 151.79 C 133.47 150.75 132.80 149.74 131.76 149.53 C 130.72 149.32 129.70 149.99 129.49 151.03 Z M 129.42 151.56 L 129.00 152.49 C 128.57 153.47 129.00 154.61 129.98 155.05 C 130.96 155.49 132.10 155.05 132.54 154.07 L 132.96 153.14 C 133.39 152.16 132.96 151.02 131.98 150.58 C 131.00 150.14 129.86 150.58 129.42 151.56 Z M 129.12 152.25 L 128.61 153.05 C 128.04 153.97 128.31 155.17 129.23 155.74 C 130.14 156.32 131.34 156.04 131.91 155.13 L 132.42 154.32 C 132.99 153.41 132.72 152.20 131.81 151.63 C 130.89 151.06 129.69 151.33 129.12 152.25 Z M 128.68 152.93 L 128.10 153.72 C 127.45 154.60 127.64 155.82 128.51 156.47 C 129.38 157.11 130.61 156.92 131.26 156.05 L 131.84 155.26 C 132.49 154.38 132.30 153.15 131.43 152.51 C 130.56 151.87 129.33 152.05 128.68 152.93 Z M 128.14 153.65 L 127.47 154.48 C 126.79 155.33 126.93 156.57 127.78 157.26 C 128.63 157.94 129.87 157.80 130.55 156.95 L 131.22 156.12 C 131.90 155.27 131.76 154.03 130.91 153.35 C 130.06 152.66 128.82 152.80 128.14 153.65 Z M 127.49 154.45 L 126.85 155.21 C 126.15 156.06 126.26 157.31 127.10 158.01 C 127.95 158.71 129.20 158.59 129.90 157.75 L 130.54 156.98 C 131.24 156.14 131.12 154.89 130.28 154.19 C 129.44 153.49 128.19 153.60 127.49 154.45 Z M 126.86 155.19 L 126.21 155.95 C 125.50 156.79 125.60 158.04 126.43 158.75 C 127.26 159.47 128.52 159.37 129.23 158.54 L 129.88 157.78 C 130.60 156.94 130.50 155.69 129.67 154.97 C 128.83 154.26 127.58 154.36 126.86 155.19 Z M 126.23 155.92 L 125.56 156.68 C 124.83 157.50 124.91 158.76 125.73 159.49 C 126.56 160.22 127.81 160.14 128.54 159.32 L 129.21 158.56 C 129.94 157.74 129.86 156.48 129.04 155.75 C 128.22 155.03 126.96 155.10 126.23 155.92 Z M 125.59 156.65 L 124.90 157.40 C 124.15 158.21 124.20 159.47 125.01 160.21 C 125.82 160.96 127.08 160.91 127.83 160.10 L 128.52 159.35 C 129.26 158.54 129.21 157.28 128.40 156.54 C 127.60 155.79 126.33 155.84 125.59 156.65 Z M 124.93 157.36 L 124.22 158.10 C 123.46 158.89 123.48 160.15 124.27 160.92 C 125.07 161.68 126.33 161.66 127.09 160.86 L 127.80 160.13 C 128.56 159.34 128.54 158.08 127.75 157.31 C 126.95 156.55 125.69 156.57 124.93 157.36 Z M 124.24 158.07 L 123.54 158.78 C 122.76 159.56 122.76 160.82 123.54 161.60 C 124.33 162.38 125.59 162.38 126.37 161.60 L 127.07 160.89 C 127.85 160.11 127.85 158.84 127.07 158.06 C 126.28 157.29 125.02 157.29 124.24 158.07 Z M 123.55 158.76 L 122.85 159.45 C 122.06 160.22 122.05 161.49 122.83 162.28 C 123.60 163.06 124.87 163.07 125.66 162.30 L 126.36 161.61 C 127.14 160.84 127.15 159.57 126.38 158.78 C 125.61 158.00 124.34 157.99 123.55 158.76 Z M 122.86 159.44 L 122.12 160.15 C 121.33 160.92 121.31 162.19 122.08 162.98 C 122.85 163.78 124.11 163.80 124.91 163.03 L 125.65 162.31 C 126.44 161.54 126.46 160.27 125.69 159.48 C 124.92 158.69 123.65 158.67 122.86 159.44 Z M 122.13 160.15 L 121.41 160.84 C 120.61 161.60 120.58 162.87 121.35 163.67 C 122.11 164.47 123.38 164.49 124.18 163.73 L 124.90 163.04 C 125.70 162.27 125.72 161.00 124.96 160.21 C 124.19 159.41 122.93 159.38 122.13 160.15 Z M 121.41 160.83 L 120.71 161.50 C 119.91 162.26 119.88 163.53 120.64 164.33 C 121.40 165.13 122.67 165.16 123.47 164.40 L 124.18 163.73 C 124.98 162.97 125.01 161.70 124.24 160.90 C 123.48 160.10 122.21 160.07 121.41 160.83 Z M 120.72 161.49 L 119.97 162.19 C 119.17 162.95 119.13 164.22 119.89 165.02 C 120.65 165.83 121.91 165.87 122.72 165.11 L 123.46 164.41 C 124.27 163.65 124.31 162.38 123.55 161.58 C 122.79 160.77 121.52 160.73 120.72 161.49 Z M 120.01 162.16 L 119.27 162.82 C 118.45 163.56 118.38 164.83 119.12 165.65 C 119.85 166.47 121.12 166.54 121.94 165.80 L 122.68 165.14 C 123.51 164.40 123.57 163.14 122.84 162.32 C 122.10 161.49 120.84 161.42 120.01 162.16 Z M 119.35 162.76 L 118.57 163.39 C 117.72 164.09 117.58 165.35 118.28 166.20 C 118.98 167.06 120.24 167.19 121.09 166.49 L 121.87 165.87 C 122.72 165.17 122.86 163.91 122.16 163.05 C 121.46 162.20 120.21 162.07 119.35 162.76 Z M 118.72 163.28 L 117.87 163.86 C 116.95 164.47 116.71 165.71 117.32 166.63 C 117.94 167.54 119.18 167.79 120.09 167.17 L 120.95 166.60 C 121.86 165.99 122.11 164.75 121.49 163.83 C 120.88 162.91 119.64 162.67 118.72 163.28 Z M 118.16 163.70 L 117.28 164.09 C 116.28 164.54 115.83 165.73 116.28 166.73 C 116.73 167.73 117.91 168.18 118.92 167.73 L 119.80 167.33 C 120.80 166.88 121.25 165.70 120.80 164.70 C 120.35 163.69 119.17 163.24 118.16 163.70 Z M 117.77 163.96 L 116.80 164.13 C 115.72 164.31 115.00 165.33 115.18 166.41 C 115.37 167.48 116.39 168.21 117.46 168.02 L 118.43 167.86 C 119.51 167.67 120.23 166.65 120.05 165.58 C 119.86 164.50 118.84 163.78 117.77 163.96 Z M 117.10 164.14 L 116.10 164.16 C 115.03 164.18 114.18 165.06 114.20 166.12 C 114.21 167.19 115.09 168.04 116.16 168.03 L 117.16 168.01 C 118.23 167.99 119.08 167.11 119.06 166.05 C 119.05 164.98 118.17 164.13 117.10 164.14 Z M 115.98 164.19 L 114.79 164.28 C 113.74 164.36 112.95 165.29 113.03 166.34 C 113.12 167.39 114.04 168.18 115.09 168.09 L 116.28 168.00 C 117.34 167.92 118.12 166.99 118.04 165.94 C 117.95 164.89 117.03 164.10 115.98 164.19 Z M 114.27 164.36 L 113.61 164.61 C 112.61 164.98 112.09 166.09 112.46 167.10 C 112.83 168.11 113.95 168.62 114.95 168.25 L 115.61 168.01 C 116.62 167.64 117.13 166.52 116.76 165.52 C 116.39 164.51 115.28 163.99 114.27 164.36 Z M 114.02 168.41 L 114.69 168.50 C 115.79 168.64 116.79 167.87 116.93 166.78 C 117.08 165.69 116.31 164.68 115.22 164.54 L 114.55 164.45 C 113.45 164.30 112.45 165.07 112.30 166.17 C 112.16 167.26 112.93 168.26 114.02 168.41 Z M 114.91 168.57 L 116.15 168.59 C 117.28 168.62 118.22 167.72 118.24 166.58 C 118.26 165.45 117.36 164.51 116.23 164.49 L 115.00 164.47 C 113.86 164.44 112.92 165.34 112.90 166.48 C 112.88 167.61 113.78 168.55 114.91 168.57 Z M 116.14 168.63 L 117.11 168.65 C 118.26 168.68 119.22 167.76 119.25 166.61 C 119.27 165.46 118.36 164.50 117.20 164.48 L 116.23 164.45 C 115.08 164.43 114.13 165.34 114.10 166.50 C 114.07 167.65 114.99 168.60 116.14 168.63 Z M 117.01 168.66 L 117.94 168.73 C 119.10 168.81 120.11 167.94 120.19 166.78 C 120.27 165.63 119.40 164.62 118.25 164.54 L 117.31 164.47 C 116.15 164.38 115.15 165.25 115.06 166.41 C 114.98 167.57 115.85 168.58 117.01 168.66 Z M 117.80 168.72 L 118.91 168.88 C 120.06 169.05 121.13 168.24 121.29 167.09 C 121.46 165.94 120.66 164.87 119.51 164.70 L 118.40 164.54 C 117.24 164.38 116.17 165.18 116.01 166.33 C 115.84 167.49 116.64 168.55 117.80 168.72 Z M 118.80 168.87 L 119.75 169.05 C 120.89 169.28 122.01 168.53 122.23 167.38 C 122.46 166.24 121.71 165.12 120.56 164.90 L 119.61 164.71 C 118.47 164.49 117.35 165.24 117.13 166.38 C 116.90 167.53 117.65 168.64 118.80 168.87 Z M 119.69 169.05 L 120.71 169.27 C 121.85 169.53 122.98 168.81 123.24 167.66 C 123.49 166.52 122.77 165.38 121.63 165.13 L 120.61 164.91 C 119.47 164.65 118.34 165.37 118.08 166.52 C 117.83 167.66 118.55 168.80 119.69 169.05 Z M 120.68 169.27 L 121.70 169.51 C 122.84 169.78 123.99 169.08 124.26 167.93 C 124.53 166.79 123.82 165.65 122.68 165.37 L 121.66 165.13 C 120.51 164.86 119.37 165.57 119.10 166.71 C 118.83 167.85 119.53 169.00 120.68 169.27 Z M 121.68 169.51 L 122.63 169.75 C 123.78 170.03 124.93 169.33 125.21 168.19 C 125.49 167.05 124.80 165.89 123.65 165.61 L 122.70 165.37 C 121.55 165.09 120.40 165.79 120.12 166.93 C 119.84 168.08 120.54 169.23 121.68 169.51 Z M 122.62 169.75 L 123.71 170.02 C 124.85 170.31 126.01 169.62 126.30 168.47 C 126.59 167.33 125.89 166.17 124.75 165.88 L 123.66 165.61 C 122.52 165.32 121.36 166.01 121.07 167.16 C 120.78 168.30 121.48 169.46 122.62 169.75 Z M 123.69 170.02 L 124.64 170.27 C 125.78 170.57 126.94 169.89 127.24 168.74 C 127.54 167.60 126.86 166.43 125.72 166.14 L 124.77 165.89 C 123.63 165.59 122.46 166.27 122.16 167.41 C 121.86 168.55 122.55 169.72 123.69 170.02 Z M 124.59 170.26 L 125.44 170.50 C 126.58 170.82 127.76 170.16 128.08 169.03 C 128.41 167.89 127.75 166.71 126.61 166.39 L 125.76 166.15 C 124.63 165.82 123.45 166.48 123.12 167.62 C 122.80 168.75 123.46 169.93 124.59 170.26 Z M 125.40 170.49 L 126.30 170.76 C 127.43 171.11 128.62 170.47 128.97 169.34 C 129.31 168.22 128.68 167.02 127.55 166.67 L 126.65 166.40 C 125.53 166.05 124.33 166.69 123.99 167.82 C 123.64 168.94 124.27 170.14 125.40 170.49 Z M 126.28 170.76 L 127.24 171.06 C 128.37 171.41 129.57 170.78 129.92 169.66 C 130.27 168.53 129.65 167.33 128.52 166.98 L 127.56 166.68 C 126.44 166.33 125.24 166.95 124.88 168.08 C 124.53 169.20 125.16 170.40 126.28 170.76 Z M 127.26 171.06 L 128.25 171.37 C 129.38 171.71 130.58 171.07 130.92 169.94 C 131.26 168.81 130.63 167.62 129.50 167.28 L 128.50 166.97 C 127.37 166.63 126.18 167.27 125.84 168.40 C 125.49 169.52 126.13 170.72 127.26 171.06 Z M 128.28 171.37 L 129.20 171.64 C 130.33 171.97 131.52 171.31 131.84 170.18 C 132.17 169.04 131.52 167.86 130.38 167.53 L 129.47 167.27 C 128.33 166.94 127.15 167.59 126.82 168.73 C 126.50 169.86 127.15 171.05 128.28 171.37 Z M 129.22 171.64 L 130.18 171.91 C 131.32 172.23 132.50 171.56 132.81 170.43 C 133.13 169.29 132.46 168.11 131.33 167.79 L 130.36 167.53 C 129.23 167.21 128.05 167.87 127.73 169.01 C 127.42 170.15 128.08 171.33 129.22 171.64 Z M 130.19 171.91 L 131.20 172.19 C 132.34 172.51 133.51 171.84 133.83 170.70 C 134.14 169.56 133.47 168.38 132.33 168.07 L 131.32 167.79 C 130.18 167.48 129.01 168.15 128.69 169.29 C 128.38 170.42 129.05 171.60 130.19 171.91 Z M 131.20 172.19 L 132.15 172.45 C 133.29 172.77 134.46 172.10 134.78 170.96 C 135.09 169.82 134.42 168.65 133.28 168.33 L 132.33 168.07 C 131.20 167.76 130.02 168.43 129.71 169.56 C 129.39 170.70 130.06 171.88 131.20 172.19 Z M 132.15 172.45 L 133.11 172.72 C 134.25 173.03 135.42 172.36 135.74 171.23 C 136.05 170.09 135.38 168.92 134.25 168.60 L 133.28 168.34 C 132.15 168.02 130.97 168.69 130.66 169.82 C 130.35 170.96 131.01 172.14 132.15 172.45 Z M 133.11 172.71 L 134.09 172.98 C 135.22 173.30 136.40 172.63 136.71 171.50 C 137.03 170.36 136.36 169.19 135.23 168.88 L 134.25 168.61 C 133.11 168.29 131.94 168.96 131.63 170.09 C 131.31 171.23 131.98 172.40 133.11 172.71 Z M 134.09 172.98 L 135.07 173.25 C 136.20 173.56 137.37 172.90 137.68 171.76 C 138.00 170.63 137.33 169.46 136.20 169.15 L 135.22 168.88 C 134.09 168.57 132.92 169.23 132.60 170.36 C 132.29 171.50 132.96 172.67 134.09 172.98 Z M 135.07 173.25 L 136.03 173.51 C 137.17 173.82 138.34 173.16 138.65 172.02 C 138.96 170.89 138.29 169.72 137.16 169.41 L 136.19 169.15 C 135.06 168.84 133.89 169.50 133.58 170.64 C 133.27 171.77 133.94 172.94 135.07 173.25 Z M 136.04 173.51 L 137.00 173.77 C 138.13 174.08 139.30 173.41 139.61 172.28 C 139.91 171.14 139.24 169.98 138.11 169.67 L 137.15 169.41 C 136.02 169.10 134.85 169.77 134.54 170.91 C 134.24 172.04 134.91 173.21 136.04 173.51 Z M 137.01 173.77 L 137.98 174.03 C 139.11 174.33 140.27 173.66 140.57 172.52 C 140.87 171.39 140.20 170.23 139.07 169.93 L 138.10 169.67 C 136.97 169.37 135.81 170.04 135.51 171.18 C 135.20 172.31 135.88 173.47 137.01 173.77 Z M 137.99 174.03 L 138.95 174.28 C 140.08 174.58 141.24 173.90 141.54 172.77 C 141.83 171.63 141.16 170.48 140.02 170.18 L 139.06 169.93 C 137.93 169.63 136.77 170.31 136.47 171.44 C 136.18 172.58 136.85 173.73 137.99 174.03 Z M 138.96 174.28 L 139.93 174.53 C 141.06 174.82 142.21 174.13 142.50 173.00 C 142.79 171.86 142.11 170.71 140.97 170.42 L 140.01 170.18 C 138.88 169.89 137.72 170.57 137.43 171.71 C 137.14 172.84 137.83 174.00 138.96 174.28 Z M 139.94 174.53 L 140.92 174.77 C 142.05 175.05 143.20 174.36 143.48 173.22 C 143.76 172.09 143.07 170.94 141.93 170.66 L 140.96 170.42 C 139.82 170.14 138.67 170.83 138.39 171.97 C 138.11 173.11 138.81 174.25 139.94 174.53 Z M 140.94 174.78 L 141.92 175.01 C 143.06 175.28 144.20 174.57 144.47 173.43 C 144.74 172.29 144.03 171.15 142.89 170.88 L 141.91 170.65 C 140.77 170.38 139.63 171.09 139.36 172.23 C 139.09 173.37 139.80 174.51 140.94 174.78 Z M 141.95 175.02 L 142.92 175.23 C 144.07 175.49 145.20 174.77 145.45 173.62 C 145.71 172.48 144.99 171.35 143.84 171.10 L 142.87 170.88 C 141.72 170.62 140.59 171.34 140.34 172.49 C 140.08 173.63 140.80 174.76 141.95 175.02 Z M 142.95 175.24 L 143.93 175.44 C 145.07 175.68 146.20 174.95 146.44 173.80 C 146.68 172.66 145.94 171.54 144.80 171.29 L 143.82 171.09 C 142.67 170.85 141.55 171.58 141.31 172.73 C 141.07 173.88 141.80 175.00 142.95 175.24 Z M 143.95 175.45 L 144.93 175.64 C 146.08 175.87 147.19 175.13 147.42 173.98 C 147.65 172.83 146.90 171.71 145.76 171.49 L 144.78 171.29 C 143.63 171.06 142.51 171.81 142.28 172.96 C 142.06 174.10 142.80 175.22 143.95 175.45 Z M 144.95 175.65 L 145.93 175.83 C 147.08 176.05 148.19 175.30 148.41 174.15 C 148.63 173.00 147.87 171.89 146.72 171.67 L 145.74 171.48 C 144.59 171.26 143.48 172.02 143.26 173.17 C 143.04 174.32 143.80 175.43 144.95 175.65 Z M 145.95 175.83 L 146.93 176.01 C 148.08 176.22 149.19 175.46 149.40 174.31 C 149.61 173.16 148.84 172.06 147.69 171.85 L 146.71 171.67 C 145.56 171.46 144.45 172.22 144.24 173.37 C 144.03 174.52 144.80 175.62 145.95 175.83 Z M 146.95 176.01 L 147.94 176.18 C 149.09 176.39 150.18 175.62 150.38 174.47 C 150.58 173.32 149.82 172.23 148.67 172.03 L 147.68 171.85 C 146.53 171.65 145.44 172.42 145.23 173.57 C 145.03 174.71 145.80 175.81 146.95 176.01 Z M 147.96 176.18 L 148.94 176.35 C 150.09 176.54 151.17 175.76 151.37 174.62 C 151.56 173.47 150.78 172.39 149.64 172.20 L 148.65 172.03 C 147.50 171.84 146.42 172.61 146.23 173.76 C 146.04 174.91 146.81 175.99 147.96 176.18 Z M 148.97 176.34 L 149.95 176.50 C 151.09 176.68 152.16 175.89 152.34 174.75 C 152.52 173.60 151.74 172.53 150.60 172.35 L 149.62 172.20 C 148.47 172.02 147.40 172.80 147.22 173.95 C 147.04 175.09 147.82 176.16 148.97 176.34 Z M 149.97 176.49 L 150.96 176.63 C 152.10 176.80 153.16 176.01 153.32 174.87 C 153.49 173.72 152.70 172.66 151.55 172.50 L 150.57 172.36 C 149.43 172.19 148.37 172.98 148.20 174.12 C 148.04 175.27 148.83 176.33 149.97 176.49 Z M 150.99 176.63 L 151.97 176.76 C 153.11 176.91 154.15 176.10 154.30 174.96 C 154.45 173.82 153.65 172.78 152.51 172.63 L 151.52 172.50 C 150.38 172.35 149.34 173.16 149.19 174.30 C 149.04 175.44 149.85 176.48 150.99 176.63 Z M 152.00 176.75 L 153.00 176.87 C 154.13 176.99 155.16 176.18 155.29 175.04 C 155.42 173.90 154.60 172.88 153.46 172.75 L 152.47 172.63 C 151.33 172.51 150.31 173.32 150.18 174.46 C 150.05 175.60 150.87 176.62 152.00 176.75 Z M 153.04 176.86 L 154.05 176.96 C 155.18 177.06 156.19 176.23 156.30 175.10 C 156.40 173.96 155.57 172.95 154.43 172.85 L 153.42 172.75 C 152.29 172.64 151.28 173.48 151.17 174.61 C 151.07 175.75 151.90 176.75 153.04 176.86 Z M 154.09 176.95 L 155.10 177.02 C 156.23 177.11 157.21 176.26 157.30 175.13 C 157.38 174.00 156.54 173.02 155.41 172.93 L 154.40 172.86 C 153.27 172.77 152.28 173.62 152.19 174.75 C 152.11 175.88 152.96 176.86 154.09 176.95 Z M 155.13 177.01 L 156.15 177.07 C 157.27 177.14 158.23 176.28 158.30 175.16 C 158.37 174.04 157.51 173.07 156.39 173.01 L 155.37 172.95 C 154.25 172.88 153.29 173.73 153.22 174.86 C 153.15 175.98 154.01 176.94 155.13 177.01 Z M 156.17 177.06 L 157.17 177.10 C 158.29 177.15 159.23 176.29 159.29 175.18 C 159.34 174.06 158.47 173.12 157.36 173.07 L 156.36 173.02 C 155.24 172.97 154.30 173.83 154.25 174.95 C 154.20 176.06 155.06 177.01 156.17 177.06 Z M 157.20 177.09 L 158.18 177.12 C 159.28 177.16 160.21 176.29 160.24 175.18 C 160.28 174.08 159.41 173.15 158.31 173.11 L 157.33 173.08 C 156.23 173.04 155.30 173.91 155.26 175.02 C 155.23 176.13 156.09 177.05 157.20 177.09 Z M 158.20 177.10 L 159.26 177.13 C 160.35 177.15 161.26 176.28 161.28 175.18 C 161.31 174.08 160.43 173.17 159.34 173.15 L 158.28 173.13 C 157.18 173.11 156.28 173.98 156.25 175.08 C 156.23 176.18 157.10 177.08 158.20 177.10 Z M 159.28 177.11 L 160.27 177.12 C 161.36 177.13 162.25 176.25 162.26 175.16 C 162.27 174.08 161.40 173.19 160.31 173.18 L 159.31 173.17 C 158.22 173.16 157.33 174.03 157.32 175.12 C 157.31 176.21 158.19 177.10 159.28 177.11 Z M 160.29 177.10 L 161.25 177.10 C 162.33 177.11 163.20 176.23 163.20 175.15 C 163.21 174.07 162.33 173.20 161.25 173.19 L 160.30 173.19 C 159.22 173.19 158.34 174.06 158.34 175.14 C 158.33 176.22 159.21 177.10 160.29 177.10 Z M 161.25 177.09 L 162.25 177.09 C 163.32 177.08 164.19 176.22 164.19 175.15 C 164.19 174.08 163.32 173.21 162.25 173.21 L 161.25 173.21 C 160.18 173.21 159.31 174.08 159.31 175.15 C 159.31 176.22 160.18 177.09 161.25 177.09 Z M 162.27 177.07 L 163.28 177.06 C 164.34 177.05 165.19 176.18 165.18 175.12 C 165.17 174.06 164.30 173.21 163.24 173.22 L 162.23 173.23 C 161.17 173.24 160.32 174.11 160.33 175.17 C 160.34 176.23 161.21 177.08 162.27 177.07 Z M 163.32 177.04 L 164.31 177.00 C 165.35 176.97 166.18 176.09 166.14 175.04 C 166.11 174.00 165.23 173.17 164.18 173.21 L 163.20 173.24 C 162.15 173.27 161.33 174.15 161.36 175.20 C 161.39 176.25 162.27 177.07 163.32 177.04 Z M 164.38 176.98 L 165.38 176.91 C 166.41 176.84 167.19 175.94 167.12 174.90 C 167.05 173.87 166.15 173.09 165.11 173.16 L 164.11 173.23 C 163.08 173.31 162.30 174.20 162.37 175.24 C 162.44 176.27 163.34 177.05 164.38 176.98 Z M 165.47 176.88 L 166.47 176.76 C 167.49 176.64 168.21 175.71 168.09 174.69 C 167.97 173.68 167.04 172.95 166.02 173.07 L 165.02 173.19 C 164.01 173.31 163.28 174.24 163.40 175.26 C 163.53 176.28 164.45 177.00 165.47 176.88 Z M 166.56 176.72 L 167.53 176.55 C 168.53 176.38 169.20 175.42 169.02 174.42 C 168.85 173.43 167.89 172.76 166.90 172.94 L 165.93 173.11 C 164.93 173.28 164.26 174.24 164.44 175.24 C 164.61 176.23 165.57 176.90 166.56 176.72 Z M 167.64 176.51 L 168.62 176.27 C 169.60 176.04 170.20 175.06 169.97 174.09 C 169.73 173.11 168.75 172.51 167.78 172.74 L 166.79 172.98 C 165.82 173.21 165.22 174.19 165.45 175.17 C 165.68 176.14 166.66 176.74 167.64 176.51 Z M 168.71 176.22 L 169.68 175.94 C 170.62 175.66 171.17 174.66 170.89 173.72 C 170.61 172.77 169.61 172.23 168.66 172.51 L 167.70 172.79 C 166.75 173.07 166.21 174.07 166.49 175.01 C 166.77 175.96 167.76 176.50 168.71 176.22 Z M 169.73 175.89 L 170.65 175.59 C 171.57 175.27 172.07 174.27 171.76 173.35 C 171.45 172.43 170.45 171.93 169.53 172.24 L 168.61 172.55 C 167.68 172.86 167.19 173.86 167.50 174.78 C 167.81 175.71 168.81 176.21 169.73 175.89 Z M 170.68 175.55 L 171.64 175.20 C 172.55 174.87 173.01 173.87 172.68 172.97 C 172.35 172.06 171.35 171.60 170.45 171.93 L 169.49 172.28 C 168.59 172.61 168.12 173.61 168.45 174.51 C 168.78 175.41 169.78 175.88 170.68 175.55 Z M 171.67 175.16 L 172.59 174.80 C 173.47 174.46 173.91 173.47 173.56 172.58 C 173.22 171.70 172.23 171.27 171.34 171.61 L 170.43 171.97 C 169.54 172.31 169.11 173.30 169.45 174.18 C 169.79 175.07 170.79 175.50 171.67 175.16 Z M 172.60 174.77 L 173.50 174.40 C 174.37 174.05 174.78 173.07 174.43 172.20 C 174.08 171.34 173.10 170.93 172.23 171.28 L 171.33 171.64 C 170.47 171.99 170.05 172.98 170.40 173.84 C 170.75 174.70 171.74 175.12 172.60 174.77 Z M 173.54 174.35 L 174.45 173.95 C 175.28 173.57 175.66 172.59 175.28 171.76 C 174.91 170.93 173.93 170.55 173.10 170.92 L 172.19 171.33 C 171.36 171.70 170.99 172.68 171.36 173.51 C 171.73 174.35 172.71 174.72 173.54 174.35 Z M 174.53 173.87 L 175.44 173.39 C 176.23 172.97 176.53 171.98 176.11 171.19 C 175.69 170.40 174.71 170.10 173.91 170.52 L 173.01 171.00 C 172.22 171.42 171.92 172.41 172.34 173.20 C 172.76 173.99 173.74 174.29 174.53 173.87 Z M 175.54 173.30 L 176.36 172.78 C 177.10 172.30 177.32 171.31 176.85 170.57 C 176.37 169.82 175.38 169.60 174.64 170.08 L 173.82 170.61 C 173.07 171.08 172.85 172.07 173.33 172.82 C 173.80 173.56 174.79 173.78 175.54 173.30 Z M 176.42 172.72 L 177.24 172.14 C 177.96 171.63 178.12 170.64 177.62 169.93 C 177.11 169.21 176.12 169.04 175.40 169.55 L 174.58 170.14 C 173.87 170.64 173.70 171.63 174.21 172.35 C 174.71 173.06 175.70 173.23 176.42 172.72 Z M 177.26 172.11 L 177.84 171.68 C 178.54 171.17 178.69 170.18 178.17 169.48 C 177.65 168.78 176.67 168.63 175.97 169.15 L 175.39 169.58 C 174.69 170.09 174.54 171.08 175.06 171.78 C 175.57 172.48 176.56 172.63 177.26 172.11 Z"
      fill="black"
      fill-rule="nonzero" /><path d="M 150.46 110.98 L 150.26 111.96 C 150.08 112.85 150.66 113.72 151.55 113.90 C 152.44 114.08 153.31 113.51 153.49 112.62 L 153.69 111.63 C 153.87 110.74 153.29 109.88 152.40 109.69 C 151.51 109.51 150.64 110.09 150.46 110.98 Z M 150.27 111.91 L 150.04 112.88 C 149.83 113.77 150.38 114.66 151.26 114.87 C 152.15 115.08 153.04 114.53 153.25 113.64 L 153.48 112.67 C 153.69 111.78 153.14 110.89 152.25 110.68 C 151.37 110.47 150.48 111.02 150.27 111.91 Z M 150.06 112.78 L 149.78 113.69 C 149.52 114.57 150.01 115.49 150.89 115.76 C 151.77 116.02 152.69 115.53 152.96 114.65 L 153.23 113.74 C 153.50 112.86 153.00 111.94 152.12 111.67 C 151.25 111.41 150.32 111.91 150.06 112.78 Z M 149.81 113.59 L 149.48 114.47 C 149.16 115.33 149.59 116.29 150.45 116.61 C 151.31 116.94 152.27 116.50 152.59 115.64 L 152.93 114.75 C 153.25 113.89 152.81 112.94 151.95 112.61 C 151.09 112.29 150.13 112.73 149.81 113.59 Z M 149.50 114.41 L 149.09 115.39 C 148.73 116.23 149.12 117.21 149.97 117.57 C 150.82 117.93 151.80 117.54 152.16 116.69 L 152.57 115.71 C 152.93 114.86 152.54 113.88 151.69 113.52 C 150.84 113.16 149.86 113.56 149.50 114.41 Z M 149.10 115.36 L 148.70 116.25 C 148.32 117.09 148.70 118.08 149.54 118.45 C 150.38 118.83 151.37 118.45 151.75 117.61 L 152.15 116.72 C 152.52 115.88 152.15 114.89 151.30 114.51 C 150.46 114.14 149.47 114.51 149.10 115.36 Z M 148.71 116.22 L 148.29 117.13 C 147.90 117.96 148.27 118.95 149.10 119.34 C 149.94 119.73 150.93 119.37 151.32 118.53 L 151.74 117.63 C 152.13 116.79 151.76 115.80 150.93 115.41 C 150.09 115.02 149.10 115.39 148.71 116.22 Z M 148.30 117.10 L 147.85 118.03 C 147.45 118.86 147.79 119.86 148.62 120.26 C 149.45 120.66 150.45 120.32 150.86 119.49 L 151.31 118.56 C 151.71 117.73 151.37 116.73 150.54 116.33 C 149.71 115.92 148.71 116.27 148.30 117.10 Z M 147.87 117.99 L 147.38 118.93 C 146.96 119.75 147.27 120.76 148.09 121.19 C 148.91 121.61 149.92 121.29 150.35 120.47 L 150.84 119.53 C 151.26 118.71 150.94 117.70 150.12 117.28 C 149.30 116.85 148.30 117.17 147.87 117.99 Z M 147.41 118.89 L 146.76 120.04 C 146.31 120.84 146.59 121.86 147.40 122.31 C 148.20 122.76 149.22 122.47 149.67 121.67 L 150.32 120.52 C 150.77 119.72 150.48 118.70 149.68 118.25 C 148.88 117.80 147.86 118.08 147.41 118.89 Z M 146.78 120.01 L 146.29 120.84 C 145.82 121.63 146.09 122.65 146.88 123.12 C 147.67 123.59 148.69 123.32 149.16 122.53 L 149.65 121.70 C 150.12 120.91 149.85 119.89 149.06 119.42 C 148.27 118.95 147.25 119.22 146.78 120.01 Z M 146.24 120.93 L 146.10 121.20 C 145.68 122.02 146.01 123.02 146.82 123.44 C 147.64 123.86 148.65 123.54 149.06 122.72 L 149.20 122.45 C 149.62 121.63 149.30 120.62 148.48 120.21 C 147.67 119.79 146.66 120.11 146.24 120.93 Z M 148.90 123.00 L 149.59 122.13 C 150.16 121.40 150.04 120.35 149.31 119.77 C 148.58 119.20 147.53 119.32 146.96 120.05 L 146.27 120.92 C 145.70 121.65 145.82 122.70 146.55 123.27 C 147.27 123.85 148.32 123.72 148.90 123.00 Z M 149.52 122.24 L 150.21 121.49 C 150.85 120.80 150.80 119.73 150.11 119.09 C 149.43 118.46 148.36 118.50 147.72 119.19 L 147.03 119.94 C 146.39 120.63 146.44 121.70 147.12 122.33 C 147.81 122.97 148.88 122.92 149.52 122.24 Z M 150.12 121.60 L 150.87 120.93 C 151.57 120.29 151.62 119.20 150.98 118.50 C 150.34 117.80 149.25 117.75 148.55 118.39 L 147.81 119.07 C 147.11 119.71 147.06 120.79 147.70 121.49 C 148.34 122.20 149.42 122.24 150.12 121.60 Z M 150.79 121.02 L 151.57 120.39 C 152.32 119.79 152.45 118.70 151.85 117.95 C 151.25 117.20 150.15 117.08 149.40 117.68 L 148.62 118.30 C 147.87 118.90 147.75 119.99 148.35 120.74 C 148.95 121.49 150.04 121.62 150.79 121.02 Z M 151.50 120.47 L 152.32 119.89 C 153.11 119.34 153.30 118.24 152.75 117.45 C 152.19 116.65 151.09 116.46 150.30 117.02 L 149.48 117.60 C 148.68 118.16 148.49 119.25 149.05 120.05 C 149.61 120.84 150.70 121.03 151.50 120.47 Z M 152.23 119.97 L 153.06 119.47 C 153.89 118.96 154.16 117.87 153.65 117.03 C 153.14 116.20 152.05 115.93 151.22 116.44 L 150.39 116.95 C 149.55 117.45 149.29 118.54 149.80 119.38 C 150.30 120.21 151.39 120.48 152.23 119.97 Z M 152.96 119.53 L 153.77 119.10 C 154.63 118.65 154.97 117.57 154.51 116.71 C 154.05 115.84 152.98 115.50 152.11 115.96 L 151.31 116.38 C 150.44 116.84 150.11 117.91 150.57 118.78 C 151.02 119.65 152.10 119.98 152.96 119.53 Z M 153.71 119.13 L 154.64 118.69 C 155.53 118.26 155.90 117.20 155.48 116.32 C 155.05 115.43 153.99 115.06 153.11 115.48 L 152.17 115.93 C 151.29 116.35 150.91 117.41 151.34 118.30 C 151.76 119.18 152.82 119.56 153.71 119.13 Z M 154.62 118.70 L 155.59 118.25 C 156.48 117.84 156.87 116.78 156.45 115.89 C 156.04 115.00 154.99 114.61 154.10 115.02 L 153.13 115.47 C 152.24 115.88 151.85 116.94 152.26 117.83 C 152.68 118.72 153.73 119.11 154.62 118.70 Z M 155.58 118.25 L 156.50 117.83 C 157.40 117.43 157.79 116.38 157.39 115.48 C 156.98 114.59 155.93 114.19 155.04 114.60 L 154.11 115.02 C 153.22 115.42 152.82 116.48 153.23 117.37 C 153.63 118.26 154.68 118.66 155.58 118.25 Z M 156.48 117.84 L 157.44 117.43 C 158.33 117.03 158.75 115.99 158.35 115.09 C 157.96 114.19 156.92 113.78 156.02 114.17 L 155.06 114.59 C 154.16 114.98 153.75 116.03 154.14 116.93 C 154.53 117.82 155.58 118.23 156.48 117.84 Z M 157.39 117.44 L 158.31 117.07 C 159.22 116.70 159.66 115.67 159.29 114.76 C 158.92 113.85 157.89 113.41 156.98 113.78 L 156.06 114.16 C 155.15 114.52 154.72 115.56 155.08 116.47 C 155.45 117.37 156.49 117.81 157.39 117.44 Z M 158.21 117.13 L 159.36 116.74 C 160.30 116.43 160.81 115.41 160.49 114.48 C 160.18 113.54 159.16 113.03 158.23 113.34 L 157.08 113.73 C 156.14 114.04 155.63 115.06 155.95 115.99 C 156.26 116.93 157.27 117.44 158.21 117.13 Z M 158.96 116.87 L 159.89 116.79 C 160.90 116.70 161.65 115.81 161.56 114.80 C 161.47 113.79 160.57 113.04 159.56 113.13 L 158.63 113.21 C 157.62 113.30 156.87 114.19 156.96 115.21 C 157.05 116.22 157.94 116.96 158.96 116.87 Z M 158.46 116.36 L 158.95 116.80 C 159.72 117.50 160.92 117.44 161.61 116.66 C 162.31 115.89 162.25 114.70 161.48 114.00 L 160.99 113.56 C 160.22 112.86 159.02 112.92 158.33 113.70 C 157.63 114.47 157.69 115.66 158.46 116.36 Z M 158.30 115.46 L 158.33 116.42 C 158.37 117.48 159.25 118.30 160.31 118.27 C 161.37 118.23 162.19 117.35 162.16 116.29 L 162.13 115.34 C 162.09 114.28 161.21 113.45 160.15 113.49 C 159.09 113.52 158.27 114.41 158.30 115.46 Z M 158.39 115.84 L 158.09 116.92 C 157.81 117.94 158.41 119.01 159.44 119.29 C 160.46 119.57 161.52 118.97 161.81 117.94 L 162.10 116.87 C 162.39 115.84 161.79 114.78 160.76 114.50 C 159.73 114.22 158.67 114.82 158.39 115.84 Z M 158.21 116.59 L 157.79 117.46 C 157.33 118.42 157.73 119.58 158.69 120.04 C 159.66 120.50 160.81 120.10 161.27 119.14 L 161.69 118.27 C 162.15 117.31 161.75 116.15 160.79 115.69 C 159.82 115.23 158.67 115.63 158.21 116.59 Z M 157.90 117.27 L 157.36 118.12 C 156.78 119.03 157.05 120.22 157.96 120.79 C 158.86 121.36 160.05 121.09 160.62 120.19 L 161.17 119.33 C 161.74 118.43 161.47 117.24 160.56 116.67 C 159.66 116.09 158.47 116.36 157.90 117.27 Z M 157.43 118.02 L 156.83 118.84 C 156.20 119.70 156.39 120.91 157.26 121.54 C 158.12 122.16 159.33 121.97 159.96 121.11 L 160.55 120.30 C 161.18 119.43 160.99 118.22 160.13 117.59 C 159.27 116.97 158.06 117.16 157.43 118.02 Z M 156.87 118.78 L 156.26 119.56 C 155.61 120.40 155.75 121.62 156.59 122.27 C 157.43 122.93 158.65 122.78 159.30 121.94 L 159.92 121.16 C 160.57 120.32 160.42 119.11 159.58 118.45 C 158.74 117.80 157.53 117.94 156.87 118.78 Z M 156.29 119.53 L 155.65 120.32 C 154.97 121.14 155.09 122.36 155.92 123.03 C 156.74 123.71 157.96 123.59 158.63 122.76 L 159.28 121.97 C 159.95 121.15 159.83 119.93 159.01 119.26 C 158.18 118.59 156.97 118.71 156.29 119.53 Z M 155.67 120.30 L 155.01 121.09 C 154.32 121.90 154.43 123.11 155.24 123.80 C 156.06 124.48 157.27 124.38 157.95 123.56 L 158.61 122.78 C 159.30 121.97 159.19 120.75 158.38 120.07 C 157.56 119.39 156.35 119.49 155.67 120.30 Z M 155.04 121.08 L 154.37 121.85 C 153.68 122.65 153.77 123.86 154.57 124.54 C 155.37 125.23 156.57 125.14 157.26 124.34 L 157.92 123.57 C 158.61 122.77 158.52 121.57 157.72 120.88 C 156.93 120.19 155.72 120.28 155.04 121.08 Z M 154.41 121.84 L 153.75 122.58 C 153.05 123.35 153.12 124.54 153.89 125.24 C 154.67 125.93 155.86 125.87 156.55 125.10 L 157.22 124.36 C 157.91 123.58 157.85 122.39 157.07 121.70 C 156.30 121.00 155.11 121.07 154.41 121.84 Z M 153.81 122.56 L 153.13 123.27 C 152.42 124.01 152.44 125.19 153.18 125.89 C 153.93 126.60 155.10 126.58 155.81 125.84 L 156.49 125.12 C 157.20 124.38 157.17 123.21 156.43 122.50 C 155.69 121.79 154.52 121.81 153.81 122.56 Z M 153.20 123.25 L 152.46 123.97 C 151.74 124.67 151.72 125.82 152.42 126.54 C 153.12 127.26 154.27 127.28 154.99 126.58 L 155.73 125.86 C 156.45 125.16 156.47 124.01 155.77 123.29 C 155.07 122.57 153.92 122.55 153.20 123.25 Z M 152.52 123.98 L 151.80 124.65 C 151.08 125.31 151.04 126.43 151.70 127.15 C 152.37 127.87 153.49 127.91 154.21 127.24 L 154.93 126.57 C 155.65 125.91 155.69 124.79 155.02 124.07 C 154.36 123.35 153.24 123.31 152.52 123.98 Z M 151.83 124.68 L 151.11 125.35 C 150.41 125.99 150.37 127.08 151.01 127.78 C 151.66 128.48 152.75 128.52 153.45 127.88 L 154.17 127.21 C 154.87 126.56 154.91 125.48 154.27 124.78 C 153.62 124.08 152.53 124.03 151.83 124.68 Z M 151.13 125.40 L 150.40 126.09 C 149.73 126.72 149.70 127.78 150.33 128.45 C 150.96 129.12 152.02 129.15 152.69 128.52 L 153.42 127.83 C 154.09 127.20 154.12 126.14 153.49 125.47 C 152.86 124.80 151.81 124.77 151.13 125.40 Z M 150.43 126.14 L 149.73 126.81 C 149.08 127.42 149.06 128.44 149.67 129.09 C 150.29 129.73 151.31 129.76 151.95 129.14 L 152.66 128.47 C 153.30 127.86 153.33 126.84 152.71 126.19 C 152.10 125.55 151.08 125.52 150.43 126.14 Z"
      fill="black"
      fill-rule="nonzero" /><path d="M 138.41 135.64 L 138.89 136.50 C 139.36 137.35 140.42 137.65 141.26 137.18 C 142.11 136.72 142.41 135.65 141.94 134.81 L 141.46 133.94 C 141.00 133.10 139.93 132.80 139.09 133.26 C 138.25 133.73 137.94 134.79 138.41 135.64 Z M 138.97 136.55 L 139.49 137.40 C 139.99 138.20 141.03 138.45 141.83 137.96 C 142.63 137.47 142.88 136.42 142.39 135.62 L 141.87 134.77 C 141.37 133.97 140.33 133.72 139.53 134.21 C 138.73 134.70 138.48 135.75 138.97 136.55 Z M 139.60 137.50 L 140.16 138.26 C 140.70 139.01 141.75 139.17 142.49 138.62 C 143.23 138.08 143.39 137.04 142.85 136.30 L 142.29 135.53 C 141.74 134.79 140.70 134.63 139.96 135.17 C 139.22 135.71 139.06 136.76 139.60 137.50 Z M 140.30 138.39 L 140.97 139.13 C 141.59 139.79 142.63 139.83 143.29 139.22 C 143.96 138.60 144.00 137.56 143.39 136.90 L 142.71 136.16 C 142.10 135.50 141.06 135.46 140.39 136.07 C 139.72 136.69 139.68 137.73 140.30 138.39 Z M 141.14 139.26 L 141.99 139.97 C 142.68 140.55 143.71 140.45 144.28 139.76 C 144.86 139.07 144.76 138.05 144.07 137.47 L 143.22 136.76 C 142.53 136.19 141.50 136.28 140.93 136.97 C 140.36 137.66 140.45 138.69 141.14 139.26 Z M 142.21 140.11 L 143.17 140.68 C 143.94 141.13 144.93 140.88 145.38 140.11 C 145.84 139.34 145.58 138.35 144.81 137.90 L 143.85 137.33 C 143.08 136.88 142.10 137.13 141.64 137.90 C 141.19 138.67 141.45 139.66 142.21 140.11 Z M 143.77 140.88 L 144.58 140.99 C 145.46 141.12 146.27 140.51 146.39 139.63 C 146.52 138.75 145.91 137.94 145.03 137.81 L 144.22 137.70 C 143.34 137.57 142.53 138.18 142.40 139.06 C 142.28 139.94 142.89 140.75 143.77 140.88 Z M 146.09 140.39 L 146.52 139.82 C 147.07 139.11 146.94 138.10 146.23 137.55 C 145.52 137.01 144.50 137.14 143.96 137.85 L 143.52 138.42 C 142.98 139.13 143.11 140.14 143.82 140.69 C 144.53 141.23 145.54 141.10 146.09 140.39 Z M 146.88 139.05 L 147.02 138.00 C 147.13 137.09 146.49 136.26 145.59 136.14 C 144.68 136.03 143.85 136.67 143.74 137.57 L 143.60 138.62 C 143.48 139.53 144.12 140.36 145.03 140.48 C 145.94 140.59 146.77 139.95 146.88 139.05 Z M 147.07 137.78 L 147.06 136.64 C 147.06 135.71 146.30 134.96 145.36 134.96 C 144.43 134.96 143.68 135.72 143.68 136.66 L 143.69 137.79 C 143.69 138.73 144.45 139.48 145.38 139.48 C 146.32 139.47 147.07 138.71 147.07 137.78 Z M 147.09 136.59 L 147.06 135.58 C 147.02 134.63 146.23 133.89 145.28 133.92 C 144.33 133.96 143.58 134.75 143.62 135.70 L 143.65 136.71 C 143.68 137.66 144.48 138.40 145.43 138.37 C 146.38 138.34 147.12 137.54 147.09 136.59 Z M 147.09 135.58 L 147.05 134.59 C 147.01 133.63 146.20 132.87 145.24 132.91 C 144.27 132.94 143.52 133.76 143.55 134.72 L 143.59 135.71 C 143.62 136.67 144.43 137.43 145.40 137.39 C 146.37 137.36 147.12 136.55 147.09 135.58 Z M 147.08 134.64 L 147.07 133.61 C 147.05 132.63 146.25 131.84 145.27 131.86 C 144.29 131.87 143.50 132.67 143.51 133.65 L 143.52 134.68 C 143.53 135.66 144.34 136.45 145.32 136.43 C 146.30 136.42 147.09 135.62 147.08 134.64 Z M 147.08 133.76 L 147.16 132.74 C 147.23 131.75 146.49 130.88 145.50 130.81 C 144.51 130.74 143.64 131.48 143.57 132.47 L 143.50 133.50 C 143.42 134.49 144.17 135.35 145.16 135.43 C 146.15 135.50 147.01 134.76 147.08 133.76 Z M 147.12 133.10 L 147.37 132.19 C 147.64 131.23 147.08 130.22 146.11 129.95 C 145.14 129.68 144.14 130.24 143.87 131.21 L 143.61 132.11 C 143.34 133.08 143.91 134.09 144.87 134.36 C 145.84 134.63 146.85 134.06 147.12 133.10 Z M 147.10 132.78 L 147.64 132.03 C 148.23 131.22 148.05 130.07 147.23 129.48 C 146.42 128.88 145.27 129.06 144.68 129.88 L 144.14 130.63 C 143.54 131.44 143.72 132.59 144.54 133.18 C 145.36 133.78 146.50 133.60 147.10 132.78 Z M 147.21 132.45 L 148.03 131.88 C 148.85 131.30 149.05 130.15 148.47 129.33 C 147.88 128.50 146.74 128.31 145.91 128.89 L 145.10 129.46 C 144.28 130.05 144.08 131.19 144.66 132.01 C 145.25 132.84 146.39 133.04 147.21 132.45 Z M 147.75 132.04 L 148.69 131.60 C 149.60 131.17 149.99 130.08 149.56 129.16 C 149.13 128.25 148.04 127.86 147.12 128.29 L 146.19 128.73 C 145.28 129.16 144.89 130.25 145.32 131.16 C 145.75 132.08 146.84 132.47 147.75 132.04 Z M 148.56 131.65 L 149.48 131.30 C 150.42 130.94 150.89 129.88 150.53 128.94 C 150.17 128.00 149.12 127.53 148.17 127.88 L 147.25 128.24 C 146.31 128.60 145.84 129.65 146.20 130.59 C 146.56 131.54 147.61 132.01 148.56 131.65 Z M 149.40 131.32 L 150.37 131.00 C 151.33 130.68 151.85 129.65 151.53 128.70 C 151.21 127.74 150.18 127.22 149.23 127.54 L 148.25 127.86 C 147.30 128.18 146.78 129.21 147.09 130.16 C 147.41 131.12 148.44 131.64 149.40 131.32 Z M 150.32 131.01 L 151.31 130.72 C 152.27 130.43 152.82 129.42 152.53 128.45 C 152.24 127.49 151.23 126.94 150.27 127.23 L 149.28 127.53 C 148.32 127.81 147.77 128.83 148.06 129.79 C 148.34 130.75 149.36 131.30 150.32 131.01 Z M 151.27 130.73 L 152.25 130.45 C 153.22 130.19 153.79 129.19 153.52 128.22 C 153.26 127.25 152.26 126.69 151.29 126.95 L 150.31 127.22 C 149.34 127.49 148.77 128.49 149.04 129.46 C 149.30 130.42 150.30 130.99 151.27 130.73 Z M 152.22 130.46 L 153.18 130.22 C 154.15 129.97 154.74 128.98 154.49 128.01 C 154.25 127.04 153.26 126.45 152.29 126.70 L 151.33 126.94 C 150.36 127.19 149.77 128.18 150.02 129.15 C 150.26 130.12 151.25 130.71 152.22 130.46 Z M 153.15 130.22 L 154.11 130.00 C 155.08 129.77 155.68 128.79 155.45 127.82 C 155.22 126.85 154.25 126.24 153.28 126.47 L 152.32 126.70 C 151.35 126.93 150.74 127.90 150.97 128.87 C 151.20 129.85 152.17 130.45 153.15 130.22 Z M 154.08 130.00 L 155.08 129.78 C 156.05 129.56 156.66 128.60 156.45 127.63 C 156.24 126.66 155.28 126.04 154.30 126.25 L 153.30 126.47 C 152.33 126.69 151.72 127.65 151.93 128.62 C 152.14 129.59 153.10 130.21 154.08 130.00 Z M 155.05 129.77 L 156.02 129.57 C 156.99 129.37 157.62 128.42 157.42 127.45 C 157.21 126.48 156.26 125.85 155.29 126.06 L 154.32 126.26 C 153.35 126.46 152.73 127.41 152.93 128.38 C 153.13 129.35 154.08 129.97 155.05 129.77 Z M 156.01 129.56 L 156.97 129.37 C 157.93 129.18 158.56 128.23 158.37 127.27 C 158.17 126.30 157.23 125.67 156.26 125.87 L 155.30 126.06 C 154.34 126.26 153.71 127.20 153.91 128.17 C 154.10 129.13 155.04 129.76 156.01 129.56 Z M 156.94 129.37 L 157.90 129.19 C 158.87 129.01 159.51 128.09 159.33 127.12 C 159.15 126.16 158.23 125.52 157.26 125.69 L 156.29 125.87 C 155.33 126.05 154.69 126.98 154.87 127.94 C 155.04 128.91 155.97 129.55 156.94 129.37 Z M 157.82 129.20 L 158.82 129.06 C 159.79 128.93 160.47 128.04 160.33 127.07 C 160.20 126.10 159.31 125.42 158.34 125.55 L 157.34 125.69 C 156.38 125.82 155.70 126.71 155.83 127.68 C 155.96 128.65 156.85 129.33 157.82 129.20 Z M 158.69 129.07 L 159.78 129.01 C 160.76 128.95 161.50 128.11 161.44 127.14 C 161.38 126.16 160.55 125.42 159.57 125.48 L 158.48 125.54 C 157.50 125.60 156.76 126.44 156.82 127.41 C 156.88 128.39 157.71 129.13 158.69 129.07 Z M 159.50 129.01 L 160.52 129.11 C 161.50 129.21 162.37 128.50 162.46 127.52 C 162.56 126.55 161.85 125.68 160.87 125.58 L 159.85 125.48 C 158.88 125.38 158.01 126.09 157.91 127.07 C 157.82 128.04 158.53 128.91 159.50 129.01 Z M 159.81 128.89 L 160.53 129.30 C 161.38 129.79 162.47 129.49 162.96 128.64 C 163.45 127.78 163.15 126.70 162.30 126.21 L 161.58 125.80 C 160.73 125.31 159.64 125.61 159.15 126.46 C 158.66 127.31 158.96 128.40 159.81 128.89 Z M 159.68 128.20 L 159.90 129.06 C 160.15 130.01 161.12 130.59 162.08 130.34 C 163.03 130.10 163.61 129.12 163.36 128.17 L 163.14 127.31 C 162.90 126.35 161.92 125.77 160.96 126.02 C 160.01 126.27 159.43 127.24 159.68 128.20 Z M 159.89 128.20 L 159.63 129.28 C 159.41 130.24 160.01 131.21 160.97 131.44 C 161.93 131.66 162.90 131.06 163.13 130.10 L 163.38 129.02 C 163.60 128.06 163.01 127.09 162.04 126.87 C 161.08 126.64 160.11 127.24 159.89 128.20 Z M 159.76 128.91 L 159.36 129.75 C 158.93 130.64 159.30 131.72 160.20 132.14 C 161.09 132.57 162.16 132.20 162.59 131.31 L 163.00 130.47 C 163.43 129.58 163.05 128.50 162.16 128.07 C 161.26 127.64 160.19 128.02 159.76 128.91 Z M 159.46 129.57 L 158.92 130.42 C 158.40 131.26 158.65 132.37 159.49 132.89 C 160.32 133.42 161.43 133.17 161.96 132.33 L 162.49 131.48 C 163.02 130.65 162.77 129.54 161.93 129.01 C 161.09 128.48 159.99 128.73 159.46 129.57 Z M 158.99 130.33 L 158.37 131.19 C 157.79 132.00 157.97 133.12 158.77 133.69 C 159.58 134.27 160.70 134.09 161.27 133.29 L 161.90 132.42 C 162.47 131.62 162.29 130.50 161.49 129.92 C 160.68 129.34 159.56 129.53 158.99 130.33 Z M 158.40 131.16 L 157.81 131.92 C 157.21 132.71 157.37 133.83 158.15 134.43 C 158.94 135.03 160.06 134.88 160.66 134.09 L 161.24 133.32 C 161.84 132.54 161.69 131.41 160.90 130.82 C 160.12 130.22 158.99 130.37 158.40 131.16 Z M 157.84 131.90 L 157.22 132.68 C 156.60 133.45 156.73 134.57 157.50 135.19 C 158.27 135.80 159.40 135.67 160.01 134.90 L 160.63 134.12 C 161.25 133.35 161.12 132.22 160.35 131.61 C 159.58 131.00 158.45 131.12 157.84 131.90 Z M 157.25 132.65 L 156.59 133.43 C 155.96 134.19 156.06 135.31 156.81 135.94 C 157.57 136.57 158.69 136.47 159.32 135.72 L 159.98 134.93 C 160.61 134.18 160.51 133.05 159.76 132.42 C 159.00 131.79 157.88 131.89 157.25 132.65 Z M 156.62 133.40 L 155.95 134.16 C 155.30 134.90 155.37 136.02 156.11 136.67 C 156.84 137.32 157.97 137.25 158.62 136.52 L 159.29 135.75 C 159.94 135.02 159.87 133.89 159.13 133.24 C 158.40 132.59 157.27 132.66 156.62 133.40 Z M 155.99 134.13 L 155.30 134.87 C 154.63 135.58 154.66 136.71 155.38 137.37 C 156.10 138.04 157.22 138.01 157.89 137.29 L 158.58 136.55 C 159.25 135.84 159.21 134.71 158.49 134.04 C 157.78 133.37 156.65 133.41 155.99 134.13 Z M 155.34 134.83 L 154.63 135.54 C 153.94 136.23 153.94 137.35 154.64 138.04 C 155.33 138.73 156.45 138.73 157.14 138.04 L 157.85 137.33 C 158.54 136.63 158.53 135.51 157.84 134.82 C 157.15 134.13 156.03 134.14 155.34 134.83 Z M 154.68 135.50 L 153.96 136.17 C 153.25 136.84 153.21 137.96 153.88 138.67 C 154.54 139.38 155.66 139.42 156.37 138.75 L 157.09 138.08 C 157.80 137.41 157.84 136.29 157.17 135.58 C 156.51 134.87 155.39 134.83 154.68 135.50 Z M 154.02 136.13 L 153.23 136.81 C 152.49 137.44 152.41 138.55 153.04 139.29 C 153.67 140.03 154.79 140.11 155.52 139.48 L 156.31 138.80 C 157.05 138.16 157.13 137.05 156.50 136.31 C 155.87 135.58 154.75 135.49 154.02 136.13 Z M 153.28 136.77 L 152.50 137.39 C 151.74 137.99 151.61 139.10 152.21 139.86 C 152.82 140.62 153.92 140.74 154.68 140.14 L 155.47 139.52 C 156.23 138.91 156.35 137.81 155.75 137.05 C 155.15 136.29 154.04 136.16 153.28 136.77 Z M 152.55 137.36 L 151.77 137.93 C 151.00 138.51 150.83 139.60 151.41 140.38 C 151.98 141.16 153.08 141.32 153.86 140.75 L 154.63 140.17 C 155.41 139.60 155.57 138.50 155.00 137.72 C 154.42 136.95 153.32 136.78 152.55 137.36 Z M 151.82 137.90 L 150.97 138.49 C 150.17 139.04 149.98 140.13 150.53 140.93 C 151.08 141.72 152.17 141.92 152.97 141.37 L 153.82 140.78 C 154.61 140.23 154.81 139.13 154.25 138.34 C 153.70 137.54 152.61 137.35 151.82 137.90 Z M 151.01 138.45 L 150.17 138.99 C 149.35 139.52 149.12 140.61 149.65 141.43 C 150.18 142.25 151.27 142.48 152.08 141.95 L 152.93 141.41 C 153.74 140.88 153.98 139.79 153.45 138.97 C 152.92 138.15 151.83 137.92 151.01 138.45 Z M 150.22 138.95 L 149.40 139.44 C 148.56 139.94 148.28 141.02 148.78 141.87 C 149.28 142.71 150.37 142.98 151.21 142.48 L 152.03 142.00 C 152.87 141.49 153.15 140.41 152.65 139.57 C 152.15 138.73 151.06 138.45 150.22 138.95 Z M 149.47 139.38 L 148.55 139.87 C 147.68 140.33 147.35 141.41 147.82 142.29 C 148.28 143.16 149.36 143.49 150.23 143.02 L 151.15 142.54 C 152.02 142.07 152.35 140.99 151.88 140.12 C 151.42 139.25 150.34 138.92 149.47 139.38 Z M 148.65 139.81 L 147.75 140.21 C 146.84 140.63 146.44 141.69 146.86 142.60 C 147.27 143.51 148.34 143.91 149.24 143.49 L 150.14 143.09 C 151.05 142.67 151.45 141.60 151.03 140.70 C 150.62 139.79 149.55 139.39 148.65 139.81 Z M 147.89 140.13 L 146.76 140.53 C 145.80 140.87 145.31 141.91 145.64 142.87 C 145.98 143.82 147.03 144.31 147.98 143.98 L 149.11 143.58 C 150.06 143.24 150.56 142.19 150.22 141.24 C 149.88 140.29 148.84 139.80 147.89 140.13 Z M 147.15 140.40 L 146.47 140.48 C 145.45 140.60 144.71 141.52 144.83 142.54 C 144.94 143.57 145.87 144.30 146.89 144.19 L 147.58 144.11 C 148.60 143.99 149.33 143.07 149.22 142.04 C 149.10 141.02 148.18 140.29 147.15 140.40 Z M 147.83 143.83 L 148.38 143.41 C 149.21 142.77 149.36 141.59 148.73 140.76 C 148.10 139.93 146.91 139.78 146.08 140.41 L 145.53 140.84 C 144.70 141.47 144.55 142.65 145.18 143.48 C 145.82 144.31 147.00 144.47 147.83 143.83 Z M 148.14 143.57 L 149.26 142.95 C 150.17 142.45 150.51 141.30 150.00 140.38 C 149.50 139.47 148.35 139.14 147.44 139.64 L 146.32 140.25 C 145.41 140.76 145.07 141.91 145.58 142.82 C 146.08 143.74 147.23 144.07 148.14 143.57 Z M 149.17 142.99 L 150.08 142.55 C 151.02 142.10 151.41 140.98 150.96 140.04 C 150.51 139.10 149.38 138.71 148.44 139.16 L 147.53 139.60 C 146.59 140.05 146.20 141.18 146.65 142.11 C 147.10 143.05 148.23 143.45 149.17 142.99 Z M 150.03 142.56 L 150.93 142.15 C 151.87 141.73 152.29 140.62 151.86 139.68 C 151.44 138.74 150.33 138.32 149.39 138.75 L 148.49 139.15 C 147.55 139.58 147.13 140.69 147.56 141.63 C 147.99 142.57 149.09 142.98 150.03 142.56 Z M 150.93 142.13 L 151.83 141.72 C 152.76 141.29 153.17 140.19 152.74 139.26 C 152.31 138.34 151.21 137.93 150.28 138.36 L 149.39 138.77 C 148.46 139.20 148.05 140.29 148.48 141.22 C 148.91 142.15 150.01 142.56 150.93 142.13 Z M 151.85 141.68 L 152.75 141.25 C 153.66 140.81 154.04 139.72 153.60 138.82 C 153.17 137.91 152.08 137.52 151.17 137.96 L 150.27 138.39 C 149.36 138.83 148.98 139.92 149.41 140.83 C 149.85 141.73 150.94 142.12 151.85 141.68 Z M 152.75 141.22 L 153.66 140.77 C 154.55 140.34 154.91 139.26 154.48 138.37 C 154.04 137.48 152.97 137.11 152.08 137.55 L 151.17 137.99 C 150.28 138.43 149.91 139.50 150.35 140.39 C 150.78 141.28 151.86 141.65 152.75 141.22 Z M 153.65 140.74 L 154.55 140.29 C 155.42 139.86 155.77 138.81 155.34 137.94 C 154.91 137.06 153.86 136.71 152.99 137.14 L 152.09 137.58 C 151.22 138.01 150.86 139.07 151.29 139.94 C 151.72 140.81 152.78 141.17 153.65 140.74 Z M 154.54 140.25 L 155.43 139.80 C 156.28 139.38 156.62 138.34 156.19 137.50 C 155.77 136.65 154.73 136.31 153.89 136.73 L 153.00 137.18 C 152.15 137.61 151.81 138.64 152.23 139.49 C 152.66 140.33 153.69 140.67 154.54 140.25 Z M 155.43 139.75 L 156.31 139.30 C 157.13 138.87 157.46 137.86 157.03 137.04 C 156.61 136.22 155.60 135.90 154.77 136.32 L 153.89 136.78 C 153.07 137.20 152.75 138.22 153.17 139.04 C 153.60 139.86 154.61 140.18 155.43 139.75 Z M 156.31 139.25 L 157.19 138.78 C 157.99 138.36 158.29 137.37 157.87 136.57 C 157.44 135.77 156.45 135.47 155.66 135.90 L 154.78 136.37 C 153.98 136.79 153.68 137.78 154.10 138.58 C 154.53 139.37 155.52 139.67 156.31 139.25 Z M 157.18 138.74 L 158.07 138.26 C 158.84 137.84 159.13 136.88 158.71 136.10 C 158.29 135.33 157.32 135.04 156.55 135.46 L 155.67 135.94 C 154.89 136.36 154.61 137.32 155.03 138.10 C 155.44 138.87 156.41 139.16 157.18 138.74 Z M 158.06 138.24 L 158.22 138.15 C 158.98 137.74 159.26 136.78 158.85 136.02 C 158.44 135.26 157.48 134.98 156.72 135.39 L 156.56 135.48 C 155.80 135.90 155.51 136.85 155.93 137.61 C 156.34 138.37 157.29 138.65 158.06 138.24 Z"
      fill="black"
      fill-rule="nonzero" /><path d="M 150.02 130.75 L 149.99 131.69 C 149.96 132.61 150.67 133.37 151.59 133.41 C 152.50 133.44 153.27 132.72 153.30 131.81 L 153.34 130.86 C 153.37 129.95 152.65 129.18 151.74 129.15 C 150.82 129.11 150.06 129.83 150.02 130.75 Z M 149.91 131.63 L 149.85 132.61 C 149.78 133.57 150.51 134.40 151.47 134.46 C 152.42 134.53 153.25 133.80 153.31 132.84 L 153.38 131.86 C 153.44 130.91 152.72 130.08 151.76 130.02 C 150.80 129.95 149.98 130.68 149.91 131.63 Z M 149.78 132.51 L 149.65 133.56 C 149.53 134.56 150.24 135.46 151.24 135.58 C 152.23 135.70 153.14 134.99 153.26 134.00 L 153.38 132.95 C 153.51 131.95 152.80 131.05 151.80 130.93 C 150.80 130.81 149.90 131.52 149.78 132.51 Z M 149.62 133.44 L 149.44 134.43 C 149.26 135.44 149.93 136.41 150.94 136.60 C 151.95 136.78 152.92 136.11 153.11 135.10 L 153.29 134.11 C 153.47 133.10 152.80 132.13 151.79 131.95 C 150.78 131.76 149.81 132.43 149.62 133.44 Z M 149.45 134.35 L 149.22 135.35 C 148.99 136.36 149.63 137.36 150.64 137.59 C 151.64 137.82 152.65 137.19 152.87 136.18 L 153.10 135.18 C 153.33 134.17 152.69 133.17 151.69 132.94 C 150.68 132.71 149.68 133.34 149.45 134.35 Z M 149.23 135.30 L 148.98 136.29 C 148.72 137.29 149.33 138.31 150.34 138.57 C 151.34 138.82 152.36 138.22 152.62 137.21 L 152.87 136.23 C 153.12 135.22 152.51 134.20 151.51 133.95 C 150.51 133.69 149.48 134.30 149.23 135.30 Z M 148.98 136.26 L 148.72 137.22 C 148.45 138.22 149.04 139.25 150.04 139.53 C 151.05 139.80 152.08 139.21 152.35 138.20 L 152.61 137.24 C 152.89 136.24 152.29 135.21 151.29 134.93 C 150.29 134.66 149.26 135.25 148.98 136.26 Z M 148.72 137.19 L 148.44 138.20 C 148.15 139.20 148.74 140.24 149.74 140.53 C 150.74 140.81 151.78 140.23 152.06 139.23 L 152.35 138.23 C 152.63 137.22 152.05 136.18 151.05 135.90 C 150.05 135.61 149.01 136.19 148.72 137.19 Z M 148.44 138.18 L 148.17 139.10 C 147.87 140.10 148.44 141.15 149.44 141.45 C 150.44 141.75 151.49 141.18 151.78 140.18 L 152.06 139.25 C 152.36 138.25 151.79 137.20 150.79 136.91 C 149.79 136.61 148.74 137.18 148.44 138.18 Z M 148.17 139.08 L 147.89 139.99 C 147.58 140.99 148.14 142.05 149.14 142.35 C 150.13 142.66 151.19 142.10 151.50 141.11 L 151.78 140.20 C 152.09 139.20 151.53 138.15 150.53 137.84 C 149.54 137.53 148.48 138.09 148.17 139.08 Z M 147.89 139.98 L 147.60 140.90 C 147.28 141.90 147.83 142.96 148.83 143.28 C 149.82 143.59 150.88 143.04 151.20 142.05 L 151.49 141.13 C 151.81 140.13 151.26 139.07 150.27 138.75 C 149.27 138.43 148.21 138.98 147.89 139.98 Z M 147.61 140.88 L 147.29 141.83 C 146.96 142.83 147.49 143.90 148.48 144.23 C 149.47 144.56 150.54 144.02 150.87 143.03 L 151.19 142.07 C 151.52 141.08 150.99 140.01 150.00 139.68 C 149.01 139.35 147.94 139.89 147.61 140.88 Z M 147.30 141.80 L 146.95 142.77 C 146.61 143.76 147.12 144.84 148.11 145.19 C 149.09 145.53 150.18 145.02 150.52 144.03 L 150.87 143.06 C 151.21 142.08 150.70 141.00 149.71 140.65 C 148.72 140.30 147.64 140.82 147.30 141.80 Z M 146.96 142.74 L 146.62 143.66 C 146.25 144.64 146.75 145.73 147.73 146.10 C 148.71 146.46 149.80 145.97 150.17 144.99 L 150.51 144.07 C 150.88 143.09 150.38 141.99 149.40 141.63 C 148.42 141.26 147.33 141.76 146.96 142.74 Z M 146.63 143.63 L 146.26 144.56 C 145.87 145.53 146.35 146.64 147.33 147.02 C 148.31 147.41 149.41 146.93 149.79 145.95 L 150.16 145.02 C 150.55 144.04 150.07 142.94 149.09 142.55 C 148.11 142.17 147.01 142.65 146.63 143.63 Z M 146.27 144.53 L 145.88 145.47 C 145.48 146.44 145.94 147.55 146.91 147.95 C 147.89 148.36 149.00 147.89 149.40 146.92 L 149.79 145.98 C 150.19 145.01 149.72 143.89 148.75 143.49 C 147.78 143.09 146.67 143.56 146.27 144.53 Z M 145.88 145.44 L 145.50 146.35 C 145.08 147.32 145.53 148.44 146.50 148.85 C 147.47 149.27 148.59 148.82 149.01 147.85 L 149.39 146.95 C 149.81 145.98 149.36 144.85 148.39 144.44 C 147.42 144.02 146.30 144.47 145.88 145.44 Z M 145.50 146.32 L 145.10 147.23 C 144.67 148.19 145.11 149.32 146.07 149.75 C 147.04 150.18 148.17 149.75 148.60 148.78 L 149.00 147.88 C 149.43 146.91 148.99 145.78 148.03 145.35 C 147.06 144.92 145.93 145.36 145.50 146.32 Z M 145.11 147.20 L 144.69 148.12 C 144.24 149.08 144.66 150.22 145.63 150.66 C 146.59 151.10 147.72 150.68 148.17 149.72 L 148.59 148.80 C 149.03 147.84 148.61 146.71 147.65 146.26 C 146.69 145.82 145.55 146.24 145.11 147.20 Z M 144.69 148.09 L 144.26 149.02 C 143.80 149.97 144.21 151.12 145.16 151.57 C 146.12 152.03 147.27 151.62 147.72 150.67 L 148.16 149.75 C 148.62 148.79 148.21 147.64 147.25 147.19 C 146.30 146.73 145.15 147.14 144.69 148.09 Z M 144.27 148.99 L 143.82 149.90 C 143.35 150.85 143.74 152.00 144.69 152.47 C 145.64 152.94 146.80 152.55 147.26 151.60 L 147.71 150.69 C 148.18 149.74 147.79 148.59 146.84 148.12 C 145.89 147.65 144.73 148.04 144.27 148.99 Z M 143.83 149.87 L 143.37 150.77 C 142.89 151.71 143.26 152.87 144.20 153.36 C 145.15 153.84 146.31 153.47 146.79 152.52 L 147.25 151.62 C 147.74 150.68 147.36 149.52 146.42 149.04 C 145.47 148.55 144.32 148.93 143.83 149.87 Z M 143.39 150.74 L 142.92 151.61 C 142.42 152.54 142.77 153.71 143.70 154.21 C 144.64 154.71 145.80 154.36 146.30 153.43 L 146.77 152.56 C 147.28 151.62 146.93 150.46 145.99 149.95 C 145.06 149.45 143.89 149.80 143.39 150.74 Z M 142.94 151.56 L 142.43 152.45 C 141.91 153.37 142.23 154.55 143.15 155.08 C 144.07 155.60 145.25 155.28 145.77 154.36 L 146.28 153.47 C 146.81 152.55 146.49 151.37 145.57 150.85 C 144.64 150.32 143.47 150.64 142.94 151.56 Z M 142.46 152.41 L 141.94 153.27 C 141.39 154.17 141.67 155.36 142.58 155.91 C 143.49 156.46 144.67 156.17 145.22 155.27 L 145.75 154.41 C 146.30 153.50 146.01 152.32 145.10 151.76 C 144.20 151.21 143.01 151.50 142.46 152.41 Z M 141.96 153.23 L 141.43 154.05 C 140.86 154.94 141.12 156.13 142.01 156.71 C 142.91 157.28 144.10 157.02 144.67 156.13 L 145.20 155.31 C 145.77 154.41 145.51 153.22 144.62 152.65 C 143.73 152.08 142.54 152.33 141.96 153.23 Z M 141.46 154.02 L 140.91 154.84 C 140.32 155.72 140.55 156.91 141.43 157.50 C 142.32 158.09 143.51 157.86 144.10 156.98 L 144.65 156.16 C 145.24 155.28 145.00 154.08 144.12 153.49 C 143.24 152.90 142.05 153.14 141.46 154.02 Z M 140.93 154.81 L 140.35 155.64 C 139.75 156.50 139.96 157.70 140.83 158.31 C 141.70 158.91 142.89 158.70 143.50 157.83 L 144.08 157.01 C 144.68 156.14 144.47 154.94 143.60 154.33 C 142.73 153.73 141.54 153.94 140.93 154.81 Z M 140.38 155.60 L 139.79 156.40 C 139.17 157.26 139.35 158.45 140.21 159.08 C 141.06 159.71 142.26 159.52 142.88 158.67 L 143.47 157.87 C 144.10 157.01 143.91 155.81 143.06 155.19 C 142.21 154.56 141.01 154.75 140.38 155.60 Z M 139.83 156.36 L 139.22 157.15 C 138.57 157.98 138.72 159.18 139.55 159.83 C 140.38 160.48 141.58 160.33 142.23 159.50 L 142.84 158.71 C 143.49 157.88 143.34 156.68 142.51 156.03 C 141.68 155.38 140.48 155.53 139.83 156.36 Z M 139.26 157.11 L 138.61 157.89 C 137.94 158.70 138.05 159.90 138.86 160.57 C 139.67 161.24 140.87 161.13 141.54 160.32 L 142.19 159.54 C 142.86 158.73 142.75 157.53 141.94 156.86 C 141.13 156.19 139.93 156.30 139.26 157.11 Z M 138.64 157.85 L 137.99 158.60 C 137.30 159.39 137.38 160.59 138.17 161.28 C 138.96 161.97 140.16 161.89 140.85 161.10 L 141.51 160.35 C 142.20 159.56 142.11 158.36 141.32 157.67 C 140.53 156.98 139.33 157.06 138.64 157.85 Z M 138.02 158.58 L 137.35 159.32 C 136.65 160.10 136.71 161.30 137.48 162.00 C 138.26 162.70 139.45 162.64 140.15 161.86 L 140.82 161.12 C 141.53 160.35 141.47 159.15 140.69 158.45 C 139.92 157.75 138.72 157.81 138.02 158.58 Z M 137.37 159.31 L 136.68 160.06 C 135.97 160.82 136.02 162.01 136.77 162.71 C 137.53 163.42 138.72 163.38 139.43 162.62 L 140.13 161.88 C 140.83 161.12 140.79 159.93 140.03 159.22 C 139.27 158.51 138.08 158.55 137.37 159.31 Z M 136.71 160.05 L 136.03 160.75 C 135.32 161.49 135.34 162.67 136.08 163.39 C 136.82 164.10 138.00 164.08 138.71 163.34 L 139.40 162.63 C 140.11 161.89 140.09 160.71 139.35 160.00 C 138.61 159.28 137.43 159.31 136.71 160.05 Z M 136.07 160.74 L 135.36 161.45 C 134.64 162.17 134.64 163.33 135.36 164.06 C 136.08 164.78 137.24 164.78 137.97 164.06 L 138.68 163.35 C 139.40 162.64 139.40 161.47 138.68 160.75 C 137.96 160.02 136.79 160.02 136.07 160.74 Z M 135.40 161.44 L 134.68 162.13 C 133.95 162.82 133.93 163.98 134.62 164.71 C 135.32 165.44 136.47 165.46 137.20 164.76 L 137.93 164.07 C 138.65 163.37 138.68 162.22 137.98 161.49 C 137.29 160.76 136.13 160.74 135.40 161.44 Z M 134.71 162.13 L 133.99 162.80 C 133.26 163.47 133.22 164.61 133.90 165.34 C 134.58 166.07 135.72 166.11 136.45 165.43 L 137.17 164.77 C 137.90 164.09 137.94 162.95 137.26 162.22 C 136.58 161.49 135.44 161.45 134.71 162.13 Z M 134.04 162.79 L 133.29 163.46 C 132.56 164.11 132.49 165.23 133.14 165.97 C 133.80 166.70 134.92 166.76 135.65 166.11 L 136.40 165.44 C 137.13 164.79 137.20 163.67 136.55 162.94 C 135.89 162.20 134.77 162.14 134.04 162.79 Z M 133.41 163.40 L 132.63 164.01 C 131.86 164.59 131.71 165.68 132.30 166.44 C 132.88 167.21 133.97 167.35 134.73 166.77 L 135.52 166.17 C 136.29 165.59 136.43 164.49 135.85 163.73 C 135.27 162.97 134.18 162.82 133.41 163.40 Z M 132.83 163.91 L 131.98 164.40 C 131.16 164.86 130.87 165.90 131.34 166.72 C 131.81 167.54 132.85 167.83 133.67 167.36 L 134.53 166.87 C 135.34 166.40 135.63 165.36 135.16 164.54 C 134.69 163.72 133.65 163.44 132.83 163.91 Z M 132.16 164.34 L 131.24 164.73 C 130.39 165.10 129.99 166.08 130.36 166.94 C 130.73 167.79 131.71 168.18 132.57 167.81 L 133.48 167.42 C 134.34 167.05 134.73 166.07 134.36 165.21 C 134.00 164.36 133.01 163.97 132.16 164.34 Z M 131.32 164.72 L 130.63 164.98 C 129.77 165.31 129.34 166.26 129.66 167.12 C 129.99 167.97 130.94 168.40 131.80 168.08 L 132.49 167.82 C 133.34 167.50 133.77 166.54 133.45 165.69 C 133.13 164.83 132.17 164.40 131.32 164.72 Z"
      fill="black"
      fill-rule="nonzero" /><path d="M 149.86 145.58 L 149.91 146.53 C 149.96 147.44 150.74 148.13 151.64 148.08 C 152.55 148.03 153.24 147.26 153.19 146.35 L 153.14 145.40 C 153.09 144.50 152.32 143.80 151.41 143.85 C 150.51 143.90 149.81 144.68 149.86 145.58 Z M 149.84 146.49 L 149.87 147.48 C 149.90 148.42 150.69 149.17 151.64 149.14 C 152.58 149.11 153.33 148.32 153.30 147.37 L 153.27 146.39 C 153.24 145.44 152.45 144.70 151.50 144.73 C 150.55 144.76 149.81 145.55 149.84 146.49 Z M 149.79 147.40 L 149.78 148.44 C 149.76 149.43 150.55 150.25 151.54 150.26 C 152.53 150.27 153.35 149.48 153.36 148.49 L 153.37 147.45 C 153.39 146.46 152.60 145.65 151.61 145.63 C 150.62 145.62 149.81 146.41 149.79 147.40 Z M 149.73 148.35 L 149.67 149.36 C 149.60 150.38 150.37 151.25 151.38 151.32 C 152.40 151.39 153.27 150.62 153.34 149.60 L 153.40 148.59 C 153.47 147.58 152.70 146.70 151.69 146.63 C 150.68 146.57 149.80 147.33 149.73 148.35 Z M 149.66 149.29 L 149.55 150.31 C 149.45 151.33 150.19 152.24 151.21 152.35 C 152.22 152.46 153.14 151.71 153.24 150.70 L 153.35 149.67 C 153.45 148.65 152.71 147.74 151.69 147.64 C 150.67 147.53 149.76 148.27 149.66 149.29 Z M 149.55 150.27 L 149.42 151.28 C 149.29 152.30 150.01 153.23 151.03 153.36 C 152.06 153.49 152.99 152.77 153.12 151.75 L 153.25 150.74 C 153.37 149.72 152.65 148.79 151.63 148.66 C 150.61 148.53 149.68 149.25 149.55 150.27 Z M 149.41 151.25 L 149.28 152.22 C 149.14 153.25 149.85 154.19 150.87 154.34 C 151.90 154.48 152.84 153.77 152.99 152.74 L 153.12 151.77 C 153.27 150.75 152.55 149.80 151.53 149.66 C 150.50 149.51 149.56 150.23 149.41 151.25 Z M 149.27 152.21 L 149.12 153.27 C 148.97 154.30 149.68 155.25 150.70 155.40 C 151.73 155.55 152.69 154.84 152.84 153.82 L 152.99 152.76 C 153.14 151.73 152.43 150.77 151.41 150.62 C 150.38 150.47 149.42 151.18 149.27 152.21 Z M 149.11 153.26 L 148.97 154.21 C 148.81 155.24 149.51 156.20 150.54 156.36 C 151.57 156.52 152.54 155.81 152.69 154.78 L 152.84 153.83 C 153.00 152.80 152.29 151.84 151.26 151.68 C 150.24 151.52 149.27 152.23 149.11 153.26 Z M 148.96 154.19 L 148.81 155.12 C 148.65 156.15 149.35 157.12 150.38 157.29 C 151.41 157.46 152.38 156.76 152.55 155.73 L 152.70 154.80 C 152.86 153.77 152.16 152.80 151.13 152.63 C 150.10 152.46 149.13 153.16 148.96 154.19 Z M 148.81 155.11 L 148.65 156.09 C 148.48 157.13 149.17 158.10 150.21 158.27 C 151.24 158.45 152.21 157.75 152.39 156.72 L 152.55 155.74 C 152.72 154.70 152.02 153.73 150.99 153.56 C 149.96 153.38 148.98 154.08 148.81 155.11 Z M 148.64 156.11 L 148.49 157.10 C 148.32 158.14 149.03 159.11 150.06 159.27 C 151.10 159.43 152.07 158.73 152.23 157.69 L 152.39 156.70 C 152.55 155.67 151.85 154.69 150.81 154.53 C 149.78 154.37 148.81 155.07 148.64 156.11 Z M 148.48 157.14 L 148.35 158.06 C 148.21 159.10 148.94 160.06 149.97 160.20 C 151.01 160.34 151.97 159.62 152.11 158.58 L 152.24 157.66 C 152.38 156.62 151.66 155.66 150.62 155.52 C 149.58 155.37 148.62 156.10 148.48 157.14 Z M 148.35 158.11 L 148.25 159.03 C 148.13 160.07 148.89 161.01 149.93 161.12 C 150.97 161.23 151.91 160.48 152.02 159.44 L 152.12 158.53 C 152.23 157.48 151.48 156.55 150.44 156.43 C 149.40 156.32 148.46 157.07 148.35 158.11 Z M 148.24 159.09 L 148.16 160.13 C 148.08 161.17 148.86 162.08 149.91 162.17 C 150.95 162.25 151.87 161.46 151.95 160.42 L 152.03 159.38 C 152.11 158.33 151.33 157.42 150.28 157.34 C 149.23 157.26 148.32 158.04 148.24 159.09 Z M 148.16 160.18 L 148.10 161.28 C 148.05 162.33 148.85 163.22 149.90 163.27 C 150.95 163.32 151.84 162.52 151.89 161.47 L 151.95 160.37 C 152.00 159.32 151.20 158.43 150.15 158.38 C 149.10 158.32 148.21 159.13 148.16 160.18 Z M 148.10 161.33 L 148.07 162.36 C 148.05 163.41 148.88 164.28 149.93 164.31 C 150.98 164.33 151.85 163.50 151.87 162.46 L 151.90 161.42 C 151.92 160.37 151.09 159.50 150.04 159.48 C 148.99 159.45 148.12 160.28 148.10 161.33 Z M 148.08 162.44 L 148.09 163.50 C 148.11 164.55 148.97 165.38 150.02 165.37 C 151.07 165.35 151.90 164.49 151.89 163.44 L 151.87 162.38 C 151.85 161.33 150.99 160.50 149.94 160.51 C 148.89 160.53 148.06 161.39 148.08 162.44 Z M 148.10 163.62 L 148.18 164.62 C 148.26 165.66 149.18 166.44 150.22 166.36 C 151.27 166.27 152.05 165.36 151.96 164.31 L 151.88 163.32 C 151.80 162.27 150.88 161.49 149.84 161.58 C 148.79 161.66 148.01 162.58 148.10 163.62 Z M 148.21 164.84 L 148.40 165.78 C 148.61 166.81 149.61 167.47 150.64 167.27 C 151.67 167.06 152.33 166.06 152.12 165.03 L 151.93 164.09 C 151.72 163.06 150.72 162.40 149.69 162.61 C 148.67 162.81 148.00 163.82 148.21 164.84 Z M 148.57 166.28 L 149.05 167.19 C 149.53 168.12 150.67 168.49 151.61 168.01 C 152.54 167.53 152.90 166.38 152.42 165.45 L 151.95 164.53 C 151.47 163.60 150.32 163.24 149.39 163.72 C 148.46 164.20 148.09 165.35 148.57 166.28 Z M 149.57 167.82 L 150.29 168.38 C 151.12 169.03 152.31 168.88 152.96 168.05 C 153.60 167.23 153.46 166.03 152.63 165.39 L 151.90 164.82 C 151.08 164.18 149.88 164.32 149.23 165.15 C 148.59 165.98 148.74 167.17 149.57 167.82 Z M 150.83 168.68 L 151.73 169.00 C 152.73 169.35 153.81 168.82 154.16 167.83 C 154.51 166.84 153.98 165.75 152.99 165.41 L 152.09 165.09 C 151.09 164.74 150.01 165.26 149.66 166.26 C 149.31 167.25 149.84 168.34 150.83 168.68 Z M 152.04 169.08 L 153.04 169.25 C 154.07 169.43 155.06 168.73 155.23 167.69 C 155.41 166.65 154.71 165.67 153.67 165.49 L 152.68 165.32 C 151.64 165.15 150.66 165.85 150.48 166.88 C 150.31 167.92 151.01 168.91 152.04 169.08 Z M 153.24 169.28 L 154.27 169.34 C 155.33 169.40 156.23 168.59 156.29 167.54 C 156.35 166.49 155.55 165.59 154.50 165.52 L 153.47 165.46 C 152.41 165.40 151.51 166.21 151.45 167.26 C 151.39 168.31 152.19 169.22 153.24 169.28 Z M 154.46 169.34 L 155.48 169.30 C 156.54 169.26 157.36 168.37 157.32 167.32 C 157.28 166.26 156.39 165.44 155.33 165.48 L 154.31 165.52 C 153.26 165.56 152.43 166.45 152.47 167.50 C 152.52 168.56 153.40 169.38 154.46 169.34 Z M 155.70 169.28 L 156.69 169.13 C 157.73 168.97 158.45 167.99 158.29 166.95 C 158.13 165.90 157.15 165.19 156.11 165.35 L 155.12 165.50 C 154.07 165.66 153.36 166.64 153.52 167.68 C 153.68 168.72 154.65 169.44 155.70 169.28 Z M 156.90 169.08 L 157.84 168.83 C 158.86 168.55 159.46 167.50 159.18 166.48 C 158.90 165.46 157.85 164.86 156.83 165.14 L 155.89 165.39 C 154.87 165.67 154.27 166.72 154.55 167.74 C 154.83 168.76 155.88 169.36 156.90 169.08 Z M 157.99 168.78 L 158.88 168.46 C 159.87 168.10 160.38 167.00 160.02 166.01 C 159.66 165.01 158.57 164.50 157.57 164.86 L 156.68 165.19 C 155.69 165.55 155.18 166.64 155.54 167.64 C 155.90 168.63 156.99 169.14 157.99 168.78 Z M 158.96 168.42 L 159.87 168.04 C 160.84 167.64 161.30 166.52 160.89 165.54 C 160.49 164.57 159.37 164.11 158.39 164.52 L 157.49 164.90 C 156.51 165.30 156.05 166.42 156.46 167.40 C 156.87 168.37 157.99 168.83 158.96 168.42 Z M 159.92 168.02 L 160.87 167.59 C 161.83 167.16 162.26 166.02 161.82 165.06 C 161.39 164.10 160.26 163.68 159.29 164.11 L 158.34 164.54 C 157.38 164.98 156.96 166.11 157.39 167.07 C 157.83 168.03 158.96 168.46 159.92 168.02 Z M 160.89 167.58 L 161.80 167.15 C 162.75 166.70 163.16 165.57 162.71 164.61 C 162.26 163.66 161.13 163.25 160.17 163.70 L 159.27 164.12 C 158.32 164.57 157.91 165.71 158.35 166.66 C 158.80 167.62 159.94 168.03 160.89 167.58 Z M 161.81 167.14 L 162.71 166.71 C 163.65 166.26 164.05 165.12 163.60 164.17 C 163.14 163.22 162.00 162.82 161.05 163.28 L 160.16 163.71 C 159.21 164.17 158.81 165.31 159.27 166.25 C 159.72 167.20 160.86 167.60 161.81 167.14 Z M 162.72 166.70 L 163.63 166.25 C 164.58 165.79 164.96 164.64 164.49 163.70 C 164.03 162.76 162.88 162.37 161.94 162.84 L 161.03 163.29 C 160.09 163.76 159.70 164.90 160.17 165.84 C 160.64 166.78 161.78 167.17 162.72 166.70 Z M 163.65 166.24 L 164.56 165.78 C 165.49 165.30 165.87 164.16 165.39 163.22 C 164.91 162.28 163.76 161.91 162.83 162.39 L 161.92 162.85 C 160.98 163.33 160.61 164.47 161.09 165.41 C 161.57 166.35 162.72 166.72 163.65 166.24 Z M 164.58 165.77 L 165.45 165.31 C 166.39 164.82 166.75 163.67 166.26 162.74 C 165.77 161.81 164.62 161.45 163.68 161.94 L 162.81 162.40 C 161.87 162.88 161.51 164.04 162.00 164.97 C 162.49 165.90 163.64 166.26 164.58 165.77 Z M 165.46 165.31 L 166.35 164.84 C 167.28 164.35 167.63 163.19 167.14 162.26 C 166.64 161.33 165.49 160.98 164.56 161.47 L 163.67 161.94 C 162.74 162.43 162.39 163.59 162.88 164.52 C 163.38 165.45 164.53 165.80 165.46 165.31 Z M 166.35 164.84 L 167.24 164.37 C 168.17 163.87 168.53 162.72 168.03 161.78 C 167.53 160.85 166.38 160.50 165.45 160.99 L 164.55 161.47 C 163.62 161.96 163.27 163.12 163.76 164.05 C 164.26 164.98 165.42 165.34 166.35 164.84 Z M 167.23 164.37 L 168.14 163.90 C 169.07 163.41 169.43 162.25 168.94 161.31 C 168.45 160.38 167.29 160.02 166.35 160.51 L 165.45 160.99 C 164.52 161.48 164.16 162.64 164.65 163.57 C 165.14 164.51 166.30 164.87 167.23 164.37 Z M 168.14 163.90 L 169.04 163.43 C 169.98 162.94 170.34 161.78 169.85 160.84 C 169.36 159.90 168.20 159.54 167.26 160.03 L 166.36 160.51 C 165.42 161.00 165.06 162.16 165.55 163.10 C 166.04 164.03 167.20 164.40 168.14 163.90 Z M 169.05 163.43 L 169.93 162.97 C 170.87 162.47 171.23 161.31 170.73 160.37 C 170.23 159.43 169.07 159.07 168.13 159.57 L 167.25 160.03 C 166.31 160.53 165.95 161.69 166.45 162.63 C 166.95 163.57 168.11 163.93 169.05 163.43 Z M 169.95 162.96 L 170.81 162.49 C 171.75 161.99 172.09 160.82 171.59 159.88 C 171.08 158.95 169.91 158.60 168.97 159.11 L 168.11 159.57 C 167.18 160.08 166.83 161.25 167.34 162.18 C 167.84 163.12 169.01 163.47 169.95 162.96 Z M 170.84 162.48 L 171.75 161.97 C 172.68 161.45 173.01 160.27 172.49 159.34 C 171.97 158.41 170.79 158.08 169.86 158.60 L 168.94 159.12 C 168.01 159.64 167.68 160.82 168.21 161.75 C 168.73 162.68 169.91 163.01 170.84 162.48 Z M 171.78 161.97 L 172.63 161.47 C 173.56 160.94 173.88 159.75 173.34 158.82 C 172.80 157.89 171.62 157.58 170.69 158.11 L 169.83 158.61 C 168.91 159.14 168.59 160.33 169.12 161.26 C 169.66 162.19 170.85 162.50 171.78 161.97 Z M 172.64 161.48 L 173.47 161.00 C 174.40 160.46 174.71 159.26 174.17 158.33 C 173.63 157.40 172.44 157.09 171.51 157.63 L 170.68 158.11 C 169.75 158.65 169.43 159.84 169.98 160.77 C 170.52 161.70 171.71 162.02 172.64 161.48 Z M 173.46 161.00 L 174.35 160.49 C 175.28 159.96 175.61 158.77 175.07 157.83 C 174.54 156.90 173.35 156.57 172.41 157.11 L 171.52 157.62 C 170.58 158.15 170.26 159.35 170.80 160.28 C 171.33 161.21 172.52 161.54 173.46 161.00 Z M 174.33 160.49 L 175.20 160.01 C 176.13 159.48 176.47 158.30 175.94 157.36 C 175.41 156.42 174.23 156.09 173.29 156.62 L 172.43 157.10 C 171.49 157.63 171.16 158.82 171.69 159.75 C 172.21 160.69 173.40 161.02 174.33 160.49 Z M 175.19 160.01 L 176.02 159.55 C 176.96 159.03 177.30 157.85 176.78 156.91 C 176.26 155.97 175.08 155.63 174.14 156.15 L 173.31 156.61 C 172.37 157.13 172.03 158.32 172.55 159.25 C 173.07 160.19 174.25 160.53 175.19 160.01 Z M 176.02 159.55 L 176.86 159.09 C 177.80 158.57 178.14 157.39 177.62 156.45 C 177.10 155.50 175.92 155.16 174.98 155.68 L 174.14 156.15 C 173.20 156.67 172.86 157.85 173.38 158.79 C 173.90 159.73 175.08 160.07 176.02 159.55 Z M 176.88 159.09 L 177.78 158.58 C 178.72 158.05 179.05 156.86 178.52 155.92 C 177.99 154.98 176.79 154.65 175.85 155.18 L 174.96 155.68 C 174.02 156.22 173.69 157.41 174.22 158.35 C 174.75 159.29 175.94 159.62 176.88 159.09 Z M 177.84 158.61 L 178.93 157.96 C 179.89 157.39 180.20 156.16 179.63 155.20 C 179.06 154.25 177.83 153.94 176.88 154.51 L 175.79 155.15 C 174.84 155.72 174.52 156.95 175.09 157.91 C 175.66 158.86 176.89 159.17 177.84 158.61 Z M 179.11 157.98 L 179.98 157.38 C 180.94 156.71 181.18 155.39 180.51 154.43 C 179.85 153.46 178.52 153.22 177.56 153.89 L 176.70 154.49 C 175.74 155.15 175.50 156.48 176.16 157.44 C 176.83 158.40 178.15 158.64 179.11 157.98 Z M 180.98 155.41 L 180.96 155.16 C 180.83 153.94 179.74 153.05 178.52 153.17 C 177.30 153.30 176.41 154.39 176.53 155.61 L 176.56 155.86 C 176.68 157.08 177.77 157.97 178.99 157.85 C 180.21 157.72 181.10 156.63 180.98 155.41 Z M 178.63 153.12 L 177.58 153.17 C 176.33 153.24 175.36 154.31 175.43 155.56 C 175.49 156.81 176.56 157.77 177.81 157.71 L 178.86 157.65 C 180.11 157.59 181.08 156.52 181.01 155.27 C 180.95 154.02 179.88 153.05 178.63 153.12 Z M 178.28 153.24 L 177.26 152.97 C 176.04 152.65 174.80 153.37 174.48 154.59 C 174.15 155.80 174.88 157.05 176.09 157.37 L 177.11 157.64 C 178.33 157.96 179.58 157.24 179.90 156.02 C 180.22 154.81 179.49 153.56 178.28 153.24 Z M 178.55 153.88 L 178.03 153.13 C 177.32 152.09 175.90 151.83 174.87 152.55 C 173.83 153.26 173.57 154.67 174.29 155.70 L 174.81 156.46 C 175.52 157.49 176.93 157.75 177.97 157.04 C 179.00 156.33 179.26 154.92 178.55 153.88 Z M 178.32 153.77 L 178.01 152.73 C 177.65 151.53 176.39 150.85 175.20 151.21 C 174.00 151.57 173.33 152.83 173.68 154.02 L 173.99 155.06 C 174.35 156.26 175.61 156.93 176.80 156.58 C 178.00 156.22 178.68 154.96 178.32 153.77 Z M 177.95 152.86 L 177.70 151.88 C 177.42 150.72 176.25 150.01 175.09 150.29 C 173.93 150.57 173.22 151.74 173.50 152.90 L 173.74 153.89 C 174.03 155.05 175.20 155.76 176.36 155.47 C 177.52 155.19 178.23 154.02 177.95 152.86 Z M 177.54 151.94 L 177.31 150.95 C 177.06 149.88 175.99 149.22 174.92 149.47 C 173.85 149.72 173.19 150.79 173.44 151.86 L 173.67 152.84 C 173.92 153.91 174.99 154.57 176.06 154.32 C 177.13 154.07 177.79 153.00 177.54 151.94 Z M 177.15 151.00 L 176.94 150.04 C 176.71 149.06 175.74 148.44 174.75 148.66 C 173.77 148.88 173.15 149.86 173.38 150.84 L 173.60 151.81 C 173.82 152.79 174.79 153.41 175.78 153.18 C 176.76 152.96 177.38 151.99 177.15 151.00 Z M 176.83 150.07 L 176.61 149.10 C 176.41 148.18 175.49 147.59 174.57 147.80 C 173.65 148.00 173.07 148.91 173.27 149.84 L 173.49 150.81 C 173.69 151.73 174.60 152.31 175.53 152.11 C 176.45 151.91 177.03 150.99 176.83 150.07 Z M 176.53 149.11 L 176.31 148.14 C 176.11 147.26 175.24 146.71 174.36 146.91 C 173.48 147.11 172.93 147.99 173.13 148.86 L 173.35 149.83 C 173.55 150.71 174.42 151.26 175.30 151.06 C 176.18 150.86 176.73 149.98 176.53 149.11 Z M 176.26 148.13 L 176.03 147.19 C 175.83 146.34 174.97 145.82 174.12 146.02 C 173.27 146.23 172.75 147.08 172.96 147.93 L 173.18 148.87 C 173.39 149.72 174.24 150.25 175.09 150.04 C 175.94 149.84 176.46 148.98 176.26 148.13 Z M 176.02 147.18 L 175.77 146.20 C 175.56 145.36 174.71 144.85 173.86 145.06 C 173.02 145.27 172.51 146.12 172.73 146.96 L 172.97 147.94 C 173.18 148.78 174.04 149.29 174.88 149.08 C 175.72 148.87 176.23 148.02 176.02 147.18 Z M 175.76 146.19 L 175.56 145.39 C 175.34 144.55 174.49 144.05 173.65 144.26 C 172.82 144.47 172.31 145.33 172.53 146.16 L 172.73 146.97 C 172.95 147.81 173.80 148.31 174.64 148.10 C 175.47 147.88 175.98 147.03 175.76 146.19 Z"
      fill="black"
      fill-rule="nonzero" /><path d="M 159.40 152.01 L 160.40 152.16 C 161.33 152.29 162.20 151.65 162.33 150.72 C 162.47 149.79 161.83 148.93 160.90 148.79 L 159.90 148.65 C 158.97 148.51 158.11 149.15 157.97 150.08 C 157.83 151.01 158.48 151.87 159.40 152.01 Z M 160.32 152.23 L 161.30 152.42 C 162.28 152.60 163.21 151.96 163.39 150.99 C 163.57 150.02 162.94 149.08 161.96 148.90 L 160.98 148.72 C 160.01 148.54 159.08 149.17 158.89 150.14 C 158.71 151.12 159.35 152.05 160.32 152.23 Z M 161.15 152.46 L 162.10 152.72 C 163.09 152.99 164.11 152.40 164.38 151.41 C 164.65 150.42 164.07 149.39 163.08 149.12 L 162.12 148.86 C 161.13 148.59 160.11 149.18 159.84 150.17 C 159.57 151.16 160.15 152.19 161.15 152.46 Z M 161.92 152.68 L 162.84 153.03 C 163.81 153.40 164.90 152.91 165.27 151.94 C 165.64 150.96 165.15 149.87 164.18 149.50 L 163.26 149.15 C 162.28 148.78 161.19 149.27 160.82 150.25 C 160.45 151.22 160.94 152.31 161.92 152.68 Z M 162.74 152.98 L 163.65 153.39 C 164.60 153.82 165.71 153.40 166.13 152.45 C 166.56 151.51 166.14 150.40 165.19 149.97 L 164.28 149.56 C 163.33 149.13 162.22 149.55 161.80 150.50 C 161.37 151.44 161.79 152.55 162.74 152.98 Z M 163.64 153.35 L 164.54 153.78 C 165.46 154.21 166.56 153.82 167.00 152.89 C 167.43 151.97 167.04 150.87 166.11 150.43 L 165.21 150.01 C 164.29 149.57 163.19 149.97 162.75 150.89 C 162.32 151.82 162.71 152.92 163.64 153.35 Z M 164.56 153.73 L 165.47 154.16 C 166.37 154.58 167.43 154.19 167.86 153.29 C 168.28 152.39 167.89 151.32 166.99 150.90 L 166.09 150.48 C 165.19 150.06 164.12 150.44 163.70 151.34 C 163.28 152.24 163.66 153.31 164.56 153.73 Z M 165.49 154.10 L 166.41 154.53 C 167.28 154.93 168.31 154.56 168.72 153.69 C 169.12 152.82 168.75 151.79 167.88 151.38 L 166.96 150.96 C 166.09 150.55 165.06 150.93 164.66 151.79 C 164.25 152.66 164.63 153.69 165.49 154.10 Z M 166.43 154.49 L 166.69 154.61 C 167.54 155.01 168.55 154.64 168.95 153.80 C 169.34 152.95 168.97 151.94 168.13 151.54 L 167.86 151.42 C 167.01 151.03 166.01 151.39 165.61 152.24 C 165.21 153.09 165.58 154.10 166.43 154.49 Z"
      fill="black"
      fill-rule="nonzero" /></svg>