<svg xmlns="http://www.w3.org/2000/svg" width="300" height="300" viewBox="0 0 300 300">
<path d="M 135.25 127.12 L 134.07 127.21 C 133.07 127.29 132.32 128.16 132.40 129.16 C 132.48 130.16 133.35 130.90 134.35 130.83 L 135.54 130.73 C 136.54 130.65 137.28 129.78 137.20 128.79 C 137.12 127.79 136.25 127.04 135.25 127.12 Z M 135.57 127.81 L 135.27 127.47 C 134.61 126.72 133.45 126.65 132.70 127.32 C 131.94 127.99 131.87 129.14 132.54 129.89 L 132.84 130.23 C 133.51 130.98 134.66 131.05 135.42 130.39 C 136.17 129.72 136.24 128.56 135.57 127.81 Z M 135.28 129.90 L 135.92 129.19 C 136.59 128.43 136.52 127.27 135.76 126.59 C 135.01 125.92 133.85 125.99 133.17 126.75 L 132.54 127.46 C 131.86 128.22 131.93 129.38 132.69 130.06 C 133.45 130.73 134.61 130.66 135.28 129.90 Z M 135.62 129.47 L 136.58 128.78 C 137.41 128.18 137.60 127.03 137.00 126.20 C 136.41 125.37 135.25 125.18 134.42 125.78 L 133.46 126.47 C 132.63 127.06 132.45 128.22 133.04 129.05 C 133.64 129.88 134.80 130.06 135.62 129.47 Z M 136.40 128.91 L 137.26 128.44 C 138.16 127.95 138.49 126.81 137.99 125.91 C 137.50 125.01 136.36 124.68 135.46 125.17 L 134.60 125.64 C 133.70 126.14 133.37 127.27 133.87 128.17 C 134.36 129.08 135.50 129.41 136.40 128.91 Z M 137.12 128.53 L 138.05 128.11 C 139.00 127.69 139.43 126.58 139.01 125.63 C 138.59 124.68 137.48 124.26 136.53 124.68 L 135.60 125.09 C 134.65 125.51 134.22 126.62 134.64 127.57 C 135.06 128.52 136.17 128.95 137.12 128.53 Z M 137.93 128.18 L 138.91 127.83 C 139.89 127.47 140.41 126.39 140.05 125.40 C 139.70 124.42 138.62 123.91 137.63 124.26 L 136.65 124.61 C 135.67 124.96 135.16 126.05 135.51 127.03 C 135.86 128.02 136.95 128.53 137.93 128.18 Z M 138.80 127.88 L 139.79 127.59 C 140.80 127.30 141.39 126.25 141.10 125.23 C 140.81 124.22 139.75 123.63 138.73 123.92 L 137.74 124.21 C 136.73 124.50 136.15 125.56 136.44 126.57 C 136.73 127.58 137.79 128.17 138.80 127.88 Z M 139.68 127.64 L 140.65 127.42 C 141.69 127.18 142.34 126.15 142.11 125.12 C 141.88 124.08 140.85 123.43 139.81 123.66 L 138.84 123.88 C 137.80 124.11 137.15 125.14 137.38 126.18 C 137.62 127.22 138.65 127.87 139.68 127.64 Z M 140.54 127.45 L 141.52 127.30 C 142.58 127.12 143.29 126.13 143.12 125.07 C 142.95 124.01 141.95 123.30 140.90 123.47 L 139.92 123.63 C 138.86 123.80 138.15 124.79 138.32 125.85 C 138.49 126.91 139.49 127.63 140.54 127.45 Z M 141.39 127.32 L 142.41 127.23 C 143.48 127.13 144.27 126.18 144.17 125.11 C 144.07 124.03 143.12 123.24 142.04 123.34 L 141.03 123.44 C 139.96 123.54 139.17 124.49 139.27 125.56 C 139.37 126.64 140.32 127.42 141.39 127.32 Z M 142.29 127.25 L 143.24 127.22 C 144.33 127.18 145.18 126.28 145.14 125.20 C 145.11 124.11 144.21 123.26 143.12 123.30 L 142.16 123.33 C 141.08 123.36 140.23 124.26 140.26 125.35 C 140.30 126.43 141.20 127.28 142.29 127.25 Z M 143.13 127.23 L 144.13 127.26 C 145.22 127.29 146.13 126.44 146.17 125.34 C 146.20 124.25 145.34 123.34 144.25 123.31 L 143.24 123.28 C 142.15 123.25 141.24 124.11 141.21 125.20 C 141.18 126.29 142.04 127.20 143.13 127.23 Z M 143.76 127.23 L 144.71 127.45 C 145.79 127.69 146.86 127.01 147.10 125.94 C 147.34 124.86 146.66 123.79 145.58 123.55 L 144.63 123.34 C 143.55 123.10 142.49 123.78 142.24 124.85 C 142.00 125.93 142.68 126.99 143.76 127.23 Z M 144.02 127.17 L 144.80 127.69 C 145.72 128.31 146.97 128.07 147.59 127.15 C 148.21 126.22 147.97 124.97 147.05 124.35 L 146.27 123.83 C 145.35 123.21 144.10 123.45 143.48 124.38 C 142.86 125.30 143.10 126.55 144.02 127.17 Z M 144.29 127.23 L 144.87 128.01 C 145.53 128.92 146.80 129.11 147.71 128.44 C 148.61 127.78 148.80 126.51 148.14 125.60 L 147.56 124.82 C 146.89 123.91 145.62 123.72 144.72 124.39 C 143.81 125.05 143.62 126.32 144.29 127.23 Z M 144.63 127.62 L 145.05 128.60 C 145.50 129.63 146.71 130.11 147.74 129.66 C 148.78 129.21 149.25 128.00 148.80 126.96 L 148.38 125.99 C 147.93 124.96 146.72 124.48 145.68 124.93 C 144.65 125.38 144.17 126.59 144.63 127.62 Z M 144.93 128.29 L 145.18 129.24 C 145.46 130.34 146.58 131.01 147.68 130.73 C 148.78 130.45 149.44 129.33 149.16 128.23 L 148.92 127.27 C 148.64 126.17 147.52 125.51 146.42 125.79 C 145.32 126.07 144.65 127.19 144.93 128.29 Z M 145.13 129.02 L 145.27 130.01 C 145.42 131.14 146.47 131.93 147.59 131.77 C 148.72 131.61 149.51 130.57 149.35 129.44 L 149.21 128.45 C 149.05 127.32 148.01 126.54 146.88 126.70 C 145.76 126.85 144.97 127.90 145.13 129.02 Z M 145.25 129.87 L 145.32 130.89 C 145.40 132.03 146.38 132.88 147.52 132.80 C 148.66 132.72 149.52 131.74 149.44 130.60 L 149.37 129.58 C 149.29 128.44 148.30 127.59 147.16 127.67 C 146.02 127.75 145.17 128.73 145.25 129.87 Z M 145.31 130.80 L 145.34 131.81 C 145.37 132.96 146.33 133.86 147.47 133.82 C 148.61 133.79 149.51 132.83 149.48 131.69 L 149.45 130.68 C 149.41 129.54 148.46 128.64 147.32 128.67 C 146.17 128.71 145.27 129.66 145.31 130.80 Z M 145.34 131.72 L 145.32 132.73 C 145.31 133.87 146.22 134.81 147.37 134.83 C 148.51 134.84 149.45 133.93 149.47 132.78 L 149.48 131.78 C 149.50 130.63 148.58 129.69 147.44 129.68 C 146.29 129.66 145.35 130.58 145.34 131.72 Z M 145.32 132.61 L 145.25 133.60 C 145.17 134.74 146.04 135.73 147.18 135.81 C 148.33 135.89 149.32 135.03 149.40 133.89 L 149.47 132.90 C 149.55 131.75 148.68 130.76 147.54 130.68 C 146.40 130.60 145.40 131.47 145.32 132.61 Z M 145.27 133.45 L 145.12 134.48 C 144.96 135.62 145.76 136.67 146.89 136.83 C 148.03 136.99 149.08 136.20 149.24 135.06 L 149.38 134.03 C 149.54 132.89 148.75 131.84 147.61 131.68 C 146.48 131.52 145.43 132.32 145.27 133.45 Z M 145.15 134.33 L 144.94 135.30 C 144.70 136.43 145.41 137.53 146.53 137.78 C 147.66 138.02 148.76 137.30 149.00 136.18 L 149.21 135.21 C 149.46 134.09 148.74 132.98 147.62 132.74 C 146.50 132.49 145.39 133.21 145.15 134.33 Z M 144.98 135.15 L 144.70 136.09 C 144.37 137.19 144.99 138.35 146.09 138.68 C 147.20 139.01 148.35 138.38 148.68 137.28 L 148.97 136.34 C 149.29 135.24 148.67 134.08 147.57 133.75 C 146.47 133.42 145.31 134.05 144.98 135.15 Z M 144.77 135.89 L 144.38 136.83 C 143.95 137.89 144.45 139.11 145.52 139.54 C 146.58 139.98 147.80 139.47 148.23 138.41 L 148.62 137.47 C 149.05 136.41 148.54 135.19 147.48 134.76 C 146.42 134.32 145.20 134.83 144.77 135.89 Z M 144.50 136.59 L 144.02 137.44 C 143.45 138.44 143.80 139.71 144.80 140.27 C 145.80 140.84 147.07 140.49 147.64 139.49 L 148.12 138.64 C 148.68 137.64 148.33 136.37 147.33 135.81 C 146.33 135.24 145.06 135.59 144.50 136.59 Z M 144.17 137.21 L 143.62 137.94 C 142.93 138.86 143.11 140.16 144.03 140.85 C 144.94 141.54 146.25 141.36 146.94 140.44 L 147.48 139.71 C 148.18 138.80 147.99 137.50 147.08 136.81 C 146.16 136.12 144.86 136.30 144.17 137.21 Z M 143.78 137.77 L 143.09 138.49 C 142.31 139.32 142.34 140.63 143.17 141.41 C 143.99 142.20 145.30 142.17 146.09 141.34 L 146.78 140.61 C 147.56 139.79 147.53 138.48 146.70 137.69 C 145.88 136.91 144.57 136.94 143.78 137.77 Z M 143.21 138.39 L 142.42 139.10 C 141.57 139.86 141.51 141.16 142.27 142.01 C 143.03 142.85 144.33 142.92 145.17 142.16 L 145.97 141.44 C 146.81 140.68 146.88 139.38 146.12 138.54 C 145.36 137.70 144.06 137.63 143.21 138.39 Z M 142.47 139.06 L 141.70 139.72 C 140.83 140.45 140.72 141.74 141.45 142.61 C 142.18 143.47 143.47 143.59 144.34 142.86 L 145.12 142.20 C 145.98 141.47 146.09 140.18 145.36 139.31 C 144.63 138.45 143.34 138.33 142.47 139.06 Z M 141.69 139.73 L 140.91 140.40 C 140.04 141.13 139.94 142.42 140.67 143.28 C 141.40 144.14 142.69 144.25 143.55 143.51 L 144.34 142.85 C 145.20 142.12 145.31 140.82 144.58 139.96 C 143.84 139.10 142.55 139.00 141.69 139.73 Z M 140.85 140.45 L 140.13 141.11 C 139.30 141.87 139.25 143.16 140.01 143.99 C 140.77 144.82 142.07 144.88 142.90 144.12 L 143.61 143.46 C 144.44 142.70 144.50 141.41 143.73 140.58 C 142.97 139.75 141.68 139.69 140.85 140.45 Z M 139.97 141.27 L 139.31 142.03 C 138.57 142.88 138.66 144.18 139.51 144.92 C 140.37 145.66 141.66 145.57 142.40 144.71 L 143.06 143.95 C 143.80 143.10 143.71 141.81 142.86 141.07 C 142.00 140.33 140.71 140.42 139.97 141.27 Z M 139.03 142.41 L 138.59 143.25 C 138.06 144.26 138.44 145.51 139.45 146.04 C 140.46 146.57 141.71 146.18 142.24 145.17 L 142.68 144.33 C 143.21 143.32 142.82 142.08 141.82 141.55 C 140.81 141.02 139.56 141.40 139.03 142.41 Z M 138.40 143.72 L 138.16 144.68 C 137.88 145.80 138.56 146.92 139.68 147.20 C 140.79 147.47 141.91 146.79 142.19 145.68 L 142.43 144.71 C 142.70 143.60 142.02 142.47 140.91 142.20 C 139.80 141.92 138.67 142.60 138.40 143.72 Z M 138.10 144.97 L 138.00 145.95 C 137.88 147.09 138.71 148.12 139.86 148.23 C 141.00 148.35 142.03 147.52 142.15 146.37 L 142.25 145.39 C 142.36 144.25 141.53 143.23 140.39 143.11 C 139.24 142.99 138.22 143.82 138.10 144.97 Z M 137.99 146.08 L 137.95 147.12 C 137.90 148.28 138.80 149.25 139.95 149.29 C 141.11 149.33 142.08 148.44 142.12 147.28 L 142.16 146.24 C 142.20 145.09 141.30 144.12 140.15 144.07 C 139.00 144.03 138.03 144.93 137.99 146.08 Z M 137.94 147.19 L 137.93 148.20 C 137.93 149.35 138.86 150.30 140.01 150.31 C 141.17 150.31 142.11 149.38 142.12 148.23 L 142.12 147.22 C 142.13 146.06 141.20 145.12 140.05 145.11 C 138.89 145.10 137.95 146.03 137.94 147.19 Z M 137.93 148.21 L 137.93 149.29 C 137.93 150.45 138.87 151.39 140.03 151.39 C 141.18 151.39 142.12 150.45 142.12 149.29 L 142.12 148.21 C 142.12 147.06 141.18 146.12 140.03 146.12 C 138.87 146.12 137.93 147.06 137.93 148.21 Z M 137.93 149.29 L 137.93 150.27 C 137.93 151.42 138.87 152.36 140.03 152.36 C 141.18 152.36 142.12 151.42 142.12 150.27 L 142.12 149.29 C 142.12 148.14 141.18 147.20 140.03 147.20 C 138.87 147.20 137.93 148.14 137.93 149.29 Z M 137.93 150.27 L 137.93 151.21 C 137.93 152.36 138.87 153.30 140.03 153.30 C 141.18 153.30 142.12 152.36 142.12 151.21 L 142.12 150.27 C 142.12 149.11 141.18 148.17 140.03 148.17 C 138.87 148.17 137.93 149.11 137.93 150.27 Z M 137.94 151.21 L 137.94 152.21 C 137.94 153.36 138.88 154.29 140.03 154.29 C 141.18 154.29 142.12 153.36 142.12 152.20 L 142.12 151.20 C 142.11 150.05 141.18 149.12 140.02 149.12 C 138.87 149.12 137.94 150.05 137.94 151.21 Z M 137.94 152.22 L 137.95 153.23 C 137.96 154.38 138.90 155.30 140.05 155.30 C 141.20 155.29 142.12 154.35 142.12 153.20 L 142.11 152.19 C 142.10 151.04 141.16 150.11 140.01 150.12 C 138.86 150.13 137.94 151.07 137.94 152.22 Z M 137.97 153.25 L 137.99 154.26 C 138.01 155.40 138.95 156.31 140.09 156.29 C 141.23 156.27 142.14 155.33 142.12 154.18 L 142.10 153.18 C 142.08 152.03 141.14 151.13 140.00 151.15 C 138.86 151.17 137.95 152.11 137.97 153.25 Z M 138.03 154.29 L 138.06 155.30 C 138.10 156.41 139.03 157.29 140.15 157.25 C 141.27 157.22 142.14 156.28 142.11 155.17 L 142.07 154.16 C 142.04 153.04 141.10 152.17 139.99 152.20 C 138.87 152.24 138.00 153.17 138.03 154.29 Z M 138.13 155.31 L 138.17 156.29 C 138.21 157.37 139.13 158.21 140.21 158.17 C 141.29 158.12 142.13 157.21 142.08 156.13 L 142.04 155.15 C 142.00 154.07 141.08 153.23 140.00 153.27 C 138.92 153.32 138.08 154.23 138.13 155.31 Z M 138.21 156.29 L 138.21 156.48 C 138.26 157.54 139.16 158.36 140.22 158.32 C 141.28 158.27 142.10 157.37 142.05 156.31 L 142.04 156.13 C 142.00 155.07 141.10 154.25 140.04 154.29 C 138.98 154.34 138.16 155.24 138.21 156.29 Z"
      fill="black"
      fill-rule="nonzero" /><path d="M 140.42 165.70 L 140.31 165.70 C 139.23 165.70 138.35 166.58 138.35 167.66 C 138.35 168.75 139.23 169.63 140.31 169.63 L 140.42 169.63 C 141.50 169.63 142.38 168.75 142.38 167.66 C 142.38 166.58 141.50 165.70 140.42 165.70 Z"
      fill="black"
      fill-rule="nonzero" /><path d="M 157.10 125.08 L 157.02 126.04 C 156.95 126.97 157.64 127.79 158.57 127.87 C 159.51 127.94 160.33 127.25 160.40 126.32 L 160.48 125.36 C 160.56 124.43 159.87 123.61 158.94 123.53 C 158.00 123.46 157.18 124.15 157.10 125.08 Z M 156.86 126.02 L 156.77 127.02 C 156.69 128.05 157.45 128.95 158.47 129.03 C 159.50 129.12 160.40 128.36 160.48 127.34 L 160.57 126.33 C 160.66 125.31 159.90 124.41 158.87 124.32 C 157.85 124.23 156.95 124.99 156.86 126.02 Z M 156.65 127.01 L 156.56 127.98 C 156.47 129.07 157.28 130.04 158.37 130.13 C 159.47 130.23 160.43 129.42 160.53 128.32 L 160.61 127.35 C 160.71 126.26 159.90 125.29 158.80 125.20 C 157.71 125.10 156.74 125.91 156.65 127.01 Z M 156.51 127.98 L 156.43 128.91 C 156.34 130.03 157.17 131.02 158.29 131.12 C 159.41 131.21 160.40 130.38 160.50 129.26 L 160.58 128.33 C 160.67 127.20 159.84 126.22 158.72 126.12 C 157.60 126.02 156.61 126.85 156.51 127.98 Z M 156.42 128.93 L 156.34 129.96 C 156.25 131.09 157.10 132.07 158.23 132.16 C 159.35 132.25 160.34 131.40 160.43 130.28 L 160.51 129.25 C 160.60 128.12 159.75 127.13 158.62 127.04 C 157.49 126.95 156.51 127.80 156.42 128.93 Z M 156.33 129.98 L 156.26 131.06 C 156.18 132.20 157.04 133.18 158.18 133.26 C 159.31 133.33 160.30 132.47 160.37 131.33 L 160.44 130.25 C 160.52 129.11 159.65 128.13 158.52 128.06 C 157.38 127.98 156.40 128.85 156.33 129.98 Z M 156.25 131.09 L 156.19 132.11 C 156.13 133.25 157.01 134.22 158.15 134.29 C 159.29 134.35 160.26 133.47 160.32 132.33 L 160.38 131.31 C 160.44 130.17 159.56 129.20 158.42 129.13 C 157.28 129.07 156.31 129.95 156.25 131.09 Z M 156.19 132.12 L 156.14 133.16 C 156.09 134.30 156.97 135.27 158.11 135.32 C 159.26 135.38 160.23 134.49 160.28 133.35 L 160.33 132.32 C 160.38 131.17 159.50 130.20 158.35 130.15 C 157.21 130.10 156.24 130.98 156.19 132.12 Z M 156.14 133.17 L 156.09 134.16 C 156.05 135.30 156.94 136.27 158.08 136.32 C 159.23 136.37 160.20 135.48 160.24 134.33 L 160.28 133.34 C 160.33 132.19 159.44 131.23 158.30 131.18 C 157.15 131.13 156.18 132.02 156.14 133.17 Z M 156.09 134.16 L 156.05 135.20 C 156.00 136.34 156.90 137.31 158.05 137.36 C 159.19 137.40 160.16 136.51 160.21 135.36 L 160.25 134.33 C 160.29 133.18 159.40 132.21 158.25 132.16 C 157.10 132.12 156.13 133.01 156.09 134.16 Z M 156.05 135.20 L 156.01 136.24 C 155.96 137.39 156.86 138.36 158.01 138.40 C 159.16 138.45 160.13 137.55 160.17 136.40 L 160.21 135.36 C 160.25 134.21 159.36 133.24 158.21 133.20 C 157.06 133.15 156.09 134.05 156.05 135.20 Z M 156.00 136.24 L 155.97 137.16 C 155.92 138.31 156.82 139.28 157.97 139.32 C 159.12 139.37 160.09 138.47 160.14 137.32 L 160.17 136.40 C 160.22 135.25 159.32 134.28 158.17 134.24 C 157.02 134.19 156.05 135.09 156.00 136.24 Z M 155.97 137.15 L 155.93 138.12 C 155.88 139.27 156.78 140.24 157.93 140.29 C 159.08 140.34 160.05 139.44 160.10 138.29 L 160.14 137.32 C 160.18 136.17 159.29 135.20 158.14 135.15 C 156.99 135.10 156.01 136.00 155.97 137.15 Z M 155.93 138.12 L 155.89 139.12 C 155.84 140.27 156.74 141.24 157.89 141.29 C 159.05 141.33 160.02 140.43 160.06 139.28 L 160.10 138.28 C 160.14 137.13 159.25 136.16 158.09 136.12 C 156.94 136.07 155.97 136.97 155.93 138.12 Z M 155.89 139.15 L 155.86 140.11 C 155.83 141.26 156.74 142.22 157.89 142.25 C 159.05 142.28 160.01 141.37 160.04 140.22 L 160.06 139.26 C 160.09 138.10 159.18 137.14 158.03 137.11 C 156.88 137.08 155.92 137.99 155.89 139.15 Z M 155.86 140.14 L 155.85 141.05 C 155.84 142.20 156.76 143.15 157.92 143.16 C 159.07 143.18 160.02 142.25 160.03 141.10 L 160.04 140.18 C 160.05 139.03 159.13 138.08 157.97 138.07 C 156.82 138.06 155.87 138.98 155.86 140.14 Z M 155.85 141.07 L 155.85 142.11 C 155.84 143.27 156.78 144.20 157.93 144.21 C 159.09 144.21 160.02 143.28 160.03 142.12 L 160.03 141.08 C 160.03 139.92 159.10 138.99 157.94 138.98 C 156.79 138.98 155.85 139.91 155.85 141.07 Z M 155.84 142.12 L 155.84 143.15 C 155.84 144.31 156.78 145.24 157.94 145.24 C 159.09 145.24 160.03 144.31 160.03 143.15 L 160.03 142.12 C 160.03 140.96 159.09 140.03 157.94 140.03 C 156.78 140.03 155.85 140.96 155.84 142.12 Z M 155.84 143.15 L 155.84 144.15 C 155.84 145.31 156.78 146.25 157.94 146.25 C 159.09 146.25 160.03 145.31 160.03 144.15 L 160.03 143.15 C 160.03 142.00 159.09 141.06 157.94 141.06 C 156.78 141.06 155.84 142.00 155.84 143.15 Z M 155.84 144.15 L 155.84 145.19 C 155.84 146.35 156.78 147.28 157.94 147.28 C 159.09 147.28 160.03 146.35 160.03 145.19 L 160.03 144.15 C 160.03 143.00 159.09 142.06 157.94 142.06 C 156.78 142.06 155.84 143.00 155.84 144.15 Z M 155.84 145.19 L 155.84 146.20 C 155.84 147.36 156.78 148.29 157.94 148.29 C 159.09 148.29 160.03 147.36 160.03 146.20 L 160.03 145.19 C 160.03 144.04 159.09 143.10 157.94 143.10 C 156.78 143.10 155.84 144.04 155.84 145.19 Z M 155.84 146.20 L 155.85 147.29 C 155.85 148.45 156.78 149.38 157.94 149.38 C 159.10 149.38 160.03 148.44 160.03 147.29 L 160.03 146.20 C 160.03 145.04 159.09 144.11 157.93 144.11 C 156.78 144.11 155.84 145.05 155.84 146.20 Z M 155.85 147.31 L 155.86 148.32 C 155.87 149.47 156.82 150.40 157.97 150.38 C 159.13 150.37 160.05 149.42 160.04 148.27 L 160.03 147.26 C 160.01 146.11 159.07 145.18 157.91 145.20 C 156.76 145.21 155.83 146.16 155.85 147.31 Z M 155.86 148.37 L 155.90 149.30 C 155.94 150.45 156.91 151.35 158.06 151.31 C 159.22 151.26 160.12 150.29 160.07 149.14 L 160.04 148.21 C 159.99 147.06 159.02 146.16 157.87 146.20 C 156.72 146.25 155.82 147.22 155.86 148.37 Z M 155.90 149.41 L 156.02 150.64 C 156.13 151.79 157.14 152.64 158.29 152.53 C 159.44 152.42 160.29 151.41 160.18 150.26 L 160.06 149.03 C 159.96 147.88 158.94 147.03 157.79 147.14 C 156.64 147.25 155.80 148.26 155.90 149.41 Z M 156.09 151.00 L 156.30 151.79 C 156.60 152.90 157.75 153.56 158.86 153.26 C 159.97 152.96 160.63 151.81 160.33 150.70 L 160.11 149.91 C 159.81 148.79 158.67 148.14 157.55 148.44 C 156.44 148.74 155.79 149.88 156.09 151.00 Z M 159.91 152.57 L 160.22 152.19 C 160.95 151.31 160.83 150.01 159.95 149.28 C 159.07 148.55 157.77 148.67 157.04 149.55 L 156.72 149.92 C 156.00 150.80 156.12 152.11 156.99 152.84 C 157.87 153.56 159.18 153.44 159.91 152.57 Z M 160.57 151.45 L 160.94 150.24 C 161.26 149.17 160.65 148.03 159.57 147.71 C 158.50 147.39 157.37 148.00 157.04 149.08 L 156.68 150.28 C 156.36 151.36 156.97 152.49 158.04 152.81 C 159.12 153.14 160.25 152.53 160.57 151.45 Z"
      fill="black"
      fill-rule="nonzero" /><path d="M 156.64 162.44 L 156.67 163.44 C 156.72 164.47 157.59 165.28 158.62 165.24 C 159.66 165.20 160.46 164.32 160.42 163.29 L 160.38 162.29 C 160.34 161.26 159.47 160.45 158.43 160.49 C 157.40 160.53 156.59 161.40 156.64 162.44 Z M 156.48 163.45 L 156.52 164.45 C 156.56 165.59 157.52 166.48 158.67 166.44 C 159.81 166.39 160.70 165.43 160.66 164.28 L 160.62 163.28 C 160.57 162.14 159.61 161.25 158.47 161.29 C 157.32 161.34 156.43 162.30 156.48 163.45 Z M 156.39 164.45 L 156.40 164.72 C 156.45 165.93 157.47 166.87 158.68 166.83 C 159.90 166.78 160.84 165.76 160.79 164.54 L 160.78 164.28 C 160.74 163.06 159.71 162.12 158.50 162.17 C 157.29 162.21 156.34 163.24 156.39 164.45 Z"
      fill="black"
      fill-rule="nonzero" /></svg>