<svg xmlns="http://www.w3.org/2000/svg" width="300" height="300" viewBox="0 0 300 300">
<path d="M 137.11 127.51 L 136.66 128.43 C 136.25 129.26 136.59 130.26 137.42 130.67 C 138.25 131.08 139.25 130.74 139.67 129.91 L 140.12 129.00 C 140.53 128.17 140.19 127.17 139.36 126.75 C 138.53 126.34 137.52 126.68 137.11 127.51 Z M 136.56 128.48 L 136.17 129.39 C 135.78 130.28 136.19 131.30 137.07 131.68 C 137.96 132.07 138.98 131.66 139.37 130.78 L 139.76 129.86 C 140.15 128.98 139.74 127.95 138.85 127.57 C 137.97 127.19 136.94 127.59 136.56 128.48 Z M 136.05 129.55 L 135.75 130.50 C 135.46 131.45 135.99 132.46 136.94 132.75 C 137.89 133.05 138.90 132.51 139.20 131.56 L 139.49 130.62 C 139.78 129.66 139.25 128.66 138.30 128.36 C 137.35 128.07 136.34 128.60 136.05 129.55 Z M 135.66 130.71 L 135.48 131.69 C 135.31 132.69 135.97 133.65 136.98 133.83 C 137.98 134.00 138.94 133.34 139.11 132.34 L 139.29 131.35 C 139.47 130.35 138.80 129.39 137.80 129.22 C 136.80 129.04 135.84 129.70 135.66 130.71 Z M 135.43 131.83 L 135.34 132.81 C 135.24 133.84 135.99 134.76 137.02 134.86 C 138.05 134.96 138.97 134.21 139.07 133.17 L 139.16 132.19 C 139.27 131.16 138.51 130.25 137.48 130.15 C 136.45 130.05 135.53 130.80 135.43 131.83 Z M 135.31 132.88 L 135.26 133.84 C 135.20 134.89 135.99 135.78 137.04 135.84 C 138.08 135.90 138.98 135.11 139.04 134.06 L 139.09 133.10 C 139.15 132.06 138.36 131.16 137.31 131.10 C 136.27 131.04 135.37 131.84 135.31 132.88 Z M 135.25 133.89 L 135.22 134.92 C 135.18 135.96 136.01 136.84 137.06 136.88 C 138.11 136.91 138.98 136.08 139.02 135.03 L 139.05 134.01 C 139.08 132.96 138.26 132.08 137.21 132.05 C 136.16 132.02 135.28 132.84 135.25 133.89 Z M 135.21 134.95 L 135.20 135.91 C 135.18 136.97 136.02 137.83 137.07 137.85 C 138.13 137.86 138.99 137.02 139.01 135.97 L 139.02 135.00 C 139.04 133.95 138.20 133.08 137.14 133.07 C 136.09 133.05 135.22 133.89 135.21 134.95 Z M 135.19 135.93 L 135.19 136.91 C 135.18 137.96 136.03 138.82 137.09 138.83 C 138.14 138.83 139.00 137.98 139.00 136.93 L 139.01 135.95 C 139.01 134.90 138.17 134.04 137.11 134.03 C 136.06 134.03 135.20 134.88 135.19 135.93 Z M 135.19 136.92 L 135.19 137.96 C 135.19 139.02 136.04 139.87 137.09 139.87 C 138.15 139.87 139.00 139.02 139.00 137.97 L 139.00 136.92 C 139.00 135.87 138.15 135.01 137.10 135.01 C 136.04 135.01 135.19 135.86 135.19 136.92 Z M 135.19 137.97 L 135.19 138.98 C 135.19 140.03 136.04 140.89 137.09 140.89 C 138.15 140.89 139.00 140.03 139.00 138.98 L 139.00 137.97 C 139.00 136.91 138.15 136.06 137.09 136.06 C 136.04 136.06 135.19 136.91 135.19 137.97 Z M 135.19 138.98 L 135.19 139.98 C 135.19 141.03 136.04 141.88 137.09 141.88 C 138.15 141.88 139.00 141.03 139.00 139.98 L 139.00 138.98 C 139.00 137.93 138.15 137.07 137.09 137.07 C 136.04 137.07 135.19 137.93 135.19 138.98 Z M 135.19 139.98 L 135.19 140.99 C 135.19 142.04 136.04 142.89 137.09 142.89 C 138.15 142.89 139.00 142.04 139.00 140.99 L 139.00 139.98 C 139.00 138.92 138.15 138.07 137.09 138.07 C 136.04 138.07 135.19 138.92 135.19 139.98 Z M 135.19 140.99 L 135.19 142.00 C 135.19 143.05 136.04 143.90 137.09 143.90 C 138.15 143.90 139.00 143.05 139.00 142.00 L 139.00 140.99 C 139.00 139.94 138.15 139.08 137.09 139.08 C 136.04 139.08 135.19 139.94 135.19 140.99 Z M 135.19 142.00 L 135.19 142.97 C 135.19 144.02 136.04 144.87 137.09 144.87 C 138.15 144.87 139.00 144.02 139.00 142.97 L 139.00 142.00 C 139.00 140.95 138.15 140.10 137.09 140.10 C 136.04 140.10 135.19 140.95 135.19 142.00 Z M 135.19 142.97 L 135.19 143.95 C 135.19 145.00 136.04 145.85 137.09 145.85 C 138.15 145.85 139.00 145.00 139.00 143.95 L 139.00 142.97 C 139.00 141.92 138.15 141.06 137.09 141.06 C 136.04 141.06 135.19 141.92 135.19 142.97 Z M 135.19 143.95 L 135.19 144.96 C 135.19 146.01 136.04 146.86 137.09 146.86 C 138.15 146.86 139.00 146.01 139.00 144.96 L 139.00 143.95 C 139.00 142.89 138.15 142.04 137.09 142.04 C 136.04 142.04 135.19 142.89 135.19 143.95 Z M 135.19 144.96 L 135.19 146.00 C 135.19 147.05 136.04 147.91 137.09 147.91 C 138.15 147.91 139.00 147.05 139.00 146.00 L 139.00 144.96 C 139.00 143.91 138.14 143.06 137.09 143.06 C 136.04 143.06 135.19 143.91 135.19 144.96 Z M 135.19 146.00 L 135.19 147.04 C 135.20 148.09 136.05 148.94 137.10 148.94 C 138.15 148.94 139.00 148.09 139.00 147.04 L 139.00 146.00 C 138.99 144.95 138.14 144.10 137.09 144.10 C 136.04 144.10 135.19 144.96 135.19 146.00 Z M 135.20 147.04 L 135.20 148.08 C 135.20 149.13 136.05 149.97 137.10 149.97 C 138.15 149.97 139.00 149.12 139.00 148.07 L 138.99 147.03 C 138.99 145.99 138.14 145.14 137.09 145.14 C 136.04 145.14 135.19 145.99 135.20 147.04 Z M 135.20 148.08 L 135.21 149.07 C 135.21 150.12 136.07 150.96 137.11 150.96 C 138.16 150.95 139.01 150.10 139.00 149.05 L 138.99 148.06 C 138.99 147.02 138.13 146.17 137.09 146.18 C 136.04 146.18 135.19 147.04 135.20 148.08 Z M 135.21 149.08 L 135.22 150.08 C 135.23 151.13 136.09 151.97 137.14 151.95 C 138.18 151.94 139.02 151.08 139.01 150.04 L 139.00 149.04 C 138.98 147.99 138.13 147.16 137.08 147.17 C 136.03 147.18 135.20 148.04 135.21 149.08 Z M 135.23 150.12 L 135.26 151.19 C 135.30 152.23 136.17 153.05 137.21 153.01 C 138.26 152.98 139.07 152.10 139.04 151.06 L 139.00 150.00 C 138.97 148.96 138.09 148.14 137.05 148.17 C 136.01 148.21 135.19 149.08 135.23 150.12 Z M 135.28 151.30 L 135.36 152.22 C 135.46 153.26 136.37 154.02 137.41 153.92 C 138.44 153.83 139.20 152.91 139.11 151.88 L 139.02 150.95 C 138.93 149.92 138.01 149.16 136.98 149.25 C 135.94 149.35 135.18 150.26 135.28 151.30 Z M 135.40 152.39 L 135.57 153.31 C 135.76 154.33 136.73 155.00 137.75 154.81 C 138.77 154.62 139.44 153.64 139.25 152.62 L 139.08 151.71 C 138.89 150.69 137.91 150.02 136.89 150.21 C 135.88 150.40 135.21 151.38 135.40 152.39 Z M 135.61 153.46 L 135.87 154.42 C 136.15 155.41 137.17 156.00 138.17 155.72 C 139.16 155.45 139.74 154.42 139.47 153.43 L 139.20 152.47 C 138.93 151.48 137.90 150.90 136.91 151.17 C 135.92 151.44 135.34 152.47 135.61 153.46 Z M 135.90 154.50 L 136.22 155.47 C 136.54 156.44 137.58 156.97 138.56 156.66 C 139.54 156.34 140.07 155.29 139.75 154.31 L 139.44 153.35 C 139.12 152.38 138.07 151.84 137.10 152.16 C 136.12 152.48 135.59 153.53 135.90 154.50 Z M 136.23 155.48 L 136.28 155.65 C 136.61 156.62 137.66 157.14 138.63 156.82 C 139.60 156.49 140.13 155.44 139.80 154.47 L 139.74 154.30 C 139.41 153.33 138.36 152.81 137.39 153.13 C 136.42 153.46 135.90 154.51 136.23 155.48 Z"
      fill="black"
      fill-rule="nonzero" /><path d="M 136.07 164.30 L 135.75 165.24 C 135.41 166.22 135.92 167.29 136.90 167.63 C 137.88 167.97 138.95 167.45 139.29 166.47 L 139.62 165.53 C 139.96 164.55 139.44 163.48 138.46 163.14 C 137.48 162.80 136.41 163.32 136.07 164.30 Z M 135.70 165.23 L 135.38 166.17 C 135.03 167.17 135.56 168.27 136.56 168.61 C 137.56 168.96 138.65 168.43 139.00 167.43 L 139.33 166.49 C 139.68 165.48 139.15 164.39 138.15 164.04 C 137.15 163.69 136.05 164.22 135.70 165.23 Z"
      fill="black"
      fill-rule="nonzero" /><path d="M 154.26 130.34 L 155.05 129.70 C 155.84 129.07 155.95 127.92 155.32 127.13 C 154.68 126.35 153.53 126.23 152.75 126.87 L 151.96 127.51 C 151.17 128.15 151.06 129.30 151.69 130.08 C 152.33 130.86 153.48 130.98 154.26 130.34 Z M 154.90 129.82 L 155.73 129.28 C 156.58 128.72 156.81 127.59 156.26 126.74 C 155.71 125.89 154.57 125.66 153.73 126.21 L 152.90 126.75 C 152.05 127.30 151.81 128.44 152.37 129.29 C 152.92 130.13 154.05 130.37 154.90 129.82 Z M 155.39 129.46 L 156.29 129.11 C 157.24 128.74 157.70 127.68 157.34 126.73 C 156.97 125.79 155.91 125.32 154.96 125.68 L 154.06 126.03 C 153.12 126.40 152.65 127.46 153.02 128.41 C 153.38 129.35 154.45 129.82 155.39 129.46 Z M 155.95 129.20 L 156.93 129.03 C 157.93 128.84 158.59 127.89 158.41 126.89 C 158.23 125.89 157.27 125.23 156.28 125.41 L 155.30 125.59 C 154.30 125.77 153.64 126.72 153.82 127.72 C 154.00 128.72 154.96 129.39 155.95 129.20 Z M 156.76 129.05 L 157.78 128.96 C 158.80 128.87 159.55 127.98 159.46 126.97 C 159.37 125.96 158.48 125.21 157.47 125.30 L 156.45 125.38 C 155.43 125.47 154.68 126.36 154.77 127.38 C 154.86 128.39 155.75 129.14 156.76 129.05 Z M 157.72 128.97 L 158.73 128.92 C 159.75 128.87 160.53 128.00 160.48 126.98 C 160.43 125.97 159.56 125.18 158.54 125.24 L 157.53 125.29 C 156.51 125.34 155.73 126.20 155.78 127.22 C 155.83 128.24 156.70 129.02 157.72 128.97 Z M 158.67 128.93 L 159.67 128.91 C 160.69 128.89 161.50 128.04 161.48 127.02 C 161.46 126.00 160.62 125.19 159.59 125.21 L 158.60 125.23 C 157.58 125.25 156.76 126.09 156.79 127.12 C 156.81 128.14 157.65 128.95 158.67 128.93 Z M 159.55 128.91 L 160.61 128.96 C 161.64 129.00 162.50 128.21 162.55 127.19 C 162.59 126.16 161.80 125.29 160.78 125.25 L 159.71 125.20 C 158.69 125.16 157.82 125.95 157.78 126.98 C 157.73 128.00 158.53 128.87 159.55 128.91 Z M 160.04 128.85 L 160.91 129.18 C 161.88 129.54 162.95 129.05 163.31 128.08 C 163.67 127.12 163.18 126.04 162.22 125.68 L 161.35 125.36 C 160.38 125.00 159.31 125.49 158.95 126.45 C 158.59 127.42 159.08 128.49 160.04 128.85 Z M 160.03 128.50 L 160.53 129.22 C 161.12 130.06 162.29 130.27 163.13 129.68 C 163.98 129.09 164.19 127.92 163.60 127.07 L 163.10 126.36 C 162.51 125.51 161.34 125.30 160.49 125.89 C 159.65 126.49 159.44 127.65 160.03 128.50 Z M 160.25 128.62 L 160.51 129.61 C 160.77 130.61 161.79 131.21 162.79 130.95 C 163.79 130.69 164.39 129.67 164.13 128.66 L 163.88 127.67 C 163.62 126.67 162.59 126.07 161.59 126.33 C 160.59 126.59 159.99 127.61 160.25 128.62 Z M 160.46 129.34 L 160.58 130.41 C 160.69 131.44 161.62 132.18 162.65 132.07 C 163.67 131.96 164.42 131.03 164.30 130.00 L 164.18 128.93 C 164.07 127.90 163.14 127.16 162.11 127.27 C 161.09 127.39 160.34 128.31 160.46 129.34 Z M 160.56 130.26 L 160.59 131.28 C 160.62 132.31 161.49 133.13 162.52 133.10 C 163.56 133.07 164.37 132.21 164.34 131.17 L 164.31 130.15 C 164.28 129.12 163.42 128.30 162.39 128.33 C 161.35 128.36 160.54 129.22 160.56 130.26 Z M 160.60 131.08 L 160.53 132.06 C 160.45 133.09 161.22 133.99 162.26 134.06 C 163.29 134.14 164.19 133.37 164.26 132.33 L 164.34 131.36 C 164.41 130.33 163.64 129.43 162.61 129.35 C 161.57 129.28 160.67 130.05 160.60 131.08 Z M 160.56 131.82 L 160.36 132.80 C 160.16 133.82 160.81 134.81 161.83 135.01 C 162.84 135.22 163.83 134.56 164.03 133.55 L 164.23 132.57 C 164.44 131.55 163.78 130.56 162.77 130.36 C 161.75 130.15 160.76 130.81 160.56 131.82 Z M 160.42 132.61 L 160.11 133.56 C 159.80 134.55 160.35 135.60 161.33 135.91 C 162.31 136.22 163.36 135.68 163.68 134.69 L 163.98 133.74 C 164.29 132.76 163.75 131.71 162.76 131.39 C 161.78 131.08 160.73 131.63 160.42 132.61 Z M 160.16 133.44 L 159.79 134.37 C 159.41 135.32 159.88 136.41 160.84 136.79 C 161.79 137.17 162.88 136.70 163.26 135.74 L 163.63 134.82 C 164.01 133.86 163.54 132.78 162.58 132.40 C 161.63 132.02 160.54 132.48 160.16 133.44 Z M 159.83 134.28 L 159.42 135.19 C 158.99 136.13 159.41 137.23 160.34 137.66 C 161.28 138.08 162.38 137.67 162.81 136.73 L 163.22 135.82 C 163.65 134.89 163.23 133.79 162.30 133.36 C 161.36 132.93 160.26 133.35 159.83 134.28 Z M 159.45 135.12 L 159.01 136.01 C 158.54 136.93 158.91 138.05 159.83 138.51 C 160.74 138.97 161.86 138.61 162.32 137.69 L 162.77 136.80 C 163.24 135.89 162.87 134.77 161.95 134.30 C 161.04 133.84 159.92 134.21 159.45 135.12 Z M 159.04 135.96 L 158.56 136.84 C 158.07 137.74 158.40 138.87 159.30 139.35 C 160.20 139.84 161.33 139.51 161.82 138.61 L 162.29 137.74 C 162.78 136.84 162.45 135.71 161.55 135.22 C 160.65 134.73 159.53 135.06 159.04 135.96 Z M 158.58 136.81 L 158.08 137.69 C 157.58 138.58 157.89 139.70 158.78 140.21 C 159.67 140.71 160.80 140.40 161.30 139.51 L 161.80 138.64 C 162.30 137.75 161.99 136.62 161.10 136.12 C 160.21 135.61 159.08 135.93 158.58 136.81 Z M 158.09 137.68 L 157.64 138.46 C 157.14 139.35 157.44 140.47 158.33 140.98 C 159.21 141.49 160.34 141.18 160.85 140.30 L 161.30 139.52 C 161.80 138.63 161.50 137.50 160.61 137.00 C 159.73 136.49 158.60 136.80 158.09 137.68 Z M 157.63 138.47 L 157.15 139.33 C 156.65 140.22 156.96 141.35 157.86 141.85 C 158.75 142.35 159.87 142.04 160.38 141.15 L 160.86 140.29 C 161.36 139.39 161.04 138.27 160.15 137.77 C 159.26 137.26 158.14 137.58 157.63 138.47 Z M 157.13 139.35 L 156.62 140.30 C 156.13 141.19 156.46 142.32 157.36 142.81 C 158.26 143.30 159.39 142.97 159.88 142.07 L 160.39 141.13 C 160.88 140.23 160.55 139.10 159.65 138.61 C 158.75 138.12 157.62 138.45 157.13 139.35 Z M 156.59 140.33 L 156.16 141.16 C 155.69 142.07 156.05 143.20 156.96 143.67 C 157.88 144.14 159.01 143.79 159.48 142.87 L 159.91 142.04 C 160.38 141.12 160.02 140.00 159.10 139.52 C 158.19 139.05 157.06 139.41 156.59 140.33 Z M 156.11 141.23 L 155.69 142.15 C 155.25 143.09 155.67 144.21 156.61 144.64 C 157.56 145.08 158.68 144.66 159.11 143.72 L 159.53 142.80 C 159.97 141.85 159.55 140.73 158.61 140.30 C 157.66 139.87 156.54 140.28 156.11 141.23 Z M 155.62 142.27 L 155.25 143.26 C 154.88 144.24 155.38 145.33 156.37 145.70 C 157.35 146.06 158.44 145.57 158.81 144.58 L 159.18 143.60 C 159.54 142.61 159.04 141.52 158.06 141.15 C 157.08 140.79 155.99 141.29 155.62 142.27 Z M 155.18 143.44 L 154.91 144.46 C 154.65 145.49 155.26 146.53 156.28 146.80 C 157.31 147.06 158.35 146.45 158.62 145.43 L 158.88 144.40 C 159.15 143.38 158.53 142.33 157.51 142.07 C 156.49 141.80 155.44 142.41 155.18 143.44 Z M 154.86 144.67 L 154.70 145.70 C 154.55 146.76 155.28 147.74 156.33 147.89 C 157.39 148.04 158.37 147.32 158.52 146.26 L 158.67 145.22 C 158.83 144.17 158.10 143.19 157.04 143.04 C 155.99 142.88 155.01 143.61 154.86 144.67 Z M 154.68 145.85 L 154.61 146.87 C 154.53 147.94 155.34 148.86 156.41 148.94 C 157.48 149.01 158.41 148.20 158.48 147.13 L 158.55 146.11 C 158.62 145.04 157.81 144.12 156.74 144.05 C 155.67 143.97 154.75 144.78 154.68 145.85 Z M 154.59 146.96 L 154.57 147.92 C 154.55 149.00 155.41 149.89 156.49 149.91 C 157.57 149.93 158.46 149.08 158.48 148.00 L 158.50 147.04 C 158.52 145.96 157.66 145.07 156.58 145.05 C 155.50 145.02 154.61 145.88 154.59 146.96 Z M 154.56 147.96 L 154.56 148.95 C 154.56 150.03 155.44 150.91 156.52 150.91 C 157.61 150.91 158.49 150.04 158.49 148.95 L 158.49 147.96 C 158.49 146.88 157.61 146.00 156.53 146.00 C 155.44 146.00 154.56 146.87 154.56 147.96 Z M 154.56 148.95 L 154.56 149.95 C 154.56 151.04 155.44 151.92 156.52 151.92 C 157.61 151.92 158.49 151.04 158.49 149.95 L 158.49 148.95 C 158.49 147.86 157.61 146.98 156.52 146.98 C 155.44 146.98 154.56 147.86 154.56 148.95 Z M 154.56 149.95 L 154.56 150.91 C 154.56 152.00 155.44 152.88 156.52 152.88 C 157.61 152.88 158.49 152.00 158.49 150.91 L 158.49 149.95 C 158.49 148.87 157.61 147.99 156.52 147.99 C 155.44 147.99 154.56 148.87 154.56 149.95 Z M 154.56 150.91 L 154.56 151.90 C 154.56 152.99 155.44 153.87 156.52 153.87 C 157.61 153.87 158.49 152.99 158.49 151.90 L 158.49 150.91 C 158.49 149.83 157.61 148.95 156.52 148.95 C 155.44 148.95 154.56 149.83 154.56 150.91 Z M 154.57 151.90 L 154.57 152.93 C 154.57 154.01 155.44 154.88 156.52 154.88 C 157.61 154.88 158.48 154.01 158.48 152.93 L 158.48 151.90 C 158.48 150.82 157.61 149.94 156.52 149.94 C 155.44 149.94 154.57 150.82 154.57 151.90 Z M 154.58 152.93 L 154.58 153.94 C 154.58 155.02 155.45 155.89 156.52 155.89 C 157.60 155.89 158.47 155.02 158.47 153.94 L 158.47 152.93 C 158.47 151.85 157.60 150.98 156.52 150.98 C 155.45 150.98 154.58 151.85 154.58 152.93 Z M 154.61 153.94 L 154.61 154.96 C 154.61 156.02 155.46 156.87 156.52 156.87 C 157.58 156.87 158.44 156.02 158.44 154.96 L 158.44 153.94 C 158.44 152.88 157.58 152.02 156.52 152.02 C 155.46 152.02 154.61 152.88 154.61 153.94 Z M 154.70 154.96 L 154.70 155.98 C 154.70 156.99 155.51 157.81 156.52 157.81 C 157.53 157.81 158.35 156.99 158.35 155.98 L 158.35 154.96 C 158.35 153.95 157.53 153.13 156.52 153.13 C 155.51 153.13 154.70 153.95 154.70 154.96 Z M 154.83 155.98 L 154.83 156.91 C 154.83 157.85 155.59 158.61 156.52 158.61 C 157.46 158.61 158.22 157.85 158.22 156.91 L 158.22 155.98 C 158.22 155.05 157.46 154.29 156.52 154.29 C 155.59 154.29 154.83 155.05 154.83 155.98 Z M 154.90 156.91 L 154.90 156.96 C 154.90 157.86 155.62 158.59 156.52 158.59 C 157.42 158.59 158.15 157.86 158.15 156.96 L 158.15 156.91 C 158.15 156.01 157.42 155.28 156.52 155.28 C 155.62 155.28 154.90 156.01 154.90 156.91 Z"
      fill="black"
      fill-rule="nonzero" /><path d="M 157.74 169.22 L 158.33 168.42 C 158.94 167.59 158.76 166.42 157.92 165.82 C 157.09 165.21 155.93 165.39 155.32 166.22 L 154.73 167.03 C 154.13 167.86 154.31 169.02 155.14 169.63 C 155.97 170.24 157.14 170.05 157.74 169.22 Z M 158.49 168.53 L 158.65 168.31 C 159.32 167.39 159.12 166.11 158.20 165.44 C 157.28 164.77 156.00 164.97 155.33 165.88 L 155.16 166.11 C 154.49 167.02 154.70 168.31 155.61 168.98 C 156.53 169.65 157.82 169.45 158.49 168.53 Z"
      fill="black"
      fill-rule="nonzero" /></svg>