<svg xmlns="http://www.w3.org/2000/svg" width="300" height="300" viewBox="0 0 300 300">
<path d="M 125.35 126.05 L 126.15 126.65 C 126.92 127.22 128.01 127.07 128.58 126.30 C 129.16 125.52 129.00 124.43 128.23 123.86 L 127.43 123.26 C 126.66 122.69 125.57 122.84 124.99 123.62 C 124.42 124.39 124.58 125.48 125.35 126.05 Z M 126.27 126.87 L 127.12 127.36 C 128.02 127.87 129.15 127.56 129.66 126.66 C 130.17 125.77 129.86 124.64 128.97 124.13 L 128.11 123.64 C 127.22 123.13 126.08 123.44 125.57 124.33 C 125.06 125.22 125.37 126.36 126.27 126.87 Z M 127.50 127.63 L 128.43 127.90 C 129.48 128.20 130.57 127.60 130.87 126.56 C 131.17 125.51 130.57 124.42 129.52 124.12 L 128.59 123.86 C 127.55 123.55 126.46 124.16 126.16 125.20 C 125.86 126.24 126.46 127.33 127.50 127.63 Z M 128.90 128.02 L 129.82 128.06 C 130.93 128.10 131.86 127.23 131.90 126.12 C 131.94 125.01 131.08 124.08 129.97 124.03 L 129.05 124.00 C 127.94 123.96 127.01 124.83 126.97 125.94 C 126.93 127.05 127.79 127.98 128.90 128.02 Z M 130.12 128.05 L 131.12 127.94 C 132.22 127.81 133.02 126.81 132.90 125.71 C 132.77 124.60 131.77 123.80 130.67 123.93 L 129.67 124.04 C 128.56 124.17 127.76 125.16 127.89 126.27 C 128.01 127.38 129.01 128.17 130.12 128.05 Z M 131.29 127.91 L 132.36 127.70 C 133.45 127.48 134.16 126.42 133.94 125.32 C 133.73 124.23 132.66 123.52 131.57 123.74 L 130.50 123.95 C 129.40 124.17 128.69 125.23 128.91 126.33 C 129.13 127.42 130.19 128.13 131.29 127.91 Z M 132.44 127.69 L 133.46 127.44 C 134.54 127.18 135.21 126.09 134.95 125.00 C 134.69 123.91 133.59 123.25 132.51 123.51 L 131.49 123.75 C 130.40 124.02 129.74 125.11 130.00 126.19 C 130.26 127.28 131.35 127.95 132.44 127.69 Z M 133.50 127.43 L 134.50 127.16 C 135.58 126.88 136.23 125.77 135.94 124.69 C 135.66 123.61 134.55 122.97 133.47 123.25 L 132.46 123.52 C 131.38 123.80 130.74 124.91 131.03 125.99 C 131.31 127.07 132.42 127.72 133.50 127.43 Z M 134.53 127.16 L 135.49 126.89 C 136.57 126.59 137.20 125.47 136.89 124.39 C 136.59 123.32 135.48 122.69 134.40 122.99 L 133.44 123.26 C 132.36 123.56 131.74 124.68 132.04 125.75 C 132.34 126.83 133.46 127.46 134.53 127.16 Z M 135.51 126.88 L 136.40 126.62 C 137.48 126.31 138.09 125.19 137.78 124.11 C 137.47 123.04 136.35 122.42 135.27 122.74 L 134.38 123.00 C 133.31 123.31 132.69 124.43 133.00 125.50 C 133.31 126.58 134.44 127.19 135.51 126.88 Z M 136.42 126.62 L 137.32 126.35 C 138.39 126.02 138.99 124.89 138.67 123.82 C 138.35 122.76 137.22 122.15 136.15 122.47 L 135.25 122.74 C 134.18 123.07 133.58 124.19 133.90 125.26 C 134.22 126.33 135.35 126.94 136.42 126.62 Z M 137.36 126.33 L 138.26 126.04 C 139.32 125.69 139.90 124.55 139.55 123.49 C 139.21 122.43 138.07 121.85 137.00 122.19 L 136.10 122.49 C 135.04 122.84 134.46 123.98 134.81 125.04 C 135.16 126.10 136.30 126.68 137.36 126.33 Z M 138.31 126.02 L 139.36 125.64 C 140.41 125.27 140.96 124.11 140.58 123.06 C 140.21 122.01 139.06 121.46 138.01 121.84 L 136.96 122.21 C 135.90 122.59 135.36 123.74 135.73 124.79 C 136.10 125.84 137.26 126.39 138.31 126.02 Z M 139.39 125.63 L 140.26 125.30 C 141.30 124.91 141.83 123.75 141.44 122.71 C 141.05 121.67 139.89 121.14 138.85 121.53 L 137.98 121.85 C 136.93 122.24 136.40 123.41 136.79 124.45 C 137.18 125.49 138.35 126.02 139.39 125.63 Z M 140.27 125.30 L 141.23 124.93 C 142.27 124.53 142.79 123.37 142.39 122.33 C 141.99 121.29 140.83 120.77 139.79 121.17 L 138.83 121.53 C 137.80 121.93 137.28 123.10 137.67 124.13 C 138.07 125.17 139.23 125.69 140.27 125.30 Z M 141.24 124.92 L 142.22 124.54 C 143.25 124.14 143.77 122.98 143.37 121.94 C 142.97 120.91 141.80 120.39 140.77 120.79 L 139.78 121.18 C 138.75 121.58 138.23 122.74 138.64 123.78 C 139.04 124.81 140.20 125.32 141.24 124.92 Z M 142.22 124.54 L 143.18 124.17 C 144.21 123.76 144.72 122.60 144.32 121.57 C 143.91 120.53 142.75 120.02 141.72 120.43 L 140.76 120.80 C 139.73 121.20 139.22 122.36 139.62 123.40 C 140.03 124.43 141.19 124.94 142.22 124.54 Z M 143.17 124.16 L 144.16 123.77 C 145.19 123.37 145.69 122.21 145.29 121.19 C 144.89 120.16 143.73 119.65 142.71 120.05 L 141.72 120.44 C 140.69 120.84 140.19 121.99 140.59 123.02 C 140.99 124.05 142.15 124.56 143.17 124.16 Z M 144.15 123.75 L 145.16 123.36 C 146.17 122.96 146.67 121.82 146.28 120.81 C 145.89 119.79 144.74 119.29 143.73 119.68 L 142.72 120.07 C 141.70 120.47 141.20 121.61 141.59 122.63 C 141.99 123.64 143.13 124.14 144.15 123.75 Z M 145.14 123.33 L 146.02 122.99 C 147.02 122.61 147.52 121.49 147.13 120.49 C 146.75 119.49 145.63 118.99 144.63 119.37 L 143.75 119.71 C 142.75 120.09 142.25 121.21 142.63 122.21 C 143.01 123.21 144.14 123.71 145.14 123.33 Z M 145.99 122.96 L 146.82 122.65 C 147.81 122.28 148.31 121.18 147.94 120.20 C 147.57 119.21 146.47 118.72 145.48 119.09 L 144.65 119.40 C 143.67 119.77 143.17 120.87 143.54 121.85 C 143.91 122.84 145.01 123.33 145.99 122.96 Z M 146.80 122.62 L 147.72 122.28 C 148.69 121.92 149.18 120.85 148.83 119.88 C 148.47 118.92 147.40 118.42 146.43 118.78 L 145.51 119.12 C 144.54 119.47 144.05 120.55 144.40 121.51 C 144.76 122.48 145.83 122.98 146.80 122.62 Z M 147.70 122.24 L 148.64 121.90 C 149.59 121.56 150.08 120.51 149.73 119.56 C 149.39 118.62 148.34 118.13 147.40 118.47 L 146.46 118.81 C 145.51 119.16 145.02 120.20 145.36 121.15 C 145.71 122.10 146.75 122.59 147.70 122.24 Z M 148.62 121.86 L 149.58 121.52 C 150.50 121.19 150.98 120.17 150.65 119.24 C 150.32 118.31 149.29 117.83 148.37 118.17 L 147.42 118.51 C 146.49 118.84 146.01 119.86 146.34 120.79 C 146.68 121.72 147.70 122.20 148.62 121.86 Z M 149.57 121.50 L 149.63 121.48 C 150.54 121.15 151.02 120.14 150.69 119.23 C 150.36 118.31 149.35 117.84 148.44 118.17 L 148.38 118.19 C 147.46 118.52 146.99 119.52 147.32 120.44 C 147.65 121.35 148.65 121.83 149.57 121.50 Z"
      fill="black"
      fill-rule="nonzero" /><path d="M 136.61 126.60 L 136.36 127.45 C 136.07 128.45 136.64 129.49 137.64 129.79 C 138.64 130.08 139.69 129.50 139.98 128.50 L 140.23 127.65 C 140.52 126.65 139.94 125.61 138.94 125.32 C 137.94 125.03 136.90 125.60 136.61 126.60 Z M 136.18 127.55 L 135.97 128.53 C 135.73 129.63 136.43 130.71 137.53 130.95 C 138.63 131.18 139.71 130.48 139.95 129.38 L 140.16 128.40 C 140.40 127.30 139.70 126.22 138.60 125.99 C 137.50 125.75 136.42 126.45 136.18 127.55 Z M 135.82 128.70 L 135.69 129.76 C 135.55 130.94 136.40 132.01 137.59 132.15 C 138.77 132.29 139.84 131.44 139.98 130.26 L 140.10 129.21 C 140.24 128.02 139.39 126.95 138.21 126.81 C 137.03 126.67 135.95 127.52 135.82 128.70 Z M 135.63 129.89 L 135.58 130.84 C 135.51 132.06 136.45 133.10 137.67 133.17 C 138.88 133.23 139.93 132.30 139.99 131.08 L 140.04 130.13 C 140.11 128.91 139.17 127.87 137.96 127.80 C 136.74 127.74 135.70 128.67 135.63 129.89 Z M 135.57 130.90 L 135.54 131.93 C 135.51 133.15 136.48 134.17 137.70 134.20 C 138.93 134.23 139.94 133.27 139.98 132.04 L 140.00 131.02 C 140.03 129.79 139.06 128.77 137.84 128.74 C 136.62 128.71 135.60 129.68 135.57 130.90 Z M 135.54 131.96 L 135.52 133.01 C 135.51 134.24 136.49 135.25 137.72 135.26 C 138.95 135.28 139.96 134.29 139.97 133.06 L 139.98 132.01 C 140.00 130.78 139.01 129.78 137.79 129.76 C 136.56 129.75 135.55 130.73 135.54 131.96 Z M 135.52 133.01 L 135.51 134.04 C 135.49 135.28 136.48 136.29 137.71 136.30 C 138.94 136.31 139.95 135.33 139.96 134.09 L 139.98 133.06 C 139.99 131.83 139.00 130.82 137.77 130.81 C 136.54 130.79 135.53 131.78 135.52 133.01 Z M 135.50 134.03 L 135.49 135.03 C 135.46 136.26 136.45 137.28 137.68 137.30 C 138.91 137.32 139.93 136.34 139.95 135.11 L 139.97 134.11 C 139.99 132.88 139.01 131.86 137.77 131.84 C 136.54 131.82 135.52 132.80 135.50 134.03 Z M 135.49 135.01 L 135.46 136.00 C 135.43 137.23 136.41 138.25 137.64 138.28 C 138.87 138.31 139.90 137.34 139.93 136.11 L 139.95 135.12 C 139.98 133.89 139.00 132.87 137.77 132.84 C 136.54 132.81 135.52 133.78 135.49 135.01 Z M 135.46 135.98 L 135.43 136.98 C 135.39 138.21 136.36 139.24 137.59 139.28 C 138.83 139.32 139.86 138.35 139.90 137.12 L 139.93 136.12 C 139.96 134.89 139.00 133.86 137.76 133.82 C 136.53 133.78 135.50 134.75 135.46 135.98 Z M 135.43 136.97 L 135.40 137.93 C 135.35 139.17 136.31 140.20 137.55 140.25 C 138.78 140.29 139.82 139.33 139.86 138.10 L 139.90 137.13 C 139.94 135.90 138.98 134.86 137.74 134.82 C 136.51 134.77 135.48 135.73 135.43 136.97 Z M 135.40 137.92 L 135.36 138.89 C 135.31 140.12 136.27 141.16 137.50 141.21 C 138.73 141.26 139.77 140.30 139.82 139.07 L 139.86 138.11 C 139.91 136.87 138.95 135.83 137.72 135.78 C 136.49 135.73 135.45 136.69 135.40 137.92 Z M 135.36 138.88 L 135.31 139.88 C 135.26 141.11 136.21 142.15 137.45 142.21 C 138.68 142.26 139.72 141.31 139.78 140.07 L 139.82 139.08 C 139.88 137.84 138.92 136.80 137.69 136.74 C 136.46 136.69 135.41 137.64 135.36 138.88 Z M 135.31 139.87 L 135.26 140.90 C 135.20 142.13 136.15 143.18 137.39 143.24 C 138.62 143.30 139.67 142.35 139.73 141.11 L 139.78 140.08 C 139.84 138.85 138.89 137.80 137.65 137.74 C 136.42 137.68 135.37 138.63 135.31 139.87 Z M 135.26 140.89 L 135.21 141.93 C 135.15 143.16 136.09 144.21 137.33 144.28 C 138.56 144.34 139.61 143.39 139.68 142.16 L 139.73 141.12 C 139.79 139.89 138.84 138.84 137.61 138.77 C 136.38 138.71 135.33 139.66 135.26 140.89 Z M 135.21 141.92 L 135.16 142.91 C 135.09 144.14 136.04 145.19 137.27 145.26 C 138.50 145.33 139.56 144.38 139.62 143.15 L 139.68 142.16 C 139.74 140.93 138.80 139.88 137.56 139.81 C 136.33 139.74 135.28 140.69 135.21 141.92 Z M 135.16 142.90 L 135.10 143.90 C 135.03 145.13 135.98 146.19 137.21 146.26 C 138.44 146.33 139.50 145.38 139.57 144.15 L 139.62 143.15 C 139.69 141.92 138.75 140.86 137.51 140.79 C 136.28 140.72 135.23 141.67 135.16 142.90 Z M 135.10 143.90 L 135.04 144.90 C 134.97 146.14 135.91 147.19 137.15 147.26 C 138.38 147.33 139.44 146.39 139.51 145.16 L 139.57 144.15 C 139.64 142.92 138.69 141.86 137.46 141.79 C 136.23 141.72 135.17 142.66 135.10 143.90 Z M 135.04 144.90 L 134.98 145.91 C 134.91 147.14 135.85 148.20 137.09 148.27 C 138.32 148.34 139.38 147.40 139.45 146.17 L 139.51 145.16 C 139.58 143.93 138.64 142.87 137.41 142.80 C 136.17 142.73 135.12 143.67 135.04 144.90 Z M 134.98 145.91 L 134.93 146.91 C 134.85 148.14 135.79 149.20 137.02 149.27 C 138.26 149.35 139.32 148.41 139.39 147.18 L 139.45 146.17 C 139.52 144.94 138.58 143.88 137.35 143.81 C 136.12 143.74 135.06 144.68 134.98 145.91 Z M 134.93 146.91 L 134.87 147.90 C 134.79 149.13 135.73 150.19 136.96 150.27 C 138.19 150.34 139.25 149.40 139.33 148.17 L 139.39 147.18 C 139.46 145.95 138.52 144.89 137.29 144.81 C 136.06 144.74 135.00 145.68 134.93 146.91 Z M 134.87 147.90 L 134.80 148.89 C 134.73 150.12 135.66 151.18 136.89 151.26 C 138.13 151.34 139.19 150.40 139.27 149.17 L 139.33 148.18 C 139.40 146.95 138.47 145.88 137.24 145.81 C 136.01 145.73 134.94 146.67 134.87 147.90 Z M 134.81 148.88 L 134.74 149.88 C 134.66 151.11 135.59 152.17 136.82 152.26 C 138.05 152.34 139.12 151.41 139.20 150.17 L 139.26 149.18 C 139.35 147.95 138.41 146.88 137.18 146.80 C 135.95 146.72 134.89 147.65 134.81 148.88 Z M 134.74 149.87 L 134.67 150.87 C 134.58 152.10 135.51 153.17 136.74 153.26 C 137.97 153.34 139.04 152.42 139.12 151.19 L 139.20 150.19 C 139.28 148.96 138.36 147.89 137.13 147.80 C 135.90 147.71 134.83 148.64 134.74 149.87 Z M 134.67 150.86 L 134.60 151.85 C 134.50 153.08 135.42 154.15 136.65 154.25 C 137.88 154.34 138.95 153.42 139.04 152.20 L 139.12 151.20 C 139.22 149.97 138.30 148.90 137.07 148.80 C 135.84 148.71 134.77 149.63 134.67 150.86 Z M 134.60 151.84 L 134.52 152.83 C 134.41 154.05 135.33 155.13 136.55 155.23 C 137.78 155.34 138.85 154.43 138.96 153.20 L 139.04 152.21 C 139.14 150.98 138.23 149.91 137.01 149.80 C 135.78 149.70 134.70 150.61 134.60 151.84 Z M 134.52 152.82 L 134.43 153.81 C 134.32 155.04 135.23 156.12 136.45 156.23 C 137.67 156.34 138.75 155.43 138.86 154.21 L 138.95 153.21 C 139.06 151.99 138.16 150.91 136.93 150.80 C 135.71 150.69 134.63 151.59 134.52 152.82 Z M 134.44 153.80 L 134.34 154.80 C 134.23 156.02 135.12 157.11 136.34 157.22 C 137.56 157.34 138.65 156.44 138.76 155.22 L 138.86 154.22 C 138.97 153.00 138.08 151.92 136.86 151.80 C 135.64 151.69 134.55 152.58 134.44 153.80 Z M 134.35 154.79 L 134.25 155.79 C 134.13 157.01 135.02 158.09 136.23 158.22 C 137.45 158.34 138.53 157.45 138.66 156.23 L 138.76 155.23 C 138.88 154.02 137.99 152.93 136.77 152.81 C 135.56 152.69 134.47 153.58 134.35 154.79 Z M 134.26 155.78 L 134.15 156.79 C 134.02 158.00 134.90 159.09 136.12 159.22 C 137.33 159.34 138.42 158.46 138.54 157.25 L 138.65 156.24 C 138.78 155.03 137.90 153.94 136.68 153.82 C 135.47 153.69 134.38 154.57 134.26 155.78 Z M 134.16 156.78 L 134.05 157.79 C 133.92 159.00 134.79 160.08 136.00 160.21 C 137.21 160.35 138.30 159.47 138.43 158.26 L 138.54 157.26 C 138.67 156.05 137.80 154.96 136.59 154.83 C 135.38 154.70 134.29 155.57 134.16 156.78 Z M 134.05 157.78 L 133.94 158.78 C 133.81 159.98 134.68 161.07 135.89 161.20 C 137.09 161.34 138.18 160.47 138.31 159.26 L 138.42 158.27 C 138.56 157.06 137.69 155.97 136.48 155.84 C 135.27 155.71 134.19 156.58 134.05 157.78 Z M 133.95 158.78 L 133.84 159.77 C 133.71 160.97 134.57 162.05 135.77 162.19 C 136.98 162.32 138.06 161.46 138.19 160.25 L 138.31 159.26 C 138.44 158.06 137.57 156.98 136.37 156.84 C 135.17 156.71 134.08 157.58 133.95 158.78 Z M 133.85 159.77 L 133.74 160.75 C 133.61 161.95 134.47 163.03 135.67 163.16 C 136.87 163.29 137.95 162.43 138.08 161.23 L 138.19 160.25 C 138.32 159.05 137.46 157.97 136.26 157.84 C 135.06 157.71 133.98 158.57 133.85 159.77 Z M 133.75 160.76 L 133.64 161.77 C 133.51 162.97 134.37 164.04 135.57 164.17 C 136.76 164.30 137.83 163.43 137.96 162.24 L 138.07 161.22 C 138.20 160.03 137.34 158.96 136.14 158.83 C 134.95 158.70 133.88 159.56 133.75 160.76 Z M 133.65 161.78 L 133.55 162.80 C 133.42 163.98 134.28 165.05 135.46 165.17 C 136.65 165.30 137.71 164.44 137.84 163.25 L 137.95 162.23 C 138.07 161.05 137.21 159.99 136.03 159.86 C 134.84 159.74 133.78 160.59 133.65 161.78 Z M 133.56 162.80 L 133.46 163.80 C 133.33 164.97 134.18 166.03 135.36 166.15 C 136.53 166.28 137.59 165.43 137.71 164.25 L 137.82 163.25 C 137.95 162.08 137.09 161.02 135.92 160.90 C 134.74 160.77 133.69 161.62 133.56 162.80 Z M 133.48 163.79 L 133.37 164.77 C 133.24 165.93 134.08 166.98 135.24 167.11 C 136.41 167.24 137.46 166.40 137.59 165.23 L 137.69 164.26 C 137.82 163.09 136.98 162.05 135.82 161.92 C 134.65 161.79 133.60 162.63 133.48 163.79 Z M 133.39 164.76 L 133.28 165.72 C 133.14 166.87 133.97 167.92 135.12 168.05 C 136.28 168.19 137.32 167.36 137.46 166.21 L 137.57 165.25 C 137.70 164.09 136.88 163.05 135.72 162.91 C 134.57 162.78 133.52 163.60 133.39 164.76 Z M 133.30 165.70 L 133.17 166.73 C 133.02 167.87 133.83 168.91 134.97 169.06 C 136.12 169.20 137.16 168.39 137.30 167.25 L 137.43 166.22 C 137.58 165.08 136.77 164.04 135.63 163.89 C 134.48 163.75 133.44 164.56 133.30 165.70 Z M 133.19 166.72 L 133.06 167.72 C 132.91 168.84 133.70 169.88 134.83 170.03 C 135.96 170.18 136.99 169.39 137.14 168.26 L 137.28 167.26 C 137.43 166.14 136.63 165.10 135.51 164.95 C 134.38 164.80 133.34 165.59 133.19 166.72 Z M 133.09 167.71 L 132.95 168.69 C 132.80 169.80 133.58 170.83 134.69 170.98 C 135.80 171.13 136.83 170.35 136.98 169.24 L 137.12 168.27 C 137.27 167.15 136.49 166.13 135.38 165.97 C 134.27 165.82 133.24 166.60 133.09 167.71 Z M 132.98 168.69 L 132.85 169.65 C 132.69 170.75 133.46 171.76 134.56 171.91 C 135.66 172.06 136.68 171.29 136.83 170.19 L 136.96 169.24 C 137.11 168.14 136.34 167.12 135.24 166.97 C 134.14 166.82 133.13 167.59 132.98 168.69 Z M 132.88 169.66 L 132.74 170.70 C 132.60 171.78 133.36 172.78 134.44 172.92 C 135.52 173.06 136.52 172.30 136.66 171.22 L 136.80 170.18 C 136.94 169.10 136.18 168.11 135.10 167.96 C 134.01 167.82 133.02 168.58 132.88 169.66 Z M 132.78 170.73 L 132.66 171.74 C 132.54 172.80 133.29 173.76 134.35 173.89 C 135.41 174.02 136.37 173.26 136.50 172.20 L 136.62 171.19 C 136.74 170.13 135.99 169.17 134.93 169.04 C 133.87 168.92 132.91 169.67 132.78 170.73 Z M 132.70 171.79 L 132.61 172.76 C 132.51 173.80 133.27 174.72 134.30 174.82 C 135.34 174.92 136.26 174.16 136.36 173.13 L 136.46 172.15 C 136.56 171.12 135.80 170.20 134.76 170.10 C 133.72 170.00 132.80 170.76 132.70 171.79 Z M 132.65 172.83 L 132.59 173.81 C 132.52 174.82 133.30 175.70 134.31 175.76 C 135.32 175.82 136.20 175.05 136.26 174.04 L 136.32 173.06 C 136.38 172.05 135.61 171.17 134.60 171.11 C 133.58 171.05 132.71 171.82 132.65 172.83 Z M 132.63 173.89 L 132.61 174.92 C 132.59 175.91 133.38 176.73 134.37 176.75 C 135.37 176.77 136.19 175.98 136.20 174.98 L 136.22 173.95 C 136.24 172.96 135.45 172.14 134.46 172.12 C 133.46 172.11 132.64 172.90 132.63 173.89 Z M 132.65 174.98 L 132.67 175.96 C 132.68 176.93 133.49 177.71 134.46 177.69 C 135.43 177.67 136.20 176.87 136.18 175.90 L 136.16 174.92 C 136.15 173.95 135.34 173.18 134.37 173.20 C 133.40 173.21 132.63 174.01 132.65 174.98 Z M 132.70 175.99 L 132.73 176.73 C 132.76 177.68 133.56 178.42 134.51 178.39 C 135.46 178.35 136.20 177.56 136.17 176.61 L 136.14 175.87 C 136.11 174.92 135.31 174.18 134.36 174.21 C 133.41 174.24 132.67 175.04 132.70 175.99 Z"
      fill="black"
      fill-rule="nonzero" /><path d="M 149.65 148.10 L 150.73 147.85 C 151.74 147.62 152.37 146.61 152.14 145.59 C 151.90 144.58 150.89 143.95 149.88 144.18 L 148.81 144.43 C 147.80 144.66 147.16 145.67 147.40 146.69 C 147.63 147.70 148.64 148.33 149.65 148.10 Z M 150.73 147.85 L 151.77 147.61 C 152.79 147.38 153.42 146.37 153.18 145.35 C 152.95 144.34 151.94 143.70 150.92 143.94 L 149.88 144.18 C 148.86 144.41 148.23 145.43 148.46 146.44 C 148.70 147.46 149.71 148.09 150.73 147.85 Z M 151.77 147.62 L 152.76 147.39 C 153.78 147.15 154.41 146.13 154.18 145.12 C 153.94 144.10 152.92 143.47 151.90 143.70 L 150.92 143.93 C 149.90 144.17 149.27 145.19 149.50 146.20 C 149.74 147.22 150.76 147.85 151.77 147.62 Z M 152.77 147.39 L 153.67 147.18 C 154.69 146.94 155.32 145.92 155.08 144.90 C 154.84 143.88 153.82 143.25 152.80 143.49 L 151.90 143.70 C 150.88 143.94 150.25 144.96 150.49 145.98 C 150.73 147.00 151.75 147.63 152.77 147.39 Z M 153.67 147.16 L 154.63 146.93 C 155.64 146.69 156.27 145.68 156.03 144.66 C 155.78 143.65 154.77 143.03 153.76 143.27 L 152.80 143.50 C 151.79 143.75 151.16 144.76 151.41 145.77 C 151.65 146.78 152.66 147.41 153.67 147.16 Z M 154.63 146.86 L 155.69 146.60 C 156.66 146.36 157.25 145.38 157.01 144.41 C 156.77 143.44 155.78 142.84 154.81 143.08 L 153.76 143.35 C 152.79 143.59 152.20 144.57 152.44 145.54 C 152.68 146.51 153.66 147.10 154.63 146.86 Z M 155.67 146.49 L 156.53 146.27 C 157.44 146.03 157.99 145.11 157.75 144.20 C 157.52 143.29 156.59 142.74 155.68 142.97 L 154.82 143.20 C 153.92 143.43 153.37 144.36 153.60 145.27 C 153.84 146.18 154.76 146.72 155.67 146.49 Z M 156.52 146.19 L 156.83 146.11 C 157.70 145.88 158.22 145.00 157.99 144.13 C 157.76 143.26 156.87 142.74 156.01 142.97 L 155.70 143.05 C 154.83 143.28 154.31 144.16 154.53 145.03 C 154.76 145.90 155.65 146.42 156.52 146.19 Z"
      fill="black"
      fill-rule="nonzero" /><path d="M 146.21 150.02 L 145.98 151.01 C 145.76 152.00 146.37 152.99 147.36 153.21 C 148.35 153.44 149.34 152.82 149.56 151.83 L 149.79 150.84 C 150.02 149.85 149.40 148.86 148.41 148.64 C 147.42 148.41 146.43 149.03 146.21 150.02 Z M 145.96 151.07 L 145.77 152.05 C 145.58 153.05 146.24 154.02 147.24 154.21 C 148.24 154.40 149.21 153.75 149.40 152.75 L 149.59 151.77 C 149.78 150.76 149.12 149.80 148.12 149.60 C 147.12 149.41 146.15 150.07 145.96 151.07 Z M 145.74 152.18 L 145.63 153.16 C 145.51 154.18 146.24 155.10 147.25 155.22 C 148.27 155.34 149.19 154.61 149.31 153.60 L 149.43 152.61 C 149.55 151.60 148.82 150.67 147.80 150.56 C 146.78 150.44 145.86 151.17 145.74 152.18 Z M 145.61 153.30 L 145.57 154.30 C 145.53 155.32 146.33 156.19 147.36 156.23 C 148.38 156.27 149.24 155.47 149.29 154.45 L 149.33 153.46 C 149.37 152.43 148.57 151.57 147.55 151.52 C 146.52 151.48 145.66 152.28 145.61 153.30 Z M 145.57 154.36 L 145.57 155.36 C 145.56 156.38 146.39 157.22 147.42 157.22 C 148.44 157.23 149.28 156.40 149.28 155.37 L 149.29 154.38 C 149.29 153.35 148.46 152.52 147.44 152.51 C 146.41 152.51 145.58 153.34 145.57 154.36 Z M 145.56 155.35 L 145.56 156.30 C 145.56 157.33 146.39 158.16 147.41 158.17 C 148.44 158.17 149.28 157.34 149.28 156.31 L 149.29 155.37 C 149.29 154.34 148.46 153.51 147.43 153.50 C 146.41 153.50 145.57 154.33 145.56 155.35 Z M 145.56 156.27 L 145.53 157.29 C 145.51 158.32 146.33 159.17 147.36 159.19 C 148.39 159.21 149.24 158.40 149.27 157.37 L 149.29 156.34 C 149.31 155.31 148.49 154.46 147.46 154.44 C 146.43 154.42 145.58 155.23 145.56 156.27 Z M 145.53 157.24 L 145.49 158.20 C 145.44 159.23 146.24 160.11 147.27 160.16 C 148.30 160.20 149.18 159.40 149.23 158.37 L 149.27 157.41 C 149.32 156.38 148.52 155.50 147.49 155.46 C 146.45 155.41 145.58 156.21 145.53 157.24 Z M 145.48 158.17 L 145.43 159.05 C 145.36 160.09 146.14 160.98 147.18 161.05 C 148.21 161.11 149.10 160.33 149.17 159.30 L 149.23 158.41 C 149.30 157.37 148.51 156.48 147.48 156.41 C 146.44 156.35 145.55 157.13 145.48 158.17 Z M 145.42 159.03 L 145.35 160.03 C 145.27 161.07 146.05 161.97 147.08 162.05 C 148.12 162.13 149.02 161.35 149.10 160.31 L 149.17 159.32 C 149.25 158.28 148.48 157.38 147.44 157.30 C 146.40 157.22 145.50 158.00 145.42 159.03 Z M 145.34 160.02 L 145.25 161.16 C 145.17 162.20 145.94 163.10 146.98 163.19 C 148.02 163.27 148.93 162.50 149.01 161.46 L 149.10 160.32 C 149.19 159.28 148.41 158.37 147.37 158.29 C 146.34 158.21 145.43 158.98 145.34 160.02 Z M 145.25 161.15 L 145.16 162.17 C 145.08 163.21 145.86 164.13 146.90 164.21 C 147.94 164.29 148.85 163.52 148.94 162.48 L 149.02 161.46 C 149.10 160.42 148.33 159.51 147.29 159.42 C 146.24 159.34 145.33 160.11 145.25 161.15 Z M 145.16 162.17 L 145.08 163.17 C 144.99 164.22 145.77 165.13 146.82 165.21 C 147.86 165.30 148.78 164.52 148.86 163.47 L 148.94 162.48 C 149.03 161.43 148.25 160.52 147.20 160.43 C 146.16 160.35 145.24 161.13 145.16 162.17 Z M 145.07 163.17 L 144.99 164.20 C 144.91 165.25 145.69 166.17 146.74 166.25 C 147.79 166.34 148.71 165.55 148.79 164.50 L 148.87 163.47 C 148.95 162.42 148.17 161.50 147.12 161.42 C 146.07 161.34 145.15 162.12 145.07 163.17 Z M 144.98 164.21 L 144.90 165.24 C 144.82 166.29 145.61 167.21 146.66 167.29 C 147.72 167.37 148.64 166.58 148.72 165.53 L 148.80 164.50 C 148.88 163.44 148.09 162.52 147.03 162.44 C 145.98 162.36 145.06 163.15 144.98 164.21 Z M 144.89 165.24 L 144.82 166.24 C 144.74 167.29 145.54 168.21 146.60 168.29 C 147.66 168.37 148.58 167.57 148.65 166.51 L 148.73 165.52 C 148.80 164.46 148.01 163.54 146.95 163.47 C 145.89 163.39 144.97 164.18 144.89 165.24 Z M 144.81 166.24 L 144.74 167.32 C 144.67 168.38 145.47 169.30 146.53 169.37 C 147.60 169.44 148.52 168.64 148.59 167.58 L 148.66 166.50 C 148.73 165.44 147.93 164.52 146.87 164.45 C 145.81 164.38 144.89 165.18 144.81 166.24 Z M 144.73 167.33 L 144.67 168.41 C 144.60 169.47 145.41 170.39 146.48 170.46 C 147.55 170.52 148.47 169.71 148.53 168.64 L 148.60 167.57 C 148.66 166.50 147.85 165.58 146.78 165.52 C 145.72 165.45 144.80 166.26 144.73 167.33 Z M 144.66 168.42 L 144.61 169.39 C 144.55 170.46 145.37 171.38 146.44 171.44 C 147.51 171.50 148.42 170.68 148.48 169.61 L 148.54 168.63 C 148.60 167.56 147.78 166.65 146.71 166.59 C 145.64 166.53 144.72 167.35 144.66 168.42 Z M 144.60 169.40 L 144.55 170.30 C 144.49 171.37 145.32 172.29 146.39 172.35 C 147.47 172.41 148.38 171.58 148.44 170.51 L 148.49 169.61 C 148.55 168.53 147.72 167.61 146.65 167.56 C 145.57 167.50 144.66 168.32 144.60 169.40 Z M 144.54 170.30 L 144.49 171.26 C 144.43 172.34 145.26 173.26 146.34 173.32 C 147.42 173.38 148.34 172.55 148.40 171.47 L 148.45 170.51 C 148.51 169.43 147.68 168.51 146.60 168.45 C 145.52 168.39 144.60 169.22 144.54 170.30 Z M 144.47 171.29 L 144.43 172.29 C 144.39 173.38 145.24 174.30 146.32 174.34 C 147.41 174.39 148.33 173.54 148.37 172.45 L 148.41 171.45 C 148.46 170.36 147.61 169.44 146.52 169.40 C 145.44 169.35 144.52 170.20 144.47 171.29 Z M 144.42 172.39 L 144.42 173.37 C 144.43 174.47 145.33 175.35 146.42 175.34 C 147.52 175.34 148.40 174.44 148.40 173.34 L 148.39 172.36 C 148.38 171.26 147.49 170.38 146.39 170.39 C 145.29 170.40 144.41 171.29 144.42 172.39 Z M 144.42 173.54 L 144.51 174.58 C 144.61 175.68 145.58 176.49 146.68 176.39 C 147.78 176.29 148.59 175.32 148.50 174.22 L 148.40 173.18 C 148.30 172.08 147.33 171.27 146.23 171.36 C 145.13 171.46 144.32 172.44 144.42 173.54 Z M 144.54 174.84 L 144.78 175.95 C 145.03 177.03 146.10 177.72 147.19 177.48 C 148.27 177.24 148.96 176.16 148.72 175.07 L 148.47 173.96 C 148.23 172.88 147.15 172.19 146.07 172.43 C 144.98 172.68 144.30 173.75 144.54 174.84 Z M 144.94 176.43 L 145.34 177.22 C 145.85 178.22 147.07 178.62 148.07 178.12 C 149.07 177.61 149.47 176.39 148.96 175.39 L 148.56 174.60 C 148.06 173.60 146.84 173.20 145.84 173.70 C 144.84 174.21 144.44 175.43 144.94 176.43 Z M 146.47 178.23 L 147.14 178.46 C 148.20 178.84 149.36 178.28 149.74 177.22 C 150.11 176.16 149.56 175.00 148.50 174.62 L 147.83 174.38 C 146.77 174.01 145.61 174.56 145.23 175.63 C 144.86 176.69 145.41 177.85 146.47 178.23 Z M 148.65 178.40 L 149.57 177.99 C 150.60 177.53 151.06 176.32 150.60 175.29 C 150.14 174.27 148.93 173.81 147.90 174.27 L 146.98 174.68 C 145.96 175.14 145.50 176.35 145.96 177.38 C 146.42 178.40 147.63 178.86 148.65 178.40 Z M 149.77 177.89 L 150.67 177.36 C 151.64 176.79 151.96 175.54 151.39 174.57 C 150.81 173.60 149.56 173.27 148.59 173.85 L 147.70 174.37 C 146.73 174.94 146.41 176.20 146.98 177.17 C 147.55 178.14 148.80 178.46 149.77 177.89 Z M 150.58 177.41 L 151.42 176.97 C 152.41 176.45 152.80 175.21 152.27 174.22 C 151.75 173.22 150.52 172.83 149.52 173.36 L 148.68 173.80 C 147.68 174.32 147.30 175.55 147.82 176.55 C 148.35 177.55 149.58 177.93 150.58 177.41 Z M 151.34 177.01 L 152.29 176.56 C 153.31 176.08 153.74 174.87 153.26 173.85 C 152.79 172.83 151.57 172.39 150.55 172.87 L 149.60 173.32 C 148.58 173.80 148.14 175.01 148.62 176.03 C 149.10 177.05 150.32 177.49 151.34 177.01 Z M 152.23 176.58 L 153.19 176.17 C 154.23 175.72 154.70 174.52 154.25 173.49 C 153.81 172.46 152.61 171.98 151.58 172.43 L 150.61 172.85 C 149.58 173.29 149.10 174.49 149.55 175.52 C 150.00 176.56 151.20 177.03 152.23 176.58 Z M 153.17 176.17 L 154.12 175.77 C 155.16 175.34 155.65 174.15 155.21 173.12 C 154.78 172.08 153.59 171.59 152.56 172.03 L 151.60 172.43 C 150.57 172.86 150.08 174.05 150.51 175.08 C 150.95 176.11 152.13 176.60 153.17 176.17 Z M 154.13 175.76 L 155.08 175.36 C 156.10 174.92 156.58 173.73 156.14 172.70 C 155.71 171.68 154.52 171.20 153.49 171.64 L 152.55 172.04 C 151.52 172.48 151.04 173.66 151.48 174.69 C 151.92 175.72 153.11 176.19 154.13 175.76 Z M 155.12 175.33 L 155.98 174.93 C 156.99 174.47 157.44 173.27 156.98 172.26 C 156.51 171.25 155.32 170.81 154.31 171.27 L 153.45 171.67 C 152.44 172.13 151.99 173.32 152.45 174.33 C 152.92 175.34 154.11 175.79 155.12 175.33 Z M 156.06 174.81 L 157.05 174.28 C 157.99 173.77 158.34 172.60 157.84 171.66 C 157.33 170.72 156.16 170.36 155.22 170.87 L 154.23 171.40 C 153.29 171.90 152.94 173.07 153.44 174.02 C 153.95 174.96 155.12 175.31 156.06 174.81 Z M 157.09 174.09 L 157.88 173.58 C 158.72 173.05 158.97 171.94 158.43 171.11 C 157.90 170.27 156.80 170.03 155.96 170.56 L 155.17 171.06 C 154.34 171.59 154.09 172.70 154.62 173.53 C 155.15 174.37 156.26 174.62 157.09 174.09 Z M 157.87 173.47 L 158.22 173.23 C 158.99 172.70 159.19 171.65 158.67 170.88 C 158.15 170.11 157.10 169.91 156.33 170.44 L 155.97 170.68 C 155.20 171.20 155.00 172.25 155.53 173.02 C 156.05 173.79 157.10 173.99 157.87 173.47 Z"
      fill="black"
      fill-rule="nonzero" /><path d="M 147.89 162.60 L 148.73 163.17 C 149.65 163.81 150.92 163.57 151.55 162.65 C 152.18 161.72 151.95 160.46 151.02 159.83 L 150.18 159.25 C 149.26 158.62 147.99 158.85 147.36 159.78 C 146.73 160.70 146.96 161.96 147.89 162.60 Z M 149.14 163.43 L 150.05 163.78 C 151.12 164.18 152.31 163.64 152.71 162.58 C 153.12 161.51 152.58 160.32 151.51 159.91 L 150.61 159.57 C 149.54 159.17 148.35 159.70 147.95 160.77 C 147.54 161.84 148.08 163.03 149.14 163.43 Z M 150.90 163.92 L 151.82 163.87 C 152.97 163.80 153.84 162.82 153.78 161.67 C 153.71 160.52 152.73 159.65 151.58 159.71 L 150.66 159.77 C 149.52 159.83 148.64 160.82 148.71 161.96 C 148.77 163.11 149.76 163.99 150.90 163.92 Z M 152.33 163.77 L 153.30 163.46 C 154.39 163.11 155.00 161.94 154.65 160.85 C 154.30 159.76 153.13 159.16 152.04 159.51 L 151.07 159.82 C 149.98 160.16 149.38 161.33 149.72 162.42 C 150.07 163.52 151.24 164.12 152.33 163.77 Z M 153.43 163.39 L 154.40 163.01 C 155.46 162.59 155.97 161.39 155.55 160.33 C 155.13 159.27 153.93 158.76 152.88 159.18 L 151.91 159.57 C 150.85 159.99 150.34 161.19 150.76 162.25 C 151.18 163.30 152.38 163.82 153.43 163.39 Z M 154.38 162.98 L 155.31 162.62 C 156.35 162.21 156.87 161.03 156.46 159.99 C 156.05 158.95 154.87 158.43 153.83 158.84 L 152.90 159.21 C 151.86 159.61 151.34 160.79 151.75 161.83 C 152.16 162.88 153.34 163.39 154.38 162.98 Z M 155.29 162.58 L 156.22 162.22 C 157.25 161.82 157.75 160.67 157.35 159.65 C 156.96 158.62 155.80 158.12 154.78 158.51 L 153.85 158.88 C 152.82 159.28 152.32 160.43 152.71 161.45 C 153.11 162.48 154.27 162.98 155.29 162.58 Z M 156.21 162.16 L 157.14 161.79 C 158.13 161.40 158.61 160.28 158.22 159.29 C 157.82 158.30 156.70 157.81 155.71 158.21 L 154.79 158.58 C 153.80 158.97 153.32 160.09 153.71 161.08 C 154.10 162.07 155.22 162.55 156.21 162.16 Z M 157.12 161.70 L 158.04 161.32 C 158.98 160.94 159.44 159.87 159.05 158.93 C 158.67 157.99 157.60 157.54 156.66 157.92 L 155.73 158.30 C 154.79 158.68 154.34 159.75 154.72 160.69 C 155.11 161.63 156.18 162.08 157.12 161.70 Z M 158.01 161.23 L 158.95 160.85 C 159.83 160.48 160.26 159.46 159.89 158.58 C 159.53 157.69 158.51 157.27 157.62 157.63 L 156.69 158.02 C 155.80 158.38 155.38 159.40 155.74 160.28 C 156.11 161.17 157.13 161.60 158.01 161.23 Z"
      fill="black"
      fill-rule="nonzero" /><path d="M 163.60 146.73 L 163.60 147.79 C 163.60 148.85 164.46 149.70 165.52 149.70 C 166.57 149.70 167.43 148.85 167.43 147.79 L 167.43 146.73 C 167.43 145.67 166.57 144.82 165.52 144.82 C 164.46 144.82 163.60 145.67 163.60 146.73 Z M 163.60 147.79 L 163.60 148.82 C 163.60 149.88 164.46 150.74 165.52 150.74 C 166.57 150.74 167.43 149.88 167.43 148.82 L 167.43 147.79 C 167.43 146.73 166.57 145.88 165.52 145.88 C 164.46 145.88 163.60 146.73 163.60 147.79 Z M 163.59 148.82 L 163.59 149.79 C 163.59 150.85 164.45 151.71 165.52 151.71 C 166.58 151.71 167.44 150.85 167.44 149.79 L 167.44 148.82 C 167.44 147.76 166.58 146.90 165.52 146.90 C 164.45 146.90 163.59 147.76 163.59 148.82 Z M 163.59 149.79 L 163.59 150.77 C 163.59 151.83 164.45 152.69 165.52 152.69 C 166.58 152.69 167.44 151.83 167.44 150.77 L 167.44 149.79 C 167.44 148.72 166.58 147.86 165.52 147.86 C 164.45 147.86 163.59 148.72 163.59 149.79 Z M 163.59 150.77 L 163.59 151.76 C 163.59 152.82 164.45 153.68 165.52 153.68 C 166.58 153.68 167.44 152.82 167.44 151.76 L 167.44 150.77 C 167.44 149.71 166.58 148.85 165.52 148.85 C 164.45 148.85 163.59 149.71 163.59 150.77 Z M 163.60 151.76 L 163.60 152.73 C 163.60 153.78 164.46 154.64 165.52 154.64 C 166.57 154.64 167.43 153.78 167.43 152.73 L 167.43 151.76 C 167.43 150.70 166.57 149.85 165.52 149.85 C 164.46 149.85 163.60 150.70 163.60 151.76 Z M 163.60 152.73 L 163.60 153.64 C 163.60 154.70 164.46 155.56 165.52 155.56 C 166.57 155.56 167.43 154.70 167.43 153.64 L 167.43 152.73 C 167.43 151.67 166.57 150.81 165.52 150.81 C 164.46 150.81 163.60 151.67 163.60 152.73 Z M 163.60 153.64 L 163.60 154.62 C 163.60 155.67 164.46 156.53 165.52 156.53 C 166.57 156.53 167.43 155.67 167.43 154.62 L 167.43 153.64 C 167.43 152.59 166.57 151.73 165.52 151.73 C 164.46 151.73 163.60 152.59 163.60 153.64 Z M 163.60 154.62 L 163.60 155.68 C 163.60 156.74 164.46 157.60 165.52 157.60 C 166.57 157.60 167.43 156.74 167.43 155.68 L 167.43 154.62 C 167.43 153.56 166.57 152.70 165.52 152.70 C 164.46 152.70 163.60 153.56 163.60 154.62 Z M 163.60 155.68 L 163.60 156.74 C 163.60 157.80 164.46 158.66 165.51 158.66 C 166.57 158.66 167.43 157.80 167.43 156.74 L 167.43 155.68 C 167.43 154.62 166.57 153.76 165.52 153.76 C 164.46 153.76 163.60 154.62 163.60 155.68 Z M 163.60 156.74 L 163.59 157.78 C 163.59 158.84 164.45 159.70 165.51 159.70 C 166.57 159.70 167.43 158.84 167.43 157.78 L 167.43 156.74 C 167.44 155.68 166.58 154.82 165.52 154.82 C 164.46 154.82 163.60 155.68 163.60 156.74 Z M 163.59 157.77 L 163.59 158.79 C 163.58 159.85 164.44 160.71 165.50 160.72 C 166.56 160.72 167.43 159.87 167.43 158.80 L 167.44 157.79 C 167.44 156.73 166.58 155.86 165.52 155.86 C 164.46 155.85 163.60 156.71 163.59 157.77 Z M 163.58 158.77 L 163.57 159.72 C 163.56 160.78 164.42 161.65 165.48 161.66 C 166.54 161.67 167.41 160.82 167.42 159.76 L 167.43 158.81 C 167.45 157.75 166.59 156.88 165.53 156.87 C 164.47 156.86 163.59 157.71 163.58 158.77 Z M 163.57 159.69 L 163.54 160.80 C 163.52 161.87 164.36 162.75 165.43 162.78 C 166.49 162.80 167.38 161.96 167.40 160.89 L 167.43 159.78 C 167.45 158.72 166.61 157.84 165.54 157.81 C 164.48 157.78 163.60 158.63 163.57 159.69 Z M 163.54 160.76 L 163.50 161.69 C 163.45 162.76 164.28 163.66 165.34 163.71 C 166.41 163.76 167.31 162.93 167.36 161.86 L 167.40 160.93 C 167.45 159.87 166.63 158.96 165.56 158.92 C 164.49 158.87 163.59 159.69 163.54 160.76 Z M 163.50 161.65 L 163.44 162.59 C 163.36 163.66 164.17 164.58 165.24 164.65 C 166.31 164.72 167.23 163.92 167.30 162.85 L 167.36 161.91 C 167.44 160.84 166.63 159.92 165.56 159.85 C 164.49 159.77 163.57 160.58 163.50 161.65 Z M 163.43 162.56 L 163.35 163.56 C 163.26 164.63 164.06 165.56 165.13 165.65 C 166.20 165.74 167.13 164.94 167.22 163.88 L 167.30 162.88 C 167.39 161.81 166.60 160.87 165.53 160.79 C 164.46 160.70 163.52 161.49 163.43 162.56 Z M 163.35 163.55 L 163.27 164.51 C 163.17 165.58 163.97 166.52 165.04 166.61 C 166.11 166.70 167.05 165.91 167.14 164.84 L 167.22 163.88 C 167.32 162.81 166.52 161.87 165.45 161.78 C 164.38 161.69 163.44 162.48 163.35 163.55 Z M 163.26 164.52 L 163.19 165.44 C 163.10 166.52 163.90 167.46 164.98 167.54 C 166.05 167.63 166.99 166.83 167.07 165.75 L 167.15 164.83 C 167.23 163.75 166.43 162.81 165.36 162.73 C 164.29 162.64 163.35 163.44 163.26 164.52 Z M 163.18 165.47 L 163.11 166.55 C 163.03 167.63 163.85 168.56 164.92 168.63 C 166.00 168.71 166.93 167.89 167.01 166.82 L 167.08 165.73 C 167.15 164.66 166.34 163.72 165.26 163.65 C 164.19 163.58 163.25 164.39 163.18 165.47 Z M 163.10 166.57 L 163.04 167.55 C 162.98 168.63 163.81 169.55 164.89 169.62 C 165.97 169.68 166.89 168.86 166.95 167.78 L 167.01 166.80 C 167.07 165.72 166.25 164.79 165.17 164.73 C 164.09 164.67 163.16 165.49 163.10 166.57 Z M 163.04 167.56 L 162.99 168.58 C 162.93 169.67 163.77 170.59 164.85 170.64 C 165.93 170.70 166.86 169.87 166.91 168.78 L 166.96 167.76 C 167.02 166.68 166.18 165.75 165.10 165.70 C 164.01 165.65 163.09 166.48 163.04 167.56 Z M 162.98 168.60 L 162.94 169.63 C 162.89 170.72 163.74 171.64 164.82 171.68 C 165.91 171.73 166.83 170.88 166.87 169.80 L 166.92 168.77 C 166.96 167.68 166.12 166.76 165.03 166.72 C 163.94 166.67 163.03 167.51 162.98 168.60 Z M 162.93 169.65 L 162.90 170.71 C 162.87 171.80 163.72 172.71 164.81 172.75 C 165.91 172.78 166.82 171.92 166.85 170.83 L 166.88 169.77 C 166.91 168.68 166.06 167.77 164.96 167.74 C 163.87 167.71 162.96 168.56 162.93 169.65 Z M 162.89 170.74 L 162.87 171.79 C 162.86 172.88 163.73 173.79 164.83 173.80 C 165.92 173.82 166.83 172.95 166.84 171.85 L 166.86 170.80 C 166.88 169.70 166.00 168.80 164.90 168.78 C 163.81 168.77 162.91 169.64 162.89 170.74 Z M 162.86 171.81 L 162.86 172.74 C 162.85 173.85 163.74 174.75 164.85 174.75 C 165.95 174.75 166.85 173.86 166.85 172.76 L 166.85 171.83 C 166.86 170.72 165.97 169.83 164.87 169.82 C 163.76 169.82 162.87 170.71 162.86 171.81 Z M 162.83 172.78 L 162.84 173.86 C 162.86 174.98 163.77 175.87 164.89 175.86 C 166.01 175.85 166.90 174.93 166.89 173.81 L 166.88 172.73 C 166.87 171.61 165.95 170.72 164.83 170.73 C 163.71 170.74 162.82 171.66 162.83 172.78 Z M 162.84 174.30 L 163.05 175.20 C 163.31 176.32 164.42 177.01 165.54 176.76 C 166.66 176.50 167.35 175.38 167.10 174.27 L 166.89 173.37 C 166.63 172.25 165.52 171.56 164.40 171.81 C 163.28 172.07 162.59 173.19 162.84 174.30 Z M 164.26 176.69 L 164.91 176.96 C 165.99 177.41 167.23 176.90 167.68 175.82 C 168.13 174.74 167.62 173.50 166.54 173.05 L 165.89 172.78 C 164.81 172.33 163.57 172.84 163.12 173.92 C 162.67 175.00 163.18 176.24 164.26 176.69 Z M 166.08 177.10 L 167.15 176.93 C 168.31 176.73 169.09 175.64 168.90 174.48 C 168.71 173.32 167.61 172.54 166.45 172.73 L 165.38 172.91 C 164.22 173.10 163.44 174.20 163.63 175.35 C 163.82 176.51 164.92 177.30 166.08 177.10 Z M 167.26 176.91 L 168.21 176.70 C 169.36 176.44 170.08 175.31 169.83 174.16 C 169.58 173.01 168.44 172.29 167.30 172.54 L 166.35 172.75 C 165.20 173.00 164.47 174.14 164.72 175.28 C 164.98 176.43 166.11 177.16 167.26 176.91 Z M 168.18 176.70 L 169.13 176.51 C 170.28 176.27 171.02 175.15 170.79 174.00 C 170.55 172.85 169.43 172.10 168.28 172.34 L 167.33 172.53 C 166.17 172.77 165.43 173.89 165.67 175.05 C 165.90 176.20 167.03 176.94 168.18 176.70 Z M 169.12 176.51 L 170.18 176.30 C 171.33 176.07 172.08 174.95 171.85 173.79 C 171.62 172.64 170.50 171.89 169.34 172.12 L 168.28 172.34 C 167.13 172.57 166.38 173.69 166.62 174.84 C 166.85 175.99 167.97 176.74 169.12 176.51 Z M 170.18 176.29 L 171.16 176.10 C 172.31 175.86 173.05 174.74 172.82 173.59 C 172.59 172.44 171.47 171.70 170.32 171.93 L 169.34 172.13 C 168.19 172.36 167.45 173.48 167.68 174.63 C 167.91 175.78 169.03 176.53 170.18 176.29 Z M 171.15 176.09 L 172.11 175.90 C 173.26 175.67 174.00 174.55 173.77 173.41 C 173.55 172.26 172.43 171.52 171.29 171.75 L 170.32 171.94 C 169.18 172.17 168.43 173.28 168.66 174.43 C 168.89 175.57 170.00 176.32 171.15 176.09 Z M 172.09 175.89 L 173.09 175.70 C 174.24 175.48 174.99 174.38 174.77 173.24 C 174.55 172.10 173.45 171.35 172.31 171.57 L 171.31 171.76 C 170.17 171.97 169.42 173.07 169.63 174.21 C 169.85 175.35 170.95 176.10 172.09 175.89 Z M 173.06 175.69 L 174.08 175.52 C 175.22 175.33 175.98 174.25 175.79 173.11 C 175.59 171.97 174.51 171.20 173.37 171.40 L 172.35 171.57 C 171.21 171.77 170.45 172.85 170.64 173.98 C 170.84 175.12 171.92 175.89 173.06 175.69 Z M 174.02 175.49 L 175.03 175.34 C 176.15 175.18 176.92 174.14 176.76 173.02 C 176.60 171.89 175.56 171.12 174.43 171.28 L 173.43 171.43 C 172.31 171.59 171.53 172.63 171.69 173.75 C 171.86 174.88 172.90 175.65 174.02 175.49 Z M 174.97 175.28 L 175.97 175.16 C 177.05 175.02 177.82 174.03 177.69 172.95 C 177.56 171.86 176.57 171.09 175.48 171.22 L 174.49 171.35 C 173.40 171.48 172.63 172.47 172.76 173.55 C 172.90 174.64 173.89 175.41 174.97 175.28 Z M 175.93 175.08 L 176.92 174.97 C 177.96 174.86 178.72 173.92 178.61 172.88 C 178.49 171.84 177.56 171.08 176.51 171.19 L 175.52 171.30 C 174.48 171.41 173.72 172.35 173.83 173.39 C 173.95 174.44 174.88 175.19 175.93 175.08 Z M 176.90 174.90 L 177.89 174.80 C 178.89 174.70 179.62 173.81 179.52 172.81 C 179.42 171.80 178.53 171.07 177.53 171.17 L 176.54 171.27 C 175.54 171.37 174.80 172.26 174.90 173.26 C 175.00 174.26 175.89 175.00 176.90 174.90 Z M 177.88 174.75 L 178.11 174.73 C 179.08 174.63 179.80 173.77 179.70 172.79 C 179.61 171.82 178.74 171.10 177.77 171.20 L 177.53 171.22 C 176.56 171.31 175.85 172.18 175.94 173.16 C 176.04 174.13 176.90 174.84 177.88 174.75 Z"
      fill="black"
      fill-rule="nonzero" /></svg>