<svg xmlns="http://www.w3.org/2000/svg" width="300" height="300" viewBox="0 0 300 300">
<path d="M 131.70 129.16 L 132.54 129.62 C 133.41 130.09 134.49 129.77 134.97 128.90 C 135.44 128.03 135.12 126.94 134.25 126.47 L 133.41 126.02 C 132.54 125.54 131.45 125.86 130.98 126.73 C 130.51 127.60 130.83 128.69 131.70 129.16 Z M 132.67 129.85 L 133.60 130.22 C 134.60 130.62 135.73 130.14 136.13 129.14 C 136.53 128.15 136.04 127.02 135.05 126.62 L 134.12 126.24 C 133.12 125.84 131.99 126.33 131.59 127.32 C 131.19 128.32 131.67 129.45 132.67 129.85 Z M 133.90 130.43 L 134.84 130.62 C 135.94 130.86 137.03 130.15 137.27 129.04 C 137.50 127.93 136.79 126.84 135.68 126.61 L 134.75 126.41 C 133.64 126.18 132.55 126.89 132.32 128.00 C 132.08 129.11 132.79 130.19 133.90 130.43 Z M 135.10 130.71 L 136.04 130.78 C 137.20 130.86 138.20 130.00 138.29 128.84 C 138.37 127.69 137.51 126.68 136.35 126.60 L 135.41 126.53 C 134.26 126.44 133.26 127.31 133.17 128.46 C 133.08 129.62 133.95 130.62 135.10 130.71 Z M 136.21 130.80 L 137.26 130.79 C 138.42 130.78 139.36 129.83 139.36 128.67 C 139.35 127.50 138.40 126.56 137.24 126.57 L 136.19 126.58 C 135.02 126.58 134.08 127.53 134.09 128.70 C 134.10 129.86 135.05 130.80 136.21 130.80 Z M 137.36 130.80 L 138.45 130.74 C 139.63 130.68 140.52 129.68 140.46 128.51 C 140.40 127.34 139.40 126.44 138.23 126.50 L 137.13 126.56 C 135.96 126.62 135.06 127.62 135.13 128.79 C 135.19 129.97 136.19 130.86 137.36 130.80 Z M 138.51 130.75 L 139.55 130.67 C 140.72 130.57 141.60 129.54 141.50 128.37 C 141.41 127.19 140.38 126.32 139.21 126.41 L 138.17 126.49 C 136.99 126.59 136.12 127.62 136.21 128.79 C 136.31 129.97 137.34 130.84 138.51 130.75 Z M 139.58 130.67 L 140.61 130.57 C 141.79 130.46 142.65 129.41 142.54 128.23 C 142.42 127.05 141.38 126.19 140.20 126.30 L 139.17 126.40 C 137.99 126.52 137.13 127.57 137.24 128.75 C 137.36 129.92 138.41 130.79 139.58 130.67 Z M 140.64 130.58 L 141.60 130.47 C 142.78 130.35 143.64 129.28 143.51 128.10 C 143.38 126.92 142.32 126.06 141.14 126.19 L 140.17 126.30 C 138.99 126.43 138.14 127.49 138.27 128.67 C 138.39 129.85 139.46 130.71 140.64 130.58 Z M 141.62 130.48 L 142.66 130.36 C 143.85 130.22 144.70 129.15 144.56 127.96 C 144.42 126.78 143.35 125.93 142.16 126.07 L 141.12 126.19 C 139.94 126.33 139.09 127.40 139.22 128.58 C 139.36 129.77 140.43 130.62 141.62 130.48 Z M 142.68 130.36 L 143.68 130.24 C 144.86 130.09 145.71 129.01 145.56 127.83 C 145.42 126.64 144.34 125.79 143.15 125.94 L 142.15 126.06 C 140.96 126.21 140.12 127.29 140.26 128.48 C 140.41 129.66 141.49 130.51 142.68 130.36 Z M 143.68 130.24 L 144.57 130.13 C 145.76 129.98 146.60 128.90 146.46 127.71 C 146.31 126.52 145.22 125.68 144.03 125.83 L 143.14 125.94 C 141.95 126.09 141.11 127.17 141.26 128.36 C 141.41 129.55 142.49 130.39 143.68 130.24 Z M 144.57 130.14 L 145.55 130.01 C 146.74 129.87 147.58 128.78 147.44 127.59 C 147.29 126.40 146.20 125.55 145.01 125.70 L 144.03 125.82 C 142.84 125.97 142.00 127.05 142.15 128.25 C 142.29 129.44 143.38 130.28 144.57 130.14 Z M 145.56 130.02 L 146.56 129.89 C 147.75 129.73 148.59 128.64 148.44 127.45 C 148.28 126.26 147.19 125.41 146.00 125.57 L 145.00 125.70 C 143.81 125.85 142.96 126.94 143.12 128.14 C 143.27 129.33 144.37 130.17 145.56 130.02 Z M 146.59 129.89 L 147.57 129.75 C 148.77 129.58 149.60 128.47 149.43 127.28 C 149.25 126.08 148.15 125.26 146.96 125.43 L 145.97 125.57 C 144.78 125.74 143.95 126.84 144.12 128.04 C 144.29 129.23 145.39 130.06 146.59 129.89 Z M 147.60 129.75 L 148.58 129.60 C 149.78 129.41 150.60 128.29 150.41 127.10 C 150.23 125.91 149.11 125.09 147.92 125.27 L 146.93 125.43 C 145.74 125.61 144.92 126.73 145.10 127.92 C 145.29 129.11 146.41 129.93 147.60 129.75 Z M 148.59 129.60 L 149.59 129.44 C 150.78 129.25 151.60 128.13 151.41 126.94 C 151.22 125.74 150.10 124.93 148.91 125.11 L 147.91 125.27 C 146.71 125.46 145.90 126.58 146.09 127.77 C 146.27 128.97 147.39 129.79 148.59 129.60 Z M 149.58 129.45 L 150.57 129.29 C 151.76 129.11 152.58 127.99 152.40 126.79 C 152.22 125.60 151.10 124.77 149.90 124.96 L 148.91 125.11 C 147.72 125.29 146.90 126.41 147.08 127.61 C 147.26 128.81 148.38 129.63 149.58 129.45 Z M 150.56 129.30 L 151.55 129.15 C 152.75 128.97 153.58 127.85 153.40 126.65 C 153.21 125.45 152.10 124.63 150.90 124.81 L 149.91 124.96 C 148.71 125.14 147.88 126.25 148.06 127.45 C 148.24 128.65 149.36 129.48 150.56 129.30 Z M 151.55 129.15 L 152.53 129.00 C 153.73 128.82 154.55 127.71 154.38 126.51 C 154.20 125.31 153.08 124.48 151.88 124.66 L 150.90 124.81 C 149.71 124.98 148.88 126.10 149.06 127.30 C 149.23 128.50 150.35 129.32 151.55 129.15 Z M 152.52 129.00 L 153.50 128.86 C 154.70 128.68 155.53 127.57 155.36 126.37 C 155.18 125.17 154.07 124.34 152.87 124.52 L 151.89 124.66 C 150.69 124.84 149.86 125.95 150.04 127.15 C 150.21 128.35 151.32 129.18 152.52 129.00 Z M 153.50 128.86 L 154.50 128.72 C 155.70 128.55 156.54 127.44 156.37 126.24 C 156.20 125.04 155.09 124.20 153.89 124.37 L 152.88 124.52 C 151.68 124.69 150.84 125.80 151.02 127.00 C 151.19 128.20 152.30 129.03 153.50 128.86 Z M 154.50 128.72 L 155.49 128.58 C 156.69 128.41 157.53 127.30 157.36 126.10 C 157.19 124.90 156.09 124.07 154.89 124.23 L 153.89 124.37 C 152.69 124.54 151.85 125.65 152.02 126.85 C 152.19 128.05 153.30 128.89 154.50 128.72 Z M 155.49 128.58 L 156.49 128.44 C 157.69 128.27 158.53 127.16 158.36 125.96 C 158.19 124.76 157.08 123.92 155.88 124.09 L 154.88 124.23 C 153.68 124.40 152.85 125.51 153.02 126.71 C 153.18 127.91 154.29 128.75 155.49 128.58 Z M 156.51 128.44 L 157.50 128.29 C 158.70 128.11 159.53 127.00 159.36 125.80 C 159.18 124.60 158.06 123.77 156.87 123.95 L 155.87 124.09 C 154.67 124.27 153.84 125.39 154.02 126.59 C 154.19 127.79 155.31 128.61 156.51 128.44 Z M 157.53 128.29 L 158.53 128.13 C 159.73 127.94 160.55 126.81 160.36 125.62 C 160.17 124.42 159.04 123.60 157.84 123.79 L 156.84 123.95 C 155.64 124.14 154.82 125.27 155.01 126.46 C 155.20 127.66 156.33 128.48 157.53 128.29 Z M 158.56 128.13 L 159.52 127.96 C 160.72 127.76 161.52 126.62 161.31 125.42 C 161.11 124.22 159.97 123.42 158.77 123.62 L 157.81 123.79 C 156.61 124.00 155.81 125.14 156.02 126.34 C 156.22 127.53 157.36 128.34 158.56 128.13 Z M 159.55 127.96 L 160.45 127.79 C 161.64 127.57 162.43 126.42 162.21 125.22 C 161.98 124.02 160.83 123.24 159.63 123.46 L 158.74 123.63 C 157.54 123.85 156.75 125.00 156.98 126.20 C 157.20 127.40 158.35 128.19 159.55 127.96 Z M 160.47 127.79 L 161.43 127.60 C 162.63 127.36 163.41 126.21 163.17 125.01 C 162.94 123.82 161.78 123.04 160.58 123.27 L 159.62 123.46 C 158.42 123.70 157.64 124.86 157.88 126.05 C 158.11 127.25 159.27 128.02 160.47 127.79 Z M 161.44 127.60 L 162.48 127.39 C 163.68 127.16 164.45 126.00 164.22 124.80 C 163.98 123.61 162.82 122.83 161.63 123.07 L 160.58 123.27 C 159.39 123.51 158.61 124.67 158.85 125.86 C 159.08 127.06 160.24 127.83 161.44 127.60 Z M 162.48 127.39 L 163.41 127.21 C 164.61 126.97 165.39 125.82 165.15 124.62 C 164.92 123.43 163.76 122.65 162.56 122.88 L 161.63 123.07 C 160.44 123.30 159.66 124.46 159.89 125.65 C 160.13 126.85 161.28 127.63 162.48 127.39 Z M 163.41 127.21 L 164.41 127.01 C 165.61 126.78 166.39 125.62 166.15 124.43 C 165.92 123.23 164.76 122.45 163.57 122.69 L 162.57 122.88 C 161.37 123.12 160.59 124.27 160.83 125.47 C 161.06 126.66 162.22 127.44 163.41 127.21 Z M 164.41 127.01 L 165.44 126.81 C 166.63 126.58 167.41 125.42 167.18 124.23 C 166.94 123.03 165.79 122.26 164.59 122.49 L 163.57 122.69 C 162.37 122.92 161.60 124.08 161.83 125.27 C 162.06 126.47 163.22 127.25 164.41 127.01 Z M 165.44 126.81 L 166.49 126.61 C 167.69 126.37 168.47 125.22 168.23 124.02 C 168.00 122.83 166.84 122.05 165.65 122.28 L 164.59 122.49 C 163.40 122.72 162.62 123.88 162.85 125.07 C 163.08 126.27 164.24 127.05 165.44 126.81 Z M 166.49 126.61 L 167.52 126.41 C 168.72 126.18 169.50 125.02 169.27 123.82 C 169.04 122.63 167.88 121.85 166.68 122.08 L 165.65 122.28 C 164.45 122.51 163.67 123.67 163.90 124.87 C 164.14 126.06 165.29 126.84 166.49 126.61 Z M 167.52 126.41 L 168.47 126.23 C 169.67 126.00 170.46 124.84 170.23 123.65 C 170.00 122.45 168.84 121.66 167.64 121.89 L 166.69 122.07 C 165.49 122.30 164.70 123.46 164.93 124.66 C 165.16 125.86 166.32 126.64 167.52 126.41 Z M 168.46 126.24 L 169.49 126.05 C 170.70 125.83 171.49 124.67 171.27 123.47 C 171.05 122.26 169.89 121.46 168.68 121.69 L 167.65 121.88 C 166.45 122.10 165.65 123.26 165.87 124.46 C 166.10 125.67 167.25 126.47 168.46 126.24 Z M 169.30 126.12 L 170.37 126.02 C 171.62 125.90 172.53 124.80 172.41 123.56 C 172.29 122.31 171.19 121.40 169.94 121.52 L 168.87 121.62 C 167.63 121.74 166.72 122.84 166.84 124.08 C 166.95 125.33 168.06 126.24 169.30 126.12 Z M 167.89 123.30 L 167.83 123.62 C 167.57 124.87 168.37 126.10 169.62 126.36 C 170.87 126.62 172.09 125.82 172.35 124.57 L 172.42 124.24 C 172.68 122.99 171.88 121.77 170.63 121.51 C 169.38 121.25 168.15 122.05 167.89 123.30 Z M 168.67 122.25 L 167.95 122.80 C 166.93 123.59 166.74 125.05 167.52 126.07 C 168.31 127.09 169.77 127.28 170.79 126.50 L 171.51 125.94 C 172.53 125.16 172.72 123.69 171.93 122.67 C 171.15 121.66 169.69 121.47 168.67 122.25 Z M 168.07 122.72 L 167.03 123.42 C 165.96 124.13 165.68 125.58 166.39 126.65 C 167.11 127.72 168.56 128.00 169.62 127.28 L 170.67 126.58 C 171.74 125.87 172.02 124.42 171.30 123.35 C 170.59 122.28 169.14 122.00 168.07 122.72 Z M 167.05 123.40 L 166.81 123.56 C 165.74 124.26 165.44 125.71 166.14 126.78 C 166.85 127.86 168.29 128.16 169.37 127.45 L 169.60 127.30 C 170.68 126.59 170.98 125.15 170.27 124.07 C 169.57 123.00 168.13 122.70 167.05 123.40 Z"
      fill="black"
      fill-rule="nonzero" /><path d="M 131.96 128.10 L 131.54 129.03 C 131.08 130.03 131.52 131.21 132.52 131.67 C 133.52 132.12 134.69 131.68 135.15 130.68 L 135.58 129.75 C 136.03 128.75 135.59 127.58 134.60 127.12 C 133.60 126.66 132.42 127.10 131.96 128.10 Z M 131.40 129.43 L 131.19 130.38 C 130.96 131.46 131.64 132.52 132.71 132.75 C 133.79 132.98 134.85 132.30 135.08 131.23 L 135.29 130.28 C 135.52 129.21 134.84 128.15 133.77 127.92 C 132.69 127.68 131.64 128.36 131.40 129.43 Z M 131.18 131.17 L 131.34 132.05 C 131.54 133.13 132.59 133.84 133.67 133.64 C 134.75 133.44 135.46 132.40 135.26 131.32 L 135.10 130.44 C 134.89 129.36 133.85 128.65 132.77 128.85 C 131.69 129.05 130.98 130.09 131.18 131.17 Z M 131.54 132.62 L 132.01 133.50 C 132.53 134.47 133.74 134.83 134.71 134.31 C 135.68 133.79 136.05 132.58 135.53 131.61 L 135.06 130.74 C 134.54 129.77 133.33 129.40 132.36 129.92 C 131.38 130.44 131.02 131.65 131.54 132.62 Z M 132.17 133.76 L 132.83 134.63 C 133.50 135.52 134.76 135.69 135.64 135.02 C 136.52 134.35 136.69 133.09 136.02 132.21 L 135.36 131.34 C 134.69 130.46 133.44 130.29 132.55 130.96 C 131.67 131.63 131.50 132.88 132.17 133.76 Z M 132.92 134.75 L 133.56 135.48 C 134.30 136.31 135.57 136.39 136.40 135.66 C 137.23 134.92 137.31 133.65 136.58 132.82 L 135.93 132.09 C 135.20 131.26 133.93 131.18 133.10 131.91 C 132.26 132.65 132.18 133.92 132.92 134.75 Z M 133.61 135.55 L 134.31 136.28 C 135.09 137.08 136.37 137.11 137.17 136.34 C 137.97 135.56 138.00 134.29 137.23 133.48 L 136.53 132.75 C 135.75 131.95 134.48 131.92 133.67 132.69 C 132.87 133.46 132.84 134.74 133.61 135.55 Z M 134.35 136.32 L 135.08 137.04 C 135.87 137.83 137.16 137.82 137.94 137.02 C 138.73 136.23 138.72 134.94 137.93 134.16 L 137.20 133.44 C 136.40 132.65 135.11 132.66 134.33 133.45 C 133.54 134.25 133.55 135.54 134.35 136.32 Z M 135.09 137.07 L 135.81 137.75 C 136.62 138.53 137.91 138.50 138.69 137.69 C 139.46 136.88 139.43 135.59 138.62 134.81 L 137.91 134.13 C 137.09 133.35 135.81 133.38 135.03 134.19 C 134.25 135.00 134.28 136.29 135.09 137.07 Z M 135.81 137.77 L 136.53 138.44 C 137.35 139.22 138.65 139.18 139.42 138.36 C 140.19 137.53 140.15 136.24 139.33 135.47 L 138.61 134.79 C 137.79 134.02 136.50 134.06 135.73 134.88 C 134.95 135.71 134.99 137.00 135.81 137.77 Z M 136.53 138.45 L 137.27 139.14 C 138.09 139.92 139.39 139.87 140.17 139.05 C 140.94 138.22 140.90 136.92 140.07 136.15 L 139.33 135.46 C 138.50 134.68 137.21 134.73 136.43 135.56 C 135.66 136.38 135.70 137.68 136.53 138.45 Z M 137.26 139.14 L 138.01 139.85 C 138.83 140.63 140.13 140.59 140.91 139.76 C 141.69 138.93 141.65 137.63 140.83 136.85 L 140.08 136.15 C 139.25 135.37 137.95 135.41 137.17 136.23 C 136.39 137.06 136.43 138.36 137.26 139.14 Z M 137.99 139.84 L 138.74 140.55 C 139.56 141.34 140.87 141.31 141.65 140.48 C 142.44 139.66 142.41 138.35 141.58 137.57 L 140.84 136.86 C 140.02 136.07 138.71 136.10 137.92 136.92 C 137.14 137.75 137.17 139.05 137.99 139.84 Z M 138.72 140.54 L 139.45 141.25 C 140.27 142.05 141.58 142.03 142.37 141.21 C 143.17 140.39 143.15 139.08 142.33 138.28 L 141.60 137.58 C 140.78 136.78 139.47 136.80 138.68 137.62 C 137.88 138.44 137.90 139.75 138.72 140.54 Z M 139.42 141.24 L 140.10 141.91 C 140.91 142.72 142.23 142.72 143.04 141.91 C 143.85 141.10 143.84 139.79 143.03 138.98 L 142.35 138.30 C 141.54 137.49 140.23 137.49 139.42 138.30 C 138.61 139.11 138.61 140.43 139.42 141.24 Z M 140.07 141.88 L 140.82 142.67 C 141.62 143.49 142.93 143.52 143.76 142.73 C 144.59 141.93 144.61 140.62 143.82 139.79 L 143.07 139.01 C 142.27 138.18 140.96 138.15 140.13 138.95 C 139.30 139.74 139.28 141.06 140.07 141.88 Z M 140.78 142.63 L 141.45 143.36 C 142.22 144.20 143.54 144.26 144.38 143.49 C 145.23 142.71 145.29 141.40 144.52 140.55 L 143.86 139.82 C 143.08 138.98 141.77 138.92 140.92 139.69 C 140.07 140.47 140.01 141.78 140.78 142.63 Z M 141.42 143.33 L 142.03 144.02 C 142.79 144.89 144.10 144.97 144.97 144.21 C 145.83 143.46 145.92 142.14 145.16 141.28 L 144.55 140.58 C 143.79 139.72 142.47 139.63 141.61 140.39 C 140.74 141.15 140.66 142.46 141.42 143.33 Z M 142.01 144.01 L 142.67 144.77 C 143.42 145.65 144.73 145.75 145.61 145.00 C 146.48 144.25 146.58 142.93 145.83 142.06 L 145.18 141.29 C 144.43 140.42 143.11 140.32 142.24 141.07 C 141.36 141.82 141.26 143.13 142.01 144.01 Z M 142.66 144.76 L 143.30 145.52 C 144.04 146.40 145.36 146.51 146.24 145.76 C 147.12 145.02 147.23 143.70 146.48 142.82 L 145.84 142.07 C 145.10 141.19 143.78 141.08 142.90 141.82 C 142.02 142.57 141.91 143.88 142.66 144.76 Z M 143.29 145.52 L 143.93 146.27 C 144.67 147.16 145.99 147.27 146.87 146.53 C 147.76 145.78 147.87 144.47 147.13 143.58 L 146.49 142.83 C 145.75 141.94 144.43 141.83 143.54 142.57 C 142.66 143.32 142.55 144.63 143.29 145.52 Z M 143.91 146.25 L 144.54 147.02 C 145.27 147.92 146.59 148.05 147.48 147.32 C 148.38 146.59 148.51 145.27 147.78 144.38 L 147.14 143.60 C 146.41 142.71 145.10 142.58 144.20 143.31 C 143.31 144.04 143.18 145.36 143.91 146.25 Z M 144.50 146.97 L 145.10 147.75 C 145.80 148.67 147.11 148.84 148.03 148.14 C 148.95 147.43 149.12 146.12 148.42 145.21 L 147.82 144.43 C 147.11 143.51 145.80 143.34 144.89 144.04 C 143.97 144.75 143.80 146.06 144.50 146.97 Z M 145.04 147.68 L 145.59 148.46 C 146.26 149.41 147.56 149.64 148.51 148.98 C 149.45 148.32 149.68 147.01 149.02 146.07 L 148.47 145.28 C 147.81 144.33 146.50 144.10 145.56 144.77 C 144.61 145.43 144.38 146.73 145.04 147.68 Z M 145.53 148.37 L 146.08 149.25 C 146.69 150.23 147.98 150.53 148.96 149.92 C 149.94 149.31 150.24 148.02 149.63 147.04 L 149.08 146.16 C 148.47 145.18 147.18 144.88 146.20 145.49 C 145.22 146.10 144.92 147.39 145.53 148.37 Z M 146.01 149.15 L 146.52 150.08 C 147.08 151.10 148.35 151.48 149.37 150.92 C 150.39 150.37 150.76 149.10 150.21 148.08 L 149.70 147.14 C 149.14 146.13 147.87 145.75 146.85 146.30 C 145.83 146.86 145.46 148.13 146.01 149.15 Z M 146.42 149.89 L 146.82 150.85 C 147.27 151.93 148.50 152.44 149.57 151.99 C 150.65 151.54 151.16 150.31 150.71 149.24 L 150.31 148.27 C 149.86 147.20 148.63 146.69 147.56 147.14 C 146.48 147.58 145.97 148.81 146.42 149.89 Z M 146.68 150.41 L 146.84 151.33 C 147.05 152.48 148.14 153.25 149.29 153.05 C 150.45 152.85 151.21 151.75 151.01 150.60 L 150.85 149.68 C 150.65 148.53 149.55 147.76 148.40 147.96 C 147.25 148.16 146.48 149.26 146.68 150.41 Z M 146.87 150.46 L 146.67 151.25 C 146.40 152.39 147.09 153.54 148.23 153.82 C 149.37 154.09 150.52 153.40 150.79 152.26 L 150.99 151.47 C 151.27 150.33 150.57 149.19 149.43 148.91 C 148.29 148.63 147.15 149.33 146.87 150.46 Z M 147.03 150.50 L 146.49 151.23 C 145.79 152.17 145.99 153.50 146.93 154.19 C 147.87 154.89 149.20 154.69 149.89 153.75 L 150.44 153.02 C 151.13 152.08 150.93 150.75 149.99 150.05 C 149.05 149.36 147.73 149.56 147.03 150.50 Z M 146.74 150.95 L 145.90 151.74 C 145.05 152.54 145.01 153.88 145.81 154.73 C 146.61 155.58 147.95 155.62 148.80 154.82 L 149.64 154.03 C 150.49 153.23 150.53 151.89 149.73 151.04 C 148.93 150.19 147.59 150.15 146.74 150.95 Z M 145.96 151.70 L 145.20 152.36 C 144.32 153.13 144.23 154.46 145.00 155.34 C 145.77 156.22 147.11 156.30 147.98 155.54 L 148.74 154.87 C 149.62 154.10 149.70 152.77 148.94 151.89 C 148.17 151.01 146.83 150.93 145.96 151.70 Z M 145.21 152.36 L 144.45 153.02 C 143.57 153.79 143.48 155.12 144.24 155.99 C 145.01 156.87 146.34 156.96 147.21 156.20 L 147.97 155.54 C 148.85 154.77 148.94 153.44 148.18 152.57 C 147.41 151.69 146.09 151.60 145.21 152.36 Z M 144.46 153.02 L 143.67 153.71 C 142.79 154.47 142.70 155.79 143.45 156.67 C 144.21 157.54 145.54 157.64 146.41 156.88 L 147.20 156.20 C 148.08 155.44 148.17 154.11 147.42 153.24 C 146.66 152.36 145.33 152.27 144.46 153.02 Z M 143.67 153.71 L 142.90 154.38 C 142.02 155.14 141.92 156.46 142.68 157.33 C 143.43 158.21 144.75 158.30 145.63 157.55 L 146.41 156.88 C 147.28 156.12 147.38 154.80 146.62 153.93 C 145.87 153.05 144.55 152.96 143.67 153.71 Z M 142.90 154.38 L 142.14 155.04 C 141.27 155.79 141.17 157.11 141.92 157.98 C 142.67 158.85 143.98 158.95 144.86 158.20 L 145.62 157.55 C 146.49 156.80 146.59 155.48 145.84 154.61 C 145.09 153.73 143.78 153.63 142.90 154.38 Z M 142.15 155.04 L 141.32 155.75 C 140.45 156.49 140.34 157.81 141.09 158.68 C 141.84 159.55 143.15 159.66 144.02 158.91 L 144.85 158.20 C 145.72 157.46 145.82 156.14 145.08 155.27 C 144.33 154.40 143.02 154.29 142.15 155.04 Z M 141.32 155.75 L 140.58 156.39 C 139.71 157.13 139.61 158.44 140.35 159.31 C 141.09 160.18 142.40 160.28 143.27 159.54 L 144.02 158.90 C 144.89 158.16 144.99 156.85 144.25 155.98 C 143.50 155.11 142.19 155.01 141.32 155.75 Z M 140.58 156.40 L 139.87 157.00 C 139.01 157.75 138.91 159.05 139.65 159.92 C 140.40 160.78 141.70 160.88 142.57 160.14 L 143.27 159.53 C 144.14 158.79 144.24 157.48 143.49 156.62 C 142.75 155.75 141.44 155.65 140.58 156.40 Z M 139.87 157.02 L 139.16 157.63 C 138.30 158.38 138.21 159.68 138.96 160.54 C 139.70 161.40 141.01 161.49 141.87 160.74 L 142.57 160.13 C 143.43 159.38 143.52 158.08 142.77 157.22 C 142.03 156.36 140.72 156.27 139.87 157.02 Z M 139.15 157.65 L 138.42 158.29 C 137.57 159.04 137.48 160.35 138.24 161.20 C 138.99 162.05 140.29 162.13 141.14 161.38 L 141.87 160.73 C 142.73 159.98 142.81 158.68 142.05 157.83 C 141.30 156.97 140.00 156.89 139.15 157.65 Z M 138.41 158.30 L 137.66 158.97 C 136.81 159.73 136.74 161.03 137.49 161.88 C 138.25 162.72 139.55 162.80 140.39 162.04 L 141.15 161.37 C 141.99 160.61 142.07 159.31 141.31 158.47 C 140.56 157.62 139.26 157.55 138.41 158.30 Z M 137.65 158.98 L 136.88 159.68 C 136.04 160.43 135.97 161.73 136.72 162.57 C 137.48 163.42 138.78 163.49 139.62 162.73 L 140.40 162.03 C 141.24 161.28 141.31 159.98 140.55 159.14 C 139.79 158.29 138.50 158.22 137.65 158.98 Z M 136.88 159.68 L 136.14 160.34 C 135.30 161.10 135.24 162.40 136.00 163.24 C 136.75 164.08 138.05 164.14 138.89 163.39 L 139.62 162.72 C 140.46 161.97 140.53 160.67 139.77 159.83 C 139.02 158.99 137.72 158.92 136.88 159.68 Z M 136.14 160.34 L 135.40 161.01 C 134.56 161.77 134.50 163.07 135.26 163.91 C 136.02 164.75 137.31 164.81 138.15 164.05 L 138.89 163.38 C 139.73 162.63 139.80 161.33 139.04 160.49 C 138.28 159.65 136.98 159.58 136.14 160.34 Z M 135.40 161.01 L 134.66 161.69 C 133.82 162.45 133.75 163.75 134.51 164.59 C 135.27 165.42 136.57 165.49 137.41 164.73 L 138.15 164.05 C 138.99 163.29 139.06 162.00 138.30 161.16 C 137.54 160.32 136.24 160.25 135.40 161.01 Z M 134.65 161.69 L 133.91 162.37 C 133.07 163.13 133.00 164.42 133.76 165.26 C 134.52 166.10 135.82 166.17 136.66 165.41 L 137.41 164.73 C 138.25 163.97 138.31 162.67 137.55 161.83 C 136.79 160.99 135.49 160.93 134.65 161.69 Z M 133.90 162.37 L 133.15 163.05 C 132.31 163.81 132.24 165.11 133.01 165.95 C 133.77 166.79 135.06 166.85 135.90 166.09 L 136.66 165.41 C 137.50 164.65 137.56 163.35 136.80 162.51 C 136.04 161.67 134.75 161.61 133.90 162.37 Z M 133.15 163.04 L 132.40 163.72 C 131.56 164.48 131.49 165.78 132.25 166.63 C 133.01 167.47 134.31 167.53 135.16 166.77 L 135.91 166.10 C 136.75 165.34 136.82 164.03 136.05 163.19 C 135.29 162.35 133.99 162.28 133.15 163.04 Z M 132.40 163.72 L 131.66 164.38 C 130.81 165.14 130.75 166.45 131.51 167.29 C 132.27 168.14 133.57 168.21 134.42 167.44 L 135.16 166.78 C 136.00 166.02 136.07 164.71 135.31 163.87 C 134.55 163.02 133.24 162.95 132.40 163.72 Z M 131.66 164.38 L 130.93 165.03 C 130.08 165.79 130.01 167.10 130.77 167.95 C 131.53 168.80 132.84 168.87 133.69 168.11 L 134.42 167.45 C 135.27 166.69 135.34 165.38 134.58 164.53 C 133.81 163.68 132.51 163.61 131.66 164.38 Z M 130.92 165.03 L 130.16 165.71 C 129.31 166.48 129.24 167.79 130.01 168.64 C 130.77 169.49 132.08 169.56 132.93 168.79 L 133.69 168.11 C 134.54 167.35 134.61 166.04 133.85 165.18 C 133.08 164.33 131.77 164.26 130.92 165.03 Z M 130.14 165.72 L 129.41 166.40 C 128.56 167.18 128.51 168.49 129.29 169.33 C 130.06 170.18 131.38 170.23 132.22 169.46 L 132.96 168.78 C 133.80 168.00 133.85 166.69 133.08 165.85 C 132.30 165.00 130.99 164.95 130.14 165.72 Z M 129.37 166.43 L 128.66 167.11 C 127.83 167.91 127.81 169.23 128.61 170.06 C 129.41 170.88 130.72 170.91 131.55 170.11 L 132.26 169.43 C 133.09 168.63 133.11 167.31 132.31 166.48 C 131.51 165.66 130.20 165.63 129.37 166.43 Z M 128.59 167.17 L 127.83 167.96 C 127.04 168.79 127.07 170.12 127.90 170.92 C 128.73 171.72 130.06 171.69 130.86 170.85 L 131.62 170.06 C 132.41 169.22 132.39 167.90 131.55 167.10 C 130.72 166.30 129.39 166.33 128.59 167.17 Z M 127.71 168.07 L 127.00 168.94 C 126.26 169.85 126.39 171.18 127.29 171.91 C 128.20 172.65 129.53 172.52 130.26 171.62 L 130.98 170.74 C 131.72 169.84 131.58 168.51 130.68 167.77 C 129.78 167.03 128.45 167.17 127.71 168.07 Z M 126.76 169.25 L 126.33 170.02 C 125.76 171.06 126.14 172.36 127.17 172.92 C 128.21 173.49 129.51 173.12 130.08 172.08 L 130.50 171.31 C 131.07 170.28 130.69 168.98 129.66 168.41 C 128.63 167.84 127.33 168.22 126.76 169.25 Z M 126.06 171.33 L 126.15 172.01 C 126.30 173.19 127.38 174.03 128.56 173.88 C 129.75 173.73 130.58 172.65 130.43 171.47 L 130.35 170.78 C 130.20 169.60 129.12 168.76 127.93 168.91 C 126.75 169.06 125.91 170.14 126.06 171.33 Z M 127.32 173.70 L 128.17 174.12 C 129.26 174.65 130.57 174.21 131.10 173.13 C 131.64 172.05 131.20 170.74 130.11 170.20 L 129.26 169.78 C 128.18 169.24 126.87 169.68 126.33 170.77 C 125.80 171.85 126.24 173.16 127.32 173.70 Z M 128.82 174.35 L 129.93 174.51 C 131.14 174.69 132.26 173.85 132.44 172.64 C 132.61 171.44 131.78 170.31 130.57 170.14 L 129.47 169.97 C 128.26 169.80 127.14 170.63 126.96 171.84 C 126.78 173.05 127.62 174.17 128.82 174.35 Z M 130.13 174.54 L 131.13 174.60 C 132.36 174.67 133.41 173.73 133.48 172.50 C 133.54 171.27 132.61 170.22 131.38 170.16 L 130.37 170.10 C 129.15 170.03 128.10 170.97 128.03 172.20 C 127.96 173.42 128.90 174.47 130.13 174.54 Z M 131.22 174.61 L 132.25 174.63 C 133.48 174.65 134.50 173.67 134.52 172.43 C 134.54 171.20 133.56 170.18 132.33 170.16 L 131.29 170.14 C 130.06 170.12 129.04 171.10 129.02 172.34 C 129.00 173.57 129.98 174.59 131.22 174.61 Z M 132.28 174.64 L 133.30 174.65 C 134.54 174.65 135.55 173.64 135.55 172.40 C 135.55 171.16 134.55 170.15 133.31 170.15 L 132.29 170.15 C 131.05 170.15 130.04 171.15 130.04 172.39 C 130.04 173.63 131.04 174.64 132.28 174.64 Z M 133.30 174.66 L 134.32 174.66 C 135.57 174.66 136.58 173.65 136.58 172.40 C 136.58 171.15 135.57 170.13 134.32 170.13 L 133.30 170.13 C 132.05 170.13 131.04 171.15 131.04 172.40 C 131.04 173.65 132.05 174.66 133.30 174.66 Z M 134.32 174.68 L 135.28 174.68 C 136.54 174.68 137.56 173.66 137.56 172.40 C 137.56 171.14 136.54 170.12 135.28 170.12 L 134.32 170.12 C 133.06 170.12 132.04 171.14 132.04 172.40 C 132.04 173.66 133.06 174.68 134.32 174.68 Z M 135.29 174.69 L 136.19 174.69 C 137.46 174.69 138.48 173.66 138.48 172.40 C 138.48 171.13 137.46 170.10 136.19 170.10 L 135.28 170.10 C 134.02 170.10 132.99 171.13 132.99 172.40 C 132.99 173.66 134.02 174.69 135.29 174.69 Z M 136.21 174.70 L 137.11 174.69 C 138.38 174.68 139.40 173.64 139.38 172.36 C 139.37 171.09 138.33 170.07 137.06 170.09 L 136.17 170.09 C 134.90 170.11 133.88 171.15 133.89 172.42 C 133.90 173.69 134.94 174.71 136.21 174.70 Z M 137.16 174.69 L 138.18 174.66 C 139.45 174.62 140.45 173.55 140.41 172.28 C 140.37 171.00 139.30 170.01 138.03 170.05 L 137.01 170.08 C 135.73 170.12 134.74 171.19 134.78 172.46 C 134.82 173.74 135.89 174.74 137.16 174.69 Z M 138.24 174.66 L 139.41 174.59 C 140.68 174.51 141.65 173.41 141.57 172.14 C 141.50 170.86 140.40 169.89 139.12 169.97 L 137.96 170.05 C 136.68 170.12 135.71 171.22 135.79 172.50 C 135.87 173.77 136.97 174.74 138.24 174.66 Z M 139.46 174.59 L 140.34 174.52 C 141.61 174.41 142.56 173.29 142.45 172.01 C 142.34 170.73 141.22 169.79 139.94 169.90 L 139.07 169.97 C 137.79 170.08 136.85 171.20 136.96 172.48 C 137.06 173.75 138.19 174.70 139.46 174.59 Z M 140.36 174.52 L 141.31 174.43 C 142.59 174.30 143.52 173.17 143.40 171.89 C 143.28 170.62 142.14 169.68 140.86 169.80 L 139.92 169.90 C 138.64 170.02 137.71 171.15 137.83 172.43 C 137.95 173.71 139.09 174.64 140.36 174.52 Z M 141.32 174.43 L 142.33 174.33 C 143.61 174.20 144.54 173.06 144.41 171.78 C 144.28 170.50 143.14 169.57 141.86 169.70 L 140.85 169.80 C 139.58 169.93 138.64 171.07 138.77 172.35 C 138.90 173.63 140.04 174.56 141.32 174.43 Z M 142.33 174.33 L 143.38 174.23 C 144.66 174.10 145.59 172.96 145.46 171.68 C 145.34 170.40 144.19 169.46 142.91 169.59 L 141.86 169.70 C 140.58 169.82 139.65 170.97 139.78 172.25 C 139.90 173.53 141.05 174.46 142.33 174.33 Z M 143.37 174.23 L 144.45 174.13 C 145.73 174.01 146.67 172.87 146.55 171.59 C 146.43 170.30 145.29 169.36 144.01 169.48 L 142.92 169.59 C 141.64 169.71 140.70 170.85 140.82 172.13 C 140.94 173.41 142.08 174.35 143.37 174.23 Z M 144.43 174.13 L 145.48 174.04 C 146.77 173.93 147.72 172.80 147.61 171.51 C 147.50 170.23 146.36 169.28 145.08 169.39 L 144.03 169.48 C 142.74 169.59 141.79 170.72 141.90 172.01 C 142.01 173.29 143.14 174.25 144.43 174.13 Z M 145.46 174.05 L 146.50 173.97 C 147.79 173.87 148.75 172.74 148.65 171.45 C 148.55 170.17 147.42 169.20 146.14 169.30 L 145.10 169.38 C 143.81 169.48 142.85 170.61 142.95 171.90 C 143.05 173.18 144.17 174.15 145.46 174.05 Z M 146.48 173.97 L 147.51 173.89 C 148.80 173.80 149.77 172.68 149.68 171.39 C 149.58 170.11 148.46 169.14 147.18 169.23 L 146.15 169.30 C 144.86 169.39 143.89 170.51 143.98 171.80 C 144.08 173.09 145.20 174.06 146.48 173.97 Z M 147.50 173.90 L 148.50 173.83 C 149.79 173.74 150.77 172.63 150.68 171.34 C 150.59 170.05 149.48 169.07 148.19 169.16 L 147.19 169.23 C 145.90 169.31 144.92 170.43 145.01 171.72 C 145.09 173.01 146.21 173.98 147.50 173.90 Z M 148.50 173.83 L 149.46 173.77 C 150.75 173.68 151.73 172.57 151.65 171.28 C 151.56 169.99 150.45 169.01 149.16 169.09 L 148.19 169.16 C 146.90 169.24 145.92 170.36 146.01 171.65 C 146.09 172.94 147.21 173.92 148.50 173.83 Z M 149.46 173.77 L 150.41 173.71 C 151.70 173.62 152.68 172.51 152.59 171.21 C 152.51 169.92 151.39 168.95 150.10 169.03 L 149.16 169.09 C 147.86 169.18 146.89 170.29 146.97 171.58 C 147.06 172.88 148.17 173.85 149.46 173.77 Z M 150.41 173.71 L 151.52 173.63 C 152.81 173.54 153.79 172.42 153.70 171.13 C 153.61 169.84 152.49 168.87 151.20 168.95 L 150.09 169.03 C 148.80 169.12 147.83 170.24 147.92 171.53 C 148.00 172.82 149.12 173.79 150.41 173.71 Z M 151.53 173.63 L 152.55 173.56 C 153.84 173.46 154.81 172.34 154.72 171.05 C 154.63 169.76 153.51 168.79 152.22 168.88 L 151.19 168.96 C 149.90 169.05 148.93 170.17 149.02 171.46 C 149.12 172.75 150.24 173.72 151.53 173.63 Z M 152.56 173.56 L 153.52 173.48 C 154.81 173.39 155.77 172.26 155.68 170.97 C 155.58 169.68 154.46 168.71 153.17 168.81 L 152.21 168.88 C 150.92 168.98 149.95 170.10 150.05 171.39 C 150.14 172.68 151.27 173.65 152.56 173.56 Z M 153.52 173.48 L 154.43 173.41 C 155.72 173.31 156.68 172.19 156.59 170.90 C 156.49 169.61 155.36 168.64 154.07 168.74 L 153.16 168.81 C 151.87 168.91 150.91 170.04 151.01 171.33 C 151.10 172.62 152.23 173.58 153.52 173.48 Z M 154.43 173.41 L 155.44 173.33 C 156.73 173.23 157.69 172.11 157.59 170.82 C 157.49 169.53 156.36 168.56 155.07 168.66 L 154.07 168.74 C 152.78 168.84 151.81 169.97 151.91 171.26 C 152.01 172.55 153.14 173.51 154.43 173.41 Z M 155.44 173.33 L 156.45 173.25 C 157.74 173.15 158.70 172.02 158.60 170.73 C 158.49 169.44 157.36 168.48 156.07 168.58 L 155.07 168.66 C 153.78 168.77 152.81 169.90 152.92 171.19 C 153.02 172.48 154.15 173.44 155.44 173.33 Z M 156.46 173.25 L 157.44 173.17 C 158.73 173.06 159.69 171.92 159.58 170.64 C 159.47 169.35 158.33 168.39 157.04 168.50 L 156.06 168.58 C 154.77 168.69 153.82 169.83 153.93 171.12 C 154.04 172.41 155.17 173.36 156.46 173.25 Z M 157.45 173.17 L 158.41 173.08 C 159.70 172.96 160.65 171.82 160.53 170.53 C 160.42 169.25 159.28 168.30 157.99 168.41 L 157.03 168.50 C 155.74 168.62 154.79 169.76 154.91 171.05 C 155.03 172.33 156.16 173.28 157.45 173.17 Z M 158.43 173.08 L 159.37 172.99 C 160.65 172.86 161.60 171.72 161.47 170.43 C 161.35 169.14 160.20 168.20 158.92 168.32 L 157.98 168.42 C 156.69 168.54 155.74 169.68 155.87 170.97 C 155.99 172.26 157.14 173.20 158.43 173.08 Z M 159.37 172.99 L 160.34 172.89 C 161.63 172.77 162.57 171.62 162.44 170.33 C 162.32 169.04 161.17 168.10 159.88 168.23 L 158.91 168.33 C 157.62 168.45 156.68 169.60 156.81 170.88 C 156.94 172.17 158.08 173.11 159.37 172.99 Z M 160.33 172.89 L 161.37 172.79 C 162.65 172.67 163.60 171.53 163.48 170.24 C 163.35 168.95 162.21 168.01 160.92 168.13 L 159.89 168.23 C 158.60 168.35 157.66 169.50 157.78 170.78 C 157.90 172.07 159.05 173.01 160.33 172.89 Z M 161.35 172.79 L 162.40 172.70 C 163.68 172.58 164.63 171.45 164.52 170.16 C 164.40 168.87 163.27 167.92 161.98 168.04 L 160.94 168.13 C 159.65 168.25 158.70 169.38 158.81 170.67 C 158.93 171.96 160.07 172.91 161.35 172.79 Z M 162.38 172.70 L 163.41 172.61 C 164.69 172.50 165.65 171.37 165.54 170.09 C 165.43 168.80 164.30 167.84 163.01 167.95 L 161.99 168.04 C 160.70 168.15 159.75 169.28 159.86 170.57 C 159.97 171.85 161.10 172.81 162.38 172.70 Z M 163.40 172.61 L 164.43 172.53 C 165.72 172.43 166.68 171.30 166.57 170.01 C 166.47 168.72 165.34 167.77 164.06 167.87 L 163.02 167.95 C 161.74 168.06 160.78 169.18 160.88 170.47 C 160.98 171.76 162.11 172.72 163.40 172.61 Z M 164.43 172.53 L 165.42 172.45 C 166.71 172.35 167.67 171.23 167.57 169.94 C 167.47 168.65 166.35 167.69 165.06 167.79 L 164.06 167.87 C 162.78 167.97 161.82 169.09 161.92 170.38 C 162.02 171.67 163.14 172.63 164.43 172.53 Z M 165.42 172.45 L 166.39 172.38 C 167.68 172.28 168.64 171.16 168.55 169.87 C 168.45 168.59 167.33 167.62 166.04 167.72 L 165.07 167.79 C 163.78 167.89 162.82 169.01 162.92 170.30 C 163.01 171.58 164.13 172.55 165.42 172.45 Z M 166.38 172.37 L 167.46 172.30 C 168.75 172.21 169.71 171.09 169.62 169.81 C 169.53 168.52 168.42 167.56 167.14 167.65 L 166.05 167.72 C 164.77 167.81 163.80 168.93 163.89 170.21 C 163.98 171.50 165.10 172.46 166.38 172.37 Z M 167.44 172.29 L 168.39 172.24 C 169.67 172.16 170.65 171.06 170.57 169.78 C 170.50 168.50 169.40 167.52 168.12 167.60 L 167.16 167.65 C 165.88 167.73 164.90 168.83 164.98 170.11 C 165.06 171.39 166.16 172.37 167.44 172.29 Z M 168.35 172.23 L 169.27 172.19 C 170.55 172.14 171.54 171.06 171.49 169.79 C 171.44 168.51 170.36 167.51 169.08 167.56 L 168.16 167.60 C 166.88 167.65 165.89 168.73 165.94 170.01 C 165.99 171.29 167.07 172.28 168.35 172.23 Z M 169.21 172.19 L 170.23 172.18 C 171.51 172.16 172.53 171.11 172.51 169.84 C 172.50 168.56 171.45 167.54 170.17 167.55 L 169.15 167.57 C 167.87 167.58 166.85 168.63 166.87 169.91 C 166.88 171.18 167.93 172.21 169.21 172.19 Z M 170.11 172.16 L 171.13 172.20 C 172.40 172.25 173.47 171.26 173.52 169.99 C 173.56 168.72 172.57 167.65 171.30 167.60 L 170.29 167.57 C 169.02 167.52 167.95 168.51 167.90 169.78 C 167.85 171.05 168.84 172.12 170.11 172.16 Z M 170.91 172.17 L 171.88 172.30 C 173.14 172.47 174.29 171.59 174.45 170.33 C 174.62 169.08 173.74 167.93 172.49 167.76 L 171.52 167.64 C 170.26 167.47 169.11 168.35 168.95 169.60 C 168.78 170.86 169.66 172.01 170.91 172.17 Z M 171.47 172.18 L 172.43 172.49 C 173.62 172.89 174.89 172.24 175.29 171.06 C 175.68 169.87 175.03 168.60 173.85 168.20 L 172.89 167.89 C 171.71 167.50 170.43 168.14 170.04 169.32 C 169.65 170.51 170.29 171.79 171.47 172.18 Z M 171.82 172.13 L 172.60 172.70 C 173.59 173.43 174.97 173.22 175.70 172.24 C 176.43 171.25 176.22 169.86 175.23 169.14 L 174.46 168.57 C 173.47 167.84 172.08 168.05 171.36 169.03 C 170.63 170.02 170.84 171.41 171.82 172.13 Z M 172.18 172.18 L 172.72 172.93 C 173.41 173.89 174.75 174.10 175.71 173.41 C 176.67 172.71 176.89 171.37 176.20 170.41 L 175.65 169.67 C 174.96 168.71 173.62 168.49 172.66 169.18 C 171.70 169.88 171.48 171.22 172.18 172.18 Z M 172.63 172.58 L 173.08 173.48 C 173.58 174.49 174.81 174.90 175.81 174.40 C 176.82 173.90 177.23 172.68 176.73 171.67 L 176.28 170.76 C 175.78 169.76 174.56 169.34 173.55 169.84 C 172.54 170.35 172.13 171.57 172.63 172.58 Z M 173.12 173.32 L 173.49 174.20 C 173.90 175.19 175.04 175.65 176.02 175.24 C 177.01 174.82 177.47 173.69 177.06 172.70 L 176.69 171.83 C 176.28 170.84 175.14 170.38 174.16 170.79 C 173.17 171.21 172.71 172.34 173.12 173.32 Z"
      fill="black"
      fill-rule="nonzero" /></svg>