<svg xmlns="http://www.w3.org/2000/svg" width="300" height="300" viewBox="0 0 300 300">
<path d="M 129.75 161.16 L 129.02 162.17 C 128.46 162.93 128.63 163.99 129.39 164.54 C 130.15 165.10 131.21 164.93 131.76 164.17 L 132.50 163.16 C 133.05 162.40 132.88 161.34 132.12 160.79 C 131.37 160.23 130.30 160.40 129.75 161.16 Z M 129.82 161.51 L 129.51 161.61 C 128.59 161.92 128.10 162.92 128.41 163.84 C 128.73 164.76 129.73 165.26 130.65 164.94 L 130.96 164.84 C 131.88 164.52 132.37 163.52 132.05 162.60 C 131.74 161.68 130.74 161.19 129.82 161.51 Z M 131.79 163.84 L 132.13 162.80 C 132.44 161.85 131.93 160.83 130.98 160.52 C 130.03 160.21 129.02 160.73 128.71 161.68 L 128.37 162.72 C 128.06 163.66 128.57 164.68 129.52 164.99 C 130.47 165.30 131.48 164.78 131.79 163.84 Z M 132.02 163.14 L 132.48 162.32 C 132.98 161.43 132.67 160.31 131.78 159.81 C 130.90 159.31 129.78 159.63 129.28 160.51 L 128.82 161.33 C 128.32 162.22 128.63 163.34 129.52 163.84 C 130.40 164.34 131.52 164.02 132.02 163.14 Z M 132.38 162.56 L 132.94 161.81 C 133.57 160.99 133.41 159.81 132.59 159.18 C 131.76 158.55 130.58 158.71 129.95 159.53 L 129.38 160.28 C 128.75 161.10 128.91 162.28 129.74 162.91 C 130.57 163.54 131.75 163.38 132.38 162.56 Z M 132.85 161.99 L 133.64 161.14 C 134.37 160.37 134.32 159.15 133.55 158.42 C 132.77 157.70 131.55 157.74 130.82 158.52 L 130.04 159.36 C 129.31 160.14 129.36 161.36 130.13 162.08 C 130.91 162.81 132.13 162.76 132.85 161.99 Z M 133.58 161.25 L 134.29 160.57 C 135.07 159.82 135.10 158.59 134.36 157.80 C 133.61 157.02 132.37 156.99 131.59 157.74 L 130.88 158.42 C 130.10 159.16 130.07 160.40 130.82 161.18 C 131.56 161.96 132.80 161.99 133.58 161.25 Z M 134.26 160.61 L 134.99 159.96 C 135.79 159.23 135.86 157.99 135.13 157.18 C 134.40 156.37 133.16 156.31 132.35 157.04 L 131.62 157.69 C 130.82 158.42 130.75 159.67 131.48 160.47 C 132.21 161.28 133.45 161.34 134.26 160.61 Z M 134.97 159.99 L 135.75 159.31 C 136.57 158.59 136.65 157.34 135.93 156.51 C 135.21 155.69 133.96 155.61 133.14 156.33 L 132.36 157.01 C 131.54 157.73 131.46 158.98 132.18 159.80 C 132.90 160.62 134.15 160.71 134.97 159.99 Z M 135.74 159.32 L 136.54 158.64 C 137.37 157.92 137.46 156.67 136.75 155.84 C 136.03 155.00 134.78 154.91 133.94 155.63 L 133.15 156.31 C 132.32 157.03 132.22 158.28 132.94 159.11 C 133.66 159.95 134.91 160.04 135.74 159.32 Z M 136.54 158.65 L 137.32 157.98 C 138.15 157.27 138.25 156.01 137.53 155.17 C 136.82 154.33 135.56 154.23 134.72 154.95 L 133.94 155.62 C 133.10 156.33 133.01 157.59 133.72 158.43 C 134.44 159.27 135.70 159.37 136.54 158.65 Z M 137.32 157.98 L 138.19 157.24 C 139.02 156.52 139.12 155.26 138.40 154.42 C 137.68 153.58 136.41 153.49 135.58 154.21 L 134.71 154.95 C 133.87 155.67 133.78 156.93 134.50 157.77 C 135.22 158.61 136.49 158.71 137.32 157.98 Z M 138.20 157.23 L 138.99 156.55 C 139.82 155.82 139.91 154.56 139.18 153.72 C 138.46 152.89 137.19 152.80 136.36 153.52 L 135.57 154.21 C 134.73 154.94 134.65 156.20 135.37 157.04 C 136.10 157.87 137.36 157.96 138.20 157.23 Z M 139.00 156.53 L 139.72 155.90 C 140.54 155.17 140.62 153.90 139.89 153.08 C 139.16 152.25 137.89 152.17 137.07 152.90 L 136.35 153.54 C 135.52 154.27 135.44 155.53 136.17 156.36 C 136.91 157.19 138.17 157.27 139.00 156.53 Z M 139.73 155.89 L 140.37 155.31 C 141.19 154.56 141.26 153.30 140.52 152.48 C 139.78 151.66 138.51 151.60 137.69 152.34 L 137.05 152.92 C 136.23 153.66 136.16 154.92 136.91 155.74 C 137.65 156.56 138.91 156.63 139.73 155.89 Z M 140.40 155.28 L 141.17 154.56 C 141.97 153.81 142.01 152.54 141.26 151.73 C 140.50 150.93 139.24 150.89 138.43 151.64 L 137.66 152.36 C 136.86 153.12 136.82 154.38 137.57 155.19 C 138.33 156.00 139.59 156.04 140.40 155.28 Z M 141.20 154.53 L 141.90 153.85 C 142.68 153.08 142.70 151.81 141.92 151.02 C 141.15 150.23 139.88 150.22 139.09 150.99 L 138.40 151.67 C 137.61 152.45 137.59 153.71 138.37 154.50 C 139.14 155.29 140.41 155.31 141.20 154.53 Z M 141.92 153.83 L 142.60 153.14 C 143.37 152.35 143.36 151.09 142.58 150.31 C 141.79 149.53 140.52 149.54 139.74 150.33 L 139.07 151.02 C 138.29 151.80 138.30 153.07 139.09 153.85 C 139.88 154.62 141.14 154.61 141.92 153.83 Z M 142.61 153.13 L 143.29 152.43 C 144.05 151.63 144.03 150.36 143.24 149.60 C 142.44 148.83 141.17 148.85 140.40 149.65 L 139.73 150.35 C 138.96 151.14 138.98 152.41 139.78 153.18 C 140.57 153.94 141.84 153.92 142.61 153.13 Z M 143.30 152.41 L 143.99 151.68 C 144.75 150.88 144.72 149.61 143.92 148.85 C 143.11 148.09 141.85 148.12 141.09 148.93 L 140.39 149.66 C 139.63 150.46 139.66 151.73 140.47 152.49 C 141.27 153.25 142.54 153.22 143.30 152.41 Z M 144.01 151.66 L 144.70 150.92 C 145.45 150.10 145.41 148.84 144.59 148.09 C 143.78 147.33 142.52 147.38 141.76 148.19 L 141.07 148.94 C 140.32 149.75 140.37 151.02 141.18 151.77 C 141.99 152.52 143.26 152.48 144.01 151.66 Z M 144.72 150.90 L 145.39 150.16 C 146.13 149.34 146.07 148.07 145.24 147.33 C 144.42 146.59 143.16 146.65 142.42 147.47 L 141.75 148.21 C 141.01 149.03 141.07 150.30 141.89 151.04 C 142.71 151.78 143.98 151.72 144.72 150.90 Z M 145.40 150.14 L 146.06 149.39 C 146.79 148.56 146.72 147.30 145.89 146.57 C 145.06 145.83 143.79 145.91 143.06 146.74 L 142.40 147.49 C 141.67 148.32 141.75 149.58 142.58 150.32 C 143.41 151.05 144.67 150.97 145.40 150.14 Z M 146.07 149.38 L 146.73 148.62 C 147.46 147.79 147.37 146.52 146.53 145.80 C 145.70 145.07 144.43 145.16 143.71 146.00 L 143.05 146.76 C 142.32 147.59 142.41 148.86 143.25 149.58 C 144.08 150.31 145.35 150.22 146.07 149.38 Z M 146.74 148.61 L 147.38 147.86 C 148.10 147.02 148.00 145.76 147.16 145.04 C 146.32 144.32 145.06 144.42 144.34 145.26 L 143.70 146.01 C 142.98 146.85 143.08 148.11 143.92 148.83 C 144.76 149.55 146.02 149.45 146.74 148.61 Z M 147.39 147.86 L 148.04 147.09 C 148.75 146.25 148.65 144.98 147.80 144.27 C 146.96 143.55 145.69 143.66 144.98 144.50 L 144.33 145.26 C 143.62 146.11 143.72 147.37 144.57 148.09 C 145.41 148.80 146.67 148.70 147.39 147.86 Z M 148.04 147.08 L 148.69 146.31 C 149.40 145.46 149.29 144.20 148.44 143.49 C 147.60 142.78 146.33 142.89 145.62 143.74 L 144.97 144.51 C 144.26 145.36 144.37 146.62 145.22 147.33 C 146.07 148.04 147.33 147.93 148.04 147.08 Z M 148.70 146.30 L 149.34 145.53 C 150.04 144.68 149.93 143.41 149.07 142.71 C 148.22 142.00 146.96 142.12 146.25 142.97 L 145.61 143.74 C 144.91 144.60 145.03 145.86 145.88 146.57 C 146.73 147.27 147.99 147.15 148.70 146.30 Z M 149.34 145.52 L 149.98 144.75 C 150.68 143.90 150.55 142.63 149.70 141.93 C 148.84 141.23 147.58 141.35 146.88 142.21 L 146.25 142.98 C 145.54 143.84 145.67 145.10 146.52 145.80 C 147.38 146.50 148.64 146.38 149.34 145.52 Z M 149.98 144.75 L 150.61 143.97 C 151.31 143.11 151.19 141.85 150.33 141.15 C 149.47 140.45 148.21 140.58 147.51 141.44 L 146.88 142.21 C 146.18 143.07 146.30 144.33 147.16 145.03 C 148.02 145.73 149.28 145.60 149.98 144.75 Z M 150.62 143.97 L 151.25 143.19 C 151.95 142.33 151.82 141.07 150.96 140.37 C 150.10 139.67 148.84 139.80 148.14 140.66 L 147.51 141.44 C 146.81 142.30 146.94 143.56 147.80 144.26 C 148.66 144.96 149.92 144.83 150.62 143.97 Z M 151.25 143.19 L 151.89 142.40 C 152.59 141.54 152.45 140.28 151.60 139.58 C 150.74 138.89 149.47 139.02 148.78 139.88 L 148.14 140.66 C 147.44 141.52 147.58 142.78 148.43 143.48 C 149.29 144.18 150.56 144.04 151.25 143.19 Z M 151.89 142.40 L 152.52 141.62 C 153.22 140.76 153.08 139.50 152.22 138.80 C 151.36 138.11 150.10 138.24 149.40 139.10 L 148.77 139.88 C 148.08 140.74 148.21 142.01 149.07 142.70 C 149.94 143.40 151.20 143.26 151.89 142.40 Z M 152.53 141.61 L 153.14 140.84 C 153.84 139.97 153.69 138.71 152.83 138.02 C 151.96 137.33 150.70 137.47 150.01 138.34 L 149.39 139.11 C 148.70 139.98 148.84 141.24 149.71 141.93 C 150.58 142.62 151.84 142.48 152.53 141.61 Z M 153.15 140.83 L 153.77 140.04 C 154.46 139.17 154.31 137.91 153.44 137.23 C 152.57 136.54 151.31 136.69 150.62 137.56 L 150.00 138.35 C 149.32 139.22 149.47 140.48 150.34 141.16 C 151.21 141.85 152.47 141.70 153.15 140.83 Z M 153.78 140.04 L 154.39 139.25 C 155.07 138.38 154.91 137.12 154.04 136.44 C 153.17 135.76 151.91 135.91 151.23 136.79 L 150.62 137.57 C 149.93 138.44 150.09 139.70 150.96 140.38 C 151.83 141.07 153.09 140.91 153.78 140.04 Z M 154.39 139.25 L 155.01 138.46 C 155.69 137.58 155.53 136.33 154.66 135.64 C 153.78 134.96 152.52 135.12 151.84 135.99 L 151.23 136.79 C 150.55 137.66 150.70 138.92 151.58 139.60 C 152.45 140.28 153.71 140.13 154.39 139.25 Z M 155.01 138.46 L 155.63 137.66 C 156.31 136.78 156.16 135.52 155.28 134.84 C 154.41 134.16 153.15 134.32 152.47 135.19 L 151.84 135.99 C 151.16 136.87 151.32 138.13 152.19 138.81 C 153.07 139.49 154.33 139.33 155.01 138.46 Z M 155.64 137.65 L 156.26 136.85 C 156.93 135.97 156.77 134.71 155.90 134.04 C 155.02 133.36 153.76 133.52 153.08 134.40 L 152.46 135.20 C 151.79 136.07 151.95 137.33 152.82 138.01 C 153.70 138.69 154.96 138.53 155.64 137.65 Z M 156.27 136.83 L 156.86 136.05 C 157.53 135.17 157.36 133.91 156.47 133.24 C 155.59 132.58 154.34 132.75 153.67 133.63 L 153.07 134.41 C 152.40 135.29 152.58 136.55 153.46 137.22 C 154.34 137.89 155.60 137.72 156.27 136.83 Z M 156.88 136.03 L 157.50 135.19 C 158.15 134.30 157.96 133.04 157.07 132.39 C 156.17 131.73 154.92 131.92 154.26 132.81 L 153.65 133.65 C 152.99 134.55 153.18 135.80 154.08 136.46 C 154.97 137.11 156.22 136.92 156.88 136.03 Z M 157.51 135.17 L 158.09 134.36 C 158.74 133.45 158.53 132.20 157.63 131.56 C 156.73 130.91 155.48 131.12 154.83 132.02 L 154.25 132.83 C 153.61 133.73 153.81 134.99 154.71 135.63 C 155.61 136.28 156.87 136.07 157.51 135.17 Z M 158.09 134.35 L 158.65 133.58 C 159.29 132.68 159.08 131.43 158.18 130.79 C 157.28 130.14 156.03 130.35 155.38 131.25 L 154.83 132.02 C 154.19 132.92 154.40 134.17 155.30 134.82 C 156.20 135.46 157.45 135.26 158.09 134.35 Z M 158.63 133.60 L 159.23 132.78 C 159.89 131.89 159.70 130.63 158.80 129.98 C 157.91 129.32 156.66 129.51 156.00 130.41 L 155.40 131.23 C 154.74 132.12 154.94 133.38 155.83 134.03 C 156.72 134.69 157.98 134.49 158.63 133.60 Z M 159.22 132.80 L 159.81 132.01 C 160.48 131.13 160.30 129.87 159.42 129.20 C 158.53 128.54 157.28 128.71 156.61 129.60 L 156.02 130.39 C 155.35 131.27 155.53 132.53 156.41 133.19 C 157.30 133.86 158.55 133.68 159.22 132.80 Z M 159.80 132.03 L 160.37 131.29 C 161.05 130.41 160.88 129.15 160.00 128.48 C 159.13 127.80 157.87 127.97 157.19 128.84 L 156.62 129.58 C 155.95 130.46 156.11 131.72 156.99 132.39 C 157.87 133.07 159.13 132.90 159.80 132.03 Z M 160.36 131.31 L 160.95 130.55 C 161.64 129.68 161.49 128.42 160.62 127.73 C 159.75 127.05 158.49 127.20 157.80 128.07 L 157.21 128.82 C 156.52 129.69 156.67 130.95 157.54 131.64 C 158.41 132.32 159.67 132.18 160.36 131.31 Z M 160.94 130.57 L 161.62 129.73 C 162.31 128.87 162.18 127.61 161.32 126.91 C 160.46 126.21 159.20 126.35 158.50 127.21 L 157.82 128.05 C 157.12 128.91 157.26 130.17 158.12 130.87 C 158.98 131.56 160.24 131.43 160.94 130.57 Z M 161.60 129.75 L 162.21 129.02 C 162.91 128.17 162.80 126.90 161.94 126.20 C 161.09 125.49 159.82 125.61 159.12 126.46 L 158.51 127.19 C 157.81 128.04 157.93 129.31 158.78 130.01 C 159.63 130.72 160.90 130.60 161.60 129.75 Z M 162.20 129.04 L 162.85 128.27 C 163.57 127.42 163.47 126.15 162.62 125.43 C 161.77 124.71 160.50 124.82 159.78 125.67 L 159.13 126.44 C 158.41 127.29 158.51 128.56 159.36 129.28 C 160.21 129.99 161.48 129.89 162.20 129.04 Z M 162.84 128.29 L 163.52 127.50 C 164.25 126.66 164.16 125.39 163.32 124.66 C 162.48 123.93 161.21 124.02 160.48 124.86 L 159.80 125.64 C 159.07 126.48 159.16 127.76 160.00 128.49 C 160.84 129.22 162.11 129.13 162.84 128.29 Z M 163.50 127.53 L 164.21 126.74 C 164.96 125.91 164.89 124.63 164.06 123.89 C 163.23 123.14 161.95 123.21 161.21 124.04 L 160.50 124.83 C 159.75 125.66 159.82 126.94 160.65 127.68 C 161.48 128.43 162.76 128.36 163.50 127.53 Z M 164.19 126.77 L 164.89 126.01 C 165.66 125.20 165.61 123.92 164.80 123.16 C 163.98 122.40 162.70 122.44 161.94 123.25 L 161.24 124.01 C 160.47 124.83 160.52 126.10 161.33 126.87 C 162.15 127.63 163.42 127.58 164.19 126.77 Z M 164.87 126.04 L 165.54 125.35 C 166.32 124.55 166.30 123.27 165.50 122.49 C 164.70 121.71 163.43 121.73 162.65 122.53 L 161.97 123.22 C 161.19 124.02 161.21 125.30 162.01 126.08 C 162.81 126.86 164.09 126.84 164.87 126.04 Z M 165.51 125.38 L 166.20 124.70 C 167.00 123.92 167.01 122.64 166.23 121.84 C 165.45 121.05 164.17 121.04 163.37 121.82 L 162.68 122.50 C 161.88 123.28 161.87 124.56 162.65 125.36 C 163.43 126.15 164.71 126.16 165.51 125.38 Z M 166.17 124.74 L 166.91 124.05 C 167.72 123.28 167.76 122.00 167.00 121.18 C 166.23 120.37 164.95 120.33 164.13 121.09 L 163.40 121.78 C 162.58 122.55 162.54 123.83 163.31 124.65 C 164.07 125.46 165.36 125.50 166.17 124.74 Z M 166.89 124.07 L 167.61 123.41 C 168.44 122.65 168.49 121.36 167.73 120.54 C 166.97 119.71 165.69 119.66 164.86 120.42 L 164.14 121.08 C 163.32 121.84 163.26 123.12 164.02 123.95 C 164.78 124.77 166.07 124.83 166.89 124.07 Z M 167.62 123.41 L 168.34 122.74 C 169.16 121.98 169.21 120.69 168.44 119.86 C 167.68 119.04 166.39 118.99 165.56 119.76 L 164.85 120.42 C 164.02 121.19 163.97 122.48 164.74 123.30 C 165.51 124.13 166.80 124.17 167.62 123.41 Z M 168.37 122.73 L 169.09 122.04 C 169.91 121.26 169.94 119.96 169.15 119.14 C 168.37 118.32 167.07 118.29 166.25 119.08 L 165.53 119.77 C 164.71 120.55 164.68 121.85 165.47 122.67 C 166.25 123.49 167.55 123.52 168.37 122.73 Z M 169.13 122.02 L 169.87 121.28 C 170.68 120.47 170.68 119.17 169.87 118.36 C 169.06 117.55 167.76 117.55 166.95 118.36 L 166.21 119.10 C 165.41 119.90 165.40 121.21 166.21 122.02 C 167.02 122.83 168.33 122.83 169.13 122.02 Z M 169.86 121.30 L 170.73 120.45 C 171.55 119.64 171.56 118.33 170.76 117.51 C 169.96 116.70 168.64 116.68 167.82 117.49 L 166.96 118.34 C 166.14 119.14 166.13 120.46 166.93 121.27 C 167.73 122.09 169.05 122.10 169.86 121.30 Z M 170.19 120.84 L 170.83 120.52 C 171.87 120.02 172.29 118.77 171.79 117.74 C 171.29 116.71 170.04 116.28 169.01 116.78 L 168.37 117.10 C 167.33 117.60 166.90 118.85 167.41 119.88 C 167.91 120.91 169.16 121.34 170.19 120.84 Z M 168.02 119.52 L 168.31 120.14 C 168.79 121.19 170.02 121.65 171.07 121.17 C 172.12 120.69 172.58 119.45 172.10 118.41 L 171.82 117.79 C 171.34 116.74 170.10 116.28 169.05 116.76 C 168.01 117.24 167.55 118.47 168.02 119.52 Z M 168.12 119.36 L 168.17 120.55 C 168.22 121.70 169.19 122.60 170.34 122.55 C 171.49 122.50 172.38 121.53 172.33 120.38 L 172.29 119.19 C 172.24 118.04 171.27 117.14 170.12 117.19 C 168.97 117.24 168.07 118.21 168.12 119.36 Z M 168.17 120.47 L 168.17 121.38 C 168.17 122.53 169.10 123.46 170.25 123.46 C 171.40 123.46 172.34 122.53 172.34 121.38 L 172.34 120.47 C 172.34 119.32 171.40 118.38 170.25 118.38 C 169.10 118.38 168.17 119.32 168.17 120.47 Z M 168.17 121.38 L 168.17 122.31 C 168.17 123.46 169.10 124.39 170.25 124.39 C 171.40 124.39 172.34 123.46 172.34 122.31 L 172.34 121.38 C 172.34 120.23 171.40 119.30 170.25 119.30 C 169.10 119.30 168.17 120.23 168.17 121.38 Z M 168.17 122.31 L 168.17 123.42 C 168.17 124.57 169.10 125.51 170.25 125.51 C 171.40 125.51 172.34 124.57 172.34 123.42 L 172.34 122.31 C 172.34 121.16 171.40 120.22 170.25 120.22 C 169.10 120.22 168.17 121.16 168.17 122.31 Z M 168.17 123.42 L 168.17 124.46 C 168.17 125.61 169.10 126.55 170.25 126.55 C 171.40 126.55 172.34 125.61 172.34 124.46 L 172.34 123.42 C 172.34 122.27 171.40 121.34 170.25 121.34 C 169.10 121.34 168.17 122.27 168.17 123.42 Z M 168.16 124.46 L 168.16 125.48 C 168.16 126.64 169.10 127.57 170.25 127.57 C 171.41 127.57 172.34 126.64 172.34 125.48 L 172.34 124.46 C 172.34 123.31 171.41 122.37 170.25 122.37 C 169.10 122.37 168.16 123.31 168.16 124.46 Z M 168.16 125.48 L 168.16 126.54 C 168.16 127.70 169.09 128.63 170.25 128.63 C 171.41 128.63 172.35 127.70 172.35 126.54 L 172.35 125.48 C 172.35 124.32 171.41 123.38 170.25 123.38 C 169.09 123.38 168.16 124.32 168.16 125.48 Z M 168.15 126.54 L 168.15 127.57 C 168.15 128.73 169.09 129.67 170.25 129.67 C 171.41 129.67 172.35 128.73 172.35 127.57 L 172.35 126.54 C 172.35 125.38 171.41 124.44 170.25 124.44 C 169.09 124.44 168.15 125.38 168.15 126.54 Z M 168.14 127.57 L 168.14 128.51 C 168.14 129.67 169.09 130.61 170.25 130.61 C 171.42 130.61 172.36 129.67 172.36 128.51 L 172.36 127.57 C 172.36 126.40 171.42 125.46 170.25 125.46 C 169.09 125.46 168.14 126.40 168.14 127.57 Z M 168.14 128.51 L 168.14 129.71 C 168.14 130.87 169.09 131.82 170.25 131.82 C 171.42 131.82 172.36 130.87 172.36 129.71 L 172.36 128.51 C 172.36 127.34 171.42 126.40 170.25 126.40 C 169.09 126.40 168.14 127.34 168.14 128.51 Z M 168.14 129.71 L 168.14 130.66 C 168.14 131.83 169.09 132.77 170.25 132.77 C 171.42 132.77 172.36 131.83 172.36 130.66 L 172.36 129.71 C 172.36 128.54 171.42 127.60 170.25 127.60 C 169.09 127.60 168.14 128.54 168.14 129.71 Z M 168.14 130.66 L 168.14 131.51 C 168.14 132.67 169.09 133.62 170.25 133.62 C 171.42 133.62 172.36 132.67 172.36 131.51 L 172.36 130.66 C 172.36 129.50 171.42 128.55 170.25 128.55 C 169.09 128.55 168.14 129.50 168.14 130.66 Z M 168.14 131.51 L 168.14 132.46 C 168.14 133.62 169.09 134.57 170.25 134.57 C 171.42 134.57 172.36 133.62 172.36 132.46 L 172.36 131.51 C 172.36 130.34 171.42 129.40 170.25 129.40 C 169.09 129.40 168.14 130.34 168.14 131.51 Z M 168.14 132.46 L 168.14 133.46 C 168.14 134.63 169.09 135.57 170.25 135.57 C 171.42 135.57 172.36 134.63 172.36 133.46 L 172.36 132.46 C 172.36 131.29 171.42 130.35 170.25 130.35 C 169.09 130.35 168.14 131.29 168.14 132.46 Z M 168.14 133.46 L 168.14 134.49 C 168.14 135.66 169.09 136.60 170.25 136.60 C 171.42 136.60 172.36 135.66 172.36 134.49 L 172.36 133.46 C 172.36 132.30 171.42 131.35 170.25 131.35 C 169.09 131.35 168.14 132.30 168.14 133.46 Z M 168.14 134.49 L 168.14 135.47 C 168.14 136.64 169.09 137.59 170.25 137.59 C 171.42 137.59 172.36 136.64 172.36 135.47 L 172.36 134.49 C 172.36 133.32 171.42 132.38 170.25 132.38 C 169.09 132.38 168.14 133.32 168.14 134.49 Z M 168.14 135.47 L 168.14 136.49 C 168.14 137.65 169.08 138.60 170.25 138.60 C 171.42 138.60 172.37 137.65 172.37 136.49 L 172.37 135.47 C 172.37 134.31 171.42 133.36 170.25 133.36 C 169.08 133.36 168.14 134.31 168.14 135.47 Z M 168.14 136.49 L 168.14 137.51 C 168.14 138.67 169.08 139.62 170.25 139.62 C 171.42 139.62 172.37 138.67 172.37 137.51 L 172.37 136.49 C 172.37 135.32 171.42 134.37 170.25 134.37 C 169.08 134.37 168.14 135.32 168.14 136.49 Z M 168.14 137.50 L 168.14 138.50 C 168.14 139.67 169.08 140.62 170.25 140.62 C 171.42 140.62 172.36 139.67 172.37 138.51 L 172.37 137.51 C 172.37 136.34 171.42 135.39 170.25 135.39 C 169.09 135.39 168.14 136.34 168.14 137.50 Z M 168.14 138.50 L 168.13 139.50 C 168.13 140.66 169.07 141.61 170.24 141.62 C 171.41 141.62 172.36 140.68 172.36 139.51 L 172.37 138.51 C 172.37 137.35 171.43 136.40 170.26 136.39 C 169.09 136.39 168.14 137.33 168.14 138.50 Z M 168.13 139.48 L 168.12 140.48 C 168.11 141.65 169.05 142.61 170.22 142.62 C 171.38 142.63 172.34 141.69 172.35 140.53 L 172.36 139.53 C 172.37 138.36 171.44 137.40 170.27 137.39 C 169.10 137.38 168.14 138.31 168.13 139.48 Z M 168.12 140.47 L 168.10 141.46 C 168.08 142.63 169.01 143.60 170.18 143.62 C 171.35 143.64 172.31 142.71 172.33 141.54 L 172.35 140.54 C 172.37 139.38 171.44 138.41 170.28 138.39 C 169.11 138.37 168.14 139.30 168.12 140.47 Z M 168.10 141.45 L 168.08 142.45 C 168.04 143.62 168.96 144.59 170.13 144.62 C 171.30 144.65 172.27 143.73 172.31 142.56 L 172.33 141.56 C 172.37 140.39 171.44 139.42 170.28 139.39 C 169.11 139.36 168.13 140.28 168.10 141.45 Z M 168.08 142.43 L 168.04 143.43 C 168.00 144.60 168.91 145.58 170.08 145.62 C 171.25 145.66 172.23 144.75 172.27 143.58 L 172.31 142.58 C 172.35 141.41 171.44 140.43 170.27 140.39 C 169.10 140.35 168.12 141.26 168.08 142.43 Z M 168.04 143.41 L 167.99 144.42 C 167.94 145.59 168.85 146.58 170.01 146.63 C 171.18 146.68 172.17 145.78 172.22 144.61 L 172.27 143.60 C 172.32 142.43 171.42 141.44 170.25 141.39 C 169.08 141.34 168.09 142.24 168.04 143.41 Z M 167.99 144.40 L 167.94 145.41 C 167.88 146.57 168.78 147.57 169.94 147.63 C 171.11 147.70 172.11 146.80 172.17 145.63 L 172.22 144.63 C 172.29 143.46 171.39 142.46 170.22 142.40 C 169.05 142.34 168.06 143.24 167.99 144.40 Z M 167.94 145.39 L 167.88 146.38 C 167.81 147.55 168.71 148.55 169.87 148.62 C 171.04 148.69 172.05 147.80 172.11 146.63 L 172.17 145.64 C 172.24 144.47 171.35 143.47 170.18 143.40 C 169.01 143.33 168.01 144.23 167.94 145.39 Z M 167.88 146.37 L 167.82 147.38 C 167.75 148.55 168.63 149.56 169.80 149.63 C 170.97 149.70 171.98 148.82 172.05 147.65 L 172.11 146.64 C 172.19 145.47 171.30 144.46 170.13 144.39 C 168.96 144.32 167.96 145.21 167.88 146.37 Z M 167.82 147.38 L 167.75 148.38 C 167.68 149.55 168.56 150.56 169.73 150.63 C 170.90 150.71 171.91 149.83 171.99 148.66 L 172.05 147.65 C 172.13 146.48 171.24 145.48 170.07 145.40 C 168.91 145.32 167.90 146.21 167.82 147.38 Z M 167.75 148.37 L 167.69 149.36 C 167.61 150.53 168.49 151.54 169.66 151.62 C 170.83 151.70 171.84 150.81 171.92 149.64 L 171.99 148.66 C 172.07 147.49 171.18 146.48 170.01 146.40 C 168.84 146.32 167.83 147.21 167.75 148.37 Z M 167.69 149.35 L 167.62 150.35 C 167.53 151.52 168.42 152.54 169.59 152.62 C 170.76 152.70 171.77 151.82 171.85 150.65 L 171.92 149.65 C 172.00 148.48 171.12 147.46 169.95 147.38 C 168.78 147.30 167.77 148.18 167.69 149.35 Z M 167.61 150.35 L 167.54 151.35 C 167.46 152.52 168.34 153.54 169.52 153.62 C 170.69 153.70 171.70 152.82 171.78 151.65 L 171.85 150.65 C 171.93 149.48 171.05 148.46 169.88 148.38 C 168.71 148.30 167.70 149.18 167.61 150.35 Z M 167.54 151.35 L 167.47 152.34 C 167.39 153.51 168.28 154.53 169.45 154.61 C 170.62 154.69 171.63 153.80 171.72 152.63 L 171.78 151.65 C 171.87 150.48 170.98 149.46 169.81 149.38 C 168.64 149.30 167.62 150.18 167.54 151.35 Z M 167.47 152.34 L 167.41 153.30 C 167.33 154.47 168.21 155.48 169.39 155.56 C 170.56 155.64 171.57 154.76 171.65 153.59 L 171.72 152.63 C 171.80 151.46 170.91 150.44 169.74 150.36 C 168.57 150.28 167.55 151.17 167.47 152.34 Z M 167.41 153.30 L 167.34 154.28 C 167.26 155.46 168.14 156.47 169.32 156.55 C 170.49 156.63 171.50 155.75 171.59 154.57 L 171.65 153.59 C 171.73 152.41 170.85 151.40 169.68 151.32 C 168.50 151.24 167.49 152.12 167.41 153.30 Z M 167.34 154.28 L 167.26 155.32 C 167.18 156.50 168.06 157.52 169.24 157.60 C 170.41 157.68 171.43 156.80 171.51 155.63 L 171.59 154.58 C 171.67 153.41 170.79 152.39 169.61 152.31 C 168.44 152.22 167.42 153.10 167.34 154.28 Z M 167.26 155.31 L 167.19 156.32 C 167.10 157.49 167.98 158.51 169.15 158.60 C 170.32 158.69 171.35 157.81 171.43 156.64 L 171.51 155.64 C 171.60 154.46 170.72 153.44 169.55 153.35 C 168.38 153.26 167.35 154.14 167.26 155.31 Z M 167.19 156.30 L 167.11 157.32 C 167.01 158.50 167.88 159.53 169.06 159.62 C 170.23 159.72 171.26 158.84 171.35 157.67 L 171.43 156.65 C 171.53 155.48 170.66 154.45 169.48 154.35 C 168.31 154.26 167.28 155.13 167.19 156.30 Z M 167.11 157.31 L 167.02 158.29 C 166.92 159.47 167.78 160.50 168.96 160.60 C 170.13 160.71 171.16 159.84 171.26 158.67 L 171.35 157.68 C 171.45 156.51 170.59 155.48 169.42 155.37 C 168.24 155.27 167.21 156.14 167.11 157.31 Z M 167.02 158.27 L 166.92 159.34 C 166.80 160.51 167.66 161.55 168.83 161.67 C 170.00 161.78 171.05 160.92 171.16 159.75 L 171.26 158.69 C 171.38 157.51 170.52 156.47 169.35 156.36 C 168.18 156.24 167.13 157.10 167.02 158.27 Z M 166.92 159.34 L 166.82 160.33 C 166.71 161.50 167.57 162.54 168.74 162.65 C 169.91 162.76 170.95 161.91 171.07 160.73 L 171.16 159.75 C 171.27 158.58 170.41 157.54 169.24 157.42 C 168.07 157.31 167.03 158.17 166.92 159.34 Z M 166.82 160.38 L 166.75 161.38 C 166.66 162.56 167.55 163.57 168.72 163.66 C 169.90 163.74 170.92 162.86 171.00 161.68 L 171.07 160.68 C 171.15 159.51 170.27 158.49 169.09 158.40 C 167.92 158.32 166.90 159.21 166.82 160.38 Z M 166.75 161.63 L 166.80 162.73 C 166.85 163.91 167.84 164.82 169.02 164.76 C 170.19 164.71 171.10 163.71 171.05 162.54 L 171.00 161.44 C 170.95 160.26 169.95 159.35 168.78 159.40 C 167.60 159.46 166.69 160.45 166.75 161.63 Z M 168.56 164.73 L 168.97 164.80 C 170.13 165.00 171.23 164.23 171.43 163.07 C 171.63 161.92 170.86 160.82 169.70 160.62 L 169.29 160.54 C 168.13 160.34 167.03 161.12 166.83 162.27 C 166.63 163.43 167.40 164.53 168.56 164.73 Z M 170.97 164.06 L 171.70 163.17 C 172.44 162.27 172.32 160.94 171.42 160.19 C 170.52 159.45 169.19 159.57 168.44 160.47 L 167.71 161.36 C 166.96 162.26 167.09 163.59 167.99 164.34 C 168.89 165.08 170.22 164.96 170.97 164.06 Z M 171.77 163.07 L 171.86 162.95 C 172.55 162.01 172.35 160.69 171.41 160.00 C 170.47 159.31 169.15 159.51 168.46 160.45 L 168.37 160.57 C 167.68 161.51 167.88 162.83 168.82 163.52 C 169.76 164.21 171.08 164.01 171.77 163.07 Z"
      fill="black"
      fill-rule="nonzero" /><path d="M 130.29 163.71 L 131.06 164.18 C 132.07 164.80 133.39 164.48 134.01 163.46 C 134.63 162.45 134.31 161.12 133.30 160.51 L 132.53 160.04 C 131.52 159.42 130.19 159.74 129.57 160.76 C 128.96 161.77 129.28 163.09 130.29 163.71 Z M 131.36 164.35 L 132.28 164.73 C 133.39 165.18 134.65 164.65 135.10 163.54 C 135.56 162.43 135.02 161.17 133.92 160.71 L 132.99 160.34 C 131.89 159.89 130.62 160.42 130.17 161.52 C 129.72 162.63 130.25 163.90 131.36 164.35 Z M 132.72 164.87 L 133.75 165.05 C 134.94 165.26 136.07 164.47 136.28 163.28 C 136.49 162.10 135.70 160.97 134.51 160.76 L 133.48 160.57 C 132.29 160.36 131.16 161.15 130.95 162.34 C 130.74 163.52 131.53 164.66 132.72 164.87 Z M 134.04 165.09 L 135.02 165.14 C 136.23 165.19 137.25 164.25 137.30 163.04 C 137.35 161.83 136.41 160.80 135.20 160.75 L 134.22 160.71 C 133.01 160.66 131.99 161.60 131.94 162.81 C 131.89 164.02 132.83 165.04 134.04 165.09 Z M 135.16 165.15 L 136.20 165.13 C 137.42 165.10 138.39 164.09 138.36 162.88 C 138.34 161.66 137.33 160.69 136.11 160.72 L 135.07 160.74 C 133.85 160.77 132.88 161.77 132.91 162.99 C 132.94 164.21 133.94 165.17 135.16 165.15 Z M 136.28 165.13 L 137.30 165.08 C 138.53 165.01 139.46 163.97 139.40 162.75 C 139.33 161.53 138.29 160.59 137.07 160.66 L 136.04 160.71 C 134.82 160.78 133.88 161.82 133.95 163.04 C 134.01 164.26 135.06 165.20 136.28 165.13 Z M 137.33 165.09 L 138.39 165.02 C 139.62 164.94 140.55 163.88 140.47 162.66 C 140.39 161.43 139.33 160.50 138.11 160.58 L 137.04 160.65 C 135.82 160.73 134.89 161.79 134.97 163.01 C 135.05 164.24 136.10 165.16 137.33 165.09 Z M 138.41 165.02 L 139.41 164.95 C 140.64 164.86 141.56 163.80 141.47 162.57 C 141.39 161.35 140.32 160.42 139.10 160.51 L 138.09 160.58 C 136.87 160.66 135.94 161.73 136.03 162.95 C 136.12 164.18 137.18 165.10 138.41 165.02 Z M 139.44 164.95 L 140.37 164.87 C 141.60 164.77 142.51 163.69 142.41 162.47 C 142.31 161.24 141.23 160.33 140.01 160.43 L 139.07 160.51 C 137.85 160.61 136.93 161.69 137.04 162.91 C 137.14 164.14 138.21 165.05 139.44 164.95 Z M 140.41 164.87 L 141.35 164.77 C 142.58 164.65 143.47 163.56 143.35 162.34 C 143.23 161.11 142.14 160.22 140.91 160.34 L 139.97 160.43 C 138.75 160.56 137.85 161.65 137.98 162.87 C 138.10 164.09 139.19 164.99 140.41 164.87 Z M 141.38 164.77 L 142.36 164.66 C 143.58 164.53 144.46 163.42 144.32 162.20 C 144.19 160.98 143.08 160.10 141.86 160.23 L 140.88 160.34 C 139.66 160.48 138.78 161.58 138.92 162.81 C 139.06 164.03 140.16 164.91 141.38 164.77 Z M 142.37 164.66 L 143.39 164.54 C 144.61 164.40 145.48 163.29 145.34 162.07 C 145.19 160.85 144.08 159.97 142.86 160.12 L 141.85 160.24 C 140.63 160.38 139.75 161.49 139.90 162.71 C 140.04 163.93 141.15 164.81 142.37 164.66 Z M 143.39 164.54 L 144.39 164.42 C 145.61 164.28 146.49 163.17 146.34 161.95 C 146.20 160.73 145.09 159.85 143.87 160.00 L 142.86 160.12 C 141.64 160.26 140.77 161.37 140.91 162.59 C 141.05 163.81 142.16 164.69 143.39 164.54 Z M 144.39 164.42 L 145.37 164.31 C 146.59 164.17 147.46 163.06 147.32 161.83 C 147.18 160.61 146.07 159.74 144.85 159.88 L 143.87 160.00 C 142.65 160.14 141.77 161.25 141.91 162.47 C 142.06 163.69 143.17 164.57 144.39 164.42 Z M 145.38 164.31 L 146.37 164.19 C 147.60 164.04 148.47 162.93 148.32 161.70 C 148.17 160.48 147.06 159.61 145.84 159.76 L 144.84 159.88 C 143.61 160.03 142.74 161.14 142.89 162.36 C 143.04 163.59 144.15 164.46 145.38 164.31 Z M 146.39 164.18 L 147.41 164.05 C 148.63 163.89 149.49 162.77 149.33 161.55 C 149.17 160.33 148.05 159.47 146.83 159.63 L 145.82 159.76 C 144.60 159.92 143.73 161.04 143.89 162.26 C 144.05 163.48 145.17 164.34 146.39 164.18 Z M 147.43 164.05 L 148.42 163.91 C 149.63 163.74 150.48 162.61 150.31 161.39 C 150.14 160.17 149.01 159.32 147.79 159.49 L 146.81 159.63 C 145.59 159.81 144.74 160.93 144.91 162.15 C 145.08 163.37 146.21 164.22 147.43 164.05 Z M 148.43 163.91 L 149.42 163.76 C 150.64 163.58 151.48 162.45 151.30 161.23 C 151.12 160.01 149.99 159.17 148.77 159.35 L 147.78 159.50 C 146.56 159.68 145.72 160.81 145.90 162.03 C 146.08 163.25 147.21 164.09 148.43 163.91 Z M 149.42 163.76 L 150.42 163.61 C 151.64 163.43 152.48 162.30 152.29 161.08 C 152.11 159.86 150.98 159.02 149.76 159.20 L 148.77 159.35 C 147.55 159.53 146.71 160.67 146.89 161.88 C 147.07 163.10 148.21 163.94 149.42 163.76 Z M 150.41 163.61 L 151.41 163.47 C 152.63 163.29 153.48 162.16 153.30 160.94 C 153.12 159.72 151.99 158.88 150.77 159.05 L 149.77 159.20 C 148.55 159.38 147.70 160.51 147.88 161.73 C 148.06 162.95 149.19 163.79 150.41 163.61 Z M 151.40 163.47 L 152.42 163.33 C 153.64 163.16 154.49 162.03 154.32 160.81 C 154.14 159.59 153.02 158.74 151.80 158.91 L 150.78 159.05 C 149.56 159.22 148.71 160.35 148.88 161.57 C 149.05 162.79 150.18 163.64 151.40 163.47 Z M 152.41 163.33 L 153.40 163.19 C 154.62 163.02 155.48 161.89 155.31 160.67 C 155.14 159.45 154.01 158.60 152.79 158.77 L 151.80 158.91 C 150.58 159.08 149.72 160.21 149.89 161.43 C 150.07 162.65 151.19 163.50 152.41 163.33 Z M 153.41 163.19 L 154.37 163.06 C 155.59 162.88 156.44 161.75 156.26 160.53 C 156.08 159.31 154.95 158.46 153.73 158.63 L 152.78 158.77 C 151.56 158.95 150.71 160.08 150.88 161.30 C 151.06 162.52 152.19 163.37 153.41 163.19 Z M 154.38 163.06 L 155.42 162.90 C 156.64 162.71 157.48 161.57 157.30 160.35 C 157.11 159.13 155.97 158.29 154.75 158.47 L 153.71 158.63 C 152.49 158.82 151.65 159.96 151.84 161.18 C 152.02 162.40 153.16 163.24 154.38 163.06 Z M 155.43 162.91 L 156.41 162.75 C 157.64 162.57 158.48 161.42 158.29 160.19 C 158.10 158.97 156.96 158.13 155.73 158.32 L 154.74 158.47 C 153.52 158.66 152.68 159.80 152.87 161.03 C 153.06 162.25 154.20 163.09 155.43 162.91 Z M 156.40 162.76 L 157.34 162.63 C 158.57 162.45 159.43 161.30 159.25 160.07 C 159.07 158.84 157.92 157.99 156.69 158.17 L 155.75 158.31 C 154.52 158.49 153.66 159.63 153.84 160.86 C 154.02 162.09 155.17 162.94 156.40 162.76 Z M 157.31 162.64 L 158.33 162.51 C 159.56 162.35 160.44 161.21 160.28 159.98 C 160.12 158.74 158.99 157.86 157.75 158.02 L 156.73 158.16 C 155.49 158.32 154.62 159.45 154.78 160.69 C 154.94 161.92 156.07 162.80 157.31 162.64 Z M 158.30 162.52 L 159.28 162.41 C 160.53 162.26 161.42 161.14 161.28 159.89 C 161.13 158.65 160.01 157.75 158.76 157.90 L 157.78 158.01 C 156.53 158.15 155.64 159.28 155.78 160.53 C 155.93 161.77 157.05 162.66 158.30 162.52 Z M 159.27 162.42 L 160.25 162.31 C 161.50 162.17 162.40 161.04 162.26 159.79 C 162.13 158.54 161.00 157.64 159.75 157.78 L 158.77 157.89 C 157.52 158.03 156.62 159.15 156.76 160.40 C 156.90 161.65 158.02 162.55 159.27 162.42 Z M 160.25 162.31 L 161.25 162.21 C 162.50 162.07 163.41 160.94 163.27 159.69 C 163.14 158.44 162.01 157.53 160.75 157.67 L 159.75 157.77 C 158.50 157.91 157.59 159.04 157.73 160.29 C 157.87 161.54 158.99 162.45 160.25 162.31 Z M 161.21 162.21 L 162.20 162.12 C 163.46 162.00 164.38 160.89 164.26 159.63 C 164.15 158.38 163.03 157.45 161.78 157.57 L 160.79 157.66 C 159.53 157.78 158.61 158.89 158.72 160.15 C 158.84 161.40 159.95 162.33 161.21 162.21 Z M 162.14 162.13 L 163.07 162.07 C 164.33 161.99 165.29 160.90 165.20 159.63 C 165.12 158.37 164.03 157.42 162.77 157.50 L 161.84 157.56 C 160.58 157.64 159.62 158.73 159.70 159.99 C 159.78 161.26 160.87 162.21 162.14 162.13 Z M 163.01 162.08 L 163.98 162.04 C 165.25 161.98 166.23 160.91 166.18 159.65 C 166.13 158.38 165.06 157.40 163.79 157.45 L 162.82 157.49 C 161.56 157.54 160.57 158.61 160.62 159.88 C 160.68 161.15 161.75 162.13 163.01 162.08 Z M 163.96 162.04 L 165.04 162.01 C 166.31 161.97 167.31 160.91 167.27 159.64 C 167.23 158.37 166.17 157.37 164.90 157.41 L 163.82 157.45 C 162.55 157.48 161.55 158.54 161.59 159.81 C 161.63 161.08 162.69 162.08 163.96 162.04 Z M 165.04 162.01 L 165.96 161.99 C 167.23 161.95 168.23 160.89 168.19 159.62 C 168.16 158.35 167.10 157.35 165.83 157.38 L 164.91 157.41 C 163.64 157.44 162.64 158.50 162.67 159.77 C 162.71 161.04 163.77 162.05 165.04 162.01 Z M 165.95 161.99 L 166.95 161.96 C 168.22 161.93 169.23 160.87 169.19 159.60 C 169.16 158.33 168.10 157.32 166.83 157.36 L 165.83 157.38 C 164.56 157.42 163.56 158.47 163.59 159.75 C 163.62 161.02 164.68 162.02 165.95 161.99 Z M 166.95 161.96 L 168.00 161.94 C 169.27 161.90 170.28 160.84 170.24 159.57 C 170.21 158.30 169.15 157.29 167.88 157.33 L 166.83 157.35 C 165.56 157.39 164.55 158.45 164.58 159.72 C 164.62 160.99 165.68 162.00 166.95 161.96 Z M 168.00 161.94 L 168.70 161.92 C 169.98 161.89 170.98 160.83 170.95 159.55 C 170.92 158.28 169.86 157.27 168.58 157.31 L 167.88 157.32 C 166.60 157.36 165.60 158.42 165.63 159.69 C 165.66 160.97 166.72 161.97 168.00 161.94 Z"
      fill="black"
      fill-rule="nonzero" /></svg>