<svg xmlns="http://www.w3.org/2000/svg" width="300" height="300" viewBox="0 0 300 300">
<path d="M 156.45 115.77 L 156.56 114.82 C 156.69 113.82 155.97 112.90 154.97 112.78 C 153.96 112.66 153.05 113.37 152.93 114.38 L 152.81 115.33 C 152.69 116.33 153.40 117.25 154.41 117.37 C 155.41 117.49 156.33 116.78 156.45 115.77 Z M 156.61 114.78 L 156.71 113.77 C 156.80 112.74 156.05 111.82 155.02 111.73 C 153.98 111.63 153.07 112.39 152.97 113.42 L 152.88 114.42 C 152.78 115.46 153.54 116.37 154.57 116.47 C 155.60 116.57 156.52 115.81 156.61 114.78 Z M 156.75 113.69 L 156.80 112.65 C 156.85 111.59 156.03 110.70 154.98 110.65 C 153.93 110.60 153.03 111.41 152.98 112.46 L 152.93 113.50 C 152.88 114.56 153.70 115.45 154.75 115.50 C 155.80 115.55 156.70 114.74 156.75 113.69 Z M 156.81 112.47 L 156.77 111.44 C 156.72 110.38 155.82 109.56 154.76 109.61 C 153.70 109.65 152.88 110.55 152.92 111.61 L 152.97 112.64 C 153.01 113.70 153.91 114.52 154.97 114.48 C 156.03 114.43 156.86 113.53 156.81 112.47 Z M 156.72 111.09 L 156.51 110.15 C 156.27 109.12 155.23 108.47 154.19 108.71 C 153.15 108.95 152.51 109.99 152.75 111.03 L 152.97 111.96 C 153.21 113.00 154.25 113.65 155.28 113.41 C 156.32 113.16 156.97 112.13 156.72 111.09 Z M 156.24 109.53 L 155.69 108.69 C 155.10 107.80 153.90 107.55 153.01 108.14 C 152.12 108.73 151.87 109.92 152.46 110.81 L 153.01 111.65 C 153.60 112.54 154.80 112.79 155.69 112.20 C 156.58 111.62 156.83 110.42 156.24 109.53 Z M 155.15 108.15 L 154.33 107.60 C 153.44 107.01 152.25 107.25 151.65 108.14 C 151.06 109.02 151.30 110.22 152.19 110.81 L 153.00 111.36 C 153.89 111.95 155.09 111.71 155.68 110.82 C 156.27 109.94 156.03 108.74 155.15 108.15 Z M 153.73 107.34 L 152.78 107.10 C 151.75 106.84 150.70 107.47 150.44 108.50 C 150.18 109.53 150.81 110.58 151.84 110.84 L 152.79 111.08 C 153.82 111.34 154.87 110.71 155.13 109.68 C 155.39 108.65 154.76 107.60 153.73 107.34 Z M 152.08 107.06 L 151.11 107.18 C 150.05 107.31 149.30 108.26 149.43 109.32 C 149.56 110.37 150.51 111.12 151.57 110.99 L 152.54 110.87 C 153.59 110.75 154.34 109.79 154.22 108.74 C 154.09 107.69 153.13 106.94 152.08 107.06 Z M 150.34 107.45 L 149.52 107.95 C 148.62 108.50 148.33 109.68 148.88 110.58 C 149.43 111.49 150.61 111.77 151.51 111.22 L 152.33 110.72 C 153.24 110.17 153.52 108.99 152.97 108.09 C 152.42 107.19 151.24 106.90 150.34 107.45 Z M 149.04 108.37 L 148.43 109.11 C 147.76 109.92 147.88 111.13 148.69 111.80 C 149.51 112.47 150.71 112.35 151.38 111.54 L 151.99 110.80 C 152.66 109.99 152.54 108.78 151.73 108.11 C 150.91 107.44 149.71 107.56 149.04 108.37 Z M 148.22 109.43 L 147.73 110.35 C 147.23 111.29 147.59 112.45 148.52 112.94 C 149.46 113.43 150.62 113.08 151.11 112.14 L 151.60 111.22 C 152.09 110.28 151.74 109.12 150.80 108.63 C 149.87 108.14 148.71 108.49 148.22 109.43 Z M 147.61 110.61 L 147.27 111.57 C 146.92 112.57 147.44 113.66 148.43 114.02 C 149.43 114.37 150.53 113.85 150.88 112.85 L 151.22 111.89 C 151.58 110.89 151.06 109.80 150.06 109.44 C 149.06 109.09 147.97 109.61 147.61 110.61 Z M 147.21 111.77 L 146.99 112.72 C 146.74 113.75 147.38 114.78 148.41 115.03 C 149.44 115.27 150.47 114.63 150.72 113.60 L 150.94 112.66 C 151.19 111.62 150.55 110.59 149.52 110.35 C 148.49 110.10 147.45 110.74 147.21 111.77 Z M 146.95 112.86 L 146.80 113.86 C 146.63 114.91 147.35 115.89 148.40 116.06 C 149.44 116.22 150.43 115.50 150.59 114.45 L 150.75 113.46 C 150.91 112.41 150.20 111.43 149.15 111.26 C 148.10 111.10 147.12 111.81 146.95 112.86 Z M 146.78 113.95 L 146.67 114.97 C 146.56 116.03 147.33 116.98 148.38 117.09 C 149.44 117.20 150.39 116.44 150.50 115.38 L 150.61 114.36 C 150.72 113.30 149.95 112.35 148.90 112.24 C 147.84 112.13 146.89 112.90 146.78 113.95 Z M 146.66 115.03 L 146.59 115.98 C 146.51 117.04 147.30 117.97 148.37 118.05 C 149.43 118.13 150.35 117.34 150.43 116.28 L 150.51 115.32 C 150.59 114.26 149.80 113.34 148.73 113.25 C 147.67 113.17 146.75 113.97 146.66 115.03 Z M 146.59 116.02 L 146.53 117.01 C 146.47 118.08 147.29 118.99 148.35 119.04 C 149.42 119.10 150.33 118.29 150.38 117.22 L 150.44 116.23 C 150.50 115.17 149.68 114.26 148.62 114.20 C 147.56 114.14 146.65 114.96 146.59 116.02 Z M 146.53 117.05 L 146.49 118.07 C 146.45 119.14 147.28 120.04 148.35 120.08 C 149.41 120.12 150.31 119.29 150.35 118.22 L 150.39 117.19 C 150.43 116.13 149.60 115.23 148.53 115.19 C 147.47 115.15 146.57 115.98 146.53 117.05 Z M 146.49 118.10 L 146.46 119.15 C 146.44 120.22 147.28 121.10 148.35 121.13 C 149.42 121.15 150.30 120.31 150.33 119.24 L 150.35 118.19 C 150.38 117.13 149.53 116.24 148.46 116.22 C 147.40 116.19 146.51 117.04 146.49 118.10 Z M 146.46 119.18 L 146.45 120.22 C 146.44 121.29 147.29 122.17 148.36 122.18 C 149.43 122.19 150.31 121.34 150.32 120.27 L 150.33 119.22 C 150.34 118.15 149.49 117.28 148.42 117.26 C 147.35 117.25 146.47 118.11 146.46 119.18 Z M 146.44 120.24 L 146.44 121.27 C 146.44 122.34 147.31 123.21 148.38 123.21 C 149.45 123.21 150.32 122.34 150.32 121.27 L 150.32 120.25 C 150.32 119.18 149.46 118.31 148.38 118.31 C 147.31 118.30 146.44 119.17 146.44 120.24 Z M 146.44 121.29 L 146.45 122.26 C 146.46 123.33 147.34 124.19 148.41 124.18 C 149.49 124.17 150.35 123.29 150.34 122.22 L 150.32 121.25 C 150.31 120.18 149.43 119.32 148.36 119.33 C 147.29 119.34 146.43 120.22 146.44 121.29 Z M 146.45 122.29 L 146.47 123.30 C 146.50 124.38 147.40 125.22 148.47 125.19 C 149.55 125.17 150.39 124.27 150.37 123.20 L 150.34 122.19 C 150.31 121.11 149.41 120.26 148.34 120.29 C 147.27 120.32 146.42 121.22 146.45 122.29 Z M 146.47 123.35 L 146.53 124.38 C 146.59 125.45 147.51 126.27 148.58 126.22 C 149.65 126.16 150.48 125.24 150.42 124.17 L 150.37 123.14 C 150.31 122.07 149.39 121.25 148.32 121.30 C 147.24 121.36 146.42 122.28 146.47 123.35 Z M 146.53 124.45 L 146.62 125.38 C 146.71 126.45 147.66 127.25 148.74 127.15 C 149.81 127.05 150.60 126.10 150.50 125.03 L 150.42 124.09 C 150.32 123.02 149.37 122.23 148.30 122.33 C 147.22 122.42 146.43 123.37 146.53 124.45 Z M 146.62 125.45 L 146.74 126.37 C 146.87 127.44 147.85 128.20 148.92 128.06 C 149.99 127.93 150.75 126.95 150.61 125.88 L 150.50 124.96 C 150.36 123.89 149.38 123.13 148.31 123.27 C 147.24 123.40 146.49 124.38 146.62 125.45 Z M 146.75 126.42 L 146.89 127.38 C 147.06 128.45 148.05 129.18 149.12 129.02 C 150.19 128.85 150.92 127.85 150.76 126.79 L 150.61 125.83 C 150.44 124.76 149.45 124.03 148.38 124.19 C 147.31 124.36 146.58 125.35 146.75 126.42 Z M 146.90 127.41 L 147.07 128.44 C 147.25 129.50 148.26 130.22 149.33 130.04 C 150.39 129.86 151.11 128.85 150.93 127.78 L 150.75 126.76 C 150.57 125.69 149.56 124.98 148.50 125.16 C 147.43 125.34 146.72 126.35 146.90 127.41 Z M 147.07 128.45 L 147.24 129.43 C 147.43 130.50 148.45 131.21 149.51 131.02 C 150.58 130.83 151.29 129.81 151.10 128.75 L 150.93 127.77 C 150.74 126.70 149.72 125.99 148.66 126.18 C 147.59 126.37 146.88 127.39 147.07 128.45 Z M 147.24 129.43 L 147.41 130.40 C 147.60 131.47 148.62 132.18 149.69 131.99 C 150.76 131.80 151.47 130.78 151.28 129.71 L 151.11 128.74 C 150.92 127.67 149.89 126.96 148.83 127.15 C 147.76 127.35 147.05 128.37 147.24 129.43 Z M 147.40 130.40 L 147.58 131.40 C 147.77 132.47 148.79 133.19 149.86 133.00 C 150.94 132.81 151.66 131.79 151.47 130.72 L 151.29 129.71 C 151.10 128.64 150.08 127.92 149.00 128.11 C 147.93 128.30 147.21 129.32 147.40 130.40 Z M 147.57 131.39 L 147.74 132.41 C 147.92 133.49 148.95 134.22 150.03 134.04 C 151.11 133.85 151.84 132.83 151.65 131.75 L 151.48 130.73 C 151.29 129.65 150.27 128.92 149.19 129.10 C 148.11 129.29 147.38 130.31 147.57 131.39 Z M 147.73 132.40 L 147.89 133.37 C 148.06 134.45 149.09 135.19 150.17 135.01 C 151.26 134.84 152.00 133.81 151.82 132.73 L 151.66 131.76 C 151.49 130.67 150.46 129.94 149.38 130.11 C 148.29 130.29 147.55 131.31 147.73 132.40 Z M 147.88 133.36 L 148.03 134.34 C 148.20 135.43 149.23 136.18 150.32 136.01 C 151.41 135.83 152.16 134.81 151.98 133.72 L 151.83 132.74 C 151.66 131.64 150.63 130.90 149.54 131.07 C 148.45 131.24 147.71 132.27 147.88 133.36 Z M 148.02 134.34 L 148.18 135.34 C 148.35 136.43 149.38 137.18 150.47 137.01 C 151.57 136.84 152.32 135.81 152.15 134.72 L 151.99 133.72 C 151.82 132.62 150.80 131.87 149.70 132.04 C 148.60 132.22 147.85 133.24 148.02 134.34 Z M 148.17 135.34 L 148.33 136.34 C 148.50 137.44 149.53 138.19 150.63 138.02 C 151.73 137.85 152.49 136.82 152.31 135.72 L 152.16 134.71 C 151.98 133.61 150.95 132.86 149.85 133.03 C 148.75 133.21 148.00 134.24 148.17 135.34 Z M 148.32 136.34 L 148.47 137.32 C 148.65 138.42 149.69 139.17 150.79 139.00 C 151.90 138.82 152.65 137.79 152.47 136.68 L 152.32 135.71 C 152.15 134.61 151.11 133.85 150.00 134.03 C 148.90 134.20 148.15 135.24 148.32 136.34 Z M 148.47 137.32 L 148.62 138.30 C 148.80 139.41 149.84 140.17 150.95 139.99 C 152.06 139.82 152.81 138.78 152.64 137.67 L 152.48 136.68 C 152.31 135.57 151.27 134.82 150.16 134.99 C 149.05 135.17 148.29 136.21 148.47 137.32 Z M 148.62 138.30 L 148.77 139.30 C 148.95 140.41 149.99 141.17 151.10 141.00 C 152.21 140.82 152.98 139.78 152.80 138.67 L 152.65 137.67 C 152.47 136.56 151.43 135.80 150.32 135.97 C 149.20 136.14 148.44 137.19 148.62 138.30 Z M 148.76 139.29 L 148.91 140.29 C 149.08 141.41 150.13 142.18 151.25 142.01 C 152.36 141.84 153.13 140.80 152.96 139.68 L 152.81 138.68 C 152.64 137.56 151.60 136.79 150.48 136.96 C 149.36 137.13 148.59 138.17 148.76 139.29 Z M 148.91 140.28 L 149.05 141.27 C 149.22 142.40 150.26 143.17 151.38 143.01 C 152.50 142.85 153.28 141.80 153.12 140.68 L 152.97 139.69 C 152.81 138.57 151.76 137.79 150.64 137.95 C 149.52 138.12 148.74 139.16 148.91 140.28 Z M 149.04 141.26 L 149.18 142.26 C 149.34 143.38 150.38 144.17 151.51 144.01 C 152.64 143.85 153.42 142.81 153.26 141.69 L 153.12 140.69 C 152.97 139.57 151.92 138.78 150.80 138.94 C 149.67 139.10 148.89 140.14 149.04 141.26 Z M 149.18 142.25 L 149.31 143.24 C 149.46 144.37 150.50 145.16 151.63 145.01 C 152.76 144.86 153.56 143.82 153.40 142.69 L 153.27 141.70 C 153.12 140.57 152.08 139.77 150.95 139.92 C 149.82 140.08 149.02 141.12 149.18 142.25 Z M 149.30 143.23 L 149.43 144.21 C 149.58 145.35 150.62 146.15 151.75 146.00 C 152.89 145.86 153.69 144.82 153.54 143.68 L 153.41 142.70 C 153.26 141.56 152.22 140.76 151.09 140.91 C 149.96 141.06 149.15 142.09 149.30 143.23 Z M 149.42 144.20 L 149.55 145.23 C 149.69 146.37 150.73 147.17 151.87 147.03 C 153.01 146.89 153.81 145.85 153.67 144.71 L 153.55 143.69 C 153.40 142.55 152.37 141.75 151.23 141.89 C 150.09 142.03 149.28 143.07 149.42 144.20 Z M 149.54 145.22 L 149.66 146.22 C 149.80 147.36 150.83 148.18 151.98 148.04 C 153.12 147.91 153.93 146.87 153.80 145.73 L 153.68 144.73 C 153.54 143.58 152.51 142.77 151.37 142.90 C 150.23 143.04 149.41 144.07 149.54 145.22 Z M 149.66 146.21 L 149.77 147.19 C 149.90 148.34 150.93 149.16 152.07 149.03 C 153.22 148.91 154.04 147.87 153.91 146.73 L 153.80 145.75 C 153.67 144.60 152.64 143.78 151.50 143.90 C 150.35 144.03 149.53 145.06 149.66 146.21 Z M 149.76 147.18 L 149.86 148.14 C 149.98 149.29 151.01 150.12 152.16 150.00 C 153.30 149.88 154.14 148.85 154.02 147.71 L 153.92 146.75 C 153.80 145.60 152.77 144.76 151.62 144.88 C 150.48 145.00 149.64 146.03 149.76 147.18 Z M 149.85 148.12 L 149.95 149.14 C 150.06 150.29 151.08 151.14 152.24 151.03 C 153.39 150.92 154.23 149.90 154.12 148.74 L 154.03 147.73 C 153.92 146.57 152.89 145.73 151.74 145.84 C 150.59 145.95 149.74 146.97 149.85 148.12 Z M 149.94 149.12 L 150.03 150.12 C 150.12 151.28 151.14 152.13 152.30 152.03 C 153.46 151.94 154.32 150.92 154.22 149.76 L 154.14 148.76 C 154.04 147.60 153.02 146.75 151.86 146.84 C 150.70 146.94 149.84 147.96 149.94 149.12 Z M 150.01 150.10 L 150.09 151.08 C 150.18 152.25 151.20 153.12 152.36 153.03 C 153.52 152.94 154.40 151.92 154.31 150.76 L 154.23 149.78 C 154.14 148.61 153.13 147.74 151.96 147.83 C 150.80 147.92 149.92 148.93 150.01 150.10 Z M 150.08 151.06 L 150.15 152.08 C 150.23 153.25 151.24 154.13 152.41 154.05 C 153.58 153.97 154.47 152.96 154.39 151.79 L 154.32 150.77 C 154.24 149.60 153.22 148.72 152.05 148.80 C 150.88 148.88 150.00 149.89 150.08 151.06 Z M 150.14 152.06 L 150.20 153.11 C 150.27 154.28 151.28 155.18 152.46 155.11 C 153.64 155.04 154.53 154.03 154.46 152.85 L 154.40 151.80 C 154.33 150.63 153.32 149.73 152.14 149.80 C 150.96 149.87 150.06 150.88 150.14 152.06 Z M 150.18 153.09 L 150.24 154.09 C 150.30 155.27 151.31 156.18 152.49 156.12 C 153.68 156.06 154.59 155.05 154.53 153.87 L 154.48 152.87 C 154.42 151.68 153.41 150.77 152.22 150.83 C 151.04 150.89 150.12 151.90 150.18 153.09 Z M 150.22 154.06 L 150.26 154.99 C 150.31 156.19 151.31 157.12 152.50 157.07 C 153.70 157.02 154.62 156.02 154.58 154.82 L 154.54 153.89 C 154.49 152.70 153.49 151.77 152.30 151.82 C 151.10 151.87 150.18 152.87 150.22 154.06 Z M 150.25 154.96 L 150.27 155.96 C 150.30 157.16 151.29 158.11 152.49 158.08 C 153.69 158.05 154.64 157.06 154.61 155.86 L 154.59 154.86 C 154.56 153.66 153.57 152.71 152.37 152.74 C 151.17 152.76 150.22 153.76 150.25 154.96 Z M 150.26 155.93 L 150.26 156.89 C 150.27 158.10 151.26 159.07 152.46 159.06 C 153.67 159.05 154.64 158.07 154.63 156.86 L 154.62 155.89 C 154.62 154.69 153.63 153.72 152.43 153.73 C 151.22 153.74 150.25 154.72 150.26 155.93 Z M 150.25 156.88 L 150.25 157.88 C 150.25 159.09 151.24 160.07 152.45 160.07 C 153.66 160.07 154.65 159.09 154.64 157.87 L 154.64 156.88 C 154.64 155.66 153.66 154.68 152.45 154.68 C 151.23 154.68 150.25 155.67 150.25 156.88 Z M 150.24 157.85 L 150.23 158.83 C 150.22 160.05 151.20 161.05 152.42 161.06 C 153.64 161.08 154.64 160.09 154.65 158.87 L 154.66 157.90 C 154.67 156.67 153.69 155.67 152.47 155.66 C 151.25 155.65 150.25 156.63 150.24 157.85 Z M 150.21 158.77 L 150.17 159.79 C 150.12 161.02 151.08 162.06 152.31 162.11 C 153.54 162.16 154.58 161.20 154.63 159.97 L 154.67 158.94 C 154.72 157.71 153.76 156.67 152.53 156.62 C 151.30 156.58 150.26 157.54 150.21 158.77 Z M 150.16 159.67 L 150.07 160.69 C 149.95 161.93 150.86 163.02 152.10 163.14 C 153.34 163.25 154.43 162.34 154.54 161.10 L 154.64 160.09 C 154.75 158.85 153.84 157.76 152.61 157.64 C 151.37 157.53 150.27 158.44 150.16 159.67 Z M 150.07 160.51 L 149.90 161.52 C 149.68 162.75 150.51 163.93 151.74 164.14 C 152.97 164.36 154.15 163.53 154.36 162.30 L 154.54 161.29 C 154.75 160.06 153.93 158.88 152.70 158.67 C 151.46 158.45 150.29 159.27 150.07 160.51 Z M 149.92 161.32 L 149.66 162.28 C 149.34 163.50 150.06 164.75 151.28 165.08 C 152.50 165.40 153.75 164.68 154.08 163.46 L 154.34 162.50 C 154.66 161.28 153.94 160.03 152.72 159.70 C 151.50 159.38 150.25 160.10 149.92 161.32 Z M 149.70 162.09 L 149.37 163.02 C 148.94 164.22 149.57 165.54 150.77 165.96 C 151.97 166.39 153.29 165.77 153.71 164.57 L 154.04 163.64 C 154.47 162.44 153.85 161.13 152.65 160.70 C 151.45 160.27 150.13 160.90 149.70 162.09 Z M 149.42 162.86 L 149.01 163.80 C 148.49 164.97 149.03 166.34 150.21 166.86 C 151.38 167.37 152.75 166.83 153.26 165.66 L 153.67 164.72 C 154.18 163.55 153.65 162.18 152.47 161.67 C 151.30 161.15 149.93 161.69 149.42 162.86 Z M 149.06 163.66 L 148.59 164.56 C 148.00 165.70 148.45 167.11 149.59 167.71 C 150.74 168.30 152.15 167.85 152.74 166.70 L 153.21 165.80 C 153.80 164.66 153.35 163.25 152.21 162.65 C 151.06 162.06 149.65 162.51 149.06 163.66 Z M 148.66 164.41 L 148.15 165.24 C 147.48 166.35 147.83 167.80 148.94 168.47 C 150.05 169.15 151.49 168.79 152.17 167.69 L 152.67 166.85 C 153.35 165.75 153.00 164.30 151.89 163.62 C 150.78 162.95 149.34 163.30 148.66 164.41 Z M 148.26 165.06 L 147.66 165.88 C 146.88 166.93 147.11 168.41 148.16 169.18 C 149.21 169.96 150.69 169.73 151.46 168.68 L 152.06 167.86 C 152.83 166.81 152.61 165.34 151.56 164.56 C 150.51 163.79 149.03 164.01 148.26 165.06 Z M 147.82 165.67 L 147.15 166.40 C 146.26 167.36 146.32 168.86 147.28 169.74 C 148.24 170.63 149.74 170.57 150.62 169.61 L 151.29 168.89 C 152.18 167.93 152.12 166.43 151.17 165.55 C 150.21 164.66 148.71 164.72 147.82 165.67 Z M 147.35 166.20 L 146.60 166.84 C 145.60 167.69 145.48 169.19 146.34 170.18 C 147.19 171.18 148.68 171.30 149.68 170.45 L 150.43 169.81 C 151.42 168.96 151.54 167.46 150.69 166.47 C 149.84 165.47 148.34 165.35 147.35 166.20 Z M 146.82 166.67 L 145.97 167.24 C 144.88 167.97 144.58 169.44 145.31 170.53 C 146.04 171.62 147.51 171.92 148.61 171.19 L 149.46 170.62 C 150.55 169.89 150.84 168.42 150.12 167.33 C 149.39 166.24 147.91 165.94 146.82 166.67 Z M 146.30 167.05 L 145.40 167.46 C 144.20 168.01 143.68 169.42 144.22 170.61 C 144.77 171.81 146.18 172.33 147.37 171.79 L 148.28 171.37 C 149.47 170.83 149.99 169.42 149.45 168.22 C 148.90 167.03 147.49 166.51 146.30 167.05 Z M 145.95 167.29 L 145.00 167.46 C 143.71 167.70 142.86 168.94 143.10 170.23 C 143.34 171.52 144.58 172.38 145.87 172.14 L 146.82 171.96 C 148.11 171.73 148.96 170.49 148.72 169.20 C 148.49 167.90 147.25 167.05 145.95 167.29 Z M 145.82 167.46 L 144.87 167.30 C 143.57 167.09 142.35 167.96 142.14 169.26 C 141.92 170.55 142.80 171.77 144.09 171.99 L 145.05 172.14 C 146.34 172.36 147.56 171.48 147.78 170.19 C 147.99 168.89 147.12 167.67 145.82 167.46 Z M 145.66 167.59 L 144.80 167.10 C 143.66 166.45 142.22 166.84 141.57 167.98 C 140.92 169.11 141.31 170.56 142.45 171.21 L 143.31 171.70 C 144.44 172.35 145.89 171.95 146.53 170.82 C 147.18 169.68 146.79 168.24 145.66 167.59 Z M 145.25 167.47 L 144.61 166.86 C 143.68 165.96 142.20 165.99 141.30 166.92 C 140.41 167.85 140.43 169.33 141.36 170.23 L 142.00 170.84 C 142.93 171.74 144.41 171.71 145.31 170.78 C 146.21 169.85 146.18 168.36 145.25 167.47 Z M 144.80 167.12 L 144.17 166.32 C 143.38 165.33 141.94 165.16 140.94 165.94 C 139.94 166.73 139.77 168.18 140.56 169.17 L 141.18 169.97 C 141.97 170.97 143.42 171.14 144.41 170.35 C 145.41 169.56 145.58 168.12 144.80 167.12 Z M 144.25 166.50 L 143.62 165.55 C 142.93 164.51 141.53 164.22 140.48 164.91 C 139.44 165.60 139.16 167.01 139.85 168.05 L 140.48 169.00 C 141.17 170.04 142.57 170.32 143.61 169.63 C 144.65 168.95 144.94 167.54 144.25 166.50 Z M 143.62 165.67 L 143.11 164.83 C 142.49 163.78 141.14 163.45 140.10 164.07 C 139.06 164.70 138.72 166.05 139.34 167.09 L 139.85 167.93 C 140.47 168.97 141.82 169.31 142.86 168.68 C 143.91 168.06 144.24 166.71 143.62 165.67 Z M 143.07 164.92 L 142.58 164.04 C 142.00 163.02 140.72 162.66 139.70 163.23 C 138.68 163.80 138.32 165.09 138.89 166.11 L 139.39 166.99 C 139.96 168.01 141.24 168.37 142.26 167.80 C 143.28 167.23 143.64 165.94 143.07 164.92 Z M 142.53 164.13 L 142.05 163.22 C 141.53 162.23 140.30 161.85 139.31 162.37 C 138.32 162.90 137.94 164.12 138.46 165.11 L 138.94 166.02 C 139.46 167.01 140.69 167.39 141.68 166.86 C 142.67 166.34 143.05 165.12 142.53 164.13 Z M 141.99 163.31 L 141.55 162.41 C 141.08 161.45 139.92 161.06 138.95 161.53 C 137.99 162.01 137.60 163.17 138.08 164.13 L 138.52 165.03 C 138.99 165.99 140.15 166.38 141.12 165.91 C 142.08 165.43 142.47 164.27 141.99 163.31 Z M 141.50 162.50 L 141.06 161.55 C 140.64 160.62 139.54 160.21 138.61 160.63 C 137.67 161.06 137.26 162.16 137.69 163.09 L 138.13 164.05 C 138.55 164.98 139.65 165.39 140.59 164.96 C 141.52 164.53 141.93 163.43 141.50 162.50 Z M 141.01 161.63 L 140.61 160.69 C 140.23 159.79 139.19 159.37 138.29 159.75 C 137.39 160.13 136.97 161.17 137.35 162.07 L 137.74 163.01 C 138.13 163.91 139.17 164.33 140.07 163.95 C 140.97 163.57 141.39 162.53 141.01 161.63 Z M 140.55 160.76 L 140.19 159.86 C 139.85 158.99 138.87 158.57 138.00 158.91 C 137.13 159.26 136.71 160.24 137.05 161.11 L 137.41 162.01 C 137.76 162.88 138.74 163.30 139.61 162.96 C 140.47 162.61 140.90 161.63 140.55 160.76 Z M 140.13 159.90 L 139.83 159.14 C 139.51 158.30 138.58 157.89 137.75 158.21 C 136.92 158.53 136.50 159.46 136.82 160.30 L 137.12 161.06 C 137.44 161.90 138.37 162.31 139.20 161.99 C 140.04 161.67 140.45 160.73 140.13 159.90 Z"
      fill="black"
      fill-rule="nonzero" /></svg>