<svg xmlns="http://www.w3.org/2000/svg" width="300" height="300" viewBox="0 0 300 300">
<path d="M 136.15 154.19 L 137.13 154.46 C 138.27 154.77 139.45 154.11 139.76 152.97 C 140.08 151.83 139.41 150.65 138.27 150.34 L 137.29 150.07 C 136.15 149.75 134.97 150.42 134.66 151.56 C 134.34 152.70 135.01 153.88 136.15 154.19 Z M 137.22 154.50 L 138.19 154.72 C 139.35 154.98 140.50 154.26 140.77 153.10 C 141.03 151.94 140.31 150.79 139.15 150.52 L 138.18 150.30 C 137.02 150.04 135.87 150.76 135.60 151.92 C 135.34 153.08 136.06 154.23 137.22 154.50 Z M 138.38 154.76 L 139.37 154.90 C 140.55 155.06 141.64 154.22 141.80 153.04 C 141.96 151.86 141.13 150.77 139.94 150.61 L 138.96 150.48 C 137.77 150.32 136.69 151.15 136.53 152.33 C 136.37 153.52 137.20 154.61 138.38 154.76 Z M 139.57 154.92 L 140.56 154.96 C 141.76 155.01 142.77 154.08 142.82 152.88 C 142.87 151.69 141.94 150.67 140.74 150.62 L 139.75 150.58 C 138.55 150.53 137.54 151.47 137.49 152.66 C 137.44 153.86 138.37 154.87 139.57 154.92 Z M 140.64 154.97 L 141.55 154.97 C 142.75 154.98 143.73 154.01 143.73 152.80 C 143.74 151.60 142.77 150.62 141.56 150.62 L 140.66 150.62 C 139.45 150.61 138.47 151.59 138.47 152.79 C 138.47 153.99 139.44 154.97 140.64 154.97 Z M 141.57 154.98 L 142.40 154.97 C 143.60 154.97 144.57 153.98 144.57 152.78 C 144.56 151.57 143.58 150.60 142.37 150.61 L 141.54 150.61 C 140.34 150.62 139.37 151.60 139.37 152.81 C 139.38 154.01 140.36 154.99 141.57 154.98 Z M 142.43 154.98 L 143.48 154.96 C 144.69 154.93 145.65 153.94 145.63 152.73 C 145.61 151.53 144.61 150.57 143.40 150.59 L 142.35 150.61 C 141.14 150.63 140.18 151.63 140.20 152.83 C 140.22 154.04 141.22 155.00 142.43 154.98 Z M 143.51 154.96 L 144.65 154.92 C 145.85 154.89 146.80 153.88 146.77 152.67 C 146.73 151.46 145.72 150.52 144.51 150.55 L 143.38 150.59 C 142.17 150.62 141.22 151.63 141.26 152.84 C 141.30 154.05 142.30 154.99 143.51 154.96 Z M 144.66 154.92 L 145.59 154.89 C 146.80 154.84 147.74 153.83 147.69 152.62 C 147.65 151.42 146.64 150.47 145.43 150.52 L 144.50 150.55 C 143.29 150.60 142.35 151.61 142.39 152.82 C 142.44 154.03 143.45 154.97 144.66 154.92 Z M 145.60 154.89 L 146.61 154.85 C 147.82 154.80 148.76 153.78 148.71 152.57 C 148.66 151.37 147.64 150.43 146.44 150.48 L 145.42 150.52 C 144.21 150.57 143.28 151.58 143.32 152.79 C 143.37 154.00 144.39 154.94 145.60 154.89 Z M 146.62 154.85 L 147.67 154.80 C 148.88 154.75 149.82 153.73 149.76 152.52 C 149.71 151.32 148.69 150.38 147.49 150.43 L 146.43 150.48 C 145.22 150.53 144.29 151.55 144.34 152.76 C 144.39 153.96 145.41 154.90 146.62 154.85 Z M 147.68 154.80 L 148.73 154.76 C 149.94 154.70 150.87 153.68 150.82 152.47 C 150.76 151.26 149.74 150.33 148.53 150.38 L 147.48 150.43 C 146.27 150.48 145.34 151.51 145.39 152.71 C 145.45 153.92 146.47 154.86 147.68 154.80 Z M 148.73 154.76 L 149.75 154.71 C 150.96 154.65 151.89 153.63 151.84 152.42 C 151.78 151.21 150.76 150.28 149.55 150.34 L 148.53 150.38 C 147.32 150.44 146.39 151.46 146.45 152.67 C 146.50 153.88 147.53 154.81 148.73 154.76 Z M 149.76 154.71 L 150.86 154.66 C 152.07 154.60 153.00 153.57 152.94 152.37 C 152.89 151.16 151.86 150.23 150.65 150.28 L 149.55 150.34 C 148.34 150.39 147.41 151.42 147.47 152.63 C 147.52 153.83 148.55 154.77 149.76 154.71 Z M 150.86 154.66 L 151.88 154.61 C 153.09 154.55 154.02 153.52 153.96 152.31 C 153.90 151.11 152.87 150.17 151.67 150.23 L 150.65 150.28 C 149.44 150.34 148.51 151.37 148.57 152.58 C 148.63 153.78 149.66 154.72 150.86 154.66 Z M 151.88 154.61 L 152.84 154.56 C 154.05 154.50 154.98 153.48 154.92 152.27 C 154.86 151.06 153.83 150.13 152.62 150.19 L 151.67 150.23 C 150.46 150.29 149.53 151.32 149.59 152.53 C 149.64 153.74 150.67 154.67 151.88 154.61 Z M 152.84 154.56 L 153.77 154.52 C 154.98 154.46 155.91 153.43 155.85 152.22 C 155.79 151.02 154.77 150.08 153.56 150.14 L 152.63 150.19 C 151.42 150.24 150.49 151.27 150.54 152.48 C 150.60 153.69 151.63 154.62 152.84 154.56 Z M 153.76 154.52 L 154.69 154.48 C 155.90 154.42 156.83 153.39 156.77 152.19 C 156.72 150.98 155.69 150.04 154.49 150.10 L 153.56 150.14 C 152.35 150.20 151.42 151.22 151.47 152.43 C 151.53 153.64 152.55 154.57 153.76 154.52 Z M 154.69 154.48 L 155.63 154.43 C 156.84 154.38 157.77 153.35 157.72 152.14 C 157.66 150.93 156.64 150.00 155.43 150.05 L 154.49 150.10 C 153.28 150.15 152.34 151.18 152.40 152.39 C 152.45 153.60 153.48 154.53 154.69 154.48 Z M 155.63 154.43 L 156.61 154.39 C 157.82 154.33 158.75 153.30 158.70 152.09 C 158.64 150.88 157.61 149.95 156.40 150.01 L 155.42 150.05 C 154.21 150.11 153.28 151.14 153.34 152.35 C 153.40 153.56 154.42 154.49 155.63 154.43 Z M 156.62 154.38 L 157.65 154.33 C 158.86 154.27 159.79 153.24 159.73 152.03 C 159.66 150.82 158.63 149.89 157.42 149.95 L 156.39 150.01 C 155.18 150.07 154.25 151.10 154.32 152.31 C 154.38 153.52 155.41 154.45 156.62 154.38 Z M 157.67 154.33 L 158.76 154.27 C 159.97 154.19 160.89 153.16 160.82 151.95 C 160.74 150.74 159.71 149.82 158.50 149.89 L 157.41 149.95 C 156.20 150.03 155.28 151.06 155.35 152.27 C 155.42 153.48 156.46 154.40 157.67 154.33 Z M 158.77 154.27 L 159.78 154.20 C 160.99 154.12 161.90 153.08 161.82 151.87 C 161.74 150.66 160.70 149.74 159.49 149.82 L 158.48 149.89 C 157.28 149.97 156.36 151.01 156.44 152.22 C 156.52 153.43 157.56 154.34 158.77 154.27 Z M 159.79 154.20 L 160.83 154.13 C 162.04 154.04 162.95 152.99 162.86 151.78 C 162.77 150.57 161.72 149.66 160.51 149.75 L 159.48 149.82 C 158.27 149.91 157.36 150.96 157.45 152.17 C 157.53 153.38 158.58 154.29 159.79 154.20 Z M 160.84 154.13 L 161.87 154.05 C 163.08 153.96 163.98 152.90 163.89 151.69 C 163.80 150.48 162.74 149.58 161.53 149.67 L 160.50 149.75 C 159.29 149.84 158.39 150.90 158.48 152.11 C 158.57 153.31 159.63 154.22 160.84 154.13 Z M 161.88 154.05 L 162.88 153.97 C 164.09 153.87 164.99 152.81 164.89 151.60 C 164.79 150.39 163.73 149.49 162.52 149.59 L 161.52 149.67 C 160.31 149.77 159.41 150.83 159.51 152.04 C 159.61 153.25 160.67 154.15 161.88 154.05 Z M 162.89 153.97 L 163.83 153.89 C 165.04 153.78 165.94 152.71 165.83 151.50 C 165.72 150.29 164.66 149.40 163.45 149.50 L 162.51 149.58 C 161.30 149.69 160.40 150.76 160.51 151.97 C 160.62 153.18 161.68 154.07 162.89 153.97 Z M 163.85 153.89 L 164.98 153.78 C 166.19 153.67 167.08 152.59 166.96 151.38 C 166.85 150.17 165.77 149.28 164.56 149.39 L 163.43 149.50 C 162.22 149.62 161.33 150.69 161.44 151.90 C 161.56 153.12 162.64 154.01 163.85 153.89 Z M 165.00 153.79 L 166.04 153.68 C 167.26 153.55 168.14 152.46 168.01 151.25 C 167.88 150.03 166.80 149.15 165.58 149.28 L 164.54 149.39 C 163.32 149.51 162.44 150.60 162.57 151.82 C 162.70 153.03 163.78 153.91 165.00 153.79 Z M 166.06 153.68 L 166.97 153.58 C 168.19 153.45 169.07 152.35 168.93 151.13 C 168.80 149.91 167.70 149.03 166.48 149.17 L 165.56 149.27 C 164.35 149.41 163.47 150.51 163.60 151.72 C 163.74 152.94 164.84 153.82 166.06 153.68 Z M 166.98 153.59 L 167.86 153.49 C 169.08 153.35 169.96 152.25 169.82 151.02 C 169.68 149.80 168.58 148.92 167.35 149.06 L 166.47 149.16 C 165.25 149.30 164.37 150.40 164.51 151.63 C 164.65 152.85 165.76 153.73 166.98 153.59 Z M 167.87 153.49 L 168.91 153.37 C 170.13 153.22 171.01 152.11 170.86 150.88 C 170.71 149.66 169.60 148.78 168.37 148.93 L 167.34 149.05 C 166.11 149.20 165.24 150.32 165.39 151.54 C 165.53 152.77 166.65 153.64 167.87 153.49 Z M 169.00 153.36 L 169.96 153.21 C 171.18 153.01 172.01 151.86 171.82 150.64 C 171.62 149.42 170.47 148.58 169.25 148.78 L 168.28 148.94 C 167.06 149.13 166.23 150.28 166.42 151.51 C 166.62 152.73 167.77 153.56 169.00 153.36 Z M 170.15 153.18 L 171.09 152.94 C 172.30 152.64 173.03 151.42 172.73 150.22 C 172.43 149.01 171.21 148.28 170.01 148.58 L 169.06 148.81 C 167.85 149.11 167.12 150.33 167.42 151.54 C 167.72 152.74 168.94 153.48 170.15 153.18 Z M 171.30 152.89 L 172.24 152.56 C 173.41 152.15 174.03 150.86 173.62 149.68 C 173.21 148.51 171.92 147.89 170.75 148.30 L 169.80 148.63 C 168.63 149.04 168.01 150.33 168.42 151.51 C 168.83 152.68 170.12 153.30 171.30 152.89 Z M 172.35 152.52 L 173.27 152.15 C 174.43 151.68 174.98 150.35 174.51 149.20 C 174.03 148.04 172.71 147.48 171.55 147.96 L 170.64 148.33 C 169.48 148.81 168.92 150.13 169.40 151.29 C 169.87 152.44 171.19 153.00 172.35 152.52 Z"
      fill="black"
      fill-rule="nonzero" /></svg>