<svg xmlns="http://www.w3.org/2000/svg" width="300" height="300" viewBox="0 0 300 300">
<path d="M 156.27 117.31 L 155.44 116.93 C 154.46 116.49 153.31 116.92 152.87 117.90 C 152.43 118.87 152.86 120.02 153.84 120.46 L 154.67 120.84 C 155.64 121.28 156.79 120.85 157.23 119.88 C 157.68 118.90 157.25 117.75 156.27 117.31 Z M 155.24 116.84 L 154.28 116.53 C 153.25 116.20 152.15 116.76 151.82 117.78 C 151.49 118.80 152.05 119.90 153.07 120.24 L 154.03 120.55 C 155.06 120.88 156.16 120.32 156.49 119.30 C 156.82 118.28 156.26 117.18 155.24 116.84 Z M 153.99 116.44 L 152.97 116.28 C 151.90 116.10 150.89 116.83 150.72 117.90 C 150.54 118.97 151.26 119.98 152.33 120.15 L 153.35 120.32 C 154.43 120.50 155.44 119.77 155.61 118.70 C 155.79 117.63 155.06 116.62 153.99 116.44 Z M 152.76 116.23 L 151.75 116.18 C 150.65 116.12 149.71 116.96 149.66 118.06 C 149.60 119.15 150.44 120.09 151.54 120.15 L 152.55 120.20 C 153.65 120.26 154.58 119.42 154.64 118.32 C 154.70 117.22 153.86 116.29 152.76 116.23 Z M 151.59 116.14 L 150.55 116.17 C 149.44 116.20 148.56 117.13 148.59 118.25 C 148.62 119.36 149.55 120.24 150.66 120.21 L 151.70 120.18 C 152.81 120.15 153.69 119.22 153.66 118.11 C 153.63 116.99 152.70 116.11 151.59 116.14 Z M 150.37 116.16 L 149.37 116.28 C 148.25 116.41 147.44 117.42 147.57 118.54 C 147.70 119.66 148.72 120.47 149.84 120.34 L 150.84 120.22 C 151.96 120.09 152.77 119.08 152.64 117.96 C 152.51 116.84 151.49 116.03 150.37 116.16 Z M 149.13 116.30 L 148.14 116.54 C 147.03 116.80 146.35 117.91 146.61 119.01 C 146.87 120.12 147.98 120.80 149.08 120.54 L 150.08 120.31 C 151.18 120.05 151.87 118.94 151.61 117.83 C 151.34 116.73 150.24 116.04 149.13 116.30 Z M 147.91 116.60 L 147.00 116.93 C 145.93 117.32 145.38 118.51 145.77 119.58 C 146.16 120.65 147.34 121.20 148.41 120.81 L 149.32 120.48 C 150.39 120.09 150.94 118.91 150.55 117.83 C 150.16 116.76 148.98 116.21 147.91 116.60 Z M 146.86 116.98 L 146.00 117.37 C 144.95 117.83 144.49 119.06 144.95 120.10 C 145.42 121.15 146.65 121.61 147.69 121.15 L 148.55 120.76 C 149.60 120.29 150.06 119.07 149.60 118.02 C 149.13 116.98 147.90 116.51 146.86 116.98 Z M 145.92 117.40 L 145.06 117.82 C 144.03 118.33 143.61 119.58 144.12 120.61 C 144.63 121.64 145.88 122.06 146.91 121.55 L 147.77 121.12 C 148.80 120.61 149.21 119.36 148.70 118.33 C 148.19 117.31 146.95 116.89 145.92 117.40 Z M 144.99 117.85 L 144.08 118.34 C 143.07 118.89 142.69 120.16 143.24 121.17 C 143.79 122.18 145.06 122.56 146.07 122.01 L 146.98 121.52 C 147.99 120.97 148.36 119.70 147.81 118.69 C 147.27 117.68 146.00 117.30 144.99 117.85 Z M 144.01 118.38 L 143.11 118.91 C 142.12 119.49 141.79 120.78 142.37 121.77 C 142.96 122.77 144.24 123.10 145.23 122.51 L 146.14 121.98 C 147.13 121.39 147.46 120.11 146.88 119.12 C 146.29 118.12 145.01 117.79 144.01 118.38 Z M 143.05 118.94 L 142.20 119.48 C 141.22 120.10 140.93 121.39 141.54 122.37 C 142.16 123.35 143.46 123.64 144.44 123.02 L 145.29 122.48 C 146.27 121.86 146.56 120.57 145.95 119.59 C 145.33 118.61 144.03 118.32 143.05 118.94 Z M 142.15 119.50 L 141.30 120.07 C 140.34 120.71 140.08 122.02 140.73 122.98 C 141.37 123.95 142.68 124.21 143.64 123.56 L 144.48 123.00 C 145.45 122.35 145.71 121.05 145.06 120.08 C 144.42 119.12 143.11 118.86 142.15 119.50 Z M 141.26 120.10 L 140.46 120.66 C 139.51 121.33 139.28 122.65 139.95 123.60 C 140.63 124.55 141.94 124.77 142.89 124.10 L 143.69 123.53 C 144.64 122.86 144.86 121.55 144.19 120.60 C 143.52 119.65 142.21 119.42 141.26 120.10 Z M 140.40 120.70 L 139.58 121.32 C 138.65 122.02 138.47 123.34 139.17 124.27 C 139.87 125.20 141.20 125.39 142.13 124.68 L 142.95 124.06 C 143.88 123.36 144.06 122.04 143.36 121.11 C 142.65 120.18 141.33 119.99 140.40 120.70 Z M 139.50 121.37 L 138.75 122.00 C 137.85 122.75 137.73 124.08 138.47 124.98 C 139.22 125.88 140.55 126.00 141.45 125.25 L 142.20 124.62 C 143.10 123.88 143.22 122.55 142.48 121.65 C 141.73 120.75 140.40 120.63 139.50 121.37 Z M 138.66 122.08 L 137.94 122.75 C 137.08 123.55 137.03 124.88 137.83 125.74 C 138.62 126.60 139.96 126.64 140.82 125.85 L 141.54 125.18 C 142.39 124.38 142.44 123.04 141.65 122.19 C 140.85 121.33 139.51 121.28 138.66 122.08 Z M 137.85 122.83 L 137.20 123.51 C 136.39 124.35 136.41 125.69 137.26 126.51 C 138.10 127.32 139.44 127.29 140.26 126.45 L 140.91 125.77 C 141.72 124.92 141.69 123.58 140.85 122.77 C 140.00 121.96 138.66 121.99 137.85 122.83 Z M 137.11 123.59 L 136.47 124.33 C 135.71 125.22 135.81 126.57 136.70 127.33 C 137.60 128.10 138.94 128.00 139.70 127.10 L 140.34 126.36 C 141.11 125.47 141.00 124.13 140.11 123.36 C 139.22 122.60 137.88 122.70 137.11 123.59 Z M 136.39 124.43 L 135.76 125.25 C 135.05 126.19 135.23 127.53 136.17 128.24 C 137.11 128.96 138.45 128.77 139.16 127.84 L 139.79 127.01 C 140.50 126.07 140.32 124.73 139.38 124.02 C 138.44 123.31 137.10 123.49 136.39 124.43 Z M 135.68 125.35 L 135.10 126.22 C 134.44 127.20 134.70 128.53 135.68 129.19 C 136.67 129.85 138.00 129.59 138.66 128.60 L 139.24 127.74 C 139.90 126.76 139.64 125.43 138.66 124.77 C 137.67 124.11 136.34 124.37 135.68 125.35 Z M 135.04 126.30 L 134.52 127.18 C 133.90 128.19 134.23 129.51 135.24 130.12 C 136.26 130.73 137.58 130.41 138.19 129.39 L 138.72 128.52 C 139.33 127.50 139.00 126.19 137.99 125.57 C 136.97 124.96 135.65 125.29 135.04 126.30 Z M 134.47 127.25 L 133.98 128.14 C 133.41 129.18 133.78 130.48 134.82 131.06 C 135.86 131.63 137.16 131.25 137.74 130.22 L 138.23 129.32 C 138.80 128.28 138.43 126.98 137.39 126.41 C 136.35 125.83 135.05 126.21 134.47 127.25 Z M 133.95 128.20 L 133.50 129.07 C 132.96 130.13 133.38 131.42 134.43 131.96 C 135.49 132.51 136.78 132.09 137.32 131.03 L 137.77 130.16 C 138.31 129.10 137.89 127.81 136.84 127.26 C 135.78 126.72 134.49 127.14 133.95 128.20 Z M 133.47 129.13 L 133.02 130.08 C 132.51 131.15 132.97 132.43 134.05 132.94 C 135.12 133.45 136.40 132.99 136.91 131.92 L 137.35 130.97 C 137.86 129.90 137.40 128.61 136.33 128.11 C 135.25 127.60 133.97 128.06 133.47 129.13 Z M 132.99 130.15 L 132.59 131.08 C 132.12 132.18 132.62 133.44 133.72 133.91 C 134.81 134.38 136.07 133.87 136.54 132.78 L 136.94 131.85 C 137.41 130.75 136.90 129.49 135.81 129.02 C 134.72 128.55 133.45 129.06 132.99 130.15 Z M 132.56 131.15 L 132.21 132.04 C 131.78 133.15 132.33 134.39 133.44 134.82 C 134.55 135.25 135.80 134.70 136.23 133.59 L 136.57 132.71 C 137.00 131.60 136.45 130.35 135.34 129.92 C 134.23 129.49 132.99 130.04 132.56 131.15 Z M 132.19 132.09 L 131.87 133.00 C 131.47 134.12 132.06 135.36 133.18 135.75 C 134.30 136.15 135.53 135.56 135.93 134.44 L 136.25 133.53 C 136.65 132.41 136.06 131.18 134.94 130.78 C 133.82 130.39 132.59 130.97 132.19 132.09 Z M 131.85 133.06 L 131.54 134.00 C 131.17 135.13 131.79 136.35 132.93 136.72 C 134.06 137.09 135.28 136.47 135.64 135.33 L 135.95 134.39 C 136.32 133.26 135.70 132.04 134.56 131.67 C 133.43 131.30 132.22 131.92 131.85 133.06 Z M 131.52 134.06 L 131.24 135.03 C 130.90 136.17 131.56 137.37 132.71 137.70 C 133.85 138.04 135.05 137.38 135.38 136.24 L 135.66 135.27 C 136.00 134.13 135.34 132.93 134.20 132.60 C 133.05 132.26 131.86 132.92 131.52 134.06 Z M 131.22 135.09 L 130.97 136.05 C 130.67 137.20 131.36 138.38 132.52 138.68 C 133.67 138.98 134.85 138.29 135.15 137.14 L 135.40 136.18 C 135.70 135.02 135.01 133.84 133.85 133.54 C 132.70 133.24 131.52 133.94 131.22 135.09 Z M 130.96 136.10 L 130.73 137.07 C 130.45 138.23 131.17 139.40 132.34 139.67 C 133.50 139.94 134.66 139.22 134.93 138.06 L 135.16 137.09 C 135.44 135.93 134.72 134.76 133.56 134.49 C 132.39 134.22 131.23 134.94 130.96 136.10 Z M 130.72 137.11 L 130.50 138.09 C 130.25 139.26 130.99 140.41 132.15 140.67 C 133.32 140.92 134.47 140.18 134.73 139.01 L 134.94 138.03 C 135.20 136.86 134.46 135.71 133.29 135.46 C 132.13 135.20 130.97 135.94 130.72 137.11 Z M 130.50 138.12 L 130.29 139.10 C 130.05 140.27 130.81 141.41 131.98 141.65 C 133.14 141.89 134.29 141.14 134.53 139.97 L 134.73 138.99 C 134.98 137.82 134.22 136.68 133.05 136.44 C 131.88 136.19 130.74 136.95 130.50 138.12 Z M 130.29 139.12 L 130.10 140.10 C 129.87 141.27 130.63 142.41 131.80 142.64 C 132.98 142.87 134.11 142.10 134.34 140.93 L 134.54 139.95 C 134.77 138.78 134.00 137.64 132.83 137.41 C 131.66 137.18 130.52 137.94 130.29 139.12 Z M 130.09 140.12 L 129.91 141.10 C 129.69 142.28 130.47 143.41 131.64 143.63 C 132.82 143.85 133.95 143.07 134.17 141.89 L 134.35 140.91 C 134.57 139.73 133.79 138.60 132.62 138.38 C 131.44 138.17 130.31 138.94 130.09 140.12 Z M 129.90 141.13 L 129.73 142.12 C 129.53 143.30 130.32 144.42 131.50 144.63 C 132.67 144.83 133.80 144.04 134.00 142.86 L 134.17 141.87 C 134.38 140.69 133.59 139.57 132.41 139.36 C 131.23 139.16 130.11 139.95 129.90 141.13 Z M 129.73 142.14 L 129.56 143.13 C 129.37 144.32 130.17 145.43 131.36 145.62 C 132.54 145.81 133.65 145.01 133.85 143.83 L 134.01 142.84 C 134.20 141.66 133.40 140.54 132.21 140.35 C 131.03 140.16 129.92 140.96 129.73 142.14 Z M 129.56 143.15 L 129.41 144.14 C 129.23 145.32 130.04 146.43 131.23 146.61 C 132.41 146.79 133.52 145.98 133.70 144.79 L 133.85 143.81 C 134.03 142.63 133.22 141.52 132.03 141.34 C 130.85 141.16 129.74 141.97 129.56 143.15 Z M 129.41 144.16 L 129.27 145.07 C 129.10 146.26 129.93 147.36 131.11 147.53 C 132.30 147.70 133.40 146.88 133.57 145.69 L 133.70 144.78 C 133.87 143.59 133.05 142.49 131.86 142.32 C 130.68 142.15 129.58 142.97 129.41 144.16 Z M 129.27 145.09 L 129.14 146.03 C 128.98 147.21 129.82 148.31 131.00 148.47 C 132.19 148.63 133.29 147.80 133.45 146.61 L 133.57 145.67 C 133.73 144.49 132.90 143.39 131.71 143.23 C 130.52 143.07 129.43 143.90 129.27 145.09 Z M 129.14 146.04 L 129.01 147.08 C 128.86 148.27 129.70 149.35 130.89 149.50 C 132.08 149.66 133.17 148.81 133.32 147.63 L 133.45 146.59 C 133.60 145.40 132.76 144.31 131.57 144.16 C 130.38 144.01 129.29 144.85 129.14 146.04 Z M 129.01 147.09 L 128.88 148.10 C 128.74 149.30 129.59 150.38 130.78 150.52 C 131.97 150.67 133.05 149.82 133.20 148.63 L 133.32 147.61 C 133.46 146.42 132.62 145.34 131.42 145.20 C 130.23 145.05 129.15 145.90 129.01 147.09 Z M 128.88 148.12 L 128.77 149.05 C 128.64 150.24 129.49 151.32 130.69 151.46 C 131.88 151.59 132.96 150.74 133.09 149.55 L 133.20 148.61 C 133.34 147.42 132.48 146.34 131.29 146.21 C 130.10 146.07 129.02 146.93 128.88 148.12 Z M 128.77 149.07 L 128.67 150.07 C 128.54 151.27 129.41 152.34 130.60 152.46 C 131.80 152.59 132.87 151.72 132.99 150.52 L 133.10 149.52 C 133.22 148.33 132.35 147.26 131.16 147.14 C 129.97 147.01 128.90 147.88 128.77 149.07 Z M 128.66 150.10 L 128.57 151.14 C 128.46 152.34 129.34 153.40 130.54 153.51 C 131.73 153.61 132.79 152.73 132.90 151.54 L 133.00 150.49 C 133.11 149.30 132.22 148.24 131.03 148.13 C 129.83 148.02 128.77 148.90 128.66 150.10 Z M 128.56 151.18 L 128.48 152.24 C 128.40 153.44 129.30 154.48 130.50 154.57 C 131.70 154.66 132.74 153.76 132.83 152.56 L 132.91 151.50 C 132.99 150.30 132.09 149.25 130.89 149.17 C 129.69 149.08 128.65 149.98 128.56 151.18 Z M 128.48 152.29 L 128.43 153.37 C 128.37 154.57 129.29 155.59 130.50 155.65 C 131.70 155.71 132.72 154.79 132.78 153.58 L 132.83 152.51 C 132.89 151.30 131.97 150.28 130.77 150.22 C 129.56 150.16 128.54 151.09 128.48 152.29 Z M 128.42 153.41 L 128.39 154.47 C 128.36 155.67 129.31 156.68 130.51 156.71 C 131.72 156.74 132.72 155.80 132.75 154.59 L 132.78 153.54 C 132.82 152.33 131.87 151.33 130.66 151.30 C 129.46 151.26 128.46 152.21 128.42 153.41 Z M 128.39 154.51 L 128.38 155.52 C 128.37 156.73 129.34 157.71 130.55 157.72 C 131.75 157.73 132.74 156.77 132.75 155.56 L 132.76 154.55 C 132.77 153.35 131.80 152.36 130.59 152.35 C 129.39 152.34 128.40 153.31 128.39 154.51 Z M 128.38 155.56 L 128.39 156.51 C 128.40 157.71 129.38 158.68 130.59 158.67 C 131.80 158.66 132.77 157.68 132.76 156.47 L 132.75 155.53 C 132.74 154.32 131.75 153.35 130.55 153.36 C 129.34 153.37 128.37 154.35 128.38 155.56 Z M 128.39 156.54 L 128.41 157.52 C 128.44 158.73 129.44 159.68 130.65 159.65 C 131.85 159.62 132.81 158.62 132.78 157.42 L 132.76 156.44 C 132.73 155.23 131.73 154.28 130.52 154.31 C 129.31 154.33 128.36 155.34 128.39 156.54 Z M 128.41 157.58 L 128.47 158.67 C 128.53 159.87 129.56 160.80 130.77 160.73 C 131.97 160.67 132.90 159.64 132.83 158.44 L 132.78 157.35 C 132.71 156.15 131.69 155.22 130.48 155.29 C 129.28 155.35 128.35 156.38 128.41 157.58 Z M 128.48 158.80 L 128.59 159.75 C 128.73 160.94 129.81 161.80 131.01 161.67 C 132.21 161.53 133.07 160.45 132.93 159.25 L 132.82 158.30 C 132.69 157.10 131.60 156.24 130.40 156.38 C 129.21 156.52 128.34 157.60 128.48 158.80 Z M 128.63 159.96 L 128.81 160.84 C 129.07 162.01 130.23 162.76 131.41 162.51 C 132.59 162.25 133.34 161.09 133.09 159.91 L 132.90 159.04 C 132.64 157.86 131.48 157.11 130.30 157.36 C 129.12 157.62 128.37 158.78 128.63 159.96 Z M 128.89 161.10 L 129.21 162.02 C 129.61 163.16 130.86 163.76 132.00 163.36 C 133.14 162.96 133.74 161.71 133.34 160.57 L 133.01 159.65 C 132.61 158.51 131.36 157.91 130.23 158.31 C 129.09 158.71 128.49 159.96 128.89 161.10 Z M 129.31 162.24 L 129.74 163.15 C 130.26 164.23 131.57 164.69 132.66 164.17 C 133.74 163.64 134.20 162.34 133.68 161.25 L 133.24 160.35 C 132.72 159.26 131.41 158.80 130.33 159.33 C 129.24 159.85 128.78 161.16 129.31 162.24 Z M 129.82 163.29 L 130.31 164.14 C 130.91 165.19 132.25 165.54 133.29 164.94 C 134.34 164.34 134.70 163.00 134.09 161.96 L 133.60 161.11 C 133.00 160.06 131.66 159.70 130.62 160.30 C 129.57 160.91 129.21 162.24 129.82 163.29 Z M 130.36 164.23 L 130.88 165.03 C 131.53 166.05 132.88 166.34 133.90 165.69 C 134.91 165.04 135.21 163.69 134.55 162.67 L 134.04 161.87 C 133.39 160.85 132.04 160.56 131.02 161.21 C 130.00 161.86 129.71 163.21 130.36 164.23 Z M 130.92 165.10 L 131.51 165.94 C 132.19 166.93 133.56 167.17 134.55 166.48 C 135.54 165.79 135.78 164.43 135.09 163.44 L 134.51 162.60 C 133.82 161.61 132.46 161.37 131.47 162.06 C 130.48 162.75 130.23 164.11 130.92 165.10 Z M 131.54 165.99 L 132.17 166.84 C 132.89 167.81 134.26 168.01 135.23 167.29 C 136.20 166.57 136.40 165.20 135.68 164.23 L 135.05 163.38 C 134.33 162.42 132.96 162.22 131.99 162.94 C 131.03 163.66 130.82 165.02 131.54 165.99 Z M 132.21 166.88 L 132.81 167.65 C 133.55 168.59 134.93 168.76 135.88 168.01 C 136.82 167.27 136.99 165.89 136.24 164.94 L 135.64 164.18 C 134.90 163.24 133.52 163.07 132.58 163.82 C 131.63 164.56 131.46 165.94 132.21 166.88 Z M 132.85 167.70 L 133.50 168.47 C 134.27 169.39 135.65 169.51 136.57 168.74 C 137.50 167.96 137.62 166.58 136.84 165.66 L 136.20 164.89 C 135.42 163.97 134.05 163.85 133.12 164.62 C 132.20 165.40 132.08 166.77 132.85 167.70 Z M 133.55 168.53 L 134.24 169.29 C 135.05 170.18 136.43 170.25 137.33 169.44 C 138.22 168.63 138.29 167.24 137.47 166.35 L 136.79 165.59 C 135.98 164.70 134.59 164.63 133.70 165.45 C 132.81 166.26 132.74 167.64 133.55 168.53 Z M 134.31 169.37 L 135.03 170.08 C 135.89 170.94 137.27 170.94 138.12 170.08 C 138.97 169.23 138.97 167.85 138.12 166.99 L 137.40 166.27 C 136.55 165.42 135.16 165.42 134.31 166.28 C 133.46 167.13 133.46 168.51 134.31 169.37 Z M 135.12 170.16 L 135.85 170.83 C 136.75 171.63 138.13 171.56 138.94 170.66 C 139.74 169.76 139.67 168.38 138.77 167.58 L 138.04 166.91 C 137.14 166.11 135.76 166.18 134.95 167.08 C 134.14 167.98 134.22 169.36 135.12 170.16 Z M 135.94 170.90 L 136.71 171.52 C 137.64 172.29 139.02 172.14 139.78 171.21 C 140.54 170.27 140.40 168.89 139.46 168.13 L 138.69 167.51 C 137.76 166.74 136.38 166.89 135.62 167.82 C 134.86 168.76 135.00 170.13 135.94 170.90 Z M 136.79 171.59 L 137.60 172.18 C 138.57 172.90 139.93 172.70 140.65 171.73 C 141.37 170.76 141.16 169.39 140.19 168.67 L 139.38 168.07 C 138.41 167.36 137.05 167.56 136.33 168.53 C 135.61 169.50 135.82 170.87 136.79 171.59 Z M 137.67 172.24 L 138.50 172.80 C 139.50 173.47 140.86 173.21 141.53 172.21 C 142.21 171.22 141.95 169.86 140.95 169.18 L 140.12 168.62 C 139.12 167.94 137.76 168.20 137.09 169.20 C 136.41 170.20 136.67 171.56 137.67 172.24 Z M 138.57 172.84 L 139.41 173.36 C 140.43 174.00 141.78 173.69 142.42 172.67 C 143.05 171.64 142.74 170.30 141.72 169.66 L 140.88 169.14 C 139.86 168.50 138.51 168.81 137.87 169.83 C 137.23 170.86 137.55 172.20 138.57 172.84 Z M 139.47 173.41 L 140.34 173.90 C 141.39 174.50 142.72 174.14 143.32 173.10 C 143.92 172.05 143.56 170.71 142.52 170.11 L 141.65 169.62 C 140.60 169.02 139.27 169.38 138.67 170.42 C 138.07 171.47 138.43 172.81 139.47 173.41 Z M 140.41 173.94 L 141.30 174.41 C 142.37 174.97 143.69 174.56 144.25 173.50 C 144.81 172.43 144.41 171.11 143.34 170.55 L 142.45 170.08 C 141.38 169.51 140.06 169.92 139.50 170.99 C 138.93 172.06 139.34 173.38 140.41 173.94 Z M 141.37 174.45 L 142.29 174.89 C 143.38 175.41 144.68 174.95 145.20 173.86 C 145.73 172.78 145.27 171.47 144.18 170.95 L 143.27 170.51 C 142.18 169.99 140.87 170.45 140.35 171.53 C 139.83 172.62 140.29 173.92 141.37 174.45 Z M 142.37 174.92 L 143.30 175.33 C 144.41 175.81 145.70 175.30 146.18 174.20 C 146.66 173.09 146.15 171.80 145.05 171.32 L 144.11 170.92 C 143.00 170.43 141.71 170.94 141.23 172.05 C 140.75 173.15 141.26 174.44 142.37 174.92 Z M 143.39 175.36 L 144.33 175.73 C 145.46 176.17 146.72 175.61 147.16 174.48 C 147.59 173.36 147.04 172.09 145.91 171.66 L 144.96 171.29 C 143.84 170.85 142.57 171.41 142.14 172.54 C 141.70 173.66 142.26 174.93 143.39 175.36 Z M 144.42 175.76 L 145.37 176.08 C 146.51 176.47 147.75 175.85 148.14 174.71 C 148.52 173.57 147.91 172.33 146.76 171.94 L 145.82 171.62 C 144.68 171.24 143.44 171.85 143.05 173.00 C 142.67 174.14 143.28 175.38 144.42 175.76 Z M 145.47 176.11 L 146.40 176.38 C 147.56 176.71 148.77 176.03 149.10 174.87 C 149.42 173.71 148.75 172.50 147.59 172.17 L 146.66 171.91 C 145.50 171.58 144.29 172.26 143.96 173.42 C 143.64 174.58 144.31 175.79 145.47 176.11 Z M 146.53 176.41 L 147.54 176.63 C 148.72 176.89 149.88 176.14 150.14 174.96 C 150.40 173.78 149.65 172.62 148.47 172.36 L 147.46 172.14 C 146.28 171.88 145.12 172.63 144.86 173.81 C 144.60 174.99 145.35 176.15 146.53 176.41 Z M 147.67 176.66 L 148.66 176.81 C 149.85 177.00 150.97 176.18 151.15 174.99 C 151.34 173.79 150.52 172.68 149.33 172.49 L 148.34 172.34 C 147.15 172.15 146.03 172.97 145.84 174.16 C 145.66 175.35 146.48 176.47 147.67 176.66 Z M 148.77 176.82 L 149.75 176.93 C 150.95 177.05 152.02 176.18 152.15 174.97 C 152.27 173.77 151.40 172.70 150.20 172.58 L 149.22 172.48 C 148.02 172.35 146.95 173.23 146.82 174.43 C 146.70 175.63 147.57 176.70 148.77 176.82 Z M 149.83 176.93 L 150.81 176.99 C 152.01 177.07 153.05 176.15 153.13 174.95 C 153.20 173.74 152.29 172.71 151.08 172.63 L 150.11 172.57 C 148.90 172.49 147.87 173.41 147.79 174.61 C 147.71 175.82 148.63 176.86 149.83 176.93 Z M 150.89 177.00 L 151.88 177.02 C 153.09 177.06 154.10 176.10 154.13 174.90 C 154.16 173.69 153.21 172.69 152.00 172.65 L 151.00 172.63 C 149.80 172.59 148.79 173.55 148.76 174.75 C 148.73 175.96 149.68 176.97 150.89 177.00 Z M 152.00 177.02 L 153.00 177.00 C 154.21 176.96 155.16 175.96 155.13 174.75 C 155.09 173.54 154.09 172.59 152.88 172.63 L 151.88 172.65 C 150.68 172.69 149.72 173.69 149.76 174.90 C 149.79 176.11 150.80 177.06 152.00 177.02 Z M 153.16 176.99 L 154.16 176.89 C 155.36 176.76 156.23 175.69 156.11 174.49 C 155.99 173.29 154.92 172.41 153.71 172.53 L 152.72 172.64 C 151.52 172.76 150.64 173.83 150.76 175.03 C 150.89 176.23 151.96 177.11 153.16 176.99 Z M 154.35 176.86 L 155.33 176.67 C 156.52 176.44 157.29 175.29 157.06 174.10 C 156.83 172.92 155.68 172.14 154.50 172.37 L 153.52 172.56 C 152.33 172.79 151.56 173.94 151.79 175.13 C 152.02 176.31 153.17 177.09 154.35 176.86 Z M 155.52 176.62 L 156.48 176.34 C 157.64 176.00 158.31 174.79 157.98 173.63 C 157.64 172.47 156.43 171.80 155.27 172.14 L 154.31 172.42 C 153.15 172.76 152.48 173.97 152.82 175.13 C 153.15 176.29 154.37 176.96 155.52 176.62 Z M 156.65 176.28 L 157.59 175.93 C 158.72 175.50 159.29 174.24 158.86 173.11 C 158.43 171.98 157.17 171.41 156.04 171.84 L 155.10 172.20 C 153.97 172.63 153.40 173.89 153.83 175.02 C 154.26 176.15 155.52 176.71 156.65 176.28 Z M 157.74 175.86 L 158.65 175.44 C 159.74 174.93 160.21 173.63 159.70 172.53 C 159.19 171.44 157.89 170.97 156.79 171.48 L 155.89 171.90 C 154.79 172.42 154.32 173.72 154.83 174.81 C 155.35 175.90 156.65 176.38 157.74 175.86 Z M 158.78 175.37 L 159.66 174.88 C 160.72 174.30 161.09 172.97 160.51 171.91 C 159.92 170.86 158.59 170.48 157.53 171.06 L 156.66 171.55 C 155.60 172.14 155.22 173.47 155.81 174.52 C 156.40 175.58 157.73 175.96 158.78 175.37 Z M 159.78 174.81 L 160.61 174.28 C 161.63 173.62 161.93 172.27 161.28 171.26 C 160.63 170.24 159.27 169.94 158.26 170.60 L 157.42 171.13 C 156.40 171.78 156.11 173.13 156.76 174.15 C 157.41 175.17 158.76 175.46 159.78 174.81 Z M 160.71 174.21 L 161.52 173.63 C 162.50 172.93 162.73 171.57 162.03 170.59 C 161.32 169.61 159.96 169.38 158.98 170.08 L 158.17 170.66 C 157.19 171.36 156.96 172.72 157.66 173.70 C 158.36 174.69 159.72 174.91 160.71 174.21 Z M 161.58 173.58 L 162.37 172.97 C 163.33 172.24 163.50 170.87 162.77 169.91 C 162.03 168.96 160.66 168.78 159.70 169.52 L 158.91 170.13 C 157.96 170.86 157.78 172.24 158.52 173.19 C 159.26 174.14 160.63 174.32 161.58 173.58 Z M 162.42 172.94 L 163.18 172.31 C 164.11 171.55 164.25 170.18 163.49 169.24 C 162.72 168.31 161.35 168.17 160.42 168.94 L 159.66 169.56 C 158.72 170.32 158.59 171.70 159.35 172.63 C 160.11 173.56 161.49 173.70 162.42 172.94 Z M 163.23 172.27 L 163.98 171.62 C 164.89 170.83 164.99 169.45 164.20 168.54 C 163.41 167.63 162.03 167.54 161.12 168.32 L 160.37 168.98 C 159.46 169.77 159.36 171.14 160.15 172.05 C 160.94 172.96 162.32 173.06 163.23 172.27 Z M 164.03 171.58 L 164.77 170.89 C 165.66 170.08 165.71 168.70 164.90 167.81 C 164.08 166.92 162.70 166.87 161.82 167.68 L 161.07 168.37 C 160.19 169.18 160.13 170.56 160.95 171.45 C 161.76 172.34 163.14 172.39 164.03 171.58 Z M 164.82 170.84 L 165.54 170.13 C 166.41 169.29 166.42 167.91 165.58 167.05 C 164.74 166.19 163.36 166.18 162.50 167.02 L 161.77 167.73 C 160.91 168.57 160.89 169.95 161.74 170.81 C 162.58 171.67 163.96 171.69 164.82 170.84 Z M 165.59 170.09 L 166.29 169.36 C 167.12 168.50 167.10 167.12 166.23 166.28 C 165.37 165.45 163.99 165.47 163.15 166.34 L 162.45 167.06 C 161.62 167.93 161.64 169.31 162.51 170.14 C 163.37 170.98 164.75 170.96 165.59 170.09 Z M 166.33 169.32 L 167.01 168.58 C 167.82 167.69 167.76 166.31 166.87 165.50 C 165.98 164.69 164.60 164.75 163.79 165.64 L 163.11 166.38 C 162.30 167.27 162.36 168.65 163.25 169.46 C 164.14 170.27 165.52 170.21 166.33 169.32 Z M 167.05 168.53 L 167.70 167.78 C 168.48 166.87 168.39 165.50 167.48 164.71 C 166.57 163.92 165.20 164.02 164.41 164.93 L 163.76 165.68 C 162.97 166.59 163.07 167.96 163.97 168.75 C 164.88 169.54 166.26 169.44 167.05 168.53 Z M 167.73 167.74 L 168.37 166.96 C 169.14 166.03 169.00 164.66 168.07 163.89 C 167.15 163.13 165.77 163.27 165.01 164.19 L 164.37 164.97 C 163.61 165.90 163.74 167.27 164.67 168.04 C 165.60 168.80 166.97 168.67 167.73 167.74 Z M 168.41 166.91 L 169.03 166.11 C 169.77 165.16 169.60 163.79 168.65 163.06 C 167.70 162.32 166.33 162.49 165.60 163.44 L 164.97 164.24 C 164.24 165.19 164.41 166.56 165.36 167.29 C 166.31 168.03 167.67 167.86 168.41 166.91 Z M 169.07 166.06 L 169.65 165.27 C 170.37 164.30 170.16 162.94 169.19 162.23 C 168.23 161.51 166.87 161.72 166.15 162.69 L 165.57 163.48 C 164.85 164.45 165.06 165.81 166.03 166.52 C 166.99 167.24 168.35 167.03 169.07 166.06 Z M 169.68 165.23 L 170.24 164.43 C 170.93 163.45 170.70 162.09 169.72 161.40 C 168.74 160.71 167.38 160.94 166.69 161.93 L 166.13 162.72 C 165.44 163.71 165.67 165.06 166.65 165.75 C 167.63 166.44 168.99 166.21 169.68 165.23 Z M 170.26 164.40 L 170.80 163.61 C 171.47 162.62 171.21 161.27 170.22 160.59 C 169.23 159.92 167.88 160.18 167.20 161.17 L 166.67 161.96 C 165.99 162.95 166.25 164.30 167.24 164.98 C 168.24 165.65 169.59 165.39 170.26 164.40 Z M 170.82 163.58 L 171.35 162.77 C 172.00 161.77 171.72 160.42 170.72 159.76 C 169.72 159.11 168.37 159.39 167.71 160.39 L 167.18 161.20 C 166.52 162.21 166.81 163.55 167.81 164.21 C 168.81 164.87 170.16 164.59 170.82 163.58 Z M 171.37 162.74 L 171.91 161.88 C 172.55 160.87 172.24 159.53 171.23 158.89 C 170.21 158.25 168.87 158.55 168.23 159.57 L 167.69 160.42 C 167.05 161.44 167.36 162.78 168.37 163.42 C 169.39 164.06 170.73 163.76 171.37 162.74 Z M 171.93 161.85 L 172.48 160.95 C 173.10 159.93 172.77 158.59 171.75 157.97 C 170.72 157.34 169.39 157.67 168.76 158.69 L 168.21 159.60 C 167.59 160.62 167.92 161.96 168.94 162.58 C 169.97 163.20 171.30 162.88 171.93 161.85 Z M 172.49 160.93 L 172.99 160.08 C 173.60 159.04 173.26 157.71 172.22 157.10 C 171.19 156.49 169.86 156.84 169.25 157.87 L 168.75 158.72 C 168.14 159.75 168.48 161.08 169.52 161.69 C 170.55 162.30 171.88 161.96 172.49 160.93 Z M 173.01 160.05 L 173.51 159.16 C 174.11 158.12 173.74 156.79 172.70 156.20 C 171.66 155.61 170.33 155.97 169.74 157.01 L 169.23 157.90 C 168.64 158.94 169.00 160.27 170.04 160.86 C 171.09 161.45 172.41 161.09 173.01 160.05 Z M 173.53 159.13 L 174.02 158.24 C 174.60 157.18 174.21 155.86 173.16 155.29 C 172.10 154.71 170.78 155.10 170.21 156.15 L 169.72 157.05 C 169.14 158.10 169.53 159.42 170.58 159.99 C 171.63 160.57 172.95 160.18 173.53 159.13 Z M 174.04 158.19 L 174.50 157.31 C 175.05 156.25 174.64 154.94 173.57 154.38 C 172.50 153.83 171.19 154.25 170.64 155.31 L 170.19 156.19 C 169.63 157.26 170.05 158.57 171.11 159.12 C 172.18 159.67 173.49 159.26 174.04 158.19 Z M 174.53 157.25 L 175.00 156.27 C 175.52 155.19 175.06 153.89 173.98 153.37 C 172.90 152.85 171.60 153.31 171.08 154.39 L 170.61 155.38 C 170.09 156.46 170.55 157.75 171.63 158.27 C 172.71 158.79 174.01 158.33 174.53 157.25 Z M 175.03 156.19 L 175.45 155.24 C 175.92 154.14 175.42 152.86 174.32 152.38 C 173.21 151.91 171.94 152.41 171.46 153.51 L 171.05 154.47 C 170.57 155.57 171.08 156.85 172.18 157.32 C 173.28 157.80 174.56 157.29 175.03 156.19 Z M 175.48 155.16 L 175.82 154.26 C 176.25 153.15 175.69 151.89 174.58 151.46 C 173.46 151.03 172.20 151.59 171.77 152.71 L 171.43 153.60 C 171.00 154.72 171.56 155.97 172.67 156.40 C 173.79 156.83 175.05 156.27 175.48 155.16 Z M 175.85 154.18 L 176.14 153.31 C 176.52 152.18 175.91 150.95 174.78 150.57 C 173.64 150.18 172.41 150.79 172.03 151.93 L 171.74 152.79 C 171.36 153.93 171.97 155.16 173.11 155.54 C 174.24 155.92 175.47 155.31 175.85 154.18 Z M 176.18 153.20 L 176.44 152.26 C 176.76 151.11 176.08 149.91 174.93 149.59 C 173.78 149.27 172.58 149.95 172.26 151.10 L 172.00 152.04 C 171.68 153.19 172.35 154.39 173.51 154.71 C 174.66 155.03 175.85 154.36 176.18 153.20 Z M 176.47 152.12 L 176.67 151.17 C 176.91 149.99 176.16 148.85 174.99 148.60 C 173.82 148.36 172.67 149.11 172.43 150.28 L 172.23 151.24 C 171.98 152.41 172.74 153.56 173.91 153.80 C 175.08 154.05 176.23 153.29 176.47 152.12 Z M 176.69 151.04 L 176.84 150.03 C 177.01 148.85 176.19 147.75 175.01 147.58 C 173.82 147.41 172.73 148.22 172.55 149.41 L 172.41 150.41 C 172.23 151.59 173.05 152.69 174.23 152.87 C 175.42 153.04 176.52 152.22 176.69 151.04 Z M 176.85 149.95 L 176.94 149.05 C 177.07 147.86 176.21 146.80 175.02 146.67 C 173.83 146.55 172.76 147.41 172.64 148.60 L 172.54 149.49 C 172.42 150.68 173.28 151.75 174.47 151.87 C 175.65 152.00 176.72 151.14 176.85 149.95 Z M 176.95 148.99 L 177.02 148.01 C 177.12 146.82 176.23 145.78 175.04 145.68 C 173.84 145.59 172.80 146.48 172.71 147.67 L 172.63 148.65 C 172.54 149.85 173.43 150.89 174.62 150.98 C 175.81 151.07 176.85 150.18 176.95 148.99 Z M 177.03 147.96 L 177.08 146.91 C 177.15 145.72 176.24 144.69 175.05 144.63 C 173.85 144.56 172.83 145.47 172.77 146.67 L 172.71 147.72 C 172.64 148.91 173.55 149.93 174.75 150.00 C 175.94 150.07 176.96 149.15 177.03 147.96 Z M 177.09 146.87 L 177.13 145.78 C 177.17 144.59 176.24 143.58 175.05 143.54 C 173.85 143.49 172.85 144.43 172.80 145.62 L 172.76 146.71 C 172.72 147.90 173.65 148.90 174.85 148.95 C 176.04 148.99 177.04 148.06 177.09 146.87 Z M 177.13 145.75 L 177.15 144.72 C 177.18 143.52 176.23 142.54 175.04 142.51 C 173.84 142.48 172.85 143.43 172.83 144.62 L 172.80 145.65 C 172.78 146.84 173.72 147.83 174.92 147.86 C 176.11 147.89 177.10 146.94 177.13 145.75 Z M 177.15 144.70 L 177.16 143.66 C 177.17 142.47 176.22 141.49 175.03 141.48 C 173.83 141.46 172.85 142.42 172.84 143.61 L 172.83 144.64 C 172.81 145.84 173.77 146.82 174.96 146.83 C 176.16 146.84 177.13 145.89 177.15 144.70 Z M 177.16 143.65 L 177.16 142.64 C 177.17 141.45 176.21 140.48 175.02 140.47 C 173.82 140.46 172.85 141.43 172.85 142.62 L 172.84 143.63 C 172.84 144.82 173.80 145.79 174.99 145.80 C 176.18 145.80 177.15 144.84 177.16 143.65 Z M 177.16 142.63 L 177.16 141.68 C 177.17 140.49 176.20 139.52 175.01 139.52 C 173.82 139.52 172.85 140.48 172.85 141.68 L 172.85 142.63 C 172.85 143.82 173.81 144.79 175.00 144.79 C 176.20 144.79 177.16 143.82 177.16 142.63 Z M 177.16 141.68 L 177.16 140.61 C 177.16 139.42 176.19 138.45 175.00 138.45 C 173.81 138.45 172.85 139.42 172.85 140.61 L 172.85 141.68 C 172.85 142.87 173.82 143.84 175.01 143.84 C 176.20 143.83 177.16 142.87 177.16 141.68 Z M 177.16 140.58 L 177.15 139.57 C 177.13 138.38 176.16 137.42 174.97 137.44 C 173.78 137.45 172.82 138.43 172.84 139.62 L 172.85 140.64 C 172.86 141.83 173.84 142.78 175.03 142.77 C 176.22 142.75 177.18 141.77 177.16 140.58 Z M 177.15 139.51 L 177.11 138.57 C 177.06 137.38 176.05 136.45 174.87 136.50 C 173.68 136.55 172.75 137.55 172.80 138.74 L 172.84 139.68 C 172.89 140.87 173.89 141.80 175.08 141.75 C 176.27 141.70 177.20 140.70 177.15 139.51 Z M 177.10 138.47 L 177.02 137.53 C 176.91 136.34 175.87 135.47 174.68 135.57 C 173.50 135.67 172.62 136.72 172.73 137.90 L 172.81 138.84 C 172.91 140.03 173.96 140.90 175.14 140.80 C 176.33 140.70 177.20 139.65 177.10 138.47 Z M 177.01 137.43 L 176.87 136.45 C 176.71 135.27 175.63 134.45 174.45 134.61 C 173.27 134.77 172.45 135.85 172.61 137.03 L 172.74 138.01 C 172.90 139.19 173.98 140.01 175.16 139.85 C 176.34 139.69 177.17 138.60 177.01 137.43 Z M 176.86 136.38 L 176.69 135.39 C 176.49 134.22 175.38 133.43 174.21 133.63 C 173.04 133.83 172.25 134.94 172.45 136.11 L 172.62 137.10 C 172.82 138.27 173.93 139.06 175.10 138.86 C 176.27 138.66 177.06 137.55 176.86 136.38 Z M 176.69 135.35 L 176.50 134.35 C 176.28 133.18 175.15 132.41 173.98 132.63 C 172.82 132.85 172.05 133.98 172.27 135.15 L 172.46 136.15 C 172.68 137.31 173.80 138.08 174.97 137.86 C 176.14 137.64 176.91 136.52 176.69 135.35 Z M 176.49 134.33 L 176.30 133.34 C 176.07 132.18 174.94 131.42 173.77 131.64 C 172.61 131.87 171.85 133.01 172.08 134.17 L 172.27 135.16 C 172.50 136.33 173.63 137.09 174.80 136.86 C 175.96 136.63 176.72 135.50 176.49 134.33 Z M 176.29 133.31 L 176.09 132.33 C 175.84 131.17 174.70 130.42 173.54 130.67 C 172.38 130.91 171.63 132.05 171.87 133.21 L 172.08 134.20 C 172.33 135.36 173.47 136.11 174.63 135.86 C 175.79 135.62 176.54 134.48 176.29 133.31 Z M 176.08 132.29 L 175.86 131.33 C 175.59 130.17 174.43 129.45 173.28 129.71 C 172.12 129.98 171.40 131.14 171.66 132.30 L 171.88 133.26 C 172.15 134.41 173.31 135.14 174.47 134.87 C 175.62 134.60 176.34 133.45 176.08 132.29 Z M 175.84 131.27 L 175.58 130.27 C 175.28 129.12 174.11 128.43 172.96 128.73 C 171.81 129.03 171.12 130.21 171.42 131.36 L 171.68 132.36 C 171.98 133.51 173.15 134.19 174.30 133.89 C 175.45 133.59 176.14 132.42 175.84 131.27 Z M 175.57 130.21 L 175.29 129.25 C 174.95 128.11 173.76 127.46 172.62 127.79 C 171.47 128.12 170.82 129.32 171.15 130.46 L 171.43 131.42 C 171.77 132.56 172.96 133.22 174.10 132.88 C 175.24 132.55 175.90 131.35 175.57 130.21 Z M 175.27 129.20 L 174.98 128.28 C 174.62 127.14 173.41 126.52 172.27 126.88 C 171.14 127.24 170.51 128.45 170.87 129.58 L 171.17 130.51 C 171.53 131.64 172.74 132.27 173.87 131.91 C 175.01 131.55 175.63 130.34 175.27 129.20 Z M 174.97 128.24 L 174.66 127.34 C 174.28 126.21 173.05 125.61 171.93 125.99 C 170.80 126.37 170.20 127.60 170.58 128.73 L 170.88 129.62 C 171.27 130.75 172.49 131.35 173.62 130.97 C 174.75 130.59 175.35 129.36 174.97 128.24 Z M 174.64 127.27 L 174.29 126.36 C 173.87 125.24 172.63 124.68 171.51 125.10 C 170.40 125.52 169.84 126.77 170.26 127.88 L 170.60 128.79 C 171.02 129.91 172.27 130.47 173.38 130.05 C 174.50 129.63 175.06 128.39 174.64 127.27 Z M 174.26 126.26 L 173.84 125.29 C 173.37 124.20 172.10 123.70 171.00 124.17 C 169.91 124.64 169.40 125.91 169.88 127.00 L 170.29 127.97 C 170.77 129.07 172.04 129.57 173.13 129.10 C 174.23 128.63 174.73 127.36 174.26 126.26 Z M 173.80 125.20 L 173.36 124.29 C 172.83 123.21 171.54 122.77 170.46 123.29 C 169.39 123.81 168.94 125.11 169.47 126.18 L 169.91 127.10 C 170.44 128.17 171.73 128.62 172.80 128.09 C 173.88 127.57 174.32 126.28 173.80 125.20 Z M 173.33 124.21 L 172.84 123.30 C 172.28 122.24 170.96 121.84 169.90 122.40 C 168.85 122.97 168.45 124.28 169.01 125.34 L 169.50 126.25 C 170.06 127.31 171.37 127.71 172.43 127.15 C 173.49 126.59 173.89 125.27 173.33 124.21 Z M 172.81 123.23 L 172.30 122.36 C 171.70 121.32 170.37 120.96 169.33 121.56 C 168.29 122.16 167.93 123.49 168.53 124.53 L 169.04 125.40 C 169.64 126.44 170.97 126.80 172.01 126.20 C 173.05 125.60 173.41 124.27 172.81 123.23 Z M 172.26 122.27 L 171.73 121.44 C 171.09 120.42 169.74 120.12 168.72 120.77 C 167.70 121.41 167.40 122.76 168.05 123.78 L 168.58 124.61 C 169.22 125.63 170.57 125.93 171.59 125.29 C 172.61 124.64 172.91 123.29 172.26 122.27 Z M 171.65 121.31 L 171.05 120.50 C 170.34 119.52 168.96 119.32 167.99 120.03 C 167.02 120.75 166.81 122.12 167.53 123.09 L 168.13 123.91 C 168.85 124.88 170.22 125.09 171.19 124.37 C 172.16 123.65 172.37 122.28 171.65 121.31 Z M 170.93 120.33 L 170.29 119.62 C 169.49 118.72 168.10 118.64 167.20 119.45 C 166.29 120.25 166.21 121.64 167.02 122.55 L 167.65 123.26 C 168.46 124.16 169.85 124.24 170.75 123.43 C 171.66 122.63 171.74 121.24 170.93 120.33 Z M 170.19 119.50 L 169.50 118.83 C 168.62 117.98 167.23 118.01 166.38 118.88 C 165.53 119.75 165.56 121.15 166.43 122.00 L 167.12 122.67 C 168.00 123.51 169.39 123.49 170.24 122.62 C 171.09 121.74 171.06 120.35 170.19 119.50 Z M 169.42 118.75 L 168.67 118.09 C 167.75 117.28 166.35 117.37 165.55 118.29 C 164.74 119.21 164.83 120.61 165.75 121.41 L 166.50 122.08 C 167.42 122.88 168.82 122.79 169.63 121.87 C 170.43 120.96 170.34 119.56 169.42 118.75 Z M 168.60 118.01 L 167.80 117.37 C 166.83 116.60 165.43 116.76 164.67 117.72 C 163.90 118.68 164.06 120.08 165.02 120.85 L 165.82 121.49 C 166.78 122.26 168.18 122.10 168.95 121.14 C 169.71 120.18 169.56 118.78 168.60 118.01 Z M 167.70 117.29 L 166.88 116.71 C 165.87 115.99 164.48 116.23 163.77 117.23 C 163.05 118.24 163.29 119.64 164.29 120.35 L 165.11 120.93 C 166.12 121.65 167.51 121.41 168.23 120.40 C 168.94 119.40 168.71 118.00 167.70 117.29 Z M 166.76 116.61 L 165.92 116.10 C 164.86 115.46 163.48 115.79 162.84 116.85 C 162.19 117.91 162.53 119.29 163.58 119.93 L 164.42 120.44 C 165.48 121.09 166.86 120.75 167.50 119.70 C 168.15 118.64 167.81 117.26 166.76 116.61 Z M 165.78 116.02 L 164.90 115.56 C 163.79 114.99 162.44 115.42 161.87 116.53 C 161.30 117.63 161.73 118.99 162.83 119.56 L 163.72 120.01 C 164.82 120.58 166.18 120.15 166.75 119.05 C 167.32 117.95 166.89 116.59 165.78 116.02 Z M 164.78 115.50 L 163.88 115.10 C 162.74 114.60 161.41 115.11 160.90 116.25 C 160.40 117.38 160.91 118.71 162.05 119.22 L 162.95 119.62 C 164.09 120.12 165.42 119.61 165.92 118.47 C 166.43 117.34 165.91 116.00 164.78 115.50 Z M 163.77 115.05 L 162.85 114.70 C 161.68 114.26 160.38 114.84 159.94 116.00 C 159.49 117.17 160.07 118.47 161.24 118.91 L 162.16 119.27 C 163.32 119.71 164.62 119.13 165.07 117.96 C 165.51 116.80 164.93 115.50 163.77 115.05 Z M 162.72 114.66 L 161.75 114.35 C 160.56 113.98 159.29 114.64 158.92 115.83 C 158.54 117.01 159.20 118.28 160.39 118.65 L 161.37 118.96 C 162.55 119.33 163.82 118.67 164.19 117.48 C 164.57 116.30 163.91 115.03 162.72 114.66 Z M 161.59 114.31 L 160.59 114.07 C 159.38 113.78 158.16 114.54 157.88 115.75 C 157.59 116.96 158.34 118.18 159.56 118.46 L 160.55 118.70 C 161.76 118.98 162.98 118.23 163.26 117.02 C 163.55 115.81 162.80 114.59 161.59 114.31 Z M 160.42 114.04 L 159.45 113.89 C 158.22 113.70 157.07 114.54 156.88 115.78 C 156.69 117.01 157.54 118.16 158.77 118.35 L 159.73 118.50 C 160.96 118.69 162.11 117.84 162.30 116.61 C 162.49 115.38 161.65 114.23 160.42 114.04 Z M 159.31 113.87 L 158.32 113.79 C 157.08 113.68 155.99 114.60 155.88 115.84 C 155.77 117.08 156.69 118.17 157.93 118.28 L 158.91 118.37 C 160.16 118.47 161.25 117.56 161.36 116.32 C 161.47 115.08 160.55 113.98 159.31 113.87 Z M 158.22 113.78 L 157.20 113.74 C 155.96 113.69 154.91 114.66 154.86 115.90 C 154.81 117.15 155.78 118.20 157.02 118.24 L 158.04 118.29 C 159.28 118.33 160.33 117.37 160.38 116.12 C 160.43 114.88 159.46 113.83 158.22 113.78 Z M 157.13 113.74 L 156.11 113.73 C 154.87 113.72 153.85 114.72 153.84 115.96 C 153.83 117.20 154.82 118.22 156.07 118.23 L 157.09 118.24 C 158.33 118.26 159.35 117.26 159.36 116.02 C 159.37 114.77 158.38 113.75 157.13 113.74 Z M 156.06 113.74 L 155.05 113.75 C 153.81 113.77 152.82 114.79 152.84 116.03 C 152.85 117.27 153.87 118.26 155.11 118.24 L 156.12 118.23 C 157.36 118.21 158.35 117.19 158.33 115.95 C 158.32 114.71 157.30 113.72 156.06 113.74 Z M 154.97 113.77 L 153.96 113.81 C 152.73 113.88 151.78 114.92 151.84 116.16 C 151.90 117.39 152.94 118.34 154.18 118.28 L 155.19 118.23 C 156.42 118.17 157.37 117.12 157.31 115.89 C 157.25 114.66 156.20 113.71 154.97 113.77 Z M 153.85 113.83 L 152.87 113.93 C 151.64 114.04 150.75 115.13 150.87 116.35 C 150.98 117.58 152.07 118.47 153.29 118.35 L 154.28 118.26 C 155.50 118.14 156.40 117.06 156.28 115.83 C 156.16 114.61 155.08 113.71 153.85 113.83 Z M 152.73 113.96 L 151.77 114.11 C 150.57 114.31 149.75 115.44 149.94 116.65 C 150.14 117.85 151.27 118.67 152.48 118.48 L 153.43 118.32 C 154.64 118.13 155.46 116.99 155.26 115.79 C 155.07 114.58 153.93 113.76 152.73 113.96 Z M 151.61 114.17 L 150.68 114.39 C 149.50 114.68 148.78 115.86 149.07 117.04 C 149.35 118.21 150.54 118.93 151.71 118.65 L 152.64 118.42 C 153.82 118.14 154.54 116.95 154.25 115.78 C 153.96 114.60 152.78 113.88 151.61 114.17 Z M 150.52 114.46 L 149.59 114.77 C 148.45 115.14 147.83 116.36 148.20 117.50 C 148.58 118.64 149.80 119.26 150.94 118.88 L 151.87 118.58 C 153.01 118.21 153.62 116.98 153.25 115.85 C 152.88 114.71 151.66 114.09 150.52 114.46 Z M 149.46 114.84 L 148.48 115.23 C 147.39 115.68 146.85 116.92 147.30 118.02 C 147.74 119.12 148.98 119.65 150.08 119.21 L 151.06 118.81 C 152.16 118.37 152.69 117.12 152.25 116.03 C 151.81 114.93 150.56 114.40 149.46 114.84 Z M 148.40 115.30 L 147.49 115.72 C 146.42 116.20 145.96 117.46 146.44 118.52 C 146.93 119.58 148.18 120.05 149.25 119.56 L 150.16 119.15 C 151.22 118.66 151.69 117.40 151.21 116.34 C 150.72 115.28 149.47 114.81 148.40 115.30 Z M 147.44 115.77 L 146.52 116.22 C 145.49 116.73 145.06 117.99 145.57 119.02 C 146.09 120.05 147.34 120.48 148.37 119.97 L 149.29 119.51 C 150.33 119.00 150.75 117.75 150.24 116.71 C 149.73 115.68 148.48 115.26 147.44 115.77 Z M 146.49 116.27 L 145.57 116.75 C 144.56 117.28 144.18 118.53 144.71 119.53 C 145.23 120.54 146.48 120.93 147.49 120.40 L 148.40 119.92 C 149.41 119.39 149.80 118.14 149.27 117.14 C 148.74 116.13 147.50 115.74 146.49 116.27 Z M 145.54 116.80 L 144.67 117.29 C 143.69 117.83 143.33 119.07 143.88 120.05 C 144.42 121.03 145.66 121.38 146.64 120.84 L 147.51 120.35 C 148.49 119.81 148.85 118.57 148.30 117.59 C 147.76 116.61 146.52 116.26 145.54 116.80 Z M 144.64 117.35 L 143.78 117.86 C 142.83 118.41 142.51 119.63 143.07 120.58 C 143.63 121.53 144.85 121.84 145.79 121.29 L 146.66 120.78 C 147.61 120.22 147.93 119.00 147.37 118.05 C 146.81 117.11 145.59 116.79 144.64 117.35 Z M 143.77 117.96 L 142.84 118.55 C 141.95 119.11 141.69 120.29 142.25 121.18 C 142.82 122.06 143.99 122.33 144.88 121.76 L 145.80 121.18 C 146.69 120.62 146.95 119.44 146.39 118.55 C 145.83 117.67 144.65 117.40 143.77 117.96 Z M 142.86 118.69 L 142.06 119.23 C 141.25 119.78 141.04 120.89 141.60 121.70 C 142.15 122.51 143.26 122.72 144.07 122.17 L 144.86 121.63 C 145.68 121.07 145.88 119.97 145.33 119.15 C 144.78 118.34 143.67 118.13 142.86 118.69 Z M 142.10 119.35 L 141.38 119.87 C 140.63 120.40 140.46 121.44 140.99 122.18 C 141.52 122.93 142.56 123.10 143.30 122.57 L 144.03 122.05 C 144.77 121.52 144.95 120.48 144.42 119.74 C 143.88 118.99 142.85 118.82 142.10 119.35 Z"
      fill="black"
      fill-rule="nonzero" /></svg>