<svg xmlns="http://www.w3.org/2000/svg" width="300" height="300" viewBox="0 0 300 300">
<path d="M 133.55 146.11 L 133.74 145.13 C 133.93 144.21 133.33 143.31 132.41 143.13 C 131.48 142.94 130.59 143.54 130.40 144.46 L 130.20 145.44 C 130.02 146.36 130.62 147.26 131.54 147.44 C 132.46 147.63 133.36 147.03 133.55 146.11 Z M 133.71 145.25 L 133.97 144.29 C 134.22 143.38 133.69 142.45 132.78 142.20 C 131.88 141.95 130.95 142.48 130.70 143.39 L 130.44 144.35 C 130.19 145.25 130.72 146.18 131.62 146.43 C 132.53 146.68 133.46 146.15 133.71 145.25 Z M 133.88 144.51 L 134.28 143.59 C 134.65 142.73 134.26 141.74 133.40 141.37 C 132.55 141.00 131.55 141.39 131.18 142.25 L 130.78 143.17 C 130.41 144.02 130.81 145.02 131.66 145.39 C 132.52 145.76 133.51 145.36 133.88 144.51 Z M 134.13 143.85 L 134.65 143.06 C 135.16 142.29 134.95 141.25 134.18 140.74 C 133.41 140.23 132.37 140.43 131.86 141.21 L 131.34 141.99 C 130.82 142.76 131.03 143.80 131.80 144.31 C 132.57 144.83 133.61 144.62 134.13 143.85 Z M 134.50 143.23 L 135.15 142.49 C 135.75 141.81 135.69 140.76 135.00 140.15 C 134.32 139.55 133.27 139.61 132.67 140.30 L 132.02 141.04 C 131.41 141.72 131.48 142.77 132.16 143.37 C 132.85 143.98 133.89 143.91 134.50 143.23 Z M 135.03 142.58 L 135.78 141.87 C 136.44 141.24 136.46 140.21 135.84 139.56 C 135.22 138.90 134.19 138.88 133.53 139.50 L 132.78 140.21 C 132.13 140.83 132.10 141.87 132.72 142.52 C 133.35 143.17 134.38 143.20 135.03 142.58 Z M 135.71 141.91 L 136.50 141.23 C 137.17 140.65 137.25 139.63 136.66 138.95 C 136.08 138.27 135.06 138.20 134.38 138.78 L 133.60 139.46 C 132.93 140.04 132.85 141.06 133.43 141.74 C 134.02 142.41 135.04 142.49 135.71 141.91 Z M 136.46 141.25 L 137.24 140.62 C 137.93 140.05 138.03 139.04 137.47 138.35 C 136.90 137.66 135.89 137.56 135.20 138.12 L 134.42 138.76 C 133.73 139.32 133.63 140.34 134.19 141.02 C 134.76 141.71 135.77 141.82 136.46 141.25 Z M 137.21 140.64 L 138.00 140.02 C 138.70 139.48 138.83 138.47 138.29 137.77 C 137.74 137.06 136.73 136.94 136.03 137.48 L 135.23 138.10 C 134.53 138.64 134.41 139.65 134.95 140.36 C 135.49 141.06 136.50 141.18 137.21 140.64 Z M 137.97 140.04 L 138.77 139.46 C 139.48 138.93 139.63 137.92 139.11 137.21 C 138.58 136.50 137.57 136.34 136.86 136.87 L 136.06 137.46 C 135.35 137.99 135.20 138.99 135.72 139.71 C 136.25 140.42 137.26 140.57 137.97 140.04 Z M 138.73 139.48 L 139.59 138.89 C 140.32 138.38 140.49 137.38 139.99 136.65 C 139.48 135.92 138.48 135.74 137.75 136.25 L 136.90 136.84 C 136.17 137.35 135.99 138.35 136.50 139.08 C 137.00 139.81 138.00 139.99 138.73 139.48 Z M 139.55 138.92 L 140.40 138.36 C 141.15 137.88 141.36 136.88 140.88 136.13 C 140.39 135.39 139.39 135.18 138.65 135.66 L 137.79 136.22 C 137.04 136.70 136.83 137.70 137.32 138.45 C 137.80 139.19 138.80 139.40 139.55 138.92 Z M 140.35 138.40 L 141.19 137.90 C 141.95 137.45 142.20 136.45 141.75 135.69 C 141.29 134.92 140.30 134.67 139.53 135.13 L 138.70 135.62 C 137.93 136.08 137.68 137.07 138.14 137.84 C 138.59 138.60 139.58 138.86 140.35 138.40 Z M 141.12 137.95 L 142.00 137.48 C 142.79 137.06 143.09 136.08 142.67 135.29 C 142.25 134.49 141.27 134.19 140.48 134.61 L 139.60 135.08 C 138.81 135.50 138.51 136.48 138.93 137.28 C 139.35 138.07 140.33 138.37 141.12 137.95 Z M 141.91 137.54 L 142.85 137.11 C 143.68 136.74 144.04 135.77 143.67 134.95 C 143.30 134.13 142.33 133.76 141.51 134.13 L 140.57 134.56 C 139.74 134.93 139.38 135.89 139.75 136.72 C 140.12 137.54 141.09 137.91 141.91 137.54 Z M 142.73 137.18 L 143.63 136.86 C 144.50 136.56 144.95 135.62 144.65 134.76 C 144.34 133.90 143.40 133.44 142.54 133.75 L 141.63 134.06 C 140.77 134.37 140.32 135.31 140.62 136.17 C 140.93 137.03 141.87 137.48 142.73 137.18 Z M 143.45 136.95 L 144.47 136.72 C 145.38 136.52 145.95 135.63 145.75 134.72 C 145.55 133.81 144.66 133.24 143.75 133.44 L 142.73 133.66 C 141.82 133.86 141.25 134.76 141.44 135.66 C 141.64 136.57 142.54 137.14 143.45 136.95 Z M 144.00 136.80 L 144.97 136.86 C 145.92 136.92 146.74 136.20 146.80 135.25 C 146.86 134.29 146.13 133.47 145.18 133.42 L 144.22 133.36 C 143.27 133.30 142.45 134.02 142.39 134.97 C 142.33 135.93 143.05 136.75 144.00 136.80 Z M 143.99 136.55 L 144.65 137.06 C 145.43 137.66 146.55 137.51 147.15 136.73 C 147.75 135.95 147.60 134.83 146.82 134.24 L 146.16 133.73 C 145.38 133.13 144.26 133.28 143.66 134.06 C 143.06 134.84 143.21 135.95 143.99 136.55 Z M 144.05 136.36 L 144.42 137.25 C 144.82 138.19 145.89 138.62 146.82 138.23 C 147.76 137.84 148.20 136.77 147.80 135.83 L 147.43 134.94 C 147.04 134.01 145.96 133.57 145.03 133.96 C 144.10 134.35 143.66 135.43 144.05 136.36 Z M 144.26 136.86 L 144.44 137.93 C 144.62 138.96 145.59 139.64 146.62 139.47 C 147.64 139.29 148.33 138.32 148.15 137.30 L 147.97 136.22 C 147.79 135.20 146.82 134.51 145.79 134.69 C 144.77 134.87 144.08 135.84 144.26 136.86 Z M 144.39 137.72 L 144.44 138.67 C 144.50 139.73 145.41 140.53 146.46 140.47 C 147.52 140.41 148.32 139.51 148.26 138.45 L 148.21 137.50 C 148.15 136.45 147.24 135.64 146.19 135.70 C 145.13 135.77 144.33 136.67 144.39 137.72 Z M 144.42 138.48 L 144.38 139.49 C 144.33 140.56 145.16 141.46 146.23 141.50 C 147.29 141.55 148.19 140.72 148.24 139.66 L 148.28 138.65 C 148.33 137.58 147.50 136.68 146.44 136.63 C 145.37 136.59 144.47 137.41 144.42 138.48 Z M 144.38 139.29 L 144.23 140.31 C 144.07 141.38 144.81 142.37 145.88 142.53 C 146.94 142.68 147.93 141.94 148.09 140.88 L 148.24 139.85 C 148.40 138.79 147.66 137.80 146.59 137.64 C 145.53 137.49 144.54 138.22 144.38 139.29 Z M 144.25 140.14 L 144.03 141.07 C 143.78 142.12 144.43 143.18 145.49 143.43 C 146.54 143.68 147.60 143.02 147.85 141.97 L 148.07 141.05 C 148.32 139.99 147.67 138.94 146.61 138.69 C 145.56 138.44 144.50 139.09 144.25 140.14 Z M 144.05 140.95 L 143.77 141.91 C 143.45 142.95 144.04 144.05 145.09 144.36 C 146.13 144.68 147.23 144.09 147.54 143.04 L 147.83 142.09 C 148.14 141.04 147.55 139.95 146.51 139.63 C 145.47 139.32 144.37 139.91 144.05 140.95 Z M 143.79 141.83 L 143.44 142.81 C 143.08 143.84 143.63 144.97 144.66 145.33 C 145.69 145.69 146.82 145.14 147.18 144.11 L 147.52 143.13 C 147.88 142.10 147.33 140.97 146.30 140.61 C 145.27 140.25 144.15 140.79 143.79 141.83 Z M 143.46 142.76 L 143.09 143.71 C 142.70 144.73 143.22 145.88 144.24 146.27 C 145.26 146.66 146.41 146.15 146.80 145.12 L 147.16 144.17 C 147.55 143.14 147.04 142.00 146.01 141.61 C 144.99 141.22 143.85 141.73 143.46 142.76 Z M 143.10 143.67 L 142.72 144.60 C 142.31 145.61 142.80 146.77 143.82 147.19 C 144.83 147.60 145.99 147.11 146.41 146.10 L 146.79 145.17 C 147.20 144.15 146.71 142.99 145.70 142.57 C 144.68 142.16 143.52 142.65 143.10 143.67 Z M 142.74 144.55 L 142.34 145.47 C 141.89 146.48 142.35 147.66 143.36 148.10 C 144.37 148.54 145.55 148.08 145.99 147.07 L 146.39 146.15 C 146.83 145.14 146.37 143.96 145.37 143.52 C 144.36 143.08 143.18 143.54 142.74 144.55 Z M 142.36 145.42 L 141.93 146.32 C 141.46 147.32 141.89 148.51 142.88 148.98 C 143.88 149.45 145.07 149.02 145.54 148.03 L 145.97 147.12 C 146.44 146.13 146.01 144.93 145.02 144.46 C 144.02 143.99 142.83 144.42 142.36 145.42 Z M 141.96 146.26 L 141.49 147.17 C 140.98 148.15 141.37 149.36 142.35 149.86 C 143.33 150.37 144.54 149.98 145.05 149.00 L 145.52 148.09 C 146.02 147.11 145.64 145.90 144.65 145.39 C 143.67 144.89 142.46 145.27 141.96 146.26 Z M 141.52 147.10 L 141.02 147.99 C 140.48 148.95 140.82 150.17 141.79 150.71 C 142.75 151.26 143.97 150.92 144.51 149.95 L 145.01 149.06 C 145.56 148.10 145.21 146.88 144.25 146.34 C 143.29 145.79 142.07 146.14 141.52 147.10 Z M 141.06 147.92 L 140.54 148.77 C 139.97 149.71 140.26 150.94 141.21 151.52 C 142.15 152.10 143.38 151.80 143.96 150.86 L 144.48 150.02 C 145.06 149.07 144.76 147.84 143.82 147.26 C 142.87 146.68 141.64 146.98 141.06 147.92 Z M 140.58 148.71 L 140.05 149.51 C 139.44 150.43 139.69 151.68 140.61 152.29 C 141.53 152.90 142.78 152.65 143.39 151.72 L 143.92 150.92 C 144.53 150.00 144.28 148.75 143.36 148.14 C 142.44 147.53 141.19 147.78 140.58 148.71 Z M 140.09 149.45 L 139.48 150.30 C 138.84 151.20 139.05 152.45 139.95 153.09 C 140.85 153.74 142.10 153.53 142.74 152.63 L 143.35 151.78 C 143.99 150.88 143.79 149.63 142.89 148.99 C 141.99 148.34 140.73 148.55 140.09 149.45 Z M 139.53 150.24 L 138.91 151.03 C 138.24 151.91 138.40 153.16 139.27 153.84 C 140.14 154.52 141.40 154.36 142.08 153.49 L 142.70 152.69 C 143.37 151.81 143.22 150.56 142.34 149.88 C 141.47 149.20 140.21 149.36 139.53 150.24 Z M 138.96 150.97 L 138.34 151.72 C 137.63 152.56 137.74 153.82 138.58 154.53 C 139.43 155.25 140.69 155.14 141.40 154.29 L 142.03 153.55 C 142.74 152.70 142.63 151.44 141.78 150.73 C 140.94 150.02 139.68 150.13 138.96 150.97 Z M 138.40 151.65 L 137.72 152.40 C 136.97 153.21 137.02 154.47 137.83 155.22 C 138.64 155.96 139.91 155.91 140.65 155.10 L 141.34 154.35 C 142.09 153.54 142.03 152.28 141.22 151.53 C 140.41 150.79 139.15 150.84 138.40 151.65 Z M 137.81 152.32 L 137.08 153.02 C 136.29 153.78 136.26 155.03 137.02 155.82 C 137.78 156.62 139.04 156.64 139.83 155.88 L 140.56 155.18 C 141.35 154.42 141.38 153.17 140.62 152.37 C 139.86 151.58 138.60 151.56 137.81 152.32 Z M 137.21 152.92 L 136.46 153.52 C 135.62 154.21 135.48 155.45 136.17 156.30 C 136.85 157.15 138.10 157.28 138.94 156.59 L 139.70 155.98 C 140.54 155.30 140.67 154.06 139.99 153.21 C 139.30 152.36 138.06 152.23 137.21 152.92 Z M 136.65 153.41 L 135.80 153.96 C 134.89 154.54 134.62 155.75 135.21 156.66 C 135.79 157.57 137.00 157.83 137.91 157.25 L 138.76 156.70 C 139.67 156.12 139.93 154.91 139.35 154.00 C 138.77 153.09 137.56 152.83 136.65 153.41 Z M 136.02 153.86 L 135.12 154.29 C 134.15 154.75 133.74 155.90 134.20 156.86 C 134.66 157.83 135.81 158.24 136.77 157.78 L 137.68 157.35 C 138.64 156.89 139.05 155.74 138.59 154.77 C 138.14 153.81 136.98 153.40 136.02 153.86 Z M 135.37 154.22 L 134.43 154.52 C 133.43 154.84 132.88 155.90 133.19 156.91 C 133.51 157.91 134.58 158.46 135.58 158.15 L 136.52 157.85 C 137.52 157.53 138.07 156.46 137.76 155.46 C 137.44 154.46 136.37 153.90 135.37 154.22 Z M 134.79 154.48 L 133.72 154.61 C 132.70 154.73 131.97 155.65 132.09 156.67 C 132.21 157.69 133.14 158.42 134.16 158.30 L 135.22 158.18 C 136.24 158.06 136.97 157.14 136.85 156.12 C 136.74 155.09 135.81 154.36 134.79 154.48 Z M 134.40 154.71 L 133.53 154.48 C 132.56 154.23 131.57 154.80 131.32 155.77 C 131.07 156.73 131.64 157.72 132.61 157.98 L 133.48 158.21 C 134.45 158.46 135.44 157.88 135.69 156.92 C 135.94 155.95 135.36 154.96 134.40 154.71 Z M 134.43 155.11 L 133.86 154.42 C 133.24 153.67 132.13 153.56 131.38 154.17 C 130.63 154.79 130.52 155.90 131.14 156.65 L 131.71 157.34 C 132.32 158.09 133.43 158.20 134.18 157.59 C 134.93 156.97 135.04 155.86 134.43 155.11 Z M 134.15 155.08 L 133.87 154.07 C 133.62 153.15 132.68 152.62 131.77 152.87 C 130.86 153.12 130.32 154.06 130.57 154.97 L 130.84 155.99 C 131.09 156.90 132.04 157.44 132.95 157.19 C 133.86 156.94 134.40 155.99 134.15 155.08 Z M 133.92 154.40 L 133.85 153.46 C 133.79 152.53 132.98 151.82 132.04 151.88 C 131.10 151.95 130.39 152.76 130.46 153.70 L 130.52 154.64 C 130.59 155.58 131.40 156.28 132.34 156.22 C 133.28 156.15 133.98 155.34 133.92 154.40 Z M 133.87 153.85 L 134.02 152.89 C 134.17 151.94 133.52 151.06 132.58 150.91 C 131.63 150.76 130.75 151.40 130.60 152.35 L 130.44 153.31 C 130.30 154.26 130.94 155.14 131.89 155.29 C 132.83 155.44 133.72 154.80 133.87 153.85 Z M 133.92 153.35 L 134.38 152.34 C 134.79 151.45 134.40 150.40 133.51 149.99 C 132.62 149.58 131.57 149.98 131.16 150.87 L 130.70 151.88 C 130.29 152.77 130.68 153.82 131.57 154.23 C 132.46 154.64 133.51 154.24 133.92 153.35 Z M 134.23 152.69 L 134.93 151.77 C 135.53 150.96 135.36 149.82 134.55 149.21 C 133.75 148.61 132.60 148.78 132.00 149.58 L 131.31 150.51 C 130.71 151.32 130.87 152.46 131.68 153.06 C 132.49 153.67 133.63 153.50 134.23 152.69 Z M 134.74 152.07 L 135.49 151.38 C 136.26 150.68 136.31 149.48 135.60 148.71 C 134.90 147.94 133.70 147.89 132.93 148.60 L 132.18 149.28 C 131.41 149.99 131.36 151.18 132.07 151.95 C 132.78 152.72 133.97 152.78 134.74 152.07 Z M 134.71 151.88 L 135.34 151.71 C 136.39 151.44 137.01 150.37 136.74 149.33 C 136.47 148.28 135.40 147.66 134.35 147.93 L 133.71 148.10 C 132.67 148.37 132.05 149.44 132.32 150.48 C 132.59 151.53 133.66 152.15 134.71 151.88 Z M 133.01 150.64 L 133.35 151.40 C 133.79 152.42 134.98 152.88 136.00 152.43 C 137.02 151.98 137.48 150.79 137.03 149.77 L 136.69 149.01 C 136.24 147.99 135.05 147.53 134.03 147.98 C 133.02 148.43 132.56 149.62 133.01 150.64 Z M 133.13 150.66 L 133.17 151.81 C 133.21 152.95 134.17 153.84 135.30 153.80 C 136.44 153.75 137.33 152.80 137.29 151.66 L 137.24 150.51 C 137.20 149.37 136.25 148.49 135.11 148.53 C 133.97 148.57 133.09 149.52 133.13 150.66 Z M 133.14 151.66 L 133.11 152.61 C 133.07 153.77 133.96 154.73 135.11 154.78 C 136.26 154.82 137.23 153.92 137.28 152.77 L 137.31 151.82 C 137.35 150.66 136.46 149.70 135.31 149.65 C 134.16 149.61 133.19 150.51 133.14 151.66 Z M 133.10 152.53 L 133.03 153.54 C 132.94 154.70 133.80 155.70 134.95 155.79 C 136.11 155.88 137.12 155.02 137.20 153.86 L 137.28 152.85 C 137.37 151.70 136.51 150.69 135.35 150.60 C 134.20 150.52 133.19 151.38 133.10 152.53 Z M 133.02 153.50 L 132.92 154.51 C 132.81 155.67 133.66 156.70 134.82 156.81 C 135.97 156.92 137.00 156.07 137.11 154.92 L 137.21 153.90 C 137.32 152.75 136.47 151.72 135.32 151.61 C 134.16 151.50 133.13 152.34 133.02 153.50 Z M 132.92 154.49 L 132.81 155.50 C 132.69 156.66 133.53 157.70 134.69 157.82 C 135.85 157.95 136.89 157.11 137.01 155.95 L 137.12 154.94 C 137.24 153.78 136.40 152.74 135.24 152.62 C 134.08 152.49 133.04 153.33 132.92 154.49 Z M 132.81 155.48 L 132.69 156.50 C 132.56 157.66 133.39 158.71 134.55 158.84 C 135.71 158.98 136.76 158.14 136.90 156.98 L 137.01 155.97 C 137.15 154.80 136.31 153.75 135.15 153.62 C 133.99 153.49 132.94 154.32 132.81 155.48 Z M 132.69 156.48 L 132.56 157.48 C 132.41 158.65 133.24 159.71 134.40 159.85 C 135.57 160.00 136.63 159.18 136.78 158.01 L 136.90 157.00 C 137.05 155.84 136.22 154.78 135.06 154.63 C 133.89 154.49 132.83 155.31 132.69 156.48 Z M 132.56 157.46 L 132.42 158.46 C 132.26 159.62 133.08 160.70 134.24 160.86 C 135.41 161.02 136.48 160.20 136.64 159.03 L 136.78 158.04 C 136.94 156.87 136.12 155.80 134.96 155.64 C 133.79 155.48 132.72 156.29 132.56 157.46 Z M 132.42 158.45 L 132.28 159.41 C 132.12 160.57 132.93 161.65 134.10 161.82 C 135.26 161.98 136.34 161.17 136.51 160.00 L 136.65 159.04 C 136.81 157.88 136.00 156.80 134.83 156.63 C 133.66 156.47 132.58 157.28 132.42 158.45 Z M 132.27 159.42 L 132.15 160.36 C 131.99 161.53 132.81 162.61 133.98 162.77 C 135.15 162.93 136.23 162.11 136.39 160.94 L 136.52 159.99 C 136.68 158.82 135.86 157.74 134.68 157.58 C 133.51 157.42 132.43 158.24 132.27 159.42 Z M 132.14 160.37 L 132.01 161.35 C 131.86 162.52 132.69 163.60 133.86 163.75 C 135.04 163.90 136.11 163.08 136.27 161.90 L 136.39 160.93 C 136.55 159.75 135.72 158.68 134.54 158.52 C 133.37 158.37 132.29 159.20 132.14 160.37 Z M 132.00 161.35 L 131.87 162.37 C 131.72 163.55 132.55 164.63 133.73 164.78 C 134.91 164.93 135.99 164.10 136.14 162.92 L 136.27 161.90 C 136.43 160.72 135.59 159.64 134.41 159.49 C 133.24 159.34 132.16 160.17 132.00 161.35 Z M 131.87 162.37 L 131.74 163.35 C 131.58 164.54 132.42 165.62 133.60 165.77 C 134.78 165.93 135.86 165.10 136.02 163.91 L 136.15 162.93 C 136.30 161.74 135.47 160.66 134.29 160.51 C 133.11 160.35 132.02 161.18 131.87 162.37 Z M 131.73 163.35 L 131.60 164.32 C 131.45 165.50 132.28 166.59 133.47 166.75 C 134.65 166.90 135.74 166.07 135.90 164.89 L 136.02 163.92 C 136.18 162.73 135.35 161.65 134.16 161.49 C 132.98 161.33 131.89 162.16 131.73 163.35 Z M 131.60 164.32 L 131.47 165.32 C 131.31 166.51 132.14 167.60 133.33 167.76 C 134.52 167.91 135.61 167.08 135.77 165.89 L 135.90 164.89 C 136.06 163.70 135.22 162.61 134.04 162.45 C 132.85 162.29 131.76 163.13 131.60 164.32 Z M 131.46 165.32 L 131.33 166.35 C 131.17 167.55 132.01 168.64 133.20 168.79 C 134.39 168.95 135.48 168.11 135.64 166.92 L 135.77 165.89 C 135.93 164.70 135.09 163.60 133.90 163.45 C 132.71 163.29 131.62 164.13 131.46 165.32 Z M 131.32 166.36 L 131.19 167.35 C 131.04 168.54 131.88 169.63 133.08 169.79 C 134.27 169.94 135.36 169.10 135.52 167.90 L 135.64 166.91 C 135.80 165.72 134.95 164.63 133.76 164.47 C 132.57 164.32 131.47 165.17 131.32 166.36 Z M 131.19 167.35 L 131.06 168.35 C 130.91 169.55 131.76 170.64 132.95 170.79 C 134.15 170.94 135.24 170.10 135.39 168.90 L 135.52 167.90 C 135.67 166.70 134.83 165.61 133.63 165.46 C 132.43 165.31 131.34 166.15 131.19 167.35 Z M 131.06 168.35 L 130.93 169.35 C 130.78 170.54 131.63 171.64 132.83 171.79 C 134.02 171.94 135.12 171.10 135.27 169.90 L 135.40 168.90 C 135.55 167.70 134.70 166.61 133.50 166.46 C 132.31 166.30 131.21 167.15 131.06 168.35 Z M 130.93 169.34 L 130.80 170.34 C 130.65 171.54 131.49 172.64 132.69 172.79 C 133.89 172.95 134.99 172.10 135.14 170.90 L 135.27 169.90 C 135.43 168.70 134.58 167.61 133.38 167.45 C 132.18 167.30 131.09 168.14 130.93 169.34 Z M 130.80 170.33 L 130.67 171.34 C 130.51 172.54 131.35 173.64 132.55 173.80 C 133.75 173.96 134.85 173.12 135.01 171.92 L 135.14 170.91 C 135.30 169.71 134.46 168.61 133.26 168.45 C 132.06 168.29 130.96 169.14 130.80 170.33 Z M 130.67 171.34 L 130.53 172.32 C 130.37 173.52 131.21 174.63 132.41 174.79 C 133.61 174.95 134.71 174.11 134.88 172.91 L 135.01 171.93 C 135.17 170.73 134.33 169.62 133.13 169.46 C 131.93 169.30 130.83 170.14 130.67 171.34 Z M 130.53 172.32 L 130.40 173.28 C 130.23 174.48 131.07 175.59 132.27 175.75 C 133.47 175.92 134.57 175.08 134.74 173.88 L 134.87 172.92 C 135.04 171.72 134.20 170.61 133.01 170.45 C 131.81 170.28 130.70 171.12 130.53 172.32 Z M 130.40 173.28 L 130.28 174.13 C 130.11 175.33 130.94 176.44 132.14 176.61 C 133.34 176.78 134.45 175.94 134.62 174.75 L 134.74 173.89 C 134.91 172.69 134.07 171.58 132.88 171.41 C 131.68 171.24 130.57 172.08 130.40 173.28 Z M 130.28 174.13 L 130.16 175.02 C 129.99 176.22 130.82 177.33 132.02 177.49 C 133.21 177.66 134.32 176.83 134.49 175.63 L 134.62 174.75 C 134.79 173.55 133.95 172.44 132.76 172.27 C 131.56 172.10 130.45 172.94 130.28 174.13 Z M 130.16 175.02 L 130.02 176.02 C 129.85 177.22 130.68 178.32 131.88 178.49 C 133.08 178.66 134.18 177.82 134.35 176.63 L 134.49 175.63 C 134.66 174.43 133.82 173.33 132.63 173.16 C 131.43 172.99 130.32 173.83 130.16 175.02 Z M 130.02 176.03 L 129.86 177.19 C 129.70 178.39 130.53 179.49 131.73 179.65 C 132.92 179.82 134.03 178.98 134.19 177.79 L 134.35 176.62 C 134.51 175.42 133.68 174.32 132.48 174.16 C 131.29 173.99 130.18 174.83 130.02 176.03 Z M 129.86 177.20 L 129.73 178.20 C 129.57 179.40 130.41 180.50 131.60 180.66 C 132.80 180.82 133.89 179.98 134.05 178.78 L 134.19 177.78 C 134.35 176.58 133.51 175.48 132.31 175.32 C 131.12 175.16 130.02 176.00 129.86 177.20 Z M 129.73 178.22 L 129.60 179.23 C 129.44 180.42 130.29 181.52 131.48 181.67 C 132.68 181.82 133.77 180.98 133.92 179.78 L 134.05 178.77 C 134.21 177.58 133.36 176.48 132.17 176.33 C 130.97 176.18 129.88 177.02 129.73 178.22 Z M 129.60 179.25 L 129.47 180.30 C 129.33 181.50 130.18 182.58 131.38 182.72 C 132.57 182.86 133.66 182.01 133.80 180.81 L 133.92 179.76 C 134.07 178.57 133.21 177.49 132.02 177.34 C 130.82 177.20 129.74 178.06 129.60 179.25 Z M 129.47 180.33 L 129.36 181.38 C 129.24 182.57 130.10 183.64 131.30 183.77 C 132.49 183.89 133.56 183.03 133.69 181.83 L 133.80 180.78 C 133.92 179.59 133.06 178.52 131.86 178.39 C 130.67 178.27 129.60 179.14 129.47 180.33 Z M 129.36 181.42 L 129.28 182.42 C 129.18 183.62 130.06 184.67 131.26 184.77 C 132.46 184.87 133.51 183.98 133.61 182.79 L 133.69 181.79 C 133.79 180.59 132.90 179.54 131.71 179.44 C 130.51 179.34 129.46 180.23 129.36 181.42 Z M 129.27 182.49 L 129.23 183.40 C 129.16 184.60 130.08 185.62 131.28 185.68 C 132.48 185.74 133.50 184.83 133.56 183.63 L 133.61 182.72 C 133.67 181.52 132.75 180.50 131.56 180.44 C 130.36 180.37 129.34 181.29 129.27 182.49 Z M 129.25 183.54 L 129.27 184.78 C 129.28 185.97 130.25 186.91 131.43 186.90 C 132.62 186.89 133.56 185.92 133.55 184.74 L 133.54 183.49 C 133.52 182.31 132.55 181.36 131.37 181.37 C 130.19 181.38 129.24 182.35 129.25 183.54 Z M 129.33 184.99 L 129.44 185.99 C 129.57 187.13 130.60 187.96 131.75 187.83 C 132.89 187.70 133.72 186.67 133.59 185.53 L 133.48 184.53 C 133.36 183.38 132.32 182.56 131.18 182.68 C 130.03 182.81 129.21 183.84 129.33 184.99 Z M 129.53 186.16 L 129.70 186.99 C 129.92 188.09 131.00 188.80 132.10 188.57 C 133.19 188.35 133.90 187.28 133.68 186.18 L 133.51 185.35 C 133.28 184.25 132.21 183.54 131.11 183.77 C 130.01 183.99 129.30 185.07 129.53 186.16 Z M 129.76 187.06 L 129.86 187.46 C 130.12 188.52 131.19 189.17 132.26 188.91 C 133.33 188.65 133.98 187.57 133.72 186.51 L 133.62 186.11 C 133.36 185.04 132.28 184.39 131.21 184.65 C 130.15 184.92 129.50 185.99 129.76 187.06 Z"
      fill="black"
      fill-rule="nonzero" /><path d="M 150.34 156.94 L 151.25 156.55 C 152.20 156.15 152.63 155.06 152.23 154.12 C 151.83 153.18 150.74 152.74 149.80 153.14 L 148.88 153.54 C 147.94 153.94 147.50 155.03 147.90 155.97 C 148.31 156.91 149.39 157.35 150.34 156.94 Z M 151.28 156.61 L 152.20 156.22 C 153.18 155.80 153.63 154.67 153.21 153.70 C 152.80 152.72 151.67 152.27 150.69 152.69 L 149.77 153.08 C 148.79 153.50 148.34 154.63 148.76 155.60 C 149.18 156.58 150.31 157.03 151.28 156.61 Z M 152.22 156.26 L 152.36 156.20 C 153.36 155.77 153.82 154.62 153.40 153.62 C 152.97 152.62 151.82 152.16 150.82 152.59 L 150.67 152.65 C 149.68 153.07 149.21 154.23 149.64 155.23 C 150.07 156.22 151.22 156.69 152.22 156.26 Z"
      fill="black"
      fill-rule="nonzero" /><path d="M 158.55 139.86 L 158.69 140.83 C 158.82 141.70 159.63 142.30 160.49 142.17 C 161.36 142.04 161.96 141.23 161.83 140.36 L 161.69 139.39 C 161.56 138.53 160.75 137.93 159.88 138.06 C 159.02 138.19 158.42 138.99 158.55 139.86 Z M 158.68 140.80 L 158.81 141.80 C 158.92 142.67 159.72 143.29 160.59 143.18 C 161.47 143.06 162.09 142.26 161.97 141.39 L 161.85 140.39 C 161.73 139.52 160.93 138.90 160.06 139.01 C 159.18 139.13 158.56 139.93 158.68 140.80 Z M 158.79 141.74 L 158.88 142.71 C 158.96 143.59 159.75 144.24 160.63 144.16 C 161.52 144.08 162.16 143.29 162.08 142.41 L 161.99 141.44 C 161.91 140.56 161.12 139.91 160.24 139.99 C 159.35 140.07 158.71 140.86 158.79 141.74 Z M 158.86 142.65 L 158.92 143.60 C 158.97 144.49 159.74 145.18 160.63 145.12 C 161.53 145.07 162.21 144.30 162.16 143.41 L 162.10 142.46 C 162.05 141.57 161.28 140.89 160.39 140.94 C 159.49 140.99 158.81 141.76 158.86 142.65 Z M 158.90 143.56 L 158.93 144.59 C 158.96 145.49 159.72 146.20 160.62 146.17 C 161.53 146.14 162.24 145.39 162.21 144.48 L 162.17 143.45 C 162.14 142.55 161.39 141.84 160.48 141.87 C 159.58 141.90 158.87 142.65 158.90 143.56 Z M 158.92 144.56 L 158.93 145.61 C 158.95 146.53 159.70 147.26 160.62 147.24 C 161.53 147.23 162.26 146.47 162.24 145.56 L 162.23 144.51 C 162.21 143.60 161.46 142.87 160.54 142.88 C 159.63 142.90 158.90 143.65 158.92 144.56 Z M 158.91 145.60 L 158.92 146.61 C 158.93 147.54 159.69 148.28 160.61 148.27 C 161.53 148.27 162.28 147.51 162.27 146.59 L 162.26 145.57 C 162.25 144.65 161.50 143.91 160.57 143.91 C 159.65 143.92 158.91 144.68 158.91 145.60 Z M 158.90 146.61 L 158.91 147.63 C 158.91 148.57 159.67 149.32 160.60 149.32 C 161.54 149.32 162.29 148.56 162.29 147.62 L 162.29 146.60 C 162.28 145.66 161.52 144.91 160.59 144.91 C 159.66 144.91 158.90 145.67 158.90 146.61 Z M 158.89 147.63 L 158.89 148.61 C 158.89 149.56 159.66 150.32 160.60 150.32 C 161.55 150.32 162.31 149.55 162.31 148.61 L 162.31 147.63 C 162.31 146.68 161.54 145.92 160.60 145.92 C 159.65 145.92 158.89 146.68 158.89 147.63 Z M 158.87 148.61 L 158.87 149.69 C 158.87 150.64 159.64 151.41 160.59 151.42 C 161.55 151.42 162.32 150.65 162.32 149.70 L 162.32 148.62 C 162.33 147.66 161.56 146.89 160.60 146.89 C 159.65 146.88 158.88 147.65 158.87 148.61 Z M 158.86 149.65 L 158.84 150.64 C 158.81 151.60 159.57 152.39 160.52 152.42 C 161.48 152.45 162.28 151.69 162.31 150.73 L 162.33 149.74 C 162.36 148.78 161.60 147.98 160.64 147.96 C 159.68 147.93 158.89 148.69 158.86 149.65 Z M 158.83 150.54 L 158.75 151.45 C 158.67 152.41 159.38 153.26 160.35 153.34 C 161.31 153.42 162.15 152.71 162.23 151.75 L 162.31 150.83 C 162.39 149.87 161.68 149.03 160.72 148.95 C 159.76 148.86 158.91 149.58 158.83 150.54 Z M 158.77 151.30 L 158.59 152.30 C 158.42 153.26 159.06 154.17 160.01 154.33 C 160.96 154.50 161.87 153.87 162.04 152.91 L 162.22 151.90 C 162.39 150.95 161.75 150.04 160.80 149.87 C 159.84 149.70 158.93 150.34 158.77 151.30 Z M 158.61 152.16 L 158.36 153.13 C 158.12 154.07 158.68 155.03 159.62 155.27 C 160.56 155.52 161.52 154.95 161.77 154.01 L 162.02 153.05 C 162.26 152.11 161.70 151.15 160.76 150.91 C 159.82 150.66 158.86 151.22 158.61 152.16 Z M 158.38 153.03 L 158.08 153.97 C 157.78 154.90 158.29 155.90 159.22 156.20 C 160.15 156.49 161.14 155.98 161.44 155.06 L 161.74 154.11 C 162.04 153.18 161.53 152.19 160.61 151.89 C 159.68 151.59 158.68 152.10 158.38 153.03 Z M 158.12 153.87 L 157.75 154.80 C 157.39 155.70 157.84 156.73 158.75 157.09 C 159.66 157.44 160.68 157.00 161.04 156.09 L 161.40 155.16 C 161.76 154.25 161.31 153.23 160.41 152.87 C 159.50 152.52 158.47 152.96 158.12 153.87 Z M 157.83 154.64 L 157.33 155.60 C 156.89 156.46 157.23 157.52 158.10 157.97 C 158.97 158.41 160.03 158.07 160.47 157.21 L 160.96 156.25 C 161.41 155.38 161.07 154.32 160.20 153.87 C 159.33 153.43 158.27 153.77 157.83 154.64 Z M 157.51 155.34 L 156.86 156.19 C 156.28 156.97 156.43 158.06 157.20 158.65 C 157.97 159.23 159.07 159.08 159.65 158.31 L 160.30 157.46 C 160.88 156.69 160.73 155.59 159.96 155.00 C 159.19 154.42 158.09 154.57 157.51 155.34 Z M 159.26 155.84 L 158.96 155.62 C 158.17 155.06 157.09 155.25 156.54 156.03 C 155.98 156.81 156.16 157.89 156.95 158.45 L 157.25 158.67 C 158.04 159.22 159.12 159.04 159.67 158.26 C 160.23 157.48 160.05 156.39 159.26 155.84 Z M 159.66 157.27 L 159.83 156.09 C 159.96 155.15 159.30 154.27 158.36 154.14 C 157.41 154.01 156.54 154.67 156.40 155.61 L 156.24 156.79 C 156.11 157.74 156.77 158.61 157.71 158.74 C 158.66 158.88 159.53 158.22 159.66 157.27 Z M 159.75 156.41 L 160.08 155.45 C 160.39 154.55 159.91 153.57 159.00 153.26 C 158.10 152.95 157.12 153.43 156.81 154.33 L 156.48 155.29 C 156.17 156.19 156.66 157.18 157.56 157.48 C 158.46 157.79 159.44 157.31 159.75 156.41 Z M 160.03 155.59 L 160.44 154.65 C 160.82 153.78 160.42 152.76 159.55 152.38 C 158.68 151.99 157.66 152.39 157.27 153.26 L 156.86 154.20 C 156.48 155.07 156.88 156.09 157.75 156.47 C 158.62 156.86 159.64 156.46 160.03 155.59 Z M 160.41 154.72 L 160.86 153.81 C 161.28 152.95 160.93 151.92 160.07 151.49 C 159.21 151.07 158.18 151.42 157.76 152.28 L 157.30 153.20 C 156.88 154.05 157.24 155.09 158.09 155.51 C 158.95 155.93 159.98 155.58 160.41 154.72 Z M 160.84 153.84 L 161.31 152.93 C 161.76 152.08 161.43 151.04 160.58 150.60 C 159.73 150.16 158.69 150.49 158.25 151.33 L 157.77 152.25 C 157.33 153.09 157.66 154.14 158.51 154.58 C 159.36 155.02 160.40 154.69 160.84 153.84 Z M 161.30 152.96 L 161.77 152.10 C 162.23 151.26 161.92 150.21 161.08 149.75 C 160.24 149.29 159.19 149.60 158.73 150.44 L 158.26 151.30 C 157.80 152.14 158.11 153.19 158.95 153.65 C 159.79 154.11 160.84 153.80 161.30 152.96 Z M 161.76 152.13 L 162.25 151.28 C 162.72 150.45 162.43 149.39 161.60 148.91 C 160.77 148.44 159.71 148.72 159.24 149.55 L 158.75 150.40 C 158.27 151.24 158.56 152.30 159.39 152.77 C 160.22 153.25 161.28 152.96 161.76 152.13 Z M 162.23 151.31 L 162.74 150.46 C 163.23 149.63 162.96 148.57 162.14 148.08 C 161.31 147.58 160.24 147.85 159.75 148.68 L 159.25 149.53 C 158.76 150.35 159.03 151.42 159.85 151.91 C 160.68 152.40 161.74 152.13 162.23 151.31 Z M 162.73 150.47 L 163.26 149.61 C 163.76 148.79 163.50 147.72 162.68 147.22 C 161.86 146.72 160.78 146.98 160.28 147.80 L 159.76 148.66 C 159.26 149.48 159.52 150.56 160.34 151.06 C 161.16 151.56 162.23 151.30 162.73 150.47 Z M 163.26 149.62 L 163.77 148.78 C 164.28 147.96 164.02 146.89 163.20 146.38 C 162.38 145.88 161.30 146.13 160.80 146.95 L 160.28 147.79 C 159.78 148.61 160.04 149.69 160.86 150.19 C 161.68 150.70 162.75 150.44 163.26 149.62 Z M 163.77 148.79 L 164.27 147.99 C 164.78 147.17 164.53 146.09 163.70 145.58 C 162.88 145.07 161.81 145.32 161.30 146.15 L 160.80 146.95 C 160.29 147.77 160.54 148.85 161.37 149.35 C 162.19 149.86 163.26 149.61 163.77 148.79 Z M 164.26 148.01 L 164.80 147.16 C 165.32 146.34 165.08 145.26 164.26 144.74 C 163.45 144.22 162.36 144.46 161.84 145.28 L 161.30 146.13 C 160.79 146.94 161.03 148.03 161.84 148.54 C 162.66 149.06 163.74 148.82 164.26 148.01 Z M 164.79 147.18 L 165.38 146.29 C 165.91 145.48 165.68 144.39 164.87 143.86 C 164.06 143.33 162.98 143.55 162.44 144.36 L 161.86 145.25 C 161.32 146.06 161.55 147.15 162.36 147.68 C 163.17 148.22 164.26 147.99 164.79 147.18 Z M 165.36 146.31 L 165.93 145.48 C 166.48 144.68 166.27 143.58 165.47 143.04 C 164.66 142.49 163.57 142.70 163.03 143.50 L 162.46 144.34 C 161.91 145.14 162.12 146.23 162.92 146.78 C 163.72 147.32 164.82 147.12 165.36 146.31 Z M 165.92 145.50 L 166.51 144.65 C 167.07 143.86 166.88 142.76 166.08 142.20 C 165.29 141.64 164.19 141.84 163.63 142.63 L 163.04 143.48 C 162.48 144.28 162.67 145.37 163.47 145.93 C 164.26 146.49 165.36 146.29 165.92 145.50 Z M 166.50 144.67 L 167.08 143.87 C 167.65 143.08 167.48 141.98 166.69 141.41 C 165.90 140.84 164.80 141.01 164.23 141.80 L 163.65 142.61 C 163.08 143.40 163.25 144.50 164.04 145.07 C 164.83 145.64 165.93 145.46 166.50 144.67 Z M 167.06 143.90 L 167.70 143.06 C 168.29 142.28 168.13 141.18 167.36 140.59 C 166.58 140.00 165.47 140.15 164.88 140.93 L 164.25 141.77 C 163.66 142.54 163.81 143.65 164.59 144.24 C 165.37 144.83 166.48 144.68 167.06 143.90 Z M 167.67 143.12 L 168.32 142.32 C 168.94 141.56 168.83 140.44 168.07 139.82 C 167.31 139.20 166.19 139.31 165.57 140.07 L 164.92 140.87 C 164.29 141.63 164.41 142.75 165.17 143.37 C 165.93 143.99 167.05 143.88 167.67 143.12 Z M 168.28 142.39 L 168.89 141.72 C 169.55 140.98 169.49 139.85 168.76 139.19 C 168.02 138.53 166.89 138.58 166.23 139.32 L 165.62 139.99 C 164.95 140.73 165.01 141.86 165.75 142.52 C 166.48 143.19 167.61 143.13 168.28 142.39 Z M 168.81 141.83 L 169.59 141.09 C 170.31 140.40 170.34 139.25 169.65 138.53 C 168.96 137.80 167.81 137.77 167.08 138.46 L 166.31 139.20 C 165.58 139.89 165.55 141.04 166.24 141.77 C 166.93 142.50 168.08 142.52 168.81 141.83 Z M 169.16 141.44 L 169.98 141.03 C 170.90 140.58 171.27 139.46 170.82 138.55 C 170.36 137.63 169.25 137.26 168.33 137.71 L 167.51 138.12 C 166.59 138.57 166.22 139.68 166.67 140.60 C 167.13 141.52 168.24 141.89 169.16 141.44 Z M 168.43 141.11 L 169.15 141.41 C 170.11 141.80 171.21 141.35 171.61 140.39 C 172.01 139.43 171.55 138.33 170.59 137.93 L 169.88 137.63 C 168.92 137.23 167.82 137.69 167.42 138.65 C 167.02 139.61 167.47 140.71 168.43 141.11 Z M 168.26 140.68 L 168.81 141.55 C 169.37 142.44 170.54 142.71 171.43 142.15 C 172.32 141.59 172.58 140.42 172.03 139.54 L 171.48 138.66 C 170.92 137.77 169.75 137.50 168.86 138.06 C 167.97 138.62 167.70 139.79 168.26 140.68 Z M 168.58 141.05 L 168.86 142.06 C 169.13 143.07 170.18 143.67 171.20 143.40 C 172.21 143.12 172.81 142.07 172.54 141.05 L 172.26 140.04 C 171.98 139.03 170.93 138.43 169.92 138.71 C 168.90 138.98 168.30 140.03 168.58 141.05 Z M 168.79 141.75 L 168.89 142.72 C 169.00 143.77 169.94 144.54 170.99 144.43 C 172.04 144.32 172.80 143.38 172.70 142.33 L 172.60 141.36 C 172.49 140.31 171.55 139.55 170.50 139.65 C 169.45 139.76 168.69 140.70 168.79 141.75 Z M 168.88 142.56 L 168.90 143.60 C 168.92 144.66 169.79 145.50 170.85 145.48 C 171.91 145.46 172.75 144.58 172.73 143.53 L 172.71 142.49 C 172.69 141.43 171.82 140.59 170.76 140.61 C 169.70 140.63 168.86 141.50 168.88 142.56 Z M 168.89 143.54 L 168.88 144.51 C 168.87 145.58 169.72 146.45 170.78 146.46 C 171.84 146.47 172.71 145.62 172.72 144.56 L 172.74 143.59 C 172.75 142.53 171.90 141.65 170.84 141.64 C 169.78 141.63 168.91 142.48 168.89 143.54 Z M 168.88 144.48 L 168.85 145.40 C 168.82 146.46 169.65 147.35 170.72 147.38 C 171.78 147.41 172.67 146.58 172.70 145.51 L 172.73 144.60 C 172.76 143.53 171.92 142.65 170.86 142.61 C 169.80 142.58 168.91 143.42 168.88 144.48 Z M 168.85 145.34 L 168.78 146.33 C 168.72 147.39 169.53 148.31 170.60 148.37 C 171.66 148.44 172.58 147.63 172.64 146.56 L 172.70 145.57 C 172.77 144.51 171.96 143.59 170.89 143.53 C 169.83 143.46 168.91 144.27 168.85 145.34 Z M 168.79 146.25 L 168.68 147.36 C 168.57 148.42 169.35 149.37 170.41 149.48 C 171.48 149.58 172.43 148.80 172.53 147.74 L 172.64 146.64 C 172.75 145.57 171.97 144.62 170.90 144.52 C 169.84 144.41 168.89 145.19 168.79 146.25 Z M 168.68 147.29 L 168.54 148.30 C 168.40 149.36 169.15 150.34 170.21 150.48 C 171.27 150.63 172.25 149.88 172.39 148.82 L 172.53 147.81 C 172.67 146.74 171.93 145.77 170.86 145.62 C 169.80 145.48 168.82 146.23 168.68 147.29 Z M 168.55 148.25 L 168.38 149.27 C 168.22 150.33 168.94 151.33 170.00 151.50 C 171.06 151.67 172.06 150.94 172.23 149.88 L 172.39 148.86 C 172.56 147.80 171.83 146.80 170.77 146.64 C 169.71 146.47 168.71 147.19 168.55 148.25 Z M 168.39 149.24 L 168.21 150.27 C 168.02 151.33 168.73 152.34 169.79 152.53 C 170.85 152.71 171.86 152.00 172.05 150.94 L 172.23 149.91 C 172.41 148.85 171.70 147.84 170.64 147.66 C 169.58 147.47 168.57 148.18 168.39 149.24 Z M 168.21 150.24 L 168.02 151.24 C 167.82 152.29 168.51 153.32 169.57 153.52 C 170.63 153.72 171.66 153.02 171.86 151.96 L 172.04 150.97 C 172.25 149.91 171.55 148.89 170.49 148.69 C 169.43 148.49 168.41 149.18 168.21 150.24 Z M 168.02 151.21 L 167.83 152.15 C 167.61 153.21 168.30 154.24 169.36 154.46 C 170.42 154.67 171.45 153.99 171.66 152.93 L 171.86 151.99 C 172.07 150.93 171.38 149.90 170.33 149.68 C 169.27 149.47 168.23 150.15 168.02 151.21 Z M 167.83 152.13 L 167.53 153.56 C 167.30 154.61 167.97 155.65 169.03 155.88 C 170.09 156.11 171.13 155.43 171.35 154.38 L 171.66 152.95 C 171.89 151.89 171.21 150.85 170.16 150.63 C 169.10 150.40 168.06 151.07 167.83 152.13 Z M 167.51 153.66 L 167.40 154.36 C 167.23 155.42 167.96 156.43 169.02 156.60 C 170.09 156.77 171.09 156.04 171.26 154.97 L 171.37 154.28 C 171.54 153.21 170.81 152.21 169.75 152.04 C 168.68 151.87 167.68 152.59 167.51 153.66 Z M 170.71 156.00 L 170.95 155.76 C 171.69 154.99 171.67 153.78 170.91 153.04 C 170.14 152.30 168.93 152.32 168.19 153.08 L 167.95 153.33 C 167.21 154.09 167.23 155.31 167.99 156.05 C 168.75 156.78 169.97 156.77 170.71 156.00 Z M 171.21 155.27 L 171.78 154.18 C 172.25 153.28 171.90 152.16 170.99 151.69 C 170.09 151.22 168.97 151.57 168.50 152.47 L 167.93 153.56 C 167.46 154.47 167.81 155.58 168.71 156.06 C 169.62 156.53 170.73 156.18 171.21 155.27 Z M 171.74 154.14 L 172.23 153.18 C 172.67 152.30 172.32 151.22 171.44 150.77 C 170.56 150.32 169.48 150.67 169.03 151.55 L 168.54 152.51 C 168.09 153.40 168.44 154.48 169.33 154.92 C 170.21 155.37 171.29 155.02 171.74 154.14 Z M 172.21 153.18 L 172.66 152.29 C 173.11 151.42 172.76 150.34 171.89 149.90 C 171.01 149.45 169.94 149.80 169.50 150.67 L 169.04 151.56 C 168.60 152.43 168.94 153.50 169.82 153.95 C 170.69 154.40 171.76 154.05 172.21 153.18 Z M 172.66 152.27 L 173.12 151.36 C 173.56 150.49 173.20 149.43 172.33 148.99 C 171.46 148.55 170.39 148.90 169.96 149.78 L 169.50 150.69 C 169.06 151.56 169.41 152.62 170.29 153.06 C 171.16 153.50 172.22 153.15 172.66 152.27 Z M 173.12 151.34 L 173.55 150.46 C 173.98 149.58 173.62 148.52 172.74 148.10 C 171.86 147.67 170.81 148.04 170.38 148.91 L 169.95 149.80 C 169.52 150.68 169.89 151.73 170.77 152.16 C 171.64 152.58 172.70 152.22 173.12 151.34 Z M 173.57 150.43 L 173.99 149.52 C 174.40 148.64 174.02 147.59 173.13 147.18 C 172.25 146.77 171.20 147.15 170.79 148.04 L 170.37 148.94 C 169.96 149.82 170.34 150.87 171.22 151.29 C 172.11 151.70 173.16 151.31 173.57 150.43 Z M 174.01 149.49 L 174.41 148.56 C 174.81 147.67 174.40 146.62 173.51 146.23 C 172.61 145.84 171.57 146.25 171.18 147.14 L 170.77 148.07 C 170.38 148.96 170.79 150.00 171.68 150.40 C 172.57 150.79 173.61 150.38 174.01 149.49 Z M 174.43 148.52 L 174.81 147.60 C 175.18 146.70 174.75 145.66 173.84 145.29 C 172.94 144.92 171.91 145.35 171.53 146.26 L 171.16 147.18 C 170.79 148.08 171.22 149.12 172.12 149.49 C 173.03 149.86 174.06 149.43 174.43 148.52 Z M 174.83 147.57 L 175.19 146.64 C 175.55 145.73 175.09 144.70 174.18 144.34 C 173.26 143.99 172.23 144.44 171.87 145.36 L 171.51 146.29 C 171.16 147.20 171.61 148.23 172.53 148.59 C 173.45 148.94 174.48 148.49 174.83 147.57 Z M 175.21 146.63 L 175.56 145.68 C 175.91 144.76 175.44 143.73 174.51 143.38 C 173.59 143.03 172.55 143.50 172.21 144.43 L 171.86 145.37 C 171.51 146.30 171.98 147.33 172.91 147.68 C 173.83 148.02 174.86 147.55 175.21 146.63 Z M 175.57 145.68 L 175.92 144.72 C 176.27 143.79 175.79 142.76 174.86 142.41 C 173.92 142.07 172.89 142.55 172.55 143.48 L 172.20 144.44 C 171.85 145.37 172.33 146.40 173.26 146.75 C 174.20 147.09 175.23 146.61 175.57 145.68 Z M 175.93 144.72 L 176.28 143.77 C 176.62 142.83 176.14 141.79 175.20 141.45 C 174.26 141.11 173.22 141.59 172.88 142.53 L 172.54 143.49 C 172.20 144.42 172.68 145.46 173.62 145.80 C 174.56 146.14 175.59 145.66 175.93 144.72 Z M 176.29 143.76 L 176.63 142.82 C 176.96 141.87 176.47 140.84 175.53 140.50 C 174.58 140.16 173.54 140.66 173.21 141.60 L 172.87 142.54 C 172.54 143.49 173.03 144.52 173.97 144.86 C 174.92 145.20 175.96 144.70 176.29 143.76 Z M 176.64 142.80 L 176.97 141.85 C 177.29 140.90 176.79 139.86 175.84 139.54 C 174.88 139.21 173.85 139.72 173.52 140.67 L 173.19 141.62 C 172.87 142.57 173.37 143.61 174.32 143.93 C 175.28 144.26 176.31 143.75 176.64 142.80 Z M 176.98 141.84 L 177.31 140.85 C 177.63 139.89 177.11 138.86 176.15 138.54 C 175.19 138.22 174.16 138.74 173.84 139.69 L 173.51 140.68 C 173.19 141.64 173.71 142.68 174.67 143.00 C 175.62 143.31 176.66 142.80 176.98 141.84 Z M 177.31 140.85 L 177.62 139.93 C 177.94 138.97 177.43 137.93 176.46 137.61 C 175.50 137.29 174.46 137.80 174.14 138.76 L 173.83 139.69 C 173.51 140.65 174.03 141.69 174.99 142.01 C 175.95 142.33 176.99 141.81 177.31 140.85 Z M 177.61 139.97 L 177.94 139.05 C 178.29 138.09 177.79 137.04 176.83 136.70 C 175.88 136.35 174.82 136.85 174.48 137.81 L 174.15 138.73 C 173.81 139.68 174.31 140.74 175.26 141.08 C 176.22 141.42 177.27 140.92 177.61 139.97 Z M 177.91 139.14 L 178.30 138.23 C 178.69 137.29 178.25 136.21 177.31 135.81 C 176.37 135.42 175.29 135.86 174.90 136.80 L 174.51 137.72 C 174.12 138.65 174.56 139.73 175.50 140.13 C 176.44 140.52 177.52 140.08 177.91 139.14 Z M 178.23 138.38 L 178.70 137.50 C 179.18 136.60 178.83 135.48 177.93 135.00 C 177.03 134.52 175.91 134.86 175.43 135.76 L 174.96 136.64 C 174.48 137.55 174.83 138.66 175.73 139.14 C 176.63 139.62 177.75 139.28 178.23 138.38 Z M 178.57 137.74 L 179.25 136.82 C 179.86 135.99 179.68 134.82 178.85 134.21 C 178.02 133.60 176.85 133.77 176.23 134.61 L 175.56 135.52 C 174.95 136.35 175.12 137.52 175.96 138.14 C 176.79 138.75 177.96 138.57 178.57 137.74 Z M 178.65 137.40 L 179.35 137.02 C 180.27 136.52 180.62 135.36 180.12 134.43 C 179.62 133.50 178.46 133.16 177.53 133.66 L 176.83 134.03 C 175.90 134.53 175.56 135.69 176.06 136.62 C 176.56 137.55 177.72 137.90 178.65 137.40 Z M 177.20 136.85 L 177.81 137.35 C 178.64 138.03 179.87 137.91 180.56 137.08 C 181.24 136.25 181.12 135.01 180.29 134.33 L 179.68 133.83 C 178.85 133.14 177.62 133.26 176.93 134.09 C 176.25 134.93 176.37 136.16 177.20 136.85 Z M 177.22 136.65 L 177.69 137.71 C 178.14 138.72 179.33 139.18 180.34 138.73 C 181.35 138.28 181.80 137.09 181.35 136.08 L 180.88 135.02 C 180.43 134.01 179.24 133.56 178.23 134.01 C 177.22 134.46 176.77 135.64 177.22 136.65 Z M 177.56 137.45 L 177.83 138.41 C 178.14 139.49 179.27 140.12 180.35 139.81 C 181.43 139.50 182.06 138.37 181.75 137.29 L 181.48 136.34 C 181.17 135.26 180.04 134.63 178.96 134.94 C 177.88 135.25 177.25 136.37 177.56 137.45 Z M 177.78 138.27 L 177.98 139.25 C 178.21 140.36 179.30 141.07 180.41 140.84 C 181.52 140.61 182.24 139.52 182.01 138.41 L 181.80 137.43 C 181.57 136.32 180.48 135.61 179.37 135.84 C 178.26 136.07 177.55 137.16 177.78 138.27 Z M 177.95 139.17 L 178.12 140.16 C 178.31 141.29 179.38 142.05 180.50 141.86 C 181.63 141.67 182.39 140.60 182.20 139.47 L 182.04 138.49 C 181.85 137.36 180.78 136.60 179.65 136.79 C 178.52 136.98 177.76 138.05 177.95 139.17 Z M 178.10 140.12 L 178.24 141.10 C 178.41 142.24 179.47 143.02 180.61 142.85 C 181.75 142.68 182.54 141.62 182.37 140.48 L 182.22 139.51 C 182.06 138.37 180.99 137.58 179.85 137.75 C 178.72 137.92 177.93 138.98 178.10 140.12 Z M 178.22 141.06 L 178.36 142.07 C 178.51 143.22 179.56 144.03 180.71 143.88 C 181.86 143.73 182.67 142.67 182.52 141.52 L 182.39 140.52 C 182.24 139.37 181.18 138.56 180.03 138.71 C 178.88 138.86 178.07 139.91 178.22 141.06 Z M 178.34 142.04 L 178.45 143.03 C 178.58 144.18 179.63 145.02 180.79 144.88 C 181.95 144.75 182.78 143.70 182.65 142.54 L 182.53 141.56 C 182.40 140.40 181.35 139.56 180.20 139.70 C 179.04 139.83 178.21 140.88 178.34 142.04 Z M 178.44 143.01 L 178.54 144.00 C 178.67 145.16 179.71 146.01 180.88 145.89 C 182.04 145.76 182.89 144.72 182.77 143.55 L 182.66 142.56 C 182.54 141.40 181.49 140.55 180.33 140.67 C 179.16 140.80 178.32 141.84 178.44 143.01 Z M 178.53 144.00 L 178.64 145.01 C 178.76 146.18 179.81 147.03 180.98 146.91 C 182.15 146.78 183.00 145.74 182.88 144.56 L 182.78 143.55 C 182.65 142.38 181.60 141.53 180.43 141.65 C 179.26 141.78 178.41 142.83 178.53 144.00 Z M 178.63 145.02 L 178.74 146.04 C 178.87 147.21 179.93 148.06 181.11 147.93 C 182.29 147.80 183.13 146.74 183.00 145.56 L 182.89 144.55 C 182.76 143.37 181.70 142.52 180.52 142.65 C 179.35 142.78 178.50 143.84 178.63 145.02 Z M 178.73 146.05 L 178.85 147.05 C 178.98 148.24 180.05 149.08 181.23 148.95 C 182.42 148.81 183.26 147.74 183.13 146.56 L 183.01 145.55 C 182.88 144.37 181.81 143.52 180.63 143.66 C 179.44 143.80 178.60 144.86 178.73 146.05 Z M 178.84 147.05 L 178.94 148.02 C 179.08 149.21 180.15 150.07 181.34 149.94 C 182.52 149.81 183.38 148.73 183.25 147.55 L 183.14 146.57 C 183.01 145.38 181.94 144.52 180.75 144.66 C 179.56 144.79 178.70 145.86 178.84 147.05 Z M 178.93 148.00 L 179.03 148.99 C 179.15 150.18 180.21 151.06 181.41 150.94 C 182.60 150.82 183.47 149.76 183.36 148.56 L 183.26 147.57 C 183.14 146.38 182.08 145.51 180.88 145.62 C 179.69 145.74 178.82 146.80 178.93 148.00 Z M 179.03 148.96 L 179.11 149.95 C 179.22 151.15 180.27 152.03 181.47 151.93 C 182.67 151.82 183.55 150.77 183.45 149.57 L 183.36 148.59 C 183.26 147.39 182.20 146.50 181.01 146.61 C 179.81 146.71 178.92 147.77 179.03 148.96 Z M 179.11 149.94 L 179.19 150.94 C 179.29 152.14 180.35 153.03 181.55 152.93 C 182.75 152.83 183.64 151.78 183.54 150.58 L 183.45 149.58 C 183.35 148.38 182.30 147.49 181.10 147.59 C 179.90 147.69 179.01 148.74 179.11 149.94 Z M 179.19 150.96 L 179.29 151.98 C 179.40 153.18 180.46 154.06 181.66 153.95 C 182.87 153.83 183.75 152.77 183.63 151.57 L 183.54 150.55 C 183.42 149.35 182.36 148.47 181.16 148.59 C 179.96 148.70 179.08 149.76 179.19 150.96 Z M 179.30 152.07 L 179.43 153.07 C 179.59 154.27 180.69 155.10 181.89 154.94 C 183.08 154.78 183.92 153.68 183.76 152.49 L 183.62 151.48 C 183.46 150.29 182.36 149.45 181.17 149.61 C 179.97 149.77 179.14 150.87 179.30 152.07 Z M 179.47 153.26 L 179.69 154.25 C 179.96 155.42 181.12 156.16 182.30 155.90 C 183.47 155.63 184.21 154.47 183.94 153.29 L 183.72 152.30 C 183.46 151.13 182.29 150.39 181.12 150.65 C 179.94 150.92 179.20 152.08 179.47 153.26 Z M 179.86 154.68 L 180.33 155.69 C 180.84 156.77 182.12 157.23 183.20 156.73 C 184.28 156.23 184.74 154.95 184.24 153.87 L 183.77 152.86 C 183.27 151.78 181.99 151.31 180.91 151.82 C 179.83 152.32 179.36 153.60 179.86 154.68 Z M 181.47 156.71 L 182.11 156.98 C 183.17 157.43 184.41 156.93 184.86 155.87 C 185.31 154.80 184.81 153.57 183.75 153.12 L 183.11 152.85 C 182.04 152.39 180.81 152.89 180.36 153.96 C 179.90 155.02 180.40 156.26 181.47 156.71 Z M 184.05 156.66 L 184.77 156.16 C 185.67 155.54 185.89 154.32 185.27 153.42 C 184.65 152.53 183.43 152.31 182.53 152.93 L 181.81 153.43 C 180.91 154.05 180.69 155.28 181.31 156.17 C 181.93 157.06 183.16 157.28 184.05 156.66 Z M 184.98 155.74 L 185.70 154.94 C 186.36 154.21 186.30 153.08 185.57 152.42 C 184.84 151.76 183.71 151.82 183.05 152.55 L 182.33 153.35 C 181.67 154.08 181.72 155.21 182.46 155.87 C 183.19 156.53 184.32 156.47 184.98 155.74 Z"
      fill="black"
      fill-rule="nonzero" /><path d="M 189.85 152.49 L 189.89 153.49 C 189.93 154.50 190.79 155.29 191.81 155.25 C 192.82 155.20 193.60 154.34 193.56 153.33 L 193.52 152.33 C 193.48 151.32 192.62 150.53 191.60 150.58 C 190.59 150.62 189.80 151.48 189.85 152.49 Z M 189.83 153.49 L 189.87 154.49 C 189.92 155.54 190.80 156.35 191.85 156.31 C 192.90 156.26 193.71 155.38 193.67 154.33 L 193.63 153.33 C 193.58 152.28 192.69 151.47 191.64 151.51 C 190.60 151.56 189.78 152.44 189.83 153.49 Z M 189.84 154.49 L 189.84 154.58 C 189.89 155.65 190.79 156.47 191.86 156.43 C 192.92 156.38 193.75 155.48 193.71 154.41 L 193.70 154.33 C 193.66 153.26 192.75 152.43 191.69 152.48 C 190.62 152.52 189.79 153.42 189.84 154.49 Z"
      fill="black"
      fill-rule="nonzero" /></svg>