<svg xmlns="http://www.w3.org/2000/svg" width="300" height="300" viewBox="0 0 300 300">
<path d="M 132.06 188.40 L 132.16 187.39 C 132.27 186.40 131.55 185.51 130.56 185.41 C 129.57 185.31 128.68 186.03 128.58 187.02 L 128.47 188.03 C 128.37 189.02 129.09 189.90 130.08 190.01 C 131.07 190.11 131.96 189.39 132.06 188.40 Z M 132.14 187.59 L 132.35 186.62 C 132.56 185.65 131.94 184.69 130.97 184.48 C 129.99 184.26 129.03 184.88 128.82 185.86 L 128.61 186.82 C 128.40 187.79 129.01 188.76 129.99 188.97 C 130.96 189.18 131.92 188.56 132.14 187.59 Z M 132.23 187.00 L 132.63 186.12 C 133.05 185.21 132.66 184.14 131.75 183.72 C 130.84 183.30 129.76 183.69 129.34 184.60 L 128.94 185.48 C 128.52 186.39 128.91 187.46 129.82 187.88 C 130.73 188.30 131.81 187.91 132.23 187.00 Z M 132.47 186.43 L 133.05 185.61 C 133.64 184.79 133.45 183.66 132.64 183.07 C 131.82 182.48 130.68 182.67 130.09 183.48 L 129.51 184.30 C 128.92 185.11 129.11 186.25 129.92 186.84 C 130.74 187.43 131.88 187.24 132.47 186.43 Z M 132.96 185.75 L 133.62 184.98 C 134.28 184.22 134.20 183.06 133.43 182.40 C 132.67 181.74 131.51 181.82 130.85 182.58 L 130.19 183.35 C 129.53 184.11 129.61 185.27 130.37 185.93 C 131.14 186.60 132.30 186.51 132.96 185.75 Z M 133.58 185.04 L 134.27 184.30 C 134.96 183.56 134.92 182.40 134.18 181.70 C 133.44 181.01 132.27 181.05 131.58 181.79 L 130.89 182.53 C 130.20 183.27 130.24 184.43 130.98 185.13 C 131.72 185.82 132.88 185.78 133.58 185.04 Z M 134.23 184.34 L 134.94 183.63 C 135.66 182.90 135.65 181.73 134.93 181.02 C 134.20 180.30 133.03 180.31 132.32 181.03 L 131.61 181.75 C 130.89 182.47 130.90 183.64 131.63 184.36 C 132.35 185.07 133.52 185.07 134.23 184.34 Z M 134.92 183.66 L 135.64 182.96 C 136.38 182.24 136.39 181.07 135.68 180.34 C 134.97 179.61 133.80 179.59 133.07 180.30 L 132.34 181.00 C 131.61 181.71 131.59 182.89 132.30 183.62 C 133.01 184.35 134.18 184.37 134.92 183.66 Z M 135.63 182.98 L 136.34 182.30 C 137.09 181.60 137.12 180.42 136.42 179.68 C 135.72 178.93 134.54 178.90 133.80 179.60 L 133.08 180.28 C 132.34 180.98 132.30 182.15 133.00 182.90 C 133.71 183.65 134.88 183.68 135.63 182.98 Z M 136.33 182.33 L 137.07 181.65 C 137.83 180.96 137.88 179.78 137.19 179.02 C 136.49 178.26 135.31 178.20 134.55 178.90 L 133.81 179.57 C 133.05 180.27 133.00 181.45 133.69 182.21 C 134.39 182.97 135.57 183.02 136.33 182.33 Z M 136.97 181.75 L 137.76 181.13 C 138.57 180.49 138.71 179.31 138.07 178.49 C 137.42 177.68 136.24 177.54 135.43 178.18 L 134.64 178.80 C 133.83 179.45 133.69 180.63 134.34 181.44 C 134.98 182.26 136.16 182.39 136.97 181.75 Z M 137.55 181.29 L 138.41 180.79 C 139.32 180.26 139.62 179.10 139.09 178.20 C 138.56 177.29 137.40 176.99 136.50 177.52 L 135.63 178.02 C 134.73 178.55 134.43 179.71 134.96 180.62 C 135.49 181.52 136.65 181.82 137.55 181.29 Z M 138.14 180.94 L 139.07 180.58 C 140.06 180.20 140.55 179.09 140.17 178.11 C 139.79 177.12 138.69 176.63 137.70 177.01 L 136.77 177.37 C 135.78 177.75 135.29 178.85 135.67 179.84 C 136.05 180.83 137.15 181.32 138.14 180.94 Z M 138.76 180.69 L 139.73 180.50 C 140.78 180.29 141.46 179.28 141.26 178.23 C 141.05 177.19 140.04 176.51 138.99 176.71 L 138.02 176.90 C 136.97 177.11 136.29 178.12 136.49 179.16 C 136.70 180.21 137.71 180.89 138.76 180.69 Z M 139.47 180.54 L 140.47 180.48 C 141.54 180.42 142.36 179.51 142.30 178.44 C 142.24 177.37 141.32 176.55 140.25 176.61 L 139.25 176.67 C 138.19 176.73 137.37 177.64 137.43 178.71 C 137.49 179.78 138.40 180.60 139.47 180.54 Z M 140.37 180.49 L 141.37 180.49 C 142.44 180.49 143.31 179.61 143.31 178.54 C 143.31 177.46 142.43 176.59 141.36 176.60 L 140.35 176.60 C 139.28 176.60 138.41 177.48 138.41 178.55 C 138.42 179.63 139.29 180.50 140.37 180.49 Z M 141.36 180.50 L 142.36 180.50 C 143.44 180.50 144.31 179.62 144.31 178.54 C 144.31 177.47 143.44 176.59 142.36 176.59 L 141.36 176.59 C 140.28 176.59 139.41 177.47 139.41 178.54 C 139.41 179.62 140.28 180.50 141.36 180.50 Z M 142.36 180.50 L 143.36 180.50 C 144.44 180.50 145.32 179.62 145.32 178.54 C 145.32 177.46 144.44 176.59 143.36 176.59 L 142.36 176.59 C 141.28 176.59 140.41 177.46 140.41 178.54 C 140.41 179.62 141.28 180.50 142.36 180.50 Z M 143.36 180.50 L 144.35 180.50 C 145.43 180.50 146.31 179.63 146.31 178.54 C 146.31 177.46 145.43 176.58 144.35 176.58 L 143.36 176.58 C 142.28 176.58 141.40 177.46 141.40 178.54 C 141.40 179.63 142.28 180.50 143.36 180.50 Z M 144.35 180.50 L 145.36 180.50 C 146.45 180.50 147.32 179.63 147.32 178.54 C 147.32 177.46 146.45 176.58 145.36 176.58 L 144.35 176.58 C 143.27 176.58 142.39 177.46 142.39 178.54 C 142.39 179.63 143.27 180.50 144.35 180.50 Z M 145.36 180.51 L 146.36 180.50 C 147.45 180.50 148.32 179.62 148.32 178.54 C 148.32 177.46 147.44 176.58 146.36 176.58 L 145.36 176.58 C 144.28 176.58 143.40 177.46 143.40 178.55 C 143.40 179.63 144.28 180.51 145.36 180.51 Z M 146.38 180.50 L 147.38 180.50 C 148.46 180.49 149.33 179.61 149.33 178.52 C 149.32 177.44 148.43 176.57 147.35 176.57 L 146.35 176.58 C 145.26 176.59 144.39 177.47 144.40 178.56 C 144.41 179.64 145.29 180.51 146.38 180.50 Z M 147.42 180.50 L 148.45 180.47 C 149.53 180.44 150.39 179.53 150.36 178.45 C 150.33 177.37 149.42 176.51 148.34 176.55 L 147.31 176.58 C 146.23 176.61 145.37 177.51 145.40 178.59 C 145.44 179.68 146.34 180.53 147.42 180.50 Z M 148.71 180.44 L 149.68 180.29 C 150.75 180.11 151.48 179.10 151.31 178.03 C 151.13 176.97 150.12 176.24 149.05 176.41 L 148.08 176.57 C 147.01 176.74 146.29 177.75 146.46 178.82 C 146.63 179.89 147.64 180.62 148.71 180.44 Z M 150.28 180.08 L 151.12 179.64 C 152.08 179.14 152.45 177.95 151.94 176.99 C 151.44 176.03 150.25 175.67 149.29 176.17 L 148.45 176.61 C 147.49 177.12 147.13 178.31 147.63 179.26 C 148.14 180.22 149.33 180.59 150.28 180.08 Z M 151.65 179.24 L 152.32 178.51 C 153.06 177.71 153.01 176.47 152.22 175.73 C 151.42 175.00 150.18 175.05 149.44 175.84 L 148.77 176.57 C 148.03 177.37 148.08 178.61 148.87 179.35 C 149.67 180.08 150.91 180.04 151.65 179.24 Z M 152.57 178.18 L 153.09 177.30 C 153.64 176.37 153.33 175.17 152.40 174.62 C 151.47 174.06 150.26 174.37 149.71 175.30 L 149.19 176.17 C 148.64 177.11 148.95 178.31 149.88 178.86 C 150.82 179.42 152.02 179.11 152.57 178.18 Z M 153.22 177.04 L 153.59 176.12 C 154.00 175.12 153.52 173.97 152.51 173.57 C 151.51 173.16 150.36 173.64 149.96 174.64 L 149.58 175.56 C 149.17 176.57 149.66 177.71 150.66 178.12 C 151.66 178.53 152.81 178.05 153.22 177.04 Z M 153.67 175.89 L 153.93 174.92 C 154.21 173.87 153.59 172.80 152.54 172.52 C 151.50 172.23 150.42 172.85 150.14 173.90 L 149.88 174.88 C 149.60 175.92 150.22 177.00 151.27 177.28 C 152.31 177.56 153.39 176.94 153.67 175.89 Z M 153.96 174.73 L 154.13 173.74 C 154.30 172.67 153.58 171.67 152.52 171.49 C 151.45 171.32 150.45 172.04 150.27 173.10 L 150.11 174.09 C 149.93 175.15 150.65 176.16 151.72 176.34 C 152.78 176.51 153.79 175.79 153.96 174.73 Z M 154.13 173.60 L 154.22 172.60 C 154.32 171.54 153.54 170.59 152.47 170.49 C 151.40 170.39 150.46 171.18 150.36 172.24 L 150.27 173.24 C 150.17 174.31 150.95 175.25 152.02 175.35 C 153.09 175.45 154.03 174.66 154.13 173.60 Z M 154.22 172.50 L 154.26 171.51 C 154.30 170.45 153.47 169.55 152.41 169.51 C 151.35 169.46 150.45 170.29 150.41 171.35 L 150.37 172.34 C 150.32 173.41 151.15 174.30 152.21 174.35 C 153.27 174.39 154.17 173.57 154.22 172.50 Z M 154.25 171.45 L 154.26 170.45 C 154.27 169.39 153.42 168.53 152.36 168.52 C 151.30 168.51 150.44 169.36 150.43 170.42 L 150.42 171.41 C 150.41 172.47 151.26 173.33 152.31 173.34 C 153.37 173.35 154.24 172.51 154.25 171.45 Z M 154.25 170.43 L 154.25 169.17 C 154.25 168.11 153.40 167.25 152.34 167.25 C 151.29 167.25 150.43 168.11 150.43 169.16 L 150.43 170.43 C 150.43 171.49 151.28 172.35 152.34 172.35 C 153.40 172.35 154.25 171.49 154.25 170.43 Z M 154.27 169.17 L 154.27 168.49 C 154.27 167.42 153.41 166.56 152.34 166.56 C 151.28 166.56 150.41 167.42 150.41 168.49 L 150.41 169.17 C 150.41 170.23 151.28 171.09 152.34 171.09 C 153.41 171.09 154.27 170.23 154.27 169.17 Z M 150.40 168.51 L 150.41 169.34 C 150.42 170.42 151.30 171.28 152.37 171.26 C 153.45 171.25 154.31 170.37 154.29 169.30 L 154.28 168.47 C 154.27 167.40 153.39 166.54 152.32 166.55 C 151.25 166.56 150.39 167.44 150.40 168.51 Z M 150.41 169.40 L 150.46 170.60 C 150.50 171.68 151.40 172.51 152.47 172.47 C 153.54 172.43 154.38 171.53 154.34 170.45 L 154.29 169.25 C 154.25 168.17 153.35 167.34 152.28 167.38 C 151.20 167.42 150.37 168.32 150.41 169.40 Z M 150.46 170.70 L 150.55 171.66 C 150.64 172.73 151.58 173.52 152.65 173.43 C 153.72 173.34 154.51 172.39 154.42 171.32 L 154.33 170.36 C 154.24 169.29 153.30 168.50 152.23 168.59 C 151.16 168.69 150.37 169.63 150.46 170.70 Z M 150.56 171.76 L 150.70 172.80 C 150.85 173.86 151.83 174.60 152.90 174.45 C 153.96 174.30 154.70 173.32 154.55 172.26 L 154.41 171.22 C 154.26 170.16 153.27 169.42 152.21 169.57 C 151.15 169.72 150.41 170.70 150.56 171.76 Z M 150.72 172.89 L 150.90 173.86 C 151.10 174.92 152.11 175.61 153.17 175.41 C 154.22 175.22 154.92 174.20 154.72 173.14 L 154.54 172.17 C 154.34 171.11 153.32 170.42 152.27 170.62 C 151.21 170.81 150.52 171.83 150.72 172.89 Z M 150.92 173.96 L 151.16 174.95 C 151.41 176.00 152.46 176.64 153.51 176.39 C 154.55 176.14 155.19 175.09 154.94 174.04 L 154.70 173.05 C 154.45 172.00 153.40 171.36 152.35 171.61 C 151.31 171.86 150.67 172.91 150.92 173.96 Z M 151.20 175.10 L 151.52 176.07 C 151.85 177.09 152.94 177.65 153.97 177.32 C 154.99 176.99 155.55 175.89 155.21 174.87 L 154.90 173.90 C 154.57 172.88 153.47 172.32 152.45 172.65 C 151.43 172.98 150.87 174.08 151.20 175.10 Z M 151.62 176.33 L 152.09 177.28 C 152.57 178.24 153.74 178.63 154.70 178.15 C 155.66 177.68 156.05 176.51 155.57 175.55 L 155.11 174.60 C 154.63 173.64 153.46 173.25 152.50 173.73 C 151.54 174.21 151.15 175.37 151.62 176.33 Z M 152.39 177.71 L 153.00 178.39 C 153.72 179.19 154.95 179.26 155.74 178.54 C 156.54 177.82 156.61 176.60 155.89 175.80 L 155.28 175.12 C 154.56 174.32 153.33 174.25 152.54 174.97 C 151.74 175.68 151.67 176.91 152.39 177.71 Z M 153.59 178.84 L 154.45 179.26 C 155.41 179.73 156.58 179.33 157.05 178.37 C 157.52 177.40 157.12 176.24 156.15 175.76 L 155.30 175.35 C 154.34 174.88 153.17 175.28 152.70 176.24 C 152.23 177.21 152.63 178.37 153.59 178.84 Z M 155.05 179.45 L 156.05 179.59 C 157.13 179.73 158.11 178.97 158.25 177.90 C 158.39 176.83 157.63 175.84 156.56 175.70 L 155.55 175.57 C 154.48 175.43 153.50 176.19 153.36 177.26 C 153.22 178.33 153.97 179.31 155.05 179.45 Z M 156.46 179.60 L 157.46 179.52 C 158.54 179.44 159.35 178.49 159.26 177.41 C 159.18 176.33 158.23 175.52 157.15 175.61 L 156.15 175.69 C 155.07 175.77 154.27 176.72 154.35 177.80 C 154.44 178.88 155.38 179.69 156.46 179.60 Z M 157.68 179.49 L 158.67 179.29 C 159.73 179.09 160.42 178.06 160.21 177.00 C 160.01 175.94 158.98 175.25 157.92 175.45 L 156.93 175.64 C 155.87 175.85 155.18 176.88 155.38 177.94 C 155.59 179.00 156.62 179.69 157.68 179.49 Z M 158.73 179.27 L 159.68 179.05 C 160.73 178.81 161.39 177.77 161.15 176.72 C 160.91 175.67 159.86 175.01 158.81 175.26 L 157.86 175.47 C 156.81 175.72 156.15 176.76 156.39 177.81 C 156.64 178.86 157.68 179.51 158.73 179.27 Z M 159.63 179.06 L 160.57 178.87 C 161.63 178.66 162.31 177.63 162.10 176.58 C 161.89 175.53 160.86 174.85 159.81 175.06 L 158.86 175.25 C 157.81 175.46 157.13 176.49 157.34 177.54 C 157.55 178.59 158.58 179.27 159.63 179.06 Z M 160.44 178.89 L 161.49 178.76 C 162.56 178.62 163.31 177.64 163.17 176.58 C 163.03 175.51 162.05 174.76 160.99 174.90 L 159.94 175.04 C 158.87 175.18 158.12 176.15 158.26 177.22 C 158.40 178.28 159.38 179.03 160.44 178.89 Z M 161.35 178.77 L 162.32 178.71 C 163.40 178.65 164.22 177.74 164.16 176.66 C 164.10 175.59 163.18 174.77 162.11 174.83 L 161.13 174.89 C 160.06 174.95 159.24 175.87 159.30 176.94 C 159.36 178.01 160.28 178.83 161.35 178.77 Z M 162.21 178.71 L 163.23 178.72 C 164.30 178.72 165.18 177.86 165.18 176.79 C 165.19 175.72 164.32 174.84 163.25 174.84 L 162.22 174.83 C 161.15 174.83 160.28 175.69 160.28 176.76 C 160.27 177.84 161.14 178.71 162.21 178.71 Z M 163.11 178.71 L 164.11 178.78 C 165.17 178.85 166.10 178.05 166.17 176.98 C 166.25 175.92 165.44 174.99 164.38 174.92 L 163.38 174.85 C 162.31 174.77 161.38 175.58 161.31 176.64 C 161.23 177.71 162.04 178.63 163.11 178.71 Z M 163.92 178.76 L 164.96 178.94 C 166.02 179.12 167.02 178.40 167.20 177.35 C 167.37 176.29 166.66 175.29 165.60 175.11 L 164.56 174.93 C 163.51 174.76 162.51 175.47 162.33 176.53 C 162.15 177.58 162.86 178.58 163.92 178.76 Z M 164.66 178.87 L 165.58 179.19 C 166.60 179.53 167.71 178.98 168.05 177.96 C 168.40 176.94 167.85 175.83 166.83 175.48 L 165.91 175.17 C 164.89 174.83 163.78 175.38 163.43 176.40 C 163.09 177.42 163.63 178.53 164.66 178.87 Z M 165.20 179.03 L 166.03 179.52 C 166.96 180.07 168.17 179.77 168.72 178.83 C 169.28 177.90 168.97 176.69 168.04 176.13 L 167.21 175.64 C 166.27 175.09 165.07 175.40 164.51 176.33 C 163.96 177.26 164.27 178.47 165.20 179.03 Z M 165.69 179.29 L 166.43 179.97 C 167.24 180.71 168.49 180.66 169.24 179.85 C 169.98 179.04 169.92 177.79 169.11 177.05 L 168.37 176.36 C 167.56 175.62 166.31 175.68 165.57 176.48 C 164.83 177.29 164.88 178.55 165.69 179.29 Z M 166.19 179.74 L 166.80 180.52 C 167.48 181.40 168.74 181.55 169.61 180.88 C 170.49 180.20 170.64 178.94 169.97 178.07 L 169.35 177.28 C 168.68 176.41 167.42 176.25 166.54 176.93 C 165.67 177.60 165.51 178.86 166.19 179.74 Z M 166.63 180.28 L 167.07 181.08 C 167.62 182.05 168.84 182.40 169.82 181.86 C 170.79 181.31 171.14 180.08 170.59 179.11 L 170.14 178.31 C 169.60 177.34 168.37 176.99 167.40 177.53 C 166.43 178.08 166.08 179.31 166.63 180.28 Z M 166.94 180.81 L 167.28 181.72 C 167.68 182.76 168.85 183.29 169.89 182.89 C 170.94 182.50 171.46 181.33 171.07 180.28 L 170.73 179.38 C 170.33 178.33 169.16 177.81 168.12 178.20 C 167.07 178.60 166.54 179.77 166.94 180.81 Z M 167.21 181.52 L 167.49 182.57 C 167.78 183.66 168.89 184.30 169.97 184.02 C 171.06 183.73 171.70 182.62 171.42 181.54 L 171.14 180.48 C 170.85 179.40 169.74 178.75 168.66 179.04 C 167.57 179.32 166.93 180.44 167.21 181.52 Z M 167.46 182.48 L 167.67 183.45 C 167.90 184.55 168.98 185.25 170.08 185.02 C 171.18 184.78 171.88 183.70 171.65 182.60 L 171.44 181.63 C 171.21 180.53 170.13 179.83 169.03 180.07 C 167.93 180.30 167.23 181.38 167.46 182.48 Z M 167.66 183.39 L 167.85 184.42 C 168.05 185.53 169.11 186.26 170.21 186.06 C 171.32 185.85 172.05 184.79 171.85 183.69 L 171.66 182.66 C 171.46 181.55 170.40 180.82 169.29 181.02 C 168.19 181.23 167.46 182.29 167.66 183.39 Z M 167.84 184.37 L 167.99 185.36 C 168.17 186.48 169.21 187.23 170.32 187.06 C 171.43 186.89 172.19 185.84 172.02 184.73 L 171.86 183.74 C 171.69 182.63 170.64 181.87 169.53 182.04 C 168.42 182.22 167.66 183.26 167.84 184.37 Z M 168.00 185.29 L 168.13 186.37 C 168.27 187.48 169.27 188.27 170.38 188.13 C 171.49 188.00 172.28 186.99 172.14 185.88 L 172.01 184.80 C 171.87 183.69 170.86 182.91 169.76 183.04 C 168.65 183.18 167.86 184.19 168.00 185.29 Z M 168.17 186.28 L 168.25 187.27 C 168.33 188.36 169.28 189.17 170.37 189.09 C 171.46 189.00 172.27 188.05 172.18 186.97 L 172.11 185.97 C 172.02 184.88 171.07 184.07 169.98 184.16 C 168.89 184.24 168.08 185.19 168.17 186.28 Z M 168.30 187.21 L 168.33 188.02 C 168.38 189.08 169.28 189.90 170.34 189.85 C 171.40 189.80 172.22 188.90 172.17 187.84 L 172.13 187.03 C 172.08 185.97 171.18 185.15 170.12 185.20 C 169.07 185.25 168.25 186.15 168.30 187.21 Z"
      fill="black"
      fill-rule="nonzero" /></svg>