<svg xmlns="http://www.w3.org/2000/svg" width="300" height="300" viewBox="0 0 300 300">
<path d="M 158.01 134.24 L 158.08 133.24 C 158.14 132.26 157.40 131.42 156.42 131.35 C 155.44 131.29 154.60 132.03 154.53 133.01 L 154.47 134.00 C 154.40 134.98 155.14 135.83 156.12 135.89 C 157.10 135.96 157.94 135.22 158.01 134.24 Z M 158.15 133.14 L 158.16 132.15 C 158.17 131.13 157.35 130.29 156.34 130.28 C 155.32 130.27 154.48 131.09 154.47 132.11 L 154.46 133.10 C 154.45 134.12 155.27 134.96 156.28 134.97 C 157.30 134.98 158.14 134.16 158.15 133.14 Z M 158.21 131.93 L 158.11 130.93 C 158.01 129.88 157.07 129.12 156.02 129.22 C 154.97 129.33 154.21 130.26 154.32 131.31 L 154.42 132.32 C 154.52 133.36 155.46 134.13 156.51 134.02 C 157.55 133.92 158.32 132.98 158.21 131.93 Z M 158.10 130.56 L 157.81 129.60 C 157.51 128.56 156.41 127.97 155.37 128.28 C 154.34 128.59 153.74 129.68 154.05 130.72 L 154.33 131.67 C 154.64 132.71 155.73 133.31 156.77 133.00 C 157.81 132.69 158.40 131.60 158.10 130.56 Z M 157.61 129.06 L 157.09 128.27 C 156.49 127.34 155.24 127.08 154.31 127.69 C 153.39 128.29 153.13 129.54 153.73 130.47 L 154.25 131.26 C 154.86 132.19 156.10 132.45 157.03 131.84 C 157.96 131.24 158.22 129.99 157.61 129.06 Z M 156.65 127.76 L 155.90 127.19 C 155.01 126.51 153.74 126.68 153.06 127.57 C 152.38 128.45 152.55 129.73 153.44 130.41 L 154.18 130.98 C 155.07 131.66 156.34 131.49 157.02 130.60 C 157.70 129.71 157.54 128.44 156.65 127.76 Z M 155.42 126.91 L 154.44 126.52 C 153.40 126.11 152.22 126.62 151.80 127.66 C 151.39 128.70 151.90 129.88 152.94 130.30 L 153.92 130.69 C 154.96 131.10 156.14 130.59 156.56 129.55 C 156.97 128.51 156.46 127.33 155.42 126.91 Z M 154.06 126.41 L 153.07 126.23 C 151.97 126.02 150.91 126.75 150.70 127.85 C 150.49 128.95 151.22 130.01 152.32 130.22 L 153.32 130.40 C 154.42 130.61 155.48 129.89 155.68 128.78 C 155.89 127.68 155.17 126.62 154.06 126.41 Z M 152.79 126.20 L 151.77 126.15 C 150.65 126.10 149.70 126.96 149.65 128.08 C 149.60 129.20 150.46 130.15 151.58 130.20 L 152.60 130.25 C 153.72 130.30 154.67 129.44 154.72 128.32 C 154.77 127.20 153.91 126.25 152.79 126.20 Z M 151.50 126.16 L 150.49 126.25 C 149.38 126.35 148.56 127.33 148.65 128.44 C 148.75 129.55 149.74 130.38 150.85 130.28 L 151.85 130.19 C 152.97 130.09 153.79 129.11 153.69 128.00 C 153.59 126.88 152.61 126.06 151.50 126.16 Z M 150.15 126.31 L 149.18 126.57 C 148.10 126.86 147.46 127.97 147.75 129.05 C 148.04 130.12 149.15 130.76 150.23 130.47 L 151.19 130.21 C 152.27 129.92 152.91 128.82 152.62 127.74 C 152.33 126.66 151.22 126.03 150.15 126.31 Z M 148.78 126.74 L 147.91 127.19 C 146.92 127.69 146.53 128.91 147.04 129.89 C 147.55 130.88 148.76 131.27 149.75 130.76 L 150.62 130.31 C 151.61 129.80 152.00 128.59 151.49 127.60 C 150.98 126.61 149.77 126.23 148.78 126.74 Z M 147.58 127.41 L 146.80 128.03 C 145.94 128.72 145.80 129.98 146.49 130.84 C 147.18 131.71 148.44 131.85 149.31 131.16 L 150.08 130.54 C 150.95 129.85 151.09 128.59 150.39 127.72 C 149.70 126.86 148.44 126.72 147.58 127.41 Z M 146.59 128.23 L 145.94 128.93 C 145.19 129.73 145.23 131.00 146.04 131.75 C 146.85 132.50 148.12 132.46 148.87 131.65 L 149.52 130.96 C 150.27 130.15 150.23 128.88 149.42 128.13 C 148.61 127.38 147.34 127.42 146.59 128.23 Z M 145.80 129.10 L 145.22 129.88 C 144.56 130.77 144.75 132.02 145.64 132.68 C 146.52 133.33 147.77 133.15 148.43 132.26 L 149.01 131.48 C 149.67 130.59 149.48 129.34 148.60 128.68 C 147.71 128.03 146.46 128.21 145.80 129.10 Z M 145.11 130.05 L 144.58 130.94 C 144.02 131.89 144.33 133.12 145.28 133.68 C 146.23 134.24 147.45 133.93 148.02 132.98 L 148.54 132.09 C 149.11 131.14 148.79 129.92 147.84 129.35 C 146.90 128.79 145.67 129.10 145.11 130.05 Z M 144.49 131.11 L 144.06 132.02 C 143.59 133.02 144.01 134.21 145.01 134.68 C 146.01 135.15 147.20 134.73 147.67 133.73 L 148.10 132.82 C 148.57 131.82 148.15 130.63 147.15 130.16 C 146.15 129.68 144.96 130.11 144.49 131.11 Z M 144.00 132.17 L 143.66 133.07 C 143.27 134.09 143.79 135.25 144.82 135.64 C 145.85 136.03 147.00 135.51 147.39 134.48 L 147.73 133.59 C 148.12 132.56 147.60 131.40 146.57 131.01 C 145.54 130.62 144.39 131.14 144.00 132.17 Z M 143.62 133.19 L 143.33 134.15 C 143.01 135.20 143.60 136.31 144.65 136.63 C 145.70 136.95 146.81 136.36 147.13 135.31 L 147.43 134.35 C 147.75 133.30 147.15 132.19 146.10 131.87 C 145.05 131.55 143.94 132.14 143.62 133.19 Z M 143.30 134.27 L 143.06 135.28 C 142.81 136.34 143.46 137.41 144.53 137.67 C 145.59 137.92 146.66 137.27 146.92 136.20 L 147.16 135.19 C 147.42 134.13 146.76 133.06 145.69 132.80 C 144.63 132.55 143.56 133.20 143.30 134.27 Z M 143.04 135.39 L 142.85 136.43 C 142.66 137.51 143.37 138.54 144.45 138.73 C 145.52 138.93 146.55 138.21 146.75 137.14 L 146.94 136.10 C 147.13 135.02 146.42 133.99 145.34 133.80 C 144.27 133.60 143.24 134.31 143.04 135.39 Z M 142.85 136.52 L 142.70 137.57 C 142.56 138.65 143.31 139.64 144.39 139.79 C 145.47 139.94 146.46 139.18 146.61 138.10 L 146.75 137.05 C 146.90 135.97 146.15 134.98 145.07 134.83 C 143.99 134.68 142.99 135.44 142.85 136.52 Z M 142.70 137.63 L 142.60 138.66 C 142.49 139.74 143.27 140.70 144.35 140.81 C 145.43 140.92 146.39 140.14 146.51 139.06 L 146.61 138.04 C 146.72 136.96 145.94 135.99 144.86 135.88 C 143.78 135.77 142.81 136.55 142.70 137.63 Z M 142.60 138.71 L 142.53 139.66 C 142.44 140.74 143.25 141.68 144.33 141.76 C 145.41 141.84 146.35 141.04 146.43 139.96 L 146.50 139.01 C 146.59 137.93 145.78 136.99 144.70 136.91 C 143.62 136.82 142.68 137.63 142.60 138.71 Z M 142.53 139.70 L 142.47 140.73 C 142.42 141.81 143.24 142.73 144.32 142.79 C 145.39 142.85 146.31 142.02 146.37 140.95 L 146.43 139.91 C 146.48 138.84 145.66 137.92 144.58 137.86 C 143.51 137.80 142.59 138.63 142.53 139.70 Z M 142.48 140.79 L 142.45 141.82 C 142.42 142.89 143.27 143.79 144.34 143.81 C 145.42 143.84 146.31 142.99 146.34 141.92 L 146.37 140.89 C 146.39 139.82 145.55 138.92 144.47 138.90 C 143.40 138.87 142.51 139.72 142.48 140.79 Z M 142.46 141.88 L 142.46 142.76 C 142.47 143.84 143.34 144.70 144.41 144.69 C 145.48 144.69 146.35 143.81 146.34 142.74 L 146.33 141.86 C 146.33 140.79 145.45 139.92 144.38 139.93 C 143.31 139.94 142.45 140.81 142.46 141.88 Z M 142.47 142.81 L 142.50 143.79 C 142.53 144.86 143.42 145.69 144.49 145.66 C 145.56 145.63 146.40 144.74 146.36 143.67 L 146.33 142.69 C 146.30 141.63 145.41 140.79 144.34 140.82 C 143.27 140.85 142.43 141.74 142.47 142.81 Z M 142.50 143.88 L 142.58 144.88 C 142.66 145.94 143.59 146.74 144.66 146.66 C 145.72 146.57 146.52 145.64 146.44 144.58 L 146.36 143.58 C 146.28 142.51 145.35 141.72 144.28 141.80 C 143.21 141.88 142.42 142.81 142.50 143.88 Z M 142.60 145.02 L 142.75 146.01 C 142.91 147.07 143.90 147.79 144.96 147.63 C 146.02 147.46 146.74 146.47 146.57 145.42 L 146.42 144.43 C 146.26 143.37 145.27 142.65 144.21 142.82 C 143.15 142.98 142.43 143.97 142.60 145.02 Z M 142.78 146.17 L 143.02 147.14 C 143.27 148.18 144.31 148.82 145.35 148.57 C 146.39 148.32 147.03 147.27 146.78 146.23 L 146.54 145.26 C 146.29 144.22 145.25 143.58 144.21 143.83 C 143.17 144.08 142.53 145.13 142.78 146.17 Z M 143.05 147.28 L 143.36 148.24 C 143.69 149.26 144.79 149.82 145.80 149.49 C 146.82 149.16 147.38 148.07 147.05 147.05 L 146.74 146.09 C 146.41 145.07 145.32 144.51 144.30 144.84 C 143.28 145.17 142.72 146.27 143.05 147.28 Z M 143.40 148.36 L 143.77 149.29 C 144.17 150.29 145.30 150.78 146.30 150.38 C 147.29 149.98 147.78 148.85 147.38 147.86 L 147.01 146.93 C 146.61 145.93 145.48 145.44 144.49 145.84 C 143.49 146.24 143.01 147.37 143.40 148.36 Z M 143.80 149.38 L 144.22 150.29 C 144.66 151.27 145.82 151.70 146.80 151.26 C 147.78 150.81 148.21 149.65 147.76 148.67 L 147.35 147.77 C 146.90 146.79 145.75 146.36 144.77 146.80 C 143.79 147.25 143.36 148.41 143.80 149.38 Z M 144.24 150.35 L 144.68 151.24 C 145.17 152.21 146.34 152.60 147.31 152.12 C 148.27 151.64 148.67 150.47 148.18 149.50 L 147.74 148.61 C 147.26 147.64 146.09 147.25 145.12 147.73 C 144.15 148.21 143.76 149.39 144.24 150.35 Z M 144.71 151.31 L 145.18 152.18 C 145.70 153.14 146.89 153.49 147.84 152.98 C 148.80 152.46 149.15 151.27 148.64 150.32 L 148.16 149.44 C 147.64 148.48 146.45 148.13 145.50 148.65 C 144.55 149.16 144.19 150.35 144.71 151.31 Z M 145.21 152.25 L 145.70 153.07 C 146.25 154.01 147.45 154.32 148.39 153.77 C 149.33 153.22 149.64 152.01 149.09 151.07 L 148.61 150.25 C 148.06 149.31 146.85 149.00 145.91 149.55 C 144.97 150.10 144.66 151.31 145.21 152.25 Z M 145.74 153.16 L 146.28 153.97 C 146.88 154.89 148.11 155.13 149.02 154.53 C 149.93 153.93 150.18 152.70 149.58 151.79 L 149.04 150.98 C 148.44 150.07 147.21 149.82 146.30 150.42 C 145.39 151.03 145.14 152.25 145.74 153.16 Z M 146.36 154.10 L 147.02 154.95 C 147.69 155.82 148.94 155.98 149.81 155.30 C 150.67 154.63 150.83 153.39 150.16 152.52 L 149.50 151.67 C 148.83 150.80 147.58 150.64 146.71 151.31 C 145.85 151.98 145.69 153.23 146.36 154.10 Z M 147.10 155.06 L 147.70 155.72 C 148.43 156.54 149.68 156.62 150.50 155.89 C 151.32 155.16 151.40 153.90 150.67 153.08 L 150.07 152.41 C 149.34 151.59 148.09 151.52 147.27 152.25 C 146.45 152.98 146.37 154.24 147.10 155.06 Z M 147.77 155.80 L 148.46 156.49 C 149.23 157.27 150.48 157.28 151.26 156.51 C 152.05 155.74 152.05 154.48 151.28 153.70 L 150.60 153.01 C 149.82 152.22 148.57 152.22 147.79 152.99 C 147.01 153.76 147.00 155.02 147.77 155.80 Z M 148.52 156.55 L 149.30 157.28 C 150.11 158.02 151.36 157.97 152.11 157.17 C 152.85 156.36 152.80 155.11 152.00 154.36 L 151.22 153.64 C 150.41 152.90 149.16 152.95 148.41 153.75 C 147.67 154.55 147.72 155.81 148.52 156.55 Z M 149.36 157.33 L 150.18 158.03 C 151.01 158.74 152.27 158.64 152.98 157.80 C 153.69 156.97 153.59 155.72 152.75 155.01 L 151.94 154.31 C 151.10 153.60 149.85 153.70 149.14 154.53 C 148.43 155.37 148.53 156.62 149.36 157.33 Z M 150.22 158.07 L 151.02 158.72 C 151.88 159.41 153.14 159.27 153.83 158.41 C 154.51 157.55 154.38 156.30 153.52 155.61 L 152.72 154.96 C 151.86 154.27 150.60 154.41 149.91 155.27 C 149.22 156.12 149.36 157.38 150.22 158.07 Z M 151.04 158.74 L 151.86 159.38 C 152.73 160.06 153.99 159.90 154.67 159.03 C 155.35 158.16 155.19 156.90 154.32 156.22 L 153.50 155.58 C 152.63 154.90 151.37 155.06 150.69 155.93 C 150.01 156.81 150.17 158.06 151.04 158.74 Z M 151.86 159.39 L 152.64 160.00 C 153.52 160.68 154.79 160.51 155.46 159.63 C 156.14 158.75 155.98 157.48 155.10 156.80 L 154.32 156.20 C 153.43 155.52 152.17 155.68 151.49 156.57 C 150.81 157.45 150.97 158.71 151.86 159.39 Z M 152.62 160.00 L 153.41 160.62 C 154.30 161.31 155.57 161.16 156.26 160.27 C 156.96 159.39 156.80 158.11 155.92 157.42 L 155.12 156.80 C 154.23 156.11 152.96 156.26 152.27 157.15 C 151.58 158.03 151.73 159.31 152.62 160.00 Z M 153.35 160.60 L 154.17 161.28 C 155.04 162.01 156.33 161.90 157.06 161.03 C 157.79 160.16 157.67 158.86 156.80 158.13 L 155.98 157.45 C 155.11 156.72 153.82 156.84 153.09 157.70 C 152.36 158.57 152.48 159.87 153.35 160.60 Z M 154.03 161.20 L 154.70 161.85 C 155.52 162.65 156.83 162.64 157.64 161.82 C 158.44 160.99 158.43 159.68 157.61 158.87 L 156.94 158.22 C 156.12 157.42 154.80 157.43 154.00 158.25 C 153.19 159.07 153.21 160.39 154.03 161.20 Z M 154.50 161.67 L 155.07 162.39 C 155.79 163.31 157.12 163.46 158.03 162.73 C 158.95 162.01 159.10 160.68 158.38 159.77 L 157.81 159.05 C 157.08 158.13 155.75 157.98 154.84 158.71 C 153.92 159.43 153.77 160.76 154.50 161.67 Z M 154.84 162.13 L 155.32 162.99 C 155.90 164.02 157.21 164.39 158.25 163.81 C 159.29 163.23 159.66 161.92 159.08 160.89 L 158.60 160.03 C 158.02 158.99 156.71 158.62 155.67 159.20 C 154.63 159.78 154.26 161.09 154.84 162.13 Z M 155.12 162.65 L 155.45 163.61 C 155.84 164.76 157.09 165.37 158.24 164.98 C 159.39 164.59 160.00 163.34 159.61 162.19 L 159.28 161.23 C 158.89 160.08 157.64 159.46 156.49 159.86 C 155.34 160.25 154.73 161.50 155.12 162.65 Z M 155.32 163.24 L 155.48 164.25 C 155.67 165.47 156.81 166.30 158.03 166.11 C 159.25 165.92 160.09 164.78 159.89 163.56 L 159.74 162.55 C 159.55 161.33 158.40 160.50 157.18 160.69 C 155.96 160.88 155.13 162.02 155.32 163.24 Z M 155.42 163.90 L 155.42 164.91 C 155.41 166.17 156.42 167.18 157.68 167.19 C 158.93 167.19 159.95 166.18 159.95 164.93 L 159.95 163.91 C 159.96 162.66 158.94 161.64 157.69 161.64 C 156.44 161.63 155.42 162.64 155.42 163.90 Z M 155.42 164.51 L 155.25 165.47 C 155.02 166.72 155.85 167.91 157.10 168.14 C 158.35 168.36 159.54 167.54 159.77 166.29 L 159.94 165.33 C 160.17 164.08 159.34 162.89 158.09 162.66 C 156.84 162.43 155.65 163.26 155.42 164.51 Z M 155.39 164.95 L 154.98 165.88 C 154.46 167.05 155.00 168.42 156.17 168.93 C 157.34 169.45 158.71 168.91 159.22 167.74 L 159.63 166.81 C 160.14 165.64 159.61 164.27 158.44 163.76 C 157.27 163.24 155.90 163.78 155.39 164.95 Z M 155.21 165.45 L 154.64 166.24 C 153.89 167.28 154.12 168.74 155.16 169.49 C 156.20 170.25 157.66 170.01 158.41 168.97 L 158.99 168.17 C 159.74 167.13 159.50 165.68 158.46 164.92 C 157.42 164.17 155.97 164.41 155.21 165.45 Z M 154.82 166.01 L 154.13 166.74 C 153.25 167.69 153.31 169.16 154.25 170.05 C 155.19 170.93 156.67 170.87 157.55 169.93 L 158.23 169.20 C 159.11 168.26 159.06 166.78 158.12 165.90 C 157.17 165.02 155.70 165.07 154.82 166.01 Z M 154.27 166.59 L 153.53 167.27 C 152.57 168.13 152.49 169.62 153.36 170.58 C 154.22 171.54 155.71 171.62 156.67 170.75 L 157.41 170.08 C 158.38 169.21 158.45 167.73 157.59 166.77 C 156.72 165.80 155.24 165.73 154.27 166.59 Z M 153.70 167.12 L 152.91 167.71 C 151.86 168.48 151.64 169.95 152.42 171.00 C 153.19 172.04 154.66 172.26 155.71 171.48 L 156.50 170.90 C 157.54 170.12 157.76 168.65 156.99 167.61 C 156.21 166.56 154.74 166.35 153.70 167.12 Z M 153.14 167.55 L 152.30 168.03 C 151.16 168.67 150.77 170.11 151.41 171.24 C 152.05 172.37 153.49 172.77 154.62 172.12 L 155.47 171.64 C 156.60 171.00 157.00 169.56 156.36 168.43 C 155.71 167.30 154.27 166.90 153.14 167.55 Z M 152.63 167.87 L 151.67 168.23 C 150.45 168.69 149.84 170.05 150.30 171.27 C 150.76 172.49 152.12 173.10 153.34 172.64 L 154.29 172.28 C 155.51 171.82 156.13 170.46 155.67 169.24 C 155.21 168.02 153.84 167.41 152.63 167.87 Z M 152.02 168.13 L 151.03 168.34 C 149.76 168.61 148.94 169.86 149.22 171.14 C 149.49 172.41 150.74 173.22 152.01 172.95 L 153.00 172.74 C 154.27 172.47 155.09 171.22 154.82 169.95 C 154.54 168.67 153.29 167.86 152.02 168.13 Z M 151.35 168.29 L 150.33 168.37 C 149.04 168.46 148.06 169.59 148.16 170.89 C 148.25 172.19 149.38 173.17 150.68 173.07 L 151.70 173.00 C 153.00 172.90 153.97 171.77 153.88 170.47 C 153.78 169.17 152.65 168.20 151.35 168.29 Z M 150.71 168.37 L 149.73 168.29 C 148.43 168.17 147.29 169.13 147.18 170.43 C 147.06 171.73 148.02 172.87 149.32 172.98 L 150.30 173.07 C 151.60 173.18 152.74 172.22 152.85 170.93 C 152.97 169.63 152.01 168.49 150.71 168.37 Z M 150.26 168.41 L 149.33 168.10 C 148.10 167.70 146.78 168.36 146.37 169.59 C 145.96 170.82 146.63 172.15 147.86 172.55 L 148.79 172.86 C 150.02 173.27 151.34 172.60 151.75 171.37 C 152.16 170.14 151.49 168.82 150.26 168.41 Z M 149.89 168.39 L 149.06 167.84 C 147.99 167.12 146.54 167.41 145.83 168.48 C 145.12 169.55 145.40 170.99 146.47 171.70 L 147.30 172.26 C 148.37 172.97 149.81 172.69 150.53 171.62 C 151.24 170.55 150.96 169.11 149.89 168.39 Z M 149.41 168.16 L 148.76 167.50 C 147.87 166.59 146.42 166.58 145.51 167.47 C 144.60 168.36 144.58 169.81 145.47 170.72 L 146.12 171.38 C 147.01 172.29 148.47 172.30 149.37 171.42 C 150.28 170.53 150.30 169.07 149.41 168.16 Z M 148.92 167.74 L 148.33 166.95 C 147.57 165.95 146.15 165.76 145.15 166.52 C 144.15 167.27 143.95 168.70 144.71 169.70 L 145.31 170.48 C 146.07 171.48 147.49 171.68 148.49 170.92 C 149.49 170.16 149.68 168.74 148.92 167.74 Z M 148.41 167.12 L 147.83 166.22 C 147.17 165.17 145.79 164.87 144.74 165.53 C 143.70 166.19 143.39 167.57 144.06 168.62 L 144.63 169.52 C 145.29 170.57 146.68 170.87 147.72 170.21 C 148.76 169.55 149.07 168.17 148.41 167.12 Z M 147.86 166.34 L 147.38 165.48 C 146.78 164.42 145.44 164.04 144.38 164.64 C 143.32 165.24 142.95 166.58 143.54 167.64 L 144.02 168.49 C 144.62 169.55 145.96 169.93 147.02 169.34 C 148.08 168.74 148.46 167.40 147.86 166.34 Z M 147.38 165.56 L 146.93 164.68 C 146.38 163.62 145.07 163.21 144.01 163.76 C 142.95 164.31 142.53 165.62 143.08 166.68 L 143.54 167.56 C 144.09 168.62 145.40 169.03 146.46 168.48 C 147.52 167.93 147.93 166.62 147.38 165.56 Z M 146.92 164.74 L 146.47 163.83 C 145.95 162.77 144.67 162.34 143.62 162.86 C 142.56 163.38 142.13 164.65 142.65 165.71 L 143.10 166.62 C 143.61 167.67 144.89 168.11 145.94 167.59 C 147.00 167.07 147.43 165.80 146.92 164.74 Z M 146.44 163.87 L 146.01 162.95 C 145.51 161.91 144.26 161.47 143.22 161.97 C 142.18 162.46 141.74 163.71 142.23 164.75 L 142.67 165.67 C 143.17 166.71 144.41 167.15 145.46 166.65 C 146.50 166.16 146.94 164.91 146.44 163.87 Z M 145.97 162.98 L 145.57 162.13 C 145.09 161.11 143.87 160.67 142.85 161.15 C 141.83 161.63 141.39 162.85 141.87 163.87 L 142.27 164.72 C 142.75 165.75 143.97 166.19 144.99 165.70 C 146.01 165.22 146.45 164.00 145.97 162.98 Z M 145.54 162.16 L 145.13 161.28 C 144.66 160.28 143.48 159.84 142.47 160.31 C 141.47 160.77 141.03 161.96 141.50 162.96 L 141.91 163.84 C 142.37 164.85 143.56 165.28 144.56 164.82 C 145.56 164.36 146.00 163.17 145.54 162.16 Z M 145.09 161.32 L 144.67 160.38 C 144.22 159.40 143.07 158.96 142.08 159.41 C 141.10 159.85 140.67 161.01 141.11 161.99 L 141.53 162.93 C 141.98 163.91 143.14 164.35 144.12 163.90 C 145.10 163.46 145.54 162.30 145.09 161.32 Z M 144.63 160.42 L 144.20 159.44 C 143.77 158.48 142.65 158.04 141.69 158.47 C 140.72 158.89 140.29 160.02 140.71 160.98 L 141.15 161.96 C 141.57 162.92 142.70 163.36 143.66 162.93 C 144.62 162.50 145.06 161.38 144.63 160.42 Z M 144.16 159.47 L 143.79 158.61 C 143.38 157.67 142.29 157.24 141.35 157.65 C 140.40 158.05 139.97 159.15 140.38 160.09 L 140.75 160.95 C 141.16 161.89 142.26 162.33 143.20 161.92 C 144.14 161.51 144.57 160.41 144.16 159.47 Z M 143.75 158.64 L 143.37 157.74 C 142.97 156.82 141.91 156.39 140.99 156.78 C 140.06 157.18 139.64 158.24 140.03 159.16 L 140.42 160.07 C 140.81 160.99 141.88 161.41 142.80 161.02 C 143.72 160.63 144.15 159.56 143.75 158.64 Z M 143.33 157.76 L 142.93 156.83 C 142.55 155.93 141.51 155.51 140.61 155.89 C 139.71 156.27 139.29 157.31 139.68 158.21 L 140.07 159.14 C 140.45 160.04 141.49 160.46 142.39 160.08 C 143.29 159.70 143.71 158.66 143.33 157.76 Z M 142.89 156.85 L 142.49 155.89 C 142.12 155.02 141.11 154.60 140.23 154.97 C 139.36 155.34 138.94 156.35 139.31 157.23 L 139.72 158.19 C 140.09 159.06 141.10 159.47 141.97 159.11 C 142.85 158.74 143.26 157.73 142.89 156.85 Z M 142.45 155.91 L 142.06 154.98 C 141.70 154.12 140.71 153.72 139.86 154.08 C 139.00 154.44 138.60 155.42 138.96 156.28 L 139.35 157.21 C 139.71 158.07 140.70 158.47 141.55 158.11 C 142.41 157.75 142.81 156.77 142.45 155.91 Z"
      fill="black"
      fill-rule="nonzero" /><path d="M 153.06 117.78 L 153.23 116.52 C 153.35 115.60 152.70 114.75 151.78 114.63 C 150.86 114.51 150.01 115.16 149.89 116.08 L 149.72 117.34 C 149.60 118.26 150.25 119.11 151.18 119.23 C 152.10 119.35 152.94 118.70 153.06 117.78 Z M 149.76 116.20 L 149.70 117.30 C 149.64 118.31 150.41 119.18 151.43 119.24 C 152.45 119.30 153.32 118.53 153.38 117.51 L 153.44 116.41 C 153.50 115.40 152.73 114.52 151.71 114.46 C 150.69 114.40 149.82 115.18 149.76 116.20 Z M 149.69 117.27 L 149.61 118.39 C 149.53 119.42 150.30 120.30 151.32 120.38 C 152.35 120.45 153.24 119.68 153.31 118.66 L 153.39 117.54 C 153.46 116.51 152.69 115.63 151.67 115.55 C 150.65 115.48 149.76 116.25 149.69 117.27 Z M 149.60 118.38 L 149.52 119.33 C 149.44 120.36 150.20 121.26 151.23 121.34 C 152.25 121.43 153.15 120.66 153.24 119.63 L 153.32 118.68 C 153.40 117.65 152.64 116.75 151.61 116.67 C 150.58 116.59 149.68 117.35 149.60 118.38 Z M 149.52 119.31 L 149.42 120.35 C 149.32 121.38 150.07 122.30 151.10 122.39 C 152.13 122.49 153.05 121.74 153.14 120.71 L 153.24 119.66 C 153.34 118.63 152.59 117.72 151.56 117.62 C 150.53 117.52 149.61 118.28 149.52 119.31 Z M 149.41 120.33 L 149.31 121.33 C 149.20 122.36 149.94 123.28 150.97 123.39 C 152.01 123.50 152.93 122.76 153.04 121.73 L 153.15 120.73 C 153.26 119.70 152.51 118.77 151.48 118.66 C 150.45 118.55 149.52 119.30 149.41 120.33 Z M 149.30 121.31 L 149.19 122.33 C 149.07 123.36 149.81 124.30 150.84 124.41 C 151.88 124.53 152.81 123.79 152.93 122.76 L 153.04 121.74 C 153.16 120.71 152.42 119.77 151.39 119.66 C 150.35 119.54 149.42 120.28 149.30 121.31 Z M 149.18 122.32 L 149.07 123.34 C 148.94 124.37 149.68 125.31 150.72 125.43 C 151.75 125.55 152.69 124.81 152.81 123.78 L 152.93 122.76 C 153.05 121.73 152.31 120.79 151.28 120.67 C 150.24 120.55 149.31 121.29 149.18 122.32 Z M 149.06 123.34 L 148.94 124.36 C 148.82 125.40 149.56 126.34 150.60 126.46 C 151.63 126.58 152.57 125.84 152.69 124.80 L 152.82 123.78 C 152.94 122.74 152.20 121.80 151.16 121.68 C 150.12 121.56 149.18 122.30 149.06 123.34 Z M 148.94 124.36 L 148.82 125.39 C 148.70 126.43 149.44 127.37 150.48 127.49 C 151.52 127.61 152.46 126.87 152.58 125.83 L 152.70 124.80 C 152.82 123.76 152.08 122.82 151.04 122.70 C 150.00 122.58 149.06 123.32 148.94 124.36 Z M 148.82 125.39 L 148.71 126.32 C 148.59 127.36 149.33 128.30 150.37 128.42 C 151.41 128.55 152.35 127.80 152.47 126.76 L 152.58 125.83 C 152.70 124.79 151.96 123.85 150.92 123.73 C 149.88 123.61 148.94 124.35 148.82 125.39 Z M 148.71 126.32 L 148.67 126.63 C 148.55 127.67 149.30 128.61 150.34 128.73 C 151.38 128.85 152.32 128.10 152.44 127.06 L 152.47 126.76 C 152.59 125.72 151.85 124.78 150.81 124.66 C 149.77 124.54 148.83 125.28 148.71 126.32 Z"
      fill="black"
      fill-rule="nonzero" /><path d="M 148.09 172.72 L 147.67 173.50 C 147.16 174.43 147.51 175.60 148.45 176.11 C 149.39 176.61 150.56 176.26 151.06 175.32 L 151.48 174.55 C 151.99 173.61 151.64 172.44 150.70 171.93 C 149.76 171.43 148.59 171.78 148.09 172.72 Z M 147.57 173.67 L 147.20 174.57 C 146.79 175.57 147.27 176.70 148.26 177.11 C 149.26 177.52 150.39 177.04 150.80 176.05 L 151.17 175.15 C 151.57 174.15 151.10 173.02 150.10 172.61 C 149.11 172.20 147.97 172.68 147.57 173.67 Z M 147.09 174.86 L 146.83 175.95 C 146.58 177.01 147.24 178.06 148.29 178.31 C 149.35 178.56 150.40 177.91 150.65 176.85 L 150.91 175.76 C 151.15 174.71 150.50 173.65 149.45 173.40 C 148.39 173.15 147.34 173.81 147.09 174.86 Z M 146.78 176.18 L 146.68 177.12 C 146.56 178.20 147.33 179.18 148.41 179.30 C 149.49 179.42 150.47 178.65 150.59 177.57 L 150.70 176.63 C 150.82 175.54 150.04 174.57 148.96 174.45 C 147.88 174.32 146.91 175.10 146.78 176.18 Z M 146.67 177.24 L 146.61 178.26 C 146.55 179.35 147.38 180.28 148.47 180.34 C 149.56 180.40 150.49 179.57 150.55 178.48 L 150.60 177.45 C 150.66 176.37 149.83 175.44 148.74 175.38 C 147.65 175.32 146.72 176.15 146.67 177.24 Z M 146.60 178.33 L 146.58 179.38 C 146.56 180.47 147.42 181.37 148.51 181.39 C 149.60 181.42 150.51 180.55 150.53 179.46 L 150.55 178.41 C 150.58 177.32 149.71 176.42 148.62 176.40 C 147.53 176.37 146.63 177.24 146.60 178.33 Z M 146.58 179.41 L 146.57 180.41 C 146.57 181.50 147.45 182.39 148.54 182.39 C 149.64 182.40 150.53 181.52 150.53 180.42 L 150.53 179.43 C 150.54 178.33 149.66 177.44 148.56 177.44 C 147.47 177.44 146.58 178.32 146.58 179.41 Z M 146.57 180.42 L 146.57 181.54 C 146.57 182.63 147.46 183.52 148.55 183.52 C 149.65 183.52 150.53 182.63 150.53 181.54 L 150.53 180.41 C 150.53 179.32 149.64 178.44 148.55 178.44 C 147.46 178.44 146.57 179.32 146.57 180.42 Z M 146.57 181.56 L 146.58 182.56 C 146.59 183.65 147.49 184.53 148.58 184.52 C 149.67 184.51 150.55 183.62 150.54 182.53 L 150.53 181.52 C 150.52 180.43 149.63 179.55 148.54 179.56 C 147.44 179.57 146.56 180.46 146.57 181.56 Z M 146.58 182.60 L 146.61 183.50 C 146.64 184.60 147.55 185.46 148.64 185.43 C 149.73 185.40 150.59 184.49 150.56 183.40 L 150.54 182.49 C 150.51 181.40 149.60 180.53 148.51 180.56 C 147.42 180.59 146.55 181.50 146.58 182.60 Z M 146.62 183.56 L 146.68 184.52 C 146.74 185.61 147.67 186.44 148.75 186.37 C 149.84 186.31 150.67 185.38 150.60 184.30 L 150.55 183.34 C 150.49 182.25 149.56 181.42 148.47 181.49 C 147.39 181.55 146.56 182.48 146.62 183.56 Z M 146.71 184.57 L 146.80 185.57 C 146.89 186.64 147.82 187.43 148.89 187.34 C 149.96 187.25 150.75 186.31 150.65 185.24 L 150.57 184.25 C 150.48 183.18 149.54 182.39 148.48 182.48 C 147.41 182.57 146.62 183.51 146.71 184.57 Z M 146.84 185.60 L 146.94 186.59 C 147.04 187.63 147.97 188.39 149.02 188.29 C 150.06 188.18 150.82 187.25 150.71 186.21 L 150.62 185.22 C 150.51 184.17 149.58 183.41 148.54 183.52 C 147.49 183.62 146.73 184.55 146.84 185.60 Z M 146.96 186.59 L 146.97 186.71 C 147.08 187.74 148.00 188.49 149.03 188.39 C 150.06 188.28 150.81 187.36 150.71 186.32 L 150.69 186.20 C 150.59 185.17 149.66 184.42 148.63 184.53 C 147.60 184.64 146.85 185.56 146.96 186.59 Z"
      fill="black"
      fill-rule="nonzero" /></svg>