<svg xmlns="http://www.w3.org/2000/svg" width="300" height="300" viewBox="0 0 300 300">
<path d="M 141.30 130.40 L 141.77 129.52 C 142.22 128.66 141.90 127.59 141.04 127.13 C 140.18 126.67 139.11 127.00 138.65 127.86 L 138.18 128.74 C 137.72 129.60 138.05 130.67 138.91 131.13 C 139.77 131.59 140.84 131.26 141.30 130.40 Z M 141.65 129.71 L 142.22 128.90 C 142.78 128.10 142.59 127.00 141.80 126.44 C 141.00 125.87 139.90 126.07 139.34 126.86 L 138.76 127.67 C 138.20 128.47 138.39 129.57 139.19 130.13 C 139.99 130.70 141.09 130.50 141.65 129.71 Z M 141.96 129.20 L 142.64 128.58 C 143.37 127.93 143.43 126.82 142.78 126.09 C 142.13 125.36 141.01 125.30 140.29 125.95 L 139.60 126.56 C 138.87 127.21 138.81 128.33 139.46 129.06 C 140.11 129.78 141.23 129.85 141.96 129.20 Z M 142.33 128.80 L 143.10 128.37 C 143.95 127.89 144.25 126.81 143.77 125.96 C 143.29 125.12 142.22 124.82 141.37 125.30 L 140.60 125.73 C 139.75 126.21 139.45 127.29 139.93 128.13 C 140.41 128.98 141.48 129.28 142.33 128.80 Z M 142.89 128.47 L 143.85 128.09 C 144.75 127.73 145.19 126.70 144.83 125.80 C 144.47 124.90 143.45 124.45 142.55 124.81 L 141.59 125.20 C 140.68 125.55 140.24 126.58 140.60 127.48 C 140.96 128.39 141.98 128.83 142.89 128.47 Z M 143.72 128.13 L 144.81 127.79 C 145.74 127.50 146.26 126.51 145.97 125.59 C 145.68 124.66 144.69 124.14 143.76 124.43 L 142.67 124.77 C 141.75 125.06 141.23 126.05 141.52 126.97 C 141.81 127.90 142.79 128.42 143.72 128.13 Z M 144.75 127.80 L 145.68 127.55 C 146.61 127.29 147.16 126.33 146.91 125.39 C 146.65 124.46 145.69 123.91 144.75 124.16 L 143.82 124.42 C 142.89 124.67 142.34 125.64 142.59 126.57 C 142.85 127.51 143.82 128.06 144.75 127.80 Z M 145.64 127.56 L 146.63 127.31 C 147.57 127.08 148.14 126.12 147.90 125.18 C 147.67 124.24 146.72 123.67 145.78 123.90 L 144.79 124.15 C 143.85 124.39 143.28 125.34 143.51 126.28 C 143.75 127.22 144.70 127.79 145.64 127.56 Z M 146.59 127.32 L 147.60 127.09 C 148.55 126.87 149.14 125.93 148.92 124.98 C 148.71 124.04 147.76 123.45 146.82 123.67 L 145.81 123.90 C 144.86 124.11 144.27 125.06 144.49 126.00 C 144.71 126.95 145.65 127.54 146.59 127.32 Z M 147.57 127.10 L 148.56 126.89 C 149.51 126.69 150.12 125.76 149.92 124.81 C 149.73 123.86 148.80 123.25 147.85 123.45 L 146.85 123.66 C 145.91 123.86 145.30 124.78 145.49 125.73 C 145.69 126.68 146.62 127.29 147.57 127.10 Z M 148.52 126.90 L 149.52 126.71 C 150.48 126.54 151.11 125.63 150.93 124.67 C 150.76 123.72 149.85 123.09 148.89 123.26 L 147.89 123.44 C 146.94 123.62 146.31 124.53 146.48 125.49 C 146.65 126.44 147.57 127.07 148.52 126.90 Z M 149.47 126.72 L 150.46 126.57 C 151.42 126.43 152.08 125.54 151.94 124.58 C 151.79 123.62 150.90 122.96 149.94 123.10 L 148.95 123.25 C 147.99 123.40 147.33 124.29 147.47 125.25 C 147.62 126.21 148.51 126.87 149.47 126.72 Z M 150.40 126.58 L 151.36 126.47 C 152.33 126.36 153.02 125.49 152.91 124.53 C 152.80 123.57 151.93 122.88 150.97 122.99 L 150.00 123.10 C 149.04 123.20 148.35 124.07 148.46 125.04 C 148.57 126.00 149.44 126.69 150.40 126.58 Z M 151.30 126.48 L 152.28 126.40 C 153.25 126.32 153.97 125.48 153.89 124.52 C 153.82 123.55 152.97 122.83 152.01 122.90 L 151.03 122.98 C 150.06 123.06 149.34 123.90 149.42 124.86 C 149.49 125.83 150.34 126.55 151.30 126.48 Z M 152.23 126.41 L 153.25 126.36 C 154.22 126.31 154.97 125.49 154.92 124.52 C 154.87 123.55 154.05 122.80 153.08 122.85 L 152.06 122.90 C 151.09 122.94 150.34 123.77 150.39 124.74 C 150.44 125.70 151.26 126.45 152.23 126.41 Z M 153.20 126.37 L 154.25 126.35 C 155.23 126.34 156.00 125.53 155.99 124.56 C 155.97 123.58 155.17 122.80 154.19 122.82 L 153.14 122.84 C 152.16 122.85 151.38 123.66 151.40 124.63 C 151.41 125.61 152.22 126.39 153.20 126.37 Z M 154.16 126.37 L 155.21 126.40 C 156.20 126.43 157.02 125.66 157.05 124.67 C 157.08 123.69 156.31 122.86 155.32 122.83 L 154.28 122.80 C 153.29 122.77 152.47 123.54 152.44 124.53 C 152.40 125.52 153.18 126.34 154.16 126.37 Z M 155.08 126.41 L 156.06 126.51 C 157.05 126.62 157.94 125.90 158.04 124.91 C 158.15 123.92 157.43 123.03 156.44 122.93 L 155.46 122.83 C 154.47 122.72 153.58 123.44 153.48 124.43 C 153.37 125.42 154.09 126.31 155.08 126.41 Z M 155.83 126.49 L 156.72 126.70 C 157.70 126.93 158.68 126.33 158.91 125.35 C 159.14 124.37 158.54 123.39 157.56 123.16 L 156.66 122.95 C 155.69 122.72 154.71 123.33 154.48 124.31 C 154.25 125.28 154.85 126.26 155.83 126.49 Z M 156.28 126.56 L 157.19 127.04 C 158.09 127.52 159.21 127.17 159.68 126.27 C 160.16 125.37 159.81 124.26 158.91 123.78 L 158.00 123.30 C 157.10 122.83 155.99 123.17 155.51 124.07 C 155.04 124.97 155.38 126.08 156.28 126.56 Z M 156.62 126.61 L 157.21 127.32 C 157.87 128.12 159.05 128.23 159.84 127.57 C 160.64 126.91 160.75 125.73 160.09 124.94 L 159.49 124.22 C 158.83 123.43 157.66 123.32 156.86 123.98 C 156.07 124.63 155.96 125.81 156.62 126.61 Z M 156.87 126.76 L 157.19 127.69 C 157.54 128.67 158.62 129.18 159.61 128.84 C 160.59 128.49 161.11 127.41 160.76 126.42 L 160.43 125.50 C 160.08 124.52 159.00 124.00 158.02 124.35 C 157.04 124.70 156.52 125.78 156.87 126.76 Z M 157.09 127.30 L 157.20 128.19 C 157.34 129.24 158.29 129.98 159.34 129.84 C 160.38 129.71 161.12 128.75 160.98 127.70 L 160.87 126.81 C 160.73 125.76 159.78 125.03 158.73 125.16 C 157.69 125.30 156.95 126.25 157.09 127.30 Z M 157.17 127.94 L 157.17 128.94 C 157.17 130.00 158.02 130.86 159.08 130.86 C 160.14 130.87 161.00 130.01 161.01 128.95 L 161.01 127.96 C 161.02 126.90 160.16 126.03 159.10 126.03 C 158.04 126.03 157.18 126.88 157.17 127.94 Z M 157.17 128.74 L 157.06 129.79 C 156.94 130.85 157.71 131.80 158.77 131.92 C 159.83 132.03 160.78 131.27 160.89 130.21 L 161.01 129.15 C 161.12 128.09 160.36 127.14 159.30 127.03 C 158.24 126.91 157.28 127.68 157.17 128.74 Z M 157.07 129.62 L 156.86 130.68 C 156.65 131.73 157.33 132.75 158.38 132.97 C 159.43 133.18 160.45 132.50 160.66 131.45 L 160.88 130.38 C 161.09 129.33 160.41 128.31 159.36 128.10 C 158.31 127.89 157.28 128.57 157.07 129.62 Z M 156.89 130.53 L 156.60 131.55 C 156.30 132.59 156.91 133.66 157.94 133.96 C 158.98 134.25 160.05 133.65 160.35 132.61 L 160.63 131.59 C 160.93 130.56 160.33 129.48 159.29 129.19 C 158.26 128.90 157.18 129.50 156.89 130.53 Z M 156.63 131.44 L 156.29 132.41 C 155.94 133.43 156.48 134.55 157.49 134.90 C 158.51 135.25 159.63 134.71 159.98 133.69 L 160.32 132.72 C 160.67 131.70 160.13 130.59 159.11 130.24 C 158.09 129.88 156.98 130.42 156.63 131.44 Z M 156.31 132.34 L 155.96 133.23 C 155.56 134.24 156.06 135.37 157.06 135.77 C 158.07 136.17 159.20 135.67 159.60 134.67 L 159.96 133.77 C 160.35 132.77 159.86 131.63 158.85 131.23 C 157.85 130.84 156.71 131.33 156.31 132.34 Z M 155.98 133.17 L 155.59 134.09 C 155.16 135.08 155.62 136.24 156.61 136.66 C 157.60 137.09 158.76 136.64 159.19 135.64 L 159.58 134.73 C 160.01 133.73 159.55 132.58 158.56 132.15 C 157.56 131.72 156.41 132.18 155.98 133.17 Z M 155.61 134.03 L 155.17 134.98 C 154.71 135.96 155.13 137.13 156.12 137.59 C 157.10 138.05 158.27 137.62 158.73 136.64 L 159.17 135.69 C 159.62 134.71 159.20 133.54 158.22 133.08 C 157.23 132.63 156.07 133.05 155.61 134.03 Z M 155.19 134.93 L 154.78 135.75 C 154.29 136.72 154.68 137.90 155.65 138.39 C 156.62 138.87 157.80 138.48 158.29 137.51 L 158.70 136.69 C 159.19 135.72 158.80 134.54 157.83 134.05 C 156.86 133.57 155.68 133.96 155.19 134.93 Z M 154.79 135.72 L 154.35 136.57 C 153.84 137.53 154.21 138.72 155.18 139.22 C 156.14 139.72 157.32 139.35 157.82 138.39 L 158.27 137.54 C 158.77 136.58 158.40 135.40 157.44 134.89 C 156.48 134.39 155.30 134.76 154.79 135.72 Z M 154.36 136.55 L 153.88 137.44 C 153.37 138.39 153.73 139.58 154.68 140.09 C 155.63 140.61 156.82 140.25 157.34 139.30 L 157.81 138.41 C 158.33 137.46 157.97 136.27 157.02 135.75 C 156.06 135.24 154.87 135.60 154.36 136.55 Z M 153.90 137.41 L 153.41 138.29 C 152.88 139.24 153.22 140.43 154.17 140.96 C 155.11 141.49 156.31 141.15 156.84 140.20 L 157.32 139.32 C 157.85 138.37 157.51 137.18 156.56 136.65 C 155.62 136.12 154.42 136.47 153.90 137.41 Z M 153.42 138.27 L 152.92 139.14 C 152.38 140.08 152.70 141.28 153.64 141.82 C 154.58 142.36 155.78 142.03 156.32 141.10 L 156.82 140.22 C 157.36 139.28 157.04 138.09 156.10 137.55 C 155.16 137.01 153.96 137.33 153.42 138.27 Z M 152.93 139.12 L 152.43 139.98 C 151.88 140.91 152.19 142.11 153.12 142.66 C 154.05 143.21 155.25 142.90 155.80 141.97 L 156.31 141.11 C 156.86 140.18 156.54 138.98 155.61 138.43 C 154.68 137.88 153.48 138.19 152.93 139.12 Z M 152.43 139.98 L 151.92 140.84 C 151.37 141.77 151.67 142.97 152.60 143.52 C 153.53 144.07 154.73 143.77 155.28 142.84 L 155.80 141.97 C 156.35 141.04 156.04 139.84 155.11 139.29 C 154.18 138.74 152.98 139.05 152.43 139.98 Z M 151.93 140.83 L 151.41 141.69 C 150.85 142.61 151.15 143.81 152.07 144.37 C 153.00 144.93 154.20 144.63 154.76 143.71 L 155.27 142.85 C 155.83 141.93 155.53 140.72 154.61 140.17 C 153.69 139.61 152.49 139.91 151.93 140.83 Z M 151.43 141.66 L 150.90 142.50 C 150.33 143.41 150.60 144.62 151.52 145.19 C 152.43 145.76 153.63 145.49 154.21 144.58 L 154.73 143.74 C 155.31 142.83 155.03 141.62 154.12 141.05 C 153.21 140.47 152.01 140.75 151.43 141.66 Z M 150.93 142.47 L 150.38 143.30 C 149.79 144.20 150.04 145.41 150.94 146.00 C 151.84 146.59 153.04 146.34 153.63 145.44 L 154.18 144.61 C 154.77 143.71 154.52 142.50 153.63 141.91 C 152.73 141.32 151.52 141.57 150.93 142.47 Z M 150.38 143.30 L 149.84 144.13 C 149.25 145.03 149.50 146.24 150.40 146.82 C 151.29 147.41 152.50 147.16 153.09 146.27 L 153.63 145.44 C 154.22 144.54 153.97 143.34 153.07 142.75 C 152.18 142.16 150.97 142.41 150.38 143.30 Z M 149.83 144.15 L 149.32 144.95 C 148.74 145.86 149.00 147.06 149.90 147.63 C 150.80 148.21 152.00 147.95 152.58 147.05 L 153.10 146.25 C 153.67 145.34 153.41 144.15 152.51 143.57 C 151.61 142.99 150.41 143.25 149.83 144.15 Z M 149.33 144.94 L 148.77 145.79 C 148.18 146.68 148.43 147.88 149.32 148.47 C 150.21 149.06 151.42 148.81 152.00 147.92 L 152.57 147.07 C 153.15 146.17 152.91 144.97 152.02 144.38 C 151.12 143.80 149.92 144.04 149.33 144.94 Z M 148.81 145.74 L 148.22 146.57 C 147.61 147.44 147.81 148.64 148.68 149.26 C 149.55 149.88 150.76 149.67 151.37 148.80 L 151.96 147.97 C 152.58 147.10 152.37 145.89 151.50 145.28 C 150.63 144.66 149.43 144.87 148.81 145.74 Z M 148.27 146.51 L 147.65 147.32 C 147.01 148.16 147.16 149.37 148.01 150.01 C 148.85 150.66 150.06 150.50 150.70 149.66 L 151.32 148.86 C 151.97 148.02 151.81 146.81 150.97 146.16 C 150.13 145.51 148.92 145.67 148.27 146.51 Z M 147.71 147.26 L 147.06 148.02 C 146.38 148.83 146.49 150.04 147.30 150.73 C 148.11 151.41 149.32 151.30 150.00 150.49 L 150.65 149.72 C 151.33 148.91 151.22 147.70 150.41 147.02 C 149.60 146.34 148.39 146.44 147.71 147.26 Z M 147.11 147.92 L 146.24 148.85 C 145.50 149.64 145.54 150.87 146.33 151.61 C 147.11 152.34 148.34 152.31 149.08 151.52 L 149.95 150.59 C 150.69 149.81 150.65 148.57 149.87 147.84 C 149.08 147.10 147.85 147.14 147.11 147.92 Z M 146.05 148.95 L 145.60 149.53 C 144.92 150.42 145.09 151.69 145.98 152.38 C 146.87 153.06 148.14 152.90 148.83 152.00 L 149.27 151.42 C 149.96 150.53 149.79 149.26 148.90 148.57 C 148.01 147.89 146.73 148.06 146.05 148.95 Z M 147.11 152.85 L 147.90 152.89 C 149.05 152.95 150.03 152.07 150.09 150.91 C 150.15 149.76 149.26 148.78 148.11 148.72 L 147.32 148.68 C 146.17 148.62 145.19 149.51 145.13 150.66 C 145.07 151.81 145.96 152.79 147.11 152.85 Z M 146.93 152.61 L 147.69 153.07 C 148.69 153.66 149.98 153.34 150.57 152.34 C 151.17 151.35 150.85 150.06 149.85 149.46 L 149.09 149.00 C 148.09 148.41 146.80 148.73 146.20 149.73 C 145.60 150.72 145.93 152.02 146.93 152.61 Z M 146.75 151.92 L 147.08 152.91 C 147.44 154.02 148.63 154.63 149.75 154.27 C 150.86 153.90 151.47 152.71 151.10 151.60 L 150.78 150.61 C 150.42 149.50 149.23 148.89 148.11 149.25 C 147.00 149.61 146.39 150.81 146.75 151.92 Z M 146.98 152.52 L 147.11 153.54 C 147.25 154.71 148.32 155.54 149.49 155.39 C 150.65 155.24 151.48 154.18 151.33 153.01 L 151.20 151.99 C 151.06 150.82 149.99 149.99 148.82 150.14 C 147.66 150.29 146.83 151.35 146.98 152.52 Z M 147.09 153.40 L 147.15 154.40 C 147.22 155.58 148.23 156.47 149.40 156.40 C 150.58 156.33 151.48 155.32 151.41 154.15 L 151.35 153.15 C 151.28 151.98 150.27 151.08 149.09 151.15 C 147.92 151.22 147.02 152.23 147.09 153.40 Z M 147.15 154.33 L 147.17 155.37 C 147.20 156.55 148.18 157.48 149.36 157.45 C 150.54 157.42 151.47 156.44 151.44 155.26 L 151.41 154.22 C 151.38 153.04 150.40 152.11 149.22 152.14 C 148.05 152.17 147.12 153.15 147.15 154.33 Z M 147.17 155.34 L 147.18 156.35 C 147.20 157.52 148.16 158.47 149.34 158.46 C 150.52 158.44 151.46 157.48 151.45 156.30 L 151.44 155.29 C 151.43 154.11 150.46 153.17 149.28 153.18 C 148.10 153.19 147.16 154.16 147.17 155.34 Z M 147.19 156.33 L 147.19 157.33 C 147.19 158.51 148.15 159.46 149.33 159.46 C 150.50 159.45 151.46 158.49 151.45 157.32 L 151.45 156.31 C 151.44 155.14 150.48 154.19 149.31 154.19 C 148.13 154.20 147.18 155.15 147.19 156.33 Z M 147.20 157.33 L 147.20 158.32 C 147.20 159.49 148.15 160.44 149.32 160.44 C 150.50 160.44 151.45 159.49 151.45 158.32 L 151.45 157.32 C 151.44 156.15 150.49 155.20 149.32 155.20 C 148.15 155.20 147.20 156.15 147.20 157.33 Z M 147.22 158.32 L 147.22 159.32 C 147.22 160.48 148.16 161.42 149.32 161.42 C 150.48 161.42 151.42 160.48 151.42 159.32 L 151.42 158.32 C 151.42 157.15 150.48 156.21 149.32 156.21 C 148.16 156.21 147.22 157.15 147.22 158.32 Z M 147.25 159.32 L 147.25 160.32 C 147.25 161.46 148.18 162.38 149.32 162.38 C 150.46 162.38 151.39 161.46 151.39 160.32 L 151.39 159.32 C 151.39 158.18 150.46 157.25 149.32 157.25 C 148.18 157.25 147.25 158.18 147.25 159.32 Z M 147.30 160.32 L 147.30 161.31 C 147.30 162.43 148.20 163.33 149.32 163.33 C 150.44 163.33 151.34 162.43 151.34 161.31 L 151.34 160.32 C 151.34 159.20 150.44 158.29 149.32 158.29 C 148.20 158.29 147.30 159.20 147.30 160.32 Z M 147.37 161.31 L 147.37 162.31 C 147.37 163.38 148.24 164.26 149.32 164.26 C 150.40 164.26 151.27 163.38 151.27 162.31 L 151.27 161.31 C 151.27 160.23 150.40 159.36 149.32 159.36 C 148.24 159.36 147.37 160.23 147.37 161.31 Z M 147.46 162.31 L 147.46 163.31 C 147.46 164.34 148.29 165.18 149.32 165.18 C 150.35 165.18 151.18 164.34 151.18 163.31 L 151.18 162.31 C 151.18 161.28 150.35 160.44 149.32 160.44 C 148.29 160.44 147.46 161.28 147.46 162.31 Z M 147.51 163.31 L 147.51 163.60 C 147.51 164.60 148.32 165.41 149.32 165.41 C 150.32 165.41 151.13 164.60 151.13 163.60 L 151.13 163.31 C 151.13 162.31 150.32 161.51 149.32 161.51 C 148.32 161.51 147.51 162.31 147.51 163.31 Z"
      fill="black"
      fill-rule="nonzero" /><path d="M 146.62 179.30 L 147.13 180.42 C 147.55 181.33 148.63 181.74 149.55 181.32 C 150.47 180.90 150.87 179.81 150.45 178.90 L 149.94 177.79 C 149.53 176.87 148.44 176.46 147.52 176.88 C 146.61 177.30 146.20 178.39 146.62 179.30 Z M 150.11 180.93 L 150.39 180.64 C 151.09 179.92 151.07 178.76 150.35 178.06 C 149.62 177.35 148.46 177.37 147.76 178.10 L 147.48 178.38 C 146.78 179.11 146.79 180.27 147.52 180.97 C 148.25 181.67 149.40 181.65 150.11 180.93 Z M 147.57 180.41 L 147.65 180.52 C 148.22 181.36 149.36 181.56 150.19 180.99 C 151.02 180.41 151.23 179.27 150.66 178.44 L 150.58 178.33 C 150.00 177.50 148.86 177.29 148.03 177.86 C 147.20 178.44 146.99 179.58 147.57 180.41 Z M 147.34 179.68 L 147.44 180.62 C 147.55 181.62 148.45 182.35 149.45 182.24 C 150.46 182.13 151.18 181.22 151.07 180.22 L 150.97 179.28 C 150.86 178.28 149.95 177.56 148.95 177.67 C 147.95 177.78 147.23 178.68 147.34 179.68 Z M 147.45 180.60 L 147.58 181.89 C 147.68 182.88 148.57 183.61 149.57 183.51 C 150.56 183.41 151.29 182.52 151.19 181.52 L 151.06 180.24 C 150.96 179.24 150.07 178.52 149.07 178.62 C 148.08 178.72 147.35 179.61 147.45 180.60 Z M 147.58 181.88 L 147.61 182.14 C 147.71 183.14 148.59 183.86 149.59 183.77 C 150.58 183.67 151.31 182.78 151.21 181.79 L 151.18 181.53 C 151.09 180.53 150.20 179.81 149.21 179.90 C 148.21 180.00 147.49 180.89 147.58 181.88 Z"
      fill="black"
      fill-rule="nonzero" /></svg>