<svg xmlns="http://www.w3.org/2000/svg" width="300" height="300" viewBox="0 0 300 300">
<path d="M 122.09 124.35 L 122.76 125.04 C 123.43 125.74 124.53 125.76 125.23 125.10 C 125.92 124.43 125.94 123.32 125.28 122.63 L 124.61 121.93 C 123.94 121.24 122.84 121.21 122.14 121.88 C 121.45 122.55 121.42 123.65 122.09 124.35 Z M 122.55 124.87 L 123.12 125.68 C 123.69 126.49 124.81 126.68 125.62 126.12 C 126.43 125.55 126.62 124.43 126.06 123.62 L 125.48 122.81 C 124.92 122.00 123.80 121.80 122.99 122.37 C 122.18 122.94 121.98 124.06 122.55 124.87 Z M 122.88 125.30 L 123.23 126.20 C 123.59 127.14 124.65 127.61 125.59 127.25 C 126.53 126.88 127.00 125.83 126.64 124.89 L 126.29 123.99 C 125.93 123.05 124.87 122.58 123.93 122.94 C 122.99 123.31 122.52 124.36 122.88 125.30 Z M 123.13 125.87 L 123.29 126.78 C 123.47 127.78 124.43 128.44 125.42 128.26 C 126.42 128.08 127.08 127.13 126.90 126.13 L 126.74 125.22 C 126.56 124.22 125.60 123.56 124.61 123.74 C 123.61 123.92 122.95 124.87 123.13 125.87 Z M 123.28 126.60 L 123.36 127.64 C 123.44 128.64 124.32 129.39 125.33 129.31 C 126.33 129.23 127.08 128.35 127.00 127.34 L 126.92 126.31 C 126.84 125.31 125.95 124.56 124.95 124.64 C 123.95 124.72 123.20 125.60 123.28 126.60 Z M 123.36 127.55 L 123.40 128.65 C 123.43 129.66 124.27 130.44 125.28 130.41 C 126.28 130.38 127.07 129.54 127.03 128.53 L 127.00 127.43 C 126.96 126.43 126.12 125.64 125.12 125.67 C 124.12 125.71 123.33 126.55 123.36 127.55 Z M 123.41 128.62 L 123.42 129.64 C 123.44 130.64 124.26 131.44 125.26 131.43 C 126.26 131.41 127.05 130.59 127.04 129.59 L 127.03 128.57 C 127.01 127.57 126.19 126.77 125.19 126.79 C 124.19 126.80 123.39 127.62 123.41 128.62 Z M 123.43 129.61 L 123.43 130.64 C 123.43 131.63 124.23 132.44 125.22 132.45 C 126.22 132.45 127.03 131.64 127.03 130.65 L 127.03 129.62 C 127.03 128.63 126.23 127.82 125.24 127.82 C 124.24 127.81 123.43 128.62 123.43 129.61 Z M 123.44 130.60 L 123.41 131.60 C 123.39 132.59 124.17 133.41 125.16 133.43 C 126.15 133.46 126.97 132.68 126.99 131.69 L 127.02 130.69 C 127.04 129.70 126.26 128.88 125.27 128.85 C 124.28 128.83 123.46 129.61 123.44 130.60 Z M 123.42 131.54 L 123.37 132.52 C 123.31 133.50 124.06 134.34 125.04 134.40 C 126.03 134.46 126.87 133.71 126.93 132.72 L 126.98 131.74 C 127.04 130.76 126.29 129.92 125.31 129.86 C 124.32 129.80 123.48 130.56 123.42 131.54 Z M 123.38 132.44 L 123.27 133.47 C 123.17 134.45 123.88 135.32 124.85 135.43 C 125.83 135.53 126.70 134.82 126.81 133.84 L 126.91 132.80 C 127.02 131.83 126.31 130.96 125.33 130.85 C 124.36 130.75 123.48 131.46 123.38 132.44 Z M 123.29 133.39 L 123.14 134.35 C 122.99 135.32 123.66 136.22 124.62 136.37 C 125.59 136.51 126.49 135.85 126.64 134.88 L 126.79 133.93 C 126.94 132.96 126.27 132.06 125.31 131.91 C 124.34 131.76 123.44 132.43 123.29 133.39 Z M 123.16 134.29 L 122.98 135.23 C 122.80 136.18 123.44 137.11 124.39 137.29 C 125.35 137.46 126.27 136.83 126.45 135.87 L 126.63 134.94 C 126.81 133.98 126.17 133.06 125.22 132.88 C 124.26 132.70 123.34 133.33 123.16 134.29 Z M 122.99 135.20 L 122.80 136.15 C 122.60 137.10 123.22 138.03 124.17 138.23 C 125.12 138.42 126.05 137.81 126.25 136.85 L 126.44 135.90 C 126.64 134.95 126.02 134.02 125.07 133.83 C 124.12 133.63 123.19 134.25 122.99 135.20 Z M 122.80 136.13 L 122.59 137.11 C 122.39 138.06 122.99 139.00 123.94 139.20 C 124.89 139.41 125.83 138.80 126.03 137.85 L 126.24 136.87 C 126.45 135.92 125.84 134.99 124.89 134.78 C 123.94 134.58 123.01 135.18 122.80 136.13 Z M 122.60 137.10 L 122.37 138.11 C 122.16 139.06 122.76 140.00 123.71 140.21 C 124.65 140.42 125.59 139.82 125.80 138.87 L 126.03 137.87 C 126.24 136.92 125.64 135.98 124.69 135.77 C 123.75 135.56 122.81 136.15 122.60 137.10 Z M 122.38 138.10 L 122.15 139.08 C 121.94 140.03 122.53 140.97 123.48 141.18 C 124.42 141.40 125.36 140.81 125.58 139.86 L 125.80 138.88 C 126.02 137.94 125.42 136.99 124.48 136.78 C 123.53 136.56 122.59 137.16 122.38 138.10 Z M 122.15 139.07 L 121.93 140.06 C 121.70 141.00 122.29 141.94 123.24 142.16 C 124.18 142.39 125.13 141.80 125.35 140.85 L 125.58 139.87 C 125.80 138.93 125.21 137.98 124.26 137.76 C 123.32 137.54 122.37 138.13 122.15 139.07 Z M 121.93 140.04 L 121.70 141.01 C 121.47 141.95 122.05 142.90 122.99 143.13 C 123.94 143.35 124.88 142.77 125.11 141.83 L 125.34 140.87 C 125.57 139.92 124.99 138.97 124.05 138.75 C 123.10 138.52 122.15 139.10 121.93 140.04 Z M 121.70 140.99 L 121.45 141.99 C 121.22 142.93 121.79 143.88 122.73 144.11 C 123.67 144.35 124.62 143.78 124.85 142.84 L 125.10 141.84 C 125.34 140.91 124.77 139.95 123.83 139.72 C 122.89 139.48 121.94 140.05 121.70 140.99 Z M 121.47 141.97 L 121.21 142.94 C 120.97 143.87 121.52 144.82 122.45 145.07 C 123.38 145.31 124.34 144.76 124.58 143.83 L 124.84 142.86 C 125.08 141.93 124.53 140.98 123.60 140.73 C 122.67 140.48 121.72 141.04 121.47 141.97 Z M 121.23 142.92 L 120.97 143.85 C 120.71 144.77 121.25 145.73 122.17 145.99 C 123.09 146.25 124.04 145.71 124.30 144.79 L 124.56 143.85 C 124.82 142.93 124.29 141.98 123.37 141.72 C 122.45 141.46 121.49 142.00 121.23 142.92 Z M 120.98 143.83 L 120.69 144.79 C 120.42 145.71 120.94 146.67 121.85 146.94 C 122.76 147.22 123.72 146.70 124.00 145.79 L 124.29 144.82 C 124.56 143.90 124.04 142.94 123.13 142.67 C 122.22 142.39 121.26 142.91 120.98 143.83 Z M 120.70 144.77 L 120.39 145.72 C 120.10 146.63 120.61 147.60 121.52 147.89 C 122.42 148.18 123.40 147.68 123.69 146.77 L 123.99 145.81 C 124.28 144.91 123.78 143.93 122.87 143.64 C 121.96 143.35 120.99 143.86 120.70 144.77 Z M 120.40 145.70 L 120.09 146.62 C 119.79 147.53 120.27 148.51 121.18 148.81 C 122.09 149.12 123.07 148.63 123.37 147.72 L 123.68 146.80 C 123.99 145.89 123.50 144.91 122.59 144.60 C 121.68 144.30 120.70 144.79 120.40 145.70 Z M 120.09 146.60 L 119.78 147.49 C 119.46 148.40 119.94 149.39 120.84 149.70 C 121.75 150.02 122.74 149.54 123.05 148.64 L 123.37 147.75 C 123.69 146.84 123.21 145.85 122.31 145.53 C 121.40 145.22 120.41 145.69 120.09 146.60 Z M 119.78 147.46 L 119.44 148.39 C 119.10 149.29 119.56 150.29 120.46 150.62 C 121.37 150.96 122.37 150.50 122.70 149.60 L 123.05 148.67 C 123.38 147.77 122.92 146.77 122.02 146.43 C 121.12 146.10 120.12 146.56 119.78 147.46 Z M 119.45 148.35 L 119.06 149.32 C 118.71 150.22 119.15 151.24 120.05 151.59 C 120.94 151.94 121.96 151.50 122.31 150.61 L 122.70 149.63 C 123.05 148.74 122.61 147.72 121.71 147.37 C 120.82 147.01 119.80 147.45 119.45 148.35 Z M 119.07 149.29 L 118.69 150.20 C 118.32 151.09 118.74 152.12 119.64 152.49 C 120.53 152.86 121.56 152.44 121.93 151.54 L 122.31 150.64 C 122.68 149.74 122.26 148.72 121.36 148.34 C 120.47 147.97 119.44 148.40 119.07 149.29 Z M 118.69 150.16 L 118.28 151.10 C 117.89 152.00 118.30 153.04 119.19 153.43 C 120.09 153.82 121.13 153.41 121.52 152.52 L 121.93 151.58 C 122.32 150.69 121.91 149.64 121.02 149.25 C 120.13 148.86 119.08 149.27 118.69 150.16 Z M 118.29 151.06 L 117.86 151.97 C 117.44 152.86 117.83 153.92 118.72 154.34 C 119.61 154.76 120.66 154.37 121.08 153.48 L 121.51 152.56 C 121.93 151.68 121.54 150.62 120.66 150.20 C 119.77 149.78 118.71 150.17 118.29 151.06 Z M 117.87 151.92 L 117.31 153.02 C 116.86 153.90 117.22 154.98 118.10 155.43 C 118.99 155.88 120.07 155.52 120.52 154.64 L 121.07 153.54 C 121.52 152.66 121.17 151.57 120.28 151.13 C 119.40 150.68 118.32 151.03 117.87 151.92 Z M 117.24 153.11 L 116.85 154.03 C 116.45 154.95 116.88 156.02 117.80 156.42 C 118.72 156.82 119.79 156.39 120.19 155.47 L 120.59 154.55 C 120.98 153.63 120.56 152.55 119.63 152.16 C 118.71 151.76 117.64 152.18 117.24 153.11 Z M 116.69 155.08 L 116.79 155.65 C 116.98 156.66 117.94 157.33 118.95 157.15 C 119.96 156.96 120.63 156.00 120.45 154.99 L 120.35 154.41 C 120.16 153.41 119.20 152.73 118.19 152.92 C 117.18 153.10 116.51 154.07 116.69 155.08 Z M 118.40 157.23 L 119.35 157.34 C 120.40 157.46 121.36 156.70 121.48 155.65 C 121.60 154.59 120.84 153.64 119.78 153.51 L 118.84 153.41 C 117.79 153.29 116.83 154.04 116.71 155.10 C 116.59 156.16 117.35 157.11 118.40 157.23 Z M 119.68 157.41 L 120.78 157.35 C 121.88 157.29 122.72 156.35 122.65 155.25 C 122.59 154.16 121.65 153.32 120.56 153.38 L 119.45 153.44 C 118.36 153.50 117.52 154.44 117.58 155.54 C 117.64 156.63 118.58 157.47 119.68 157.41 Z M 120.64 157.38 L 121.64 157.39 C 122.75 157.40 123.66 156.51 123.67 155.40 C 123.69 154.29 122.80 153.38 121.69 153.36 L 120.69 153.35 C 119.58 153.34 118.67 154.23 118.66 155.34 C 118.64 156.45 119.53 157.36 120.64 157.38 Z M 121.45 157.38 L 122.44 157.48 C 123.54 157.60 124.54 156.80 124.65 155.69 C 124.77 154.58 123.97 153.59 122.86 153.47 L 121.87 153.37 C 120.76 153.26 119.77 154.06 119.66 155.17 C 119.54 156.27 120.34 157.27 121.45 157.38 Z M 122.25 157.46 L 123.21 157.65 C 124.30 157.87 125.36 157.16 125.58 156.07 C 125.80 154.98 125.10 153.92 124.01 153.70 L 123.05 153.50 C 121.95 153.28 120.89 153.99 120.67 155.08 C 120.45 156.17 121.16 157.24 122.25 157.46 Z M 123.04 157.61 L 124.03 157.90 C 125.10 158.21 126.22 157.60 126.53 156.53 C 126.85 155.46 126.23 154.34 125.16 154.02 L 124.17 153.74 C 123.10 153.42 121.98 154.04 121.67 155.11 C 121.36 156.18 121.97 157.30 123.04 157.61 Z M 123.90 157.85 L 124.81 158.19 C 125.86 158.58 127.02 158.04 127.40 157.00 C 127.79 155.95 127.26 154.79 126.21 154.41 L 125.30 154.07 C 124.25 153.68 123.09 154.22 122.70 155.26 C 122.32 156.31 122.85 157.47 123.90 157.85 Z M 124.71 158.15 L 125.63 158.55 C 126.65 158.99 127.84 158.52 128.28 157.50 C 128.72 156.47 128.25 155.29 127.23 154.84 L 126.31 154.45 C 125.29 154.01 124.10 154.48 123.66 155.50 C 123.22 156.52 123.69 157.71 124.71 158.15 Z M 125.56 158.51 L 126.49 158.96 C 127.49 159.44 128.70 159.02 129.18 158.01 C 129.66 157.01 129.23 155.80 128.23 155.32 L 127.30 154.88 C 126.30 154.40 125.09 154.82 124.61 155.83 C 124.13 156.83 124.56 158.03 125.56 158.51 Z M 126.44 158.93 L 127.33 159.39 C 128.32 159.89 129.53 159.50 130.04 158.51 C 130.55 157.53 130.16 156.31 129.17 155.81 L 128.28 155.35 C 127.29 154.84 126.07 155.23 125.57 156.22 C 125.06 157.21 125.45 158.43 126.44 158.93 Z M 127.30 159.37 L 128.19 159.84 C 129.17 160.36 130.39 159.99 130.91 159.01 C 131.43 158.03 131.06 156.82 130.08 156.30 L 129.19 155.82 C 128.21 155.30 127.00 155.67 126.47 156.65 C 125.95 157.63 126.33 158.85 127.30 159.37 Z M 128.19 159.83 L 129.06 160.30 C 130.03 160.83 131.25 160.46 131.77 159.49 C 132.30 158.51 131.93 157.30 130.96 156.77 L 130.09 156.31 C 129.11 155.78 127.90 156.14 127.37 157.12 C 126.85 158.09 127.21 159.31 128.19 159.83 Z M 129.06 160.30 L 129.91 160.75 C 130.88 161.27 132.09 160.91 132.61 159.94 C 133.13 158.97 132.77 157.76 131.80 157.24 L 130.95 156.78 C 129.98 156.26 128.77 156.62 128.25 157.59 C 127.73 158.56 128.09 159.77 129.06 160.30 Z M 129.90 160.74 L 130.77 161.21 C 131.73 161.74 132.94 161.39 133.47 160.43 C 133.99 159.46 133.64 158.26 132.68 157.73 L 131.81 157.25 C 130.85 156.72 129.64 157.08 129.11 158.04 C 128.58 159.00 128.94 160.21 129.90 160.74 Z M 130.75 161.19 L 131.66 161.71 C 132.61 162.25 133.82 161.91 134.36 160.96 C 134.90 160.01 134.56 158.81 133.61 158.27 L 132.70 157.75 C 131.75 157.21 130.54 157.54 130.00 158.50 C 129.46 159.45 129.80 160.65 130.75 161.19 Z M 131.64 161.69 L 132.52 162.20 C 133.45 162.75 134.66 162.43 135.21 161.49 C 135.76 160.55 135.44 159.35 134.50 158.80 L 133.63 158.29 C 132.69 157.74 131.48 158.06 130.94 159.00 C 130.39 159.93 130.70 161.14 131.64 161.69 Z M 132.52 162.19 L 133.41 162.71 C 134.34 163.25 135.54 162.94 136.08 162.01 C 136.63 161.08 136.32 159.88 135.39 159.33 L 134.50 158.81 C 133.57 158.26 132.37 158.58 131.82 159.51 C 131.27 160.44 131.59 161.64 132.52 162.19 Z M 133.43 162.71 L 134.28 163.20 C 135.21 163.73 136.40 163.41 136.94 162.48 C 137.47 161.55 137.15 160.36 136.22 159.82 L 135.37 159.33 C 134.43 158.80 133.24 159.12 132.71 160.05 C 132.17 160.98 132.50 162.17 133.43 162.71 Z M 134.34 163.20 L 135.27 163.70 C 136.21 164.20 137.37 163.85 137.87 162.92 C 138.37 161.99 138.03 160.82 137.09 160.32 L 136.16 159.82 C 135.23 159.32 134.06 159.67 133.56 160.60 C 133.06 161.53 133.41 162.70 134.34 163.20 Z M 135.40 163.72 L 136.30 164.13 C 137.24 164.56 138.36 164.14 138.79 163.20 C 139.22 162.26 138.80 161.15 137.86 160.72 L 136.96 160.31 C 136.02 159.88 134.91 160.29 134.48 161.23 C 134.05 162.17 134.46 163.29 135.40 163.72 Z M 136.50 164.15 L 137.38 164.45 C 138.34 164.77 139.37 164.25 139.69 163.30 C 140.01 162.34 139.50 161.31 138.54 160.99 L 137.66 160.69 C 136.71 160.37 135.67 160.89 135.35 161.84 C 135.03 162.80 135.55 163.83 136.50 164.15 Z M 137.60 164.45 L 138.56 164.65 C 139.52 164.85 140.46 164.24 140.66 163.28 C 140.86 162.33 140.25 161.39 139.29 161.19 L 138.33 160.99 C 137.37 160.79 136.43 161.40 136.23 162.35 C 136.03 163.31 136.64 164.25 137.60 164.45 Z M 138.70 164.61 L 139.70 164.75 C 140.63 164.88 141.49 164.22 141.62 163.29 C 141.74 162.35 141.09 161.49 140.15 161.36 L 139.16 161.23 C 138.22 161.10 137.36 161.76 137.23 162.69 C 137.11 163.63 137.76 164.49 138.70 164.61 Z M 139.74 164.71 L 140.23 164.76 C 141.15 164.87 141.97 164.21 142.07 163.30 C 142.17 162.38 141.52 161.56 140.60 161.46 L 140.11 161.40 C 139.20 161.30 138.37 161.96 138.27 162.87 C 138.17 163.78 138.83 164.61 139.74 164.71 Z"
      fill="black"
      fill-rule="nonzero" /><path d="M 132.40 123.69 L 132.45 124.74 C 132.50 125.66 133.28 126.36 134.20 126.31 C 135.11 126.26 135.82 125.48 135.77 124.57 L 135.71 123.52 C 135.66 122.60 134.88 121.90 133.97 121.95 C 133.05 121.99 132.35 122.77 132.40 123.69 Z M 132.37 124.74 L 132.42 125.77 C 132.47 126.73 133.29 127.47 134.25 127.42 C 135.21 127.37 135.95 126.55 135.90 125.59 L 135.85 124.57 C 135.80 123.61 134.99 122.87 134.03 122.92 C 133.06 122.96 132.33 123.78 132.37 124.74 Z M 132.34 125.76 L 132.38 126.72 C 132.43 127.73 133.28 128.51 134.28 128.47 C 135.29 128.42 136.07 127.57 136.02 126.57 L 135.98 125.60 C 135.94 124.60 135.09 123.82 134.08 123.86 C 133.08 123.90 132.30 124.75 132.34 125.76 Z M 132.32 126.70 L 132.35 127.69 C 132.38 128.73 133.25 129.55 134.29 129.52 C 135.33 129.49 136.15 128.62 136.12 127.58 L 136.09 126.59 C 136.05 125.55 135.19 124.73 134.15 124.76 C 133.11 124.80 132.29 125.66 132.32 126.70 Z M 132.33 127.66 L 132.34 128.66 C 132.36 129.71 133.23 130.55 134.28 130.54 C 135.33 130.52 136.17 129.66 136.15 128.60 L 136.14 127.61 C 136.12 126.55 135.26 125.71 134.21 125.73 C 133.15 125.75 132.31 126.61 132.33 127.66 Z M 132.34 128.64 L 132.35 129.61 C 132.35 130.66 133.21 131.51 134.26 131.51 C 135.31 131.50 136.16 130.65 136.16 129.59 L 136.16 128.63 C 136.15 127.57 135.30 126.72 134.24 126.73 C 133.19 126.73 132.34 127.59 132.34 128.64 Z M 132.35 129.60 L 132.35 130.53 C 132.35 131.58 133.20 132.44 134.25 132.44 C 135.31 132.44 136.16 131.58 136.16 130.53 L 136.16 129.60 C 136.16 128.55 135.31 127.69 134.25 127.69 C 133.20 127.69 132.35 128.55 132.35 129.60 Z M 132.34 130.53 L 132.34 131.50 C 132.34 132.55 133.20 133.40 134.25 133.40 C 135.31 133.40 136.16 132.55 136.16 131.50 L 136.16 130.53 C 136.16 129.48 135.31 128.62 134.25 128.62 C 133.20 128.62 132.34 129.48 132.34 130.53 Z M 132.34 131.50 L 132.34 132.55 C 132.34 133.60 133.20 134.45 134.25 134.45 C 135.31 134.45 136.16 133.60 136.16 132.55 L 136.16 131.50 C 136.16 130.44 135.31 129.59 134.25 129.59 C 133.20 129.59 132.34 130.44 132.34 131.50 Z M 132.34 132.55 L 132.34 133.56 C 132.34 134.61 133.20 135.47 134.25 135.47 C 135.31 135.47 136.16 134.61 136.16 133.56 L 136.16 132.55 C 136.16 131.49 135.31 130.64 134.25 130.64 C 133.20 130.64 132.34 131.49 132.34 132.55 Z M 132.34 133.55 L 132.34 134.52 C 132.33 135.57 133.18 136.43 134.24 136.43 C 135.29 136.44 136.15 135.59 136.16 134.54 L 136.16 133.57 C 136.17 132.51 135.32 131.66 134.26 131.65 C 133.21 131.64 132.35 132.49 132.34 133.55 Z M 132.34 134.49 L 132.32 135.50 C 132.30 136.55 133.14 137.42 134.19 137.44 C 135.24 137.46 136.11 136.63 136.13 135.57 L 136.15 134.56 C 136.17 133.51 135.34 132.64 134.28 132.62 C 133.23 132.60 132.36 133.44 132.34 134.49 Z M 132.32 135.46 L 132.28 136.50 C 132.23 137.55 133.05 138.44 134.10 138.48 C 135.16 138.52 136.05 137.71 136.09 136.65 L 136.13 135.62 C 136.18 134.56 135.36 133.67 134.31 133.63 C 133.25 133.59 132.37 134.40 132.32 135.46 Z M 132.28 136.44 L 132.21 137.45 C 132.14 138.50 132.93 139.41 133.98 139.48 C 135.03 139.56 135.94 138.77 136.01 137.72 L 136.09 136.71 C 136.16 135.66 135.37 134.75 134.32 134.67 C 133.27 134.60 132.36 135.39 132.28 136.44 Z M 132.22 137.39 L 132.12 138.37 C 132.01 139.42 132.78 140.35 133.82 140.46 C 134.87 140.56 135.81 139.80 135.91 138.75 L 136.01 137.77 C 136.11 136.72 135.35 135.79 134.30 135.68 C 133.25 135.58 132.32 136.34 132.22 137.39 Z M 132.12 138.33 L 132.00 139.32 C 131.87 140.36 132.61 141.31 133.65 141.44 C 134.70 141.57 135.65 140.83 135.78 139.79 L 135.91 138.80 C 136.04 137.75 135.29 136.80 134.25 136.67 C 133.21 136.54 132.25 137.28 132.12 138.33 Z M 132.00 139.28 L 131.86 140.28 C 131.71 141.32 132.43 142.29 133.47 142.44 C 134.51 142.59 135.48 141.87 135.63 140.83 L 135.78 139.83 C 135.93 138.78 135.21 137.82 134.16 137.67 C 133.12 137.52 132.16 138.24 132.00 139.28 Z M 131.86 140.25 L 131.70 141.25 C 131.54 142.29 132.24 143.27 133.28 143.44 C 134.32 143.60 135.30 142.90 135.46 141.86 L 135.63 140.86 C 135.79 139.82 135.09 138.84 134.05 138.67 C 133.01 138.51 132.03 139.21 131.86 140.25 Z M 131.71 141.23 L 131.54 142.21 C 131.36 143.25 132.05 144.23 133.09 144.41 C 134.12 144.59 135.11 143.90 135.29 142.86 L 135.46 141.88 C 135.64 140.85 134.95 139.86 133.91 139.68 C 132.87 139.50 131.89 140.19 131.71 141.23 Z M 131.54 142.19 L 131.36 143.17 C 131.16 144.21 131.84 145.20 132.88 145.40 C 133.91 145.59 134.90 144.91 135.10 143.88 L 135.28 142.89 C 135.48 141.86 134.80 140.86 133.76 140.67 C 132.73 140.47 131.74 141.15 131.54 142.19 Z M 131.36 143.15 L 131.16 144.13 C 130.95 145.16 131.62 146.16 132.65 146.37 C 133.68 146.58 134.68 145.92 134.89 144.89 L 135.09 143.90 C 135.30 142.87 134.64 141.87 133.60 141.66 C 132.57 141.45 131.57 142.12 131.36 143.15 Z M 131.17 144.10 L 130.96 145.08 C 130.73 146.10 131.38 147.12 132.41 147.34 C 133.44 147.57 134.45 146.92 134.67 145.89 L 134.89 144.91 C 135.11 143.89 134.46 142.87 133.43 142.65 C 132.41 142.43 131.39 143.08 131.17 144.10 Z M 130.96 145.05 L 130.73 146.04 C 130.49 147.06 131.12 148.08 132.15 148.32 C 133.17 148.57 134.19 147.93 134.43 146.91 L 134.67 145.92 C 134.91 144.90 134.27 143.87 133.25 143.63 C 132.23 143.39 131.20 144.03 130.96 145.05 Z M 130.74 146.01 L 130.49 146.99 C 130.23 148.00 130.85 149.04 131.87 149.30 C 132.88 149.55 133.92 148.94 134.18 147.92 L 134.43 146.94 C 134.68 145.92 134.07 144.89 133.05 144.63 C 132.03 144.37 131.00 144.99 130.74 146.01 Z M 130.50 146.96 L 130.24 147.92 C 129.96 148.93 130.56 149.98 131.58 150.25 C 132.59 150.53 133.63 149.93 133.91 148.91 L 134.17 147.95 C 134.44 146.94 133.84 145.89 132.83 145.62 C 131.82 145.34 130.77 145.94 130.50 146.96 Z M 130.25 147.89 L 129.97 148.84 C 129.68 149.85 130.27 150.90 131.27 151.19 C 132.28 151.48 133.34 150.90 133.63 149.89 L 133.90 148.94 C 134.19 147.93 133.61 146.88 132.60 146.59 C 131.59 146.30 130.54 146.88 130.25 147.89 Z M 129.98 148.81 L 129.69 149.77 C 129.38 150.77 129.95 151.84 130.95 152.14 C 131.96 152.45 133.02 151.88 133.33 150.88 L 133.62 149.92 C 133.92 148.91 133.36 147.85 132.35 147.54 C 131.35 147.24 130.29 147.80 129.98 148.81 Z M 129.70 149.74 L 129.39 150.71 C 129.06 151.71 129.61 152.78 130.61 153.10 C 131.61 153.42 132.68 152.88 133.00 151.88 L 133.32 150.91 C 133.64 149.91 133.09 148.84 132.09 148.51 C 131.09 148.19 130.02 148.74 129.70 149.74 Z M 129.40 150.68 L 129.07 151.63 C 128.73 152.62 129.26 153.70 130.25 154.04 C 131.25 154.38 132.33 153.85 132.67 152.86 L 132.99 151.91 C 133.33 150.92 132.80 149.83 131.81 149.49 C 130.82 149.15 129.74 149.68 129.40 150.68 Z M 129.08 151.59 L 128.75 152.51 C 128.39 153.50 128.90 154.59 129.88 154.95 C 130.87 155.31 131.96 154.80 132.32 153.82 L 132.66 152.89 C 133.02 151.91 132.51 150.81 131.52 150.46 C 130.53 150.10 129.44 150.60 129.08 151.59 Z M 128.76 152.47 L 128.40 153.40 C 128.02 154.37 128.51 155.48 129.49 155.86 C 130.46 156.24 131.57 155.75 131.95 154.78 L 132.30 153.85 C 132.69 152.88 132.20 151.77 131.22 151.39 C 130.24 151.01 129.14 151.50 128.76 152.47 Z M 128.42 153.36 L 128.03 154.28 C 127.63 155.25 128.09 156.36 129.06 156.77 C 130.03 157.17 131.14 156.71 131.54 155.74 L 131.93 154.82 C 132.33 153.85 131.87 152.73 130.91 152.33 C 129.94 151.93 128.82 152.39 128.42 153.36 Z M 128.05 154.24 L 127.65 155.15 C 127.22 156.11 127.66 157.24 128.62 157.66 C 129.58 158.08 130.70 157.65 131.13 156.69 L 131.53 155.78 C 131.95 154.82 131.52 153.70 130.56 153.27 C 129.60 152.85 128.47 153.28 128.05 154.24 Z M 127.66 155.12 L 127.24 156.02 C 126.80 156.97 127.22 158.10 128.17 158.55 C 129.12 158.99 130.25 158.58 130.69 157.62 L 131.11 156.72 C 131.55 155.77 131.14 154.64 130.19 154.20 C 129.24 153.76 128.11 154.17 127.66 155.12 Z M 127.26 155.99 L 126.81 156.91 C 126.36 157.85 126.75 158.99 127.70 159.45 C 128.64 159.91 129.78 159.51 130.24 158.57 L 130.68 157.65 C 131.14 156.71 130.74 155.57 129.80 155.11 C 128.85 154.65 127.72 155.05 127.26 155.99 Z M 126.83 156.88 L 126.37 157.80 C 125.90 158.73 126.27 159.88 127.21 160.35 C 128.15 160.82 129.29 160.44 129.76 159.51 L 130.22 158.59 C 130.70 157.65 130.32 156.51 129.38 156.04 C 128.44 155.57 127.30 155.94 126.83 156.88 Z M 126.38 157.77 L 125.92 158.66 C 125.43 159.59 125.79 160.74 126.72 161.23 C 127.65 161.71 128.80 161.35 129.28 160.42 L 129.75 159.53 C 130.24 158.60 129.88 157.45 128.95 156.97 C 128.02 156.48 126.87 156.84 126.38 157.77 Z M 125.93 158.63 L 125.47 159.48 C 124.97 160.40 125.31 161.55 126.23 162.06 C 127.15 162.56 128.30 162.22 128.81 161.30 L 129.27 160.45 C 129.77 159.53 129.43 158.38 128.51 157.87 C 127.59 157.37 126.43 157.71 125.93 158.63 Z M 125.49 159.44 L 124.96 160.36 C 124.44 161.27 124.75 162.43 125.66 162.95 C 126.57 163.48 127.73 163.16 128.26 162.25 L 128.78 161.34 C 129.31 160.43 129.00 159.26 128.09 158.74 C 127.18 158.22 126.01 158.53 125.49 159.44 Z M 124.99 160.31 L 124.46 161.17 C 123.92 162.07 124.20 163.24 125.09 163.78 C 125.99 164.33 127.16 164.05 127.71 163.15 L 128.23 162.30 C 128.78 161.40 128.50 160.23 127.60 159.68 C 126.71 159.14 125.54 159.42 124.99 160.31 Z M 124.49 161.13 L 123.97 161.92 C 123.40 162.80 123.65 163.98 124.53 164.55 C 125.42 165.12 126.59 164.87 127.16 163.99 L 127.68 163.20 C 128.25 162.32 128.00 161.14 127.12 160.57 C 126.24 160.00 125.06 160.25 124.49 161.13 Z M 124.00 161.88 L 123.43 162.72 C 122.83 163.58 123.05 164.77 123.92 165.36 C 124.78 165.96 125.97 165.74 126.56 164.87 L 127.14 164.03 C 127.73 163.17 127.51 161.99 126.65 161.39 C 125.78 160.80 124.60 161.02 124.00 161.88 Z M 123.46 162.68 L 122.87 163.49 C 122.25 164.34 122.44 165.53 123.29 166.14 C 124.13 166.76 125.32 166.57 125.94 165.73 L 126.53 164.91 C 127.15 164.06 126.96 162.87 126.11 162.26 C 125.26 161.64 124.08 161.83 123.46 162.68 Z M 122.90 163.45 L 122.31 164.21 C 121.67 165.04 121.83 166.24 122.66 166.88 C 123.49 167.52 124.68 167.36 125.32 166.53 L 125.91 165.77 C 126.55 164.94 126.39 163.74 125.56 163.10 C 124.73 162.46 123.54 162.62 122.90 163.45 Z M 122.35 164.17 L 121.70 164.97 C 121.03 165.78 121.15 166.97 121.97 167.64 C 122.78 168.30 123.97 168.18 124.64 167.37 L 125.29 166.57 C 125.95 165.76 125.83 164.56 125.02 163.90 C 124.20 163.24 123.01 163.36 122.35 164.17 Z M 121.73 164.93 L 121.09 165.68 C 120.41 166.47 120.50 167.66 121.29 168.34 C 122.08 169.02 123.27 168.94 123.96 168.15 L 124.60 167.40 C 125.28 166.61 125.19 165.42 124.40 164.74 C 123.61 164.05 122.42 164.14 121.73 164.93 Z M 121.13 165.65 L 120.50 166.34 C 119.81 167.11 119.87 168.30 120.64 169.00 C 121.41 169.70 122.60 169.63 123.30 168.86 L 123.92 168.17 C 124.62 167.40 124.56 166.21 123.79 165.51 C 123.01 164.82 121.82 164.88 121.13 165.65 Z M 120.55 166.30 L 119.88 167.00 C 119.16 167.75 119.19 168.93 119.93 169.65 C 120.68 170.37 121.87 170.34 122.58 169.60 L 123.25 168.90 C 123.97 168.15 123.94 166.97 123.20 166.25 C 122.45 165.53 121.27 165.56 120.55 166.30 Z M 119.94 166.96 L 119.16 167.71 C 118.42 168.42 118.40 169.60 119.11 170.34 C 119.83 171.08 121.01 171.10 121.75 170.39 L 122.52 169.64 C 123.26 168.93 123.28 167.75 122.57 167.01 C 121.86 166.27 120.68 166.25 119.94 166.96 Z M 119.22 167.67 L 118.48 168.33 C 117.72 169.02 117.66 170.19 118.34 170.95 C 119.02 171.71 120.19 171.77 120.95 171.09 L 121.69 170.42 C 122.45 169.74 122.52 168.57 121.83 167.81 C 121.15 167.05 119.98 166.99 119.22 167.67 Z M 118.54 168.29 L 117.74 168.95 C 116.96 169.60 116.85 170.76 117.50 171.54 C 118.15 172.33 119.31 172.44 120.09 171.79 L 120.89 171.13 C 121.67 170.48 121.78 169.32 121.13 168.54 C 120.49 167.75 119.32 167.64 118.54 168.29 Z M 117.84 168.89 L 117.04 169.48 C 116.22 170.08 116.05 171.22 116.65 172.04 C 117.24 172.85 118.39 173.03 119.20 172.43 L 120.00 171.85 C 120.82 171.25 120.99 170.10 120.40 169.29 C 119.80 168.47 118.65 168.30 117.84 168.89 Z M 117.26 169.37 L 116.19 169.95 C 115.31 170.43 114.99 171.53 115.47 172.40 C 115.95 173.28 117.05 173.60 117.92 173.12 L 118.99 172.54 C 119.86 172.06 120.19 170.96 119.71 170.09 C 119.23 169.21 118.13 168.89 117.26 169.37 Z M 116.89 169.78 L 116.08 169.85 C 115.11 169.94 114.40 170.81 114.49 171.78 C 114.58 172.75 115.44 173.47 116.41 173.37 L 117.22 173.30 C 118.19 173.21 118.91 172.34 118.82 171.37 C 118.72 170.40 117.86 169.69 116.89 169.78 Z M 117.69 170.68 L 117.29 170.08 C 116.78 169.28 115.72 169.06 114.93 169.57 C 114.13 170.08 113.91 171.14 114.42 171.94 L 114.81 172.54 C 115.32 173.34 116.38 173.56 117.18 173.05 C 117.97 172.54 118.20 171.48 117.69 170.68 Z M 117.49 170.88 L 117.40 169.79 C 117.33 168.89 116.54 168.22 115.64 168.29 C 114.74 168.36 114.07 169.15 114.14 170.05 L 114.23 171.13 C 114.30 172.03 115.08 172.71 115.98 172.64 C 116.88 172.57 117.56 171.78 117.49 170.88 Z M 117.35 169.91 L 117.35 169.56 C 117.35 168.69 116.64 167.98 115.77 167.99 C 114.89 167.99 114.19 168.70 114.19 169.57 L 114.19 169.92 C 114.19 170.80 114.90 171.50 115.78 171.50 C 116.65 171.50 117.36 170.79 117.35 169.91 Z"
      fill="black"
      fill-rule="nonzero" /><path d="M 113.25 149.53 L 114.10 148.92 C 114.87 148.38 115.05 147.32 114.51 146.55 C 113.96 145.79 112.90 145.61 112.14 146.15 L 111.28 146.76 C 110.52 147.30 110.34 148.36 110.88 149.12 C 111.42 149.89 112.48 150.07 113.25 149.53 Z M 114.17 149.02 L 115.00 148.44 C 115.82 147.86 116.02 146.72 115.44 145.90 C 114.87 145.08 113.73 144.88 112.91 145.46 L 112.08 146.05 C 111.25 146.62 111.06 147.76 111.63 148.58 C 112.21 149.40 113.34 149.60 114.17 149.02 Z M 115.05 148.55 L 115.85 148.00 C 116.73 147.39 116.96 146.18 116.35 145.30 C 115.75 144.42 114.54 144.20 113.66 144.80 L 112.86 145.35 C 111.97 145.96 111.75 147.16 112.36 148.05 C 112.96 148.93 114.17 149.15 115.05 148.55 Z M 115.87 148.09 L 116.70 147.54 C 117.63 146.93 117.89 145.67 117.28 144.74 C 116.66 143.80 115.40 143.54 114.47 144.16 L 113.64 144.71 C 112.70 145.33 112.45 146.58 113.06 147.52 C 113.68 148.45 114.94 148.71 115.87 148.09 Z M 116.68 147.59 L 117.52 147.06 C 118.48 146.46 118.77 145.19 118.16 144.23 C 117.56 143.27 116.29 142.98 115.33 143.59 L 114.49 144.11 C 113.53 144.72 113.25 145.98 113.85 146.94 C 114.45 147.90 115.72 148.19 116.68 147.59 Z M 117.49 147.08 L 118.33 146.57 C 119.29 145.98 119.60 144.72 119.01 143.75 C 118.42 142.78 117.16 142.47 116.19 143.06 L 115.36 143.57 C 114.39 144.16 114.08 145.42 114.67 146.39 C 115.26 147.36 116.53 147.66 117.49 147.08 Z M 118.32 146.57 L 119.14 146.07 C 120.11 145.49 120.42 144.22 119.84 143.25 C 119.25 142.28 117.99 141.97 117.02 142.56 L 116.20 143.06 C 115.23 143.65 114.92 144.91 115.50 145.88 C 116.09 146.85 117.35 147.16 118.32 146.57 Z M 119.14 146.07 L 119.99 145.56 C 120.96 144.97 121.28 143.71 120.69 142.74 C 120.10 141.77 118.84 141.46 117.87 142.05 L 117.02 142.56 C 116.05 143.15 115.74 144.41 116.33 145.38 C 116.91 146.35 118.17 146.66 119.14 146.07 Z M 119.98 145.57 L 120.87 145.04 C 121.84 144.46 122.16 143.20 121.58 142.22 C 121.00 141.25 119.74 140.93 118.77 141.51 L 117.88 142.04 C 116.91 142.62 116.59 143.88 117.17 144.85 C 117.75 145.83 119.01 146.15 119.98 145.57 Z M 120.86 145.04 L 121.72 144.54 C 122.69 143.97 123.02 142.71 122.45 141.73 C 121.88 140.76 120.62 140.43 119.64 141.00 L 118.78 141.51 C 117.80 142.08 117.48 143.34 118.05 144.31 C 118.62 145.29 119.88 145.62 120.86 145.04 Z M 121.70 144.55 L 122.56 144.05 C 123.54 143.48 123.88 142.23 123.31 141.25 C 122.75 140.27 121.50 139.93 120.51 140.50 L 119.65 141.00 C 118.67 141.56 118.34 142.81 118.90 143.79 C 119.47 144.77 120.72 145.11 121.70 144.55 Z M 122.55 144.05 L 123.43 143.55 C 124.41 142.99 124.75 141.74 124.19 140.76 C 123.63 139.78 122.38 139.44 121.40 140.00 L 120.52 140.50 C 119.54 141.06 119.20 142.31 119.76 143.29 C 120.32 144.27 121.57 144.61 122.55 144.05 Z M 123.42 143.55 L 124.29 143.06 C 125.27 142.51 125.62 141.26 125.06 140.28 C 124.51 139.29 123.26 138.95 122.28 139.50 L 121.41 140.00 C 120.43 140.55 120.08 141.80 120.64 142.78 C 121.19 143.76 122.44 144.11 123.42 143.55 Z M 124.29 143.06 L 125.14 142.58 C 126.12 142.03 126.47 140.78 125.91 139.80 C 125.36 138.82 124.12 138.47 123.13 139.02 L 122.28 139.50 C 121.30 140.06 120.95 141.30 121.50 142.29 C 122.06 143.27 123.30 143.62 124.29 143.06 Z M 125.13 142.58 L 126.01 142.09 C 126.99 141.54 127.34 140.30 126.79 139.32 C 126.24 138.33 124.99 137.98 124.01 138.53 L 123.14 139.02 C 122.16 139.57 121.81 140.82 122.36 141.80 C 122.91 142.78 124.15 143.13 125.13 142.58 Z M 126.00 142.09 L 126.90 141.59 C 127.88 141.04 128.24 139.80 127.69 138.82 C 127.14 137.84 125.90 137.48 124.92 138.03 L 124.02 138.53 C 123.04 139.08 122.68 140.32 123.23 141.30 C 123.78 142.29 125.02 142.64 126.00 142.09 Z M 126.90 141.59 L 127.75 141.12 C 128.73 140.57 129.08 139.34 128.54 138.35 C 128.00 137.37 126.76 137.02 125.78 137.56 L 124.93 138.03 C 123.94 138.58 123.59 139.81 124.13 140.80 C 124.68 141.78 125.91 142.13 126.90 141.59 Z M 127.74 141.11 L 128.61 140.64 C 129.59 140.10 129.95 138.86 129.41 137.88 C 128.87 136.90 127.63 136.54 126.65 137.08 L 125.78 137.56 C 124.80 138.10 124.45 139.34 124.99 140.32 C 125.53 141.30 126.76 141.65 127.74 141.11 Z M 128.60 140.64 L 129.49 140.15 C 130.47 139.62 130.83 138.39 130.29 137.41 C 129.76 136.43 128.53 136.07 127.55 136.60 L 126.66 137.09 C 125.68 137.62 125.32 138.85 125.86 139.83 C 126.39 140.81 127.62 141.17 128.60 140.64 Z M 129.48 140.15 L 130.38 139.66 C 131.36 139.13 131.72 137.91 131.20 136.93 C 130.67 135.95 129.44 135.58 128.46 136.11 L 127.56 136.60 C 126.58 137.13 126.22 138.35 126.75 139.33 C 127.28 140.31 128.50 140.68 129.48 140.15 Z M 130.37 139.66 L 131.24 139.19 C 132.22 138.67 132.59 137.45 132.07 136.47 C 131.54 135.49 130.32 135.12 129.35 135.65 L 128.47 136.12 C 127.49 136.64 127.12 137.86 127.65 138.84 C 128.17 139.82 129.39 140.18 130.37 139.66 Z M 131.24 139.19 L 132.12 138.72 C 133.10 138.20 133.47 136.99 132.95 136.01 C 132.43 135.03 131.21 134.66 130.24 135.18 L 129.35 135.65 C 128.38 136.17 128.01 137.38 128.53 138.36 C 129.04 139.34 130.26 139.71 131.24 139.19 Z M 132.11 138.72 L 133.00 138.25 C 133.97 137.73 134.35 136.52 133.83 135.55 C 133.31 134.57 132.11 134.20 131.13 134.72 L 130.24 135.19 C 129.27 135.70 128.90 136.91 129.41 137.89 C 129.93 138.86 131.14 139.23 132.11 138.72 Z M 132.99 138.24 L 133.88 137.77 C 134.86 137.26 135.23 136.05 134.71 135.08 C 134.20 134.11 133.00 133.74 132.02 134.25 L 131.14 134.72 C 130.16 135.24 129.79 136.44 130.31 137.41 C 130.82 138.38 132.02 138.75 132.99 138.24 Z M 133.88 137.76 L 134.76 137.29 C 135.73 136.78 136.10 135.59 135.59 134.62 C 135.08 133.65 133.88 133.28 132.91 133.80 L 132.03 134.26 C 131.06 134.77 130.69 135.97 131.21 136.94 C 131.72 137.90 132.91 138.27 133.88 137.76 Z M 134.75 137.28 L 135.64 136.82 C 136.59 136.31 136.96 135.12 136.46 134.16 C 135.95 133.20 134.76 132.84 133.80 133.34 L 132.92 133.81 C 131.96 134.31 131.59 135.50 132.10 136.46 C 132.61 137.42 133.79 137.79 134.75 137.28 Z M 135.63 136.80 L 136.51 136.34 C 137.46 135.84 137.83 134.66 137.33 133.71 C 136.83 132.76 135.65 132.39 134.70 132.89 L 133.81 133.35 C 132.86 133.85 132.49 135.03 133.00 135.98 C 133.50 136.94 134.67 137.30 135.63 136.80 Z M 136.50 136.33 L 137.39 135.86 C 138.33 135.37 138.70 134.20 138.21 133.26 C 137.72 132.31 136.55 131.94 135.60 132.44 L 134.71 132.90 C 133.77 133.39 133.40 134.56 133.89 135.51 C 134.38 136.45 135.55 136.82 136.50 136.33 Z M 137.37 135.85 L 138.30 135.37 C 139.24 134.89 139.61 133.73 139.12 132.79 C 138.64 131.85 137.49 131.49 136.55 131.97 L 135.62 132.45 C 134.68 132.93 134.31 134.09 134.80 135.03 C 135.28 135.97 136.43 136.33 137.37 135.85 Z M 138.28 135.35 L 139.20 134.88 C 140.13 134.41 140.50 133.27 140.03 132.34 C 139.55 131.41 138.41 131.04 137.48 131.52 L 136.57 131.99 C 135.64 132.46 135.27 133.60 135.74 134.53 C 136.22 135.46 137.35 135.83 138.28 135.35 Z M 139.18 134.87 L 140.07 134.42 C 140.99 133.95 141.36 132.83 140.89 131.91 C 140.43 130.99 139.31 130.63 138.39 131.09 L 137.50 131.54 C 136.58 132.00 136.21 133.12 136.68 134.04 C 137.14 134.96 138.26 135.33 139.18 134.87 Z M 140.05 134.40 L 140.89 133.98 C 141.80 133.53 142.17 132.42 141.71 131.51 C 141.26 130.60 140.15 130.23 139.24 130.69 L 138.40 131.11 C 137.49 131.56 137.13 132.67 137.58 133.58 C 138.04 134.49 139.14 134.86 140.05 134.40 Z M 140.87 133.96 L 141.85 133.48 C 142.75 133.03 143.12 131.95 142.68 131.05 C 142.24 130.15 141.15 129.78 140.25 130.22 L 139.26 130.71 C 138.36 131.15 137.99 132.24 138.44 133.14 C 138.88 134.04 139.97 134.41 140.87 133.96 Z M 141.83 133.46 L 142.72 133.03 C 143.60 132.60 143.98 131.53 143.55 130.65 C 143.12 129.76 142.05 129.38 141.16 129.81 L 140.28 130.24 C 139.39 130.67 139.01 131.74 139.44 132.62 C 139.87 133.51 140.94 133.89 141.83 133.46 Z M 142.69 133.01 L 143.51 132.63 C 144.39 132.22 144.77 131.17 144.36 130.29 C 143.94 129.41 142.90 129.03 142.02 129.44 L 141.19 129.83 C 140.31 130.24 139.94 131.29 140.35 132.17 C 140.76 133.05 141.81 133.42 142.69 133.01 Z M 143.47 132.61 L 144.36 132.21 C 145.23 131.82 145.62 130.80 145.23 129.93 C 144.84 129.06 143.82 128.67 142.94 129.06 L 142.06 129.46 C 141.19 129.85 140.80 130.87 141.19 131.74 C 141.58 132.61 142.60 133.00 143.47 132.61 Z M 144.30 132.21 L 145.22 131.83 C 146.08 131.47 146.50 130.47 146.14 129.61 C 145.78 128.74 144.78 128.33 143.92 128.69 L 143.00 129.07 C 142.14 129.43 141.72 130.42 142.08 131.29 C 142.44 132.15 143.44 132.56 144.30 132.21 Z M 145.16 131.82 L 146.09 131.47 C 146.95 131.14 147.39 130.18 147.06 129.32 C 146.74 128.46 145.78 128.02 144.91 128.34 L 143.98 128.69 C 143.12 129.02 142.68 129.98 143.01 130.84 C 143.33 131.71 144.29 132.14 145.16 131.82 Z M 146.04 131.46 L 146.96 131.14 C 147.82 130.84 148.27 129.90 147.97 129.05 C 147.67 128.19 146.74 127.73 145.88 128.03 L 144.96 128.35 C 144.10 128.65 143.65 129.59 143.95 130.45 C 144.25 131.31 145.19 131.76 146.04 131.46 Z M 146.93 131.13 L 147.91 130.80 C 148.76 130.52 149.22 129.60 148.93 128.75 C 148.65 127.90 147.73 127.44 146.88 127.72 L 145.90 128.05 C 145.05 128.33 144.59 129.25 144.88 130.10 C 145.16 130.95 146.08 131.41 146.93 131.13 Z M 147.89 130.79 L 148.68 130.53 C 149.52 130.25 149.98 129.35 149.70 128.50 C 149.43 127.66 148.52 127.20 147.68 127.48 L 146.89 127.74 C 146.05 128.01 145.59 128.92 145.87 129.76 C 146.14 130.60 147.05 131.06 147.89 130.79 Z"
      fill="black"
      fill-rule="nonzero" /><path d="M 153.33 119.00 L 154.23 118.61 C 155.14 118.22 155.56 117.17 155.17 116.26 C 154.78 115.35 153.73 114.93 152.82 115.32 L 151.92 115.71 C 151.01 116.10 150.59 117.15 150.98 118.06 C 151.37 118.97 152.42 119.39 153.33 119.00 Z M 154.27 118.62 L 155.19 118.21 C 156.10 117.80 156.51 116.72 156.10 115.81 C 155.68 114.90 154.61 114.49 153.70 114.90 L 152.78 115.31 C 151.87 115.72 151.46 116.80 151.87 117.71 C 152.28 118.63 153.36 119.03 154.27 118.62 Z M 155.24 118.20 L 156.13 117.76 C 157.04 117.32 157.42 116.23 156.97 115.32 C 156.53 114.41 155.44 114.03 154.53 114.48 L 153.64 114.91 C 152.73 115.35 152.35 116.45 152.80 117.36 C 153.24 118.27 154.34 118.64 155.24 118.20 Z M 156.18 117.74 L 157.05 117.28 C 157.94 116.81 158.29 115.71 157.82 114.82 C 157.35 113.93 156.25 113.58 155.36 114.05 L 154.48 114.51 C 153.59 114.97 153.25 116.08 153.72 116.97 C 154.18 117.86 155.28 118.20 156.18 117.74 Z M 157.07 117.25 L 157.98 116.75 C 158.85 116.28 159.17 115.18 158.69 114.30 C 158.22 113.43 157.12 113.10 156.24 113.58 L 155.34 114.08 C 154.46 114.56 154.14 115.65 154.62 116.53 C 155.10 117.41 156.20 117.73 157.07 117.25 Z M 157.98 116.73 L 158.85 116.25 C 159.71 115.77 160.02 114.68 159.54 113.81 C 159.06 112.95 157.96 112.64 157.10 113.12 L 156.23 113.60 C 155.37 114.09 155.06 115.18 155.54 116.04 C 156.03 116.91 157.12 117.22 157.98 116.73 Z M 158.85 116.24 L 159.72 115.75 C 160.57 115.27 160.88 114.18 160.40 113.32 C 159.91 112.47 158.83 112.16 157.97 112.64 L 157.10 113.13 C 156.24 113.61 155.94 114.70 156.42 115.56 C 156.90 116.42 157.99 116.72 158.85 116.24 Z M 159.71 115.75 L 160.59 115.25 C 161.45 114.77 161.76 113.69 161.28 112.84 C 160.80 111.98 159.72 111.68 158.87 112.15 L 157.98 112.65 C 157.12 113.13 156.82 114.21 157.29 115.06 C 157.77 115.92 158.85 116.22 159.71 115.75 Z M 160.58 115.25 L 161.47 114.76 C 162.32 114.29 162.63 113.22 162.16 112.37 C 161.70 111.51 160.62 111.20 159.77 111.67 L 158.88 112.16 C 158.03 112.63 157.72 113.70 158.19 114.55 C 158.65 115.40 159.73 115.71 160.58 115.25 Z M 161.46 114.75 L 162.34 114.27 C 163.19 113.81 163.51 112.75 163.05 111.89 C 162.58 111.04 161.52 110.73 160.67 111.19 L 159.78 111.67 C 158.93 112.14 158.62 113.20 159.08 114.05 C 159.54 114.90 160.61 115.22 161.46 114.75 Z M 162.34 114.26 L 163.21 113.78 C 164.06 113.32 164.37 112.27 163.91 111.42 C 163.45 110.58 162.39 110.27 161.54 110.73 L 160.67 111.20 C 159.83 111.66 159.52 112.72 159.98 113.57 C 160.44 114.41 161.50 114.72 162.34 114.26 Z M 163.22 113.77 L 164.12 113.27 C 164.95 112.81 165.26 111.75 164.79 110.91 C 164.33 110.08 163.27 109.78 162.43 110.24 L 161.54 110.74 C 160.70 111.21 160.40 112.26 160.86 113.10 C 161.33 113.93 162.38 114.24 163.22 113.77 Z M 164.12 113.26 L 165.01 112.76 C 165.84 112.29 166.13 111.24 165.67 110.41 C 165.20 109.58 164.15 109.29 163.32 109.75 L 162.43 110.25 C 161.60 110.72 161.30 111.77 161.77 112.60 C 162.24 113.43 163.29 113.73 164.12 113.26 Z M 165.00 112.76 L 165.84 112.29 C 166.67 111.83 166.97 110.78 166.50 109.95 C 166.04 109.12 165.00 108.83 164.17 109.29 L 163.33 109.76 C 162.50 110.22 162.20 111.26 162.66 112.09 C 163.12 112.92 164.17 113.22 165.00 112.76 Z M 165.81 112.30 L 166.69 111.83 C 167.52 111.39 167.84 110.35 167.39 109.51 C 166.95 108.68 165.91 108.36 165.07 108.81 L 164.19 109.28 C 163.36 109.72 163.04 110.76 163.49 111.60 C 163.94 112.43 164.98 112.75 165.81 112.30 Z M 166.64 111.86 L 167.53 111.42 C 168.38 111.00 168.72 109.97 168.30 109.12 C 167.88 108.27 166.85 107.92 166.00 108.35 L 165.12 108.79 C 164.27 109.21 163.92 110.24 164.34 111.09 C 164.77 111.93 165.80 112.28 166.64 111.86 Z M 167.48 111.45 L 168.44 111.01 C 169.31 110.62 169.69 109.60 169.30 108.73 C 168.90 107.86 167.88 107.48 167.01 107.87 L 166.05 108.31 C 165.18 108.70 164.80 109.73 165.19 110.60 C 165.59 111.46 166.61 111.85 167.48 111.45 Z M 168.30 111.11 L 169.34 110.76 C 170.26 110.44 170.75 109.43 170.44 108.51 C 170.12 107.59 169.11 107.10 168.19 107.42 L 167.15 107.77 C 166.23 108.09 165.74 109.10 166.06 110.02 C 166.37 110.94 167.38 111.43 168.30 111.11 Z M 168.60 110.90 L 169.37 110.97 C 170.37 111.06 171.26 110.32 171.35 109.32 C 171.44 108.31 170.70 107.42 169.69 107.34 L 168.93 107.27 C 167.92 107.18 167.04 107.92 166.95 108.92 C 166.86 109.93 167.60 110.81 168.60 110.90 Z M 167.79 109.81 L 168.09 110.61 C 168.46 111.57 169.53 112.05 170.49 111.69 C 171.45 111.33 171.93 110.26 171.57 109.29 L 171.27 108.50 C 170.91 107.54 169.84 107.05 168.88 107.41 C 167.92 107.78 167.43 108.85 167.79 109.81 Z M 167.97 109.85 L 167.91 110.95 C 167.86 111.98 168.65 112.86 169.68 112.92 C 170.71 112.97 171.59 112.18 171.64 111.15 L 171.70 110.05 C 171.75 109.02 170.96 108.14 169.93 108.09 C 168.90 108.03 168.02 108.82 167.97 109.85 Z M 167.93 110.77 L 167.79 111.69 C 167.64 112.71 168.34 113.66 169.36 113.82 C 170.38 113.97 171.33 113.26 171.49 112.24 L 171.62 111.33 C 171.78 110.31 171.07 109.36 170.05 109.20 C 169.03 109.05 168.08 109.75 167.93 110.77 Z M 167.80 111.61 L 167.60 112.63 C 167.41 113.64 168.07 114.62 169.08 114.82 C 170.09 115.02 171.08 114.36 171.27 113.35 L 171.47 112.32 C 171.67 111.31 171.01 110.33 170.00 110.13 C 168.98 109.93 168.00 110.59 167.80 111.61 Z M 167.61 112.60 L 167.41 113.55 C 167.19 114.56 167.83 115.55 168.84 115.77 C 169.85 115.99 170.85 115.34 171.06 114.33 L 171.27 113.38 C 171.48 112.37 170.84 111.37 169.83 111.16 C 168.82 110.94 167.83 111.59 167.61 112.60 Z M 167.41 113.54 L 167.21 114.46 C 166.99 115.47 167.63 116.47 168.64 116.68 C 169.65 116.90 170.64 116.26 170.86 115.26 L 171.06 114.34 C 171.28 113.33 170.64 112.33 169.63 112.11 C 168.62 111.89 167.63 112.53 167.41 113.54 Z M 167.21 114.46 L 166.99 115.47 C 166.78 116.47 167.42 117.47 168.43 117.69 C 169.44 117.90 170.43 117.26 170.65 116.25 L 170.86 115.25 C 171.08 114.24 170.44 113.25 169.43 113.03 C 168.42 112.81 167.42 113.46 167.21 114.46 Z M 166.99 115.48 L 166.77 116.55 C 166.56 117.56 167.21 118.55 168.22 118.76 C 169.23 118.97 170.22 118.32 170.43 117.31 L 170.65 116.24 C 170.86 115.23 170.21 114.24 169.20 114.03 C 168.19 113.82 167.20 114.47 166.99 115.48 Z M 166.77 116.57 L 166.56 117.60 C 166.36 118.61 167.02 119.60 168.03 119.80 C 169.04 120.00 170.02 119.34 170.22 118.33 L 170.43 117.30 C 170.63 116.29 169.97 115.30 168.96 115.10 C 167.95 114.90 166.97 115.56 166.77 116.57 Z M 166.57 117.61 L 166.36 118.64 C 166.17 119.64 166.82 120.62 167.83 120.82 C 168.84 121.02 169.82 120.36 170.01 119.35 L 170.22 118.33 C 170.41 117.32 169.76 116.34 168.75 116.14 C 167.74 115.94 166.76 116.60 166.57 117.61 Z M 166.37 118.63 L 166.17 119.63 C 165.97 120.63 166.61 121.61 167.62 121.81 C 168.62 122.02 169.60 121.37 169.80 120.37 L 170.01 119.36 C 170.21 118.36 169.56 117.38 168.56 117.18 C 167.56 116.97 166.58 117.62 166.37 118.63 Z M 166.18 119.60 L 165.98 120.53 C 165.75 121.53 166.38 122.51 167.38 122.73 C 168.37 122.95 169.36 122.33 169.58 121.33 L 169.79 120.40 C 170.01 119.40 169.38 118.41 168.39 118.19 C 167.39 117.97 166.40 118.60 166.18 119.60 Z M 166.01 120.47 L 165.75 121.48 C 165.49 122.46 166.08 123.46 167.05 123.71 C 168.03 123.97 169.03 123.38 169.28 122.40 L 169.55 121.39 C 169.80 120.42 169.22 119.42 168.24 119.16 C 167.26 118.91 166.27 119.49 166.01 120.47 Z M 165.82 121.40 L 165.50 122.38 C 165.20 123.31 165.71 124.32 166.65 124.62 C 167.58 124.92 168.59 124.41 168.89 123.47 L 169.21 122.49 C 169.51 121.56 169.00 120.55 168.06 120.25 C 167.13 119.95 166.12 120.46 165.82 121.40 Z M 165.59 122.32 L 165.27 123.17 C 164.93 124.06 165.38 125.05 166.26 125.39 C 167.15 125.72 168.14 125.28 168.48 124.39 L 168.80 123.54 C 169.14 122.65 168.69 121.66 167.81 121.32 C 166.92 120.98 165.93 121.43 165.59 122.32 Z M 165.31 123.16 L 165.19 123.47 C 164.85 124.33 165.27 125.31 166.13 125.65 C 166.99 125.99 167.96 125.57 168.31 124.71 L 168.43 124.40 C 168.77 123.54 168.35 122.57 167.49 122.22 C 166.63 121.88 165.66 122.30 165.31 123.16 Z"
      fill="black"
      fill-rule="nonzero" /><path d="M 156.18 116.40 L 156.22 117.40 C 156.26 118.37 157.08 119.12 158.05 119.08 C 159.02 119.04 159.78 118.22 159.74 117.25 L 159.69 116.25 C 159.65 115.28 158.83 114.53 157.86 114.57 C 156.89 114.61 156.14 115.43 156.18 116.40 Z M 156.18 117.39 L 156.21 118.39 C 156.25 119.38 157.08 120.16 158.08 120.12 C 159.07 120.09 159.85 119.25 159.81 118.26 L 159.78 117.26 C 159.74 116.27 158.91 115.49 157.92 115.52 C 156.92 115.56 156.14 116.39 156.18 117.39 Z M 156.18 118.36 L 156.20 119.31 C 156.23 120.32 157.06 121.12 158.07 121.10 C 159.08 121.08 159.88 120.24 159.86 119.23 L 159.84 118.28 C 159.82 117.27 158.99 116.47 157.98 116.49 C 156.97 116.51 156.16 117.35 156.18 118.36 Z M 156.20 119.25 L 156.19 120.19 C 156.18 121.20 156.99 122.03 158.00 122.04 C 159.01 122.06 159.84 121.25 159.85 120.24 L 159.86 119.29 C 159.87 118.28 159.07 117.45 158.06 117.44 C 157.05 117.43 156.22 118.24 156.20 119.25 Z M 156.21 120.10 L 156.14 121.17 C 156.08 122.17 156.83 123.03 157.84 123.09 C 158.84 123.16 159.70 122.40 159.76 121.40 L 159.83 120.33 C 159.90 119.33 159.14 118.47 158.14 118.40 C 157.14 118.34 156.28 119.10 156.21 120.10 Z M 156.18 121.08 L 156.07 122.03 C 155.96 123.01 156.66 123.89 157.64 124.00 C 158.62 124.12 159.51 123.41 159.62 122.43 L 159.73 121.48 C 159.84 120.50 159.14 119.62 158.15 119.51 C 157.17 119.40 156.29 120.10 156.18 121.08 Z M 156.12 121.98 L 155.98 122.95 C 155.85 123.90 156.51 124.78 157.46 124.92 C 158.42 125.05 159.30 124.39 159.43 123.44 L 159.57 122.47 C 159.71 121.52 159.04 120.64 158.09 120.50 C 157.14 120.37 156.25 121.03 156.12 121.98 Z M 156.03 122.93 L 155.87 123.95 C 155.73 124.88 156.36 125.75 157.28 125.89 C 158.21 126.04 159.08 125.41 159.22 124.48 L 159.38 123.46 C 159.53 122.53 158.90 121.66 157.97 121.52 C 157.05 121.37 156.18 122.00 156.03 122.93 Z M 155.92 123.95 L 155.75 125.00 C 155.60 125.90 156.21 126.75 157.11 126.90 C 158.00 127.05 158.85 126.44 159.00 125.54 L 159.17 124.49 C 159.32 123.59 158.71 122.74 157.81 122.59 C 156.92 122.44 156.07 123.05 155.92 123.95 Z M 155.77 125.01 L 155.76 125.06 C 155.62 125.94 156.21 126.78 157.10 126.93 C 157.98 127.07 158.82 126.48 158.96 125.59 L 158.97 125.54 C 159.12 124.65 158.52 123.82 157.64 123.67 C 156.76 123.52 155.92 124.12 155.77 125.01 Z"
      fill="black"
      fill-rule="nonzero" /><path d="M 149.53 131.74 L 149.23 132.89 C 149.01 133.78 149.55 134.67 150.43 134.90 C 151.31 135.12 152.21 134.59 152.43 133.70 L 152.73 132.55 C 152.95 131.66 152.41 130.77 151.53 130.54 C 150.65 130.32 149.75 130.85 149.53 131.74 Z M 149.41 134.23 L 149.69 134.66 C 150.20 135.45 151.26 135.67 152.05 135.15 C 152.83 134.64 153.06 133.58 152.54 132.79 L 152.26 132.36 C 151.74 131.58 150.69 131.35 149.90 131.87 C 149.11 132.39 148.89 133.44 149.41 134.23 Z M 151.75 135.35 L 152.57 135.02 C 153.46 134.67 153.90 133.66 153.55 132.76 C 153.19 131.87 152.18 131.43 151.29 131.78 L 150.47 132.10 C 149.58 132.46 149.14 133.47 149.49 134.37 C 149.85 135.26 150.86 135.70 151.75 135.35 Z M 152.80 134.94 L 153.88 134.32 C 154.73 133.84 155.03 132.76 154.55 131.91 C 154.06 131.06 152.98 130.77 152.14 131.25 L 151.05 131.87 C 150.20 132.35 149.91 133.43 150.39 134.28 C 150.87 135.13 151.95 135.42 152.80 134.94 Z M 153.88 134.34 L 154.77 133.84 C 155.63 133.36 155.94 132.27 155.45 131.41 C 154.97 130.56 153.89 130.25 153.03 130.73 L 152.14 131.24 C 151.28 131.72 150.98 132.80 151.46 133.66 C 151.94 134.52 153.03 134.82 153.88 134.34 Z M 154.75 133.85 L 155.63 133.37 C 156.50 132.91 156.82 131.83 156.35 130.96 C 155.89 130.10 154.81 129.77 153.94 130.24 L 153.06 130.72 C 152.19 131.19 151.87 132.27 152.34 133.13 C 152.80 134.00 153.88 134.32 154.75 133.85 Z M 155.60 133.39 L 156.48 132.93 C 157.35 132.48 157.69 131.41 157.24 130.54 C 156.79 129.67 155.71 129.33 154.84 129.78 L 153.97 130.23 C 153.10 130.68 152.76 131.75 153.21 132.62 C 153.66 133.50 154.73 133.84 155.60 133.39 Z M 156.44 132.94 L 157.37 132.48 C 158.24 132.04 158.59 130.99 158.16 130.11 C 157.73 129.24 156.67 128.89 155.80 129.32 L 154.87 129.78 C 154.00 130.21 153.65 131.27 154.08 132.14 C 154.51 133.01 155.57 133.37 156.44 132.94 Z M 157.35 132.46 L 158.22 132.03 C 159.09 131.60 159.44 130.56 159.02 129.70 C 158.59 128.84 157.55 128.48 156.68 128.91 L 155.81 129.34 C 154.95 129.76 154.59 130.81 155.02 131.67 C 155.44 132.53 156.49 132.89 157.35 132.46 Z M 158.24 131.99 L 159.11 131.55 C 159.95 131.11 160.29 130.08 159.86 129.24 C 159.42 128.39 158.39 128.06 157.55 128.49 L 156.67 128.94 C 155.83 129.37 155.49 130.41 155.93 131.25 C 156.36 132.09 157.39 132.43 158.24 131.99 Z M 159.12 131.51 L 160.00 131.04 C 160.82 130.60 161.13 129.58 160.70 128.76 C 160.26 127.94 159.24 127.63 158.42 128.06 L 157.54 128.53 C 156.72 128.97 156.41 129.99 156.84 130.81 C 157.28 131.63 158.30 131.94 159.12 131.51 Z M 159.99 131.01 L 160.87 130.54 C 161.68 130.11 161.98 129.11 161.55 128.30 C 161.12 127.50 160.12 127.19 159.32 127.62 L 158.43 128.09 C 157.63 128.52 157.32 129.52 157.75 130.33 C 158.18 131.13 159.18 131.44 159.99 131.01 Z M 160.85 130.51 L 161.74 130.04 C 162.53 129.62 162.83 128.64 162.41 127.85 C 161.99 127.06 161.01 126.76 160.22 127.18 L 159.34 127.65 C 158.55 128.07 158.24 129.05 158.66 129.84 C 159.08 130.63 160.06 130.93 160.85 130.51 Z M 161.74 130.00 L 162.62 129.53 C 163.39 129.11 163.67 128.14 163.25 127.37 C 162.83 126.60 161.87 126.32 161.10 126.74 L 160.22 127.21 C 159.45 127.63 159.16 128.60 159.58 129.37 C 160.00 130.14 160.97 130.43 161.74 130.00 Z M 162.67 129.53 L 163.54 129.02 C 164.31 128.58 164.57 127.59 164.13 126.82 C 163.68 126.05 162.69 125.78 161.92 126.23 L 161.05 126.73 C 160.28 127.18 160.01 128.17 160.46 128.94 C 160.91 129.71 161.89 129.98 162.67 129.53 Z M 163.61 129.09 L 164.46 128.58 C 165.27 128.09 165.53 127.04 165.05 126.23 C 164.56 125.43 163.51 125.17 162.71 125.65 L 161.85 126.16 C 161.04 126.65 160.78 127.70 161.27 128.50 C 161.75 129.31 162.80 129.57 163.61 129.09 Z M 164.49 128.63 L 165.35 128.12 C 166.19 127.61 166.46 126.53 165.95 125.69 C 165.45 124.85 164.37 124.58 163.53 125.08 L 162.68 125.60 C 161.84 126.10 161.57 127.18 162.07 128.02 C 162.57 128.86 163.66 129.13 164.49 128.63 Z M 165.33 128.11 L 166.19 127.60 C 167.02 127.11 167.30 126.04 166.81 125.20 C 166.32 124.37 165.25 124.09 164.41 124.59 L 163.55 125.09 C 162.72 125.58 162.44 126.66 162.93 127.49 C 163.42 128.32 164.49 128.60 165.33 128.11 Z M 166.16 127.56 L 166.85 127.15 C 167.66 126.68 167.94 125.64 167.46 124.83 C 166.99 124.02 165.95 123.75 165.14 124.22 L 164.44 124.63 C 163.64 125.10 163.36 126.14 163.84 126.95 C 164.31 127.76 165.35 128.03 166.16 127.56 Z"
      fill="black"
      fill-rule="nonzero" /><path d="M 149.76 123.74 L 149.90 124.76 C 150.01 125.66 150.84 126.30 151.74 126.18 C 152.64 126.06 153.27 125.24 153.16 124.34 L 153.02 123.31 C 152.91 122.41 152.08 121.78 151.18 121.90 C 150.28 122.01 149.65 122.84 149.76 123.74 Z M 149.82 124.76 L 149.94 125.77 C 150.05 126.71 150.91 127.38 151.86 127.27 C 152.80 127.16 153.48 126.30 153.36 125.35 L 153.24 124.34 C 153.12 123.40 152.26 122.72 151.32 122.84 C 150.37 122.95 149.70 123.81 149.82 124.76 Z M 149.85 125.74 L 149.96 126.72 C 150.06 127.71 150.95 128.43 151.94 128.33 C 152.93 128.23 153.65 127.34 153.55 126.35 L 153.45 125.37 C 153.34 124.38 152.45 123.66 151.46 123.76 C 150.47 123.87 149.75 124.75 149.85 125.74 Z M 149.89 126.67 L 149.96 127.65 C 150.04 128.68 150.93 129.45 151.96 129.37 C 152.99 129.29 153.76 128.40 153.69 127.37 L 153.62 126.40 C 153.54 125.37 152.64 124.59 151.61 124.67 C 150.58 124.75 149.81 125.65 149.89 126.67 Z M 149.93 127.58 L 149.97 128.57 C 150.01 129.61 150.89 130.43 151.94 130.38 C 152.98 130.34 153.80 129.46 153.75 128.42 L 153.72 127.43 C 153.67 126.39 152.79 125.57 151.75 125.62 C 150.70 125.66 149.89 126.54 149.93 127.58 Z M 149.97 128.52 L 149.98 129.50 C 150.00 130.55 150.85 131.39 151.90 131.37 C 152.95 131.36 153.78 130.50 153.77 129.45 L 153.76 128.47 C 153.74 127.42 152.88 126.58 151.84 126.60 C 150.79 126.61 149.96 127.47 149.97 128.52 Z M 149.98 129.48 L 149.98 130.48 C 149.98 131.53 150.83 132.38 151.88 132.38 C 152.93 132.37 153.77 131.52 153.77 130.48 L 153.77 129.48 C 153.77 128.43 152.92 127.58 151.87 127.58 C 150.83 127.58 149.98 128.43 149.98 129.48 Z M 149.98 130.48 L 149.98 131.41 C 149.98 132.45 150.82 133.31 151.87 133.31 C 152.91 133.31 153.77 132.47 153.77 131.42 L 153.77 130.49 C 153.77 129.44 152.93 128.59 151.88 128.59 C 150.84 128.58 149.99 129.43 149.98 130.48 Z M 149.98 131.39 L 149.96 132.37 C 149.95 133.42 150.78 134.28 151.83 134.30 C 152.88 134.31 153.74 133.48 153.75 132.43 L 153.77 131.44 C 153.78 130.40 152.95 129.53 151.90 129.52 C 150.86 129.50 149.99 130.34 149.98 131.39 Z M 149.97 132.34 L 149.93 133.38 C 149.89 134.42 150.71 135.30 151.76 135.34 C 152.80 135.38 153.68 134.56 153.72 133.51 L 153.75 132.47 C 153.79 131.42 152.97 130.55 151.93 130.51 C 150.88 130.47 150.00 131.29 149.97 132.34 Z M 149.93 133.33 L 149.87 134.35 C 149.80 135.40 150.60 136.30 151.64 136.36 C 152.68 136.43 153.58 135.63 153.65 134.59 L 153.71 133.56 C 153.78 132.52 152.99 131.62 151.94 131.55 C 150.90 131.49 150.00 132.28 149.93 133.33 Z M 149.87 134.30 L 149.79 135.25 C 149.69 136.29 150.46 137.21 151.50 137.31 C 152.55 137.40 153.47 136.63 153.56 135.59 L 153.65 134.64 C 153.74 133.60 152.97 132.68 151.93 132.58 C 150.89 132.49 149.96 133.26 149.87 134.30 Z M 149.79 135.21 L 149.68 136.19 C 149.56 137.23 150.31 138.16 151.35 138.28 C 152.39 138.40 153.33 137.65 153.45 136.61 L 153.56 135.63 C 153.67 134.59 152.92 133.65 151.88 133.54 C 150.84 133.42 149.91 134.17 149.79 135.21 Z M 149.69 136.15 L 149.55 137.16 C 149.42 138.20 150.15 139.15 151.19 139.29 C 152.22 139.42 153.17 138.69 153.31 137.65 L 153.44 136.64 C 153.58 135.61 152.85 134.65 151.81 134.52 C 150.77 134.38 149.82 135.11 149.69 136.15 Z M 149.56 137.13 L 149.41 138.18 C 149.25 139.21 149.97 140.17 151.00 140.32 C 152.04 140.48 153.00 139.76 153.15 138.72 L 153.31 137.68 C 153.46 136.65 152.74 135.68 151.71 135.53 C 150.67 135.38 149.71 136.10 149.56 137.13 Z M 149.41 138.15 L 149.25 139.13 C 149.09 140.16 149.79 141.13 150.83 141.30 C 151.86 141.46 152.83 140.75 152.99 139.72 L 153.15 138.75 C 153.31 137.71 152.61 136.74 151.58 136.58 C 150.54 136.42 149.57 137.12 149.41 138.15 Z M 149.26 139.11 L 149.09 140.08 C 148.92 141.11 149.61 142.09 150.64 142.26 C 151.68 142.43 152.65 141.74 152.83 140.71 L 152.99 139.74 C 153.17 138.71 152.47 137.73 151.44 137.56 C 150.41 137.38 149.43 138.08 149.26 139.11 Z M 149.10 140.06 L 148.92 141.04 C 148.74 142.07 149.42 143.06 150.45 143.24 C 151.48 143.43 152.46 142.74 152.65 141.71 L 152.83 140.73 C 153.01 139.70 152.32 138.71 151.29 138.53 C 150.27 138.34 149.28 139.03 149.10 140.06 Z M 148.92 141.03 L 148.73 142.02 C 148.54 143.05 149.22 144.04 150.24 144.24 C 151.27 144.43 152.26 143.75 152.46 142.73 L 152.65 141.73 C 152.84 140.70 152.16 139.71 151.14 139.52 C 150.11 139.32 149.12 140.00 148.92 141.03 Z M 148.74 142.00 L 148.54 143.01 C 148.33 144.03 149.00 145.03 150.02 145.24 C 151.05 145.44 152.05 144.77 152.25 143.75 L 152.45 142.75 C 152.66 141.72 151.99 140.72 150.97 140.52 C 149.94 140.31 148.94 140.98 148.74 142.00 Z M 148.54 142.99 L 148.34 143.97 C 148.12 144.99 148.78 145.99 149.80 146.21 C 150.82 146.42 151.83 145.77 152.04 144.74 L 152.25 143.77 C 152.46 142.74 151.81 141.74 150.78 141.52 C 149.76 141.31 148.76 141.96 148.54 142.99 Z M 148.34 143.95 L 148.13 144.91 C 147.90 145.93 148.55 146.94 149.57 147.17 C 150.59 147.39 151.60 146.75 151.83 145.72 L 152.04 144.76 C 152.27 143.74 151.62 142.73 150.60 142.50 C 149.58 142.28 148.56 142.92 148.34 143.95 Z M 148.13 144.89 L 147.91 145.86 C 147.67 146.88 148.31 147.89 149.33 148.13 C 150.35 148.36 151.37 147.73 151.60 146.71 L 151.83 145.74 C 152.06 144.72 151.42 143.70 150.40 143.47 C 149.38 143.23 148.37 143.87 148.13 144.89 Z M 147.91 145.84 L 147.68 146.81 C 147.43 147.83 148.06 148.85 149.08 149.10 C 150.10 149.34 151.12 148.72 151.37 147.70 L 151.60 146.72 C 151.84 145.71 151.22 144.68 150.20 144.44 C 149.18 144.19 148.16 144.82 147.91 145.84 Z M 147.68 146.79 L 147.44 147.78 C 147.18 148.79 147.80 149.82 148.82 150.08 C 149.83 150.33 150.86 149.71 151.12 148.70 L 151.36 147.71 C 151.62 146.70 151.00 145.67 149.98 145.41 C 148.96 145.16 147.93 145.78 147.68 146.79 Z M 147.44 147.76 L 147.18 148.75 C 146.92 149.77 147.53 150.80 148.55 151.06 C 149.56 151.33 150.60 150.72 150.86 149.70 L 151.11 148.71 C 151.38 147.70 150.77 146.66 149.75 146.40 C 148.74 146.14 147.70 146.75 147.44 147.76 Z M 147.19 148.74 L 146.93 149.70 C 146.66 150.72 147.26 151.76 148.27 152.03 C 149.29 152.30 150.33 151.69 150.60 150.68 L 150.86 149.72 C 151.13 148.70 150.52 147.66 149.51 147.39 C 148.50 147.12 147.46 147.72 147.19 148.74 Z M 146.93 149.69 L 146.66 150.66 C 146.39 151.67 146.98 152.72 147.99 153.00 C 149.00 153.27 150.05 152.68 150.33 151.67 L 150.60 150.70 C 150.87 149.68 150.28 148.64 149.27 148.36 C 148.26 148.08 147.21 148.68 146.93 149.69 Z M 146.67 150.65 L 146.39 151.62 C 146.11 152.63 146.69 153.68 147.70 153.97 C 148.71 154.25 149.76 153.66 150.05 152.65 L 150.33 151.68 C 150.61 150.67 150.02 149.62 149.01 149.34 C 148.00 149.05 146.95 149.64 146.67 150.65 Z M 146.40 151.60 L 146.11 152.57 C 145.82 153.57 146.40 154.63 147.40 154.93 C 148.41 155.22 149.47 154.64 149.76 153.63 L 150.05 152.67 C 150.34 151.66 149.76 150.61 148.76 150.31 C 147.75 150.02 146.69 150.59 146.40 151.60 Z M 146.12 152.55 L 145.83 153.50 C 145.53 154.50 146.09 155.57 147.10 155.87 C 148.11 156.17 149.17 155.61 149.47 154.60 L 149.76 153.65 C 150.06 152.65 149.50 151.58 148.49 151.28 C 147.48 150.97 146.42 151.54 146.12 152.55 Z M 145.84 153.48 L 145.53 154.44 C 145.22 155.45 145.77 156.51 146.78 156.83 C 147.78 157.15 148.85 156.59 149.16 155.58 L 149.47 154.62 C 149.78 153.62 149.22 152.55 148.22 152.23 C 147.22 151.92 146.15 152.48 145.84 153.48 Z M 145.54 154.42 L 145.22 155.40 C 144.89 156.40 145.44 157.48 146.44 157.80 C 147.44 158.13 148.51 157.58 148.84 156.58 L 149.16 155.61 C 149.48 154.61 148.94 153.53 147.94 153.20 C 146.94 152.88 145.86 153.42 145.54 154.42 Z M 145.22 155.38 L 144.90 156.33 C 144.56 157.33 145.09 158.41 146.09 158.75 C 147.08 159.09 148.17 158.56 148.51 157.56 L 148.83 156.61 C 149.17 155.61 148.64 154.53 147.64 154.19 C 146.65 153.85 145.56 154.38 145.22 155.38 Z M 144.91 156.31 L 144.58 157.24 C 144.23 158.24 144.75 159.32 145.74 159.68 C 146.73 160.03 147.82 159.51 148.17 158.51 L 148.50 157.58 C 148.85 156.59 148.33 155.50 147.34 155.15 C 146.35 154.80 145.26 155.32 144.91 156.31 Z M 144.58 157.22 L 144.25 158.14 C 143.88 159.13 144.39 160.22 145.38 160.58 C 146.37 160.95 147.46 160.44 147.83 159.45 L 148.16 158.54 C 148.53 157.55 148.02 156.45 147.03 156.09 C 146.04 155.73 144.95 156.23 144.58 157.22 Z M 144.25 158.12 L 143.91 159.03 C 143.53 160.02 144.03 161.12 145.01 161.49 C 146.00 161.87 147.10 161.37 147.47 160.39 L 147.82 159.47 C 148.19 158.49 147.70 157.39 146.71 157.01 C 145.73 156.64 144.63 157.13 144.25 158.12 Z M 143.92 159.01 L 143.54 159.96 C 143.16 160.94 143.64 162.05 144.62 162.44 C 145.60 162.82 146.70 162.34 147.09 161.36 L 147.46 160.41 C 147.85 159.43 147.37 158.32 146.39 157.94 C 145.41 157.55 144.30 158.04 143.92 159.01 Z M 143.55 159.94 L 143.17 160.88 C 142.78 161.85 143.24 162.96 144.22 163.36 C 145.19 163.76 146.30 163.29 146.70 162.31 L 147.08 161.38 C 147.48 160.40 147.01 159.29 146.03 158.90 C 145.06 158.50 143.95 158.97 143.55 159.94 Z M 143.18 160.86 L 142.80 161.78 C 142.39 162.75 142.84 163.86 143.81 164.27 C 144.78 164.68 145.89 164.22 146.30 163.25 L 146.69 162.33 C 147.10 161.37 146.64 160.25 145.67 159.84 C 144.70 159.44 143.59 159.89 143.18 160.86 Z M 142.81 161.76 L 142.41 162.66 C 142.00 163.62 142.44 164.74 143.40 165.16 C 144.36 165.58 145.48 165.14 145.90 164.18 L 146.29 163.27 C 146.71 162.31 146.27 161.19 145.31 160.77 C 144.34 160.36 143.23 160.80 142.81 161.76 Z M 142.43 162.64 L 142.02 163.55 C 141.59 164.51 142.01 165.63 142.97 166.06 C 143.92 166.49 145.05 166.07 145.48 165.11 L 145.89 164.20 C 146.32 163.24 145.89 162.12 144.94 161.69 C 143.98 161.26 142.86 161.68 142.43 162.64 Z M 142.03 163.53 L 141.59 164.47 C 141.15 165.42 141.56 166.54 142.51 166.99 C 143.45 167.43 144.58 167.02 145.02 166.07 L 145.46 165.13 C 145.90 164.18 145.49 163.06 144.55 162.62 C 143.60 162.17 142.47 162.58 142.03 163.53 Z M 141.61 164.45 L 141.17 165.36 C 140.71 166.30 141.11 167.43 142.04 167.88 C 142.98 168.33 144.11 167.94 144.56 167.00 L 145.00 166.09 C 145.46 165.15 145.07 164.03 144.13 163.57 C 143.19 163.12 142.06 163.51 141.61 164.45 Z M 141.18 165.34 L 140.74 166.22 C 140.28 167.15 140.66 168.28 141.58 168.75 C 142.51 169.21 143.64 168.83 144.11 167.91 L 144.55 167.02 C 145.01 166.10 144.64 164.97 143.71 164.50 C 142.78 164.04 141.65 164.41 141.18 165.34 Z M 140.76 166.20 L 140.32 167.05 C 139.85 167.97 140.21 169.10 141.13 169.57 C 142.05 170.05 143.18 169.69 143.65 168.77 L 144.09 167.92 C 144.56 167.01 144.21 165.88 143.29 165.40 C 142.37 164.92 141.24 165.28 140.76 166.20 Z M 140.34 167.03 L 139.85 167.96 C 139.36 168.86 139.70 169.99 140.61 170.48 C 141.52 170.97 142.65 170.63 143.13 169.72 L 143.63 168.79 C 144.12 167.88 143.77 166.75 142.87 166.27 C 141.96 165.78 140.83 166.12 140.34 167.03 Z M 139.88 167.93 L 139.38 168.83 C 138.88 169.72 139.19 170.85 140.09 171.34 C 140.98 171.84 142.10 171.53 142.60 170.64 L 143.10 169.74 C 143.60 168.85 143.28 167.72 142.39 167.23 C 141.50 166.73 140.38 167.04 139.88 167.93 Z M 139.41 168.80 L 138.91 169.64 C 138.40 170.51 138.69 171.64 139.56 172.15 C 140.43 172.67 141.56 172.38 142.07 171.50 L 142.57 170.66 C 143.08 169.79 142.79 168.67 141.92 168.15 C 141.05 167.64 139.92 167.93 139.41 168.80 Z M 138.95 169.61 L 138.45 170.41 C 137.92 171.26 138.18 172.38 139.03 172.91 C 139.88 173.44 141.00 173.18 141.54 172.33 L 142.03 171.54 C 142.57 170.69 142.31 169.56 141.46 169.03 C 140.61 168.50 139.48 168.76 138.95 169.61 Z M 138.51 170.36 L 137.96 171.18 C 137.40 172.00 137.62 173.12 138.44 173.67 C 139.26 174.23 140.37 174.01 140.93 173.19 L 141.48 172.37 C 142.04 171.55 141.82 170.44 141.00 169.88 C 140.18 169.33 139.06 169.54 138.51 170.36 Z M 138.04 171.12 L 137.45 171.89 C 136.86 172.67 137.01 173.77 137.78 174.36 C 138.56 174.95 139.66 174.80 140.25 174.03 L 140.85 173.25 C 141.44 172.48 141.29 171.37 140.51 170.78 C 139.74 170.19 138.63 170.34 138.04 171.12 Z M 137.55 171.81 L 136.88 172.57 C 136.25 173.29 136.32 174.38 137.04 175.02 C 137.75 175.65 138.85 175.58 139.48 174.87 L 140.15 174.11 C 140.78 173.39 140.72 172.29 140.00 171.66 C 139.28 171.03 138.19 171.10 137.55 171.81 Z M 136.99 172.50 L 136.25 173.22 C 135.57 173.88 135.56 174.96 136.22 175.63 C 136.87 176.31 137.95 176.32 138.63 175.67 L 139.37 174.94 C 140.05 174.28 140.06 173.20 139.41 172.53 C 138.75 171.85 137.67 171.84 136.99 172.50 Z M 136.35 173.15 L 135.55 173.83 C 134.83 174.43 134.74 175.50 135.34 176.21 C 135.95 176.92 137.01 177.01 137.73 176.41 L 138.53 175.74 C 139.24 175.13 139.33 174.07 138.73 173.35 C 138.13 172.64 137.06 172.55 136.35 173.15 Z M 135.66 173.76 L 134.82 174.36 C 134.07 174.90 133.90 175.94 134.44 176.70 C 134.98 177.45 136.03 177.62 136.78 177.08 L 137.61 176.48 C 138.37 175.94 138.54 174.90 138.00 174.14 C 137.46 173.39 136.41 173.22 135.66 173.76 Z M 134.98 174.27 L 134.16 174.74 C 133.36 175.19 133.08 176.21 133.54 177.01 C 133.99 177.81 135.01 178.09 135.81 177.63 L 136.63 177.17 C 137.42 176.71 137.70 175.69 137.25 174.90 C 136.79 174.10 135.78 173.82 134.98 174.27 Z M 134.46 174.62 L 133.45 174.96 C 132.59 175.26 132.13 176.19 132.42 177.06 C 132.71 177.92 133.65 178.38 134.51 178.09 L 135.52 177.74 C 136.38 177.45 136.84 176.51 136.55 175.65 C 136.25 174.79 135.32 174.33 134.46 174.62 Z M 133.84 174.90 L 132.88 174.98 C 131.99 175.06 131.32 175.85 131.40 176.74 C 131.47 177.64 132.26 178.30 133.15 178.23 L 134.12 178.15 C 135.01 178.07 135.68 177.28 135.60 176.39 C 135.53 175.49 134.74 174.83 133.84 174.90 Z M 133.10 175.00 L 132.36 174.96 C 131.47 174.91 130.72 175.59 130.67 176.47 C 130.62 177.36 131.29 178.12 132.18 178.17 L 132.93 178.21 C 133.81 178.26 134.57 177.58 134.62 176.69 C 134.67 175.81 133.99 175.05 133.10 175.00 Z"
      fill="black"
      fill-rule="nonzero" /><path d="M 153.28 146.48 L 152.75 145.29 C 152.36 144.41 151.33 144.01 150.44 144.40 C 149.56 144.80 149.17 145.83 149.56 146.71 L 150.08 147.90 C 150.48 148.78 151.51 149.18 152.39 148.79 C 153.27 148.39 153.67 147.36 153.28 146.48 Z M 152.52 144.83 L 152.21 144.46 C 151.56 143.70 150.42 143.62 149.66 144.27 C 148.91 144.92 148.82 146.05 149.47 146.81 L 149.78 147.18 C 150.43 147.93 151.57 148.02 152.33 147.37 C 153.08 146.72 153.17 145.58 152.52 144.83 Z M 149.01 145.59 L 148.99 146.36 C 148.96 147.37 149.76 148.21 150.77 148.24 C 151.79 148.26 152.63 147.46 152.65 146.45 L 152.67 145.68 C 152.69 144.67 151.89 143.83 150.88 143.80 C 149.87 143.78 149.03 144.58 149.01 145.59 Z M 148.99 146.53 L 149.07 147.84 C 149.14 148.85 150.02 149.62 151.03 149.55 C 152.04 149.48 152.81 148.61 152.74 147.60 L 152.65 146.29 C 152.58 145.27 151.71 144.51 150.70 144.58 C 149.69 144.64 148.92 145.52 148.99 146.53 Z M 149.07 147.81 L 149.12 148.83 C 149.17 149.85 150.03 150.63 151.04 150.58 C 152.06 150.53 152.84 149.67 152.79 148.66 L 152.74 147.63 C 152.69 146.62 151.83 145.84 150.82 145.88 C 149.80 145.93 149.02 146.79 149.07 147.81 Z M 149.12 148.80 L 149.15 149.82 C 149.18 150.83 150.03 151.63 151.05 151.59 C 152.06 151.56 152.86 150.71 152.82 149.70 L 152.79 148.69 C 152.76 147.67 151.91 146.88 150.90 146.91 C 149.88 146.94 149.09 147.79 149.12 148.80 Z M 149.15 149.79 L 149.17 150.77 C 149.19 151.79 150.03 152.59 151.04 152.57 C 152.06 152.55 152.86 151.71 152.84 150.70 L 152.83 149.72 C 152.81 148.71 151.97 147.90 150.95 147.92 C 149.94 147.94 149.13 148.78 149.15 149.79 Z M 149.17 150.75 L 149.18 151.77 C 149.19 152.79 150.02 153.60 151.03 153.59 C 152.05 153.58 152.86 152.75 152.85 151.74 L 152.85 150.72 C 152.84 149.70 152.00 148.89 150.99 148.90 C 149.97 148.91 149.16 149.74 149.17 150.75 Z M 149.18 151.76 L 149.18 152.72 C 149.18 153.74 150.01 154.56 151.02 154.56 C 152.04 154.56 152.86 153.73 152.86 152.72 L 152.85 151.75 C 152.85 150.73 152.03 149.91 151.01 149.91 C 150.00 149.92 149.18 150.74 149.18 151.76 Z M 149.18 152.72 L 149.18 153.66 C 149.18 154.67 150.00 155.50 151.02 155.50 C 152.03 155.50 152.86 154.67 152.86 153.66 L 152.86 152.72 C 152.86 151.70 152.03 150.88 151.02 150.88 C 150.00 150.88 149.18 151.70 149.18 152.72 Z M 149.18 153.66 L 149.18 154.65 C 149.18 155.67 150.00 156.49 151.02 156.49 C 152.03 156.49 152.86 155.67 152.86 154.65 L 152.86 153.66 C 152.86 152.65 152.03 151.82 151.02 151.82 C 150.00 151.82 149.18 152.65 149.18 153.66 Z M 149.18 154.65 L 149.18 155.71 C 149.18 156.72 150.00 157.55 151.02 157.55 C 152.03 157.55 152.86 156.72 152.86 155.71 L 152.86 154.65 C 152.86 153.64 152.03 152.81 151.02 152.81 C 150.00 152.81 149.18 153.64 149.18 154.65 Z M 149.18 155.71 L 149.18 156.64 C 149.18 157.66 150.00 158.48 151.01 158.49 C 152.03 158.49 152.85 157.67 152.85 156.65 L 152.86 155.72 C 152.86 154.70 152.04 153.88 151.02 153.87 C 150.01 153.87 149.19 154.69 149.18 155.71 Z M 149.18 156.62 L 149.16 157.61 C 149.15 158.63 149.95 159.46 150.97 159.48 C 151.98 159.50 152.82 158.69 152.84 157.68 L 152.85 156.68 C 152.87 155.67 152.06 154.83 151.05 154.81 C 150.03 154.80 149.20 155.60 149.18 156.62 Z M 149.16 157.57 L 149.12 158.62 C 149.08 159.63 149.87 160.49 150.88 160.53 C 151.89 160.57 152.75 159.79 152.79 158.77 L 152.84 157.72 C 152.88 156.71 152.09 155.85 151.08 155.81 C 150.06 155.77 149.21 156.56 149.16 157.57 Z M 149.12 158.56 L 149.05 159.56 C 148.98 160.57 149.74 161.45 150.75 161.52 C 151.76 161.59 152.64 160.83 152.72 159.82 L 152.79 158.83 C 152.86 157.82 152.10 156.94 151.09 156.86 C 150.08 156.79 149.20 157.55 149.12 158.56 Z M 149.06 159.51 L 148.96 160.50 C 148.86 161.51 149.60 162.41 150.61 162.51 C 151.62 162.61 152.52 161.87 152.62 160.86 L 152.71 159.86 C 152.81 158.85 152.07 157.96 151.06 157.86 C 150.05 157.76 149.15 158.50 149.06 159.51 Z M 148.96 160.47 L 148.85 161.48 C 148.73 162.49 149.46 163.40 150.47 163.51 C 151.48 163.63 152.39 162.90 152.50 161.89 L 152.62 160.88 C 152.73 159.88 152.00 158.97 151.00 158.85 C 149.99 158.74 149.08 159.46 148.96 160.47 Z M 148.85 161.46 L 148.73 162.47 C 148.60 163.48 149.32 164.40 150.33 164.52 C 151.34 164.64 152.25 163.93 152.38 162.92 L 152.50 161.91 C 152.62 160.90 151.91 159.98 150.90 159.86 C 149.89 159.74 148.97 160.45 148.85 161.46 Z M 148.73 162.46 L 148.60 163.47 C 148.47 164.48 149.19 165.40 150.19 165.52 C 151.20 165.65 152.12 164.94 152.25 163.93 L 152.38 162.92 C 152.50 161.92 151.79 161.00 150.78 160.87 C 149.77 160.74 148.85 161.46 148.73 162.46 Z M 148.60 163.46 L 148.47 164.46 C 148.34 165.46 149.05 166.38 150.06 166.52 C 151.06 166.65 151.98 165.94 152.12 164.93 L 152.25 163.94 C 152.38 162.93 151.67 162.01 150.66 161.88 C 149.66 161.75 148.73 162.46 148.60 163.46 Z M 148.48 164.45 L 148.34 165.43 C 148.21 166.44 148.91 167.36 149.91 167.50 C 150.92 167.63 151.84 166.93 151.98 165.93 L 152.11 164.94 C 152.25 163.94 151.55 163.01 150.54 162.88 C 149.54 162.74 148.61 163.44 148.48 164.45 Z M 148.35 165.42 L 148.21 166.36 C 148.07 167.36 148.77 168.29 149.77 168.43 C 150.77 168.57 151.70 167.88 151.84 166.88 L 151.98 165.94 C 152.12 164.93 151.42 164.01 150.42 163.86 C 149.42 163.72 148.49 164.42 148.35 165.42 Z M 148.22 166.35 L 148.09 167.18 C 147.94 168.18 148.63 169.11 149.63 169.26 C 150.63 169.41 151.56 168.72 151.71 167.72 L 151.84 166.89 C 151.99 165.89 151.30 164.95 150.30 164.81 C 149.30 164.66 148.36 165.35 148.22 166.35 Z M 148.10 167.18 L 147.96 168.08 C 147.81 169.07 148.49 170.01 149.49 170.16 C 150.49 170.31 151.42 169.62 151.57 168.63 L 151.71 167.73 C 151.86 166.73 151.18 165.80 150.18 165.65 C 149.18 165.49 148.25 166.18 148.10 167.18 Z M 147.96 168.08 L 147.81 169.09 C 147.65 170.09 148.34 171.02 149.33 171.17 C 150.33 171.32 151.26 170.64 151.41 169.64 L 151.57 168.63 C 151.72 167.63 151.04 166.70 150.04 166.55 C 149.05 166.40 148.12 167.08 147.96 168.08 Z M 147.81 169.09 L 147.63 170.28 C 147.48 171.27 148.16 172.20 149.16 172.35 C 150.15 172.50 151.08 171.82 151.23 170.83 L 151.41 169.64 C 151.56 168.65 150.88 167.72 149.88 167.57 C 148.89 167.41 147.96 168.10 147.81 169.09 Z M 147.63 170.28 L 147.48 171.29 C 147.33 172.28 148.01 173.21 149.01 173.36 C 150.00 173.51 150.93 172.83 151.08 171.83 L 151.23 170.82 C 151.38 169.83 150.69 168.90 149.70 168.75 C 148.71 168.60 147.78 169.29 147.63 170.28 Z M 147.48 171.30 L 147.34 172.30 C 147.19 173.30 147.87 174.22 148.86 174.36 C 149.86 174.51 150.78 173.83 150.92 172.83 L 151.07 171.83 C 151.22 170.84 150.53 169.91 149.54 169.77 C 148.55 169.62 147.63 170.31 147.48 171.30 Z M 147.34 172.31 L 147.19 173.36 C 147.05 174.35 147.73 175.27 148.72 175.41 C 149.71 175.55 150.63 174.86 150.77 173.87 L 150.92 172.83 C 151.06 171.84 150.37 170.92 149.39 170.78 C 148.40 170.64 147.48 171.32 147.34 172.31 Z M 147.19 173.37 L 147.05 174.43 C 146.91 175.42 147.60 176.33 148.59 176.46 C 149.58 176.60 150.49 175.91 150.62 174.92 L 150.77 173.86 C 150.90 172.88 150.21 171.97 149.22 171.83 C 148.24 171.70 147.33 172.39 147.19 173.37 Z M 147.05 174.45 L 146.92 175.47 C 146.79 176.46 147.49 177.36 148.48 177.48 C 149.46 177.61 150.37 176.91 150.49 175.92 L 150.62 174.90 C 150.75 173.91 150.05 173.01 149.06 172.89 C 148.08 172.76 147.17 173.46 147.05 174.45 Z M 146.92 175.49 L 146.81 176.45 C 146.70 177.44 147.41 178.33 148.39 178.44 C 149.38 178.55 150.27 177.84 150.38 176.86 L 150.49 175.90 C 150.60 174.92 149.89 174.03 148.91 173.91 C 147.92 173.80 147.03 174.51 146.92 175.49 Z M 146.82 176.49 L 146.72 177.50 C 146.63 178.49 147.36 179.35 148.34 179.45 C 149.32 179.54 150.19 178.81 150.28 177.83 L 150.37 176.82 C 150.47 175.83 149.74 174.97 148.76 174.88 C 147.78 174.78 146.91 175.51 146.82 176.49 Z M 146.75 177.59 L 146.69 178.82 C 146.65 179.79 147.40 180.61 148.36 180.66 C 149.33 180.70 150.15 179.95 150.20 178.99 L 150.26 177.75 C 150.30 176.78 149.55 175.96 148.58 175.91 C 147.62 175.87 146.79 176.62 146.75 177.59 Z M 146.74 178.94 L 146.76 179.88 C 146.78 180.83 147.56 181.57 148.50 181.55 C 149.45 181.53 150.19 180.75 150.17 179.81 L 150.15 178.87 C 150.13 177.92 149.35 177.18 148.41 177.20 C 147.47 177.22 146.72 178.00 146.74 178.94 Z M 146.81 179.98 L 146.88 180.76 C 146.95 181.67 147.75 182.35 148.67 182.28 C 149.58 182.20 150.26 181.40 150.18 180.49 L 150.12 179.71 C 150.04 178.80 149.24 178.12 148.33 178.19 C 147.42 178.27 146.74 179.07 146.81 179.98 Z M 146.91 180.79 L 146.93 181.00 C 147.02 181.90 147.82 182.55 148.72 182.45 C 149.61 182.36 150.26 181.56 150.17 180.67 L 150.15 180.45 C 150.06 179.56 149.26 178.91 148.36 179.00 C 147.47 179.09 146.82 179.90 146.91 180.79 Z"
      fill="black"
      fill-rule="nonzero" /><path d="M 154.54 146.89 L 155.11 146.12 C 155.73 145.29 155.55 144.10 154.71 143.49 C 153.87 142.87 152.68 143.05 152.07 143.89 L 151.50 144.66 C 150.88 145.49 151.06 146.68 151.90 147.30 C 152.74 147.91 153.92 147.73 154.54 146.89 Z M 155.03 146.17 L 155.65 145.41 C 156.29 144.61 156.17 143.45 155.37 142.80 C 154.58 142.16 153.41 142.28 152.76 143.07 L 152.15 143.84 C 151.50 144.63 151.62 145.80 152.42 146.45 C 153.21 147.09 154.38 146.97 155.03 146.17 Z M 155.52 145.51 L 156.24 144.76 C 156.94 144.03 156.92 142.88 156.19 142.18 C 155.47 141.48 154.31 141.50 153.61 142.23 L 152.89 142.98 C 152.19 143.70 152.22 144.86 152.94 145.56 C 153.67 146.25 154.82 146.23 155.52 145.51 Z M 156.10 144.86 L 156.83 144.23 C 157.59 143.59 157.68 142.45 157.03 141.69 C 156.39 140.94 155.25 140.85 154.50 141.49 L 153.76 142.12 C 153.00 142.77 152.91 143.90 153.56 144.66 C 154.20 145.42 155.34 145.51 156.10 144.86 Z M 156.73 144.30 L 157.52 143.72 C 158.32 143.13 158.49 142.01 157.90 141.21 C 157.32 140.42 156.19 140.25 155.40 140.83 L 154.60 141.42 C 153.81 142.01 153.64 143.13 154.22 143.93 C 154.81 144.72 155.93 144.89 156.73 144.30 Z M 157.45 143.76 L 158.30 143.19 C 159.12 142.64 159.34 141.54 158.80 140.72 C 158.25 139.90 157.14 139.68 156.32 140.22 L 155.47 140.79 C 154.65 141.34 154.43 142.45 154.98 143.27 C 155.52 144.09 156.63 144.31 157.45 143.76 Z M 158.26 143.21 L 159.13 142.67 C 159.96 142.14 160.22 141.05 159.69 140.22 C 159.17 139.38 158.08 139.13 157.24 139.65 L 156.37 140.20 C 155.54 140.72 155.29 141.82 155.81 142.65 C 156.33 143.48 157.42 143.73 158.26 143.21 Z M 159.10 142.68 L 160.00 142.14 C 160.84 141.63 161.11 140.54 160.60 139.70 C 160.10 138.87 159.01 138.59 158.17 139.10 L 157.27 139.64 C 156.43 140.15 156.16 141.23 156.67 142.07 C 157.17 142.91 158.26 143.18 159.10 142.68 Z M 159.97 142.15 L 160.86 141.64 C 161.70 141.15 161.99 140.06 161.50 139.22 C 161.01 138.37 159.93 138.09 159.08 138.57 L 158.20 139.09 C 157.35 139.58 157.07 140.66 157.56 141.50 C 158.05 142.35 159.13 142.64 159.97 142.15 Z M 160.82 141.65 L 161.68 141.18 C 162.54 140.71 162.85 139.63 162.38 138.78 C 161.91 137.92 160.83 137.61 159.98 138.08 L 159.12 138.56 C 158.26 139.03 157.95 140.10 158.42 140.96 C 158.90 141.81 159.97 142.12 160.82 141.65 Z M 161.64 141.20 L 162.50 140.75 C 163.36 140.31 163.70 139.24 163.25 138.38 C 162.81 137.51 161.74 137.17 160.88 137.62 L 160.02 138.06 C 159.16 138.51 158.82 139.58 159.27 140.44 C 159.71 141.31 160.78 141.65 161.64 141.20 Z M 162.44 140.79 L 163.41 140.34 C 164.29 139.92 164.67 138.86 164.26 137.98 C 163.84 137.09 162.78 136.71 161.90 137.13 L 160.93 137.58 C 160.05 138.00 159.67 139.06 160.08 139.94 C 160.50 140.83 161.56 141.21 162.44 140.79 Z M 163.32 140.39 L 164.24 140.02 C 165.16 139.65 165.60 138.61 165.23 137.69 C 164.86 136.78 163.82 136.33 162.91 136.70 L 161.99 137.07 C 161.07 137.44 160.62 138.48 160.99 139.40 C 161.36 140.32 162.41 140.76 163.32 140.39 Z M 164.11 140.09 L 165.00 139.81 C 165.96 139.51 166.49 138.50 166.19 137.54 C 165.89 136.59 164.87 136.06 163.92 136.36 L 163.03 136.64 C 162.08 136.94 161.55 137.95 161.85 138.90 C 162.15 139.86 163.16 140.39 164.11 140.09 Z M 164.75 139.89 L 165.84 139.72 C 166.84 139.56 167.52 138.62 167.36 137.62 C 167.20 136.62 166.25 135.94 165.26 136.10 L 164.17 136.27 C 163.17 136.44 162.49 137.38 162.65 138.38 C 162.81 139.38 163.75 140.05 164.75 139.89 Z M 165.19 139.74 L 166.09 139.92 C 167.10 140.11 168.08 139.45 168.28 138.44 C 168.47 137.43 167.81 136.45 166.80 136.25 L 165.90 136.08 C 164.89 135.88 163.91 136.54 163.71 137.55 C 163.52 138.57 164.18 139.55 165.19 139.74 Z M 165.08 139.40 L 165.65 139.99 C 166.38 140.75 167.58 140.77 168.33 140.04 C 169.08 139.31 169.11 138.11 168.38 137.36 L 167.81 136.77 C 167.08 136.01 165.88 135.99 165.13 136.72 C 164.37 137.45 164.35 138.65 165.08 139.40 Z M 165.21 139.32 L 165.54 140.25 C 165.90 141.24 166.99 141.76 167.99 141.41 C 168.99 141.05 169.51 139.95 169.15 138.96 L 168.82 138.03 C 168.46 137.03 167.36 136.52 166.37 136.87 C 165.37 137.23 164.85 138.33 165.21 139.32 Z M 165.44 139.91 L 165.62 141.02 C 165.79 142.07 166.78 142.78 167.84 142.61 C 168.89 142.44 169.60 141.45 169.43 140.39 L 169.25 139.29 C 169.08 138.24 168.09 137.52 167.03 137.69 C 165.98 137.87 165.27 138.86 165.44 139.91 Z M 165.59 140.87 L 165.67 141.80 C 165.76 142.87 166.71 143.67 167.78 143.57 C 168.85 143.48 169.64 142.54 169.54 141.47 L 169.46 140.54 C 169.37 139.47 168.43 138.67 167.36 138.77 C 166.29 138.86 165.49 139.80 165.59 140.87 Z M 165.66 141.73 L 165.70 142.72 C 165.75 143.79 166.67 144.63 167.74 144.58 C 168.82 144.52 169.65 143.61 169.60 142.53 L 169.56 141.54 C 169.51 140.47 168.59 139.63 167.51 139.68 C 166.44 139.74 165.61 140.65 165.66 141.73 Z M 165.69 142.67 L 165.72 143.72 C 165.74 144.81 166.64 145.66 167.72 145.64 C 168.80 145.61 169.66 144.72 169.63 143.64 L 169.61 142.58 C 169.59 141.50 168.69 140.64 167.61 140.67 C 166.53 140.69 165.67 141.59 165.69 142.67 Z M 165.71 143.70 L 165.72 144.76 C 165.73 145.84 166.62 146.71 167.71 146.70 C 168.79 146.69 169.66 145.80 169.65 144.71 L 169.64 143.66 C 169.63 142.57 168.74 141.70 167.66 141.71 C 166.57 141.73 165.70 142.62 165.71 143.70 Z M 165.72 144.75 L 165.72 145.79 C 165.73 146.88 166.62 147.76 167.70 147.75 C 168.79 147.75 169.67 146.86 169.66 145.77 L 169.66 144.72 C 169.65 143.64 168.77 142.76 167.68 142.76 C 166.59 142.77 165.71 143.66 165.72 144.75 Z M 165.72 145.79 L 165.72 146.80 C 165.72 147.89 166.61 148.77 167.70 148.77 C 168.79 148.77 169.67 147.88 169.67 146.79 L 169.67 145.78 C 169.67 144.69 168.78 143.80 167.69 143.81 C 166.60 143.81 165.72 144.69 165.72 145.79 Z M 165.71 146.80 L 165.72 147.72 C 165.72 148.82 166.60 149.70 167.70 149.70 C 168.79 149.70 169.68 148.82 169.68 147.72 L 169.68 146.80 C 169.68 145.70 168.79 144.81 167.69 144.82 C 166.60 144.82 165.71 145.70 165.71 146.80 Z M 165.71 147.72 L 165.71 148.84 C 165.71 149.93 166.60 150.82 167.70 150.82 C 168.79 150.82 169.68 149.93 169.68 148.84 L 169.68 147.72 C 169.68 146.63 168.79 145.74 167.70 145.74 C 166.60 145.74 165.71 146.63 165.71 147.72 Z M 165.71 148.84 L 165.71 149.79 C 165.71 150.88 166.60 151.77 167.70 151.77 C 168.79 151.77 169.68 150.88 169.68 149.79 L 169.68 148.84 C 169.68 147.74 168.79 146.85 167.70 146.85 C 166.60 146.85 165.71 147.74 165.71 148.84 Z M 165.71 149.79 L 165.71 150.71 C 165.71 151.81 166.60 152.70 167.70 152.70 C 168.79 152.70 169.68 151.81 169.68 150.71 L 169.68 149.79 C 169.68 148.69 168.79 147.80 167.70 147.80 C 166.60 147.80 165.71 148.69 165.71 149.79 Z M 165.71 150.71 L 165.71 151.71 C 165.71 152.80 166.60 153.69 167.70 153.69 C 168.79 153.69 169.68 152.80 169.68 151.71 L 169.68 150.71 C 169.68 149.61 168.79 148.72 167.70 148.72 C 166.60 148.72 165.71 149.61 165.71 150.71 Z M 165.71 151.71 L 165.71 152.71 C 165.71 153.81 166.60 154.70 167.70 154.70 C 168.79 154.70 169.69 153.81 169.69 152.71 L 169.69 151.71 C 169.69 150.61 168.79 149.72 167.70 149.72 C 166.60 149.72 165.71 150.61 165.71 151.71 Z M 165.71 152.71 L 165.71 153.71 C 165.71 154.80 166.60 155.70 167.70 155.70 C 168.80 155.70 169.69 154.80 169.69 153.71 L 169.69 152.71 C 169.69 151.61 168.80 150.72 167.70 150.72 C 166.60 150.72 165.71 151.61 165.71 152.71 Z M 165.70 153.71 L 165.70 154.71 C 165.70 155.81 166.60 156.70 167.70 156.70 C 168.80 156.70 169.69 155.81 169.69 154.71 L 169.69 153.71 C 169.69 152.61 168.80 151.71 167.70 151.71 C 166.60 151.71 165.70 152.61 165.70 153.71 Z M 165.70 154.71 L 165.70 155.69 C 165.70 156.79 166.60 157.68 167.70 157.68 C 168.80 157.68 169.69 156.79 169.69 155.69 L 169.69 154.71 C 169.69 153.61 168.80 152.72 167.70 152.72 C 166.60 152.72 165.70 153.61 165.70 154.71 Z M 165.70 155.69 L 165.70 156.69 C 165.70 157.79 166.60 158.68 167.70 158.68 C 168.80 158.68 169.69 157.79 169.69 156.69 L 169.69 155.69 C 169.69 154.59 168.80 153.70 167.70 153.70 C 166.60 153.70 165.70 154.59 165.70 155.69 Z M 165.71 156.69 L 165.71 157.71 C 165.71 158.81 166.60 159.70 167.70 159.70 C 168.80 159.70 169.69 158.81 169.69 157.71 L 169.69 156.69 C 169.69 155.59 168.80 154.70 167.70 154.70 C 166.60 154.70 165.71 155.59 165.71 156.69 Z M 165.71 157.71 L 165.71 158.72 C 165.71 159.82 166.60 160.71 167.70 160.71 C 168.79 160.71 169.68 159.82 169.68 158.72 L 169.68 157.71 C 169.68 156.61 168.79 155.72 167.70 155.72 C 166.60 155.72 165.71 156.61 165.71 157.71 Z M 165.71 158.72 L 165.71 159.72 C 165.71 160.81 166.60 161.70 167.70 161.70 C 168.79 161.70 169.68 160.81 169.68 159.72 L 169.68 158.72 C 169.68 157.62 168.79 156.73 167.70 156.73 C 166.60 156.73 165.71 157.62 165.71 158.72 Z M 165.71 159.72 L 165.71 160.74 C 165.71 161.84 166.60 162.72 167.70 162.72 C 168.79 162.72 169.68 161.84 169.68 160.74 L 169.68 159.72 C 169.68 158.62 168.79 157.73 167.70 157.73 C 166.60 157.73 165.71 158.62 165.71 159.72 Z M 165.72 160.74 L 165.72 161.73 C 165.72 162.82 166.60 163.70 167.70 163.70 C 168.79 163.70 169.67 162.82 169.67 161.73 L 169.67 160.74 C 169.67 159.65 168.79 158.76 167.70 158.76 C 166.60 158.76 165.72 159.65 165.72 160.74 Z M 165.73 161.73 L 165.73 162.72 C 165.73 163.80 166.61 164.69 167.70 164.69 C 168.78 164.69 169.67 163.80 169.67 162.72 L 169.67 161.73 C 169.67 160.64 168.78 159.76 167.70 159.76 C 166.61 159.76 165.73 160.64 165.73 161.73 Z M 165.74 162.72 L 165.74 163.72 C 165.74 164.80 166.61 165.68 167.70 165.68 C 168.78 165.68 169.66 164.80 169.66 163.72 L 169.66 162.72 C 169.66 161.63 168.78 160.76 167.70 160.76 C 166.61 160.76 165.74 161.63 165.74 162.72 Z M 165.75 163.72 L 165.75 164.68 C 165.75 165.76 166.62 166.63 167.70 166.63 C 168.77 166.63 169.64 165.76 169.64 164.68 L 169.64 163.72 C 169.64 162.64 168.77 161.77 167.70 161.77 C 166.62 161.77 165.75 162.64 165.75 163.72 Z M 165.76 164.68 L 165.76 165.63 C 165.76 166.70 166.63 167.56 167.70 167.56 C 168.76 167.56 169.63 166.70 169.63 165.63 L 169.63 164.68 C 169.63 163.61 168.76 162.74 167.70 162.74 C 166.63 162.74 165.76 163.61 165.76 164.68 Z M 165.77 165.63 L 165.77 166.70 C 165.77 167.77 166.63 168.63 167.70 168.63 C 168.76 168.63 169.62 167.77 169.62 166.70 L 169.62 165.63 C 169.62 164.57 168.76 163.71 167.70 163.71 C 166.63 163.71 165.77 164.57 165.77 165.63 Z M 165.79 166.71 L 165.79 167.65 C 165.79 168.70 166.65 169.56 167.70 169.55 C 168.76 169.55 169.61 168.69 169.61 167.64 L 169.60 166.70 C 169.60 165.65 168.74 164.79 167.69 164.80 C 166.64 164.80 165.79 165.66 165.79 166.71 Z M 165.81 167.68 L 165.82 168.69 C 165.84 169.74 166.71 170.57 167.75 170.55 C 168.80 170.53 169.63 169.67 169.61 168.62 L 169.59 167.61 C 169.57 166.57 168.71 165.73 167.66 165.75 C 166.62 165.77 165.79 166.64 165.81 167.68 Z M 165.84 168.75 L 165.89 169.79 C 165.94 170.83 166.83 171.63 167.86 171.58 C 168.90 171.52 169.70 170.64 169.65 169.60 L 169.59 168.56 C 169.54 167.53 168.66 166.73 167.62 166.78 C 166.59 166.83 165.79 167.71 165.84 168.75 Z M 165.92 169.88 L 166.02 170.89 C 166.12 171.91 167.02 172.66 168.04 172.56 C 169.07 172.46 169.81 171.56 169.71 170.54 L 169.62 169.52 C 169.52 168.50 168.61 167.75 167.59 167.85 C 166.57 167.95 165.82 168.86 165.92 169.88 Z M 166.07 170.97 L 166.20 171.96 C 166.34 172.95 167.26 173.65 168.26 173.51 C 169.25 173.37 169.95 172.45 169.81 171.46 L 169.67 170.46 C 169.53 169.47 168.61 168.77 167.62 168.91 C 166.62 169.05 165.93 169.97 166.07 170.97 Z M 166.25 172.00 L 166.41 172.98 C 166.58 173.95 167.49 174.60 168.46 174.44 C 169.43 174.28 170.09 173.36 169.92 172.39 L 169.76 171.41 C 169.60 170.45 168.68 169.79 167.71 169.95 C 166.74 170.11 166.09 171.03 166.25 172.00 Z M 166.45 172.99 L 166.55 173.55 C 166.72 174.50 167.62 175.13 168.57 174.97 C 169.52 174.80 170.16 173.89 169.99 172.94 L 169.89 172.38 C 169.72 171.43 168.81 170.80 167.86 170.97 C 166.91 171.13 166.28 172.04 166.45 172.99 Z"
      fill="black"
      fill-rule="nonzero" /><path d="M 152.83 160.07 L 153.84 159.73 C 154.78 159.41 155.27 158.39 154.96 157.45 C 154.64 156.52 153.62 156.02 152.68 156.34 L 151.67 156.68 C 150.74 157.00 150.24 158.02 150.56 158.96 C 150.88 159.89 151.90 160.39 152.83 160.07 Z M 153.84 159.75 L 154.82 159.42 C 155.77 159.10 156.28 158.07 155.95 157.12 C 155.63 156.17 154.60 155.66 153.65 155.98 L 152.68 156.32 C 151.73 156.64 151.22 157.67 151.54 158.62 C 151.87 159.57 152.90 160.07 153.84 159.75 Z M 154.82 159.44 L 155.74 159.13 C 156.70 158.81 157.22 157.77 156.89 156.81 C 156.57 155.85 155.53 155.33 154.57 155.65 L 153.65 155.96 C 152.69 156.28 152.18 157.33 152.50 158.29 C 152.82 159.25 153.86 159.76 154.82 159.44 Z M 155.73 159.15 L 156.68 158.83 C 157.65 158.52 158.18 157.47 157.86 156.50 C 157.54 155.54 156.50 155.01 155.53 155.33 L 154.58 155.64 C 153.61 155.96 153.08 157.00 153.40 157.97 C 153.72 158.94 154.76 159.47 155.73 159.15 Z M 156.66 158.82 L 157.63 158.51 C 158.59 158.21 159.13 157.18 158.82 156.22 C 158.52 155.26 157.49 154.73 156.53 155.03 L 155.56 155.34 C 154.60 155.64 154.06 156.67 154.37 157.63 C 154.67 158.59 155.70 159.13 156.66 158.82 Z M 157.60 158.48 L 158.48 158.21 C 159.43 157.93 159.96 156.93 159.67 155.98 C 159.38 155.04 158.38 154.51 157.44 154.79 L 156.56 155.06 C 155.62 155.35 155.08 156.35 155.37 157.29 C 155.66 158.24 156.66 158.77 157.60 158.48 Z M 158.47 158.18 L 159.28 157.94 C 160.21 157.66 160.73 156.68 160.45 155.75 C 160.17 154.83 159.20 154.30 158.27 154.58 L 157.46 154.82 C 156.53 155.10 156.00 156.08 156.28 157.01 C 156.56 157.94 157.54 158.46 158.47 158.18 Z M 159.28 157.90 L 160.21 157.62 C 161.12 157.34 161.62 156.37 161.34 155.46 C 161.06 154.55 160.09 154.05 159.18 154.33 L 158.26 154.61 C 157.35 154.90 156.85 155.86 157.13 156.77 C 157.41 157.68 158.38 158.19 159.28 157.90 Z M 160.22 157.58 L 161.31 157.23 C 162.20 156.93 162.69 155.98 162.40 155.09 C 162.11 154.20 161.15 153.72 160.26 154.01 L 159.17 154.36 C 158.28 154.65 157.80 155.61 158.09 156.50 C 158.38 157.39 159.33 157.87 160.22 157.58 Z M 161.32 157.20 L 162.15 156.92 C 163.02 156.62 163.49 155.67 163.19 154.80 C 162.90 153.93 161.95 153.46 161.08 153.75 L 160.25 154.03 C 159.38 154.33 158.91 155.28 159.20 156.15 C 159.50 157.03 160.45 157.49 161.32 157.20 Z M 162.15 156.90 L 163.07 156.58 C 163.93 156.29 164.39 155.35 164.09 154.48 C 163.79 153.62 162.85 153.16 161.99 153.46 L 161.07 153.77 C 160.21 154.07 159.75 155.01 160.05 155.88 C 160.35 156.74 161.29 157.20 162.15 156.90 Z M 163.07 156.57 L 164.05 156.22 C 164.90 155.93 165.36 154.99 165.06 154.14 C 164.76 153.29 163.83 152.84 162.98 153.13 L 161.99 153.47 C 161.14 153.77 160.69 154.70 160.98 155.56 C 161.28 156.41 162.21 156.86 163.07 156.57 Z M 164.05 156.21 L 165.07 155.85 C 165.92 155.55 166.36 154.63 166.07 153.78 C 165.77 152.94 164.85 152.50 164.00 152.79 L 162.98 153.15 C 162.13 153.44 161.69 154.37 161.98 155.21 C 162.28 156.06 163.20 156.50 164.05 156.21 Z M 165.07 155.83 L 165.67 155.62 C 166.51 155.33 166.95 154.41 166.66 153.58 C 166.36 152.74 165.45 152.30 164.61 152.59 L 164.01 152.80 C 163.17 153.10 162.73 154.01 163.02 154.85 C 163.32 155.69 164.23 156.13 165.07 155.83 Z"
      fill="black"
      fill-rule="nonzero" /><path d="M 151.15 166.22 L 150.72 167.33 C 150.35 168.30 150.84 169.40 151.81 169.77 C 152.78 170.14 153.88 169.66 154.25 168.68 L 154.68 167.57 C 155.05 166.59 154.57 165.50 153.59 165.13 C 152.62 164.75 151.52 165.24 151.15 166.22 Z M 150.62 168.33 L 150.73 168.97 C 150.90 170.00 151.89 170.69 152.92 170.51 C 153.95 170.34 154.65 169.35 154.47 168.32 L 154.36 167.68 C 154.18 166.65 153.20 165.95 152.16 166.13 C 151.13 166.31 150.44 167.29 150.62 168.33 Z M 152.76 170.54 L 153.64 170.46 C 154.68 170.37 155.45 169.44 155.36 168.40 C 155.27 167.35 154.35 166.58 153.30 166.67 L 152.43 166.75 C 151.39 166.84 150.61 167.76 150.70 168.81 C 150.80 169.85 151.72 170.63 152.76 170.54 Z M 154.19 170.31 L 155.26 169.87 C 156.23 169.47 156.69 168.37 156.29 167.40 C 155.89 166.44 154.79 165.98 153.82 166.38 L 152.75 166.82 C 151.78 167.22 151.32 168.32 151.72 169.29 C 152.12 170.25 153.23 170.71 154.19 170.31 Z M 155.44 169.76 L 156.32 169.28 C 157.22 168.79 157.55 167.65 157.05 166.74 C 156.56 165.84 155.42 165.51 154.51 166.00 L 153.64 166.48 C 152.73 166.98 152.40 168.12 152.90 169.03 C 153.40 169.93 154.54 170.26 155.44 169.76 Z M 156.36 169.23 L 157.20 168.73 C 158.08 168.21 158.37 167.07 157.85 166.20 C 157.32 165.32 156.19 165.03 155.31 165.55 L 154.47 166.06 C 153.59 166.58 153.30 167.71 153.83 168.59 C 154.35 169.47 155.48 169.75 156.36 169.23 Z M 157.17 168.72 L 157.93 168.29 C 158.80 167.79 159.11 166.67 158.60 165.80 C 158.10 164.92 156.99 164.62 156.11 165.12 L 155.35 165.56 C 154.48 166.06 154.17 167.18 154.68 168.05 C 155.18 168.92 156.29 169.23 157.17 168.72 Z M 157.91 168.28 L 158.79 167.78 C 159.66 167.29 159.97 166.19 159.48 165.32 C 158.99 164.45 157.89 164.14 157.02 164.63 L 156.14 165.13 C 155.27 165.62 154.96 166.72 155.45 167.59 C 155.94 168.46 157.04 168.76 157.91 168.28 Z M 158.79 167.76 L 159.73 167.22 C 160.58 166.74 160.88 165.65 160.40 164.79 C 159.91 163.94 158.82 163.64 157.97 164.12 L 157.03 164.65 C 156.17 165.14 155.87 166.23 156.36 167.08 C 156.84 167.94 157.93 168.24 158.79 167.76 Z M 159.72 167.20 L 160.58 166.72 C 161.42 166.23 161.72 165.16 161.23 164.31 C 160.75 163.47 159.67 163.17 158.83 163.65 L 157.97 164.14 C 157.13 164.62 156.83 165.70 157.32 166.54 C 157.80 167.39 158.88 167.68 159.72 167.20 Z M 160.56 166.70 L 161.46 166.20 C 162.30 165.72 162.60 164.66 162.13 163.82 C 161.65 162.98 160.59 162.68 159.75 163.16 L 158.85 163.66 C 158.01 164.14 157.71 165.20 158.18 166.04 C 158.65 166.88 159.72 167.18 160.56 166.70 Z M 161.43 166.19 L 162.33 165.70 C 163.17 165.25 163.48 164.20 163.02 163.36 C 162.57 162.53 161.52 162.22 160.68 162.67 L 159.78 163.16 C 158.95 163.62 158.64 164.66 159.09 165.50 C 159.54 166.34 160.59 166.65 161.43 166.19 Z M 162.28 165.70 L 163.22 165.22 C 164.05 164.80 164.39 163.77 163.96 162.94 C 163.54 162.10 162.51 161.77 161.68 162.19 L 160.74 162.67 C 159.90 163.10 159.57 164.12 159.99 164.96 C 160.42 165.79 161.44 166.13 162.28 165.70 Z M 163.15 165.22 L 164.08 164.78 C 164.92 164.39 165.28 163.40 164.89 162.57 C 164.50 161.74 163.51 161.38 162.68 161.76 L 161.74 162.20 C 160.91 162.59 160.55 163.58 160.94 164.41 C 161.33 165.24 162.31 165.60 163.15 165.22 Z M 164.03 164.76 L 164.90 164.39 C 165.73 164.03 166.11 163.08 165.75 162.25 C 165.40 161.43 164.44 161.05 163.62 161.40 L 162.74 161.78 C 161.92 162.14 161.54 163.09 161.89 163.91 C 162.25 164.74 163.20 165.12 164.03 164.76 Z M 164.87 164.36 L 165.46 164.12 C 166.27 163.78 166.66 162.85 166.32 162.04 C 165.98 161.23 165.05 160.84 164.24 161.18 L 163.65 161.43 C 162.84 161.76 162.46 162.69 162.79 163.50 C 163.13 164.31 164.06 164.70 164.87 164.36 Z"
      fill="black"
      fill-rule="nonzero" /><path d="M 150.92 182.84 L 151.85 182.59 C 152.80 182.33 153.37 181.34 153.11 180.39 C 152.85 179.44 151.86 178.87 150.91 179.13 L 149.98 179.39 C 149.02 179.65 148.46 180.63 148.72 181.59 C 148.98 182.54 149.96 183.10 150.92 182.84 Z M 151.91 182.68 L 152.86 182.40 C 153.86 182.11 154.44 181.06 154.14 180.06 C 153.85 179.06 152.80 178.48 151.80 178.77 L 150.85 179.05 C 149.85 179.34 149.27 180.39 149.56 181.39 C 149.86 182.39 150.90 182.97 151.91 182.68 Z M 152.94 182.48 L 153.93 182.16 C 154.98 181.82 155.55 180.70 155.21 179.65 C 154.87 178.61 153.75 178.03 152.70 178.37 L 151.72 178.69 C 150.67 179.03 150.10 180.15 150.44 181.20 C 150.78 182.25 151.90 182.82 152.94 182.48 Z M 154.01 182.18 L 154.83 181.89 C 155.89 181.50 156.44 180.33 156.05 179.27 C 155.67 178.21 154.50 177.67 153.44 178.05 L 152.62 178.35 C 151.56 178.73 151.01 179.90 151.40 180.96 C 151.78 182.02 152.95 182.57 154.01 182.18 Z M 154.87 181.87 L 155.73 181.54 C 156.78 181.13 157.30 179.95 156.90 178.90 C 156.49 177.85 155.31 177.33 154.26 177.73 L 153.40 178.07 C 152.35 178.47 151.83 179.65 152.23 180.70 C 152.64 181.76 153.82 182.28 154.87 181.87 Z M 155.75 181.53 L 156.70 181.15 C 157.75 180.73 158.26 179.55 157.84 178.51 C 157.43 177.46 156.24 176.95 155.20 177.37 L 154.24 177.74 C 153.20 178.16 152.69 179.34 153.10 180.39 C 153.52 181.43 154.70 181.94 155.75 181.53 Z M 156.70 181.14 L 157.78 180.71 C 158.82 180.30 159.33 179.12 158.92 178.08 C 158.51 177.04 157.33 176.53 156.28 176.94 L 155.20 177.37 C 154.16 177.78 153.65 178.96 154.06 180.00 C 154.48 181.05 155.66 181.56 156.70 181.14 Z M 157.77 180.71 L 158.62 180.38 C 159.66 179.97 160.18 178.80 159.77 177.76 C 159.37 176.72 158.19 176.20 157.15 176.61 L 156.30 176.94 C 155.26 177.35 154.74 178.52 155.15 179.56 C 155.55 180.60 156.73 181.12 157.77 180.71 Z M 158.61 180.37 L 159.50 180.03 C 160.54 179.63 161.05 178.47 160.65 177.43 C 160.25 176.39 159.09 175.87 158.05 176.27 L 157.16 176.61 C 156.13 177.01 155.61 178.18 156.01 179.22 C 156.41 180.25 157.57 180.77 158.61 180.37 Z M 159.49 180.03 L 160.42 179.67 C 161.46 179.28 161.98 178.12 161.58 177.08 C 161.19 176.05 160.03 175.53 159.00 175.92 L 158.06 176.28 C 157.03 176.67 156.51 177.83 156.90 178.86 C 157.29 179.90 158.45 180.42 159.49 180.03 Z M 160.41 179.67 L 161.38 179.30 C 162.41 178.91 162.93 177.76 162.55 176.73 C 162.16 175.70 161.01 175.18 159.98 175.57 L 159.01 175.93 C 157.97 176.32 157.45 177.47 157.84 178.50 C 158.23 179.53 159.38 180.05 160.41 179.67 Z M 161.37 179.30 L 162.36 178.93 C 163.39 178.55 163.91 177.40 163.53 176.38 C 163.15 175.35 162.01 174.82 160.98 175.20 L 159.99 175.57 C 158.96 175.95 158.43 177.10 158.81 178.12 C 159.20 179.15 160.34 179.68 161.37 179.30 Z M 162.35 178.92 L 163.35 178.56 C 164.37 178.18 164.90 177.05 164.52 176.02 C 164.15 175.00 163.01 174.47 161.99 174.84 L 160.99 175.21 C 159.96 175.58 159.44 176.72 159.81 177.75 C 160.19 178.77 161.32 179.30 162.35 178.92 Z M 163.33 178.54 L 164.36 178.17 C 165.37 177.80 165.90 176.68 165.53 175.67 C 165.17 174.65 164.05 174.13 163.03 174.49 L 162.01 174.86 C 160.99 175.23 160.46 176.35 160.83 177.36 C 161.19 178.38 162.31 178.91 163.33 178.54 Z M 164.34 178.14 L 165.34 177.78 C 166.34 177.43 166.87 176.33 166.51 175.33 C 166.16 174.33 165.06 173.81 164.06 174.16 L 163.05 174.52 C 162.05 174.88 161.53 175.97 161.89 176.97 C 162.24 177.97 163.34 178.50 164.34 178.14 Z M 165.33 177.75 L 166.30 177.41 C 167.28 177.06 167.80 175.99 167.46 175.01 C 167.11 174.02 166.03 173.51 165.05 173.85 L 164.08 174.19 C 163.10 174.54 162.58 175.61 162.92 176.60 C 163.27 177.58 164.34 178.10 165.33 177.75 Z M 166.28 177.38 L 167.21 177.06 C 168.18 176.72 168.69 175.67 168.35 174.70 C 168.02 173.74 166.96 173.23 166.00 173.56 L 165.07 173.88 C 164.10 174.22 163.59 175.27 163.93 176.24 C 164.26 177.20 165.32 177.71 166.28 177.38 Z M 167.20 177.02 L 168.06 176.73 C 169.01 176.40 169.52 175.37 169.19 174.42 C 168.86 173.47 167.83 172.97 166.88 173.29 L 166.01 173.59 C 165.07 173.92 164.56 174.95 164.89 175.90 C 165.21 176.85 166.25 177.35 167.20 177.02 Z M 168.05 176.69 L 168.97 176.38 C 169.90 176.06 170.39 175.05 170.08 174.12 C 169.76 173.19 168.75 172.70 167.82 173.01 L 166.90 173.33 C 165.97 173.64 165.48 174.65 165.79 175.58 C 166.11 176.51 167.12 177.01 168.05 176.69 Z M 168.95 176.34 L 170.00 175.98 C 170.90 175.68 171.39 174.70 171.08 173.79 C 170.78 172.89 169.80 172.40 168.89 172.70 L 167.84 173.06 C 166.94 173.36 166.45 174.34 166.76 175.25 C 167.06 176.15 168.04 176.64 168.95 176.34 Z M 169.97 175.93 L 170.90 175.62 C 171.78 175.33 172.25 174.38 171.96 173.50 C 171.67 172.63 170.72 172.15 169.84 172.44 L 168.91 172.75 C 168.04 173.04 167.56 173.99 167.85 174.87 C 168.15 175.75 169.10 176.23 169.97 175.93 Z M 170.88 175.58 L 171.73 175.29 C 172.59 175.01 173.05 174.09 172.77 173.24 C 172.49 172.39 171.57 171.93 170.72 172.21 L 169.86 172.49 C 169.01 172.77 168.55 173.69 168.83 174.54 C 169.11 175.39 170.03 175.86 170.88 175.58 Z M 171.72 175.26 L 172.09 175.14 C 172.92 174.86 173.37 173.97 173.10 173.14 C 172.82 172.31 171.93 171.85 171.10 172.13 L 170.73 172.25 C 169.90 172.52 169.45 173.42 169.72 174.25 C 169.99 175.08 170.89 175.53 171.72 175.26 Z"
      fill="black"
      fill-rule="nonzero" /></svg>