<svg xmlns="http://www.w3.org/2000/svg" width="300" height="300" viewBox="0 0 300 300">
<path d="M 133.33 130.32 L 133.42 131.33 C 133.51 132.26 134.33 132.94 135.25 132.85 C 136.18 132.77 136.86 131.94 136.78 131.02 L 136.68 130.01 C 136.59 129.08 135.77 128.40 134.85 128.48 C 133.92 128.57 133.24 129.39 133.33 130.32 Z M 133.33 131.13 L 133.30 132.12 C 133.28 133.09 134.05 133.90 135.02 133.93 C 136.00 133.96 136.81 133.19 136.84 132.21 L 136.87 131.22 C 136.89 130.24 136.12 129.43 135.14 129.41 C 134.17 129.38 133.36 130.15 133.33 131.13 Z M 133.30 131.68 L 133.06 132.59 C 132.79 133.56 133.37 134.57 134.35 134.83 C 135.32 135.10 136.33 134.52 136.59 133.55 L 136.84 132.64 C 137.10 131.67 136.53 130.66 135.55 130.40 C 134.57 130.13 133.57 130.71 133.30 131.68 Z M 133.20 132.19 L 132.75 133.02 C 132.26 133.92 132.59 135.04 133.49 135.53 C 134.39 136.02 135.51 135.68 136.00 134.79 L 136.45 133.95 C 136.94 133.05 136.60 131.93 135.71 131.44 C 134.81 130.96 133.69 131.29 133.20 132.19 Z M 132.87 132.84 L 132.26 133.70 C 131.67 134.53 131.87 135.68 132.70 136.27 C 133.53 136.86 134.68 136.66 135.27 135.83 L 135.88 134.97 C 136.46 134.14 136.27 132.99 135.44 132.40 C 134.60 131.81 133.45 132.01 132.87 132.84 Z M 132.30 133.66 L 131.67 134.49 C 131.06 135.30 131.22 136.45 132.03 137.06 C 132.84 137.67 133.99 137.51 134.60 136.70 L 135.22 135.88 C 135.84 135.07 135.68 133.92 134.87 133.30 C 134.06 132.69 132.91 132.85 132.30 133.66 Z M 131.68 134.49 L 131.06 135.31 C 130.45 136.11 130.60 137.25 131.40 137.86 C 132.20 138.47 133.35 138.32 133.96 137.52 L 134.58 136.70 C 135.20 135.90 135.04 134.76 134.24 134.14 C 133.44 133.53 132.30 133.69 131.68 134.49 Z M 131.07 135.31 L 130.46 136.11 C 129.86 136.90 130.01 138.04 130.81 138.65 C 131.60 139.25 132.74 139.10 133.35 138.31 L 133.95 137.51 C 134.56 136.72 134.40 135.58 133.61 134.97 C 132.81 134.37 131.68 134.52 131.07 135.31 Z M 130.47 136.12 L 129.88 136.90 C 129.28 137.69 129.44 138.82 130.23 139.42 C 131.02 140.02 132.15 139.86 132.75 139.07 L 133.34 138.29 C 133.94 137.50 133.78 136.37 132.99 135.77 C 132.20 135.17 131.07 135.33 130.47 136.12 Z M 129.90 136.92 L 129.32 137.69 C 128.73 138.47 128.89 139.58 129.68 140.17 C 130.46 140.76 131.57 140.60 132.16 139.82 L 132.74 139.05 C 133.32 138.27 133.17 137.15 132.38 136.57 C 131.60 135.98 130.48 136.14 129.90 136.92 Z M 129.34 137.70 L 128.73 138.50 C 128.15 139.27 128.30 140.37 129.07 140.95 C 129.85 141.54 130.94 141.39 131.53 140.61 L 132.14 139.81 C 132.72 139.04 132.57 137.94 131.80 137.36 C 131.03 136.77 129.93 136.92 129.34 137.70 Z M 128.76 138.50 L 128.18 139.25 C 127.59 140.01 127.73 141.10 128.49 141.68 C 129.25 142.27 130.34 142.13 130.92 141.37 L 131.50 140.62 C 132.09 139.86 131.95 138.77 131.19 138.18 C 130.43 137.60 129.34 137.74 128.76 138.50 Z M 128.19 139.25 L 127.58 140.03 C 127.00 140.78 127.13 141.86 127.88 142.45 C 128.62 143.04 129.71 142.90 130.29 142.16 L 130.91 141.37 C 131.49 140.63 131.36 139.54 130.61 138.96 C 129.86 138.37 128.78 138.50 128.19 139.25 Z M 127.60 140.03 L 126.95 140.84 C 126.36 141.58 126.48 142.66 127.22 143.25 C 127.96 143.84 129.04 143.72 129.63 142.98 L 130.28 142.16 C 130.87 141.42 130.75 140.34 130.01 139.75 C 129.27 139.16 128.19 139.29 127.60 140.03 Z M 126.97 140.83 L 126.30 141.65 C 125.71 142.38 125.82 143.46 126.55 144.05 C 127.28 144.64 128.35 144.53 128.94 143.80 L 129.61 142.98 C 130.20 142.25 130.09 141.18 129.36 140.59 C 128.63 139.99 127.56 140.10 126.97 140.83 Z M 126.33 141.65 L 125.64 142.47 C 125.04 143.19 125.14 144.26 125.85 144.85 C 126.57 145.45 127.63 145.35 128.23 144.64 L 128.92 143.81 C 129.52 143.09 129.42 142.03 128.70 141.43 C 127.99 140.83 126.92 140.93 126.33 141.65 Z M 125.67 142.47 L 125.01 143.23 C 124.41 143.93 124.49 144.98 125.19 145.58 C 125.88 146.19 126.94 146.11 127.54 145.41 L 128.20 144.64 C 128.80 143.95 128.72 142.89 128.02 142.29 C 127.32 141.69 126.27 141.77 125.67 142.47 Z M 125.05 143.22 L 124.43 143.90 C 123.82 144.58 123.88 145.62 124.56 146.23 C 125.24 146.84 126.28 146.78 126.89 146.11 L 127.50 145.42 C 128.11 144.74 128.05 143.70 127.38 143.09 C 126.70 142.49 125.66 142.54 125.05 143.22 Z M 124.48 143.88 L 123.76 144.64 C 123.13 145.29 123.16 146.32 123.81 146.94 C 124.46 147.56 125.49 147.54 126.11 146.89 L 126.84 146.13 C 127.46 145.48 127.43 144.45 126.78 143.83 C 126.13 143.21 125.10 143.23 124.48 143.88 Z M 123.81 144.62 L 123.12 145.30 C 122.48 145.92 122.47 146.93 123.09 147.57 C 123.71 148.20 124.73 148.21 125.36 147.59 L 126.05 146.91 C 126.69 146.29 126.70 145.28 126.08 144.64 C 125.46 144.01 124.44 144.00 123.81 144.62 Z M 123.15 145.29 L 122.74 145.68 C 122.10 146.28 122.08 147.28 122.68 147.92 C 123.28 148.56 124.29 148.58 124.92 147.98 L 125.33 147.60 C 125.97 146.99 125.99 145.99 125.39 145.35 C 124.79 144.72 123.78 144.69 123.15 145.29 Z"
      fill="black"
      fill-rule="nonzero" /><path d="M 138.65 116.89 L 138.59 117.93 C 138.54 119.01 139.36 119.93 140.44 119.99 C 141.52 120.04 142.43 119.22 142.49 118.14 L 142.55 117.10 C 142.60 116.02 141.78 115.10 140.70 115.04 C 139.62 114.98 138.71 115.81 138.65 116.89 Z M 138.56 117.94 L 138.51 118.95 C 138.45 120.05 139.30 120.98 140.39 121.04 C 141.49 121.09 142.42 120.24 142.48 119.15 L 142.53 118.13 C 142.58 117.04 141.74 116.10 140.64 116.05 C 139.54 116.00 138.61 116.84 138.56 117.94 Z M 138.47 118.97 L 138.43 119.92 C 138.39 121.04 139.25 121.98 140.37 122.03 C 141.49 122.07 142.43 121.20 142.48 120.09 L 142.52 119.13 C 142.56 118.01 141.69 117.07 140.57 117.03 C 139.46 116.98 138.51 117.85 138.47 118.97 Z M 138.41 119.95 L 138.38 120.94 C 138.36 122.07 139.25 123.01 140.38 123.04 C 141.51 123.07 142.44 122.18 142.47 121.05 L 142.50 120.06 C 142.53 118.93 141.63 117.99 140.51 117.96 C 139.38 117.93 138.44 118.82 138.41 119.95 Z M 138.38 120.97 L 138.37 121.94 C 138.35 123.07 139.26 124.00 140.39 124.02 C 141.51 124.03 142.44 123.13 142.46 122.00 L 142.47 121.03 C 142.49 119.90 141.59 118.97 140.46 118.95 C 139.33 118.94 138.40 119.84 138.38 120.97 Z M 138.37 121.94 L 138.36 122.93 C 138.34 124.06 139.24 124.99 140.37 125.01 C 141.50 125.03 142.42 124.13 142.44 123.00 L 142.46 122.00 C 142.48 120.87 141.57 119.94 140.45 119.93 C 139.32 119.91 138.39 120.81 138.37 121.94 Z M 138.36 122.92 L 138.34 123.82 C 138.31 124.95 139.20 125.88 140.33 125.91 C 141.46 125.93 142.39 125.04 142.42 123.91 L 142.44 123.01 C 142.47 121.89 141.57 120.95 140.45 120.93 C 139.32 120.90 138.38 121.79 138.36 122.92 Z M 138.34 123.81 L 138.31 124.80 C 138.28 125.93 139.17 126.87 140.30 126.90 C 141.42 126.93 142.36 126.04 142.39 124.91 L 142.42 123.92 C 142.45 122.80 141.56 121.86 140.43 121.83 C 139.31 121.80 138.37 122.69 138.34 123.81 Z M 138.32 124.80 L 138.29 125.89 C 138.26 127.02 139.14 127.95 140.27 127.98 C 141.39 128.01 142.33 127.12 142.36 126.00 L 142.39 124.91 C 142.42 123.79 141.53 122.85 140.41 122.82 C 139.28 122.79 138.35 123.68 138.32 124.80 Z M 138.29 125.90 L 138.27 126.86 C 138.24 127.98 139.13 128.92 140.25 128.94 C 141.37 128.97 142.31 128.08 142.33 126.96 L 142.36 125.99 C 142.38 124.87 141.50 123.94 140.37 123.91 C 139.25 123.88 138.32 124.77 138.29 125.90 Z M 138.27 126.86 L 138.25 127.80 C 138.22 128.93 139.11 129.86 140.23 129.88 C 141.35 129.91 142.28 129.02 142.31 127.90 L 142.33 126.96 C 142.36 125.83 141.47 124.90 140.35 124.88 C 139.22 124.85 138.29 125.74 138.27 126.86 Z M 138.25 127.80 L 138.22 128.80 C 138.20 129.92 139.09 130.85 140.21 130.88 C 141.33 130.90 142.26 130.02 142.29 128.90 L 142.31 127.90 C 142.33 126.78 141.45 125.85 140.32 125.82 C 139.20 125.79 138.27 126.68 138.25 127.80 Z M 138.23 128.80 L 138.20 129.85 C 138.17 130.97 139.06 131.90 140.18 131.93 C 141.30 131.96 142.23 131.07 142.26 129.95 L 142.28 128.90 C 142.31 127.78 141.43 126.85 140.30 126.82 C 139.18 126.79 138.25 127.68 138.23 128.80 Z M 138.20 129.85 L 138.17 130.92 C 138.14 132.04 139.03 132.97 140.15 133.00 C 141.27 133.03 142.20 132.15 142.23 131.03 L 142.26 129.95 C 142.29 128.84 141.40 127.90 140.28 127.87 C 139.16 127.84 138.23 128.73 138.20 129.85 Z M 138.17 130.91 L 138.15 131.85 C 138.11 132.97 138.99 133.90 140.11 133.93 C 141.23 133.97 142.16 133.09 142.20 131.97 L 142.23 131.03 C 142.26 129.91 141.38 128.98 140.26 128.95 C 139.14 128.91 138.21 129.79 138.17 130.91 Z M 138.15 131.84 L 138.12 132.82 C 138.08 133.93 138.96 134.87 140.08 134.90 C 141.19 134.94 142.13 134.06 142.17 132.95 L 142.20 131.97 C 142.23 130.86 141.36 129.92 140.24 129.89 C 139.12 129.85 138.18 130.73 138.15 131.84 Z M 138.12 132.81 L 138.08 133.81 C 138.05 134.93 138.92 135.86 140.04 135.90 C 141.15 135.94 142.09 135.07 142.13 133.95 L 142.16 132.95 C 142.20 131.83 141.33 130.90 140.21 130.86 C 139.09 130.82 138.16 131.69 138.12 132.81 Z M 138.09 133.81 L 138.05 134.83 C 138.01 135.95 138.88 136.89 140.00 136.93 C 141.11 136.97 142.05 136.10 142.09 134.98 L 142.13 133.95 C 142.17 132.84 141.30 131.90 140.18 131.86 C 139.06 131.82 138.13 132.69 138.09 133.81 Z M 138.05 134.83 L 138.01 135.88 C 137.97 136.99 138.84 137.93 139.95 137.97 C 141.07 138.02 142.01 137.15 142.05 136.03 L 142.09 134.98 C 142.13 133.87 141.26 132.93 140.15 132.89 C 139.03 132.84 138.09 133.71 138.05 134.83 Z M 138.01 135.87 L 137.97 136.88 C 137.93 137.99 138.79 138.93 139.91 138.98 C 141.02 139.02 141.96 138.16 142.01 137.04 L 142.05 136.04 C 142.09 134.92 141.23 133.98 140.11 133.94 C 139.00 133.89 138.06 134.76 138.01 135.87 Z M 137.97 136.87 L 137.93 137.85 C 137.88 138.96 138.75 139.90 139.86 139.95 C 140.97 140.00 141.92 139.13 141.96 138.02 L 142.00 137.05 C 142.05 135.93 141.19 134.99 140.07 134.94 C 138.96 134.90 138.02 135.76 137.97 136.87 Z M 137.93 137.84 L 137.89 138.83 C 137.84 139.94 138.70 140.89 139.81 140.93 C 140.93 140.98 141.87 140.12 141.92 139.01 L 141.96 138.02 C 142.01 136.91 141.15 135.97 140.04 135.92 C 138.92 135.87 137.98 136.73 137.93 137.84 Z M 137.89 138.83 L 137.85 139.83 C 137.80 140.94 138.65 141.88 139.77 141.93 C 140.88 141.98 141.82 141.12 141.87 140.01 L 141.92 139.01 C 141.97 137.90 141.11 136.96 140.00 136.91 C 138.88 136.86 137.94 137.72 137.89 138.83 Z M 137.85 139.82 L 137.80 140.84 C 137.75 141.95 138.60 142.89 139.71 142.94 C 140.82 142.99 141.77 142.14 141.82 141.03 L 141.87 140.02 C 141.92 138.91 141.06 137.96 139.95 137.91 C 138.84 137.86 137.90 138.71 137.85 139.82 Z M 137.80 140.83 L 137.75 141.86 C 137.70 142.96 138.55 143.91 139.66 143.96 C 140.77 144.02 141.71 143.16 141.77 142.05 L 141.82 141.03 C 141.87 139.92 141.02 138.98 139.91 138.92 C 138.80 138.87 137.86 139.72 137.80 140.83 Z M 137.75 141.85 L 137.70 142.88 C 137.65 143.98 138.50 144.93 139.60 144.98 C 140.71 145.04 141.66 144.19 141.71 143.08 L 141.76 142.06 C 141.82 140.95 140.97 140.01 139.86 139.95 C 138.75 139.89 137.81 140.74 137.75 141.85 Z M 137.70 142.87 L 137.65 143.89 C 137.59 144.99 138.44 145.94 139.55 145.99 C 140.65 146.05 141.60 145.20 141.66 144.10 L 141.71 143.08 C 141.77 141.98 140.92 141.03 139.81 140.98 C 138.71 140.92 137.76 141.77 137.70 142.87 Z M 137.65 143.88 L 137.60 144.90 C 137.54 146.00 138.38 146.95 139.49 147.01 C 140.59 147.07 141.54 146.22 141.60 145.12 L 141.65 144.10 C 141.71 143.00 140.87 142.05 139.76 141.99 C 138.66 141.93 137.71 142.78 137.65 143.88 Z M 137.60 144.89 L 137.54 145.90 C 137.48 147.01 138.32 147.95 139.42 148.01 C 140.53 148.08 141.47 147.24 141.53 146.13 L 141.59 145.12 C 141.66 144.02 140.81 143.08 139.71 143.01 C 138.61 142.95 137.67 143.79 137.60 144.89 Z M 137.55 145.90 L 137.49 146.90 C 137.42 148.00 138.26 148.95 139.36 149.01 C 140.46 149.08 141.40 148.24 141.47 147.14 L 141.53 146.14 C 141.60 145.04 140.76 144.09 139.66 144.03 C 138.56 143.96 137.61 144.80 137.55 145.90 Z M 137.49 146.89 L 137.43 147.88 C 137.36 148.98 138.19 149.92 139.29 149.99 C 140.39 150.06 141.34 149.23 141.41 148.13 L 141.47 147.15 C 141.54 146.05 140.70 145.10 139.61 145.03 C 138.51 144.96 137.56 145.80 137.49 146.89 Z M 137.43 147.87 L 137.37 148.83 C 137.29 149.93 138.12 150.88 139.22 150.95 C 140.32 151.02 141.26 150.20 141.34 149.10 L 141.40 148.14 C 141.48 147.04 140.65 146.09 139.55 146.02 C 138.45 145.95 137.51 146.77 137.43 147.87 Z M 137.37 148.82 L 137.30 149.88 C 137.22 150.98 138.04 151.93 139.13 152.01 C 140.23 152.08 141.18 151.26 141.26 150.17 L 141.33 149.11 C 141.41 148.01 140.59 147.06 139.49 146.99 C 138.40 146.91 137.45 147.73 137.37 148.82 Z M 137.30 149.87 L 137.22 150.91 C 137.14 152.00 137.95 152.95 139.05 153.03 C 140.14 153.12 141.09 152.30 141.17 151.21 L 141.25 150.18 C 141.34 149.09 140.52 148.13 139.43 148.05 C 138.34 147.97 137.38 148.78 137.30 149.87 Z M 137.23 150.90 L 137.14 151.90 C 137.05 152.99 137.86 153.94 138.95 154.03 C 140.04 154.12 141.00 153.31 141.09 152.22 L 141.17 151.22 C 141.26 150.13 140.45 149.17 139.36 149.09 C 138.27 149.00 137.31 149.81 137.23 150.90 Z M 137.15 151.89 L 137.06 152.86 C 136.97 153.95 137.77 154.91 138.86 155.00 C 139.94 155.10 140.90 154.29 141.00 153.21 L 141.08 152.23 C 141.18 151.14 140.37 150.19 139.29 150.09 C 138.20 150.00 137.24 150.80 137.15 151.89 Z M 137.07 152.85 L 136.98 153.80 C 136.88 154.89 137.67 155.85 138.76 155.95 C 139.84 156.05 140.80 155.25 140.90 154.17 L 140.99 153.22 C 141.09 152.13 140.30 151.17 139.21 151.07 C 138.13 150.97 137.17 151.77 137.07 152.85 Z M 136.98 153.79 L 136.89 154.77 C 136.78 155.85 137.57 156.81 138.65 156.92 C 139.73 157.03 140.70 156.24 140.80 155.16 L 140.90 154.18 C 141.01 153.10 140.22 152.13 139.13 152.03 C 138.05 151.92 137.09 152.71 136.98 153.79 Z M 136.89 154.76 L 136.78 155.79 C 136.67 156.87 137.45 157.83 138.53 157.95 C 139.61 158.06 140.58 157.28 140.69 156.20 L 140.80 155.17 C 140.91 154.09 140.13 153.12 139.05 153.01 C 137.97 152.90 137.00 153.68 136.89 154.76 Z M 136.79 155.78 L 136.68 156.79 C 136.56 157.86 137.33 158.83 138.41 158.95 C 139.48 159.07 140.45 158.30 140.57 157.22 L 140.68 156.21 C 140.80 155.14 140.03 154.17 138.95 154.05 C 137.88 153.93 136.91 154.70 136.79 155.78 Z M 136.68 156.77 L 136.57 157.76 C 136.44 158.83 137.20 159.80 138.28 159.93 C 139.35 160.06 140.32 159.29 140.45 158.22 L 140.56 157.23 C 140.69 156.16 139.92 155.19 138.85 155.06 C 137.78 154.94 136.81 155.70 136.68 156.77 Z M 136.57 157.75 L 136.45 158.70 C 136.32 159.77 137.07 160.75 138.14 160.88 C 139.21 161.02 140.19 160.26 140.32 159.19 L 140.44 158.23 C 140.58 157.16 139.82 156.19 138.75 156.05 C 137.68 155.92 136.71 156.68 136.57 157.75 Z M 136.46 158.69 L 136.33 159.68 C 136.18 160.74 136.93 161.72 138.00 161.87 C 139.06 162.01 140.04 161.26 140.18 160.19 L 140.31 159.20 C 140.46 158.14 139.71 157.16 138.64 157.02 C 137.58 156.88 136.60 157.63 136.46 158.69 Z M 136.33 159.67 L 136.19 160.70 C 136.04 161.76 136.78 162.75 137.84 162.89 C 138.90 163.04 139.88 162.31 140.03 161.25 L 140.17 160.21 C 140.32 159.15 139.58 158.17 138.52 158.02 C 137.46 157.87 136.48 158.61 136.33 159.67 Z M 136.20 160.70 L 136.05 161.70 C 135.90 162.75 136.63 163.73 137.68 163.89 C 138.74 164.04 139.72 163.31 139.87 162.25 L 140.02 161.26 C 140.17 160.20 139.44 159.22 138.39 159.06 C 137.33 158.91 136.35 159.64 136.20 160.70 Z M 136.06 161.69 L 135.92 162.65 C 135.76 163.70 136.48 164.68 137.53 164.84 C 138.59 164.99 139.56 164.27 139.72 163.22 L 139.86 162.26 C 140.02 161.21 139.30 160.23 138.24 160.07 C 137.19 159.92 136.22 160.64 136.06 161.69 Z M 135.92 162.65 L 135.78 163.60 C 135.63 164.64 136.35 165.62 137.40 165.77 C 138.44 165.93 139.42 165.21 139.57 164.16 L 139.71 163.22 C 139.87 162.17 139.15 161.20 138.10 161.04 C 137.05 160.89 136.08 161.61 135.92 162.65 Z M 135.79 163.61 L 135.64 164.68 C 135.49 165.72 136.21 166.69 137.25 166.84 C 138.29 166.99 139.26 166.27 139.41 165.22 L 139.56 164.15 C 139.72 163.11 138.99 162.14 137.95 161.99 C 136.91 161.84 135.94 162.56 135.79 163.61 Z M 135.65 164.68 L 135.50 165.69 C 135.36 166.72 136.08 167.68 137.11 167.83 C 138.15 167.98 139.11 167.26 139.26 166.22 L 139.40 165.22 C 139.55 164.18 138.83 163.22 137.79 163.07 C 136.75 162.93 135.79 163.65 135.65 164.68 Z M 135.51 165.69 L 135.38 166.62 C 135.24 167.65 135.95 168.60 136.98 168.75 C 138.01 168.89 138.97 168.18 139.11 167.14 L 139.25 166.22 C 139.39 165.19 138.68 164.23 137.64 164.09 C 136.61 163.94 135.66 164.66 135.51 165.69 Z M 135.40 166.61 L 135.25 167.62 C 135.10 168.65 135.81 169.59 136.84 169.74 C 137.86 169.89 138.81 169.18 138.95 168.16 L 139.10 167.15 C 139.25 166.13 138.54 165.18 137.52 165.03 C 136.49 164.88 135.55 165.59 135.40 166.61 Z M 135.27 167.62 L 135.13 168.62 C 134.98 169.63 135.68 170.57 136.69 170.72 C 137.70 170.87 138.64 170.17 138.78 169.16 L 138.93 168.16 C 139.08 167.15 138.38 166.21 137.37 166.06 C 136.36 165.91 135.42 166.61 135.27 167.62 Z M 135.15 168.63 L 135.02 169.54 C 134.87 170.54 135.56 171.47 136.56 171.61 C 137.56 171.76 138.48 171.07 138.63 170.07 L 138.76 169.15 C 138.91 168.16 138.22 167.23 137.22 167.09 C 136.22 166.94 135.30 167.63 135.15 168.63 Z M 135.06 169.57 L 134.89 170.82 C 134.75 171.80 135.44 172.69 136.41 172.83 C 137.38 172.96 138.28 172.28 138.41 171.30 L 138.59 170.05 C 138.72 169.07 138.04 168.18 137.06 168.04 C 136.09 167.91 135.19 168.59 135.06 169.57 Z M 138.28 171.27 L 138.46 170.10 C 138.60 169.21 137.99 168.38 137.10 168.24 C 136.22 168.11 135.38 168.71 135.25 169.60 L 135.06 170.77 C 134.92 171.66 135.53 172.49 136.42 172.63 C 137.31 172.77 138.14 172.16 138.28 171.27 Z M 138.41 170.09 L 138.45 169.81 C 138.59 168.95 138.00 168.14 137.14 168.01 C 136.28 167.88 135.47 168.47 135.34 169.33 L 135.30 169.61 C 135.17 170.47 135.76 171.28 136.62 171.41 C 137.47 171.54 138.28 170.95 138.41 170.09 Z"
      fill="black"
      fill-rule="nonzero" /><path d="M 142.21 132.59 L 142.40 133.54 C 142.59 134.49 143.52 135.10 144.46 134.91 C 145.41 134.72 146.02 133.80 145.83 132.85 L 145.64 131.90 C 145.45 130.95 144.52 130.34 143.57 130.53 C 142.63 130.72 142.01 131.65 142.21 132.59 Z M 142.30 133.79 L 142.60 134.73 C 142.93 135.74 144.01 136.29 145.02 135.96 C 146.02 135.63 146.57 134.55 146.24 133.54 L 145.94 132.60 C 145.61 131.60 144.53 131.05 143.52 131.38 C 142.52 131.71 141.97 132.79 142.30 133.79 Z M 142.64 135.15 L 143.13 136.00 C 143.69 136.99 144.94 137.33 145.92 136.77 C 146.91 136.21 147.25 134.96 146.69 133.98 L 146.20 133.12 C 145.64 132.14 144.39 131.80 143.41 132.36 C 142.43 132.92 142.08 134.17 142.64 135.15 Z M 143.31 136.35 L 143.90 137.04 C 144.65 137.92 145.97 138.03 146.86 137.28 C 147.74 136.53 147.84 135.21 147.10 134.33 L 146.51 133.63 C 145.76 132.75 144.43 132.64 143.55 133.39 C 142.67 134.14 142.56 135.47 143.31 136.35 Z M 144.08 137.21 L 144.83 137.90 C 145.67 138.68 146.99 138.63 147.77 137.78 C 148.55 136.93 148.50 135.61 147.65 134.83 L 146.91 134.15 C 146.07 133.37 144.75 133.42 143.97 134.27 C 143.19 135.12 143.24 136.43 144.08 137.21 Z M 144.97 138.00 L 145.84 138.68 C 146.74 139.38 148.04 139.22 148.75 138.32 C 149.45 137.41 149.29 136.11 148.38 135.41 L 147.51 134.73 C 146.61 134.03 145.31 134.19 144.60 135.09 C 143.90 136.00 144.06 137.30 144.97 138.00 Z M 145.95 138.72 L 146.79 139.31 C 147.72 139.95 148.99 139.72 149.63 138.79 C 150.27 137.87 150.04 136.60 149.12 135.95 L 148.27 135.37 C 147.35 134.72 146.08 134.95 145.43 135.88 C 144.79 136.81 145.02 138.08 145.95 138.72 Z M 146.89 139.30 L 147.76 139.86 C 148.68 140.45 149.91 140.17 150.50 139.25 C 151.08 138.33 150.81 137.10 149.89 136.51 L 149.02 135.96 C 148.10 135.37 146.87 135.64 146.28 136.56 C 145.69 137.49 145.96 138.71 146.89 139.30 Z M 147.84 139.84 L 148.72 140.36 C 149.64 140.90 150.82 140.60 151.36 139.68 C 151.90 138.77 151.59 137.59 150.68 137.05 L 149.80 136.53 C 148.89 135.99 147.71 136.29 147.17 137.20 C 146.63 138.12 146.93 139.30 147.84 139.84 Z M 148.81 140.34 L 149.66 140.80 C 150.56 141.30 151.69 140.97 152.19 140.06 C 152.68 139.16 152.35 138.03 151.45 137.54 L 150.60 137.07 C 149.69 136.57 148.56 136.91 148.07 137.81 C 147.57 138.71 147.90 139.84 148.81 140.34 Z M 149.76 140.78 L 150.70 141.25 C 151.59 141.69 152.67 141.33 153.11 140.44 C 153.55 139.55 153.19 138.47 152.30 138.03 L 151.35 137.56 C 150.46 137.12 149.39 137.48 148.94 138.37 C 148.50 139.26 148.87 140.34 149.76 140.78 Z M 150.81 141.22 L 151.74 141.63 C 152.61 142.01 153.63 141.61 154.01 140.75 C 154.39 139.88 154.00 138.86 153.13 138.48 L 152.20 138.06 C 151.33 137.68 150.31 138.08 149.93 138.95 C 149.54 139.82 149.94 140.83 150.81 141.22 Z M 151.82 141.58 L 152.70 141.93 C 153.54 142.26 154.50 141.85 154.84 141.01 C 155.17 140.17 154.76 139.21 153.92 138.88 L 153.04 138.52 C 152.20 138.19 151.24 138.60 150.91 139.44 C 150.57 140.28 150.98 141.24 151.82 141.58 Z M 152.74 141.88 L 153.20 142.06 C 154.02 142.37 154.94 141.96 155.25 141.15 C 155.56 140.33 155.16 139.41 154.34 139.10 L 153.88 138.92 C 153.06 138.61 152.15 139.02 151.83 139.83 C 151.52 140.65 151.93 141.56 152.74 141.88 Z"
      fill="black"
      fill-rule="nonzero" /><path d="M 161.14 114.81 L 161.14 115.78 C 161.14 116.73 161.92 117.51 162.87 117.51 C 163.82 117.51 164.60 116.73 164.60 115.78 L 164.60 114.81 C 164.60 113.85 163.82 113.08 162.87 113.08 C 161.92 113.08 161.14 113.85 161.14 114.81 Z M 161.12 115.78 L 161.12 116.76 C 161.12 117.73 161.91 118.51 162.87 118.51 C 163.83 118.51 164.61 117.73 164.61 116.76 L 164.61 115.78 C 164.61 114.82 163.83 114.03 162.87 114.03 C 161.91 114.03 161.12 114.82 161.12 115.78 Z M 161.11 116.76 L 161.11 117.77 C 161.11 118.75 161.90 119.54 162.87 119.54 C 163.84 119.54 164.63 118.75 164.63 117.77 L 164.63 116.76 C 164.63 115.79 163.84 115.00 162.87 115.00 C 161.90 115.00 161.11 115.79 161.11 116.76 Z M 161.09 117.77 L 161.09 118.80 C 161.09 119.79 161.89 120.58 162.87 120.58 C 163.85 120.58 164.65 119.79 164.65 118.80 L 164.65 117.77 C 164.65 116.79 163.85 115.99 162.87 115.99 C 161.89 115.99 161.09 116.79 161.09 117.77 Z M 161.08 118.80 L 161.08 119.81 C 161.08 120.80 161.88 121.60 162.87 121.60 C 163.85 121.60 164.65 120.80 164.65 119.82 L 164.65 118.81 C 164.66 117.82 163.86 117.02 162.87 117.02 C 161.89 117.02 161.09 117.82 161.08 118.80 Z M 161.08 119.80 L 161.08 120.82 C 161.07 121.80 161.86 122.61 162.85 122.62 C 163.83 122.62 164.64 121.83 164.64 120.85 L 164.65 119.83 C 164.66 118.84 163.87 118.04 162.88 118.03 C 161.90 118.02 161.09 118.81 161.08 119.80 Z M 161.08 120.80 L 161.06 121.80 C 161.04 122.78 161.82 123.60 162.80 123.62 C 163.79 123.64 164.60 122.85 164.62 121.87 L 164.64 120.87 C 164.66 119.88 163.88 119.07 162.90 119.05 C 161.91 119.03 161.10 119.81 161.08 120.80 Z M 161.06 121.76 L 161.02 122.75 C 160.98 123.73 161.75 124.56 162.73 124.60 C 163.71 124.64 164.54 123.87 164.58 122.89 L 164.62 121.91 C 164.66 120.92 163.89 120.09 162.91 120.06 C 161.93 120.02 161.10 120.78 161.06 121.76 Z M 161.04 122.70 L 160.96 123.78 C 160.90 124.75 161.63 125.60 162.60 125.66 C 163.58 125.73 164.42 125.00 164.49 124.02 L 164.56 122.94 C 164.63 121.97 163.90 121.12 162.92 121.06 C 161.95 120.99 161.10 121.72 161.04 122.70 Z M 160.99 123.73 L 160.89 124.72 C 160.79 125.68 161.49 126.54 162.45 126.63 C 163.41 126.73 164.27 126.03 164.36 125.07 L 164.46 124.07 C 164.56 123.11 163.86 122.26 162.90 122.16 C 161.94 122.07 161.08 122.77 160.99 123.73 Z M 160.92 124.68 L 160.80 125.60 C 160.68 126.54 161.35 127.41 162.29 127.53 C 163.23 127.65 164.10 126.98 164.22 126.04 L 164.34 125.12 C 164.46 124.17 163.79 123.31 162.84 123.19 C 161.90 123.07 161.04 123.74 160.92 124.68 Z M 160.84 125.56 L 160.68 126.56 C 160.54 127.49 161.18 128.35 162.10 128.49 C 163.02 128.63 163.89 128.00 164.03 127.08 L 164.18 126.07 C 164.32 125.15 163.69 124.29 162.77 124.15 C 161.84 124.00 160.98 124.64 160.84 125.56 Z M 160.73 126.53 L 160.56 127.52 C 160.40 128.42 161.00 129.27 161.90 129.43 C 162.80 129.59 163.66 128.99 163.81 128.09 L 163.98 127.10 C 164.14 126.21 163.54 125.35 162.64 125.19 C 161.74 125.03 160.88 125.64 160.73 126.53 Z M 160.60 127.50 L 160.43 128.42 C 160.26 129.30 160.84 130.14 161.71 130.30 C 162.59 130.47 163.43 129.89 163.60 129.02 L 163.77 128.10 C 163.93 127.22 163.36 126.38 162.48 126.22 C 161.61 126.05 160.76 126.63 160.60 127.50 Z"
      fill="black"
      fill-rule="nonzero" /><path d="M 153.18 123.23 L 154.19 123.02 C 155.13 122.82 155.74 121.90 155.54 120.95 C 155.34 120.01 154.42 119.40 153.47 119.60 L 152.47 119.81 C 151.52 120.00 150.91 120.93 151.11 121.88 C 151.31 122.82 152.24 123.43 153.18 123.23 Z M 153.88 123.14 L 154.86 123.12 C 155.87 123.09 156.67 122.24 156.64 121.23 C 156.61 120.21 155.77 119.42 154.75 119.45 L 153.78 119.47 C 152.76 119.50 151.97 120.35 152.00 121.36 C 152.02 122.38 152.87 123.17 153.88 123.14 Z M 154.20 123.06 L 155.09 123.36 C 156.07 123.69 157.14 123.16 157.47 122.18 C 157.80 121.19 157.27 120.13 156.29 119.79 L 155.41 119.50 C 154.42 119.16 153.35 119.69 153.02 120.68 C 152.69 121.66 153.22 122.73 154.20 123.06 Z M 154.65 123.12 L 155.47 123.68 C 156.33 124.25 157.49 124.03 158.06 123.17 C 158.63 122.32 158.41 121.16 157.55 120.58 L 156.73 120.03 C 155.87 119.46 154.71 119.68 154.14 120.54 C 153.57 121.39 153.79 122.55 154.65 123.12 Z M 155.40 123.57 L 156.22 124.21 C 157.02 124.83 158.16 124.68 158.78 123.89 C 159.39 123.09 159.25 121.95 158.46 121.33 L 157.63 120.69 C 156.83 120.08 155.69 120.22 155.07 121.02 C 154.46 121.81 154.60 122.95 155.40 123.57 Z M 156.32 124.21 L 157.14 124.78 C 157.93 125.34 159.03 125.16 159.59 124.36 C 160.15 123.57 159.96 122.48 159.17 121.92 L 158.35 121.34 C 157.56 120.78 156.47 120.97 155.91 121.76 C 155.35 122.55 155.53 123.64 156.32 124.21 Z M 157.24 124.75 L 158.08 125.29 C 158.85 125.80 159.88 125.58 160.39 124.81 C 160.89 124.04 160.68 123.01 159.90 122.50 L 159.07 121.95 C 158.30 121.45 157.26 121.67 156.76 122.44 C 156.25 123.21 156.47 124.24 157.24 124.75 Z M 158.13 125.25 L 158.60 125.55 C 159.34 126.02 160.33 125.80 160.81 125.05 C 161.28 124.31 161.06 123.32 160.32 122.84 L 159.85 122.55 C 159.10 122.07 158.11 122.29 157.64 123.04 C 157.16 123.78 157.38 124.77 158.13 125.25 Z"
      fill="black"
      fill-rule="nonzero" /><path d="M 171.97 113.56 L 171.57 114.39 C 171.14 115.27 171.51 116.34 172.39 116.77 C 173.28 117.20 174.35 116.83 174.78 115.95 L 175.18 115.12 C 175.61 114.24 175.24 113.17 174.36 112.74 C 173.47 112.31 172.40 112.68 171.97 113.56 Z M 171.56 114.35 L 171.12 115.22 C 170.67 116.11 171.03 117.20 171.92 117.65 C 172.81 118.10 173.90 117.74 174.35 116.85 L 174.79 115.98 C 175.24 115.09 174.88 114.00 173.99 113.55 C 173.10 113.10 172.01 113.46 171.56 114.35 Z M 171.12 115.17 L 170.61 116.13 C 170.13 117.02 170.46 118.13 171.35 118.61 C 172.25 119.09 173.36 118.75 173.83 117.86 L 174.35 116.90 C 174.83 116.01 174.49 114.90 173.60 114.42 C 172.71 113.95 171.60 114.28 171.12 115.17 Z M 170.62 116.08 L 170.13 116.95 C 169.62 117.83 169.93 118.96 170.82 119.46 C 171.70 119.97 172.83 119.66 173.33 118.77 L 173.82 117.91 C 174.32 117.02 174.02 115.90 173.13 115.39 C 172.25 114.89 171.12 115.20 170.62 116.08 Z M 170.15 116.92 L 169.62 117.81 C 169.10 118.68 169.39 119.81 170.26 120.32 C 171.14 120.84 172.27 120.56 172.78 119.68 L 173.31 118.80 C 173.83 117.93 173.54 116.80 172.67 116.28 C 171.79 115.76 170.67 116.05 170.15 116.92 Z M 169.64 117.78 L 169.10 118.66 C 168.57 119.52 168.84 120.65 169.70 121.18 C 170.56 121.71 171.69 121.44 172.22 120.58 L 172.76 119.71 C 173.29 118.84 173.03 117.71 172.16 117.18 C 171.30 116.65 170.17 116.92 169.64 117.78 Z M 169.12 118.63 L 168.60 119.45 C 168.06 120.30 168.30 121.43 169.15 121.98 C 170.00 122.52 171.13 122.27 171.68 121.42 L 172.20 120.61 C 172.75 119.76 172.50 118.63 171.65 118.08 C 170.80 117.54 169.67 117.78 169.12 118.63 Z M 168.64 119.43 L 168.02 120.36 C 167.46 121.18 167.68 122.30 168.50 122.86 C 169.33 123.42 170.45 123.20 171.01 122.38 L 171.63 121.45 C 172.19 120.62 171.98 119.50 171.15 118.94 C 170.32 118.39 169.20 118.60 168.64 119.43 Z M 168.08 120.33 L 167.50 121.13 C 166.93 121.92 167.11 123.02 167.89 123.59 C 168.68 124.17 169.79 123.99 170.36 123.20 L 170.94 122.40 C 171.51 121.62 171.34 120.51 170.55 119.94 C 169.76 119.37 168.66 119.54 168.08 120.33 Z M 167.57 121.10 L 167.02 121.81 C 166.44 122.56 166.57 123.64 167.32 124.23 C 168.07 124.81 169.15 124.68 169.74 123.93 L 170.29 123.23 C 170.87 122.48 170.74 121.39 169.99 120.81 C 169.24 120.22 168.16 120.35 167.57 121.10 Z M 167.09 121.79 L 166.47 122.53 C 165.87 123.24 165.96 124.30 166.67 124.90 C 167.38 125.50 168.45 125.41 169.05 124.69 L 169.67 123.95 C 170.27 123.24 170.18 122.18 169.46 121.58 C 168.75 120.98 167.69 121.07 167.09 121.79 Z M 166.55 122.50 L 165.88 123.22 C 165.26 123.89 165.30 124.93 165.97 125.55 C 166.64 126.16 167.68 126.12 168.29 125.45 L 168.97 124.73 C 169.58 124.06 169.54 123.02 168.87 122.40 C 168.20 121.79 167.16 121.83 166.55 122.50 Z M 165.95 123.19 L 165.24 123.90 C 164.60 124.53 164.60 125.55 165.22 126.18 C 165.85 126.81 166.87 126.82 167.50 126.19 L 168.22 125.49 C 168.85 124.86 168.86 123.84 168.23 123.21 C 167.61 122.57 166.59 122.57 165.95 123.19 Z M 165.29 123.88 L 164.58 124.54 C 163.93 125.13 163.89 126.14 164.49 126.78 C 165.08 127.43 166.09 127.47 166.73 126.87 L 167.45 126.22 C 168.09 125.62 168.13 124.61 167.54 123.97 C 166.94 123.32 165.94 123.28 165.29 123.88 Z M 164.61 124.53 L 163.84 125.21 C 163.19 125.79 163.13 126.78 163.71 127.43 C 164.29 128.09 165.29 128.14 165.94 127.56 L 166.70 126.88 C 167.36 126.30 167.41 125.31 166.83 124.66 C 166.25 124.01 165.26 123.95 164.61 124.53 Z M 163.86 125.21 L 163.25 125.74 C 162.60 126.31 162.53 127.30 163.10 127.95 C 163.67 128.60 164.66 128.67 165.32 128.10 L 165.93 127.56 C 166.58 126.99 166.64 126.00 166.07 125.35 C 165.50 124.70 164.51 124.64 163.86 125.21 Z"
      fill="black"
      fill-rule="nonzero" /><path d="M 154.86 132.32 L 155.03 133.37 C 155.19 134.29 156.06 134.91 156.99 134.75 C 157.91 134.59 158.53 133.72 158.37 132.80 L 158.19 131.75 C 158.04 130.83 157.16 130.21 156.24 130.37 C 155.32 130.53 154.70 131.40 154.86 132.32 Z M 154.97 133.35 L 155.13 134.36 C 155.29 135.32 156.18 135.97 157.14 135.81 C 158.09 135.66 158.74 134.77 158.59 133.81 L 158.43 132.81 C 158.28 131.85 157.38 131.20 156.43 131.35 C 155.47 131.51 154.82 132.40 154.97 133.35 Z M 155.07 134.32 L 155.20 135.26 C 155.33 136.25 156.23 136.94 157.22 136.81 C 158.21 136.68 158.90 135.77 158.77 134.79 L 158.65 133.85 C 158.52 132.86 157.61 132.17 156.63 132.30 C 155.64 132.43 154.94 133.34 155.07 134.32 Z M 155.15 135.17 L 155.24 136.20 C 155.32 137.21 156.21 137.96 157.22 137.88 C 158.23 137.80 158.98 136.91 158.90 135.90 L 158.82 134.87 C 158.73 133.86 157.85 133.11 156.84 133.19 C 155.82 133.27 155.07 134.16 155.15 135.17 Z M 155.23 136.10 L 155.25 137.07 C 155.28 138.08 156.13 138.89 157.14 138.86 C 158.16 138.83 158.96 137.99 158.94 136.97 L 158.91 136.00 C 158.88 134.98 158.04 134.18 157.02 134.21 C 156.00 134.23 155.20 135.08 155.23 136.10 Z M 155.25 137.02 L 155.25 137.97 C 155.26 138.99 156.08 139.81 157.10 139.81 C 158.12 139.81 158.94 138.98 158.94 137.97 L 158.94 137.02 C 158.94 136.00 158.11 135.18 157.09 135.18 C 156.07 135.18 155.25 136.00 155.25 137.02 Z M 155.25 137.97 L 155.25 138.94 C 155.25 139.95 156.07 140.78 157.09 140.78 C 158.11 140.79 158.93 139.96 158.94 138.95 L 158.94 137.98 C 158.94 136.96 158.12 136.13 157.10 136.13 C 156.08 136.13 155.26 136.95 155.25 137.97 Z M 155.25 138.92 L 155.24 139.96 C 155.23 140.98 156.05 141.81 157.06 141.82 C 158.08 141.83 158.92 141.01 158.93 140.00 L 158.94 138.96 C 158.95 137.94 158.13 137.11 157.11 137.10 C 156.09 137.09 155.26 137.90 155.25 138.92 Z M 155.24 139.94 L 155.22 140.93 C 155.20 141.95 156.01 142.79 157.02 142.81 C 158.04 142.83 158.88 142.03 158.90 141.01 L 158.93 140.02 C 158.95 139.00 158.14 138.16 157.12 138.14 C 156.11 138.11 155.26 138.92 155.24 139.94 Z M 155.22 140.90 L 155.18 141.89 C 155.14 142.91 155.94 143.76 156.95 143.80 C 157.97 143.84 158.82 143.05 158.86 142.03 L 158.90 141.04 C 158.94 140.02 158.15 139.17 157.13 139.13 C 156.12 139.09 155.26 139.88 155.22 140.90 Z M 155.19 141.84 L 155.12 142.87 C 155.06 143.88 155.83 144.76 156.84 144.82 C 157.86 144.89 158.73 144.11 158.80 143.10 L 158.86 142.08 C 158.93 141.06 158.16 140.19 157.14 140.12 C 156.13 140.06 155.25 140.83 155.19 141.84 Z M 155.13 142.81 L 155.03 143.81 C 154.93 144.82 155.68 145.72 156.69 145.82 C 157.70 145.91 158.60 145.17 158.70 144.16 L 158.79 143.16 C 158.89 142.14 158.15 141.25 157.13 141.15 C 156.12 141.05 155.22 141.80 155.13 142.81 Z M 155.04 143.76 L 154.91 144.75 C 154.79 145.76 155.51 146.68 156.51 146.80 C 157.52 146.93 158.44 146.21 158.57 145.20 L 158.69 144.21 C 158.82 143.20 158.10 142.28 157.09 142.16 C 156.08 142.03 155.16 142.75 155.04 143.76 Z M 154.92 144.71 L 154.77 145.70 C 154.63 146.71 155.33 147.64 156.33 147.79 C 157.34 147.94 158.27 147.24 158.42 146.23 L 158.56 145.24 C 158.71 144.23 158.01 143.30 157.00 143.15 C 156.00 143.01 155.06 143.70 154.92 144.71 Z M 154.78 145.68 L 154.62 146.67 C 154.46 147.68 155.14 148.62 156.15 148.78 C 157.15 148.94 158.10 148.26 158.26 147.25 L 158.41 146.26 C 158.57 145.25 157.89 144.31 156.89 144.15 C 155.88 143.99 154.94 144.67 154.78 145.68 Z M 154.62 146.65 L 154.46 147.64 C 154.29 148.64 154.96 149.59 155.96 149.77 C 156.96 149.94 157.91 149.26 158.08 148.26 L 158.25 147.27 C 158.42 146.27 157.75 145.32 156.75 145.15 C 155.75 144.98 154.79 145.65 154.62 146.65 Z M 154.46 147.62 L 154.28 148.61 C 154.10 149.61 154.76 150.56 155.76 150.74 C 156.76 150.93 157.72 150.26 157.90 149.26 L 158.08 148.28 C 158.26 147.28 157.60 146.32 156.60 146.14 C 155.60 145.96 154.64 146.63 154.46 147.62 Z M 154.29 148.59 L 154.10 149.57 C 153.91 150.57 154.56 151.53 155.56 151.72 C 156.56 151.91 157.52 151.26 157.71 150.26 L 157.90 149.28 C 158.09 148.28 157.43 147.32 156.44 147.13 C 155.44 146.94 154.48 147.59 154.29 148.59 Z M 154.10 149.55 L 153.90 150.53 C 153.70 151.53 154.34 152.50 155.34 152.70 C 156.33 152.90 157.30 152.26 157.50 151.26 L 157.70 150.28 C 157.91 149.29 157.26 148.32 156.27 148.11 C 155.28 147.91 154.31 148.55 154.10 149.55 Z M 153.91 150.51 L 153.70 151.48 C 153.48 152.47 154.11 153.45 155.10 153.67 C 156.09 153.88 157.07 153.26 157.28 152.27 L 157.50 151.29 C 157.71 150.30 157.09 149.32 156.09 149.11 C 155.10 148.89 154.13 149.52 153.91 150.51 Z M 153.71 151.45 L 153.48 152.42 C 153.24 153.41 153.85 154.40 154.84 154.63 C 155.83 154.86 156.81 154.25 157.05 153.26 L 157.28 152.30 C 157.51 151.31 156.90 150.32 155.91 150.09 C 154.93 149.86 153.94 150.47 153.71 151.45 Z M 153.49 152.39 L 153.24 153.36 C 152.98 154.34 153.57 155.34 154.56 155.59 C 155.54 155.84 156.54 155.25 156.79 154.27 L 157.04 153.30 C 157.29 152.32 156.70 151.32 155.72 151.07 C 154.74 150.81 153.74 151.41 153.49 152.39 Z M 153.25 153.33 L 152.98 154.29 C 152.71 155.27 153.28 156.28 154.26 156.55 C 155.23 156.82 156.24 156.25 156.51 155.27 L 156.78 154.30 C 157.05 153.33 156.48 152.32 155.50 152.05 C 154.53 151.78 153.52 152.35 153.25 153.33 Z M 152.99 154.27 L 152.71 155.22 C 152.42 156.19 152.98 157.21 153.95 157.49 C 154.92 157.78 155.94 157.22 156.22 156.25 L 156.50 155.30 C 156.79 154.32 156.23 153.31 155.26 153.02 C 154.29 152.74 153.27 153.29 152.99 154.27 Z M 152.71 155.20 L 152.42 156.15 C 152.12 157.12 152.67 158.14 153.63 158.44 C 154.60 158.73 155.63 158.19 155.92 157.22 L 156.22 156.27 C 156.51 155.31 155.97 154.28 155.00 153.99 C 154.04 153.69 153.01 154.23 152.71 155.20 Z M 152.43 156.12 L 152.12 157.07 C 151.81 158.03 152.34 159.06 153.30 159.38 C 154.26 159.69 155.30 159.16 155.61 158.20 L 155.91 157.25 C 156.23 156.29 155.70 155.26 154.74 154.94 C 153.78 154.63 152.74 155.16 152.43 156.12 Z M 152.14 157.04 L 151.81 157.98 C 151.48 158.94 151.98 159.98 152.94 160.31 C 153.89 160.64 154.94 160.14 155.27 159.18 L 155.60 158.23 C 155.93 157.28 155.42 156.23 154.46 155.90 C 153.51 155.57 152.47 156.08 152.14 157.04 Z M 151.82 157.95 L 151.47 158.90 C 151.12 159.85 151.60 160.90 152.55 161.25 C 153.50 161.60 154.55 161.12 154.90 160.17 L 155.25 159.22 C 155.60 158.27 155.12 157.22 154.17 156.87 C 153.23 156.52 152.17 157.00 151.82 157.95 Z M 151.48 158.87 L 151.11 159.82 C 150.74 160.76 151.21 161.82 152.14 162.19 C 153.08 162.55 154.14 162.09 154.51 161.15 L 154.88 160.21 C 155.25 159.27 154.79 158.21 153.85 157.84 C 152.91 157.47 151.85 157.93 151.48 158.87 Z M 151.12 159.79 L 150.75 160.71 C 150.37 161.64 150.81 162.71 151.75 163.09 C 152.68 163.47 153.74 163.02 154.13 162.09 L 154.50 161.18 C 154.88 160.24 154.43 159.18 153.50 158.80 C 152.57 158.42 151.50 158.86 151.12 159.79 Z M 150.76 160.69 L 150.38 161.58 C 149.99 162.51 150.43 163.58 151.35 163.97 C 152.28 164.36 153.35 163.92 153.74 163.00 L 154.12 162.11 C 154.51 161.18 154.07 160.11 153.15 159.72 C 152.22 159.33 151.15 159.77 150.76 160.69 Z M 150.40 161.55 L 150.01 162.43 C 149.60 163.34 150.01 164.42 150.93 164.83 C 151.85 165.24 152.92 164.82 153.33 163.91 L 153.72 163.03 C 154.13 162.11 153.72 161.04 152.80 160.63 C 151.89 160.22 150.81 160.63 150.40 161.55 Z M 150.04 162.37 L 149.59 163.28 C 149.16 164.18 149.53 165.27 150.43 165.71 C 151.33 166.15 152.42 165.78 152.86 164.88 L 153.30 163.96 C 153.74 163.06 153.37 161.98 152.47 161.54 C 151.57 161.10 150.48 161.47 150.04 162.37 Z M 149.63 163.23 L 149.15 164.13 C 148.68 165.01 149.01 166.10 149.89 166.58 C 150.77 167.05 151.87 166.72 152.34 165.84 L 152.82 164.93 C 153.29 164.05 152.96 162.96 152.08 162.49 C 151.20 162.01 150.10 162.34 149.63 163.23 Z M 149.19 164.07 L 148.67 164.96 C 148.16 165.82 148.45 166.92 149.31 167.43 C 150.17 167.93 151.28 167.64 151.78 166.78 L 152.30 165.89 C 152.80 165.03 152.51 163.93 151.65 163.43 C 150.79 162.92 149.69 163.21 149.19 164.07 Z M 148.72 164.89 L 148.16 165.75 C 147.62 166.59 147.86 167.70 148.69 168.24 C 149.52 168.78 150.63 168.54 151.17 167.71 L 151.73 166.85 C 152.27 166.02 152.03 164.90 151.20 164.36 C 150.37 163.82 149.26 164.06 148.72 164.89 Z M 148.24 165.66 L 147.63 166.46 C 147.04 167.25 147.19 168.37 147.98 168.96 C 148.77 169.56 149.89 169.40 150.48 168.61 L 151.09 167.81 C 151.69 167.02 151.53 165.90 150.74 165.30 C 149.95 164.71 148.83 164.87 148.24 165.66 Z M 147.86 166.25 L 146.98 167.07 C 146.26 167.73 146.22 168.84 146.89 169.55 C 147.55 170.27 148.66 170.31 149.37 169.65 L 150.25 168.83 C 150.97 168.16 151.01 167.05 150.35 166.34 C 149.68 165.63 148.57 165.59 147.86 166.25 Z M 148.13 166.64 L 147.48 166.66 C 146.53 166.68 145.78 167.47 145.81 168.42 C 145.84 169.37 146.63 170.12 147.58 170.09 L 148.22 170.07 C 149.17 170.05 149.92 169.26 149.89 168.31 C 149.87 167.36 149.08 166.61 148.13 166.64 Z M 149.09 167.77 L 148.83 167.10 C 148.50 166.24 147.53 165.82 146.66 166.15 C 145.80 166.49 145.38 167.45 145.71 168.32 L 145.97 168.98 C 146.30 169.84 147.27 170.27 148.14 169.93 C 149.00 169.60 149.42 168.63 149.09 167.77 Z M 148.89 167.56 L 148.78 166.47 C 148.70 165.58 147.91 164.93 147.02 165.01 C 146.12 165.10 145.47 165.89 145.55 166.78 L 145.65 167.86 C 145.74 168.76 146.53 169.41 147.42 169.33 C 148.32 169.24 148.97 168.45 148.89 167.56 Z M 148.75 166.58 L 148.72 165.71 C 148.69 164.84 147.96 164.15 147.09 164.18 C 146.22 164.21 145.53 164.94 145.56 165.81 L 145.59 166.68 C 145.62 167.55 146.35 168.24 147.22 168.21 C 148.09 168.18 148.78 167.45 148.75 166.58 Z"
      fill="black"
      fill-rule="nonzero" /><path d="M 159.60 135.35 L 159.54 134.33 C 159.48 133.31 158.60 132.53 157.59 132.59 C 156.57 132.66 155.79 133.53 155.86 134.55 L 155.92 135.57 C 155.98 136.59 156.85 137.36 157.87 137.30 C 158.88 137.24 159.66 136.37 159.60 135.35 Z M 159.57 134.64 L 159.67 133.67 C 159.79 132.63 159.04 131.71 158.00 131.59 C 156.97 131.48 156.04 132.23 155.93 133.26 L 155.82 134.23 C 155.71 135.27 156.46 136.20 157.49 136.31 C 158.53 136.42 159.46 135.67 159.57 134.64 Z M 159.53 134.26 L 159.89 133.48 C 160.33 132.52 159.91 131.39 158.96 130.95 C 158.00 130.51 156.87 130.93 156.43 131.89 L 156.07 132.67 C 155.63 133.63 156.05 134.76 157.01 135.20 C 157.96 135.64 159.09 135.22 159.53 134.26 Z M 159.61 133.92 L 160.24 133.18 C 160.92 132.38 160.83 131.18 160.03 130.49 C 159.23 129.81 158.02 129.91 157.34 130.71 L 156.71 131.45 C 156.03 132.25 156.13 133.45 156.93 134.13 C 157.73 134.81 158.93 134.72 159.61 133.92 Z M 160.06 133.36 L 160.90 132.60 C 161.68 131.91 161.75 130.71 161.05 129.93 C 160.35 129.14 159.15 129.08 158.37 129.78 L 157.53 130.53 C 156.75 131.23 156.68 132.43 157.38 133.21 C 158.08 133.99 159.28 134.06 160.06 133.36 Z M 160.82 132.66 L 161.58 132.05 C 162.39 131.39 162.52 130.20 161.86 129.39 C 161.20 128.58 160.01 128.45 159.20 129.11 L 158.44 129.72 C 157.63 130.38 157.51 131.57 158.16 132.38 C 158.82 133.19 160.01 133.32 160.82 132.66 Z M 161.53 132.07 L 162.35 131.44 C 163.18 130.81 163.34 129.63 162.71 128.81 C 162.08 127.98 160.90 127.83 160.07 128.46 L 159.25 129.08 C 158.42 129.71 158.27 130.89 158.90 131.72 C 159.53 132.54 160.71 132.70 161.53 132.07 Z M 162.31 131.46 L 163.14 130.86 C 163.98 130.26 164.16 129.09 163.56 128.25 C 162.95 127.41 161.78 127.23 160.95 127.83 L 160.12 128.43 C 159.28 129.04 159.09 130.21 159.70 131.05 C 160.30 131.88 161.47 132.07 162.31 131.46 Z M 163.09 130.89 L 163.97 130.29 C 164.82 129.72 165.04 128.56 164.46 127.71 C 163.89 126.86 162.73 126.64 161.88 127.21 L 161.00 127.81 C 160.15 128.38 159.93 129.54 160.50 130.39 C 161.08 131.24 162.24 131.46 163.09 130.89 Z M 163.89 130.33 L 164.79 129.78 C 165.65 129.24 165.93 128.11 165.40 127.24 C 164.86 126.37 163.73 126.10 162.86 126.63 L 161.96 127.18 C 161.09 127.71 160.82 128.85 161.35 129.72 C 161.88 130.58 163.02 130.86 163.89 130.33 Z M 164.68 129.82 L 165.50 129.38 C 166.40 128.90 166.73 127.79 166.26 126.90 C 165.78 126.01 164.67 125.67 163.78 126.15 L 162.96 126.59 C 162.07 127.06 161.73 128.17 162.21 129.06 C 162.68 129.96 163.79 130.29 164.68 129.82 Z M 165.39 129.42 L 166.26 129.03 C 167.18 128.61 167.59 127.54 167.18 126.62 C 166.76 125.71 165.69 125.30 164.77 125.71 L 163.90 126.11 C 162.98 126.52 162.57 127.59 162.99 128.51 C 163.40 129.42 164.47 129.83 165.39 129.42 Z M 166.10 129.09 L 167.04 128.77 C 167.99 128.45 168.50 127.42 168.18 126.47 C 167.86 125.52 166.84 125.01 165.89 125.33 L 164.94 125.65 C 163.99 125.97 163.48 127.00 163.80 127.95 C 164.12 128.90 165.15 129.41 166.10 129.09 Z M 166.79 128.83 L 167.75 128.66 C 168.74 128.48 169.39 127.54 169.22 126.55 C 169.04 125.57 168.09 124.91 167.11 125.09 L 166.14 125.27 C 165.16 125.44 164.50 126.39 164.68 127.37 C 164.86 128.36 165.80 129.01 166.79 128.83 Z M 167.37 128.70 L 168.38 128.74 C 169.39 128.77 170.23 127.98 170.27 126.97 C 170.30 125.96 169.51 125.12 168.50 125.08 L 167.49 125.05 C 166.48 125.01 165.64 125.80 165.60 126.81 C 165.57 127.82 166.36 128.67 167.37 128.70 Z M 167.70 128.61 L 168.59 129.00 C 169.53 129.41 170.62 128.97 171.03 128.03 C 171.44 127.10 171.01 126.00 170.07 125.60 L 169.18 125.21 C 168.24 124.80 167.15 125.23 166.74 126.17 C 166.33 127.11 166.76 128.20 167.70 128.61 Z M 167.89 128.49 L 168.49 129.21 C 169.15 130.00 170.33 130.11 171.12 129.45 C 171.92 128.78 172.02 127.61 171.36 126.81 L 170.76 126.10 C 170.10 125.31 168.92 125.20 168.13 125.86 C 167.34 126.52 167.23 127.70 167.89 128.49 Z M 168.22 128.77 L 168.63 129.71 C 169.05 130.65 170.16 131.08 171.10 130.66 C 172.05 130.24 172.47 129.13 172.05 128.19 L 171.64 127.25 C 171.22 126.31 170.11 125.88 169.17 126.30 C 168.22 126.72 167.80 127.83 168.22 128.77 Z M 168.54 129.45 L 168.81 130.44 C 169.09 131.44 170.12 132.02 171.12 131.75 C 172.12 131.47 172.70 130.44 172.42 129.44 L 172.15 128.45 C 171.87 127.45 170.84 126.87 169.84 127.14 C 168.84 127.42 168.26 128.45 168.54 129.45 Z M 168.76 130.27 L 168.94 131.24 C 169.12 132.26 170.09 132.94 171.12 132.76 C 172.14 132.58 172.82 131.60 172.64 130.58 L 172.47 129.61 C 172.29 128.59 171.31 127.91 170.29 128.09 C 169.27 128.27 168.58 129.25 168.76 130.27 Z M 168.91 131.12 L 169.02 132.12 C 169.13 133.16 170.07 133.91 171.11 133.79 C 172.15 133.68 172.89 132.74 172.78 131.70 L 172.67 130.70 C 172.56 129.66 171.62 128.91 170.58 129.03 C 169.54 129.14 168.79 130.08 168.91 131.12 Z M 169.00 132.06 L 169.08 133.00 C 169.16 134.04 170.08 134.82 171.13 134.74 C 172.17 134.66 172.95 133.74 172.87 132.70 L 172.79 131.76 C 172.71 130.71 171.80 129.93 170.75 130.02 C 169.70 130.10 168.92 131.02 169.00 132.06 Z M 169.07 132.97 L 169.13 133.95 C 169.20 135.00 170.10 135.80 171.15 135.74 C 172.21 135.67 173.01 134.76 172.94 133.71 L 172.88 132.73 C 172.81 131.67 171.91 130.87 170.86 130.94 C 169.80 131.01 169.00 131.91 169.07 132.97 Z M 169.12 133.92 L 169.17 134.98 C 169.22 136.04 170.12 136.86 171.18 136.81 C 172.24 136.76 173.05 135.86 173.00 134.80 L 172.95 133.74 C 172.90 132.68 172.00 131.86 170.94 131.91 C 169.89 131.96 169.07 132.86 169.12 133.92 Z M 169.16 134.96 L 169.20 135.94 C 169.24 137.00 170.13 137.83 171.19 137.79 C 172.26 137.75 173.09 136.86 173.05 135.80 L 173.01 134.82 C 172.97 133.76 172.08 132.93 171.02 132.97 C 169.95 133.01 169.12 133.90 169.16 134.96 Z M 169.19 135.92 L 169.22 136.91 C 169.25 137.98 170.14 138.82 171.21 138.78 C 172.28 138.75 173.12 137.86 173.08 136.79 L 173.05 135.81 C 173.02 134.74 172.13 133.90 171.06 133.93 C 170.00 133.97 169.16 134.86 169.19 135.92 Z M 169.21 136.90 L 169.24 137.92 C 169.27 139.00 170.16 139.84 171.23 139.81 C 172.30 139.78 173.15 138.89 173.12 137.82 L 173.09 136.80 C 173.06 135.73 172.17 134.88 171.10 134.91 C 170.03 134.94 169.18 135.83 169.21 136.90 Z M 169.23 137.92 L 169.26 138.96 C 169.28 140.03 170.18 140.88 171.25 140.86 C 172.33 140.83 173.18 139.93 173.15 138.86 L 173.13 137.82 C 173.10 136.75 172.21 135.90 171.13 135.92 C 170.05 135.95 169.20 136.85 169.23 137.92 Z M 169.25 138.96 L 169.27 139.93 C 169.30 141.01 170.20 141.87 171.28 141.84 C 172.36 141.81 173.21 140.91 173.19 139.83 L 173.16 138.86 C 173.13 137.78 172.24 136.92 171.16 136.95 C 170.08 136.98 169.22 137.88 169.25 138.96 Z M 169.26 139.93 L 169.29 140.92 C 169.31 142.01 170.22 142.87 171.30 142.84 C 172.39 142.81 173.24 141.91 173.22 140.83 L 173.19 139.84 C 173.17 138.75 172.27 137.89 171.18 137.92 C 170.10 137.95 169.24 138.85 169.26 139.93 Z M 169.28 140.92 L 169.30 141.92 C 169.32 143.01 170.22 143.88 171.31 143.86 C 172.40 143.83 173.27 142.93 173.25 141.84 L 173.23 140.83 C 173.20 139.74 172.30 138.88 171.21 138.90 C 170.12 138.92 169.26 139.83 169.28 140.92 Z M 169.29 141.91 L 169.31 142.94 C 169.32 144.03 170.23 144.90 171.32 144.89 C 172.42 144.87 173.29 143.97 173.27 142.88 L 173.26 141.85 C 173.24 140.76 172.34 139.88 171.24 139.90 C 170.15 139.92 169.27 140.82 169.29 141.91 Z M 169.30 142.92 L 169.31 143.90 C 169.32 145.00 170.22 145.88 171.32 145.87 C 172.42 145.86 173.30 144.96 173.29 143.86 L 173.28 142.89 C 173.27 141.79 172.37 140.90 171.27 140.91 C 170.17 140.93 169.29 141.82 169.30 142.92 Z M 169.30 143.89 L 169.31 144.88 C 169.31 145.98 170.21 146.87 171.31 146.87 C 172.42 146.86 173.31 145.96 173.30 144.86 L 173.30 143.87 C 173.29 142.76 172.39 141.87 171.29 141.88 C 170.19 141.88 169.30 142.78 169.30 143.89 Z M 169.30 144.87 L 169.30 145.88 C 169.30 146.99 170.20 147.88 171.31 147.88 C 172.42 147.88 173.31 146.98 173.31 145.87 L 173.31 144.86 C 173.31 143.76 172.41 142.86 171.30 142.86 C 170.19 142.86 169.30 143.76 169.30 144.87 Z M 169.29 145.88 L 169.29 146.90 C 169.29 148.01 170.20 148.91 171.31 148.91 C 172.42 148.91 173.32 148.01 173.32 146.90 L 173.32 145.88 C 173.32 144.76 172.42 143.86 171.31 143.86 C 170.19 143.86 169.29 144.77 169.29 145.88 Z M 169.28 146.90 L 169.28 147.92 C 169.28 149.03 170.19 149.94 171.31 149.94 C 172.42 149.94 173.33 149.03 173.33 147.92 L 173.33 146.90 C 173.33 145.78 172.42 144.88 171.31 144.88 C 170.19 144.88 169.28 145.78 169.28 146.90 Z M 169.27 147.92 L 169.27 148.93 C 169.27 150.05 170.18 150.97 171.31 150.97 C 172.43 150.97 173.34 150.05 173.34 148.93 L 173.34 147.92 C 173.34 146.79 172.43 145.88 171.31 145.88 C 170.18 145.88 169.27 146.79 169.27 147.92 Z M 169.25 148.93 L 169.25 149.94 C 169.25 151.07 170.17 151.99 171.31 151.99 C 172.44 151.99 173.36 151.07 173.36 149.94 L 173.36 148.93 C 173.36 147.80 172.44 146.88 171.31 146.88 C 170.17 146.88 169.25 147.80 169.25 148.93 Z M 169.24 149.94 L 169.24 150.93 C 169.24 152.07 170.16 153.00 171.31 153.00 C 172.45 153.00 173.37 152.07 173.37 150.93 L 173.37 149.94 C 173.37 148.79 172.45 147.87 171.31 147.87 C 170.16 147.87 169.24 148.79 169.24 149.94 Z M 169.22 150.93 L 169.22 151.92 C 169.22 153.07 170.16 154.00 171.31 154.00 C 172.46 154.00 173.39 153.07 173.39 151.92 L 173.39 150.93 C 173.39 149.78 172.46 148.85 171.31 148.85 C 170.16 148.85 169.22 149.78 169.22 150.93 Z M 169.21 151.92 L 169.21 152.94 C 169.21 154.10 170.14 155.04 171.30 155.04 C 172.46 155.04 173.40 154.11 173.40 152.95 L 173.40 151.93 C 173.40 150.77 172.47 149.83 171.31 149.83 C 170.15 149.82 169.21 150.76 169.21 151.92 Z M 169.20 152.92 L 169.19 153.92 C 169.17 155.08 170.11 156.04 171.27 156.05 C 172.43 156.06 173.39 155.13 173.40 153.97 L 173.41 152.97 C 173.42 151.80 172.49 150.85 171.33 150.84 C 170.16 150.82 169.21 151.76 169.20 152.92 Z M 169.18 153.88 L 169.15 154.87 C 169.12 156.04 170.04 157.01 171.21 157.04 C 172.38 157.08 173.35 156.15 173.38 154.98 L 173.41 154.00 C 173.44 152.83 172.52 151.86 171.35 151.82 C 170.18 151.79 169.21 152.71 169.18 153.88 Z M 169.14 154.82 L 169.09 155.80 C 169.03 156.97 169.93 157.97 171.11 158.03 C 172.28 158.09 173.28 157.19 173.34 156.01 L 173.39 155.03 C 173.45 153.86 172.55 152.86 171.37 152.80 C 170.20 152.74 169.20 153.64 169.14 154.82 Z M 169.08 155.74 L 169.01 156.73 C 168.91 157.91 169.80 158.94 170.97 159.03 C 172.15 159.12 173.18 158.24 173.27 157.06 L 173.35 156.07 C 173.44 154.89 172.56 153.86 171.38 153.77 C 170.20 153.68 169.17 154.56 169.08 155.74 Z M 169.00 156.68 L 168.90 157.68 C 168.79 158.86 169.65 159.91 170.83 160.03 C 172.02 160.14 173.07 159.28 173.18 158.09 L 173.28 157.10 C 173.40 155.92 172.53 154.87 171.35 154.75 C 170.17 154.64 169.11 155.50 169.00 156.68 Z M 168.89 157.65 L 168.79 158.65 C 168.65 159.83 169.51 160.90 170.70 161.03 C 171.88 161.16 172.95 160.31 173.08 159.12 L 173.19 158.12 C 173.32 156.94 172.47 155.87 171.28 155.74 C 170.09 155.61 169.03 156.46 168.89 157.65 Z M 168.78 158.64 L 168.66 159.64 C 168.52 160.83 169.38 161.91 170.57 162.04 C 171.76 162.18 172.84 161.33 172.98 160.13 L 173.09 159.13 C 173.23 157.94 172.37 156.86 171.18 156.73 C 169.99 156.59 168.91 157.45 168.78 158.64 Z M 168.65 159.64 L 168.54 160.63 C 168.40 161.82 169.26 162.91 170.46 163.04 C 171.65 163.18 172.74 162.32 172.87 161.12 L 172.99 160.13 C 173.12 158.94 172.26 157.86 171.07 157.72 C 169.87 157.58 168.79 158.44 168.65 159.64 Z M 168.53 160.62 L 168.41 161.62 C 168.28 162.82 169.14 163.91 170.34 164.04 C 171.54 164.18 172.63 163.32 172.77 162.12 L 172.88 161.12 C 173.02 159.92 172.16 158.84 170.96 158.70 C 169.75 158.56 168.67 159.42 168.53 160.62 Z M 168.40 161.61 L 168.29 162.61 C 168.15 163.81 169.01 164.91 170.22 165.05 C 171.43 165.19 172.52 164.33 172.66 163.12 L 172.78 162.12 C 172.92 160.92 172.06 159.82 170.85 159.68 C 169.64 159.54 168.54 160.40 168.40 161.61 Z M 168.28 162.60 L 168.16 163.59 C 168.01 164.81 168.87 165.91 170.09 166.06 C 171.30 166.20 172.40 165.34 172.55 164.13 L 172.67 163.13 C 172.82 161.92 171.95 160.81 170.74 160.67 C 169.53 160.52 168.42 161.38 168.28 162.60 Z M 168.15 163.58 L 168.02 164.58 C 167.87 165.80 168.73 166.91 169.95 167.07 C 171.16 167.22 172.28 166.36 172.43 165.14 L 172.56 164.14 C 172.71 162.92 171.85 161.81 170.63 161.65 C 169.42 161.50 168.30 162.36 168.15 163.58 Z M 168.01 164.56 L 167.88 165.56 C 167.72 166.78 168.57 167.91 169.79 168.07 C 171.02 168.23 172.14 167.38 172.30 166.16 L 172.44 165.16 C 172.60 163.94 171.75 162.81 170.52 162.65 C 169.30 162.48 168.18 163.34 168.01 164.56 Z M 167.87 165.54 L 167.73 166.53 C 167.56 167.75 168.41 168.89 169.63 169.07 C 170.86 169.24 171.99 168.39 172.17 167.17 L 172.31 166.18 C 172.49 164.95 171.64 163.82 170.41 163.64 C 169.19 163.46 168.05 164.31 167.87 165.54 Z M 167.73 166.50 L 167.57 167.48 C 167.38 168.71 168.23 169.86 169.45 170.05 C 170.68 170.24 171.83 169.40 172.02 168.17 L 172.17 167.19 C 172.36 165.96 171.52 164.81 170.29 164.62 C 169.07 164.43 167.92 165.28 167.73 166.50 Z M 167.57 167.45 L 167.41 168.44 C 167.20 169.67 168.03 170.84 169.26 171.04 C 170.49 171.25 171.66 170.42 171.86 169.19 L 172.03 168.20 C 172.23 166.97 171.40 165.80 170.17 165.60 C 168.94 165.39 167.78 166.22 167.57 167.45 Z M 167.40 168.42 L 167.23 169.40 C 167.01 170.63 167.83 171.81 169.06 172.03 C 170.29 172.25 171.47 171.43 171.69 170.19 L 171.87 169.21 C 172.08 167.98 171.26 166.80 170.03 166.58 C 168.80 166.36 167.62 167.18 167.40 168.42 Z M 167.22 169.39 L 167.04 170.37 C 166.82 171.60 167.64 172.79 168.87 173.01 C 170.11 173.24 171.29 172.42 171.52 171.19 L 171.70 170.21 C 171.92 168.97 171.10 167.79 169.87 167.56 C 168.63 167.33 167.45 168.15 167.22 169.39 Z M 167.04 170.37 L 166.86 171.35 C 166.63 172.59 167.45 173.78 168.69 174.00 C 169.93 174.23 171.12 173.41 171.34 172.17 L 171.52 171.19 C 171.75 169.95 170.93 168.76 169.69 168.53 C 168.45 168.31 167.26 169.13 167.04 170.37 Z M 166.85 171.36 L 166.67 172.38 C 166.44 173.62 167.27 174.81 168.52 175.03 C 169.76 175.25 170.95 174.42 171.17 173.18 L 171.35 172.16 C 171.57 170.92 170.75 169.73 169.50 169.51 C 168.26 169.28 167.07 170.11 166.85 171.36 Z M 166.66 172.38 L 166.48 173.41 C 166.26 174.65 167.09 175.84 168.34 176.06 C 169.59 176.28 170.78 175.45 171.00 174.20 L 171.18 173.18 C 171.40 171.93 170.56 170.74 169.32 170.52 C 168.07 170.30 166.88 171.13 166.66 172.38 Z M 166.47 173.39 L 166.29 174.38 C 166.07 175.63 166.89 176.83 168.14 177.05 C 169.39 177.28 170.59 176.46 170.82 175.21 L 171.00 174.22 C 171.23 172.97 170.40 171.77 169.15 171.54 C 167.90 171.31 166.70 172.14 166.47 173.39 Z M 166.29 174.34 L 166.11 175.26 C 165.86 176.51 166.68 177.72 167.92 177.97 C 169.17 178.22 170.39 177.41 170.64 176.16 L 170.82 175.24 C 171.07 173.99 170.25 172.78 169.01 172.53 C 167.76 172.28 166.54 173.09 166.29 174.34 Z M 166.12 175.19 L 165.89 176.19 C 165.61 177.43 166.38 178.67 167.63 178.96 C 168.87 179.25 170.11 178.47 170.40 177.23 L 170.63 176.23 C 170.91 174.98 170.14 173.74 168.89 173.46 C 167.65 173.17 166.41 173.95 166.12 175.19 Z M 165.91 176.10 L 165.65 177.04 C 165.32 178.27 166.05 179.55 167.28 179.88 C 168.51 180.22 169.79 179.49 170.12 178.26 L 170.38 177.32 C 170.71 176.08 169.99 174.81 168.75 174.47 C 167.52 174.14 166.25 174.87 165.91 176.10 Z M 165.67 176.96 L 165.38 177.90 C 165.00 179.12 165.69 180.42 166.91 180.80 C 168.14 181.18 169.43 180.49 169.81 179.27 L 170.10 178.33 C 170.48 177.11 169.80 175.81 168.57 175.43 C 167.35 175.05 166.05 175.74 165.67 176.96 Z M 165.40 177.85 L 165.08 178.80 C 164.67 180.01 165.33 181.33 166.54 181.74 C 167.76 182.15 169.07 181.49 169.48 180.27 L 169.80 179.32 C 170.21 178.11 169.55 176.79 168.34 176.38 C 167.12 175.97 165.80 176.63 165.40 177.85 Z M 165.10 178.72 L 164.74 179.68 C 164.29 180.88 164.89 182.22 166.10 182.68 C 167.30 183.13 168.64 182.52 169.09 181.32 L 169.46 180.35 C 169.91 179.15 169.30 177.81 168.10 177.36 C 166.90 176.90 165.55 177.51 165.10 178.72 Z M 164.80 179.53 L 164.38 180.44 C 163.85 181.61 164.36 182.99 165.53 183.53 C 166.70 184.06 168.08 183.55 168.62 182.38 L 169.04 181.47 C 169.57 180.30 169.06 178.91 167.89 178.38 C 166.72 177.84 165.33 178.36 164.80 179.53 Z M 164.53 180.16 L 163.95 181.08 C 163.26 182.16 163.59 183.61 164.68 184.29 C 165.77 184.98 167.21 184.66 167.90 183.57 L 168.47 182.66 C 169.16 181.57 168.84 180.13 167.75 179.44 C 166.66 178.75 165.22 179.07 164.53 180.16 Z M 164.39 180.56 L 163.63 181.22 C 162.65 182.07 162.55 183.54 163.39 184.52 C 164.24 185.49 165.71 185.60 166.69 184.75 L 167.45 184.09 C 168.43 183.24 168.53 181.77 167.69 180.79 C 166.84 179.82 165.37 179.71 164.39 180.56 Z M 165.02 180.66 L 164.24 180.70 C 162.95 180.78 161.97 181.88 162.04 183.17 C 162.12 184.45 163.22 185.43 164.51 185.36 L 165.29 185.31 C 166.58 185.24 167.56 184.14 167.48 182.85 C 167.41 181.57 166.31 180.59 165.02 180.66 Z M 165.77 181.19 L 165.07 180.66 C 164.05 179.89 162.61 180.09 161.83 181.10 C 161.06 182.12 161.26 183.57 162.28 184.34 L 162.97 184.87 C 163.99 185.64 165.44 185.45 166.21 184.43 C 166.98 183.41 166.79 181.96 165.77 181.19 Z M 165.49 181.13 L 164.84 180.27 C 164.08 179.26 162.66 179.06 161.65 179.82 C 160.65 180.57 160.45 182.00 161.20 183.00 L 161.86 183.87 C 162.61 184.87 164.04 185.07 165.04 184.32 C 166.05 183.56 166.25 182.14 165.49 181.13 Z M 164.92 180.49 L 164.38 179.59 C 163.75 178.54 162.38 178.20 161.33 178.83 C 160.28 179.47 159.94 180.83 160.58 181.88 L 161.12 182.78 C 161.75 183.83 163.12 184.17 164.17 183.54 C 165.22 182.90 165.56 181.54 164.92 180.49 Z M 164.37 179.74 L 163.91 178.87 C 163.36 177.83 162.07 177.43 161.02 177.98 C 159.98 178.53 159.58 179.82 160.13 180.86 L 160.59 181.73 C 161.14 182.78 162.43 183.18 163.47 182.63 C 164.52 182.08 164.92 180.78 164.37 179.74 Z M 163.88 179.02 L 163.46 178.10 C 162.99 177.08 161.78 176.63 160.75 177.10 C 159.73 177.57 159.28 178.78 159.75 179.80 L 160.17 180.72 C 160.64 181.74 161.85 182.19 162.87 181.72 C 163.89 181.25 164.34 180.04 163.88 179.02 Z M 163.42 178.22 L 163.05 177.32 C 162.65 176.32 161.51 175.83 160.51 176.24 C 159.51 176.64 159.02 177.78 159.42 178.78 L 159.79 179.68 C 160.19 180.68 161.33 181.17 162.33 180.77 C 163.33 180.36 163.82 179.22 163.42 178.22 Z M 163.02 177.41 L 162.69 176.50 C 162.34 175.51 161.25 175.00 160.27 175.35 C 159.28 175.71 158.77 176.79 159.13 177.78 L 159.46 178.69 C 159.81 179.68 160.89 180.19 161.88 179.84 C 162.86 179.48 163.38 178.40 163.02 177.41 Z M 162.66 176.57 L 162.35 175.60 C 162.04 174.63 161.00 174.10 160.03 174.41 C 159.07 174.72 158.53 175.76 158.85 176.73 L 159.16 177.70 C 159.47 178.67 160.51 179.20 161.47 178.89 C 162.44 178.58 162.97 177.54 162.66 176.57 Z M 162.31 175.67 L 162.02 174.65 C 161.75 173.70 160.76 173.15 159.81 173.43 C 158.87 173.70 158.32 174.69 158.59 175.63 L 158.88 176.65 C 159.15 177.60 160.14 178.15 161.09 177.88 C 162.04 177.61 162.59 176.62 162.31 175.67 Z M 161.99 174.71 L 161.73 173.70 C 161.49 172.76 160.55 172.20 159.61 172.44 C 158.68 172.68 158.12 173.63 158.36 174.56 L 158.62 175.57 C 158.86 176.51 159.81 177.07 160.74 176.83 C 161.67 176.59 162.23 175.64 161.99 174.71 Z M 161.70 173.74 L 161.47 172.74 C 161.26 171.82 160.34 171.26 159.43 171.47 C 158.51 171.68 157.94 172.60 158.16 173.51 L 158.39 174.51 C 158.60 175.43 159.52 176.00 160.43 175.78 C 161.35 175.57 161.92 174.66 161.70 173.74 Z M 161.44 172.77 L 161.23 171.83 C 161.04 170.94 160.16 170.37 159.26 170.56 C 158.36 170.76 157.79 171.64 157.98 172.54 L 158.19 173.48 C 158.38 174.37 159.27 174.94 160.16 174.75 C 161.06 174.56 161.63 173.67 161.44 172.77 Z M 161.20 171.87 L 161.01 170.89 C 160.83 170.01 159.97 169.44 159.09 169.61 C 158.21 169.79 157.64 170.65 157.82 171.53 L 158.01 172.51 C 158.19 173.39 159.05 173.96 159.93 173.78 C 160.81 173.60 161.38 172.75 161.20 171.87 Z M 160.99 170.92 L 160.81 169.97 C 160.66 169.10 159.82 168.52 158.95 168.68 C 158.08 168.83 157.51 169.67 157.66 170.54 L 157.84 171.49 C 158.00 172.36 158.83 172.94 159.70 172.78 C 160.57 172.63 161.15 171.79 160.99 170.92 Z M 160.80 170.00 L 160.64 169.04 C 160.50 168.18 159.69 167.59 158.83 167.73 C 157.97 167.87 157.39 168.68 157.53 169.54 L 157.68 170.50 C 157.82 171.36 158.63 171.95 159.49 171.81 C 160.35 171.67 160.93 170.86 160.80 170.00 Z M 160.63 169.06 L 160.49 168.13 C 160.37 167.28 159.57 166.69 158.72 166.82 C 157.86 166.94 157.27 167.74 157.40 168.59 L 157.54 169.51 C 157.66 170.37 158.46 170.96 159.31 170.83 C 160.17 170.71 160.76 169.91 160.63 169.06 Z M 160.49 168.14 L 160.35 167.16 C 160.23 166.30 159.44 165.71 158.59 165.83 C 157.73 165.95 157.14 166.74 157.26 167.60 L 157.40 168.58 C 157.52 169.44 158.31 170.03 159.17 169.91 C 160.02 169.79 160.62 169.00 160.49 168.14 Z M 160.35 167.16 L 160.21 166.12 C 160.09 165.27 159.30 164.67 158.45 164.79 C 157.59 164.91 157.00 165.70 157.12 166.55 L 157.26 167.59 C 157.38 168.45 158.17 169.04 159.02 168.92 C 159.88 168.81 160.47 168.02 160.35 167.16 Z M 160.21 166.13 L 160.14 165.65 C 160.03 164.80 159.24 164.20 158.38 164.32 C 157.53 164.43 156.93 165.22 157.05 166.08 L 157.12 166.55 C 157.23 167.41 158.02 168.00 158.88 167.89 C 159.73 167.77 160.33 166.98 160.21 166.13 Z"
      fill="black"
      fill-rule="nonzero" /><path d="M 159.45 143.31 L 160.48 143.43 C 161.42 143.54 162.27 142.87 162.38 141.93 C 162.49 140.99 161.82 140.14 160.88 140.03 L 159.86 139.91 C 158.92 139.79 158.06 140.46 157.95 141.40 C 157.84 142.34 158.51 143.20 159.45 143.31 Z M 160.13 143.35 L 161.04 143.66 C 161.94 143.96 162.91 143.48 163.21 142.59 C 163.51 141.70 163.04 140.73 162.14 140.43 L 161.23 140.12 C 160.34 139.81 159.37 140.29 159.07 141.18 C 158.76 142.07 159.24 143.04 160.13 143.35 Z M 160.45 143.28 L 161.10 143.89 C 161.79 144.52 162.85 144.48 163.49 143.80 C 164.12 143.12 164.08 142.05 163.40 141.42 L 162.74 140.81 C 162.06 140.17 160.99 140.21 160.36 140.90 C 159.73 141.58 159.77 142.64 160.45 143.28 Z M 160.79 143.40 L 161.24 144.28 C 161.65 145.09 162.64 145.41 163.45 145.00 C 164.26 144.59 164.58 143.60 164.17 142.79 L 163.72 141.90 C 163.30 141.10 162.31 140.77 161.50 141.19 C 160.69 141.60 160.37 142.59 160.79 143.40 Z M 161.16 143.97 L 161.45 145.01 C 161.68 145.86 162.57 146.36 163.42 146.12 C 164.28 145.88 164.78 145.00 164.54 144.15 L 164.25 143.11 C 164.01 142.25 163.13 141.75 162.27 141.99 C 161.42 142.23 160.92 143.11 161.16 143.97 Z M 161.43 144.83 L 161.59 145.83 C 161.73 146.70 162.55 147.28 163.41 147.14 C 164.27 147.00 164.86 146.19 164.72 145.33 L 164.55 144.32 C 164.41 143.46 163.60 142.88 162.74 143.02 C 161.88 143.15 161.29 143.97 161.43 144.83 Z M 161.59 145.73 L 161.69 146.74 C 161.77 147.61 162.54 148.24 163.40 148.16 C 164.27 148.07 164.90 147.30 164.82 146.44 L 164.72 145.43 C 164.64 144.57 163.87 143.93 163.00 144.02 C 162.14 144.10 161.51 144.87 161.59 145.73 Z M 161.69 146.67 L 161.74 147.68 C 161.79 148.54 162.53 149.21 163.39 149.16 C 164.25 149.11 164.92 148.38 164.87 147.51 L 164.82 146.51 C 164.77 145.64 164.03 144.98 163.17 145.03 C 162.30 145.07 161.64 145.81 161.69 146.67 Z M 161.74 147.57 L 161.73 148.58 C 161.72 149.45 162.40 150.16 163.27 150.17 C 164.13 150.18 164.84 149.49 164.85 148.63 L 164.87 147.62 C 164.88 146.76 164.19 146.05 163.33 146.03 C 162.47 146.02 161.76 146.71 161.74 147.57 Z M 161.75 148.33 L 161.58 149.26 C 161.43 150.11 161.99 150.92 162.84 151.08 C 163.69 151.23 164.50 150.67 164.66 149.82 L 164.83 148.89 C 164.98 148.04 164.42 147.23 163.57 147.07 C 162.72 146.92 161.91 147.48 161.75 148.33 Z M 161.68 148.95 L 161.31 149.83 C 160.99 150.62 161.37 151.54 162.16 151.86 C 162.96 152.19 163.87 151.81 164.20 151.01 L 164.56 150.14 C 164.89 149.34 164.51 148.43 163.71 148.10 C 162.92 147.77 162.00 148.15 161.68 148.95 Z M 161.42 149.62 L 160.90 150.49 C 160.45 151.23 160.70 152.19 161.44 152.63 C 162.18 153.08 163.13 152.83 163.58 152.09 L 164.10 151.22 C 164.54 150.48 164.30 149.52 163.56 149.08 C 162.82 148.64 161.86 148.88 161.42 149.62 Z M 160.97 150.38 L 160.37 151.21 C 159.86 151.91 160.01 152.89 160.71 153.39 C 161.41 153.90 162.39 153.75 162.90 153.05 L 163.50 152.21 C 164.01 151.51 163.85 150.54 163.15 150.03 C 162.46 149.52 161.48 149.68 160.97 150.38 Z M 160.42 151.13 L 159.78 151.91 C 159.23 152.58 159.32 153.57 159.99 154.12 C 160.66 154.67 161.65 154.57 162.20 153.91 L 162.84 153.13 C 163.39 152.46 163.30 151.47 162.63 150.92 C 161.96 150.37 160.97 150.46 160.42 151.13 Z M 159.83 151.84 L 159.16 152.57 C 158.57 153.21 158.61 154.20 159.25 154.79 C 159.88 155.38 160.88 155.34 161.47 154.71 L 162.15 153.98 C 162.74 153.34 162.70 152.34 162.06 151.75 C 161.42 151.16 160.42 151.20 159.83 151.84 Z M 159.22 152.49 L 158.50 153.18 C 157.86 153.78 157.84 154.79 158.44 155.42 C 159.05 156.06 160.05 156.08 160.69 155.47 L 161.41 154.79 C 162.05 154.18 162.07 153.17 161.47 152.54 C 160.86 151.90 159.85 151.88 159.22 152.49 Z M 158.57 153.08 L 157.81 153.71 C 157.12 154.28 157.02 155.29 157.59 155.98 C 158.16 156.66 159.17 156.76 159.85 156.20 L 160.62 155.57 C 161.30 155.00 161.40 153.99 160.83 153.30 C 160.27 152.62 159.25 152.52 158.57 153.08 Z M 157.87 153.60 L 156.91 154.28 C 156.17 154.81 155.99 155.84 156.52 156.59 C 157.05 157.34 158.08 157.52 158.83 156.99 L 159.79 156.31 C 160.54 155.78 160.71 154.74 160.18 154.00 C 159.66 153.25 158.62 153.07 157.87 153.60 Z M 156.92 154.12 L 156.04 154.67 C 155.21 155.20 154.96 156.31 155.49 157.14 C 156.02 157.98 157.12 158.22 157.96 157.70 L 158.83 157.14 C 159.66 156.61 159.91 155.51 159.38 154.67 C 158.85 153.84 157.75 153.59 156.92 154.12 Z M 158.00 157.82 L 158.14 157.73 C 159.05 157.18 159.33 156.00 158.78 155.10 C 158.23 154.20 157.06 153.91 156.15 154.46 L 156.01 154.55 C 155.10 155.10 154.82 156.28 155.37 157.18 C 155.91 158.08 157.09 158.37 158.00 157.82 Z M 158.13 157.78 L 158.88 157.35 C 159.81 156.80 160.12 155.61 159.58 154.68 C 159.03 153.74 157.84 153.43 156.90 153.98 L 156.16 154.41 C 155.23 154.95 154.92 156.15 155.46 157.08 C 156.01 158.01 157.20 158.33 158.13 157.78 Z M 158.85 157.37 L 160.01 156.71 C 160.96 156.18 161.29 154.99 160.76 154.04 C 160.23 153.10 159.03 152.77 158.09 153.30 L 156.93 153.95 C 155.99 154.49 155.65 155.68 156.18 156.62 C 156.72 157.57 157.91 157.90 158.85 157.37 Z M 159.98 156.73 L 161.03 156.16 C 161.98 155.65 162.34 154.46 161.82 153.51 C 161.31 152.56 160.12 152.20 159.17 152.72 L 158.12 153.28 C 157.17 153.80 156.82 154.99 157.33 155.94 C 157.85 156.89 159.03 157.24 159.98 156.73 Z M 161.01 156.16 L 161.93 155.68 C 162.88 155.17 163.25 154.00 162.75 153.04 C 162.25 152.09 161.07 151.73 160.12 152.23 L 159.19 152.72 C 158.24 153.22 157.88 154.39 158.38 155.35 C 158.88 156.30 160.06 156.66 161.01 156.16 Z M 161.91 155.67 L 162.85 155.18 C 163.80 154.69 164.17 153.53 163.68 152.58 C 163.18 151.63 162.02 151.26 161.07 151.75 L 160.13 152.24 C 159.18 152.73 158.81 153.89 159.31 154.84 C 159.80 155.79 160.97 156.16 161.91 155.67 Z M 162.84 155.18 L 163.74 154.71 C 164.68 154.23 165.05 153.07 164.57 152.13 C 164.08 151.18 162.93 150.81 161.98 151.30 L 161.08 151.76 C 160.14 152.24 159.77 153.40 160.25 154.35 C 160.74 155.29 161.89 155.66 162.84 155.18 Z M 163.73 154.70 L 164.55 154.28 C 165.49 153.80 165.86 152.65 165.38 151.71 C 164.90 150.77 163.75 150.40 162.81 150.88 L 161.99 151.31 C 161.05 151.79 160.68 152.94 161.16 153.87 C 161.64 154.81 162.79 155.18 163.73 154.70 Z M 164.54 154.24 L 165.58 153.71 C 166.50 153.23 166.86 152.10 166.39 151.19 C 165.91 150.27 164.78 149.91 163.87 150.38 L 162.82 150.92 C 161.91 151.40 161.55 152.52 162.02 153.44 C 162.50 154.36 163.62 154.72 164.54 154.24 Z M 165.57 153.63 L 166.44 153.17 C 167.32 152.71 167.65 151.62 167.19 150.74 C 166.72 149.86 165.64 149.53 164.76 149.99 L 163.88 150.45 C 163.00 150.92 162.67 152.01 163.13 152.89 C 163.60 153.76 164.69 154.10 165.57 153.63 Z M 166.43 153.09 L 167.15 152.70 C 167.98 152.24 168.28 151.19 167.82 150.36 C 167.37 149.52 166.32 149.22 165.48 149.68 L 164.77 150.07 C 163.93 150.53 163.63 151.58 164.09 152.41 C 164.55 153.25 165.59 153.55 166.43 153.09 Z M 167.15 152.63 L 167.99 152.15 C 168.78 151.69 169.06 150.67 168.60 149.87 C 168.14 149.08 167.12 148.80 166.32 149.26 L 165.48 149.74 C 164.69 150.20 164.41 151.22 164.87 152.02 C 165.33 152.82 166.35 153.09 167.15 152.63 Z M 167.99 152.11 L 168.85 151.59 C 169.63 151.13 169.88 150.13 169.42 149.36 C 168.96 148.58 167.96 148.33 167.18 148.79 L 166.32 149.30 C 165.55 149.76 165.29 150.77 165.75 151.54 C 166.21 152.31 167.22 152.57 167.99 152.11 Z M 168.85 151.56 L 169.60 151.10 C 170.36 150.64 170.60 149.66 170.14 148.90 C 169.68 148.14 168.69 147.90 167.94 148.36 L 167.18 148.82 C 166.43 149.28 166.19 150.27 166.65 151.02 C 167.11 151.78 168.09 152.02 168.85 151.56 Z M 169.62 151.08 L 170.38 150.60 C 171.12 150.13 171.34 149.15 170.87 148.41 C 170.41 147.66 169.43 147.44 168.68 147.91 L 167.92 148.39 C 167.18 148.86 166.96 149.84 167.43 150.58 C 167.89 151.32 168.87 151.54 169.62 151.08 Z M 170.40 150.56 L 171.33 149.95 C 172.05 149.47 172.25 148.49 171.77 147.76 C 171.28 147.04 170.30 146.84 169.58 147.33 L 168.66 147.94 C 167.93 148.43 167.74 149.40 168.22 150.13 C 168.70 150.85 169.68 151.05 170.40 150.56 Z M 171.35 149.92 L 172.18 149.34 C 172.89 148.84 173.07 147.87 172.57 147.16 C 172.08 146.45 171.10 146.28 170.39 146.77 L 169.56 147.35 C 168.85 147.85 168.67 148.83 169.17 149.53 C 169.67 150.24 170.64 150.42 171.35 149.92 Z M 172.20 149.33 L 172.94 148.80 C 173.64 148.30 173.80 147.32 173.30 146.62 C 172.79 145.91 171.82 145.75 171.11 146.26 L 170.38 146.78 C 169.67 147.29 169.51 148.26 170.02 148.97 C 170.52 149.67 171.50 149.83 172.20 149.33 Z M 172.94 148.79 L 173.74 148.21 C 174.44 147.70 174.60 146.72 174.09 146.03 C 173.58 145.33 172.60 145.17 171.91 145.68 L 171.11 146.26 C 170.41 146.77 170.25 147.75 170.76 148.45 C 171.27 149.14 172.25 149.30 172.94 148.79 Z M 173.75 148.21 L 174.60 147.59 C 175.29 147.08 175.44 146.10 174.93 145.40 C 174.42 144.71 173.44 144.55 172.75 145.07 L 171.90 145.69 C 171.21 146.20 171.05 147.17 171.57 147.87 C 172.08 148.57 173.05 148.72 173.75 148.21 Z M 174.60 147.58 L 175.47 146.94 C 176.17 146.43 176.32 145.45 175.80 144.75 C 175.29 144.06 174.31 143.91 173.62 144.42 L 172.74 145.07 C 172.05 145.58 171.90 146.56 172.41 147.25 C 172.93 147.95 173.90 148.09 174.60 147.58 Z M 175.47 146.94 L 176.11 146.46 C 176.81 145.95 176.95 144.97 176.44 144.28 C 175.93 143.59 174.95 143.44 174.26 143.95 L 173.62 144.42 C 172.93 144.94 172.78 145.91 173.29 146.61 C 173.80 147.30 174.78 147.45 175.47 146.94 Z"
      fill="black"
      fill-rule="nonzero" /></svg>