<svg xmlns="http://www.w3.org/2000/svg" width="300" height="300" viewBox="0 0 300 300">
<path d="M 127.09 131.80 L 127.18 132.84 C 127.26 133.76 128.07 134.43 128.98 134.35 C 129.90 134.27 130.57 133.47 130.49 132.55 L 130.40 131.51 C 130.32 130.59 129.52 129.92 128.60 130.00 C 127.69 130.08 127.01 130.88 127.09 131.80 Z M 127.10 132.84 L 127.19 133.85 C 127.27 134.81 128.11 135.53 129.07 135.45 C 130.03 135.36 130.74 134.52 130.66 133.56 L 130.58 132.55 C 130.50 131.59 129.65 130.88 128.69 130.96 C 127.73 131.04 127.02 131.88 127.10 132.84 Z M 127.10 133.85 L 127.18 134.79 C 127.25 135.80 128.13 136.55 129.14 136.47 C 130.15 136.40 130.90 135.52 130.82 134.51 L 130.75 133.57 C 130.67 132.56 129.79 131.81 128.78 131.89 C 127.78 131.96 127.02 132.84 127.10 133.85 Z M 127.13 134.77 L 127.19 135.80 C 127.26 136.83 128.15 137.61 129.19 137.55 C 130.22 137.48 131.00 136.59 130.93 135.56 L 130.87 134.53 C 130.80 133.50 129.91 132.72 128.88 132.78 C 127.84 132.85 127.06 133.74 127.13 134.77 Z M 127.19 135.77 L 127.24 136.74 C 127.29 137.78 128.17 138.58 129.21 138.53 C 130.24 138.47 131.04 137.59 130.99 136.56 L 130.94 135.58 C 130.89 134.55 130.01 133.75 128.97 133.80 C 127.93 133.85 127.14 134.74 127.19 135.77 Z M 127.24 136.73 L 127.27 137.69 C 127.32 138.72 128.19 139.53 129.23 139.49 C 130.26 139.45 131.07 138.57 131.03 137.54 L 130.99 136.58 C 130.95 135.54 130.07 134.73 129.04 134.77 C 128.00 134.81 127.19 135.69 127.24 136.73 Z M 127.27 137.67 L 127.31 138.65 C 127.34 139.69 128.21 140.50 129.25 140.46 C 130.28 140.43 131.10 139.56 131.06 138.52 L 131.03 137.55 C 131.00 136.51 130.13 135.70 129.09 135.73 C 128.05 135.77 127.24 136.64 127.27 137.67 Z M 127.30 138.63 L 127.33 139.66 C 127.35 140.70 128.22 141.52 129.25 141.50 C 130.29 141.47 131.11 140.61 131.09 139.57 L 131.06 138.54 C 131.04 137.50 130.18 136.68 129.14 136.71 C 128.10 136.73 127.28 137.59 127.30 138.63 Z M 127.33 139.64 L 127.34 140.64 C 127.36 141.67 128.21 142.50 129.25 142.49 C 130.29 142.47 131.12 141.62 131.10 140.58 L 131.09 139.59 C 131.07 138.55 130.22 137.72 129.18 137.74 C 128.14 137.75 127.31 138.60 127.33 139.64 Z M 127.34 140.62 L 127.35 141.61 C 127.35 142.65 128.20 143.48 129.24 143.48 C 130.28 143.47 131.11 142.62 131.11 141.59 L 131.10 140.60 C 131.10 139.56 130.25 138.72 129.21 138.73 C 128.17 138.74 127.34 139.58 127.34 140.62 Z M 127.35 141.60 L 127.35 142.62 C 127.35 143.66 128.19 144.50 129.23 144.50 C 130.27 144.50 131.11 143.65 131.11 142.62 L 131.11 141.59 C 131.11 140.56 130.26 139.72 129.23 139.72 C 128.19 139.72 127.35 140.56 127.35 141.60 Z M 127.35 142.62 L 127.35 143.62 C 127.35 144.66 128.19 145.50 129.23 145.50 C 130.27 145.50 131.11 144.66 131.11 143.62 L 131.11 142.62 C 131.11 141.58 130.27 140.74 129.23 140.74 C 128.19 140.74 127.35 141.58 127.35 142.62 Z M 127.35 143.62 L 127.35 144.61 C 127.35 145.65 128.19 146.49 129.23 146.49 C 130.27 146.49 131.11 145.65 131.11 144.61 L 131.11 143.62 C 131.11 142.58 130.27 141.74 129.23 141.74 C 128.19 141.74 127.35 142.58 127.35 143.62 Z M 127.35 144.61 L 127.35 145.62 C 127.35 146.65 128.19 147.50 129.23 147.50 C 130.27 147.50 131.11 146.65 131.11 145.62 L 131.11 144.61 C 131.11 143.57 130.27 142.73 129.23 142.73 C 128.19 142.73 127.35 143.57 127.35 144.61 Z M 127.35 145.62 L 127.35 146.63 C 127.35 147.67 128.19 148.51 129.23 148.51 C 130.27 148.51 131.11 147.67 131.11 146.63 L 131.11 145.62 C 131.11 144.58 130.27 143.74 129.23 143.74 C 128.19 143.74 127.35 144.58 127.35 145.62 Z M 127.35 146.63 L 127.35 147.63 C 127.35 148.66 128.19 149.51 129.23 149.51 C 130.27 149.51 131.11 148.66 131.11 147.63 L 131.11 146.63 C 131.11 145.60 130.27 144.76 129.23 144.76 C 128.19 144.76 127.35 145.60 127.35 146.63 Z M 127.35 147.63 L 127.35 148.63 C 127.35 149.66 128.19 150.50 129.23 150.50 C 130.27 150.50 131.11 149.66 131.11 148.63 L 131.11 147.63 C 131.11 146.59 130.27 145.75 129.23 145.75 C 128.19 145.75 127.35 146.59 127.35 147.63 Z M 127.35 148.63 L 127.35 149.63 C 127.35 150.67 128.19 151.51 129.23 151.51 C 130.27 151.51 131.11 150.67 131.11 149.63 L 131.11 148.63 C 131.11 147.59 130.27 146.75 129.23 146.75 C 128.19 146.75 127.35 147.59 127.35 148.63 Z M 127.36 149.63 L 127.36 150.63 C 127.36 151.67 128.19 152.51 129.23 152.51 C 130.27 152.51 131.10 151.67 131.10 150.63 L 131.10 149.63 C 131.10 148.60 130.27 147.76 129.23 147.76 C 128.19 147.76 127.36 148.60 127.36 149.63 Z M 127.36 150.63 L 127.36 151.63 C 127.36 152.66 128.20 153.50 129.23 153.50 C 130.26 153.50 131.10 152.66 131.10 151.63 L 131.10 150.63 C 131.10 149.60 130.26 148.76 129.23 148.76 C 128.20 148.76 127.36 149.60 127.36 150.63 Z M 127.36 151.63 L 127.36 152.63 C 127.36 153.66 128.20 154.50 129.23 154.50 C 130.26 154.50 131.10 153.66 131.10 152.63 L 131.10 151.63 C 131.10 150.59 130.26 149.76 129.23 149.76 C 128.20 149.76 127.36 150.59 127.36 151.63 Z M 127.36 152.63 L 127.36 153.64 C 127.36 154.67 128.20 155.51 129.23 155.51 C 130.26 155.51 131.10 154.67 131.10 153.64 L 131.10 152.63 C 131.10 151.59 130.26 150.76 129.23 150.76 C 128.20 150.76 127.36 151.59 127.36 152.63 Z M 127.37 153.64 L 127.36 154.65 C 127.36 155.68 128.20 156.52 129.23 156.52 C 130.26 156.52 131.09 155.68 131.09 154.66 L 131.09 153.64 C 131.10 152.61 130.26 151.77 129.23 151.77 C 128.20 151.77 127.37 152.61 127.37 153.64 Z M 127.37 154.64 L 127.36 155.66 C 127.36 156.68 128.18 157.52 129.21 157.52 C 130.24 157.53 131.07 156.71 131.08 155.68 L 131.09 154.67 C 131.09 153.64 130.27 152.80 129.24 152.80 C 128.22 152.79 127.38 153.62 127.37 154.64 Z M 127.37 155.63 L 127.35 156.63 C 127.34 157.65 128.15 158.49 129.17 158.51 C 130.19 158.53 131.04 157.72 131.05 156.69 L 131.07 155.70 C 131.09 154.68 130.28 153.84 129.26 153.82 C 128.23 153.80 127.39 154.61 127.37 155.63 Z M 127.36 156.59 L 127.33 157.59 C 127.29 158.61 128.08 159.46 129.10 159.50 C 130.11 159.54 130.97 158.75 131.01 157.73 L 131.05 156.73 C 131.08 155.71 130.29 154.86 129.27 154.82 C 128.26 154.78 127.40 155.57 127.36 156.59 Z M 127.34 157.55 L 127.27 158.58 C 127.21 159.59 127.98 160.46 128.99 160.53 C 130.00 160.59 130.87 159.82 130.93 158.81 L 131.00 157.77 C 131.06 156.76 130.29 155.89 129.28 155.83 C 128.27 155.77 127.40 156.54 127.34 157.55 Z M 127.28 158.55 L 127.20 159.53 C 127.12 160.53 127.87 161.41 128.87 161.50 C 129.88 161.58 130.76 160.83 130.84 159.83 L 130.92 158.85 C 131.00 157.84 130.26 156.96 129.25 156.88 C 128.25 156.80 127.37 157.54 127.28 158.55 Z M 127.22 159.51 L 127.12 160.47 C 127.03 161.46 127.76 162.35 128.76 162.44 C 129.76 162.54 130.64 161.80 130.74 160.81 L 130.83 159.85 C 130.92 158.85 130.19 157.97 129.19 157.87 C 128.19 157.78 127.31 158.51 127.22 159.51 Z M 127.14 160.46 L 127.04 161.49 C 126.94 162.48 127.66 163.36 128.65 163.46 C 129.64 163.56 130.52 162.84 130.62 161.85 L 130.72 160.82 C 130.82 159.83 130.10 158.95 129.11 158.85 C 128.12 158.75 127.24 159.47 127.14 160.46 Z M 127.06 161.49 L 126.95 162.47 C 126.85 163.44 127.56 164.32 128.54 164.42 C 129.51 164.53 130.39 163.82 130.49 162.84 L 130.60 161.86 C 130.70 160.88 129.99 160.01 129.01 159.91 C 128.04 159.80 127.16 160.51 127.06 161.49 Z M 126.98 162.46 L 126.87 163.40 C 126.76 164.36 127.45 165.23 128.42 165.34 C 129.38 165.45 130.25 164.76 130.36 163.79 L 130.47 162.85 C 130.58 161.89 129.88 161.02 128.92 160.91 C 127.96 160.80 127.08 161.49 126.98 162.46 Z M 126.89 163.40 L 126.78 164.35 C 126.68 165.30 127.36 166.16 128.31 166.27 C 129.27 166.38 130.13 165.69 130.23 164.74 L 130.34 163.79 C 130.45 162.84 129.76 161.98 128.81 161.87 C 127.86 161.76 127.00 162.45 126.89 163.40 Z M 126.80 164.38 L 126.71 165.41 C 126.62 166.35 127.30 167.18 128.25 167.27 C 129.19 167.37 130.02 166.68 130.11 165.73 L 130.21 164.71 C 130.30 163.77 129.61 162.93 128.67 162.84 C 127.73 162.75 126.90 163.44 126.80 164.38 Z M 126.72 165.45 L 126.65 166.40 C 126.59 167.33 127.29 168.14 128.22 168.21 C 129.15 168.28 129.96 167.58 130.03 166.65 L 130.10 165.69 C 130.16 164.76 129.46 163.95 128.53 163.88 C 127.60 163.82 126.79 164.52 126.72 165.45 Z M 126.67 166.42 L 126.61 167.41 C 126.56 168.33 127.26 169.12 128.18 169.17 C 129.11 169.23 129.90 168.53 129.95 167.60 L 130.01 166.62 C 130.06 165.70 129.36 164.91 128.44 164.86 C 127.52 164.80 126.73 165.50 126.67 166.42 Z M 126.63 167.42 L 126.58 168.46 C 126.53 169.37 127.23 170.15 128.14 170.20 C 129.06 170.24 129.83 169.54 129.88 168.63 L 129.93 167.59 C 129.98 166.68 129.28 165.90 128.37 165.86 C 127.46 165.81 126.68 166.51 126.63 167.42 Z M 126.60 168.47 L 126.56 169.21 C 126.52 170.11 127.21 170.87 128.11 170.92 C 129.02 170.96 129.78 170.27 129.83 169.36 L 129.86 168.63 C 129.91 167.72 129.21 166.96 128.31 166.91 C 127.41 166.87 126.64 167.57 126.60 168.47 Z"
      fill="black"
      fill-rule="nonzero" /><path d="M 132.93 134.59 L 133.65 134.11 C 134.54 133.53 134.78 132.34 134.20 131.46 C 133.62 130.58 132.43 130.33 131.55 130.92 L 130.82 131.40 C 129.94 131.98 129.70 133.16 130.28 134.04 C 130.86 134.92 132.05 135.17 132.93 134.59 Z M 133.58 134.10 L 134.42 133.59 C 135.30 133.05 135.57 131.90 135.03 131.02 C 134.49 130.14 133.34 129.87 132.46 130.40 L 131.63 130.92 C 130.75 131.46 130.47 132.61 131.01 133.49 C 131.55 134.37 132.70 134.64 133.58 134.10 Z M 134.32 133.60 L 135.31 133.05 C 136.20 132.57 136.52 131.45 136.03 130.57 C 135.55 129.68 134.43 129.36 133.55 129.85 L 132.56 130.40 C 131.67 130.88 131.35 132.00 131.84 132.88 C 132.33 133.77 133.44 134.09 134.32 133.60 Z M 135.25 133.06 L 136.13 132.62 C 137.02 132.17 137.37 131.08 136.92 130.19 C 136.47 129.30 135.39 128.94 134.49 129.39 L 133.61 129.84 C 132.72 130.29 132.37 131.38 132.82 132.27 C 133.27 133.16 134.36 133.51 135.25 133.06 Z M 136.09 132.63 L 137.03 132.17 C 137.93 131.74 138.31 130.67 137.88 129.77 C 137.44 128.88 136.37 128.50 135.48 128.93 L 134.53 129.39 C 133.64 129.82 133.26 130.89 133.69 131.79 C 134.12 132.68 135.20 133.06 136.09 132.63 Z M 137.00 132.18 L 137.94 131.75 C 138.84 131.33 139.23 130.27 138.82 129.37 C 138.40 128.48 137.34 128.08 136.44 128.50 L 135.51 128.93 C 134.61 129.34 134.22 130.40 134.63 131.30 C 135.04 132.20 136.11 132.59 137.00 132.18 Z M 137.91 131.75 L 138.82 131.35 C 139.72 130.96 140.13 129.90 139.73 129.00 C 139.33 128.10 138.28 127.70 137.38 128.09 L 136.47 128.49 C 135.57 128.89 135.16 129.94 135.56 130.84 C 135.96 131.74 137.01 132.15 137.91 131.75 Z M 138.76 131.37 L 139.80 130.95 C 140.72 130.59 141.16 129.56 140.80 128.65 C 140.43 127.73 139.40 127.29 138.49 127.65 L 137.44 128.07 C 136.53 128.44 136.09 129.47 136.45 130.38 C 136.81 131.29 137.85 131.74 138.76 131.37 Z M 139.66 131.00 L 140.54 130.74 C 141.48 130.45 142.00 129.46 141.72 128.52 C 141.43 127.58 140.44 127.05 139.50 127.34 L 138.63 127.60 C 137.69 127.89 137.16 128.88 137.45 129.82 C 137.73 130.76 138.72 131.29 139.66 131.00 Z M 140.31 130.80 L 141.22 130.65 C 142.19 130.49 142.85 129.58 142.69 128.60 C 142.54 127.63 141.62 126.97 140.65 127.13 L 139.73 127.28 C 138.76 127.44 138.10 128.35 138.26 129.32 C 138.42 130.30 139.33 130.96 140.31 130.80 Z M 140.74 130.69 L 141.72 130.79 C 142.71 130.90 143.60 130.18 143.71 129.18 C 143.81 128.19 143.09 127.30 142.10 127.19 L 141.12 127.09 C 140.13 126.99 139.24 127.71 139.13 128.70 C 139.03 129.70 139.75 130.59 140.74 130.69 Z M 140.82 130.48 L 141.56 131.02 C 142.38 131.62 143.53 131.44 144.13 130.62 C 144.73 129.80 144.56 128.65 143.74 128.05 L 143.00 127.51 C 142.17 126.91 141.02 127.08 140.42 127.90 C 139.82 128.73 140.00 129.88 140.82 130.48 Z M 141.00 130.41 L 141.40 131.16 C 141.88 132.07 143.01 132.42 143.92 131.94 C 144.83 131.46 145.18 130.33 144.70 129.42 L 144.30 128.66 C 143.81 127.75 142.69 127.40 141.77 127.89 C 140.86 128.37 140.52 129.50 141.00 130.41 Z M 141.24 130.81 L 141.52 131.80 C 141.81 132.80 142.85 133.38 143.85 133.09 C 144.85 132.80 145.43 131.76 145.14 130.76 L 144.86 129.77 C 144.57 128.77 143.53 128.19 142.53 128.48 C 141.53 128.77 140.95 129.81 141.24 130.81 Z M 141.46 131.60 L 141.66 132.75 C 141.83 133.78 142.81 134.48 143.85 134.30 C 144.88 134.13 145.58 133.15 145.40 132.11 L 145.21 130.97 C 145.03 129.93 144.05 129.24 143.02 129.41 C 141.98 129.59 141.29 130.57 141.46 131.60 Z M 141.63 132.64 L 141.74 133.65 C 141.85 134.70 142.80 135.45 143.84 135.34 C 144.89 135.23 145.65 134.28 145.54 133.23 L 145.43 132.22 C 145.31 131.17 144.37 130.42 143.32 130.53 C 142.27 130.65 141.51 131.59 141.63 132.64 Z M 141.73 133.58 L 141.80 134.61 C 141.88 135.67 142.80 136.46 143.86 136.38 C 144.91 136.30 145.71 135.38 145.63 134.33 L 145.55 133.30 C 145.47 132.24 144.55 131.45 143.50 131.53 C 142.44 131.61 141.65 132.53 141.73 133.58 Z M 141.79 134.57 L 141.85 135.57 C 141.90 136.63 142.81 137.45 143.87 137.39 C 144.93 137.34 145.75 136.43 145.69 135.37 L 145.64 134.37 C 145.58 133.31 144.67 132.49 143.61 132.55 C 142.55 132.60 141.74 133.51 141.79 134.57 Z M 141.84 135.55 L 141.88 136.51 C 141.92 137.58 142.82 138.41 143.89 138.36 C 144.95 138.32 145.78 137.42 145.74 136.35 L 145.70 135.39 C 145.65 134.32 144.75 133.50 143.69 133.54 C 142.62 133.59 141.79 134.49 141.84 135.55 Z M 141.87 136.51 L 141.91 137.57 C 141.96 138.64 142.86 139.47 143.93 139.43 C 145.00 139.39 145.83 138.49 145.79 137.42 L 145.74 136.36 C 145.70 135.29 144.80 134.45 143.73 134.50 C 142.66 134.54 141.83 135.44 141.87 136.51 Z M 141.91 137.57 L 141.95 138.54 C 141.99 139.61 142.89 140.45 143.96 140.41 C 145.03 140.37 145.87 139.46 145.83 138.39 L 145.79 137.42 C 145.75 136.35 144.85 135.51 143.78 135.55 C 142.71 135.60 141.87 136.50 141.91 137.57 Z M 141.94 138.53 L 141.98 139.48 C 142.01 140.56 142.91 141.40 143.99 141.36 C 145.06 141.32 145.90 140.42 145.86 139.35 L 145.83 138.40 C 145.79 137.33 144.89 136.49 143.82 136.52 C 142.75 136.56 141.91 137.46 141.94 138.53 Z M 141.97 139.48 L 142.00 140.44 C 142.04 141.52 142.94 142.36 144.01 142.33 C 145.09 142.29 145.93 141.39 145.90 140.32 L 145.87 139.36 C 145.83 138.28 144.93 137.44 143.86 137.47 C 142.78 137.50 141.94 138.40 141.97 139.48 Z M 142.00 140.44 L 142.03 141.43 C 142.06 142.51 142.96 143.36 144.04 143.33 C 145.11 143.30 145.96 142.40 145.93 141.32 L 145.90 140.32 C 145.87 139.24 144.97 138.40 143.89 138.43 C 142.82 138.46 141.97 139.36 142.00 140.44 Z M 142.02 141.43 L 142.05 142.46 C 142.08 143.54 142.98 144.39 144.06 144.36 C 145.14 144.33 145.99 143.43 145.96 142.35 L 145.93 141.32 C 145.90 140.24 145.00 139.39 143.92 139.42 C 142.85 139.45 141.99 140.35 142.02 141.43 Z M 142.05 142.46 L 142.07 143.44 C 142.10 144.53 143.00 145.38 144.09 145.35 C 145.17 145.32 146.02 144.42 145.99 143.34 L 145.97 142.36 C 145.94 141.27 145.04 140.42 143.95 140.45 C 142.87 140.48 142.02 141.38 142.05 142.46 Z M 142.07 143.44 L 142.10 144.43 C 142.13 145.52 143.03 146.37 144.11 146.34 C 145.20 146.31 146.05 145.41 146.02 144.33 L 146.00 143.34 C 145.97 142.26 145.06 141.40 143.98 141.43 C 142.90 141.46 142.04 142.36 142.07 143.44 Z M 142.09 144.43 L 142.12 145.45 C 142.15 146.53 143.05 147.39 144.14 147.36 C 145.22 147.33 146.08 146.43 146.05 145.34 L 146.02 144.33 C 146.00 143.24 145.09 142.39 144.01 142.41 C 142.92 142.44 142.07 143.35 142.09 144.43 Z M 142.12 145.45 L 142.15 146.47 C 142.18 147.55 143.08 148.41 144.17 148.38 C 145.26 148.35 146.11 147.45 146.08 146.36 L 146.05 145.34 C 146.03 144.25 145.12 143.39 144.03 143.42 C 142.95 143.45 142.09 144.36 142.12 145.45 Z M 142.14 146.47 L 142.17 147.47 C 142.20 148.56 143.11 149.42 144.20 149.39 C 145.29 149.36 146.14 148.45 146.11 147.36 L 146.09 146.36 C 146.06 145.27 145.15 144.41 144.06 144.44 C 142.97 144.47 142.11 145.38 142.14 146.47 Z M 142.17 147.47 L 142.20 148.48 C 142.23 149.57 143.14 150.43 144.23 150.40 C 145.32 150.37 146.17 149.46 146.14 148.37 L 146.12 147.36 C 146.08 146.27 145.18 145.41 144.09 145.44 C 143.00 145.47 142.14 146.38 142.17 147.47 Z M 142.20 148.48 L 142.22 149.47 C 142.25 150.56 143.16 151.42 144.25 151.39 C 145.34 151.36 146.20 150.45 146.17 149.36 L 146.15 148.37 C 146.12 147.28 145.21 146.42 144.12 146.45 C 143.02 146.48 142.16 147.39 142.20 148.48 Z M 142.22 149.47 L 142.25 150.49 C 142.28 151.58 143.19 152.44 144.28 152.41 C 145.37 152.38 146.23 151.47 146.20 150.38 L 146.18 149.36 C 146.15 148.27 145.24 147.41 144.14 147.44 C 143.05 147.47 142.19 148.38 142.22 149.47 Z M 142.25 150.49 L 142.27 151.50 C 142.30 152.59 143.21 153.45 144.31 153.42 C 145.40 153.39 146.26 152.48 146.23 151.39 L 146.21 150.38 C 146.18 149.29 145.27 148.43 144.17 148.46 C 143.08 148.49 142.22 149.40 142.25 150.49 Z M 142.27 151.49 L 142.30 152.48 C 142.33 153.57 143.24 154.44 144.33 154.41 C 145.43 154.38 146.29 153.47 146.26 152.37 L 146.24 151.39 C 146.21 150.29 145.29 149.43 144.20 149.46 C 143.11 149.49 142.24 150.40 142.27 151.49 Z M 142.30 152.48 L 142.32 153.47 C 142.35 154.56 143.26 155.43 144.36 155.40 C 145.46 155.37 146.32 154.46 146.29 153.36 L 146.26 152.37 C 146.23 151.28 145.32 150.41 144.23 150.44 C 143.13 150.47 142.27 151.38 142.30 152.48 Z M 142.32 153.47 L 142.35 154.47 C 142.38 155.57 143.29 156.43 144.38 156.40 C 145.48 156.37 146.35 155.46 146.32 154.37 L 146.29 153.36 C 146.26 152.27 145.35 151.40 144.26 151.43 C 143.16 151.46 142.29 152.37 142.32 153.47 Z M 142.35 154.46 L 142.37 155.46 C 142.39 156.56 143.30 157.43 144.40 157.41 C 145.50 157.38 146.37 156.47 146.34 155.37 L 146.32 154.37 C 146.30 153.27 145.39 152.40 144.29 152.43 C 143.19 152.45 142.32 153.36 142.35 154.46 Z M 142.37 155.45 L 142.38 156.45 C 142.40 157.54 143.31 158.42 144.41 158.40 C 145.51 158.38 146.38 157.48 146.36 156.38 L 146.35 155.38 C 146.33 154.28 145.42 153.41 144.32 153.43 C 143.22 153.45 142.35 154.35 142.37 155.45 Z M 142.38 156.43 L 142.39 157.45 C 142.40 158.55 143.30 159.43 144.40 159.42 C 145.50 159.41 146.39 158.51 146.37 157.41 L 146.36 156.39 C 146.35 155.29 145.45 154.41 144.35 154.42 C 143.25 154.43 142.37 155.33 142.38 156.43 Z M 142.39 157.43 L 142.39 158.44 C 142.40 159.54 143.29 160.43 144.39 160.42 C 145.50 160.42 146.38 159.52 146.38 158.42 L 146.38 157.42 C 146.37 156.32 145.48 155.43 144.37 155.43 C 143.27 155.44 142.38 156.33 142.39 157.43 Z M 142.39 158.43 L 142.39 159.42 C 142.39 160.52 143.29 161.41 144.39 161.41 C 145.49 161.41 146.38 160.52 146.38 159.41 L 146.38 158.43 C 146.38 157.32 145.49 156.43 144.39 156.43 C 143.28 156.43 142.39 157.33 142.39 158.43 Z M 142.39 159.41 L 142.39 160.43 C 142.39 161.53 143.28 162.43 144.39 162.43 C 145.49 162.43 146.38 161.53 146.38 160.43 L 146.38 159.41 C 146.38 158.31 145.49 157.42 144.39 157.42 C 143.28 157.42 142.39 158.31 142.39 159.41 Z M 142.39 160.43 L 142.39 161.43 C 142.39 162.54 143.28 163.43 144.39 163.43 C 145.49 163.43 146.38 162.54 146.38 161.43 L 146.38 160.43 C 146.38 159.33 145.49 158.43 144.39 158.43 C 143.28 158.43 142.39 159.33 142.39 160.43 Z M 142.39 161.43 L 142.39 162.42 C 142.39 163.52 143.28 164.41 144.39 164.41 C 145.49 164.41 146.38 163.52 146.38 162.42 L 146.38 161.43 C 146.38 160.33 145.49 159.44 144.39 159.44 C 143.28 159.44 142.39 160.33 142.39 161.43 Z M 142.39 162.42 L 142.39 163.42 C 142.39 164.52 143.28 165.42 144.39 165.42 C 145.49 165.42 146.38 164.52 146.38 163.42 L 146.38 162.42 C 146.38 161.31 145.49 160.42 144.39 160.42 C 143.28 160.42 142.39 161.31 142.39 162.42 Z M 142.39 163.42 L 142.39 164.42 C 142.39 165.52 143.28 166.41 144.39 166.41 C 145.49 166.41 146.38 165.52 146.38 164.42 L 146.38 163.42 C 146.38 162.32 145.49 161.42 144.39 161.42 C 143.28 161.42 142.39 162.32 142.39 163.42 Z M 142.39 164.42 L 142.39 165.41 C 142.39 166.51 143.29 167.41 144.39 167.41 C 145.49 167.41 146.38 166.51 146.38 165.41 L 146.38 164.42 C 146.38 163.31 145.49 162.42 144.39 162.42 C 143.29 162.42 142.39 163.31 142.39 164.42 Z M 142.40 165.41 L 142.40 166.39 C 142.40 167.49 143.29 168.38 144.39 168.38 C 145.49 168.38 146.38 167.49 146.38 166.39 L 146.38 165.41 C 146.38 164.31 145.49 163.42 144.39 163.42 C 143.29 163.42 142.40 164.31 142.40 165.41 Z M 142.40 166.39 L 142.40 167.39 C 142.40 168.48 143.29 169.37 144.39 169.37 C 145.48 169.37 146.37 168.48 146.37 167.39 L 146.37 166.39 C 146.37 165.29 145.48 164.40 144.39 164.40 C 143.29 164.40 142.40 165.29 142.40 166.39 Z M 142.41 167.39 L 142.41 168.41 C 142.41 169.50 143.29 170.39 144.39 170.39 C 145.48 170.39 146.37 169.50 146.37 168.41 L 146.37 167.39 C 146.37 166.29 145.48 165.41 144.39 165.41 C 143.29 165.41 142.41 166.29 142.41 167.39 Z M 142.41 168.41 L 142.41 169.39 C 142.41 170.48 143.30 171.37 144.39 171.37 C 145.48 171.37 146.36 170.48 146.36 169.39 L 146.36 168.41 C 146.36 167.32 145.48 166.44 144.39 166.44 C 143.30 166.44 142.41 167.32 142.41 168.41 Z M 142.42 169.39 L 142.42 170.39 C 142.42 171.48 143.30 172.36 144.39 172.36 C 145.47 172.36 146.35 171.48 146.35 170.39 L 146.35 169.39 C 146.35 168.31 145.47 167.43 144.39 167.43 C 143.30 167.43 142.42 168.31 142.42 169.39 Z M 142.43 170.39 L 142.43 171.41 C 142.43 172.49 143.31 173.36 144.39 173.36 C 145.47 173.36 146.34 172.49 146.34 171.41 L 146.34 170.39 C 146.34 169.31 145.47 168.44 144.39 168.44 C 143.31 168.44 142.43 169.31 142.43 170.39 Z M 142.44 171.41 L 142.44 171.65 C 142.44 172.73 143.31 173.60 144.39 173.60 C 145.46 173.60 146.34 172.73 146.34 171.65 L 146.34 171.41 C 146.34 170.33 145.46 169.46 144.39 169.46 C 143.31 169.46 142.44 170.33 142.44 171.41 Z"
      fill="black"
      fill-rule="nonzero" /><path d="M 129.44 151.55 L 128.32 152.00 C 127.43 152.36 127.00 153.37 127.36 154.26 C 127.72 155.15 128.73 155.58 129.62 155.22 L 130.74 154.77 C 131.63 154.41 132.06 153.40 131.70 152.51 C 131.34 151.62 130.33 151.19 129.44 151.55 Z M 128.87 155.42 L 129.10 155.43 C 130.10 155.49 130.95 154.72 131.01 153.72 C 131.06 152.72 130.30 151.87 129.30 151.81 L 129.08 151.80 C 128.08 151.74 127.22 152.51 127.16 153.50 C 127.11 154.50 127.87 155.36 128.87 155.42 Z M 129.67 155.42 L 130.73 155.14 C 131.72 154.88 132.31 153.87 132.05 152.87 C 131.79 151.88 130.78 151.29 129.79 151.55 L 128.73 151.83 C 127.74 152.08 127.15 153.10 127.40 154.09 C 127.66 155.08 128.68 155.67 129.67 155.42 Z M 130.80 155.14 L 131.91 154.81 C 132.90 154.51 133.46 153.46 133.16 152.47 C 132.87 151.47 131.82 150.91 130.82 151.21 L 129.72 151.54 C 128.72 151.84 128.16 152.89 128.46 153.89 C 128.76 154.88 129.81 155.44 130.80 155.14 Z M 131.97 154.80 L 132.87 154.50 C 133.86 154.16 134.39 153.09 134.06 152.10 C 133.73 151.12 132.66 150.58 131.67 150.92 L 130.76 151.22 C 129.78 151.55 129.24 152.62 129.57 153.61 C 129.91 154.60 130.98 155.13 131.97 154.80 Z M 132.91 154.49 L 133.87 154.14 C 134.85 153.79 135.36 152.71 135.01 151.72 C 134.66 150.74 133.57 150.23 132.59 150.58 L 131.63 150.93 C 130.65 151.28 130.14 152.36 130.49 153.34 C 130.84 154.33 131.93 154.84 132.91 154.49 Z M 133.88 154.14 L 134.82 153.79 C 135.80 153.43 136.30 152.34 135.94 151.36 C 135.58 150.38 134.49 149.88 133.51 150.24 L 132.58 150.59 C 131.60 150.95 131.09 152.04 131.46 153.02 C 131.82 154.00 132.90 154.50 133.88 154.14 Z M 134.83 153.79 L 135.75 153.44 C 136.73 153.07 137.22 151.98 136.85 151.01 C 136.49 150.03 135.40 149.53 134.42 149.90 L 133.50 150.25 C 132.52 150.62 132.03 151.71 132.39 152.68 C 132.76 153.66 133.85 154.15 134.83 153.79 Z M 135.77 153.43 L 136.73 153.06 C 137.70 152.68 138.18 151.58 137.80 150.61 C 137.43 149.64 136.33 149.16 135.36 149.54 L 134.40 149.91 C 133.43 150.29 132.95 151.38 133.33 152.36 C 133.70 153.33 134.80 153.81 135.77 153.43 Z M 136.76 153.04 L 137.71 152.65 C 138.68 152.26 139.14 151.16 138.75 150.19 C 138.35 149.23 137.25 148.77 136.29 149.16 L 135.33 149.55 C 134.37 149.95 133.91 151.05 134.30 152.01 C 134.69 152.98 135.79 153.44 136.76 153.04 Z M 137.75 152.62 L 138.75 152.19 C 139.69 151.77 140.13 150.67 139.71 149.72 C 139.30 148.77 138.20 148.34 137.25 148.76 L 136.25 149.19 C 135.30 149.60 134.87 150.71 135.28 151.66 C 135.70 152.60 136.80 153.04 137.75 152.62 Z M 138.77 152.15 L 139.71 151.72 C 140.63 151.29 141.04 150.19 140.61 149.27 C 140.18 148.34 139.08 147.93 138.16 148.36 L 137.22 148.79 C 136.30 149.22 135.89 150.32 136.32 151.25 C 136.75 152.17 137.85 152.58 138.77 152.15 Z M 139.72 151.69 L 140.57 151.28 C 141.48 150.85 141.86 149.76 141.43 148.85 C 140.99 147.94 139.91 147.55 139.00 147.99 L 138.15 148.39 C 137.24 148.83 136.85 149.92 137.28 150.83 C 137.72 151.74 138.81 152.12 139.72 151.69 Z M 140.56 151.25 L 141.47 150.81 C 142.36 150.38 142.74 149.31 142.31 148.42 C 141.88 147.53 140.81 147.15 139.92 147.58 L 139.00 148.02 C 138.11 148.45 137.74 149.52 138.17 150.41 C 138.60 151.30 139.67 151.68 140.56 151.25 Z M 141.45 150.77 L 142.35 150.33 C 143.22 149.91 143.59 148.87 143.17 148.00 C 142.75 147.13 141.70 146.77 140.83 147.19 L 139.93 147.62 C 139.07 148.04 138.70 149.09 139.12 149.96 C 139.54 150.82 140.59 151.19 141.45 150.77 Z M 142.35 150.28 L 143.19 149.86 C 144.02 149.44 144.36 148.42 143.94 147.59 C 143.53 146.75 142.51 146.41 141.67 146.83 L 140.84 147.24 C 140.00 147.66 139.66 148.68 140.08 149.52 C 140.50 150.36 141.51 150.70 142.35 150.28 Z M 143.19 149.80 L 144.08 149.33 C 144.89 148.91 145.20 147.92 144.77 147.11 C 144.35 146.31 143.36 146.00 142.55 146.42 L 141.66 146.89 C 140.86 147.31 140.55 148.30 140.97 149.11 C 141.39 149.91 142.39 150.22 143.19 149.80 Z M 144.08 149.28 L 144.95 148.81 C 145.73 148.39 146.02 147.42 145.60 146.64 C 145.18 145.87 144.21 145.58 143.43 146.00 L 142.56 146.47 C 141.78 146.89 141.49 147.86 141.91 148.64 C 142.33 149.41 143.30 149.70 144.08 149.28 Z"
      fill="black"
      fill-rule="nonzero" /><path d="M 129.00 172.99 L 129.83 172.63 C 130.73 172.23 131.14 171.19 130.75 170.29 C 130.35 169.39 129.31 168.98 128.41 169.37 L 127.57 169.74 C 126.67 170.13 126.26 171.18 126.66 172.08 C 127.05 172.98 128.10 173.39 129.00 172.99 Z M 129.87 172.69 L 130.75 172.30 C 131.69 171.89 132.11 170.80 131.70 169.86 C 131.29 168.93 130.19 168.50 129.26 168.92 L 128.37 169.31 C 127.44 169.72 127.02 170.81 127.43 171.75 C 127.84 172.68 128.93 173.11 129.87 172.69 Z M 130.79 172.36 L 131.78 171.92 C 132.75 171.49 133.18 170.35 132.75 169.38 C 132.31 168.41 131.18 167.98 130.21 168.41 L 129.22 168.85 C 128.25 169.29 127.82 170.43 128.25 171.40 C 128.69 172.36 129.83 172.80 130.79 172.36 Z M 131.81 171.95 L 132.66 171.57 C 133.65 171.12 134.09 169.95 133.64 168.96 C 133.19 167.97 132.02 167.54 131.03 167.99 L 130.18 168.38 C 129.19 168.83 128.76 169.99 129.21 170.98 C 129.66 171.97 130.82 172.40 131.81 171.95 Z M 132.68 171.57 L 133.54 171.17 C 134.53 170.71 134.96 169.54 134.50 168.55 C 134.04 167.56 132.87 167.13 131.88 167.59 L 131.02 167.99 C 130.03 168.44 129.60 169.62 130.06 170.61 C 130.52 171.59 131.69 172.02 132.68 171.57 Z M 133.56 171.16 L 134.48 170.72 C 135.46 170.26 135.88 169.08 135.41 168.10 C 134.95 167.11 133.77 166.69 132.79 167.16 L 131.87 167.59 C 130.88 168.06 130.46 169.24 130.93 170.22 C 131.40 171.21 132.57 171.63 133.56 171.16 Z M 134.49 170.72 L 135.45 170.25 C 136.43 169.77 136.84 168.59 136.36 167.61 C 135.89 166.63 134.70 166.23 133.73 166.70 L 132.77 167.17 C 131.79 167.64 131.38 168.82 131.86 169.80 C 132.33 170.78 133.51 171.19 134.49 170.72 Z M 135.47 170.24 L 136.43 169.76 C 137.40 169.27 137.79 168.09 137.30 167.11 C 136.81 166.14 135.63 165.75 134.66 166.24 L 133.70 166.72 C 132.73 167.20 132.34 168.39 132.83 169.36 C 133.32 170.33 134.50 170.72 135.47 170.24 Z M 136.44 169.73 L 137.35 169.26 C 138.31 168.76 138.68 167.58 138.19 166.63 C 137.69 165.67 136.51 165.29 135.56 165.79 L 134.64 166.26 C 133.69 166.76 133.31 167.94 133.81 168.90 C 134.30 169.85 135.48 170.23 136.44 169.73 Z M 137.36 169.23 L 138.26 168.75 C 139.21 168.25 139.56 167.08 139.06 166.14 C 138.56 165.20 137.39 164.84 136.45 165.34 L 135.55 165.82 C 134.61 166.32 134.25 167.49 134.75 168.43 C 135.25 169.37 136.42 169.73 137.36 169.23 Z M 138.27 168.72 L 139.15 168.24 C 140.08 167.73 140.42 166.57 139.92 165.65 C 139.41 164.72 138.25 164.38 137.33 164.89 L 136.44 165.37 C 135.52 165.87 135.18 167.03 135.68 167.96 C 136.19 168.88 137.35 169.22 138.27 168.72 Z M 139.16 168.21 L 140.01 167.73 C 140.92 167.23 141.24 166.08 140.73 165.17 C 140.23 164.26 139.08 163.94 138.17 164.44 L 137.32 164.92 C 136.41 165.42 136.09 166.57 136.59 167.48 C 137.10 168.39 138.25 168.72 139.16 168.21 Z M 140.01 167.70 L 140.90 167.19 C 141.79 166.68 142.10 165.55 141.59 164.66 C 141.08 163.77 139.94 163.46 139.06 163.97 L 138.17 164.48 C 137.28 164.99 136.97 166.12 137.48 167.01 C 137.99 167.90 139.12 168.21 140.01 167.70 Z M 140.90 167.14 L 141.81 166.60 C 142.67 166.09 142.96 164.98 142.45 164.12 C 141.94 163.26 140.83 162.97 139.97 163.48 L 139.06 164.02 C 138.20 164.53 137.91 165.64 138.42 166.50 C 138.93 167.36 140.04 167.64 140.90 167.14 Z M 141.81 166.53 L 142.66 166.02 C 143.48 165.51 143.74 164.43 143.23 163.60 C 142.73 162.78 141.65 162.52 140.82 163.03 L 139.98 163.54 C 139.15 164.05 138.89 165.13 139.40 165.96 C 139.90 166.78 140.98 167.04 141.81 166.53 Z M 142.65 165.95 L 143.44 165.45 C 144.23 164.94 144.46 163.89 143.95 163.10 C 143.45 162.31 142.40 162.08 141.61 162.59 L 140.82 163.09 C 140.03 163.60 139.80 164.65 140.31 165.44 C 140.81 166.23 141.86 166.46 142.65 165.95 Z M 143.45 165.39 L 144.26 164.84 C 145.02 164.33 145.22 163.30 144.71 162.55 C 144.20 161.79 143.17 161.59 142.41 162.10 L 141.60 162.65 C 140.84 163.16 140.64 164.18 141.15 164.94 C 141.66 165.70 142.69 165.90 143.45 165.39 Z M 144.27 164.79 L 145.10 164.21 C 145.83 163.69 146.00 162.68 145.49 161.95 C 144.97 161.22 143.96 161.05 143.23 161.56 L 142.40 162.15 C 141.67 162.66 141.50 163.67 142.01 164.40 C 142.53 165.14 143.54 165.31 144.27 164.79 Z M 145.10 164.17 L 145.90 163.59 C 146.61 163.07 146.76 162.07 146.24 161.36 C 145.72 160.65 144.72 160.50 144.01 161.02 L 143.22 161.60 C 142.51 162.12 142.36 163.12 142.88 163.83 C 143.40 164.54 144.39 164.69 145.10 164.17 Z M 145.89 163.56 L 146.47 163.14 C 147.16 162.62 147.31 161.64 146.79 160.94 C 146.27 160.24 145.29 160.10 144.59 160.62 L 144.02 161.04 C 143.32 161.56 143.18 162.54 143.70 163.24 C 144.21 163.94 145.20 164.08 145.89 163.56 Z"
      fill="black"
      fill-rule="nonzero" /><path d="M 164.15 108.85 L 163.92 109.83 C 163.72 110.74 164.29 111.65 165.20 111.86 C 166.12 112.07 167.03 111.49 167.23 110.58 L 167.46 109.60 C 167.66 108.68 167.09 107.78 166.18 107.57 C 165.26 107.36 164.35 107.93 164.15 108.85 Z M 163.87 109.75 L 163.61 110.71 C 163.36 111.66 163.92 112.63 164.86 112.88 C 165.81 113.13 166.78 112.57 167.03 111.63 L 167.29 110.66 C 167.54 109.72 166.98 108.75 166.04 108.50 C 165.09 108.24 164.12 108.80 163.87 109.75 Z M 163.59 110.56 L 163.26 111.49 C 162.92 112.45 163.42 113.50 164.38 113.84 C 165.33 114.18 166.38 113.68 166.72 112.72 L 167.05 111.78 C 167.39 110.83 166.89 109.78 165.93 109.44 C 164.98 109.10 163.93 109.60 163.59 110.56 Z M 163.30 111.29 L 162.87 112.18 C 162.42 113.11 162.81 114.23 163.75 114.68 C 164.68 115.13 165.81 114.74 166.26 113.81 L 166.68 112.92 C 167.13 111.99 166.74 110.86 165.80 110.41 C 164.87 109.96 163.75 110.36 163.30 111.29 Z M 162.95 112.02 L 162.44 112.88 C 161.90 113.77 162.19 114.93 163.09 115.46 C 163.98 116.00 165.14 115.70 165.67 114.81 L 166.18 113.96 C 166.72 113.06 166.42 111.91 165.53 111.37 C 164.64 110.84 163.48 111.13 162.95 112.02 Z M 162.49 112.79 L 161.92 113.63 C 161.34 114.49 161.56 115.67 162.42 116.25 C 163.29 116.84 164.46 116.61 165.05 115.75 L 165.62 114.90 C 166.20 114.04 165.98 112.87 165.11 112.28 C 164.25 111.70 163.08 111.92 162.49 112.79 Z M 161.95 113.58 L 161.37 114.38 C 160.77 115.23 160.96 116.41 161.81 117.02 C 162.65 117.63 163.84 117.44 164.44 116.59 L 165.02 115.79 C 165.63 114.94 165.43 113.76 164.59 113.15 C 163.74 112.54 162.56 112.74 161.95 113.58 Z M 161.40 114.35 L 160.80 115.14 C 160.17 115.98 160.34 117.17 161.18 117.79 C 162.01 118.42 163.20 118.25 163.83 117.42 L 164.42 116.62 C 165.05 115.79 164.88 114.60 164.05 113.97 C 163.21 113.35 162.02 113.51 161.40 114.35 Z M 160.83 115.11 L 160.20 115.91 C 159.55 116.73 159.70 117.92 160.52 118.57 C 161.34 119.21 162.53 119.07 163.17 118.25 L 163.80 117.45 C 164.45 116.63 164.30 115.44 163.48 114.79 C 162.66 114.15 161.47 114.29 160.83 115.11 Z M 160.23 115.87 L 159.59 116.65 C 158.92 117.45 159.04 118.65 159.85 119.31 C 160.65 119.98 161.85 119.86 162.51 119.05 L 163.15 118.28 C 163.81 117.47 163.70 116.28 162.89 115.62 C 162.08 114.95 160.89 115.07 160.23 115.87 Z M 159.62 116.62 L 158.97 117.37 C 158.29 118.16 158.38 119.35 159.17 120.04 C 159.96 120.72 161.16 120.63 161.84 119.83 L 162.48 119.08 C 163.17 118.29 163.08 117.10 162.28 116.42 C 161.49 115.74 160.30 115.83 159.62 116.62 Z M 158.99 117.34 L 158.32 118.09 C 157.63 118.87 157.70 120.07 158.48 120.76 C 159.26 121.46 160.45 121.39 161.15 120.61 L 161.82 119.86 C 162.51 119.08 162.44 117.88 161.66 117.19 C 160.88 116.49 159.69 116.56 158.99 117.34 Z M 158.34 118.07 L 157.66 118.83 C 156.95 119.59 157.00 120.79 157.77 121.50 C 158.54 122.20 159.74 122.15 160.44 121.38 L 161.13 120.63 C 161.84 119.86 161.78 118.66 161.01 117.96 C 160.24 117.25 159.05 117.31 158.34 118.07 Z M 157.68 118.81 L 156.97 119.56 C 156.26 120.32 156.30 121.51 157.05 122.23 C 157.81 122.94 159.01 122.90 159.72 122.14 L 160.42 121.39 C 161.14 120.63 161.10 119.44 160.34 118.73 C 159.58 118.02 158.39 118.05 157.68 118.81 Z M 157.00 119.55 L 156.29 120.28 C 155.57 121.02 155.59 122.21 156.33 122.93 C 157.08 123.65 158.26 123.63 158.98 122.89 L 159.69 122.16 C 160.41 121.41 160.39 120.23 159.65 119.51 C 158.90 118.78 157.72 118.80 157.00 119.55 Z M 156.32 120.26 L 155.62 120.95 C 154.89 121.68 154.89 122.86 155.61 123.59 C 156.34 124.32 157.52 124.33 158.25 123.60 L 158.95 122.91 C 159.68 122.18 159.69 121.00 158.96 120.27 C 158.24 119.54 157.05 119.53 156.32 120.26 Z M 155.67 120.92 L 154.94 121.61 C 154.20 122.31 154.16 123.48 154.86 124.23 C 155.56 124.97 156.73 125.01 157.48 124.31 L 158.21 123.63 C 158.95 122.93 158.99 121.76 158.29 121.01 C 157.59 120.26 156.42 120.22 155.67 120.92 Z M 155.01 121.58 L 154.25 122.24 C 153.48 122.90 153.40 124.06 154.06 124.82 C 154.73 125.59 155.88 125.67 156.65 125.01 L 157.41 124.34 C 158.17 123.68 158.25 122.52 157.59 121.76 C 156.93 121.00 155.77 120.91 155.01 121.58 Z M 154.32 122.21 L 153.56 122.81 C 152.78 123.43 152.65 124.57 153.27 125.35 C 153.89 126.13 155.02 126.26 155.80 125.64 L 156.57 125.04 C 157.35 124.42 157.48 123.28 156.86 122.50 C 156.24 121.72 155.11 121.59 154.32 122.21 Z M 153.64 122.79 L 152.85 123.36 C 152.06 123.94 151.88 125.05 152.45 125.84 C 153.03 126.63 154.14 126.81 154.93 126.24 L 155.72 125.66 C 156.52 125.09 156.69 123.98 156.12 123.19 C 155.54 122.39 154.44 122.22 153.64 122.79 Z M 152.92 123.36 L 152.10 123.92 C 151.30 124.45 151.09 125.53 151.63 126.32 C 152.16 127.12 153.24 127.33 154.03 126.79 L 154.86 126.24 C 155.65 125.70 155.86 124.63 155.33 123.83 C 154.80 123.04 153.72 122.83 152.92 123.36 Z M 152.15 123.94 L 151.31 124.48 C 150.52 124.99 150.30 126.03 150.80 126.81 C 151.30 127.60 152.35 127.82 153.13 127.32 L 153.98 126.77 C 154.76 126.27 154.99 125.22 154.48 124.44 C 153.98 123.66 152.94 123.43 152.15 123.94 Z M 151.33 124.50 L 150.90 124.78 C 150.13 125.27 149.90 126.29 150.39 127.06 C 150.88 127.83 151.90 128.06 152.67 127.57 L 153.10 127.30 C 153.88 126.81 154.10 125.79 153.61 125.01 C 153.13 124.24 152.10 124.02 151.33 124.50 Z"
      fill="black"
      fill-rule="nonzero" /><path d="M 151.95 129.76 L 152.61 130.55 C 153.22 131.30 154.33 131.41 155.08 130.79 C 155.82 130.18 155.93 129.07 155.31 128.33 L 154.66 127.53 C 154.04 126.78 152.94 126.68 152.19 127.29 C 151.45 127.91 151.34 129.01 151.95 129.76 Z M 152.60 130.62 L 153.26 131.38 C 153.91 132.13 155.05 132.22 155.80 131.57 C 156.55 130.92 156.63 129.78 155.98 129.03 L 155.32 128.26 C 154.67 127.51 153.54 127.43 152.79 128.08 C 152.04 128.73 151.95 129.87 152.60 130.62 Z M 153.29 131.48 L 153.97 132.19 C 154.67 132.92 155.84 132.95 156.57 132.24 C 157.31 131.54 157.34 130.37 156.63 129.63 L 155.96 128.93 C 155.25 128.19 154.08 128.17 153.35 128.87 C 152.61 129.58 152.59 130.75 153.29 131.48 Z M 154.08 132.29 L 154.84 132.96 C 155.61 133.63 156.77 133.55 157.44 132.79 C 158.11 132.03 158.03 130.86 157.27 130.19 L 156.51 129.53 C 155.75 128.86 154.59 128.93 153.92 129.69 C 153.25 130.46 153.32 131.62 154.08 132.29 Z M 155.02 132.99 L 155.82 133.58 C 156.60 134.16 157.70 133.99 158.28 133.21 C 158.85 132.42 158.68 131.33 157.90 130.75 L 157.10 130.16 C 156.31 129.58 155.21 129.75 154.64 130.53 C 154.07 131.32 154.23 132.42 155.02 132.99 Z M 155.96 133.55 L 156.77 134.08 C 157.53 134.58 158.56 134.37 159.06 133.61 C 159.56 132.85 159.35 131.82 158.58 131.32 L 157.77 130.79 C 157.01 130.29 155.98 130.50 155.48 131.26 C 154.98 132.02 155.19 133.05 155.96 133.55 Z M 156.82 134.04 L 156.99 134.15 C 157.73 134.62 158.71 134.40 159.18 133.67 C 159.66 132.93 159.44 131.95 158.70 131.47 L 158.53 131.37 C 157.79 130.89 156.81 131.11 156.34 131.85 C 155.87 132.59 156.09 133.57 156.82 134.04 Z"
      fill="black"
      fill-rule="nonzero" /><path d="M 160.83 125.19 L 161.62 125.72 C 162.44 126.28 163.55 126.07 164.11 125.25 C 164.66 124.43 164.45 123.32 163.63 122.76 L 162.84 122.22 C 162.02 121.67 160.91 121.88 160.35 122.70 C 159.80 123.52 160.01 124.63 160.83 125.19 Z M 161.58 125.73 L 162.40 126.31 C 163.22 126.89 164.36 126.69 164.94 125.87 C 165.52 125.04 165.32 123.91 164.49 123.33 L 163.67 122.75 C 162.85 122.18 161.71 122.37 161.14 123.20 C 160.56 124.02 160.76 125.15 161.58 125.73 Z M 162.36 126.29 L 163.16 126.89 C 163.98 127.49 165.12 127.32 165.73 126.51 C 166.33 125.70 166.16 124.55 165.35 123.95 L 164.54 123.35 C 163.73 122.75 162.58 122.92 161.98 123.73 C 161.37 124.54 161.54 125.69 162.36 126.29 Z M 163.15 126.85 L 163.92 127.45 C 164.71 128.06 165.85 127.92 166.46 127.13 C 167.07 126.34 166.93 125.21 166.14 124.60 L 165.36 123.99 C 164.58 123.38 163.44 123.52 162.83 124.31 C 162.22 125.10 162.36 126.23 163.15 126.85 Z M 163.93 127.40 L 164.74 128.04 C 165.50 128.65 166.61 128.52 167.21 127.76 C 167.82 127.00 167.69 125.89 166.93 125.28 L 166.13 124.64 C 165.37 124.04 164.26 124.16 163.65 124.92 C 163.05 125.69 163.17 126.80 163.93 127.40 Z M 164.75 128.01 L 165.20 128.37 C 165.95 128.97 167.03 128.85 167.63 128.11 C 168.23 127.36 168.11 126.27 167.37 125.67 L 166.92 125.31 C 166.17 124.72 165.08 124.84 164.49 125.58 C 163.89 126.32 164.01 127.41 164.75 128.01 Z"
      fill="black"
      fill-rule="nonzero" /><path d="M 175.05 118.64 L 174.63 119.53 C 174.19 120.44 174.57 121.53 175.48 121.97 C 176.39 122.41 177.49 122.03 177.93 121.12 L 178.36 120.23 C 178.79 119.32 178.41 118.22 177.50 117.78 C 176.59 117.35 175.49 117.73 175.05 118.64 Z M 174.56 119.51 L 174.14 120.42 C 173.69 121.36 174.10 122.49 175.04 122.94 C 175.99 123.39 177.12 122.98 177.56 122.04 L 177.99 121.13 C 178.44 120.19 178.03 119.06 177.09 118.61 C 176.14 118.16 175.01 118.57 174.56 119.51 Z M 174.08 120.42 L 173.66 121.35 C 173.22 122.32 173.65 123.47 174.63 123.92 C 175.60 124.36 176.76 123.93 177.20 122.95 L 177.62 122.03 C 178.06 121.05 177.63 119.90 176.65 119.46 C 175.68 119.02 174.53 119.45 174.08 120.42 Z M 173.65 121.37 L 173.24 122.29 C 172.81 123.27 173.26 124.42 174.24 124.86 C 175.23 125.29 176.38 124.84 176.81 123.86 L 177.22 122.93 C 177.65 121.95 177.20 120.80 176.22 120.36 C 175.23 119.93 174.08 120.38 173.65 121.37 Z M 173.26 122.29 L 172.86 123.21 C 172.42 124.19 172.87 125.33 173.84 125.76 C 174.82 126.19 175.96 125.74 176.39 124.77 L 176.79 123.85 C 177.22 122.87 176.78 121.74 175.81 121.30 C 174.83 120.87 173.69 121.32 173.26 122.29 Z M 172.89 123.19 L 172.49 124.07 C 172.05 125.02 172.46 126.16 173.42 126.60 C 174.37 127.04 175.51 126.62 175.95 125.66 L 176.35 124.79 C 176.79 123.83 176.37 122.70 175.42 122.26 C 174.46 121.82 173.33 122.24 172.89 123.19 Z M 172.55 124.03 L 172.12 124.89 C 171.66 125.82 172.03 126.94 172.96 127.40 C 173.88 127.86 175.00 127.48 175.46 126.56 L 175.89 125.70 C 176.35 124.78 175.97 123.66 175.05 123.20 C 174.13 122.74 173.01 123.11 172.55 124.03 Z M 172.19 124.85 L 171.70 125.76 C 171.21 126.64 171.54 127.75 172.43 128.23 C 173.31 128.71 174.42 128.39 174.90 127.50 L 175.39 126.60 C 175.87 125.71 175.54 124.61 174.66 124.12 C 173.78 123.64 172.67 123.97 172.19 124.85 Z M 171.76 125.73 L 171.27 126.57 C 170.77 127.42 171.06 128.51 171.91 129.00 C 172.76 129.50 173.85 129.21 174.34 128.37 L 174.83 127.53 C 175.33 126.68 175.04 125.59 174.19 125.09 C 173.35 124.60 172.26 124.88 171.76 125.73 Z M 171.32 126.56 L 170.81 127.40 C 170.31 128.22 170.57 129.29 171.39 129.79 C 172.21 130.29 173.28 130.03 173.78 129.21 L 174.29 128.37 C 174.79 127.55 174.53 126.48 173.71 125.98 C 172.89 125.48 171.82 125.74 171.32 126.56 Z M 170.86 127.40 L 170.31 128.28 C 169.81 129.08 170.06 130.12 170.85 130.62 C 171.65 131.12 172.70 130.87 173.20 130.08 L 173.74 129.20 C 174.24 128.40 173.99 127.36 173.20 126.86 C 172.40 126.36 171.35 126.61 170.86 127.40 Z M 170.35 128.29 L 169.79 129.17 C 169.31 129.95 169.54 130.98 170.31 131.46 C 171.09 131.95 172.12 131.72 172.60 130.94 L 173.16 130.06 C 173.65 129.29 173.41 128.26 172.64 127.77 C 171.86 127.28 170.84 127.52 170.35 128.29 Z"
      fill="black"
      fill-rule="nonzero" /><path d="M 156.43 143.05 L 157.28 142.50 C 158.18 141.92 158.44 140.73 157.86 139.83 C 157.28 138.94 156.09 138.68 155.19 139.25 L 154.34 139.80 C 153.44 140.38 153.18 141.58 153.76 142.47 C 154.33 143.37 155.53 143.63 156.43 143.05 Z M 157.25 142.53 L 158.10 142.01 C 159.01 141.44 159.30 140.25 158.74 139.34 C 158.18 138.43 156.98 138.14 156.07 138.70 L 155.22 139.23 C 154.31 139.79 154.02 140.98 154.58 141.89 C 155.15 142.80 156.34 143.09 157.25 142.53 Z M 158.03 142.05 L 158.88 141.58 C 159.82 141.06 160.16 139.88 159.63 138.94 C 159.11 138.00 157.93 137.66 156.99 138.18 L 156.14 138.65 C 155.20 139.18 154.86 140.36 155.39 141.30 C 155.91 142.24 157.09 142.58 158.03 142.05 Z M 158.78 141.63 L 159.66 141.21 C 160.62 140.74 161.03 139.58 160.56 138.61 C 160.09 137.64 158.93 137.24 157.96 137.71 L 157.08 138.13 C 156.12 138.60 155.71 139.76 156.18 140.73 C 156.65 141.70 157.81 142.10 158.78 141.63 Z M 159.57 141.25 L 160.53 140.84 C 161.51 140.41 161.97 139.27 161.55 138.28 C 161.13 137.30 159.98 136.84 159.00 137.26 L 158.04 137.67 C 157.05 138.09 156.60 139.24 157.02 140.22 C 157.44 141.21 158.59 141.67 159.57 141.25 Z M 160.48 140.85 L 161.38 140.49 C 162.37 140.09 162.86 138.97 162.46 137.97 C 162.07 136.98 160.94 136.50 159.95 136.89 L 159.05 137.25 C 158.05 137.65 157.57 138.77 157.97 139.77 C 158.36 140.76 159.49 141.24 160.48 140.85 Z M 161.36 140.47 L 162.31 140.10 C 163.29 139.72 163.78 138.61 163.40 137.63 C 163.02 136.64 161.91 136.16 160.92 136.54 L 159.97 136.91 C 158.99 137.29 158.50 138.40 158.88 139.38 C 159.27 140.37 160.37 140.85 161.36 140.47 Z M 162.31 140.08 L 163.25 139.71 C 164.22 139.33 164.70 138.23 164.32 137.26 C 163.94 136.29 162.84 135.81 161.87 136.19 L 160.92 136.56 C 159.95 136.94 159.47 138.04 159.85 139.01 C 160.23 139.98 161.33 140.46 162.31 140.08 Z M 163.26 139.67 L 164.22 139.28 C 165.17 138.89 165.63 137.81 165.24 136.86 C 164.86 135.91 163.77 135.45 162.82 135.84 L 161.86 136.23 C 160.91 136.62 160.45 137.70 160.84 138.65 C 161.23 139.60 162.31 140.06 163.26 139.67 Z M 164.23 139.22 L 165.14 138.83 C 166.06 138.44 166.49 137.38 166.10 136.46 C 165.71 135.54 164.65 135.12 163.73 135.51 L 162.82 135.90 C 161.90 136.29 161.47 137.35 161.86 138.26 C 162.25 139.18 163.31 139.61 164.23 139.22 Z M 165.15 138.78 L 166.04 138.38 C 166.93 137.99 167.33 136.95 166.94 136.07 C 166.54 135.18 165.51 134.78 164.62 135.17 L 163.73 135.56 C 162.84 135.95 162.44 136.99 162.83 137.88 C 163.22 138.77 164.26 139.17 165.15 138.78 Z M 166.04 138.33 L 166.96 137.91 C 167.82 137.52 168.21 136.51 167.81 135.65 C 167.42 134.79 166.41 134.41 165.55 134.80 L 164.62 135.22 C 163.76 135.61 163.38 136.62 163.77 137.48 C 164.16 138.34 165.18 138.72 166.04 138.33 Z M 166.96 137.87 L 167.85 137.46 C 168.68 137.07 169.05 136.08 168.66 135.24 C 168.28 134.41 167.29 134.04 166.45 134.43 L 165.56 134.84 C 164.72 135.23 164.36 136.22 164.74 137.05 C 165.13 137.89 166.12 138.25 166.96 137.87 Z M 167.83 137.42 L 168.73 137.01 C 169.55 136.63 169.91 135.66 169.53 134.84 C 169.15 134.02 168.18 133.67 167.37 134.04 L 166.46 134.46 C 165.65 134.84 165.29 135.81 165.67 136.63 C 166.05 137.44 167.01 137.80 167.83 137.42 Z M 168.70 136.99 L 169.61 136.59 C 170.42 136.23 170.78 135.28 170.42 134.47 C 170.06 133.66 169.11 133.30 168.30 133.66 L 167.40 134.06 C 166.59 134.42 166.22 135.37 166.58 136.18 C 166.94 136.99 167.89 137.35 168.70 136.99 Z M 169.56 136.59 L 170.47 136.21 C 171.28 135.88 171.67 134.96 171.34 134.15 C 171.01 133.34 170.08 132.95 169.27 133.28 L 168.35 133.66 C 167.55 133.99 167.16 134.91 167.49 135.72 C 167.82 136.53 168.75 136.92 169.56 136.59 Z M 170.43 136.22 L 171.36 135.87 C 172.17 135.56 172.58 134.65 172.28 133.84 C 171.97 133.03 171.06 132.62 170.25 132.92 L 169.32 133.28 C 168.50 133.58 168.09 134.49 168.40 135.30 C 168.71 136.11 169.61 136.52 170.43 136.22 Z M 171.34 135.87 L 172.29 135.52 C 173.11 135.23 173.53 134.33 173.23 133.52 C 172.94 132.70 172.04 132.28 171.23 132.58 L 170.27 132.92 C 169.46 133.22 169.04 134.12 169.33 134.93 C 169.63 135.74 170.52 136.16 171.34 135.87 Z"
      fill="black"
      fill-rule="nonzero" /><path d="M 150.93 151.79 L 149.77 152.32 C 148.85 152.73 148.45 153.80 148.86 154.72 C 149.27 155.63 150.35 156.03 151.26 155.62 L 152.43 155.09 C 153.34 154.68 153.74 153.60 153.33 152.69 C 152.92 151.78 151.84 151.38 150.93 151.79 Z M 149.29 152.46 L 148.83 152.83 C 148.00 153.51 147.87 154.73 148.55 155.57 C 149.22 156.40 150.45 156.53 151.28 155.85 L 151.74 155.48 C 152.57 154.80 152.70 153.58 152.02 152.74 C 151.34 151.91 150.12 151.78 149.29 152.46 Z M 149.67 156.34 L 150.27 156.45 C 151.37 156.66 152.44 155.94 152.65 154.83 C 152.86 153.73 152.13 152.67 151.03 152.46 L 150.43 152.35 C 149.33 152.14 148.27 152.86 148.06 153.96 C 147.85 155.06 148.57 156.13 149.67 156.34 Z M 150.80 156.53 L 152.19 156.43 C 153.34 156.35 154.21 155.35 154.12 154.21 C 154.04 153.06 153.04 152.19 151.90 152.28 L 150.50 152.38 C 149.35 152.46 148.49 153.46 148.57 154.60 C 148.65 155.75 149.65 156.62 150.80 156.53 Z M 152.33 156.45 L 153.18 156.33 C 154.34 156.18 155.15 155.11 154.99 153.96 C 154.84 152.80 153.77 151.99 152.62 152.15 L 151.76 152.26 C 150.61 152.42 149.80 153.48 149.95 154.64 C 150.11 155.79 151.17 156.60 152.33 156.45 Z M 153.24 156.33 L 154.18 156.17 C 155.33 155.98 156.11 154.90 155.92 153.75 C 155.74 152.59 154.65 151.81 153.50 152.00 L 152.56 152.15 C 151.41 152.34 150.63 153.43 150.81 154.58 C 151.00 155.73 152.09 156.51 153.24 156.33 Z M 154.23 156.16 L 155.24 155.97 C 156.39 155.76 157.14 154.65 156.93 153.50 C 156.71 152.36 155.61 151.60 154.46 151.82 L 153.45 152.01 C 152.30 152.22 151.54 153.33 151.76 154.48 C 151.98 155.63 153.08 156.38 154.23 156.16 Z M 155.29 155.97 L 156.36 155.74 C 157.50 155.50 158.23 154.37 157.99 153.23 C 157.75 152.09 156.63 151.36 155.48 151.60 L 154.41 151.83 C 153.27 152.07 152.54 153.19 152.78 154.33 C 153.02 155.48 154.15 156.21 155.29 155.97 Z M 156.40 155.73 L 157.48 155.48 C 158.61 155.21 159.32 154.07 159.05 152.94 C 158.79 151.80 157.65 151.09 156.51 151.36 L 155.44 151.61 C 154.30 151.88 153.59 153.01 153.86 154.15 C 154.13 155.29 155.27 156.00 156.40 155.73 Z M 157.51 155.47 L 158.56 155.20 C 159.69 154.91 160.37 153.76 160.08 152.63 C 159.79 151.50 158.64 150.82 157.51 151.11 L 156.47 151.37 C 155.34 151.66 154.66 152.81 154.95 153.94 C 155.23 155.07 156.38 155.75 157.51 155.47 Z M 158.59 155.19 L 159.60 154.91 C 160.73 154.61 161.39 153.45 161.09 152.32 C 160.78 151.20 159.62 150.54 158.50 150.84 L 157.48 151.12 C 156.36 151.42 155.69 152.58 156.00 153.71 C 156.30 154.83 157.46 155.49 158.59 155.19 Z M 159.63 154.90 L 160.59 154.62 C 161.71 154.30 162.35 153.14 162.03 152.02 C 161.71 150.90 160.55 150.26 159.43 150.58 L 158.47 150.85 C 157.35 151.18 156.71 152.34 157.03 153.46 C 157.35 154.58 158.52 155.22 159.63 154.90 Z M 160.62 154.61 L 161.49 154.35 C 162.60 154.01 163.23 152.84 162.89 151.73 C 162.55 150.62 161.38 149.99 160.27 150.33 L 159.40 150.59 C 158.29 150.93 157.67 152.10 158.00 153.21 C 158.34 154.32 159.51 154.95 160.62 154.61 Z M 161.53 154.32 L 162.57 153.98 C 163.67 153.62 164.27 152.44 163.91 151.35 C 163.55 150.25 162.37 149.65 161.28 150.01 L 160.23 150.35 C 159.14 150.71 158.54 151.89 158.90 152.98 C 159.25 154.08 160.43 154.68 161.53 154.32 Z M 162.64 153.93 L 163.60 153.58 C 164.67 153.19 165.22 152.00 164.83 150.93 C 164.43 149.86 163.25 149.31 162.18 149.71 L 161.22 150.06 C 160.15 150.45 159.60 151.63 159.99 152.71 C 160.38 153.78 161.56 154.33 162.64 153.93 Z M 163.67 153.52 L 164.45 153.20 C 165.49 152.77 165.98 151.58 165.55 150.54 C 165.12 149.50 163.92 149.01 162.89 149.44 L 162.11 149.76 C 161.07 150.19 160.58 151.39 161.01 152.42 C 161.44 153.46 162.63 153.95 163.67 153.52 Z M 164.50 153.15 L 165.37 152.76 C 166.38 152.30 166.83 151.11 166.37 150.10 C 165.91 149.08 164.72 148.64 163.71 149.09 L 162.84 149.49 C 161.83 149.95 161.38 151.14 161.84 152.15 C 162.29 153.16 163.49 153.61 164.50 153.15 Z M 165.41 152.71 L 166.31 152.28 C 167.29 151.80 167.71 150.61 167.23 149.62 C 166.75 148.63 165.56 148.22 164.57 148.70 L 163.67 149.14 C 162.69 149.61 162.27 150.80 162.75 151.79 C 163.23 152.78 164.42 153.19 165.41 152.71 Z M 166.34 152.24 L 167.22 151.79 C 168.18 151.29 168.56 150.11 168.07 149.14 C 167.57 148.18 166.39 147.79 165.42 148.29 L 164.54 148.74 C 163.58 149.24 163.19 150.42 163.69 151.39 C 164.19 152.35 165.37 152.73 166.34 152.24 Z M 167.24 151.75 L 168.11 151.28 C 169.06 150.77 169.41 149.59 168.91 148.65 C 168.40 147.70 167.22 147.35 166.27 147.86 L 165.40 148.33 C 164.45 148.84 164.10 150.01 164.61 150.96 C 165.11 151.90 166.29 152.26 167.24 151.75 Z M 168.13 151.24 L 169.03 150.74 C 169.95 150.22 170.28 149.05 169.76 148.13 C 169.24 147.21 168.08 146.88 167.15 147.39 L 166.26 147.89 C 165.33 148.41 165.00 149.58 165.52 150.50 C 166.04 151.43 167.21 151.76 168.13 151.24 Z M 169.04 150.70 L 169.91 150.20 C 170.82 149.67 171.12 148.51 170.60 147.61 C 170.07 146.71 168.92 146.40 168.01 146.92 L 167.14 147.43 C 166.23 147.96 165.93 149.11 166.45 150.02 C 166.98 150.92 168.13 151.23 169.04 150.70 Z M 169.93 150.15 L 170.78 149.64 C 171.66 149.10 171.95 147.96 171.41 147.08 C 170.88 146.20 169.73 145.91 168.85 146.45 L 168.00 146.96 C 167.12 147.50 166.84 148.64 167.37 149.52 C 167.90 150.40 169.05 150.69 169.93 150.15 Z M 170.81 149.59 L 171.61 149.08 C 172.46 148.53 172.72 147.40 172.17 146.54 C 171.62 145.69 170.49 145.43 169.63 145.98 L 168.83 146.49 C 167.97 147.04 167.72 148.18 168.27 149.03 C 168.81 149.89 169.95 150.14 170.81 149.59 Z M 171.64 149.03 L 172.44 148.48 C 173.27 147.92 173.48 146.79 172.92 145.96 C 172.35 145.13 171.22 144.92 170.39 145.49 L 169.60 146.03 C 168.77 146.60 168.56 147.73 169.12 148.55 C 169.69 149.38 170.82 149.59 171.64 149.03 Z M 172.47 148.44 L 173.32 147.82 C 174.12 147.24 174.30 146.12 173.72 145.31 C 173.14 144.51 172.02 144.33 171.22 144.92 L 170.36 145.53 C 169.56 146.12 169.38 147.24 169.97 148.04 C 170.55 148.84 171.67 149.02 172.47 148.44 Z M 173.34 147.79 L 174.09 147.22 C 174.87 146.63 175.03 145.52 174.44 144.74 C 173.85 143.95 172.74 143.79 171.96 144.38 L 171.20 144.95 C 170.42 145.54 170.26 146.65 170.85 147.43 C 171.44 148.22 172.55 148.38 173.34 147.79 Z M 174.09 147.21 L 174.90 146.59 C 175.67 146.00 175.82 144.90 175.24 144.12 C 174.65 143.35 173.54 143.20 172.77 143.78 L 171.96 144.40 C 171.18 144.99 171.03 146.09 171.62 146.87 C 172.21 147.64 173.31 147.79 174.09 147.21 Z M 174.89 146.58 L 175.72 145.95 C 176.49 145.37 176.65 144.27 176.07 143.50 C 175.48 142.73 174.39 142.58 173.62 143.16 L 172.78 143.79 C 172.01 144.37 171.86 145.47 172.44 146.24 C 173.02 147.01 174.12 147.16 174.89 146.58 Z M 175.68 145.95 L 176.71 145.20 C 177.48 144.64 177.66 143.57 177.10 142.79 C 176.54 142.02 175.46 141.85 174.69 142.41 L 173.66 143.16 C 172.89 143.72 172.71 144.80 173.27 145.57 C 173.83 146.34 174.91 146.51 175.68 145.95 Z M 176.49 145.31 L 177.36 144.85 C 178.19 144.41 178.51 143.39 178.08 142.56 C 177.64 141.73 176.62 141.41 175.79 141.85 L 174.91 142.31 C 174.08 142.74 173.76 143.77 174.20 144.60 C 174.63 145.43 175.66 145.74 176.49 145.31 Z M 175.79 144.81 L 176.19 145.03 C 177.00 145.46 178.00 145.15 178.44 144.35 C 178.87 143.54 178.57 142.53 177.76 142.09 L 177.36 141.88 C 176.55 141.45 175.54 141.75 175.11 142.56 C 174.68 143.37 174.98 144.38 175.79 144.81 Z M 175.34 143.46 L 175.30 144.14 C 175.24 145.04 175.93 145.82 176.83 145.87 C 177.73 145.93 178.50 145.24 178.56 144.34 L 178.60 143.66 C 178.66 142.76 177.97 141.98 177.07 141.93 C 176.17 141.87 175.40 142.56 175.34 143.46 Z M 175.37 143.84 L 175.11 144.85 C 174.89 145.71 175.41 146.59 176.27 146.81 C 177.13 147.03 178.01 146.51 178.23 145.65 L 178.49 144.64 C 178.71 143.78 178.19 142.90 177.33 142.68 C 176.47 142.46 175.59 142.98 175.37 143.84 Z M 175.16 144.77 L 174.78 145.97 C 174.51 146.80 174.97 147.69 175.80 147.96 C 176.64 148.23 177.53 147.77 177.79 146.93 L 178.18 145.73 C 178.44 144.90 177.99 144.01 177.15 143.74 C 176.32 143.48 175.43 143.93 175.16 144.77 Z M 174.80 145.95 L 174.65 146.41 C 174.37 147.23 174.82 148.12 175.64 148.39 C 176.46 148.67 177.34 148.22 177.62 147.40 L 177.77 146.95 C 178.04 146.13 177.60 145.24 176.78 144.97 C 175.96 144.69 175.07 145.13 174.80 145.95 Z"
      fill="black"
      fill-rule="nonzero" /><path d="M 159.74 140.05 L 160.11 140.90 C 160.50 141.79 161.54 142.20 162.43 141.81 C 163.32 141.42 163.73 140.38 163.34 139.49 L 162.97 138.64 C 162.57 137.75 161.54 137.34 160.64 137.73 C 159.75 138.12 159.35 139.16 159.74 140.05 Z M 159.95 140.78 L 160.27 141.72 C 160.59 142.69 161.64 143.22 162.62 142.90 C 163.59 142.58 164.12 141.53 163.80 140.55 L 163.49 139.61 C 163.17 138.63 162.11 138.10 161.14 138.43 C 160.16 138.75 159.63 139.80 159.95 140.78 Z M 160.11 141.47 L 160.30 142.51 C 160.48 143.57 161.49 144.28 162.55 144.10 C 163.61 143.91 164.32 142.90 164.13 141.84 L 163.95 140.80 C 163.77 139.74 162.76 139.03 161.70 139.22 C 160.64 139.40 159.93 140.41 160.11 141.47 Z M 160.24 142.28 L 160.29 143.28 C 160.34 144.37 161.27 145.21 162.37 145.16 C 163.46 145.10 164.30 144.17 164.25 143.07 L 164.20 142.08 C 164.14 140.98 163.21 140.14 162.11 140.20 C 161.02 140.25 160.18 141.19 160.24 142.28 Z M 160.28 143.13 L 160.26 144.17 C 160.24 145.26 161.10 146.17 162.20 146.20 C 163.29 146.22 164.20 145.35 164.23 144.26 L 164.25 143.22 C 164.28 142.13 163.41 141.22 162.31 141.19 C 161.22 141.17 160.31 142.04 160.28 143.13 Z M 160.27 144.05 L 160.19 145.05 C 160.10 146.14 160.91 147.09 162.01 147.18 C 163.10 147.27 164.05 146.45 164.14 145.36 L 164.22 144.37 C 164.31 143.28 163.49 142.32 162.40 142.24 C 161.31 142.15 160.35 142.96 160.27 144.05 Z M 160.20 144.93 L 160.05 145.99 C 159.90 147.07 160.65 148.08 161.74 148.23 C 162.82 148.38 163.82 147.63 163.98 146.54 L 164.13 145.48 C 164.28 144.40 163.53 143.39 162.44 143.24 C 161.36 143.09 160.35 143.84 160.20 144.93 Z M 160.08 145.85 L 159.87 146.80 C 159.64 147.87 160.32 148.92 161.39 149.15 C 162.46 149.38 163.51 148.71 163.74 147.64 L 163.95 146.68 C 164.18 145.62 163.50 144.56 162.43 144.33 C 161.37 144.10 160.31 144.78 160.08 145.85 Z M 159.91 146.69 L 159.66 147.58 C 159.36 148.63 159.97 149.72 161.02 150.01 C 162.07 150.31 163.16 149.70 163.46 148.65 L 163.71 147.75 C 164.00 146.70 163.39 145.61 162.34 145.32 C 161.29 145.02 160.20 145.64 159.91 146.69 Z M 159.68 147.52 L 159.39 148.44 C 159.06 149.48 159.64 150.58 160.67 150.91 C 161.71 151.24 162.82 150.66 163.14 149.63 L 163.43 148.71 C 163.76 147.67 163.19 146.56 162.15 146.24 C 161.11 145.91 160.01 146.49 159.68 147.52 Z M 159.41 148.40 L 159.08 149.36 C 158.73 150.38 159.28 151.50 160.30 151.85 C 161.33 152.20 162.44 151.65 162.80 150.63 L 163.12 149.67 C 163.48 148.64 162.93 147.53 161.90 147.18 C 160.88 146.82 159.76 147.37 159.41 148.40 Z M 159.10 149.32 L 158.75 150.27 C 158.38 151.28 158.91 152.41 159.92 152.78 C 160.94 153.15 162.06 152.63 162.43 151.61 L 162.78 150.66 C 163.15 149.65 162.63 148.52 161.61 148.15 C 160.59 147.78 159.47 148.30 159.10 149.32 Z M 158.77 150.24 L 158.42 151.16 C 158.04 152.17 158.54 153.29 159.55 153.68 C 160.55 154.06 161.68 153.56 162.07 152.55 L 162.42 151.64 C 162.80 150.63 162.29 149.50 161.29 149.12 C 160.28 148.73 159.15 149.24 158.77 150.24 Z M 158.43 151.15 L 158.06 152.09 C 157.67 153.09 158.16 154.22 159.16 154.61 C 160.16 155.00 161.29 154.51 161.68 153.51 L 162.05 152.56 C 162.45 151.56 161.95 150.44 160.95 150.04 C 159.95 149.65 158.82 150.15 158.43 151.15 Z M 158.07 152.09 L 157.70 153.03 C 157.30 154.02 157.79 155.15 158.79 155.54 C 159.79 155.94 160.91 155.45 161.31 154.45 L 161.68 153.51 C 162.07 152.52 161.58 151.39 160.59 151.00 C 159.59 150.60 158.46 151.09 158.07 152.09 Z M 157.71 153.02 L 157.34 153.93 C 156.95 154.92 157.43 156.05 158.42 156.44 C 159.42 156.84 160.54 156.35 160.94 155.36 L 161.30 154.46 C 161.69 153.46 161.21 152.34 160.22 151.94 C 159.23 151.55 158.10 152.03 157.71 153.02 Z M 157.36 153.91 L 156.98 154.84 C 156.57 155.83 157.04 156.96 158.03 157.36 C 159.02 157.76 160.14 157.29 160.55 156.30 L 160.93 155.38 C 161.33 154.39 160.86 153.26 159.87 152.86 C 158.89 152.46 157.76 152.93 157.36 153.91 Z M 156.99 154.82 L 156.58 155.78 C 156.17 156.75 156.62 157.88 157.60 158.30 C 158.58 158.72 159.71 158.26 160.13 157.28 L 160.53 156.33 C 160.95 155.35 160.49 154.22 159.51 153.80 C 158.54 153.39 157.41 153.84 156.99 154.82 Z M 156.60 155.75 L 156.22 156.62 C 155.79 157.59 156.22 158.72 157.19 159.15 C 158.16 159.58 159.29 159.15 159.72 158.18 L 160.11 157.31 C 160.54 156.34 160.10 155.21 159.13 154.78 C 158.16 154.35 157.03 154.78 156.60 155.75 Z M 156.23 156.60 L 155.82 157.50 C 155.38 158.46 155.80 159.60 156.77 160.04 C 157.73 160.48 158.86 160.05 159.30 159.09 L 159.71 158.19 C 160.15 157.23 159.73 156.10 158.76 155.66 C 157.80 155.22 156.67 155.64 156.23 156.60 Z M 155.83 157.49 L 155.40 158.42 C 154.96 159.38 155.37 160.51 156.33 160.96 C 157.29 161.40 158.43 160.98 158.87 160.02 L 159.30 159.10 C 159.74 158.14 159.32 157.00 158.36 156.56 C 157.40 156.12 156.27 156.54 155.83 157.49 Z M 155.40 158.42 L 154.97 159.37 C 154.52 160.32 154.94 161.45 155.90 161.90 C 156.85 162.34 157.99 161.92 158.43 160.96 L 158.86 160.02 C 159.31 159.06 158.89 157.93 157.93 157.49 C 156.98 157.05 155.84 157.47 155.40 158.42 Z M 154.97 159.37 L 154.55 160.28 C 154.12 161.23 154.53 162.36 155.49 162.80 C 156.44 163.24 157.57 162.82 158.01 161.86 L 158.43 160.96 C 158.86 160.00 158.45 158.87 157.49 158.44 C 156.54 158.00 155.41 158.42 154.97 159.37 Z M 154.56 160.28 L 154.14 161.20 C 153.70 162.15 154.12 163.27 155.07 163.71 C 156.02 164.15 157.15 163.73 157.58 162.78 L 158.01 161.86 C 158.44 160.91 158.03 159.78 157.07 159.35 C 156.12 158.91 154.99 159.33 154.56 160.28 Z M 154.14 161.19 L 153.72 162.11 C 153.28 163.06 153.69 164.18 154.64 164.62 C 155.59 165.06 156.72 164.65 157.15 163.70 L 157.58 162.78 C 158.02 161.83 157.60 160.71 156.66 160.27 C 155.71 159.83 154.58 160.24 154.14 161.19 Z M 153.73 162.10 L 153.31 163.00 C 152.86 163.94 153.27 165.07 154.21 165.51 C 155.16 165.95 156.28 165.55 156.72 164.60 L 157.15 163.70 C 157.59 162.76 157.18 161.64 156.24 161.19 C 155.30 160.75 154.17 161.16 153.73 162.10 Z M 153.32 162.98 L 152.87 163.92 C 152.42 164.85 152.81 165.98 153.75 166.43 C 154.69 166.88 155.81 166.49 156.27 165.55 L 156.71 164.62 C 157.16 163.68 156.77 162.55 155.83 162.10 C 154.89 161.65 153.77 162.05 153.32 162.98 Z M 152.88 163.90 L 152.44 164.80 C 151.98 165.74 152.36 166.86 153.30 167.32 C 154.23 167.78 155.35 167.39 155.81 166.46 L 156.25 165.56 C 156.71 164.63 156.33 163.50 155.40 163.04 C 154.46 162.59 153.34 162.97 152.88 163.90 Z M 152.45 164.79 L 152.01 165.67 C 151.54 166.60 151.92 167.73 152.85 168.19 C 153.77 168.65 154.90 168.28 155.36 167.35 L 155.80 166.47 C 156.27 165.55 155.89 164.42 154.96 163.96 C 154.04 163.49 152.91 163.87 152.45 164.79 Z M 152.02 165.67 L 151.57 166.54 C 151.11 167.46 151.47 168.59 152.40 169.06 C 153.32 169.52 154.44 169.16 154.91 168.23 L 155.35 167.36 C 155.82 166.44 155.45 165.31 154.53 164.84 C 153.61 164.38 152.48 164.75 152.02 165.67 Z M 151.58 166.54 L 151.11 167.45 C 150.65 168.37 151.01 169.49 151.92 169.96 C 152.84 170.43 153.96 170.07 154.43 169.15 L 154.90 168.24 C 155.37 167.32 155.01 166.20 154.09 165.73 C 153.17 165.26 152.05 165.62 151.58 166.54 Z M 151.13 167.45 L 150.66 168.35 C 150.19 169.26 150.55 170.37 151.46 170.84 C 152.37 171.32 153.48 170.96 153.95 170.05 L 154.42 169.15 C 154.89 168.25 154.53 167.13 153.62 166.66 C 152.72 166.19 151.60 166.54 151.13 167.45 Z M 150.68 168.35 L 150.22 169.21 C 149.75 170.12 150.10 171.23 151.00 171.70 C 151.90 172.17 153.01 171.83 153.48 170.92 L 153.94 170.06 C 154.41 169.15 154.06 168.04 153.16 167.57 C 152.26 167.10 151.15 167.44 150.68 168.35 Z M 150.24 169.21 L 149.76 170.10 C 149.29 171.00 149.62 172.10 150.52 172.58 C 151.41 173.05 152.51 172.72 152.99 171.83 L 153.47 170.93 C 153.94 170.04 153.60 168.93 152.71 168.46 C 151.82 167.98 150.71 168.32 150.24 169.21 Z M 149.78 170.10 L 149.29 171.00 C 148.81 171.88 149.13 172.98 150.01 173.46 C 150.89 173.94 151.99 173.62 152.47 172.74 L 152.97 171.83 C 153.45 170.95 153.12 169.85 152.25 169.37 C 151.37 168.89 150.26 169.22 149.78 170.10 Z M 149.32 170.99 L 148.84 171.84 C 148.35 172.70 148.65 173.80 149.52 174.29 C 150.38 174.77 151.48 174.47 151.97 173.60 L 152.45 172.75 C 152.93 171.89 152.63 170.79 151.76 170.31 C 150.90 169.82 149.80 170.12 149.32 170.99 Z M 148.87 171.82 L 148.38 172.65 C 147.88 173.49 148.16 174.58 149.01 175.08 C 149.85 175.58 150.94 175.30 151.44 174.45 L 151.93 173.63 C 152.43 172.78 152.15 171.69 151.30 171.19 C 150.46 170.69 149.37 170.97 148.87 171.82 Z M 148.43 172.60 L 147.89 173.45 C 147.37 174.26 147.61 175.35 148.43 175.87 C 149.25 176.40 150.33 176.16 150.86 175.34 L 151.39 174.50 C 151.92 173.68 151.68 172.59 150.86 172.07 C 150.04 171.55 148.95 171.79 148.43 172.60 Z M 147.98 173.37 L 147.39 174.16 C 146.83 174.93 146.99 176.02 147.76 176.59 C 148.54 177.15 149.62 176.99 150.19 176.21 L 150.77 175.42 C 151.34 174.65 151.17 173.56 150.40 172.99 C 149.63 172.43 148.54 172.59 147.98 173.37 Z M 147.50 174.07 L 146.86 174.80 C 146.24 175.52 146.31 176.60 147.02 177.22 C 147.74 177.84 148.82 177.76 149.44 177.05 L 150.08 176.31 C 150.70 175.60 150.63 174.52 149.91 173.90 C 149.20 173.28 148.12 173.35 147.50 174.07 Z M 146.95 174.74 L 146.25 175.44 C 145.59 176.10 145.60 177.17 146.26 177.83 C 146.92 178.48 147.99 178.48 148.65 177.82 L 149.35 177.12 C 150.00 176.45 150.00 175.39 149.34 174.73 C 148.68 174.07 147.61 174.08 146.95 174.74 Z M 146.31 175.42 L 145.56 176.11 C 144.89 176.74 144.86 177.80 145.49 178.47 C 146.12 179.14 147.17 179.17 147.84 178.54 L 148.59 177.85 C 149.26 177.22 149.29 176.16 148.66 175.49 C 148.03 174.82 146.98 174.79 146.31 175.42 Z M 145.59 176.11 L 145.27 176.40 C 144.60 177.02 144.56 178.06 145.17 178.74 C 145.79 179.41 146.84 179.45 147.51 178.83 L 147.82 178.54 C 148.49 177.93 148.54 176.88 147.92 176.21 C 147.30 175.54 146.26 175.50 145.59 176.11 Z"
      fill="black"
      fill-rule="nonzero" /><path d="M 158.90 161.42 L 159.82 161.41 C 160.88 161.40 161.72 160.53 161.71 159.48 C 161.70 158.43 160.84 157.58 159.78 157.59 L 158.86 157.60 C 157.81 157.61 156.96 158.48 156.98 159.53 C 156.99 160.58 157.85 161.43 158.90 161.42 Z M 159.94 161.40 L 160.93 161.33 C 161.98 161.25 162.77 160.34 162.69 159.29 C 162.62 158.24 161.70 157.45 160.66 157.53 L 159.67 157.60 C 158.62 157.68 157.83 158.59 157.90 159.64 C 157.98 160.69 158.89 161.47 159.94 161.40 Z M 161.11 161.30 L 162.16 161.12 C 163.19 160.95 163.89 159.97 163.72 158.94 C 163.54 157.90 162.56 157.20 161.53 157.38 L 160.48 157.55 C 159.44 157.73 158.75 158.71 158.92 159.74 C 159.09 160.78 160.07 161.48 161.11 161.30 Z M 162.29 161.09 L 163.25 160.86 C 164.27 160.61 164.89 159.59 164.65 158.57 C 164.40 157.56 163.38 156.93 162.36 157.18 L 161.40 157.41 C 160.38 157.66 159.76 158.68 160.00 159.70 C 160.25 160.71 161.27 161.34 162.29 161.09 Z M 163.29 160.84 L 164.29 160.58 C 165.30 160.31 165.90 159.28 165.63 158.27 C 165.36 157.26 164.33 156.66 163.32 156.93 L 162.32 157.19 C 161.31 157.46 160.71 158.50 160.98 159.50 C 161.25 160.51 162.28 161.11 163.29 160.84 Z M 164.26 160.58 L 165.24 160.33 C 166.25 160.08 166.86 159.05 166.60 158.05 C 166.35 157.04 165.33 156.43 164.32 156.68 L 163.34 156.93 C 162.34 157.18 161.73 158.21 161.98 159.21 C 162.24 160.22 163.26 160.83 164.26 160.58 Z M 165.12 160.36 L 166.25 160.15 C 167.27 159.96 167.95 158.98 167.76 157.96 C 167.57 156.93 166.58 156.26 165.56 156.45 L 164.44 156.65 C 163.41 156.84 162.74 157.83 162.93 158.85 C 163.12 159.87 164.10 160.55 165.12 160.36 Z M 165.91 160.20 L 166.91 160.20 C 167.96 160.19 168.81 159.34 168.81 158.28 C 168.80 157.23 167.94 156.38 166.89 156.39 L 165.89 156.40 C 164.84 156.40 163.99 157.26 164.00 158.31 C 164.01 159.36 164.86 160.21 165.91 160.20 Z M 166.14 160.06 L 166.88 160.38 C 167.85 160.80 168.99 160.35 169.41 159.37 C 169.83 158.39 169.37 157.26 168.40 156.84 L 167.66 156.52 C 166.68 156.10 165.55 156.56 165.13 157.53 C 164.71 158.51 165.16 159.64 166.14 160.06 Z M 165.99 159.64 L 166.45 160.38 C 167.02 161.29 168.22 161.56 169.13 160.99 C 170.04 160.42 170.32 159.21 169.74 158.30 L 169.28 157.57 C 168.71 156.66 167.51 156.39 166.60 156.96 C 165.69 157.53 165.42 158.74 165.99 159.64 Z M 166.17 159.73 L 166.39 160.78 C 166.60 161.85 167.63 162.53 168.69 162.32 C 169.76 162.11 170.44 161.07 170.23 160.01 L 170.02 158.95 C 169.81 157.89 168.77 157.20 167.71 157.42 C 166.65 157.63 165.96 158.66 166.17 159.73 Z M 166.34 160.49 L 166.39 161.54 C 166.44 162.63 167.37 163.47 168.46 163.41 C 169.54 163.36 170.38 162.43 170.33 161.35 L 170.28 160.30 C 170.22 159.21 169.30 158.38 168.21 158.43 C 167.12 158.48 166.29 159.41 166.34 160.49 Z M 166.38 161.39 L 166.36 162.41 C 166.33 163.50 167.18 164.41 168.27 164.44 C 169.36 164.47 170.27 163.61 170.30 162.52 L 170.33 161.50 C 170.36 160.41 169.51 159.50 168.42 159.47 C 167.32 159.44 166.42 160.30 166.38 161.39 Z M 166.36 162.27 L 166.27 163.28 C 166.16 164.37 166.96 165.33 168.04 165.44 C 169.13 165.55 170.10 164.75 170.20 163.66 L 170.30 162.65 C 170.40 161.57 169.61 160.60 168.52 160.50 C 167.43 160.39 166.47 161.19 166.36 162.27 Z M 166.28 163.12 L 166.11 164.12 C 165.91 165.20 166.63 166.23 167.70 166.42 C 168.78 166.61 169.81 165.90 170.00 164.82 L 170.18 163.82 C 170.37 162.75 169.66 161.72 168.58 161.52 C 167.51 161.33 166.48 162.05 166.28 163.12 Z M 166.14 163.94 L 165.87 164.91 C 165.58 165.96 166.20 167.05 167.25 167.35 C 168.31 167.64 169.40 167.03 169.69 165.97 L 169.96 165.01 C 170.26 163.95 169.64 162.86 168.59 162.56 C 167.53 162.27 166.44 162.89 166.14 163.94 Z M 165.92 164.76 L 165.59 165.67 C 165.21 166.71 165.75 167.84 166.78 168.22 C 167.81 168.59 168.95 168.06 169.32 167.02 L 169.65 166.11 C 170.03 165.08 169.49 163.94 168.46 163.57 C 167.43 163.20 166.29 163.73 165.92 164.76 Z M 165.61 165.61 L 165.25 166.50 C 164.84 167.52 165.34 168.68 166.36 169.09 C 167.38 169.50 168.54 169.00 168.94 167.98 L 169.30 167.09 C 169.71 166.07 169.22 164.91 168.20 164.50 C 167.18 164.09 166.02 164.59 165.61 165.61 Z M 165.27 166.46 L 164.88 167.38 C 164.45 168.39 164.92 169.56 165.93 169.99 C 166.94 170.42 168.11 169.95 168.54 168.93 L 168.93 168.02 C 169.36 167.01 168.89 165.84 167.88 165.41 C 166.86 164.98 165.69 165.45 165.27 166.46 Z M 164.89 167.34 L 164.47 168.28 C 164.02 169.28 164.47 170.46 165.47 170.91 C 166.47 171.36 167.65 170.92 168.10 169.91 L 168.53 168.97 C 168.98 167.97 168.53 166.79 167.53 166.34 C 166.52 165.89 165.34 166.34 164.89 167.34 Z M 164.49 168.24 L 164.07 169.13 C 163.60 170.12 164.02 171.31 165.01 171.78 C 166.01 172.25 167.19 171.83 167.67 170.83 L 168.08 169.95 C 168.56 168.96 168.13 167.77 167.14 167.30 C 166.15 166.83 164.96 167.25 164.49 168.24 Z M 164.08 169.10 L 163.64 169.99 C 163.16 170.98 163.56 172.17 164.55 172.66 C 165.54 173.14 166.73 172.74 167.22 171.75 L 167.66 170.86 C 168.14 169.87 167.73 168.68 166.74 168.19 C 165.76 167.71 164.56 168.11 164.08 169.10 Z M 163.65 169.99 L 163.19 170.90 C 162.70 171.89 163.10 173.08 164.09 173.57 C 165.07 174.06 166.27 173.66 166.76 172.67 L 167.21 171.76 C 167.70 170.77 167.30 169.58 166.32 169.09 C 165.33 168.60 164.13 169.00 163.65 169.99 Z M 163.19 170.91 L 162.74 171.81 C 162.25 172.80 162.66 174.00 163.65 174.48 C 164.63 174.97 165.83 174.56 166.31 173.58 L 166.76 172.67 C 167.25 171.68 166.84 170.49 165.86 170.00 C 164.87 169.52 163.67 169.92 163.19 170.91 Z M 162.74 171.82 L 162.29 172.72 C 161.81 173.71 162.21 174.90 163.20 175.39 C 164.19 175.87 165.38 175.47 165.87 174.48 L 166.31 173.58 C 166.80 172.59 166.39 171.40 165.41 170.91 C 164.42 170.42 163.23 170.83 162.74 171.82 Z M 162.30 172.71 L 161.85 173.60 C 161.36 174.59 161.75 175.79 162.74 176.28 C 163.72 176.77 164.92 176.37 165.41 175.39 L 165.86 174.49 C 166.35 173.51 165.96 172.31 164.97 171.82 C 163.99 171.33 162.79 171.72 162.30 172.71 Z M 161.86 173.58 L 161.40 174.47 C 160.89 175.45 161.27 176.65 162.25 177.16 C 163.23 177.67 164.43 177.28 164.94 176.31 L 165.40 175.42 C 165.91 174.44 165.53 173.24 164.55 172.73 C 163.57 172.22 162.37 172.60 161.86 173.58 Z M 161.42 174.44 L 160.93 175.33 C 160.40 176.30 160.76 177.51 161.73 178.04 C 162.70 178.56 163.91 178.20 164.43 177.24 L 164.92 176.34 C 165.44 175.37 165.09 174.16 164.12 173.64 C 163.15 173.11 161.94 173.47 161.42 174.44 Z M 160.95 175.30 L 160.46 176.16 C 159.92 177.12 160.25 178.34 161.21 178.88 C 162.17 179.42 163.38 179.09 163.93 178.13 L 164.41 177.27 C 164.96 176.31 164.62 175.10 163.66 174.55 C 162.71 174.01 161.49 174.35 160.95 175.30 Z M 160.47 176.14 L 159.98 176.99 C 159.42 177.94 159.74 179.16 160.69 179.71 C 161.64 180.27 162.86 179.95 163.41 179.00 L 163.91 178.15 C 164.47 177.20 164.15 175.98 163.20 175.43 C 162.25 174.87 161.03 175.19 160.47 176.14 Z M 159.99 176.96 L 159.47 177.83 C 158.90 178.78 159.20 180.00 160.14 180.57 C 161.08 181.14 162.31 180.84 162.88 179.89 L 163.40 179.02 C 163.97 178.08 163.67 176.86 162.73 176.29 C 161.78 175.72 160.56 176.02 159.99 176.96 Z M 159.48 177.81 L 158.96 178.65 C 158.37 179.58 158.66 180.81 159.59 181.39 C 160.52 181.98 161.75 181.69 162.33 180.76 L 162.86 179.92 C 163.44 178.99 163.16 177.76 162.23 177.18 C 161.29 176.59 160.07 176.88 159.48 177.81 Z M 158.98 178.62 L 158.43 179.46 C 157.83 180.38 158.09 181.61 159.01 182.21 C 159.93 182.81 161.16 182.55 161.76 181.63 L 162.31 180.79 C 162.91 179.87 162.65 178.64 161.73 178.04 C 160.81 177.44 159.58 177.70 158.98 178.62 Z M 158.46 179.42 L 157.88 180.26 C 157.26 181.17 157.49 182.40 158.39 183.02 C 159.30 183.64 160.53 183.42 161.15 182.51 L 161.73 181.67 C 162.35 180.77 162.12 179.53 161.22 178.91 C 160.32 178.29 159.08 178.52 158.46 179.42 Z M 157.91 180.22 L 157.34 181.01 C 156.70 181.90 156.90 183.14 157.78 183.78 C 158.67 184.42 159.91 184.22 160.55 183.34 L 161.12 182.55 C 161.76 181.67 161.57 180.43 160.68 179.78 C 159.80 179.14 158.56 179.34 157.91 180.22 Z M 157.38 180.96 L 156.80 181.71 C 156.14 182.57 156.29 183.82 157.16 184.48 C 158.02 185.15 159.26 184.99 159.93 184.13 L 160.51 183.39 C 161.18 182.52 161.02 181.28 160.16 180.61 C 159.29 179.94 158.05 180.10 157.38 180.96 Z M 156.86 181.65 L 156.23 182.39 C 155.53 183.22 155.63 184.47 156.46 185.17 C 157.29 185.87 158.54 185.77 159.24 184.94 L 159.87 184.20 C 160.57 183.36 160.47 182.12 159.64 181.42 C 158.81 180.71 157.57 180.82 156.86 181.65 Z M 156.30 182.33 L 155.58 183.10 C 154.84 183.89 154.89 185.14 155.68 185.88 C 156.47 186.62 157.72 186.57 158.46 185.78 L 159.18 185.00 C 159.92 184.21 159.87 182.96 159.08 182.23 C 158.28 181.49 157.04 181.53 156.30 182.33 Z M 155.64 183.05 L 154.92 183.76 C 154.16 184.51 154.15 185.75 154.91 186.52 C 155.67 187.29 156.91 187.30 157.67 186.54 L 158.39 185.83 C 159.16 185.07 159.17 183.83 158.41 183.06 C 157.65 182.29 156.41 182.29 155.64 183.05 Z M 155.02 183.68 L 154.24 184.36 C 153.43 185.07 153.35 186.30 154.06 187.11 C 154.77 187.92 156.00 188.00 156.81 187.29 L 157.58 186.61 C 158.39 185.90 158.47 184.67 157.76 183.86 C 157.05 183.05 155.82 182.97 155.02 183.68 Z M 154.40 184.25 L 153.59 184.83 C 152.72 185.45 152.52 186.66 153.14 187.53 C 153.77 188.40 154.98 188.60 155.85 187.98 L 156.65 187.40 C 157.52 186.78 157.72 185.57 157.10 184.70 C 156.48 183.83 155.27 183.63 154.40 184.25 Z M 154.01 184.63 L 152.98 185.04 C 152.00 185.43 151.52 186.54 151.91 187.52 C 152.30 188.50 153.41 188.98 154.39 188.59 L 155.43 188.17 C 156.40 187.78 156.88 186.67 156.49 185.70 C 156.10 184.72 154.99 184.24 154.01 184.63 Z M 154.24 185.04 L 153.45 184.80 C 152.47 184.49 151.43 185.04 151.13 186.02 C 150.82 187.00 151.37 188.04 152.35 188.35 L 153.13 188.59 C 154.11 188.89 155.15 188.35 155.46 187.37 C 155.76 186.39 155.21 185.35 154.24 185.04 Z M 154.51 185.77 L 154.16 185.07 C 153.72 184.19 152.64 183.83 151.75 184.27 C 150.87 184.71 150.51 185.79 150.95 186.67 L 151.30 187.37 C 151.74 188.26 152.82 188.62 153.70 188.18 C 154.59 187.73 154.95 186.66 154.51 185.77 Z M 154.24 185.56 L 154.05 184.56 C 153.88 183.63 152.98 183.01 152.05 183.19 C 151.12 183.36 150.51 184.26 150.68 185.19 L 150.87 186.19 C 151.04 187.12 151.94 187.73 152.87 187.56 C 153.80 187.39 154.41 186.49 154.24 185.56 Z M 154.00 184.72 L 153.89 183.56 C 153.80 182.66 153.00 182.00 152.10 182.09 C 151.20 182.17 150.54 182.97 150.63 183.87 L 150.74 185.03 C 150.82 185.93 151.62 186.59 152.52 186.50 C 153.42 186.42 154.08 185.62 154.00 184.72 Z M 153.85 183.59 L 153.84 183.53 C 153.77 182.66 153.00 182.00 152.12 182.07 C 151.25 182.14 150.59 182.91 150.66 183.79 L 150.67 183.84 C 150.74 184.72 151.51 185.38 152.39 185.30 C 153.26 185.23 153.92 184.46 153.85 183.59 Z"
      fill="black"
      fill-rule="nonzero" /><path d="M 155.83 167.89 L 156.51 168.68 C 157.16 169.43 158.29 169.51 159.04 168.86 C 159.79 168.21 159.88 167.08 159.23 166.33 L 158.54 165.54 C 157.90 164.79 156.76 164.71 156.01 165.35 C 155.26 166.00 155.18 167.14 155.83 167.89 Z M 156.41 168.77 L 157.08 169.55 C 157.78 170.36 159.00 170.44 159.81 169.74 C 160.62 169.04 160.71 167.82 160.01 167.01 L 159.34 166.24 C 158.63 165.43 157.41 165.34 156.60 166.04 C 155.79 166.74 155.70 167.96 156.41 168.77 Z M 156.97 169.65 L 157.61 170.38 C 158.37 171.25 159.68 171.34 160.55 170.58 C 161.42 169.83 161.51 168.51 160.75 167.65 L 160.11 166.91 C 159.36 166.04 158.04 165.95 157.17 166.71 C 156.31 167.46 156.22 168.78 156.97 169.65 Z M 157.53 170.46 L 158.18 171.20 C 158.98 172.11 160.37 172.20 161.28 171.40 C 162.19 170.60 162.28 169.21 161.48 168.30 L 160.83 167.56 C 160.03 166.65 158.64 166.56 157.73 167.36 C 156.82 168.17 156.73 169.55 157.53 170.46 Z M 158.16 171.24 L 158.83 171.99 C 159.65 172.92 161.07 173.00 161.99 172.18 C 162.91 171.36 162.99 169.94 162.17 169.02 L 161.50 168.27 C 160.68 167.34 159.27 167.26 158.34 168.08 C 157.42 168.90 157.34 170.32 158.16 171.24 Z M 158.84 172.00 L 159.48 172.72 C 160.31 173.64 161.72 173.72 162.64 172.90 C 163.56 172.07 163.64 170.66 162.81 169.74 L 162.17 169.02 C 161.34 168.10 159.93 168.02 159.01 168.84 C 158.09 169.66 158.01 171.08 158.84 172.00 Z M 159.48 172.72 L 160.12 173.43 C 160.95 174.35 162.36 174.43 163.28 173.61 C 164.20 172.79 164.28 171.38 163.46 170.46 L 162.81 169.74 C 161.99 168.82 160.58 168.74 159.66 169.56 C 158.74 170.39 158.66 171.80 159.48 172.72 Z M 160.12 173.43 L 160.77 174.16 C 161.59 175.08 163.00 175.16 163.92 174.34 C 164.84 173.52 164.92 172.11 164.10 171.19 L 163.45 170.47 C 162.64 169.55 161.23 169.46 160.31 170.28 C 159.39 171.10 159.31 172.51 160.12 173.43 Z M 160.78 174.16 L 161.46 174.92 C 162.28 175.84 163.69 175.92 164.60 175.09 C 165.52 174.27 165.60 172.87 164.78 171.95 L 164.10 171.19 C 163.28 170.28 161.87 170.20 160.95 171.02 C 160.04 171.84 159.96 173.25 160.78 174.16 Z M 161.47 174.93 L 162.16 175.68 C 162.98 176.59 164.39 176.66 165.30 175.84 C 166.20 175.01 166.27 173.60 165.45 172.70 L 164.77 171.94 C 163.94 171.03 162.53 170.96 161.63 171.79 C 160.72 172.61 160.65 174.02 161.47 174.93 Z M 162.17 175.69 L 162.83 176.41 C 163.66 177.31 165.06 177.37 165.96 176.54 C 166.86 175.71 166.92 174.31 166.09 173.40 L 165.43 172.69 C 164.61 171.79 163.20 171.73 162.30 172.56 C 161.40 173.39 161.34 174.79 162.17 175.69 Z M 162.84 176.41 L 163.52 177.14 C 164.35 178.04 165.75 178.09 166.65 177.26 C 167.54 176.43 167.59 175.03 166.76 174.14 L 166.08 173.40 C 165.25 172.50 163.85 172.45 162.96 173.28 C 162.06 174.11 162.01 175.51 162.84 176.41 Z M 163.53 177.14 L 164.23 177.90 C 165.06 178.79 166.46 178.84 167.35 178.01 C 168.24 177.18 168.29 175.79 167.46 174.89 L 166.76 174.14 C 165.93 173.24 164.53 173.19 163.64 174.02 C 162.75 174.85 162.70 176.25 163.53 177.14 Z M 164.23 177.89 L 164.90 178.61 C 165.73 179.50 167.12 179.55 168.01 178.72 C 168.90 177.90 168.95 176.50 168.12 175.61 L 167.46 174.90 C 166.63 174.01 165.24 173.96 164.35 174.78 C 163.46 175.61 163.41 177.00 164.23 177.89 Z M 164.90 178.60 L 165.58 179.33 C 166.40 180.21 167.79 180.26 168.68 179.44 C 169.56 178.61 169.61 177.23 168.79 176.34 L 168.11 175.62 C 167.29 174.73 165.90 174.68 165.02 175.51 C 164.13 176.33 164.08 177.72 164.90 178.60 Z M 165.59 179.33 L 166.28 180.06 C 167.10 180.94 168.48 180.99 169.36 180.17 C 170.25 179.34 170.29 177.96 169.47 177.08 L 168.78 176.34 C 167.95 175.46 166.57 175.41 165.69 176.24 C 164.81 177.06 164.76 178.44 165.59 179.33 Z M 166.29 180.06 L 167.00 180.82 C 167.82 181.69 169.20 181.73 170.07 180.91 C 170.95 180.08 170.99 178.71 170.17 177.83 L 169.46 177.08 C 168.63 176.20 167.25 176.16 166.38 176.99 C 165.50 177.81 165.46 179.19 166.29 180.06 Z M 167.01 180.82 L 167.70 181.54 C 168.52 182.41 169.90 182.44 170.76 181.62 C 171.63 180.79 171.66 179.42 170.84 178.56 L 170.15 177.83 C 169.33 176.97 167.96 176.93 167.09 177.75 C 166.22 178.58 166.19 179.95 167.01 180.82 Z M 167.72 181.53 L 168.41 182.26 C 169.23 183.12 170.59 183.15 171.45 182.33 C 172.31 181.51 172.34 180.15 171.52 179.29 L 170.82 178.56 C 170.00 177.71 168.64 177.68 167.79 178.50 C 166.93 179.32 166.90 180.68 167.72 181.53 Z M 168.43 182.25 L 169.12 182.98 C 169.93 183.83 171.28 183.86 172.13 183.05 C 172.99 182.23 173.02 180.88 172.20 180.03 L 171.51 179.30 C 170.69 178.45 169.34 178.42 168.49 179.24 C 167.64 180.05 167.61 181.40 168.43 182.25 Z M 169.13 182.96 L 169.81 183.68 C 170.62 184.53 171.96 184.56 172.80 183.75 C 173.65 182.95 173.68 181.61 172.88 180.76 L 172.19 180.05 C 171.39 179.20 170.05 179.17 169.20 179.97 C 168.36 180.78 168.32 182.12 169.13 182.96 Z M 169.82 183.66 L 170.53 184.41 C 171.32 185.25 172.65 185.29 173.49 184.49 C 174.33 183.70 174.37 182.37 173.57 181.53 L 172.87 180.78 C 172.07 179.94 170.75 179.90 169.90 180.70 C 169.06 181.49 169.03 182.82 169.82 183.66 Z M 170.54 184.39 L 171.23 185.12 C 172.02 185.96 173.33 186.00 174.16 185.21 C 175.00 184.43 175.04 183.11 174.25 182.28 L 173.56 181.54 C 172.77 180.71 171.46 180.67 170.63 181.46 C 169.79 182.24 169.75 183.56 170.54 184.39 Z M 171.25 185.11 L 171.93 185.83 C 172.71 186.65 174.01 186.69 174.83 185.91 C 175.66 185.13 175.69 183.83 174.91 183.01 L 174.23 182.29 C 173.45 181.46 172.15 181.43 171.33 182.21 C 170.50 182.99 170.47 184.29 171.25 185.11 Z M 171.95 185.83 L 172.63 186.53 C 173.41 187.34 174.69 187.37 175.50 186.59 C 176.31 185.81 176.34 184.52 175.56 183.71 L 174.89 183.01 C 174.11 182.20 172.82 182.17 172.01 182.95 C 171.20 183.73 171.18 185.02 171.95 185.83 Z M 172.66 186.53 L 173.38 187.26 C 174.15 188.05 175.42 188.06 176.22 187.29 C 177.01 186.51 177.02 185.24 176.25 184.45 L 175.53 183.72 C 174.76 182.93 173.49 182.91 172.69 183.69 C 171.90 184.46 171.89 185.73 172.66 186.53 Z M 173.41 187.24 L 174.12 187.96 C 174.88 188.73 176.13 188.74 176.91 187.97 C 177.68 187.21 177.69 185.96 176.92 185.18 L 176.22 184.47 C 175.45 183.69 174.20 183.69 173.43 184.45 C 172.65 185.22 172.64 186.47 173.41 187.24 Z M 174.14 187.93 L 174.83 188.63 C 175.58 189.40 176.81 189.41 177.57 188.66 C 178.34 187.90 178.35 186.67 177.59 185.91 L 176.90 185.21 C 176.15 184.45 174.92 184.44 174.16 185.19 C 173.40 185.94 173.39 187.17 174.14 187.93 Z M 174.84 188.60 L 175.54 189.32 C 176.27 190.08 177.48 190.10 178.24 189.37 C 179.00 188.64 179.02 187.43 178.28 186.67 L 177.58 185.95 C 176.85 185.19 175.64 185.17 174.89 185.90 C 174.13 186.63 174.11 187.84 174.84 188.60 Z M 175.56 189.28 L 176.26 190.03 C 176.97 190.78 178.15 190.81 178.90 190.10 C 179.65 189.39 179.68 188.20 178.97 187.45 L 178.27 186.71 C 177.56 185.96 176.38 185.93 175.63 186.64 C 174.88 187.35 174.85 188.53 175.56 189.28 Z M 176.29 190.00 L 176.96 190.71 C 177.65 191.45 178.81 191.48 179.55 190.79 C 180.28 190.10 180.32 188.94 179.62 188.20 L 178.95 187.49 C 178.26 186.75 177.10 186.72 176.36 187.41 C 175.63 188.10 175.59 189.26 176.29 190.00 Z M 177.00 190.69 L 177.68 191.41 C 178.36 192.12 179.49 192.15 180.21 191.46 C 180.92 190.78 180.95 189.65 180.27 188.94 L 179.59 188.22 C 178.90 187.51 177.77 187.48 177.06 188.16 C 176.34 188.85 176.32 189.98 177.00 190.69 Z M 177.73 191.39 L 178.45 192.14 C 179.13 192.82 180.23 192.83 180.92 192.16 C 181.61 191.48 181.62 190.38 180.95 189.69 L 180.22 188.95 C 179.54 188.26 178.44 188.25 177.75 188.92 C 177.06 189.60 177.05 190.71 177.73 191.39 Z M 178.50 192.13 L 179.20 192.81 C 179.87 193.47 180.95 193.47 181.61 192.80 C 182.27 192.12 182.27 191.04 181.59 190.38 L 180.90 189.69 C 180.23 189.03 179.15 189.04 178.48 189.71 C 177.82 190.38 177.83 191.46 178.50 192.13 Z M 179.25 192.81 L 179.97 193.49 C 180.64 194.12 181.69 194.10 182.33 193.43 C 182.96 192.76 182.93 191.71 182.26 191.07 L 181.54 190.39 C 180.88 189.75 179.82 189.78 179.19 190.45 C 178.55 191.12 178.58 192.17 179.25 192.81 Z M 180.02 193.49 L 180.76 194.16 C 181.42 194.77 182.45 194.73 183.06 194.06 C 183.67 193.40 183.62 192.36 182.96 191.76 L 182.22 191.08 C 181.55 190.47 180.52 190.52 179.91 191.18 C 179.30 191.85 179.35 192.88 180.02 193.49 Z M 180.79 194.15 L 181.51 194.80 C 182.17 195.39 183.18 195.33 183.77 194.67 C 184.36 194.02 184.30 193.00 183.65 192.41 L 182.93 191.77 C 182.27 191.18 181.26 191.23 180.67 191.89 C 180.08 192.55 180.13 193.56 180.79 194.15 Z M 181.53 194.78 L 182.27 195.45 C 182.92 196.03 183.92 195.98 184.50 195.33 C 185.09 194.68 185.03 193.68 184.38 193.10 L 183.63 192.43 C 182.98 191.85 181.98 191.90 181.40 192.55 C 180.82 193.20 180.88 194.20 181.53 194.78 Z M 182.28 195.44 L 183.02 196.11 C 183.67 196.68 184.66 196.63 185.24 195.98 C 185.81 195.34 185.76 194.35 185.11 193.77 L 184.37 193.11 C 183.73 192.53 182.74 192.58 182.16 193.23 C 181.58 193.87 181.64 194.87 182.28 195.44 Z"
      fill="black"
      fill-rule="nonzero" /></svg>