<svg xmlns="http://www.w3.org/2000/svg" width="300" height="300" viewBox="0 0 300 300">
<path d="M 151.05 127.56 L 152.01 127.31 C 153.05 127.03 153.66 125.97 153.39 124.93 C 153.11 123.89 152.05 123.28 151.01 123.55 L 150.05 123.81 C 149.02 124.09 148.40 125.15 148.68 126.19 C 148.95 127.22 150.02 127.84 151.05 127.56 Z M 152.07 127.34 L 153.03 127.06 C 154.08 126.75 154.69 125.64 154.38 124.59 C 154.07 123.53 152.96 122.93 151.91 123.24 L 150.95 123.52 C 149.90 123.83 149.29 124.94 149.60 125.99 C 149.91 127.04 151.02 127.65 152.07 127.34 Z M 153.13 127.07 L 154.09 126.74 C 155.15 126.38 155.71 125.22 155.34 124.15 C 154.97 123.09 153.81 122.53 152.75 122.90 L 151.80 123.23 C 150.74 123.59 150.18 124.75 150.54 125.82 C 150.91 126.88 152.07 127.44 153.13 127.07 Z M 154.20 126.72 L 154.96 126.41 C 156.00 125.98 156.50 124.78 156.07 123.73 C 155.64 122.68 154.44 122.18 153.40 122.61 L 152.64 122.92 C 151.59 123.35 151.09 124.55 151.52 125.60 C 151.95 126.65 153.15 127.15 154.20 126.72 Z M 155.02 126.36 L 155.85 125.98 C 156.87 125.52 157.32 124.31 156.86 123.28 C 156.39 122.26 155.18 121.81 154.15 122.28 L 153.33 122.65 C 152.30 123.12 151.85 124.33 152.32 125.36 C 152.79 126.38 154.00 126.83 155.02 126.36 Z M 155.88 125.95 L 156.85 125.49 C 157.85 125.00 158.27 123.79 157.79 122.78 C 157.30 121.77 156.09 121.35 155.08 121.84 L 154.12 122.31 C 153.11 122.79 152.69 124.01 153.18 125.01 C 153.67 126.02 154.88 126.44 155.88 125.95 Z M 156.85 125.47 L 157.92 124.94 C 158.91 124.45 159.32 123.25 158.83 122.25 C 158.34 121.25 157.13 120.84 156.14 121.34 L 155.07 121.86 C 154.08 122.35 153.67 123.56 154.16 124.55 C 154.65 125.55 155.86 125.96 156.85 125.47 Z M 157.91 124.93 L 158.76 124.51 C 159.75 124.02 160.16 122.83 159.67 121.84 C 159.18 120.85 157.99 120.44 157.00 120.93 L 156.14 121.35 C 155.16 121.84 154.75 123.03 155.24 124.02 C 155.72 125.01 156.92 125.42 157.91 124.93 Z M 158.75 124.49 L 159.67 124.04 C 160.65 123.56 161.06 122.38 160.57 121.39 C 160.09 120.41 158.90 120.01 157.92 120.49 L 157.01 120.94 C 156.03 121.43 155.62 122.61 156.11 123.59 C 156.59 124.57 157.77 124.98 158.75 124.49 Z M 159.66 124.03 L 160.61 123.56 C 161.58 123.09 161.98 121.91 161.50 120.94 C 161.03 119.97 159.85 119.57 158.88 120.04 L 157.93 120.51 C 156.96 120.99 156.56 122.16 157.04 123.13 C 157.51 124.10 158.69 124.51 159.66 124.03 Z M 160.60 123.55 L 161.54 123.09 C 162.50 122.62 162.90 121.45 162.43 120.49 C 161.95 119.52 160.79 119.13 159.83 119.60 L 158.89 120.06 C 157.92 120.53 157.53 121.70 158.00 122.66 C 158.47 123.62 159.63 124.02 160.60 123.55 Z M 161.53 123.07 L 162.43 122.63 C 163.38 122.17 163.78 121.01 163.31 120.06 C 162.84 119.10 161.69 118.71 160.74 119.17 L 159.84 119.61 C 158.88 120.08 158.48 121.23 158.95 122.19 C 159.42 123.15 160.57 123.54 161.53 123.07 Z M 162.41 122.61 L 163.34 122.16 C 164.28 121.70 164.68 120.56 164.22 119.62 C 163.76 118.68 162.62 118.28 161.67 118.74 L 160.75 119.19 C 159.80 119.65 159.41 120.79 159.87 121.74 C 160.33 122.68 161.47 123.07 162.41 122.61 Z M 163.31 122.12 L 164.36 121.62 C 165.28 121.17 165.66 120.06 165.22 119.14 C 164.77 118.22 163.67 117.84 162.75 118.28 L 161.70 118.79 C 160.78 119.23 160.40 120.34 160.84 121.26 C 161.29 122.18 162.39 122.56 163.31 122.12 Z M 164.31 121.56 L 165.21 121.13 C 166.10 120.71 166.48 119.65 166.06 118.76 C 165.63 117.87 164.57 117.49 163.68 117.92 L 162.79 118.34 C 161.90 118.76 161.52 119.82 161.94 120.71 C 162.36 121.60 163.42 121.98 164.31 121.56 Z M 165.16 121.08 L 165.97 120.71 C 166.82 120.32 167.20 119.30 166.81 118.44 C 166.41 117.58 165.40 117.21 164.54 117.60 L 163.73 117.97 C 162.87 118.36 162.50 119.38 162.89 120.24 C 163.29 121.10 164.30 121.47 165.16 121.08 Z M 165.91 120.66 L 166.72 120.31 C 167.56 119.94 167.94 118.97 167.57 118.14 C 167.20 117.30 166.23 116.92 165.40 117.29 L 164.59 117.65 C 163.76 118.01 163.38 118.98 163.74 119.82 C 164.11 120.65 165.08 121.03 165.91 120.66 Z M 166.68 120.29 L 167.60 119.90 C 168.43 119.56 168.81 118.61 168.47 117.79 C 168.12 116.97 167.18 116.58 166.36 116.93 L 165.44 117.31 C 164.62 117.66 164.23 118.60 164.57 119.42 C 164.92 120.24 165.86 120.63 166.68 120.29 Z M 167.58 119.89 L 168.51 119.52 C 169.32 119.19 169.72 118.26 169.39 117.44 C 169.06 116.63 168.13 116.23 167.31 116.56 L 166.39 116.94 C 165.57 117.27 165.18 118.19 165.50 119.01 C 165.83 119.83 166.76 120.22 167.58 119.89 Z M 168.49 119.50 L 169.42 119.13 C 170.23 118.81 170.62 117.90 170.30 117.09 C 169.98 116.28 169.07 115.89 168.26 116.21 L 167.33 116.57 C 166.52 116.89 166.12 117.81 166.45 118.62 C 166.77 119.43 167.68 119.82 168.49 119.50 Z M 169.41 119.13 L 169.50 119.09 C 170.31 118.77 170.70 117.86 170.39 117.06 C 170.07 116.26 169.16 115.86 168.35 116.18 L 168.27 116.21 C 167.46 116.53 167.07 117.44 167.38 118.24 C 167.70 119.05 168.61 119.44 169.41 119.13 Z"
      fill="black"
      fill-rule="nonzero" /><path d="M 148.40 113.66 L 148.24 114.59 C 148.08 115.51 148.69 116.39 149.62 116.55 C 150.54 116.71 151.42 116.10 151.58 115.17 L 151.74 114.25 C 151.90 113.33 151.29 112.45 150.36 112.29 C 149.44 112.12 148.56 112.74 148.40 113.66 Z M 148.08 114.64 L 147.95 115.62 C 147.82 116.63 148.52 117.56 149.53 117.69 C 150.54 117.83 151.47 117.12 151.60 116.11 L 151.74 115.13 C 151.87 114.12 151.16 113.19 150.15 113.06 C 149.15 112.92 148.22 113.63 148.08 114.64 Z M 147.81 115.73 L 147.74 116.77 C 147.66 117.86 148.49 118.80 149.57 118.87 C 150.66 118.95 151.60 118.12 151.68 117.04 L 151.75 116.00 C 151.82 114.91 151.00 113.97 149.91 113.90 C 148.82 113.82 147.88 114.64 147.81 115.73 Z M 147.67 116.89 L 147.67 117.81 C 147.66 118.94 148.56 119.85 149.68 119.86 C 150.80 119.87 151.72 118.97 151.73 117.85 L 151.74 116.92 C 151.75 115.80 150.85 114.88 149.72 114.87 C 148.60 114.86 147.68 115.76 147.67 116.89 Z M 147.66 117.88 L 147.69 118.88 C 147.72 120.01 148.65 120.90 149.78 120.87 C 150.90 120.84 151.79 119.90 151.76 118.78 L 151.74 117.78 C 151.71 116.65 150.77 115.76 149.64 115.79 C 148.52 115.82 147.63 116.76 147.66 117.88 Z M 147.69 118.93 L 147.74 119.98 C 147.79 121.11 148.75 121.98 149.87 121.93 C 151.00 121.87 151.87 120.92 151.81 119.79 L 151.76 118.73 C 151.71 117.61 150.75 116.74 149.63 116.79 C 148.50 116.84 147.63 117.80 147.69 118.93 Z M 147.73 120.01 L 147.80 121.07 C 147.86 122.20 148.83 123.06 149.95 122.99 C 151.08 122.93 151.94 121.96 151.88 120.83 L 151.82 119.77 C 151.75 118.64 150.79 117.78 149.66 117.85 C 148.53 117.91 147.67 118.88 147.73 120.01 Z M 147.80 121.08 L 147.86 122.12 C 147.93 123.25 148.90 124.11 150.03 124.04 C 151.15 123.97 152.01 123.00 151.94 121.87 L 151.88 120.82 C 151.81 119.70 150.84 118.84 149.71 118.91 C 148.58 118.98 147.73 119.95 147.80 121.08 Z M 147.86 122.12 L 147.92 123.14 C 148.00 124.27 148.97 125.12 150.09 125.05 C 151.22 124.98 152.08 124.01 152.01 122.88 L 151.94 121.87 C 151.87 120.74 150.90 119.88 149.77 119.95 C 148.65 120.03 147.79 121.00 147.86 122.12 Z M 147.92 123.14 L 147.98 124.09 C 148.05 125.21 149.02 126.07 150.15 126.00 C 151.28 125.93 152.13 124.96 152.07 123.83 L 152.01 122.88 C 151.94 121.76 150.97 120.90 149.84 120.97 C 148.71 121.04 147.85 122.01 147.92 123.14 Z M 147.98 124.08 L 148.04 125.13 C 148.11 126.25 149.07 127.11 150.20 127.05 C 151.33 126.99 152.19 126.02 152.12 124.89 L 152.06 123.84 C 152.00 122.72 151.03 121.86 149.91 121.92 C 148.78 121.98 147.92 122.95 147.98 124.08 Z M 148.05 125.11 L 148.10 126.11 C 148.15 127.24 149.11 128.10 150.23 128.05 C 151.36 127.99 152.22 127.04 152.17 125.91 L 152.12 124.91 C 152.06 123.79 151.11 122.92 149.98 122.98 C 148.86 123.03 147.99 123.99 148.05 125.11 Z M 148.11 126.10 L 148.14 127.01 C 148.19 128.13 149.14 129.00 150.26 128.96 C 151.38 128.91 152.25 127.96 152.20 126.84 L 152.16 125.93 C 152.11 124.81 151.17 123.94 150.05 123.99 C 148.93 124.03 148.06 124.98 148.11 126.10 Z M 148.15 127.01 L 148.19 127.98 C 148.23 129.09 149.17 129.96 150.29 129.92 C 151.40 129.88 152.27 128.94 152.23 127.82 L 152.19 126.85 C 152.15 125.74 151.21 124.87 150.09 124.91 C 148.98 124.95 148.11 125.89 148.15 127.01 Z M 148.20 127.97 L 148.24 128.97 C 148.28 130.08 149.21 130.95 150.32 130.91 C 151.42 130.87 152.29 129.94 152.25 128.83 L 152.22 127.83 C 152.18 126.72 151.25 125.86 150.14 125.89 C 149.03 125.93 148.16 126.86 148.20 127.97 Z M 148.25 128.97 L 148.29 129.98 C 148.32 131.08 149.25 131.95 150.35 131.91 C 151.45 131.87 152.31 130.95 152.27 129.85 L 152.24 128.83 C 152.20 127.73 151.28 126.87 150.18 126.91 C 149.08 126.95 148.21 127.87 148.25 128.97 Z M 148.30 129.98 L 148.34 130.99 C 148.37 132.08 149.28 132.93 150.37 132.90 C 151.46 132.87 152.32 131.95 152.29 130.86 L 152.25 129.85 C 152.22 128.76 151.31 127.91 150.22 127.94 C 149.13 127.98 148.27 128.89 148.30 129.98 Z M 148.36 130.98 L 148.38 131.97 C 148.41 133.05 149.31 133.90 150.39 133.88 C 151.47 133.85 152.32 132.95 152.29 131.87 L 152.26 130.88 C 152.24 129.80 151.34 128.94 150.26 128.97 C 149.18 129.00 148.33 129.90 148.36 130.98 Z M 148.40 131.95 L 148.42 132.91 C 148.44 133.97 149.31 134.82 150.38 134.81 C 151.45 134.79 152.30 133.91 152.28 132.85 L 152.27 131.89 C 152.25 130.83 151.37 129.98 150.31 129.99 C 149.24 130.01 148.39 130.89 148.40 131.95 Z M 148.44 132.89 L 148.45 133.85 C 148.45 134.90 149.31 135.75 150.37 135.75 C 151.42 135.74 152.27 134.88 152.27 133.83 L 152.26 132.87 C 152.25 131.81 151.39 130.96 150.34 130.97 C 149.29 130.97 148.44 131.83 148.44 132.89 Z M 148.47 133.84 L 148.47 134.91 C 148.47 135.95 149.32 136.80 150.36 136.80 C 151.40 136.79 152.24 135.95 152.24 134.91 L 152.24 133.84 C 152.24 132.80 151.40 131.95 150.36 131.95 C 149.31 131.95 148.47 132.80 148.47 133.84 Z M 148.49 134.91 L 148.50 135.85 C 148.50 136.88 149.33 137.71 150.36 137.71 C 151.39 137.71 152.22 136.87 152.22 135.84 L 152.22 134.91 C 152.22 133.88 151.38 133.05 150.36 133.05 C 149.33 133.05 148.49 133.88 148.49 134.91 Z M 148.52 135.86 L 148.53 136.87 C 148.53 137.88 149.36 138.70 150.38 138.69 C 151.39 138.68 152.21 137.86 152.20 136.84 L 152.20 135.83 C 152.19 134.82 151.36 134.00 150.35 134.01 C 149.33 134.01 148.51 134.84 148.52 135.86 Z M 148.55 136.89 L 148.57 137.93 C 148.59 138.93 149.42 139.73 150.42 139.71 C 151.42 139.69 152.22 138.86 152.20 137.86 L 152.18 136.82 C 152.16 135.82 151.33 135.02 150.33 135.04 C 149.33 135.06 148.53 135.89 148.55 136.89 Z M 148.58 137.96 L 148.61 139.00 C 148.65 140.00 149.49 140.78 150.49 140.74 C 151.49 140.70 152.27 139.86 152.23 138.86 L 152.20 137.82 C 152.16 136.82 151.32 136.04 150.32 136.08 C 149.32 136.12 148.54 136.96 148.58 137.96 Z M 148.57 139.04 L 148.63 140.05 C 148.69 141.07 149.57 141.85 150.59 141.79 C 151.61 141.73 152.40 140.85 152.34 139.83 L 152.28 138.82 C 152.22 137.80 151.34 137.02 150.32 137.08 C 149.29 137.14 148.51 138.01 148.57 139.04 Z M 148.56 140.08 L 148.63 141.07 C 148.71 142.13 149.64 142.93 150.70 142.85 C 151.76 142.77 152.56 141.85 152.48 140.79 L 152.40 139.80 C 152.33 138.74 151.40 137.94 150.34 138.02 C 149.28 138.10 148.48 139.02 148.56 140.08 Z M 148.56 141.09 L 148.65 142.07 C 148.74 143.17 149.70 143.99 150.80 143.90 C 151.90 143.81 152.72 142.84 152.63 141.74 L 152.55 140.77 C 152.46 139.67 151.49 138.85 150.39 138.94 C 149.29 139.03 148.47 139.99 148.56 141.09 Z M 148.61 142.08 L 148.61 142.16 C 148.71 143.28 149.69 144.12 150.81 144.02 C 151.93 143.93 152.77 142.94 152.67 141.82 L 152.67 141.74 C 152.57 140.62 151.59 139.78 150.47 139.88 C 149.35 139.97 148.51 140.96 148.61 142.08 Z"
      fill="black"
      fill-rule="nonzero" /><path d="M 141.12 147.42 L 139.82 147.53 C 138.84 147.60 138.11 148.46 138.18 149.44 C 138.26 150.41 139.11 151.15 140.09 151.07 L 141.40 150.97 C 142.38 150.89 143.11 150.03 143.03 149.06 C 142.95 148.08 142.10 147.35 141.12 147.42 Z M 140.53 147.48 L 140.08 147.33 C 139.07 147.01 138.00 147.57 137.68 148.57 C 137.36 149.58 137.91 150.65 138.92 150.97 L 139.37 151.12 C 140.38 151.44 141.45 150.88 141.77 149.88 C 142.09 148.87 141.54 147.80 140.53 147.48 Z M 140.60 150.79 L 141.14 150.43 C 142.05 149.82 142.29 148.59 141.68 147.68 C 141.08 146.78 139.85 146.54 138.94 147.15 L 138.40 147.51 C 137.49 148.12 137.25 149.35 137.86 150.25 C 138.47 151.16 139.69 151.40 140.60 150.79 Z M 140.92 150.57 L 141.96 150.06 C 142.94 149.57 143.34 148.38 142.86 147.40 C 142.38 146.42 141.19 146.01 140.21 146.50 L 139.17 147.01 C 138.19 147.49 137.78 148.68 138.26 149.66 C 138.75 150.64 139.93 151.05 140.92 150.57 Z M 141.92 150.08 L 143.00 149.57 C 144.00 149.10 144.43 147.92 143.96 146.93 C 143.49 145.94 142.31 145.51 141.32 145.97 L 140.24 146.48 C 139.25 146.94 138.82 148.13 139.28 149.12 C 139.75 150.11 140.93 150.54 141.92 150.08 Z M 143.02 149.56 L 143.88 149.15 C 144.87 148.68 145.29 147.49 144.82 146.50 C 144.34 145.51 143.16 145.09 142.17 145.57 L 141.31 145.98 C 140.32 146.45 139.90 147.64 140.37 148.63 C 140.84 149.62 142.03 150.04 143.02 149.56 Z M 143.88 149.15 L 144.76 148.73 C 145.75 148.25 146.16 147.07 145.69 146.08 C 145.21 145.09 144.03 144.68 143.04 145.15 L 142.16 145.57 C 141.18 146.05 140.76 147.23 141.24 148.22 C 141.71 149.21 142.90 149.62 143.88 149.15 Z M 144.75 148.73 L 145.71 148.27 C 146.70 147.80 147.11 146.62 146.64 145.63 C 146.17 144.64 144.99 144.22 144.00 144.69 L 143.05 145.15 C 142.06 145.62 141.64 146.80 142.11 147.79 C 142.58 148.78 143.76 149.20 144.75 148.73 Z M 145.70 148.27 L 146.58 147.86 C 147.57 147.40 147.99 146.22 147.53 145.23 C 147.07 144.24 145.89 143.81 144.90 144.28 L 144.02 144.69 C 143.03 145.15 142.60 146.33 143.06 147.32 C 143.53 148.31 144.71 148.74 145.70 148.27 Z M 146.57 147.86 L 147.48 147.44 C 148.48 146.98 148.91 145.80 148.45 144.81 C 147.99 143.82 146.82 143.39 145.83 143.85 L 144.91 144.28 C 143.92 144.73 143.49 145.91 143.94 146.90 C 144.40 147.89 145.58 148.32 146.57 147.86 Z M 147.48 147.44 L 148.42 147.01 C 149.41 146.55 149.84 145.38 149.39 144.39 C 148.94 143.40 147.76 142.97 146.77 143.42 L 145.83 143.85 C 144.84 144.30 144.41 145.48 144.86 146.47 C 145.32 147.46 146.49 147.89 147.48 147.44 Z M 148.41 147.01 L 149.33 146.59 C 150.32 146.14 150.76 144.97 150.31 143.98 C 149.86 142.99 148.69 142.55 147.70 143.00 L 146.78 143.42 C 145.79 143.87 145.35 145.04 145.80 146.03 C 146.25 147.02 147.42 147.46 148.41 147.01 Z M 149.33 146.59 L 150.25 146.17 C 151.23 145.72 151.68 144.56 151.23 143.57 C 150.78 142.58 149.62 142.14 148.63 142.59 L 147.71 143.00 C 146.72 143.45 146.28 144.61 146.73 145.60 C 147.17 146.59 148.34 147.03 149.33 146.59 Z M 150.23 146.17 L 151.14 145.77 C 152.13 145.33 152.58 144.17 152.14 143.18 C 151.70 142.19 150.54 141.74 149.55 142.18 L 148.64 142.59 C 147.65 143.03 147.21 144.19 147.64 145.17 C 148.08 146.16 149.24 146.61 150.23 146.17 Z M 151.12 145.77 L 152.00 145.39 C 153.00 144.97 153.45 143.82 153.03 142.82 C 152.60 141.83 151.45 141.37 150.46 141.80 L 149.57 142.18 C 148.58 142.61 148.12 143.76 148.55 144.75 C 148.97 145.74 150.12 146.20 151.12 145.77 Z M 151.97 145.40 L 152.89 145.02 C 153.89 144.61 154.37 143.47 153.96 142.48 C 153.55 141.48 152.41 141.00 151.41 141.41 L 150.49 141.79 C 149.49 142.20 149.02 143.34 149.43 144.34 C 149.83 145.33 150.97 145.81 151.97 145.40 Z M 152.86 145.03 L 153.81 144.66 C 154.81 144.27 155.30 143.14 154.91 142.14 C 154.52 141.14 153.39 140.65 152.39 141.04 L 151.45 141.40 C 150.45 141.79 149.95 142.92 150.34 143.92 C 150.73 144.92 151.86 145.42 152.86 145.03 Z M 153.78 144.67 L 154.74 144.31 C 155.75 143.93 156.26 142.82 155.89 141.81 C 155.51 140.81 154.40 140.30 153.39 140.67 L 152.42 141.03 C 151.42 141.40 150.91 142.52 151.28 143.53 C 151.65 144.53 152.77 145.04 153.78 144.67 Z M 154.72 144.31 L 155.70 143.97 C 156.70 143.61 157.23 142.50 156.87 141.49 C 156.51 140.48 155.41 139.96 154.40 140.31 L 153.42 140.66 C 152.41 141.02 151.88 142.13 152.24 143.14 C 152.60 144.15 153.71 144.67 154.72 144.31 Z M 155.66 143.97 L 156.61 143.66 C 157.62 143.32 158.16 142.22 157.82 141.21 C 157.48 140.20 156.39 139.65 155.37 139.99 L 154.43 140.31 C 153.42 140.65 152.87 141.74 153.21 142.76 C 153.55 143.77 154.65 144.31 155.66 143.97 Z M 156.56 143.67 L 157.53 143.37 C 158.55 143.06 159.12 141.98 158.80 140.96 C 158.49 139.94 157.41 139.37 156.39 139.68 L 155.42 139.98 C 154.40 140.29 153.83 141.37 154.15 142.39 C 154.46 143.41 155.54 143.98 156.56 143.67 Z M 157.43 143.39 L 158.50 143.12 C 159.53 142.86 160.15 141.81 159.89 140.78 C 159.62 139.75 158.58 139.13 157.55 139.39 L 156.49 139.66 C 155.46 139.92 154.83 140.97 155.10 142.00 C 155.36 143.03 156.40 143.65 157.43 143.39 Z M 158.33 143.15 L 159.24 143.00 C 160.29 142.83 160.99 141.84 160.82 140.80 C 160.65 139.75 159.66 139.04 158.62 139.21 L 157.71 139.36 C 156.67 139.54 155.96 140.52 156.13 141.57 C 156.30 142.61 157.29 143.32 158.33 143.15 Z M 159.02 143.02 L 159.94 142.98 C 160.99 142.93 161.81 142.03 161.76 140.97 C 161.71 139.92 160.82 139.10 159.76 139.15 L 158.84 139.19 C 157.78 139.24 156.97 140.14 157.02 141.20 C 157.06 142.25 157.96 143.07 159.02 143.02 Z M 159.46 142.95 L 160.40 143.15 C 161.45 143.37 162.47 142.70 162.68 141.65 C 162.90 140.61 162.23 139.59 161.19 139.37 L 160.24 139.18 C 159.20 138.96 158.18 139.63 157.96 140.67 C 157.74 141.71 158.41 142.74 159.46 142.95 Z M 159.43 142.65 L 160.12 143.33 C 160.89 144.09 162.12 144.07 162.88 143.31 C 163.63 142.54 163.62 141.31 162.85 140.55 L 162.16 139.87 C 161.39 139.12 160.16 139.13 159.41 139.89 C 158.65 140.66 158.66 141.89 159.43 142.65 Z M 159.62 142.55 L 159.90 143.41 C 160.23 144.44 161.34 145.00 162.37 144.67 C 163.41 144.33 163.97 143.22 163.63 142.19 L 163.36 141.33 C 163.02 140.30 161.91 139.74 160.88 140.07 C 159.85 140.41 159.28 141.52 159.62 142.55 Z M 159.80 143.03 L 159.92 144.07 C 160.05 145.16 161.03 145.93 162.12 145.80 C 163.21 145.68 163.98 144.69 163.86 143.60 L 163.73 142.56 C 163.60 141.48 162.62 140.70 161.53 140.83 C 160.45 140.96 159.67 141.94 159.80 143.03 Z M 159.89 143.84 L 159.89 144.90 C 159.90 146.00 160.79 146.89 161.90 146.89 C 163.00 146.89 163.89 145.99 163.89 144.89 L 163.89 143.83 C 163.88 142.73 162.99 141.84 161.88 141.84 C 160.78 141.84 159.89 142.74 159.89 143.84 Z M 159.89 144.69 L 159.78 145.79 C 159.67 146.90 160.47 147.89 161.58 148.00 C 162.68 148.11 163.67 147.30 163.78 146.20 L 163.89 145.10 C 164.00 143.99 163.20 143.00 162.09 142.89 C 160.99 142.78 160.00 143.59 159.89 144.69 Z M 159.81 145.53 L 159.59 146.48 C 159.33 147.57 160.00 148.66 161.09 148.92 C 162.17 149.18 163.26 148.50 163.52 147.42 L 163.75 146.46 C 164.00 145.38 163.33 144.29 162.25 144.03 C 161.16 143.77 160.07 144.44 159.81 145.53 Z M 159.65 146.24 L 159.34 147.09 C 158.95 148.14 159.48 149.31 160.53 149.70 C 161.58 150.09 162.75 149.55 163.14 148.50 L 163.46 147.66 C 163.85 146.61 163.31 145.44 162.26 145.05 C 161.21 144.66 160.04 145.19 159.65 146.24 Z M 159.38 146.96 L 158.98 147.85 C 158.52 148.87 158.98 150.08 160.00 150.54 C 161.03 151.01 162.24 150.55 162.70 149.52 L 163.10 148.63 C 163.56 147.60 163.10 146.39 162.08 145.93 C 161.05 145.47 159.84 145.93 159.38 146.96 Z M 159.00 147.77 L 158.55 148.69 C 158.05 149.70 158.47 150.93 159.48 151.43 C 160.50 151.93 161.72 151.52 162.23 150.50 L 162.68 149.59 C 163.18 148.58 162.76 147.35 161.75 146.84 C 160.73 146.34 159.51 146.76 159.00 147.77 Z M 158.56 148.65 L 158.10 149.54 C 157.58 150.55 157.98 151.79 158.99 152.31 C 160.00 152.83 161.24 152.44 161.76 151.42 L 162.22 150.54 C 162.74 149.53 162.34 148.28 161.33 147.76 C 160.32 147.24 159.08 147.64 158.56 148.65 Z M 158.11 149.50 L 157.63 150.38 C 157.09 151.38 157.46 152.64 158.47 153.19 C 159.47 153.73 160.73 153.36 161.27 152.35 L 161.75 151.47 C 162.30 150.46 161.92 149.21 160.92 148.66 C 159.92 148.12 158.66 148.49 158.11 149.50 Z M 157.67 150.30 L 157.15 151.17 C 156.56 152.16 156.89 153.43 157.87 154.02 C 158.86 154.61 160.14 154.28 160.72 153.30 L 161.24 152.43 C 161.83 151.44 161.51 150.17 160.52 149.58 C 159.53 148.99 158.26 149.31 157.67 150.30 Z M 157.20 151.08 L 156.65 151.91 C 156.01 152.86 156.27 154.16 157.23 154.80 C 158.19 155.44 159.48 155.18 160.12 154.22 L 160.67 153.39 C 161.31 152.43 161.05 151.13 160.09 150.50 C 159.13 149.86 157.84 150.12 157.20 151.08 Z M 156.68 151.84 L 156.10 152.66 C 155.43 153.60 155.65 154.91 156.59 155.58 C 157.53 156.25 158.84 156.03 159.51 155.09 L 160.09 154.28 C 160.76 153.34 160.54 152.03 159.60 151.36 C 158.66 150.69 157.35 150.90 156.68 151.84 Z M 156.11 152.64 L 155.53 153.43 C 154.84 154.37 155.05 155.68 155.98 156.36 C 156.92 157.05 158.23 156.85 158.92 155.91 L 159.50 155.12 C 160.18 154.18 159.98 152.87 159.04 152.18 C 158.11 151.50 156.80 151.70 156.11 152.64 Z M 155.53 153.42 L 154.95 154.22 C 154.26 155.15 154.45 156.47 155.39 157.15 C 156.32 157.84 157.64 157.65 158.33 156.71 L 158.91 155.92 C 159.60 154.98 159.40 153.67 158.47 152.98 C 157.54 152.29 156.22 152.49 155.53 153.42 Z M 154.95 154.21 L 154.34 155.02 C 153.64 155.95 153.83 157.27 154.76 157.97 C 155.69 158.66 157.01 158.47 157.71 157.54 L 158.32 156.72 C 159.01 155.79 158.82 154.48 157.89 153.78 C 156.97 153.09 155.65 153.28 154.95 154.21 Z M 154.35 155.01 L 153.76 155.79 C 153.05 156.71 153.23 158.03 154.16 158.74 C 155.08 159.44 156.40 159.26 157.11 158.33 L 157.70 157.56 C 158.40 156.63 158.22 155.31 157.30 154.61 C 156.37 153.91 155.05 154.09 154.35 155.01 Z M 153.76 155.78 L 153.16 156.57 C 152.45 157.49 152.62 158.82 153.55 159.52 C 154.47 160.23 155.79 160.05 156.50 159.13 L 157.10 158.34 C 157.81 157.42 157.63 156.10 156.71 155.39 C 155.79 154.68 154.47 154.86 153.76 155.78 Z M 153.15 156.57 L 152.53 157.39 C 151.83 158.31 152.00 159.63 152.93 160.34 C 153.85 161.05 155.17 160.87 155.88 159.94 L 156.50 159.13 C 157.21 158.21 157.03 156.88 156.11 156.18 C 155.18 155.47 153.86 155.65 153.15 156.57 Z M 152.52 157.40 L 151.93 158.18 C 151.23 159.11 151.41 160.43 152.34 161.13 C 153.27 161.83 154.59 161.65 155.29 160.72 L 155.89 159.94 C 156.59 159.01 156.40 157.69 155.48 156.99 C 154.55 156.28 153.22 156.47 152.52 157.40 Z M 151.92 158.19 L 151.33 158.97 C 150.63 159.91 150.82 161.23 151.76 161.93 C 152.69 162.63 154.01 162.44 154.71 161.50 L 155.30 160.72 C 156.00 159.78 155.81 158.46 154.88 157.76 C 153.94 157.06 152.62 157.25 151.92 158.19 Z M 151.33 158.97 L 150.72 159.79 C 150.02 160.72 150.21 162.05 151.15 162.74 C 152.08 163.44 153.41 163.25 154.11 162.32 L 154.71 161.51 C 155.41 160.57 155.22 159.25 154.29 158.55 C 153.35 157.85 152.03 158.04 151.33 158.97 Z M 150.72 159.78 L 150.12 160.58 C 149.42 161.52 149.60 162.85 150.54 163.55 C 151.47 164.25 152.80 164.06 153.50 163.13 L 154.11 162.32 C 154.81 161.39 154.62 160.06 153.68 159.36 C 152.75 158.66 151.42 158.85 150.72 159.78 Z M 150.12 160.58 L 149.54 161.35 C 148.84 162.28 149.02 163.61 149.96 164.31 C 150.89 165.02 152.22 164.83 152.93 163.89 L 153.50 163.13 C 154.21 162.19 154.02 160.86 153.08 160.16 C 152.15 159.46 150.82 159.64 150.12 160.58 Z M 149.53 161.35 L 148.94 162.15 C 148.24 163.09 148.43 164.42 149.37 165.12 C 150.31 165.82 151.64 165.63 152.34 164.69 L 152.93 163.89 C 153.64 162.95 153.44 161.62 152.50 160.92 C 151.57 160.22 150.24 160.41 149.53 161.35 Z M 148.93 162.16 L 148.31 162.99 C 147.62 163.94 147.82 165.27 148.76 165.96 C 149.71 166.66 151.04 166.46 151.73 165.51 L 152.35 164.68 C 153.04 163.73 152.84 162.40 151.90 161.71 C 150.95 161.01 149.62 161.21 148.93 162.16 Z M 148.30 163.01 L 147.70 163.83 C 147.02 164.79 147.23 166.12 148.18 166.80 C 149.14 167.49 150.47 167.27 151.15 166.32 L 151.75 165.50 C 152.43 164.55 152.22 163.22 151.27 162.53 C 150.31 161.84 148.98 162.06 148.30 163.01 Z M 147.69 163.85 L 147.12 164.66 C 146.44 165.62 146.67 166.95 147.62 167.62 C 148.58 168.30 149.91 168.08 150.59 167.12 L 151.16 166.31 C 151.84 165.35 151.62 164.02 150.66 163.34 C 149.70 162.66 148.37 162.89 147.69 163.85 Z M 147.11 164.67 L 146.53 165.49 C 145.86 166.46 146.09 167.78 147.05 168.46 C 148.02 169.13 149.34 168.90 150.02 167.94 L 150.60 167.11 C 151.27 166.15 151.04 164.82 150.07 164.15 C 149.11 163.47 147.79 163.71 147.11 164.67 Z M 146.53 165.50 L 145.95 166.33 C 145.28 167.29 145.52 168.62 146.48 169.29 C 147.44 169.96 148.77 169.73 149.44 168.76 L 150.02 167.93 C 150.69 166.97 150.46 165.64 149.49 164.97 C 148.53 164.30 147.20 164.53 146.53 165.50 Z M 145.95 166.33 L 145.38 167.15 C 144.70 168.11 144.94 169.44 145.90 170.11 C 146.86 170.79 148.19 170.55 148.86 169.59 L 149.44 168.76 C 150.11 167.80 149.88 166.47 148.91 165.80 C 147.95 165.13 146.63 165.36 145.95 166.33 Z M 145.38 167.15 L 144.80 167.97 C 144.12 168.93 144.35 170.26 145.31 170.94 C 146.27 171.61 147.60 171.38 148.28 170.42 L 148.86 169.60 C 149.53 168.63 149.30 167.31 148.34 166.63 C 147.38 165.96 146.06 166.19 145.38 167.15 Z M 144.80 167.97 L 144.23 168.78 C 143.54 169.74 143.77 171.06 144.73 171.74 C 145.68 172.42 147.01 172.20 147.69 171.24 L 148.27 170.43 C 148.95 169.47 148.73 168.14 147.77 167.46 C 146.81 166.78 145.48 167.01 144.80 167.97 Z M 144.23 168.77 L 143.65 169.57 C 142.97 170.53 143.19 171.86 144.14 172.54 C 145.09 173.23 146.42 173.01 147.11 172.06 L 147.68 171.25 C 148.37 170.30 148.15 168.97 147.20 168.28 C 146.25 167.60 144.92 167.82 144.23 168.77 Z M 143.66 169.56 L 143.08 170.37 C 142.39 171.32 142.60 172.65 143.54 173.34 C 144.49 174.03 145.82 173.82 146.51 172.87 L 147.10 172.07 C 147.79 171.12 147.58 169.79 146.63 169.10 C 145.68 168.41 144.35 168.62 143.66 169.56 Z M 143.09 170.36 L 142.50 171.15 C 141.80 172.09 142.00 173.42 142.95 174.12 C 143.89 174.82 145.22 174.62 145.92 173.67 L 146.50 172.88 C 147.20 171.94 147.00 170.61 146.06 169.91 C 145.11 169.21 143.78 169.41 143.09 170.36 Z M 142.51 171.14 L 141.91 171.94 C 141.21 172.88 141.40 174.21 142.34 174.91 C 143.28 175.61 144.61 175.42 145.31 174.48 L 145.91 173.68 C 146.61 172.74 146.42 171.41 145.48 170.71 C 144.54 170.01 143.21 170.20 142.51 171.14 Z M 141.92 171.93 L 141.32 172.73 C 140.61 173.66 140.79 174.99 141.72 175.70 C 142.66 176.41 143.99 176.22 144.70 175.29 L 145.30 174.49 C 146.01 173.56 145.83 172.23 144.90 171.52 C 143.96 170.81 142.63 170.99 141.92 171.93 Z M 141.33 172.71 L 140.71 173.52 C 140.00 174.44 140.17 175.77 141.09 176.49 C 142.02 177.20 143.35 177.03 144.07 176.10 L 144.68 175.30 C 145.40 174.37 145.23 173.04 144.30 172.33 C 143.37 171.62 142.04 171.79 141.33 172.71 Z M 140.72 173.50 L 140.10 174.29 C 139.38 175.21 139.54 176.54 140.47 177.27 C 141.39 177.99 142.72 177.82 143.44 176.90 L 144.06 176.12 C 144.78 175.19 144.61 173.86 143.69 173.14 C 142.77 172.42 141.44 172.58 140.72 173.50 Z M 140.12 174.28 L 139.49 175.06 C 138.76 175.98 138.91 177.31 139.83 178.04 C 140.74 178.76 142.07 178.61 142.80 177.70 L 143.43 176.92 C 144.15 176.00 144.00 174.67 143.09 173.94 C 142.18 173.22 140.84 173.37 140.12 174.28 Z M 139.51 175.05 L 138.87 175.83 C 138.14 176.73 138.28 178.06 139.18 178.80 C 140.09 179.54 141.42 179.40 142.15 178.49 L 142.79 177.71 C 143.52 176.81 143.38 175.48 142.48 174.74 C 141.57 174.01 140.24 174.14 139.51 175.05 Z M 138.89 175.81 L 138.25 176.58 C 137.51 177.48 137.63 178.81 138.53 179.55 C 139.42 180.30 140.75 180.17 141.50 179.28 L 142.14 178.51 C 142.88 177.61 142.76 176.28 141.86 175.54 C 140.97 174.79 139.64 174.91 138.89 175.81 Z M 138.27 176.56 L 137.61 177.33 C 136.86 178.22 136.96 179.55 137.85 180.30 C 138.74 181.06 140.07 180.95 140.82 180.07 L 141.48 179.30 C 142.23 178.41 142.13 177.08 141.24 176.32 C 140.36 175.57 139.03 175.67 138.27 176.56 Z M 137.64 177.31 L 136.96 178.08 C 136.20 178.95 136.28 180.28 137.15 181.05 C 138.03 181.81 139.36 181.73 140.12 180.86 L 140.80 180.09 C 141.57 179.22 141.48 177.89 140.61 177.12 C 139.74 176.35 138.41 176.44 137.64 177.31 Z M 136.99 178.05 L 136.32 178.79 C 135.53 179.65 135.59 180.98 136.45 181.76 C 137.31 182.54 138.63 182.48 139.42 181.62 L 140.09 180.88 C 140.88 180.03 140.82 178.70 139.96 177.91 C 139.10 177.13 137.78 177.19 136.99 178.05 Z M 136.35 178.76 L 135.67 179.47 C 134.87 180.31 134.90 181.63 135.74 182.43 C 136.57 183.23 137.90 183.20 138.70 182.37 L 139.38 181.66 C 140.18 180.82 140.15 179.49 139.31 178.69 C 138.48 177.89 137.15 177.92 136.35 178.76 Z M 135.71 179.43 L 135.01 180.13 C 134.19 180.94 134.19 182.27 135.00 183.09 C 135.81 183.91 137.14 183.91 137.96 183.10 L 138.66 182.40 C 139.48 181.59 139.48 180.27 138.67 179.45 C 137.86 178.63 136.53 178.62 135.71 179.43 Z M 135.06 180.09 L 134.32 180.78 C 133.47 181.57 133.43 182.89 134.22 183.73 C 135.00 184.58 136.32 184.62 137.17 183.83 L 137.91 183.14 C 138.75 182.35 138.80 181.03 138.01 180.19 C 137.22 179.35 135.90 179.30 135.06 180.09 Z M 134.36 180.75 L 133.62 181.41 C 132.75 182.17 132.67 183.49 133.44 184.35 C 134.20 185.21 135.51 185.29 136.37 184.53 L 137.12 183.87 C 137.98 183.11 138.06 181.79 137.30 180.93 C 136.54 180.07 135.22 179.99 134.36 180.75 Z M 133.65 181.38 L 132.90 182.02 C 132.03 182.76 131.92 184.07 132.66 184.94 C 133.40 185.82 134.71 185.93 135.58 185.19 L 136.33 184.55 C 137.21 183.81 137.32 182.50 136.58 181.63 C 135.84 180.75 134.53 180.64 133.65 181.38 Z M 132.94 182.00 L 132.14 182.65 C 131.26 183.37 131.13 184.68 131.85 185.56 C 132.57 186.44 133.87 186.58 134.76 185.85 L 135.55 185.21 C 136.44 184.48 136.57 183.18 135.84 182.30 C 135.12 181.41 133.82 181.28 132.94 182.00 Z M 132.18 182.64 L 131.35 183.29 C 130.46 183.99 130.31 185.28 131.01 186.17 C 131.71 187.07 133.00 187.22 133.89 186.52 L 134.72 185.87 C 135.61 185.16 135.77 183.87 135.06 182.98 C 134.36 182.09 133.07 181.94 132.18 182.64 Z M 131.40 183.27 L 130.60 183.87 C 129.70 184.54 129.51 185.82 130.19 186.72 C 130.86 187.62 132.14 187.81 133.04 187.14 L 133.84 186.54 C 134.74 185.87 134.93 184.59 134.26 183.69 C 133.59 182.78 132.31 182.60 131.40 183.27 Z M 130.68 183.83 L 129.93 184.35 C 129.00 184.98 128.77 186.24 129.40 187.16 C 130.03 188.08 131.29 188.32 132.21 187.69 L 132.96 187.17 C 133.89 186.54 134.12 185.28 133.49 184.36 C 132.86 183.44 131.60 183.20 130.68 183.83 Z M 130.07 184.28 L 129.21 184.77 C 128.25 185.33 127.92 186.55 128.47 187.51 C 129.02 188.47 130.25 188.80 131.21 188.25 L 132.07 187.76 C 133.03 187.20 133.36 185.97 132.81 185.01 C 132.25 184.05 131.03 183.72 130.07 184.28 Z M 129.47 184.67 L 128.58 185.02 C 127.56 185.43 127.07 186.59 127.47 187.61 C 127.88 188.63 129.04 189.12 130.06 188.71 L 130.95 188.36 C 131.97 187.95 132.46 186.79 132.05 185.77 C 131.64 184.75 130.49 184.26 129.47 184.67 Z M 128.86 184.95 L 127.85 185.19 C 126.80 185.44 126.14 186.51 126.39 187.56 C 126.65 188.62 127.71 189.28 128.77 189.03 L 129.78 188.79 C 130.84 188.53 131.49 187.47 131.24 186.41 C 130.99 185.35 129.92 184.70 128.86 184.95 Z M 128.07 185.17 L 127.07 185.30 C 126.00 185.43 125.24 186.41 125.38 187.48 C 125.51 188.55 126.49 189.30 127.56 189.17 L 128.55 189.04 C 129.62 188.91 130.38 187.93 130.25 186.86 C 130.11 185.79 129.14 185.04 128.07 185.17 Z M 127.28 185.30 L 126.24 185.32 C 125.17 185.33 124.32 186.21 124.34 187.28 C 124.36 188.35 125.23 189.20 126.30 189.18 L 127.34 189.17 C 128.41 189.15 129.26 188.27 129.25 187.20 C 129.23 186.14 128.35 185.28 127.28 185.30 Z M 126.54 185.36 L 125.57 185.22 C 124.52 185.07 123.55 185.79 123.40 186.84 C 123.25 187.89 123.98 188.86 125.03 189.00 L 126.00 189.14 C 127.05 189.29 128.02 188.57 128.17 187.52 C 128.32 186.47 127.59 185.51 126.54 185.36 Z M 126.08 185.36 L 125.19 184.96 C 124.22 184.53 123.09 184.96 122.66 185.93 C 122.22 186.90 122.66 188.04 123.63 188.47 L 124.52 188.86 C 125.48 189.30 126.62 188.86 127.05 187.89 C 127.48 186.92 127.05 185.79 126.08 185.36 Z M 125.82 185.35 L 125.15 184.66 C 124.40 183.89 123.16 183.87 122.38 184.62 C 121.60 185.38 121.58 186.62 122.34 187.40 L 123.00 188.08 C 123.76 188.86 125.00 188.88 125.78 188.12 C 126.55 187.37 126.57 186.13 125.82 185.35 Z M 125.57 185.18 L 125.14 184.26 C 124.67 183.26 123.47 182.82 122.47 183.29 C 121.46 183.76 121.02 184.96 121.49 185.97 L 121.92 186.88 C 122.39 187.89 123.59 188.33 124.60 187.86 C 125.60 187.39 126.04 186.19 125.57 185.18 Z M 125.29 184.67 L 125.08 183.74 C 124.84 182.65 123.76 181.96 122.67 182.21 C 121.58 182.45 120.89 183.53 121.13 184.62 L 121.34 185.56 C 121.59 186.65 122.67 187.33 123.76 187.09 C 124.85 186.85 125.54 185.76 125.29 184.67 Z M 125.08 183.99 L 124.98 183.01 C 124.87 181.93 123.90 181.14 122.82 181.24 C 121.73 181.35 120.94 182.32 121.05 183.41 L 121.14 184.38 C 121.25 185.46 122.22 186.26 123.30 186.15 C 124.39 186.04 125.18 185.07 125.08 183.99 Z M 124.92 183.15 L 124.89 182.12 C 124.86 181.06 123.97 180.23 122.91 180.27 C 121.86 180.30 121.03 181.19 121.07 182.24 L 121.10 183.27 C 121.13 184.33 122.02 185.16 123.07 185.12 C 124.13 185.09 124.96 184.20 124.92 183.15 Z M 124.83 182.17 L 124.83 181.21 C 124.82 180.19 123.99 179.36 122.97 179.37 C 121.94 179.37 121.12 180.20 121.12 181.23 L 121.12 182.19 C 121.13 183.21 121.96 184.04 122.99 184.03 C 124.01 184.03 124.84 183.20 124.83 182.17 Z"
      fill="black"
      fill-rule="nonzero" /><path d="M 140.62 151.47 L 139.60 151.86 C 138.67 152.21 138.20 153.25 138.56 154.18 C 138.91 155.11 139.94 155.58 140.87 155.22 L 141.89 154.84 C 142.82 154.49 143.29 153.45 142.94 152.52 C 142.59 151.59 141.55 151.12 140.62 151.47 Z M 138.85 152.10 L 138.24 152.68 C 137.44 153.45 137.42 154.72 138.18 155.51 C 138.95 156.31 140.22 156.34 141.02 155.57 L 141.62 154.99 C 142.42 154.22 142.45 152.95 141.68 152.16 C 140.92 151.36 139.65 151.33 138.85 152.10 Z M 137.51 154.22 L 137.54 155.03 C 137.59 156.20 138.58 157.11 139.76 157.06 C 140.93 157.01 141.84 156.02 141.79 154.85 L 141.75 154.04 C 141.70 152.86 140.71 151.95 139.54 152.00 C 138.37 152.05 137.46 153.05 137.51 154.22 Z M 137.73 155.91 L 138.25 156.96 C 138.79 158.03 140.09 158.46 141.16 157.93 C 142.23 157.39 142.67 156.09 142.13 155.01 L 141.60 153.97 C 141.07 152.90 139.76 152.46 138.69 153.00 C 137.62 153.54 137.19 154.84 137.73 155.91 Z M 138.40 157.26 L 138.95 158.04 C 139.65 159.03 141.02 159.27 142.02 158.57 C 143.01 157.87 143.24 156.50 142.54 155.51 L 141.98 154.72 C 141.28 153.73 139.91 153.49 138.92 154.19 C 137.93 154.89 137.70 156.27 138.40 157.26 Z M 139.02 158.15 L 139.65 158.95 C 140.41 159.90 141.80 160.06 142.76 159.31 C 143.71 158.55 143.87 157.16 143.11 156.20 L 142.48 155.40 C 141.72 154.44 140.33 154.28 139.37 155.04 C 138.42 155.80 138.26 157.19 139.02 158.15 Z M 139.67 159.00 L 140.33 159.79 C 141.12 160.73 142.52 160.86 143.46 160.08 C 144.40 159.29 144.53 157.89 143.75 156.95 L 143.09 156.15 C 142.31 155.21 140.91 155.08 139.96 155.87 C 139.02 156.65 138.89 158.05 139.67 159.00 Z M 140.32 159.79 L 140.98 160.59 C 141.76 161.54 143.17 161.67 144.12 160.88 C 145.07 160.10 145.20 158.69 144.42 157.74 L 143.76 156.95 C 142.98 156.00 141.57 155.86 140.62 156.65 C 139.67 157.43 139.54 158.84 140.32 159.79 Z M 140.96 160.57 L 141.59 161.35 C 142.36 162.31 143.77 162.46 144.74 161.68 C 145.70 160.90 145.85 159.49 145.07 158.53 L 144.44 157.75 C 143.66 156.79 142.25 156.64 141.29 157.42 C 140.33 158.20 140.18 159.61 140.96 160.57 Z M 141.58 161.35 L 142.19 162.11 C 142.97 163.07 144.38 163.22 145.35 162.44 C 146.31 161.66 146.47 160.25 145.69 159.28 L 145.07 158.53 C 144.29 157.56 142.88 157.41 141.91 158.19 C 140.95 158.97 140.80 160.38 141.58 161.35 Z M 142.20 162.12 L 142.80 162.86 C 143.59 163.83 145.01 163.97 145.97 163.18 C 146.94 162.39 147.08 160.97 146.29 160.01 L 145.68 159.27 C 144.89 158.30 143.47 158.16 142.51 158.95 C 141.55 159.74 141.41 161.16 142.20 162.12 Z M 142.81 162.88 L 143.44 163.63 C 144.24 164.59 145.66 164.72 146.62 163.92 C 147.57 163.12 147.70 161.70 146.91 160.74 L 146.28 159.99 C 145.48 159.03 144.06 158.90 143.10 159.70 C 142.14 160.50 142.01 161.92 142.81 162.88 Z M 143.44 163.64 L 144.10 164.42 C 144.90 165.38 146.33 165.51 147.28 164.70 C 148.24 163.90 148.36 162.48 147.56 161.52 L 146.90 160.73 C 146.10 159.78 144.68 159.65 143.72 160.45 C 142.76 161.26 142.64 162.68 143.44 163.64 Z M 144.09 164.42 L 144.74 165.20 C 145.55 166.16 146.97 166.29 147.93 165.49 C 148.89 164.68 149.02 163.26 148.22 162.30 L 147.57 161.52 C 146.76 160.56 145.34 160.43 144.38 161.23 C 143.42 162.04 143.29 163.46 144.09 164.42 Z M 144.74 165.20 L 145.36 165.95 C 146.16 166.91 147.59 167.04 148.55 166.24 C 149.52 165.43 149.65 164.00 148.84 163.04 L 148.22 162.30 C 147.42 161.34 145.99 161.21 145.03 162.01 C 144.07 162.81 143.94 164.24 144.74 165.20 Z M 145.36 165.95 L 146.01 166.72 C 146.82 167.68 148.25 167.81 149.21 167.00 C 150.17 166.19 150.29 164.76 149.49 163.80 L 148.84 163.03 C 148.03 162.07 146.60 161.95 145.64 162.76 C 144.68 163.56 144.56 164.99 145.36 165.95 Z M 146.02 166.74 L 146.69 167.52 C 147.50 168.48 148.94 168.59 149.89 167.78 C 150.85 166.96 150.96 165.53 150.15 164.57 L 149.48 163.79 C 148.66 162.83 147.23 162.72 146.27 163.53 C 145.32 164.35 145.20 165.78 146.02 166.74 Z M 146.70 167.54 L 147.35 168.29 C 148.18 169.24 149.62 169.33 150.56 168.51 C 151.51 167.68 151.61 166.25 150.78 165.30 L 150.13 164.55 C 149.31 163.61 147.87 163.51 146.92 164.33 C 145.98 165.16 145.88 166.60 146.70 167.54 Z M 147.37 168.31 L 148.02 169.04 C 148.86 169.98 150.29 170.06 151.23 169.23 C 152.17 168.39 152.26 166.95 151.42 166.01 L 150.77 165.28 C 149.93 164.34 148.49 164.26 147.55 165.09 C 146.62 165.93 146.53 167.37 147.37 168.31 Z M 148.03 169.05 L 148.71 169.80 C 149.55 170.73 150.99 170.80 151.92 169.96 C 152.85 169.12 152.93 167.68 152.08 166.75 L 151.41 166.00 C 150.56 165.07 149.13 165.00 148.19 165.84 C 147.26 166.68 147.19 168.12 148.03 169.05 Z M 148.72 169.81 L 149.41 170.57 C 150.26 171.49 151.70 171.55 152.63 170.70 C 153.55 169.86 153.61 168.42 152.76 167.49 L 152.07 166.73 C 151.22 165.81 149.78 165.74 148.86 166.59 C 147.93 167.44 147.87 168.88 148.72 169.81 Z M 149.42 170.58 L 150.10 171.31 C 150.95 172.23 152.39 172.28 153.31 171.43 C 154.24 170.57 154.29 169.13 153.43 168.21 L 152.76 167.48 C 151.90 166.56 150.46 166.50 149.54 167.36 C 148.62 168.21 148.56 169.65 149.42 170.58 Z M 150.11 171.32 L 150.78 172.03 C 151.64 172.95 153.08 172.99 154.00 172.13 C 154.92 171.27 154.96 169.83 154.10 168.91 L 153.42 168.20 C 152.56 167.28 151.12 167.24 150.20 168.10 C 149.29 168.96 149.25 170.40 150.11 171.32 Z M 150.80 172.05 L 151.49 172.77 C 152.36 173.68 153.80 173.71 154.71 172.84 C 155.62 171.97 155.64 170.52 154.77 169.62 L 154.08 168.90 C 153.21 167.99 151.77 167.96 150.86 168.83 C 149.96 169.70 149.93 171.15 150.80 172.05 Z M 151.51 172.80 L 152.23 173.52 C 153.11 174.41 154.55 174.42 155.44 173.54 C 156.34 172.65 156.35 171.21 155.46 170.32 L 154.75 169.60 C 153.87 168.70 152.43 168.69 151.53 169.58 C 150.64 170.46 150.63 171.90 151.51 172.80 Z M 152.25 173.54 L 152.98 174.25 C 153.87 175.13 155.32 175.11 156.19 174.22 C 157.07 173.32 157.06 171.88 156.16 171.00 L 155.44 170.29 C 154.54 169.41 153.10 169.43 152.22 170.32 C 151.34 171.22 151.35 172.66 152.25 173.54 Z M 153.01 174.28 L 153.71 174.94 C 154.62 175.80 156.06 175.76 156.92 174.84 C 157.78 173.93 157.74 172.49 156.83 171.63 L 156.13 170.97 C 155.21 170.11 153.77 170.15 152.91 171.06 C 152.05 171.98 152.09 173.42 153.01 174.28 Z M 153.74 174.96 L 154.46 175.62 C 155.39 176.47 156.83 176.40 157.67 175.48 C 158.52 174.55 158.45 173.11 157.52 172.27 L 156.80 171.61 C 155.87 170.76 154.44 170.83 153.59 171.75 C 152.75 172.68 152.81 174.12 153.74 174.96 Z M 154.49 175.64 L 155.24 176.31 C 156.18 177.14 157.61 177.05 158.44 176.11 C 159.27 175.18 159.18 173.74 158.25 172.91 L 157.50 172.25 C 156.56 171.42 155.13 171.51 154.30 172.44 C 153.47 173.38 153.55 174.81 154.49 175.64 Z M 155.27 176.33 L 156.05 177.00 C 157.00 177.81 158.42 177.71 159.24 176.76 C 160.06 175.81 159.95 174.38 159.00 173.57 L 158.22 172.90 C 157.27 172.08 155.85 172.19 155.03 173.13 C 154.21 174.08 154.32 175.51 155.27 176.33 Z M 156.07 177.01 L 156.85 177.67 C 157.81 178.47 159.23 178.35 160.04 177.40 C 160.84 176.44 160.72 175.02 159.76 174.21 L 158.98 173.55 C 158.03 172.75 156.60 172.87 155.80 173.83 C 154.99 174.78 155.12 176.21 156.07 177.01 Z M 156.88 177.68 L 157.65 178.32 C 158.61 179.11 160.03 178.97 160.82 178.01 C 161.61 177.05 161.47 175.63 160.51 174.84 L 159.74 174.20 C 158.78 173.41 157.36 173.55 156.57 174.51 C 155.78 175.47 155.91 176.89 156.88 177.68 Z M 157.67 178.33 L 158.46 178.96 C 159.43 179.74 160.84 179.58 161.62 178.62 C 162.40 177.65 162.24 176.23 161.27 175.46 L 160.49 174.82 C 159.52 174.05 158.10 174.20 157.33 175.17 C 156.55 176.14 156.70 177.55 157.67 178.33 Z M 158.49 178.98 L 159.28 179.60 C 160.26 180.36 161.67 180.19 162.43 179.21 C 163.19 178.23 163.02 176.83 162.04 176.06 L 161.24 175.44 C 160.27 174.68 158.86 174.85 158.10 175.83 C 157.34 176.81 157.51 178.21 158.49 178.98 Z M 159.32 179.62 L 160.12 180.22 C 161.10 180.96 162.50 180.76 163.25 179.78 C 163.99 178.79 163.79 177.39 162.81 176.65 L 162.01 176.05 C 161.02 175.30 159.62 175.50 158.88 176.49 C 158.14 177.47 158.33 178.87 159.32 179.62 Z M 160.16 180.24 L 160.97 180.83 C 161.97 181.55 163.36 181.32 164.08 180.33 C 164.80 179.33 164.58 177.94 163.58 177.22 L 162.77 176.63 C 161.77 175.91 160.38 176.13 159.66 177.13 C 158.94 178.13 159.16 179.52 160.16 180.24 Z M 161.02 180.85 L 161.87 181.43 C 162.88 182.13 164.26 181.87 164.95 180.86 C 165.65 179.85 165.39 178.47 164.38 177.78 L 163.53 177.19 C 162.52 176.50 161.14 176.75 160.45 177.76 C 159.75 178.77 160.01 180.15 161.02 180.85 Z M 161.92 181.45 L 162.77 182.01 C 163.79 182.67 165.16 182.38 165.82 181.36 C 166.48 180.34 166.20 178.98 165.18 178.31 L 164.33 177.76 C 163.31 177.10 161.95 177.38 161.28 178.40 C 160.62 179.42 160.90 180.79 161.92 181.45 Z M 162.82 182.02 L 163.66 182.54 C 164.69 183.18 166.04 182.86 166.68 181.83 C 167.31 180.80 166.99 179.45 165.96 178.81 L 165.12 178.29 C 164.09 177.66 162.74 177.98 162.11 179.01 C 161.47 180.04 161.79 181.39 162.82 182.02 Z M 163.71 182.56 L 164.55 183.05 C 165.59 183.66 166.93 183.31 167.53 182.27 C 168.14 181.23 167.79 179.89 166.75 179.29 L 165.91 178.80 C 164.87 178.19 163.54 178.54 162.93 179.58 C 162.33 180.62 162.68 181.95 163.71 182.56 Z M 164.60 183.06 L 165.47 183.54 C 166.52 184.12 167.84 183.74 168.42 182.70 C 168.99 181.65 168.62 180.33 167.57 179.75 L 166.70 179.27 C 165.66 178.69 164.34 179.07 163.76 180.12 C 163.18 181.16 163.56 182.48 164.60 183.06 Z M 165.52 183.55 L 166.42 184.02 C 167.47 184.58 168.77 184.17 169.33 183.12 C 169.88 182.07 169.47 180.77 168.42 180.22 L 167.52 179.75 C 166.47 179.19 165.17 179.60 164.62 180.65 C 164.07 181.70 164.47 183.00 165.52 183.55 Z M 166.47 184.03 L 167.37 184.48 C 168.42 185.01 169.71 184.58 170.23 183.53 C 170.76 182.47 170.33 181.19 169.28 180.66 L 168.38 180.21 C 167.32 179.69 166.04 180.12 165.51 181.17 C 164.99 182.22 165.42 183.50 166.47 184.03 Z M 167.41 184.48 L 168.31 184.91 C 169.36 185.41 170.63 184.96 171.13 183.91 C 171.63 182.85 171.18 181.59 170.13 181.09 L 169.23 180.66 C 168.18 180.16 166.91 180.61 166.41 181.66 C 165.91 182.72 166.36 183.98 167.41 184.48 Z M 168.35 184.91 L 169.23 185.31 C 170.29 185.79 171.53 185.33 172.02 184.27 C 172.50 183.21 172.03 181.97 170.97 181.49 L 170.09 181.09 C 169.03 180.61 167.79 181.07 167.31 182.13 C 166.83 183.18 167.29 184.43 168.35 184.91 Z M 169.28 185.31 L 170.24 185.72 C 171.29 186.18 172.51 185.70 172.97 184.65 C 173.43 183.59 172.94 182.37 171.89 181.91 L 170.93 181.50 C 169.88 181.04 168.66 181.52 168.20 182.57 C 167.74 183.63 168.22 184.85 169.28 185.31 Z M 170.28 185.71 L 171.22 186.10 C 172.27 186.53 173.47 186.04 173.90 184.99 C 174.33 183.94 173.83 182.75 172.79 182.31 L 171.85 181.92 C 170.80 181.49 169.60 181.99 169.17 183.03 C 168.74 184.08 169.23 185.28 170.28 185.71 Z M 171.27 186.09 L 172.19 186.45 C 173.22 186.86 174.40 186.34 174.80 185.30 C 175.21 184.27 174.70 183.09 173.66 182.69 L 172.74 182.33 C 171.70 181.92 170.53 182.43 170.12 183.47 C 169.72 184.51 170.23 185.68 171.27 186.09 Z M 172.23 186.43 L 173.12 186.77 C 174.16 187.15 175.30 186.62 175.68 185.59 C 176.07 184.56 175.54 183.41 174.51 183.03 L 173.62 182.70 C 172.58 182.32 171.44 182.84 171.06 183.88 C 170.67 184.91 171.20 186.05 172.23 186.43 Z M 173.17 186.75 L 174.17 187.09 C 175.19 187.45 176.31 186.91 176.66 185.88 C 177.02 184.86 176.47 183.75 175.45 183.39 L 174.46 183.05 C 173.44 182.69 172.32 183.23 171.96 184.26 C 171.61 185.28 172.15 186.39 173.17 186.75 Z M 174.22 187.07 L 175.19 187.38 C 176.20 187.71 177.28 187.15 177.61 186.14 C 177.93 185.13 177.38 184.05 176.37 183.72 L 175.40 183.41 C 174.39 183.09 173.31 183.64 172.98 184.65 C 172.65 185.66 173.21 186.75 174.22 187.07 Z M 175.24 187.36 L 176.16 187.64 C 177.16 187.94 178.21 187.37 178.51 186.37 C 178.81 185.37 178.24 184.32 177.24 184.02 L 176.32 183.75 C 175.32 183.45 174.27 184.02 173.97 185.01 C 173.67 186.01 174.24 187.06 175.24 187.36 Z M 176.21 187.61 L 177.16 187.88 C 178.15 188.15 179.17 187.57 179.44 186.58 C 179.71 185.60 179.13 184.58 178.15 184.31 L 177.19 184.05 C 176.21 183.77 175.19 184.35 174.92 185.34 C 174.65 186.32 175.22 187.34 176.21 187.61 Z M 177.21 187.85 L 178.19 188.10 C 179.16 188.35 180.15 187.76 180.40 186.79 C 180.64 185.82 180.06 184.83 179.09 184.59 L 178.10 184.34 C 177.13 184.09 176.14 184.68 175.90 185.65 C 175.65 186.62 176.24 187.60 177.21 187.85 Z M 178.23 188.07 L 179.19 188.29 C 180.14 188.52 181.10 187.93 181.32 186.97 C 181.54 186.02 180.95 185.06 180.00 184.84 L 179.04 184.62 C 178.09 184.39 177.14 184.98 176.91 185.94 C 176.69 186.89 177.28 187.85 178.23 188.07 Z M 179.22 188.26 L 180.17 188.47 C 181.11 188.68 182.03 188.09 182.24 187.15 C 182.45 186.22 181.86 185.29 180.92 185.08 L 179.97 184.87 C 179.03 184.66 178.10 185.25 177.90 186.19 C 177.69 187.13 178.28 188.06 179.22 188.26 Z M 180.20 188.45 L 181.17 188.65 C 182.10 188.83 183.00 188.24 183.19 187.32 C 183.37 186.40 182.78 185.50 181.86 185.31 L 180.89 185.11 C 179.97 184.92 179.06 185.51 178.88 186.44 C 178.69 187.36 179.28 188.26 180.20 188.45 Z M 181.22 188.62 L 182.21 188.80 C 183.12 188.96 183.99 188.35 184.15 187.44 C 184.31 186.53 183.71 185.67 182.80 185.51 L 181.81 185.33 C 180.90 185.17 180.03 185.77 179.87 186.68 C 179.71 187.59 180.31 188.46 181.22 188.62 Z M 182.27 188.78 L 183.26 188.92 C 184.16 189.05 184.99 188.42 185.12 187.52 C 185.25 186.62 184.62 185.79 183.72 185.66 L 182.74 185.52 C 181.84 185.39 181.00 186.02 180.87 186.92 C 180.75 187.82 181.37 188.65 182.27 188.78 Z M 183.30 188.91 L 184.29 189.02 C 185.19 189.12 185.99 188.48 186.09 187.59 C 186.20 186.69 185.55 185.89 184.66 185.79 L 183.67 185.67 C 182.78 185.57 181.97 186.21 181.87 187.11 C 181.77 188.00 182.41 188.81 183.30 188.91 Z M 184.32 189.01 L 185.33 189.11 C 186.22 189.20 187.01 188.55 187.09 187.66 C 187.18 186.77 186.53 185.98 185.64 185.89 L 184.63 185.80 C 183.74 185.71 182.95 186.36 182.87 187.25 C 182.78 188.14 183.43 188.93 184.32 189.01 Z M 185.34 189.10 L 185.84 189.15 C 186.72 189.23 187.50 188.58 187.58 187.69 C 187.66 186.81 187.01 186.03 186.13 185.95 L 185.63 185.90 C 184.75 185.82 183.96 186.47 183.88 187.36 C 183.80 188.24 184.45 189.02 185.34 189.10 Z"
      fill="black"
      fill-rule="nonzero" /></svg>