<svg xmlns="http://www.w3.org/2000/svg" width="300" height="300" viewBox="0 0 300 300">
<path d="M 136.66 125.22 L 137.59 124.99 C 138.52 124.76 139.09 123.81 138.86 122.87 C 138.63 121.94 137.68 121.37 136.74 121.60 L 135.82 121.83 C 134.88 122.06 134.31 123.01 134.54 123.95 C 134.77 124.88 135.72 125.45 136.66 125.22 Z M 137.63 125.07 L 138.58 124.83 C 139.56 124.57 140.15 123.57 139.89 122.58 C 139.64 121.60 138.63 121.01 137.65 121.27 L 136.70 121.52 C 135.72 121.77 135.13 122.78 135.38 123.76 C 135.64 124.74 136.64 125.33 137.63 125.07 Z M 138.64 124.90 L 139.63 124.62 C 140.66 124.34 141.25 123.27 140.96 122.24 C 140.67 121.22 139.61 120.62 138.58 120.91 L 137.59 121.19 C 136.56 121.48 135.97 122.55 136.26 123.57 C 136.54 124.60 137.61 125.19 138.64 124.90 Z M 139.70 124.67 L 140.69 124.37 C 141.74 124.04 142.33 122.92 142.00 121.87 C 141.68 120.82 140.56 120.23 139.51 120.56 L 138.52 120.86 C 137.46 121.19 136.88 122.31 137.20 123.36 C 137.53 124.41 138.64 125.00 139.70 124.67 Z M 140.73 124.37 L 141.71 124.05 C 142.77 123.70 143.34 122.56 142.99 121.50 C 142.64 120.45 141.50 119.87 140.45 120.22 L 139.46 120.55 C 138.41 120.90 137.84 122.04 138.19 123.09 C 138.54 124.15 139.67 124.72 140.73 124.37 Z M 141.73 124.04 L 142.70 123.71 C 143.75 123.35 144.31 122.20 143.95 121.15 C 143.59 120.10 142.45 119.54 141.39 119.90 L 140.43 120.23 C 139.37 120.59 138.81 121.74 139.17 122.79 C 139.54 123.84 140.68 124.40 141.73 124.04 Z M 142.71 123.71 L 143.61 123.40 C 144.66 123.03 145.22 121.88 144.85 120.83 C 144.49 119.78 143.34 119.22 142.28 119.59 L 141.39 119.90 C 140.33 120.26 139.78 121.41 140.14 122.46 C 140.51 123.52 141.66 124.07 142.71 123.71 Z M 143.60 123.40 L 144.64 123.05 C 145.69 122.68 146.25 121.54 145.89 120.48 C 145.53 119.43 144.38 118.87 143.33 119.23 L 142.29 119.58 C 141.24 119.94 140.68 121.09 141.04 122.15 C 141.40 123.20 142.55 123.76 143.60 123.40 Z M 144.63 123.05 L 145.55 122.73 C 146.61 122.37 147.17 121.23 146.81 120.17 C 146.45 119.12 145.31 118.55 144.25 118.91 L 143.33 119.23 C 142.28 119.59 141.71 120.73 142.07 121.79 C 142.43 122.84 143.58 123.41 144.63 123.05 Z M 145.57 122.73 L 146.43 122.42 C 147.49 122.05 148.04 120.90 147.67 119.85 C 147.30 118.80 146.15 118.25 145.10 118.61 L 144.23 118.92 C 143.18 119.29 142.63 120.44 143.00 121.49 C 143.37 122.54 144.52 123.10 145.57 122.73 Z M 146.46 122.41 L 147.40 122.07 C 148.44 121.68 148.98 120.52 148.59 119.48 C 148.21 118.43 147.05 117.90 146.00 118.28 L 145.07 118.63 C 144.02 119.01 143.49 120.17 143.87 121.22 C 144.26 122.26 145.42 122.80 146.46 122.41 Z M 147.41 122.06 L 148.35 121.71 C 149.39 121.32 149.92 120.16 149.52 119.12 C 149.13 118.07 147.97 117.55 146.93 117.94 L 145.99 118.29 C 144.95 118.68 144.42 119.84 144.81 120.88 C 145.20 121.92 146.36 122.45 147.41 122.06 Z M 148.34 121.71 L 149.25 121.37 C 150.30 120.99 150.83 119.83 150.44 118.79 C 150.06 117.74 148.90 117.21 147.86 117.60 L 146.94 117.94 C 145.90 118.32 145.37 119.48 145.75 120.52 C 146.14 121.56 147.29 122.09 148.34 121.71 Z M 149.25 121.37 L 150.18 121.03 C 151.22 120.64 151.76 119.49 151.37 118.45 C 150.99 117.41 149.84 116.87 148.79 117.26 L 147.86 117.60 C 146.82 117.98 146.29 119.14 146.67 120.18 C 147.06 121.22 148.21 121.75 149.25 121.37 Z M 150.20 121.01 L 151.16 120.65 C 152.20 120.26 152.72 119.10 152.33 118.06 C 151.93 117.03 150.77 116.51 149.74 116.90 L 148.78 117.27 C 147.74 117.66 147.22 118.82 147.61 119.85 C 148.01 120.89 149.16 121.41 150.20 121.01 Z M 151.19 120.63 L 152.12 120.26 C 153.14 119.85 153.64 118.69 153.24 117.67 C 152.83 116.64 151.67 116.14 150.64 116.55 L 149.71 116.92 C 148.69 117.33 148.19 118.49 148.60 119.51 C 149.00 120.54 150.16 121.04 151.19 120.63 Z M 152.14 120.24 L 153.07 119.85 C 154.08 119.44 154.57 118.28 154.15 117.26 C 153.73 116.25 152.57 115.77 151.56 116.19 L 150.62 116.57 C 149.61 116.99 149.13 118.15 149.55 119.16 C 149.97 120.17 151.13 120.66 152.14 120.24 Z M 153.09 119.83 L 154.02 119.44 C 155.02 119.01 155.48 117.85 155.05 116.85 C 154.62 115.85 153.47 115.39 152.47 115.81 L 151.54 116.21 C 150.54 116.64 150.08 117.79 150.50 118.79 C 150.93 119.79 152.09 120.26 153.09 119.83 Z M 154.03 119.41 L 154.96 119.00 C 155.95 118.57 156.39 117.41 155.96 116.42 C 155.52 115.44 154.37 114.99 153.38 115.43 L 152.45 115.84 C 151.46 116.27 151.02 117.43 151.45 118.42 C 151.89 119.40 153.04 119.85 154.03 119.41 Z M 154.97 118.98 L 155.86 118.58 C 156.84 118.14 157.27 116.99 156.83 116.01 C 156.38 115.03 155.23 114.60 154.26 115.04 L 153.37 115.45 C 152.39 115.89 151.96 117.04 152.40 118.02 C 152.84 118.99 153.99 119.42 154.97 118.98 Z M 155.86 118.56 L 156.77 118.14 C 157.74 117.70 158.16 116.55 157.71 115.59 C 157.27 114.62 156.13 114.20 155.16 114.65 L 154.26 115.06 C 153.29 115.51 152.87 116.65 153.31 117.61 C 153.76 118.58 154.90 119.00 155.86 118.56 Z M 156.77 118.12 L 157.68 117.69 C 158.63 117.25 159.04 116.12 158.60 115.17 C 158.15 114.21 157.02 113.80 156.07 114.25 L 155.16 114.67 C 154.21 115.11 153.80 116.24 154.24 117.20 C 154.69 118.15 155.82 118.56 156.77 118.12 Z M 157.68 117.67 L 158.52 117.27 C 159.46 116.82 159.86 115.70 159.41 114.76 C 158.97 113.83 157.85 113.43 156.91 113.87 L 156.07 114.27 C 155.13 114.72 154.73 115.84 155.18 116.78 C 155.62 117.71 156.74 118.11 157.68 117.67 Z M 158.53 117.24 L 159.26 116.89 C 160.18 116.44 160.57 115.33 160.12 114.40 C 159.67 113.48 158.56 113.10 157.64 113.54 L 156.90 113.90 C 155.98 114.35 155.60 115.46 156.05 116.38 C 156.49 117.30 157.61 117.69 158.53 117.24 Z M 159.26 116.86 L 160.15 116.42 C 161.06 115.97 161.43 114.87 160.98 113.96 C 160.53 113.05 159.43 112.68 158.52 113.13 L 157.63 113.57 C 156.72 114.02 156.35 115.12 156.80 116.03 C 157.25 116.94 158.36 117.31 159.26 116.86 Z M 160.15 116.40 L 161.24 115.85 C 162.14 115.40 162.50 114.30 162.05 113.41 C 161.60 112.51 160.50 112.15 159.61 112.60 L 158.52 113.15 C 157.62 113.60 157.26 114.69 157.71 115.59 C 158.16 116.49 159.26 116.85 160.15 116.40 Z M 161.24 115.83 L 161.98 115.46 C 162.87 115.01 163.22 113.92 162.77 113.04 C 162.32 112.15 161.23 111.79 160.35 112.24 L 159.61 112.62 C 158.72 113.07 158.37 114.15 158.82 115.04 C 159.27 115.93 160.35 116.28 161.24 115.83 Z M 161.97 115.45 L 162.80 115.03 C 163.68 114.58 164.03 113.50 163.58 112.62 C 163.13 111.74 162.06 111.39 161.17 111.84 L 160.35 112.25 C 159.47 112.70 159.12 113.78 159.56 114.66 C 160.01 115.55 161.09 115.90 161.97 115.45 Z M 162.79 115.02 L 163.69 114.56 C 164.56 114.12 164.91 113.05 164.47 112.17 C 164.02 111.29 162.95 110.95 162.07 111.39 L 161.18 111.85 C 160.30 112.29 159.95 113.36 160.40 114.24 C 160.84 115.12 161.92 115.47 162.79 115.02 Z M 163.68 114.55 L 164.63 114.07 C 165.50 113.63 165.84 112.56 165.40 111.69 C 164.96 110.82 163.89 110.48 163.02 110.92 L 162.08 111.40 C 161.20 111.85 160.86 112.91 161.30 113.78 C 161.75 114.65 162.81 115.00 163.68 114.55 Z M 164.62 114.06 L 165.60 113.56 C 166.47 113.12 166.81 112.06 166.37 111.20 C 165.93 110.33 164.87 109.99 164.01 110.43 L 163.03 110.93 C 162.16 111.37 161.82 112.43 162.26 113.29 C 162.70 114.16 163.76 114.50 164.62 114.06 Z M 165.60 113.55 L 166.59 113.04 C 167.45 112.60 167.79 111.55 167.36 110.69 C 166.92 109.83 165.87 109.49 165.01 109.93 L 164.01 110.44 C 163.15 110.88 162.81 111.93 163.25 112.79 C 163.69 113.65 164.74 113.99 165.60 113.55 Z"
      fill="black"
      fill-rule="nonzero" /><path d="M 151.47 106.39 L 151.63 105.02 C 151.74 104.09 151.08 103.25 150.15 103.14 C 149.22 103.02 148.38 103.69 148.27 104.61 L 148.10 105.99 C 147.99 106.91 148.65 107.76 149.58 107.87 C 150.51 107.98 151.35 107.32 151.47 106.39 Z M 151.75 105.16 L 151.88 104.46 C 152.07 103.47 151.42 102.51 150.43 102.32 C 149.43 102.13 148.47 102.78 148.28 103.78 L 148.15 104.47 C 147.96 105.47 148.61 106.43 149.61 106.62 C 150.60 106.81 151.56 106.15 151.75 105.16 Z M 148.18 104.45 L 148.24 104.82 C 148.42 105.88 149.42 106.58 150.47 106.40 C 151.53 106.22 152.23 105.22 152.05 104.17 L 151.99 103.79 C 151.81 102.74 150.81 102.03 149.76 102.21 C 148.71 102.39 148.00 103.39 148.18 104.45 Z M 148.17 104.55 L 148.20 105.55 C 148.22 106.64 149.13 107.51 150.22 107.48 C 151.31 107.45 152.18 106.55 152.15 105.45 L 152.13 104.45 C 152.10 103.36 151.19 102.49 150.10 102.52 C 149.01 102.55 148.14 103.45 148.17 104.55 Z M 148.17 105.51 L 148.17 106.76 C 148.18 107.87 149.08 108.77 150.19 108.76 C 151.30 108.76 152.19 107.85 152.19 106.75 L 152.18 105.49 C 152.17 104.38 151.27 103.49 150.16 103.50 C 149.06 103.50 148.16 104.40 148.17 105.51 Z M 148.15 106.75 L 148.15 107.95 C 148.15 109.07 149.06 109.97 150.18 109.97 C 151.30 109.97 152.21 109.07 152.21 107.95 L 152.21 106.75 C 152.21 105.63 151.30 104.73 150.18 104.73 C 149.06 104.73 148.15 105.64 148.15 106.75 Z M 148.14 107.95 L 148.15 108.96 C 148.15 110.08 149.06 110.99 150.19 110.99 C 151.31 110.98 152.22 110.07 152.22 108.95 L 152.22 107.94 C 152.21 106.82 151.30 105.91 150.17 105.91 C 149.05 105.91 148.14 106.83 148.14 107.95 Z M 148.14 108.97 L 148.15 109.87 C 148.16 111.00 149.08 111.91 150.21 111.89 C 151.34 111.88 152.24 110.96 152.23 109.83 L 152.22 108.93 C 152.21 107.80 151.29 106.90 150.16 106.91 C 149.03 106.92 148.13 107.84 148.14 108.97 Z M 148.15 109.90 L 148.17 110.85 C 148.19 111.98 149.12 112.87 150.25 112.85 C 151.38 112.83 152.28 111.89 152.25 110.77 L 152.23 109.81 C 152.21 108.68 151.28 107.79 150.15 107.81 C 149.02 107.83 148.12 108.77 148.15 109.90 Z M 148.16 110.86 L 148.19 111.86 C 148.22 112.99 149.15 113.88 150.28 113.85 C 151.41 113.83 152.31 112.89 152.28 111.76 L 152.26 110.76 C 152.23 109.63 151.29 108.73 150.16 108.76 C 149.03 108.79 148.14 109.73 148.16 110.86 Z M 148.19 111.85 L 148.21 112.87 C 148.23 114.00 149.16 114.90 150.30 114.88 C 151.43 114.86 152.33 113.92 152.30 112.79 L 152.28 111.77 C 152.26 110.64 151.33 109.74 150.19 109.76 C 149.06 109.78 148.16 110.72 148.19 111.85 Z M 148.20 112.85 L 148.21 113.84 C 148.23 114.97 149.15 115.88 150.29 115.87 C 151.42 115.85 152.33 114.93 152.31 113.80 L 152.30 112.81 C 152.29 111.68 151.37 110.77 150.23 110.78 C 149.10 110.79 148.19 111.72 148.20 112.85 Z M 148.21 113.82 L 148.22 114.82 C 148.22 115.96 149.14 116.87 150.27 116.87 C 151.41 116.86 152.32 115.94 152.32 114.81 L 152.32 113.81 C 152.31 112.68 151.39 111.76 150.26 111.77 C 149.13 111.77 148.21 112.69 148.21 113.82 Z M 148.22 114.82 L 148.22 115.83 C 148.22 116.96 149.14 117.88 150.27 117.88 C 151.40 117.88 152.32 116.96 152.32 115.83 L 152.32 114.82 C 152.32 113.68 151.40 112.77 150.27 112.77 C 149.13 112.77 148.22 113.69 148.22 114.82 Z M 148.22 115.83 L 148.22 116.82 C 148.22 117.95 149.14 118.87 150.27 118.87 C 151.40 118.87 152.32 117.95 152.32 116.82 L 152.32 115.83 C 152.32 114.69 151.40 113.78 150.27 113.78 C 149.13 113.78 148.22 114.70 148.22 115.83 Z M 148.22 116.83 L 148.22 117.83 C 148.23 118.97 149.15 119.88 150.28 119.87 C 151.42 119.87 152.33 118.95 152.32 117.81 L 152.32 116.81 C 152.31 115.68 151.39 114.76 150.26 114.77 C 149.13 114.78 148.21 115.70 148.22 116.83 Z M 148.23 117.85 L 148.24 118.86 C 148.25 119.99 149.18 120.89 150.31 120.88 C 151.44 120.86 152.35 119.94 152.34 118.80 L 152.32 117.80 C 152.31 116.67 151.38 115.76 150.25 115.78 C 149.12 115.79 148.21 116.72 148.23 117.85 Z M 148.24 118.87 L 148.26 119.86 C 148.28 120.99 149.22 121.89 150.35 121.87 C 151.48 121.85 152.37 120.91 152.35 119.78 L 152.33 118.79 C 152.31 117.66 151.38 116.76 150.25 116.78 C 149.12 116.81 148.22 117.74 148.24 118.87 Z M 148.26 119.87 L 148.28 120.87 C 148.31 121.99 149.24 122.89 150.37 122.86 C 151.50 122.84 152.40 121.91 152.37 120.78 L 152.35 119.78 C 152.33 118.65 151.39 117.75 150.26 117.78 C 149.13 117.80 148.24 118.74 148.26 119.87 Z M 148.29 120.86 L 148.30 121.86 C 148.32 122.98 149.25 123.88 150.38 123.86 C 151.51 123.84 152.40 122.92 152.39 121.79 L 152.37 120.79 C 152.35 119.66 151.42 118.76 150.29 118.78 C 149.17 118.80 148.27 119.73 148.29 120.86 Z M 148.31 121.84 L 148.32 122.81 C 148.33 123.93 149.25 124.84 150.37 124.83 C 151.50 124.82 152.40 123.90 152.39 122.77 L 152.38 121.80 C 152.37 120.68 151.45 119.78 150.33 119.79 C 149.20 119.80 148.30 120.72 148.31 121.84 Z M 148.32 122.80 L 148.33 123.79 C 148.33 124.91 149.24 125.82 150.36 125.82 C 151.49 125.81 152.39 124.90 152.39 123.78 L 152.39 122.78 C 152.38 121.66 151.47 120.75 150.35 120.76 C 149.22 120.76 148.32 121.67 148.32 122.80 Z M 148.33 123.79 L 148.33 124.83 C 148.33 125.94 149.24 126.85 150.36 126.85 C 151.48 126.85 152.38 125.94 152.38 124.82 L 152.38 123.78 C 152.38 122.67 151.47 121.76 150.36 121.76 C 149.24 121.76 148.33 122.67 148.33 123.79 Z M 148.34 124.82 L 148.34 125.82 C 148.34 126.93 149.24 127.84 150.36 127.84 C 151.47 127.84 152.38 126.93 152.38 125.82 L 152.38 124.82 C 152.38 123.71 151.47 122.81 150.36 122.81 C 149.24 122.81 148.34 123.71 148.34 124.82 Z M 148.35 125.82 L 148.35 126.83 C 148.35 127.94 149.25 128.84 150.36 128.84 C 151.47 128.84 152.37 127.94 152.37 126.83 L 152.37 125.82 C 152.37 124.71 151.47 123.81 150.36 123.81 C 149.25 123.81 148.35 124.71 148.35 125.82 Z M 148.36 126.83 L 148.36 127.84 C 148.36 128.94 149.25 129.84 150.36 129.84 C 151.46 129.84 152.36 128.94 152.36 127.84 L 152.36 126.83 C 152.36 125.72 151.46 124.83 150.36 124.83 C 149.25 124.83 148.36 125.72 148.36 126.83 Z M 148.37 127.84 L 148.37 128.84 C 148.37 129.94 149.26 130.83 150.36 130.83 C 151.46 130.83 152.35 129.94 152.35 128.84 L 152.35 127.84 C 152.35 126.74 151.46 125.85 150.36 125.85 C 149.26 125.85 148.37 126.74 148.37 127.84 Z M 148.38 128.84 L 148.38 129.87 C 148.38 130.96 149.26 131.85 150.36 131.85 C 151.45 131.85 152.34 130.96 152.34 129.87 L 152.34 128.84 C 152.34 127.75 151.45 126.87 150.36 126.87 C 149.26 126.87 148.38 127.75 148.38 128.84 Z M 148.39 129.87 L 148.39 130.86 C 148.39 131.95 149.27 132.83 150.36 132.83 C 151.44 132.83 152.32 131.95 152.32 130.86 L 152.32 129.87 C 152.32 128.78 151.44 127.90 150.36 127.90 C 149.27 127.90 148.39 128.78 148.39 129.87 Z M 148.40 130.86 L 148.40 131.84 C 148.40 132.91 149.28 133.79 150.36 133.79 C 151.44 133.79 152.31 132.91 152.31 131.84 L 152.31 130.86 C 152.31 129.78 151.44 128.91 150.36 128.91 C 149.28 128.91 148.40 129.78 148.40 130.86 Z M 148.42 131.84 L 148.42 132.85 C 148.42 133.92 149.29 134.79 150.36 134.79 C 151.43 134.79 152.30 133.92 152.30 132.85 L 152.30 131.84 C 152.30 130.76 151.43 129.90 150.36 129.90 C 149.29 129.90 148.42 130.76 148.42 131.84 Z M 148.44 132.85 L 148.44 133.86 C 148.44 134.92 149.30 135.77 150.36 135.77 C 151.42 135.77 152.28 134.92 152.28 133.86 L 152.28 132.85 C 152.28 131.79 151.42 130.93 150.36 130.93 C 149.30 130.93 148.44 131.79 148.44 132.85 Z M 148.46 133.86 L 148.46 134.84 C 148.46 135.89 149.31 136.74 150.36 136.74 C 151.41 136.74 152.26 135.89 152.26 134.84 L 152.26 133.86 C 152.26 132.81 151.41 131.96 150.36 131.96 C 149.31 131.96 148.46 132.81 148.46 133.86 Z M 148.48 134.84 L 148.48 135.79 C 148.48 136.83 149.32 137.67 150.36 137.67 C 151.39 137.67 152.24 136.83 152.24 135.79 L 152.24 134.84 C 152.24 133.80 151.39 132.96 150.36 132.96 C 149.32 132.96 148.48 133.80 148.48 134.84 Z M 148.50 135.79 L 148.50 136.75 C 148.50 137.77 149.33 138.60 150.36 138.60 C 151.38 138.60 152.21 137.77 152.21 136.75 L 152.21 135.79 C 152.21 134.77 151.38 133.94 150.36 133.94 C 149.33 133.94 148.50 134.77 148.50 135.79 Z M 148.53 136.75 L 148.53 137.77 C 148.53 138.78 149.35 139.60 150.36 139.60 C 151.37 139.60 152.18 138.78 152.18 137.77 L 152.18 136.75 C 152.18 135.74 151.37 134.92 150.36 134.92 C 149.35 134.92 148.53 135.74 148.53 136.75 Z M 148.56 137.77 L 148.56 138.81 C 148.56 139.81 149.36 140.61 150.36 140.61 C 151.35 140.61 152.16 139.81 152.16 138.81 L 152.16 137.77 C 152.16 136.77 151.35 135.97 150.36 135.97 C 149.36 135.97 148.55 136.77 148.56 137.77 Z M 148.58 138.82 L 148.58 139.82 C 148.59 140.80 149.38 141.60 150.37 141.59 C 151.35 141.59 152.14 140.79 152.14 139.81 L 152.14 138.80 C 152.13 137.82 151.33 137.03 150.35 137.03 C 149.37 137.03 148.57 137.83 148.58 138.82 Z M 148.60 139.84 L 148.62 140.87 C 148.63 141.84 149.43 142.62 150.40 142.60 C 151.37 142.59 152.15 141.79 152.13 140.82 L 152.12 139.79 C 152.11 138.82 151.31 138.04 150.34 138.06 C 149.37 138.07 148.59 138.87 148.60 139.84 Z M 148.64 140.90 L 148.67 141.91 C 148.70 142.87 149.51 143.62 150.47 143.59 C 151.42 143.56 152.18 142.76 152.14 141.80 L 152.11 140.79 C 152.08 139.83 151.28 139.08 150.32 139.11 C 149.36 139.14 148.61 139.94 148.64 140.90 Z M 148.70 141.96 L 148.77 142.99 C 148.83 143.94 149.64 144.65 150.58 144.59 C 151.53 144.53 152.24 143.72 152.18 142.78 L 152.12 141.74 C 152.06 140.80 151.24 140.08 150.30 140.15 C 149.36 140.21 148.64 141.02 148.70 141.96 Z M 148.81 143.06 L 148.92 144.10 C 149.02 145.02 149.84 145.69 150.76 145.59 C 151.68 145.49 152.35 144.66 152.25 143.74 L 152.14 142.71 C 152.04 141.79 151.22 141.12 150.30 141.22 C 149.38 141.32 148.71 142.14 148.81 143.06 Z M 148.97 144.15 L 149.11 145.10 C 149.23 146.00 150.06 146.62 150.96 146.49 C 151.85 146.36 152.47 145.53 152.34 144.64 L 152.20 143.69 C 152.07 142.80 151.25 142.18 150.35 142.30 C 149.46 142.43 148.84 143.26 148.97 144.15 Z M 149.15 145.13 L 149.26 145.85 C 149.41 146.72 150.23 147.31 151.10 147.17 C 151.97 147.03 152.56 146.21 152.42 145.34 L 152.30 144.62 C 152.16 143.75 151.34 143.16 150.47 143.30 C 149.60 143.44 149.01 144.26 149.15 145.13 Z"
      fill="black"
      fill-rule="nonzero" /><path d="M 144.03 128.17 L 144.35 126.87 C 144.57 125.97 144.03 125.06 143.13 124.84 C 142.23 124.62 141.32 125.16 141.10 126.06 L 140.78 127.37 C 140.56 128.26 141.10 129.17 142.00 129.39 C 142.90 129.62 143.81 129.07 144.03 128.17 Z M 144.40 127.05 L 144.55 126.62 C 144.88 125.69 144.39 124.68 143.46 124.36 C 142.54 124.03 141.52 124.52 141.20 125.45 L 141.05 125.88 C 140.73 126.80 141.21 127.82 142.14 128.14 C 143.07 128.47 144.08 127.98 144.40 127.05 Z M 141.07 125.79 L 140.98 126.45 C 140.84 127.45 141.54 128.37 142.54 128.51 C 143.54 128.65 144.46 127.95 144.60 126.95 L 144.69 126.28 C 144.82 125.28 144.12 124.36 143.12 124.22 C 142.12 124.09 141.20 124.79 141.07 125.79 Z M 141.00 126.31 L 140.72 127.60 C 140.50 128.59 141.12 129.56 142.11 129.78 C 143.09 130.00 144.07 129.37 144.28 128.39 L 144.57 127.10 C 144.79 126.11 144.17 125.13 143.18 124.92 C 142.20 124.70 141.22 125.32 141.00 126.31 Z M 140.74 127.49 L 140.44 128.55 C 140.16 129.52 140.72 130.54 141.69 130.82 C 142.66 131.09 143.67 130.53 143.95 129.56 L 144.26 128.50 C 144.54 127.53 143.98 126.52 143.01 126.24 C 142.04 125.96 141.02 126.52 140.74 127.49 Z M 140.46 128.48 L 140.14 129.46 C 139.82 130.42 140.33 131.45 141.29 131.77 C 142.25 132.09 143.28 131.57 143.60 130.62 L 143.93 129.64 C 144.24 128.68 143.73 127.65 142.77 127.33 C 141.82 127.01 140.78 127.53 140.46 128.48 Z M 140.15 129.42 L 139.81 130.36 C 139.47 131.31 139.95 132.35 140.90 132.70 C 141.84 133.04 142.89 132.55 143.23 131.61 L 143.58 130.66 C 143.92 129.72 143.44 128.67 142.49 128.33 C 141.54 127.98 140.50 128.47 140.15 129.42 Z M 139.82 130.33 L 139.47 131.25 C 139.11 132.19 139.58 133.24 140.52 133.60 C 141.46 133.96 142.51 133.49 142.87 132.55 L 143.22 131.64 C 143.58 130.70 143.11 129.65 142.17 129.29 C 141.24 128.93 140.18 129.40 139.82 130.33 Z M 139.48 131.23 L 139.09 132.22 C 138.72 133.15 139.17 134.20 140.10 134.58 C 141.03 134.95 142.09 134.50 142.46 133.56 L 142.86 132.58 C 143.23 131.65 142.78 130.59 141.84 130.22 C 140.91 129.84 139.86 130.30 139.48 131.23 Z M 139.10 132.19 L 138.74 133.07 C 138.35 134.00 138.79 135.06 139.71 135.44 C 140.64 135.82 141.70 135.39 142.08 134.46 L 142.45 133.59 C 142.83 132.66 142.39 131.60 141.47 131.22 C 140.55 130.83 139.49 131.27 139.10 132.19 Z M 138.75 133.06 L 138.38 133.93 C 137.98 134.85 138.41 135.91 139.33 136.30 C 140.24 136.69 141.31 136.27 141.70 135.35 L 142.07 134.48 C 142.46 133.56 142.04 132.50 141.12 132.11 C 140.20 131.72 139.14 132.14 138.75 133.06 Z M 138.38 133.92 L 137.99 134.83 C 137.59 135.74 138.00 136.81 138.91 137.20 C 139.83 137.60 140.89 137.19 141.29 136.27 L 141.69 135.36 C 142.09 134.45 141.67 133.39 140.76 132.99 C 139.85 132.59 138.78 133.00 138.38 133.92 Z M 137.99 134.81 L 137.58 135.73 C 137.17 136.64 137.58 137.71 138.48 138.11 C 139.39 138.52 140.46 138.12 140.87 137.21 L 141.28 136.29 C 141.69 135.38 141.29 134.32 140.38 133.91 C 139.47 133.50 138.40 133.90 137.99 134.81 Z M 137.59 135.71 L 137.16 136.63 C 136.74 137.53 137.13 138.60 138.03 139.03 C 138.93 139.45 140.00 139.06 140.42 138.16 L 140.85 137.23 C 141.27 136.33 140.89 135.26 139.99 134.84 C 139.08 134.42 138.01 134.81 137.59 135.71 Z M 137.17 136.61 L 136.74 137.52 C 136.30 138.41 136.68 139.48 137.57 139.92 C 138.47 140.35 139.54 139.97 139.97 139.08 L 140.41 138.18 C 140.84 137.28 140.47 136.21 139.57 135.78 C 138.68 135.34 137.61 135.72 137.17 136.61 Z M 136.75 137.50 L 136.32 138.35 C 135.88 139.24 136.24 140.32 137.13 140.76 C 138.01 141.21 139.09 140.85 139.53 139.96 L 139.96 139.10 C 140.41 138.21 140.04 137.13 139.16 136.69 C 138.27 136.25 137.19 136.61 136.75 137.50 Z M 136.33 138.33 L 135.90 139.17 C 135.45 140.05 135.80 141.13 136.68 141.58 C 137.56 142.04 138.64 141.69 139.09 140.81 L 139.52 139.98 C 139.97 139.10 139.63 138.02 138.75 137.56 C 137.87 137.11 136.79 137.46 136.33 138.33 Z M 135.92 139.15 L 135.43 140.07 C 134.97 140.94 135.30 142.02 136.17 142.49 C 137.04 142.95 138.12 142.62 138.59 141.75 L 139.08 140.83 C 139.54 139.96 139.21 138.88 138.34 138.41 C 137.47 137.95 136.38 138.28 135.92 139.15 Z M 135.44 140.06 L 134.98 140.90 C 134.51 141.77 134.83 142.85 135.69 143.32 C 136.56 143.79 137.64 143.47 138.11 142.61 L 138.57 141.76 C 139.05 140.90 138.73 139.81 137.86 139.34 C 137.00 138.87 135.91 139.19 135.44 140.06 Z M 135.00 140.89 L 134.52 141.75 C 134.04 142.61 134.35 143.69 135.21 144.16 C 136.06 144.64 137.14 144.33 137.62 143.48 L 138.10 142.62 C 138.58 141.76 138.27 140.68 137.41 140.21 C 136.55 139.73 135.47 140.04 135.00 140.89 Z M 134.54 141.73 L 134.02 142.64 C 133.53 143.48 133.82 144.56 134.67 145.05 C 135.52 145.54 136.60 145.24 137.08 144.40 L 137.60 143.49 C 138.09 142.65 137.80 141.57 136.95 141.08 C 136.10 140.59 135.02 140.89 134.54 141.73 Z M 134.04 142.61 L 133.47 143.56 C 132.97 144.40 133.24 145.48 134.07 145.98 C 134.91 146.48 135.99 146.21 136.49 145.37 L 137.06 144.42 C 137.56 143.59 137.29 142.51 136.46 142.01 C 135.62 141.51 134.54 141.78 134.04 142.61 Z M 133.51 143.53 L 132.78 144.66 C 132.26 145.47 132.50 146.55 133.31 147.07 C 134.13 147.59 135.21 147.35 135.73 146.54 L 136.45 145.41 C 136.97 144.60 136.74 143.52 135.92 143.00 C 135.11 142.48 134.03 142.71 133.51 143.53 Z M 132.85 144.58 L 132.31 145.33 C 131.75 146.11 131.93 147.19 132.70 147.75 C 133.48 148.31 134.57 148.14 135.13 147.36 L 135.67 146.61 C 136.23 145.84 136.05 144.75 135.27 144.19 C 134.49 143.63 133.41 143.80 132.85 144.58 Z M 133.43 144.64 L 133.27 144.67 C 132.33 144.83 131.70 145.72 131.86 146.66 C 132.02 147.60 132.91 148.23 133.84 148.07 L 134.01 148.04 C 134.95 147.88 135.58 146.99 135.42 146.06 C 135.26 145.12 134.37 144.49 133.43 144.64 Z M 135.14 147.02 L 135.51 146.10 C 135.87 145.22 135.45 144.23 134.58 143.87 C 133.71 143.51 132.71 143.93 132.35 144.80 L 131.97 145.72 C 131.62 146.60 132.04 147.60 132.91 147.95 C 133.78 148.31 134.78 147.89 135.14 147.02 Z M 135.44 146.23 L 136.02 145.10 C 136.45 144.27 136.12 143.25 135.29 142.82 C 134.45 142.39 133.43 142.72 133.00 143.55 L 132.42 144.67 C 131.99 145.51 132.32 146.53 133.16 146.96 C 133.99 147.39 135.01 147.06 135.44 146.23 Z M 135.98 145.18 L 136.49 144.31 C 136.96 143.50 136.69 142.46 135.87 141.99 C 135.06 141.51 134.02 141.79 133.55 142.60 L 133.04 143.47 C 132.57 144.28 132.85 145.32 133.66 145.80 C 134.47 146.27 135.51 145.99 135.98 145.18 Z M 136.46 144.37 L 137.00 143.52 C 137.50 142.72 137.26 141.67 136.46 141.17 C 135.66 140.66 134.61 140.90 134.10 141.70 L 133.57 142.54 C 133.07 143.34 133.31 144.40 134.11 144.90 C 134.91 145.40 135.96 145.16 136.46 144.37 Z M 136.98 143.56 L 137.53 142.74 C 138.05 141.95 137.83 140.89 137.04 140.36 C 136.25 139.84 135.19 140.05 134.66 140.84 L 134.12 141.66 C 133.59 142.45 133.81 143.52 134.60 144.04 C 135.39 144.57 136.46 144.35 136.98 143.56 Z M 137.51 142.78 L 138.08 141.97 C 138.62 141.19 138.43 140.11 137.65 139.57 C 136.86 139.02 135.78 139.21 135.24 140.00 L 134.67 140.80 C 134.13 141.59 134.32 142.67 135.10 143.21 C 135.89 143.76 136.97 143.57 137.51 142.78 Z M 138.05 142.03 L 138.65 141.23 C 139.23 140.46 139.07 139.36 138.30 138.79 C 137.53 138.21 136.44 138.37 135.86 139.14 L 135.26 139.94 C 134.68 140.71 134.84 141.81 135.61 142.38 C 136.38 142.96 137.48 142.80 138.05 142.03 Z M 138.62 141.30 L 139.27 140.50 C 139.89 139.75 139.77 138.63 139.02 138.02 C 138.26 137.40 137.15 137.52 136.54 138.27 L 135.89 139.07 C 135.27 139.82 135.39 140.94 136.14 141.55 C 136.90 142.17 138.01 142.05 138.62 141.30 Z M 139.24 140.58 L 139.93 139.80 C 140.58 139.06 140.52 137.93 139.78 137.28 C 139.04 136.62 137.91 136.69 137.25 137.43 L 136.57 138.20 C 135.91 138.94 135.98 140.07 136.72 140.73 C 137.46 141.38 138.59 141.31 139.24 140.58 Z M 139.89 139.89 L 140.59 139.17 C 141.29 138.45 141.28 137.30 140.56 136.60 C 139.84 135.90 138.68 135.91 137.98 136.63 L 137.29 137.35 C 136.58 138.07 136.60 139.22 137.32 139.92 C 138.04 140.62 139.19 140.61 139.89 139.89 Z M 140.52 139.28 L 141.28 138.59 C 142.04 137.91 142.11 136.74 141.42 135.98 C 140.74 135.22 139.57 135.16 138.81 135.84 L 138.05 136.52 C 137.29 137.21 137.23 138.38 137.91 139.14 C 138.59 139.90 139.76 139.96 140.52 139.28 Z M 141.12 138.77 L 141.95 138.19 C 142.80 137.60 143.02 136.43 142.43 135.57 C 141.84 134.72 140.66 134.50 139.81 135.09 L 138.98 135.67 C 138.12 136.26 137.91 137.43 138.50 138.29 C 139.09 139.14 140.26 139.36 141.12 138.77 Z M 141.60 138.42 L 142.46 138.07 C 143.44 137.67 143.91 136.55 143.51 135.57 C 143.12 134.59 142.00 134.12 141.02 134.52 L 140.16 134.87 C 139.18 135.27 138.71 136.38 139.10 137.36 C 139.50 138.34 140.62 138.82 141.60 138.42 Z M 141.90 138.24 L 142.91 138.15 C 143.99 138.06 144.79 137.12 144.70 136.05 C 144.61 134.97 143.66 134.17 142.59 134.26 L 141.58 134.35 C 140.50 134.44 139.71 135.38 139.80 136.46 C 139.89 137.53 140.83 138.33 141.90 138.24 Z M 142.05 138.07 L 142.92 138.40 C 143.95 138.79 145.10 138.27 145.48 137.24 C 145.87 136.22 145.36 135.07 144.33 134.68 L 143.45 134.35 C 142.43 133.96 141.28 134.48 140.89 135.50 C 140.51 136.53 141.02 137.68 142.05 138.07 Z M 142.12 137.86 L 142.71 138.53 C 143.44 139.36 144.70 139.45 145.53 138.72 C 146.37 137.99 146.45 136.72 145.72 135.89 L 145.13 135.22 C 144.40 134.39 143.14 134.30 142.31 135.03 C 141.47 135.76 141.39 137.03 142.12 137.86 Z M 142.45 138.17 L 142.96 139.12 C 143.49 140.09 144.71 140.45 145.68 139.93 C 146.66 139.40 147.02 138.18 146.49 137.21 L 145.98 136.26 C 145.45 135.28 144.23 134.92 143.26 135.45 C 142.28 135.97 141.92 137.19 142.45 138.17 Z M 142.92 139.04 L 143.37 139.95 C 143.85 140.95 145.05 141.37 146.05 140.88 C 147.05 140.40 147.46 139.20 146.98 138.20 L 146.53 137.29 C 146.05 136.29 144.85 135.87 143.85 136.36 C 142.86 136.84 142.44 138.04 142.92 139.04 Z M 143.39 139.99 L 143.86 140.90 C 144.36 141.88 145.57 142.27 146.55 141.77 C 147.54 141.26 147.92 140.06 147.42 139.07 L 146.96 138.16 C 146.45 137.18 145.25 136.79 144.26 137.30 C 143.28 137.80 142.89 139.01 143.39 139.99 Z M 143.91 140.99 L 144.42 141.86 C 144.98 142.81 146.20 143.13 147.15 142.58 C 148.10 142.02 148.43 140.80 147.87 139.85 L 147.36 138.98 C 146.81 138.03 145.58 137.70 144.63 138.26 C 143.68 138.82 143.36 140.04 143.91 140.99 Z M 144.56 142.03 L 145.19 142.88 C 145.84 143.76 147.07 143.94 147.95 143.29 C 148.83 142.65 149.01 141.41 148.36 140.53 L 147.73 139.68 C 147.09 138.80 145.85 138.62 144.97 139.27 C 144.10 139.91 143.91 141.15 144.56 142.03 Z M 145.44 143.10 L 146.15 143.78 C 146.92 144.52 148.15 144.50 148.88 143.73 C 149.62 142.96 149.60 141.73 148.83 140.99 L 148.11 140.31 C 147.34 139.57 146.12 139.60 145.38 140.37 C 144.64 141.14 144.67 142.36 145.44 143.10 Z M 146.54 144.01 L 147.35 144.48 C 148.24 145.01 149.39 144.71 149.92 143.82 C 150.44 142.92 150.14 141.77 149.25 141.25 L 148.44 140.77 C 147.55 140.25 146.40 140.54 145.87 141.44 C 145.35 142.33 145.64 143.48 146.54 144.01 Z M 147.79 144.59 L 148.74 144.87 C 149.69 145.14 150.69 144.60 150.97 143.65 C 151.25 142.70 150.70 141.70 149.75 141.42 L 148.80 141.14 C 147.85 140.86 146.86 141.41 146.58 142.36 C 146.30 143.31 146.84 144.31 147.79 144.59 Z M 149.00 144.81 L 149.99 144.96 C 150.92 145.10 151.78 144.46 151.91 143.54 C 152.05 142.62 151.41 141.76 150.49 141.62 L 149.49 141.47 C 148.57 141.34 147.71 141.97 147.57 142.90 C 147.44 143.82 148.08 144.68 149.00 144.81 Z M 150.05 144.91 L 150.16 144.92 C 151.06 145.03 151.87 144.39 151.98 143.50 C 152.08 142.61 151.45 141.79 150.55 141.69 L 150.44 141.67 C 149.54 141.56 148.73 142.20 148.62 143.10 C 148.52 143.99 149.15 144.80 150.05 144.91 Z"
      fill="black"
      fill-rule="nonzero" /><path d="M 156.37 122.46 L 156.52 123.44 C 156.67 124.47 157.62 125.17 158.65 125.02 C 159.67 124.86 160.37 123.91 160.22 122.89 L 160.07 121.91 C 159.92 120.89 158.97 120.19 157.95 120.34 C 156.92 120.49 156.22 121.44 156.37 122.46 Z M 156.51 123.34 L 156.60 124.33 C 156.69 125.36 157.61 126.12 158.63 126.02 C 159.66 125.92 160.42 125.01 160.32 123.98 L 160.23 122.99 C 160.14 121.97 159.22 121.21 158.20 121.31 C 157.17 121.40 156.41 122.31 156.51 123.34 Z M 156.59 124.13 L 156.57 125.13 C 156.56 126.17 157.38 127.02 158.41 127.04 C 159.45 127.05 160.30 126.23 160.32 125.20 L 160.33 124.19 C 160.35 123.16 159.53 122.30 158.49 122.29 C 157.46 122.27 156.61 123.09 156.59 124.13 Z M 156.59 124.88 L 156.45 125.81 C 156.29 126.83 156.99 127.79 158.01 127.95 C 159.03 128.11 159.99 127.41 160.15 126.39 L 160.29 125.45 C 160.45 124.43 159.75 123.48 158.73 123.32 C 157.71 123.16 156.75 123.86 156.59 124.88 Z M 156.49 125.63 L 156.24 126.58 C 155.98 127.58 156.58 128.60 157.58 128.86 C 158.58 129.12 159.60 128.52 159.86 127.52 L 160.11 126.57 C 160.37 125.57 159.77 124.55 158.77 124.29 C 157.77 124.03 156.75 124.63 156.49 125.63 Z M 156.27 126.48 L 155.95 127.46 C 155.63 128.44 156.17 129.50 157.16 129.82 C 158.14 130.13 159.20 129.59 159.52 128.61 L 159.83 127.63 C 160.15 126.64 159.61 125.59 158.63 125.27 C 157.64 124.95 156.59 125.49 156.27 126.48 Z M 155.96 127.42 L 155.63 128.39 C 155.29 129.36 155.81 130.43 156.79 130.77 C 157.76 131.11 158.83 130.59 159.17 129.61 L 159.50 128.65 C 159.84 127.67 159.32 126.60 158.35 126.26 C 157.37 125.92 156.30 126.44 155.96 127.42 Z M 155.63 128.38 L 155.31 129.30 C 154.97 130.28 155.48 131.35 156.46 131.69 C 157.43 132.03 158.50 131.52 158.84 130.54 L 159.17 129.62 C 159.51 128.64 158.99 127.57 158.02 127.23 C 157.04 126.89 155.97 127.40 155.63 128.38 Z M 155.31 129.29 L 154.98 130.23 C 154.63 131.21 155.13 132.28 156.11 132.63 C 157.08 132.97 158.15 132.47 158.50 131.49 L 158.84 130.55 C 159.19 129.58 158.68 128.51 157.71 128.16 C 156.73 127.81 155.66 128.32 155.31 129.29 Z M 154.98 130.22 L 154.63 131.18 C 154.27 132.15 154.77 133.22 155.74 133.58 C 156.71 133.94 157.79 133.44 158.14 132.47 L 158.50 131.51 C 158.85 130.54 158.35 129.46 157.38 129.11 C 156.41 128.75 155.34 129.25 154.98 130.22 Z M 154.64 131.16 L 154.27 132.12 C 153.90 133.08 154.39 134.16 155.35 134.53 C 156.32 134.90 157.40 134.41 157.77 133.45 L 158.13 132.49 C 158.50 131.52 158.02 130.44 157.05 130.08 C 156.09 129.71 155.01 130.19 154.64 131.16 Z M 154.28 132.09 L 153.91 133.04 C 153.53 134.00 154.00 135.09 154.95 135.47 C 155.91 135.85 157.00 135.38 157.38 134.42 L 157.75 133.47 C 158.13 132.51 157.67 131.43 156.71 131.05 C 155.75 130.67 154.66 131.14 154.28 132.09 Z M 153.92 133.02 L 153.54 133.96 C 153.14 134.91 153.60 136.00 154.55 136.39 C 155.50 136.78 156.59 136.33 156.98 135.38 L 157.36 134.44 C 157.76 133.49 157.30 132.40 156.35 132.01 C 155.40 131.62 154.31 132.07 153.92 133.02 Z M 153.55 133.94 L 153.16 134.85 C 152.76 135.79 153.20 136.88 154.15 137.28 C 155.09 137.68 156.18 137.24 156.58 136.30 L 156.97 135.39 C 157.37 134.45 156.93 133.36 155.98 132.96 C 155.04 132.56 153.95 133.00 153.55 133.94 Z M 153.18 134.83 L 152.77 135.75 C 152.36 136.69 152.79 137.78 153.73 138.19 C 154.66 138.60 155.75 138.17 156.16 137.24 L 156.57 136.32 C 156.98 135.38 156.55 134.29 155.62 133.88 C 154.68 133.47 153.59 133.89 153.18 134.83 Z M 152.80 135.72 L 152.37 136.65 C 151.94 137.58 152.34 138.67 153.26 139.10 C 154.19 139.53 155.28 139.12 155.71 138.20 L 156.14 137.27 C 156.57 136.34 156.17 135.25 155.24 134.82 C 154.32 134.39 153.23 134.80 152.80 135.72 Z M 152.41 136.60 L 151.96 137.47 C 151.50 138.37 151.86 139.48 152.76 139.93 C 153.66 140.39 154.76 140.03 155.22 139.13 L 155.67 138.26 C 156.13 137.36 155.77 136.25 154.87 135.80 C 153.97 135.34 152.86 135.70 152.41 136.60 Z M 152.02 137.39 L 151.54 138.22 C 151.04 139.09 151.33 140.20 152.20 140.71 C 153.07 141.21 154.18 140.91 154.69 140.04 L 155.17 139.21 C 155.67 138.34 155.37 137.23 154.50 136.73 C 153.63 136.23 152.52 136.52 152.02 137.39 Z M 151.61 138.13 L 151.06 138.96 C 150.50 139.79 150.73 140.91 151.56 141.46 C 152.38 142.02 153.50 141.79 154.06 140.96 L 154.61 140.13 C 155.17 139.31 154.94 138.19 154.11 137.63 C 153.29 137.08 152.17 137.30 151.61 138.13 Z M 151.13 138.90 L 150.53 139.70 C 149.94 140.49 150.10 141.61 150.89 142.20 C 151.69 142.79 152.80 142.62 153.39 141.83 L 153.99 141.03 C 154.58 140.24 154.42 139.12 153.62 138.53 C 152.83 137.94 151.71 138.10 151.13 138.90 Z M 150.57 139.67 L 149.95 140.45 C 149.35 141.22 149.48 142.33 150.24 142.93 C 151.01 143.54 152.12 143.41 152.73 142.65 L 153.35 141.86 C 153.95 141.10 153.82 139.98 153.06 139.38 C 152.29 138.77 151.18 138.90 150.57 139.67 Z M 149.97 140.45 L 149.76 140.71 C 149.15 141.47 149.27 142.57 150.02 143.18 C 150.78 143.79 151.89 143.67 152.49 142.91 L 152.71 142.65 C 153.32 141.89 153.20 140.79 152.44 140.18 C 151.69 139.57 150.58 139.69 149.97 140.45 Z"
      fill="black"
      fill-rule="nonzero" /><path d="M 156.43 133.74 L 157.26 134.25 C 158.19 134.83 159.42 134.54 160.00 133.60 C 160.58 132.66 160.29 131.43 159.35 130.86 L 158.52 130.34 C 157.58 129.76 156.35 130.06 155.78 130.99 C 155.20 131.93 155.49 133.16 156.43 133.74 Z M 157.21 134.29 L 158.06 134.82 C 159.02 135.42 160.28 135.13 160.89 134.17 C 161.49 133.21 161.20 131.94 160.24 131.34 L 159.39 130.81 C 158.43 130.21 157.17 130.50 156.57 131.46 C 155.96 132.42 156.25 133.69 157.21 134.29 Z M 158.00 134.85 L 158.86 135.41 C 159.84 136.04 161.15 135.76 161.78 134.78 C 162.42 133.80 162.13 132.50 161.16 131.87 L 160.29 131.31 C 159.31 130.68 158.01 130.96 157.37 131.94 C 156.74 132.91 157.02 134.22 158.00 134.85 Z M 158.83 135.41 L 159.67 135.97 C 160.65 136.63 161.97 136.36 162.62 135.38 C 163.28 134.41 163.01 133.08 162.03 132.43 L 161.19 131.87 C 160.21 131.21 158.89 131.48 158.24 132.45 C 157.58 133.43 157.85 134.76 158.83 135.41 Z M 159.67 135.95 L 160.51 136.52 C 161.48 137.17 162.79 136.92 163.44 135.95 C 164.10 134.99 163.84 133.67 162.88 133.02 L 162.03 132.45 C 161.07 131.80 159.75 132.05 159.10 133.02 C 158.45 133.98 158.70 135.30 159.67 135.95 Z M 160.53 136.51 L 161.34 137.06 C 162.30 137.70 163.61 137.44 164.25 136.48 C 164.89 135.51 164.63 134.21 163.67 133.57 L 162.86 133.03 C 161.89 132.38 160.59 132.64 159.95 133.61 C 159.31 134.57 159.57 135.87 160.53 136.51 Z M 161.40 137.04 L 162.27 137.60 C 163.23 138.21 164.50 137.93 165.11 136.98 C 165.72 136.03 165.44 134.76 164.49 134.15 L 163.61 133.59 C 162.66 132.97 161.39 133.25 160.78 134.21 C 160.17 135.16 160.45 136.43 161.40 137.04 Z M 162.35 137.56 L 163.19 138.07 C 164.12 138.64 165.33 138.35 165.90 137.42 C 166.47 136.49 166.18 135.28 165.25 134.71 L 164.41 134.19 C 163.48 133.62 162.27 133.91 161.70 134.84 C 161.13 135.77 161.42 136.99 162.35 137.56 Z M 163.25 138.01 L 164.08 138.51 C 164.98 139.05 166.15 138.76 166.68 137.86 C 167.22 136.96 166.93 135.80 166.03 135.26 L 165.19 134.76 C 164.29 134.22 163.13 134.52 162.59 135.42 C 162.06 136.31 162.35 137.48 163.25 138.01 Z M 164.14 138.45 L 165.02 138.97 C 165.88 139.47 166.99 139.18 167.50 138.31 C 168.00 137.45 167.71 136.34 166.85 135.83 L 165.97 135.32 C 165.11 134.82 164.00 135.11 163.49 135.97 C 162.98 136.84 163.28 137.95 164.14 138.45 Z M 165.10 138.92 L 165.97 139.40 C 166.81 139.86 167.86 139.55 168.32 138.71 C 168.78 137.87 168.47 136.82 167.64 136.36 L 166.77 135.88 C 165.93 135.42 164.88 135.73 164.42 136.57 C 163.95 137.40 164.26 138.46 165.10 138.92 Z M 166.07 139.37 L 166.98 139.82 C 167.80 140.22 168.80 139.88 169.20 139.05 C 169.61 138.23 169.26 137.23 168.44 136.83 L 167.53 136.38 C 166.71 135.98 165.71 136.32 165.31 137.15 C 164.91 137.97 165.25 138.97 166.07 139.37 Z M 167.07 139.80 L 167.98 140.20 C 168.80 140.55 169.75 140.18 170.10 139.36 C 170.46 138.54 170.08 137.59 169.26 137.23 L 168.35 136.84 C 167.53 136.48 166.58 136.86 166.23 137.68 C 165.87 138.50 166.25 139.45 167.07 139.80 Z M 168.02 140.18 L 168.62 140.42 C 169.43 140.75 170.35 140.37 170.68 139.56 C 171.01 138.75 170.62 137.82 169.81 137.49 L 169.22 137.25 C 168.41 136.92 167.49 137.31 167.16 138.12 C 166.83 138.93 167.21 139.85 168.02 140.18 Z"
      fill="black"
      fill-rule="nonzero" /><path d="M 147.30 145.12 L 147.25 146.08 C 147.20 147.04 147.94 147.86 148.89 147.91 C 149.85 147.96 150.67 147.22 150.72 146.26 L 150.77 145.30 C 150.82 144.34 150.08 143.52 149.12 143.47 C 148.17 143.42 147.35 144.16 147.30 145.12 Z M 147.11 145.89 L 146.96 146.87 C 146.80 147.90 147.51 148.87 148.55 149.03 C 149.59 149.19 150.55 148.47 150.71 147.44 L 150.86 146.46 C 151.02 145.42 150.31 144.45 149.27 144.30 C 148.23 144.14 147.27 144.85 147.11 145.89 Z M 146.91 146.51 L 146.59 147.46 C 146.24 148.52 146.82 149.67 147.88 150.02 C 148.95 150.38 150.10 149.80 150.45 148.74 L 150.76 147.79 C 151.12 146.73 150.54 145.58 149.48 145.23 C 148.41 144.87 147.26 145.45 146.91 146.51 Z M 146.66 147.14 L 146.24 147.96 C 145.71 148.99 146.12 150.25 147.14 150.78 C 148.17 151.30 149.43 150.90 149.96 149.87 L 150.38 149.05 C 150.91 148.03 150.50 146.77 149.48 146.24 C 148.45 145.71 147.19 146.11 146.66 147.14 Z M 146.33 147.79 L 145.79 148.64 C 145.16 149.61 145.45 150.91 146.43 151.53 C 147.40 152.16 148.70 151.87 149.32 150.90 L 149.87 150.05 C 150.49 149.07 150.20 147.78 149.23 147.15 C 148.25 146.53 146.96 146.81 146.33 147.79 Z M 145.85 148.54 L 145.21 149.42 C 144.53 150.36 144.74 151.67 145.68 152.36 C 146.63 153.04 147.94 152.82 148.62 151.88 L 149.26 151.00 C 149.94 150.06 149.73 148.74 148.79 148.06 C 147.85 147.38 146.53 147.59 145.85 148.54 Z M 145.25 149.37 L 144.61 150.19 C 143.90 151.11 144.07 152.44 144.99 153.15 C 145.92 153.86 147.24 153.69 147.95 152.76 L 148.59 151.94 C 149.30 151.01 149.12 149.69 148.20 148.98 C 147.28 148.27 145.96 148.44 145.25 149.37 Z M 144.63 150.16 L 143.99 150.97 C 143.26 151.88 143.40 153.21 144.31 153.93 C 145.22 154.66 146.55 154.52 147.28 153.61 L 147.93 152.80 C 148.65 151.89 148.51 150.56 147.60 149.83 C 146.69 149.10 145.36 149.25 144.63 150.16 Z M 144.01 150.94 L 143.36 151.72 C 142.62 152.62 142.75 153.95 143.64 154.69 C 144.54 155.43 145.87 155.31 146.61 154.41 L 147.26 153.63 C 148.00 152.74 147.87 151.41 146.98 150.66 C 146.08 149.92 144.75 150.05 144.01 150.94 Z M 143.39 151.69 L 142.78 152.40 C 142.02 153.29 142.13 154.62 143.01 155.38 C 143.90 156.13 145.23 156.03 145.99 155.14 L 146.59 154.43 C 147.35 153.55 147.25 152.22 146.36 151.46 C 145.47 150.70 144.14 150.81 143.39 151.69 Z M 142.81 152.37 L 142.08 153.19 C 141.31 154.06 141.38 155.39 142.25 156.17 C 143.12 156.94 144.46 156.86 145.23 155.99 L 145.96 155.17 C 146.73 154.30 146.66 152.97 145.79 152.20 C 144.92 151.42 143.58 151.50 142.81 152.37 Z M 142.12 153.15 L 141.46 153.86 C 140.66 154.71 140.71 156.04 141.56 156.83 C 142.41 157.63 143.74 157.58 144.54 156.73 L 145.19 156.03 C 145.99 155.18 145.94 153.85 145.09 153.05 C 144.24 152.26 142.91 152.30 142.12 153.15 Z M 141.49 153.83 L 140.84 154.50 C 140.03 155.33 140.05 156.66 140.89 157.47 C 141.72 158.28 143.05 158.26 143.86 157.43 L 144.51 156.76 C 145.32 155.93 145.30 154.59 144.46 153.79 C 143.63 152.98 142.29 153.00 141.49 153.83 Z M 140.86 154.48 L 140.19 155.16 C 139.37 155.98 139.38 157.31 140.20 158.13 C 141.03 158.95 142.36 158.94 143.17 158.12 L 143.84 157.44 C 144.66 156.62 144.65 155.28 143.83 154.47 C 143.01 153.65 141.68 153.66 140.86 154.48 Z M 140.21 155.14 L 139.49 155.85 C 138.67 156.67 138.66 157.99 139.47 158.82 C 140.28 159.64 141.61 159.65 142.44 158.84 L 143.15 158.13 C 143.98 157.32 143.99 155.99 143.17 155.16 C 142.36 154.34 141.03 154.33 140.21 155.14 Z M 139.51 155.84 L 138.77 156.56 C 137.93 157.36 137.91 158.68 138.71 159.51 C 139.51 160.35 140.84 160.37 141.67 159.57 L 142.41 158.85 C 143.25 158.05 143.27 156.73 142.47 155.89 C 141.67 155.06 140.34 155.04 139.51 155.84 Z M 138.79 156.54 L 138.08 157.21 C 137.24 158.00 137.20 159.33 137.99 160.16 C 138.78 161.00 140.10 161.04 140.94 160.25 L 141.65 159.58 C 142.49 158.79 142.53 157.47 141.74 156.63 C 140.95 155.79 139.63 155.75 138.79 156.54 Z M 138.09 157.20 L 137.35 157.89 C 136.50 158.67 136.45 159.99 137.24 160.84 C 138.02 161.68 139.34 161.73 140.18 160.95 L 140.92 160.26 C 141.77 159.48 141.82 158.16 141.04 157.32 C 140.25 156.47 138.94 156.42 138.09 157.20 Z M 137.36 157.88 L 136.61 158.57 C 135.76 159.35 135.70 160.67 136.47 161.51 C 137.25 162.36 138.56 162.42 139.41 161.65 L 140.17 160.96 C 141.02 160.18 141.08 158.87 140.30 158.02 C 139.53 157.17 138.21 157.11 137.36 157.88 Z M 136.62 158.57 L 135.87 159.24 C 135.01 160.01 134.94 161.33 135.71 162.18 C 136.48 163.03 137.79 163.10 138.64 162.33 L 139.40 161.66 C 140.25 160.89 140.32 159.57 139.55 158.72 C 138.78 157.87 137.47 157.80 136.62 158.57 Z M 135.88 159.23 L 135.13 159.90 C 134.27 160.66 134.19 161.97 134.95 162.83 C 135.71 163.68 137.02 163.77 137.88 163.01 L 138.63 162.34 C 139.49 161.59 139.57 160.27 138.81 159.42 C 138.05 158.56 136.74 158.48 135.88 159.23 Z M 135.15 159.88 L 134.40 160.53 C 133.53 161.28 133.43 162.58 134.18 163.45 C 134.92 164.32 136.23 164.42 137.10 163.67 L 137.85 163.02 C 138.72 162.28 138.82 160.97 138.07 160.10 C 137.33 159.23 136.02 159.14 135.15 159.88 Z M 134.43 160.51 L 133.65 161.15 C 132.78 161.88 132.66 163.19 133.39 164.06 C 134.12 164.94 135.42 165.06 136.30 164.33 L 137.07 163.69 C 137.95 162.96 138.07 161.66 137.34 160.78 C 136.61 159.90 135.31 159.78 134.43 160.51 Z M 133.69 161.14 L 132.90 161.77 C 132.01 162.49 131.87 163.78 132.58 164.67 C 133.29 165.55 134.59 165.70 135.48 164.98 L 136.27 164.35 C 137.15 163.64 137.29 162.34 136.58 161.45 C 135.87 160.57 134.57 160.43 133.69 161.14 Z M 132.92 161.77 L 132.14 162.38 C 131.25 163.08 131.10 164.37 131.79 165.26 C 132.49 166.14 133.78 166.30 134.67 165.60 L 135.45 164.99 C 136.34 164.29 136.49 163.00 135.80 162.11 C 135.10 161.23 133.81 161.07 132.92 161.77 Z M 132.16 162.38 L 131.37 162.99 C 130.48 163.68 130.32 164.96 131.00 165.85 C 131.69 166.74 132.97 166.90 133.86 166.21 L 134.65 165.60 C 135.54 164.91 135.70 163.64 135.02 162.75 C 134.33 161.86 133.05 161.69 132.16 162.38 Z M 131.39 163.00 L 130.56 163.62 C 129.68 164.30 129.51 165.57 130.19 166.46 C 130.86 167.35 132.13 167.51 133.02 166.84 L 133.84 166.21 C 134.73 165.53 134.90 164.26 134.22 163.37 C 133.54 162.49 132.27 162.32 131.39 163.00 Z M 130.59 163.63 L 129.80 164.22 C 128.92 164.88 128.73 166.13 129.40 167.02 C 130.06 167.91 131.32 168.09 132.20 167.43 L 132.99 166.84 C 133.88 166.17 134.06 164.92 133.40 164.03 C 132.73 163.14 131.48 162.96 130.59 163.63 Z M 129.84 164.21 L 129.06 164.77 C 128.17 165.41 127.97 166.65 128.61 167.54 C 129.25 168.43 130.49 168.63 131.38 167.99 L 132.16 167.43 C 133.05 166.79 133.25 165.55 132.61 164.66 C 131.97 163.77 130.73 163.57 129.84 164.21 Z M 129.14 164.74 L 128.33 165.28 C 127.43 165.87 127.18 167.09 127.77 168.00 C 128.37 168.90 129.59 169.15 130.49 168.56 L 131.30 168.02 C 132.21 167.42 132.46 166.21 131.86 165.30 C 131.27 164.40 130.05 164.15 129.14 164.74 Z M 128.47 165.22 L 127.59 165.71 C 126.66 166.23 126.32 167.41 126.84 168.35 C 127.36 169.28 128.53 169.62 129.47 169.10 L 130.35 168.61 C 131.29 168.09 131.62 166.91 131.10 165.98 C 130.59 165.04 129.41 164.70 128.47 165.22 Z M 127.76 165.66 L 126.74 166.10 C 125.78 166.52 125.34 167.65 125.76 168.62 C 126.18 169.58 127.31 170.02 128.28 169.60 L 129.30 169.16 C 130.26 168.73 130.70 167.61 130.28 166.64 C 129.86 165.67 128.73 165.23 127.76 165.66 Z M 127.02 166.04 L 126.00 166.31 C 125.00 166.58 124.40 167.61 124.67 168.61 C 124.94 169.62 125.97 170.21 126.98 169.94 L 128.00 169.67 C 129.00 169.40 129.60 168.37 129.33 167.36 C 129.06 166.36 128.03 165.77 127.02 166.04 Z M 126.73 166.30 L 125.95 166.19 C 124.94 166.06 124.01 166.78 123.88 167.79 C 123.75 168.80 124.46 169.72 125.47 169.85 L 126.25 169.96 C 127.26 170.09 128.19 169.38 128.32 168.36 C 128.45 167.35 127.74 166.43 126.73 166.30 Z M 127.28 167.18 L 126.92 166.52 C 126.46 165.66 125.38 165.33 124.52 165.80 C 123.65 166.26 123.33 167.34 123.79 168.20 L 124.15 168.87 C 124.61 169.73 125.69 170.06 126.56 169.59 C 127.42 169.13 127.75 168.05 127.28 167.18 Z M 127.04 167.47 L 127.11 166.36 C 127.17 165.44 126.47 164.63 125.54 164.57 C 124.61 164.51 123.81 165.21 123.75 166.14 L 123.68 167.25 C 123.62 168.18 124.32 168.98 125.25 169.04 C 126.17 169.10 126.98 168.40 127.04 167.47 Z M 126.99 166.67 L 127.26 165.67 C 127.49 164.80 126.97 163.92 126.11 163.69 C 125.25 163.46 124.36 163.97 124.13 164.84 L 123.87 165.84 C 123.64 166.70 124.15 167.59 125.02 167.82 C 125.88 168.04 126.76 167.53 126.99 166.67 Z M 127.20 165.78 L 127.52 164.88 C 127.81 164.05 127.38 163.14 126.55 162.84 C 125.72 162.55 124.81 162.99 124.52 163.82 L 124.20 164.72 C 123.90 165.55 124.34 166.46 125.17 166.75 C 126.00 167.05 126.91 166.61 127.20 165.78 Z M 127.49 164.93 L 127.87 163.98 C 128.19 163.17 127.80 162.25 126.99 161.93 C 126.18 161.60 125.26 161.99 124.93 162.80 L 124.55 163.76 C 124.22 164.57 124.62 165.49 125.43 165.81 C 126.24 166.14 127.16 165.75 127.49 164.93 Z M 127.84 164.01 L 128.26 163.03 C 128.60 162.23 128.23 161.31 127.43 160.97 C 126.63 160.63 125.71 161.00 125.37 161.80 L 124.95 162.78 C 124.61 163.58 124.98 164.50 125.78 164.84 C 126.58 165.18 127.50 164.81 127.84 164.01 Z M 128.25 163.04 L 128.40 162.70 C 128.74 161.91 128.37 160.99 127.58 160.65 C 126.79 160.30 125.87 160.67 125.52 161.46 L 125.38 161.79 C 125.04 162.59 125.40 163.51 126.19 163.85 C 126.99 164.19 127.91 163.83 128.25 163.04 Z"
      fill="black"
      fill-rule="nonzero" /><path d="M 149.40 152.11 L 150.30 152.52 C 151.22 152.95 152.33 152.55 152.75 151.62 C 153.18 150.69 152.78 149.59 151.85 149.16 L 150.95 148.75 C 150.03 148.32 148.93 148.73 148.50 149.65 C 148.07 150.58 148.47 151.68 149.40 152.11 Z M 150.26 152.73 L 151.19 153.13 C 152.23 153.58 153.44 153.09 153.89 152.05 C 154.34 151.01 153.85 149.80 152.81 149.35 L 151.88 148.95 C 150.84 148.50 149.63 148.99 149.18 150.03 C 148.73 151.07 149.22 152.28 150.26 152.73 Z M 151.23 153.28 L 152.11 153.62 C 153.24 154.04 154.50 153.48 154.93 152.35 C 155.35 151.22 154.78 149.96 153.66 149.53 L 152.77 149.20 C 151.64 148.77 150.38 149.34 149.96 150.47 C 149.53 151.59 150.10 152.86 151.23 153.28 Z M 152.18 153.67 L 153.12 153.99 C 154.27 154.37 155.53 153.75 155.92 152.59 C 156.30 151.44 155.68 150.18 154.52 149.79 L 153.59 149.48 C 152.43 149.09 151.18 149.71 150.79 150.87 C 150.40 152.03 151.02 153.28 152.18 153.67 Z M 153.16 154.01 L 154.19 154.32 C 155.35 154.68 156.60 154.03 156.96 152.86 C 157.32 151.69 156.66 150.45 155.50 150.09 L 154.47 149.77 C 153.31 149.41 152.07 150.07 151.70 151.23 C 151.34 152.40 152.00 153.64 153.16 154.01 Z M 154.21 154.33 L 155.18 154.62 C 156.36 154.97 157.59 154.30 157.94 153.12 C 158.28 151.95 157.61 150.71 156.44 150.37 L 155.47 150.08 C 154.30 149.73 153.06 150.40 152.72 151.58 C 152.37 152.75 153.04 153.98 154.21 154.33 Z M 155.20 154.62 L 156.18 154.91 C 157.36 155.24 158.59 154.57 158.93 153.39 C 159.26 152.21 158.59 150.99 157.41 150.65 L 156.43 150.36 C 155.25 150.03 154.02 150.70 153.68 151.88 C 153.34 153.06 154.02 154.28 155.20 154.62 Z M 156.20 154.91 L 157.14 155.17 C 158.32 155.51 159.54 154.82 159.87 153.64 C 160.20 152.47 159.52 151.25 158.34 150.91 L 157.40 150.65 C 156.22 150.31 155.00 151.00 154.67 152.18 C 154.33 153.35 155.02 154.57 156.20 154.91 Z M 157.15 155.17 L 158.17 155.45 C 159.35 155.77 160.56 155.08 160.88 153.91 C 161.21 152.74 160.52 151.52 159.35 151.20 L 158.33 150.92 C 157.15 150.60 155.94 151.28 155.62 152.46 C 155.29 153.63 155.98 154.84 157.15 155.17 Z M 158.20 155.44 L 159.11 155.68 C 160.28 155.99 161.48 155.30 161.79 154.13 C 162.10 152.97 161.41 151.77 160.24 151.46 L 159.33 151.21 C 158.16 150.90 156.96 151.59 156.65 152.76 C 156.34 153.93 157.03 155.12 158.20 155.44 Z M 159.14 155.67 L 160.07 155.91 C 161.23 156.21 162.41 155.51 162.71 154.35 C 163.01 153.19 162.31 152.01 161.15 151.71 L 160.22 151.47 C 159.06 151.17 157.88 151.87 157.58 153.03 C 157.28 154.19 157.98 155.37 159.14 155.67 Z M 160.09 155.89 L 161.06 156.14 C 162.21 156.42 163.38 155.73 163.67 154.58 C 163.95 153.43 163.26 152.26 162.11 151.97 L 161.13 151.73 C 159.98 151.44 158.82 152.14 158.53 153.29 C 158.24 154.44 158.94 155.60 160.09 155.89 Z M 161.08 156.12 L 162.05 156.36 C 163.19 156.64 164.34 155.94 164.62 154.80 C 164.90 153.66 164.21 152.51 163.07 152.23 L 162.09 151.99 C 160.95 151.71 159.80 152.41 159.52 153.55 C 159.24 154.69 159.94 155.84 161.08 156.12 Z M 162.06 156.34 L 163.02 156.57 C 164.15 156.85 165.29 156.15 165.56 155.02 C 165.84 153.90 165.15 152.76 164.02 152.48 L 163.06 152.25 C 161.93 151.97 160.79 152.67 160.52 153.80 C 160.24 154.92 160.93 156.06 162.06 156.34 Z M 163.02 156.55 L 164.01 156.79 C 165.12 157.07 166.25 156.39 166.53 155.27 C 166.80 154.15 166.12 153.03 165.01 152.75 L 164.02 152.51 C 162.90 152.23 161.78 152.91 161.50 154.03 C 161.22 155.14 161.91 156.27 163.02 156.55 Z M 164.00 156.76 L 164.89 156.99 C 165.99 157.26 167.11 156.60 167.38 155.50 C 167.66 154.40 167.00 153.28 165.90 153.01 L 165.01 152.78 C 163.91 152.50 162.80 153.17 162.52 154.27 C 162.24 155.36 162.90 156.48 164.00 156.76 Z M 164.89 156.95 L 165.84 157.20 C 166.92 157.47 168.02 156.82 168.30 155.74 C 168.58 154.66 167.93 153.56 166.85 153.28 L 165.90 153.04 C 164.82 152.76 163.72 153.41 163.44 154.49 C 163.16 155.57 163.81 156.67 164.89 156.95 Z M 165.85 157.16 L 166.91 157.44 C 167.98 157.71 169.06 157.07 169.33 156.01 C 169.60 154.95 168.96 153.86 167.90 153.59 L 166.84 153.32 C 165.78 153.04 164.69 153.68 164.42 154.75 C 164.15 155.81 164.79 156.89 165.85 157.16 Z M 166.92 157.41 L 167.73 157.62 C 168.77 157.88 169.84 157.25 170.11 156.20 C 170.38 155.15 169.74 154.09 168.69 153.82 L 167.89 153.61 C 166.84 153.35 165.78 153.98 165.51 155.03 C 165.24 156.08 165.87 157.15 166.92 157.41 Z M 167.74 157.60 L 168.63 157.82 C 169.67 158.09 170.73 157.45 170.99 156.42 C 171.25 155.38 170.62 154.32 169.58 154.06 L 168.68 153.84 C 167.64 153.58 166.59 154.21 166.33 155.25 C 166.07 156.28 166.70 157.34 167.74 157.60 Z M 168.64 157.81 L 169.64 158.05 C 170.67 158.31 171.71 157.68 171.97 156.65 C 172.22 155.62 171.59 154.58 170.56 154.32 L 169.56 154.08 C 168.53 153.82 167.49 154.45 167.24 155.48 C 166.99 156.51 167.61 157.55 168.64 157.81 Z M 169.66 158.04 L 170.77 158.31 C 171.79 158.55 172.82 157.93 173.07 156.91 C 173.31 155.89 172.69 154.86 171.67 154.61 L 170.55 154.34 C 169.53 154.09 168.50 154.72 168.26 155.74 C 168.01 156.76 168.64 157.79 169.66 158.04 Z M 170.78 158.31 L 171.76 158.54 C 172.78 158.79 173.81 158.15 174.05 157.13 C 174.29 156.11 173.66 155.08 172.64 154.84 L 171.66 154.61 C 170.64 154.36 169.61 155.00 169.37 156.02 C 169.12 157.04 169.76 158.07 170.78 158.31 Z M 171.75 158.59 L 172.66 158.80 C 173.71 159.04 174.75 158.39 175.00 157.35 C 175.24 156.30 174.59 155.25 173.55 155.01 L 172.64 154.80 C 171.59 154.55 170.55 155.20 170.30 156.25 C 170.06 157.29 170.71 158.34 171.75 158.59 Z M 172.65 158.85 L 173.60 159.07 C 174.68 159.32 175.75 158.65 176.00 157.58 C 176.25 156.50 175.58 155.43 174.51 155.18 L 173.55 154.95 C 172.48 154.71 171.40 155.38 171.16 156.45 C 170.91 157.53 171.58 158.60 172.65 158.85 Z M 173.60 159.12 L 174.58 159.35 C 175.69 159.61 176.79 158.92 177.05 157.81 C 177.30 156.71 176.61 155.61 175.51 155.35 L 174.52 155.12 C 173.41 154.87 172.31 155.56 172.06 156.66 C 171.80 157.77 172.49 158.87 173.60 159.12 Z M 174.58 159.40 L 175.59 159.64 C 176.73 159.90 177.85 159.19 178.11 158.05 C 178.37 156.92 177.67 155.79 176.53 155.53 L 175.52 155.30 C 174.38 155.04 173.25 155.75 172.99 156.88 C 172.73 158.01 173.44 159.14 174.58 159.40 Z M 175.58 159.69 L 176.62 159.93 C 177.78 160.19 178.93 159.46 179.20 158.30 C 179.47 157.14 178.74 155.98 177.58 155.72 L 176.54 155.48 C 175.38 155.21 174.22 155.94 173.96 157.10 C 173.69 158.27 174.42 159.42 175.58 159.69 Z M 176.61 159.97 L 177.36 160.14 C 178.55 160.41 179.73 159.67 180.00 158.48 C 180.27 157.30 179.53 156.11 178.34 155.84 L 177.59 155.67 C 176.40 155.40 175.22 156.14 174.95 157.33 C 174.68 158.52 175.42 159.70 176.61 159.97 Z"
      fill="black"
      fill-rule="nonzero" /><path d="M 145.60 156.69 L 145.17 157.58 C 144.77 158.43 145.12 159.45 145.97 159.85 C 146.82 160.26 147.84 159.91 148.25 159.06 L 148.68 158.17 C 149.09 157.32 148.73 156.30 147.88 155.89 C 147.03 155.48 146.01 155.84 145.60 156.69 Z M 145.19 157.58 L 144.75 158.47 C 144.34 159.32 144.69 160.33 145.54 160.74 C 146.38 161.15 147.39 160.80 147.80 159.95 L 148.24 159.06 C 148.65 158.21 148.30 157.20 147.45 156.79 C 146.61 156.38 145.59 156.73 145.19 157.58 Z M 144.76 158.47 L 144.31 159.37 C 143.90 160.21 144.24 161.22 145.08 161.64 C 145.92 162.05 146.93 161.71 147.34 160.87 L 147.79 159.96 C 148.20 159.12 147.86 158.11 147.02 157.70 C 146.19 157.29 145.18 157.63 144.76 158.47 Z M 144.32 159.36 L 143.88 160.24 C 143.46 161.07 143.80 162.09 144.63 162.51 C 145.46 162.92 146.47 162.59 146.89 161.76 L 147.33 160.88 C 147.75 160.05 147.42 159.04 146.59 158.62 C 145.76 158.20 144.74 158.53 144.32 159.36 Z M 143.89 160.23 L 143.43 161.12 C 143.00 161.95 143.33 162.96 144.16 163.39 C 144.98 163.81 146.00 163.49 146.42 162.66 L 146.88 161.77 C 147.31 160.95 146.98 159.93 146.15 159.51 C 145.33 159.08 144.31 159.41 143.89 160.23 Z M 143.44 161.11 L 142.97 162.00 C 142.53 162.83 142.85 163.84 143.67 164.28 C 144.50 164.71 145.51 164.39 145.95 163.57 L 146.42 162.67 C 146.85 161.85 146.53 160.83 145.71 160.40 C 144.89 159.97 143.87 160.29 143.44 161.11 Z M 142.97 161.99 L 142.50 162.88 C 142.06 163.70 142.37 164.72 143.19 165.16 C 144.01 165.60 145.03 165.29 145.47 164.47 L 145.94 163.58 C 146.38 162.76 146.07 161.74 145.25 161.30 C 144.43 160.86 143.41 161.17 142.97 161.99 Z M 142.50 162.86 L 142.02 163.74 C 141.57 164.56 141.87 165.58 142.69 166.03 C 143.51 166.48 144.53 166.18 144.98 165.36 L 145.46 164.48 C 145.91 163.67 145.61 162.64 144.79 162.19 C 143.98 161.75 142.95 162.04 142.50 162.86 Z M 142.03 163.72 L 141.54 164.58 C 141.07 165.40 141.36 166.43 142.17 166.89 C 142.98 167.35 144.02 167.07 144.48 166.26 L 144.97 165.39 C 145.43 164.57 145.15 163.54 144.34 163.08 C 143.52 162.62 142.49 162.90 142.03 163.72 Z M 141.55 164.55 L 141.04 165.41 C 140.56 166.21 140.83 167.25 141.63 167.73 C 142.44 168.21 143.48 167.95 143.96 167.14 L 144.46 166.29 C 144.94 165.48 144.68 164.44 143.87 163.96 C 143.07 163.48 142.03 163.75 141.55 164.55 Z M 141.06 165.38 L 140.53 166.22 C 140.04 167.01 140.28 168.06 141.08 168.56 C 141.87 169.05 142.92 168.81 143.42 168.01 L 143.94 167.17 C 144.44 166.38 144.19 165.33 143.40 164.83 C 142.60 164.34 141.55 164.58 141.06 165.38 Z M 140.54 166.19 L 140.00 167.03 C 139.50 167.82 139.72 168.88 140.51 169.38 C 141.31 169.89 142.36 169.66 142.87 168.87 L 143.41 168.04 C 143.92 167.24 143.69 166.19 142.90 165.68 C 142.11 165.17 141.05 165.40 140.54 166.19 Z M 140.01 167.02 L 139.45 167.87 C 138.94 168.66 139.16 169.72 139.95 170.23 C 140.74 170.75 141.79 170.53 142.31 169.74 L 142.86 168.89 C 143.38 168.10 143.16 167.04 142.37 166.53 C 141.58 166.01 140.52 166.23 140.01 167.02 Z M 139.45 167.86 L 138.73 168.95 C 138.21 169.75 138.43 170.81 139.23 171.33 C 140.02 171.85 141.08 171.62 141.60 170.83 L 142.31 169.74 C 142.83 168.95 142.61 167.89 141.82 167.37 C 141.03 166.85 139.97 167.07 139.45 167.86 Z M 138.73 168.94 L 138.17 169.78 C 137.64 170.57 137.86 171.64 138.65 172.17 C 139.45 172.70 140.52 172.48 141.05 171.69 L 141.60 170.85 C 142.13 170.05 141.91 168.98 141.12 168.46 C 140.33 167.93 139.25 168.14 138.73 168.94 Z M 138.23 169.67 L 138.05 169.91 C 137.46 170.67 137.60 171.76 138.37 172.35 C 139.13 172.93 140.22 172.79 140.80 172.03 L 140.99 171.79 C 141.57 171.03 141.43 169.94 140.67 169.35 C 139.91 168.77 138.81 168.91 138.23 169.67 Z M 140.90 171.90 L 141.40 171.12 C 141.91 170.30 141.67 169.23 140.85 168.71 C 140.03 168.20 138.95 168.44 138.44 169.26 L 137.95 170.04 C 137.43 170.86 137.68 171.93 138.49 172.45 C 139.31 172.96 140.39 172.72 140.90 171.90 Z M 141.34 171.20 L 142.05 170.21 C 142.61 169.42 142.43 168.33 141.64 167.77 C 140.85 167.21 139.76 167.39 139.20 168.18 L 138.49 169.18 C 137.93 169.96 138.11 171.06 138.90 171.62 C 139.69 172.18 140.78 171.99 141.34 171.20 Z M 142.02 170.26 L 142.61 169.48 C 143.20 168.71 143.06 167.61 142.29 167.02 C 141.53 166.43 140.43 166.58 139.84 167.35 L 139.24 168.13 C 138.65 168.89 138.79 169.99 139.56 170.58 C 140.33 171.17 141.43 171.03 142.02 170.26 Z M 142.59 169.51 L 143.24 168.71 C 143.84 167.95 143.72 166.85 142.97 166.24 C 142.21 165.64 141.11 165.76 140.50 166.51 L 139.86 167.32 C 139.25 168.07 139.37 169.17 140.13 169.78 C 140.88 170.39 141.99 170.27 142.59 169.51 Z M 143.22 168.73 L 143.88 167.94 C 144.49 167.19 144.39 166.09 143.65 165.47 C 142.90 164.85 141.80 164.95 141.18 165.70 L 140.52 166.49 C 139.90 167.24 140.01 168.34 140.75 168.96 C 141.50 169.58 142.60 169.47 143.22 168.73 Z M 143.86 167.96 L 144.55 167.15 C 145.17 166.42 145.09 165.31 144.35 164.68 C 143.61 164.05 142.50 164.14 141.88 164.88 L 141.19 165.68 C 140.56 166.42 140.65 167.52 141.39 168.15 C 142.13 168.78 143.23 168.69 143.86 167.96 Z M 144.53 167.17 L 145.20 166.41 C 145.83 165.69 145.76 164.58 145.03 163.94 C 144.30 163.30 143.19 163.37 142.55 164.10 L 141.89 164.86 C 141.25 165.59 141.33 166.70 142.06 167.34 C 142.78 167.98 143.89 167.90 144.53 167.17 Z M 145.18 166.43 L 145.82 165.72 C 146.47 165.00 146.41 163.88 145.69 163.24 C 144.97 162.59 143.86 162.65 143.21 163.37 L 142.57 164.08 C 141.92 164.81 141.98 165.92 142.70 166.57 C 143.42 167.21 144.53 167.16 145.18 166.43 Z M 145.81 165.74 L 146.51 164.99 C 147.17 164.27 147.12 163.16 146.41 162.50 C 145.69 161.84 144.58 161.88 143.92 162.60 L 143.22 163.35 C 142.56 164.06 142.61 165.18 143.32 165.84 C 144.04 166.50 145.15 166.45 145.81 165.74 Z M 146.49 165.01 L 147.20 164.27 C 147.87 163.56 147.84 162.44 147.13 161.77 C 146.43 161.09 145.31 161.12 144.63 161.83 L 143.93 162.57 C 143.26 163.28 143.28 164.40 143.99 165.07 C 144.70 165.75 145.82 165.72 146.49 165.01 Z M 147.19 164.30 L 147.85 163.62 C 148.54 162.92 148.53 161.79 147.83 161.10 C 147.12 160.41 146.00 160.43 145.31 161.13 L 144.64 161.81 C 143.96 162.51 143.97 163.63 144.67 164.32 C 145.37 165.01 146.50 165.00 147.19 164.30 Z M 147.84 163.65 L 148.56 162.94 C 149.27 162.25 149.28 161.11 148.59 160.41 C 147.89 159.70 146.76 159.69 146.05 160.38 L 145.32 161.09 C 144.62 161.78 144.61 162.92 145.30 163.63 C 145.99 164.34 147.13 164.35 147.84 163.65 Z M 148.53 163.01 L 149.26 162.34 C 150.00 161.67 150.05 160.52 149.37 159.78 C 148.70 159.03 147.55 158.98 146.80 159.66 L 146.08 160.32 C 145.34 161.00 145.28 162.15 145.96 162.89 C 146.64 163.63 147.79 163.68 148.53 163.01 Z M 149.20 162.42 L 149.94 161.82 C 150.73 161.17 150.84 160.01 150.20 159.22 C 149.55 158.44 148.39 158.32 147.61 158.97 L 146.86 159.58 C 146.08 160.22 145.96 161.38 146.61 162.17 C 147.25 162.95 148.41 163.07 149.20 162.42 Z M 149.84 161.91 L 150.65 161.34 C 151.48 160.75 151.68 159.59 151.09 158.76 C 150.50 157.92 149.34 157.72 148.50 158.31 L 147.70 158.87 C 146.86 159.46 146.66 160.62 147.26 161.46 C 147.85 162.30 149.01 162.50 149.84 161.91 Z M 150.49 161.46 L 151.40 160.94 C 152.30 160.43 152.62 159.29 152.11 158.39 C 151.60 157.49 150.46 157.18 149.56 157.68 L 148.65 158.20 C 147.75 158.71 147.44 159.85 147.95 160.75 C 148.45 161.65 149.60 161.96 150.49 161.46 Z M 151.23 161.04 L 152.14 160.65 C 153.09 160.24 153.53 159.13 153.12 158.17 C 152.71 157.22 151.60 156.78 150.65 157.19 L 149.74 157.59 C 148.78 158.00 148.34 159.10 148.75 160.06 C 149.17 161.01 150.27 161.45 151.23 161.04 Z M 151.97 160.72 L 152.94 160.41 C 153.93 160.09 154.48 159.02 154.16 158.03 C 153.84 157.04 152.77 156.49 151.78 156.81 L 150.82 157.12 C 149.82 157.44 149.28 158.51 149.60 159.50 C 149.92 160.49 150.98 161.04 151.97 160.72 Z M 152.75 160.47 L 153.76 160.26 C 154.78 160.04 155.44 159.03 155.22 158.00 C 155.01 156.98 154.00 156.32 152.97 156.54 L 151.97 156.75 C 150.94 156.97 150.28 157.98 150.50 159.00 C 150.72 160.03 151.73 160.69 152.75 160.47 Z M 153.42 160.33 L 154.49 160.30 C 155.55 160.27 156.39 159.37 156.36 158.31 C 156.33 157.24 155.44 156.40 154.37 156.43 L 153.30 156.46 C 152.24 156.50 151.40 157.39 151.43 158.45 C 151.46 159.52 152.35 160.36 153.42 160.33 Z M 153.62 160.18 L 154.43 160.54 C 155.43 160.98 156.60 160.53 157.05 159.53 C 157.49 158.53 157.04 157.36 156.04 156.91 L 155.24 156.55 C 154.24 156.10 153.06 156.55 152.61 157.56 C 152.17 158.56 152.62 159.73 153.62 160.18 Z M 153.44 159.65 L 153.83 160.42 C 154.35 161.41 155.57 161.80 156.56 161.29 C 157.55 160.77 157.94 159.55 157.43 158.56 L 157.03 157.79 C 156.52 156.80 155.29 156.41 154.30 156.93 C 153.31 157.44 152.92 158.66 153.44 159.65 Z M 153.60 159.74 L 153.73 160.78 C 153.87 161.90 154.89 162.69 156.01 162.55 C 157.14 162.41 157.93 161.39 157.79 160.27 L 157.66 159.24 C 157.52 158.12 156.50 157.32 155.38 157.46 C 154.26 157.60 153.46 158.62 153.60 159.74 Z M 153.70 160.45 L 153.66 161.51 C 153.62 162.65 154.51 163.61 155.65 163.65 C 156.79 163.69 157.75 162.79 157.79 161.65 L 157.82 160.59 C 157.86 159.45 156.97 158.50 155.83 158.46 C 154.69 158.42 153.74 159.31 153.70 160.45 Z M 153.67 161.30 L 153.53 162.28 C 153.38 163.41 154.18 164.46 155.31 164.61 C 156.45 164.77 157.50 163.97 157.65 162.83 L 157.78 161.86 C 157.94 160.73 157.14 159.68 156.00 159.53 C 154.87 159.37 153.82 160.17 153.67 161.30 Z M 153.56 162.09 L 153.34 163.07 C 153.08 164.19 153.79 165.31 154.91 165.56 C 156.03 165.82 157.15 165.11 157.40 163.99 L 157.63 163.01 C 157.88 161.89 157.18 160.78 156.05 160.52 C 154.93 160.27 153.81 160.97 153.56 162.09 Z M 153.37 162.94 L 153.10 163.86 C 152.77 164.97 153.41 166.13 154.52 166.45 C 155.62 166.78 156.79 166.14 157.11 165.03 L 157.38 164.12 C 157.70 163.01 157.07 161.85 155.96 161.52 C 154.85 161.20 153.69 161.84 153.37 162.94 Z M 153.12 163.78 L 152.81 164.70 C 152.45 165.79 153.04 166.98 154.14 167.34 C 155.24 167.71 156.42 167.12 156.79 166.02 L 157.09 165.11 C 157.46 164.01 156.86 162.82 155.76 162.46 C 154.67 162.09 153.48 162.69 153.12 163.78 Z M 152.82 164.66 L 152.48 165.63 C 152.09 166.72 152.66 167.92 153.75 168.31 C 154.84 168.70 156.04 168.13 156.43 167.04 L 156.78 166.06 C 157.16 164.97 156.59 163.77 155.50 163.38 C 154.41 163.00 153.21 163.57 152.82 164.66 Z M 152.48 165.62 L 152.12 166.62 C 151.72 167.71 152.28 168.91 153.37 169.31 C 154.46 169.71 155.66 169.15 156.06 168.06 L 156.43 167.05 C 156.82 165.96 156.26 164.76 155.17 164.36 C 154.08 163.97 152.88 164.53 152.48 165.62 Z M 152.11 166.61 L 151.76 167.58 C 151.36 168.67 151.92 169.88 153.01 170.28 C 154.10 170.68 155.30 170.12 155.70 169.03 L 156.06 168.06 C 156.46 166.97 155.90 165.77 154.81 165.37 C 153.72 164.97 152.51 165.53 152.11 166.61 Z M 151.76 167.58 L 151.40 168.54 C 151.00 169.63 151.55 170.84 152.64 171.24 C 153.73 171.65 154.94 171.09 155.35 170.00 L 155.71 169.04 C 156.11 167.95 155.55 166.74 154.46 166.33 C 153.37 165.93 152.16 166.48 151.76 167.58 Z M 151.40 168.53 L 151.06 169.44 C 150.65 170.53 151.20 171.74 152.29 172.15 C 153.38 172.57 154.59 172.02 155.00 170.93 L 155.35 170.01 C 155.76 168.92 155.21 167.71 154.12 167.30 C 153.03 166.89 151.81 167.44 151.40 168.53 Z M 151.06 169.42 L 150.69 170.39 C 150.26 171.47 150.80 172.70 151.89 173.12 C 152.98 173.54 154.20 173.00 154.62 171.91 L 155.00 170.94 C 155.42 169.86 154.88 168.63 153.79 168.21 C 152.71 167.79 151.48 168.33 151.06 169.42 Z M 150.70 170.36 L 150.32 171.29 C 149.88 172.37 150.41 173.60 151.49 174.04 C 152.57 174.48 153.80 173.95 154.24 172.87 L 154.62 171.94 C 155.05 170.86 154.53 169.63 153.45 169.19 C 152.36 168.75 151.13 169.28 150.70 170.36 Z M 150.33 171.26 L 149.97 172.12 C 149.51 173.20 150.02 174.44 151.09 174.89 C 152.17 175.34 153.41 174.84 153.86 173.76 L 154.23 172.90 C 154.68 171.83 154.18 170.58 153.10 170.13 C 152.03 169.68 150.79 170.18 150.33 171.26 Z M 149.98 172.10 L 149.58 172.99 C 149.12 174.06 149.61 175.31 150.68 175.78 C 151.75 176.25 153.00 175.76 153.46 174.69 L 153.86 173.79 C 154.32 172.72 153.83 171.47 152.76 171.00 C 151.69 170.53 150.44 171.02 149.98 172.10 Z M 149.59 172.97 L 149.18 173.89 C 148.70 174.96 149.17 176.21 150.24 176.69 C 151.31 177.17 152.56 176.69 153.04 175.63 L 153.46 174.71 C 153.94 173.64 153.46 172.39 152.39 171.91 C 151.33 171.43 150.07 171.90 149.59 172.97 Z M 149.19 173.87 L 148.76 174.78 C 148.27 175.84 148.73 177.10 149.80 177.59 C 150.86 178.09 152.12 177.62 152.61 176.56 L 153.04 175.65 C 153.53 174.59 153.07 173.33 152.00 172.83 C 150.94 172.34 149.68 172.80 149.19 173.87 Z M 148.78 174.75 L 148.34 175.66 C 147.83 176.72 148.28 177.99 149.33 178.49 C 150.39 179.00 151.66 178.56 152.17 177.50 L 152.60 176.59 C 153.11 175.53 152.66 174.26 151.61 173.76 C 150.55 173.25 149.28 173.69 148.78 174.75 Z M 148.35 175.63 L 147.91 176.52 C 147.38 177.57 147.81 178.85 148.86 179.37 C 149.91 179.89 151.19 179.47 151.71 178.42 L 152.15 177.53 C 152.68 176.48 152.25 175.20 151.20 174.68 C 150.15 174.16 148.87 174.58 148.35 175.63 Z M 147.92 176.49 L 147.46 177.37 C 146.92 178.42 147.33 179.70 148.37 180.24 C 149.41 180.78 150.70 180.37 151.24 179.33 L 151.70 178.45 C 152.24 177.41 151.83 176.12 150.79 175.58 C 149.75 175.04 148.46 175.45 147.92 176.49 Z M 147.48 177.34 L 147.00 178.22 C 146.44 179.25 146.83 180.55 147.86 181.11 C 148.89 181.67 150.18 181.28 150.74 180.25 L 151.22 179.37 C 151.78 178.33 151.40 177.04 150.36 176.48 C 149.33 175.92 148.04 176.31 147.48 177.34 Z M 147.02 178.18 L 146.53 179.04 C 145.95 180.07 146.30 181.37 147.32 181.95 C 148.35 182.53 149.65 182.18 150.23 181.15 L 150.72 180.29 C 151.30 179.27 150.95 177.97 149.93 177.39 C 148.91 176.80 147.61 177.16 147.02 178.18 Z M 146.56 179.00 L 146.03 179.87 C 145.42 180.87 145.74 182.18 146.75 182.79 C 147.76 183.40 149.07 183.08 149.67 182.07 L 150.20 181.20 C 150.81 180.20 150.49 178.89 149.48 178.28 C 148.48 177.67 147.17 177.99 146.56 179.00 Z M 146.06 179.82 L 145.52 180.65 C 144.88 181.64 145.17 182.96 146.16 183.60 C 147.15 184.24 148.47 183.95 149.11 182.96 L 149.64 182.12 C 150.28 181.13 150.00 179.82 149.01 179.18 C 148.02 178.54 146.70 178.83 146.06 179.82 Z M 145.56 180.60 L 144.99 181.42 C 144.32 182.40 144.57 183.72 145.54 184.39 C 146.51 185.06 147.84 184.81 148.50 183.84 L 149.07 183.01 C 149.74 182.04 149.49 180.72 148.52 180.05 C 147.55 179.38 146.22 179.63 145.56 180.60 Z M 145.03 181.37 L 144.44 182.17 C 143.74 183.12 143.94 184.46 144.89 185.16 C 145.84 185.85 147.17 185.65 147.87 184.70 L 148.46 183.90 C 149.16 182.95 148.96 181.61 148.01 180.91 C 147.06 180.22 145.73 180.42 145.03 181.37 Z M 144.48 182.12 L 143.89 182.87 C 143.16 183.79 143.31 185.13 144.24 185.86 C 145.16 186.59 146.50 186.44 147.23 185.51 L 147.83 184.76 C 148.56 183.84 148.40 182.50 147.48 181.76 C 146.55 181.03 145.21 181.19 144.48 182.12 Z M 143.94 182.81 L 143.34 183.51 C 142.58 184.40 142.68 185.75 143.58 186.51 C 144.48 187.28 145.82 187.17 146.59 186.27 L 147.18 185.57 C 147.95 184.68 147.84 183.33 146.94 182.57 C 146.05 181.80 144.70 181.91 143.94 182.81 Z M 143.40 183.44 L 142.68 184.22 C 141.88 185.08 141.93 186.43 142.79 187.23 C 143.65 188.03 145.00 187.98 145.80 187.12 L 146.53 186.34 C 147.33 185.48 147.28 184.13 146.41 183.33 C 145.55 182.53 144.20 182.58 143.40 183.44 Z M 142.73 184.17 L 142.02 184.88 C 141.19 185.71 141.20 187.06 142.04 187.89 C 142.87 188.72 144.22 188.71 145.05 187.88 L 145.75 187.17 C 146.58 186.33 146.58 184.98 145.74 184.15 C 144.90 183.33 143.56 183.33 142.73 184.17 Z M 142.07 184.83 L 141.33 185.53 C 140.48 186.34 140.44 187.69 141.25 188.55 C 142.06 189.40 143.41 189.43 144.26 188.62 L 145.00 187.92 C 145.86 187.11 145.89 185.76 145.08 184.91 C 144.27 184.06 142.92 184.02 142.07 184.83 Z M 141.40 185.48 L 140.62 186.16 C 139.73 186.93 139.65 188.28 140.42 189.16 C 141.19 190.05 142.54 190.13 143.42 189.36 L 144.20 188.68 C 145.08 187.91 145.17 186.56 144.40 185.68 C 143.62 184.79 142.28 184.70 141.40 185.48 Z M 140.73 186.07 L 139.90 186.71 C 138.96 187.43 138.79 188.76 139.51 189.69 C 140.22 190.62 141.56 190.80 142.49 190.08 L 143.32 189.44 C 144.25 188.73 144.42 187.39 143.71 186.46 C 142.99 185.53 141.66 185.36 140.73 186.07 Z M 140.06 186.61 L 139.17 187.17 C 138.18 187.79 137.89 189.10 138.51 190.09 C 139.14 191.08 140.45 191.38 141.44 190.75 L 142.32 190.19 C 143.31 189.56 143.61 188.25 142.98 187.26 C 142.36 186.28 141.05 185.98 140.06 186.61 Z M 139.34 187.08 L 138.50 187.51 C 137.47 188.04 137.06 189.31 137.59 190.35 C 138.12 191.38 139.39 191.80 140.42 191.27 L 141.26 190.84 C 142.30 190.31 142.71 189.04 142.18 188.00 C 141.65 186.96 140.38 186.55 139.34 187.08 Z M 138.67 187.45 L 137.73 187.83 C 136.66 188.27 136.15 189.49 136.59 190.57 C 137.03 191.64 138.25 192.15 139.32 191.71 L 140.26 191.33 C 141.33 190.89 141.84 189.66 141.40 188.59 C 140.97 187.52 139.74 187.01 138.67 187.45 Z M 138.11 187.74 L 137.15 187.93 C 136.02 188.17 135.30 189.26 135.53 190.39 C 135.76 191.51 136.86 192.24 137.98 192.00 L 138.95 191.81 C 140.07 191.57 140.79 190.48 140.56 189.35 C 140.33 188.23 139.23 187.50 138.11 187.74 Z M 138.03 187.98 L 137.16 187.77 C 136.06 187.51 134.96 188.19 134.70 189.29 C 134.44 190.40 135.12 191.50 136.22 191.76 L 137.09 191.96 C 138.20 192.22 139.30 191.54 139.56 190.44 C 139.82 189.34 139.13 188.24 138.03 187.98 Z M 137.89 188.16 L 137.10 187.57 C 136.21 186.91 134.96 187.09 134.30 187.97 C 133.63 188.86 133.82 190.12 134.70 190.78 L 135.50 191.37 C 136.38 192.03 137.64 191.85 138.30 190.96 C 138.96 190.08 138.78 188.82 137.89 188.16 Z M 137.27 187.78 L 136.77 187.28 C 135.99 186.53 134.76 186.54 134.00 187.31 C 133.24 188.08 133.26 189.32 134.03 190.08 L 134.53 190.57 C 135.30 191.33 136.54 191.31 137.30 190.54 C 138.05 189.77 138.04 188.53 137.27 187.78 Z"
      fill="black"
      fill-rule="nonzero" /><path d="M 144.56 166.24 L 143.73 166.97 C 143.00 167.60 142.93 168.71 143.57 169.44 C 144.20 170.16 145.31 170.24 146.04 169.60 L 146.86 168.88 C 147.59 168.24 147.66 167.14 147.03 166.41 C 146.39 165.68 145.28 165.61 144.56 166.24 Z M 143.14 167.46 L 142.77 168.23 C 142.32 169.19 142.73 170.34 143.69 170.80 C 144.66 171.25 145.81 170.84 146.26 169.88 L 146.63 169.11 C 147.08 168.15 146.67 167.00 145.71 166.54 C 144.75 166.09 143.60 166.50 143.14 167.46 Z M 142.62 169.85 L 142.91 170.56 C 143.35 171.61 144.56 172.10 145.61 171.66 C 146.66 171.22 147.15 170.02 146.72 168.97 L 146.42 168.26 C 145.98 167.21 144.77 166.71 143.72 167.15 C 142.67 167.59 142.18 168.80 142.62 169.85 Z M 143.26 171.24 L 144.01 172.03 C 144.83 172.89 146.19 172.93 147.05 172.11 C 147.91 171.29 147.94 169.93 147.12 169.07 L 146.37 168.28 C 145.55 167.42 144.19 167.39 143.33 168.21 C 142.47 169.02 142.44 170.38 143.26 171.24 Z M 144.14 172.24 L 144.97 172.95 C 145.90 173.74 147.29 173.63 148.08 172.70 C 148.88 171.77 148.76 170.37 147.83 169.58 L 147.00 168.87 C 146.07 168.08 144.68 168.19 143.89 169.12 C 143.09 170.05 143.21 171.45 144.14 172.24 Z M 145.00 173.01 L 145.80 173.64 C 146.76 174.41 148.17 174.26 148.94 173.29 C 149.71 172.33 149.55 170.92 148.59 170.15 L 147.80 169.52 C 146.84 168.75 145.43 168.90 144.66 169.87 C 143.89 170.83 144.04 172.24 145.00 173.01 Z M 145.81 173.67 L 146.63 174.30 C 147.61 175.06 149.02 174.89 149.78 173.91 C 150.54 172.93 150.36 171.52 149.38 170.76 L 148.57 170.13 C 147.59 169.36 146.18 169.54 145.42 170.52 C 144.66 171.50 144.84 172.91 145.81 173.67 Z M 146.63 174.32 L 147.41 174.92 C 148.40 175.68 149.81 175.49 150.57 174.51 C 151.33 173.52 151.15 172.11 150.16 171.35 L 149.38 170.74 C 148.40 169.98 146.98 170.17 146.22 171.15 C 145.46 172.14 145.64 173.56 146.63 174.32 Z M 147.41 174.92 L 148.25 175.57 C 149.23 176.33 150.65 176.15 151.42 175.16 C 152.18 174.18 152.00 172.76 151.01 171.99 L 150.17 171.34 C 149.18 170.58 147.76 170.76 147.00 171.75 C 146.24 172.74 146.42 174.16 147.41 174.92 Z M 148.24 175.57 L 149.01 176.17 C 150.00 176.93 151.42 176.75 152.18 175.76 C 152.95 174.78 152.77 173.36 151.78 172.59 L 151.01 171.99 C 150.03 171.23 148.61 171.41 147.84 172.40 C 147.07 173.38 147.25 174.80 148.24 175.57 Z M 149.01 176.17 L 149.77 176.75 C 150.76 177.52 152.18 177.34 152.94 176.35 C 153.71 175.36 153.53 173.93 152.54 173.17 L 151.78 172.59 C 150.79 171.82 149.37 172.00 148.61 172.99 C 147.84 173.98 148.02 175.40 149.01 176.17 Z M 149.77 176.76 L 150.53 177.34 C 151.53 178.10 152.95 177.91 153.71 176.92 C 154.47 175.93 154.28 174.51 153.29 173.74 L 152.53 173.16 C 151.54 172.40 150.12 172.59 149.35 173.58 C 148.59 174.58 148.78 176.00 149.77 176.76 Z M 150.54 177.35 L 151.34 177.95 C 152.34 178.71 153.76 178.51 154.51 177.52 C 155.27 176.52 155.07 175.10 154.08 174.35 L 153.28 173.74 C 152.28 172.98 150.86 173.18 150.11 174.17 C 149.35 175.17 149.55 176.59 150.54 177.35 Z M 151.35 177.96 L 152.19 178.59 C 153.19 179.34 154.61 179.14 155.36 178.14 C 156.11 177.14 155.91 175.72 154.91 174.97 L 154.07 174.34 C 153.07 173.59 151.65 173.79 150.90 174.79 C 150.15 175.79 150.35 177.21 151.35 177.96 Z M 152.20 178.59 L 152.99 179.18 C 153.99 179.92 155.41 179.71 156.15 178.71 C 156.90 177.71 156.69 176.29 155.68 175.55 L 154.89 174.96 C 153.89 174.22 152.48 174.43 151.73 175.43 C 150.99 176.43 151.20 177.85 152.20 178.59 Z M 153.00 179.18 L 153.81 179.77 C 154.82 180.51 156.23 180.29 156.96 179.29 C 157.70 178.29 157.48 176.88 156.48 176.14 L 155.67 175.55 C 154.67 174.81 153.26 175.03 152.52 176.03 C 151.78 177.03 152.00 178.45 153.00 179.18 Z M 153.83 179.78 L 154.65 180.37 C 155.65 181.10 157.06 180.87 157.79 179.87 C 158.52 178.86 158.29 177.45 157.28 176.73 L 156.46 176.14 C 155.46 175.41 154.05 175.63 153.33 176.64 C 152.60 177.65 152.82 179.05 153.83 179.78 Z M 154.67 180.38 L 155.48 180.96 C 156.49 181.67 157.89 181.44 158.61 180.43 C 159.33 179.42 159.09 178.02 158.08 177.30 L 157.27 176.72 C 156.26 176.01 154.86 176.24 154.14 177.25 C 153.42 178.26 153.66 179.66 154.67 180.38 Z M 155.51 180.96 L 156.32 181.53 C 157.33 182.24 158.73 181.99 159.43 180.98 C 160.14 179.97 159.89 178.58 158.88 177.87 L 158.06 177.30 C 157.05 176.60 155.66 176.84 154.95 177.85 C 154.25 178.86 154.50 180.26 155.51 180.96 Z M 156.35 181.54 L 157.17 182.10 C 158.19 182.79 159.57 182.53 160.26 181.51 C 160.95 180.50 160.69 179.12 159.68 178.43 L 158.85 177.86 C 157.84 177.17 156.46 177.44 155.76 178.45 C 155.07 179.46 155.33 180.85 156.35 181.54 Z M 157.20 182.10 L 158.04 182.66 C 159.05 183.34 160.43 183.06 161.10 182.04 C 161.78 181.02 161.50 179.65 160.48 178.97 L 159.65 178.42 C 158.63 177.74 157.26 178.02 156.58 179.04 C 155.91 180.06 156.18 181.43 157.20 182.10 Z M 158.07 182.66 L 158.90 183.20 C 159.92 183.86 161.28 183.57 161.94 182.55 C 162.60 181.53 162.30 180.17 161.29 179.51 L 160.45 178.97 C 159.43 178.31 158.07 178.60 157.41 179.62 C 156.76 180.64 157.05 182.00 158.07 182.66 Z M 158.93 183.20 L 159.78 183.74 C 160.79 184.38 162.14 184.07 162.79 183.06 C 163.43 182.04 163.12 180.69 162.11 180.05 L 161.26 179.51 C 160.24 178.87 158.89 179.17 158.25 180.19 C 157.60 181.21 157.91 182.56 158.93 183.20 Z M 159.80 183.73 L 160.65 184.26 C 161.67 184.89 163.01 184.58 163.64 183.56 C 164.27 182.55 163.95 181.21 162.94 180.58 L 162.08 180.05 C 161.06 179.42 159.73 179.73 159.10 180.75 C 158.47 181.77 158.78 183.10 159.80 183.73 Z M 160.68 184.25 L 161.54 184.78 C 162.55 185.40 163.87 185.08 164.49 184.07 C 165.11 183.05 164.79 181.73 163.78 181.11 L 162.91 180.59 C 161.90 179.97 160.58 180.29 159.96 181.30 C 159.35 182.31 159.67 183.64 160.68 184.25 Z M 161.56 184.77 L 162.43 185.29 C 163.43 185.89 164.74 185.56 165.34 184.56 C 165.95 183.55 165.62 182.25 164.61 181.64 L 163.75 181.13 C 162.75 180.52 161.44 180.85 160.84 181.85 C 160.23 182.86 160.56 184.16 161.56 184.77 Z M 162.46 185.27 L 163.32 185.78 C 164.32 186.37 165.60 186.03 166.19 185.04 C 166.78 184.04 166.45 182.75 165.45 182.16 L 164.59 181.65 C 163.59 181.07 162.30 181.40 161.71 182.40 C 161.12 183.40 161.46 184.69 162.46 185.27 Z M 163.35 185.77 L 164.21 186.26 C 165.20 186.83 166.47 186.49 167.04 185.50 C 167.61 184.50 167.27 183.24 166.27 182.67 L 165.41 182.17 C 164.42 181.60 163.15 181.94 162.58 182.94 C 162.01 183.93 162.35 185.20 163.35 185.77 Z M 164.24 186.25 L 165.14 186.75 C 166.12 187.30 167.37 186.95 167.92 185.96 C 168.47 184.98 168.12 183.73 167.13 183.18 L 166.24 182.68 C 165.25 182.13 164.01 182.48 163.46 183.47 C 162.91 184.45 163.26 185.70 164.24 186.25 Z M 165.17 186.73 L 166.06 187.21 C 167.03 187.74 168.25 187.38 168.78 186.41 C 169.32 185.43 168.96 184.21 167.98 183.68 L 167.10 183.20 C 166.12 182.67 164.90 183.03 164.37 184.00 C 163.84 184.98 164.20 186.20 165.17 186.73 Z M 166.09 187.19 L 166.95 187.65 C 167.91 188.16 169.11 187.80 169.62 186.83 C 170.14 185.87 169.77 184.67 168.81 184.16 L 167.95 183.70 C 166.98 183.19 165.78 183.55 165.27 184.52 C 164.76 185.48 165.12 186.68 166.09 187.19 Z M 166.98 187.62 L 167.88 188.09 C 168.83 188.59 170.01 188.22 170.50 187.27 C 170.99 186.32 170.62 185.15 169.67 184.65 L 168.77 184.18 C 167.82 183.69 166.65 184.06 166.16 185.01 C 165.66 185.96 166.03 187.13 166.98 187.62 Z M 167.92 188.06 L 168.81 188.51 C 169.75 188.99 170.89 188.62 171.36 187.68 C 171.84 186.75 171.46 185.61 170.53 185.14 L 169.64 184.68 C 168.71 184.21 167.56 184.58 167.09 185.51 C 166.62 186.45 166.99 187.59 167.92 188.06 Z M 168.85 188.48 L 169.73 188.92 C 170.65 189.37 171.75 189.00 172.21 188.08 C 172.66 187.17 172.29 186.06 171.37 185.60 L 170.49 185.17 C 169.58 184.71 168.47 185.09 168.01 186.00 C 167.56 186.92 167.94 188.03 168.85 188.48 Z M 169.77 188.88 L 170.64 189.30 C 171.54 189.73 172.62 189.36 173.05 188.46 C 173.48 187.56 173.10 186.49 172.20 186.06 L 171.33 185.64 C 170.43 185.21 169.36 185.58 168.93 186.48 C 168.50 187.38 168.87 188.45 169.77 188.88 Z M 170.71 189.28 L 171.60 189.68 C 172.49 190.08 173.52 189.68 173.92 188.80 C 174.31 187.92 173.92 186.88 173.04 186.49 L 172.14 186.08 C 171.26 185.69 170.22 186.08 169.83 186.96 C 169.43 187.84 169.82 188.88 170.71 189.28 Z M 171.69 189.66 L 172.64 190.04 C 173.52 190.39 174.50 189.97 174.85 189.09 C 175.20 188.22 174.78 187.23 173.90 186.88 L 172.95 186.50 C 172.08 186.16 171.09 186.58 170.74 187.45 C 170.39 188.32 170.82 189.31 171.69 189.66 Z M 172.73 190.03 L 173.66 190.35 C 174.53 190.65 175.47 190.19 175.77 189.32 C 176.07 188.45 175.61 187.51 174.74 187.21 L 173.81 186.89 C 172.95 186.60 172.00 187.06 171.70 187.92 C 171.41 188.79 171.87 189.74 172.73 190.03 Z M 173.73 190.34 L 174.67 190.63 C 175.54 190.89 176.45 190.40 176.71 189.54 C 176.97 188.68 176.48 187.77 175.62 187.51 L 174.67 187.22 C 173.81 186.96 172.90 187.44 172.64 188.31 C 172.38 189.17 172.86 190.08 173.73 190.34 Z M 174.71 190.62 L 175.69 190.89 C 176.55 191.13 177.44 190.63 177.68 189.78 C 177.92 188.92 177.42 188.03 176.56 187.79 L 175.58 187.52 C 174.73 187.28 173.84 187.78 173.60 188.63 C 173.36 189.49 173.86 190.38 174.71 190.62 Z M 175.71 190.88 L 176.49 191.09 C 177.33 191.32 178.20 190.82 178.43 189.97 C 178.66 189.12 178.16 188.25 177.32 188.02 L 176.55 187.81 C 175.70 187.58 174.83 188.08 174.60 188.93 C 174.37 189.77 174.87 190.65 175.71 190.88 Z"
      fill="black"
      fill-rule="nonzero" /></svg>