<svg xmlns="http://www.w3.org/2000/svg" width="300" height="300" viewBox="0 0 300 300">
<path d="M 145.28 130.95 L 144.35 131.88 C 143.69 132.54 143.70 133.61 144.36 134.27 C 145.02 134.93 146.09 134.93 146.75 134.27 L 147.68 133.34 C 148.34 132.67 148.33 131.60 147.67 130.94 C 147.01 130.29 145.94 130.29 145.28 130.95 Z M 144.27 131.82 L 143.48 132.63 C 142.79 133.34 142.80 134.47 143.51 135.16 C 144.22 135.85 145.35 135.84 146.04 135.13 L 146.83 134.32 C 147.52 133.61 147.51 132.48 146.80 131.79 C 146.09 131.10 144.96 131.11 144.27 131.82 Z M 143.36 132.61 L 142.84 133.19 C 142.14 133.96 142.20 135.15 142.97 135.85 C 143.75 136.55 144.94 136.50 145.64 135.72 L 146.16 135.15 C 146.86 134.38 146.80 133.18 146.03 132.48 C 145.26 131.78 144.06 131.84 143.36 132.61 Z M 142.27 134.40 L 142.26 134.59 C 142.23 135.68 143.09 136.59 144.18 136.62 C 145.27 136.65 146.18 135.79 146.21 134.70 L 146.21 134.51 C 146.24 133.42 145.39 132.51 144.30 132.48 C 143.21 132.45 142.30 133.31 142.27 134.40 Z M 145.36 136.34 L 146.33 135.69 C 147.27 135.07 147.52 133.81 146.90 132.88 C 146.28 131.94 145.02 131.69 144.09 132.31 L 143.11 132.95 C 142.18 133.57 141.92 134.83 142.54 135.77 C 143.16 136.70 144.42 136.96 145.36 136.34 Z M 146.44 135.65 L 147.25 135.05 C 148.16 134.38 148.35 133.09 147.67 132.17 C 146.99 131.26 145.71 131.07 144.79 131.75 L 143.98 132.35 C 143.07 133.02 142.88 134.31 143.56 135.22 C 144.24 136.14 145.52 136.33 146.44 135.65 Z M 147.27 135.04 L 148.06 134.44 C 148.96 133.74 149.14 132.45 148.44 131.54 C 147.75 130.64 146.46 130.47 145.55 131.16 L 144.76 131.76 C 143.86 132.45 143.69 133.75 144.38 134.65 C 145.07 135.56 146.37 135.73 147.27 135.04 Z M 148.07 134.43 L 148.91 133.78 C 149.81 133.09 149.97 131.79 149.28 130.89 C 148.58 129.98 147.28 129.82 146.38 130.52 L 145.54 131.16 C 144.64 131.86 144.47 133.16 145.17 134.06 C 145.87 134.96 147.17 135.13 148.07 134.43 Z M 148.90 133.79 L 149.57 133.28 C 150.47 132.58 150.64 131.28 149.94 130.38 C 149.24 129.47 147.94 129.31 147.04 130.00 L 146.38 130.51 C 145.48 131.21 145.31 132.51 146.01 133.41 C 146.70 134.32 148.00 134.48 148.90 133.79 Z M 149.56 133.28 L 150.29 132.72 C 151.20 132.03 151.37 130.73 150.68 129.82 C 149.98 128.92 148.68 128.74 147.78 129.44 L 147.05 130.00 C 146.14 130.69 145.97 131.99 146.66 132.90 C 147.36 133.80 148.65 133.98 149.56 133.28 Z M 150.29 132.72 L 151.12 132.09 C 152.03 131.40 152.21 130.10 151.52 129.19 C 150.83 128.29 149.53 128.11 148.62 128.80 L 147.79 129.43 C 146.88 130.12 146.70 131.42 147.39 132.33 C 148.08 133.24 149.38 133.41 150.29 132.72 Z M 151.11 132.09 L 152.07 131.38 C 152.98 130.69 153.16 129.40 152.48 128.49 C 151.79 127.57 150.50 127.39 149.58 128.08 L 148.63 128.79 C 147.72 129.48 147.54 130.77 148.22 131.69 C 148.91 132.60 150.20 132.78 151.11 132.09 Z M 152.06 131.38 L 152.84 130.80 C 153.75 130.12 153.94 128.83 153.25 127.91 C 152.57 127.00 151.28 126.81 150.37 127.49 L 149.59 128.07 C 148.68 128.75 148.49 130.05 149.17 130.96 C 149.85 131.87 151.15 132.06 152.06 131.38 Z M 152.83 130.80 L 153.65 130.19 C 154.57 129.51 154.76 128.22 154.08 127.31 C 153.40 126.40 152.11 126.20 151.20 126.88 L 150.37 127.49 C 149.46 128.17 149.27 129.46 149.95 130.37 C 150.62 131.29 151.91 131.48 152.83 130.80 Z M 153.64 130.19 L 154.49 129.57 C 155.40 128.90 155.60 127.61 154.93 126.70 C 154.25 125.78 152.97 125.59 152.05 126.26 L 151.21 126.88 C 150.29 127.55 150.10 128.84 150.77 129.75 C 151.44 130.67 152.73 130.86 153.64 130.19 Z M 154.48 129.57 L 155.31 128.97 C 156.23 128.30 156.43 127.02 155.76 126.10 C 155.10 125.18 153.81 124.98 152.90 125.65 L 152.06 126.26 C 151.15 126.92 150.95 128.21 151.61 129.12 C 152.28 130.04 153.56 130.24 154.48 129.57 Z M 155.30 128.97 L 156.09 128.40 C 157.01 127.74 157.22 126.46 156.56 125.54 C 155.90 124.62 154.62 124.41 153.70 125.07 L 152.91 125.64 C 151.99 126.30 151.78 127.58 152.44 128.50 C 153.10 129.42 154.38 129.63 155.30 128.97 Z M 156.07 128.40 L 156.96 127.78 C 157.88 127.13 158.10 125.86 157.45 124.94 C 156.80 124.02 155.54 123.80 154.62 124.45 L 153.73 125.07 C 152.81 125.72 152.59 126.99 153.24 127.91 C 153.88 128.83 155.15 129.05 156.07 128.40 Z M 156.91 127.76 L 157.84 127.13 C 158.76 126.51 158.99 125.27 158.37 124.35 C 157.75 123.44 156.51 123.21 155.59 123.83 L 154.66 124.46 C 153.75 125.08 153.51 126.32 154.14 127.24 C 154.76 128.15 156.00 128.39 156.91 127.76 Z M 157.79 127.11 L 158.58 126.59 C 159.48 126.00 159.73 124.79 159.14 123.89 C 158.55 122.99 157.34 122.73 156.44 123.33 L 155.65 123.85 C 154.75 124.44 154.49 125.65 155.09 126.55 C 155.68 127.45 156.89 127.70 157.79 127.11 Z M 158.53 126.57 L 159.23 126.12 C 160.12 125.56 160.39 124.38 159.82 123.49 C 159.26 122.60 158.08 122.34 157.19 122.90 L 156.49 123.35 C 155.60 123.91 155.34 125.09 155.90 125.98 C 156.47 126.87 157.64 127.13 158.53 126.57 Z M 159.19 126.09 L 160.02 125.57 C 160.89 125.03 161.16 123.89 160.62 123.02 C 160.08 122.15 158.93 121.88 158.06 122.42 L 157.23 122.94 C 156.36 123.48 156.09 124.62 156.64 125.49 C 157.18 126.36 158.32 126.63 159.19 126.09 Z M 159.96 125.55 L 160.81 125.05 C 161.67 124.54 161.95 123.43 161.44 122.57 C 160.93 121.71 159.83 121.43 158.97 121.94 L 158.12 122.45 C 157.26 122.95 156.98 124.06 157.49 124.92 C 158.00 125.78 159.11 126.06 159.96 125.55 Z M 160.73 125.03 L 161.60 124.56 C 162.45 124.09 162.77 123.03 162.30 122.18 C 161.84 121.33 160.77 121.01 159.92 121.48 L 159.05 121.95 C 158.20 122.42 157.89 123.48 158.35 124.33 C 158.82 125.19 159.88 125.50 160.73 125.03 Z M 161.52 124.55 L 162.39 124.11 C 163.24 123.69 163.58 122.67 163.16 121.82 C 162.75 120.98 161.72 120.63 160.87 121.05 L 160.00 121.49 C 159.16 121.91 158.81 122.93 159.23 123.78 C 159.65 124.62 160.68 124.97 161.52 124.55 Z M 162.34 124.09 L 163.25 123.67 C 164.09 123.28 164.45 122.29 164.06 121.45 C 163.67 120.62 162.68 120.26 161.84 120.65 L 160.93 121.07 C 160.10 121.46 159.73 122.45 160.12 123.29 C 160.51 124.12 161.50 124.48 162.34 124.09 Z M 163.22 123.64 L 164.01 123.28 C 164.83 122.91 165.19 121.95 164.82 121.13 C 164.45 120.31 163.48 119.95 162.66 120.32 L 161.88 120.67 C 161.06 121.05 160.69 122.01 161.07 122.83 C 161.44 123.65 162.40 124.01 163.22 123.64 Z"
      fill="black"
      fill-rule="nonzero" /><path d="M 138.57 121.44 L 138.79 122.47 C 139.00 123.43 139.95 124.04 140.92 123.83 C 141.88 123.62 142.49 122.67 142.28 121.71 L 142.06 120.68 C 141.85 119.71 140.90 119.10 139.93 119.31 C 138.97 119.52 138.36 120.47 138.57 121.44 Z M 138.73 122.46 L 138.94 123.46 C 139.15 124.46 140.12 125.10 141.12 124.89 C 142.11 124.69 142.75 123.71 142.55 122.72 L 142.34 121.71 C 142.13 120.72 141.16 120.08 140.16 120.28 C 139.17 120.49 138.53 121.46 138.73 122.46 Z M 138.88 123.43 L 139.05 124.37 C 139.24 125.40 140.23 126.08 141.25 125.90 C 142.28 125.71 142.97 124.72 142.78 123.69 L 142.61 122.75 C 142.42 121.72 141.43 121.04 140.40 121.23 C 139.38 121.41 138.69 122.40 138.88 123.43 Z M 139.01 124.29 L 139.14 125.29 C 139.28 126.35 140.26 127.09 141.31 126.94 C 142.37 126.80 143.11 125.83 142.96 124.78 L 142.83 123.77 C 142.68 122.72 141.71 121.98 140.66 122.12 C 139.60 122.27 138.86 123.24 139.01 124.29 Z M 139.12 125.18 L 139.20 126.17 C 139.28 127.23 140.21 128.03 141.27 127.95 C 142.34 127.87 143.13 126.94 143.05 125.88 L 142.98 124.89 C 142.90 123.82 141.97 123.03 140.91 123.11 C 139.84 123.19 139.04 124.12 139.12 125.18 Z M 139.20 126.08 L 139.23 127.04 C 139.26 128.10 140.15 128.94 141.21 128.91 C 142.28 128.88 143.11 127.99 143.08 126.92 L 143.05 125.96 C 143.02 124.90 142.13 124.06 141.07 124.10 C 140.00 124.13 139.17 125.02 139.20 126.08 Z M 139.23 127.00 L 139.24 127.95 C 139.26 129.01 140.13 129.86 141.19 129.85 C 142.25 129.83 143.10 128.96 143.09 127.90 L 143.08 126.96 C 143.07 125.90 142.19 125.05 141.13 125.06 C 140.07 125.07 139.22 125.94 139.23 127.00 Z M 139.24 127.93 L 139.25 128.93 C 139.25 129.99 140.11 130.85 141.18 130.85 C 142.24 130.84 143.10 129.98 143.09 128.92 L 143.09 127.92 C 143.08 126.85 142.22 126.00 141.16 126.00 C 140.10 126.00 139.24 126.87 139.24 127.93 Z M 139.25 128.93 L 139.25 129.97 C 139.25 131.03 140.11 131.89 141.17 131.89 C 142.23 131.89 143.09 131.03 143.09 129.96 L 143.09 128.93 C 143.09 127.86 142.23 127.00 141.17 127.00 C 140.11 127.00 139.25 127.86 139.25 128.93 Z M 139.25 129.96 L 139.25 130.91 C 139.24 131.97 140.10 132.83 141.16 132.84 C 142.22 132.84 143.08 131.98 143.09 130.92 L 143.09 129.97 C 143.09 128.91 142.24 128.05 141.18 128.04 C 140.11 128.04 139.25 128.90 139.25 129.96 Z M 139.25 130.89 L 139.23 131.89 C 139.22 132.95 140.07 133.82 141.13 133.84 C 142.19 133.85 143.06 133.00 143.07 131.94 L 143.09 130.94 C 143.10 129.88 142.25 129.01 141.19 129.00 C 140.13 128.98 139.26 129.83 139.25 130.89 Z M 139.24 131.85 L 139.20 132.90 C 139.16 133.96 139.99 134.85 141.05 134.88 C 142.11 134.92 143.00 134.09 143.03 133.03 L 143.07 131.98 C 143.11 130.92 142.28 130.04 141.22 130.00 C 140.16 129.96 139.27 130.79 139.24 131.85 Z M 139.20 132.85 L 139.15 133.83 C 139.08 134.89 139.89 135.79 140.95 135.86 C 142.01 135.92 142.91 135.11 142.97 134.05 L 143.03 133.08 C 143.09 132.02 142.29 131.11 141.23 131.05 C 140.17 130.99 139.27 131.80 139.20 132.85 Z M 139.15 133.79 L 139.07 134.77 C 138.99 135.82 139.77 136.74 140.83 136.83 C 141.88 136.92 142.80 136.13 142.89 135.08 L 142.97 134.10 C 143.06 133.04 142.27 132.12 141.22 132.03 C 140.16 131.95 139.24 132.73 139.15 133.79 Z M 139.08 134.73 L 138.97 135.73 C 138.87 136.79 139.63 137.73 140.69 137.83 C 141.74 137.94 142.68 137.17 142.78 136.12 L 142.89 135.11 C 142.99 134.06 142.22 133.12 141.17 133.02 C 140.12 132.91 139.18 133.68 139.08 134.73 Z M 138.98 135.70 L 138.86 136.73 C 138.73 137.78 139.48 138.73 140.53 138.86 C 141.58 138.98 142.53 138.23 142.66 137.18 L 142.78 136.15 C 142.90 135.10 142.15 134.15 141.10 134.03 C 140.05 133.90 139.10 134.65 138.98 135.70 Z M 138.86 136.71 L 138.73 137.68 C 138.59 138.72 139.33 139.69 140.38 139.82 C 141.42 139.96 142.38 139.23 142.52 138.18 L 142.65 137.21 C 142.79 136.17 142.06 135.20 141.01 135.06 C 139.96 134.93 139.00 135.66 138.86 136.71 Z M 138.74 137.66 L 138.60 138.64 C 138.44 139.68 139.17 140.65 140.21 140.80 C 141.26 140.95 142.22 140.23 142.38 139.18 L 142.52 138.20 C 142.67 137.16 141.95 136.19 140.90 136.04 C 139.86 135.89 138.89 136.61 138.74 137.66 Z M 138.60 138.62 L 138.45 139.61 C 138.29 140.66 139.00 141.63 140.04 141.79 C 141.08 141.95 142.06 141.24 142.22 140.20 L 142.37 139.20 C 142.53 138.16 141.82 137.19 140.78 137.02 C 139.73 136.86 138.76 137.58 138.60 138.62 Z M 138.45 139.60 L 138.29 140.61 C 138.12 141.65 138.83 142.63 139.87 142.79 C 140.91 142.96 141.88 142.25 142.05 141.22 L 142.21 140.21 C 142.38 139.17 141.68 138.19 140.64 138.02 C 139.60 137.86 138.62 138.56 138.45 139.60 Z M 138.29 140.60 L 138.13 141.59 C 137.95 142.62 138.65 143.61 139.69 143.78 C 140.73 143.95 141.71 143.25 141.88 142.21 L 142.05 141.22 C 142.22 140.19 141.52 139.21 140.48 139.03 C 139.45 138.86 138.46 139.56 138.29 140.60 Z M 138.13 141.58 L 137.96 142.56 C 137.78 143.60 138.48 144.58 139.51 144.76 C 140.55 144.94 141.53 144.24 141.71 143.20 L 141.88 142.22 C 142.06 141.19 141.36 140.20 140.33 140.03 C 139.29 139.85 138.31 140.54 138.13 141.58 Z M 137.97 142.55 L 137.79 143.53 C 137.61 144.57 138.29 145.55 139.33 145.74 C 140.36 145.92 141.35 145.23 141.53 144.20 L 141.71 143.22 C 141.89 142.18 141.20 141.20 140.17 141.01 C 139.14 140.83 138.15 141.52 137.97 142.55 Z M 137.79 143.52 L 137.61 144.51 C 137.42 145.54 138.10 146.53 139.13 146.72 C 140.16 146.91 141.15 146.23 141.34 145.20 L 141.53 144.21 C 141.72 143.18 141.04 142.19 140.01 142.00 C 138.98 141.81 137.99 142.49 137.79 143.52 Z M 137.62 144.49 L 137.42 145.49 C 137.22 146.52 137.89 147.51 138.92 147.71 C 139.95 147.91 140.94 147.24 141.14 146.21 L 141.34 145.22 C 141.54 144.19 140.87 143.19 139.84 142.99 C 138.81 142.79 137.82 143.46 137.62 144.49 Z M 137.43 145.47 L 137.22 146.49 C 137.01 147.52 137.67 148.52 138.70 148.73 C 139.72 148.94 140.72 148.28 140.93 147.25 L 141.14 146.23 C 141.35 145.20 140.69 144.20 139.66 143.99 C 138.64 143.78 137.63 144.45 137.43 145.47 Z M 137.22 146.48 L 137.01 147.48 C 136.79 148.50 137.45 149.51 138.47 149.73 C 139.50 149.94 140.50 149.29 140.72 148.26 L 140.93 147.26 C 141.15 146.24 140.49 145.23 139.47 145.02 C 138.44 144.80 137.44 145.45 137.22 146.48 Z M 137.01 147.47 L 136.80 148.43 C 136.58 149.46 137.23 150.47 138.25 150.69 C 139.27 150.91 140.28 150.26 140.51 149.24 L 140.72 148.27 C 140.94 147.25 140.29 146.24 139.27 146.02 C 138.24 145.79 137.23 146.44 137.01 147.47 Z M 136.80 148.42 L 136.60 149.34 C 136.37 150.36 137.02 151.38 138.04 151.60 C 139.06 151.83 140.07 151.19 140.30 150.16 L 140.51 149.25 C 140.73 148.22 140.09 147.21 139.07 146.98 C 138.04 146.76 137.03 147.40 136.80 148.42 Z M 136.60 149.33 L 136.38 150.31 C 136.14 151.33 136.78 152.35 137.81 152.58 C 138.83 152.81 139.84 152.17 140.08 151.15 L 140.30 150.17 C 140.53 149.15 139.89 148.14 138.87 147.90 C 137.85 147.67 136.83 148.31 136.60 149.33 Z M 136.38 150.29 L 136.15 151.23 C 135.91 152.25 136.54 153.28 137.56 153.52 C 138.57 153.77 139.60 153.14 139.85 152.12 L 140.07 151.18 C 140.32 150.16 139.69 149.13 138.67 148.89 C 137.65 148.64 136.63 149.27 136.38 150.29 Z M 136.16 151.20 L 135.91 152.15 C 135.65 153.17 136.25 154.21 137.27 154.47 C 138.28 154.74 139.32 154.13 139.59 153.11 L 139.84 152.16 C 140.10 151.14 139.49 150.10 138.48 149.84 C 137.46 149.57 136.43 150.18 136.16 151.20 Z M 135.92 152.11 L 135.64 153.09 C 135.35 154.10 135.94 155.15 136.95 155.44 C 137.96 155.73 139.01 155.15 139.29 154.14 L 139.58 153.16 C 139.86 152.15 139.28 151.10 138.27 150.81 C 137.26 150.52 136.21 151.10 135.92 152.11 Z M 135.66 153.06 L 135.36 154.01 C 135.06 155.01 135.62 156.07 136.62 156.38 C 137.62 156.68 138.68 156.12 138.99 155.12 L 139.28 154.17 C 139.59 153.17 139.03 152.11 138.02 151.80 C 137.02 151.50 135.96 152.06 135.66 153.06 Z M 135.38 153.99 L 135.06 154.97 C 134.75 155.96 135.30 157.03 136.29 157.34 C 137.29 157.66 138.35 157.11 138.67 156.11 L 138.98 155.14 C 139.30 154.14 138.75 153.08 137.75 152.76 C 136.76 152.44 135.69 153.00 135.38 153.99 Z M 135.07 154.96 L 134.76 155.93 C 134.44 156.92 134.98 157.99 135.97 158.31 C 136.96 158.63 138.03 158.08 138.35 157.09 L 138.66 156.12 C 138.98 155.13 138.44 154.07 137.45 153.75 C 136.46 153.42 135.39 153.97 135.07 154.96 Z M 134.76 155.93 L 134.46 156.86 C 134.14 157.85 134.68 158.91 135.67 159.23 C 136.66 159.55 137.72 159.01 138.04 158.02 L 138.34 157.09 C 138.66 156.10 138.12 155.04 137.13 154.72 C 136.14 154.40 135.08 154.94 134.76 155.93 Z M 134.44 156.89 L 134.06 158.11 C 133.76 159.11 134.32 160.17 135.33 160.48 C 136.33 160.78 137.39 160.22 137.70 159.21 L 138.07 158.00 C 138.38 156.99 137.81 155.93 136.81 155.63 C 135.80 155.32 134.74 155.88 134.44 156.89 Z M 133.98 158.27 L 133.78 159.26 C 133.57 160.31 134.24 161.33 135.29 161.55 C 136.34 161.76 137.37 161.08 137.58 160.03 L 137.78 159.05 C 138.00 158.00 137.32 156.97 136.27 156.76 C 135.22 156.55 134.20 157.22 133.98 158.27 Z M 133.72 159.91 L 133.81 160.58 C 133.96 161.66 134.95 162.42 136.04 162.28 C 137.12 162.13 137.88 161.13 137.73 160.05 L 137.64 159.38 C 137.50 158.30 136.50 157.54 135.41 157.68 C 134.33 157.83 133.57 158.83 133.72 159.91 Z M 134.94 162.16 L 135.63 162.47 C 136.65 162.93 137.84 162.47 138.30 161.46 C 138.76 160.44 138.31 159.24 137.29 158.78 L 136.60 158.47 C 135.58 158.01 134.39 158.47 133.93 159.48 C 133.47 160.50 133.92 161.70 134.94 162.16 Z M 136.68 162.68 L 137.84 162.56 C 138.97 162.44 139.79 161.42 139.67 160.28 C 139.55 159.15 138.54 158.33 137.40 158.45 L 136.24 158.57 C 135.11 158.69 134.28 159.71 134.40 160.84 C 134.52 161.98 135.54 162.80 136.68 162.68 Z M 138.02 162.56 L 138.96 162.37 C 140.09 162.15 140.83 161.05 140.61 159.91 C 140.39 158.78 139.28 158.04 138.15 158.26 L 137.21 158.45 C 136.08 158.67 135.34 159.77 135.56 160.91 C 135.79 162.04 136.89 162.78 138.02 162.56 Z M 138.99 162.38 L 139.96 162.18 C 141.10 161.93 141.83 160.81 141.59 159.67 C 141.35 158.53 140.22 157.81 139.08 158.05 L 138.11 158.25 C 136.97 158.50 136.25 159.62 136.49 160.76 C 136.73 161.90 137.85 162.63 138.99 162.38 Z M 139.97 162.19 L 141.00 161.97 C 142.14 161.72 142.87 160.60 142.63 159.45 C 142.38 158.30 141.26 157.57 140.11 157.82 L 139.08 158.04 C 137.93 158.28 137.20 159.41 137.45 160.56 C 137.69 161.70 138.82 162.43 139.97 162.19 Z M 140.98 161.98 L 141.96 161.78 C 143.12 161.55 143.86 160.42 143.63 159.27 C 143.39 158.11 142.26 157.37 141.11 157.60 L 140.13 157.80 C 138.97 158.04 138.23 159.16 138.46 160.32 C 138.70 161.47 139.82 162.22 140.98 161.98 Z M 141.94 161.79 L 142.90 161.61 C 144.06 161.38 144.82 160.26 144.60 159.10 C 144.37 157.94 143.25 157.18 142.09 157.41 L 141.13 157.59 C 139.97 157.81 139.21 158.94 139.43 160.10 C 139.66 161.26 140.78 162.02 141.94 161.79 Z M 142.88 161.61 L 143.87 161.43 C 145.04 161.22 145.81 160.10 145.59 158.93 C 145.38 157.77 144.26 157.00 143.09 157.22 L 142.10 157.40 C 140.94 157.62 140.17 158.73 140.39 159.90 C 140.60 161.06 141.72 161.83 142.88 161.61 Z M 143.87 161.44 L 144.89 161.25 C 146.05 161.04 146.83 159.92 146.62 158.76 C 146.40 157.59 145.29 156.82 144.12 157.03 L 143.10 157.21 C 141.93 157.42 141.16 158.54 141.37 159.71 C 141.58 160.87 142.70 161.65 143.87 161.44 Z M 144.88 161.26 L 145.79 161.09 C 146.95 160.88 147.73 159.77 147.52 158.60 C 147.31 157.43 146.19 156.65 145.03 156.86 L 144.12 157.02 C 142.95 157.23 142.18 158.35 142.39 159.52 C 142.60 160.69 143.71 161.47 144.88 161.26 Z M 145.78 161.09 L 146.70 160.93 C 147.87 160.72 148.65 159.60 148.44 158.43 C 148.23 157.27 147.11 156.49 145.94 156.70 L 145.03 156.86 C 143.86 157.07 143.08 158.19 143.29 159.36 C 143.50 160.53 144.62 161.30 145.78 161.09 Z M 146.70 160.93 L 147.67 160.76 C 148.84 160.55 149.62 159.43 149.41 158.26 C 149.20 157.09 148.09 156.31 146.92 156.52 L 145.94 156.70 C 144.77 156.91 143.99 158.02 144.20 159.19 C 144.41 160.36 145.53 161.14 146.70 160.93 Z M 147.67 160.76 L 148.72 160.57 C 149.89 160.36 150.67 159.25 150.46 158.08 C 150.26 156.91 149.14 156.13 147.97 156.33 L 146.92 156.52 C 145.75 156.73 144.97 157.85 145.18 159.02 C 145.38 160.19 146.50 160.97 147.67 160.76 Z M 148.72 160.57 L 149.79 160.38 C 150.96 160.17 151.75 159.06 151.54 157.89 C 151.33 156.72 150.21 155.94 149.04 156.14 L 147.97 156.33 C 146.80 156.54 146.02 157.66 146.23 158.83 C 146.43 160.00 147.55 160.78 148.72 160.57 Z M 149.79 160.38 L 150.77 160.21 C 151.94 160.00 152.72 158.89 152.51 157.72 C 152.31 156.55 151.19 155.77 150.02 155.97 L 149.05 156.14 C 147.87 156.35 147.09 157.47 147.30 158.64 C 147.51 159.81 148.62 160.59 149.79 160.38 Z M 150.76 160.21 L 151.77 160.04 C 152.95 159.83 153.73 158.71 153.52 157.54 C 153.32 156.37 152.20 155.59 151.03 155.79 L 150.02 155.97 C 148.85 156.18 148.07 157.29 148.27 158.46 C 148.48 159.63 149.59 160.42 150.76 160.21 Z M 151.77 160.04 L 152.79 159.86 C 153.96 159.66 154.75 158.54 154.54 157.37 C 154.34 156.20 153.23 155.41 152.05 155.62 L 151.04 155.79 C 149.86 156.00 149.08 157.11 149.28 158.28 C 149.48 159.45 150.60 160.24 151.77 160.04 Z M 152.79 159.86 L 153.79 159.69 C 154.96 159.49 155.75 158.37 155.55 157.20 C 155.35 156.03 154.24 155.24 153.06 155.44 L 152.06 155.62 C 150.89 155.82 150.10 156.93 150.30 158.10 C 150.50 159.27 151.61 160.06 152.79 159.86 Z M 153.78 159.69 L 154.75 159.53 C 155.92 159.33 156.71 158.22 156.51 157.05 C 156.32 155.87 155.20 155.08 154.03 155.28 L 153.07 155.44 C 151.90 155.64 151.11 156.75 151.30 157.92 C 151.50 159.10 152.61 159.89 153.78 159.69 Z M 154.74 159.53 L 155.79 159.36 C 156.96 159.16 157.76 158.06 157.57 156.88 C 157.37 155.71 156.27 154.92 155.09 155.11 L 154.04 155.28 C 152.87 155.47 152.07 156.58 152.26 157.75 C 152.46 158.92 153.56 159.72 154.74 159.53 Z M 155.77 159.36 L 156.83 159.19 C 158.01 159.01 158.81 157.91 158.62 156.73 C 158.44 155.56 157.34 154.76 156.17 154.94 L 155.11 155.11 C 153.93 155.29 153.13 156.39 153.32 157.57 C 153.50 158.74 154.60 159.54 155.77 159.36 Z M 156.82 159.19 L 157.79 159.04 C 158.96 158.87 159.77 157.77 159.59 156.60 C 159.42 155.43 158.33 154.62 157.15 154.80 L 156.18 154.94 C 155.01 155.12 154.20 156.21 154.38 157.38 C 154.55 158.56 155.65 159.37 156.82 159.19 Z M 157.78 159.04 L 158.69 158.91 C 159.86 158.74 160.68 157.66 160.51 156.49 C 160.34 155.31 159.26 154.50 158.08 154.67 L 157.17 154.80 C 156.00 154.97 155.18 156.05 155.35 157.22 C 155.52 158.40 156.60 159.21 157.78 159.04 Z M 158.68 158.91 L 159.60 158.78 C 160.77 158.62 161.59 157.54 161.43 156.37 C 161.26 155.20 160.19 154.38 159.01 154.54 L 158.10 154.67 C 156.93 154.83 156.11 155.91 156.27 157.08 C 156.43 158.25 157.51 159.07 158.68 158.91 Z M 159.58 158.78 L 160.58 158.65 C 161.75 158.49 162.57 157.42 162.42 156.25 C 162.26 155.08 161.19 154.26 160.02 154.42 L 159.03 154.55 C 157.86 154.70 157.03 155.77 157.19 156.94 C 157.34 158.11 158.42 158.93 159.58 158.78 Z M 160.57 158.64 L 161.56 158.52 C 162.73 158.37 163.55 157.31 163.41 156.14 C 163.26 154.97 162.19 154.15 161.03 154.30 L 160.03 154.42 C 158.87 154.57 158.04 155.63 158.19 156.80 C 158.34 157.96 159.40 158.79 160.57 158.64 Z M 161.55 158.51 L 162.54 158.39 C 163.70 158.25 164.53 157.20 164.39 156.04 C 164.25 154.87 163.20 154.04 162.03 154.18 L 161.04 154.30 C 159.88 154.44 159.05 155.49 159.19 156.66 C 159.33 157.82 160.38 158.65 161.55 158.51 Z M 162.52 158.39 L 163.52 158.28 C 164.68 158.15 165.52 157.10 165.39 155.94 C 165.26 154.78 164.21 153.94 163.05 154.07 L 162.05 154.19 C 160.89 154.32 160.05 155.36 160.18 156.52 C 160.31 157.68 161.36 158.52 162.52 158.39 Z M 163.51 158.28 L 164.53 158.17 C 165.69 158.05 166.54 157.01 166.42 155.85 C 166.30 154.69 165.26 153.85 164.10 153.97 L 163.07 154.07 C 161.91 154.20 161.07 155.23 161.19 156.39 C 161.31 157.55 162.35 158.40 163.51 158.28 Z M 164.52 158.17 L 165.52 158.07 C 166.68 157.96 167.53 156.93 167.42 155.77 C 167.31 154.61 166.28 153.76 165.12 153.87 L 164.11 153.97 C 162.95 154.08 162.10 155.11 162.21 156.27 C 162.32 157.43 163.36 158.28 164.52 158.17 Z M 165.51 158.08 L 166.47 157.99 C 167.63 157.89 168.49 156.86 168.39 155.70 C 168.28 154.54 167.26 153.68 166.10 153.78 L 165.13 153.87 C 163.97 153.97 163.11 155.00 163.21 156.16 C 163.32 157.32 164.34 158.18 165.51 158.08 Z M 166.45 157.99 L 167.48 157.91 C 168.64 157.82 169.51 156.80 169.41 155.63 C 169.32 154.47 168.30 153.60 167.14 153.70 L 166.11 153.78 C 164.95 153.87 164.08 154.89 164.18 156.06 C 164.27 157.22 165.29 158.09 166.45 157.99 Z M 167.46 157.91 L 168.48 157.84 C 169.64 157.76 170.52 156.75 170.44 155.58 C 170.36 154.42 169.34 153.54 168.18 153.62 L 167.16 153.69 C 165.99 153.77 165.11 154.79 165.20 155.95 C 165.28 157.12 166.29 158.00 167.46 157.91 Z M 168.44 157.85 L 169.40 157.80 C 170.57 157.73 171.47 156.73 171.40 155.56 C 171.34 154.39 170.34 153.50 169.17 153.56 L 168.21 153.61 C 167.04 153.68 166.15 154.68 166.21 155.85 C 166.27 157.02 167.27 157.91 168.44 157.85 Z M 169.36 157.80 L 170.36 157.77 C 171.53 157.73 172.45 156.74 172.41 155.57 C 172.37 154.40 171.39 153.48 170.21 153.52 L 169.21 153.55 C 168.04 153.60 167.12 154.58 167.16 155.75 C 167.20 156.92 168.19 157.84 169.36 157.80 Z M 170.32 157.78 L 171.34 157.76 C 172.51 157.74 173.45 156.77 173.44 155.60 C 173.42 154.42 172.45 153.48 171.27 153.50 L 170.26 153.51 C 169.08 153.53 168.14 154.50 168.15 155.67 C 168.17 156.85 169.14 157.79 170.32 157.78 Z M 171.31 157.77 L 172.27 157.77 C 173.45 157.76 174.40 156.80 174.40 155.62 C 174.40 154.44 173.44 153.48 172.25 153.48 L 171.30 153.49 C 170.12 153.49 169.16 154.45 169.16 155.63 C 169.17 156.82 170.13 157.77 171.31 157.77 Z M 172.25 157.78 L 173.26 157.78 C 174.45 157.79 175.42 156.83 175.42 155.64 C 175.43 154.45 174.47 153.49 173.29 153.48 L 172.27 153.48 C 171.08 153.47 170.12 154.43 170.11 155.62 C 170.11 156.80 171.06 157.77 172.25 157.78 Z M 173.18 157.78 L 174.17 157.83 C 175.35 157.88 176.36 156.95 176.41 155.77 C 176.46 154.58 175.54 153.57 174.35 153.52 L 173.37 153.48 C 172.18 153.43 171.17 154.35 171.12 155.54 C 171.07 156.73 171.99 157.73 173.18 157.78 Z M 174.02 157.85 L 175.13 157.97 C 176.33 158.10 177.41 157.24 177.55 156.04 C 177.68 154.83 176.81 153.75 175.61 153.62 L 174.50 153.50 C 173.30 153.36 172.21 154.23 172.08 155.43 C 171.95 156.63 172.82 157.72 174.02 157.85 Z M 175.57 158.06 L 176.46 157.98 C 177.71 157.87 178.63 156.77 178.52 155.52 C 178.42 154.27 177.31 153.35 176.07 153.46 L 175.17 153.53 C 173.92 153.64 173.00 154.74 173.11 155.99 C 173.22 157.24 174.32 158.17 175.57 158.06 Z M 178.54 156.22 L 178.69 155.54 C 178.96 154.29 178.17 153.04 176.91 152.77 C 175.66 152.49 174.41 153.29 174.14 154.54 L 173.99 155.22 C 173.71 156.47 174.51 157.72 175.76 157.99 C 177.02 158.27 178.26 157.47 178.54 156.22 Z M 178.66 154.37 L 178.34 153.30 C 177.97 152.06 176.66 151.35 175.42 151.72 C 174.18 152.09 173.48 153.40 173.85 154.64 L 174.17 155.71 C 174.54 156.95 175.84 157.66 177.08 157.29 C 178.32 156.92 179.03 155.61 178.66 154.37 Z M 178.30 153.19 L 177.95 152.20 C 177.52 150.99 176.18 150.35 174.96 150.78 C 173.75 151.21 173.11 152.54 173.54 153.76 L 173.88 154.75 C 174.31 155.97 175.65 156.61 176.87 156.18 C 178.09 155.75 178.73 154.41 178.30 153.19 Z M 177.94 152.21 L 177.61 151.28 C 177.19 150.06 175.85 149.43 174.64 149.86 C 173.42 150.28 172.79 151.62 173.22 152.83 L 173.54 153.76 C 173.97 154.97 175.31 155.61 176.52 155.18 C 177.73 154.75 178.37 153.42 177.94 152.21 Z M 177.58 151.23 L 177.22 150.29 C 176.76 149.10 175.42 148.50 174.23 148.96 C 173.03 149.41 172.44 150.75 172.90 151.95 L 173.25 152.88 C 173.71 154.08 175.05 154.67 176.24 154.22 C 177.44 153.76 178.03 152.42 177.58 151.23 Z M 177.16 150.24 L 176.77 149.31 C 176.28 148.15 174.95 147.61 173.79 148.09 C 172.63 148.58 172.08 149.92 172.57 151.08 L 172.95 152.00 C 173.44 153.16 174.78 153.71 175.94 153.22 C 177.10 152.73 177.65 151.40 177.16 150.24 Z M 176.71 149.29 L 176.30 148.36 C 175.80 147.23 174.48 146.73 173.35 147.23 C 172.22 147.73 171.72 149.05 172.22 150.18 L 172.63 151.10 C 173.13 152.23 174.45 152.74 175.58 152.23 C 176.70 151.73 177.21 150.41 176.71 149.29 Z M 176.22 148.36 L 175.83 147.52 C 175.33 146.44 174.04 145.97 172.96 146.47 C 171.87 146.97 171.40 148.26 171.90 149.35 L 172.29 150.18 C 172.80 151.27 174.09 151.74 175.17 151.23 C 176.25 150.73 176.73 149.44 176.22 148.36 Z M 175.74 147.54 L 175.33 146.69 C 174.84 145.66 173.60 145.22 172.57 145.71 C 171.54 146.20 171.10 147.44 171.59 148.47 L 172.00 149.33 C 172.49 150.36 173.73 150.80 174.76 150.30 C 175.79 149.81 176.23 148.57 175.74 147.54 Z M 175.24 146.73 L 174.76 145.73 C 174.29 144.75 173.11 144.34 172.13 144.81 C 171.15 145.28 170.74 146.46 171.21 147.44 L 171.69 148.43 C 172.16 149.42 173.33 149.83 174.32 149.36 C 175.30 148.89 175.71 147.71 175.24 146.73 Z M 174.69 145.77 L 174.30 144.95 C 173.85 144.01 172.72 143.61 171.78 144.06 C 170.84 144.51 170.44 145.64 170.89 146.58 L 171.28 147.40 C 171.73 148.34 172.86 148.74 173.80 148.29 C 174.74 147.84 175.14 146.71 174.69 145.77 Z M 174.24 144.98 L 173.83 144.11 C 173.40 143.20 172.30 142.81 171.39 143.24 C 170.48 143.68 170.09 144.77 170.53 145.68 L 170.94 146.55 C 171.37 147.46 172.47 147.85 173.38 147.42 C 174.29 146.98 174.68 145.89 174.24 144.98 Z M 173.78 144.13 L 173.34 143.20 C 172.92 142.32 171.86 141.94 170.97 142.36 C 170.09 142.78 169.71 143.84 170.13 144.72 L 170.58 145.66 C 171.00 146.54 172.05 146.92 172.94 146.50 C 173.82 146.08 174.20 145.02 173.78 144.13 Z M 173.29 143.23 L 172.83 142.26 C 172.42 141.40 171.40 141.03 170.54 141.44 C 169.68 141.85 169.32 142.87 169.72 143.73 L 170.18 144.70 C 170.59 145.56 171.61 145.92 172.47 145.51 C 173.33 145.11 173.69 144.08 173.29 143.23 Z M 172.79 142.28 L 172.53 141.74 C 172.14 140.90 171.14 140.55 170.30 140.94 C 169.47 141.34 169.11 142.34 169.51 143.17 L 169.76 143.71 C 170.16 144.54 171.16 144.90 171.99 144.50 C 172.83 144.11 173.18 143.11 172.79 142.28 Z"
      fill="black"
      fill-rule="nonzero" /></svg>