<svg xmlns="http://www.w3.org/2000/svg" width="300" height="300" viewBox="0 0 300 300">
<path d="M 154.34 109.38 L 155.45 109.44 C 156.37 109.49 157.16 108.78 157.21 107.85 C 157.26 106.93 156.55 106.14 155.63 106.09 L 154.52 106.04 C 153.60 105.99 152.81 106.69 152.76 107.62 C 152.71 108.54 153.42 109.33 154.34 109.38 Z M 154.61 109.32 L 155.30 109.73 C 156.16 110.25 157.28 109.96 157.79 109.10 C 158.30 108.24 158.02 107.13 157.16 106.62 L 156.47 106.21 C 155.61 105.70 154.49 105.98 153.98 106.84 C 153.47 107.70 153.75 108.81 154.61 109.32 Z M 154.32 108.29 L 154.37 109.18 C 154.43 110.24 155.34 111.04 156.39 110.98 C 157.44 110.92 158.25 110.02 158.19 108.97 L 158.14 108.07 C 158.08 107.01 157.18 106.21 156.12 106.27 C 155.07 106.33 154.26 107.23 154.32 108.29 Z M 154.41 108.48 L 154.08 109.52 C 153.75 110.56 154.32 111.66 155.36 111.99 C 156.39 112.32 157.50 111.75 157.82 110.71 L 158.16 109.67 C 158.48 108.64 157.91 107.53 156.88 107.20 C 155.84 106.87 154.74 107.45 154.41 108.48 Z M 154.16 109.23 L 153.73 110.10 C 153.24 111.09 153.65 112.29 154.64 112.77 C 155.62 113.26 156.82 112.86 157.31 111.87 L 157.74 111.00 C 158.23 110.02 157.82 108.82 156.84 108.33 C 155.85 107.84 154.65 108.25 154.16 109.23 Z M 153.80 109.97 L 153.27 110.86 C 152.71 111.81 153.03 113.04 153.98 113.60 C 154.94 114.16 156.16 113.85 156.72 112.89 L 157.25 112.00 C 157.81 111.05 157.49 109.82 156.54 109.26 C 155.58 108.70 154.36 109.02 153.80 109.97 Z M 153.29 110.83 L 152.80 111.63 C 152.22 112.57 152.52 113.81 153.46 114.39 C 154.41 114.96 155.64 114.67 156.22 113.72 L 156.71 112.92 C 157.29 111.98 156.99 110.74 156.05 110.16 C 155.10 109.59 153.86 109.88 153.29 110.83 Z M 152.81 111.61 L 152.28 112.45 C 151.69 113.39 151.97 114.63 152.91 115.22 C 153.85 115.81 155.09 115.52 155.68 114.58 L 156.21 113.74 C 156.80 112.80 156.52 111.56 155.58 110.97 C 154.64 110.38 153.40 110.67 152.81 111.61 Z M 152.30 112.42 L 151.71 113.32 C 151.10 114.25 151.36 115.49 152.29 116.10 C 153.22 116.71 154.46 116.45 155.07 115.52 L 155.66 114.62 C 156.27 113.69 156.01 112.44 155.08 111.84 C 154.15 111.23 152.90 111.49 152.30 112.42 Z M 151.73 113.29 L 151.20 114.08 C 150.57 114.99 150.81 116.24 151.72 116.86 C 152.64 117.49 153.88 117.25 154.51 116.34 L 155.05 115.55 C 155.67 114.64 155.44 113.39 154.52 112.76 C 153.61 112.14 152.36 112.37 151.73 113.29 Z M 151.22 114.04 L 150.64 114.85 C 150.00 115.76 150.21 117.01 151.11 117.65 C 152.01 118.29 153.26 118.08 153.91 117.18 L 154.48 116.37 C 155.13 115.47 154.92 114.22 154.02 113.57 C 153.12 112.93 151.86 113.14 151.22 114.04 Z M 150.67 114.82 L 150.05 115.64 C 149.39 116.53 149.57 117.78 150.46 118.45 C 151.34 119.11 152.60 118.93 153.26 118.04 L 153.88 117.22 C 154.54 116.33 154.36 115.08 153.47 114.41 C 152.59 113.75 151.33 113.93 150.67 114.82 Z M 150.09 115.61 L 149.46 116.40 C 148.78 117.27 148.93 118.52 149.80 119.21 C 150.66 119.89 151.92 119.74 152.60 118.87 L 153.23 118.08 C 153.91 117.21 153.76 115.95 152.89 115.27 C 152.03 114.59 150.77 114.74 150.09 115.61 Z M 149.50 116.37 L 148.87 117.13 C 148.17 117.97 148.28 119.23 149.13 119.93 C 149.98 120.63 151.23 120.52 151.93 119.67 L 152.57 118.91 C 153.27 118.06 153.15 116.81 152.30 116.10 C 151.46 115.40 150.20 115.52 149.50 116.37 Z M 148.91 117.09 L 148.25 117.85 C 147.53 118.68 147.61 119.93 148.44 120.65 C 149.27 121.37 150.52 121.28 151.24 120.46 L 151.90 119.70 C 152.62 118.87 152.53 117.62 151.70 116.90 C 150.88 116.18 149.62 116.27 148.91 117.09 Z M 148.29 117.82 L 147.60 118.57 C 146.86 119.37 146.92 120.62 147.73 121.36 C 148.53 122.10 149.78 122.04 150.52 121.23 L 151.20 120.49 C 151.94 119.68 151.88 118.43 151.08 117.69 C 150.27 116.96 149.02 117.01 148.29 117.82 Z M 147.64 118.54 L 146.96 119.26 C 146.21 120.04 146.23 121.28 147.01 122.03 C 147.80 122.78 149.04 122.76 149.79 121.98 L 150.48 121.26 C 151.23 120.48 151.20 119.23 150.42 118.48 C 149.63 117.73 148.39 117.76 147.64 118.54 Z M 147.00 119.24 L 146.30 119.94 C 145.54 120.70 145.53 121.93 146.29 122.69 C 147.05 123.45 148.28 123.45 149.05 122.70 L 149.75 122.00 C 150.51 121.24 150.51 120.00 149.75 119.24 C 148.99 118.48 147.76 118.48 147.00 119.24 Z M 146.34 119.92 L 145.61 120.61 C 144.84 121.34 144.81 122.56 145.54 123.34 C 146.28 124.11 147.50 124.14 148.27 123.41 L 149.00 122.71 C 149.77 121.98 149.80 120.76 149.07 119.99 C 148.34 119.22 147.11 119.18 146.34 119.92 Z M 145.66 120.59 L 144.91 121.27 C 144.13 121.98 144.07 123.19 144.77 123.97 C 145.48 124.75 146.69 124.81 147.47 124.11 L 148.22 123.43 C 149.01 122.72 149.07 121.51 148.36 120.73 C 147.65 119.94 146.44 119.88 145.66 120.59 Z M 144.96 121.26 L 144.18 121.93 C 143.39 122.60 143.30 123.80 143.98 124.59 C 144.66 125.38 145.85 125.47 146.64 124.79 L 147.42 124.12 C 148.21 123.44 148.30 122.25 147.62 121.46 C 146.94 120.67 145.75 120.58 144.96 121.26 Z M 144.24 121.92 L 143.44 122.57 C 142.65 123.22 142.53 124.39 143.18 125.18 C 143.83 125.97 145.00 126.09 145.79 125.44 L 146.59 124.79 C 147.38 124.15 147.50 122.98 146.85 122.18 C 146.20 121.39 145.03 121.27 144.24 121.92 Z M 143.49 122.57 L 142.71 123.19 C 141.91 123.81 141.77 124.95 142.39 125.75 C 143.01 126.54 144.16 126.68 144.95 126.06 L 145.74 125.44 C 146.53 124.82 146.67 123.68 146.05 122.88 C 145.43 122.09 144.29 121.95 143.49 122.57 Z M 142.76 123.19 L 141.99 123.76 C 141.20 124.35 141.03 125.48 141.63 126.27 C 142.22 127.06 143.34 127.22 144.13 126.63 L 144.90 126.06 C 145.69 125.47 145.86 124.34 145.26 123.55 C 144.67 122.76 143.55 122.60 142.76 123.19 Z M 142.05 123.77 L 141.17 124.39 C 140.38 124.95 140.20 126.04 140.75 126.83 C 141.31 127.62 142.41 127.81 143.20 127.25 L 144.07 126.63 C 144.86 126.07 145.05 124.97 144.49 124.18 C 143.93 123.39 142.84 123.21 142.05 123.77 Z M 141.24 124.40 L 140.40 124.96 C 139.61 125.48 139.40 126.54 139.92 127.32 C 140.44 128.11 141.49 128.32 142.28 127.80 L 143.12 127.24 C 143.91 126.72 144.12 125.66 143.60 124.88 C 143.08 124.09 142.03 123.88 141.24 124.40 Z M 140.48 124.97 L 139.68 125.45 C 138.90 125.93 138.65 126.95 139.12 127.73 C 139.60 128.51 140.62 128.76 141.40 128.28 L 142.20 127.79 C 142.98 127.32 143.23 126.30 142.75 125.52 C 142.28 124.74 141.26 124.49 140.48 124.97 Z M 139.76 125.45 L 138.88 125.93 C 138.10 126.35 137.81 127.34 138.24 128.12 C 138.67 128.90 139.65 129.19 140.43 128.77 L 141.31 128.29 C 142.10 127.86 142.38 126.88 141.96 126.09 C 141.53 125.31 140.55 125.02 139.76 125.45 Z M 138.96 125.92 L 138.06 126.35 C 137.27 126.74 136.95 127.69 137.33 128.48 C 137.72 129.27 138.67 129.60 139.46 129.21 L 140.36 128.78 C 141.15 128.39 141.48 127.44 141.09 126.65 C 140.70 125.86 139.75 125.53 138.96 125.92 Z M 138.11 126.35 L 137.30 126.72 C 136.51 127.09 136.16 128.02 136.52 128.81 C 136.88 129.60 137.82 129.95 138.61 129.59 L 139.42 129.21 C 140.21 128.85 140.56 127.92 140.19 127.13 C 139.83 126.34 138.90 125.99 138.11 126.35 Z"
      fill="black"
      fill-rule="nonzero" /><path d="M 139.12 134.95 L 138.04 135.70 C 137.23 136.26 137.03 137.37 137.59 138.18 C 138.16 138.99 139.27 139.18 140.07 138.62 L 141.15 137.87 C 141.96 137.31 142.16 136.20 141.59 135.39 C 141.03 134.59 139.92 134.39 139.12 134.95 Z M 137.61 135.90 L 137.21 136.36 C 136.52 137.16 136.60 138.37 137.40 139.06 C 138.20 139.76 139.41 139.68 140.11 138.88 L 140.50 138.42 C 141.20 137.62 141.11 136.41 140.32 135.72 C 139.52 135.02 138.30 135.10 137.61 135.90 Z M 138.70 139.62 L 139.24 139.61 C 140.35 139.59 141.23 138.67 141.21 137.56 C 141.18 136.45 140.26 135.57 139.16 135.60 L 138.62 135.61 C 137.51 135.63 136.63 136.55 136.65 137.66 C 136.68 138.77 137.59 139.65 138.70 139.62 Z M 139.77 139.58 L 140.92 139.24 C 142.01 138.93 142.63 137.79 142.32 136.70 C 142.00 135.61 140.86 134.99 139.78 135.30 L 138.63 135.63 C 137.54 135.95 136.91 137.09 137.23 138.18 C 137.54 139.27 138.68 139.89 139.77 139.58 Z M 141.10 139.22 L 142.18 138.80 C 143.25 138.39 143.79 137.18 143.38 136.11 C 142.96 135.03 141.75 134.50 140.68 134.91 L 139.60 135.33 C 138.52 135.74 137.99 136.95 138.40 138.02 C 138.81 139.10 140.02 139.63 141.10 139.22 Z M 142.28 138.77 L 143.13 138.40 C 144.19 137.93 144.67 136.69 144.20 135.63 C 143.73 134.57 142.49 134.09 141.43 134.56 L 140.58 134.94 C 139.52 135.40 139.04 136.64 139.51 137.70 C 139.98 138.76 141.22 139.24 142.28 138.77 Z M 143.19 138.38 L 144.09 137.95 C 145.13 137.45 145.58 136.19 145.08 135.15 C 144.58 134.10 143.32 133.65 142.28 134.15 L 141.38 134.58 C 140.33 135.08 139.88 136.33 140.38 137.38 C 140.88 138.43 142.14 138.88 143.19 138.38 Z M 144.12 137.93 L 145.06 137.46 C 146.10 136.94 146.52 135.68 146.00 134.64 C 145.48 133.59 144.21 133.17 143.17 133.70 L 142.24 134.17 C 141.20 134.69 140.77 135.95 141.30 136.99 C 141.82 138.04 143.08 138.46 144.12 137.93 Z M 145.09 137.46 L 146.06 136.95 C 147.09 136.42 147.50 135.14 146.96 134.11 C 146.43 133.07 145.15 132.67 144.12 133.20 L 143.15 133.70 C 142.11 134.24 141.71 135.52 142.24 136.55 C 142.78 137.59 144.05 137.99 145.09 137.46 Z M 146.07 136.95 L 146.99 136.46 C 148.02 135.92 148.42 134.64 147.87 133.61 C 147.33 132.58 146.05 132.18 145.02 132.72 L 144.10 133.21 C 143.07 133.75 142.67 135.03 143.22 136.06 C 143.76 137.10 145.04 137.49 146.07 136.95 Z M 147.00 136.46 L 147.92 135.97 C 148.95 135.42 149.34 134.14 148.79 133.11 C 148.24 132.08 146.96 131.69 145.93 132.24 L 145.01 132.73 C 143.98 133.28 143.59 134.56 144.14 135.59 C 144.69 136.62 145.97 137.01 147.00 136.46 Z M 147.93 135.96 L 148.83 135.47 C 149.85 134.92 150.23 133.64 149.68 132.61 C 149.12 131.59 147.84 131.20 146.82 131.76 L 145.92 132.25 C 144.89 132.80 144.51 134.08 145.07 135.11 C 145.62 136.13 146.90 136.52 147.93 135.96 Z M 148.84 135.47 L 149.69 135.00 C 150.71 134.44 151.09 133.16 150.53 132.13 C 149.97 131.11 148.69 130.74 147.66 131.30 L 146.81 131.76 C 145.78 132.32 145.41 133.61 145.97 134.63 C 146.53 135.65 147.81 136.03 148.84 135.47 Z M 149.70 134.99 L 150.53 134.53 C 151.55 133.97 151.92 132.68 151.36 131.66 C 150.79 130.64 149.51 130.28 148.49 130.84 L 147.65 131.30 C 146.64 131.87 146.27 133.15 146.83 134.17 C 147.40 135.19 148.68 135.56 149.70 134.99 Z M 150.54 134.52 L 151.52 133.97 C 152.53 133.40 152.89 132.12 152.32 131.11 C 151.75 130.10 150.47 129.74 149.46 130.31 L 148.48 130.85 C 147.47 131.42 147.11 132.70 147.68 133.72 C 148.25 134.73 149.53 135.09 150.54 134.52 Z M 151.52 133.96 L 152.38 133.47 C 153.38 132.90 153.74 131.63 153.17 130.62 C 152.60 129.62 151.33 129.26 150.32 129.83 L 149.46 130.32 C 148.46 130.89 148.10 132.16 148.67 133.17 C 149.24 134.17 150.51 134.52 151.52 133.96 Z M 152.37 133.46 L 153.16 133.02 C 154.16 132.45 154.51 131.19 153.95 130.19 C 153.39 129.19 152.12 128.84 151.12 129.40 L 150.33 129.84 C 149.33 130.40 148.98 131.67 149.54 132.67 C 150.10 133.67 151.37 134.02 152.37 133.46 Z M 153.13 133.01 L 153.95 132.56 C 154.95 132.01 155.31 130.76 154.76 129.76 C 154.22 128.77 152.96 128.40 151.97 128.95 L 151.15 129.40 C 150.15 129.95 149.79 131.20 150.34 132.20 C 150.88 133.19 152.14 133.56 153.13 133.01 Z M 153.92 132.55 L 154.78 132.09 C 155.77 131.56 156.14 130.33 155.61 129.34 C 155.08 128.35 153.85 127.97 152.86 128.50 L 152.00 128.96 C 151.01 129.49 150.64 130.73 151.17 131.72 C 151.70 132.71 152.93 133.08 153.92 132.55 Z M 154.76 132.07 L 155.65 131.60 C 156.63 131.08 157.01 129.87 156.49 128.89 C 155.97 127.91 154.76 127.53 153.78 128.05 L 152.88 128.52 C 151.90 129.04 151.52 130.25 152.04 131.23 C 152.56 132.21 153.77 132.59 154.76 132.07 Z M 155.63 131.57 L 156.54 131.10 C 157.51 130.59 157.88 129.39 157.37 128.43 C 156.87 127.46 155.67 127.09 154.70 127.59 L 153.79 128.07 C 152.83 128.58 152.45 129.78 152.96 130.74 C 153.47 131.71 154.67 132.08 155.63 131.57 Z M 156.52 131.07 L 157.43 130.60 C 158.38 130.10 158.75 128.93 158.25 127.98 C 157.76 127.03 156.59 126.66 155.63 127.15 L 154.73 127.62 C 153.77 128.12 153.41 129.29 153.90 130.24 C 154.40 131.19 155.57 131.56 156.52 131.07 Z M 157.39 130.57 L 158.30 130.11 C 159.23 129.64 159.61 128.49 159.14 127.56 C 158.66 126.62 157.52 126.24 156.58 126.72 L 155.67 127.18 C 154.74 127.65 154.36 128.79 154.83 129.73 C 155.31 130.67 156.45 131.04 157.39 130.57 Z M 158.24 130.09 L 159.12 129.68 C 160.05 129.23 160.44 128.12 160.00 127.20 C 159.56 126.27 158.45 125.87 157.52 126.32 L 156.64 126.73 C 155.71 127.18 155.32 128.29 155.76 129.21 C 156.20 130.14 157.31 130.54 158.24 130.09 Z M 159.03 129.65 L 160.01 129.23 C 160.93 128.84 161.35 127.78 160.96 126.87 C 160.57 125.95 159.51 125.53 158.60 125.92 L 157.61 126.34 C 156.70 126.73 156.27 127.79 156.66 128.70 C 157.05 129.62 158.11 130.04 159.03 129.65 Z M 159.92 129.18 L 160.82 128.84 C 161.71 128.50 162.16 127.50 161.82 126.62 C 161.48 125.73 160.48 125.28 159.59 125.62 L 158.69 125.97 C 157.80 126.31 157.36 127.30 157.70 128.19 C 158.04 129.08 159.03 129.52 159.92 129.18 Z M 160.77 128.79 L 161.34 128.58 C 162.20 128.27 162.65 127.32 162.34 126.46 C 162.02 125.60 161.07 125.15 160.21 125.47 L 159.64 125.67 C 158.78 125.98 158.34 126.93 158.65 127.79 C 158.96 128.65 159.91 129.10 160.77 128.79 Z"
      fill="black"
      fill-rule="nonzero" /><path d="M 128.57 156.10 L 129.50 155.94 C 130.44 155.78 131.07 154.89 130.92 153.95 C 130.76 153.01 129.87 152.38 128.93 152.53 L 128.00 152.69 C 127.06 152.84 126.42 153.73 126.58 154.67 C 126.73 155.62 127.62 156.25 128.57 156.10 Z M 129.56 156.11 L 130.53 155.94 C 131.56 155.74 132.25 154.75 132.06 153.71 C 131.87 152.68 130.87 151.99 129.84 152.18 L 128.87 152.36 C 127.83 152.55 127.15 153.55 127.34 154.58 C 127.53 155.62 128.52 156.30 129.56 156.11 Z M 130.62 156.10 L 131.66 155.88 C 132.79 155.63 133.51 154.52 133.26 153.39 C 133.02 152.27 131.91 151.55 130.78 151.79 L 129.74 152.02 C 128.61 152.26 127.90 153.37 128.14 154.50 C 128.38 155.63 129.49 156.34 130.62 156.10 Z M 131.75 155.96 L 132.72 155.72 C 133.89 155.42 134.60 154.23 134.31 153.06 C 134.02 151.89 132.83 151.18 131.66 151.47 L 130.69 151.71 C 129.52 152.01 128.81 153.19 129.10 154.37 C 129.39 155.54 130.58 156.25 131.75 155.96 Z M 132.77 155.71 L 133.76 155.44 C 134.93 155.12 135.62 153.91 135.30 152.74 C 134.98 151.57 133.77 150.88 132.60 151.20 L 131.61 151.47 C 130.44 151.79 129.75 153.00 130.07 154.17 C 130.39 155.34 131.60 156.03 132.77 155.71 Z M 133.79 155.44 L 134.76 155.16 C 135.93 154.83 136.61 153.60 136.27 152.43 C 135.93 151.26 134.71 150.59 133.54 150.92 L 132.57 151.20 C 131.40 151.54 130.72 152.76 131.06 153.93 C 131.40 155.10 132.62 155.78 133.79 155.44 Z M 134.78 155.16 L 135.75 154.87 C 136.92 154.53 137.59 153.30 137.24 152.13 C 136.90 150.96 135.67 150.29 134.50 150.64 L 133.53 150.92 C 132.36 151.27 131.69 152.50 132.03 153.67 C 132.38 154.84 133.61 155.51 134.78 155.16 Z M 135.76 154.88 L 136.76 154.58 C 137.93 154.23 138.59 153.00 138.25 151.83 C 137.90 150.65 136.67 149.99 135.49 150.34 L 134.49 150.64 C 133.32 150.98 132.65 152.22 133.00 153.39 C 133.35 154.56 134.58 155.22 135.76 154.88 Z M 136.76 154.58 L 137.68 154.30 C 138.85 153.96 139.51 152.72 139.16 151.55 C 138.81 150.38 137.58 149.71 136.41 150.06 L 135.49 150.34 C 134.32 150.69 133.65 151.92 134.00 153.09 C 134.35 154.26 135.59 154.93 136.76 154.58 Z M 137.67 154.31 L 138.58 154.04 C 139.75 153.69 140.42 152.46 140.08 151.29 C 139.73 150.11 138.50 149.44 137.32 149.79 L 136.41 150.06 C 135.24 150.41 134.57 151.64 134.92 152.81 C 135.27 153.99 136.50 154.65 137.67 154.31 Z M 138.58 154.04 L 139.53 153.76 C 140.70 153.41 141.37 152.18 141.02 151.01 C 140.68 149.83 139.44 149.16 138.27 149.51 L 137.32 149.79 C 136.15 150.14 135.48 151.37 135.83 152.54 C 136.17 153.72 137.41 154.39 138.58 154.04 Z M 139.54 153.75 L 140.51 153.46 C 141.68 153.11 142.34 151.87 141.99 150.70 C 141.63 149.53 140.39 148.87 139.22 149.22 L 138.26 149.51 C 137.09 149.87 136.42 151.11 136.78 152.28 C 137.13 153.45 138.37 154.11 139.54 153.75 Z M 140.53 153.45 L 141.47 153.16 C 142.64 152.79 143.29 151.54 142.92 150.38 C 142.55 149.21 141.30 148.56 140.14 148.93 L 139.20 149.23 C 138.03 149.60 137.38 150.84 137.75 152.01 C 138.12 153.18 139.37 153.82 140.53 153.45 Z M 141.50 153.15 L 142.44 152.84 C 143.60 152.45 144.23 151.20 143.85 150.04 C 143.47 148.88 142.21 148.25 141.05 148.63 L 140.11 148.94 C 138.95 149.33 138.32 150.58 138.70 151.74 C 139.09 152.90 140.34 153.53 141.50 153.15 Z M 142.47 152.83 L 143.43 152.49 C 144.59 152.10 145.20 150.84 144.81 149.68 C 144.41 148.52 143.15 147.91 141.99 148.31 L 141.03 148.64 C 139.87 149.04 139.26 150.30 139.65 151.45 C 140.05 152.61 141.31 153.23 142.47 152.83 Z M 143.46 152.48 L 144.39 152.15 C 145.54 151.74 146.14 150.47 145.73 149.32 C 145.32 148.17 144.05 147.57 142.90 147.98 L 141.97 148.32 C 140.82 148.73 140.22 149.99 140.63 151.15 C 141.04 152.30 142.31 152.90 143.46 152.48 Z M 144.41 152.14 L 145.34 151.80 C 146.48 151.38 147.07 150.12 146.66 148.97 C 146.24 147.82 144.97 147.23 143.82 147.65 L 142.89 147.99 C 141.74 148.41 141.15 149.68 141.57 150.82 C 141.99 151.97 143.26 152.56 144.41 152.14 Z M 145.34 151.80 L 146.29 151.45 C 147.44 151.03 148.02 149.76 147.60 148.62 C 147.18 147.47 145.92 146.88 144.77 147.30 L 143.82 147.65 C 142.67 148.07 142.09 149.34 142.51 150.49 C 142.92 151.63 144.19 152.22 145.34 151.80 Z M 146.28 151.45 L 147.23 151.11 C 148.38 150.69 148.97 149.43 148.55 148.28 C 148.14 147.14 146.87 146.55 145.73 146.96 L 144.78 147.30 C 143.63 147.72 143.04 148.98 143.46 150.13 C 143.87 151.28 145.14 151.87 146.28 151.45 Z M 147.22 151.11 L 148.16 150.77 C 149.31 150.36 149.90 149.10 149.49 147.96 C 149.08 146.81 147.82 146.21 146.67 146.62 L 145.74 146.96 C 144.59 147.37 143.99 148.63 144.40 149.78 C 144.81 150.92 146.08 151.52 147.22 151.11 Z M 148.16 150.77 L 149.11 150.43 C 150.25 150.02 150.84 148.76 150.43 147.61 C 150.02 146.47 148.76 145.88 147.62 146.29 L 146.67 146.63 C 145.53 147.04 144.94 148.30 145.35 149.44 C 145.76 150.59 147.02 151.18 148.16 150.77 Z M 149.12 150.42 L 150.06 150.07 C 151.20 149.65 151.78 148.39 151.36 147.25 C 150.95 146.11 149.68 145.53 148.54 145.95 L 147.60 146.30 C 146.47 146.72 145.88 147.98 146.30 149.12 C 146.72 150.26 147.98 150.84 149.12 150.42 Z M 150.08 150.06 L 151.01 149.71 C 152.14 149.28 152.70 148.01 152.27 146.88 C 151.84 145.75 150.58 145.18 149.45 145.61 L 148.52 145.97 C 147.39 146.40 146.83 147.66 147.26 148.79 C 147.69 149.92 148.95 150.49 150.08 150.06 Z M 151.03 149.69 L 151.95 149.33 C 153.07 148.89 153.62 147.62 153.18 146.50 C 152.74 145.38 151.48 144.83 150.35 145.27 L 149.43 145.63 C 148.31 146.07 147.76 147.34 148.20 148.46 C 148.64 149.58 149.90 150.13 151.03 149.69 Z M 151.96 149.31 L 152.90 148.93 C 154.01 148.48 154.55 147.22 154.10 146.11 C 153.66 144.99 152.39 144.46 151.28 144.90 L 150.34 145.28 C 149.23 145.73 148.69 147.00 149.14 148.11 C 149.59 149.22 150.85 149.76 151.96 149.31 Z M 152.91 148.92 L 153.85 148.53 C 154.95 148.08 155.48 146.82 155.03 145.71 C 154.57 144.61 153.31 144.08 152.21 144.53 L 151.27 144.92 C 150.16 145.37 149.64 146.64 150.09 147.74 C 150.54 148.85 151.81 149.37 152.91 148.92 Z M 153.85 148.52 L 154.79 148.13 C 155.89 147.67 156.40 146.41 155.95 145.32 C 155.49 144.22 154.24 143.70 153.14 144.16 L 152.20 144.55 C 151.11 145.01 150.59 146.26 151.04 147.36 C 151.50 148.45 152.76 148.97 153.85 148.52 Z M 154.79 148.11 L 155.71 147.72 C 156.80 147.27 157.31 146.02 156.86 144.93 C 156.40 143.84 155.15 143.33 154.07 143.79 L 153.14 144.17 C 152.05 144.63 151.54 145.88 152.00 146.97 C 152.45 148.05 153.70 148.57 154.79 148.11 Z M 155.71 147.71 L 156.62 147.33 C 157.70 146.88 158.21 145.64 157.76 144.56 C 157.31 143.48 156.06 142.97 154.98 143.42 L 154.07 143.80 C 152.99 144.25 152.48 145.49 152.94 146.57 C 153.39 147.65 154.63 148.16 155.71 147.71 Z M 156.61 147.32 L 157.57 146.92 C 158.64 146.47 159.15 145.24 158.70 144.17 C 158.25 143.10 157.02 142.59 155.95 143.03 L 154.99 143.43 C 153.92 143.88 153.41 145.11 153.86 146.18 C 154.31 147.26 155.54 147.76 156.61 147.32 Z M 157.57 146.90 L 158.48 146.52 C 159.54 146.07 160.04 144.85 159.59 143.79 C 159.15 142.72 157.92 142.22 156.86 142.67 L 155.95 143.05 C 154.89 143.50 154.39 144.72 154.83 145.78 C 155.28 146.85 156.50 147.35 157.57 146.90 Z M 158.49 146.50 L 159.37 146.11 C 160.42 145.66 160.91 144.44 160.46 143.39 C 160.00 142.34 158.79 141.86 157.74 142.31 L 156.85 142.69 C 155.80 143.15 155.32 144.36 155.77 145.41 C 156.22 146.46 157.44 146.95 158.49 146.50 Z M 159.39 146.08 L 160.33 145.67 C 161.36 145.21 161.82 143.99 161.36 142.96 C 160.90 141.93 159.69 141.46 158.65 141.92 L 157.72 142.34 C 156.69 142.80 156.22 144.01 156.68 145.05 C 157.15 146.08 158.36 146.55 159.39 146.08 Z M 160.34 145.64 L 161.25 145.22 C 162.27 144.75 162.71 143.54 162.24 142.52 C 161.77 141.51 160.56 141.06 159.55 141.53 L 158.64 141.95 C 157.62 142.42 157.18 143.63 157.65 144.65 C 158.12 145.66 159.32 146.11 160.34 145.64 Z M 161.26 145.19 L 162.13 144.77 C 163.13 144.30 163.56 143.10 163.08 142.10 C 162.61 141.10 161.41 140.67 160.41 141.15 L 159.54 141.56 C 158.53 142.04 158.11 143.24 158.58 144.24 C 159.06 145.24 160.26 145.66 161.26 145.19 Z M 162.14 144.74 L 162.99 144.33 C 163.97 143.85 164.38 142.66 163.90 141.68 C 163.42 140.69 162.23 140.28 161.25 140.76 L 160.40 141.18 C 159.41 141.66 159.01 142.85 159.49 143.83 C 159.97 144.82 161.15 145.22 162.14 144.74 Z M 162.99 144.30 L 163.88 143.86 C 164.85 143.37 165.25 142.20 164.76 141.23 C 164.28 140.26 163.10 139.87 162.14 140.35 L 161.24 140.79 C 160.28 141.28 159.88 142.45 160.36 143.42 C 160.85 144.39 162.02 144.78 162.99 144.30 Z M 163.88 143.83 L 164.81 143.36 C 165.76 142.88 166.14 141.72 165.66 140.76 C 165.18 139.81 164.02 139.43 163.06 139.91 L 162.14 140.37 C 161.18 140.86 160.80 142.02 161.28 142.97 C 161.76 143.93 162.93 144.31 163.88 143.83 Z M 164.80 143.34 L 165.66 142.91 C 166.60 142.43 166.97 141.27 166.49 140.33 C 166.01 139.39 164.86 139.01 163.92 139.50 L 163.07 139.93 C 162.12 140.41 161.75 141.56 162.23 142.51 C 162.71 143.45 163.86 143.82 164.80 143.34 Z M 165.66 142.88 L 166.57 142.41 C 167.49 141.93 167.86 140.79 167.37 139.86 C 166.89 138.93 165.75 138.57 164.82 139.05 L 163.91 139.52 C 162.98 140.00 162.62 141.15 163.11 142.07 C 163.59 143.00 164.73 143.37 165.66 142.88 Z M 166.58 142.39 L 167.49 141.90 C 168.41 141.41 168.75 140.27 168.26 139.36 C 167.78 138.44 166.64 138.10 165.72 138.59 L 164.81 139.08 C 163.89 139.56 163.55 140.70 164.04 141.62 C 164.52 142.53 165.66 142.87 166.58 142.39 Z M 167.51 141.86 L 168.41 141.36 C 169.31 140.86 169.63 139.73 169.13 138.84 C 168.63 137.94 167.51 137.62 166.61 138.12 L 165.71 138.62 C 164.82 139.12 164.49 140.25 164.99 141.14 C 165.49 142.03 166.62 142.36 167.51 141.86 Z M 168.42 141.31 L 169.30 140.80 C 170.17 140.30 170.46 139.19 169.96 138.32 C 169.46 137.45 168.35 137.16 167.48 137.66 L 166.60 138.17 C 165.73 138.67 165.44 139.78 165.94 140.65 C 166.44 141.52 167.56 141.81 168.42 141.31 Z M 169.30 140.76 L 170.15 140.25 C 170.99 139.75 171.27 138.66 170.77 137.81 C 170.26 136.97 169.17 136.69 168.33 137.20 L 167.48 137.71 C 166.64 138.21 166.36 139.30 166.86 140.14 C 167.37 140.98 168.46 141.26 169.30 140.76 Z M 170.14 140.21 L 170.98 139.70 C 171.80 139.20 172.06 138.13 171.57 137.31 C 171.07 136.49 170.00 136.23 169.18 136.73 L 168.34 137.24 C 167.52 137.73 167.26 138.80 167.76 139.62 C 168.25 140.44 169.32 140.70 170.14 140.21 Z M 170.97 139.68 L 171.14 139.57 C 171.95 139.08 172.21 138.03 171.71 137.22 C 171.22 136.41 170.17 136.16 169.36 136.65 L 169.19 136.75 C 168.38 137.24 168.13 138.30 168.62 139.10 C 169.11 139.91 170.16 140.17 170.97 139.68 Z"
      fill="black"
      fill-rule="nonzero" /><path d="M 150.91 110.85 L 150.94 109.51 C 150.96 108.59 150.23 107.82 149.30 107.80 C 148.37 107.77 147.60 108.51 147.58 109.44 L 147.55 110.78 C 147.53 111.71 148.27 112.48 149.19 112.50 C 150.12 112.52 150.89 111.78 150.91 110.85 Z M 151.08 109.52 L 151.11 108.43 C 151.13 107.43 150.34 106.59 149.33 106.57 C 148.32 106.54 147.49 107.34 147.46 108.35 L 147.44 109.43 C 147.41 110.44 148.21 111.28 149.22 111.30 C 150.22 111.33 151.06 110.53 151.08 109.52 Z M 151.25 108.46 L 151.27 107.87 C 151.30 106.79 150.45 105.88 149.37 105.85 C 148.29 105.81 147.38 106.66 147.34 107.74 L 147.32 108.33 C 147.29 109.41 148.14 110.32 149.22 110.35 C 150.30 110.39 151.21 109.54 151.25 108.46 Z M 147.24 107.87 L 147.26 108.33 C 147.29 109.47 148.24 110.37 149.38 110.34 C 150.52 110.30 151.42 109.35 151.38 108.21 L 151.37 107.75 C 151.34 106.61 150.38 105.71 149.24 105.74 C 148.10 105.78 147.21 106.73 147.24 107.87 Z M 147.20 108.27 L 147.20 109.56 C 147.20 110.73 148.15 111.68 149.32 111.68 C 150.49 111.68 151.44 110.73 151.44 109.55 L 151.44 108.27 C 151.44 107.10 150.49 106.15 149.32 106.15 C 148.15 106.15 147.20 107.10 147.20 108.27 Z M 147.17 109.56 L 147.17 110.55 C 147.17 111.74 148.13 112.70 149.32 112.70 C 150.51 112.70 151.47 111.74 151.47 110.55 L 151.47 109.56 C 151.47 108.37 150.51 107.41 149.32 107.41 C 148.13 107.41 147.17 108.37 147.17 109.56 Z M 147.16 110.55 L 147.16 111.55 C 147.16 112.74 148.13 113.70 149.32 113.70 C 150.51 113.70 151.48 112.74 151.48 111.55 L 151.48 110.55 C 151.48 109.36 150.51 108.39 149.32 108.39 C 148.13 108.39 147.16 109.36 147.16 110.55 Z M 147.15 111.55 L 147.15 112.51 C 147.15 113.71 148.12 114.68 149.32 114.68 C 150.52 114.68 151.49 113.71 151.49 112.51 L 151.49 111.55 C 151.49 110.35 150.52 109.38 149.32 109.38 C 148.12 109.38 147.15 110.35 147.15 111.55 Z M 147.15 112.51 L 147.15 113.50 C 147.15 114.70 148.12 115.67 149.32 115.67 C 150.52 115.67 151.49 114.70 151.49 113.50 L 151.49 112.51 C 151.49 111.31 150.52 110.34 149.32 110.34 C 148.12 110.34 147.15 111.31 147.15 112.51 Z M 147.14 113.50 L 147.14 114.54 C 147.14 115.74 148.12 116.72 149.32 116.72 C 150.52 116.72 151.50 115.74 151.50 114.54 L 151.50 113.50 C 151.50 112.30 150.52 111.32 149.32 111.32 C 148.12 111.32 147.14 112.30 147.14 113.50 Z M 147.14 114.54 L 147.14 115.51 C 147.14 116.71 148.12 117.69 149.32 117.69 C 150.52 117.69 151.50 116.71 151.50 115.51 L 151.50 114.54 C 151.50 113.34 150.52 112.36 149.32 112.36 C 148.12 112.36 147.14 113.34 147.14 114.54 Z M 147.14 115.51 L 147.14 116.49 C 147.14 117.69 148.12 118.67 149.32 118.67 C 150.53 118.67 151.50 117.69 151.50 116.49 L 151.50 115.51 C 151.50 114.30 150.53 113.32 149.32 113.32 C 148.12 113.32 147.14 114.30 147.14 115.51 Z M 147.14 116.49 L 147.14 117.52 C 147.14 118.73 148.12 119.70 149.32 119.70 C 150.53 119.70 151.50 118.73 151.50 117.52 L 151.50 116.49 C 151.50 115.28 150.53 114.31 149.32 114.31 C 148.12 114.31 147.14 115.28 147.14 116.49 Z M 147.14 117.52 L 147.14 118.51 C 147.14 119.71 148.12 120.69 149.32 120.69 C 150.53 120.69 151.50 119.71 151.50 118.51 L 151.50 117.52 C 151.50 116.32 150.53 115.34 149.32 115.34 C 148.12 115.34 147.14 116.32 147.14 117.52 Z M 147.14 118.51 L 147.14 119.46 C 147.14 120.66 148.11 121.64 149.32 121.64 C 150.53 121.64 151.50 120.66 151.50 119.46 L 151.50 118.51 C 151.50 117.30 150.53 116.32 149.32 116.32 C 148.11 116.32 147.14 117.30 147.14 118.51 Z M 147.14 119.46 L 147.14 120.46 C 147.14 121.66 148.11 122.64 149.32 122.64 C 150.53 122.64 151.51 121.66 151.51 120.46 L 151.51 119.46 C 151.51 118.25 150.53 117.27 149.32 117.27 C 148.11 117.27 147.14 118.25 147.14 119.46 Z M 147.14 120.46 L 147.14 121.51 C 147.14 122.72 148.11 123.70 149.32 123.70 C 150.53 123.70 151.51 122.72 151.51 121.51 L 151.51 120.46 C 151.51 119.25 150.53 118.27 149.32 118.27 C 148.11 118.27 147.14 119.25 147.14 120.46 Z M 147.14 121.51 L 147.14 122.51 C 147.14 123.72 148.11 124.70 149.32 124.70 C 150.53 124.70 151.51 123.72 151.51 122.51 L 151.51 121.51 C 151.51 120.30 150.53 119.33 149.32 119.33 C 148.11 119.33 147.14 120.30 147.14 121.51 Z M 147.14 122.51 L 147.13 123.46 C 147.13 124.67 148.11 125.65 149.32 125.65 C 150.52 125.65 151.50 124.68 151.50 123.47 L 151.51 122.51 C 151.51 121.31 150.53 120.33 149.32 120.33 C 148.12 120.32 147.14 121.30 147.14 122.51 Z M 147.14 123.46 L 147.13 124.45 C 147.13 125.66 148.10 126.64 149.31 126.64 C 150.51 126.65 151.50 125.67 151.50 124.47 L 151.50 123.48 C 151.51 122.27 150.53 121.29 149.33 121.28 C 148.12 121.28 147.14 122.25 147.14 123.46 Z M 147.13 124.44 L 147.12 125.47 C 147.11 126.67 148.08 127.66 149.29 127.67 C 150.50 127.68 151.48 126.71 151.49 125.50 L 151.50 124.48 C 151.51 123.27 150.54 122.29 149.33 122.28 C 148.13 122.27 147.14 123.24 147.13 124.44 Z M 147.12 125.45 L 147.11 126.51 C 147.09 127.71 148.06 128.70 149.26 128.72 C 150.47 128.74 151.46 127.77 151.48 126.57 L 151.49 125.52 C 151.51 124.31 150.54 123.32 149.34 123.30 C 148.13 123.29 147.14 124.25 147.12 125.45 Z M 147.11 126.49 L 147.09 127.47 C 147.07 128.68 148.02 129.67 149.23 129.70 C 150.43 129.72 151.43 128.76 151.45 127.56 L 151.47 126.58 C 151.50 125.38 150.54 124.38 149.34 124.35 C 148.13 124.33 147.14 125.29 147.11 126.49 Z M 147.09 127.46 L 147.07 128.42 C 147.04 129.63 147.99 130.63 149.19 130.66 C 150.40 130.69 151.40 129.74 151.43 128.54 L 151.45 127.57 C 151.48 126.37 150.53 125.37 149.33 125.34 C 148.12 125.31 147.12 126.26 147.09 127.46 Z M 147.07 128.42 L 147.04 129.40 C 147.01 130.61 147.96 131.61 149.16 131.64 C 150.36 131.68 151.36 130.73 151.40 129.53 L 151.43 128.54 C 151.46 127.34 150.51 126.34 149.31 126.30 C 148.11 126.27 147.10 127.22 147.07 128.42 Z M 147.04 129.40 L 147.02 130.41 C 146.98 131.61 147.93 132.61 149.13 132.65 C 150.33 132.68 151.33 131.74 151.37 130.54 L 151.40 129.53 C 151.43 128.33 150.49 127.32 149.28 127.29 C 148.08 127.25 147.08 128.20 147.04 129.40 Z M 147.02 130.41 L 146.99 131.45 C 146.95 132.65 147.90 133.65 149.10 133.68 C 150.30 133.71 151.30 132.77 151.34 131.57 L 151.37 130.53 C 151.40 129.33 150.45 128.33 149.25 128.30 C 148.05 128.26 147.05 129.21 147.02 130.41 Z M 146.99 131.45 L 146.96 132.48 C 146.93 133.68 147.88 134.68 149.08 134.71 C 150.28 134.74 151.28 133.79 151.31 132.59 L 151.34 131.56 C 151.37 130.36 150.42 129.36 149.22 129.33 C 148.02 129.30 147.02 130.25 146.99 131.45 Z M 146.97 132.49 L 146.95 133.44 C 146.92 134.64 147.87 135.63 149.07 135.66 C 150.27 135.69 151.26 134.74 151.29 133.54 L 151.31 132.58 C 151.33 131.39 150.38 130.39 149.18 130.37 C 147.99 130.34 146.99 131.29 146.97 132.49 Z M 146.95 133.45 L 146.93 134.42 C 146.91 135.62 147.86 136.61 149.05 136.63 C 150.25 136.66 151.24 135.71 151.26 134.51 L 151.28 133.53 C 151.31 132.34 150.36 131.35 149.16 131.32 C 147.96 131.30 146.97 132.25 146.95 133.45 Z M 146.93 134.43 L 146.91 135.42 C 146.89 136.62 147.84 137.60 149.04 137.63 C 150.23 137.65 151.22 136.70 151.24 135.50 L 151.26 134.51 C 151.28 133.31 150.33 132.33 149.14 132.30 C 147.94 132.28 146.95 133.23 146.93 134.43 Z M 146.92 135.42 L 146.90 136.44 C 146.88 137.63 147.83 138.61 149.02 138.64 C 150.21 138.66 151.20 137.71 151.22 136.52 L 151.24 135.50 C 151.26 134.31 150.31 133.33 149.12 133.30 C 147.92 133.28 146.94 134.23 146.92 135.42 Z M 146.90 136.44 L 146.88 137.46 C 146.86 138.66 147.81 139.64 149.00 139.66 C 150.19 139.69 151.17 138.74 151.20 137.55 L 151.22 136.52 C 151.24 135.33 150.29 134.34 149.10 134.32 C 147.91 134.30 146.92 135.24 146.90 136.44 Z M 146.89 137.46 L 146.86 138.50 C 146.84 139.69 147.78 140.68 148.97 140.70 C 150.16 140.73 151.15 139.78 151.17 138.59 L 151.19 137.55 C 151.22 136.36 150.27 135.38 149.08 135.35 C 147.89 135.33 146.91 136.27 146.89 137.46 Z M 146.87 138.50 L 146.84 139.48 C 146.82 140.67 147.76 141.66 148.95 141.68 C 150.13 141.71 151.12 140.77 151.15 139.58 L 151.17 138.60 C 151.20 137.41 150.25 136.43 149.07 136.40 C 147.88 136.37 146.89 137.31 146.87 138.50 Z M 146.84 139.48 L 146.82 140.47 C 146.79 141.66 147.73 142.64 148.92 142.67 C 150.10 142.70 151.09 141.76 151.12 140.58 L 151.15 139.59 C 151.17 138.40 150.24 137.41 149.05 137.38 C 147.86 137.35 146.87 138.29 146.84 139.48 Z M 146.82 140.46 L 146.79 141.46 C 146.76 142.65 147.70 143.64 148.89 143.67 C 150.07 143.70 151.06 142.76 151.09 141.58 L 151.12 140.58 C 151.15 139.39 150.22 138.40 149.03 138.37 C 147.84 138.34 146.85 139.28 146.82 140.46 Z M 146.79 141.46 L 146.77 142.46 C 146.73 143.65 147.67 144.64 148.85 144.67 C 150.04 144.71 151.03 143.77 151.06 142.58 L 151.09 141.58 C 151.13 140.39 150.19 139.40 149.01 139.37 C 147.82 139.34 146.83 140.27 146.79 141.46 Z M 146.77 142.46 L 146.73 143.46 C 146.70 144.65 147.63 145.64 148.82 145.68 C 150.00 145.71 151.00 144.78 151.03 143.60 L 151.06 142.59 C 151.10 141.40 150.17 140.41 148.98 140.37 C 147.79 140.34 146.80 141.27 146.77 142.46 Z M 146.74 143.46 L 146.70 144.47 C 146.66 145.65 147.59 146.65 148.78 146.69 C 149.97 146.73 150.96 145.80 151.00 144.61 L 151.03 143.60 C 151.07 142.41 150.14 141.42 148.95 141.38 C 147.77 141.34 146.77 142.27 146.74 143.46 Z M 146.70 144.46 L 146.67 145.47 C 146.63 146.66 147.55 147.65 148.74 147.70 C 149.93 147.74 150.92 146.81 150.96 145.62 L 151.00 144.61 C 151.04 143.43 150.11 142.43 148.92 142.39 C 147.74 142.35 146.74 143.28 146.70 144.46 Z M 146.67 145.47 L 146.63 146.47 C 146.59 147.66 147.51 148.66 148.70 148.70 C 149.89 148.74 150.88 147.82 150.93 146.63 L 150.96 145.63 C 151.01 144.44 150.08 143.44 148.89 143.40 C 147.71 143.36 146.71 144.28 146.67 145.47 Z M 146.63 146.47 L 146.59 147.47 C 146.55 148.66 147.47 149.66 148.66 149.70 C 149.84 149.75 150.84 148.82 150.89 147.64 L 150.93 146.63 C 150.97 145.45 150.05 144.45 148.86 144.40 C 147.67 144.36 146.68 145.28 146.63 146.47 Z M 146.59 147.47 L 146.55 148.47 C 146.51 149.66 147.43 150.66 148.62 150.70 C 149.80 150.75 150.80 149.83 150.85 148.64 L 150.89 147.64 C 150.93 146.45 150.01 145.45 148.82 145.41 C 147.64 145.36 146.64 146.28 146.59 147.47 Z M 146.55 148.47 L 146.51 149.47 C 146.46 150.65 147.39 151.65 148.57 151.70 C 149.76 151.75 150.76 150.83 150.81 149.64 L 150.85 148.64 C 150.90 147.46 149.97 146.46 148.79 146.41 C 147.60 146.36 146.60 147.28 146.55 148.47 Z M 146.51 149.47 L 146.47 150.46 C 146.42 151.65 147.34 152.65 148.53 152.70 C 149.72 152.75 150.72 151.83 150.77 150.64 L 150.81 149.64 C 150.86 148.46 149.93 147.46 148.75 147.41 C 147.56 147.36 146.56 148.28 146.51 149.47 Z M 146.47 150.46 L 146.43 151.46 C 146.38 152.64 147.30 153.65 148.49 153.69 C 149.68 153.74 150.68 152.82 150.73 151.64 L 150.77 150.64 C 150.82 149.46 149.89 148.45 148.71 148.41 C 147.52 148.36 146.52 149.28 146.47 150.46 Z M 146.43 151.46 L 146.39 152.45 C 146.34 153.64 147.26 154.64 148.45 154.69 C 149.63 154.73 150.64 153.81 150.68 152.63 L 150.72 151.64 C 150.77 150.45 149.85 149.45 148.67 149.40 C 147.48 149.35 146.48 150.27 146.43 151.46 Z M 146.39 152.45 L 146.35 153.44 C 146.30 154.63 147.22 155.63 148.41 155.67 C 149.59 155.72 150.59 154.80 150.64 153.62 L 150.68 152.63 C 150.73 151.44 149.81 150.44 148.62 150.39 C 147.44 150.34 146.44 151.27 146.39 152.45 Z M 146.35 153.44 L 146.31 154.43 C 146.26 155.61 147.18 156.61 148.37 156.66 C 149.55 156.71 150.55 155.79 150.60 154.61 L 150.64 153.62 C 150.69 152.43 149.77 151.43 148.58 151.38 C 147.40 151.34 146.40 152.26 146.35 153.44 Z M 146.31 154.43 L 146.27 155.42 C 146.23 156.61 147.15 157.60 148.33 157.65 C 149.51 157.70 150.51 156.78 150.56 155.60 L 150.60 154.60 C 150.65 153.42 149.73 152.42 148.54 152.38 C 147.36 152.33 146.36 153.25 146.31 154.43 Z M 146.28 155.42 L 146.24 156.42 C 146.19 157.60 147.11 158.60 148.29 158.65 C 149.47 158.70 150.47 157.78 150.52 156.59 L 150.56 155.60 C 150.60 154.41 149.68 153.42 148.50 153.37 C 147.32 153.32 146.32 154.24 146.28 155.42 Z M 146.24 156.42 L 146.20 157.43 C 146.15 158.61 147.07 159.60 148.25 159.65 C 149.43 159.70 150.43 158.78 150.47 157.60 L 150.51 156.59 C 150.56 155.41 149.64 154.42 148.46 154.37 C 147.28 154.32 146.28 155.24 146.24 156.42 Z M 146.20 157.43 L 146.16 158.44 C 146.11 159.62 147.03 160.62 148.21 160.67 C 149.39 160.71 150.38 159.79 150.43 158.61 L 150.47 157.60 C 150.52 156.42 149.60 155.42 148.42 155.38 C 147.24 155.33 146.25 156.25 146.20 157.43 Z M 146.16 158.44 L 146.12 159.46 C 146.07 160.64 146.99 161.63 148.17 161.68 C 149.35 161.73 150.34 160.81 150.39 159.63 L 150.43 158.61 C 150.48 157.43 149.56 156.44 148.38 156.39 C 147.20 156.35 146.21 157.27 146.16 158.44 Z M 146.12 159.46 L 146.08 160.48 C 146.04 161.66 146.95 162.65 148.13 162.70 C 149.31 162.74 150.30 161.83 150.34 160.65 L 150.38 159.63 C 150.43 158.46 149.52 157.46 148.34 157.42 C 147.16 157.37 146.17 158.29 146.12 159.46 Z M 146.09 160.48 L 146.05 161.51 C 146.00 162.68 146.91 163.67 148.09 163.72 C 149.26 163.76 150.25 162.85 150.30 161.68 L 150.34 160.65 C 150.39 159.48 149.47 158.49 148.30 158.44 C 147.12 158.40 146.14 159.31 146.09 160.48 Z M 146.05 161.50 L 146.01 162.52 C 145.96 163.69 146.87 164.68 148.05 164.73 C 149.22 164.78 150.20 163.86 150.25 162.69 L 150.29 161.68 C 150.34 160.51 149.43 159.52 148.26 159.47 C 147.09 159.42 146.10 160.33 146.05 161.50 Z M 146.02 162.52 L 145.97 163.52 C 145.93 164.69 146.83 165.68 148.00 165.73 C 149.17 165.77 150.16 164.87 150.21 163.70 L 150.25 162.69 C 150.30 161.53 149.39 160.54 148.22 160.49 C 147.05 160.44 146.06 161.35 146.02 162.52 Z M 145.98 163.52 L 145.94 164.50 C 145.89 165.67 146.79 166.65 147.96 166.70 C 149.13 166.75 150.11 165.85 150.16 164.68 L 150.20 163.70 C 150.25 162.53 149.35 161.55 148.18 161.50 C 147.01 161.45 146.03 162.35 145.98 163.52 Z M 145.94 164.50 L 145.90 165.45 C 145.85 166.62 146.75 167.60 147.92 167.65 C 149.08 167.70 150.06 166.80 150.11 165.64 L 150.16 164.68 C 150.21 163.52 149.30 162.54 148.14 162.49 C 146.98 162.43 145.99 163.34 145.94 164.50 Z M 145.91 165.45 L 145.86 166.52 C 145.81 167.68 146.70 168.66 147.86 168.71 C 149.02 168.77 150.01 167.87 150.06 166.71 L 150.11 165.64 C 150.16 164.48 149.26 163.50 148.10 163.44 C 146.94 163.39 145.96 164.29 145.91 165.45 Z M 145.87 166.51 L 145.82 167.57 C 145.76 168.73 146.65 169.71 147.81 169.77 C 148.97 169.82 149.95 168.93 150.00 167.77 L 150.05 166.71 C 150.11 165.56 149.21 164.57 148.06 164.52 C 146.90 164.47 145.92 165.36 145.87 166.51 Z M 145.82 167.57 L 145.77 168.59 C 145.72 169.74 146.61 170.72 147.76 170.77 C 148.91 170.83 149.89 169.94 149.95 168.79 L 149.99 167.77 C 150.05 166.62 149.16 165.64 148.01 165.59 C 146.86 165.53 145.88 166.42 145.82 167.57 Z M 145.78 168.59 L 145.73 169.56 C 145.68 170.71 146.56 171.68 147.71 171.74 C 148.86 171.80 149.83 170.91 149.89 169.76 L 149.94 168.79 C 149.99 167.64 149.11 166.67 147.96 166.61 C 146.81 166.55 145.84 167.44 145.78 168.59 Z M 145.74 169.56 L 145.70 170.50 C 145.64 171.64 146.52 172.62 147.67 172.67 C 148.81 172.73 149.78 171.85 149.84 170.70 L 149.88 169.76 C 149.94 168.62 149.06 167.65 147.91 167.59 C 146.77 167.54 145.80 168.42 145.74 169.56 Z M 145.70 170.50 L 145.66 171.44 C 145.60 172.57 146.48 173.54 147.62 173.60 C 148.76 173.65 149.73 172.77 149.78 171.63 L 149.83 170.70 C 149.88 169.56 149.00 168.59 147.86 168.54 C 146.73 168.48 145.76 169.36 145.70 170.50 Z M 145.67 171.44 L 145.62 172.51 C 145.57 173.65 146.45 174.61 147.58 174.66 C 148.71 174.71 149.67 173.83 149.72 172.70 L 149.77 171.63 C 149.82 170.50 148.95 169.54 147.82 169.48 C 146.68 169.43 145.72 170.31 145.67 171.44 Z M 145.64 172.52 L 145.59 173.55 C 145.54 174.68 146.42 175.63 147.54 175.67 C 148.66 175.72 149.61 174.85 149.66 173.73 L 149.71 172.69 C 149.76 171.57 148.88 170.62 147.76 170.57 C 146.64 170.52 145.69 171.39 145.64 172.52 Z M 145.61 173.56 L 145.57 174.55 C 145.52 175.66 146.39 176.60 147.51 176.65 C 148.62 176.69 149.56 175.83 149.61 174.71 L 149.65 173.72 C 149.69 172.61 148.82 171.67 147.71 171.62 C 146.59 171.58 145.65 172.44 145.61 173.56 Z M 145.58 174.55 L 145.55 175.50 C 145.51 176.60 146.37 177.54 147.48 177.58 C 148.58 177.62 149.51 176.76 149.55 175.65 L 149.59 174.71 C 149.63 173.60 148.77 172.67 147.66 172.63 C 146.56 172.59 145.63 173.45 145.58 174.55 Z M 145.57 175.51 L 145.53 176.48 C 145.49 177.58 146.35 178.50 147.45 178.54 C 148.55 178.57 149.47 177.71 149.50 176.62 L 149.54 175.64 C 149.57 174.55 148.72 173.63 147.62 173.59 C 146.52 173.55 145.60 174.41 145.57 175.51 Z M 145.55 176.50 L 145.52 177.52 C 145.50 178.61 146.35 179.51 147.44 179.54 C 148.52 179.57 149.43 178.71 149.46 177.63 L 149.48 176.60 C 149.51 175.52 148.66 174.61 147.57 174.58 C 146.49 174.56 145.58 175.41 145.55 176.50 Z M 145.55 177.55 L 145.53 178.54 C 145.52 179.61 146.38 180.49 147.46 180.51 C 148.53 180.52 149.41 179.66 149.42 178.58 L 149.44 177.60 C 149.45 176.52 148.59 175.64 147.51 175.63 C 146.44 175.62 145.56 176.48 145.55 177.55 Z M 145.56 178.58 L 145.57 179.55 C 145.58 180.62 146.45 181.47 147.51 181.45 C 148.58 181.44 149.43 180.57 149.41 179.51 L 149.40 178.54 C 149.39 177.48 148.52 176.63 147.46 176.64 C 146.39 176.65 145.54 177.52 145.56 178.58 Z M 145.59 179.61 L 145.63 180.58 C 145.67 181.63 146.56 182.45 147.61 182.41 C 148.66 182.37 149.48 181.48 149.43 180.43 L 149.39 179.45 C 149.35 178.40 148.46 177.59 147.41 177.63 C 146.36 177.67 145.55 178.56 145.59 179.61 Z M 145.65 180.63 L 145.71 181.62 C 145.78 182.66 146.68 183.45 147.72 183.38 C 148.76 183.31 149.55 182.41 149.48 181.37 L 149.41 180.38 C 149.35 179.34 148.45 178.55 147.40 178.62 C 146.36 178.69 145.58 179.59 145.65 180.63 Z M 145.73 181.65 L 145.81 182.65 C 145.90 183.69 146.81 184.45 147.84 184.36 C 148.87 184.28 149.64 183.37 149.55 182.34 L 149.46 181.34 C 149.38 180.31 148.47 179.54 147.44 179.63 C 146.41 179.72 145.64 180.62 145.73 181.65 Z M 145.83 182.67 L 145.93 183.68 C 146.02 184.70 146.93 185.45 147.95 185.36 C 148.97 185.26 149.72 184.35 149.63 183.33 L 149.53 182.32 C 149.44 181.30 148.53 180.55 147.51 180.65 C 146.48 180.74 145.73 181.65 145.83 182.67 Z M 145.93 183.68 L 145.96 183.94 C 146.06 184.96 146.96 185.71 147.98 185.61 C 149.00 185.51 149.74 184.61 149.64 183.59 L 149.62 183.33 C 149.52 182.31 148.62 181.56 147.60 181.66 C 146.58 181.76 145.84 182.67 145.93 183.68 Z"
      fill="black"
      fill-rule="nonzero" /><path d="M 147.78 152.94 L 147.12 153.70 C 146.52 154.39 146.59 155.44 147.28 156.04 C 147.98 156.64 149.02 156.57 149.63 155.88 L 150.29 155.12 C 150.89 154.43 150.82 153.38 150.13 152.78 C 149.43 152.18 148.38 152.25 147.78 152.94 Z M 147.05 153.65 L 146.40 154.40 C 145.77 155.13 145.85 156.24 146.58 156.87 C 147.31 157.50 148.41 157.42 149.04 156.69 L 149.70 155.93 C 150.33 155.20 150.25 154.10 149.52 153.47 C 148.79 152.84 147.68 152.91 147.05 153.65 Z M 146.32 154.35 L 145.68 155.11 C 145.02 155.88 145.11 157.04 145.88 157.70 C 146.65 158.36 147.81 158.27 148.47 157.50 L 149.11 156.74 C 149.77 155.97 149.68 154.81 148.91 154.15 C 148.14 153.49 146.98 153.58 146.32 154.35 Z M 145.61 155.08 L 144.96 155.85 C 144.28 156.66 144.39 157.87 145.20 158.55 C 146.00 159.22 147.21 159.12 147.89 158.31 L 148.54 157.53 C 149.21 156.72 149.11 155.52 148.30 154.84 C 147.49 154.16 146.28 154.27 145.61 155.08 Z M 144.92 155.85 L 144.26 156.65 C 143.58 157.49 143.70 158.71 144.53 159.39 C 145.36 160.07 146.59 159.95 147.27 159.12 L 147.93 158.31 C 148.61 157.48 148.49 156.25 147.65 155.57 C 146.82 154.89 145.60 155.02 144.92 155.85 Z M 144.24 156.67 L 143.61 157.46 C 142.94 158.30 143.08 159.52 143.92 160.19 C 144.76 160.87 145.98 160.73 146.65 159.89 L 147.28 159.10 C 147.96 158.26 147.82 157.04 146.98 156.37 C 146.14 155.69 144.91 155.83 144.24 156.67 Z M 143.60 157.47 L 143.01 158.22 C 142.35 159.07 142.49 160.30 143.34 160.96 C 144.19 161.62 145.41 161.48 146.08 160.63 L 146.67 159.88 C 147.33 159.03 147.18 157.80 146.34 157.14 C 145.49 156.48 144.26 156.62 143.60 157.47 Z M 143.00 158.24 L 142.38 159.04 C 141.72 159.89 141.88 161.12 142.74 161.77 C 143.59 162.43 144.81 162.27 145.47 161.42 L 146.09 160.62 C 146.75 159.76 146.59 158.54 145.73 157.88 C 144.88 157.22 143.65 157.38 143.00 158.24 Z M 142.37 159.05 L 141.77 159.83 C 141.12 160.69 141.29 161.91 142.14 162.57 C 143.00 163.22 144.23 163.05 144.88 162.20 L 145.48 161.41 C 146.13 160.55 145.96 159.33 145.11 158.68 C 144.25 158.02 143.03 158.19 142.37 159.05 Z M 141.78 159.83 L 141.18 160.60 C 140.53 161.46 140.69 162.68 141.54 163.34 C 142.40 163.99 143.62 163.83 144.28 162.98 L 144.87 162.20 C 145.53 161.35 145.37 160.12 144.51 159.47 C 143.66 158.81 142.44 158.97 141.78 159.83 Z M 141.20 160.58 L 140.61 161.33 C 139.94 162.18 140.09 163.40 140.94 164.07 C 141.78 164.74 143.01 164.59 143.68 163.74 L 144.26 163.00 C 144.93 162.15 144.78 160.92 143.94 160.26 C 143.09 159.59 141.86 159.74 141.20 160.58 Z M 140.62 161.31 L 140.01 162.08 C 139.33 162.92 139.46 164.15 140.30 164.82 C 141.14 165.50 142.37 165.37 143.04 164.53 L 143.66 163.76 C 144.34 162.92 144.21 161.69 143.37 161.02 C 142.53 160.34 141.30 160.47 140.62 161.31 Z M 140.02 162.06 L 139.36 162.86 C 138.67 163.69 138.79 164.92 139.62 165.61 C 140.45 166.29 141.68 166.18 142.37 165.35 L 143.03 164.55 C 143.72 163.71 143.60 162.48 142.77 161.80 C 141.94 161.11 140.71 161.23 140.02 162.06 Z M 139.37 162.85 L 138.73 163.62 C 138.03 164.44 138.14 165.67 138.96 166.36 C 139.79 167.06 141.02 166.95 141.71 166.13 L 142.36 165.36 C 143.05 164.54 142.94 163.31 142.12 162.61 C 141.30 161.92 140.07 162.03 139.37 162.85 Z M 138.74 163.61 L 138.10 164.36 C 137.40 165.18 137.49 166.41 138.31 167.10 C 139.13 167.80 140.36 167.71 141.05 166.89 L 141.70 166.14 C 142.40 165.32 142.30 164.09 141.48 163.39 C 140.67 162.69 139.44 162.79 138.74 163.61 Z M 138.11 164.35 L 137.44 165.12 C 136.74 165.93 136.83 167.16 137.64 167.86 C 138.45 168.56 139.68 168.47 140.38 167.66 L 141.04 166.90 C 141.75 166.09 141.66 164.86 140.85 164.16 C 140.04 163.45 138.81 163.54 138.11 164.35 Z M 137.45 165.11 L 136.78 165.88 C 136.07 166.69 136.16 167.91 136.96 168.62 C 137.77 169.32 138.99 169.24 139.70 168.44 L 140.37 167.67 C 141.08 166.86 141.00 165.64 140.19 164.93 C 139.39 164.22 138.16 164.31 137.45 165.11 Z M 136.79 165.88 L 136.13 166.62 C 135.42 167.42 135.49 168.65 136.29 169.36 C 137.09 170.07 138.32 169.99 139.03 169.19 L 139.69 168.44 C 140.40 167.64 140.32 166.42 139.52 165.71 C 138.72 165.00 137.50 165.07 136.79 165.88 Z M 136.14 166.62 L 135.47 167.36 C 134.76 168.16 134.83 169.38 135.62 170.09 C 136.42 170.80 137.64 170.73 138.35 169.94 L 139.02 169.19 C 139.73 168.40 139.66 167.18 138.86 166.47 C 138.07 165.76 136.85 165.82 136.14 166.62 Z M 135.48 167.36 L 134.81 168.10 C 134.10 168.89 134.16 170.11 134.95 170.83 C 135.74 171.54 136.96 171.48 137.67 170.69 L 138.34 169.94 C 139.06 169.15 138.99 167.93 138.20 167.22 C 137.41 166.51 136.19 166.57 135.48 167.36 Z M 134.82 168.10 L 134.14 168.84 C 133.43 169.63 133.49 170.84 134.27 171.56 C 135.06 172.27 136.27 172.22 136.99 171.43 L 137.66 170.69 C 138.38 169.90 138.32 168.69 137.54 167.97 C 136.75 167.26 135.53 167.31 134.82 168.10 Z M 134.16 168.84 L 133.48 169.58 C 132.76 170.35 132.81 171.57 133.59 172.29 C 134.37 173.00 135.58 172.95 136.30 172.17 L 136.98 171.43 C 137.70 170.66 137.65 169.44 136.87 168.72 C 136.09 168.01 134.87 168.06 134.16 168.84 Z M 133.49 169.57 L 132.81 170.30 C 132.08 171.07 132.12 172.28 132.89 173.00 C 133.66 173.72 134.87 173.68 135.60 172.91 L 136.28 172.18 C 137.00 171.41 136.96 170.20 136.19 169.48 C 135.42 168.76 134.21 168.80 133.49 169.57 Z M 132.83 170.29 L 132.14 171.01 C 131.41 171.77 131.44 172.97 132.19 173.70 C 132.95 174.43 134.16 174.40 134.89 173.64 L 135.58 172.92 C 136.30 172.16 136.28 170.96 135.52 170.23 C 134.76 169.50 133.55 169.53 132.83 170.29 Z M 132.16 171.00 L 131.45 171.71 C 130.72 172.46 130.73 173.66 131.47 174.40 C 132.22 175.13 133.42 175.12 134.15 174.38 L 134.86 173.66 C 135.60 172.91 135.59 171.71 134.84 170.97 C 134.10 170.24 132.90 170.25 132.16 171.00 Z M 131.48 171.70 L 130.75 172.41 C 130.01 173.14 130.00 174.34 130.74 175.08 C 131.47 175.83 132.66 175.84 133.41 175.10 L 134.13 174.39 C 134.87 173.66 134.88 172.46 134.15 171.72 C 133.42 170.98 132.22 170.97 131.48 171.70 Z M 130.78 172.40 L 130.06 173.09 C 129.31 173.81 129.29 175.00 130.00 175.75 C 130.72 176.50 131.91 176.52 132.66 175.80 L 133.38 175.12 C 134.13 174.40 134.16 173.21 133.44 172.46 C 132.72 171.71 131.53 171.68 130.78 172.40 Z M 130.08 173.08 L 129.37 173.75 C 128.61 174.45 128.57 175.64 129.28 176.39 C 129.99 177.15 131.18 177.19 131.93 176.48 L 132.64 175.81 C 133.40 175.11 133.44 173.92 132.73 173.17 C 132.02 172.41 130.84 172.37 130.08 173.08 Z M 129.39 173.74 L 128.63 174.44 C 127.87 175.14 127.82 176.32 128.51 177.07 C 129.21 177.83 130.38 177.88 131.14 177.19 L 131.91 176.49 C 132.67 175.79 132.72 174.61 132.02 173.86 C 131.33 173.10 130.15 173.05 129.39 173.74 Z M 128.65 174.44 L 127.90 175.11 C 127.14 175.79 127.08 176.96 127.76 177.72 C 128.44 178.48 129.61 178.54 130.37 177.86 L 131.12 177.19 C 131.88 176.51 131.94 175.34 131.26 174.58 C 130.58 173.82 129.41 173.76 128.65 174.44 Z M 127.93 175.11 L 127.20 175.74 C 126.43 176.41 126.36 177.57 127.03 178.33 C 127.69 179.10 128.85 179.17 129.62 178.51 L 130.35 177.87 C 131.11 177.20 131.18 176.04 130.52 175.28 C 129.85 174.51 128.69 174.44 127.93 175.11 Z M 127.22 175.74 L 126.49 176.37 C 125.73 177.02 125.64 178.17 126.29 178.93 C 126.94 179.70 128.09 179.79 128.86 179.14 L 129.59 178.51 C 130.35 177.86 130.45 176.71 129.79 175.94 C 129.14 175.18 127.99 175.09 127.22 175.74 Z M 126.53 176.35 L 125.78 176.97 C 125.01 177.60 124.89 178.74 125.53 179.51 C 126.16 180.28 127.30 180.39 128.07 179.76 L 128.82 179.15 C 129.59 178.52 129.70 177.38 129.07 176.61 C 128.44 175.83 127.30 175.72 126.53 176.35 Z M 125.83 176.94 L 125.02 177.57 C 124.24 178.17 124.09 179.30 124.69 180.08 C 125.30 180.86 126.42 181.01 127.21 180.41 L 128.02 179.78 C 128.80 179.18 128.95 178.06 128.34 177.27 C 127.74 176.49 126.62 176.34 125.83 176.94 Z M 125.08 177.55 L 124.22 178.17 C 123.42 178.74 123.24 179.85 123.81 180.64 C 124.38 181.44 125.49 181.62 126.28 181.05 L 127.15 180.43 C 127.94 179.86 128.12 178.75 127.55 177.95 C 126.98 177.16 125.88 176.98 125.08 177.55 Z M 124.31 178.13 L 123.41 178.70 C 122.59 179.22 122.35 180.30 122.87 181.12 C 123.39 181.94 124.47 182.18 125.29 181.66 L 126.19 181.08 C 127.01 180.57 127.25 179.48 126.73 178.67 C 126.21 177.85 125.13 177.61 124.31 178.13 Z M 123.58 178.63 L 122.69 179.07 C 121.84 179.50 121.49 180.53 121.91 181.39 C 122.33 182.24 123.37 182.59 124.22 182.17 L 125.12 181.73 C 125.97 181.31 126.32 180.27 125.90 179.41 C 125.48 178.56 124.44 178.21 123.58 178.63 Z M 123.07 178.96 L 122.18 179.17 C 121.26 179.38 120.69 180.30 120.90 181.21 C 121.12 182.13 122.03 182.70 122.95 182.49 L 123.84 182.28 C 124.76 182.07 125.33 181.15 125.12 180.24 C 124.90 179.32 123.99 178.75 123.07 178.96 Z M 122.92 179.20 L 121.96 179.00 C 121.06 178.80 120.18 179.37 119.98 180.27 C 119.79 181.17 120.36 182.05 121.25 182.25 L 122.21 182.46 C 123.11 182.65 123.99 182.08 124.19 181.18 C 124.38 180.28 123.81 179.40 122.92 179.20 Z M 122.45 179.24 L 121.62 178.74 C 120.86 178.27 119.87 178.51 119.40 179.27 C 118.93 180.03 119.17 181.03 119.93 181.49 L 120.76 182.00 C 121.52 182.47 122.52 182.23 122.99 181.47 C 123.45 180.70 123.21 179.71 122.45 179.24 Z M 121.70 178.81 L 121.62 178.76 C 120.90 178.25 119.91 178.43 119.40 179.14 C 118.90 179.86 119.07 180.86 119.79 181.36 L 119.86 181.41 C 120.58 181.92 121.57 181.75 122.08 181.03 C 122.59 180.31 122.41 179.32 121.70 178.81 Z"
      fill="black"
      fill-rule="nonzero" /><path d="M 148.64 156.74 L 149.22 157.63 C 149.77 158.48 150.92 158.72 151.77 158.16 C 152.62 157.61 152.86 156.47 152.30 155.61 L 151.72 154.72 C 151.16 153.87 150.02 153.63 149.17 154.19 C 148.32 154.74 148.08 155.88 148.64 156.74 Z M 149.11 157.71 L 149.68 158.57 C 150.28 159.49 151.51 159.74 152.42 159.14 C 153.33 158.53 153.59 157.31 152.98 156.39 L 152.41 155.53 C 151.81 154.62 150.58 154.36 149.67 154.97 C 148.76 155.57 148.51 156.80 149.11 157.71 Z M 149.57 158.67 L 150.12 159.48 C 150.77 160.45 152.09 160.70 153.06 160.05 C 154.03 159.39 154.29 158.08 153.63 157.10 L 153.09 156.30 C 152.43 155.33 151.12 155.07 150.14 155.73 C 149.17 156.38 148.92 157.70 149.57 158.67 Z M 150.04 159.58 L 150.60 160.37 C 151.31 161.38 152.70 161.62 153.72 160.91 C 154.73 160.20 154.97 158.80 154.26 157.79 L 153.71 157.00 C 152.99 155.99 151.60 155.75 150.59 156.46 C 149.58 157.17 149.33 158.57 150.04 159.58 Z M 150.60 160.45 L 151.22 161.27 C 151.98 162.28 153.41 162.48 154.42 161.72 C 155.43 160.96 155.63 159.52 154.87 158.52 L 154.25 157.70 C 153.49 156.69 152.06 156.49 151.05 157.25 C 150.04 158.01 149.84 159.45 150.60 160.45 Z M 151.27 161.34 L 151.88 162.08 C 152.68 163.06 154.12 163.21 155.10 162.41 C 156.07 161.61 156.22 160.17 155.42 159.19 L 154.82 158.45 C 154.02 157.47 152.58 157.32 151.60 158.12 C 150.62 158.92 150.47 160.36 151.27 161.34 Z M 151.92 162.13 L 152.53 162.84 C 153.36 163.80 154.80 163.90 155.76 163.07 C 156.71 162.25 156.82 160.80 155.99 159.85 L 155.38 159.14 C 154.55 158.18 153.11 158.08 152.15 158.91 C 151.20 159.73 151.09 161.18 151.92 162.13 Z M 152.56 162.87 L 153.20 163.59 C 154.04 164.53 155.49 164.60 156.43 163.76 C 157.37 162.92 157.45 161.47 156.61 160.53 L 155.97 159.82 C 155.12 158.88 153.68 158.80 152.74 159.64 C 151.80 160.48 151.72 161.93 152.56 162.87 Z M 153.22 163.61 L 153.92 164.37 C 154.78 165.29 156.22 165.36 157.15 164.50 C 158.08 163.65 158.14 162.20 157.29 161.27 L 156.59 160.51 C 155.73 159.58 154.29 159.52 153.36 160.38 C 152.43 161.23 152.37 162.68 153.22 163.61 Z M 153.94 164.38 L 154.64 165.13 C 155.50 166.05 156.95 166.10 157.87 165.23 C 158.79 164.37 158.83 162.93 157.97 162.01 L 157.27 161.26 C 156.41 160.34 154.96 160.29 154.04 161.15 C 153.12 162.02 153.08 163.46 153.94 164.38 Z M 154.66 165.14 L 155.33 165.84 C 156.20 166.75 157.64 166.79 158.55 165.92 C 159.46 165.05 159.49 163.61 158.63 162.70 L 157.96 162.00 C 157.09 161.09 155.65 161.05 154.74 161.92 C 153.83 162.79 153.79 164.23 154.66 165.14 Z M 155.35 165.86 L 156.05 166.58 C 156.92 167.48 158.36 167.50 159.26 166.62 C 160.16 165.75 160.18 164.31 159.31 163.41 L 158.61 162.69 C 157.73 161.79 156.29 161.77 155.39 162.64 C 154.49 163.52 154.47 164.96 155.35 165.86 Z M 156.07 166.59 L 156.80 167.33 C 157.69 168.21 159.12 168.21 160.01 167.33 C 160.90 166.45 160.90 165.01 160.01 164.13 L 159.28 163.39 C 158.40 162.51 156.96 162.50 156.08 163.39 C 155.19 164.27 155.19 165.71 156.07 166.59 Z M 156.83 167.34 L 157.55 168.04 C 158.44 168.91 159.87 168.89 160.74 168.00 C 161.61 167.11 161.59 165.67 160.70 164.80 L 159.99 164.11 C 159.09 163.24 157.66 163.26 156.79 164.15 C 155.92 165.04 155.94 166.47 156.83 167.34 Z M 157.58 168.06 L 158.30 168.74 C 159.20 169.59 160.62 169.55 161.48 168.64 C 162.33 167.74 162.29 166.32 161.38 165.46 L 160.67 164.79 C 159.76 163.93 158.34 163.98 157.49 164.88 C 156.63 165.78 156.68 167.21 157.58 168.06 Z M 158.33 168.75 L 159.07 169.43 C 159.99 170.26 161.40 170.20 162.23 169.28 C 163.07 168.37 163.00 166.95 162.09 166.12 L 161.35 165.45 C 160.44 164.61 159.02 164.68 158.19 165.59 C 157.35 166.50 157.42 167.92 158.33 168.75 Z M 159.11 169.45 L 159.88 170.12 C 160.80 170.93 162.21 170.84 163.02 169.92 C 163.83 168.99 163.74 167.58 162.82 166.77 L 162.05 166.10 C 161.13 165.29 159.72 165.38 158.91 166.30 C 158.09 167.23 158.19 168.64 159.11 169.45 Z M 159.92 170.14 L 160.68 170.78 C 161.61 171.57 163.01 171.46 163.80 170.52 C 164.59 169.59 164.47 168.19 163.54 167.40 L 162.78 166.75 C 161.84 165.96 160.44 166.08 159.65 167.02 C 158.86 167.95 158.98 169.35 159.92 170.14 Z M 160.72 170.80 L 161.49 171.42 C 162.43 172.19 163.82 172.05 164.59 171.11 C 165.35 170.17 165.21 168.78 164.27 168.01 L 163.50 167.39 C 162.56 166.62 161.17 166.76 160.40 167.70 C 159.64 168.64 159.78 170.03 160.72 170.80 Z M 161.53 171.43 L 162.32 172.05 C 163.27 172.80 164.64 172.64 165.38 171.69 C 166.13 170.74 165.97 169.37 165.02 168.62 L 164.23 168.00 C 163.28 167.26 161.91 167.42 161.17 168.37 C 160.42 169.32 160.58 170.69 161.53 171.43 Z M 162.35 172.06 L 163.15 172.67 C 164.11 173.40 165.47 173.22 166.19 172.27 C 166.92 171.32 166.74 169.96 165.79 169.23 L 164.98 168.62 C 164.03 167.89 162.67 168.07 161.95 169.02 C 161.22 169.98 161.40 171.33 162.35 172.06 Z M 163.19 172.68 L 164.00 173.28 C 164.95 173.99 166.30 173.79 167.01 172.84 C 167.71 171.88 167.51 170.54 166.56 169.83 L 165.75 169.23 C 164.80 168.52 163.45 168.72 162.75 169.67 C 162.04 170.62 162.24 171.97 163.19 172.68 Z M 164.04 173.28 L 164.86 173.87 C 165.81 174.56 167.14 174.34 167.82 173.39 C 168.51 172.44 168.30 171.11 167.35 170.42 L 166.53 169.83 C 165.57 169.14 164.25 169.36 163.56 170.31 C 162.87 171.26 163.09 172.59 164.04 173.28 Z M 164.90 173.86 L 165.72 174.44 C 166.67 175.11 167.97 174.88 168.64 173.93 C 169.31 172.98 169.08 171.67 168.13 171.01 L 167.31 170.43 C 166.36 169.76 165.05 169.99 164.38 170.94 C 163.72 171.89 163.95 173.20 164.90 173.86 Z M 165.76 174.44 L 166.58 175.00 C 167.52 175.64 168.81 175.40 169.46 174.45 C 170.10 173.51 169.86 172.22 168.91 171.57 L 168.09 171.01 C 167.15 170.37 165.86 170.61 165.21 171.56 C 164.57 172.50 164.81 173.79 165.76 174.44 Z M 166.62 174.99 L 167.44 175.54 C 168.38 176.16 169.65 175.90 170.28 174.96 C 170.90 174.02 170.64 172.75 169.70 172.12 L 168.87 171.58 C 167.93 170.95 166.66 171.21 166.04 172.16 C 165.42 173.10 165.67 174.37 166.62 174.99 Z M 167.48 175.53 L 168.35 176.08 C 169.29 176.68 170.54 176.41 171.14 175.47 C 171.74 174.53 171.46 173.29 170.52 172.69 L 169.66 172.13 C 168.72 171.53 167.47 171.81 166.87 172.74 C 166.27 173.68 166.55 174.93 167.48 175.53 Z M 168.40 176.08 L 169.26 176.60 C 170.19 177.18 171.41 176.89 171.99 175.95 C 172.56 175.02 172.27 173.80 171.34 173.22 L 170.48 172.70 C 169.54 172.12 168.32 172.41 167.75 173.35 C 167.18 174.28 167.47 175.50 168.40 176.08 Z M 169.31 176.60 L 170.16 177.10 C 171.09 177.64 172.29 177.33 172.83 176.40 C 173.38 175.47 173.06 174.27 172.14 173.73 L 171.28 173.23 C 170.36 172.69 169.16 173.00 168.62 173.93 C 168.07 174.86 168.38 176.05 169.31 176.60 Z M 170.22 177.09 L 171.07 177.56 C 172.00 178.08 173.17 177.74 173.68 176.81 C 174.19 175.89 173.86 174.72 172.93 174.21 L 172.08 173.73 C 171.15 173.22 169.98 173.56 169.47 174.48 C 168.96 175.41 169.29 176.58 170.22 177.09 Z M 171.13 177.56 L 172.04 178.03 C 172.96 178.50 174.10 178.14 174.58 177.22 C 175.06 176.30 174.70 175.16 173.77 174.68 L 172.87 174.21 C 171.95 173.73 170.81 174.09 170.33 175.02 C 169.85 175.94 170.21 177.08 171.13 177.56 Z M 172.10 178.01 L 172.99 178.45 C 173.91 178.90 175.01 178.52 175.46 177.60 C 175.91 176.69 175.53 175.58 174.61 175.13 L 173.72 174.70 C 172.80 174.25 171.69 174.63 171.25 175.54 C 170.80 176.46 171.18 177.56 172.10 178.01 Z M 173.04 178.43 L 173.93 178.85 C 174.84 179.27 175.91 178.88 176.34 177.97 C 176.76 177.06 176.36 175.99 175.46 175.57 L 174.56 175.15 C 173.66 174.73 172.58 175.12 172.16 176.03 C 171.74 176.93 172.13 178.01 173.04 178.43 Z M 173.97 178.82 L 174.85 179.22 C 175.75 179.62 176.79 179.22 177.19 178.33 C 177.59 177.44 177.20 176.39 176.30 175.99 L 175.42 175.59 C 174.53 175.19 173.48 175.59 173.08 176.48 C 172.68 177.37 173.08 178.42 173.97 178.82 Z M 174.90 179.20 L 175.78 179.58 C 176.67 179.95 177.69 179.54 178.06 178.66 C 178.44 177.78 178.03 176.76 177.15 176.39 L 176.26 176.01 C 175.38 175.63 174.36 176.04 173.98 176.92 C 173.61 177.80 174.02 178.82 174.90 179.20 Z M 175.85 179.57 L 176.78 179.93 C 177.65 180.27 178.64 179.83 178.98 178.96 C 179.32 178.09 178.88 177.10 178.01 176.76 L 177.08 176.40 C 176.21 176.06 175.22 176.49 174.88 177.37 C 174.54 178.24 174.98 179.22 175.85 179.57 Z M 176.86 179.92 L 177.85 180.25 C 178.72 180.55 179.66 180.08 179.96 179.22 C 180.25 178.35 179.79 177.40 178.92 177.11 L 177.93 176.77 C 177.06 176.47 176.12 176.94 175.82 177.81 C 175.52 178.68 175.99 179.62 176.86 179.92 Z M 177.93 180.25 L 178.86 180.52 C 179.73 180.77 180.63 180.27 180.89 179.40 C 181.14 178.54 180.64 177.63 179.77 177.38 L 178.84 177.11 C 177.97 176.86 177.06 177.36 176.81 178.23 C 176.56 179.09 177.06 180.00 177.93 180.25 Z M 178.92 180.52 L 179.87 180.76 C 180.73 180.98 181.61 180.45 181.83 179.59 C 182.05 178.72 181.53 177.84 180.66 177.62 L 179.71 177.38 C 178.84 177.16 177.97 177.69 177.75 178.55 C 177.53 179.42 178.05 180.30 178.92 180.52 Z M 179.90 180.75 L 180.89 180.98 C 181.75 181.18 182.61 180.64 182.81 179.77 C 183.01 178.91 182.47 178.05 181.61 177.85 L 180.62 177.63 C 179.76 177.43 178.90 177.97 178.70 178.83 C 178.50 179.69 179.04 180.56 179.90 180.75 Z M 180.91 180.97 L 181.92 181.19 C 182.78 181.37 183.63 180.82 183.81 179.97 C 184.00 179.11 183.45 178.26 182.59 178.08 L 181.58 177.86 C 180.72 177.68 179.88 178.22 179.69 179.08 C 179.51 179.94 180.06 180.78 180.91 180.97 Z M 181.93 181.18 L 182.64 181.32 C 183.49 181.50 184.33 180.96 184.51 180.10 C 184.68 179.25 184.14 178.41 183.28 178.23 L 182.58 178.09 C 181.73 177.91 180.89 178.45 180.71 179.31 C 180.53 180.16 181.08 181.00 181.93 181.18 Z"
      fill="black"
      fill-rule="nonzero" /></svg>