<svg xmlns="http://www.w3.org/2000/svg" width="300" height="300" viewBox="0 0 300 300">
<path d="M 153.57 111.07 L 153.36 111.97 C 153.13 112.97 153.75 113.97 154.75 114.20 C 155.75 114.43 156.74 113.81 156.98 112.81 L 157.19 111.91 C 157.42 110.91 156.80 109.91 155.80 109.68 C 154.80 109.45 153.81 110.07 153.57 111.07 Z M 153.35 111.88 L 153.08 112.83 C 152.80 113.83 153.38 114.88 154.39 115.16 C 155.39 115.44 156.43 114.86 156.72 113.86 L 156.99 112.91 C 157.27 111.90 156.69 110.86 155.68 110.57 C 154.68 110.29 153.63 110.87 153.35 111.88 Z M 153.10 112.68 L 152.73 113.69 C 152.36 114.68 152.87 115.79 153.87 116.15 C 154.86 116.52 155.97 116.01 156.33 115.01 L 156.70 114.00 C 157.07 113.01 156.56 111.90 155.56 111.54 C 154.57 111.17 153.46 111.68 153.10 112.68 Z M 152.77 113.56 L 152.36 114.48 C 151.93 115.45 152.36 116.59 153.33 117.03 C 154.31 117.46 155.45 117.02 155.88 116.05 L 156.29 115.14 C 156.73 114.17 156.29 113.02 155.32 112.59 C 154.34 112.15 153.20 112.59 152.77 113.56 Z M 152.40 114.41 L 151.94 115.34 C 151.47 116.29 151.86 117.44 152.81 117.91 C 153.76 118.38 154.91 117.99 155.38 117.04 L 155.84 116.12 C 156.31 115.17 155.92 114.02 154.97 113.55 C 154.02 113.08 152.87 113.46 152.40 114.41 Z M 151.97 115.31 L 151.51 116.19 C 151.02 117.12 151.38 118.27 152.31 118.76 C 153.25 119.25 154.40 118.89 154.89 117.96 L 155.35 117.08 C 155.84 116.15 155.48 114.99 154.55 114.50 C 153.62 114.01 152.46 114.37 151.97 115.31 Z M 151.53 116.17 L 151.02 117.11 C 150.52 118.03 150.86 119.18 151.79 119.68 C 152.71 120.18 153.86 119.84 154.36 118.92 L 154.87 117.98 C 155.37 117.06 155.03 115.90 154.10 115.40 C 153.18 114.90 152.03 115.25 151.53 116.17 Z M 151.03 117.09 L 150.55 117.96 C 150.04 118.88 150.37 120.04 151.29 120.55 C 152.20 121.05 153.36 120.72 153.87 119.81 L 154.36 118.93 C 154.86 118.02 154.53 116.86 153.62 116.35 C 152.70 115.84 151.54 116.17 151.03 117.09 Z M 150.56 117.94 L 150.10 118.73 C 149.58 119.65 149.90 120.81 150.81 121.33 C 151.73 121.85 152.89 121.53 153.41 120.62 L 153.86 119.83 C 154.38 118.91 154.07 117.75 153.15 117.23 C 152.24 116.71 151.08 117.03 150.56 117.94 Z M 150.11 118.71 L 149.61 119.57 C 149.08 120.48 149.39 121.64 150.30 122.17 C 151.21 122.71 152.38 122.40 152.91 121.49 L 153.40 120.64 C 153.94 119.73 153.63 118.56 152.72 118.03 C 151.81 117.50 150.64 117.80 150.11 118.71 Z M 149.62 119.55 L 149.11 120.42 C 148.57 121.32 148.87 122.50 149.77 123.03 C 150.68 123.57 151.85 123.27 152.39 122.37 L 152.90 121.50 C 153.44 120.60 153.14 119.42 152.24 118.89 C 151.33 118.35 150.16 118.65 149.62 119.55 Z M 149.11 120.41 L 148.59 121.27 C 148.05 122.17 148.34 123.34 149.24 123.89 C 150.14 124.43 151.32 124.14 151.86 123.24 L 152.38 122.38 C 152.93 121.48 152.64 120.30 151.73 119.76 C 150.83 119.21 149.66 119.50 149.11 120.41 Z M 148.60 121.25 L 148.08 122.11 C 147.52 123.01 147.81 124.19 148.71 124.74 C 149.61 125.29 150.78 125.00 151.33 124.10 L 151.86 123.25 C 152.41 122.35 152.13 121.17 151.23 120.62 C 150.33 120.07 149.15 120.35 148.60 121.25 Z M 148.08 122.10 L 147.55 122.95 C 147.00 123.84 147.27 125.02 148.16 125.58 C 149.06 126.14 150.24 125.86 150.80 124.97 L 151.33 124.12 C 151.88 123.22 151.61 122.04 150.71 121.48 C 149.82 120.93 148.64 121.20 148.08 122.10 Z M 147.56 122.94 L 147.02 123.78 C 146.46 124.67 146.72 125.85 147.62 126.42 C 148.51 126.98 149.69 126.72 150.25 125.83 L 150.79 124.98 C 151.35 124.09 151.09 122.91 150.20 122.34 C 149.31 121.78 148.12 122.04 147.56 122.94 Z M 147.03 123.78 L 146.49 124.62 C 145.92 125.51 146.18 126.69 147.07 127.26 C 147.96 127.83 149.15 127.56 149.71 126.67 L 150.25 125.83 C 150.82 124.94 150.56 123.76 149.67 123.19 C 148.78 122.62 147.59 122.89 147.03 123.78 Z M 146.49 124.62 L 145.95 125.46 C 145.39 126.35 145.65 127.54 146.54 128.10 C 147.43 128.67 148.62 128.41 149.18 127.51 L 149.72 126.67 C 150.28 125.78 150.02 124.60 149.13 124.03 C 148.24 123.46 147.05 123.73 146.49 124.62 Z M 145.95 125.46 L 145.41 126.30 C 144.85 127.20 145.11 128.38 146.00 128.95 C 146.90 129.52 148.08 129.25 148.65 128.36 L 149.18 127.52 C 149.75 126.62 149.49 125.44 148.59 124.87 C 147.70 124.30 146.52 124.57 145.95 125.46 Z M 145.42 126.29 L 144.88 127.13 C 144.30 128.02 144.56 129.21 145.45 129.78 C 146.34 130.36 147.53 130.10 148.10 129.21 L 148.64 128.37 C 149.22 127.48 148.96 126.29 148.07 125.72 C 147.18 125.15 145.99 125.40 145.42 126.29 Z M 144.89 127.11 L 144.36 127.91 C 143.77 128.79 144.01 129.98 144.89 130.57 C 145.78 131.16 146.97 130.92 147.55 130.04 L 148.09 129.23 C 148.68 128.35 148.44 127.16 147.55 126.57 C 146.67 125.98 145.48 126.22 144.89 127.11 Z M 144.38 127.88 L 143.80 128.71 C 143.20 129.59 143.42 130.78 144.29 131.38 C 145.17 131.98 146.36 131.76 146.96 130.89 L 147.54 130.06 C 148.14 129.19 147.92 127.99 147.04 127.39 C 146.17 126.79 144.98 127.01 144.38 127.88 Z M 143.82 128.69 L 143.22 129.52 C 142.61 130.39 142.81 131.59 143.67 132.20 C 144.54 132.82 145.74 132.62 146.35 131.75 L 146.95 130.92 C 147.56 130.06 147.36 128.86 146.50 128.24 C 145.64 127.62 144.44 127.82 143.82 128.69 Z M 143.23 129.49 L 142.63 130.31 C 142.00 131.17 142.18 132.38 143.04 133.01 C 143.90 133.64 145.11 133.46 145.74 132.60 L 146.34 131.78 C 146.97 130.92 146.79 129.72 145.93 129.08 C 145.07 128.45 143.86 128.64 143.23 129.49 Z M 142.64 130.28 L 142.03 131.08 C 141.38 131.94 141.55 133.16 142.40 133.81 C 143.26 134.45 144.48 134.29 145.13 133.43 L 145.73 132.63 C 146.38 131.78 146.22 130.56 145.36 129.91 C 144.51 129.26 143.29 129.43 142.64 130.28 Z M 142.03 131.05 L 141.28 132.02 C 140.61 132.87 140.76 134.10 141.62 134.77 C 142.47 135.44 143.71 135.28 144.37 134.43 L 145.13 133.46 C 145.79 132.61 145.64 131.38 144.78 130.71 C 143.93 130.04 142.70 130.20 142.03 131.05 Z M 141.03 132.37 L 140.70 133.05 C 140.23 134.04 140.65 135.23 141.65 135.70 C 142.64 136.17 143.83 135.75 144.30 134.76 L 144.62 134.08 C 145.10 133.08 144.67 131.90 143.68 131.42 C 142.69 130.95 141.50 131.37 141.03 132.37 Z M 142.73 135.91 L 143.41 135.84 C 144.52 135.71 145.32 134.70 145.19 133.59 C 145.06 132.48 144.06 131.68 142.95 131.81 L 142.27 131.89 C 141.16 132.02 140.36 133.02 140.49 134.13 C 140.62 135.24 141.62 136.04 142.73 135.91 Z M 143.64 135.83 L 144.74 135.58 C 145.85 135.33 146.54 134.23 146.29 133.12 C 146.04 132.01 144.94 131.31 143.83 131.56 L 142.72 131.81 C 141.61 132.07 140.92 133.17 141.17 134.28 C 141.42 135.39 142.53 136.08 143.64 135.83 Z M 143.85 135.62 L 144.73 135.80 C 145.86 136.04 146.97 135.32 147.21 134.19 C 147.45 133.06 146.72 131.95 145.60 131.71 L 144.72 131.53 C 143.59 131.29 142.48 132.01 142.24 133.14 C 142.00 134.27 142.72 135.38 143.85 135.62 Z M 143.30 134.76 L 143.73 135.55 C 144.28 136.57 145.56 136.96 146.58 136.41 C 147.61 135.86 148.00 134.58 147.45 133.55 L 147.02 132.76 C 146.47 131.73 145.19 131.35 144.16 131.90 C 143.14 132.45 142.75 133.73 143.30 134.76 Z M 143.48 134.84 L 143.64 135.97 C 143.80 137.13 144.88 137.94 146.04 137.78 C 147.20 137.61 148.01 136.54 147.85 135.38 L 147.69 134.25 C 147.53 133.09 146.45 132.28 145.29 132.44 C 144.13 132.61 143.32 133.68 143.48 134.84 Z M 143.61 135.78 L 143.66 136.76 C 143.72 137.94 144.73 138.85 145.91 138.79 C 147.09 138.72 147.99 137.72 147.93 136.54 L 147.88 135.56 C 147.82 134.38 146.81 133.47 145.63 133.54 C 144.45 133.60 143.55 134.61 143.61 135.78 Z M 143.65 136.69 L 143.67 137.70 C 143.69 138.89 144.67 139.83 145.86 139.81 C 147.04 139.79 147.99 138.81 147.96 137.62 L 147.94 136.61 C 147.92 135.42 146.94 134.48 145.75 134.50 C 144.57 134.52 143.62 135.50 143.65 136.69 Z M 143.66 137.67 L 143.66 138.68 C 143.66 139.87 144.63 140.84 145.82 140.83 C 147.02 140.83 147.98 139.86 147.98 138.67 L 147.97 137.66 C 147.97 136.47 147.00 135.50 145.81 135.51 C 144.62 135.51 143.65 136.48 143.66 137.67 Z M 143.65 138.67 L 143.65 139.66 C 143.65 140.85 144.62 141.82 145.82 141.82 C 147.01 141.83 147.98 140.86 147.98 139.66 L 147.98 138.68 C 147.98 137.48 147.01 136.51 145.82 136.51 C 144.62 136.51 143.65 137.48 143.65 138.67 Z M 143.65 139.65 L 143.64 140.63 C 143.64 141.83 144.61 142.81 145.80 142.81 C 147.00 142.82 147.98 141.85 147.98 140.65 L 147.99 139.67 C 147.99 138.47 147.02 137.50 145.83 137.49 C 144.63 137.49 143.65 138.45 143.65 139.65 Z M 143.64 140.62 L 143.63 141.64 C 143.62 142.84 144.58 143.82 145.78 143.84 C 146.98 143.85 147.96 142.89 147.97 141.69 L 147.99 140.67 C 148.00 139.47 147.04 138.48 145.84 138.47 C 144.64 138.46 143.65 139.42 143.64 140.62 Z M 143.63 141.62 L 143.61 142.58 C 143.58 143.78 144.54 144.78 145.74 144.80 C 146.95 144.82 147.94 143.87 147.96 142.67 L 147.98 141.71 C 148.00 140.50 147.05 139.51 145.84 139.49 C 144.64 139.47 143.65 140.42 143.63 141.62 Z M 143.60 142.55 L 143.57 143.54 C 143.53 144.74 144.48 145.75 145.68 145.79 C 146.89 145.83 147.90 144.88 147.94 143.68 L 147.97 142.69 C 148.01 141.49 147.06 140.48 145.85 140.44 C 144.65 140.40 143.64 141.35 143.60 142.55 Z M 143.56 143.50 L 143.51 144.52 C 143.45 145.73 144.38 146.76 145.59 146.82 C 146.80 146.88 147.83 145.95 147.89 144.74 L 147.94 143.72 C 148.00 142.51 147.07 141.48 145.86 141.42 C 144.65 141.36 143.63 142.29 143.56 143.50 Z M 143.51 144.47 L 143.43 145.50 C 143.34 146.71 144.25 147.77 145.46 147.86 C 146.67 147.95 147.72 147.04 147.81 145.83 L 147.89 144.79 C 147.98 143.58 147.08 142.53 145.87 142.44 C 144.66 142.35 143.60 143.26 143.51 144.47 Z M 143.43 145.44 L 143.33 146.43 C 143.21 147.64 144.09 148.72 145.30 148.84 C 146.51 148.97 147.59 148.08 147.71 146.87 L 147.81 145.89 C 147.94 144.68 147.06 143.60 145.85 143.48 C 144.64 143.35 143.56 144.23 143.43 145.44 Z M 143.33 146.38 L 143.21 147.37 C 143.06 148.58 143.92 149.68 145.12 149.83 C 146.33 149.98 147.44 149.13 147.59 147.92 L 147.71 146.92 C 147.86 145.72 147.01 144.61 145.80 144.46 C 144.59 144.31 143.49 145.17 143.33 146.38 Z M 143.21 147.32 L 143.07 148.32 C 142.89 149.53 143.73 150.65 144.94 150.83 C 146.14 151.00 147.27 150.16 147.44 148.96 L 147.59 147.96 C 147.76 146.75 146.92 145.63 145.72 145.45 C 144.51 145.28 143.39 146.12 143.21 147.32 Z M 143.07 148.29 L 142.91 149.29 C 142.71 150.50 143.53 151.64 144.74 151.83 C 145.95 152.03 147.08 151.21 147.28 150.00 L 147.44 148.99 C 147.63 147.78 146.81 146.65 145.61 146.45 C 144.40 146.26 143.26 147.08 143.07 148.29 Z M 142.91 149.26 L 142.72 150.31 C 142.51 151.52 143.32 152.67 144.52 152.88 C 145.73 153.09 146.88 152.28 147.09 151.08 L 147.27 150.03 C 147.49 148.82 146.68 147.68 145.47 147.46 C 144.27 147.25 143.12 148.06 142.91 149.26 Z M 142.73 150.29 L 142.54 151.30 C 142.31 152.50 143.10 153.66 144.31 153.89 C 145.51 154.11 146.67 153.32 146.90 152.12 L 147.09 151.11 C 147.31 149.90 146.52 148.74 145.32 148.52 C 144.11 148.29 142.95 149.08 142.73 150.29 Z M 142.54 151.27 L 142.35 152.21 C 142.11 153.42 142.89 154.59 144.09 154.83 C 145.29 155.07 146.46 154.29 146.70 153.09 L 146.89 152.14 C 147.13 150.94 146.36 149.77 145.15 149.53 C 143.95 149.29 142.78 150.07 142.54 151.27 Z M 142.35 152.18 L 142.16 153.11 C 141.90 154.31 142.66 155.49 143.86 155.75 C 145.06 156.01 146.24 155.24 146.50 154.04 L 146.70 153.11 C 146.96 151.91 146.19 150.73 144.99 150.48 C 143.79 150.22 142.61 150.98 142.35 152.18 Z M 142.17 153.06 L 141.94 154.01 C 141.66 155.20 142.40 156.40 143.59 156.69 C 144.78 156.97 145.98 156.23 146.27 155.04 L 146.49 154.09 C 146.78 152.90 146.04 151.70 144.84 151.42 C 143.65 151.13 142.45 151.87 142.17 153.06 Z M 141.96 153.93 L 141.70 154.87 C 141.38 156.06 142.07 157.28 143.26 157.61 C 144.44 157.93 145.67 157.24 145.99 156.05 L 146.25 155.11 C 146.58 153.93 145.88 152.70 144.69 152.38 C 143.51 152.05 142.28 152.75 141.96 153.93 Z M 141.72 154.80 L 141.42 155.77 C 141.06 156.94 141.72 158.19 142.89 158.55 C 144.07 158.91 145.31 158.26 145.68 157.08 L 145.97 156.12 C 146.34 154.94 145.68 153.70 144.50 153.33 C 143.33 152.97 142.08 153.63 141.72 154.80 Z M 141.43 155.72 L 141.12 156.67 C 140.73 157.84 141.36 159.10 142.53 159.49 C 143.70 159.88 144.96 159.24 145.35 158.08 L 145.66 157.13 C 146.05 155.96 145.42 154.70 144.25 154.31 C 143.08 153.92 141.82 154.55 141.43 155.72 Z M 141.13 156.64 L 140.79 157.62 C 140.38 158.78 140.99 160.06 142.16 160.46 C 143.32 160.87 144.59 160.25 145.00 159.09 L 145.34 158.11 C 145.74 156.95 145.13 155.67 143.97 155.27 C 142.80 154.86 141.53 155.48 141.13 156.64 Z M 140.80 157.59 L 140.45 158.53 C 140.03 159.69 140.62 160.97 141.78 161.39 C 142.94 161.82 144.22 161.22 144.64 160.06 L 144.99 159.12 C 145.41 157.96 144.82 156.68 143.66 156.26 C 142.50 155.84 141.22 156.43 140.80 157.59 Z M 140.47 158.49 L 140.08 159.48 C 139.63 160.63 140.20 161.93 141.35 162.37 C 142.50 162.82 143.79 162.25 144.24 161.10 L 144.63 160.11 C 145.07 158.96 144.50 157.66 143.35 157.22 C 142.21 156.77 140.91 157.34 140.47 158.49 Z M 140.10 159.44 L 139.72 160.35 C 139.25 161.50 139.79 162.80 140.93 163.27 C 142.07 163.74 143.38 163.20 143.85 162.06 L 144.22 161.14 C 144.70 160.00 144.15 158.70 143.01 158.23 C 141.87 157.76 140.57 158.30 140.10 159.44 Z M 139.73 160.33 L 139.36 161.20 C 138.87 162.33 139.40 163.64 140.54 164.13 C 141.67 164.61 142.99 164.08 143.47 162.95 L 143.84 162.08 C 144.32 160.95 143.79 159.64 142.66 159.15 C 141.52 158.67 140.21 159.20 139.73 160.33 Z M 139.36 161.20 L 138.98 162.08 C 138.50 163.22 139.03 164.53 140.17 165.01 C 141.30 165.49 142.61 164.96 143.10 163.83 L 143.47 162.94 C 143.95 161.81 143.42 160.50 142.29 160.01 C 141.15 159.53 139.84 160.06 139.36 161.20 Z M 138.98 162.08 L 138.59 163.00 C 138.11 164.14 138.64 165.45 139.78 165.93 C 140.91 166.41 142.22 165.88 142.71 164.75 L 143.10 163.83 C 143.58 162.69 143.05 161.38 141.91 160.90 C 140.77 160.42 139.46 160.95 138.98 162.08 Z M 138.60 162.99 L 138.19 163.93 C 137.70 165.06 138.22 166.38 139.36 166.87 C 140.49 167.36 141.80 166.84 142.29 165.70 L 142.70 164.76 C 143.19 163.63 142.67 162.31 141.54 161.82 C 140.40 161.33 139.09 161.85 138.60 162.99 Z M 138.20 163.91 L 137.80 164.79 C 137.30 165.92 137.81 167.24 138.94 167.75 C 140.06 168.25 141.39 167.74 141.89 166.61 L 142.28 165.73 C 142.79 164.60 142.28 163.28 141.15 162.78 C 140.02 162.27 138.70 162.78 138.20 163.91 Z M 137.82 164.77 L 137.40 165.66 C 136.88 166.78 137.37 168.11 138.49 168.63 C 139.62 169.15 140.94 168.66 141.46 167.54 L 141.88 166.64 C 142.39 165.52 141.91 164.19 140.78 163.67 C 139.66 163.16 138.33 163.65 137.82 164.77 Z M 137.42 165.63 L 136.97 166.56 C 136.44 167.67 136.91 169.01 138.02 169.54 C 139.13 170.08 140.47 169.61 141.00 168.49 L 141.45 167.57 C 141.98 166.45 141.51 165.12 140.40 164.58 C 139.29 164.05 137.95 164.52 137.42 165.63 Z M 136.99 166.53 L 136.54 167.43 C 135.99 168.54 136.44 169.88 137.55 170.43 C 138.65 170.98 139.99 170.53 140.54 169.42 L 140.99 168.52 C 141.54 167.42 141.09 166.07 139.98 165.52 C 138.88 164.97 137.53 165.43 136.99 166.53 Z M 136.55 167.41 L 136.09 168.30 C 135.53 169.40 135.96 170.74 137.06 171.31 C 138.16 171.87 139.51 171.44 140.07 170.34 L 140.53 169.45 C 141.09 168.35 140.66 167.00 139.56 166.44 C 138.46 165.87 137.12 166.31 136.55 167.41 Z M 136.11 168.27 L 135.63 169.17 C 135.06 170.26 135.47 171.61 136.56 172.19 C 137.65 172.77 139.01 172.35 139.59 171.26 L 140.06 170.37 C 140.64 169.27 140.22 167.92 139.13 167.34 C 138.04 166.76 136.69 167.18 136.11 168.27 Z M 135.65 169.14 L 135.17 170.02 C 134.57 171.10 134.97 172.46 136.05 173.06 C 137.14 173.65 138.49 173.25 139.09 172.17 L 139.57 171.29 C 140.17 170.20 139.77 168.84 138.68 168.25 C 137.60 167.66 136.24 168.05 135.65 169.14 Z M 135.18 169.99 L 134.67 170.88 C 134.06 171.96 134.44 173.32 135.51 173.93 C 136.58 174.55 137.95 174.17 138.56 173.10 L 139.07 172.20 C 139.68 171.13 139.31 169.76 138.23 169.15 C 137.16 168.54 135.79 168.91 135.18 169.99 Z M 134.69 170.85 L 134.18 171.71 C 133.55 172.78 133.91 174.15 134.97 174.78 C 136.03 175.41 137.40 175.05 138.03 173.99 L 138.54 173.13 C 139.17 172.07 138.82 170.69 137.76 170.07 C 136.69 169.44 135.32 169.79 134.69 170.85 Z M 134.20 171.68 L 133.69 172.51 C 133.05 173.56 133.37 174.94 134.43 175.59 C 135.48 176.23 136.86 175.90 137.50 174.85 L 138.01 174.02 C 138.66 172.97 138.33 171.59 137.28 170.95 C 136.23 170.30 134.85 170.63 134.20 171.68 Z M 133.71 172.47 L 133.17 173.33 C 132.50 174.37 132.81 175.75 133.85 176.42 C 134.89 177.08 136.27 176.78 136.94 175.74 L 137.48 174.88 C 138.15 173.84 137.84 172.46 136.80 171.80 C 135.76 171.13 134.38 171.43 133.71 172.47 Z M 133.19 173.29 L 132.63 174.13 C 131.95 175.15 132.22 176.54 133.25 177.23 C 134.27 177.91 135.66 177.64 136.35 176.61 L 136.91 175.78 C 137.60 174.75 137.32 173.36 136.29 172.68 C 135.27 171.99 133.88 172.27 133.19 173.29 Z M 132.67 174.08 L 132.10 174.88 C 131.39 175.89 131.63 177.28 132.64 178.00 C 133.65 178.71 135.04 178.47 135.75 177.46 L 136.32 176.66 C 137.03 175.65 136.79 174.26 135.78 173.55 C 134.77 172.84 133.38 173.08 132.67 174.08 Z M 132.14 174.83 L 131.57 175.59 C 130.83 176.58 131.03 177.98 132.02 178.72 C 133.00 179.46 134.40 179.26 135.14 178.27 L 135.71 177.51 C 136.45 176.53 136.25 175.13 135.27 174.39 C 134.28 173.65 132.88 173.85 132.14 174.83 Z M 131.63 175.53 L 131.02 176.27 C 130.24 177.23 130.39 178.63 131.34 179.41 C 132.30 180.18 133.70 180.04 134.48 179.08 L 135.09 178.34 C 135.86 177.38 135.72 175.98 134.76 175.20 C 133.81 174.42 132.40 174.57 131.63 175.53 Z M 131.09 176.20 L 130.40 176.97 C 129.58 177.89 129.67 179.30 130.58 180.11 C 131.50 180.93 132.91 180.85 133.73 179.93 L 134.41 179.16 C 135.23 178.24 135.15 176.83 134.23 176.01 C 133.31 175.20 131.90 175.28 131.09 176.20 Z M 130.46 176.91 L 129.76 177.64 C 128.90 178.52 128.93 179.93 129.81 180.78 C 130.70 181.64 132.10 181.61 132.96 180.73 L 133.66 179.99 C 134.52 179.11 134.49 177.70 133.61 176.85 C 132.72 176.00 131.32 176.02 130.46 176.91 Z M 129.82 177.58 L 129.09 178.28 C 128.21 179.12 128.18 180.53 129.03 181.41 C 129.87 182.30 131.28 182.33 132.16 181.48 L 132.89 180.78 C 133.77 179.94 133.80 178.53 132.96 177.65 C 132.11 176.76 130.71 176.73 129.82 177.58 Z M 129.18 178.21 L 128.40 178.88 C 127.48 179.68 127.38 181.08 128.18 182.00 C 128.98 182.92 130.38 183.02 131.30 182.22 L 132.07 181.55 C 133.00 180.75 133.10 179.36 132.30 178.43 C 131.50 177.51 130.10 177.41 129.18 178.21 Z M 128.53 178.79 L 127.73 179.39 C 126.76 180.12 126.56 181.51 127.29 182.48 C 128.03 183.45 129.41 183.65 130.38 182.91 L 131.18 182.31 C 132.15 181.58 132.34 180.20 131.61 179.23 C 130.88 178.25 129.50 178.06 128.53 178.79 Z M 127.95 179.27 L 126.95 179.86 C 125.91 180.47 125.57 181.81 126.18 182.85 C 126.79 183.89 128.13 184.23 129.17 183.62 L 130.16 183.03 C 131.20 182.42 131.55 181.08 130.94 180.04 C 130.32 179.00 128.98 178.66 127.95 179.27 Z M 127.35 179.71 L 126.39 180.05 C 125.27 180.44 124.67 181.66 125.06 182.78 C 125.45 183.90 126.67 184.49 127.80 184.10 L 128.76 183.77 C 129.88 183.38 130.48 182.15 130.09 181.03 C 129.70 179.91 128.48 179.32 127.35 179.71 Z M 127.17 179.97 L 126.36 179.94 C 125.20 179.90 124.22 180.81 124.18 181.97 C 124.14 183.13 125.05 184.11 126.21 184.15 L 127.02 184.18 C 128.18 184.22 129.15 183.31 129.20 182.15 C 129.24 180.99 128.33 180.01 127.17 179.97 Z M 127.58 180.47 L 126.93 179.94 C 126.06 179.22 124.78 179.34 124.06 180.21 C 123.35 181.08 123.47 182.36 124.34 183.08 L 124.99 183.62 C 125.86 184.33 127.14 184.21 127.86 183.34 C 128.57 182.47 128.45 181.19 127.58 180.47 Z M 127.42 180.75 L 127.02 179.81 C 126.60 178.82 125.46 178.36 124.48 178.78 C 123.49 179.20 123.03 180.33 123.45 181.32 L 123.85 182.26 C 124.27 183.25 125.40 183.71 126.39 183.29 C 127.37 182.88 127.83 181.74 127.42 180.75 Z M 127.04 180.21 L 126.84 179.18 C 126.64 178.19 125.68 177.54 124.68 177.73 C 123.68 177.93 123.03 178.89 123.23 179.89 L 123.43 180.92 C 123.62 181.92 124.59 182.57 125.59 182.37 C 126.59 182.18 127.24 181.21 127.04 180.21 Z M 126.79 179.38 L 126.70 178.42 C 126.61 177.45 125.76 176.74 124.79 176.82 C 123.82 176.91 123.11 177.76 123.19 178.73 L 123.28 179.69 C 123.36 180.66 124.22 181.38 125.19 181.29 C 126.16 181.21 126.87 180.35 126.79 179.38 Z M 126.63 178.56 L 126.62 177.54 C 126.61 176.61 125.85 175.86 124.92 175.87 C 123.98 175.88 123.24 176.64 123.25 177.58 L 123.26 178.59 C 123.27 179.53 124.03 180.27 124.97 180.26 C 125.90 180.25 126.64 179.49 126.63 178.56 Z M 126.56 177.63 L 126.61 176.61 C 126.65 175.71 125.96 174.95 125.06 174.91 C 124.17 174.86 123.40 175.56 123.36 176.45 L 123.31 177.48 C 123.27 178.37 123.96 179.14 124.86 179.18 C 125.75 179.22 126.52 178.53 126.56 177.63 Z M 126.57 176.67 L 126.66 175.70 C 126.73 174.82 126.09 174.05 125.21 173.97 C 124.33 173.89 123.56 174.54 123.48 175.42 L 123.40 176.39 C 123.32 177.27 123.97 178.04 124.84 178.12 C 125.72 178.19 126.49 177.55 126.57 176.67 Z M 126.64 175.73 L 126.76 174.73 C 126.85 173.87 126.23 173.08 125.36 172.98 C 124.49 172.88 123.71 173.51 123.61 174.38 L 123.50 175.38 C 123.40 176.25 124.02 177.03 124.89 177.13 C 125.76 177.23 126.54 176.60 126.64 175.73 Z M 126.74 174.75 L 126.87 173.74 C 126.98 172.88 126.37 172.09 125.51 171.98 C 124.65 171.87 123.86 172.48 123.75 173.34 L 123.62 174.36 C 123.52 175.22 124.13 176.01 124.99 176.12 C 125.85 176.22 126.63 175.61 126.74 174.75 Z M 126.86 173.74 L 126.90 173.45 C 127.01 172.59 126.41 171.81 125.55 171.69 C 124.70 171.58 123.91 172.19 123.80 173.04 L 123.76 173.34 C 123.65 174.19 124.25 174.98 125.11 175.09 C 125.97 175.20 126.75 174.60 126.86 173.74 Z"
      fill="black"
      fill-rule="nonzero" /><path d="M 148.97 133.88 L 147.74 133.79 C 146.71 133.72 145.82 134.49 145.74 135.52 C 145.67 136.55 146.44 137.44 147.47 137.52 L 148.70 137.60 C 149.73 137.68 150.63 136.91 150.70 135.88 C 150.77 134.85 150.00 133.96 148.97 133.88 Z M 148.49 133.93 L 147.90 133.63 C 146.95 133.14 145.78 133.51 145.29 134.46 C 144.80 135.41 145.17 136.58 146.12 137.07 L 146.72 137.38 C 147.67 137.87 148.84 137.49 149.33 136.54 C 149.82 135.59 149.44 134.42 148.49 133.93 Z M 148.69 136.39 L 149.03 135.84 C 149.61 134.91 149.32 133.69 148.40 133.12 C 147.47 132.54 146.25 132.83 145.67 133.75 L 145.33 134.30 C 144.75 135.23 145.04 136.45 145.97 137.03 C 146.89 137.60 148.11 137.32 148.69 136.39 Z M 148.56 136.37 L 149.51 135.65 C 150.38 134.98 150.54 133.73 149.87 132.86 C 149.20 131.99 147.96 131.83 147.09 132.50 L 146.14 133.22 C 145.27 133.89 145.11 135.14 145.78 136.01 C 146.44 136.88 147.69 137.04 148.56 136.37 Z M 149.36 135.76 L 150.29 135.18 C 151.22 134.59 151.50 133.36 150.92 132.43 C 150.33 131.50 149.10 131.21 148.17 131.80 L 147.24 132.38 C 146.30 132.97 146.02 134.20 146.61 135.13 C 147.19 136.06 148.42 136.35 149.36 135.76 Z M 150.21 135.22 L 151.08 134.73 C 152.04 134.18 152.38 132.97 151.83 132.01 C 151.29 131.05 150.07 130.72 149.11 131.26 L 148.24 131.76 C 147.28 132.30 146.95 133.52 147.49 134.47 C 148.04 135.43 149.25 135.77 150.21 135.22 Z M 151.04 134.75 L 151.94 134.27 C 152.91 133.75 153.27 132.55 152.76 131.57 C 152.24 130.60 151.03 130.24 150.06 130.76 L 149.16 131.24 C 148.19 131.76 147.82 132.96 148.34 133.93 C 148.86 134.90 150.07 135.27 151.04 134.75 Z M 151.91 134.29 L 152.81 133.82 C 153.78 133.32 154.17 132.12 153.67 131.14 C 153.17 130.17 151.97 129.78 150.99 130.28 L 150.09 130.74 C 149.11 131.24 148.72 132.44 149.23 133.42 C 149.73 134.40 150.93 134.79 151.91 134.29 Z M 152.78 133.83 L 153.70 133.37 C 154.68 132.88 155.08 131.69 154.59 130.71 C 154.10 129.73 152.91 129.33 151.93 129.82 L 151.01 130.28 C 150.03 130.77 149.63 131.96 150.12 132.94 C 150.61 133.92 151.80 134.32 152.78 133.83 Z M 153.67 133.37 L 154.57 132.94 C 155.55 132.46 155.96 131.28 155.48 130.30 C 155.00 129.32 153.82 128.91 152.84 129.39 L 151.95 129.82 C 150.97 130.30 150.56 131.48 151.04 132.46 C 151.51 133.44 152.70 133.85 153.67 133.37 Z M 154.55 132.93 L 155.43 132.51 C 156.41 132.05 156.83 130.88 156.36 129.90 C 155.90 128.92 154.73 128.50 153.75 128.97 L 152.86 129.39 C 151.89 129.85 151.47 131.02 151.93 132.00 C 152.40 132.98 153.57 133.40 154.55 132.93 Z M 155.42 132.51 L 156.30 132.09 C 157.28 131.64 157.70 130.48 157.25 129.50 C 156.80 128.53 155.64 128.11 154.66 128.56 L 153.77 128.97 C 152.79 129.43 152.37 130.59 152.83 131.56 C 153.28 132.54 154.44 132.96 155.42 132.51 Z M 156.29 132.09 L 157.19 131.68 C 158.16 131.23 158.59 130.08 158.15 129.11 C 157.70 128.13 156.55 127.70 155.57 128.15 L 154.67 128.56 C 153.70 129.01 153.27 130.16 153.72 131.14 C 154.17 132.11 155.32 132.54 156.29 132.09 Z M 157.18 131.67 L 158.10 131.25 C 159.07 130.81 159.50 129.67 159.06 128.70 C 158.61 127.73 157.47 127.30 156.50 127.74 L 155.58 128.16 C 154.61 128.60 154.19 129.74 154.63 130.71 C 155.07 131.68 156.21 132.11 157.18 131.67 Z M 158.09 131.24 L 159.02 130.82 C 159.99 130.38 160.41 129.25 159.98 128.28 C 159.54 127.32 158.40 126.89 157.43 127.33 L 156.51 127.75 C 155.54 128.19 155.11 129.33 155.55 130.29 C 155.99 131.26 157.13 131.68 158.09 131.24 Z M 159.02 130.82 L 159.94 130.40 C 160.90 129.96 161.33 128.83 160.89 127.87 C 160.45 126.91 159.32 126.48 158.36 126.92 L 157.44 127.33 C 156.48 127.77 156.05 128.90 156.49 129.86 C 156.92 130.83 158.06 131.25 159.02 130.82 Z M 159.93 130.40 L 160.85 129.98 C 161.81 129.55 162.24 128.43 161.81 127.47 C 161.38 126.51 160.25 126.08 159.29 126.51 L 158.37 126.92 C 157.41 127.35 156.98 128.48 157.41 129.44 C 157.84 130.40 158.97 130.83 159.93 130.40 Z M 160.83 129.98 L 161.73 129.59 C 162.69 129.17 163.13 128.05 162.71 127.09 C 162.29 126.13 161.18 125.69 160.22 126.11 L 159.31 126.51 C 158.35 126.93 157.91 128.04 158.33 129.00 C 158.75 129.96 159.87 130.40 160.83 129.98 Z M 161.70 129.60 L 162.66 129.20 C 163.63 128.79 164.08 127.69 163.68 126.72 C 163.28 125.76 162.17 125.30 161.20 125.70 L 160.24 126.10 C 159.28 126.51 158.82 127.62 159.23 128.58 C 159.63 129.55 160.74 130.00 161.70 129.60 Z M 162.63 129.21 L 163.58 128.83 C 164.55 128.44 165.02 127.34 164.63 126.37 C 164.25 125.40 163.15 124.93 162.18 125.32 L 161.23 125.69 C 160.26 126.08 159.79 127.18 160.17 128.15 C 160.56 129.12 161.66 129.60 162.63 129.21 Z M 163.55 128.84 L 164.45 128.50 C 165.43 128.12 165.92 127.03 165.54 126.05 C 165.17 125.08 164.08 124.59 163.10 124.96 L 162.20 125.31 C 161.22 125.68 160.74 126.77 161.11 127.75 C 161.48 128.73 162.58 129.21 163.55 128.84 Z M 164.43 128.51 L 165.37 128.16 C 166.35 127.80 166.85 126.71 166.49 125.73 C 166.12 124.75 165.03 124.24 164.05 124.61 L 163.12 124.95 C 162.14 125.31 161.64 126.40 162.00 127.39 C 162.36 128.37 163.45 128.87 164.43 128.51 Z M 165.33 128.19 L 166.28 127.86 C 167.27 127.51 167.80 126.43 167.45 125.43 C 167.11 124.44 166.02 123.91 165.03 124.26 L 164.08 124.59 C 163.09 124.93 162.56 126.02 162.91 127.01 C 163.25 128.00 164.34 128.53 165.33 128.19 Z M 166.21 127.89 L 167.15 127.60 C 168.17 127.29 168.73 126.22 168.42 125.21 C 168.11 124.19 167.04 123.63 166.03 123.94 L 165.09 124.23 C 164.08 124.54 163.51 125.61 163.82 126.62 C 164.13 127.63 165.20 128.20 166.21 127.89 Z M 167.04 127.66 L 168.09 127.41 C 169.14 127.16 169.78 126.11 169.53 125.06 C 169.28 124.02 168.23 123.38 167.19 123.63 L 166.14 123.88 C 165.09 124.13 164.45 125.18 164.70 126.22 C 164.95 127.27 166.00 127.91 167.04 127.66 Z M 167.77 127.50 L 168.76 127.44 C 169.86 127.36 170.69 126.41 170.61 125.32 C 170.54 124.22 169.59 123.39 168.49 123.46 L 167.51 123.53 C 166.41 123.61 165.58 124.55 165.65 125.65 C 165.73 126.75 166.68 127.58 167.77 127.50 Z M 167.89 127.34 L 168.72 127.66 C 169.77 128.07 170.94 127.55 171.35 126.51 C 171.75 125.46 171.24 124.28 170.19 123.88 L 169.36 123.56 C 168.32 123.15 167.14 123.67 166.74 124.72 C 166.33 125.76 166.85 126.94 167.89 127.34 Z M 167.70 126.84 L 168.21 127.67 C 168.80 128.63 170.06 128.94 171.03 128.35 C 171.99 127.76 172.30 126.50 171.71 125.53 L 171.21 124.71 C 170.62 123.74 169.36 123.43 168.39 124.02 C 167.42 124.61 167.12 125.87 167.70 126.84 Z M 167.91 126.72 L 167.96 127.71 C 168.03 128.84 169.00 129.71 170.14 129.64 C 171.27 129.57 172.14 128.60 172.07 127.47 L 172.01 126.48 C 171.95 125.34 170.97 124.48 169.84 124.55 C 168.70 124.61 167.84 125.59 167.91 126.72 Z M 168.01 127.10 L 167.78 128.04 C 167.51 129.15 168.19 130.27 169.30 130.54 C 170.41 130.81 171.52 130.13 171.79 129.02 L 172.02 128.07 C 172.29 126.97 171.61 125.85 170.51 125.58 C 169.40 125.31 168.28 125.99 168.01 127.10 Z M 167.82 127.91 L 167.50 128.90 C 167.16 129.99 167.76 131.15 168.85 131.49 C 169.94 131.84 171.10 131.24 171.44 130.15 L 171.76 129.16 C 172.10 128.07 171.50 126.91 170.41 126.56 C 169.32 126.22 168.16 126.82 167.82 127.91 Z M 167.47 129.02 L 167.24 129.89 C 166.96 131.00 167.63 132.13 168.74 132.41 C 169.85 132.69 170.98 132.02 171.26 130.91 L 171.48 130.03 C 171.76 128.92 171.09 127.80 169.98 127.52 C 168.87 127.24 167.75 127.91 167.47 129.02 Z M 167.22 129.99 L 167.02 130.97 C 166.80 132.09 167.52 133.18 168.64 133.41 C 169.76 133.64 170.85 132.91 171.08 131.79 L 171.28 130.81 C 171.51 129.69 170.78 128.60 169.66 128.37 C 168.54 128.14 167.45 128.87 167.22 129.99 Z M 167.02 131.01 L 166.82 132.07 C 166.61 133.19 167.36 134.27 168.48 134.48 C 169.61 134.68 170.69 133.94 170.89 132.81 L 171.09 131.75 C 171.30 130.63 170.55 129.55 169.43 129.34 C 168.30 129.14 167.22 129.88 167.02 131.01 Z M 166.82 132.07 L 166.66 132.95 C 166.46 134.08 167.20 135.15 168.33 135.36 C 169.45 135.56 170.53 134.82 170.73 133.69 L 170.89 132.81 C 171.10 131.68 170.35 130.61 169.23 130.40 C 168.10 130.20 167.03 130.95 166.82 132.07 Z M 166.67 132.95 L 166.49 133.91 C 166.28 135.03 167.03 136.11 168.15 136.32 C 169.27 136.52 170.35 135.78 170.55 134.66 L 170.73 133.70 C 170.94 132.57 170.19 131.50 169.07 131.29 C 167.95 131.08 166.87 131.83 166.67 132.95 Z M 166.49 133.90 L 166.30 134.93 C 166.09 136.05 166.83 137.13 167.95 137.34 C 169.07 137.55 170.14 136.82 170.35 135.70 L 170.55 134.67 C 170.76 133.55 170.02 132.47 168.90 132.26 C 167.78 132.05 166.70 132.78 166.49 133.90 Z M 166.31 134.92 L 166.10 136.01 C 165.88 137.12 166.61 138.20 167.73 138.42 C 168.84 138.64 169.92 137.91 170.14 136.79 L 170.35 135.71 C 170.56 134.59 169.84 133.51 168.72 133.29 C 167.60 133.08 166.52 133.81 166.31 134.92 Z M 166.12 136.00 L 165.91 137.03 C 165.69 138.13 166.41 139.20 167.51 139.43 C 168.62 139.65 169.69 138.93 169.91 137.82 L 170.12 136.80 C 170.34 135.69 169.62 134.62 168.52 134.40 C 167.41 134.18 166.34 134.89 166.12 136.00 Z M 165.95 137.03 L 165.74 138.06 C 165.52 139.14 166.22 140.20 167.30 140.42 C 168.39 140.64 169.45 139.94 169.67 138.86 L 169.88 137.83 C 170.10 136.74 169.40 135.68 168.31 135.46 C 167.23 135.24 166.17 135.94 165.95 137.03 Z M 165.77 138.06 L 165.57 139.05 C 165.35 140.12 166.03 141.16 167.10 141.38 C 168.17 141.60 169.21 140.92 169.43 139.85 L 169.63 138.85 C 169.85 137.79 169.17 136.74 168.10 136.52 C 167.03 136.30 165.99 136.99 165.77 138.06 Z M 165.60 139.06 L 165.41 139.99 C 165.19 141.04 165.87 142.06 166.92 142.28 C 167.97 142.49 168.99 141.82 169.21 140.77 L 169.40 139.84 C 169.61 138.79 168.94 137.77 167.89 137.55 C 166.84 137.34 165.82 138.01 165.60 139.06 Z M 165.46 140.01 L 165.25 141.03 C 165.04 142.06 165.70 143.05 166.73 143.26 C 167.75 143.46 168.74 142.80 168.95 141.78 L 169.16 140.75 C 169.36 139.73 168.70 138.74 167.68 138.53 C 166.66 138.32 165.67 138.98 165.46 140.01 Z M 165.34 141.06 L 165.14 142.09 C 164.94 143.06 165.58 144.01 166.55 144.20 C 167.52 144.39 168.47 143.76 168.66 142.78 L 168.86 141.75 C 169.05 140.78 168.42 139.84 167.44 139.65 C 166.47 139.46 165.53 140.09 165.34 141.06 Z M 165.24 142.12 L 165.07 143.01 C 164.90 143.92 165.50 144.81 166.41 144.98 C 167.33 145.15 168.21 144.55 168.39 143.64 L 168.55 142.75 C 168.73 141.84 168.13 140.95 167.21 140.78 C 166.30 140.61 165.41 141.21 165.24 142.12 Z M 165.15 143.02 L 165.08 143.39 C 164.91 144.27 165.49 145.11 166.36 145.27 C 167.23 145.44 168.08 144.86 168.24 143.99 L 168.31 143.62 C 168.47 142.75 167.90 141.91 167.03 141.74 C 166.15 141.58 165.31 142.15 165.15 143.02 Z"
      fill="black"
      fill-rule="nonzero" /><path d="M 149.26 152.84 L 150.05 152.22 C 150.87 151.57 151.01 150.38 150.36 149.56 C 149.72 148.74 148.53 148.60 147.71 149.25 L 146.92 149.87 C 146.10 150.52 145.96 151.71 146.60 152.53 C 147.25 153.35 148.44 153.49 149.26 152.84 Z M 150.06 152.31 L 150.86 151.70 C 151.73 151.05 151.90 149.81 151.25 148.95 C 150.60 148.08 149.36 147.91 148.49 148.56 L 147.69 149.16 C 146.83 149.82 146.65 151.05 147.31 151.92 C 147.96 152.79 149.19 152.96 150.06 152.31 Z M 150.83 151.81 L 151.64 151.26 C 152.57 150.62 152.80 149.35 152.16 148.42 C 151.52 147.49 150.25 147.26 149.32 147.90 L 148.52 148.45 C 147.59 149.09 147.36 150.36 148.00 151.29 C 148.64 152.22 149.91 152.45 150.83 151.81 Z M 151.56 151.34 L 152.30 150.89 C 153.28 150.29 153.59 149.02 152.99 148.04 C 152.39 147.07 151.12 146.76 150.15 147.36 L 149.40 147.81 C 148.43 148.41 148.12 149.68 148.72 150.66 C 149.31 151.63 150.58 151.94 151.56 151.34 Z M 152.23 150.92 L 153.07 150.45 C 154.06 149.90 154.41 148.65 153.86 147.65 C 153.31 146.66 152.06 146.31 151.06 146.86 L 150.22 147.33 C 149.23 147.88 148.88 149.13 149.43 150.12 C 149.98 151.12 151.23 151.47 152.23 150.92 Z M 153.02 150.46 L 154.03 149.93 C 155.02 149.40 155.40 148.17 154.88 147.17 C 154.35 146.17 153.11 145.79 152.11 146.32 L 151.11 146.85 C 150.11 147.38 149.73 148.61 150.26 149.61 C 150.79 150.61 152.02 150.99 153.02 150.46 Z M 154.01 149.92 L 154.91 149.46 C 155.90 148.94 156.29 147.71 155.77 146.72 C 155.25 145.72 154.02 145.34 153.03 145.85 L 152.13 146.32 C 151.13 146.84 150.75 148.07 151.27 149.06 C 151.79 150.06 153.01 150.44 154.01 149.92 Z M 154.90 149.44 L 155.81 148.97 C 156.80 148.45 157.18 147.24 156.67 146.25 C 156.15 145.26 154.94 144.88 153.95 145.39 L 153.04 145.87 C 152.05 146.38 151.67 147.60 152.18 148.59 C 152.69 149.57 153.91 149.96 154.90 149.44 Z M 155.80 148.95 L 156.74 148.46 C 157.72 147.95 158.10 146.75 157.59 145.77 C 157.08 144.79 155.87 144.41 154.89 144.92 L 153.96 145.41 C 152.98 145.92 152.60 147.12 153.11 148.10 C 153.62 149.08 154.82 149.46 155.80 148.95 Z M 156.73 148.45 L 157.63 147.98 C 158.60 147.47 158.98 146.28 158.47 145.31 C 157.97 144.34 156.77 143.96 155.80 144.47 L 154.90 144.94 C 153.93 145.44 153.55 146.64 154.06 147.61 C 154.57 148.58 155.76 148.95 156.73 148.45 Z M 157.62 147.96 L 158.49 147.50 C 159.45 147.00 159.82 145.82 159.32 144.86 C 158.82 143.90 157.63 143.53 156.67 144.03 L 155.81 144.49 C 154.85 144.99 154.48 146.17 154.98 147.13 C 155.48 148.09 156.67 148.46 157.62 147.96 Z M 158.48 147.46 L 159.51 146.91 C 160.44 146.42 160.79 145.26 160.30 144.33 C 159.81 143.40 158.65 143.04 157.72 143.54 L 156.69 144.08 C 155.76 144.57 155.40 145.73 155.89 146.66 C 156.39 147.59 157.54 147.95 158.48 147.46 Z M 159.48 146.84 L 160.30 146.40 C 161.19 145.93 161.53 144.81 161.05 143.92 C 160.57 143.03 159.46 142.69 158.57 143.17 L 157.75 143.61 C 156.85 144.08 156.52 145.20 156.99 146.09 C 157.47 146.98 158.58 147.32 159.48 146.84 Z M 160.27 146.34 L 160.99 145.95 C 161.85 145.49 162.17 144.42 161.71 143.56 C 161.25 142.70 160.18 142.38 159.32 142.84 L 158.60 143.23 C 157.74 143.69 157.42 144.76 157.88 145.62 C 158.34 146.48 159.41 146.80 160.27 146.34 Z M 160.96 145.92 L 161.67 145.54 C 162.50 145.10 162.82 144.05 162.37 143.21 C 161.93 142.38 160.88 142.06 160.05 142.51 L 159.34 142.88 C 158.51 143.33 158.19 144.37 158.64 145.21 C 159.08 146.05 160.13 146.36 160.96 145.92 Z M 161.65 145.52 L 162.50 145.07 C 163.33 144.63 163.64 143.61 163.20 142.78 C 162.76 141.95 161.74 141.64 160.91 142.07 L 160.06 142.52 C 159.23 142.96 158.92 143.99 159.36 144.82 C 159.79 145.65 160.82 145.96 161.65 145.52 Z M 162.49 145.05 L 163.60 144.47 C 164.42 144.03 164.73 143.02 164.30 142.20 C 163.87 141.39 162.86 141.07 162.04 141.50 L 160.92 142.09 C 160.10 142.53 159.79 143.54 160.22 144.36 C 160.66 145.17 161.67 145.49 162.49 145.05 Z M 163.59 144.45 L 164.34 144.06 C 165.15 143.63 165.46 142.63 165.03 141.82 C 164.60 141.01 163.60 140.70 162.79 141.13 L 162.05 141.52 C 161.24 141.95 160.93 142.95 161.36 143.76 C 161.78 144.57 162.78 144.88 163.59 144.45 Z M 164.33 144.05 L 165.13 143.62 C 165.94 143.20 166.24 142.21 165.82 141.40 C 165.40 140.60 164.40 140.29 163.60 140.72 L 162.80 141.14 C 162.00 141.56 161.69 142.55 162.11 143.36 C 162.53 144.16 163.53 144.47 164.33 144.05 Z M 165.13 143.61 L 166.00 143.16 C 166.80 142.74 167.10 141.75 166.68 140.95 C 166.26 140.15 165.27 139.85 164.48 140.27 L 163.61 140.73 C 162.81 141.15 162.50 142.13 162.92 142.93 C 163.34 143.73 164.33 144.04 165.13 143.61 Z M 165.99 143.15 L 166.92 142.66 C 167.71 142.24 168.01 141.26 167.60 140.47 C 167.18 139.68 166.20 139.37 165.41 139.79 L 164.48 140.28 C 163.69 140.69 163.39 141.67 163.80 142.47 C 164.22 143.26 165.20 143.56 165.99 143.15 Z M 166.91 142.65 L 167.88 142.14 C 168.66 141.73 168.97 140.75 168.55 139.97 C 168.14 139.18 167.16 138.88 166.38 139.29 L 165.41 139.80 C 164.63 140.21 164.32 141.19 164.74 141.97 C 165.15 142.76 166.13 143.06 166.91 142.65 Z M 167.87 142.13 L 168.86 141.61 C 169.64 141.20 169.94 140.23 169.53 139.45 C 169.12 138.67 168.15 138.37 167.37 138.78 L 166.38 139.30 C 165.60 139.71 165.30 140.68 165.71 141.46 C 166.12 142.24 167.09 142.54 167.87 142.13 Z M 168.85 141.61 L 169.21 141.42 C 169.98 141.01 170.28 140.05 169.87 139.27 C 169.46 138.49 168.50 138.20 167.72 138.61 L 167.37 138.79 C 166.59 139.20 166.30 140.16 166.71 140.94 C 167.11 141.72 168.08 142.01 168.85 141.61 Z"
      fill="black"
      fill-rule="nonzero" /></svg>