<svg xmlns="http://www.w3.org/2000/svg" width="300" height="300" viewBox="0 0 300 300">
<path d="M 141.91 109.96 L 142.07 110.91 C 142.22 111.80 143.07 112.40 143.97 112.25 C 144.86 112.10 145.46 111.25 145.31 110.36 L 145.15 109.41 C 145.00 108.52 144.15 107.92 143.25 108.07 C 142.36 108.22 141.76 109.07 141.91 109.96 Z M 142.02 110.82 L 142.13 111.83 C 142.24 112.75 143.07 113.42 143.99 113.31 C 144.92 113.21 145.58 112.37 145.48 111.45 L 145.36 110.44 C 145.26 109.52 144.42 108.86 143.50 108.96 C 142.58 109.07 141.91 109.90 142.02 110.82 Z M 142.09 111.69 L 142.12 112.62 C 142.14 113.57 142.93 114.31 143.88 114.29 C 144.82 114.26 145.57 113.48 145.54 112.53 L 145.52 111.59 C 145.49 110.65 144.70 109.90 143.76 109.93 C 142.81 109.95 142.07 110.74 142.09 111.69 Z M 142.12 112.45 L 142.05 113.39 C 141.98 114.34 142.69 115.16 143.63 115.23 C 144.58 115.30 145.40 114.59 145.47 113.65 L 145.54 112.70 C 145.61 111.76 144.90 110.93 143.96 110.86 C 143.01 110.79 142.19 111.50 142.12 112.45 Z M 142.08 113.20 L 141.88 114.26 C 141.70 115.19 142.31 116.08 143.24 116.26 C 144.17 116.43 145.07 115.82 145.25 114.89 L 145.44 113.84 C 145.62 112.91 145.01 112.01 144.08 111.84 C 143.15 111.66 142.25 112.27 142.08 113.20 Z M 141.92 114.08 L 141.62 115.09 C 141.35 115.99 141.86 116.95 142.77 117.22 C 143.67 117.49 144.63 116.97 144.90 116.07 L 145.20 115.06 C 145.47 114.16 144.96 113.21 144.05 112.93 C 143.15 112.66 142.19 113.18 141.92 114.08 Z M 141.67 114.97 L 141.30 115.93 C 140.97 116.81 141.41 117.79 142.30 118.13 C 143.18 118.46 144.16 118.02 144.49 117.14 L 144.86 116.18 C 145.19 115.30 144.75 114.32 143.86 113.98 C 142.98 113.65 142.00 114.09 141.67 114.97 Z M 141.34 115.86 L 140.93 116.81 C 140.56 117.67 140.96 118.67 141.82 119.05 C 142.68 119.42 143.68 119.02 144.05 118.15 L 144.46 117.20 C 144.83 116.34 144.43 115.34 143.57 114.97 C 142.71 114.60 141.71 115.00 141.34 115.86 Z M 140.95 116.77 L 140.54 117.67 C 140.14 118.51 140.51 119.52 141.36 119.92 C 142.21 120.31 143.22 119.94 143.61 119.09 L 144.03 118.20 C 144.42 117.35 144.05 116.34 143.21 115.95 C 142.36 115.55 141.35 115.92 140.95 116.77 Z M 140.56 117.63 L 140.09 118.59 C 139.68 119.43 140.02 120.44 140.86 120.85 C 141.69 121.26 142.70 120.92 143.12 120.08 L 143.59 119.13 C 144.00 118.29 143.66 117.28 142.82 116.87 C 141.98 116.45 140.97 116.80 140.56 117.63 Z M 140.12 118.55 L 139.65 119.44 C 139.21 120.26 139.53 121.28 140.35 121.71 C 141.17 122.15 142.18 121.83 142.62 121.01 L 143.09 120.12 C 143.52 119.30 143.21 118.29 142.39 117.85 C 141.57 117.42 140.55 117.73 140.12 118.55 Z M 139.68 119.39 L 139.22 120.20 C 138.76 121.00 139.04 122.02 139.84 122.48 C 140.64 122.94 141.66 122.66 142.12 121.86 L 142.58 121.06 C 143.04 120.26 142.77 119.24 141.97 118.78 C 141.17 118.32 140.14 118.59 139.68 119.39 Z M 139.26 120.15 L 138.75 120.96 C 138.27 121.74 138.51 122.76 139.29 123.25 C 140.07 123.74 141.09 123.50 141.58 122.72 L 142.08 121.91 C 142.57 121.13 142.33 120.10 141.55 119.62 C 140.77 119.13 139.75 119.37 139.26 120.15 Z M 138.78 120.92 L 138.23 121.75 C 137.73 122.51 137.94 123.54 138.70 124.05 C 139.46 124.56 140.49 124.35 141.00 123.58 L 141.55 122.75 C 142.06 121.99 141.85 120.96 141.08 120.45 C 140.32 119.95 139.29 120.16 138.78 120.92 Z M 138.26 121.72 L 137.67 122.57 C 137.15 123.32 137.34 124.35 138.09 124.87 C 138.84 125.39 139.88 125.20 140.40 124.45 L 140.98 123.61 C 141.50 122.86 141.31 121.83 140.56 121.31 C 139.81 120.79 138.78 120.97 138.26 121.72 Z M 137.69 122.55 L 137.10 123.38 C 136.58 124.12 136.75 125.15 137.49 125.68 C 138.23 126.20 139.26 126.03 139.79 125.29 L 140.38 124.47 C 140.91 123.72 140.73 122.69 139.99 122.17 C 139.25 121.64 138.22 121.81 137.69 122.55 Z M 137.12 123.36 L 136.53 124.17 C 135.99 124.91 136.15 125.93 136.88 126.47 C 137.61 127.01 138.64 126.85 139.17 126.12 L 139.77 125.30 C 140.31 124.57 140.15 123.55 139.42 123.01 C 138.69 122.47 137.66 122.63 137.12 123.36 Z M 136.55 124.16 L 135.95 124.94 C 135.41 125.66 135.54 126.68 136.26 127.23 C 136.98 127.78 138.00 127.64 138.55 126.92 L 139.15 126.14 C 139.70 125.42 139.56 124.39 138.84 123.85 C 138.12 123.30 137.10 123.44 136.55 124.16 Z M 135.98 124.91 L 135.40 125.65 C 134.84 126.35 134.95 127.37 135.65 127.93 C 136.35 128.49 137.37 128.38 137.94 127.68 L 138.52 126.95 C 139.08 126.25 138.97 125.22 138.27 124.66 C 137.57 124.10 136.54 124.21 135.98 124.91 Z M 135.43 125.61 L 134.81 126.35 C 134.23 127.03 134.31 128.05 134.99 128.63 C 135.68 129.21 136.70 129.13 137.28 128.45 L 137.90 127.71 C 138.48 127.03 138.40 126.01 137.71 125.43 C 137.03 124.85 136.01 124.93 135.43 125.61 Z M 134.84 126.32 L 134.12 127.12 C 133.53 127.78 133.58 128.80 134.24 129.40 C 134.91 130.00 135.92 129.94 136.52 129.28 L 137.24 128.48 C 137.84 127.81 137.78 126.79 137.12 126.20 C 136.46 125.60 135.44 125.66 134.84 126.32 Z M 134.15 127.10 L 133.48 127.82 C 132.87 128.47 132.90 129.48 133.55 130.09 C 134.20 130.70 135.21 130.66 135.82 130.02 L 136.49 129.30 C 137.10 128.65 137.07 127.63 136.42 127.03 C 135.77 126.42 134.76 126.45 134.15 127.10 Z M 133.50 127.80 L 132.79 128.54 C 132.17 129.17 132.18 130.18 132.82 130.80 C 133.45 131.42 134.46 131.40 135.08 130.77 L 135.79 130.03 C 136.41 129.40 136.40 128.39 135.76 127.77 C 135.13 127.16 134.12 127.17 133.50 127.80 Z M 132.82 128.52 L 132.08 129.24 C 131.45 129.85 131.44 130.86 132.06 131.49 C 132.67 132.12 133.68 132.13 134.31 131.51 L 135.05 130.79 C 135.67 130.18 135.69 129.17 135.07 128.54 C 134.45 127.91 133.45 127.90 132.82 128.52 Z M 132.13 129.20 L 131.40 129.87 C 130.75 130.46 130.71 131.46 131.30 132.11 C 131.89 132.75 132.89 132.80 133.54 132.21 L 134.27 131.54 C 134.91 130.95 134.96 129.95 134.37 129.30 C 133.77 128.66 132.77 128.61 132.13 129.20 Z M 131.47 129.81 L 130.62 130.51 C 129.95 131.06 129.85 132.06 130.40 132.73 C 130.95 133.41 131.95 133.51 132.62 132.95 L 133.47 132.26 C 134.15 131.71 134.25 130.71 133.69 130.04 C 133.14 129.36 132.15 129.26 131.47 129.81 Z M 130.70 130.46 L 129.91 131.04 C 129.20 131.55 129.05 132.53 129.56 133.23 C 130.07 133.93 131.05 134.09 131.76 133.58 L 132.55 133.00 C 133.25 132.49 133.40 131.51 132.89 130.81 C 132.38 130.11 131.40 129.95 130.70 130.46 Z M 129.95 131.01 L 129.21 131.51 C 128.49 132.00 128.31 132.97 128.79 133.69 C 129.28 134.40 130.25 134.59 130.97 134.11 L 131.71 133.60 C 132.42 133.12 132.61 132.15 132.13 131.43 C 131.64 130.71 130.67 130.53 129.95 131.01 Z"
      fill="black"
      fill-rule="nonzero" /><path d="M 141.92 121.18 L 140.61 121.54 C 139.62 121.80 139.04 122.81 139.31 123.80 C 139.58 124.78 140.59 125.36 141.57 125.10 L 142.89 124.74 C 143.87 124.47 144.45 123.46 144.18 122.48 C 143.92 121.49 142.90 120.91 141.92 121.18 Z M 140.49 121.52 L 139.60 121.82 C 138.60 122.15 138.07 123.22 138.40 124.21 C 138.73 125.21 139.80 125.74 140.80 125.41 L 141.69 125.11 C 142.68 124.78 143.22 123.71 142.88 122.72 C 142.55 121.72 141.48 121.19 140.49 121.52 Z M 138.30 123.27 L 138.26 123.47 C 138.07 124.52 138.77 125.52 139.82 125.71 C 140.87 125.90 141.87 125.20 142.06 124.15 L 142.09 123.95 C 142.28 122.91 141.58 121.90 140.53 121.72 C 139.49 121.53 138.48 122.23 138.30 123.27 Z M 140.06 125.75 L 141.05 125.80 C 142.12 125.86 143.03 125.03 143.09 123.96 C 143.14 122.89 142.32 121.98 141.25 121.92 L 140.26 121.87 C 139.19 121.82 138.28 122.64 138.22 123.71 C 138.17 124.78 138.99 125.69 140.06 125.75 Z M 141.24 125.80 L 142.50 125.74 C 143.58 125.69 144.40 124.79 144.36 123.72 C 144.31 122.64 143.40 121.82 142.33 121.86 L 141.06 121.92 C 139.99 121.97 139.16 122.88 139.21 123.95 C 139.26 125.02 140.17 125.85 141.24 125.80 Z M 142.60 125.73 L 143.60 125.64 C 144.67 125.53 145.45 124.59 145.34 123.52 C 145.24 122.46 144.29 121.67 143.23 121.78 L 142.23 121.87 C 141.16 121.98 140.38 122.92 140.49 123.99 C 140.59 125.06 141.54 125.84 142.60 125.73 Z M 143.67 125.62 L 144.65 125.49 C 145.71 125.35 146.45 124.38 146.31 123.32 C 146.17 122.26 145.19 121.51 144.13 121.66 L 143.16 121.79 C 142.10 121.93 141.35 122.91 141.50 123.97 C 141.64 125.03 142.62 125.77 143.67 125.62 Z M 144.70 125.48 L 145.67 125.33 C 146.72 125.16 147.44 124.16 147.27 123.11 C 147.10 122.06 146.11 121.34 145.05 121.51 L 144.08 121.67 C 143.03 121.84 142.31 122.83 142.48 123.88 C 142.65 124.94 143.65 125.65 144.70 125.48 Z M 145.70 125.32 L 146.67 125.15 C 147.72 124.96 148.42 123.96 148.23 122.91 C 148.05 121.86 147.04 121.16 145.99 121.35 L 145.02 121.52 C 143.97 121.70 143.27 122.71 143.46 123.76 C 143.65 124.81 144.65 125.51 145.70 125.32 Z M 146.69 125.14 L 147.69 124.95 C 148.74 124.75 149.42 123.74 149.22 122.70 C 149.02 121.65 148.01 120.96 146.97 121.16 L 145.97 121.35 C 144.92 121.55 144.24 122.56 144.44 123.61 C 144.63 124.65 145.64 125.34 146.69 125.14 Z M 147.71 124.95 L 148.70 124.75 C 149.74 124.54 150.42 123.52 150.21 122.48 C 150.00 121.44 148.99 120.76 147.94 120.97 L 146.95 121.17 C 145.91 121.37 145.23 122.39 145.44 123.44 C 145.65 124.48 146.66 125.16 147.71 124.95 Z M 148.71 124.75 L 149.69 124.54 C 150.73 124.33 151.40 123.31 151.18 122.27 C 150.97 121.22 149.95 120.55 148.91 120.77 L 147.93 120.97 C 146.89 121.19 146.22 122.21 146.43 123.25 C 146.65 124.29 147.67 124.96 148.71 124.75 Z M 149.70 124.54 L 150.68 124.33 C 151.72 124.11 152.38 123.09 152.16 122.05 C 151.94 121.01 150.92 120.34 149.88 120.56 L 148.90 120.77 C 147.86 120.99 147.19 122.01 147.41 123.06 C 147.63 124.10 148.66 124.76 149.70 124.54 Z M 150.68 124.33 L 151.66 124.12 C 152.70 123.90 153.37 122.88 153.14 121.84 C 152.92 120.80 151.90 120.13 150.86 120.36 L 149.88 120.57 C 148.84 120.79 148.17 121.81 148.40 122.85 C 148.62 123.89 149.64 124.55 150.68 124.33 Z M 151.67 124.12 L 152.64 123.91 C 153.68 123.68 154.34 122.66 154.12 121.62 C 153.89 120.58 152.87 119.92 151.83 120.15 L 150.86 120.36 C 149.82 120.58 149.16 121.61 149.38 122.64 C 149.60 123.68 150.63 124.34 151.67 124.12 Z M 152.65 123.90 L 153.63 123.69 C 154.67 123.46 155.32 122.43 155.09 121.39 C 154.86 120.36 153.83 119.70 152.79 119.94 L 151.82 120.15 C 150.78 120.38 150.13 121.41 150.36 122.45 C 150.59 123.48 151.62 124.13 152.65 123.90 Z M 153.65 123.68 L 154.63 123.45 C 155.66 123.21 156.30 122.17 156.06 121.14 C 155.81 120.11 154.78 119.47 153.75 119.71 L 152.77 119.94 C 151.74 120.19 151.10 121.22 151.34 122.25 C 151.59 123.28 152.62 123.92 153.65 123.68 Z M 154.66 123.44 L 155.64 123.19 C 156.66 122.94 157.29 121.89 157.03 120.87 C 156.77 119.84 155.73 119.22 154.70 119.48 L 153.72 119.72 C 152.69 119.98 152.07 121.02 152.33 122.05 C 152.59 123.08 153.63 123.70 154.66 123.44 Z M 155.66 123.19 L 156.63 122.93 C 157.65 122.66 158.26 121.61 157.99 120.58 C 157.72 119.56 156.67 118.95 155.65 119.22 L 154.67 119.48 C 153.65 119.76 153.04 120.81 153.32 121.83 C 153.59 122.85 154.64 123.46 155.66 123.19 Z M 156.65 122.92 L 157.60 122.66 C 158.62 122.37 159.22 121.32 158.94 120.30 C 158.65 119.28 157.60 118.68 156.58 118.97 L 155.63 119.23 C 154.61 119.52 154.01 120.57 154.29 121.59 C 154.58 122.61 155.63 123.20 156.65 122.92 Z M 157.62 122.65 L 158.60 122.37 C 159.62 122.07 160.20 121.01 159.91 120.00 C 159.62 118.98 158.56 118.40 157.54 118.69 L 156.56 118.97 C 155.55 119.27 154.96 120.33 155.25 121.34 C 155.55 122.36 156.61 122.94 157.62 122.65 Z M 158.63 122.36 L 159.59 122.07 C 160.60 121.77 161.17 120.70 160.87 119.69 C 160.56 118.68 159.49 118.10 158.48 118.41 L 157.52 118.70 C 156.51 119.00 155.94 120.07 156.24 121.08 C 156.55 122.09 157.61 122.66 158.63 122.36 Z M 159.62 122.06 L 160.55 121.76 C 161.55 121.44 162.11 120.37 161.78 119.36 C 161.46 118.35 160.39 117.80 159.38 118.12 L 158.45 118.42 C 157.45 118.74 156.89 119.82 157.21 120.82 C 157.54 121.83 158.61 122.38 159.62 122.06 Z M 160.58 121.75 L 161.55 121.42 C 162.55 121.08 163.08 119.99 162.74 118.99 C 162.40 117.99 161.31 117.46 160.31 117.80 L 159.34 118.13 C 158.35 118.48 157.81 119.56 158.16 120.56 C 158.50 121.56 159.58 122.09 160.58 121.75 Z M 161.57 121.41 L 162.52 121.07 C 163.51 120.72 164.03 119.63 163.67 118.63 C 163.32 117.64 162.23 117.12 161.23 117.47 L 160.29 117.81 C 159.30 118.16 158.78 119.26 159.13 120.25 C 159.49 121.25 160.58 121.76 161.57 121.41 Z M 162.51 121.07 L 163.43 120.75 C 164.42 120.40 164.94 119.31 164.59 118.31 C 164.24 117.32 163.15 116.80 162.15 117.15 L 161.24 117.47 C 160.24 117.83 159.72 118.92 160.08 119.91 C 160.43 120.91 161.52 121.43 162.51 121.07 Z M 163.39 120.76 L 164.33 120.45 C 165.33 120.12 165.87 119.03 165.54 118.03 C 165.20 117.03 164.12 116.49 163.12 116.83 L 162.19 117.14 C 161.19 117.47 160.65 118.55 160.98 119.55 C 161.31 120.55 162.39 121.09 163.39 120.76 Z M 164.27 120.47 L 165.23 120.18 C 166.24 119.88 166.81 118.82 166.51 117.81 C 166.21 116.80 165.15 116.22 164.14 116.52 L 163.18 116.81 C 162.17 117.11 161.60 118.17 161.89 119.18 C 162.19 120.19 163.26 120.77 164.27 120.47 Z M 165.13 120.22 L 166.17 119.97 C 167.20 119.72 167.83 118.68 167.58 117.65 C 167.33 116.63 166.30 115.99 165.27 116.24 L 164.23 116.49 C 163.20 116.74 162.57 117.78 162.82 118.80 C 163.07 119.83 164.10 120.46 165.13 120.22 Z M 165.81 120.04 L 166.82 119.99 C 167.89 119.93 168.71 119.03 168.66 117.96 C 168.61 116.89 167.70 116.07 166.63 116.12 L 165.63 116.17 C 164.56 116.22 163.74 117.13 163.79 118.20 C 163.84 119.26 164.75 120.09 165.81 120.04 Z M 165.76 119.76 L 166.50 120.18 C 167.44 120.71 168.63 120.38 169.17 119.44 C 169.70 118.50 169.37 117.31 168.43 116.77 L 167.69 116.35 C 166.75 115.82 165.56 116.15 165.03 117.09 C 164.49 118.03 164.82 119.22 165.76 119.76 Z M 165.64 119.21 L 165.96 120.01 C 166.37 121.01 167.52 121.50 168.53 121.09 C 169.53 120.69 170.02 119.54 169.61 118.53 L 169.29 117.74 C 168.89 116.73 167.74 116.24 166.73 116.65 C 165.72 117.06 165.23 118.20 165.64 119.21 Z M 165.82 119.47 L 165.92 120.51 C 166.03 121.60 167.01 122.39 168.09 122.28 C 169.18 122.17 169.97 121.20 169.86 120.11 L 169.76 119.07 C 169.65 117.98 168.67 117.19 167.59 117.30 C 166.50 117.41 165.71 118.38 165.82 119.47 Z M 165.91 120.23 L 165.86 121.32 C 165.82 122.42 166.67 123.35 167.77 123.39 C 168.86 123.44 169.79 122.58 169.83 121.49 L 169.88 120.39 C 169.92 119.30 169.07 118.37 167.97 118.32 C 166.88 118.28 165.95 119.13 165.91 120.23 Z M 165.88 121.12 L 165.72 122.18 C 165.56 123.26 166.32 124.27 167.41 124.43 C 168.50 124.59 169.51 123.84 169.66 122.75 L 169.82 121.69 C 169.98 120.60 169.22 119.59 168.13 119.44 C 167.05 119.28 166.04 120.03 165.88 121.12 Z M 165.76 121.97 L 165.52 122.92 C 165.25 123.98 165.89 125.07 166.96 125.34 C 168.03 125.61 169.11 124.97 169.38 123.90 L 169.62 122.96 C 169.90 121.89 169.25 120.80 168.19 120.53 C 167.12 120.26 166.04 120.90 165.76 121.97 Z M 165.57 122.75 L 165.25 123.65 C 164.89 124.69 165.43 125.82 166.47 126.19 C 167.51 126.56 168.65 126.01 169.01 124.98 L 169.33 124.07 C 169.70 123.04 169.15 121.90 168.12 121.53 C 167.08 121.16 165.94 121.71 165.57 122.75 Z M 165.30 123.54 L 164.90 124.47 C 164.47 125.49 164.95 126.66 165.96 127.09 C 166.98 127.51 168.15 127.04 168.57 126.02 L 168.97 125.09 C 169.40 124.07 168.92 122.90 167.91 122.48 C 166.89 122.05 165.72 122.52 165.30 123.54 Z M 164.94 124.40 L 164.50 125.31 C 164.03 126.31 164.46 127.50 165.45 127.97 C 166.45 128.44 167.64 128.01 168.11 127.02 L 168.54 126.10 C 169.01 125.10 168.58 123.92 167.59 123.45 C 166.59 122.98 165.41 123.40 164.94 124.40 Z M 164.54 125.25 L 164.08 126.13 C 163.58 127.11 163.96 128.31 164.94 128.81 C 165.92 129.32 167.12 128.93 167.62 127.96 L 168.07 127.08 C 168.58 126.10 168.20 124.90 167.22 124.40 C 166.24 123.89 165.04 124.27 164.54 125.25 Z M 164.12 126.07 L 163.62 126.98 C 163.08 127.93 163.42 129.14 164.38 129.68 C 165.33 130.21 166.54 129.87 167.08 128.92 L 167.58 128.01 C 168.12 127.06 167.78 125.85 166.82 125.31 C 165.87 124.78 164.66 125.12 164.12 126.07 Z M 163.65 126.94 L 163.16 127.76 C 162.61 128.70 162.91 129.91 163.85 130.46 C 164.79 131.02 166.00 130.71 166.55 129.78 L 167.04 128.95 C 167.60 128.02 167.29 126.81 166.35 126.25 C 165.42 125.69 164.21 126.00 163.65 126.94 Z M 163.19 127.75 L 162.73 128.51 C 162.17 129.43 162.46 130.63 163.39 131.19 C 164.31 131.75 165.51 131.46 166.07 130.53 L 166.53 129.78 C 167.09 128.86 166.79 127.66 165.87 127.10 C 164.95 126.54 163.75 126.83 163.19 127.75 Z M 162.76 128.50 L 162.25 129.32 C 161.69 130.23 161.96 131.42 162.87 131.98 C 163.77 132.54 164.96 132.27 165.53 131.36 L 166.04 130.54 C 166.60 129.64 166.33 128.45 165.42 127.88 C 164.52 127.32 163.33 127.59 162.76 128.50 Z M 162.29 129.31 L 161.69 130.24 C 161.12 131.12 161.38 132.30 162.26 132.87 C 163.14 133.44 164.32 133.19 164.89 132.30 L 165.49 131.37 C 166.06 130.49 165.80 129.31 164.92 128.74 C 164.04 128.17 162.86 128.43 162.29 129.31 Z M 161.73 130.24 L 161.23 130.99 C 160.66 131.85 160.90 133.01 161.77 133.58 C 162.63 134.15 163.79 133.91 164.36 133.05 L 164.85 132.30 C 165.42 131.44 165.18 130.28 164.32 129.71 C 163.46 129.14 162.30 129.38 161.73 130.24 Z M 161.27 131.00 L 160.72 131.83 C 160.16 132.67 160.38 133.81 161.23 134.38 C 162.07 134.94 163.21 134.71 163.78 133.86 L 164.33 133.04 C 164.89 132.19 164.66 131.05 163.81 130.49 C 162.97 129.93 161.83 130.16 161.27 131.00 Z M 160.75 131.85 L 160.16 132.72 C 159.61 133.55 159.83 134.67 160.66 135.22 C 161.48 135.78 162.60 135.56 163.15 134.73 L 163.74 133.85 C 164.30 133.02 164.08 131.90 163.25 131.35 C 162.42 130.80 161.30 131.02 160.75 131.85 Z M 160.19 132.74 L 159.60 133.63 C 159.05 134.44 159.27 135.53 160.08 136.08 C 160.89 136.62 161.99 136.41 162.53 135.60 L 163.12 134.71 C 163.67 133.90 163.45 132.80 162.64 132.26 C 161.83 131.72 160.73 131.93 160.19 132.74 Z"
      fill="black"
      fill-rule="nonzero" /><path d="M 147.05 129.69 L 147.30 130.71 C 147.53 131.60 148.43 132.14 149.32 131.92 C 150.21 131.69 150.75 130.79 150.53 129.90 L 150.27 128.88 C 150.05 127.99 149.14 127.45 148.25 127.67 C 147.36 127.90 146.82 128.80 147.05 129.69 Z M 147.15 130.68 L 147.36 131.67 C 147.57 132.64 148.53 133.27 149.50 133.06 C 150.47 132.85 151.09 131.90 150.89 130.92 L 150.68 129.93 C 150.47 128.96 149.52 128.34 148.54 128.54 C 147.57 128.75 146.95 129.70 147.15 130.68 Z M 147.20 131.53 L 147.32 132.48 C 147.45 133.54 148.42 134.30 149.48 134.17 C 150.54 134.03 151.30 133.07 151.17 132.00 L 151.05 131.06 C 150.92 130.00 149.95 129.24 148.89 129.37 C 147.83 129.50 147.07 130.47 147.20 131.53 Z M 147.22 132.18 L 147.19 133.17 C 147.15 134.29 148.03 135.23 149.15 135.26 C 150.27 135.30 151.20 134.42 151.24 133.30 L 151.27 132.30 C 151.30 131.18 150.42 130.25 149.30 130.21 C 148.19 130.18 147.25 131.06 147.22 132.18 Z M 147.20 132.85 L 147.01 133.82 C 146.80 134.93 147.53 136.00 148.65 136.21 C 149.76 136.43 150.83 135.70 151.04 134.58 L 151.23 133.62 C 151.44 132.51 150.71 131.43 149.60 131.22 C 148.48 131.01 147.41 131.74 147.20 132.85 Z M 147.04 133.63 L 146.77 134.59 C 146.46 135.68 147.09 136.83 148.19 137.14 C 149.28 137.45 150.43 136.82 150.74 135.72 L 151.01 134.77 C 151.33 133.67 150.69 132.53 149.60 132.22 C 148.50 131.90 147.36 132.54 147.04 133.63 Z M 146.78 134.53 L 146.49 135.44 C 146.15 136.54 146.75 137.70 147.85 138.04 C 148.94 138.39 150.10 137.78 150.44 136.69 L 150.73 135.78 C 151.07 134.69 150.47 133.52 149.38 133.18 C 148.29 132.83 147.12 133.44 146.78 134.53 Z M 146.50 135.42 L 146.18 136.38 C 145.82 137.46 146.42 138.64 147.50 138.99 C 148.59 139.35 149.76 138.76 150.12 137.67 L 150.44 136.72 C 150.80 135.63 150.20 134.46 149.12 134.10 C 148.03 133.74 146.86 134.33 146.50 135.42 Z M 146.19 136.36 L 145.85 137.34 C 145.48 138.43 146.07 139.60 147.15 139.97 C 148.24 140.34 149.42 139.76 149.79 138.67 L 150.12 137.69 C 150.49 136.60 149.91 135.42 148.82 135.06 C 147.73 134.69 146.55 135.27 146.19 136.36 Z M 145.85 137.33 L 145.54 138.23 C 145.17 139.32 145.74 140.50 146.83 140.88 C 147.91 141.25 149.10 140.68 149.47 139.59 L 149.79 138.69 C 150.16 137.60 149.59 136.42 148.50 136.04 C 147.41 135.66 146.23 136.24 145.85 137.33 Z M 145.54 138.22 L 145.21 139.16 C 144.83 140.24 145.39 141.43 146.48 141.82 C 147.56 142.20 148.75 141.63 149.14 140.55 L 149.47 139.61 C 149.85 138.52 149.29 137.33 148.20 136.95 C 147.12 136.57 145.93 137.13 145.54 138.22 Z M 145.22 139.14 L 144.86 140.11 C 144.47 141.19 145.02 142.39 146.10 142.78 C 147.19 143.18 148.38 142.62 148.78 141.54 L 149.13 140.57 C 149.53 139.49 148.97 138.29 147.89 137.89 C 146.81 137.50 145.61 138.06 145.22 139.14 Z M 144.87 140.09 L 144.52 141.01 C 144.11 142.09 144.66 143.29 145.73 143.70 C 146.81 144.11 148.02 143.56 148.42 142.48 L 148.77 141.56 C 149.18 140.48 148.63 139.28 147.56 138.87 C 146.48 138.47 145.27 139.01 144.87 140.09 Z M 144.53 140.99 L 144.17 141.91 C 143.75 142.98 144.28 144.19 145.36 144.61 C 146.43 145.03 147.64 144.50 148.06 143.42 L 148.41 142.51 C 148.83 141.43 148.30 140.22 147.23 139.80 C 146.15 139.38 144.94 139.92 144.53 140.99 Z M 144.18 141.88 L 143.80 142.82 C 143.37 143.89 143.89 145.11 144.96 145.54 C 146.03 145.97 147.24 145.45 147.67 144.38 L 148.05 143.44 C 148.48 142.37 147.96 141.16 146.89 140.73 C 145.82 140.30 144.61 140.82 144.18 141.88 Z M 143.81 142.80 L 143.41 143.75 C 142.97 144.82 143.48 146.04 144.54 146.48 C 145.60 146.92 146.83 146.42 147.27 145.35 L 147.66 144.40 C 148.11 143.34 147.60 142.12 146.54 141.67 C 145.47 141.23 144.25 141.74 143.81 142.80 Z M 143.42 143.73 L 143.03 144.64 C 142.58 145.70 143.07 146.93 144.13 147.38 C 145.19 147.83 146.42 147.34 146.87 146.28 L 147.26 145.38 C 147.71 144.32 147.22 143.09 146.16 142.63 C 145.10 142.18 143.88 142.67 143.42 143.73 Z M 143.04 144.61 L 142.64 145.52 C 142.17 146.57 142.65 147.81 143.70 148.28 C 144.75 148.74 145.99 148.27 146.45 147.22 L 146.86 146.31 C 147.33 145.26 146.85 144.02 145.80 143.55 C 144.75 143.09 143.51 143.56 143.04 144.61 Z M 142.65 145.49 L 142.23 146.40 C 141.75 147.45 142.20 148.69 143.25 149.17 C 144.29 149.66 145.53 149.20 146.02 148.16 L 146.44 147.25 C 146.93 146.20 146.47 144.96 145.43 144.48 C 144.38 143.99 143.14 144.45 142.65 145.49 Z M 142.25 146.37 L 141.80 147.28 C 141.30 148.32 141.73 149.56 142.77 150.07 C 143.80 150.57 145.05 150.14 145.56 149.11 L 146.00 148.19 C 146.51 147.16 146.07 145.91 145.04 145.40 C 144.00 144.90 142.75 145.33 142.25 146.37 Z M 141.82 147.24 L 141.38 148.12 C 140.85 149.14 141.25 150.40 142.28 150.92 C 143.31 151.45 144.56 151.05 145.09 150.02 L 145.54 149.14 C 146.06 148.12 145.66 146.86 144.63 146.34 C 143.61 145.81 142.35 146.22 141.82 147.24 Z M 141.40 148.08 L 140.93 148.95 C 140.39 149.96 140.77 151.22 141.78 151.77 C 142.79 152.31 144.06 151.93 144.60 150.92 L 145.07 150.06 C 145.61 149.04 145.23 147.78 144.22 147.23 C 143.21 146.69 141.94 147.07 141.40 148.08 Z M 140.95 148.91 L 140.46 149.78 C 139.90 150.79 140.26 152.06 141.26 152.62 C 142.26 153.18 143.53 152.82 144.09 151.82 L 144.58 150.95 C 145.14 149.95 144.79 148.68 143.78 148.12 C 142.78 147.55 141.51 147.91 140.95 148.91 Z M 140.48 149.76 L 139.97 150.64 C 139.39 151.63 139.73 152.91 140.72 153.48 C 141.72 154.06 142.99 153.72 143.57 152.73 L 144.08 151.85 C 144.65 150.85 144.32 149.58 143.32 149.00 C 142.33 148.43 141.06 148.77 140.48 149.76 Z M 139.98 150.62 L 139.46 151.49 C 138.88 152.47 139.20 153.75 140.18 154.34 C 141.17 154.92 142.44 154.60 143.03 153.62 L 143.55 152.75 C 144.14 151.76 143.82 150.49 142.83 149.90 C 141.85 149.31 140.57 149.63 139.98 150.62 Z M 139.48 151.47 L 138.96 152.32 C 138.36 153.30 138.67 154.57 139.65 155.17 C 140.63 155.77 141.90 155.46 142.50 154.48 L 143.02 153.64 C 143.61 152.66 143.31 151.38 142.33 150.78 C 141.35 150.19 140.08 150.50 139.48 151.47 Z M 138.97 152.30 L 138.44 153.16 C 137.84 154.13 138.13 155.40 139.10 156.01 C 140.07 156.62 141.35 156.32 141.95 155.35 L 142.48 154.50 C 143.09 153.53 142.80 152.25 141.83 151.65 C 140.86 151.04 139.58 151.34 138.97 152.30 Z M 138.46 153.14 L 137.91 153.99 C 137.30 154.95 137.58 156.23 138.54 156.85 C 139.50 157.46 140.78 157.18 141.39 156.22 L 141.94 155.37 C 142.55 154.41 142.27 153.13 141.31 152.51 C 140.35 151.90 139.07 152.18 138.46 153.14 Z M 137.93 153.97 L 137.38 154.81 C 136.75 155.77 137.02 157.04 137.97 157.67 C 138.93 158.29 140.21 158.03 140.83 157.07 L 141.38 156.24 C 142.00 155.28 141.74 154.00 140.78 153.38 C 139.83 152.75 138.55 153.02 137.93 153.97 Z M 137.40 154.79 L 136.83 155.63 C 136.20 156.58 136.45 157.86 137.39 158.49 C 138.33 159.13 139.61 158.87 140.25 157.93 L 140.81 157.09 C 141.45 156.15 141.20 154.87 140.25 154.23 C 139.31 153.60 138.03 153.85 137.40 154.79 Z M 136.85 155.62 L 136.28 156.44 C 135.64 157.38 135.87 158.66 136.80 159.30 C 137.74 159.94 139.02 159.71 139.66 158.77 L 140.23 157.95 C 140.87 157.01 140.64 155.74 139.70 155.09 C 138.77 154.45 137.49 154.68 136.85 155.62 Z M 136.30 156.43 L 135.72 157.24 C 135.07 158.17 135.29 159.44 136.21 160.09 C 137.14 160.75 138.42 160.53 139.07 159.60 L 139.64 158.79 C 140.29 157.87 140.07 156.59 139.15 155.94 C 138.23 155.29 136.95 155.51 136.30 156.43 Z M 135.74 157.23 L 135.16 158.03 C 134.50 158.95 134.71 160.22 135.62 160.88 C 136.54 161.54 137.81 161.34 138.47 160.42 L 139.05 159.62 C 139.71 158.70 139.50 157.43 138.59 156.77 C 137.67 156.11 136.40 156.31 135.74 157.23 Z M 135.17 158.02 L 134.59 158.82 C 133.92 159.73 134.12 161.00 135.02 161.67 C 135.93 162.33 137.20 162.14 137.87 161.23 L 138.46 160.43 C 139.12 159.53 138.93 158.25 138.02 157.59 C 137.11 156.92 135.84 157.12 135.17 158.02 Z M 134.60 158.82 L 134.00 159.62 C 133.33 160.51 133.52 161.79 134.41 162.46 C 135.31 163.13 136.58 162.94 137.25 162.04 L 137.85 161.24 C 138.52 160.34 138.34 159.07 137.44 158.40 C 136.54 157.73 135.27 157.92 134.60 158.82 Z M 134.02 159.61 L 133.41 160.41 C 132.74 161.30 132.91 162.57 133.80 163.24 C 134.69 163.91 135.96 163.74 136.63 162.85 L 137.24 162.05 C 137.91 161.16 137.74 159.89 136.85 159.22 C 135.96 158.54 134.69 158.72 134.02 159.61 Z M 133.42 160.40 L 132.81 161.20 C 132.14 162.08 132.30 163.34 133.19 164.02 C 134.07 164.70 135.33 164.53 136.01 163.65 L 136.62 162.86 C 137.30 161.97 137.13 160.71 136.25 160.03 C 135.37 159.35 134.10 159.52 133.42 160.40 Z M 132.83 161.19 L 132.21 161.98 C 131.53 162.85 131.69 164.12 132.57 164.80 C 133.44 165.48 134.71 165.32 135.39 164.44 L 136.00 163.66 C 136.68 162.78 136.52 161.52 135.65 160.84 C 134.77 160.16 133.51 160.31 132.83 161.19 Z M 132.23 161.97 L 131.60 162.78 C 130.91 163.64 131.06 164.90 131.93 165.59 C 132.80 166.27 134.06 166.12 134.74 165.25 L 135.37 164.45 C 136.06 163.58 135.91 162.32 135.04 161.64 C 134.17 160.96 132.91 161.11 132.23 161.97 Z M 131.61 162.77 L 130.98 163.57 C 130.29 164.43 130.43 165.68 131.29 166.37 C 132.15 167.05 133.41 166.91 134.09 166.05 L 134.73 165.25 C 135.41 164.39 135.27 163.14 134.41 162.46 C 133.55 161.77 132.30 161.91 131.61 162.77 Z M 130.99 163.56 L 130.37 164.34 C 129.68 165.19 129.81 166.44 130.66 167.13 C 131.51 167.82 132.76 167.68 133.45 166.83 L 134.08 166.05 C 134.77 165.20 134.63 163.95 133.78 163.27 C 132.93 162.58 131.68 162.71 130.99 163.56 Z M 130.38 164.33 L 129.76 165.09 C 129.07 165.93 129.19 167.18 130.03 167.87 C 130.87 168.56 132.12 168.44 132.81 167.60 L 133.43 166.84 C 134.12 166.00 134.00 164.75 133.16 164.06 C 132.32 163.37 131.07 163.49 130.38 164.33 Z M 129.78 165.09 L 129.13 165.86 C 128.44 166.69 128.55 167.93 129.38 168.62 C 130.21 169.32 131.45 169.21 132.14 168.38 L 132.79 167.60 C 133.49 166.77 133.37 165.53 132.54 164.84 C 131.71 164.14 130.47 164.25 129.78 165.09 Z M 129.15 165.85 L 128.48 166.64 C 127.78 167.46 127.88 168.69 128.70 169.39 C 129.52 170.09 130.75 169.99 131.45 169.17 L 132.12 168.38 C 132.82 167.57 132.72 166.33 131.90 165.63 C 131.09 164.93 129.85 165.03 129.15 165.85 Z M 128.51 166.63 L 127.85 167.38 C 127.14 168.18 127.22 169.41 128.03 170.12 C 128.84 170.82 130.06 170.74 130.77 169.93 L 131.43 169.18 C 132.13 168.38 132.05 167.15 131.24 166.44 C 130.44 165.74 129.21 165.82 128.51 166.63 Z M 127.88 167.37 L 127.23 168.08 C 126.52 168.87 126.58 170.09 127.37 170.81 C 128.16 171.52 129.38 171.45 130.10 170.66 L 130.74 169.95 C 131.45 169.16 131.39 167.94 130.60 167.22 C 129.81 166.51 128.59 166.57 127.88 167.37 Z M 127.26 168.07 L 126.57 168.81 C 125.85 169.58 125.90 170.79 126.67 171.51 C 127.44 172.23 128.65 172.19 129.37 171.42 L 130.06 170.68 C 130.78 169.90 130.74 168.69 129.97 167.97 C 129.19 167.25 127.98 167.30 127.26 168.07 Z M 126.62 168.80 L 125.90 169.53 C 125.18 170.28 125.20 171.48 125.95 172.21 C 126.70 172.93 127.90 172.91 128.62 172.16 L 129.33 171.43 C 130.06 170.68 130.04 169.48 129.29 168.75 C 128.54 168.03 127.34 168.05 126.62 168.80 Z M 125.95 169.53 L 125.25 170.22 C 124.52 170.95 124.52 172.13 125.25 172.86 C 125.97 173.59 127.16 173.59 127.88 172.86 L 128.58 172.17 C 129.31 171.44 129.31 170.26 128.58 169.53 C 127.86 168.80 126.68 168.80 125.95 169.53 Z M 125.29 170.22 L 124.59 170.90 C 123.86 171.60 123.84 172.77 124.54 173.50 C 125.25 174.23 126.41 174.25 127.14 173.54 L 127.84 172.86 C 128.57 172.16 128.59 170.99 127.89 170.26 C 127.19 169.53 126.02 169.51 125.29 170.22 Z M 124.66 170.88 L 123.88 171.58 C 123.14 172.25 123.08 173.39 123.75 174.13 C 124.41 174.87 125.55 174.93 126.29 174.26 L 127.07 173.56 C 127.81 172.89 127.87 171.75 127.20 171.01 C 126.54 170.27 125.40 170.21 124.66 170.88 Z M 124.03 171.51 L 123.25 172.09 C 122.46 172.67 122.30 173.78 122.88 174.56 C 123.47 175.34 124.57 175.50 125.35 174.92 L 126.14 174.34 C 126.92 173.76 127.08 172.65 126.50 171.87 C 125.92 171.09 124.81 170.93 124.03 171.51 Z M 123.53 171.96 L 122.68 172.39 C 121.83 172.81 121.48 173.85 121.90 174.70 C 122.33 175.55 123.36 175.90 124.22 175.48 L 125.07 175.05 C 125.92 174.63 126.27 173.59 125.84 172.74 C 125.42 171.89 124.38 171.54 123.53 171.96 Z M 123.04 172.29 L 122.08 172.53 C 121.17 172.76 120.62 173.67 120.85 174.58 C 121.07 175.48 121.99 176.03 122.89 175.81 L 123.86 175.57 C 124.76 175.34 125.31 174.43 125.09 173.52 C 124.86 172.62 123.94 172.07 123.04 172.29 Z M 122.30 172.53 L 121.31 172.64 C 120.40 172.74 119.75 173.56 119.85 174.47 C 119.95 175.37 120.77 176.03 121.68 175.92 L 122.67 175.81 C 123.58 175.71 124.23 174.89 124.12 173.99 C 124.02 173.08 123.20 172.43 122.30 172.53 Z M 121.36 172.66 L 121.14 172.68 C 120.25 172.75 119.58 173.54 119.65 174.43 C 119.72 175.33 120.51 176.00 121.41 175.92 L 121.62 175.91 C 122.52 175.83 123.19 175.05 123.12 174.15 C 123.04 173.25 122.26 172.59 121.36 172.66 Z"
      fill="black"
      fill-rule="nonzero" /><path d="M 145.20 152.50 L 144.18 152.63 C 143.24 152.75 142.57 153.62 142.69 154.56 C 142.81 155.51 143.68 156.18 144.62 156.06 L 145.65 155.92 C 146.59 155.80 147.26 154.94 147.14 153.99 C 147.02 153.04 146.15 152.38 145.20 152.50 Z M 142.52 154.85 L 142.70 155.52 C 142.98 156.56 144.05 157.17 145.09 156.89 C 146.13 156.61 146.74 155.54 146.46 154.51 L 146.29 153.84 C 146.01 152.80 144.94 152.18 143.90 152.46 C 142.86 152.74 142.24 153.81 142.52 154.85 Z M 143.13 156.46 L 143.70 157.04 C 144.50 157.84 145.80 157.85 146.61 157.05 C 147.41 156.25 147.41 154.94 146.61 154.14 L 146.04 153.56 C 145.24 152.76 143.94 152.75 143.13 153.55 C 142.33 154.36 142.33 155.66 143.13 156.46 Z M 143.79 157.16 L 144.58 157.84 C 145.45 158.60 146.76 158.51 147.51 157.64 C 148.27 156.77 148.18 155.46 147.31 154.71 L 146.52 154.02 C 145.66 153.27 144.34 153.36 143.59 154.22 C 142.84 155.09 142.93 156.40 143.79 157.16 Z M 144.62 157.90 L 145.50 158.63 C 146.40 159.36 147.72 159.23 148.46 158.33 C 149.19 157.43 149.06 156.10 148.16 155.37 L 147.28 154.65 C 146.38 153.91 145.05 154.04 144.32 154.94 C 143.58 155.84 143.72 157.17 144.62 157.90 Z M 145.50 158.66 L 146.37 159.35 C 147.28 160.08 148.62 159.93 149.36 159.01 C 150.09 158.09 149.94 156.75 149.02 156.02 L 148.16 155.33 C 147.24 154.60 145.90 154.75 145.17 155.67 C 144.43 156.59 144.59 157.93 145.50 158.66 Z M 146.35 159.35 L 147.29 160.11 C 148.22 160.85 149.56 160.70 150.30 159.78 C 151.04 158.86 150.90 157.51 149.97 156.77 L 149.03 156.01 C 148.11 155.27 146.76 155.42 146.02 156.34 C 145.28 157.27 145.43 158.61 146.35 159.35 Z M 147.27 160.09 L 148.04 160.73 C 148.95 161.49 150.30 161.36 151.06 160.45 C 151.81 159.54 151.69 158.18 150.78 157.43 L 150.00 156.79 C 149.09 156.03 147.74 156.16 146.98 157.07 C 146.23 157.98 146.35 159.34 147.27 160.09 Z M 148.00 160.70 L 148.65 161.26 C 149.54 162.04 150.90 161.94 151.67 161.05 C 152.45 160.16 152.36 158.80 151.46 158.02 L 150.81 157.46 C 149.92 156.68 148.56 156.78 147.79 157.67 C 147.01 158.57 147.11 159.92 148.00 160.70 Z M 148.61 161.23 L 149.28 161.84 C 150.15 162.64 151.51 162.57 152.31 161.70 C 153.11 160.82 153.04 159.47 152.17 158.67 L 151.50 158.06 C 150.63 157.26 149.27 157.32 148.47 158.20 C 147.67 159.07 147.74 160.43 148.61 161.23 Z M 149.26 161.81 L 149.98 162.49 C 150.84 163.30 152.19 163.26 153.00 162.40 C 153.81 161.54 153.77 160.18 152.91 159.37 L 152.19 158.69 C 151.33 157.88 149.97 157.93 149.16 158.79 C 148.35 159.65 148.40 161.00 149.26 161.81 Z M 149.98 162.48 L 150.72 163.19 C 151.58 164.00 152.93 163.96 153.74 163.10 C 154.55 162.25 154.52 160.90 153.66 160.09 L 152.91 159.38 C 152.06 158.57 150.70 158.61 149.89 159.46 C 149.08 160.32 149.12 161.67 149.98 162.48 Z M 150.74 163.19 L 151.47 163.88 C 152.33 164.68 153.67 164.63 154.48 163.77 C 155.28 162.91 155.24 161.56 154.38 160.76 L 153.65 160.08 C 152.79 159.28 151.44 159.32 150.63 160.18 C 149.83 161.04 149.88 162.39 150.74 163.19 Z M 151.48 163.88 L 152.21 164.56 C 153.07 165.35 154.42 165.30 155.22 164.44 C 156.01 163.58 155.96 162.23 155.10 161.43 L 154.36 160.76 C 153.50 159.96 152.16 160.01 151.36 160.88 C 150.56 161.74 150.62 163.08 151.48 163.88 Z M 152.21 164.55 L 152.96 165.24 C 153.82 166.03 155.16 165.98 155.95 165.12 C 156.75 164.26 156.69 162.92 155.83 162.12 L 155.09 161.44 C 154.23 160.64 152.89 160.70 152.10 161.56 C 151.30 162.42 151.35 163.76 152.21 164.55 Z M 152.95 165.23 L 153.68 165.91 C 154.54 166.70 155.87 166.66 156.67 165.80 C 157.46 164.95 157.42 163.61 156.57 162.82 L 155.84 162.14 C 154.98 161.34 153.65 161.39 152.85 162.24 C 152.05 163.09 152.10 164.43 152.95 165.23 Z M 153.69 165.89 L 154.41 166.57 C 155.26 167.37 156.59 167.33 157.38 166.48 C 158.18 165.63 158.13 164.30 157.29 163.51 L 156.56 162.83 C 155.72 162.04 154.39 162.08 153.59 162.92 C 152.80 163.77 152.84 165.10 153.69 165.89 Z M 154.43 166.57 L 155.16 167.25 C 156.00 168.04 157.33 168.00 158.11 167.15 C 158.90 166.31 158.85 164.99 158.01 164.20 L 157.27 163.51 C 156.43 162.73 155.11 162.77 154.32 163.62 C 153.54 164.46 153.58 165.78 154.43 166.57 Z M 155.18 167.26 L 155.92 167.93 C 156.76 168.70 158.07 168.65 158.85 167.80 C 159.62 166.96 159.56 165.64 158.72 164.87 L 157.99 164.20 C 157.14 163.42 155.83 163.48 155.06 164.33 C 154.28 165.17 154.34 166.48 155.18 167.26 Z M 155.94 167.93 L 156.68 168.59 C 157.52 169.35 158.83 169.28 159.58 168.43 C 160.34 167.59 160.27 166.29 159.43 165.53 L 158.69 164.87 C 157.85 164.11 156.54 164.18 155.79 165.02 C 155.03 165.87 155.10 167.17 155.94 167.93 Z M 156.71 168.59 L 157.46 169.26 C 158.31 170.00 159.60 169.92 160.34 169.07 C 161.09 168.22 161.00 166.93 160.16 166.19 L 159.40 165.52 C 158.55 164.78 157.26 164.86 156.52 165.71 C 155.77 166.56 155.86 167.85 156.71 168.59 Z M 157.49 169.26 L 158.27 169.92 C 159.11 170.65 160.39 170.55 161.12 169.71 C 161.85 168.86 161.75 167.58 160.90 166.85 L 160.13 166.19 C 159.28 165.46 158.00 165.55 157.27 166.40 C 156.54 167.25 156.64 168.53 157.49 169.26 Z M 158.30 169.92 L 159.07 170.57 C 159.92 171.28 161.18 171.17 161.89 170.33 C 162.60 169.48 162.50 168.22 161.65 167.51 L 160.87 166.86 C 160.03 166.14 158.76 166.25 158.05 167.10 C 157.34 167.95 157.45 169.21 158.30 169.92 Z M 159.11 170.56 L 159.88 171.20 C 160.72 171.90 161.97 171.78 162.66 170.94 C 163.35 170.10 163.24 168.86 162.40 168.16 L 161.62 167.52 C 160.78 166.83 159.54 166.95 158.84 167.79 C 158.15 168.62 158.27 169.87 159.11 170.56 Z M 159.91 171.19 L 160.67 171.81 C 161.50 172.49 162.73 172.36 163.41 171.53 C 164.08 170.70 163.96 169.48 163.13 168.80 L 162.37 168.18 C 161.54 167.50 160.31 167.63 159.64 168.46 C 158.96 169.29 159.08 170.51 159.91 171.19 Z M 160.70 171.80 L 161.51 172.45 C 162.33 173.11 163.54 172.98 164.20 172.15 C 164.86 171.33 164.73 170.13 163.91 169.46 L 163.10 168.81 C 162.28 168.15 161.07 168.28 160.41 169.10 C 159.75 169.93 159.88 171.13 160.70 171.80 Z M 161.54 172.44 L 162.33 173.06 C 163.15 173.70 164.33 173.56 164.98 172.74 C 165.62 171.92 165.48 170.74 164.66 170.09 L 163.87 169.47 C 163.06 168.83 161.87 168.97 161.23 169.79 C 160.58 170.61 160.73 171.79 161.54 172.44 Z M 162.38 173.05 L 163.14 173.63 C 163.96 174.25 165.12 174.09 165.74 173.27 C 166.36 172.46 166.20 171.29 165.38 170.67 L 164.62 170.09 C 163.80 169.48 162.63 169.64 162.02 170.46 C 161.40 171.27 161.56 172.44 162.38 173.05 Z M 163.20 173.64 L 164.03 174.23 C 164.85 174.81 165.98 174.63 166.57 173.81 C 167.16 172.99 166.97 171.85 166.15 171.26 L 165.33 170.67 C 164.51 170.09 163.37 170.27 162.78 171.09 C 162.19 171.91 162.38 173.05 163.20 173.64 Z M 164.08 174.22 L 164.90 174.79 C 165.72 175.35 166.83 175.14 167.39 174.33 C 167.95 173.51 167.74 172.40 166.93 171.84 L 166.10 171.27 C 165.29 170.71 164.17 170.92 163.61 171.73 C 163.06 172.55 163.26 173.66 164.08 174.22 Z M 164.94 174.77 L 165.73 175.30 C 166.53 175.84 167.62 175.63 168.16 174.83 C 168.70 174.02 168.49 172.93 167.69 172.39 L 166.89 171.86 C 166.09 171.32 165.00 171.53 164.46 172.33 C 163.92 173.14 164.13 174.23 164.94 174.77 Z M 165.75 175.28 L 166.49 175.77 C 167.28 176.30 168.35 176.08 168.87 175.29 C 169.40 174.50 169.19 173.43 168.40 172.90 L 167.66 172.41 C 166.87 171.88 165.80 172.10 165.27 172.89 C 164.75 173.68 164.96 174.75 165.75 175.28 Z M 166.52 175.76 L 167.35 176.29 C 168.14 176.80 169.19 176.58 169.69 175.79 C 170.20 175.00 169.98 173.95 169.19 173.45 L 168.36 172.91 C 167.57 172.40 166.52 172.63 166.02 173.42 C 165.51 174.20 165.74 175.25 166.52 175.76 Z M 167.39 176.29 L 168.34 176.87 C 169.12 177.36 170.15 177.12 170.63 176.33 C 171.12 175.55 170.88 174.52 170.09 174.04 L 169.15 173.45 C 168.36 172.97 167.34 173.21 166.85 173.99 C 166.37 174.78 166.61 175.80 167.39 176.29 Z M 168.37 176.87 L 169.12 177.32 C 169.90 177.79 170.92 177.54 171.38 176.76 C 171.85 175.97 171.60 174.96 170.82 174.49 L 170.06 174.04 C 169.28 173.57 168.27 173.82 167.80 174.61 C 167.33 175.39 167.59 176.40 168.37 176.87 Z M 169.14 177.32 L 169.98 177.81 C 170.75 178.27 171.76 178.01 172.22 177.24 C 172.68 176.46 172.42 175.45 171.64 174.99 L 170.80 174.50 C 170.02 174.04 169.02 174.30 168.56 175.07 C 168.10 175.85 168.36 176.86 169.14 177.32 Z M 169.99 177.80 L 170.89 178.33 C 171.66 178.78 172.66 178.52 173.11 177.75 C 173.56 176.98 173.30 175.98 172.53 175.53 L 171.63 175.00 C 170.85 174.55 169.86 174.81 169.41 175.58 C 168.96 176.36 169.22 177.35 169.99 177.80 Z M 170.90 178.32 L 171.83 178.87 C 172.60 179.31 173.59 179.05 174.04 178.28 C 174.48 177.52 174.22 176.53 173.45 176.08 L 172.52 175.54 C 171.75 175.09 170.76 175.35 170.32 176.12 C 169.87 176.89 170.13 177.87 170.90 178.32 Z M 171.84 178.86 L 172.40 179.18 C 173.16 179.62 174.14 179.37 174.58 178.60 C 175.03 177.84 174.77 176.86 174.00 176.42 L 173.45 176.09 C 172.68 175.65 171.71 175.91 171.26 176.67 C 170.82 177.43 171.08 178.41 171.84 178.86 Z"
      fill="black"
      fill-rule="nonzero" /></svg>