<svg xmlns="http://www.w3.org/2000/svg" width="300" height="300" viewBox="0 0 300 300">
<path d="M 148.60 122.35 L 148.58 123.28 C 148.55 124.20 149.27 124.96 150.19 124.99 C 151.11 125.02 151.88 124.29 151.90 123.37 L 151.93 122.44 C 151.96 121.52 151.24 120.76 150.32 120.73 C 149.40 120.70 148.63 121.43 148.60 122.35 Z M 148.53 123.28 L 148.51 124.26 C 148.48 125.20 149.23 125.99 150.17 126.01 C 151.12 126.03 151.90 125.29 151.93 124.34 L 151.95 123.37 C 151.97 122.43 151.23 121.64 150.28 121.62 C 149.34 121.59 148.56 122.34 148.53 123.28 Z M 148.46 124.27 L 148.44 125.33 C 148.42 126.30 149.20 127.10 150.17 127.11 C 151.13 127.13 151.93 126.36 151.95 125.39 L 151.97 124.33 C 151.99 123.36 151.22 122.56 150.25 122.55 C 149.28 122.53 148.48 123.30 148.46 124.27 Z M 148.41 125.34 L 148.40 126.35 C 148.39 127.34 149.18 128.15 150.17 128.16 C 151.16 128.17 151.97 127.38 151.98 126.39 L 151.99 125.38 C 152.00 124.39 151.20 123.58 150.22 123.57 C 149.23 123.56 148.42 124.35 148.41 125.34 Z M 148.38 126.36 L 148.37 127.38 C 148.37 128.38 149.17 129.19 150.17 129.20 C 151.17 129.20 151.99 128.40 151.99 127.40 L 152.00 126.38 C 152.00 125.38 151.20 124.57 150.20 124.56 C 149.20 124.56 148.38 125.36 148.38 126.36 Z M 148.36 127.38 L 148.35 128.41 C 148.35 129.42 149.17 130.24 150.18 130.24 C 151.18 130.24 152.00 129.43 152.00 128.42 L 152.01 127.39 C 152.01 126.38 151.19 125.56 150.19 125.56 C 149.18 125.56 148.36 126.38 148.36 127.38 Z M 148.34 128.41 L 148.34 129.40 C 148.34 130.42 149.16 131.25 150.18 131.25 C 151.20 131.25 152.02 130.42 152.02 129.40 L 152.02 128.42 C 152.02 127.40 151.20 126.57 150.18 126.57 C 149.16 126.57 148.34 127.40 148.34 128.41 Z M 148.32 129.40 L 148.32 130.46 C 148.32 131.48 149.15 132.31 150.18 132.31 C 151.20 132.31 152.03 131.48 152.03 130.46 L 152.03 129.40 C 152.03 128.38 151.20 127.55 150.18 127.55 C 149.15 127.55 148.32 128.38 148.32 129.40 Z M 148.31 130.46 L 148.31 131.46 C 148.31 132.49 149.15 133.32 150.18 133.32 C 151.21 133.32 152.04 132.49 152.04 131.46 L 152.04 130.46 C 152.04 129.43 151.21 128.59 150.18 128.59 C 149.15 128.59 148.31 129.43 148.31 130.46 Z M 148.30 131.46 L 148.30 132.41 C 148.30 133.45 149.14 134.29 150.18 134.29 C 151.21 134.29 152.05 133.45 152.05 132.41 L 152.05 131.46 C 152.05 130.42 151.21 129.58 150.18 129.58 C 149.14 129.58 148.30 130.42 148.30 131.46 Z M 148.30 132.41 L 148.30 133.36 C 148.30 134.40 149.14 135.25 150.18 135.25 C 151.22 135.25 152.06 134.40 152.06 133.36 L 152.06 132.41 C 152.06 131.37 151.22 130.53 150.18 130.53 C 149.14 130.53 148.30 131.37 148.30 132.41 Z M 148.29 133.36 L 148.29 134.34 C 148.29 135.38 149.13 136.23 150.18 136.23 C 151.22 136.23 152.07 135.38 152.07 134.34 L 152.07 133.36 C 152.07 132.32 151.22 131.47 150.18 131.47 C 149.13 131.47 148.29 132.32 148.29 133.36 Z M 148.28 134.34 L 148.28 135.35 C 148.28 136.40 149.13 137.24 150.18 137.24 C 151.23 137.24 152.08 136.40 152.08 135.35 L 152.08 134.34 C 152.08 133.29 151.23 132.44 150.18 132.44 C 149.13 132.44 148.28 133.29 148.28 134.34 Z M 148.27 135.35 L 148.27 136.38 C 148.27 137.43 149.13 138.29 150.18 138.29 C 151.23 138.29 152.08 137.43 152.08 136.38 L 152.08 135.35 C 152.08 134.30 151.23 133.44 150.18 133.44 C 149.13 133.44 148.27 134.30 148.27 135.35 Z M 148.27 136.38 L 148.27 137.34 C 148.27 138.40 149.12 139.25 150.18 139.25 C 151.23 139.25 152.09 138.40 152.09 137.34 L 152.09 136.38 C 152.09 135.33 151.23 134.47 150.18 134.47 C 149.12 134.47 148.27 135.33 148.27 136.38 Z M 148.26 137.34 L 148.26 138.34 C 148.26 139.39 149.12 140.25 150.18 140.25 C 151.24 140.25 152.09 139.39 152.09 138.34 L 152.09 137.34 C 152.09 136.28 151.24 135.43 150.18 135.43 C 149.12 135.43 148.26 136.28 148.26 137.34 Z M 148.26 138.34 L 148.26 139.36 C 148.26 140.42 149.12 141.28 150.18 141.28 C 151.24 141.28 152.10 140.42 152.10 139.36 L 152.10 138.34 C 152.10 137.28 151.24 136.42 150.18 136.42 C 149.12 136.42 148.26 137.28 148.26 138.34 Z M 148.25 139.36 L 148.25 140.39 C 148.25 141.45 149.12 142.31 150.18 142.31 C 151.24 142.31 152.10 141.45 152.10 140.39 L 152.10 139.36 C 152.10 138.30 151.24 137.44 150.18 137.44 C 149.12 137.44 148.25 138.30 148.25 139.36 Z M 148.25 140.38 L 148.25 141.38 C 148.25 142.44 149.11 143.31 150.18 143.31 C 151.24 143.31 152.11 142.44 152.11 141.38 L 152.11 140.39 C 152.11 139.32 151.25 138.46 150.18 138.46 C 149.12 138.46 148.25 139.32 148.25 140.38 Z M 148.24 141.37 L 148.24 142.37 C 148.24 143.44 149.10 144.31 150.16 144.31 C 151.23 144.32 152.10 143.46 152.11 142.39 L 152.11 141.39 C 152.12 140.32 151.25 139.45 150.19 139.44 C 149.12 139.44 148.25 140.30 148.24 141.37 Z M 148.24 142.36 L 148.23 143.37 C 148.21 144.44 149.07 145.31 150.14 145.32 C 151.21 145.34 152.09 144.48 152.10 143.41 L 152.11 142.40 C 152.12 141.33 151.26 140.46 150.19 140.44 C 149.12 140.43 148.25 141.29 148.24 142.36 Z M 148.22 143.35 L 148.20 144.36 C 148.18 145.43 149.03 146.31 150.10 146.34 C 151.18 146.36 152.06 145.51 152.08 144.43 L 152.10 143.43 C 152.12 142.35 151.27 141.47 150.20 141.45 C 149.13 141.43 148.24 142.28 148.22 143.35 Z M 148.20 144.33 L 148.17 145.35 C 148.13 146.42 148.98 147.32 150.05 147.35 C 151.12 147.39 152.02 146.54 152.05 145.47 L 152.09 144.46 C 152.12 143.38 151.28 142.48 150.20 142.45 C 149.13 142.42 148.23 143.26 148.20 144.33 Z M 148.16 145.33 L 148.12 146.33 C 148.08 147.41 148.91 148.32 149.99 148.36 C 151.06 148.40 151.97 147.57 152.02 146.49 L 152.06 145.49 C 152.10 144.41 151.27 143.51 150.19 143.46 C 149.12 143.42 148.21 144.25 148.16 145.33 Z M 148.12 146.31 L 148.07 147.31 C 148.01 148.38 148.84 149.30 149.92 149.36 C 151.00 149.41 151.92 148.58 151.97 147.50 L 152.02 146.51 C 152.07 145.43 151.24 144.52 150.17 144.46 C 149.09 144.41 148.17 145.24 148.12 146.31 Z M 148.06 147.29 L 148.01 148.28 C 147.95 149.36 148.77 150.28 149.85 150.34 C 150.93 150.41 151.85 149.58 151.92 148.50 L 151.97 147.52 C 152.04 146.44 151.21 145.51 150.13 145.45 C 149.05 145.39 148.13 146.21 148.06 147.29 Z M 148.01 148.26 L 147.94 149.27 C 147.87 150.36 148.69 151.29 149.77 151.36 C 150.85 151.43 151.78 150.61 151.85 149.53 L 151.92 148.52 C 151.99 147.43 151.17 146.50 150.09 146.43 C 149.01 146.36 148.07 147.18 148.01 148.26 Z M 147.94 149.26 L 147.86 150.26 C 147.79 151.34 148.60 152.28 149.68 152.36 C 150.76 152.44 151.71 151.63 151.78 150.54 L 151.86 149.54 C 151.94 148.46 151.12 147.52 150.04 147.44 C 148.96 147.36 148.02 148.18 147.94 149.26 Z M 147.86 150.24 L 147.78 151.23 C 147.69 152.31 148.50 153.26 149.58 153.35 C 150.66 153.44 151.61 152.64 151.70 151.55 L 151.79 150.56 C 151.88 149.48 151.07 148.53 149.99 148.44 C 148.90 148.35 147.95 149.16 147.86 150.24 Z M 147.78 151.21 L 147.69 152.20 C 147.58 153.28 148.38 154.24 149.47 154.35 C 150.55 154.45 151.51 153.65 151.61 152.57 L 151.71 151.58 C 151.81 150.49 151.01 149.53 149.93 149.43 C 148.84 149.33 147.88 150.12 147.78 151.21 Z M 147.69 152.17 L 147.57 153.21 C 147.46 154.29 148.24 155.27 149.33 155.38 C 150.41 155.50 151.39 154.71 151.50 153.63 L 151.61 152.59 C 151.73 151.51 150.94 150.54 149.86 150.42 C 148.77 150.30 147.80 151.09 147.69 152.17 Z M 147.57 153.18 L 147.45 154.19 C 147.32 155.27 148.09 156.26 149.18 156.39 C 150.26 156.52 151.25 155.75 151.38 154.66 L 151.50 153.66 C 151.64 152.57 150.86 151.59 149.78 151.45 C 148.69 151.32 147.71 152.09 147.57 153.18 Z M 147.45 154.16 L 147.32 155.12 C 147.17 156.20 147.93 157.20 149.01 157.35 C 150.10 157.50 151.10 156.74 151.25 155.66 L 151.38 154.70 C 151.53 153.61 150.77 152.61 149.69 152.46 C 148.60 152.31 147.60 153.07 147.45 154.16 Z M 147.32 155.08 L 147.16 156.07 C 146.99 157.16 147.73 158.17 148.82 158.35 C 149.90 158.52 150.92 157.78 151.09 156.69 L 151.25 155.70 C 151.42 154.61 150.68 153.60 149.59 153.43 C 148.51 153.26 147.49 154.00 147.32 155.08 Z M 147.17 156.03 L 146.99 157.04 C 146.79 158.12 147.51 159.15 148.59 159.35 C 149.67 159.54 150.71 158.83 150.90 157.74 L 151.09 156.74 C 151.28 155.65 150.56 154.62 149.48 154.42 C 148.40 154.23 147.36 154.95 147.17 156.03 Z M 146.99 157.00 L 146.80 157.95 C 146.59 159.03 147.29 160.08 148.37 160.29 C 149.45 160.51 150.50 159.81 150.71 158.73 L 150.90 157.78 C 151.11 156.70 150.41 155.65 149.33 155.44 C 148.25 155.22 147.20 155.92 146.99 157.00 Z M 146.80 157.93 L 146.60 158.89 C 146.38 159.97 147.07 161.02 148.15 161.25 C 149.23 161.47 150.29 160.78 150.51 159.70 L 150.71 158.74 C 150.94 157.66 150.24 156.61 149.16 156.38 C 148.08 156.16 147.03 156.85 146.80 157.93 Z M 146.61 158.87 L 146.39 159.85 C 146.16 160.93 146.84 162.00 147.92 162.23 C 149.00 162.46 150.07 161.78 150.30 160.70 L 150.51 159.72 C 150.75 158.64 150.06 157.57 148.98 157.34 C 147.90 157.11 146.84 157.79 146.61 158.87 Z M 146.40 159.82 L 146.17 160.79 C 145.92 161.86 146.59 162.94 147.67 163.19 C 148.74 163.44 149.82 162.77 150.07 161.70 L 150.29 160.73 C 150.55 159.66 149.88 158.58 148.80 158.33 C 147.73 158.08 146.65 158.75 146.40 159.82 Z M 146.18 160.74 L 145.93 161.71 C 145.65 162.78 146.29 163.88 147.36 164.15 C 148.43 164.43 149.53 163.79 149.81 162.72 L 150.06 161.75 C 150.34 160.68 149.70 159.58 148.63 159.30 C 147.55 159.02 146.46 159.67 146.18 160.74 Z M 145.94 161.67 L 145.67 162.63 C 145.36 163.69 145.98 164.80 147.04 165.11 C 148.11 165.41 149.22 164.79 149.52 163.73 L 149.79 162.77 C 150.10 161.70 149.48 160.59 148.42 160.29 C 147.35 159.98 146.24 160.60 145.94 161.67 Z M 145.67 162.60 L 145.39 163.54 C 145.06 164.60 145.66 165.72 146.72 166.04 C 147.78 166.37 148.90 165.77 149.22 164.71 L 149.51 163.76 C 149.83 162.70 149.23 161.58 148.17 161.26 C 147.12 160.94 146.00 161.54 145.67 162.60 Z M 145.39 163.52 L 145.09 164.48 C 144.75 165.54 145.34 166.66 146.40 167.00 C 147.45 167.33 148.58 166.75 148.91 165.69 L 149.22 164.73 C 149.55 163.67 148.97 162.55 147.91 162.21 C 146.85 161.88 145.73 162.46 145.39 163.52 Z M 145.10 164.46 L 144.78 165.40 C 144.44 166.45 145.01 167.59 146.06 167.93 C 147.11 168.28 148.25 167.71 148.60 166.66 L 148.91 165.71 C 149.25 164.66 148.68 163.53 147.63 163.18 C 146.58 162.83 145.44 163.40 145.10 164.46 Z M 144.79 165.37 L 144.47 166.30 C 144.11 167.35 144.67 168.50 145.71 168.86 C 146.76 169.22 147.91 168.66 148.27 167.61 L 148.59 166.68 C 148.95 165.64 148.39 164.49 147.34 164.13 C 146.30 163.77 145.15 164.33 144.79 165.37 Z M 144.48 166.28 L 144.14 167.21 C 143.77 168.26 144.31 169.41 145.36 169.78 C 146.40 170.16 147.55 169.61 147.92 168.57 L 148.26 167.64 C 148.63 166.59 148.09 165.44 147.05 165.07 C 146.00 164.69 144.85 165.24 144.48 166.28 Z M 144.15 167.19 L 143.80 168.15 C 143.41 169.19 143.94 170.34 144.98 170.73 C 146.02 171.12 147.17 170.59 147.56 169.55 L 147.92 168.59 C 148.30 167.55 147.77 166.40 146.73 166.01 C 145.69 165.62 144.54 166.15 144.15 167.19 Z M 143.81 168.12 L 143.47 168.99 C 143.07 170.02 143.59 171.18 144.62 171.58 C 145.65 171.98 146.81 171.47 147.21 170.44 L 147.55 169.57 C 147.95 168.54 147.44 167.38 146.40 166.98 C 145.37 166.58 144.21 167.09 143.81 168.12 Z M 143.50 168.93 L 143.11 169.84 C 142.68 170.86 143.15 172.03 144.17 172.47 C 145.19 172.90 146.37 172.43 146.80 171.41 L 147.19 170.49 C 147.62 169.48 147.15 168.30 146.13 167.87 C 145.11 167.43 143.93 167.91 143.50 168.93 Z M 143.15 169.75 L 142.68 170.73 C 142.20 171.72 142.62 172.92 143.61 173.40 C 144.61 173.88 145.81 173.46 146.29 172.47 L 146.76 171.49 C 147.24 170.50 146.82 169.30 145.83 168.82 C 144.83 168.34 143.63 168.76 143.15 169.75 Z M 142.73 170.64 L 142.28 171.47 C 141.75 172.44 142.11 173.65 143.08 174.18 C 144.05 174.71 145.26 174.35 145.79 173.38 L 146.24 172.55 C 146.77 171.58 146.41 170.37 145.44 169.84 C 144.47 169.31 143.26 169.67 142.73 170.64 Z M 142.32 171.40 L 141.81 172.26 C 141.24 173.20 141.54 174.43 142.49 175.00 C 143.43 175.56 144.66 175.26 145.23 174.31 L 145.75 173.46 C 146.31 172.51 146.01 171.28 145.06 170.71 C 144.12 170.15 142.89 170.45 142.32 171.40 Z M 141.85 172.19 L 141.29 173.05 C 140.68 173.97 140.93 175.20 141.85 175.81 C 142.77 176.42 144.01 176.16 144.62 175.24 L 145.18 174.38 C 145.79 173.46 145.54 172.23 144.62 171.62 C 143.70 171.01 142.46 171.27 141.85 172.19 Z M 141.34 172.98 L 140.73 173.81 C 140.09 174.70 140.29 175.94 141.18 176.59 C 142.07 177.24 143.31 177.04 143.96 176.15 L 144.56 175.31 C 145.21 174.42 145.01 173.18 144.12 172.53 C 143.23 171.89 141.99 172.09 141.34 172.98 Z M 140.80 173.74 L 140.17 174.52 C 139.48 175.37 139.62 176.62 140.47 177.31 C 141.32 177.99 142.57 177.86 143.25 177.01 L 143.89 176.22 C 144.57 175.37 144.44 174.12 143.59 173.44 C 142.74 172.75 141.49 172.88 140.80 173.74 Z M 140.25 174.45 L 139.58 175.19 C 138.86 175.99 138.92 177.24 139.73 177.97 C 140.53 178.69 141.78 178.63 142.50 177.82 L 143.17 177.08 C 143.90 176.28 143.84 175.03 143.03 174.30 C 142.22 173.58 140.98 173.64 140.25 174.45 Z M 139.68 175.11 L 138.97 175.81 C 138.20 176.56 138.18 177.80 138.94 178.57 C 139.69 179.34 140.93 179.35 141.70 178.60 L 142.41 177.90 C 143.18 177.15 143.19 175.91 142.44 175.14 C 141.68 174.37 140.45 174.36 139.68 175.11 Z M 139.07 175.73 L 138.30 176.39 C 137.49 177.09 137.40 178.31 138.09 179.12 C 138.79 179.93 140.01 180.03 140.82 179.33 L 141.59 178.67 C 142.41 177.98 142.50 176.75 141.81 175.94 C 141.11 175.13 139.89 175.03 139.07 175.73 Z M 138.42 176.32 L 137.59 176.94 C 136.74 177.57 136.56 178.77 137.19 179.62 C 137.82 180.47 139.02 180.65 139.87 180.02 L 140.70 179.40 C 141.56 178.77 141.73 177.57 141.10 176.72 C 140.47 175.87 139.27 175.69 138.42 176.32 Z M 137.72 176.87 L 136.87 177.41 C 135.99 177.97 135.72 179.14 136.28 180.02 C 136.84 180.91 138.01 181.17 138.89 180.61 L 139.74 180.08 C 140.63 179.52 140.89 178.35 140.33 177.47 C 139.78 176.58 138.61 176.32 137.72 176.87 Z M 137.02 177.35 L 136.17 177.79 C 135.26 178.27 134.90 179.40 135.37 180.31 C 135.85 181.23 136.98 181.59 137.90 181.11 L 138.74 180.67 C 139.66 180.20 140.02 179.07 139.54 178.15 C 139.07 177.23 137.94 176.88 137.02 177.35 Z M 136.36 177.74 L 135.43 178.11 C 134.48 178.48 134.01 179.55 134.39 180.49 C 134.76 181.44 135.83 181.91 136.77 181.53 L 137.71 181.17 C 138.65 180.79 139.12 179.73 138.75 178.78 C 138.38 177.83 137.31 177.37 136.36 177.74 Z M 135.64 178.08 L 134.68 178.33 C 133.72 178.58 133.15 179.57 133.40 180.53 C 133.66 181.50 134.65 182.07 135.61 181.82 L 136.56 181.56 C 137.52 181.31 138.10 180.32 137.84 179.36 C 137.59 178.40 136.60 177.82 135.64 178.08 Z M 134.86 178.33 L 133.89 178.49 C 132.93 178.65 132.27 179.55 132.43 180.52 C 132.59 181.48 133.49 182.13 134.46 181.97 L 135.43 181.81 C 136.39 181.66 137.04 180.75 136.89 179.79 C 136.73 178.83 135.82 178.17 134.86 178.33 Z M 134.00 178.51 L 133.03 178.61 C 132.09 178.70 131.39 179.55 131.48 180.49 C 131.58 181.44 132.42 182.14 133.37 182.04 L 134.34 181.95 C 135.29 181.86 135.98 181.01 135.89 180.06 C 135.80 179.12 134.95 178.42 134.00 178.51 Z M 133.10 178.64 L 132.11 178.70 C 131.18 178.76 130.47 179.56 130.53 180.49 C 130.59 181.42 131.39 182.13 132.31 182.07 L 133.30 182.01 C 134.23 181.95 134.94 181.15 134.89 180.22 C 134.83 179.30 134.03 178.59 133.10 178.64 Z M 132.15 178.74 L 131.13 178.78 C 130.22 178.81 129.51 179.58 129.55 180.49 C 129.58 181.40 130.35 182.11 131.26 182.07 L 132.28 182.03 C 133.19 182.00 133.90 181.23 133.86 180.32 C 133.82 179.41 133.06 178.70 132.15 178.74 Z M 131.15 178.81 L 130.41 178.83 C 129.52 178.86 128.82 179.61 128.85 180.50 C 128.88 181.39 129.62 182.09 130.51 182.06 L 131.24 182.04 C 132.14 182.01 132.84 181.27 132.81 180.38 C 132.78 179.49 132.04 178.79 131.15 178.81 Z"
      fill="black"
      fill-rule="nonzero" /></svg>