<svg xmlns="http://www.w3.org/2000/svg" width="300" height="300" viewBox="0 0 300 300">
<path d="M 134.92 126.48 L 135.70 127.01 C 136.55 127.58 137.70 127.35 138.27 126.50 C 138.85 125.66 138.62 124.50 137.77 123.93 L 136.99 123.40 C 136.14 122.83 134.99 123.06 134.41 123.91 C 133.84 124.75 134.07 125.91 134.92 126.48 Z M 135.75 127.15 L 136.59 127.65 C 137.52 128.20 138.71 127.89 139.26 126.96 C 139.81 126.03 139.50 124.83 138.57 124.29 L 137.73 123.79 C 136.80 123.24 135.60 123.55 135.06 124.48 C 134.51 125.41 134.82 126.60 135.75 127.15 Z M 136.73 127.84 L 137.69 128.27 C 138.72 128.74 139.94 128.28 140.41 127.25 C 140.87 126.21 140.42 125.00 139.38 124.53 L 138.43 124.10 C 137.39 123.63 136.18 124.09 135.71 125.12 C 135.24 126.15 135.70 127.37 136.73 127.84 Z M 137.90 128.42 L 138.87 128.72 C 139.98 129.07 141.17 128.45 141.52 127.34 C 141.87 126.22 141.25 125.04 140.14 124.69 L 139.17 124.38 C 138.06 124.03 136.87 124.65 136.52 125.76 C 136.17 126.88 136.79 128.06 137.90 128.42 Z M 139.03 128.78 L 140.04 129.01 C 141.18 129.27 142.32 128.55 142.58 127.40 C 142.84 126.26 142.12 125.12 140.98 124.86 L 139.97 124.63 C 138.83 124.37 137.69 125.09 137.43 126.23 C 137.17 127.38 137.88 128.52 139.03 128.78 Z M 140.14 129.03 L 141.15 129.21 C 142.31 129.41 143.42 128.63 143.62 127.47 C 143.82 126.31 143.04 125.20 141.88 125.00 L 140.87 124.83 C 139.71 124.63 138.61 125.41 138.41 126.57 C 138.21 127.73 138.98 128.83 140.14 129.03 Z M 141.22 129.22 L 142.18 129.36 C 143.35 129.52 144.43 128.70 144.59 127.53 C 144.76 126.36 143.94 125.28 142.77 125.12 L 141.81 124.99 C 140.64 124.83 139.56 125.64 139.40 126.81 C 139.23 127.98 140.05 129.06 141.22 129.22 Z M 142.24 129.37 L 143.32 129.49 C 144.50 129.62 145.56 128.77 145.69 127.60 C 145.82 126.42 144.97 125.36 143.80 125.23 L 142.71 125.11 C 141.54 124.98 140.48 125.83 140.35 127.00 C 140.22 128.18 141.06 129.23 142.24 129.37 Z M 143.38 129.49 L 144.33 129.57 C 145.51 129.67 146.54 128.79 146.64 127.61 C 146.73 126.43 145.86 125.40 144.68 125.30 L 143.73 125.23 C 142.56 125.13 141.52 126.01 141.43 127.18 C 141.33 128.36 142.21 129.40 143.38 129.49 Z M 144.38 129.57 L 145.31 129.63 C 146.49 129.70 147.50 128.80 147.57 127.62 C 147.64 126.44 146.74 125.43 145.56 125.36 L 144.63 125.30 C 143.45 125.23 142.44 126.13 142.37 127.31 C 142.30 128.49 143.20 129.50 144.38 129.57 Z M 145.34 129.63 L 146.32 129.67 C 147.50 129.72 148.50 128.81 148.55 127.63 C 148.60 126.45 147.69 125.45 146.51 125.40 L 145.53 125.36 C 144.35 125.30 143.35 126.22 143.30 127.40 C 143.25 128.58 144.16 129.57 145.34 129.63 Z M 146.35 129.67 L 147.37 129.70 C 148.55 129.73 149.53 128.81 149.57 127.63 C 149.60 126.45 148.68 125.47 147.50 125.43 L 146.48 125.40 C 145.30 125.37 144.32 126.29 144.28 127.47 C 144.25 128.65 145.17 129.63 146.35 129.67 Z M 147.40 129.69 L 148.39 129.71 C 149.56 129.73 150.53 128.79 150.55 127.62 C 150.57 126.44 149.63 125.47 148.46 125.45 L 147.47 125.44 C 146.29 125.42 145.33 126.36 145.31 127.53 C 145.29 128.71 146.22 129.67 147.40 129.69 Z M 148.41 129.70 L 149.40 129.71 C 150.58 129.72 151.53 128.77 151.54 127.60 C 151.55 126.43 150.60 125.47 149.43 125.47 L 148.44 125.46 C 147.26 125.45 146.31 126.40 146.30 127.57 C 146.29 128.74 147.24 129.70 148.41 129.70 Z M 149.41 129.71 L 150.44 129.71 C 151.61 129.71 152.55 128.76 152.56 127.59 C 152.56 126.42 151.61 125.47 150.44 125.47 L 149.42 125.47 C 148.25 125.47 147.30 126.42 147.30 127.59 C 147.30 128.76 148.24 129.70 149.41 129.71 Z M 150.44 129.70 L 151.42 129.70 C 152.59 129.70 153.53 128.75 153.53 127.59 C 153.53 126.42 152.58 125.48 151.42 125.48 L 150.44 125.48 C 149.27 125.48 148.33 126.43 148.33 127.59 C 148.33 128.76 149.27 129.70 150.44 129.70 Z M 151.44 129.69 L 152.44 129.68 C 153.60 129.67 154.53 128.72 154.52 127.56 C 154.51 126.40 153.56 125.47 152.40 125.48 L 151.40 125.49 C 150.24 125.50 149.31 126.45 149.32 127.61 C 149.33 128.77 150.28 129.70 151.44 129.69 Z M 152.47 129.67 L 153.49 129.65 C 154.65 129.62 155.56 128.66 155.53 127.50 C 155.50 126.34 154.54 125.43 153.38 125.46 L 152.36 125.49 C 151.21 125.52 150.29 126.48 150.32 127.63 C 150.35 128.79 151.31 129.70 152.47 129.67 Z M 153.54 129.64 L 154.52 129.59 C 155.67 129.53 156.56 128.55 156.50 127.40 C 156.44 126.25 155.46 125.36 154.31 125.42 L 153.33 125.47 C 152.18 125.53 151.30 126.51 151.35 127.66 C 151.41 128.81 152.39 129.69 153.54 129.64 Z M 154.58 129.57 L 155.56 129.50 C 156.70 129.41 157.55 128.41 157.47 127.27 C 157.38 126.12 156.38 125.27 155.23 125.36 L 154.25 125.43 C 153.11 125.52 152.26 126.52 152.34 127.67 C 152.43 128.81 153.43 129.66 154.58 129.57 Z M 155.62 129.48 L 156.63 129.37 C 157.76 129.25 158.58 128.23 158.46 127.10 C 158.34 125.96 157.32 125.14 156.18 125.26 L 155.17 125.37 C 154.04 125.49 153.22 126.52 153.34 127.65 C 153.46 128.79 154.48 129.61 155.62 129.48 Z M 156.69 129.36 L 157.70 129.22 C 158.83 129.06 159.61 128.02 159.45 126.89 C 159.30 125.77 158.26 124.98 157.13 125.14 L 156.12 125.28 C 154.99 125.44 154.21 126.48 154.36 127.60 C 154.52 128.73 155.56 129.52 156.69 129.36 Z M 157.75 129.20 L 158.74 129.03 C 159.85 128.84 160.61 127.79 160.42 126.67 C 160.23 125.56 159.18 124.81 158.06 124.99 L 157.08 125.16 C 155.96 125.34 155.21 126.40 155.40 127.52 C 155.58 128.63 156.64 129.38 157.75 129.20 Z M 158.78 129.01 L 159.77 128.83 C 160.87 128.62 161.60 127.55 161.39 126.45 C 161.18 125.34 160.12 124.62 159.02 124.82 L 158.02 125.01 C 156.92 125.22 156.19 126.28 156.40 127.39 C 156.61 128.49 157.67 129.22 158.78 129.01 Z M 159.80 128.81 L 160.78 128.61 C 161.87 128.38 162.58 127.32 162.36 126.22 C 162.14 125.13 161.07 124.42 159.97 124.64 L 158.99 124.84 C 157.89 125.07 157.19 126.13 157.41 127.23 C 157.63 128.32 158.70 129.03 159.80 128.81 Z M 160.80 128.59 L 161.80 128.37 C 162.89 128.14 163.58 127.07 163.34 125.99 C 163.11 124.90 162.04 124.21 160.96 124.44 L 159.95 124.66 C 158.87 124.89 158.18 125.96 158.41 127.05 C 158.64 128.13 159.71 128.82 160.80 128.59 Z M 161.82 128.36 L 162.81 128.13 C 163.89 127.89 164.56 126.82 164.32 125.74 C 164.07 124.66 163.00 123.99 161.92 124.23 L 160.93 124.46 C 159.86 124.71 159.18 125.78 159.43 126.85 C 159.68 127.93 160.75 128.60 161.82 128.36 Z M 162.84 128.11 L 163.80 127.88 C 164.86 127.62 165.52 126.54 165.25 125.48 C 164.99 124.41 163.92 123.76 162.85 124.02 L 161.90 124.25 C 160.83 124.51 160.18 125.59 160.44 126.66 C 160.70 127.72 161.77 128.37 162.84 128.11 Z M 163.83 127.86 L 164.78 127.61 C 165.83 127.33 166.46 126.25 166.18 125.19 C 165.90 124.14 164.82 123.51 163.77 123.79 L 162.82 124.04 C 161.77 124.32 161.14 125.40 161.42 126.46 C 161.70 127.51 162.78 128.14 163.83 127.86 Z M 164.81 127.58 L 165.80 127.30 C 166.83 127.00 167.43 125.91 167.13 124.87 C 166.83 123.83 165.75 123.23 164.71 123.53 L 163.73 123.82 C 162.69 124.12 162.09 125.20 162.39 126.24 C 162.69 127.28 163.78 127.88 164.81 127.58 Z M 165.83 127.27 L 166.78 126.97 C 167.80 126.66 168.37 125.57 168.06 124.55 C 167.74 123.52 166.65 122.95 165.63 123.27 L 164.68 123.56 C 163.66 123.88 163.08 124.96 163.40 125.99 C 163.72 127.01 164.80 127.58 165.83 127.27 Z M 166.80 126.95 L 167.72 126.65 C 168.73 126.32 169.28 125.24 168.96 124.23 C 168.63 123.22 167.54 122.67 166.54 122.99 L 165.61 123.29 C 164.60 123.62 164.05 124.70 164.38 125.71 C 164.70 126.72 165.79 127.28 166.80 126.95 Z M 167.73 126.63 L 168.63 126.33 C 169.62 125.99 170.16 124.91 169.83 123.91 C 169.49 122.92 168.41 122.38 167.41 122.72 L 166.52 123.02 C 165.52 123.35 164.99 124.43 165.32 125.43 C 165.66 126.42 166.74 126.96 167.73 126.63 Z M 168.65 126.30 L 169.57 125.98 C 170.55 125.63 171.06 124.55 170.72 123.57 C 170.37 122.59 169.30 122.07 168.31 122.42 L 167.39 122.74 C 166.41 123.09 165.90 124.16 166.24 125.15 C 166.59 126.13 167.66 126.65 168.65 126.30 Z M 169.59 125.95 L 170.59 125.58 C 171.55 125.22 172.05 124.15 171.69 123.18 C 171.33 122.21 170.26 121.72 169.29 122.08 L 168.29 122.45 C 167.32 122.80 166.83 123.88 167.19 124.85 C 167.55 125.81 168.62 126.31 169.59 125.95 Z M 170.61 125.55 L 171.52 125.20 C 172.47 124.83 172.94 123.76 172.57 122.81 C 172.20 121.85 171.13 121.38 170.18 121.75 L 169.27 122.10 C 168.32 122.47 167.84 123.54 168.21 124.50 C 168.58 125.45 169.65 125.92 170.61 125.55 Z M 171.53 125.18 L 172.46 124.81 C 173.40 124.43 173.86 123.36 173.48 122.42 C 173.10 121.48 172.03 121.02 171.09 121.40 L 170.16 121.77 C 169.22 122.15 168.77 123.22 169.14 124.16 C 169.52 125.10 170.59 125.56 171.53 125.18 Z M 172.47 124.78 L 173.42 124.39 C 174.35 124.00 174.79 122.94 174.41 122.01 C 174.02 121.08 172.95 120.64 172.03 121.03 L 171.08 121.42 C 170.15 121.81 169.71 122.87 170.09 123.80 C 170.48 124.73 171.54 125.17 172.47 124.78 Z M 173.44 124.37 L 174.38 123.96 C 175.29 123.57 175.71 122.51 175.32 121.59 C 174.92 120.67 173.86 120.25 172.95 120.65 L 172.01 121.05 C 171.09 121.45 170.67 122.51 171.07 123.42 C 171.46 124.34 172.52 124.76 173.44 124.37 Z M 174.39 123.93 L 175.34 123.50 C 176.24 123.10 176.64 122.04 176.24 121.14 C 175.83 120.25 174.78 119.85 173.88 120.25 L 172.93 120.68 C 172.03 121.08 171.63 122.14 172.04 123.04 C 172.44 123.93 173.50 124.33 174.39 123.93 Z M 175.36 123.46 L 176.27 123.03 C 177.15 122.62 177.53 121.58 177.11 120.70 C 176.70 119.83 175.66 119.45 174.78 119.86 L 173.87 120.29 C 172.99 120.70 172.61 121.75 173.03 122.62 C 173.44 123.50 174.48 123.87 175.36 123.46 Z M 176.28 122.99 L 177.16 122.56 C 178.01 122.15 178.37 121.12 177.96 120.27 C 177.54 119.42 176.52 119.06 175.66 119.47 L 174.78 119.90 C 173.93 120.31 173.57 121.34 173.98 122.19 C 174.40 123.05 175.42 123.40 176.28 122.99 Z M 177.15 122.53 L 178.02 122.10 C 178.85 121.69 179.20 120.68 178.79 119.85 C 178.38 119.02 177.37 118.67 176.53 119.08 L 175.67 119.51 C 174.83 119.92 174.49 120.93 174.90 121.76 C 175.31 122.60 176.32 122.94 177.15 122.53 Z"
      fill="black"
      fill-rule="nonzero" /><path d="M 155.19 108.01 L 154.17 108.24 C 153.19 108.45 152.57 109.42 152.79 110.40 C 153.00 111.38 153.97 112.00 154.95 111.79 L 155.96 111.56 C 156.94 111.35 157.56 110.38 157.35 109.40 C 157.14 108.42 156.17 107.80 155.19 108.01 Z M 153.91 108.27 L 153.00 108.61 C 152.04 108.97 151.55 110.04 151.90 111.00 C 152.26 111.96 153.33 112.45 154.29 112.09 L 155.21 111.75 C 156.17 111.40 156.66 110.33 156.30 109.36 C 155.94 108.40 154.88 107.91 153.91 108.27 Z M 152.46 108.87 L 151.73 109.45 C 150.92 110.10 150.78 111.30 151.43 112.11 C 152.09 112.93 153.28 113.07 154.10 112.41 L 154.83 111.83 C 155.65 111.18 155.78 109.99 155.13 109.17 C 154.48 108.35 153.28 108.22 152.46 108.87 Z M 151.29 109.90 L 150.76 110.74 C 150.19 111.64 150.45 112.83 151.35 113.40 C 152.25 113.97 153.44 113.70 154.01 112.80 L 154.54 111.96 C 155.11 111.07 154.85 109.88 153.95 109.31 C 153.05 108.74 151.86 109.00 151.29 109.90 Z M 150.56 111.07 L 150.22 111.97 C 149.83 112.98 150.34 114.11 151.34 114.49 C 152.35 114.88 153.48 114.38 153.86 113.37 L 154.21 112.47 C 154.59 111.46 154.09 110.33 153.08 109.95 C 152.07 109.56 150.95 110.07 150.56 111.07 Z M 150.14 112.17 L 149.90 113.05 C 149.62 114.10 150.25 115.18 151.30 115.46 C 152.35 115.73 153.43 115.11 153.71 114.06 L 153.94 113.18 C 154.22 112.13 153.60 111.05 152.55 110.77 C 151.49 110.49 150.42 111.11 150.14 112.17 Z M 149.86 113.16 L 149.65 114.20 C 149.44 115.27 150.13 116.32 151.21 116.53 C 152.28 116.75 153.33 116.05 153.54 114.98 L 153.75 113.94 C 153.97 112.87 153.27 111.82 152.20 111.61 C 151.12 111.39 150.08 112.09 149.86 113.16 Z M 149.63 114.26 L 149.45 115.34 C 149.27 116.42 150.00 117.45 151.09 117.64 C 152.17 117.82 153.20 117.08 153.39 116.00 L 153.57 114.92 C 153.75 113.83 153.02 112.80 151.93 112.62 C 150.84 112.44 149.81 113.17 149.63 114.26 Z M 149.43 115.36 L 149.28 116.38 C 149.11 117.48 149.86 118.50 150.96 118.67 C 152.06 118.83 153.08 118.08 153.25 116.98 L 153.40 115.97 C 153.57 114.87 152.82 113.85 151.72 113.68 C 150.62 113.52 149.60 114.27 149.43 115.36 Z M 149.26 116.40 L 149.12 117.43 C 148.96 118.54 149.72 119.56 150.83 119.72 C 151.93 119.87 152.96 119.11 153.11 118.00 L 153.26 116.97 C 153.42 115.86 152.65 114.84 151.55 114.68 C 150.44 114.52 149.42 115.29 149.26 116.40 Z M 149.10 117.45 L 148.97 118.43 C 148.82 119.54 149.60 120.57 150.71 120.72 C 151.82 120.87 152.85 120.08 153.00 118.97 L 153.13 117.99 C 153.28 116.87 152.50 115.85 151.39 115.70 C 150.27 115.55 149.25 116.33 149.10 117.45 Z M 148.96 118.45 L 148.83 119.48 C 148.69 120.60 149.48 121.62 150.60 121.76 C 151.72 121.90 152.74 121.11 152.88 119.99 L 153.01 118.95 C 153.15 117.83 152.35 116.81 151.23 116.68 C 150.11 116.54 149.09 117.33 148.96 118.45 Z M 148.82 119.51 L 148.70 120.54 C 148.58 121.66 149.39 122.67 150.52 122.80 C 151.64 122.92 152.65 122.11 152.78 120.99 L 152.89 119.96 C 153.01 118.84 152.20 117.82 151.08 117.70 C 149.95 117.58 148.94 118.39 148.82 119.51 Z M 148.70 120.56 L 148.61 121.45 C 148.50 122.58 149.32 123.59 150.45 123.70 C 151.58 123.81 152.58 122.99 152.69 121.86 L 152.78 120.97 C 152.90 119.84 152.07 118.83 150.95 118.72 C 149.82 118.61 148.81 119.43 148.70 120.56 Z M 148.60 121.45 L 148.51 122.36 C 148.39 123.49 149.22 124.50 150.35 124.62 C 151.49 124.73 152.50 123.91 152.61 122.77 L 152.70 121.86 C 152.82 120.73 151.99 119.72 150.86 119.61 C 149.73 119.49 148.71 120.32 148.60 121.45 Z M 148.50 122.36 L 148.40 123.34 C 148.28 124.48 149.11 125.50 150.25 125.61 C 151.39 125.73 152.41 124.90 152.52 123.76 L 152.62 122.78 C 152.74 121.64 151.91 120.62 150.77 120.50 C 149.63 120.39 148.61 121.22 148.50 122.36 Z M 148.38 123.35 L 148.28 124.41 C 148.17 125.56 149.01 126.58 150.15 126.69 C 151.30 126.80 152.32 125.97 152.43 124.82 L 152.54 123.75 C 152.65 122.60 151.81 121.58 150.66 121.47 C 149.51 121.36 148.49 122.20 148.38 123.35 Z M 148.26 124.42 L 148.18 125.37 C 148.07 126.53 148.92 127.55 150.08 127.65 C 151.24 127.76 152.26 126.91 152.36 125.75 L 152.45 124.81 C 152.55 123.65 151.70 122.63 150.55 122.52 C 149.39 122.42 148.37 123.27 148.26 124.42 Z M 148.16 125.38 L 148.08 126.37 C 147.98 127.54 148.84 128.56 150.00 128.66 C 151.17 128.76 152.19 127.90 152.29 126.74 L 152.38 125.74 C 152.48 124.58 151.62 123.55 150.45 123.45 C 149.29 123.35 148.26 124.21 148.16 125.38 Z M 148.06 126.38 L 147.98 127.41 C 147.88 128.58 148.75 129.61 149.92 129.71 C 151.09 129.81 152.12 128.94 152.22 127.77 L 152.30 126.73 C 152.40 125.56 151.53 124.53 150.36 124.44 C 149.19 124.34 148.16 125.21 148.06 126.38 Z M 147.96 127.42 L 147.88 128.40 C 147.79 129.58 148.67 130.61 149.84 130.71 C 151.02 130.80 152.05 129.93 152.15 128.75 L 152.23 127.76 C 152.33 126.58 151.45 125.55 150.27 125.46 C 149.09 125.36 148.06 126.24 147.96 127.42 Z M 147.87 128.41 L 147.80 129.38 C 147.70 130.57 148.59 131.60 149.77 131.70 C 150.96 131.79 151.99 130.90 152.08 129.72 L 152.16 128.74 C 152.25 127.56 151.37 126.52 150.18 126.43 C 149.00 126.34 147.97 127.22 147.87 128.41 Z M 147.79 129.40 L 147.71 130.40 C 147.63 131.59 148.52 132.62 149.71 132.71 C 150.90 132.80 151.94 131.90 152.02 130.71 L 152.09 129.71 C 152.18 128.52 151.29 127.48 150.10 127.40 C 148.91 127.31 147.87 128.21 147.79 129.40 Z M 147.70 130.42 L 147.64 131.45 C 147.56 132.65 148.47 133.68 149.66 133.76 C 150.86 133.83 151.89 132.93 151.97 131.73 L 152.03 130.70 C 152.11 129.50 151.20 128.47 150.01 128.39 C 148.81 128.32 147.78 129.22 147.70 130.42 Z M 147.63 131.47 L 147.58 132.43 C 147.51 133.63 148.43 134.66 149.63 134.73 C 150.83 134.79 151.86 133.87 151.92 132.67 L 151.98 131.71 C 152.04 130.51 151.12 129.49 149.92 129.42 C 148.72 129.35 147.70 130.27 147.63 131.47 Z M 147.57 132.45 L 147.52 133.44 C 147.46 134.64 148.39 135.67 149.60 135.72 C 150.80 135.78 151.82 134.85 151.88 133.65 L 151.93 132.66 C 151.99 131.45 151.06 130.43 149.85 130.37 C 148.65 130.32 147.63 131.25 147.57 132.45 Z M 147.51 133.45 L 147.47 134.47 C 147.42 135.67 148.36 136.69 149.57 136.74 C 150.78 136.79 151.80 135.86 151.85 134.65 L 151.89 133.63 C 151.94 132.43 151.00 131.41 149.79 131.36 C 148.58 131.31 147.56 132.24 147.51 133.45 Z M 147.46 134.48 L 147.43 135.51 C 147.38 136.72 148.33 137.74 149.54 137.78 C 150.75 137.83 151.77 136.88 151.82 135.67 L 151.85 134.64 C 151.90 133.42 150.95 132.41 149.74 132.36 C 148.53 132.32 147.51 133.26 147.46 134.48 Z M 147.42 135.52 L 147.39 136.50 C 147.35 137.72 148.31 138.74 149.52 138.77 C 150.74 138.81 151.75 137.86 151.79 136.64 L 151.82 135.66 C 151.86 134.44 150.91 133.43 149.69 133.39 C 148.48 133.35 147.46 134.30 147.42 135.52 Z M 147.39 136.51 L 147.36 137.50 C 147.32 138.72 148.28 139.74 149.50 139.77 C 150.72 139.81 151.73 138.85 151.77 137.63 L 151.79 136.64 C 151.83 135.42 150.87 134.40 149.65 134.37 C 148.44 134.34 147.42 135.29 147.39 136.51 Z M 147.35 137.51 L 147.33 138.51 C 147.30 139.73 148.26 140.75 149.48 140.78 C 150.70 140.81 151.71 139.85 151.74 138.63 L 151.77 137.62 C 151.80 136.40 150.84 135.39 149.62 135.36 C 148.40 135.33 147.39 136.29 147.35 137.51 Z M 147.32 138.52 L 147.30 139.53 C 147.27 140.75 148.24 141.76 149.46 141.79 C 150.68 141.82 151.70 140.85 151.72 139.63 L 151.75 138.62 C 151.78 137.40 150.81 136.39 149.59 136.36 C 148.37 136.33 147.35 137.30 147.32 138.52 Z M 147.30 139.53 L 147.27 140.54 C 147.25 141.76 148.22 142.78 149.44 142.80 C 150.67 142.83 151.68 141.86 151.71 140.64 L 151.73 139.63 C 151.76 138.41 150.79 137.39 149.56 137.36 C 148.34 137.34 147.32 138.31 147.30 139.53 Z M 147.27 140.54 L 147.25 141.54 C 147.22 142.77 148.20 143.78 149.42 143.81 C 150.65 143.83 151.66 142.86 151.69 141.63 L 151.71 140.63 C 151.74 139.41 150.76 138.39 149.54 138.37 C 148.31 138.34 147.30 139.31 147.27 140.54 Z M 147.24 141.54 L 147.22 142.54 C 147.20 143.77 148.17 144.79 149.40 144.82 C 150.63 144.84 151.65 143.86 151.68 142.63 L 151.70 141.63 C 151.72 140.40 150.74 139.39 149.52 139.36 C 148.29 139.33 147.27 140.31 147.24 141.54 Z M 147.22 142.54 L 147.20 143.55 C 147.17 144.78 148.15 145.80 149.38 145.82 C 150.62 145.85 151.64 144.87 151.66 143.64 L 151.68 142.63 C 151.71 141.40 150.73 140.38 149.49 140.36 C 148.26 140.33 147.24 141.31 147.22 142.54 Z M 147.19 143.55 L 147.17 144.54 C 147.15 145.78 148.13 146.80 149.36 146.82 C 150.60 146.85 151.62 145.87 151.65 144.63 L 151.67 143.63 C 151.69 142.40 150.71 141.38 149.47 141.35 C 148.24 141.33 147.22 142.31 147.19 143.55 Z M 147.17 144.54 L 147.15 145.55 C 147.12 146.79 148.11 147.81 149.34 147.83 C 150.58 147.86 151.60 146.87 151.63 145.64 L 151.65 144.63 C 151.67 143.40 150.69 142.37 149.45 142.35 C 148.22 142.32 147.19 143.31 147.17 144.54 Z M 147.14 145.55 L 147.13 146.55 C 147.10 147.79 148.09 148.81 149.33 148.84 C 150.57 148.86 151.59 147.87 151.61 146.63 L 151.63 145.64 C 151.66 144.40 150.67 143.37 149.43 143.35 C 148.19 143.33 147.17 144.31 147.14 145.55 Z M 147.12 146.55 L 147.11 147.55 C 147.08 148.79 148.07 149.82 149.32 149.84 C 150.56 149.86 151.58 148.87 151.60 147.63 L 151.62 146.63 C 151.64 145.39 150.65 144.37 149.41 144.34 C 148.17 144.32 147.14 145.31 147.12 146.55 Z M 147.10 147.56 L 147.09 148.56 C 147.07 149.80 148.07 150.82 149.31 150.84 C 150.55 150.85 151.57 149.86 151.59 148.62 L 151.60 147.62 C 151.62 146.38 150.63 145.36 149.38 145.34 C 148.14 145.32 147.12 146.32 147.10 147.56 Z M 147.09 148.57 L 147.08 149.60 C 147.06 150.84 148.06 151.86 149.31 151.87 C 150.55 151.89 151.57 150.89 151.58 149.64 L 151.59 148.61 C 151.61 147.36 150.61 146.34 149.36 146.33 C 148.12 146.32 147.10 147.32 147.09 148.57 Z M 147.07 149.61 L 147.07 150.65 C 147.06 151.90 148.06 152.91 149.31 152.92 C 150.56 152.92 151.58 151.92 151.58 150.67 L 151.59 149.63 C 151.59 148.39 150.59 147.37 149.34 147.36 C 148.09 147.36 147.08 148.36 147.07 149.61 Z M 147.06 150.65 L 147.06 151.67 C 147.06 152.92 148.07 153.93 149.32 153.93 C 150.56 153.94 151.58 152.93 151.58 151.68 L 151.59 150.67 C 151.59 149.42 150.58 148.40 149.33 148.40 C 148.08 148.40 147.07 149.41 147.06 150.65 Z M 147.06 151.67 L 147.06 152.63 C 147.05 153.88 148.07 154.90 149.32 154.90 C 150.57 154.90 151.58 153.89 151.59 152.64 L 151.59 151.67 C 151.59 150.42 150.57 149.41 149.32 149.41 C 148.07 149.41 147.06 150.42 147.06 151.67 Z M 147.05 152.63 L 147.05 153.65 C 147.05 154.90 148.07 155.92 149.32 155.92 C 150.57 155.92 151.59 154.90 151.59 153.65 L 151.59 152.63 C 151.59 151.38 150.57 150.37 149.32 150.37 C 148.07 150.37 147.05 151.38 147.05 152.63 Z M 147.05 153.65 L 147.05 154.70 C 147.05 155.95 148.07 156.97 149.32 156.97 C 150.58 156.97 151.59 155.95 151.59 154.70 L 151.59 153.65 C 151.59 152.39 150.58 151.38 149.32 151.38 C 148.07 151.38 147.05 152.39 147.05 153.65 Z M 147.05 154.70 L 147.05 155.66 C 147.05 156.91 148.06 157.93 149.32 157.93 C 150.58 157.93 151.60 156.91 151.60 155.66 L 151.60 154.70 C 151.60 153.44 150.58 152.42 149.32 152.42 C 148.06 152.42 147.05 153.44 147.05 154.70 Z M 147.04 155.66 L 147.04 156.57 C 147.04 157.83 148.06 158.85 149.32 158.85 C 150.58 158.85 151.60 157.83 151.60 156.57 L 151.60 155.66 C 151.60 154.40 150.58 153.38 149.32 153.38 C 148.06 153.38 147.04 154.40 147.04 155.66 Z M 147.04 156.57 L 147.04 157.52 C 147.04 158.78 148.06 159.80 149.32 159.80 C 150.58 159.80 151.60 158.78 151.60 157.52 L 151.60 156.57 C 151.60 155.31 150.58 154.29 149.32 154.29 C 148.06 154.29 147.04 155.31 147.04 156.57 Z M 147.04 157.52 L 147.04 158.51 C 147.04 159.77 148.06 160.80 149.32 160.80 C 150.58 160.80 151.60 159.77 151.60 158.51 L 151.60 157.52 C 151.60 156.26 150.58 155.24 149.32 155.24 C 148.06 155.24 147.04 156.26 147.04 157.52 Z M 147.04 158.51 L 147.04 159.57 C 147.04 160.83 148.06 161.85 149.32 161.85 C 150.58 161.85 151.60 160.83 151.60 159.57 L 151.60 158.51 C 151.60 157.25 150.58 156.23 149.32 156.23 C 148.06 156.23 147.04 157.25 147.04 158.51 Z M 147.04 159.57 L 147.04 160.53 C 147.04 161.80 148.07 162.82 149.33 162.81 C 150.59 162.81 151.61 161.79 151.61 160.52 L 151.61 159.56 C 151.60 158.30 150.58 157.28 149.32 157.28 C 148.05 157.29 147.03 158.31 147.04 159.57 Z M 147.04 160.56 L 147.05 161.57 C 147.07 162.83 148.10 163.84 149.36 163.83 C 150.62 163.81 151.63 162.78 151.62 161.52 L 151.61 160.50 C 151.59 159.24 150.56 158.23 149.30 158.24 C 148.03 158.26 147.02 159.29 147.04 160.56 Z M 147.05 161.61 L 147.08 162.64 C 147.12 163.90 148.17 164.90 149.43 164.86 C 150.69 164.82 151.68 163.77 151.65 162.51 L 151.62 161.48 C 151.58 160.22 150.53 159.23 149.27 159.26 C 148.01 159.30 147.02 160.35 147.05 161.61 Z M 147.08 162.70 L 147.14 163.75 C 147.21 165.01 148.29 165.97 149.55 165.90 C 150.81 165.83 151.77 164.76 151.70 163.50 L 151.64 162.45 C 151.58 161.19 150.50 160.23 149.24 160.30 C 147.98 160.36 147.01 161.44 147.08 162.70 Z M 147.15 163.85 L 147.26 164.91 C 147.38 166.17 148.50 167.08 149.75 166.96 C 151.00 166.84 151.92 165.72 151.80 164.47 L 151.69 163.40 C 151.57 162.15 150.45 161.23 149.20 161.35 C 147.94 161.47 147.03 162.59 147.15 163.85 Z M 147.28 165.06 L 147.44 166.04 C 147.65 167.28 148.82 168.12 150.06 167.92 C 151.30 167.71 152.14 166.54 151.94 165.30 L 151.77 164.32 C 151.57 163.08 150.39 162.24 149.15 162.44 C 147.91 162.65 147.07 163.82 147.28 165.06 Z M 147.49 166.26 L 147.73 167.14 C 148.05 168.35 149.30 169.07 150.51 168.75 C 151.72 168.42 152.45 167.18 152.12 165.96 L 151.89 165.08 C 151.56 163.87 150.32 163.15 149.10 163.47 C 147.89 163.80 147.17 165.04 147.49 166.26 Z M 147.86 167.48 L 148.30 168.44 C 148.81 169.58 150.14 170.08 151.28 169.57 C 152.42 169.06 152.93 167.73 152.42 166.59 L 151.99 165.63 C 151.47 164.49 150.14 163.98 149.00 164.49 C 147.86 165.00 147.35 166.34 147.86 167.48 Z M 148.62 168.91 L 149.23 169.67 C 150.00 170.63 151.41 170.78 152.37 170.01 C 153.33 169.23 153.48 167.83 152.71 166.87 L 152.09 166.11 C 151.32 165.15 149.92 165.00 148.96 165.77 C 148.00 166.55 147.84 167.95 148.62 168.91 Z M 149.82 170.14 L 150.61 170.63 C 151.65 171.26 153.00 170.94 153.63 169.90 C 154.27 168.87 153.94 167.52 152.91 166.89 L 152.11 166.40 C 151.08 165.77 149.73 166.09 149.10 167.12 C 148.46 168.16 148.79 169.51 149.82 170.14 Z M 151.38 170.85 L 152.33 171.02 C 153.49 171.23 154.59 170.47 154.81 169.32 C 155.02 168.16 154.25 167.06 153.10 166.84 L 152.14 166.67 C 150.99 166.46 149.88 167.22 149.67 168.37 C 149.46 169.53 150.22 170.63 151.38 170.85 Z M 153.08 170.93 L 154.08 170.75 C 155.18 170.55 155.91 169.49 155.71 168.39 C 155.51 167.28 154.45 166.55 153.35 166.75 L 152.35 166.94 C 151.25 167.14 150.52 168.19 150.72 169.30 C 150.92 170.40 151.98 171.13 153.08 170.93 Z M 154.67 170.42 L 155.50 169.95 C 156.42 169.42 156.74 168.24 156.21 167.32 C 155.68 166.40 154.50 166.08 153.58 166.61 L 152.75 167.08 C 151.83 167.61 151.51 168.79 152.04 169.71 C 152.57 170.63 153.75 170.95 154.67 170.42 Z M 155.76 169.61 L 156.49 168.95 C 157.22 168.27 157.27 167.13 156.60 166.39 C 155.93 165.65 154.78 165.60 154.04 166.28 L 153.31 166.94 C 152.58 167.62 152.53 168.76 153.20 169.50 C 153.88 170.24 155.02 170.29 155.76 169.61 Z M 156.53 168.74 L 157.23 167.95 C 157.85 167.26 157.78 166.19 157.09 165.57 C 156.39 164.94 155.32 165.01 154.70 165.70 L 154.00 166.49 C 153.38 167.18 153.44 168.25 154.14 168.87 C 154.84 169.50 155.91 169.43 156.53 168.74 Z M 157.19 167.87 L 157.38 167.65 C 157.96 166.97 157.87 165.96 157.19 165.38 C 156.51 164.80 155.49 164.88 154.92 165.56 L 154.73 165.78 C 154.16 166.46 154.24 167.48 154.92 168.06 C 155.60 168.64 156.62 168.55 157.19 167.87 Z"
      fill="black"
      fill-rule="nonzero" /><path d="M 161.92 171.20 L 161.45 172.41 C 161.10 173.30 161.54 174.30 162.43 174.65 C 163.32 174.99 164.32 174.55 164.67 173.67 L 165.14 172.46 C 165.49 171.57 165.05 170.57 164.16 170.22 C 163.27 169.87 162.27 170.31 161.92 171.20 Z M 161.30 172.59 L 161.08 173.46 C 160.84 174.43 161.43 175.42 162.40 175.66 C 163.37 175.91 164.35 175.32 164.60 174.35 L 164.82 173.48 C 165.06 172.51 164.48 171.52 163.50 171.28 C 162.53 171.03 161.55 171.62 161.30 172.59 Z M 161.97 175.57 L 162.32 175.75 C 163.24 176.23 164.37 175.87 164.85 174.95 C 165.33 174.03 164.97 172.90 164.05 172.42 L 163.71 172.24 C 162.79 171.76 161.66 172.11 161.18 173.03 C 160.70 173.95 161.05 175.09 161.97 175.57 Z M 164.24 175.67 L 165.16 175.06 C 166.03 174.48 166.27 173.30 165.69 172.42 C 165.11 171.54 163.93 171.30 163.05 171.89 L 162.13 172.49 C 161.26 173.07 161.02 174.26 161.60 175.14 C 162.18 176.01 163.36 176.25 164.24 175.67 Z M 165.36 174.92 L 166.21 174.19 C 167.01 173.50 167.09 172.29 166.40 171.49 C 165.71 170.69 164.50 170.60 163.70 171.29 L 162.85 172.03 C 162.05 172.72 161.96 173.93 162.66 174.73 C 163.35 175.53 164.56 175.62 165.36 174.92 Z M 166.30 174.11 L 167.00 173.41 C 167.76 172.67 167.76 171.45 167.02 170.70 C 166.27 169.95 165.06 169.94 164.30 170.68 L 163.60 171.38 C 162.85 172.12 162.84 173.34 163.59 174.09 C 164.33 174.84 165.55 174.85 166.30 174.11 Z M 167.08 173.33 L 167.75 172.60 C 168.46 171.81 168.39 170.59 167.60 169.88 C 166.82 169.17 165.60 169.24 164.89 170.02 L 164.23 170.76 C 163.52 171.55 163.58 172.76 164.37 173.47 C 165.16 174.18 166.37 174.12 167.08 173.33 Z M 167.80 172.53 L 168.42 171.78 C 169.10 170.96 168.99 169.75 168.17 169.07 C 167.35 168.40 166.14 168.51 165.46 169.33 L 164.84 170.09 C 164.16 170.90 164.28 172.12 165.10 172.79 C 165.91 173.47 167.12 173.35 167.80 172.53 Z M 168.46 171.73 L 169.09 170.92 C 169.73 170.08 169.58 168.88 168.74 168.23 C 167.90 167.58 166.69 167.73 166.04 168.57 L 165.42 169.38 C 164.77 170.22 164.93 171.43 165.77 172.07 C 166.61 172.72 167.82 172.57 168.46 171.73 Z M 169.12 170.88 L 169.71 170.06 C 170.34 169.20 170.15 168.00 169.29 167.38 C 168.43 166.75 167.23 166.94 166.61 167.80 L 166.01 168.62 C 165.39 169.48 165.58 170.68 166.44 171.30 C 167.29 171.93 168.50 171.74 169.12 170.88 Z M 169.74 170.02 L 170.31 169.20 C 170.91 168.33 170.69 167.13 169.82 166.53 C 168.95 165.92 167.75 166.14 167.15 167.02 L 166.58 167.84 C 165.97 168.71 166.19 169.91 167.07 170.51 C 167.94 171.11 169.14 170.90 169.74 170.02 Z M 170.33 169.18 L 170.88 168.34 C 171.47 167.46 171.23 166.27 170.35 165.68 C 169.47 165.09 168.27 165.33 167.68 166.21 L 167.13 167.04 C 166.54 167.93 166.78 169.12 167.66 169.71 C 168.54 170.30 169.74 170.06 170.33 169.18 Z M 170.89 168.33 L 171.44 167.49 C 172.02 166.60 171.77 165.41 170.88 164.83 C 169.99 164.25 168.80 164.50 168.22 165.39 L 167.67 166.22 C 167.09 167.11 167.34 168.31 168.23 168.89 C 169.12 169.47 170.31 169.22 170.89 168.33 Z M 171.45 167.47 L 171.99 166.63 C 172.56 165.73 172.29 164.54 171.40 163.97 C 170.50 163.40 169.31 163.67 168.74 164.57 L 168.20 165.41 C 167.63 166.31 167.90 167.50 168.80 168.07 C 169.69 168.64 170.88 168.37 171.45 167.47 Z M 172.01 166.59 L 172.53 165.74 C 173.08 164.83 172.79 163.64 171.88 163.09 C 170.97 162.54 169.79 162.83 169.24 163.74 L 168.72 164.60 C 168.17 165.51 168.46 166.69 169.37 167.24 C 170.28 167.80 171.46 167.50 172.01 166.59 Z M 172.56 165.69 L 173.07 164.80 C 173.59 163.88 173.27 162.70 172.35 162.18 C 171.42 161.65 170.25 161.97 169.72 162.89 L 169.21 163.78 C 168.68 164.71 169.00 165.88 169.93 166.41 C 170.85 166.94 172.03 166.62 172.56 165.69 Z M 173.09 164.77 L 173.56 163.89 C 174.07 162.95 173.72 161.78 172.79 161.27 C 171.85 160.77 170.68 161.11 170.18 162.05 L 169.70 162.93 C 169.19 163.87 169.54 165.03 170.47 165.54 C 171.41 166.05 172.58 165.70 173.09 164.77 Z M 173.58 163.86 L 174.03 162.99 C 174.52 162.05 174.16 160.89 173.21 160.39 C 172.27 159.90 171.11 160.27 170.61 161.21 L 170.16 162.08 C 169.67 163.02 170.03 164.18 170.98 164.68 C 171.92 165.17 173.09 164.80 173.58 163.86 Z M 174.05 162.96 L 174.49 162.08 C 174.96 161.13 174.57 159.97 173.62 159.49 C 172.67 159.02 171.51 159.41 171.03 160.36 L 170.59 161.24 C 170.12 162.20 170.51 163.36 171.46 163.83 C 172.42 164.30 173.57 163.92 174.05 162.96 Z M 174.52 162.01 L 174.93 161.10 C 175.37 160.13 174.93 158.98 173.96 158.55 C 172.99 158.11 171.84 158.55 171.41 159.52 L 171.00 160.43 C 170.56 161.40 171.00 162.55 171.97 162.98 C 172.94 163.42 174.09 162.98 174.52 162.01 Z M 174.97 161.01 L 175.33 160.08 C 175.72 159.09 175.23 157.97 174.23 157.58 C 173.24 157.19 172.12 157.69 171.73 158.68 L 171.37 159.61 C 170.98 160.60 171.47 161.72 172.47 162.11 C 173.46 162.50 174.58 162.00 174.97 161.01 Z M 175.36 160.00 L 175.69 159.05 C 176.03 158.03 175.49 156.94 174.48 156.59 C 173.47 156.25 172.37 156.79 172.03 157.80 L 171.70 158.76 C 171.36 159.77 171.90 160.87 172.91 161.21 C 173.92 161.56 175.02 161.02 175.36 160.00 Z M 175.71 158.97 L 176.00 158.01 C 176.30 156.98 175.72 155.90 174.69 155.60 C 173.67 155.30 172.59 155.88 172.29 156.91 L 172.00 157.87 C 171.70 158.90 172.28 159.98 173.31 160.28 C 174.33 160.58 175.41 160.00 175.71 158.97 Z M 176.02 157.92 L 176.26 156.95 C 176.52 155.91 175.88 154.86 174.84 154.61 C 173.80 154.35 172.75 154.99 172.50 156.03 L 172.26 157.00 C 172.00 158.04 172.64 159.09 173.68 159.34 C 174.72 159.60 175.77 158.96 176.02 157.92 Z M 176.29 156.83 L 176.46 155.86 C 176.65 154.81 175.95 153.80 174.90 153.61 C 173.84 153.42 172.83 154.12 172.65 155.18 L 172.47 156.15 C 172.28 157.20 172.99 158.21 174.04 158.40 C 175.09 158.58 176.10 157.88 176.29 156.83 Z M 176.48 155.72 L 176.58 154.76 C 176.70 153.69 175.93 152.74 174.86 152.62 C 173.80 152.51 172.84 153.28 172.73 154.35 L 172.63 155.31 C 172.51 156.38 173.28 157.33 174.35 157.45 C 175.41 157.56 176.37 156.79 176.48 155.72 Z M 176.60 154.60 L 176.62 153.73 C 176.65 152.66 175.80 151.77 174.73 151.74 C 173.66 151.71 172.77 152.56 172.74 153.63 L 172.72 154.50 C 172.69 155.57 173.53 156.46 174.61 156.49 C 175.68 156.52 176.57 155.68 176.60 154.60 Z M 176.61 153.52 L 176.53 152.54 C 176.44 151.47 175.50 150.67 174.44 150.76 C 173.37 150.85 172.57 151.79 172.66 152.86 L 172.75 153.84 C 172.83 154.91 173.77 155.70 174.84 155.61 C 175.91 155.52 176.70 154.58 176.61 153.52 Z M 176.50 152.30 L 176.26 151.18 C 176.04 150.13 175.01 149.46 173.96 149.68 C 172.91 149.90 172.24 150.93 172.46 151.98 L 172.70 153.10 C 172.92 154.15 173.95 154.82 175.00 154.60 C 176.05 154.38 176.72 153.34 176.50 152.30 Z M 176.21 150.98 L 175.91 150.06 C 175.58 149.03 174.49 148.47 173.47 148.80 C 172.44 149.13 171.88 150.23 172.21 151.25 L 172.51 152.18 C 172.84 153.20 173.94 153.76 174.96 153.43 C 175.98 153.10 176.54 152.01 176.21 150.98 Z M 175.87 149.94 L 175.50 149.01 C 175.11 148.01 173.98 147.52 172.98 147.92 C 171.98 148.31 171.49 149.44 171.89 150.44 L 172.25 151.37 C 172.65 152.37 173.78 152.86 174.78 152.46 C 175.78 152.07 176.27 150.94 175.87 149.94 Z M 175.47 148.93 L 175.05 147.98 C 174.60 147.00 173.45 146.56 172.47 147.00 C 171.49 147.44 171.05 148.60 171.49 149.58 L 171.92 150.52 C 172.36 151.50 173.51 151.94 174.49 151.50 C 175.48 151.06 175.91 149.91 175.47 148.93 Z M 175.02 147.91 L 174.55 146.98 C 174.07 146.02 172.90 145.63 171.94 146.11 C 170.98 146.59 170.58 147.75 171.06 148.72 L 171.52 149.65 C 172.00 150.61 173.17 151.00 174.14 150.52 C 175.10 150.04 175.49 148.87 175.02 147.91 Z M 174.52 146.92 L 174.05 146.05 C 173.54 145.10 172.35 144.75 171.40 145.26 C 170.46 145.78 170.11 146.96 170.62 147.91 L 171.09 148.78 C 171.61 149.73 172.79 150.08 173.74 149.57 C 174.69 149.05 175.04 147.87 174.52 146.92 Z M 174.01 145.97 L 173.42 144.98 C 172.86 144.06 171.66 143.76 170.74 144.31 C 169.81 144.87 169.51 146.07 170.07 146.99 L 170.66 147.98 C 171.21 148.91 172.41 149.21 173.34 148.65 C 174.26 148.10 174.56 146.90 174.01 145.97 Z M 173.37 144.90 L 172.78 144.03 C 172.18 143.13 170.96 142.90 170.07 143.50 C 169.17 144.10 168.93 145.32 169.54 146.21 L 170.12 147.08 C 170.72 147.98 171.94 148.21 172.84 147.61 C 173.73 147.01 173.97 145.79 173.37 144.90 Z M 172.72 143.93 L 172.15 143.19 C 171.49 142.33 170.26 142.16 169.40 142.82 C 168.54 143.48 168.38 144.71 169.03 145.57 L 169.60 146.31 C 170.26 147.17 171.49 147.34 172.35 146.68 C 173.21 146.02 173.37 144.79 172.72 143.93 Z M 172.07 143.09 L 171.49 142.43 C 170.78 141.61 169.54 141.52 168.72 142.24 C 167.91 142.95 167.82 144.19 168.54 145.01 L 169.11 145.67 C 169.82 146.49 171.06 146.57 171.88 145.86 C 172.70 145.15 172.78 143.91 172.07 143.09 Z M 171.39 142.31 L 170.64 141.58 C 169.86 140.82 168.62 140.84 167.86 141.62 C 167.10 142.40 167.12 143.64 167.90 144.40 L 168.64 145.13 C 169.42 145.88 170.67 145.87 171.42 145.09 C 172.18 144.31 172.17 143.06 171.39 142.31 Z M 170.50 141.45 L 169.74 140.84 C 168.89 140.16 167.65 140.30 166.97 141.15 C 166.29 142.00 166.43 143.24 167.28 143.92 L 168.03 144.53 C 168.89 145.21 170.13 145.07 170.81 144.22 C 171.49 143.37 171.35 142.13 170.50 141.45 Z M 169.62 140.74 L 168.83 140.21 C 167.92 139.60 166.69 139.84 166.08 140.75 C 165.47 141.65 165.71 142.88 166.62 143.50 L 167.40 144.03 C 168.31 144.64 169.54 144.40 170.15 143.49 C 170.76 142.58 170.52 141.35 169.62 140.74 Z M 168.72 140.13 L 167.89 139.65 C 166.94 139.10 165.72 139.42 165.17 140.37 C 164.62 141.32 164.94 142.54 165.89 143.09 L 166.73 143.57 C 167.68 144.13 168.89 143.80 169.45 142.85 C 170.00 141.90 169.67 140.68 168.72 140.13 Z M 167.77 139.57 L 166.85 139.12 C 165.86 138.64 164.66 139.05 164.18 140.04 C 163.69 141.04 164.10 142.24 165.10 142.72 L 166.01 143.17 C 167.01 143.65 168.20 143.24 168.69 142.25 C 169.17 141.26 168.76 140.06 167.77 139.57 Z M 166.73 139.06 L 165.78 138.67 C 164.75 138.26 163.58 138.75 163.16 139.78 C 162.74 140.81 163.24 141.98 164.26 142.40 L 165.22 142.79 C 166.25 143.20 167.42 142.71 167.84 141.68 C 168.25 140.65 167.76 139.48 166.73 139.06 Z M 165.67 138.63 L 164.72 138.30 C 163.67 137.94 162.52 138.50 162.16 139.55 C 161.80 140.61 162.36 141.75 163.41 142.11 L 164.37 142.44 C 165.42 142.80 166.57 142.24 166.93 141.19 C 167.29 140.14 166.73 138.99 165.67 138.63 Z M 164.64 138.27 L 163.67 137.99 C 162.60 137.67 161.48 138.28 161.16 139.35 C 160.84 140.41 161.45 141.54 162.52 141.85 L 163.49 142.14 C 164.56 142.46 165.68 141.85 166.00 140.78 C 166.32 139.72 165.71 138.59 164.64 138.27 Z M 163.60 137.96 L 162.64 137.72 C 161.56 137.44 160.46 138.09 160.18 139.17 C 159.90 140.25 160.55 141.35 161.63 141.63 L 162.59 141.88 C 163.67 142.15 164.77 141.50 165.05 140.42 C 165.33 139.34 164.68 138.24 163.60 137.96 Z M 162.56 137.70 L 161.62 137.49 C 160.52 137.26 159.45 137.95 159.21 139.05 C 158.98 140.14 159.68 141.21 160.77 141.45 L 161.71 141.65 C 162.81 141.88 163.88 141.19 164.12 140.10 C 164.35 139.00 163.65 137.93 162.56 137.70 Z M 161.51 137.47 L 160.54 137.32 C 159.44 137.15 158.40 137.90 158.23 139.01 C 158.05 140.11 158.81 141.15 159.91 141.32 L 160.88 141.47 C 161.98 141.64 163.02 140.89 163.19 139.78 C 163.36 138.68 162.61 137.64 161.51 137.47 Z M 160.42 137.30 L 159.37 137.20 C 158.26 137.10 157.27 137.91 157.16 139.03 C 157.05 140.14 157.87 141.13 158.98 141.24 L 160.03 141.34 C 161.15 141.44 162.14 140.63 162.24 139.51 C 162.35 138.40 161.53 137.41 160.42 137.30 Z M 159.27 137.19 L 158.28 137.15 C 157.16 137.09 156.21 137.95 156.16 139.07 C 156.10 140.19 156.97 141.14 158.09 141.20 L 159.08 141.24 C 160.20 141.30 161.15 140.44 161.20 139.32 C 161.26 138.20 160.39 137.25 159.27 137.19 Z M 158.22 137.14 L 157.18 137.12 C 156.06 137.10 155.13 138.00 155.12 139.12 C 155.10 140.24 155.99 141.17 157.11 141.18 L 158.15 141.20 C 159.27 141.22 160.19 140.33 160.21 139.20 C 160.23 138.08 159.34 137.16 158.22 137.14 Z M 157.13 137.12 L 156.11 137.13 C 154.99 137.14 154.09 138.06 154.10 139.18 C 154.11 140.30 155.03 141.21 156.15 141.20 L 157.17 141.19 C 158.29 141.18 159.19 140.26 159.18 139.13 C 159.17 138.01 158.25 137.11 157.13 137.12 Z M 156.06 137.13 L 155.06 137.17 C 153.94 137.21 153.06 138.15 153.10 139.27 C 153.14 140.40 154.08 141.27 155.21 141.23 L 156.21 141.20 C 157.33 141.16 158.21 140.21 158.17 139.09 C 158.13 137.97 157.18 137.09 156.06 137.13 Z M 154.96 137.17 L 153.91 137.26 C 152.79 137.36 151.96 138.34 152.06 139.46 C 152.15 140.58 153.14 141.41 154.26 141.32 L 155.31 141.23 C 156.43 141.13 157.26 140.15 157.16 139.03 C 157.07 137.90 156.08 137.07 154.96 137.17 Z M 153.71 137.29 L 152.79 137.46 C 151.68 137.66 150.95 138.73 151.16 139.83 C 151.36 140.94 152.43 141.67 153.53 141.46 L 154.46 141.29 C 155.56 141.09 156.29 140.02 156.09 138.92 C 155.88 137.81 154.82 137.08 153.71 137.29 Z M 152.55 137.52 L 151.66 137.80 C 150.59 138.14 149.99 139.28 150.33 140.36 C 150.67 141.43 151.82 142.02 152.89 141.68 L 153.78 141.40 C 154.85 141.06 155.44 139.92 155.10 138.85 C 154.76 137.77 153.62 137.18 152.55 137.52 Z M 151.46 137.87 L 150.56 138.27 C 149.53 138.72 149.06 139.92 149.51 140.95 C 149.96 141.98 151.16 142.45 152.19 142.00 L 153.09 141.61 C 154.12 141.16 154.59 139.96 154.14 138.93 C 153.69 137.90 152.49 137.42 151.46 137.87 Z M 150.42 138.33 L 149.51 138.82 C 148.52 139.34 148.14 140.58 148.67 141.57 C 149.19 142.56 150.43 142.94 151.42 142.42 L 152.33 141.93 C 153.32 141.41 153.70 140.17 153.17 139.18 C 152.65 138.19 151.42 137.81 150.42 138.33 Z M 149.41 138.87 L 148.53 139.41 C 147.57 139.99 147.26 141.24 147.84 142.20 C 148.43 143.17 149.68 143.47 150.64 142.89 L 151.52 142.36 C 152.48 141.77 152.79 140.52 152.21 139.56 C 151.62 138.60 150.37 138.29 149.41 138.87 Z M 148.45 139.46 L 147.61 140.02 C 146.67 140.64 146.42 141.91 147.05 142.84 C 147.67 143.78 148.94 144.03 149.87 143.41 L 150.72 142.84 C 151.65 142.22 151.90 140.95 151.28 140.02 C 150.65 139.08 149.39 138.83 148.45 139.46 Z M 147.55 140.06 L 146.74 140.64 C 145.83 141.30 145.63 142.58 146.29 143.49 C 146.95 144.40 148.22 144.60 149.13 143.94 L 149.93 143.36 C 150.85 142.70 151.05 141.43 150.39 140.52 C 149.73 139.61 148.46 139.40 147.55 140.06 Z M 146.69 140.68 L 145.90 141.29 C 145.01 141.98 144.85 143.26 145.54 144.15 C 146.23 145.04 147.51 145.21 148.40 144.52 L 149.19 143.91 C 150.08 143.22 150.24 141.94 149.55 141.05 C 148.86 140.16 147.58 139.99 146.69 140.68 Z M 145.85 141.33 L 145.08 141.96 C 144.21 142.68 144.09 143.97 144.81 144.84 C 145.53 145.71 146.82 145.83 147.69 145.11 L 148.45 144.48 C 149.32 143.76 149.44 142.47 148.72 141.60 C 148.00 140.73 146.71 140.61 145.85 141.33 Z M 145.03 142.00 L 144.29 142.65 C 143.43 143.40 143.35 144.70 144.10 145.55 C 144.85 146.40 146.14 146.48 146.99 145.73 L 147.74 145.08 C 148.59 144.33 148.67 143.03 147.93 142.18 C 147.18 141.33 145.88 141.25 145.03 142.00 Z M 144.25 142.68 L 143.52 143.34 C 142.69 144.11 142.63 145.41 143.40 146.25 C 144.17 147.09 145.47 147.14 146.31 146.37 L 147.03 145.71 C 147.87 144.94 147.92 143.64 147.15 142.80 C 146.39 141.96 145.08 141.91 144.25 142.68 Z M 143.48 143.37 L 142.76 144.07 C 141.94 144.86 141.92 146.17 142.71 146.99 C 143.50 147.81 144.81 147.83 145.63 147.04 L 146.35 146.34 C 147.17 145.55 147.19 144.25 146.40 143.43 C 145.61 142.61 144.30 142.58 143.48 143.37 Z M 142.71 144.11 L 142.00 144.84 C 141.21 145.65 141.22 146.96 142.04 147.76 C 142.86 148.56 144.17 148.54 144.97 147.73 L 145.68 147.00 C 146.47 146.18 146.46 144.87 145.64 144.07 C 144.82 143.27 143.51 143.29 142.71 144.11 Z M 141.95 144.89 L 141.35 145.55 C 140.58 146.39 140.64 147.70 141.49 148.48 C 142.34 149.25 143.65 149.18 144.42 148.34 L 145.02 147.68 C 145.79 146.83 145.73 145.52 144.88 144.75 C 144.03 143.98 142.72 144.04 141.95 144.89 Z M 141.31 145.59 L 140.70 146.30 C 139.96 147.17 140.06 148.48 140.93 149.23 C 141.80 149.97 143.11 149.87 143.86 149.00 L 144.46 148.29 C 145.21 147.42 145.11 146.11 144.24 145.37 C 143.37 144.62 142.06 144.72 141.31 145.59 Z M 140.67 146.33 L 140.00 147.14 C 139.27 148.03 139.40 149.34 140.28 150.07 C 141.17 150.80 142.48 150.68 143.21 149.79 L 143.88 148.97 C 144.61 148.09 144.49 146.77 143.60 146.04 C 142.72 145.31 141.40 145.44 140.67 146.33 Z M 139.99 147.16 L 139.30 148.01 C 138.57 148.90 138.71 150.21 139.61 150.94 C 140.50 151.66 141.81 151.52 142.54 150.63 L 143.22 149.78 C 143.95 148.88 143.81 147.57 142.91 146.85 C 142.02 146.12 140.71 146.26 139.99 147.16 Z M 139.29 148.01 L 138.66 148.79 C 137.94 149.69 138.08 151.01 138.98 151.73 C 139.88 152.45 141.19 152.30 141.92 151.41 L 142.55 150.62 C 143.27 149.72 143.12 148.41 142.22 147.69 C 141.32 146.97 140.01 147.11 139.29 148.01 Z M 138.65 148.79 L 138.00 149.61 C 137.28 150.52 137.43 151.83 138.33 152.55 C 139.23 153.28 140.55 153.13 141.27 152.22 L 141.92 151.40 C 142.65 150.50 142.50 149.18 141.59 148.46 C 140.69 147.74 139.37 147.89 138.65 148.79 Z M 137.99 149.62 L 137.35 150.43 C 136.63 151.34 136.78 152.66 137.69 153.38 C 138.60 154.10 139.92 153.94 140.64 153.03 L 141.28 152.22 C 142.00 151.31 141.85 149.99 140.94 149.27 C 140.03 148.55 138.71 148.71 137.99 149.62 Z M 137.34 150.44 L 136.74 151.20 C 136.02 152.12 136.18 153.44 137.10 154.15 C 138.01 154.87 139.33 154.71 140.05 153.79 L 140.65 153.03 C 141.36 152.11 141.20 150.79 140.29 150.08 C 139.37 149.36 138.05 149.52 137.34 150.44 Z M 136.72 151.21 L 136.07 152.06 C 135.36 152.98 135.54 154.30 136.46 155.01 C 137.38 155.72 138.70 155.55 139.41 154.62 L 140.06 153.78 C 140.77 152.86 140.60 151.54 139.68 150.83 C 138.75 150.12 137.43 150.29 136.72 151.21 Z M 136.05 152.08 L 135.45 152.89 C 134.76 153.82 134.95 155.14 135.89 155.84 C 136.82 156.53 138.14 156.34 138.84 155.40 L 139.44 154.60 C 140.13 153.66 139.94 152.34 139.00 151.65 C 138.07 150.95 136.75 151.15 136.05 152.08 Z M 135.43 152.92 L 134.89 153.68 C 134.21 154.63 134.44 155.95 135.39 156.62 C 136.34 157.29 137.66 157.07 138.33 156.12 L 138.87 155.37 C 139.54 154.42 139.32 153.10 138.37 152.42 C 137.42 151.75 136.10 151.97 135.43 152.92 Z M 134.86 153.71 L 134.33 154.50 C 133.67 155.47 133.92 156.78 134.88 157.44 C 135.85 158.09 137.16 157.84 137.82 156.88 L 138.35 156.09 C 139.01 155.13 138.76 153.81 137.80 153.16 C 136.83 152.50 135.52 152.75 134.86 153.71 Z M 134.31 154.53 L 133.75 155.36 C 133.11 156.34 133.38 157.65 134.35 158.29 C 135.33 158.94 136.64 158.67 137.28 157.69 L 137.84 156.86 C 138.48 155.88 138.21 154.57 137.24 153.93 C 136.26 153.28 134.95 153.55 134.31 154.53 Z M 133.73 155.39 L 133.17 156.27 C 132.55 157.25 132.84 158.56 133.83 159.19 C 134.81 159.82 136.12 159.53 136.75 158.54 L 137.31 157.67 C 137.94 156.68 137.64 155.37 136.66 154.74 C 135.67 154.11 134.36 154.40 133.73 155.39 Z M 133.14 156.31 L 132.63 157.16 C 132.02 158.17 132.35 159.47 133.35 160.08 C 134.36 160.68 135.66 160.36 136.27 159.35 L 136.78 158.50 C 137.39 157.49 137.06 156.19 136.06 155.58 C 135.05 154.98 133.75 155.30 133.14 156.31 Z M 132.58 157.24 L 132.07 158.18 C 131.51 159.21 131.89 160.50 132.92 161.06 C 133.95 161.63 135.25 161.24 135.81 160.21 L 136.32 159.28 C 136.88 158.24 136.50 156.95 135.46 156.39 C 134.43 155.83 133.14 156.21 132.58 157.24 Z M 132.00 158.31 L 131.58 159.23 C 131.10 160.30 131.57 161.56 132.64 162.05 C 133.71 162.53 134.97 162.06 135.46 160.99 L 135.88 160.08 C 136.36 159.01 135.89 157.74 134.82 157.26 C 133.75 156.77 132.49 157.24 132.00 158.31 Z M 131.51 159.40 L 131.21 160.26 C 130.82 161.37 131.40 162.59 132.50 162.98 C 133.61 163.37 134.83 162.79 135.22 161.68 L 135.53 160.82 C 135.92 159.71 135.34 158.49 134.23 158.10 C 133.12 157.71 131.91 158.29 131.51 159.40 Z M 131.16 160.43 L 130.93 161.30 C 130.63 162.44 131.31 163.60 132.45 163.90 C 133.58 164.20 134.75 163.52 135.05 162.39 L 135.28 161.51 C 135.58 160.38 134.90 159.21 133.76 158.91 C 132.62 158.61 131.46 159.29 131.16 160.43 Z M 130.89 161.49 L 130.72 162.45 C 130.53 163.61 131.31 164.71 132.47 164.91 C 133.63 165.10 134.73 164.32 134.92 163.16 L 135.09 162.20 C 135.28 161.04 134.50 159.94 133.34 159.75 C 132.18 159.55 131.08 160.33 130.89 161.49 Z M 130.70 162.63 L 130.61 163.73 C 130.51 164.90 131.38 165.93 132.55 166.03 C 133.72 166.13 134.75 165.26 134.85 164.09 L 134.94 162.99 C 135.04 161.82 134.17 160.79 133.00 160.69 C 131.83 160.59 130.80 161.46 130.70 162.63 Z M 130.60 163.87 L 130.59 164.89 C 130.56 166.06 131.50 167.03 132.67 167.05 C 133.85 167.07 134.82 166.14 134.84 164.96 L 134.86 163.95 C 134.88 162.77 133.94 161.80 132.77 161.78 C 131.59 161.76 130.62 162.70 130.60 163.87 Z M 130.59 165.05 L 130.65 166.10 C 130.72 167.27 131.73 168.16 132.90 168.09 C 134.07 168.02 134.97 167.01 134.90 165.84 L 134.83 164.80 C 134.76 163.63 133.76 162.73 132.58 162.81 C 131.41 162.88 130.52 163.88 130.59 165.05 Z M 130.69 166.35 L 130.86 167.32 C 131.07 168.47 132.18 169.23 133.33 169.02 C 134.49 168.81 135.25 167.71 135.04 166.55 L 134.86 165.59 C 134.65 164.43 133.55 163.67 132.39 163.88 C 131.24 164.09 130.48 165.20 130.69 166.35 Z M 131.01 167.78 L 131.39 168.67 C 131.86 169.75 133.11 170.24 134.19 169.77 C 135.26 169.31 135.75 168.06 135.28 166.98 L 134.90 166.09 C 134.43 165.01 133.18 164.52 132.10 164.99 C 131.03 165.46 130.54 166.71 131.01 167.78 Z M 131.84 169.32 L 132.51 170.00 C 133.33 170.83 134.68 170.83 135.50 170.00 C 136.33 169.18 136.34 167.84 135.51 167.01 L 134.84 166.33 C 134.02 165.50 132.67 165.50 131.85 166.33 C 131.02 167.15 131.01 168.49 131.84 169.32 Z M 133.12 170.42 L 134.03 170.84 C 135.10 171.33 136.35 170.87 136.84 169.81 C 137.33 168.75 136.87 167.49 135.81 167.00 L 134.90 166.58 C 133.84 166.09 132.58 166.55 132.09 167.61 C 131.60 168.68 132.06 169.93 133.12 170.42 Z M 134.46 170.98 L 135.40 171.19 C 136.53 171.45 137.66 170.73 137.92 169.59 C 138.17 168.45 137.45 167.32 136.32 167.07 L 135.38 166.86 C 134.24 166.60 133.11 167.32 132.86 168.46 C 132.60 169.60 133.32 170.73 134.46 170.98 Z M 135.69 171.24 L 136.68 171.31 C 137.85 171.41 138.86 170.54 138.96 169.38 C 139.05 168.21 138.18 167.20 137.02 167.10 L 136.02 167.02 C 134.86 166.93 133.84 167.80 133.75 168.96 C 133.66 170.13 134.52 171.14 135.69 171.24 Z M 136.96 171.32 L 137.99 171.26 C 139.16 171.20 140.05 170.21 139.99 169.04 C 139.93 167.88 138.94 166.98 137.77 167.05 L 136.74 167.10 C 135.57 167.16 134.68 168.16 134.74 169.32 C 134.80 170.49 135.80 171.38 136.96 171.32 Z M 138.30 171.22 L 139.28 171.03 C 140.43 170.80 141.17 169.69 140.94 168.54 C 140.71 167.40 139.60 166.66 138.46 166.89 L 137.47 167.08 C 136.33 167.31 135.58 168.42 135.81 169.57 C 136.04 170.71 137.15 171.45 138.30 171.22 Z M 139.58 170.94 L 140.49 170.62 C 141.59 170.23 142.16 169.02 141.76 167.92 C 141.37 166.82 140.16 166.25 139.07 166.64 L 138.16 166.97 C 137.06 167.36 136.49 168.57 136.88 169.67 C 137.28 170.77 138.48 171.34 139.58 170.94 Z M 140.72 170.52 L 141.61 170.08 C 142.65 169.55 143.07 168.28 142.55 167.24 C 142.03 166.20 140.76 165.78 139.71 166.30 L 138.83 166.75 C 137.79 167.27 137.37 168.54 137.89 169.58 C 138.41 170.62 139.68 171.04 140.72 170.52 Z M 141.78 169.98 L 142.66 169.43 C 143.65 168.82 143.95 167.51 143.34 166.52 C 142.72 165.53 141.42 165.23 140.43 165.85 L 139.55 166.40 C 138.56 167.01 138.25 168.31 138.87 169.30 C 139.48 170.29 140.79 170.60 141.78 169.98 Z M 142.77 169.36 L 143.62 168.76 C 144.57 168.08 144.79 166.76 144.12 165.81 C 143.44 164.86 142.12 164.64 141.17 165.31 L 140.32 165.92 C 139.37 166.59 139.15 167.91 139.82 168.86 C 140.50 169.81 141.82 170.04 142.77 169.36 Z M 143.69 168.70 L 144.52 168.06 C 145.44 167.35 145.61 166.02 144.90 165.10 C 144.18 164.18 142.86 164.01 141.93 164.72 L 141.10 165.36 C 140.18 166.08 140.01 167.40 140.73 168.33 C 141.44 169.25 142.77 169.42 143.69 168.70 Z M 144.57 168.02 L 145.36 167.37 C 146.25 166.63 146.38 165.30 145.64 164.40 C 144.90 163.50 143.57 163.37 142.67 164.11 L 141.88 164.76 C 140.98 165.51 140.85 166.84 141.60 167.74 C 142.34 168.64 143.67 168.76 144.57 168.02 Z M 145.40 167.34 L 146.10 166.72 C 146.98 165.95 147.07 164.62 146.31 163.74 C 145.54 162.86 144.21 162.77 143.33 163.54 L 142.62 164.15 C 141.74 164.92 141.65 166.25 142.42 167.13 C 143.19 168.01 144.52 168.10 145.40 167.34 Z M 146.15 166.68 L 146.96 165.92 C 147.82 165.13 147.86 163.79 147.07 162.94 C 146.27 162.08 144.94 162.04 144.08 162.83 L 143.28 163.58 C 142.42 164.38 142.37 165.71 143.17 166.57 C 143.96 167.42 145.30 167.47 146.15 166.68 Z M 147.03 165.86 L 147.70 165.17 C 148.52 164.34 148.52 163.01 147.69 162.19 C 146.86 161.37 145.52 161.38 144.70 162.21 L 144.02 162.89 C 143.20 163.72 143.21 165.06 144.04 165.88 C 144.87 166.70 146.21 166.69 147.03 165.86 Z M 147.75 165.13 L 148.36 164.46 C 149.16 163.61 149.11 162.27 148.25 161.48 C 147.39 160.69 146.06 160.74 145.27 161.59 L 144.65 162.25 C 143.86 163.11 143.91 164.45 144.77 165.24 C 145.62 166.03 146.96 165.98 147.75 165.13 Z M 148.38 164.45 L 149.05 163.70 C 149.84 162.84 149.77 161.50 148.90 160.72 C 148.04 159.94 146.70 160.00 145.92 160.87 L 145.25 161.61 C 144.47 162.48 144.53 163.81 145.40 164.59 C 146.26 165.38 147.60 165.31 148.38 164.45 Z M 149.06 163.69 L 149.73 162.95 C 150.50 162.08 150.43 160.74 149.56 159.96 C 148.69 159.19 147.35 159.26 146.58 160.13 L 145.91 160.88 C 145.14 161.75 145.21 163.08 146.08 163.86 C 146.95 164.64 148.29 164.56 149.06 163.69 Z M 149.73 162.94 L 150.40 162.19 C 151.17 161.31 151.09 159.98 150.22 159.21 C 149.34 158.43 148.01 158.51 147.24 159.39 L 146.57 160.14 C 145.80 161.01 145.88 162.35 146.75 163.12 C 147.63 163.89 148.96 163.81 149.73 162.94 Z M 150.41 162.17 L 151.06 161.42 C 151.83 160.54 151.74 159.21 150.86 158.44 C 149.98 157.68 148.64 157.77 147.88 158.65 L 147.22 159.40 C 146.46 160.28 146.55 161.61 147.43 162.38 C 148.31 163.15 149.64 163.05 150.41 162.17 Z M 151.08 161.40 L 151.60 160.79 C 152.36 159.90 152.25 158.57 151.36 157.81 C 150.47 157.06 149.14 157.17 148.38 158.06 L 147.86 158.67 C 147.11 159.56 147.22 160.89 148.10 161.65 C 148.99 162.40 150.33 162.29 151.08 161.40 Z M 151.63 160.76 L 152.20 160.06 C 152.93 159.16 152.80 157.83 151.89 157.09 C 150.99 156.35 149.66 156.49 148.92 157.40 L 148.35 158.09 C 147.62 158.99 147.75 160.33 148.66 161.06 C 149.56 161.80 150.89 161.66 151.63 160.76 Z M 152.22 160.03 L 152.97 159.07 C 153.69 158.15 153.52 156.82 152.60 156.10 C 151.68 155.39 150.36 155.55 149.64 156.47 L 148.89 157.43 C 148.17 158.35 148.34 159.68 149.26 160.39 C 150.18 161.11 151.51 160.95 152.22 160.03 Z M 152.99 159.05 L 153.57 158.28 C 154.28 157.35 154.10 156.02 153.17 155.32 C 152.24 154.61 150.91 154.79 150.21 155.72 L 149.62 156.49 C 148.92 157.42 149.10 158.75 150.03 159.45 C 150.96 160.16 152.28 159.98 152.99 159.05 Z M 153.58 158.26 L 154.15 157.50 C 154.85 156.56 154.66 155.24 153.73 154.54 C 152.79 153.84 151.47 154.03 150.77 154.97 L 150.20 155.74 C 149.50 156.67 149.69 157.99 150.62 158.69 C 151.56 159.39 152.88 159.20 153.58 158.26 Z M 154.16 157.49 L 154.77 156.66 C 155.47 155.72 155.26 154.39 154.32 153.70 C 153.39 153.01 152.06 153.21 151.37 154.15 L 150.76 154.98 C 150.07 155.92 150.27 157.24 151.21 157.93 C 152.15 158.63 153.47 158.42 154.16 157.49 Z M 154.78 156.64 L 155.41 155.78 C 156.09 154.83 155.88 153.51 154.93 152.83 C 153.99 152.15 152.67 152.36 151.98 153.30 L 151.36 154.17 C 150.68 155.11 150.89 156.43 151.84 157.12 C 152.78 157.80 154.10 157.59 154.78 156.64 Z M 155.42 155.76 L 156.03 154.90 C 156.70 153.95 156.48 152.63 155.52 151.96 C 154.57 151.28 153.25 151.51 152.58 152.46 L 151.97 153.32 C 151.30 154.27 151.52 155.59 152.48 156.27 C 153.43 156.94 154.75 156.71 155.42 155.76 Z M 156.05 154.88 L 156.65 154.00 C 157.31 153.04 157.06 151.73 156.10 151.07 C 155.14 150.41 153.82 150.65 153.16 151.61 L 152.56 152.49 C 151.90 153.45 152.15 154.76 153.11 155.42 C 154.07 156.08 155.39 155.84 156.05 154.88 Z M 156.67 153.97 L 157.32 152.98 C 157.96 152.00 157.69 150.69 156.71 150.05 C 155.74 149.41 154.43 149.68 153.79 150.66 L 153.14 151.65 C 152.50 152.62 152.77 153.93 153.74 154.57 C 154.72 155.21 156.03 154.94 156.67 153.97 Z M 157.34 152.94 L 157.90 152.04 C 158.52 151.05 158.22 149.75 157.23 149.13 C 156.25 148.51 154.95 148.81 154.33 149.80 L 153.77 150.70 C 153.15 151.69 153.45 152.99 154.44 153.61 C 155.42 154.22 156.73 153.92 157.34 152.94 Z M 157.93 152.00 L 158.41 151.19 C 159.00 150.19 158.67 148.90 157.67 148.31 C 156.67 147.71 155.38 148.04 154.78 149.04 L 154.31 149.84 C 153.71 150.84 154.04 152.14 155.04 152.73 C 156.04 153.33 157.33 153.00 157.93 152.00 Z M 158.43 151.16 L 158.83 150.44 C 159.41 149.43 159.05 148.15 158.04 147.57 C 157.03 147.00 155.74 147.35 155.17 148.36 L 154.76 149.08 C 154.19 150.09 154.54 151.37 155.56 151.95 C 156.57 152.52 157.85 152.17 158.43 151.16 Z M 158.85 150.40 L 159.31 149.54 C 159.86 148.51 159.48 147.24 158.46 146.69 C 157.44 146.14 156.16 146.52 155.61 147.55 L 155.15 148.41 C 154.60 149.43 154.98 150.70 156.00 151.25 C 157.03 151.80 158.30 151.42 158.85 150.40 Z M 159.34 149.48 L 159.76 148.63 C 160.28 147.59 159.86 146.34 158.82 145.82 C 157.78 145.30 156.53 145.72 156.01 146.76 L 155.59 147.61 C 155.07 148.64 155.49 149.90 156.53 150.42 C 157.56 150.93 158.82 150.51 159.34 149.48 Z M 159.78 148.58 L 160.21 147.66 C 160.69 146.61 160.24 145.37 159.20 144.88 C 158.15 144.39 156.91 144.85 156.42 145.89 L 155.99 146.81 C 155.50 147.86 155.96 149.10 157.00 149.59 C 158.05 150.08 159.29 149.62 159.78 148.58 Z M 160.21 147.63 L 160.60 146.78 C 161.07 145.73 160.60 144.50 159.56 144.03 C 158.51 143.55 157.27 144.02 156.80 145.07 L 156.42 145.92 C 155.94 146.97 156.41 148.20 157.46 148.67 C 158.51 149.15 159.74 148.68 160.21 147.63 Z M 160.60 146.76 L 161.00 145.84 C 161.46 144.79 160.98 143.57 159.93 143.10 C 158.88 142.64 157.66 143.12 157.20 144.17 L 156.80 145.09 C 156.34 146.14 156.81 147.37 157.86 147.83 C 158.91 148.29 160.14 147.81 160.60 146.76 Z M 161.01 145.81 L 161.41 144.84 C 161.86 143.79 161.36 142.57 160.30 142.13 C 159.25 141.69 158.04 142.19 157.59 143.24 L 157.19 144.21 C 156.75 145.26 157.24 146.48 158.30 146.92 C 159.36 147.36 160.57 146.86 161.01 145.81 Z M 161.43 144.80 L 161.80 143.83 C 162.22 142.77 161.70 141.57 160.63 141.16 C 159.57 140.74 158.37 141.27 157.96 142.33 L 157.58 143.29 C 157.16 144.35 157.69 145.55 158.75 145.97 C 159.81 146.38 161.01 145.86 161.43 144.80 Z M 161.82 143.76 L 162.18 142.75 C 162.55 141.68 161.99 140.50 160.92 140.13 C 159.85 139.75 158.68 140.31 158.30 141.38 L 157.94 142.40 C 157.57 143.47 158.13 144.64 159.20 145.02 C 160.27 145.39 161.44 144.83 161.82 143.76 Z M 162.18 142.67 L 162.48 141.71 C 162.82 140.64 162.22 139.49 161.15 139.16 C 160.08 138.82 158.93 139.42 158.60 140.49 L 158.29 141.46 C 157.96 142.53 158.56 143.67 159.63 144.01 C 160.70 144.34 161.85 143.75 162.18 142.67 Z M 162.48 141.65 L 162.74 140.73 C 163.04 139.65 162.42 138.54 161.35 138.24 C 160.27 137.94 159.16 138.56 158.86 139.63 L 158.60 140.55 C 158.29 141.63 158.92 142.74 159.99 143.04 C 161.07 143.35 162.18 142.72 162.48 141.65 Z M 162.74 140.68 L 162.98 139.75 C 163.25 138.68 162.61 137.59 161.54 137.31 C 160.47 137.04 159.38 137.68 159.10 138.75 L 158.86 139.68 C 158.59 140.75 159.23 141.84 160.30 142.12 C 161.37 142.39 162.46 141.75 162.74 140.68 Z M 162.97 139.70 L 163.19 138.74 C 163.44 137.67 162.78 136.61 161.72 136.36 C 160.65 136.11 159.59 136.77 159.34 137.83 L 159.11 138.80 C 158.86 139.86 159.52 140.93 160.59 141.18 C 161.65 141.43 162.72 140.77 162.97 139.70 Z M 163.18 138.68 L 163.38 137.70 C 163.60 136.64 162.92 135.61 161.86 135.39 C 160.80 135.18 159.76 135.86 159.55 136.92 L 159.35 137.89 C 159.13 138.95 159.81 139.99 160.87 140.20 C 161.93 140.42 162.97 139.73 163.18 138.68 Z M 163.37 137.63 L 163.54 136.63 C 163.72 135.58 163.01 134.58 161.95 134.40 C 160.90 134.23 159.90 134.94 159.72 135.99 L 159.56 136.99 C 159.38 138.04 160.09 139.04 161.14 139.22 C 162.20 139.40 163.20 138.69 163.37 137.63 Z M 163.53 136.57 L 163.67 135.56 C 163.81 134.51 163.08 133.55 162.03 133.41 C 160.99 133.26 160.02 133.99 159.88 135.04 L 159.74 136.05 C 159.60 137.10 160.33 138.06 161.37 138.21 C 162.42 138.35 163.38 137.62 163.53 136.57 Z M 163.64 135.52 L 163.76 134.51 C 163.89 133.48 163.15 132.54 162.12 132.42 C 161.08 132.30 160.14 133.03 160.02 134.07 L 159.90 135.08 C 159.78 136.11 160.52 137.05 161.55 137.17 C 162.58 137.29 163.52 136.56 163.64 135.52 Z M 163.74 134.50 L 163.85 133.54 C 163.96 132.52 163.22 131.60 162.20 131.49 C 161.18 131.37 160.26 132.11 160.15 133.13 L 160.04 134.09 C 159.93 135.11 160.67 136.03 161.69 136.14 C 162.71 136.25 163.63 135.52 163.74 134.50 Z M 163.81 133.54 L 163.93 132.48 C 164.04 131.48 163.32 130.58 162.32 130.47 C 161.32 130.36 160.42 131.07 160.31 132.07 L 160.19 133.13 C 160.08 134.13 160.80 135.03 161.79 135.14 C 162.79 135.25 163.69 134.54 163.81 133.54 Z M 163.87 132.48 L 163.98 131.51 C 164.09 130.54 163.40 129.67 162.43 129.56 C 161.46 129.44 160.59 130.14 160.48 131.11 L 160.36 132.07 C 160.25 133.04 160.95 133.92 161.92 134.03 C 162.88 134.14 163.76 133.45 163.87 132.48 Z M 163.94 131.51 L 164.01 130.93 C 164.12 129.98 163.44 129.13 162.50 129.02 C 161.55 128.91 160.70 129.58 160.59 130.53 L 160.52 131.11 C 160.41 132.05 161.09 132.91 162.03 133.02 C 162.97 133.13 163.83 132.45 163.94 131.51 Z"
      fill="black"
      fill-rule="nonzero" /></svg>