<svg xmlns="http://www.w3.org/2000/svg" width="300" height="300" viewBox="0 0 300 300">
<path d="M 138.53 123.04 L 138.53 123.98 C 138.53 124.96 139.33 125.76 140.31 125.76 C 141.30 125.76 142.09 124.96 142.09 123.98 L 142.09 123.04 C 142.09 122.05 141.30 121.26 140.31 121.26 C 139.33 121.26 138.53 122.05 138.53 123.04 Z M 138.49 123.98 L 138.49 124.97 C 138.49 125.98 139.31 126.80 140.31 126.80 C 141.32 126.80 142.13 125.98 142.13 124.97 L 142.13 123.98 C 142.13 122.97 141.32 122.15 140.31 122.15 C 139.31 122.15 138.49 122.97 138.49 123.98 Z M 138.46 124.97 L 138.46 126.02 C 138.46 127.04 139.29 127.87 140.31 127.87 C 141.33 127.87 142.16 127.04 142.16 126.02 L 142.16 124.97 C 142.16 123.95 141.33 123.12 140.31 123.12 C 139.29 123.12 138.46 123.95 138.46 124.97 Z M 138.47 126.02 L 138.47 127.01 C 138.47 128.02 139.29 128.85 140.31 128.85 C 141.33 128.85 142.16 128.02 142.16 127.01 L 142.16 126.02 C 142.16 125.00 141.33 124.17 140.31 124.17 C 139.29 124.17 138.47 125.00 138.47 126.02 Z M 138.50 127.01 L 138.50 128.03 C 138.50 129.03 139.31 129.84 140.31 129.84 C 141.31 129.84 142.12 129.03 142.12 128.03 L 142.12 127.01 C 142.12 126.01 141.31 125.19 140.31 125.19 C 139.31 125.19 138.50 126.01 138.50 127.01 Z M 138.53 128.03 L 138.53 129.04 C 138.53 130.02 139.33 130.82 140.31 130.82 C 141.30 130.82 142.09 130.02 142.09 129.04 L 142.09 128.03 C 142.09 127.05 141.30 126.25 140.31 126.25 C 139.33 126.25 138.53 127.05 138.53 128.03 Z M 138.57 129.04 L 138.57 130.09 C 138.56 131.06 139.34 131.84 140.31 131.84 C 141.27 131.84 142.05 131.06 142.06 130.10 L 142.06 129.04 C 142.06 128.08 141.28 127.30 140.31 127.30 C 139.35 127.30 138.57 128.08 138.57 129.04 Z M 138.60 130.08 L 138.60 131.07 C 138.59 132.01 139.34 132.78 140.29 132.79 C 141.23 132.80 142.00 132.04 142.01 131.10 L 142.02 130.11 C 142.03 129.17 141.27 128.40 140.33 128.39 C 139.38 128.38 138.61 129.14 138.60 130.08 Z M 138.63 131.04 L 138.61 132.00 C 138.59 132.92 139.32 133.69 140.24 133.71 C 141.16 133.73 141.92 133.00 141.95 132.08 L 141.97 131.12 C 141.99 130.20 141.26 129.44 140.34 129.41 C 139.42 129.39 138.66 130.12 138.63 131.04 Z M 138.64 131.97 L 138.60 133.00 C 138.56 133.90 139.26 134.67 140.16 134.70 C 141.06 134.74 141.83 134.05 141.87 133.14 L 141.91 132.11 C 141.95 131.21 141.25 130.45 140.35 130.41 C 139.45 130.37 138.68 131.07 138.64 131.97 Z M 138.63 132.99 L 138.58 133.98 C 138.53 134.87 139.22 135.62 140.10 135.67 C 140.99 135.71 141.75 135.03 141.79 134.14 L 141.84 133.15 C 141.88 132.26 141.20 131.51 140.31 131.46 C 139.43 131.42 138.67 132.10 138.63 132.99 Z M 138.60 134.00 L 138.56 135.00 C 138.53 135.87 139.22 136.61 140.09 136.64 C 140.97 136.67 141.70 135.98 141.73 135.11 L 141.77 134.12 C 141.80 133.24 141.12 132.50 140.24 132.47 C 139.36 132.44 138.63 133.13 138.60 134.00 Z M 138.58 135.03 L 138.56 136.03 C 138.55 136.90 139.25 137.61 140.11 137.63 C 140.98 137.64 141.70 136.94 141.71 136.07 L 141.72 135.07 C 141.73 134.20 141.04 133.49 140.17 133.48 C 139.30 133.47 138.59 134.16 138.58 135.03 Z M 138.57 136.05 L 138.57 136.87 C 138.57 137.74 139.27 138.44 140.13 138.44 C 140.99 138.44 141.70 137.74 141.70 136.88 L 141.70 136.06 C 141.70 135.19 141.00 134.49 140.14 134.49 C 139.27 134.49 138.57 135.19 138.57 136.05 Z"
      fill="black"
      fill-rule="nonzero" /><path d="M 142.77 121.38 L 141.67 122.05 C 140.80 122.57 140.53 123.70 141.05 124.57 C 141.58 125.44 142.71 125.72 143.58 125.20 L 144.68 124.53 C 145.55 124.01 145.83 122.88 145.30 122.01 C 144.78 121.14 143.64 120.86 142.77 121.38 Z M 141.17 122.38 L 140.83 122.78 C 140.15 123.59 140.24 124.79 141.05 125.48 C 141.85 126.16 143.06 126.06 143.75 125.26 L 144.08 124.86 C 144.77 124.06 144.67 122.85 143.87 122.17 C 143.06 121.48 141.85 121.58 141.17 122.38 Z M 142.33 125.99 L 143.16 125.97 C 144.25 125.94 145.11 125.04 145.08 123.95 C 145.06 122.87 144.15 122.01 143.07 122.03 L 142.24 122.05 C 141.16 122.08 140.30 122.98 140.32 124.07 C 140.35 125.15 141.25 126.01 142.33 125.99 Z M 143.48 125.97 L 144.67 125.75 C 145.75 125.54 146.47 124.50 146.26 123.41 C 146.06 122.32 145.01 121.61 143.93 121.81 L 142.75 122.03 C 141.66 122.24 140.94 123.28 141.15 124.37 C 141.35 125.46 142.40 126.17 143.48 125.97 Z M 144.74 125.75 L 145.65 125.55 C 146.74 125.30 147.42 124.22 147.17 123.13 C 146.93 122.04 145.84 121.36 144.75 121.60 L 143.85 121.81 C 142.76 122.05 142.08 123.14 142.33 124.23 C 142.57 125.31 143.65 126.00 144.74 125.75 Z M 145.65 125.55 L 146.66 125.33 C 147.75 125.07 148.43 123.99 148.18 122.89 C 147.93 121.80 146.84 121.11 145.75 121.36 L 144.75 121.59 C 143.65 121.84 142.97 122.93 143.22 124.03 C 143.47 125.12 144.56 125.80 145.65 125.55 Z M 146.63 125.34 L 147.65 125.12 C 148.75 124.89 149.46 123.81 149.22 122.70 C 148.99 121.60 147.91 120.90 146.81 121.13 L 145.78 121.35 C 144.68 121.58 143.97 122.67 144.21 123.77 C 144.44 124.87 145.52 125.57 146.63 125.34 Z M 147.62 125.13 L 148.60 124.94 C 149.71 124.73 150.43 123.65 150.22 122.55 C 150.00 121.44 148.93 120.71 147.82 120.93 L 146.84 121.12 C 145.73 121.34 145.01 122.41 145.22 123.52 C 145.44 124.63 146.51 125.35 147.62 125.13 Z M 148.58 124.95 L 149.60 124.76 C 150.71 124.56 151.44 123.49 151.24 122.38 C 151.04 121.27 149.97 120.53 148.86 120.74 L 147.84 120.92 C 146.73 121.13 146.00 122.19 146.20 123.30 C 146.40 124.42 147.47 125.15 148.58 124.95 Z M 149.58 124.77 L 150.57 124.60 C 151.68 124.40 152.43 123.34 152.24 122.23 C 152.04 121.12 150.99 120.37 149.87 120.56 L 148.88 120.73 C 147.77 120.93 147.02 121.98 147.21 123.10 C 147.41 124.21 148.46 124.96 149.58 124.77 Z M 150.55 124.60 L 151.60 124.43 C 152.71 124.25 153.47 123.20 153.29 122.08 C 153.11 120.97 152.06 120.21 150.94 120.39 L 149.89 120.56 C 148.78 120.74 148.02 121.79 148.20 122.91 C 148.38 124.02 149.43 124.78 150.55 124.60 Z M 151.56 124.43 L 152.56 124.29 C 153.68 124.13 154.45 123.09 154.29 121.97 C 154.13 120.85 153.09 120.08 151.97 120.24 L 150.98 120.38 C 149.86 120.55 149.09 121.58 149.25 122.70 C 149.41 123.82 150.45 124.59 151.56 124.43 Z M 152.51 124.29 L 153.45 124.18 C 154.57 124.04 155.36 123.03 155.23 121.91 C 155.09 120.79 154.07 119.99 152.96 120.12 L 152.02 120.24 C 150.90 120.37 150.10 121.39 150.24 122.51 C 150.37 123.63 151.39 124.43 152.51 124.29 Z M 153.39 124.18 L 154.35 124.09 C 155.47 123.98 156.29 122.99 156.19 121.87 C 156.08 120.75 155.08 119.92 153.96 120.03 L 153.01 120.12 C 151.89 120.23 151.06 121.23 151.17 122.35 C 151.28 123.47 152.27 124.29 153.39 124.18 Z M 154.32 124.09 L 155.31 124.01 C 156.42 123.92 157.26 122.94 157.17 121.82 C 157.09 120.71 156.11 119.87 154.99 119.96 L 154.00 120.03 C 152.88 120.12 152.04 121.10 152.13 122.22 C 152.22 123.34 153.20 124.17 154.32 124.09 Z M 155.29 124.00 L 156.31 123.93 C 157.42 123.85 158.26 122.88 158.18 121.76 C 158.10 120.65 157.13 119.81 156.01 119.89 L 155.00 119.96 C 153.88 120.04 153.04 121.01 153.13 122.13 C 153.21 123.25 154.18 124.09 155.29 124.00 Z M 156.32 123.92 L 157.31 123.85 C 158.42 123.76 159.26 122.79 159.17 121.67 C 159.08 120.56 158.11 119.73 157.00 119.82 L 156.00 119.89 C 154.89 119.98 154.06 120.95 154.14 122.07 C 154.23 123.18 155.20 124.01 156.32 123.92 Z M 157.32 123.84 L 158.31 123.76 C 159.42 123.67 160.25 122.69 160.16 121.58 C 160.07 120.47 159.09 119.65 157.98 119.74 L 156.99 119.82 C 155.88 119.91 155.05 120.89 155.14 122.00 C 155.24 123.11 156.21 123.93 157.32 123.84 Z M 158.31 123.75 L 159.31 123.67 C 160.42 123.58 161.25 122.61 161.16 121.51 C 161.07 120.40 160.10 119.58 158.99 119.67 L 157.99 119.75 C 156.88 119.84 156.06 120.81 156.15 121.91 C 156.24 123.02 157.20 123.84 158.31 123.75 Z M 159.30 123.67 L 160.32 123.59 C 161.42 123.51 162.25 122.55 162.17 121.45 C 162.09 120.34 161.13 119.51 160.02 119.60 L 159.01 119.67 C 157.90 119.75 157.07 120.71 157.15 121.81 C 157.23 122.92 158.19 123.75 159.30 123.67 Z M 160.30 123.59 L 161.31 123.53 C 162.41 123.46 163.25 122.51 163.18 121.40 C 163.11 120.30 162.16 119.46 161.06 119.53 L 160.04 119.60 C 158.94 119.67 158.10 120.62 158.17 121.72 C 158.24 122.82 159.19 123.66 160.30 123.59 Z M 161.29 123.53 L 162.28 123.47 C 163.38 123.41 164.23 122.47 164.17 121.37 C 164.11 120.26 163.16 119.42 162.06 119.48 L 161.07 119.53 C 159.97 119.59 159.12 120.54 159.18 121.64 C 159.25 122.74 160.19 123.59 161.29 123.53 Z M 162.27 123.47 L 163.29 123.42 C 164.39 123.37 165.24 122.43 165.19 121.33 C 165.13 120.23 164.20 119.38 163.09 119.43 L 162.07 119.48 C 160.97 119.53 160.12 120.47 160.17 121.57 C 160.22 122.68 161.16 123.53 162.27 123.47 Z M 163.28 123.42 L 164.29 123.38 C 165.40 123.33 166.25 122.40 166.20 121.30 C 166.16 120.19 165.22 119.34 164.12 119.38 L 163.10 119.43 C 162.00 119.48 161.14 120.41 161.19 121.51 C 161.24 122.62 162.17 123.47 163.28 123.42 Z M 164.29 123.38 L 165.24 123.34 C 166.34 123.30 167.20 122.36 167.16 121.26 C 167.11 120.16 166.18 119.30 165.07 119.34 L 164.12 119.38 C 163.02 119.43 162.16 120.36 162.21 121.47 C 162.25 122.57 163.19 123.43 164.29 123.38 Z M 165.24 123.34 L 166.25 123.30 C 167.35 123.25 168.21 122.32 168.16 121.21 C 168.11 120.11 167.18 119.25 166.08 119.30 L 165.07 119.34 C 163.97 119.39 163.11 120.32 163.16 121.43 C 163.21 122.53 164.14 123.39 165.24 123.34 Z M 166.24 123.30 L 167.22 123.27 C 168.33 123.23 169.19 122.30 169.15 121.19 C 169.11 120.08 168.18 119.22 167.07 119.26 L 166.09 119.30 C 164.98 119.34 164.12 120.27 164.16 121.37 C 164.20 122.48 165.13 123.34 166.24 123.30 Z M 167.18 123.29 L 168.18 123.27 C 169.29 123.25 170.19 122.33 170.17 121.21 C 170.15 120.10 169.23 119.21 168.11 119.22 L 167.11 119.24 C 166.00 119.26 165.11 120.18 165.12 121.30 C 165.14 122.41 166.06 123.31 167.18 123.29 Z M 167.98 123.31 L 168.98 123.39 C 170.12 123.48 171.12 122.63 171.21 121.49 C 171.30 120.35 170.44 119.35 169.30 119.26 L 168.31 119.18 C 167.17 119.09 166.17 119.94 166.08 121.08 C 165.99 122.22 166.84 123.22 167.98 123.31 Z M 168.50 123.35 L 169.44 123.65 C 170.56 124.00 171.75 123.38 172.10 122.26 C 172.46 121.14 171.84 119.95 170.72 119.60 L 169.78 119.30 C 168.66 118.95 167.47 119.57 167.12 120.69 C 166.76 121.81 167.38 123.00 168.50 123.35 Z M 168.82 123.37 L 169.61 123.94 C 170.58 124.63 171.93 124.41 172.62 123.44 C 173.31 122.48 173.09 121.13 172.12 120.44 L 171.33 119.87 C 170.37 119.18 169.02 119.40 168.33 120.37 C 167.63 121.33 167.86 122.68 168.82 123.37 Z M 169.11 123.46 L 169.71 124.28 C 170.41 125.25 171.77 125.47 172.74 124.76 C 173.71 124.06 173.93 122.70 173.22 121.73 L 172.62 120.91 C 171.92 119.94 170.56 119.73 169.59 120.43 C 168.62 121.14 168.41 122.49 169.11 123.46 Z M 169.38 123.70 L 169.70 124.65 C 170.09 125.80 171.33 126.42 172.48 126.04 C 173.63 125.65 174.24 124.41 173.86 123.26 L 173.54 122.31 C 173.16 121.16 171.92 120.55 170.77 120.93 C 169.62 121.31 169.00 122.56 169.38 123.70 Z M 169.57 124.20 L 169.68 125.21 C 169.82 126.43 170.91 127.31 172.13 127.18 C 173.35 127.05 174.23 125.95 174.10 124.73 L 173.99 123.72 C 173.86 122.50 172.76 121.61 171.54 121.75 C 170.32 121.88 169.44 122.98 169.57 124.20 Z M 169.64 124.90 L 169.61 125.89 C 169.57 127.14 170.55 128.18 171.79 128.21 C 173.04 128.25 174.08 127.27 174.11 126.03 L 174.14 125.04 C 174.18 123.79 173.21 122.75 171.96 122.72 C 170.72 122.68 169.68 123.66 169.64 124.90 Z M 169.61 125.63 L 169.47 126.60 C 169.28 127.84 170.14 128.99 171.38 129.18 C 172.62 129.36 173.78 128.51 173.96 127.27 L 174.11 126.30 C 174.29 125.06 173.44 123.90 172.20 123.71 C 170.96 123.53 169.80 124.38 169.61 125.63 Z M 169.53 126.31 L 169.26 127.25 C 168.92 128.46 169.62 129.72 170.83 130.06 C 172.04 130.40 173.30 129.70 173.64 128.49 L 173.91 127.55 C 174.25 126.34 173.54 125.08 172.33 124.74 C 171.12 124.40 169.87 125.10 169.53 126.31 Z M 169.33 127.05 L 168.96 128.00 C 168.51 129.17 169.10 130.49 170.27 130.94 C 171.44 131.39 172.76 130.81 173.21 129.63 L 173.58 128.69 C 174.03 127.51 173.44 126.20 172.27 125.75 C 171.09 125.29 169.78 125.88 169.33 127.05 Z M 169.00 127.90 L 168.60 128.82 C 168.09 129.97 168.62 131.32 169.77 131.82 C 170.92 132.33 172.27 131.80 172.77 130.65 L 173.17 129.73 C 173.68 128.58 173.15 127.23 172.00 126.73 C 170.85 126.22 169.51 126.75 169.00 127.90 Z M 168.62 128.77 L 168.18 129.70 C 167.65 130.84 168.14 132.20 169.28 132.73 C 170.42 133.26 171.78 132.77 172.31 131.63 L 172.75 130.70 C 173.28 129.56 172.79 128.20 171.65 127.67 C 170.51 127.14 169.15 127.63 168.62 128.77 Z M 168.20 129.67 L 167.75 130.58 C 167.20 131.72 167.67 133.08 168.81 133.63 C 169.94 134.18 171.30 133.71 171.85 132.58 L 172.30 131.66 C 172.85 130.53 172.38 129.17 171.25 128.62 C 170.11 128.07 168.75 128.54 168.20 129.67 Z M 167.77 130.56 L 167.31 131.46 C 166.75 132.59 167.20 133.96 168.33 134.52 C 169.45 135.09 170.82 134.63 171.39 133.51 L 171.84 132.60 C 172.41 131.48 171.95 130.11 170.83 129.55 C 169.70 128.98 168.33 129.43 167.77 130.56 Z M 167.33 131.44 L 166.88 132.30 C 166.30 133.42 166.74 134.79 167.86 135.37 C 168.97 135.95 170.35 135.51 170.93 134.40 L 171.37 133.53 C 171.95 132.42 171.51 131.04 170.40 130.46 C 169.28 129.88 167.90 130.32 167.33 131.44 Z M 166.89 132.28 L 166.45 133.12 C 165.86 134.24 166.28 135.62 167.39 136.20 C 168.51 136.79 169.88 136.37 170.47 135.25 L 170.92 134.41 C 171.51 133.30 171.08 131.92 169.97 131.33 C 168.86 130.75 167.48 131.17 166.89 132.28 Z M 166.45 133.11 L 165.99 133.97 C 165.40 135.07 165.81 136.45 166.92 137.05 C 168.03 137.65 169.41 137.23 170.00 136.12 L 170.46 135.27 C 171.06 134.16 170.65 132.78 169.54 132.19 C 168.43 131.59 167.05 132.00 166.45 133.11 Z M 166.01 133.95 L 165.51 134.86 C 164.90 135.96 165.30 137.34 166.41 137.94 C 167.51 138.55 168.89 138.15 169.49 137.05 L 169.99 136.14 C 170.60 135.04 170.19 133.66 169.09 133.05 C 167.99 132.45 166.61 132.85 166.01 133.95 Z M 165.52 134.84 L 165.03 135.71 C 164.42 136.80 164.80 138.19 165.90 138.80 C 166.99 139.42 168.38 139.03 168.99 137.94 L 169.48 137.06 C 170.10 135.97 169.71 134.58 168.61 133.97 C 167.52 133.36 166.13 133.74 165.52 134.84 Z M 165.04 135.69 L 164.56 136.53 C 163.94 137.62 164.32 139.01 165.40 139.63 C 166.49 140.25 167.88 139.88 168.50 138.79 L 168.98 137.95 C 169.61 136.86 169.23 135.47 168.14 134.85 C 167.05 134.23 165.66 134.61 165.04 135.69 Z M 164.57 136.52 L 164.06 137.39 C 163.43 138.48 163.80 139.86 164.88 140.49 C 165.97 141.12 167.36 140.76 167.99 139.67 L 168.49 138.80 C 169.12 137.72 168.76 136.33 167.67 135.70 C 166.59 135.07 165.20 135.44 164.57 136.52 Z M 164.07 137.38 L 163.53 138.29 C 162.90 139.37 163.26 140.76 164.34 141.40 C 165.41 142.03 166.80 141.67 167.44 140.60 L 167.98 139.68 C 168.61 138.61 168.25 137.22 167.18 136.58 C 166.10 135.95 164.71 136.30 164.07 137.38 Z M 163.54 138.28 L 163.04 139.12 C 162.40 140.20 162.75 141.59 163.83 142.23 C 164.90 142.87 166.29 142.52 166.93 141.44 L 167.43 140.61 C 168.07 139.53 167.72 138.14 166.65 137.50 C 165.57 136.86 164.18 137.21 163.54 138.28 Z M 163.05 139.11 L 162.54 139.96 C 161.89 141.03 162.23 142.42 163.30 143.07 C 164.37 143.72 165.76 143.38 166.41 142.31 L 166.92 141.46 C 167.57 140.39 167.23 138.99 166.16 138.35 C 165.09 137.70 163.70 138.04 163.05 139.11 Z M 162.55 139.94 L 162.01 140.80 C 161.36 141.87 161.69 143.26 162.75 143.92 C 163.81 144.58 165.21 144.25 165.86 143.18 L 166.40 142.32 C 167.05 141.26 166.73 139.86 165.66 139.21 C 164.60 138.55 163.20 138.88 162.55 139.94 Z M 162.03 140.78 L 161.48 141.64 C 160.81 142.70 161.13 144.10 162.18 144.77 C 163.24 145.43 164.63 145.12 165.30 144.07 L 165.85 143.20 C 166.52 142.15 166.21 140.75 165.15 140.08 C 164.10 139.41 162.70 139.73 162.03 140.78 Z M 161.50 141.62 L 160.95 142.46 C 160.27 143.50 160.56 144.90 161.61 145.59 C 162.66 146.27 164.06 145.97 164.74 144.93 L 165.29 144.09 C 165.97 143.05 165.68 141.64 164.63 140.96 C 163.58 140.28 162.18 140.57 161.50 141.62 Z M 160.97 142.43 L 160.41 143.26 C 159.72 144.30 159.99 145.70 161.03 146.40 C 162.07 147.09 163.47 146.82 164.17 145.78 L 164.72 144.95 C 165.42 143.92 165.14 142.51 164.11 141.82 C 163.07 141.12 161.67 141.40 160.97 142.43 Z M 160.43 143.24 L 159.86 144.06 C 159.16 145.09 159.42 146.50 160.45 147.20 C 161.47 147.91 162.88 147.65 163.59 146.62 L 164.15 145.80 C 164.86 144.77 164.60 143.36 163.57 142.66 C 162.54 141.95 161.14 142.21 160.43 143.24 Z M 159.88 144.05 L 159.30 144.87 C 158.58 145.89 158.83 147.30 159.85 148.01 C 160.87 148.73 162.28 148.48 163.00 147.46 L 163.57 146.64 C 164.29 145.62 164.04 144.21 163.02 143.49 C 162.00 142.78 160.59 143.02 159.88 144.05 Z M 159.31 144.86 L 158.73 145.67 C 158.01 146.68 158.25 148.09 159.26 148.82 C 160.28 149.54 161.69 149.30 162.41 148.29 L 162.99 147.47 C 163.71 146.46 163.47 145.05 162.46 144.33 C 161.44 143.60 160.03 143.84 159.31 144.86 Z M 158.74 145.66 L 158.16 146.46 C 157.43 147.47 157.66 148.88 158.66 149.61 C 159.67 150.34 161.08 150.12 161.81 149.11 L 162.40 148.30 C 163.13 147.29 162.90 145.88 161.89 145.15 C 160.88 144.42 159.47 144.65 158.74 145.66 Z M 158.17 146.45 L 157.58 147.25 C 156.84 148.25 157.05 149.67 158.05 150.40 C 159.06 151.14 160.47 150.93 161.21 149.93 L 161.80 149.12 C 162.54 148.12 162.33 146.71 161.32 145.97 C 160.32 145.23 158.91 145.45 158.17 146.45 Z M 157.59 147.23 L 156.99 148.04 C 156.24 149.03 156.44 150.44 157.43 151.19 C 158.42 151.94 159.83 151.74 160.58 150.75 L 161.19 149.95 C 161.94 148.95 161.74 147.54 160.75 146.79 C 159.76 146.04 158.34 146.24 157.59 147.23 Z M 157.01 148.01 L 156.39 148.81 C 155.63 149.79 155.81 151.20 156.79 151.96 C 157.77 152.73 159.19 152.55 159.95 151.57 L 160.56 150.77 C 161.33 149.79 161.15 148.38 160.16 147.62 C 159.18 146.85 157.77 147.03 157.01 148.01 Z M 156.41 148.79 L 155.79 149.57 C 155.01 150.54 155.17 151.96 156.14 152.73 C 157.11 153.50 158.53 153.34 159.30 152.37 L 159.93 151.59 C 160.70 150.62 160.54 149.20 159.57 148.43 C 158.60 147.66 157.19 147.82 156.41 148.79 Z M 155.81 149.55 L 155.17 150.33 C 154.39 151.29 154.53 152.70 155.49 153.49 C 156.45 154.27 157.86 154.13 158.65 153.17 L 159.28 152.39 C 160.07 151.43 159.92 150.02 158.96 149.24 C 158.00 148.45 156.59 148.59 155.81 149.55 Z M 155.19 150.31 L 154.55 151.08 C 153.76 152.03 153.89 153.44 154.84 154.24 C 155.79 155.03 157.20 154.90 157.99 153.95 L 158.63 153.18 C 159.42 152.23 159.30 150.82 158.34 150.03 C 157.39 149.24 155.98 149.36 155.19 150.31 Z M 154.56 151.07 L 153.92 151.83 C 153.12 152.77 153.24 154.18 154.18 154.98 C 155.12 155.78 156.54 155.66 157.34 154.72 L 157.98 153.96 C 158.78 153.02 158.66 151.61 157.72 150.81 C 156.77 150.01 155.36 150.13 154.56 151.07 Z M 153.94 151.82 L 153.28 152.58 C 152.47 153.52 152.58 154.93 153.51 155.73 C 154.45 156.54 155.86 156.43 156.66 155.50 L 157.32 154.73 C 158.13 153.79 158.02 152.38 157.08 151.58 C 156.15 150.78 154.74 150.88 153.94 151.82 Z M 153.29 152.58 L 152.63 153.33 C 151.83 154.26 151.92 155.66 152.85 156.47 C 153.77 157.28 155.18 157.18 155.99 156.26 L 156.65 155.50 C 157.45 154.58 157.36 153.17 156.43 152.36 C 155.51 151.56 154.10 151.65 153.29 152.58 Z M 152.65 153.32 L 151.99 154.07 C 151.18 154.98 151.26 156.38 152.17 157.20 C 153.09 158.01 154.49 157.93 155.30 157.01 L 155.97 156.27 C 156.78 155.35 156.70 153.95 155.78 153.14 C 154.87 152.33 153.47 152.41 152.65 153.32 Z M 152.01 154.05 L 151.35 154.79 C 150.53 155.69 150.59 157.09 151.50 157.91 C 152.40 158.73 153.80 158.66 154.62 157.76 L 155.28 157.03 C 156.10 156.12 156.04 154.73 155.13 153.91 C 154.23 153.08 152.83 153.15 152.01 154.05 Z M 151.37 154.78 L 150.69 155.50 C 149.86 156.39 149.92 157.79 150.81 158.61 C 151.70 159.44 153.09 159.39 153.91 158.50 L 154.59 157.77 C 155.42 156.88 155.37 155.49 154.48 154.66 C 153.59 153.83 152.20 153.89 151.37 154.78 Z M 150.71 155.49 L 150.03 156.22 C 149.20 157.09 149.23 158.48 150.11 159.31 C 150.99 160.15 152.37 160.11 153.21 159.23 L 153.89 158.51 C 154.73 157.63 154.69 156.25 153.81 155.41 C 152.93 154.58 151.55 154.62 150.71 155.49 Z M 150.05 156.21 L 149.36 156.93 C 148.52 157.80 148.54 159.18 149.41 160.01 C 150.28 160.85 151.66 160.82 152.49 159.96 L 153.19 159.24 C 154.02 158.37 154.00 156.99 153.13 156.16 C 152.27 155.32 150.88 155.34 150.05 156.21 Z M 149.37 156.93 L 148.67 157.65 C 147.83 158.50 147.85 159.88 148.71 160.72 C 149.56 161.55 150.94 161.54 151.78 160.68 L 152.48 159.96 C 153.32 159.10 153.30 157.73 152.44 156.89 C 151.58 156.05 150.21 156.07 149.37 156.93 Z M 148.69 157.65 L 147.97 158.38 C 147.13 159.23 147.14 160.60 147.99 161.43 C 148.84 162.27 150.20 162.25 151.04 161.41 L 151.76 160.68 C 152.59 159.83 152.58 158.46 151.73 157.63 C 150.89 156.79 149.52 156.80 148.69 157.65 Z M 147.99 158.39 L 147.27 159.12 C 146.43 159.96 146.44 161.31 147.28 162.14 C 148.11 162.97 149.46 162.96 150.29 162.13 L 151.02 161.40 C 151.85 160.56 151.84 159.21 151.01 158.38 C 150.17 157.55 148.82 157.55 147.99 158.39 Z M 147.29 159.13 L 146.58 159.84 C 145.75 160.66 145.75 162.00 146.57 162.82 C 147.39 163.65 148.73 163.65 149.55 162.83 L 150.27 162.12 C 151.09 161.30 151.10 159.96 150.28 159.13 C 149.45 158.31 148.12 158.31 147.29 159.13 Z M 146.61 159.84 L 145.92 160.52 C 145.09 161.32 145.08 162.65 145.89 163.47 C 146.69 164.29 148.01 164.31 148.84 163.50 L 149.53 162.82 C 150.35 162.02 150.36 160.70 149.56 159.87 C 148.75 159.05 147.43 159.04 146.61 159.84 Z M 145.95 160.52 L 145.20 161.24 C 144.38 162.02 144.35 163.33 145.14 164.15 C 145.92 164.97 147.23 165.00 148.05 164.22 L 148.80 163.50 C 149.62 162.71 149.65 161.41 148.87 160.58 C 148.08 159.76 146.77 159.73 145.95 160.52 Z M 145.24 161.24 L 144.49 161.93 C 143.67 162.70 143.62 163.98 144.38 164.81 C 145.15 165.63 146.43 165.68 147.26 164.92 L 148.01 164.22 C 148.83 163.46 148.88 162.17 148.12 161.35 C 147.35 160.52 146.07 160.47 145.24 161.24 Z M 144.54 161.93 L 143.82 162.57 C 142.99 163.31 142.92 164.57 143.66 165.40 C 144.40 166.23 145.66 166.30 146.49 165.56 L 147.21 164.92 C 148.03 164.18 148.11 162.91 147.37 162.09 C 146.63 161.26 145.36 161.19 144.54 161.93 Z M 143.87 162.57 L 143.16 163.17 C 142.33 163.88 142.24 165.13 142.95 165.96 C 143.66 166.78 144.91 166.88 145.73 166.17 L 146.44 165.56 C 147.27 164.85 147.36 163.61 146.65 162.78 C 145.94 161.95 144.70 161.86 143.87 162.57 Z M 143.22 163.16 L 142.49 163.76 C 141.66 164.43 141.54 165.66 142.21 166.49 C 142.89 167.32 144.11 167.45 144.94 166.77 L 145.67 166.18 C 146.51 165.50 146.63 164.28 145.96 163.45 C 145.28 162.61 144.06 162.49 143.22 163.16 Z M 142.57 163.74 L 141.78 164.34 C 140.94 164.97 140.77 166.17 141.40 167.01 C 142.04 167.85 143.23 168.02 144.07 167.38 L 144.86 166.79 C 145.70 166.15 145.87 164.96 145.24 164.12 C 144.61 163.28 143.41 163.11 142.57 163.74 Z M 141.86 164.32 L 140.98 164.93 C 140.13 165.52 139.91 166.68 140.50 167.53 C 141.09 168.38 142.25 168.60 143.10 168.01 L 143.99 167.40 C 144.84 166.81 145.05 165.65 144.46 164.80 C 143.88 163.95 142.71 163.74 141.86 164.32 Z M 141.05 164.93 L 140.24 165.44 C 139.38 165.99 139.13 167.12 139.68 167.98 C 140.23 168.83 141.36 169.08 142.22 168.54 L 143.03 168.02 C 143.88 167.48 144.13 166.34 143.59 165.48 C 143.04 164.63 141.91 164.38 141.05 164.93 Z M 140.31 165.43 L 139.43 165.95 C 138.57 166.46 138.29 167.57 138.80 168.43 C 139.30 169.29 140.41 169.57 141.27 169.06 L 142.15 168.55 C 143.01 168.04 143.29 166.93 142.79 166.07 C 142.28 165.21 141.17 164.93 140.31 165.43 Z M 139.51 165.94 L 138.61 166.42 C 137.74 166.89 137.41 167.97 137.88 168.83 C 138.34 169.70 139.42 170.03 140.29 169.56 L 141.19 169.08 C 142.06 168.61 142.39 167.53 141.92 166.67 C 141.46 165.80 140.38 165.47 139.51 165.94 Z M 138.70 166.40 L 137.80 166.83 C 136.92 167.24 136.54 168.28 136.95 169.16 C 137.36 170.03 138.40 170.41 139.28 170.00 L 140.19 169.58 C 141.06 169.17 141.44 168.13 141.03 167.25 C 140.62 166.37 139.58 166.00 138.70 166.40 Z M 137.93 166.81 L 136.94 167.19 C 136.05 167.52 135.61 168.52 135.95 169.40 C 136.28 170.29 137.27 170.73 138.16 170.40 L 139.15 170.02 C 140.03 169.68 140.48 168.69 140.14 167.81 C 139.80 166.92 138.81 166.48 137.93 166.81 Z M 137.07 167.19 L 136.11 167.48 C 135.22 167.75 134.72 168.68 134.99 169.56 C 135.26 170.45 136.19 170.95 137.07 170.68 L 138.03 170.39 C 138.92 170.12 139.42 169.19 139.15 168.31 C 138.88 167.43 137.95 166.93 137.07 167.19 Z M 136.20 167.51 L 135.26 167.74 C 134.39 167.96 133.86 168.84 134.07 169.71 C 134.29 170.58 135.17 171.11 136.04 170.89 L 136.98 170.66 C 137.85 170.44 138.38 169.56 138.17 168.69 C 137.95 167.82 137.07 167.29 136.20 167.51 Z M 135.30 167.77 L 134.65 167.92 C 133.80 168.11 133.26 168.96 133.46 169.82 C 133.65 170.67 134.50 171.21 135.36 171.01 L 136.00 170.86 C 136.86 170.67 137.39 169.82 137.20 168.96 C 137.00 168.11 136.15 167.58 135.30 167.77 Z"
      fill="black"
      fill-rule="nonzero" /></svg>