<svg xmlns="http://www.w3.org/2000/svg" width="300" height="300" viewBox="0 0 300 300">
<path d="M 155.96 124.80 L 155.04 125.13 C 154.03 125.49 153.49 126.60 153.85 127.61 C 154.21 128.63 155.32 129.16 156.34 128.80 L 157.26 128.47 C 158.28 128.11 158.81 127.00 158.45 125.99 C 158.09 124.98 156.98 124.44 155.96 124.80 Z M 154.94 125.11 L 154.02 125.49 C 153.00 125.90 152.50 127.06 152.91 128.08 C 153.32 129.10 154.49 129.60 155.51 129.19 L 156.43 128.82 C 157.45 128.41 157.95 127.24 157.54 126.22 C 157.13 125.20 155.96 124.70 154.94 125.11 Z M 153.85 125.51 L 152.94 125.96 C 151.93 126.47 151.52 127.70 152.03 128.71 C 152.53 129.72 153.76 130.12 154.77 129.62 L 155.68 129.16 C 156.69 128.66 157.10 127.43 156.59 126.42 C 156.09 125.41 154.86 125.00 153.85 125.51 Z M 152.76 126.05 L 151.99 126.54 C 151.03 127.14 150.74 128.41 151.34 129.37 C 151.94 130.33 153.21 130.62 154.17 130.02 L 154.94 129.53 C 155.91 128.93 156.20 127.66 155.59 126.70 C 154.99 125.74 153.73 125.45 152.76 126.05 Z M 151.88 126.64 L 151.10 127.22 C 150.19 127.88 150.00 129.15 150.66 130.05 C 151.32 130.95 152.59 131.15 153.49 130.49 L 154.28 129.91 C 155.18 129.25 155.38 127.98 154.71 127.08 C 154.05 126.18 152.78 125.98 151.88 126.64 Z M 151.03 127.30 L 150.21 127.97 C 149.36 128.66 149.23 129.92 149.92 130.78 C 150.62 131.64 151.88 131.77 152.73 131.07 L 153.55 130.40 C 154.41 129.71 154.54 128.45 153.84 127.59 C 153.15 126.74 151.89 126.61 151.03 127.30 Z M 150.18 128.02 L 149.38 128.71 C 148.55 129.42 148.46 130.67 149.17 131.50 C 149.89 132.33 151.14 132.42 151.96 131.71 L 152.76 131.02 C 153.59 130.30 153.68 129.06 152.97 128.23 C 152.26 127.40 151.01 127.31 150.18 128.02 Z M 149.37 128.74 L 148.59 129.43 C 147.78 130.15 147.71 131.39 148.43 132.20 C 149.15 133.01 150.40 133.09 151.21 132.36 L 151.98 131.68 C 152.79 130.96 152.86 129.71 152.14 128.90 C 151.42 128.09 150.18 128.02 149.37 128.74 Z M 148.58 129.45 L 147.82 130.14 C 147.02 130.87 146.96 132.11 147.69 132.91 C 148.42 133.71 149.66 133.77 150.46 133.04 L 151.22 132.34 C 152.02 131.61 152.08 130.38 151.35 129.58 C 150.62 128.78 149.38 128.72 148.58 129.45 Z M 147.81 130.16 L 147.09 130.83 C 146.30 131.56 146.26 132.80 146.99 133.59 C 147.72 134.38 148.96 134.42 149.75 133.69 L 150.47 133.02 C 151.26 132.29 151.30 131.05 150.57 130.26 C 149.84 129.47 148.60 129.43 147.81 130.16 Z M 147.08 130.85 L 146.33 131.56 C 145.55 132.30 145.51 133.53 146.25 134.31 C 146.99 135.09 148.22 135.13 149.00 134.39 L 149.76 133.67 C 150.54 132.93 150.57 131.70 149.83 130.92 C 149.09 130.14 147.86 130.11 147.08 130.85 Z M 146.31 131.58 L 145.56 132.31 C 144.79 133.05 144.78 134.28 145.52 135.05 C 146.27 135.82 147.50 135.84 148.27 135.09 L 149.02 134.37 C 149.79 133.62 149.81 132.39 149.06 131.62 C 148.31 130.85 147.08 130.83 146.31 131.58 Z M 145.54 132.33 L 144.89 132.98 C 144.13 133.74 144.13 134.97 144.89 135.73 C 145.65 136.48 146.88 136.48 147.64 135.72 L 148.29 135.07 C 149.05 134.31 149.05 133.08 148.29 132.32 C 147.53 131.57 146.30 131.57 145.54 132.33 Z M 144.88 132.99 L 144.21 133.67 C 143.46 134.44 143.48 135.67 144.25 136.42 C 145.01 137.17 146.24 137.16 146.99 136.39 L 147.66 135.71 C 148.41 134.94 148.39 133.71 147.62 132.96 C 146.86 132.21 145.62 132.23 144.88 132.99 Z M 144.20 133.68 L 143.51 134.40 C 142.76 135.17 142.78 136.41 143.56 137.15 C 144.33 137.90 145.56 137.88 146.31 137.10 L 147.00 136.38 C 147.75 135.61 147.73 134.38 146.95 133.63 C 146.18 132.88 144.95 132.91 144.20 133.68 Z M 143.51 134.39 L 142.81 135.11 C 142.06 135.89 142.08 137.12 142.85 137.87 C 143.63 138.62 144.86 138.60 145.61 137.83 L 146.31 137.11 C 147.06 136.34 147.04 135.10 146.26 134.35 C 145.49 133.60 144.26 133.62 143.51 134.39 Z M 142.82 135.10 L 142.10 135.83 C 141.35 136.60 141.36 137.83 142.13 138.59 C 142.90 139.35 144.14 139.33 144.89 138.56 L 145.61 137.84 C 146.36 137.07 146.35 135.83 145.58 135.08 C 144.81 134.32 143.57 134.33 142.82 135.10 Z M 142.10 135.83 L 141.40 136.54 C 140.65 137.31 140.66 138.55 141.43 139.31 C 142.21 140.07 143.45 140.05 144.20 139.28 L 144.90 138.56 C 145.66 137.79 145.64 136.55 144.87 135.79 C 144.09 135.04 142.85 135.05 142.10 135.83 Z M 141.38 136.56 L 140.73 137.25 C 139.98 138.04 140.02 139.28 140.81 140.02 C 141.59 140.76 142.83 140.73 143.58 139.94 L 144.23 139.25 C 144.97 138.47 144.94 137.23 144.15 136.48 C 143.36 135.74 142.12 135.78 141.38 136.56 Z M 140.71 137.28 L 140.07 137.98 C 139.34 138.77 139.40 140.01 140.20 140.74 C 141.00 141.47 142.23 141.41 142.96 140.61 L 143.60 139.91 C 144.32 139.12 144.27 137.88 143.47 137.15 C 142.67 136.43 141.44 136.48 140.71 137.28 Z M 140.08 137.98 L 139.36 138.78 C 138.63 139.57 138.69 140.80 139.49 141.52 C 140.28 142.25 141.52 142.19 142.24 141.39 L 142.96 140.60 C 143.68 139.81 143.62 138.58 142.83 137.85 C 142.03 137.13 140.80 137.19 140.08 137.98 Z M 139.37 138.77 L 138.69 139.50 C 137.96 140.29 138.01 141.52 138.80 142.25 C 139.59 142.98 140.82 142.93 141.55 142.14 L 142.23 141.40 C 142.96 140.61 142.91 139.38 142.12 138.65 C 141.33 137.93 140.10 137.97 139.37 138.77 Z M 138.69 139.49 L 137.98 140.25 C 137.25 141.04 137.29 142.27 138.08 143.01 C 138.87 143.75 140.10 143.70 140.84 142.91 L 141.55 142.16 C 142.28 141.37 142.24 140.13 141.45 139.39 C 140.66 138.66 139.42 138.70 138.69 139.49 Z M 137.98 140.23 L 137.28 140.98 C 136.54 141.77 136.58 143.01 137.37 143.75 C 138.16 144.50 139.40 144.46 140.15 143.67 L 140.84 142.92 C 141.59 142.13 141.55 140.89 140.76 140.15 C 139.96 139.40 138.72 139.44 137.98 140.23 Z M 137.26 140.96 L 136.55 141.72 C 135.79 142.52 135.83 143.78 136.63 144.53 C 137.43 145.29 138.69 145.25 139.44 144.45 L 140.16 143.69 C 140.92 142.89 140.88 141.63 140.08 140.87 C 139.28 140.12 138.02 140.15 137.26 140.96 Z M 136.48 141.69 L 135.78 142.44 C 135.01 143.28 135.06 144.59 135.90 145.36 C 136.74 146.13 138.04 146.08 138.81 145.24 L 139.51 144.48 C 140.28 143.64 140.23 142.34 139.39 141.57 C 138.55 140.80 137.25 140.85 136.48 141.69 Z M 135.64 142.46 L 135.06 143.15 C 134.30 144.07 134.43 145.43 135.34 146.19 C 136.26 146.95 137.62 146.83 138.38 145.91 L 138.96 145.22 C 139.72 144.31 139.59 142.95 138.68 142.18 C 137.76 141.42 136.40 141.55 135.64 142.46 Z M 134.92 143.25 L 134.38 144.00 C 133.67 144.99 133.90 146.38 134.90 147.09 C 135.90 147.80 137.28 147.57 137.99 146.57 L 138.52 145.82 C 139.24 144.82 139.00 143.44 138.01 142.73 C 137.01 142.02 135.63 142.25 134.92 143.25 Z M 134.35 144.01 L 133.78 144.83 C 133.07 145.84 133.32 147.24 134.33 147.94 C 135.35 148.65 136.74 148.40 137.44 147.39 L 138.02 146.56 C 138.73 145.55 138.48 144.16 137.47 143.45 C 136.45 142.74 135.06 142.99 134.35 144.01 Z M 133.84 144.72 L 133.20 145.55 C 132.43 146.52 132.60 147.94 133.58 148.70 C 134.56 149.47 135.98 149.30 136.74 148.32 L 137.38 147.50 C 138.15 146.52 137.98 145.10 137.00 144.34 C 136.02 143.57 134.60 143.75 133.84 144.72 Z M 133.24 145.48 L 132.58 146.27 C 131.78 147.22 131.91 148.65 132.86 149.45 C 133.82 150.25 135.25 150.12 136.05 149.16 L 136.70 148.38 C 137.50 147.42 137.37 146.00 136.42 145.20 C 135.46 144.40 134.04 144.53 133.24 145.48 Z M 132.54 146.31 L 131.91 147.11 C 131.13 148.09 131.30 149.51 132.28 150.29 C 133.26 151.06 134.68 150.90 135.46 149.92 L 136.09 149.12 C 136.87 148.14 136.70 146.71 135.72 145.94 C 134.74 145.16 133.31 145.33 132.54 146.31 Z M 131.77 147.29 L 131.24 148.12 C 130.56 149.18 130.87 150.58 131.93 151.26 C 132.98 151.93 134.39 151.63 135.06 150.57 L 135.59 149.74 C 136.27 148.68 135.96 147.28 134.91 146.60 C 133.85 145.93 132.45 146.23 131.77 147.29 Z M 131.07 148.43 L 130.68 149.31 C 130.17 150.46 130.69 151.81 131.84 152.32 C 132.99 152.82 134.33 152.30 134.84 151.15 L 135.23 150.27 C 135.74 149.12 135.22 147.77 134.07 147.27 C 132.92 146.76 131.58 147.28 131.07 148.43 Z M 130.58 149.54 L 130.28 150.49 C 129.89 151.69 130.55 152.98 131.75 153.36 C 132.96 153.75 134.24 153.09 134.63 151.88 L 134.93 150.93 C 135.32 149.73 134.65 148.44 133.45 148.06 C 132.25 147.68 130.97 148.34 130.58 149.54 Z M 130.26 150.55 L 129.98 151.49 C 129.63 152.71 130.33 153.97 131.54 154.32 C 132.76 154.68 134.02 153.98 134.38 152.76 L 134.65 151.82 C 135.00 150.61 134.30 149.34 133.09 148.99 C 131.87 148.64 130.61 149.34 130.26 150.55 Z M 129.97 151.52 L 129.70 152.50 C 129.37 153.72 130.08 154.98 131.30 155.31 C 132.52 155.65 133.78 154.93 134.11 153.72 L 134.38 152.74 C 134.72 151.52 134.00 150.26 132.79 149.92 C 131.57 149.59 130.31 150.30 129.97 151.52 Z M 129.69 152.55 L 129.44 153.54 C 129.13 154.77 129.88 156.01 131.10 156.32 C 132.33 156.62 133.57 155.88 133.88 154.65 L 134.13 153.67 C 134.44 152.44 133.69 151.20 132.47 150.89 C 131.24 150.58 130.00 151.33 129.69 152.55 Z M 129.42 153.62 L 129.22 154.57 C 128.95 155.81 129.75 157.03 130.98 157.29 C 132.22 157.55 133.44 156.76 133.70 155.52 L 133.90 154.57 C 134.17 153.33 133.37 152.12 132.14 151.85 C 130.90 151.59 129.68 152.38 129.42 153.62 Z M 129.18 154.68 L 129.03 155.62 C 128.83 156.88 129.69 158.06 130.94 158.26 C 132.20 158.46 133.38 157.61 133.58 156.35 L 133.73 155.41 C 133.94 154.16 133.08 152.97 131.83 152.77 C 130.57 152.57 129.39 153.42 129.18 154.68 Z M 129.00 155.73 L 128.89 156.74 C 128.75 158.02 129.66 159.16 130.93 159.31 C 132.21 159.45 133.35 158.54 133.50 157.26 L 133.61 156.25 C 133.75 154.97 132.84 153.83 131.57 153.68 C 130.30 153.54 129.15 154.45 129.00 155.73 Z M 128.87 156.82 L 128.79 157.83 C 128.69 159.11 129.65 160.23 130.93 160.33 C 132.21 160.43 133.33 159.48 133.43 158.20 L 133.51 157.19 C 133.62 155.90 132.66 154.78 131.38 154.68 C 130.09 154.58 128.97 155.54 128.87 156.82 Z M 128.79 157.88 L 128.73 158.88 C 128.65 160.16 129.64 161.26 130.92 161.34 C 132.21 161.41 133.31 160.43 133.39 159.14 L 133.44 158.15 C 133.52 156.86 132.53 155.76 131.25 155.68 C 129.96 155.61 128.86 156.59 128.79 157.88 Z M 128.73 158.92 L 128.68 159.95 C 128.63 161.24 129.64 162.32 130.92 162.37 C 132.21 162.42 133.30 161.42 133.35 160.13 L 133.39 159.10 C 133.44 157.81 132.44 156.73 131.15 156.68 C 129.86 156.63 128.78 157.63 128.73 158.92 Z M 128.68 159.99 L 128.66 161.01 C 128.63 162.30 129.66 163.37 130.95 163.39 C 132.24 163.42 133.30 162.40 133.33 161.11 L 133.35 160.09 C 133.38 158.80 132.35 157.73 131.06 157.71 C 129.77 157.68 128.71 158.71 128.68 159.99 Z M 128.66 161.07 L 128.66 162.14 C 128.67 163.43 129.72 164.47 131.01 164.47 C 132.30 164.46 133.34 163.41 133.34 162.12 L 133.33 161.05 C 133.33 159.76 132.27 158.71 130.98 158.72 C 129.69 158.73 128.65 159.78 128.66 161.07 Z M 128.67 162.27 L 128.73 163.31 C 128.81 164.60 129.92 165.58 131.21 165.50 C 132.50 165.42 133.48 164.31 133.40 163.02 L 133.34 161.98 C 133.26 160.70 132.15 159.71 130.86 159.79 C 129.57 159.87 128.59 160.98 128.67 162.27 Z M 128.76 163.57 L 128.92 164.50 C 129.14 165.77 130.35 166.62 131.63 166.40 C 132.90 166.18 133.75 164.97 133.53 163.70 L 133.37 162.77 C 133.15 161.49 131.94 160.64 130.67 160.86 C 129.39 161.08 128.54 162.29 128.76 163.57 Z M 129.02 164.88 L 129.33 165.75 C 129.76 166.97 131.10 167.61 132.32 167.17 C 133.54 166.74 134.17 165.40 133.74 164.18 L 133.43 163.32 C 133.00 162.10 131.66 161.46 130.44 161.89 C 129.23 162.32 128.59 163.66 129.02 164.88 Z M 129.54 166.19 L 130.04 167.02 C 130.72 168.12 132.16 168.47 133.27 167.80 C 134.37 167.12 134.72 165.68 134.04 164.57 L 133.53 163.74 C 132.86 162.64 131.41 162.29 130.31 162.97 C 129.21 163.64 128.86 165.09 129.54 166.19 Z M 130.34 167.41 L 131.02 168.13 C 131.91 169.08 133.40 169.12 134.34 168.23 C 135.28 167.34 135.32 165.86 134.44 164.92 L 133.75 164.19 C 132.86 163.25 131.38 163.20 130.43 164.09 C 129.49 164.98 129.45 166.46 130.34 167.41 Z M 131.35 168.42 L 132.18 169.03 C 133.23 169.79 134.69 169.56 135.46 168.52 C 136.22 167.47 135.99 166.00 134.95 165.24 L 134.11 164.63 C 133.07 163.87 131.60 164.10 130.83 165.14 C 130.07 166.19 130.30 167.66 131.35 168.42 Z M 132.46 169.21 L 133.37 169.69 C 134.52 170.30 135.94 169.86 136.55 168.71 C 137.15 167.57 136.72 166.15 135.57 165.54 L 134.66 165.06 C 133.52 164.45 132.09 164.89 131.49 166.03 C 130.88 167.18 131.32 168.60 132.46 169.21 Z M 133.59 169.79 L 134.53 170.17 C 135.74 170.66 137.11 170.08 137.59 168.87 C 138.08 167.67 137.49 166.30 136.29 165.81 L 135.35 165.43 C 134.15 164.95 132.78 165.53 132.29 166.74 C 131.81 167.94 132.39 169.31 133.59 169.79 Z M 134.73 170.24 L 135.66 170.53 C 136.91 170.91 138.22 170.21 138.60 168.96 C 138.98 167.72 138.27 166.40 137.03 166.03 L 136.10 165.74 C 134.85 165.36 133.54 166.07 133.16 167.31 C 132.78 168.55 133.48 169.87 134.73 170.24 Z M 135.89 170.59 L 136.90 170.79 C 138.17 171.04 139.41 170.21 139.66 168.94 C 139.92 167.67 139.09 166.43 137.82 166.17 L 136.81 165.97 C 135.53 165.72 134.29 166.54 134.04 167.82 C 133.78 169.09 134.61 170.33 135.89 170.59 Z M 137.12 170.82 L 138.07 170.92 C 139.36 171.05 140.51 170.11 140.65 168.81 C 140.78 167.52 139.84 166.37 138.55 166.24 L 137.60 166.14 C 136.30 166.01 135.15 166.95 135.02 168.24 C 134.88 169.53 135.83 170.69 137.12 170.82 Z M 138.18 170.92 L 139.14 170.98 C 140.43 171.05 141.54 170.05 141.61 168.76 C 141.68 167.46 140.69 166.35 139.39 166.28 L 138.43 166.23 C 137.14 166.16 136.03 167.15 135.96 168.45 C 135.89 169.75 136.88 170.85 138.18 170.92 Z M 139.18 170.97 L 140.19 171.01 C 141.48 171.05 142.57 170.04 142.61 168.74 C 142.65 167.45 141.64 166.36 140.34 166.32 L 139.34 166.28 C 138.05 166.24 136.96 167.25 136.92 168.55 C 136.87 169.84 137.89 170.93 139.18 170.97 Z M 140.22 171.01 L 141.25 171.03 C 142.54 171.05 143.61 170.02 143.64 168.73 C 143.66 167.43 142.63 166.36 141.34 166.34 L 140.31 166.32 C 139.01 166.29 137.94 167.32 137.92 168.62 C 137.90 169.91 138.93 170.98 140.22 171.01 Z M 141.29 171.02 L 142.27 171.02 C 143.57 171.02 144.61 169.97 144.61 168.68 C 144.61 167.38 143.56 166.34 142.27 166.34 L 141.29 166.34 C 140.00 166.34 138.95 167.39 138.95 168.68 C 138.95 169.98 140.00 171.02 141.29 171.02 Z M 142.40 171.01 L 143.40 170.96 C 144.69 170.89 145.67 169.79 145.60 168.50 C 145.53 167.21 144.43 166.22 143.14 166.29 L 142.14 166.35 C 140.86 166.42 139.87 167.52 139.94 168.81 C 140.01 170.10 141.11 171.08 142.40 171.01 Z M 143.60 170.94 L 144.59 170.80 C 145.86 170.62 146.75 169.44 146.57 168.16 C 146.39 166.89 145.21 166.00 143.94 166.18 L 142.95 166.32 C 141.67 166.50 140.78 167.67 140.96 168.95 C 141.14 170.23 142.32 171.11 143.60 170.94 Z M 144.79 170.75 L 145.73 170.54 C 146.98 170.25 147.76 169.00 147.48 167.75 C 147.19 166.49 145.94 165.71 144.69 166.00 L 143.74 166.22 C 142.49 166.51 141.71 167.76 142.00 169.01 C 142.29 170.26 143.53 171.04 144.79 170.75 Z M 145.87 170.49 L 146.84 170.21 C 148.06 169.85 148.77 168.55 148.40 167.33 C 148.04 166.10 146.75 165.39 145.52 165.76 L 144.55 166.04 C 143.32 166.41 142.62 167.70 142.98 168.92 C 143.35 170.15 144.64 170.86 145.87 170.49 Z M 146.92 170.18 L 147.89 169.85 C 149.10 169.44 149.76 168.13 149.35 166.92 C 148.94 165.71 147.63 165.05 146.42 165.46 L 145.44 165.79 C 144.23 166.20 143.58 167.51 143.99 168.72 C 144.39 169.93 145.70 170.58 146.92 170.18 Z M 147.94 169.82 L 148.86 169.49 C 150.06 169.06 150.68 167.74 150.25 166.54 C 149.82 165.34 148.50 164.72 147.30 165.15 L 146.37 165.48 C 145.18 165.92 144.56 167.24 144.99 168.44 C 145.42 169.63 146.74 170.25 147.94 169.82 Z M 148.90 169.47 L 149.84 169.11 C 151.02 168.66 151.62 167.33 151.16 166.15 C 150.71 164.96 149.39 164.37 148.20 164.82 L 147.26 165.17 C 146.08 165.63 145.48 166.95 145.93 168.14 C 146.39 169.32 147.71 169.92 148.90 169.47 Z M 149.87 169.09 L 150.81 168.71 C 151.98 168.24 152.55 166.91 152.08 165.74 C 151.61 164.56 150.28 163.99 149.11 164.46 L 148.17 164.84 C 146.99 165.31 146.42 166.64 146.89 167.81 C 147.36 168.99 148.70 169.56 149.87 169.09 Z M 150.84 168.69 L 151.76 168.30 C 152.92 167.82 153.47 166.48 152.98 165.32 C 152.49 164.16 151.16 163.61 150.00 164.10 L 149.08 164.49 C 147.92 164.97 147.37 166.31 147.86 167.47 C 148.35 168.63 149.68 169.17 150.84 168.69 Z M 151.78 168.28 L 152.70 167.88 C 153.84 167.38 154.37 166.05 153.87 164.90 C 153.37 163.75 152.04 163.23 150.89 163.73 L 149.98 164.12 C 148.83 164.62 148.30 165.96 148.80 167.10 C 149.30 168.25 150.64 168.78 151.78 168.28 Z M 152.71 167.86 L 153.63 167.46 C 154.76 166.95 155.27 165.62 154.77 164.48 C 154.26 163.35 152.93 162.83 151.80 163.34 L 150.88 163.75 C 149.74 164.25 149.23 165.58 149.74 166.72 C 150.24 167.85 151.57 168.37 152.71 167.86 Z M 153.63 167.44 L 154.54 167.03 C 155.67 166.52 156.17 165.20 155.67 164.07 C 155.16 162.94 153.84 162.44 152.71 162.94 L 151.79 163.36 C 150.67 163.86 150.16 165.19 150.67 166.31 C 151.18 167.44 152.50 167.95 153.63 167.44 Z M 154.54 167.01 L 155.43 166.61 C 156.55 166.11 157.05 164.79 156.55 163.67 C 156.05 162.55 154.73 162.05 153.61 162.56 L 152.71 162.96 C 151.60 163.46 151.10 164.78 151.60 165.90 C 152.10 167.02 153.42 167.52 154.54 167.01 Z M 155.42 166.60 L 156.33 166.19 C 157.45 165.69 157.94 164.39 157.45 163.28 C 156.95 162.16 155.65 161.67 154.53 162.16 L 153.62 162.57 C 152.51 163.07 152.01 164.37 152.51 165.48 C 153.01 166.60 154.31 167.09 155.42 166.60 Z M 156.32 166.18 L 157.24 165.77 C 158.35 165.28 158.85 163.99 158.36 162.88 C 157.87 161.78 156.58 161.28 155.48 161.77 L 154.55 162.17 C 153.44 162.66 152.94 163.96 153.43 165.06 C 153.92 166.17 155.21 166.67 156.32 166.18 Z M 157.22 165.75 L 158.16 165.35 C 159.25 164.87 159.76 163.60 159.28 162.50 C 158.80 161.40 157.53 160.90 156.43 161.38 L 155.50 161.78 C 154.40 162.26 153.90 163.53 154.37 164.63 C 154.85 165.73 156.13 166.23 157.22 165.75 Z M 158.13 165.33 L 159.06 164.93 C 160.15 164.47 160.65 163.21 160.19 162.12 C 159.73 161.04 158.47 160.54 157.39 161.00 L 156.45 161.40 C 155.37 161.86 154.86 163.12 155.33 164.20 C 155.79 165.29 157.05 165.79 158.13 165.33 Z M 159.04 164.90 L 159.97 164.51 C 161.04 164.06 161.54 162.83 161.09 161.76 C 160.64 160.68 159.41 160.18 158.33 160.63 L 157.41 161.03 C 156.34 161.48 155.83 162.71 156.29 163.78 C 156.74 164.85 157.97 165.35 159.04 164.90 Z M 159.95 164.48 L 160.86 164.11 C 161.91 163.66 162.41 162.45 161.97 161.40 C 161.53 160.34 160.32 159.84 159.26 160.28 L 158.35 160.66 C 157.30 161.10 156.80 162.32 157.24 163.37 C 157.68 164.43 158.89 164.92 159.95 164.48 Z M 160.84 164.08 L 161.80 163.68 C 162.84 163.25 163.33 162.06 162.90 161.02 C 162.47 159.98 161.28 159.49 160.24 159.92 L 159.28 160.31 C 158.24 160.74 157.75 161.93 158.18 162.97 C 158.61 164.01 159.80 164.51 160.84 164.08 Z M 161.78 163.65 L 162.71 163.26 C 163.74 162.84 164.22 161.67 163.80 160.65 C 163.38 159.63 162.21 159.14 161.19 159.56 L 160.26 159.95 C 159.24 160.37 158.75 161.54 159.17 162.56 C 159.59 163.58 160.76 164.07 161.78 163.65 Z M 162.70 163.23 L 163.60 162.86 C 164.60 162.45 165.08 161.30 164.67 160.30 C 164.26 159.30 163.11 158.82 162.11 159.23 L 161.21 159.60 C 160.21 160.01 159.73 161.15 160.14 162.16 C 160.55 163.16 161.69 163.64 162.70 163.23 Z M 163.58 162.83 L 164.50 162.45 C 165.48 162.05 165.95 160.92 165.55 159.94 C 165.15 158.96 164.02 158.48 163.04 158.89 L 162.12 159.26 C 161.14 159.67 160.67 160.79 161.07 161.77 C 161.47 162.76 162.60 163.23 163.58 162.83 Z M 164.48 162.41 L 165.42 162.03 C 166.38 161.63 166.84 160.54 166.45 159.57 C 166.06 158.61 164.96 158.15 164.00 158.54 L 163.06 158.93 C 162.09 159.32 161.63 160.42 162.03 161.38 C 162.42 162.34 163.52 162.80 164.48 162.41 Z M 165.39 161.99 L 166.31 161.62 C 167.25 161.24 167.70 160.17 167.32 159.23 C 166.95 158.29 165.88 157.83 164.93 158.21 L 164.02 158.58 C 163.08 158.96 162.62 160.03 163.00 160.97 C 163.38 161.91 164.45 162.37 165.39 161.99 Z M 166.28 161.59 L 167.16 161.24 C 168.08 160.88 168.53 159.84 168.17 158.92 C 167.81 157.99 166.77 157.54 165.85 157.90 L 164.97 158.25 C 164.04 158.61 163.59 159.65 163.95 160.57 C 164.31 161.49 165.35 161.95 166.28 161.59 Z M 167.12 161.21 L 168.01 160.88 C 168.91 160.54 169.37 159.53 169.03 158.62 C 168.69 157.71 167.68 157.26 166.77 157.60 L 165.88 157.93 C 164.98 158.27 164.52 159.28 164.86 160.19 C 165.20 161.09 166.21 161.55 167.12 161.21 Z M 167.97 160.85 L 168.93 160.51 C 169.82 160.19 170.28 159.21 169.96 158.32 C 169.65 157.43 168.66 156.96 167.77 157.28 L 166.81 157.63 C 165.92 157.94 165.46 158.92 165.78 159.82 C 166.09 160.71 167.07 161.17 167.97 160.85 Z M 168.89 160.48 L 169.85 160.15 C 170.73 159.86 171.20 158.90 170.90 158.02 C 170.60 157.15 169.64 156.68 168.77 156.98 L 167.81 157.31 C 166.93 157.60 166.46 158.56 166.76 159.44 C 167.06 160.31 168.02 160.78 168.89 160.48 Z M 169.83 160.13 L 170.73 159.84 C 171.59 159.55 172.06 158.62 171.78 157.75 C 171.49 156.88 170.56 156.41 169.69 156.70 L 168.79 157.00 C 167.93 157.28 167.46 158.22 167.74 159.08 C 168.03 159.95 168.96 160.42 169.83 160.13 Z M 170.71 159.82 L 171.68 159.51 C 172.53 159.23 173.00 158.31 172.72 157.45 C 172.44 156.60 171.53 156.13 170.67 156.41 L 169.71 156.72 C 168.85 157.00 168.38 157.92 168.66 158.77 C 168.94 159.63 169.86 160.10 170.71 159.82 Z M 171.66 159.49 L 172.66 159.17 C 173.51 158.90 173.98 157.99 173.70 157.14 C 173.43 156.30 172.53 155.83 171.68 156.10 L 170.68 156.43 C 169.83 156.70 169.37 157.60 169.64 158.45 C 169.91 159.29 170.82 159.76 171.66 159.49 Z M 172.66 159.15 L 173.31 158.94 C 174.15 158.67 174.61 157.78 174.34 156.94 C 174.07 156.10 173.18 155.64 172.34 155.91 L 171.69 156.12 C 170.85 156.39 170.39 157.28 170.66 158.12 C 170.92 158.96 171.82 159.42 172.66 159.15 Z"
      fill="black"
      fill-rule="nonzero" /><path d="M 124.23 129.24 L 125.21 129.24 C 126.43 129.22 127.42 128.22 127.41 127.00 C 127.40 125.77 126.40 124.78 125.17 124.79 L 124.19 124.80 C 122.96 124.81 121.98 125.82 121.99 127.04 C 122.00 128.27 123.00 129.25 124.23 129.24 Z M 124.71 129.21 L 125.68 129.42 C 126.89 129.68 128.09 128.91 128.35 127.70 C 128.61 126.49 127.84 125.29 126.63 125.03 L 125.66 124.82 C 124.45 124.56 123.26 125.33 122.99 126.54 C 122.73 127.75 123.50 128.95 124.71 129.21 Z M 124.95 129.14 L 125.76 129.65 C 126.82 130.31 128.22 129.99 128.88 128.93 C 129.54 127.87 129.22 126.47 128.16 125.81 L 127.36 125.31 C 126.30 124.64 124.90 124.96 124.24 126.02 C 123.57 127.08 123.89 128.48 124.95 129.14 Z M 125.36 129.35 L 126.08 130.05 C 126.97 130.93 128.41 130.92 129.30 130.03 C 130.18 129.13 130.17 127.69 129.27 126.81 L 128.56 126.11 C 127.66 125.23 126.22 125.24 125.34 126.13 C 124.46 127.03 124.47 128.47 125.36 129.35 Z M 125.92 129.90 L 126.60 130.70 C 127.41 131.67 128.85 131.80 129.81 130.98 C 130.78 130.17 130.91 128.73 130.10 127.77 L 129.42 126.97 C 128.61 126.00 127.17 125.87 126.21 126.68 C 125.24 127.49 125.11 128.93 125.92 129.90 Z M 126.55 130.66 L 127.20 131.47 C 127.98 132.47 129.42 132.63 130.42 131.85 C 131.41 131.06 131.58 129.62 130.79 128.63 L 130.14 127.81 C 129.36 126.82 127.92 126.66 126.93 127.44 C 125.94 128.22 125.77 129.66 126.55 130.66 Z M 127.19 131.47 L 127.80 132.25 C 128.59 133.25 130.03 133.42 131.02 132.64 C 132.02 131.86 132.19 130.42 131.41 129.42 L 130.80 128.64 C 130.02 127.64 128.58 127.47 127.58 128.25 C 126.58 129.03 126.41 130.47 127.19 131.47 Z M 127.81 132.26 L 128.40 133.02 C 129.19 134.01 130.63 134.18 131.63 133.40 C 132.62 132.61 132.80 131.17 132.01 130.17 L 131.41 129.42 C 130.63 128.42 129.18 128.25 128.19 129.03 C 127.19 129.82 127.02 131.26 127.81 132.26 Z M 128.41 133.03 L 129.02 133.78 C 129.81 134.77 131.26 134.93 132.25 134.14 C 133.24 133.35 133.40 131.90 132.60 130.91 L 132.00 130.16 C 131.21 129.17 129.76 129.01 128.77 129.80 C 127.78 130.60 127.62 132.04 128.41 133.03 Z M 129.03 133.80 L 129.66 134.58 C 130.47 135.56 131.92 135.71 132.90 134.90 C 133.88 134.10 134.03 132.65 133.22 131.66 L 132.59 130.89 C 131.79 129.91 130.34 129.76 129.35 130.57 C 128.37 131.37 128.22 132.82 129.03 133.80 Z M 129.67 134.60 L 130.34 135.39 C 131.15 136.37 132.61 136.50 133.58 135.69 C 134.56 134.87 134.69 133.42 133.88 132.44 L 133.21 131.64 C 132.40 130.67 130.94 130.53 129.97 131.35 C 128.99 132.16 128.86 133.62 129.67 134.60 Z M 130.35 135.41 L 131.01 136.19 C 131.83 137.16 133.29 137.28 134.26 136.46 C 135.23 135.64 135.35 134.18 134.53 133.21 L 133.87 132.43 C 133.05 131.46 131.59 131.33 130.62 132.16 C 129.65 132.98 129.52 134.44 130.35 135.41 Z M 131.02 136.20 L 131.68 136.97 C 132.51 137.94 133.96 138.05 134.93 137.23 C 135.90 136.40 136.01 134.94 135.18 133.97 L 134.52 133.20 C 133.69 132.23 132.24 132.12 131.27 132.95 C 130.30 133.78 130.19 135.23 131.02 136.20 Z M 131.68 136.98 L 132.33 137.73 C 133.16 138.69 134.62 138.80 135.59 137.97 C 136.55 137.13 136.66 135.67 135.82 134.71 L 135.18 133.96 C 134.34 133.00 132.89 132.89 131.92 133.72 C 130.95 134.56 130.85 136.02 131.68 136.98 Z M 132.32 137.73 L 133.00 138.52 C 133.84 139.49 135.30 139.60 136.27 138.76 C 137.24 137.93 137.34 136.47 136.51 135.50 L 135.83 134.71 C 134.99 133.74 133.53 133.63 132.57 134.47 C 131.60 135.30 131.49 136.76 132.32 137.73 Z M 132.96 138.48 L 133.56 139.21 C 134.37 140.20 135.83 140.35 136.82 139.54 C 137.81 138.73 137.96 137.26 137.15 136.27 L 136.55 135.54 C 135.74 134.55 134.28 134.40 133.29 135.21 C 132.30 136.02 132.15 137.48 132.96 138.48 Z M 133.46 139.11 L 134.04 139.91 C 134.80 140.95 136.26 141.19 137.31 140.43 C 138.35 139.67 138.58 138.20 137.82 137.16 L 137.24 136.36 C 136.48 135.32 135.02 135.09 133.98 135.85 C 132.93 136.61 132.70 138.07 133.46 139.11 Z M 133.93 139.79 L 134.46 140.64 C 135.15 141.75 136.61 142.08 137.72 141.39 C 138.83 140.70 139.16 139.24 138.47 138.13 L 137.94 137.28 C 137.24 136.17 135.78 135.84 134.68 136.53 C 133.57 137.23 133.23 138.69 133.93 139.79 Z M 134.34 140.50 L 134.80 141.39 C 135.42 142.56 136.87 143.02 138.04 142.40 C 139.22 141.79 139.67 140.33 139.06 139.16 L 138.59 138.27 C 137.98 137.09 136.53 136.64 135.35 137.26 C 134.17 137.87 133.72 139.32 134.34 140.50 Z M 134.69 141.27 L 135.10 142.19 C 135.65 143.42 137.10 143.97 138.34 143.42 C 139.57 142.87 140.13 141.42 139.57 140.18 L 139.17 139.27 C 138.61 138.04 137.16 137.48 135.93 138.04 C 134.69 138.59 134.14 140.04 134.69 141.27 Z M 135.04 142.15 L 135.26 142.68 C 135.80 143.94 137.26 144.54 138.53 144.01 C 139.79 143.47 140.39 142.01 139.85 140.74 L 139.63 140.22 C 139.10 138.95 137.64 138.35 136.37 138.89 C 135.10 139.42 134.51 140.88 135.04 142.15 Z"
      fill="black"
      fill-rule="nonzero" /><path d="M 158.33 118.04 L 158.93 118.82 C 159.57 119.65 160.76 119.81 161.59 119.17 C 162.41 118.53 162.57 117.35 161.93 116.52 L 161.33 115.73 C 160.69 114.91 159.51 114.75 158.68 115.39 C 157.85 116.03 157.69 117.21 158.33 118.04 Z M 158.96 118.86 L 159.58 119.64 C 160.24 120.45 161.43 120.58 162.25 119.92 C 163.06 119.26 163.19 118.07 162.53 117.26 L 161.91 116.48 C 161.25 115.67 160.06 115.54 159.24 116.19 C 158.43 116.85 158.30 118.05 158.96 118.86 Z M 159.63 119.70 L 160.31 120.46 C 161.00 121.25 162.20 121.33 162.99 120.63 C 163.77 119.94 163.85 118.74 163.15 117.95 L 162.48 117.19 C 161.79 116.40 160.59 116.33 159.80 117.02 C 159.01 117.72 158.94 118.92 159.63 119.70 Z M 160.38 120.54 L 161.03 121.20 C 161.76 121.94 162.96 121.95 163.71 121.22 C 164.45 120.49 164.46 119.29 163.73 118.54 L 163.08 117.88 C 162.35 117.13 161.15 117.12 160.40 117.86 C 159.66 118.59 159.65 119.79 160.38 120.54 Z M 161.08 121.23 L 161.79 121.90 C 162.54 122.62 163.73 122.59 164.44 121.84 C 165.16 121.09 165.13 119.90 164.38 119.18 L 163.68 118.51 C 162.92 117.79 161.74 117.82 161.02 118.57 C 160.30 119.32 160.33 120.51 161.08 121.23 Z M 161.81 121.90 L 162.58 122.62 C 163.33 123.32 164.51 123.28 165.21 122.53 C 165.91 121.78 165.87 120.60 165.12 119.89 L 164.36 119.18 C 163.61 118.48 162.43 118.51 161.72 119.27 C 161.02 120.02 161.06 121.20 161.81 121.90 Z M 162.58 122.60 L 163.34 123.32 C 164.08 124.02 165.25 123.99 165.95 123.25 C 166.65 122.51 166.62 121.34 165.88 120.64 L 165.12 119.91 C 164.38 119.21 163.21 119.24 162.51 119.98 C 161.81 120.72 161.84 121.89 162.58 122.60 Z M 163.34 123.30 L 164.08 124.01 C 164.81 124.71 165.97 124.69 166.67 123.96 C 167.37 123.23 167.35 122.07 166.62 121.37 L 165.88 120.66 C 165.15 119.96 163.99 119.98 163.29 120.71 C 162.59 121.44 162.61 122.60 163.34 123.30 Z M 164.11 124.01 L 164.86 124.72 C 165.58 125.41 166.73 125.37 167.42 124.65 C 168.11 123.92 168.08 122.77 167.35 122.08 L 166.60 121.38 C 165.87 120.69 164.72 120.72 164.04 121.45 C 163.35 122.17 163.38 123.32 164.11 124.01 Z M 164.90 124.73 L 165.63 125.39 C 166.37 126.06 167.50 126.00 168.16 125.26 C 168.83 124.52 168.77 123.39 168.03 122.73 L 167.30 122.07 C 166.57 121.40 165.43 121.46 164.77 122.20 C 164.11 122.94 164.16 124.07 164.90 124.73 Z M 165.72 125.43 L 166.53 126.09 C 167.28 126.70 168.39 126.59 169.01 125.83 C 169.62 125.07 169.51 123.96 168.75 123.35 L 167.94 122.69 C 167.19 122.07 166.08 122.19 165.46 122.94 C 164.85 123.70 164.96 124.81 165.72 125.43 Z M 166.66 126.12 L 167.51 126.71 C 168.28 127.25 169.35 127.06 169.89 126.28 C 170.43 125.51 170.24 124.44 169.46 123.90 L 168.62 123.31 C 167.84 122.77 166.77 122.96 166.23 123.74 C 165.69 124.51 165.88 125.58 166.66 126.12 Z M 167.63 126.72 L 168.42 127.20 C 169.20 127.67 170.21 127.42 170.69 126.65 C 171.16 125.87 170.91 124.85 170.14 124.38 L 169.34 123.89 C 168.56 123.42 167.55 123.67 167.07 124.45 C 166.60 125.23 166.85 126.24 167.63 126.72 Z M 168.47 127.18 L 168.78 127.36 C 169.55 127.81 170.54 127.54 170.98 126.78 C 171.43 126.01 171.17 125.02 170.40 124.58 L 170.08 124.40 C 169.32 123.95 168.33 124.21 167.89 124.98 C 167.44 125.75 167.70 126.73 168.47 127.18 Z"
      fill="black"
      fill-rule="nonzero" /><path d="M 170.28 112.04 L 170.22 113.03 C 170.16 114.06 170.95 114.95 171.98 115.01 C 173.01 115.07 173.89 114.29 173.95 113.26 L 174.01 112.27 C 174.07 111.24 173.29 110.35 172.26 110.29 C 171.23 110.23 170.34 111.02 170.28 112.04 Z M 170.09 113.29 L 170.16 114.28 C 170.24 115.39 171.20 116.22 172.30 116.14 C 173.40 116.06 174.23 115.10 174.15 114.00 L 174.08 113.00 C 174.00 111.90 173.05 111.07 171.94 111.15 C 170.84 111.23 170.01 112.19 170.09 113.29 Z M 170.17 114.73 L 170.42 115.59 C 170.75 116.69 171.90 117.32 173.00 117.00 C 174.10 116.67 174.73 115.52 174.40 114.42 L 174.15 113.56 C 173.83 112.46 172.67 111.83 171.57 112.15 C 170.47 112.47 169.84 113.63 170.17 114.73 Z M 170.54 115.91 L 170.97 116.79 C 171.46 117.82 172.71 118.26 173.74 117.76 C 174.78 117.26 175.21 116.02 174.71 114.98 L 174.29 114.10 C 173.79 113.07 172.54 112.64 171.51 113.14 C 170.48 113.63 170.04 114.88 170.54 115.91 Z M 171.06 116.94 L 171.63 117.90 C 172.21 118.88 173.48 119.21 174.46 118.63 C 175.44 118.05 175.77 116.78 175.19 115.80 L 174.62 114.83 C 174.04 113.85 172.77 113.53 171.79 114.11 C 170.80 114.69 170.48 115.96 171.06 116.94 Z M 171.68 117.95 L 172.21 118.78 C 172.82 119.74 174.08 120.02 175.04 119.41 C 175.99 118.80 176.27 117.54 175.67 116.58 L 175.14 115.75 C 174.53 114.80 173.26 114.52 172.31 115.12 C 171.35 115.73 171.07 117.00 171.68 117.95 Z M 172.25 118.80 L 172.83 119.66 C 173.45 120.59 174.70 120.84 175.63 120.23 C 176.56 119.61 176.81 118.35 176.19 117.42 L 175.62 116.56 C 175.00 115.63 173.75 115.38 172.82 116.00 C 171.89 116.62 171.64 117.87 172.25 118.80 Z M 172.87 119.68 L 173.45 120.51 C 174.08 121.42 175.32 121.64 176.23 121.01 C 177.13 120.38 177.36 119.14 176.73 118.23 L 176.15 117.40 C 175.52 116.50 174.28 116.27 173.37 116.90 C 172.47 117.53 172.24 118.78 172.87 119.68 Z M 173.48 120.55 L 174.09 121.38 C 174.74 122.26 175.99 122.45 176.87 121.80 C 177.76 121.15 177.95 119.91 177.30 119.02 L 176.69 118.19 C 176.04 117.31 174.79 117.12 173.91 117.77 C 173.02 118.42 172.83 119.67 173.48 120.55 Z M 174.12 121.46 L 174.75 122.25 C 175.45 123.12 176.72 123.26 177.59 122.56 C 178.46 121.86 178.60 120.59 177.90 119.72 L 177.27 118.94 C 176.57 118.07 175.30 117.93 174.43 118.63 C 173.56 119.32 173.42 120.60 174.12 121.46 Z M 174.78 122.36 L 175.42 123.07 C 176.18 123.92 177.49 124.00 178.34 123.24 C 179.19 122.47 179.26 121.17 178.50 120.32 L 177.87 119.61 C 177.11 118.76 175.80 118.68 174.95 119.44 C 174.10 120.20 174.02 121.51 174.78 122.36 Z M 175.46 123.17 L 176.13 123.85 C 176.95 124.68 178.28 124.69 179.10 123.87 C 179.93 123.06 179.94 121.73 179.13 120.90 L 178.46 120.22 C 177.64 119.39 176.31 119.38 175.49 120.20 C 174.66 121.01 174.65 122.34 175.46 123.17 Z M 176.17 123.90 L 176.89 124.59 C 177.73 125.39 179.07 125.36 179.87 124.52 C 180.68 123.68 180.65 122.34 179.81 121.54 L 179.09 120.85 C 178.25 120.05 176.91 120.08 176.11 120.92 C 175.30 121.76 175.33 123.10 176.17 123.90 Z M 176.92 124.61 L 177.67 125.31 C 178.52 126.10 179.86 126.05 180.65 125.19 C 181.44 124.34 181.39 123.00 180.54 122.21 L 179.78 121.52 C 178.93 120.73 177.59 120.78 176.80 121.63 C 176.01 122.49 176.06 123.82 176.92 124.61 Z M 177.68 125.31 L 177.92 125.54 C 178.78 126.33 180.12 126.27 180.90 125.41 C 181.69 124.56 181.63 123.22 180.78 122.43 L 180.53 122.21 C 179.67 121.42 178.34 121.48 177.55 122.33 C 176.76 123.19 176.82 124.53 177.68 125.31 Z"
      fill="black"
      fill-rule="nonzero" /></svg>