<svg xmlns="http://www.w3.org/2000/svg" width="300" height="300" viewBox="0 0 300 300">
<path d="M 136.17 131.32 L 136.23 132.15 C 136.31 133.13 137.16 133.87 138.15 133.80 C 139.13 133.72 139.87 132.87 139.80 131.88 L 139.73 131.06 C 139.66 130.07 138.80 129.34 137.82 129.41 C 136.84 129.48 136.10 130.34 136.17 131.32 Z M 136.24 132.47 L 136.47 133.40 C 136.72 134.38 137.72 134.98 138.70 134.73 C 139.69 134.48 140.28 133.48 140.03 132.50 L 139.79 131.56 C 139.54 130.58 138.54 129.99 137.56 130.24 C 136.58 130.49 135.99 131.49 136.24 132.47 Z M 136.57 133.79 L 137.09 134.83 C 137.56 135.75 138.69 136.13 139.61 135.66 C 140.54 135.20 140.91 134.07 140.45 133.14 L 139.93 132.11 C 139.46 131.18 138.34 130.81 137.41 131.27 C 136.48 131.73 136.11 132.86 136.57 133.79 Z M 137.20 135.04 L 137.70 135.78 C 138.28 136.64 139.46 136.87 140.32 136.29 C 141.19 135.71 141.42 134.53 140.84 133.66 L 140.34 132.93 C 139.76 132.06 138.58 131.83 137.72 132.42 C 136.85 133.00 136.62 134.18 137.20 135.04 Z M 137.77 135.86 L 138.37 136.65 C 139.00 137.48 140.18 137.64 141.01 137.01 C 141.84 136.38 142.00 135.19 141.37 134.37 L 140.77 133.58 C 140.13 132.75 138.95 132.59 138.12 133.22 C 137.29 133.85 137.14 135.04 137.77 135.86 Z M 138.42 136.71 L 139.10 137.52 C 139.76 138.32 140.94 138.43 141.74 137.77 C 142.54 137.10 142.65 135.92 141.99 135.12 L 141.31 134.31 C 140.65 133.51 139.47 133.40 138.67 134.06 C 137.87 134.73 137.76 135.91 138.42 136.71 Z M 139.14 137.56 L 139.85 138.36 C 140.53 139.14 141.71 139.21 142.49 138.52 C 143.26 137.84 143.34 136.66 142.65 135.88 L 141.94 135.08 C 141.26 134.31 140.08 134.23 139.30 134.92 C 138.53 135.60 138.45 136.79 139.14 137.56 Z M 139.89 138.39 L 140.60 139.16 C 141.30 139.91 142.48 139.95 143.24 139.25 C 143.99 138.55 144.03 137.37 143.33 136.62 L 142.61 135.85 C 141.91 135.10 140.73 135.06 139.98 135.76 C 139.23 136.46 139.18 137.64 139.89 138.39 Z M 140.66 139.17 L 141.42 139.95 C 142.13 140.67 143.29 140.68 144.01 139.97 C 144.73 139.27 144.75 138.10 144.04 137.38 L 143.27 136.60 C 142.57 135.88 141.40 135.87 140.68 136.58 C 139.96 137.29 139.95 138.45 140.66 139.17 Z M 141.48 139.95 L 142.21 140.66 C 142.92 141.34 144.05 141.33 144.74 140.62 C 145.43 139.91 145.41 138.78 144.70 138.09 L 143.97 137.38 C 143.26 136.70 142.13 136.71 141.45 137.42 C 140.76 138.13 140.77 139.26 141.48 139.95 Z M 142.27 140.65 L 142.98 141.31 C 143.68 141.96 144.78 141.93 145.44 141.23 C 146.09 140.52 146.06 139.42 145.35 138.77 L 144.65 138.10 C 143.94 137.45 142.84 137.48 142.19 138.19 C 141.53 138.89 141.57 139.99 142.27 140.65 Z M 143.02 141.29 L 143.72 141.92 C 144.41 142.55 145.48 142.50 146.11 141.81 C 146.74 141.12 146.69 140.05 146.00 139.42 L 145.31 138.79 C 144.62 138.16 143.54 138.21 142.91 138.90 C 142.28 139.59 142.33 140.66 143.02 141.29 Z M 143.75 141.90 L 144.04 142.17 C 144.72 142.78 145.77 142.73 146.39 142.05 C 147.00 141.37 146.95 140.32 146.27 139.71 L 145.97 139.44 C 145.29 138.83 144.24 138.88 143.63 139.56 C 143.01 140.24 143.07 141.29 143.75 141.90 Z"
      fill="black"
      fill-rule="nonzero" /><path d="M 130.63 146.08 L 131.42 146.71 C 132.21 147.35 133.37 147.22 134.01 146.43 C 134.64 145.64 134.52 144.48 133.73 143.84 L 132.94 143.21 C 132.15 142.57 130.99 142.70 130.35 143.49 C 129.72 144.28 129.84 145.44 130.63 146.08 Z M 131.35 146.76 L 132.12 147.39 C 132.94 148.07 134.15 147.95 134.82 147.13 C 135.50 146.32 135.38 145.11 134.56 144.43 L 133.80 143.80 C 132.98 143.12 131.77 143.24 131.10 144.06 C 130.42 144.87 130.54 146.08 131.35 146.76 Z M 132.05 147.40 L 132.77 148.03 C 133.59 148.74 134.84 148.66 135.55 147.84 C 136.27 147.02 136.18 145.77 135.36 145.06 L 134.64 144.43 C 133.82 143.71 132.57 143.80 131.86 144.62 C 131.14 145.44 131.23 146.68 132.05 147.40 Z M 132.73 148.01 L 133.45 148.66 C 134.26 149.40 135.52 149.34 136.25 148.53 C 136.99 147.72 136.93 146.47 136.12 145.73 L 135.40 145.08 C 134.59 144.34 133.34 144.40 132.60 145.21 C 131.86 146.02 131.92 147.27 132.73 148.01 Z M 133.45 148.66 L 134.22 149.36 C 135.03 150.09 136.28 150.04 137.01 149.23 C 137.75 148.43 137.69 147.18 136.89 146.44 L 136.12 145.74 C 135.31 145.00 134.06 145.06 133.33 145.87 C 132.59 146.67 132.65 147.92 133.45 148.66 Z M 134.25 149.36 L 134.97 150.01 C 135.78 150.73 137.02 150.66 137.74 149.85 C 138.46 149.04 138.39 147.80 137.58 147.08 L 136.86 146.44 C 136.05 145.72 134.81 145.79 134.09 146.60 C 133.37 147.40 133.44 148.64 134.25 149.36 Z M 135.01 150.01 L 135.79 150.68 C 136.60 151.38 137.82 151.28 138.52 150.47 C 139.22 149.66 139.12 148.44 138.31 147.74 L 137.54 147.07 C 136.72 146.38 135.50 146.47 134.80 147.28 C 134.11 148.09 134.20 149.32 135.01 150.01 Z M 135.85 150.70 L 136.65 151.35 C 137.47 152.01 138.68 151.89 139.34 151.06 C 140.01 150.24 139.88 149.04 139.06 148.37 L 138.25 147.72 C 137.43 147.06 136.23 147.18 135.56 148.01 C 134.90 148.83 135.03 150.03 135.85 150.70 Z M 136.74 151.35 L 137.57 151.97 C 138.40 152.59 139.57 152.42 140.18 151.59 C 140.79 150.77 140.62 149.60 139.80 148.99 L 138.97 148.37 C 138.14 147.75 136.98 147.92 136.36 148.75 C 135.75 149.57 135.92 150.74 136.74 151.35 Z M 137.69 151.97 L 138.51 152.52 C 139.33 153.07 140.45 152.85 141.00 152.03 C 141.55 151.21 141.33 150.10 140.51 149.55 L 139.69 148.99 C 138.86 148.44 137.75 148.66 137.20 149.48 C 136.65 150.30 136.87 151.41 137.69 151.97 Z M 138.64 152.51 L 139.47 153.01 C 140.29 153.49 141.34 153.22 141.82 152.41 C 142.31 151.59 142.04 150.53 141.22 150.05 L 140.39 149.56 C 139.57 149.07 138.52 149.34 138.03 150.16 C 137.55 150.98 137.82 152.03 138.64 152.51 Z M 139.59 153.01 L 140.50 153.47 C 141.31 153.89 142.31 153.56 142.73 152.75 C 143.15 151.93 142.82 150.93 142.01 150.51 L 141.10 150.05 C 140.28 149.63 139.28 149.96 138.87 150.77 C 138.45 151.59 138.77 152.59 139.59 153.01 Z M 140.58 153.46 L 141.48 153.87 C 142.29 154.24 143.25 153.88 143.61 153.07 C 143.98 152.26 143.63 151.30 142.82 150.94 L 141.92 150.53 C 141.11 150.16 140.15 150.51 139.79 151.32 C 139.42 152.13 139.77 153.09 140.58 153.46 Z M 141.52 153.84 L 141.95 154.03 C 142.75 154.38 143.68 154.02 144.02 153.22 C 144.37 152.43 144.01 151.50 143.21 151.15 L 142.78 150.96 C 141.98 150.61 141.06 150.97 140.71 151.77 C 140.36 152.57 140.72 153.49 141.52 153.84 Z"
      fill="black"
      fill-rule="nonzero" /><path d="M 162.93 143.41 L 163.17 144.36 C 163.43 145.38 164.46 145.99 165.47 145.73 C 166.49 145.48 167.10 144.44 166.84 143.43 L 166.60 142.48 C 166.34 141.46 165.31 140.85 164.30 141.11 C 163.28 141.36 162.67 142.40 162.93 143.41 Z M 162.96 144.19 L 163.10 145.17 C 163.26 146.30 164.31 147.09 165.45 146.92 C 166.58 146.76 167.36 145.71 167.20 144.57 L 167.06 143.60 C 166.89 142.47 165.84 141.68 164.71 141.85 C 163.58 142.01 162.79 143.06 162.96 144.19 Z M 162.91 144.75 L 162.86 145.77 C 162.79 147.00 163.74 148.06 164.97 148.12 C 166.21 148.19 167.26 147.24 167.33 146.01 L 167.38 144.99 C 167.45 143.76 166.50 142.70 165.27 142.64 C 164.03 142.57 162.98 143.52 162.91 144.75 Z M 162.85 145.28 L 162.60 146.23 C 162.26 147.47 162.99 148.74 164.23 149.08 C 165.47 149.41 166.74 148.68 167.07 147.44 L 167.33 146.49 C 167.67 145.26 166.93 143.99 165.70 143.65 C 164.46 143.32 163.19 144.05 162.85 145.28 Z M 162.69 145.95 L 162.30 146.90 C 161.81 148.09 162.37 149.44 163.56 149.93 C 164.74 150.42 166.10 149.86 166.59 148.67 L 166.98 147.73 C 167.47 146.54 166.91 145.18 165.72 144.69 C 164.54 144.20 163.18 144.76 162.69 145.95 Z M 162.36 146.75 L 161.91 147.64 C 161.34 148.79 161.80 150.19 162.95 150.77 C 164.10 151.34 165.50 150.87 166.08 149.72 L 166.53 148.83 C 167.10 147.68 166.64 146.28 165.49 145.70 C 164.34 145.13 162.94 145.60 162.36 146.75 Z M 161.95 147.57 L 161.44 148.50 C 160.83 149.63 161.24 151.04 162.37 151.66 C 163.51 152.28 164.92 151.86 165.54 150.73 L 166.04 149.80 C 166.66 148.67 166.24 147.25 165.11 146.64 C 163.98 146.02 162.57 146.44 161.95 147.57 Z M 161.48 148.44 L 160.98 149.29 C 160.33 150.40 160.71 151.83 161.82 152.48 C 162.93 153.13 164.36 152.75 165.01 151.64 L 165.50 150.79 C 166.15 149.68 165.78 148.25 164.67 147.60 C 163.55 146.95 162.13 147.32 161.48 148.44 Z M 161.02 149.22 L 160.52 150.02 C 159.83 151.11 160.16 152.55 161.25 153.23 C 162.35 153.92 163.78 153.59 164.47 152.50 L 164.97 151.70 C 165.65 150.61 165.32 149.17 164.23 148.49 C 163.14 147.80 161.70 148.13 161.02 149.22 Z M 160.55 149.97 L 160.02 150.77 C 159.31 151.85 159.60 153.30 160.67 154.01 C 161.75 154.72 163.20 154.42 163.91 153.35 L 164.44 152.55 C 165.15 151.47 164.86 150.03 163.78 149.31 C 162.71 148.60 161.26 148.90 160.55 149.97 Z M 160.03 150.76 L 159.46 151.59 C 158.74 152.66 159.03 154.11 160.09 154.83 C 161.16 155.55 162.61 155.27 163.33 154.20 L 163.90 153.37 C 164.62 152.30 164.34 150.85 163.27 150.13 C 162.20 149.41 160.75 149.69 160.03 150.76 Z M 159.46 151.60 L 158.90 152.44 C 158.19 153.51 158.48 154.96 159.55 155.67 C 160.62 156.39 162.07 156.10 162.78 155.03 L 163.34 154.19 C 164.05 153.12 163.76 151.67 162.69 150.96 C 161.62 150.24 160.17 150.53 159.46 151.60 Z M 158.89 152.45 L 158.37 153.25 C 157.66 154.33 157.96 155.78 159.04 156.48 C 160.12 157.19 161.56 156.88 162.27 155.81 L 162.79 155.01 C 163.50 153.93 163.19 152.49 162.12 151.78 C 161.04 151.08 159.60 151.38 158.89 152.45 Z M 158.37 153.26 L 157.81 154.11 C 157.11 155.19 157.41 156.63 158.49 157.33 C 159.57 158.03 161.01 157.73 161.71 156.65 L 162.27 155.80 C 162.97 154.73 162.67 153.29 161.59 152.58 C 160.51 151.88 159.07 152.18 158.37 153.26 Z M 157.82 154.10 L 157.24 154.98 C 156.54 156.05 156.84 157.49 157.91 158.20 C 158.98 158.90 160.42 158.61 161.13 157.54 L 161.70 156.66 C 162.41 155.59 162.11 154.15 161.04 153.44 C 159.97 152.73 158.53 153.03 157.82 154.10 Z M 157.26 154.97 L 156.72 155.77 C 156.01 156.84 156.29 158.28 157.36 158.99 C 158.43 159.71 159.87 159.42 160.58 158.35 L 161.12 157.55 C 161.83 156.48 161.54 155.04 160.47 154.33 C 159.41 153.62 157.97 153.90 157.26 154.97 Z M 156.73 155.77 L 156.17 156.60 C 155.45 157.66 155.73 159.10 156.79 159.81 C 157.85 160.53 159.29 160.25 160.01 159.19 L 160.57 158.36 C 161.28 157.30 161.00 155.86 159.94 155.14 C 158.88 154.43 157.44 154.71 156.73 155.77 Z M 156.18 156.59 L 155.60 157.44 C 154.88 158.49 155.15 159.93 156.21 160.65 C 157.26 161.37 158.70 161.10 159.42 160.04 L 160.00 159.20 C 160.72 158.14 160.44 156.70 159.39 155.98 C 158.33 155.27 156.89 155.54 156.18 156.59 Z M 155.61 157.44 L 155.04 158.27 C 154.31 159.32 154.58 160.76 155.63 161.48 C 156.68 162.20 158.12 161.93 158.84 160.88 L 159.41 160.05 C 160.13 158.99 159.87 157.56 158.82 156.84 C 157.76 156.12 156.33 156.39 155.61 157.44 Z M 155.05 158.27 L 154.48 159.09 C 153.76 160.13 154.02 161.56 155.07 162.28 C 156.11 163.01 157.54 162.74 158.27 161.70 L 158.83 160.88 C 159.55 159.84 159.29 158.40 158.24 157.68 C 157.20 156.96 155.77 157.22 155.05 158.27 Z M 154.49 159.08 L 153.92 159.90 C 153.20 160.94 153.46 162.37 154.49 163.09 C 155.53 163.82 156.96 163.56 157.69 162.52 L 158.25 161.70 C 158.98 160.66 158.72 159.23 157.68 158.51 C 156.64 157.79 155.21 158.04 154.49 159.08 Z M 153.93 159.90 L 153.35 160.72 C 152.63 161.76 152.88 163.18 153.91 163.91 C 154.95 164.63 156.37 164.38 157.10 163.35 L 157.68 162.52 C 158.40 161.49 158.15 160.06 157.12 159.34 C 156.08 158.61 154.66 158.87 153.93 159.90 Z M 153.37 160.72 L 152.79 161.53 C 152.07 162.56 152.31 163.98 153.34 164.71 C 154.37 165.43 155.79 165.19 156.51 164.16 L 157.09 163.35 C 157.81 162.32 157.57 160.90 156.54 160.17 C 155.51 159.45 154.09 159.69 153.37 160.72 Z M 152.81 161.53 L 152.23 162.33 C 151.51 163.36 151.74 164.77 152.76 165.50 C 153.78 166.22 155.20 165.99 155.93 164.97 L 156.50 164.16 C 157.23 163.14 156.99 161.73 155.97 161.00 C 154.95 160.27 153.53 160.51 152.81 161.53 Z M 152.25 162.33 L 151.66 163.15 C 150.93 164.16 151.17 165.57 152.18 166.30 C 153.19 167.02 154.60 166.79 155.33 165.78 L 155.91 164.97 C 156.64 163.96 156.41 162.55 155.40 161.82 C 154.39 161.09 152.97 161.32 152.25 162.33 Z M 151.68 163.14 L 151.08 163.96 C 150.35 164.97 150.57 166.37 151.58 167.10 C 152.58 167.83 153.99 167.61 154.72 166.60 L 155.31 165.78 C 156.04 164.78 155.82 163.37 154.82 162.64 C 153.81 161.92 152.41 162.14 151.68 163.14 Z M 151.10 163.96 L 150.50 164.77 C 149.77 165.76 149.99 167.16 150.98 167.90 C 151.98 168.63 153.38 168.41 154.11 167.42 L 154.70 166.61 C 155.43 165.61 155.22 164.21 154.22 163.48 C 153.23 162.75 151.83 162.96 151.10 163.96 Z M 150.52 164.76 L 149.93 165.56 C 149.20 166.54 149.40 167.94 150.38 168.67 C 151.37 169.40 152.76 169.20 153.49 168.22 L 154.09 167.42 C 154.82 166.44 154.62 165.05 153.63 164.31 C 152.65 163.58 151.26 163.78 150.52 164.76 Z M 149.96 165.55 L 149.35 166.35 C 148.61 167.32 148.80 168.70 149.77 169.44 C 150.74 170.18 152.12 169.99 152.86 169.02 L 153.47 168.23 C 154.20 167.26 154.02 165.87 153.05 165.14 C 152.08 164.40 150.69 164.58 149.96 165.55 Z M 149.38 166.33 L 148.76 167.13 C 148.01 168.08 148.18 169.46 149.13 170.20 C 150.09 170.95 151.46 170.78 152.21 169.83 L 152.83 169.04 C 153.57 168.08 153.41 166.71 152.45 165.96 C 151.50 165.22 150.13 165.38 149.38 166.33 Z M 148.79 167.11 L 148.16 167.89 C 147.41 168.82 147.55 170.19 148.48 170.95 C 149.42 171.71 150.78 171.56 151.54 170.63 L 152.17 169.85 C 152.93 168.91 152.79 167.54 151.85 166.79 C 150.92 166.03 149.55 166.18 148.79 167.11 Z M 148.20 167.87 L 147.55 168.64 C 146.79 169.56 146.91 170.92 147.82 171.68 C 148.73 172.45 150.09 172.33 150.86 171.42 L 151.50 170.65 C 152.27 169.73 152.15 168.37 151.24 167.61 C 150.32 166.84 148.96 166.96 148.20 167.87 Z M 147.59 168.63 L 146.93 169.39 C 146.16 170.28 146.26 171.63 147.15 172.40 C 148.04 173.18 149.39 173.08 150.16 172.19 L 150.82 171.43 C 151.59 170.54 151.50 169.19 150.60 168.41 C 149.71 167.64 148.36 167.74 147.59 168.63 Z M 146.96 169.38 L 146.30 170.12 C 145.52 171.00 145.60 172.34 146.47 173.12 C 147.35 173.89 148.69 173.82 149.47 172.94 L 150.13 172.20 C 150.91 171.32 150.83 169.98 149.96 169.21 C 149.08 168.43 147.74 168.50 146.96 169.38 Z M 146.33 170.12 L 145.66 170.85 C 144.88 171.71 144.94 173.04 145.80 173.82 C 146.66 174.60 147.99 174.54 148.77 173.68 L 149.44 172.95 C 150.22 172.09 150.16 170.76 149.30 169.98 C 148.44 169.20 147.11 169.26 146.33 170.12 Z M 145.69 170.85 L 145.02 171.58 C 144.23 172.42 144.28 173.73 145.12 174.52 C 145.96 175.30 147.28 175.25 148.06 174.41 L 148.74 173.68 C 149.52 172.84 149.47 171.53 148.63 170.74 C 147.79 169.96 146.48 170.01 145.69 170.85 Z M 145.05 171.58 L 144.37 172.30 C 143.58 173.12 143.62 174.42 144.44 175.20 C 145.26 175.98 146.56 175.95 147.34 175.13 L 148.03 174.41 C 148.81 173.59 148.78 172.29 147.95 171.50 C 147.13 170.72 145.83 170.75 145.05 171.58 Z M 144.40 172.30 L 143.70 173.01 C 142.92 173.81 142.94 175.10 143.74 175.88 C 144.55 176.67 145.83 176.65 146.62 175.84 L 147.31 175.13 C 148.09 174.33 148.08 173.04 147.27 172.26 C 146.47 171.47 145.18 171.49 144.40 172.30 Z M 143.74 173.01 L 143.02 173.73 C 142.24 174.51 142.24 175.78 143.03 176.57 C 143.81 177.35 145.08 177.35 145.87 176.56 L 146.58 175.85 C 147.36 175.06 147.36 173.79 146.58 173.00 C 145.79 172.22 144.52 172.22 143.74 173.01 Z M 143.06 173.73 L 142.33 174.44 C 141.55 175.21 141.53 176.46 142.30 177.25 C 143.07 178.03 144.32 178.04 145.10 177.27 L 145.83 176.56 C 146.61 175.79 146.63 174.54 145.86 173.76 C 145.09 172.98 143.84 172.96 143.06 173.73 Z M 142.37 174.45 L 141.63 175.15 C 140.85 175.90 140.82 177.13 141.56 177.91 C 142.31 178.69 143.54 178.72 144.32 177.98 L 145.06 177.27 C 145.84 176.53 145.87 175.29 145.13 174.51 C 144.38 173.73 143.15 173.70 142.37 174.45 Z M 141.67 175.16 L 140.93 175.84 C 140.15 176.56 140.10 177.77 140.82 178.55 C 141.54 179.33 142.75 179.38 143.53 178.66 L 144.27 177.98 C 145.05 177.26 145.10 176.04 144.38 175.26 C 143.67 174.49 142.45 174.44 141.67 175.16 Z M 140.98 175.84 L 140.25 176.48 C 139.47 177.17 139.40 178.37 140.09 179.15 C 140.78 179.93 141.97 180.00 142.75 179.31 L 143.48 178.66 C 144.26 177.97 144.33 176.78 143.64 176.00 C 142.95 175.22 141.76 175.15 140.98 175.84 Z M 140.31 176.47 L 139.52 177.14 C 138.73 177.79 138.63 178.96 139.29 179.75 C 139.94 180.53 141.11 180.64 141.90 179.98 L 142.69 179.32 C 143.47 178.66 143.58 177.49 142.92 176.71 C 142.27 175.92 141.10 175.82 140.31 176.47 Z M 139.59 177.12 L 138.77 177.76 C 137.97 178.38 137.83 179.53 138.45 180.32 C 139.07 181.11 140.21 181.25 141.00 180.64 L 141.83 179.99 C 142.62 179.38 142.76 178.23 142.14 177.44 C 141.53 176.65 140.38 176.50 139.59 177.12 Z M 138.83 177.75 L 138.05 178.33 C 137.25 178.91 137.07 180.02 137.65 180.82 C 138.23 181.62 139.35 181.80 140.15 181.22 L 140.94 180.64 C 141.73 180.06 141.91 178.95 141.33 178.15 C 140.75 177.35 139.63 177.17 138.83 177.75 Z M 138.11 178.33 L 137.34 178.85 C 136.55 179.40 136.34 180.49 136.89 181.29 C 137.44 182.08 138.53 182.29 139.33 181.74 L 140.09 181.22 C 140.89 180.67 141.09 179.58 140.54 178.78 C 140.00 177.98 138.90 177.78 138.11 178.33 Z M 137.40 178.85 L 136.58 179.38 C 135.78 179.90 135.55 180.96 136.06 181.76 C 136.58 182.56 137.64 182.79 138.44 182.27 L 139.27 181.74 C 140.07 181.23 140.30 180.16 139.78 179.36 C 139.26 178.56 138.20 178.33 137.40 178.85 Z M 136.66 179.37 L 135.81 179.86 C 135.00 180.33 134.73 181.36 135.20 182.17 C 135.67 182.98 136.70 183.25 137.51 182.78 L 138.36 182.29 C 139.16 181.82 139.44 180.79 138.97 179.98 C 138.50 179.17 137.47 178.90 136.66 179.37 Z M 135.92 179.84 L 135.00 180.29 C 134.18 180.70 133.85 181.70 134.25 182.52 C 134.66 183.34 135.66 183.67 136.48 183.26 L 137.40 182.81 C 138.22 182.40 138.55 181.40 138.14 180.58 C 137.74 179.76 136.74 179.43 135.92 179.84 Z M 135.11 180.27 L 134.23 180.64 C 133.40 180.99 133.01 181.95 133.36 182.78 C 133.71 183.61 134.66 184.00 135.50 183.65 L 136.37 183.28 C 137.20 182.93 137.59 181.98 137.24 181.15 C 136.90 180.31 135.94 179.92 135.11 180.27 Z M 134.30 180.63 L 133.37 180.98 C 132.53 181.29 132.11 182.22 132.42 183.06 C 132.73 183.89 133.66 184.32 134.50 184.01 L 135.43 183.66 C 136.26 183.35 136.69 182.42 136.38 181.58 C 136.07 180.74 135.14 180.32 134.30 180.63 Z M 133.41 180.98 L 132.44 181.32 C 131.61 181.61 131.16 182.52 131.45 183.35 C 131.74 184.19 132.65 184.63 133.49 184.34 L 134.46 184.00 C 135.29 183.71 135.73 182.80 135.45 181.97 C 135.16 181.13 134.25 180.69 133.41 180.98 Z M 132.46 181.33 L 131.66 181.60 C 130.83 181.87 130.38 182.77 130.66 183.60 C 130.94 184.43 131.84 184.88 132.66 184.60 L 133.47 184.33 C 134.30 184.05 134.74 183.15 134.46 182.33 C 134.19 181.50 133.29 181.05 132.46 181.33 Z"
      fill="black"
      fill-rule="nonzero" /></svg>