<svg xmlns="http://www.w3.org/2000/svg" width="300" height="300" viewBox="0 0 300 300">
<path d="M 141.67 124.27 L 141.20 125.20 C 140.73 126.12 141.10 127.26 142.03 127.73 C 142.95 128.20 144.09 127.83 144.56 126.90 L 145.03 125.97 C 145.50 125.04 145.13 123.91 144.20 123.44 C 143.28 122.97 142.14 123.34 141.67 124.27 Z M 140.98 125.80 L 140.86 126.73 C 140.72 127.78 141.46 128.74 142.51 128.87 C 143.56 129.01 144.52 128.27 144.65 127.22 L 144.78 126.30 C 144.91 125.25 144.17 124.29 143.13 124.15 C 142.08 124.02 141.12 124.75 140.98 125.80 Z M 141.04 127.85 L 141.44 128.65 C 141.92 129.60 143.09 129.97 144.04 129.49 C 144.99 129.01 145.37 127.84 144.88 126.89 L 144.48 126.10 C 143.99 125.15 142.83 124.77 141.88 125.26 C 140.93 125.74 140.55 126.90 141.04 127.85 Z M 141.79 129.14 L 142.53 129.87 C 143.28 130.63 144.51 130.62 145.27 129.87 C 146.02 129.11 146.02 127.88 145.26 127.13 L 144.53 126.40 C 143.77 125.64 142.54 125.65 141.79 126.40 C 141.04 127.16 141.04 128.39 141.79 129.14 Z M 142.70 130.03 L 143.52 130.66 C 144.36 131.32 145.58 131.17 146.24 130.33 C 146.90 129.48 146.75 128.26 145.90 127.61 L 145.09 126.97 C 144.24 126.31 143.02 126.46 142.36 127.31 C 141.71 128.15 141.86 129.37 142.70 130.03 Z M 143.60 130.73 L 144.36 131.26 C 145.24 131.87 146.45 131.65 147.06 130.77 C 147.68 129.89 147.46 128.68 146.58 128.06 L 145.82 127.54 C 144.93 126.93 143.72 127.15 143.11 128.03 C 142.50 128.91 142.72 130.12 143.60 130.73 Z M 144.45 131.32 L 145.31 131.85 C 146.23 132.41 147.43 132.12 147.99 131.20 C 148.55 130.28 148.26 129.08 147.34 128.53 L 146.48 128.00 C 145.56 127.44 144.37 127.73 143.81 128.65 C 143.25 129.56 143.54 130.76 144.45 131.32 Z M 145.39 131.89 L 146.29 132.39 C 147.23 132.91 148.42 132.57 148.94 131.63 C 149.46 130.69 149.11 129.50 148.17 128.98 L 147.27 128.48 C 146.33 127.96 145.14 128.30 144.62 129.24 C 144.10 130.19 144.44 131.37 145.39 131.89 Z M 146.33 132.41 L 147.19 132.86 C 148.14 133.36 149.32 132.99 149.82 132.04 C 150.32 131.09 149.95 129.91 149.00 129.41 L 148.14 128.96 C 147.18 128.46 146.01 128.83 145.51 129.78 C 145.01 130.73 145.37 131.91 146.33 132.41 Z M 147.20 132.87 L 148.12 133.34 C 149.08 133.83 150.26 133.46 150.75 132.50 C 151.24 131.54 150.86 130.36 149.90 129.87 L 148.98 129.40 C 148.02 128.91 146.85 129.29 146.36 130.25 C 145.87 131.21 146.24 132.38 147.20 132.87 Z M 148.13 133.35 L 149.06 133.82 C 150.02 134.31 151.19 133.92 151.68 132.96 C 152.17 132.00 151.78 130.83 150.82 130.34 L 149.89 129.87 C 148.93 129.38 147.76 129.77 147.27 130.73 C 146.79 131.69 147.17 132.86 148.13 133.35 Z M 149.06 133.82 L 150.00 134.30 C 150.96 134.78 152.14 134.40 152.62 133.44 C 153.11 132.48 152.73 131.31 151.77 130.82 L 150.82 130.34 C 149.86 129.85 148.69 130.24 148.20 131.20 C 147.71 132.16 148.10 133.33 149.06 133.82 Z M 149.99 134.29 L 150.92 134.77 C 151.88 135.27 153.06 134.89 153.55 133.94 C 154.05 132.98 153.67 131.80 152.71 131.31 L 151.78 130.83 C 150.82 130.33 149.65 130.71 149.15 131.66 C 148.66 132.62 149.03 133.80 149.99 134.29 Z M 150.90 134.76 L 151.75 135.22 C 152.70 135.73 153.88 135.37 154.39 134.43 C 154.90 133.48 154.55 132.30 153.60 131.79 L 152.74 131.32 C 151.79 130.81 150.61 131.17 150.10 132.12 C 149.59 133.07 149.95 134.25 150.90 134.76 Z M 151.71 135.19 L 152.51 135.65 C 153.44 136.18 154.63 135.86 155.17 134.93 C 155.70 133.99 155.38 132.80 154.44 132.27 L 153.64 131.81 C 152.71 131.28 151.52 131.60 150.99 132.54 C 150.45 133.47 150.78 134.66 151.71 135.19 Z M 152.43 135.61 L 153.33 136.18 C 154.24 136.76 155.45 136.49 156.03 135.58 C 156.60 134.66 156.33 133.46 155.42 132.88 L 154.52 132.31 C 153.61 131.73 152.41 132.00 151.83 132.92 C 151.25 133.83 151.52 135.03 152.43 135.61 Z M 153.18 136.09 L 153.97 136.70 C 154.83 137.36 156.06 137.20 156.73 136.34 C 157.39 135.48 157.23 134.25 156.37 133.59 L 155.58 132.98 C 154.72 132.31 153.48 132.47 152.82 133.33 C 152.16 134.19 152.32 135.42 153.18 136.09 Z M 153.72 136.49 L 154.36 137.17 C 155.10 137.97 156.36 138.02 157.15 137.27 C 157.95 136.53 158.00 135.28 157.25 134.48 L 156.62 133.79 C 155.87 132.99 154.62 132.95 153.82 133.69 C 153.02 134.44 152.98 135.69 153.72 136.49 Z M 154.04 136.78 L 154.52 137.67 C 155.05 138.65 156.27 139.01 157.24 138.49 C 158.22 137.96 158.58 136.74 158.06 135.77 L 157.57 134.87 C 157.05 133.90 155.83 133.53 154.85 134.06 C 153.88 134.58 153.51 135.80 154.04 136.78 Z M 154.30 137.22 L 154.54 138.17 C 154.82 139.27 155.94 139.94 157.04 139.66 C 158.13 139.38 158.80 138.26 158.52 137.16 L 158.28 136.21 C 158.00 135.12 156.88 134.45 155.78 134.73 C 154.69 135.01 154.02 136.13 154.30 137.22 Z M 154.45 137.81 L 154.51 138.74 C 154.59 139.89 155.58 140.76 156.73 140.68 C 157.88 140.60 158.75 139.61 158.67 138.46 L 158.61 137.53 C 158.53 136.38 157.54 135.51 156.39 135.59 C 155.24 135.67 154.37 136.66 154.45 137.81 Z M 154.51 138.32 L 154.38 139.28 C 154.23 140.43 155.03 141.48 156.18 141.64 C 157.33 141.80 158.38 140.99 158.54 139.85 L 158.67 138.88 C 158.83 137.74 158.02 136.68 156.88 136.52 C 155.73 136.36 154.67 137.17 154.51 138.32 Z M 154.48 138.84 L 154.12 139.84 C 153.72 140.93 154.28 142.14 155.37 142.54 C 156.46 142.94 157.67 142.38 158.07 141.29 L 158.44 140.29 C 158.84 139.19 158.28 137.98 157.19 137.58 C 156.09 137.18 154.88 137.74 154.48 138.84 Z M 154.24 139.54 L 153.76 140.42 C 153.20 141.44 153.57 142.72 154.59 143.29 C 155.61 143.85 156.90 143.48 157.46 142.46 L 157.95 141.59 C 158.51 140.56 158.14 139.28 157.12 138.71 C 156.10 138.15 154.81 138.52 154.24 139.54 Z M 153.88 140.21 L 153.28 141.06 C 152.61 142.01 152.83 143.34 153.79 144.01 C 154.74 144.69 156.06 144.46 156.74 143.51 L 157.34 142.66 C 158.02 141.71 157.79 140.39 156.84 139.71 C 155.88 139.03 154.56 139.26 153.88 140.21 Z M 153.44 140.85 L 152.79 141.57 C 152.00 142.44 152.06 143.78 152.92 144.57 C 153.79 145.36 155.13 145.30 155.92 144.44 L 156.58 143.72 C 157.37 142.85 157.31 141.51 156.44 140.72 C 155.58 139.93 154.24 139.99 153.44 140.85 Z M 153.06 141.32 L 152.21 141.96 C 151.28 142.67 151.10 144.01 151.81 144.94 C 152.52 145.87 153.86 146.05 154.79 145.34 L 155.64 144.70 C 156.57 143.98 156.75 142.65 156.04 141.72 C 155.33 140.78 154.00 140.60 153.06 141.32 Z M 152.46 141.80 L 151.62 142.27 C 150.60 142.85 150.24 144.15 150.82 145.17 C 151.40 146.20 152.69 146.55 153.72 145.98 L 154.55 145.50 C 155.57 144.92 155.93 143.63 155.35 142.61 C 154.78 141.58 153.48 141.22 152.46 141.80 Z M 151.57 142.30 L 150.77 142.79 C 149.76 143.39 149.43 144.70 150.04 145.71 C 150.65 146.71 151.95 147.04 152.96 146.43 L 153.76 145.95 C 154.77 145.34 155.10 144.04 154.49 143.03 C 153.89 142.02 152.58 141.70 151.57 142.30 Z M 150.58 142.92 L 149.80 143.51 C 148.86 144.22 148.68 145.55 149.39 146.48 C 150.10 147.42 151.43 147.60 152.36 146.89 L 153.14 146.30 C 154.08 145.59 154.26 144.26 153.55 143.33 C 152.85 142.40 151.52 142.21 150.58 142.92 Z M 149.69 143.61 L 148.91 144.28 C 148.03 145.05 147.94 146.38 148.70 147.27 C 149.47 148.15 150.80 148.24 151.69 147.48 L 152.47 146.80 C 153.35 146.03 153.44 144.70 152.68 143.82 C 151.91 142.93 150.58 142.84 149.69 143.61 Z M 148.90 144.35 L 148.17 145.01 C 147.33 145.78 147.27 147.10 148.04 147.95 C 148.82 148.79 150.13 148.85 150.98 148.08 L 151.70 147.41 C 152.55 146.64 152.61 145.32 151.83 144.48 C 151.06 143.63 149.74 143.57 148.90 144.35 Z M 148.20 145.07 L 147.47 145.76 C 146.66 146.52 146.61 147.79 147.37 148.60 C 148.13 149.42 149.41 149.46 150.22 148.70 L 150.95 148.01 C 151.76 147.25 151.80 145.98 151.04 145.17 C 150.28 144.36 149.01 144.31 148.20 145.07 Z M 147.50 145.82 L 146.84 146.44 C 146.06 147.18 146.02 148.41 146.76 149.19 C 147.50 149.98 148.73 150.01 149.51 149.27 L 150.18 148.64 C 150.96 147.90 150.99 146.67 150.26 145.89 C 149.52 145.11 148.29 145.08 147.50 145.82 Z"
      fill="black"
      fill-rule="nonzero" /><path d="M 142.53 158.20 L 143.04 159.00 C 143.62 159.93 144.84 160.21 145.77 159.63 C 146.70 159.04 146.98 157.82 146.39 156.89 L 145.89 156.09 C 145.30 155.16 144.08 154.88 143.15 155.46 C 142.23 156.05 141.95 157.27 142.53 158.20 Z M 143.04 159.02 L 143.57 159.84 C 144.16 160.76 145.39 161.03 146.31 160.44 C 147.24 159.85 147.50 158.62 146.91 157.70 L 146.38 156.88 C 145.79 155.95 144.56 155.69 143.64 156.28 C 142.72 156.87 142.45 158.10 143.04 159.02 Z M 143.59 159.87 L 144.16 160.73 C 144.77 161.64 146.00 161.89 146.91 161.28 C 147.83 160.67 148.07 159.43 147.46 158.52 L 146.89 157.67 C 146.29 156.75 145.05 156.51 144.14 157.12 C 143.23 157.73 142.98 158.96 143.59 159.87 Z M 144.18 160.76 L 144.77 161.60 C 145.40 162.50 146.64 162.72 147.54 162.09 C 148.44 161.46 148.66 160.22 148.03 159.32 L 147.44 158.48 C 146.81 157.58 145.57 157.36 144.67 157.99 C 143.77 158.62 143.55 159.86 144.18 160.76 Z M 144.78 161.63 L 145.36 162.43 C 146.01 163.32 147.25 163.52 148.15 162.88 C 149.04 162.23 149.24 160.98 148.59 160.09 L 148.01 159.29 C 147.37 158.40 146.12 158.20 145.23 158.85 C 144.34 159.49 144.14 160.74 144.78 161.63 Z M 145.36 162.44 L 145.96 163.26 C 146.61 164.15 147.86 164.34 148.75 163.69 C 149.64 163.04 149.84 161.79 149.19 160.90 L 148.59 160.08 C 147.94 159.19 146.69 159.00 145.80 159.65 C 144.91 160.30 144.71 161.55 145.36 162.44 Z M 145.95 163.25 L 146.55 164.08 C 147.19 164.97 148.45 165.18 149.34 164.53 C 150.24 163.88 150.44 162.63 149.79 161.74 L 149.20 160.91 C 148.55 160.01 147.30 159.81 146.40 160.46 C 145.51 161.10 145.30 162.35 145.95 163.25 Z M 146.52 164.05 L 147.10 164.88 C 147.74 165.79 148.99 166.02 149.90 165.38 C 150.80 164.75 151.03 163.50 150.40 162.59 L 149.82 161.76 C 149.18 160.85 147.93 160.63 147.02 161.26 C 146.12 161.89 145.89 163.14 146.52 164.05 Z M 147.07 164.84 L 147.63 165.69 C 148.24 166.62 149.49 166.88 150.41 166.27 C 151.34 165.66 151.60 164.41 150.99 163.48 L 150.43 162.63 C 149.82 161.70 148.57 161.45 147.64 162.06 C 146.72 162.67 146.46 163.91 147.07 164.84 Z M 147.59 165.65 L 148.11 166.49 C 148.70 167.44 149.94 167.73 150.89 167.15 C 151.84 166.56 152.13 165.32 151.55 164.37 L 151.02 163.52 C 150.44 162.58 149.20 162.28 148.25 162.87 C 147.30 163.45 147.00 164.70 147.59 165.65 Z M 148.08 166.44 L 148.57 167.30 C 149.13 168.27 150.37 168.60 151.34 168.04 C 152.31 167.48 152.64 166.24 152.08 165.27 L 151.58 164.42 C 151.02 163.45 149.78 163.12 148.81 163.68 C 147.85 164.24 147.52 165.48 148.08 166.44 Z M 148.54 167.25 L 149.01 168.13 C 149.55 169.11 150.78 169.48 151.77 168.94 C 152.75 168.40 153.12 167.17 152.58 166.18 L 152.11 165.31 C 151.57 164.33 150.34 163.96 149.35 164.50 C 148.37 165.03 148.00 166.27 148.54 167.25 Z M 148.98 168.09 L 149.43 168.96 C 149.95 169.97 151.17 170.36 152.18 169.85 C 153.18 169.33 153.58 168.10 153.06 167.10 L 152.61 166.22 C 152.10 165.22 150.87 164.83 149.87 165.34 C 148.86 165.85 148.47 167.08 148.98 168.09 Z M 149.40 168.93 L 149.84 169.83 C 150.33 170.85 151.56 171.27 152.58 170.78 C 153.60 170.28 154.02 169.06 153.53 168.04 L 153.09 167.14 C 152.60 166.12 151.37 165.69 150.35 166.19 C 149.33 166.68 148.91 167.91 149.40 168.93 Z M 149.81 169.79 L 150.23 170.71 C 150.70 171.74 151.93 172.20 152.96 171.72 C 153.99 171.25 154.45 170.03 153.97 168.99 L 153.56 168.08 C 153.08 167.04 151.86 166.59 150.83 167.06 C 149.79 167.53 149.34 168.76 149.81 169.79 Z M 150.20 170.67 L 150.60 171.59 C 151.06 172.64 152.27 173.13 153.32 172.67 C 154.37 172.22 154.85 171.00 154.40 169.95 L 154.00 169.03 C 153.55 167.98 152.33 167.50 151.28 167.95 C 150.23 168.40 149.75 169.62 150.20 170.67 Z M 150.58 171.55 L 150.94 172.44 C 151.37 173.50 152.58 174.01 153.64 173.58 C 154.70 173.15 155.22 171.94 154.78 170.88 L 154.43 169.99 C 153.99 168.93 152.78 168.42 151.72 168.85 C 150.66 169.28 150.15 170.49 150.58 171.55 Z M 150.91 172.39 L 151.25 173.30 C 151.66 174.38 152.86 174.92 153.94 174.51 C 155.01 174.11 155.56 172.91 155.15 171.83 L 154.81 170.92 C 154.40 169.85 153.20 169.30 152.13 169.71 C 151.05 170.11 150.50 171.32 150.91 172.39 Z M 151.22 173.25 L 151.55 174.19 C 151.93 175.28 153.12 175.86 154.21 175.49 C 155.30 175.11 155.88 173.92 155.51 172.83 L 155.18 171.88 C 154.80 170.79 153.61 170.21 152.52 170.59 C 151.43 170.96 150.85 172.15 151.22 173.25 Z M 151.52 174.14 L 151.84 175.14 C 152.18 176.25 153.36 176.86 154.47 176.52 C 155.57 176.17 156.19 174.99 155.84 173.89 L 155.53 172.89 C 155.19 171.78 154.01 171.16 152.90 171.51 C 151.80 171.85 151.18 173.03 151.52 174.14 Z M 151.81 175.09 L 152.09 176.07 C 152.41 177.19 153.57 177.84 154.69 177.52 C 155.81 177.21 156.46 176.04 156.15 174.92 L 155.87 173.94 C 155.55 172.82 154.39 172.17 153.27 172.49 C 152.15 172.80 151.50 173.97 151.81 175.09 Z M 152.07 176.02 L 152.32 177.01 C 152.61 178.14 153.77 178.82 154.90 178.53 C 156.03 178.24 156.71 177.09 156.42 175.96 L 156.17 174.97 C 155.88 173.84 154.72 173.16 153.59 173.45 C 152.46 173.74 151.78 174.89 152.07 176.02 Z M 152.30 176.96 L 152.53 177.97 C 152.80 179.11 153.94 179.82 155.09 179.56 C 156.23 179.29 156.94 178.15 156.68 177.00 L 156.44 176.00 C 156.18 174.86 155.03 174.15 153.89 174.41 C 152.75 174.68 152.03 175.82 152.30 176.96 Z M 152.51 177.92 L 152.72 178.91 C 152.96 180.07 154.09 180.81 155.25 180.57 C 156.40 180.33 157.14 179.19 156.90 178.04 L 156.70 177.05 C 156.46 175.89 155.32 175.15 154.17 175.39 C 153.01 175.63 152.27 176.77 152.51 177.92 Z M 152.70 178.86 L 152.87 179.81 C 153.08 180.98 154.20 181.75 155.37 181.54 C 156.53 181.33 157.31 180.21 157.10 179.05 L 156.92 178.09 C 156.71 176.93 155.59 176.15 154.43 176.37 C 153.26 176.58 152.49 177.69 152.70 178.86 Z M 152.85 179.74 L 153.01 180.83 C 153.18 182.00 154.27 182.82 155.45 182.65 C 156.63 182.48 157.45 181.38 157.28 180.21 L 157.12 179.12 C 156.95 177.94 155.85 177.12 154.67 177.30 C 153.50 177.47 152.68 178.56 152.85 179.74 Z M 152.99 180.73 L 153.09 181.78 C 153.21 182.97 154.27 183.84 155.46 183.73 C 156.65 183.61 157.52 182.55 157.40 181.36 L 157.30 180.30 C 157.18 179.11 156.12 178.24 154.93 178.36 C 153.74 178.48 152.87 179.54 152.99 180.73 Z M 153.07 181.67 L 153.12 182.63 C 153.17 183.83 154.19 184.76 155.40 184.70 C 156.60 184.64 157.53 183.62 157.47 182.42 L 157.42 181.47 C 157.37 180.26 156.34 179.34 155.14 179.39 C 153.94 179.45 153.01 180.47 153.07 181.67 Z M 153.10 182.52 L 153.10 183.39 C 153.09 184.60 154.07 185.58 155.28 185.59 C 156.49 185.59 157.48 184.61 157.48 183.40 L 157.48 182.53 C 157.49 181.32 156.51 180.34 155.30 180.33 C 154.09 180.33 153.11 181.31 153.10 182.52 Z M 153.09 183.23 L 153.01 184.32 C 152.92 185.54 153.83 186.60 155.04 186.69 C 156.26 186.78 157.32 185.87 157.41 184.65 L 157.49 183.56 C 157.58 182.34 156.67 181.29 155.45 181.20 C 154.24 181.11 153.18 182.02 153.09 183.23 Z M 153.04 183.99 L 152.82 184.94 C 152.55 186.14 153.30 187.33 154.50 187.61 C 155.69 187.88 156.89 187.13 157.16 185.93 L 157.38 184.98 C 157.65 183.78 156.90 182.59 155.70 182.32 C 154.50 182.04 153.31 182.79 153.04 183.99 Z M 153.01 184.37 L 152.58 185.18 C 151.99 186.27 152.40 187.63 153.49 188.22 C 154.59 188.81 155.95 188.40 156.53 187.31 L 156.97 186.50 C 157.56 185.41 157.15 184.05 156.05 183.46 C 154.96 182.87 153.60 183.28 153.01 184.37 Z M 153.03 184.58 L 152.30 185.25 C 151.38 186.09 151.32 187.52 152.16 188.44 C 153.00 189.36 154.43 189.42 155.36 188.58 L 156.09 187.91 C 157.01 187.07 157.07 185.63 156.22 184.71 C 155.38 183.79 153.95 183.73 153.03 184.58 Z M 152.74 184.91 L 151.86 185.39 C 150.76 185.99 150.34 187.37 150.94 188.47 C 151.54 189.58 152.92 189.99 154.03 189.39 L 154.91 188.92 C 156.02 188.32 156.43 186.94 155.83 185.83 C 155.23 184.72 153.85 184.31 152.74 184.91 Z M 152.20 185.23 L 151.25 185.55 C 150.06 185.96 149.42 187.26 149.83 188.46 C 150.24 189.65 151.54 190.29 152.73 189.88 L 153.68 189.55 C 154.88 189.14 155.52 187.84 155.11 186.65 C 154.70 185.46 153.40 184.82 152.20 185.23 Z M 151.60 185.46 L 150.62 185.63 C 149.38 185.85 148.55 187.03 148.76 188.28 C 148.98 189.52 150.16 190.36 151.41 190.14 L 152.39 189.97 C 153.63 189.75 154.46 188.57 154.25 187.32 C 154.03 186.08 152.85 185.24 151.60 185.46 Z M 150.98 185.60 L 149.97 185.62 C 148.71 185.64 147.71 186.68 147.73 187.94 C 147.75 189.21 148.79 190.21 150.06 190.19 L 151.06 190.17 C 152.32 190.15 153.33 189.11 153.30 187.84 C 153.28 186.58 152.24 185.58 150.98 185.60 Z M 150.31 185.64 L 149.32 185.51 C 148.07 185.35 146.92 186.23 146.76 187.48 C 146.59 188.72 147.47 189.87 148.72 190.04 L 149.72 190.17 C 150.97 190.33 152.11 189.45 152.28 188.20 C 152.44 186.95 151.56 185.80 150.31 185.64 Z M 149.67 185.60 L 148.72 185.32 C 147.52 184.96 146.26 185.64 145.90 186.85 C 145.54 188.05 146.23 189.31 147.43 189.66 L 148.37 189.95 C 149.57 190.30 150.84 189.62 151.19 188.42 C 151.55 187.22 150.87 185.96 149.67 185.60 Z M 149.00 185.46 L 148.10 185.05 C 146.98 184.54 145.66 185.03 145.14 186.15 C 144.63 187.27 145.12 188.60 146.24 189.11 L 147.14 189.52 C 148.26 190.03 149.59 189.54 150.10 188.42 C 150.62 187.30 150.12 185.97 149.00 185.46 Z M 148.20 185.15 L 147.31 184.68 C 146.24 184.11 144.92 184.52 144.36 185.58 C 143.79 186.65 144.19 187.97 145.26 188.53 L 146.15 189.01 C 147.21 189.57 148.53 189.17 149.10 188.10 C 149.67 187.04 149.26 185.72 148.20 185.15 Z M 147.26 184.73 L 146.39 184.27 C 145.35 183.73 144.07 184.13 143.53 185.16 C 142.99 186.20 143.39 187.48 144.42 188.02 L 145.30 188.48 C 146.34 189.02 147.61 188.62 148.16 187.59 C 148.70 186.55 148.30 185.28 147.26 184.73 Z M 146.31 184.33 L 145.41 183.88 C 144.41 183.38 143.19 183.78 142.69 184.79 C 142.18 185.79 142.59 187.01 143.59 187.51 L 144.50 187.96 C 145.50 188.46 146.72 188.06 147.22 187.05 C 147.72 186.05 147.31 184.83 146.31 184.33 Z M 145.32 183.95 L 144.41 183.53 C 143.44 183.08 142.30 183.49 141.85 184.45 C 141.40 185.41 141.81 186.55 142.77 187.01 L 143.68 187.43 C 144.64 187.88 145.79 187.47 146.24 186.51 C 146.69 185.55 146.28 184.41 145.32 183.95 Z M 144.32 183.64 L 143.40 183.23 C 142.50 182.83 141.45 183.23 141.05 184.13 C 140.65 185.03 141.05 186.09 141.95 186.49 L 142.86 186.90 C 143.76 187.30 144.82 186.89 145.22 185.99 C 145.62 185.09 145.22 184.04 144.32 183.64 Z M 143.35 183.33 L 142.79 183.09 C 141.94 182.72 140.96 183.10 140.59 183.95 C 140.22 184.79 140.61 185.77 141.45 186.14 L 142.01 186.39 C 142.85 186.76 143.84 186.37 144.21 185.53 C 144.57 184.68 144.19 183.70 143.35 183.33 Z"
      fill="black"
      fill-rule="nonzero" /><path d="M 132.91 170.58 L 132.85 171.58 C 132.78 172.64 133.59 173.55 134.64 173.61 C 135.70 173.68 136.61 172.87 136.68 171.81 L 136.74 170.82 C 136.81 169.76 136.00 168.85 134.94 168.78 C 133.88 168.72 132.97 169.52 132.91 170.58 Z M 132.84 171.38 L 132.68 172.37 C 132.51 173.43 133.23 174.43 134.29 174.60 C 135.35 174.78 136.36 174.05 136.53 172.99 L 136.69 172.01 C 136.86 170.95 136.14 169.94 135.08 169.77 C 134.01 169.60 133.01 170.32 132.84 171.38 Z M 132.75 172.01 L 132.42 172.92 C 132.06 173.94 132.59 175.07 133.61 175.44 C 134.64 175.81 135.77 175.27 136.13 174.25 L 136.46 173.34 C 136.83 172.32 136.29 171.19 135.27 170.82 C 134.24 170.46 133.12 170.99 132.75 172.01 Z M 132.55 172.62 L 132.07 173.48 C 131.54 174.44 131.88 175.64 132.84 176.17 C 133.79 176.71 134.99 176.36 135.53 175.41 L 136.01 174.55 C 136.54 173.59 136.20 172.39 135.24 171.86 C 134.29 171.32 133.08 171.67 132.55 172.62 Z M 132.17 173.32 L 131.57 174.19 C 130.95 175.09 131.18 176.32 132.08 176.94 C 132.98 177.56 134.22 177.33 134.84 176.43 L 135.43 175.57 C 136.05 174.67 135.82 173.43 134.92 172.81 C 134.02 172.19 132.79 172.42 132.17 173.32 Z M 131.62 174.12 L 131.04 174.90 C 130.38 175.77 130.55 177.01 131.43 177.67 C 132.30 178.33 133.55 178.15 134.21 177.28 L 134.79 176.50 C 135.45 175.63 135.27 174.38 134.40 173.72 C 133.52 173.07 132.28 173.24 131.62 174.12 Z M 131.06 174.86 L 130.44 175.65 C 129.76 176.51 129.91 177.76 130.77 178.43 C 131.63 179.11 132.88 178.97 133.56 178.11 L 134.18 177.32 C 134.86 176.45 134.71 175.21 133.85 174.53 C 132.99 173.85 131.74 174.00 131.06 174.86 Z M 130.46 175.63 L 129.81 176.42 C 129.12 177.27 129.25 178.52 130.10 179.21 C 130.95 179.90 132.20 179.77 132.89 178.92 L 133.54 178.13 C 134.23 177.28 134.10 176.03 133.25 175.34 C 132.40 174.65 131.15 174.78 130.46 175.63 Z M 129.83 176.40 L 129.21 177.15 C 128.51 177.99 128.62 179.24 129.47 179.94 C 130.31 180.64 131.56 180.52 132.26 179.68 L 132.88 178.94 C 133.58 178.10 133.46 176.85 132.62 176.15 C 131.78 175.45 130.53 175.56 129.83 176.40 Z M 129.24 177.11 L 128.59 177.86 C 127.87 178.68 127.95 179.93 128.78 180.65 C 129.60 181.37 130.85 181.29 131.57 180.46 L 132.22 179.72 C 132.94 178.89 132.86 177.64 132.04 176.92 C 131.22 176.20 129.96 176.29 129.24 177.11 Z M 128.65 177.80 L 127.93 178.55 C 127.18 179.35 127.22 180.60 128.01 181.35 C 128.80 182.10 130.05 182.06 130.80 181.27 L 131.52 180.52 C 132.27 179.73 132.23 178.48 131.44 177.73 C 130.65 176.97 129.40 177.01 128.65 177.80 Z M 128.00 178.49 L 127.27 179.20 C 126.49 179.96 126.46 181.20 127.22 181.99 C 127.97 182.77 129.22 182.79 130.00 182.04 L 130.74 181.33 C 131.52 180.57 131.54 179.33 130.79 178.55 C 130.03 177.76 128.79 177.74 128.00 178.49 Z M 127.33 179.16 L 126.57 179.84 C 125.76 180.56 125.69 181.80 126.41 182.60 C 127.12 183.41 128.36 183.48 129.17 182.76 L 129.93 182.08 C 130.74 181.36 130.81 180.13 130.09 179.32 C 129.38 178.51 128.14 178.44 127.33 179.16 Z M 126.63 179.81 L 125.86 180.44 C 125.04 181.13 124.92 182.35 125.61 183.18 C 126.29 184.00 127.52 184.12 128.34 183.43 L 129.11 182.80 C 129.93 182.11 130.05 180.89 129.36 180.06 C 128.68 179.24 127.45 179.12 126.63 179.81 Z M 125.94 180.41 L 125.13 181.03 C 124.29 181.68 124.13 182.88 124.77 183.72 C 125.41 184.56 126.62 184.72 127.46 184.08 L 128.27 183.46 C 129.11 182.82 129.27 181.61 128.62 180.77 C 127.98 179.93 126.78 179.77 125.94 180.41 Z M 125.22 181.03 L 124.39 181.61 C 123.54 182.20 123.34 183.36 123.93 184.21 C 124.52 185.05 125.68 185.26 126.52 184.67 L 127.36 184.08 C 128.20 183.50 128.41 182.33 127.82 181.49 C 127.23 180.65 126.07 180.44 125.22 181.03 Z M 124.47 181.64 L 123.69 182.15 C 122.85 182.69 122.62 183.80 123.16 184.64 C 123.70 185.47 124.82 185.70 125.65 185.16 L 126.44 184.65 C 127.27 184.10 127.50 182.99 126.96 182.16 C 126.42 181.33 125.31 181.09 124.47 181.64 Z M 123.72 182.18 L 123.55 182.29 C 122.73 182.81 122.49 183.90 123.01 184.71 C 123.54 185.53 124.62 185.77 125.44 185.24 L 125.61 185.13 C 126.43 184.61 126.67 183.53 126.14 182.71 C 125.62 181.89 124.54 181.65 123.72 182.18 Z"
      fill="black"
      fill-rule="nonzero" /><path d="M 158.32 160.72 L 159.02 161.35 C 159.84 162.08 161.11 162.01 161.84 161.19 C 162.58 160.37 162.51 159.10 161.69 158.37 L 160.99 157.74 C 160.16 157.00 158.90 157.07 158.16 157.89 C 157.43 158.72 157.49 159.98 158.32 160.72 Z M 158.94 161.41 L 159.69 162.09 C 160.55 162.87 161.88 162.80 162.66 161.95 C 163.43 161.09 163.37 159.76 162.51 158.99 L 161.76 158.30 C 160.91 157.53 159.58 157.59 158.80 158.45 C 158.02 159.30 158.09 160.63 158.94 161.41 Z M 159.63 162.13 L 160.35 162.79 C 161.22 163.61 162.60 163.55 163.41 162.68 C 164.22 161.80 164.17 160.43 163.30 159.61 L 162.58 158.95 C 161.70 158.13 160.33 158.19 159.52 159.06 C 158.70 159.94 158.75 161.31 159.63 162.13 Z M 160.30 162.79 L 160.99 163.45 C 161.87 164.28 163.26 164.25 164.09 163.38 C 164.93 162.50 164.90 161.12 164.03 160.28 L 163.34 159.62 C 162.46 158.78 161.08 158.81 160.24 159.69 C 159.40 160.56 159.43 161.95 160.30 162.79 Z M 160.95 163.41 L 161.69 164.15 C 162.54 165.01 163.94 165.01 164.80 164.15 C 165.65 163.30 165.66 161.90 164.80 161.04 L 164.07 160.31 C 163.21 159.45 161.82 159.45 160.96 160.31 C 160.10 161.16 160.10 162.56 160.95 163.41 Z M 161.64 164.11 L 162.38 164.89 C 163.21 165.78 164.61 165.82 165.49 164.99 C 166.38 164.15 166.42 162.76 165.59 161.87 L 164.85 161.09 C 164.01 160.20 162.62 160.16 161.73 160.99 C 160.85 161.83 160.80 163.22 161.64 164.11 Z M 162.34 164.85 L 163.03 165.63 C 163.84 166.54 165.24 166.62 166.15 165.81 C 167.06 164.99 167.13 163.60 166.32 162.69 L 165.63 161.91 C 164.82 161.00 163.42 160.92 162.51 161.74 C 161.60 162.55 161.52 163.94 162.34 164.85 Z M 163.00 165.60 L 163.66 166.38 C 164.46 167.31 165.85 167.42 166.78 166.62 C 167.71 165.83 167.82 164.43 167.02 163.50 L 166.36 162.72 C 165.56 161.79 164.17 161.68 163.24 162.48 C 162.31 163.27 162.20 164.67 163.00 165.60 Z M 163.64 166.35 L 164.25 167.10 C 165.03 168.04 166.43 168.17 167.37 167.39 C 168.31 166.61 168.45 165.21 167.67 164.27 L 167.05 163.53 C 166.27 162.59 164.88 162.45 163.93 163.23 C 162.99 164.01 162.86 165.41 163.64 166.35 Z M 164.22 167.07 L 164.88 167.90 C 165.65 168.85 167.04 169.01 168.00 168.25 C 168.96 167.49 169.12 166.09 168.36 165.13 L 167.69 164.30 C 166.93 163.34 165.54 163.18 164.58 163.95 C 163.62 164.71 163.46 166.11 164.22 167.07 Z M 164.85 167.86 L 165.45 168.65 C 166.19 169.62 167.58 169.81 168.56 169.07 C 169.54 168.33 169.73 166.94 168.99 165.96 L 168.39 165.17 C 167.65 164.19 166.26 164.00 165.28 164.74 C 164.30 165.48 164.11 166.88 164.85 167.86 Z M 165.42 168.61 L 165.95 169.35 C 166.68 170.34 168.07 170.56 169.06 169.84 C 170.05 169.12 170.27 167.73 169.55 166.73 L 169.02 166.00 C 168.29 165.00 166.90 164.78 165.91 165.51 C 164.92 166.23 164.70 167.62 165.42 168.61 Z M 165.94 169.33 L 166.52 170.14 C 167.23 171.14 168.62 171.38 169.62 170.67 C 170.62 169.96 170.86 168.57 170.15 167.57 L 169.57 166.75 C 168.86 165.75 167.47 165.51 166.46 166.22 C 165.46 166.94 165.23 168.33 165.94 169.33 Z M 166.50 170.12 L 167.07 170.94 C 167.77 171.96 169.16 172.21 170.17 171.51 C 171.18 170.81 171.43 169.42 170.73 168.41 L 170.16 167.59 C 169.46 166.58 168.08 166.32 167.06 167.02 C 166.05 167.72 165.80 169.11 166.50 170.12 Z M 167.05 170.91 L 167.55 171.67 C 168.24 172.70 169.62 172.97 170.64 172.29 C 171.67 171.61 171.94 170.22 171.26 169.20 L 170.76 168.44 C 170.07 167.42 168.69 167.14 167.67 167.82 C 166.64 168.51 166.37 169.89 167.05 170.91 Z M 167.51 171.61 L 168.02 172.44 C 168.67 173.48 170.04 173.81 171.09 173.16 C 172.14 172.51 172.46 171.14 171.81 170.09 L 171.30 169.26 C 170.65 168.22 169.28 167.89 168.23 168.54 C 167.19 169.19 166.86 170.56 167.51 171.61 Z M 167.98 172.36 L 168.51 173.31 C 169.12 174.38 170.48 174.76 171.55 174.16 C 172.62 173.55 173.00 172.19 172.40 171.12 L 171.86 170.17 C 171.26 169.10 169.90 168.72 168.82 169.32 C 167.75 169.93 167.37 171.28 167.98 172.36 Z M 168.48 173.25 L 168.93 174.10 C 169.50 175.19 170.85 175.61 171.94 175.04 C 173.03 174.47 173.45 173.12 172.87 172.03 L 172.43 171.18 C 171.86 170.09 170.51 169.67 169.42 170.24 C 168.33 170.81 167.91 172.16 168.48 173.25 Z M 168.91 174.06 L 169.37 174.98 C 169.91 176.08 171.25 176.53 172.35 175.98 C 173.46 175.43 173.90 174.09 173.35 172.99 L 172.89 172.07 C 172.35 170.97 171.01 170.52 169.91 171.07 C 168.80 171.62 168.36 172.96 168.91 174.06 Z M 169.35 174.94 L 169.79 175.87 C 170.31 176.99 171.64 177.46 172.76 176.93 C 173.87 176.41 174.34 175.08 173.82 173.97 L 173.37 173.03 C 172.85 171.92 171.52 171.44 170.41 171.97 C 169.29 172.50 168.82 173.83 169.35 174.94 Z M 169.77 175.82 L 170.19 176.78 C 170.69 177.90 172.00 178.41 173.13 177.92 C 174.25 177.42 174.76 176.10 174.26 174.98 L 173.84 174.02 C 173.34 172.90 172.03 172.39 170.90 172.88 C 169.78 173.38 169.27 174.70 169.77 175.82 Z M 170.16 176.69 L 170.53 177.65 C 170.98 178.79 172.27 179.35 173.41 178.90 C 174.55 178.46 175.11 177.17 174.67 176.03 L 174.29 175.07 C 173.85 173.93 172.56 173.37 171.42 173.81 C 170.28 174.26 169.71 175.55 170.16 176.69 Z M 170.49 177.50 L 170.78 178.42 C 171.14 179.58 172.38 180.23 173.55 179.87 C 174.71 179.50 175.36 178.26 175.00 177.10 L 174.71 176.18 C 174.35 175.01 173.11 174.36 171.94 174.73 C 170.78 175.09 170.13 176.33 170.49 177.50 Z M 170.74 178.22 L 170.94 179.15 C 171.19 180.34 172.36 181.09 173.55 180.84 C 174.74 180.58 175.49 179.42 175.24 178.23 L 175.04 177.30 C 174.79 176.11 173.62 175.35 172.43 175.61 C 171.24 175.86 170.48 177.03 170.74 178.22 Z M 170.92 178.95 L 171.04 179.93 C 171.18 181.13 172.27 181.98 173.46 181.84 C 174.66 181.69 175.51 180.61 175.37 179.41 L 175.25 178.43 C 175.11 177.24 174.03 176.38 172.83 176.52 C 171.64 176.67 170.78 177.75 170.92 178.95 Z M 171.06 179.80 L 171.11 180.80 C 171.18 181.99 172.20 182.89 173.39 182.82 C 174.58 182.76 175.48 181.74 175.41 180.55 L 175.36 179.55 C 175.29 178.36 174.27 177.45 173.08 177.52 C 171.89 177.59 170.99 178.61 171.06 179.80 Z M 171.13 180.74 L 171.16 181.57 C 171.20 182.75 172.18 183.67 173.36 183.63 C 174.54 183.59 175.46 182.61 175.42 181.43 L 175.39 180.61 C 175.36 179.43 174.37 178.51 173.20 178.54 C 172.02 178.58 171.10 179.57 171.13 180.74 Z"
      fill="black"
      fill-rule="nonzero" /><path d="M 164.68 137.38 L 163.75 137.77 C 162.88 138.13 162.47 139.13 162.83 140.00 C 163.19 140.87 164.19 141.28 165.06 140.92 L 165.99 140.53 C 166.86 140.17 167.27 139.18 166.91 138.31 C 166.55 137.44 165.55 137.02 164.68 137.38 Z M 163.24 138.00 L 162.51 138.64 C 161.77 139.28 161.69 140.41 162.34 141.15 C 162.98 141.89 164.11 141.96 164.85 141.32 L 165.57 140.68 C 166.31 140.04 166.39 138.92 165.74 138.18 C 165.10 137.44 163.98 137.36 163.24 138.00 Z M 161.97 139.34 L 161.66 140.18 C 161.30 141.12 161.78 142.17 162.73 142.52 C 163.67 142.88 164.72 142.40 165.07 141.45 L 165.39 140.62 C 165.74 139.67 165.26 138.62 164.32 138.27 C 163.37 137.92 162.32 138.39 161.97 139.34 Z M 161.54 140.62 L 161.43 141.64 C 161.33 142.64 162.06 143.55 163.07 143.65 C 164.08 143.76 164.98 143.03 165.09 142.02 L 165.19 141.01 C 165.30 140.00 164.56 139.09 163.56 138.99 C 162.55 138.88 161.64 139.62 161.54 140.62 Z M 161.42 141.80 L 161.40 142.88 C 161.39 143.90 162.20 144.74 163.22 144.75 C 164.24 144.76 165.08 143.95 165.09 142.93 L 165.10 141.85 C 165.12 140.83 164.30 140.00 163.28 139.98 C 162.27 139.97 161.43 140.78 161.42 141.80 Z M 161.40 142.91 L 161.40 143.95 C 161.40 144.97 162.23 145.80 163.25 145.79 C 164.27 145.79 165.10 144.96 165.10 143.94 L 165.09 142.90 C 165.09 141.88 164.26 141.06 163.24 141.06 C 162.22 141.06 161.39 141.89 161.40 142.91 Z M 161.40 143.97 L 161.42 144.96 C 161.43 145.99 162.27 146.80 163.29 146.78 C 164.31 146.77 165.13 145.93 165.11 144.91 L 165.10 143.92 C 165.08 142.89 164.24 142.08 163.22 142.10 C 162.20 142.11 161.38 142.95 161.40 143.97 Z M 161.42 145.02 L 161.46 146.00 C 161.51 147.02 162.37 147.81 163.39 147.76 C 164.41 147.71 165.20 146.85 165.15 145.83 L 165.11 144.85 C 165.06 143.83 164.20 143.04 163.18 143.09 C 162.16 143.13 161.37 144.00 161.42 145.02 Z M 161.47 146.09 L 161.56 147.11 C 161.66 148.12 162.56 148.87 163.58 148.77 C 164.60 148.67 165.34 147.77 165.24 146.76 L 165.15 145.74 C 165.05 144.72 164.15 143.98 163.13 144.07 C 162.12 144.17 161.37 145.07 161.47 146.09 Z M 161.59 147.25 L 161.76 148.22 C 161.93 149.22 162.89 149.89 163.89 149.71 C 164.90 149.54 165.57 148.58 165.39 147.58 L 165.22 146.61 C 165.04 145.61 164.09 144.94 163.08 145.11 C 162.08 145.29 161.41 146.25 161.59 147.25 Z M 161.81 148.43 L 162.11 149.39 C 162.40 150.37 163.42 150.92 164.40 150.62 C 165.37 150.33 165.92 149.30 165.63 148.33 L 165.33 147.36 C 165.04 146.39 164.02 145.84 163.04 146.14 C 162.07 146.43 161.52 147.45 161.81 148.43 Z M 162.23 149.67 L 162.66 150.56 C 163.11 151.46 164.20 151.84 165.11 151.39 C 166.01 150.95 166.39 149.85 165.94 148.95 L 165.51 148.06 C 165.06 147.15 163.97 146.78 163.06 147.22 C 162.15 147.67 161.78 148.76 162.23 149.67 Z M 162.88 150.87 L 163.48 151.64 C 164.10 152.43 165.24 152.57 166.03 151.95 C 166.81 151.33 166.95 150.20 166.34 149.41 L 165.73 148.63 C 165.11 147.85 163.97 147.71 163.19 148.33 C 162.40 148.94 162.26 150.08 162.88 150.87 Z M 163.81 151.94 L 164.60 152.55 C 165.38 153.16 166.50 153.02 167.11 152.24 C 167.72 151.46 167.58 150.33 166.80 149.72 L 166.01 149.11 C 165.23 148.51 164.10 148.65 163.50 149.43 C 162.89 150.21 163.03 151.33 163.81 151.94 Z M 165.03 152.77 L 165.94 153.14 C 166.85 153.51 167.88 153.08 168.25 152.17 C 168.61 151.27 168.18 150.24 167.27 149.87 L 166.36 149.50 C 165.45 149.13 164.42 149.57 164.06 150.47 C 163.69 151.38 164.13 152.41 165.03 152.77 Z M 166.49 153.25 L 167.45 153.31 C 168.41 153.38 169.25 152.66 169.31 151.69 C 169.38 150.73 168.65 149.90 167.69 149.83 L 166.73 149.77 C 165.77 149.70 164.93 150.43 164.87 151.39 C 164.80 152.35 165.53 153.18 166.49 153.25 Z M 168.11 153.21 L 169.08 152.89 C 169.99 152.60 170.48 151.63 170.19 150.72 C 169.89 149.82 168.92 149.32 168.02 149.62 L 167.04 149.94 C 166.14 150.23 165.64 151.20 165.94 152.11 C 166.23 153.01 167.20 153.51 168.11 153.21 Z M 169.60 152.61 L 170.35 152.02 C 171.10 151.44 171.23 150.36 170.65 149.62 C 170.07 148.87 168.99 148.74 168.24 149.32 L 167.49 149.90 C 166.75 150.49 166.61 151.56 167.20 152.31 C 167.78 153.06 168.86 153.19 169.60 152.61 Z M 170.60 151.80 L 171.27 151.03 C 171.89 150.31 171.82 149.22 171.10 148.60 C 170.38 147.97 169.29 148.05 168.67 148.77 L 168.00 149.54 C 167.37 150.26 167.45 151.35 168.17 151.97 C 168.89 152.60 169.97 152.52 170.60 151.80 Z M 171.40 150.88 L 171.98 150.02 C 172.52 149.24 172.32 148.16 171.53 147.62 C 170.75 147.08 169.67 147.28 169.13 148.07 L 168.54 148.92 C 168.00 149.71 168.20 150.78 168.99 151.33 C 169.78 151.87 170.86 151.66 171.40 150.88 Z M 172.07 149.91 L 172.59 149.00 C 173.06 148.16 172.77 147.10 171.93 146.62 C 171.10 146.14 170.03 146.44 169.56 147.27 L 169.04 148.18 C 168.56 149.02 168.86 150.08 169.69 150.56 C 170.53 151.04 171.59 150.74 172.07 149.91 Z M 172.66 148.89 L 173.08 148.01 C 173.49 147.14 173.12 146.09 172.24 145.67 C 171.36 145.26 170.31 145.63 169.90 146.51 L 169.48 147.38 C 169.07 148.26 169.44 149.31 170.32 149.73 C 171.20 150.14 172.25 149.77 172.66 148.89 Z M 173.13 147.93 L 173.48 147.08 C 173.85 146.17 173.41 145.13 172.50 144.76 C 171.59 144.40 170.55 144.83 170.19 145.74 L 169.84 146.59 C 169.47 147.50 169.91 148.54 170.82 148.91 C 171.73 149.28 172.76 148.84 173.13 147.93 Z M 173.54 146.97 L 173.84 146.07 C 174.15 145.13 173.64 144.11 172.70 143.80 C 171.75 143.49 170.74 144.00 170.43 144.94 L 170.13 145.85 C 169.81 146.79 170.32 147.80 171.27 148.12 C 172.21 148.43 173.22 147.92 173.54 146.97 Z M 173.90 145.93 L 174.16 144.86 C 174.39 143.89 173.79 142.90 172.82 142.67 C 171.84 142.43 170.86 143.03 170.62 144.01 L 170.36 145.08 C 170.13 146.06 170.73 147.04 171.70 147.27 C 172.68 147.51 173.66 146.91 173.90 145.93 Z M 174.20 144.75 L 174.36 143.85 C 174.53 142.85 173.86 141.89 172.86 141.72 C 171.86 141.54 170.91 142.21 170.73 143.22 L 170.58 144.12 C 170.40 145.12 171.07 146.07 172.07 146.25 C 173.07 146.42 174.03 145.75 174.20 144.75 Z M 174.39 143.78 L 174.53 142.78 C 174.66 141.76 173.94 140.82 172.92 140.69 C 171.90 140.55 170.97 141.27 170.83 142.29 L 170.70 143.29 C 170.56 144.31 171.28 145.24 172.30 145.38 C 173.32 145.51 174.26 144.80 174.39 143.78 Z M 174.56 142.71 L 174.65 141.67 C 174.75 140.63 173.99 139.71 172.95 139.62 C 171.92 139.52 171.00 140.28 170.90 141.32 L 170.80 142.36 C 170.70 143.40 171.46 144.32 172.50 144.41 C 173.54 144.51 174.46 143.75 174.56 142.71 Z M 174.68 141.60 L 174.74 140.54 C 174.80 139.49 174.00 138.59 172.95 138.53 C 171.89 138.47 170.99 139.27 170.93 140.33 L 170.87 141.39 C 170.81 142.44 171.62 143.34 172.67 143.40 C 173.72 143.46 174.62 142.65 174.68 141.60 Z M 174.76 140.45 L 174.77 139.40 C 174.78 138.33 173.93 137.46 172.87 137.45 C 171.81 137.44 170.93 138.29 170.92 139.36 L 170.91 140.41 C 170.90 141.48 171.75 142.35 172.82 142.36 C 173.88 142.37 174.75 141.52 174.76 140.45 Z M 174.78 139.28 L 174.73 138.28 C 174.68 137.21 173.76 136.39 172.70 136.44 C 171.63 136.50 170.80 137.41 170.86 138.48 L 170.91 139.48 C 170.97 140.55 171.88 141.37 172.95 141.31 C 174.02 141.26 174.84 140.35 174.78 139.28 Z M 174.73 138.11 L 174.60 137.20 C 174.46 136.13 173.47 135.38 172.40 135.53 C 171.33 135.68 170.59 136.66 170.74 137.73 L 170.86 138.65 C 171.01 139.72 171.99 140.46 173.06 140.31 C 174.13 140.17 174.88 139.18 174.73 138.11 Z M 174.57 136.95 L 174.29 135.94 C 174.01 134.89 172.93 134.27 171.88 134.56 C 170.83 134.84 170.21 135.92 170.50 136.97 L 170.77 137.98 C 171.06 139.03 172.14 139.64 173.19 139.36 C 174.23 139.08 174.85 137.99 174.57 136.95 Z M 174.20 135.64 L 173.80 134.75 C 173.35 133.75 172.18 133.30 171.18 133.75 C 170.18 134.20 169.74 135.37 170.19 136.37 L 170.59 137.27 C 171.04 138.26 172.21 138.71 173.21 138.26 C 174.20 137.81 174.65 136.64 174.20 135.64 Z M 173.66 134.48 L 173.15 133.68 C 172.55 132.75 171.32 132.49 170.40 133.08 C 169.48 133.67 169.21 134.90 169.80 135.83 L 170.32 136.63 C 170.91 137.56 172.14 137.82 173.07 137.23 C 173.99 136.64 174.26 135.40 173.66 134.48 Z M 172.97 133.43 L 172.31 132.68 C 171.58 131.85 170.32 131.77 169.49 132.50 C 168.66 133.23 168.58 134.50 169.31 135.32 L 169.98 136.07 C 170.71 136.90 171.97 136.98 172.80 136.25 C 173.63 135.52 173.70 134.26 172.97 133.43 Z M 172.00 132.38 L 171.20 131.80 C 170.31 131.14 169.05 131.34 168.39 132.23 C 167.74 133.13 167.93 134.38 168.83 135.04 L 169.63 135.62 C 170.52 136.28 171.78 136.08 172.44 135.19 C 173.09 134.29 172.90 133.04 172.00 132.38 Z M 170.72 131.53 L 169.81 131.19 C 168.77 130.80 167.61 131.32 167.22 132.36 C 166.83 133.41 167.35 134.57 168.39 134.96 L 169.30 135.30 C 170.35 135.70 171.51 135.17 171.90 134.13 C 172.29 133.09 171.77 131.92 170.72 131.53 Z M 169.27 131.06 L 168.28 130.98 C 167.17 130.89 166.20 131.72 166.11 132.83 C 166.02 133.94 166.84 134.92 167.96 135.01 L 168.94 135.09 C 170.05 135.18 171.02 134.35 171.11 133.24 C 171.21 132.13 170.38 131.15 169.27 131.06 Z M 167.69 131.02 L 166.69 131.24 C 165.60 131.48 164.91 132.56 165.15 133.65 C 165.39 134.74 166.46 135.42 167.55 135.19 L 168.55 134.97 C 169.64 134.73 170.33 133.65 170.09 132.56 C 169.85 131.47 168.77 130.78 167.69 131.02 Z M 166.15 131.47 L 165.33 131.92 C 164.37 132.46 164.02 133.67 164.55 134.64 C 165.09 135.60 166.30 135.95 167.27 135.41 L 168.09 134.96 C 169.05 134.43 169.40 133.21 168.86 132.25 C 168.33 131.28 167.12 130.94 166.15 131.47 Z M 165.06 132.16 L 164.29 132.79 C 163.46 133.48 163.34 134.70 164.02 135.54 C 164.71 136.37 165.93 136.49 166.77 135.81 L 167.54 135.17 C 168.37 134.49 168.49 133.26 167.80 132.43 C 167.12 131.60 165.89 131.48 165.06 132.16 Z M 164.20 132.94 L 163.45 133.68 C 162.71 134.41 162.69 135.61 163.43 136.36 C 164.16 137.11 165.37 137.12 166.11 136.39 L 166.86 135.65 C 167.61 134.92 167.62 133.72 166.89 132.97 C 166.15 132.22 164.95 132.21 164.20 132.94 Z M 163.45 133.73 L 163.23 133.95 C 162.51 134.69 162.53 135.87 163.26 136.59 C 164.00 137.31 165.19 137.30 165.90 136.56 L 166.12 136.34 C 166.84 135.60 166.82 134.42 166.09 133.70 C 165.35 132.98 164.17 132.99 163.45 133.73 Z"
      fill="black"
      fill-rule="nonzero" /></svg>