<svg xmlns="http://www.w3.org/2000/svg" width="300" height="300" viewBox="0 0 300 300">
<path d="M 126.62 134.79 L 127.27 135.51 C 127.95 136.27 129.11 136.34 129.87 135.66 C 130.63 134.98 130.70 133.81 130.02 133.05 L 129.37 132.33 C 128.69 131.57 127.53 131.50 126.77 132.18 C 126.01 132.86 125.94 134.03 126.62 134.79 Z M 127.23 135.52 L 127.88 136.26 C 128.56 137.04 129.75 137.12 130.53 136.43 C 131.31 135.75 131.39 134.56 130.71 133.78 L 130.06 133.04 C 129.37 132.26 128.18 132.18 127.40 132.87 C 126.62 133.55 126.55 134.74 127.23 135.52 Z M 127.83 136.26 L 128.48 137.03 C 129.17 137.83 130.37 137.94 131.18 137.25 C 131.99 136.57 132.09 135.36 131.41 134.55 L 130.75 133.78 C 130.07 132.98 128.86 132.88 128.06 133.56 C 127.25 134.24 127.15 135.45 127.83 136.26 Z M 128.43 137.01 L 129.07 137.81 C 129.75 138.64 130.97 138.78 131.81 138.10 C 132.64 137.43 132.77 136.20 132.10 135.37 L 131.46 134.57 C 130.79 133.73 129.56 133.60 128.72 134.28 C 127.89 134.95 127.76 136.17 128.43 137.01 Z M 129.03 137.78 L 129.61 138.54 C 130.27 139.40 131.50 139.56 132.36 138.90 C 133.22 138.25 133.38 137.02 132.72 136.16 L 132.14 135.40 C 131.49 134.54 130.26 134.38 129.40 135.03 C 128.54 135.69 128.37 136.92 129.03 137.78 Z M 129.59 138.50 L 130.17 139.30 C 130.81 140.17 132.03 140.36 132.91 139.73 C 133.78 139.09 133.97 137.86 133.33 136.99 L 132.75 136.19 C 132.11 135.32 130.88 135.13 130.01 135.77 C 129.14 136.41 128.95 137.63 129.59 138.50 Z M 130.15 139.27 L 130.74 140.11 C 131.36 140.99 132.58 141.20 133.47 140.58 C 134.35 139.95 134.56 138.73 133.94 137.85 L 133.35 137.02 C 132.73 136.14 131.51 135.93 130.62 136.55 C 129.74 137.17 129.53 138.39 130.15 139.27 Z M 130.73 140.08 L 131.31 140.94 C 131.92 141.83 133.14 142.06 134.03 141.45 C 134.92 140.84 135.15 139.62 134.54 138.73 L 133.95 137.87 C 133.34 136.98 132.12 136.76 131.23 137.37 C 130.34 137.98 130.12 139.19 130.73 140.08 Z M 131.31 140.92 L 131.89 141.79 C 132.49 142.69 133.70 142.93 134.59 142.33 C 135.49 141.73 135.73 140.52 135.13 139.63 L 134.54 138.75 C 133.95 137.86 132.74 137.62 131.84 138.22 C 130.95 138.82 130.71 140.02 131.31 140.92 Z M 131.90 141.77 L 132.47 142.64 C 133.06 143.54 134.26 143.78 135.15 143.20 C 136.04 142.61 136.29 141.41 135.70 140.52 L 135.12 139.65 C 134.54 138.76 133.34 138.51 132.45 139.09 C 131.56 139.68 131.31 140.88 131.90 141.77 Z M 132.48 142.63 L 133.03 143.48 C 133.61 144.37 134.80 144.62 135.69 144.04 C 136.57 143.46 136.82 142.27 136.24 141.38 L 135.69 140.53 C 135.11 139.65 133.92 139.40 133.04 139.98 C 132.15 140.55 131.90 141.74 132.48 142.63 Z M 133.04 143.47 L 133.56 144.27 C 134.14 145.15 135.32 145.40 136.20 144.83 C 137.08 144.25 137.33 143.07 136.75 142.19 L 136.23 141.39 C 135.66 140.51 134.48 140.26 133.60 140.84 C 132.72 141.41 132.47 142.59 133.04 143.47 Z M 133.59 144.26 L 134.15 145.12 C 134.72 145.99 135.88 146.23 136.75 145.66 C 137.62 145.09 137.86 143.92 137.29 143.06 L 136.73 142.20 C 136.16 141.33 135.00 141.09 134.13 141.66 C 133.26 142.23 133.02 143.39 133.59 144.26 Z M 134.19 145.11 L 134.78 145.99 C 135.34 146.83 136.49 147.05 137.33 146.49 C 138.17 145.92 138.40 144.78 137.83 143.94 L 137.25 143.06 C 136.68 142.22 135.54 142.00 134.70 142.56 C 133.85 143.13 133.63 144.27 134.19 145.11 Z M 134.84 145.98 L 135.37 146.75 C 135.93 147.57 137.05 147.77 137.86 147.21 C 138.67 146.65 138.87 145.53 138.31 144.72 L 137.78 143.95 C 137.22 143.13 136.10 142.93 135.29 143.49 C 134.48 144.05 134.28 145.17 134.84 145.98 Z M 135.43 146.75 L 135.98 147.51 C 136.54 148.29 137.62 148.46 138.40 147.90 C 139.18 147.34 139.36 146.26 138.80 145.48 L 138.25 144.72 C 137.69 143.94 136.61 143.77 135.83 144.33 C 135.05 144.89 134.87 145.97 135.43 146.75 Z M 136.04 147.50 L 136.64 148.31 C 137.20 149.06 138.25 149.21 139.00 148.65 C 139.75 148.09 139.90 147.04 139.34 146.29 L 138.74 145.48 C 138.18 144.74 137.12 144.59 136.38 145.14 C 135.63 145.70 135.48 146.76 136.04 147.50 Z M 136.69 148.30 L 137.29 149.08 C 137.84 149.80 138.87 149.94 139.59 149.39 C 140.31 148.84 140.44 147.81 139.89 147.09 L 139.29 146.30 C 138.74 145.59 137.71 145.45 136.99 146.00 C 136.28 146.55 136.14 147.58 136.69 148.30 Z M 137.32 149.07 L 137.52 149.33 C 138.06 150.03 139.07 150.16 139.77 149.62 C 140.47 149.08 140.60 148.07 140.06 147.37 L 139.86 147.11 C 139.32 146.40 138.31 146.27 137.61 146.82 C 136.91 147.36 136.78 148.37 137.32 149.07 Z"
      fill="black"
      fill-rule="nonzero" /><path d="M 142.81 128.22 L 143.36 129.01 C 143.97 129.88 145.16 130.10 146.03 129.50 C 146.90 128.89 147.12 127.70 146.51 126.83 L 145.96 126.03 C 145.36 125.17 144.17 124.95 143.30 125.55 C 142.43 126.15 142.21 127.35 142.81 128.22 Z M 143.29 128.96 L 143.83 129.82 C 144.40 130.73 145.61 131.00 146.52 130.42 C 147.43 129.85 147.70 128.64 147.13 127.73 L 146.59 126.88 C 146.01 125.97 144.81 125.70 143.90 126.27 C 142.99 126.85 142.71 128.05 143.29 128.96 Z M 143.74 129.71 L 144.19 130.53 C 144.71 131.49 145.90 131.85 146.86 131.33 C 147.82 130.82 148.17 129.62 147.66 128.66 L 147.21 127.84 C 146.69 126.88 145.50 126.52 144.54 127.04 C 143.58 127.56 143.23 128.75 143.74 129.71 Z M 144.14 130.43 L 144.53 131.28 C 144.99 132.26 146.17 132.69 147.15 132.23 C 148.14 131.77 148.56 130.59 148.10 129.61 L 147.71 128.76 C 147.25 127.78 146.07 127.35 145.09 127.81 C 144.10 128.27 143.68 129.45 144.14 130.43 Z M 144.52 131.21 L 144.93 132.19 C 145.36 133.19 146.51 133.65 147.50 133.23 C 148.50 132.80 148.96 131.65 148.54 130.66 L 148.12 129.68 C 147.70 128.68 146.55 128.22 145.55 128.64 C 144.55 129.06 144.09 130.22 144.52 131.21 Z M 144.93 132.16 L 145.33 133.14 C 145.73 134.13 146.87 134.61 147.87 134.21 C 148.86 133.81 149.34 132.67 148.94 131.67 L 148.54 130.69 C 148.14 129.70 147.00 129.21 146.00 129.62 C 145.01 130.02 144.53 131.16 144.93 132.16 Z M 145.34 133.12 L 145.71 134.05 C 146.11 135.04 147.23 135.52 148.22 135.13 C 149.21 134.73 149.69 133.61 149.30 132.62 L 148.93 131.69 C 148.53 130.70 147.41 130.22 146.42 130.61 C 145.43 131.01 144.94 132.13 145.34 133.12 Z M 145.73 134.05 L 146.11 135.00 C 146.51 135.98 147.62 136.46 148.60 136.07 C 149.58 135.68 150.06 134.56 149.66 133.58 L 149.28 132.62 C 148.89 131.64 147.77 131.17 146.79 131.56 C 145.81 131.95 145.34 133.07 145.73 134.05 Z M 146.14 135.01 L 146.52 135.95 C 146.92 136.92 148.02 137.38 148.99 136.99 C 149.96 136.59 150.42 135.48 150.03 134.52 L 149.64 133.58 C 149.25 132.61 148.14 132.15 147.17 132.54 C 146.20 132.94 145.74 134.04 146.14 135.01 Z M 146.56 135.96 L 146.96 136.92 C 147.37 137.86 148.46 138.31 149.41 137.90 C 150.36 137.50 150.80 136.40 150.39 135.45 L 149.99 134.50 C 149.58 133.55 148.49 133.11 147.54 133.52 C 146.59 133.92 146.15 135.02 146.56 135.96 Z M 147.03 136.94 L 147.46 137.89 C 147.88 138.81 148.96 139.21 149.87 138.79 C 150.78 138.37 151.18 137.30 150.76 136.39 L 150.33 135.43 C 149.91 134.52 148.84 134.12 147.92 134.53 C 147.01 134.95 146.61 136.03 147.03 136.94 Z M 147.55 137.92 L 147.98 138.79 C 148.41 139.65 149.46 140.00 150.33 139.57 C 151.19 139.14 151.54 138.08 151.11 137.22 L 150.68 136.36 C 150.25 135.49 149.20 135.14 148.33 135.57 C 147.47 136.01 147.12 137.06 147.55 137.92 Z M 148.07 138.82 L 148.52 139.63 C 148.97 140.45 149.99 140.75 150.81 140.30 C 151.63 139.85 151.92 138.82 151.47 138.00 L 151.02 137.19 C 150.57 136.37 149.55 136.07 148.73 136.52 C 147.91 136.97 147.62 138.00 148.07 138.82 Z M 148.59 139.67 L 149.11 140.52 C 149.57 141.30 150.58 141.55 151.36 141.08 C 152.14 140.61 152.39 139.60 151.92 138.82 L 151.40 137.97 C 150.93 137.19 149.92 136.94 149.15 137.41 C 148.37 137.88 148.12 138.89 148.59 139.67 Z M 149.16 140.54 L 149.70 141.39 C 150.18 142.13 151.18 142.35 151.92 141.87 C 152.67 141.39 152.89 140.39 152.41 139.64 L 151.87 138.80 C 151.38 138.05 150.39 137.84 149.64 138.32 C 148.89 138.80 148.67 139.80 149.16 140.54 Z M 149.73 141.39 L 150.27 142.20 C 150.76 142.93 151.74 143.12 152.47 142.64 C 153.19 142.16 153.39 141.18 152.91 140.45 L 152.37 139.64 C 151.89 138.91 150.91 138.71 150.18 139.20 C 149.45 139.68 149.25 140.66 149.73 141.39 Z"
      fill="black"
      fill-rule="nonzero" /><path d="M 160.52 133.91 L 160.56 134.84 C 160.59 135.82 161.42 136.59 162.40 136.55 C 163.39 136.51 164.15 135.68 164.11 134.70 L 164.08 133.77 C 164.04 132.79 163.21 132.02 162.23 132.06 C 161.25 132.10 160.48 132.93 160.52 133.91 Z M 160.32 134.83 L 160.35 135.85 C 160.38 136.96 161.31 137.83 162.42 137.80 C 163.53 137.77 164.41 136.84 164.38 135.73 L 164.35 134.71 C 164.31 133.60 163.39 132.73 162.28 132.76 C 161.16 132.79 160.29 133.72 160.32 134.83 Z M 160.18 135.82 L 160.20 136.85 C 160.22 138.05 161.21 139.01 162.41 139.00 C 163.62 138.98 164.58 137.99 164.56 136.78 L 164.54 135.76 C 164.53 134.55 163.54 133.59 162.33 133.61 C 161.13 133.63 160.17 134.62 160.18 135.82 Z M 160.14 136.81 L 160.14 137.83 C 160.14 139.07 161.14 140.07 162.38 140.07 C 163.61 140.07 164.62 139.07 164.62 137.84 L 164.62 136.82 C 164.62 135.58 163.62 134.58 162.38 134.58 C 161.14 134.58 160.14 135.58 160.14 136.81 Z M 160.12 137.79 L 160.10 138.80 C 160.08 140.05 161.07 141.08 162.31 141.11 C 163.56 141.13 164.59 140.14 164.61 138.90 L 164.63 137.88 C 164.66 136.64 163.67 135.61 162.42 135.58 C 161.18 135.55 160.15 136.54 160.12 137.79 Z M 160.09 138.73 L 160.04 139.76 C 159.97 141.01 160.93 142.08 162.18 142.14 C 163.43 142.21 164.50 141.25 164.57 140.00 L 164.62 138.97 C 164.69 137.72 163.73 136.65 162.48 136.59 C 161.23 136.52 160.16 137.48 160.09 138.73 Z M 160.04 139.63 L 159.93 140.62 C 159.80 141.86 160.70 142.99 161.95 143.12 C 163.20 143.26 164.32 142.36 164.46 141.11 L 164.56 140.12 C 164.70 138.87 163.80 137.75 162.55 137.62 C 161.30 137.48 160.18 138.38 160.04 139.63 Z M 159.95 140.46 L 159.78 141.41 C 159.56 142.65 160.39 143.84 161.63 144.06 C 162.87 144.28 164.05 143.45 164.27 142.21 L 164.44 141.26 C 164.66 140.02 163.84 138.84 162.60 138.62 C 161.36 138.39 160.17 139.22 159.95 140.46 Z M 159.81 141.28 L 159.58 142.21 C 159.29 143.43 160.04 144.67 161.27 144.96 C 162.50 145.26 163.73 144.50 164.02 143.27 L 164.25 142.35 C 164.54 141.12 163.79 139.89 162.56 139.59 C 161.33 139.30 160.10 140.05 159.81 141.28 Z M 159.60 142.12 L 159.33 143.10 C 158.99 144.31 159.70 145.57 160.91 145.92 C 162.13 146.26 163.39 145.55 163.73 144.33 L 164.00 143.36 C 164.35 142.14 163.64 140.88 162.42 140.54 C 161.21 140.20 159.94 140.91 159.60 142.12 Z M 159.34 143.05 L 159.04 144.03 C 158.67 145.24 159.36 146.52 160.57 146.88 C 161.77 147.25 163.05 146.57 163.42 145.36 L 163.72 144.38 C 164.09 143.17 163.40 141.89 162.20 141.53 C 160.99 141.16 159.71 141.84 159.34 143.05 Z M 159.05 144.00 L 158.75 144.94 C 158.37 146.14 159.04 147.43 160.24 147.81 C 161.45 148.20 162.74 147.53 163.12 146.32 L 163.42 145.39 C 163.80 144.18 163.13 142.89 161.92 142.51 C 160.72 142.13 159.43 142.80 159.05 144.00 Z M 158.76 144.91 L 158.44 145.87 C 158.04 147.07 158.70 148.37 159.90 148.76 C 161.10 149.16 162.40 148.51 162.79 147.31 L 163.11 146.35 C 163.51 145.15 162.86 143.85 161.65 143.45 C 160.45 143.06 159.16 143.71 158.76 144.91 Z M 158.45 145.84 L 158.12 146.80 C 157.70 148.00 158.34 149.30 159.54 149.72 C 160.73 150.13 162.04 149.50 162.45 148.30 L 162.79 147.34 C 163.20 146.14 162.57 144.84 161.37 144.42 C 160.17 144.01 158.87 144.64 158.45 145.84 Z M 158.13 146.76 L 157.79 147.69 C 157.36 148.88 157.97 150.20 159.16 150.63 C 160.35 151.07 161.67 150.45 162.10 149.26 L 162.44 148.33 C 162.88 147.14 162.26 145.83 161.07 145.39 C 159.88 144.96 158.56 145.57 158.13 146.76 Z M 157.81 147.65 L 157.45 148.59 C 156.99 149.77 157.58 151.10 158.76 151.55 C 159.95 152.01 161.27 151.42 161.73 150.24 L 162.09 149.30 C 162.54 148.12 161.95 146.79 160.77 146.34 C 159.59 145.88 158.26 146.47 157.81 147.65 Z M 157.46 148.55 L 157.08 149.48 C 156.60 150.66 157.16 152.00 158.34 152.47 C 159.51 152.95 160.85 152.39 161.33 151.22 L 161.71 150.28 C 162.19 149.11 161.63 147.77 160.46 147.29 C 159.28 146.81 157.94 147.37 157.46 148.55 Z M 157.10 149.44 L 156.71 150.33 C 156.21 151.50 156.74 152.85 157.90 153.35 C 159.06 153.86 160.41 153.32 160.92 152.16 L 161.31 151.26 C 161.81 150.10 161.28 148.75 160.12 148.25 C 158.96 147.74 157.60 148.28 157.10 149.44 Z M 156.73 150.29 L 156.32 151.20 C 155.79 152.35 156.30 153.71 157.45 154.24 C 158.60 154.76 159.96 154.26 160.49 153.10 L 160.90 152.20 C 161.43 151.05 160.92 149.69 159.77 149.16 C 158.62 148.63 157.26 149.14 156.73 150.29 Z M 156.33 151.16 L 155.89 152.08 C 155.35 153.23 155.84 154.60 156.98 155.14 C 158.12 155.68 159.49 155.20 160.04 154.05 L 160.47 153.14 C 161.02 151.99 160.53 150.62 159.39 150.08 C 158.24 149.53 156.88 150.02 156.33 151.16 Z M 155.91 152.06 L 155.46 152.96 C 154.90 154.10 155.37 155.47 156.51 156.03 C 157.65 156.59 159.02 156.12 159.58 154.99 L 160.02 154.08 C 160.58 152.94 160.11 151.57 158.98 151.01 C 157.84 150.45 156.47 150.92 155.91 152.06 Z M 155.47 152.94 L 155.02 153.84 C 154.45 154.97 154.90 156.35 156.03 156.92 C 157.16 157.49 158.54 157.04 159.11 155.91 L 159.57 155.01 C 160.14 153.88 159.69 152.50 158.56 151.93 C 157.43 151.36 156.05 151.81 155.47 152.94 Z M 155.04 153.81 L 154.57 154.70 C 153.98 155.82 154.42 157.21 155.54 157.79 C 156.66 158.38 158.04 157.95 158.63 156.83 L 159.10 155.93 C 159.68 154.81 159.25 153.43 158.13 152.84 C 157.01 152.25 155.62 152.69 155.04 153.81 Z M 154.59 154.67 L 154.11 155.54 C 153.51 156.65 153.92 158.04 155.03 158.65 C 156.14 159.25 157.53 158.84 158.14 157.73 L 158.61 156.86 C 159.22 155.75 158.81 154.36 157.69 153.75 C 156.58 153.15 155.19 153.56 154.59 154.67 Z M 154.14 155.50 L 153.63 156.39 C 153.00 157.49 153.39 158.89 154.48 159.52 C 155.58 160.14 156.98 159.76 157.61 158.66 L 158.11 157.77 C 158.74 156.67 158.36 155.27 157.26 154.65 C 156.16 154.02 154.76 154.40 154.14 155.50 Z M 153.65 156.36 L 153.14 157.21 C 152.50 158.30 152.85 159.70 153.94 160.35 C 155.02 161.00 156.43 160.64 157.07 159.55 L 157.58 158.70 C 158.23 157.61 157.87 156.21 156.79 155.56 C 155.70 154.91 154.30 155.27 153.65 156.36 Z M 153.16 157.18 L 152.65 158.02 C 151.98 159.10 152.32 160.50 153.39 161.17 C 154.47 161.83 155.87 161.50 156.54 160.42 L 157.05 159.58 C 157.72 158.51 157.38 157.10 156.31 156.44 C 155.23 155.78 153.82 156.11 153.16 157.18 Z M 152.66 158.00 L 152.13 158.84 C 151.46 159.90 151.77 161.31 152.84 161.99 C 153.90 162.66 155.32 162.35 155.99 161.28 L 156.52 160.44 C 157.20 159.38 156.88 157.97 155.81 157.29 C 154.75 156.62 153.34 156.93 152.66 158.00 Z M 152.15 158.82 L 151.60 159.66 C 150.92 160.72 151.22 162.13 152.28 162.81 C 153.34 163.50 154.75 163.19 155.43 162.14 L 155.98 161.30 C 156.66 160.24 156.36 158.83 155.30 158.14 C 154.24 157.46 152.83 157.76 152.15 158.82 Z M 151.62 159.64 L 151.07 160.48 C 150.37 161.53 150.66 162.94 151.71 163.63 C 152.76 164.33 154.18 164.04 154.87 162.99 L 155.42 162.15 C 156.11 161.10 155.82 159.69 154.77 159.00 C 153.72 158.30 152.31 158.59 151.62 159.64 Z M 151.08 160.47 L 150.52 161.30 C 149.82 162.34 150.10 163.75 151.14 164.45 C 152.18 165.15 153.60 164.88 154.30 163.83 L 154.86 163.00 C 155.55 161.96 155.28 160.54 154.23 159.84 C 153.19 159.14 151.78 159.42 151.08 160.47 Z M 150.53 161.29 L 149.97 162.12 C 149.26 163.15 149.53 164.57 150.56 165.27 C 151.60 165.98 153.01 165.71 153.72 164.67 L 154.28 163.84 C 154.99 162.81 154.72 161.40 153.69 160.69 C 152.65 159.98 151.24 160.25 150.53 161.29 Z M 149.98 162.11 L 149.41 162.93 C 148.70 163.96 148.95 165.37 149.98 166.08 C 151.01 166.79 152.42 166.54 153.13 165.51 L 153.70 164.69 C 154.42 163.66 154.16 162.25 153.13 161.54 C 152.11 160.82 150.69 161.08 149.98 162.11 Z M 149.43 162.91 L 148.85 163.72 C 148.13 164.74 148.37 166.15 149.39 166.87 C 150.41 167.60 151.82 167.35 152.54 166.34 L 153.12 165.52 C 153.84 164.51 153.60 163.10 152.58 162.37 C 151.56 161.65 150.15 161.89 149.43 162.91 Z M 148.88 163.71 L 148.28 164.53 C 147.55 165.53 147.77 166.94 148.78 167.67 C 149.78 168.40 151.19 168.18 151.92 167.17 L 152.52 166.35 C 153.25 165.35 153.03 163.94 152.02 163.21 C 151.02 162.48 149.61 162.70 148.88 163.71 Z M 148.31 164.50 L 147.71 165.30 C 146.96 166.29 147.16 167.69 148.15 168.44 C 149.14 169.18 150.54 168.99 151.29 168.00 L 151.89 167.20 C 152.64 166.21 152.44 164.81 151.45 164.06 C 150.46 163.31 149.06 163.51 148.31 164.50 Z M 147.75 165.26 L 147.14 166.04 C 146.37 167.00 146.53 168.41 147.50 169.17 C 148.47 169.94 149.87 169.77 150.64 168.81 L 151.25 168.03 C 152.02 167.07 151.85 165.66 150.89 164.90 C 149.92 164.13 148.51 164.30 147.75 165.26 Z M 147.18 165.99 L 146.55 166.75 C 145.76 167.69 145.88 169.10 146.82 169.88 C 147.76 170.67 149.16 170.55 149.95 169.61 L 150.59 168.85 C 151.38 167.91 151.25 166.51 150.31 165.72 C 149.37 164.93 147.97 165.05 147.18 165.99 Z M 146.59 166.72 L 145.93 167.47 C 145.13 168.38 145.22 169.78 146.13 170.59 C 147.05 171.39 148.44 171.30 149.25 170.39 L 149.91 169.64 C 150.71 168.73 150.63 167.33 149.71 166.52 C 148.79 165.72 147.40 165.81 146.59 166.72 Z M 145.97 167.45 L 145.29 168.20 C 144.47 169.09 144.54 170.48 145.44 171.30 C 146.34 172.11 147.73 172.05 148.54 171.15 L 149.22 170.41 C 150.03 169.51 149.97 168.12 149.07 167.30 C 148.17 166.49 146.78 166.55 145.97 167.45 Z M 145.32 168.19 L 144.63 168.94 C 143.81 169.83 143.86 171.20 144.75 172.02 C 145.63 172.84 147.01 172.78 147.82 171.90 L 148.51 171.15 C 149.33 170.27 149.28 168.89 148.39 168.07 C 147.51 167.26 146.13 167.31 145.32 168.19 Z M 144.66 168.95 L 143.96 169.69 C 143.15 170.55 143.19 171.91 144.05 172.72 C 144.92 173.54 146.28 173.50 147.09 172.64 L 147.79 171.90 C 148.60 171.03 148.56 169.67 147.70 168.86 C 146.84 168.04 145.48 168.08 144.66 168.95 Z M 144.01 169.68 L 143.32 170.39 C 142.50 171.23 142.52 172.57 143.36 173.39 C 144.19 174.20 145.53 174.19 146.35 173.35 L 147.04 172.64 C 147.86 171.80 147.84 170.46 147.00 169.65 C 146.17 168.83 144.83 168.85 144.01 169.68 Z M 143.38 170.37 L 142.65 171.08 C 141.83 171.88 141.81 173.20 142.61 174.03 C 143.41 174.86 144.73 174.88 145.56 174.08 L 146.29 173.37 C 147.11 172.57 147.13 171.25 146.33 170.42 C 145.53 169.59 144.21 169.57 143.38 170.37 Z M 142.74 171.05 L 141.98 171.73 C 141.14 172.48 141.07 173.78 141.83 174.62 C 142.58 175.47 143.88 175.54 144.72 174.78 L 145.47 174.10 C 146.32 173.35 146.39 172.05 145.63 171.21 C 144.87 170.37 143.58 170.30 142.74 171.05 Z M 142.07 171.70 L 141.33 172.31 C 140.47 173.01 140.35 174.28 141.05 175.14 C 141.76 176.00 143.03 176.13 143.89 175.42 L 144.63 174.81 C 145.49 174.10 145.61 172.83 144.91 171.97 C 144.20 171.12 142.93 170.99 142.07 171.70 Z M 141.42 172.28 L 140.69 172.83 C 139.82 173.49 139.64 174.73 140.29 175.60 C 140.95 176.47 142.19 176.65 143.06 176.00 L 143.79 175.44 C 144.67 174.79 144.84 173.55 144.19 172.68 C 143.54 171.81 142.30 171.63 141.42 172.28 Z M 140.80 172.81 L 139.99 173.35 C 139.11 173.94 138.87 175.14 139.46 176.03 C 140.06 176.92 141.26 177.15 142.15 176.56 L 142.95 176.02 C 143.84 175.43 144.07 174.22 143.48 173.34 C 142.89 172.45 141.68 172.21 140.80 172.81 Z M 140.10 173.33 L 139.16 173.89 C 138.26 174.43 137.96 175.59 138.50 176.48 C 139.03 177.38 140.19 177.68 141.09 177.14 L 142.04 176.58 C 142.94 176.04 143.23 174.88 142.70 173.99 C 142.16 173.09 141.00 172.79 140.10 173.33 Z M 139.24 173.89 L 138.40 174.34 C 137.49 174.83 137.16 175.95 137.64 176.86 C 138.13 177.76 139.26 178.09 140.16 177.61 L 141.00 177.15 C 141.91 176.66 142.24 175.54 141.75 174.64 C 141.27 173.74 140.14 173.40 139.24 173.89 Z M 138.48 174.34 L 137.56 174.79 C 136.65 175.23 136.27 176.32 136.72 177.22 C 137.16 178.13 138.25 178.50 139.15 178.06 L 140.08 177.61 C 140.98 177.17 141.36 176.08 140.92 175.18 C 140.47 174.27 139.38 173.89 138.48 174.34 Z M 137.66 174.77 L 136.71 175.17 C 135.80 175.55 135.37 176.61 135.76 177.52 C 136.14 178.43 137.19 178.86 138.11 178.47 L 139.05 178.08 C 139.96 177.69 140.39 176.64 140.01 175.73 C 139.62 174.82 138.57 174.39 137.66 174.77 Z M 136.86 175.15 L 135.89 175.47 C 134.97 175.77 134.47 176.76 134.77 177.69 C 135.07 178.61 136.07 179.11 136.99 178.81 L 137.96 178.49 C 138.88 178.19 139.38 177.20 139.08 176.27 C 138.78 175.35 137.78 174.85 136.86 175.15 Z M 136.09 175.46 L 135.07 175.68 C 134.15 175.87 133.55 176.78 133.75 177.70 C 133.94 178.63 134.85 179.22 135.78 179.03 L 136.79 178.82 C 137.72 178.62 138.31 177.71 138.12 176.79 C 137.92 175.86 137.02 175.27 136.09 175.46 Z M 135.24 175.70 L 134.27 175.81 C 133.36 175.92 132.71 176.74 132.81 177.65 C 132.91 178.56 133.74 179.22 134.65 179.11 L 135.61 179.00 C 136.52 178.90 137.18 178.08 137.07 177.16 C 136.97 176.25 136.15 175.60 135.24 175.70 Z M 134.35 175.85 L 133.57 175.91 C 132.68 175.97 132.01 176.74 132.07 177.62 C 132.13 178.51 132.90 179.18 133.79 179.12 L 134.57 179.07 C 135.46 179.01 136.13 178.24 136.07 177.35 C 136.01 176.47 135.24 175.79 134.35 175.85 Z"
      fill="black"
      fill-rule="nonzero" /><path d="M 161.32 125.21 L 162.11 125.87 C 162.89 126.51 164.04 126.41 164.68 125.63 C 165.33 124.86 165.22 123.71 164.45 123.06 L 163.66 122.41 C 162.89 121.76 161.74 121.86 161.09 122.64 C 160.45 123.41 160.55 124.56 161.32 125.21 Z M 162.05 125.85 L 162.80 126.52 C 163.57 127.20 164.74 127.13 165.42 126.36 C 166.10 125.59 166.03 124.42 165.26 123.74 L 164.51 123.07 C 163.74 122.39 162.57 122.47 161.89 123.23 C 161.21 124.00 161.28 125.17 162.05 125.85 Z M 162.70 126.44 L 163.40 127.14 C 164.12 127.88 165.30 127.88 166.04 127.16 C 166.77 126.43 166.78 125.25 166.05 124.52 L 165.36 123.81 C 164.63 123.08 163.45 123.07 162.72 123.80 C 161.98 124.53 161.98 125.71 162.70 126.44 Z M 163.33 126.98 L 163.98 127.77 C 164.62 128.54 165.76 128.65 166.53 128.01 C 167.30 127.38 167.41 126.23 166.77 125.46 L 166.12 124.68 C 165.48 123.91 164.34 123.80 163.57 124.44 C 162.80 125.07 162.69 126.21 163.33 126.98 Z M 164.00 127.62 L 164.58 128.40 C 165.13 129.16 166.19 129.33 166.95 128.78 C 167.71 128.23 167.87 127.16 167.32 126.41 L 166.75 125.62 C 166.20 124.86 165.13 124.69 164.38 125.25 C 163.62 125.80 163.45 126.86 164.00 127.62 Z M 164.62 128.33 L 165.19 129.16 C 165.71 129.89 166.72 130.07 167.45 129.56 C 168.18 129.05 168.36 128.04 167.85 127.30 L 167.28 126.48 C 166.77 125.75 165.76 125.56 165.02 126.08 C 164.29 126.59 164.11 127.60 164.62 128.33 Z M 165.22 129.13 L 165.78 129.95 C 166.28 130.67 167.26 130.85 167.98 130.35 C 168.71 129.86 168.89 128.87 168.39 128.15 L 167.83 127.33 C 167.33 126.61 166.35 126.43 165.62 126.92 C 164.90 127.42 164.72 128.41 165.22 129.13 Z M 165.79 129.93 L 166.03 130.28 C 166.52 130.99 167.49 131.17 168.21 130.68 C 168.92 130.19 169.10 129.22 168.61 128.50 L 168.38 128.16 C 167.89 127.45 166.91 127.26 166.20 127.75 C 165.49 128.24 165.30 129.22 165.79 129.93 Z"
      fill="black"
      fill-rule="nonzero" /><path d="M 170.62 123.05 L 171.32 123.81 C 172.05 124.61 173.29 124.66 174.08 123.93 C 174.88 123.19 174.93 121.96 174.20 121.16 L 173.50 120.40 C 172.76 119.61 171.53 119.56 170.73 120.29 C 169.94 121.02 169.89 122.25 170.62 123.05 Z M 171.30 123.85 L 171.99 124.58 C 172.74 125.39 174.00 125.43 174.81 124.68 C 175.61 123.93 175.66 122.66 174.90 121.86 L 174.22 121.12 C 173.46 120.32 172.20 120.28 171.40 121.03 C 170.59 121.78 170.55 123.05 171.30 123.85 Z M 171.99 124.63 L 172.66 125.33 C 173.44 126.14 174.73 126.16 175.53 125.38 C 176.34 124.60 176.36 123.31 175.58 122.51 L 174.90 121.81 C 174.12 121.00 172.84 120.98 172.03 121.76 C 171.23 122.54 171.21 123.83 171.99 124.63 Z M 172.70 125.37 L 173.42 126.08 C 174.22 126.87 175.51 126.86 176.29 126.06 C 177.08 125.26 177.07 123.98 176.27 123.19 L 175.55 122.48 C 174.75 121.69 173.46 121.70 172.68 122.50 C 171.89 123.29 171.90 124.58 172.70 125.37 Z M 173.45 126.07 L 174.15 126.75 C 174.93 127.52 176.20 127.50 176.97 126.71 C 177.74 125.92 177.73 124.66 176.94 123.89 L 176.25 123.21 C 175.46 122.44 174.19 122.45 173.42 123.24 C 172.65 124.03 172.66 125.30 173.45 126.07 Z M 174.14 126.69 L 174.83 127.39 C 175.59 128.17 176.83 128.18 177.61 127.42 C 178.38 126.67 178.39 125.43 177.64 124.65 L 176.94 123.94 C 176.19 123.17 174.95 123.16 174.17 123.92 C 173.40 124.67 173.39 125.91 174.14 126.69 Z M 174.83 127.31 L 175.51 128.05 C 176.22 128.83 177.43 128.88 178.21 128.17 C 178.98 127.45 179.03 126.25 178.32 125.47 L 177.64 124.73 C 176.93 123.96 175.72 123.90 174.94 124.62 C 174.17 125.33 174.12 126.54 174.83 127.31 Z M 175.51 127.97 L 176.17 128.73 C 176.83 129.50 178.00 129.59 178.77 128.93 C 179.55 128.26 179.64 127.10 178.97 126.32 L 178.32 125.56 C 177.65 124.78 176.49 124.69 175.71 125.36 C 174.94 126.02 174.85 127.19 175.51 127.97 Z M 176.19 128.65 L 176.82 129.43 C 177.44 130.19 178.56 130.30 179.32 129.68 C 180.09 129.06 180.20 127.94 179.58 127.18 L 178.95 126.40 C 178.33 125.64 177.21 125.53 176.45 126.15 C 175.68 126.77 175.57 127.89 176.19 128.65 Z M 176.88 129.37 L 177.50 130.15 C 178.09 130.88 179.17 130.99 179.90 130.40 C 180.63 129.81 180.75 128.74 180.15 128.00 L 179.53 127.23 C 178.94 126.50 177.86 126.38 177.13 126.98 C 176.40 127.57 176.28 128.64 176.88 129.37 Z M 177.56 130.12 L 178.20 130.90 C 178.78 131.60 179.82 131.69 180.52 131.11 C 181.21 130.54 181.31 129.50 180.73 128.80 L 180.09 128.03 C 179.51 127.33 178.48 127.23 177.78 127.81 C 177.08 128.39 176.98 129.42 177.56 130.12 Z M 178.24 130.87 L 178.89 131.64 C 179.45 132.31 180.46 132.40 181.13 131.83 C 181.81 131.26 181.89 130.26 181.33 129.58 L 180.69 128.82 C 180.12 128.15 179.11 128.06 178.44 128.63 C 177.77 129.19 177.68 130.20 178.24 130.87 Z"
      fill="black"
      fill-rule="nonzero" /></svg>