<svg xmlns="http://www.w3.org/2000/svg" width="300" height="300" viewBox="0 0 300 300">
<path d="M 147.69 114.85 L 147.52 115.82 C 147.33 116.88 148.04 117.89 149.10 118.08 C 150.16 118.27 151.17 117.56 151.35 116.50 L 151.53 115.53 C 151.71 114.47 151.00 113.46 149.94 113.27 C 148.88 113.09 147.87 113.79 147.69 114.85 Z M 147.46 115.89 L 147.32 116.87 C 147.17 117.97 147.93 118.98 149.02 119.13 C 150.12 119.28 151.13 118.52 151.28 117.42 L 151.42 116.44 C 151.57 115.34 150.80 114.33 149.71 114.18 C 148.62 114.03 147.61 114.79 147.46 115.89 Z M 147.26 117.00 L 147.19 118.00 C 147.11 119.12 147.96 120.10 149.08 120.18 C 150.21 120.26 151.18 119.41 151.26 118.29 L 151.34 117.29 C 151.42 116.17 150.57 115.19 149.44 115.11 C 148.32 115.03 147.34 115.88 147.26 117.00 Z M 147.16 118.14 L 147.16 119.09 C 147.16 120.23 148.08 121.16 149.22 121.16 C 150.36 121.16 151.29 120.24 151.29 119.10 L 151.29 118.15 C 151.29 117.01 150.37 116.08 149.23 116.08 C 148.09 116.08 147.16 117.00 147.16 118.14 Z M 147.16 119.17 L 147.19 120.18 C 147.23 121.32 148.19 122.21 149.34 122.17 C 150.48 122.13 151.37 121.17 151.33 120.03 L 151.30 119.02 C 151.25 117.88 150.29 116.98 149.15 117.03 C 148.01 117.07 147.12 118.03 147.16 119.17 Z M 147.19 120.19 L 147.23 121.25 C 147.29 122.40 148.26 123.29 149.40 123.24 C 150.55 123.19 151.43 122.22 151.38 121.07 L 151.34 120.01 C 151.29 118.87 150.32 117.98 149.17 118.03 C 148.03 118.08 147.14 119.05 147.19 120.19 Z M 147.23 121.23 L 147.26 122.26 C 147.30 123.41 148.27 124.31 149.42 124.27 C 150.57 124.23 151.47 123.27 151.43 122.12 L 151.39 121.09 C 151.35 119.94 150.39 119.04 149.24 119.08 C 148.09 119.12 147.19 120.09 147.23 121.23 Z M 147.26 122.25 L 147.29 123.27 C 147.32 124.42 148.28 125.33 149.43 125.30 C 150.58 125.27 151.49 124.31 151.46 123.16 L 151.43 122.13 C 151.40 120.98 150.44 120.07 149.29 120.10 C 148.14 120.13 147.23 121.09 147.26 122.25 Z M 147.28 123.26 L 147.30 124.22 C 147.32 125.38 148.28 126.30 149.43 126.28 C 150.59 126.25 151.51 125.30 151.48 124.14 L 151.46 123.18 C 151.44 122.02 150.49 121.10 149.33 121.12 C 148.18 121.15 147.26 122.10 147.28 123.26 Z M 147.29 124.21 L 147.31 125.26 C 147.32 126.42 148.27 127.35 149.43 127.33 C 150.59 127.32 151.52 126.37 151.50 125.21 L 151.49 124.16 C 151.47 123.00 150.52 122.07 149.37 122.09 C 148.21 122.10 147.28 123.05 147.29 124.21 Z M 147.30 125.25 L 147.31 126.22 C 147.31 127.38 148.26 128.32 149.42 128.31 C 150.58 128.31 151.52 127.36 151.51 126.20 L 151.51 125.23 C 151.50 124.06 150.56 123.13 149.39 123.13 C 148.23 123.14 147.30 124.09 147.30 125.25 Z M 147.30 126.21 L 147.31 127.15 C 147.31 128.32 148.25 129.26 149.41 129.26 C 150.57 129.26 151.52 128.31 151.51 127.15 L 151.51 126.21 C 151.51 125.05 150.57 124.11 149.41 124.11 C 148.25 124.11 147.30 125.05 147.30 126.21 Z M 147.30 127.15 L 147.30 128.14 C 147.30 129.30 148.25 130.24 149.41 130.24 C 150.57 130.24 151.52 129.30 151.52 128.14 L 151.52 127.15 C 151.52 125.99 150.57 125.04 149.41 125.04 C 148.25 125.04 147.30 125.99 147.30 127.15 Z M 147.30 128.14 L 147.30 129.15 C 147.30 130.32 148.24 131.26 149.41 131.26 C 150.58 131.26 151.52 130.32 151.52 129.15 L 151.52 128.14 C 151.52 126.97 150.58 126.02 149.41 126.02 C 148.24 126.02 147.30 126.97 147.30 128.14 Z M 147.29 129.15 L 147.29 130.14 C 147.29 131.31 148.24 132.25 149.41 132.25 C 150.58 132.25 151.53 131.31 151.53 130.14 L 151.53 129.15 C 151.53 127.98 150.58 127.03 149.41 127.03 C 148.24 127.03 147.29 127.98 147.29 129.15 Z M 147.29 130.14 L 147.29 131.13 C 147.29 132.30 148.24 133.25 149.41 133.25 C 150.58 133.25 151.53 132.30 151.53 131.13 L 151.53 130.14 C 151.53 128.97 150.58 128.02 149.41 128.02 C 148.24 128.02 147.29 128.97 147.29 130.14 Z M 147.29 131.13 L 147.29 132.16 C 147.29 133.33 148.24 134.28 149.41 134.28 C 150.58 134.28 151.53 133.33 151.53 132.16 L 151.53 131.13 C 151.53 129.95 150.58 129.00 149.41 129.00 C 148.24 129.00 147.29 129.95 147.29 131.13 Z M 147.28 132.16 L 147.28 133.15 C 147.28 134.32 148.24 135.28 149.41 135.28 C 150.59 135.28 151.54 134.32 151.54 133.15 L 151.54 132.16 C 151.54 130.98 150.59 130.03 149.41 130.03 C 148.24 130.03 147.28 130.98 147.28 132.16 Z M 147.28 133.15 L 147.28 134.16 C 147.28 135.34 148.23 136.29 149.41 136.29 C 150.59 136.29 151.54 135.34 151.54 134.16 L 151.54 133.15 C 151.54 131.97 150.59 131.02 149.41 131.02 C 148.23 131.02 147.28 131.97 147.28 133.15 Z M 147.28 134.16 L 147.28 135.16 C 147.28 136.34 148.23 137.29 149.41 137.29 C 150.59 137.29 151.54 136.34 151.54 135.16 L 151.54 134.16 C 151.54 132.98 150.59 132.02 149.41 132.02 C 148.23 132.02 147.28 132.98 147.28 134.16 Z M 147.27 135.16 L 147.27 136.18 C 147.27 137.36 148.23 138.32 149.41 138.32 C 150.59 138.32 151.55 137.36 151.55 136.18 L 151.55 135.16 C 151.55 133.98 150.59 133.02 149.41 133.02 C 148.23 133.02 147.27 133.98 147.27 135.16 Z M 147.27 136.18 L 147.27 137.18 C 147.27 138.36 148.23 139.32 149.41 139.32 C 150.59 139.32 151.55 138.36 151.55 137.18 L 151.55 136.18 C 151.55 135.00 150.59 134.04 149.41 134.04 C 148.23 134.04 147.27 135.00 147.27 136.18 Z M 147.27 137.18 L 147.27 138.16 C 147.27 139.34 148.23 140.30 149.41 140.30 C 150.59 140.30 151.55 139.34 151.55 138.16 L 151.55 137.18 C 151.55 135.99 150.59 135.03 149.41 135.03 C 148.23 135.03 147.27 135.99 147.27 137.18 Z M 147.27 138.16 L 147.27 139.17 C 147.27 140.36 148.23 141.32 149.41 141.32 C 150.59 141.32 151.55 140.36 151.55 139.17 L 151.55 138.16 C 151.55 136.98 150.59 136.02 149.41 136.02 C 148.23 136.02 147.27 136.98 147.27 138.16 Z M 147.26 139.17 L 147.26 140.17 C 147.26 141.36 148.22 142.32 149.41 142.32 C 150.60 142.32 151.56 141.36 151.56 140.17 L 151.56 139.17 C 151.56 137.99 150.60 137.02 149.41 137.02 C 148.22 137.02 147.26 137.99 147.26 139.17 Z M 147.26 140.17 L 147.26 141.17 C 147.26 142.36 148.22 143.32 149.41 143.32 C 150.60 143.32 151.56 142.36 151.56 141.17 L 151.56 140.17 C 151.56 138.98 150.60 138.02 149.41 138.02 C 148.22 138.02 147.26 138.98 147.26 140.17 Z M 147.26 141.17 L 147.26 142.18 C 147.26 143.36 148.22 144.33 149.41 144.33 C 150.60 144.33 151.56 143.36 151.56 142.18 L 151.56 141.17 C 151.56 139.98 150.60 139.02 149.41 139.02 C 148.22 139.02 147.26 139.98 147.26 141.17 Z M 147.26 142.18 L 147.26 143.16 C 147.26 144.35 148.22 145.31 149.41 145.31 C 150.60 145.31 151.56 144.35 151.56 143.16 L 151.56 142.18 C 151.56 140.99 150.60 140.02 149.41 140.02 C 148.22 140.02 147.26 140.99 147.26 142.18 Z M 147.26 143.16 L 147.26 144.17 C 147.26 145.36 148.22 146.32 149.41 146.32 C 150.60 146.32 151.56 145.36 151.56 144.17 L 151.56 143.16 C 151.56 141.97 150.60 141.01 149.41 141.01 C 148.22 141.01 147.26 141.97 147.26 143.16 Z M 147.26 144.17 L 147.26 145.17 C 147.26 146.36 148.22 147.32 149.41 147.32 C 150.60 147.32 151.56 146.36 151.56 145.17 L 151.56 144.17 C 151.56 142.98 150.60 142.02 149.41 142.02 C 148.22 142.02 147.26 142.98 147.26 144.17 Z M 147.26 145.17 L 147.26 146.16 C 147.26 147.35 148.22 148.32 149.41 148.32 C 150.60 148.32 151.56 147.35 151.56 146.16 L 151.56 145.17 C 151.56 143.98 150.60 143.01 149.41 143.01 C 148.22 143.01 147.26 143.98 147.26 145.17 Z M 147.26 146.16 L 147.26 147.17 C 147.26 148.36 148.22 149.32 149.41 149.32 C 150.60 149.32 151.56 148.36 151.56 147.17 L 151.56 146.16 C 151.56 144.97 150.60 144.01 149.41 144.01 C 148.22 144.01 147.26 144.97 147.26 146.16 Z M 147.26 147.17 L 147.26 148.16 C 147.26 149.35 148.22 150.31 149.41 150.31 C 150.60 150.31 151.57 149.35 151.57 148.16 L 151.57 147.17 C 151.57 145.98 150.60 145.01 149.41 145.01 C 148.22 145.01 147.26 145.98 147.26 147.17 Z M 147.25 148.16 L 147.25 149.11 C 147.25 150.30 148.22 151.26 149.41 151.26 C 150.60 151.26 151.57 150.30 151.57 149.11 L 151.57 148.16 C 151.57 146.97 150.60 146.00 149.41 146.00 C 148.22 146.00 147.25 146.97 147.25 148.16 Z M 147.25 149.11 L 147.25 150.11 C 147.25 151.30 148.22 152.27 149.41 152.27 C 150.60 152.27 151.57 151.30 151.57 150.11 L 151.57 149.11 C 151.57 147.92 150.60 146.95 149.41 146.95 C 148.22 146.95 147.25 147.92 147.25 149.11 Z M 147.25 150.11 L 147.25 151.14 C 147.25 152.34 148.22 153.30 149.41 153.30 C 150.60 153.30 151.57 152.34 151.57 151.14 L 151.57 150.11 C 151.57 148.92 150.60 147.96 149.41 147.96 C 148.22 147.96 147.25 148.92 147.25 150.11 Z M 147.25 151.14 L 147.25 152.16 C 147.25 153.35 148.22 154.32 149.41 154.32 C 150.60 154.32 151.57 153.35 151.57 152.16 L 151.57 151.14 C 151.57 149.95 150.60 148.99 149.41 148.99 C 148.22 148.99 147.25 149.95 147.25 151.14 Z M 147.25 152.16 L 147.25 153.17 C 147.25 154.37 148.22 155.33 149.41 155.33 C 150.60 155.33 151.57 154.37 151.57 153.17 L 151.57 152.16 C 151.57 150.97 150.60 150.00 149.41 150.00 C 148.22 150.00 147.25 150.97 147.25 152.16 Z M 147.25 153.17 L 147.25 154.20 C 147.25 155.39 148.22 156.36 149.41 156.36 C 150.60 156.36 151.57 155.40 151.57 154.20 L 151.57 153.17 C 151.57 151.98 150.60 151.02 149.41 151.02 C 148.22 151.02 147.25 151.98 147.25 153.17 Z M 147.25 154.19 L 147.25 155.20 C 147.24 156.39 148.20 157.36 149.39 157.37 C 150.58 157.38 151.55 156.42 151.56 155.23 L 151.57 154.22 C 151.57 153.03 150.61 152.06 149.42 152.05 C 148.23 152.04 147.26 153.00 147.25 154.19 Z M 147.25 155.16 L 147.23 156.11 C 147.20 157.30 148.14 158.29 149.33 158.32 C 150.52 158.35 151.51 157.40 151.54 156.21 L 151.56 155.26 C 151.59 154.07 150.65 153.09 149.46 153.06 C 148.26 153.03 147.28 153.97 147.25 155.16 Z M 147.23 156.03 L 147.17 156.98 C 147.10 158.17 148.01 159.19 149.20 159.26 C 150.38 159.33 151.41 158.42 151.48 157.24 L 151.53 156.29 C 151.61 155.10 150.70 154.08 149.51 154.01 C 148.32 153.94 147.30 154.84 147.23 156.03 Z M 147.19 156.81 L 147.05 157.80 C 146.89 158.98 147.71 160.07 148.89 160.24 C 150.07 160.40 151.16 159.58 151.32 158.40 L 151.46 157.40 C 151.62 156.22 150.80 155.13 149.62 154.97 C 148.44 154.81 147.35 155.63 147.19 156.81 Z M 147.09 157.58 L 146.84 158.59 C 146.55 159.75 147.26 160.92 148.42 161.21 C 149.57 161.49 150.74 160.79 151.03 159.63 L 151.28 158.62 C 151.57 157.46 150.86 156.29 149.71 156.01 C 148.55 155.72 147.38 156.42 147.09 157.58 Z M 146.93 158.31 L 146.55 159.26 C 146.11 160.37 146.65 161.63 147.76 162.07 C 148.87 162.51 150.12 161.97 150.56 160.86 L 150.94 159.91 C 151.38 158.80 150.84 157.55 149.73 157.11 C 148.63 156.67 147.37 157.21 146.93 158.31 Z M 146.78 158.84 L 146.22 159.65 C 145.54 160.63 145.79 161.98 146.77 162.66 C 147.75 163.33 149.10 163.09 149.78 162.10 L 150.34 161.29 C 151.02 160.31 150.77 158.96 149.78 158.28 C 148.80 157.60 147.45 157.85 146.78 158.84 Z M 146.79 159.08 L 146.00 159.61 C 145.01 160.28 144.75 161.63 145.42 162.62 C 146.08 163.61 147.43 163.87 148.42 163.20 L 149.21 162.67 C 150.20 162.00 150.46 160.66 149.79 159.67 C 149.12 158.68 147.78 158.42 146.79 159.08 Z M 146.73 159.30 L 145.76 159.52 C 144.60 159.79 143.87 160.95 144.14 162.11 C 144.40 163.27 145.56 164.00 146.73 163.73 L 147.69 163.51 C 148.86 163.25 149.58 162.09 149.32 160.92 C 149.05 159.76 147.89 159.03 146.73 159.30 Z M 146.21 159.47 L 145.20 159.49 C 144.00 159.50 143.05 160.48 143.07 161.67 C 143.08 162.86 144.06 163.81 145.25 163.80 L 146.27 163.78 C 147.46 163.77 148.42 162.79 148.40 161.60 C 148.38 160.41 147.41 159.46 146.21 159.47 Z M 145.43 159.50 L 144.40 159.40 C 143.22 159.29 142.17 160.15 142.05 161.33 C 141.94 162.52 142.81 163.57 143.99 163.68 L 145.02 163.78 C 146.20 163.90 147.25 163.03 147.36 161.85 C 147.48 160.67 146.61 159.62 145.43 159.50 Z M 144.54 159.43 L 143.57 159.27 C 142.40 159.08 141.30 159.87 141.10 161.04 C 140.91 162.21 141.71 163.31 142.87 163.50 L 143.85 163.66 C 145.02 163.85 146.12 163.06 146.31 161.89 C 146.50 160.72 145.71 159.62 144.54 159.43 Z M 143.63 159.28 L 142.67 159.10 C 141.51 158.88 140.39 159.63 140.17 160.79 C 139.94 161.95 140.70 163.07 141.86 163.30 L 142.82 163.48 C 143.97 163.70 145.09 162.95 145.32 161.79 C 145.54 160.63 144.78 159.51 143.63 159.28 Z M 142.66 159.11 L 141.67 158.93 C 140.52 158.71 139.41 159.47 139.19 160.63 C 138.98 161.78 139.74 162.89 140.90 163.10 L 141.88 163.29 C 143.03 163.50 144.14 162.74 144.36 161.59 C 144.57 160.43 143.81 159.32 142.66 159.11 Z M 141.66 158.94 L 140.67 158.76 C 139.52 158.55 138.42 159.31 138.22 160.46 C 138.01 161.60 138.77 162.70 139.91 162.91 L 140.91 163.09 C 142.05 163.30 143.15 162.54 143.36 161.39 C 143.57 160.25 142.81 159.15 141.66 158.94 Z M 140.68 158.77 L 139.71 158.59 C 138.57 158.38 137.47 159.12 137.26 160.26 C 137.04 161.40 137.79 162.50 138.93 162.71 L 139.90 162.90 C 141.04 163.11 142.14 162.36 142.35 161.22 C 142.57 160.08 141.82 158.99 140.68 158.77 Z M 139.74 158.60 L 138.78 158.40 C 137.65 158.17 136.54 158.89 136.31 160.03 C 136.07 161.16 136.80 162.27 137.93 162.50 L 138.89 162.70 C 140.02 162.94 141.13 162.21 141.37 161.08 C 141.60 159.94 140.87 158.84 139.74 158.60 Z M 138.84 158.42 L 137.85 158.18 C 136.73 157.91 135.60 158.61 135.33 159.73 C 135.06 160.85 135.76 161.98 136.88 162.25 L 137.87 162.49 C 138.99 162.75 140.12 162.06 140.39 160.94 C 140.66 159.81 139.96 158.69 138.84 158.42 Z M 137.92 158.20 L 136.97 157.94 C 135.86 157.63 134.71 158.28 134.40 159.39 C 134.09 160.50 134.74 161.66 135.85 161.96 L 136.80 162.23 C 137.92 162.54 139.07 161.89 139.38 160.77 C 139.69 159.66 139.04 158.51 137.92 158.20 Z M 137.08 157.97 L 136.12 157.64 C 135.03 157.27 133.84 157.86 133.47 158.96 C 133.10 160.05 133.69 161.24 134.78 161.61 L 135.74 161.93 C 136.84 162.30 138.03 161.71 138.40 160.62 C 138.76 159.52 138.18 158.34 137.08 157.97 Z M 136.29 157.71 L 135.35 157.30 C 134.30 156.84 133.06 157.32 132.60 158.38 C 132.14 159.44 132.62 160.68 133.68 161.14 L 134.62 161.54 C 135.68 162.01 136.91 161.52 137.37 160.46 C 137.83 159.40 137.35 158.17 136.29 157.71 Z M 135.60 157.43 L 134.72 156.89 C 133.73 156.30 132.44 156.61 131.84 157.60 C 131.25 158.59 131.56 159.88 132.55 160.48 L 133.44 161.01 C 134.43 161.61 135.71 161.29 136.31 160.30 C 136.91 159.31 136.59 158.02 135.60 157.43 Z M 135.03 157.12 L 134.31 156.48 C 133.45 155.71 132.13 155.79 131.36 156.65 C 130.59 157.51 130.66 158.84 131.52 159.61 L 132.24 160.25 C 133.10 161.02 134.43 160.94 135.20 160.08 C 135.97 159.22 135.89 157.89 135.03 157.12 Z M 134.65 156.87 L 134.10 156.06 C 133.45 155.10 132.15 154.85 131.19 155.50 C 130.23 156.15 129.98 157.45 130.63 158.41 L 131.18 159.22 C 131.83 160.18 133.14 160.43 134.09 159.78 C 135.05 159.13 135.30 157.83 134.65 156.87 Z M 134.34 156.52 L 134.00 155.58 C 133.61 154.49 132.40 153.93 131.31 154.33 C 130.22 154.72 129.66 155.93 130.06 157.02 L 130.39 157.95 C 130.79 159.04 132.00 159.61 133.09 159.21 C 134.18 158.81 134.74 157.61 134.34 156.52 Z M 134.11 155.98 L 133.96 154.99 C 133.78 153.84 132.71 153.05 131.56 153.23 C 130.41 153.41 129.62 154.48 129.80 155.63 L 129.95 156.62 C 130.12 157.77 131.20 158.56 132.35 158.38 C 133.50 158.21 134.28 157.13 134.11 155.98 Z M 133.99 155.38 L 134.02 154.38 C 134.05 153.21 133.14 152.24 131.98 152.20 C 130.81 152.17 129.84 153.08 129.80 154.24 L 129.77 155.24 C 129.73 156.41 130.65 157.38 131.81 157.42 C 132.97 157.46 133.95 156.54 133.99 155.38 Z M 133.96 154.84 L 134.20 153.89 C 134.49 152.76 133.81 151.61 132.68 151.31 C 131.55 151.02 130.40 151.71 130.11 152.84 L 129.86 153.79 C 129.57 154.92 130.25 156.07 131.38 156.36 C 132.51 156.65 133.67 155.97 133.96 154.84 Z M 134.03 154.34 L 134.46 153.51 C 135.00 152.47 134.59 151.20 133.56 150.66 C 132.52 150.12 131.24 150.52 130.70 151.56 L 130.27 152.39 C 129.74 153.43 130.14 154.70 131.18 155.24 C 132.22 155.78 133.49 155.37 134.03 154.34 Z M 134.29 153.79 L 134.90 152.96 C 135.59 152.02 135.39 150.69 134.45 150.00 C 133.50 149.31 132.18 149.51 131.49 150.45 L 130.88 151.28 C 130.18 152.22 130.39 153.55 131.33 154.24 C 132.27 154.93 133.59 154.73 134.29 153.79 Z M 134.80 153.09 L 135.44 152.34 C 136.21 151.45 136.11 150.12 135.22 149.35 C 134.34 148.59 133.00 148.69 132.24 149.57 L 131.59 150.32 C 130.82 151.21 130.92 152.54 131.81 153.31 C 132.69 154.07 134.03 153.97 134.80 153.09 Z M 135.38 152.41 L 136.04 151.71 C 136.85 150.86 136.81 149.51 135.95 148.71 C 135.10 147.91 133.76 147.95 132.96 148.80 L 132.30 149.50 C 131.50 150.35 131.53 151.69 132.39 152.50 C 133.24 153.30 134.58 153.26 135.38 152.41 Z M 135.98 151.77 L 136.72 151.05 C 137.56 150.23 137.57 148.89 136.76 148.05 C 135.94 147.22 134.60 147.20 133.76 148.02 L 133.02 148.74 C 132.18 149.55 132.17 150.90 132.98 151.73 C 133.80 152.57 135.14 152.59 135.98 151.77 Z M 136.65 151.12 L 137.45 150.40 C 138.33 149.62 138.40 148.28 137.62 147.41 C 136.84 146.53 135.50 146.46 134.63 147.24 L 133.83 147.95 C 132.95 148.73 132.88 150.07 133.66 150.94 C 134.44 151.82 135.78 151.90 136.65 151.12 Z M 137.38 150.46 L 138.20 149.80 C 139.10 149.06 139.24 147.72 138.50 146.81 C 137.76 145.91 136.42 145.77 135.51 146.51 L 134.70 147.18 C 133.79 147.92 133.66 149.25 134.40 150.16 C 135.14 151.07 136.47 151.20 137.38 150.46 Z M 138.14 149.85 L 138.96 149.22 C 139.89 148.51 140.08 147.18 139.37 146.25 C 138.66 145.31 137.33 145.13 136.39 145.84 L 135.57 146.46 C 134.64 147.17 134.46 148.50 135.16 149.44 C 135.87 150.37 137.20 150.55 138.14 149.85 Z M 138.91 149.26 L 139.69 148.71 C 140.65 148.03 140.87 146.70 140.19 145.74 C 139.51 144.79 138.18 144.56 137.23 145.24 L 136.44 145.80 C 135.49 146.48 135.26 147.81 135.94 148.76 C 136.63 149.72 137.95 149.94 138.91 149.26 Z M 139.63 148.75 L 140.50 148.18 C 141.48 147.53 141.75 146.21 141.10 145.23 C 140.46 144.25 139.14 143.98 138.16 144.63 L 137.29 145.20 C 136.31 145.85 136.04 147.17 136.68 148.15 C 137.33 149.13 138.65 149.40 139.63 148.75 Z M 140.42 148.23 L 141.28 147.72 C 142.29 147.12 142.62 145.81 142.02 144.80 C 141.42 143.79 140.11 143.46 139.10 144.06 L 138.24 144.57 C 137.23 145.17 136.90 146.48 137.50 147.49 C 138.10 148.50 139.41 148.83 140.42 148.23 Z M 141.19 147.77 L 141.99 147.34 C 143.03 146.79 143.42 145.50 142.87 144.46 C 142.31 143.42 141.02 143.03 139.98 143.58 L 139.18 144.01 C 138.14 144.56 137.75 145.86 138.31 146.89 C 138.86 147.93 140.15 148.33 141.19 147.77 Z M 141.93 147.38 L 142.82 146.94 C 143.88 146.42 144.31 145.14 143.79 144.08 C 143.27 143.02 141.99 142.59 140.93 143.11 L 140.04 143.55 C 138.99 144.07 138.55 145.35 139.07 146.41 C 139.59 147.47 140.87 147.90 141.93 147.38 Z M 142.74 146.98 L 143.66 146.57 C 144.74 146.09 145.23 144.83 144.75 143.75 C 144.27 142.67 143.01 142.18 141.93 142.66 L 141.01 143.07 C 139.93 143.55 139.44 144.81 139.92 145.89 C 140.40 146.97 141.66 147.46 142.74 146.98 Z M 143.57 146.61 L 144.48 146.26 C 145.59 145.83 146.13 144.59 145.71 143.49 C 145.28 142.39 144.04 141.84 142.94 142.27 L 142.02 142.62 C 140.92 143.05 140.37 144.29 140.80 145.39 C 141.23 146.49 142.47 147.04 143.57 146.61 Z M 144.41 146.29 L 145.36 145.96 C 146.48 145.57 147.07 144.35 146.68 143.23 C 146.30 142.11 145.08 141.52 143.96 141.91 L 143.01 142.24 C 141.89 142.63 141.30 143.85 141.69 144.97 C 142.08 146.08 143.30 146.67 144.41 146.29 Z M 145.32 145.97 L 146.29 145.66 C 147.42 145.29 148.03 144.08 147.66 142.95 C 147.30 141.83 146.09 141.21 144.96 141.58 L 144.00 141.90 C 142.87 142.26 142.26 143.47 142.62 144.60 C 142.99 145.72 144.20 146.34 145.32 145.97 Z M 146.25 145.67 L 147.22 145.38 C 148.35 145.03 148.99 143.83 148.64 142.70 C 148.30 141.57 147.10 140.93 145.97 141.27 L 145.00 141.57 C 143.87 141.91 143.23 143.11 143.58 144.24 C 143.92 145.38 145.12 146.01 146.25 145.67 Z M 147.14 145.40 L 148.10 145.14 C 149.25 144.84 149.93 143.67 149.63 142.52 C 149.32 141.38 148.15 140.69 147.00 141.00 L 146.04 141.25 C 144.90 141.55 144.22 142.73 144.52 143.87 C 144.82 145.02 146.00 145.70 147.14 145.40 Z M 147.99 145.17 L 148.98 144.97 C 150.14 144.72 150.88 143.59 150.64 142.43 C 150.40 141.27 149.27 140.52 148.11 140.77 L 147.12 140.97 C 145.96 141.21 145.21 142.35 145.45 143.51 C 145.69 144.67 146.83 145.41 147.99 145.17 Z M 148.87 144.98 L 149.84 144.83 C 151.01 144.65 151.82 143.56 151.64 142.39 C 151.46 141.22 150.36 140.42 149.19 140.60 L 148.22 140.75 C 147.05 140.93 146.24 142.02 146.42 143.19 C 146.60 144.36 147.70 145.16 148.87 144.98 Z M 149.76 144.84 L 150.75 144.73 C 151.92 144.60 152.77 143.53 152.63 142.36 C 152.50 141.18 151.43 140.34 150.26 140.47 L 149.27 140.59 C 148.10 140.72 147.25 141.78 147.39 142.96 C 147.52 144.13 148.59 144.98 149.76 144.84 Z M 150.67 144.74 L 151.68 144.66 C 152.85 144.56 153.73 143.53 153.64 142.35 C 153.54 141.17 152.51 140.29 151.33 140.39 L 150.33 140.47 C 149.15 140.56 148.27 141.60 148.37 142.77 C 148.46 143.95 149.50 144.83 150.67 144.74 Z M 151.60 144.66 L 152.61 144.61 C 153.79 144.56 154.70 143.56 154.65 142.38 C 154.59 141.20 153.59 140.28 152.41 140.34 L 151.40 140.38 C 150.22 140.44 149.31 141.44 149.36 142.62 C 149.42 143.80 150.42 144.71 151.60 144.66 Z M 152.54 144.61 L 153.54 144.60 C 154.72 144.58 155.66 143.60 155.65 142.42 C 155.63 141.24 154.65 140.30 153.47 140.32 L 152.47 140.34 C 151.29 140.36 150.35 141.33 150.37 142.51 C 150.39 143.69 151.36 144.63 152.54 144.61 Z M 153.51 144.60 L 154.51 144.59 C 155.69 144.59 156.65 143.63 156.64 142.45 C 156.64 141.27 155.68 140.32 154.50 140.32 L 153.50 140.32 C 152.32 140.32 151.37 141.28 151.37 142.46 C 151.37 143.64 152.33 144.60 153.51 144.60 Z M 154.50 144.59 L 155.51 144.59 C 156.69 144.60 157.64 143.64 157.65 142.46 C 157.65 141.28 156.69 140.32 155.52 140.32 L 154.51 140.32 C 153.33 140.32 152.37 141.27 152.37 142.45 C 152.37 143.63 153.32 144.59 154.50 144.59 Z M 155.49 144.59 L 156.49 144.60 C 157.67 144.61 158.63 143.67 158.64 142.49 C 158.65 141.31 157.71 140.35 156.53 140.34 L 155.53 140.33 C 154.36 140.31 153.39 141.26 153.38 142.44 C 153.37 143.61 154.31 144.58 155.49 144.59 Z M 156.45 144.60 L 157.45 144.62 C 158.62 144.66 159.60 143.73 159.63 142.55 C 159.66 141.38 158.74 140.40 157.56 140.37 L 156.57 140.34 C 155.39 140.31 154.41 141.24 154.38 142.41 C 154.35 143.59 155.28 144.57 156.45 144.60 Z M 157.40 144.62 L 158.39 144.67 C 159.56 144.73 160.56 143.82 160.62 142.65 C 160.68 141.48 159.78 140.48 158.60 140.42 L 157.61 140.37 C 156.44 140.31 155.44 141.21 155.38 142.39 C 155.32 143.56 156.22 144.56 157.40 144.62 Z M 158.33 144.66 L 159.30 144.74 C 160.47 144.83 161.49 143.95 161.58 142.78 C 161.67 141.62 160.80 140.60 159.63 140.50 L 158.66 140.43 C 157.49 140.34 156.47 141.21 156.38 142.38 C 156.29 143.55 157.16 144.57 158.33 144.66 Z M 159.21 144.72 L 160.15 144.83 C 161.32 144.97 162.37 144.14 162.51 142.98 C 162.64 141.82 161.81 140.77 160.65 140.63 L 159.71 140.52 C 158.55 140.38 157.50 141.21 157.36 142.37 C 157.22 143.53 158.05 144.58 159.21 144.72 Z M 160.03 144.81 L 161.06 145.00 C 162.21 145.20 163.31 144.44 163.52 143.29 C 163.72 142.14 162.96 141.05 161.81 140.84 L 160.78 140.65 C 159.63 140.45 158.53 141.21 158.32 142.36 C 158.12 143.50 158.88 144.60 160.03 144.81 Z M 160.94 144.96 L 161.87 145.19 C 163.00 145.46 164.14 144.77 164.41 143.64 C 164.69 142.51 163.99 141.37 162.86 141.10 L 161.94 140.87 C 160.81 140.60 159.67 141.29 159.39 142.42 C 159.12 143.55 159.81 144.69 160.94 144.96 Z M 161.77 145.16 L 162.69 145.43 C 163.81 145.76 164.97 145.12 165.30 144.00 C 165.63 142.89 164.99 141.72 163.88 141.40 L 162.96 141.13 C 161.84 140.80 160.68 141.44 160.35 142.55 C 160.02 143.66 160.66 144.83 161.77 145.16 Z M 162.62 145.40 L 163.60 145.73 C 164.69 146.10 165.88 145.51 166.25 144.41 C 166.62 143.32 166.03 142.13 164.94 141.76 L 163.95 141.43 C 162.86 141.06 161.67 141.65 161.30 142.74 C 160.93 143.84 161.52 145.03 162.62 145.40 Z M 163.53 145.70 L 164.55 146.09 C 165.63 146.49 166.84 145.95 167.24 144.87 C 167.65 143.79 167.11 142.58 166.03 142.17 L 165.01 141.79 C 163.93 141.38 162.72 141.92 162.31 143.00 C 161.90 144.08 162.45 145.29 163.53 145.70 Z M 164.49 146.05 L 165.43 146.45 C 166.49 146.89 167.71 146.39 168.15 145.32 C 168.60 144.26 168.09 143.04 167.03 142.60 L 166.09 142.21 C 165.03 141.76 163.81 142.26 163.36 143.33 C 162.92 144.39 163.42 145.61 164.49 146.05 Z M 165.37 146.41 L 166.31 146.84 C 167.36 147.31 168.59 146.85 169.06 145.80 C 169.53 144.76 169.07 143.53 168.02 143.06 L 167.09 142.63 C 166.04 142.16 164.81 142.62 164.34 143.67 C 163.87 144.71 164.33 145.94 165.37 146.41 Z M 166.25 146.80 L 167.15 147.25 C 168.18 147.75 169.42 147.33 169.92 146.31 C 170.43 145.28 170.01 144.04 168.98 143.54 L 168.08 143.09 C 167.06 142.59 165.82 143.01 165.31 144.03 C 164.81 145.06 165.23 146.30 166.25 146.80 Z M 167.09 147.20 L 167.92 147.65 C 168.92 148.20 170.17 147.82 170.71 146.82 C 171.25 145.82 170.88 144.57 169.88 144.03 L 169.05 143.58 C 168.05 143.04 166.80 143.41 166.26 144.41 C 165.72 145.41 166.09 146.66 167.09 147.20 Z M 167.83 147.58 L 168.78 148.17 C 169.74 148.76 171.00 148.47 171.59 147.51 C 172.19 146.55 171.89 145.29 170.93 144.70 L 169.98 144.11 C 169.02 143.51 167.76 143.81 167.16 144.77 C 166.57 145.73 166.87 146.99 167.83 147.58 Z M 168.65 148.05 L 169.45 148.65 C 170.34 149.32 171.61 149.13 172.27 148.24 C 172.94 147.34 172.76 146.08 171.86 145.41 L 171.06 144.81 C 170.17 144.15 168.90 144.33 168.24 145.22 C 167.57 146.12 167.75 147.38 168.65 148.05 Z M 169.29 148.49 L 169.94 149.10 C 170.75 149.85 172.01 149.81 172.76 149.01 C 173.52 148.20 173.48 146.94 172.67 146.19 L 172.02 145.57 C 171.22 144.82 169.95 144.86 169.20 145.66 C 168.45 146.47 168.49 147.73 169.29 148.49 Z M 169.78 148.86 L 170.41 149.65 C 171.08 150.50 172.31 150.64 173.16 149.96 C 174.00 149.29 174.14 148.06 173.47 147.21 L 172.84 146.42 C 172.16 145.58 170.93 145.44 170.09 146.11 C 169.24 146.79 169.10 148.02 169.78 148.86 Z M 170.32 149.42 L 170.83 150.26 C 171.38 151.16 172.55 151.44 173.44 150.89 C 174.34 150.35 174.62 149.18 174.07 148.28 L 173.56 147.44 C 173.01 146.55 171.84 146.26 170.95 146.81 C 170.05 147.36 169.77 148.53 170.32 149.42 Z M 170.83 150.16 L 171.09 150.65 C 171.58 151.55 172.71 151.88 173.61 151.39 C 174.50 150.90 174.83 149.77 174.34 148.87 L 174.08 148.38 C 173.59 147.49 172.46 147.16 171.56 147.65 C 170.67 148.14 170.34 149.26 170.83 150.16 Z"
      fill="black"
      fill-rule="nonzero" /><path d="M 149.66 128.02 L 150.55 127.74 C 151.51 127.45 152.05 126.43 151.75 125.46 C 151.45 124.50 150.43 123.97 149.47 124.26 L 148.59 124.54 C 147.62 124.83 147.09 125.85 147.38 126.82 C 147.68 127.78 148.70 128.32 149.66 128.02 Z M 150.62 127.80 L 151.53 127.49 C 152.52 127.15 153.05 126.08 152.72 125.08 C 152.38 124.09 151.30 123.56 150.31 123.90 L 149.40 124.21 C 148.41 124.55 147.88 125.62 148.21 126.61 C 148.55 127.60 149.63 128.14 150.62 127.80 Z M 151.64 127.53 L 152.61 127.14 C 153.62 126.74 154.12 125.60 153.72 124.59 C 153.32 123.58 152.18 123.08 151.16 123.48 L 150.20 123.86 C 149.19 124.26 148.69 125.41 149.09 126.42 C 149.49 127.43 150.63 127.93 151.64 127.53 Z M 152.74 127.15 L 153.65 126.73 C 154.67 126.26 155.11 125.05 154.64 124.04 C 154.17 123.02 152.97 122.58 151.95 123.05 L 151.04 123.47 C 150.02 123.94 149.58 125.15 150.05 126.16 C 150.52 127.18 151.72 127.62 152.74 127.15 Z M 153.74 126.71 L 154.55 126.29 C 155.56 125.77 155.95 124.53 155.43 123.53 C 154.91 122.53 153.68 122.13 152.68 122.65 L 151.86 123.07 C 150.86 123.59 150.47 124.82 150.99 125.83 C 151.50 126.83 152.74 127.23 153.74 126.71 Z M 154.61 126.26 L 155.46 125.79 C 156.45 125.24 156.81 123.99 156.26 123.00 C 155.71 122.02 154.47 121.66 153.48 122.21 L 152.62 122.68 C 151.64 123.23 151.28 124.47 151.83 125.46 C 152.37 126.45 153.62 126.81 154.61 126.26 Z M 155.50 125.76 L 156.39 125.25 C 157.37 124.68 157.70 123.43 157.14 122.45 C 156.57 121.47 155.32 121.14 154.34 121.71 L 153.45 122.23 C 152.47 122.79 152.14 124.04 152.70 125.02 C 153.27 126.00 154.52 126.33 155.50 125.76 Z M 156.41 125.23 L 157.34 124.68 C 158.31 124.10 158.63 122.84 158.05 121.87 C 157.47 120.90 156.22 120.59 155.25 121.17 L 154.32 121.72 C 153.35 122.30 153.03 123.55 153.61 124.52 C 154.19 125.49 155.44 125.81 156.41 125.23 Z M 157.35 124.67 L 158.25 124.13 C 159.21 123.54 159.52 122.29 158.93 121.32 C 158.35 120.36 157.10 120.05 156.13 120.64 L 155.24 121.18 C 154.28 121.76 153.97 123.01 154.55 123.98 C 155.14 124.94 156.39 125.25 157.35 124.67 Z M 158.25 124.12 L 159.10 123.60 C 160.06 123.01 160.37 121.76 159.78 120.80 C 159.20 119.84 157.95 119.54 156.99 120.12 L 156.13 120.64 C 155.17 121.23 154.87 122.48 155.45 123.44 C 156.04 124.40 157.29 124.70 158.25 124.12 Z M 159.10 123.59 L 159.96 123.06 C 160.92 122.48 161.22 121.23 160.64 120.28 C 160.06 119.32 158.81 119.02 157.85 119.60 L 156.99 120.13 C 156.04 120.71 155.73 121.96 156.32 122.91 C 156.90 123.87 158.15 124.17 159.10 123.59 Z M 159.96 123.05 L 160.82 122.53 C 161.77 121.95 162.08 120.71 161.50 119.76 C 160.92 118.81 159.68 118.50 158.73 119.08 L 157.86 119.61 C 156.91 120.19 156.61 121.43 157.19 122.38 C 157.77 123.33 159.01 123.63 159.96 123.05 Z M 160.81 122.52 L 161.67 122.01 C 162.62 121.43 162.92 120.20 162.35 119.25 C 161.78 118.30 160.54 118.00 159.60 118.57 L 158.74 119.09 C 157.79 119.66 157.48 120.89 158.06 121.84 C 158.63 122.79 159.86 123.10 160.81 122.52 Z M 161.65 122.01 L 162.50 121.50 C 163.45 120.94 163.76 119.71 163.19 118.76 C 162.63 117.82 161.40 117.50 160.45 118.07 L 159.61 118.57 C 158.66 119.14 158.35 120.36 158.91 121.31 C 159.48 122.26 160.71 122.57 161.65 122.01 Z M 162.47 121.49 L 163.45 120.92 C 164.39 120.37 164.71 119.16 164.16 118.22 C 163.61 117.28 162.40 116.96 161.46 117.51 L 160.48 118.08 C 159.54 118.63 159.22 119.84 159.77 120.78 C 160.32 121.72 161.53 122.04 162.47 121.49 Z M 163.41 120.90 L 164.35 120.36 C 165.28 119.83 165.60 118.65 165.07 117.72 C 164.54 116.80 163.36 116.47 162.43 117.00 L 161.49 117.54 C 160.57 118.07 160.24 119.25 160.77 120.18 C 161.30 121.10 162.48 121.43 163.41 120.90 Z M 164.31 120.33 L 165.19 119.84 C 166.10 119.33 166.42 118.18 165.91 117.27 C 165.40 116.36 164.25 116.03 163.34 116.54 L 162.47 117.03 C 161.55 117.54 161.23 118.69 161.74 119.61 C 162.25 120.52 163.40 120.84 164.31 120.33 Z M 165.15 119.81 L 165.95 119.38 C 166.85 118.88 167.17 117.76 166.68 116.86 C 166.19 115.97 165.06 115.64 164.17 116.13 L 163.37 116.57 C 162.48 117.06 162.15 118.19 162.64 119.08 C 163.13 119.98 164.26 120.31 165.15 119.81 Z M 165.91 119.34 L 166.76 118.88 C 167.64 118.41 167.96 117.32 167.49 116.44 C 167.02 115.57 165.92 115.24 165.05 115.71 L 164.20 116.17 C 163.33 116.64 163.00 117.74 163.47 118.61 C 163.95 119.49 165.04 119.81 165.91 119.34 Z M 166.71 118.83 L 167.67 118.33 C 168.51 117.88 168.84 116.83 168.39 115.99 C 167.95 115.14 166.90 114.82 166.05 115.26 L 165.10 115.76 C 164.25 116.21 163.92 117.26 164.37 118.11 C 164.82 118.95 165.87 119.28 166.71 118.83 Z M 167.61 118.27 L 168.42 117.85 C 169.23 117.44 169.55 116.44 169.13 115.63 C 168.71 114.82 167.72 114.50 166.91 114.91 L 166.10 115.33 C 165.29 115.74 164.97 116.74 165.39 117.55 C 165.81 118.36 166.80 118.68 167.61 118.27 Z M 168.38 117.80 L 168.70 117.64 C 169.49 117.24 169.80 116.28 169.40 115.50 C 169.00 114.71 168.04 114.40 167.26 114.80 L 166.94 114.96 C 166.15 115.36 165.84 116.32 166.24 117.11 C 166.64 117.89 167.60 118.20 168.38 117.80 Z"
      fill="black"
      fill-rule="nonzero" /></svg>