<svg xmlns="http://www.w3.org/2000/svg" width="300" height="300" viewBox="0 0 300 300">
<path d="M 137.72 116.71 L 138.61 116.28 C 139.57 115.83 139.97 114.69 139.51 113.74 C 139.06 112.79 137.92 112.38 136.97 112.84 L 136.08 113.26 C 135.13 113.72 134.72 114.86 135.18 115.81 C 135.63 116.76 136.77 117.16 137.72 116.71 Z M 138.65 116.31 L 139.54 115.88 C 140.51 115.41 140.92 114.24 140.45 113.27 C 139.98 112.30 138.81 111.89 137.84 112.37 L 136.94 112.80 C 135.97 113.27 135.57 114.44 136.04 115.41 C 136.51 116.38 137.68 116.78 138.65 116.31 Z M 139.58 115.90 L 140.47 115.46 C 141.45 114.96 141.85 113.77 141.36 112.78 C 140.87 111.80 139.67 111.40 138.69 111.90 L 137.80 112.34 C 136.82 112.83 136.42 114.03 136.91 115.01 C 137.41 116.00 138.60 116.39 139.58 115.90 Z M 140.50 115.47 L 141.37 115.02 C 142.35 114.51 142.74 113.30 142.23 112.31 C 141.72 111.32 140.51 110.93 139.52 111.44 L 138.66 111.89 C 137.67 112.40 137.28 113.61 137.79 114.60 C 138.30 115.59 139.51 115.98 140.50 115.47 Z M 141.37 115.03 L 142.27 114.57 C 143.27 114.06 143.66 112.84 143.15 111.84 C 142.64 110.84 141.41 110.45 140.42 110.97 L 139.52 111.43 C 138.52 111.94 138.13 113.16 138.64 114.16 C 139.15 115.15 140.38 115.55 141.37 115.03 Z M 142.26 114.59 L 143.17 114.13 C 144.18 113.63 144.58 112.40 144.08 111.40 C 143.57 110.39 142.35 109.98 141.34 110.49 L 140.43 110.95 C 139.43 111.45 139.02 112.68 139.52 113.68 C 140.03 114.69 141.25 115.09 142.26 114.59 Z M 143.15 114.15 L 144.05 113.71 C 145.07 113.22 145.49 112.00 145.00 110.98 C 144.51 109.97 143.29 109.54 142.27 110.03 L 141.37 110.47 C 140.35 110.96 139.92 112.18 140.42 113.20 C 140.91 114.22 142.13 114.64 143.15 114.15 Z M 144.02 113.73 L 144.94 113.31 C 145.97 112.83 146.41 111.61 145.94 110.58 C 145.46 109.56 144.24 109.11 143.22 109.59 L 142.30 110.01 C 141.27 110.49 140.83 111.71 141.30 112.73 C 141.78 113.76 143.00 114.21 144.02 113.73 Z M 144.90 113.33 L 145.83 112.92 C 146.87 112.46 147.34 111.25 146.88 110.22 C 146.43 109.18 145.22 108.71 144.18 109.16 L 143.25 109.57 C 142.22 110.02 141.74 111.23 142.20 112.27 C 142.65 113.31 143.87 113.78 144.90 113.33 Z M 145.79 112.94 L 146.73 112.55 C 147.78 112.12 148.28 110.91 147.84 109.87 C 147.41 108.82 146.21 108.32 145.16 108.75 L 144.22 109.14 C 143.17 109.58 142.67 110.78 143.11 111.83 C 143.54 112.87 144.74 113.37 145.79 112.94 Z M 146.71 112.56 L 147.62 112.19 C 148.68 111.77 149.19 110.58 148.77 109.52 C 148.35 108.47 147.15 107.96 146.10 108.38 L 145.18 108.74 C 144.13 109.16 143.62 110.36 144.04 111.41 C 144.46 112.47 145.65 112.98 146.71 112.56 Z M 147.62 112.20 L 148.47 111.86 C 149.52 111.44 150.03 110.24 149.61 109.19 C 149.19 108.13 148.00 107.62 146.95 108.04 L 146.10 108.38 C 145.05 108.80 144.53 109.99 144.95 111.05 C 145.37 112.10 146.57 112.62 147.62 112.20 Z M 148.47 111.86 L 149.26 111.54 C 150.32 111.12 150.83 109.92 150.41 108.87 C 149.99 107.81 148.79 107.30 147.74 107.72 L 146.94 108.04 C 145.89 108.46 145.38 109.66 145.80 110.71 C 146.22 111.77 147.41 112.28 148.47 111.86 Z M 149.25 111.55 L 150.17 111.19 C 151.22 110.78 151.75 109.58 151.34 108.53 C 150.92 107.47 149.73 106.95 148.68 107.36 L 147.76 107.72 C 146.70 108.13 146.18 109.32 146.59 110.38 C 147.00 111.43 148.19 111.96 149.25 111.55 Z M 150.14 111.20 L 151.28 110.77 C 152.34 110.38 152.88 109.19 152.48 108.13 C 152.09 107.07 150.90 106.53 149.84 106.92 L 148.70 107.35 C 147.64 107.74 147.10 108.93 147.50 109.99 C 147.89 111.05 149.08 111.59 150.14 111.20 Z M 151.25 110.78 L 152.15 110.46 C 153.22 110.07 153.77 108.90 153.39 107.83 C 153.00 106.76 151.82 106.21 150.76 106.59 L 149.86 106.92 C 148.79 107.30 148.24 108.48 148.63 109.55 C 149.01 110.61 150.19 111.17 151.25 110.78 Z M 152.14 110.46 L 153.10 110.12 C 154.17 109.75 154.73 108.57 154.36 107.50 C 153.98 106.43 152.81 105.87 151.74 106.25 L 150.77 106.59 C 149.70 106.97 149.14 108.14 149.52 109.21 C 149.89 110.28 151.07 110.84 152.14 110.46 Z M 153.09 110.13 L 154.09 109.78 C 155.16 109.41 155.73 108.24 155.36 107.17 C 154.99 106.10 153.82 105.53 152.75 105.90 L 151.75 106.24 C 150.68 106.61 150.11 107.78 150.48 108.86 C 150.85 109.93 152.02 110.50 153.09 110.13 Z M 154.07 109.79 L 155.06 109.45 C 156.14 109.09 156.71 107.93 156.35 106.85 C 155.99 105.78 154.82 105.20 153.75 105.56 L 152.76 105.90 C 151.69 106.26 151.11 107.42 151.47 108.50 C 151.84 109.57 153.00 110.15 154.07 109.79 Z M 155.05 109.46 L 155.97 109.15 C 157.05 108.80 157.63 107.64 157.28 106.56 C 156.93 105.49 155.77 104.90 154.69 105.25 L 153.76 105.56 C 152.69 105.91 152.10 107.07 152.45 108.15 C 152.81 109.23 153.97 109.81 155.05 109.46 Z M 155.94 109.16 L 157.02 108.83 C 158.10 108.49 158.70 107.34 158.36 106.25 C 158.02 105.17 156.87 104.57 155.79 104.91 L 154.71 105.24 C 153.63 105.58 153.03 106.74 153.37 107.82 C 153.71 108.90 154.86 109.50 155.94 109.16 Z M 156.99 108.84 L 157.99 108.54 C 159.08 108.22 159.70 107.07 159.38 105.98 C 159.06 104.90 157.91 104.27 156.82 104.60 L 155.82 104.89 C 154.73 105.22 154.11 106.36 154.43 107.45 C 154.75 108.54 155.90 109.16 156.99 108.84 Z M 157.98 108.55 L 158.85 108.30 C 159.94 107.98 160.57 106.84 160.26 105.74 C 159.94 104.65 158.80 104.02 157.70 104.34 L 156.84 104.59 C 155.74 104.91 155.11 106.05 155.43 107.14 C 155.75 108.24 156.89 108.87 157.98 108.55 Z M 158.88 108.30 L 159.76 108.03 C 160.85 107.70 161.47 106.54 161.13 105.45 C 160.80 104.36 159.65 103.74 158.55 104.07 L 157.68 104.34 C 156.58 104.67 155.97 105.83 156.30 106.92 C 156.63 108.01 157.79 108.63 158.88 108.30 Z M 159.76 108.05 L 160.88 107.71 C 161.98 107.38 162.61 106.21 162.27 105.10 C 161.93 104.00 160.76 103.37 159.66 103.71 L 158.55 104.05 C 157.44 104.39 156.82 105.56 157.15 106.66 C 157.49 107.77 158.66 108.39 159.76 108.05 Z M 160.61 107.81 L 161.52 107.66 C 162.68 107.47 163.47 106.38 163.28 105.22 C 163.09 104.06 161.99 103.27 160.83 103.46 L 159.93 103.61 C 158.77 103.80 157.98 104.90 158.17 106.06 C 158.36 107.21 159.45 108.00 160.61 107.81 Z M 159.96 107.35 L 160.48 107.70 C 161.47 108.37 162.81 108.12 163.48 107.13 C 164.15 106.15 163.90 104.81 162.91 104.13 L 162.39 103.78 C 161.41 103.11 160.07 103.36 159.39 104.35 C 158.72 105.33 158.98 106.68 159.96 107.35 Z M 159.53 105.64 L 159.40 106.65 C 159.25 107.84 160.09 108.94 161.29 109.09 C 162.48 109.25 163.58 108.41 163.73 107.21 L 163.86 106.20 C 164.02 105.00 163.18 103.91 161.98 103.75 C 160.78 103.60 159.69 104.44 159.53 105.64 Z M 159.54 106.08 L 159.14 107.02 C 158.67 108.14 159.20 109.43 160.32 109.90 C 161.44 110.37 162.73 109.85 163.20 108.73 L 163.59 107.78 C 164.06 106.66 163.54 105.37 162.42 104.90 C 161.30 104.43 160.01 104.96 159.54 106.08 Z M 159.23 106.83 L 158.78 107.68 C 158.20 108.75 158.61 110.09 159.68 110.66 C 160.75 111.24 162.09 110.83 162.66 109.76 L 163.11 108.91 C 163.69 107.84 163.28 106.51 162.21 105.93 C 161.14 105.36 159.80 105.76 159.23 106.83 Z M 158.83 107.58 L 158.29 108.48 C 157.66 109.52 157.99 110.88 159.03 111.51 C 160.07 112.14 161.43 111.80 162.06 110.76 L 162.60 109.86 C 163.23 108.82 162.90 107.46 161.86 106.83 C 160.82 106.20 159.46 106.54 158.83 107.58 Z M 158.32 108.42 L 157.74 109.32 C 157.08 110.35 157.37 111.71 158.39 112.37 C 159.41 113.03 160.78 112.74 161.44 111.72 L 162.02 110.82 C 162.68 109.80 162.39 108.44 161.37 107.77 C 160.35 107.11 158.98 107.40 158.32 108.42 Z M 157.76 109.29 L 157.19 110.14 C 156.51 111.15 156.77 112.52 157.78 113.20 C 158.79 113.88 160.16 113.61 160.84 112.60 L 161.42 111.75 C 162.10 110.75 161.83 109.38 160.82 108.70 C 159.81 108.01 158.44 108.28 157.76 109.29 Z M 157.20 110.12 L 156.62 110.96 C 155.93 111.96 156.18 113.33 157.18 114.02 C 158.18 114.72 159.55 114.47 160.25 113.47 L 160.83 112.63 C 161.52 111.62 161.27 110.25 160.27 109.56 C 159.27 108.87 157.90 109.12 157.20 110.12 Z M 156.63 110.94 L 156.07 111.74 C 155.37 112.74 155.61 114.11 156.60 114.81 C 157.60 115.51 158.97 115.28 159.67 114.28 L 160.23 113.48 C 160.94 112.49 160.70 111.11 159.70 110.41 C 158.71 109.71 157.34 109.95 156.63 110.94 Z M 156.08 111.73 L 155.48 112.57 C 154.77 113.56 155.00 114.93 155.99 115.64 C 156.97 116.35 158.35 116.12 159.06 115.14 L 159.66 114.29 C 160.37 113.31 160.14 111.93 159.15 111.22 C 158.16 110.51 156.79 110.74 156.08 111.73 Z M 155.49 112.55 L 154.90 113.36 C 154.18 114.34 154.39 115.71 155.37 116.43 C 156.35 117.15 157.73 116.94 158.45 115.96 L 159.04 115.15 C 159.76 114.18 159.55 112.80 158.57 112.08 C 157.59 111.36 156.21 111.57 155.49 112.55 Z M 154.93 113.33 L 154.35 114.09 C 153.61 115.05 153.80 116.43 154.77 117.17 C 155.73 117.90 157.11 117.72 157.85 116.75 L 158.42 115.99 C 159.16 115.03 158.97 113.65 158.01 112.91 C 157.04 112.18 155.66 112.36 154.93 113.33 Z M 154.38 114.05 L 153.79 114.79 C 153.04 115.74 153.20 117.13 154.15 117.88 C 155.10 118.63 156.48 118.47 157.23 117.52 L 157.82 116.78 C 158.57 115.83 158.41 114.45 157.46 113.70 C 156.51 112.94 155.13 113.10 154.38 114.05 Z M 153.81 114.77 L 153.19 115.52 C 152.43 116.46 152.57 117.85 153.51 118.61 C 154.45 119.38 155.83 119.24 156.60 118.30 L 157.21 117.55 C 157.98 116.61 157.84 115.22 156.90 114.46 C 155.96 113.69 154.58 113.83 153.81 114.77 Z M 153.20 115.52 L 152.55 116.31 C 151.77 117.24 151.91 118.63 152.84 119.40 C 153.78 120.17 155.16 120.04 155.93 119.10 L 156.59 118.31 C 157.36 117.38 157.23 115.99 156.29 115.22 C 155.36 114.45 153.97 114.58 153.20 115.52 Z M 152.54 116.31 L 151.90 117.09 C 151.13 118.03 151.27 119.41 152.20 120.18 C 153.14 120.95 154.52 120.82 155.29 119.88 L 155.93 119.10 C 156.70 118.17 156.57 116.78 155.63 116.01 C 154.70 115.24 153.32 115.38 152.54 116.31 Z M 151.90 117.09 L 151.28 117.85 C 150.51 118.78 150.65 120.17 151.59 120.93 C 152.52 121.70 153.91 121.57 154.68 120.63 L 155.29 119.88 C 156.06 118.94 155.93 117.56 154.99 116.79 C 154.05 116.02 152.67 116.16 151.90 117.09 Z M 151.29 117.84 L 150.65 118.62 C 149.87 119.55 150.00 120.94 150.94 121.71 C 151.87 122.48 153.25 122.35 154.03 121.42 L 154.67 120.64 C 155.44 119.70 155.31 118.32 154.38 117.55 C 153.44 116.78 152.06 116.91 151.29 117.84 Z M 150.66 118.61 L 149.99 119.40 C 149.21 120.32 149.33 121.71 150.26 122.49 C 151.18 123.27 152.57 123.15 153.35 122.22 L 154.01 121.43 C 154.79 120.50 154.67 119.12 153.75 118.34 C 152.82 117.56 151.44 117.68 150.66 118.61 Z M 150.01 119.38 L 149.36 120.12 C 148.57 121.04 148.68 122.42 149.59 123.22 C 150.51 124.01 151.89 123.91 152.68 122.99 L 153.33 122.24 C 154.12 121.32 154.02 119.94 153.10 119.15 C 152.18 118.36 150.80 118.46 150.01 119.38 Z M 149.38 120.11 L 148.73 120.85 C 147.93 121.76 148.02 123.14 148.93 123.94 C 149.84 124.74 151.22 124.65 152.02 123.74 L 152.67 123.00 C 153.47 122.09 153.38 120.71 152.47 119.91 C 151.56 119.11 150.18 119.20 149.38 120.11 Z M 148.73 120.84 L 148.07 121.59 C 147.26 122.50 147.35 123.89 148.25 124.69 C 149.16 125.49 150.55 125.41 151.35 124.50 L 152.02 123.75 C 152.82 122.84 152.73 121.46 151.83 120.65 C 150.92 119.85 149.53 119.94 148.73 120.84 Z M 148.06 121.60 L 147.39 122.36 C 146.58 123.27 146.67 124.66 147.58 125.46 C 148.48 126.26 149.87 126.18 150.67 125.27 L 151.35 124.50 C 152.15 123.59 152.07 122.21 151.16 121.40 C 150.25 120.60 148.87 120.69 148.06 121.60 Z M 147.38 122.37 L 146.73 123.11 C 145.93 124.02 146.03 125.41 146.94 126.21 C 147.85 127.01 149.24 126.91 150.03 126.00 L 150.68 125.26 C 151.48 124.35 151.39 122.96 150.47 122.17 C 149.56 121.37 148.18 121.46 147.38 122.37 Z M 146.72 123.12 L 146.08 123.87 C 145.28 124.78 145.38 126.17 146.30 126.96 C 147.21 127.76 148.60 127.66 149.39 126.74 L 150.04 125.99 C 150.83 125.08 150.74 123.69 149.82 122.90 C 148.90 122.10 147.52 122.20 146.72 123.12 Z M 146.07 123.87 L 145.42 124.63 C 144.62 125.55 144.73 126.94 145.65 127.73 C 146.56 128.52 147.95 128.42 148.74 127.50 L 149.40 126.74 C 150.19 125.82 150.09 124.43 149.17 123.64 C 148.25 122.85 146.86 122.95 146.07 123.87 Z M 145.41 124.63 L 144.75 125.41 C 143.96 126.33 144.06 127.71 144.98 128.50 C 145.90 129.29 147.29 129.19 148.08 128.27 L 148.74 127.50 C 149.53 126.58 149.43 125.19 148.51 124.40 C 147.59 123.61 146.20 123.71 145.41 124.63 Z M 144.75 125.41 L 144.09 126.17 C 143.30 127.09 143.41 128.48 144.33 129.27 C 145.25 130.06 146.63 129.95 147.42 129.03 L 148.08 128.27 C 148.87 127.35 148.77 125.96 147.85 125.17 C 146.93 124.38 145.54 124.49 144.75 125.41 Z M 144.09 126.17 L 143.44 126.92 C 142.65 127.84 142.75 129.23 143.67 130.02 C 144.59 130.81 145.98 130.71 146.77 129.79 L 147.42 129.04 C 148.21 128.12 148.11 126.73 147.19 125.94 C 146.27 125.15 144.89 125.25 144.09 126.17 Z M 143.45 126.92 L 142.79 127.67 C 142.00 128.59 142.10 129.98 143.01 130.77 C 143.93 131.57 145.32 131.47 146.11 130.55 L 146.77 129.80 C 147.56 128.88 147.46 127.49 146.55 126.69 C 145.63 125.90 144.24 126.00 143.45 126.92 Z M 142.80 127.67 L 142.14 128.42 C 141.34 129.34 141.43 130.73 142.35 131.53 C 143.26 132.32 144.65 132.23 145.45 131.31 L 146.11 130.56 C 146.91 129.64 146.81 128.25 145.90 127.46 C 144.98 126.66 143.59 126.75 142.80 127.67 Z M 142.14 128.41 L 141.48 129.17 C 140.67 130.08 140.76 131.47 141.67 132.27 C 142.59 133.08 143.98 132.99 144.78 132.08 L 145.44 131.32 C 146.25 130.41 146.16 129.02 145.25 128.22 C 144.34 127.41 142.95 127.50 142.14 128.41 Z M 141.49 129.16 L 140.81 129.92 C 140.00 130.83 140.08 132.22 140.99 133.03 C 141.89 133.83 143.29 133.75 144.09 132.85 L 144.77 132.09 C 145.58 131.18 145.50 129.79 144.59 128.98 C 143.69 128.17 142.29 128.25 141.49 129.16 Z M 140.82 129.91 L 140.14 130.66 C 139.32 131.56 139.40 132.96 140.30 133.77 C 141.20 134.58 142.60 134.51 143.41 133.61 L 144.09 132.86 C 144.90 131.95 144.83 130.56 143.93 129.75 C 143.02 128.93 141.63 129.00 140.82 129.91 Z M 140.15 130.65 L 139.47 131.39 C 138.65 132.29 138.72 133.68 139.62 134.50 C 140.52 135.32 141.91 135.26 142.73 134.36 L 143.40 133.62 C 144.22 132.72 144.16 131.32 143.26 130.50 C 142.36 129.69 140.96 129.75 140.15 130.65 Z M 139.48 131.38 L 138.81 132.11 C 137.99 133.00 138.05 134.40 138.95 135.22 C 139.84 136.04 141.24 135.98 142.06 135.09 L 142.73 134.36 C 143.55 133.47 143.49 132.07 142.59 131.25 C 141.69 130.43 140.30 130.49 139.48 131.38 Z M 138.82 132.10 L 138.14 132.84 C 137.31 133.73 137.36 135.13 138.26 135.96 C 139.15 136.78 140.55 136.73 141.37 135.83 L 142.06 135.09 C 142.88 134.20 142.83 132.80 141.93 131.98 C 141.04 131.15 139.64 131.21 138.82 132.10 Z M 138.14 132.84 L 137.45 133.58 C 136.62 134.47 136.67 135.86 137.56 136.69 C 138.46 137.52 139.85 137.47 140.68 136.58 L 141.37 135.84 C 142.20 134.95 142.14 133.55 141.25 132.72 C 140.36 131.89 138.97 131.95 138.14 132.84 Z M 137.45 133.58 L 136.77 134.31 C 135.95 135.20 136.00 136.59 136.89 137.42 C 137.78 138.25 139.17 138.20 140.00 137.31 L 140.68 136.58 C 141.50 135.69 141.45 134.30 140.56 133.47 C 139.67 132.64 138.28 132.69 137.45 133.58 Z M 136.77 134.31 L 136.10 135.03 C 135.28 135.92 135.33 137.31 136.22 138.14 C 137.11 138.97 138.50 138.92 139.33 138.03 L 140.00 137.31 C 140.82 136.41 140.77 135.02 139.88 134.20 C 138.99 133.37 137.60 133.42 136.77 134.31 Z M 136.10 135.04 L 135.41 135.79 C 134.58 136.68 134.64 138.07 135.53 138.89 C 136.42 139.72 137.81 139.66 138.64 138.77 L 139.33 138.02 C 140.16 137.13 140.10 135.74 139.21 134.91 C 138.32 134.09 136.93 134.14 136.10 135.04 Z M 135.41 135.79 L 134.70 136.57 C 133.88 137.46 133.93 138.85 134.83 139.67 C 135.72 140.49 137.11 140.43 137.93 139.54 L 138.64 138.76 C 139.46 137.87 139.40 136.48 138.51 135.66 C 137.61 134.84 136.23 134.90 135.41 135.79 Z M 134.70 136.57 L 134.02 137.31 C 133.20 138.20 133.26 139.59 134.15 140.41 C 135.04 141.23 136.42 141.17 137.24 140.28 L 137.93 139.54 C 138.74 138.65 138.69 137.26 137.80 136.44 C 136.91 135.62 135.52 135.68 134.70 136.57 Z M 134.03 137.30 L 133.39 137.99 C 132.57 138.88 132.62 140.26 133.51 141.08 C 134.39 141.90 135.78 141.85 136.60 140.97 L 137.23 140.28 C 138.06 139.40 138.01 138.01 137.12 137.19 C 136.23 136.37 134.85 136.42 134.03 137.30 Z M 133.42 137.97 L 132.68 138.75 C 131.84 139.62 131.88 141.00 132.75 141.83 C 133.62 142.67 135.00 142.63 135.83 141.76 L 136.57 140.98 C 137.40 140.11 137.37 138.73 136.50 137.90 C 135.63 137.07 134.25 137.10 133.42 137.97 Z M 132.74 138.69 L 132.03 139.39 C 131.17 140.22 131.15 141.59 131.98 142.46 C 132.81 143.32 134.19 143.34 135.05 142.51 L 135.76 141.81 C 136.63 140.98 136.65 139.61 135.81 138.74 C 134.98 137.88 133.61 137.86 132.74 138.69 Z M 132.17 139.28 L 131.46 139.86 C 130.54 140.62 130.41 141.98 131.17 142.90 C 131.93 143.82 133.29 143.95 134.21 143.19 L 134.91 142.61 C 135.83 141.85 135.96 140.49 135.21 139.57 C 134.45 138.65 133.09 138.52 132.17 139.28 Z M 131.66 139.73 L 130.82 140.29 C 129.83 140.93 129.55 142.26 130.20 143.25 C 130.85 144.25 132.18 144.52 133.17 143.87 L 134.02 143.32 C 135.01 142.67 135.28 141.34 134.63 140.35 C 133.98 139.36 132.65 139.08 131.66 139.73 Z M 130.97 140.22 L 130.10 140.69 C 129.07 141.26 128.70 142.56 129.27 143.58 C 129.83 144.61 131.13 144.99 132.16 144.42 L 133.02 143.94 C 134.05 143.37 134.42 142.08 133.86 141.05 C 133.29 140.02 131.99 139.65 130.97 140.22 Z M 130.14 140.69 L 129.94 140.79 C 128.91 141.34 128.51 142.62 129.06 143.65 C 129.60 144.68 130.88 145.08 131.91 144.53 L 132.11 144.43 C 133.15 143.88 133.54 142.60 133.00 141.57 C 132.45 140.54 131.17 140.14 130.14 140.69 Z"
      fill="black"
      fill-rule="nonzero" /><path d="M 146.68 129.03 L 147.29 128.23 C 147.93 127.39 147.76 126.19 146.92 125.55 C 146.08 124.91 144.88 125.07 144.24 125.91 L 143.63 126.71 C 142.99 127.55 143.16 128.75 144.00 129.39 C 144.84 130.03 146.04 129.87 146.68 129.03 Z M 147.22 128.36 L 147.88 127.61 C 148.59 126.81 148.51 125.58 147.71 124.87 C 146.91 124.16 145.68 124.24 144.97 125.04 L 144.31 125.79 C 143.60 126.59 143.68 127.82 144.48 128.53 C 145.28 129.23 146.51 129.16 147.22 128.36 Z M 147.69 127.82 L 148.45 127.18 C 149.28 126.48 149.38 125.24 148.68 124.41 C 147.97 123.59 146.74 123.49 145.91 124.19 L 145.15 124.83 C 144.33 125.53 144.23 126.77 144.93 127.60 C 145.63 128.42 146.87 128.52 147.69 127.82 Z M 148.27 127.34 L 149.10 126.79 C 150.02 126.19 150.27 124.96 149.67 124.05 C 149.07 123.14 147.85 122.88 146.93 123.48 L 146.10 124.03 C 145.18 124.63 144.93 125.86 145.53 126.77 C 146.13 127.68 147.35 127.94 148.27 127.34 Z M 149.03 126.85 L 149.89 126.35 C 150.84 125.79 151.16 124.57 150.60 123.62 C 150.05 122.67 148.83 122.35 147.88 122.91 L 147.01 123.42 C 146.06 123.97 145.74 125.19 146.30 126.14 C 146.86 127.09 148.08 127.41 149.03 126.85 Z M 149.88 126.36 L 150.74 125.86 C 151.70 125.31 152.03 124.09 151.48 123.13 C 150.93 122.18 149.71 121.85 148.75 122.40 L 147.89 122.90 C 146.93 123.44 146.60 124.67 147.15 125.62 C 147.70 126.58 148.92 126.91 149.88 126.36 Z M 150.71 125.88 L 151.59 125.40 C 152.56 124.87 152.91 123.66 152.38 122.69 C 151.85 121.72 150.63 121.37 149.66 121.90 L 148.79 122.38 C 147.82 122.91 147.46 124.12 148.00 125.09 C 148.53 126.06 149.74 126.42 150.71 125.88 Z M 151.52 125.44 L 152.41 124.99 C 153.40 124.50 153.80 123.29 153.30 122.30 C 152.81 121.32 151.60 120.92 150.62 121.41 L 149.73 121.86 C 148.74 122.36 148.34 123.56 148.84 124.55 C 149.33 125.54 150.54 125.94 151.52 125.44 Z M 152.33 125.03 L 153.25 124.63 C 154.26 124.18 154.71 122.99 154.26 121.98 C 153.81 120.97 152.63 120.51 151.62 120.96 L 150.70 121.37 C 149.69 121.82 149.23 123.01 149.68 124.02 C 150.13 125.03 151.32 125.48 152.33 125.03 Z M 153.14 124.68 L 154.09 124.32 C 155.12 123.93 155.65 122.77 155.26 121.73 C 154.86 120.69 153.70 120.17 152.67 120.56 L 151.72 120.91 C 150.68 121.31 150.16 122.47 150.55 123.50 C 150.94 124.54 152.10 125.07 153.14 124.68 Z M 154.00 124.36 L 154.95 124.05 C 156.01 123.71 156.60 122.57 156.25 121.51 C 155.91 120.45 154.77 119.86 153.71 120.21 L 152.75 120.52 C 151.69 120.86 151.11 122.00 151.46 123.06 C 151.80 124.12 152.94 124.70 154.00 124.36 Z M 154.93 124.07 L 155.88 123.78 C 156.95 123.45 157.55 122.32 157.22 121.24 C 156.89 120.17 155.76 119.57 154.68 119.90 L 153.74 120.19 C 152.66 120.52 152.06 121.65 152.39 122.72 C 152.72 123.80 153.85 124.40 154.93 124.07 Z M 155.87 123.79 L 156.83 123.50 C 157.91 123.17 158.52 122.03 158.19 120.95 C 157.87 119.88 156.73 119.27 155.65 119.59 L 154.69 119.89 C 153.61 120.21 153.00 121.35 153.33 122.43 C 153.66 123.51 154.80 124.12 155.87 123.79 Z M 156.78 123.52 L 157.73 123.26 C 158.82 122.97 159.47 121.85 159.17 120.75 C 158.88 119.66 157.75 119.02 156.66 119.31 L 155.71 119.57 C 154.62 119.87 153.97 120.99 154.27 122.08 C 154.56 123.17 155.68 123.82 156.78 123.52 Z M 157.62 123.30 L 158.59 123.10 C 159.70 122.86 160.41 121.78 160.18 120.66 C 159.95 119.55 158.86 118.84 157.75 119.07 L 156.78 119.28 C 155.67 119.51 154.95 120.60 155.19 121.71 C 155.42 122.82 156.51 123.53 157.62 123.30 Z M 158.49 123.13 L 159.48 122.97 C 160.61 122.80 161.38 121.74 161.20 120.61 C 161.03 119.48 159.97 118.71 158.84 118.89 L 157.85 119.04 C 156.72 119.22 155.95 120.28 156.13 121.40 C 156.31 122.53 157.36 123.30 158.49 123.13 Z M 159.40 122.99 L 160.40 122.87 C 161.54 122.74 162.35 121.71 162.22 120.57 C 162.08 119.43 161.05 118.62 159.92 118.75 L 158.92 118.87 C 157.78 119.00 156.97 120.04 157.10 121.17 C 157.24 122.31 158.27 123.12 159.40 122.99 Z M 160.33 122.88 L 161.33 122.80 C 162.47 122.71 163.32 121.70 163.23 120.56 C 163.13 119.42 162.13 118.57 160.98 118.66 L 159.99 118.74 C 158.84 118.84 157.99 119.84 158.09 120.98 C 158.18 122.13 159.19 122.98 160.33 122.88 Z M 161.25 122.81 L 162.25 122.76 C 163.40 122.71 164.29 121.74 164.24 120.60 C 164.19 119.45 163.22 118.56 162.07 118.61 L 161.07 118.65 C 159.92 118.70 159.03 119.67 159.08 120.82 C 159.13 121.97 160.10 122.86 161.25 122.81 Z M 162.11 122.77 L 163.11 122.79 C 164.26 122.82 165.21 121.91 165.24 120.76 C 165.27 119.61 164.35 118.65 163.21 118.63 L 162.21 118.61 C 161.06 118.58 160.11 119.49 160.08 120.64 C 160.05 121.79 160.96 122.74 162.11 122.77 Z M 162.88 122.77 L 163.86 122.91 C 165.00 123.06 166.05 122.26 166.20 121.12 C 166.36 119.98 165.56 118.93 164.42 118.78 L 163.44 118.65 C 162.30 118.49 161.25 119.29 161.10 120.43 C 160.94 121.57 161.74 122.62 162.88 122.77 Z M 163.56 122.85 L 164.52 123.12 C 165.63 123.44 166.78 122.80 167.10 121.70 C 167.42 120.59 166.78 119.44 165.67 119.12 L 164.72 118.84 C 163.61 118.52 162.46 119.16 162.14 120.27 C 161.82 121.37 162.46 122.53 163.56 122.85 Z M 164.21 123.01 L 165.12 123.43 C 166.16 123.92 167.40 123.47 167.89 122.43 C 168.38 121.39 167.93 120.14 166.89 119.65 L 165.98 119.23 C 164.94 118.74 163.70 119.19 163.21 120.23 C 162.72 121.28 163.17 122.52 164.21 123.01 Z M 164.84 123.27 L 165.66 123.83 C 166.61 124.47 167.91 124.22 168.56 123.27 C 169.20 122.31 168.95 121.01 167.99 120.37 L 167.17 119.81 C 166.21 119.17 164.92 119.42 164.27 120.38 C 163.63 121.33 163.88 122.63 164.84 123.27 Z M 165.45 123.67 L 166.20 124.33 C 167.07 125.09 168.39 125.01 169.15 124.14 C 169.91 123.28 169.83 121.96 168.96 121.20 L 168.20 120.53 C 167.34 119.77 166.02 119.85 165.26 120.72 C 164.50 121.59 164.58 122.90 165.45 123.67 Z M 166.04 124.18 L 166.72 124.91 C 167.50 125.77 168.82 125.82 169.67 125.04 C 170.52 124.27 170.58 122.94 169.80 122.09 L 169.12 121.35 C 168.34 120.50 167.02 120.45 166.17 121.22 C 165.32 122.00 165.26 123.32 166.04 124.18 Z M 166.57 124.74 L 167.16 125.55 C 167.85 126.48 169.15 126.68 170.09 126.00 C 171.02 125.31 171.22 124.01 170.54 123.07 L 169.95 122.27 C 169.26 121.34 167.96 121.14 167.02 121.82 C 166.09 122.50 165.89 123.81 166.57 124.74 Z M 167.03 125.34 L 167.52 126.21 C 168.08 127.22 169.36 127.57 170.37 127.01 C 171.37 126.44 171.73 125.17 171.17 124.16 L 170.67 123.28 C 170.11 122.28 168.83 121.92 167.83 122.49 C 166.82 123.05 166.46 124.33 167.03 125.34 Z M 167.40 125.97 L 167.77 126.89 C 168.21 127.97 169.43 128.49 170.50 128.05 C 171.57 127.62 172.09 126.40 171.66 125.33 L 171.28 124.40 C 170.85 123.33 169.63 122.81 168.56 123.24 C 167.49 123.67 166.97 124.89 167.40 125.97 Z M 167.68 126.63 L 167.93 127.59 C 168.21 128.71 169.35 129.39 170.47 129.10 C 171.60 128.82 172.27 127.68 171.99 126.56 L 171.75 125.60 C 171.46 124.47 170.32 123.80 169.20 124.08 C 168.08 124.36 167.40 125.50 167.68 126.63 Z M 167.88 127.34 L 168.01 128.33 C 168.16 129.48 169.21 130.29 170.35 130.14 C 171.50 129.99 172.31 128.94 172.17 127.79 L 172.04 126.80 C 171.89 125.66 170.84 124.84 169.69 124.99 C 168.54 125.14 167.73 126.19 167.88 127.34 Z M 167.99 128.17 L 168.05 129.17 C 168.11 130.33 169.10 131.22 170.25 131.15 C 171.41 131.09 172.30 130.10 172.24 128.95 L 172.18 127.95 C 172.12 126.79 171.13 125.90 169.97 125.97 C 168.82 126.03 167.93 127.02 167.99 128.17 Z M 168.04 129.08 L 168.05 130.07 C 168.06 131.23 169.01 132.16 170.17 132.15 C 171.33 132.14 172.26 131.19 172.25 130.03 L 172.24 129.04 C 172.23 127.88 171.28 126.95 170.12 126.96 C 168.96 126.97 168.03 127.92 168.04 129.08 Z M 168.05 129.96 L 168.01 130.97 C 167.95 132.12 168.85 133.11 170.01 133.16 C 171.17 133.21 172.15 132.32 172.20 131.16 L 172.25 130.15 C 172.30 128.99 171.40 128.01 170.25 127.95 C 169.09 127.90 168.11 128.80 168.05 129.96 Z M 168.02 130.83 L 167.91 131.82 C 167.78 132.97 168.61 134.01 169.76 134.13 C 170.92 134.26 171.95 133.43 172.08 132.28 L 172.19 131.29 C 172.32 130.14 171.49 129.10 170.33 128.97 C 169.18 128.85 168.14 129.68 168.02 130.83 Z M 167.92 131.69 L 167.76 132.68 C 167.56 133.83 168.33 134.91 169.47 135.11 C 170.61 135.30 171.70 134.54 171.89 133.39 L 172.06 132.40 C 172.26 131.26 171.49 130.17 170.35 129.98 C 169.21 129.78 168.12 130.55 167.92 131.69 Z M 167.78 132.57 L 167.56 133.53 C 167.30 134.66 168.01 135.79 169.14 136.05 C 170.27 136.30 171.40 135.59 171.65 134.46 L 171.87 133.50 C 172.13 132.37 171.42 131.25 170.29 130.99 C 169.16 130.73 168.03 131.44 167.78 132.57 Z M 167.58 133.44 L 167.32 134.39 C 167.01 135.51 167.67 136.67 168.79 136.97 C 169.91 137.28 171.06 136.62 171.37 135.50 L 171.63 134.55 C 171.94 133.43 171.28 132.28 170.16 131.97 C 169.04 131.67 167.89 132.32 167.58 133.44 Z M 167.34 134.33 L 167.04 135.31 C 166.70 136.42 167.32 137.59 168.42 137.94 C 169.53 138.28 170.71 137.66 171.05 136.55 L 171.35 135.57 C 171.69 134.46 171.07 133.29 169.97 132.94 C 168.86 132.60 167.68 133.22 167.34 134.33 Z M 167.05 135.27 L 166.74 136.21 C 166.38 137.31 166.98 138.50 168.08 138.86 C 169.18 139.22 170.37 138.62 170.73 137.52 L 171.04 136.59 C 171.40 135.49 170.80 134.30 169.70 133.94 C 168.60 133.57 167.41 134.17 167.05 135.27 Z M 166.75 136.19 L 166.42 137.15 C 166.05 138.25 166.64 139.44 167.74 139.81 C 168.83 140.18 170.03 139.60 170.40 138.50 L 170.72 137.54 C 171.09 136.44 170.51 135.25 169.41 134.88 C 168.31 134.51 167.12 135.09 166.75 136.19 Z M 166.42 137.15 L 166.09 138.11 C 165.72 139.21 166.31 140.40 167.40 140.78 C 168.50 141.15 169.69 140.56 170.07 139.47 L 170.40 138.50 C 170.77 137.41 170.18 136.21 169.09 135.84 C 167.99 135.47 166.80 136.05 166.42 137.15 Z M 166.10 138.11 L 165.77 139.07 C 165.39 140.16 165.97 141.36 167.07 141.73 C 168.16 142.11 169.36 141.53 169.73 140.43 L 170.06 139.47 C 170.44 138.38 169.86 137.18 168.76 136.81 C 167.67 136.43 166.47 137.01 166.10 138.11 Z M 165.78 139.03 L 165.44 139.96 C 165.05 141.05 165.61 142.25 166.70 142.65 C 167.79 143.04 168.99 142.48 169.39 141.39 L 169.72 140.47 C 170.12 139.38 169.56 138.17 168.47 137.78 C 167.38 137.38 166.18 137.94 165.78 139.03 Z M 165.47 139.89 L 165.09 140.82 C 164.66 141.90 165.18 143.12 166.26 143.55 C 167.33 143.98 168.56 143.46 168.99 142.39 L 169.36 141.46 C 169.79 140.38 169.27 139.16 168.20 138.73 C 167.12 138.30 165.90 138.82 165.47 139.89 Z M 165.13 140.74 L 164.72 141.66 C 164.24 142.71 164.71 143.95 165.77 144.43 C 166.82 144.91 168.07 144.44 168.54 143.38 L 168.95 142.47 C 169.43 141.41 168.96 140.17 167.90 139.69 C 166.85 139.22 165.60 139.69 165.13 140.74 Z M 164.75 141.57 L 164.31 142.46 C 163.79 143.49 164.21 144.75 165.24 145.27 C 166.28 145.80 167.54 145.38 168.06 144.34 L 168.50 143.46 C 169.02 142.43 168.61 141.16 167.57 140.64 C 166.54 140.12 165.28 140.54 164.75 141.57 Z M 164.35 142.38 L 163.86 143.26 C 163.30 144.27 163.66 145.55 164.67 146.12 C 165.69 146.68 166.97 146.32 167.53 145.30 L 168.02 144.42 C 168.59 143.41 168.22 142.13 167.21 141.56 C 166.19 141.00 164.91 141.36 164.35 142.38 Z M 163.90 143.19 L 163.38 144.04 C 162.78 145.03 163.10 146.33 164.09 146.93 C 165.08 147.53 166.38 147.22 166.98 146.22 L 167.49 145.37 C 168.10 144.38 167.78 143.08 166.79 142.48 C 165.79 141.88 164.50 142.20 163.90 143.19 Z M 163.41 143.98 L 162.87 144.82 C 162.23 145.79 162.51 147.10 163.49 147.73 C 164.46 148.37 165.77 148.09 166.40 147.12 L 166.95 146.28 C 167.58 145.31 167.31 144.00 166.33 143.36 C 165.35 142.73 164.05 143.01 163.41 143.98 Z M 162.90 144.76 L 162.33 145.58 C 161.67 146.54 161.90 147.85 162.86 148.52 C 163.82 149.18 165.13 148.95 165.80 147.99 L 166.37 147.17 C 167.04 146.21 166.80 144.90 165.84 144.23 C 164.89 143.57 163.57 143.80 162.90 144.76 Z M 162.37 145.53 L 161.77 146.33 C 161.08 147.27 161.28 148.59 162.21 149.29 C 163.15 149.98 164.48 149.78 165.17 148.84 L 165.77 148.04 C 166.46 147.10 166.26 145.78 165.33 145.09 C 164.39 144.39 163.06 144.59 162.37 145.53 Z M 161.81 146.27 L 161.19 147.06 C 160.47 147.98 160.63 149.31 161.54 150.03 C 162.46 150.75 163.79 150.60 164.51 149.68 L 165.13 148.90 C 165.86 147.98 165.70 146.65 164.78 145.93 C 163.87 145.20 162.54 145.36 161.81 146.27 Z M 161.25 146.99 L 160.59 147.76 C 159.83 148.65 159.94 149.98 160.83 150.74 C 161.71 151.50 163.05 151.40 163.81 150.51 L 164.46 149.75 C 165.22 148.86 165.12 147.52 164.23 146.76 C 163.34 146.00 162.01 146.11 161.25 146.99 Z M 160.66 147.68 L 159.98 148.41 C 159.18 149.26 159.22 150.60 160.07 151.40 C 160.92 152.20 162.26 152.16 163.06 151.31 L 163.74 150.58 C 164.54 149.73 164.50 148.39 163.65 147.59 C 162.80 146.79 161.46 146.83 160.66 147.68 Z M 160.05 148.33 L 159.33 149.03 C 158.49 149.84 158.46 151.18 159.27 152.02 C 160.08 152.86 161.42 152.89 162.26 152.08 L 162.98 151.39 C 163.83 150.58 163.85 149.24 163.04 148.39 C 162.23 147.55 160.89 147.53 160.05 148.33 Z M 159.41 148.96 L 158.67 149.60 C 157.79 150.36 157.69 151.70 158.46 152.58 C 159.22 153.46 160.56 153.56 161.44 152.79 L 162.18 152.15 C 163.06 151.39 163.16 150.05 162.39 149.17 C 161.63 148.28 160.29 148.19 159.41 148.96 Z M 158.75 149.54 L 157.98 150.14 C 157.06 150.87 156.90 152.20 157.63 153.11 C 158.35 154.03 159.68 154.18 160.60 153.46 L 161.37 152.85 C 162.28 152.13 162.44 150.80 161.72 149.88 C 160.99 148.97 159.66 148.81 158.75 149.54 Z M 158.04 150.10 L 157.20 150.71 C 156.26 151.40 156.05 152.72 156.74 153.66 C 157.43 154.60 158.75 154.81 159.70 154.12 L 160.53 153.51 C 161.47 152.82 161.68 151.50 160.99 150.56 C 160.30 149.61 158.98 149.41 158.04 150.10 Z M 157.24 150.68 L 156.45 151.24 C 155.49 151.90 155.26 153.22 155.92 154.18 C 156.59 155.13 157.91 155.37 158.86 154.70 L 159.66 154.15 C 160.61 153.48 160.85 152.17 160.18 151.21 C 159.51 150.25 158.20 150.02 157.24 150.68 Z M 156.46 151.23 L 155.63 151.80 C 154.67 152.46 154.43 153.78 155.09 154.74 C 155.75 155.70 157.06 155.94 158.02 155.28 L 158.85 154.71 C 159.81 154.05 160.06 152.73 159.40 151.77 C 158.73 150.81 157.42 150.57 156.46 151.23 Z M 155.61 151.81 L 154.77 152.40 C 153.81 153.07 153.58 154.39 154.25 155.35 C 154.92 156.30 156.24 156.53 157.20 155.86 L 158.04 155.27 C 159.00 154.60 159.23 153.28 158.56 152.32 C 157.89 151.37 156.57 151.14 155.61 151.81 Z M 154.74 152.42 L 153.90 153.03 C 152.96 153.72 152.75 155.04 153.44 155.98 C 154.12 156.93 155.44 157.14 156.39 156.45 L 157.23 155.84 C 158.17 155.15 158.38 153.83 157.69 152.89 C 157.01 151.94 155.68 151.73 154.74 152.42 Z M 153.91 153.02 L 153.09 153.61 C 152.14 154.29 151.92 155.62 152.61 156.56 C 153.29 157.51 154.61 157.73 155.56 157.05 L 156.38 156.46 C 157.33 155.78 157.55 154.45 156.86 153.51 C 156.18 152.56 154.86 152.34 153.91 153.02 Z M 153.16 153.56 L 152.36 154.09 C 151.39 154.73 151.12 156.05 151.76 157.02 C 152.41 158.00 153.72 158.27 154.70 157.62 L 155.49 157.10 C 156.47 156.45 156.74 155.14 156.09 154.16 C 155.45 153.19 154.13 152.92 153.16 153.56 Z M 152.52 154.00 L 151.59 154.50 C 150.56 155.06 150.19 156.35 150.75 157.37 C 151.31 158.40 152.59 158.78 153.62 158.22 L 154.54 157.72 C 155.57 157.16 155.95 155.87 155.39 154.84 C 154.83 153.81 153.54 153.44 152.52 154.00 Z M 151.81 154.40 L 150.91 154.76 C 149.82 155.20 149.30 156.44 149.74 157.52 C 150.18 158.61 151.42 159.13 152.50 158.69 L 153.40 158.32 C 154.49 157.88 155.01 156.65 154.57 155.56 C 154.13 154.48 152.89 153.96 151.81 154.40 Z M 151.15 154.68 L 150.21 154.93 C 149.09 155.24 148.42 156.40 148.72 157.53 C 149.03 158.66 150.19 159.33 151.32 159.02 L 152.26 158.77 C 153.39 158.46 154.05 157.30 153.75 156.17 C 153.44 155.04 152.28 154.37 151.15 154.68 Z M 150.44 154.89 L 149.46 155.04 C 148.30 155.22 147.51 156.31 147.70 157.46 C 147.88 158.62 148.96 159.41 150.12 159.22 L 151.10 159.07 C 152.25 158.89 153.04 157.80 152.86 156.65 C 152.68 155.49 151.59 154.71 150.44 154.89 Z M 149.62 155.02 L 148.62 155.10 C 147.46 155.19 146.59 156.21 146.68 157.37 C 146.77 158.54 147.78 159.41 148.95 159.32 L 149.95 159.24 C 151.12 159.15 151.99 158.14 151.90 156.97 C 151.81 155.80 150.79 154.93 149.62 155.02 Z M 148.74 155.10 L 147.74 155.12 C 146.58 155.15 145.65 156.12 145.68 157.29 C 145.71 158.45 146.68 159.38 147.84 159.35 L 148.84 159.32 C 150.00 159.30 150.93 158.33 150.90 157.16 C 150.87 155.99 149.90 155.07 148.74 155.10 Z M 147.84 155.12 L 146.83 155.10 C 145.67 155.07 144.70 155.99 144.67 157.16 C 144.65 158.33 145.57 159.29 146.73 159.32 L 147.74 159.35 C 148.91 159.37 149.88 158.45 149.90 157.29 C 149.93 156.12 149.01 155.15 147.84 155.12 Z M 146.94 155.11 L 145.94 155.03 C 144.77 154.95 143.76 155.82 143.68 156.98 C 143.59 158.15 144.47 159.16 145.63 159.24 L 146.63 159.31 C 147.79 159.40 148.80 158.53 148.89 157.36 C 148.97 156.20 148.10 155.19 146.94 155.11 Z M 146.09 155.05 L 145.10 154.91 C 143.95 154.74 142.88 155.53 142.71 156.68 C 142.54 157.84 143.34 158.91 144.49 159.08 L 145.48 159.22 C 146.63 159.39 147.70 158.60 147.87 157.44 C 148.04 156.29 147.24 155.22 146.09 155.05 Z M 145.32 154.95 L 144.35 154.70 C 143.23 154.41 142.08 155.09 141.79 156.21 C 141.49 157.34 142.17 158.49 143.30 158.78 L 144.27 159.03 C 145.39 159.32 146.54 158.65 146.83 157.52 C 147.12 156.39 146.45 155.24 145.32 154.95 Z M 144.60 154.78 L 143.66 154.41 C 142.58 153.99 141.36 154.52 140.93 155.60 C 140.50 156.68 141.03 157.90 142.12 158.33 L 143.05 158.70 C 144.13 159.13 145.36 158.60 145.78 157.51 C 146.21 156.43 145.68 155.21 144.60 154.78 Z M 143.87 154.51 L 142.99 154.05 C 141.96 153.51 140.69 153.90 140.15 154.93 C 139.61 155.96 140.00 157.23 141.03 157.77 L 141.91 158.23 C 142.94 158.78 144.21 158.38 144.75 157.35 C 145.29 156.32 144.90 155.05 143.87 154.51 Z M 143.19 154.16 L 142.34 153.59 C 141.37 152.94 140.06 153.20 139.42 154.16 C 138.77 155.13 139.02 156.44 139.99 157.08 L 140.84 157.66 C 141.80 158.30 143.11 158.05 143.76 157.08 C 144.41 156.12 144.15 154.81 143.19 154.16 Z M 142.62 153.82 L 141.92 153.14 C 141.08 152.33 139.75 152.36 138.94 153.19 C 138.13 154.03 138.16 155.36 138.99 156.17 L 139.70 156.85 C 140.54 157.66 141.87 157.64 142.68 156.80 C 143.48 155.96 143.46 154.63 142.62 153.82 Z M 142.26 153.58 L 141.77 152.76 C 141.18 151.76 139.89 151.43 138.89 152.02 C 137.89 152.61 137.56 153.90 138.15 154.90 L 138.64 155.73 C 139.24 156.73 140.53 157.06 141.53 156.47 C 142.53 155.87 142.86 154.58 142.26 153.58 Z M 142.01 153.37 L 141.80 152.41 C 141.55 151.28 140.43 150.56 139.29 150.81 C 138.16 151.07 137.45 152.19 137.70 153.32 L 137.91 154.28 C 138.17 155.42 139.29 156.13 140.42 155.88 C 141.55 155.63 142.27 154.50 142.01 153.37 Z M 141.84 153.07 L 141.94 152.08 C 142.05 150.93 141.21 149.90 140.05 149.79 C 138.90 149.67 137.87 150.52 137.76 151.67 L 137.66 152.66 C 137.55 153.81 138.39 154.84 139.54 154.95 C 140.70 155.07 141.72 154.22 141.84 153.07 Z M 141.83 152.56 L 142.15 151.65 C 142.53 150.55 141.95 149.35 140.85 148.97 C 139.75 148.59 138.56 149.17 138.18 150.27 L 137.86 151.19 C 137.48 152.28 138.06 153.48 139.16 153.86 C 140.26 154.24 141.45 153.66 141.83 152.56 Z M 142.07 151.86 L 142.51 150.93 C 143.01 149.88 142.57 148.62 141.51 148.12 C 140.46 147.62 139.20 148.07 138.70 149.12 L 138.26 150.05 C 137.76 151.11 138.21 152.37 139.26 152.87 C 140.31 153.36 141.57 152.92 142.07 151.86 Z M 142.49 150.99 L 142.68 150.62 C 143.21 149.58 142.80 148.31 141.76 147.78 C 140.72 147.24 139.44 147.66 138.91 148.69 L 138.73 149.06 C 138.19 150.10 138.60 151.37 139.64 151.91 C 140.68 152.44 141.96 152.03 142.49 150.99 Z"
      fill="black"
      fill-rule="nonzero" /><path d="M 143.33 151.91 L 142.35 152.20 C 141.45 152.47 140.94 153.42 141.20 154.32 C 141.47 155.22 142.42 155.74 143.32 155.47 L 144.30 155.18 C 145.20 154.91 145.72 153.96 145.45 153.06 C 145.18 152.15 144.23 151.64 143.33 151.91 Z M 142.58 152.04 L 141.61 152.18 C 140.62 152.33 139.94 153.24 140.08 154.23 C 140.22 155.22 141.14 155.90 142.12 155.76 L 143.09 155.62 C 144.08 155.48 144.77 154.56 144.63 153.58 C 144.48 152.59 143.57 151.90 142.58 152.04 Z M 142.20 152.12 L 141.23 151.95 C 140.21 151.77 139.23 152.45 139.05 153.47 C 138.87 154.49 139.55 155.47 140.57 155.65 L 141.54 155.82 C 142.56 156.00 143.54 155.32 143.72 154.30 C 143.90 153.28 143.22 152.30 142.20 152.12 Z M 142.12 152.32 L 141.37 151.70 C 140.55 151.02 139.34 151.14 138.67 151.95 C 137.99 152.77 138.11 153.98 138.92 154.66 L 139.67 155.28 C 140.49 155.95 141.70 155.84 142.38 155.02 C 143.05 154.21 142.94 153.00 142.12 152.32 Z M 141.98 152.54 L 141.67 151.66 C 141.32 150.65 140.21 150.12 139.20 150.47 C 138.19 150.83 137.66 151.93 138.01 152.94 L 138.32 153.82 C 138.67 154.83 139.78 155.36 140.79 155.01 C 141.80 154.65 142.33 153.55 141.98 152.54 Z M 141.78 152.13 L 141.68 151.10 C 141.59 150.03 140.64 149.24 139.57 149.34 C 138.50 149.43 137.72 150.38 137.81 151.45 L 137.91 152.48 C 138.00 153.55 138.95 154.34 140.02 154.24 C 141.08 154.14 141.87 153.20 141.78 152.13 Z M 141.69 151.26 L 141.68 150.20 C 141.68 149.12 140.80 148.26 139.73 148.27 C 138.65 148.28 137.79 149.15 137.80 150.23 L 137.80 151.29 C 137.81 152.36 138.69 153.22 139.76 153.22 C 140.84 153.21 141.70 152.33 141.69 151.26 Z M 141.68 150.25 L 141.70 149.22 C 141.72 148.14 140.87 147.26 139.80 147.24 C 138.72 147.22 137.84 148.07 137.82 149.14 L 137.80 150.17 C 137.78 151.25 138.63 152.14 139.70 152.16 C 140.78 152.18 141.66 151.32 141.68 150.25 Z M 141.70 149.38 L 141.79 148.43 C 141.90 147.36 141.12 146.41 140.05 146.30 C 138.98 146.20 138.03 146.98 137.92 148.04 L 137.82 148.99 C 137.72 150.05 138.50 151.01 139.56 151.12 C 140.63 151.22 141.59 150.44 141.70 149.38 Z M 141.75 148.70 L 141.99 147.75 C 142.24 146.70 141.60 145.64 140.55 145.39 C 139.50 145.13 138.45 145.77 138.19 146.82 L 137.96 147.77 C 137.70 148.82 138.34 149.88 139.39 150.14 C 140.44 150.39 141.50 149.75 141.75 148.70 Z M 141.93 147.99 L 142.28 147.05 C 142.67 146.03 142.16 144.89 141.15 144.51 C 140.13 144.12 138.99 144.63 138.61 145.64 L 138.25 146.58 C 137.86 147.60 138.37 148.74 139.39 149.12 C 140.40 149.51 141.54 149.00 141.93 147.99 Z M 142.23 147.21 L 142.66 146.31 C 143.14 145.32 142.73 144.14 141.74 143.66 C 140.76 143.18 139.58 143.60 139.10 144.58 L 138.66 145.48 C 138.19 146.47 138.60 147.65 139.58 148.13 C 140.57 148.60 141.75 148.19 142.23 147.21 Z M 142.61 146.43 L 143.11 145.56 C 143.65 144.60 143.31 143.39 142.36 142.84 C 141.40 142.30 140.19 142.64 139.65 143.59 L 139.15 144.46 C 138.61 145.42 138.94 146.63 139.90 147.17 C 140.85 147.72 142.07 147.38 142.61 146.43 Z M 143.05 145.66 L 143.60 144.81 C 144.20 143.89 143.93 142.65 143.01 142.06 C 142.08 141.46 140.85 141.72 140.25 142.64 L 139.70 143.49 C 139.10 144.41 139.37 145.65 140.29 146.25 C 141.22 146.85 142.45 146.58 143.05 145.66 Z M 143.55 144.89 L 144.13 144.08 C 144.78 143.18 144.57 141.93 143.67 141.29 C 142.77 140.64 141.52 140.85 140.88 141.75 L 140.29 142.57 C 139.65 143.47 139.86 144.72 140.76 145.36 C 141.66 146.00 142.91 145.79 143.55 144.89 Z M 144.11 144.12 L 144.71 143.33 C 145.37 142.44 145.20 141.18 144.31 140.52 C 143.43 139.85 142.17 140.03 141.50 140.91 L 140.90 141.71 C 140.24 142.59 140.41 143.85 141.30 144.52 C 142.18 145.18 143.44 145.01 144.11 144.12 Z M 144.69 143.35 L 145.31 142.56 C 145.99 141.68 145.83 140.42 144.95 139.74 C 144.08 139.06 142.81 139.22 142.13 140.10 L 141.52 140.89 C 140.84 141.76 141.00 143.03 141.87 143.71 C 142.75 144.39 144.01 144.23 144.69 143.35 Z M 145.28 142.59 L 145.91 141.81 C 146.61 140.95 146.47 139.69 145.61 138.99 C 144.74 138.29 143.48 138.43 142.78 139.29 L 142.16 140.07 C 141.46 140.93 141.60 142.19 142.46 142.89 C 143.32 143.59 144.59 143.45 145.28 142.59 Z M 145.88 141.86 L 146.53 141.10 C 147.25 140.25 147.15 138.98 146.30 138.26 C 145.46 137.54 144.19 137.64 143.46 138.48 L 142.81 139.25 C 142.09 140.09 142.19 141.36 143.04 142.08 C 143.88 142.81 145.15 142.71 145.88 141.86 Z M 146.47 141.17 L 147.15 140.44 C 147.91 139.63 147.87 138.35 147.06 137.59 C 146.24 136.82 144.96 136.87 144.20 137.68 L 143.52 138.41 C 142.76 139.23 142.80 140.51 143.62 141.27 C 144.43 142.03 145.71 141.99 146.47 141.17 Z M 147.06 140.54 L 147.79 139.86 C 148.60 139.10 148.65 137.82 147.88 137.00 C 147.12 136.18 145.84 136.14 145.02 136.90 L 144.30 137.58 C 143.48 138.34 143.43 139.63 144.20 140.44 C 144.96 141.26 146.24 141.31 147.06 140.54 Z M 147.59 140.03 L 148.40 139.44 C 149.31 138.79 149.52 137.52 148.86 136.61 C 148.20 135.70 146.93 135.50 146.03 136.15 L 145.22 136.74 C 144.31 137.40 144.10 138.66 144.76 139.57 C 145.41 140.48 146.68 140.68 147.59 140.03 Z M 148.10 139.63 L 148.95 139.22 C 149.96 138.73 150.38 137.51 149.89 136.50 C 149.40 135.49 148.18 135.07 147.17 135.56 L 146.33 135.97 C 145.32 136.46 144.89 137.68 145.39 138.69 C 145.88 139.70 147.09 140.12 148.10 139.63 Z M 148.64 139.34 L 149.58 139.06 C 150.66 138.74 151.28 137.61 150.96 136.53 C 150.64 135.45 149.51 134.84 148.43 135.15 L 147.48 135.43 C 146.40 135.75 145.79 136.89 146.11 137.97 C 146.42 139.04 147.56 139.66 148.64 139.34 Z M 149.33 139.12 L 150.39 138.95 C 151.50 138.77 152.26 137.72 152.08 136.61 C 151.90 135.49 150.85 134.74 149.73 134.92 L 148.68 135.09 C 147.57 135.27 146.81 136.32 146.99 137.44 C 147.17 138.55 148.22 139.30 149.33 139.12 Z M 150.19 138.98 L 151.21 138.91 C 152.34 138.85 153.20 137.88 153.13 136.75 C 153.06 135.62 152.09 134.77 150.96 134.83 L 149.94 134.90 C 148.81 134.96 147.96 135.93 148.02 137.06 C 148.09 138.19 149.06 139.04 150.19 138.98 Z M 150.94 138.91 L 151.95 138.99 C 153.07 139.07 154.05 138.23 154.14 137.10 C 154.22 135.97 153.37 134.99 152.25 134.91 L 151.24 134.84 C 150.11 134.75 149.13 135.60 149.05 136.72 C 148.97 137.85 149.81 138.83 150.94 138.91 Z M 151.49 138.91 L 152.42 139.20 C 153.50 139.53 154.65 138.93 154.99 137.85 C 155.32 136.77 154.72 135.62 153.64 135.28 L 152.71 134.99 C 151.62 134.66 150.48 135.26 150.14 136.34 C 149.80 137.42 150.41 138.57 151.49 138.91 Z M 151.82 138.90 L 152.63 139.49 C 153.55 140.16 154.83 139.96 155.51 139.04 C 156.18 138.12 155.97 136.83 155.05 136.16 L 154.24 135.57 C 153.32 134.90 152.03 135.10 151.36 136.02 C 150.69 136.94 150.90 138.23 151.82 138.90 Z M 152.23 139.15 L 152.85 139.90 C 153.59 140.79 154.90 140.91 155.78 140.18 C 156.67 139.45 156.79 138.14 156.06 137.25 L 155.44 136.50 C 154.71 135.62 153.40 135.49 152.51 136.22 C 151.63 136.96 151.50 138.27 152.23 139.15 Z M 152.68 139.69 L 153.21 140.55 C 153.82 141.53 155.12 141.83 156.10 141.22 C 157.08 140.61 157.39 139.31 156.77 138.33 L 156.24 137.47 C 155.63 136.49 154.33 136.19 153.35 136.80 C 152.37 137.41 152.07 138.70 152.68 139.69 Z M 153.06 140.28 L 153.45 141.19 C 153.91 142.26 155.16 142.75 156.23 142.28 C 157.30 141.82 157.79 140.57 157.32 139.50 L 156.93 138.59 C 156.47 137.52 155.22 137.03 154.15 137.50 C 153.08 137.96 152.59 139.21 153.06 140.28 Z M 153.31 140.80 L 153.52 141.75 C 153.77 142.89 154.90 143.62 156.05 143.37 C 157.19 143.12 157.92 141.99 157.67 140.84 L 157.46 139.89 C 157.21 138.75 156.08 138.02 154.93 138.27 C 153.79 138.52 153.06 139.65 153.31 140.80 Z M 153.48 141.38 L 153.52 142.38 C 153.56 143.55 154.55 144.46 155.72 144.41 C 156.89 144.37 157.80 143.38 157.75 142.21 L 157.71 141.21 C 157.67 140.04 156.68 139.13 155.51 139.18 C 154.34 139.23 153.43 140.21 153.48 141.38 Z M 153.53 142.13 L 153.45 143.14 C 153.36 144.30 154.23 145.32 155.40 145.41 C 156.56 145.50 157.58 144.63 157.67 143.46 L 157.74 142.46 C 157.83 141.29 156.96 140.28 155.80 140.19 C 154.63 140.10 153.62 140.97 153.53 142.13 Z M 153.48 142.96 L 153.32 143.94 C 153.13 145.09 153.91 146.18 155.06 146.36 C 156.21 146.55 157.29 145.77 157.48 144.62 L 157.64 143.64 C 157.83 142.49 157.05 141.41 155.90 141.22 C 154.75 141.03 153.66 141.81 153.48 142.96 Z M 153.36 143.78 L 153.12 144.76 C 152.84 145.89 153.53 147.03 154.66 147.31 C 155.79 147.58 156.93 146.89 157.20 145.76 L 157.44 144.78 C 157.72 143.65 157.03 142.51 155.90 142.24 C 154.77 141.96 153.63 142.65 153.36 143.78 Z M 153.16 144.61 L 152.85 145.57 C 152.49 146.67 153.10 147.86 154.20 148.21 C 155.31 148.57 156.49 147.97 156.85 146.86 L 157.16 145.91 C 157.52 144.81 156.91 143.62 155.81 143.26 C 154.70 142.91 153.52 143.51 153.16 144.61 Z M 152.90 145.44 L 152.53 146.38 C 152.10 147.46 152.63 148.68 153.71 149.10 C 154.79 149.53 156.01 149.00 156.43 147.92 L 156.80 146.99 C 157.23 145.91 156.70 144.69 155.62 144.26 C 154.54 143.83 153.32 144.36 152.90 145.44 Z M 152.57 146.27 L 152.16 147.18 C 151.67 148.23 152.14 149.48 153.19 149.96 C 154.25 150.44 155.49 149.98 155.98 148.93 L 156.39 148.02 C 156.87 146.97 156.41 145.72 155.36 145.24 C 154.30 144.76 153.06 145.22 152.57 146.27 Z M 152.20 147.08 L 151.75 147.95 C 151.21 148.98 151.61 150.25 152.64 150.79 C 153.67 151.32 154.94 150.92 155.48 149.90 L 155.93 149.02 C 156.47 147.99 156.07 146.72 155.04 146.19 C 154.01 145.65 152.74 146.05 152.20 147.08 Z M 151.80 147.86 L 151.29 148.74 C 150.70 149.74 151.04 151.03 152.04 151.62 C 153.05 152.20 154.33 151.86 154.92 150.86 L 155.43 149.98 C 156.01 148.98 155.67 147.69 154.67 147.11 C 153.67 146.52 152.38 146.86 151.80 147.86 Z M 151.32 148.67 L 150.81 149.49 C 150.18 150.47 150.47 151.77 151.46 152.39 C 152.44 153.02 153.74 152.72 154.36 151.74 L 154.88 150.93 C 155.50 149.95 155.21 148.64 154.23 148.02 C 153.25 147.40 151.95 147.69 151.32 148.67 Z M 150.84 149.43 L 150.27 150.26 C 149.62 151.23 149.87 152.54 150.84 153.19 C 151.81 153.85 153.12 153.59 153.77 152.63 L 154.33 151.80 C 154.99 150.83 154.73 149.52 153.77 148.87 C 152.80 148.21 151.49 148.47 150.84 149.43 Z M 150.30 150.22 L 149.70 151.06 C 149.02 152.01 149.24 153.34 150.19 154.01 C 151.14 154.69 152.46 154.47 153.14 153.52 L 153.75 152.67 C 154.43 151.72 154.20 150.40 153.25 149.72 C 152.30 149.04 150.98 149.26 150.30 150.22 Z M 149.72 151.02 L 149.11 151.84 C 148.41 152.78 148.60 154.11 149.54 154.81 C 150.48 155.51 151.81 155.31 152.51 154.37 L 153.12 153.56 C 153.82 152.62 153.63 151.29 152.69 150.59 C 151.75 149.89 150.42 150.08 149.72 151.02 Z M 149.13 151.81 L 148.51 152.60 C 147.80 153.53 147.97 154.87 148.90 155.59 C 149.83 156.30 151.16 156.13 151.88 155.20 L 152.50 154.40 C 153.21 153.48 153.04 152.14 152.11 151.42 C 151.18 150.70 149.85 150.88 149.13 151.81 Z M 148.53 152.58 L 147.92 153.34 C 147.19 154.26 147.34 155.60 148.26 156.34 C 149.18 157.07 150.52 156.92 151.25 156.00 L 151.86 155.23 C 152.60 154.31 152.44 152.97 151.52 152.24 C 150.60 151.50 149.26 151.65 148.53 152.58 Z M 147.94 153.31 L 147.30 154.09 C 146.55 155.00 146.68 156.35 147.59 157.10 C 148.50 157.84 149.85 157.71 150.60 156.80 L 151.24 156.02 C 151.99 155.11 151.85 153.77 150.94 153.02 C 150.03 152.27 148.68 152.40 147.94 153.31 Z M 147.31 154.06 L 146.68 154.81 C 145.91 155.72 146.03 157.07 146.93 157.83 C 147.83 158.60 149.18 158.48 149.95 157.58 L 150.58 156.83 C 151.35 155.92 151.23 154.57 150.33 153.81 C 149.43 153.05 148.08 153.16 147.31 154.06 Z M 146.69 154.79 L 146.05 155.53 C 145.28 156.42 145.38 157.78 146.27 158.55 C 147.17 159.33 148.53 159.23 149.30 158.33 L 149.94 157.60 C 150.71 156.70 150.61 155.35 149.72 154.57 C 148.82 153.80 147.46 153.90 146.69 154.79 Z M 146.05 155.52 L 145.43 156.24 C 144.65 157.14 144.74 158.50 145.64 159.28 C 146.53 160.06 147.89 159.96 148.67 159.07 L 149.30 158.34 C 150.08 157.45 149.99 156.09 149.09 155.31 C 148.19 154.53 146.84 154.62 146.05 155.52 Z M 145.41 156.25 L 144.75 157.02 C 143.97 157.93 144.07 159.29 144.97 160.07 C 145.88 160.84 147.24 160.74 148.02 159.84 L 148.69 159.06 C 149.46 158.16 149.36 156.79 148.46 156.02 C 147.55 155.24 146.19 155.34 145.41 156.25 Z M 144.72 157.04 L 144.06 157.83 C 143.29 158.74 143.41 160.11 144.33 160.88 C 145.24 161.64 146.61 161.52 147.38 160.61 L 148.04 159.82 C 148.81 158.91 148.69 157.54 147.77 156.77 C 146.86 156.00 145.49 156.12 144.72 157.04 Z M 144.04 157.84 L 143.43 158.59 C 142.67 159.52 142.80 160.88 143.73 161.64 C 144.66 162.40 146.02 162.27 146.78 161.34 L 147.40 160.59 C 148.15 159.67 148.02 158.30 147.09 157.54 C 146.17 156.78 144.80 156.92 144.04 157.84 Z M 143.42 158.60 L 142.78 159.38 C 142.03 160.31 142.17 161.68 143.10 162.43 C 144.03 163.19 145.40 163.05 146.16 162.12 L 146.79 161.34 C 147.55 160.41 147.41 159.04 146.48 158.28 C 145.55 157.52 144.18 157.66 143.42 158.60 Z M 142.78 159.37 L 142.13 160.17 C 141.37 161.11 141.51 162.48 142.44 163.24 C 143.37 164.00 144.74 163.86 145.50 162.93 L 146.16 162.12 C 146.92 161.19 146.78 159.82 145.85 159.06 C 144.91 158.30 143.54 158.44 142.78 159.37 Z M 142.13 160.16 L 141.49 160.93 C 140.73 161.86 140.86 163.24 141.79 164.01 C 142.72 164.77 144.09 164.64 144.86 163.71 L 145.50 162.94 C 146.27 162.01 146.14 160.63 145.21 159.87 C 144.28 159.10 142.90 159.23 142.13 160.16 Z M 141.50 160.92 L 140.86 161.68 C 140.09 162.61 140.21 163.99 141.14 164.76 C 142.06 165.54 143.44 165.41 144.22 164.49 L 144.85 163.73 C 145.63 162.80 145.51 161.42 144.58 160.65 C 143.65 159.87 142.28 159.99 141.50 160.92 Z M 140.87 161.67 L 140.22 162.44 C 139.44 163.36 139.56 164.74 140.48 165.52 C 141.41 166.30 142.79 166.19 143.57 165.26 L 144.21 164.50 C 144.99 163.57 144.88 162.19 143.95 161.41 C 143.03 160.63 141.65 160.75 140.87 161.67 Z M 140.22 162.43 L 139.57 163.20 C 138.78 164.13 138.90 165.51 139.82 166.29 C 140.74 167.08 142.13 166.96 142.91 166.04 L 143.57 165.27 C 144.35 164.34 144.24 162.96 143.31 162.18 C 142.39 161.39 141.01 161.51 140.22 162.43 Z M 139.57 163.20 L 138.92 163.96 C 138.13 164.89 138.25 166.27 139.17 167.06 C 140.09 167.84 141.48 167.73 142.27 166.81 L 142.91 166.04 C 143.70 165.12 143.59 163.73 142.66 162.95 C 141.74 162.16 140.35 162.28 139.57 163.20 Z M 138.92 163.96 L 138.27 164.72 C 137.48 165.64 137.59 167.03 138.52 167.82 C 139.44 168.61 140.83 168.50 141.62 167.57 L 142.26 166.81 C 143.05 165.89 142.94 164.50 142.02 163.71 C 141.09 162.92 139.71 163.03 138.92 163.96 Z M 138.28 164.71 L 137.62 165.47 C 136.83 166.39 136.93 167.78 137.85 168.57 C 138.77 169.37 140.16 169.26 140.96 168.34 L 141.61 167.58 C 142.40 166.66 142.30 165.27 141.38 164.48 C 140.46 163.68 139.07 163.79 138.28 164.71 Z M 137.63 165.45 L 136.97 166.21 C 136.17 167.12 136.26 168.51 137.18 169.32 C 138.09 170.12 139.48 170.03 140.29 169.11 L 140.95 168.36 C 141.75 167.44 141.66 166.05 140.74 165.25 C 139.83 164.44 138.43 164.54 137.63 165.45 Z M 136.98 166.19 L 136.32 166.92 C 135.51 167.83 135.59 169.23 136.49 170.04 C 137.40 170.85 138.80 170.78 139.61 169.87 L 140.27 169.13 C 141.08 168.22 141.01 166.83 140.10 166.02 C 139.19 165.20 137.80 165.28 136.98 166.19 Z M 136.34 166.90 L 135.68 167.62 C 134.85 168.52 134.91 169.92 135.80 170.74 C 136.70 171.57 138.10 171.51 138.92 170.62 L 139.59 169.89 C 140.42 169.00 140.36 167.60 139.46 166.77 C 138.57 165.95 137.17 166.00 136.34 166.90 Z M 135.70 167.60 L 135.01 168.32 C 134.17 169.20 134.20 170.60 135.09 171.44 C 135.97 172.28 137.37 172.25 138.21 171.37 L 138.90 170.65 C 139.74 169.76 139.71 168.36 138.82 167.52 C 137.94 166.68 136.54 166.71 135.70 167.60 Z M 135.04 168.29 L 134.33 169.01 C 133.47 169.87 133.48 171.27 134.34 172.13 C 135.21 172.99 136.61 172.98 137.47 172.12 L 138.18 171.40 C 139.04 170.53 139.03 169.13 138.17 168.27 C 137.30 167.41 135.90 167.42 135.04 168.29 Z M 134.36 168.97 L 133.62 169.69 C 132.74 170.54 132.72 171.94 133.57 172.82 C 134.42 173.70 135.82 173.72 136.69 172.87 L 137.44 172.15 C 138.31 171.30 138.34 169.90 137.49 169.02 C 136.64 168.15 135.24 168.12 134.36 168.97 Z M 133.65 169.66 L 132.88 170.38 C 131.99 171.21 131.94 172.61 132.78 173.50 C 133.61 174.40 135.01 174.44 135.90 173.61 L 136.66 172.90 C 137.56 172.07 137.61 170.67 136.77 169.77 C 135.94 168.88 134.54 168.83 133.65 169.66 Z M 132.91 170.35 L 132.15 171.04 C 131.24 171.85 131.17 173.25 131.99 174.16 C 132.81 175.07 134.20 175.14 135.11 174.32 L 135.87 173.64 C 136.78 172.82 136.85 171.42 136.04 170.51 C 135.22 169.61 133.82 169.53 132.91 170.35 Z M 132.18 171.01 L 131.45 171.65 C 130.53 172.45 130.43 173.85 131.23 174.77 C 132.03 175.69 133.43 175.79 134.35 174.98 L 135.08 174.35 C 136.00 173.54 136.10 172.15 135.30 171.23 C 134.50 170.31 133.10 170.21 132.18 171.01 Z M 131.48 171.62 L 130.71 172.27 C 129.78 173.05 129.65 174.44 130.44 175.38 C 131.22 176.31 132.61 176.44 133.55 175.65 L 134.32 175.01 C 135.25 174.23 135.37 172.84 134.59 171.90 C 133.81 170.97 132.42 170.84 131.48 171.62 Z M 130.78 172.23 L 129.95 172.88 C 128.99 173.63 128.82 175.01 129.57 175.96 C 130.32 176.92 131.70 177.09 132.65 176.34 L 133.48 175.69 C 134.44 174.94 134.60 173.56 133.86 172.61 C 133.11 171.65 131.73 171.49 130.78 172.23 Z M 130.04 172.83 L 129.27 173.38 C 128.29 174.07 128.06 175.43 128.75 176.41 C 129.44 177.39 130.80 177.63 131.78 176.93 L 132.56 176.39 C 133.54 175.69 133.77 174.34 133.08 173.35 C 132.38 172.37 131.03 172.14 130.04 172.83 Z M 129.40 173.33 L 128.60 173.82 C 127.59 174.45 127.28 175.77 127.90 176.78 C 128.53 177.79 129.85 178.10 130.86 177.48 L 131.66 176.98 C 132.67 176.36 132.98 175.03 132.36 174.02 C 131.73 173.01 130.41 172.70 129.40 173.33 Z M 128.72 173.80 L 127.85 174.28 C 126.83 174.84 126.45 176.11 127.01 177.14 C 127.56 178.16 128.84 178.53 129.86 177.98 L 130.74 177.50 C 131.76 176.94 132.14 175.66 131.58 174.64 C 131.02 173.62 129.74 173.24 128.72 173.80 Z M 127.94 174.30 L 127.04 174.75 C 126.03 175.26 125.62 176.49 126.13 177.50 C 126.64 178.51 127.87 178.92 128.88 178.41 L 129.78 177.96 C 130.79 177.45 131.19 176.22 130.69 175.21 C 130.18 174.20 128.95 173.79 127.94 174.30 Z M 127.08 174.77 L 126.74 174.94 C 125.74 175.43 125.33 176.63 125.82 177.63 C 126.31 178.63 127.51 179.04 128.51 178.55 L 128.85 178.38 C 129.84 177.89 130.25 176.69 129.76 175.69 C 129.28 174.70 128.07 174.28 127.08 174.77 Z"
      fill="black"
      fill-rule="nonzero" /><path d="M 130.49 178.11 L 130.56 177.13 C 130.63 176.12 129.86 175.24 128.85 175.17 C 127.84 175.10 126.96 175.87 126.89 176.88 L 126.83 177.85 C 126.76 178.86 127.52 179.74 128.53 179.81 C 129.54 179.88 130.42 179.12 130.49 178.11 Z M 130.56 177.44 L 130.79 176.47 C 131.04 175.45 130.41 174.43 129.40 174.19 C 128.38 173.95 127.37 174.58 127.12 175.59 L 126.89 176.57 C 126.65 177.58 127.27 178.60 128.29 178.84 C 129.30 179.08 130.32 178.46 130.56 177.44 Z M 130.66 176.91 L 131.05 176.17 C 131.53 175.23 131.17 174.07 130.22 173.58 C 129.28 173.09 128.13 173.46 127.64 174.40 L 127.25 175.15 C 126.77 176.09 127.14 177.25 128.08 177.73 C 129.02 178.22 130.18 177.85 130.66 176.91 Z M 130.85 176.48 L 131.42 175.77 C 132.07 174.93 131.93 173.72 131.10 173.06 C 130.26 172.40 129.05 172.55 128.39 173.38 L 127.83 174.09 C 127.17 174.93 127.31 176.14 128.15 176.80 C 128.98 177.46 130.20 177.31 130.85 176.48 Z M 131.25 175.95 L 132.05 175.17 C 132.82 174.42 132.83 173.20 132.08 172.44 C 131.34 171.68 130.12 171.67 129.36 172.41 L 128.55 173.20 C 127.79 173.94 127.78 175.16 128.52 175.92 C 129.27 176.69 130.49 176.70 131.25 175.95 Z M 131.95 175.27 L 132.79 174.56 C 133.61 173.87 133.71 172.65 133.02 171.84 C 132.34 171.02 131.12 170.92 130.30 171.60 L 129.46 172.31 C 128.64 173.00 128.54 174.22 129.23 175.04 C 129.92 175.85 131.14 175.96 131.95 175.27 Z M 132.74 174.61 L 133.52 174.00 C 134.36 173.34 134.51 172.12 133.85 171.28 C 133.19 170.44 131.97 170.29 131.13 170.95 L 130.35 171.56 C 129.51 172.21 129.36 173.43 130.02 174.27 C 130.68 175.12 131.90 175.26 132.74 174.61 Z M 133.49 174.02 L 134.32 173.40 C 135.18 172.76 135.35 171.54 134.71 170.68 C 134.07 169.83 132.85 169.65 132.00 170.29 L 131.16 170.92 C 130.30 171.56 130.13 172.78 130.77 173.64 C 131.42 174.49 132.63 174.67 133.49 174.02 Z M 134.30 173.42 L 135.15 172.80 C 136.02 172.17 136.21 170.96 135.58 170.09 C 134.95 169.22 133.73 169.03 132.86 169.66 L 132.02 170.27 C 131.15 170.91 130.95 172.12 131.59 172.99 C 132.22 173.86 133.43 174.05 134.30 173.42 Z M 135.13 172.82 L 135.95 172.24 C 136.83 171.62 137.04 170.40 136.41 169.52 C 135.79 168.64 134.57 168.44 133.70 169.06 L 132.88 169.64 C 132.00 170.27 131.79 171.48 132.42 172.36 C 133.04 173.24 134.26 173.44 135.13 172.82 Z M 135.94 172.25 L 136.81 171.64 C 137.70 171.03 137.92 169.81 137.30 168.92 C 136.68 168.04 135.46 167.82 134.58 168.44 L 133.71 169.05 C 132.82 169.67 132.61 170.88 133.22 171.77 C 133.84 172.65 135.06 172.87 135.94 172.25 Z M 136.81 171.65 L 137.70 171.03 C 138.59 170.42 138.81 169.21 138.20 168.32 C 137.59 167.43 136.37 167.20 135.48 167.82 L 134.59 168.43 C 133.70 169.04 133.48 170.26 134.09 171.15 C 134.70 172.04 135.92 172.26 136.81 171.65 Z M 137.70 171.03 L 138.49 170.49 C 139.37 169.88 139.60 168.66 138.98 167.77 C 138.37 166.88 137.15 166.66 136.27 167.28 L 135.48 167.82 C 134.59 168.43 134.37 169.65 134.99 170.54 C 135.60 171.42 136.82 171.65 137.70 171.03 Z M 138.51 170.47 L 139.23 169.96 C 140.11 169.34 140.31 168.12 139.69 167.24 C 139.06 166.36 137.84 166.15 136.96 166.78 L 136.24 167.29 C 135.36 167.92 135.16 169.14 135.78 170.02 C 136.41 170.90 137.63 171.10 138.51 170.47 Z M 139.27 169.93 L 140.03 169.36 C 140.89 168.72 141.06 167.49 140.42 166.63 C 139.77 165.77 138.54 165.59 137.68 166.24 L 136.92 166.81 C 136.06 167.45 135.89 168.68 136.53 169.54 C 137.18 170.41 138.41 170.58 139.27 169.93 Z M 140.06 169.34 L 140.84 168.73 C 141.68 168.06 141.83 166.84 141.17 165.99 C 140.50 165.14 139.27 164.99 138.42 165.66 L 137.65 166.27 C 136.80 166.93 136.65 168.16 137.32 169.01 C 137.98 169.86 139.21 170.01 140.06 169.34 Z M 140.85 168.71 L 141.65 168.08 C 142.49 167.40 142.62 166.17 141.94 165.33 C 141.27 164.49 140.04 164.36 139.20 165.03 L 138.40 165.67 C 137.56 166.35 137.43 167.58 138.11 168.42 C 138.78 169.26 140.01 169.39 140.85 168.71 Z M 141.65 168.07 L 142.46 167.42 C 143.30 166.74 143.43 165.51 142.75 164.67 C 142.07 163.83 140.84 163.70 140.00 164.38 L 139.19 165.04 C 138.35 165.72 138.23 166.95 138.91 167.78 C 139.58 168.62 140.81 168.75 141.65 168.07 Z M 142.46 167.42 L 143.27 166.77 C 144.11 166.09 144.24 164.86 143.56 164.02 C 142.89 163.18 141.66 163.05 140.82 163.72 L 140.01 164.38 C 139.17 165.05 139.03 166.28 139.71 167.12 C 140.39 167.96 141.62 168.10 142.46 167.42 Z M 143.25 166.78 L 144.05 166.15 C 144.89 165.48 145.04 164.26 144.37 163.41 C 143.70 162.56 142.47 162.42 141.63 163.09 L 140.83 163.71 C 139.99 164.38 139.84 165.61 140.51 166.46 C 141.18 167.30 142.41 167.45 143.25 166.78 Z M 144.02 166.17 L 144.77 165.60 C 145.62 164.95 145.79 163.72 145.13 162.87 C 144.48 162.01 143.25 161.84 142.40 162.50 L 141.65 163.07 C 140.79 163.72 140.63 164.95 141.28 165.80 C 141.94 166.66 143.16 166.83 144.02 166.17 Z M 144.69 165.67 L 145.62 165.04 C 146.51 164.43 146.74 163.20 146.13 162.31 C 145.51 161.41 144.29 161.18 143.39 161.79 L 142.47 162.43 C 141.57 163.04 141.35 164.27 141.96 165.16 C 142.57 166.06 143.80 166.29 144.69 165.67 Z M 145.32 165.24 L 146.16 164.86 C 147.17 164.42 147.62 163.23 147.17 162.23 C 146.72 161.22 145.54 160.77 144.53 161.22 L 143.69 161.59 C 142.69 162.04 142.23 163.22 142.68 164.23 C 143.13 165.24 144.31 165.69 145.32 165.24 Z M 145.46 165.06 L 146.38 165.01 C 147.50 164.95 148.35 164.00 148.29 162.88 C 148.23 161.77 147.28 160.91 146.16 160.97 L 145.24 161.02 C 144.12 161.08 143.27 162.04 143.33 163.15 C 143.39 164.27 144.34 165.12 145.46 165.06 Z M 145.52 164.88 L 146.44 165.25 C 147.48 165.67 148.67 165.16 149.09 164.12 C 149.50 163.07 148.99 161.88 147.95 161.47 L 147.03 161.10 C 145.98 160.68 144.80 161.19 144.38 162.23 C 143.96 163.28 144.47 164.47 145.52 164.88 Z M 145.69 164.75 L 146.35 165.46 C 147.12 166.29 148.41 166.34 149.24 165.57 C 150.07 164.81 150.12 163.51 149.36 162.68 L 148.70 161.97 C 147.93 161.14 146.63 161.09 145.80 161.85 C 144.97 162.62 144.92 163.92 145.69 164.75 Z M 145.98 164.91 L 146.39 165.82 C 146.85 166.85 148.07 167.32 149.10 166.85 C 150.13 166.39 150.60 165.17 150.13 164.14 L 149.72 163.23 C 149.26 162.20 148.04 161.73 147.01 162.20 C 145.98 162.66 145.51 163.88 145.98 164.91 Z M 146.29 165.55 L 146.57 166.54 C 146.88 167.63 148.02 168.25 149.11 167.94 C 150.20 167.63 150.83 166.49 150.52 165.40 L 150.23 164.41 C 149.92 163.32 148.78 162.69 147.69 163.01 C 146.60 163.32 145.97 164.46 146.29 165.55 Z M 146.54 166.44 L 146.77 167.39 C 147.03 168.50 148.13 169.18 149.24 168.92 C 150.34 168.66 151.03 167.55 150.77 166.45 L 150.54 165.50 C 150.28 164.39 149.18 163.71 148.07 163.97 C 146.97 164.23 146.28 165.34 146.54 166.44 Z M 146.75 167.32 L 146.95 168.30 C 147.16 169.41 148.24 170.14 149.35 169.92 C 150.47 169.71 151.19 168.63 150.98 167.51 L 150.78 166.53 C 150.57 165.42 149.49 164.69 148.37 164.91 C 147.26 165.12 146.54 166.20 146.75 167.32 Z M 146.93 168.23 L 147.09 169.21 C 147.27 170.33 148.33 171.09 149.44 170.91 C 150.56 170.73 151.33 169.68 151.15 168.56 L 150.99 167.58 C 150.81 166.46 149.75 165.70 148.63 165.88 C 147.51 166.06 146.75 167.12 146.93 168.23 Z M 147.09 169.17 L 147.23 170.17 C 147.39 171.29 148.42 172.07 149.55 171.91 C 150.67 171.76 151.45 170.72 151.29 169.60 L 151.15 168.60 C 150.99 167.48 149.95 166.70 148.83 166.86 C 147.71 167.01 146.93 168.05 147.09 169.17 Z M 147.23 170.15 L 147.36 171.16 C 147.51 172.29 148.54 173.07 149.67 172.92 C 150.79 172.77 151.58 171.74 151.43 170.62 L 151.29 169.61 C 151.14 168.49 150.11 167.70 148.99 167.85 C 147.86 168.00 147.08 169.03 147.23 170.15 Z M 147.36 171.17 L 147.50 172.14 C 147.65 173.26 148.69 174.04 149.81 173.89 C 150.93 173.73 151.71 172.70 151.56 171.58 L 151.42 170.61 C 151.27 169.49 150.23 168.71 149.11 168.86 C 147.99 169.02 147.21 170.05 147.36 171.17 Z M 147.50 172.19 L 147.67 173.16 C 147.85 174.28 148.91 175.03 150.02 174.85 C 151.14 174.66 151.90 173.61 151.71 172.49 L 151.55 171.52 C 151.36 170.40 150.31 169.65 149.19 169.83 C 148.07 170.02 147.32 171.07 147.50 172.19 Z M 147.68 173.26 L 147.90 174.28 C 148.14 175.38 149.23 176.09 150.34 175.85 C 151.45 175.61 152.15 174.52 151.91 173.41 L 151.69 172.39 C 151.45 171.29 150.36 170.58 149.26 170.82 C 148.15 171.06 147.44 172.15 147.68 173.26 Z M 147.93 174.40 L 148.26 175.58 C 148.57 176.67 149.70 177.30 150.80 176.99 C 151.89 176.69 152.52 175.55 152.21 174.46 L 151.88 173.29 C 151.57 172.20 150.44 171.56 149.35 171.87 C 148.26 172.18 147.62 173.31 147.93 174.40 Z M 148.33 175.78 L 148.71 176.72 C 149.12 177.78 150.32 178.29 151.37 177.87 C 152.43 177.46 152.94 176.26 152.52 175.21 L 152.15 174.26 C 151.73 173.21 150.53 172.69 149.48 173.11 C 148.43 173.53 147.91 174.72 148.33 175.78 Z M 149.31 177.55 L 149.72 177.89 C 150.60 178.61 151.90 178.49 152.62 177.61 C 153.34 176.73 153.21 175.44 152.33 174.72 L 151.92 174.38 C 151.04 173.66 149.75 173.78 149.03 174.66 C 148.31 175.54 148.43 176.83 149.31 177.55 Z M 152.85 177.26 L 153.29 176.41 C 153.81 175.41 153.42 174.17 152.42 173.64 C 151.42 173.12 150.18 173.51 149.65 174.51 L 149.21 175.36 C 148.69 176.36 149.08 177.60 150.08 178.12 C 151.08 178.65 152.32 178.26 152.85 177.26 Z M 153.41 176.10 L 153.76 175.06 C 154.11 173.98 153.52 172.83 152.45 172.47 C 151.38 172.12 150.22 172.71 149.87 173.78 L 149.53 174.82 C 149.17 175.90 149.76 177.05 150.83 177.41 C 151.91 177.76 153.06 177.17 153.41 176.10 Z M 153.74 175.09 L 154.07 174.15 C 154.44 173.08 153.87 171.91 152.81 171.54 C 151.74 171.18 150.57 171.74 150.20 172.81 L 149.88 173.75 C 149.51 174.82 150.08 175.98 151.14 176.35 C 152.21 176.72 153.38 176.15 153.74 175.09 Z M 154.06 174.18 L 154.41 173.23 C 154.79 172.17 154.25 171.00 153.19 170.61 C 152.13 170.22 150.95 170.76 150.57 171.82 L 150.22 172.77 C 149.83 173.83 150.37 175.01 151.43 175.40 C 152.49 175.79 153.67 175.24 154.06 174.18 Z M 154.39 173.26 L 154.75 172.33 C 155.16 171.28 154.63 170.09 153.58 169.69 C 152.52 169.28 151.34 169.81 150.94 170.86 L 150.58 171.79 C 150.17 172.85 150.70 174.03 151.75 174.43 C 152.81 174.84 153.99 174.31 154.39 173.26 Z M 154.74 172.35 L 155.11 171.41 C 155.53 170.36 155.02 169.18 153.97 168.76 C 152.92 168.34 151.74 168.86 151.32 169.90 L 150.95 170.84 C 150.53 171.89 151.04 173.08 152.09 173.49 C 153.14 173.91 154.32 173.40 154.74 172.35 Z M 155.11 171.42 L 155.47 170.52 C 155.90 169.47 155.39 168.29 154.35 167.86 C 153.31 167.44 152.12 167.94 151.70 168.98 L 151.33 169.89 C 150.90 170.93 151.41 172.12 152.45 172.55 C 153.49 172.97 154.68 172.47 155.11 171.42 Z M 155.47 170.53 L 155.84 169.61 C 156.27 168.57 155.77 167.38 154.73 166.96 C 153.69 166.53 152.50 167.02 152.08 168.06 L 151.70 168.98 C 151.27 170.02 151.77 171.21 152.81 171.63 C 153.85 172.06 155.04 171.57 155.47 170.53 Z M 155.84 169.62 L 156.23 168.66 C 156.66 167.63 156.17 166.44 155.13 166.01 C 154.09 165.58 152.90 166.07 152.48 167.11 L 152.08 168.06 C 151.65 169.10 152.14 170.29 153.18 170.72 C 154.22 171.15 155.41 170.65 155.84 169.62 Z M 156.23 168.67 L 156.62 167.75 C 157.05 166.71 156.56 165.52 155.53 165.09 C 154.49 164.65 153.30 165.14 152.87 166.18 L 152.48 167.10 C 152.05 168.14 152.53 169.33 153.57 169.76 C 154.61 170.19 155.80 169.71 156.23 168.67 Z M 156.60 167.78 L 157.01 166.84 C 157.46 165.81 156.99 164.62 155.96 164.17 C 154.93 163.72 153.73 164.19 153.28 165.22 L 152.88 166.15 C 152.43 167.18 152.90 168.38 153.93 168.83 C 154.96 169.27 156.16 168.80 156.60 167.78 Z M 156.99 166.90 L 157.42 165.99 C 157.90 164.98 157.47 163.76 156.45 163.28 C 155.44 162.80 154.22 163.23 153.74 164.25 L 153.31 165.16 C 152.83 166.17 153.26 167.39 154.27 167.87 C 155.29 168.35 156.50 167.92 156.99 166.90 Z M 157.36 166.10 L 157.87 165.19 C 158.41 164.21 158.05 162.97 157.07 162.42 C 156.08 161.88 154.84 162.24 154.30 163.22 L 153.80 164.14 C 153.25 165.12 153.61 166.36 154.60 166.90 C 155.58 167.45 156.82 167.09 157.36 166.10 Z M 157.76 165.36 L 158.30 164.57 C 158.94 163.64 158.71 162.38 157.78 161.74 C 156.85 161.10 155.58 161.34 154.94 162.27 L 154.40 163.05 C 153.76 163.98 154.00 165.25 154.93 165.89 C 155.86 166.53 157.13 166.29 157.76 165.36 Z M 158.13 164.80 L 158.77 164.10 C 159.54 163.27 159.48 161.97 158.65 161.21 C 157.82 160.45 156.52 160.50 155.76 161.34 L 155.12 162.04 C 154.35 162.87 154.41 164.16 155.24 164.93 C 156.08 165.69 157.37 165.63 158.13 164.80 Z M 158.45 164.40 L 159.25 163.84 C 160.18 163.19 160.41 161.91 159.75 160.98 C 159.10 160.05 157.82 159.82 156.89 160.47 L 156.09 161.03 C 155.16 161.68 154.93 162.96 155.58 163.89 C 156.23 164.82 157.52 165.05 158.45 164.40 Z M 158.78 164.10 L 159.73 163.75 C 160.80 163.36 161.36 162.18 160.97 161.10 C 160.58 160.03 159.39 159.47 158.32 159.86 L 157.37 160.21 C 156.29 160.60 155.74 161.79 156.13 162.86 C 156.52 163.93 157.70 164.49 158.78 164.10 Z M 159.30 163.88 L 160.29 163.75 C 161.43 163.60 162.23 162.55 162.08 161.41 C 161.93 160.27 160.88 159.46 159.74 159.61 L 158.75 159.74 C 157.61 159.89 156.81 160.94 156.96 162.08 C 157.11 163.22 158.16 164.03 159.30 163.88 Z M 159.87 163.78 L 160.88 163.85 C 162.04 163.93 163.05 163.06 163.13 161.90 C 163.21 160.74 162.34 159.73 161.18 159.65 L 160.16 159.58 C 159.00 159.50 158.00 160.37 157.92 161.53 C 157.83 162.69 158.71 163.70 159.87 163.78 Z M 160.36 163.76 L 161.31 164.08 C 162.42 164.45 163.62 163.85 163.99 162.74 C 164.36 161.63 163.76 160.42 162.65 160.05 L 161.70 159.74 C 160.59 159.37 159.39 159.97 159.02 161.08 C 158.65 162.19 159.25 163.39 160.36 163.76 Z M 160.80 163.85 L 161.63 164.39 C 162.61 165.04 163.94 164.77 164.59 163.79 C 165.24 162.81 164.97 161.48 163.98 160.83 L 163.16 160.29 C 162.17 159.64 160.85 159.91 160.20 160.89 C 159.55 161.87 159.82 163.20 160.80 163.85 Z M 161.33 164.17 L 162.05 164.86 C 162.91 165.67 164.26 165.64 165.08 164.79 C 165.90 163.93 165.87 162.57 165.01 161.75 L 164.29 161.06 C 163.43 160.24 162.07 160.27 161.26 161.13 C 160.44 161.99 160.47 163.35 161.33 164.17 Z M 161.90 164.72 L 162.55 165.46 C 163.33 166.36 164.69 166.46 165.59 165.67 C 166.49 164.89 166.58 163.53 165.80 162.64 L 165.16 161.89 C 164.38 160.99 163.02 160.90 162.12 161.68 C 161.22 162.46 161.12 163.82 161.90 164.72 Z M 162.47 165.37 L 163.08 166.15 C 163.81 167.09 165.16 167.26 166.11 166.53 C 167.05 165.80 167.22 164.44 166.49 163.50 L 165.88 162.72 C 165.15 161.78 163.79 161.61 162.85 162.34 C 161.91 163.07 161.74 164.43 162.47 165.37 Z M 163.02 166.09 L 163.62 166.92 C 164.32 167.89 165.67 168.11 166.64 167.41 C 167.61 166.72 167.83 165.36 167.13 164.39 L 166.54 163.57 C 165.84 162.60 164.49 162.37 163.52 163.07 C 162.55 163.77 162.33 165.12 163.02 166.09 Z M 163.59 166.88 L 164.12 167.65 C 164.80 168.63 166.15 168.88 167.13 168.20 C 168.11 167.53 168.36 166.18 167.69 165.19 L 167.16 164.43 C 166.48 163.44 165.13 163.19 164.15 163.87 C 163.16 164.55 162.92 165.90 163.59 166.88 Z M 164.11 167.63 L 164.65 168.43 C 165.32 169.43 166.66 169.69 167.65 169.02 C 168.65 168.35 168.91 167.01 168.24 166.02 L 167.70 165.21 C 167.03 164.22 165.69 163.96 164.69 164.62 C 163.70 165.29 163.44 166.64 164.11 167.63 Z M 164.64 168.43 L 165.22 169.30 C 165.89 170.29 167.23 170.56 168.23 169.90 C 169.22 169.24 169.49 167.89 168.83 166.90 L 168.25 166.02 C 167.58 165.03 166.24 164.76 165.24 165.42 C 164.25 166.08 163.98 167.43 164.64 168.43 Z M 165.22 169.30 L 165.80 170.17 C 166.46 171.16 167.81 171.44 168.80 170.77 C 169.80 170.11 170.07 168.77 169.41 167.77 L 168.83 166.90 C 168.17 165.90 166.82 165.63 165.83 166.29 C 164.83 166.95 164.56 168.30 165.22 169.30 Z M 165.80 170.17 L 166.36 171.01 C 167.02 172.00 168.37 172.27 169.37 171.61 C 170.36 170.94 170.63 169.60 169.97 168.60 L 169.41 167.76 C 168.74 166.77 167.40 166.50 166.40 167.17 C 165.40 167.83 165.14 169.18 165.80 170.17 Z M 166.37 171.02 L 166.94 171.87 C 167.61 172.86 168.96 173.12 169.95 172.45 C 170.94 171.78 171.20 170.43 170.53 169.44 L 169.96 168.59 C 169.29 167.60 167.94 167.34 166.95 168.01 C 165.96 168.68 165.70 170.03 166.37 171.02 Z M 166.95 171.88 L 167.52 172.71 C 168.20 173.70 169.55 173.94 170.54 173.26 C 171.52 172.58 171.77 171.23 171.09 170.25 L 170.52 169.42 C 169.84 168.44 168.49 168.19 167.50 168.87 C 166.52 169.55 166.27 170.90 166.95 171.88 Z M 167.54 172.74 L 168.14 173.58 C 168.84 174.56 170.19 174.78 171.16 174.09 C 172.14 173.39 172.37 172.04 171.67 171.07 L 171.07 170.22 C 170.38 169.25 169.02 169.02 168.05 169.71 C 167.07 170.41 166.85 171.76 167.54 172.74 Z M 168.17 173.62 L 168.80 174.46 C 169.51 175.42 170.87 175.62 171.83 174.91 C 172.79 174.19 172.99 172.84 172.27 171.88 L 171.65 171.03 C 170.93 170.07 169.57 169.87 168.61 170.59 C 167.65 171.30 167.45 172.66 168.17 173.62 Z M 168.83 174.50 L 169.43 175.27 C 170.16 176.21 171.52 176.38 172.47 175.64 C 173.41 174.91 173.58 173.55 172.84 172.60 L 172.24 171.84 C 171.51 170.89 170.15 170.73 169.20 171.46 C 168.26 172.20 168.09 173.56 168.83 174.50 Z M 169.46 175.31 L 170.05 176.02 C 170.80 176.95 172.17 177.09 173.09 176.33 C 174.02 175.57 174.15 174.21 173.40 173.28 L 172.81 172.56 C 172.05 171.64 170.69 171.50 169.76 172.26 C 168.84 173.02 168.70 174.38 169.46 175.31 Z M 170.09 176.07 L 170.77 176.86 C 171.55 177.76 172.91 177.86 173.82 177.08 C 174.72 176.29 174.82 174.93 174.04 174.03 L 173.36 173.24 C 172.57 172.34 171.21 172.24 170.31 173.02 C 169.40 173.80 169.31 175.16 170.09 176.07 Z M 170.84 176.93 L 171.52 177.64 C 172.34 178.50 173.70 178.54 174.57 177.72 C 175.43 176.90 175.46 175.53 174.64 174.67 L 173.97 173.96 C 173.15 173.09 171.78 173.06 170.92 173.88 C 170.05 174.70 170.02 176.06 170.84 176.93 Z M 171.63 177.74 L 172.36 178.40 C 173.23 179.20 174.59 179.14 175.39 178.27 C 176.19 177.40 176.13 176.04 175.26 175.24 L 174.53 174.57 C 173.66 173.77 172.30 173.83 171.50 174.70 C 170.70 175.58 170.76 176.94 171.63 177.74 Z M 172.56 178.54 L 173.38 179.13 C 174.33 179.82 175.66 179.61 176.35 178.66 C 177.03 177.71 176.82 176.39 175.87 175.70 L 175.05 175.10 C 174.10 174.41 172.78 174.63 172.09 175.57 C 171.40 176.52 171.61 177.85 172.56 178.54 Z M 173.76 179.31 L 174.63 179.72 C 175.68 180.20 176.92 179.74 177.40 178.69 C 177.88 177.64 177.42 176.40 176.38 175.92 L 175.50 175.52 C 174.45 175.04 173.21 175.50 172.73 176.54 C 172.25 177.59 172.71 178.83 173.76 179.31 Z M 175.15 179.81 L 176.12 179.98 C 177.21 180.17 178.26 179.44 178.46 178.34 C 178.65 177.24 177.92 176.19 176.82 176.00 L 175.85 175.83 C 174.75 175.63 173.71 176.37 173.51 177.47 C 173.32 178.57 174.05 179.61 175.15 179.81 Z M 176.45 179.90 L 177.46 179.91 C 178.52 179.92 179.38 179.06 179.39 178.01 C 179.40 176.95 178.54 176.08 177.48 176.08 L 176.48 176.07 C 175.42 176.07 174.56 176.92 174.55 177.98 C 174.54 179.03 175.40 179.90 176.45 179.90 Z M 177.55 179.84 L 177.92 179.82 C 178.94 179.78 179.73 178.92 179.69 177.90 C 179.65 176.89 178.79 176.09 177.77 176.14 L 177.40 176.15 C 176.38 176.19 175.59 177.05 175.63 178.07 C 175.67 179.09 176.53 179.88 177.55 179.84 Z"
      fill="black"
      fill-rule="nonzero" /></svg>