<svg xmlns="http://www.w3.org/2000/svg" width="300" height="300" viewBox="0 0 300 300">
<path d="M 142.25 139.18 L 143.15 138.82 C 144.11 138.43 144.57 137.33 144.18 136.37 C 143.79 135.41 142.70 134.95 141.74 135.34 L 140.84 135.70 C 139.88 136.09 139.42 137.18 139.81 138.15 C 140.19 139.11 141.29 139.57 142.25 139.18 Z M 143.19 138.79 L 144.10 138.39 C 145.05 137.98 145.49 136.88 145.07 135.93 C 144.66 134.99 143.56 134.55 142.61 134.96 L 141.70 135.36 C 140.75 135.77 140.32 136.87 140.73 137.82 C 141.14 138.77 142.24 139.20 143.19 138.79 Z M 144.17 138.35 L 145.08 137.91 C 146.01 137.46 146.39 136.34 145.94 135.42 C 145.49 134.50 144.38 134.11 143.46 134.56 L 142.55 135.01 C 141.62 135.46 141.24 136.57 141.69 137.49 C 142.14 138.42 143.25 138.80 144.17 138.35 Z M 145.14 137.85 L 146.01 137.38 C 146.90 136.90 147.23 135.79 146.75 134.90 C 146.27 134.01 145.15 133.67 144.26 134.15 L 143.40 134.62 C 142.51 135.10 142.17 136.22 142.66 137.11 C 143.14 138.00 144.25 138.33 145.14 137.85 Z M 146.03 137.33 L 146.91 136.83 C 147.78 136.33 148.08 135.23 147.58 134.36 C 147.08 133.50 145.98 133.20 145.12 133.70 L 144.24 134.21 C 143.37 134.70 143.07 135.80 143.57 136.67 C 144.07 137.53 145.17 137.83 146.03 137.33 Z M 146.92 136.79 L 147.80 136.27 C 148.64 135.77 148.92 134.68 148.42 133.84 C 147.92 132.99 146.83 132.72 145.99 133.22 L 145.11 133.74 C 144.27 134.24 143.99 135.32 144.49 136.17 C 144.99 137.01 146.08 137.29 146.92 136.79 Z M 147.80 136.25 L 148.65 135.73 C 149.48 135.23 149.75 134.16 149.26 133.33 C 148.76 132.50 147.68 132.23 146.85 132.72 L 145.99 133.24 C 145.16 133.73 144.89 134.81 145.39 135.64 C 145.89 136.47 146.96 136.74 147.80 136.25 Z M 148.64 135.72 L 149.50 135.21 C 150.33 134.72 150.60 133.65 150.11 132.82 C 149.61 132.00 148.54 131.73 147.72 132.22 L 146.86 132.73 C 146.04 133.22 145.77 134.29 146.26 135.12 C 146.75 135.94 147.82 136.21 148.64 135.72 Z M 149.48 135.21 L 150.34 134.70 C 151.17 134.22 151.45 133.16 150.96 132.34 C 150.48 131.52 149.42 131.24 148.60 131.72 L 147.74 132.22 C 146.92 132.71 146.64 133.76 147.12 134.59 C 147.60 135.41 148.66 135.69 149.48 135.21 Z M 150.32 134.70 L 151.19 134.21 C 152.01 133.74 152.30 132.70 151.84 131.87 C 151.37 131.05 150.32 130.76 149.50 131.23 L 148.63 131.72 C 147.80 132.19 147.51 133.23 147.98 134.06 C 148.45 134.88 149.49 135.17 150.32 134.70 Z M 151.16 134.22 L 152.04 133.74 C 152.87 133.29 153.17 132.25 152.72 131.42 C 152.27 130.60 151.23 130.29 150.40 130.74 L 149.53 131.22 C 148.70 131.67 148.39 132.71 148.84 133.54 C 149.29 134.36 150.33 134.67 151.16 134.22 Z M 152.00 133.75 L 152.89 133.29 C 153.72 132.86 154.05 131.83 153.62 131.00 C 153.19 130.16 152.16 129.84 151.33 130.27 L 150.44 130.73 C 149.61 131.16 149.28 132.19 149.71 133.02 C 150.15 133.86 151.17 134.18 152.00 133.75 Z M 152.86 133.30 L 153.74 132.86 C 154.58 132.45 154.93 131.44 154.52 130.60 C 154.10 129.76 153.09 129.41 152.25 129.82 L 151.36 130.26 C 150.52 130.67 150.18 131.69 150.59 132.53 C 151.00 133.37 152.02 133.71 152.86 133.30 Z M 153.71 132.88 L 154.61 132.46 C 155.46 132.06 155.83 131.06 155.43 130.21 C 155.04 129.36 154.03 129.00 153.19 129.39 L 152.28 129.81 C 151.44 130.20 151.07 131.21 151.46 132.06 C 151.86 132.90 152.86 133.27 153.71 132.88 Z M 154.58 132.47 L 155.51 132.06 C 156.36 131.68 156.75 130.69 156.37 129.84 C 155.99 128.98 155.00 128.60 154.15 128.97 L 153.22 129.38 C 152.37 129.76 151.98 130.75 152.36 131.60 C 152.73 132.46 153.73 132.84 154.58 132.47 Z M 155.48 132.08 L 156.42 131.68 C 157.29 131.32 157.69 130.33 157.33 129.47 C 156.97 128.61 155.98 128.20 155.12 128.56 L 154.17 128.96 C 153.31 129.32 152.91 130.31 153.27 131.17 C 153.63 132.03 154.62 132.44 155.48 132.08 Z M 156.40 131.70 L 157.35 131.33 C 158.22 130.98 158.65 129.99 158.30 129.12 C 157.96 128.24 156.97 127.82 156.09 128.16 L 155.14 128.54 C 154.27 128.88 153.84 129.87 154.19 130.75 C 154.53 131.62 155.52 132.05 156.40 131.70 Z M 157.31 131.36 L 158.23 131.02 C 159.12 130.69 159.58 129.70 159.25 128.81 C 158.92 127.92 157.93 127.47 157.04 127.80 L 156.12 128.13 C 155.23 128.46 154.78 129.45 155.11 130.34 C 155.44 131.23 156.42 131.68 157.31 131.36 Z M 158.18 131.10 L 159.30 130.74 C 160.23 130.44 160.75 129.44 160.45 128.51 C 160.15 127.58 159.15 127.06 158.22 127.36 L 157.10 127.72 C 156.17 128.01 155.65 129.01 155.95 129.94 C 156.25 130.88 157.24 131.39 158.18 131.10 Z M 158.91 130.94 L 159.83 130.87 C 160.88 130.78 161.65 129.87 161.57 128.83 C 161.49 127.78 160.58 127.00 159.53 127.09 L 158.61 127.16 C 157.57 127.24 156.79 128.15 156.87 129.20 C 156.95 130.24 157.86 131.02 158.91 130.94 Z M 157.97 130.03 L 158.28 130.53 C 158.86 131.47 160.10 131.76 161.05 131.18 C 161.99 130.60 162.28 129.36 161.70 128.41 L 161.39 127.92 C 160.81 126.97 159.57 126.68 158.63 127.27 C 157.68 127.85 157.39 129.09 157.97 130.03 Z M 157.96 129.08 L 157.78 130.02 C 157.56 131.14 158.30 132.23 159.42 132.44 C 160.54 132.66 161.62 131.92 161.84 130.80 L 162.02 129.86 C 162.23 128.74 161.50 127.66 160.38 127.44 C 159.26 127.23 158.18 127.96 157.96 129.08 Z M 157.83 129.72 L 157.43 130.86 C 157.05 131.95 157.63 133.14 158.72 133.53 C 159.81 133.91 161.00 133.33 161.39 132.24 L 161.78 131.10 C 162.17 130.01 161.59 128.82 160.50 128.44 C 159.41 128.05 158.21 128.63 157.83 129.72 Z M 157.43 130.81 L 157.11 131.68 C 156.70 132.78 157.25 133.99 158.34 134.40 C 159.43 134.81 160.65 134.26 161.06 133.17 L 161.38 132.29 C 161.79 131.20 161.24 129.98 160.15 129.57 C 159.06 129.16 157.84 129.72 157.43 130.81 Z M 157.10 131.69 L 156.76 132.61 C 156.35 133.70 156.91 134.92 158.01 135.32 C 159.10 135.73 160.32 135.17 160.72 134.08 L 161.06 133.16 C 161.47 132.07 160.91 130.85 159.82 130.44 C 158.72 130.04 157.50 130.60 157.10 131.69 Z M 156.74 132.63 L 156.39 133.63 C 156.00 134.73 156.58 135.94 157.68 136.33 C 158.78 136.73 159.99 136.15 160.38 135.05 L 160.74 134.05 C 161.13 132.95 160.55 131.74 159.45 131.35 C 158.35 130.95 157.14 131.53 156.74 132.63 Z M 156.37 133.66 L 156.06 134.60 C 155.69 135.71 156.29 136.92 157.40 137.29 C 158.51 137.66 159.71 137.06 160.09 135.95 L 160.40 135.01 C 160.77 133.90 160.17 132.70 159.06 132.33 C 157.95 131.95 156.75 132.55 156.37 133.66 Z M 156.05 134.63 L 155.75 135.56 C 155.39 136.68 156.01 137.88 157.12 138.23 C 158.24 138.59 159.44 137.98 159.80 136.86 L 160.10 135.92 C 160.46 134.81 159.84 133.61 158.72 133.25 C 157.60 132.89 156.41 133.51 156.05 134.63 Z M 155.74 135.57 L 155.44 136.54 C 155.08 137.67 155.71 138.86 156.83 139.21 C 157.95 139.57 159.14 138.94 159.50 137.82 L 159.80 136.85 C 160.16 135.73 159.53 134.53 158.41 134.18 C 157.29 133.83 156.10 134.45 155.74 135.57 Z M 155.43 136.54 L 155.12 137.53 C 154.77 138.65 155.39 139.85 156.52 140.20 C 157.64 140.55 158.84 139.93 159.19 138.81 L 159.50 137.82 C 159.85 136.70 159.23 135.50 158.11 135.15 C 156.98 134.80 155.79 135.42 155.43 136.54 Z M 155.12 137.52 L 154.80 138.53 C 154.44 139.65 155.06 140.86 156.18 141.22 C 157.30 141.57 158.51 140.96 158.87 139.83 L 159.19 138.82 C 159.55 137.70 158.93 136.49 157.81 136.13 C 156.69 135.77 155.48 136.39 155.12 137.52 Z M 154.80 138.51 L 154.46 139.54 C 154.10 140.66 154.71 141.87 155.83 142.24 C 156.95 142.61 158.16 142.00 158.53 140.88 L 158.86 139.85 C 159.23 138.73 158.62 137.52 157.50 137.15 C 156.38 136.78 155.17 137.39 154.80 138.51 Z M 154.47 139.53 L 154.14 140.48 C 153.77 141.60 154.37 142.82 155.49 143.19 C 156.61 143.57 157.82 142.97 158.20 141.85 L 158.52 140.89 C 158.90 139.77 158.30 138.56 157.18 138.18 C 156.06 137.80 154.84 138.41 154.47 139.53 Z M 154.15 140.47 L 153.85 141.34 C 153.46 142.46 154.06 143.68 155.18 144.06 C 156.30 144.45 157.52 143.85 157.90 142.73 L 158.20 141.86 C 158.58 140.74 157.99 139.52 156.87 139.14 C 155.75 138.76 154.53 139.35 154.15 140.47 Z M 153.85 141.33 L 153.51 142.31 C 153.12 143.43 153.71 144.65 154.83 145.04 C 155.95 145.43 157.17 144.84 157.56 143.72 L 157.90 142.74 C 158.29 141.63 157.70 140.40 156.58 140.01 C 155.46 139.62 154.24 140.21 153.85 141.33 Z M 153.51 142.29 L 153.18 143.23 C 152.78 144.34 153.35 145.57 154.47 145.97 C 155.58 146.37 156.81 145.80 157.21 144.68 L 157.55 143.74 C 157.95 142.62 157.37 141.40 156.26 141.00 C 155.14 140.59 153.92 141.17 153.51 142.29 Z M 153.19 143.20 L 152.87 144.04 C 152.45 145.15 153.01 146.39 154.12 146.81 C 155.23 147.22 156.47 146.66 156.89 145.56 L 157.20 144.71 C 157.62 143.60 157.06 142.37 155.95 141.95 C 154.84 141.53 153.61 142.09 153.19 143.20 Z M 152.88 144.00 L 152.52 144.92 C 152.08 146.02 152.61 147.27 153.71 147.71 C 154.81 148.15 156.06 147.61 156.50 146.51 L 156.87 145.59 C 157.31 144.49 156.77 143.24 155.67 142.80 C 154.57 142.36 153.32 142.90 152.88 144.00 Z M 152.53 144.88 L 152.14 145.80 C 151.68 146.89 152.18 148.15 153.27 148.62 C 154.37 149.08 155.63 148.58 156.09 147.48 L 156.49 146.56 C 156.95 145.47 156.44 144.21 155.35 143.74 C 154.26 143.28 153.00 143.78 152.53 144.88 Z M 152.16 145.75 L 151.75 146.66 C 151.26 147.74 151.74 149.01 152.81 149.51 C 153.89 150.00 155.17 149.52 155.66 148.44 L 156.07 147.53 C 156.56 146.45 156.08 145.18 155.00 144.69 C 153.92 144.20 152.65 144.68 152.16 145.75 Z M 151.77 146.62 L 151.33 147.52 C 150.82 148.59 151.27 149.87 152.33 150.39 C 153.40 150.90 154.69 150.46 155.20 149.39 L 155.64 148.48 C 156.15 147.42 155.71 146.13 154.64 145.62 C 153.57 145.10 152.29 145.55 151.77 146.62 Z M 151.36 147.48 L 150.90 148.37 C 150.36 149.42 150.78 150.71 151.84 151.25 C 152.89 151.79 154.18 151.38 154.72 150.32 L 155.18 149.43 C 155.72 148.38 155.30 147.08 154.24 146.54 C 153.19 146.00 151.90 146.42 151.36 147.48 Z M 150.92 148.33 L 150.45 149.20 C 149.89 150.24 150.28 151.54 151.33 152.11 C 152.37 152.67 153.67 152.28 154.24 151.23 L 154.70 150.36 C 155.27 149.31 154.87 148.01 153.83 147.45 C 152.78 146.89 151.48 147.28 150.92 148.33 Z M 150.47 149.17 L 149.97 150.06 C 149.40 151.09 149.77 152.40 150.81 152.98 C 151.84 153.55 153.15 153.18 153.72 152.15 L 154.22 151.26 C 154.80 150.22 154.42 148.92 153.39 148.34 C 152.35 147.76 151.05 148.14 150.47 149.17 Z M 149.99 150.04 L 149.49 150.91 C 148.90 151.94 149.26 153.25 150.28 153.84 C 151.31 154.43 152.62 154.07 153.21 153.04 L 153.71 152.17 C 154.30 151.14 153.94 149.83 152.92 149.24 C 151.89 148.65 150.58 149.01 149.99 150.04 Z M 149.51 150.87 L 148.99 151.74 C 148.39 152.75 148.72 154.07 149.73 154.68 C 150.75 155.29 152.06 154.96 152.67 153.94 L 153.19 153.08 C 153.80 152.06 153.47 150.74 152.45 150.14 C 151.44 149.53 150.12 149.86 149.51 150.87 Z M 149.03 151.68 L 148.49 152.52 C 147.84 153.52 148.13 154.84 149.12 155.49 C 150.12 156.13 151.44 155.84 152.09 154.85 L 152.63 154.00 C 153.28 153.01 152.99 151.68 152.00 151.04 C 151.00 150.40 149.68 150.68 149.03 151.68 Z M 148.54 152.44 L 147.96 153.26 C 147.27 154.23 147.50 155.56 148.47 156.25 C 149.43 156.93 150.77 156.71 151.45 155.74 L 152.03 154.93 C 152.72 153.96 152.49 152.62 151.53 151.94 C 150.56 151.25 149.22 151.48 148.54 152.44 Z M 148.01 153.20 L 147.44 153.94 C 146.72 154.88 146.89 156.22 147.83 156.94 C 148.77 157.66 150.11 157.49 150.83 156.55 L 151.40 155.81 C 152.12 154.87 151.95 153.53 151.01 152.80 C 150.07 152.08 148.73 152.26 148.01 153.20 Z M 147.48 153.89 L 146.97 154.51 C 146.22 155.43 146.36 156.78 147.27 157.52 C 148.19 158.27 149.54 158.14 150.28 157.22 L 150.79 156.60 C 151.54 155.69 151.40 154.34 150.49 153.59 C 149.57 152.84 148.23 152.98 147.48 153.89 Z M 147.01 154.46 L 146.36 155.22 C 145.58 156.11 145.68 157.46 146.57 158.24 C 147.46 159.01 148.81 158.92 149.59 158.02 L 150.24 157.27 C 151.02 156.38 150.92 155.03 150.03 154.25 C 149.14 153.48 147.79 153.57 147.01 154.46 Z M 146.39 155.19 L 145.57 156.08 C 144.78 156.96 144.85 158.31 145.72 159.10 C 146.60 159.90 147.95 159.83 148.74 158.95 L 149.56 158.06 C 150.35 157.18 150.28 155.83 149.41 155.04 C 148.53 154.24 147.18 154.31 146.39 155.19 Z M 145.59 156.07 L 144.94 156.77 C 144.14 157.64 144.19 158.99 145.06 159.79 C 145.93 160.59 147.28 160.54 148.08 159.67 L 148.73 158.97 C 149.53 158.10 149.48 156.75 148.61 155.95 C 147.74 155.15 146.39 155.20 145.59 156.07 Z M 144.95 156.77 L 144.23 157.53 C 143.43 158.39 143.48 159.74 144.34 160.55 C 145.20 161.35 146.55 161.30 147.36 160.44 L 148.07 159.68 C 148.87 158.82 148.83 157.46 147.96 156.66 C 147.10 155.86 145.75 155.90 144.95 156.77 Z M 144.24 157.53 L 143.51 158.30 C 142.71 159.16 142.75 160.51 143.61 161.32 C 144.47 162.12 145.81 162.08 146.62 161.22 L 147.35 160.45 C 148.16 159.59 148.11 158.24 147.26 157.43 C 146.40 156.63 145.05 156.67 144.24 157.53 Z M 143.52 158.30 L 142.82 159.04 C 142.01 159.90 142.05 161.25 142.90 162.06 C 143.76 162.86 145.10 162.82 145.91 161.97 L 146.61 161.23 C 147.42 160.37 147.38 159.02 146.53 158.22 C 145.67 157.41 144.33 157.45 143.52 158.30 Z M 142.83 159.04 L 142.14 159.76 C 141.33 160.61 141.36 161.96 142.21 162.77 C 143.06 163.58 144.41 163.54 145.22 162.69 L 145.90 161.97 C 146.71 161.12 146.68 159.78 145.83 158.97 C 144.98 158.16 143.63 158.19 142.83 159.04 Z M 142.17 159.77 L 141.35 160.61 C 140.55 161.45 140.57 162.78 141.41 163.58 C 142.24 164.39 143.57 164.36 144.37 163.53 L 145.19 162.69 C 145.99 161.85 145.97 160.52 145.14 159.72 C 144.30 158.91 142.97 158.94 142.17 159.77 Z M 141.41 160.62 L 140.75 161.28 C 139.95 162.08 139.96 163.38 140.76 164.18 C 141.57 164.99 142.87 164.98 143.67 164.18 L 144.32 163.52 C 145.12 162.72 145.12 161.41 144.31 160.61 C 143.51 159.81 142.21 159.82 141.41 160.62 Z M 140.81 161.28 L 140.21 161.86 C 139.41 162.64 139.39 163.91 140.16 164.71 C 140.93 165.51 142.21 165.53 143.01 164.76 L 143.61 164.17 C 144.41 163.40 144.43 162.13 143.66 161.33 C 142.89 160.53 141.61 160.50 140.81 161.28 Z M 140.27 161.86 L 139.55 162.52 C 138.75 163.26 138.70 164.51 139.44 165.31 C 140.18 166.12 141.43 166.16 142.24 165.42 L 142.95 164.76 C 143.75 164.02 143.80 162.77 143.06 161.97 C 142.32 161.17 141.07 161.12 140.27 161.86 Z M 139.62 162.50 L 138.85 163.16 C 138.04 163.86 137.95 165.09 138.65 165.90 C 139.35 166.72 140.58 166.81 141.39 166.11 L 142.16 165.45 C 142.98 164.75 143.07 163.52 142.37 162.70 C 141.67 161.89 140.44 161.80 139.62 162.50 Z M 138.96 163.12 L 138.15 163.74 C 137.32 164.39 137.16 165.58 137.80 166.42 C 138.45 167.26 139.64 167.41 140.48 166.77 L 141.29 166.15 C 142.12 165.50 142.28 164.30 141.64 163.47 C 140.99 162.63 139.79 162.48 138.96 163.12 Z M 138.28 163.72 L 137.44 164.28 C 136.59 164.85 136.37 166.01 136.94 166.86 C 137.52 167.71 138.67 167.93 139.52 167.36 L 140.35 166.79 C 141.20 166.22 141.43 165.07 140.86 164.22 C 140.28 163.37 139.13 163.14 138.28 163.72 Z M 137.54 164.29 L 136.70 164.81 C 135.85 165.33 135.59 166.44 136.11 167.28 C 136.63 168.12 137.73 168.38 138.58 167.86 L 139.42 167.34 C 140.27 166.82 140.53 165.72 140.01 164.88 C 139.49 164.03 138.39 163.77 137.54 164.29 Z M 136.74 164.84 L 136.29 165.11 C 135.46 165.61 135.19 166.68 135.69 167.50 C 136.18 168.33 137.25 168.60 138.08 168.11 L 138.53 167.84 C 139.35 167.34 139.63 166.27 139.13 165.45 C 138.64 164.62 137.57 164.35 136.74 164.84 Z"
      fill="black"
      fill-rule="nonzero" /><path d="M 143.47 146.28 L 142.62 146.96 C 141.85 147.58 141.72 148.70 142.34 149.47 C 142.95 150.24 144.07 150.37 144.84 149.75 L 145.70 149.07 C 146.47 148.46 146.59 147.34 145.98 146.57 C 145.36 145.80 144.24 145.67 143.47 146.28 Z M 141.78 147.88 L 141.59 148.63 C 141.32 149.71 141.98 150.80 143.06 151.07 C 144.14 151.33 145.23 150.68 145.50 149.60 L 145.69 148.84 C 145.95 147.76 145.29 146.67 144.21 146.40 C 143.13 146.14 142.04 146.80 141.78 147.88 Z M 141.83 150.38 L 142.30 151.01 C 143.00 151.96 144.34 152.16 145.28 151.46 C 146.23 150.76 146.42 149.42 145.72 148.48 L 145.26 147.84 C 144.56 146.90 143.22 146.70 142.28 147.40 C 141.33 148.10 141.13 149.44 141.83 150.38 Z M 142.63 151.39 L 143.46 152.09 C 144.37 152.85 145.73 152.73 146.49 151.82 C 147.26 150.91 147.14 149.56 146.23 148.79 L 145.40 148.10 C 144.48 147.33 143.13 147.45 142.36 148.36 C 141.60 149.27 141.72 150.63 142.63 151.39 Z M 143.56 152.19 L 144.51 152.88 C 145.47 153.59 146.83 153.38 147.54 152.41 C 148.25 151.44 148.03 150.09 147.07 149.38 L 146.12 148.69 C 145.16 147.98 143.80 148.19 143.09 149.16 C 142.39 150.13 142.60 151.49 143.56 152.19 Z M 144.52 152.91 L 145.37 153.51 C 146.35 154.21 147.71 153.98 148.41 152.99 C 149.11 152.01 148.88 150.65 147.90 149.95 L 147.05 149.35 C 146.07 148.66 144.71 148.89 144.01 149.87 C 143.31 150.85 143.54 152.21 144.52 152.91 Z M 145.38 153.52 L 146.21 154.11 C 147.20 154.80 148.56 154.56 149.26 153.57 C 149.95 152.58 149.71 151.22 148.72 150.52 L 147.89 149.94 C 146.90 149.25 145.53 149.49 144.84 150.48 C 144.15 151.47 144.39 152.83 145.38 153.52 Z M 146.22 154.12 L 147.01 154.66 C 148.00 155.35 149.37 155.10 150.06 154.10 C 150.74 153.10 150.49 151.74 149.49 151.05 L 148.71 150.51 C 147.71 149.82 146.35 150.07 145.66 151.07 C 144.97 152.07 145.23 153.43 146.22 154.12 Z M 147.02 154.67 L 147.90 155.27 C 148.90 155.95 150.26 155.68 150.94 154.68 C 151.62 153.68 151.36 152.31 150.36 151.63 L 149.48 151.04 C 148.48 150.36 147.11 150.62 146.43 151.63 C 145.75 152.63 146.02 153.99 147.02 154.67 Z M 147.91 155.27 L 148.72 155.82 C 149.73 156.49 151.09 156.22 151.76 155.21 C 152.44 154.20 152.17 152.84 151.16 152.17 L 150.35 151.62 C 149.34 150.95 147.98 151.22 147.30 152.23 C 146.63 153.24 146.90 154.60 147.91 155.27 Z M 148.71 155.81 L 149.50 156.34 C 150.50 157.02 151.87 156.75 152.54 155.74 C 153.22 154.74 152.95 153.37 151.95 152.70 L 151.16 152.17 C 150.16 151.49 148.79 151.76 148.12 152.77 C 147.44 153.77 147.71 155.14 148.71 155.81 Z M 149.48 156.33 L 150.29 156.88 C 151.29 157.57 152.66 157.32 153.34 156.32 C 154.03 155.32 153.77 153.95 152.77 153.26 L 151.96 152.71 C 150.96 152.02 149.60 152.28 148.91 153.28 C 148.22 154.28 148.48 155.64 149.48 156.33 Z M 150.28 156.87 L 151.11 157.45 C 152.10 158.15 153.47 157.90 154.16 156.91 C 154.85 155.91 154.61 154.54 153.62 153.85 L 152.79 153.27 C 151.79 152.58 150.42 152.82 149.73 153.82 C 149.04 154.81 149.28 156.18 150.28 156.87 Z M 151.10 157.44 L 151.91 158.02 C 152.90 158.72 154.27 158.48 154.97 157.49 C 155.67 156.50 155.43 155.13 154.44 154.44 L 153.62 153.86 C 152.63 153.16 151.27 153.40 150.57 154.39 C 149.87 155.38 150.11 156.75 151.10 157.44 Z M 151.92 158.01 L 152.72 158.58 C 153.71 159.28 155.07 159.05 155.77 158.06 C 156.47 157.07 156.23 155.71 155.25 155.01 L 154.44 154.44 C 153.45 153.75 152.09 153.98 151.39 154.97 C 150.69 155.95 150.93 157.32 151.92 158.01 Z M 152.74 158.58 L 153.57 159.17 C 154.56 159.85 155.91 159.61 156.60 158.63 C 157.29 157.64 157.05 156.28 156.06 155.59 L 155.23 155.01 C 154.25 154.32 152.89 154.56 152.20 155.55 C 151.51 156.54 151.75 157.89 152.74 158.58 Z M 153.59 159.17 L 154.40 159.73 C 155.39 160.40 156.74 160.15 157.42 159.16 C 158.10 158.17 157.84 156.82 156.86 156.15 L 156.04 155.59 C 155.05 154.91 153.70 155.17 153.03 156.15 C 152.35 157.14 152.60 158.49 153.59 159.17 Z M 154.42 159.73 L 155.24 160.28 C 156.23 160.95 157.57 160.69 158.24 159.70 C 158.91 158.71 158.65 157.37 157.66 156.70 L 156.84 156.15 C 155.85 155.48 154.51 155.74 153.84 156.73 C 153.17 157.72 153.43 159.06 154.42 159.73 Z M 155.25 160.27 L 156.10 160.84 C 157.08 161.51 158.42 161.25 159.08 160.26 C 159.74 159.28 159.48 157.94 158.50 157.28 L 157.65 156.71 C 156.67 156.04 155.33 156.30 154.67 157.29 C 154.00 158.27 154.26 159.61 155.25 160.27 Z M 156.10 160.83 L 156.91 161.39 C 157.89 162.05 159.22 161.80 159.89 160.82 C 160.55 159.84 160.30 158.51 159.32 157.85 L 158.50 157.29 C 157.52 156.63 156.19 156.88 155.53 157.86 C 154.86 158.84 155.12 160.17 156.10 160.83 Z M 156.92 161.37 L 157.73 161.92 C 158.70 162.59 160.02 162.34 160.68 161.37 C 161.34 160.41 161.10 159.09 160.13 158.43 L 159.32 157.87 C 158.35 157.21 157.03 157.45 156.37 158.42 C 155.70 159.38 155.95 160.70 156.92 161.37 Z M 157.74 161.91 L 158.57 162.48 C 159.53 163.14 160.83 162.90 161.49 161.94 C 162.15 160.99 161.91 159.68 160.96 159.02 L 160.12 158.44 C 159.17 157.78 157.86 158.03 157.20 158.98 C 156.54 159.94 156.78 161.25 157.74 161.91 Z M 158.58 162.46 L 159.42 163.04 C 160.37 163.70 161.67 163.46 162.32 162.51 C 162.97 161.57 162.74 160.27 161.79 159.62 L 160.95 159.04 C 160.00 158.38 158.70 158.62 158.05 159.57 C 157.40 160.51 157.63 161.81 158.58 162.46 Z M 159.44 163.03 L 160.27 163.60 C 161.20 164.24 162.49 164.01 163.13 163.07 C 163.77 162.13 163.54 160.85 162.60 160.21 L 161.77 159.64 C 160.84 158.99 159.56 159.23 158.91 160.16 C 158.27 161.10 158.50 162.38 159.44 163.03 Z M 160.29 163.58 L 161.12 164.15 C 162.05 164.78 163.31 164.54 163.94 163.62 C 164.58 162.69 164.34 161.43 163.41 160.80 L 162.58 160.23 C 161.66 159.59 160.39 159.83 159.76 160.76 C 159.13 161.68 159.36 162.95 160.29 163.58 Z M 161.15 164.13 L 161.97 164.69 C 162.89 165.31 164.13 165.06 164.75 164.15 C 165.37 163.23 165.13 161.98 164.21 161.37 L 163.39 160.81 C 162.47 160.19 161.23 160.44 160.61 161.35 C 159.99 162.27 160.23 163.51 161.15 164.13 Z M 162.00 164.67 L 162.87 165.24 C 163.77 165.84 165.00 165.59 165.60 164.68 C 166.20 163.78 165.95 162.55 165.04 161.95 L 164.18 161.38 C 163.27 160.78 162.05 161.03 161.44 161.94 C 160.84 162.85 161.09 164.07 162.00 164.67 Z M 162.90 165.22 L 163.75 165.77 C 164.65 166.36 165.85 166.10 166.43 165.20 C 167.01 164.30 166.75 163.10 165.86 162.52 L 165.01 161.97 C 164.11 161.39 162.91 161.64 162.33 162.54 C 161.74 163.44 162.00 164.64 162.90 165.22 Z M 163.77 165.75 L 164.59 166.27 C 165.48 166.84 166.65 166.58 167.22 165.70 C 167.79 164.81 167.53 163.64 166.65 163.07 L 165.83 162.55 C 164.94 161.98 163.77 162.24 163.20 163.12 C 162.63 164.00 162.89 165.18 163.77 165.75 Z M 164.61 166.24 L 165.45 166.78 C 166.32 167.34 167.47 167.08 168.03 166.22 C 168.59 165.35 168.33 164.19 167.46 163.64 L 166.63 163.10 C 165.76 162.54 164.60 162.80 164.05 163.66 C 163.49 164.53 163.74 165.69 164.61 166.24 Z M 165.47 166.75 L 166.31 167.29 C 167.16 167.84 168.29 167.59 168.84 166.74 C 169.39 165.89 169.14 164.76 168.29 164.21 L 167.45 163.67 C 166.60 163.12 165.47 163.37 164.92 164.22 C 164.37 165.07 164.62 166.20 165.47 166.75 Z M 166.33 167.26 L 167.15 167.79 C 167.98 168.33 169.09 168.09 169.63 167.26 C 170.17 166.43 169.93 165.32 169.10 164.78 L 168.28 164.25 C 167.45 163.71 166.34 163.95 165.80 164.78 C 165.26 165.61 165.50 166.72 166.33 167.26 Z M 167.17 167.76 L 167.96 168.27 C 168.77 168.80 169.85 168.57 170.38 167.76 C 170.91 166.95 170.69 165.87 169.88 165.34 L 169.09 164.82 C 168.28 164.29 167.19 164.52 166.66 165.33 C 166.13 166.14 166.36 167.22 167.17 167.76 Z M 167.97 168.24 L 168.78 168.77 C 169.58 169.29 170.64 169.07 171.16 168.27 C 171.68 167.48 171.46 166.41 170.67 165.89 L 169.86 165.36 C 169.06 164.84 168.00 165.07 167.48 165.86 C 166.96 166.66 167.18 167.72 167.97 168.24 Z M 168.81 168.75 L 169.69 169.32 C 170.47 169.82 171.51 169.60 172.02 168.82 C 172.53 168.04 172.30 166.99 171.52 166.49 L 170.64 165.92 C 169.86 165.41 168.81 165.63 168.31 166.42 C 167.80 167.20 168.03 168.24 168.81 168.75 Z M 169.71 169.30 L 170.53 169.82 C 171.30 170.31 172.33 170.09 172.82 169.32 C 173.31 168.54 173.09 167.52 172.31 167.03 L 171.50 166.51 C 170.73 166.01 169.70 166.24 169.21 167.01 C 168.72 167.78 168.94 168.81 169.71 169.30 Z M 170.55 169.81 L 171.38 170.33 C 172.14 170.81 173.15 170.58 173.63 169.82 C 174.12 169.05 173.89 168.04 173.12 167.56 L 172.30 167.04 C 171.53 166.56 170.52 166.79 170.04 167.55 C 169.56 168.32 169.78 169.33 170.55 169.81 Z M 171.39 170.32 L 172.26 170.86 C 173.02 171.34 174.02 171.11 174.49 170.35 C 174.96 169.59 174.74 168.59 173.98 168.12 L 173.11 167.57 C 172.35 167.10 171.35 167.33 170.88 168.09 C 170.40 168.84 170.63 169.84 171.39 170.32 Z M 172.27 170.85 L 173.16 171.41 C 173.91 171.87 174.90 171.65 175.37 170.90 C 175.84 170.15 175.61 169.16 174.86 168.69 L 173.97 168.13 C 173.22 167.66 172.23 167.89 171.76 168.64 C 171.29 169.39 171.52 170.38 172.27 170.85 Z M 173.17 171.40 L 173.31 171.48 C 174.05 171.95 175.03 171.72 175.50 170.98 C 175.96 170.23 175.74 169.25 174.99 168.78 L 174.85 168.70 C 174.11 168.23 173.13 168.46 172.66 169.21 C 172.20 169.95 172.43 170.93 173.17 171.40 Z"
      fill="black"
      fill-rule="nonzero" /></svg>