<svg xmlns="http://www.w3.org/2000/svg" width="300" height="300" viewBox="0 0 300 300">
<path d="M 140.11 130.72 L 138.98 131.43 C 138.14 131.97 137.89 133.09 138.43 133.94 C 138.97 134.78 140.09 135.03 140.93 134.49 L 142.06 133.77 C 142.90 133.23 143.15 132.11 142.61 131.27 C 142.07 130.43 140.95 130.18 140.11 130.72 Z M 138.76 131.49 L 138.31 131.85 C 137.50 132.51 137.37 133.71 138.04 134.53 C 138.70 135.34 139.90 135.46 140.72 134.80 L 141.16 134.44 C 141.98 133.77 142.10 132.57 141.43 131.76 C 140.77 130.94 139.57 130.82 138.76 131.49 Z M 140.08 135.19 L 140.64 135.02 C 141.67 134.71 142.25 133.62 141.94 132.59 C 141.62 131.55 140.53 130.97 139.50 131.29 L 138.95 131.46 C 137.92 131.77 137.33 132.86 137.65 133.89 C 137.96 134.92 139.05 135.50 140.08 135.19 Z M 140.82 134.96 L 142.10 134.43 C 143.10 134.01 143.57 132.86 143.16 131.87 C 142.74 130.87 141.59 130.40 140.60 130.81 L 139.32 131.35 C 138.32 131.76 137.85 132.91 138.27 133.91 C 138.68 134.90 139.83 135.38 140.82 134.96 Z M 142.13 134.42 L 143.04 134.03 C 144.03 133.60 144.49 132.45 144.06 131.45 C 143.64 130.46 142.48 130.00 141.49 130.43 L 140.58 130.82 C 139.58 131.25 139.12 132.40 139.55 133.40 C 139.98 134.39 141.13 134.85 142.13 134.42 Z M 143.04 134.03 L 143.96 133.64 C 144.96 133.21 145.41 132.05 144.99 131.05 C 144.56 130.06 143.40 129.60 142.40 130.03 L 141.49 130.42 C 140.49 130.85 140.03 132.01 140.46 133.00 C 140.89 134.00 142.04 134.46 143.04 134.03 Z M 143.96 133.64 L 144.91 133.23 C 145.91 132.80 146.37 131.65 145.94 130.65 C 145.51 129.65 144.36 129.19 143.36 129.62 L 142.41 130.02 C 141.41 130.45 140.95 131.61 141.37 132.61 C 141.80 133.60 142.96 134.07 143.96 133.64 Z M 144.90 133.24 L 145.85 132.84 C 146.85 132.42 147.32 131.26 146.90 130.26 C 146.48 129.26 145.32 128.79 144.32 129.21 L 143.37 129.61 C 142.37 130.03 141.90 131.19 142.32 132.19 C 142.74 133.19 143.90 133.66 144.90 133.24 Z M 145.83 132.85 L 146.76 132.47 C 147.77 132.05 148.25 130.90 147.84 129.89 C 147.42 128.88 146.27 128.40 145.26 128.82 L 144.33 129.20 C 143.33 129.61 142.84 130.77 143.26 131.77 C 143.67 132.78 144.83 133.26 145.83 132.85 Z M 146.74 132.47 L 147.65 132.11 C 148.66 131.71 149.16 130.56 148.75 129.55 C 148.35 128.54 147.20 128.04 146.19 128.45 L 145.28 128.81 C 144.27 129.21 143.78 130.36 144.18 131.37 C 144.58 132.38 145.73 132.88 146.74 132.47 Z M 147.63 132.12 L 148.54 131.77 C 149.56 131.37 150.06 130.23 149.67 129.21 C 149.28 128.20 148.13 127.69 147.12 128.09 L 146.21 128.44 C 145.19 128.83 144.69 129.98 145.08 130.99 C 145.47 132.01 146.62 132.51 147.63 132.12 Z M 148.53 131.77 L 149.48 131.41 C 150.50 131.03 151.01 129.89 150.63 128.87 C 150.24 127.85 149.10 127.33 148.08 127.72 L 147.13 128.08 C 146.11 128.47 145.60 129.61 145.98 130.63 C 146.37 131.65 147.51 132.16 148.53 131.77 Z M 149.47 131.42 L 150.42 131.06 C 151.44 130.68 151.96 129.54 151.58 128.52 C 151.20 127.50 150.06 126.98 149.04 127.36 L 148.09 127.72 C 147.07 128.10 146.55 129.24 146.93 130.26 C 147.31 131.28 148.45 131.80 149.47 131.42 Z M 150.42 131.06 L 151.37 130.71 C 152.40 130.33 152.92 129.20 152.54 128.17 C 152.16 127.15 151.03 126.63 150.01 127.01 L 149.05 127.36 C 148.03 127.74 147.50 128.87 147.88 129.90 C 148.26 130.92 149.39 131.44 150.42 131.06 Z M 151.37 130.71 L 152.34 130.36 C 153.36 129.98 153.89 128.85 153.51 127.83 C 153.14 126.80 152.01 126.28 150.98 126.65 L 150.01 127.00 C 148.99 127.38 148.46 128.51 148.84 129.53 C 149.21 130.56 150.34 131.08 151.37 130.71 Z M 152.33 130.36 L 153.28 130.02 C 154.30 129.65 154.84 128.52 154.47 127.49 C 154.10 126.47 152.97 125.93 151.94 126.30 L 150.99 126.65 C 149.97 127.02 149.44 128.15 149.80 129.17 C 150.17 130.20 151.30 130.73 152.33 130.36 Z M 153.27 130.02 L 154.16 129.70 C 155.19 129.34 155.73 128.21 155.36 127.18 C 155.00 126.16 153.87 125.62 152.85 125.98 L 151.95 126.30 C 150.93 126.66 150.39 127.79 150.75 128.82 C 151.12 129.85 152.24 130.38 153.27 130.02 Z M 154.15 129.71 L 155.23 129.33 C 156.26 128.98 156.81 127.86 156.45 126.83 C 156.10 125.80 154.98 125.25 153.95 125.61 L 152.87 125.98 C 151.84 126.33 151.29 127.46 151.64 128.48 C 152.00 129.51 153.12 130.06 154.15 129.71 Z M 155.20 129.33 L 156.16 129.02 C 157.19 128.68 157.75 127.57 157.41 126.54 C 157.07 125.51 155.96 124.95 154.93 125.29 L 153.97 125.61 C 152.95 125.95 152.39 127.06 152.73 128.09 C 153.06 129.11 154.17 129.67 155.20 129.33 Z M 156.13 129.02 L 156.99 128.75 C 158.03 128.43 158.60 127.33 158.27 126.30 C 157.95 125.27 156.85 124.69 155.82 125.02 L 154.96 125.29 C 153.93 125.61 153.36 126.71 153.68 127.74 C 154.00 128.77 155.10 129.35 156.13 129.02 Z M 156.96 128.76 L 157.89 128.48 C 158.93 128.17 159.51 127.09 159.21 126.05 C 158.90 125.02 157.81 124.43 156.78 124.74 L 155.85 125.01 C 154.82 125.32 154.23 126.41 154.53 127.44 C 154.84 128.47 155.93 129.06 156.96 128.76 Z M 157.85 128.49 L 158.81 128.23 C 159.85 127.95 160.47 126.88 160.18 125.84 C 159.90 124.80 158.83 124.18 157.79 124.46 L 156.82 124.73 C 155.78 125.01 155.17 126.08 155.45 127.12 C 155.73 128.16 156.81 128.77 157.85 128.49 Z M 158.74 128.25 L 159.69 128.02 C 160.74 127.78 161.39 126.73 161.15 125.68 C 160.90 124.63 159.85 123.98 158.80 124.23 L 157.86 124.45 C 156.81 124.69 156.16 125.74 156.40 126.79 C 156.65 127.84 157.70 128.49 158.74 128.25 Z M 159.55 128.07 L 160.68 127.89 C 161.76 127.72 162.49 126.72 162.32 125.65 C 162.15 124.57 161.15 123.84 160.08 124.01 L 158.94 124.18 C 157.87 124.35 157.14 125.36 157.30 126.43 C 157.47 127.50 158.48 128.24 159.55 128.07 Z M 160.06 127.93 L 160.93 128.06 C 162.02 128.24 163.04 127.49 163.22 126.40 C 163.39 125.31 162.65 124.28 161.55 124.11 L 160.69 123.97 C 159.60 123.80 158.57 124.54 158.40 125.63 C 158.23 126.73 158.97 127.75 160.06 127.93 Z M 159.41 126.96 L 159.73 127.63 C 160.21 128.65 161.43 129.07 162.44 128.59 C 163.45 128.10 163.88 126.89 163.39 125.88 L 163.07 125.21 C 162.59 124.20 161.37 123.77 160.36 124.25 C 159.35 124.74 158.92 125.95 159.41 126.96 Z M 159.53 126.50 L 159.40 127.57 C 159.25 128.69 160.05 129.72 161.17 129.86 C 162.29 130.00 163.31 129.21 163.46 128.08 L 163.59 127.01 C 163.73 125.89 162.94 124.87 161.82 124.73 C 160.70 124.58 159.67 125.38 159.53 126.50 Z M 159.45 127.26 L 159.18 128.20 C 158.87 129.29 159.50 130.43 160.59 130.74 C 161.68 131.06 162.82 130.43 163.13 129.33 L 163.40 128.40 C 163.71 127.30 163.08 126.17 161.99 125.85 C 160.90 125.54 159.76 126.17 159.45 127.26 Z M 159.21 128.10 L 158.90 128.98 C 158.53 130.06 159.10 131.23 160.18 131.60 C 161.25 131.97 162.43 131.40 162.80 130.33 L 163.10 129.44 C 163.47 128.36 162.90 127.19 161.83 126.82 C 160.75 126.45 159.58 127.02 159.21 128.10 Z M 158.91 128.95 L 158.55 129.95 C 158.15 131.02 158.70 132.21 159.77 132.60 C 160.84 132.99 162.03 132.44 162.42 131.37 L 162.79 130.36 C 163.18 129.29 162.63 128.11 161.56 127.72 C 160.49 127.32 159.30 127.88 158.91 128.95 Z M 158.54 129.96 L 158.21 130.87 C 157.82 131.94 158.38 133.12 159.45 133.51 C 160.52 133.90 161.71 133.35 162.09 132.27 L 162.42 131.36 C 162.81 130.29 162.26 129.11 161.19 128.72 C 160.11 128.33 158.93 128.88 158.54 129.96 Z M 158.20 130.88 L 157.92 131.70 C 157.53 132.78 158.10 133.96 159.17 134.34 C 160.25 134.72 161.43 134.15 161.81 133.08 L 162.10 132.26 C 162.48 131.18 161.92 130.00 160.84 129.62 C 159.77 129.24 158.58 129.81 158.20 130.88 Z M 157.91 131.71 L 157.60 132.62 C 157.22 133.70 157.79 134.87 158.87 135.25 C 159.95 135.62 161.13 135.05 161.50 133.97 L 161.81 133.07 C 162.19 131.99 161.62 130.81 160.54 130.44 C 159.46 130.06 158.28 130.64 157.91 131.71 Z M 157.59 132.63 L 157.25 133.62 C 156.89 134.70 157.46 135.88 158.54 136.24 C 159.62 136.61 160.80 136.03 161.17 134.95 L 161.50 133.96 C 161.87 132.88 161.29 131.71 160.21 131.34 C 159.13 130.97 157.96 131.55 157.59 132.63 Z M 157.25 133.63 L 156.89 134.72 C 156.53 135.80 157.11 136.97 158.19 137.33 C 159.27 137.70 160.44 137.11 160.81 136.03 L 161.17 134.94 C 161.53 133.86 160.95 132.69 159.87 132.33 C 158.78 131.97 157.61 132.55 157.25 133.63 Z M 156.89 134.73 L 156.54 135.77 C 156.19 136.85 156.77 138.02 157.86 138.37 C 158.94 138.73 160.11 138.14 160.47 137.06 L 160.81 136.02 C 161.17 134.94 160.58 133.77 159.49 133.41 C 158.41 133.06 157.24 133.65 156.89 134.73 Z M 156.54 135.77 L 156.22 136.75 C 155.87 137.84 156.46 139.00 157.54 139.36 C 158.63 139.71 159.79 139.12 160.15 138.04 L 160.47 137.05 C 160.82 135.97 160.23 134.80 159.15 134.45 C 158.06 134.10 156.90 134.69 156.54 135.77 Z M 156.22 136.76 L 155.90 137.76 C 155.55 138.85 156.14 140.01 157.22 140.36 C 158.31 140.71 159.47 140.12 159.82 139.03 L 160.15 138.03 C 160.50 136.95 159.90 135.78 158.82 135.43 C 157.73 135.08 156.57 135.68 156.22 136.76 Z M 155.90 137.77 L 155.58 138.76 C 155.23 139.85 155.83 141.01 156.91 141.36 C 157.99 141.71 159.16 141.11 159.50 140.02 L 159.82 139.03 C 160.17 137.94 159.57 136.78 158.49 136.43 C 157.41 136.09 156.24 136.68 155.90 137.77 Z M 155.58 138.77 L 155.27 139.73 C 154.92 140.82 155.52 141.98 156.61 142.32 C 157.69 142.67 158.85 142.07 159.20 140.98 L 159.50 140.02 C 159.85 138.93 159.25 137.78 158.17 137.43 C 157.08 137.08 155.92 137.68 155.58 138.77 Z M 155.27 139.74 L 154.98 140.64 C 154.64 141.73 155.24 142.88 156.33 143.23 C 157.41 143.57 158.57 142.97 158.91 141.88 L 159.20 140.98 C 159.54 139.89 158.94 138.74 157.85 138.39 C 156.77 138.05 155.61 138.65 155.27 139.74 Z M 154.99 140.65 L 154.68 141.61 C 154.35 142.70 154.95 143.85 156.03 144.19 C 157.12 144.53 158.27 143.92 158.61 142.84 L 158.91 141.87 C 159.25 140.79 158.64 139.64 157.56 139.30 C 156.48 138.96 155.32 139.57 154.99 140.65 Z M 154.70 141.63 L 154.35 142.78 C 154.02 143.85 154.62 144.99 155.70 145.32 C 156.77 145.65 157.91 145.05 158.24 143.97 L 158.59 142.83 C 158.92 141.75 158.32 140.61 157.25 140.28 C 156.17 139.95 155.03 140.55 154.70 141.63 Z M 154.37 142.79 L 154.09 143.72 C 153.77 144.79 154.37 145.91 155.43 146.23 C 156.49 146.55 157.62 145.95 157.94 144.89 L 158.22 143.95 C 158.54 142.89 157.94 141.77 156.88 141.45 C 155.81 141.13 154.69 141.73 154.37 142.79 Z M 154.12 143.73 L 153.88 144.52 C 153.56 145.57 154.16 146.68 155.21 146.99 C 156.25 147.31 157.36 146.71 157.67 145.66 L 157.91 144.88 C 158.22 143.83 157.63 142.72 156.58 142.41 C 155.54 142.09 154.43 142.69 154.12 143.73 Z M 153.91 144.53 L 153.64 145.43 C 153.32 146.46 153.90 147.54 154.93 147.86 C 155.96 148.17 157.05 147.59 157.36 146.56 L 157.64 145.66 C 157.95 144.63 157.37 143.54 156.34 143.23 C 155.31 142.92 154.23 143.50 153.91 144.53 Z M 153.68 145.43 L 153.38 146.40 C 153.07 147.40 153.64 148.47 154.64 148.78 C 155.65 149.09 156.71 148.53 157.02 147.52 L 157.32 146.56 C 157.63 145.55 157.07 144.48 156.06 144.17 C 155.06 143.86 153.99 144.43 153.68 145.43 Z M 153.43 146.42 L 153.15 147.33 C 152.85 148.31 153.41 149.35 154.39 149.65 C 155.37 149.95 156.41 149.39 156.71 148.41 L 156.98 147.50 C 157.28 146.52 156.72 145.48 155.74 145.18 C 154.76 144.88 153.72 145.44 153.43 146.42 Z M 153.20 147.37 L 152.92 148.35 C 152.65 149.30 153.20 150.30 154.15 150.57 C 155.10 150.85 156.10 150.30 156.37 149.34 L 156.65 148.37 C 156.93 147.41 156.38 146.42 155.42 146.14 C 154.47 145.87 153.48 146.42 153.20 147.37 Z M 152.99 148.39 L 152.73 149.34 C 152.47 150.25 153.01 151.20 153.92 151.45 C 154.84 151.71 155.79 151.17 156.04 150.25 L 156.30 149.31 C 156.56 148.39 156.02 147.44 155.11 147.19 C 154.19 146.94 153.24 147.47 152.99 148.39 Z M 152.77 149.35 L 152.73 149.50 C 152.48 150.39 153.01 151.31 153.90 151.56 C 154.79 151.80 155.71 151.28 155.96 150.39 L 156.00 150.24 C 156.24 149.35 155.72 148.42 154.83 148.18 C 153.94 147.93 153.01 148.46 152.77 149.35 Z"
      fill="black"
      fill-rule="nonzero" /><path d="M 145.46 132.34 L 145.02 133.13 C 144.56 133.95 144.85 134.99 145.66 135.45 C 146.48 135.91 147.52 135.62 147.98 134.80 L 148.42 134.00 C 148.88 133.19 148.59 132.15 147.78 131.69 C 146.96 131.23 145.92 131.52 145.46 132.34 Z M 144.89 133.19 L 144.46 134.07 C 144.03 134.96 144.41 136.03 145.30 136.46 C 146.18 136.88 147.25 136.51 147.68 135.62 L 148.10 134.74 C 148.53 133.85 148.16 132.79 147.27 132.36 C 146.38 131.93 145.32 132.30 144.89 133.19 Z M 144.31 134.21 L 143.94 135.25 C 143.59 136.22 144.09 137.29 145.06 137.64 C 146.03 137.99 147.10 137.49 147.45 136.52 L 147.83 135.48 C 148.18 134.51 147.68 133.44 146.71 133.09 C 145.73 132.74 144.66 133.24 144.31 134.21 Z M 143.85 135.40 L 143.60 136.34 C 143.34 137.36 143.94 138.40 144.96 138.67 C 145.98 138.94 147.03 138.33 147.29 137.31 L 147.54 136.37 C 147.81 135.35 147.20 134.31 146.18 134.04 C 145.16 133.77 144.12 134.38 143.85 135.40 Z M 143.58 136.43 L 143.37 137.44 C 143.15 138.47 143.81 139.48 144.84 139.70 C 145.87 139.92 146.88 139.26 147.10 138.23 L 147.32 137.22 C 147.53 136.19 146.88 135.18 145.85 134.96 C 144.82 134.74 143.80 135.40 143.58 136.43 Z M 143.36 137.49 L 143.17 138.50 C 142.98 139.53 143.66 140.53 144.70 140.72 C 145.73 140.91 146.73 140.23 146.92 139.19 L 147.11 138.18 C 147.30 137.15 146.62 136.15 145.58 135.96 C 144.55 135.77 143.55 136.45 143.36 137.49 Z M 143.17 138.51 L 142.99 139.51 C 142.81 140.54 143.50 141.53 144.54 141.72 C 145.58 141.90 146.56 141.21 146.75 140.17 L 146.92 139.18 C 147.11 138.14 146.41 137.15 145.38 136.97 C 144.34 136.78 143.35 137.48 143.17 138.51 Z M 143.00 139.50 L 142.80 140.56 C 142.61 141.59 143.30 142.58 144.34 142.77 C 145.37 142.96 146.36 142.27 146.55 141.24 L 146.74 140.18 C 146.93 139.15 146.25 138.15 145.21 137.97 C 144.18 137.78 143.19 138.46 143.00 139.50 Z M 142.81 140.53 L 142.63 141.46 C 142.42 142.50 143.10 143.50 144.13 143.70 C 145.16 143.90 146.16 143.23 146.36 142.20 L 146.55 141.27 C 146.75 140.23 146.08 139.23 145.04 139.03 C 144.01 138.83 143.01 139.50 142.81 140.53 Z M 142.63 141.43 L 142.44 142.33 C 142.22 143.36 142.87 144.37 143.90 144.60 C 144.92 144.82 145.94 144.16 146.16 143.14 L 146.35 142.23 C 146.58 141.21 145.92 140.19 144.90 139.97 C 143.87 139.75 142.86 140.40 142.63 141.43 Z M 142.45 142.30 L 142.22 143.26 C 141.98 144.28 142.62 145.31 143.64 145.55 C 144.66 145.79 145.69 145.15 145.93 144.13 L 146.15 143.17 C 146.39 142.15 145.76 141.12 144.73 140.88 C 143.71 140.64 142.69 141.28 142.45 142.30 Z M 142.23 143.24 L 141.98 144.22 C 141.73 145.23 142.35 146.27 143.37 146.52 C 144.39 146.77 145.42 146.15 145.68 145.13 L 145.92 144.15 C 146.17 143.13 145.55 142.10 144.53 141.85 C 143.51 141.60 142.48 142.22 142.23 143.24 Z M 141.99 144.20 L 141.74 145.18 C 141.47 146.20 142.09 147.24 143.11 147.50 C 144.12 147.76 145.16 147.15 145.42 146.13 L 145.67 145.15 C 145.93 144.13 145.32 143.09 144.30 142.83 C 143.29 142.57 142.25 143.18 141.99 144.20 Z M 141.74 145.18 L 141.48 146.16 C 141.22 147.17 141.83 148.21 142.84 148.48 C 143.86 148.74 144.90 148.13 145.16 147.11 L 145.42 146.14 C 145.68 145.12 145.07 144.08 144.06 143.82 C 143.04 143.55 142.00 144.16 141.74 145.18 Z M 141.48 146.15 L 141.23 147.11 C 140.96 148.13 141.57 149.17 142.58 149.44 C 143.60 149.71 144.64 149.10 144.91 148.08 L 145.16 147.12 C 145.43 146.10 144.82 145.06 143.81 144.79 C 142.79 144.53 141.75 145.13 141.48 146.15 Z M 141.23 147.11 L 140.96 148.10 C 140.69 149.12 141.30 150.16 142.32 150.43 C 143.33 150.70 144.38 150.10 144.65 149.08 L 144.91 148.09 C 145.18 147.07 144.58 146.03 143.56 145.76 C 142.54 145.49 141.50 146.09 141.23 147.11 Z M 140.97 148.08 L 140.70 149.05 C 140.42 150.07 141.02 151.11 142.03 151.39 C 143.05 151.67 144.10 151.08 144.38 150.06 L 144.64 149.10 C 144.92 148.08 144.33 147.03 143.31 146.75 C 142.30 146.47 141.25 147.07 140.97 148.08 Z M 140.71 149.01 L 140.44 149.93 C 140.14 150.94 140.71 152.00 141.72 152.30 C 142.73 152.60 143.79 152.03 144.09 151.02 L 144.37 150.10 C 144.67 149.09 144.09 148.03 143.08 147.73 C 142.07 147.43 141.01 148.00 140.71 149.01 Z M 140.45 149.88 L 140.15 150.79 C 139.82 151.79 140.37 152.87 141.37 153.20 C 142.37 153.53 143.45 152.98 143.78 151.98 L 144.08 151.07 C 144.41 150.07 143.86 148.99 142.86 148.66 C 141.86 148.33 140.78 148.88 140.45 149.88 Z M 140.16 150.76 L 139.83 151.71 C 139.48 152.70 140.00 153.80 141.00 154.14 C 142.00 154.49 143.09 153.97 143.44 152.97 L 143.77 152.02 C 144.12 151.02 143.60 149.93 142.60 149.58 C 141.60 149.23 140.51 149.76 140.16 150.76 Z M 139.83 151.69 L 139.48 152.66 C 139.13 153.66 139.65 154.75 140.64 155.11 C 141.64 155.46 142.74 154.94 143.09 153.95 L 143.44 152.98 C 143.79 151.99 143.27 150.89 142.28 150.53 C 141.28 150.18 140.19 150.70 139.83 151.69 Z M 139.48 152.66 L 139.14 153.63 C 138.78 154.63 139.31 155.72 140.31 156.08 C 141.31 156.43 142.40 155.91 142.76 154.91 L 143.10 153.94 C 143.45 152.94 142.93 151.85 141.93 151.49 C 140.93 151.14 139.83 151.66 139.48 152.66 Z M 139.13 153.65 L 138.80 154.60 C 138.46 155.60 138.99 156.70 140.00 157.04 C 141.00 157.38 142.09 156.85 142.44 155.84 L 142.77 154.89 C 143.11 153.89 142.57 152.80 141.57 152.45 C 140.57 152.11 139.47 152.64 139.13 153.65 Z M 138.77 154.66 L 138.43 155.77 C 138.12 156.79 138.70 157.87 139.72 158.18 C 140.74 158.49 141.82 157.92 142.13 156.90 L 142.47 155.78 C 142.78 154.76 142.20 153.68 141.18 153.37 C 140.16 153.06 139.08 153.64 138.77 154.66 Z M 138.33 156.34 L 138.33 157.21 C 138.33 158.29 139.21 159.16 140.29 159.16 C 141.37 159.16 142.24 158.28 142.24 157.20 L 142.24 156.33 C 142.23 155.25 141.36 154.38 140.28 154.38 C 139.20 154.38 138.33 155.26 138.33 156.34 Z M 139.53 159.03 L 140.13 159.28 C 141.14 159.70 142.29 159.22 142.71 158.21 C 143.13 157.20 142.65 156.04 141.64 155.63 L 141.04 155.38 C 140.03 154.96 138.87 155.44 138.46 156.45 C 138.04 157.46 138.52 158.61 139.53 159.03 Z M 141.16 159.43 L 142.16 159.29 C 143.26 159.13 144.01 158.12 143.86 157.03 C 143.70 155.94 142.69 155.18 141.60 155.33 L 140.60 155.48 C 139.51 155.63 138.75 156.64 138.91 157.73 C 139.06 158.82 140.07 159.58 141.16 159.43 Z M 142.44 159.24 L 143.57 158.92 C 144.64 158.61 145.26 157.50 144.95 156.43 C 144.64 155.36 143.53 154.74 142.46 155.05 L 141.33 155.38 C 140.26 155.68 139.64 156.80 139.95 157.87 C 140.26 158.93 141.37 159.55 142.44 159.24 Z M 143.68 158.89 L 144.60 158.57 C 145.65 158.21 146.21 157.06 145.84 156.00 C 145.48 154.95 144.32 154.39 143.27 154.76 L 142.35 155.08 C 141.30 155.44 140.74 156.59 141.11 157.65 C 141.47 158.70 142.62 159.26 143.68 158.89 Z M 144.66 158.55 L 145.59 158.19 C 146.64 157.79 147.16 156.62 146.75 155.58 C 146.35 154.54 145.18 154.02 144.14 154.42 L 143.21 154.78 C 142.17 155.18 141.65 156.35 142.05 157.39 C 142.45 158.43 143.62 158.95 144.66 158.55 Z M 145.64 158.18 L 146.59 157.78 C 147.63 157.36 148.12 156.17 147.69 155.14 C 147.26 154.11 146.08 153.62 145.05 154.04 L 144.10 154.44 C 143.06 154.86 142.57 156.05 143.00 157.08 C 143.43 158.11 144.61 158.60 145.64 158.18 Z M 146.62 157.77 L 147.53 157.38 C 148.55 156.94 149.03 155.75 148.58 154.72 C 148.14 153.69 146.95 153.22 145.92 153.66 L 145.02 154.05 C 143.99 154.50 143.52 155.69 143.96 156.71 C 144.41 157.74 145.60 158.21 146.62 157.77 Z M 147.54 157.37 L 148.45 156.97 C 149.47 156.52 149.94 155.32 149.48 154.30 C 149.03 153.28 147.83 152.82 146.81 153.27 L 145.90 153.67 C 144.88 154.12 144.42 155.32 144.87 156.34 C 145.33 157.36 146.52 157.83 147.54 157.37 Z M 148.46 156.97 L 149.38 156.55 C 150.40 156.10 150.86 154.90 150.40 153.88 C 149.95 152.86 148.75 152.40 147.73 152.86 L 146.81 153.27 C 145.78 153.73 145.33 154.93 145.78 155.95 C 146.24 156.97 147.44 157.42 148.46 156.97 Z M 149.38 156.56 L 150.31 156.14 C 151.33 155.69 151.79 154.49 151.33 153.47 C 150.88 152.45 149.68 151.99 148.66 152.44 L 147.73 152.86 C 146.71 153.31 146.25 154.51 146.71 155.53 C 147.16 156.55 148.36 157.01 149.38 156.56 Z M 150.30 156.15 L 151.21 155.75 C 152.23 155.30 152.70 154.10 152.25 153.08 C 151.80 152.05 150.60 151.59 149.58 152.04 L 148.67 152.44 C 147.64 152.89 147.18 154.08 147.63 155.11 C 148.08 156.13 149.27 156.60 150.30 156.15 Z M 151.19 155.75 L 152.11 155.36 C 153.14 154.92 153.62 153.72 153.18 152.70 C 152.73 151.67 151.54 151.20 150.52 151.64 L 149.59 152.03 C 148.57 152.47 148.09 153.67 148.53 154.69 C 148.98 155.72 150.17 156.19 151.19 155.75 Z M 152.10 155.36 L 153.02 154.98 C 154.05 154.55 154.54 153.36 154.11 152.33 C 153.68 151.30 152.49 150.81 151.46 151.24 L 150.53 151.63 C 149.50 152.06 149.02 153.25 149.45 154.28 C 149.88 155.31 151.06 155.80 152.10 155.36 Z M 153.00 154.99 L 153.94 154.60 C 154.98 154.19 155.48 153.01 155.06 151.97 C 154.64 150.93 153.46 150.43 152.43 150.85 L 151.48 151.23 C 150.45 151.65 149.95 152.83 150.36 153.87 C 150.78 154.90 151.96 155.40 153.00 154.99 Z M 153.92 154.61 L 154.88 154.24 C 155.92 153.83 156.43 152.66 156.03 151.62 C 155.62 150.58 154.45 150.06 153.41 150.47 L 152.45 150.84 C 151.41 151.25 150.89 152.42 151.30 153.46 C 151.71 154.50 152.88 155.02 153.92 154.61 Z M 154.86 154.24 L 155.80 153.89 C 156.84 153.49 157.37 152.32 156.97 151.28 C 156.57 150.23 155.40 149.71 154.36 150.11 L 153.42 150.46 C 152.38 150.86 151.85 152.03 152.25 153.07 C 152.65 154.12 153.82 154.64 154.86 154.24 Z M 155.79 153.89 L 156.69 153.55 C 157.74 153.16 158.27 152.00 157.87 150.95 C 157.48 149.90 156.32 149.37 155.27 149.77 L 154.37 150.10 C 153.32 150.50 152.79 151.66 153.19 152.71 C 153.58 153.75 154.74 154.28 155.79 153.89 Z M 156.69 153.55 L 157.67 153.19 C 158.72 152.80 159.25 151.63 158.86 150.59 C 158.47 149.54 157.31 149.01 156.27 149.40 L 155.28 149.77 C 154.23 150.15 153.70 151.32 154.09 152.36 C 154.48 153.41 155.64 153.94 156.69 153.55 Z M 157.66 153.19 L 158.61 152.85 C 159.66 152.46 160.20 151.30 159.82 150.26 C 159.44 149.21 158.28 148.67 157.23 149.05 L 156.28 149.39 C 155.23 149.77 154.69 150.93 155.07 151.98 C 155.45 153.03 156.61 153.57 157.66 153.19 Z M 158.58 152.86 L 159.47 152.55 C 160.53 152.18 161.09 151.03 160.72 149.98 C 160.36 148.92 159.21 148.36 158.15 148.73 L 157.26 149.04 C 156.20 149.40 155.65 150.55 156.01 151.61 C 156.38 152.66 157.53 153.22 158.58 152.86 Z M 159.42 152.56 L 160.36 152.27 C 161.43 151.93 162.02 150.80 161.68 149.73 C 161.35 148.67 160.21 148.08 159.15 148.41 L 158.20 148.71 C 157.14 149.05 156.55 150.18 156.89 151.25 C 157.22 152.31 158.36 152.90 159.42 152.56 Z M 160.29 152.29 L 161.24 152.02 C 162.32 151.72 162.95 150.61 162.65 149.54 C 162.35 148.46 161.24 147.84 160.16 148.13 L 159.22 148.40 C 158.14 148.69 157.51 149.81 157.81 150.88 C 158.11 151.95 159.22 152.58 160.29 152.29 Z M 161.18 152.04 L 162.18 151.80 C 163.27 151.53 163.93 150.44 163.67 149.36 C 163.41 148.27 162.31 147.61 161.23 147.87 L 160.23 148.12 C 159.14 148.38 158.48 149.47 158.74 150.55 C 159.00 151.64 160.10 152.30 161.18 152.04 Z M 162.04 151.85 L 163.16 151.67 C 164.28 151.48 165.03 150.43 164.84 149.31 C 164.66 148.20 163.60 147.44 162.49 147.63 L 161.37 147.81 C 160.25 148.00 159.50 149.05 159.69 150.17 C 159.87 151.29 160.93 152.04 162.04 151.85 Z M 162.44 151.71 L 163.28 151.87 C 164.42 152.08 165.51 151.32 165.72 150.18 C 165.93 149.04 165.18 147.95 164.04 147.74 L 163.20 147.58 C 162.06 147.37 160.97 148.13 160.76 149.27 C 160.55 150.41 161.30 151.50 162.44 151.71 Z M 161.71 150.69 L 161.96 151.23 C 162.44 152.30 163.71 152.78 164.79 152.29 C 165.86 151.80 166.34 150.54 165.85 149.46 L 165.60 148.92 C 165.11 147.84 163.85 147.37 162.77 147.86 C 161.70 148.34 161.22 149.61 161.71 150.69 Z M 161.77 150.04 L 161.64 150.92 C 161.48 152.09 162.30 153.18 163.48 153.35 C 164.66 153.52 165.75 152.70 165.91 151.52 L 166.04 150.65 C 166.20 149.47 165.38 148.38 164.20 148.21 C 163.03 148.04 161.93 148.86 161.77 150.04 Z M 161.73 150.51 L 161.32 151.70 C 160.93 152.83 161.53 154.07 162.66 154.46 C 163.80 154.85 165.03 154.25 165.42 153.11 L 165.83 151.92 C 166.22 150.79 165.62 149.55 164.49 149.16 C 163.35 148.77 162.12 149.38 161.73 150.51 Z M 161.36 151.55 L 160.92 152.60 C 160.44 153.70 160.96 154.99 162.07 155.46 C 163.18 155.93 164.46 155.42 164.93 154.31 L 165.38 153.26 C 165.85 152.15 165.33 150.87 164.23 150.40 C 163.12 149.93 161.84 150.44 161.36 151.55 Z M 160.94 152.54 L 160.51 153.47 C 160.00 154.57 160.48 155.87 161.58 156.37 C 162.67 156.88 163.97 156.40 164.48 155.30 L 164.91 154.37 C 165.41 153.27 164.93 151.97 163.84 151.47 C 162.74 150.96 161.44 151.44 160.94 152.54 Z M 160.52 153.44 L 160.06 154.40 C 159.54 155.49 160.00 156.80 161.09 157.32 C 162.18 157.84 163.48 157.38 164.01 156.29 L 164.46 155.33 C 164.99 154.24 164.53 152.94 163.44 152.42 C 162.35 151.89 161.04 152.35 160.52 153.44 Z M 160.07 154.38 L 159.61 155.32 C 159.08 156.40 159.53 157.71 160.62 158.24 C 161.70 158.78 163.01 158.33 163.54 157.24 L 164.00 156.31 C 164.53 155.22 164.08 153.91 163.00 153.38 C 161.91 152.85 160.60 153.30 160.07 154.38 Z M 159.61 155.31 L 159.19 156.17 C 158.65 157.26 159.10 158.57 160.18 159.11 C 161.27 159.64 162.58 159.19 163.12 158.11 L 163.54 157.25 C 164.08 156.16 163.63 154.85 162.54 154.31 C 161.46 153.78 160.15 154.23 159.61 155.31 Z M 159.18 156.18 L 158.70 157.17 C 158.17 158.26 158.63 159.57 159.71 160.10 C 160.80 160.63 162.11 160.18 162.64 159.09 L 163.12 158.10 C 163.65 157.01 163.20 155.70 162.11 155.17 C 161.02 154.64 159.71 155.10 159.18 156.18 Z M 158.69 157.21 L 158.23 158.19 C 157.72 159.29 158.19 160.59 159.29 161.10 C 160.38 161.61 161.69 161.14 162.20 160.04 L 162.65 159.05 C 163.16 157.96 162.69 156.66 161.59 156.15 C 160.50 155.64 159.20 156.11 158.69 157.21 Z M 158.21 158.25 L 157.87 159.02 C 157.39 160.12 157.90 161.41 159.00 161.89 C 160.11 162.37 161.40 161.87 161.88 160.76 L 162.21 159.99 C 162.70 158.88 162.19 157.60 161.08 157.11 C 159.98 156.63 158.69 157.14 158.21 158.25 Z M 157.86 159.06 L 157.53 159.87 C 157.07 160.99 157.60 162.26 158.72 162.72 C 159.83 163.17 161.10 162.64 161.56 161.53 L 161.89 160.72 C 162.35 159.60 161.82 158.33 160.70 157.87 C 159.59 157.42 158.32 157.95 157.86 159.06 Z M 157.52 159.90 L 157.16 160.82 C 156.71 161.94 157.26 163.20 158.38 163.64 C 159.49 164.09 160.76 163.54 161.20 162.42 L 161.57 161.50 C 162.01 160.38 161.46 159.12 160.34 158.68 C 159.23 158.24 157.96 158.78 157.52 159.90 Z M 157.15 160.84 L 156.79 161.80 C 156.36 162.92 156.91 164.17 158.03 164.60 C 159.15 165.03 160.41 164.47 160.84 163.36 L 161.20 162.40 C 161.63 161.28 161.08 160.03 159.96 159.60 C 158.84 159.17 157.58 159.72 157.15 160.84 Z M 156.79 161.81 L 156.44 162.73 C 156.02 163.85 156.59 165.10 157.70 165.52 C 158.82 165.94 160.07 165.37 160.49 164.26 L 160.84 163.34 C 161.26 162.22 160.69 160.97 159.57 160.55 C 158.46 160.13 157.21 160.70 156.79 161.81 Z M 156.44 162.74 L 156.09 163.69 C 155.68 164.81 156.25 166.05 157.36 166.47 C 158.48 166.88 159.72 166.31 160.14 165.19 L 160.49 164.24 C 160.90 163.13 160.33 161.88 159.21 161.47 C 158.10 161.06 156.86 161.63 156.44 162.74 Z M 156.10 163.71 L 155.75 164.65 C 155.35 165.76 155.92 167.00 157.03 167.40 C 158.15 167.81 159.38 167.23 159.79 166.12 L 160.13 165.18 C 160.54 164.07 159.96 162.83 158.85 162.43 C 157.74 162.02 156.50 162.59 156.10 163.71 Z M 155.76 164.66 L 155.43 165.59 C 155.03 166.70 155.60 167.92 156.72 168.32 C 157.83 168.72 159.05 168.14 159.45 167.03 L 159.78 166.11 C 160.18 165.00 159.61 163.77 158.49 163.37 C 157.38 162.97 156.16 163.55 155.76 164.66 Z M 155.43 165.60 L 155.10 166.56 C 154.70 167.66 155.28 168.88 156.39 169.27 C 157.50 169.66 158.71 169.08 159.10 167.98 L 159.44 167.02 C 159.83 165.91 159.25 164.70 158.15 164.31 C 157.04 163.91 155.83 164.49 155.43 165.60 Z M 155.11 166.57 L 154.77 167.53 C 154.39 168.63 154.97 169.83 156.07 170.22 C 157.17 170.60 158.38 170.02 158.76 168.92 L 159.09 167.96 C 159.48 166.86 158.89 165.66 157.79 165.27 C 156.69 164.89 155.49 165.47 155.11 166.57 Z M 154.79 167.55 L 154.46 168.51 C 154.09 169.60 154.67 170.79 155.76 171.16 C 156.86 171.53 158.04 170.95 158.42 169.86 L 158.74 168.90 C 159.12 167.81 158.53 166.62 157.44 166.25 C 156.35 165.87 155.16 166.46 154.79 167.55 Z M 154.48 168.53 L 154.16 169.48 C 153.80 170.57 154.39 171.73 155.47 172.09 C 156.56 172.45 157.73 171.87 158.09 170.78 L 158.40 169.83 C 158.76 168.75 158.17 167.58 157.09 167.22 C 156.01 166.86 154.84 167.45 154.48 168.53 Z M 154.18 169.51 L 153.87 170.49 C 153.53 171.56 154.12 172.71 155.20 173.05 C 156.27 173.39 157.42 172.80 157.76 171.72 L 158.07 170.75 C 158.41 169.67 157.82 168.53 156.74 168.19 C 155.67 167.85 154.52 168.44 154.18 169.51 Z M 153.89 170.52 L 153.60 171.49 C 153.27 172.55 153.87 173.67 154.93 174.00 C 156.00 174.32 157.12 173.72 157.44 172.66 L 157.74 171.69 C 158.06 170.63 157.46 169.51 156.40 169.18 C 155.34 168.86 154.22 169.46 153.89 170.52 Z M 153.63 171.50 L 153.35 172.42 C 153.03 173.47 153.62 174.57 154.67 174.89 C 155.71 175.21 156.82 174.62 157.13 173.57 L 157.41 172.65 C 157.73 171.60 157.14 170.50 156.09 170.18 C 155.05 169.86 153.94 170.45 153.63 171.50 Z M 153.39 172.42 L 153.11 173.30 C 152.79 174.32 153.37 175.41 154.39 175.73 C 155.41 176.05 156.50 175.48 156.82 174.45 L 157.10 173.57 C 157.41 172.55 156.84 171.46 155.82 171.14 C 154.79 170.82 153.70 171.39 153.39 172.42 Z M 153.15 173.30 L 152.86 174.23 C 152.54 175.23 153.10 176.30 154.10 176.62 C 155.10 176.93 156.17 176.38 156.49 175.38 L 156.78 174.45 C 157.10 173.45 156.54 172.38 155.54 172.06 C 154.54 171.74 153.47 172.30 153.15 173.30 Z M 152.89 174.24 L 152.56 175.29 C 152.26 176.27 152.80 177.32 153.79 177.63 C 154.77 177.94 155.82 177.39 156.13 176.41 L 156.46 175.36 C 156.77 174.38 156.22 173.33 155.23 173.02 C 154.25 172.71 153.20 173.26 152.89 174.24 Z M 152.53 175.29 L 152.25 176.21 C 151.94 177.21 152.50 178.27 153.51 178.58 C 154.51 178.89 155.57 178.33 155.88 177.32 L 156.16 176.41 C 156.47 175.40 155.91 174.34 154.90 174.03 C 153.90 173.73 152.84 174.29 152.53 175.29 Z M 152.15 176.19 L 151.86 177.18 C 151.54 178.23 152.14 179.34 153.20 179.66 C 154.25 179.97 155.36 179.37 155.68 178.32 L 155.97 177.34 C 156.29 176.28 155.69 175.17 154.63 174.86 C 153.58 174.54 152.47 175.14 152.15 176.19 Z M 151.76 177.17 L 151.48 178.16 C 151.16 179.27 151.80 180.43 152.91 180.74 C 154.02 181.06 155.18 180.42 155.50 179.31 L 155.78 178.32 C 156.10 177.21 155.45 176.06 154.34 175.74 C 153.24 175.42 152.08 176.06 151.76 177.17 Z M 151.40 178.18 L 151.13 179.17 C 150.83 180.33 151.51 181.51 152.67 181.82 C 153.82 182.13 155.01 181.44 155.31 180.29 L 155.58 179.29 C 155.89 178.14 155.20 176.95 154.04 176.64 C 152.89 176.34 151.70 177.02 151.40 178.18 Z M 151.11 179.23 L 150.87 180.25 C 150.59 181.41 151.31 182.59 152.48 182.86 C 153.64 183.14 154.82 182.42 155.09 181.25 L 155.34 180.23 C 155.62 179.07 154.89 177.89 153.73 177.62 C 152.56 177.34 151.39 178.06 151.11 179.23 Z M 150.89 180.30 L 150.69 181.25 C 150.44 182.40 151.17 183.54 152.33 183.78 C 153.48 184.03 154.62 183.30 154.87 182.14 L 155.07 181.20 C 155.32 180.04 154.58 178.91 153.43 178.66 C 152.28 178.41 151.14 179.15 150.89 180.30 Z M 150.71 181.27 L 150.57 182.01 C 150.33 183.15 151.07 184.26 152.21 184.49 C 153.35 184.72 154.46 183.99 154.69 182.85 L 154.84 182.12 C 155.07 180.98 154.34 179.86 153.20 179.63 C 152.06 179.40 150.95 180.14 150.71 181.27 Z"
      fill="black"
      fill-rule="nonzero" /></svg>