<svg xmlns="http://www.w3.org/2000/svg" width="300" height="300" viewBox="0 0 300 300">
<path d="M 142.98 131.68 L 143.96 131.83 C 145.01 131.99 145.99 131.26 146.15 130.20 C 146.31 129.15 145.58 128.17 144.53 128.01 L 143.54 127.87 C 142.49 127.71 141.51 128.44 141.35 129.49 C 141.20 130.55 141.92 131.53 142.98 131.68 Z M 144.20 131.85 L 145.20 131.87 C 146.26 131.90 147.14 131.05 147.17 129.99 C 147.19 128.92 146.35 128.04 145.28 128.01 L 144.29 127.99 C 143.22 127.97 142.34 128.81 142.31 129.88 C 142.29 130.94 143.13 131.83 144.20 131.85 Z M 145.61 131.84 L 146.55 131.65 C 147.60 131.45 148.28 130.43 148.07 129.38 C 147.87 128.34 146.85 127.66 145.81 127.86 L 144.87 128.05 C 143.82 128.26 143.14 129.27 143.34 130.32 C 143.55 131.36 144.57 132.04 145.61 131.84 Z M 146.86 131.56 L 147.79 131.21 C 148.79 130.84 149.29 129.72 148.91 128.72 C 148.54 127.73 147.42 127.22 146.43 127.60 L 145.50 127.95 C 144.50 128.33 144.00 129.44 144.37 130.44 C 144.75 131.44 145.86 131.94 146.86 131.56 Z M 147.92 131.16 L 148.87 130.71 C 149.84 130.26 150.26 129.11 149.81 128.15 C 149.35 127.18 148.21 126.76 147.24 127.22 L 146.29 127.66 C 145.33 128.11 144.91 129.26 145.36 130.22 C 145.81 131.19 146.96 131.61 147.92 131.16 Z M 148.90 130.70 L 149.70 130.31 C 150.66 129.84 151.06 128.69 150.59 127.73 C 150.12 126.77 148.97 126.37 148.01 126.84 L 147.21 127.23 C 146.25 127.70 145.85 128.85 146.32 129.81 C 146.79 130.77 147.94 131.17 148.90 130.70 Z M 149.71 130.31 L 150.58 129.88 C 151.53 129.41 151.93 128.25 151.45 127.29 C 150.98 126.34 149.82 125.94 148.87 126.42 L 148.00 126.84 C 147.04 127.32 146.65 128.47 147.12 129.43 C 147.60 130.39 148.75 130.78 149.71 130.31 Z M 150.58 129.88 L 151.57 129.38 C 152.52 128.91 152.91 127.75 152.43 126.80 C 151.96 125.84 150.80 125.45 149.85 125.93 L 148.86 126.42 C 147.91 126.89 147.52 128.05 147.99 129.01 C 148.47 129.96 149.63 130.35 150.58 129.88 Z M 151.57 129.38 L 152.48 128.93 C 153.43 128.45 153.82 127.29 153.34 126.34 C 152.86 125.39 151.70 125.00 150.75 125.48 L 149.84 125.93 C 148.89 126.41 148.50 127.57 148.98 128.52 C 149.46 129.47 150.62 129.86 151.57 129.38 Z M 152.48 128.93 L 153.39 128.47 C 154.34 128.00 154.73 126.84 154.25 125.88 C 153.77 124.93 152.61 124.54 151.66 125.02 L 150.75 125.48 C 149.80 125.95 149.41 127.11 149.89 128.07 C 150.37 129.02 151.53 129.41 152.48 128.93 Z M 153.39 128.47 L 154.32 128.01 C 155.27 127.53 155.66 126.37 155.18 125.42 C 154.70 124.46 153.54 124.08 152.59 124.56 L 151.66 125.02 C 150.71 125.50 150.32 126.66 150.80 127.61 C 151.28 128.57 152.44 128.95 153.39 128.47 Z M 154.32 128.01 L 155.22 127.56 C 156.17 127.08 156.56 125.92 156.08 124.97 C 155.60 124.01 154.44 123.63 153.49 124.10 L 152.59 124.56 C 151.63 125.03 151.25 126.19 151.73 127.15 C 152.20 128.10 153.36 128.49 154.32 128.01 Z M 155.22 127.56 L 156.16 127.08 C 157.11 126.61 157.50 125.45 157.02 124.50 C 156.55 123.54 155.39 123.16 154.43 123.63 L 153.49 124.10 C 152.54 124.58 152.15 125.74 152.63 126.69 C 153.11 127.65 154.26 128.03 155.22 127.56 Z M 156.16 127.09 L 157.14 126.60 C 158.09 126.12 158.48 124.96 158.01 124.01 C 157.53 123.06 156.37 122.67 155.42 123.14 L 154.44 123.63 C 153.48 124.11 153.10 125.26 153.57 126.22 C 154.05 127.17 155.20 127.56 156.16 127.09 Z M 157.13 126.60 L 157.98 126.18 C 158.94 125.71 159.33 124.55 158.85 123.60 C 158.38 122.64 157.23 122.25 156.27 122.72 L 155.42 123.14 C 154.47 123.61 154.08 124.77 154.55 125.72 C 155.02 126.68 156.18 127.07 157.13 126.60 Z M 157.98 126.19 L 158.85 125.76 C 159.81 125.29 160.21 124.13 159.74 123.17 C 159.27 122.21 158.11 121.81 157.15 122.28 L 156.28 122.71 C 155.32 123.18 154.92 124.34 155.39 125.30 C 155.86 126.26 157.02 126.66 157.98 126.19 Z M 158.72 125.86 L 159.71 125.48 C 160.72 125.08 161.23 123.94 160.83 122.92 C 160.44 121.91 159.30 121.40 158.28 121.80 L 157.29 122.18 C 156.27 122.58 155.77 123.72 156.16 124.74 C 156.56 125.75 157.70 126.26 158.72 125.86 Z M 156.99 123.35 L 156.94 123.70 C 156.78 124.81 157.55 125.84 158.65 126.00 C 159.76 126.16 160.79 125.39 160.95 124.28 L 161.00 123.92 C 161.16 122.82 160.39 121.79 159.28 121.63 C 158.17 121.47 157.15 122.24 156.99 123.35 Z M 157.35 122.71 L 156.78 123.42 C 156.07 124.29 156.21 125.58 157.09 126.29 C 157.97 127.00 159.25 126.86 159.96 125.98 L 160.53 125.28 C 161.24 124.40 161.11 123.11 160.23 122.40 C 159.35 121.69 158.06 121.83 157.35 122.71 Z M 156.83 123.34 L 156.01 124.28 C 155.26 125.13 155.34 126.42 156.18 127.17 C 157.03 127.92 158.33 127.84 159.08 127.00 L 159.91 126.06 C 160.66 125.21 160.58 123.91 159.73 123.16 C 158.88 122.41 157.59 122.49 156.83 123.34 Z M 156.00 124.28 L 155.25 125.14 C 154.50 125.99 154.58 127.29 155.43 128.04 C 156.28 128.79 157.58 128.70 158.33 127.85 L 159.08 126.99 C 159.83 126.14 159.75 124.84 158.90 124.10 C 158.05 123.35 156.75 123.43 156.00 124.28 Z M 155.23 125.16 L 154.55 125.95 C 153.81 126.81 153.91 128.11 154.77 128.85 C 155.63 129.58 156.93 129.48 157.66 128.62 L 158.34 127.83 C 159.08 126.97 158.98 125.68 158.12 124.94 C 157.26 124.20 155.97 124.30 155.23 125.16 Z M 154.54 125.97 L 153.90 126.74 C 153.17 127.61 153.28 128.90 154.15 129.62 C 155.02 130.35 156.31 130.24 157.04 129.37 L 157.68 128.60 C 158.40 127.74 158.29 126.45 157.42 125.72 C 156.56 124.99 155.26 125.11 154.54 125.97 Z M 153.88 126.76 L 153.30 127.48 C 152.58 128.35 152.71 129.64 153.59 130.35 C 154.46 131.07 155.75 130.94 156.46 130.06 L 157.05 129.35 C 157.76 128.47 157.63 127.19 156.76 126.47 C 155.89 125.76 154.60 125.89 153.88 126.76 Z M 153.28 127.51 L 152.62 128.35 C 151.92 129.23 152.07 130.51 152.96 131.21 C 153.84 131.91 155.12 131.75 155.82 130.87 L 156.48 130.03 C 157.17 129.15 157.02 127.87 156.14 127.17 C 155.26 126.48 153.98 126.63 153.28 127.51 Z M 152.60 128.41 L 152.02 129.17 C 151.36 130.07 151.54 131.34 152.44 132.00 C 153.33 132.67 154.60 132.48 155.27 131.59 L 155.84 130.82 C 156.50 129.92 156.32 128.66 155.42 127.99 C 154.53 127.32 153.26 127.51 152.60 128.41 Z M 152.00 129.23 L 151.45 130.01 C 150.82 130.92 151.04 132.17 151.95 132.81 C 152.86 133.44 154.11 133.22 154.75 132.31 L 155.29 131.53 C 155.92 130.62 155.70 129.37 154.79 128.74 C 153.88 128.10 152.63 128.32 152.00 129.23 Z M 151.44 130.05 L 150.89 130.89 C 150.27 131.80 150.52 133.04 151.44 133.65 C 152.36 134.27 153.60 134.02 154.21 133.10 L 154.76 132.27 C 155.37 131.35 155.12 130.11 154.21 129.50 C 153.29 128.89 152.05 129.14 151.44 130.05 Z M 150.88 130.90 L 150.33 131.75 C 149.73 132.66 149.98 133.90 150.90 134.50 C 151.82 135.10 153.05 134.85 153.65 133.93 L 154.21 133.08 C 154.81 132.17 154.56 130.93 153.64 130.33 C 152.72 129.73 151.49 129.98 150.88 130.90 Z M 150.34 131.74 L 149.77 132.59 C 149.17 133.50 149.42 134.73 150.33 135.34 C 151.24 135.95 152.47 135.70 153.08 134.79 L 153.64 133.94 C 154.25 133.02 154.00 131.79 153.09 131.19 C 152.18 130.58 150.95 130.83 150.34 131.74 Z M 149.79 132.58 L 149.22 133.41 C 148.61 134.32 148.85 135.55 149.76 136.16 C 150.66 136.77 151.89 136.53 152.50 135.63 L 153.07 134.80 C 153.68 133.89 153.44 132.66 152.53 132.05 C 151.63 131.44 150.40 131.67 149.79 132.58 Z M 149.23 133.41 L 148.68 134.22 C 148.07 135.13 148.30 136.36 149.21 136.97 C 150.11 137.58 151.34 137.34 151.95 136.44 L 152.50 135.62 C 153.11 134.72 152.87 133.49 151.97 132.88 C 151.07 132.27 149.84 132.51 149.23 133.41 Z M 148.67 134.23 L 148.11 135.08 C 147.50 135.99 147.75 137.21 148.65 137.82 C 149.56 138.42 150.79 138.18 151.39 137.27 L 151.96 136.43 C 152.56 135.52 152.32 134.29 151.41 133.69 C 150.51 133.08 149.28 133.33 148.67 134.23 Z M 148.11 135.08 L 147.56 135.90 C 146.95 136.81 147.20 138.04 148.11 138.64 C 149.01 139.25 150.24 139.00 150.84 138.09 L 151.39 137.27 C 152.00 136.36 151.75 135.14 150.84 134.53 C 149.94 133.93 148.71 134.17 148.11 135.08 Z M 147.56 135.90 L 147.00 136.73 C 146.39 137.63 146.63 138.86 147.54 139.47 C 148.44 140.08 149.67 139.84 150.28 138.94 L 150.84 138.10 C 151.45 137.20 151.21 135.97 150.31 135.36 C 149.40 134.75 148.17 134.99 147.56 135.90 Z M 147.01 136.72 L 146.44 137.54 C 145.83 138.44 146.06 139.67 146.97 140.29 C 147.87 140.91 149.10 140.67 149.72 139.77 L 150.28 138.95 C 150.89 138.04 150.66 136.81 149.76 136.20 C 148.85 135.58 147.62 135.81 147.01 136.72 Z M 146.43 137.54 L 145.80 138.48 C 145.18 139.39 145.42 140.63 146.34 141.24 C 147.25 141.86 148.49 141.62 149.10 140.70 L 149.73 139.77 C 150.35 138.86 150.11 137.62 149.19 137.00 C 148.28 136.39 147.04 136.63 146.43 137.54 Z M 145.56 138.88 L 145.25 139.71 C 144.86 140.75 145.39 141.92 146.43 142.31 C 147.48 142.70 148.64 142.17 149.03 141.12 L 149.34 140.30 C 149.73 139.25 149.20 138.09 148.16 137.70 C 147.11 137.31 145.95 137.84 145.56 138.88 Z M 146.42 142.33 L 146.95 142.53 C 148.01 142.93 149.19 142.40 149.59 141.35 C 149.99 140.29 149.46 139.11 148.40 138.71 L 147.87 138.50 C 146.81 138.10 145.63 138.63 145.23 139.69 C 144.83 140.75 145.36 141.93 146.42 142.33 Z M 148.01 142.65 L 149.14 142.47 C 150.26 142.28 151.02 141.22 150.84 140.10 C 150.65 138.98 149.60 138.22 148.47 138.40 L 147.34 138.59 C 146.22 138.77 145.46 139.83 145.65 140.95 C 145.83 142.07 146.89 142.84 148.01 142.65 Z M 149.36 142.43 L 150.45 142.13 C 151.55 141.82 152.19 140.68 151.89 139.58 C 151.58 138.48 150.44 137.83 149.34 138.14 L 148.25 138.44 C 147.15 138.74 146.51 139.89 146.81 140.99 C 147.12 142.09 148.26 142.74 149.36 142.43 Z M 150.50 142.13 L 151.48 141.82 C 152.58 141.49 153.20 140.32 152.87 139.22 C 152.53 138.12 151.36 137.50 150.26 137.84 L 149.28 138.14 C 148.18 138.48 147.56 139.64 147.90 140.74 C 148.23 141.84 149.40 142.46 150.50 142.13 Z M 151.46 141.85 L 152.45 141.56 C 153.56 141.23 154.20 140.07 153.87 138.95 C 153.54 137.84 152.38 137.20 151.27 137.53 L 150.28 137.82 C 149.17 138.14 148.53 139.31 148.86 140.42 C 149.19 141.53 150.35 142.17 151.46 141.85 Z M 152.34 141.60 L 153.33 141.37 C 154.46 141.10 155.17 139.96 154.90 138.82 C 154.63 137.69 153.49 136.99 152.36 137.25 L 151.37 137.49 C 150.23 137.76 149.53 138.90 149.80 140.03 C 150.07 141.17 151.21 141.87 152.34 141.60 Z M 153.03 141.42 L 154.11 141.33 C 155.27 141.23 156.14 140.20 156.03 139.03 C 155.93 137.86 154.90 137.00 153.74 137.10 L 152.66 137.20 C 151.49 137.30 150.63 138.33 150.73 139.49 C 150.83 140.66 151.86 141.52 153.03 141.42 Z M 153.43 141.28 L 154.30 141.49 C 155.44 141.76 156.59 141.06 156.86 139.92 C 157.13 138.77 156.43 137.63 155.29 137.36 L 154.41 137.15 C 153.27 136.88 152.13 137.58 151.85 138.72 C 151.58 139.86 152.29 141.01 153.43 141.28 Z M 153.43 141.07 L 154.10 141.62 C 155.01 142.37 156.35 142.24 157.10 141.33 C 157.85 140.42 157.72 139.08 156.82 138.33 L 156.15 137.78 C 155.24 137.03 153.90 137.16 153.15 138.07 C 152.40 138.97 152.53 140.32 153.43 141.07 Z M 153.63 141.10 L 154.15 141.94 C 154.77 142.94 156.09 143.26 157.10 142.64 C 158.11 142.01 158.42 140.69 157.80 139.68 L 157.28 138.85 C 156.66 137.84 155.34 137.53 154.33 138.15 C 153.32 138.77 153.01 140.09 153.63 141.10 Z M 153.98 141.63 L 154.39 142.64 C 154.85 143.74 156.11 144.27 157.21 143.82 C 158.31 143.36 158.84 142.10 158.39 141.00 L 157.97 139.99 C 157.52 138.89 156.26 138.36 155.15 138.81 C 154.05 139.27 153.53 140.53 153.98 141.63 Z M 154.33 142.49 L 154.62 143.40 C 154.99 144.54 156.22 145.16 157.36 144.79 C 158.49 144.42 159.12 143.19 158.75 142.05 L 158.45 141.15 C 158.08 140.01 156.86 139.39 155.72 139.76 C 154.58 140.13 153.96 141.35 154.33 142.49 Z M 154.58 143.29 L 154.84 144.25 C 155.15 145.42 156.34 146.11 157.50 145.80 C 158.67 145.49 159.36 144.29 159.05 143.13 L 158.79 142.16 C 158.48 141.00 157.28 140.31 156.12 140.62 C 154.96 140.93 154.27 142.13 154.58 143.29 Z M 154.80 144.15 L 155.02 145.17 C 155.27 146.35 156.43 147.10 157.61 146.85 C 158.80 146.60 159.55 145.44 159.30 144.26 L 159.08 143.24 C 158.83 142.06 157.67 141.30 156.49 141.55 C 155.31 141.81 154.55 142.97 154.80 144.15 Z M 154.99 145.07 L 155.16 146.05 C 155.35 147.24 156.48 148.05 157.68 147.86 C 158.87 147.66 159.68 146.53 159.49 145.33 L 159.33 144.36 C 159.13 143.16 158.00 142.35 156.80 142.55 C 155.61 142.74 154.80 143.87 154.99 145.07 Z M 155.14 145.97 L 155.26 146.96 C 155.41 148.16 156.52 149.02 157.72 148.86 C 158.93 148.71 159.79 147.61 159.63 146.40 L 159.51 145.41 C 159.35 144.21 158.25 143.35 157.04 143.51 C 155.84 143.66 154.98 144.76 155.14 145.97 Z M 155.24 146.89 L 155.34 147.90 C 155.46 149.11 156.54 150.00 157.76 149.89 C 158.97 149.77 159.86 148.69 159.75 147.47 L 159.65 146.47 C 159.53 145.25 158.45 144.36 157.23 144.48 C 156.02 144.59 155.13 145.68 155.24 146.89 Z M 155.33 147.84 L 155.40 148.86 C 155.49 150.08 156.55 151.00 157.78 150.91 C 159.00 150.83 159.92 149.76 159.83 148.54 L 159.76 147.52 C 159.67 146.30 158.61 145.38 157.38 145.47 C 156.16 145.56 155.24 146.62 155.33 147.84 Z M 155.39 148.82 L 155.44 149.83 C 155.51 151.06 156.56 152.00 157.79 151.94 C 159.02 151.87 159.96 150.82 159.90 149.59 L 159.84 148.58 C 159.78 147.35 158.73 146.41 157.50 146.47 C 156.27 146.54 155.33 147.59 155.39 148.82 Z M 155.44 149.79 L 155.47 150.80 C 155.52 152.03 156.56 152.99 157.79 152.95 C 159.02 152.90 159.99 151.87 159.94 150.63 L 159.90 149.63 C 159.86 148.39 158.82 147.43 157.59 147.48 C 156.35 147.52 155.39 148.56 155.44 149.79 Z M 155.46 150.77 L 155.49 151.76 C 155.52 153.00 156.55 153.98 157.79 153.95 C 159.03 153.92 160.00 152.89 159.97 151.65 L 159.95 150.66 C 159.92 149.42 158.89 148.44 157.65 148.47 C 156.41 148.50 155.43 149.53 155.46 150.77 Z M 155.48 151.74 L 155.49 152.77 C 155.51 154.01 156.54 155.01 157.78 154.99 C 159.02 154.97 160.02 153.94 160.00 152.70 L 159.98 151.67 C 159.97 150.43 158.94 149.43 157.70 149.45 C 156.45 149.47 155.46 150.49 155.48 151.74 Z M 155.48 152.75 L 155.49 153.79 C 155.50 155.04 156.52 156.05 157.77 156.04 C 159.02 156.04 160.02 155.02 160.02 153.77 L 160.01 152.72 C 160.00 151.47 158.98 150.46 157.73 150.47 C 156.48 150.48 155.48 151.50 155.48 152.75 Z M 155.48 153.77 L 155.47 154.75 C 155.47 156.01 156.48 157.03 157.74 157.04 C 159.00 157.04 160.02 156.03 160.02 154.77 L 160.03 153.79 C 160.03 152.53 159.02 151.51 157.76 151.51 C 156.51 151.50 155.48 152.52 155.48 153.77 Z M 155.46 154.73 L 155.45 155.68 C 155.43 156.95 156.43 157.99 157.70 158.01 C 158.96 158.03 160.00 157.02 160.02 155.76 L 160.03 154.80 C 160.06 153.54 159.05 152.50 157.79 152.48 C 156.52 152.46 155.48 153.46 155.46 154.73 Z M 155.44 155.58 L 155.38 156.60 C 155.30 157.87 156.26 158.96 157.53 159.04 C 158.80 159.11 159.88 158.15 159.96 156.89 L 160.02 155.86 C 160.10 154.60 159.14 153.51 157.87 153.43 C 156.61 153.35 155.52 154.32 155.44 155.58 Z M 155.41 156.28 L 155.22 157.22 C 154.97 158.46 155.77 159.68 157.02 159.94 C 158.27 160.19 159.48 159.39 159.74 158.14 L 159.93 157.21 C 160.18 155.96 159.38 154.74 158.13 154.49 C 156.89 154.23 155.67 155.04 155.41 156.28 Z M 155.37 156.74 L 154.96 157.65 C 154.44 158.82 154.97 160.18 156.14 160.70 C 157.30 161.22 158.67 160.70 159.19 159.53 L 159.59 158.62 C 160.11 157.45 159.59 156.08 158.42 155.57 C 157.25 155.05 155.89 155.57 155.37 156.74 Z M 155.23 157.17 L 154.62 157.98 C 153.84 159.00 154.03 160.45 155.05 161.23 C 156.06 162.01 157.52 161.82 158.30 160.80 L 158.92 160.00 C 159.70 158.98 159.51 157.53 158.49 156.75 C 157.47 155.97 156.01 156.16 155.23 157.17 Z M 155.12 157.48 L 154.33 158.04 C 153.27 158.78 153.02 160.23 153.76 161.29 C 154.50 162.34 155.95 162.60 157.00 161.86 L 157.80 161.30 C 158.85 160.56 159.11 159.11 158.37 158.05 C 157.63 157.00 156.17 156.74 155.12 157.48 Z M 155.17 157.67 L 154.21 157.88 C 152.95 158.15 152.15 159.40 152.43 160.66 C 152.71 161.92 153.95 162.71 155.21 162.44 L 156.17 162.23 C 157.42 161.95 158.22 160.71 157.95 159.45 C 157.67 158.19 156.42 157.39 155.17 157.67 Z M 155.05 157.85 L 154.05 157.70 C 152.78 157.51 151.59 158.40 151.40 159.67 C 151.21 160.95 152.09 162.13 153.37 162.32 L 154.37 162.47 C 155.65 162.66 156.83 161.77 157.02 160.50 C 157.21 159.22 156.33 158.04 155.05 157.85 Z M 154.65 157.88 L 153.78 157.49 C 152.60 156.97 151.23 157.51 150.71 158.69 C 150.19 159.86 150.72 161.24 151.90 161.76 L 152.77 162.14 C 153.95 162.66 155.32 162.13 155.84 160.95 C 156.36 159.77 155.83 158.40 154.65 157.88 Z M 154.09 157.67 L 153.24 157.12 C 152.15 156.43 150.72 156.75 150.03 157.83 C 149.33 158.91 149.65 160.35 150.73 161.04 L 151.59 161.59 C 152.67 162.28 154.11 161.96 154.80 160.88 C 155.49 159.80 155.17 158.36 154.09 157.67 Z M 153.35 157.22 L 152.52 156.60 C 151.49 155.85 150.04 156.07 149.29 157.09 C 148.53 158.12 148.75 159.57 149.78 160.32 L 150.61 160.94 C 151.64 161.70 153.09 161.48 153.84 160.45 C 154.60 159.42 154.38 157.98 153.35 157.22 Z M 152.53 156.65 L 151.72 156.03 C 150.72 155.27 149.29 155.46 148.52 156.46 C 147.76 157.46 147.95 158.89 148.95 159.66 L 149.76 160.28 C 150.77 161.04 152.20 160.85 152.96 159.85 C 153.72 158.85 153.53 157.41 152.53 156.65 Z M 151.69 156.06 L 150.91 155.47 C 149.92 154.72 148.51 154.91 147.77 155.90 C 147.02 156.89 147.21 158.29 148.20 159.04 L 148.98 159.63 C 149.97 160.38 151.37 160.19 152.12 159.20 C 152.87 158.21 152.68 156.81 151.69 156.06 Z M 150.83 155.49 L 150.02 154.91 C 149.04 154.20 147.68 154.42 146.98 155.40 C 146.28 156.37 146.50 157.73 147.47 158.43 L 148.28 159.01 C 149.25 159.72 150.61 159.50 151.32 158.52 C 152.02 157.55 151.80 156.19 150.83 155.49 Z M 149.91 154.96 L 149.09 154.40 C 148.15 153.76 146.86 154.01 146.22 154.95 C 145.58 155.90 145.82 157.19 146.77 157.83 L 147.58 158.38 C 148.53 159.02 149.81 158.77 150.45 157.83 C 151.10 156.88 150.85 155.60 149.91 154.96 Z M 149.00 154.48 L 148.18 153.94 C 147.27 153.35 146.06 153.60 145.47 154.51 C 144.88 155.41 145.13 156.63 146.04 157.22 L 146.86 157.75 C 147.77 158.35 148.98 158.09 149.57 157.18 C 150.16 156.28 149.90 155.07 149.00 154.48 Z M 148.11 154.02 L 147.27 153.48 C 146.41 152.93 145.26 153.18 144.71 154.04 C 144.16 154.91 144.41 156.05 145.27 156.60 L 146.11 157.14 C 146.97 157.69 148.11 157.44 148.67 156.58 C 149.22 155.72 148.97 154.57 148.11 154.02 Z M 147.21 153.56 L 146.35 153.01 C 145.53 152.49 144.45 152.74 143.93 153.55 C 143.41 154.37 143.65 155.45 144.47 155.97 L 145.33 156.52 C 146.15 157.04 147.23 156.80 147.75 155.99 C 148.27 155.17 148.03 154.08 147.21 153.56 Z M 146.32 153.06 L 146.15 152.96 C 145.36 152.46 144.32 152.69 143.81 153.48 C 143.31 154.27 143.55 155.32 144.34 155.82 L 144.50 155.93 C 145.29 156.43 146.34 156.19 146.84 155.40 C 147.34 154.61 147.11 153.56 146.32 153.06 Z"
      fill="black"
      fill-rule="nonzero" /></svg>