<svg xmlns="http://www.w3.org/2000/svg" width="300" height="300" viewBox="0 0 300 300">
<path d="M 179.69 164.94 L 179.65 165.91 C 179.61 166.83 180.32 167.60 181.24 167.64 C 182.16 167.68 182.94 166.97 182.98 166.05 L 183.02 165.08 C 183.06 164.17 182.34 163.39 181.42 163.35 C 180.50 163.31 179.73 164.03 179.69 164.94 Z M 179.62 165.92 L 179.58 166.92 C 179.55 167.86 180.28 168.64 181.22 168.67 C 182.15 168.71 182.94 167.97 182.97 167.04 L 183.01 166.04 C 183.04 165.10 182.31 164.32 181.37 164.28 C 180.43 164.25 179.65 164.98 179.62 165.92 Z M 179.56 166.94 L 179.54 167.96 C 179.52 168.91 180.27 169.70 181.22 169.72 C 182.17 169.74 182.96 168.98 182.98 168.03 L 183.00 167.02 C 183.02 166.07 182.26 165.28 181.31 165.26 C 180.36 165.24 179.58 165.99 179.56 166.94 Z M 179.52 167.98 L 179.51 168.98 C 179.51 169.94 180.27 170.72 181.23 170.73 C 182.19 170.74 182.97 169.97 182.98 169.01 L 182.99 168.01 C 183.00 167.06 182.23 166.27 181.27 166.26 C 180.31 166.26 179.53 167.02 179.52 167.98 Z M 179.51 168.99 L 179.51 170.01 C 179.50 170.97 180.28 171.75 181.24 171.75 C 182.20 171.75 182.98 170.98 182.98 170.01 L 182.99 169.00 C 182.99 168.04 182.21 167.26 181.25 167.25 C 180.29 167.25 179.51 168.03 179.51 168.99 Z M 179.50 170.01 L 179.50 171.04 C 179.50 172.00 180.28 172.78 181.25 172.78 C 182.21 172.78 182.99 172.00 182.99 171.04 L 182.99 170.01 C 182.99 169.05 182.21 168.27 181.24 168.27 C 180.28 168.27 179.50 169.05 179.50 170.01 Z M 179.50 171.04 L 179.50 172.06 C 179.51 173.03 180.29 173.80 181.26 173.80 C 182.22 173.80 183.00 173.01 183.00 172.04 L 182.99 171.03 C 182.99 170.06 182.20 169.28 181.24 169.29 C 180.27 169.29 179.49 170.08 179.50 171.04 Z M 179.50 172.09 L 179.52 173.06 C 179.54 174.03 180.34 174.79 181.30 174.77 C 182.27 174.76 183.03 173.96 183.02 172.99 L 183.00 172.02 C 182.98 171.05 182.18 170.29 181.22 170.31 C 180.25 170.32 179.48 171.12 179.50 172.09 Z M 179.52 173.10 L 179.56 174.06 C 179.60 175.02 180.42 175.77 181.38 175.73 C 182.35 175.69 183.10 174.87 183.06 173.91 L 183.01 172.95 C 182.97 171.99 182.16 171.24 181.19 171.28 C 180.23 171.32 179.48 172.14 179.52 173.10 Z M 179.56 174.08 L 179.62 175.06 C 179.68 176.02 180.50 176.75 181.47 176.70 C 182.43 176.64 183.17 175.81 183.11 174.85 L 183.05 173.88 C 183.00 172.92 182.17 172.18 181.21 172.24 C 180.24 172.29 179.51 173.12 179.56 174.08 Z M 179.62 175.05 L 179.68 176.10 C 179.73 177.07 180.55 177.81 181.52 177.75 C 182.48 177.70 183.22 176.88 183.17 175.91 L 183.11 174.86 C 183.06 173.89 182.23 173.16 181.27 173.21 C 180.31 173.26 179.57 174.08 179.62 175.05 Z M 179.68 176.08 L 179.71 177.02 C 179.75 177.99 180.57 178.74 181.53 178.70 C 182.50 178.66 183.25 177.85 183.21 176.88 L 183.17 175.94 C 183.13 174.97 182.32 174.22 181.35 174.26 C 180.39 174.30 179.64 175.11 179.68 176.08 Z M 179.71 177.00 L 179.74 178.01 C 179.77 178.98 180.58 179.74 181.54 179.71 C 182.51 179.68 183.27 178.88 183.24 177.91 L 183.21 176.90 C 183.18 175.94 182.38 175.18 181.41 175.21 C 180.45 175.24 179.69 176.04 179.71 177.00 Z M 179.74 178.00 L 179.76 179.03 C 179.78 180.00 180.58 180.76 181.54 180.74 C 182.51 180.72 183.28 179.93 183.26 178.96 L 183.24 177.93 C 183.22 176.96 182.42 176.20 181.46 176.22 C 180.49 176.23 179.72 177.03 179.74 178.00 Z M 179.76 179.02 L 179.78 180.03 C 179.79 181.00 180.58 181.77 181.55 181.76 C 182.51 181.75 183.28 180.96 183.27 179.99 L 183.26 178.97 C 183.25 178.01 182.45 177.24 181.49 177.25 C 180.52 177.26 179.75 178.05 179.76 179.02 Z M 179.77 180.03 L 179.79 181.03 C 179.80 182.00 180.59 182.77 181.56 182.76 C 182.52 182.74 183.30 181.95 183.29 180.98 L 183.27 179.99 C 183.26 179.02 182.47 178.25 181.50 178.26 C 180.53 178.27 179.76 179.07 179.77 180.03 Z M 179.79 181.05 L 179.81 182.05 C 179.84 183.01 180.64 183.78 181.61 183.75 C 182.57 183.73 183.34 182.92 183.31 181.96 L 183.29 180.96 C 183.26 180.00 182.46 179.23 181.49 179.26 C 180.53 179.28 179.76 180.08 179.79 181.05 Z M 179.80 182.09 L 179.85 183.12 C 179.90 184.09 180.73 184.84 181.70 184.79 C 182.67 184.75 183.42 183.92 183.37 182.95 L 183.32 181.91 C 183.27 180.94 182.45 180.19 181.47 180.24 C 180.50 180.29 179.75 181.12 179.80 182.09 Z M 179.80 183.11 L 179.85 184.21 C 179.89 185.21 180.73 185.99 181.73 185.95 C 182.73 185.91 183.51 185.06 183.47 184.06 L 183.42 182.96 C 183.38 181.96 182.54 181.18 181.54 181.23 C 180.54 181.27 179.76 182.11 179.80 183.11 Z M 179.78 183.94 L 179.67 184.90 C 179.56 185.94 180.31 186.88 181.35 186.99 C 182.39 187.10 183.32 186.35 183.44 185.31 L 183.54 184.34 C 183.65 183.30 182.90 182.37 181.86 182.26 C 180.82 182.14 179.89 182.90 179.78 183.94 Z M 179.86 184.11 L 179.45 184.81 C 178.90 185.75 179.21 186.95 180.15 187.50 C 181.08 188.05 182.29 187.74 182.84 186.80 L 183.25 186.10 C 183.80 185.17 183.49 183.96 182.55 183.41 C 181.61 182.86 180.41 183.17 179.86 184.11 Z M 180.31 183.99 L 179.51 184.35 C 178.51 184.82 178.07 186.00 178.53 187.01 C 178.99 188.01 180.18 188.45 181.18 187.99 L 181.98 187.63 C 182.98 187.17 183.42 185.98 182.96 184.97 C 182.50 183.97 181.31 183.53 180.31 183.99 Z M 180.11 184.18 L 179.07 184.31 C 177.98 184.44 177.19 185.44 177.33 186.54 C 177.46 187.64 178.46 188.42 179.56 188.29 L 180.59 188.16 C 181.69 188.03 182.47 187.03 182.34 185.93 C 182.20 184.83 181.20 184.05 180.11 184.18 Z M 179.29 184.29 L 178.22 184.31 C 177.11 184.32 176.23 185.23 176.24 186.34 C 176.25 187.45 177.16 188.33 178.27 188.32 L 179.34 188.30 C 180.45 188.29 181.34 187.38 181.32 186.27 C 181.31 185.16 180.40 184.28 179.29 184.29 Z M 178.23 184.31 L 177.33 184.31 C 176.22 184.32 175.33 185.22 175.34 186.33 C 175.34 187.44 176.25 188.33 177.35 188.32 L 178.26 188.32 C 179.36 188.31 180.26 187.41 180.25 186.30 C 180.24 185.19 179.34 184.30 178.23 184.31 Z M 177.28 184.31 L 176.34 184.34 C 175.23 184.38 174.36 185.30 174.40 186.41 C 174.43 187.52 175.36 188.39 176.46 188.35 L 177.41 188.32 C 178.51 188.29 179.38 187.36 179.35 186.25 C 179.31 185.15 178.39 184.28 177.28 184.31 Z M 176.26 184.35 L 175.19 184.42 C 174.08 184.50 173.25 185.46 173.33 186.56 C 173.41 187.67 174.36 188.50 175.47 188.42 L 176.54 188.35 C 177.65 188.27 178.48 187.31 178.40 186.21 C 178.33 185.10 177.37 184.27 176.26 184.35 Z M 175.12 184.43 L 174.13 184.53 C 173.03 184.65 172.24 185.63 172.35 186.73 C 172.47 187.83 173.45 188.63 174.55 188.52 L 175.54 188.41 C 176.64 188.30 177.44 187.31 177.32 186.21 C 177.21 185.11 176.22 184.31 175.12 184.43 Z M 174.09 184.55 L 173.20 184.66 C 172.10 184.80 171.33 185.79 171.47 186.89 C 171.61 187.98 172.60 188.76 173.70 188.62 L 174.59 188.51 C 175.69 188.37 176.46 187.37 176.32 186.28 C 176.19 185.18 175.19 184.41 174.09 184.55 Z M 173.18 184.67 L 172.21 184.80 C 171.12 184.96 170.36 185.96 170.51 187.04 C 170.66 188.13 171.66 188.89 172.75 188.74 L 173.72 188.61 C 174.81 188.46 175.57 187.45 175.42 186.37 C 175.26 185.28 174.26 184.52 173.18 184.67 Z M 172.19 184.82 L 171.17 184.97 C 170.09 185.13 169.34 186.13 169.50 187.21 C 169.65 188.29 170.66 189.04 171.74 188.88 L 172.76 188.73 C 173.84 188.57 174.59 187.57 174.43 186.49 C 174.28 185.41 173.27 184.66 172.19 184.82 Z M 171.16 184.98 L 170.09 185.14 C 169.02 185.30 168.28 186.30 168.44 187.38 C 168.61 188.45 169.61 189.19 170.68 189.03 L 171.75 188.87 C 172.82 188.70 173.56 187.70 173.40 186.63 C 173.23 185.55 172.23 184.82 171.16 184.98 Z M 170.09 185.15 L 169.01 185.32 C 167.94 185.48 167.20 186.48 167.37 187.55 C 167.53 188.62 168.53 189.35 169.60 189.18 L 170.68 189.02 C 171.75 188.85 172.49 187.85 172.32 186.79 C 172.16 185.72 171.16 184.98 170.09 185.15 Z M 169.01 185.32 L 168.92 185.34 C 167.85 185.50 167.12 186.50 167.29 187.56 C 167.45 188.63 168.45 189.36 169.51 189.19 L 169.60 189.18 C 170.67 189.01 171.40 188.02 171.23 186.95 C 171.07 185.89 170.07 185.16 169.01 185.32 Z"
      fill="black"
      fill-rule="nonzero" /></svg>