<svg xmlns="http://www.w3.org/2000/svg" width="300" height="300" viewBox="0 0 300 300">
<path d="M 141.12 130.61 L 140.09 131.45 C 139.35 132.04 139.23 133.13 139.83 133.88 C 140.43 134.62 141.51 134.74 142.26 134.14 L 143.29 133.31 C 144.03 132.71 144.15 131.62 143.55 130.88 C 142.96 130.13 141.87 130.02 141.12 130.61 Z M 140.05 131.36 L 139.25 131.99 C 138.45 132.61 138.31 133.75 138.93 134.55 C 139.55 135.34 140.70 135.48 141.49 134.86 L 142.30 134.23 C 143.09 133.61 143.23 132.46 142.61 131.67 C 141.99 130.88 140.84 130.74 140.05 131.36 Z M 139.36 131.80 L 139.00 132.03 C 138.10 132.58 137.83 133.76 138.38 134.66 C 138.94 135.55 140.12 135.82 141.01 135.27 L 141.37 135.04 C 142.27 134.49 142.54 133.31 141.99 132.42 C 141.43 131.52 140.26 131.25 139.36 131.80 Z M 141.39 135.04 L 142.02 134.41 C 142.79 133.64 142.79 132.40 142.02 131.63 C 141.26 130.86 140.01 130.86 139.24 131.63 L 138.62 132.26 C 137.85 133.03 137.85 134.27 138.61 135.04 C 139.38 135.81 140.63 135.81 141.39 135.04 Z M 141.86 134.59 L 142.71 133.93 C 143.58 133.25 143.73 132.00 143.06 131.13 C 142.38 130.26 141.12 130.11 140.25 130.78 L 139.40 131.45 C 138.54 132.13 138.38 133.38 139.06 134.25 C 139.74 135.12 140.99 135.27 141.86 134.59 Z M 142.56 134.06 L 143.34 133.57 C 144.28 132.97 144.56 131.73 143.96 130.79 C 143.37 129.85 142.12 129.57 141.18 130.16 L 140.41 130.65 C 139.47 131.25 139.18 132.49 139.78 133.43 C 140.37 134.37 141.62 134.65 142.56 134.06 Z M 143.22 133.66 L 144.18 133.14 C 145.17 132.61 145.54 131.38 145.02 130.40 C 144.49 129.41 143.26 129.03 142.27 129.56 L 141.31 130.07 C 140.32 130.60 139.94 131.83 140.47 132.82 C 141.00 133.81 142.23 134.18 143.22 133.66 Z M 144.10 133.20 L 145.05 132.74 C 146.07 132.26 146.50 131.04 146.02 130.02 C 145.53 129.00 144.32 128.57 143.30 129.05 L 142.35 129.51 C 141.33 129.99 140.90 131.21 141.38 132.23 C 141.87 133.25 143.08 133.68 144.10 133.20 Z M 145.01 132.77 L 145.95 132.35 C 146.99 131.89 147.45 130.68 146.99 129.64 C 146.53 128.61 145.31 128.14 144.28 128.60 L 143.34 129.02 C 142.30 129.49 141.84 130.70 142.30 131.74 C 142.76 132.77 143.98 133.24 145.01 132.77 Z M 145.92 132.38 L 146.89 131.96 C 147.94 131.52 148.42 130.31 147.98 129.26 C 147.53 128.21 146.32 127.72 145.27 128.17 L 144.31 128.58 C 143.26 129.03 142.77 130.24 143.22 131.29 C 143.66 132.34 144.88 132.82 145.92 132.38 Z M 146.86 131.98 L 147.79 131.61 C 148.85 131.17 149.35 129.96 148.92 128.91 C 148.49 127.85 147.28 127.34 146.22 127.77 L 145.30 128.15 C 144.24 128.58 143.73 129.79 144.16 130.85 C 144.60 131.91 145.81 132.42 146.86 131.98 Z M 147.75 131.63 L 148.76 131.24 C 149.83 130.83 150.36 129.62 149.94 128.55 C 149.53 127.48 148.33 126.95 147.26 127.36 L 146.26 127.75 C 145.19 128.16 144.65 129.37 145.07 130.44 C 145.48 131.51 146.68 132.04 147.75 131.63 Z M 148.70 131.26 L 149.68 130.91 C 150.77 130.53 151.33 129.34 150.95 128.26 C 150.56 127.17 149.37 126.61 148.29 126.99 L 147.31 127.34 C 146.23 127.73 145.66 128.92 146.05 130.00 C 146.43 131.08 147.62 131.65 148.70 131.26 Z M 149.65 130.92 L 150.48 130.64 C 151.57 130.27 152.15 129.09 151.79 128.00 C 151.42 126.92 150.24 126.33 149.15 126.70 L 148.32 126.98 C 147.23 127.35 146.65 128.53 147.02 129.62 C 147.39 130.71 148.57 131.29 149.65 130.92 Z M 150.51 130.63 L 151.41 130.31 C 152.49 129.93 153.06 128.74 152.68 127.66 C 152.29 126.58 151.10 126.01 150.02 126.39 L 149.12 126.71 C 148.04 127.10 147.47 128.29 147.86 129.37 C 148.24 130.45 149.43 131.02 150.51 130.63 Z M 151.43 130.30 L 152.37 129.96 C 153.45 129.57 154.00 128.38 153.61 127.30 C 153.22 126.22 152.03 125.67 150.95 126.06 L 150.01 126.40 C 148.93 126.79 148.37 127.99 148.76 129.06 C 149.16 130.14 150.35 130.70 151.43 130.30 Z M 152.34 129.97 L 153.29 129.64 C 154.37 129.27 154.95 128.09 154.58 127.01 C 154.20 125.93 153.02 125.35 151.94 125.72 L 150.99 126.05 C 149.91 126.42 149.33 127.60 149.70 128.68 C 150.07 129.77 151.25 130.34 152.34 129.97 Z M 153.24 129.65 L 154.19 129.35 C 155.28 129.00 155.88 127.85 155.54 126.76 C 155.20 125.67 154.04 125.07 152.96 125.41 L 152.00 125.72 C 150.91 126.06 150.31 127.21 150.65 128.30 C 150.99 129.39 152.15 129.99 153.24 129.65 Z M 154.17 129.34 L 155.12 129.05 C 156.20 128.72 156.81 127.57 156.48 126.49 C 156.15 125.41 155.00 124.80 153.92 125.13 L 152.98 125.42 C 151.89 125.75 151.29 126.90 151.62 127.98 C 151.95 129.06 153.09 129.67 154.17 129.34 Z M 155.12 129.03 L 156.08 128.74 C 157.16 128.40 157.76 127.26 157.42 126.19 C 157.09 125.12 155.95 124.52 154.88 124.85 L 153.92 125.15 C 152.84 125.48 152.24 126.62 152.58 127.69 C 152.91 128.77 154.05 129.37 155.12 129.03 Z M 156.07 128.73 L 157.02 128.44 C 158.09 128.11 158.69 126.98 158.37 125.91 C 158.04 124.84 156.91 124.24 155.84 124.57 L 154.89 124.86 C 153.82 125.18 153.22 126.32 153.55 127.38 C 153.87 128.45 155.00 129.05 156.07 128.73 Z M 156.99 128.44 L 157.91 128.17 C 158.98 127.87 159.60 126.75 159.29 125.68 C 158.98 124.61 157.87 123.99 156.80 124.30 L 155.88 124.57 C 154.81 124.87 154.19 125.99 154.49 127.06 C 154.80 128.13 155.92 128.74 156.99 128.44 Z M 157.85 128.18 L 158.83 127.93 C 159.90 127.65 160.55 126.56 160.27 125.48 C 159.99 124.41 158.90 123.77 157.83 124.04 L 156.85 124.30 C 155.78 124.57 155.14 125.67 155.41 126.74 C 155.69 127.81 156.78 128.45 157.85 128.18 Z M 158.76 127.95 L 159.91 127.70 C 161.00 127.46 161.69 126.39 161.45 125.30 C 161.21 124.21 160.14 123.53 159.05 123.76 L 157.90 124.02 C 156.81 124.25 156.12 125.33 156.36 126.42 C 156.60 127.50 157.67 128.19 158.76 127.95 Z M 159.61 127.79 L 160.61 127.72 C 161.75 127.65 162.61 126.67 162.53 125.53 C 162.46 124.40 161.48 123.54 160.34 123.61 L 159.35 123.68 C 158.21 123.75 157.35 124.73 157.42 125.87 C 157.50 127.00 158.48 127.86 159.61 127.79 Z M 158.65 126.70 L 158.89 127.13 C 159.46 128.14 160.74 128.49 161.75 127.92 C 162.76 127.35 163.12 126.06 162.54 125.06 L 162.30 124.63 C 161.73 123.62 160.45 123.27 159.44 123.84 C 158.43 124.41 158.08 125.69 158.65 126.70 Z M 158.86 125.08 L 158.37 125.99 C 157.81 127.02 158.19 128.30 159.22 128.86 C 160.24 129.41 161.53 129.03 162.08 128.01 L 162.58 127.10 C 163.13 126.07 162.75 124.79 161.72 124.23 C 160.70 123.68 159.41 124.06 158.86 125.08 Z M 158.44 125.86 L 157.82 126.85 C 157.19 127.83 157.48 129.14 158.46 129.77 C 159.45 130.39 160.75 130.10 161.38 129.12 L 162.01 128.13 C 162.63 127.15 162.34 125.84 161.36 125.22 C 160.38 124.59 159.07 124.88 158.44 125.86 Z M 157.78 126.92 L 157.27 127.80 C 156.68 128.81 157.02 130.09 158.03 130.68 C 159.03 131.26 160.32 130.92 160.90 129.92 L 161.41 129.04 C 162.00 128.04 161.66 126.75 160.66 126.17 C 159.65 125.58 158.36 125.92 157.78 126.92 Z M 157.25 127.86 L 156.78 128.73 C 156.22 129.74 156.59 131.01 157.61 131.56 C 158.62 132.12 159.89 131.75 160.44 130.73 L 160.92 129.87 C 161.47 128.85 161.10 127.58 160.09 127.03 C 159.08 126.47 157.81 126.85 157.25 127.86 Z M 156.77 128.76 L 156.33 129.60 C 155.80 130.62 156.19 131.87 157.20 132.40 C 158.22 132.94 159.47 132.55 160.01 131.53 L 160.45 130.70 C 160.98 129.68 160.59 128.43 159.58 127.89 C 158.56 127.36 157.31 127.75 156.77 128.76 Z M 156.34 129.64 L 155.90 130.49 C 155.39 131.50 155.79 132.74 156.80 133.25 C 157.82 133.77 159.05 133.36 159.57 132.35 L 160.00 131.50 C 160.52 130.49 160.11 129.25 159.10 128.73 C 158.09 128.22 156.85 128.62 156.34 129.64 Z M 155.91 130.52 L 155.43 131.49 C 154.94 132.50 155.35 133.72 156.36 134.22 C 157.37 134.71 158.59 134.30 159.09 133.29 L 159.56 132.32 C 160.06 131.31 159.64 130.09 158.63 129.59 C 157.62 129.10 156.40 129.51 155.91 130.52 Z M 155.44 131.51 L 155.06 132.30 C 154.58 133.30 155.00 134.51 156.01 134.99 C 157.01 135.48 158.22 135.05 158.70 134.05 L 159.08 133.26 C 159.56 132.26 159.14 131.05 158.14 130.57 C 157.13 130.08 155.92 130.51 155.44 131.51 Z M 155.07 132.31 L 154.66 133.18 C 154.18 134.18 154.61 135.38 155.61 135.85 C 156.61 136.33 157.81 135.90 158.29 134.90 L 158.70 134.03 C 159.17 133.03 158.74 131.83 157.74 131.36 C 156.74 130.88 155.54 131.31 155.07 132.31 Z M 154.66 133.19 L 154.22 134.14 C 153.76 135.14 154.19 136.33 155.19 136.79 C 156.18 137.26 157.37 136.83 157.84 135.83 L 158.28 134.88 C 158.75 133.88 158.31 132.70 157.32 132.23 C 156.32 131.76 155.13 132.20 154.66 133.19 Z M 154.23 134.16 L 153.76 135.18 C 153.30 136.17 153.74 137.35 154.73 137.80 C 155.73 138.26 156.91 137.83 157.36 136.83 L 157.83 135.81 C 158.29 134.82 157.85 133.64 156.86 133.18 C 155.86 132.73 154.69 133.16 154.23 134.16 Z M 153.78 135.20 L 153.38 136.08 C 152.94 137.06 153.37 138.22 154.36 138.66 C 155.34 139.11 156.50 138.67 156.94 137.69 L 157.34 136.81 C 157.79 135.83 157.35 134.67 156.37 134.22 C 155.39 133.78 154.23 134.21 153.78 135.20 Z M 153.42 136.10 L 153.02 137.00 C 152.59 137.96 153.02 139.09 153.98 139.52 C 154.94 139.95 156.07 139.52 156.50 138.56 L 156.91 137.67 C 157.34 136.70 156.91 135.57 155.94 135.14 C 154.98 134.71 153.85 135.14 153.42 136.10 Z M 153.06 137.02 L 152.65 137.94 C 152.23 138.88 152.65 139.98 153.59 140.40 C 154.53 140.82 155.64 140.40 156.06 139.46 L 156.46 138.54 C 156.88 137.60 156.46 136.49 155.52 136.08 C 154.58 135.66 153.48 136.08 153.06 137.02 Z M 152.69 137.96 L 152.27 138.90 C 151.87 139.82 152.28 140.89 153.20 141.30 C 154.12 141.70 155.19 141.29 155.60 140.37 L 156.02 139.44 C 156.42 138.52 156.01 137.44 155.09 137.04 C 154.17 136.63 153.10 137.04 152.69 137.96 Z M 152.31 138.92 L 151.90 139.86 C 151.50 140.76 151.91 141.80 152.80 142.20 C 153.70 142.60 154.75 142.19 155.14 141.29 L 155.56 140.35 C 155.96 139.46 155.55 138.41 154.65 138.01 C 153.76 137.61 152.71 138.02 152.31 138.92 Z M 151.92 139.87 L 151.89 139.95 C 151.49 140.83 151.89 141.87 152.78 142.26 C 153.66 142.65 154.70 142.25 155.09 141.36 L 155.12 141.28 C 155.51 140.40 155.11 139.37 154.23 138.98 C 153.34 138.59 152.31 138.99 151.92 139.87 Z"
      fill="black"
      fill-rule="nonzero" /><path d="M 145.27 137.36 L 145.39 138.32 C 145.51 139.24 146.34 139.90 147.27 139.78 C 148.19 139.67 148.84 138.83 148.73 137.91 L 148.61 136.95 C 148.50 136.03 147.66 135.38 146.74 135.49 C 145.82 135.60 145.16 136.44 145.27 137.36 Z M 145.27 138.31 L 145.37 139.29 C 145.48 140.28 146.37 141.00 147.36 140.89 C 148.35 140.78 149.07 139.89 148.96 138.90 L 148.86 137.92 C 148.75 136.93 147.86 136.21 146.87 136.32 C 145.87 136.43 145.16 137.32 145.27 138.31 Z M 145.24 139.25 L 145.33 140.28 C 145.42 141.34 146.35 142.13 147.41 142.05 C 148.47 141.96 149.26 141.03 149.18 139.96 L 149.09 138.94 C 149.00 137.87 148.07 137.08 147.01 137.17 C 145.95 137.26 145.16 138.19 145.24 139.25 Z M 145.24 140.22 L 145.29 141.25 C 145.34 142.36 146.29 143.22 147.40 143.16 C 148.51 143.11 149.37 142.16 149.32 141.05 L 149.27 140.02 C 149.21 138.91 148.26 138.05 147.15 138.11 C 146.04 138.16 145.18 139.11 145.24 140.22 Z M 145.26 141.20 L 145.29 142.23 C 145.31 143.36 146.25 144.25 147.38 144.22 C 148.50 144.19 149.40 143.26 149.37 142.13 L 149.34 141.10 C 149.32 139.97 148.38 139.08 147.25 139.11 C 146.13 139.13 145.23 140.07 145.26 141.20 Z M 145.28 142.20 L 145.28 143.21 C 145.29 144.34 146.22 145.25 147.35 145.24 C 148.49 145.23 149.40 144.30 149.39 143.17 L 149.38 142.16 C 149.37 141.03 148.44 140.12 147.31 140.13 C 146.18 140.14 145.27 141.06 145.28 142.20 Z M 145.27 143.19 L 145.28 144.16 C 145.28 145.30 146.20 146.22 147.34 146.22 C 148.48 146.22 149.40 145.30 149.40 144.16 L 149.40 143.19 C 149.40 142.05 148.47 141.13 147.33 141.13 C 146.20 141.13 145.27 142.05 145.27 143.19 Z M 145.27 144.15 L 145.27 145.22 C 145.26 146.36 146.18 147.29 147.33 147.29 C 148.47 147.30 149.40 146.37 149.40 145.23 L 149.40 144.17 C 149.41 143.02 148.49 142.10 147.34 142.09 C 146.20 142.09 145.27 143.01 145.27 144.15 Z M 145.26 145.18 L 145.24 146.14 C 145.22 147.29 146.13 148.23 147.27 148.25 C 148.42 148.28 149.36 147.37 149.39 146.22 L 149.41 145.27 C 149.43 144.12 148.52 143.17 147.37 143.15 C 146.23 143.13 145.28 144.04 145.26 145.18 Z M 145.24 146.07 L 145.19 147.01 C 145.13 148.16 146.01 149.14 147.16 149.20 C 148.30 149.26 149.28 148.38 149.34 147.23 L 149.39 146.29 C 149.45 145.14 148.57 144.17 147.42 144.11 C 146.28 144.05 145.30 144.93 145.24 146.07 Z M 145.19 146.93 L 145.10 147.91 C 145.00 149.05 145.84 150.07 146.98 150.17 C 148.13 150.28 149.14 149.44 149.25 148.29 L 149.34 147.31 C 149.44 146.17 148.60 145.16 147.46 145.05 C 146.31 144.94 145.30 145.79 145.19 146.93 Z M 145.11 147.82 L 144.97 148.83 C 144.82 149.97 145.62 151.02 146.76 151.17 C 147.90 151.33 148.95 150.53 149.10 149.39 L 149.24 148.38 C 149.39 147.24 148.59 146.19 147.45 146.04 C 146.31 145.88 145.26 146.68 145.11 147.82 Z M 144.99 148.75 L 144.81 149.74 C 144.61 150.87 145.37 151.95 146.50 152.15 C 147.64 152.35 148.72 151.60 148.92 150.46 L 149.09 149.47 C 149.29 148.34 148.54 147.26 147.40 147.06 C 146.27 146.86 145.19 147.61 144.99 148.75 Z M 144.82 149.67 L 144.62 150.66 C 144.38 151.79 145.10 152.89 146.23 153.13 C 147.36 153.36 148.47 152.64 148.70 151.51 L 148.91 150.53 C 149.14 149.40 148.42 148.29 147.29 148.06 C 146.16 147.82 145.06 148.55 144.82 149.67 Z M 144.62 150.62 L 144.40 151.60 C 144.14 152.72 144.84 153.84 145.97 154.10 C 147.09 154.36 148.21 153.66 148.47 152.53 L 148.69 151.55 C 148.95 150.43 148.25 149.31 147.13 149.05 C 146.00 148.79 144.88 149.49 144.62 150.62 Z M 144.41 151.57 L 144.17 152.55 C 143.89 153.67 144.58 154.80 145.70 155.07 C 146.82 155.34 147.95 154.66 148.22 153.54 L 148.46 152.56 C 148.73 151.44 148.05 150.31 146.93 150.04 C 145.81 149.76 144.68 150.45 144.41 151.57 Z M 144.17 152.52 L 143.93 153.49 C 143.64 154.60 144.31 155.74 145.43 156.03 C 146.54 156.31 147.68 155.64 147.97 154.53 L 148.21 153.56 C 148.50 152.45 147.83 151.31 146.71 151.02 C 145.60 150.74 144.46 151.41 144.17 152.52 Z M 143.94 153.46 L 143.68 154.42 C 143.37 155.53 144.03 156.67 145.14 156.98 C 146.25 157.28 147.39 156.62 147.70 155.51 L 147.96 154.56 C 148.26 153.45 147.61 152.30 146.50 152.00 C 145.39 151.69 144.24 152.35 143.94 153.46 Z M 143.69 154.39 L 143.41 155.35 C 143.09 156.45 143.72 157.60 144.83 157.92 C 145.93 158.24 147.09 157.61 147.41 156.50 L 147.68 155.55 C 148.00 154.44 147.37 153.29 146.26 152.97 C 145.16 152.65 144.01 153.28 143.69 154.39 Z M 143.42 155.31 L 143.13 156.27 C 142.79 157.37 143.40 158.53 144.50 158.87 C 145.60 159.21 146.76 158.59 147.10 157.50 L 147.39 156.54 C 147.73 155.44 147.11 154.28 146.02 153.94 C 144.92 153.60 143.76 154.22 143.42 155.31 Z M 143.14 156.24 L 142.83 157.19 C 142.47 158.28 143.07 159.45 144.15 159.80 C 145.24 160.16 146.41 159.57 146.77 158.48 L 147.08 157.53 C 147.44 156.44 146.84 155.27 145.76 154.92 C 144.67 154.56 143.50 155.15 143.14 156.24 Z M 142.85 157.15 L 142.52 158.11 C 142.14 159.18 142.70 160.36 143.78 160.74 C 144.85 161.12 146.03 160.55 146.41 159.48 L 146.75 158.52 C 147.12 157.45 146.56 156.27 145.48 155.89 C 144.41 155.51 143.23 156.08 142.85 157.15 Z M 142.54 158.07 L 142.19 159.00 C 141.79 160.06 142.33 161.24 143.39 161.64 C 144.45 162.04 145.63 161.51 146.03 160.45 L 146.38 159.52 C 146.78 158.46 146.25 157.27 145.19 156.87 C 144.13 156.47 142.94 157.01 142.54 158.07 Z M 142.22 158.96 L 141.85 159.89 C 141.43 160.93 141.93 162.12 142.98 162.54 C 144.02 162.96 145.21 162.46 145.63 161.42 L 146.00 160.49 C 146.43 159.44 145.92 158.25 144.88 157.83 C 143.83 157.41 142.64 157.92 142.22 158.96 Z M 141.88 159.85 L 141.48 160.78 C 141.04 161.81 141.51 163.00 142.54 163.44 C 143.56 163.88 144.75 163.41 145.20 162.38 L 145.60 161.45 C 146.04 160.43 145.57 159.24 144.54 158.79 C 143.51 158.35 142.32 158.82 141.88 159.85 Z M 141.51 160.75 L 141.10 161.64 C 140.64 162.65 141.09 163.84 142.10 164.30 C 143.11 164.76 144.30 164.31 144.76 163.31 L 145.16 162.41 C 145.62 161.41 145.18 160.22 144.17 159.76 C 143.16 159.30 141.97 159.74 141.51 160.75 Z M 141.14 161.61 L 140.74 162.45 C 140.26 163.44 140.68 164.63 141.67 165.10 C 142.66 165.58 143.84 165.16 144.32 164.17 L 144.72 163.33 C 145.19 162.34 144.78 161.16 143.79 160.68 C 142.80 160.21 141.62 160.63 141.14 161.61 Z M 140.79 162.41 L 140.34 163.27 C 139.84 164.23 140.21 165.41 141.17 165.91 C 142.13 166.41 143.31 166.04 143.81 165.09 L 144.26 164.22 C 144.76 163.26 144.39 162.08 143.43 161.58 C 142.48 161.08 141.29 161.45 140.79 162.41 Z M 140.41 163.21 L 139.87 164.14 C 139.34 165.07 139.65 166.24 140.57 166.78 C 141.49 167.31 142.67 167.00 143.21 166.07 L 143.74 165.14 C 144.28 164.22 143.96 163.04 143.04 162.51 C 142.12 161.98 140.94 162.29 140.41 163.21 Z M 139.93 164.09 L 139.40 164.94 C 138.83 165.82 139.10 167.00 139.98 167.56 C 140.87 168.12 142.04 167.86 142.61 166.97 L 143.14 166.13 C 143.71 165.24 143.44 164.06 142.56 163.50 C 141.67 162.94 140.49 163.20 139.93 164.09 Z M 139.47 164.87 L 138.87 165.71 C 138.27 166.56 138.47 167.73 139.31 168.33 C 140.16 168.93 141.33 168.73 141.93 167.89 L 142.53 167.04 C 143.13 166.20 142.93 165.03 142.09 164.43 C 141.24 163.83 140.07 164.02 139.47 164.87 Z M 138.99 165.61 L 138.35 166.36 C 137.69 167.14 137.79 168.30 138.57 168.96 C 139.35 169.62 140.52 169.53 141.18 168.75 L 141.81 167.99 C 142.47 167.21 142.37 166.05 141.59 165.39 C 140.81 164.73 139.65 164.83 138.99 165.61 Z M 138.58 166.20 L 137.78 166.90 C 137.03 167.55 136.96 168.69 137.61 169.43 C 138.26 170.18 139.40 170.26 140.15 169.61 L 140.95 168.91 C 141.70 168.25 141.77 167.12 141.12 166.37 C 140.47 165.62 139.33 165.54 138.58 166.20 Z M 138.07 166.78 L 137.24 167.29 C 136.43 167.78 136.17 168.84 136.66 169.65 C 137.15 170.46 138.21 170.72 139.02 170.23 L 139.85 169.72 C 140.67 169.23 140.93 168.17 140.43 167.36 C 139.94 166.55 138.88 166.29 138.07 166.78 Z M 137.41 167.28 L 136.75 167.60 C 135.94 168.00 135.60 168.98 136.00 169.80 C 136.39 170.61 137.37 170.95 138.19 170.55 L 138.85 170.23 C 139.66 169.83 140.00 168.85 139.60 168.04 C 139.21 167.22 138.23 166.88 137.41 167.28 Z"
      fill="black"
      fill-rule="nonzero" /></svg>