<svg xmlns="http://www.w3.org/2000/svg" width="300" height="300" viewBox="0 0 300 300">
<path d="M 146.45 124.60 L 147.22 125.35 C 147.92 126.04 149.06 126.03 149.75 125.32 C 150.45 124.62 150.44 123.48 149.73 122.78 L 148.97 122.04 C 148.26 121.34 147.13 121.35 146.43 122.06 C 145.74 122.77 145.75 123.91 146.45 124.60 Z M 147.18 125.37 L 147.91 126.10 C 148.63 126.82 149.80 126.82 150.51 126.10 C 151.23 125.38 151.23 124.21 150.51 123.49 L 149.77 122.76 C 149.05 122.04 147.88 122.05 147.17 122.77 C 146.45 123.49 146.45 124.65 147.18 125.37 Z M 147.86 126.12 L 148.55 126.82 C 149.28 127.56 150.47 127.58 151.21 126.85 C 151.96 126.12 151.97 124.93 151.25 124.19 L 150.56 123.48 C 149.83 122.74 148.64 122.72 147.89 123.45 C 147.15 124.18 147.13 125.37 147.86 126.12 Z M 148.49 126.81 L 149.11 127.49 C 149.84 128.27 151.05 128.31 151.83 127.59 C 152.61 126.86 152.66 125.65 151.93 124.87 L 151.31 124.19 C 150.59 123.41 149.37 123.37 148.59 124.09 C 147.81 124.82 147.76 126.03 148.49 126.81 Z M 149.08 127.40 L 149.79 128.23 C 150.47 129.03 151.66 129.13 152.45 128.45 C 153.25 127.77 153.35 126.58 152.67 125.79 L 151.96 124.95 C 151.29 124.16 150.10 124.06 149.30 124.74 C 148.50 125.41 148.41 126.60 149.08 127.40 Z M 149.82 128.10 L 150.41 128.86 C 151.01 129.64 152.13 129.78 152.91 129.18 C 153.69 128.58 153.83 127.46 153.23 126.69 L 152.64 125.92 C 152.04 125.14 150.92 125.00 150.14 125.60 C 149.36 126.20 149.22 127.32 149.82 128.10 Z M 150.47 128.77 L 150.90 129.36 C 151.45 130.10 152.50 130.27 153.25 129.72 C 154.00 129.17 154.16 128.11 153.61 127.37 L 153.18 126.78 C 152.63 126.03 151.57 125.87 150.83 126.42 C 150.08 126.97 149.92 128.02 150.47 128.77 Z"
      fill="black"
      fill-rule="nonzero" /><path d="M 144.20 138.90 L 145.11 138.46 C 146.07 137.99 146.47 136.83 146.00 135.87 C 145.54 134.91 144.38 134.51 143.42 134.97 L 142.51 135.42 C 141.54 135.88 141.14 137.04 141.61 138.00 C 142.08 138.96 143.23 139.37 144.20 138.90 Z M 145.11 138.43 L 146.01 137.98 C 146.95 137.51 147.34 136.37 146.87 135.42 C 146.40 134.48 145.25 134.09 144.31 134.56 L 143.41 135.00 C 142.47 135.47 142.08 136.62 142.55 137.57 C 143.02 138.51 144.16 138.90 145.11 138.43 Z M 146.03 137.95 L 146.91 137.49 C 147.83 137.01 148.19 135.87 147.71 134.95 C 147.23 134.02 146.09 133.66 145.17 134.14 L 144.29 134.60 C 143.36 135.08 143.00 136.22 143.48 137.14 C 143.96 138.07 145.10 138.43 146.03 137.95 Z M 146.94 137.46 L 147.82 136.97 C 148.73 136.47 149.06 135.33 148.56 134.42 C 148.06 133.52 146.92 133.19 146.01 133.69 L 145.13 134.17 C 144.23 134.67 143.90 135.81 144.40 136.72 C 144.90 137.63 146.04 137.96 146.94 137.46 Z M 147.86 136.94 L 148.72 136.44 C 149.61 135.92 149.91 134.78 149.39 133.89 C 148.87 133.00 147.73 132.70 146.84 133.22 L 145.98 133.72 C 145.09 134.23 144.79 135.38 145.31 136.27 C 145.82 137.16 146.97 137.46 147.86 136.94 Z M 148.74 136.42 L 149.59 135.91 C 150.47 135.37 150.75 134.23 150.22 133.35 C 149.68 132.47 148.54 132.19 147.66 132.73 L 146.81 133.24 C 145.93 133.77 145.65 134.92 146.19 135.79 C 146.72 136.67 147.86 136.95 148.74 136.42 Z M 149.60 135.89 L 150.45 135.37 C 151.32 134.83 151.59 133.68 151.05 132.81 C 150.51 131.94 149.36 131.67 148.49 132.21 L 147.65 132.74 C 146.78 133.28 146.51 134.42 147.05 135.29 C 147.59 136.16 148.73 136.43 149.60 135.89 Z M 150.45 135.36 L 151.30 134.83 C 152.17 134.29 152.44 133.15 151.90 132.28 C 151.36 131.42 150.22 131.15 149.35 131.69 L 148.50 132.22 C 147.63 132.76 147.36 133.90 147.90 134.77 C 148.44 135.64 149.58 135.90 150.45 135.36 Z M 151.29 134.84 L 152.15 134.31 C 153.03 133.78 153.30 132.64 152.77 131.77 C 152.24 130.90 151.10 130.62 150.23 131.15 L 149.37 131.68 C 148.49 132.21 148.22 133.35 148.75 134.22 C 149.28 135.09 150.42 135.37 151.29 134.84 Z M 152.14 134.32 L 153.00 133.80 C 153.88 133.27 154.16 132.14 153.64 131.27 C 153.11 130.39 151.98 130.11 151.11 130.63 L 150.24 131.15 C 149.37 131.67 149.08 132.81 149.61 133.68 C 150.13 134.56 151.27 134.84 152.14 134.32 Z M 153.00 133.80 L 153.83 133.30 C 154.71 132.78 155.00 131.65 154.48 130.78 C 153.96 129.90 152.83 129.61 151.95 130.13 L 151.11 130.63 C 150.24 131.15 149.95 132.28 150.47 133.16 C 150.99 134.03 152.12 134.32 153.00 133.80 Z M 153.83 133.31 L 154.63 132.83 C 155.51 132.32 155.80 131.19 155.28 130.31 C 154.77 129.43 153.64 129.14 152.76 129.66 L 151.96 130.13 C 151.08 130.65 150.79 131.78 151.30 132.65 C 151.82 133.53 152.95 133.82 153.83 133.31 Z M 154.62 132.84 L 155.48 132.34 C 156.36 131.84 156.67 130.71 156.16 129.83 C 155.65 128.94 154.52 128.64 153.64 129.15 L 152.77 129.65 C 151.89 130.16 151.59 131.28 152.10 132.17 C 152.60 133.05 153.73 133.35 154.62 132.84 Z M 155.46 132.36 L 156.46 131.80 C 157.35 131.31 157.67 130.18 157.17 129.29 C 156.68 128.39 155.55 128.07 154.66 128.57 L 153.66 129.13 C 152.77 129.63 152.45 130.76 152.94 131.65 C 153.44 132.54 154.57 132.86 155.46 132.36 Z M 156.43 131.84 L 157.48 131.29 C 158.40 130.81 158.75 129.68 158.27 128.76 C 157.79 127.85 156.65 127.50 155.74 127.98 L 154.69 128.53 C 153.77 129.01 153.42 130.15 153.90 131.06 C 154.38 131.98 155.52 132.33 156.43 131.84 Z M 157.37 131.38 L 158.25 131.00 C 159.21 130.58 159.65 129.46 159.23 128.49 C 158.81 127.53 157.69 127.09 156.73 127.51 L 155.85 127.89 C 154.89 128.31 154.45 129.43 154.87 130.39 C 155.29 131.36 156.41 131.80 157.37 131.38 Z M 157.27 131.18 L 157.73 131.23 C 158.80 131.35 159.75 130.58 159.87 129.52 C 159.99 128.45 159.22 127.49 158.16 127.38 L 157.70 127.33 C 156.64 127.21 155.68 127.97 155.56 129.04 C 155.44 130.10 156.21 131.06 157.27 131.18 Z M 156.11 128.54 L 155.74 129.43 C 155.32 130.44 155.80 131.61 156.81 132.03 C 157.82 132.45 158.98 131.97 159.41 130.96 L 159.78 130.07 C 160.20 129.05 159.72 127.89 158.71 127.47 C 157.70 127.05 156.53 127.53 156.11 128.54 Z M 155.79 129.25 L 155.26 130.25 C 154.74 131.23 155.11 132.45 156.10 132.98 C 157.08 133.50 158.31 133.12 158.83 132.14 L 159.36 131.14 C 159.88 130.16 159.50 128.93 158.52 128.41 C 157.53 127.89 156.31 128.26 155.79 129.25 Z M 155.23 130.30 L 154.79 131.19 C 154.29 132.19 154.70 133.41 155.71 133.90 C 156.71 134.40 157.93 133.98 158.42 132.98 L 158.86 132.09 C 159.36 131.08 158.95 129.87 157.94 129.37 C 156.94 128.88 155.72 129.29 155.23 130.30 Z M 154.77 131.21 L 154.33 132.15 C 153.85 133.16 154.28 134.37 155.29 134.85 C 156.30 135.33 157.51 134.90 157.99 133.89 L 158.44 132.95 C 158.92 131.94 158.49 130.73 157.48 130.25 C 156.46 129.77 155.25 130.20 154.77 131.21 Z M 154.33 132.15 L 153.89 133.09 C 153.41 134.10 153.84 135.31 154.86 135.79 C 155.87 136.27 157.08 135.83 157.56 134.82 L 158.00 133.88 C 158.47 132.87 158.04 131.66 157.02 131.18 C 156.01 130.71 154.80 131.14 154.33 132.15 Z M 153.89 133.08 L 153.45 134.00 C 152.97 135.01 153.41 136.22 154.42 136.70 C 155.43 137.18 156.64 136.75 157.12 135.74 L 157.55 134.82 C 158.03 133.81 157.60 132.60 156.59 132.12 C 155.58 131.64 154.37 132.07 153.89 133.08 Z M 153.46 133.98 L 153.03 134.87 C 152.54 135.88 152.96 137.09 153.97 137.58 C 154.98 138.07 156.19 137.65 156.68 136.64 L 157.11 135.75 C 157.60 134.75 157.18 133.53 156.17 133.04 C 155.16 132.55 153.95 132.97 153.46 133.98 Z M 153.04 134.85 L 152.61 135.72 C 152.10 136.72 152.51 137.94 153.51 138.44 C 154.51 138.94 155.73 138.54 156.23 137.54 L 156.67 136.67 C 157.17 135.67 156.77 134.45 155.77 133.95 C 154.76 133.44 153.55 133.85 153.04 134.85 Z M 152.62 135.69 L 152.19 136.52 C 151.67 137.52 152.05 138.74 153.04 139.26 C 154.03 139.78 155.26 139.39 155.78 138.40 L 156.21 137.57 C 156.73 136.57 156.35 135.35 155.36 134.83 C 154.37 134.31 153.14 134.70 152.62 135.69 Z M 152.20 136.50 L 151.73 137.37 C 151.20 138.35 151.57 139.58 152.55 140.11 C 153.54 140.64 154.76 140.28 155.30 139.29 L 155.76 138.42 C 156.29 137.44 155.93 136.21 154.94 135.68 C 153.96 135.15 152.73 135.52 152.20 136.50 Z M 151.74 137.35 L 151.23 138.28 C 150.69 139.26 151.05 140.49 152.03 141.03 C 153.00 141.57 154.24 141.21 154.77 140.24 L 155.29 139.31 C 155.82 138.33 155.47 137.10 154.49 136.56 C 153.51 136.02 152.28 136.38 151.74 137.35 Z M 151.24 138.28 L 150.74 139.17 C 150.20 140.14 150.55 141.37 151.53 141.91 C 152.50 142.46 153.73 142.10 154.27 141.13 L 154.77 140.24 C 155.31 139.27 154.96 138.04 153.98 137.49 C 153.01 136.95 151.78 137.30 151.24 138.28 Z M 150.75 139.16 L 150.24 140.06 C 149.70 141.03 150.04 142.26 151.02 142.80 C 151.99 143.35 153.22 143.00 153.76 142.03 L 154.27 141.14 C 154.81 140.16 154.47 138.93 153.50 138.39 C 152.52 137.84 151.29 138.19 150.75 139.16 Z M 150.25 140.05 L 149.75 140.94 C 149.20 141.91 149.54 143.14 150.50 143.69 C 151.47 144.24 152.70 143.90 153.25 142.93 L 153.76 142.04 C 154.31 141.07 153.97 139.84 153.00 139.29 C 152.03 138.74 150.80 139.08 150.25 140.05 Z M 149.76 140.93 L 149.27 141.76 C 148.72 142.72 149.05 143.95 150.01 144.51 C 150.97 145.07 152.20 144.74 152.76 143.78 L 153.24 142.94 C 153.80 141.98 153.47 140.75 152.51 140.19 C 151.54 139.64 150.31 139.96 149.76 140.93 Z M 149.29 141.74 L 148.74 142.67 C 148.17 143.62 148.48 144.86 149.43 145.42 C 150.39 145.99 151.62 145.68 152.19 144.73 L 152.74 143.80 C 153.31 142.84 153.00 141.61 152.04 141.04 C 151.09 140.48 149.86 140.79 149.29 141.74 Z M 148.76 142.65 L 148.24 143.48 C 147.66 144.43 147.95 145.66 148.89 146.24 C 149.83 146.82 151.07 146.53 151.65 145.59 L 152.16 144.75 C 152.75 143.81 152.45 142.58 151.51 142.00 C 150.57 141.41 149.34 141.71 148.76 142.65 Z M 148.26 143.47 L 147.76 144.25 C 147.17 145.18 147.45 146.42 148.38 147.01 C 149.31 147.60 150.54 147.32 151.13 146.39 L 151.63 145.61 C 152.22 144.68 151.94 143.44 151.01 142.85 C 150.08 142.26 148.85 142.54 148.26 143.47 Z M 147.77 144.24 L 147.25 145.06 C 146.65 145.98 146.91 147.22 147.84 147.81 C 148.76 148.41 149.99 148.14 150.59 147.22 L 151.12 146.40 C 151.71 145.48 151.45 144.25 150.52 143.65 C 149.60 143.06 148.37 143.32 147.77 144.24 Z M 147.26 145.05 L 146.71 145.88 C 146.10 146.80 146.36 148.03 147.27 148.63 C 148.18 149.24 149.41 148.98 150.02 148.07 L 150.57 147.24 C 151.18 146.32 150.93 145.09 150.01 144.49 C 149.10 143.88 147.87 144.13 147.26 145.05 Z M 146.73 145.85 L 146.16 146.69 C 145.54 147.59 145.77 148.82 146.67 149.44 C 147.57 150.06 148.80 149.83 149.42 148.93 L 149.99 148.10 C 150.61 147.20 150.39 145.96 149.49 145.35 C 148.58 144.73 147.35 144.95 146.73 145.85 Z M 146.19 146.66 L 145.61 147.46 C 144.97 148.34 145.17 149.57 146.06 150.21 C 146.94 150.85 148.17 150.65 148.81 149.77 L 149.39 148.97 C 150.03 148.08 149.83 146.85 148.94 146.21 C 148.06 145.57 146.83 145.77 146.19 146.66 Z M 145.64 147.43 L 145.04 148.23 C 144.39 149.10 144.57 150.33 145.44 150.98 C 146.31 151.64 147.54 151.46 148.19 150.59 L 148.79 149.79 C 149.44 148.92 149.26 147.69 148.39 147.04 C 147.52 146.38 146.29 146.56 145.64 147.43 Z M 145.06 148.22 L 144.44 149.03 C 143.78 149.89 143.95 151.12 144.81 151.78 C 145.67 152.43 146.90 152.27 147.56 151.41 L 148.17 150.60 C 148.83 149.74 148.67 148.51 147.81 147.85 C 146.94 147.19 145.71 147.36 145.06 148.22 Z M 144.45 149.03 L 143.83 149.83 C 143.18 150.68 143.34 151.91 144.19 152.57 C 145.04 153.22 146.27 153.06 146.93 152.21 L 147.54 151.41 C 148.20 150.55 148.04 149.33 147.19 148.67 C 146.33 148.01 145.11 148.17 144.45 149.03 Z M 143.85 149.82 L 143.23 150.62 C 142.57 151.46 142.72 152.68 143.56 153.34 C 144.41 154.00 145.62 153.85 146.28 153.01 L 146.91 152.21 C 147.57 151.37 147.42 150.15 146.58 149.49 C 145.73 148.83 144.51 148.98 143.85 149.82 Z M 143.26 150.61 L 142.64 151.37 C 141.97 152.20 142.10 153.41 142.93 154.08 C 143.76 154.75 144.97 154.62 145.64 153.79 L 146.25 153.03 C 146.92 152.20 146.79 150.99 145.97 150.32 C 145.14 149.65 143.93 149.78 143.26 150.61 Z M 142.68 151.35 L 142.01 152.13 C 141.33 152.94 141.43 154.14 142.23 154.83 C 143.04 155.51 144.24 155.41 144.92 154.61 L 145.59 153.82 C 146.28 153.01 146.18 151.81 145.37 151.13 C 144.57 150.44 143.37 150.54 142.68 151.35 Z M 142.06 152.11 L 141.39 152.85 C 140.70 153.63 140.76 154.82 141.54 155.52 C 142.32 156.22 143.52 156.15 144.21 155.37 L 144.88 154.63 C 145.58 153.85 145.51 152.66 144.73 151.96 C 143.95 151.26 142.76 151.33 142.06 152.11 Z M 141.43 152.83 L 140.78 153.53 C 140.07 154.28 140.11 155.47 140.87 156.18 C 141.62 156.89 142.81 156.85 143.52 156.09 L 144.17 155.39 C 144.88 154.64 144.84 153.45 144.09 152.74 C 143.33 152.03 142.14 152.07 141.43 152.83 Z M 140.82 153.52 L 140.17 154.19 C 139.45 154.92 139.47 156.10 140.21 156.81 C 140.94 157.53 142.12 157.51 142.83 156.77 L 143.48 156.10 C 144.20 155.37 144.18 154.19 143.44 153.48 C 142.71 152.76 141.53 152.78 140.82 153.52 Z M 140.22 154.17 L 139.50 154.87 C 138.78 155.58 138.77 156.74 139.48 157.46 C 140.19 158.18 141.35 158.19 142.07 157.49 L 142.78 156.79 C 143.51 156.08 143.52 154.92 142.81 154.20 C 142.10 153.47 140.94 153.46 140.22 154.17 Z M 139.55 154.85 L 138.78 155.57 C 138.05 156.25 138.01 157.40 138.69 158.13 C 139.38 158.86 140.52 158.90 141.25 158.22 L 142.02 157.50 C 142.76 156.82 142.79 155.67 142.11 154.94 C 141.43 154.21 140.28 154.17 139.55 154.85 Z M 138.82 155.56 L 138.10 156.21 C 137.36 156.87 137.30 158.01 137.96 158.74 C 138.62 159.48 139.75 159.54 140.49 158.88 L 141.21 158.23 C 141.95 157.57 142.01 156.44 141.35 155.70 C 140.69 154.96 139.56 154.90 138.82 155.56 Z M 138.13 156.21 L 137.36 156.88 C 136.62 157.52 136.54 158.64 137.18 159.38 C 137.82 160.12 138.93 160.20 139.67 159.56 L 140.45 158.89 C 141.19 158.25 141.27 157.13 140.63 156.39 C 139.99 155.65 138.87 155.57 138.13 156.21 Z M 137.40 156.87 L 136.61 157.52 C 135.86 158.14 135.76 159.25 136.38 159.99 C 137.00 160.73 138.10 160.84 138.85 160.22 L 139.63 159.57 C 140.38 158.95 140.48 157.84 139.86 157.10 C 139.25 156.35 138.14 156.25 137.40 156.87 Z M 136.66 157.51 L 135.84 158.16 C 135.09 158.75 134.96 159.83 135.55 160.58 C 136.14 161.33 137.23 161.46 137.98 160.87 L 138.80 160.23 C 139.55 159.64 139.67 158.55 139.08 157.80 C 138.49 157.05 137.41 156.93 136.66 157.51 Z M 135.90 158.16 L 135.09 158.77 C 134.34 159.32 134.19 160.38 134.74 161.13 C 135.30 161.88 136.36 162.03 137.11 161.47 L 137.92 160.87 C 138.67 160.31 138.82 159.25 138.26 158.51 C 137.71 157.76 136.65 157.60 135.90 158.16 Z M 135.14 158.78 L 134.35 159.35 C 133.61 159.88 133.44 160.91 133.97 161.65 C 134.50 162.39 135.53 162.56 136.27 162.03 L 137.06 161.46 C 137.80 160.93 137.97 159.90 137.44 159.16 C 136.91 158.42 135.88 158.25 135.14 158.78 Z M 134.38 159.37 L 133.89 159.71 C 133.16 160.22 132.99 161.23 133.50 161.96 C 134.02 162.69 135.03 162.86 135.76 162.35 L 136.24 162.01 C 136.97 161.49 137.14 160.48 136.63 159.75 C 136.11 159.02 135.11 158.85 134.38 159.37 Z"
      fill="black"
      fill-rule="nonzero" /><path d="M 152.07 146.27 L 152.45 145.02 C 152.72 144.12 152.21 143.17 151.32 142.90 C 150.42 142.63 149.47 143.14 149.20 144.04 L 148.82 145.28 C 148.55 146.18 149.06 147.13 149.96 147.40 C 150.85 147.67 151.80 147.16 152.07 146.27 Z M 152.54 145.35 L 152.81 144.78 C 153.27 143.83 152.87 142.70 151.92 142.24 C 150.97 141.79 149.83 142.19 149.38 143.14 L 149.11 143.71 C 148.65 144.65 149.05 145.79 150.00 146.25 C 150.95 146.70 152.09 146.30 152.54 145.35 Z M 149.10 144.29 L 149.19 144.83 C 149.38 145.93 150.42 146.67 151.52 146.49 C 152.62 146.31 153.36 145.27 153.18 144.17 L 153.09 143.63 C 152.91 142.53 151.87 141.79 150.77 141.97 C 149.67 142.15 148.92 143.19 149.10 144.29 Z M 149.14 144.38 L 149.06 145.80 C 149.00 146.93 149.86 147.89 150.99 147.96 C 152.11 148.02 153.08 147.16 153.15 146.03 L 153.23 144.62 C 153.29 143.49 152.43 142.52 151.30 142.45 C 150.17 142.39 149.21 143.25 149.14 144.38 Z M 149.05 145.70 L 148.95 146.66 C 148.83 147.80 149.66 148.81 150.79 148.93 C 151.92 149.05 152.94 148.23 153.05 147.09 L 153.16 146.13 C 153.27 145.00 152.45 143.98 151.32 143.86 C 150.19 143.75 149.17 144.57 149.05 145.70 Z M 148.95 146.63 L 148.83 147.67 C 148.69 148.80 149.50 149.83 150.63 149.96 C 151.76 150.10 152.79 149.30 152.93 148.16 L 153.05 147.13 C 153.19 145.99 152.38 144.96 151.25 144.83 C 150.12 144.69 149.09 145.50 148.95 146.63 Z M 148.83 147.65 L 148.69 148.68 C 148.54 149.81 149.34 150.85 150.48 150.99 C 151.61 151.14 152.65 150.34 152.80 149.21 L 152.93 148.18 C 153.08 147.05 152.28 146.01 151.15 145.86 C 150.01 145.71 148.97 146.51 148.83 147.65 Z M 148.69 148.67 L 148.56 149.61 C 148.41 150.75 149.21 151.79 150.34 151.94 C 151.47 152.09 152.52 151.30 152.67 150.16 L 152.80 149.22 C 152.95 148.09 152.15 147.04 151.02 146.89 C 149.89 146.74 148.84 147.53 148.69 148.67 Z M 148.56 149.61 L 148.41 150.77 C 148.26 151.90 149.05 152.95 150.19 153.10 C 151.32 153.25 152.37 152.45 152.52 151.32 L 152.67 150.16 C 152.82 149.03 152.03 147.98 150.89 147.83 C 149.75 147.68 148.71 148.48 148.56 149.61 Z M 148.40 150.79 L 148.29 151.71 C 148.15 152.85 148.95 153.89 150.09 154.03 C 151.22 154.17 152.26 153.36 152.40 152.23 L 152.52 151.30 C 152.66 150.16 151.86 149.13 150.72 148.99 C 149.58 148.84 148.55 149.65 148.40 150.79 Z M 148.29 151.74 L 148.19 152.62 C 148.06 153.76 148.88 154.79 150.02 154.91 C 151.16 155.04 152.18 154.22 152.31 153.08 L 152.41 152.20 C 152.53 151.06 151.71 150.04 150.57 149.91 C 149.44 149.78 148.41 150.60 148.29 151.74 Z M 148.19 152.65 L 148.09 153.63 C 147.98 154.77 148.81 155.78 149.95 155.89 C 151.09 156.00 152.10 155.17 152.21 154.03 L 152.31 153.05 C 152.42 151.91 151.59 150.90 150.45 150.79 C 149.31 150.68 148.30 151.51 148.19 152.65 Z M 148.09 153.63 L 148.00 154.66 C 147.89 155.79 148.72 156.80 149.86 156.91 C 151.00 157.02 152.01 156.19 152.11 155.05 L 152.21 154.03 C 152.32 152.89 151.49 151.88 150.35 151.77 C 149.21 151.66 148.20 152.50 148.09 153.63 Z M 148.00 154.65 L 147.90 155.61 C 147.79 156.74 148.62 157.76 149.75 157.87 C 150.89 157.98 151.90 157.16 152.01 156.02 L 152.11 155.06 C 152.22 153.93 151.40 152.91 150.26 152.80 C 149.13 152.68 148.11 153.51 148.00 154.65 Z M 147.91 155.61 L 147.81 156.62 C 147.70 157.75 148.53 158.76 149.66 158.87 C 150.79 158.98 151.80 158.16 151.91 157.02 L 152.01 156.02 C 152.12 154.88 151.29 153.87 150.16 153.76 C 149.03 153.65 148.02 154.48 147.91 155.61 Z M 147.81 156.64 L 147.72 157.65 C 147.62 158.78 148.46 159.78 149.60 159.88 C 150.73 159.98 151.73 159.14 151.82 158.00 L 151.91 157.00 C 152.01 155.86 151.17 154.87 150.04 154.77 C 148.90 154.67 147.91 155.51 147.81 156.64 Z M 147.73 157.67 L 147.65 158.65 C 147.57 159.78 148.42 160.77 149.55 160.85 C 150.68 160.93 151.66 160.09 151.75 158.96 L 151.82 157.98 C 151.90 156.85 151.06 155.87 149.93 155.78 C 148.80 155.70 147.81 156.54 147.73 157.67 Z M 147.66 158.66 L 147.59 159.67 C 147.51 160.79 148.36 161.77 149.48 161.85 C 150.61 161.93 151.58 161.08 151.66 159.96 L 151.74 158.95 C 151.82 157.82 150.97 156.85 149.85 156.77 C 148.72 156.69 147.74 157.53 147.66 158.66 Z M 147.60 159.66 L 147.53 160.66 C 147.44 161.78 148.28 162.76 149.40 162.84 C 150.52 162.93 151.49 162.09 151.58 160.97 L 151.65 159.97 C 151.74 158.85 150.90 157.87 149.78 157.79 C 148.66 157.70 147.69 158.54 147.60 159.66 Z M 147.54 160.65 L 147.46 161.64 C 147.37 162.75 148.20 163.72 149.31 163.81 C 150.42 163.91 151.39 163.08 151.49 161.96 L 151.57 160.98 C 151.66 159.87 150.83 158.89 149.72 158.80 C 148.60 158.71 147.63 159.54 147.54 160.65 Z M 147.47 161.64 L 147.39 162.65 C 147.30 163.75 148.12 164.72 149.23 164.81 C 150.33 164.90 151.30 164.08 151.39 162.97 L 151.47 161.96 C 151.56 160.86 150.74 159.89 149.63 159.80 C 148.53 159.71 147.56 160.53 147.47 161.64 Z M 147.40 162.66 L 147.32 163.67 C 147.24 164.77 148.06 165.72 149.16 165.81 C 150.26 165.89 151.22 165.07 151.30 163.97 L 151.38 162.96 C 151.46 161.86 150.64 160.90 149.54 160.82 C 148.44 160.74 147.48 161.56 147.40 162.66 Z M 147.34 163.68 L 147.27 164.67 C 147.20 165.76 148.02 166.70 149.11 166.78 C 150.21 166.85 151.15 166.02 151.22 164.93 L 151.29 163.95 C 151.36 162.86 150.54 161.91 149.45 161.84 C 148.36 161.77 147.41 162.59 147.34 163.68 Z M 147.29 164.68 L 147.23 165.68 C 147.16 166.76 147.98 167.69 149.07 167.76 C 150.15 167.83 151.08 167.00 151.15 165.92 L 151.21 164.92 C 151.27 163.84 150.45 162.90 149.37 162.84 C 148.28 162.77 147.35 163.60 147.29 164.68 Z M 147.24 165.69 L 147.18 166.71 C 147.12 167.78 147.95 168.70 149.02 168.76 C 150.09 168.82 151.01 168.00 151.08 166.93 L 151.13 165.91 C 151.19 164.83 150.37 163.91 149.30 163.85 C 148.22 163.79 147.30 164.61 147.24 165.69 Z M 147.20 166.71 L 147.15 167.72 C 147.09 168.79 147.91 169.69 148.97 169.75 C 150.04 169.81 150.95 168.99 151.00 167.93 L 151.06 166.92 C 151.11 165.85 150.30 164.95 149.23 164.89 C 148.17 164.83 147.26 165.65 147.20 166.71 Z M 147.17 167.73 L 147.12 168.74 C 147.07 169.79 147.88 170.69 148.93 170.74 C 149.98 170.79 150.88 169.98 150.93 168.93 L 150.98 167.92 C 151.03 166.87 150.22 165.97 149.17 165.92 C 148.12 165.87 147.22 166.68 147.17 167.73 Z M 147.14 168.75 L 147.10 169.74 C 147.05 170.78 147.85 171.66 148.89 171.71 C 149.93 171.76 150.81 170.96 150.86 169.92 L 150.91 168.92 C 150.96 167.88 150.15 167.00 149.11 166.95 C 148.07 166.90 147.19 167.71 147.14 168.75 Z M 147.12 169.75 L 147.08 170.77 C 147.03 171.79 147.83 172.66 148.86 172.70 C 149.88 172.75 150.75 171.95 150.79 170.93 L 150.84 169.91 C 150.88 168.88 150.08 168.02 149.06 167.97 C 148.03 167.93 147.17 168.72 147.12 169.75 Z M 147.11 170.78 L 147.07 171.80 C 147.03 172.81 147.82 173.66 148.83 173.70 C 149.84 173.74 150.69 172.95 150.72 171.94 L 150.76 170.92 C 150.80 169.91 150.01 169.06 149.00 169.02 C 148.00 168.98 147.15 169.77 147.11 170.78 Z M 147.10 171.82 L 147.07 172.79 C 147.05 173.78 147.82 174.61 148.81 174.64 C 149.81 174.67 150.63 173.89 150.66 172.90 L 150.69 171.93 C 150.72 170.94 149.94 170.11 148.95 170.08 C 147.96 170.05 147.13 170.83 147.10 171.82 Z M 147.11 172.81 L 147.09 173.81 C 147.07 174.78 147.84 175.58 148.81 175.60 C 149.79 175.62 150.59 174.85 150.61 173.87 L 150.63 172.88 C 150.65 171.91 149.87 171.11 148.90 171.09 C 147.93 171.07 147.13 171.84 147.11 172.81 Z M 147.12 173.83 L 147.11 174.85 C 147.11 175.80 147.87 176.58 148.83 176.59 C 149.78 176.60 150.56 175.83 150.56 174.88 L 150.57 173.86 C 150.58 172.90 149.82 172.12 148.86 172.12 C 147.91 172.11 147.13 172.87 147.12 173.83 Z M 147.15 174.86 L 147.15 175.83 C 147.15 176.76 147.90 177.52 148.84 177.52 C 149.77 177.52 150.53 176.76 150.53 175.83 L 150.53 174.87 C 150.53 173.94 149.78 173.18 148.84 173.18 C 147.91 173.18 147.15 173.93 147.15 174.86 Z M 147.18 175.83 L 147.18 176.80 C 147.18 177.72 147.92 178.46 148.84 178.46 C 149.75 178.46 150.49 177.72 150.49 176.80 L 150.49 175.83 C 150.49 174.91 149.75 174.17 148.84 174.17 C 147.92 174.17 147.18 174.91 147.18 175.83 Z M 147.21 176.80 L 147.21 177.79 C 147.21 178.69 147.94 179.41 148.84 179.41 C 149.74 179.41 150.46 178.69 150.46 177.79 L 150.46 176.80 C 150.46 175.90 149.74 175.18 148.84 175.18 C 147.94 175.18 147.21 175.90 147.21 176.80 Z M 147.21 177.79 L 147.21 178.78 C 147.21 179.68 147.94 180.40 148.84 180.40 C 149.73 180.40 150.46 179.68 150.46 178.78 L 150.46 177.79 C 150.46 176.89 149.73 176.16 148.84 176.16 C 147.94 176.16 147.21 176.89 147.21 177.79 Z M 147.15 178.78 L 147.15 179.76 C 147.15 180.69 147.91 181.45 148.84 181.45 C 149.77 181.45 150.52 180.69 150.52 179.76 L 150.52 178.78 C 150.52 177.85 149.77 177.10 148.84 177.10 C 147.91 177.10 147.15 177.85 147.15 178.78 Z M 147.06 179.76 L 147.06 180.79 C 147.06 181.78 147.85 182.58 148.84 182.58 C 149.82 182.58 150.62 181.78 150.62 180.79 L 150.62 179.76 C 150.62 178.78 149.82 177.98 148.84 177.98 C 147.85 177.98 147.06 178.78 147.06 179.76 Z M 146.99 180.79 L 146.99 181.22 C 146.99 182.24 147.82 183.07 148.84 183.07 C 149.86 183.07 150.69 182.24 150.69 181.22 L 150.69 180.79 C 150.69 179.77 149.86 178.94 148.84 178.94 C 147.82 178.94 146.99 179.77 146.99 180.79 Z"
      fill="black"
      fill-rule="nonzero" /><path d="M 151.01 147.90 L 151.08 148.89 C 151.14 149.89 152.00 150.65 153.00 150.59 C 154.00 150.53 154.76 149.66 154.70 148.66 L 154.64 147.67 C 154.57 146.67 153.71 145.91 152.71 145.97 C 151.71 146.03 150.95 146.89 151.01 147.90 Z M 150.92 149.19 L 151.13 150.16 C 151.35 151.25 152.42 151.94 153.50 151.71 C 154.59 151.49 155.28 150.42 155.06 149.34 L 154.85 148.37 C 154.62 147.28 153.56 146.59 152.48 146.81 C 151.39 147.04 150.70 148.10 150.92 149.19 Z M 151.18 150.69 L 151.61 151.56 C 152.13 152.61 153.41 153.04 154.46 152.52 C 155.52 152.00 155.95 150.72 155.43 149.67 L 155.00 148.81 C 154.48 147.75 153.20 147.32 152.15 147.84 C 151.09 148.36 150.66 149.64 151.18 150.69 Z M 151.82 151.94 L 152.44 152.73 C 153.17 153.67 154.52 153.84 155.46 153.11 C 156.40 152.38 156.57 151.02 155.84 150.08 L 155.22 149.29 C 154.49 148.35 153.13 148.18 152.19 148.91 C 151.25 149.65 151.09 151.00 151.82 151.94 Z M 152.60 152.92 L 153.32 153.65 C 154.15 154.50 155.52 154.51 156.36 153.67 C 157.21 152.84 157.22 151.47 156.39 150.62 L 155.67 149.90 C 154.84 149.05 153.47 149.04 152.62 149.87 C 151.78 150.71 151.77 152.07 152.60 152.92 Z M 153.43 153.75 L 154.17 154.40 C 155.06 155.18 156.42 155.09 157.20 154.20 C 157.98 153.31 157.90 151.95 157.01 151.17 L 156.27 150.52 C 155.38 149.74 154.02 149.83 153.24 150.72 C 152.46 151.61 152.54 152.97 153.43 153.75 Z M 154.29 154.48 L 155.09 155.09 C 156.03 155.81 157.37 155.63 158.09 154.69 C 158.80 153.76 158.63 152.42 157.69 151.70 L 156.89 151.08 C 155.95 150.37 154.61 150.55 153.89 151.48 C 153.17 152.42 153.35 153.76 154.29 154.48 Z M 155.21 155.15 L 156.03 155.71 C 157.00 156.36 158.32 156.10 158.97 155.13 C 159.62 154.16 159.36 152.84 158.39 152.19 L 157.57 151.64 C 156.60 150.98 155.28 151.24 154.63 152.21 C 153.98 153.19 154.24 154.50 155.21 155.15 Z M 156.13 155.74 L 156.98 156.25 C 157.97 156.84 159.25 156.52 159.85 155.53 C 160.44 154.54 160.12 153.26 159.13 152.66 L 158.29 152.15 C 157.30 151.56 156.01 151.88 155.42 152.87 C 154.82 153.86 155.14 155.14 156.13 155.74 Z M 157.07 156.26 L 157.97 156.75 C 158.97 157.29 160.21 156.93 160.76 155.93 C 161.30 154.94 160.94 153.69 159.94 153.14 L 159.04 152.65 C 158.05 152.11 156.80 152.47 156.25 153.47 C 155.71 154.47 156.07 155.71 157.07 156.26 Z M 158.05 156.74 L 158.95 157.19 C 159.95 157.69 161.15 157.29 161.65 156.30 C 162.15 155.31 161.75 154.10 160.76 153.60 L 159.86 153.15 C 158.86 152.65 157.66 153.05 157.16 154.05 C 156.66 155.04 157.06 156.24 158.05 156.74 Z M 159.04 157.16 L 159.95 157.58 C 160.92 158.03 162.07 157.60 162.52 156.63 C 162.97 155.65 162.54 154.50 161.57 154.05 L 160.67 153.63 C 159.69 153.19 158.54 153.61 158.09 154.59 C 157.64 155.56 158.07 156.71 159.04 157.16 Z M 160.04 157.53 L 160.97 157.92 C 161.92 158.32 163.01 157.87 163.41 156.92 C 163.81 155.97 163.36 154.88 162.41 154.48 L 161.48 154.09 C 160.53 153.70 159.44 154.14 159.04 155.09 C 158.64 156.04 159.09 157.14 160.04 157.53 Z M 161.06 157.88 L 162.00 158.23 C 162.92 158.58 163.96 158.11 164.31 157.19 C 164.65 156.26 164.19 155.23 163.26 154.88 L 162.32 154.53 C 161.39 154.18 160.36 154.65 160.01 155.57 C 159.66 156.50 160.13 157.53 161.06 157.88 Z M 162.07 158.19 L 163.02 158.51 C 163.92 158.82 164.90 158.33 165.21 157.43 C 165.51 156.53 165.03 155.55 164.13 155.24 L 163.18 154.92 C 162.28 154.62 161.30 155.10 161.00 156.00 C 160.69 156.90 161.17 157.88 162.07 158.19 Z M 163.07 158.46 L 164.03 158.76 C 164.90 159.04 165.84 158.56 166.11 157.68 C 166.39 156.81 165.90 155.87 165.03 155.60 L 164.07 155.29 C 163.20 155.02 162.27 155.50 161.99 156.38 C 161.71 157.25 162.20 158.19 163.07 158.46 Z M 164.06 158.71 L 164.87 158.96 C 165.71 159.22 166.61 158.74 166.87 157.90 C 167.13 157.05 166.65 156.15 165.81 155.89 L 165.00 155.65 C 164.15 155.39 163.25 155.86 163.00 156.71 C 162.74 157.56 163.21 158.45 164.06 158.71 Z"
      fill="black"
      fill-rule="nonzero" /></svg>