<svg xmlns="http://www.w3.org/2000/svg" width="300" height="300" viewBox="0 0 300 300">
<path d="M 139.45 130.60 L 139.59 131.50 C 139.73 132.45 140.61 133.10 141.56 132.96 C 142.51 132.82 143.16 131.94 143.02 130.99 L 142.89 130.08 C 142.74 129.14 141.86 128.48 140.91 128.63 C 139.97 128.77 139.31 129.65 139.45 130.60 Z M 139.55 131.47 L 139.67 132.43 C 139.80 133.40 140.68 134.08 141.65 133.96 C 142.62 133.83 143.31 132.94 143.18 131.97 L 143.06 131.02 C 142.94 130.05 142.05 129.36 141.08 129.49 C 140.11 129.61 139.42 130.50 139.55 131.47 Z M 139.63 132.37 L 139.73 133.43 C 139.82 134.42 140.70 135.15 141.70 135.06 C 142.69 134.96 143.42 134.08 143.33 133.09 L 143.23 132.03 C 143.13 131.04 142.25 130.31 141.26 130.40 C 140.27 130.49 139.54 131.38 139.63 132.37 Z M 139.70 133.36 L 139.75 134.33 C 139.81 135.34 140.68 136.12 141.69 136.06 C 142.70 136.00 143.47 135.14 143.41 134.13 L 143.36 133.15 C 143.30 132.14 142.43 131.37 141.42 131.43 C 140.41 131.48 139.64 132.35 139.70 133.36 Z M 139.74 134.28 L 139.77 135.20 C 139.80 136.22 140.65 137.02 141.66 136.99 C 142.68 136.96 143.48 136.11 143.45 135.10 L 143.42 134.18 C 143.39 133.16 142.55 132.36 141.53 132.39 C 140.52 132.42 139.72 133.27 139.74 134.28 Z M 139.77 135.16 L 139.78 136.15 C 139.78 137.16 140.61 137.98 141.63 137.98 C 142.64 137.97 143.46 137.14 143.45 136.12 L 143.45 135.14 C 143.44 134.12 142.61 133.30 141.60 133.31 C 140.58 133.31 139.76 134.14 139.77 135.16 Z M 139.78 136.11 L 139.76 137.16 C 139.75 138.18 140.56 139.01 141.58 139.02 C 142.59 139.04 143.43 138.22 143.44 137.21 L 143.45 136.16 C 143.47 135.14 142.65 134.31 141.64 134.30 C 140.62 134.28 139.79 135.10 139.78 136.11 Z M 139.76 137.13 L 139.73 138.23 C 139.70 139.24 140.50 140.09 141.51 140.12 C 142.53 140.15 143.38 139.36 143.41 138.34 L 143.44 137.24 C 143.47 136.23 142.67 135.38 141.66 135.35 C 140.64 135.32 139.79 136.11 139.76 137.13 Z M 139.73 138.20 L 139.69 139.23 C 139.64 140.24 140.42 141.10 141.44 141.15 C 142.45 141.19 143.31 140.41 143.36 139.40 L 143.40 138.37 C 143.45 137.36 142.66 136.50 141.65 136.45 C 140.64 136.40 139.78 137.19 139.73 138.20 Z M 139.69 139.21 L 139.64 140.22 C 139.58 141.23 140.35 142.10 141.36 142.15 C 142.37 142.21 143.24 141.44 143.29 140.43 L 143.35 139.42 C 143.41 138.41 142.63 137.54 141.62 137.49 C 140.61 137.43 139.75 138.20 139.69 139.21 Z M 139.64 140.21 L 139.58 141.23 C 139.51 142.24 140.28 143.10 141.28 143.17 C 142.29 143.23 143.16 142.47 143.22 141.46 L 143.28 140.44 C 143.35 139.44 142.59 138.57 141.58 138.51 C 140.57 138.44 139.71 139.21 139.64 140.21 Z M 139.59 141.22 L 139.52 142.23 C 139.45 143.23 140.21 144.10 141.21 144.17 C 142.21 144.24 143.08 143.48 143.15 142.48 L 143.21 141.47 C 143.28 140.47 142.52 139.60 141.52 139.53 C 140.52 139.46 139.65 140.22 139.59 141.22 Z M 139.52 142.23 L 139.46 143.22 C 139.39 144.22 140.14 145.08 141.14 145.15 C 142.14 145.22 143.00 144.46 143.07 143.46 L 143.14 142.48 C 143.21 141.48 142.45 140.62 141.45 140.55 C 140.46 140.48 139.59 141.23 139.52 142.23 Z M 139.47 143.22 L 139.40 144.22 C 139.34 145.22 140.09 146.08 141.08 146.14 C 142.08 146.20 142.94 145.45 143.00 144.46 L 143.06 143.46 C 143.13 142.46 142.38 141.61 141.38 141.54 C 140.39 141.48 139.53 142.23 139.47 143.22 Z M 139.42 144.24 L 139.35 145.37 C 139.29 146.35 140.05 147.20 141.03 147.25 C 142.01 147.31 142.86 146.56 142.92 145.57 L 142.98 144.44 C 143.04 143.46 142.29 142.61 141.30 142.56 C 140.32 142.50 139.47 143.25 139.42 144.24 Z M 139.38 145.38 L 139.32 146.43 C 139.27 147.40 140.02 148.22 140.99 148.27 C 141.96 148.32 142.79 147.58 142.84 146.60 L 142.89 145.56 C 142.94 144.59 142.19 143.76 141.22 143.71 C 140.25 143.66 139.43 144.41 139.38 145.38 Z M 139.35 146.44 L 139.31 147.40 C 139.27 148.36 140.01 149.17 140.97 149.21 C 141.92 149.25 142.73 148.50 142.77 147.55 L 142.81 146.59 C 142.86 145.63 142.11 144.82 141.16 144.78 C 140.20 144.74 139.39 145.48 139.35 146.44 Z M 139.33 147.41 L 139.30 148.28 C 139.27 149.22 140.01 150.01 140.95 150.05 C 141.90 150.08 142.69 149.34 142.72 148.40 L 142.75 147.53 C 142.78 146.59 142.04 145.80 141.10 145.76 C 140.16 145.73 139.36 146.47 139.33 147.41 Z M 139.33 148.30 L 139.31 149.37 C 139.29 150.30 140.02 151.07 140.95 151.09 C 141.87 151.11 142.64 150.38 142.66 149.45 L 142.69 148.38 C 142.71 147.45 141.98 146.68 141.05 146.66 C 140.12 146.64 139.35 147.37 139.33 148.30 Z M 139.34 149.39 L 139.33 150.38 C 139.32 151.29 140.05 152.03 140.96 152.04 C 141.86 152.05 142.61 151.32 142.62 150.42 L 142.63 149.43 C 142.64 148.52 141.91 147.78 141.00 147.77 C 140.10 147.76 139.35 148.49 139.34 149.39 Z M 139.37 150.40 L 139.37 151.30 C 139.37 152.19 140.09 152.90 140.97 152.91 C 141.85 152.91 142.57 152.19 142.57 151.31 L 142.58 150.40 C 142.58 149.52 141.86 148.80 140.98 148.80 C 140.09 148.80 139.38 149.51 139.37 150.40 Z M 139.39 151.31 L 139.39 151.36 C 139.39 152.23 140.10 152.94 140.97 152.94 C 141.85 152.94 142.55 152.23 142.55 151.36 L 142.55 151.31 C 142.55 150.43 141.85 149.73 140.97 149.73 C 140.10 149.73 139.39 150.43 139.39 151.31 Z"
      fill="black"
      fill-rule="nonzero" /><path d="M 146.60 132.87 L 147.31 132.22 C 148.08 131.52 148.14 130.34 147.44 129.57 C 146.75 128.80 145.56 128.74 144.79 129.43 L 144.07 130.08 C 143.30 130.78 143.24 131.96 143.94 132.73 C 144.64 133.50 145.83 133.56 146.60 132.87 Z M 147.14 132.36 L 147.96 131.78 C 148.81 131.18 149.00 130.00 148.40 129.16 C 147.80 128.31 146.63 128.11 145.78 128.71 L 144.96 129.29 C 144.12 129.89 143.92 131.07 144.52 131.91 C 145.12 132.76 146.29 132.96 147.14 132.36 Z M 147.66 131.94 L 148.56 131.53 C 149.50 131.09 149.91 129.97 149.47 129.03 C 149.04 128.09 147.92 127.69 146.98 128.12 L 146.08 128.54 C 145.14 128.98 144.73 130.09 145.17 131.03 C 145.61 131.97 146.72 132.38 147.66 131.94 Z M 148.34 131.61 L 149.31 131.30 C 150.29 130.98 150.83 129.93 150.52 128.94 C 150.20 127.96 149.15 127.41 148.16 127.73 L 147.20 128.04 C 146.21 128.36 145.67 129.41 145.99 130.40 C 146.31 131.38 147.36 131.92 148.34 131.61 Z M 149.21 131.32 L 150.19 131.07 C 151.19 130.81 151.79 129.79 151.53 128.79 C 151.27 127.79 150.25 127.19 149.25 127.45 L 148.26 127.71 C 147.27 127.97 146.67 128.99 146.93 129.99 C 147.19 130.98 148.21 131.58 149.21 131.32 Z M 150.16 131.07 L 151.18 130.82 C 152.18 130.57 152.79 129.57 152.54 128.57 C 152.30 127.57 151.29 126.95 150.29 127.20 L 149.28 127.45 C 148.28 127.69 147.66 128.70 147.91 129.70 C 148.16 130.70 149.16 131.31 150.16 131.07 Z M 151.17 130.82 L 152.13 130.58 C 153.13 130.34 153.74 129.34 153.50 128.34 C 153.25 127.34 152.25 126.73 151.25 126.97 L 150.29 127.20 C 149.30 127.44 148.68 128.45 148.93 129.45 C 149.17 130.45 150.17 131.06 151.17 130.82 Z M 152.13 130.58 L 153.08 130.35 C 154.08 130.11 154.69 129.10 154.44 128.10 C 154.20 127.11 153.20 126.50 152.20 126.74 L 151.25 126.97 C 150.25 127.22 149.64 128.22 149.88 129.22 C 150.13 130.21 151.13 130.82 152.13 130.58 Z M 153.08 130.35 L 154.06 130.11 C 155.05 129.86 155.66 128.86 155.42 127.86 C 155.17 126.87 154.17 126.26 153.17 126.50 L 152.20 126.74 C 151.20 126.99 150.59 127.99 150.84 128.99 C 151.08 129.98 152.09 130.59 153.08 130.35 Z M 154.05 130.11 L 155.01 129.88 C 156.00 129.64 156.62 128.64 156.38 127.64 C 156.14 126.65 155.13 126.03 154.14 126.27 L 153.18 126.50 C 152.19 126.74 151.57 127.74 151.81 128.74 C 152.05 129.74 153.05 130.35 154.05 130.11 Z M 154.99 129.88 L 155.91 129.67 C 156.91 129.44 157.53 128.45 157.30 127.45 C 157.08 126.45 156.08 125.83 155.08 126.06 L 154.16 126.27 C 153.16 126.50 152.54 127.49 152.77 128.49 C 152.99 129.49 153.99 130.11 154.99 129.88 Z M 155.88 129.68 L 156.88 129.47 C 157.88 129.25 158.52 128.27 158.31 127.27 C 158.09 126.27 157.11 125.63 156.11 125.84 L 155.11 126.05 C 154.11 126.26 153.47 127.25 153.68 128.25 C 153.90 129.25 154.88 129.89 155.88 129.68 Z M 156.84 129.47 L 157.83 129.28 C 158.83 129.09 159.49 128.12 159.30 127.11 C 159.10 126.11 158.13 125.45 157.13 125.64 L 156.14 125.83 C 155.14 126.02 154.48 127.00 154.67 128.00 C 154.87 129.01 155.84 129.67 156.84 129.47 Z M 157.78 129.30 L 158.77 129.13 C 159.78 128.97 160.47 128.01 160.30 127.00 C 160.13 125.99 159.18 125.30 158.16 125.47 L 157.17 125.63 C 156.16 125.80 155.48 126.75 155.64 127.77 C 155.81 128.78 156.77 129.46 157.78 129.30 Z M 158.69 129.15 L 159.71 129.03 C 160.73 128.90 161.46 127.98 161.33 126.95 C 161.21 125.93 160.28 125.21 159.26 125.33 L 158.24 125.45 C 157.22 125.58 156.50 126.50 156.62 127.52 C 156.74 128.54 157.67 129.27 158.69 129.15 Z M 159.58 129.06 L 160.66 129.00 C 161.70 128.95 162.50 128.07 162.45 127.04 C 162.40 126.00 161.52 125.20 160.48 125.25 L 159.40 125.30 C 158.36 125.35 157.56 126.23 157.61 127.27 C 157.66 128.30 158.54 129.11 159.58 129.06 Z M 160.39 129.04 L 161.42 129.14 C 162.48 129.24 163.41 128.46 163.51 127.40 C 163.61 126.35 162.84 125.41 161.78 125.31 L 160.75 125.21 C 159.70 125.11 158.76 125.89 158.66 126.94 C 158.56 128.00 159.33 128.94 160.39 129.04 Z M 160.86 129.05 L 161.67 129.38 C 162.68 129.79 163.83 129.30 164.24 128.29 C 164.65 127.28 164.16 126.13 163.15 125.72 L 162.34 125.39 C 161.33 124.98 160.18 125.47 159.77 126.48 C 159.36 127.50 159.85 128.65 160.86 129.05 Z M 160.87 128.85 L 161.39 129.47 C 162.11 130.31 163.38 130.42 164.23 129.70 C 165.08 128.99 165.19 127.72 164.47 126.87 L 163.95 126.25 C 163.23 125.40 161.96 125.30 161.11 126.01 C 160.26 126.73 160.16 128.00 160.87 128.85 Z M 160.98 128.76 L 161.27 129.72 C 161.61 130.79 162.75 131.40 163.82 131.07 C 164.90 130.73 165.50 129.59 165.17 128.52 L 164.88 127.57 C 164.55 126.49 163.41 125.89 162.33 126.22 C 161.26 126.55 160.65 127.69 160.98 128.76 Z M 161.18 129.36 L 161.31 130.47 C 161.44 131.60 162.46 132.41 163.59 132.28 C 164.72 132.15 165.53 131.13 165.40 130.00 L 165.27 128.88 C 165.14 127.75 164.11 126.94 162.98 127.07 C 161.85 127.20 161.04 128.23 161.18 129.36 Z M 161.28 130.34 L 161.33 131.24 C 161.39 132.39 162.36 133.27 163.50 133.21 C 164.65 133.15 165.53 132.18 165.47 131.03 L 165.42 130.13 C 165.37 128.99 164.39 128.11 163.25 128.16 C 162.11 128.22 161.23 129.20 161.28 130.34 Z M 161.32 131.16 L 161.33 132.16 C 161.34 133.30 162.29 134.22 163.43 134.21 C 164.58 134.20 165.50 133.26 165.49 132.11 L 165.48 131.11 C 165.47 129.97 164.52 129.05 163.37 129.06 C 162.23 129.07 161.31 130.01 161.32 131.16 Z M 161.32 132.08 L 161.30 133.14 C 161.27 134.29 162.18 135.24 163.34 135.27 C 164.49 135.30 165.44 134.39 165.47 133.23 L 165.50 132.18 C 165.52 131.03 164.61 130.07 163.46 130.05 C 162.31 130.02 161.35 130.93 161.32 132.08 Z M 161.30 133.06 L 161.23 134.14 C 161.17 135.30 162.05 136.29 163.20 136.35 C 164.36 136.42 165.35 135.54 165.41 134.39 L 165.47 133.31 C 165.54 132.15 164.66 131.16 163.51 131.10 C 162.35 131.03 161.36 131.91 161.30 133.06 Z M 161.23 134.07 L 161.13 135.14 C 161.02 136.30 161.87 137.32 163.02 137.43 C 164.18 137.54 165.20 136.69 165.31 135.54 L 165.41 134.46 C 165.52 133.31 164.67 132.28 163.52 132.18 C 162.37 132.07 161.34 132.91 161.23 134.07 Z M 161.14 135.07 L 161.00 136.13 C 160.85 137.28 161.66 138.33 162.82 138.48 C 163.97 138.63 165.02 137.82 165.17 136.66 L 165.30 135.61 C 165.45 134.46 164.64 133.41 163.49 133.26 C 162.34 133.11 161.29 133.92 161.14 135.07 Z M 161.01 136.07 L 160.85 137.07 C 160.66 138.22 161.45 139.30 162.60 139.48 C 163.74 139.66 164.82 138.88 165.00 137.73 L 165.16 136.72 C 165.34 135.58 164.56 134.50 163.41 134.32 C 162.27 134.14 161.19 134.92 161.01 136.07 Z M 160.85 137.02 L 160.68 137.96 C 160.47 139.11 161.23 140.20 162.37 140.42 C 163.51 140.63 164.61 139.87 164.82 138.72 L 165.00 137.78 C 165.21 136.64 164.45 135.54 163.31 135.33 C 162.16 135.12 161.06 135.88 160.85 137.02 Z M 160.69 137.92 L 160.50 138.83 C 160.26 139.97 161.00 141.08 162.14 141.32 C 163.28 141.55 164.39 140.82 164.63 139.68 L 164.82 138.77 C 165.05 137.63 164.32 136.51 163.18 136.28 C 162.04 136.04 160.92 136.78 160.69 137.92 Z M 160.51 138.78 L 160.26 139.83 C 160.00 140.97 160.71 142.10 161.85 142.36 C 162.98 142.63 164.12 141.92 164.38 140.78 L 164.62 139.73 C 164.88 138.59 164.17 137.46 163.04 137.20 C 161.90 136.93 160.77 137.64 160.51 138.78 Z M 160.28 139.78 L 160.03 140.72 C 159.74 141.85 160.42 143.00 161.55 143.29 C 162.68 143.58 163.83 142.91 164.12 141.78 L 164.37 140.84 C 164.66 139.71 163.98 138.56 162.85 138.26 C 161.72 137.97 160.57 138.65 160.28 139.78 Z M 160.04 140.67 L 159.79 141.56 C 159.47 142.68 160.12 143.85 161.25 144.17 C 162.37 144.49 163.54 143.84 163.86 142.71 L 164.11 141.82 C 164.43 140.70 163.78 139.53 162.65 139.21 C 161.53 138.90 160.36 139.55 160.04 140.67 Z M 159.80 141.53 L 159.52 142.47 C 159.19 143.58 159.82 144.76 160.94 145.10 C 162.06 145.43 163.24 144.79 163.57 143.68 L 163.85 142.74 C 164.19 141.62 163.55 140.45 162.43 140.11 C 161.31 139.78 160.13 140.41 159.80 141.53 Z M 159.52 142.44 L 159.23 143.40 C 158.88 144.51 159.51 145.70 160.62 146.05 C 161.74 146.39 162.92 145.77 163.27 144.65 L 163.57 143.70 C 163.91 142.58 163.29 141.40 162.17 141.05 C 161.06 140.70 159.87 141.33 159.52 142.44 Z M 159.23 143.38 L 158.92 144.34 C 158.56 145.46 159.18 146.65 160.29 147.01 C 161.40 147.37 162.60 146.75 162.95 145.64 L 163.27 144.67 C 163.62 143.56 163.01 142.37 161.90 142.01 C 160.78 141.65 159.59 142.26 159.23 143.38 Z M 158.93 144.32 L 158.61 145.27 C 158.24 146.38 158.84 147.58 159.95 147.95 C 161.06 148.32 162.26 147.72 162.63 146.61 L 162.95 145.66 C 163.32 144.55 162.72 143.35 161.61 142.98 C 160.50 142.61 159.30 143.21 158.93 144.32 Z M 158.62 145.25 L 158.29 146.19 C 157.91 147.30 158.50 148.51 159.60 148.89 C 160.71 149.27 161.92 148.68 162.30 147.58 L 162.63 146.63 C 163.01 145.53 162.42 144.32 161.32 143.94 C 160.21 143.56 159.00 144.14 158.62 145.25 Z M 158.30 146.17 L 157.96 147.11 C 157.56 148.21 158.14 149.43 159.24 149.82 C 160.34 150.22 161.55 149.65 161.95 148.55 L 162.29 147.60 C 162.69 146.50 162.12 145.29 161.02 144.89 C 159.91 144.49 158.70 145.06 158.30 146.17 Z M 157.97 147.08 L 157.62 148.02 C 157.20 149.11 157.76 150.34 158.85 150.75 C 159.95 151.17 161.17 150.61 161.58 149.52 L 161.94 148.58 C 162.35 147.48 161.80 146.26 160.71 145.84 C 159.61 145.43 158.39 145.98 157.97 147.08 Z M 157.63 147.99 L 157.26 148.92 C 156.83 150.01 157.36 151.24 158.45 151.67 C 159.54 152.11 160.77 151.57 161.20 150.48 L 161.57 149.55 C 162.00 148.46 161.47 147.23 160.38 146.80 C 159.29 146.36 158.06 146.90 157.63 147.99 Z M 157.27 148.89 L 156.89 149.81 C 156.44 150.90 156.95 152.14 158.04 152.59 C 159.12 153.03 160.36 152.52 160.81 151.44 L 161.19 150.51 C 161.64 149.43 161.13 148.19 160.04 147.74 C 158.96 147.29 157.72 147.81 157.27 148.89 Z M 156.90 149.78 L 156.51 150.69 C 156.04 151.77 156.54 153.02 157.61 153.48 C 158.69 153.95 159.94 153.45 160.40 152.38 L 160.80 151.47 C 161.26 150.39 160.77 149.14 159.69 148.68 C 158.62 148.21 157.37 148.71 156.90 149.78 Z M 156.52 150.66 L 156.11 151.56 C 155.63 152.63 156.11 153.89 157.18 154.37 C 158.24 154.85 159.50 154.38 159.98 153.31 L 160.39 152.41 C 160.87 151.34 160.40 150.08 159.33 149.60 C 158.26 149.12 157.00 149.59 156.52 150.66 Z M 156.13 151.54 L 155.70 152.44 C 155.21 153.50 155.66 154.76 156.72 155.26 C 157.78 155.76 159.05 155.30 159.55 154.24 L 159.97 153.34 C 160.47 152.28 160.01 151.01 158.95 150.52 C 157.89 150.02 156.62 150.47 156.13 151.54 Z M 155.72 152.41 L 155.27 153.33 C 154.76 154.38 155.20 155.65 156.25 156.16 C 157.31 156.68 158.58 156.24 159.09 155.18 L 159.53 154.27 C 160.05 153.21 159.61 151.94 158.55 151.43 C 157.50 150.92 156.23 151.36 155.72 152.41 Z M 155.28 153.30 L 154.83 154.20 C 154.31 155.25 154.73 156.53 155.78 157.05 C 156.83 157.57 158.11 157.15 158.63 156.10 L 159.08 155.20 C 159.60 154.15 159.18 152.88 158.13 152.35 C 157.08 151.83 155.81 152.26 155.28 153.30 Z M 154.85 154.18 L 154.38 155.08 C 153.85 156.12 154.26 157.40 155.30 157.94 C 156.34 158.47 157.62 158.07 158.16 157.02 L 158.62 156.12 C 159.16 155.08 158.75 153.80 157.70 153.26 C 156.66 152.73 155.38 153.14 154.85 154.18 Z M 154.40 155.05 L 153.93 155.93 C 153.38 156.96 153.77 158.25 154.80 158.80 C 155.84 159.35 157.12 158.96 157.68 157.93 L 158.14 157.05 C 158.69 156.02 158.30 154.73 157.27 154.18 C 156.23 153.63 154.95 154.02 154.40 155.05 Z M 153.95 155.89 L 153.45 156.79 C 152.88 157.81 153.25 159.11 154.27 159.68 C 155.30 160.25 156.59 159.88 157.16 158.85 L 157.66 157.96 C 158.23 156.94 157.86 155.64 156.83 155.07 C 155.81 154.50 154.52 154.87 153.95 155.89 Z M 153.47 156.75 L 152.97 157.62 C 152.37 158.63 152.72 159.93 153.73 160.52 C 154.74 161.11 156.04 160.77 156.63 159.76 L 157.14 158.89 C 157.73 157.88 157.39 156.58 156.37 155.99 C 155.36 155.40 154.06 155.74 153.47 156.75 Z M 152.98 157.59 L 152.48 158.42 C 151.87 159.42 152.19 160.73 153.19 161.34 C 154.19 161.94 155.50 161.62 156.11 160.62 L 156.61 159.79 C 157.22 158.79 156.90 157.48 155.90 156.87 C 154.90 156.27 153.59 156.58 152.98 157.59 Z M 152.50 158.39 L 151.97 159.24 C 151.34 160.23 151.64 161.54 152.64 162.16 C 153.63 162.79 154.94 162.49 155.56 161.49 L 156.09 160.65 C 156.71 159.66 156.41 158.35 155.42 157.72 C 154.43 157.10 153.12 157.40 152.50 158.39 Z M 151.98 159.22 L 151.44 160.06 C 150.80 161.04 151.08 162.36 152.07 162.99 C 153.05 163.63 154.36 163.35 155.00 162.36 L 155.54 161.52 C 156.18 160.53 155.90 159.22 154.91 158.59 C 153.93 157.95 152.62 158.23 151.98 159.22 Z M 151.45 160.04 L 150.90 160.86 C 150.25 161.84 150.52 163.15 151.49 163.80 C 152.47 164.45 153.78 164.19 154.43 163.21 L 154.98 162.38 C 155.63 161.41 155.37 160.09 154.39 159.45 C 153.42 158.80 152.10 159.06 151.45 160.04 Z M 150.92 160.84 L 150.35 161.67 C 149.69 162.64 149.93 163.96 150.90 164.62 C 151.86 165.28 153.18 165.03 153.84 164.07 L 154.41 163.23 C 155.08 162.27 154.83 160.95 153.86 160.29 C 152.90 159.63 151.58 159.88 150.92 160.84 Z M 150.37 161.65 L 149.79 162.47 C 149.12 163.42 149.34 164.74 150.30 165.42 C 151.25 166.09 152.57 165.86 153.24 164.91 L 153.82 164.09 C 154.49 163.14 154.27 161.82 153.32 161.15 C 152.36 160.47 151.04 160.70 150.37 161.65 Z M 149.81 162.45 L 149.23 163.24 C 148.55 164.18 148.76 165.50 149.70 166.19 C 150.64 166.87 151.96 166.67 152.64 165.73 L 153.22 164.93 C 153.91 163.99 153.70 162.67 152.76 161.99 C 151.82 161.30 150.50 161.51 149.81 162.45 Z M 149.26 163.22 L 148.65 164.04 C 147.95 164.96 148.13 166.28 149.06 166.98 C 149.99 167.68 151.31 167.49 152.00 166.56 L 152.62 165.75 C 153.32 164.82 153.13 163.50 152.20 162.80 C 151.27 162.11 149.96 162.29 149.26 163.22 Z M 148.68 164.01 L 148.06 164.79 C 147.35 165.70 147.51 167.02 148.42 167.73 C 149.33 168.44 150.65 168.28 151.36 167.37 L 151.97 166.59 C 152.68 165.68 152.52 164.36 151.61 163.65 C 150.70 162.94 149.39 163.10 148.68 164.01 Z M 148.10 164.76 L 147.48 165.52 C 146.75 166.41 146.88 167.72 147.76 168.45 C 148.65 169.18 149.96 169.05 150.69 168.17 L 151.32 167.40 C 152.05 166.52 151.92 165.21 151.03 164.48 C 150.15 163.75 148.83 163.88 148.10 164.76 Z M 147.53 165.49 L 146.87 166.25 C 146.13 167.11 146.22 168.41 147.08 169.15 C 147.94 169.90 149.24 169.81 149.99 168.95 L 150.64 168.20 C 151.39 167.34 151.30 166.03 150.44 165.29 C 149.58 164.54 148.27 164.63 147.53 165.49 Z M 146.92 166.23 L 146.25 166.97 C 145.49 167.80 145.56 169.10 146.39 169.85 C 147.23 170.61 148.52 170.54 149.27 169.71 L 149.94 168.97 C 150.70 168.13 150.64 166.84 149.80 166.08 C 148.96 165.33 147.67 165.39 146.92 166.23 Z M 146.29 166.97 L 145.65 167.65 C 144.89 168.47 144.94 169.74 145.75 170.49 C 146.56 171.25 147.83 171.21 148.59 170.40 L 149.23 169.71 C 149.99 168.90 149.94 167.63 149.13 166.87 C 148.32 166.11 147.05 166.16 146.29 166.97 Z M 145.72 167.64 L 145.02 168.35 C 144.26 169.12 144.27 170.36 145.04 171.13 C 145.81 171.89 147.06 171.89 147.82 171.11 L 148.52 170.41 C 149.28 169.64 149.28 168.39 148.50 167.63 C 147.73 166.86 146.48 166.87 145.72 167.64 Z M 145.11 168.32 L 144.33 169.04 C 143.55 169.77 143.51 170.99 144.23 171.77 C 144.96 172.55 146.17 172.59 146.95 171.87 L 147.73 171.14 C 148.51 170.42 148.56 169.20 147.83 168.42 C 147.11 167.64 145.89 167.59 145.11 168.32 Z M 144.42 169.02 L 143.66 169.66 C 142.87 170.34 142.77 171.53 143.45 172.32 C 144.12 173.12 145.31 173.21 146.11 172.54 L 146.87 171.89 C 147.66 171.22 147.75 170.03 147.08 169.23 C 146.40 168.44 145.21 168.34 144.42 169.02 Z M 143.75 169.64 L 142.94 170.27 C 142.13 170.90 141.99 172.06 142.62 172.87 C 143.25 173.67 144.41 173.82 145.21 173.19 L 146.02 172.56 C 146.83 171.93 146.97 170.77 146.34 169.96 C 145.71 169.16 144.55 169.01 143.75 169.64 Z M 143.04 170.24 L 142.23 170.81 C 141.41 171.39 141.21 172.51 141.78 173.33 C 142.35 174.15 143.48 174.36 144.30 173.78 L 145.11 173.21 C 145.93 172.64 146.13 171.51 145.56 170.69 C 144.99 169.87 143.86 169.67 143.04 170.24 Z M 142.36 170.78 L 141.46 171.32 C 140.63 171.82 140.35 172.90 140.85 173.73 C 141.34 174.57 142.42 174.84 143.26 174.35 L 144.16 173.81 C 145.00 173.31 145.27 172.23 144.78 171.40 C 144.28 170.56 143.20 170.29 142.36 170.78 Z M 141.60 171.32 L 140.72 171.76 C 139.88 172.18 139.54 173.20 139.96 174.03 C 140.38 174.87 141.40 175.21 142.23 174.79 L 143.12 174.35 C 143.95 173.93 144.29 172.91 143.87 172.08 C 143.46 171.24 142.44 170.90 141.60 171.32 Z M 140.81 171.79 L 140.02 172.15 C 139.20 172.52 138.83 173.48 139.20 174.30 C 139.57 175.12 140.54 175.48 141.36 175.11 L 142.14 174.76 C 142.96 174.39 143.33 173.43 142.96 172.61 C 142.59 171.79 141.63 171.42 140.81 171.79 Z"
      fill="black"
      fill-rule="nonzero" /></svg>