<svg xmlns="http://www.w3.org/2000/svg" width="300" height="300" viewBox="0 0 300 300">
<path d="M 151.35 136.56 L 151.39 135.56 C 151.42 134.70 150.76 133.97 149.89 133.94 C 149.03 133.90 148.30 134.57 148.27 135.43 L 148.23 136.42 C 148.19 137.28 148.86 138.01 149.72 138.05 C 150.58 138.09 151.31 137.42 151.35 136.56 Z M 151.39 135.55 L 151.42 134.55 C 151.45 133.69 150.78 132.97 149.92 132.93 C 149.06 132.90 148.33 133.58 148.30 134.44 L 148.27 135.44 C 148.24 136.30 148.91 137.03 149.77 137.06 C 150.64 137.09 151.36 136.41 151.39 135.55 Z M 151.43 134.53 L 151.45 133.57 C 151.47 132.71 150.78 131.99 149.92 131.97 C 149.05 131.95 148.34 132.64 148.32 133.50 L 148.30 134.46 C 148.28 135.33 148.97 136.04 149.83 136.06 C 150.69 136.08 151.41 135.39 151.43 134.53 Z M 151.45 133.56 L 151.46 132.60 C 151.48 131.74 150.78 131.03 149.92 131.01 C 149.05 131.00 148.34 131.70 148.33 132.56 L 148.32 133.52 C 148.30 134.38 149.00 135.09 149.86 135.11 C 150.73 135.12 151.44 134.42 151.45 133.56 Z M 151.47 132.61 L 151.49 131.55 C 151.50 130.69 150.81 129.97 149.94 129.95 C 149.08 129.94 148.36 130.63 148.34 131.50 L 148.32 132.55 C 148.31 133.42 149.00 134.14 149.87 134.16 C 150.74 134.17 151.45 133.48 151.47 132.61 Z M 151.50 131.57 L 151.53 130.55 C 151.55 129.68 150.87 128.95 150.00 128.92 C 149.12 128.89 148.39 129.58 148.37 130.45 L 148.34 131.48 C 148.31 132.35 148.99 133.08 149.87 133.11 C 150.74 133.13 151.47 132.45 151.50 131.57 Z M 151.54 130.57 L 151.59 129.54 C 151.63 128.67 150.95 127.92 150.07 127.88 C 149.19 127.84 148.45 128.52 148.41 129.39 L 148.36 130.42 C 148.32 131.30 148.99 132.05 149.87 132.09 C 150.75 132.13 151.50 131.45 151.54 130.57 Z M 151.59 129.58 L 151.66 128.57 C 151.73 127.69 151.06 126.92 150.18 126.86 C 149.29 126.80 148.53 127.47 148.47 128.35 L 148.40 129.36 C 148.34 130.24 149.00 131.00 149.89 131.07 C 150.77 131.13 151.53 130.46 151.59 129.58 Z M 151.71 128.64 L 151.84 127.46 C 151.94 126.56 151.29 125.74 150.38 125.64 C 149.47 125.54 148.66 126.19 148.56 127.10 L 148.43 128.28 C 148.33 129.18 148.98 130.00 149.88 130.10 C 150.79 130.20 151.61 129.55 151.71 128.64 Z M 151.94 127.71 L 152.15 126.86 C 152.39 125.90 151.80 124.92 150.84 124.68 C 149.88 124.45 148.90 125.03 148.66 126.00 L 148.45 126.85 C 148.21 127.81 148.80 128.79 149.76 129.02 C 150.73 129.26 151.70 128.68 151.94 127.71 Z M 148.50 126.86 L 148.60 127.32 C 148.84 128.37 149.89 129.04 150.94 128.80 C 151.99 128.56 152.65 127.52 152.42 126.47 L 152.32 126.00 C 152.08 124.95 151.03 124.29 149.98 124.52 C 148.93 124.76 148.26 125.80 148.50 126.86 Z M 148.49 126.96 L 148.52 127.93 C 148.56 129.05 149.50 129.92 150.61 129.89 C 151.73 129.85 152.61 128.91 152.57 127.79 L 152.53 126.82 C 152.50 125.71 151.56 124.83 150.44 124.87 C 149.32 124.91 148.45 125.84 148.49 126.96 Z M 148.49 127.88 L 148.50 129.07 C 148.50 130.20 149.43 131.12 150.57 131.11 C 151.71 131.10 152.62 130.17 152.61 129.03 L 152.60 127.85 C 152.59 126.71 151.67 125.80 150.53 125.80 C 149.39 125.81 148.48 126.74 148.49 127.88 Z M 148.47 129.05 L 148.47 130.23 C 148.47 131.38 149.40 132.32 150.55 132.32 C 151.71 132.31 152.64 131.38 152.64 130.23 L 152.64 129.05 C 152.64 127.90 151.70 126.96 150.55 126.96 C 149.40 126.97 148.47 127.90 148.47 129.05 Z M 148.46 130.23 L 148.46 131.26 C 148.46 132.42 149.40 133.36 150.55 133.36 C 151.71 133.36 152.65 132.42 152.65 131.26 L 152.65 130.23 C 152.65 129.07 151.71 128.13 150.55 128.13 C 149.40 128.13 148.46 129.07 148.46 130.23 Z M 148.45 131.26 L 148.45 132.16 C 148.45 133.32 149.39 134.26 150.55 134.26 C 151.71 134.26 152.65 133.32 152.65 132.16 L 152.65 131.26 C 152.65 130.10 151.71 129.16 150.55 129.16 C 149.39 129.16 148.45 130.10 148.45 131.26 Z M 148.45 132.16 L 148.45 133.10 C 148.45 134.26 149.39 135.20 150.55 135.20 C 151.71 135.20 152.66 134.26 152.66 133.10 L 152.66 132.16 C 152.66 131.00 151.72 130.06 150.56 130.06 C 149.39 130.06 148.45 131.00 148.45 132.16 Z M 148.45 133.07 L 148.43 134.07 C 148.42 135.23 149.35 136.19 150.51 136.20 C 151.67 136.22 152.63 135.29 152.65 134.13 L 152.66 133.13 C 152.68 131.96 151.75 131.01 150.58 130.99 C 149.42 130.98 148.46 131.91 148.45 133.07 Z M 148.43 134.01 L 148.39 135.04 C 148.34 136.20 149.25 137.18 150.41 137.23 C 151.58 137.28 152.56 136.37 152.61 135.21 L 152.65 134.18 C 152.69 133.02 151.79 132.04 150.62 131.99 C 149.46 131.94 148.48 132.85 148.43 134.01 Z M 148.39 134.97 L 148.32 135.94 C 148.24 137.11 149.11 138.12 150.28 138.20 C 151.44 138.29 152.45 137.41 152.53 136.25 L 152.60 135.28 C 152.69 134.11 151.81 133.10 150.65 133.02 C 149.48 132.93 148.47 133.81 148.39 134.97 Z M 148.32 135.90 L 148.23 136.90 C 148.12 138.07 148.97 139.10 150.14 139.20 C 151.30 139.31 152.33 138.46 152.44 137.30 L 152.53 136.29 C 152.64 135.13 151.79 134.10 150.62 133.99 C 149.46 133.88 148.43 134.74 148.32 135.90 Z M 148.23 136.88 L 148.12 137.89 C 148.00 139.05 148.84 140.09 150.00 140.21 C 151.16 140.34 152.20 139.50 152.33 138.34 L 152.44 137.33 C 152.56 136.16 151.72 135.12 150.56 135.00 C 149.40 134.87 148.35 135.71 148.23 136.88 Z M 148.12 137.87 L 148.01 138.84 C 147.88 140.01 148.71 141.05 149.87 141.19 C 151.04 141.32 152.08 140.49 152.22 139.32 L 152.33 138.35 C 152.46 137.19 151.63 136.14 150.46 136.01 C 149.30 135.88 148.25 136.71 148.12 137.87 Z M 148.01 138.84 L 147.89 139.83 C 147.76 141.00 148.59 142.05 149.75 142.18 C 150.91 142.32 151.96 141.49 152.10 140.33 L 152.22 139.33 C 152.35 138.17 151.52 137.12 150.36 136.98 C 149.20 136.84 148.15 137.68 148.01 138.84 Z M 147.89 139.83 L 147.77 140.85 C 147.63 142.01 148.47 143.07 149.63 143.20 C 150.79 143.34 151.84 142.51 151.98 141.35 L 152.10 140.33 C 152.24 139.17 151.41 138.11 150.25 137.98 C 149.08 137.84 148.03 138.67 147.89 139.83 Z M 147.77 140.85 L 147.65 141.85 C 147.52 143.02 148.35 144.07 149.51 144.20 C 150.68 144.34 151.73 143.51 151.87 142.34 L 151.98 141.35 C 152.12 140.18 151.29 139.13 150.12 138.99 C 148.96 138.86 147.91 139.69 147.77 140.85 Z M 147.65 141.85 L 147.53 142.85 C 147.40 144.02 148.23 145.07 149.40 145.21 C 150.56 145.35 151.61 144.51 151.75 143.35 L 151.87 142.34 C 152.00 141.18 151.17 140.13 150.01 139.99 C 148.84 139.85 147.79 140.69 147.65 141.85 Z M 147.53 142.85 L 147.42 143.83 C 147.28 145.00 148.11 146.06 149.28 146.19 C 150.44 146.33 151.50 145.50 151.64 144.34 L 151.75 143.35 C 151.89 142.19 151.06 141.13 149.89 140.99 C 148.73 140.85 147.67 141.68 147.53 142.85 Z M 147.42 143.83 L 147.29 144.85 C 147.15 146.02 147.98 147.08 149.14 147.22 C 150.31 147.36 151.37 146.53 151.51 145.37 L 151.64 144.34 C 151.78 143.18 150.95 142.12 149.78 141.97 C 148.62 141.83 147.56 142.66 147.42 143.83 Z M 147.29 144.84 L 147.16 145.84 C 147.02 147.01 147.84 148.07 149.01 148.22 C 150.17 148.37 151.24 147.54 151.38 146.38 L 151.51 145.38 C 151.66 144.21 150.83 143.15 149.67 143.00 C 148.50 142.85 147.44 143.68 147.29 144.84 Z M 147.16 145.83 L 147.04 146.79 C 146.88 147.95 147.71 149.02 148.87 149.18 C 150.04 149.33 151.11 148.51 151.26 147.34 L 151.38 146.39 C 151.54 145.22 150.72 144.15 149.55 144.00 C 148.39 143.85 147.32 144.67 147.16 145.83 Z M 147.04 146.78 L 146.90 147.78 C 146.74 148.95 147.56 150.02 148.72 150.18 C 149.89 150.34 150.96 149.52 151.12 148.36 L 151.26 147.35 C 151.42 146.19 150.60 145.11 149.44 144.96 C 148.27 144.80 147.20 145.61 147.04 146.78 Z M 146.90 147.76 L 146.76 148.75 C 146.59 149.92 147.40 151.00 148.56 151.17 C 149.73 151.34 150.81 150.53 150.98 149.36 L 151.12 148.38 C 151.29 147.21 150.48 146.13 149.32 145.96 C 148.15 145.79 147.07 146.60 146.90 147.76 Z M 146.76 148.73 L 146.61 149.68 C 146.43 150.84 147.22 151.94 148.38 152.12 C 149.55 152.30 150.64 151.51 150.82 150.35 L 150.97 149.39 C 151.16 148.23 150.36 147.14 149.20 146.95 C 148.04 146.77 146.95 147.56 146.76 148.73 Z M 146.62 149.65 L 146.46 150.56 C 146.26 151.72 147.03 152.82 148.19 153.02 C 149.35 153.23 150.46 152.45 150.66 151.29 L 150.82 150.38 C 151.02 149.22 150.24 148.12 149.08 147.91 C 147.92 147.71 146.82 148.49 146.62 149.65 Z M 146.46 150.53 L 146.28 151.51 C 146.06 152.67 146.82 153.78 147.98 154.00 C 149.14 154.22 150.25 153.45 150.47 152.30 L 150.65 151.32 C 150.87 150.16 150.11 149.05 148.95 148.83 C 147.80 148.61 146.68 149.37 146.46 150.53 Z M 146.28 151.49 L 146.08 152.52 C 145.85 153.68 146.60 154.80 147.76 155.03 C 148.91 155.25 150.03 154.50 150.26 153.35 L 150.47 152.32 C 150.69 151.16 149.94 150.04 148.79 149.81 C 147.63 149.58 146.51 150.34 146.28 151.49 Z M 146.08 152.51 L 145.90 153.42 C 145.66 154.57 146.41 155.69 147.56 155.93 C 148.71 156.16 149.84 155.42 150.07 154.27 L 150.26 153.36 C 150.49 152.21 149.75 151.08 148.60 150.85 C 147.44 150.61 146.32 151.36 146.08 152.51 Z M 145.90 153.40 L 145.69 154.38 C 145.45 155.53 146.19 156.66 147.34 156.91 C 148.49 157.15 149.62 156.41 149.86 155.26 L 150.07 154.28 C 150.31 153.13 149.58 152.00 148.43 151.76 C 147.27 151.51 146.14 152.25 145.90 153.40 Z M 145.70 154.36 L 145.47 155.39 C 145.22 156.54 145.94 157.68 147.09 157.93 C 148.24 158.18 149.38 157.46 149.63 156.31 L 149.86 155.28 C 150.11 154.13 149.39 153.00 148.24 152.74 C 147.09 152.49 145.95 153.21 145.70 154.36 Z M 145.48 155.36 L 145.21 156.50 C 144.94 157.64 145.65 158.79 146.80 159.06 C 147.94 159.33 149.09 158.62 149.36 157.47 L 149.62 156.34 C 149.89 155.19 149.18 154.05 148.04 153.78 C 146.89 153.51 145.75 154.22 145.48 155.36 Z M 145.23 156.47 L 144.91 157.73 C 144.63 158.87 145.32 160.02 146.46 160.31 C 147.59 160.59 148.75 159.90 149.03 158.76 L 149.34 157.50 C 149.63 156.36 148.94 155.21 147.80 154.93 C 146.66 154.64 145.51 155.33 145.23 156.47 Z M 144.93 157.72 L 144.67 158.69 C 144.38 159.82 145.06 160.97 146.19 161.27 C 147.32 161.56 148.47 160.88 148.76 159.75 L 149.02 158.78 C 149.31 157.65 148.63 156.49 147.50 156.20 C 146.37 155.91 145.22 156.59 144.93 157.72 Z M 144.70 158.69 L 144.57 159.16 C 144.28 160.27 144.94 161.41 146.06 161.71 C 147.17 162.01 148.32 161.34 148.61 160.23 L 148.74 159.76 C 149.03 158.64 148.37 157.50 147.25 157.20 C 146.14 156.91 144.99 157.57 144.70 158.69 Z M 148.47 160.20 L 148.62 159.63 C 148.90 158.59 148.29 157.52 147.26 157.24 C 146.22 156.96 145.15 157.57 144.87 158.61 L 144.72 159.18 C 144.44 160.22 145.05 161.29 146.09 161.57 C 147.12 161.85 148.19 161.24 148.47 160.20 Z M 148.40 159.56 L 148.71 158.44 C 148.95 157.52 148.41 156.58 147.50 156.34 C 146.58 156.09 145.64 156.63 145.39 157.55 L 145.09 158.67 C 144.84 159.59 145.39 160.53 146.30 160.77 C 147.22 161.02 148.16 160.48 148.40 159.56 Z"
      fill="black"
      fill-rule="nonzero" /><path d="M 139.52 163.08 L 138.43 163.96 C 137.64 164.61 137.51 165.77 138.16 166.57 C 138.80 167.37 139.97 167.49 140.76 166.85 L 141.85 165.97 C 142.65 165.32 142.77 164.16 142.13 163.36 C 141.49 162.56 140.32 162.44 139.52 163.08 Z M 138.34 163.89 L 137.72 164.41 C 136.88 165.11 136.77 166.35 137.46 167.18 C 138.16 168.02 139.40 168.13 140.23 167.44 L 140.86 166.92 C 141.69 166.22 141.81 164.98 141.11 164.15 C 140.41 163.31 139.17 163.20 138.34 163.89 Z M 140.04 167.68 L 140.22 167.57 C 141.19 166.98 141.50 165.72 140.91 164.75 C 140.33 163.78 139.07 163.47 138.10 164.06 L 137.91 164.17 C 136.94 164.76 136.63 166.02 137.22 166.99 C 137.81 167.96 139.07 168.27 140.04 167.68 Z M 140.39 167.49 L 141.10 166.97 C 142.03 166.30 142.23 164.99 141.55 164.07 C 140.88 163.14 139.57 162.93 138.64 163.61 L 137.93 164.13 C 137.00 164.81 136.80 166.11 137.48 167.04 C 138.15 167.97 139.46 168.17 140.39 167.49 Z M 141.10 166.98 L 142.10 166.25 C 143.04 165.57 143.24 164.26 142.56 163.33 C 141.88 162.40 140.57 162.19 139.64 162.87 L 138.64 163.61 C 137.71 164.29 137.51 165.59 138.19 166.52 C 138.86 167.45 140.17 167.66 141.10 166.98 Z M 142.09 166.27 L 143.10 165.55 C 144.04 164.88 144.26 163.57 143.59 162.63 C 142.92 161.69 141.61 161.47 140.67 162.14 L 139.66 162.86 C 138.72 163.53 138.50 164.83 139.17 165.78 C 139.84 166.72 141.15 166.94 142.09 166.27 Z M 143.07 165.57 L 143.92 164.98 C 144.87 164.33 145.11 163.02 144.46 162.07 C 143.80 161.12 142.50 160.88 141.55 161.53 L 140.70 162.12 C 139.74 162.77 139.50 164.08 140.16 165.03 C 140.81 165.98 142.12 166.22 143.07 165.57 Z M 143.89 164.99 L 144.71 164.45 C 145.67 163.81 145.93 162.51 145.29 161.55 C 144.65 160.59 143.35 160.33 142.39 160.97 L 141.57 161.52 C 140.61 162.16 140.36 163.46 141.00 164.42 C 141.64 165.38 142.93 165.63 143.89 164.99 Z M 144.70 164.45 L 145.50 163.92 C 146.47 163.29 146.74 162.00 146.10 161.04 C 145.47 160.07 144.18 159.80 143.22 160.44 L 142.41 160.97 C 141.44 161.60 141.18 162.89 141.81 163.86 C 142.44 164.82 143.73 165.09 144.70 164.45 Z M 145.50 163.92 L 146.31 163.39 C 147.27 162.76 147.54 161.47 146.91 160.51 C 146.28 159.55 144.99 159.28 144.03 159.91 L 143.22 160.44 C 142.26 161.07 141.99 162.36 142.62 163.32 C 143.25 164.28 144.54 164.55 145.50 163.92 Z M 146.30 163.38 L 147.13 162.85 C 148.08 162.22 148.35 160.94 147.72 159.98 C 147.10 159.02 145.82 158.75 144.86 159.38 L 144.04 159.92 C 143.08 160.54 142.81 161.83 143.44 162.78 C 144.06 163.74 145.35 164.01 146.30 163.38 Z M 147.12 162.84 L 147.96 162.29 C 148.91 161.67 149.18 160.39 148.56 159.44 C 147.94 158.49 146.66 158.22 145.71 158.84 L 144.87 159.39 C 143.92 160.01 143.65 161.28 144.27 162.24 C 144.89 163.19 146.16 163.46 147.12 162.84 Z M 147.94 162.29 L 148.80 161.73 C 149.75 161.12 150.03 159.85 149.41 158.90 C 148.80 157.95 147.53 157.68 146.58 158.29 L 145.72 158.84 C 144.77 159.46 144.50 160.72 145.11 161.67 C 145.73 162.63 146.99 162.90 147.94 162.29 Z M 148.78 161.73 L 149.64 161.18 C 150.59 160.58 150.87 159.32 150.27 158.37 C 149.66 157.43 148.41 157.15 147.46 157.75 L 146.60 158.29 C 145.65 158.90 145.37 160.15 145.98 161.10 C 146.58 162.05 147.84 162.33 148.78 161.73 Z M 149.62 161.17 L 150.48 160.64 C 151.42 160.04 151.70 158.80 151.11 157.86 C 150.52 156.92 149.28 156.63 148.33 157.22 L 147.48 157.76 C 146.54 158.35 146.25 159.60 146.84 160.54 C 147.44 161.48 148.68 161.76 149.62 161.17 Z M 150.46 160.62 L 151.31 160.09 C 152.25 159.50 152.53 158.28 151.95 157.34 C 151.36 156.41 150.14 156.12 149.20 156.71 L 148.35 157.24 C 147.42 157.82 147.13 159.05 147.71 159.98 C 148.30 160.92 149.53 161.20 150.46 160.62 Z M 151.30 160.07 L 152.14 159.54 C 153.07 158.97 153.35 157.75 152.77 156.83 C 152.19 155.90 150.98 155.62 150.05 156.20 L 149.21 156.72 C 148.29 157.30 148.01 158.52 148.58 159.44 C 149.16 160.37 150.38 160.65 151.30 160.07 Z M 152.13 159.52 L 153.00 158.97 C 153.91 158.40 154.18 157.20 153.61 156.29 C 153.04 155.38 151.84 155.11 150.93 155.68 L 150.06 156.23 C 149.15 156.80 148.88 158.00 149.45 158.91 C 150.02 159.82 151.22 160.09 152.13 159.52 Z M 152.98 158.94 L 153.86 158.39 C 154.75 157.83 155.01 156.65 154.45 155.76 C 153.89 154.87 152.71 154.60 151.82 155.16 L 150.95 155.71 C 150.05 156.28 149.79 157.46 150.35 158.35 C 150.92 159.24 152.09 159.50 152.98 158.94 Z M 153.83 158.36 L 154.67 157.83 C 155.55 157.28 155.81 156.13 155.26 155.25 C 154.71 154.38 153.56 154.12 152.68 154.67 L 151.84 155.19 C 150.97 155.74 150.71 156.90 151.26 157.77 C 151.80 158.64 152.96 158.91 153.83 158.36 Z M 154.64 157.80 L 155.45 157.30 C 156.30 156.77 156.57 155.64 156.04 154.79 C 155.51 153.93 154.38 153.66 153.52 154.19 L 152.71 154.69 C 151.86 155.22 151.59 156.35 152.12 157.21 C 152.65 158.07 153.78 158.33 154.64 157.80 Z M 155.40 157.28 L 156.30 156.74 C 157.15 156.23 157.42 155.13 156.91 154.29 C 156.41 153.44 155.31 153.17 154.46 153.68 L 153.56 154.22 C 152.72 154.73 152.45 155.82 152.95 156.67 C 153.46 157.51 154.56 157.79 155.40 157.28 Z M 156.26 156.71 L 157.13 156.21 C 157.96 155.73 158.24 154.66 157.76 153.83 C 157.27 153.00 156.21 152.71 155.38 153.20 L 154.51 153.70 C 153.68 154.18 153.39 155.25 153.88 156.08 C 154.36 156.91 155.43 157.20 156.26 156.71 Z M 157.08 156.18 L 157.91 155.72 C 158.73 155.26 159.02 154.22 158.56 153.41 C 158.10 152.59 157.07 152.30 156.25 152.76 L 155.42 153.22 C 154.60 153.68 154.31 154.72 154.77 155.53 C 155.23 156.35 156.26 156.64 157.08 156.18 Z M 157.87 155.69 L 158.76 155.21 C 159.56 154.78 159.86 153.77 159.43 152.97 C 158.99 152.16 157.98 151.86 157.18 152.30 L 156.29 152.78 C 155.49 153.22 155.19 154.22 155.63 155.03 C 156.06 155.83 157.07 156.13 157.87 155.69 Z M 158.73 155.19 L 159.61 154.73 C 160.40 154.31 160.71 153.33 160.29 152.53 C 159.87 151.74 158.89 151.44 158.09 151.85 L 157.21 152.32 C 156.42 152.74 156.11 153.72 156.53 154.51 C 156.95 155.31 157.93 155.61 158.73 155.19 Z M 159.59 154.70 L 160.39 154.29 C 161.17 153.88 161.47 152.92 161.07 152.14 C 160.66 151.36 159.70 151.05 158.92 151.46 L 158.12 151.88 C 157.34 152.28 157.03 153.25 157.44 154.03 C 157.84 154.81 158.81 155.11 159.59 154.70 Z"
      fill="black"
      fill-rule="nonzero" /><path d="M 160.97 149.35 L 160.67 148.41 C 160.38 147.52 159.44 147.03 158.55 147.31 C 157.67 147.60 157.18 148.54 157.46 149.43 L 157.77 150.37 C 158.05 151.26 158.99 151.75 159.88 151.47 C 160.76 151.18 161.25 150.24 160.97 149.35 Z M 160.72 148.42 L 160.44 147.46 C 160.16 146.54 159.19 146.02 158.28 146.30 C 157.36 146.57 156.84 147.54 157.12 148.46 L 157.40 149.42 C 157.68 150.33 158.65 150.85 159.56 150.58 C 160.48 150.30 161.00 149.33 160.72 148.42 Z M 160.54 147.50 L 160.24 146.38 C 159.99 145.40 158.99 144.82 158.02 145.08 C 157.05 145.33 156.47 146.32 156.72 147.30 L 157.02 148.42 C 157.27 149.39 158.26 149.97 159.24 149.72 C 160.21 149.46 160.79 148.47 160.54 147.50 Z M 160.45 146.69 L 160.38 145.72 C 160.30 144.64 159.36 143.82 158.27 143.90 C 157.18 143.98 156.37 144.92 156.45 146.01 L 156.52 146.98 C 156.59 148.06 157.54 148.88 158.62 148.80 C 159.71 148.72 160.53 147.78 160.45 146.69 Z M 158.84 147.93 L 159.23 147.85 C 160.37 147.61 161.11 146.50 160.87 145.36 C 160.63 144.22 159.52 143.48 158.38 143.72 L 157.98 143.80 C 156.84 144.04 156.11 145.16 156.35 146.30 C 156.58 147.43 157.70 148.17 158.84 147.93 Z M 157.55 147.54 L 158.20 148.00 C 159.17 148.69 160.51 148.47 161.20 147.50 C 161.90 146.53 161.67 145.18 160.70 144.49 L 160.06 144.03 C 159.09 143.34 157.74 143.56 157.05 144.53 C 156.36 145.50 156.58 146.85 157.55 147.54 Z M 157.94 147.80 L 158.83 148.67 C 159.69 149.50 161.06 149.48 161.90 148.62 C 162.73 147.76 162.71 146.39 161.85 145.56 L 160.96 144.69 C 160.10 143.86 158.73 143.88 157.90 144.74 C 157.06 145.59 157.08 146.97 157.94 147.80 Z M 158.73 148.57 L 159.57 149.49 C 160.37 150.38 161.75 150.44 162.64 149.64 C 163.52 148.83 163.59 147.46 162.78 146.57 L 161.95 145.65 C 161.14 144.76 159.77 144.70 158.88 145.50 C 157.99 146.31 157.93 147.69 158.73 148.57 Z M 159.52 149.44 L 160.17 150.20 C 160.95 151.11 162.33 151.21 163.24 150.43 C 164.15 149.65 164.25 148.28 163.47 147.37 L 162.83 146.61 C 162.04 145.70 160.67 145.60 159.76 146.38 C 158.85 147.16 158.74 148.53 159.52 149.44 Z M 160.15 150.17 L 160.81 150.97 C 161.58 151.89 162.95 152.02 163.87 151.25 C 164.80 150.49 164.92 149.12 164.16 148.19 L 163.49 147.39 C 162.73 146.47 161.36 146.34 160.43 147.11 C 159.51 147.88 159.38 149.25 160.15 150.17 Z M 160.80 150.95 L 161.46 151.76 C 162.21 152.70 163.58 152.84 164.51 152.08 C 165.45 151.33 165.59 149.96 164.83 149.03 L 164.17 148.21 C 163.42 147.28 162.05 147.14 161.12 147.89 C 160.18 148.65 160.04 150.02 160.80 150.95 Z M 161.45 151.75 L 162.08 152.54 C 162.83 153.48 164.19 153.64 165.13 152.89 C 166.07 152.14 166.22 150.78 165.48 149.84 L 164.84 149.04 C 164.10 148.10 162.73 147.95 161.79 148.70 C 160.85 149.44 160.70 150.81 161.45 151.75 Z M 162.07 152.53 L 162.65 153.27 C 163.39 154.22 164.76 154.38 165.70 153.64 C 166.64 152.90 166.81 151.53 166.07 150.59 L 165.49 149.85 C 164.74 148.91 163.38 148.74 162.44 149.48 C 161.49 150.22 161.33 151.59 162.07 152.53 Z M 162.66 153.25 L 163.36 154.15 C 164.08 155.09 165.44 155.26 166.38 154.53 C 167.32 153.80 167.49 152.45 166.76 151.51 L 166.06 150.61 C 165.33 149.67 163.98 149.50 163.04 150.23 C 162.10 150.96 161.93 152.31 162.66 153.25 Z M 163.38 154.12 L 163.99 154.91 C 164.70 155.84 166.03 156.02 166.95 155.31 C 167.88 154.59 168.06 153.27 167.35 152.34 L 166.74 151.54 C 166.03 150.61 164.70 150.44 163.77 151.15 C 162.84 151.86 162.67 153.19 163.38 154.12 Z M 164.02 154.89 L 164.58 155.63 C 165.28 156.54 166.58 156.71 167.49 156.01 C 168.41 155.32 168.58 154.01 167.88 153.10 L 167.32 152.36 C 166.62 151.45 165.32 151.28 164.40 151.97 C 163.49 152.67 163.32 153.98 164.02 154.89 Z M 164.61 155.61 L 165.18 156.35 C 165.87 157.24 167.15 157.40 168.05 156.71 C 168.94 156.02 169.10 154.74 168.41 153.85 L 167.85 153.11 C 167.16 152.22 165.87 152.06 164.98 152.75 C 164.09 153.44 163.92 154.72 164.61 155.61 Z M 165.23 156.33 L 165.84 157.12 C 166.53 157.98 167.78 158.13 168.65 157.45 C 169.52 156.77 169.67 155.51 168.98 154.64 L 168.37 153.86 C 167.69 152.99 166.43 152.84 165.56 153.53 C 164.69 154.21 164.54 155.47 165.23 156.33 Z M 165.90 157.10 L 166.54 157.90 C 167.21 158.74 168.44 158.87 169.28 158.20 C 170.12 157.52 170.25 156.30 169.58 155.46 L 168.93 154.66 C 168.26 153.82 167.03 153.69 166.19 154.36 C 165.35 155.04 165.22 156.26 165.90 157.10 Z M 166.60 157.89 L 167.24 158.67 C 167.91 159.48 169.11 159.59 169.91 158.93 C 170.72 158.26 170.84 157.06 170.17 156.25 L 169.52 155.47 C 168.85 154.66 167.66 154.55 166.85 155.22 C 166.04 155.89 165.93 157.08 166.60 157.89 Z M 167.30 158.67 L 167.94 159.40 C 168.60 160.18 169.77 160.27 170.54 159.60 C 171.32 158.94 171.40 157.77 170.74 157.00 L 170.10 156.26 C 169.44 155.49 168.27 155.40 167.50 156.06 C 166.73 156.73 166.64 157.89 167.30 158.67 Z M 168.02 159.40 L 168.76 160.20 C 169.42 160.93 170.54 160.98 171.27 160.32 C 171.99 159.66 172.04 158.53 171.38 157.81 L 170.65 157.00 C 169.99 156.28 168.87 156.23 168.14 156.89 C 167.42 157.55 167.36 158.67 168.02 159.40 Z M 168.85 160.18 L 169.53 160.88 C 170.18 161.55 171.25 161.57 171.92 160.93 C 172.59 160.28 172.61 159.21 171.97 158.53 L 171.29 157.83 C 170.64 157.16 169.57 157.14 168.90 157.79 C 168.22 158.43 168.20 159.51 168.85 160.18 Z M 169.61 160.84 L 170.26 161.49 C 170.88 162.12 171.90 162.12 172.53 161.50 C 173.16 160.87 173.16 159.85 172.53 159.23 L 171.89 158.57 C 171.26 157.95 170.24 157.94 169.61 158.57 C 168.99 159.20 168.98 160.21 169.61 160.84 Z"
      fill="black"
      fill-rule="nonzero" /></svg>